# Blender v3.2.0 OBJ File: 'stalker rips.blend'
# www.blender.org
mtllib streetlight.mtl
o Streetlight_Mesh.2177
v 0.082181 0.142890 -0.120496
v -0.026825 0.142890 -0.164416
v 0.128212 0.142890 -0.012374
v -0.134952 0.142890 -0.118375
v 0.128212 0.142890 -0.012374
v -0.026825 0.142890 -0.164416
v -0.134952 0.142890 -0.118375
v 0.084302 0.142890 0.096625
v 0.128212 0.142890 -0.012374
v -0.178861 0.142890 -0.009375
v 0.084302 0.142890 0.096625
v -0.134952 0.142890 -0.118375
v 0.084302 0.142890 0.096625
v -0.178861 0.142890 -0.009375
v -0.023825 0.142891 0.142666
v -0.132831 0.142891 0.098747
v -0.023825 0.142891 0.142666
v -0.178861 0.142890 -0.009375
v -0.026312 0.930292 -0.111928
v 0.045438 0.930292 -0.083034
v 0.057372 0.930292 -0.095203
v 0.045438 0.930292 -0.083034
v 0.075734 0.930292 -0.011863
v 0.057372 0.930292 -0.095203
v 0.092780 0.930292 -0.012030
v 0.057372 0.930292 -0.095203
v 0.075734 0.930292 -0.011863
v 0.092780 0.930292 -0.012030
v 0.075734 0.930292 -0.011863
v 0.059004 0.930292 0.071820
v -0.026478 0.930292 -0.128975
v -0.026312 0.930292 -0.111928
v 0.057372 0.930292 -0.095203
v -0.026478 0.930292 -0.128975
v -0.109653 0.930292 -0.093570
v -0.026312 0.930292 -0.111928
v -0.097483 0.930292 -0.081637
v -0.026312 0.930292 -0.111928
v -0.109653 0.930292 -0.093570
v -0.109653 0.930292 -0.093570
v -0.143429 0.930292 -0.009721
v -0.097483 0.930292 -0.081637
v -0.097483 0.930292 -0.081637
v -0.143429 0.930292 -0.009721
v -0.126384 0.930292 -0.009888
v -0.143429 0.930292 -0.009721
v -0.108021 0.930292 0.073452
v -0.126384 0.930292 -0.009888
v -0.108021 0.930292 0.073452
v -0.096087 0.930292 0.061283
v -0.126384 0.930292 -0.009888
v -0.108021 0.930292 0.073452
v -0.024171 0.930292 0.107225
v -0.096087 0.930292 0.061283
v -0.096087 0.930292 0.061283
v -0.024171 0.930292 0.107225
v -0.024337 0.930292 0.090177
v -0.024171 0.930292 0.107225
v 0.059004 0.930292 0.071820
v -0.024337 0.930292 0.090177
v 0.046834 0.930292 0.059887
v -0.024337 0.930292 0.090177
v 0.059004 0.930292 0.071820
v 0.075734 0.930292 -0.011863
v 0.046834 0.930292 0.059887
v 0.059004 0.930292 0.071820
v -0.143429 0.142890 -0.009721
v -0.108021 0.142891 0.073453
v -0.108021 0.930292 0.073452
v -0.143429 0.930292 -0.009721
v -0.143429 0.142890 -0.009721
v -0.108021 0.930292 0.073452
v 0.057371 0.142890 -0.095202
v 0.057372 0.930292 -0.095203
v 0.092780 0.930292 -0.012030
v 0.092779 0.142890 -0.012030
v 0.057371 0.142890 -0.095202
v 0.092780 0.930292 -0.012030
v 0.059003 0.142890 0.071820
v 0.092779 0.142890 -0.012030
v 0.092780 0.930292 -0.012030
v 0.059004 0.930292 0.071820
v 0.059003 0.142890 0.071820
v 0.092780 0.930292 -0.012030
v -0.024171 0.142890 0.107226
v 0.059003 0.142890 0.071820
v 0.059004 0.930292 0.071820
v -0.024171 0.930292 0.107225
v -0.024171 0.142890 0.107226
v 0.059004 0.930292 0.071820
v -0.108021 0.142891 0.073453
v -0.024171 0.142890 0.107226
v -0.024171 0.930292 0.107225
v -0.108021 0.930292 0.073452
v -0.108021 0.142891 0.073453
v -0.024171 0.930292 0.107225
v -0.143429 0.142890 -0.009721
v -0.143429 0.930292 -0.009721
v -0.109653 0.930292 -0.093570
v -0.109653 0.142890 -0.093569
v -0.143429 0.142890 -0.009721
v -0.109653 0.930292 -0.093570
v -0.109653 0.142890 -0.093569
v -0.109653 0.930292 -0.093570
v -0.026478 0.930292 -0.128975
v -0.026478 0.142890 -0.128975
v -0.109653 0.142890 -0.093569
v -0.026478 0.930292 -0.128975
v -0.026478 0.142890 -0.128975
v -0.026478 0.930292 -0.128975
v 0.057372 0.930292 -0.095203
v 0.057371 0.142890 -0.095202
v -0.026478 0.142890 -0.128975
v 0.057372 0.930292 -0.095203
v -0.026825 -0.001940 -0.164416
v -0.026825 0.142890 -0.164416
v 0.082181 0.142890 -0.120496
v 0.082181 -0.001940 -0.120495
v -0.026825 -0.001940 -0.164416
v 0.082181 0.142890 -0.120496
v -0.178861 -0.001940 -0.009375
v -0.178861 0.142890 -0.009375
v -0.134952 0.142890 -0.118375
v -0.134952 -0.001940 -0.118375
v -0.178861 -0.001940 -0.009375
v -0.134952 0.142890 -0.118375
v -0.134952 -0.001940 -0.118375
v -0.134952 0.142890 -0.118375
v -0.026825 0.142890 -0.164416
v -0.026825 -0.001940 -0.164416
v -0.134952 -0.001940 -0.118375
v -0.026825 0.142890 -0.164416
v 0.082181 -0.001940 -0.120495
v 0.082181 0.142890 -0.120496
v 0.128212 0.142890 -0.012374
v 0.128211 -0.001940 -0.012374
v 0.082181 -0.001940 -0.120495
v 0.128212 0.142890 -0.012374
v 0.084302 -0.001940 0.096625
v 0.128211 -0.001940 -0.012374
v 0.128212 0.142890 -0.012374
v 0.084302 0.142890 0.096625
v 0.084302 -0.001940 0.096625
v 0.128212 0.142890 -0.012374
v -0.023825 -0.001940 0.142666
v 0.084302 -0.001940 0.096625
v 0.084302 0.142890 0.096625
v -0.023825 0.142891 0.142666
v -0.023825 -0.001940 0.142666
v 0.084302 0.142890 0.096625
v -0.132831 -0.001940 0.098747
v -0.023825 -0.001940 0.142666
v -0.023825 0.142891 0.142666
v -0.132831 0.142891 0.098747
v -0.132831 -0.001940 0.098747
v -0.023825 0.142891 0.142666
v -0.178861 -0.001940 -0.009375
v -0.132831 -0.001940 0.098747
v -0.132831 0.142891 0.098747
v -0.178861 0.142890 -0.009375
v -0.178861 -0.001940 -0.009375
v -0.132831 0.142891 0.098747
v -0.024337 0.930292 0.090177
v -0.078183 5.654704 0.043021
v -0.096087 0.930292 0.061283
v -0.024585 5.654704 0.064605
v -0.078183 5.654704 0.043021
v -0.024337 0.930292 0.090177
v -0.078183 5.654704 0.043021
v -0.100815 5.654704 -0.010144
v -0.096087 0.930292 0.061283
v -0.096087 0.930292 0.061283
v -0.100815 5.654704 -0.010144
v -0.126384 0.930292 -0.009890
v -0.079226 5.654704 -0.063737
v -0.126384 0.930292 -0.009890
v -0.100815 5.654704 -0.010144
v -0.097483 0.930292 -0.081638
v -0.126384 0.930292 -0.009890
v -0.079226 5.654704 -0.063737
v -0.026059 5.654704 -0.086365
v -0.097483 0.930292 -0.081638
v -0.079226 5.654704 -0.063737
v -0.026313 0.930292 -0.111929
v -0.097483 0.930292 -0.081638
v -0.026059 5.654704 -0.086365
v 0.028582 5.654704 0.041979
v -0.024585 5.654704 0.064605
v 0.046834 0.930292 0.059886
v 0.046834 0.930292 0.059886
v -0.024585 5.654704 0.064605
v -0.024337 0.930292 0.090177
v 0.075734 0.930292 -0.011863
v 0.050170 5.654704 -0.011618
v 0.046834 0.930292 0.059886
v 0.046834 0.930292 0.059886
v 0.050170 5.654704 -0.011618
v 0.028582 5.654704 0.041979
v 0.075734 0.930292 -0.011863
v 0.045437 0.930292 -0.083035
v 0.050170 5.654704 -0.011618
v 0.050170 5.654704 -0.011618
v 0.045437 0.930292 -0.083035
v 0.027538 5.654704 -0.064781
v 0.045437 0.930292 -0.083035
v -0.026059 5.654704 -0.086365
v 0.027538 5.654704 -0.064781
v -0.026313 0.930292 -0.111929
v -0.026059 5.654704 -0.086365
v 0.045437 0.930292 -0.083035
v -0.911583 7.032925 -0.014034
v -0.903619 7.063350 -0.033798
v -0.868587 6.980421 -0.100762
v -0.868587 6.980421 -0.100762
v -0.866669 6.980421 0.095458
v -0.911583 7.032925 -0.014034
v -0.868587 6.980421 -0.100762
v -0.855181 6.977358 0.103529
v -0.866669 6.980421 0.095458
v -0.866669 6.980421 0.095458
v -0.855181 6.977358 0.103529
v -0.948010 7.002295 0.127951
v -0.946098 7.001815 0.139855
v -0.948010 7.002295 0.127951
v -0.855181 6.977358 0.103529
v -1.307449 7.098556 0.108142
v -0.948010 7.002295 0.127951
v -0.946098 7.001815 0.139855
v -1.311391 7.099642 0.119797
v -1.307449 7.098556 0.108142
v -0.946098 7.001815 0.139855
v -1.346013 7.108809 0.078797
v -1.307449 7.098556 0.108142
v -1.311391 7.099642 0.119797
v -1.357364 7.111863 0.084814
v -1.346013 7.108809 0.078797
v -1.311391 7.099642 0.119797
v -1.347513 7.108808 -0.074739
v -1.346013 7.108809 0.078797
v -1.357364 7.111863 0.084814
v -1.358980 7.111862 -0.080534
v -1.347513 7.108808 -0.074739
v -1.357364 7.111863 0.084814
v -1.358980 7.111862 -0.080534
v -1.313697 7.099642 -0.116411
v -1.347513 7.108808 -0.074739
v -0.903619 7.063350 -0.033798
v -0.904228 7.063350 -0.096161
v -0.868587 6.980421 -0.100762
v -0.857257 6.977358 -0.109058
v -0.855181 6.977358 0.103529
v -0.868587 6.980421 -0.100762
v -0.857257 6.977358 -0.109058
v -0.868587 6.980421 -0.100762
v -0.950545 7.002295 -0.131661
v -0.948867 7.001815 -0.143599
v -0.857257 6.977358 -0.109058
v -0.950545 7.002295 -0.131661
v -1.309529 7.098555 -0.104836
v -0.948867 7.001815 -0.143599
v -0.950545 7.002295 -0.131661
v -1.313697 7.099642 -0.116411
v -0.948867 7.001815 -0.143599
v -1.309529 7.098555 -0.104836
v -1.313697 7.099642 -0.116411
v -1.309529 7.098555 -0.104836
v -1.347513 7.108808 -0.074739
v -1.032451 7.073635 -0.029717
v -1.034830 7.098493 -0.036971
v -0.903619 7.063350 -0.033798
v -1.032451 7.073635 -0.029717
v -0.903619 7.063350 -0.033798
v -0.911583 7.032925 -0.014034
v -1.032451 7.073635 -0.029717
v -0.911583 7.032925 -0.014034
v -0.911353 7.032925 0.009587
v -0.866669 6.980421 0.095458
v -0.911353 7.032925 0.009587
v -0.911583 7.032925 -0.014034
v -0.903004 7.063350 0.029189
v -0.911353 7.032925 0.009587
v -0.866669 6.980421 0.095458
v -0.902394 7.063350 0.091552
v -0.903004 7.063350 0.029189
v -0.866669 6.980421 0.095458
v -1.031892 7.073635 0.027627
v -1.032451 7.073635 -0.029717
v -0.911353 7.032925 0.009587
v -0.903004 7.063350 0.029189
v -1.031892 7.073635 0.027627
v -0.911353 7.032925 0.009587
v -1.034127 7.098493 0.034927
v -1.031892 7.073635 0.027627
v -0.903004 7.063350 0.029189
v -1.034127 7.098493 0.034927
v -0.903004 7.063350 0.029189
v -0.902394 7.063350 0.091552
v -1.293104 7.167989 0.075620
v -1.034127 7.098493 0.034927
v -0.902394 7.063350 0.091552
v -0.904228 7.063350 -0.096161
v -0.903619 7.063350 -0.033798
v -1.034830 7.098493 -0.036971
v -1.294552 7.167988 -0.072597
v -0.904228 7.063350 -0.096161
v -1.034830 7.098493 -0.036971
v -1.034127 7.098493 0.034927
v -1.294552 7.167988 -0.072597
v -1.034830 7.098493 -0.036971
v -1.293104 7.167989 0.075620
v -1.294552 7.167988 -0.072597
v -1.034127 7.098493 0.034927
v -0.839898 7.034406 0.103380
v -0.946098 7.001815 0.139855
v -0.855181 6.977358 0.103529
v -0.930815 7.058862 0.139703
v -0.946098 7.001815 0.139855
v -0.839898 7.034406 0.103380
v -0.930815 7.058862 0.139703
v -1.311391 7.099642 0.119797
v -0.946098 7.001815 0.139855
v -1.296108 7.156682 0.119648
v -1.311391 7.099642 0.119797
v -0.930815 7.058862 0.139703
v -1.296108 7.156682 0.119648
v -1.342082 7.168910 0.084663
v -1.311391 7.099642 0.119797
v -1.311391 7.099642 0.119797
v -1.342082 7.168910 0.084663
v -1.357364 7.111863 0.084814
v -0.948010 7.002295 0.127951
v -0.902394 7.063350 0.091552
v -0.866669 6.980421 0.095458
v -0.902394 7.063350 0.091552
v -0.948010 7.002295 0.127951
v -1.293104 7.167989 0.075620
v -1.293104 7.167989 0.075620
v -0.948010 7.002295 0.127951
v -1.307449 7.098556 0.108142
v -1.346013 7.108809 0.078797
v -1.293104 7.167989 0.075620
v -1.307449 7.098556 0.108142
v -1.293104 7.167989 0.075620
v -1.347513 7.108808 -0.074739
v -1.294552 7.167988 -0.072597
v -1.346013 7.108809 0.078797
v -1.347513 7.108808 -0.074739
v -1.293104 7.167989 0.075620
v -1.294552 7.167988 -0.072597
v -1.347513 7.108808 -0.074739
v -1.309529 7.098555 -0.104836
v -1.294552 7.167988 -0.072597
v -1.309529 7.098555 -0.104836
v -0.950545 7.002295 -0.131661
v -0.904228 7.063350 -0.096161
v -1.294552 7.167988 -0.072597
v -0.950545 7.002295 -0.131661
v -0.904228 7.063350 -0.096161
v -0.950545 7.002295 -0.131661
v -0.868587 6.980421 -0.100762
v -0.857257 6.977358 -0.109058
v -0.839898 7.034406 0.103380
v -0.855181 6.977358 0.103529
v -0.841974 7.034406 -0.109207
v -0.839898 7.034406 0.103380
v -0.857257 6.977358 -0.109058
v -0.948867 7.001815 -0.143599
v -0.841974 7.034406 -0.109207
v -0.857257 6.977358 -0.109058
v -0.933584 7.058862 -0.143748
v -0.841974 7.034406 -0.109207
v -0.948867 7.001815 -0.143599
v -1.313697 7.099642 -0.116411
v -0.933584 7.058862 -0.143748
v -0.948867 7.001815 -0.143599
v -1.298415 7.156682 -0.116560
v -0.933584 7.058862 -0.143748
v -1.313697 7.099642 -0.116411
v -1.313697 7.099642 -0.116411
v -1.343696 7.168909 -0.080683
v -1.298415 7.156682 -0.116560
v -1.358980 7.111862 -0.080534
v -1.343696 7.168909 -0.080683
v -1.313697 7.099642 -0.116411
v -1.298415 7.156682 -0.116560
v -1.272800 7.186666 -0.055288
v -0.933584 7.058862 -0.143748
v -1.272800 7.186666 -0.055288
v -0.911118 7.089697 -0.075989
v -0.933584 7.058862 -0.143748
v -0.911118 7.089697 -0.075989
v -1.272800 7.186666 -0.055288
v -1.271694 7.186666 0.057888
v -0.909677 7.089697 0.071518
v -0.911118 7.089697 -0.075989
v -1.271694 7.186666 0.057888
v -1.271694 7.186666 0.057888
v -0.930815 7.058862 0.139703
v -0.909677 7.089697 0.071518
v -0.909677 7.089697 0.071518
v -0.930815 7.058862 0.139703
v -0.839898 7.034406 0.103380
v -0.933584 7.058862 -0.143748
v -0.911118 7.089697 -0.075989
v -0.841974 7.034406 -0.109207
v -0.909677 7.089697 0.071518
v -0.841974 7.034406 -0.109207
v -0.911118 7.089697 -0.075989
v -0.839898 7.034406 0.103380
v -0.841974 7.034406 -0.109207
v -0.909677 7.089697 0.071518
v -1.343696 7.168909 -0.080683
v -1.272800 7.186666 -0.055288
v -1.298415 7.156682 -0.116560
v -1.343696 7.168909 -0.080683
v -1.342082 7.168910 0.084663
v -1.272800 7.186666 -0.055288
v -1.272800 7.186666 -0.055288
v -1.342082 7.168910 0.084663
v -1.271694 7.186666 0.057888
v -1.271694 7.186666 0.057888
v -1.342082 7.168910 0.084663
v -1.296108 7.156682 0.119648
v -1.296108 7.156682 0.119648
v -0.930815 7.058862 0.139703
v -1.271694 7.186666 0.057888
v -1.032451 7.073635 -0.029717
v -1.031892 7.073635 0.027627
v -1.034127 7.098493 0.034927
v -1.034830 7.098493 -0.036971
v -1.032451 7.073635 -0.029717
v -1.034127 7.098493 0.034927
v -1.357364 7.111863 0.084814
v -1.343696 7.168909 -0.080683
v -1.358980 7.111862 -0.080534
v -1.342082 7.168910 0.084663
v -1.343696 7.168909 -0.080683
v -1.357364 7.111863 0.084814
v 0.065282 0.120921 0.077973
v -0.024086 0.120921 0.116026
v 0.063529 0.120920 -0.101477
v 0.101571 0.120920 -0.012116
v 0.065282 0.120921 0.077973
v 0.063529 0.120920 -0.101477
v -0.024086 0.120921 0.116026
v -0.114179 0.120921 0.079728
v 0.063529 0.120920 -0.101477
v -0.114179 0.120921 0.079728
v -0.152222 0.120921 -0.009635
v 0.063529 0.120920 -0.101477
v -0.152222 0.120921 -0.009635
v -0.115932 0.120921 -0.099724
v 0.063529 0.120920 -0.101477
v -0.115932 0.120921 -0.099724
v -0.026565 0.120920 -0.137777
v 0.063529 0.120920 -0.101477
v -0.079566 6.560688 0.009885
v -0.016459 6.467539 -0.010968
v -0.073345 6.566075 -0.010412
v -0.024136 6.464673 0.009343
v -0.016459 6.467539 -0.010968
v -0.079566 6.560688 0.009885
v -0.024136 6.464673 0.009343
v -0.079566 6.560688 0.009885
v -0.043073 6.457751 0.017913
v -0.043073 6.457751 0.017913
v -0.004885 6.355492 0.009154
v -0.024136 6.464673 0.009343
v -0.025042 6.355492 0.017738
v -0.004885 6.355492 0.009154
v -0.043073 6.457751 0.017913
v -0.004885 6.355492 0.009154
v -0.025042 6.355492 0.017738
v -0.004886 5.685576 0.009155
v -0.004886 5.685576 0.009155
v -0.025042 6.355492 0.017738
v -0.025042 5.685576 0.017739
v 0.003297 5.685576 -0.011159
v -0.004885 6.355492 0.009154
v -0.004886 5.685576 0.009155
v 0.003297 6.355492 -0.011159
v -0.004885 6.355492 0.009154
v 0.003297 5.685576 -0.011159
v -0.004885 6.355492 0.009154
v 0.003297 6.355492 -0.011159
v -0.024136 6.464673 0.009343
v -0.024136 6.464673 0.009343
v 0.003297 6.355492 -0.011159
v -0.016459 6.467539 -0.010968
v -0.025042 5.685576 0.017739
v -0.045364 6.355492 0.009549
v -0.045364 5.685576 0.009549
v -0.025042 6.355492 0.017738
v -0.045364 6.355492 0.009549
v -0.025042 5.685576 0.017739
v -0.045364 6.355492 0.009549
v -0.025042 6.355492 0.017738
v -0.062173 6.450830 0.009714
v -0.062173 6.450830 0.009714
v -0.025042 6.355492 0.017738
v -0.043073 6.457751 0.017913
v -0.062173 6.450830 0.009714
v -0.043073 6.457751 0.017913
v -0.110575 6.534665 0.010186
v -0.110575 6.534665 0.010186
v -0.043073 6.457751 0.017913
v -0.094989 6.547680 0.018420
v -0.110575 6.534665 0.010186
v -0.094989 6.547680 0.018420
v -0.184731 6.596893 0.010910
v -0.184731 6.596893 0.010910
v -0.094989 6.547680 0.018420
v -0.174532 6.614421 0.019197
v -0.856361 7.008335 0.018114
v -0.184731 6.596893 0.010910
v -0.174532 6.614421 0.019197
v -0.856361 7.008335 0.018114
v -0.174532 6.614421 0.019197
v -0.849036 7.021130 0.011919
v -0.849036 7.021130 0.011919
v -0.174532 6.614421 0.019197
v -0.164492 6.631956 0.010713
v -0.094989 6.547680 0.018420
v -0.164492 6.631956 0.010713
v -0.174532 6.614421 0.019197
v -0.079566 6.560688 0.009885
v -0.164492 6.631956 0.010713
v -0.094989 6.547680 0.018420
v -0.043073 6.457751 0.017913
v -0.079566 6.560688 0.009885
v -0.094989 6.547680 0.018420
v -0.863807 6.995540 0.012063
v -0.184731 6.596893 0.010910
v -0.856361 7.008335 0.018114
v -0.045364 5.685576 0.009549
v -0.053941 6.355492 -0.010602
v -0.053941 5.685576 -0.010601
v -0.045364 6.355492 0.009549
v -0.053941 6.355492 -0.010602
v -0.045364 5.685576 0.009549
v -0.053941 6.355492 -0.010602
v -0.045364 6.355492 0.009549
v -0.070247 6.447964 -0.010441
v -0.070247 6.447964 -0.010441
v -0.045364 6.355492 0.009549
v -0.062173 6.450830 0.009714
v -0.070247 6.447964 -0.010441
v -0.062173 6.450830 0.009714
v -0.117193 6.529280 -0.009983
v -0.117193 6.529280 -0.009983
v -0.062173 6.450830 0.009714
v -0.110575 6.534665 0.010186
v -0.110575 6.534665 0.010186
v -0.184731 6.596893 0.010910
v -0.117193 6.529280 -0.009983
v -0.053941 6.355492 -0.010602
v -0.045759 5.685576 -0.030915
v -0.053941 5.685576 -0.010601
v -0.117193 6.529280 -0.009983
v -0.184731 6.596893 0.010910
v -0.189119 6.589641 -0.009281
v -0.863807 6.995540 0.012063
v -0.189119 6.589641 -0.009281
v -0.184731 6.596893 0.010910
v -0.867014 6.990241 -0.002675
v -0.189119 6.589641 -0.009281
v -0.863807 6.995540 0.012063
v -0.117193 6.529280 -0.009983
v -0.062568 6.450830 -0.030750
v -0.070247 6.447964 -0.010441
v -0.070247 6.447964 -0.010441
v -0.062568 6.450830 -0.030750
v -0.053941 6.355492 -0.010602
v -0.053941 6.355492 -0.010602
v -0.062568 6.450830 -0.030750
v -0.045759 6.355492 -0.030916
v -0.045759 6.355492 -0.030916
v -0.045759 5.685576 -0.030915
v -0.053941 6.355492 -0.010602
v -0.045759 6.355492 -0.030916
v -0.025602 5.685576 -0.039499
v -0.045759 5.685576 -0.030915
v -0.025602 6.355492 -0.039499
v -0.025602 5.685576 -0.039499
v -0.045759 6.355492 -0.030916
v -0.062568 6.450830 -0.030750
v -0.025602 6.355492 -0.039499
v -0.045759 6.355492 -0.030916
v -0.025602 6.355492 -0.039499
v -0.005280 5.685576 -0.031310
v -0.025602 5.685576 -0.039499
v -0.864096 6.995540 -0.017476
v -0.189119 6.589641 -0.009281
v -0.867014 6.990241 -0.002675
v -0.185127 6.596893 -0.029555
v -0.189119 6.589641 -0.009281
v -0.864096 6.995540 -0.017476
v -0.189119 6.589641 -0.009281
v -0.185127 6.596893 -0.029555
v -0.117193 6.529280 -0.009983
v -0.117193 6.529280 -0.009983
v -0.185127 6.596893 -0.029555
v -0.110970 6.534665 -0.030278
v -0.110970 6.534665 -0.030278
v -0.062568 6.450830 -0.030750
v -0.117193 6.529280 -0.009983
v -0.110970 6.534665 -0.030278
v -0.043632 6.457751 -0.039322
v -0.062568 6.450830 -0.030750
v -0.043632 6.457751 -0.039322
v -0.025602 6.355492 -0.039499
v -0.062568 6.450830 -0.030750
v -0.043632 6.457751 -0.039322
v -0.005280 6.355492 -0.031310
v -0.025602 6.355492 -0.039499
v -0.005280 6.355492 -0.031310
v -0.005280 5.685576 -0.031310
v -0.025602 6.355492 -0.039499
v -0.005280 6.355492 -0.031310
v 0.003297 5.685576 -0.011159
v -0.005280 5.685576 -0.031310
v -0.024531 6.464673 -0.031121
v -0.005280 6.355492 -0.031310
v -0.043632 6.457751 -0.039322
v -0.043632 6.457751 -0.039322
v -0.079961 6.560688 -0.030579
v -0.024531 6.464673 -0.031121
v 0.003297 6.355492 -0.011159
v 0.003297 5.685576 -0.011159
v -0.005280 6.355492 -0.031310
v -0.024531 6.464673 -0.031121
v 0.003297 6.355492 -0.011159
v -0.005280 6.355492 -0.031310
v -0.016459 6.467539 -0.010968
v 0.003297 6.355492 -0.011159
v -0.024531 6.464673 -0.031121
v -0.079961 6.560688 -0.030579
v -0.016459 6.467539 -0.010968
v -0.024531 6.464673 -0.031121
v -0.073345 6.566075 -0.010412
v -0.016459 6.467539 -0.010968
v -0.079961 6.560688 -0.030579
v -0.079961 6.560688 -0.030579
v -0.160499 6.639208 -0.009560
v -0.073345 6.566075 -0.010412
v -0.095549 6.547680 -0.038815
v -0.043632 6.457751 -0.039322
v -0.110970 6.534665 -0.030278
v -0.095549 6.547680 -0.038815
v -0.079961 6.560688 -0.030579
v -0.043632 6.457751 -0.039322
v -0.095549 6.547680 -0.038815
v -0.164887 6.631956 -0.029751
v -0.079961 6.560688 -0.030579
v -0.164887 6.631956 -0.029751
v -0.160499 6.639208 -0.009560
v -0.079961 6.560688 -0.030579
v -0.160499 6.639208 -0.009560
v -0.164887 6.631956 -0.029751
v -0.846117 7.026429 -0.002880
v -0.846117 7.026429 -0.002880
v -0.164887 6.631956 -0.029751
v -0.849324 7.021130 -0.017620
v -0.185127 6.596893 -0.029555
v -0.095549 6.547680 -0.038815
v -0.110970 6.534665 -0.030278
v -0.175090 6.614421 -0.038037
v -0.095549 6.547680 -0.038815
v -0.185127 6.596893 -0.029555
v -0.175090 6.614421 -0.038037
v -0.164887 6.631956 -0.029751
v -0.095549 6.547680 -0.038815
v -0.856770 7.008335 -0.023668
v -0.164887 6.631956 -0.029751
v -0.175090 6.614421 -0.038037
v -0.849324 7.021130 -0.017620
v -0.164887 6.631956 -0.029751
v -0.856770 7.008335 -0.023668
v -0.856770 7.008335 -0.023668
v -0.175090 6.614421 -0.038037
v -0.864096 6.995540 -0.017476
v -0.864096 6.995540 -0.017476
v -0.175090 6.614421 -0.038037
v -0.185127 6.596893 -0.029555
v -0.073345 6.566075 -0.010412
v -0.160499 6.639208 -0.009560
v -0.079566 6.560688 0.009885
v -0.079566 6.560688 0.009885
v -0.160499 6.639208 -0.009560
v -0.164492 6.631956 0.010713
v -0.846117 7.026429 -0.002880
v -0.164492 6.631956 0.010713
v -0.160499 6.639208 -0.009560
v -0.849036 7.021130 0.011919
v -0.164492 6.631956 0.010713
v -0.846117 7.026429 -0.002880
v -0.100815 5.686200 -0.010144
v -0.079226 5.654704 -0.063737
v -0.100815 5.654704 -0.010144
v -0.078183 5.654704 0.043021
v -0.100815 5.686200 -0.010144
v -0.100815 5.654704 -0.010144
v -0.078183 5.686200 0.043021
v -0.100815 5.686200 -0.010144
v -0.078183 5.654704 0.043021
v -0.024585 5.654704 0.064605
v -0.078183 5.686200 0.043021
v -0.078183 5.654704 0.043021
v -0.024585 5.686200 0.064605
v -0.078183 5.686200 0.043021
v -0.024585 5.654704 0.064605
v 0.028582 5.654704 0.041979
v -0.024585 5.686200 0.064605
v -0.024585 5.654704 0.064605
v 0.028582 5.686200 0.041979
v -0.024585 5.686200 0.064605
v 0.028582 5.654704 0.041979
v 0.050170 5.654704 -0.011618
v 0.028582 5.686200 0.041979
v 0.028582 5.654704 0.041979
v 0.050170 5.686200 -0.011618
v 0.028582 5.686200 0.041979
v 0.050170 5.654704 -0.011618
v -0.079226 5.686200 -0.063737
v -0.079226 5.654704 -0.063737
v -0.100815 5.686200 -0.010144
v -0.079226 5.686200 -0.063737
v -0.026059 5.654704 -0.086365
v -0.079226 5.654704 -0.063737
v -0.026059 5.686200 -0.086365
v -0.026059 5.654704 -0.086365
v -0.079226 5.686200 -0.063737
v -0.026059 5.686200 -0.086365
v 0.027538 5.654704 -0.064781
v -0.026059 5.654704 -0.086365
v 0.027538 5.686200 -0.064781
v 0.027538 5.654704 -0.064781
v -0.026059 5.686200 -0.086365
v 0.027538 5.686200 -0.064781
v 0.050170 5.654704 -0.011618
v 0.027538 5.654704 -0.064781
v 0.050170 5.686200 -0.011618
v 0.050170 5.654704 -0.011618
v 0.027538 5.686200 -0.064781
v -0.100815 5.686200 -0.010144
v -0.026059 5.686200 -0.086365
v -0.079226 5.686200 -0.063737
v -0.024585 5.686200 0.064605
v -0.026059 5.686200 -0.086365
v -0.100815 5.686200 -0.010144
v -0.024585 5.686200 0.064605
v -0.100815 5.686200 -0.010144
v -0.078183 5.686200 0.043021
v -0.026059 5.686200 -0.086365
v 0.050170 5.686200 -0.011618
v 0.027538 5.686200 -0.064781
v -0.024585 5.686200 0.064605
v 0.050170 5.686200 -0.011618
v -0.026059 5.686200 -0.086365
v 0.028582 5.686200 0.041979
v 0.050170 5.686200 -0.011618
v -0.024585 5.686200 0.064605
vt 0.849544 0.859129
vt 0.849075 0.857908
vt 0.850670 0.859632
vt 0.849544 0.856688
vt 0.850670 0.859632
vt 0.849075 0.857908
vt 0.849544 0.856688
vt 0.851806 0.859129
vt 0.850670 0.859632
vt 0.850670 0.856184
vt 0.851806 0.859129
vt 0.849544 0.856688
vt 0.851806 0.859129
vt 0.850670 0.856184
vt 0.852275 0.857908
vt 0.851806 0.856688
vt 0.852275 0.857908
vt 0.850670 0.856184
vt 0.852410 0.866485
vt 0.851128 0.866485
vt 0.851128 0.866216
vt 0.851128 0.866485
vt 0.849794 0.866485
vt 0.851128 0.866216
vt 0.849794 0.866216
vt 0.851128 0.866216
vt 0.849794 0.866485
vt 0.849794 0.866216
vt 0.849794 0.866485
vt 0.848460 0.866216
vt 0.852410 0.866216
vt 0.852410 0.866485
vt 0.851128 0.866216
vt 0.841809 0.866216
vt 0.843132 0.866216
vt 0.841809 0.866485
vt 0.843132 0.866485
vt 0.841809 0.866485
vt 0.843132 0.866216
vt 0.843132 0.866216
vt 0.844467 0.866216
vt 0.843132 0.866485
vt 0.843132 0.866485
vt 0.844467 0.866216
vt 0.844467 0.866485
vt 0.844467 0.866216
vt 0.845801 0.866216
vt 0.844467 0.866485
vt 0.845801 0.866216
vt 0.845801 0.866485
vt 0.844467 0.866485
vt 0.845801 0.866216
vt 0.847136 0.866216
vt 0.845801 0.866485
vt 0.845801 0.866485
vt 0.847136 0.866216
vt 0.847136 0.866485
vt 0.847136 0.866216
vt 0.848460 0.866216
vt 0.847136 0.866485
vt 0.848460 0.866485
vt 0.847136 0.866485
vt 0.848460 0.866216
vt 0.849794 0.866485
vt 0.848460 0.866485
vt 0.848460 0.866216
vt 0.844467 0.856038
vt 0.845801 0.856038
vt 0.845801 0.866216
vt 0.844467 0.866216
vt 0.844467 0.856038
vt 0.845801 0.866216
vt 0.851128 0.856038
vt 0.851128 0.866216
vt 0.849794 0.866216
vt 0.849794 0.856038
vt 0.851128 0.856038
vt 0.849794 0.866216
vt 0.848460 0.856038
vt 0.849794 0.856038
vt 0.849794 0.866216
vt 0.848460 0.866216
vt 0.848460 0.856038
vt 0.849794 0.866216
vt 0.847136 0.856038
vt 0.848460 0.856038
vt 0.848460 0.866216
vt 0.847136 0.866216
vt 0.847136 0.856038
vt 0.848460 0.866216
vt 0.845801 0.856038
vt 0.847136 0.856038
vt 0.847136 0.866216
vt 0.845801 0.866216
vt 0.845801 0.856038
vt 0.847136 0.866216
vt 0.844467 0.856038
vt 0.844467 0.866216
vt 0.843132 0.866216
vt 0.843132 0.856038
vt 0.844467 0.856038
vt 0.843132 0.866216
vt 0.843132 0.856038
vt 0.843132 0.866216
vt 0.841809 0.866216
vt 0.841809 0.856038
vt 0.843132 0.856038
vt 0.841809 0.866216
vt 0.852410 0.856038
vt 0.852410 0.866216
vt 0.851128 0.866216
vt 0.851128 0.856038
vt 0.852410 0.856038
vt 0.851128 0.866216
vt 0.852400 0.855635
vt 0.852400 0.856968
vt 0.851076 0.856968
vt 0.851076 0.855635
vt 0.852400 0.855635
vt 0.851076 0.856968
vt 0.844436 0.855635
vt 0.844436 0.856968
vt 0.843112 0.856968
vt 0.843112 0.855635
vt 0.844436 0.855635
vt 0.843112 0.856968
vt 0.843112 0.855635
vt 0.843112 0.856968
vt 0.841788 0.856968
vt 0.841788 0.855635
vt 0.843112 0.855635
vt 0.841788 0.856968
vt 0.851076 0.855635
vt 0.851076 0.856968
vt 0.849742 0.856968
vt 0.849742 0.855635
vt 0.851076 0.855635
vt 0.849742 0.856968
vt 0.848418 0.855635
vt 0.849742 0.855635
vt 0.849742 0.856968
vt 0.848418 0.856968
vt 0.848418 0.855635
vt 0.849742 0.856968
vt 0.847094 0.855635
vt 0.848418 0.855635
vt 0.848418 0.856968
vt 0.847094 0.856968
vt 0.847094 0.855635
vt 0.848418 0.856968
vt 0.845760 0.855635
vt 0.847094 0.855635
vt 0.847094 0.856968
vt 0.845760 0.856968
vt 0.845760 0.855635
vt 0.847094 0.856968
vt 0.844436 0.855635
vt 0.845760 0.855635
vt 0.845760 0.856968
vt 0.844436 0.856968
vt 0.844436 0.855635
vt 0.845760 0.856968
vt 0.700492 0.716904
vt 0.699168 0.771238
vt 0.699168 0.716904
vt 0.700492 0.771238
vt 0.699168 0.771238
vt 0.700492 0.716904
vt 0.699168 0.771238
vt 0.697844 0.771238
vt 0.699168 0.716904
vt 0.699168 0.716904
vt 0.697844 0.771238
vt 0.697844 0.716904
vt 0.696520 0.771238
vt 0.697844 0.716904
vt 0.697844 0.771238
vt 0.696520 0.716904
vt 0.697844 0.716904
vt 0.696520 0.771238
vt 0.695133 0.771238
vt 0.696520 0.716904
vt 0.696520 0.771238
vt 0.695133 0.716904
vt 0.696520 0.716904
vt 0.695133 0.771238
vt 0.701815 0.771238
vt 0.700492 0.771238
vt 0.701815 0.716904
vt 0.701815 0.716904
vt 0.700492 0.771238
vt 0.700492 0.716904
vt 0.703150 0.716904
vt 0.703150 0.771238
vt 0.701815 0.716904
vt 0.701815 0.716904
vt 0.703150 0.771238
vt 0.701815 0.771238
vt 0.703150 0.716904
vt 0.704474 0.716904
vt 0.703150 0.771238
vt 0.703150 0.771238
vt 0.704474 0.716904
vt 0.704474 0.771238
vt 0.704474 0.716904
vt 0.705808 0.771238
vt 0.704474 0.771238
vt 0.705808 0.716904
vt 0.705808 0.771238
vt 0.704474 0.716904
vt 0.997478 0.913962
vt 0.997296 0.913962
vt 0.996669 0.913445
vt 0.996669 0.913445
vt 0.998509 0.913445
vt 0.997478 0.913962
vt 0.996669 0.913445
vt 0.998587 0.913334
vt 0.998509 0.913445
vt 0.998509 0.913445
vt 0.998587 0.913334
vt 0.998804 0.914228
vt 0.998918 0.914212
vt 0.998804 0.914228
vt 0.998587 0.913334
vt 0.998587 0.918549
vt 0.998804 0.914228
vt 0.998918 0.914212
vt 0.998695 0.918588
vt 0.998587 0.918549
vt 0.998918 0.914212
vt 0.998307 0.918916
vt 0.998587 0.918549
vt 0.998695 0.918588
vt 0.998364 0.919021
vt 0.998307 0.918916
vt 0.998695 0.918588
vt 0.996871 0.918916
vt 0.998307 0.918916
vt 0.998364 0.919021
vt 0.996814 0.919021
vt 0.996871 0.918916
vt 0.998364 0.919021
vt 0.996814 0.919021
vt 0.996483 0.918588
vt 0.996871 0.918916
vt 0.997296 0.913962
vt 0.996711 0.913962
vt 0.996669 0.913445
vt 0.996597 0.913334
vt 0.998587 0.913334
vt 0.996669 0.913445
vt 0.996597 0.913334
vt 0.996669 0.913445
vt 0.996374 0.914228
vt 0.996265 0.914212
vt 0.996597 0.913334
vt 0.996374 0.914228
vt 0.996591 0.918549
vt 0.996265 0.914212
vt 0.996374 0.914228
vt 0.996483 0.918588
vt 0.996265 0.914212
vt 0.996591 0.918549
vt 0.996483 0.918588
vt 0.996591 0.918549
vt 0.996871 0.918916
vt 0.997322 0.915156
vt 0.997255 0.915222
vt 0.997296 0.913962
vt 0.997322 0.915156
vt 0.997296 0.913962
vt 0.997478 0.913962
vt 0.997322 0.915156
vt 0.997478 0.913962
vt 0.997700 0.913962
vt 0.998509 0.913445
vt 0.997700 0.913962
vt 0.997478 0.913962
vt 0.997882 0.913962
vt 0.997700 0.913962
vt 0.998509 0.913445
vt 0.998467 0.913962
vt 0.997882 0.913962
vt 0.998509 0.913445
vt 0.997856 0.915156
vt 0.997322 0.915156
vt 0.997700 0.913962
vt 0.997882 0.913962
vt 0.997856 0.915156
vt 0.997700 0.913962
vt 0.997923 0.915222
vt 0.997856 0.915156
vt 0.997882 0.913962
vt 0.997923 0.915222
vt 0.997882 0.913962
vt 0.998467 0.913962
vt 0.998281 0.918583
vt 0.997923 0.915222
vt 0.998467 0.913962
vt 0.996711 0.913962
vt 0.997296 0.913962
vt 0.997255 0.915222
vt 0.996897 0.918583
vt 0.996711 0.913962
vt 0.997255 0.915222
vt 0.997923 0.915222
vt 0.996897 0.918583
vt 0.997255 0.915222
vt 0.998281 0.918583
vt 0.996897 0.918583
vt 0.997923 0.915222
vt 0.994767 0.918966
vt 0.995451 0.917955
vt 0.995451 0.918966
vt 0.994767 0.917955
vt 0.995451 0.917955
vt 0.994767 0.918966
vt 0.994767 0.917955
vt 0.995451 0.914384
vt 0.995451 0.917955
vt 0.994767 0.914384
vt 0.995451 0.914384
vt 0.994767 0.917955
vt 0.994767 0.914384
vt 0.994767 0.913373
vt 0.995451 0.914384
vt 0.995451 0.914384
vt 0.994767 0.913373
vt 0.995451 0.913373
vt 0.998804 0.914228
vt 0.998467 0.913962
vt 0.998509 0.913445
vt 0.998467 0.913962
vt 0.998804 0.914228
vt 0.998281 0.918583
vt 0.998281 0.918583
vt 0.998804 0.914228
vt 0.998587 0.918549
vt 0.998307 0.918916
vt 0.998281 0.918583
vt 0.998587 0.918549
vt 0.998281 0.918583
vt 0.996871 0.918916
vt 0.996897 0.918583
vt 0.998307 0.918916
vt 0.996871 0.918916
vt 0.998281 0.918583
vt 0.996897 0.918583
vt 0.996871 0.918916
vt 0.996591 0.918549
vt 0.996897 0.918583
vt 0.996591 0.918549
vt 0.996374 0.914228
vt 0.996711 0.913962
vt 0.996897 0.918583
vt 0.996374 0.914228
vt 0.996711 0.913962
vt 0.996374 0.914228
vt 0.996669 0.913445
vt 0.995457 0.917827
vt 0.994773 0.914778
vt 0.995457 0.914778
vt 0.994773 0.917827
vt 0.994773 0.914778
vt 0.995457 0.917827
vt 0.995446 0.914367
vt 0.994757 0.913451
vt 0.995446 0.913451
vt 0.994757 0.914367
vt 0.994757 0.913451
vt 0.995446 0.914367
vt 0.995446 0.917938
vt 0.994757 0.914367
vt 0.995446 0.914367
vt 0.994757 0.917938
vt 0.994757 0.914367
vt 0.995446 0.917938
vt 0.995446 0.917938
vt 0.994757 0.918949
vt 0.994757 0.917938
vt 0.995446 0.918949
vt 0.994757 0.918949
vt 0.995446 0.917938
vt 0.999131 0.918588
vt 0.999706 0.918433
vt 0.998908 0.914212
vt 0.999706 0.918433
vt 0.999545 0.914089
vt 0.998908 0.914212
vt 0.994239 0.914089
vt 0.994399 0.918433
vt 0.995462 0.918433
vt 0.995622 0.914089
vt 0.994239 0.914089
vt 0.995462 0.918433
vt 0.995462 0.918433
vt 0.996255 0.914212
vt 0.995622 0.914089
vt 0.995622 0.914089
vt 0.996255 0.914212
vt 0.995923 0.913334
vt 0.998908 0.914212
vt 0.999545 0.914089
vt 0.999239 0.913334
vt 0.995622 0.914089
vt 0.993933 0.913334
vt 0.994239 0.914089
vt 0.995923 0.913334
vt 0.993933 0.913334
vt 0.995622 0.914089
vt 0.994156 0.919021
vt 0.994399 0.918433
vt 0.993824 0.918588
vt 0.994156 0.919021
vt 0.995705 0.919021
vt 0.994399 0.918433
vt 0.994399 0.918433
vt 0.995705 0.919021
vt 0.995462 0.918433
vt 0.995462 0.918433
vt 0.995705 0.919021
vt 0.996037 0.918588
vt 0.996037 0.918588
vt 0.996255 0.914212
vt 0.995462 0.918433
vt 0.997322 0.915156
vt 0.997856 0.915156
vt 0.997923 0.915222
vt 0.997255 0.915222
vt 0.997322 0.915156
vt 0.997923 0.915222
vt 0.995436 0.916722
vt 0.994752 0.914778
vt 0.995436 0.914778
vt 0.994752 0.916722
vt 0.994752 0.914778
vt 0.995436 0.916722
vt 0.997182 0.916955
vt 0.997488 0.916822
vt 0.997182 0.917611
vt 0.997058 0.917283
vt 0.997182 0.916955
vt 0.997182 0.917611
vt 0.997488 0.916822
vt 0.997794 0.916955
vt 0.997182 0.917611
vt 0.997794 0.916955
vt 0.997918 0.917283
vt 0.997182 0.917611
vt 0.997918 0.917283
vt 0.997794 0.917611
vt 0.997182 0.917611
vt 0.997794 0.917611
vt 0.997488 0.917744
vt 0.997182 0.917611
vt 0.788615 0.330295
vt 0.785695 0.329531
vt 0.788615 0.329531
vt 0.785695 0.330295
vt 0.785695 0.329531
vt 0.788615 0.330295
vt 0.785695 0.330295
vt 0.788615 0.330295
vt 0.785695 0.331059
vt 0.785695 0.331059
vt 0.782860 0.330295
vt 0.785695 0.330295
vt 0.782860 0.331059
vt 0.782860 0.330295
vt 0.785695 0.331059
vt 0.782860 0.330295
vt 0.782860 0.331059
vt 0.770845 0.330295
vt 0.770845 0.330295
vt 0.782860 0.331059
vt 0.770845 0.331059
vt 0.770845 0.329531
vt 0.782860 0.330295
vt 0.770845 0.330295
vt 0.782860 0.329531
vt 0.782860 0.330295
vt 0.770845 0.329531
vt 0.782860 0.330295
vt 0.782860 0.329531
vt 0.785695 0.330295
vt 0.785695 0.330295
vt 0.782860 0.329531
vt 0.785695 0.329531
vt 0.770845 0.331059
vt 0.782860 0.331823
vt 0.770845 0.331823
vt 0.782860 0.331059
vt 0.782860 0.331823
vt 0.770845 0.331059
vt 0.782860 0.331823
vt 0.782860 0.331059
vt 0.785695 0.331823
vt 0.785695 0.331823
vt 0.782860 0.331059
vt 0.785695 0.331059
vt 0.785695 0.331823
vt 0.785695 0.331059
vt 0.788615 0.331823
vt 0.788615 0.331823
vt 0.785695 0.331059
vt 0.788615 0.331059
vt 0.788615 0.331823
vt 0.788615 0.331059
vt 0.791451 0.331823
vt 0.791451 0.331823
vt 0.788615 0.331059
vt 0.791451 0.331059
vt 0.789665 0.331059
vt 0.769942 0.331823
vt 0.769942 0.331059
vt 0.789665 0.331059
vt 0.769942 0.331059
vt 0.789665 0.330295
vt 0.789665 0.330295
vt 0.769942 0.331059
vt 0.769942 0.330295
vt 0.788615 0.331059
vt 0.791451 0.330295
vt 0.791451 0.331059
vt 0.788615 0.330295
vt 0.791451 0.330295
vt 0.788615 0.331059
vt 0.785695 0.331059
vt 0.788615 0.330295
vt 0.788615 0.331059
vt 0.789665 0.331823
vt 0.769942 0.331823
vt 0.789665 0.331059
vt 0.770845 0.331823
vt 0.782860 0.332565
vt 0.770845 0.332565
vt 0.782860 0.331823
vt 0.782860 0.332565
vt 0.770845 0.331823
vt 0.782860 0.332565
vt 0.782860 0.331823
vt 0.785695 0.332565
vt 0.785695 0.332565
vt 0.782860 0.331823
vt 0.785695 0.331823
vt 0.785695 0.332565
vt 0.785695 0.331823
vt 0.788615 0.332565
vt 0.788615 0.332565
vt 0.785695 0.331823
vt 0.788615 0.331823
vt 0.788615 0.331823
vt 0.791451 0.331823
vt 0.788615 0.332565
vt 0.782860 0.332565
vt 0.770845 0.333329
vt 0.770845 0.332565
vt 0.788615 0.332565
vt 0.791451 0.331823
vt 0.791451 0.332565
vt 0.789665 0.331823
vt 0.769942 0.332565
vt 0.769942 0.331823
vt 0.789665 0.332565
vt 0.769942 0.332565
vt 0.789665 0.331823
vt 0.788615 0.332565
vt 0.785695 0.333329
vt 0.785695 0.332565
vt 0.785695 0.332565
vt 0.785695 0.333329
vt 0.782860 0.332565
vt 0.782860 0.332565
vt 0.785695 0.333329
vt 0.782860 0.333329
vt 0.782860 0.333329
vt 0.770845 0.333329
vt 0.782860 0.332565
vt 0.782860 0.333329
vt 0.770845 0.334093
vt 0.770845 0.333329
vt 0.782860 0.334093
vt 0.770845 0.334093
vt 0.782860 0.333329
vt 0.785695 0.333329
vt 0.782860 0.334093
vt 0.782860 0.333329
vt 0.782860 0.334093
vt 0.770845 0.334857
vt 0.770845 0.334093
vt 0.789665 0.333329
vt 0.769942 0.332565
vt 0.789665 0.332565
vt 0.769942 0.333329
vt 0.769942 0.332565
vt 0.789665 0.333329
vt 0.791451 0.332565
vt 0.791451 0.333329
vt 0.788615 0.332565
vt 0.788615 0.332565
vt 0.791451 0.333329
vt 0.788615 0.333329
vt 0.788615 0.333329
vt 0.785695 0.333329
vt 0.788615 0.332565
vt 0.788615 0.333329
vt 0.785695 0.334093
vt 0.785695 0.333329
vt 0.785695 0.334093
vt 0.782860 0.334093
vt 0.785695 0.333329
vt 0.785695 0.334093
vt 0.782860 0.334857
vt 0.782860 0.334093
vt 0.782860 0.334857
vt 0.770845 0.334857
vt 0.782860 0.334093
vt 0.782860 0.334857
vt 0.770845 0.335621
vt 0.770845 0.334857
vt 0.785695 0.334857
vt 0.782860 0.334857
vt 0.785695 0.334093
vt 0.785695 0.334093
vt 0.788615 0.334857
vt 0.785695 0.334857
vt 0.782860 0.335621
vt 0.770845 0.335621
vt 0.782860 0.334857
vt 0.785695 0.334857
vt 0.782860 0.335621
vt 0.782860 0.334857
vt 0.785695 0.335621
vt 0.782860 0.335621
vt 0.785695 0.334857
vt 0.788615 0.334857
vt 0.785695 0.335621
vt 0.785695 0.334857
vt 0.788615 0.335621
vt 0.785695 0.335621
vt 0.788615 0.334857
vt 0.788615 0.334857
vt 0.791451 0.335621
vt 0.788615 0.335621
vt 0.788615 0.334093
vt 0.785695 0.334093
vt 0.788615 0.333329
vt 0.788615 0.334093
vt 0.788615 0.334857
vt 0.785695 0.334093
vt 0.788615 0.334093
vt 0.791451 0.334857
vt 0.788615 0.334857
vt 0.791451 0.334857
vt 0.791451 0.335621
vt 0.788615 0.334857
vt 0.769942 0.335621
vt 0.769942 0.334857
vt 0.789665 0.335621
vt 0.789665 0.335621
vt 0.769942 0.334857
vt 0.789665 0.334857
vt 0.791451 0.333329
vt 0.788615 0.334093
vt 0.788615 0.333329
vt 0.791451 0.334093
vt 0.788615 0.334093
vt 0.791451 0.333329
vt 0.791451 0.334093
vt 0.791451 0.334857
vt 0.788615 0.334093
vt 0.789665 0.334093
vt 0.769942 0.334857
vt 0.769942 0.334093
vt 0.789665 0.334857
vt 0.769942 0.334857
vt 0.789665 0.334093
vt 0.789665 0.334093
vt 0.769942 0.334093
vt 0.789665 0.333329
vt 0.789665 0.333329
vt 0.769942 0.334093
vt 0.769942 0.333329
vt 0.788615 0.329531
vt 0.791451 0.329531
vt 0.788615 0.330295
vt 0.788615 0.330295
vt 0.791451 0.329531
vt 0.791451 0.330295
vt 0.789665 0.329531
vt 0.769942 0.330295
vt 0.769942 0.329531
vt 0.789665 0.330295
vt 0.769942 0.330295
vt 0.789665 0.329531
vt 0.771412 0.344273
vt 0.774752 0.346970
vt 0.771412 0.346970
vt 0.789560 0.346970
vt 0.792921 0.344273
vt 0.792921 0.346970
vt 0.789560 0.344273
vt 0.792921 0.344273
vt 0.789560 0.346970
vt 0.786199 0.346970
vt 0.789560 0.344273
vt 0.789560 0.346970
vt 0.786199 0.344273
vt 0.789560 0.344273
vt 0.786199 0.346970
vt 0.782860 0.346970
vt 0.786199 0.344273
vt 0.786199 0.346970
vt 0.782860 0.344273
vt 0.786199 0.344273
vt 0.782860 0.346970
vt 0.779499 0.346970
vt 0.782860 0.344273
vt 0.782860 0.346970
vt 0.779499 0.344273
vt 0.782860 0.344273
vt 0.779499 0.346970
vt 0.774752 0.344273
vt 0.774752 0.346970
vt 0.771412 0.344273
vt 0.774752 0.344273
vt 0.778113 0.346970
vt 0.774752 0.346970
vt 0.778113 0.344273
vt 0.778113 0.346970
vt 0.774752 0.344273
vt 0.778113 0.344273
vt 0.781473 0.346970
vt 0.778113 0.346970
vt 0.781473 0.344273
vt 0.781473 0.346970
vt 0.778113 0.344273
vt 0.781473 0.344273
vt 0.784834 0.346970
vt 0.781473 0.346970
vt 0.784834 0.344273
vt 0.784834 0.346970
vt 0.781473 0.344273
vt 0.780780 0.340947
vt 0.778302 0.338295
vt 0.780066 0.339060
vt 0.778302 0.343599
vt 0.778302 0.338295
vt 0.780780 0.340947
vt 0.778302 0.343599
vt 0.780780 0.340947
vt 0.780066 0.342813
vt 0.778302 0.338295
vt 0.775823 0.340947
vt 0.776537 0.339060
vt 0.778302 0.343599
vt 0.775823 0.340947
vt 0.778302 0.338295
vt 0.776537 0.342813
vt 0.775823 0.340947
vt 0.778302 0.343599
vn 0.0000 1.0000 -0.0000
vn -0.9201 0.0000 0.3917
vn 0.9201 -0.0000 -0.3917
vn 0.7140 -0.0000 0.7002
vn 0.9276 -0.0000 0.3736
vn 0.0098 -0.0000 1.0000
vn 0.7140 0.0000 0.7001
vn -0.3736 0.0000 0.9276
vn -0.9276 0.0000 -0.3736
vn -0.7140 0.0000 -0.7002
vn -0.7140 -0.0000 -0.7001
vn -0.3917 -0.0000 -0.9201
vn 0.3736 -0.0000 -0.9276
vn 0.3737 -0.0000 -0.9275
vn -0.9276 0.0000 -0.3737
vn -0.3918 -0.0000 -0.9201
vn 0.9276 -0.0000 0.3737
vn -0.3737 0.0000 0.9275
vn -0.3735 0.0050 0.9276
vn -0.9201 0.0050 0.3917
vn -0.9999 0.0054 0.0098
vn -0.7139 0.0054 -0.7002
vn -0.7140 0.0054 -0.7002
vn -0.3916 0.0050 -0.9201
vn 0.7139 0.0054 0.7002
vn 0.3916 0.0050 0.9201
vn 0.9999 0.0054 -0.0098
vn 0.9999 0.0053 -0.0098
vn 0.9201 0.0050 -0.3917
vn 0.3736 0.0050 -0.9276
vn 0.3735 0.0050 -0.9276
vn -0.6582 -0.6860 -0.3101
vn -0.9470 -0.1925 -0.2571
vn -0.4538 -0.8908 -0.0218
vn -0.4538 -0.8908 -0.0219
vn -0.4533 -0.8908 0.0308
vn -0.6583 -0.6859 -0.3101
vn -0.2593 -0.9658 0.0025
vn -0.4533 -0.8908 0.0309
vn -0.2589 -0.9659 0.0021
vn -0.2588 -0.9659 0.0025
vn -0.2586 -0.9660 0.0024
vn -0.2586 -0.9660 0.0025
vn -0.2586 -0.9660 0.0026
vn -0.9185 -0.3953 0.0090
vn -0.2592 -0.9658 0.0025
vn -0.2589 -0.9659 0.0029
vn -0.4538 -0.8908 -0.0220
vn -0.2588 -0.9659 0.0024
vn -0.2027 -0.7123 -0.6720
vn -0.0530 -0.2844 -0.9572
vn -0.0675 -0.5032 -0.8615
vn -0.2026 -0.7123 -0.6720
vn -0.6521 -0.6860 0.3229
vn -0.6520 -0.6860 0.3229
vn -0.6583 -0.6860 -0.3101
vn -0.9418 -0.1924 0.2756
vn -0.6521 -0.6859 0.3230
vn -0.4534 -0.8908 0.0308
vn -0.9418 -0.1925 0.2755
vn -0.1894 -0.7123 0.6758
vn -0.0506 -0.5032 0.8627
vn -0.1895 -0.7123 0.6759
vn -0.0343 -0.2845 0.9581
vn -0.1895 -0.7123 0.6758
vn -0.0506 -0.5033 0.8626
vn -0.2588 -0.9659 0.0026
vn 0.3483 -0.0909 0.9330
vn 0.1523 -0.0381 0.9876
vn 0.1522 -0.0382 0.9876
vn 0.1523 -0.0382 0.9876
vn 0.3483 -0.0908 0.9330
vn -0.3247 0.0895 0.9416
vn -0.3248 0.0895 0.9415
vn -0.3247 0.0894 0.9416
vn -0.5718 0.1553 0.8056
vn -0.5717 0.1553 0.8056
vn -0.2082 -0.3767 -0.9026
vn -0.2433 -0.3560 -0.9022
vn -0.4122 -0.2192 -0.8843
vn -0.2434 -0.3560 -0.9022
vn -0.2082 -0.3768 -0.9026
vn 0.0955 -0.4437 -0.8911
vn 0.1737 -0.4469 -0.8775
vn 0.4606 -0.4528 -0.7635
vn 0.0955 -0.4438 -0.8910
vn 0.1737 -0.4470 -0.8775
vn 0.7453 -0.6667 -0.0073
vn 0.1129 -0.4437 0.8890
vn 0.4754 -0.4528 0.7543
vn 0.1909 -0.4469 0.8740
vn 0.1909 -0.4470 0.8740
vn -0.1905 -0.3768 0.9065
vn -0.2258 -0.3560 0.9068
vn -0.1905 -0.3767 0.9065
vn -0.2257 -0.3560 0.9068
vn -0.3949 -0.2192 0.8922
vn 0.9659 -0.2588 -0.0094
vn 0.1329 -0.0382 -0.9904
vn 0.3300 -0.0909 -0.9396
vn 0.1329 -0.0383 -0.9904
vn -0.3431 0.0895 -0.9350
vn -0.5874 0.1553 -0.7943
vn -0.3430 0.0895 -0.9351
vn 0.0640 0.8856 -0.4601
vn 0.0390 0.9776 -0.2067
vn 0.2787 0.8345 -0.4754
vn 0.4057 0.8874 -0.2191
vn 0.0430 0.9776 0.2059
vn 0.4099 0.8874 0.2111
vn 0.2880 0.8345 0.4698
vn 0.4098 0.8874 0.2111
vn 0.5531 0.8101 0.1946
vn 0.2787 0.8345 -0.4753
vn 0.4056 0.8874 -0.2191
vn 0.5491 0.8101 -0.2054
vn -0.1709 0.9652 -0.1978
vn -0.1670 0.9652 0.2011
vn 0.0730 0.8856 0.4588
vn 0.0730 0.8855 0.4588
vn 0.2879 0.8345 0.4699
vn -0.9957 -0.0924 0.0097
vn -0.9659 0.2588 0.0094
vn -0.0000 -1.0000 0.0000
vn 0.5637 0.4674 0.6810
vn 0.8718 0.3160 0.3742
vn 0.7114 0.5939 0.3757
vn 0.6901 0.2487 0.6797
vn 0.8719 0.3159 0.3740
vn 0.5638 0.4674 0.6809
vn 0.6900 0.2487 0.6798
vn 0.0497 0.0145 0.9987
vn 0.0496 0.0145 0.9987
vn 0.7223 0.0627 0.6887
vn 0.6899 0.2487 0.6798
vn 0.0309 0.0037 0.9995
vn 0.7223 0.0628 0.6887
vn 0.7224 0.0628 0.6886
vn 0.0310 0.0037 0.9995
vn 0.0310 0.0038 0.9995
vn 0.0098 0.0001 1.0000
vn 0.7141 0.0000 0.7001
vn 0.9247 0.0789 0.3725
vn 0.7224 0.0627 0.6886
vn 0.9247 0.0789 0.3724
vn 0.6900 0.2487 0.6797
vn 0.8719 0.3160 0.3741
vn -0.6875 -0.0610 0.7236
vn -0.7002 0.0000 0.7139
vn -0.6876 -0.0609 0.7235
vn 0.0096 -0.0000 1.0000
vn -0.6877 -0.0610 0.7235
vn 0.0308 0.0037 0.9995
vn -0.6363 -0.2341 0.7350
vn -0.6361 -0.2341 0.7352
vn 0.0311 0.0037 0.9995
vn 0.0498 0.0145 0.9987
vn -0.6362 -0.2342 0.7352
vn -0.5173 -0.4400 0.7340
vn -0.5174 -0.4400 0.7339
vn 0.0495 0.0145 0.9987
vn 0.0422 0.0273 0.9987
vn -0.5173 -0.4401 0.7340
vn 0.0424 0.0273 0.9987
vn -0.3973 -0.5684 0.7205
vn -0.3973 -0.5683 0.7205
vn 0.0423 0.0273 0.9987
vn 0.0193 0.0189 0.9996
vn 0.0013 0.0050 1.0000
vn -0.3974 -0.5684 0.7205
vn 0.0192 0.0189 0.9996
vn 0.0014 0.0051 1.0000
vn 0.0194 0.0190 0.9996
vn 0.3522 0.6172 0.7035
vn 0.3520 0.6172 0.7037
vn 0.4149 0.5909 0.6919
vn 0.0193 0.0188 0.9996
vn 0.4149 0.5909 0.6918
vn -0.3553 -0.6073 0.7106
vn -0.3973 -0.5684 0.7204
vn -0.9960 -0.0891 0.0097
vn -1.0000 0.0000 0.0098
vn -0.6875 -0.0609 0.7236
vn -0.9960 -0.0890 0.0097
vn -0.9397 -0.3420 0.0092
vn -0.9396 -0.3421 0.0092
vn -0.6362 -0.2341 0.7352
vn -0.9396 -0.3420 0.0092
vn -0.7660 -0.6428 0.0075
vn -0.7660 -0.6428 0.0074
vn -0.6362 -0.2341 0.7351
vn -1.0000 0.0000 0.0097
vn -0.5793 -0.8151 0.0057
vn -0.5793 -0.8151 0.0056
vn -0.5088 -0.8609 0.0049
vn -0.3554 -0.6073 0.7106
vn -0.6504 -0.2342 -0.7226
vn -0.9397 -0.3420 0.0091
vn -0.9960 -0.0890 0.0098
vn -0.6505 -0.2342 -0.7225
vn -0.7016 -0.0609 -0.7100
vn -0.7015 -0.0609 -0.7101
vn -0.7015 -0.0609 -0.7100
vn -0.0098 0.0002 -1.0000
vn 0.0114 0.0037 -0.9999
vn -0.0098 -0.0000 -1.0000
vn -0.7015 -0.0610 -0.7100
vn -0.6505 -0.2341 -0.7226
vn 0.0114 0.0038 -0.9999
vn 0.7002 -0.0000 -0.7139
vn -0.3691 -0.6073 -0.7035
vn -0.5792 -0.8151 0.0057
vn -0.5087 -0.8609 0.0050
vn -0.4113 -0.5684 -0.7126
vn -0.5792 -0.8152 0.0057
vn -0.5792 -0.8151 0.0056
vn -0.4112 -0.5684 -0.7126
vn -0.4113 -0.5684 -0.7125
vn -0.5316 -0.4401 -0.7237
vn -0.5315 -0.4401 -0.7237
vn 0.0300 0.0145 -0.9994
vn 0.0302 0.0145 -0.9994
vn 0.0115 0.0038 -0.9999
vn 0.0301 0.0146 -0.9994
vn 0.7088 0.0628 -0.7026
vn 0.7089 0.0628 -0.7025
vn 0.7003 -0.0000 -0.7138
vn 0.0116 0.0037 -0.9999
vn 0.9201 -0.0000 -0.3916
vn 0.6766 0.2487 -0.6931
vn 0.7089 0.0628 -0.7026
vn 0.5504 0.4674 -0.6918
vn 0.6765 0.2487 -0.6931
vn 0.9172 0.0789 -0.3904
vn 0.8644 0.3160 -0.3912
vn 0.5503 0.4674 -0.6919
vn 0.7040 0.5939 -0.3896
vn 0.5504 0.4673 -0.6919
vn 0.5215 0.7606 -0.3866
vn 0.7040 0.5938 -0.3895
vn 0.0229 0.0273 -0.9994
vn -0.5315 -0.4400 -0.7238
vn 0.0228 0.0273 -0.9994
vn 0.5503 0.4674 -0.6918
vn 0.4013 0.5910 -0.6998
vn 0.4013 0.5909 -0.6998
vn 0.4506 0.8045 -0.3869
vn 0.4505 0.8044 -0.3872
vn 0.3383 0.6171 -0.7104
vn -0.0002 0.0189 -0.9998
vn 0.0228 0.0274 -0.9994
vn -0.4113 -0.5683 -0.7126
vn -0.0001 0.0190 -0.9998
vn 0.4014 0.5909 -0.6997
vn -0.0182 0.0050 -0.9998
vn -0.0183 0.0050 -0.9998
vn -0.0181 0.0051 -0.9998
vn -0.3690 -0.6072 -0.7036
vn -0.3690 -0.6073 -0.7036
vn -0.0001 0.0189 -0.9998
vn 0.5289 0.7607 0.3763
vn 0.4581 0.8045 0.3780
vn 0.3521 0.6172 0.7037
vn 0.4580 0.8044 0.3784
vn -0.7139 -0.0000 -0.7002
vn -0.7001 -0.0000 0.7140
vn -0.7002 -0.0000 0.7140
vn 0.7139 -0.0000 0.7002
vn 0.0097 -0.0000 1.0000
vn -0.7139 -0.0000 -0.7003
vn -0.0097 -0.0000 -1.0000
vn 0.7002 0.0002 -0.7140
vn 0.7001 -0.0000 -0.7140
usemtl material_atlas_10172_1.013
s 1
f 1/1/1 2/2/1 3/3/1
f 4/4/1 5/5/1 6/6/1
f 7/7/1 8/8/1 9/9/1
f 10/10/1 11/11/1 12/12/1
f 13/13/1 14/14/1 15/15/1
f 16/16/1 17/17/1 18/18/1
f 19/19/1 20/20/1 21/21/1
f 22/22/1 23/23/1 24/24/1
f 25/25/1 26/26/1 27/27/1
f 28/28/1 29/29/1 30/30/1
f 31/31/1 32/32/1 33/33/1
f 34/34/1 35/35/1 36/36/1
f 37/37/1 38/38/1 39/39/1
f 40/40/1 41/41/1 42/42/1
f 43/43/1 44/44/1 45/45/1
f 46/46/1 47/47/1 48/48/1
f 49/49/1 50/50/1 51/51/1
f 52/52/1 53/53/1 54/54/1
f 55/55/1 56/56/1 57/57/1
f 58/58/1 59/59/1 60/60/1
f 61/61/1 62/62/1 63/63/1
f 64/64/1 65/65/1 66/66/1
f 67/67/2 68/68/2 69/69/2
f 70/70/2 71/71/2 72/72/2
f 73/73/3 74/74/3 75/75/3
f 76/76/3 77/77/3 78/78/3
f 79/79/4 80/80/5 81/81/5
f 82/82/4 83/83/4 84/84/5
f 85/85/6 86/86/4 87/87/4
f 88/88/6 89/89/6 90/90/7
f 91/91/8 92/92/6 93/93/6
f 94/94/8 95/95/8 96/96/6
f 97/97/9 98/98/9 99/99/10
f 100/100/10 101/101/9 102/102/10
f 103/103/11 104/104/11 105/105/12
f 106/106/12 107/107/10 108/108/12
f 109/109/13 110/110/13 111/111/13
f 112/112/13 113/113/13 114/114/13
f 115/115/14 116/116/14 117/117/14
f 118/118/14 119/119/14 120/120/14
f 121/121/15 122/122/15 123/123/10
f 124/124/10 125/125/15 126/126/10
f 127/127/11 128/128/11 129/129/16
f 130/130/16 131/131/11 132/132/16
f 133/133/3 134/134/3 135/135/3
f 136/136/3 137/137/3 138/138/3
f 139/139/4 140/140/17 141/141/17
f 142/142/4 143/143/4 144/144/17
f 145/145/6 146/146/7 147/147/7
f 148/148/6 149/149/6 150/150/7
f 151/151/18 152/152/6 153/153/6
f 154/154/18 155/155/18 156/156/6
f 157/157/2 158/158/2 159/159/2
f 160/160/2 161/161/2 162/162/2
f 163/163/19 164/164/19 165/165/19
f 166/166/19 167/167/19 168/168/19
f 169/169/20 170/170/21 171/171/20
f 172/172/20 173/173/21 174/174/21
f 175/175/22 176/176/21 177/177/21
f 178/178/23 179/179/21 180/180/22
f 181/181/24 182/182/22 183/183/22
f 184/184/24 185/185/23 186/186/24
f 187/187/25 188/188/26 189/189/25
f 190/190/25 191/191/26 192/192/26
f 193/193/27 194/194/27 195/195/25
f 196/196/25 197/197/27 198/198/25
f 199/199/28 200/200/29 201/201/27
f 202/202/27 203/203/29 204/204/29
f 205/205/30 206/206/30 207/207/30
f 208/208/31 209/209/31 210/210/31
f 211/211/32 212/212/33 213/213/34
f 214/214/35 215/215/36 216/216/37
f 217/217/35 218/218/38 219/219/36
f 220/220/39 221/221/40 222/222/40
f 223/223/41 224/224/41 225/225/41
f 226/226/41 227/227/41 228/228/41
f 229/229/41 230/230/41 231/231/41
f 232/232/41 233/233/41 234/234/41
f 235/235/42 236/236/42 237/237/42
f 238/238/43 239/239/43 240/240/43
f 241/241/43 242/242/43 243/243/43
f 244/244/44 245/245/44 246/246/44
f 247/247/33 248/248/45 249/249/35
f 250/250/46 251/251/46 252/252/35
f 253/253/47 254/254/48 255/255/47
f 256/256/41 257/257/41 258/258/41
f 259/259/41 260/260/41 261/261/41
f 262/262/49 263/263/49 264/264/49
f 265/265/41 266/266/41 267/267/41
f 268/268/50 269/269/51 270/270/52
f 271/271/50 272/272/52 273/273/32
f 274/274/53 275/275/32 276/276/54
f 277/277/36 278/278/55 279/279/56
f 280/280/57 281/281/58 282/282/59
f 283/283/45 284/284/60 285/285/36
f 286/286/61 287/287/50 288/288/55
f 289/289/62 290/290/63 291/291/54
f 292/292/64 293/293/65 294/294/66
f 295/295/41 296/296/41 297/297/41
f 298/298/67 299/299/67 300/300/67
f 301/301/41 302/302/41 303/303/41
f 304/304/41 305/305/41 306/306/41
f 307/307/41 308/308/41 309/309/41
f 310/310/41 311/311/41 312/312/41
f 313/313/68 314/314/69 315/315/68
f 316/316/70 317/317/71 318/318/72
f 319/319/71 320/320/73 321/321/71
f 322/322/74 323/323/74 324/324/70
f 325/325/75 326/326/76 327/327/75
f 328/328/75 329/329/77 330/330/77
f 331/331/78 332/332/79 333/333/80
f 334/334/81 335/335/82 336/336/83
f 337/337/83 338/338/78 339/339/84
f 340/340/85 341/341/86 342/342/87
f 343/343/88 344/344/88 345/345/88
f 346/346/88 347/347/88 348/348/88
f 349/349/89 350/350/90 351/351/91
f 352/352/89 353/353/92 354/354/93
f 355/355/94 356/356/89 357/357/95
f 358/358/96 359/359/93 360/360/97
f 361/361/98 362/362/98 363/363/98
f 364/364/98 365/365/98 366/366/98
f 367/367/99 368/368/100 369/369/100
f 370/370/101 371/371/100 372/372/99
f 373/373/102 374/374/99 375/375/99
f 376/376/102 377/377/99 378/378/102
f 379/379/102 380/380/103 381/381/102
f 382/382/103 383/383/103 384/384/104
f 385/385/105 386/386/106 387/387/107
f 388/388/106 389/389/108 390/390/107
f 391/391/108 392/392/106 393/393/109
f 394/394/110 395/395/108 396/396/109
f 397/397/109 398/398/111 399/399/112
f 400/400/112 401/401/111 402/402/113
f 403/403/114 404/404/115 405/405/116
f 406/406/110 407/407/116 408/408/108
f 409/409/113 410/410/116 411/411/110
f 412/412/117 413/413/106 414/414/105
f 415/415/117 416/416/118 417/417/106
f 418/418/106 419/419/118 420/420/109
f 421/421/109 422/422/118 423/423/119
f 424/424/120 425/425/121 426/426/109
f 427/427/122 428/428/122 429/429/122
f 430/430/122 431/431/122 432/432/122
f 433/433/123 434/434/123 435/435/123
f 436/436/123 437/437/123 438/438/123
f 439/439/124 440/440/124 441/441/124
f 442/442/124 443/443/124 444/444/124
f 445/445/124 446/446/124 447/447/124
f 448/448/124 449/449/124 450/450/124
f 451/451/124 452/452/124 453/453/124
f 454/454/124 455/455/124 456/456/124
f 457/457/125 458/458/126 459/459/127
f 460/460/128 461/461/129 462/462/130
f 463/463/131 464/464/125 465/465/132
f 466/466/133 467/467/134 468/468/135
f 469/469/136 470/470/137 471/471/133
f 472/472/138 473/473/139 474/474/7
f 475/475/7 476/476/140 477/477/141
f 478/478/5 479/479/138 480/480/142
f 481/481/143 482/482/138 483/483/5
f 484/484/144 485/485/145 486/486/146
f 487/487/146 488/488/145 489/489/147
f 490/490/6 491/491/148 492/492/149
f 493/493/136 494/494/150 495/495/151
f 496/496/152 497/497/153 498/498/154
f 499/499/155 500/500/156 501/501/157
f 502/502/158 503/503/132 504/504/159
f 505/505/160 506/506/161 507/507/162
f 508/508/163 509/509/164 510/510/165
f 511/511/166 512/512/167 513/513/168
f 514/514/169 515/515/170 516/516/171
f 517/517/172 518/518/173 519/519/174
f 520/520/175 521/521/168 522/522/176
f 523/523/167 524/524/176 525/525/177
f 526/526/130 527/527/178 528/528/167
f 529/529/133 530/530/125 531/531/167
f 532/532/179 533/533/180 534/534/169
f 535/535/149 536/536/181 537/537/182
f 538/538/183 539/539/184 540/540/149
f 541/541/181 542/542/183 543/543/185
f 544/544/186 545/545/183 546/546/187
f 547/547/188 548/548/187 549/549/189
f 550/550/190 551/551/191 552/552/159
f 553/553/159 554/554/165 555/555/189
f 556/556/181 557/557/11 558/558/192
f 559/559/189 560/560/166 561/561/193
f 562/562/179 563/563/194 564/564/165
f 565/565/195 566/566/193 567/567/196
f 568/568/189 569/569/197 570/570/198
f 571/571/185 572/572/197 573/573/181
f 574/574/199 575/575/200 576/576/201
f 577/577/202 578/578/11 579/579/181
f 580/580/203 581/581/204 582/582/11
f 583/583/205 584/584/206 585/585/207
f 586/586/208 587/587/209 588/588/201
f 589/589/209 590/590/210 591/591/206
f 592/592/211 593/593/212 594/594/213
f 595/595/214 596/596/215 597/597/211
f 598/598/216 599/599/217 600/600/189
f 601/601/189 602/602/218 603/603/219
f 604/604/220 605/605/197 606/606/189
f 607/607/219 608/608/221 609/609/200
f 610/610/222 611/611/223 612/612/197
f 613/613/224 614/614/225 615/615/205
f 616/616/226 617/617/227 618/618/228
f 619/619/225 620/620/229 621/621/210
f 622/622/230 623/623/231 624/624/222
f 625/625/222 626/626/232 627/627/233
f 628/628/234 629/629/229 630/630/225
f 631/631/230 632/632/234 633/633/225
f 634/634/235 635/635/234 636/636/233
f 637/637/236 638/638/235 639/639/230
f 640/640/237 641/641/235 642/642/236
f 643/643/238 644/644/239 645/645/240
f 646/646/241 647/647/222 648/648/242
f 649/649/243 650/650/244 651/651/222
f 652/652/243 653/653/245 654/654/236
f 655/655/246 656/656/239 657/657/236
f 658/658/239 659/659/246 660/660/247
f 661/661/248 662/662/246 663/663/249
f 664/664/214 665/665/243 666/666/242
f 667/667/250 668/668/251 669/669/252
f 670/670/253 671/671/254 672/672/241
f 673/673/255 674/674/245 675/675/250
f 676/676/249 677/677/246 678/678/256
f 679/679/257 680/680/250 681/681/258
f 682/682/259 683/683/260 684/684/214
f 685/685/127 686/686/261 687/687/125
f 688/688/125 689/689/261 690/690/178
f 691/691/262 692/692/176 693/693/261
f 694/694/263 695/695/178 696/696/264
f 697/697/192 698/698/265 699/699/192
f 700/700/266 701/701/182 702/702/182
f 703/703/267 704/704/192 705/705/267
f 706/706/6 707/707/266 708/708/266
f 709/709/6 710/710/266 711/711/6
f 712/712/268 713/713/269 714/714/269
f 715/715/268 716/716/269 717/717/268
f 718/718/5 719/719/4 720/720/4
f 721/721/5 722/722/4 723/723/5
f 724/724/265 725/725/265 726/726/182
f 727/727/270 728/728/271 729/729/270
f 730/730/206 731/731/206 732/732/11
f 733/733/271 734/734/272 735/735/271
f 736/736/273 737/737/273 738/738/271
f 739/739/273 740/740/3 741/741/273
f 742/742/3 743/743/3 744/744/273
f 745/745/1 746/746/1 747/747/1
f 748/748/1 749/749/1 750/750/1
f 751/751/1 752/752/1 753/753/1
f 754/754/1 755/755/1 756/756/1
f 757/757/1 758/758/1 759/759/1
f 760/760/1 761/761/1 762/762/1
