# 3ds Max Wavefront OBJ Exporter v0.97b - (c)2007 guruware
# File Created: 20.04.2017 23:35:26

mtllib desk.mtl

#
# object Mesh_1537
#

v  0.9642 1.9742 2.5095
v  -1.1762 2.1123 2.5095
v  -1.1131 1.9742 2.5095
v  0.9642 2.1123 2.5095
v  -1.1131 1.9742 -2.2719
v  0.9642 2.1123 -2.2719
v  0.9642 1.9742 -2.2719
v  -1.1762 2.1123 -2.2719
v  0.9642 1.9742 0.1188
v  -1.1131 1.9742 0.1188
v  -1.1762 2.1123 0.1188
v  0.9642 2.1123 0.1188
v  -1.0127 1.6623 2.0692
v  -1.0744 1.6270 1.9934
v  -1.0127 1.6270 2.0692
v  -1.0744 1.6623 1.9934
v  -1.0744 1.6270 1.7643
v  -1.0550 1.6270 1.7707
v  -1.0127 1.6270 1.7238
v  -1.0127 1.6623 1.7238
v  -1.0744 1.6623 1.7643
v  -1.0127 1.6270 1.6807
v  -1.0127 1.6623 1.6807
v  -1.0550 1.6623 1.7707
v  -1.0550 1.6270 1.9832
v  -1.0550 1.6623 1.9832
v  -1.0127 1.6623 2.0227
v  -1.0127 1.6270 2.0227
v  0.9332 1.9776 2.4507
v  -1.0103 0.0000 2.4507
v  0.9332 0.0000 2.4507
v  -1.0103 1.9776 2.4507
v  0.9332 1.9776 1.2861
v  -1.0103 1.9776 1.2861
v  -1.0103 0.0000 1.2861
v  0.9332 0.0000 1.2861
v  -1.0127 0.6854 1.6823
v  -1.0127 0.6501 1.7255
v  -1.0127 0.6501 1.6823
v  -1.0127 0.6854 1.7255
v  -1.0744 0.6854 1.7659
v  -1.0744 0.6501 1.7659
v  -1.0550 0.6501 1.7723
v  -1.0550 0.6854 1.7723
v  -1.0744 0.6854 1.9951
v  -1.0744 0.6501 1.9951
v  -1.0550 0.6501 1.9849
v  -1.0550 0.6854 1.9849
v  -1.0127 0.6854 2.0708
v  -1.0127 0.6501 2.0708
v  -1.0127 0.6501 2.0243
v  -1.0127 0.6854 2.0243
v  0.9332 -0.0000 1.2864
v  -1.0103 1.9776 1.2864
v  0.9332 1.9776 1.2864
v  -1.0103 -0.0000 1.2864
v  -1.0127 1.6623 -1.4614
v  -1.0744 1.6270 -1.5372
v  -1.0127 1.6270 -1.4614
v  -1.0744 1.6623 -1.5372
v  -1.0744 1.6270 -1.7663
v  -1.0550 1.6270 -1.7599
v  -1.0127 1.6270 -1.8067
v  -1.0127 1.6623 -1.8067
v  -1.0744 1.6623 -1.7663
v  -1.0127 1.6270 -1.8499
v  -1.0127 1.6623 -1.8499
v  -1.0550 1.6623 -1.7599
v  -1.0550 1.6270 -1.5474
v  -1.0550 1.6623 -1.5474
v  -1.0127 1.6623 -1.5079
v  -1.0127 1.6270 -1.5079
v  0.9332 1.9776 -1.0799
v  -1.0103 0.0000 -1.0799
v  0.9332 0.0000 -1.0799
v  -1.0103 1.9776 -1.0799
v  0.9332 1.9776 -2.2445
v  -1.0103 1.9776 -2.2445
v  -1.0103 0.0000 -2.2445
v  0.9332 0.0000 -2.2445
v  -1.0127 0.6854 -1.8482
v  -1.0127 0.6501 -1.8051
v  -1.0127 0.6501 -1.8482
v  -1.0127 0.6854 -1.8051
v  -1.0744 0.6854 -1.7646
v  -1.0744 0.6501 -1.7646
v  -1.0550 0.6501 -1.7582
v  -1.0550 0.6854 -1.7582
v  -1.0744 0.6854 -1.5355
v  -1.0744 0.6501 -1.5355
v  -1.0550 0.6501 -1.5457
v  -1.0550 0.6854 -1.5457
v  -1.0127 0.6854 -1.4598
v  -1.0127 0.6501 -1.4598
v  -1.0127 0.6501 -1.5062
v  -1.0127 0.6854 -1.5062
v  0.9332 -0.0000 -2.2442
v  -1.0103 1.9776 -2.2442
v  0.9332 1.9776 -2.2442
v  -1.0103 -0.0000 -2.2442
v  -0.2856 3.1270 -0.2930
v  -0.2858 3.1118 -0.2796
v  -0.2854 3.1392 -0.2606
v  -0.2856 3.1200 -0.2579
v  -0.2854 3.1392 0.5719
v  -0.2856 3.1200 0.5691
v  -0.2856 3.1270 0.6042
v  -0.2858 3.1118 0.5908
v  -0.2860 3.0904 0.6150
v  -0.2861 3.0872 0.5980
v  -0.2960 2.3066 0.6150
v  -0.2959 2.3097 0.5980
v  -0.2965 2.2700 0.6042
v  -0.2963 2.2852 0.5908
v  -0.2966 2.2578 0.5719
v  -0.2964 2.2770 0.5691
v  -0.2966 2.2578 -0.2606
v  -0.2964 2.2770 -0.2579
v  -0.2965 2.2700 -0.2930
v  -0.2963 2.2852 -0.2796
v  -0.2960 2.3066 -0.3038
v  -0.2959 2.3097 -0.2868
v  -0.2860 3.0904 -0.3038
v  -0.2861 3.0872 -0.2868
v  -0.1679 2.2759 0.6042
v  -0.1681 2.2637 0.5719
v  -0.1681 2.2637 -0.2606
v  -0.1679 2.2759 -0.2930
v  -0.1674 2.3125 -0.3038
v  -0.1575 3.0963 -0.3038
v  -0.1570 3.1329 -0.2930
v  -0.2160 3.1151 -0.2796
v  -0.2159 3.1232 -0.2579
v  -0.2493 3.1217 -0.0820
v  -0.2675 3.1208 0.1556
v  -0.2493 3.1217 0.3932
v  -0.2159 3.1232 0.5691
v  -0.2160 3.1151 0.5908
v  -0.2163 3.0904 0.5980
v  -0.2262 2.3129 0.5980
v  -0.2265 2.2884 0.5908
v  -0.2266 2.2802 0.5691
v  -0.2600 2.2786 0.3932
v  -0.2782 2.2778 0.1556
v  -0.2600 2.2786 -0.0820
v  -0.2266 2.2802 -0.2579
v  -0.2265 2.2884 -0.2796
v  -0.2262 2.3129 -0.2868
v  -0.2163 3.0904 -0.2868
v  -0.1674 2.3125 0.6150
v  -0.1575 3.0963 0.6150
v  -0.1570 3.1329 0.6042
v  -0.1569 3.1451 0.5719
v  -0.1569 3.1451 -0.2606
v  -0.1989 2.1062 0.7005
v  -0.1989 2.1062 -0.3898
v  0.8915 2.1062 -0.3898
v  0.8915 2.1062 0.7005
v  -0.1989 3.1966 0.7005
v  0.8915 3.1966 0.7005
v  0.8915 3.1966 -0.3898
v  -0.1989 3.1966 -0.3898
v  -0.5515 2.1134 -0.5470
v  -0.5515 2.1414 -0.5470
v  -0.4982 2.1134 -0.5458
v  -0.4982 2.1414 -0.5458
v  -0.5322 2.1134 0.8781
v  -0.5322 2.1414 0.8781
v  -0.5854 2.1134 0.8769
v  -0.5854 2.1414 0.8769
v  -1.0616 2.1134 0.6009
v  -1.0616 2.1414 0.6009
v  -0.6382 2.1134 0.6110
v  -0.6382 2.1414 0.6110
v  -0.6444 2.1134 0.8698
v  -0.6444 2.1414 0.8698
v  -1.0678 2.1134 0.8597
v  -1.0678 2.1414 0.8597
v  -1.0340 2.1134 -0.5578
v  -1.0340 2.1414 -0.5578
v  -0.6106 2.1134 -0.5477
v  -0.6106 2.1414 -0.5477
v  -0.6366 2.1134 0.5433
v  -0.6366 2.1414 0.5433
v  -1.0600 2.1134 0.5332
v  -1.0600 2.1414 0.5332
v  -1.0847 2.0937 -0.6203
v  -1.0847 2.1217 -0.6203
v  -0.4409 2.0937 -0.6050
v  -0.4409 2.1217 -0.6050
v  -0.4774 2.0937 0.9273
v  -0.4774 2.1217 0.9273
v  -1.1213 2.0937 0.9119
v  -1.1213 2.1217 0.9119
v  -0.1822 2.0936 1.5037
v  -0.2055 2.0936 1.0737
v  0.9278 2.0936 1.0122
v  0.9511 2.0936 1.4422
v  -0.1822 3.1748 1.5037
v  0.9511 3.1748 1.4422
v  0.9278 3.1748 1.0122
v  -0.2055 3.1748 1.0737
v  0.9511 2.2905 1.4422
v  -0.1822 2.2905 1.5037
v  0.9511 2.4874 1.4422
v  -0.1822 2.4874 1.5037
v  0.9511 2.6843 1.4422
v  -0.1822 2.6843 1.5037
v  0.9511 2.8812 1.4422
v  -0.1822 2.8812 1.5037
v  0.9511 3.0781 1.4422
v  -0.1822 3.0781 1.5037
v  0.9278 2.2905 1.0122
v  0.9278 2.4874 1.0122
v  0.9278 2.6843 1.0122
v  0.9278 2.8812 1.0122
v  0.9278 3.0781 1.0122
v  -0.2055 2.2905 1.0737
v  -0.2055 2.4874 1.0737
v  -0.2055 2.6843 1.0737
v  -0.2055 2.8812 1.0737
v  -0.2055 3.0781 1.0737
v  -1.0408 2.1169 -0.1575
v  1.0557 2.1169 -0.4131
v  -1.2963 2.1169 -2.2540
v  0.8002 2.1169 -2.5095
v  -1.3128 0.1218 0.1505
v  -0.8763 0.1752 -0.0155
v  -1.3140 0.1911 0.1505
v  -1.3586 0.1211 0.0158
v  -0.8751 0.1060 -0.0155
v  -0.8317 0.1483 -0.0305
v  -0.8305 0.0790 -0.0305
v  -0.8488 0.0195 -0.0239
v  -0.8740 0.0784 -0.1582
v  -0.9369 0.0457 -0.1366
v  -0.9185 0.1053 -0.1432
v  -0.8922 0.0188 -0.1516
v  -0.8935 0.0465 -0.0089
v  -1.3597 0.1904 0.0159
v  -0.9197 0.1746 -0.1432
v  -0.8751 0.1476 -0.1582
v  -1.5440 0.1872 0.1536
v  -1.9735 0.0876 0.0204
v  -1.5428 0.1179 0.1536
v  -1.9746 0.1569 0.0204
v  -1.9335 0.0884 -0.1085
v  -1.5008 0.1187 0.0178
v  -1.9131 0.0294 -0.1025
v  -1.9347 0.1576 -0.1085
v  -1.5020 0.1879 0.0178
v  -1.9788 0.1292 -0.1223
v  -1.9775 0.0599 -0.1223
v  -1.9570 0.0010 -0.1163
v  -1.9530 0.0287 0.0264
v  -2.0175 0.0592 0.0066
v  -2.0187 0.1285 0.0066
v  -1.9970 0.0003 0.0126
v  -1.4279 0.1891 0.2357
v  -1.7277 0.0915 0.5931
v  -1.4267 0.1199 0.2355
v  -1.7288 0.1608 0.5931
v  -1.8379 0.0897 0.5153
v  -1.8251 0.0306 0.4986
v  -1.8391 0.1589 0.5154
v  -1.8655 0.1308 0.5534
v  -1.8643 0.0615 0.5534
v  -1.8515 0.0024 0.5367
v  -1.7149 0.0325 0.5764
v  -1.7541 0.0633 0.6312
v  -1.7553 0.1326 0.6313
v  -1.7413 0.0043 0.6145
v  -1.0031 0.1036 0.5481
v  -1.0042 0.1729 0.5482
v  -1.1111 0.1018 0.6289
v  -1.1223 0.0423 0.6126
v  -1.1123 0.1711 0.6289
v  -1.0839 0.1438 0.6662
v  -1.0827 0.0745 0.6662
v  -1.0940 0.0151 0.6498
v  -1.0142 0.0442 0.5317
v  -0.9747 0.0764 0.5854
v  -0.9759 0.1457 0.5854
v  -0.9859 0.0169 0.5691
v  -1.2351 1.2584 0.5229
v  -1.1064 1.2606 0.4910
v  -1.6605 1.2514 0.4908
v  -1.4975 1.2540 0.5265
v  -1.0038 1.2162 0.2046
v  -0.9342 1.1386 0.2126
v  -0.9375 1.1387 -0.0321
v  -1.0477 1.2397 0.4234
v  -0.9794 1.1587 0.4391
v  -1.0466 1.1958 0.5549
v  -1.2259 1.1927 0.5993
v  -1.5024 1.1881 0.6031
v  -1.6829 1.1851 0.5636
v  -1.7584 1.2279 0.3995
v  -1.8023 1.2028 0.2150
v  -1.0069 1.2163 -0.0221
v  -1.8054 1.2029 -0.0107
v  -1.7665 1.2279 -0.1963
v  -1.0567 1.2398 -0.2397
v  -1.8153 1.1448 0.4506
v  -1.8690 1.1230 0.2254
v  -1.8723 1.1230 -0.0193
v  -1.8248 1.1449 -0.2458
v  -1.6711 1.2515 -0.2902
v  -1.6955 1.1820 -0.3623
v  -1.5092 1.2541 -0.3304
v  -1.1172 1.2607 -0.3056
v  -1.2467 1.2586 -0.3340
v  -1.5161 1.1851 -0.4069
v  -1.2396 1.1897 -0.4107
v  -1.0591 1.1926 -0.3710
v  -0.9890 1.1589 -0.2573
v  -1.5019 0.0087 -0.4722
v  -1.3682 0.0702 -0.4944
v  -1.3669 0.0110 -0.4741
v  -1.5031 0.0680 -0.4926
v  -1.3694 0.1395 -0.4944
v  -1.5043 0.1373 -0.4926
v  -1.3692 0.1673 -0.4479
v  -1.5041 0.1650 -0.4460
v  -1.4283 0.1199 0.1147
v  -1.3681 0.0979 -0.4479
v  -1.5030 0.0957 -0.4460
v  -1.3668 0.0386 -0.4275
v  -1.5016 0.0365 -0.4257
v  -1.4295 0.1891 0.1147
v  -1.9395 1.0897 0.0295
v  -1.8664 1.0482 0.0284
v  -1.8645 1.0483 0.1630
v  -1.9377 1.0898 0.1640
v  -1.9797 1.1521 0.0300
v  -1.9778 1.1521 0.1645
v  -1.9797 1.2539 0.1646
v  -1.9816 1.2539 0.0300
v  -1.9000 1.1325 0.0289
v  -1.8662 1.1073 0.0285
v  -1.9232 1.1722 0.0292
v  -1.9244 1.2548 0.0292
v  -1.8231 1.0425 -0.2458
v  -1.8705 1.0173 -0.0193
v  -1.8672 1.0172 0.2254
v  -1.8136 1.0423 0.4505
v  -1.9215 2.2889 -0.0184
v  -1.8896 2.2322 -0.2447
v  -2.0281 2.2299 -0.2428
v  -2.0600 2.2866 -0.0165
v  -2.0567 2.2866 0.2282
v  -1.9182 2.2889 0.2263
v  -1.8801 2.2322 0.4516
v  -2.0186 2.2299 0.4535
v  -1.6938 1.0797 -0.3624
v  -1.5144 1.0827 -0.4070
v  -1.2379 1.0873 -0.4108
v  -1.0574 1.0904 -0.3711
v  -1.6811 1.0796 0.5635
v  -1.5006 1.0825 0.6031
v  -1.2241 1.0871 0.5993
v  -1.0448 1.0902 0.5548
v  -1.9914 2.0300 -0.3582
v  -1.8529 2.0324 -0.3600
v  -1.9886 1.8281 -0.4003
v  -1.8501 1.8305 -0.4022
v  -1.8448 1.5202 -0.4024
v  -1.9833 1.5179 -0.4005
v  -1.9794 1.3160 -0.3584
v  -1.8409 1.3183 -0.3603
v  -1.8402 2.0323 0.5658
v  -1.9788 2.0300 0.5677
v  -1.8363 1.8303 0.6078
v  -1.9747 1.8280 0.6097
v  -1.9695 1.5177 0.6096
v  -1.8310 1.5200 0.6077
v  -1.8282 1.3181 0.5655
v  -1.9667 1.3158 0.5674
v  -0.9777 1.0564 0.4390
v  -0.9325 1.0329 0.2126
v  -0.9358 1.0329 -0.0321
v  -0.9873 1.0565 -0.2572
v  -1.8643 1.2941 0.4513
v  -2.0029 1.2917 0.4531
v  -1.9007 1.2396 0.2258
v  -2.0391 1.2373 0.2277
v  -2.0425 1.2373 -0.0169
v  -1.9039 1.2396 -0.0188
v  -1.8739 1.2941 -0.2451
v  -2.0124 1.2918 -0.2432
v  -1.8055 2.0057 -0.2882
v  -1.8419 2.1668 -0.1951
v  -1.8290 1.3696 -0.2291
v  -1.7952 1.3838 -0.2963
v  -1.8029 1.8234 -0.3264
v  -1.7980 1.5289 -0.3265
v  -1.8592 1.3170 -0.0105
v  -1.7949 2.0055 0.4927
v  -1.7913 1.8232 0.5307
v  -1.7863 1.5287 0.5306
v  -1.7843 1.3838 0.5003
v  -1.8338 2.1667 0.4007
v  -1.8199 1.3695 0.4341
v  -1.8712 2.2131 0.2160
v  -1.8561 1.3169 0.2162
v  -1.8742 2.2132 -0.0095
v  -1.4961 0.9463 0.1771
v  -1.5899 1.0570 0.1237
v  -1.5195 0.9459 0.1227
v  -1.5458 1.0577 0.2262
v  -1.4412 0.9472 0.1990
v  -1.4421 1.0594 0.2675
v  -1.3868 0.9481 0.1756
v  -1.3396 1.0612 0.2234
v  -1.3649 0.9485 0.1206
v  -1.2983 1.0618 0.1197
v  -1.3884 0.9482 0.0662
v  -1.3425 1.0612 0.0173
v  -1.4433 0.9472 0.0444
v  -1.4461 1.0594 -0.0240
v  -1.4977 0.9463 0.0677
v  -1.5486 1.0577 0.0201
v  -1.9226 1.2549 0.1638
v  -1.9213 1.1722 0.1637
v  -1.8983 1.1325 0.1634
v  -1.8644 1.1073 0.1630
v  -1.4299 0.1474 0.0441
v  -1.3749 0.1483 0.0659
v  -1.4842 0.1464 0.0674
v  -1.5061 0.1461 0.1224
v  -1.4828 0.1464 0.1768
v  -1.4277 0.1473 0.1987
v  -1.3734 0.1483 0.1753
v  -1.3515 0.1487 0.1203
# 434 vertices

vn 0.5774 -0.5774 0.5774
vn -0.6981 0.4485 0.5581
vn -0.4310 -0.6710 0.6033
vn 0.5774 0.5774 0.5774
vn -0.4310 -0.6710 -0.6033
vn 0.5774 0.5774 -0.5774
vn 0.5774 -0.5774 -0.5774
vn -0.6981 0.4485 -0.5581
vn 0.7071 -0.7071 -0.0000
vn -0.5405 -0.8413 0.0000
vn -0.8413 0.5405 0.0000
vn 0.7071 0.7071 -0.0000
vn 0.2810 0.5445 0.7903
vn -0.7248 -0.6389 0.2577
vn 0.2810 -0.5445 0.7903
vn -0.7248 0.6389 0.2577
vn -0.7275 -0.6431 -0.2393
vn 0.5631 -0.7975 0.2166
vn 0.7214 -0.6345 0.2775
vn 0.7214 0.6345 0.2775
vn -0.7275 0.6431 -0.2393
vn 0.2623 -0.5435 -0.7974
vn 0.2623 0.5435 -0.7974
vn 0.5631 0.7975 0.2166
vn 0.5395 -0.8087 -0.2344
vn 0.5395 0.8087 -0.2344
vn 0.7142 0.6275 -0.3102
vn 0.7142 -0.6275 -0.3102
vn -0.5774 -0.5774 0.5774
vn -0.5774 0.5774 0.5774
vn -0.7071 0.7071 0.0000
vn -0.7071 -0.7071 0.0000
vn -0.0000 0.0000 -1.0000
vn -0.6276 0.5272 -0.5729
vn -0.8167 -0.3804 0.4338
vn -0.6804 0.7211 -0.1305
vn -0.7391 -0.6619 0.1245
vn -0.6805 0.7211 0.1305
vn -0.7395 -0.6615 -0.1249
vn -0.6276 0.5272 0.5729
vn -0.8164 -0.3812 -0.4338
vn -0.6777 0.1096 0.7271
vn -0.7393 -0.0840 -0.6682
vn -0.6748 -0.1003 0.7311
vn -0.7417 0.1095 -0.6617
vn -0.6112 -0.5416 0.5771
vn -0.8280 0.3933 -0.3998
vn -0.6574 -0.7415 0.1347
vn -0.7598 0.6400 -0.1145
vn -0.6573 -0.7415 -0.1349
vn -0.7597 0.6402 0.1140
vn -0.6110 -0.5420 -0.5770
vn -0.8283 0.3920 0.4004
vn -0.6747 -0.1000 -0.7313
vn -0.7413 0.1092 0.6622
vn -0.6778 0.1096 -0.7271
vn -0.7391 -0.0833 0.6685
vn 0.0308 -0.6710 0.7408
vn 0.0448 -0.9826 0.1800
vn 0.0445 -0.9826 -0.1802
vn 0.0306 -0.6712 -0.7407
vn 0.0063 -0.1374 -0.9905
vn -0.0067 0.1479 -0.9890
vn -0.0316 0.6887 -0.7243
vn -0.6109 -0.5415 0.5776
vn -0.6813 -0.7290 0.0656
vn -0.6754 -0.7314 -0.0945
vn -0.6778 -0.7353 0.0000
vn -0.6754 -0.7314 0.0945
vn -0.6811 -0.7292 -0.0663
vn -0.6110 -0.5421 -0.5769
vn -0.6717 -0.1007 -0.7339
vn -0.6771 0.1099 -0.7276
vn -0.6282 0.5277 -0.5718
vn -0.7043 0.7070 -0.0641
vn -0.6996 0.7091 0.0885
vn -0.7002 0.7139 0.0000
vn -0.6995 0.7091 -0.0885
vn -0.7044 0.7070 0.0637
vn -0.6279 0.5273 0.5724
vn -0.6774 0.1091 0.7275
vn -0.6720 -0.0998 0.7338
vn 0.0063 -0.1374 0.9905
vn -0.0068 0.1479 0.9890
vn -0.0316 0.6887 0.7244
vn -0.0451 0.9830 0.1780
vn -0.0451 0.9830 -0.1780
vn -0.0000 -1.0000 0.0000
vn 0.0000 1.0000 -0.0000
vn 0.0000 0.0000 1.0000
vn 1.0000 0.0000 -0.0000
vn -1.0000 0.0000 0.0000
vn -0.6900 0.0000 -0.7238
vn -0.5634 0.5774 -0.5910
vn 0.7238 0.0000 -0.6900
vn 0.5910 0.5774 -0.5634
vn 0.6900 0.0000 0.7238
vn 0.5634 0.5773 0.5909
vn -0.7238 0.0000 0.6900
vn -0.5909 0.5774 0.5634
vn -0.6901 0.0000 -0.7238
vn 0.7238 -0.0000 -0.6900
vn 0.5634 0.5774 0.5910
vn 0.6900 -0.0000 0.7238
vn 0.5634 0.5773 0.5910
vn -0.6900 -0.0000 -0.7238
vn -0.5634 0.5773 -0.5910
vn 0.5909 0.5774 -0.5634
vn 0.6901 0.0000 0.7238
vn -0.7238 -0.0000 0.6901
vn -0.5910 0.5773 0.5634
vn 0.0000 -1.0000 -0.0000
vn 0.0000 1.0000 0.0000
vn 0.0542 -0.0000 0.9985
vn 0.0542 0.0000 0.9985
vn 0.9985 0.0000 -0.0542
vn 0.9985 -0.0000 -0.0542
vn -0.0542 -0.0000 -0.9985
vn -0.0542 0.0000 -0.9985
vn -0.9985 0.0000 0.0542
vn -0.9985 -0.0000 0.0542
vn 0.3421 -0.9352 0.0915
vn 0.4149 0.7308 0.5420
vn 0.3304 0.9388 0.0973
vn 0.2026 -0.9405 -0.2729
vn 0.0367 -0.2040 0.9783
vn 0.8416 0.4053 0.3571
vn 0.9099 -0.1073 0.4007
vn 0.4639 -0.7654 0.4460
vn 0.6101 -0.1279 -0.7819
vn -0.9032 -0.2932 -0.3134
vn -0.5795 -0.2036 -0.7891
vn -0.3217 -0.0055 -0.9468
vn 0.0990 -0.7715 -0.6284
vn -0.5245 -0.2867 0.8017
vn 0.1843 0.9389 -0.2908
vn -0.0248 0.7209 -0.6926
vn 0.4486 0.3992 -0.7996
vn -0.3394 0.9354 0.0987
vn 0.0067 -0.1979 0.9802
vn -0.2840 -0.9547 0.0894
vn -0.4146 0.7148 0.5632
vn 0.5562 -0.1920 -0.8086
vn -0.1891 -0.9435 -0.2723
vn 0.9038 -0.2628 -0.3378
vn -0.0327 0.7223 -0.6908
vn -0.2344 0.9281 -0.2892
vn -0.4832 0.3836 -0.7870
vn -0.4966 -0.1306 -0.8581
vn -0.0896 -0.7746 -0.6260
vn 0.5550 -0.2691 0.7871
vn -0.8945 -0.1377 0.4253
vn -0.8446 0.3771 0.3801
vn -0.4256 -0.7806 0.4577
vn -0.0205 0.9220 0.3866
vn 0.9263 -0.1997 0.3196
vn 0.0113 -0.9302 0.3669
vn 0.3685 0.7329 0.5719
vn -0.5787 -0.1939 -0.7921
vn -0.0391 -0.2782 -0.9597
vn -0.6693 0.7071 -0.2281
vn -0.9028 0.3756 0.2094
vn -0.9680 -0.1389 0.2090
vn -0.6138 -0.7837 -0.0956
vn 0.9233 -0.2624 -0.2803
vn 0.1296 -0.1212 0.9841
vn 0.0946 0.3930 0.9147
vn 0.3130 -0.7686 0.5579
vn 0.5733 -0.1841 -0.7984
vn 0.6418 0.7324 -0.2271
vn -0.9162 -0.2205 0.3346
vn -0.9212 -0.2938 -0.2550
vn -0.3960 0.7177 0.5728
vn -0.0841 0.3892 0.9173
vn -0.0982 -0.1241 0.9874
vn -0.2719 -0.7778 0.5666
vn 0.0221 -0.2769 -0.9607
vn 0.9775 -0.1053 0.1827
vn 0.8944 0.4068 0.1857
vn 0.6366 -0.7629 -0.1126
vn 0.0321 0.9300 0.3661
vn 0.2446 0.9528 0.1798
vn -0.2488 0.9378 0.2422
vn -0.0532 0.9283 0.3681
vn 0.4271 0.9042 -0.0063
vn 0.9346 0.3486 0.0703
vn 0.9314 0.3506 -0.0973
vn 0.4489 0.8898 0.0822
vn 0.8936 0.3417 0.2909
vn 0.5793 0.4448 0.6831
vn 0.1096 0.4086 0.9061
vn -0.0985 0.4051 0.9090
vn -0.4389 0.4015 0.8038
vn -0.4555 0.8844 0.1018
vn -0.4607 0.8875 0.0076
vn 0.4288 0.9034 -0.0073
vn -0.4591 0.8883 0.0122
vn -0.4527 0.8864 -0.0966
vn 0.4399 0.8970 -0.0427
vn -0.8301 0.3137 0.4611
vn -0.9421 0.3190 0.1036
vn -0.9460 0.3155 -0.0744
vn -0.8403 0.3129 -0.4428
vn -0.2560 0.9361 -0.2414
vn -0.4603 0.3911 -0.7970
vn -0.0648 0.9238 -0.3774
vn 0.2117 0.9578 -0.1945
vn 0.0235 0.9256 -0.3777
vn -0.1239 0.3952 -0.9102
vn 0.0857 0.3987 -0.9131
vn 0.5509 0.4189 -0.7218
vn 0.8917 0.3327 -0.3070
vn -0.5584 -0.7825 -0.2755
vn 0.6641 -0.1109 -0.7394
vn 0.5764 -0.7635 -0.2913
vn -0.6795 -0.1335 -0.7214
vn 0.5946 0.4015 -0.6966
vn -0.6275 0.3806 -0.6793
vn 0.6402 0.7331 -0.2297
vn -0.6700 0.7115 -0.2119
vn 0.0170 -0.9999 -0.0003
vn 0.9427 -0.1839 0.2783
vn -0.9285 -0.2155 0.3025
vn 0.6034 -0.2690 0.7508
vn -0.5734 -0.2879 0.7670
vn -0.0170 0.9999 0.0004
vn -0.5272 -0.5478 -0.6496
vn -0.4169 -0.7214 -0.5531
vn -0.4014 -0.7215 0.5642
vn -0.5090 -0.5475 0.6642
vn -0.7354 -0.2211 -0.6405
vn -0.7175 -0.2211 0.6606
vn -0.6977 -0.0135 0.7163
vn -0.7171 -0.0135 -0.6968
vn 0.4784 0.4371 -0.7617
vn 0.3378 0.4657 -0.8179
vn 0.6050 0.1717 -0.7775
vn 0.6978 0.0106 -0.7162
vn -0.6317 -0.6346 -0.4453
vn -0.7029 -0.7040 -0.1016
vn -0.6998 -0.7041 0.1204
vn -0.6192 -0.6347 0.4624
vn 0.4409 0.8939 -0.0816
vn 0.4335 0.7498 -0.4999
vn -0.6085 0.5959 -0.5241
vn -0.7057 0.6979 -0.1220
vn -0.7022 0.6978 0.1413
vn 0.4466 0.8917 0.0736
vn 0.4536 0.7475 0.4854
vn -0.5938 0.5958 0.5408
vn -0.3301 -0.5515 -0.7660
vn -0.0824 -0.6837 -0.7251
vn 0.0853 -0.6808 -0.7275
vn 0.4524 -0.5154 -0.7278
vn -0.3089 -0.5520 0.7745
vn -0.0625 -0.6840 0.7268
vn 0.1051 -0.6811 0.7246
vn 0.4720 -0.5159 0.7149
vn -0.5769 0.2358 -0.7821
vn 0.4743 0.3495 -0.8080
vn -0.6961 0.0633 -0.7152
vn 0.4666 0.0982 -0.8790
vn 0.4699 -0.0818 -0.8789
vn -0.6930 -0.0861 -0.7157
vn -0.5041 -0.5797 -0.6402
vn 0.4997 -0.6475 -0.5753
vn 0.4996 0.3541 0.7906
vn -0.5552 0.2356 0.7977
vn 0.4906 0.0979 0.8658
vn -0.6752 0.0631 0.7349
vn -0.6736 -0.0863 0.7341
vn 0.4938 -0.0821 0.8657
vn 0.5043 -0.6441 0.5752
vn -0.4863 -0.5801 0.6534
vn 0.6744 -0.6495 0.3512
vn 0.7253 -0.6816 0.0969
vn 0.7224 -0.6815 -0.1168
vn 0.6644 -0.6494 -0.3698
vn 0.4695 -0.8801 0.0709
vn -0.6792 -0.6670 0.3063
vn 0.4758 -0.8771 0.0657
vn -0.6802 -0.7202 0.1363
vn -0.6837 -0.7202 -0.1178
vn 0.4748 -0.8765 -0.0796
vn 0.4845 -0.8696 -0.0952
vn -0.6875 -0.6667 -0.2879
vn 0.9837 0.1504 -0.0987
vn 0.9491 0.3132 -0.0343
vn 0.9358 -0.2960 0.1913
vn 0.9595 -0.2814 0.0160
vn 0.9550 0.0451 -0.2932
vn 0.9562 -0.0127 -0.2925
vn 0.9613 -0.2745 0.0234
vn 0.9832 0.1628 0.0829
vn 0.9626 0.0450 0.2671
vn 0.9635 -0.0128 0.2673
vn 0.9689 -0.2459 -0.0268
vn 0.9484 0.3167 0.0143
vn 0.9270 -0.2759 -0.2541
vn 0.9495 0.3094 -0.0516
vn 0.9607 -0.2732 -0.0502
vn 0.9510 0.3072 0.0341
vn -0.6624 -0.3008 0.6861
vn -0.8448 -0.5350 0.0114
vn -0.9522 -0.3051 0.0130
vn -0.5867 -0.5308 0.6116
vn 0.0176 -0.2894 0.9571
vn 0.0203 -0.5206 0.8536
vn 0.6910 -0.2778 0.6673
vn 0.6208 -0.5104 0.5951
vn 0.9618 -0.2733 -0.0139
vn 0.8621 -0.5067 -0.0121
vn 0.6719 -0.2778 -0.6865
vn 0.6040 -0.5103 -0.6122
vn -0.0081 -0.2888 -0.9573
vn -0.0028 -0.5202 -0.8540
vn -0.6809 -0.3005 -0.6679
vn -0.6032 -0.5304 -0.5957
vn 0.7169 0.0106 0.6971
vn 0.6268 0.1708 0.7602
vn 0.4991 0.4373 0.7481
vn 0.3565 0.4654 0.8101
vn -0.0136 0.0002 -0.9999
vn 0.6969 0.0120 -0.7170
vn -0.7164 -0.0117 -0.6976
vn -0.9998 -0.0168 0.0129
vn -0.6973 -0.0120 0.7167
vn 0.0138 -0.0002 0.9999
vn 0.7166 0.0117 0.6974
vn 0.9998 0.0168 -0.0144
# 330 vertex normals

vt 0.0271 0.4226 0.0000
vt 0.0073 0.6782 0.0000
vt 0.0271 0.6706 0.0000
vt 0.0073 0.4226 0.0000
vt 0.0258 0.6716 0.0000
vt 0.0060 0.4236 0.0000
vt 0.0258 0.4236 0.0000
vt 0.0060 0.6791 0.0000
vt 0.0014 0.4214 0.0000
vt 0.3230 0.7101 0.0000
vt 0.3230 0.4214 0.0000
vt 0.0014 0.7101 0.0000
vt 0.3230 0.9988 0.0000
vt 0.0014 0.9988 0.0000
vt 0.3324 0.7101 0.0000
vt 0.0012 0.9988 0.0000
vt 0.3324 0.9988 0.0000
vt 0.0012 0.7101 0.0000
vt 0.3324 0.4214 0.0000
vt 0.0012 0.4214 0.0000
vt 0.0265 0.7069 0.0000
vt 0.0067 0.9923 0.0000
vt 0.0265 0.9923 0.0000
vt 0.0067 0.7069 0.0000
vt 0.0265 0.4215 0.0000
vt 0.0067 0.4215 0.0000
vt 0.0255 0.7069 0.0000
vt 0.0057 0.9923 0.0000
vt 0.0255 0.9923 0.0000
vt 0.0057 0.7069 0.0000
vt 0.0255 0.4215 0.0000
vt 0.0057 0.4215 0.0000
vt 0.6057 0.8164 0.0000
vt 0.5717 0.8261 0.0000
vt 0.6057 0.8261 0.0000
vt 0.5717 0.8164 0.0000
vt 0.4687 0.8261 0.0000
vt 0.4715 0.8261 0.0000
vt 0.4502 0.8261 0.0000
vt 0.4502 0.8164 0.0000
vt 0.4687 0.8164 0.0000
vt 0.4308 0.8261 0.0000
vt 0.4308 0.8164 0.0000
vt 0.4715 0.8164 0.0000
vt 0.5671 0.8261 0.0000
vt 0.5671 0.8164 0.0000
vt 0.5847 0.8164 0.0000
vt 0.5847 0.8261 0.0000
vt 0.1668 0.0089 0.0000
vt 0.5453 0.3445 0.0000
vt 0.5453 0.0089 0.0000
vt 0.1667 0.3445 0.0000
vt 0.3388 0.7115 0.0000
vt 0.6005 0.9987 0.0000
vt 0.6005 0.7115 0.0000
vt 0.3388 0.9987 0.0000
vt 0.5231 0.0044 0.0000
vt 0.0068 0.3377 0.0000
vt 0.5231 0.3377 0.0000
vt 0.0068 0.0044 0.0000
vt 0.0091 0.0088 0.0000
vt 0.5229 0.3362 0.0000
vt 0.5229 0.0088 0.0000
vt 0.0091 0.3362 0.0000
vt 0.0031 0.3645 0.0000
vt 0.0031 0.3611 0.0000
vt 0.0101 0.3645 0.0000
vt 0.0101 0.3610 0.0000
vt 0.1806 0.3645 0.0000
vt 0.1806 0.3611 0.0000
vt 0.1876 0.3645 0.0000
vt 0.1876 0.3610 0.0000
vt 0.1946 0.3645 0.0000
vt 0.1946 0.3610 0.0000
vt 0.3365 0.3645 0.0000
vt 0.3365 0.3611 0.0000
vt 0.3435 0.3645 0.0000
vt 0.3434 0.3611 0.0000
vt 0.0030 0.3646 0.0000
vt 0.0030 0.3611 0.0000
vt 0.0100 0.3645 0.0000
vt 0.0100 0.3611 0.0000
vt 0.1805 0.3645 0.0000
vt 0.1805 0.3611 0.0000
vt 0.1875 0.3645 0.0000
vt 0.1875 0.3611 0.0000
vt 0.1945 0.3646 0.0000
vt 0.1945 0.3611 0.0000
vt 0.3365 0.3646 0.0000
vt 0.3435 0.3646 0.0000
vt 0.0030 0.3842 0.0000
vt 0.0100 0.3842 0.0000
vt 0.1805 0.3842 0.0000
vt 0.1875 0.3842 0.0000
vt 0.1945 0.3842 0.0000
vt 0.3365 0.3842 0.0000
vt 0.3434 0.3842 0.0000
vt 0.0030 0.3504 0.0000
vt 0.0100 0.3504 0.0000
vt 0.0467 0.3555 0.0000
vt 0.0953 0.3583 0.0000
vt 0.1440 0.3555 0.0000
vt 0.1806 0.3504 0.0000
vt 0.1875 0.3504 0.0000
vt 0.1946 0.3504 0.0000
vt 0.3365 0.3504 0.0000
vt 0.3435 0.3504 0.0000
vt 0.0466 0.3555 0.0000
vt 0.1439 0.3555 0.0000
vt 0.1876 0.3504 0.0000
vt 0.1945 0.3504 0.0000
vt 0.3436 0.3504 0.0000
vt 0.3435 0.3842 0.0000
vt 0.1946 0.3842 0.0000
vt 0.1876 0.3842 0.0000
vt 0.1806 0.3842 0.0000
vt 0.0101 0.3842 0.0000
vt 0.0031 0.3842 0.0000
vt 0.4888 0.5150 0.0000
vt 0.4933 0.5165 0.0000
vt 0.3481 0.5150 0.0000
vt 0.3437 0.5165 0.0000
vt 0.4947 0.5209 0.0000
vt 0.3422 0.5209 0.0000
vt 0.4947 0.5569 0.0000
vt 0.3422 0.5569 0.0000
vt 0.4947 0.6055 0.0000
vt 0.3422 0.6055 0.0000
vt 0.4947 0.6542 0.0000
vt 0.3422 0.6542 0.0000
vt 0.4947 0.6902 0.0000
vt 0.3422 0.6902 0.0000
vt 0.4933 0.6946 0.0000
vt 0.3437 0.6946 0.0000
vt 0.4888 0.6961 0.0000
vt 0.3481 0.6961 0.0000
vt 0.5076 0.5768 0.0000
vt 0.5076 0.4667 0.0000
vt 0.6177 0.4667 0.0000
vt 0.6177 0.5768 0.0000
vt 0.5864 0.4651 0.0000
vt 0.6965 0.4651 0.0000
vt 0.6965 0.5751 0.0000
vt 0.5864 0.5751 0.0000
vt 0.7340 0.5874 0.0000
vt 0.7340 0.4576 0.0000
vt 0.8638 0.4576 0.0000
vt 0.8638 0.5874 0.0000
vt 0.5044 0.5765 0.0000
vt 0.5044 0.4665 0.0000
vt 0.6144 0.4665 0.0000
vt 0.6144 0.5765 0.0000
vt 0.2904 0.4072 0.0000
vt 0.2848 0.4072 0.0000
vt 0.2904 0.3981 0.0000
vt 0.2848 0.3981 0.0000
vt 0.2848 0.3924 0.0000
vt 0.0402 0.3924 0.0000
vt 0.0402 0.3981 0.0000
vt 0.0346 0.3981 0.0000
vt 0.0346 0.4072 0.0000
vt 0.0402 0.4072 0.0000
vt 0.0402 0.4129 0.0000
vt 0.2848 0.4129 0.0000
vt 0.5151 0.6954 0.0000
vt 0.5151 0.6897 0.0000
vt 0.5878 0.6954 0.0000
vt 0.5878 0.6897 0.0000
vt 0.5935 0.6897 0.0000
vt 0.5935 0.6453 0.0000
vt 0.5878 0.6453 0.0000
vt 0.5878 0.6396 0.0000
vt 0.5151 0.6396 0.0000
vt 0.5151 0.6453 0.0000
vt 0.5095 0.6453 0.0000
vt 0.5095 0.6897 0.0000
vt 0.5461 0.4285 0.0000
vt 0.5404 0.4285 0.0000
vt 0.5461 0.3558 0.0000
vt 0.5404 0.3558 0.0000
vt 0.5404 0.3502 0.0000
vt 0.3531 0.3502 0.0000
vt 0.3531 0.3558 0.0000
vt 0.3475 0.3558 0.0000
vt 0.3475 0.4285 0.0000
vt 0.3531 0.4285 0.0000
vt 0.3531 0.4342 0.0000
vt 0.5404 0.4342 0.0000
vt 0.5322 0.4840 0.0000
vt 0.5379 0.4840 0.0000
vt 0.5322 0.5567 0.0000
vt 0.5379 0.5567 0.0000
vt 0.5379 0.5623 0.0000
vt 0.7252 0.5623 0.0000
vt 0.7252 0.5567 0.0000
vt 0.7308 0.5567 0.0000
vt 0.7308 0.4840 0.0000
vt 0.7252 0.4840 0.0000
vt 0.7252 0.4783 0.0000
vt 0.5379 0.4783 0.0000
vt 0.3379 0.5028 0.0000
vt 0.3379 0.4414 0.0000
vt 0.4995 0.4414 0.0000
vt 0.4995 0.5028 0.0000
vt 0.3378 0.4414 0.0000
vt 0.5001 0.4414 0.0000
vt 0.5001 0.5030 0.0000
vt 0.3378 0.5030 0.0000
vt 0.5462 0.4548 0.0000
vt 0.6806 0.4548 0.0000
vt 0.6806 0.4781 0.0000
vt 0.5462 0.4781 0.0000
vt 0.6806 0.5015 0.0000
vt 0.5462 0.5015 0.0000
vt 0.6806 0.5248 0.0000
vt 0.5462 0.5248 0.0000
vt 0.6806 0.5481 0.0000
vt 0.5462 0.5481 0.0000
vt 0.6806 0.5714 0.0000
vt 0.5462 0.5714 0.0000
vt 0.6806 0.5829 0.0000
vt 0.5462 0.5829 0.0000
vt 0.9248 0.4583 0.0000
vt 0.9248 0.5865 0.0000
vt 0.8662 0.5865 0.0000
vt 0.8662 0.4583 0.0000
vt 0.5926 0.6285 0.0000
vt 0.5112 0.6285 0.0000
vt 0.5112 0.5913 0.0000
vt 0.5926 0.5913 0.0000
vt 0.9950 0.4586 0.0000
vt 0.9950 0.5863 0.0000
vt 0.9366 0.5863 0.0000
vt 0.9366 0.4586 0.0000
vt 0.9828 0.4586 0.0000
vt 0.9828 0.5863 0.0000
vt 0.9244 0.5863 0.0000
vt 0.9244 0.4586 0.0000
vt 0.9132 0.4582 0.0000
vt 0.9132 0.5859 0.0000
vt 0.8549 0.5859 0.0000
vt 0.8549 0.4582 0.0000
vt 0.8262 0.5859 0.0000
vt 0.8262 0.4582 0.0000
vt 0.5465 0.4549 0.0000
vt 0.6800 0.4549 0.0000
vt 0.6800 0.4781 0.0000
vt 0.5465 0.4781 0.0000
vt 0.6800 0.5012 0.0000
vt 0.5465 0.5012 0.0000
vt 0.6800 0.5244 0.0000
vt 0.5465 0.5244 0.0000
vt 0.6800 0.5476 0.0000
vt 0.5465 0.5476 0.0000
vt 0.6800 0.5707 0.0000
vt 0.5465 0.5707 0.0000
vt 0.6800 0.5821 0.0000
vt 0.5465 0.5821 0.0000
vt 0.9119 0.4595 0.0000
vt 0.9119 0.5870 0.0000
vt 0.8536 0.5870 0.0000
vt 0.8536 0.4595 0.0000
vt 0.7953 0.5870 0.0000
vt 0.7953 0.4595 0.0000
vt 0.7935 0.4595 0.0000
vt 0.7935 0.5870 0.0000
vt 0.7352 0.5870 0.0000
vt 0.7352 0.4595 0.0000
vt 0.7932 0.4595 0.0000
vt 0.7932 0.5870 0.0000
vt 0.7349 0.5870 0.0000
vt 0.7349 0.4595 0.0000
vt 0.8025 0.4773 0.0000
vt 0.9888 0.4773 0.0000
vt 0.9888 0.5191 0.0000
vt 0.8025 0.5191 0.0000
vt 0.9961 0.0052 0.0000
vt 0.9961 0.4501 0.0000
vt 0.5512 0.0052 0.0000
vt 0.5512 0.4501 0.0000
vt 0.6518 0.7390 0.0000
vt 0.6504 0.9720 0.0000
vt 0.6041 0.7394 0.0000
vt 0.6512 0.9966 0.0000
vt 0.6509 0.9858 0.0000
vt 0.6052 0.9969 0.0000
vt 0.6052 0.9616 0.0000
vt 0.6044 0.9723 0.0000
vt 0.6050 0.9853 0.0000
vt 0.6512 0.9612 0.0000
vt 0.6049 0.7382 0.0000
vt 0.6047 0.9712 0.0000
vt 0.6515 0.9706 0.0000
vt 0.6515 0.7379 0.0000
vt 0.6514 0.9596 0.0000
vt 0.6519 0.9956 0.0000
vt 0.6517 0.9847 0.0000
vt 0.6045 0.9594 0.0000
vt 0.6050 0.9962 0.0000
vt 0.6056 0.9844 0.0000
vt 0.6051 0.7398 0.0000
vt 0.6052 0.9729 0.0000
vt 0.6514 0.9727 0.0000
vt 0.6518 0.7396 0.0000
vt 0.6509 0.9623 0.0000
vt 0.6509 0.9968 0.0000
vt 0.6512 0.9859 0.0000
vt 0.6047 0.9625 0.0000
vt 0.6055 0.9964 0.0000
vt 0.6050 0.9861 0.0000
vt 0.6048 0.7394 0.0000
vt 0.6045 0.9729 0.0000
vt 0.6526 0.9732 0.0000
vt 0.6518 0.7391 0.0000
vt 0.6523 0.9630 0.0000
vt 0.6526 0.9970 0.0000
vt 0.6523 0.9851 0.0000
vt 0.6047 0.9627 0.0000
vt 0.6045 0.9966 0.0000
vt 0.6047 0.9848 0.0000
vt 0.9511 0.7741 0.0000
vt 0.9440 0.8064 0.0000
vt 0.9422 0.6680 0.0000
vt 0.9511 0.7086 0.0000
vt 0.8769 0.8328 0.0000
vt 0.8790 0.8498 0.0000
vt 0.8213 0.8498 0.0000
vt 0.9283 0.8212 0.0000
vt 0.9322 0.8378 0.0000
vt 0.9592 0.8208 0.0000
vt 0.9691 0.7759 0.0000
vt 0.9691 0.7069 0.0000
vt 0.9592 0.6619 0.0000
vt 0.9203 0.6438 0.0000
vt 0.8767 0.6334 0.0000
vt 0.8234 0.8328 0.0000
vt 0.8236 0.6334 0.0000
vt 0.7799 0.6438 0.0000
vt 0.7720 0.8212 0.0000
vt 0.9322 0.6291 0.0000
vt 0.8790 0.6164 0.0000
vt 0.8213 0.6164 0.0000
vt 0.7681 0.6291 0.0000
vt 0.7581 0.6680 0.0000
vt 0.7410 0.6619 0.0000
vt 0.7491 0.7086 0.0000
vt 0.7563 0.8064 0.0000
vt 0.7491 0.7741 0.0000
vt 0.7311 0.7069 0.0000
vt 0.7311 0.7759 0.0000
vt 0.7410 0.8208 0.0000
vt 0.7681 0.8378 0.0000
vt 0.6048 0.9858 0.0000
vt 0.6519 0.9961 0.0000
vt 0.6519 0.9858 0.0000
vt 0.6048 0.9961 0.0000
vt 0.6519 0.9726 0.0000
vt 0.6048 0.9726 0.0000
vt 0.6522 0.7388 0.0000
vt 0.6045 0.7388 0.0000
vt 0.6954 0.6452 0.0000
vt 0.7305 0.6452 0.0000
vt 0.7062 0.6803 0.0000
vt 0.7062 0.6100 0.0000
vt 0.6670 0.6234 0.0000
vt 0.6670 0.6669 0.0000
vt 0.6519 0.9623 0.0000
vt 0.6048 0.9623 0.0000
vt 0.6937 0.6453 0.0000
vt 0.7043 0.6098 0.0000
vt 0.6657 0.6233 0.0000
vt 0.7282 0.6453 0.0000
vt 0.7043 0.6808 0.0000
vt 0.6657 0.6672 0.0000
vt 0.6065 0.6334 0.0000
vt 0.6065 0.6103 0.0000
vt 0.6505 0.6103 0.0000
vt 0.6505 0.6334 0.0000
vt 0.6065 0.6681 0.0000
vt 0.6505 0.6681 0.0000
vt 0.6505 0.7293 0.0000
vt 0.6065 0.7293 0.0000
vt 0.6065 0.6340 0.0000
vt 0.6065 0.6116 0.0000
vt 0.6065 0.6679 0.0000
vt 0.6596 0.7928 0.0000
vt 0.6598 0.6972 0.0000
vt 0.7036 0.6972 0.0000
vt 0.7035 0.7928 0.0000
vt 0.7035 0.8976 0.0000
vt 0.6596 0.8976 0.0000
vt 0.6598 0.9943 0.0000
vt 0.7036 0.9943 0.0000
vt 0.6615 0.8967 0.0000
vt 0.6617 0.9941 0.0000
vt 0.7054 0.9941 0.0000
vt 0.7052 0.8967 0.0000
vt 0.7052 0.7924 0.0000
vt 0.6615 0.7924 0.0000
vt 0.6617 0.6974 0.0000
vt 0.7054 0.6974 0.0000
vt 0.6580 0.9420 0.0000
vt 0.6579 0.9925 0.0000
vt 0.7044 0.9925 0.0000
vt 0.7038 0.9420 0.0000
vt 0.6580 0.8730 0.0000
vt 0.7038 0.8730 0.0000
vt 0.7038 0.7670 0.0000
vt 0.6580 0.7670 0.0000
vt 0.6580 0.6980 0.0000
vt 0.7038 0.6980 0.0000
vt 0.7052 0.9420 0.0000
vt 0.7052 0.8730 0.0000
vt 0.7052 0.7670 0.0000
vt 0.7052 0.6980 0.0000
vt 0.6568 0.9242 0.0000
vt 0.6568 0.9946 0.0000
vt 0.7041 0.9946 0.0000
vt 0.7041 0.9242 0.0000
vt 0.6568 0.8595 0.0000
vt 0.7041 0.8595 0.0000
vt 0.7041 0.7602 0.0000
vt 0.6568 0.7602 0.0000
vt 0.6568 0.6956 0.0000
vt 0.7041 0.6956 0.0000
vt 0.6598 0.9561 0.0000
vt 0.6599 0.9940 0.0000
vt 0.7030 0.9940 0.0000
vt 0.7033 0.9561 0.0000
vt 0.6605 0.8847 0.0000
vt 0.7027 0.8847 0.0000
vt 0.7027 0.8073 0.0000
vt 0.6605 0.8073 0.0000
vt 0.6598 0.7359 0.0000
vt 0.7033 0.7359 0.0000
vt 0.6604 0.6980 0.0000
vt 0.7030 0.6980 0.0000
vt 0.6969 0.9584 0.0000
vt 0.6970 0.9927 0.0000
vt 0.6594 0.9927 0.0000
vt 0.6593 0.9584 0.0000
vt 0.6971 0.8866 0.0000
vt 0.6595 0.8866 0.0000
vt 0.6595 0.8103 0.0000
vt 0.6971 0.8103 0.0000
vt 0.6969 0.7413 0.0000
vt 0.6593 0.7413 0.0000
vt 0.6970 0.7041 0.0000
vt 0.6594 0.7041 0.0000
vt 0.7572 0.6793 0.0000
vt 0.7789 0.6437 0.0000
vt 0.7709 0.8188 0.0000
vt 0.7553 0.8158 0.0000
vt 0.7483 0.7193 0.0000
vt 0.7483 0.7840 0.0000
vt 0.7671 0.8352 0.0000
vt 0.8221 0.8303 0.0000
vt 0.7402 0.8301 0.0000
vt 0.7303 0.7857 0.0000
vt 0.7303 0.7176 0.0000
vt 0.7402 0.6732 0.0000
vt 0.7671 0.6292 0.0000
vt 0.9401 0.6793 0.0000
vt 0.9489 0.7193 0.0000
vt 0.9489 0.7840 0.0000
vt 0.9419 0.8158 0.0000
vt 0.9184 0.6437 0.0000
vt 0.9263 0.8188 0.0000
vt 0.8750 0.6335 0.0000
vt 0.8751 0.8303 0.0000
vt 0.8222 0.6335 0.0000
vt 0.8200 0.6167 0.0000
vt 0.8773 0.6167 0.0000
vt 0.9302 0.6292 0.0000
vt 0.9570 0.6732 0.0000
vt 0.9669 0.7176 0.0000
vt 0.9669 0.7857 0.0000
vt 0.9570 0.8301 0.0000
vt 0.9302 0.8352 0.0000
vt 0.8773 0.8471 0.0000
vt 0.8200 0.8471 0.0000
vt 0.7543 0.9714 0.0000
vt 0.7204 0.9866 0.0000
vt 0.7543 0.9866 0.0000
vt 0.7204 0.9714 0.0000
vt 0.7543 0.9561 0.0000
vt 0.7204 0.9561 0.0000
vt 0.7543 0.9409 0.0000
vt 0.7204 0.9409 0.0000
vt 0.7543 0.9257 0.0000
vt 0.7204 0.9257 0.0000
vt 0.7543 0.9105 0.0000
vt 0.7204 0.9105 0.0000
vt 0.7543 0.8953 0.0000
vt 0.7204 0.8953 0.0000
vt 0.7543 0.8801 0.0000
vt 0.7204 0.8801 0.0000
vt 0.7543 0.8648 0.0000
vt 0.7204 0.8648 0.0000
vt 0.6505 0.6679 0.0000
vt 0.6505 0.6340 0.0000
vt 0.6505 0.6116 0.0000
vt 0.9958 0.8953 0.0000
vt 0.9958 0.9105 0.0000
vt 0.9958 0.8801 0.0000
vt 0.9958 0.8648 0.0000
vt 0.9958 0.9714 0.0000
vt 0.9958 0.9866 0.0000
vt 0.9958 0.9561 0.0000
vt 0.9958 0.9409 0.0000
vt 0.9958 0.9257 0.0000
# 511 texture coords

g Mesh_1537
usemtl Material__4815
s 263
f 1/1/1 2/2/2 3/3/3 
s 264
f 2/2/2 1/1/1 4/4/4 
s 265
f 5/5/5 6/6/6 7/7/7 
s 266
f 6/6/6 5/5/5 8/8/8 
s 455
f 3/9/3 9/10/9 1/11/1 
s 456
f 9/10/9 3/9/3 10/12/10 
s 457
f 10/12/10 7/13/7 9/10/9 
s 458
f 7/13/7 10/12/10 5/14/5 
s 459
f 11/15/11 6/16/6 8/17/8 
s 460
f 6/16/6 11/15/11 12/18/12 
s 461
f 2/19/2 12/18/12 11/15/11 
s 462
f 12/18/12 2/19/2 4/20/4 
s 463
f 10/21/10 8/22/8 5/23/5 
s 464
f 8/22/8 10/21/10 11/24/11 
s 465
f 3/25/3 11/24/11 10/21/10 
s 466
f 11/24/11 3/25/3 2/26/2 
s 467
f 9/27/9 4/28/4 1/29/1 
s 468
f 4/28/4 9/27/9 12/30/12 
s 469
f 7/31/7 12/30/12 9/27/9 
s 470
f 12/30/12 7/31/7 6/32/6 
s 267
f 13/33/13 14/34/14 15/35/15 
s 268
f 14/34/14 13/33/13 16/36/16 
s 269
f 16/36/16 17/37/17 14/34/14 
s 270
f 18/38/18 14/34/14 17/37/17 
s 271
f 17/37/17 19/39/19 18/38/18 
s 272
f 20/40/20 18/38/18 19/39/19 
s 273
f 21/41/21 22/42/22 17/37/17 
s 274
f 19/39/19 17/37/17 22/42/22 
s 275
f 23/43/23 19/39/19 22/42/22 
s 276
f 19/39/19 23/43/23 20/40/20 
s 277
f 21/41/21 20/40/20 23/43/23 
s 278
f 20/40/20 21/41/21 24/44/24 
s 279
f 18/38/18 20/40/20 24/44/24 
s 280
f 24/44/24 25/45/25 18/38/18 
s 281
f 14/34/14 18/38/18 25/45/25 
s 282
f 25/45/25 15/35/15 14/34/14 
s 283
f 22/42/22 21/41/21 23/43/23 
s 284
f 13/33/13 26/46/26 16/36/16 
s 285
f 26/46/26 13/33/13 27/47/27 
s 286
f 15/35/15 27/47/27 13/33/13 
s 287
f 27/47/27 15/35/15 28/48/28 
s 288
f 15/35/15 25/45/25 28/48/28 
s 289
f 26/46/26 28/48/28 25/45/25 
s 290
f 25/45/25 24/44/24 26/46/26 
s 291
f 24/44/24 16/36/16 26/46/26 
s 292
f 16/36/16 24/44/24 21/41/21 
s 293
f 17/37/17 16/36/16 21/41/21 
s 294
f 28/48/28 26/46/26 27/47/27 
s 323
f 29/49/4 30/50/29 31/51/1 
s 324
f 30/50/29 29/49/4 32/52/30 
s 325
f 33/53/12 32/54/30 29/55/4 
s 326
f 32/54/30 33/53/12 34/56/31 
s 333
f 31/57/1 35/58/32 36/59/9 
s 334
f 35/58/32 31/57/1 30/60/29 
s 337
f 30/54/29 34/53/31 35/56/32 
s 338
f 34/53/31 30/54/29 32/55/30 
s 341
f 31/61/1 33/62/12 29/63/4 
s 342
f 33/62/12 31/61/1 36/64/9 
s 371
f 37/43/23 38/39/19 39/42/22 
s 372
f 38/39/19 37/43/23 40/40/20 
s 373
f 41/41/21 40/40/20 37/43/23 
s 374
f 39/42/22 41/41/21 37/43/23 
s 375
f 41/41/21 39/42/22 42/37/17 
s 376
f 38/39/19 42/37/17 39/42/22 
s 377
f 42/37/17 38/39/19 43/38/18 
s 378
f 40/40/20 43/38/18 38/39/19 
s 379
f 43/38/18 40/40/20 44/44/24 
s 380
f 40/40/20 41/41/21 44/44/24 
s 381
f 45/36/16 44/44/24 41/41/21 
s 382
f 42/37/17 45/36/16 41/41/21 
s 383
f 45/36/16 42/37/17 46/34/14 
s 384
f 43/38/18 46/34/14 42/37/17 
s 385
f 46/34/14 43/38/18 47/45/25 
s 386
f 44/44/24 47/45/25 43/38/18 
s 387
f 47/45/25 44/44/24 48/46/26 
s 388
f 44/44/24 45/36/16 48/46/26 
s 389
f 49/33/13 48/46/26 45/36/16 
s 390
f 46/34/14 49/33/13 45/36/16 
s 391
f 49/33/13 46/34/14 50/35/15 
s 392
f 47/45/25 50/35/15 46/34/14 
s 393
f 50/35/15 47/45/25 51/48/28 
s 394
f 48/46/26 51/48/28 47/45/25 
s 395
f 51/48/28 48/46/26 52/47/27 
s 396
f 48/46/26 49/33/13 52/47/27 
s 397
f 50/35/15 52/47/27 49/33/13 
s 398
f 52/47/27 50/35/15 51/48/28 
s 329
f 53/51/33 54/52/33 55/49/33 
s 330
f 54/52/33 53/51/33 56/50/33 
s 267
f 57/33/13 58/34/14 59/35/15 
s 268
f 58/34/14 57/33/13 60/36/16 
s 269
f 60/36/16 61/37/17 58/34/14 
s 270
f 62/38/18 58/34/14 61/37/17 
s 271
f 61/37/17 63/39/19 62/38/18 
s 272
f 64/40/20 62/38/18 63/39/19 
s 273
f 65/41/21 66/42/22 61/37/17 
s 274
f 63/39/19 61/37/17 66/42/22 
s 275
f 67/43/23 63/39/19 66/42/22 
s 276
f 63/39/19 67/43/23 64/40/20 
s 277
f 65/41/21 64/40/20 67/43/23 
s 278
f 64/40/20 65/41/21 68/44/24 
s 279
f 62/38/18 64/40/20 68/44/24 
s 280
f 68/44/24 69/45/25 62/38/18 
s 281
f 58/34/14 62/38/18 69/45/25 
s 282
f 69/45/25 59/35/15 58/34/14 
s 283
f 66/42/22 65/41/21 67/43/23 
s 284
f 57/33/13 70/46/26 60/36/16 
s 285
f 70/46/26 57/33/13 71/47/27 
s 286
f 59/35/15 71/47/27 57/33/13 
s 287
f 71/47/27 59/35/15 72/48/28 
s 288
f 59/35/15 69/45/25 72/48/28 
s 289
f 70/46/26 72/48/28 69/45/25 
s 290
f 69/45/25 68/44/24 70/46/26 
s 291
f 68/44/24 60/36/16 70/46/26 
s 292
f 60/36/16 68/44/24 65/41/21 
s 293
f 61/37/17 60/36/16 65/41/21 
s 294
f 72/48/28 70/46/26 71/47/27 
s 323
f 73/49/4 74/50/29 75/51/1 
s 324
f 74/50/29 73/49/4 76/52/30 
s 325
f 77/53/12 76/54/30 73/55/4 
s 326
f 76/54/30 77/53/12 78/56/31 
s 333
f 75/57/1 79/58/32 80/59/9 
s 334
f 79/58/32 75/57/1 74/60/29 
s 337
f 74/54/29 78/53/31 79/56/32 
s 338
f 78/53/31 74/54/29 76/55/30 
s 341
f 75/61/1 77/62/12 73/63/4 
s 342
f 77/62/12 75/61/1 80/64/9 
s 371
f 81/43/23 82/39/19 83/42/22 
s 372
f 82/39/19 81/43/23 84/40/20 
s 373
f 85/41/21 84/40/20 81/43/23 
s 374
f 83/42/22 85/41/21 81/43/23 
s 375
f 85/41/21 83/42/22 86/37/17 
s 376
f 82/39/19 86/37/17 83/42/22 
s 377
f 86/37/17 82/39/19 87/38/18 
s 378
f 84/40/20 87/38/18 82/39/19 
s 379
f 87/38/18 84/40/20 88/44/24 
s 380
f 84/40/20 85/41/21 88/44/24 
s 381
f 89/36/16 88/44/24 85/41/21 
s 382
f 86/37/17 89/36/16 85/41/21 
s 383
f 89/36/16 86/37/17 90/34/14 
s 384
f 87/38/18 90/34/14 86/37/17 
s 385
f 90/34/14 87/38/18 91/45/25 
s 386
f 88/44/24 91/45/25 87/38/18 
s 387
f 91/45/25 88/44/24 92/46/26 
s 388
f 88/44/24 89/36/16 92/46/26 
s 389
f 93/33/13 92/46/26 89/36/16 
s 390
f 90/34/14 93/33/13 89/36/16 
s 391
f 93/33/13 90/34/14 94/35/15 
s 392
f 91/45/25 94/35/15 90/34/14 
s 393
f 94/35/15 91/45/25 95/48/28 
s 394
f 92/46/26 95/48/28 91/45/25 
s 395
f 95/48/28 92/46/26 96/47/27 
s 396
f 92/46/26 93/33/13 96/47/27 
s 397
f 94/35/15 96/47/27 93/33/13 
s 398
f 96/47/27 94/35/15 95/48/28 
s 329
f 97/51/33 98/52/33 99/49/33 
s 330
f 98/52/33 97/51/33 100/50/33 
s 313
f 101/65/34 102/66/35 103/67/36 
s 314
f 104/68/37 103/67/36 102/66/35 
s 315
f 103/67/36 104/68/37 105/69/38 
s 316
f 106/70/39 105/69/38 104/68/37 
s 317
f 105/69/38 106/70/39 107/71/40 
s 318
f 108/72/41 107/71/40 106/70/39 
s 319
f 107/71/40 108/72/41 109/73/42 
s 320
f 110/74/43 109/73/42 108/72/41 
s 321
f 109/73/42 110/74/43 111/75/44 
s 322
f 112/76/45 111/75/44 110/74/43 
s 323
f 111/75/44 112/76/45 113/77/46 
s 324
f 114/78/47 113/77/46 112/76/45 
s 325
f 113/79/46 114/80/47 115/81/48 
s 326
f 116/82/49 115/81/48 114/80/47 
s 327
f 115/81/48 116/82/49 117/83/50 
s 328
f 118/84/51 117/83/50 116/82/49 
s 329
f 117/83/50 118/84/51 119/85/52 
s 330
f 120/86/53 119/85/52 118/84/51 
s 331
f 119/85/52 120/86/53 121/87/54 
s 332
f 122/88/55 121/87/54 120/86/53 
s 333
f 121/87/54 122/88/55 123/89/56 
s 334
f 124/76/57 123/89/56 122/88/55 
s 335
f 123/89/56 124/76/57 101/90/34 
s 336
f 102/78/35 101/90/34 124/76/57 
s 337
f 125/91/58 113/79/46 126/92/59 
s 338
f 115/81/48 126/92/59 113/79/46 
s 339
f 126/92/59 115/81/48 127/93/60 
s 340
f 117/83/50 127/93/60 115/81/48 
s 341
f 127/93/60 117/83/50 128/94/61 
s 342
f 119/85/52 128/94/61 117/83/50 
s 343
f 128/94/61 119/85/52 129/95/62 
s 344
f 121/87/54 129/95/62 119/85/52 
s 345
f 129/95/62 121/87/54 130/96/63 
s 346
f 123/89/56 130/96/63 121/87/54 
s 347
f 130/96/63 123/89/56 131/97/64 
s 348
f 101/90/34 131/97/64 123/89/56 
s 379
f 102/66/35 132/98/65 104/68/37 
s 380
f 133/99/66 104/68/37 132/98/65 
s 381
f 133/99/66 134/100/67 104/68/37 
s 382
f 134/100/67 135/101/68 104/68/37 
s 383
f 104/68/37 135/101/68 106/70/39 
s 384
f 135/101/68 136/102/69 106/70/39 
s 385
f 136/102/69 137/103/70 106/70/39 
s 386
f 106/70/39 137/103/70 108/72/41 
s 387
f 138/104/71 108/72/41 137/103/70 
s 388
f 108/72/41 138/104/71 110/74/43 
s 389
f 139/105/72 110/74/43 138/104/71 
s 390
f 110/74/43 139/105/72 112/76/45 
s 391
f 140/106/73 112/76/45 139/105/72 
s 392
f 112/76/45 140/106/73 114/78/47 
s 393
f 141/107/74 114/78/47 140/106/73 
s 394
f 114/80/47 141/98/74 116/82/49 
s 395
f 142/99/75 116/82/49 141/98/74 
s 396
f 142/99/75 143/108/76 116/82/49 
s 397
f 143/108/76 144/101/77 116/82/49 
s 398
f 116/82/49 144/101/77 118/84/51 
s 399
f 144/101/77 145/109/78 118/84/51 
s 400
f 145/109/78 146/103/79 118/84/51 
s 401
f 118/84/51 146/103/79 120/86/53 
s 402
f 147/110/80 120/86/53 146/103/79 
s 403
f 120/86/53 147/110/80 122/88/55 
s 404
f 148/111/81 122/88/55 147/110/80 
s 405
f 122/88/55 148/111/81 124/76/57 
s 406
f 149/106/82 124/76/57 148/111/81 
s 407
f 124/76/57 149/106/82 102/78/35 
s 408
f 132/112/65 102/78/35 149/106/82 
s 425
f 113/77/46 125/113/58 111/75/44 
s 426
f 150/96/83 111/75/44 125/113/58 
s 427
f 111/75/44 150/96/83 109/73/42 
s 428
f 151/114/84 109/73/42 150/96/83 
s 429
f 109/73/42 151/114/84 107/71/40 
s 430
f 152/115/85 107/71/40 151/114/84 
s 431
f 107/71/40 152/115/85 105/69/38 
s 432
f 153/116/86 105/69/38 152/115/85 
s 433
f 105/69/38 153/116/86 103/67/36 
s 434
f 154/117/87 103/67/36 153/116/86 
s 435
f 103/67/36 154/117/87 101/65/34 
s 436
f 131/118/64 101/65/34 154/117/87 
s 485
f 139/119/72 138/120/71 140/121/73 
s 486
f 141/122/74 140/121/73 138/120/71 
s 487
f 138/120/71 137/123/70 141/122/74 
s 488
f 142/124/75 141/122/74 137/123/70 
s 489
f 137/123/70 136/125/69 142/124/75 
s 490
f 143/126/76 142/124/75 136/125/69 
s 491
f 136/125/69 135/127/68 143/126/76 
s 492
f 144/128/77 143/126/76 135/127/68 
s 493
f 135/127/68 134/129/67 144/128/77 
s 494
f 145/130/78 144/128/77 134/129/67 
s 495
f 134/129/67 133/131/66 145/130/78 
s 496
f 146/132/79 145/130/78 133/131/66 
s 497
f 133/131/66 132/133/65 146/132/79 
s 498
f 147/134/80 146/132/79 132/133/65 
s 499
f 132/133/65 149/135/82 147/134/80 
s 500
f 148/136/81 147/134/80 149/135/82 
s 2
f 155/137/88 156/138/88 157/139/88 158/140/88 
s 4
f 159/141/89 160/142/89 161/143/89 162/144/89 
s 8
f 155/137/90 158/138/90 160/139/90 159/140/90 
s 16
f 158/145/91 157/146/91 161/147/91 160/148/91 
s 32
f 157/137/33 156/138/33 162/139/33 161/140/33 
s 64
f 156/149/92 155/150/92 159/151/92 162/152/92 
s 192
f 163/153/93 164/154/94 165/155/95 
s 193
f 166/156/96 165/155/95 164/154/94 
s 194
f 165/157/95 166/156/96 167/158/97 
s 195
f 168/159/98 167/158/97 166/156/96 
s 196
f 167/160/97 168/159/98 169/161/99 
s 197
f 170/162/100 169/161/99 168/159/98 
s 198
f 169/163/99 170/162/100 163/164/93 
s 199
f 164/154/94 163/164/93 170/162/100 
s 200
f 170/162/100 168/159/98 164/154/94 
s 201
f 166/156/96 164/154/94 168/159/98 
s 202
f 171/165/101 172/166/94 173/167/102 
s 203
f 174/168/96 173/167/102 172/166/94 
s 204
f 173/169/102 174/168/96 175/170/97 
s 205
f 176/171/103 175/170/97 174/168/96 
s 206
f 175/172/97 176/171/103 177/173/99 
s 207
f 178/174/100 177/173/99 176/171/103 
s 208
f 177/175/99 178/174/100 171/176/101 
s 209
f 172/166/94 171/176/101 178/174/100 
s 210
f 178/174/100 176/171/103 172/166/94 
s 211
f 174/168/96 172/166/94 176/171/103 
s 212
f 179/177/93 180/178/94 181/179/95 
s 213
f 182/180/96 181/179/95 180/178/94 
s 214
f 181/181/95 182/180/96 183/182/104 
s 215
f 184/183/105 183/182/104 182/180/96 
s 216
f 183/184/104 184/183/105 185/185/99 
s 217
f 186/186/100 185/185/99 184/183/105 
s 218
f 185/187/99 186/186/100 179/188/93 
s 219
f 180/178/94 179/188/93 186/186/100 
s 220
f 186/186/100 184/183/105 180/178/94 
s 221
f 182/180/96 180/178/94 184/183/105 
s 212
f 187/189/106 188/190/107 189/191/95 
s 213
f 190/192/108 189/191/95 188/190/107 
s 214
f 189/193/95 190/192/108 191/194/109 
s 215
f 192/195/103 191/194/109 190/192/108 
s 216
f 191/196/109 192/195/103 193/197/110 
s 217
f 194/198/111 193/197/110 192/195/103 
s 218
f 193/199/110 194/198/111 187/200/106 
s 219
f 188/190/107 187/200/106 194/198/111 
s 220
f 194/198/111 192/195/103 188/190/107 
s 221
f 190/192/108 188/190/107 192/195/103 
s 2
f 195/201/112 196/202/112 197/203/112 198/204/112 
s 4
f 199/205/113 200/206/113 201/207/113 202/208/113 
s 8
f 195/209/114 198/210/114 203/211/114 204/212/114 
f 204/212/114 203/211/114 205/213/115 206/214/115 
f 206/214/115 205/213/115 207/215/115 208/216/115 
f 208/216/115 207/215/115 209/217/115 210/218/115 
f 210/218/115 209/217/115 211/219/114 212/220/114 
f 212/220/114 211/219/114 200/221/114 199/222/114 
s 16
f 198/223/116 197/224/116 213/225/116 203/226/116 
f 203/227/116 213/228/116 214/229/116 205/230/116 
f 205/231/116 214/232/116 215/233/116 207/234/116 
f 207/235/116 215/236/116 216/237/117 209/238/117 
f 209/239/117 216/240/117 217/241/116 211/242/116 
f 211/242/116 217/241/116 201/243/116 200/244/116 
s 32
f 197/245/118 196/246/118 218/247/118 213/248/118 
f 213/248/118 218/247/118 219/249/118 214/250/118 
f 214/250/118 219/249/118 220/251/118 215/252/118 
f 215/252/118 220/251/118 221/253/119 216/254/119 
f 216/254/119 221/253/119 222/255/118 217/256/118 
f 217/256/118 222/255/118 202/257/118 201/258/118 
s 64
f 196/259/120 195/260/120 204/261/120 218/262/120 
f 218/259/120 204/260/120 206/261/121 219/262/121 
f 219/262/121 206/261/121 208/263/121 220/264/121 
f 220/265/121 208/266/121 210/267/121 221/268/121 
f 221/269/121 210/270/121 212/271/120 222/272/120 
f 222/273/120 212/274/120 199/275/120 202/276/120 
s 1
f 223/277/89 224/278/89 225/279/89 
s 2
f 226/280/89 225/279/89 224/278/89 
s 1
f 227/281/122 228/282/123 229/281/124 
s 2
f 230/283/125 231/282/126 227/281/122 
s 3
f 228/282/123 227/281/122 231/282/126 
s 4
f 231/282/126 232/284/127 228/282/123 
s 5
f 232/284/127 231/282/126 233/284/128 
s 6
f 231/282/126 234/285/129 233/284/128 
s 7
f 235/286/130 236/287/131 237/288/132 
s 8
f 236/287/131 235/286/133 238/289/134 
s 9
f 234/285/129 236/287/131 238/289/134 
s 10
f 236/287/131 234/285/129 239/290/135 
s 11
f 234/285/129 231/282/126 239/290/135 
s 12
f 237/288/132 239/290/135 231/282/126 
s 13
f 231/282/126 230/283/125 237/288/132 
s 14
f 240/283/136 237/288/132 230/283/125 
s 15
f 237/288/132 240/283/136 241/288/137 
s 16
f 241/288/137 235/286/130 237/288/132 
s 17
f 235/286/130 241/288/137 242/286/138 
s 18
f 239/290/135 237/288/132 236/287/131 
s 19
f 243/291/139 244/292/140 245/291/141 
s 20
f 244/292/140 243/291/139 246/292/142 
s 21
f 245/291/141 247/293/143 248/294/144 
s 22
f 247/293/143 245/291/141 244/292/140 
s 23
f 244/292/140 249/295/145 247/293/143 
s 24
f 248/294/144 250/293/146 251/294/147 
s 25
f 250/293/146 248/294/144 247/293/143 
s 26
f 247/293/143 252/296/148 250/293/146 
s 27
f 252/296/148 247/293/143 253/296/149 
s 28
f 247/293/143 254/297/150 253/296/149 
s 29
f 254/297/150 247/293/143 249/295/145 
s 30
f 255/298/151 254/297/150 249/295/145 
s 31
f 249/295/145 244/292/140 255/298/151 
s 32
f 256/299/152 255/298/151 244/292/140 
s 33
f 246/292/142 256/299/152 244/292/140 
s 34
f 256/299/152 246/292/142 257/299/153 
s 35
f 254/297/150 255/298/151 258/300/154 
s 36
f 255/298/151 256/299/152 258/300/154 
s 37
f 259/301/155 260/302/156 261/301/157 
s 38
f 260/302/156 259/301/155 262/302/158 
s 39
f 261/301/157 263/303/159 245/304/141 
s 40
f 263/303/159 261/301/157 260/302/156 
s 41
f 260/302/156 264/305/160 263/303/159 
s 42
f 245/304/141 265/303/161 243/304/139 
s 43
f 265/303/161 245/304/141 263/303/159 
s 44
f 263/303/159 266/306/162 265/303/161 
s 45
f 266/306/162 263/303/159 267/306/163 
s 46
f 263/303/159 268/307/164 267/306/163 
s 47
f 268/307/164 263/303/159 264/305/160 
s 48
f 269/308/165 268/307/164 264/305/160 
s 49
f 264/305/160 260/302/156 269/308/165 
s 50
f 270/309/166 269/308/165 260/302/156 
s 51
f 262/302/158 270/309/166 260/302/156 
s 52
f 270/309/166 262/302/158 271/309/167 
s 53
f 268/307/164 269/308/165 272/310/168 
s 54
f 269/308/165 270/309/166 272/310/168 
s 55
f 229/311/124 273/312/169 227/311/122 
s 56
f 273/312/169 229/311/124 274/312/170 
s 57
f 227/311/122 275/313/171 261/314/157 
s 58
f 275/313/171 227/311/122 273/312/169 
s 59
f 273/312/169 276/315/172 275/313/171 
s 60
f 261/314/157 277/313/173 259/314/155 
s 61
f 277/313/173 261/314/157 275/313/171 
s 62
f 275/313/171 278/316/174 277/313/173 
s 63
f 278/316/174 275/313/171 279/316/175 
s 64
f 275/313/171 280/317/176 279/316/175 
s 65
f 280/317/176 275/313/171 276/315/172 
s 66
f 281/318/177 280/317/176 276/315/172 
s 67
f 276/315/172 273/312/169 281/318/177 
s 68
f 282/319/178 281/318/177 273/312/169 
s 69
f 274/312/170 282/319/178 273/312/169 
s 70
f 282/319/178 274/312/170 283/319/179 
s 71
f 280/317/176 281/318/177 284/320/180 
s 72
f 281/318/177 282/319/178 284/320/180 
s 73
f 285/321/181 286/322/182 287/323/183 
s 74
f 287/323/183 288/324/184 285/321/181 
s 75
f 289/325/185 290/326/186 291/327/187 
s 76
f 290/326/186 289/325/185 292/328/188 
s 77
f 292/328/188 293/329/189 290/326/186 
s 78
f 293/329/189 292/328/188 286/322/182 
s 79
f 286/322/182 294/330/190 293/329/189 
s 80
f 294/330/190 286/322/182 285/321/181 
s 81
f 285/321/181 295/331/191 294/330/190 
s 82
f 295/331/191 285/321/181 288/324/184 
s 83
f 288/324/184 296/332/192 295/331/191 
s 84
f 296/332/192 288/324/184 287/323/183 
s 85
f 287/323/183 297/333/193 296/332/192 
s 86
f 297/333/193 287/323/183 298/334/194 
s 87
f 298/334/194 287/323/183 286/322/182 
s 88
f 286/322/182 292/328/188 298/334/194 
s 89
f 299/335/195 298/334/194 292/328/188 
s 90
f 292/328/188 289/325/185 299/335/195 
s 91
f 299/335/195 289/325/185 300/336/196 
s 92
f 300/336/196 301/337/197 299/335/195 
s 93
f 302/338/198 301/337/197 300/336/196 
s 94
f 300/336/196 303/339/199 302/338/198 
s 95
f 298/334/194 304/340/200 297/333/193 
s 96
f 304/340/200 298/334/194 299/335/195 
s 97
f 299/335/195 305/341/201 304/340/200 
s 98
f 305/341/201 299/335/195 301/337/197 
s 99
f 301/337/197 306/342/202 305/341/201 
s 100
f 306/342/202 301/337/197 302/338/198 
s 101
f 302/338/198 307/343/203 306/342/202 
s 102
f 307/343/203 302/338/198 308/344/204 
s 103
f 308/344/204 309/345/205 307/343/203 
s 104
f 309/345/205 308/344/204 310/346/206 
s 105
f 308/344/204 302/338/198 303/339/199 
s 106
f 303/339/199 311/347/207 308/344/204 
s 107
f 310/346/206 308/344/204 311/347/207 
s 108
f 311/347/207 312/348/208 310/346/206 
s 109
f 310/346/206 313/349/209 309/345/205 
s 110
f 313/349/209 310/346/206 312/348/208 
s 111
f 312/348/208 314/350/210 313/349/209 
s 112
f 314/350/210 312/348/208 311/347/207 
s 113
f 311/347/207 315/351/211 314/350/210 
s 114
f 315/351/211 311/347/207 303/339/199 
s 115
f 303/339/199 316/352/212 315/351/211 
s 116
f 316/352/212 303/339/199 300/336/196 
s 117
f 300/336/196 291/327/187 316/352/212 
s 118
f 291/327/187 300/336/196 289/325/185 
s 119
f 284/320/180 279/316/175 280/317/176 
s 120
f 279/316/175 284/320/180 282/319/178 
s 121
f 282/319/178 278/316/174 279/316/175 
s 122
f 282/319/178 283/319/179 278/316/174 
s 123
f 283/319/179 277/313/173 278/316/174 
s 124
f 277/313/173 283/319/179 274/312/170 
s 125
f 274/312/170 259/314/155 277/313/173 
s 126
f 259/314/155 274/312/170 229/311/124 
s 127
f 317/353/213 318/354/214 319/355/215 
s 128
f 318/354/214 317/353/213 320/356/216 
s 129
f 320/356/216 321/354/217 318/354/214 
s 130
f 320/356/216 322/356/218 321/354/217 
s 131
f 322/356/218 323/357/219 321/354/217 
s 132
f 323/357/219 322/356/218 324/358/220 
s 133
f 324/358/220 240/359/136 323/357/219 
s 134
f 240/359/136 324/358/220 251/360/147 
s 135
f 258/300/154 253/296/149 254/297/150 
s 136
f 253/296/149 258/300/154 256/299/152 
s 137
f 256/299/152 252/296/148 253/296/149 
s 138
f 256/299/152 257/299/153 252/296/148 
s 139
f 257/299/153 250/293/146 252/296/148 
s 140
f 250/293/146 257/299/153 246/292/142 
s 141
f 246/292/142 251/294/147 250/293/146 
s 142
f 251/294/147 246/292/142 243/291/139 
s 143
f 325/361/221 261/362/157 245/363/141 
s 144
f 325/361/221 227/364/122 261/362/157 
s 145
f 325/361/221 230/365/125 227/364/122 
s 146
f 325/361/221 248/366/144 230/365/125 
s 147
f 325/361/221 245/363/141 248/366/144 
s 148
f 243/304/139 262/302/158 259/301/155 
s 149
f 262/302/158 243/304/139 265/303/161 
s 150
f 265/303/161 271/309/167 262/302/158 
s 151
f 271/309/167 265/303/161 266/306/162 
s 152
f 270/309/166 271/309/167 266/306/162 
s 153
f 270/309/166 266/306/162 267/306/163 
s 154
f 267/306/163 272/310/168 270/309/166 
s 155
f 272/310/168 267/306/163 268/307/164 
s 156
f 230/359/125 323/357/219 240/359/136 
s 157
f 323/357/219 230/359/125 326/357/222 
s 158
f 326/357/222 321/354/217 323/357/219 
s 159
f 321/354/217 326/357/222 318/354/214 
s 160
f 326/357/222 319/355/215 318/354/214 
s 161
f 248/360/144 326/357/222 230/359/125 
s 162
f 251/360/147 327/358/223 248/360/144 
s 163
f 326/357/222 248/360/144 327/358/223 
s 164
f 327/358/223 328/367/224 326/357/222 
s 165
f 319/355/215 326/357/222 328/367/224 
s 166
f 329/368/225 319/355/215 328/367/224 
s 167
f 319/355/215 329/368/225 317/353/213 
s 168
f 329/368/225 320/356/216 317/353/213 
s 169
f 320/356/216 329/368/225 327/358/223 
s 170
f 324/358/220 320/356/216 327/358/223 
s 171
f 327/358/223 251/360/147 324/358/220 
s 172
f 328/367/224 327/358/223 329/368/225 
s 173
f 320/356/216 324/358/220 322/356/218 
s 174
f 229/281/124 241/288/137 240/283/136 
s 175
f 241/288/137 229/281/124 228/282/123 
s 176
f 228/282/123 242/286/138 241/288/137 
s 177
f 242/286/138 228/282/123 232/284/127 
s 178
f 235/286/130 242/286/138 232/284/127 
s 179
f 235/286/130 232/284/127 233/284/128 
s 180
f 233/284/128 238/289/134 235/286/130 
s 181
f 238/289/134 233/284/128 234/285/129 
s 182
f 330/369/226 229/370/124 240/371/136 
s 183
f 330/369/226 259/372/155 229/370/124 
s 184
f 330/369/226 243/373/139 259/372/155 
s 185
f 330/369/226 251/374/147 243/373/139 
s 186
f 330/369/226 240/371/136 251/374/147 
s 187
f 331/375/227 332/376/228 333/377/229 
s 188
f 333/377/229 334/378/230 331/375/227 
s 189
f 335/379/231 331/375/227 334/378/230 
s 190
f 334/378/230 336/380/232 335/379/231 
s 191
f 335/379/231 336/380/232 337/381/233 
s 192
f 337/381/233 338/382/234 335/379/231 
s 193
f 339/383/235 340/384/236 332/376/228 
s 194
f 332/376/228 331/375/227 339/383/235 
s 195
f 341/385/237 339/383/235 331/375/227 
s 196
f 331/375/227 335/379/231 341/385/237 
s 197
f 342/382/238 341/385/237 335/379/231 
s 198
f 335/379/231 338/382/234 342/382/238 
s 199
f 306/386/202 307/387/203 343/388/239 
s 200
f 343/388/239 344/389/240 306/386/202 
s 201
f 306/386/202 344/389/240 345/390/241 
s 202
f 345/390/241 305/391/201 306/386/202 
s 203
f 304/392/200 305/391/201 345/390/241 
s 204
f 345/390/241 346/393/242 304/392/200 
s 205
f 347/394/243 348/395/244 349/396/245 
s 206
f 349/396/245 350/397/246 347/394/243 
s 207
f 347/394/243 350/397/246 351/398/247 
s 208
f 351/398/247 352/399/248 347/394/243 
s 209
f 353/400/249 352/399/248 351/398/247 
s 210
f 351/398/247 354/401/250 353/400/249 
s 211
f 355/402/251 343/403/239 307/404/203 
s 212
f 307/404/203 309/405/205 355/402/251 
s 213
f 356/406/252 355/402/251 309/405/205 
s 214
f 309/405/205 313/407/209 356/406/252 
s 215
f 356/406/252 313/407/209 314/408/210 
s 216
f 314/408/210 357/409/253 356/406/252 
s 217
f 358/410/254 357/409/253 314/408/210 
s 218
f 314/408/210 315/411/211 358/410/254 
s 219
f 297/412/193 304/404/200 346/403/242 
s 220
f 346/403/242 359/402/255 297/412/193 
s 221
f 296/413/192 297/412/193 359/402/255 
s 222
f 359/402/255 360/406/256 296/413/192 
s 223
f 296/413/192 360/406/256 361/409/257 
s 224
f 361/409/257 295/414/191 296/413/192 
s 225
f 294/415/190 295/414/191 361/409/257 
s 226
f 361/409/257 362/410/258 294/415/190 
s 227
f 363/416/259 349/417/245 348/418/244 
s 228
f 348/418/244 364/419/260 363/416/259 
s 229
f 365/420/261 363/416/259 364/419/260 
s 230
f 364/419/260 366/421/262 365/420/261 
s 231
f 365/420/261 366/421/262 367/422/263 
s 232
f 367/422/263 368/423/264 365/420/261 
s 233
f 369/424/265 368/423/264 367/422/263 
s 234
f 367/422/263 370/425/266 369/424/265 
s 235
f 371/419/267 353/418/249 354/417/250 
s 236
f 354/417/250 372/416/268 371/419/267 
s 237
f 373/421/269 371/419/267 372/416/268 
s 238
f 372/416/268 374/420/270 373/421/269 
s 239
f 373/421/269 374/420/270 375/423/271 
s 240
f 375/423/271 376/422/272 373/421/269 
s 241
f 377/425/273 376/422/272 375/423/271 
s 242
f 375/423/271 378/424/274 377/425/273 
s 243
f 293/426/189 294/427/190 362/428/258 
s 244
f 362/428/258 379/429/275 293/426/189 
s 245
f 290/430/186 293/426/189 379/429/275 
s 246
f 379/429/275 380/431/276 290/430/186 
s 247
f 290/430/186 380/431/276 381/432/277 
s 248
f 381/432/277 291/433/187 290/430/186 
s 249
f 316/434/212 291/433/187 381/432/277 
s 250
f 381/432/277 382/435/278 316/434/212 
s 251
f 315/436/211 316/434/212 382/435/278 
s 252
f 382/435/278 358/437/254 315/436/211 
s 253
f 383/438/279 377/439/273 378/440/274 
s 254
f 378/440/274 384/441/280 383/438/279 
s 255
f 385/442/281 383/438/279 384/441/280 
s 256
f 384/441/280 386/443/282 385/442/281 
s 257
f 385/442/281 386/443/282 387/444/283 
s 258
f 387/444/283 388/445/284 385/442/281 
s 259
f 389/446/285 388/445/284 387/444/283 
s 260
f 387/444/283 390/447/286 389/446/285 
s 261
f 370/448/266 389/446/285 390/447/286 
s 262
f 390/447/286 369/449/265 370/448/266 
s 263
f 359/333/255 346/340/242 379/329/275 
s 264
f 379/329/275 362/330/258 359/333/255 
s 265
f 360/332/256 359/333/255 362/330/258 
s 266
f 362/330/258 361/331/257 360/332/256 
s 267
f 355/345/251 356/349/252 357/350/253 
s 268
f 357/350/253 358/351/254 355/345/251 
s 269
f 343/343/239 355/345/251 358/351/254 
s 270
f 358/351/254 382/352/278 343/343/239 
s 271
f 344/342/240 343/343/239 382/352/278 
s 272
f 382/352/278 381/327/277 344/342/240 
s 273
f 345/341/241 344/342/240 381/327/277 
s 274
f 381/327/277 380/326/276 345/341/241 
s 275
f 346/340/242 345/341/241 380/326/276 
s 276
f 380/326/276 379/329/275 346/340/242 
s 277
f 391/450/287 392/451/288 393/452/289 
s 278
f 393/452/289 394/453/290 391/450/287 
s 279
f 395/454/291 391/450/287 394/453/290 
s 280
f 394/453/290 396/455/292 395/454/291 
s 281
f 389/456/285 393/452/289 397/457/293 
s 282
f 393/452/289 389/456/285 370/458/266 
s 283
f 370/458/266 394/453/290 393/452/289 
s 284
f 394/453/290 370/458/266 367/459/263 
s 285
f 367/459/263 396/455/292 394/453/290 
s 286
f 396/455/292 367/459/263 366/460/262 
s 287
f 366/460/262 395/454/291 396/455/292 
s 288
f 395/454/291 366/460/262 364/461/260 
s 289
f 364/461/260 391/450/287 395/454/291 
s 290
f 391/450/287 364/461/260 348/462/244 
s 291
f 398/463/294 399/464/295 400/465/296 
s 292
f 400/465/296 401/466/297 398/463/294 
s 293
f 402/467/298 398/463/294 401/466/297 
s 294
f 401/466/297 403/468/299 402/467/298 
s 295
f 404/469/300 402/467/298 403/468/299 
s 296
f 403/468/299 405/470/301 404/469/300 
s 297
f 404/469/300 405/470/301 397/457/293 
s 298
f 397/457/293 406/471/302 404/469/300 
s 299
f 392/451/288 406/471/302 397/457/293 
s 300
f 397/457/293 393/452/289 392/451/288 
s 301
f 348/462/244 392/451/288 391/450/287 
s 302
f 392/451/288 348/462/244 347/472/243 
s 303
f 347/472/243 406/471/302 392/451/288 
s 304
f 406/471/302 347/472/243 352/473/248 
s 305
f 352/473/248 404/469/300 406/471/302 
s 306
f 404/469/300 352/473/248 353/474/249 
s 307
f 353/474/249 402/467/298 404/469/300 
s 308
f 402/467/298 353/474/249 371/475/267 
s 309
f 371/475/267 398/463/294 402/467/298 
s 310
f 398/463/294 371/475/267 373/476/269 
s 311
f 373/476/269 399/464/295 398/463/294 
s 312
f 399/464/295 373/476/269 376/477/272 
s 313
f 376/477/272 400/465/296 399/464/295 
s 314
f 400/465/296 376/477/272 377/478/273 
s 315
f 377/478/273 401/466/297 400/465/296 
s 316
f 401/466/297 377/478/273 383/479/279 
s 317
f 383/479/279 403/468/299 401/466/297 
s 318
f 403/468/299 383/479/279 385/480/281 
s 319
f 385/480/281 405/470/301 403/468/299 
s 320
f 405/470/301 385/480/281 388/481/284 
s 321
f 388/481/284 397/457/293 405/470/301 
s 322
f 397/457/293 388/481/284 389/456/285 
s 323
f 372/475/268 354/474/250 384/479/280 
s 324
f 384/479/280 378/478/274 372/475/268 
s 325
f 374/476/270 372/475/268 378/478/274 
s 326
f 378/478/274 375/477/271 374/476/270 
s 327
f 363/461/259 365/460/261 368/459/264 
s 328
f 368/459/264 369/458/265 363/461/259 
s 329
f 349/462/245 363/461/259 369/458/265 
s 330
f 369/458/265 390/456/286 349/462/245 
s 331
f 350/472/246 349/462/245 390/456/286 
s 332
f 390/456/286 387/481/283 350/472/246 
s 333
f 351/473/247 350/472/246 387/481/283 
s 334
f 387/481/283 386/480/282 351/473/247 
s 335
f 354/474/250 351/473/247 386/480/282 
s 336
f 386/480/282 384/479/280 354/474/250 
s 337
f 407/482/303 408/483/304 409/484/305 
s 338
f 408/483/304 407/482/303 410/485/306 
s 339
f 411/486/307 410/485/306 407/482/303 
s 340
f 410/485/306 411/486/307 412/487/308 
s 341
f 413/488/309 412/487/308 411/486/307 
s 342
f 412/487/308 413/488/309 414/489/310 
s 343
f 415/490/311 414/489/310 413/488/309 
s 344
f 414/489/310 415/490/311 416/491/312 
s 345
f 417/492/313 416/491/312 415/490/311 
s 346
f 416/491/312 417/492/313 418/493/314 
s 347
f 419/494/315 418/493/314 417/492/313 
s 348
f 418/493/314 419/494/315 420/495/316 
s 349
f 421/496/317 420/495/316 419/494/315 
s 350
f 420/495/316 421/496/317 422/497/318 
s 351
f 409/498/305 422/497/318 421/496/317 
s 352
f 422/497/318 409/498/305 408/499/304 
s 353
f 423/381/319 337/381/233 336/380/232 
s 354
f 336/380/232 424/500/320 423/381/319 
s 355
f 425/501/321 424/500/320 336/380/232 
s 356
f 336/380/232 334/378/230 425/501/321 
s 357
f 426/502/322 425/501/321 334/378/230 
s 358
f 334/378/230 333/377/229 426/502/322 
s 359
f 427/503/323 417/492/313 428/504/324 
s 360
f 417/492/313 427/503/323 419/494/315 
s 361
f 429/505/325 419/494/315 427/503/323 
s 362
f 419/494/315 429/505/325 421/496/317 
s 363
f 430/506/326 421/496/317 429/505/325 
s 364
f 421/496/317 430/506/326 409/498/305 
s 365
f 431/507/327 409/484/305 430/508/326 
s 366
f 409/484/305 431/507/327 407/482/303 
s 367
f 432/509/328 407/482/303 431/507/327 
s 368
f 407/482/303 432/509/328 411/486/307 
s 369
f 433/510/329 411/486/307 432/509/328 
s 370
f 411/486/307 433/510/329 413/488/309 
s 371
f 434/511/330 413/488/309 433/510/329 
s 372
f 413/488/309 434/511/330 415/490/311 
s 373
f 428/504/324 415/490/311 434/511/330 
s 374
f 415/490/311 428/504/324 417/492/313 
s 375
f 342/382/238 423/381/319 424/500/320 
s 376
f 424/500/320 341/385/237 342/382/238 
s 377
f 339/383/235 341/385/237 424/500/320 
s 378
f 424/500/320 425/501/321 339/383/235 
s 379
f 340/384/236 339/383/235 425/501/321 
s 380
f 425/501/321 426/502/322 340/384/236 
# 32 polygons - 672 triangles