# Blender v2.76 (sub 0) OBJ File: ''
# www.blender.org
mtllib Wooden Bench.mtl
o Model001_24_benchgen_0.6_9_1.001
v -0.482961 -0.000620 -0.020001
v -0.661913 0.420751 -0.020001
v -0.576895 0.420751 -0.020001
v -0.398617 -0.000620 -0.020001
v -0.398617 -0.000620 0.016519
v -0.482961 -0.000620 -0.020001
v -0.398617 -0.000620 -0.020001
v -0.722444 -0.000620 0.052163
v -0.592921 0.389592 0.052163
v -0.543511 0.389592 0.052163
v -0.771417 -0.000620 0.052163
v -0.722444 -0.000620 0.134647
v -0.543511 0.389592 0.134647
v -0.592921 0.389592 0.134647
v -0.694841 0.085237 -0.057925
v -0.721114 0.029755 -0.057925
v -0.744251 0.045198 -0.057925
v -0.718433 0.100716 -0.057925
v -0.744251 0.045198 -0.057925
v -0.744707 0.045399 0.055281
v -0.718433 0.100716 -0.057925
v -0.718889 0.100935 0.055281
v -0.744251 0.045198 -0.057925
v -0.721551 0.029974 0.055281
v -0.744707 0.045399 0.055281
v -0.694841 0.085237 -0.057925
v -0.695734 0.085456 0.055281
v -0.721551 0.029974 0.055281
v -0.695734 0.085456 0.055281
v -0.694841 0.085237 -0.057925
v -0.718433 0.100716 -0.057925
v -0.718889 0.100935 0.055281
v -0.695734 0.085456 0.055281
v -0.744707 0.045399 0.055281
v -0.721551 0.029974 0.055281
v -0.718889 0.100935 0.055281
v -0.683719 0.178168 -0.166025
v -0.671704 0.161686 -0.166025
v -0.683719 0.165588 -0.166025
v -0.671704 0.182052 -0.166025
v -0.664137 0.171823 -0.166025
v -0.671704 0.182051 0.153572
v -0.664137 0.171823 -0.166025
v -0.671704 0.182052 -0.166025
v -0.664137 0.171823 0.153572
v -0.683719 0.178168 -0.166025
v -0.671704 0.182051 0.153572
v -0.671704 0.182052 -0.166025
v -0.683719 0.178168 0.153572
v -0.683719 0.165588 -0.166025
v -0.683719 0.165588 0.153572
v -0.671704 0.161686 0.153572
v -0.671704 0.161686 -0.166025
v -0.671704 0.161686 0.153572
v -0.683719 0.178168 0.153572
v -0.683719 0.165588 0.153572
v -0.671704 0.182051 0.153572
v -0.664137 0.171823 0.153572
v -0.544386 0.402957 -0.210986
v -0.655240 0.400513 0.203766
v -0.530146 0.401170 0.206538
v -0.661019 0.402063 -0.213776
v -0.655240 0.400513 0.203766
v -0.661019 0.402063 -0.213776
v -0.669917 0.368461 -0.213667
v -0.661019 0.402063 -0.213776
v -0.537713 0.369354 -0.211096
v -0.669917 0.368461 -0.213667
v 0.801227 0.411416 -0.004868
v 0.626305 -0.000620 0.031633
v 0.801227 0.411416 0.031633
v 0.626305 -0.000620 -0.004868
v 0.705981 -0.000620 -0.004868
v 0.801227 0.411416 -0.004868
v 0.880466 0.411416 -0.004868
v 0.626305 -0.000620 -0.004868
v 0.528815 0.007293 0.016701
v 0.528815 0.063267 0.016701
v 0.528815 0.063267 -0.001149
v 0.528815 0.007293 -0.001149
v 0.528815 0.007293 0.016701
v 0.689061 0.063267 0.016956
v 0.528815 0.063267 0.016701
v 0.689061 0.007293 0.016956
v 0.528815 0.007293 0.016701
v 0.689061 0.007293 -0.000912
v 0.689061 0.007293 0.016956
v 0.528815 0.007293 -0.001149
v 0.689061 0.063267 -0.000912
v 0.528815 0.063267 -0.001149
v 0.528815 0.063267 0.016701
v 0.689061 0.063267 0.016956
v 0.689061 0.063267 0.016956
v 0.689061 0.007293 -0.000912
v 0.689061 0.063267 -0.000912
v 0.689061 0.007293 0.016956
v 0.634746 0.388042 -0.004868
v 0.459824 -0.000620 -0.004868
v 0.634746 0.388042 0.031633
v 0.544842 -0.000620 -0.004868
v 0.634746 0.388042 -0.004868
v 0.719327 0.388042 -0.004868
v 0.459824 -0.000620 -0.004868
v 0.544842 -0.000620 0.031633
v 0.459824 -0.000620 -0.004868
v 0.544842 -0.000620 -0.004868
v 0.459824 -0.000620 0.031633
v 0.672597 0.393822 0.147665
v 0.832842 -0.000620 0.065218
v 0.672597 0.393822 0.065218
v 0.832842 -0.000620 0.147665
v 0.672597 0.393822 0.147665
v 0.783870 -0.000620 0.147665
v 0.832842 -0.000620 0.147665
v 0.623187 0.393822 0.147665
v 0.783870 -0.000620 0.065218
v 0.783870 -0.000620 0.147665
v 0.783870 -0.000620 0.065218
v 0.623187 0.393822 0.065218
v 0.672597 0.393822 0.065218
v 0.672597 0.393822 -0.040513
v 0.832842 -0.000620 -0.122960
v 0.672597 0.393822 -0.122960
v 0.832842 -0.000620 -0.040513
v 0.783870 -0.000620 -0.122960
v 0.623187 0.393822 -0.040513
v 0.623187 0.393822 -0.122960
v 0.756722 0.085237 0.069557
v 0.782539 0.029755 0.069557
v 0.805676 0.045198 0.069557
v 0.779859 0.100716 0.069557
v 0.805676 0.045198 0.069557
v 0.806132 0.045399 -0.043649
v 0.779859 0.100716 0.069557
v 0.780314 0.100935 -0.043649
v 0.782977 0.029974 -0.043649
v 0.805676 0.045198 0.069557
v 0.782539 0.029755 0.069557
v 0.757159 0.085456 -0.043649
v 0.779859 0.100716 0.069557
v 0.780314 0.100935 -0.043649
v 0.756722 0.085237 0.069557
v 0.757159 0.085456 -0.043649
v 0.806132 0.045399 -0.043649
v 0.782977 0.029974 -0.043649
v 0.780314 0.100935 -0.043649
v 0.745144 0.178168 0.177712
v 0.733129 0.161686 0.177712
v 0.745144 0.165588 0.177712
v 0.733129 0.182051 0.177712
v 0.726000 0.171823 0.177712
v 0.733129 0.182052 -0.141885
v 0.726000 0.171823 0.177712
v 0.733129 0.182051 0.177712
v 0.726000 0.171823 -0.141885
v 0.733129 0.182052 -0.141885
v 0.745144 0.178168 0.177712
v 0.745144 0.178168 -0.141885
v 0.733129 0.182051 0.177712
v 0.745144 0.165588 0.177712
v 0.745144 0.165588 -0.141885
v 0.733129 0.161686 0.177712
v 0.733129 0.161686 -0.141885
v 0.733129 0.161686 -0.141885
v 0.745144 0.178168 -0.141885
v 0.745144 0.165588 -0.141885
v 0.733129 0.182052 -0.141885
v 0.726000 0.171823 -0.141885
v 0.668148 0.447025 -0.135540
v 0.677046 0.447025 -0.123197
v 0.677483 0.439677 -0.123197
v 0.668586 0.439677 -0.136324
v 0.652997 0.447025 -0.134319
v 0.652559 0.439677 -0.134866
v 0.652997 0.447025 -0.134319
v 0.645886 0.439677 -0.120407
v 0.646780 0.447025 -0.120517
v 0.652559 0.439677 -0.134866
v 0.655240 0.447025 -0.108064
v 0.655240 0.439677 -0.107335
v 0.670373 0.447025 -0.109395
v 0.670810 0.439677 -0.108720
v 0.657008 0.447024 -0.014294
v 0.653890 0.439677 0.000930
v 0.654784 0.447024 0.000656
v 0.656571 0.439677 -0.014805
v 0.665906 0.439677 0.011195
v 0.666361 0.447024 0.010411
v 0.680601 0.447024 0.005215
v 0.666361 0.447024 0.010411
v 0.665906 0.439677 0.011195
v 0.681057 0.439677 0.005743
v 0.683719 0.439677 -0.010010
v 0.683281 0.447024 -0.009736
v 0.671704 0.439677 -0.020274
v 0.671704 0.447024 -0.019490
v 0.661913 0.447024 0.111948
v 0.676590 0.447024 0.108666
v 0.677046 0.439677 0.107882
v 0.661457 0.439677 0.111346
v 0.656571 0.439677 0.126643
v 0.657464 0.447024 0.126424
v 0.667692 0.447024 0.137655
v 0.657464 0.447024 0.126424
v 0.656571 0.439677 0.126643
v 0.667255 0.439677 0.138330
v 0.682388 0.447024 0.134319
v 0.682825 0.439677 0.134866
v 0.687730 0.439677 0.119624
v 0.686837 0.447024 0.119842
v -0.575545 0.446350 0.116178
v -0.588454 0.439677 0.107171
v -0.588454 0.447024 0.107937
v -0.575108 0.439239 0.115740
v -0.601818 0.447462 0.114956
v -0.602712 0.440351 0.114518
v -0.601818 0.447462 0.114956
v -0.603587 0.440351 0.130527
v -0.602256 0.447462 0.130198
v -0.602712 0.440351 0.114518
v -0.589803 0.439677 0.139096
v -0.589803 0.447024 0.138330
v -0.576001 0.446350 0.131311
v -0.575545 0.439239 0.131766
v -0.622731 0.447462 -0.014294
v -0.626305 0.440351 0.000930
v -0.625411 0.447462 0.000656
v -0.623625 0.440114 -0.014805
v -0.614271 0.439896 0.011195
v -0.613834 0.447024 0.010411
v -0.599594 0.446569 0.005215
v -0.613834 0.447024 0.010411
v -0.614271 0.439896 0.011195
v -0.599138 0.439239 0.005743
v -0.596476 0.439239 -0.010010
v -0.596914 0.446350 -0.009736
v -0.608491 0.439677 -0.020274
v -0.608491 0.446806 -0.019490
v -0.593796 0.446806 -0.135540
v -0.585336 0.446350 -0.123197
v -0.584461 0.439002 -0.123197
v -0.593796 0.439458 -0.136324
v -0.608929 0.447243 -0.134319
v -0.609823 0.440114 -0.134866
v -0.608929 0.447243 -0.134319
v -0.616496 0.440351 -0.120407
v -0.615165 0.447462 -0.120517
v -0.609823 0.440114 -0.134866
v -0.606705 0.447243 -0.108064
v -0.607161 0.439896 -0.107335
v -0.591572 0.446569 -0.109395
v -0.591572 0.439458 -0.108720
v -0.908963 0.407186 0.182289
v -0.608054 0.401844 0.193957
v -0.902728 0.433660 0.182289
v -0.608054 0.428099 0.190293
v -0.901378 0.442120 0.179937
v -0.304246 0.420533 0.198424
v -0.304246 0.394059 0.206428
v -0.608054 0.436778 0.187066
v -0.304246 0.428993 0.194085
v -0.900047 0.446131 0.173482
v -0.000820 0.415865 0.197075
v -0.000820 0.424544 0.192298
v -0.304246 0.433004 0.185735
v -0.608054 0.440570 0.179827
v -0.000839 0.389373 0.207431
v 0.302696 0.391160 0.203766
v 0.302696 0.417634 0.197750
v -0.000802 0.428318 0.183401
v 0.302696 0.426094 0.193957
v 0.302696 0.430105 0.186063
v 0.668148 0.447025 -0.135540
v 0.669917 0.449468 -0.122522
v 0.677046 0.447025 -0.123197
v 0.670373 0.447025 -0.109395
v 0.665468 0.449468 -0.129305
v 0.666361 0.449468 -0.115065
v 0.919629 0.408517 -0.078290
v 0.912519 0.446131 -0.173829
v 0.909838 0.447462 -0.078290
v 0.914287 0.434772 -0.185953
v 0.922309 0.407405 -0.185953
v 0.913412 0.442576 -0.181833
v -0.604480 0.401626 -0.210093
v -0.924971 0.407405 -0.214888
v -0.917861 0.434772 -0.214888
v -0.604480 0.428993 -0.210093
v -0.916967 0.442576 -0.210768
v -0.301128 0.421207 -0.205316
v -0.301128 0.393603 -0.205316
v -0.604480 0.436778 -0.205881
v -0.301128 0.428774 -0.201086
v -0.916967 0.446131 -0.202764
v -0.604480 0.440351 -0.197968
v 0.002297 0.416303 -0.204313
v 0.002297 0.424088 -0.199865
v -0.301128 0.432548 -0.193192
v 0.002297 0.388717 -0.207431
v 0.305796 0.390267 -0.202654
v 0.305796 0.417871 -0.193848
v 0.002297 0.427662 -0.191624
v 0.305796 0.425437 -0.188852
v 0.609385 0.400951 -0.199646
v 0.609385 0.428318 -0.190858
v 0.305796 0.429211 -0.179936
v 0.609385 0.436121 -0.185844
v 0.914287 0.434772 -0.185953
v 0.913412 0.442576 -0.181833
v 0.922309 0.407405 -0.185953
v 0.609385 0.439677 -0.176946
v 0.912519 0.446131 -0.173829
v -0.915180 0.446131 -0.173045
v -0.912519 0.415409 -0.162689
v -0.904059 0.438109 -0.162032
v -0.924096 0.407405 -0.174157
v -0.916967 0.446131 -0.202764
v -0.917861 0.434772 -0.214888
v -0.924971 0.407405 -0.214888
v -0.916967 0.442576 -0.210768
v -0.608054 0.400951 0.054479
v -0.894705 0.446131 0.038507
v -0.904496 0.407405 0.038452
v -0.608054 0.439677 0.043375
v -0.304465 0.429211 0.048189
v -0.304465 0.390267 0.059256
v -0.001112 0.427662 0.062045
v -0.001130 0.388717 0.065984
v 0.302240 0.393603 0.065327
v 0.302240 0.432548 0.065327
v 0.605830 0.401626 0.072000
v 0.605830 0.440351 0.072000
v 0.923203 0.446131 0.078783
v 0.932100 0.407405 0.078837
v 0.907614 0.446131 -0.007712
v 0.901378 0.446131 -0.059584
v 0.609385 0.440570 -0.066330
v 0.778984 0.443688 -0.004540
v 0.605830 0.440351 0.072000
v 0.305796 0.433004 -0.066038
v 0.923203 0.446131 0.078783
v 0.919629 0.446131 0.007001
v 0.302240 0.432548 0.065327
v 0.002297 0.428318 -0.056976
v -0.001112 0.427662 0.062045
v -0.301128 0.430105 -0.060149
v -0.304465 0.429211 0.048189
v -0.604480 0.440789 -0.070268
v -0.608054 0.439677 0.043375
v -0.891588 0.447462 -0.068773
v -0.894705 0.446131 0.038507
v -0.900941 0.408517 -0.068828
v -0.608054 0.400951 0.054479
v -0.904496 0.407405 0.038452
v -0.604480 0.401844 -0.070268
v -0.304465 0.390267 0.059256
v -0.301128 0.391160 -0.068937
v -0.001130 0.388717 0.065984
v 0.002352 0.389373 -0.072109
v 0.302240 0.393603 0.065327
v 0.305796 0.394059 -0.077889
v 0.605830 0.401626 0.072000
v 0.609385 0.401844 -0.071617
v 0.797672 0.405181 -0.003683
v 0.932100 0.407405 0.078837
v 0.910294 0.407186 -0.059529
v 0.928545 0.407186 0.006655
v 0.916074 0.407186 -0.007694
v -0.604480 0.401844 -0.070268
v -0.900941 0.408517 -0.068828
v -0.891588 0.447462 -0.068773
v -0.604480 0.440789 -0.070268
v -0.301128 0.430105 -0.060149
v -0.301128 0.391160 -0.068937
v 0.002297 0.428318 -0.056976
v 0.002352 0.389373 -0.072109
v 0.305796 0.394059 -0.077889
v 0.305796 0.433004 -0.066038
v 0.609385 0.401844 -0.071617
v 0.609385 0.440570 -0.066330
v 0.901378 0.446131 -0.059584
v 0.910294 0.407186 -0.059529
v -0.900047 0.446131 0.173482
v -0.902728 0.433660 0.182289
v -0.901378 0.442120 0.179937
v -0.924971 0.407405 0.057815
v -0.916074 0.446131 0.057870
v -0.908963 0.407186 0.182289
v 0.609385 0.400951 0.073003
v 0.908963 0.446131 0.088574
v 0.918754 0.407405 0.088628
v 0.002425 0.427662 0.073222
v 0.305796 0.429211 0.080952
v 0.305796 0.390267 0.069831
v 0.002443 0.388717 0.069265
v -0.300909 0.393603 0.062993
v -0.300909 0.432548 0.070378
v -0.604480 0.401626 0.058526
v -0.604480 0.440351 0.065984
v -0.916074 0.446131 0.057870
v -0.604480 0.440351 0.065984
v -0.916074 0.446131 0.057870
v -0.900047 0.446131 0.173482
v -0.608054 0.440570 0.179827
v -0.304246 0.433004 0.185735
v -0.300909 0.432548 0.070378
v -0.000802 0.428318 0.183401
v 0.002425 0.427662 0.073222
v 0.302696 0.430105 0.186063
v 0.305796 0.429211 0.080952
v 0.330282 0.430779 0.172370
v 0.609385 0.439677 0.084125
v 0.606705 0.440570 0.177275
v 0.895161 0.446350 0.113953
v 0.896930 0.447024 0.171823
v 0.908507 0.446350 0.107007
v 0.908963 0.446131 0.088574
v -0.604480 0.401626 0.058526
v -0.908963 0.407186 0.182289
v -0.924971 0.407405 0.057815
v -0.608054 0.401844 0.193957
v -0.300909 0.393603 0.062993
v -0.304246 0.394059 0.206428
v -0.000839 0.389373 0.207431
v 0.002443 0.388717 0.069265
v 0.302696 0.391160 0.203766
v 0.305796 0.390267 0.069831
v 0.344084 0.392272 0.178824
v 0.609385 0.400951 0.073003
v 0.904952 0.407624 0.116178
v 0.607161 0.401626 0.181176
v 0.302696 0.391160 0.203766
v 0.344084 0.392272 0.178824
v 0.302696 0.417634 0.197750
v 0.302696 0.426094 0.193957
v 0.302696 0.430105 0.186063
v 0.330282 0.430779 0.172370
v 0.896930 0.447024 0.171823
v 0.904952 0.407624 0.116178
v 0.895161 0.446350 0.113953
v 0.908507 0.446350 0.107007
v 0.918754 0.407405 0.088628
v 0.908963 0.446131 0.088574
v 0.918754 0.407624 0.109340
v -0.823051 0.420751 0.016519
v -0.743357 0.420751 -0.020001
v -0.823051 0.420751 -0.020001
v -0.743357 0.420751 0.016519
v -0.743357 0.420751 0.016519
v -0.564861 -0.000620 0.016519
v -0.743357 0.420751 -0.020001
v -0.564861 -0.000620 -0.020001
v -0.466934 0.007293 -0.005050
v -0.466934 0.063267 -0.005050
v -0.466934 0.063267 0.012799
v -0.466934 0.007293 0.012799
v -0.466934 0.007293 -0.005050
v -0.627636 0.063267 -0.005306
v -0.466934 0.063267 -0.005050
v -0.627636 0.007293 -0.005306
v -0.466934 0.007293 -0.005050
v -0.627636 0.007293 0.012562
v -0.627636 0.007293 -0.005306
v -0.627636 0.063267 0.012562
v -0.466934 0.007293 0.012799
v -0.466934 0.063267 0.012799
v -0.627636 0.063267 0.012562
v -0.627636 0.007293 -0.005306
v -0.627636 0.007293 0.012562
v -0.627636 0.063267 -0.005306
v -0.661913 0.420751 0.016519
v -0.576895 0.420751 -0.020001
v -0.661913 0.420751 -0.020001
v -0.576895 0.420751 0.016519
v 0.655240 0.447025 -0.108064
v 0.658339 0.449468 -0.114281
v 0.657008 0.449468 -0.128648
v 0.652997 0.447025 -0.134319
v 0.653453 0.449468 -0.121082
v 0.646780 0.447025 -0.120517
v 0.667255 0.449468 0.003647
v 0.654784 0.447024 0.000656
v 0.666361 0.447024 0.010411
v 0.680601 0.447024 0.005215
v 0.661019 0.449468 -0.001696
v 0.657008 0.447024 -0.014294
v 0.662350 0.449468 -0.009882
v 0.670373 0.449468 -0.012726
v 0.676590 0.449468 -0.007384
v 0.675259 0.449468 0.000802
v 0.671704 0.447024 -0.019490
v 0.683281 0.447024 -0.009736
v 0.661913 0.447024 0.111948
v 0.674366 0.449468 0.115175
v 0.676590 0.447024 0.108666
v 0.686837 0.447024 0.119842
v 0.666361 0.449468 0.116962
v 0.680164 0.449468 0.121301
v 0.682388 0.447024 0.134319
v 0.677483 0.449468 0.129305
v 0.664137 0.449468 0.124966
v 0.657464 0.447024 0.126424
v 0.669479 0.449468 0.131092
v 0.667692 0.447024 0.137655
v -0.601818 0.447462 0.114956
v -0.602256 0.447462 0.130198
v -0.596021 0.449905 0.126971
v -0.589803 0.447024 0.138330
v -0.596021 0.449905 0.118621
v -0.588454 0.447024 0.107937
v -0.581343 0.449249 0.119295
v -0.588454 0.449468 0.114847
v -0.581781 0.449249 0.127646
v -0.589347 0.449468 0.131420
v -0.575545 0.446350 0.116178
v -0.576001 0.446350 0.131311
v -0.622731 0.447462 -0.014294
v -0.625411 0.447462 0.000656
v -0.618738 0.449905 -0.001696
v -0.613834 0.447024 0.010411
v -0.617389 0.449905 -0.009882
v -0.608491 0.446806 -0.019490
v -0.603149 0.449249 -0.007384
v -0.609385 0.449468 -0.012726
v -0.604480 0.449249 0.000802
v -0.612503 0.449686 0.003647
v -0.596914 0.446350 -0.009736
v -0.599594 0.446569 0.005215
v -0.608929 0.447243 -0.134319
v -0.615165 0.447462 -0.120517
v -0.608491 0.449905 -0.121082
v -0.606705 0.447243 -0.108064
v -0.604936 0.449686 -0.128648
v -0.593796 0.446806 -0.135540
v -0.592028 0.449249 -0.122522
v -0.596476 0.449468 -0.129305
v -0.595583 0.449468 -0.115065
v -0.603587 0.449686 -0.114281
v -0.585336 0.446350 -0.123197
v -0.591572 0.446569 -0.109395
v -0.911188 0.446131 -0.078290
v -0.924096 0.446131 -0.151676
v -0.932994 0.407405 -0.151567
v -0.919629 0.407186 -0.078290
v 0.609385 0.439677 -0.176946
v 0.909838 0.447462 -0.078290
v 0.912519 0.446131 -0.173829
v 0.606267 0.440789 -0.082630
v -0.604480 0.440351 -0.197968
v -0.607598 0.440570 -0.078290
v -0.787881 0.443688 -0.162579
v -0.916967 0.446131 -0.202764
v -0.911188 0.446131 -0.078290
v -0.915180 0.446131 -0.173045
v -0.924096 0.446131 -0.151676
v 0.606267 0.401844 -0.082630
v 0.922309 0.407405 -0.185953
v 0.919629 0.408517 -0.078290
v 0.609385 0.400951 -0.199646
v -0.604480 0.401626 -0.210093
v -0.607598 0.401844 -0.078290
v -0.809687 0.405181 -0.162032
v -0.924971 0.407405 -0.214888
v -0.919629 0.407186 -0.078290
v -0.924096 0.407405 -0.174157
v -0.932994 0.407405 -0.151567
v -0.912519 0.415409 -0.162689
v 0.606267 0.401844 -0.082630
v 0.919629 0.408517 -0.078290
v 0.909838 0.447462 -0.078290
v 0.606267 0.440789 -0.082630
v -0.607598 0.440570 -0.078290
v -0.607598 0.401844 -0.078290
v -0.911188 0.446131 -0.078290
v -0.919629 0.407186 -0.078290
v -0.787881 0.443688 -0.162579
v -0.904059 0.438109 -0.162032
v -0.924096 0.446131 -0.151676
v -0.915180 0.446131 -0.173045
v 0.907614 0.446131 -0.007712
v 0.910294 0.407186 -0.059529
v 0.901378 0.446131 -0.059584
v 0.916074 0.407186 -0.007694
v 0.916074 0.407186 -0.007694
v 0.907176 0.414078 -0.000128
v 0.797672 0.405181 -0.003683
v 0.928545 0.407186 0.006655
v 0.778984 0.443688 -0.004540
v 0.898279 0.438109 -0.000055
v 0.907614 0.446131 -0.007712
v 0.919629 0.446131 0.007001
v 0.907176 0.414078 -0.000128
v 0.898279 0.438109 -0.000055
v 0.919629 0.446131 0.007001
v 0.923203 0.446131 0.078783
v 0.932100 0.407405 0.078837
v 0.928545 0.407186 0.006655
v 0.609385 0.439677 0.084125
v -0.924971 0.407405 0.057815
v 0.906721 0.408299 0.182836
v 0.918754 0.407624 0.109340
v 0.918754 0.407405 0.088628
v 0.606705 0.440570 0.177275
v 0.607161 0.401626 0.181176
v 0.896930 0.447024 0.171823
v 0.906721 0.408299 0.182836
v 0.906721 0.408299 0.182836
v -0.743357 0.420751 0.016519
v -0.644555 -0.000620 0.016519
v -0.564861 -0.000620 0.016519
v -0.644555 -0.000620 0.016519
v -0.823051 0.420751 -0.020001
v -0.644555 -0.000620 -0.020001
v -0.644555 -0.000620 -0.020001
v -0.564861 -0.000620 -0.020001
v -0.644555 -0.000620 0.016519
v -0.564861 -0.000620 0.016519
v -0.627636 0.007293 0.012562
v -0.466934 0.063267 -0.005050
v -0.627636 0.063267 -0.005306
v -0.627636 0.063267 0.012562
v -0.466934 0.063267 0.012799
v -0.576895 0.420751 0.016519
v -0.398617 -0.000620 0.016519
v -0.576895 0.420751 -0.020001
v -0.398617 -0.000620 -0.020001
v -0.482961 -0.000620 0.016519
v -0.592921 0.389592 -0.135978
v -0.771417 -0.000620 -0.135978
v -0.592921 0.389592 -0.053585
v -0.771417 -0.000620 -0.053585
v -0.722444 -0.000620 -0.135978
v -0.592921 0.389592 -0.135978
v -0.543511 0.389592 -0.135978
v -0.771417 -0.000620 -0.135978
v -0.543511 0.389592 -0.053585
v -0.722444 -0.000620 -0.135978
v -0.543511 0.389592 -0.135978
v -0.722444 -0.000620 -0.053585
v -0.722444 -0.000620 -0.053585
v -0.771417 -0.000620 -0.135978
v -0.722444 -0.000620 -0.135978
v -0.771417 -0.000620 -0.053585
v -0.543511 0.389592 0.134647
v -0.722444 -0.000620 0.052163
v -0.543511 0.389592 0.052163
v -0.722444 -0.000620 0.134647
v -0.771417 -0.000620 0.134647
v -0.721114 0.029755 -0.057925
v -0.658339 0.366893 0.203876
v -0.537713 0.369354 -0.211096
v -0.517694 0.367567 0.206319
v -0.658339 0.366893 0.203876
v 0.880466 0.411416 0.031633
v 0.705981 -0.000620 -0.004868
v 0.880466 0.411416 -0.004868
v 0.801227 0.411416 0.031633
v 0.626305 -0.000620 0.031633
v 0.705981 -0.000620 0.031633
v 0.705981 -0.000620 -0.004868
v 0.626305 -0.000620 0.031633
v 0.626305 -0.000620 -0.004868
v 0.689061 0.063267 -0.000912
v 0.528815 0.007293 -0.001149
v 0.528815 0.063267 -0.001149
v 0.689061 0.007293 -0.000912
v 0.544842 -0.000620 -0.004868
v 0.719327 0.388042 0.031633
v 0.544842 -0.000620 0.031633
v 0.544842 -0.000620 0.031633
v 0.719327 0.388042 0.031633
v 0.634746 0.388042 0.031633
v 0.459824 -0.000620 0.031633
v 0.832842 -0.000620 0.147665
v 0.783870 -0.000620 0.147665
v 0.832842 -0.000620 0.065218
v 0.783870 -0.000620 0.065218
v 0.783870 -0.000620 -0.040513
v 0.672597 0.393822 -0.040513
v 0.623187 0.393822 -0.040513
v 0.832842 -0.000620 -0.040513
v 0.783870 -0.000620 -0.040513
v 0.783870 -0.000620 -0.122960
v 0.623187 0.393822 -0.122960
v 0.672597 0.393822 -0.122960
v 0.832842 -0.000620 -0.122960
v 0.832842 -0.000620 -0.040513
v 0.783870 -0.000620 -0.122960
v 0.832842 -0.000620 -0.122960
v 0.783870 -0.000620 -0.040513
v 0.756722 0.085237 0.069557
v 0.757159 0.085456 -0.043649
v 0.782977 0.029974 -0.043649
v 0.782539 0.029755 0.069557
v 0.606267 0.402956 0.189509
v 0.716665 0.400513 -0.192189
v 0.591572 0.401170 -0.194851
v 0.716665 0.400513 -0.192189
v 0.722882 0.402063 0.192408
v 0.731798 0.368461 0.192189
v 0.719783 0.366893 -0.192189
v 0.719783 0.366893 -0.192189
v 0.599138 0.369354 0.189618
v 0.579119 0.367567 -0.194741
v 0.606267 0.402956 0.189509
v 0.591572 0.401170 -0.194851
v 0.579119 0.367567 -0.194741
v 0.722882 0.402063 0.192408
v 0.599138 0.369354 0.189618
v 0.731798 0.368461 0.192189
v 0.661913 0.448355 -0.121848
v 0.669023 0.448355 -0.004540
v 0.672141 0.448355 0.123197
v -0.588910 0.448355 0.123197
v -0.611171 0.448355 -0.004540
v -0.600031 0.448355 -0.121848
v -0.894705 0.446131 0.038507
v -0.891588 0.447462 -0.068773
v -0.900941 0.408517 -0.068828
v -0.904496 0.407405 0.038452
v -0.823051 0.420751 0.016519
v -0.823051 0.420751 0.016519
v -0.644555 -0.000620 -0.020001
v -0.823051 0.420751 -0.020001
v -0.743357 0.420751 -0.020001
v -0.564861 -0.000620 -0.020001
v -0.466934 0.007293 0.012799
v -0.482961 -0.000620 0.016519
v -0.576895 0.420751 0.016519
v -0.661913 0.420751 0.016519
v -0.398617 -0.000620 0.016519
v -0.661913 0.420751 -0.020001
v -0.482961 -0.000620 0.016519
v -0.661913 0.420751 0.016519
v -0.482961 -0.000620 -0.020001
v -0.722444 -0.000620 -0.053585
v -0.543511 0.389592 -0.053585
v -0.592921 0.389592 -0.053585
v -0.771417 -0.000620 -0.053585
v -0.592921 0.389592 0.052163
v -0.771417 -0.000620 0.052163
v -0.592921 0.389592 0.134647
v -0.771417 -0.000620 0.134647
v -0.771417 -0.000620 0.134647
v -0.722444 -0.000620 0.052163
v -0.722444 -0.000620 0.134647
v -0.771417 -0.000620 0.052163
v -0.721114 0.029755 -0.057925
v -0.669917 0.368461 -0.213667
v -0.544386 0.402957 -0.210986
v -0.530146 0.401170 0.206538
v -0.517694 0.367567 0.206319
v -0.537713 0.369354 -0.211096
v -0.658339 0.366893 0.203876
v -0.530146 0.401170 0.206538
v -0.655240 0.400513 0.203766
v -0.517694 0.367567 0.206319
v -0.544386 0.402957 -0.210986
v 0.705981 -0.000620 0.031633
v 0.880466 0.411416 0.031633
v 0.705981 -0.000620 0.031633
v 0.459824 -0.000620 0.031633
v 0.719327 0.388042 -0.004868
v 0.623187 0.393822 0.147665
v 0.623187 0.393822 0.065218
v 0.832842 -0.000620 0.065218
v 0.806132 0.045399 -0.043649
v 0.722882 0.402063 0.192408
v 0.731798 0.368461 0.192189
v 0.599138 0.369354 0.189618
v 0.719783 0.366893 -0.192189
v 0.591572 0.401170 -0.194851
v 0.716665 0.400513 -0.192189
v 0.579119 0.367567 -0.194741
v 0.606267 0.402956 0.189509
vt 0.303000 0.119042
vt 0.746000 0.119042
vt 0.738000 0.138042
vt 0.296000 0.138042
vt 0.252000 1.114042
vt 0.394000 1.130042
vt 0.396000 1.115041
vt 0.719000 0.151042
vt 0.719000 0.159042
vt 0.672000 0.162042
vt 0.672000 0.154041
vt -1.048000 0.145042
vt -1.454000 0.145042
vt -1.048000 0.114042
vt -1.454000 0.114042
vt 0.249000 1.129042
vt 1.666000 0.585042
vt 1.649000 0.590042
vt 1.666000 0.589042
vt 1.649000 0.584042
vt 1.641000 0.586042
vt 1.080000 0.592042
vt 1.365000 0.590042
vt 1.365000 0.592042
vt 1.080000 0.590042
vt 1.365000 0.583041
vt 1.080000 0.580042
vt 1.365000 0.580042
vt 1.080000 0.583041
vt 1.365000 0.585042
vt 1.080000 0.585042
vt 1.080000 0.587042
vt 1.365000 0.587042
vt 0.667000 0.355042
vt 0.500000 0.382042
vt 0.500000 0.355042
vt 0.667000 0.382042
vt 0.495000 0.339042
vt 0.655000 0.339042
vt 0.655000 0.332042
vt 0.206000 0.163042
vt 0.326000 0.151042
vt 0.195000 0.151042
vt 0.745000 0.586042
vt 0.704000 0.586042
vt 0.704000 0.582042
vt 0.747000 0.582042
vt 0.788000 0.586042
vt 0.788000 0.582042
vt 0.536000 0.586042
vt 0.578000 0.582042
vt 0.578000 0.586042
vt 0.536000 0.582042
vt 0.620000 0.586042
vt 0.620000 0.582042
vt 0.662000 0.586042
vt 0.662000 0.582042
vt 0.868000 0.586042
vt 0.911000 0.582042
vt 0.909000 0.586042
vt 0.868000 0.582042
vt 0.952000 0.582042
vt 0.952000 0.586042
vt 0.742000 0.586042
vt 0.700000 0.586042
vt 0.700000 0.582042
vt 0.742000 0.582042
vt 0.784000 0.582042
vt 0.784000 0.586042
vt 0.826000 0.582042
vt 0.826000 0.586042
vt 0.307000 0.586042
vt 0.266000 0.586042
vt 0.266000 0.582042
vt 0.309000 0.582042
vt 0.350000 0.582042
vt 0.350000 0.586042
vt 0.140000 0.586042
vt 0.098000 0.586042
vt 0.098000 0.582042
vt 0.140000 0.582042
vt 0.182000 0.586042
vt 0.182000 0.582042
vt 0.224000 0.582042
vt 0.224000 0.586042
vt 0.545000 0.586042
vt 0.588000 0.582042
vt 0.586000 0.586042
vt 0.545000 0.582042
vt 0.629000 0.586042
vt 0.629000 0.582042
vt 0.377000 0.586042
vt 0.419000 0.582042
vt 0.419000 0.586042
vt 0.377000 0.582042
vt 0.461000 0.582042
vt 0.462000 0.586042
vt 0.503000 0.586042
vt 0.503000 0.582042
vt 0.002000 0.411042
vt 0.168000 0.411042
vt 0.002000 0.418042
vt 0.168000 0.418042
vt 0.002000 0.421041
vt 0.335000 0.418042
vt 0.335000 0.411042
vt 0.168000 0.421041
vt 0.335000 0.421041
vt 0.002000 0.423042
vt 0.501000 0.418042
vt 0.501000 0.421041
vt 0.335000 0.423042
vt 0.168000 0.423042
vt 0.501000 0.411042
vt 0.668000 0.411042
vt 0.668000 0.418042
vt 0.501000 0.423042
vt 0.668000 0.421041
vt 0.668000 0.423042
vt 0.098000 1.585042
vt 0.118000 1.589041
vt 0.111000 1.591042
vt 0.139000 1.591042
vt 0.111000 1.585042
vt 0.133000 1.589041
vt 0.556000 0.242041
vt 0.447000 0.253042
vt 0.556000 0.254042
vt 0.434000 0.250042
vt 0.434000 0.242041
vt 0.438000 0.252042
vt 0.833000 0.311042
vt 0.999000 0.311042
vt 0.999000 0.304042
vt 0.833000 0.304042
vt 0.999000 0.302042
vt 0.667000 0.304042
vt 0.667000 0.311042
vt 0.833000 0.302042
vt 0.667000 0.302042
vt 1.000000 0.299042
vt 0.833000 0.299042
vt 0.500000 0.304042
vt 0.500000 0.302042
vt 0.667000 0.299042
vt 0.500000 0.311042
vt 0.333000 0.311042
vt 0.333000 0.304042
vt 0.500000 0.299042
vt 0.333000 0.302042
vt 0.167000 0.311042
vt 0.167000 0.304042
vt 0.333000 0.299042
vt 0.167000 0.302042
vt 0.000000 0.304042
vt 0.000000 0.302042
vt 0.000000 0.311042
vt 0.167000 0.299042
vt 0.000000 0.299042
vt 0.237000 0.253042
vt 0.248000 0.244042
vt 0.249000 0.251042
vt 0.236000 0.242041
vt 0.203000 0.253042
vt 0.190000 0.250042
vt 0.190000 0.242041
vt 0.194000 0.252042
vt 0.815000 0.347041
vt 0.976000 0.354042
vt 0.976000 0.347041
vt 0.815000 0.354042
vt 0.655000 0.354042
vt 0.655000 0.347041
vt 0.495000 0.354042
vt 0.495000 0.347041
vt 0.335000 0.347041
vt 0.335000 0.354042
vt 0.175000 0.347041
vt 0.175000 0.354042
vt 0.015000 0.354042
vt 0.015000 0.347041
vt 0.000000 0.393042
vt 0.000000 0.383042
vt 0.167000 0.383042
vt 0.074000 0.394042
vt 0.167000 0.409042
vt 0.333000 0.383042
vt 0.000000 0.409042
vt 0.000000 0.395042
vt 0.333000 0.409042
vt 0.500000 0.383042
vt 0.500000 0.409042
vt 0.666000 0.383042
vt 0.667000 0.409042
vt 0.833000 0.383042
vt 0.833000 0.409042
vt 0.999000 0.383042
vt 1.000000 0.409042
vt 0.066000 0.394042
vt 0.833000 0.319042
vt 1.000000 0.319042
vt 1.000000 0.327042
vt 0.833000 0.327042
vt 0.667000 0.327042
vt 0.667000 0.319042
vt 0.500000 0.327042
vt 0.500000 0.319042
vt 0.333000 0.319042
vt 0.333000 0.327042
vt 0.167000 0.319042
vt 0.167000 0.327042
vt 0.000000 0.327042
vt 0.000000 0.318042
vt 0.341000 0.248042
vt 0.350000 0.245042
vt 0.348000 0.247042
vt 0.220000 0.237042
vt 0.221000 0.248042
vt 0.349000 0.237042
vt 0.167000 0.437042
vt 0.001000 0.437042
vt 0.334000 0.437042
vt 0.500000 0.437042
vt 0.667000 0.437042
vt 0.683000 0.415042
vt 0.833000 0.437042
vt 0.834000 0.416042
vt 1.000000 0.433042
vt 1.001000 0.416042
vt 1.000000 0.434042
vt 1.000000 0.437042
vt 0.167000 0.382042
vt 0.001000 0.355042
vt 0.001000 0.382042
vt 0.167000 0.355042
vt 0.334000 0.382042
vt 0.333000 0.355042
vt 0.688000 0.362042
vt 0.833000 0.382042
vt 1.000000 0.376042
vt 0.833000 0.362042
vt 0.132000 0.194042
vt 0.180000 0.194042
vt 0.132000 0.201042
vt 0.132000 0.202042
vt 0.132000 0.204041
vt 0.164000 0.204041
vt 0.796000 0.254042
vt 0.726000 0.241041
vt 0.727000 0.254042
vt 0.710000 0.254042
vt 0.688000 0.241041
vt 0.688000 0.254042
vt 0.710000 0.241041
vt 0.153000 1.586042
vt 0.141000 1.586042
vt 0.118000 1.582042
vt 0.112000 1.580042
vt 0.134000 1.582042
vt 0.140000 1.580042
vt 0.500000 1.585042
vt 0.500000 1.580042
vt 0.513000 1.585042
vt 0.498000 1.591042
vt 0.494000 1.582042
vt 0.473000 1.580042
vt 0.479000 1.582042
vt 0.471000 1.585042
vt 0.478000 1.588042
vt 0.492000 1.588042
vt 0.458000 1.585042
vt 0.471000 1.591042
vt 0.188000 1.580042
vt 0.187000 1.586042
vt 0.174000 1.586042
vt 0.188000 1.591042
vt 0.194000 1.582042
vt 0.194000 1.589041
vt 0.216000 1.591042
vt 0.209000 1.589041
vt 0.209000 1.582042
vt 0.215000 1.580042
vt 0.217000 1.585042
vt 0.229000 1.585042
vt 0.362000 0.592042
vt 0.352000 0.585042
vt 0.365000 0.585042
vt 0.372000 0.579042
vt 0.370000 0.589042
vt 0.391000 0.592042
vt 0.397000 0.585042
vt 0.386000 0.589042
vt 0.392000 0.582042
vt 0.376000 0.582042
vt 0.410000 0.585042
vt 0.401000 0.579042
vt 0.831000 0.592042
vt 0.818000 0.585042
vt 0.834000 0.585042
vt 0.840000 0.579042
vt 0.840000 0.589042
vt 0.865000 0.592042
vt 0.871000 0.585042
vt 0.859000 0.589042
vt 0.864000 0.582042
vt 0.846000 0.582042
vt 0.886000 0.585042
vt 0.874000 0.579042
vt 0.323000 0.592042
vt 0.309000 0.585042
vt 0.323000 0.585042
vt 0.326000 0.579042
vt 0.331000 0.589042
vt 0.355000 0.592042
vt 0.358000 0.586042
vt 0.348000 0.589042
vt 0.333000 0.582042
vt 0.372000 0.586042
vt 0.358000 0.579042
vt 0.343000 0.253042
vt 0.261000 0.253042
vt 0.261000 0.242041
vt 0.343000 0.242041
vt 1.000000 0.355042
vt 1.000000 0.382042
vt 0.833000 0.355042
vt 0.070000 0.374042
vt 0.000000 0.355042
vt 0.001000 0.376042
vt 0.000000 0.372042
vt 0.832000 0.328042
vt 0.999000 0.345042
vt 0.998000 0.328042
vt 0.832000 0.346042
vt 0.167000 0.347041
vt 0.167000 0.328042
vt 0.061000 0.340042
vt 0.001000 0.347041
vt 0.000000 0.328042
vt 0.001000 0.342042
vt 0.000000 0.338042
vt 0.001000 0.340042
vt 0.833000 0.401042
vt 1.000000 0.401042
vt 0.167000 0.401042
vt 0.000000 0.401042
vt 0.424000 0.244042
vt 0.296000 0.244042
vt 0.296000 0.239042
vt 0.296000 0.248042
vt 0.398000 0.249042
vt 0.351000 0.240042
vt 0.351000 0.249042
vt 0.398000 0.240042
vt 0.117000 0.283042
vt 0.117000 0.287041
vt 0.290000 0.288042
vt 0.117000 0.291042
vt 0.310000 0.287041
vt 0.405000 0.242041
vt 0.405000 0.247042
vt 0.411000 0.249042
vt 0.477000 0.249042
vt 0.477000 0.240042
vt 0.411000 0.240042
vt 1.000000 0.362042
vt 1.000000 0.377042
vt 0.483000 0.207042
vt 0.483000 0.197042
vt 0.813000 0.208042
vt 0.824000 0.198042
vt 0.799000 0.241041
vt 0.495000 0.332042
vt 0.667000 0.317042
vt 0.500000 0.317042
vt 0.500000 0.310041
vt 0.701000 0.251042
vt 0.826000 0.252042
vt 0.827000 0.240042
vt 0.702000 0.240042
vt 0.667000 0.310041
vt 0.210000 0.150042
vt 0.336000 0.163042
vt 0.214000 0.163042
vt 0.351000 0.150042
vt 0.317000 0.163042
vn -0.283200 -0.735600 -0.615400
vn -0.874000 0.103600 -0.474700
vn 0.473700 0.714800 -0.514400
vn 0.618000 -0.409500 -0.671000
vn 0.759400 -0.503300 0.412300
vn 0.618100 -0.409600 -0.671000
vn 0.464300 -0.723600 -0.510700
vn -0.406700 0.186000 -0.894400
vn 0.642800 -0.294800 -0.707100
vn -0.873400 -0.080700 -0.480200
vn 0.347700 -0.542000 0.765100
vn 0.813000 -0.372800 0.447200
vn -0.643000 0.294100 0.707100
vn 0.765100 -0.004500 -0.643800
vn 0.212100 -0.766500 -0.606200
vn -0.649700 -0.400300 -0.646300
vn -0.253600 0.898000 -0.359600
vn -0.765500 0.003500 0.643400
vn -0.214200 0.764600 0.607900
vn -0.649700 -0.400300 -0.646200
vn 0.250400 -0.898200 0.361200
vn 0.765200 -0.004400 -0.643800
vn 0.647600 0.401100 0.647800
vn 0.647600 0.401200 0.647800
vn 0.765200 -0.004500 -0.643800
vn -0.253700 0.898000 -0.359600
vn 0.647700 0.401100 0.647800
vn 0.250500 -0.898200 0.361200
vn -0.505000 0.595000 -0.625300
vn 0.144300 -0.454100 -0.879200
vn -0.772900 -0.561700 -0.295200
vn 0.192600 0.600200 -0.776300
vn 0.954800 -0.002000 -0.297400
vn 0.260200 0.810800 0.524300
vn 0.848800 -0.001900 0.528700
vn 0.260200 0.810800 0.524400
vn 0.192700 0.600200 -0.776300
vn -0.721500 0.297500 0.625300
vn -0.688100 -0.500100 0.525800
vn 0.222600 -0.700400 0.678100
vn 0.144300 -0.454000 -0.879200
vn -0.721400 0.297500 0.625300
vn -0.688100 -0.500100 0.525700
vn 0.848800 -0.001800 0.528700
vn 0.571900 0.756600 -0.316900
vn -0.612600 0.721800 0.322200
vn 0.350400 0.526100 0.774900
vn -0.368900 0.497500 -0.785100
vn -0.612600 0.721800 0.322100
vn -0.368900 0.497600 -0.785100
vn -0.856500 -0.292200 -0.425400
vn 0.353900 -0.617500 -0.702500
vn -0.856500 -0.292300 -0.425500
vn -0.650900 0.276300 -0.707100
vn -0.759600 -0.502800 0.412600
vn -0.411700 0.174700 0.894400
vn -0.618000 -0.409100 -0.671400
vn 0.473600 -0.714900 -0.514400
vn -0.650900 0.276400 -0.707100
vn 0.651100 -0.275700 -0.707100
vn -0.618000 -0.409000 -0.671400
vn -0.578000 -0.577000 0.577100
vn -0.408800 0.816300 0.408100
vn -0.816300 0.408400 -0.408500
vn -0.407200 -0.408400 -0.816900
vn -0.578000 -0.577000 0.577000
vn 0.666100 0.333500 0.667100
vn 0.576700 -0.577700 0.577700
vn 0.666900 -0.666400 -0.333300
vn -0.407300 -0.408400 -0.816900
vn 0.334200 0.666400 -0.666400
vn -0.408700 0.816300 0.408100
vn 0.666000 0.333600 0.667200
vn 0.666900 -0.666500 -0.333200
vn 0.334200 0.666500 -0.666400
vn 0.576700 -0.577700 0.577600
vn -0.407800 0.183500 -0.894400
vn -0.762800 -0.493200 -0.418300
vn -0.644700 0.290500 0.707100
vn 0.559400 -0.557700 -0.613200
vn 0.645100 -0.289600 -0.707100
vn -0.762800 -0.493200 -0.418200
vn 0.279700 -0.738700 0.613200
vn -0.617700 -0.399400 0.677400
vn 0.655100 0.266100 0.707100
vn 0.757200 -0.509600 -0.408700
vn 0.414400 0.168300 -0.894400
vn 0.618000 -0.416000 0.667100
vn -0.285700 -0.733300 0.616900
vn -0.828300 -0.337500 0.447200
vn -0.571300 -0.541300 -0.616900
vn -0.285600 -0.733300 0.617000
vn -0.571400 -0.541200 -0.616900
vn -0.654900 -0.266700 -0.707100
vn 0.414300 0.168300 -0.894400
vn 0.874000 -0.116600 -0.471700
vn 0.437000 -0.765800 0.471800
vn -0.477900 -0.710800 -0.516100
vn -0.654900 -0.266800 -0.707100
vn -0.765600 -0.004100 0.643300
vn -0.214400 -0.764700 0.607700
vn 0.649700 -0.400300 0.646300
vn 0.251400 0.898000 0.361100
vn 0.765500 0.003500 -0.643400
vn 0.251500 0.898000 0.361100
vn 0.214200 0.764600 -0.607900
vn -0.252000 -0.898000 -0.360700
vn 0.649700 -0.400300 0.646200
vn -0.214500 -0.764700 0.607600
vn -0.650200 0.399600 -0.646100
vn -0.650300 0.399600 -0.646100
vn 0.765500 0.003600 -0.643400
vn 0.505000 0.595000 0.625300
vn -0.340600 -0.539400 0.770100
vn 0.772900 -0.561700 0.295200
vn -0.199800 0.593700 0.779500
vn -0.905800 0.209300 0.368400
vn -0.270900 0.804700 -0.528300
vn -0.905800 0.209500 0.368300
vn -0.199900 0.593700 0.779500
vn -0.904900 -0.213200 -0.368400
vn 0.721500 0.297500 -0.625300
vn 0.772900 -0.561600 0.295200
vn 0.688100 -0.500100 -0.525800
vn -0.051200 -0.636000 -0.770000
vn -0.051400 -0.635900 -0.770000
vn 0.721400 0.297500 -0.625300
vn 0.688100 -0.500100 -0.525700
vn -0.271000 0.804700 -0.528300
vn 0.380200 0.708700 -0.594300
vn 0.765000 0.640600 -0.066400
vn 0.907500 0.413000 -0.076000
vn 0.258900 0.488800 -0.833100
vn -0.497800 0.579200 -0.645600
vn -0.471000 0.575400 -0.668600
vn -0.901600 0.424600 0.082900
vn -0.668300 0.736300 0.106200
vn -0.471000 0.575300 -0.668700
vn -0.380400 0.647900 0.659900
vn -0.252100 0.481000 0.839700
vn 0.494600 0.575700 0.651100
vn 0.470900 0.578600 0.666000
vn -0.649500 0.579900 -0.491800
vn -0.852600 0.488600 0.185200
vn -0.654500 0.644600 0.395100
vn -0.627400 0.575200 -0.524900
vn -0.158900 0.432200 0.887700
vn -0.134100 0.651400 0.746800
vn 0.606400 0.569500 0.554900
vn -0.134200 0.651400 0.746800
vn 0.629400 0.572800 0.525100
vn 0.866000 0.465900 -0.181800
vn 0.696100 0.641200 -0.322800
vn 0.163300 0.420400 -0.892500
vn 0.109800 0.787900 -0.605900
vn -0.517600 0.647600 -0.559200
vn 0.367300 0.551700 -0.748800
vn 0.142200 0.492000 -0.858900
vn -0.551300 0.576900 -0.602700
vn -0.880300 0.432700 0.194200
vn -0.647500 0.737500 0.191900
vn -0.371200 0.545500 0.751400
vn -0.647500 0.737500 0.192000
vn -0.880300 0.432800 0.194200
vn -0.141600 0.483700 0.863700
vn 0.513800 0.648900 0.561200
vn 0.552300 0.572500 0.606000
vn 0.879800 0.434400 -0.192800
vn 0.643900 0.739900 -0.194600
vn 0.615600 0.676100 -0.404900
vn 0.057800 0.428700 -0.901600
vn 0.015300 0.733000 -0.680100
vn 0.836000 0.461300 -0.297000
vn -0.692200 0.597700 -0.404500
vn -0.658300 0.608100 -0.443700
vn -0.792300 0.535300 0.292700
vn -0.654800 0.568500 0.498000
vn -0.024700 0.432000 0.901500
vn -0.052400 0.735000 0.676100
vn 0.690900 0.551700 0.467100
vn 0.704500 0.562500 0.432600
vn -0.633600 0.590700 -0.499600
vn -0.839200 0.514000 0.177600
vn -0.723700 0.559200 0.404300
vn -0.603500 0.601900 -0.523000
vn -0.142900 0.436500 0.888300
vn -0.144800 0.728300 0.669700
vn 0.626400 0.550200 0.552100
vn -0.144800 0.728400 0.669700
vn -0.142900 0.436400 0.888300
vn 0.642100 0.563800 0.519500
vn 0.870500 0.458900 -0.177700
vn 0.664800 0.672800 -0.324700
vn 0.173600 0.425500 -0.888200
vn 0.105000 0.722000 -0.683900
vn 0.404600 0.632200 -0.660800
vn 0.652900 0.755800 -0.050000
vn 0.911600 0.404100 -0.075800
vn 0.272900 0.475700 -0.836200
vn -0.479100 0.594500 -0.645700
vn -0.443800 0.601400 -0.664400
vn -0.479100 0.594600 -0.645700
vn -0.875700 0.475600 0.083200
vn -0.738800 0.670800 0.064000
vn -0.427900 0.653900 0.623900
vn -0.233300 0.493900 0.837600
vn 0.460500 0.554800 0.692900
vn 0.485300 0.557200 0.673800
vn -0.445300 -0.754700 0.481800
vn -0.038200 -0.655300 0.754400
vn -0.678400 0.238500 0.694900
vn -0.018500 0.285600 0.958200
vn -0.342400 0.534200 0.772900
vn -0.006000 0.355100 0.934800
vn -0.020300 -0.347500 0.937500
vn 0.001100 0.746200 0.665700
vn 0.003300 0.649900 0.760000
vn -0.535900 0.818400 0.207400
vn 0.003900 0.369200 0.929400
vn 0.003800 0.723000 0.690900
vn 0.018300 0.967900 0.250800
vn 0.016400 0.971000 0.238400
vn -0.004800 -0.771300 0.636500
vn 0.103600 -0.831100 0.546400
vn 0.218200 0.344000 0.913200
vn 0.006900 0.987700 0.156300
vn 0.337200 0.643500 0.687200
vn 0.166200 0.930900 0.325200
vn 0.266400 0.963600 -0.022600
vn 0.494500 0.575700 0.651200
vn 0.061800 0.990700 -0.121200
vn 0.083500 0.978600 0.188100
vn 0.936700 -0.100900 0.335300
vn 0.649900 0.743700 -0.156400
vn 0.286900 0.715100 0.637400
vn 0.702600 0.304600 -0.643100
vn 0.470800 -0.769000 -0.432400
vn 0.325600 0.658200 -0.678800
vn 0.004600 -0.708100 -0.706100
vn -0.442200 -0.782500 -0.438400
vn -0.676100 0.233700 -0.698700
vn 0.022000 0.326200 -0.945100
vn -0.292700 0.637800 -0.712400
vn 0.014300 0.253500 -0.967200
vn 0.004600 0.037500 -0.999300
vn 0.026500 0.776700 -0.629300
vn 0.024500 0.730000 -0.683100
vn -0.543600 0.822500 -0.167400
vn 0.017600 0.982500 -0.185200
vn 0.014100 0.258700 -0.965800
vn 0.017900 0.714200 -0.699700
vn 0.020800 0.907200 -0.420100
vn 0.005000 0.112300 -0.993700
vn 0.015100 0.241000 -0.970400
vn 0.012300 0.422000 -0.906500
vn 0.012500 0.918500 -0.395200
vn -0.000200 0.766500 -0.642200
vn 0.017400 -0.268700 -0.963100
vn -0.001600 0.455000 -0.890500
vn -0.015500 0.923400 -0.383500
vn -0.017000 0.828700 -0.559400
vn 0.325500 0.658200 -0.678800
vn 0.470900 -0.769000 -0.432400
vn -0.017600 0.987200 -0.158700
vn 0.649900 0.743700 -0.156500
vn -0.596700 0.603200 0.529300
vn -0.929900 -0.337100 -0.147400
vn -0.488500 0.868600 -0.082600
vn -0.917200 -0.245300 0.314000
vn -0.292800 0.637800 -0.712400
vn -0.034800 -0.488800 0.871700
vn -0.605300 0.539200 0.585500
vn -0.652600 -0.464200 0.598800
vn 0.015800 0.875700 0.482700
vn 0.004200 0.795300 0.606300
vn -0.038800 -0.630100 0.775600
vn -0.015100 0.658500 0.752400
vn -0.004600 -0.817300 0.576200
vn 0.006200 -0.696600 0.717400
vn -0.026300 0.705600 0.708200
vn 0.000300 -0.708000 0.706200
vn -0.029300 0.893400 0.448300
vn 0.289800 0.718400 0.632400
vn 0.736500 -0.585100 0.339500
vn 0.615300 0.680200 0.398500
vn 0.373500 0.504700 -0.778300
vn -0.013900 0.907500 -0.419800
vn -0.002100 0.999900 -0.016800
vn -0.019300 0.788600 -0.614600
vn 0.586700 0.499300 -0.637600
vn -0.026400 0.705600 0.708100
vn -0.013800 0.745800 -0.666000
vn 0.022600 0.761400 -0.647900
vn 0.004200 0.795200 0.606300
vn 0.033500 0.835400 -0.548600
vn 0.015800 0.875600 0.482700
vn -0.297900 0.711100 -0.636800
vn -0.605300 0.539200 0.585600
vn -0.730600 -0.557500 -0.394300
vn -0.034700 -0.488800 0.871700
vn -0.011800 -0.570200 -0.821400
vn -0.038800 -0.630100 0.775500
vn -0.008300 -0.603400 -0.797400
vn -0.001900 -0.771600 -0.636100
vn 0.006600 -0.584700 -0.811200
vn 0.028000 -0.524800 -0.850800
vn 0.030900 -0.999300 -0.019400
vn 0.712500 -0.551700 -0.433600
vn 0.532600 -0.487000 -0.692200
vn 0.681300 -0.532500 0.502300
vn -0.297900 0.711200 -0.636800
vn 0.033600 0.835400 -0.548600
vn -0.001800 -0.771600 -0.636100
vn 0.028000 -0.524800 -0.850700
vn -0.013900 0.907500 -0.419900
vn 0.373400 0.504700 -0.778300
vn -0.536000 0.818400 0.207400
vn -0.342400 0.534300 0.772800
vn -0.868200 -0.080400 -0.489700
vn -0.207600 0.395500 -0.894700
vn -0.445200 -0.754700 0.481800
vn 0.033500 -0.736400 -0.675800
vn 0.375900 0.572300 -0.728800
vn 0.879500 -0.213800 -0.425100
vn 0.011900 0.679500 -0.733500
vn 0.001500 0.617300 -0.786700
vn 0.020300 -0.433800 -0.900800
vn 0.005300 -0.817100 -0.576400
vn -0.006500 -0.767100 -0.641500
vn 0.023300 0.768900 -0.638900
vn 0.002300 -0.559700 -0.828700
vn 0.028400 0.839300 -0.542900
vn -0.207600 0.395600 -0.894700
vn 0.002400 -0.559700 -0.828700
vn 0.028500 0.839300 -0.542900
vn -0.207500 0.395600 -0.894700
vn -0.535900 0.818400 0.207500
vn 0.007000 0.987700 0.156200
vn 0.011900 0.679600 -0.733500
vn 0.166100 0.930900 0.325200
vn 0.076000 0.882100 0.464900
vn -0.020900 0.940500 -0.339100
vn -0.022200 0.751300 0.659600
vn 0.362700 0.908200 0.208900
vn 0.588400 0.566400 0.577100
vn 0.643300 0.653800 0.398300
vn -0.038100 -0.655300 0.754400
vn -0.006500 -0.767100 -0.641600
vn -0.020300 -0.347500 0.937400
vn -0.004800 -0.771200 0.636500
vn 0.407000 -0.230300 0.883900
vn 0.719000 -0.542500 0.434400
vn 0.018400 -0.647400 0.761900
vn 0.103600 -0.831000 0.546500
vn 0.406900 -0.230300 0.883900
vn 0.218200 0.344000 0.913300
vn 0.588400 0.566400 0.577000
vn 0.719100 -0.542400 0.434400
vn 0.362700 0.908200 0.209000
vn 0.643300 0.653800 0.398400
vn 0.879600 -0.213800 -0.425000
vn 0.376000 0.572300 -0.728800
vn 0.619600 -0.676500 0.398000
vn -0.437000 0.764100 0.474600
vn 0.473600 0.714900 -0.514300
vn -0.874000 0.104400 -0.474500
vn 0.353700 0.533800 0.768100
vn 0.353600 0.533900 0.768100
vn 0.874000 -0.104400 0.474600
vn 0.473600 0.715000 -0.514300
vn 0.437000 -0.764100 -0.474500
vn 0.578000 -0.577000 -0.577100
vn 0.408800 0.816300 -0.408100
vn 0.816300 0.408400 0.408500
vn 0.407200 -0.408400 0.816900
vn 0.577900 -0.577100 -0.577100
vn -0.407100 0.408500 -0.816900
vn 0.408800 0.816300 -0.408200
vn -0.816300 -0.408400 -0.408500
vn 0.577900 -0.577000 -0.577100
vn -0.408800 -0.816300 0.408100
vn -0.578000 0.577000 0.577000
vn 0.407300 -0.408400 0.816900
vn 0.816300 0.408400 0.408400
vn -0.577900 0.577100 0.577000
vn -0.816300 -0.408500 -0.408400
vn -0.407100 0.408400 -0.817000
vn -0.437000 0.763900 0.474800
vn 0.353700 0.533700 0.768100
vn -0.380500 0.647900 0.659900
vn -0.100600 0.985000 0.139900
vn -0.081700 0.979000 -0.186900
vn -0.497800 0.579200 -0.645500
vn -0.258200 0.965800 -0.022900
vn -0.031600 0.985500 0.166700
vn -0.257800 0.965200 0.044800
vn -0.128600 0.978800 -0.159500
vn 0.030300 0.985800 -0.165100
vn 0.173000 0.979300 -0.104700
vn 0.219300 0.967800 0.123500
vn 0.696100 0.641200 -0.322900
vn 0.079700 0.962300 -0.260000
vn 0.367300 0.551600 -0.748800
vn -0.095600 0.990500 -0.098600
vn 0.202600 0.979200 -0.007700
vn 0.087400 0.991200 0.099100
vn -0.211400 0.977400 0.006200
vn -0.083600 0.963000 0.256100
vn -0.141400 0.984900 0.099900
vn -0.116900 0.982200 -0.147200
vn 0.174000 0.982000 -0.073800
vn 0.113000 0.957400 -0.265800
vn 0.247700 0.964500 0.092000
vn 0.082400 0.958600 0.272500
vn 0.690900 0.551700 0.467200
vn -0.723800 0.559200 0.404300
vn -0.156400 0.985000 0.073400
vn -0.144900 0.728400 0.669700
vn -0.094900 0.980600 -0.171300
vn 0.105100 0.722000 -0.683900
vn 0.180700 0.982300 -0.049900
vn 0.145400 0.954300 -0.261100
vn 0.235800 0.966600 0.100100
vn 0.041200 0.962000 0.269800
vn -0.738900 0.670800 0.064000
vn -0.170000 0.985300 0.014700
vn -0.427900 0.653900 0.624000
vn -0.054400 0.978900 -0.197200
vn 0.180500 0.983500 -0.010900
vn 0.196700 0.957600 -0.210300
vn 0.195100 0.968400 0.155600
vn -0.027100 0.962400 0.270300
vn -0.488100 0.628600 0.605500
vn -0.509300 0.610400 -0.606700
vn -0.832300 -0.396500 -0.387400
vn -0.421700 -0.757600 0.498200
vn -0.017500 0.987200 -0.158700
vn 0.286900 0.715100 0.637500
vn -0.008900 0.835400 0.549600
vn 0.010200 0.707700 0.706500
vn 0.002700 1.000000 -0.008100
vn -0.543600 0.822500 -0.167300
vn -0.488200 0.628600 0.605400
vn -0.596600 0.603200 0.529400
vn -0.509300 0.610300 -0.606700
vn 0.003500 -0.704900 0.709300
vn 0.017500 -0.268700 -0.963100
vn -0.007100 -0.706500 0.707700
vn -0.036800 -0.999300 -0.006000
vn -0.917200 -0.245300 0.314100
vn -0.832300 -0.396600 -0.387400
vn -0.008900 0.835300 0.549700
vn 0.010100 0.707700 0.706500
vn -0.007200 -0.706500 0.707600
vn -0.488200 0.628600 0.605500
vn -0.421800 -0.757600 0.498200
vn -0.488500 0.868600 -0.082700
vn 0.615300 0.680200 0.398400
vn 0.712500 -0.551600 -0.433600
vn 0.373400 0.504700 -0.778400
vn 0.905800 -0.355600 -0.230400
vn 0.532700 -0.487000 -0.692200
vn 0.480600 0.868500 -0.121400
vn 0.615300 0.680100 0.398500
vn 0.586600 0.499300 -0.637600
vn -0.868200 -0.080300 -0.489700
vn 0.020200 -0.433800 -0.900800
vn 0.678100 -0.339400 0.651900
vn -0.022100 0.751400 0.659500
vn -0.473600 -0.714900 0.514400
vn -0.473600 -0.715000 0.514300
vn -0.874000 0.104400 -0.474600
vn -0.353600 -0.533900 -0.768100
vn -0.353700 -0.533800 -0.768100
vn 0.437000 -0.764100 -0.474600
vn -0.473600 -0.714900 0.514300
vn 0.874000 -0.104400 0.474500
vn -0.408700 -0.816300 0.408200
vn 0.408700 0.816300 -0.408100
vn -0.407200 0.408400 -0.816900
vn -0.578000 0.577100 0.577000
vn 0.473700 0.714900 -0.514400
vn 0.618000 -0.409500 -0.671100
vn -0.566300 -0.548200 0.615400
vn -0.763700 -0.490400 -0.419900
vn -0.642900 0.294400 0.707100
vn -0.617600 -0.396700 0.679100
vn 0.556600 -0.561400 -0.612400
vn -0.763600 -0.490500 -0.419900
vn 0.556600 -0.561500 -0.612300
vn 0.642900 -0.294500 -0.707100
vn 0.278300 -0.740000 0.612400
vn -0.763600 -0.490400 -0.419900
vn -0.617600 -0.396600 0.679100
vn -0.436700 -0.760700 0.480200
vn -0.345000 -0.646100 0.680800
vn 0.353900 -0.617500 -0.702400
vn 0.879200 -0.217300 0.424000
vn -0.345100 -0.646000 0.680900
vn 0.823600 -0.348800 0.447200
vn 0.651200 -0.275500 -0.707100
vn 0.353600 -0.533800 0.768100
vn 0.334200 0.666500 -0.666500
vn -0.816300 0.408400 -0.408400
vn 0.816000 -0.366300 0.447200
vn 0.279700 -0.738800 0.613200
vn -0.644800 0.290200 0.707100
vn -0.617800 -0.399300 0.677400
vn 0.757200 -0.509600 -0.408600
vn -0.356400 -0.529900 0.769500
vn -0.828400 -0.337400 0.447200
vn 0.437000 -0.765900 0.471700
vn -0.356300 -0.530000 0.769500
vn 0.874000 -0.116600 -0.471800
vn -0.765600 -0.004000 0.643300
vn -0.650300 0.399700 -0.646100
vn -0.569500 0.758000 0.317800
vn 0.612300 0.721100 -0.324200
vn -0.350800 0.526500 -0.774400
vn 0.369000 0.497400 0.785100
vn 0.857100 -0.293500 0.423400
vn 0.344800 -0.645700 -0.681400
vn 0.344800 -0.645600 -0.681400
vn -0.353600 -0.614900 0.704900
vn -0.881500 -0.211000 -0.422400
vn -0.569500 0.758100 0.317800
vn -0.350800 0.526500 -0.774500
vn -0.881500 -0.211100 -0.422400
vn 0.369000 0.497300 0.785200
vn -0.353700 -0.614800 0.704900
vn 0.857100 -0.293500 0.423300
vn 0.907600 0.413000 -0.076000
vn 0.259000 0.488900 -0.833000
vn 0.004200 1.000000 0.002000
vn -0.471000 0.575400 -0.668700
vn -0.252100 0.480900 0.839700
vn 0.470800 0.578600 0.666000
vn -0.471100 0.575400 -0.668600
vn 0.003400 1.000000 -0.000200
vn -0.158800 0.432200 0.887700
vn 0.866000 0.465900 -0.181700
vn 0.163400 0.420400 -0.892500
vn 0.142200 0.492100 -0.858900
vn 0.000000 1.000000 0.001800
vn -0.880400 0.432700 0.194200
vn 0.040700 0.999200 -0.000000
vn 0.704600 0.562600 0.432600
vn -0.839200 0.514100 0.177600
vn 0.034900 0.999400 -0.000600
vn -0.143000 0.436400 0.888300
vn 0.041000 0.999200 0.002800
vn -0.875700 0.475600 0.083300
vn -0.233300 0.493900 0.837700
vn -0.443800 0.601400 -0.664300
vn -0.437000 0.764100 0.474500
vn 0.473600 0.714900 -0.514400
vn -0.566400 -0.548200 0.615400
vn -0.437000 0.764000 0.474700
vn -0.283200 -0.735700 -0.615300
vn 0.464200 -0.723600 -0.510800
vn -0.856500 -0.292300 -0.425400
vn -0.345000 -0.646000 0.680900
vn 0.879200 -0.217300 0.424100
vn 0.823700 -0.348700 0.447200
vn 0.645200 -0.289400 -0.707100
vn 0.344700 -0.645600 -0.681400
vn -0.881500 -0.211000 -0.422300
usemtl Model001_Material001.038
s 1
f 1/1/1 2/2/2 3/3/3
f 4/4/4 1/1/1 3/3/3
f 5/5/5 6/6/1 7/7/6
f 8/1/7 9/3/8 10/2/9
f 9/3/8 8/1/7 11/4/10
f 12/1/11 13/2/12 14/3/13
f 15/8/14 16/9/15 17/10/16
f 15/8/14 17/10/16 18/11/17
f 19/12/16 20/13/18 21/14/17
f 22/15/19 21/14/17 20/13/18
f 23/3/20 24/1/21 25/4/18
f 26/14/22 27/15/23 28/13/21
f 29/1/24 30/2/25 31/3/26
f 31/3/26 32/4/19 29/1/24
f 33/6/27 34/5/18 35/16/28
f 34/5/18 33/6/27 36/7/19
f 37/17/29 38/18/30 39/19/31
f 37/17/29 40/20/32 38/18/30
f 38/18/30 40/20/32 41/21/33
f 42/22/34 43/23/33 44/24/32
f 43/23/33 42/22/34 45/25/35
f 46/26/29 47/27/36 48/28/37
f 47/27/36 46/26/29 49/29/38
f 50/30/31 49/29/38 46/26/29
f 49/29/38 50/30/31 51/31/39
f 51/31/39 50/30/31 52/32/40
f 52/32/40 50/30/31 53/33/41
f 43/23/33 52/32/40 53/33/41
f 52/32/40 43/23/33 45/25/35
f 54/18/40 55/17/42 56/19/43
f 55/17/42 54/18/40 57/20/36
f 54/18/40 58/21/44 57/20/36
f 59/34/45 60/35/46 61/36/47
f 60/35/46 59/34/45 62/37/48
f 63/38/49 64/39/50 65/40/51
f 66/41/48 67/42/52 68/43/53
f 69/12/54 70/15/55 71/14/56
f 70/15/55 69/12/54 72/13/57
f 73/1/58 74/3/59 75/2/60
f 74/3/59 73/1/58 76/4/61
f 77/10/62 78/11/63 79/8/64
f 79/8/64 80/9/65 77/10/62
f 81/12/66 82/15/67 83/14/63
f 82/15/67 81/12/66 84/13/68
f 85/3/66 86/1/69 87/4/68
f 86/1/69 85/3/66 88/2/70
f 89/1/71 90/2/64 91/3/72
f 89/1/71 91/3/72 92/4/73
f 93/7/67 94/16/74 95/6/75
f 94/16/74 93/7/67 96/5/76
f 97/12/77 98/13/78 99/14/79
f 100/1/80 101/3/77 102/2/81
f 101/3/77 100/1/80 103/4/82
f 104/6/83 105/5/78 106/16/80
f 105/5/78 104/6/83 107/7/84
f 108/12/85 109/15/86 110/14/87
f 109/15/86 108/12/85 111/13/88
f 112/3/85 113/1/89 114/4/88
f 115/12/90 116/15/91 117/13/92
f 118/1/93 119/2/94 120/3/95
f 121/12/85 122/15/96 123/14/87
f 122/15/96 121/12/85 124/13/97
f 125/15/98 126/12/90 127/14/99
f 128/8/100 129/9/101 130/10/102
f 128/8/100 130/10/102 131/11/103
f 132/12/102 133/13/104 134/14/105
f 135/15/106 134/14/105 133/13/104
f 136/1/107 137/3/108 138/2/109
f 139/1/110 140/3/105 141/4/106
f 140/3/105 139/1/110 142/2/100
f 143/6/111 144/5/112 145/16/107
f 144/5/112 143/6/111 146/7/106
f 147/17/113 148/18/114 149/19/115
f 147/17/113 150/20/116 148/18/114
f 148/18/114 150/20/116 151/21/117
f 152/22/118 153/23/119 154/24/120
f 153/23/119 152/22/118 155/25/121
f 156/27/118 157/26/113 158/29/122
f 157/26/113 156/27/118 159/28/116
f 160/30/123 158/29/122 157/26/113
f 158/29/122 160/30/123 161/31/124
f 162/33/114 163/32/125 160/30/123
f 160/30/123 163/32/125 161/31/124
f 155/25/121 162/33/114 153/23/119
f 162/33/114 155/25/121 163/32/125
f 164/18/126 165/17/127 166/19/128
f 165/17/127 164/18/126 167/20/129
f 164/18/126 168/21/121 167/20/129
f 169/44/130 170/45/131 171/46/132
f 169/44/130 171/46/132 172/47/133
f 173/48/134 169/44/130 172/47/133
f 173/48/134 172/47/133 174/49/135
f 175/50/134 176/51/136 177/52/137
f 176/51/136 175/50/134 178/53/138
f 179/54/139 177/52/137 176/51/136
f 179/54/139 176/51/136 180/55/140
f 181/56/141 179/54/139 180/55/140
f 181/56/141 180/55/140 182/57/142
f 181/56/141 171/46/132 170/45/131
f 171/46/132 181/56/141 182/57/142
f 183/58/143 184/59/144 185/60/145
f 184/59/144 183/58/143 186/61/146
f 185/60/145 187/62/147 188/63/148
f 187/62/147 185/60/145 184/59/144
f 189/64/149 190/65/150 191/66/147
f 189/64/149 191/66/147 192/67/151
f 189/64/149 193/68/152 194/69/153
f 193/68/152 189/64/149 192/67/151
f 194/69/153 195/70/154 196/71/155
f 195/70/154 194/69/153 193/68/152
f 183/58/143 196/71/155 195/70/154
f 183/58/143 195/70/154 186/61/146
f 197/72/156 198/73/157 199/74/158
f 197/72/156 199/74/158 200/75/159
f 197/72/156 201/76/160 202/77/161
f 201/76/160 197/72/156 200/75/159
f 203/78/162 204/79/163 205/80/164
f 203/78/162 205/80/164 206/81/165
f 207/82/166 203/78/162 206/81/165
f 207/82/166 206/81/165 208/83/167
f 207/82/166 209/84/168 210/85/169
f 209/84/168 207/82/166 208/83/167
f 198/73/157 210/85/169 209/84/168
f 198/73/157 209/84/168 199/74/158
f 211/86/170 212/87/171 213/88/172
f 212/87/171 211/86/170 214/89/173
f 215/90/174 213/88/172 212/87/171
f 215/90/174 212/87/171 216/91/175
f 217/92/174 218/93/176 219/94/177
f 218/93/176 217/92/174 220/95/175
f 219/94/177 221/96/178 222/97/179
f 221/96/178 219/94/177 218/93/176
f 223/98/180 222/97/179 221/96/178
f 223/98/180 221/96/178 224/99/181
f 223/98/180 214/89/173 211/86/170
f 214/89/173 223/98/180 224/99/181
f 225/86/182 226/87/183 227/88/184
f 226/87/183 225/86/182 228/89/185
f 227/88/184 229/91/186 230/90/187
f 229/91/186 227/88/184 226/87/183
f 231/94/188 232/92/189 233/95/190
f 231/94/188 233/95/190 234/93/191
f 231/94/188 235/96/192 236/97/193
f 235/96/192 231/94/188 234/93/191
f 236/97/193 237/99/194 238/98/195
f 237/99/194 236/97/193 235/96/192
f 225/86/182 238/98/195 237/99/194
f 225/86/182 237/99/194 228/89/185
f 239/88/196 240/86/197 241/89/198
f 239/88/196 241/89/198 242/87/199
f 243/90/200 239/88/196 242/87/199
f 243/90/200 242/87/199 244/91/201
f 245/92/202 246/93/203 247/94/204
f 246/93/203 245/92/202 248/95/201
f 249/97/205 247/94/204 246/93/203
f 249/97/205 246/93/203 250/96/206
f 251/98/207 249/97/205 250/96/206
f 251/98/207 250/96/206 252/99/208
f 251/98/207 241/89/198 240/86/197
f 241/89/198 251/98/207 252/99/208
f 253/100/209 254/101/210 255/102/211
f 256/103/212 255/102/211 254/101/210
f 255/102/211 256/103/212 257/104/213
f 254/101/210 258/105/214 256/103/212
f 258/105/214 254/101/210 259/106/215
f 260/107/216 257/104/213 256/103/212
f 261/108/217 256/103/212 258/105/214
f 256/103/212 261/108/217 260/107/216
f 260/107/216 262/109/218 257/104/213
f 263/110/219 258/105/214 259/106/215
f 258/105/214 264/111/220 261/108/217
f 264/111/220 258/105/214 263/110/219
f 265/112/221 260/107/216 261/108/217
f 264/111/220 265/112/221 261/108/217
f 262/109/218 260/107/216 266/113/222
f 265/112/221 266/113/222 260/107/216
f 263/110/219 259/106/215 267/114/223
f 268/115/224 263/110/219 267/114/223
f 263/110/219 268/115/224 269/116/225
f 269/116/225 264/111/220 263/110/219
f 265/112/221 264/111/220 270/117/226
f 264/111/220 269/116/225 271/118/227
f 264/111/220 272/119/228 270/117/226
f 272/119/228 264/111/220 271/118/227
f 273/120/130 274/121/229 275/122/131
f 274/121/229 276/123/230 275/122/131
f 274/121/229 273/120/130 277/124/231
f 277/124/231 278/125/232 274/121/229
f 279/126/233 280/127/234 281/128/235
f 282/129/236 280/127/234 279/126/233
f 279/126/233 283/130/237 282/129/236
f 280/127/234 282/129/236 284/131/238
f 285/132/239 286/133/240 287/134/241
f 287/134/241 288/135/242 285/132/239
f 289/136/243 288/135/242 287/134/241
f 290/137/244 285/132/239 288/135/242
f 285/132/239 290/137/244 291/138/245
f 288/135/242 289/136/243 292/139/246
f 290/137/244 288/135/242 293/140/247
f 293/140/247 288/135/242 292/139/246
f 294/141/248 292/139/246 289/136/243
f 292/139/246 294/141/248 295/142/249
f 295/142/249 293/140/247 292/139/246
f 290/137/244 296/143/250 291/138/245
f 293/140/247 297/144/251 290/137/244
f 296/143/250 290/137/244 297/144/251
f 297/144/251 293/140/247 298/145/252
f 293/140/247 295/142/249 298/145/252
f 299/146/253 291/138/245 296/143/250
f 296/143/250 300/147/254 299/146/253
f 300/147/254 296/143/250 301/148/255
f 297/144/251 301/148/255 296/143/250
f 297/144/251 298/145/252 302/149/256
f 301/148/255 297/144/251 303/150/257
f 303/150/257 297/144/251 302/149/256
f 301/148/255 304/151/258 300/147/254
f 304/151/258 301/148/255 305/152/259
f 303/150/257 305/152/259 301/148/255
f 303/150/257 302/149/256 306/153/260
f 307/154/261 303/150/257 306/153/260
f 305/152/259 303/150/257 307/154/261
f 305/152/259 308/155/236 304/151/258
f 307/154/261 309/156/262 305/152/259
f 308/155/236 305/152/259 309/156/262
f 310/157/263 304/151/258 308/155/236
f 307/154/261 306/153/260 311/158/264
f 307/154/261 312/159/265 309/156/262
f 312/159/265 307/154/261 311/158/264
f 313/160/266 314/161/267 315/162/268
f 314/161/267 313/160/266 316/163/269
f 313/160/266 317/164/248 316/163/269
f 316/163/269 317/164/248 318/165/241
f 318/165/241 319/166/240 316/163/269
f 318/165/241 317/164/248 320/167/270
f 321/168/271 322/169/272 323/170/273
f 322/169/272 321/168/271 324/171/274
f 325/172/275 324/171/274 321/168/271
f 325/172/275 321/168/271 326/173/276
f 327/174/277 325/172/275 326/173/276
f 327/174/277 326/173/276 328/175/278
f 329/176/279 327/174/277 328/175/278
f 327/174/277 329/176/279 330/177/280
f 331/178/281 330/177/280 329/176/279
f 330/177/280 331/178/281 332/179/282
f 333/180/283 332/179/282 331/178/281
f 333/180/283 331/178/281 334/181/284
f 335/182/285 336/183/286 337/184/287
f 338/185/288 335/182/285 337/184/287
f 338/185/288 337/184/287 339/186/282
f 340/187/289 339/186/282 337/184/287
f 339/186/282 341/188/283 338/185/288
f 342/189/290 338/185/288 341/188/283
f 339/186/282 340/187/289 343/190/291
f 344/191/292 343/190/291 340/187/289
f 343/190/291 344/191/292 345/192/277
f 346/193/293 345/192/277 344/191/292
f 345/192/277 346/193/293 347/194/294
f 348/195/295 347/194/294 346/193/293
f 347/194/294 348/195/295 349/196/296
f 350/197/297 349/196/296 348/195/295
f 349/196/296 350/197/297 351/198/298
f 352/197/299 353/196/300 354/198/273
f 353/196/300 352/197/299 355/195/301
f 355/195/301 356/194/302 353/196/300
f 356/194/302 355/195/301 357/193/303
f 357/193/303 358/192/278 356/194/302
f 358/192/278 357/193/303 359/191/304
f 360/190/279 358/192/278 359/191/304
f 360/190/279 359/191/304 361/187/305
f 362/186/281 360/190/279 361/187/305
f 362/186/281 361/187/305 363/184/306
f 364/199/307 362/186/281 363/184/306
f 365/188/284 362/186/281 364/199/307
f 363/184/306 366/183/308 364/199/307
f 365/188/284 364/199/307 367/189/309
f 368/182/310 364/199/307 366/183/308
f 369/200/301 370/201/299 371/202/311
f 371/202/311 372/203/312 369/200/301
f 373/204/293 369/200/301 372/203/312
f 369/200/301 373/204/293 374/205/303
f 375/206/292 374/205/303 373/204/293
f 374/205/303 375/206/292 376/207/313
f 375/206/292 377/208/305 376/207/313
f 375/206/292 378/209/289 377/208/305
f 378/209/289 379/210/314 377/208/305
f 378/209/289 380/211/315 379/210/314
f 381/212/316 379/210/314 380/211/315
f 379/210/314 381/212/316 382/213/308
f 383/214/317 384/215/211 385/216/318
f 383/214/317 386/217/319 384/215/211
f 383/214/317 387/218/320 386/217/319
f 386/217/319 388/219/321 384/215/211
f 389/168/322 390/169/323 391/170/324
f 392/174/325 393/172/326 394/173/327
f 392/174/325 394/173/327 395/175/328
f 396/176/329 392/174/325 395/175/328
f 392/174/325 396/176/329 397/177/330
f 398/178/331 397/177/330 396/176/329
f 397/177/330 398/178/331 399/179/332
f 400/180/333 399/179/332 398/178/334
f 401/220/335 402/221/336 403/100/337
f 401/220/335 403/100/337 404/101/222
f 405/106/221 401/220/335 404/101/222
f 401/220/335 405/106/221 406/222/330
f 407/114/338 406/222/330 405/106/221
f 406/222/330 407/114/338 408/223/339
f 409/115/340 408/223/339 407/114/338
f 408/223/339 409/115/340 410/224/326
f 410/224/326 409/115/340 411/225/341
f 411/225/341 412/226/342 410/224/326
f 412/226/342 411/225/341 413/227/343
f 413/227/343 414/228/344 412/226/342
f 414/228/344 413/227/343 415/229/345
f 414/228/344 416/230/346 412/226/342
f 416/230/346 417/231/323 412/226/342
f 418/232/331 419/233/321 420/234/319
f 419/233/321 418/232/331 421/235/347
f 422/236/348 421/235/347 418/232/331
f 421/235/347 422/236/348 423/237/349
f 424/36/350 423/237/349 422/236/348
f 424/36/350 422/236/348 425/35/328
f 426/34/224 424/36/350 425/35/328
f 426/34/224 425/35/328 427/37/327
f 428/238/351 426/34/224 427/37/327
f 429/239/322 430/240/352 431/241/353
f 432/242/354 433/243/355 434/244/356
f 433/243/355 435/245/227 434/244/356
f 433/243/355 436/246/340 435/245/227
f 433/243/355 437/247/341 436/246/340
f 438/248/357 439/249/358 440/250/359
f 441/251/360 442/252/361 443/253/362
f 442/252/361 441/251/360 444/254/363
f 445/9/364 446/11/365 447/8/366
f 446/11/365 445/9/364 448/10/367
f 449/12/368 450/13/369 451/14/370
f 451/14/370 450/13/369 452/15/371
f 453/10/372 454/11/373 455/8/374
f 455/8/374 456/9/375 453/10/372
f 457/12/376 458/15/377 459/14/378
f 458/15/377 457/12/376 460/13/379
f 461/3/380 462/1/381 463/4/379
f 464/15/382 465/12/383 466/14/384
f 467/6/385 468/5/386 469/16/381
f 468/5/386 467/6/385 470/7/387
f 471/9/388 472/11/3 473/8/2
f 472/11/3 471/9/388 474/10/389
f 276/123/230 274/121/229 278/125/232
f 475/255/390 276/123/230 278/125/232
f 277/124/231 476/256/391 278/125/232
f 475/255/390 278/125/232 476/256/391
f 477/257/392 476/256/391 277/124/231
f 273/120/130 477/257/392 277/124/231
f 477/257/392 273/120/130 478/258/393
f 476/256/391 477/257/392 479/259/394
f 478/258/393 479/259/394 477/257/392
f 476/256/391 480/260/137 475/255/390
f 480/260/137 476/256/391 479/259/394
f 478/258/393 480/260/137 479/259/394
f 481/261/395 482/262/145 483/263/148
f 484/264/149 481/261/395 483/263/148
f 482/262/145 481/261/395 485/265/396
f 486/266/143 482/262/145 485/265/396
f 481/261/395 487/267/397 485/265/396
f 486/266/143 485/265/396 487/267/397
f 487/267/397 481/261/395 488/268/398
f 481/261/395 489/269/399 488/268/398
f 489/269/399 481/261/395 490/270/400
f 481/261/395 484/264/149 490/270/400
f 487/267/397 491/271/155 486/266/143
f 491/271/155 487/267/397 488/268/398
f 489/269/399 491/271/155 488/268/398
f 490/270/400 492/272/401 489/269/399
f 491/271/155 489/269/399 492/272/401
f 492/272/401 490/270/400 484/264/149
f 493/273/156 494/274/402 495/275/403
f 496/276/169 495/275/403 494/274/402
f 494/274/402 493/273/156 497/277/404
f 497/277/404 498/278/405 494/274/402
f 496/276/169 494/274/402 498/278/405
f 498/278/405 499/279/166 496/276/169
f 497/277/404 500/280/406 498/278/405
f 499/279/166 498/278/405 500/280/406
f 500/280/406 497/277/404 501/281/407
f 493/273/156 501/281/407 497/277/404
f 493/273/156 502/282/163 501/281/407
f 500/280/406 501/281/407 503/283/408
f 503/283/408 499/279/166 500/280/406
f 502/282/163 503/283/408 501/281/407
f 503/283/408 502/282/163 504/284/162
f 499/279/166 503/283/408 504/284/162
f 505/285/174 506/286/177 507/287/409
f 508/288/179 507/287/409 506/286/177
f 507/287/409 509/289/410 505/285/174
f 509/289/410 510/290/172 505/285/174
f 507/287/409 511/291/411 509/289/410
f 510/290/172 509/289/410 512/292/412
f 509/289/410 511/291/411 512/292/412
f 511/291/411 507/287/409 513/293/413
f 507/287/409 508/288/179 514/294/414
f 507/287/409 514/294/414 513/293/413
f 512/292/412 511/291/411 515/295/170
f 513/293/413 515/295/170 511/291/411
f 515/295/170 510/290/172 512/292/412
f 514/294/414 516/296/415 513/293/413
f 515/295/170 513/293/413 516/296/415
f 516/296/415 514/294/414 508/288/179
f 517/297/182 518/298/416 519/299/417
f 520/300/418 519/299/417 518/298/416
f 517/297/182 519/299/417 521/301/419
f 521/301/419 522/302/420 517/297/182
f 519/299/417 523/303/421 521/301/419
f 521/301/419 523/303/421 524/304/422
f 522/302/420 521/301/419 524/304/422
f 523/303/421 519/299/417 525/305/423
f 525/305/423 519/299/417 526/306/424
f 519/299/417 520/300/418 526/306/424
f 525/305/423 527/307/193 523/303/421
f 527/307/193 524/304/422 523/303/421
f 527/307/193 522/302/420 524/304/422
f 526/306/424 528/308/188 525/305/423
f 527/307/193 525/305/423 528/308/188
f 528/308/188 526/306/424 520/300/418
f 529/309/202 530/310/425 531/311/426
f 532/312/427 531/311/426 530/310/425
f 529/309/202 531/311/426 533/313/428
f 533/313/428 534/314/196 529/309/202
f 531/311/426 535/315/429 533/313/428
f 534/314/196 533/313/428 536/316/430
f 533/313/428 535/315/429 536/316/430
f 535/315/429 531/311/426 537/76/431
f 531/311/426 532/312/427 538/317/432
f 537/76/431 531/311/426 538/317/432
f 539/318/197 536/316/430 535/315/429
f 537/76/431 539/318/197 535/315/429
f 539/318/197 534/314/196 536/316/430
f 538/317/432 540/319/207 537/76/431
f 539/318/197 537/76/431 540/319/207
f 540/319/207 538/317/432 532/312/427
f 541/320/433 542/321/434 543/322/435
f 541/320/433 543/322/435 544/323/436
f 545/239/437 546/324/438 547/325/234
f 546/324/438 545/239/437 548/326/439
f 545/239/437 549/232/249 548/326/439
f 550/235/440 548/326/439 549/232/249
f 549/232/249 551/327/441 550/235/440
f 549/232/249 552/234/442 551/327/441
f 553/328/443 550/235/440 551/327/441
f 551/327/441 552/234/442 554/329/444
f 555/330/445 553/328/443 551/327/441
f 556/331/446 557/332/237 558/333/233
f 557/332/237 556/331/446 559/334/447
f 556/331/446 560/335/239 559/334/447
f 560/335/239 556/331/446 561/336/448
f 562/337/449 560/335/239 561/336/448
f 563/338/240 560/335/239 562/337/449
f 561/336/448 564/339/436 562/337/449
f 562/337/449 565/340/450 563/338/240
f 562/337/449 564/339/436 566/341/451
f 566/341/451 567/342/267 562/337/449
f 567/342/267 565/340/450 562/337/449
f 568/343/446 569/344/233 570/198/235
f 570/198/235 571/196/452 568/343/446
f 572/186/453 568/343/446 571/196/452
f 568/343/446 572/186/453 573/345/454
f 574/188/455 573/345/454 572/186/453
f 573/345/454 574/188/455 575/346/456
f 576/347/441 577/348/457 578/349/434
f 576/347/441 579/350/266 577/348/457
f 314/161/267 542/321/434 315/162/268
f 542/321/434 314/161/267 543/322/435
f 580/351/458 581/352/459 582/353/460
f 581/352/459 580/351/458 583/354/310
f 584/355/310 585/356/461 586/357/307
f 585/356/461 587/358/462 586/357/307
f 588/359/288 589/356/463 590/355/464
f 588/359/288 591/358/465 589/356/463
f 592/360/461 580/351/458 593/361/463
f 583/354/310 580/351/458 592/360/461
f 594/362/465 595/363/283 596/364/284
f 594/362/465 596/364/284 597/365/309
f 594/362/465 592/360/461 593/361/463
f 592/360/461 594/362/465 597/365/309
f 440/250/359 439/249/358 441/251/360
f 439/249/358 444/254/363 441/251/360
f 393/172/326 598/171/342 389/168/322
f 394/173/327 398/178/334 393/172/326
f 399/179/332 393/172/326 398/178/334
f 400/180/333 398/178/334 599/181/466
f 418/232/334 426/34/224 421/235/347
f 426/34/224 418/232/334 427/37/467
f 427/37/327 429/239/322 428/238/351
f 431/241/353 428/238/351 429/239/322
f 600/366/468 431/241/353 430/240/352
f 429/239/322 601/367/363 430/240/352
f 429/239/322 602/325/324 601/367/363
f 433/243/355 603/368/469 437/247/341
f 603/368/469 433/243/355 604/369/353
f 604/369/353 605/370/357 603/368/469
f 605/370/357 604/369/353 606/371/468
f 439/249/358 438/248/357 607/372/468
f 608/3/367 609/1/470 610/4/369
f 611/13/471 612/14/472 613/15/473
f 614/6/474 615/7/475 616/16/476
f 617/5/477 616/16/476 615/7/475
f 465/12/383 464/15/382 618/13/478
f 619/3/479 620/4/480 621/1/481
f 619/3/479 621/1/481 622/2/374
f 623/12/389 624/13/5 625/14/482
f 625/14/482 624/13/5 626/15/483
f 6/6/1 5/5/5 627/16/484
f 628/12/8 629/13/485 630/14/486
f 630/14/486 629/13/485 631/15/487
f 632/1/488 633/3/8 634/2/9
f 633/3/8 632/1/488 635/4/489
f 636/14/12 637/13/490 638/12/491
f 637/13/490 636/14/12 639/15/492
f 640/6/492 641/5/493 642/16/488
f 641/5/493 640/6/492 643/7/494
f 644/14/12 645/13/7 646/12/491
f 645/13/7 644/14/12 647/15/11
f 14/3/13 648/4/495 12/1/11
f 26/14/22 28/13/21 649/12/15
f 63/38/49 65/40/51 650/373/496
f 651/34/497 652/36/498 653/35/499
f 654/14/500 655/13/58 656/12/501
f 657/3/56 658/4/55 659/1/502
f 660/16/58 661/7/55 662/5/61
f 663/15/503 664/12/70 665/14/504
f 664/12/70 663/15/503 666/13/74
f 667/13/80 668/14/505 669/15/506
f 670/1/83 671/2/505 672/3/507
f 672/3/507 673/4/508 670/1/83
f 674/5/88 675/16/89 676/7/509
f 675/16/89 677/6/93 676/7/509
f 678/1/510 679/3/85 680/2/511
f 679/3/85 678/1/510 681/4/512
f 126/12/90 125/15/98 682/13/513
f 683/1/98 684/2/94 685/3/95
f 685/3/95 686/4/96 683/1/98
f 687/5/512 688/6/98 689/7/514
f 688/6/98 687/5/512 690/16/510
f 691/14/515 692/15/516 693/13/107
f 691/14/515 693/13/107 694/12/101
f 695/34/517 696/35/518 697/36/519
f 698/38/518 699/39/520 700/40/521
f 698/38/518 700/40/521 701/373/522
f 702/35/523 703/34/524 704/36/525
f 705/374/526 706/375/527 707/376/528
f 708/41/529 709/42/530 710/43/531
f 171/46/532 172/47/533 711/56/534
f 178/53/535 176/51/136 711/56/534
f 180/55/536 182/57/537 711/56/534
f 172/47/533 174/49/538 711/56/534
f 176/51/136 180/55/536 711/56/534
f 182/57/537 171/46/532 711/56/534
f 186/61/146 184/59/144 712/71/539
f 191/66/540 192/67/151 712/71/539
f 193/68/541 195/70/542 712/71/539
f 184/59/144 187/62/147 712/71/539
f 192/67/151 193/68/541 712/71/539
f 195/70/542 186/61/146 712/71/539
f 199/74/543 200/75/159 713/85/544
f 205/80/545 206/81/165 713/85/544
f 208/83/167 209/84/168 713/85/544
f 200/75/159 201/76/164 713/85/544
f 206/81/165 208/83/167 713/85/544
f 209/84/168 199/74/543 713/85/544
f 214/89/173 212/87/171 714/98/546
f 220/95/175 218/93/176 714/98/546
f 221/96/178 224/99/547 714/98/546
f 212/87/171 216/91/175 714/98/546
f 218/93/176 221/96/178 714/98/546
f 224/99/547 214/89/173 714/98/546
f 228/89/185 226/87/548 715/98/549
f 233/95/190 234/93/191 715/98/549
f 235/96/192 237/99/194 715/98/549
f 226/87/548 229/91/550 715/98/549
f 234/93/191 235/96/192 715/98/549
f 237/99/194 228/89/185 715/98/549
f 241/89/198 242/87/199 716/98/551
f 248/95/201 246/93/552 716/98/551
f 250/96/553 252/99/208 716/98/551
f 242/87/199 244/91/554 716/98/551
f 246/93/552 250/96/553 716/98/551
f 252/99/208 241/89/198 716/98/551
f 717/377/272 718/378/297 719/379/299
f 717/377/272 719/379/299 720/380/273
f 400/180/336 394/173/327 599/181/319
f 394/173/327 400/180/336 393/172/326
f 393/172/326 389/168/322 394/173/467
f 390/169/323 389/168/322 598/171/342
f 609/1/470 608/3/367 721/2/364
f 612/14/472 611/13/471 722/12/555
f 723/1/474 724/2/472 725/3/556
f 725/3/556 726/4/475 723/1/474
f 462/1/381 461/3/380 727/2/383
f 728/1/557 729/3/389 730/2/558
f 729/3/389 728/1/557 731/4/5
f 732/14/2 733/13/557 734/12/558
f 733/13/557 732/14/2 735/15/559
f 736/1/492 737/2/12 738/3/13
f 738/3/13 739/4/494 736/1/492
f 740/12/8 741/13/10 742/14/486
f 742/14/486 741/13/10 743/15/495
f 744/7/495 745/16/560 746/6/11
f 745/16/560 744/7/495 747/5/10
f 24/1/21 23/3/20 748/2/15
f 653/35/499 749/37/561 651/34/497
f 750/374/45 751/375/47 752/376/498
f 750/374/45 752/376/498 753/381/52
f 754/382/562 755/383/47 756/384/49
f 755/383/47 754/382/562 757/385/563
f 67/42/52 66/41/48 758/386/45
f 655/13/58 654/14/500 759/15/502
f 659/1/502 760/2/564 657/3/56
f 661/7/55 660/16/58 761/6/502
f 99/14/79 98/13/78 762/15/84
f 668/14/505 667/13/80 763/12/565
f 113/1/89 112/3/85 764/2/511
f 116/15/91 115/12/90 765/14/99
f 120/3/95 766/4/509 118/1/93
f 137/3/108 136/1/107 767/4/104
f 696/35/518 695/34/517 768/37/529
f 703/34/524 702/35/523 769/37/531
f 705/374/526 707/376/528 770/381/530
f 771/382/566 772/383/527 773/384/518
f 772/383/527 771/382/566 774/385/567
f 709/42/530 708/41/529 775/386/517
