# 3ds Max Wavefront OBJ Exporter v0.97b - (c)2007 guruware
# File Created: 17.05.2017 01:33:28

mtllib sandbags3.mtl

#
# object Mesh_807
#

v  -2.0268 -0.0624 0.4286
v  -2.2148 0.1559 0.0180
v  -2.0255 -0.1574 0.0137
v  -2.0413 -0.0624 -0.4009
v  -2.0683 0.3960 0.4293
v  -2.2481 0.1526 0.8229
v  -2.0421 0.1668 0.7433
v  -1.1510 -0.0106 0.4913
v  -1.0842 0.2623 0.8234
v  -1.0290 0.5352 0.4891
v  -2.0841 0.4910 0.0147
v  -2.1556 0.1590 0.4308
v  -2.0827 0.3960 -0.4002
v  -2.1701 0.1592 -0.3987
v  -1.0123 0.6482 -0.0039
v  -0.1183 0.4958 -0.0195
v  -0.1216 0.4009 0.3955
v  -0.1414 0.1721 0.7102
v  -0.1723 -0.0568 0.3963
v  0.0668 0.1548 0.7826
v  -2.2761 0.1526 -0.7965
v  -0.0390 0.1626 0.3940
v  0.0057 0.1587 -0.0206
v  -0.1899 -0.1516 -0.0182
v  -0.1867 -0.0568 -0.4332
v  -0.0534 0.1629 -0.4355
v  0.0386 0.1548 -0.8367
v  -0.1360 0.4009 -0.4341
v  -1.0461 0.5352 -0.4961
v  -2.0675 0.1668 -0.7149
v  -0.1668 0.1721 -0.7480
v  -1.1129 0.2623 -0.8283
v  -1.1681 -0.0106 -0.4940
v  2.0827 0.4958 0.0315
v  1.1657 0.5352 0.5286
v  2.0742 0.4010 0.4463
v  0.1166 0.4910 0.0410
v  1.1886 0.6482 0.0358
v  0.1424 0.1668 -0.6884
v  1.1610 0.5352 -0.4568
v  1.0984 0.2623 -0.7898
v  0.1232 0.3960 -0.3739
v  -0.0141 0.1559 0.0426
v  0.1272 0.3960 0.4557
v  1.1063 0.2623 0.8622
v  2.0504 0.1721 0.7608
v  2.2577 0.1548 0.8359
v  0.0399 0.1590 0.4562
v  -0.0651 0.1526 -0.7726
v  0.0359 0.1592 -0.3735
v  0.1647 -0.0624 -0.3741
v  0.1753 -0.1574 0.0407
v  0.1687 -0.0624 0.4555
v  -0.0575 0.1526 0.8470
v  0.1495 0.1668 0.7700
v  1.0437 -0.0106 0.5292
v  2.0235 -0.0568 0.4466
v  2.1568 0.1626 0.4459
v  2.2067 0.1587 0.0319
v  2.0702 0.4010 -0.3833
v  2.0110 -0.1516 0.0318
v  2.0195 -0.0568 -0.3831
v  2.1528 0.1629 -0.3837
v  2.2498 0.1548 -0.7837
v  2.0434 0.1721 -0.6976
v  1.0390 -0.0106 -0.4562
v  -0.1010 0.4656 -0.4178
v  0.0582 0.6839 0.0048
v  -0.1310 0.3706 -0.0040
v  -0.1439 0.4656 0.4107
v  -0.0595 0.9240 -0.4157
v  0.1470 0.6806 -0.7959
v  -0.0639 0.6948 -0.7307
v  -0.9704 0.5174 -0.5409
v  -1.0140 0.7903 -0.8769
v  -1.0922 1.0632 -0.5472
v  -0.0724 1.0190 -0.0010
v  0.0277 0.6870 -0.4112
v  -0.1025 0.9240 0.4129
v  -0.0153 0.6872 0.4174
v  -1.1430 1.1762 -0.0565
v  -2.0359 1.0238 -0.1028
v  -2.0039 0.9289 -0.5165
v  -1.9623 0.7001 -0.8292
v  -1.9533 0.4712 -0.5139
v  -2.1651 0.6828 -0.9158
v  0.0630 0.6806 0.8215
v  -2.0864 0.6906 -0.5208
v  -2.1597 0.6867 -0.1103
v  -1.9643 0.3764 -0.0991
v  -1.9963 0.4712 0.3146
v  -2.1294 0.6909 0.3077
v  -2.2489 0.6828 0.7016
v  -2.0469 0.9289 0.3120
v  -1.1433 1.0632 0.4368
v  -0.1395 0.6948 0.7258
v  -2.0379 0.7001 0.6273
v  -1.0996 0.7903 0.7728
v  -1.0214 0.5174 0.4432
v  1.8385 0.4656 0.3840
v  2.0398 0.6839 -0.0223
v  1.9671 0.6872 0.3904
v  1.8507 0.3706 -0.0308
v  1.8800 0.4656 -0.4446
v  2.0086 0.6870 -0.4382
v  1.9164 0.6948 -0.7576
v  2.1273 0.6806 -0.8231
v  1.9214 0.9240 -0.4426
v  1.9092 1.0190 -0.0278
v  1.8799 0.9240 0.3860
v  2.0461 0.6806 0.7944
v  1.8435 0.6948 0.6990
v  0.8392 1.0632 0.4119
v  0.8834 0.7903 0.7478
v  0.8386 1.1762 -0.0815
v  0.8885 1.0632 -0.5723
v  0.9661 0.7903 -0.9021
v  1.0103 0.5174 -0.5662
v  -0.0551 0.7001 0.6039
v  -0.0647 0.9289 0.2886
v  -0.0544 1.0238 -0.1262
v  -0.0232 0.9289 -0.5400
v  -0.1782 0.6867 -0.1335
v  -0.1056 0.6906 -0.5441
v  0.0171 0.3764 -0.1226
v  0.0274 0.4712 -0.5375
v  -0.1851 0.6828 -0.9390
v  0.0179 0.7001 -0.8527
v  0.9610 0.5174 0.4180
v  -0.0141 0.4712 0.2912
v  -0.2660 0.6828 0.6786
v  -0.1472 0.6909 0.2845
v  -1.9462 0.8616 0.4109
v  -2.1274 1.0799 -0.0028
v  -1.9381 0.7666 -0.0040
v  -1.9470 0.8616 -0.4188
v  -1.9877 1.3200 0.4109
v  -2.1739 1.0766 0.8015
v  -1.9667 1.0908 0.7252
v  -1.0715 0.9134 0.4879
v  -1.0102 1.1863 0.8211
v  -0.9495 1.4592 0.4878
v  -1.9967 1.4150 -0.0039
v  -2.0751 1.0830 0.4110
v  -1.9885 1.3200 -0.4188
v  -2.0759 1.0832 -0.4187
v  -0.9247 1.5722 -0.0049
v  -0.0306 1.4198 -0.0058
v  -0.0407 1.3249 0.4090
v  -0.0657 1.0961 0.7234
v  -0.0914 0.8672 0.4091
v  0.1413 1.0788 0.7993
v  -2.1753 1.0766 -0.8181
v  0.0419 1.0866 0.4090
v  0.0934 1.0827 -0.0049
v  -0.1023 0.7724 -0.0057
v  -0.0922 0.8672 -0.4206
v  0.0411 1.0869 -0.4207
v  0.1396 1.0788 -0.8204
v  -0.0415 1.3249 -0.4206
v  -0.9505 1.4592 -0.4976
v  -1.9681 1.0908 -0.7332
v  -0.0671 1.0961 -0.7350
v  -1.0118 1.1863 -0.8308
v  -1.0724 0.9134 -0.4975
v  1.9199 1.4198 0.1006
v  0.9720 1.4592 0.5361
v  1.8840 1.3249 0.5140
v  -0.0426 1.4150 -0.0198
v  1.0274 1.5722 0.0458
v  0.0313 1.0908 -0.7459
v  1.0323 1.4592 -0.4475
v  0.9919 1.1863 -0.7839
v  -0.0086 1.3200 -0.4333
v  -0.1731 1.0799 -0.0268
v  -0.0594 1.3200 0.3948
v  0.8907 1.1863 0.8650
v  1.8394 1.0961 0.8262
v  2.0414 1.0788 0.9148
v  -0.1466 1.0830 0.3894
v  -0.1702 1.0766 -0.8435
v  -0.0958 1.0832 -0.4387
v  0.0328 0.8616 -0.4308
v  0.0160 0.7666 -0.0162
v  -0.0180 0.8616 0.3973
v  -0.2695 1.0766 0.7730
v  -0.0580 1.0908 0.7098
v  0.8502 0.9134 0.5286
v  1.8334 0.8672 0.5109
v  1.9664 1.0866 0.5190
v  2.0435 1.0827 0.1092
v  1.9348 1.3249 -0.3141
v  1.8483 0.7724 0.0962
v  1.8842 0.8672 -0.3172
v  2.0172 1.0869 -0.3090
v  2.1404 1.0788 -0.7018
v  1.9287 1.0961 -0.6295
v  0.9106 0.9134 -0.4549
# 198 vertices

vn -0.5685 -0.7638 0.3058
vn -0.9830 -0.1794 0.0395
vn -0.8494 -0.5150 0.1150
vn -0.8532 -0.5145 -0.0853
vn -0.5756 -0.7637 -0.2923
vn -0.5484 0.7809 0.2991
vn -0.6003 -0.0439 0.7986
vn 0.1507 0.0062 0.9886
vn 0.0138 -0.7825 0.6225
vn 0.0741 -0.2768 0.9581
vn -0.1395 0.7782 0.6123
vn 0.0216 0.8964 0.4428
vn -0.5946 0.8040 0.0094
vn -0.9949 -0.0880 -0.0482
vn -0.5594 0.7814 -0.2766
vn -0.9930 -0.0874 0.0799
vn -0.9285 0.3612 -0.0858
vn 0.0151 0.9999 -0.0004
vn 0.6106 0.7919 -0.0102
vn 0.5703 0.7713 0.2826
vn -0.1150 0.0136 0.9933
vn 0.4809 -0.8123 0.3301
vn 0.6268 -0.0536 0.7773
vn -0.6128 -0.0428 -0.7891
vn 0.9908 -0.1073 -0.0826
vn 0.9944 -0.1042 -0.0169
vn 0.8458 -0.5333 -0.0148
vn 0.8431 -0.5309 0.0854
vn 0.5528 -0.7724 -0.3128
vn 0.9933 -0.1066 0.0454
vn 0.5841 -0.0522 -0.8100
vn 0.5651 0.7699 -0.2965
vn 0.0011 0.8994 -0.4372
vn 0.1448 0.0028 -0.9895
vn -0.1720 0.0070 -0.9851
vn -0.0265 0.0386 -0.9989
vn -0.0106 -0.7737 -0.6334
vn 0.6107 0.7919 -0.0025
vn 0.0161 0.8964 0.4431
vn 0.5667 0.7713 0.2897
vn -0.5947 0.8040 0.0019
vn 0.0151 0.9999 -0.0002
vn 0.1572 0.0029 -0.9876
vn 0.0066 0.8994 -0.4371
vn -0.0139 0.0385 -0.9992
vn -0.5559 0.7814 -0.2836
vn -0.9963 -0.0853 0.0052
vn -0.5521 0.7809 0.2922
vn -0.0015 0.0500 0.9987
vn -0.1275 0.0136 0.9918
vn 0.6170 -0.0536 0.7852
vn -0.9943 -0.0880 -0.0607
vn -0.6028 -0.0428 -0.7967
vn -0.9939 -0.0874 0.0674
vn -0.5719 -0.7637 -0.2995
vn -0.8558 -0.5173 0.0040
vn -0.5723 -0.7638 0.2987
vn -0.6103 -0.0439 0.7910
vn 0.1383 0.0062 0.9904
vn 0.0060 -0.7825 0.6226
vn 0.5630 -0.7724 0.2940
vn 0.9917 -0.1073 -0.0702
vn 0.9945 -0.1042 -0.0044
vn 0.5687 0.7699 -0.2893
vn 0.8459 -0.5333 -0.0042
vn 0.5567 -0.7724 -0.3058
vn 0.9926 -0.1066 0.0578
vn 0.5943 -0.0522 -0.8026
vn -0.1596 0.0070 -0.9872
vn -0.0027 -0.7737 -0.6335
vn 0.5882 -0.7638 -0.2658
vn 0.9834 -0.1794 0.0285
vn 0.8554 -0.5150 -0.0560
vn 0.8453 -0.5145 0.1441
vn 0.5540 -0.7637 0.3314
vn 0.5677 0.7809 -0.2604
vn 0.6541 -0.0438 -0.7551
vn -0.0820 0.0062 -0.9966
vn 0.0293 -0.7825 -0.6220
vn -0.0077 -0.2768 -0.9609
vn 0.1815 0.7782 -0.6012
vn 0.0090 0.8963 -0.4433
vn 0.5938 0.8040 0.0317
vn 0.9892 -0.0881 0.1169
vn 0.5389 0.7814 0.3146
vn 0.9961 -0.0873 -0.0111
vn 0.9204 0.3612 0.1498
vn -0.0151 0.9999 -0.0006
vn -0.6098 0.7919 -0.0321
vn -0.5493 0.7713 -0.3213
vn 0.1834 0.0136 -0.9829
vn -0.4569 -0.8123 -0.3625
vn -0.5715 -0.0536 -0.8188
vn 0.5568 -0.0428 0.8296
vn -0.9941 -0.1072 0.0139
vn -0.9932 -0.1042 -0.0519
vn -0.8448 -0.5334 -0.0437
vn -0.8352 -0.5309 -0.1435
vn -0.5731 -0.7724 0.2739
vn -0.9878 -0.1066 -0.1139
vn -0.6387 -0.0522 0.7676
vn -0.5842 0.7700 0.2567
vn -0.0314 0.8994 0.4360
vn -0.2129 0.0029 0.9771
vn 0.1034 0.0070 0.9946
vn -0.0427 0.0385 0.9983
vn -0.0332 -0.7737 0.6327
vn 0.5546 -0.7637 0.3304
vn 0.9951 -0.0853 0.0495
vn 0.9961 -0.0873 -0.0128
vn 0.8547 -0.5174 0.0430
vn 0.5878 -0.7638 -0.2668
vn 0.9553 -0.2384 0.1747
vn -0.0838 0.0062 -0.9965
vn 0.6527 -0.0438 -0.7563
vn 0.5673 0.7809 -0.2614
vn 0.9368 0.3434 -0.0677
vn 0.5939 0.8040 0.0307
vn 0.5395 0.7814 0.3137
vn 0.5582 -0.0428 0.8286
vn -0.2112 0.0028 0.9774
vn -0.0306 0.8994 0.4361
vn -0.0409 0.0386 0.9984
vn 0.0082 0.8964 -0.4433
vn 0.0563 0.0500 -0.9972
vn 0.0282 -0.7825 -0.6220
vn 0.1052 0.0070 0.9944
vn -0.5838 0.7699 0.2577
vn -0.6099 0.7919 -0.0310
vn -0.5499 0.7713 -0.3204
vn -0.9933 -0.1042 -0.0501
vn -0.9941 -0.1073 0.0157
vn -0.8449 -0.5333 -0.0422
vn -0.5460 -0.7724 -0.3245
vn -0.5730 -0.0536 -0.8178
vn 0.1817 0.0136 -0.9833
vn -0.0321 -0.7737 0.6327
vn -0.5726 -0.7724 0.2748
vn -0.6374 -0.0522 0.7688
vn -0.9880 -0.1066 -0.1122
vn -0.5734 -0.7638 0.2965
vn -0.9835 -0.1795 0.0234
vn -0.8512 -0.5150 0.1011
vn -0.8517 -0.5145 -0.0993
vn -0.5707 -0.7637 -0.3017
vn -0.5532 0.7809 0.2900
vn -0.6133 -0.0438 0.7886
vn 0.1344 0.0062 0.9909
vn 0.0036 -0.7825 0.6226
vn 0.0583 -0.2768 0.9592
vn -0.1495 0.7782 0.6100
vn 0.0144 0.8963 0.4431
vn -0.5947 0.8040 -0.0004
vn -0.9940 -0.0881 -0.0645
vn -0.5548 0.7814 -0.2857
vn -0.9941 -0.0874 0.0636
vn -0.9270 0.3612 -0.1010
vn 0.6107 0.7919 -0.0002
vn 0.5655 0.7713 0.2919
vn -0.1313 0.0136 0.9913
vn 0.4754 -0.8123 0.3379
vn 0.6139 -0.0536 0.7875
vn -0.5997 -0.0428 -0.7990
vn 0.9920 -0.1073 -0.0664
vn 0.9946 -0.1042 -0.0006
vn 0.8459 -0.5333 -0.0010
vn 0.8416 -0.5309 0.0993
vn 0.5579 -0.7724 -0.3037
vn 0.9924 -0.1066 0.0617
vn 0.5974 -0.0522 -0.8003
vn 0.5699 0.7699 -0.2871
vn 0.0083 0.8994 -0.4371
vn 0.1611 0.0029 -0.9869
vn -0.1558 0.0070 -0.9878
vn -0.0101 0.0386 -0.9992
vn -0.0002 -0.7737 -0.6335
vn 0.6095 0.7919 0.0378
vn -0.0132 0.8963 0.4432
vn 0.5463 0.7713 0.3265
vn -0.5935 0.8040 -0.0373
vn 0.0151 0.9999 0.0008
vn 0.2221 0.0028 -0.9750
vn 0.0355 0.8994 -0.4357
vn 0.0521 0.0386 -0.9979
vn -0.5360 0.7814 -0.3197
vn -0.9945 -0.0853 -0.0606
vn -0.5702 0.7809 0.2551
vn -0.0675 0.0500 0.9965
vn -0.1927 0.0136 0.9812
vn 0.5637 -0.0536 0.8242
vn -0.9881 -0.0881 -0.1262
vn -0.5489 -0.0428 -0.8348
vn -0.9962 -0.0874 0.0017
vn -0.5509 -0.7637 -0.3366
vn -0.8542 -0.5173 -0.0525
vn -0.5907 -0.7638 0.2602
vn -0.6612 -0.0438 0.7489
vn 0.0726 0.0062 0.9973
vn -0.0351 -0.7825 0.6217
vn 0.5423 -0.7724 0.3306
vn 0.9942 -0.1073 -0.0045
vn 0.9927 -0.1042 0.0613
vn 0.5866 0.7699 -0.2511
vn 0.8443 -0.5333 0.0516
vn 0.5757 -0.7724 -0.2684
vn 0.9866 -0.1066 0.1233
vn 0.6460 -0.0522 -0.7616
vn -0.0940 0.0070 -0.9955
vn 0.0392 -0.7737 -0.6323
# 209 vertex normals

vt 0.8054 -1.7113 0.0000
vt 0.8873 -1.4995 0.0000
vt 0.8054 -1.4989 0.0000
vt 0.8054 -1.2865 0.0000
vt 0.8734 -1.9791 0.0000
vt 0.8054 -1.9338 0.0000
vt 0.4997 -1.7512 0.0000
vt 0.4997 -1.9914 0.0000
vt 0.8844 -1.7113 0.0000
vt 0.8844 -1.2865 0.0000
vt 0.4997 -1.4989 0.0000
vt 0.1940 -1.4989 0.0000
vt 0.1940 -1.7113 0.0000
vt 0.1940 -1.9338 0.0000
vt 0.1260 -1.9791 0.0000
vt 0.8734 -1.0137 0.0000
vt 0.1150 -1.7113 0.0000
vt 0.1121 -1.4995 0.0000
vt 0.1940 -1.2865 0.0000
vt 0.1150 -1.2865 0.0000
vt 0.1260 -1.0137 0.0000
vt 0.4997 -1.2467 0.0000
vt 0.8054 -1.0644 0.0000
vt 0.1940 -1.0644 0.0000
vt 0.4997 -1.0068 0.0000
# 25 texture coords

g Mesh_807
usemtl Tex_0101_0_dds
s 1
f 1/1/1 2/2/2 3/3/3 
s 2
f 3/3/4 2/2/2 4/4/5 
s 3
f 5/1/6 6/5/7 7/6/8 
s 4
f 7/6/8 6/5/7 1/1/1 
s 5
f 8/7/9 7/6/8 1/1/1 
s 6
f 7/6/8 8/7/9 9/8/10 
s 7
f 9/8/10 5/1/6 7/6/8 
s 8
f 5/1/6 9/8/11 10/7/12 
s 9
f 10/7/12 11/3/13 5/1/6 
s 10
f 11/3/13 2/2/2 5/1/6 
s 11
f 12/9/14 5/1/6 2/2/2 
s 12
f 1/1/1 12/9/14 2/2/2 
s 13
f 1/1/1 6/5/7 12/9/14 
s 14
f 6/5/7 5/1/6 12/9/14 
s 15
f 2/2/2 13/4/15 14/10/16 
s 16
f 11/3/13 13/4/15 2/2/17 
s 17
f 15/11/18 13/4/15 11/3/13 
s 18
f 11/3/13 10/7/12 15/11/18 
s 19
f 10/7/12 16/12/19 15/11/18 
s 20
f 16/12/19 10/7/12 17/13/20 
s 21
f 9/8/10 17/13/20 10/7/12 
s 22
f 17/13/20 9/8/10 18/14/21 
s 23
f 8/7/9 18/14/21 9/8/10 
s 24
f 18/14/21 8/7/9 19/13/22 
s 25
f 18/14/21 20/15/23 17/13/20 
s 26
f 13/4/15 21/16/24 14/10/16 
s 27
f 19/13/22 20/15/23 18/14/21 
s 28
f 22/17/25 20/15/23 19/13/22 
s 29
f 22/17/25 17/13/20 20/15/23 
s 30
f 23/18/26 17/13/20 22/17/25 
s 31
f 23/18/26 22/17/25 19/13/22 
s 32
f 24/12/27 23/18/26 19/13/28 
s 33
f 25/19/29 23/18/26 24/12/27 
s 34
f 26/20/30 23/18/26 25/19/29 
s 35
f 27/21/31 26/20/30 25/19/29 
s 36
f 26/20/30 27/21/31 28/19/32 
s 37
f 26/20/30 28/19/32 23/18/26 
s 38
f 17/13/20 23/18/26 16/12/19 
s 39
f 23/18/26 28/19/32 16/12/19 
s 40
f 28/19/32 15/11/18 16/12/19 
s 41
f 15/11/18 28/19/32 29/22/33 
s 42
f 13/4/15 15/11/18 29/22/33 
s 43
f 29/22/33 30/23/34 13/4/15 
s 44
f 30/23/34 21/16/24 13/4/15 
s 45
f 30/23/34 4/4/5 21/16/24 
s 46
f 4/4/5 14/10/16 21/16/24 
s 47
f 4/4/5 2/2/2 14/10/16 
s 48
f 28/19/32 27/21/31 31/24/35 
s 49
f 31/24/35 29/22/33 28/19/32 
s 50
f 29/22/33 31/24/35 32/25/36 
s 51
f 30/23/34 29/22/33 32/25/36 
s 52
f 32/25/36 4/4/5 30/23/34 
s 53
f 4/4/5 32/25/36 33/22/37 
s 54
f 32/25/36 25/19/29 33/22/37 
s 55
f 25/19/29 32/25/36 31/24/35 
s 56
f 27/21/31 25/19/29 31/24/35 
s 113
f 34/12/38 35/7/39 36/13/40 
s 114
f 37/3/41 35/7/39 38/11/42 
s 115
f 39/23/43 40/22/44 41/25/45 
s 116
f 40/22/44 39/23/43 42/4/46 
s 117
f 42/4/46 38/11/42 40/22/44 
s 118
f 38/11/42 42/4/46 37/3/41 
s 119
f 37/3/41 42/4/46 43/2/47 
s 120
f 37/3/41 43/2/47 44/1/48 
s 121
f 35/7/39 37/3/41 44/1/48 
s 122
f 44/1/48 45/8/49 35/7/39 
s 123
f 45/8/49 36/13/40 35/7/39 
s 124
f 36/13/40 45/8/49 46/14/50 
s 125
f 46/14/50 47/15/51 36/13/40 
s 126
f 48/9/52 44/1/48 43/2/47 
s 127
f 39/23/43 49/16/53 42/4/46 
s 128
f 42/4/46 49/16/53 50/10/54 
s 129
f 43/2/47 42/4/46 50/10/54 
s 130
f 51/4/55 43/2/47 50/10/54 
s 131
f 52/3/56 43/2/47 51/4/55 
s 132
f 53/1/57 43/2/47 52/3/56 
s 133
f 53/1/57 48/9/52 43/2/47 
s 134
f 53/1/57 54/5/58 48/9/52 
s 135
f 54/5/58 44/1/48 48/9/52 
s 136
f 44/1/48 54/5/58 55/6/59 
s 137
f 51/4/55 50/10/54 49/16/53 
s 138
f 56/7/60 55/6/59 53/1/57 
s 139
f 55/6/59 54/5/58 53/1/57 
s 140
f 45/8/49 44/1/48 55/6/59 
s 141
f 55/6/59 56/7/60 45/8/49 
s 142
f 56/7/60 46/14/50 45/8/49 
s 143
f 46/14/50 56/7/60 57/13/61 
s 144
f 57/13/61 47/15/51 46/14/50 
s 145
f 58/17/62 47/15/51 57/13/61 
s 146
f 58/17/62 36/13/40 47/15/51 
s 147
f 59/18/63 36/13/40 58/17/62 
s 148
f 36/13/40 59/18/63 34/12/38 
s 149
f 59/18/63 60/19/64 34/12/38 
s 150
f 59/18/63 58/17/62 57/13/61 
s 151
f 61/12/65 59/18/63 57/13/61 
s 152
f 62/19/66 59/18/63 61/12/65 
s 153
f 63/20/67 59/18/63 62/19/66 
s 154
f 63/20/67 60/19/64 59/18/63 
s 155
f 63/20/67 64/21/68 60/19/64 
s 156
f 64/21/68 63/20/67 62/19/66 
s 157
f 64/21/68 62/19/66 65/24/69 
s 158
f 60/19/64 64/21/68 65/24/69 
s 159
f 35/7/39 34/12/38 38/11/42 
s 160
f 60/19/64 38/11/42 34/12/38 
s 161
f 38/11/42 60/19/64 40/22/44 
s 162
f 65/24/69 40/22/44 60/19/64 
s 163
f 40/22/44 65/24/69 41/25/45 
s 164
f 62/19/66 41/25/45 65/24/69 
s 165
f 41/25/45 62/19/66 66/22/70 
s 166
f 51/4/55 41/25/45 66/22/70 
s 167
f 41/25/45 51/4/55 39/23/43 
s 168
f 39/23/43 51/4/55 49/16/53 
s 1
f 67/1/71 68/2/72 69/3/73 
s 2
f 69/3/74 68/2/72 70/4/75 
s 3
f 71/1/76 72/5/77 73/6/78 
s 4
f 73/6/78 72/5/77 67/1/71 
s 5
f 74/7/79 73/6/78 67/1/71 
s 6
f 73/6/78 74/7/79 75/8/80 
s 7
f 75/8/80 71/1/76 73/6/78 
s 8
f 71/1/76 75/8/81 76/7/82 
s 9
f 76/7/82 77/3/83 71/1/76 
s 10
f 77/3/83 68/2/72 71/1/76 
s 11
f 78/9/84 71/1/76 68/2/72 
s 12
f 67/1/71 78/9/84 68/2/72 
s 13
f 67/1/71 72/5/77 78/9/84 
s 14
f 72/5/77 71/1/76 78/9/84 
s 15
f 68/2/72 79/4/85 80/10/86 
s 16
f 77/3/83 79/4/85 68/2/87 
s 17
f 81/11/88 79/4/85 77/3/83 
s 18
f 77/3/83 76/7/82 81/11/88 
s 19
f 76/7/82 82/12/89 81/11/88 
s 20
f 82/12/89 76/7/82 83/13/90 
s 21
f 75/8/80 83/13/90 76/7/82 
s 22
f 83/13/90 75/8/80 84/14/91 
s 23
f 74/7/79 84/14/91 75/8/80 
s 24
f 84/14/91 74/7/79 85/13/92 
s 25
f 84/14/91 86/15/93 83/13/90 
s 26
f 79/4/85 87/16/94 80/10/86 
s 27
f 85/13/92 86/15/93 84/14/91 
s 28
f 88/17/95 86/15/93 85/13/92 
s 29
f 88/17/95 83/13/90 86/15/93 
s 30
f 89/18/96 83/13/90 88/17/95 
s 31
f 89/18/96 88/17/95 85/13/92 
s 32
f 90/12/97 89/18/96 85/13/98 
s 33
f 91/19/99 89/18/96 90/12/97 
s 34
f 92/20/100 89/18/96 91/19/99 
s 35
f 93/21/101 92/20/100 91/19/99 
s 36
f 92/20/100 93/21/101 94/19/102 
s 37
f 92/20/100 94/19/102 89/18/96 
s 38
f 83/13/90 89/18/96 82/12/89 
s 39
f 89/18/96 94/19/102 82/12/89 
s 40
f 94/19/102 81/11/88 82/12/89 
s 41
f 81/11/88 94/19/102 95/22/103 
s 42
f 79/4/85 81/11/88 95/22/103 
s 43
f 95/22/103 96/23/104 79/4/85 
s 44
f 96/23/104 87/16/94 79/4/85 
s 45
f 96/23/104 70/4/75 87/16/94 
s 46
f 70/4/75 80/10/86 87/16/94 
s 47
f 70/4/75 68/2/72 80/10/86 
s 48
f 94/19/102 93/21/101 97/24/105 
s 49
f 97/24/105 95/22/103 94/19/102 
s 50
f 95/22/103 97/24/105 98/25/106 
s 51
f 96/23/104 95/22/103 98/25/106 
s 52
f 98/25/106 70/4/75 96/23/104 
s 53
f 70/4/75 98/25/106 99/22/107 
s 54
f 98/25/106 91/19/99 99/22/107 
s 55
f 91/19/99 98/25/106 97/24/105 
s 56
f 93/21/101 91/19/99 97/24/105 
s 57
f 100/4/108 101/2/109 102/10/110 
s 58
f 103/3/111 101/2/109 100/4/108 
s 59
f 104/1/112 101/2/109 103/3/111 
s 60
f 104/1/112 105/9/113 101/2/109 
s 61
f 106/6/114 107/5/115 104/1/112 
s 62
f 104/1/112 107/5/115 105/9/113 
s 63
f 107/5/115 108/1/116 105/9/113 
s 64
f 105/9/117 108/1/116 101/2/109 
s 65
f 109/3/118 101/2/109 108/1/116 
s 66
f 109/3/118 110/4/119 101/2/109 
s 67
f 101/2/109 110/4/119 102/10/110 
s 68
f 110/4/119 111/16/120 102/10/110 
s 69
f 100/4/108 102/10/110 111/16/120 
s 70
f 112/23/121 100/4/108 111/16/120 
s 71
f 108/1/116 107/5/115 106/6/114 
s 72
f 112/23/121 111/16/120 110/4/119 
s 73
f 112/23/121 113/22/122 114/25/123 
s 74
f 113/22/122 112/23/121 110/4/119 
s 75
f 110/4/119 115/11/88 113/22/122 
s 76
f 115/11/88 110/4/119 109/3/118 
s 77
f 109/3/118 116/7/124 115/11/88 
s 78
f 116/7/124 109/3/118 108/1/116 
s 79
f 108/1/116 117/8/125 116/7/124 
s 80
f 117/8/125 108/1/116 106/6/114 
s 81
f 106/6/114 118/7/126 117/8/125 
s 82
f 118/7/126 106/6/114 104/1/112 
s 83
f 113/22/122 119/24/127 114/25/123 
s 84
f 119/24/127 113/22/122 120/19/128 
s 85
f 115/11/88 120/19/128 113/22/122 
s 86
f 120/19/128 115/11/88 121/12/129 
s 87
f 116/7/124 121/12/129 115/11/88 
s 88
f 121/12/129 116/7/124 122/13/130 
s 89
f 117/8/125 122/13/130 116/7/124 
s 90
f 123/18/131 122/13/130 124/17/132 
s 91
f 122/13/130 123/18/131 121/12/129 
s 92
f 123/18/131 120/19/128 121/12/129 
s 93
f 125/12/133 123/18/131 126/13/134 
s 94
f 123/18/131 124/17/132 126/13/134 
s 95
f 124/17/132 127/15/135 126/13/134 
s 96
f 124/17/132 122/13/130 127/15/135 
s 97
f 128/14/136 127/15/135 122/13/130 
s 98
f 122/13/130 117/8/125 128/14/136 
s 99
f 118/7/126 128/14/136 117/8/125 
s 100
f 128/14/136 118/7/126 126/13/134 
s 101
f 126/13/134 127/15/135 128/14/136 
s 102
f 114/25/123 100/4/108 112/23/121 
s 103
f 100/4/108 114/25/123 129/22/137 
s 104
f 114/25/123 130/19/138 129/22/137 
s 105
f 130/19/138 114/25/123 119/24/127 
s 106
f 131/21/139 130/19/138 119/24/127 
s 107
f 120/19/128 131/21/139 119/24/127 
s 108
f 132/20/140 131/21/139 120/19/128 
s 109
f 132/20/140 120/19/128 123/18/131 
s 110
f 132/20/140 123/18/131 130/19/138 
s 111
f 130/19/138 123/18/131 125/12/133 
s 112
f 131/21/139 132/20/140 130/19/138 
s 1
f 133/1/141 134/2/142 135/3/143 
s 2
f 135/3/144 134/2/142 136/4/145 
s 3
f 137/1/146 138/5/147 139/6/148 
s 4
f 139/6/148 138/5/147 133/1/141 
s 5
f 140/7/149 139/6/148 133/1/141 
s 6
f 139/6/148 140/7/149 141/8/150 
s 7
f 141/8/150 137/1/146 139/6/148 
s 8
f 137/1/146 141/8/151 142/7/152 
s 9
f 142/7/152 143/3/153 137/1/146 
s 10
f 143/3/153 134/2/142 137/1/146 
s 11
f 144/9/154 137/1/146 134/2/142 
s 12
f 133/1/141 144/9/154 134/2/142 
s 13
f 133/1/141 138/5/147 144/9/154 
s 14
f 138/5/147 137/1/146 144/9/154 
s 15
f 134/2/142 145/4/155 146/10/156 
s 16
f 143/3/153 145/4/155 134/2/157 
s 17
f 147/11/42 145/4/155 143/3/153 
s 18
f 143/3/153 142/7/152 147/11/42 
s 19
f 142/7/152 148/12/158 147/11/42 
s 20
f 148/12/158 142/7/152 149/13/159 
s 21
f 141/8/150 149/13/159 142/7/152 
s 22
f 149/13/159 141/8/150 150/14/160 
s 23
f 140/7/149 150/14/160 141/8/150 
s 24
f 150/14/160 140/7/149 151/13/161 
s 25
f 150/14/160 152/15/162 149/13/159 
s 26
f 145/4/155 153/16/163 146/10/156 
s 27
f 151/13/161 152/15/162 150/14/160 
s 28
f 154/17/164 152/15/162 151/13/161 
s 29
f 154/17/164 149/13/159 152/15/162 
s 30
f 155/18/165 149/13/159 154/17/164 
s 31
f 155/18/165 154/17/164 151/13/161 
s 32
f 156/12/166 155/18/165 151/13/167 
s 33
f 157/19/168 155/18/165 156/12/166 
s 34
f 158/20/169 155/18/165 157/19/168 
s 35
f 159/21/170 158/20/169 157/19/168 
s 36
f 158/20/169 159/21/170 160/19/171 
s 37
f 158/20/169 160/19/171 155/18/165 
s 38
f 149/13/159 155/18/165 148/12/158 
s 39
f 155/18/165 160/19/171 148/12/158 
s 40
f 160/19/171 147/11/42 148/12/158 
s 41
f 147/11/42 160/19/171 161/22/172 
s 42
f 145/4/155 147/11/42 161/22/172 
s 43
f 161/22/172 162/23/173 145/4/155 
s 44
f 162/23/173 153/16/163 145/4/155 
s 45
f 162/23/173 136/4/145 153/16/163 
s 46
f 136/4/145 146/10/156 153/16/163 
s 47
f 136/4/145 134/2/142 146/10/156 
s 48
f 160/19/171 159/21/170 163/24/174 
s 49
f 163/24/174 161/22/172 160/19/171 
s 50
f 161/22/172 163/24/174 164/25/175 
s 51
f 162/23/173 161/22/172 164/25/175 
s 52
f 164/25/175 136/4/145 162/23/173 
s 53
f 136/4/145 164/25/175 165/22/176 
s 54
f 164/25/175 157/19/168 165/22/176 
s 55
f 157/19/168 164/25/175 163/24/174 
s 56
f 159/21/170 157/19/168 163/24/174 
s 113
f 166/12/177 167/7/178 168/13/179 
s 114
f 169/3/180 167/7/178 170/11/181 
s 115
f 171/23/182 172/22/183 173/25/184 
s 116
f 172/22/183 171/23/182 174/4/185 
s 117
f 174/4/185 170/11/181 172/22/183 
s 118
f 170/11/181 174/4/185 169/3/180 
s 119
f 169/3/180 174/4/185 175/2/186 
s 120
f 169/3/180 175/2/186 176/1/187 
s 121
f 167/7/178 169/3/180 176/1/187 
s 122
f 176/1/187 177/8/188 167/7/178 
s 123
f 177/8/188 168/13/179 167/7/178 
s 124
f 168/13/179 177/8/188 178/14/189 
s 125
f 178/14/189 179/15/190 168/13/179 
s 126
f 180/9/191 176/1/187 175/2/186 
s 127
f 171/23/182 181/16/192 174/4/185 
s 128
f 174/4/185 181/16/192 182/10/193 
s 129
f 175/2/186 174/4/185 182/10/193 
s 130
f 183/4/194 175/2/186 182/10/193 
s 131
f 184/3/195 175/2/186 183/4/194 
s 132
f 185/1/196 175/2/186 184/3/195 
s 133
f 185/1/196 180/9/191 175/2/186 
s 134
f 185/1/196 186/5/197 180/9/191 
s 135
f 186/5/197 176/1/187 180/9/191 
s 136
f 176/1/187 186/5/197 187/6/198 
s 137
f 183/4/194 182/10/193 181/16/192 
s 138
f 188/7/199 187/6/198 185/1/196 
s 139
f 187/6/198 186/5/197 185/1/196 
s 140
f 177/8/188 176/1/187 187/6/198 
s 141
f 187/6/198 188/7/199 177/8/188 
s 142
f 188/7/199 178/14/189 177/8/188 
s 143
f 178/14/189 188/7/199 189/13/200 
s 144
f 189/13/200 179/15/190 178/14/189 
s 145
f 190/17/201 179/15/190 189/13/200 
s 146
f 190/17/201 168/13/179 179/15/190 
s 147
f 191/18/202 168/13/179 190/17/201 
s 148
f 168/13/179 191/18/202 166/12/177 
s 149
f 191/18/202 192/19/203 166/12/177 
s 150
f 191/18/202 190/17/201 189/13/200 
s 151
f 193/12/204 191/18/202 189/13/200 
s 152
f 194/19/205 191/18/202 193/12/204 
s 153
f 195/20/206 191/18/202 194/19/205 
s 154
f 195/20/206 192/19/203 191/18/202 
s 155
f 195/20/206 196/21/207 192/19/203 
s 156
f 196/21/207 195/20/206 194/19/205 
s 157
f 196/21/207 194/19/205 197/24/208 
s 158
f 192/19/203 196/21/207 197/24/208 
s 159
f 167/7/178 166/12/177 170/11/181 
s 160
f 192/19/203 170/11/181 166/12/177 
s 161
f 170/11/181 192/19/203 172/22/183 
s 162
f 197/24/208 172/22/183 192/19/203 
s 163
f 172/22/183 197/24/208 173/25/184 
s 164
f 194/19/205 173/25/184 197/24/208 
s 165
f 173/25/184 194/19/205 198/22/209 
s 166
f 183/4/194 173/25/184 198/22/209 
s 167
f 173/25/184 183/4/194 171/23/182 
s 168
f 171/23/182 183/4/194 181/16/192 
# 0 polygons - 336 triangles