# Blender v2.79 (sub 0) OBJ File: ''
# www.blender.org
mtllib untitled.mtl
o metal_skid_pMetal_skid_ref
v -0.699705 0.028886 -0.281861
v -0.694401 0.001869 -0.281861
v -0.694401 0.028886 -0.281861
v -0.699705 0.001869 -0.281861
v -0.000001 0.056330 0.312718
v 0.296806 0.028886 0.312718
v 0.699702 0.056330 0.312718
v 0.640871 0.028886 0.312718
v 0.699702 0.001869 0.312718
v 0.640871 0.001869 0.312718
v 0.296806 0.001869 0.312718
v 0.217119 0.028886 0.312718
v 0.217119 0.001869 0.312718
v -0.000001 0.028886 0.312718
v -0.217122 0.028886 0.312718
v -0.640874 0.028886 0.312718
v -0.699705 0.001869 0.312718
v -0.640874 0.001869 0.312718
v -0.699705 0.056330 0.312718
v -0.296809 0.028886 0.312718
v -0.296809 0.001869 0.312718
v -0.217122 0.001869 0.312718
v -0.640874 0.028886 -0.307660
v -0.296809 0.028886 -0.312723
v -0.296809 0.028886 -0.307660
v -0.640874 0.028886 -0.312723
v -0.694401 0.028886 -0.307419
v -0.699705 0.028886 -0.000003
v -0.217122 0.028886 -0.307660
v -0.640874 0.028886 0.307655
v -0.296809 0.028886 0.307655
v -0.217122 0.028886 0.307655
v -0.000001 0.028886 -0.000003
v -0.000001 0.028886 -0.312723
v -0.217122 0.028886 -0.312723
v -0.694401 0.028886 0.281856
v -0.699705 0.028886 0.281856
v -0.694401 0.028886 0.307414
v 0.217119 0.028886 0.307655
v 0.640871 0.028886 0.307655
v 0.296806 0.028886 0.307655
v 0.699702 0.028886 -0.000003
v 0.217119 0.028886 -0.307660
v 0.217119 0.028886 -0.312723
v 0.694398 0.028886 0.281856
v 0.694398 0.028886 0.307414
v 0.699702 0.028886 0.281856
v 0.296806 0.028886 -0.307660
v 0.640871 0.028886 -0.307660
v 0.694398 0.028886 -0.281861
v 0.694398 0.028886 -0.307419
v 0.699702 0.028886 -0.281861
v 0.296806 0.028886 -0.312723
v 0.640871 0.028886 -0.312723
v 0.635085 0.062479 -0.066308
v 0.635085 0.062479 -0.024114
v 0.636049 0.063745 -0.066669
v -0.626890 0.048856 -0.062691
v -0.000001 0.062268 -0.066248
v -0.635088 0.062479 -0.066308
v -0.000001 0.048856 -0.062691
v -0.626890 0.048856 -0.027760
v -0.000001 0.048856 -0.027760
v -0.000001 0.062268 -0.024174
v 0.626887 0.048856 -0.027760
v 0.626887 0.048856 -0.062691
v -0.000001 0.063744 -0.066669
v -0.000001 0.063744 -0.068177
v 0.637013 0.063745 -0.068177
v 0.637013 0.063745 -0.112240
v 0.690058 0.063745 -0.000003
v 0.637013 0.063745 -0.159015
v 0.690058 0.063745 -0.304043
v -0.000001 0.063744 -0.023767
v 0.636049 0.063745 -0.023767
v 0.637013 0.063745 -0.022230
v 0.637013 0.063745 -0.000003
v -0.000001 0.063744 -0.022230
v -0.000001 0.063744 -0.000003
v -0.636052 0.063744 -0.023767
v -0.635088 0.062479 -0.024114
v -0.000001 0.063744 0.068172
v 0.637013 0.063745 0.112235
v 0.637013 0.063745 0.068172
v 0.637013 0.063745 0.022225
v -0.000001 0.063744 0.022225
v -0.637016 0.063744 -0.000003
v -0.637016 0.063744 -0.022230
v -0.637016 0.063744 -0.068177
v -0.636052 0.063744 -0.066669
v -0.690061 0.063744 -0.000003
v -0.637016 0.063744 0.022225
v -0.636052 0.063744 0.023762
v -0.637016 0.063744 0.068172
v -0.636052 0.063744 0.066665
v -0.000001 0.063744 0.066665
v -0.637016 0.063744 0.112235
v -0.637016 0.063744 0.159010
v -0.635088 0.062479 0.024108
v -0.000001 0.063744 0.023762
v -0.635088 0.062479 0.066303
v -0.000001 0.062268 0.066243
v -0.626890 0.048856 0.062686
v -0.000001 0.048856 0.062686
v -0.626890 0.048856 0.027755
v -0.000001 0.048856 0.027755
v -0.000001 0.062268 0.024169
v 0.626887 0.048856 0.027755
v 0.626887 0.048856 0.062686
v 0.635085 0.062479 0.066303
v 0.636049 0.063745 0.066665
v 0.636049 0.063745 0.023762
v 0.635085 0.062479 0.024108
v 0.694398 0.001869 0.307414
v 0.640871 0.001869 0.307655
v 0.694398 0.001869 0.281856
v 0.217119 0.001869 0.307655
v 0.296806 0.001869 0.307655
v 0.699702 0.001869 0.281856
v 0.694398 0.001869 -0.307419
v 0.640871 0.001869 -0.307660
v 0.694398 0.001869 -0.281861
v 0.217119 0.001869 -0.307660
v 0.296806 0.001869 -0.307660
v 0.217119 0.001869 -0.312723
v 0.640871 0.001869 -0.312723
v 0.699702 0.001869 -0.281861
v 0.699702 0.001869 -0.312723
v -0.694401 0.001869 0.307414
v -0.640874 0.001869 0.307655
v -0.217122 0.001869 0.307655
v -0.296809 0.001869 0.307655
v -0.694401 0.001869 -0.307419
v -0.640874 0.001869 -0.307660
v -0.217122 0.001869 -0.307660
v -0.217122 0.001869 -0.312723
v -0.296809 0.001869 -0.312723
v -0.296809 0.001869 -0.307660
v -0.640874 0.001869 -0.312723
v -0.690061 0.063744 0.304038
v -0.699705 0.056330 -0.000003
v -0.000001 0.063744 0.304038
v 0.690058 0.063745 0.304038
v 0.699702 0.056330 -0.000003
v 0.635085 0.062479 0.247377
v -0.000001 0.063744 0.247859
v 0.636049 0.063745 0.247859
v 0.635085 0.062479 0.204460
v 0.636049 0.063745 0.204098
v -0.000001 0.063744 0.204098
v -0.000001 0.063744 0.202531
v -0.636052 0.063744 0.204098
v -0.637016 0.063744 0.202531
v -0.637016 0.063744 0.248824
v -0.000001 0.063744 0.249306
v 0.637013 0.063745 0.248824
v 0.637013 0.063745 0.202531
v -0.000001 0.062268 0.204580
v -0.635088 0.062479 0.204460
v -0.636052 0.063744 0.247859
v -0.626890 0.048856 0.208197
v -0.690061 0.063744 -0.304043
v -0.000001 0.063744 0.159010
v -0.635088 0.062479 0.247377
v -0.626890 0.048856 0.243761
v -0.000001 0.048856 0.208197
v 0.626887 0.048856 0.208197
v 0.626887 0.048856 0.243761
v -0.000001 0.062268 0.247377
v -0.000001 0.048856 0.243761
v 0.637013 0.063745 -0.202536
v 0.637013 0.063745 -0.248829
v 0.636049 0.063745 -0.204103
v 0.636049 0.063745 -0.247864
v 0.635085 0.062479 -0.204464
v 0.635085 0.062479 -0.247382
v 0.626887 0.048856 -0.243766
v -0.000001 0.062268 -0.247382
v -0.000001 0.063744 -0.247864
v -0.635088 0.062479 -0.247382
v -0.636052 0.063744 -0.247864
v -0.000001 0.063744 -0.249311
v -0.637016 0.063744 -0.248829
v -0.000001 0.063744 -0.304043
v -0.000001 0.056330 -0.312723
v -0.699705 0.056330 -0.312723
v 0.626887 0.048856 -0.208202
v -0.000001 0.048856 -0.243766
v -0.626890 0.048856 -0.243766
v -0.635088 0.062479 -0.204464
v -0.636052 0.063744 -0.204103
v -0.637016 0.063744 -0.202536
v -0.637016 0.063744 -0.159015
v -0.637016 0.063744 -0.112240
v -0.626890 0.048856 -0.208202
v -0.000001 0.062268 -0.204585
v -0.000001 0.048856 -0.208202
v -0.000001 0.063744 -0.204103
v -0.000001 0.063744 -0.202536
v -0.000001 0.063744 -0.159015
v -0.636052 0.063744 -0.157568
v -0.636052 0.063744 -0.113806
v -0.000001 0.063744 -0.112240
v 0.636049 0.063745 -0.113806
v -0.000001 0.063744 -0.113806
v -0.626890 0.048856 -0.153470
v -0.635088 0.062479 -0.114168
v -0.626890 0.048856 -0.117845
v -0.000001 0.062268 -0.114168
v 0.635085 0.062479 -0.114168
v 0.636049 0.063745 -0.157568
v -0.635088 0.062479 -0.157207
v -0.000001 0.063744 -0.157568
v -0.000001 0.062268 -0.157086
v 0.635085 0.062479 -0.157207
v 0.626887 0.048856 -0.153470
v 0.626887 0.048856 -0.117845
v -0.000001 0.048856 -0.117845
v -0.000001 0.048856 -0.153470
v 0.637013 0.063745 0.159010
v 0.699702 0.056330 -0.312723
v 0.636049 0.063745 0.157564
v -0.000001 0.063744 0.157564
v 0.635085 0.062479 0.157202
v -0.000001 0.062268 0.157082
v 0.626887 0.048856 0.153464
v -0.000001 0.048856 0.153464
v 0.626887 0.048856 0.117841
v -0.000001 0.048856 0.117841
v -0.000001 0.062268 0.114164
v -0.626890 0.048856 0.117841
v -0.635088 0.062479 0.114164
v -0.626890 0.048856 0.153464
v -0.635088 0.062479 0.157202
v -0.636052 0.063744 0.157564
v -0.636052 0.063744 0.113802
v -0.000001 0.063744 0.112235
v 0.635085 0.062479 0.114164
v 0.636049 0.063745 0.113802
v -0.000001 0.063744 0.113802
v -0.699705 0.001869 -0.312723
v 0.296806 0.001869 -0.312723
v -0.694401 0.001869 0.281856
v -0.699705 0.001869 0.281856
vt 0.657200 0.136700
vt 0.654300 0.168900
vt 0.654300 0.136700
vt 0.657200 0.168900
vt 0.453600 0.082000
vt 0.645500 0.046900
vt 0.906300 0.082000
vt 0.868200 0.046900
vt 0.906300 0.011700
vt 0.868200 0.011700
vt 0.645500 0.011700
vt 0.594200 0.046900
vt 0.594200 0.011700
vt 0.453600 0.046900
vt 0.313200 0.046900
vt 0.039400 0.046900
vt 0.001300 0.011700
vt 0.039400 0.011700
vt 0.001300 0.082000
vt 0.261700 0.046900
vt 0.261700 0.011700
vt 0.313200 0.011700
vt 0.870600 0.983300
vt 0.647900 0.990000
vt 0.647900 0.983300
vt 0.870600 0.990000
vt 0.905300 0.983100
vt 0.905300 0.950100
vt 0.908700 0.585400
vt 0.596200 0.983300
vt 0.908700 0.950100
vt 0.870600 0.187500
vt 0.647900 0.181200
vt 0.870600 0.181200
vt 0.647900 0.187500
vt 0.596200 0.187500
vt 0.456100 0.585400
vt 0.456100 0.990000
vt 0.596200 0.990000
vt 0.905300 0.220700
vt 0.908700 0.220700
vt 0.905300 0.188000
vt 0.596200 0.181200
vt 0.456100 0.181200
vt 0.315700 0.187500
vt 0.315700 0.181200
vt 0.264200 0.181200
vt 0.041700 0.187500
vt 0.041700 0.181200
vt 0.264200 0.187500
vt 0.003600 0.585400
vt 0.315700 0.983300
vt 0.315700 0.990000
vt 0.006900 0.220700
vt 0.006900 0.188000
vt 0.003600 0.220700
vt 0.264200 0.983300
vt 0.041700 0.983300
vt 0.006900 0.950100
vt 0.006900 0.983100
vt 0.003600 0.950100
vt 0.264200 0.990000
vt 0.041700 0.990000
vt 0.867200 0.673600
vt 0.867200 0.614500
vt 0.867700 0.674600
vt 0.051000 0.662400
vt 0.456300 0.675500
vt 0.045400 0.673600
vt 0.456300 0.662400
vt 0.051000 0.625700
vt 0.456300 0.625700
vt 0.456300 0.612800
vt 0.861300 0.625700
vt 0.861300 0.662400
vt 0.456300 0.674600
vt 0.456300 0.673800
vt 0.868200 0.673800
vt 0.868200 0.730700
vt 0.902300 0.585700
vt 0.868200 0.791400
vt 0.902300 0.978800
vt 0.456300 0.613500
vt 0.867700 0.613500
vt 0.868200 0.614300
vt 0.868200 0.585700
vt 0.456300 0.614300
vt 0.456300 0.585700
vt 0.044900 0.613500
vt 0.045400 0.614500
vt 0.456300 0.497600
vt 0.868200 0.440400
vt 0.868200 0.497600
vt 0.868200 0.556900
vt 0.456300 0.556900
vt 0.044300 0.585700
vt 0.044300 0.614300
vt 0.044300 0.673800
vt 0.044900 0.674600
vt 0.009900 0.585700
vt 0.044300 0.556900
vt 0.044900 0.557600
vt 0.044300 0.497600
vt 0.044900 0.496600
vt 0.456300 0.496600
vt 0.044300 0.440400
vt 0.044300 0.379900
vt 0.045400 0.556600
vt 0.456300 0.557600
vt 0.045400 0.497600
vt 0.456300 0.495600
vt 0.051000 0.508800
vt 0.456300 0.508800
vt 0.051000 0.545400
vt 0.456300 0.545400
vt 0.456300 0.558600
vt 0.861300 0.545400
vt 0.861300 0.508800
vt 0.867200 0.497600
vt 0.867700 0.496600
vt 0.867700 0.557600
vt 0.867200 0.556600
vt 0.913100 0.314500
vt 0.929200 0.250500
vt 0.929200 0.314500
vt 0.913100 0.250500
vt 0.770500 0.136700
vt 0.785600 0.168900
vt 0.770500 0.168900
vt 0.785600 0.136700
vt 0.760700 0.136700
vt 0.764200 0.168900
vt 0.760700 0.168900
vt 0.764200 0.136700
vt 0.963900 0.119100
vt 0.912600 0.112800
vt 0.963900 0.112800
vt 0.912600 0.119100
vt 0.593800 0.140600
vt 0.590800 0.172900
vt 0.590800 0.140600
vt 0.593800 0.172900
vt 0.751500 0.136700
vt 0.754400 0.168900
vt 0.751500 0.168900
vt 0.754400 0.136700
vt 0.742200 0.168900
vt 0.745100 0.136700
vt 0.745100 0.168900
vt 0.742200 0.136700
vt 0.913100 0.318800
vt 0.929200 0.382800
vt 0.913100 0.382800
vt 0.929200 0.318800
vt 0.735800 0.136700
vt 0.720200 0.168900
vt 0.720200 0.136700
vt 0.735800 0.168900
vt 0.930200 0.835400
vt 0.930200 0.938500
vt 0.912600 0.938500
vt 0.912600 0.835400
vt 0.713900 0.136700
vt 0.710900 0.168900
vt 0.710900 0.136700
vt 0.713900 0.168900
vt 0.704600 0.136700
vt 0.701700 0.168900
vt 0.701700 0.136700
vt 0.704600 0.168900
vt 0.695300 0.168900
vt 0.691900 0.136700
vt 0.695300 0.136700
vt 0.691900 0.168900
vt 0.927700 0.666300
vt 0.912600 0.672400
vt 0.912600 0.666300
vt 0.930700 0.672400
vt 0.930700 0.602100
vt 0.927700 0.602100
vt 0.930200 0.452100
vt 0.914100 0.387700
vt 0.930200 0.387700
vt 0.914100 0.452100
vt 0.912600 0.002400
vt 0.963900 0.037600
vt 0.912600 0.037600
vt 0.963900 0.002400
vt 0.845200 0.136700
vt 0.841800 0.168900
vt 0.841800 0.136700
vt 0.845200 0.168900
vt 0.912600 0.078100
vt 0.963900 0.071800
vt 0.963900 0.078100
vt 0.912600 0.071800
vt 0.835400 0.136700
vt 0.832500 0.168900
vt 0.832500 0.136700
vt 0.835400 0.168900
vt 0.930200 0.457000
vt 0.914100 0.521000
vt 0.914100 0.456500
vt 0.930200 0.521000
vt 0.826200 0.168900
vt 0.811000 0.136700
vt 0.826200 0.136700
vt 0.811000 0.168900
vt 0.801300 0.136700
vt 0.804700 0.168900
vt 0.801300 0.168900
vt 0.804700 0.136700
vt 0.963900 0.058100
vt 0.912600 0.058100
vt 0.912600 0.051300
vt 0.963900 0.051300
vt 0.667000 0.136700
vt 0.667000 0.168900
vt 0.663600 0.168900
vt 0.663600 0.136700
vt 0.792000 0.136700
vt 0.794900 0.168900
vt 0.792000 0.168900
vt 0.794900 0.136700
vt 0.009900 0.192400
vt 0.003700 0.585700
vt 0.003700 0.181200
vt 0.456300 0.181200
vt 0.456300 0.192400
vt 0.902300 0.192400
vt 0.908700 0.181200
vt 0.908700 0.585700
vt 0.867200 0.263700
vt 0.456300 0.262200
vt 0.867700 0.262200
vt 0.867200 0.323200
vt 0.867700 0.324200
vt 0.456300 0.324200
vt 0.456300 0.323700
vt 0.044900 0.324200
vt 0.044300 0.323700
vt 0.044300 0.263700
vt 0.456300 0.263200
vt 0.868200 0.263700
vt 0.868200 0.323700
vt 0.456300 0.325200
vt 0.045400 0.323200
vt 0.044900 0.262200
vt 0.051000 0.312000
vt 0.009900 0.978800
vt 0.456300 0.379900
vt 0.045400 0.263700
vt 0.051000 0.274400
vt 0.456300 0.312000
vt 0.861300 0.312000
vt 0.861300 0.274400
vt 0.456300 0.261700
vt 0.456300 0.274400
vt 0.868200 0.847700
vt 0.868200 0.907500
vt 0.867700 0.846800
vt 0.867700 0.908900
vt 0.867200 0.847900
vt 0.867200 0.907800
vt 0.861300 0.896600
vt 0.456300 0.909700
vt 0.456300 0.908900
vt 0.045400 0.907800
vt 0.044900 0.908900
vt 0.456300 0.908100
vt 0.044300 0.907500
vt 0.456300 0.978800
vt 0.456300 0.990100
vt 0.003700 0.990100
vt 0.861300 0.859100
vt 0.456300 0.896600
vt 0.051000 0.896600
vt 0.045400 0.847900
vt 0.044900 0.846800
vt 0.044300 0.847700
vt 0.044300 0.791400
vt 0.044300 0.730700
vt 0.051000 0.859100
vt 0.456300 0.846100
vt 0.456300 0.859100
vt 0.456300 0.846800
vt 0.456300 0.847700
vt 0.456300 0.791400
vt 0.044900 0.792100
vt 0.044900 0.730000
vt 0.456300 0.730700
vt 0.867700 0.730000
vt 0.456300 0.730000
vt 0.051000 0.779900
vt 0.045400 0.731000
vt 0.051000 0.742200
vt 0.456300 0.729200
vt 0.867200 0.731000
vt 0.867700 0.792100
vt 0.045400 0.791000
vt 0.456300 0.792100
vt 0.456300 0.793000
vt 0.867200 0.791000
vt 0.861300 0.779900
vt 0.861300 0.742200
vt 0.456300 0.742200
vt 0.456300 0.779900
vt 0.868200 0.379900
vt 0.908700 0.990100
vt 0.867700 0.378900
vt 0.456300 0.378900
vt 0.867200 0.380400
vt 0.456300 0.378400
vt 0.861300 0.391600
vt 0.456300 0.391600
vt 0.861300 0.429200
vt 0.456300 0.429200
vt 0.456300 0.441900
vt 0.051000 0.429200
vt 0.045400 0.439900
vt 0.051000 0.391600
vt 0.045400 0.380400
vt 0.044900 0.378900
vt 0.044900 0.441400
vt 0.456300 0.440400
vt 0.867200 0.439900
vt 0.867700 0.441400
vt 0.456300 0.441400
vt 0.912600 0.133300
vt 0.963900 0.133300
vt 0.912600 0.168000
vt 0.963900 0.168000
vt 0.915000 0.592300
vt 0.912100 0.528100
vt 0.915000 0.528100
vt 0.912100 0.598400
vt 0.930200 0.598400
vt 0.930200 0.592300
vt 0.912600 0.755400
vt 0.927700 0.761500
vt 0.912600 0.761500
vt 0.931200 0.755400
vt 0.931200 0.825700
vt 0.927700 0.825700
vt 0.963900 0.098600
vt 0.912600 0.098600
vt 0.963900 0.092300
vt 0.912600 0.092300
vt 0.584500 0.140600
vt 0.584500 0.172900
vt 0.581100 0.140600
vt 0.581100 0.172900
vt 0.916000 0.986500
vt 0.916000 0.946600
vt 0.933600 0.946600
vt 0.951200 0.986500
vt 0.951200 0.582000
vt 0.933600 0.582000
vt 0.933600 0.217300
vt 0.951200 0.177700
vt 0.916000 0.177700
vt 0.916000 0.217300
vt 0.264200 0.166000
vt 0.315700 0.130900
vt 0.315700 0.166000
vt 0.264200 0.130900
vt 0.456300 0.095700
vt 0.456300 0.130900
vt 0.596700 0.130900
vt 0.647900 0.130900
vt 0.647900 0.166000
vt 0.596700 0.166000
vt 0.870600 0.130900
vt 0.908700 0.166000
vt 0.870600 0.166000
vt 0.908700 0.095700
vt 0.003700 0.095700
vt 0.041800 0.130900
vt 0.003700 0.166000
vt 0.041800 0.166000
vt 0.851600 0.136700
vt 0.866700 0.136700
vt 0.851600 0.168900
vt 0.866700 0.168900
vt 0.685500 0.136700
vt 0.685500 0.168900
vt 0.682600 0.136700
vt 0.682600 0.168900
vt 0.676300 0.136700
vt 0.676300 0.168900
vt 0.673300 0.136700
vt 0.673300 0.168900
vt 0.989300 0.066400
vt 0.989300 0.169400
vt 0.971700 0.066400
vt 0.971700 0.169400
vt 0.931200 0.683600
vt 0.916000 0.683600
vt 0.931200 0.677500
vt 0.913100 0.677500
vt 0.913100 0.747800
vt 0.916000 0.747800
vt 0.975600 0.946600
vt 0.993200 0.946600
vt 0.993200 0.986500
vt 0.958000 0.986500
vt 0.958000 0.582000
vt 0.975600 0.582000
vt 0.975600 0.217300
vt 0.958000 0.177700
vt 0.993200 0.177700
vt 0.993200 0.217300
vn 0.0000 0.0000 1.0000
vn 0.0000 -1.0000 0.0000
vn -0.5326 0.5476 0.6453
vn -0.5324 0.5438 -0.6487
vn -0.1800 0.9719 0.1516
vn 0.3883 0.7662 0.5120
vn 0.0000 0.2655 0.9641
vn 0.5326 0.5477 0.6453
vn 0.0000 0.7926 0.6098
vn 0.3883 0.7668 -0.5111
vn 0.0000 0.7932 -0.6090
vn 0.0000 0.2620 -0.9651
vn -0.3883 0.7668 -0.5111
vn -0.3883 0.7662 0.5120
vn -0.0000 0.7983 0.6022
vn -0.0000 1.0000 0.0000
vn 0.3219 0.9468 0.0000
vn 0.2466 0.9300 -0.2726
vn -0.0000 0.7955 -0.6059
vn -0.1813 0.9716 -0.1519
vn 0.1813 0.9716 -0.1519
vn 0.5324 0.5438 -0.6487
vn 0.1800 0.9719 0.1516
vn -0.3219 0.9468 0.0000
vn 0.1813 0.9716 0.1519
vn 0.1800 0.9719 -0.1516
vn -0.0000 0.7983 -0.6022
vn 0.5324 0.5436 0.6489
vn -0.0000 0.7955 0.6059
vn 0.5326 0.5477 -0.6453
vn 0.0000 0.2655 -0.9641
vn 0.3883 0.7663 -0.5120
vn 0.0000 0.7926 -0.6098
vn 0.3883 0.7668 0.5111
vn 0.0000 0.7932 0.6090
vn 0.0000 0.2620 0.9651
vn -0.3883 0.7668 0.5111
vn -0.3883 0.7663 -0.5120
vn -0.5325 0.5484 -0.6447
vn -0.1801 0.9719 -0.1516
vn -0.1814 0.9716 0.1519
vn -0.5324 0.5441 0.6485
vn -0.0045 0.0000 -1.0000
vn -1.0000 0.0000 0.0000
vn 1.0000 0.0000 0.0000
vn 0.0000 0.0000 -1.0000
vn -0.0045 0.0000 1.0000
vn 0.0045 0.0000 -1.0000
vn 0.0045 0.0000 1.0000
vn -0.2466 0.9300 0.2726
vn -0.6095 0.7928 0.0000
vn -0.3556 0.8681 0.3464
vn -0.0000 0.7604 0.6495
vn -0.0000 0.9382 0.3461
vn 0.2466 0.9300 0.2726
vn 0.3556 0.8681 0.3464
vn 0.6095 0.7928 0.0000
vn -0.5324 0.5802 -0.6164
vn -0.0000 0.8094 -0.5872
vn -0.1699 0.9742 -0.1488
vn -0.5315 0.5490 0.6451
vn -0.0000 0.8095 0.5871
vn 0.1800 0.9719 0.1515
vn -0.0000 0.2848 0.9586
vn 0.5314 0.5491 0.6451
vn 0.1698 0.9742 -0.1488
vn 0.3883 0.7684 0.5087
vn -0.2466 0.9300 -0.2726
vn 0.5324 0.5797 -0.6168
vn 0.3883 0.7663 -0.5119
vn 0.0000 0.7938 0.6081
vn -0.3883 0.7684 0.5087
vn -0.3883 0.7663 -0.5119
vn 0.0000 0.2854 -0.9584
vn 0.0000 0.7938 -0.6081
vn -0.1800 0.9719 -0.1516
vn -0.1698 0.9742 0.1488
vn -0.5315 0.5489 -0.6451
vn -0.5325 0.5797 0.6167
vn -0.3883 0.7663 0.5119
vn -0.0000 0.2855 0.9584
vn 0.5324 0.5798 0.6167
vn 0.1698 0.9742 0.1488
vn -0.0000 0.9382 -0.3461
vn -0.0000 0.7604 -0.6495
vn -0.3556 0.8681 -0.3464
vn -0.3883 0.7684 -0.5087
vn 0.3883 0.7663 0.5119
vn 0.5314 0.5490 -0.6451
vn 0.3883 0.7684 -0.5087
vn -0.0000 0.2855 -0.9584
vn -0.0000 0.8095 -0.5872
vn 0.1800 0.9719 -0.1515
vn 0.0002 0.7865 -0.6176
vn 0.5320 0.5485 -0.6451
vn 0.3883 0.7673 -0.5103
vn 0.0000 0.2513 -0.9679
vn -0.5321 0.5484 -0.6451
vn 0.5314 0.5489 0.6452
vn -0.0000 0.8094 0.5873
vn 0.0000 0.2854 0.9584
vn -0.5315 0.5488 0.6452
vn -0.3883 0.7673 -0.5103
vn 0.0000 0.7951 -0.6065
vn 0.3556 0.8681 -0.3464
vn -0.0000 0.8094 -0.5873
vn 0.0000 0.7939 -0.6081
vn -0.3883 0.7673 0.5103
vn 0.0000 0.7951 0.6065
vn -0.0000 0.2512 0.9679
vn 0.3883 0.7673 0.5103
vn 0.5320 0.5485 0.6451
vn -0.5321 0.5484 0.6451
vn -0.0000 0.7868 0.6172
usemtl metal_skid
s 1
f 1/1/1 2/2/1 3/3/1
f 1/1/1 4/4/1 2/2/1
f 5/5/1 6/6/1 7/7/1
f 7/7/1 6/6/1 8/8/1
f 8/8/1 9/9/1 7/7/1
f 9/9/1 8/8/1 10/10/1
f 11/11/1 12/12/1 13/13/1
f 12/12/1 11/11/1 6/6/1
f 6/6/1 5/5/1 12/12/1
f 5/5/1 14/14/1 12/12/1
f 5/5/1 15/15/1 14/14/1
f 16/16/1 17/17/1 18/18/1
f 17/17/1 16/16/1 19/19/1
f 19/19/1 16/16/1 20/20/1
f 20/20/1 5/5/1 19/19/1
f 5/5/1 20/20/1 15/15/1
f 21/21/1 15/15/1 20/20/1
f 15/15/1 21/21/1 22/22/1
f 23/23/2 24/24/2 25/25/2
f 24/24/2 23/23/2 26/26/2
f 27/27/2 23/23/2 3/28/2
f 23/23/2 28/29/2 3/28/2
f 23/23/2 25/25/2 28/29/2
f 25/25/2 29/30/2 28/29/2
f 28/29/2 1/31/2 3/28/2
f 30/32/2 20/33/2 16/34/2
f 20/33/2 30/32/2 31/35/2
f 30/32/2 28/29/2 31/35/2
f 31/35/2 28/29/2 32/36/2
f 28/29/2 33/37/2 32/36/2
f 28/29/2 29/30/2 33/37/2
f 29/30/2 34/38/2 33/37/2
f 35/39/2 34/38/2 29/30/2
f 28/29/2 36/40/2 37/41/2
f 28/29/2 30/32/2 36/40/2
f 30/32/2 38/42/2 36/40/2
f 15/43/2 32/36/2 14/44/2
f 32/36/2 33/37/2 14/44/2
f 33/37/2 39/45/2 14/44/2
f 12/46/2 14/44/2 39/45/2
f 6/47/2 40/48/2 8/49/2
f 40/48/2 6/47/2 41/50/2
f 40/48/2 41/50/2 42/51/2
f 41/50/2 39/45/2 42/51/2
f 33/37/2 42/51/2 39/45/2
f 42/51/2 33/37/2 43/52/2
f 33/37/2 34/38/2 43/52/2
f 44/53/2 43/52/2 34/38/2
f 40/48/2 45/54/2 46/55/2
f 40/48/2 42/51/2 45/54/2
f 42/51/2 47/56/2 45/54/2
f 48/57/2 42/51/2 43/52/2
f 49/58/2 42/51/2 48/57/2
f 42/51/2 49/58/2 50/59/2
f 49/58/2 51/60/2 50/59/2
f 42/51/2 50/59/2 52/61/2
f 53/62/2 49/58/2 48/57/2
f 49/58/2 53/62/2 54/63/2
f 55/64/3 56/65/4 57/66/5
f 58/67/6 59/68/7 60/69/8
f 59/68/7 58/67/6 61/70/9
f 62/71/10 61/70/9 58/67/6
f 61/70/9 62/71/10 63/72/11
f 62/71/10 64/73/12 63/72/11
f 64/73/12 65/74/13 63/72/11
f 65/74/13 64/73/12 56/65/4
f 56/65/4 66/75/14 65/74/13
f 55/64/3 66/75/14 56/65/4
f 59/68/7 66/75/14 55/64/3
f 55/64/3 67/76/15 59/68/7
f 67/76/15 55/64/3 57/66/5
f 67/76/15 57/66/5 68/77/16
f 69/78/16 68/77/16 57/66/5
f 70/79/16 68/77/16 69/78/16
f 71/80/17 70/79/16 69/78/16
f 71/80/17 72/81/16 70/79/16
f 71/80/17 73/82/18 72/81/16
f 63/72/11 65/74/13 61/70/9
f 61/70/9 65/74/13 66/75/14
f 66/75/14 59/68/7 61/70/9
f 74/83/19 56/65/4 64/73/12
f 56/65/4 74/83/19 75/84/20
f 75/84/20 57/66/5 56/65/4
f 75/84/20 69/78/16 57/66/5
f 76/85/16 69/78/16 75/84/20
f 71/80/17 69/78/16 76/85/16
f 71/80/17 76/85/16 77/86/16
f 78/87/16 77/86/16 76/85/16
f 79/88/16 77/86/16 78/87/16
f 75/84/20 78/87/16 76/85/16
f 78/87/16 75/84/20 74/83/19
f 80/89/21 78/87/16 74/83/19
f 74/83/19 81/90/22 80/89/21
f 82/91/16 83/92/16 84/93/16
f 71/80/17 84/93/16 83/92/16
f 71/80/17 85/94/16 84/93/16
f 71/80/17 77/86/16 85/94/16
f 77/86/16 86/95/16 85/94/16
f 86/95/16 77/86/16 79/88/16
f 87/96/16 86/95/16 79/88/16
f 87/96/16 79/88/16 78/87/16
f 78/87/16 88/97/16 87/96/16
f 78/87/16 80/89/21 88/97/16
f 89/98/16 88/97/16 80/89/21
f 89/98/16 80/89/21 90/99/23
f 90/99/23 80/89/21 81/90/22
f 90/99/23 81/90/22 60/69/8
f 60/69/8 81/90/22 58/67/6
f 58/67/6 81/90/22 62/71/10
f 64/73/12 62/71/10 81/90/22
f 81/90/22 74/83/19 64/73/12
f 91/100/24 88/97/16 89/98/16
f 91/100/24 87/96/16 88/97/16
f 91/100/24 92/101/16 87/96/16
f 92/101/16 86/95/16 87/96/16
f 93/102/25 86/95/16 92/101/16
f 92/101/16 94/103/16 93/102/25
f 93/102/25 94/103/16 95/104/26
f 94/103/16 82/91/16 95/104/26
f 95/104/26 82/91/16 96/105/27
f 82/91/16 94/103/16 97/106/16
f 91/100/24 97/106/16 94/103/16
f 91/100/24 94/103/16 92/101/16
f 91/100/24 98/107/16 97/106/16
f 99/108/28 100/109/29 93/102/25
f 95/104/26 99/108/28 93/102/25
f 99/108/28 95/104/26 101/110/30
f 96/105/27 101/110/30 95/104/26
f 101/110/30 96/105/27 102/111/31
f 102/111/31 103/112/32 101/110/30
f 103/112/32 102/111/31 104/113/33
f 103/112/32 104/113/33 105/114/34
f 105/114/34 104/113/33 106/115/35
f 101/110/30 103/112/32 99/108/28
f 99/108/28 103/112/32 105/114/34
f 105/114/34 107/116/36 99/108/28
f 107/116/36 105/114/34 106/115/35
f 108/117/37 107/116/36 106/115/35
f 108/117/37 106/115/35 104/113/33
f 104/113/33 109/118/38 108/117/37
f 102/111/31 109/118/38 104/113/33
f 109/118/38 102/111/31 110/119/39
f 96/105/27 110/119/39 102/111/31
f 110/119/39 96/105/27 111/120/40
f 111/120/40 96/105/27 82/91/16
f 82/91/16 84/93/16 111/120/40
f 84/93/16 112/121/41 111/120/40
f 84/93/16 85/94/16 112/121/41
f 86/95/16 112/121/41 85/94/16
f 112/121/41 86/95/16 100/109/29
f 86/95/16 93/102/25 100/109/29
f 100/109/29 99/108/28 107/116/36
f 113/122/42 100/109/29 107/116/36
f 100/109/29 113/122/42 112/121/41
f 111/120/40 112/121/41 113/122/42
f 111/120/40 113/122/42 110/119/39
f 110/119/39 113/122/42 109/118/38
f 109/118/38 113/122/42 108/117/37
f 107/116/36 108/117/37 113/122/42
f 40/123/43 114/124/43 115/125/43
f 114/124/43 40/123/43 46/126/43
f 46/127/44 116/128/44 114/129/44
f 46/127/44 45/130/44 116/128/44
f 12/131/44 117/132/44 13/133/44
f 117/132/44 12/131/44 39/134/44
f 117/135/2 11/136/2 13/137/2
f 11/136/2 117/135/2 118/138/2
f 118/139/45 6/140/45 11/141/45
f 6/140/45 118/139/45 41/142/45
f 8/143/44 115/144/44 10/145/44
f 115/144/44 8/143/44 40/146/44
f 116/147/46 47/148/46 119/149/46
f 116/147/46 45/150/46 47/148/46
f 49/151/47 120/152/47 51/153/47
f 120/152/47 49/151/47 121/154/47
f 51/155/44 122/156/44 50/157/44
f 122/156/44 51/155/44 120/158/44
f 123/159/1 124/160/1 48/161/1
f 48/161/1 43/162/1 123/159/1
f 44/163/44 123/164/44 43/165/44
f 123/164/44 44/163/44 125/166/44
f 54/167/44 121/168/44 49/169/44
f 121/168/44 54/167/44 126/170/44
f 122/171/1 52/172/1 50/173/1
f 52/172/1 122/171/1 127/174/1
f 120/175/2 127/176/2 122/177/2
f 127/176/2 120/175/2 128/178/2
f 120/175/2 126/179/2 128/178/2
f 126/179/2 120/175/2 121/180/2
f 129/181/48 30/182/48 130/183/48
f 30/182/48 129/181/48 38/184/48
f 31/185/46 131/186/46 132/187/46
f 131/186/46 31/185/46 32/188/46
f 131/189/45 15/190/45 22/191/45
f 15/190/45 131/189/45 32/192/45
f 131/193/2 21/194/2 132/195/2
f 21/194/2 131/193/2 22/196/2
f 130/197/45 16/198/45 18/199/45
f 16/198/45 130/197/45 30/200/45
f 133/201/49 23/202/49 27/203/49
f 23/202/49 133/201/49 134/204/49
f 27/205/45 2/206/45 133/207/45
f 2/206/45 27/205/45 3/208/45
f 135/209/45 35/210/45 29/211/45
f 35/210/45 135/209/45 136/212/45
f 137/213/2 136/214/2 135/215/2
f 135/215/2 138/216/2 137/213/2
f 24/217/44 137/218/44 138/219/44
f 138/219/44 25/220/44 24/217/44
f 134/221/45 26/222/45 23/223/45
f 26/222/45 134/221/45 139/224/45
f 140/225/50 141/226/51 19/227/52
f 5/228/53 140/225/50 19/227/52
f 140/225/50 5/228/53 142/229/54
f 5/228/53 143/230/55 142/229/54
f 143/230/55 5/228/53 7/231/56
f 144/232/57 143/230/55 7/231/56
f 145/233/58 146/234/59 147/235/60
f 147/235/60 148/236/61 145/233/58
f 148/236/61 147/235/60 149/237/5
f 150/238/62 148/236/61 149/237/5
f 150/238/62 149/237/5 151/239/16
f 152/240/63 150/238/62 151/239/16
f 151/239/16 153/241/16 152/240/63
f 153/241/16 154/242/16 152/240/63
f 153/241/16 140/225/50 154/242/16
f 142/229/54 154/242/16 140/225/50
f 154/242/16 142/229/54 155/243/16
f 142/229/54 156/244/16 155/243/16
f 156/244/16 142/229/54 143/230/55
f 143/230/55 157/245/16 156/244/16
f 148/236/61 150/238/62 158/246/64
f 150/238/62 159/247/65 158/246/64
f 159/247/65 150/238/62 152/240/63
f 160/248/66 159/247/65 152/240/63
f 152/240/63 154/242/16 160/248/66
f 154/242/16 155/243/16 160/248/66
f 161/249/67 158/246/64 159/247/65
f 162/250/68 141/226/51 91/100/24
f 141/226/51 140/225/50 91/100/24
f 91/100/24 140/225/50 98/107/16
f 98/107/16 140/225/50 153/241/16
f 163/251/16 98/107/16 153/241/16
f 153/241/16 151/239/16 163/251/16
f 151/239/16 157/245/16 163/251/16
f 151/239/16 149/237/5 157/245/16
f 156/244/16 157/245/16 149/237/5
f 156/244/16 149/237/5 147/235/60
f 155/243/16 156/244/16 147/235/60
f 147/235/60 146/234/59 155/243/16
f 160/248/66 155/243/16 146/234/59
f 146/234/59 164/252/69 160/248/66
f 159/247/65 160/248/66 164/252/69
f 164/252/69 165/253/70 159/247/65
f 159/247/65 165/253/70 161/249/67
f 165/253/70 166/254/71 161/249/67
f 158/246/64 161/249/67 166/254/71
f 167/255/72 158/246/64 166/254/71
f 158/246/64 167/255/72 148/236/61
f 168/256/73 148/236/61 167/255/72
f 145/233/58 148/236/61 168/256/73
f 168/256/73 169/257/74 145/233/58
f 146/234/59 145/233/58 169/257/74
f 164/252/69 146/234/59 169/257/74
f 169/257/74 165/253/70 164/252/69
f 165/253/70 169/257/74 170/258/75
f 166/254/71 165/253/70 170/258/75
f 168/256/73 166/254/71 170/258/75
f 166/254/71 168/256/73 167/255/72
f 169/257/74 168/256/73 170/258/75
f 72/81/16 73/82/18 171/259/16
f 171/259/16 73/82/18 172/260/16
f 171/259/16 172/260/16 173/261/76
f 173/261/76 172/260/16 174/262/77
f 173/261/76 174/262/77 175/263/78
f 176/264/79 175/263/78 174/262/77
f 176/264/79 177/265/80 175/263/78
f 178/266/81 177/265/80 176/264/79
f 176/264/79 179/267/62 178/266/81
f 179/267/62 180/268/82 178/266/81
f 180/268/82 179/267/62 181/269/83
f 182/270/16 181/269/83 179/267/62
f 182/270/16 183/271/16 181/269/83
f 184/272/84 183/271/16 182/270/16
f 183/271/16 184/272/84 162/250/68
f 185/273/85 162/250/68 184/272/84
f 162/250/68 185/273/85 186/274/86
f 141/226/51 162/250/68 186/274/86
f 175/263/78 177/265/80 187/275/87
f 177/265/80 178/266/81 188/276/71
f 178/266/81 189/277/88 188/276/71
f 189/277/88 178/266/81 180/268/82
f 180/268/82 190/278/89 189/277/88
f 181/269/83 190/278/89 180/268/82
f 181/269/83 191/279/26 190/278/89
f 183/271/16 191/279/26 181/269/83
f 191/279/26 183/271/16 192/280/16
f 162/250/68 192/280/16 183/271/16
f 162/250/68 193/281/16 192/280/16
f 91/100/24 193/281/16 162/250/68
f 193/281/16 91/100/24 194/282/16
f 91/100/24 89/98/16 194/282/16
f 89/98/16 68/77/16 194/282/16
f 90/99/23 68/77/16 89/98/16
f 68/77/16 90/99/23 67/76/15
f 60/69/8 67/76/15 90/99/23
f 67/76/15 60/69/8 59/68/7
f 189/277/88 190/278/89 195/283/90
f 196/284/91 195/283/90 190/278/89
f 195/283/90 196/284/91 197/285/75
f 197/285/75 189/277/88 195/283/90
f 189/277/88 197/285/75 188/276/71
f 190/278/89 198/286/92 196/284/91
f 198/286/92 190/278/89 191/279/26
f 191/279/26 199/287/16 198/286/92
f 192/280/16 199/287/16 191/279/26
f 192/280/16 200/288/16 199/287/16
f 193/281/16 200/288/16 192/280/16
f 201/289/23 200/288/16 193/281/16
f 193/281/16 202/290/93 201/289/23
f 193/281/16 194/282/16 202/290/93
f 194/282/16 203/291/16 202/290/93
f 194/282/16 68/77/16 203/291/16
f 68/77/16 70/79/16 203/291/16
f 203/291/16 70/79/16 204/292/76
f 70/79/16 72/81/16 204/292/76
f 203/291/16 204/292/76 205/293/94
f 206/294/67 207/295/95 208/296/96
f 209/297/97 208/296/96 207/295/95
f 207/295/95 205/293/94 209/297/97
f 205/293/94 210/298/98 209/297/97
f 210/298/98 205/293/94 204/292/76
f 204/292/76 211/299/5 210/298/98
f 204/292/76 72/81/16 211/299/5
f 72/81/16 200/288/16 211/299/5
f 171/259/16 200/288/16 72/81/16
f 200/288/16 171/259/16 199/287/16
f 199/287/16 171/259/16 173/261/76
f 199/287/16 173/261/76 198/286/92
f 175/263/78 198/286/92 173/261/76
f 198/286/92 175/263/78 196/284/91
f 187/275/87 196/284/91 175/263/78
f 196/284/91 187/275/87 197/285/75
f 177/265/80 197/285/75 187/275/87
f 197/285/75 177/265/80 188/276/71
f 202/290/93 203/291/16 205/293/94
f 205/293/94 207/295/95 202/290/93
f 201/289/23 202/290/93 207/295/95
f 201/289/23 207/295/95 212/300/99
f 212/300/99 213/301/100 201/289/23
f 213/301/100 212/300/99 214/302/101
f 215/303/102 213/301/100 214/302/101
f 214/302/101 216/304/72 215/303/102
f 215/303/102 216/304/72 210/298/98
f 210/298/98 216/304/72 217/305/103
f 217/305/103 209/297/97 210/298/98
f 209/297/97 217/305/103 218/306/104
f 208/296/96 209/297/97 218/306/104
f 219/307/71 208/296/96 218/306/104
f 208/296/96 219/307/71 206/294/67
f 214/302/101 206/294/67 219/307/71
f 206/294/67 214/302/101 212/300/99
f 212/300/99 207/295/95 206/294/67
f 218/306/104 217/305/103 219/307/71
f 219/307/71 217/305/103 216/304/72
f 216/304/72 214/302/101 219/307/71
f 215/303/102 210/298/98 211/299/5
f 213/301/100 215/303/102 211/299/5
f 213/301/100 211/299/5 200/288/16
f 200/288/16 201/289/23 213/301/100
f 220/308/16 71/80/17 83/92/16
f 179/267/62 176/264/79 174/262/77
f 179/267/62 174/262/77 182/270/16
f 172/260/16 182/270/16 174/262/77
f 172/260/16 184/272/84 182/270/16
f 184/272/84 172/260/16 73/82/18
f 73/82/18 185/273/85 184/272/84
f 185/273/85 73/82/18 221/309/105
f 73/82/18 144/232/57 221/309/105
f 144/232/57 73/82/18 71/80/17
f 143/230/55 144/232/57 71/80/17
f 143/230/55 71/80/17 220/308/16
f 143/230/55 220/308/16 157/245/16
f 163/251/16 157/245/16 220/308/16
f 163/251/16 220/308/16 222/310/76
f 222/310/76 223/311/106 163/251/16
f 224/312/78 223/311/106 222/310/76
f 223/311/106 224/312/78 225/313/91
f 226/314/87 225/313/91 224/312/78
f 225/313/91 226/314/87 227/315/107
f 227/315/107 226/314/87 228/316/108
f 228/316/108 229/317/109 227/315/107
f 228/316/108 230/318/110 229/317/109
f 230/318/110 231/319/111 229/317/109
f 231/319/111 230/318/110 232/320/112
f 232/320/112 233/321/90 231/319/111
f 234/322/89 233/321/90 232/320/112
f 225/313/91 233/321/90 234/322/89
f 234/322/89 223/311/106 225/313/91
f 223/311/106 234/322/89 235/323/26
f 235/323/26 163/251/16 223/311/106
f 98/107/16 163/251/16 235/323/26
f 236/324/63 98/107/16 235/323/26
f 97/106/16 98/107/16 236/324/63
f 237/325/16 97/106/16 236/324/63
f 97/106/16 237/325/16 82/91/16
f 237/325/16 83/92/16 82/91/16
f 231/319/111 227/315/107 229/317/109
f 233/321/90 227/315/107 231/319/111
f 233/321/90 225/313/91 227/315/107
f 230/318/110 228/316/108 238/326/113
f 226/314/87 238/326/113 228/316/108
f 224/312/78 238/326/113 226/314/87
f 222/310/76 238/326/113 224/312/78
f 222/310/76 239/327/5 238/326/113
f 220/308/16 239/327/5 222/310/76
f 220/308/16 83/92/16 239/327/5
f 237/325/16 239/327/5 83/92/16
f 240/328/114 239/327/5 237/325/16
f 236/324/63 240/328/114 237/325/16
f 232/320/112 240/328/114 236/324/63
f 235/323/26 232/320/112 236/324/63
f 232/320/112 235/323/26 234/322/89
f 240/328/114 238/326/113 239/327/5
f 238/326/113 240/328/114 230/318/110
f 240/328/114 232/320/112 230/318/110
f 39/329/46 41/330/46 117/331/46
f 117/331/46 41/330/46 118/332/46
f 114/333/2 10/334/2 115/335/2
f 10/334/2 114/333/2 9/336/2
f 119/337/2 9/336/2 114/333/2
f 114/333/2 116/338/2 119/337/2
f 4/339/2 133/340/2 2/341/2
f 133/340/2 4/339/2 241/342/2
f 139/343/2 133/340/2 241/342/2
f 133/340/2 139/343/2 134/344/2
f 125/345/2 242/346/2 123/347/2
f 123/347/2 242/346/2 124/348/2
f 242/349/45 53/350/45 124/351/45
f 124/351/45 53/350/45 48/352/45
f 9/353/45 119/354/45 47/355/45
f 9/353/45 47/355/45 7/356/45
f 47/355/45 144/357/45 7/356/45
f 47/355/45 42/358/45 144/357/45
f 42/358/45 52/359/45 144/357/45
f 221/360/45 144/357/45 52/359/45
f 128/361/45 221/360/45 52/359/45
f 128/361/45 52/359/45 127/362/45
f 137/363/46 35/364/46 136/365/46
f 24/366/46 35/364/46 137/363/46
f 24/366/46 185/367/46 35/364/46
f 185/367/46 34/368/46 35/364/46
f 185/367/46 44/369/46 34/368/46
f 185/367/46 53/370/46 44/369/46
f 44/369/46 53/370/46 242/371/46
f 242/371/46 125/372/46 44/369/46
f 54/373/46 128/374/46 126/375/46
f 128/374/46 54/373/46 221/376/46
f 221/376/46 54/373/46 53/370/46
f 53/370/46 185/367/46 221/376/46
f 185/367/46 24/366/46 186/377/46
f 186/377/46 24/366/46 26/378/46
f 26/378/46 241/379/46 186/377/46
f 241/379/46 26/378/46 139/380/46
f 129/381/45 243/382/45 38/383/45
f 243/382/45 36/384/45 38/383/45
f 31/385/44 132/386/44 20/387/44
f 20/387/44 132/386/44 21/388/44
f 36/389/46 243/390/46 37/391/46
f 244/392/46 37/391/46 243/390/46
f 138/393/1 135/394/1 25/395/1
f 25/395/1 135/394/1 29/396/1
f 243/397/2 129/398/2 244/399/2
f 17/400/2 244/399/2 129/398/2
f 129/398/2 18/401/2 17/400/2
f 18/401/2 129/398/2 130/402/2
f 37/403/44 244/404/44 17/405/44
f 19/406/44 37/403/44 17/405/44
f 19/406/44 141/407/44 37/403/44
f 37/403/44 141/407/44 28/408/44
f 141/407/44 1/409/44 28/408/44
f 141/407/44 186/410/44 1/409/44
f 186/410/44 241/411/44 1/409/44
f 1/409/44 241/411/44 4/412/44
