# Blender v2.82 (sub 7) OBJ File: ''
# www.blender.org
mtllib lockersShape_2.mtl
o lockersShape_0.001
v -0.847553 4.846603 1.086037
v -0.057959 4.846603 1.086037
v -0.847553 4.846603 -0.003763
v -0.020956 4.846603 -0.003763
v 0.020040 4.846603 1.086037
v 0.801540 4.846603 -0.003763
v 0.801540 4.846603 1.086037
v 0.801540 0.000603 1.086036
v 0.801540 0.000603 -0.003764
v 0.801540 1.644204 1.086036
v 0.801540 1.644204 -0.003763
v 0.801540 3.411504 1.086036
v 0.801540 3.411504 -0.003763
v 0.801540 4.846603 1.086037
v 0.801540 4.846603 -0.003763
v -0.847553 0.000603 -0.003764
v -0.847553 0.000603 1.086036
v -0.847553 1.644204 -0.003763
v -0.847553 1.644204 1.086036
v -0.847553 3.411504 -0.003763
v -0.847553 3.411504 1.086036
v -0.847553 4.846603 -0.003763
v -0.847553 4.846603 1.086037
v -0.057959 0.068503 1.086036
v 0.014139 0.068503 1.086036
v 0.014139 1.644303 1.086036
v -0.057959 1.644303 1.086036
v 0.014139 3.411404 1.086036
v -0.057959 3.411404 1.086036
v 0.014139 4.778703 1.086037
v -0.057959 4.778703 1.086037
v -0.847553 0.000603 1.086036
v -0.057959 0.000603 1.086036
v -0.785660 0.068503 1.086036
v -0.057959 0.068503 1.086036
v -0.847553 0.000603 1.086036
v -0.785660 0.068503 1.086036
v -0.785660 1.644303 1.086036
v -0.847553 1.644204 1.086036
v -0.785660 3.411404 1.086036
v -0.847553 3.411504 1.086036
v -0.785660 4.778703 1.086037
v -0.847553 4.846603 1.086037
v -0.057959 4.778703 1.086037
v -0.057959 4.846603 1.086037
v -0.057959 0.000603 1.086036
v 0.020040 0.000603 1.086036
v -0.057959 0.068503 1.086036
v 0.014139 0.068503 1.086036
v 0.801540 0.000603 1.086036
v 0.801540 1.644204 1.086036
v 0.739647 0.068503 1.086036
v 0.739647 1.644303 1.086036
v 0.801540 3.411504 1.086036
v 0.739647 3.411404 1.086036
v 0.801540 4.846603 1.086037
v 0.739647 4.778703 1.086037
v 0.020040 4.846603 1.086037
v -0.057959 4.846603 1.086037
v 0.014139 4.778703 1.086037
v -0.057959 4.778703 1.086037
v 0.020040 0.000603 1.086036
v 0.801540 0.000603 1.086036
v 0.014139 0.068503 1.086036
v 0.739647 0.068503 1.086036
v 0.801540 4.846603 1.086037
v 0.020040 4.846603 1.086037
v 0.739647 4.778703 1.086037
v 0.014139 4.778703 1.086037
v -0.785660 0.068503 1.086036
v -0.057959 0.068503 1.086036
v -0.785660 0.068503 0.217635
v -0.057959 0.068503 0.217635
v -0.057959 0.068503 1.086036
v -0.057959 1.644303 1.086036
v -0.057959 0.068503 0.217635
v -0.057959 1.644303 0.217635
v -0.057959 3.411404 1.086036
v -0.057959 3.411404 0.217635
v -0.057959 4.778703 1.086037
v -0.057959 4.778703 0.217636
v -0.785660 0.068503 1.086036
v -0.785660 0.068503 0.217635
v -0.785660 1.644303 0.217635
v -0.785660 1.644303 1.086036
v -0.785660 3.411404 0.217635
v -0.785660 3.411404 1.086036
v -0.785660 4.778703 0.217636
v -0.785660 4.778703 1.086037
v 0.739647 0.068503 1.086036
v 0.739647 1.644303 1.086036
v 0.739647 0.068503 0.217635
v 0.739647 1.644303 0.217635
v 0.739647 3.411404 1.086036
v 0.739647 3.411404 0.217635
v 0.739647 4.778703 1.086037
v 0.739647 4.778703 0.217636
v -0.057959 4.778703 1.086037
v -0.785660 4.778703 1.086037
v -0.057959 4.778703 0.217636
v -0.785660 4.778703 0.217636
v 0.014139 0.068503 1.086036
v 0.739647 0.068503 1.086036
v 0.014139 0.068503 0.217635
v 0.739647 0.068503 0.217635
v 0.014139 0.068503 1.086036
v 0.014139 0.068503 0.217635
v 0.014139 1.644303 0.217635
v 0.014139 1.644303 1.086036
v 0.014139 3.411404 0.217635
v 0.014139 3.411404 1.086036
v 0.014139 4.778703 0.217636
v 0.014139 4.778703 1.086037
v 0.739647 4.778703 1.086037
v 0.014139 4.778703 1.086037
v 0.739647 4.778703 0.217636
v 0.014139 4.778703 0.217636
v 0.014139 4.778703 0.217636
v 0.014139 3.411404 0.217635
v 0.739647 4.778703 0.217636
v 0.739647 3.411404 0.217635
v 0.014139 1.644303 0.217635
v 0.739647 1.644303 0.217635
v 0.014139 0.068503 0.217635
v 0.739647 0.068503 0.217635
v -0.785660 0.068503 0.217635
v -0.057959 0.068503 0.217635
v -0.057959 1.644303 0.217635
v -0.785660 1.644303 0.217635
v -0.057959 3.411404 0.217635
v -0.785660 3.411404 0.217635
v -0.057959 4.778703 0.217636
v -0.785660 4.778703 0.217636
v -0.022959 0.000603 -0.003764
v -0.847553 0.000603 -0.003764
v -0.847553 1.644204 -0.003763
v -0.022959 1.644204 -0.003763
v 0.801540 0.000603 -0.003764
v -0.847553 3.411504 -0.003763
v -0.022959 3.411504 -0.003763
v 0.801540 1.644204 -0.003763
v -0.847553 4.846603 -0.003763
v -0.020956 4.846603 -0.003763
v 0.801540 3.411504 -0.003763
v 0.801540 4.846603 -0.003763
v 0.801540 0.000603 1.086036
v 0.020040 0.000603 1.086036
v 0.801540 0.000603 -0.003764
v -0.022959 0.000603 -0.003764
v -0.057959 0.000603 1.086036
v -0.847553 0.000603 1.086036
v -0.847553 0.000603 -0.003764
v 0.830746 0.000603 -0.003764
v 0.830746 0.000603 1.086036
v 0.830746 1.644204 -0.003763
v 0.830746 1.644204 1.086036
v 0.830746 3.411504 -0.003763
v 0.830746 3.411504 1.086036
v 0.830746 4.846603 -0.003763
v 0.830746 4.846603 1.086037
v 0.083942 0.813303 0.688935
v 0.085438 0.035203 0.766737
v 0.720740 0.071804 1.119635
v 0.719238 0.849903 1.041836
v 0.080741 2.472304 0.522635
v 0.716043 2.508904 0.875536
v 0.077743 4.037604 0.365637
v 0.712944 4.074204 0.718738
v 0.711644 4.758604 0.649936
v 0.076342 4.722003 0.297038
v 0.104345 0.031904 0.733135
v 0.102843 0.810003 0.655136
v 0.739647 0.068503 1.086036
v 0.738145 0.846603 1.008037
v 0.099642 2.469004 0.488836
v 0.734944 2.505603 0.841738
v 0.096644 4.034204 0.332038
v 0.731839 4.070804 0.684936
v 0.730539 4.755304 0.616337
v 0.095243 4.718704 0.263436
v 0.095243 4.718704 0.263436
v 0.076342 4.722003 0.297038
v 0.711644 4.758604 0.649936
v 0.730539 4.755304 0.616337
v 0.085438 0.035203 0.766737
v 0.104345 0.031904 0.733135
v 0.720740 0.071804 1.119635
v 0.739647 0.068503 1.086036
v 0.739647 0.068503 1.086036
v 0.738145 0.846603 1.008037
v 0.720740 0.071804 1.119635
v 0.719238 0.849903 1.041836
v 0.734944 2.505603 0.841738
v 0.716043 2.508904 0.875536
v 0.731839 4.070804 0.684936
v 0.712944 4.074204 0.718738
v 0.711644 4.758604 0.649936
v 0.730539 4.755304 0.616337
v 0.104345 0.031904 0.733135
v 0.085438 0.035203 0.766737
v 0.083942 0.813303 0.688935
v 0.102843 0.810003 0.655136
v 0.099642 2.469004 0.488836
v 0.080741 2.472304 0.522635
v 0.096644 4.034204 0.332038
v 0.077743 4.037604 0.365637
v 0.076342 4.722003 0.297038
v 0.095243 4.718704 0.263436
v -0.817858 0.850503 1.064536
v -0.817858 0.068503 1.064536
v -1.222359 0.068503 1.669336
v -1.222359 0.850503 1.669336
v -0.817858 2.517803 1.064537
v -1.222359 2.517803 1.669336
v -0.817858 4.090904 1.064537
v -1.222359 4.090903 1.669336
v -1.222359 4.778703 1.669337
v -0.817858 4.778703 1.064537
v -0.785660 0.068503 1.086036
v -0.785660 0.850503 1.086036
v -1.190161 0.068503 1.690835
v -1.190161 0.850503 1.690835
v -0.785660 2.517803 1.086036
v -1.190161 2.517803 1.690835
v -0.785660 4.090904 1.086036
v -1.190161 4.090903 1.690836
v -1.190161 4.778703 1.690836
v -0.785660 4.778703 1.086037
v -0.785660 4.778703 1.086037
v -0.817858 4.778703 1.064537
v -1.190161 4.778703 1.690836
v -1.222359 4.778703 1.669337
v -0.817858 0.068503 1.064536
v -0.785660 0.068503 1.086036
v -1.222359 0.068503 1.669336
v -1.190161 0.068503 1.690835
v -1.190161 0.068503 1.690835
v -1.190161 0.850503 1.690835
v -1.222359 0.068503 1.669336
v -1.222359 0.850503 1.669336
v -1.190161 2.517803 1.690835
v -1.222359 2.517803 1.669336
v -1.222359 4.090903 1.669336
v -1.190161 4.090903 1.690836
v -1.222359 4.778703 1.669337
v -1.190161 4.778703 1.690836
v -0.785660 0.068503 1.086036
v -0.817858 0.068503 1.064536
v -0.817858 0.850503 1.064536
v -0.785660 0.850503 1.086036
v -0.817858 2.517803 1.064537
v -0.785660 2.517803 1.086036
v -0.817858 4.090904 1.064537
v -0.785660 4.090904 1.086036
v -0.817858 4.778703 1.064537
v -0.785660 4.778703 1.086037
vt 1.395192 -0.016451
vt 1.515929 -0.016451
vt 1.395192 -0.225570
vt 1.522348 -0.225570
vt 1.529466 -0.016451
vt 1.658192 -0.225570
vt 1.658192 -0.016451
vt 0.843237 -0.015050
vt 0.660289 -0.014814
vt 0.843237 -0.324590
vt 0.660289 -0.322804
vt 0.843237 -0.678310
vt 0.660289 -0.679304
vt 0.843237 -0.987620
vt 0.660289 -0.987620
vt 0.666266 -0.014338
vt 0.843237 -0.013547
vt 0.666266 -0.323872
vt 0.843237 -0.323743
vt 0.666266 -0.675032
vt 0.843237 -0.674903
vt 0.666266 -0.987620
vt 0.843237 -0.987620
vt 0.989080 -0.026808
vt 0.978688 -0.026808
vt 0.978688 -0.326152
vt 0.989080 -0.326152
vt 0.978688 -0.677305
vt 0.989080 -0.677305
vt 0.978688 -0.977823
vt 0.989080 -0.977823
vt 0.843237 -0.013547
vt 0.989042 -0.012755
vt 0.865627 -0.026231
vt 0.989042 -0.024278
vt 0.843237 -0.013547
vt 0.865627 -0.026231
vt 0.866898 -0.323614
vt 0.843237 -0.323743
vt 0.865627 -0.674774
vt 0.843237 -0.674903
vt 0.864357 -0.977823
vt 0.843237 -0.987620
vt 0.989042 -0.977823
vt 0.989042 -0.987620
vt 0.989080 -0.015285
vt 0.978688 -0.015285
vt 0.989080 -0.026808
vt 0.978688 -0.026808
vt 0.843237 -0.015050
vt 0.843237 -0.324590
vt 0.865627 -0.026808
vt 0.866898 -0.326152
vt 0.843237 -0.678310
vt 0.865627 -0.677305
vt 0.843237 -0.987620
vt 0.864357 -0.977823
vt 0.978688 -0.987620
vt 0.989080 -0.987620
vt 0.978688 -0.977823
vt 0.989080 -0.977823
vt 0.978688 -0.015285
vt 0.843237 -0.015050
vt 0.978688 -0.026808
vt 0.865627 -0.026808
vt 0.843237 -0.987620
vt 0.978688 -0.987620
vt 0.864357 -0.977823
vt 0.978688 -0.977823
vt 0.878033 -0.046995
vt 0.969458 -0.046996
vt 0.878031 -0.171134
vt 0.969456 -0.171135
vt -0.344998 0.968942
vt -0.344998 0.653696
vt -0.448266 0.968942
vt -0.448266 0.653696
vt -0.344998 0.300183
vt -0.448266 0.300183
vt -0.344998 0.026633
vt -0.448266 0.026633
vt 0.536580 0.961459
vt 0.627975 0.961459
vt 0.627975 0.657560
vt 0.536580 0.657560
vt 0.627975 0.316847
vt 0.530041 0.316847
vt 0.627975 0.053201
vt 0.536580 0.053201
vt 0.963205 0.940168
vt 0.963205 0.646266
vt 0.877580 0.940168
vt 0.877580 0.646266
vt 0.963205 0.316687
vt 0.877580 0.316687
vt 0.963205 0.057608
vt 0.877580 0.057608
vt 0.969456 -0.977823
vt 0.879303 -0.977823
vt 0.969456 -0.839103
vt 0.878031 -0.839103
vt 0.415607 -0.053768
vt 0.506570 -0.053768
vt 0.415610 -0.177996
vt 0.506573 -0.177996
vt -0.154178 0.970400
vt -0.259460 0.970400
vt -0.259460 0.658814
vt -0.154178 0.658814
vt -0.259460 0.309405
vt -0.154178 0.309405
vt -0.259460 0.039031
vt -0.154178 0.039031
vt 0.506576 -0.968149
vt 0.415613 -0.968149
vt 0.506573 -0.845157
vt 0.415610 -0.845157
vt 0.415610 -0.845157
vt 0.415610 -0.651481
vt 0.506573 -0.845157
vt 0.506573 -0.651481
vt 0.415610 -0.401191
vt 0.506573 -0.401191
vt 0.415610 -0.177996
vt 0.506573 -0.177996
vt 0.878031 -0.171134
vt 0.969456 -0.171135
vt 0.969456 -0.396413
vt 0.878031 -0.396413
vt 0.969456 -0.645429
vt 0.878031 -0.645429
vt 0.969456 -0.839103
vt 0.878031 -0.839103
vt 0.524040 -0.014814
vt 0.383091 -0.014814
vt 0.383091 -0.323195
vt 0.524040 -0.323195
vt 0.660289 -0.014814
vt 0.383091 -0.679946
vt 0.524040 -0.679946
vt 0.660289 -0.322804
vt 0.383091 -0.987620
vt 0.524383 -0.987620
vt 0.660289 -0.679304
vt 0.660289 -0.987620
vt 1.395192 -0.017178
vt 1.515727 -0.017178
vt 1.395192 -0.225570
vt 1.522838 -0.225570
vt 1.528618 -0.017178
vt 1.657975 -0.017178
vt 1.659030 -0.225570
vt 0.666266 -0.014338
vt 0.843237 -0.013547
vt 0.666266 -0.323872
vt 0.843237 -0.323743
vt 0.666266 -0.675032
vt 0.843237 -0.674903
vt 0.666266 -0.987620
vt 0.843237 -0.987620
vt 0.194661 0.825417
vt 0.194661 0.969816
vt 0.362875 0.969816
vt 0.362875 0.825417
vt 0.194661 0.496527
vt 0.362875 0.496527
vt 0.194661 0.171472
vt 0.362875 0.171472
vt 0.362875 0.030908
vt 0.194661 0.030908
vt 0.508992 0.969816
vt 0.508992 0.825417
vt 0.659129 0.969816
vt 0.659129 0.825417
vt 0.508992 0.496527
vt 0.659129 0.496527
vt 0.508992 0.171472
vt 0.659129 0.171472
vt 0.659129 0.030908
vt 0.508992 0.030908
vt 0.194661 0.017058
vt 0.194661 0.030908
vt 0.362875 0.030908
vt 0.362875 0.017058
vt 0.194661 0.969816
vt 0.194661 1.001856
vt 0.362875 0.969816
vt 0.362875 1.001856
vt 0.384833 0.969816
vt 0.384833 0.825417
vt 0.362875 0.969816
vt 0.362875 0.825417
vt 0.384833 0.496527
vt 0.362875 0.496527
vt 0.384833 0.171472
vt 0.362875 0.171472
vt 0.362875 0.030908
vt 0.384833 0.030908
vt 0.177686 0.969816
vt 0.194661 0.969816
vt 0.194661 0.825417
vt 0.177686 0.825417
vt 0.177686 0.496527
vt 0.194661 0.496527
vt 0.177686 0.171472
vt 0.194661 0.171472
vt 0.194661 0.030908
vt 0.177686 0.030908
vt 0.179907 0.825417
vt 0.179907 0.969816
vt 0.011827 0.969816
vt 0.011827 0.825417
vt 0.179907 0.497661
vt 0.011827 0.497661
vt 0.179907 0.173092
vt 0.011827 0.173092
vt 0.011827 0.031881
vt 0.179907 0.031881
vt 0.659129 0.969816
vt 0.659129 0.825417
vt 0.508992 0.969816
vt 0.508992 0.825417
vt 0.659129 0.497661
vt 0.508992 0.497661
vt 0.659129 0.173092
vt 0.508992 0.173092
vt 0.508992 0.031881
vt 0.659129 0.031881
vt 0.178102 0.000309
vt 0.179907 0.031881
vt 0.011827 0.000309
vt 0.011827 0.031881
vt 0.179907 0.969816
vt 0.179834 0.989359
vt 0.011827 0.969816
vt 0.011827 0.989359
vt 0.000483 0.969816
vt 0.000483 0.825417
vt 0.011827 0.969816
vt 0.011827 0.825417
vt 0.000483 0.497661
vt 0.011827 0.497661
vt 0.011827 0.173092
vt 0.000483 0.173092
vt 0.011827 0.031881
vt 0.000483 0.031881
vt 0.197193 0.969816
vt 0.179907 0.969816
vt 0.179907 0.825417
vt 0.197194 0.825417
vt 0.179907 0.497661
vt 0.197194 0.497661
vt 0.179907 0.173092
vt 0.197194 0.173092
vt 0.179907 0.031881
vt 0.197194 0.031881
vn 0.0000 1.0000 0.0000
vn 1.0000 0.0000 0.0000
vn -1.0000 0.0000 0.0000
vn 0.0000 -0.0000 1.0000
vn 0.0003 -0.0000 1.0000
vn 0.0000 -1.0000 0.0000
vn 0.0000 0.0000 -1.0000
vn -0.4876 0.0860 0.8688
vn -0.4876 0.0859 0.8688
vn -0.4876 0.0862 0.8688
vn -0.4877 0.0862 0.8687
vn -0.4878 0.0862 0.8687
vn -0.4874 0.0860 0.8689
vn -0.4876 0.0861 0.8688
vn 0.4876 -0.0862 -0.8688
vn 0.4876 -0.0861 -0.8688
vn -0.0018 0.9950 -0.0999
vn 0.0018 -0.9950 0.1000
vn 0.0018 -0.9950 0.0998
vn 0.8731 0.0503 0.4850
vn 0.8730 0.0503 0.4851
vn 0.8733 0.0503 0.4846
vn 0.8729 0.0503 0.4853
vn 0.8731 0.0503 0.4849
vn 0.8730 0.0504 0.4851
vn -0.8728 -0.0503 -0.4855
vn -0.8729 -0.0503 -0.4852
vn -0.8730 -0.0503 -0.4852
vn -0.8730 -0.0503 -0.4851
vn -0.8733 -0.0503 -0.4846
vn -0.8732 -0.0503 -0.4847
vn -0.8731 -0.0503 -0.4850
vn -0.8731 -0.0503 -0.4849
vn -0.8312 0.0000 -0.5559
vn 0.8312 0.0000 0.5559
vn -0.5564 -0.0000 0.8309
vn -0.5557 -0.0000 0.8314
vn -0.5563 -0.0000 0.8310
vn -0.5558 -0.0000 0.8313
vn -0.5553 -0.0000 0.8316
vn -0.5568 -0.0000 0.8307
vn -0.5566 -0.0000 0.8308
vn 0.5564 0.0000 -0.8309
vn 0.5563 0.0000 -0.8310
vn 0.5559 0.0000 -0.8313
vn 0.5557 0.0000 -0.8314
usemtl t1/levels/hunter-city/hun-underpass/props/hun-locker-metal:defa
s 1
f 1/1/1 2/2/1 3/3/1
f 2/2/1 4/4/1 3/3/1
f 4/4/1 2/2/1 5/5/1
f 4/4/1 5/5/1 6/6/1
f 5/5/1 7/7/1 6/6/1
f 8/8/2 9/9/2 10/10/2
f 9/9/2 11/11/2 10/10/2
f 10/10/2 11/11/2 12/12/2
f 11/11/2 13/13/2 12/12/2
f 12/12/2 13/13/2 14/14/2
f 13/13/2 15/15/2 14/14/2
f 16/16/3 17/17/3 18/18/3
f 17/17/3 19/19/3 18/18/3
f 18/18/3 19/19/3 20/20/3
f 19/19/3 21/21/3 20/20/3
f 20/20/3 21/21/3 22/22/3
f 21/21/3 23/23/3 22/22/3
f 24/24/4 25/25/4 26/26/4
f 27/27/4 24/24/4 26/26/4
f 27/27/4 26/26/4 28/28/4
f 29/29/4 27/27/4 28/28/4
f 29/29/4 28/28/4 30/30/4
f 31/31/4 29/29/4 30/30/4
f 32/32/4 33/33/4 34/34/4
f 33/33/4 35/35/4 34/34/4
f 36/36/4 37/37/4 38/38/4
f 39/39/4 36/36/4 38/38/4
f 39/39/4 38/38/4 40/40/4
f 41/41/4 39/39/4 40/40/4
f 41/41/4 40/40/4 42/42/4
f 43/43/4 41/41/4 42/42/4
f 43/43/4 42/42/4 44/44/4
f 45/45/4 43/43/4 44/44/4
f 46/46/4 47/47/4 48/48/4
f 47/47/4 49/49/4 48/48/4
f 50/50/4 51/51/4 52/52/4
f 51/51/4 53/53/4 52/52/4
f 51/51/4 54/54/4 53/53/4
f 54/54/4 55/55/4 53/53/4
f 54/54/4 56/56/5 55/55/4
f 56/56/5 57/57/4 55/55/4
f 58/58/4 59/59/4 60/60/4
f 59/59/4 61/61/4 60/60/4
f 62/62/4 63/63/4 64/64/4
f 63/63/4 65/65/4 64/64/4
f 66/66/4 67/67/4 68/68/4
f 67/67/4 69/69/4 68/68/4
f 70/70/1 71/71/1 72/72/1
f 71/71/1 73/73/1 72/72/1
f 74/74/3 75/75/3 76/76/3
f 75/75/3 77/77/3 76/76/3
f 75/75/3 78/78/3 77/77/3
f 78/78/3 79/79/3 77/77/3
f 78/78/3 80/80/3 79/79/3
f 80/80/3 81/81/3 79/79/3
f 82/82/2 83/83/2 84/84/2
f 85/85/2 82/82/2 84/84/2
f 85/85/2 84/84/2 86/86/2
f 87/87/2 85/85/2 86/86/2
f 87/87/2 86/86/2 88/88/2
f 89/89/2 87/87/2 88/88/2
f 90/90/3 91/91/3 92/92/3
f 91/91/3 93/93/3 92/92/3
f 91/91/3 94/94/3 93/93/3
f 94/94/3 95/95/3 93/93/3
f 94/94/3 96/96/3 95/95/3
f 96/96/3 97/97/3 95/95/3
f 98/98/6 99/99/6 100/100/6
f 99/99/6 101/101/6 100/100/6
f 102/102/1 103/103/1 104/104/1
f 103/103/1 105/105/1 104/104/1
f 106/106/2 107/107/2 108/108/2
f 109/109/2 106/106/2 108/108/2
f 109/109/2 108/108/2 110/110/2
f 111/111/2 109/109/2 110/110/2
f 111/111/2 110/110/2 112/112/2
f 113/113/2 111/111/2 112/112/2
f 114/114/6 115/115/6 116/116/6
f 115/115/6 117/117/6 116/116/6
f 118/118/4 119/119/4 120/120/4
f 119/119/4 121/121/4 120/120/4
f 119/119/4 122/122/4 121/121/4
f 122/122/4 123/123/4 121/121/4
f 122/122/4 124/124/4 123/123/4
f 124/124/4 125/125/4 123/123/4
f 126/126/4 127/127/4 128/128/4
f 129/129/4 126/126/4 128/128/4
f 129/129/4 128/128/4 130/130/4
f 131/131/4 129/129/4 130/130/4
f 131/131/4 130/130/4 132/132/4
f 133/133/4 131/131/4 132/132/4
f 134/134/7 135/135/7 136/136/7
f 137/137/7 134/134/7 136/136/7
f 138/138/7 134/134/7 137/137/7
f 137/137/7 136/136/7 139/139/7
f 140/140/7 137/137/7 139/139/7
f 141/141/7 137/137/7 140/140/7
f 141/141/7 138/138/7 137/137/7
f 140/140/7 139/139/7 142/142/7
f 143/143/7 140/140/7 142/142/7
f 144/144/7 140/140/7 143/143/7
f 144/144/7 141/141/7 140/140/7
f 145/145/7 144/144/7 143/143/7
f 146/146/6 147/147/6 148/148/6
f 147/147/6 149/149/6 148/148/6
f 150/150/6 149/149/6 147/147/6
f 150/150/6 151/151/6 149/149/6
f 151/151/6 152/152/6 149/149/6
f 153/153/3 154/154/3 155/155/3
f 154/154/3 156/156/3 155/155/3
f 155/155/3 156/156/3 157/157/3
f 156/156/3 158/158/3 157/157/3
f 157/157/3 158/158/3 159/159/3
f 158/158/3 160/160/3 159/159/3
f 161/161/8 162/162/9 163/163/9
f 164/164/8 161/161/8 163/163/9
f 165/165/10 161/161/8 164/164/8
f 166/166/10 165/165/10 164/164/8
f 167/167/11 165/165/10 166/166/10
f 168/168/12 167/167/11 166/166/10
f 167/167/11 168/168/12 169/169/13
f 170/170/14 167/167/11 169/169/13
f 171/171/15 172/172/15 173/173/15
f 172/172/15 174/174/15 173/173/15
f 174/174/15 172/172/15 175/175/16
f 176/176/16 174/174/15 175/175/16
f 176/176/16 175/175/16 177/177/16
f 178/178/16 176/176/16 177/177/16
f 178/178/16 177/177/16 179/179/16
f 177/177/16 180/180/16 179/179/16
f 181/181/17 182/182/17 183/183/17
f 181/181/17 183/183/17 184/184/17
f 185/185/18 186/186/18 187/187/19
f 186/186/18 188/188/19 187/187/19
f 189/189/20 190/190/21 191/191/20
f 190/190/21 192/192/21 191/191/20
f 192/192/21 190/190/21 193/193/22
f 194/194/22 192/192/21 193/193/22
f 194/194/22 193/193/22 195/195/23
f 196/196/23 194/194/22 195/195/23
f 196/196/23 195/195/23 197/197/24
f 195/195/23 198/198/25 197/197/24
f 199/199/26 200/200/27 201/201/28
f 202/202/29 199/199/26 201/201/28
f 203/203/30 202/202/29 201/201/28
f 204/204/31 203/203/30 201/201/28
f 205/205/32 203/203/30 204/204/31
f 206/206/33 205/205/32 204/204/31
f 205/205/32 206/206/33 207/207/31
f 208/208/31 205/205/32 207/207/31
f 209/209/34 210/210/34 211/211/34
f 212/212/34 209/209/34 211/211/34
f 213/213/34 209/209/34 212/212/34
f 214/214/34 213/213/34 212/212/34
f 215/215/34 213/213/34 214/214/34
f 216/216/34 215/215/34 214/214/34
f 215/215/34 216/216/34 217/217/34
f 218/218/34 215/215/34 217/217/34
f 219/219/35 220/220/35 221/221/35
f 220/220/35 222/222/35 221/221/35
f 222/222/35 220/220/35 223/223/35
f 224/224/35 222/222/35 223/223/35
f 224/224/35 223/223/35 225/225/35
f 226/226/35 224/224/35 225/225/35
f 226/226/35 225/225/35 227/227/35
f 225/225/35 228/228/35 227/227/35
f 229/229/1 230/230/1 231/231/1
f 230/230/1 232/232/1 231/231/1
f 233/233/6 234/234/6 235/235/6
f 234/234/6 236/236/6 235/235/6
f 237/237/36 238/238/37 239/239/38
f 238/238/37 240/240/37 239/239/38
f 240/240/37 238/238/37 241/241/39
f 242/242/39 240/240/37 241/241/39
f 243/243/40 242/242/39 241/241/39
f 243/243/40 241/241/39 244/244/40
f 243/243/40 244/244/40 245/245/41
f 244/244/40 246/246/42 245/245/41
f 247/247/43 248/248/44 249/249/45
f 250/250/45 247/247/43 249/249/45
f 251/251/46 250/250/45 249/249/45
f 251/251/46 252/252/45 250/250/45
f 253/253/43 252/252/45 251/251/46
f 253/253/43 254/254/43 252/252/45
f 254/254/43 253/253/43 255/255/43
f 256/256/44 254/254/43 255/255/43
