# This file uses centimeters as units for non-parametric coordinates.

g default
v 2.029576 -0.000000 -5.599466
v 3.223636 -0.000000 -3.584734
v 4.410438 -0.000000 -1.311253
v 4.507455 -0.000000 0.697870
v 3.516746 -0.000000 3.141558
v 2.448703 -0.000000 4.745350
v 0.667413 0.000000 4.897943
v -1.495744 0.000000 3.988706
v -2.282208 0.000000 1.810199
v -2.507455 0.000000 -0.000690
v -1.943994 0.000000 -4.493331
v -1.935346 0.000000 -6.447361
v -0.909265 0.000000 -6.897943
v 0.525046 0.000000 -6.551249
v 1.972274 0.380995 -5.343479
v 3.025998 0.608435 -3.355002
v 3.907542 1.009426 -1.265357
v 3.896394 1.192616 0.402071
v 3.226001 1.355521 2.395726
v 2.022002 1.567466 4.109384
v 0.751563 1.732050 4.116175
v -0.723079 1.518748 3.573618
v -1.718564 1.175560 1.327613
v -1.742198 0.770348 -0.141413
v -1.624997 0.337124 -4.321294
v -1.638314 0.177198 -6.284996
v -0.842267 0.240213 -6.690981
v 0.541160 0.232234 -6.362924
v 0.756349 0.543103 -3.202862
v 1.316669 1.029396 -0.380301
v 1.261207 1.476127 1.948411
vt 0.404160 0.609221
vt 0.434844 0.691053
vt 0.308159 0.797546
vt 0.234206 0.691287
vt 0.011464 0.448735
vt 0.036536 0.463231
vt 0.052326 0.603032
vt 0.009575 0.598552
vt 0.087539 0.735796
vt 0.025433 0.761390
vt 0.144616 0.810363
vt 0.093751 0.872891
vt 0.239205 0.875244
vt 0.229078 0.963126
vt 0.337682 0.902250
vt 0.343197 0.991079
vt 0.383619 0.871489
vt 0.443324 0.946139
vt 0.432611 0.819068
vt 0.523971 0.830885
vt 0.514759 0.690250
vt 0.465620 0.579245
vt 0.258863 0.390907
vt 0.275933 0.364718
vt 0.190339 0.287536
vt 0.201230 0.265734
vt 0.135140 0.295256
vt 0.128223 0.276136
vt 0.073965 0.359781
vt 0.061925 0.344826
vt 0.172048 0.530792
vn -0.273552 0.951019 -0.143985
vn -0.402478 0.913553 -0.058590
vn -0.015428 0.989253 -0.145398
vn -0.045755 0.986592 -0.156659
vn 0.647200 0.489815 -0.584135
vn 0.267511 0.919532 -0.287923
vn 0.217632 0.940418 -0.261249
vn 0.793845 0.422874 -0.437021
vn 0.338874 0.917769 -0.207038
vn 0.868889 0.442928 -0.221013
vn 0.483053 0.875584 0.003455
vn 0.879677 0.439656 0.181304
vn 0.480539 0.866319 0.136288
vn 0.801421 0.424803 0.421030
vn 0.356021 0.803521 0.477078
vn 0.493670 0.449205 0.744651
vn -0.105804 0.900591 0.421593
vn -0.171196 0.412113 0.894905
vn -0.407581 0.858462 0.311321
vn -0.660747 0.491507 0.567304
vn -0.826349 0.522975 0.208912
vn -0.762193 0.644911 -0.056140
vn -0.259414 0.960575 -0.100000
vn -0.691162 0.718736 -0.075583
vn -0.175825 0.979807 -0.095205
vn -0.564062 0.805196 -0.183013
vn -0.041056 0.985173 -0.166581
vn -0.046922 0.711355 -0.701265
vn 0.102900 0.957232 -0.270405
vn 0.318998 0.583500 -0.746839
vn -0.055084 0.990314 -0.127451
s 1
g Hill_02
f 24/1/1 23/2/2 31/3/3 30/4/4
f 1/5/5 15/6/6 16/7/7 2/8/8
f 2/8/8 16/7/7 17/9/9 3/10/10
f 3/10/10 17/9/9 18/11/11 4/12/12
f 4/12/12 18/11/11 19/13/13 5/14/14
f 5/14/14 19/13/13 20/15/15 6/16/16
f 6/16/16 20/15/15 21/17/17 7/18/18
f 7/18/18 21/17/17 22/19/19 8/20/20
f 8/20/20 22/19/19 23/2/2 9/21/21
f 9/21/21 23/2/2 24/1/1 10/22/22
f 10/22/22 24/1/1 25/23/23 11/24/24
f 11/24/24 25/23/23 26/25/25 12/26/26
f 12/26/26 26/25/25 27/27/27 13/28/28
f 13/28/28 27/27/27 28/29/29 14/30/30
f 14/30/30 28/29/29 15/6/6 1/5/5
f 30/4/4 31/3/3 19/13/13 18/11/11
f 31/3/3 21/17/17 20/15/15 19/13/13
f 23/2/2 22/19/19 21/17/17 31/3/3
f 27/27/27 26/25/25 25/23/23 29/31/31
f 28/29/29 27/27/27 29/31/31
f 30/4/4 18/11/11 17/9/9
f 29/31/31 30/4/4 17/9/9 16/7/7
f 25/23/23 24/1/1 30/4/4 29/31/31
f 15/6/6 29/31/31 16/7/7
f 15/6/6 28/29/29 29/31/31
