# Blender v3.2.0 OBJ File: 'X Base.blend'
# www.blender.org
mtllib COLLISION tall 25mm figure.mtl
o Cube.002_Cube.006
v 0.281433 0.000000 -0.281433
v 0.281433 0.000000 0.281433
v -0.281433 0.000000 -0.281433
v -0.281433 0.000000 0.281433
v -0.281433 0.000000 -0.281433
v -0.281433 0.000000 0.281433
v 0.281433 0.000000 -0.281433
v 0.281433 0.000000 0.281433
v -0.281433 2.800000 -0.281433
v -0.281433 2.800000 0.281433
v 0.281433 2.800000 -0.281433
v 0.281433 2.800000 0.281433
vt 0.000000 0.000000
vt 0.001000 0.000000
vt 0.001000 0.001000
vt 0.000000 0.001000
vt 0.000000 0.000000
vt 0.000000 0.000000
vt 0.001000 0.000000
vt 0.001000 0.000000
vt 0.001000 0.001000
vt 0.000000 0.001000
vt 0.000000 0.001000
vt 0.001000 0.001000
vn 0.0000 -1.0000 0.0000
vn 0.0000 0.0000 -1.0000
vn 0.0000 0.0000 1.0000
vn 0.0000 1.0000 0.0000
vn -1.0000 0.0000 0.0000
vn 1.0000 0.0000 0.0000
usemtl Material
s off
f 3/1/1 1/2/1 2/3/1 4/4/1
f 5/5/2 9/6/2 11/7/2 7/8/2
f 1/2/3 7/8/3 8/9/3 2/3/3
f 3/1/3 5/5/3 7/8/3 1/2/3
f 2/3/3 8/9/3 6/10/3 4/4/3
f 4/4/3 6/10/3 5/5/3 3/1/3
f 9/6/4 10/11/4 12/12/4 11/7/4
f 8/9/3 12/12/3 10/11/3 6/10/3
f 6/10/5 10/11/5 9/6/5 5/5/5
f 7/8/6 11/7/6 12/12/6 8/9/6
