# Blender v2.91.0 OBJ File: ''
# www.blender.org
mtllib Ussr.mtl
o Plane.001
v 0.378811 0.256147 0.006826
v 0.372749 0.254355 -0.005853
v 0.072323 0.256147 0.153355
v 0.066261 0.254355 0.140676
v 0.467901 0.271950 0.053980
v 0.389743 0.271950 -0.092384
v -0.011756 0.271950 0.099569
v 0.053081 0.271950 0.252301
v 0.064952 0.252309 0.255348
v 0.462818 0.252309 0.065132
v 0.374542 0.246124 -0.088553
v 0.000770 0.246124 0.090144
vt 0.833745 0.669704
vt 0.810549 0.656164
vt 0.810549 0.532818
vt 0.833745 0.519279
vt 0.924405 0.674552
vt 0.918560 0.677963
vt 0.918560 0.511019
vt 0.924405 0.514431
vt 0.843304 0.675283
vt 0.843304 0.513700
vt 0.955907 0.656164
vt 0.955908 0.532819
vn -0.3961 -0.3959 -0.8285
vn 0.0478 -0.9938 0.1000
vn 0.4250 -0.1710 0.8889
vn 0.2071 0.8772 0.4332
vn -0.2198 0.8604 -0.4597
vn -0.0186 -0.9991 -0.0389
usemtl Boxes
s 1
f 11/1/1 2/2/2 4/3/2 12/4/1
f 10/5/3 5/6/4 8/7/4 9/8/3
f 5/6/4 6/9/5 7/10/5 8/7/4
f 1/11/6 10/5/3 9/8/3 3/12/6
f 6/9/5 11/1/1 12/4/1 7/10/5
o Cube.004_Mesh
v 1.626522 0.632118 0.896257
v 1.627161 0.630242 0.887649
v 1.621400 0.636334 0.890425
v 1.628637 0.631525 0.892011
v 1.626873 0.634766 0.891173
v 1.625015 0.634506 0.887888
v 1.624563 0.635834 0.893974
v 1.537239 0.590554 0.788136
v 1.528569 0.588887 0.787856
v 1.531477 0.596647 0.790912
v 1.533036 0.589332 0.786214
v 1.532314 0.593033 0.786529
v 1.528962 0.593640 0.788177
v 1.535093 0.594819 0.788374
v 1.165351 0.642475 1.308851
v 1.160228 0.646691 1.303019
v 1.156681 0.640808 1.308571
v 1.163392 0.646190 1.306568
v 1.160327 0.645244 1.308575
v 1.157262 0.645011 1.306370
v 1.160884 0.642030 1.310493
v 1.067398 0.599244 1.200450
v 1.066759 0.601120 1.209058
v 1.070306 0.607004 1.203506
v 1.065283 0.599837 1.204696
v 1.065768 0.603510 1.203931
v 1.067339 0.605324 1.206857
v 1.067791 0.603997 1.200770
v 1.736223 0.038758 1.033769
v 1.733315 0.030998 1.030713
v 1.736862 0.036881 1.025161
v 1.735830 0.034005 1.033448
v 1.737853 0.034492 1.030288
v 1.736282 0.032678 1.027362
v 1.738338 0.038165 1.029523
v 1.638270 -0.004473 0.925368
v 1.646940 -0.002806 0.925648
v 1.643393 -0.008689 0.931200
v 1.642738 -0.004028 0.923725
v 1.643294 -0.007242 0.925644
v 1.646360 -0.007009 0.927849
v 1.640229 -0.008189 0.927651
v 1.275052 0.049115 1.446362
v 1.266383 0.047447 1.446083
v 1.272144 0.041355 1.443307
v 1.270585 0.048670 1.448005
v 1.271307 0.044969 1.447690
v 1.268529 0.043183 1.445844
v 1.274659 0.044362 1.446042
v 1.177099 0.005884 1.337962
v 1.182221 0.001668 1.343793
v 1.176460 0.007760 1.346570
v 1.179058 0.002168 1.340245
v 1.176748 0.003236 1.343045
v 1.178606 0.003495 1.346331
v 1.174984 0.006476 1.342208
vt 0.841544 0.861068
vt 0.872810 0.864020
vt 0.872810 0.983783
vt 0.841544 0.983768
vt 0.839190 0.822553
vt 0.839190 0.857004
vt 0.713967 0.857004
vt 0.713967 0.822553
vt 0.839190 0.695809
vt 0.839190 0.819764
vt 0.713967 0.819764
vt 0.713967 0.695809
vt 0.872963 0.819764
vt 0.841843 0.819764
vt 0.841843 0.695809
vt 0.872962 0.695809
vt 0.709866 0.983748
vt 0.680814 0.983748
vt 0.680813 0.859793
vt 0.709866 0.859793
vt 0.838872 0.983758
vt 0.840148 0.983760
vt 0.840148 0.984475
vt 0.838872 0.984999
vt 0.841544 0.984999
vt 0.840738 0.984999
vt 0.874352 0.819764
vt 0.874352 0.820486
vt 0.872962 0.821015
vt 0.874206 0.983792
vt 0.874206 0.984489
vt 0.872810 0.984999
vt 0.713967 0.821015
vt 0.713238 0.821015
vt 0.712703 0.819764
vt 0.841843 0.821015
vt 0.841041 0.821015
vt 0.840453 0.819764
vt 0.712439 0.983750
vt 0.712439 0.984999
vt 0.711703 0.984999
vt 0.711163 0.983748
vt 0.872962 0.694558
vt 0.873765 0.694558
vt 0.874352 0.695809
vt 0.711164 0.984470
vt 0.709866 0.984999
vt 0.840453 0.819764
vt 0.840453 0.820486
vt 0.839190 0.821015
vt 0.680814 0.984999
vt 0.680065 0.984999
vt 0.679516 0.983748
vt 0.840453 0.695809
vt 0.840453 0.695087
vt 0.841843 0.694558
vt 0.838872 0.860935
vt 0.838872 0.859693
vt 0.839608 0.859700
vt 0.840148 0.860944
vt 0.712703 0.822553
vt 0.712703 0.821665
vt 0.713967 0.821015
vt 0.840148 0.860229
vt 0.841544 0.859837
vt 0.712703 0.695809
vt 0.712703 0.695087
vt 0.713967 0.694558
vt 0.872810 0.862804
vt 0.873616 0.862881
vt 0.874206 0.864144
vt 0.713967 0.858542
vt 0.713238 0.858542
vt 0.712703 0.857004
vt 0.712439 0.859803
vt 0.711164 0.859793
vt 0.711164 0.859071
vt 0.712439 0.858554
vt 0.709866 0.858542
vt 0.710615 0.858542
vt 0.839190 0.821015
vt 0.839919 0.821015
vt 0.840453 0.822553
vt 0.839190 0.694558
vt 0.839919 0.694558
vt 0.840453 0.695809
vt 0.840453 0.857004
vt 0.840453 0.857892
vt 0.839190 0.858542
vt 0.679516 0.859793
vt 0.679516 0.859071
vt 0.680814 0.858542
vn 0.8679 -0.1373 -0.4774
vn 0.6373 -0.2391 -0.7326
vn 0.5737 0.1049 -0.8123
vn 0.8043 0.2067 -0.5571
vn 0.1531 -0.8735 0.4621
vn -0.0775 -0.9753 0.2069
vn 0.1898 -0.9813 -0.0323
vn 0.4204 -0.8795 0.2230
vn -0.7237 -0.4434 -0.5288
vn -0.7873 -0.0995 -0.6085
vn -0.5200 -0.1055 -0.8476
vn -0.4564 -0.4494 -0.7679
vn 0.0775 0.9753 -0.2069
vn -0.1531 0.8735 -0.4621
vn -0.4204 0.8795 -0.2230
vn -0.1898 0.9813 0.0323
vn -0.6373 0.2390 0.7326
vn -0.8679 0.1373 0.4774
vn -0.8043 -0.2067 0.5571
vn -0.5737 -0.1049 0.8123
vn 0.7237 0.4434 0.5288
vn 0.9362 0.3514 -0.0071
vn 0.6991 0.7077 -0.1024
vn 0.4529 0.8625 0.2257
vn 0.5065 0.7051 -0.4963
vn 0.0406 -0.0438 -0.9982
vn -0.0433 0.3801 -0.9240
vn 0.2846 0.6072 -0.7419
vn -0.4426 0.4673 -0.7653
vn 0.4564 0.4494 0.7679
vn 0.1957 0.8683 0.4558
vn -0.1614 0.7270 0.6674
vn -0.1018 0.3747 0.9215
vn -0.5315 0.7284 0.4324
vn -0.9974 -0.0205 -0.0695
vn -0.9037 0.3994 -0.1542
vn -0.6998 0.4730 -0.5353
vn -0.7534 0.6305 0.1868
vn 0.7873 0.0995 0.6085
vn 0.6998 -0.4730 0.5353
vn 0.9037 -0.3994 0.1541
vn 0.9974 0.0205 0.0695
vn 0.7534 -0.6305 -0.1868
vn 0.1018 -0.3747 -0.9215
vn 0.1614 -0.7270 -0.6674
vn -0.1957 -0.8683 -0.4558
vn 0.5315 -0.7284 -0.4323
vn 0.5200 0.1055 0.8476
vn -0.0407 0.0438 0.9982
vn 0.0433 -0.3801 0.9240
vn 0.4426 -0.4673 0.7653
vn -0.2846 -0.6072 0.7419
vn -0.4529 -0.8625 -0.2257
vn -0.6990 -0.7077 0.1024
vn -0.9362 -0.3514 0.0071
vn -0.5065 -0.7051 0.4963
usemtl Boxes
s 1
f 43/13/7 49/14/8 20/15/9 14/16/10
f 57/17/11 63/18/12 50/19/13 42/20/14
f 62/21/15 34/22/16 21/23/17 48/24/18
f 15/25/19 22/26/20 36/27/21 28/28/22
f 29/29/23 35/30/24 64/31/25 56/32/26
f 13/33/27 16/34/28 17/35/29 19/36/30
f 14/16/10 18/37/31 17/38/29 16/34/28
f 15/25/19 19/39/30 17/40/29 18/41/31
f 20/15/9 23/42/32 24/43/33 26/44/34
f 21/23/17 25/45/35 24/46/33 23/47/32
f 22/26/20 26/48/34 24/49/33 25/50/35
f 27/51/36 30/52/37 31/53/38 33/54/39
f 28/28/22 32/55/40 31/56/38 30/57/37
f 29/29/23 33/54/39 31/58/38 32/59/40
f 34/22/16 37/60/41 38/61/42 40/62/43
f 35/30/24 39/63/44 38/64/42 37/65/41
f 36/27/21 40/66/43 38/67/42 39/68/44
f 41/69/45 44/70/46 45/71/47 47/72/48
f 42/20/14 46/73/49 45/74/47 44/75/46
f 43/13/7 47/72/48 45/76/47 46/77/49
f 48/24/18 51/78/50 52/79/51 54/80/52
f 49/14/8 53/81/53 52/82/51 51/83/50
f 50/19/13 54/84/52 52/85/51 53/86/53
f 55/87/54 58/88/55 59/89/56 61/90/57
f 56/32/26 60/91/58 59/92/56 58/88/55
f 57/17/11 61/93/57 59/94/56 60/95/58
f 62/21/15 65/96/59 66/97/60 68/98/61
f 63/18/12 67/99/62 66/100/60 65/101/59
f 64/31/25 68/102/61 66/103/60 67/104/62
f 27/51/36 13/33/27 19/36/30 30/52/37
f 30/57/37 19/39/30 15/25/19 28/28/22
f 14/16/10 20/15/9 26/44/34 18/37/31
f 18/41/31 26/48/34 22/26/20 15/25/19
f 21/23/17 34/22/16 40/62/43 25/45/35
f 25/50/35 40/66/43 36/27/21 22/26/20
f 35/30/24 29/29/23 32/59/40 39/63/44
f 39/68/44 32/55/40 28/28/22 36/27/21
f 55/87/54 27/51/36 33/54/39 58/88/55
f 58/88/55 33/54/39 29/29/23 56/32/26
f 34/22/16 62/21/15 68/98/61 37/60/41
f 37/65/41 68/102/61 64/31/25 35/30/24
f 63/18/12 57/17/11 60/95/58 67/99/62
f 67/104/62 60/91/58 56/32/26 64/31/25
f 41/69/45 55/87/54 61/90/57 44/70/46
f 44/75/46 61/93/57 57/17/11 42/20/14
f 62/21/15 48/24/18 54/80/52 65/96/59
f 65/101/59 54/84/52 50/19/13 63/18/12
f 49/14/8 43/13/7 46/77/49 53/81/53
f 53/86/53 46/73/49 42/20/14 50/19/13
f 13/33/27 41/69/45 47/72/48 16/34/28
f 16/34/28 47/72/48 43/13/7 14/16/10
f 48/24/18 21/23/17 23/47/32 51/78/50
f 51/83/50 23/42/32 20/15/9 49/14/8
f 27/51/36 55/87/54 41/69/45 13/33/27
o Plane
v -0.847161 0.036525 0.070202
v -0.346068 0.036525 0.333074
v -0.805422 0.036525 0.092098
v -0.877787 0.036525 0.128583
v -0.334956 0.036525 0.413351
v -1.187845 0.073050 0.821082
v -0.836048 0.073050 0.150479
v -0.728491 0.073050 1.062058
v -0.376695 0.073050 0.391454
v -0.304329 0.036525 0.354970
v -1.260210 0.036525 0.857566
v -0.717379 0.036525 1.142334
v -0.759118 0.036525 1.120438
v -1.218471 0.036525 0.879463
v -1.229584 0.036525 0.799186
v -0.686752 0.036525 1.083954
v -0.836048 0.000000 0.150479
v -1.187845 0.000000 0.821082
v -0.376695 0.000000 0.391454
v -0.728491 0.000000 1.062058
vt 0.337538 0.451068
vt 0.350966 0.451068
vt 0.350966 0.467515
vt 0.337538 0.467515
vt 0.184658 0.451068
vt 0.198086 0.451068
vt 0.198086 0.467515
vt 0.184658 0.467515
vt 0.198086 0.245699
vt 0.337538 0.245699
vt 0.337538 0.262146
vt 0.198086 0.262146
vt 0.184658 0.245699
vt 0.184658 0.262146
vt 0.350966 0.245699
vt 0.350966 0.262146
vt 0.170546 0.451068
vt 0.183974 0.451068
vt 0.183974 0.467515
vt 0.170546 0.467515
vt 0.017665 0.451068
vt 0.031093 0.451068
vt 0.031093 0.467515
vt 0.017665 0.467515
vt 0.031093 0.245699
vt 0.170546 0.245699
vt 0.170546 0.262146
vt 0.031093 0.262146
vt 0.017665 0.245699
vt 0.017665 0.262146
vt 0.183974 0.245699
vt 0.183974 0.262146
vn 0.3108 0.9490 -0.0537
vn 0.9739 -0.0000 0.2269
vn 0.9906 -0.0000 -0.1371
vn 0.8001 -0.0000 -0.5998
vn -0.7402 -0.0000 -0.6724
vn -0.1324 0.9490 -0.2862
vn 0.0388 -0.0000 -0.9992
vn -0.4502 -0.0000 -0.8929
vn -0.8001 -0.0000 0.5998
vn -0.0388 -0.0000 0.9992
vn 0.1324 0.9490 0.2862
vn -0.3108 0.9490 0.0537
vn -0.9906 -0.0000 0.1371
vn -0.9739 -0.0000 -0.2269
vn 0.4502 -0.0000 0.8929
vn 0.7402 -0.0000 0.6724
vn 0.1324 -0.9490 0.2862
vn -0.3108 -0.9490 0.0537
vn 0.3108 -0.9490 -0.0537
vn -0.1324 -0.9490 -0.2862
usemtl Boxes
s 1
f 77/105/63 73/106/64 78/107/65 70/108/66
f 72/109/67 75/110/68 71/111/69 69/112/70
f 75/110/68 77/105/63 70/108/66 71/111/69
f 82/113/71 81/114/72 76/115/73 74/116/74
f 74/116/74 76/115/73 77/105/63 75/110/68
f 79/117/75 82/113/71 74/116/74 83/118/76
f 83/118/76 74/116/74 75/110/68 72/109/67
f 81/114/72 80/119/77 84/120/78 76/115/73
f 76/115/73 84/120/78 73/106/64 77/105/63
f 88/121/79 84/122/78 80/123/77 81/124/72
f 83/125/76 86/126/80 82/127/71 79/128/75
f 86/126/80 88/121/79 81/124/72 82/127/71
f 71/129/69 70/130/66 87/131/81 85/132/82
f 85/132/82 87/131/81 88/121/79 86/126/80
f 69/133/70 71/129/69 85/132/82 72/134/67
f 72/134/67 85/132/82 86/126/80 83/125/76
f 70/130/66 78/135/65 73/136/64 87/131/81
f 87/131/81 73/136/64 84/122/78 88/121/79
o Cube.002_Mesh.001
v 0.466034 -0.000000 0.408479
v 0.460356 0.007713 0.413698
v 0.460815 0.007713 0.402801
v 0.462019 0.002259 0.412170
v 0.459743 0.003260 0.408214
v 0.458329 0.007713 0.408154
v 0.462344 0.002259 0.404464
v 0.460356 0.512346 0.413698
v 0.466034 0.520059 0.408479
v 0.460815 0.512346 0.402801
v 0.462019 0.517800 0.412170
v 0.459743 0.516799 0.408214
v 0.462344 0.517800 0.404464
v 0.458329 0.512346 0.408154
v 0.837586 0.000000 0.067005
v 0.832367 0.007713 0.061326
v 0.843264 0.007713 0.061786
v 0.833895 0.002259 0.062989
v 0.837851 0.003260 0.060713
v 0.837911 0.007713 0.059299
v 0.841601 0.002259 0.063314
v 0.837586 0.520059 0.067005
v 0.843264 0.512346 0.061786
v 0.832367 0.512346 0.061326
v 0.841601 0.517800 0.063315
v 0.837851 0.516799 0.060713
v 0.837911 0.512346 0.059299
v 0.833895 0.517800 0.062990
v 1.149667 -0.000000 1.152326
v 1.154886 0.007713 1.158005
v 1.143988 0.007713 1.157545
v 1.153357 0.002259 1.156341
v 1.149402 0.003260 1.158618
v 1.149342 0.007713 1.160032
v 1.145652 0.002259 1.156016
v 1.149667 0.520059 1.152326
v 1.143988 0.512346 1.157545
v 1.154886 0.512346 1.158005
v 1.145652 0.517800 1.156016
v 1.149402 0.516799 1.158618
v 1.149342 0.512346 1.160032
v 1.153357 0.517800 1.156342
v 1.521218 0.000000 0.810852
v 1.526897 0.007713 0.805633
v 1.526437 0.007713 0.816530
v 1.525234 0.002259 0.807161
v 1.527510 0.003260 0.811117
v 1.528924 0.007713 0.811177
v 1.524909 0.002259 0.814867
v 1.521218 0.520059 0.810852
v 1.526437 0.512346 0.816530
v 1.526897 0.512346 0.805633
v 1.524909 0.517800 0.814867
v 1.527510 0.516799 0.811117
v 1.528924 0.512346 0.811177
v 1.525234 0.517800 0.807161
vt 0.532648 0.317021
vt 0.652399 0.317021
vt 0.652399 0.544066
vt 0.532648 0.544066
vt 0.655975 0.677074
vt 0.657160 0.546934
vt 0.762983 0.546934
vt 0.761798 0.677074
vt 0.762597 0.316104
vt 0.762597 0.546322
vt 0.656825 0.546322
vt 0.656825 0.316104
vt 0.761823 0.185215
vt 0.763244 0.312608
vt 0.655546 0.312608
vt 0.654125 0.185215
vt 0.536131 0.317524
vt 0.648975 0.317524
vt 0.648975 0.545295
vt 0.536131 0.545295
vt 0.530510 0.544512
vt 0.532164 0.544512
vt 0.532164 0.545516
vt 0.530510 0.546251
vt 0.532648 0.545799
vt 0.531591 0.545799
vt 0.530818 0.544066
vt 0.761801 0.183268
vt 0.762751 0.183268
vt 0.763469 0.185215
vt 0.654230 0.544066
vt 0.654230 0.545067
vt 0.652399 0.545799
vt 0.656825 0.548080
vt 0.655892 0.548080
vt 0.655208 0.546322
vt 0.764890 0.312608
vt 0.764903 0.313733
vt 0.763266 0.314555
vt 0.422325 0.544512
vt 0.422325 0.546251
vt 0.421370 0.546251
vt 0.420672 0.544512
vt 0.652479 0.185215
vt 0.652466 0.184091
vt 0.654103 0.183268
vt 0.534407 0.317524
vt 0.534407 0.316520
vt 0.536131 0.315785
vt 0.764213 0.546322
vt 0.764213 0.547337
vt 0.762597 0.548080
vt 0.648975 0.315785
vt 0.649971 0.315785
vt 0.650700 0.317524
vt 0.655568 0.314555
vt 0.654618 0.314555
vt 0.653900 0.312608
vt 0.530510 0.316596
vt 0.530510 0.314856
vt 0.531465 0.314856
vt 0.532164 0.316596
vt 0.763416 0.677074
vt 0.763405 0.678223
vt 0.761780 0.679063
vt 0.530817 0.317021
vt 0.530817 0.316020
vt 0.532648 0.315287
vt 0.655208 0.316104
vt 0.655208 0.315089
vt 0.656825 0.314346
vt 0.652399 0.315287
vt 0.653456 0.315287
vt 0.654230 0.317021
vt 0.763001 0.544945
vt 0.763935 0.544945
vt 0.764600 0.546934
vt 0.422325 0.316596
vt 0.420672 0.316596
vt 0.420672 0.315591
vt 0.422325 0.314856
vt 0.536131 0.547034
vt 0.535136 0.547034
vt 0.534407 0.545295
vt 0.655957 0.679063
vt 0.655023 0.679063
vt 0.654358 0.677074
vt 0.762597 0.314346
vt 0.763530 0.314346
vt 0.764213 0.316104
vt 0.655542 0.546934
vt 0.655553 0.545785
vt 0.657178 0.544945
vt 0.650700 0.545295
vt 0.650700 0.546299
vt 0.648975 0.547034
vt 0.531491 0.316808
vt 0.531491 0.544289
vt 0.654719 0.545194
vt 0.654719 0.316562
vn -0.5908 -0.1794 0.7866
vn -0.5908 0.1794 0.7866
vn -0.8336 0.1794 0.5225
vn -0.8336 -0.1794 0.5225
vn 0.7866 -0.1794 0.5908
vn 0.7866 0.1794 0.5908
vn 0.5225 0.1794 0.8336
vn 0.5225 -0.1794 0.8336
vn 0.2534 0.9673 0.0107
vn 0.0107 0.9673 -0.2534
vn -0.2534 0.9673 -0.0107
vn -0.0107 0.9673 0.2534
vn -0.7866 -0.1794 -0.5908
vn -0.7866 0.1794 -0.5908
vn -0.5225 0.1794 -0.8336
vn -0.5225 -0.1794 -0.8336
vn 0.5908 -0.1794 -0.7866
vn 0.5908 0.1794 -0.7866
vn 0.8336 0.1794 -0.5225
vn 0.8336 -0.1794 -0.5225
vn -0.2534 -0.9673 -0.0107
vn -0.6296 -0.6965 0.3443
vn -0.8158 -0.5774 -0.0344
vn -0.5984 -0.6965 -0.3961
vn -0.9841 -0.1726 -0.0415
vn -0.6296 0.6965 0.3442
vn -0.8158 0.5773 -0.0344
vn -0.9841 0.1726 -0.0415
vn -0.5984 0.6965 -0.3961
vn 0.0107 -0.9673 -0.2534
vn -0.3443 -0.6965 -0.6296
vn 0.0344 -0.5774 -0.8158
vn 0.3960 -0.6965 -0.5984
vn 0.0415 -0.1726 -0.9841
vn 0.3960 0.6965 -0.5984
vn 0.0344 0.5773 -0.8158
vn -0.3443 0.6965 -0.6296
vn 0.0415 0.1726 -0.9841
vn -0.0107 -0.9673 0.2534
vn 0.3442 -0.6965 0.6296
vn -0.0344 -0.5774 0.8158
vn -0.3961 -0.6965 0.5984
vn -0.0415 -0.1726 0.9841
vn -0.3960 0.6965 0.5984
vn -0.0344 0.5774 0.8158
vn 0.3442 0.6965 0.6296
vn -0.0415 0.1726 0.9841
vn 0.2534 -0.9673 0.0107
vn 0.6296 -0.6965 -0.3442
vn 0.8158 -0.5773 0.0344
vn 0.5984 -0.6965 0.3960
vn 0.9841 -0.1726 0.0415
vn 0.5984 0.6965 0.3961
vn 0.8158 0.5774 0.0344
vn 0.6296 0.6965 -0.3442
vn 0.9841 0.1726 0.0415
usemtl Boxes
s 1
f 119/137/83 125/138/84 96/139/85 90/140/86
f 133/141/87 139/142/88 126/143/89 118/144/90
f 138/145/91 110/146/92 97/147/93 124/148/94
f 91/149/95 98/150/96 112/151/97 104/152/98
f 105/153/99 111/154/100 140/155/101 132/156/102
f 89/157/103 92/158/104 93/159/105 95/160/106
f 90/140/86 94/161/107 93/162/105 92/163/104
f 91/149/95 95/164/106 93/165/105 94/166/107
f 96/139/85 99/167/108 100/168/109 102/169/110
f 97/147/93 101/170/111 100/171/109 99/172/108
f 98/150/96 102/173/110 100/174/109 101/175/111
f 103/176/112 106/177/113 107/178/114 109/179/115
f 104/152/98 108/180/116 107/181/114 106/182/113
f 105/153/99 109/183/115 107/184/114 108/185/116
f 110/146/92 113/186/117 114/187/118 116/188/119
f 111/154/100 115/189/120 114/190/118 113/191/117
f 112/151/97 116/192/119 114/193/118 115/194/120
f 117/195/121 120/196/122 121/197/123 123/198/124
f 118/144/90 122/199/125 121/200/123 120/201/122
f 119/137/83 123/202/124 121/203/123 122/204/125
f 124/148/94 127/205/126 128/206/127 130/207/128
f 125/138/84 129/208/129 128/209/127 127/210/126
f 126/143/89 130/211/128 128/212/127 129/213/129
f 131/214/130 134/215/131 135/216/132 137/217/133
f 132/156/102 136/218/134 135/219/132 134/220/131
f 133/141/87 137/221/133 135/222/132 136/223/134
f 138/145/91 141/224/135 142/225/136 144/226/137
f 139/142/88 143/227/138 142/228/136 141/229/135
f 140/155/101 144/230/137 142/231/136 143/232/138
f 103/176/112 89/157/103 95/160/106 106/177/113
f 106/182/113 95/164/106 91/149/95 104/152/98
f 90/140/86 96/139/85 102/169/110 94/161/107
f 94/166/107 102/173/110 98/150/96 91/149/95
f 97/147/93 110/146/92 116/188/119 101/170/111
f 101/175/111 116/192/119 112/151/97 98/150/96
f 111/154/100 105/153/99 108/185/116 115/189/120
f 115/194/120 108/180/116 104/152/98 112/151/97
f 131/214/130 103/176/112 109/179/115 134/215/131
f 134/220/131 109/183/115 105/153/99 132/156/102
f 110/146/92 138/145/91 144/226/137 113/186/117
f 113/191/117 144/230/137 140/155/101 111/154/100
f 139/142/88 133/141/87 136/223/134 143/227/138
f 143/232/138 136/218/134 132/156/102 140/155/101
f 117/195/121 131/214/130 137/217/133 120/196/122
f 120/201/122 137/221/133 133/141/87 118/144/90
f 138/145/91 124/148/94 130/207/128 141/224/135
f 141/229/135 130/211/128 126/143/89 139/142/88
f 125/138/84 119/137/83 122/204/125 129/208/129
f 129/213/129 122/199/125 118/144/90 126/143/89
f 89/157/103 117/195/121 123/233/124 92/234/104
f 92/234/104 123/233/124 119/137/83 90/140/86
f 124/148/94 97/147/93 99/235/108 127/236/126
f 127/236/126 99/235/108 96/139/85 125/138/84
f 103/176/112 131/214/130 117/195/121 89/157/103
o Cube.001_Mesh.002
v 0.526854 0.008124 0.996862
v 0.508988 -0.011876 0.987873
v 0.517977 0.008124 0.970007
v 0.521621 -0.006018 0.994229
v 0.524493 -0.003423 0.982748
v 0.515344 -0.006018 0.975240
v 0.527977 0.008124 0.981596
v 0.348872 0.008124 1.350608
v 0.322017 0.008124 1.359485
v 0.331006 -0.011876 1.341619
v 0.337283 0.008124 1.360608
v 0.336132 -0.003423 1.357123
v 0.324650 -0.006018 1.354252
v 0.343640 -0.006018 1.347975
v -0.480582 0.008124 0.955669
v -0.489459 0.008124 0.928814
v -0.471593 -0.011876 0.937803
v -0.490583 0.008124 0.944080
v -0.487098 -0.003423 0.942928
v -0.484226 -0.006018 0.931447
v -0.477949 -0.006018 0.950436
v -0.284622 0.008124 0.566191
v -0.293611 -0.011876 0.584058
v -0.311477 0.008124 0.575068
v -0.287255 -0.006018 0.571424
v -0.298736 -0.003423 0.568553
v -0.306244 -0.006018 0.577701
v -0.299888 0.008124 0.565068
v 0.517977 0.206777 0.970007
v 0.508988 0.226777 0.987873
v 0.526854 0.206777 0.996862
v 0.515344 0.220919 0.975240
v 0.524493 0.218324 0.982748
v 0.521621 0.220919 0.994229
v 0.527978 0.206777 0.981596
v 0.322017 0.206777 1.359485
v 0.348872 0.206777 1.350608
v 0.331006 0.226777 1.341619
v 0.337283 0.206777 1.360608
v 0.336131 0.218324 1.357123
v 0.343639 0.220919 1.347975
v 0.324650 0.220919 1.354252
v -0.489459 0.206777 0.928814
v -0.480582 0.206777 0.955669
v -0.471593 0.226777 0.937803
v -0.490583 0.206777 0.944080
v -0.487098 0.218324 0.942928
v -0.477949 0.220919 0.950436
v -0.484226 0.220919 0.931447
v -0.311477 0.206777 0.575068
v -0.293611 0.226777 0.584058
v -0.284622 0.206777 0.566191
v -0.306245 0.220919 0.577701
v -0.298737 0.218324 0.568553
v -0.287255 0.220919 0.571424
v -0.299888 0.206777 0.565068
vt 0.103580 0.560065
vt 0.103569 0.491739
vt 0.327889 0.491739
vt 0.328902 0.560065
vt 0.103517 0.749467
vt 0.103560 0.683794
vt 0.328639 0.683793
vt 0.324841 0.749467
vt 0.402752 0.672125
vt 0.340303 0.672125
vt 0.340303 0.572001
vt 0.402752 0.572001
vt 0.103588 0.572001
vt 0.328998 0.572001
vt 0.328998 0.672125
vt 0.103588 0.672125
vt 0.029186 0.572622
vt 0.092224 0.572058
vt 0.092224 0.672182
vt 0.029186 0.672746
vt 0.022840 0.572679
vt 0.022840 0.569759
vt 0.029186 0.567565
vt 0.641321 0.572001
vt 0.641321 0.566944
vt 0.644094 0.566944
vt 0.646124 0.572000
vt 0.098570 0.491739
vt 0.098570 0.487767
vt 0.103562 0.484860
vt 0.029186 0.677803
vt 0.025522 0.677836
vt 0.022840 0.672803
vt 0.103489 0.756079
vt 0.100649 0.756079
vt 0.098570 0.749468
vt 0.641321 0.672124
vt 0.646124 0.672124
vt 0.646124 0.675044
vt 0.641321 0.677181
vt 0.329788 0.749467
vt 0.329565 0.753285
vt 0.324482 0.756079
vt 0.409039 0.672125
vt 0.409039 0.675044
vt 0.402752 0.677181
vt 0.425561 0.672125
vt 0.425561 0.677181
vt 0.422788 0.677181
vt 0.420758 0.672125
vt 0.327794 0.484860
vt 0.330675 0.484860
vt 0.332888 0.491739
vt 0.425561 0.572001
vt 0.420758 0.572001
vt 0.420758 0.569081
vt 0.425561 0.566944
vt 0.402752 0.566944
vt 0.406382 0.566944
vt 0.409039 0.572001
vt 0.103588 0.566944
vt 0.098383 0.567664
vt 0.098570 0.560065
vt 0.098570 0.572001
vt 0.092224 0.567001
vt 0.098570 0.683793
vt 0.099277 0.677401
vt 0.103588 0.677181
vt 0.098570 0.672125
vt 0.092224 0.677238
vt 0.340303 0.677181
vt 0.334194 0.676469
vt 0.334016 0.672125
vt 0.328998 0.677181
vt 0.333629 0.683793
vt 0.334016 0.572001
vt 0.333294 0.566687
vt 0.340303 0.566944
vt 0.328998 0.566944
vt 0.333912 0.560065
vn 0.5950 0.1794 -0.7835
vn 0.5950 -0.1794 -0.7835
vn 0.2745 -0.1794 -0.9447
vn 0.2745 0.1794 -0.9447
vn -0.2745 -0.1794 0.9447
vn -0.2745 0.1794 0.9447
vn -0.5950 0.1794 0.7835
vn -0.5950 -0.1794 0.7835
vn -0.9447 -0.1794 -0.2745
vn -0.9447 0.1794 -0.2745
vn -0.7835 0.1794 -0.5950
vn -0.7835 -0.1794 -0.5950
vn 0.2408 0.9673 -0.0796
vn -0.0796 0.9673 -0.2408
vn -0.2408 0.9673 0.0796
vn 0.0796 0.9673 0.2408
vn 0.9447 -0.1794 0.2745
vn 0.9447 0.1794 0.2745
vn 0.7835 0.1794 0.5950
vn 0.7835 -0.1794 0.5950
vn 0.6997 -0.6965 0.1589
vn 0.7752 -0.5774 -0.2563
vn 0.9352 -0.1726 -0.3091
vn 0.2408 -0.9673 -0.0796
vn 0.4672 -0.6965 -0.5446
vn 0.3091 -0.1726 0.9352
vn 0.2563 -0.5774 0.7752
vn 0.5446 -0.6965 0.4672
vn -0.1589 -0.6965 0.6997
vn 0.0796 -0.9673 0.2408
vn -0.9352 -0.1726 0.3091
vn -0.7752 -0.5774 0.2563
vn -0.4672 -0.6965 0.5446
vn -0.6997 -0.6965 -0.1589
vn -0.2408 -0.9673 0.0796
vn 0.1589 -0.6965 -0.6997
vn -0.2563 -0.5774 -0.7752
vn -0.3091 -0.1726 -0.9352
vn -0.0796 -0.9673 -0.2408
vn -0.5446 -0.6965 -0.4672
vn 0.4672 0.6965 -0.5446
vn 0.7752 0.5774 -0.2563
vn 0.9352 0.1726 -0.3091
vn 0.6997 0.6965 0.1589
vn 0.3091 0.1726 0.9352
vn 0.2563 0.5774 0.7752
vn -0.1589 0.6965 0.6997
vn 0.5446 0.6965 0.4672
vn -0.9352 0.1726 0.3091
vn -0.7752 0.5773 0.2563
vn -0.6997 0.6965 -0.1589
vn -0.4672 0.6965 0.5446
vn -0.5446 0.6965 -0.4672
vn -0.2563 0.5774 -0.7752
vn -0.3091 0.1726 -0.9352
vn 0.1589 0.6965 -0.6997
usemtl Boxes
s 1
f 173/237/139 147/238/140 166/239/141 196/240/142
f 153/241/143 180/242/144 188/243/145 159/244/146
f 160/245/147 187/246/148 194/247/149 168/248/150
f 174/249/151 195/250/152 189/251/153 182/252/154
f 145/253/155 175/254/156 181/255/157 152/256/158
f 145/253/155 148/257/159 149/258/160 151/259/161
f 146/260/162 150/261/163 149/262/160 148/263/159
f 147/238/140 151/264/161 149/265/160 150/266/163
f 152/256/158 155/267/164 156/268/165 158/269/166
f 153/241/143 157/270/167 156/271/165 155/272/164
f 154/273/168 158/274/166 156/275/165 157/276/167
f 159/244/146 162/277/169 163/278/170 165/279/171
f 160/245/147 164/280/172 163/281/170 162/282/169
f 161/283/173 165/284/171 163/285/170 164/286/172
f 166/239/141 169/287/174 170/288/175 172/289/176
f 167/290/177 171/291/178 170/292/175 169/293/174
f 168/248/150 172/294/176 170/295/175 171/296/178
f 173/237/139 176/297/179 177/298/180 179/299/181
f 174/249/151 178/300/182 177/298/180 176/297/179
f 175/254/156 179/301/181 177/298/180 178/300/182
f 180/242/144 183/302/183 184/303/184 186/304/185
f 181/255/157 185/305/186 184/303/184 183/306/183
f 182/252/154 186/304/185 184/303/184 185/305/186
f 187/246/148 190/307/187 191/308/188 193/309/189
f 188/243/145 192/310/190 191/308/188 190/311/187
f 189/251/153 193/309/189 191/308/188 192/310/190
f 194/247/149 197/312/191 198/313/192 200/314/193
f 195/250/152 199/315/194 198/313/192 197/312/191
f 196/240/142 200/316/193 198/313/192 199/315/194
f 145/253/155 152/256/158 158/269/166 148/257/159
f 148/263/159 158/274/166 154/273/168 146/260/162
f 146/260/162 167/290/177 169/293/174 150/261/163
f 150/266/163 169/287/174 166/239/141 147/238/140
f 147/238/140 173/237/139 179/299/181 151/264/161
f 151/259/161 179/301/181 175/254/156 145/253/155
f 153/241/143 159/244/146 165/279/171 157/270/167
f 157/276/167 165/284/171 161/283/173 154/273/168
f 152/256/158 181/255/157 183/306/183 155/267/164
f 155/272/164 183/302/183 180/242/144 153/241/143
f 160/245/147 168/248/150 171/296/178 164/280/172
f 164/286/172 171/291/178 167/290/177 161/283/173
f 159/244/146 188/243/145 190/311/187 162/277/169
f 162/282/169 190/307/187 187/246/148 160/245/147
f 168/248/150 194/247/149 200/314/193 172/294/176
f 172/289/176 200/316/193 196/240/142 166/239/141
f 174/249/151 182/252/154 185/305/186 178/300/182
f 178/300/182 185/305/186 181/255/157 175/254/156
f 173/237/139 196/240/142 199/315/194 176/297/179
f 176/297/179 199/315/194 195/250/152 174/249/151
f 182/252/154 189/251/153 192/310/190 186/304/185
f 186/304/185 192/310/190 188/243/145 180/242/144
f 189/251/153 195/250/152 197/312/191 193/309/189
f 193/309/189 197/312/191 194/247/149 187/246/148
f 146/260/162 154/273/168 161/283/173 167/290/177
o Cube_Mesh.003
v 0.469231 0.026911 -0.239599
v 0.449231 0.006911 -0.239599
v 0.449231 0.026911 -0.259599
v 0.469231 0.026911 0.239599
v 0.449231 0.026911 0.259599
v 0.449231 0.006911 0.239599
v -0.449231 0.026911 0.259599
v -0.469231 0.026911 0.239599
v -0.449231 0.006911 0.239599
v -0.449230 0.026911 -0.259599
v -0.449230 0.006911 -0.239599
v -0.469230 0.026911 -0.239599
v 0.449231 0.225563 -0.259599
v 0.449231 0.245563 -0.239599
v 0.469231 0.225563 -0.239599
v 0.449230 0.225563 0.259599
v 0.469230 0.225563 0.239599
v 0.449230 0.245563 0.239599
v -0.469231 0.225563 0.239599
v -0.449231 0.225563 0.259599
v -0.449231 0.245563 0.239599
v -0.469231 0.225563 -0.239599
v -0.449231 0.245563 -0.239599
v -0.449231 0.225563 -0.259599
vt 0.579567 0.906539
vt 0.582966 0.978711
vt 0.363356 0.978906
vt 0.364756 0.908942
vt 0.583238 0.711779
vt 0.583247 0.781942
vt 0.361974 0.782153
vt 0.361170 0.714374
vt 0.280842 0.793265
vt 0.350230 0.793316
vt 0.352781 0.897391
vt 0.281032 0.895183
vt 0.579379 0.895027
vt 0.364788 0.897547
vt 0.362129 0.793329
vt 0.583128 0.793251
vt 0.657254 0.894361
vt 0.590839 0.894926
vt 0.594404 0.793181
vt 0.657519 0.792616
vt 0.663907 0.894304
vt 0.657213 0.898608
vt 0.657561 0.788370
vt 0.663907 0.792560
vt 0.356231 0.714419
vt 0.361094 0.707535
vt 0.363245 0.985964
vt 0.358493 0.978923
vt 0.579254 0.899287
vt 0.584374 0.906498
vt 0.588177 0.781925
vt 0.583253 0.788992
vt 0.350146 0.788992
vt 0.357240 0.793343
vt 0.359980 0.897591
vt 0.352866 0.901715
vt 0.035579 0.894983
vt 0.268665 0.894983
vt 0.268640 0.899229
vt 0.035414 0.899229
vt 0.587829 0.978695
vt 0.583232 0.704730
vt 0.594523 0.788935
vt 0.268721 0.793238
vt 0.357044 0.782170
vt 0.281061 0.899457
vt 0.040065 0.793238
vn 0.3416 0.3416 -0.8756
vn 0.3416 -0.3416 -0.8756
vn -0.3416 -0.3416 -0.8756
vn -0.3416 0.3416 -0.8756
vn 0.3416 -0.3416 0.8756
vn 0.3416 0.3416 0.8756
vn -0.3416 0.3416 0.8756
vn -0.3416 -0.3416 0.8756
vn -0.8756 -0.3416 0.3416
vn -0.8756 0.3416 0.3416
vn -0.8756 0.3416 -0.3416
vn -0.8756 -0.3416 -0.3416
vn 0.3416 0.8756 -0.3416
vn -0.3416 0.8756 -0.3416
vn -0.3416 0.8756 0.3416
vn 0.3416 0.8756 0.3416
vn 0.8756 -0.3416 -0.3416
vn 0.8756 0.3416 -0.3416
vn 0.8756 0.3416 0.3416
vn 0.8756 -0.3416 0.3416
vn 0.3416 -0.8756 -0.3416
vn 0.3416 -0.8756 0.3416
vn -0.3416 -0.8756 0.3416
vn -0.3416 -0.8756 -0.3416
usemtl Boxes
s 1
f 213/317/195 203/318/196 210/319/197 224/320/198
f 205/321/199 216/322/200 220/323/201 207/324/202
f 208/325/203 219/326/204 222/327/205 212/328/206
f 214/329/207 223/330/208 221/331/209 218/332/210
f 201/333/211 215/334/212 217/335/213 204/336/214
f 201/333/211 202/337/215 203/338/196
f 204/336/214 205/339/199 206/340/216
f 207/324/202 208/341/203 209/342/217
f 210/319/197 211/343/218 212/344/206
f 213/317/195 214/345/207 215/346/212
f 216/322/200 217/347/213 218/348/210
f 219/326/204 220/349/201 221/350/209
f 222/327/205 223/351/208 224/352/198
f 201/333/211 204/336/214 206/340/216 202/337/215
f 202/353/215 211/354/218 210/355/197 203/356/196
f 203/318/196 213/317/195 215/346/212 201/357/211
f 205/321/199 207/324/202 209/342/217 206/358/216
f 204/336/214 217/335/213 216/359/200 205/339/199
f 208/325/203 212/328/206 211/354/218 209/360/217
f 207/324/202 220/323/201 219/361/204 208/341/203
f 212/328/206 222/327/205 224/352/198 210/362/197
f 214/329/207 218/332/210 217/335/213 215/334/212
f 213/317/195 224/320/198 223/330/208 214/329/207
f 218/332/210 221/331/209 220/323/201 216/322/200
f 221/331/209 223/330/208 222/327/205 219/326/204
f 202/353/215 206/363/216 209/360/217 211/354/218
