# Blender v2.79 (sub 0) OBJ File: ''
# www.blender.org
mtllib sledgehammer.mtl
o rdmobj00.028
v 0.066090 -0.133279 1.196188
v 0.082776 -0.099468 1.196189
v 0.071618 -0.099469 1.953461
v -0.104919 -0.099470 2.624932
v -0.110873 -0.139665 2.915640
v -0.136180 -0.099470 2.915640
v -0.085759 -0.128490 2.624944
v -0.044618 -0.164506 2.915640
v -0.035597 -0.146425 2.624953
v 0.037278 -0.164506 2.915640
v 0.026407 -0.146425 2.624953
v 0.103533 -0.139665 2.915640
v 0.076569 -0.128490 2.624944
v 0.128841 -0.099470 2.915640
v 0.095729 -0.099470 2.624933
v 0.057063 -0.128489 1.953459
v 0.022405 -0.154176 1.196187
v 0.018956 -0.146424 1.953458
v -0.031594 -0.154176 1.196187
v -0.028146 -0.146424 1.953458
v -0.075279 -0.133279 1.196188
v -0.066253 -0.128489 1.953459
v -0.080808 -0.099469 1.953460
v -0.091966 -0.099468 1.196189
v -0.447132 0.023909 2.975298
v -0.447132 -0.099470 3.065954
v -0.447132 0.047171 3.065954
v -0.447132 -0.013717 2.939636
v -0.447132 -0.099470 2.939636
v -0.143243 -0.099471 3.252236
v -0.142516 -0.099471 3.193383
v -0.116587 -0.143054 3.252236
v -0.116587 -0.055888 3.252236
v -0.115999 -0.142869 3.193383
v -0.046800 -0.158208 3.252236
v -0.046576 -0.157959 3.193383
v 0.039460 -0.158208 3.252236
v 0.039236 -0.157959 3.193383
v 0.109247 -0.143054 3.252236
v 0.108659 -0.142869 3.193383
v 0.135903 -0.099471 3.252236
v 0.135177 -0.099471 3.193383
v 0.108659 -0.056073 3.193383
v 0.109247 -0.055888 3.252236
v 0.039236 -0.040983 3.193383
v 0.039461 -0.040734 3.252236
v -0.046576 -0.040983 3.193383
v -0.046800 -0.040734 3.252236
v -0.115999 -0.056072 3.193383
v -0.091966 -0.099468 1.196189
v -0.066253 -0.070449 1.953459
v -0.075279 -0.065657 1.196188
v -0.080808 -0.099469 1.953460
v -0.104919 -0.099470 2.624932
v -0.110873 -0.059275 2.915640
v -0.136180 -0.099470 2.915640
v -0.085759 -0.070449 2.624944
v -0.028146 -0.052513 1.953458
v -0.031594 -0.044760 1.196187
v 0.018956 -0.052513 1.953458
v 0.022405 -0.044760 1.196187
v 0.057063 -0.070449 1.953459
v 0.066090 -0.065657 1.196188
v 0.071618 -0.099469 1.953461
v 0.082776 -0.099468 1.196189
v -0.044618 -0.034433 2.915640
v -0.035597 -0.052514 2.624953
v 0.026407 -0.052514 2.624953
v 0.076569 -0.070449 2.624944
v 0.095729 -0.099470 2.624933
v 0.128841 -0.099470 2.915640
v 0.103533 -0.059275 2.915640
v 0.037278 -0.034433 2.915640
v 0.078769 -0.138069 -0.452133
v -0.004595 -0.099466 -0.452133
v 0.098449 -0.099466 -0.452133
v 0.027248 -0.161926 -0.452133
v -0.036437 -0.161926 -0.452133
v -0.087958 -0.138069 -0.452133
v -0.107638 -0.099466 -0.452133
v -0.087958 -0.060864 -0.452133
v -0.004595 -0.099466 -0.452133
v -0.107638 -0.099466 -0.452133
v -0.036437 -0.037006 -0.452133
v 0.027248 -0.037006 -0.452133
v 0.078769 -0.060864 -0.452133
v 0.098449 -0.099466 -0.452133
v -0.242401 -0.241551 3.169548
v -0.379093 -0.241551 3.169548
v -0.242401 -0.268339 3.065953
v -0.242401 -0.185223 3.210299
v -0.379094 -0.185223 3.210299
v -0.242401 -0.099470 3.210299
v -0.447132 -0.222849 3.156610
v -0.379093 -0.268339 3.065953
v -0.242401 -0.241551 2.962360
v -0.379093 -0.241551 2.962360
v -0.242401 -0.185223 2.921608
v -0.379093 -0.185223 2.921608
v -0.242401 -0.099470 2.921608
v -0.447132 -0.185223 3.192272
v -0.379094 -0.099470 3.210300
v -0.379094 -0.013717 3.210300
v -0.242401 -0.013717 3.210300
v -0.379094 0.042611 3.169548
v -0.242401 0.042611 3.169548
v -0.242401 0.069399 3.065954
v -0.379093 0.069399 3.065954
v -0.242401 0.042611 2.962360
v -0.379093 0.042611 2.962360
v -0.242401 -0.013717 2.921608
v -0.379093 -0.013717 2.921608
v -0.379093 -0.099470 2.921608
v -0.447132 -0.099470 2.939636
v -0.447132 -0.185223 2.939636
v -0.447132 -0.099470 3.192272
v -0.447132 -0.013717 3.192272
v -0.447132 0.023909 3.156610
v -0.447132 0.047171 3.065954
v -0.447132 0.023909 2.975298
v -0.447132 -0.013717 2.939636
v -0.447132 -0.222849 2.975298
v -0.447132 -0.246111 3.065953
v -0.242401 -0.185223 2.921608
v -0.242401 -0.219843 2.905886
v -0.242401 -0.241551 2.962360
v -0.242401 -0.099470 2.921608
v -0.242401 -0.099470 2.905863
v -0.242401 0.020903 2.905887
v -0.242401 -0.013717 2.921608
v -0.242401 0.042611 2.962360
v -0.242401 -0.013717 3.210300
v -0.242401 0.020903 3.226003
v -0.242401 0.042611 3.169548
v -0.242401 -0.099470 3.210299
v -0.242401 -0.099470 3.226062
v -0.242401 -0.185223 3.210299
v -0.242401 -0.219843 3.226003
v -0.242401 -0.241551 3.169548
v 0.234447 -0.013717 2.921608
v 0.234447 0.020903 2.905887
v 0.234447 0.042611 2.962360
v 0.234447 -0.099470 2.921608
v 0.234447 -0.099470 2.905863
v 0.234447 -0.185223 2.921608
v 0.234447 -0.219843 2.905886
v 0.234447 -0.241551 2.962360
v 0.234447 -0.185223 3.210299
v 0.234447 -0.219843 3.226003
v 0.234447 -0.241551 3.169548
v 0.234447 -0.099470 3.210300
v 0.234447 -0.099470 3.226062
v 0.234447 0.020903 3.226003
v 0.234447 -0.013717 3.210300
v 0.234447 0.042611 3.169548
v 0.437389 -0.246111 3.065954
v 0.369351 -0.268339 3.065953
v 0.437389 -0.222849 2.975298
v 0.437389 -0.222849 3.156610
v 0.369351 -0.241551 3.169548
v 0.369351 -0.185223 3.210300
v 0.437389 -0.185223 3.192272
v 0.369351 -0.241551 2.962360
v 0.369351 -0.185223 2.921608
v 0.234447 -0.268339 3.065953
v 0.234447 -0.241551 3.169548
v 0.234447 -0.185223 3.210299
v 0.234447 -0.099470 3.210300
v 0.234447 -0.241551 2.962360
v 0.234447 -0.185223 2.921608
v 0.234447 -0.099470 2.921608
v 0.369351 -0.099470 2.921608
v 0.369351 -0.013717 2.921608
v 0.234447 -0.013717 2.921608
v 0.369351 0.042611 2.962360
v 0.234447 0.042611 2.962360
v 0.234447 0.069399 3.065954
v 0.437389 -0.099470 3.192272
v 0.369351 -0.099470 3.210300
v 0.369351 -0.013717 3.210300
v 0.234447 -0.013717 3.210300
v 0.369351 0.042611 3.169548
v 0.234447 0.042611 3.169548
v 0.369351 0.069399 3.065954
v 0.437389 0.023909 2.975298
v 0.437389 -0.013717 2.939636
v 0.437389 -0.099470 2.939636
v 0.437389 -0.185223 2.939636
v 0.437389 -0.013717 3.192272
v 0.437389 0.023909 3.156610
v 0.437389 0.047171 3.065954
v -0.242401 -0.268339 3.065953
v 0.234447 -0.268339 3.065953
v 0.234447 -0.241551 3.169548
v -0.242401 -0.241551 2.962360
v 0.234447 -0.241551 2.962360
v -0.242401 -0.219843 2.905886
v 0.234447 -0.219843 2.905886
v 0.234447 -0.099470 2.905863
v -0.242401 -0.241551 3.169548
v 0.234447 -0.219843 3.226003
v -0.242401 -0.219843 3.226003
v -0.242401 -0.099470 3.226062
v 0.234447 -0.099470 3.226062
v 0.234447 0.020903 3.226003
v -0.242401 0.020903 3.226003
v -0.242401 0.042611 3.169548
v 0.234447 0.042611 3.169548
v -0.242401 0.069399 3.065954
v 0.234447 0.069399 3.065954
v -0.242401 0.042611 2.962360
v 0.234447 0.042611 2.962360
v -0.242401 0.020903 2.905887
v 0.234447 0.020903 2.905887
v -0.242401 -0.099470 2.905863
v -0.447132 -0.185223 2.939636
v -0.447132 -0.222849 2.975298
v -0.447132 -0.246111 3.065953
v -0.447132 -0.222849 3.156610
v -0.447132 -0.185223 3.192272
v -0.447132 -0.099470 3.192272
v -0.447132 -0.013717 3.192272
v -0.447132 0.023909 3.156610
v -0.087958 -0.138069 -0.452133
v -0.091966 -0.099468 1.196189
v -0.107638 -0.099466 -0.452133
v -0.075279 -0.133279 1.196188
v -0.036437 -0.161926 -0.452133
v -0.031594 -0.154176 1.196187
v 0.027248 -0.161926 -0.452133
v 0.022405 -0.154176 1.196187
v 0.078769 -0.138069 -0.452133
v 0.066090 -0.133279 1.196188
v 0.098449 -0.099466 -0.452133
v 0.082776 -0.099468 1.196189
v -0.091966 -0.099468 1.196189
v -0.087958 -0.060864 -0.452133
v -0.107638 -0.099466 -0.452133
v -0.075279 -0.065657 1.196188
v -0.036437 -0.037006 -0.452133
v -0.031594 -0.044760 1.196187
v 0.027248 -0.037006 -0.452133
v 0.022405 -0.044760 1.196187
v 0.078769 -0.060864 -0.452133
v 0.066090 -0.065657 1.196188
v 0.098449 -0.099466 -0.452133
v 0.082776 -0.099468 1.196189
v -0.143243 -0.099471 3.252236
v -0.003670 -0.099471 3.252236
v -0.116587 -0.055888 3.252236
v -0.116587 -0.143054 3.252236
v -0.046800 -0.158208 3.252236
v 0.039460 -0.158208 3.252236
v 0.109247 -0.143054 3.252236
v 0.135903 -0.099471 3.252236
v 0.109247 -0.055888 3.252236
v 0.039461 -0.040734 3.252236
v -0.046800 -0.040734 3.252236
v 0.437389 -0.222849 2.975298
v 0.437389 -0.099470 3.065954
v 0.437389 -0.246111 3.065954
v 0.437389 -0.185223 2.939636
v 0.437389 -0.099470 2.939636
v 0.437389 -0.013717 2.939636
v 0.437389 0.023909 2.975298
v 0.437389 0.047171 3.065954
v 0.437389 0.023909 3.156610
v 0.437389 -0.013717 3.192272
v 0.437389 -0.099470 3.192272
v 0.437389 -0.185223 3.192272
v 0.437389 -0.222849 3.156610
vt 0.057680 0.014201
vt 0.026716 0.013862
vt 0.030068 0.419425
vt 0.199828 0.818741
vt 0.171125 0.992131
vt 0.206890 0.991666
vt 0.169206 0.818862
vt 0.129770 0.991519
vt 0.131663 0.818579
vt 0.085250 0.990692
vt 0.091303 0.818074
vt 0.043893 0.989814
vt 0.053960 0.817429
vt 0.007642 0.988043
vt 0.023024 0.816277
vt 0.057652 0.419860
vt 0.096488 0.014762
vt 0.092948 0.420363
vt 0.139510 0.015256
vt 0.133120 0.420790
vt 0.178208 0.015505
vt 0.170980 0.421021
vt 0.204048 0.421103
vt 0.209596 0.015544
vt 0.724732 0.161400
vt 0.602818 0.013087
vt 0.602818 0.189363
vt 0.772691 0.116170
vt 0.772691 0.013087
vt 0.218815 0.011260
vt 0.218929 0.044603
vt 0.253158 0.011504
vt 0.253158 0.011504
vt 0.253157 0.044851
vt 0.295478 0.012123
vt 0.295357 0.045467
vt 0.341350 0.012685
vt 0.341132 0.046027
vt 0.380885 0.012950
vt 0.380638 0.046292
vt 0.410594 0.012947
vt 0.410404 0.046290
vt 0.380638 0.046292
vt 0.380885 0.012950
vt 0.341132 0.046027
vt 0.341350 0.012685
vt 0.295357 0.045467
vt 0.295478 0.012123
vt 0.253157 0.044851
vt 0.026716 0.013862
vt 0.057652 0.419860
vt 0.057680 0.014201
vt 0.030068 0.419425
vt 0.023024 0.816277
vt 0.043893 0.989814
vt 0.007642 0.988043
vt 0.053960 0.817429
vt 0.092948 0.420363
vt 0.096488 0.014762
vt 0.133120 0.420790
vt 0.139510 0.015256
vt 0.170980 0.421021
vt 0.178208 0.015505
vt 0.204048 0.421103
vt 0.209596 0.015544
vt 0.085250 0.990692
vt 0.091303 0.818074
vt 0.131663 0.818579
vt 0.169206 0.818862
vt 0.199828 0.818741
vt 0.206890 0.991666
vt 0.171125 0.992131
vt 0.129770 0.991519
vt 0.951854 0.736684
vt 0.984430 0.812534
vt 0.984430 0.718778
vt 0.931721 0.783562
vt 0.931721 0.841506
vt 0.951854 0.888384
vt 0.984430 0.906290
vt 0.951803 0.736684
vt 0.984379 0.812534
vt 0.984379 0.718778
vt 0.931670 0.783562
vt 0.931670 0.841506
vt 0.951803 0.888384
vt 0.984379 0.906290
vt 0.585707 0.411548
vt 0.582995 0.263958
vt 0.697666 0.409491
vt 0.502690 0.405607
vt 0.525707 0.253247
vt 0.420831 0.383175
vt 0.595811 0.200182
vt 0.694954 0.261900
vt 0.809625 0.407433
vt 0.806913 0.259843
vt 0.891871 0.396689
vt 0.869289 0.251625
vt 0.973348 0.373022
vt 0.543632 0.190736
vt 0.461570 0.241100
vt 0.525707 0.253247
vt 0.502690 0.405607
vt 0.582995 0.263958
vt 0.585707 0.411548
vt 0.697666 0.409491
vt 0.694954 0.261900
vt 0.809625 0.407433
vt 0.806913 0.259843
vt 0.891871 0.396689
vt 0.869289 0.251625
vt 0.927416 0.232539
vt 0.907648 0.172080
vt 0.849080 0.189815
vt 0.479103 0.179955
vt 0.543632 0.190736
vt 0.595811 0.200182
vt 0.693787 0.198382
vt 0.791763 0.196581
vt 0.849080 0.189815
vt 0.791763 0.196581
vt 0.693787 0.198382
vt 0.793952 0.116942
vt 0.813839 0.159068
vt 0.742404 0.185483
vt 0.793952 0.012596
vt 0.813868 0.012596
vt 0.813839 0.159068
vt 0.793952 0.116942
vt 0.742404 0.185483
vt 0.942717 0.117600
vt 0.922852 0.159726
vt 0.994264 0.186141
vt 0.942717 0.013254
vt 0.922778 0.013254
vt 0.942717 0.117600
vt 0.922852 0.159726
vt 0.994264 0.186141
vt 0.793952 0.116942
vt 0.813839 0.159068
vt 0.742404 0.185483
vt 0.793952 0.012596
vt 0.813868 0.012596
vt 0.793952 0.116942
vt 0.813839 0.159068
vt 0.742404 0.185483
vt 0.942717 0.117600
vt 0.922852 0.159726
vt 0.994264 0.186141
vt 0.942717 0.013254
vt 0.922778 0.013254
vt 0.922852 0.159726
vt 0.942717 0.117600
vt 0.994264 0.186141
vt 0.701592 0.436137
vt 0.702645 0.493063
vt 0.608248 0.437864
vt 0.794935 0.434410
vt 0.809311 0.491089
vt 0.865277 0.480679
vt 0.846501 0.426520
vt 0.595980 0.495037
vt 0.537398 0.489748
vt 0.705093 0.625334
vt 0.811758 0.623360
vt 0.900874 0.601179
vt 0.978202 0.574832
vt 0.598427 0.627308
vt 0.508099 0.612036
vt 0.426168 0.589861
vt 0.463977 0.466194
vt 0.537398 0.489748
vt 0.508099 0.612036
vt 0.595980 0.495037
vt 0.598427 0.627308
vt 0.705093 0.625334
vt 0.918591 0.402885
vt 0.936527 0.454620
vt 0.865277 0.480679
vt 0.900874 0.601179
vt 0.809311 0.491089
vt 0.811758 0.623360
vt 0.702645 0.493063
vt 0.608248 0.437864
vt 0.554289 0.434502
vt 0.480249 0.412972
vt 0.554289 0.434502
vt 0.846501 0.426520
vt 0.794935 0.434410
vt 0.701592 0.436137
vt 0.704055 0.988957
vt 0.704055 0.635248
vt 0.805864 0.635248
vt 0.602247 0.988957
vt 0.602247 0.635248
vt 0.546746 0.989277
vt 0.546746 0.634928
vt 0.423544 0.634607
vt 0.805864 0.988957
vt 0.861347 0.634928
vt 0.861347 0.989277
vt 0.984549 0.989598
vt 0.984549 0.634607
vt 0.861347 0.634928
vt 0.861347 0.989277
vt 0.805864 0.988957
vt 0.805864 0.635248
vt 0.704055 0.988957
vt 0.704055 0.635248
vt 0.602247 0.988957
vt 0.602247 0.635248
vt 0.546746 0.989277
vt 0.546746 0.634928
vt 0.423544 0.989597
vt 0.772691 0.116170
vt 0.724732 0.161400
vt 0.602818 0.189363
vt 0.480904 0.161400
vt 0.432946 0.116170
vt 0.432946 0.013087
vt 0.432946 0.116170
vt 0.480904 0.161400
vt 0.380885 0.012950
vt 0.405046 0.987558
vt 0.410594 0.012947
vt 0.373658 0.987518
vt 0.341350 0.012685
vt 0.334960 0.987270
vt 0.295478 0.012123
vt 0.291938 0.986776
vt 0.253158 0.011504
vt 0.253130 0.986215
vt 0.218815 0.011260
vt 0.222166 0.985875
vt 0.222166 0.985875
vt 0.253158 0.011504
vt 0.218815 0.011260
vt 0.253130 0.986215
vt 0.295478 0.012123
vt 0.291938 0.986776
vt 0.341350 0.012685
vt 0.334960 0.987270
vt 0.380885 0.012950
vt 0.373658 0.987518
vt 0.410594 0.012947
vt 0.405046 0.987558
vt 0.867936 0.015299
vt 0.867936 0.092692
vt 0.894826 0.030080
vt 0.841045 0.030080
vt 0.824426 0.068776
vt 0.824426 0.116608
vt 0.841045 0.155304
vt 0.867936 0.170085
vt 0.894826 0.155304
vt 0.911445 0.116608
vt 0.911445 0.068776
vt 0.480904 0.161400
vt 0.602818 0.013087
vt 0.602818 0.189363
vt 0.432945 0.116170
vt 0.432945 0.013086
vt 0.432945 0.116170
vt 0.480904 0.161400
vt 0.602818 0.189363
vt 0.724732 0.161400
vt 0.772691 0.116170
vt 0.772691 0.013087
vt 0.772691 0.116170
vt 0.724732 0.161400
vn 0.7782 -0.6279 0.0132
vn 0.8967 -0.4425 0.0132
vn 0.8809 -0.4732 -0.0073
vn -0.8518 -0.5205 -0.0601
vn -0.7062 -0.7026 -0.0871
vn -0.8428 -0.5306 -0.0906
vn -0.5421 -0.8390 -0.0467
vn -0.2319 -0.9705 -0.0659
vn -0.1136 -0.9930 -0.0332
vn 0.1184 -0.9908 -0.0661
vn 0.2454 -0.9687 -0.0364
vn 0.5347 -0.8410 -0.0829
vn 0.7159 -0.6958 -0.0573
vn 0.8365 -0.5394 -0.0966
vn 0.8329 -0.5499 -0.0624
vn 0.5994 -0.8004 -0.0009
vn 0.2921 -0.9563 0.0110
vn 0.1451 -0.9894 0.0046
vn -0.1471 -0.9891 0.0111
vn -0.2754 -0.9613 0.0027
vn -0.6149 -0.7885 0.0135
vn -0.7632 -0.6461 -0.0055
vn -0.8938 -0.4483 -0.0095
vn -0.8952 -0.4454 0.0133
vn -1.0000 -0.0000 0.0000
vn -0.9999 0.0000 -0.0123
vn -0.9999 0.0000 -0.0121
vn -0.6886 -0.7251 -0.0089
vn -0.6886 0.7251 -0.0093
vn -0.4587 -0.8886 -0.0087
vn -0.1423 -0.9898 -0.0047
vn -0.0712 -0.9975 -0.0046
vn 0.0711 -0.9975 -0.0046
vn 0.1422 -0.9898 -0.0047
vn 0.4585 -0.8886 -0.0087
vn 0.6886 -0.7251 -0.0089
vn 0.9999 -0.0000 -0.0121
vn 0.9999 -0.0000 -0.0123
vn 0.6886 0.7251 -0.0093
vn 0.4585 0.8887 -0.0073
vn 0.1422 0.9898 -0.0048
vn 0.0711 0.9975 -0.0045
vn -0.0712 0.9975 -0.0045
vn -0.1423 0.9898 -0.0048
vn -0.4587 0.8886 -0.0073
vn -0.8952 0.4454 0.0133
vn -0.7632 0.6461 -0.0055
vn -0.6149 0.7885 0.0124
vn -0.8938 0.4483 -0.0095
vn -0.8518 0.5205 -0.0601
vn -0.7062 0.7026 -0.0871
vn -0.8428 0.5306 -0.0906
vn -0.5421 0.8390 -0.0467
vn -0.2754 0.9613 0.0027
vn -0.1471 0.9891 0.0108
vn 0.1451 0.9894 0.0046
vn 0.2921 0.9563 0.0110
vn 0.5994 0.8004 -0.0009
vn 0.7782 0.6279 0.0132
vn 0.8809 0.4732 -0.0073
vn 0.8967 0.4425 0.0132
vn -0.2319 0.9705 -0.0666
vn -0.1136 0.9930 -0.0332
vn 0.2454 0.9687 -0.0364
vn 0.7159 0.6958 -0.0573
vn 0.8329 0.5499 -0.0624
vn 0.8365 0.5394 -0.0966
vn 0.5347 0.8410 -0.0829
vn 0.1184 0.9908 -0.0661
vn 0.0000 0.0000 -1.0000
vn 0.0000 -0.8260 0.5636
vn -0.1073 -0.8213 0.5603
vn 0.0000 -0.9963 0.0859
vn 0.0000 -0.4084 0.9128
vn -0.1327 -0.3241 0.9367
vn 0.0000 -0.0000 1.0000
vn -0.2860 -0.8084 0.5144
vn -0.1791 -0.9831 -0.0373
vn 0.0000 -0.8873 -0.4611
vn -0.1285 -0.7761 -0.6174
vn 0.0000 -0.4084 -0.9128
vn -0.1526 -0.2773 -0.9486
vn -0.2487 -0.2396 0.9385
vn -0.1720 -0.0000 0.9851
vn -0.1327 0.3241 0.9367
vn -0.0000 0.4084 0.9128
vn -0.1073 0.8213 0.5603
vn 0.0000 0.8260 0.5636
vn 0.0000 0.9963 0.0859
vn -0.1791 0.9831 -0.0373
vn 0.0000 0.8873 -0.4611
vn -0.1285 0.7761 -0.6174
vn -0.0000 0.4084 -0.9128
vn -0.1526 0.2773 -0.9486
vn -0.1291 0.0000 -0.9916
vn -0.2561 0.0000 -0.9666
vn -0.2387 -0.3624 -0.9009
vn -0.2561 0.0000 0.9666
vn -0.2487 0.2396 0.9385
vn -0.2861 0.8084 0.5145
vn -0.3106 0.9506 0.0000
vn -0.2861 0.8084 -0.5144
vn -0.2387 0.3624 -0.9009
vn -0.2860 -0.8084 -0.5144
vn -0.3105 -0.9506 -0.0000
vn 1.0000 0.0000 0.0000
vn 0.3105 -0.9506 0.0000
vn 0.2088 -0.9780 0.0000
vn 0.2860 -0.8084 -0.5145
vn 0.2861 -0.8084 0.5144
vn 0.1073 -0.8213 0.5603
vn 0.1526 -0.2773 0.9486
vn 0.2387 -0.3624 0.9009
vn 0.1073 -0.8213 -0.5603
vn 0.1327 -0.3241 -0.9367
vn -0.0000 -1.0000 -0.0000
vn 0.0000 -0.8260 -0.5636
vn 0.1720 0.0000 -0.9851
vn 0.1327 0.3241 -0.9367
vn 0.1073 0.8213 -0.5603
vn -0.0000 0.8260 -0.5636
vn -0.0000 1.0000 0.0000
vn 0.2561 -0.0000 0.9666
vn 0.1291 0.0000 0.9916
vn 0.1526 0.2773 0.9486
vn 0.1073 0.8213 0.5603
vn 0.2088 0.9780 -0.0000
vn 0.2860 0.8084 -0.5145
vn 0.2487 0.2396 -0.9385
vn 0.2561 0.0000 -0.9666
vn 0.2487 -0.2396 -0.9385
vn 0.2387 0.3624 0.9009
vn 0.2861 0.8084 0.5145
vn 0.3105 0.9506 0.0000
vn -0.0000 -0.9963 -0.0859
vn -0.0000 -0.9579 0.2869
vn -0.0000 -0.9580 -0.2869
vn -0.0000 -0.9464 -0.3231
vn 0.0000 -0.5663 -0.8242
vn -0.0000 -0.9463 0.3232
vn 0.0000 -0.5664 0.8241
vn -0.0000 0.5664 0.8241
vn 0.0000 0.9463 0.3232
vn 0.0000 0.9579 0.2869
vn 0.0000 0.9963 -0.0859
vn 0.0000 0.9580 -0.2869
vn 0.0000 0.9464 -0.3231
vn 0.0000 0.5663 -0.8242
vn -0.7743 -0.6327 0.0079
vn -0.8938 -0.4484 0.0083
vn -0.8909 -0.4542 0.0085
vn -0.6132 -0.7899 0.0069
vn -0.2901 -0.9570 0.0055
vn -0.1471 -0.9891 0.0051
vn 0.1430 -0.9897 0.0051
vn 0.2901 -0.9570 0.0055
vn 0.6100 -0.7924 0.0069
vn 0.7768 -0.6297 0.0079
vn 0.8938 -0.4484 0.0083
vn 0.8967 -0.4425 0.0085
vn -0.8938 0.4484 0.0083
vn -0.7743 0.6327 0.0078
vn -0.8909 0.4542 0.0085
vn -0.6132 0.7899 0.0075
vn -0.2901 0.9570 0.0055
vn -0.1471 0.9891 0.0053
vn 0.1430 0.9897 0.0053
vn 0.2901 0.9570 0.0055
vn 0.6100 0.7924 0.0075
vn 0.7768 0.6297 0.0079
vn 0.8938 0.4484 0.0084
vn 0.8967 0.4425 0.0085
usemtl sledgehammer.001
s 1
f 1/1/1 2/2/2 3/3/3
f 4/4/4 5/5/5 6/6/6
f 7/7/7 5/5/5 4/4/4
f 7/7/7 8/8/8 5/5/5
f 9/9/9 8/8/8 7/7/7
f 9/9/9 10/10/10 8/8/8
f 11/11/11 10/10/10 9/9/9
f 11/11/11 12/12/12 10/10/10
f 13/13/13 12/12/12 11/11/11
f 13/13/13 14/14/14 12/12/12
f 13/13/13 3/3/3 15/15/15
f 13/13/13 15/15/15 14/14/14
f 16/16/16 3/3/3 13/13/13
f 16/16/16 1/1/1 3/3/3
f 11/11/11 16/16/16 13/13/13
f 16/16/16 17/17/17 1/1/1
f 9/9/9 18/18/18 11/11/11
f 11/11/11 18/18/18 16/16/16
f 18/18/18 17/17/17 16/16/16
f 18/18/18 19/19/19 17/17/17
f 20/20/20 19/19/19 18/18/18
f 9/9/9 20/20/20 18/18/18
f 7/7/7 20/20/20 9/9/9
f 20/20/20 21/21/21 19/19/19
f 4/4/4 22/22/22 7/7/7
f 20/20/20 22/22/22 21/21/21
f 7/7/7 22/22/22 20/20/20
f 23/23/23 22/22/22 4/4/4
f 21/21/21 22/22/22 24/24/24
f 24/24/24 22/22/22 23/23/23
f 25/25/25 26/26/25 27/27/25
f 28/28/25 26/26/25 25/25/25
f 28/28/25 29/29/25 26/26/25
f 30/30/26 31/31/27 32/32/28
f 33/33/29 31/31/27 30/30/26
f 34/34/30 32/32/28 31/31/27
f 34/34/30 35/35/31 32/32/28
f 36/36/32 35/35/31 34/34/30
f 36/36/32 37/37/33 35/35/31
f 38/38/34 37/37/33 36/36/32
f 38/38/34 39/39/35 37/37/33
f 40/40/36 39/39/35 38/38/34
f 40/40/36 41/41/37 39/39/35
f 42/42/38 41/41/37 40/40/36
f 43/43/39 41/41/37 42/42/38
f 43/43/39 44/44/40 41/41/37
f 45/45/41 44/44/40 43/43/39
f 45/45/41 46/46/42 44/44/40
f 47/47/43 46/46/42 45/45/41
f 47/47/43 48/48/44 46/46/42
f 49/49/45 33/33/29 48/48/44
f 31/31/27 33/33/29 49/49/45
f 49/49/45 48/48/44 47/47/43
f 50/50/46 51/51/47 52/52/48
f 53/53/49 51/51/47 50/50/46
f 53/53/49 54/54/50 51/51/47
f 55/55/51 54/54/50 56/56/52
f 57/57/53 51/51/47 54/54/50
f 57/57/53 54/54/50 55/55/51
f 58/58/54 52/52/48 51/51/47
f 58/58/54 51/51/47 57/57/53
f 58/58/54 59/59/55 52/52/48
f 60/60/56 59/59/55 58/58/54
f 60/60/56 61/61/57 59/59/55
f 62/62/58 61/61/57 60/60/56
f 62/62/58 63/63/59 61/61/57
f 64/64/60 63/63/59 62/62/58
f 64/64/60 65/65/61 63/63/59
f 66/66/62 57/57/53 55/55/51
f 67/67/63 58/58/54 57/57/53
f 67/67/63 60/60/56 58/58/54
f 67/67/63 57/57/53 66/66/62
f 68/68/64 60/60/56 67/67/63
f 68/68/64 62/62/58 60/60/56
f 69/69/65 64/64/60 62/62/58
f 69/69/65 62/62/58 68/68/64
f 69/69/65 70/70/66 64/64/60
f 69/69/65 71/71/67 70/70/66
f 68/68/64 72/72/68 69/69/65
f 69/69/65 72/72/68 71/71/67
f 68/68/64 73/73/69 72/72/68
f 67/67/63 73/73/69 68/68/64
f 67/67/63 66/66/62 73/73/69
f 74/74/70 75/75/70 76/76/70
f 77/77/70 75/75/70 74/74/70
f 78/78/70 75/75/70 77/77/70
f 79/79/70 75/75/70 78/78/70
f 79/79/70 80/80/70 75/75/70
f 81/81/70 82/82/70 83/83/70
f 84/84/70 82/82/70 81/81/70
f 85/85/70 82/82/70 84/84/70
f 86/86/70 82/82/70 85/85/70
f 86/86/70 87/87/70 82/82/70
f 88/88/71 89/89/72 90/90/73
f 91/91/74 89/89/72 88/88/71
f 91/91/74 92/92/75 89/89/72
f 93/93/76 92/92/75 91/91/74
f 94/94/77 89/89/72 92/92/75
f 95/95/78 90/90/73 89/89/72
f 95/95/78 89/89/72 94/94/77
f 95/95/78 96/96/79 90/90/73
f 97/97/80 96/96/79 95/95/78
f 97/97/80 98/98/81 96/96/79
f 99/99/82 98/98/81 97/97/80
f 99/99/82 100/100/70 98/98/81
f 92/92/75 101/101/83 94/94/77
f 93/93/76 102/102/84 92/92/75
f 92/92/75 102/102/84 101/101/83
f 93/93/76 103/103/85 102/102/84
f 104/104/86 103/103/85 93/93/76
f 104/104/86 105/105/87 103/103/85
f 106/106/88 105/105/87 104/104/86
f 107/107/89 105/105/87 106/106/88
f 107/107/89 108/108/90 105/105/87
f 109/109/91 108/108/90 107/107/89
f 109/109/91 110/110/92 108/108/90
f 111/111/93 110/110/92 109/109/91
f 100/100/70 112/112/94 111/111/93
f 111/111/93 112/112/94 110/110/92
f 100/100/70 113/113/95 112/112/94
f 99/99/82 113/113/95 100/100/70
f 99/99/82 114/114/96 113/113/95
f 113/113/95 114/114/96 112/112/94
f 115/115/97 114/114/96 99/99/82
f 102/102/84 116/116/98 101/101/83
f 103/103/85 117/117/99 102/102/84
f 102/102/84 117/117/99 116/116/98
f 108/108/90 118/118/100 105/105/87
f 105/105/87 118/118/100 103/103/85
f 103/103/85 118/118/100 117/117/99
f 108/108/90 119/119/101 118/118/100
f 112/112/94 120/120/102 110/110/92
f 110/110/92 120/120/102 108/108/90
f 108/108/90 120/120/102 119/119/101
f 112/112/94 114/114/96 121/121/103
f 112/112/94 121/121/103 120/120/102
f 99/99/82 122/122/104 115/115/97
f 97/97/80 122/122/104 99/99/82
f 95/95/78 122/122/104 97/97/80
f 94/94/77 123/123/105 95/95/78
f 95/95/78 123/123/105 122/122/104
f 124/124/25 125/125/25 126/126/25
f 127/127/25 125/125/25 124/124/25
f 127/127/25 128/128/25 125/125/25
f 127/127/25 129/129/25 128/128/25
f 130/130/25 129/129/25 127/127/25
f 130/130/25 131/131/25 129/129/25
f 132/132/25 133/133/25 134/134/25
f 135/135/25 133/133/25 132/132/25
f 135/135/25 136/136/25 133/133/25
f 137/137/25 136/136/25 135/135/25
f 137/137/25 138/138/25 136/136/25
f 139/139/25 138/138/25 137/137/25
f 140/140/106 141/141/106 142/142/106
f 143/143/106 141/141/106 140/140/106
f 143/143/106 144/144/106 141/141/106
f 145/145/106 144/144/106 143/143/106
f 145/145/106 146/146/106 144/144/106
f 147/147/106 146/146/106 145/145/106
f 148/148/106 149/149/106 150/150/106
f 151/151/106 149/149/106 148/148/106
f 151/151/106 152/152/106 149/149/106
f 151/151/106 153/153/106 152/152/106
f 154/154/106 153/153/106 151/151/106
f 154/154/106 155/155/106 153/153/106
f 156/156/107 157/157/108 158/158/109
f 159/159/110 157/157/108 156/156/107
f 159/159/110 160/160/111 157/157/108
f 159/159/110 161/161/112 160/160/111
f 162/162/113 161/161/112 159/159/110
f 157/157/108 163/163/114 158/158/109
f 158/158/109 163/163/114 164/164/115
f 160/160/111 165/165/116 157/157/108
f 157/157/108 165/165/116 163/163/114
f 160/160/111 166/166/71 165/165/116
f 161/161/112 167/167/74 160/160/111
f 160/160/111 167/167/74 166/166/71
f 161/161/112 168/168/76 167/167/74
f 169/169/117 163/163/114 165/165/116
f 170/170/81 163/163/114 169/169/117
f 170/170/81 164/164/115 163/163/114
f 171/171/70 164/164/115 170/170/81
f 171/171/70 172/172/118 164/164/115
f 171/171/70 173/173/119 172/172/118
f 174/174/93 173/173/119 171/171/70
f 174/174/93 175/175/120 173/173/119
f 176/176/121 175/175/120 174/174/93
f 176/176/121 177/177/122 175/175/120
f 178/178/123 161/161/112 162/162/113
f 179/179/124 168/168/76 161/161/112
f 179/179/124 161/161/112 178/178/123
f 180/180/125 168/168/76 179/179/124
f 178/178/123 180/180/125 179/179/124
f 180/180/125 181/181/86 168/168/76
f 182/182/126 181/181/86 180/180/125
f 182/182/126 177/177/122 183/183/88
f 182/182/126 183/183/88 181/181/86
f 184/184/127 177/177/122 182/182/126
f 184/184/127 175/175/120 177/177/122
f 185/185/128 173/173/119 175/175/120
f 185/185/128 175/175/120 184/184/127
f 186/186/129 173/173/119 185/185/128
f 186/186/129 172/172/118 173/173/119
f 187/187/130 172/172/118 186/186/129
f 158/158/109 164/164/115 188/188/131
f 188/188/131 164/164/115 172/172/118
f 188/188/131 172/172/118 187/187/130
f 189/189/132 180/180/125 178/178/123
f 190/190/133 180/180/125 189/189/132
f 190/190/133 182/182/126 180/180/125
f 190/190/133 184/184/127 182/182/126
f 191/191/134 185/185/128 184/184/127
f 191/191/134 184/184/127 190/190/133
f 192/192/73 193/193/135 194/194/136
f 195/195/137 193/193/135 192/192/73
f 195/195/137 196/196/138 193/193/135
f 197/197/139 196/196/138 195/195/137
f 197/197/139 198/198/139 196/196/138
f 199/199/70 198/198/139 197/197/139
f 194/194/136 200/200/140 192/192/73
f 201/201/141 200/200/140 194/194/136
f 201/201/141 202/202/141 200/200/140
f 201/201/141 203/203/76 202/202/141
f 204/204/76 203/203/76 201/201/141
f 205/205/142 203/203/76 204/204/76
f 205/205/142 206/206/142 203/203/76
f 205/205/142 207/207/143 206/206/142
f 208/208/144 207/207/143 205/205/142
f 208/208/144 209/209/89 207/207/143
f 210/210/145 209/209/89 208/208/144
f 210/210/145 211/211/146 209/209/89
f 212/212/147 211/211/146 210/210/145
f 212/212/147 213/213/148 211/211/146
f 214/214/148 213/213/148 212/212/147
f 199/199/70 213/213/148 214/214/148
f 197/197/139 215/215/70 199/199/70
f 199/199/70 215/215/70 213/213/148
f 216/216/25 26/26/25 29/29/25
f 217/217/25 26/26/25 216/216/25
f 218/218/25 26/26/25 217/217/25
f 219/219/25 26/26/25 218/218/25
f 220/220/25 26/26/25 219/219/25
f 221/221/25 26/26/25 220/220/25
f 222/222/25 26/26/25 221/221/25
f 223/223/25 27/27/25 26/26/25
f 223/223/25 26/26/25 222/222/25
f 224/224/149 225/225/150 226/226/151
f 224/224/149 227/227/152 225/225/150
f 228/228/153 227/227/152 224/224/149
f 228/228/153 229/229/154 227/227/152
f 230/230/155 229/229/154 228/228/153
f 230/230/155 231/231/156 229/229/154
f 232/232/157 231/231/156 230/230/155
f 232/232/157 233/233/158 231/231/156
f 234/234/159 233/233/158 232/232/157
f 234/234/159 235/235/160 233/233/158
f 236/236/161 237/237/162 238/238/163
f 239/239/164 237/237/162 236/236/161
f 239/239/164 240/240/165 237/237/162
f 241/241/166 240/240/165 239/239/164
f 241/241/166 242/242/167 240/240/165
f 243/243/168 242/242/167 241/241/166
f 243/243/168 244/244/169 242/242/167
f 245/245/170 244/244/169 243/243/168
f 245/245/170 246/246/171 244/244/169
f 247/247/172 246/246/171 245/245/170
f 248/248/76 249/249/76 250/250/76
f 251/251/76 249/249/76 248/248/76
f 252/252/76 249/249/76 251/251/76
f 253/253/76 249/249/76 252/252/76
f 254/254/76 249/249/76 253/253/76
f 255/255/76 249/249/76 254/254/76
f 256/256/76 249/249/76 255/255/76
f 257/257/76 249/249/76 256/256/76
f 258/258/76 250/250/76 249/249/76
f 258/258/76 249/249/76 257/257/76
f 259/259/106 260/260/106 261/261/106
f 262/262/106 260/260/106 259/259/106
f 263/263/106 260/260/106 262/262/106
f 264/264/106 260/260/106 263/263/106
f 265/265/106 260/260/106 264/264/106
f 266/266/106 260/260/106 265/265/106
f 267/267/106 260/260/106 266/266/106
f 268/268/106 260/260/106 267/267/106
f 269/269/106 260/260/106 268/268/106
f 270/270/106 260/260/106 269/269/106
f 271/271/106 261/261/106 260/260/106
f 271/271/106 260/260/106 270/270/106
