# 3ds Max Wavefront OBJ Exporter v0.97b - (c)2007 guruware
# File Created: 31.07.2014 23:14:13

mtllib Bath95.mtl

#
# object Mesh_0095
#

v  1.636719 -0.420410 1.066406
v  1.620117 -0.340576 1.088867
v  1.547852 -0.340576 1.088867
v  -0.230347 0.299561 0.844727
v  -0.272217 0.273438 0.854980
v  0.525391 0.282471 0.851563
v  0.511230 0.299561 0.844727
v  -1.268555 -0.045685 -0.558594
v  -1.268555 -0.045685 0.537598
v  0.000000 -0.045685 0.538086
v  -0.000043 -0.045685 -0.558594
v  -0.536621 0.299561 0.844727
v  -0.506836 0.300049 0.610840
v  -0.583984 0.420410 0.682617
v  -0.613770 0.401367 0.779785
v  0.527344 0.332275 0.629883
v  0.556641 0.325928 0.828125
v  0.613770 0.401367 0.779785
v  0.583984 0.420410 0.682617
v  0.873047 0.332520 0.617676
v  1.268555 -0.045685 0.537598
v  0.981445 0.394043 0.689941
v  1.010742 0.420410 0.683594
v  1.041992 0.343262 0.620117
v  0.980469 0.340576 0.619629
v  -0.959473 0.299316 0.844727
v  -0.872559 0.299561 0.844727
v  -0.890137 0.354004 0.779785
v  -0.922363 0.401367 0.779785
v  -1.394531 0.420410 0.621094
v  -1.490234 0.401367 0.719238
v  -1.392578 0.401367 0.779785
v  -1.295898 0.420410 0.684570
v  1.000000 0.299561 0.844727
v  1.042969 0.299561 0.844727
v  1.001953 0.401367 0.779785
v  0.979492 0.375244 0.771484
v  1.490234 0.401367 0.719238
v  1.394531 0.420410 0.621094
v  1.295898 0.420410 0.684570
v  1.392578 0.401367 0.779785
v  -0.871094 0.372803 0.683105
v  -0.856934 0.331055 0.617188
v  -0.926758 0.333008 0.617676
v  -0.892578 0.420410 0.683105
v  -1.458008 0.299561 0.844727
v  -1.554688 0.299561 0.782227
v  1.554688 0.299561 0.781738
v  1.458008 0.299561 0.844727
v  1.525391 0.033478 0.946289
v  1.618164 0.033447 0.887207
v  -1.705078 -0.336182 1.034180
v  -1.620117 -0.340576 1.088867
v  -1.539063 -0.020645 0.966797
v  -1.630859 -0.020615 0.909180
v  -0.244141 0.300049 0.610840
v  -0.829102 0.328613 0.616699
v  1.705078 -0.336182 1.033203
v  -1.636719 -0.420410 1.067383
v  1.329102 0.372803 0.626465
v  -1.329102 0.372803 0.626465
v  0.489990 0.283203 0.607422
v  0.474365 0.300049 0.610840
v  0.950684 0.420410 0.683594
v  0.951660 0.401367 0.779785
v  0.960449 0.299561 0.844727
v  1.401367 0.299561 0.844727
v  -0.300537 0.299561 0.844727
v  -0.176147 0.300049 0.610840
v  -0.215332 0.273926 0.605469
v  -0.868164 0.401367 0.779785
v  -0.799805 0.299561 0.844727
v  -0.852051 0.420410 0.683105
v  -1.404297 0.299561 0.844727
v  1.490234 0.401367 -0.740723
v  1.554688 0.299561 -0.739746
v  1.554688 0.299561 -0.803223
v  1.329102 0.372803 -0.333252
v  1.394531 0.420410 -0.311035
v  1.394531 0.420410 -0.642578
v  1.329102 0.372803 -0.647949
v  1.490234 0.401367 -0.280273
v  1.329102 0.372803 -0.283936
v  1.329102 0.372803 -0.308594
v  1.268555 -0.045685 -0.558594
v  1.636719 -0.420410 -1.087891
v  1.704102 -0.335693 -1.054688
v  1.705078 -0.336182 -0.983398
v  1.394531 0.420410 -0.261475
v  1.329102 0.372803 0.280518
v  1.394531 0.420410 0.266357
v  1.490234 0.401367 -0.231323
v  1.490234 0.401367 0.288330
v  1.554688 0.299561 -0.173584
v  1.554688 0.299561 0.276367
v  1.625977 0.000017 -0.012329
v  1.394531 0.420410 0.332764
v  1.329102 0.372803 0.328125
v  1.490234 0.401367 0.355469
v  1.554688 0.299561 0.387451
v  1.554688 0.299561 0.730957
v  1.625977 0.000000 0.826172
v  1.394531 0.392822 -0.285156
v  1.490234 0.373779 -0.254395
v  1.554688 0.299561 -0.303223
v  1.554688 0.299561 -0.236694
v  1.329102 0.372803 0.304443
v  1.394531 0.392822 0.309570
v  1.490234 0.373779 0.332275
v  1.554688 0.299561 0.362793
v  1.625977 0.000007 -0.850586
v  1.630859 -0.020615 -0.929688
v  1.295898 0.420410 -0.705566
v  0.892578 0.420410 -0.705566
v  0.879395 0.372803 -0.647949
v  -1.636719 -0.420410 -1.087891
v  -1.620117 -0.340576 -1.109375
v  -1.566406 -0.340576 -1.109375
v  0.857422 0.372803 -0.647949
v  0.922363 0.401367 -0.801270
v  1.392578 0.401367 -0.801270
v  1.459961 0.000000 -0.979004
v  0.726563 0.000000 -0.979004
v  0.903809 0.299561 -0.865234
v  1.399414 0.299561 -0.865234
v  -1.473633 0.000000 -0.979004
v  -1.539063 -0.020645 -0.987305
v  -1.295898 0.420410 -0.705566
v  -1.392578 0.401367 -0.801270
v  -1.490234 0.401367 -0.740723
v  -1.394531 0.420410 -0.642578
v  -1.458008 0.299561 -0.865234
v  -1.554688 0.299561 -0.802734
v  1.458008 0.299561 -0.865234
v  1.621094 0.020615 -0.913574
v  1.528320 0.020645 -0.971191
v  -1.705078 -0.336182 -1.053711
v  -1.630859 -0.020615 -0.929199
v  1.620117 -0.340576 -1.109375
v  -1.329102 0.372803 -0.647949
v  0.852051 0.420410 -0.705566
v  0.868164 0.401367 -0.801270
v  0.286621 0.401367 -0.801270
v  0.262695 0.420410 -0.705566
v  0.889648 0.374023 -0.801270
v  0.871582 0.299561 -0.865234
v  0.843262 0.299561 -0.865234
v  0.870605 0.392822 -0.705566
v  0.697754 0.372803 -0.647949
v  0.386963 0.372803 -0.647949
v  -1.398438 0.299561 -0.865234
v  -1.010742 0.420410 -0.705566
v  -1.001953 0.401367 -0.801270
v  -1.041992 0.372803 -0.647949
v  0.192383 0.420410 -0.705566
v  0.127075 0.372803 -0.647949
v  0.219849 0.372803 -0.647949
v  0.234253 0.391113 -0.705566
v  0.214233 0.401367 -0.801270
v  0.256836 0.372070 -0.801270
v  0.224243 0.299561 -0.865234
v  0.270264 0.299561 -0.865234
v  0.303467 0.299561 -0.865234
v  -0.503906 0.400391 -0.705566
v  -0.518555 0.420410 -0.705566
v  -0.558105 0.372803 -0.647949
v  -0.494873 0.372803 -0.647949
v  -0.517578 0.381348 -0.801270
v  -0.530762 0.401367 -0.801270
v  -0.525391 0.299561 -0.865234
v  -0.577148 0.299561 -0.865234
v  -0.484863 0.420410 -0.705566
v  -0.369385 0.372803 -0.647949
v  -0.497314 0.401367 -0.801270
v  -0.476563 0.299561 -0.865234
v  -0.008385 0.001031 -0.979004
v  -0.006680 0.000000 -0.979004
v  -0.980957 0.393799 -0.705566
v  -0.973145 0.372803 -0.647949
v  -0.979492 0.374756 -0.801270
v  -1.001953 0.299561 -0.865234
v  -1.063477 0.299561 -0.865234
v  -0.964844 0.420410 -0.705566
v  -0.885254 0.372803 -0.647949
v  -0.951660 0.401367 -0.801270
v  -0.945801 0.299561 -0.865234
v  -0.740234 0.000000 -0.979004
v  1.630859 -0.020615 0.908203
v  1.539063 -0.020645 0.966797
v  -1.618164 0.029678 0.889160
v  -1.526367 0.029709 0.947754
v  1.469727 0.000002 0.958984
v  -1.528320 0.020645 -0.971191
v  1.539063 -0.020645 -0.987305
v  -1.621094 0.020615 -0.913086
v  -1.469727 0.000000 0.958984
v  -1.560547 -0.340576 1.088867
v  -1.705078 -0.336182 0.970703
v  -1.625977 0.000000 0.825684
v  -1.554688 0.299561 0.718750
v  -1.610352 0.000000 0.881348
v  -1.518555 0.000000 0.939453
v  -1.554688 0.299561 -0.751953
v  -1.625977 0.000000 -0.868164
v  -1.705078 -0.336182 -0.995117
v  -0.002464 -0.340576 -1.109375
v  0.000059 -0.420410 -1.087891
v  -1.519531 -0.003260 -0.962891
v  -1.611328 -0.003260 -0.904785
v  1.561523 -0.340576 -1.109375
v  1.705078 -0.336182 0.967773
v  0.734375 0.000037 0.958984
v  -0.000205 0.000007 0.958984
v  -0.734863 0.000056 0.958984
v  1.513672 0.000000 0.932129
v  1.602539 0.000000 -0.895020
v  1.605469 0.000000 0.873047
v  1.510742 0.000000 -0.952637
v  -1.329102 0.372803 0.311768
v  -1.394531 0.420410 0.289795
v  -1.490234 0.401367 0.259033
v  -1.329102 0.372803 0.220703
v  -1.329102 0.372803 0.287109
v  -1.394531 0.420410 0.240112
v  -1.329102 0.372803 -0.256348
v  -1.394531 0.420410 -0.287598
v  -1.490234 0.401367 0.209961
v  -1.490234 0.401367 -0.309814
v  -1.554688 0.299561 -0.306885
v  -1.625977 0.000037 -0.021439
v  -1.554688 0.299561 0.148560
v  -1.394531 0.420410 -0.354004
v  -1.329102 0.372803 -0.349609
v  -1.490234 0.401367 -0.376953
v  -1.554688 0.299561 -0.440186
v  -1.394531 0.392822 0.263672
v  -1.490234 0.373779 0.232910
v  -1.554688 0.299561 0.277832
v  -1.554688 0.299561 0.215332
v  -1.329102 0.372803 -0.325684
v  -1.394531 0.392822 -0.331055
v  -1.490234 0.373779 -0.353760
v  -1.554688 0.299561 -0.384277
v  -0.439941 -0.260254 1.815430
v  -0.439941 -0.424561 1.902344
v  -0.360107 -0.424561 1.902344
v  -0.360107 -0.260254 1.815430
v  -0.439941 -0.424561 1.798828
v  -0.360107 -0.424561 1.798828
v  -0.360107 -0.260254 1.753906
v  -0.439941 -0.260254 1.753906
v  -0.439941 -0.260254 1.509766
v  -0.360107 -0.260254 1.509766
v  -0.360107 -0.424561 1.422852
v  -0.439941 -0.424561 1.422852
v  -0.439941 -0.352783 1.725586
v  -0.360107 -0.352783 1.725586
v  -0.439941 -0.352783 1.598633
v  -0.360107 -0.352783 1.598633
v  -0.439941 -0.424561 1.525391
v  -0.360107 -0.424561 1.525391
v  -0.360107 -0.260254 1.571289
v  -0.360107 -0.260254 1.631836
v  -0.360107 -0.260254 1.693359
v  -0.439941 -0.260254 1.693359
v  -0.439941 -0.260254 1.631836
v  -0.439941 -0.260254 1.571289
v  0.360107 -0.260254 1.815430
v  0.360107 -0.424561 1.902344
v  0.439941 -0.424561 1.902344
v  0.439941 -0.260254 1.815430
v  0.360107 -0.424561 1.798828
v  0.439941 -0.424561 1.798828
v  0.439941 -0.260254 1.753906
v  0.360107 -0.260254 1.753906
v  0.360107 -0.260254 1.509766
v  0.439941 -0.260254 1.509766
v  0.439941 -0.424561 1.422852
v  0.360107 -0.424561 1.422852
v  0.360107 -0.352783 1.725586
v  0.439941 -0.352783 1.725586
v  0.360107 -0.352783 1.598633
v  0.439941 -0.352783 1.598633
v  0.360107 -0.424561 1.525391
v  0.439941 -0.424561 1.525391
v  0.439941 -0.260254 1.571289
v  0.439941 -0.260254 1.631836
v  0.439941 -0.260254 1.693359
v  0.360107 -0.260254 1.693359
v  0.360107 -0.260254 1.631836
v  0.360107 -0.260254 1.571289
v  -0.439941 -0.020676 1.422852
v  -0.439941 -0.424072 1.422852
v  -0.360107 -0.424072 1.422852
v  -0.360107 -0.020676 1.422852
v  -0.439941 -0.424072 1.342773
v  -0.360107 -0.424072 1.342773
v  -0.360107 -0.020676 1.342773
v  -0.439941 -0.020676 1.342773
v  0.360107 -0.020676 1.422852
v  0.360107 -0.424072 1.422852
v  0.439941 -0.424072 1.422852
v  0.439941 -0.020676 1.422852
v  0.360107 -0.424072 1.342773
v  0.439941 -0.424072 1.342773
v  0.439941 -0.020676 1.342773
v  0.360107 -0.020676 1.342773
v  -0.505859 0.059631 1.422852
v  -0.505859 -0.020355 1.422852
v  0.505859 -0.020355 1.422852
v  0.505859 0.059631 1.422852
v  -0.505859 -0.020355 0.942383
v  0.505859 -0.020355 0.942383
v  0.505859 0.059631 0.942383
v  -0.505859 0.059631 0.942383
v  -0.505859 -0.180298 1.902344
v  -0.505859 -0.260254 1.902344
v  0.505859 -0.260254 1.902344
v  0.505859 -0.180298 1.902344
v  -0.505859 -0.260254 1.422852
v  0.505859 -0.260254 1.422852
v  0.505859 -0.180298 1.422852
v  -0.505859 -0.180298 1.422852
v  -0.439941 -0.018066 1.131836
v  -0.439941 -0.211548 1.342773
v  -0.360107 -0.211548 1.342773
v  -0.360107 -0.018066 1.131836
v  -0.439941 -0.312256 1.342773
v  -0.360107 -0.312256 1.342773
v  -0.360107 -0.018005 1.022461
v  -0.439941 -0.018005 1.022461
v  0.360107 -0.018066 1.131836
v  0.360107 -0.211548 1.342773
v  0.439941 -0.211548 1.342773
v  0.439941 -0.018066 1.131836
v  0.360107 -0.312256 1.342773
v  0.439941 -0.312256 1.342773
v  0.439941 -0.018005 1.022461
v  0.360107 -0.018005 1.022461
# 339 vertices

vn 0.247172 -0.214335 0.944969
vn 0.267704 0.088825 0.959398
vn 0.000002 0.045022 0.998986
vn -0.000150 0.365649 0.930753
vn -0.000693 0.357704 0.933835
vn -0.000812 0.382191 0.924083
vn 0.000000 0.371391 0.928477
vn 0.000000 1.000000 -0.000000
vn 0.789379 0.579848 0.201635
vn 0.865490 0.488419 0.111239
vn 0.802620 0.566220 0.187606
vn 0.637895 0.695008 0.331743
vn -0.797284 0.590749 0.123908
vn -0.761165 0.634814 0.132814
vn -0.747970 0.650602 0.131370
vn -0.870784 0.357935 0.337072
vn 0.022904 0.396466 -0.917764
vn -0.018962 0.393712 -0.919038
vn -0.002542 0.208933 -0.977927
vn -0.387800 0.552305 -0.737950
vn -0.525439 0.403489 -0.749073
vn -0.175363 0.717635 -0.673979
vn -0.029940 0.795846 -0.604759
vn 0.036596 0.476014 0.878676
vn -0.000831 0.505467 0.862846
vn 0.334378 0.514058 0.789896
vn 0.229363 0.461831 0.856799
vn -0.074225 0.990030 0.119717
vn -0.275178 0.856495 0.436684
vn -0.183814 0.923632 0.336327
vn -0.077051 0.989812 0.119726
vn -0.032051 0.488276 0.872100
vn 0.000004 0.449417 0.893322
vn -0.292502 0.518253 0.803652
vn -0.595968 0.469176 0.651687
vn 0.275292 0.853177 0.443060
vn 0.075963 0.990100 0.118035
vn 0.027559 0.985356 0.168270
vn 0.187211 0.922553 0.337413
vn 0.019961 0.846583 -0.531882
vn 0.030116 0.721740 -0.691509
vn 0.636314 0.287157 -0.715993
vn 0.811394 0.491156 0.316870
vn 0.882258 0.398147 0.251196
vn 0.850444 0.443404 0.283085
vn 0.776521 0.528355 0.343301
vn -0.742625 0.659631 0.115738
vn -0.655671 0.749838 0.088536
vn -0.681326 0.725609 0.096367
vn -0.771613 0.623631 0.125290
vn -0.404084 0.656817 0.636638
vn -0.410949 0.653471 0.635686
vn 0.494313 0.417198 0.762627
vn 0.181117 0.436243 0.881413
vn 0.371355 0.026273 0.928119
vn 0.487656 0.419722 0.765523
vn -0.515641 0.250485 0.819373
vn -0.264084 0.093797 0.959928
vn -0.222433 0.396943 0.890483
vn -0.482772 0.418306 0.769384
vn 0.405062 0.657185 0.635635
vn 0.408725 0.662859 0.627345
vn -0.000286 0.207054 -0.978329
vn 0.000000 0.207246 -0.978289
vn 0.001294 0.203575 -0.979058
vn 0.000882 0.205775 -0.978599
vn 0.003260 0.347471 -0.937685
vn 0.522628 0.248306 0.815600
vn -0.243138 -0.204676 0.948152
vn -0.127962 0.730068 -0.671287
vn -0.453975 0.544340 -0.705408
vn -0.188444 0.524917 -0.830031
vn 0.203857 0.529314 -0.823571
vn 0.453975 0.544340 -0.705408
vn 0.166511 0.695978 -0.698490
vn 0.721535 0.683311 -0.111683
vn 0.717199 0.687873 -0.111609
vn 0.783522 0.611140 -0.112256
vn 0.786751 0.606976 -0.112258
vn -0.024691 0.540287 -0.841119
vn 0.212090 0.648768 -0.730834
vn -0.000435 0.981251 0.192735
vn 0.369823 0.912122 0.176818
vn 0.305453 0.931726 0.196429
vn -0.000513 0.981302 0.192473
vn 0.032202 0.490258 0.870982
vn 0.255019 0.535562 0.805071
vn 0.000493 0.538983 0.842317
vn -0.003046 0.498988 0.866603
vn 0.000000 0.449407 0.893327
vn 0.000000 0.537791 0.843078
vn -0.000665 0.980973 0.194142
vn -0.000522 0.980889 0.194567
vn -0.017648 0.364941 -0.930863
vn -0.038075 0.653032 -0.756373
vn 0.626597 0.616142 -0.477227
vn 0.042906 0.372102 -0.927200
vn 0.680054 0.718421 0.146282
vn 0.615799 0.764408 0.190975
vn 0.620523 0.459106 0.635746
vn 0.326063 0.941907 0.080589
vn 0.000000 0.999998 0.002088
vn -0.338848 0.937808 -0.075480
vn -0.255181 0.965205 -0.057119
vn -0.539701 0.832808 -0.123098
vn -0.546826 0.828155 -0.123047
vn 0.643008 0.749869 0.155682
vn 0.679312 0.717017 0.156276
vn 0.675907 0.720237 0.156235
vn 0.020026 0.251122 -0.967748
vn 0.000044 0.206469 -0.978453
vn 0.000000 0.449434 0.893314
vn -0.000122 0.401834 0.915712
vn 0.000080 0.981185 0.193068
vn 0.000000 0.981148 0.193256
vn 0.000277 0.981277 0.192600
vn 0.000351 0.981312 0.192425
vn -0.001476 0.585877 -0.810399
vn 0.024423 0.539259 -0.841786
vn 0.020817 0.420885 -0.906875
vn -0.002906 0.600010 -0.799988
vn 0.000926 0.363216 -0.931705
vn 0.000607 0.981036 0.193827
vn 0.000703 0.981107 0.193465
vn 0.000077 0.980639 0.195826
vn 0.000199 0.537654 0.843166
vn 0.000125 0.449404 0.893329
vn -0.778430 0.361127 0.513453
vn -0.919201 0.384349 -0.085703
vn -0.902912 0.418877 -0.096398
vn -0.909601 0.405138 -0.092136
vn -0.925401 0.370161 -0.081323
vn -0.851515 0.340606 -0.398635
vn 0.037795 0.591887 -0.805135
vn -0.001029 0.207773 -0.978177
vn 0.000514 0.204970 -0.978768
vn -0.815656 0.565962 0.119968
vn -0.779365 0.612765 0.130803
vn 0.000064 0.201277 -0.979534
vn 0.000000 0.198847 -0.980031
vn 0.844911 0.534907 -0.000000
vn 0.913409 0.407044 -0.000000
vn 0.938526 0.345210 0.000023
vn -0.588351 0.808606 -0.000000
vn -0.556526 0.779596 0.287243
vn 0.195154 0.980773 -0.000000
vn -0.989695 0.143189 -0.000000
vn 0.785393 -0.618815 -0.014997
vn -0.504079 0.820287 -0.270248
vn -0.517311 0.840372 0.161751
vn 0.137923 0.962534 0.233465
vn 0.111347 0.940133 0.322106
vn 0.921441 0.388517 -0.000000
vn 0.912079 0.409437 0.021756
vn 0.973127 0.230271 0.000002
vn -0.255554 0.966795 -0.000000
vn -0.136924 0.990582 -0.000000
vn 0.921444 0.388511 -0.000000
vn 0.928956 0.370191 -0.000000
vn 0.973188 0.230013 0.000001
vn -0.576133 0.800325 0.165985
vn -0.425795 0.619038 0.659917
vn -0.097825 0.680874 0.725838
vn 0.912332 0.408873 0.021755
vn 0.801506 0.409116 0.436133
vn 0.755033 0.655687 -0.000000
vn 0.907354 0.419665 -0.024283
vn -0.408759 0.907130 0.100157
vn -0.294300 0.849936 0.437031
vn 0.043623 0.843227 0.535785
vn 0.042345 0.846180 0.531213
vn 0.844075 0.518162 0.138007
vn 0.820712 0.483892 0.303777
vn 0.909627 0.414758 -0.023545
vn -0.292581 0.956241 -0.000000
vn -0.291118 0.940906 -0.173050
vn -0.208746 0.636995 -0.742066
vn 0.347194 0.603592 -0.717728
vn 0.349890 0.610173 -0.710820
vn 0.349167 0.608406 -0.712689
vn 0.346454 0.601788 -0.719598
vn 0.688514 0.465244 -0.556324
vn 0.823782 0.531881 -0.196180
vn -0.337468 0.920533 -0.196812
vn -0.382483 0.594579 -0.707236
vn 0.295786 0.614715 -0.731188
vn 0.740983 0.432132 -0.514010
vn 0.834086 0.513568 -0.201367
vn 0.973209 0.229920 -0.000227
vn 0.972309 0.233404 -0.011721
vn 0.972572 0.232388 -0.009949
vn 0.974136 0.225959 0.001224
vn 0.019794 0.992105 0.123841
vn 0.000000 0.948920 0.315518
vn 0.000000 0.770892 0.636966
vn -0.247133 -0.203555 -0.947360
vn -0.267403 0.094560 -0.958934
vn 0.000000 0.051329 -0.998682
vn 0.000000 0.208813 0.977956
vn 0.000000 0.980773 -0.195154
vn 0.184122 0.923316 -0.337028
vn -0.001003 0.356041 -0.934470
vn 0.000000 0.356272 -0.934382
vn -0.023741 0.478605 -0.877709
vn 0.000000 0.445707 -0.895179
vn -0.020856 0.304446 -0.952301
vn -0.208609 0.394690 -0.894819
vn 0.075477 0.989934 -0.119721
vn 0.275663 0.855260 -0.438793
vn -0.027536 0.985435 -0.167807
vn -0.186987 0.922424 -0.337892
vn -0.275875 0.852395 -0.444202
vn -0.075602 0.990086 -0.118385
vn -0.408258 0.659167 -0.631525
vn -0.405146 0.654311 -0.638540
vn 0.409636 0.651407 -0.638645
vn 0.404052 0.654126 -0.639422
vn 0.177797 0.434255 -0.883069
vn 0.490209 0.419044 -0.764263
vn 0.482475 0.415687 -0.770988
vn 0.242881 0.397400 -0.884919
vn -0.521628 0.251780 -0.815176
vn -0.485947 0.417291 -0.767935
vn 0.244582 -0.204225 -0.947877
vn 0.265978 0.093705 -0.959414
vn 0.518436 0.251168 -0.817398
vn -0.452378 0.541811 0.708375
vn 0.452378 0.541811 0.708375
vn -0.329806 0.906713 -0.262869
vn -0.401696 0.874982 -0.270271
vn 0.202221 0.525873 -0.826175
vn 0.505903 0.488162 -0.711168
vn 0.023674 0.475187 -0.879566
vn 0.821350 0.569640 0.029908
vn 0.785834 0.617441 0.035082
vn 0.794318 0.606555 0.033894
vn 0.829443 0.557856 0.028649
vn 0.112852 0.857859 0.501340
vn 0.680683 0.629612 0.374513
vn 0.315761 0.745697 0.586712
vn -0.022786 0.775117 0.631406
vn -0.198432 0.916042 0.348555
vn -0.741529 0.590598 0.318322
vn -0.638426 0.700104 -0.319792
vn -0.753633 0.600239 -0.267862
vn -0.718691 0.634087 -0.285337
vn -0.604878 0.723693 -0.332253
vn -0.445570 0.533092 -0.719222
vn -0.151769 0.545527 -0.824237
vn -0.180219 0.433400 -0.882998
vn 0.000000 0.532005 -0.846741
vn 0.072600 0.802022 0.592866
vn 0.274465 0.662894 0.696592
vn 0.175697 0.798392 0.575935
vn 0.118665 0.878886 0.462038
vn 0.288662 0.889275 0.354774
vn 0.345585 0.932522 -0.104751
vn 0.250537 0.958846 -0.133589
vn 0.571140 0.820245 -0.031590
vn 0.566370 0.823596 -0.030233
vn 0.025389 0.475785 -0.879195
vn 0.136709 0.536613 -0.832681
vn 0.285884 0.558448 -0.778720
vn -0.025886 0.481162 -0.876249
vn -0.305739 0.296821 0.904666
vn -0.672680 0.676222 -0.300377
vn -0.685723 0.665723 -0.294275
vn -0.507036 0.515487 -0.690788
vn -0.169490 0.543689 -0.821995
vn 0.383204 0.639365 0.666609
vn 0.333141 0.601749 0.725889
vn 0.052705 0.794040 0.605577
vn -0.077458 0.839837 0.537284
vn 0.811559 0.543796 -0.213677
vn 0.816350 0.537597 -0.211097
vn 0.790898 0.569352 -0.224318
vn 0.786014 0.575132 -0.226727
vn 0.218140 0.527419 -0.821124
vn 0.560427 0.476341 -0.677511
vn 0.016465 0.468067 -0.883539
vn -0.259272 0.766167 0.588019
vn -0.015200 0.461189 -0.887172
vn -0.339616 -0.408593 -0.847179
vn 0.024676 0.305139 -0.951988
vn -0.514515 -0.851021 -0.105060
vn -0.662317 0.630009 0.405494
vn -0.705685 0.707316 -0.041388
vn -0.702214 0.710778 -0.041114
vn -0.720431 0.692220 -0.042558
vn -0.723893 0.688581 -0.042834
vn -0.416289 0.421365 -0.805702
vn -0.186267 0.495193 -0.848580
vn 0.289873 0.758610 0.583511
vn -0.108836 0.861777 0.495474
vn 0.738459 0.665366 -0.109391
vn 0.663740 0.742902 -0.086867
vn 0.684741 0.722820 -0.093062
vn 0.759037 0.640655 -0.115859
vn 0.196722 0.521609 -0.830195
vn 0.430220 0.506901 -0.746969
vn 0.022730 0.472841 -0.880855
vn -0.325195 0.751465 0.574063
vn -0.818259 0.495460 0.291499
vn -0.712215 0.669672 -0.210448
vn -0.849696 0.514495 -0.115379
vn -0.811933 0.565348 -0.145419
vn -0.672146 0.702978 -0.232470
vn -0.022127 0.469785 -0.882504
vn -0.439454 0.459612 -0.771775
vn -0.177485 0.516215 -0.837867
vn 0.488620 0.418232 0.765723
vn 0.215197 0.395952 0.892700
vn -0.537872 0.052428 0.841395
vn -0.353784 0.079194 0.931968
vn -0.179413 0.436513 0.881628
vn -0.493137 0.418234 0.762821
vn 0.048797 0.283867 0.957621
vn 0.972842 0.231472 0.000314
vn -0.347799 0.027573 -0.937164
vn 0.211220 0.395626 -0.893793
vn 0.482943 0.417606 -0.769656
vn -0.532431 0.005171 -0.846457
vn -0.491373 0.415770 -0.765303
vn -0.030263 0.304818 0.951930
vn 0.000083 0.050610 0.998719
vn 0.000000 0.356484 0.934301
vn -0.776458 -0.630169 -0.000000
vn -0.945619 -0.325275 -0.000028
vn -0.972880 0.231245 0.005553
vn -0.973417 0.229039 -0.000000
vn -0.973479 0.228778 -0.000445
vn -0.938573 0.345079 0.000820
vn -0.913629 0.406548 -0.000000
vn -0.993795 0.038110 0.104495
vn -0.844911 0.534907 -0.000000
vn -0.580639 0.797680 0.162986
vn -0.368965 0.855527 0.363234
vn -0.457408 0.841841 0.286498
vn -0.232850 0.852461 0.468072
vn -0.250311 0.853636 0.456782
vn -0.196956 0.847798 0.492389
vn -0.422019 -0.345201 0.838294
vn -0.504693 -0.343562 0.791991
vn -0.915756 -0.308730 0.257054
vn -0.938450 0.345416 0.000024
vn -0.910887 0.412656 -0.000000
vn -0.973081 0.230461 0.000476
vn -0.993403 -0.012987 -0.113938
vn -0.973442 0.228936 0.000047
vn -0.973465 0.228836 0.000548
vn -0.945364 -0.326016 -0.000000
vn 0.000000 -0.259868 -0.965644
vn -0.247910 0.871857 -0.422381
vn -0.236815 0.870870 -0.430703
vn -0.217767 0.868890 -0.444531
vn -0.313960 0.874247 -0.370299
vn -0.444960 0.858653 -0.254413
vn -0.365203 0.871451 -0.327413
vn -0.843035 -0.448212 -0.297318
vn -0.371241 -0.424704 -0.825716
vn -0.475960 -0.456127 -0.751937
vn -0.000176 0.051000 -0.998699
vn 0.973191 0.229998 -0.000002
vn 0.927582 0.373619 -0.000000
vn 0.928190 -0.372106 -0.000000
vn 0.927707 -0.373309 -0.000000
vn 0.938542 0.345166 -0.000163
vn 0.912455 0.409176 -0.000000
vn 0.992453 0.098140 0.073522
vn 0.972902 0.231208 -0.002171
vn 0.973441 0.228937 -0.000045
vn 0.973456 0.228875 -0.000392
vn 0.945612 -0.325295 -0.000000
vn 0.776458 -0.630169 -0.000000
vn 0.000131 0.356111 0.934444
vn -0.000051 0.355983 0.934493
vn -0.000045 0.356304 0.934370
vn 0.464657 -0.479114 0.744677
vn 0.422537 -0.786200 -0.450946
vn 0.561868 -0.772363 -0.296243
vn 0.455242 -0.785533 -0.419157
vn 0.813685 -0.459554 0.355987
vn 0.323169 -0.770698 -0.549168
vn 0.314955 -0.768605 -0.556821
vn 0.296464 -0.765575 -0.570968
vn 0.471858 -0.487105 0.734901
vn 0.471923 -0.489545 0.733236
vn 0.226492 0.900778 0.370541
vn 0.231412 0.901298 0.366212
vn 0.230439 0.900925 0.367738
vn 0.352881 0.895576 0.270958
vn 0.290692 0.902072 0.319005
vn 0.442674 0.875518 0.193670
vn 0.395503 0.894424 -0.208765
vn 0.276002 0.908172 -0.314717
vn 0.317602 0.906136 -0.279367
vn 0.208879 0.905787 -0.368672
vn 0.215404 0.906260 -0.363724
vn 0.196407 0.904621 -0.378266
vn 0.000000 0.365383 0.930857
vn 0.588351 0.808606 -0.000000
vn 0.137511 0.990500 -0.000000
vn 0.136924 0.990582 -0.000000
vn -0.195154 0.980773 -0.000000
vn 0.989695 0.143189 -0.000000
vn 0.617553 0.716222 0.325045
vn 0.515981 0.851986 0.088787
vn 0.517668 0.840290 -0.161035
vn -0.288898 0.888869 0.355597
vn -0.308288 0.844298 0.438313
vn -0.910700 0.412442 -0.022723
vn -0.973128 0.230264 -0.000004
vn -0.921439 0.388524 -0.000000
vn 0.255537 0.966799 -0.000000
vn -0.921441 0.388518 -0.000003
vn -0.929845 0.367951 -0.000000
vn -0.973192 0.229995 -0.000003
vn 0.480568 0.690938 -0.540055
vn 0.472491 0.875327 -0.102742
vn 0.404314 0.797811 -0.447246
vn 0.096137 0.684382 -0.722758
vn -0.911731 0.410185 -0.022233
vn -0.792131 0.419657 -0.443189
vn -0.755033 0.655687 -0.000000
vn -0.907339 0.419698 0.024286
vn 0.409088 0.906978 -0.100192
vn 0.295974 0.850874 -0.434065
vn -0.042678 0.845413 -0.532405
vn -0.043529 0.843447 -0.535446
vn -0.043194 0.844222 -0.534251
vn -0.042345 0.846180 -0.531213
vn -0.838989 0.527291 -0.134392
vn -0.800659 0.558736 -0.216240
vn -0.909623 0.414768 0.023546
vn 0.572413 0.532490 0.623537
vn -0.347302 0.601697 0.719265
vn -0.350012 0.608327 0.712341
vn -0.687251 0.464557 0.558457
vn -0.823679 0.531844 0.196712
vn 0.337532 0.920439 0.197139
vn 0.382266 0.590945 0.710392
vn -0.297115 0.613616 0.731572
vn -0.295784 0.610900 0.734379
vn -0.296159 0.611665 0.733591
vn -0.297487 0.614375 0.730783
vn -0.740983 0.432132 0.514010
vn -0.834086 0.513568 0.201367
vn -0.973191 0.229998 0.000010
vn -0.927479 0.373876 0.000004
vn -0.927478 -0.373877 0.000002
vn -0.931214 -0.364472 -0.000000
vn 0.000000 0.467586 0.883948
vn 0.000000 -1.000000 -0.000000
vn 1.000000 0.000000 -0.000000
vn -1.000000 0.000000 -0.000000
vn 0.000000 0.467586 -0.883948
vn 0.000000 -0.714213 -0.699929
vn 0.000000 -0.714213 0.699929
vn 0.000000 0.000000 1.000000
vn 0.000000 0.000000 -1.000000
vn 0.000000 0.736942 0.675956
vn 0.000000 1.000000 0.000558
vn 0.000000 -0.736431 -0.676512
vn -0.844911 0.534908 -0.000000
# 464 vertex normals

vt 0.956543 0.003906 0.000000
vt 0.951660 0.032227 0.000000
vt 0.931641 0.032227 0.000000
vt 0.438721 0.260254 0.000000
vt 0.427246 0.250977 0.000000
vt 0.648438 0.253906 0.000000
vt 0.644531 0.260254 0.000000
vt 0.792480 0.526123 0.000000
vt 0.996582 0.526123 0.000000
vt 0.996582 0.757568 0.000000
vt 0.792480 0.757568 0.000000
vt 0.353760 0.260254 0.000000
vt 0.362061 0.316406 0.000000
vt 0.340820 0.323242 0.000000
vt 0.332520 0.296387 0.000000
vt 0.660156 0.314453 0.000000
vt 0.663086 0.270020 0.000000
vt 0.672852 0.296387 0.000000
vt 0.664551 0.323242 0.000000
vt 0.650391 0.360352 0.000000
vt 0.744629 0.359863 0.000000
vt 0.849609 0.492188 0.000000
vt 0.776855 0.322754 0.000000
vt 0.782715 0.323242 0.000000
vt 0.792480 0.355957 0.000000
vt 0.775391 0.356934 0.000000
vt 0.235962 0.262207 0.000000
vt 0.260742 0.260254 0.000000
vt 0.254883 0.296387 0.000000
vt 0.235107 0.296387 0.000000
vt 0.116028 0.323242 0.000000
vt 0.089661 0.296387 0.000000
vt 0.116638 0.296387 0.000000
vt 0.143433 0.323242 0.000000
vt 0.779785 0.260254 0.000000
vt 0.791992 0.261230 0.000000
vt 0.780762 0.296387 0.000000
vt 0.773438 0.296387 0.000000
vt 0.915527 0.296387 0.000000
vt 0.889160 0.323242 0.000000
vt 0.861816 0.323242 0.000000
vt 0.888672 0.296387 0.000000
vt 0.260498 0.323242 0.000000
vt 0.265137 0.360352 0.000000
vt 0.244751 0.359863 0.000000
vt 0.247070 0.323242 0.000000
vt 0.098511 0.260254 0.000000
vt 0.071594 0.260254 0.000000
vt 0.933594 0.260254 0.000000
vt 0.906738 0.260254 0.000000
vt 0.925293 0.165527 0.000000
vt 0.951172 0.165527 0.000000
vt 0.030014 0.034180 0.000000
vt 0.053558 0.032227 0.000000
vt 0.076050 0.145996 0.000000
vt 0.050659 0.145996 0.000000
vt 0.151001 0.494141 0.000000
vt 0.362061 0.371094 0.000000
vt 0.435059 0.371094 0.000000
vt 0.272705 0.361328 0.000000
vt 0.975098 0.034180 0.000000
vt 0.048828 0.003906 0.000000
vt 0.871094 0.345703 0.000000
vt 0.134155 0.345703 0.000000
vt 0.644043 0.316406 0.000000
vt 0.640137 0.316406 0.000000
vt 0.767090 0.324219 0.000000
vt 0.766602 0.296387 0.000000
vt 0.768555 0.260254 0.000000
vt 0.891113 0.260254 0.000000
vt 0.419434 0.260254 0.000000
vt 0.428711 0.316406 0.000000
vt 0.447754 0.316406 0.000000
vt 0.437012 0.315430 0.000000
vt 0.638672 0.377441 0.000000
vt 0.502441 0.494141 0.000000
vt 0.261963 0.296387 0.000000
vt 0.281250 0.258789 0.000000
vt 0.266357 0.323242 0.000000
vt 0.113403 0.260254 0.000000
vt 0.442871 0.380371 0.000000
vt 0.453857 0.371094 0.000000
vt 0.634277 0.371094 0.000000
vt 0.090271 0.295898 0.000000
vt 0.047638 0.259766 0.000000
vt 0.072205 0.259766 0.000000
vt 0.567871 0.848633 0.000000
vt 0.561035 0.825073 0.000000
vt 0.663574 0.825073 0.000000
vt 0.665527 0.848633 0.000000
vt 0.551758 0.796997 0.000000
vt 0.694336 0.796997 0.000000
vt 0.552734 0.848633 0.000000
vt 0.560547 0.848633 0.000000
vt 0.637695 0.989166 0.000000
vt 0.049377 0.004395 0.000000
vt 0.030640 0.034180 0.000000
vt 0.005959 0.034180 0.000000
vt 0.545898 0.825073 0.000000
vt 0.377930 0.848633 0.000000
vt 0.382324 0.825073 0.000000
vt 0.536621 0.796997 0.000000
vt 0.375488 0.796997 0.000000
vt 0.518066 0.759766 0.000000
vt 0.381348 0.761230 0.000000
vt 0.468750 0.655518 0.000000
vt 0.361816 0.825073 0.000000
vt 0.363281 0.848633 0.000000
vt 0.270752 0.848633 0.000000
vt 0.272461 0.825073 0.000000
vt 0.354736 0.796997 0.000000
vt 0.242188 0.796997 0.000000
vt 0.344971 0.761230 0.000000
vt 0.238647 0.761230 0.000000
vt 0.212402 0.655518 0.000000
vt 0.553223 0.825195 0.000000
vt 0.543457 0.796997 0.000000
vt 0.559570 0.761108 0.000000
vt 0.538086 0.761230 0.000000
vt 0.370605 0.848633 0.000000
vt 0.371826 0.825195 0.000000
vt 0.364014 0.796997 0.000000
vt 0.352539 0.761230 0.000000
vt 0.027985 0.153320 0.000000
vt 0.051178 0.145996 0.000000
vt 0.144165 0.322754 0.000000
vt 0.248047 0.322754 0.000000
vt 0.259766 0.346680 0.000000
vt 0.134888 0.346680 0.000000
vt 0.958496 0.004395 0.000000
vt 0.954102 0.032715 0.000000
vt 0.938965 0.032715 0.000000
vt 0.151733 0.495117 0.000000
vt 0.265869 0.346680 0.000000
vt 0.236084 0.295898 0.000000
vt 0.117310 0.295898 0.000000
vt 0.098572 0.153320 0.000000
vt 0.302246 0.153320 0.000000
vt 0.252930 0.259766 0.000000
vt 0.115356 0.259766 0.000000
vt 0.913086 0.153320 0.000000
vt 0.931641 0.145996 0.000000
vt 0.116699 0.322754 0.000000
vt 0.863770 0.322754 0.000000
vt 0.890625 0.295898 0.000000
vt 0.917969 0.295898 0.000000
vt 0.891113 0.322754 0.000000
vt 0.908691 0.259766 0.000000
vt 0.936035 0.259766 0.000000
vt 0.099121 0.259766 0.000000
vt 0.053711 0.164063 0.000000
vt 0.079529 0.164063 0.000000
vt 0.977539 0.034180 0.000000
vt 0.957031 0.145996 0.000000
vt 0.054077 0.032715 0.000000
vt 0.873047 0.346680 0.000000
vt 0.267334 0.322754 0.000000
vt 0.262939 0.295898 0.000000
vt 0.424316 0.295898 0.000000
vt 0.431152 0.322754 0.000000
vt 0.255859 0.295410 0.000000
vt 0.261963 0.259766 0.000000
vt 0.269775 0.259766 0.000000
vt 0.261719 0.322754 0.000000
vt 0.313232 0.345703 0.000000
vt 0.395020 0.340332 0.000000
vt 0.892090 0.259766 0.000000
vt 0.784668 0.322754 0.000000
vt 0.782227 0.295898 0.000000
vt 0.793945 0.347168 0.000000
vt 0.450684 0.322754 0.000000
vt 0.469238 0.348145 0.000000
vt 0.442871 0.346680 0.000000
vt 0.440430 0.322266 0.000000
vt 0.444580 0.295898 0.000000
vt 0.433838 0.294922 0.000000
vt 0.441650 0.259766 0.000000
vt 0.428955 0.259766 0.000000
vt 0.419678 0.259766 0.000000
vt 0.643555 0.322754 0.000000
vt 0.654785 0.322754 0.000000
vt 0.660156 0.345215 0.000000
vt 0.641602 0.346680 0.000000
vt 0.645996 0.295898 0.000000
vt 0.657715 0.295898 0.000000
vt 0.649902 0.259766 0.000000
vt 0.665527 0.260742 0.000000
vt 0.638672 0.322754 0.000000
vt 0.604492 0.349609 0.000000
vt 0.642090 0.295898 0.000000
vt 0.635742 0.259277 0.000000
vt 0.506348 0.153809 0.000000
vt 0.505859 0.153320 0.000000
vt 0.777832 0.322754 0.000000
vt 0.774902 0.346680 0.000000
vt 0.775391 0.295410 0.000000
vt 0.782227 0.259766 0.000000
vt 0.800293 0.261230 0.000000
vt 0.771973 0.322754 0.000000
vt 0.750000 0.346680 0.000000
vt 0.768555 0.295898 0.000000
vt 0.765625 0.259277 0.000000
vt 0.709473 0.153320 0.000000
vt 0.954590 0.145996 0.000000
vt 0.929199 0.145996 0.000000
vt 0.053955 0.164063 0.000000
vt 0.079590 0.164063 0.000000
vt 0.910156 0.153320 0.000000
vt 0.928711 0.160645 0.000000
vt 0.076599 0.145996 0.000000
vt 0.954102 0.160645 0.000000
vt 0.095215 0.153320 0.000000
vt 0.070190 0.032227 0.000000
vt 0.006279 0.034180 0.000000
vt 0.028275 0.153320 0.000000
vt 0.047882 0.260254 0.000000
vt 0.056274 0.153320 0.000000
vt 0.081726 0.153320 0.000000
vt 0.955566 0.259766 0.000000
vt 0.975098 0.153320 0.000000
vt 0.997070 0.034180 0.000000
vt 0.504883 0.032715 0.000000
vt 0.503906 0.004395 0.000000
vt 0.926270 0.152344 0.000000
vt 0.951660 0.152344 0.000000
vt 0.070374 0.032715 0.000000
vt 0.728027 0.655518 0.000000
vt 0.693848 0.761230 0.000000
vt 0.769043 0.537354 0.000000
vt 0.165283 0.537354 0.000000
vt 0.955078 0.260254 0.000000
vt 0.974609 0.153320 0.000000
vt 0.996582 0.034180 0.000000
vt 0.706055 0.153320 0.000000
vt 0.502441 0.153320 0.000000
vt 0.298828 0.153320 0.000000
vt 0.922363 0.153320 0.000000
vt 0.056183 0.153320 0.000000
vt 0.947754 0.153320 0.000000
vt 0.081482 0.153320 0.000000
vt 0.851563 0.493164 0.000000
vt 0.503906 0.495117 0.000000
vt 0.298340 0.989204 0.000000
vt 0.996582 0.989159 0.000000
vt 0.792480 0.989159 0.000000
vt 0.801758 0.507568 0.000000
vt 0.134644 0.507568 0.000000
vt 0.540039 0.845581 0.000000
vt 0.392578 0.847046 0.000000
vt 0.378418 0.761230 0.000000
vt 0.516602 0.759521 0.000000
vt 0.334229 0.761353 0.000000
vt 0.558105 0.762695 0.000000
vt 0.034637 0.598877 0.000000
vt 0.083374 0.598877 0.000000
vt 0.083374 0.571777 0.000000
vt 0.034637 0.571777 0.000000
vt 0.034637 0.536621 0.000000
vt 0.010872 0.536621 0.000000
vt 0.010872 0.571777 0.000000
vt 0.083374 0.458984 0.000000
vt 0.083374 0.437988 0.000000
vt 0.034637 0.408691 0.000000
vt 0.034637 0.443359 0.000000
vt 0.083374 0.521240 0.000000
vt 0.083374 0.541992 0.000000
vt 0.107178 0.541992 0.000000
vt 0.107178 0.521240 0.000000
vt 0.034637 0.511719 0.000000
vt 0.010872 0.511719 0.000000
vt 0.034637 0.468262 0.000000
vt 0.010872 0.468262 0.000000
vt 0.010872 0.443359 0.000000
vt 0.010872 0.408691 0.000000
vt 0.083374 0.500488 0.000000
vt 0.055969 0.511719 0.000000
vt 0.083374 0.479492 0.000000
vt 0.055969 0.468262 0.000000
vt 0.107178 0.458984 0.000000
vt 0.107178 0.437988 0.000000
vt 0.107178 0.479492 0.000000
vt 0.107178 0.500488 0.000000
vt 0.944336 0.493164 0.000000
vt 0.944336 0.391113 0.000000
vt 0.964844 0.391113 0.000000
vt 0.964844 0.493164 0.000000
vt 0.964844 0.371094 0.000000
vt 0.984863 0.371094 0.000000
vt 0.984863 0.391113 0.000000
vt 0.984863 0.493164 0.000000
vt 0.165649 0.654053 0.000000
vt 0.187988 0.654053 0.000000
vt 0.187988 0.964569 0.000000
vt 0.165649 0.964569 0.000000
vt 0.031891 0.964569 0.000000
vt 0.031891 0.654053 0.000000
vt 0.031891 0.629639 0.000000
vt 0.165649 0.629639 0.000000
vt 0.031891 0.989136 0.000000
vt 0.165649 0.989136 0.000000
vt 0.009605 0.964569 0.000000
vt 0.009605 0.654053 0.000000
vt 0.165161 0.654541 0.000000
vt 0.187500 0.654541 0.000000
vt 0.187500 0.965027 0.000000
vt 0.165161 0.965027 0.000000
vt 0.031433 0.965027 0.000000
vt 0.031433 0.654541 0.000000
vt 0.165161 0.989563 0.000000
vt 0.031433 0.989563 0.000000
vt 0.031433 0.630127 0.000000
vt 0.165161 0.630127 0.000000
vt 0.009132 0.965027 0.000000
vt 0.009132 0.654541 0.000000
vt 0.706055 0.849121 0.000000
vt 0.706055 0.933105 0.000000
vt 0.682617 0.933105 0.000000
vt 0.682617 0.849487 0.000000
vt 0.728027 0.953064 0.000000
vt 0.751465 0.953064 0.000000
vt 0.751465 0.982712 0.000000
vt 0.728027 0.982712 0.000000
vt 0.751465 0.825439 0.000000
vt 0.772949 0.848755 0.000000
vt 0.772949 0.932983 0.000000
vt 0.727539 0.825439 0.000000
vt 0.727539 0.793457 0.000000
vt 0.750977 0.793457 0.000000
# 328 texture coords

g Mesh_0095
usemtl Tex_0095_0_dds
s 1
f 1/1/1 2/2/2 3/3/3 
s 2
f 4/4/4 5/5/5 6/6/6 
s 3
f 6/6/6 7/7/7 4/4/4 
s 4
f 8/8/8 9/9/8 10/10/8 
s 5
f 10/10/8 11/11/8 8/8/8 
s 6
f 12/12/9 13/13/10 14/14/11 
s 7
f 14/14/11 15/15/12 12/12/9 
s 8
f 16/16/13 17/17/14 18/18/15 
s 9
f 18/18/16 19/19/16 16/16/16 
s 10
f 16/20/17 20/21/18 21/22/19 
s 11
f 22/23/20 23/24/21 24/25/22 
s 12
f 24/25/22 25/26/23 22/23/20 
s 13
f 26/27/24 27/28/25 28/29/26 
s 14
f 28/29/26 29/30/27 26/27/24 
s 15
f 30/31/28 31/32/29 32/33/30 
s 16
f 32/33/30 33/34/31 30/31/31 
s 17
f 34/35/32 35/36/33 36/37/34 
s 18
f 36/37/34 37/38/35 34/35/32 
s 19
f 38/39/36 39/40/37 40/41/38 
s 20
f 40/41/38 41/42/39 38/39/36 
s 21
f 42/43/40 43/44/41 44/45/40 
s 22
f 44/45/42 45/46/42 42/43/42 
s 23
f 28/29/43 42/43/44 45/46/45 
s 24
f 45/46/45 29/30/46 28/29/43 
s 25
f 36/37/47 23/24/48 22/23/49 
s 26
f 22/23/49 37/38/50 36/37/47 
s 27
f 46/47/51 32/33/30 31/32/29 
s 28
f 31/32/29 47/48/52 46/47/51 
s 29
f 48/49/53 49/50/54 50/51/55 
s 30
f 50/51/55 51/52/56 48/49/53 
s 31
f 52/53/57 53/54/58 54/55/59 
s 32
f 54/55/59 55/56/60 52/53/57 
s 33
f 48/49/61 38/39/36 41/42/39 
s 34
f 41/42/39 49/50/62 48/49/61 
s 35
f 9/57/63 13/58/64 56/59/65 
s 36
f 9/57/63 43/44/66 57/60/67 
s 37
f 1/1/1 58/61/68 2/2/2 
s 38
f 59/62/69 53/54/58 52/53/57 
s 39
f 40/41/70 39/40/71 60/63/72 
s 40
f 61/64/73 30/31/74 33/34/75 
s 41
f 62/65/76 63/66/77 7/7/78 
s 42
f 7/7/78 6/6/79 62/65/76 
s 43
f 19/19/80 64/67/81 20/21/18 
s 44
f 20/21/18 16/20/17 19/19/80 
s 45
f 18/18/82 65/68/83 64/67/84 
s 46
f 64/67/84 19/19/85 18/18/82 
s 47
f 66/69/86 65/68/87 18/18/88 
s 48
f 18/18/88 17/17/89 66/69/86 
s 49
f 67/70/90 49/50/54 41/42/91 
s 50
f 40/41/38 23/24/92 36/37/93 
s 51
f 36/37/93 41/42/39 40/41/38 
s 52
f 60/63/72 24/25/94 23/24/95 
s 53
f 23/24/95 40/41/70 60/63/72 
s 54
f 64/67/81 22/23/96 25/26/97 
s 55
f 25/26/97 20/21/18 64/67/81 
s 56
f 37/38/98 22/23/99 64/67/84 
s 57
f 64/67/84 65/68/83 37/38/98 
s 58
f 66/69/86 34/35/32 37/38/35 
s 59
f 37/38/100 65/68/87 66/69/86 
s 60
f 68/71/101 56/72/102 13/13/102 
s 61
f 13/13/102 12/12/102 68/71/101 
s 62
f 4/4/103 69/73/104 70/74/105 
s 63
f 70/74/105 5/5/106 4/4/103 
s 64
f 5/5/107 70/74/108 56/72/109 
s 65
f 56/72/109 68/71/101 5/5/107 
s 66
f 62/75/110 21/22/19 10/76/111 
s 67
f 15/15/91 71/77/91 72/78/112 
s 68
f 72/78/112 12/12/113 15/15/91 
s 69
f 73/79/114 71/77/115 15/15/116 
s 70
f 15/15/116 14/14/117 73/79/114 
s 71
f 57/60/67 73/79/118 14/14/119 
s 72
f 14/14/119 13/58/120 57/60/67 
s 73
f 33/34/75 45/46/121 44/45/122 
s 74
f 44/45/122 61/64/73 33/34/75 
s 75
f 29/30/123 45/46/124 33/34/125 
s 76
f 33/34/125 32/33/30 29/30/123 
s 77
f 26/27/24 29/30/27 32/33/126 
s 78
f 32/33/126 74/80/127 26/27/24 
s 79
f 71/77/128 28/29/128 27/28/128 
s 80
f 27/28/25 72/78/112 71/77/91 
s 81
f 42/43/129 28/29/130 71/77/131 
s 82
f 71/77/131 73/79/132 42/43/129 
s 83
f 43/44/133 42/43/133 73/79/133 
s 84
f 73/79/134 57/60/134 43/44/41 
s 85
f 20/21/18 25/26/97 21/22/19 
s 86
f 24/25/94 60/63/72 21/22/19 
s 87
f 21/22/19 25/26/97 24/25/94 
s 88
f 9/57/63 57/60/67 13/58/120 
s 89
f 9/57/63 61/64/73 44/45/122 
s 90
f 44/45/122 43/44/135 9/57/63 
s 91
f 9/57/63 56/59/65 70/81/136 
s 92
f 7/7/102 63/66/102 69/73/104 
s 93
f 69/73/104 4/4/103 7/7/102 
s 94
f 16/16/13 62/65/137 6/6/138 
s 95
f 6/6/138 17/17/14 16/16/13 
s 96
f 62/75/110 16/20/17 21/22/19 
s 97
f 62/75/110 70/81/136 69/82/139 
s 98
f 69/82/139 63/83/140 62/75/110 
s 99
f 75/84/141 76/85/142 77/86/143 
s 100
f 78/87/144 79/88/145 80/89/144 
s 101
f 80/89/144 81/90/144 78/87/144 
s 102
f 82/91/146 75/92/146 80/89/146 
s 103
f 80/89/146 79/88/146 82/91/146 
s 104
f 83/93/147 84/94/147 85/95/147 
s 105
f 86/96/148 87/97/148 88/98/148 
s 106
f 89/99/149 83/93/144 90/100/144 
s 107
f 90/100/144 91/101/150 89/99/149 
s 108
f 92/102/146 89/99/146 91/101/151 
s 109
f 91/101/151 93/103/152 92/102/146 
s 110
f 94/104/153 95/105/154 96/106/155 
s 111
f 97/107/156 98/108/144 60/109/144 
s 112
f 60/109/144 39/110/157 97/107/156 
s 113
f 99/111/146 97/107/156 39/110/157 
s 114
f 39/110/157 38/112/146 99/111/146 
s 115
f 100/113/158 101/114/159 102/115/160 
s 116
f 79/88/145 78/87/144 84/94/161 
s 117
f 84/94/161 103/116/162 79/88/145 
s 118
f 82/91/163 79/88/163 103/116/163 
s 119
f 103/116/163 104/117/163 82/91/163 
s 120
f 105/118/164 82/91/165 104/117/165 
s 121
f 104/117/166 106/119/167 105/118/164 
s 122
f 91/101/150 90/100/144 107/120/168 
s 123
f 107/120/168 108/121/169 91/101/150 
s 124
f 93/103/152 91/101/151 108/121/170 
s 125
f 108/121/170 109/122/171 93/103/152 
s 126
f 95/105/154 93/103/172 109/122/173 
s 127
f 109/122/166 110/123/174 95/105/154 
s 128
f 103/116/175 84/94/175 83/93/176 
s 129
f 83/93/176 89/99/149 103/116/177 
s 130
f 104/117/178 103/116/179 89/99/180 
s 131
f 89/99/180 92/102/181 104/117/178 
s 132
f 106/119/167 104/117/182 92/102/183 
s 133
f 92/102/183 94/104/153 106/119/167 
s 134
f 108/121/169 107/120/168 98/108/184 
s 135
f 98/108/184 97/107/185 108/121/185 
s 136
f 109/122/186 108/121/186 97/107/186 
s 137
f 97/107/186 99/111/186 109/122/186 
s 138
f 110/123/174 109/122/187 99/111/188 
s 139
f 99/111/188 100/113/158 110/123/174 
s 140
f 111/124/189 88/98/190 87/97/191 
s 141
f 87/97/191 112/125/192 111/124/189 
s 142
f 113/126/193 114/127/194 115/128/195 
s 143
f 115/128/195 81/129/195 113/126/193 
s 144
f 116/130/196 117/131/197 118/132/198 
s 145
f 85/133/199 115/128/199 119/134/199 
s 146
f 120/135/200 114/127/194 113/126/193 
s 147
f 113/126/193 121/136/201 120/135/200 
s 148
f 122/137/202 123/138/203 124/139/204 
s 149
f 124/139/204 125/140/205 122/137/202 
s 150
f 126/141/206 118/132/198 117/131/197 
s 151
f 117/131/197 127/142/207 126/141/206 
s 152
f 80/143/208 75/84/209 121/136/201 
s 153
f 121/136/201 113/126/193 80/143/208 
s 154
f 128/144/210 129/145/211 130/146/212 
s 155
f 130/146/212 131/147/213 128/144/210 
s 156
f 129/145/211 132/148/214 133/149/215 
s 157
f 133/149/215 130/146/212 129/145/211 
s 158
f 75/84/209 77/86/216 134/150/217 
s 159
f 134/150/217 121/136/201 75/84/209 
s 160
f 134/150/218 77/86/219 135/151/220 
s 161
f 135/151/220 136/152/221 134/150/218 
s 162
f 127/142/207 117/131/197 137/153/222 
s 163
f 137/153/222 138/154/223 127/142/207 
s 164
f 86/96/224 139/155/225 87/97/226 
s 165
f 117/131/197 116/130/196 137/153/222 
s 166
f 81/129/227 80/143/227 113/126/227 
s 167
f 140/156/228 128/144/228 131/147/228 
s 168
f 141/157/200 142/158/200 143/159/229 
s 169
f 143/159/229 144/160/230 141/157/200 
s 170
f 142/158/231 145/161/232 146/162/233 
s 171
f 146/162/233 147/163/205 142/158/231 
s 172
f 148/164/234 145/161/235 142/158/236 
s 173
f 142/158/236 141/157/237 148/164/234 
s 174
f 119/134/238 148/164/239 141/157/240 
s 175
f 141/157/240 149/165/195 119/134/238 
s 176
f 149/165/195 141/157/240 144/160/195 
s 177
f 144/160/195 150/166/241 149/165/195 
s 178
f 115/128/242 114/127/243 148/164/243 
s 179
f 145/161/244 148/164/245 114/127/246 
s 180
f 114/127/246 120/135/247 145/161/244 
s 181
f 124/139/204 146/162/233 145/161/232 
s 182
f 145/161/248 120/135/249 124/139/204 
s 183
f 151/167/205 132/148/250 129/145/251 
s 184
f 128/144/210 152/168/200 153/169/200 
s 185
f 153/169/200 129/145/211 128/144/210 
s 186
f 154/170/252 152/168/253 128/144/195 
s 187
f 128/144/195 140/156/195 154/170/252 
s 188
f 155/171/254 156/172/195 157/173/255 
s 189
f 157/173/255 158/174/256 155/171/254 
s 190
f 159/175/257 155/171/258 158/174/259 
s 191
f 158/174/259 160/176/260 159/175/257 
s 192
f 161/177/261 159/175/262 160/176/263 
s 193
f 160/176/263 162/178/264 161/177/261 
s 194
f 158/174/256 157/173/255 150/166/241 
s 195
f 150/166/241 144/160/265 158/174/265 
s 196
f 160/176/266 158/174/267 144/160/230 
s 197
f 144/160/230 143/159/229 160/176/266 
s 198
f 162/178/264 160/176/268 143/159/269 
s 199
f 143/159/269 163/179/205 162/178/264 
s 200
f 164/180/270 165/181/271 166/182/272 
s 201
f 166/182/272 167/183/273 164/180/270 
s 202
f 168/184/274 169/185/275 165/181/276 
s 203
f 165/181/276 164/180/277 168/184/274 
s 204
f 169/185/278 168/184/279 170/186/280 
s 205
f 170/186/280 171/187/205 169/185/278 
s 206
f 172/188/281 173/189/195 156/172/195 
s 207
f 156/172/195 155/171/254 172/188/281 
s 208
f 174/190/200 172/188/200 155/171/258 
s 209
f 155/171/258 159/175/257 174/190/200 
s 210
f 170/186/280 175/191/282 176/192/283 
s 211
f 176/192/283 177/193/284 170/186/285 
s 212
f 172/188/281 164/180/286 167/183/273 
s 213
f 167/183/273 173/189/195 172/188/281 
s 214
f 174/190/287 168/184/288 164/180/289 
s 215
f 164/180/289 172/188/290 174/190/287 
s 216
f 175/191/282 170/186/280 168/184/279 
s 217
f 168/184/291 174/190/292 175/191/282 
s 218
f 178/194/293 152/168/253 154/170/252 
s 219
f 154/170/252 179/195/294 178/194/293 
s 220
f 153/169/295 152/168/296 178/194/297 
s 221
f 178/194/297 180/196/298 153/169/295 
s 222
f 153/169/299 180/196/300 181/197/301 
s 223
f 181/197/301 182/198/205 153/169/299 
s 224
f 183/199/302 178/194/303 179/195/294 
s 225
f 179/195/294 184/200/195 183/199/302 
s 226
f 180/196/304 178/194/305 183/199/306 
s 227
f 183/199/306 185/201/307 180/196/304 
s 228
f 186/202/308 181/197/301 180/196/300 
s 229
f 180/196/309 185/201/310 186/202/308 
s 230
f 165/181/271 183/199/302 184/200/195 
s 231
f 184/200/195 166/182/272 165/181/271 
s 232
f 185/201/200 183/199/200 165/181/200 
s 233
f 165/181/200 169/185/200 185/201/200 
s 234
f 177/193/284 187/203/203 186/202/308 
s 235
f 186/202/308 171/187/205 177/193/284 
s 236
f 58/61/68 188/204/311 189/205/312 
s 237
f 189/205/312 2/2/2 58/61/68 
s 238
f 190/206/313 191/207/314 46/47/315 
s 239
f 46/47/315 47/48/316 190/206/313 
s 240
f 192/208/317 3/3/3 2/2/2 
s 241
f 2/2/2 189/205/312 192/208/317 
s 242
f 77/86/143 76/85/142 111/124/189 
s 243
f 111/124/189 135/151/318 77/86/143 
s 244
f 132/148/250 151/167/205 126/141/206 
s 245
f 126/141/206 193/209/319 132/148/250 
s 246
f 194/210/320 112/125/321 87/97/226 
s 247
f 87/97/226 139/155/225 194/210/320 
s 248
f 193/209/319 195/211/322 133/149/323 
s 249
f 133/149/323 132/148/250 193/209/319 
s 250
f 49/50/54 67/70/90 192/208/317 
s 251
f 192/208/317 50/51/55 49/50/54 
s 252
f 32/33/126 46/47/315 74/80/127 
s 253
f 196/212/324 74/80/127 46/47/315 
s 254
f 46/47/315 191/207/314 196/212/324 
s 255
f 197/213/325 196/212/324 54/55/59 
s 256
f 54/55/326 53/54/58 197/213/325 
s 257
f 197/213/325 53/54/58 59/62/69 
s 258
f 59/62/327 52/53/328 198/214/327 
s 259
f 199/215/329 198/214/330 52/53/328 
s 260
f 52/53/328 55/56/331 199/215/329 
s 261
f 47/48/332 200/216/333 199/215/329 
s 262
f 199/215/329 190/206/334 47/48/332 
s 263
f 200/216/333 47/48/332 31/32/335 
s 264
f 199/215/336 55/56/337 201/217/338 
s 265
f 202/218/339 54/55/340 196/212/341 
s 266
f 55/56/337 54/55/340 202/218/339 
s 267
f 202/218/339 201/217/338 55/56/337 
s 268
f 196/212/324 191/207/314 202/218/342 
s 269
f 201/217/343 202/218/342 191/207/314 
s 270
f 191/207/314 190/206/313 201/217/343 
s 271
f 201/217/344 190/206/334 199/215/344 
s 272
f 130/146/335 133/149/345 203/219/346 
s 273
f 204/220/347 203/219/346 133/149/345 
s 274
f 133/149/345 195/211/348 204/220/347 
s 275
f 205/221/349 204/220/347 138/154/350 
s 276
f 138/154/350 137/153/351 205/221/349 
s 277
f 205/221/327 137/153/351 116/130/327 
s 278
f 187/203/203 126/141/206 151/167/205 
s 279
f 151/167/205 182/198/205 187/203/203 
s 280
f 206/222/198 118/132/198 126/141/206 
s 281
f 206/222/198 126/141/206 187/203/203 
s 282
f 206/222/198 187/203/203 177/193/284 
s 283
f 207/223/352 116/130/196 118/132/198 
s 284
f 118/132/198 206/222/198 207/223/352 
s 285
f 127/142/353 208/224/354 126/141/355 
s 286
f 138/154/356 204/220/357 209/225/358 
s 287
f 127/142/353 138/154/356 209/225/358 
s 288
f 209/225/358 208/224/354 127/142/353 
s 289
f 204/220/359 195/211/348 209/225/359 
s 290
f 208/224/360 209/225/361 195/211/322 
s 291
f 195/211/322 193/209/319 208/224/360 
s 292
f 208/224/360 193/209/319 126/141/206 
s 293
f 121/136/251 134/150/218 125/140/205 
s 294
f 122/137/202 125/140/205 134/150/218 
s 295
f 134/150/218 136/152/221 122/137/202 
s 296
f 210/226/362 122/137/202 194/210/320 
s 297
f 194/210/320 139/155/225 210/226/362 
s 298
f 210/226/362 139/155/225 86/96/224 
s 299
f 105/118/164 111/227/363 76/228/364 
s 300
f 88/229/365 111/227/363 96/106/155 
s 301
f 88/229/365 96/106/155 102/115/160 
s 302
f 88/229/365 102/115/160 211/230/366 
s 303
f 38/39/141 48/49/367 101/231/368 
s 304
f 102/232/369 101/231/368 48/49/367 
s 305
f 48/49/367 51/52/370 102/232/369 
s 306
f 211/233/371 102/232/369 188/204/372 
s 307
f 188/204/372 58/61/373 211/233/371 
s 308
f 211/233/374 58/61/373 1/1/374 
s 309
f 41/42/91 36/37/34 35/36/33 
s 310
f 35/36/33 67/70/90 41/42/91 
s 311
f 66/69/86 17/17/89 6/6/6 
s 312
f 3/3/3 192/208/317 212/234/375 
s 313
f 3/3/3 212/234/375 213/235/376 
s 314
f 3/3/3 213/235/376 214/236/377 
s 315
f 3/3/3 214/236/377 196/212/324 
s 316
f 3/3/3 196/212/324 197/213/325 
s 317
f 197/213/325 59/62/69 1/1/1 
s 318
f 1/1/1 3/3/3 197/213/325 
s 319
f 215/237/378 50/51/55 192/208/317 
s 320
f 135/151/379 111/124/380 216/238/381 
s 321
f 51/52/382 217/239/382 102/232/369 
s 322
f 136/152/383 218/240/384 122/137/385 
s 323
f 51/52/386 50/51/55 215/237/378 
s 324
f 215/237/378 217/239/387 51/52/386 
s 325
f 136/152/383 135/151/379 216/238/381 
s 326
f 216/238/381 218/240/384 136/152/383 
s 327
f 192/208/388 189/205/389 215/237/390 
s 328
f 217/239/391 215/237/390 189/205/389 
s 329
f 189/205/389 188/204/392 217/239/391 
s 330
f 217/239/391 188/204/392 102/232/393 
s 331
f 111/124/394 112/125/395 216/238/396 
s 332
f 218/240/397 216/238/396 112/125/395 
s 333
f 112/125/395 194/210/398 218/240/397 
s 334
f 218/240/397 194/210/398 122/137/399 
s 335
f 5/5/5 68/71/400 12/12/113 
s 336
f 213/235/376 5/5/5 12/12/113 
s 337
f 214/236/377 213/235/376 12/12/113 
s 338
f 6/6/6 5/5/5 213/235/376 
s 339
f 154/170/199 140/156/199 8/241/199 
s 340
f 184/200/199 179/195/199 8/241/199 
s 341
f 179/195/199 154/170/199 8/241/199 
s 342
f 11/242/199 85/133/199 149/165/199 
s 343
f 149/165/199 150/166/199 11/242/199 
s 344
f 85/133/199 81/129/199 115/128/199 
s 345
f 119/134/199 149/165/199 85/133/199 
s 346
f 78/87/147 81/90/147 85/95/147 
s 347
f 21/243/147 98/108/147 107/120/147 
s 348
f 84/94/147 78/87/147 85/95/147 
s 349
f 21/243/147 90/100/147 83/93/147 
s 350
f 83/93/147 85/95/147 21/243/147 
s 351
f 21/243/147 60/109/147 98/108/147 
s 352
f 107/120/147 90/100/147 21/243/147 
s 353
f 156/172/199 173/189/199 11/242/199 
s 354
f 11/11/8 10/10/8 21/244/8 
s 355
f 21/244/8 85/245/8 11/11/8 
s 356
f 166/182/199 184/200/199 8/241/199 
s 357
f 8/241/199 11/242/199 166/182/199 
s 358
f 173/189/199 167/183/199 11/242/199 
s 359
f 11/242/199 150/166/199 157/173/199 
s 360
f 157/173/199 156/172/199 11/242/199 
s 361
f 167/183/199 166/182/199 11/242/199 
s 362
f 9/57/63 70/81/136 10/76/111 
s 363
f 10/76/111 70/81/136 62/75/110 
s 364
f 206/222/198 177/193/284 123/138/203 
s 365
f 206/222/198 123/138/203 122/137/202 
s 366
f 206/222/198 122/137/202 210/226/362 
s 367
f 207/223/352 206/222/198 210/226/362 
s 368
f 210/226/362 86/96/224 207/223/352 
s 369
f 86/246/374 88/229/365 211/230/366 
s 370
f 211/230/366 1/247/374 86/246/374 
s 371
f 219/87/401 220/88/402 30/89/403 
s 372
f 30/89/403 61/90/401 219/87/401 
s 373
f 221/91/404 31/92/404 30/89/403 
s 374
f 30/89/403 220/88/402 221/91/404 
s 375
f 222/248/405 223/94/405 9/95/405 
s 376
f 224/99/406 222/248/407 225/249/401 
s 377
f 225/249/401 226/101/408 224/99/406 
s 378
f 227/102/409 224/99/410 226/101/404 
s 379
f 226/101/404 228/103/404 227/102/409 
s 380
f 229/250/411 230/106/412 231/251/413 
s 381
f 232/107/414 233/108/401 140/109/401 
s 382
f 140/109/401 131/110/403 232/107/414 
s 383
f 234/111/404 232/107/414 131/110/403 
s 384
f 131/110/403 130/112/404 234/111/404 
s 385
f 235/252/415 203/114/416 204/115/417 
s 386
f 204/115/417 230/106/412 235/252/415 
s 387
f 220/88/418 219/87/401 223/94/419 
s 388
f 223/94/419 236/116/420 220/88/418 
s 389
f 221/91/421 220/88/421 236/116/421 
s 390
f 236/116/421 237/117/421 221/91/421 
s 391
f 238/253/422 221/91/423 237/117/423 
s 392
f 237/117/424 239/119/425 238/253/422 
s 393
f 226/101/408 225/249/401 240/120/426 
s 394
f 240/120/426 241/121/427 226/101/408 
s 395
f 228/103/428 226/101/429 241/121/430 
s 396
f 241/121/430 242/122/431 228/103/428 
s 397
f 229/250/411 228/103/432 242/122/433 
s 398
f 242/122/433 243/123/434 229/250/411 
s 399
f 236/116/420 223/94/419 222/248/407 
s 400
f 222/248/407 224/99/406 236/116/435 
s 401
f 237/117/436 236/116/437 224/99/410 
s 402
f 224/99/410 227/102/409 237/117/436 
s 403
f 239/119/425 237/117/438 227/102/439 
s 404
f 227/102/439 231/251/413 239/119/425 
s 405
f 241/121/427 240/120/426 233/108/440 
s 406
f 233/108/440 232/107/441 241/121/441 
s 407
f 242/122/442 241/121/443 232/107/444 
s 408
f 232/107/444 234/111/445 242/122/442 
s 409
f 243/123/434 242/122/446 234/111/447 
s 410
f 234/111/447 235/252/415 243/123/434 
s 411
f 230/106/412 199/227/448 200/228/449 
s 412
f 200/228/449 238/253/422 230/106/412 
s 413
f 198/229/450 199/227/448 230/106/412 
s 414
f 198/229/450 230/106/412 204/115/417 
s 415
f 198/229/450 204/115/417 205/230/451 
s 416
f 230/106/412 239/119/425 231/251/413 
s 417
f 219/87/405 61/90/405 9/95/405 
s 418
f 8/243/405 233/108/405 240/120/405 
s 419
f 223/94/405 219/87/405 9/95/405 
s 420
f 8/243/405 225/249/405 222/248/405 
s 421
f 222/248/405 9/95/405 8/243/405 
s 422
f 8/243/405 140/109/405 233/108/405 
s 423
f 240/120/405 225/249/405 8/243/405 
s 424
f 59/246/327 198/229/450 205/230/451 
s 425
f 205/230/451 116/247/327 59/246/327 
s 426
f 244/254/452 245/255/452 246/256/452 
s 427
f 246/256/452 247/257/452 244/254/452 
s 428
f 248/258/453 249/259/453 246/260/453 
s 429
f 246/260/453 245/257/453 248/258/453 
s 430
f 250/261/454 247/262/454 246/263/454 
s 431
f 246/263/454 249/264/454 250/261/454 
s 432
f 251/265/455 248/258/455 245/257/455 
s 433
f 245/257/455 244/266/455 251/265/455 
s 434
f 251/265/8 244/266/8 247/267/8 
s 435
f 247/267/8 250/268/8 251/265/8 
s 436
f 252/255/456 253/256/456 254/257/456 
s 437
f 254/257/456 255/254/456 252/255/456 
s 438
f 249/259/457 248/258/457 256/269/457 
s 439
f 256/269/457 257/270/457 249/259/457 
s 440
f 257/270/453 256/269/453 258/271/453 
s 441
f 258/271/453 259/272/453 257/270/453 
s 442
f 259/272/458 258/271/458 260/264/458 
s 443
f 260/264/458 261/273/458 259/272/458 
s 444
f 261/273/453 260/264/453 255/263/453 
s 445
f 255/263/453 254/274/453 261/273/453 
s 446
f 262/265/454 261/258/454 254/257/454 
s 447
f 254/257/454 253/266/454 262/265/454 
s 448
f 263/275/454 259/276/454 261/258/454 
s 449
f 261/258/454 262/265/454 263/275/454 
s 450
f 264/277/454 257/278/454 259/276/454 
s 451
f 259/276/454 263/275/454 264/277/454 
s 452
f 250/261/454 249/264/454 257/278/454 
s 453
f 257/278/454 264/277/454 250/261/454 
s 454
f 248/258/455 251/265/455 265/275/455 
s 455
f 265/275/455 256/276/455 248/258/455 
s 456
f 256/276/455 265/275/455 266/277/455 
s 457
f 266/277/455 258/278/455 256/276/455 
s 458
f 258/278/455 266/277/455 267/261/455 
s 459
f 267/261/455 260/264/455 258/278/455 
s 460
f 260/264/455 267/261/455 252/262/455 
s 461
f 252/262/455 255/263/455 260/264/455 
s 462
f 267/261/8 262/279/8 253/280/8 
s 463
f 253/280/8 252/262/8 267/261/8 
s 464
f 266/277/8 263/281/8 262/279/8 
s 465
f 262/279/8 267/261/8 266/277/8 
s 466
f 265/275/8 264/282/8 263/281/8 
s 467
f 263/281/8 266/277/8 265/275/8 
s 468
f 251/265/8 250/268/8 264/282/8 
s 469
f 264/282/8 265/275/8 251/265/8 
s 470
f 268/254/452 269/255/452 270/256/452 
s 471
f 270/256/452 271/257/452 268/254/452 
s 472
f 272/258/453 273/259/453 270/260/453 
s 473
f 270/260/453 269/257/453 272/258/453 
s 474
f 274/261/454 271/262/454 270/263/454 
s 475
f 270/263/454 273/264/454 274/261/454 
s 476
f 275/265/455 272/258/455 269/257/455 
s 477
f 269/257/455 268/266/455 275/265/455 
s 478
f 275/265/8 268/266/8 271/267/8 
s 479
f 271/267/8 274/268/8 275/265/8 
s 480
f 276/255/456 277/256/456 278/257/456 
s 481
f 278/257/456 279/254/456 276/255/456 
s 482
f 273/259/457 272/258/457 280/269/457 
s 483
f 280/269/457 281/270/457 273/259/457 
s 484
f 281/270/453 280/269/453 282/271/453 
s 485
f 282/271/453 283/272/453 281/270/453 
s 486
f 283/272/458 282/271/458 284/264/458 
s 487
f 284/264/458 285/273/458 283/272/458 
s 488
f 285/273/453 284/264/453 279/263/453 
s 489
f 279/263/453 278/274/453 285/273/453 
s 490
f 286/265/454 285/258/454 278/257/454 
s 491
f 278/257/454 277/266/454 286/265/454 
s 492
f 287/275/454 283/276/454 285/258/454 
s 493
f 285/258/454 286/265/454 287/275/454 
s 494
f 288/277/454 281/278/454 283/276/454 
s 495
f 283/276/454 287/275/454 288/277/454 
s 496
f 274/261/454 273/264/454 281/278/454 
s 497
f 281/278/454 288/277/454 274/261/454 
s 498
f 272/258/455 275/265/455 289/275/455 
s 499
f 289/275/455 280/276/455 272/258/455 
s 500
f 280/276/455 289/275/455 290/277/455 
s 501
f 290/277/455 282/278/455 280/276/455 
s 502
f 282/278/455 290/277/455 291/261/455 
s 503
f 291/261/455 284/264/455 282/278/455 
s 504
f 284/264/455 291/261/455 276/262/455 
s 505
f 276/262/455 279/263/455 284/264/455 
s 506
f 291/261/8 286/279/8 277/280/8 
s 507
f 277/280/8 276/262/8 291/261/8 
s 508
f 290/277/8 287/281/8 286/279/8 
s 509
f 286/279/8 291/261/8 290/277/8 
s 510
f 289/275/8 288/282/8 287/281/8 
s 511
f 287/281/8 290/277/8 289/275/8 
s 512
f 275/265/8 274/268/8 288/282/8 
s 513
f 288/282/8 289/275/8 275/265/8 
s 514
f 292/283/459 293/284/459 294/285/459 
s 515
f 294/285/459 295/286/459 292/283/459 
s 516
f 296/285/453 297/287/453 294/288/453 
s 517
f 294/288/453 293/289/453 296/285/453 
s 518
f 298/285/454 295/289/454 294/290/454 
s 519
f 294/290/454 297/286/454 298/285/454 
s 520
f 299/286/455 296/285/455 293/289/455 
s 521
f 293/289/455 292/290/455 299/286/455 
s 522
f 299/287/8 292/288/8 295/289/8 
s 523
f 295/289/8 298/285/8 299/287/8 
s 524
f 299/284/460 298/285/460 297/286/460 
s 525
f 297/286/460 296/283/460 299/284/460 
s 526
f 300/283/459 301/284/459 302/285/459 
s 527
f 302/285/459 303/286/459 300/283/459 
s 528
f 304/285/453 305/287/453 302/288/453 
s 529
f 302/288/453 301/289/453 304/285/453 
s 530
f 306/285/454 303/289/454 302/290/454 
s 531
f 302/290/454 305/286/454 306/285/454 
s 532
f 307/286/455 304/285/455 301/289/455 
s 533
f 301/289/455 300/290/455 307/286/455 
s 534
f 307/287/8 300/288/8 303/289/8 
s 535
f 303/289/8 306/285/8 307/287/8 
s 536
f 307/284/460 306/285/460 305/286/460 
s 537
f 305/286/460 304/283/460 307/284/460 
s 538
f 308/291/459 309/292/459 310/293/459 
s 539
f 310/293/459 311/294/459 308/291/459 
s 540
f 312/295/453 313/296/453 310/291/453 
s 541
f 310/291/453 309/294/453 312/295/453 
s 542
f 314/297/454 311/298/454 310/291/454 
s 543
f 310/291/454 313/296/454 314/297/454 
s 544
f 315/299/455 312/295/455 309/294/455 
s 545
f 309/294/455 308/300/455 315/299/455 
s 546
f 315/296/8 308/291/8 311/294/8 
s 547
f 311/294/8 314/295/8 315/296/8 
s 548
f 315/296/460 314/295/460 313/301/460 
s 549
f 313/301/460 312/302/460 315/296/460 
s 550
f 316/303/459 317/304/459 318/305/459 
s 551
f 318/305/459 319/306/459 316/303/459 
s 552
f 320/307/453 321/308/453 318/303/453 
s 553
f 318/303/453 317/306/453 320/307/453 
s 554
f 322/307/454 319/306/454 318/309/454 
s 555
f 318/309/454 321/310/454 322/307/454 
s 556
f 323/308/455 320/311/455 317/312/455 
s 557
f 317/312/455 316/303/455 323/308/455 
s 558
f 323/308/8 316/303/8 319/306/8 
s 559
f 319/306/8 322/307/8 323/308/8 
s 560
f 323/308/460 322/307/460 321/313/460 
s 561
f 321/313/460 320/314/460 323/308/460 
s 562
f 324/315/461 325/316/461 326/317/461 
s 563
f 326/317/461 327/318/461 324/315/461 
s 564
f 328/319/459 329/320/459 326/321/459 
s 565
f 326/321/459 325/322/459 328/319/459 
s 566
f 330/323/454 327/324/454 326/325/454 
s 567
f 326/325/454 329/320/454 330/323/454 
s 568
f 331/326/455 328/319/455 325/316/455 
s 569
f 325/316/455 324/315/455 331/326/455 
s 570
f 331/326/462 324/327/462 327/328/462 
s 571
f 327/328/462 330/323/462 331/326/462 
s 572
f 331/326/463 330/323/463 329/320/463 
s 573
f 329/320/463 328/319/463 331/326/463 
s 574
f 332/315/461 333/316/461 334/317/461 
s 575
f 334/317/461 335/318/461 332/315/461 
s 576
f 336/319/459 337/320/459 334/321/459 
s 577
f 334/321/459 333/322/459 336/319/459 
s 578
f 338/323/454 335/324/454 334/325/454 
s 579
f 334/325/454 337/320/454 338/323/454 
s 580
f 339/326/455 336/319/455 333/316/455 
s 581
f 333/316/455 332/315/455 339/326/455 
s 582
f 339/326/462 332/327/462 335/328/462 
s 583
f 335/328/462 338/323/462 339/326/462 
s 584
f 339/326/463 338/323/463 337/320/463 
s 585
f 337/320/463 336/319/463 339/326/463 
s 586
f 230/106/412 243/123/434 235/252/415 
s 587
f 102/115/160 96/106/155 110/123/174 
s 588
f 110/123/174 100/113/158 102/115/160 
s 589
f 94/104/153 96/106/155 106/119/167 
s 590
f 146/162/233 124/139/204 123/138/203 
s 591
f 146/162/233 123/138/203 147/163/205 
s 592
f 181/197/301 186/202/308 187/203/203 
s 593
f 182/198/205 181/197/301 187/203/203 
s 594
f 35/36/33 212/234/375 192/208/317 
s 595
f 192/208/317 67/70/90 35/36/33 
s 596
f 26/27/24 214/236/377 27/28/25 
s 597
f 96/106/155 111/227/363 105/118/164 
s 598
f 105/118/164 106/119/167 96/106/155 
s 599
f 95/105/154 110/123/174 96/106/155 
s 600
f 177/193/284 162/178/264 163/179/205 
s 601
f 147/163/205 123/138/203 177/193/284 
s 602
f 177/193/284 163/179/205 147/163/205 
s 603
f 161/177/261 162/178/264 177/193/284 
s 604
f 161/177/261 177/193/284 176/192/283 
s 605
f 171/187/205 170/186/280 177/193/284 
s 606
f 238/253/422 239/119/425 230/106/412 
s 607
f 229/250/411 243/123/434 230/106/412 
s 608
f 26/27/24 74/80/127 196/212/324 
s 609
f 196/212/324 214/236/377 26/27/24 
s 610
f 72/78/112 27/28/25 214/236/377 
s 611
f 35/36/33 34/35/32 212/234/375 
s 612
f 34/35/32 66/69/86 212/234/375 
s 613
f 6/6/6 213/235/376 212/234/375 
s 614
f 212/234/375 66/69/86 6/6/6 
s 615
f 129/145/251 153/169/299 182/198/205 
s 616
f 182/198/205 151/167/205 129/145/251 
s 617
f 185/201/310 169/185/278 171/187/205 
s 618
f 171/187/205 186/202/308 185/201/310 
s 619
f 176/192/283 175/191/282 161/177/261 
s 620
f 175/191/282 174/190/292 159/175/262 
s 621
f 159/175/262 161/177/261 175/191/282 
s 622
f 163/179/205 143/159/269 142/158/231 
s 623
f 142/158/231 147/163/205 163/179/205 
s 624
f 121/136/251 125/140/205 124/139/204 
s 625
f 124/139/204 120/135/249 121/136/251 
s 626
f 75/92/141 82/91/141 105/118/164 
s 627
f 105/118/164 76/228/364 75/92/141 
s 628
f 93/103/172 95/105/154 94/104/153 
s 629
f 94/104/153 92/102/183 93/103/172 
s 630
f 38/112/141 101/114/159 100/113/158 
s 631
f 100/113/158 99/111/188 38/112/141 
s 632
f 238/253/422 200/228/449 31/92/335 
s 633
f 31/92/335 221/91/464 238/253/422 
s 634
f 231/251/413 227/102/439 228/103/432 
s 635
f 228/103/432 229/250/411 231/251/413 
s 636
f 235/252/415 234/111/447 130/112/335 
s 637
f 130/112/335 203/114/416 235/252/415 
s 638
f 148/164/239 119/134/238 115/128/242 
s 639
f 12/12/113 72/78/112 214/236/377 
# 0 polygons - 639 triangles