# Blender v2.82 (sub 7) OBJ File: ''
# www.blender.org
mtllib lockersShape_1.mtl
o lockersShape_0.001
v -0.824411 4.846603 1.086038
v -0.034816 4.846603 1.086038
v -0.824411 4.846603 -0.003762
v 0.002186 4.846603 -0.003762
v 0.043283 4.846603 1.086038
v 0.824784 4.846603 -0.003762
v 0.824784 4.846603 1.086038
v 0.824784 0.000603 1.086036
v 0.824784 0.000603 -0.003764
v 0.824784 1.644204 1.086036
v 0.824784 1.644204 -0.003763
v 0.824784 3.411504 1.086037
v 0.824784 3.411504 -0.003762
v 0.824784 4.846603 1.086038
v 0.824784 4.846603 -0.003762
v -0.824411 0.000603 -0.003764
v -0.824411 0.000603 1.086036
v -0.824411 1.644204 -0.003763
v -0.824411 1.644204 1.086036
v -0.824411 3.411504 -0.003762
v -0.824411 3.411504 1.086037
v -0.824411 4.846603 -0.003762
v -0.824411 4.846603 1.086038
v -0.034816 0.068503 1.086036
v 0.037389 0.068503 1.086036
v 0.037389 1.644303 1.086036
v -0.034816 1.644303 1.086036
v 0.037389 3.411404 1.086037
v -0.034816 3.411404 1.086037
v 0.037389 4.778703 1.086038
v -0.034816 4.778703 1.086038
v -0.824411 0.000603 1.086036
v -0.034816 0.000603 1.086036
v -0.762416 0.068503 1.086036
v -0.034816 0.068503 1.086036
v -0.824411 0.000603 1.086036
v -0.762416 0.068503 1.086036
v -0.762416 1.644303 1.086036
v -0.824411 1.644204 1.086036
v -0.762416 3.411404 1.086037
v -0.824411 3.411504 1.086037
v -0.762416 4.778703 1.086038
v -0.824411 4.846603 1.086038
v -0.034816 4.778703 1.086038
v -0.034816 4.846603 1.086038
v -0.034816 0.000603 1.086036
v 0.043283 0.000603 1.086036
v -0.034816 0.068503 1.086036
v 0.037389 0.068503 1.086036
v 0.824784 0.000603 1.086036
v 0.824784 1.644204 1.086036
v 0.762789 0.068503 1.086036
v 0.762789 1.644303 1.086036
v 0.824784 3.411504 1.086037
v 0.762789 3.411404 1.086037
v 0.824784 4.846603 1.086038
v 0.762789 4.778703 1.086038
v 0.043283 4.846603 1.086038
v -0.034816 4.846603 1.086038
v 0.037389 4.778703 1.086038
v -0.034816 4.778703 1.086038
v 0.043283 0.000603 1.086036
v 0.824784 0.000603 1.086036
v 0.037389 0.068503 1.086036
v 0.762789 0.068503 1.086036
v 0.824784 4.846603 1.086038
v 0.043283 4.846603 1.086038
v 0.762789 4.778703 1.086038
v 0.037389 4.778703 1.086038
v -0.762416 0.068503 1.086036
v -0.034816 0.068503 1.086036
v -0.762416 0.068503 0.217635
v -0.034816 0.068503 0.217635
v -0.034816 0.068503 1.086036
v -0.034816 1.644303 1.086036
v -0.034816 0.068503 0.217635
v -0.034816 1.644303 0.217635
v -0.034816 3.411404 1.086037
v -0.034816 3.411404 0.217636
v -0.034816 4.778703 1.086038
v -0.034816 4.778703 0.217637
v -0.762416 0.068503 1.086036
v -0.762416 0.068503 0.217635
v -0.762416 1.644303 0.217635
v -0.762416 1.644303 1.086036
v -0.762416 3.411404 0.217636
v -0.762416 3.411404 1.086037
v -0.762416 4.778703 0.217637
v -0.762416 4.778703 1.086038
v 0.762789 0.068503 1.086036
v 0.762789 1.644303 1.086036
v 0.762789 0.068503 0.217635
v 0.762789 1.644303 0.217635
v 0.762789 3.411404 1.086037
v 0.762789 3.411404 0.217636
v 0.762789 4.778703 1.086038
v 0.762789 4.778703 0.217637
v -0.034816 4.778703 1.086038
v -0.762416 4.778703 1.086038
v -0.034816 4.778703 0.217637
v -0.762416 4.778703 0.217637
v 0.037389 0.068503 1.086036
v 0.762789 0.068503 1.086036
v 0.037389 0.068503 0.217635
v 0.762789 0.068503 0.217635
v 0.037389 0.068503 1.086036
v 0.037389 0.068503 0.217635
v 0.037389 1.644303 0.217635
v 0.037389 1.644303 1.086036
v 0.037389 3.411404 0.217636
v 0.037389 3.411404 1.086037
v 0.037389 4.778703 0.217637
v 0.037389 4.778703 1.086038
v 0.762789 4.778703 1.086038
v 0.037389 4.778703 1.086038
v 0.762789 4.778703 0.217637
v 0.037389 4.778703 0.217637
v 0.037389 4.778703 0.217637
v 0.037389 3.411404 0.217636
v 0.762789 4.778703 0.217637
v 0.762789 3.411404 0.217636
v 0.037389 1.644303 0.217635
v 0.762789 1.644303 0.217635
v 0.037389 0.068503 0.217635
v 0.762789 0.068503 0.217635
v -0.762416 0.068503 0.217635
v -0.034816 0.068503 0.217635
v -0.034816 1.644303 0.217635
v -0.762416 1.644303 0.217635
v -0.034816 3.411404 0.217636
v -0.762416 3.411404 0.217636
v -0.034816 4.778703 0.217637
v -0.762416 4.778703 0.217637
v 0.000183 0.000603 -0.003764
v -0.824411 0.000603 -0.003764
v -0.824411 1.644204 -0.003763
v 0.000183 1.644204 -0.003763
v 0.824784 0.000603 -0.003764
v -0.824411 3.411504 -0.003762
v 0.000183 3.411504 -0.003762
v 0.824784 1.644204 -0.003763
v -0.824411 4.846603 -0.003762
v 0.002186 4.846603 -0.003762
v 0.824784 3.411504 -0.003762
v 0.824784 4.846603 -0.003762
v 0.824784 0.000603 1.086036
v 0.043283 0.000603 1.086036
v 0.824784 0.000603 -0.003764
v 0.000183 0.000603 -0.003764
v -0.034816 0.000603 1.086036
v -0.824411 0.000603 1.086036
v -0.824411 0.000603 -0.003764
vt 1.395192 -0.016451
vt 1.515929 -0.016451
vt 1.395192 -0.225570
vt 1.522348 -0.225570
vt 1.529466 -0.016451
vt 1.658192 -0.225570
vt 1.658192 -0.016451
vt 0.843237 -0.015050
vt 0.660289 -0.014814
vt 0.843237 -0.324590
vt 0.660289 -0.322804
vt 0.843237 -0.678310
vt 0.660289 -0.679304
vt 0.843237 -0.987620
vt 0.660289 -0.987620
vt 0.666266 -0.014338
vt 0.843237 -0.013547
vt 0.666266 -0.323872
vt 0.843237 -0.323743
vt 0.666266 -0.675032
vt 0.843237 -0.674903
vt 0.666266 -0.987620
vt 0.843237 -0.987620
vt 0.989080 -0.026808
vt 0.978688 -0.026808
vt 0.978688 -0.326152
vt 0.989080 -0.326152
vt 0.978688 -0.677305
vt 0.989080 -0.677305
vt 0.978688 -0.977823
vt 0.989080 -0.977823
vt 0.843237 -0.013547
vt 0.989042 -0.012755
vt 0.865627 -0.026231
vt 0.989042 -0.024278
vt 0.843237 -0.013547
vt 0.865627 -0.026231
vt 0.866898 -0.323614
vt 0.843237 -0.323743
vt 0.865627 -0.674774
vt 0.843237 -0.674903
vt 0.864357 -0.977823
vt 0.843237 -0.987620
vt 0.989042 -0.977823
vt 0.989042 -0.987620
vt 0.989080 -0.015285
vt 0.978688 -0.015285
vt 0.989080 -0.026808
vt 0.978688 -0.026808
vt 0.843237 -0.015050
vt 0.843237 -0.324590
vt 0.865627 -0.026808
vt 0.866898 -0.326152
vt 0.843237 -0.678310
vt 0.865627 -0.677305
vt 0.843237 -0.987620
vt 0.864357 -0.977823
vt 0.978688 -0.987620
vt 0.989080 -0.987620
vt 0.978688 -0.977823
vt 0.989080 -0.977823
vt 0.978688 -0.015285
vt 0.843237 -0.015050
vt 0.978688 -0.026808
vt 0.865627 -0.026808
vt 0.843237 -0.987620
vt 0.978688 -0.987620
vt 0.864357 -0.977823
vt 0.978688 -0.977823
vt 0.878033 -0.046995
vt 0.969458 -0.046996
vt 0.878031 -0.171134
vt 0.969456 -0.171135
vt -0.344998 0.968942
vt -0.344998 0.653696
vt -0.448266 0.968942
vt -0.448266 0.653696
vt -0.344998 0.300183
vt -0.448266 0.300183
vt -0.344998 0.026633
vt -0.448266 0.026633
vt 0.536580 0.961459
vt 0.627975 0.961459
vt 0.627975 0.657560
vt 0.536580 0.657560
vt 0.627975 0.316847
vt 0.530041 0.316847
vt 0.627975 0.053201
vt 0.536580 0.053201
vt 0.963205 0.940168
vt 0.963205 0.646266
vt 0.877580 0.940168
vt 0.877580 0.646266
vt 0.963205 0.316687
vt 0.877580 0.316687
vt 0.963205 0.057608
vt 0.877580 0.057608
vt 0.969456 -0.977823
vt 0.879303 -0.977823
vt 0.969456 -0.839103
vt 0.878031 -0.839103
vt 0.415607 -0.053768
vt 0.506570 -0.053768
vt 0.415610 -0.177996
vt 0.506573 -0.177996
vt -0.154178 0.970400
vt -0.259460 0.970400
vt -0.259460 0.658814
vt -0.154178 0.658814
vt -0.259460 0.309405
vt -0.154178 0.309405
vt -0.259460 0.039031
vt -0.154178 0.039031
vt 0.506576 -0.968149
vt 0.415613 -0.968149
vt 0.506573 -0.845157
vt 0.415610 -0.845157
vt 0.415610 -0.845157
vt 0.415610 -0.651481
vt 0.506573 -0.845157
vt 0.506573 -0.651481
vt 0.415610 -0.401191
vt 0.506573 -0.401191
vt 0.415610 -0.177996
vt 0.506573 -0.177996
vt 0.878031 -0.171134
vt 0.969456 -0.171135
vt 0.969456 -0.396413
vt 0.878031 -0.396413
vt 0.969456 -0.645429
vt 0.878031 -0.645429
vt 0.969456 -0.839103
vt 0.878031 -0.839103
vt 0.524040 -0.014814
vt 0.383091 -0.014814
vt 0.383091 -0.323195
vt 0.524040 -0.323195
vt 0.660289 -0.014814
vt 0.383091 -0.679946
vt 0.524040 -0.679946
vt 0.660289 -0.322804
vt 0.383091 -0.987620
vt 0.524383 -0.987620
vt 0.660289 -0.679304
vt 0.660289 -0.987620
vt 1.395192 -0.017178
vt 1.515727 -0.017178
vt 1.395192 -0.225570
vt 1.522838 -0.225570
vt 1.528618 -0.017178
vt 1.657975 -0.017178
vt 1.659030 -0.225570
vn 0.0000 1.0000 0.0000
vn 1.0000 0.0000 0.0000
vn -1.0000 0.0000 0.0000
vn 0.0000 -0.0000 1.0000
vn 0.0000 -1.0000 0.0000
vn 0.0000 0.0000 -1.0000
usemtl t1/levels/hunter-city/hun-underpass/props/hun-locker-metal:defa
s 1
f 1/1/1 2/2/1 3/3/1
f 2/2/1 4/4/1 3/3/1
f 4/4/1 2/2/1 5/5/1
f 4/4/1 5/5/1 6/6/1
f 5/5/1 7/7/1 6/6/1
f 8/8/2 9/9/2 10/10/2
f 9/9/2 11/11/2 10/10/2
f 10/10/2 11/11/2 12/12/2
f 11/11/2 13/13/2 12/12/2
f 12/12/2 13/13/2 14/14/2
f 13/13/2 15/15/2 14/14/2
f 16/16/3 17/17/3 18/18/3
f 17/17/3 19/19/3 18/18/3
f 18/18/3 19/19/3 20/20/3
f 19/19/3 21/21/3 20/20/3
f 20/20/3 21/21/3 22/22/3
f 21/21/3 23/23/3 22/22/3
f 24/24/4 25/25/4 26/26/4
f 27/27/4 24/24/4 26/26/4
f 27/27/4 26/26/4 28/28/4
f 29/29/4 27/27/4 28/28/4
f 29/29/4 28/28/4 30/30/4
f 31/31/4 29/29/4 30/30/4
f 32/32/4 33/33/4 34/34/4
f 33/33/4 35/35/4 34/34/4
f 36/36/4 37/37/4 38/38/4
f 39/39/4 36/36/4 38/38/4
f 39/39/4 38/38/4 40/40/4
f 41/41/4 39/39/4 40/40/4
f 41/41/4 40/40/4 42/42/4
f 43/43/4 41/41/4 42/42/4
f 43/43/4 42/42/4 44/44/4
f 45/45/4 43/43/4 44/44/4
f 46/46/4 47/47/4 48/48/4
f 47/47/4 49/49/4 48/48/4
f 50/50/4 51/51/4 52/52/4
f 51/51/4 53/53/4 52/52/4
f 51/51/4 54/54/4 53/53/4
f 54/54/4 55/55/4 53/53/4
f 54/54/4 56/56/4 55/55/4
f 56/56/4 57/57/4 55/55/4
f 58/58/4 59/59/4 60/60/4
f 59/59/4 61/61/4 60/60/4
f 62/62/4 63/63/4 64/64/4
f 63/63/4 65/65/4 64/64/4
f 66/66/4 67/67/4 68/68/4
f 67/67/4 69/69/4 68/68/4
f 70/70/1 71/71/1 72/72/1
f 71/71/1 73/73/1 72/72/1
f 74/74/3 75/75/3 76/76/3
f 75/75/3 77/77/3 76/76/3
f 75/75/3 78/78/3 77/77/3
f 78/78/3 79/79/3 77/77/3
f 78/78/3 80/80/3 79/79/3
f 80/80/3 81/81/3 79/79/3
f 82/82/2 83/83/2 84/84/2
f 85/85/2 82/82/2 84/84/2
f 85/85/2 84/84/2 86/86/2
f 87/87/2 85/85/2 86/86/2
f 87/87/2 86/86/2 88/88/2
f 89/89/2 87/87/2 88/88/2
f 90/90/3 91/91/3 92/92/3
f 91/91/3 93/93/3 92/92/3
f 91/91/3 94/94/3 93/93/3
f 94/94/3 95/95/3 93/93/3
f 94/94/3 96/96/3 95/95/3
f 96/96/3 97/97/3 95/95/3
f 98/98/5 99/99/5 100/100/5
f 99/99/5 101/101/5 100/100/5
f 102/102/1 103/103/1 104/104/1
f 103/103/1 105/105/1 104/104/1
f 106/106/2 107/107/2 108/108/2
f 109/109/2 106/106/2 108/108/2
f 109/109/2 108/108/2 110/110/2
f 111/111/2 109/109/2 110/110/2
f 111/111/2 110/110/2 112/112/2
f 113/113/2 111/111/2 112/112/2
f 114/114/5 115/115/5 116/116/5
f 115/115/5 117/117/5 116/116/5
f 118/118/4 119/119/4 120/120/4
f 119/119/4 121/121/4 120/120/4
f 119/119/4 122/122/4 121/121/4
f 122/122/4 123/123/4 121/121/4
f 122/122/4 124/124/4 123/123/4
f 124/124/4 125/125/4 123/123/4
f 126/126/4 127/127/4 128/128/4
f 129/129/4 126/126/4 128/128/4
f 129/129/4 128/128/4 130/130/4
f 131/131/4 129/129/4 130/130/4
f 131/131/4 130/130/4 132/132/4
f 133/133/4 131/131/4 132/132/4
f 134/134/6 135/135/6 136/136/6
f 137/137/6 134/134/6 136/136/6
f 138/138/6 134/134/6 137/137/6
f 137/137/6 136/136/6 139/139/6
f 140/140/6 137/137/6 139/139/6
f 141/141/6 137/137/6 140/140/6
f 141/141/6 138/138/6 137/137/6
f 140/140/6 139/139/6 142/142/6
f 143/143/6 140/140/6 142/142/6
f 144/144/6 140/140/6 143/143/6
f 144/144/6 141/141/6 140/140/6
f 145/145/6 144/144/6 143/143/6
f 146/146/5 147/147/5 148/148/5
f 147/147/5 149/149/5 148/148/5
f 150/150/5 149/149/5 147/147/5
f 150/150/5 151/151/5 149/149/5
f 151/151/5 152/152/5 149/149/5
