# Blender v2.76 (sub 0) OBJ File: ''
# www.blender.org
mtllib Stool.mtl
o Model001_24_tavfurn_2_10_3.001
v 0.000000 0.489548 -0.233746
v -0.089440 0.489548 -0.215937
v -0.165316 0.489548 -0.165316
v 0.089440 0.489548 -0.215937
v 0.165316 0.489548 -0.165316
v 0.233746 0.489548 0.000000
v 0.215937 0.489548 -0.089440
v -0.215937 0.489548 0.089440
v -0.215937 0.489548 -0.089440
v -0.233746 0.489548 0.000000
v 0.165316 0.489548 0.165316
v 0.215937 0.489548 0.089440
v 0.089440 0.489548 0.215937
v 0.000000 0.489548 0.233746
v -0.089440 0.489548 0.215937
v -0.165316 0.489548 0.165316
v 0.091617 0.457673 -0.221249
v -0.091617 0.457673 -0.221249
v 0.000000 0.457673 -0.239472
v 0.239472 0.457673 0.000000
v 0.169301 0.457673 -0.169300
v 0.221249 0.457673 -0.091617
v -0.169301 0.457673 -0.169300
v -0.221249 0.457673 -0.091617
v -0.221249 0.457673 0.091617
v -0.239472 0.457673 0.000000
v 0.169301 0.457673 0.169301
v 0.221249 0.457673 0.091617
v 0.091617 0.457673 0.221249
v 0.000000 0.457673 0.239472
v -0.091617 0.457673 0.221249
v -0.169301 0.457673 0.169301
v 0.165316 0.489548 0.165316
v 0.091617 0.457673 0.221249
v 0.169301 0.457673 0.169301
v 0.089440 0.489548 0.215937
v 0.000000 0.457673 0.239472
v 0.000000 0.489548 0.233746
v -0.089440 0.489548 0.215937
v -0.091617 0.457673 0.221249
v -0.165316 0.489548 0.165316
v -0.169301 0.457673 0.169301
v -0.165316 0.489548 0.165316
v -0.221249 0.457673 0.091617
v -0.169301 0.457673 0.169301
v -0.215937 0.489548 0.089440
v -0.239472 0.457673 0.000000
v -0.233746 0.489548 0.000000
v -0.215937 0.489548 -0.089440
v -0.221249 0.457673 -0.091617
v -0.165316 0.489548 -0.165316
v -0.169301 0.457673 -0.169300
v -0.165316 0.489548 -0.165316
v -0.091617 0.457673 -0.221249
v -0.169301 0.457673 -0.169300
v -0.089440 0.489548 -0.215937
v 0.000000 0.457673 -0.239472
v 0.000000 0.489548 -0.233746
v 0.089440 0.489548 -0.215937
v 0.091617 0.457673 -0.221249
v 0.165316 0.489548 -0.165316
v 0.169301 0.457673 -0.169300
v 0.221249 0.457673 0.091617
v 0.165316 0.489548 0.165316
v 0.169301 0.457673 0.169301
v 0.215937 0.489548 0.089440
v 0.239472 0.457673 0.000000
v 0.233746 0.489548 0.000000
v 0.215937 0.489548 -0.089440
v 0.221249 0.457673 -0.091617
v 0.165316 0.489548 -0.165316
v 0.169301 0.457673 -0.169300
v -0.030285 0.193751 0.192292
v -0.021446 0.205965 0.192292
v -0.030285 0.218070 0.192292
v -0.044611 0.213411 0.192292
v -0.044611 0.198410 0.192292
v -0.030285 0.193751 0.192292
v -0.021446 0.205965 -0.189375
v -0.021446 0.205965 0.192292
v -0.030285 0.193751 -0.189375
v -0.030285 0.193751 0.192292
v -0.044611 0.198410 -0.189375
v -0.030285 0.193751 -0.189375
v -0.044611 0.198410 0.192292
v -0.044611 0.213411 0.192292
v -0.044611 0.198410 -0.189375
v -0.044611 0.198410 0.192292
v -0.044611 0.213411 -0.189375
v -0.030285 0.218070 0.192292
v -0.044611 0.213411 -0.189375
v -0.044611 0.213411 0.192292
v -0.030285 0.218070 -0.189375
v -0.021446 0.205965 -0.189375
v -0.030285 0.218070 0.192292
v -0.021446 0.205965 0.192292
v -0.030285 0.218070 -0.189375
v -0.030285 0.193751 -0.189375
v -0.030285 0.218070 -0.189375
v -0.021446 0.205965 -0.189375
v -0.044611 0.213411 -0.189375
v -0.044611 0.198410 -0.189375
v -0.117613 0.054953 0.061594
v -0.058763 0.102787 0.061594
v -0.086436 0.121249 0.061594
v -0.089897 0.036534 0.061594
v -0.085848 0.120988 -0.073546
v -0.086436 0.121249 0.061594
v -0.058763 0.102787 0.061594
v -0.058132 0.102525 -0.073546
v -0.058132 0.102525 -0.073546
v -0.089897 0.036534 0.061594
v -0.089244 0.036272 -0.073546
v -0.058763 0.102787 0.061594
v -0.116938 0.054692 -0.073546
v -0.089897 0.036534 0.061594
v -0.117613 0.054953 0.061594
v -0.089244 0.036272 -0.073546
v -0.086436 0.121249 0.061594
v -0.085848 0.120988 -0.073546
v -0.117613 0.054953 0.061594
v -0.116938 0.054692 -0.073546
v -0.058132 0.102525 -0.073546
v -0.116938 0.054692 -0.073546
v -0.085848 0.120988 -0.073546
v -0.089244 0.036272 -0.073546
v -0.090638 -0.000000 0.057849
v -0.149488 -0.000000 0.156281
v -0.149488 -0.000000 0.057849
v -0.090638 -0.000000 0.156281
v 0.063793 0.465903 0.156281
v -0.149488 -0.000000 0.156281
v -0.090638 -0.000000 0.156281
v 0.122577 0.465903 0.156281
v -0.090638 -0.000000 0.057849
v 0.122577 0.465903 0.156281
v -0.090638 -0.000000 0.156281
v 0.122577 0.465903 0.057849
v 0.063793 0.465903 0.057849
v -0.090638 -0.000000 0.057849
v -0.149488 -0.000000 0.057849
v 0.122577 0.465903 0.057849
v 0.063793 0.465903 0.156281
v -0.149488 -0.000000 0.057849
v -0.149488 -0.000000 0.156281
v 0.063793 0.465903 0.057849
v -0.090638 0.000000 -0.166906
v -0.149488 0.000000 -0.068430
v -0.149488 0.000000 -0.166906
v -0.090638 0.000000 -0.068430
v 0.063793 0.465903 -0.068430
v -0.149488 0.000000 -0.068430
v -0.090638 0.000000 -0.068430
v 0.122577 0.465903 -0.068430
v -0.090638 0.000000 -0.166906
v 0.122577 0.465903 -0.068430
v -0.090638 0.000000 -0.068430
v 0.122577 0.465903 -0.166906
v 0.063793 0.465903 -0.166906
v -0.090638 0.000000 -0.166906
v -0.149488 0.000000 -0.166906
v 0.122577 0.465903 -0.166906
v 0.063793 0.465903 -0.068430
v -0.149488 0.000000 -0.166906
v -0.149488 0.000000 -0.068430
v 0.063793 0.465903 -0.166906
v 0.331155 -0.000000 0.015480
v 0.230023 0.000000 -0.028130
v 0.331155 0.000000 -0.028130
v 0.230023 -0.000000 0.015480
v 0.117940 0.478117 -0.028130
v 0.331155 0.000000 -0.028130
v 0.230023 0.000000 -0.028130
v 0.016852 0.478117 -0.028130
v 0.230023 -0.000000 0.015480
v 0.016852 0.478117 -0.028130
v 0.230023 0.000000 -0.028130
v 0.016852 0.478117 0.015480
v 0.117940 0.478117 0.015480
v 0.230023 -0.000000 0.015480
v 0.331155 -0.000000 0.015480
v 0.016852 0.478117 0.015480
v 0.117940 0.478117 -0.028130
v 0.331155 -0.000000 0.015480
v 0.331155 0.000000 -0.028130
v 0.117940 0.478117 0.015480
v 0.057435 0.009449 -0.010581
v 0.057435 0.076268 0.010755
v 0.057435 0.076268 -0.010581
v 0.057435 0.009449 0.010755
v 0.249292 0.076268 -0.010276
v 0.057435 0.076268 0.010755
v 0.249292 0.076268 0.011060
v 0.057435 0.076268 -0.010581
v 0.249292 0.076268 0.011060
v 0.057435 0.009449 0.010755
v 0.249292 0.009449 0.011060
v 0.057435 0.076268 0.010755
v 0.249292 0.009449 -0.010276
v 0.057435 0.009449 0.010755
v 0.057435 0.009449 -0.010581
v 0.249292 0.009449 0.011060
v 0.057435 0.076268 -0.010581
v 0.249292 0.009449 -0.010276
v 0.057435 0.009449 -0.010581
v 0.249292 0.076268 -0.010276
v 0.249292 0.076268 0.011060
v 0.249292 0.009449 0.011060
v 0.249292 0.009449 -0.010276
v 0.249292 0.076268 -0.010276
v 0.132484 -0.000000 0.015480
v 0.037579 -0.000000 0.015480
v 0.132484 0.000000 -0.028130
v 0.037579 0.000000 -0.028130
v -0.080731 0.478117 -0.028130
v 0.132484 0.000000 -0.028130
v 0.037579 0.000000 -0.028130
v -0.175680 0.478117 -0.028130
v 0.037579 -0.000000 0.015480
v -0.175680 0.478117 -0.028130
v 0.037579 0.000000 -0.028130
v -0.175680 0.478117 0.015480
v -0.080731 0.478117 0.015480
v 0.037579 -0.000000 0.015480
v 0.132484 -0.000000 0.015480
v -0.175680 0.478117 0.015480
v -0.080731 0.478117 -0.028130
v 0.132484 -0.000000 0.015480
v 0.132484 0.000000 -0.028130
v -0.080731 0.478117 0.015480
v -0.086632 0.495405 -0.209165
v 0.086632 0.495405 -0.209165
v 0.000000 0.495405 -0.226300
v 0.160134 0.495405 -0.160134
v 0.226300 0.495404 0.000000
v 0.209165 0.495404 -0.086631
v -0.160134 0.495405 -0.160134
v -0.209165 0.495404 0.086632
v -0.209165 0.495404 -0.086631
v -0.226300 0.495404 0.000000
v 0.160134 0.495404 0.160135
v 0.209165 0.495404 0.086632
v 0.086632 0.495404 0.209166
v 0.000000 0.495404 0.226300
v -0.086632 0.495404 0.209166
v -0.160134 0.495404 0.160135
v -0.090028 0.490092 0.217265
v -0.160134 0.495404 0.160135
v -0.166383 0.490092 0.166231
v -0.086632 0.495404 0.209166
v -0.091617 0.482907 0.221249
v -0.169301 0.482907 0.169301
v -0.169301 0.457673 0.169301
v 0.000000 0.495404 0.226300
v -0.091617 0.457673 0.221249
v 0.000000 0.490092 0.235205
v 0.000000 0.482907 0.239472
v 0.090028 0.490092 0.217265
v 0.086632 0.495404 0.209166
v 0.160134 0.495404 0.160135
v 0.000000 0.457673 0.239472
v 0.166231 0.490092 0.166231
v 0.091617 0.482907 0.221249
v 0.091617 0.457673 0.221249
v 0.169301 0.482907 0.169301
v 0.169301 0.457673 0.169301
v -0.217265 0.490092 -0.090028
v -0.160134 0.495405 -0.160134
v -0.166231 0.490092 -0.166231
v -0.209165 0.495404 -0.086631
v -0.221249 0.482907 -0.091617
v -0.169301 0.482907 -0.169300
v -0.169301 0.457673 -0.169300
v -0.226300 0.495404 0.000000
v -0.221249 0.457673 -0.091617
v -0.235205 0.490092 0.000000
v -0.239472 0.482907 0.000000
v -0.209165 0.495404 0.086632
v -0.217265 0.490092 0.090028
v -0.160134 0.495404 0.160135
v -0.239472 0.457673 0.000000
v -0.166383 0.490092 0.166231
v -0.221249 0.482907 0.091617
v -0.221249 0.457673 0.091617
v -0.169301 0.482907 0.169301
v -0.169301 0.457673 0.169301
v 0.160134 0.495405 -0.160134
v 0.090028 0.490092 -0.217265
v 0.086632 0.495405 -0.209165
v 0.166231 0.490092 -0.166231
v 0.091617 0.482907 -0.221249
v 0.169301 0.482907 -0.169300
v 0.169301 0.457673 -0.169300
v 0.000000 0.495405 -0.226300
v 0.091617 0.457673 -0.221249
v 0.000000 0.490092 -0.235205
v 0.000000 0.482907 -0.239472
v -0.086632 0.495405 -0.209165
v -0.090028 0.490092 -0.217265
v -0.166231 0.490092 -0.166231
v -0.160134 0.495405 -0.160134
v 0.000000 0.457673 -0.239472
v -0.091617 0.482907 -0.221249
v -0.091617 0.457673 -0.221249
v -0.169301 0.482907 -0.169300
v -0.169301 0.457673 -0.169300
v 0.166231 0.490092 0.166231
v 0.209165 0.495404 0.086632
v 0.160134 0.495404 0.160135
v 0.221249 0.482907 0.091617
v 0.169301 0.482907 0.169301
v 0.169301 0.457673 0.169301
v 0.217265 0.490092 0.090028
v 0.235205 0.490092 0.000000
v 0.226300 0.495404 0.000000
v 0.209165 0.495404 -0.086631
v 0.221249 0.457673 0.091617
v 0.239472 0.482907 0.000000
v 0.217265 0.490092 -0.090028
v 0.160134 0.495405 -0.160134
v 0.239472 0.457673 0.000000
v 0.166231 0.490092 -0.166231
v 0.221249 0.482907 -0.091617
v 0.221249 0.457673 -0.091617
v 0.169301 0.482907 -0.169300
v 0.169301 0.457673 -0.169300
vt 0.506000 0.091000
vt 0.438000 0.088000
vt 0.380000 0.078000
vt 0.574000 0.088000
vt 0.631000 0.078000
vt 0.683000 0.047000
vt 0.670000 0.064000
vt 0.342000 0.030000
vt 0.342000 0.064000
vt 0.328000 0.047000
vt 0.631000 0.015000
vt 0.670000 0.030000
vt 0.574000 0.006000
vt 0.506000 0.002000
vt 0.438000 0.006000
vt 0.380000 0.015000
vt 1.592000 0.090000
vt 1.461000 0.090000
vt 1.526000 0.094000
vt 1.405000 0.081000
vt 1.698000 0.050000
vt 1.368000 0.067000
vt 1.368000 0.033000
vt 1.355000 0.050000
vt 1.526000 0.006000
vt 1.461000 0.009000
vt 1.405000 0.019000
vt 0.583000 0.000000
vt 0.648000 0.011000
vt 0.506000 -0.004000
vt 0.429000 0.000000
vt 0.363000 0.011000
vt 0.319000 0.028000
vt 0.304000 0.047000
vt 0.319000 0.066000
vt 0.363000 0.082000
vt 0.429000 0.094000
vt 0.506000 0.097000
vt 0.583000 0.094000
vt 0.648000 0.082000
vt 0.692000 0.028000
vt 0.708000 0.047000
vt 0.692000 0.066000
vt 1.649000 0.583000
vt 1.641000 0.579000
vt 1.649000 0.577000
vt 1.666000 0.578000
vt 1.666000 0.582000
vt 1.080000 0.580000
vt 1.365000 0.583000
vt 1.080000 0.583000
vt 1.080000 0.578000
vt 1.365000 0.578000
vt 1.080000 0.576000
vt 1.365000 0.576000
vt 0.394000 1.123000
vt 0.252000 1.107000
vt 0.249000 1.122000
vt 0.303000 0.112000
vt 0.746000 0.112000
vt 0.738000 0.131000
vt -1.048000 0.107000
vt -1.454000 0.138000
vt -1.048000 0.138000
vt -1.454000 0.107000
vt 0.296000 0.131000
vt 0.719000 0.144000
vt 0.672000 0.155000
vt 0.672000 0.147000
vt 0.719000 0.152000
vt 0.396000 1.108000
vt 0.440000 0.086000
vt 0.571000 0.086000
vt 0.506000 0.090000
vt 0.627000 0.077000
vt 0.677000 0.047000
vt 0.664000 0.063000
vt 0.385000 0.077000
vt 0.348000 0.031000
vt 0.348000 0.063000
vt 0.334000 0.047000
vt 0.627000 0.016000
vt 0.664000 0.031000
vt 0.571000 0.007000
vt 0.506000 0.004000
vt 0.440000 0.007000
vt 0.385000 0.016000
vt 1.647000 0.081000
vt 1.685000 0.067000
vt 1.647000 0.019000
vt 1.685000 0.033000
vt 1.592000 0.009000
vt 0.436000 0.004000
vt 0.376000 0.014000
vt 0.506000 0.001000
vt 0.576000 0.004000
vt 0.636000 0.014000
vt 0.336000 0.064000
vt 0.376000 0.079000
vt 0.322000 0.047000
vt 0.336000 0.029000
vt 0.576000 0.089000
vt 0.636000 0.079000
vt 0.506000 0.093000
vt 0.436000 0.089000
vt 0.675000 0.029000
vt 0.689000 0.047000
vt 0.675000 0.064000
vt 1.365000 0.580000
vt 1.080000 0.573000
vt 1.365000 0.573000
vt 1.080000 0.585000
vt 1.365000 0.585000
vn 0.000000 1.000000 0.000000
vn 0.000000 -1.000000 -0.000000
vn 0.547100 0.172400 0.819100
vn 0.436000 0.175800 0.882600
vn 0.547700 0.170800 0.819000
vn 0.315500 0.176700 0.932300
vn -0.000000 0.176900 0.984200
vn 0.000000 0.176800 0.984200
vn -0.315500 0.176700 0.932300
vn -0.436000 0.175800 0.882600
vn -0.547100 0.172300 0.819100
vn -0.547700 0.170800 0.819000
vn -0.819100 0.172300 0.547100
vn -0.882600 0.175800 0.436000
vn -0.819000 0.170800 0.547700
vn -0.932300 0.176700 0.315500
vn -0.984200 0.176900 -0.000000
vn -0.984200 0.176800 0.000000
vn -0.932300 0.176700 -0.315500
vn -0.882600 0.175800 -0.436000
vn -0.819100 0.172300 -0.547100
vn -0.819000 0.170800 -0.547700
vn -0.547100 0.172400 -0.819100
vn -0.436000 0.175800 -0.882600
vn -0.547700 0.170800 -0.819000
vn -0.315500 0.176700 -0.932300
vn 0.000000 0.176900 -0.984200
vn 0.000000 0.176800 -0.984200
vn 0.315500 0.176700 -0.932300
vn 0.436000 0.175800 -0.882600
vn 0.547100 0.172300 -0.819100
vn 0.547700 0.170800 -0.819000
vn 0.882600 0.175800 0.436000
vn 0.819100 0.172300 0.547100
vn 0.819000 0.170800 0.547700
vn 0.932300 0.176700 0.315500
vn 0.984200 0.176900 -0.000000
vn 0.984200 0.176800 0.000000
vn 0.932300 0.176700 -0.315500
vn 0.882600 0.175800 -0.436000
vn 0.819100 0.172300 -0.547100
vn 0.819000 0.170800 -0.547700
vn 0.000000 0.000000 1.000000
vn 0.810100 -0.586300 -0.000000
vn -0.309300 -0.951000 -0.000000
vn -1.000000 0.000000 0.000000
vn 0.554600 0.832100 0.000900
vn 0.554400 0.832300 0.001000
vn 0.554500 0.832200 0.001000
vn 0.905100 -0.425100 0.005200
vn 0.905100 -0.425200 0.005100
vn 0.905200 -0.425100 0.005200
vn 0.905000 -0.425300 0.005100
vn -0.553700 -0.832700 -0.001100
vn -0.553500 -0.832800 -0.001100
vn -0.553500 -0.832900 -0.001200
vn -0.905400 0.424600 -0.005300
vn -0.905200 0.425000 -0.005100
vn -0.905200 0.424900 -0.005200
vn 0.000000 0.000000 -1.000000
vn 0.909300 -0.416100 -0.000000
vn -0.913300 -0.407200 0.000000
vn 0.913300 0.407300 0.000000
vn -0.001600 -0.000000 1.000000
vn 0.001600 0.000000 -1.000000
vn 1.000000 0.000000 0.000000
vn -0.913300 -0.407400 0.000000
vn -0.238300 0.730400 0.640100
vn -0.292300 0.850200 0.437800
vn -0.429200 0.635200 0.642100
vn -0.197600 0.855600 0.478400
vn -0.427300 0.265400 0.864300
vn -0.536700 0.260100 0.802700
vn -0.555900 0.000000 0.831300
vn -0.000000 0.857100 0.515200
vn -0.320800 0.000000 0.947100
vn -0.000000 0.707200 0.707000
vn -0.029300 0.303800 0.952300
vn 0.238700 0.730000 0.640400
vn 0.197600 0.855600 0.478400
vn 0.293500 0.849100 0.439200
vn 0.066100 0.000000 0.997800
vn 0.429100 0.636300 0.641100
vn 0.364600 0.267400 0.891900
vn 0.443200 0.000000 0.896400
vn 0.547200 0.175500 0.818400
vn 0.555900 0.000000 0.831300
vn -0.640400 0.730000 -0.238700
vn -0.439200 0.849100 -0.293500
vn -0.641000 0.636400 -0.429100
vn -0.478500 0.855600 -0.197300
vn -0.863900 0.266800 -0.427200
vn -0.801700 0.264300 -0.536100
vn -0.831300 0.000000 -0.555900
vn -0.515200 0.857100 0.000000
vn -0.947100 0.000000 -0.320800
vn -0.707000 0.707200 0.000000
vn -0.952300 0.303800 -0.029300
vn -0.478400 0.855600 0.197600
vn -0.640000 0.730600 0.238100
vn -0.437100 0.850800 0.291700
vn -0.997800 0.000000 0.066100
vn -0.642600 0.634600 0.429300
vn -0.892500 0.265200 0.364900
vn -0.896400 -0.000000 0.443200
vn -0.819000 0.171300 0.547700
vn -0.831300 0.000000 0.555900
vn 0.293500 0.849100 -0.439200
vn 0.238700 0.730000 -0.640400
vn 0.197600 0.855600 -0.478400
vn 0.429100 0.636300 -0.641100
vn 0.427200 0.266800 -0.863900
vn 0.536100 0.264300 -0.801700
vn 0.555900 0.000000 -0.831300
vn 0.000000 0.857100 -0.515200
vn 0.320800 0.000000 -0.947100
vn -0.000000 0.707200 -0.707000
vn 0.029300 0.303800 -0.952300
vn -0.230800 0.853700 -0.466900
vn -0.227600 0.705500 -0.671100
vn -0.398000 0.698200 -0.595000
vn -0.295200 0.846700 -0.442600
vn -0.066100 0.000000 -0.997800
vn -0.364600 0.267400 -0.891900
vn -0.443200 0.000000 -0.896400
vn -0.547200 0.175500 -0.818400
vn -0.555900 0.000000 -0.831300
vn 0.595000 0.698200 0.398000
vn 0.478300 0.855400 0.198700
vn 0.442600 0.846700 0.295200
vn 0.863900 0.266800 0.427200
vn 0.801700 0.264300 0.536100
vn 0.831300 -0.000000 0.555900
vn 0.699200 0.668900 0.252200
vn 0.646600 0.762800 -0.000000
vn 0.512300 0.858800 -0.000000
vn 0.489300 0.856200 -0.165600
vn 0.947100 -0.000000 0.320800
vn 0.952300 0.303800 0.029300
vn 0.659700 0.704600 -0.261400
vn 0.439200 0.849100 -0.293500
vn 0.997800 -0.000000 -0.066100
vn 0.641000 0.636400 -0.429100
vn 0.891900 0.267400 -0.364600
vn 0.896400 -0.000000 -0.443200
vn 0.818400 0.175500 -0.547200
vn 0.831300 0.000000 -0.555900
vn -0.309300 0.951000 0.000000
vn 0.807600 0.589700 0.000000
vn 0.555000 0.831800 0.000800
vn -0.553800 -0.832700 -0.001100
vn -0.904900 0.425600 -0.004800
vn -0.909300 0.416200 0.000000
usemtl Model001_Material001.057
s 1
f 1/1/1 2/2/1 3/3/1
f 1/1/1 3/3/1 4/4/1
f 5/5/1 6/6/1 7/7/1
f 4/4/1 6/6/1 5/5/1
f 4/4/1 3/3/1 6/6/1
f 8/8/1 9/9/1 10/10/1
f 8/8/1 3/3/1 9/9/1
f 3/3/1 8/8/1 6/6/1
f 6/6/1 11/11/1 12/12/1
f 11/11/1 6/6/1 13/13/1
f 8/8/1 13/13/1 6/6/1
f 13/13/1 8/8/1 14/14/1
f 14/14/1 8/8/1 15/15/1
f 15/15/1 8/8/1 16/16/1
f 17/17/2 18/18/2 19/19/2
f 18/18/2 17/17/2 23/20/2
f 23/20/2 17/17/2 20/21/2
f 24/22/2 25/23/2 26/24/2
f 23/20/2 25/23/2 24/22/2
f 25/23/2 30/25/2 31/26/2
f 25/23/2 31/26/2 32/27/2
f 33/11/3 34/28/4 35/29/5
f 33/11/3 36/13/6 34/28/4
f 36/13/6 37/30/7 34/28/4
f 36/13/6 38/14/8 37/30/7
f 39/15/9 37/30/7 38/14/8
f 37/30/7 39/15/9 40/31/10
f 41/16/11 40/31/10 39/15/9
f 40/31/10 41/16/11 42/32/12
f 43/16/13 44/33/14 45/32/15
f 43/16/13 46/8/16 44/33/14
f 46/8/16 47/34/17 44/33/14
f 46/8/16 48/10/18 47/34/17
f 49/9/19 47/34/17 48/10/18
f 47/34/17 49/9/19 50/35/20
f 51/3/21 50/35/20 49/9/19
f 50/35/20 51/3/21 52/36/22
f 53/3/23 54/37/24 55/36/25
f 53/3/23 56/2/26 54/37/24
f 56/2/26 57/38/27 54/37/24
f 56/2/26 58/1/28 57/38/27
f 59/4/29 57/38/27 58/1/28
f 57/38/27 59/4/29 60/39/30
f 61/5/31 60/39/30 59/4/29
f 60/39/30 61/5/31 62/40/32
f 63/41/33 64/11/34 65/29/35
f 64/11/34 63/41/33 66/12/36
f 67/42/37 66/12/36 63/41/33
f 66/12/36 67/42/37 68/6/38
f 69/7/39 68/6/38 67/42/37
f 69/7/39 67/42/37 70/43/40
f 71/5/41 69/7/39 70/43/40
f 71/5/41 70/43/40 72/40/42
f 73/44/43 74/45/43 75/46/43
f 73/44/43 76/47/43 77/48/43
f 78/49/44 79/50/44 80/51/44
f 85/52/45 83/53/45 82/49/45
f 87/53/46 86/54/46 89/55/46
f 104/56/43 103/57/43 106/58/43
f 109/59/47 110/60/48 107/61/49
f 111/62/50 112/63/51 113/64/52
f 111/62/50 114/65/53 112/63/51
f 115/61/54 116/59/55 117/66/56
f 122/64/57 121/63/58 120/62/59
f 123/67/60 124/68/60 125/69/60
f 123/67/60 126/70/60 124/68/60
f 136/62/61 135/63/61 138/64/61
f 151/61/43 152/66/43 153/59/43
f 153/59/43 154/60/43 151/61/43
f 171/61/60 172/66/60 173/59/60
f 173/59/60 174/60/60 171/61/60
f 175/63/62 176/62/62 177/65/62
f 179/61/43 180/59/43 181/66/43
f 180/59/43 179/61/43 182/60/43
f 183/62/63 184/63/63 185/65/63
f 187/57/46 188/56/46 189/71/46
f 188/56/46 187/57/46 190/58/46
f 191/61/1 192/59/1 193/60/1
f 191/61/1 194/66/1 192/59/1
f 195/62/64 196/63/64 197/64/64
f 199/61/2 200/59/2 201/66/2
f 200/59/2 199/61/2 202/60/2
f 204/64/65 203/65/65 206/62/65
f 209/68/66 210/69/66 207/67/66
f 211/57/2 212/58/2 213/71/2
f 214/56/2 213/71/2 212/58/2
f 215/61/60 216/66/60 217/59/60
f 219/63/67 220/62/67 221/65/67
f 224/59/43 223/61/43 226/60/43
f 227/62/63 228/63/63 229/65/63
f 231/72/1 232/73/1 233/74/1
f 234/75/1 235/76/1 236/77/1
f 232/73/1 235/76/1 234/75/1
f 237/78/1 232/73/1 231/72/1
f 232/73/1 237/78/1 235/76/1
f 238/79/1 239/80/1 240/81/1
f 238/79/1 237/78/1 239/80/1
f 237/78/1 238/79/1 235/76/1
f 235/76/1 241/82/1 242/83/1
f 241/82/1 235/76/1 243/84/1
f 238/79/1 243/84/1 235/76/1
f 243/84/1 238/79/1 244/85/1
f 244/85/1 238/79/1 245/86/1
f 245/86/1 238/79/1 246/87/1
f 20/21/2 21/88/2 22/89/2
f 20/21/2 17/17/2 21/88/2
f 25/23/2 23/20/2 20/21/2
f 27/90/2 20/21/2 28/91/2
f 29/92/2 20/21/2 27/90/2
f 29/92/2 25/23/2 20/21/2
f 25/23/2 29/92/2 30/25/2
f 247/15/68 248/87/69 249/16/70
f 248/87/69 247/15/68 250/86/71
f 249/16/70 251/93/72 247/15/68
f 251/93/72 249/16/70 252/94/73
f 251/93/72 252/94/73 253/32/74
f 247/15/68 254/85/75 250/86/71
f 251/93/72 253/32/74 255/31/76
f 254/85/75 247/15/68 256/14/77
f 247/15/68 257/95/78 256/14/77
f 257/95/78 247/15/68 251/93/72
f 257/95/78 251/93/72 255/31/76
f 256/14/77 258/13/79 254/85/75
f 254/85/75 258/13/79 259/84/80
f 257/95/78 258/13/79 256/14/77
f 258/13/79 260/82/81 259/84/80
f 257/95/78 255/31/76 261/30/82
f 260/82/81 258/13/79 262/11/83
f 258/13/79 257/95/78 263/96/84
f 263/96/84 262/11/83 258/13/79
f 263/96/84 257/95/78 261/30/82
f 263/96/84 261/30/82 264/28/85
f 262/11/83 263/96/84 265/97/86
f 265/97/86 263/96/84 264/28/85
f 265/97/86 264/28/85 266/29/87
f 267/9/88 268/78/89 269/3/90
f 268/78/89 267/9/88 270/80/91
f 269/3/90 271/98/92 267/9/88
f 271/98/92 269/3/90 272/99/93
f 271/98/92 272/99/93 273/36/94
f 267/9/88 274/81/95 270/80/91
f 271/98/92 273/36/94 275/35/96
f 274/81/95 267/9/88 276/10/97
f 267/9/88 277/100/98 276/10/97
f 277/100/98 267/9/88 271/98/92
f 277/100/98 271/98/92 275/35/96
f 278/79/99 274/81/95 279/8/100
f 276/10/97 279/8/100 274/81/95
f 277/100/98 279/8/100 276/10/97
f 279/8/100 280/87/101 278/79/99
f 277/100/98 275/35/96 281/34/102
f 280/87/101 279/8/100 282/16/103
f 279/8/100 277/100/98 283/101/104
f 283/101/104 282/16/103 279/8/100
f 283/101/104 277/100/98 281/34/102
f 283/101/104 281/34/102 284/33/105
f 282/16/103 283/101/104 285/94/106
f 285/94/106 283/101/104 284/33/105
f 285/94/106 284/33/105 286/32/107
f 287/75/108 288/4/109 289/73/110
f 290/5/111 288/4/109 287/75/108
f 290/5/111 291/102/112 288/4/109
f 291/102/112 290/5/111 292/103/113
f 291/102/112 292/103/113 293/40/114
f 288/4/109 294/74/115 289/73/110
f 291/102/112 293/40/114 295/39/116
f 294/74/115 288/4/109 296/1/117
f 288/4/109 297/104/118 296/1/117
f 297/104/118 288/4/109 291/102/112
f 297/104/118 291/102/112 295/39/116
f 298/72/119 294/74/115 299/2/120
f 296/1/117 299/2/120 294/74/115
f 297/104/118 299/2/120 296/1/117
f 298/72/119 300/3/121 301/78/122
f 300/3/121 298/72/119 299/2/120
f 297/104/118 295/39/116 302/38/123
f 299/2/120 297/104/118 303/105/124
f 303/105/124 300/3/121 299/2/120
f 303/105/124 297/104/118 302/38/123
f 303/105/124 302/38/123 304/37/125
f 300/3/121 303/105/124 305/99/126
f 305/99/126 303/105/124 304/37/125
f 305/99/126 304/37/125 306/36/127
f 307/11/128 308/83/129 309/82/130
f 310/106/131 307/11/128 311/97/132
f 310/106/131 311/97/132 312/29/133
f 308/83/129 307/11/128 313/12/134
f 307/11/128 310/106/131 313/12/134
f 308/83/129 314/6/135 315/76/136
f 313/12/134 314/6/135 308/83/129
f 314/6/135 316/77/137 315/76/136
f 310/106/131 312/29/133 317/41/138
f 313/12/134 318/107/139 314/6/135
f 318/107/139 313/12/134 310/106/131
f 318/107/139 310/106/131 317/41/138
f 316/77/137 314/6/135 319/7/140
f 319/7/140 320/75/141 316/77/137
f 318/107/139 319/7/140 314/6/135
f 318/107/139 317/41/138 321/42/142
f 320/75/141 319/7/140 322/5/143
f 319/7/140 318/107/139 323/108/144
f 323/108/144 322/5/143 319/7/140
f 323/108/144 318/107/139 321/42/142
f 323/108/144 321/42/142 324/43/145
f 322/5/143 323/108/144 325/103/146
f 325/103/146 323/108/144 324/43/145
f 325/103/146 324/43/145 326/40/147
f 76/47/43 73/44/43 75/46/43
f 79/50/44 78/49/44 81/109/44
f 82/49/45 83/53/45 84/109/45
f 86/54/46 87/53/46 88/52/46
f 90/110/148 91/55/148 92/54/148
f 91/55/148 90/110/148 93/111/148
f 94/50/149 95/112/149 96/51/149
f 95/112/149 94/50/149 97/113/149
f 98/44/60 99/46/60 100/45/60
f 101/47/60 99/46/60 98/44/60
f 101/47/60 98/44/60 102/48/60
f 103/57/43 104/56/43 105/71/43
f 107/61/49 108/66/150 109/59/47
f 116/59/55 115/61/54 118/60/151
f 119/65/152 120/62/59 121/63/58
f 127/58/2 128/71/2 129/57/2
f 128/71/2 127/58/2 130/56/2
f 131/61/43 132/66/43 133/59/43
f 133/59/43 134/60/43 131/61/43
f 135/63/61 136/62/61 137/65/61
f 139/61/60 140/59/60 141/66/60
f 140/59/60 139/61/60 142/60/60
f 143/62/153 144/63/153 145/65/153
f 144/63/153 143/62/153 146/64/153
f 147/58/2 148/71/2 149/57/2
f 148/71/2 147/58/2 150/56/2
f 155/63/61 156/62/61 157/65/61
f 156/62/61 155/63/61 158/64/61
f 159/61/60 160/59/60 161/66/60
f 160/59/60 159/61/60 162/60/60
f 163/62/153 164/63/153 165/65/153
f 166/64/153 164/63/153 163/62/153
f 167/57/2 168/56/2 169/71/2
f 168/56/2 167/57/2 170/58/2
f 176/62/62 175/63/62 178/64/62
f 186/64/63 184/63/63 183/62/63
f 195/62/64 198/65/64 196/63/64
f 203/65/65 204/64/65 205/63/65
f 207/67/66 208/70/66 209/68/66
f 217/59/60 218/60/60 215/61/60
f 220/62/67 219/63/67 222/64/67
f 223/61/43 224/59/43 225/66/43
f 230/64/63 228/63/63 227/62/63
