# Blender v2.76 (sub 0) OBJ File: ''
# www.blender.org
mtllib Loose Planks.mtl
o Model001_24_planks_0.3_10_1
v 0.810129 0.074035 0.200934
v 0.807219 0.128127 -0.003256
v 0.790329 0.133662 0.190593
v 0.827018 0.067666 -0.023259
v -0.435063 0.111894 -0.021040
v -0.870113 0.061881 -0.032467
v -0.869529 0.122092 -0.029628
v -0.435933 0.051802 -0.031322
v -0.058314 0.052744 -0.017677
v -0.057372 0.112836 -0.000918
v 0.353525 0.056132 -0.020182
v 0.354396 0.116259 -0.002135
v 0.807219 0.128127 -0.003256
v 0.827018 0.067666 -0.023259
v -0.866618 0.071530 0.156957
v -0.869529 0.122092 -0.029628
v -0.870113 0.061881 -0.032467
v -0.866034 0.131264 0.155800
v -0.832839 0.075061 0.233544
v -0.832255 0.134687 0.231946
v -0.435933 0.051802 -0.031322
v -0.866618 0.071530 0.156957
v -0.870113 0.061881 -0.032467
v -0.832839 0.075061 0.233544
v -0.432725 0.066902 0.230777
v -0.055690 0.058792 0.203701
v -0.058314 0.052744 -0.017677
v 0.355851 0.062024 0.195984
v 0.353525 0.056132 -0.020182
v 0.810129 0.074035 0.200934
v 0.827018 0.067666 -0.023259
v -0.866034 0.131264 0.155800
v -0.435063 0.111894 -0.021040
v -0.869529 0.122092 -0.029628
v -0.832255 0.134687 0.231946
v -0.431854 0.126529 0.229036
v -0.057372 0.112836 -0.000918
v -0.054999 0.118370 0.201948
v 0.356435 0.121436 0.186370
v 0.354396 0.116259 -0.002135
v 0.790329 0.133662 0.190593
v 0.807219 0.128127 -0.003256
v -0.832839 0.075061 0.233544
v -0.431854 0.126529 0.229036
v -0.832255 0.134687 0.231946
v -0.432725 0.066902 0.230777
v -0.054999 0.118370 0.201948
v -0.055690 0.058792 0.203701
v 0.355851 0.062024 0.195984
v 0.356435 0.121436 0.186370
v 0.790329 0.133662 0.190593
v 0.810129 0.074035 0.200934
v -1.242854 0.070290 0.140282
v -1.227718 0.050812 0.123475
v -1.252181 0.011200 0.126314
v 0.400985 -0.010997 -0.129809
v -0.095946 -0.004950 -0.197296
v 0.388759 -0.008206 -0.266596
v -0.079212 -0.010103 0.042009
v 0.424578 -0.013383 -0.034328
v -0.532321 -0.002636 -0.148726
v -0.520095 -0.008421 0.107385
v -0.907387 0.004413 -0.096602
v -0.874193 -0.001682 0.158710
v -1.252181 0.011200 0.126314
v -1.274307 0.015578 -0.045969
v -1.242854 0.009447 0.195543
v -0.094861 0.050156 -0.184044
v 0.388461 0.044991 -0.133304
v 0.375066 0.042737 -0.252760
v -0.069228 0.049178 0.021601
v -0.529995 0.049035 -0.125288
v 0.412639 0.046232 -0.050740
v -0.502621 0.050919 0.085176
v -0.875946 0.058028 0.150993
v -0.907387 0.057623 -0.093764
v -1.097252 0.066067 0.112037
v -1.237033 0.068978 0.193503
v -1.259159 0.067451 -0.045349
v -1.242854 0.070290 0.140282
v -1.238202 0.062644 0.113862
v 0.388759 -0.008206 -0.266596
v -0.095946 -0.004950 -0.197296
v 0.375066 0.042737 -0.252760
v -0.094861 0.050156 -0.184044
v -0.529995 0.049035 -0.125288
v -0.532321 -0.002636 -0.148726
v -0.907387 0.004413 -0.096602
v -0.907387 0.057623 -0.093764
v -1.259159 0.067451 -0.045349
v -1.274307 0.015578 -0.045969
v -0.874193 -0.001682 0.158710
v -1.237033 0.068978 0.193503
v -1.242854 0.009447 0.195543
v -0.875946 0.058028 0.150993
v -0.520095 -0.008421 0.107385
v -0.502621 0.050919 0.085176
v -0.079212 -0.010103 0.042009
v -0.069228 0.049178 0.021601
v 0.412639 0.046232 -0.050740
v 0.424578 -0.013383 -0.034328
v -1.097252 0.066067 0.112037
v -1.227718 0.050812 0.123475
v -1.242854 0.070290 0.140282
v -1.259159 0.067451 -0.045349
v -1.274307 0.015578 -0.045969
v -1.238202 0.062644 0.113862
v -1.242854 0.009447 0.195543
v -1.237033 0.068978 0.193503
v -1.238202 0.062644 0.113862
v 0.375066 0.042737 -0.252760
v 0.400985 -0.010997 -0.129809
v 0.388759 -0.008206 -0.266596
v 0.388461 0.044991 -0.133304
v 0.412639 0.046232 -0.050740
v 0.424578 -0.013383 -0.034328
v -0.381472 0.058493 0.253344
v -0.420785 0.057873 0.051909
v -0.443794 0.002063 0.044586
v -0.400985 0.002708 0.266596
v 0.003793 -0.001527 0.010830
v -0.400985 0.002708 0.266596
v -0.443794 0.002063 0.044586
v 0.019478 -0.001324 0.227724
v 0.413796 -0.006966 0.199908
v 0.397490 -0.007180 -0.026169
v 0.815950 -0.003733 -0.062251
v 0.836919 -0.003447 0.182589
v 1.270812 0.000286 -0.004389
v 1.252181 0.000000 -0.099596
v 1.274307 0.000310 0.142321
v -0.381472 0.058493 0.253344
v 0.003721 0.055106 0.023390
v -0.420785 0.057873 0.051909
v 0.014957 0.061630 0.208794
v 0.409430 0.055989 0.180836
v 0.397204 0.055834 -0.013609
v 0.832255 0.059483 0.163075
v 0.815365 0.059257 -0.056168
v 1.255664 0.063050 0.006751
v 1.255664 0.063014 0.123619
v 1.237033 0.062752 -0.092237
v 0.019478 -0.001324 0.227724
v -0.381472 0.058493 0.253344
v -0.400985 0.002708 0.266596
v 0.014957 0.061630 0.208794
v 0.409430 0.055989 0.180836
v 0.413796 -0.006966 0.199908
v 0.832255 0.059483 0.163075
v 0.836919 -0.003447 0.182589
v 1.255664 0.063014 0.123619
v 1.274307 0.000310 0.142321
v 1.252181 0.000000 -0.099596
v 0.815950 -0.003733 -0.062251
v 1.237033 0.062752 -0.092237
v 0.815365 0.059257 -0.056168
v 0.397204 0.055834 -0.013609
v 0.397490 -0.007180 -0.026169
v 0.003793 -0.001527 0.010830
v 0.003721 0.055106 0.023390
v -0.420785 0.057873 0.051909
v -0.443794 0.002063 0.044586
v 1.237033 0.062752 -0.092237
v 1.270812 0.000286 -0.004389
v 1.252181 0.000000 -0.099596
v 1.255664 0.063050 0.006751
v 1.255664 0.063014 0.123619
v 1.274307 0.000310 0.142321
vt 0.740000 0.200990
vt 0.631000 0.128990
vt 0.740000 0.128990
vt 0.631000 0.200990
vt 0.517000 0.666990
vt 0.695000 0.624990
vt 0.695000 0.666990
vt 0.517000 0.624990
vt 0.362000 0.624990
vt 0.362000 0.666990
vt 0.194000 0.624990
vt 0.194000 0.666990
vt 0.000000 0.666990
vt 0.000000 0.624990
vt 0.707000 0.056990
vt 0.631000 0.127990
vt 0.631000 0.056990
vt 0.707000 0.127990
vt 0.740000 0.056990
vt 0.740000 0.127990
vt 0.480000 0.666990
vt 0.293000 0.585990
vt 0.302000 0.666990
vt 0.302000 0.552990
vt 0.480000 0.552990
vt 0.635000 0.552990
vt 0.635000 0.666990
vt 0.804000 0.552990
vt 0.804000 0.666990
vt 0.998000 0.552990
vt 0.998000 0.666990
vt 1.005000 0.632990
vt 1.192000 0.552990
vt 1.015000 0.552990
vt 1.015000 0.666990
vt 1.192000 0.666990
vt 1.348000 0.552990
vt 1.348000 0.666990
vt 1.516000 0.666990
vt 1.516000 0.552990
vt 1.710000 0.666990
vt 1.710000 0.552990
vt 0.657000 0.129990
vt 0.663000 0.129990
vt 0.663000 0.199990
vt 0.683000 0.500990
vt 0.500000 0.434990
vt 0.683000 0.433990
vt 0.500000 0.548990
vt 0.682000 0.548990
vt 0.317000 0.434990
vt 0.317000 0.548990
vt 0.158000 0.434990
vt 0.158000 0.548990
vt 0.000000 0.515990
vt 0.000000 0.434990
vt 0.000000 0.548990
vt 0.744000 0.430990
vt 0.561000 0.499990
vt 0.561000 0.430990
vt 0.744000 0.547990
vt 0.927000 0.430990
vt 0.561000 0.547990
vt 0.927000 0.548990
vt 1.086000 0.548990
vt 1.086000 0.430990
vt 1.180000 0.515990
vt 1.244000 0.548990
vt 1.244000 0.430990
vt 1.244000 0.520990
vt 1.244000 0.508990
vt 0.315000 0.497990
vt 0.498000 0.497990
vt 0.315000 0.548990
vt 0.498000 0.548990
vt 0.681000 0.548990
vt 0.681000 0.496990
vt 0.839000 0.496990
vt 0.839000 0.548990
vt 0.998000 0.548990
vt 0.998000 0.496990
vt 0.498000 0.545990
vt 0.498000 0.496990
vt 0.315000 0.495990
vt 0.315000 0.542990
vt 0.641000 0.099990
vt 0.705000 0.096990
vt 0.705000 0.111990
vt 0.740000 0.129990
vt 0.740000 0.199990
vt 0.668000 0.129990
vt 0.631000 0.199990
vt 0.631000 0.129990
vt 0.705000 0.083990
vt 0.635000 0.188990
vt 0.694000 0.130990
vt 0.691000 0.195990
vt 0.731000 0.199990
vt 0.740000 0.131990
vt 0.157000 0.796990
vt 0.000000 0.676990
vt 0.000000 0.796990
vt 0.157000 0.676990
vt 0.313000 0.676990
vt 0.313000 0.796990
vt 0.479000 0.796990
vt 0.479000 0.676990
vt 0.646000 0.749990
vt 0.646000 0.796990
vt 0.646000 0.676990
vt 0.999000 0.676990
vt 0.842000 0.796990
vt 0.999000 0.796990
vt 0.842000 0.676990
vt 0.686000 0.676990
vt 0.686000 0.796990
vt 0.519000 0.676990
vt 0.519000 0.796990
vt 0.353000 0.741990
vt 0.353000 0.676990
vt 0.353000 0.796990
vt 0.842000 0.755990
vt 0.999000 0.755990
vt 0.686000 0.755990
vt 0.519000 0.755990
vt 0.353000 0.755990
vt 0.737000 0.127990
vt 0.697000 0.055990
vt 0.740000 0.055990
vt 0.692000 0.127990
vt 0.640000 0.127990
vt 0.632000 0.055990
vn 0.752100 -0.472900 0.459100
vn 0.543200 0.651000 -0.530100
vn 0.251100 0.774300 0.580900
vn 0.714700 -0.294500 -0.634400
vn 0.029000 0.745100 -0.666400
vn -0.434200 -0.337600 -0.835200
vn -0.799400 0.435400 -0.414000
vn -0.007800 -0.937900 -0.346700
vn 0.026300 -0.629700 -0.776400
vn 0.007100 0.847100 -0.531300
vn 0.005300 -0.441800 -0.897100
vn -0.019000 0.872400 -0.488500
vn 0.543200 0.651100 -0.530100
vn 0.714700 -0.294400 -0.634400
vn -0.823900 -0.545900 0.152000
vn -0.788900 0.579400 0.204500
vn -0.469900 -0.482100 0.739400
vn -0.336700 0.796000 0.503000
vn -0.469900 -0.482200 0.739400
vn 0.031400 -0.523300 0.851600
vn 0.023000 -0.812300 0.582700
vn 0.014400 -0.523700 0.851800
vn 0.752000 -0.473000 0.459100
vn 0.714800 -0.294500 -0.634400
vn 0.030400 0.733400 0.679100
vn 0.046500 0.495800 0.867200
vn -0.005900 0.868600 0.495400
vn 0.030500 0.733400 0.679100
vn 0.046400 0.495800 0.867200
vn 0.023000 -0.812400 0.582700
vn -0.005900 0.868700 0.495400
vn 0.251000 0.774300 0.580900
vn -0.726700 0.578400 -0.370600
vn -0.519800 0.854200 0.013600
vn -0.913000 -0.397900 0.089900
vn 0.853700 -0.491300 -0.172600
vn -0.122300 -0.436900 -0.891100
vn 0.568400 -0.347300 -0.745800
vn 0.114800 -0.600500 0.791300
vn 0.773100 -0.409400 0.484500
vn -0.087800 -0.754300 -0.650700
vn 0.112100 -0.624300 0.773100
vn -0.109800 -0.650300 -0.751700
vn 0.069800 -0.681600 0.728400
vn -0.913000 -0.398000 0.090000
vn -0.711100 -0.426100 -0.559200
vn -0.799100 -0.315300 0.511900
vn -0.061900 0.871300 -0.486800
vn 0.492200 0.863800 -0.107700
vn 0.499200 0.583300 -0.640800
vn 0.059800 0.924800 0.375700
vn -0.060900 0.802400 -0.593700
vn 0.683600 0.594800 0.423100
vn 0.115800 0.715900 0.688600
vn 0.100300 0.839500 0.534100
vn -0.035500 0.838500 -0.543800
vn -0.006200 1.000000 0.004600
vn -0.221100 0.708700 0.670000
vn -0.565200 0.695800 -0.443200
vn -0.437600 0.701200 0.562900
vn 0.568500 -0.347300 -0.745800
vn -0.122200 -0.436900 -0.891200
vn 0.499200 0.583300 -0.640700
vn -0.087800 -0.754200 -0.650700
vn -0.711100 -0.426100 -0.559300
vn -0.799000 -0.315300 0.512000
vn 0.100400 0.839500 0.534100
vn 0.112200 -0.624300 0.773100
vn 0.059900 0.924800 0.375700
vn 0.683600 0.594700 0.423100
vn -0.565200 0.695800 -0.443300
vn -0.437500 0.701200 0.562900
vn 0.853800 -0.491200 -0.172600
vn 0.568500 -0.347200 -0.745800
vn 0.683500 0.594800 0.423100
vn -0.386900 0.756100 0.527900
vn -0.388600 0.641300 -0.661600
vn -0.948600 -0.061300 -0.310600
vn -0.414400 -0.709200 0.570400
vn -0.071700 -0.634600 -0.769500
vn -0.414400 -0.709100 0.570400
vn 0.079900 -0.232800 0.969200
vn 0.031600 -0.735400 0.676900
vn -0.071200 -0.635000 -0.769200
vn -0.061300 -0.664200 -0.745000
vn 0.065700 -0.590300 0.804500
vn 0.886600 -0.453900 -0.089000
vn 0.544000 -0.407200 -0.733700
vn 0.720800 -0.283000 0.632700
vn -0.386900 0.756000 0.527900
vn -0.031100 0.909300 -0.415000
vn 0.055500 0.814200 0.577900
vn 0.038000 0.807500 0.588600
vn -0.071600 0.684700 -0.725300
vn 0.022400 0.863200 0.504400
vn -0.056400 0.847700 -0.527400
vn 0.476200 0.878200 -0.045400
vn 0.594700 0.602400 0.532300
vn 0.509500 0.504700 -0.696900
vn 0.055500 0.814300 0.577800
vn 0.065600 -0.590400 0.804500
vn 0.720800 -0.282900 0.632800
vn -0.061100 -0.664200 -0.745000
vn -0.948600 -0.061200 -0.310600
vn 0.886600 -0.453900 -0.088900
vn 0.594700 0.602500 0.532300
vn 0.720800 -0.283000 0.632800
usemtl Model001_Material001.040
s 1
f 1/1/1 2/2/2 3/3/3
f 2/2/2 1/1/1 4/4/4
f 5/5/5 6/6/6 7/7/7
f 6/6/6 5/5/5 8/8/8
f 5/5/5 9/9/9 8/8/8
f 9/9/9 5/5/5 10/10/10
f 10/10/10 11/11/11 9/9/9
f 10/10/10 12/12/12 11/11/11
f 13/13/13 11/11/11 12/12/12
f 11/11/11 13/13/13 14/14/14
f 15/15/15 16/16/7 17/17/6
f 16/16/7 15/15/15 18/18/16
f 18/18/16 15/15/15 19/19/17
f 20/20/18 18/18/16 19/19/17
f 21/21/8 22/22/15 23/23/6
f 21/21/8 24/24/19 22/22/15
f 24/24/19 21/21/8 25/25/20
f 25/25/20 21/21/8 26/26/21
f 26/26/21 21/21/8 27/27/9
f 28/28/22 26/26/21 27/27/9
f 28/28/22 27/27/9 29/29/11
f 29/29/11 30/30/23 28/28/22
f 30/30/23 29/29/11 31/31/24
f 32/32/16 33/33/5 34/34/7
f 35/35/18 33/33/5 32/32/16
f 33/33/5 35/35/18 36/36/25
f 33/33/5 36/36/25 37/37/10
f 37/37/10 36/36/25 38/38/26
f 39/39/27 37/37/10 38/38/26
f 37/37/10 39/39/27 40/40/12
f 39/39/27 41/41/3 40/40/12
f 42/42/13 40/40/12 41/41/3
f 43/6/17 44/5/28 45/7/18
f 44/5/28 43/6/17 46/8/20
f 47/10/29 44/5/28 46/8/20
f 47/10/29 46/8/20 48/9/30
f 49/11/22 47/10/29 48/9/30
f 47/10/29 49/11/22 50/12/31
f 49/11/22 51/13/32 50/12/31
f 49/11/22 52/14/1 51/13/32
f 53/43/33 54/44/34 55/45/35
f 56/46/36 57/47/37 58/48/38
f 57/47/37 56/46/36 59/49/39
f 56/46/36 60/50/40 59/49/39
f 59/49/39 61/51/41 57/47/37
f 59/49/39 62/52/42 61/51/41
f 62/52/42 63/53/43 61/51/41
f 63/53/43 62/52/42 64/54/44
f 64/54/44 65/55/45 63/53/43
f 63/53/43 65/55/45 66/56/46
f 65/55/45 64/54/44 67/57/47
f 68/58/48 69/59/49 70/60/50
f 69/59/49 68/58/48 71/61/51
f 72/62/52 71/61/51 68/58/48
f 71/61/51 73/63/53 69/59/49
f 71/61/51 72/62/52 74/64/54
f 72/62/52 75/65/55 74/64/54
f 75/65/55 72/62/52 76/66/56
f 77/67/57 75/65/55 76/66/56
f 78/68/58 75/65/55 77/67/57
f 79/69/59 77/67/57 76/66/56
f 78/68/58 77/67/57 80/70/33
f 77/67/57 79/69/59 81/71/60
f 82/72/61 83/73/62 84/74/63
f 85/75/48 84/74/63 83/73/62
f 86/76/52 85/75/48 83/73/62
f 86/76/52 83/73/62 87/77/64
f 87/77/64 88/78/43 86/76/52
f 89/79/56 86/76/52 88/78/43
f 88/78/43 90/80/59 89/79/56
f 90/80/59 88/78/43 91/81/65
f 92/79/44 93/81/58 94/80/66
f 93/81/58 92/79/44 95/78/67
f 96/76/68 95/78/67 92/79/44
f 95/78/67 96/76/68 97/77/54
f 96/76/68 98/82/39 97/77/54
f 99/83/69 97/77/54 98/82/39
f 100/84/70 99/83/69 98/82/39
f 100/84/70 98/82/39 101/85/40
f 102/86/57 103/87/34 104/88/33
f 105/89/71 106/90/65 55/45/35
f 55/45/35 107/91/72 105/89/71
f 53/43/33 108/92/47 109/93/58
f 108/92/47 53/43/33 55/45/35
f 102/86/57 110/94/72 103/87/34
f 54/44/34 107/91/72 55/45/35
f 111/95/50 112/96/73 113/2/74
f 112/96/73 111/95/50 114/97/49
f 115/98/75 112/96/73 114/97/49
f 112/96/73 115/98/75 116/99/40
f 117/16/76 118/20/77 119/19/78
f 119/19/78 120/17/79 117/16/76
f 121/100/80 122/101/81 123/102/78
f 122/101/81 121/100/80 124/103/82
f 125/104/83 124/103/82 121/100/80
f 125/104/83 121/100/80 126/105/84
f 125/104/83 126/105/84 127/106/85
f 128/107/86 125/104/83 127/106/85
f 129/108/87 128/107/86 127/106/85
f 129/108/87 127/106/85 130/109/88
f 129/108/87 131/110/89 128/107/86
f 132/111/90 133/112/91 134/113/77
f 133/112/91 132/111/90 135/114/92
f 135/114/92 136/115/93 133/112/91
f 137/116/94 133/112/91 136/115/93
f 136/115/93 138/117/95 137/116/94
f 139/118/96 137/116/94 138/117/95
f 140/119/97 139/118/96 138/117/95
f 138/117/95 141/120/98 140/119/97
f 139/118/96 140/119/97 142/121/99
f 143/122/82 144/113/90 145/123/79
f 144/113/90 143/122/82 146/112/100
f 147/116/93 146/112/100 143/122/82
f 147/116/93 143/122/82 148/124/83
f 148/124/83 149/118/95 147/116/93
f 149/118/95 148/124/83 150/125/101
f 151/121/98 149/118/95 150/125/101
f 150/125/101 152/126/102 151/121/98
f 153/121/88 154/118/103 155/126/99
f 156/125/96 155/126/99 154/118/103
f 157/124/94 156/125/96 154/118/103
f 157/124/94 154/118/103 158/116/84
f 159/112/80 157/124/94 158/116/84
f 157/124/94 159/112/80 160/122/91
f 159/112/80 161/123/77 160/122/91
f 161/123/77 159/112/80 162/113/104
f 163/127/99 164/128/105 165/129/88
f 166/130/97 164/128/105 163/127/99
f 167/131/106 164/128/105 166/130/97
f 164/128/105 167/131/106 168/132/107
