# 3ds Max Wavefront OBJ Exporter v0.97b - (c)2007 guruware
# File Created: 04.08.2014 09:22:21

mtllib Tombstone141.mtl

#
# object Mesh_0141
#

v  -0.318231 1.179460 0.069022
v  -0.171713 1.288117 0.069022
v  -0.171713 1.288117 -0.069022
v  -0.318231 1.179460 -0.069022
v  -0.407406 1.033817 0.069022
v  -0.407406 1.033817 -0.069022
v  -0.446618 0.874147 0.069022
v  -0.446618 0.874147 -0.069022
v  0.000000 -0.000000 -0.069022
v  -0.452375 -0.000000 -0.069022
v  0.000000 0.874147 -0.069022
v  0.446618 0.874147 -0.069021
v  0.452375 -0.000000 -0.069021
v  0.000000 1.033021 -0.069022
v  0.407406 1.033817 -0.069021
v  0.000000 1.179485 -0.069022
v  0.318231 1.179460 -0.069021
v  0.000000 1.319764 -0.069022
v  0.171713 1.288117 -0.069022
v  -0.452375 -0.000000 0.069022
v  -0.000000 -0.000000 0.069022
v  -0.000000 0.874147 0.069022
v  -0.000000 1.033021 0.069022
v  -0.000000 1.179485 0.069022
v  0.446618 0.874147 0.069022
v  0.407406 1.033817 0.069022
v  0.318231 1.179460 0.069022
v  0.171713 1.288117 0.069022
v  -0.000000 1.319764 0.069022
v  0.452375 -0.000000 0.069022
# 30 vertices

vn -0.737760 0.675063 -0.000000
vn -0.595671 0.803229 -0.000000
vn -0.700586 0.713568 -0.000000
vn -0.922954 0.384909 -0.000000
vn -0.852835 0.522180 -0.000000
vn -0.971144 0.238494 -0.000000
vn 0.000000 0.000000 -1.000000
vn 0.000000 -0.000000 -1.000000
vn -0.999978 0.006585 -0.000000
vn -0.000000 -0.000000 1.000000
vn -0.000000 0.000000 1.000000
vn -0.181251 0.983437 -0.000000
vn 0.595671 0.803229 0.000000
vn 0.737760 0.675063 0.000000
vn 0.922954 0.384909 0.000000
vn 0.922954 0.384909 -0.000000
vn 0.971144 0.238494 -0.000000
vn 0.999978 0.006585 -0.000000
vn 0.181251 0.983437 0.000000
# 19 vertex normals

vt 0.894779 0.262131 0.000000
vt 0.894776 0.399500 0.000000
vt 0.990862 0.399502 0.000000
vt 0.990865 0.262133 0.000000
vt 0.894781 0.133919 0.000000
vt 0.990867 0.133921 0.000000
vt 0.894583 0.012255 0.000000
vt 0.991006 0.012255 0.000000
vt 0.454776 0.010594 0.000000
vt 0.773438 0.011719 0.000000
vt 0.773438 0.656250 0.000000
vt 0.454776 0.656996 0.000000
vt 0.124518 0.656996 0.000000
vt 0.120261 0.010594 0.000000
vt 0.753906 0.773438 0.000000
vt 0.454776 0.774477 0.000000
vt 0.156250 0.773438 0.000000
vt 0.683594 0.882813 0.000000
vt 0.454776 0.882782 0.000000
vt 0.222656 0.882813 0.000000
vt 0.574219 0.964844 0.000000
vt 0.454776 0.986514 0.000000
vt 0.335938 0.964844 0.000000
vt 0.886705 0.659562 0.000000
vt 0.886580 0.011123 0.000000
vt 0.790282 0.011139 0.000000
vt 0.790282 0.659562 0.000000
vt 0.894775 0.532916 0.000000
vt 0.990860 0.532918 0.000000
vt 0.024668 0.011099 0.000000
vt 0.121091 0.011100 0.000000
vt 0.121086 0.657733 0.000000
vt 0.024788 0.657510 0.000000
# 33 texture coords

g Mesh_0141
usemtl Tex_0141_0_dds
s 1
f 1/1/1 2/2/2 3/3/2 
s 2
f 3/3/2 4/4/3 1/1/1 
s 3
f 5/5/4 1/1/1 4/4/3 
s 4
f 4/4/5 6/6/4 5/5/4 
s 5
f 7/7/6 5/5/4 6/6/4 
s 6
f 6/6/4 8/8/6 7/7/6 
s 7
f 9/9/7 10/10/8 8/11/7 
s 8
f 8/11/7 11/12/8 9/9/7 
s 9
f 9/9/7 11/12/8 12/13/8 
s 10
f 12/13/8 13/14/7 9/9/7 
s 11
f 11/12/8 8/11/7 6/15/8 
s 12
f 6/15/8 14/16/8 11/12/8 
s 13
f 11/12/8 14/16/8 15/17/8 
s 14
f 15/17/8 12/13/8 11/12/8 
s 15
f 14/16/8 6/15/8 4/18/8 
s 16
f 4/18/8 16/19/8 14/16/8 
s 17
f 14/16/8 16/19/8 17/20/8 
s 18
f 17/20/8 15/17/8 14/16/8 
s 19
f 16/19/8 4/18/8 3/21/8 
s 20
f 3/21/8 18/22/8 16/19/8 
s 21
f 16/19/8 18/22/8 19/23/8 
s 22
f 19/23/8 17/20/8 16/19/8 
s 23
f 8/24/9 10/25/9 20/26/9 
s 24
f 20/26/9 7/27/9 8/24/9 
s 25
f 7/11/10 20/10/11 21/9/11 
s 26
f 21/9/11 22/12/10 7/11/10 
s 27
f 5/15/10 7/11/10 22/12/10 
s 28
f 22/12/10 23/16/11 5/15/10 
s 29
f 1/18/11 5/15/10 23/16/11 
s 30
f 23/16/11 24/19/11 1/18/11 
s 31
f 2/21/11 1/18/11 24/19/11 
s 32
f 25/13/10 22/12/10 21/9/11 
s 33
f 22/12/10 25/13/10 26/17/10 
s 34
f 26/17/10 23/16/11 22/12/10 
s 35
f 23/16/11 26/17/10 27/20/11 
s 36
f 27/20/11 24/19/11 23/16/11 
s 37
f 24/19/11 27/20/11 28/23/11 
s 38
f 28/23/11 29/22/11 24/19/11 
s 39
f 24/19/11 29/22/11 2/21/11 
s 40
f 21/9/11 30/14/11 25/13/10 
s 41
f 2/2/12 29/28/12 18/29/12 
s 42
f 18/29/12 3/3/12 2/2/12 
s 43
f 19/3/13 28/2/13 27/1/14 
s 44
f 27/1/14 17/4/14 19/3/13 
s 45
f 17/4/14 27/1/14 26/5/15 
s 46
f 26/5/15 15/6/16 17/4/14 
s 47
f 15/6/16 26/5/15 25/7/17 
s 48
f 25/7/17 12/8/17 15/6/16 
s 49
f 12/30/18 25/31/18 30/32/18 
s 50
f 30/32/18 13/33/18 12/30/18 
s 51
f 28/2/19 19/3/19 18/29/19 
s 52
f 18/29/19 29/28/19 28/2/19 
# 0 polygons - 52 triangles