# 3ds Max Wavefront OBJ Exporter v0.97b - (c)2007 guruware
# File Created: 20.04.2017 19:30:13

mtllib con8.mtl

#
# object Mesh_1489
#

v  2.7889 0.0000 7.0841
v  -2.7889 0.0000 7.0841
v  -2.7889 0.0000 2.7811
v  2.7889 0.0000 2.7811
v  -1.3153 5.8217 7.0812
v  -1.4047 5.8217 7.0812
v  -1.3397 5.8217 7.1640
v  -1.3804 5.8217 7.1640
v  2.7889 0.2894 -2.8611
v  2.7889 0.0000 -2.8611
v  2.7889 0.0000 -7.1640
v  2.7889 0.2894 -7.1640
v  2.7889 5.9906 -7.1640
v  2.7889 0.2894 -1.9682
v  2.7889 0.2894 1.8883
v  2.7889 5.9906 7.0841
v  2.7889 0.2894 2.7811
v  2.7889 0.2894 7.0841
v  2.7889 0.0000 -1.9682
v  2.7889 0.0000 1.8883
v  -2.7889 5.9906 7.0841
v  -2.7889 5.9906 -7.1640
v  -2.7889 0.0000 1.8883
v  -2.7889 0.0000 -1.9682
v  1.5329 5.8217 7.0812
v  1.4435 5.8217 7.0812
v  1.4678 5.8217 7.1640
v  1.5085 5.8217 7.1640
v  1.4435 0.1377 7.0812
v  1.5329 0.1377 7.0812
v  1.5085 0.1377 7.1640
v  1.4678 0.1377 7.1640
v  0.4891 5.8217 7.0812
v  0.3998 5.8217 7.0812
v  0.4241 5.8217 7.1640
v  0.4648 5.8217 7.1640
v  0.3998 0.1377 7.0812
v  0.4891 0.1377 7.0812
v  0.4648 0.1377 7.1640
v  0.4241 0.1377 7.1640
v  -0.2640 5.8217 7.0812
v  -0.3534 5.8217 7.0812
v  -0.3290 5.8217 7.1640
v  -0.2883 5.8217 7.1640
v  -0.3534 0.1377 7.0812
v  -0.2640 0.1377 7.0812
v  -0.2883 0.1377 7.1640
v  -0.3290 0.1377 7.1640
v  -1.4047 0.1377 7.0812
v  -1.3153 0.1377 7.0812
v  -1.3397 0.1377 7.1640
v  -1.3804 0.1377 7.1640
v  -2.7889 0.2894 2.7811
v  -2.7889 0.2894 1.8883
v  -2.7889 0.2894 -2.8611
v  -2.7889 0.2894 -1.9682
v  -2.7889 0.0000 -2.8611
v  -2.7889 0.0000 -7.1640
v  -2.7889 0.2894 7.0841
v  -2.7889 0.2894 -7.1640
v  1.8631 6.1422 -6.8832
v  1.8631 5.8348 -7.4815
v  -2.0115 6.1422 -6.8832
v  -2.0115 5.8348 -7.4815
v  2.4149 0.3032 -15.7465
v  2.4149 0.3372 -15.6957
v  2.4149 0.2433 -15.7584
v  2.4149 0.1926 -15.7244
v  2.4149 0.1807 -15.6646
v  2.4149 0.2745 -15.6019
v  2.4149 0.3253 -15.6359
v  2.4149 0.2146 -15.6138
v  2.1118 0.4785 -15.5336
v  2.1118 0.1123 -15.4606
v  2.1118 0.3105 -15.4212
v  2.1118 0.5178 -15.7317
v  2.1118 0.4055 -15.8997
v  2.1118 0.0394 -15.8267
v  2.1118 0.0000 -15.6285
v  2.1118 0.2073 -15.9391
v  2.1212 7.5291 -8.1054
v  2.1212 7.3985 -7.9371
v  2.0851 7.5683 -8.0976
v  2.1934 1.9881 -16.5193
v  2.1934 7.4728 -8.3109
v  2.1212 1.9881 -16.5193
v  2.1212 7.4728 -8.3109
v  2.1934 7.5291 -8.1054
v  2.1934 7.3985 -7.9371
v  2.1934 6.8754 -7.5875
v  2.1212 6.8754 -7.5875
v  2.1934 5.9454 -7.4365
v  2.1212 5.9454 -7.4365
v  2.1934 7.6075 -8.0898
v  2.1934 7.5387 -8.3409
v  2.1212 7.6075 -8.0898
v  2.1212 7.5387 -8.3409
v  2.0851 7.5058 -8.3259
v  2.0851 2.0146 -16.5440
v  2.0851 1.8276 -16.6891
v  2.1212 1.8198 -16.6501
v  2.1934 2.0411 -16.5687
v  2.1212 2.0411 -16.5687
v  2.1212 1.8354 -16.7283
v  2.1212 1.5842 -16.6596
v  2.0851 1.5993 -16.6266
v  2.1212 1.0384 -16.2949
v  2.1934 1.0384 -16.2949
v  2.1934 1.8354 -16.7283
v  2.1934 1.5842 -16.6596
v  2.1934 0.5497 -15.4834
v  2.2295 0.5762 -15.4582
v  2.2295 1.0649 -16.2695
v  2.2295 1.5993 -16.6266
v  2.2295 1.8276 -16.6891
v  2.2295 2.0146 -16.5440
v  2.1934 0.6026 -15.4329
v  2.1934 0.3765 -15.2817
v  2.1934 1.0913 -16.2443
v  2.1934 1.6143 -16.5937
v  2.1934 1.8198 -16.6501
v  2.2295 7.5058 -8.3259
v  2.2295 7.5683 -8.0976
v  2.1934 7.4478 -7.8841
v  2.2295 7.4231 -7.9106
v  2.1934 6.9022 -7.5195
v  2.2295 6.8888 -7.5535
v  2.1934 5.9722 -7.3684
v  2.2295 5.9588 -7.4024
v  2.1934 5.7195 -7.2855
v  2.1212 5.7195 -7.2855
v  2.0851 5.9588 -7.4024
v  2.0851 5.7393 -7.2558
v  2.1212 5.9722 -7.3684
v  2.1212 5.7591 -7.2261
v  2.1934 5.7591 -7.2261
v  2.2295 5.7393 -7.2558
v  2.1212 6.9022 -7.5195
v  2.0851 6.8888 -7.5535
v  2.1212 7.4478 -7.8841
v  2.0851 7.4231 -7.9106
v  2.1212 0.3765 -15.2817
v  2.1212 0.6026 -15.4329
v  2.0851 0.3566 -15.3115
v  2.0851 0.5762 -15.4582
v  2.1212 0.3368 -15.3412
v  2.1212 1.0913 -16.2443
v  2.1212 0.5497 -15.4834
v  2.1934 0.3368 -15.3412
v  2.0851 1.0649 -16.2695
v  2.1212 1.6143 -16.5937
v  2.2295 0.3566 -15.3115
v  -2.2961 0.3380 -15.6959
v  -2.5633 0.3372 -15.6957
v  -2.2961 0.3260 -15.6353
v  -2.5633 0.3253 -15.6359
v  -2.2961 0.2747 -15.6011
v  -2.5633 0.2745 -15.6019
v  -2.2961 0.2141 -15.6131
v  -2.5633 0.2146 -15.6138
v  -2.2961 0.1798 -15.6644
v  -2.5633 0.1807 -15.6646
v  -2.2961 0.1918 -15.7249
v  -2.5633 0.1926 -15.7244
v  -2.2961 0.2431 -15.7592
v  -2.5633 0.2433 -15.7584
v  -2.2961 0.3037 -15.7472
v  -2.5633 0.3032 -15.7465
v  -2.2961 0.4522 -15.7187
v  -2.2961 0.4229 -15.5707
v  -2.2961 0.3684 -15.8441
v  -2.2961 0.2204 -15.8735
v  -2.2961 0.0950 -15.7896
v  -2.2961 0.0656 -15.6416
v  -2.2961 0.1494 -15.5162
v  -2.2961 0.2974 -15.4868
v  2.1477 0.2431 -15.7592
v  2.1477 0.1918 -15.7249
v  2.1477 0.1798 -15.6644
v  2.1477 0.2141 -15.6131
v  2.1477 0.2747 -15.6011
v  2.1477 0.3260 -15.6353
v  2.1477 0.3380 -15.6959
v  2.1477 0.3037 -15.7472
v  2.1477 0.0656 -15.6416
v  2.1477 0.1494 -15.5162
v  2.1477 0.2974 -15.4868
v  2.1477 0.4229 -15.5707
v  2.1477 0.4522 -15.7187
v  2.1477 0.3684 -15.8441
v  2.1477 0.2204 -15.8735
v  2.1477 0.0950 -15.7896
v  2.5738 0.4771 -15.7236
v  2.5738 0.3825 -15.8652
v  2.5738 0.2154 -15.8984
v  2.5738 0.0739 -15.8037
v  2.5738 0.0407 -15.6366
v  2.5738 0.1354 -15.4951
v  2.5738 0.3024 -15.4619
v  2.5738 0.4440 -15.5566
v  2.5738 0.0000 -15.6285
v  2.5738 0.1123 -15.4606
v  2.5738 0.3105 -15.4212
v  2.5738 0.4785 -15.5336
v  2.5738 0.5178 -15.7317
v  2.5738 0.4055 -15.8997
v  2.5738 0.2073 -15.9391
v  2.5738 0.0394 -15.8267
v  2.0945 2.9992 -11.3341
v  2.0945 4.7245 -12.4869
v  2.1571 2.9877 -11.3513
v  2.1571 4.7131 -12.5041
v  2.2196 2.9992 -11.3341
v  2.2196 4.7245 -12.4869
v  2.2196 3.0221 -11.2997
v  2.2196 4.7475 -12.4526
v  2.1571 3.0336 -11.2827
v  2.1571 4.7589 -12.4355
v  2.0945 3.0221 -11.2997
v  2.0945 4.7475 -12.4526
v  -2.7221 0.3024 -15.4619
v  -2.7221 0.1354 -15.4951
v  -2.7221 0.0407 -15.6366
v  -2.7221 0.0739 -15.8037
v  -2.7221 0.2154 -15.8984
v  -2.7221 0.3825 -15.8652
v  -2.7221 0.4771 -15.7236
v  -2.7221 0.4440 -15.5566
v  -2.7221 0.5178 -15.7317
v  -2.7221 0.4785 -15.5336
v  -2.7221 0.4055 -15.8997
v  -2.7221 0.2073 -15.9391
v  -2.7221 0.0394 -15.8267
v  -2.7221 0.0000 -15.6285
v  -2.7221 0.1123 -15.4606
v  -2.7221 0.3105 -15.4212
v  -2.0438 5.9819 -6.9058
v  -2.0092 5.9654 -6.8948
v  -2.0438 6.1684 -7.0305
v  -2.0092 6.1849 -7.0415
v  -2.2265 6.1684 -7.0305
v  -2.2265 6.1849 -7.0415
v  -2.2265 5.9819 -6.9058
v  -2.2265 5.9654 -6.8948
v  -2.0438 0.3016 -15.8108
v  -2.0092 0.3181 -15.8218
v  -2.0438 0.1150 -15.6862
v  -2.0092 0.0986 -15.6752
v  -2.2265 0.1150 -15.6862
v  -2.2265 0.0986 -15.6752
v  -2.2265 0.3016 -15.8108
v  -2.2265 0.3181 -15.8218
v  1.8679 0.5850 -15.3384
v  1.8679 0.4946 -15.2759
v  1.8679 0.2198 -15.7465
v  1.8679 0.1924 -15.7283
v  1.8631 6.1147 -6.8648
v  1.8631 5.7445 -7.4189
v  1.8181 5.7497 -7.4536
v  1.8181 5.7951 -7.4861
v  -1.9664 5.7497 -7.4536
v  -1.9664 5.7951 -7.4861
v  -2.0163 0.2198 -15.7465
v  -2.0163 0.5850 -15.3384
v  -2.0163 0.1924 -15.7283
v  -2.0163 0.4946 -15.2759
v  -2.0115 6.1147 -6.8648
v  -2.0115 5.7445 -7.4189
v  1.8608 6.1849 -7.0415
v  1.8608 5.9654 -6.8948
v  1.8954 6.1684 -7.0305
v  1.8954 5.9819 -6.9058
v  2.0782 6.1849 -7.0415
v  2.0782 6.1684 -7.0305
v  2.0782 5.9654 -6.8948
v  2.0782 5.9819 -6.9058
v  1.8608 0.0986 -15.6752
v  1.8608 0.3181 -15.8218
v  1.8954 0.1150 -15.6862
v  1.8954 0.3016 -15.8108
v  2.0782 0.0986 -15.6752
v  2.0782 0.1150 -15.6862
v  2.0782 0.3181 -15.8218
v  2.0782 0.3016 -15.8108
v  -1.9664 3.8366 -10.4172
v  -1.9664 4.4894 -9.4402
v  1.8181 3.8366 -10.4172
v  1.8181 4.4894 -9.4402
v  1.8181 5.1422 -8.4631
v  -1.9664 5.1422 -8.4631
v  -1.9664 0.5723 -15.3025
v  -1.9664 1.2252 -14.3254
v  1.8181 0.5723 -15.3025
v  1.8181 1.2252 -14.3254
v  1.8181 1.8780 -13.3484
v  -1.9664 1.8780 -13.3484
v  -1.9664 2.5309 -12.3713
v  1.8181 2.5309 -12.3713
v  -1.9664 3.1837 -11.3943
v  1.8181 3.1837 -11.3943
v  1.8181 0.5269 -15.2700
v  -1.9664 0.5269 -15.2700
v  1.8181 1.1798 -14.2930
v  -1.9664 1.1798 -14.2930
v  1.8181 1.8326 -13.3159
v  -1.9664 1.8326 -13.3159
v  -1.9664 2.4854 -12.3388
v  1.8181 2.4854 -12.3388
v  1.8181 3.1383 -11.3618
v  -1.9664 3.1383 -11.3618
v  -1.9664 3.7911 -10.3847
v  1.8181 3.7911 -10.3847
v  -1.9664 4.4440 -9.4077
v  1.8181 4.4440 -9.4077
v  1.8181 5.0968 -8.4306
v  -1.9664 5.0968 -8.4306
v  -2.2601 0.1123 -15.4606
v  -2.2601 0.4785 -15.5336
v  -2.2601 0.3105 -15.4212
v  -2.2601 0.0000 -15.6285
v  -2.2601 0.0394 -15.8267
v  -2.2601 0.4055 -15.8997
v  -2.2601 0.5178 -15.7317
v  -2.2601 0.2073 -15.9391
v  -2.2335 0.3566 -15.3115
v  -2.2696 0.3368 -15.3412
v  -2.2335 0.5762 -15.4582
v  -2.2335 1.0649 -16.2695
v  -2.2696 1.0384 -16.2949
v  -2.2335 1.5993 -16.6266
v  -2.2696 0.5497 -15.4834
v  -2.3418 0.3368 -15.3412
v  -2.3779 0.3566 -15.3115
v  -2.3418 0.5497 -15.4834
v  -2.2696 0.3765 -15.2817
v  -2.2696 0.6026 -15.4329
v  -2.2696 1.0913 -16.2443
v  -2.2696 1.6143 -16.5937
v  -2.2696 1.8198 -16.6501
v  -2.2335 1.8276 -16.6891
v  -2.2696 1.9881 -16.5193
v  -2.2335 2.0146 -16.5440
v  -2.2696 7.4728 -8.3109
v  -2.3418 7.4728 -8.3109
v  -2.3418 1.9881 -16.5193
v  -2.3418 1.8198 -16.6501
v  -2.3418 1.6143 -16.5937
v  -2.3418 1.0913 -16.2443
v  -2.3418 0.6026 -15.4329
v  -2.3418 0.3765 -15.2817
v  2.1573 6.8407 -7.5460
v  2.1573 1.0368 -16.2321
v  2.2074 6.8544 -7.5552
v  2.2074 1.0505 -16.2413
v  2.2074 6.8818 -7.5735
v  2.2074 1.0779 -16.2596
v  2.1573 6.8955 -7.5827
v  2.1573 1.0917 -16.2688
v  2.1073 6.8818 -7.5735
v  2.1073 1.0779 -16.2596
v  2.1073 6.8544 -7.5552
v  2.1073 1.0505 -16.2413
v  1.8997 0.2986 -15.7067
v  2.1669 0.2990 -15.7070
v  1.8997 0.2324 -15.7198
v  2.1669 0.2321 -15.7203
v  1.8997 0.2192 -15.6536
v  2.1669 0.2188 -15.6533
v  1.8997 0.2854 -15.6404
v  2.1669 0.2857 -15.6400
v  -2.3418 1.8354 -16.7283
v  -2.2696 1.8354 -16.7283
v  -2.3418 1.5842 -16.6596
v  -2.2696 1.5842 -16.6596
v  -2.3418 1.0384 -16.2949
v  -2.3779 1.0649 -16.2695
v  -2.3779 0.5762 -15.4582
v  -2.2696 2.0411 -16.5687
v  -2.2335 7.5058 -8.3259
v  -2.2696 7.5387 -8.3409
v  -2.2335 7.5683 -8.0976
v  -2.2696 7.6075 -8.0898
v  -2.2335 7.4231 -7.9106
v  -2.2696 7.4478 -7.8841
v  -2.3418 7.6075 -8.0898
v  -2.3418 7.4478 -7.8841
v  -2.3779 7.5683 -8.0976
v  -2.3779 7.4231 -7.9106
v  -2.3418 7.5291 -8.1054
v  -2.3418 7.3985 -7.9371
v  -2.2696 6.9022 -7.5195
v  -2.3418 6.9022 -7.5195
v  -2.3779 6.8888 -7.5535
v  -2.3418 6.8754 -7.5875
v  -2.3418 5.7195 -7.2855
v  -2.3779 5.7393 -7.2558
v  -2.3418 5.9454 -7.4365
v  -2.3779 5.9588 -7.4024
v  -2.3418 5.9722 -7.3684
v  -2.2696 5.9722 -7.3684
v  -2.2335 5.9588 -7.4024
v  -2.2335 6.8888 -7.5535
v  -2.2696 5.9454 -7.4365
v  -2.2696 5.7195 -7.2855
v  -2.2335 5.7393 -7.2558
v  -2.2696 5.7591 -7.2261
v  -2.3418 5.7591 -7.2261
v  -2.2696 6.8754 -7.5875
v  -2.2696 7.3985 -7.9371
v  -2.2696 7.5291 -8.1054
v  -2.3779 7.5058 -8.3259
v  -2.3779 2.0146 -16.5440
v  -2.3779 1.8276 -16.6891
v  -2.3779 1.5993 -16.6266
v  -2.3418 7.5387 -8.3409
v  -2.3418 2.0411 -16.5687
v  2.0945 4.4325 -9.1889
v  2.1571 4.4669 -9.1375
v  2.0945 4.4555 -9.1546
v  2.2196 4.4555 -9.1546
v  2.2196 4.4325 -9.1889
v  2.1571 4.4211 -9.2061
v  2.0945 6.1579 -10.3417
v  2.1571 6.1464 -10.3589
v  2.2196 6.1579 -10.3417
v  2.2196 6.1808 -10.3074
v  2.1571 6.1923 -10.2903
v  2.0945 6.1808 -10.3074
v  -2.2429 4.7245 -12.4869
v  -2.2429 4.7475 -12.4526
v  -2.2429 2.9992 -11.3341
v  -2.2429 3.0221 -11.2997
v  -2.3054 4.7589 -12.4355
v  -2.3054 3.0336 -11.2827
v  -2.3679 4.7475 -12.4526
v  -2.3679 3.0221 -11.2997
v  -2.3679 4.7245 -12.4869
v  -2.3679 2.9992 -11.3341
v  -2.3054 4.7131 -12.5041
v  -2.3054 2.9877 -11.3513
v  -2.3152 0.2990 -15.7070
v  -2.3152 0.2857 -15.6400
v  -2.0480 0.2986 -15.7067
v  -2.0480 0.2854 -15.6404
v  -2.3152 0.2188 -15.6533
v  -2.0480 0.2192 -15.6536
v  -2.3152 0.2321 -15.7203
v  -2.0480 0.2324 -15.7198
v  2.0945 1.6195 -13.3988
v  2.1571 1.6539 -13.3474
v  2.0945 1.6425 -13.3645
v  2.2196 1.6425 -13.3645
v  2.2196 1.6195 -13.3988
v  2.1571 1.6081 -13.4160
v  2.0945 3.3449 -14.5517
v  2.1571 3.3335 -14.5688
v  2.2196 3.3449 -14.5517
v  2.2196 3.3678 -14.5175
v  2.1571 3.3793 -14.5002
v  2.0945 3.3678 -14.5175
v  -2.3057 1.0368 -16.2321
v  -2.2557 1.0505 -16.2413
v  -2.3057 6.8407 -7.5460
v  -2.2557 6.8544 -7.5552
v  -2.2557 1.0779 -16.2596
v  -2.2557 6.8818 -7.5735
v  -2.3057 1.0917 -16.2688
v  -2.3057 6.8955 -7.5827
v  -2.3557 1.0779 -16.2596
v  -2.3557 6.8818 -7.5735
v  -2.3557 1.0505 -16.2413
v  -2.3557 6.8544 -7.5552
v  -2.3054 4.4211 -9.2061
v  -2.2429 4.4325 -9.1889
v  -2.3679 4.4325 -9.1889
v  -2.3679 4.4555 -9.1546
v  -2.3054 4.4669 -9.1375
v  -2.2429 4.4555 -9.1546
v  -2.2429 6.1579 -10.3417
v  -2.2429 6.1808 -10.3074
v  -2.3054 6.1923 -10.2903
v  -2.3679 6.1808 -10.3074
v  -2.3679 6.1579 -10.3417
v  -2.3054 6.1464 -10.3589
v  -2.3054 1.6081 -13.4160
v  -2.2429 1.6195 -13.3988
v  -2.3679 1.6195 -13.3988
v  -2.3679 1.6425 -13.3645
v  -2.3054 1.6539 -13.3474
v  -2.2429 1.6425 -13.3645
v  -2.2429 3.3449 -14.5517
v  -2.2429 3.3678 -14.5175
v  -2.3054 3.3793 -14.5002
v  -2.3679 3.3678 -14.5175
v  -2.3679 3.3449 -14.5517
v  -2.3054 3.3335 -14.5688
# 496 vertices

vn 0.0000 -1.0000 0.0000
vn 0.0000 1.0000 -0.0000
vn 1.0000 0.0000 -0.0000
vn 0.9595 0.0000 0.2818
vn 0.5992 0.0000 0.8006
vn -0.5994 0.0000 0.8004
vn -0.9596 0.0000 0.2814
vn 0.9595 0.0000 0.2816
vn 0.5993 0.0000 0.8005
vn -0.5992 0.0000 0.8006
vn -0.9594 0.0000 0.2820
vn 0.0000 -0.0000 -1.0000
vn 0.0000 0.0000 1.0000
vn -1.0000 0.0000 -0.0000
vn 0.9593 0.0000 0.2823
vn 0.5991 0.0000 0.8007
vn -0.5991 0.0000 0.8007
vn -0.9593 0.0000 0.2823
vn -0.9595 0.0000 0.2818
vn 0.0000 0.8895 -0.4569
vn -0.4563 -0.8727 -0.1736
vn -0.3980 -0.6253 -0.6713
vn -0.9816 0.1873 0.0372
vn 0.0000 -0.8315 0.5556
vn 0.0000 -0.9097 0.4152
vn -0.5169 -0.6625 0.5421
vn -0.3978 -0.8346 0.3809
vn 0.0000 -0.9808 -0.1951
vn 0.0000 -0.6816 -0.7317
vn 0.0000 -0.3663 -0.9305
vn -0.4056 -0.3349 -0.8505
vn 0.0000 -0.3664 -0.9305
vn -0.3683 -0.3406 -0.8651
vn 0.3684 0.9118 0.1814
vn 0.3701 0.8451 -0.3857
vn -0.3684 0.9118 0.1813
vn -0.3701 0.8451 -0.3857
vn -0.9974 0.0655 -0.0299
vn -0.9974 0.0524 -0.0488
vn -0.9817 0.0371 -0.1868
vn -0.4557 -0.1736 0.8730
vn 0.3703 0.6797 -0.6331
vn -0.3703 0.6797 -0.6332
vn -0.3684 0.1814 -0.9118
vn -0.3703 -0.3857 -0.8451
vn -0.9974 -0.0297 -0.0652
vn -0.3683 -0.6726 -0.6418
vn 0.3683 -0.6726 -0.6418
vn 0.3684 0.1814 -0.9118
vn 0.3703 -0.3857 -0.8451
vn 0.4064 -0.6610 -0.6308
vn 0.9953 0.0704 0.0671
vn 0.9229 -0.2345 -0.3053
vn 0.9974 -0.0298 -0.0652
vn 0.9817 0.0372 -0.1868
vn 0.9974 0.0523 -0.0488
vn 0.7122 0.5079 0.4846
vn 0.7040 0.3945 0.5905
vn 0.7119 0.5081 0.4848
vn 0.7032 0.3950 0.5912
vn 0.7079 0.2933 0.6425
vn 0.7411 -0.1307 0.6586
vn 0.7078 -0.5170 0.4814
vn 0.9974 0.0655 -0.0299
vn 0.9816 0.1872 0.0372
vn 0.3701 0.6332 0.6798
vn 0.9974 0.0492 0.0527
vn 0.3683 0.3406 0.8651
vn 0.9955 0.0348 0.0883
vn 0.4056 0.3348 0.8505
vn 0.9955 -0.0348 -0.0883
vn 0.7080 -0.6425 0.2932
vn 0.7419 -0.6576 -0.1308
vn 0.7083 -0.4812 -0.5165
vn 0.7117 -0.2574 -0.6536
vn 0.7117 -0.2573 -0.6537
vn 0.0000 -0.5557 -0.8314
vn -0.3801 -0.5139 -0.7691
vn -0.9955 -0.0348 -0.0883
vn -1.0000 -0.0002 -0.0003
vn -0.4056 0.3348 0.8505
vn -0.3802 0.5137 0.7691
vn 0.3803 0.5137 0.7691
vn 1.0000 -0.0002 -0.0002
vn 0.7031 -0.3951 -0.5912
vn -0.3683 0.3406 0.8651
vn -0.9955 0.0348 0.0883
vn -0.3701 0.6332 0.6798
vn -0.9974 0.0492 0.0527
vn 0.0000 0.5556 0.8314
vn 0.0000 0.7235 0.6903
vn -0.3806 0.5138 0.7688
vn -0.3681 0.6727 0.6418
vn -1.0000 -0.0003 -0.0005
vn -0.9953 0.0704 0.0672
vn -0.3554 -0.5193 -0.7772
vn -0.4063 0.6611 0.6308
vn 0.0000 0.4154 0.9096
vn -0.4064 -0.6611 -0.6308
vn 0.3800 -0.5139 -0.7691
vn -0.7033 -0.3949 -0.5910
vn -0.9953 -0.0702 -0.0669
vn -0.3978 0.3812 0.8346
vn 0.0000 -0.1950 0.9808
vn 0.0000 -0.6134 0.7898
vn 1.0000 -0.0004 -0.0005
vn -0.0032 0.9808 -0.1952
vn -0.0032 0.9807 -0.1955
vn -0.0033 0.8316 0.5554
vn -0.0032 0.8318 0.5551
vn -0.0033 0.1952 0.9808
vn -0.0032 0.1955 0.9807
vn -0.0029 -0.1952 0.9808
vn -0.0029 -0.1953 0.9807
vn -0.0030 -0.8314 0.5557
vn -0.0032 -0.9807 0.1953
vn -0.0032 -0.9808 0.1952
vn -0.0033 -0.8315 -0.5555
vn -0.0032 -0.8318 -0.5551
vn -0.0033 -0.1955 -0.9807
vn -0.0032 -0.1956 -0.9807
vn -0.0032 0.5555 -0.8315
vn -0.0032 0.5554 -0.8315
vn 0.0032 -0.1956 -0.9807
vn 0.0032 -0.8318 -0.5551
vn 0.0033 -0.1955 -0.9807
vn 0.0033 -0.8315 -0.5555
vn 0.0032 -0.9808 0.1952
vn 0.0032 -0.9807 0.1953
vn 0.0030 -0.8314 0.5557
vn 0.0029 -0.1953 0.9807
vn 0.0032 0.1955 0.9807
vn 0.0029 -0.1952 0.9808
vn 0.0033 0.1952 0.9808
vn 0.0032 0.8318 0.5551
vn 0.0033 0.8316 0.5554
vn 0.0032 0.9807 -0.1955
vn 0.0032 0.9808 -0.1952
vn 0.0032 0.5554 -0.8315
vn 0.0032 0.5555 -0.8315
vn 0.0595 -0.9790 0.1950
vn 0.0594 -0.5544 0.8302
vn 0.0594 -0.9790 0.1952
vn 0.0594 -0.5543 0.8302
vn 0.0594 0.1952 0.9790
vn 0.0595 0.1951 0.9790
vn 0.0549 0.5554 0.8298
vn 0.0550 0.5552 0.8299
vn 0.0549 0.9794 0.1944
vn 0.0595 0.9790 -0.1951
vn 0.0595 0.9790 -0.1952
vn 0.0595 0.5544 -0.8302
vn 0.0595 0.5543 -0.8302
vn 0.0595 -0.1951 -0.9790
vn 0.0595 -0.8302 -0.5542
vn 0.0595 -0.8303 -0.5542
vn -0.3134 -0.5276 -0.7896
vn 0.0000 -0.5556 -0.8315
vn 0.8104 -0.3255 -0.4871
vn 0.8103 -0.3256 -0.4873
vn 0.8102 0.3256 0.4874
vn 0.8103 0.3256 0.4873
vn 0.0000 0.5556 0.8315
vn -0.8102 0.3257 0.4874
vn -0.8103 0.3256 0.4873
vn -0.0595 -0.1951 -0.9790
vn -0.0595 0.5543 -0.8302
vn -0.0595 0.5544 -0.8302
vn -0.0595 0.9790 -0.1952
vn -0.0595 0.9790 -0.1951
vn -0.0549 0.9794 0.1944
vn -0.0550 0.5552 0.8299
vn -0.0549 0.5554 0.8298
vn -0.0595 0.1951 0.9790
vn -0.0594 0.1952 0.9790
vn -0.0594 -0.5543 0.8302
vn -0.0594 -0.5544 0.8302
vn -0.0594 -0.9790 0.1952
vn -0.0595 -0.9790 0.1950
vn -0.0595 -0.8303 -0.5542
vn -0.0595 -0.8302 -0.5542
vn 0.0000 -0.8313 0.5558
vn 0.0000 -0.8316 0.5554
vn 0.0000 -0.8310 0.5562
vn 0.0000 -0.8312 0.5559
vn 0.0000 -0.8317 0.5552
vn 0.0000 -0.8322 0.5545
vn -0.0011 0.5555 0.8315
vn -0.0011 0.5556 0.8315
vn -0.0007 0.5556 0.8315
vn -0.0007 0.5556 0.8314
vn 0.0000 0.5546 0.8321
vn 0.0000 0.5572 0.8304
vn -0.0003 -0.5554 -0.8316
vn 0.0002 -0.5555 -0.8315
vn 0.0000 -0.5558 -0.8313
vn 0.0000 -0.5559 -0.8312
vn 0.0000 0.8315 -0.5556
vn 0.0000 0.5819 0.8132
vn 0.0000 0.7452 -0.6668
vn 0.0000 -0.8315 0.5555
vn 0.0000 0.5560 0.8312
vn 0.0000 -0.5534 -0.8329
vn 0.0007 0.5556 0.8314
vn 0.0011 0.5556 0.8315
vn 0.0007 0.5556 0.8315
vn 0.0011 0.5555 0.8315
vn -0.0002 -0.5555 -0.8315
vn 0.0003 -0.5554 -0.8316
vn 0.0000 -0.5819 -0.8133
vn 1.0000 -0.0003 -0.0005
vn 0.9953 0.0704 0.0672
vn 0.9953 -0.0702 -0.0669
vn 0.9974 -0.0297 -0.0652
vn 0.4064 -0.6611 -0.6308
vn -0.3800 -0.5139 -0.7691
vn -1.0000 -0.0004 -0.0005
vn -0.4064 -0.6610 -0.6308
vn 0.3806 0.5138 0.7688
vn 0.3681 0.6727 0.6418
vn 0.4063 0.6611 0.6308
vn 0.3978 0.3812 0.8346
vn 0.4557 -0.1736 0.8730
vn 0.9817 0.0371 -0.1868
vn 0.3976 -0.6715 0.6253
vn 0.9974 0.0524 -0.0488
vn 0.3978 -0.8346 0.3809
vn 0.0000 -0.7319 0.6815
vn 0.3131 -0.7896 0.5276
vn 0.8102 -0.4873 0.3256
vn 0.8105 -0.4870 0.3254
vn 0.8104 0.4872 -0.3255
vn 0.8101 0.4875 -0.3257
vn -0.0000 0.8315 -0.5556
vn -0.8104 0.4872 -0.3255
vn -0.8101 0.4875 -0.3257
vn -0.8102 -0.4873 0.3256
vn -0.8105 -0.4870 0.3254
vn -0.3131 -0.7896 0.5276
vn 0.0000 -0.1954 -0.9807
vn 0.0000 0.5554 -0.8316
vn 0.0000 0.9807 -0.1954
vn 0.0000 0.9808 0.1949
vn 0.0000 0.5562 0.8311
vn 0.0000 0.1956 0.9807
vn 0.0000 -0.5552 0.8317
vn 0.0000 -0.9807 0.1955
vn 0.0000 -0.8317 -0.5552
vn -0.0012 0.1948 -0.9808
vn -0.0013 0.1951 -0.9808
vn -0.0018 -0.5556 -0.8314
vn -0.0019 -0.5556 -0.8315
vn -0.0018 -0.8314 0.5557
vn -0.0019 -0.8315 0.5555
vn -0.0018 0.5557 0.8314
vn -0.0019 0.5556 0.8315
vn -0.0013 0.9808 0.1950
vn -0.0014 0.9808 0.1951
vn -0.9953 0.0704 0.0671
vn -0.7122 0.5079 0.4846
vn -0.7040 0.3945 0.5905
vn 0.3703 0.6797 -0.6332
vn 0.9816 0.1873 0.0372
vn 0.3684 0.9118 0.1813
vn -0.3684 0.9118 0.1814
vn -0.9816 0.1872 0.0372
vn -0.7419 -0.6576 -0.1308
vn -0.7083 -0.4812 -0.5165
vn -0.7117 -0.2574 -0.6536
vn -0.7031 -0.3951 -0.5912
vn -1.0000 -0.0002 -0.0002
vn -0.7117 -0.2573 -0.6537
vn 0.3683 -0.3406 -0.8651
vn 0.3801 -0.5139 -0.7691
vn 1.0000 -0.0002 -0.0003
vn 0.3802 0.5137 0.7691
vn -0.3803 0.5137 0.7691
vn 0.4056 -0.3349 -0.8505
vn 0.3980 -0.6253 -0.6713
vn 0.4563 -0.8727 -0.1736
vn -0.7080 -0.6425 0.2932
vn -0.7078 -0.5170 0.4814
vn -0.9974 0.0523 -0.0488
vn -0.7411 -0.1307 0.6586
vn -0.9817 0.0372 -0.1868
vn -0.7079 0.2933 0.6425
vn -0.9974 -0.0298 -0.0652
vn -0.7119 0.5081 0.4848
vn -0.3703 0.6797 -0.6331
vn 0.0000 0.5692 0.8222
vn 0.0000 -0.5694 -0.8220
vn -0.0001 -0.8314 0.5557
vn 0.0000 -0.8314 0.5556
vn -0.0002 -0.8313 0.5558
vn 0.0000 -0.8314 0.5557
vn 0.0000 -0.8317 0.5553
vn -0.3133 -0.5276 -0.7896
vn -0.3138 -0.5275 -0.7895
vn 0.8104 -0.3255 -0.4872
vn 0.8105 -0.3254 -0.4870
vn 0.8104 0.3255 0.4871
vn 0.8103 0.3256 0.4872
vn -0.8104 0.3255 0.4872
vn 0.8103 0.3255 0.4872
vn 0.8102 0.3256 0.4873
vn -0.8102 0.3256 0.4874
vn -0.8103 -0.3256 -0.4873
vn -0.8104 -0.3255 -0.4871
vn 0.3136 -0.5276 -0.7895
vn 0.0014 0.9808 0.1951
vn 0.0019 0.5556 0.8315
vn 0.0013 0.9808 0.1950
vn 0.0018 0.5557 0.8314
vn 0.0019 -0.8315 0.5555
vn 0.0018 -0.8314 0.5557
vn 0.0019 -0.5556 -0.8315
vn 0.0018 -0.5556 -0.8314
vn 0.0013 0.1951 -0.9808
vn 0.0012 0.1948 -0.9808
vn 0.0001 -0.8314 0.5557
vn -0.0001 -0.8312 0.5560
vn 0.0003 -0.8314 0.5557
vn -0.0000 -0.8313 0.5558
vn -0.3129 -0.5277 -0.7897
vn 0.0001 -0.5556 -0.8315
vn 0.8103 -0.3256 -0.4872
vn 0.0001 0.5556 0.8315
vn 0.0001 -0.8315 0.5555
vn -0.0001 -0.8314 0.5556
vn 0.0003 -0.8316 0.5554
vn -0.0000 -0.8315 0.5555
vn 0.3131 -0.7897 0.5276
vn -0.0001 0.8315 -0.5556
vn -0.8104 0.4871 -0.3255
vn -0.8103 -0.4873 0.3256
vn -0.3133 -0.7896 0.5276
vn -0.0000 -0.8314 0.5557
vn -0.0000 -0.8314 0.5556
vn 0.0002 -0.8313 0.5558
vn -0.0001 -0.8315 0.5555
vn 0.0001 -0.8314 0.5556
vn -0.0003 -0.8316 0.5554
vn -0.8103 0.3256 0.4872
vn -0.8104 0.3255 0.4871
vn -0.8105 -0.3254 -0.4870
vn -0.8104 -0.3255 -0.4872
vn 0.3140 -0.5275 -0.7894
vn 0.3135 -0.5276 -0.7895
vn 0.0001 -0.8312 0.5560
vn -0.0003 -0.8314 0.5557
vn 0.8104 0.3255 0.4872
vn -0.8103 -0.3256 -0.4872
vn 0.3131 -0.5276 -0.7897
# 353 vertex normals

vt 0.5102 0.5337 0.0000
vt 0.9965 0.5337 0.0000
vt 0.9965 0.6340 0.0000
vt 0.5102 0.6340 0.0000
vt 0.4832 0.9630 0.0000
vt 0.4832 0.9652 0.0000
vt 0.4832 0.9637 0.0000
vt 0.4832 0.9645 0.0000
vt 0.0268 0.6341 0.0000
vt 0.0028 0.6341 0.0000
vt 0.0028 0.5337 0.0000
vt 0.0268 0.5337 0.0000
vt 0.4988 0.5337 0.0000
vt 0.0268 0.6549 0.0000
vt 0.0268 0.7449 0.0000
vt 0.4988 0.8661 0.0000
vt 0.0268 0.7657 0.0000
vt 0.0268 0.8661 0.0000
vt 0.0028 0.8661 0.0000
vt 0.0028 0.7657 0.0000
vt 0.0028 0.6549 0.0000
vt 0.0028 0.7449 0.0000
vt 0.9969 0.8661 0.0000
vt 0.9969 0.5337 0.0000
vt 0.5102 0.6548 0.0000
vt 0.9965 0.6548 0.0000
vt 0.9965 0.7446 0.0000
vt 0.5102 0.7446 0.0000
vt 0.4832 0.8959 0.0000
vt 0.4832 0.8976 0.0000
vt 0.4832 0.8971 0.0000
vt 0.4832 0.8964 0.0000
vt 0.0159 0.8976 0.0000
vt 0.0159 0.8959 0.0000
vt 0.0159 0.8964 0.0000
vt 0.0159 0.8971 0.0000
vt 0.4832 0.9205 0.0000
vt 0.4832 0.9224 0.0000
vt 0.4832 0.9217 0.0000
vt 0.4832 0.9212 0.0000
vt 0.0159 0.9224 0.0000
vt 0.0159 0.9205 0.0000
vt 0.0159 0.9212 0.0000
vt 0.0159 0.9217 0.0000
vt 0.4832 0.9380 0.0000
vt 0.4832 0.9401 0.0000
vt 0.4832 0.9393 0.0000
vt 0.4832 0.9388 0.0000
vt 0.0159 0.9401 0.0000
vt 0.0159 0.9380 0.0000
vt 0.0159 0.9388 0.0000
vt 0.0159 0.9393 0.0000
vt 0.0159 0.9652 0.0000
vt 0.0159 0.9630 0.0000
vt 0.0159 0.9637 0.0000
vt 0.0159 0.9645 0.0000
vt 0.9965 0.7654 0.0000
vt 0.5102 0.7654 0.0000
vt 0.9965 0.8657 0.0000
vt 0.5102 0.8657 0.0000
vt 0.4988 0.9979 0.0000
vt 0.0268 0.9979 0.0000
vt 0.0028 0.9979 0.0000
vt 0.0268 0.6340 0.0000
vt 0.0028 0.6340 0.0000
vt 0.0268 0.6548 0.0000
vt 0.0268 0.7446 0.0000
vt 0.4988 0.8657 0.0000
vt 0.0268 0.7654 0.0000
vt 0.0268 0.8657 0.0000
vt 0.0028 0.8657 0.0000
vt 0.0028 0.7654 0.0000
vt 0.0028 0.6548 0.0000
vt 0.0028 0.7446 0.0000
vt 0.9976 0.8667 0.0000
vt 0.9976 0.9983 0.0000
vt 0.5239 0.9983 0.0000
vt 0.5239 0.8667 0.0000
vt 0.4999 0.8667 0.0000
vt 0.4999 0.9983 0.0000
vt 0.0007 0.2869 0.0000
vt 0.0007 0.2465 0.0000
vt 0.4703 0.2869 0.0000
vt 0.4703 0.2465 0.0000
vt 0.5602 0.2713 0.0000
vt 0.5788 0.2713 0.0000
vt 0.5471 0.2675 0.0000
vt 0.5471 0.2622 0.0000
vt 0.5603 0.2585 0.0000
vt 0.5919 0.2622 0.0000
vt 0.5919 0.2675 0.0000
vt 0.5788 0.2585 0.0000
vt 0.6436 0.2737 0.0000
vt 0.6002 0.2437 0.0000
vt 0.6436 0.2561 0.0000
vt 0.6002 0.2861 0.0000
vt 0.5388 0.2860 0.0000
vt 0.4954 0.2561 0.0000
vt 0.5389 0.2437 0.0000
vt 0.4954 0.2736 0.0000
vt -0.5635 0.2095 0.0000
vt -0.6119 0.2095 0.0000
vt -0.5635 0.2078 0.0000
vt 1.5053 0.2111 0.0000
vt -0.5151 0.2111 0.0000
vt 1.5053 0.2095 0.0000
vt -0.5151 0.2095 0.0000
vt -0.5635 0.2111 0.0000
vt -0.6119 0.2111 0.0000
vt -0.7433 0.2111 0.0000
vt -0.7433 0.2095 0.0000
vt -0.9359 0.2111 0.0000
vt -0.9359 0.2095 0.0000
vt -0.5635 0.2045 0.0000
vt -0.5151 0.2045 0.0000
vt -0.5635 0.2062 0.0000
vt -0.5151 0.2062 0.0000
vt -0.5151 0.2078 0.0000
vt 1.5053 0.2078 0.0000
vt 1.5537 0.2078 0.0000
vt 1.5537 0.2095 0.0000
vt 1.5053 0.2045 0.0000
vt 1.5053 0.2062 0.0000
vt 1.5537 0.2062 0.0000
vt 1.6021 0.2062 0.0000
vt 1.6021 0.2078 0.0000
vt 1.7335 0.2062 0.0000
vt 1.7335 0.2045 0.0000
vt 1.5537 0.2045 0.0000
vt 1.6021 0.2045 0.0000
vt 1.9271 0.2045 0.0000
vt 1.9271 0.2029 0.0000
vt 1.7335 0.2029 0.0000
vt 1.6021 0.2029 0.0000
vt 1.5537 0.2029 0.0000
vt 1.5053 0.2029 0.0000
vt 1.9271 0.2013 0.0000
vt 1.9811 0.2013 0.0000
vt 1.7335 0.2013 0.0000
vt 1.6021 0.2013 0.0000
vt 1.5537 0.2013 0.0000
vt 1.5053 0.2013 0.0000
vt -0.5151 0.2029 0.0000
vt -0.5635 0.2029 0.0000
vt -0.6119 0.2045 0.0000
vt -0.6119 0.2029 0.0000
vt -0.7433 0.2045 0.0000
vt -0.7433 0.2029 0.0000
vt -0.9359 0.2045 0.0000
vt -0.9359 0.2029 0.0000
vt -0.5151 0.2013 0.0000
vt -0.5635 0.2013 0.0000
vt -0.6119 0.2013 0.0000
vt -0.7433 0.2013 0.0000
vt -0.9359 0.2013 0.0000
vt -0.9898 0.2111 0.0000
vt -0.9898 0.2095 0.0000
vt -0.9359 0.2078 0.0000
vt -0.9898 0.2078 0.0000
vt -0.9359 0.2062 0.0000
vt -0.9898 0.2062 0.0000
vt -0.9898 0.2045 0.0000
vt -0.9898 0.2029 0.0000
vt -0.9898 0.2013 0.0000
vt -0.7433 0.2062 0.0000
vt -0.7433 0.2078 0.0000
vt -0.6119 0.2062 0.0000
vt -0.6119 0.2078 0.0000
vt 1.9811 0.2111 0.0000
vt 1.9271 0.2111 0.0000
vt 1.9811 0.2095 0.0000
vt 1.9271 0.2095 0.0000
vt 1.9811 0.2078 0.0000
vt 1.7335 0.2111 0.0000
vt 1.9271 0.2078 0.0000
vt 1.9811 0.2062 0.0000
vt 1.7335 0.2095 0.0000
vt 1.6021 0.2111 0.0000
vt 1.9271 0.2062 0.0000
vt 1.9811 0.2045 0.0000
vt 1.7335 0.2078 0.0000
vt 1.6021 0.2095 0.0000
vt 1.5537 0.2111 0.0000
vt 1.9811 0.2029 0.0000
vt 0.4703 0.2784 0.0000
vt 0.4892 0.2784 0.0000
vt 0.4703 0.2799 0.0000
vt 0.4892 0.2799 0.0000
vt 0.4703 0.2818 0.0000
vt 0.4892 0.2818 0.0000
vt 0.4703 0.2833 0.0000
vt 0.4892 0.2833 0.0000
vt 0.4703 0.2688 0.0000
vt 0.4892 0.2688 0.0000
vt 0.4703 0.2710 0.0000
vt 0.4892 0.2710 0.0000
vt 0.4703 0.2725 0.0000
vt 0.4892 0.2725 0.0000
vt 0.4703 0.2747 0.0000
vt 0.4892 0.2747 0.0000
vt 0.4703 0.2762 0.0000
vt 0.4892 0.2762 0.0000
vt 0.5924 0.2807 0.0000
vt 0.5789 0.2713 0.0000
vt 0.6248 0.2714 0.0000
vt 0.5601 0.2713 0.0000
vt 0.5466 0.2807 0.0000
vt 0.5469 0.2675 0.0000
vt 0.5142 0.2714 0.0000
vt 0.5469 0.2622 0.0000
vt 0.5142 0.2583 0.0000
vt 0.5602 0.2584 0.0000
vt 0.5466 0.2491 0.0000
vt 0.5789 0.2584 0.0000
vt 0.5925 0.2491 0.0000
vt 0.5922 0.2622 0.0000
vt 0.6249 0.2583 0.0000
vt 0.5922 0.2675 0.0000
vt 0.7834 0.2455 0.0000
vt 0.7422 0.2455 0.0000
vt 0.7834 0.2836 0.0000
vt 0.7422 0.2836 0.0000
vt 0.7011 0.2455 0.0000
vt 0.7011 0.2836 0.0000
vt 0.6598 0.2455 0.0000
vt 0.6598 0.2836 0.0000
vt 0.9891 0.2455 0.0000
vt 0.9480 0.2455 0.0000
vt 0.9891 0.2836 0.0000
vt 0.9480 0.2836 0.0000
vt 0.9068 0.2455 0.0000
vt 0.9068 0.2836 0.0000
vt 0.8657 0.2455 0.0000
vt 0.8657 0.2836 0.0000
vt 0.8245 0.2455 0.0000
vt 0.8245 0.2836 0.0000
vt 0.5437 0.2470 0.0000
vt 0.5954 0.2470 0.0000
vt 0.6320 0.2575 0.0000
vt 0.6320 0.2723 0.0000
vt 0.5954 0.2827 0.0000
vt 0.5436 0.2827 0.0000
vt 0.5071 0.2723 0.0000
vt 0.5071 0.2575 0.0000
vt -0.9995 0.1857 0.0000
vt 0.0005 0.1857 0.0000
vt -0.9995 0.1874 0.0000
vt 0.0005 0.1874 0.0000
vt -0.9995 0.1890 0.0000
vt 0.0005 0.1890 0.0000
vt -0.9995 0.1907 0.0000
vt 0.0005 0.1907 0.0000
vt -0.9995 0.1923 0.0000
vt 0.0005 0.1923 0.0000
vt -0.9995 0.1939 0.0000
vt 0.0005 0.1939 0.0000
vt -0.9995 0.1956 0.0000
vt 0.0005 0.1956 0.0000
vt 0.5468 0.2649 0.0000
vt 0.5803 0.2594 0.0000
vt 0.5580 0.2594 0.0000
vt 0.5914 0.2649 0.0000
vt 0.5803 0.2704 0.0000
vt 0.5580 0.2704 0.0000
vt 0.6580 0.2323 0.0000
vt 0.6507 0.2343 0.0000
vt 0.6580 0.2087 0.0000
vt 0.6507 0.2066 0.0000
vt 0.6964 0.2087 0.0000
vt 0.6964 0.2066 0.0000
vt 0.6964 0.2323 0.0000
vt 0.6964 0.2343 0.0000
vt -2.0066 0.2087 0.0000
vt -1.9993 0.2066 0.0000
vt -2.0066 0.2323 0.0000
vt -1.9993 0.2343 0.0000
vt -2.0450 0.2323 0.0000
vt -2.0450 0.2343 0.0000
vt -2.0450 0.2087 0.0000
vt -2.0450 0.2066 0.0000
vt 0.6507 0.1903 0.0000
vt 0.6507 0.1926 0.0000
vt -1.9993 0.1903 0.0000
vt -1.9993 0.1926 0.0000
vt -1.9993 0.1889 0.0000
vt -1.9993 0.1912 0.0000
vt 0.6507 0.1889 0.0000
vt 0.6507 0.1912 0.0000
vt 0.6507 0.1721 0.0000
vt -1.9993 0.1721 0.0000
vt 0.6507 0.1448 0.0000
vt -1.9993 0.1448 0.0000
vt 0.6507 0.2052 0.0000
vt -1.9993 0.2052 0.0000
vt 0.4929 0.2422 0.0000
vt 0.4703 0.2422 0.0000
vt 0.4927 0.2869 0.0000
vt 1.6535 0.2875 0.0000
vt 1.6634 0.2875 0.0000
vt 1.6535 0.4292 0.0000
vt 1.6634 0.4292 0.0000
vt 0.0007 0.2422 0.0000
vt 0.6204 0.4292 0.0000
vt 0.4138 0.4292 0.0000
vt 0.6204 0.2875 0.0000
vt 0.4138 0.2875 0.0000
vt 0.2071 0.2875 0.0000
vt 0.2071 0.4292 0.0000
vt 0.0005 0.2875 0.0000
vt 0.0005 0.4292 0.0000
vt 1.4469 0.4292 0.0000
vt 1.4469 0.2875 0.0000
vt 1.2403 0.2875 0.0000
vt 1.2403 0.4292 0.0000
vt 1.0337 0.4292 0.0000
vt 1.0337 0.2875 0.0000
vt 0.8270 0.4292 0.0000
vt 0.8270 0.2875 0.0000
vt 0.0354 0.1857 0.0000
vt 1.0354 0.1857 0.0000
vt 0.0354 0.1874 0.0000
vt 1.0354 0.1874 0.0000
vt 0.0354 0.1891 0.0000
vt 1.0354 0.1891 0.0000
vt 0.0354 0.1907 0.0000
vt 1.0354 0.1907 0.0000
vt 0.0354 0.1924 0.0000
vt 1.0354 0.1924 0.0000
vt 0.0354 0.1940 0.0000
vt 1.0354 0.1940 0.0000
vt 0.0354 0.1957 0.0000
vt 1.0354 0.1957 0.0000
vt 0.9479 0.2836 0.0000
vt 0.9479 0.2455 0.0000
vt 0.9890 0.2836 0.0000
vt 0.9890 0.2455 0.0000
vt 0.6600 0.2836 0.0000
vt 0.6600 0.2455 0.0000
vt 0.7012 0.2836 0.0000
vt 0.7012 0.2455 0.0000
vt 0.7423 0.2836 0.0000
vt 0.7423 0.2455 0.0000
vt 0.4942 0.2426 0.0000
vt 0.4708 0.2425 0.0000
vt 0.4942 0.2535 0.0000
vt 0.4708 0.2535 0.0000
vt 0.4942 0.2644 0.0000
vt 0.4708 0.2645 0.0000
vt 0.4943 0.2753 0.0000
vt 0.4709 0.2755 0.0000
vt 0.4944 0.2862 0.0000
vt 0.4710 0.2865 0.0000
vt -1.0002 0.1857 0.0000
vt -0.0002 0.1857 0.0000
vt -1.0002 0.1874 0.0000
vt -0.0002 0.1874 0.0000
vt -1.0002 0.1890 0.0000
vt -0.0002 0.1890 0.0000
vt -1.0002 0.1907 0.0000
vt -0.0002 0.1907 0.0000
vt -1.0002 0.1923 0.0000
vt -0.0002 0.1923 0.0000
vt -1.0002 0.1939 0.0000
vt -0.0002 0.1939 0.0000
vt -1.0002 0.1956 0.0000
vt -0.0002 0.1956 0.0000
# 366 texture coords

g Mesh_1489
usemtl Material__4552
s 1
f 1/1/1 2/2/1 3/3/1 
s 2
f 3/3/1 4/4/1 1/1/1 
s 3
f 5/5/2 6/6/2 7/7/2 
s 4
f 6/6/2 8/8/2 7/7/2 
s 5
f 9/9/3 10/10/3 11/11/3 
s 6
f 11/11/3 12/12/3 9/9/3 
s 7
f 12/12/3 13/13/3 9/9/3 
s 8
f 14/14/3 9/9/3 13/13/3 
s 9
f 15/15/3 14/14/3 13/13/3 
s 10
f 13/13/3 16/16/3 15/15/3 
s 11
f 16/16/3 17/17/3 15/15/3 
s 12
f 16/16/3 18/18/3 17/17/3 
s 13
f 17/17/3 18/18/3 1/19/3 
s 14
f 1/19/3 4/20/3 17/17/3 
s 15
f 19/21/3 14/14/3 15/15/3 
s 16
f 15/15/3 20/22/3 19/21/3 
s 17
f 21/23/2 16/16/2 13/13/2 
s 18
f 13/13/2 22/24/2 21/23/2 
s 19
f 20/25/1 23/26/1 24/27/1 
s 20
f 24/27/1 19/28/1 20/25/1 
s 21
f 25/29/2 26/30/2 27/31/2 
s 22
f 27/31/2 28/32/2 25/29/2 
s 23
f 29/33/1 30/34/1 31/35/1 
s 24
f 31/35/1 32/36/1 29/33/1 
s 25
f 30/34/4 25/29/4 28/32/5 
s 26
f 28/32/5 31/35/5 30/34/4 
s 27
f 32/36/6 31/35/5 28/32/5 
s 28
f 28/32/5 27/31/6 32/36/6 
s 29
f 32/36/6 27/31/6 26/30/7 
s 30
f 26/30/7 29/33/7 32/36/6 
s 31
f 33/37/2 34/38/2 35/39/2 
s 32
f 35/39/2 36/40/2 33/37/2 
s 33
f 37/41/1 38/42/1 39/43/1 
s 34
f 39/43/1 40/44/1 37/41/1 
s 35
f 38/42/8 33/37/8 36/40/9 
s 36
f 36/40/9 39/43/9 38/42/8 
s 37
f 40/44/10 39/43/9 36/40/9 
s 38
f 36/40/9 35/39/10 40/44/10 
s 39
f 40/44/10 35/39/10 34/38/11 
s 40
f 34/38/11 37/41/11 40/44/10 
s 41
f 41/45/2 42/46/2 43/47/2 
s 42
f 43/47/2 44/48/2 41/45/2 
s 43
f 45/49/1 46/50/1 47/51/1 
s 44
f 47/51/1 48/52/1 45/49/1 
s 45
f 49/53/1 50/54/1 51/55/1 
s 46
f 51/55/1 52/56/1 49/53/1 
s 47
f 4/4/12 3/3/12 53/3/12 
s 48
f 53/3/12 17/4/12 4/4/12 
s 49
f 17/4/1 53/3/1 54/26/1 
s 50
f 54/26/1 15/25/1 17/4/1 
s 51
f 55/57/1 9/58/1 14/28/1 
s 52
f 14/28/1 56/27/1 55/57/1 
s 53
f 57/57/13 10/58/13 9/58/13 
s 54
f 9/58/13 55/57/13 57/57/13 
s 55
f 24/27/12 56/27/12 14/28/12 
s 56
f 14/28/12 19/28/12 24/27/12 
s 57
f 20/25/13 15/25/13 54/26/13 
s 58
f 54/26/13 23/26/13 20/25/13 
s 59
f 58/59/1 11/60/1 10/58/1 
s 60
f 10/58/1 57/57/1 58/59/1 
s 61
f 16/16/13 21/61/13 59/62/13 
s 62
f 59/62/13 18/18/13 16/16/13 
s 63
f 1/19/13 18/18/13 59/62/13 
s 64
f 59/62/13 2/63/13 1/19/13 
s 65
f 53/64/14 3/65/14 2/11/14 
s 66
f 2/11/14 59/12/14 53/64/14 
s 67
f 59/12/14 21/13/14 53/64/14 
s 68
f 54/66/14 53/64/14 21/13/14 
s 69
f 56/67/14 54/66/14 21/13/14 
s 70
f 21/13/14 22/68/14 56/67/14 
s 71
f 22/68/14 55/69/14 56/67/14 
s 72
f 22/68/14 60/70/14 55/69/14 
s 73
f 55/69/14 60/70/14 58/71/14 
s 74
f 58/71/14 57/72/14 55/69/14 
s 75
f 23/73/14 54/66/14 56/67/14 
s 76
f 56/67/14 24/74/14 23/73/14 
s 77
f 22/75/12 13/76/12 12/77/12 
s 78
f 12/77/12 60/78/12 22/75/12 
s 79
f 58/79/12 60/78/12 12/77/12 
s 80
f 12/77/12 11/80/12 58/79/12 
s 81
f 50/54/15 5/5/15 7/7/16 
s 82
f 7/7/16 51/55/16 50/54/15 
s 83
f 52/56/17 51/55/16 7/7/16 
s 84
f 7/7/16 8/8/17 52/56/17 
s 85
f 52/56/17 8/8/17 6/6/18 
s 86
f 6/6/18 49/53/18 52/56/17 
s 87
f 46/50/8 41/45/8 44/48/9 
s 88
f 44/48/9 47/51/9 46/50/8 
s 89
f 48/52/10 47/51/9 44/48/9 
s 90
f 44/48/9 43/47/10 48/52/10 
s 91
f 48/52/10 43/47/10 42/46/19 
s 92
f 42/46/19 45/49/19 48/52/10 
s 1
f 61/81/20 62/82/20 63/83/20 
s 2
f 64/84/20 63/83/20 62/82/20 
s 3
f 65/85/3 66/86/3 67/87/3 
s 4
f 68/88/3 67/87/3 69/89/3 
s 5
f 69/89/3 67/87/3 70/90/3 
s 6
f 67/87/3 66/86/3 70/90/3 
s 7
f 70/90/3 66/86/3 71/91/3 
s 8
f 72/92/3 69/89/3 70/90/3 
s 9
f 73/93/14 74/94/14 75/95/14 
s 10
f 76/96/14 77/97/14 73/93/14 
s 11
f 77/97/14 78/98/14 73/93/14 
s 12
f 78/98/14 74/94/14 73/93/14 
s 13
f 79/99/14 74/94/14 78/98/14 
s 14
f 80/100/14 78/98/14 77/97/14 
s 15
f 81/101/21 82/102/22 83/103/23 
s 16
f 84/104/24 85/105/25 86/106/26 
s 17
f 87/107/27 86/106/26 85/105/25 
s 18
f 85/105/25 88/108/28 87/107/27 
s 19
f 81/101/21 87/107/27 88/108/28 
s 20
f 88/108/28 89/109/29 81/101/21 
s 21
f 82/102/22 81/101/21 89/109/29 
s 22
f 89/109/29 90/110/30 82/102/22 
s 23
f 91/111/31 82/102/22 90/110/30 
s 24
f 90/110/30 92/112/32 91/111/31 
s 25
f 93/113/33 91/111/31 92/112/32 
s 26
f 94/114/34 95/115/35 96/116/36 
s 27
f 97/117/37 96/116/36 95/115/35 
s 28
f 96/116/36 97/117/37 83/103/23 
s 29
f 98/118/38 83/103/23 97/117/37 
s 30
f 83/103/23 98/118/38 81/101/21 
s 31
f 87/107/27 81/101/21 98/118/38 
s 32
f 98/118/38 99/119/39 87/107/27 
s 33
f 86/106/26 87/107/27 99/119/39 
s 34
f 99/119/39 100/120/40 86/106/26 
s 35
f 101/121/41 86/106/26 100/120/40 
s 36
f 95/115/35 102/122/42 97/117/37 
s 37
f 103/123/43 97/117/37 102/122/42 
s 38
f 97/117/37 103/123/43 98/118/38 
s 39
f 99/119/39 98/118/38 103/123/43 
s 40
f 103/123/43 104/124/44 99/119/39 
s 41
f 100/120/40 99/119/39 104/124/44 
s 42
f 104/124/44 105/125/45 100/120/40 
s 43
f 106/126/46 100/120/40 105/125/45 
s 44
f 105/125/45 107/127/47 106/126/46 
s 45
f 107/127/47 105/125/45 108/128/48 
s 46
f 102/122/42 109/129/49 103/123/43 
s 47
f 104/124/44 103/123/43 109/129/49 
s 48
f 109/129/49 110/130/50 104/124/44 
s 49
f 105/125/45 104/124/44 110/130/50 
s 50
f 110/130/50 108/128/48 105/125/45 
s 51
f 108/128/48 111/131/51 107/127/47 
s 52
f 111/131/51 108/128/48 112/132/52 
s 53
f 113/133/53 112/132/52 108/128/48 
s 54
f 108/128/48 110/130/50 113/133/53 
s 55
f 114/134/54 113/133/53 110/130/50 
s 56
f 110/130/50 109/129/49 114/134/54 
s 57
f 115/135/55 114/134/54 109/129/49 
s 58
f 109/129/49 102/122/42 115/135/55 
s 59
f 116/136/56 115/135/55 102/122/42 
s 60
f 102/122/42 95/115/35 116/136/56 
s 61
f 117/137/57 118/138/58 112/132/52 
s 62
f 112/132/52 113/133/53 117/137/57 
s 63
f 119/139/59 117/137/57 113/133/53 
s 64
f 113/133/60 114/134/54 119/139/59 
s 65
f 120/140/61 119/139/59 114/134/54 
s 66
f 114/134/54 115/135/55 120/140/61 
s 67
f 121/141/62 120/140/61 115/135/55 
s 68
f 115/135/55 116/136/56 121/141/62 
s 69
f 84/142/63 121/141/62 116/136/56 
s 70
f 116/136/56 122/143/64 84/142/63 
s 71
f 122/143/64 116/136/56 95/115/35 
s 72
f 95/115/35 94/114/34 122/143/64 
s 73
f 123/144/65 122/143/64 94/114/34 
s 74
f 94/114/34 124/145/66 123/144/65 
s 75
f 125/146/67 123/144/65 124/145/66 
s 76
f 124/145/66 126/147/68 125/146/67 
s 77
f 127/148/69 125/146/67 126/147/68 
s 78
f 126/147/68 128/149/70 127/148/69 
s 79
f 129/150/71 127/148/69 128/149/70 
s 80
f 85/151/72 84/142/63 122/143/64 
s 81
f 122/143/64 123/144/65 85/151/72 
s 82
f 88/152/73 85/151/72 123/144/65 
s 83
f 123/144/65 125/146/67 88/152/73 
s 84
f 89/153/74 88/152/73 125/146/67 
s 85
f 125/146/67 127/148/69 89/153/74 
s 86
f 90/154/75 89/153/74 127/148/69 
s 87
f 127/148/69 129/150/71 90/154/75 
s 88
f 92/155/76 90/154/75 129/150/71 
s 89
f 92/112/32 130/156/77 93/113/33 
s 90
f 131/157/78 93/113/33 130/156/77 
s 91
f 93/113/33 131/157/78 132/158/79 
s 92
f 133/159/80 132/158/79 131/157/78 
s 93
f 132/158/79 133/159/80 134/160/81 
s 94
f 135/161/82 134/160/81 133/159/80 
s 95
f 134/160/81 135/161/82 128/149/70 
s 96
f 136/162/83 128/149/70 135/161/82 
s 97
f 128/149/70 136/162/83 129/150/71 
s 98
f 137/163/84 129/150/71 136/162/83 
s 99
f 129/150/71 137/163/84 92/155/76 
s 100
f 130/164/85 92/155/76 137/163/84 
s 101
f 134/160/81 138/165/86 132/158/79 
s 102
f 139/166/87 132/158/79 138/165/86 
s 103
f 138/165/86 140/167/88 139/166/87 
s 104
f 141/168/89 139/166/87 140/167/88 
s 105
f 132/158/79 139/166/87 93/113/33 
s 106
f 91/111/31 93/113/33 139/166/87 
s 107
f 139/166/87 141/168/89 91/111/31 
s 108
f 82/102/22 91/111/31 141/168/89 
s 109
f 141/168/89 83/103/23 82/102/22 
s 110
f 83/103/23 141/168/89 96/116/36 
s 111
f 140/167/88 96/116/36 141/168/89 
s 112
f 96/116/36 140/167/88 94/114/34 
s 113
f 124/145/66 94/114/34 140/167/88 
s 114
f 140/167/88 138/165/86 124/145/66 
s 115
f 126/147/68 124/145/66 138/165/86 
s 116
f 138/165/86 134/160/81 126/147/68 
s 117
f 128/149/70 126/147/68 134/160/81 
s 118
f 118/169/90 117/170/91 142/171/92 
s 119
f 142/171/92 143/172/93 144/173/94 
s 120
f 143/172/93 142/171/92 117/170/91 
s 121
f 117/170/91 119/174/91 143/172/93 
s 122
f 144/173/94 145/175/95 146/176/96 
s 123
f 145/175/95 144/173/94 143/172/93 
s 124
f 143/172/93 147/177/97 145/175/95 
s 125
f 147/177/97 143/172/93 119/174/91 
s 126
f 119/174/91 120/178/98 147/177/97 
s 127
f 146/176/96 148/179/99 149/180/100 
s 128
f 148/179/99 146/176/101 145/175/95 
s 129
f 145/175/95 150/181/102 148/179/99 
s 130
f 150/181/102 145/175/95 147/177/97 
s 131
f 147/177/97 151/182/103 150/181/102 
s 132
f 151/182/103 147/177/97 120/178/98 
s 133
f 120/178/98 121/183/104 151/182/103 
s 134
f 101/121/41 151/182/103 121/183/104 
s 135
f 121/183/104 84/104/105 101/121/41 
s 136
f 86/106/105 101/121/41 84/104/105 
s 137
f 100/120/40 106/126/46 101/121/41 
s 138
f 151/182/103 101/121/41 106/126/46 
s 139
f 106/126/46 150/181/102 151/182/103 
s 140
f 150/181/102 106/126/46 107/127/47 
s 141
f 107/127/47 148/179/99 150/181/102 
s 142
f 148/179/99 107/127/47 111/131/51 
s 143
f 111/131/51 149/180/100 148/179/99 
s 144
f 149/180/100 111/131/51 152/184/106 
s 145
f 112/132/52 152/184/106 111/131/51 
s 146
f 152/184/106 112/132/52 118/138/58 
s 147
f 153/185/107 154/186/108 155/187/109 
s 148
f 156/188/110 155/187/109 154/186/108 
s 149
f 155/187/109 156/188/110 157/189/111 
s 150
f 158/190/112 157/189/111 156/188/110 
s 151
f 157/189/111 158/190/112 159/191/113 
s 152
f 160/192/114 159/191/113 158/190/112 
s 153
f 159/193/115 160/194/115 161/195/116 
s 154
f 162/196/117 161/195/116 160/194/115 
s 155
f 161/195/116 162/196/117 163/197/118 
s 156
f 164/198/119 163/197/118 162/196/117 
s 157
f 163/197/118 164/198/119 165/199/120 
s 158
f 166/200/121 165/199/120 164/198/119 
s 159
f 165/199/120 166/200/121 167/201/122 
s 160
f 168/202/123 167/201/122 166/200/121 
s 161
f 167/201/122 168/202/123 153/185/107 
s 162
f 154/186/108 153/185/107 168/202/123 
s 163
f 169/203/14 153/204/14 170/205/14 
s 164
f 153/204/14 169/203/14 167/206/14 
s 165
f 171/207/14 167/206/14 169/203/14 
s 166
f 167/206/14 171/207/14 165/208/14 
s 167
f 172/209/14 165/208/14 171/207/14 
s 168
f 165/208/14 172/209/14 163/210/14 
s 169
f 173/211/14 163/210/14 172/209/14 
s 170
f 163/210/14 173/211/14 161/212/14 
s 171
f 174/213/14 161/212/14 173/211/14 
s 172
f 161/212/14 174/213/14 159/214/14 
s 173
f 175/215/14 159/214/14 174/213/14 
s 174
f 159/214/14 175/215/14 157/216/14 
s 175
f 176/217/14 157/216/14 175/215/14 
s 176
f 157/216/14 176/217/14 155/218/14 
s 177
f 170/205/14 155/218/14 176/217/14 
s 178
f 155/218/14 170/205/14 153/204/14 
s 179
f 67/200/124 68/198/125 177/199/126 
s 180
f 178/197/127 177/199/126 68/198/125 
s 181
f 68/198/125 69/196/128 178/197/127 
s 182
f 179/195/129 178/197/127 69/196/128 
s 183
f 69/196/128 72/194/130 179/195/129 
s 184
f 180/193/130 179/195/129 72/194/130 
s 185
f 72/192/131 70/190/132 180/191/133 
s 186
f 181/189/134 180/191/133 70/190/132 
s 187
f 70/190/132 71/188/135 181/189/134 
s 188
f 182/187/136 181/189/134 71/188/135 
s 189
f 71/188/135 66/186/137 182/187/136 
s 190
f 183/185/138 182/187/136 66/186/137 
s 191
f 66/186/137 65/202/139 183/185/138 
s 192
f 184/201/140 183/185/138 65/202/139 
s 193
f 65/202/139 67/200/124 184/201/140 
s 194
f 177/199/126 184/201/140 67/200/124 
s 195
f 179/212/3 180/214/3 185/213/3 
s 196
f 186/215/3 185/213/3 180/214/3 
s 197
f 180/214/3 181/216/3 186/215/3 
s 198
f 187/217/3 186/215/3 181/216/3 
s 199
f 181/216/3 182/218/3 187/217/3 
s 200
f 188/205/3 187/217/3 182/218/3 
s 201
f 182/218/3 183/204/3 188/205/3 
s 202
f 189/203/3 188/205/3 183/204/3 
s 203
f 183/204/3 184/206/3 189/203/3 
s 204
f 190/207/3 189/203/3 184/206/3 
s 205
f 184/206/3 177/208/3 190/207/3 
s 206
f 191/209/3 190/207/3 177/208/3 
s 207
f 177/208/3 178/210/3 191/209/3 
s 208
f 192/211/3 191/209/3 178/210/3 
s 209
f 178/210/3 179/212/3 192/211/3 
s 210
f 185/213/3 192/211/3 179/212/3 
s 211
f 189/219/141 190/220/142 193/221/143 
s 212
f 194/222/144 193/221/143 190/220/142 
s 213
f 190/220/142 191/223/145 194/222/144 
s 214
f 195/224/146 194/222/144 191/223/145 
s 215
f 191/223/145 192/225/147 195/224/146 
s 216
f 196/226/148 195/224/146 192/225/147 
s 217
f 192/227/149 185/228/150 196/229/149 
s 218
f 197/230/151 196/229/149 185/228/150 
s 219
f 185/228/150 186/231/152 197/230/151 
s 220
f 198/232/153 197/230/151 186/231/152 
s 221
f 186/231/152 187/233/154 198/232/153 
s 222
f 199/234/154 198/232/153 187/233/154 
s 223
f 187/233/154 188/235/155 199/234/154 
s 224
f 200/236/156 199/234/154 188/235/155 
s 225
f 188/235/155 189/219/141 200/236/156 
s 226
f 193/221/143 200/236/156 189/219/141 
s 227
f 197/237/3 198/238/3 201/99/3 
s 228
f 202/94/3 201/99/3 198/238/3 
s 229
f 198/238/3 199/239/3 202/94/3 
s 230
f 203/95/3 202/94/3 199/239/3 
s 231
f 199/239/3 200/240/3 203/95/3 
s 232
f 204/93/3 203/95/3 200/240/3 
s 233
f 200/240/3 193/241/3 204/93/3 
s 234
f 205/96/3 204/93/3 193/241/3 
s 235
f 193/241/3 194/242/3 205/96/3 
s 236
f 206/97/3 205/96/3 194/242/3 
s 237
f 194/242/3 195/243/3 206/97/3 
s 238
f 207/100/3 206/97/3 195/243/3 
s 239
f 195/243/3 196/244/3 207/100/3 
s 240
f 208/98/3 207/100/3 196/244/3 
s 241
f 196/244/3 197/237/3 208/98/3 
s 242
f 201/99/3 208/98/3 197/237/3 
s 243
f 209/245/157 210/246/157 211/247/158 
s 244
f 212/248/158 211/247/158 210/246/157 
s 245
f 211/247/158 212/248/158 213/249/159 
s 246
f 214/250/160 213/249/159 212/248/158 
s 247
f 213/249/159 214/250/160 215/251/161 
s 248
f 216/252/162 215/251/161 214/250/160 
s 249
f 215/251/161 216/252/162 217/253/163 
s 250
f 218/254/163 217/253/163 216/252/162 
s 251
f 217/253/163 218/254/163 219/255/164 
s 252
f 220/256/165 219/255/164 218/254/163 
s 253
f 219/255/164 220/256/165 209/257/14 
s 254
f 210/258/14 209/257/14 220/256/165 
s 255
f 221/234/166 176/233/166 222/232/167 
s 256
f 175/231/168 222/232/167 176/233/166 
s 257
f 222/232/167 175/231/168 223/230/169 
s 258
f 174/228/170 223/230/169 175/231/168 
s 259
f 223/230/169 174/228/170 224/229/171 
s 260
f 173/227/171 224/229/171 174/228/170 
s 261
f 224/226/172 173/225/173 225/224/174 
s 262
f 172/223/175 225/224/174 173/225/173 
s 263
f 225/224/174 172/223/175 226/222/176 
s 264
f 171/220/177 226/222/176 172/223/175 
s 265
f 226/222/176 171/220/177 227/221/178 
s 266
f 169/219/179 227/221/178 171/220/177 
s 267
f 227/221/178 169/219/179 228/236/180 
s 268
f 170/235/181 228/236/180 169/219/179 
s 269
f 228/236/180 170/235/181 221/234/166 
s 270
f 176/233/166 221/234/166 170/235/181 
s 271
f 229/96/14 227/241/14 230/93/14 
s 272
f 227/241/14 229/96/14 226/242/14 
s 273
f 231/97/14 226/242/14 229/96/14 
s 274
f 226/242/14 231/97/14 225/243/14 
s 275
f 232/100/14 225/243/14 231/97/14 
s 276
f 225/243/14 232/100/14 224/244/14 
s 277
f 233/98/14 224/244/14 232/100/14 
s 278
f 224/244/14 233/98/14 223/237/14 
s 279
f 234/99/14 223/237/14 233/98/14 
s 280
f 223/237/14 234/99/14 222/238/14 
s 281
f 235/94/14 222/238/14 234/99/14 
s 282
f 222/238/14 235/94/14 221/239/14 
s 283
f 236/95/14 221/239/14 235/94/14 
s 284
f 221/239/14 236/95/14 228/240/14 
s 285
f 230/93/14 228/240/14 236/95/14 
s 286
f 228/240/14 230/93/14 227/241/14 
s 287
f 133/259/182 136/260/183 135/261/183 
s 288
f 136/260/183 133/259/182 137/262/182 
s 289
f 130/263/184 137/262/182 133/259/182 
s 290
f 133/259/182 131/264/184 130/263/184 
s 291
f 146/264/185 149/263/185 144/259/186 
s 292
f 149/263/185 152/262/186 144/259/186 
s 293
f 152/262/186 118/260/187 144/259/186 
s 294
f 144/259/186 118/260/187 142/261/187 
s 295
f 237/265/188 238/266/189 239/267/190 
s 296
f 240/268/191 239/267/190 238/266/189 
s 297
f 239/267/192 240/268/192 241/269/192 
s 298
f 242/270/192 241/269/192 240/268/192 
s 299
f 243/271/193 244/272/193 237/265/193 
s 300
f 238/266/193 237/265/193 244/272/193 
s 301
f 245/273/194 246/274/194 247/275/195 
s 302
f 248/276/195 247/275/195 246/274/194 
s 303
f 247/275/196 248/276/196 249/277/196 
s 304
f 250/278/196 249/277/196 248/276/196 
s 305
f 251/279/197 252/280/197 245/273/197 
s 306
f 246/274/197 245/273/197 252/280/197 
s 307
f 241/281/14 242/282/14 251/283/14 
s 308
f 252/284/14 251/283/14 242/282/14 
s 309
f 249/285/14 250/286/14 243/287/14 
s 310
f 244/288/14 243/287/14 250/286/14 
s 311
f 239/289/14 245/290/14 237/291/14 
s 312
f 247/292/14 237/291/14 245/290/14 
s 313
f 251/283/24 245/290/24 241/281/24 
s 314
f 239/289/24 241/281/24 245/290/24 
s 315
f 237/289/198 247/290/198 243/281/198 
s 316
f 249/283/198 243/281/198 247/290/198 
s 317
f 240/268/3 238/266/3 246/274/3 
s 318
f 248/276/3 246/274/3 238/266/3 
s 319
f 252/284/198 242/282/198 246/274/198 
s 320
f 240/268/198 246/274/198 242/282/198 
s 321
f 238/293/24 244/288/24 248/294/24 
s 322
f 250/286/24 248/294/24 244/288/24 
s 323
f 253/295/3 254/296/3 255/297/3 
s 324
f 256/83/3 255/297/3 254/296/3 
s 325
f 257/83/3 258/296/3 61/297/3 
s 326
f 62/295/3 61/297/3 258/296/3 
s 327
f 259/298/199 260/299/199 261/300/199 
s 328
f 262/301/199 261/300/199 260/299/199 
s 329
f 255/82/200 263/84/200 253/81/200 
s 330
f 264/83/200 253/81/200 263/84/200 
s 331
f 265/83/201 256/81/201 266/84/201 
s 332
f 254/82/201 266/84/201 256/81/201 
s 333
f 267/84/202 257/82/202 63/296/202 
s 334
f 61/302/202 63/296/202 257/82/202 
s 335
f 256/84/203 265/82/203 255/296/203 
s 336
f 263/302/203 255/296/203 265/82/203 
s 337
f 268/83/24 258/81/24 267/84/24 
s 338
f 257/82/24 267/84/24 258/81/24 
s 339
f 269/268/204 270/266/205 271/267/206 
s 340
f 272/265/207 271/267/206 270/266/205 
s 341
f 273/270/192 269/268/192 274/269/192 
s 342
f 271/267/192 274/269/192 269/268/192 
s 343
f 270/266/193 275/272/193 272/265/193 
s 344
f 276/271/193 272/265/193 275/272/193 
s 345
f 277/276/208 278/274/209 279/275/208 
s 346
f 280/273/209 279/275/208 278/274/209 
s 347
f 281/278/196 277/276/196 282/277/196 
s 348
f 279/275/196 282/277/196 277/276/196 
s 349
f 278/274/197 283/280/197 280/273/197 
s 350
f 284/279/197 280/273/197 283/280/197 
s 351
f 283/284/3 273/282/3 284/283/3 
s 352
f 274/281/3 284/283/3 273/282/3 
s 353
f 275/288/3 281/286/3 276/287/3 
s 354
f 282/285/3 276/287/3 281/286/3 
s 355
f 279/292/3 280/290/3 272/291/3 
s 356
f 271/289/3 272/291/3 280/290/3 
s 357
f 271/289/24 280/290/24 274/281/24 
s 358
f 284/283/24 274/281/24 280/290/24 
s 359
f 282/283/198 279/290/198 276/281/198 
s 360
f 272/289/198 276/281/198 279/290/198 
s 361
f 277/276/14 270/266/14 278/274/14 
s 362
f 269/268/14 278/274/14 270/266/14 
s 363
f 269/268/198 273/282/198 278/274/198 
s 364
f 283/284/198 278/274/198 273/282/198 
s 365
f 281/286/24 275/288/24 277/294/24 
s 366
f 270/293/24 277/294/24 275/288/24 
s 367
f 285/303/198 286/304/198 287/305/198 
s 368
f 288/306/198 287/305/198 286/304/198 
s 369
f 288/306/198 286/304/198 289/307/198 
s 370
f 290/308/198 289/307/198 286/304/198 
s 371
f 289/307/198 290/308/198 260/309/198 
s 372
f 262/310/198 260/309/198 290/308/198 
s 373
f 291/300/198 292/311/198 293/298/198 
s 374
f 294/312/198 293/298/198 292/311/198 
s 375
f 294/312/198 292/311/198 295/313/198 
s 376
f 296/314/198 295/313/198 292/311/198 
s 377
f 296/314/198 297/315/198 295/313/198 
s 378
f 298/316/198 295/313/198 297/315/198 
s 379
f 297/315/198 299/317/198 298/316/198 
s 380
f 300/318/198 298/316/198 299/317/198 
s 381
f 300/318/198 299/317/198 287/305/198 
s 382
f 285/303/198 287/305/198 299/317/198 
s 383
f 265/83/14 266/296/14 263/297/14 
s 384
f 264/295/14 263/297/14 266/296/14 
s 385
f 64/295/14 268/296/14 63/297/14 
s 386
f 267/83/14 63/297/14 268/296/14 
s 387
f 301/299/210 302/301/210 293/298/210 
s 388
f 291/300/210 293/298/210 302/301/210 
s 389
f 301/309/24 303/307/24 302/310/24 
s 390
f 304/308/24 302/310/24 303/307/24 
s 391
f 303/307/24 305/306/24 304/308/24 
s 392
f 306/304/24 304/308/24 305/306/24 
s 393
f 306/304/24 305/306/24 307/303/24 
s 394
f 308/305/24 307/303/24 305/306/24 
s 395
f 308/305/24 309/318/24 307/303/24 
s 396
f 310/317/24 307/303/24 309/318/24 
s 397
f 310/317/24 309/318/24 311/315/24 
s 398
f 312/316/24 311/315/24 309/318/24 
s 399
f 311/315/24 312/316/24 313/314/24 
s 400
f 314/313/24 313/314/24 312/316/24 
s 401
f 314/313/24 315/312/24 313/314/24 
s 402
f 316/311/24 313/314/24 315/312/24 
s 403
f 316/311/24 315/312/24 261/300/24 
s 404
f 259/298/24 261/300/24 315/312/24 
s 405
f 154/86/14 158/90/14 156/91/14 
s 406
f 168/85/14 166/87/14 154/86/14 
s 407
f 166/87/14 158/90/14 154/86/14 
s 408
f 162/89/14 158/90/14 166/87/14 
s 409
f 160/92/14 158/90/14 162/89/14 
s 410
f 164/88/14 162/89/14 166/87/14 
s 411
f 317/94/3 318/93/3 319/95/3 
s 412
f 320/99/3 321/98/3 317/94/3 
s 413
f 321/98/3 318/93/3 317/94/3 
s 414
f 322/97/3 318/93/3 321/98/3 
s 415
f 323/96/3 318/93/3 322/97/3 
s 416
f 324/100/3 322/97/3 321/98/3 
s 417
f 325/173/211 326/176/100 327/175/212 
s 418
f 328/181/213 329/127/48 330/126/214 
s 419
f 329/127/48 328/181/213 331/179/215 
s 420
f 327/175/212 331/179/215 328/181/213 
s 421
f 331/179/215 327/175/212 326/176/100 
s 422
f 326/176/100 332/180/216 331/179/215 
s 423
f 332/180/216 333/184/217 334/131/218 
s 424
f 334/131/218 331/179/215 332/180/216 
s 425
f 331/179/215 334/131/218 329/127/48 
s 426
f 335/171/219 325/173/211 336/172/220 
s 427
f 327/175/212 336/172/220 325/173/211 
s 428
f 336/172/220 327/175/212 337/177/221 
s 429
f 328/181/213 337/177/221 327/175/212 
s 430
f 337/177/221 328/181/213 338/182/222 
s 431
f 330/126/214 338/182/222 328/181/213 
s 432
f 338/182/222 330/126/214 339/121/223 
s 433
f 340/120/224 339/121/223 330/126/214 
s 434
f 339/121/223 340/120/224 341/106/225 
s 435
f 342/119/226 341/106/225 340/120/224 
s 436
f 343/107/227 344/105/25 341/106/225 
s 437
f 345/104/228 341/106/225 344/105/25 
s 438
f 341/106/225 345/104/228 339/121/223 
s 439
f 346/183/104 339/121/223 345/104/228 
s 440
f 339/121/223 346/183/104 338/182/222 
s 441
f 347/178/98 338/182/222 346/183/104 
s 442
f 338/182/222 347/178/98 337/177/221 
s 443
f 348/174/91 337/177/221 347/178/98 
s 444
f 337/177/221 348/174/91 336/172/220 
s 445
f 349/170/91 336/172/220 348/174/91 
s 446
f 336/172/220 349/170/91 335/171/219 
s 447
f 350/169/90 335/171/219 349/170/91 
s 448
f 351/319/229 352/320/229 353/321/230 
s 449
f 354/322/231 353/321/230 352/320/229 
s 450
f 353/321/230 354/322/231 355/323/232 
s 451
f 356/324/233 355/323/232 354/322/231 
s 452
f 355/323/232 356/324/233 357/325/198 
s 453
f 358/326/234 357/325/198 356/324/233 
s 454
f 357/325/198 358/326/234 359/327/235 
s 455
f 360/328/236 359/327/235 358/326/234 
s 456
f 359/327/235 360/328/236 361/329/237 
s 457
f 362/330/238 361/329/237 360/328/236 
s 458
f 361/329/237 362/330/238 351/331/239 
s 459
f 352/332/239 351/331/239 362/330/238 
s 460
f 324/234/240 232/233/240 322/232/241 
s 461
f 231/231/241 322/232/241 232/233/240 
s 462
f 322/232/241 231/231/241 323/333/242 
s 463
f 229/334/242 323/333/242 231/231/241 
s 464
f 323/333/242 229/334/242 318/335/243 
s 465
f 230/336/243 318/335/243 229/334/242 
s 466
f 318/337/244 230/338/244 319/339/245 
s 467
f 236/340/245 319/339/245 230/338/244 
s 468
f 319/339/245 236/340/245 317/341/246 
s 469
f 235/342/246 317/341/246 236/340/245 
s 470
f 317/341/246 235/342/246 320/221/247 
s 471
f 234/219/247 320/221/247 235/342/246 
s 472
f 320/221/247 234/219/247 321/236/248 
s 473
f 233/235/248 321/236/248 234/219/247 
s 474
f 321/236/248 233/235/248 324/234/240 
s 475
f 232/233/240 324/234/240 233/235/248 
s 476
f 363/343/249 364/344/250 365/345/251 
s 477
f 366/346/252 365/345/251 364/344/250 
s 478
f 365/345/251 366/346/252 367/347/253 
s 479
f 368/348/254 367/347/253 366/346/252 
s 480
f 367/347/253 368/348/254 369/349/255 
s 481
f 370/350/256 369/349/255 368/348/254 
s 482
f 369/349/255 370/350/256 363/351/257 
s 483
f 364/352/258 363/351/257 370/350/256 
s 484
f 371/129/44 372/124/49 373/130/45 
s 485
f 374/125/50 373/130/45 372/124/49 
s 486
f 373/130/45 374/125/50 375/128/47 
s 487
f 375/128/47 376/133/102 373/130/45 
s 488
f 376/133/102 375/128/47 377/132/259 
s 489
f 349/137/260 377/132/259 350/138/261 
s 490
f 333/184/217 350/138/261 377/132/259 
s 491
f 377/132/259 334/131/218 333/184/217 
s 492
f 334/131/218 377/132/259 375/128/47 
s 493
f 375/128/47 329/127/48 334/131/218 
s 494
f 329/127/48 375/128/47 374/125/50 
s 495
f 374/125/50 330/126/214 329/127/48 
s 496
f 330/126/214 374/125/50 340/120/224 
s 497
f 372/124/49 340/120/224 374/125/50 
s 498
f 340/120/224 372/124/49 342/119/226 
s 499
f 378/123/262 342/119/226 372/124/49 
s 500
f 342/119/226 378/123/262 379/118/64 
s 501
f 380/117/35 379/118/64 378/123/262 
s 502
f 379/118/64 380/117/35 381/103/263 
s 503
f 382/116/264 381/103/263 380/117/35 
s 504
f 381/103/263 382/116/264 383/168/67 
s 505
f 384/167/66 383/168/67 382/116/264 
s 506
f 382/116/264 385/114/265 384/167/66 
s 507
f 386/145/88 384/167/66 385/114/265 
s 508
f 385/114/265 387/144/266 386/145/88 
s 509
f 388/146/89 386/145/88 387/144/266 
s 510
f 387/144/266 389/152/267 388/146/89 
s 511
f 390/153/268 388/146/89 389/152/267 
s 512
f 384/167/66 386/145/88 391/165/68 
s 513
f 392/147/86 391/165/68 386/145/88 
s 514
f 386/145/88 388/146/89 392/147/86 
s 515
f 393/148/87 392/147/86 388/146/89 
s 516
f 388/146/89 390/153/268 393/148/87 
s 517
f 394/154/269 393/148/87 390/153/268 
s 518
f 395/164/270 396/163/271 397/155/272 
s 519
f 398/150/79 397/155/272 396/163/271 
s 520
f 397/155/272 398/150/79 394/154/269 
s 521
f 393/148/87 394/154/269 398/150/79 
s 522
f 398/150/79 399/149/81 393/148/87 
s 523
f 392/147/86 393/148/87 399/149/81 
s 524
f 399/149/81 400/160/70 392/147/86 
s 525
f 391/165/68 392/147/86 400/160/70 
s 526
f 400/160/70 401/158/71 391/165/68 
s 527
f 402/166/69 391/165/68 401/158/71 
s 528
f 397/112/32 403/113/273 395/156/77 
s 529
f 404/157/274 395/156/77 403/113/273 
s 530
f 403/113/273 401/158/71 404/157/274 
s 531
f 405/159/275 404/157/274 401/158/71 
s 532
f 401/158/71 400/160/70 405/159/275 
s 533
f 406/161/276 405/159/275 400/160/70 
s 534
f 400/160/70 399/149/81 406/161/276 
s 535
f 407/162/277 406/161/276 399/149/81 
s 536
f 399/149/81 398/150/79 407/162/277 
s 537
f 396/163/271 407/162/277 398/150/79 
s 538
f 401/158/71 403/113/273 402/166/69 
s 539
f 408/111/278 402/166/69 403/113/273 
s 540
f 403/113/273 397/112/32 408/111/278 
s 541
f 394/110/30 408/111/278 397/112/32 
s 542
f 408/111/278 394/110/30 409/102/279 
s 543
f 390/109/29 409/102/279 394/110/30 
s 544
f 409/102/279 390/109/29 410/101/280 
s 545
f 389/108/28 410/101/280 390/109/29 
s 546
f 410/101/280 389/108/28 343/107/227 
s 547
f 344/105/25 343/107/227 389/108/28 
s 548
f 341/106/225 342/119/226 343/107/227 
s 549
f 379/118/64 343/107/227 342/119/226 
s 550
f 343/107/227 379/118/64 410/101/280 
s 551
f 381/103/263 410/101/280 379/118/64 
s 552
f 410/101/280 381/103/263 409/102/279 
s 553
f 383/168/67 409/102/279 381/103/263 
s 554
f 409/102/279 383/168/67 408/111/278 
s 555
f 402/166/69 408/111/278 383/168/67 
s 556
f 383/168/67 384/167/66 402/166/69 
s 557
f 391/165/68 402/166/69 384/167/66 
s 558
f 344/151/281 411/143/38 345/142/282 
s 559
f 412/136/283 345/142/282 411/143/38 
s 560
f 345/142/282 412/136/283 346/141/284 
s 561
f 413/135/285 346/141/284 412/136/283 
s 562
f 346/141/284 413/135/285 347/140/286 
s 563
f 414/134/287 347/140/286 413/135/285 
s 564
f 347/140/286 414/134/287 348/139/288 
s 565
f 376/133/102 348/139/288 414/134/287 
s 566
f 348/139/288 376/133/102 349/137/260 
s 567
f 377/132/259 349/137/260 376/133/102 
s 568
f 411/143/38 415/115/37 412/136/283 
s 569
f 416/122/289 412/136/283 415/115/37 
s 570
f 412/136/283 416/122/289 413/135/285 
s 571
f 371/129/44 413/135/285 416/122/289 
s 572
f 413/135/285 371/129/44 414/134/287 
s 573
f 373/130/45 414/134/287 371/129/44 
s 574
f 414/134/287 373/130/45 376/133/102 
s 575
f 389/152/267 387/144/266 344/151/281 
s 576
f 411/143/38 344/151/281 387/144/266 
s 577
f 387/144/266 385/114/265 411/143/38 
s 578
f 415/115/37 411/143/38 385/114/265 
s 579
f 385/114/265 382/116/264 415/115/37 
s 580
f 380/117/35 415/115/37 382/116/264 
s 581
f 415/115/37 380/117/35 416/122/289 
s 582
f 378/123/262 416/122/289 380/117/35 
s 583
f 416/122/289 378/123/262 371/129/44 
s 584
f 372/124/49 371/129/44 378/123/262 
s 585
f 254/82/290 253/302/290 266/84/290 
s 586
f 264/296/290 266/84/290 253/302/290 
s 587
f 258/84/291 268/82/291 62/296/291 
s 588
f 64/302/291 62/296/291 268/82/291 
s 589
f 201/219/247 202/342/246 79/221/247 
s 590
f 74/341/246 79/221/247 202/342/246 
s 591
f 202/342/246 203/340/245 74/341/246 
s 592
f 75/339/245 74/341/246 203/340/245 
s 593
f 203/340/245 204/338/244 75/339/245 
s 594
f 73/337/244 75/339/245 204/338/244 
s 595
f 204/336/243 205/334/242 73/335/243 
s 596
f 76/333/242 73/335/243 205/334/242 
s 597
f 205/334/242 206/231/241 76/333/242 
s 598
f 77/232/241 76/333/242 206/231/241 
s 599
f 206/231/241 207/233/240 77/232/241 
s 600
f 80/234/240 77/232/241 207/233/240 
s 601
f 207/233/240 208/235/248 80/234/240 
s 602
f 78/236/248 80/234/240 208/235/248 
s 603
f 208/235/248 201/219/247 78/236/248 
s 604
f 79/221/247 78/236/248 201/219/247 
s 605
f 417/261/292 418/262/293 419/260/294 
s 606
f 418/262/293 417/261/292 420/263/295 
s 607
f 421/264/295 420/263/295 417/261/292 
s 608
f 417/261/292 422/259/296 421/264/295 
s 609
f 417/353/297 423/354/298 422/355/158 
s 610
f 424/356/158 422/355/158 423/354/298 
s 611
f 422/355/158 424/356/158 421/357/299 
s 612
f 425/358/300 421/357/299 424/356/158 
s 613
f 421/357/299 425/358/300 420/359/301 
s 614
f 426/360/302 420/359/301 425/358/300 
s 615
f 420/359/301 426/360/302 418/361/163 
s 616
f 427/362/163 418/361/163 426/360/302 
s 617
f 418/361/163 427/362/163 419/363/303 
s 618
f 428/364/165 419/363/303 427/362/163 
s 619
f 419/363/303 428/364/165 417/365/14 
s 620
f 423/366/14 417/365/14 428/364/165 
s 621
f 429/258/3 430/256/304 431/257/3 
s 622
f 432/255/305 431/257/3 430/256/304 
s 623
f 430/256/304 433/254/163 432/255/305 
s 624
f 434/253/163 432/255/305 433/254/163 
s 625
f 433/254/163 435/252/165 434/253/163 
s 626
f 436/251/306 434/253/163 435/252/165 
s 627
f 435/252/165 437/250/307 436/251/306 
s 628
f 438/249/308 436/251/306 437/250/307 
s 629
f 437/250/307 439/248/158 438/249/308 
s 630
f 440/247/158 438/249/308 439/248/158 
s 631
f 439/248/158 429/246/309 440/247/158 
s 632
f 431/245/309 440/247/158 429/246/309 
s 633
f 441/352/310 442/350/311 443/351/312 
s 634
f 444/349/313 443/351/312 442/350/311 
s 635
f 442/350/311 445/348/314 444/349/313 
s 636
f 446/347/315 444/349/313 445/348/314 
s 637
f 445/348/314 447/346/316 446/347/315 
s 638
f 448/345/317 446/347/315 447/346/316 
s 639
f 447/346/316 441/344/318 448/345/317 
s 640
f 443/343/319 448/345/317 441/344/318 
s 641
f 326/264/185 325/259/186 332/263/185 
s 642
f 332/263/185 325/259/186 333/262/186 
s 643
f 333/262/186 325/259/186 350/260/187 
s 644
f 350/260/187 325/259/186 335/261/187 
s 645
f 449/261/320 450/262/321 451/260/322 
s 646
f 450/262/321 449/261/320 452/263/323 
s 647
f 453/264/295 452/263/323 449/261/320 
s 648
f 449/261/320 454/259/296 453/264/295 
s 649
f 449/245/297 455/246/324 454/247/325 
s 650
f 456/248/325 454/247/325 455/246/324 
s 651
f 454/247/325 456/248/325 453/249/299 
s 652
f 457/250/326 453/249/299 456/248/325 
s 653
f 453/249/299 457/250/326 452/251/302 
s 654
f 458/252/302 452/251/302 457/250/326 
s 655
f 452/251/302 458/252/302 450/253/327 
s 656
f 459/254/327 450/253/327 458/252/302 
s 657
f 450/253/327 459/254/327 451/255/165 
s 658
f 460/256/165 451/255/165 459/254/327 
s 659
f 451/255/165 460/256/165 449/257/14 
s 660
f 455/258/14 449/257/14 460/256/165 
s 661
f 404/264/184 405/259/182 395/263/184 
s 662
f 395/263/184 405/259/182 396/262/182 
s 663
f 407/260/183 396/262/182 405/259/182 
s 664
f 407/260/183 405/259/182 406/261/183 
s 665
f 209/261/328 217/262/329 219/260/330 
s 666
f 217/262/329 209/261/328 215/263/331 
s 667
f 213/264/183 215/263/331 209/261/328 
s 668
f 209/261/328 211/259/183 213/264/183 
s 669
f 461/332/332 462/330/231 463/331/332 
s 670
f 464/329/230 463/331/332 462/330/231 
s 671
f 462/330/231 465/328/233 464/329/230 
s 672
f 466/327/232 464/329/230 465/328/233 
s 673
f 465/328/233 467/326/333 466/327/232 
s 674
f 468/325/333 466/327/232 467/326/333 
s 675
f 467/326/333 469/324/236 468/325/333 
s 676
f 470/323/334 468/325/333 469/324/236 
s 677
f 469/324/236 471/322/238 470/323/334 
s 678
f 472/321/335 470/323/334 471/322/238 
s 679
f 471/322/238 461/320/336 472/321/335 
s 680
f 463/319/336 472/321/335 461/320/336 
s 681
f 473/259/296 474/261/320 475/264/295 
s 682
f 475/264/295 474/261/320 476/263/337 
s 683
f 477/262/338 476/263/337 474/261/320 
s 684
f 477/262/338 474/261/320 478/260/339 
s 685
f 440/259/183 431/261/340 438/264/183 
s 686
f 438/264/183 431/261/340 436/263/201 
s 687
f 434/262/341 436/263/201 431/261/340 
s 688
f 434/262/341 431/261/340 432/260/342 
s 689
f 479/366/3 480/364/304 474/365/3 
s 690
f 478/363/301 474/365/3 480/364/304 
s 691
f 480/364/304 481/362/163 478/363/301 
s 692
f 477/361/163 478/363/301 481/362/163 
s 693
f 481/362/163 482/360/343 477/361/163 
s 694
f 476/359/344 477/361/163 482/360/343 
s 695
f 482/360/343 483/358/345 476/359/344 
s 696
f 475/357/346 476/359/344 483/358/345 
s 697
f 483/358/345 484/356/325 475/357/346 
s 698
f 473/355/325 475/357/346 484/356/325 
s 699
f 484/356/325 479/354/347 473/355/325 
s 700
f 474/353/348 473/355/325 479/354/347 
s 701
f 485/259/296 486/261/292 487/264/295 
s 702
f 487/264/295 486/261/292 488/263/182 
s 703
f 489/262/349 488/263/182 486/261/292 
s 704
f 489/262/349 486/261/292 490/260/350 
s 705
f 491/258/3 492/256/351 486/257/3 
s 706
f 490/255/304 486/257/3 492/256/351 
s 707
f 492/256/351 493/254/163 490/255/304 
s 708
f 489/253/163 490/255/304 493/254/163 
s 709
f 493/254/163 494/252/343 489/253/163 
s 710
f 488/251/343 489/253/163 494/252/343 
s 711
f 494/252/343 495/250/352 488/251/343 
s 712
f 487/249/346 488/251/343 495/250/352 
s 713
f 495/250/352 496/248/158 487/249/346 
s 714
f 485/247/158 487/249/346 496/248/158 
s 715
f 496/248/158 491/246/353 485/247/158 
s 716
f 486/245/348 485/247/158 491/246/353 
# 0 polygons - 808 triangles