# Blender v2.76 (sub 0) OBJ File: ''
# www.blender.org
mtllib destroy_wall10.mtl
o pCube232.209_pCube232.245
v -0.492683 3.197674 -0.566650
v -0.422371 3.209267 -0.554817
v -0.418602 3.204769 -0.566650
v -0.000008 3.300446 -0.566650
v -0.083351 3.302170 -0.520782
v 0.679024 3.661688 -0.111713
v 1.274986 3.591867 -0.566650
v 1.529060 4.103553 -0.279095
v 1.623405 3.850123 -0.566650
v 0.807518 3.771377 -0.098869
v 3.320335 4.059368 -0.566650
v 3.648750 4.167827 -0.492924
v 3.587563 4.189052 -0.566650
v 3.650841 4.246799 -0.566650
v 3.740196 4.279892 -0.566650
v 3.786018 4.316594 -0.566650
v 3.868996 4.316594 -0.440411
v 3.766273 4.316594 -0.231564
v 3.532921 4.316594 -0.195793
v 2.639503 4.249515 -0.002487
v 2.640114 4.251079 0.000004
v 2.967186 4.316594 0.000004
v 1.889137 3.772686 -0.566650
v 2.102562 4.108933 -0.059551
v 1.757362 4.096756 -0.203075
v -5.843834 0.816140 -0.000004
v -7.254524 1.307748 -0.000004
v -7.772987 0.767039 -0.000004
v -7.999992 0.837641 -0.000004
v -7.999992 0.191673 -0.000004
v -3.999992 0.191673 0.000000
v -3.999992 1.206390 0.000000
v -4.900673 0.956757 0.000000
v -7.213280 1.568073 -0.566658
v -5.058983 0.817327 -0.566654
v -4.758934 0.862060 -0.566654
v -3.999992 1.072412 -0.566654
v -3.999992 0.191674 -0.566654
v -7.999992 0.191674 -0.566658
v -7.999992 0.747606 -0.566658
v -7.999992 0.742879 -0.554333
v 7.999989 4.316594 -0.566650
v 7.999989 0.191674 -0.566650
v 3.999992 0.191674 -0.566650
v 3.999992 4.316594 -0.566650
v 7.999989 4.316596 0.000004
v 3.999992 4.316594 0.000004
v 3.999992 0.191673 0.000004
v 7.999989 0.191673 0.000004
v -0.000008 0.191674 -0.566650
v -3.515205 1.206776 -0.566654
v -2.801323 1.612771 -0.566654
v -1.480446 2.363966 -0.566654
v -0.929893 3.007336 -0.566650
v -0.000008 2.924889 0.000004
v -0.837151 2.137053 0.000004
v -0.877327 2.119567 0.000004
v -0.901543 2.091260 0.000004
v -0.991066 2.040347 0.000004
v -2.612282 1.631365 0.000000
v -2.885994 1.680790 0.000000
v -3.247688 1.414901 0.000000
v -0.000008 0.191673 0.000004
v 2.639961 4.247848 0.000004
v 1.509254 3.863855 0.000004
v 0.812386 3.689434 0.000004
v -2.783867 1.448295 -0.402470
vt 0.314681 1.801582
vt 0.320619 1.800023
vt 0.320619 1.798768
vt 0.642578 1.715749
vt 0.672879 1.715749
vt 0.667251 1.708560
vt 0.672879 1.707745
vt 0.681784 1.704375
vt 0.686395 1.703074
vt 0.695253 1.715749
vt 0.690810 1.742627
vt 0.672879 1.752542
vt 0.995345 1.147158
vt 0.995345 1.402369
vt 0.747863 1.402369
vt 0.747863 1.147158
vt 0.344944 1.399904
vt 0.038808 1.399904
vt 0.038808 1.356536
vt 0.344944 1.356536
vt 0.823168 1.043827
vt 0.823168 1.278159
vt 0.785796 1.278159
vt 0.785796 1.043827
vt 0.067343 1.565139
vt 0.067206 1.564911
vt 0.067034 1.565225
vt 0.672879 1.712154
vt 0.672879 1.634048
vt 0.621600 1.650251
vt 0.670623 1.712868
vt 0.429271 1.715749
vt 0.496749 1.715749
vt 0.496749 1.692769
vt 0.320618 1.798143
vt 0.320619 1.741960
vt 0.296188 1.752370
vt 0.243825 1.830865
vt 0.144487 1.768839
vt 0.144487 1.841649
vt 0.072810 1.866881
vt 0.089019 1.864918
vt 0.060417 1.805690
vt 0.496750 1.762602
vt 0.465023 1.763307
vt 0.954966 1.562889
vt 0.982604 1.525499
vt 0.948933 1.523867
vt 0.982604 1.927638
vt 0.060321 1.804147
vt 0.399302 1.779161
vt 0.386920 1.725966
vt 0.662162 1.715749
vt 0.676951 1.710549
vt 0.758250 1.606707
vt 0.724208 1.615440
vt 0.717193 1.616575
vt 0.764271 1.675259
vt 0.849009 1.641012
vt 0.835672 1.631175
vt 0.849009 1.627536
vt 0.931284 1.590729
vt 0.909047 1.624519
vt 0.956086 1.599662
vt 0.997060 1.592051
vt 0.997060 1.591737
vt 0.911937 1.585682
vt 0.074555 1.384920
vt 0.117853 1.399904
vt 0.056695 1.382182
vt 0.048834 1.366198
vt 0.055184 1.356536
vt 0.683962 1.147158
vt 0.663726 1.151212
vt 0.663717 1.151412
vt 0.593760 1.175169
vt 0.550644 1.185961
vt 0.500381 1.233264
vt 0.500381 1.402369
vt 0.731789 1.149429
vt 0.734624 1.147158
vt 0.726261 1.151477
vt 0.722345 1.155049
vt 0.705812 1.163073
vt 0.617263 1.180810
vt 0.579265 1.191998
vt 0.600822 1.176019
vt 0.500381 1.210028
vt 0.448587 1.282007
vt 0.446101 1.283089
vt 0.444603 1.284841
vt 0.439064 1.287991
vt 0.338759 1.313295
vt 0.321824 1.310237
vt 0.299446 1.326688
vt 0.252900 1.339588
vt 0.252900 1.402369
vt 0.474483 1.215948
vt 0.469899 1.216386
vt 0.442849 1.228163
vt 0.408786 1.267968
vt 0.327062 1.314445
vt 0.282894 1.339565
vt 0.252900 1.347878
vt 0.785796 1.241462
vt 0.822355 1.246846
vt 0.823168 1.246577
vt 0.005418 1.367973
vt 0.054092 1.317211
vt 0.187380 1.363660
vt 0.205944 1.360892
vt 0.005418 1.402369
vt 0.138821 1.363733
vt 0.051541 1.333317
vt 0.019463 1.366771
vt 0.197175 1.355033
vt 0.005418 1.362403
vt 0.920615 1.557604
vt 0.918737 1.611902
vt 0.956312 1.561068
vt 0.920212 1.522473
vt 0.948142 1.523829
vt 0.923932 1.731934
vt 0.923739 1.732086
vt 0.929747 1.804978
vt 0.956162 1.929796
vt 0.982604 1.953695
vt 0.982604 1.880028
vt 0.439148 1.822096
vt 0.496749 1.802566
vt 0.496750 1.763702
vt 0.466453 1.761164
vt 0.427609 1.819393
vt 0.350745 1.795861
vt 0.356664 1.789474
vn -0.088300 0.921500 -0.378300
vn -0.370800 0.764200 0.527800
vn -0.533600 0.584700 0.611100
vn -0.246200 0.664900 0.705200
vn -0.578200 0.721900 0.380100
vn -0.501400 0.829300 -0.246600
vn -0.071900 0.880400 -0.468800
vn 0.000000 0.000000 -1.000000
vn 0.000000 0.000000 1.000000
vn -0.000000 1.000000 -0.000000
vn 1.000000 0.000000 0.000000
vn -0.976500 0.046100 0.210300
vn -0.513900 0.439700 0.736600
vn -0.363200 0.638600 0.678400
vn -0.144500 0.969500 -0.198200
vn 0.299200 0.858600 0.416200
vn 0.293100 0.942400 -0.161100
vn -0.504400 0.686100 -0.524300
vn 0.157400 0.871900 -0.463700
vn -0.231800 0.918900 -0.319200
vn -0.697600 0.668900 0.256500
vn -0.697600 0.668900 0.256600
vn -0.260400 0.939600 -0.222200
vn -0.224200 0.514900 0.827400
vn -0.224100 0.514900 0.827400
vn -0.224100 0.514900 0.827500
vn -0.578000 0.614100 0.537400
vn -0.264300 0.778200 0.569600
vn -0.264300 0.778300 0.569600
vn -0.264300 0.778300 0.569500
vn -0.188100 0.751600 0.632200
vn -1.000000 0.000000 0.000000
vn 0.223300 0.766500 -0.602200
vn 0.223400 0.766500 -0.602200
vn -0.170800 0.852800 -0.493600
vn -0.441900 0.596100 -0.670400
vn -0.441900 0.596100 -0.670300
vn -0.203800 0.891800 -0.403900
usemtl brokenWalls.010
s off
f 1/1/1 2/2/1 3/3/1
f 11/4/2 12/5/2 13/6/2
f 13/6/3 12/5/3 14/7/3
f 14/7/4 12/5/4 15/8/4
f 16/9/5 15/8/5 12/5/5 17/10/5
f 17/10/6 12/5/6 18/11/6
f 18/11/7 12/5/7 19/12/7
f 42/13/8 43/14/8 44/15/8 45/16/8
f 46/13/9 47/16/9 48/15/9 49/14/9
f 47/17/10 46/18/10 42/19/10 45/20/10
f 46/21/11 49/22/11 43/23/11 42/24/11
f 21/25/12 20/26/12 64/27/12
f 57/28/13 54/29/13 53/30/13 58/31/13
f 51/32/14 67/33/14 52/34/14
f 33/35/15 36/36/15 35/37/15 26/38/15
f 26/38/16 35/37/16 34/39/16 27/40/16
f 29/41/17 28/42/17 41/43/17
f 61/44/18 67/33/18 62/45/18
f 60/46/19 67/47/19 61/48/19
f 59/49/20 67/47/20 60/46/20
f 41/43/21 28/42/21 27/40/21
f 41/43/21 27/40/21 34/39/21
f 40/50/22 41/43/22 34/39/22
f 32/51/23 62/45/23 67/33/23
f 33/35/23 32/51/23 67/33/23
f 36/36/23 33/35/23 67/33/23
f 36/36/23 67/33/23 51/32/23
f 36/36/9 51/32/9 37/52/9
f 58/31/14 53/30/14 52/34/14
f 59/53/14 58/31/14 52/34/14
f 67/33/14 59/53/14 52/34/14
f 56/54/24 5/55/24 2/56/24
f 2/56/25 1/57/25 56/54/25
f 56/54/25 1/57/25 54/29/25
f 56/54/26 54/29/26 57/28/26
f 5/55/27 56/54/27 55/58/27
f 5/55/27 55/58/27 66/59/27
f 5/55/27 66/59/27 6/60/27
f 6/60/27 66/59/27 10/61/27
f 25/62/28 65/63/28 24/64/28
f 24/64/29 65/63/29 64/65/29
f 24/64/30 64/65/30 20/66/30
f 10/61/31 66/59/31 65/63/31
f 10/61/31 65/63/31 25/62/31
f 8/67/31 10/61/31 25/62/31
f 19/68/10 22/69/10 47/18/10
f 19/68/10 47/18/10 18/70/10
f 18/70/10 47/18/10 45/19/10
f 17/71/10 18/70/10 45/19/10
f 16/72/10 17/71/10 45/19/10
f 47/16/9 22/73/9 21/74/9
f 48/15/9 47/16/9 21/74/9
f 48/15/9 21/74/9 64/75/9
f 48/15/9 64/75/9 65/76/9
f 48/15/9 65/76/9 66/77/9
f 48/15/9 66/77/9 55/78/9
f 48/15/9 55/78/9 63/79/9
f 15/80/8 16/81/8 45/16/8
f 15/80/8 45/16/8 44/15/8
f 14/82/8 15/80/8 44/15/8
f 13/83/8 14/82/8 44/15/8
f 11/84/8 13/83/8 44/15/8
f 23/85/8 11/84/8 44/15/8
f 7/86/8 9/87/8 23/85/8
f 7/86/8 23/85/8 44/15/8
f 4/88/8 7/86/8 44/15/8
f 50/79/8 4/88/8 44/15/8
f 63/79/9 55/78/9 56/89/9
f 63/79/9 56/89/9 57/90/9
f 63/79/9 57/90/9 58/91/9
f 63/79/9 58/91/9 59/92/9
f 63/79/9 59/92/9 60/93/9
f 60/93/9 61/94/9 62/95/9
f 63/79/9 60/93/9 62/95/9
f 63/79/9 62/95/9 32/96/9
f 63/79/9 32/96/9 31/97/9
f 3/98/8 4/88/8 50/79/8
f 1/99/8 3/98/8 50/79/8
f 54/100/8 1/99/8 50/79/8
f 53/101/8 54/100/8 50/79/8
f 52/102/8 53/101/8 50/79/8
f 51/103/8 52/102/8 50/79/8
f 37/104/8 51/103/8 50/79/8
f 38/97/8 37/104/8 50/79/8
f 39/22/32 30/23/32 29/105/32
f 39/22/32 29/105/32 41/106/32
f 39/22/32 41/106/32 40/107/32
f 40/108/8 34/109/8 35/110/8
f 36/111/8 37/104/8 38/97/8
f 35/110/8 36/111/8 38/97/8
f 40/108/8 35/110/8 38/97/8
f 39/112/8 40/108/8 38/97/8
f 26/113/9 27/114/9 28/115/9
f 31/97/9 32/96/9 33/116/9
f 31/97/9 33/116/9 26/113/9
f 28/115/9 29/117/9 30/112/9
f 31/97/9 26/113/9 28/115/9
f 31/97/9 28/115/9 30/112/9
f 25/118/33 24/119/33 23/120/33
f 8/121/33 25/118/33 23/120/33
f 9/122/34 8/121/34 23/120/34
f 20/123/35 21/124/35 22/125/35
f 20/123/35 22/125/35 19/126/35
f 24/119/35 20/123/35 19/126/35
f 23/120/35 24/119/35 19/126/35
f 23/120/35 19/126/35 12/127/35
f 23/120/35 12/127/35 11/128/35
f 10/129/36 8/130/36 9/131/36
f 10/129/37 9/131/37 7/132/37
f 6/133/36 10/129/36 7/132/36
f 5/134/38 6/133/38 7/132/38
f 2/2/38 5/134/38 7/132/38
f 3/3/38 2/2/38 7/132/38
f 4/135/9 3/3/9 7/132/9
