# Blender v2.77 (sub 0) OBJ File: 'streetproj.blend'
# www.blender.org
mtllib pavement_street_straight_coll.mtl
o Cube.010_Cube.003
v 0.989157 -0.012247 -0.989157
v -0.989157 -0.012247 -0.989158
v 0.989158 0.012247 -0.989157
v -0.989157 0.012247 -0.989157
v -0.989157 -0.012247 -0.508714
v -0.989157 0.012247 -0.508714
v 0.989157 -0.012247 -0.508714
v 0.989158 0.012247 -0.508714
vt 1.8850 -0.9181
vt 1.9181 -0.9181
vt 1.9181 -0.2090
vt 1.8850 -0.2090
vt 1.7858 -0.9181
vt 1.8189 -0.9181
vt 1.8189 1.9181
vt 1.7858 1.9181
vt 1.8519 1.9181
vt 1.8189 1.9181
vt 1.8189 -0.9181
vt 1.8519 -0.9181
vt 1.0850 -0.9181
vt 1.7527 -0.9181
vt 1.7527 1.9181
vt 1.0850 1.9181
vt 1.0850 -0.9181
vt 1.0850 1.9181
vt 0.4173 1.9181
vt 0.4173 -0.9181
vt 1.9181 1.9181
vt 1.8850 1.9181
vt 1.8850 1.2090
vt 1.9181 1.2090
vn -1.0000 -0.0000 -0.0000
vn 0.0000 0.0000 -1.0000
vn -0.0000 -0.0000 1.0000
vn -0.0000 -1.0000 0.0000
vn -0.0000 1.0000 0.0000
vn 1.0000 -0.0000 0.0000
usemtl Material.005
s off
f 5/1/1 6/2/1 4/3/1 2/4/1
f 3/5/2 1/6/2 2/7/2 4/8/2
f 7/9/3 8/10/3 6/11/3 5/12/3
f 1/13/4 7/14/4 5/15/4 2/16/4
f 3/17/5 4/18/5 6/19/5 8/20/5
f 1/21/6 3/22/6 8/23/6 7/24/6
o Cube.007_Cube.010
v 0.989157 -0.012247 0.989157
v -0.989158 -0.012247 0.989157
v 0.989157 0.012247 0.989158
v -0.989158 0.012247 0.989157
v 0.989157 -0.012247 0.508714
v 0.989157 0.012247 0.508715
v -0.989157 -0.012247 0.508714
v -0.989158 0.012247 0.508714
vt -0.2504 -0.9181
vt 0.4173 -0.9181
vt 0.4173 1.9181
vt -0.2504 1.9181
vt -0.2504 -0.9181
vt -0.2504 1.9181
vt -0.9181 1.9181
vt -0.9181 -0.9181
vt 1.9181 1.2090
vt 1.8850 1.2090
vt 1.8850 0.5000
vt 1.9181 0.5000
vt 1.8850 1.9181
vt 1.8519 1.9181
vt 1.8519 -0.9181
vt 1.8850 -0.9181
vt 1.9181 0.5000
vt 1.8850 0.5000
vt 1.8850 -0.2090
vt 1.9181 -0.2090
vt 1.7858 1.9181
vt 1.7527 1.9181
vt 1.7527 -0.9181
vt 1.7858 -0.9181
vn 0.0000 -1.0000 -0.0000
vn 0.0000 1.0000 0.0000
vn 1.0000 0.0000 0.0000
vn -0.0000 -0.0000 1.0000
vn -1.0000 -0.0000 -0.0000
vn 0.0000 0.0000 -1.0000
usemtl Material.005
s off
f 13/25/7 9/26/7 10/27/7 15/28/7
f 14/29/8 16/30/8 12/31/8 11/32/8
f 13/33/9 14/34/9 11/35/9 9/36/9
f 9/37/10 11/38/10 12/39/10 10/40/10
f 10/41/11 12/42/11 16/43/11 15/44/11
f 15/45/12 16/46/12 14/47/12 13/48/12
