# 3ds Max Wavefront OBJ Exporter v0.97b - (c)2007 guruware
# File Created: 20.04.2017 22:17:25

mtllib concrane2_coll.mtl

#
# object Cylinder002
#

v  0.0000 0.0000 -0.0000
v  -0.0000 0.0000 -3.5000
v  2.4749 0.0000 -2.4749
v  3.5000 0.0000 -0.0000
v  -3.5000 0.0000 0.0000
v  -2.4749 0.0000 -2.4749
v  0.0000 0.0000 3.5000
v  -2.4749 0.0000 2.4749
v  2.4749 0.0000 2.4749
v  2.4749 18.0000 -2.4749
v  3.5000 18.0000 -0.0000
v  -0.0000 18.0000 -3.5000
v  -2.4749 18.0000 -2.4749
v  -3.5000 18.0000 0.0000
v  -2.4749 18.0000 2.4749
v  0.0000 18.0000 3.5000
v  2.4749 18.0000 2.4749
v  0.0000 18.0000 -0.0000
# 18 vertices

vn 0.0000 -1.0000 -0.0000
vn 1.0000 0.0000 0.0000
vn 0.7071 0.0000 -0.7071
vn -0.0000 0.0000 -1.0000
vn -0.7071 0.0000 -0.7071
vn -1.0000 0.0000 0.0000
vn -0.7071 0.0000 0.7071
vn -0.0000 0.0000 1.0000
vn 0.7071 0.0000 0.7071
vn 0.0000 1.0000 -0.0000
# 10 vertex normals

vt 0.5000 0.0000 0.0000
vt 0.7803 0.0000 0.4142
vt 0.8750 0.0000 1.0000
vt 0.7500 0.0000 1.0000
vt 0.2500 0.0000 1.0000
vt 0.1250 0.0000 1.0000
vt 0.0000 0.0000 1.0000
vt 0.5000 0.0000 1.0000
vt 0.3750 0.0000 1.0000
vt 0.6250 0.0000 1.0000
vt 0.8750 1.0000 1.0000
vt 0.7500 1.0000 1.0000
vt -0.1250 0.0000 1.0000
vt 0.0000 1.0000 1.0000
vt -0.1250 1.0000 1.0000
vt 0.1250 1.0000 1.0000
vt 0.2500 1.0000 1.0000
vt 0.3750 1.0000 1.0000
vt 0.5000 1.0000 1.0000
vt 0.6250 1.0000 1.0000
vt 0.5000 1.0000 0.0000
# 21 texture coords

g Cylinder002
usemtl wire_184155229
s 1
f 1/1/1 2/2/1 3/3/1 4/4/1 
f 1/1/1 5/5/1 6/6/1 2/7/1 
f 1/1/1 7/8/1 8/9/1 5/5/1 
f 1/1/1 4/4/1 9/10/1 7/8/1 
s 8
f 4/4/2 3/3/3 10/11/3 11/12/2 
f 3/13/3 2/7/4 12/14/4 10/15/3 
f 2/7/4 6/6/5 13/16/5 12/14/4 
f 6/6/5 5/5/6 14/17/6 13/16/5 
f 5/5/6 8/9/7 15/18/7 14/17/6 
f 8/9/7 7/8/8 16/19/8 15/18/7 
f 7/8/8 9/10/9 17/20/9 16/19/8 
f 9/10/9 4/4/2 11/12/2 17/20/9 
s 1
f 18/21/10 17/20/10 11/12/10 10/11/10 
f 18/21/10 10/15/10 12/14/10 13/16/10 
f 18/21/10 13/16/10 14/17/10 15/18/10 
f 18/21/10 15/18/10 16/19/10 17/20/10 
# 16 polygons