# Blender v2.78 (sub 0) OBJ File: ''
# www.blender.org
mtllib ak74 collider.mtl
o Cube_Cube.000
v 0.086538 -0.000528 -0.018755
v 0.086538 0.120376 0.023919
v 0.086538 0.120376 -0.018755
v 0.086538 -0.000528 0.023919
v 0.035813 0.120376 0.023919
v 0.035813 -0.000528 0.023919
v 0.035813 0.120376 -0.018755
v 0.035813 -0.000528 -0.018755
vn -1.0000 -0.0000 0.0000
vn 0.0000 0.0000 -1.0000
vn 1.0000 0.0000 0.0000
vn 0.0000 -0.0000 1.0000
vn 0.0000 -1.0000 0.0000
vn 0.0000 1.0000 0.0000
usemtl None.001
s off
f 1//1 2//1 3//1
f 4//2 5//2 2//2
f 6//3 7//3 5//3
f 8//4 3//4 7//4
f 5//5 3//5 2//5
f 4//6 8//6 6//6
f 1//1 4//1 2//1
f 4//2 6//2 5//2
f 6//3 8//3 7//3
f 8//4 1//4 3//4
f 5//5 7//5 3//5
f 4//6 1//6 8//6
o Cube.002
v -0.593945 0.116683 -0.022267
v 0.320079 0.116683 0.022267
v -0.593945 0.116683 0.022267
v -0.593945 0.173129 0.022267
v 0.320080 0.173129 -0.022267
v -0.593945 0.173129 -0.022267
v 0.320079 0.116683 -0.022267
v 0.320079 0.173129 0.022267
vn 0.0000 -1.0000 0.0000
vn 0.0000 1.0000 -0.0000
vn 0.0000 0.0000 -1.0000
vn 1.0000 -0.0000 0.0000
vn 0.0000 -0.0000 1.0000
vn -1.0000 -0.0000 0.0000
usemtl Material.002
s 1
f 9//7 10//7 11//7
f 12//8 13//8 14//8
f 14//9 15//9 9//9
f 13//10 10//10 15//10
f 10//11 12//11 11//11
f 9//12 12//12 14//12
f 9//7 15//7 10//7
f 12//8 16//8 13//8
f 14//9 13//9 15//9
f 13//10 16//10 10//10
f 10//11 16//11 12//11
f 9//12 11//12 12//12