# 3ds Max Wavefront OBJ Exporter v0.97b - (c)2007 guruware
# File Created: 04.08.2014 09:24:14

mtllib Tombstone147.mtl

#
# object Mesh_0147
#

v  -0.494358 1.101186 -0.075734
v  -0.520282 1.039500 -0.075734
v  -0.520282 1.039500 0.075734
v  -0.494358 1.101186 0.075734
v  -0.450946 1.141006 -0.075734
v  -0.450946 1.141006 0.075734
v  -0.387421 1.140751 -0.075734
v  -0.387421 1.140751 0.075734
v  -0.344164 1.100759 -0.075734
v  -0.344164 1.100759 0.075734
v  -0.324543 1.039500 -0.075734
v  -0.324543 1.039500 0.075734
v  -0.520282 -0.000000 0.075734
v  -0.520282 -0.000000 -0.075734
v  -0.159449 1.277063 0.075734
v  0.000000 1.318460 0.075734
v  0.000000 1.318460 -0.075734
v  -0.159449 1.277063 -0.075734
v  -0.266785 1.168858 0.075734
v  -0.266785 1.168858 -0.075734
v  0.000000 1.044387 -0.075734
v  -0.324543 -0.000000 -0.075734
v  0.324543 1.039500 -0.075734
v  0.324543 -0.000000 -0.075734
v  0.000000 -0.000000 -0.075734
v  0.159449 1.277063 -0.075734
v  0.266785 1.168858 -0.075734
v  -0.324543 -0.000000 0.075734
v  0.000000 -0.000000 0.075734
v  0.000000 1.044387 0.075734
v  0.159449 1.277063 0.075734
v  0.266785 1.168858 0.075734
v  0.324543 1.039500 0.075734
v  0.324543 -0.000000 0.075734
v  0.520282 -0.000000 0.075734
v  0.520282 1.039500 0.075734
v  0.494358 1.101186 0.075734
v  0.450946 1.141006 0.075734
v  0.387421 1.140751 0.075734
v  0.344164 1.100759 0.075734
v  0.520282 1.039500 -0.075734
v  0.494358 1.101186 -0.075734
v  0.450946 1.141006 -0.075734
v  0.387421 1.140751 -0.075734
v  0.344164 1.100759 -0.075734
v  0.520282 -0.000000 -0.075734
# 46 vertices

vn -0.817820 0.575474 -0.000000
vn -0.921900 0.387427 -0.000000
vn -0.887534 0.460742 -0.000000
vn -0.360797 0.932644 -0.000000
vn -0.675962 0.736937 -0.000000
vn 0.366370 0.930469 -0.000000
vn 0.138694 0.990335 -0.000000
vn 0.843360 0.537348 -0.000000
vn 0.678843 0.734284 -0.000000
vn 0.952343 0.305029 -0.000000
vn -1.000000 0.000000 -0.000000
vn -0.498374 0.866962 -0.000000
vn -0.251294 0.967911 -0.000000
vn -0.417801 0.908539 -0.000000
vn -0.824967 0.565181 -0.000000
vn -0.709951 0.704251 -0.000000
vn -0.913115 0.407703 -0.000000
vn -0.000000 -0.000000 -1.000000
vn 0.000000 -0.000000 -1.000000
vn -0.000001 -0.000001 -1.000000
vn -0.000000 0.000000 -1.000000
vn 0.000000 0.000000 -1.000000
vn -0.000000 -0.000000 1.000000
vn -0.000001 -0.000001 1.000000
vn 0.000000 0.000000 1.000000
vn 0.000000 -0.000000 1.000000
vn 0.000001 -0.000000 1.000000
vn 0.921900 0.387427 -0.000000
vn 0.817820 0.575474 -0.000000
vn 0.360797 0.932644 -0.000000
vn -0.366370 0.930469 -0.000000
vn -0.138694 0.990335 -0.000000
vn -0.843360 0.537348 -0.000000
vn -0.678843 0.734284 -0.000000
vn -0.952343 0.305029 -0.000000
vn 1.000000 0.000000 -0.000000
vn 0.251294 0.967911 -0.000000
vn 0.498374 0.866962 -0.000000
vn 0.824967 0.565181 -0.000000
vn 0.913115 0.407703 -0.000000
vn 0.000001 -0.000001 -1.000000
# 41 vertex normals

vt 0.115176 0.071725 0.000000
vt 0.115176 0.022797 0.000000
vt 0.022548 0.022797 0.000000
vt 0.022548 0.071725 0.000000
vt 0.115176 0.118533 0.000000
vt 0.022548 0.118533 0.000000
vt 0.115177 0.165945 0.000000
vt 0.022548 0.165945 0.000000
vt 0.115177 0.208011 0.000000
vt 0.022549 0.208011 0.000000
vt 0.115155 0.253529 0.000000
vt 0.022510 0.253530 0.000000
vt 0.136714 0.012026 0.000000
vt 0.136714 0.765193 0.000000
vt 0.229596 0.765193 0.000000
vt 0.229596 0.012026 0.000000
vt 0.022511 0.454121 0.000000
vt 0.022511 0.557050 0.000000
vt 0.115156 0.557049 0.000000
vt 0.115156 0.454120 0.000000
vt 0.022510 0.349061 0.000000
vt 0.115155 0.349061 0.000000
vt 0.842019 0.764901 0.000000
vt 0.800217 0.858522 0.000000
vt 0.722534 0.936833 0.000000
vt 0.607134 0.966794 0.000000
vt 0.607134 0.768438 0.000000
vt 0.842019 0.012577 0.000000
vt 0.983682 0.764901 0.000000
vt 0.964920 0.809545 0.000000
vt 0.887526 0.838179 0.000000
vt 0.856219 0.809236 0.000000
vt 0.372249 0.764901 0.000000
vt 0.372249 0.012577 0.000000
vt 0.607134 0.012577 0.000000
vt 0.491733 0.936833 0.000000
vt 0.414051 0.858522 0.000000
vt 0.933501 0.838364 0.000000
vt 0.983682 0.012577 0.000000
vt 0.230586 0.012577 0.000000
vt 0.230586 0.764901 0.000000
vt 0.249347 0.809545 0.000000
vt 0.280767 0.838364 0.000000
vt 0.326742 0.838179 0.000000
vt 0.358049 0.809236 0.000000
# 45 texture coords

g Mesh_0147
usemtl Tex_0147_0_dds
s 1
f 1/1/1 2/2/2 3/3/2 
s 2
f 3/3/2 4/4/3 1/1/1 
s 3
f 5/5/4 1/1/1 4/4/3 
s 4
f 4/4/5 6/6/4 5/5/4 
s 5
f 7/7/6 5/5/4 6/6/4 
s 6
f 6/6/4 8/8/7 7/7/6 
s 7
f 9/9/8 7/7/6 8/8/7 
s 8
f 8/8/9 10/10/8 9/9/8 
s 9
f 11/11/10 9/9/8 10/10/8 
s 10
f 10/10/8 12/12/10 11/11/10 
s 11
f 13/13/11 3/14/11 2/15/11 
s 12
f 2/15/11 14/16/11 13/13/11 
s 13
f 15/17/12 16/18/13 17/19/13 
s 14
f 17/19/13 18/20/14 15/17/12 
s 15
f 19/21/15 15/17/12 18/20/14 
s 16
f 18/20/16 20/22/15 19/21/15 
s 17
f 12/12/17 19/21/15 20/22/15 
s 18
f 20/22/15 11/11/17 12/12/17 
s 19
f 11/23/18 20/24/18 18/25/19 
s 20
f 11/23/18 18/25/19 17/26/18 
s 21
f 11/23/18 17/26/18 21/27/18 
s 22
f 22/28/18 11/23/18 21/27/18 
s 23
f 2/29/19 11/23/18 22/28/18 
s 24
f 2/29/19 1/30/18 11/23/18 
s 25
f 1/30/18 7/31/18 11/23/18 
s 26
f 7/31/18 9/32/20 11/23/18 
s 27
f 23/33/19 21/27/18 17/26/18 
s 28
f 21/27/18 23/33/19 24/34/18 
s 29
f 24/34/18 25/35/18 21/27/18 
s 30
f 21/27/18 25/35/18 22/28/18 
s 31
f 23/33/19 17/26/18 26/36/18 
s 32
f 23/33/19 26/36/19 27/37/19 
s 33
f 1/30/18 5/38/21 7/31/18 
s 34
f 22/28/18 14/39/22 2/29/19 
s 35
f 12/23/23 10/32/24 8/31/23 
s 36
f 12/23/23 8/31/23 6/38/23 
s 37
f 12/23/23 6/38/23 4/30/25 
s 38
f 12/23/23 4/30/25 3/29/26 
s 39
f 12/23/23 3/29/26 13/39/26 
s 40
f 13/39/26 28/28/26 12/23/23 
s 41
f 12/23/23 28/28/26 29/35/23 
s 42
f 29/35/23 30/27/23 12/23/23 
s 43
f 30/27/23 19/24/26 12/23/23 
s 44
f 30/27/23 15/25/26 19/24/26 
s 45
f 30/27/23 16/26/23 15/25/26 
s 46
f 30/27/23 31/36/23 16/26/23 
s 47
f 30/27/23 32/37/23 31/36/23 
s 48
f 33/33/26 30/27/23 29/35/23 
s 49
f 30/27/23 33/33/26 32/37/23 
s 50
f 29/35/23 34/34/23 33/33/26 
s 51
f 33/33/26 34/34/23 35/40/26 
s 52
f 35/40/26 36/41/26 33/33/26 
s 53
f 33/33/26 36/41/26 37/42/25 
s 54
f 33/33/26 37/42/25 38/43/26 
s 55
f 33/33/26 38/43/26 39/44/26 
s 56
f 33/33/26 39/44/26 40/45/27 
s 57
f 36/3/28 41/2/28 42/1/29 
s 58
f 42/1/29 37/4/29 36/3/28 
s 59
f 37/4/29 42/1/29 43/5/30 
s 60
f 43/5/30 38/6/30 37/4/29 
s 61
f 38/6/30 43/5/30 44/7/31 
s 62
f 44/7/31 39/8/32 38/6/30 
s 63
f 39/8/32 44/7/31 45/9/33 
s 64
f 45/9/33 40/10/33 39/8/34 
s 65
f 40/10/33 45/9/33 23/11/35 
s 66
f 23/11/35 33/12/35 40/10/33 
s 67
f 35/13/36 46/16/36 41/15/36 
s 68
f 41/15/36 36/14/36 35/13/36 
s 69
f 17/19/37 16/18/37 31/17/38 
s 70
f 31/17/38 26/20/38 17/19/37 
s 71
f 26/20/38 31/17/38 32/21/39 
s 72
f 32/21/39 27/22/39 26/20/38 
s 73
f 27/22/39 32/21/39 33/12/40 
s 74
f 33/12/40 23/11/40 27/22/39 
s 75
f 44/44/19 43/43/22 42/42/19 
s 76
f 23/33/19 44/44/19 42/42/19 
s 77
f 23/33/19 45/45/41 44/44/19 
s 78
f 41/41/19 23/33/19 42/42/19 
s 79
f 24/34/18 23/33/19 41/41/19 
s 80
f 41/41/19 46/40/22 24/34/18 
# 0 polygons - 80 triangles