# Blender v2.79 (sub 0) OBJ File: ''
# www.blender.org
mtllib mine.mtl
o mesh0_Untitled.001
v -0.000007 0.000000 -0.200007
v -0.000007 0.000000 -0.200007
v 0.076535 0.000000 -0.184788
v 0.076535 0.000000 -0.184788
v 0.141416 0.000000 -0.141429
v 0.141416 0.000000 -0.141429
v 0.184775 0.000000 -0.076548
v 0.184775 0.000000 -0.076548
v 0.199994 0.000000 -0.000007
v 0.199994 0.000000 -0.000007
v 0.184775 -0.000000 0.076535
v 0.184775 -0.000000 0.076535
v 0.141416 -0.000000 0.141416
v 0.141416 -0.000000 0.141416
v 0.076535 -0.000000 0.184775
v 0.076535 -0.000000 0.184775
v -0.000007 0.000000 -0.200007
v -0.076548 0.000000 -0.184788
v -0.076548 0.000000 -0.184788
v -0.141429 0.000000 -0.141429
v -0.141429 0.000000 -0.141429
v -0.184788 0.000000 -0.076548
v -0.184788 0.000000 -0.076548
v -0.200007 0.000000 -0.000007
v -0.200007 0.000000 -0.000007
v -0.184788 -0.000000 0.076535
v -0.184788 -0.000000 0.076535
v -0.141429 -0.000000 0.141416
v -0.141429 -0.000000 0.141416
v -0.076548 -0.000000 0.184775
v -0.076548 -0.000000 0.184775
v -0.000007 -0.000000 0.199994
v -0.000007 -0.000000 0.199994
v 0.076535 -0.000000 0.184775
v -0.000007 0.069068 -0.200007
v -0.000007 0.069068 -0.200007
v 0.076535 0.069068 -0.184788
v 0.076535 0.069068 -0.184788
v 0.141416 0.069068 -0.141429
v 0.141416 0.069068 -0.141429
v 0.184775 0.069068 -0.076548
v 0.184775 0.069068 -0.076548
v 0.199994 0.069068 -0.000007
v 0.199994 0.069068 -0.000007
v 0.184775 0.069068 0.076535
v 0.184775 0.069068 0.076535
v 0.141416 0.069068 0.141416
v 0.141416 0.069068 0.141416
v 0.076535 0.069068 0.184775
v 0.076535 0.069068 0.184775
v -0.000007 0.069068 -0.200007
v -0.076548 0.069068 -0.184788
v -0.076548 0.069068 -0.184788
v -0.141429 0.069068 -0.141429
v -0.141429 0.069068 -0.141429
v -0.184788 0.069068 -0.076548
v -0.184788 0.069068 -0.076548
v -0.200007 0.069068 -0.000007
v -0.200007 0.069068 -0.000007
v -0.184788 0.069068 0.076535
v -0.184788 0.069068 0.076535
v -0.141429 0.069068 0.141416
v -0.141429 0.069068 0.141416
v -0.076548 0.069068 0.184775
v -0.076548 0.069068 0.184775
v -0.000007 0.069068 0.199994
v -0.000007 0.069068 0.199994
v 0.076535 0.069068 0.184775
v -0.000007 0.102137 -0.057285
v -0.000007 0.102137 -0.057285
v 0.040490 0.102137 -0.040503
v 0.040490 0.102137 -0.040503
v 0.057272 0.102137 -0.000007
v 0.057272 0.102137 -0.000007
v 0.040490 0.102137 0.040490
v 0.040490 0.102137 0.040490
v -0.000007 0.102137 0.057272
v -0.000007 0.102137 0.057272
v -0.040503 0.102137 0.040490
v -0.040503 0.102137 0.040490
v -0.057285 0.102137 -0.000007
v -0.057285 0.102137 -0.000007
v -0.040503 0.102137 -0.040503
v -0.040503 0.102137 -0.040503
v -0.000007 0.102137 -0.057285
v -0.000007 0.120869 -0.057285
v -0.000007 0.120869 -0.057285
v 0.040490 0.120869 -0.040503
v 0.040490 0.120869 -0.040503
v 0.057272 0.120869 -0.000007
v 0.057272 0.120869 -0.000007
v 0.040490 0.120869 0.040490
v 0.040490 0.120869 0.040490
v -0.000007 0.120869 0.057272
v -0.000007 0.120869 0.057272
v -0.040503 0.120869 0.040490
v -0.040503 0.120869 0.040490
v -0.057285 0.120869 -0.000007
v -0.057285 0.120869 -0.000007
v -0.040503 0.120869 -0.040503
v -0.040503 0.120869 -0.040503
v -0.000007 0.120869 -0.057285
v 0.099488 0.102137 -0.099501
v 0.099488 0.102137 -0.099501
v 0.053844 0.102137 -0.130005
v 0.053844 0.102137 -0.130005
v -0.000007 0.102137 -0.140720
v -0.000007 0.102137 -0.140720
v -0.053857 0.102137 -0.130005
v -0.053857 0.102137 -0.130005
v -0.099501 0.102137 -0.099501
v -0.099501 0.102137 -0.099501
v -0.130005 0.102137 -0.053857
v -0.130005 0.102137 -0.053857
v -0.140720 0.102137 -0.000007
v -0.140720 0.102137 -0.000007
v -0.130005 0.102137 0.053844
v -0.130005 0.102137 0.053844
v -0.099501 0.102137 0.099488
v -0.099501 0.102137 0.099488
v -0.053857 0.102137 0.129992
v -0.053857 0.102137 0.129992
v -0.000007 0.102137 0.140707
v -0.000007 0.102137 0.140707
v 0.053844 0.102137 0.129992
v 0.053844 0.102137 0.129992
v 0.099488 0.102137 0.099488
v 0.099488 0.102137 0.099488
v 0.129992 0.102137 0.053844
v 0.129992 0.102137 0.053844
v 0.140707 0.102137 -0.000007
v 0.140707 0.102137 -0.000007
v 0.129992 0.102137 -0.053857
v 0.129992 0.102137 -0.053857
vt 0.412354 -0.003620
vt 0.835449 -0.819824
vt 0.567871 -0.034515
vt 0.835449 -0.712402
vt 0.699219 -0.122559
vt 0.835449 -0.604492
vt 0.787598 -0.254150
vt 0.835449 -0.497314
vt 0.818359 -0.409668
vt 0.835449 -0.389648
vt 0.787598 -0.564941
vt 0.835449 -0.282227
vt 0.699219 -0.696777
vt 0.835449 -0.174683
vt 0.567871 -0.784668
vt 0.835449 -0.067199
vt 0.003894 -0.990723
vt 0.111389 -0.990723
vt 0.256836 -0.034515
vt 0.218872 -0.990723
vt 0.125122 -0.122559
vt 0.326416 -0.990723
vt 0.037170 -0.254150
vt 0.433838 -0.990723
vt 0.006271 -0.409668
vt 0.541504 -0.990723
vt 0.037170 -0.564941
vt 0.648926 -0.990723
vt 0.125122 -0.696777
vt 0.756348 -0.990723
vt 0.256836 -0.784668
vt 0.863770 -0.990723
vt 0.412354 -0.815918
vt 0.971191 -0.990723
vt 0.972168 -0.819824
vt 0.412354 -0.003620
vt 0.972168 -0.712402
vt 0.567871 -0.034515
vt 0.972168 -0.604492
vt 0.699219 -0.122559
vt 0.972168 -0.497314
vt 0.787598 -0.254150
vt 0.972168 -0.389648
vt 0.818359 -0.409668
vt 0.972168 -0.282227
vt 0.787598 -0.564941
vt 0.972168 -0.174683
vt 0.699219 -0.696777
vt 0.972168 -0.067199
vt 0.567871 -0.784668
vt 0.003894 -0.854004
vt 0.256836 -0.034515
vt 0.111389 -0.854004
vt 0.125122 -0.122559
vt 0.218872 -0.854004
vt 0.037170 -0.254150
vt 0.326416 -0.854004
vt 0.006271 -0.409668
vt 0.433838 -0.854004
vt 0.037170 -0.564941
vt 0.541504 -0.854004
vt 0.125122 -0.696777
vt 0.648926 -0.854004
vt 0.256836 -0.784668
vt 0.756348 -0.854004
vt 0.412354 -0.815918
vt 0.863770 -0.854004
vt 0.971191 -0.854004
vt 0.412354 -0.293457
vt 0.938477 -0.917969
vt 0.494629 -0.327393
vt 0.836914 -0.917969
vt 0.528320 -0.409668
vt 0.734863 -0.917969
vt 0.494629 -0.491943
vt 0.633301 -0.917969
vt 0.412354 -0.525879
vt 0.531738 -0.917969
vt 0.330078 -0.491943
vt 0.430176 -0.917969
vt 0.295898 -0.409668
vt 0.328613 -0.917969
vt 0.330078 -0.327393
vt 0.226929 -0.917969
vt 0.125244 -0.917969
vt 0.938477 -0.855469
vt 0.412354 -0.293457
vt 0.836914 -0.855469
vt 0.494629 -0.327393
vt 0.734863 -0.855469
vt 0.528320 -0.409668
vt 0.633301 -0.855469
vt 0.494629 -0.491943
vt 0.531738 -0.855469
vt 0.412354 -0.525879
vt 0.430176 -0.855469
vt 0.330078 -0.491943
vt 0.328613 -0.855469
vt 0.295898 -0.409668
vt 0.226929 -0.855469
vt 0.330078 -0.327393
vt 0.125244 -0.855469
vt 0.614258 -0.207642
vt 0.614258 -0.207642
vt 0.521484 -0.145752
vt 0.521484 -0.145752
vt 0.412354 -0.124023
vt 0.412354 -0.124023
vt 0.302979 -0.145752
vt 0.302979 -0.145752
vt 0.210327 -0.207642
vt 0.210327 -0.207642
vt 0.148438 -0.300293
vt 0.148438 -0.300293
vt 0.126587 -0.409668
vt 0.126587 -0.409668
vt 0.148438 -0.519043
vt 0.148438 -0.519043
vt 0.210327 -0.611816
vt 0.210327 -0.611816
vt 0.302979 -0.673340
vt 0.302979 -0.673340
vt 0.412354 -0.695313
vt 0.412354 -0.695313
vt 0.521484 -0.673340
vt 0.521484 -0.673340
vt 0.614258 -0.611816
vt 0.614258 -0.611816
vt 0.676270 -0.519043
vt 0.676270 -0.519043
vt 0.697754 -0.409668
vt 0.697754 -0.409668
vt 0.676270 -0.300293
vt 0.676270 -0.300293
vn 0.0000 0.0000 0.0001
vn 1.0000 -0.0000 0.0000
vn 1.0000 -0.0000 0.0001
vn 1.0000 -0.0000 -0.0001
vn 1.0000 0.0001 0.0000
vn 0.0000 0.0000 -0.0000
vn 1.0000 -0.0003 0.0000
vn 1.0000 0.0003 -0.0000
vn 1.0000 0.0007 -0.0000
vn 1.0000 0.0004 0.0000
vn 1.0000 -0.0002 0.0000
vn 1.0000 -0.0002 -0.0001
vn 1.0000 -0.0004 -0.0001
vn 1.0000 0.0004 -0.0001
usemtl VisualMaterial
s 1
f 1/1/1 2/2/2 3/3/2
f 4/4/3 3/3/2 2/2/2
f 3/3/2 4/4/3 5/5/2
f 6/6/4 5/5/2 4/4/3
f 5/5/2 6/6/4 7/7/2
f 8/8/2 7/7/2 6/6/4
f 7/7/2 8/8/2 9/9/5
f 10/10/5 9/9/5 8/8/2
f 9/9/5 10/10/5 11/11/2
f 12/12/4 11/11/2 10/10/5
f 11/11/2 12/12/4 13/13/2
f 14/14/2 13/13/2 12/12/4
f 13/13/2 14/14/2 15/15/2
f 16/16/6 15/15/2 14/14/2
f 17/17/1 1/1/7 18/18/2
f 19/19/3 18/18/2 1/1/7
f 18/18/2 19/19/3 20/20/2
f 21/21/4 20/20/2 19/19/3
f 20/20/2 21/21/4 22/22/2
f 23/23/2 22/22/2 21/21/4
f 22/22/2 23/23/2 24/24/2
f 25/25/2 24/24/2 23/23/2
f 24/24/2 25/25/2 26/26/8
f 27/27/4 26/26/8 25/25/2
f 26/26/8 27/27/4 28/28/9
f 29/29/2 28/28/9 27/27/4
f 28/28/9 29/29/2 30/30/10
f 31/31/2 30/30/10 29/29/2
f 30/30/10 31/31/2 32/32/8
f 33/33/2 32/32/8 31/31/2
f 32/32/8 33/33/2 34/34/2
f 15/15/1 34/34/2 33/33/2
f 35/35/1 36/36/2 37/37/2
f 38/38/3 37/37/2 36/36/2
f 37/37/2 38/38/3 39/39/2
f 40/40/4 39/39/2 38/38/3
f 39/39/2 40/40/4 41/41/2
f 42/42/2 41/41/2 40/40/4
f 41/41/2 42/42/2 43/43/5
f 44/44/5 43/43/5 42/42/2
f 43/43/5 44/44/5 45/45/2
f 46/46/4 45/45/2 44/44/5
f 45/45/2 46/46/4 47/47/2
f 48/48/2 47/47/2 46/46/4
f 47/47/2 48/48/2 49/49/2
f 50/50/6 49/49/2 48/48/2
f 36/36/1 51/51/7 52/52/2
f 53/53/3 52/52/2 51/51/7
f 52/52/2 53/53/3 54/54/2
f 55/55/4 54/54/2 53/53/3
f 54/54/2 55/55/4 56/56/2
f 57/57/2 56/56/2 55/55/4
f 56/56/2 57/57/2 58/58/2
f 59/59/2 58/58/2 57/57/2
f 58/58/2 59/59/2 60/60/2
f 61/61/4 60/60/2 59/59/2
f 60/60/2 61/61/4 62/62/9
f 63/63/2 62/62/9 61/61/4
f 62/62/9 63/63/2 64/64/11
f 65/65/2 64/64/11 63/63/2
f 64/64/11 65/65/2 66/66/8
f 67/67/2 66/66/8 65/65/2
f 66/66/8 67/67/2 50/50/2
f 68/68/1 50/50/2 67/67/2
f 69/69/6 70/70/2 71/71/2
f 72/72/4 71/71/2 70/70/2
f 71/71/2 72/72/4 73/73/7
f 74/74/5 73/73/7 72/72/4
f 73/73/7 74/74/5 75/75/2
f 76/76/2 75/75/2 74/74/5
f 75/75/2 76/76/2 77/77/2
f 78/78/2 77/77/2 76/76/2
f 77/77/2 78/78/2 79/79/2
f 80/80/2 79/79/2 78/78/2
f 79/79/2 80/80/2 81/81/2
f 82/82/2 81/81/2 80/80/2
f 81/81/2 82/82/2 83/83/12
f 84/84/2 83/83/12 82/82/2
f 83/83/12 84/84/2 69/69/7
f 85/85/6 69/69/7 84/84/2
f 86/86/6 87/87/2 88/88/10
f 89/89/4 88/88/10 87/87/2
f 88/88/10 89/89/4 90/90/7
f 91/91/5 90/90/7 89/89/4
f 90/90/7 91/91/5 92/92/2
f 93/93/2 92/92/2 91/91/5
f 92/92/2 93/93/2 94/94/2
f 95/95/2 94/94/2 93/93/2
f 94/94/2 95/95/2 96/96/2
f 97/97/2 96/96/2 95/95/2
f 96/96/2 97/97/2 98/98/2
f 99/99/2 98/98/2 97/97/2
f 98/98/2 99/99/2 100/100/13
f 101/101/2 100/100/13 99/99/2
f 100/100/13 101/101/2 102/102/7
f 87/87/6 102/102/7 101/101/2
f 103/103/4 104/104/2 105/105/2
f 106/106/10 105/105/2 104/104/2
f 105/105/2 106/106/10 107/107/2
f 108/108/2 107/107/2 106/106/10
f 107/107/2 108/108/2 109/109/2
f 110/110/2 109/109/2 108/108/2
f 109/109/2 110/110/2 111/111/2
f 112/112/14 111/111/2 110/110/2
f 111/111/2 112/112/14 113/113/2
f 114/114/4 113/113/2 112/112/14
f 113/113/2 114/114/4 115/115/2
f 116/116/2 115/115/2 114/114/4
f 115/115/2 116/116/2 117/117/2
f 118/118/2 117/117/2 116/116/2
f 117/117/2 118/118/2 119/119/2
f 120/120/2 119/119/2 118/118/2
f 119/119/2 120/120/2 121/121/2
f 122/122/2 121/121/2 120/120/2
f 121/121/2 122/122/2 123/123/2
f 124/124/2 123/123/2 122/122/2
f 123/123/2 124/124/2 125/125/2
f 126/126/2 125/125/2 124/124/2
f 125/125/2 126/126/2 127/127/2
f 128/128/2 127/127/2 126/126/2
f 127/127/2 128/128/2 129/129/2
f 130/130/2 129/129/2 128/128/2
f 129/129/2 130/130/2 131/131/5
f 132/132/5 131/131/5 130/130/2
f 131/131/5 132/132/5 133/133/4
f 134/134/2 133/133/4 132/132/5
f 133/133/4 134/134/2 103/103/4
f 104/104/2 103/103/4 134/134/2
o mesh1_Untitled
v 0.040490 0.120869 0.040490
v 0.057272 0.120869 -0.000007
v -0.000007 0.120869 0.057272
v 0.040490 0.120869 -0.040503
v -0.000007 0.120869 -0.057285
v -0.040503 0.120869 0.040490
v -0.057285 0.120869 -0.000007
v -0.040503 0.120869 -0.040503
v -0.000007 0.000000 -0.200007
v -0.000007 0.069068 -0.200007
v 0.076535 0.000000 -0.184788
v 0.076535 0.069068 -0.184788
v 0.141416 0.000000 -0.141429
v 0.141416 0.069068 -0.141429
v 0.184775 0.000000 -0.076548
v 0.184775 0.069068 -0.076548
v 0.199994 0.000000 -0.000007
v 0.199994 0.069068 -0.000007
v 0.184775 -0.000000 0.076535
v 0.184775 0.069068 0.076535
v 0.141416 -0.000000 0.141416
v 0.141416 0.069068 0.141416
v 0.076535 -0.000000 0.184775
v 0.076535 0.069068 0.184775
v -0.076548 -0.000000 0.184775
v -0.141429 -0.000000 0.141416
v -0.000007 -0.000000 0.199994
v -0.184788 -0.000000 0.076535
v -0.200007 0.000000 -0.000007
v -0.184788 0.000000 -0.076548
v -0.141429 0.000000 -0.141429
v -0.076548 0.000000 -0.184788
v -0.000007 0.000000 -0.200007
v 0.076535 -0.000000 0.184775
v 0.141416 -0.000000 0.141416
v 0.184775 -0.000000 0.076535
v 0.199994 0.000000 -0.000007
v 0.184775 0.000000 -0.076548
v 0.141416 0.000000 -0.141429
v 0.076535 0.000000 -0.184788
v -0.000007 0.120869 -0.057285
v 0.040490 0.120869 -0.040503
v -0.000007 0.102137 -0.057285
v 0.040490 0.102137 -0.040503
v 0.057272 0.120869 -0.000007
v 0.057272 0.102137 -0.000007
v 0.040490 0.120869 0.040490
v 0.040490 0.102137 0.040490
v -0.000007 0.120869 0.057272
v -0.000007 0.102137 0.057272
v -0.040503 0.120869 0.040490
v -0.040503 0.102137 0.040490
v -0.057285 0.120869 -0.000007
v -0.057285 0.102137 -0.000007
v -0.040503 0.120869 -0.040503
v -0.040503 0.102137 -0.040503
v -0.000007 0.120869 -0.057285
v -0.000007 0.102137 -0.057285
v -0.000007 0.069068 -0.200007
v -0.000007 0.000000 -0.200007
v -0.076548 0.069068 -0.184788
v -0.076548 0.000000 -0.184788
v -0.141429 0.069068 -0.141429
v -0.141429 0.000000 -0.141429
v -0.184788 0.000000 -0.076548
v -0.184788 0.069068 -0.076548
v -0.200007 0.069068 -0.000007
v -0.200007 0.000000 -0.000007
v -0.184788 -0.000000 0.076535
v -0.184788 0.069068 0.076535
v -0.141429 0.069068 0.141416
v -0.141429 -0.000000 0.141416
v -0.076548 0.069068 0.184775
v -0.076548 -0.000000 0.184775
v -0.000007 0.069068 0.199994
v -0.000007 -0.000000 0.199994
v 0.076535 0.069068 0.184775
v 0.076535 -0.000000 0.184775
v 0.053844 0.102137 -0.130005
v -0.000007 0.102137 -0.140720
v -0.000007 0.102137 -0.057285
v -0.053857 0.102137 -0.130005
v -0.040503 0.102137 -0.040503
v -0.099501 0.102137 -0.099501
v -0.130005 0.102137 -0.053857
v -0.057285 0.102137 -0.000007
v -0.140720 0.102137 -0.000007
v -0.130005 0.102137 0.053844
v -0.040503 0.102137 0.040490
v -0.099501 0.102137 0.099488
v -0.053857 0.102137 0.129992
v -0.000007 0.102137 0.057272
v -0.000007 0.102137 0.140707
v 0.053844 0.102137 0.129992
v 0.040490 0.102137 0.040490
v 0.099488 0.102137 0.099488
v 0.129992 0.102137 0.053844
v 0.057272 0.102137 -0.000007
v 0.140707 0.102137 -0.000007
v 0.129992 0.102137 -0.053857
v 0.040490 0.102137 -0.040503
v 0.099488 0.102137 -0.099501
v -0.184788 0.069068 0.076535
v -0.130005 0.102137 0.053844
v -0.200007 0.069068 -0.000007
v -0.140720 0.102137 -0.000007
v -0.184788 0.069068 -0.076548
v -0.130005 0.102137 -0.053857
v -0.141429 0.069068 -0.141429
v -0.099501 0.102137 -0.099501
v -0.076548 0.069068 -0.184788
v -0.053857 0.102137 -0.130005
v -0.000007 0.069068 -0.200007
v -0.000007 0.102137 -0.140720
v 0.076535 0.069068 -0.184788
v 0.053844 0.102137 -0.130005
v 0.141416 0.069068 -0.141429
v 0.099488 0.102137 -0.099501
v 0.184775 0.069068 -0.076548
v 0.129992 0.102137 -0.053857
v 0.199994 0.069068 -0.000007
v 0.140707 0.102137 -0.000007
v 0.184775 0.069068 0.076535
v 0.129992 0.102137 0.053844
v 0.141416 0.069068 0.141416
v 0.099488 0.102137 0.099488
v 0.076535 0.069068 0.184775
v 0.053844 0.102137 0.129992
v -0.000007 0.069068 0.199994
v -0.000007 0.102137 0.140707
v -0.076548 0.069068 0.184775
v -0.053857 0.102137 0.129992
v -0.141429 0.069068 0.141416
v -0.099501 0.102137 0.099488
vt 0.494629 -0.491943
vt 0.528320 -0.409668
vt 0.412354 -0.525879
vt 0.494629 -0.327393
vt 0.412354 -0.293457
vt 0.330078 -0.491943
vt 0.295898 -0.409668
vt 0.330078 -0.327393
vt 0.835449 -0.819824
vt 0.972168 -0.819824
vt 0.835449 -0.712402
vt 0.972168 -0.712402
vt 0.835449 -0.604492
vt 0.972168 -0.604492
vt 0.835449 -0.497314
vt 0.972168 -0.497314
vt 0.835449 -0.389648
vt 0.972168 -0.389648
vt 0.835449 -0.282227
vt 0.972168 -0.282227
vt 0.835449 -0.174683
vt 0.972168 -0.174683
vt 0.835449 -0.067199
vt 0.972168 -0.067199
vt 0.256836 -0.784668
vt 0.125122 -0.696777
vt 0.412354 -0.815918
vt 0.037170 -0.564941
vt 0.006271 -0.409668
vt 0.037170 -0.254150
vt 0.125122 -0.122559
vt 0.256836 -0.034515
vt 0.412354 -0.003620
vt 0.567871 -0.784668
vt 0.699219 -0.696777
vt 0.787598 -0.564941
vt 0.818359 -0.409668
vt 0.787598 -0.254150
vt 0.699219 -0.122559
vt 0.567871 -0.034515
vt 0.938477 -0.855469
vt 0.836914 -0.855469
vt 0.938477 -0.917969
vt 0.836914 -0.917969
vt 0.734863 -0.855469
vt 0.734863 -0.917969
vt 0.633301 -0.855469
vt 0.633301 -0.917969
vt 0.531738 -0.855469
vt 0.531738 -0.917969
vt 0.430176 -0.855469
vt 0.430176 -0.917969
vt 0.328613 -0.855469
vt 0.328613 -0.917969
vt 0.226929 -0.855469
vt 0.226929 -0.917969
vt 0.125244 -0.855469
vt 0.125244 -0.917969
vt 0.003894 -0.854004
vt 0.003894 -0.990723
vt 0.111389 -0.854004
vt 0.111389 -0.990723
vt 0.218872 -0.854004
vt 0.218872 -0.990723
vt 0.326416 -0.990723
vt 0.326416 -0.854004
vt 0.433838 -0.854004
vt 0.433838 -0.990723
vt 0.541504 -0.990723
vt 0.541504 -0.854004
vt 0.648926 -0.854004
vt 0.648926 -0.990723
vt 0.756348 -0.854004
vt 0.756348 -0.990723
vt 0.863770 -0.854004
vt 0.863770 -0.990723
vt 0.971191 -0.854004
vt 0.971191 -0.990723
vt 0.521484 -0.145752
vt 0.412354 -0.124023
vt 0.412354 -0.293457
vt 0.302979 -0.145752
vt 0.330078 -0.327393
vt 0.210327 -0.207642
vt 0.148438 -0.300293
vt 0.295898 -0.409668
vt 0.126587 -0.409668
vt 0.148438 -0.519043
vt 0.330078 -0.491943
vt 0.210327 -0.611816
vt 0.302979 -0.673340
vt 0.412354 -0.525879
vt 0.412354 -0.695313
vt 0.521484 -0.673340
vt 0.494629 -0.491943
vt 0.614258 -0.611816
vt 0.676270 -0.519043
vt 0.528320 -0.409668
vt 0.697754 -0.409668
vt 0.676270 -0.300293
vt 0.494629 -0.327393
vt 0.614258 -0.207642
vt 0.037170 -0.564941
vt 0.148438 -0.519043
vt 0.006271 -0.409668
vt 0.126587 -0.409668
vt 0.037170 -0.254150
vt 0.148438 -0.300293
vt 0.125122 -0.122559
vt 0.210327 -0.207642
vt 0.256836 -0.034515
vt 0.302979 -0.145752
vt 0.412354 -0.003620
vt 0.412354 -0.124023
vt 0.567871 -0.034515
vt 0.521484 -0.145752
vt 0.699219 -0.122559
vt 0.614258 -0.207642
vt 0.787598 -0.254150
vt 0.676270 -0.300293
vt 0.818359 -0.409668
vt 0.697754 -0.409668
vt 0.787598 -0.564941
vt 0.676270 -0.519043
vt 0.699219 -0.696777
vt 0.614258 -0.611816
vt 0.567871 -0.784668
vt 0.521484 -0.673340
vt 0.412354 -0.815918
vt 0.412354 -0.695313
vt 0.256836 -0.784668
vt 0.302979 -0.673340
vt 0.125122 -0.696777
vt 0.210327 -0.611816
vn -0.0000 1.0000 0.0000
vn 0.1950 0.0000 -0.9808
vn 0.3827 0.0000 -0.9239
vn 0.7071 0.0000 -0.7071
vn 0.9239 0.0000 -0.3827
vn 1.0000 0.0000 -0.0000
vn 0.9239 0.0000 0.3827
vn 0.7071 -0.0000 0.7071
vn 0.5556 -0.0000 0.8314
vn -0.0000 -1.0000 -0.0000
vn 0.3828 0.0000 -0.9238
vn 0.0000 -0.0000 1.0000
vn -0.7071 0.0000 0.7071
vn -1.0000 0.0000 0.0000
vn -0.7071 0.0000 -0.7071
vn -0.3828 0.0000 -0.9238
vn -0.1950 0.0000 -0.9808
vn -0.3827 0.0000 -0.9239
vn -0.9239 0.0000 -0.3827
vn -0.9239 -0.0000 0.3827
vn -0.3827 -0.0000 0.9239
vn 0.1950 -0.0000 0.9808
vn -0.4500 0.8734 0.1864
vn -0.4871 0.8733 0.0000
vn -0.4500 0.8734 -0.1864
vn -0.3444 0.8734 -0.3444
vn -0.1864 0.8734 -0.4500
vn -0.0000 0.8733 -0.4871
vn 0.1864 0.8734 -0.4500
vn 0.3444 0.8734 -0.3444
vn 0.4500 0.8734 -0.1864
vn 0.4871 0.8733 -0.0000
vn 0.4500 0.8734 0.1864
vn 0.3444 0.8734 0.3444
vn 0.1864 0.8734 0.4500
vn 0.0000 0.8733 0.4871
vn -0.1864 0.8734 0.4500
vn -0.3444 0.8734 0.3444
usemtl pawn_wp_wp0a_model_wp0a00_BM
s 1
f 135/135/15 136/136/15 137/137/15
f 138/138/15 137/137/15 136/136/15
f 139/139/15 137/137/15 138/138/15
f 137/137/15 139/139/15 140/140/15
f 140/140/15 139/139/15 141/141/15
f 142/142/15 141/141/15 139/139/15
f 143/143/16 144/144/16 145/145/17
f 146/146/17 145/145/17 144/144/16
f 145/145/17 146/146/17 147/147/18
f 148/148/18 147/147/18 146/146/17
f 147/147/18 148/148/18 149/149/19
f 150/150/19 149/149/19 148/148/18
f 149/149/19 150/150/19 151/151/20
f 152/152/20 151/151/20 150/150/19
f 151/151/20 152/152/20 153/153/21
f 154/154/21 153/153/21 152/152/20
f 153/153/21 154/154/21 155/155/22
f 156/156/22 155/155/22 154/154/21
f 155/155/22 156/156/22 157/157/23
f 158/158/23 157/157/23 156/156/22
f 159/159/24 160/160/24 161/161/24
f 162/162/24 161/161/24 160/160/24
f 163/163/24 161/161/24 162/162/24
f 164/164/24 161/161/24 163/163/24
f 165/165/24 161/161/24 164/164/24
f 166/166/24 161/161/24 165/165/24
f 167/167/24 161/161/24 166/166/24
f 161/161/24 167/167/24 168/168/24
f 168/168/24 167/167/24 169/169/24
f 169/169/24 167/167/24 170/170/24
f 170/170/24 167/167/24 171/171/24
f 171/171/24 167/167/24 172/172/24
f 172/172/24 167/167/24 173/173/24
f 174/174/24 173/173/24 167/167/24
f 175/175/25 176/176/18 177/177/25
f 177/177/25 176/176/18 178/178/18
f 179/179/20 178/178/18 176/176/18
f 178/178/18 179/179/20 180/180/20
f 181/181/22 180/180/20 179/179/20
f 180/180/20 181/181/22 182/182/22
f 183/183/26 182/182/22 181/181/22
f 182/182/22 183/183/26 184/184/26
f 185/185/27 184/184/26 183/183/26
f 184/184/26 185/185/27 186/186/27
f 187/187/28 186/186/27 185/185/27
f 186/186/27 187/187/28 188/188/28
f 189/189/29 188/188/28 187/187/28
f 188/188/28 189/189/29 190/190/29
f 191/191/30 190/190/29 189/189/29
f 190/190/29 191/191/30 192/192/30
f 193/193/31 194/194/31 195/195/32
f 196/196/32 195/195/32 194/194/31
f 195/195/32 196/196/32 197/197/29
f 198/198/29 197/197/29 196/196/32
f 199/199/33 197/197/29 198/198/29
f 197/197/29 199/199/33 200/200/33
f 200/200/33 199/199/33 201/201/28
f 202/202/28 201/201/28 199/199/33
f 203/203/34 201/201/28 202/202/28
f 201/201/28 203/203/34 204/204/34
f 204/204/34 203/203/34 205/205/27
f 206/206/27 205/205/27 203/203/34
f 205/205/27 206/206/27 207/207/35
f 208/208/35 207/207/35 206/206/27
f 207/207/35 208/208/35 209/209/26
f 210/210/26 209/209/26 208/208/35
f 209/209/26 210/210/26 211/211/36
f 212/212/36 211/211/36 210/210/26
f 213/213/15 214/214/15 215/215/15
f 216/216/15 215/215/15 214/214/15
f 215/215/15 216/216/15 217/217/15
f 218/218/15 217/217/15 216/216/15
f 219/219/15 217/217/15 218/218/15
f 217/217/15 219/219/15 220/220/15
f 221/221/15 220/220/15 219/219/15
f 222/222/15 220/220/15 221/221/15
f 220/220/15 222/222/15 223/223/15
f 224/224/15 223/223/15 222/222/15
f 225/225/15 223/223/15 224/224/15
f 223/223/15 225/225/15 226/226/15
f 227/227/15 226/226/15 225/225/15
f 228/228/15 226/226/15 227/227/15
f 226/226/15 228/228/15 229/229/15
f 230/230/15 229/229/15 228/228/15
f 231/231/15 229/229/15 230/230/15
f 229/229/15 231/231/15 232/232/15
f 233/233/15 232/232/15 231/231/15
f 234/234/15 232/232/15 233/233/15
f 232/232/15 234/234/15 235/235/15
f 236/236/15 235/235/15 234/234/15
f 213/213/15 235/235/15 236/236/15
f 235/235/15 213/213/15 215/215/15
f 237/237/37 238/238/37 239/239/38
f 240/240/38 239/239/38 238/238/37
f 239/239/38 240/240/38 241/241/39
f 242/242/39 241/241/39 240/240/38
f 241/241/39 242/242/39 243/243/40
f 244/244/40 243/243/40 242/242/39
f 243/243/40 244/244/40 245/245/41
f 246/246/41 245/245/41 244/244/40
f 245/245/41 246/246/41 247/247/42
f 248/248/42 247/247/42 246/246/41
f 247/247/42 248/248/42 249/249/43
f 250/250/43 249/249/43 248/248/42
f 249/249/43 250/250/43 251/251/44
f 252/252/44 251/251/44 250/250/43
f 251/251/44 252/252/44 253/253/45
f 254/254/45 253/253/45 252/252/44
f 253/253/45 254/254/45 255/255/46
f 256/256/46 255/255/46 254/254/45
f 255/255/46 256/256/46 257/257/47
f 258/258/47 257/257/47 256/256/46
f 257/257/47 258/258/47 259/259/48
f 260/260/48 259/259/48 258/258/47
f 259/259/48 260/260/48 261/261/49
f 262/262/49 261/261/49 260/260/48
f 261/261/49 262/262/49 263/263/50
f 264/264/50 263/263/50 262/262/49
f 263/263/50 264/264/50 265/265/51
f 266/266/51 265/265/51 264/264/50
f 265/265/51 266/266/51 267/267/52
f 268/268/52 267/267/52 266/266/51
f 267/267/52 268/268/52 237/237/37
f 238/238/37 237/237/37 268/268/52
