# Blender v2.76 (sub 0) OBJ File: ''
# www.blender.org
mtllib Apples and Oranges.mtl
o Model001_24_produce_0.5_12_1
v 0.001403 0.003496 0.029024
v 0.001199 -0.000317 -0.000328
v 0.018512 0.003429 0.020447
v 0.001505 0.018251 0.045408
v -0.017731 0.003734 0.021114
v 0.001199 -0.000317 -0.000328
v 0.032758 0.017516 0.033414
v 0.001607 0.042986 0.054109
v -0.032769 0.019564 0.032678
v 0.039637 0.042783 0.040508
v 0.044197 0.017448 0.000487
v 0.053453 0.042715 0.000543
v 0.036707 0.071342 0.037533
v 0.025403 0.003406 -0.000124
v 0.001199 -0.000317 -0.000328
v 0.001629 0.071478 0.049414
v -0.038743 0.043507 0.038189
v -0.034862 0.071410 0.035190
v -0.045679 0.021171 -0.000124
v -0.053453 0.043994 -0.000679
v 0.048927 0.071478 0.000475
v 0.026364 0.094550 0.026398
v -0.022653 0.094550 0.025437
v 0.002150 0.094957 0.033482
v -0.047411 0.071546 -0.000735
v 0.033414 0.094957 0.000475
v -0.029838 0.094957 0.000158
v 0.016464 0.105039 0.000464
v -0.012209 0.105039 0.000373
v 0.002252 0.105039 0.015536
v 0.002252 0.105039 0.015536
v 0.013601 0.104700 0.012650
v 0.013601 0.104700 0.012650
v -0.009312 0.104700 0.012300
v -0.009312 0.104700 0.012300
v 0.002252 0.104496 0.000419
v 0.002252 0.104496 0.000419
v 0.002252 0.104496 0.000419
v 0.002252 0.104496 0.000419
v -0.025697 0.004085 0.000532
v 0.001199 -0.000317 -0.000328
v 0.025403 0.003406 -0.000124
v 0.001199 -0.000317 -0.000328
v 0.019010 0.003802 -0.020492
v 0.044197 0.017448 0.000487
v 0.032973 0.019247 -0.032350
v 0.053453 0.042715 0.000543
v 0.039750 0.043337 -0.039535
v 0.002184 0.022065 -0.044955
v 0.002580 0.044412 -0.054109
v 0.036808 0.071342 -0.036707
v 0.048927 0.071478 0.000475
v 0.001471 0.004458 -0.028899
v 0.001199 -0.000317 -0.000328
v -0.031026 0.022755 -0.033685
v -0.017889 0.004560 -0.020447
v 0.002580 0.071682 -0.049617
v 0.026364 0.094550 -0.025448
v -0.035914 0.044582 -0.040814
v -0.032248 0.071478 -0.037815
v 0.033414 0.094957 0.000475
v 0.001199 -0.000317 -0.000328
v -0.053453 0.043994 -0.000679
v -0.025697 0.004085 0.000532
v -0.045679 0.021171 -0.000124
v 0.001199 -0.000317 -0.000328
v 0.002399 0.094957 -0.032837
v -0.021533 0.094550 -0.025912
v -0.047411 0.071546 -0.000735
v 0.016464 0.105039 0.000464
v -0.029838 0.094957 0.000158
v -0.012209 0.105039 0.000373
v -0.008905 0.104700 -0.011892
v 0.002252 0.104496 0.000419
v 0.002308 0.105039 -0.014698
v -0.008905 0.104700 -0.011892
v 0.002252 0.104496 0.000419
v 0.002308 0.105039 -0.014698
v 0.013601 0.104700 -0.011723
v 0.002252 0.104496 0.000419
v 0.013601 0.104700 -0.011723
v 0.002252 0.104496 0.000419
v 0.115890 0.020560 -0.077419
v 0.111953 0.049515 -0.082114
v 0.129910 0.032067 -0.071274
v 0.113265 0.003938 -0.063195
v 0.097028 0.024893 -0.084875
v 0.111953 0.049515 -0.082114
v 0.139709 0.021363 -0.052344
v 0.105390 -0.005488 -0.040022
v 0.079421 0.010286 -0.075552
v 0.137570 0.014687 -0.026104
v 0.144201 0.055773 -0.049210
v 0.142956 0.056463 -0.022325
v 0.123415 0.016079 -0.001007
v 0.132467 0.053521 -0.069407
v 0.111953 0.049515 -0.082114
v 0.093713 -0.001867 -0.013884
v 0.065821 0.002931 -0.055592
v 0.058115 0.005590 -0.028458
v 0.061227 0.040192 -0.080180
v 0.045340 0.038540 -0.062154
v 0.127839 0.054664 0.002478
v 0.103183 0.024328 0.016079
v 0.058568 0.016532 -0.002727
v 0.082318 0.013035 0.007423
v 0.040226 0.038675 -0.034353
v 0.104768 0.051077 0.018217
v 0.047377 0.040090 -0.006020
v 0.085566 0.047682 0.021012
v 0.059529 0.042647 0.010037
v 0.075348 0.030336 0.016113
v 0.075348 0.030336 0.016113
v 0.085226 0.035202 0.020062
v 0.085226 0.035202 0.020062
v 0.064406 0.031456 0.011270
v 0.064406 0.031456 0.011270
v 0.072859 0.045204 0.015094
v 0.072859 0.045204 0.015094
v 0.072859 0.045204 0.015094
v 0.072859 0.045204 0.015094
v 0.085984 0.043722 -0.088327
v 0.111953 0.049515 -0.082114
v 0.132467 0.053521 -0.069407
v 0.111953 0.049515 -0.082114
v 0.122861 0.072372 -0.072168
v 0.144201 0.055773 -0.049210
v 0.127488 0.085984 -0.053000
v 0.142956 0.056463 -0.022325
v 0.123143 0.093373 -0.028458
v 0.096270 0.092751 -0.062675
v 0.086392 0.101034 -0.042228
v 0.110221 0.089096 -0.003587
v 0.127839 0.054664 0.002478
v 0.105254 0.077487 -0.078595
v 0.111953 0.049515 -0.082114
v 0.067925 0.075767 -0.074307
v 0.089164 0.065707 -0.085633
v 0.076796 0.095647 -0.016905
v 0.093860 0.075348 0.014223
v 0.053838 0.081085 -0.056316
v 0.047411 0.077837 -0.029974
v 0.104768 0.051077 0.018217
v 0.111953 0.049515 -0.082114
v 0.045340 0.038540 -0.062154
v 0.085984 0.043722 -0.088327
v 0.061227 0.040192 -0.080180
v 0.111953 0.049515 -0.082114
v 0.070686 0.078313 0.005148
v 0.050421 0.067235 -0.004141
v 0.040226 0.038675 -0.034353
v 0.085566 0.047682 0.021012
v 0.047377 0.040090 -0.006020
v 0.059529 0.042647 0.010037
v 0.060468 0.055320 0.010568
v 0.072859 0.045204 0.015094
v 0.069996 0.060084 0.015061
v 0.060468 0.055320 0.010568
v 0.072859 0.045204 0.015094
v 0.069996 0.060084 0.015061
v 0.080870 0.059190 0.019202
v 0.072859 0.045204 0.015094
v 0.080870 0.059190 0.019202
v 0.072859 0.045204 0.015094
v 0.066782 0.003021 0.106838
v 0.085566 -0.000498 0.083008
v 0.085781 0.000147 0.111195
v 0.057979 0.016735 0.121548
v 0.057119 0.006382 0.088055
v 0.085566 -0.000498 0.083008
v 0.090261 0.010930 0.132388
v 0.055693 0.039750 0.131358
v 0.039886 0.023581 0.089164
v 0.094335 0.033323 0.145446
v 0.120994 0.008984 0.113820
v 0.131630 0.030992 0.122793
v 0.098001 0.060355 0.144484
v 0.104835 -0.000996 0.099381
v 0.085566 -0.000498 0.083008
v 0.062743 0.066262 0.130940
v 0.034862 0.046856 0.092411
v 0.043722 0.072168 0.095795
v 0.051835 0.027213 0.054935
v 0.049312 0.049730 0.052073
v 0.132116 0.058500 0.123143
v 0.100490 0.083699 0.131562
v 0.062913 0.091710 0.098759
v 0.076932 0.088055 0.121344
v 0.057843 0.074375 0.059156
v 0.123279 0.082873 0.115675
v 0.074171 0.093305 0.074035
v 0.111466 0.095025 0.105729
v 0.089164 0.099800 0.086946
v 0.090329 0.097379 0.108354
v 0.090329 0.097379 0.108354
v 0.101113 0.095240 0.113469
v 0.101113 0.095240 0.113469
v 0.083427 0.098963 0.098205
v 0.083427 0.098963 0.098205
v 0.100343 0.096892 0.096338
v 0.100343 0.096892 0.096338
v 0.100343 0.096892 0.096338
v 0.100343 0.096892 0.096338
v 0.064644 0.008011 0.066579
v 0.085566 -0.000498 0.083008
v 0.104835 -0.000996 0.099381
v 0.085566 -0.000498 0.083008
v 0.113401 0.000419 0.079150
v 0.120994 0.008984 0.113820
v 0.134323 0.012503 0.080666
v 0.131630 0.030992 0.122793
v 0.147652 0.033810 0.082182
v 0.119059 0.020186 0.050862
v 0.128529 0.040882 0.046483
v 0.147381 0.060401 0.085781
v 0.132116 0.058500 0.123143
v 0.105458 0.003915 0.061091
v 0.085566 -0.000498 0.083008
v 0.085781 0.026274 0.038155
v 0.084740 0.007174 0.055150
v 0.129288 0.066262 0.053181
v 0.134945 0.083699 0.090476
v 0.089707 0.047377 0.031818
v 0.094267 0.071829 0.039716
v 0.123279 0.082873 0.115675
v 0.085566 -0.000498 0.083008
v 0.049312 0.049730 0.052073
v 0.064644 0.008011 0.066579
v 0.051835 0.027213 0.054935
v 0.085566 -0.000498 0.083008
v 0.121209 0.087987 0.069023
v 0.097933 0.091574 0.058805
v 0.057843 0.074375 0.059156
v 0.111466 0.095025 0.105729
v 0.074171 0.093305 0.074035
v 0.089164 0.099800 0.086946
v 0.099868 0.098895 0.079354
v 0.100343 0.096892 0.096338
v 0.110504 0.097379 0.084468
v 0.099868 0.098895 0.079354
v 0.100343 0.096892 0.096338
v 0.110504 0.097379 0.084468
v 0.117271 0.095240 0.094199
v 0.100343 0.096892 0.096338
v 0.117271 0.095240 0.094199
v 0.100343 0.096892 0.096338
v -0.120858 -0.001448 -0.012424
v -0.144484 -0.004356 -0.031479
v -0.120168 -0.000860 -0.034828
v -0.100626 0.022551 -0.035496
v -0.126459 0.001878 -0.055456
v -0.144484 -0.004356 -0.031479
v -0.108219 0.019666 0.002206
v -0.096417 0.048554 -0.034251
v -0.115890 0.025086 -0.067891
v -0.137989 0.018512 0.019134
v -0.140750 -0.002987 -0.005805
v -0.144484 -0.004356 -0.031479
v -0.136880 0.043405 0.026500
v -0.104428 0.044921 0.007615
v -0.110289 0.066816 0.004390
v -0.113129 0.051348 -0.069611
v -0.119206 0.074171 -0.059948
v -0.105186 0.071139 -0.031411
v -0.150968 0.025765 -0.074454
v -0.151522 0.052208 -0.076728
v -0.137570 0.063920 0.020526
v -0.121061 0.082533 -0.004696
v -0.127624 0.085430 -0.044989
v -0.150006 0.075212 -0.065504
v -0.117542 0.084468 -0.027711
v -0.139505 0.079150 0.005816
v -0.141236 0.081628 -0.006088
v -0.129073 0.084536 -0.013137
v -0.148207 0.085781 -0.048587
v -0.133293 0.085294 -0.036401
v -0.125904 0.085566 -0.026534
v -0.144891 0.079286 -0.024418
v -0.144891 0.079286 -0.024418
v -0.146826 0.084807 -0.039366
v -0.144891 0.079286 -0.024418
v -0.144891 0.079286 -0.024418
v -0.148207 0.000905 -0.055976
v -0.144484 -0.004356 -0.031479
v -0.168789 -0.001165 -0.027643
v -0.168789 0.001607 -0.049210
v -0.144484 -0.004356 -0.031479
v -0.188817 0.021974 -0.023151
v -0.162848 -0.001652 -0.007129
v -0.144484 -0.004356 -0.031479
v -0.182876 0.024656 -0.058013
v -0.192551 0.046924 -0.020718
v -0.174175 0.019496 0.008611
v -0.186192 0.050658 -0.058839
v -0.151522 0.052208 -0.076728
v -0.150968 0.025765 -0.074454
v -0.177626 0.072101 -0.051518
v -0.148207 0.000905 -0.055976
v -0.144484 -0.004356 -0.031479
v -0.150006 0.075212 -0.065504
v -0.176529 0.044129 0.014744
v -0.170305 0.062471 0.010580
v -0.183159 0.065753 -0.020741
v -0.166583 0.082386 -0.039818
v -0.136880 0.043405 0.026500
v -0.148207 0.085781 -0.048587
v -0.137570 0.063920 0.020526
v -0.160778 0.074794 0.000475
v -0.171143 0.076525 -0.020413
v -0.158571 0.082182 -0.033459
v -0.146826 0.084807 -0.039366
v -0.139505 0.079150 0.005816
v -0.141236 0.081628 -0.006088
v -0.154837 0.077622 -0.009301
v -0.162848 0.078313 -0.021612
v -0.144891 0.079286 -0.024418
v -0.144891 0.079286 -0.024418
v -0.144891 0.079286 -0.024418
v -0.144891 0.079286 -0.024418
v -0.140750 -0.002987 -0.005805
v -0.144484 -0.004356 -0.031479
v -0.137989 0.018512 0.019134
v -0.003768 0.008645 -0.119274
v 0.020051 0.000000 -0.140399
v 0.020051 0.008147 -0.114917
v 0.019598 0.037227 -0.098623
v 0.043269 0.008781 -0.118515
v 0.020051 0.000000 -0.140399
v -0.019609 0.034828 -0.112507
v 0.019768 0.066409 -0.099314
v 0.056768 0.035303 -0.109667
v -0.033052 0.028967 -0.146555
v -0.007807 0.003655 -0.141089
v 0.020051 0.000000 -0.140399
v -0.039015 0.056734 -0.151386
v -0.023875 0.063331 -0.114227
v -0.017720 0.085916 -0.124037
v 0.060321 0.064327 -0.111398
v 0.052865 0.088609 -0.123834
v 0.019994 0.089503 -0.113401
v 0.069306 0.029125 -0.145717
v 0.074035 0.057696 -0.150832
v -0.030834 0.078595 -0.154973
v -0.005024 0.100490 -0.136812
v 0.039196 0.100140 -0.137435
v 0.063750 0.083631 -0.155528
v 0.019111 0.101939 -0.129559
v -0.013601 0.093995 -0.157462
v -0.000430 0.095647 -0.157734
v 0.005409 0.100694 -0.144201
v 0.046302 0.096485 -0.158571
v 0.030924 0.099381 -0.144755
v 0.019270 0.101656 -0.138815
v 0.019496 0.091370 -0.158017
v 0.019496 0.091370 -0.158017
v 0.036152 0.096202 -0.158424
v 0.019496 0.091370 -0.158017
v 0.019496 0.091370 -0.158017
v 0.047173 0.003655 -0.141089
v 0.020051 0.000000 -0.140399
v 0.020051 -0.000849 -0.167273
v 0.043269 0.000962 -0.164093
v 0.020051 0.000000 -0.140399
v 0.020333 0.020877 -0.193648
v -0.002784 0.000894 -0.164512
v 0.020051 0.000000 -0.140399
v 0.056768 0.022925 -0.181768
v 0.020390 0.047513 -0.202633
v -0.016034 0.022721 -0.183012
v 0.060321 0.050556 -0.190062
v 0.074035 0.057696 -0.150832
v 0.069306 0.029125 -0.145717
v 0.052933 0.075902 -0.186463
v 0.047173 0.003655 -0.141089
v 0.020051 0.000000 -0.140399
v 0.063750 0.083631 -0.155528
v -0.020164 0.049447 -0.191170
v -0.015208 0.070335 -0.187436
v 0.020481 0.069758 -0.196274
v 0.039569 0.089854 -0.178735
v -0.039015 0.056734 -0.151386
v 0.046302 0.096485 -0.158571
v -0.030834 0.078595 -0.154973
v -0.004922 0.084943 -0.178045
v 0.019111 0.083699 -0.185637
v 0.031524 0.091438 -0.171414
v 0.036152 0.096202 -0.158424
v -0.013601 0.093995 -0.157462
v -0.000430 0.095647 -0.157734
v 0.004798 0.088609 -0.170588
v 0.019270 0.087161 -0.177072
v 0.019496 0.091370 -0.158017
v 0.019496 0.091370 -0.158017
v 0.019496 0.091370 -0.158017
v 0.019496 0.091370 -0.158017
v -0.007807 0.003655 -0.141089
v 0.020051 0.000000 -0.140399
v -0.033052 0.028967 -0.146555
v -0.043507 0.009267 -0.219062
v -0.026998 0.032531 -0.208155
v -0.051213 0.029284 -0.212432
v -0.070415 0.031660 -0.236058
v -0.051801 0.050556 -0.208019
v -0.026998 0.032531 -0.208155
v -0.051281 -0.000690 -0.244759
v -0.074590 0.037849 -0.261336
v -0.066194 0.066092 -0.226802
v -0.017674 -0.007151 -0.246411
v -0.022517 0.008882 -0.217965
v -0.026998 0.032531 -0.208155
v -0.016905 -0.005861 -0.272380
v -0.053657 0.001663 -0.270592
v -0.049515 0.013544 -0.289782
v -0.069928 0.075484 -0.251254
v -0.061498 0.076174 -0.275423
v -0.065753 0.045408 -0.282744
v -0.034930 0.082805 -0.222378
v -0.035745 0.093713 -0.246558
v -0.018512 0.006461 -0.289782
v -0.042511 0.030132 -0.300837
v -0.048995 0.069102 -0.290065
v -0.034115 0.090816 -0.271972
v -0.053114 0.050274 -0.295587
v -0.021612 0.025210 -0.299457
v -0.023762 0.037193 -0.297794
v -0.037566 0.040780 -0.299174
v -0.030642 0.078663 -0.287576
v -0.040950 0.063060 -0.292272
v -0.044820 0.052107 -0.296142
v -0.025980 0.053906 -0.289239
v -0.025980 0.053906 -0.289239
v -0.029080 0.069645 -0.289511
v -0.025980 0.053906 -0.289239
v -0.025980 0.053906 -0.289239
v -0.031354 0.057289 -0.204975
v -0.026998 0.032531 -0.208155
v -0.002784 0.037533 -0.210225
v -0.009675 0.057742 -0.206084
v -0.026998 0.032531 -0.208155
v 0.017210 0.047241 -0.231769
v -0.001912 0.017244 -0.216856
v -0.026998 0.032531 -0.208155
v 0.000407 0.077419 -0.223758
v 0.020944 0.054426 -0.255803
v 0.013295 0.013567 -0.240889
v 0.002863 0.087783 -0.247792
v -0.035745 0.093713 -0.246558
v -0.034930 0.082805 -0.222378
v -0.003327 0.085701 -0.270999
v -0.031354 0.057289 -0.204975
v -0.026998 0.032531 -0.208155
v -0.034115 0.090816 -0.271972
v 0.016950 0.016905 -0.265896
v 0.009414 0.024792 -0.282462
v 0.011666 0.057775 -0.274450
v -0.010376 0.075280 -0.285370
v -0.016905 -0.005861 -0.272380
v -0.030642 0.078663 -0.287576
v -0.018512 0.006461 -0.289782
v -0.003089 0.034975 -0.291717
v 0.000113 0.057357 -0.285641
v -0.015932 0.067133 -0.287848
v -0.029080 0.069645 -0.289511
v -0.021612 0.025210 -0.299457
v -0.023762 0.037193 -0.297794
v -0.011858 0.042851 -0.291717
v -0.008124 0.056565 -0.287848
v -0.025980 0.053906 -0.289239
v -0.025980 0.053906 -0.289239
v -0.025980 0.053906 -0.289239
v -0.025980 0.053906 -0.289239
v -0.022517 0.008882 -0.217965
v -0.026998 0.032531 -0.208155
v -0.017674 -0.007151 -0.246411
v -0.117339 0.002738 -0.114917
v -0.122102 0.022223 -0.091857
v -0.129910 0.021250 -0.115404
v -0.119828 0.029657 -0.142956
v -0.137570 0.041063 -0.110504
v -0.122102 0.022223 -0.091857
v -0.097718 -0.001018 -0.135364
v -0.101316 0.041368 -0.157598
v -0.131155 0.061057 -0.129627
v -0.078460 -0.008713 -0.108083
v -0.107732 0.001041 -0.096270
v -0.122102 0.022223 -0.091857
v -0.056146 -0.001901 -0.119613
v -0.077215 0.006982 -0.149451
v -0.060740 0.022461 -0.153185
v -0.113673 0.075620 -0.143092
v -0.089017 0.081085 -0.147098
v -0.079840 0.052899 -0.159126
v -0.122102 0.074726 -0.097865
v -0.103659 0.090612 -0.108434
v -0.044095 0.013952 -0.127421
v -0.050556 0.040644 -0.149723
v -0.069170 0.076661 -0.144484
v -0.080734 0.093169 -0.119545
v -0.063501 0.059744 -0.153457
v -0.040576 0.034444 -0.131777
v -0.044955 0.045895 -0.131007
v -0.051077 0.050455 -0.143239
v -0.063818 0.084468 -0.125836
v -0.062403 0.070856 -0.139369
v -0.059088 0.061261 -0.146272
v -0.055908 0.060502 -0.126459
v -0.055908 0.060502 -0.126459
v -0.059744 0.076038 -0.126866
v -0.055908 0.060502 -0.126459
v -0.055908 0.060502 -0.126459
v -0.131007 0.045895 -0.090409
v -0.122102 0.022223 -0.091857
v -0.109045 0.026274 -0.071207
v -0.119409 0.045408 -0.072033
v -0.122102 0.022223 -0.091857
v -0.082318 0.039332 -0.062641
v -0.099721 0.007875 -0.076661
v -0.122102 0.022223 -0.091857
v -0.102425 0.067959 -0.068751
v -0.061159 0.051314 -0.069792
v -0.071139 0.008667 -0.075484
v -0.082465 0.083088 -0.076525
v -0.103659 0.090612 -0.108434
v -0.122102 0.074726 -0.097865
v -0.065334 0.086392 -0.093305
v -0.131007 0.045895 -0.090409
v -0.122102 0.022223 -0.091857
v -0.080734 0.093169 -0.119545
v -0.048520 0.017120 -0.083699
v -0.039467 0.028763 -0.096892
v -0.050488 0.059088 -0.086120
v -0.054867 0.079693 -0.107811
v -0.056146 -0.001901 -0.119613
v -0.063818 0.084468 -0.125836
v -0.044095 0.013952 -0.127421
v -0.039467 0.041334 -0.110572
v -0.046517 0.061747 -0.101588
v -0.054177 0.072587 -0.115053
v -0.059744 0.076038 -0.126866
v -0.040576 0.034444 -0.131777
v -0.044955 0.045895 -0.131007
v -0.044989 0.049515 -0.117056
v -0.048757 0.061815 -0.109814
v -0.055908 0.060502 -0.126459
v -0.055908 0.060502 -0.126459
v -0.055908 0.060502 -0.126459
v -0.055908 0.060502 -0.126459
v -0.107732 0.001041 -0.096270
v -0.122102 0.022223 -0.091857
v -0.078460 -0.008713 -0.108083
v -0.192822 0.016724 -0.203187
v -0.178316 0.000000 -0.178735
v -0.203595 0.007785 -0.183295
v -0.221823 0.035224 -0.178452
v -0.206503 0.000057 -0.161332
v -0.178316 0.000000 -0.178735
v -0.197518 0.046856 -0.210225
v -0.224177 0.062403 -0.168099
v -0.221416 0.020085 -0.142821
v -0.160642 0.045962 -0.214367
v -0.170441 0.013352 -0.202078
v -0.178316 0.000000 -0.178735
v -0.157191 0.073968 -0.208709
v -0.197518 0.074997 -0.203730
v -0.191996 0.093792 -0.187708
v -0.223487 0.045895 -0.129152
v -0.211889 0.071139 -0.123834
v -0.212986 0.083778 -0.155946
v -0.189779 0.009573 -0.123143
v -0.188953 0.034545 -0.107664
v -0.158153 0.091506 -0.192822
v -0.184811 0.102833 -0.167680
v -0.196274 0.086742 -0.128111
v -0.184257 0.062437 -0.106567
v -0.198491 0.095647 -0.147652
v -0.162022 0.099653 -0.171550
v -0.165609 0.096553 -0.159126
v -0.180534 0.099246 -0.156082
v -0.177762 0.080598 -0.116852
v -0.186882 0.088949 -0.133565
v -0.189643 0.095240 -0.144891
v -0.170305 0.085430 -0.142685
v -0.170305 0.085430 -0.142685
v -0.175001 0.083982 -0.126040
v -0.170305 0.085430 -0.142685
v -0.170305 0.085430 -0.142685
v -0.185502 -0.006280 -0.153038
v -0.178316 0.000000 -0.178735
v -0.152495 -0.000973 -0.171143
v -0.162158 -0.007559 -0.150696
v -0.178316 0.000000 -0.178735
v -0.129627 0.019032 -0.155663
v -0.149180 0.008826 -0.191714
v -0.178316 0.000000 -0.178735
v -0.151250 0.008034 -0.125972
v -0.123687 0.043858 -0.143929
v -0.129910 0.033810 -0.190616
v -0.146826 0.032497 -0.110844
v -0.188953 0.034545 -0.107664
v -0.189779 0.009573 -0.123143
v -0.150832 0.058839 -0.109814
v -0.185502 -0.006280 -0.153038
v -0.178316 0.000000 -0.178735
v -0.184257 0.062437 -0.106567
v -0.123551 0.060186 -0.182741
v -0.130532 0.077973 -0.172240
v -0.131913 0.064610 -0.137989
v -0.155946 0.076661 -0.119206
v -0.157191 0.073968 -0.208709
v -0.177762 0.080598 -0.116852
v -0.158153 0.091506 -0.192822
v -0.143929 0.087987 -0.160778
v -0.143092 0.078245 -0.137570
v -0.160914 0.081153 -0.127975
v -0.175001 0.083982 -0.126040
v -0.162022 0.099653 -0.171550
v -0.165609 0.096553 -0.159126
v -0.154011 0.088055 -0.153038
v -0.151658 0.081492 -0.138747
v -0.170305 0.085430 -0.142685
v -0.170305 0.085430 -0.142685
v -0.170305 0.085430 -0.142685
v -0.170305 0.085430 -0.142685
v -0.170441 0.013352 -0.202078
v -0.178316 0.000000 -0.178735
v -0.160642 0.045962 -0.214367
vt 0.065000 0.852000
vt 0.073000 0.874000
vt 0.082000 0.854000
vt 0.065000 0.836000
vt 0.046000 0.853000
vt 0.056000 0.873000
vt 0.089000 0.838000
vt 0.065000 0.818000
vt 0.038000 0.836000
vt 0.093000 0.818000
vt 0.113000 0.847000
vt 0.123000 0.822000
vt 0.091000 0.799000
vt 0.098000 0.862000
vt 0.084000 0.875000
vt 0.065000 0.798000
vt 0.035000 0.818000
vt 0.036000 0.799000
vt 0.013000 0.844000
vt 0.004000 0.821000
vt 0.120000 0.794000
vt 0.087000 0.778000
vt 0.042000 0.778000
vt 0.065000 0.777000
vt 0.008000 0.794000
vt 0.108000 0.772000
vt 0.022000 0.771000
vt 0.099000 0.759000
vt 0.031000 0.759000
vt 0.059000 0.763000
vt 0.071000 0.763000
vt 0.090000 0.763000
vt 0.080000 0.763000
vt 0.050000 0.764000
vt 0.040000 0.763000
vt 0.093000 0.751000
vt 0.038000 0.751000
vt 0.055000 0.753000
vt 0.074000 0.753000
vt 0.030000 0.860000
vt 0.045000 0.875000
vt 0.152000 0.861000
vt 0.167000 0.874000
vt 0.167000 0.853000
vt 0.136000 0.847000
vt 0.160000 0.836000
vt 0.126000 0.822000
vt 0.157000 0.818000
vt 0.184000 0.833000
vt 0.184000 0.816000
vt 0.158000 0.799000
vt 0.129000 0.794000
vt 0.185000 0.851000
vt 0.177000 0.872000
vt 0.210000 0.834000
vt 0.204000 0.852000
vt 0.184000 0.798000
vt 0.162000 0.778000
vt 0.212000 0.817000
vt 0.211000 0.799000
vt 0.141000 0.772000
vt 0.193000 0.872000
vt 0.244000 0.821000
vt 0.220000 0.860000
vt 0.236000 0.844000
vt 0.203000 0.874000
vt 0.184000 0.777000
vt 0.207000 0.778000
vt 0.240000 0.794000
vt 0.150000 0.759000
vt 0.228000 0.771000
vt 0.218000 0.758000
vt 0.209000 0.762000
vt 0.211000 0.751000
vt 0.190000 0.763000
vt 0.199000 0.763000
vt 0.193000 0.753000
vt 0.179000 0.763000
vt 0.159000 0.763000
vt 0.157000 0.751000
vt 0.170000 0.763000
vt 0.175000 0.753000
vt 0.043000 0.905000
vt 0.057000 0.883000
vt 0.065000 0.902000
vt 0.065000 0.927000
vt 0.087000 0.905000
vt 0.073000 0.883000
vt 0.035000 0.927000
vt 0.065000 0.945000
vt 0.093000 0.927000
vt 0.008000 0.922000
vt 0.026000 0.897000
vt 0.040000 0.880000
vt 0.003000 0.949000
vt 0.033000 0.946000
vt 0.037000 0.963000
vt 0.094000 0.946000
vt 0.090000 0.964000
vt 0.065000 0.963000
vt 0.121000 0.922000
vt 0.124000 0.950000
vt 0.013000 0.972000
vt 0.045000 0.977000
vt 0.082000 0.979000
vt 0.113000 0.976000
vt 0.065000 0.977000
vt 0.030000 0.986000
vt 0.040000 0.991000
vt 0.051000 0.984000
vt 0.096000 0.989000
vt 0.077000 0.986000
vt 0.065000 0.983000
vt 0.053000 0.999000
vt 0.059000 0.998000
vt 0.087000 0.993000
vt 0.071000 0.997000
vt 0.076000 0.999000
vt 0.104000 0.897000
vt 0.092000 0.880000
vt 0.184000 0.902000
vt 0.163000 0.905000
vt 0.177000 0.883000
vt 0.184000 0.927000
vt 0.206000 0.905000
vt 0.192000 0.883000
vt 0.157000 0.927000
vt 0.184000 0.945000
vt 0.211000 0.928000
vt 0.156000 0.946000
vt 0.125000 0.950000
vt 0.129000 0.922000
vt 0.159000 0.964000
vt 0.145000 0.897000
vt 0.158000 0.880000
vt 0.137000 0.976000
vt 0.213000 0.946000
vt 0.211000 0.960000
vt 0.184000 0.961000
vt 0.167000 0.977000
vt 0.245000 0.949000
vt 0.154000 0.988000
vt 0.236000 0.972000
vt 0.205000 0.974000
vt 0.185000 0.973000
vt 0.172000 0.983000
vt 0.163000 0.991000
vt 0.220000 0.986000
vt 0.209000 0.990000
vt 0.199000 0.981000
vt 0.185000 0.980000
vt 0.175000 0.997000
vt 0.181000 0.995000
vt 0.194000 0.996000
vt 0.190000 0.994000
vt 0.224000 0.897000
vt 0.210000 0.880000
vt 0.241000 0.922000
vn 0.009200 -0.911300 0.411600
vn -0.007700 -0.999800 -0.015900
vn 0.336600 -0.885500 0.320400
vn -0.003700 -0.635200 0.772300
vn -0.360600 -0.869300 0.338000
vn -0.007700 -0.999800 -0.015800
vn 0.601600 -0.531900 0.596000
vn -0.015700 -0.091300 0.995700
vn -0.622600 -0.492300 0.608300
vn 0.706100 -0.114900 0.698700
vn 0.742100 -0.670200 -0.010800
vn 0.994500 -0.104300 -0.000400
vn 0.679400 0.294900 0.671900
vn 0.384700 -0.923000 -0.005100
vn -0.018000 0.429000 0.903100
vn -0.710100 -0.077900 0.699800
vn -0.677900 0.315900 0.663800
vn -0.790800 -0.611800 0.018600
vn -0.997400 -0.067500 -0.027000
vn 0.908500 0.417800 0.001100
vn 0.474700 0.749100 0.462000
vn -0.470900 0.754500 0.457200
vn -0.009500 0.737900 0.674800
vn -0.883100 0.468800 -0.019900
vn 0.688900 0.724800 -0.000000
vn -0.660200 0.751000 -0.009800
vn 0.342800 0.939400 0.000000
vn -0.333300 0.942800 -0.004600
vn -0.004400 0.944900 0.327300
vn 0.170500 0.971800 0.162900
vn -0.170200 0.971700 0.163700
vn -0.000000 1.000000 0.000200
vn -0.000100 1.000000 0.000200
vn -0.478200 -0.874600 -0.079500
vn -0.007600 -0.999800 -0.015900
vn 0.342100 -0.865500 -0.365800
vn 0.742100 -0.670200 -0.010900
vn 0.599000 -0.522200 -0.607100
vn 0.994500 -0.104300 -0.000300
vn 0.715900 -0.123000 -0.687300
vn -0.004000 -0.599600 -0.800300
vn 0.016300 -0.116000 -0.993100
vn 0.692600 0.295100 -0.658200
vn -0.010400 -0.882200 -0.470700
vn -0.604600 -0.533800 -0.591200
vn -0.318500 -0.853700 -0.412000
vn 0.013800 0.445600 -0.895100
vn 0.478700 0.751800 -0.453500
vn -0.675600 -0.101600 -0.730200
vn -0.647000 0.320000 -0.692000
vn 0.688900 0.724900 0.000000
vn 0.005700 0.748700 -0.662900
vn -0.452200 0.760600 -0.465700
vn 0.342900 0.939400 0.000000
vn -0.167000 0.972000 -0.165200
vn 0.002500 0.945900 -0.324400
vn 0.171600 0.971700 -0.162200
vn 0.171500 0.971700 -0.162200
vn 0.431400 -0.370800 -0.822400
vn 0.373500 0.050600 -0.926300
vn 0.701500 -0.223500 -0.676700
vn 0.378200 -0.737300 -0.559700
vn 0.066500 -0.366200 -0.928200
vn 0.855600 -0.459200 -0.239100
vn 0.198500 -0.978600 -0.054300
vn -0.267200 -0.691600 -0.671100
vn 0.808700 -0.556900 0.189400
vn 0.927300 0.167900 -0.334500
vn 0.941300 0.182000 0.284200
vn 0.622700 -0.550100 0.556500
vn 0.701700 0.108500 -0.704200
vn -0.019200 -0.906700 0.421300
vn -0.488600 -0.812100 -0.319100
vn -0.616500 -0.785400 0.055900
vn -0.479800 -0.137500 -0.866500
vn -0.882600 -0.148900 -0.446000
vn 0.663700 0.146000 0.733600
vn 0.225500 -0.396700 0.889800
vn -0.633800 -0.561100 0.532400
vn -0.171000 -0.691800 0.701600
vn -0.983400 -0.154900 0.094200
vn 0.346300 0.097100 0.933100
vn -0.887500 -0.135000 0.440600
vn -0.048000 0.027200 0.998500
vn -0.664500 -0.088900 0.742000
vn -0.307300 -0.357400 0.881900
vn -0.188800 -0.164400 0.968100
vn -0.497000 -0.226600 0.837700
vn -0.496900 -0.226600 0.837700
vn -0.382800 -0.036400 0.923100
vn -0.113700 0.024800 -0.993200
vn 0.576300 0.452900 -0.680300
vn 0.634400 0.722500 -0.274800
vn 0.573100 0.808200 0.135400
vn 0.083600 0.807600 -0.583800
vn -0.118200 0.983500 -0.136700
vn 0.396900 0.760700 0.513600
vn 0.245400 0.493300 -0.834500
vn -0.449000 0.492700 -0.745400
vn -0.035300 0.379500 -0.924500
vn -0.318100 0.867000 0.383600
vn 0.064700 0.504400 0.861000
vn -0.703800 0.601000 -0.378800
vn -0.832300 0.553800 0.023000
vn 0.346300 0.097200 0.933100
vn -0.882600 -0.148900 -0.445900
vn -0.400500 0.626200 0.669000
vn -0.784400 0.350100 0.512100
vn -0.553400 0.097600 0.827200
vn -0.418700 0.285500 0.862100
vn -0.553300 0.097600 0.827200
vn -0.245400 0.154300 0.957100
vn -0.382900 -0.036400 0.923100
vn -0.355400 -0.911200 0.208100
vn -0.118000 -0.986000 -0.118200
vn -0.065100 -0.939700 0.335700
vn -0.565000 -0.654900 0.501900
vn -0.575000 -0.815800 -0.062200
vn -0.000100 -0.656800 0.754100
vn -0.663700 -0.094300 0.742100
vn -0.915600 -0.401700 0.016500
vn 0.067800 -0.254600 0.964700
vn 0.455000 -0.810900 0.368000
vn 0.732000 -0.296400 0.613500
vn 0.120400 0.185800 0.975200
vn 0.158700 -0.979200 0.126400
vn -0.528200 0.455100 0.716900
vn -0.995700 0.050700 0.078000
vn -0.881500 0.458100 0.114200
vn -0.677100 -0.493800 -0.545600
vn -0.743200 0.115800 -0.659000
vn 0.736000 0.274100 0.619000
vn 0.156400 0.685100 0.711500
vn -0.519000 0.844800 0.130200
vn -0.328100 0.755900 0.566600
vn -0.571900 0.646400 -0.505000
vn 0.598000 0.625300 0.501400
vn -0.369200 0.872100 -0.321100
vn 0.362800 0.880900 0.304100
vn -0.112200 0.988700 -0.099100
vn -0.083600 0.941000 0.327900
vn 0.143500 0.937100 0.318100
vn -0.097500 0.988200 0.118300
vn 0.121800 0.987200 0.103000
vn -0.405500 -0.801000 -0.440400
vn 0.354400 -0.922900 -0.150600
vn 0.748200 -0.648600 -0.140000
vn 0.960500 -0.264300 -0.086800
vn 0.417700 -0.621800 -0.662500
vn 0.634500 -0.126300 -0.762500
vn 0.982500 0.183400 -0.032400
vn 0.170100 -0.881600 -0.440200
vn -0.144600 -0.449200 -0.881700
vn -0.083200 -0.807100 -0.584600
vn 0.634800 0.465400 -0.616800
vn 0.725900 0.686700 0.039300
vn -0.053800 0.018600 -0.998400
vn 0.000700 0.456500 -0.889700
vn -0.677100 -0.493800 -0.545700
vn 0.506800 0.762400 -0.402400
vn 0.057800 0.847800 -0.527200
vn 0.102300 0.988200 -0.114300
vn 0.312000 0.940800 -0.132600
vn 0.102400 0.988200 -0.114300
vn 0.338900 0.936700 0.087800
vn 0.454600 -0.852700 0.257400
vn -0.005300 -0.997000 -0.077100
vn 0.473300 -0.871100 -0.130800
vn 0.869900 -0.471600 -0.144600
vn 0.341500 -0.790100 -0.509100
vn 0.763600 -0.391000 0.513800
vn 0.987200 0.106200 -0.119300
vn 0.575400 -0.279500 -0.768700
vn 0.098200 -0.604800 0.790300
vn 0.054300 -0.929200 0.365600
vn 0.115100 0.004400 0.993300
vn 0.814900 0.027900 0.579000
vn 0.718400 0.439400 0.539300
vn 0.607600 0.173900 -0.775000
vn 0.519300 0.593800 -0.614600
vn 0.795600 0.601600 -0.072000
vn -0.128800 -0.425600 -0.895700
vn -0.146800 0.187000 -0.971300
vn 0.043900 0.579500 0.813800
vn 0.334400 0.868300 0.366200
vn 0.276400 0.918000 -0.284400
vn -0.129900 0.742700 -0.657000
vn 0.324600 0.945800 -0.005400
vn -0.095400 0.867500 0.488100
vn -0.204700 0.972000 0.115600
vn -0.075000 0.993300 0.088200
vn -0.100600 0.989800 -0.101100
vn -0.051400 0.993300 0.103700
vn -0.088900 0.994900 0.048100
vn -0.169900 0.974400 0.147100
vn -0.090900 0.966800 0.238800
vn -0.169900 0.974400 0.147000
vn -0.073300 -0.844100 -0.531200
vn -0.005200 -0.997000 -0.077000
vn -0.473200 -0.881000 -0.000400
vn -0.458400 -0.797200 -0.392800
vn -0.867000 -0.492000 0.079000
vn -0.361900 -0.861100 0.357100
vn -0.005200 -0.997000 -0.077100
vn -0.763000 -0.285900 -0.579700
vn -0.980100 0.138300 0.142600
vn -0.616600 -0.398300 0.679100
vn -0.801800 0.181400 -0.569500
vn -0.146700 0.187000 -0.971300
vn -0.128800 -0.425500 -0.895700
vn -0.685000 0.605900 -0.404600
vn -0.073200 -0.844100 -0.531200
vn -0.129900 0.742600 -0.657000
vn -0.652100 0.066500 0.755200
vn -0.555900 0.508900 0.657200
vn -0.741900 0.643400 0.188700
vn -0.417600 0.905700 -0.072300
vn -0.374900 0.844800 0.381700
vn -0.345800 0.912000 0.220800
vn -0.106700 0.964300 0.242300
vn -0.095400 0.867500 0.488200
vn -0.196300 0.976400 0.090400
vn -0.099900 0.973600 0.205400
vn 0.054200 -0.929200 0.365600
vn -0.005300 -0.997000 -0.077000
vn -0.391600 -0.740100 0.546700
vn 0.000700 -0.985600 0.169100
vn -0.006100 -0.775800 0.630900
vn -0.020300 -0.306800 0.951500
vn 0.398400 -0.736700 0.546500
vn -0.651500 -0.214400 0.727700
vn -0.018600 0.274700 0.961300
vn 0.655800 -0.203800 0.726900
vn -0.845700 -0.529300 0.068400
vn -0.446500 -0.882900 0.145600
vn -0.996400 0.072600 -0.044700
vn -0.688200 0.201400 0.697000
vn -0.605000 0.580000 0.545500
vn 0.689000 0.239600 0.684000
vn 0.577900 0.638800 0.507900
vn 0.000900 0.721800 0.692100
vn 0.874600 -0.477800 0.082200
vn 0.994100 0.106400 -0.021100
vn -0.772300 0.609400 -0.179300
vn -0.348000 0.928300 0.130600
vn 0.314000 0.934400 0.168100
vn 0.732100 0.665900 -0.143600
vn 0.031100 0.985400 0.167600
vn -0.407500 0.857400 -0.314500
vn -0.008600 0.924400 -0.381300
vn -0.000600 0.968300 -0.250000
vn 0.191600 0.950400 -0.245100
vn -0.019100 0.973200 -0.229200
vn 0.044700 0.965200 -0.257700
vn -0.045900 0.935100 -0.351500
vn -0.153500 0.946200 -0.285000
vn 0.477600 -0.865900 0.148600
vn 0.003300 -0.946900 -0.321500
vn 0.398700 -0.879700 -0.259100
vn 0.011700 -0.626600 -0.779300
vn -0.369700 -0.888200 -0.272900
vn 0.663300 -0.439800 -0.605500
vn 0.012600 -0.035500 -0.999300
vn -0.612100 -0.460400 -0.642900
vn 0.694000 0.001600 -0.719900
vn 0.550800 0.443900 -0.706800
vn -0.645800 -0.017600 -0.763300
vn -0.533500 0.424300 -0.731700
vn -0.030200 0.502400 -0.864100
vn 0.203400 0.809800 -0.550200
vn -0.260800 0.778500 -0.571000
vn -0.100500 0.843600 -0.527400
vn -0.154300 0.940500 -0.302900
vn -0.407500 0.857400 -0.314400
vn 0.014700 0.928500 -0.371100
vn -0.115700 0.949100 -0.293000
vn -0.333500 -0.650100 0.682700
vn -0.000400 -0.257900 0.966200
vn -0.472900 -0.313200 0.823600
vn -0.861500 -0.290300 0.416500
vn -0.469500 0.092600 0.878000
vn -0.000300 -0.257900 0.966200
vn -0.554800 -0.820300 0.139200
vn -0.976300 -0.158400 -0.147700
vn -0.781400 0.420200 0.461300
vn 0.167500 -0.935800 0.310300
vn 0.080600 -0.649800 0.755800
vn 0.203900 -0.921500 -0.330500
vn -0.590800 -0.756200 -0.281400
vn -0.520400 -0.555700 -0.648300
vn -0.823600 0.566400 0.030800
vn -0.697600 0.587100 -0.410700
vn -0.790400 0.021100 -0.612300
vn -0.151200 0.700300 0.697700
vn -0.170100 0.974500 0.146200
vn 0.203700 -0.552200 -0.808400
vn -0.220300 -0.139300 -0.965400
vn -0.373300 0.473700 -0.797700
vn -0.098100 0.872200 -0.479300
vn -0.322800 0.219700 -0.920600
vn 0.228400 -0.121900 -0.965900
vn 0.210200 0.288000 -0.934300
vn 0.081900 0.280300 -0.956400
vn 0.049400 0.440600 -0.896300
vn 0.070100 0.243900 -0.967300
vn 0.088800 0.306600 -0.947700
vn 0.187500 0.243900 -0.951500
vn 0.152600 0.124000 -0.980500
vn -0.082000 0.219700 0.972100
vn 0.464300 -0.144500 0.873800
vn 0.326000 0.230100 0.916900
vn -0.000400 -0.257800 0.966200
vn 0.857400 0.032000 0.513700
vn 0.472300 -0.494200 0.729800
vn 0.545500 0.656700 0.520700
vn 0.972200 0.215600 -0.091300
vn 0.807000 -0.551500 0.211000
vn 0.577500 0.812300 0.080900
vn 0.510400 0.769200 -0.384400
vn -0.098100 0.872200 -0.479200
vn 0.855500 -0.455500 -0.246200
vn 0.725200 -0.251500 -0.641000
vn 0.749000 0.269200 -0.605400
vn 0.357000 0.487300 -0.796900
vn 0.049500 0.440700 -0.896300
vn 0.460200 0.054900 -0.886100
vn 0.384000 0.212300 -0.898600
vn 0.160900 0.136300 -0.977500
vn 0.152700 0.124000 -0.980500
vn 0.210200 0.288100 -0.934300
vn 0.200000 0.301800 -0.932100
vn 0.146100 0.174900 -0.973700
vn -0.644200 -0.762400 -0.061400
vn -0.781300 -0.460300 0.421500
vn -0.886300 -0.458700 -0.064300
vn -0.736700 -0.327600 -0.591600
vn -0.996700 -0.076300 0.027000
vn -0.261900 -0.800700 -0.538800
vn -0.334300 -0.071000 -0.939800
vn -0.848900 0.352400 -0.394000
vn -0.029600 -0.988100 0.151200
vn -0.498500 -0.800400 0.332900
vn 0.531900 -0.838100 -0.121000
vn 0.067300 -0.645300 -0.761000
vn 0.384700 -0.373800 -0.844000
vn -0.526000 0.589000 -0.613500
vn -0.093700 0.698400 -0.709600
vn 0.126900 0.194700 -0.972600
vn -0.783000 0.540400 0.308100
vn -0.366500 0.927800 0.070000
vn 0.880900 -0.371100 -0.293700
vn 0.737000 0.079300 -0.671200
vn 0.421100 0.653700 -0.628800
vn 0.218600 0.958700 -0.181800
vn 0.586300 0.427100 -0.688300
vn 0.956000 0.079000 -0.282500
vn 0.859300 0.461200 -0.221000
vn 0.814100 0.465900 -0.346700
vn 0.711500 0.626000 -0.319100
vn 0.814700 0.449300 -0.366600
vn 0.796300 0.505600 -0.332100
vn 0.865400 0.432100 -0.253600
vn 0.885400 0.333500 -0.323700
vn -0.904700 0.008300 0.426000
vn -0.488400 -0.355700 0.796800
vn -0.656300 0.007100 0.754500
vn -0.016000 -0.125500 0.992000
vn -0.307200 -0.663000 0.682600
vn -0.277500 0.499700 0.820600
vn 0.526800 0.178900 0.831000
vn 0.310300 -0.625700 0.715700
vn 0.087300 0.744400 0.662000
vn -0.366600 0.927800 0.070000
vn 0.456400 0.806300 0.376200
vn 0.709000 -0.435800 0.554400
vn 0.947900 -0.144400 0.283900
vn 0.844600 0.352300 0.403100
vn 0.776100 0.630600 0.002500
vn 0.711500 0.626100 -0.319100
vn 0.976300 0.215800 -0.016200
vn 0.923700 0.377200 -0.067600
vn 0.890600 0.333900 -0.308700
vn 0.845200 0.482900 -0.229100
vn 0.873700 0.368900 -0.317200
vn -0.342800 -0.547100 -0.763700
vn -0.065100 -0.919700 -0.387300
vn -0.526900 -0.717600 -0.455500
vn -0.873900 -0.272900 -0.402200
vn -0.559900 -0.826500 -0.057500
vn -0.065100 -0.919600 -0.387300
vn -0.496000 0.037600 -0.867500
vn -0.941100 0.270200 -0.203300
vn -0.856100 -0.419400 0.302000
vn 0.219500 -0.192000 -0.956500
vn 0.070900 -0.664600 -0.743900
vn 0.309200 0.423400 -0.851600
vn -0.496600 0.438500 -0.749100
vn -0.412100 0.760500 -0.501700
vn -0.866700 -0.016100 0.498600
vn -0.707700 0.393500 0.586800
vn -0.733700 0.677900 0.046200
vn -0.272500 -0.758100 0.592500
vn -0.264900 -0.255100 0.929900
vn 0.323900 0.844100 -0.427400
vn -0.120300 0.992200 -0.032100
vn -0.340100 0.760700 0.552900
vn -0.130800 0.360400 0.923600
vn -0.265600 0.910400 0.317200
vn 0.329500 0.943900 0.021500
vn 0.276300 0.865600 0.417500
vn 0.145800 0.903300 0.403400
vn 0.087800 0.815900 0.571500
vn 0.129800 0.913600 0.385300
vn 0.141200 0.884300 0.445100
vn 0.256600 0.887800 0.382000
vn 0.221700 0.936000 0.273600
vn -0.188500 -0.978400 0.084800
vn 0.401300 -0.886900 -0.228800
vn 0.225100 -0.965600 0.130500
vn 0.804400 -0.593600 0.024200
vn 0.450500 -0.699100 -0.555300
vn -0.065000 -0.919600 -0.387300
vn 0.440100 -0.651700 0.617700
vn 0.955600 -0.045700 0.290900
vn 0.829100 -0.216700 -0.515400
vn 0.498400 -0.251800 0.829500
vn 0.480500 0.213900 0.850500
vn -0.130700 0.360400 0.923600
vn 0.909900 0.207600 -0.359000
vn 0.804600 0.582400 -0.115600
vn 0.785200 0.473900 0.398600
vn 0.389900 0.678800 0.622300
vn 0.541100 0.816900 0.199700
vn 0.450900 0.819200 0.354500
vn 0.239200 0.930700 0.276700
vn 0.221700 0.936000 0.273500
vn 0.259700 0.860700 0.438000
vn 0.218300 0.925800 0.308700
vn 0.070900 -0.664500 -0.743900
usemtl Model001_Material001.017
s 1
f 1/1/1 2/2/2 3/3/3
f 4/4/4 1/1/1 3/3/3
f 5/5/5 1/1/1 4/4/4
f 6/6/6 1/1/1 5/5/5
f 3/3/3 7/7/7 4/4/4
f 8/8/8 4/4/4 7/7/7
f 9/9/9 4/4/4 8/8/8
f 4/4/4 9/9/9 5/5/5
f 7/7/7 10/10/10 8/8/8
f 11/11/11 7/7/7 3/3/3
f 12/12/12 10/10/10 7/7/7
f 7/7/7 11/11/11 12/12/12
f 8/8/8 10/10/10 13/13/13
f 13/13/13 10/10/10 12/12/12
f 3/3/3 14/14/14 11/11/11
f 3/3/3 15/15/2 14/14/14
f 13/13/13 16/16/15 8/8/8
f 8/8/8 17/17/16 9/9/9
f 18/18/17 17/17/16 8/8/8
f 8/8/8 16/16/15 18/18/17
f 5/5/5 9/9/9 19/19/18
f 20/20/19 19/19/18 9/9/9
f 9/9/9 17/17/16 20/20/19
f 20/20/19 17/17/16 18/18/17
f 12/12/12 21/21/20 13/13/13
f 22/22/21 13/13/13 21/21/20
f 16/16/15 13/13/13 22/22/21
f 23/23/22 18/18/17 16/16/15
f 22/22/21 24/24/23 16/16/15
f 16/16/15 24/24/23 23/23/22
f 18/18/17 25/25/24 20/20/19
f 25/25/24 18/18/17 23/23/22
f 21/21/20 26/26/25 22/22/21
f 23/23/22 27/27/26 25/25/24
f 22/22/21 26/26/25 28/28/27
f 29/29/28 27/27/26 23/23/22
f 23/23/22 24/24/23 30/30/29
f 31/31/29 24/24/23 22/22/21
f 28/28/27 32/32/30 22/22/21
f 22/22/21 33/33/30 31/31/29
f 30/30/29 34/34/31 23/23/22
f 23/23/22 35/35/31 29/29/28
f 28/28/27 36/36/32 32/32/30
f 35/35/31 37/37/33 29/29/28
f 30/30/29 38/38/33 34/34/31
f 33/33/30 39/39/33 31/31/29
f 19/19/18 40/40/34 5/5/5
f 40/40/34 41/41/2 5/5/5
f 42/42/14 43/43/35 44/44/36
f 45/45/37 42/42/14 44/44/36
f 44/44/36 46/46/38 45/45/37
f 47/47/39 45/45/37 46/46/38
f 46/46/38 48/48/40 47/47/39
f 49/49/41 46/46/38 44/44/36
f 50/50/42 48/48/40 46/46/38
f 46/46/38 49/49/41 50/50/42
f 47/47/39 48/48/40 51/51/43
f 51/51/43 48/48/40 50/50/42
f 51/51/43 52/52/20 47/47/39
f 44/44/36 53/53/44 49/49/41
f 44/44/36 54/54/2 53/53/44
f 50/50/42 49/49/41 55/55/45
f 49/49/41 53/53/44 56/56/46
f 56/56/46 55/55/45 49/49/41
f 50/50/42 57/57/47 51/51/43
f 58/58/48 51/51/43 57/57/47
f 52/52/20 51/51/43 58/58/48
f 55/55/45 59/59/49 50/50/42
f 50/50/42 59/59/49 60/60/50
f 60/60/50 57/57/47 50/50/42
f 58/58/48 61/61/51 52/52/20
f 53/53/44 62/62/2 56/56/46
f 63/63/19 59/59/49 55/55/45
f 60/60/50 59/59/49 63/63/19
f 55/55/45 56/56/46 64/64/34
f 64/64/34 65/65/18 55/55/45
f 55/55/45 65/65/18 63/63/19
f 56/56/46 66/66/2 64/64/34
f 57/57/47 67/67/52 58/58/48
f 57/57/47 60/60/50 68/68/53
f 68/68/53 67/67/52 57/57/47
f 68/68/53 60/60/50 69/69/24
f 63/63/19 69/69/24 60/60/50
f 70/70/54 61/61/51 58/58/48
f 69/69/24 71/71/26 68/68/53
f 68/68/53 71/71/26 72/72/28
f 72/72/28 73/73/55 68/68/53
f 72/72/28 74/74/32 73/73/55
f 75/75/56 67/67/52 68/68/53
f 68/68/53 76/76/55 75/75/56
f 76/76/55 77/77/33 75/75/56
f 58/58/48 67/67/52 78/78/56
f 58/58/48 79/79/57 70/70/54
f 79/79/57 80/80/33 70/70/54
f 78/78/56 81/81/58 58/58/48
f 78/78/56 82/82/33 81/81/58
f 83/1/59 84/2/60 85/3/61
f 86/4/62 83/1/59 85/3/61
f 87/5/63 83/1/59 86/4/62
f 87/5/63 88/6/60 83/1/59
f 85/3/61 89/7/64 86/4/62
f 90/8/65 86/4/62 89/7/64
f 91/9/66 86/4/62 90/8/65
f 86/4/62 91/9/66 87/5/63
f 89/7/64 92/10/67 90/8/65
f 93/11/68 89/7/64 85/3/61
f 94/12/69 92/10/67 89/7/64
f 89/7/64 93/11/68 94/12/69
f 90/8/65 92/10/67 95/13/70
f 95/13/70 92/10/67 94/12/69
f 85/3/61 96/14/71 93/11/68
f 85/3/61 97/15/60 96/14/71
f 95/13/70 98/16/72 90/8/65
f 90/8/65 99/17/73 91/9/66
f 100/18/74 99/17/73 90/8/65
f 90/8/65 98/16/72 100/18/74
f 87/5/63 91/9/66 101/19/75
f 102/20/76 101/19/75 91/9/66
f 91/9/66 99/17/73 102/20/76
f 102/20/76 99/17/73 100/18/74
f 94/12/69 103/21/77 95/13/70
f 104/22/78 95/13/70 103/21/77
f 98/16/72 95/13/70 104/22/78
f 105/23/79 100/18/74 98/16/72
f 104/22/78 106/24/80 98/16/72
f 98/16/72 106/24/80 105/23/79
f 100/18/74 107/25/81 102/20/76
f 107/25/81 100/18/74 105/23/79
f 103/21/77 108/26/82 104/22/78
f 105/23/79 109/27/83 107/25/81
f 104/22/78 108/26/82 110/28/84
f 111/29/85 109/27/83 105/23/79
f 105/23/79 106/24/80 112/30/86
f 113/31/86 106/24/80 104/22/78
f 110/28/84 114/32/87 104/22/78
f 104/22/78 115/33/87 113/31/86
f 112/30/86 116/34/88 105/23/79
f 105/23/79 117/35/89 111/29/85
f 110/28/84 118/36/90 114/32/87
f 117/35/89 119/37/90 111/29/85
f 112/30/86 120/38/90 116/34/88
f 115/33/87 121/39/90 113/31/86
f 101/19/75 122/40/91 87/5/63
f 122/40/91 123/41/60 87/5/63
f 124/42/71 125/43/60 126/44/92
f 127/45/68 124/42/71 126/44/92
f 126/44/92 128/46/93 127/45/68
f 129/47/69 127/45/68 128/46/93
f 128/46/93 130/48/94 129/47/69
f 131/49/95 128/46/93 126/44/92
f 132/50/96 130/48/94 128/46/93
f 128/46/93 131/49/95 132/50/96
f 129/47/69 130/48/94 133/51/97
f 133/51/97 130/48/94 132/50/96
f 133/51/97 134/52/77 129/47/69
f 126/44/92 135/53/98 131/49/95
f 126/44/92 136/54/60 135/53/98
f 132/50/96 131/49/95 137/55/99
f 131/49/95 135/53/98 138/56/100
f 138/56/100 137/55/99 131/49/95
f 132/50/96 139/57/101 133/51/97
f 140/58/102 133/51/97 139/57/101
f 134/52/77 133/51/97 140/58/102
f 137/55/99 141/59/103 132/50/96
f 132/50/96 141/59/103 142/60/104
f 142/60/104 139/57/101 132/50/96
f 140/58/102 143/61/105 134/52/77
f 135/53/98 144/62/60 138/56/100
f 145/63/106 141/59/103 137/55/99
f 142/60/104 141/59/103 145/63/106
f 137/55/99 138/56/100 146/64/91
f 146/64/91 147/65/75 137/55/99
f 137/55/99 147/65/75 145/63/106
f 138/56/100 148/66/60 146/64/91
f 139/57/101 149/67/107 140/58/102
f 139/57/101 142/60/104 150/68/108
f 150/68/108 149/67/107 139/57/101
f 150/68/108 142/60/104 151/69/81
f 145/63/106 151/69/81 142/60/104
f 152/70/84 143/61/105 140/58/102
f 151/69/81 153/71/83 150/68/108
f 150/68/108 153/71/83 154/72/85
f 154/72/85 155/73/109 150/68/108
f 154/72/85 156/74/90 155/73/109
f 157/75/110 149/67/107 150/68/108
f 150/68/108 158/76/111 157/75/110
f 158/76/111 159/77/90 157/75/110
f 140/58/102 149/67/107 160/78/110
f 140/58/102 161/79/112 152/70/84
f 161/79/112 162/80/113 152/70/84
f 160/78/110 163/81/112 140/58/102
f 160/78/110 164/82/90 163/81/112
f 165/1/114 166/2/115 167/3/116
f 168/4/117 165/1/114 167/3/116
f 169/5/118 165/1/114 168/4/117
f 169/5/118 170/6/115 165/1/114
f 167/3/116 171/7/119 168/4/117
f 172/8/120 168/4/117 171/7/119
f 173/9/121 168/4/117 172/8/120
f 168/4/117 173/9/121 169/5/118
f 171/7/119 174/10/122 172/8/120
f 175/11/123 171/7/119 167/3/116
f 176/12/124 174/10/122 171/7/119
f 171/7/119 175/11/123 176/12/124
f 172/8/120 174/10/122 177/13/125
f 177/13/125 174/10/122 176/12/124
f 167/3/116 178/14/126 175/11/123
f 167/3/116 179/15/115 178/14/126
f 177/13/125 180/16/127 172/8/120
f 172/8/120 181/17/128 173/9/121
f 182/18/129 181/17/128 172/8/120
f 172/8/120 180/16/127 182/18/129
f 169/5/118 173/9/121 183/19/130
f 184/20/131 183/19/130 173/9/121
f 173/9/121 181/17/128 184/20/131
f 184/20/131 181/17/128 182/18/129
f 176/12/124 185/21/132 177/13/125
f 186/22/133 177/13/125 185/21/132
f 180/16/127 177/13/125 186/22/133
f 187/23/134 182/18/129 180/16/127
f 186/22/133 188/24/135 180/16/127
f 180/16/127 188/24/135 187/23/134
f 182/18/129 189/25/136 184/20/131
f 189/25/136 182/18/129 187/23/134
f 185/21/132 190/26/137 186/22/133
f 187/23/134 191/27/138 189/25/136
f 186/22/133 190/26/137 192/28/139
f 193/29/140 191/27/138 187/23/134
f 187/23/134 188/24/135 194/30/141
f 195/31/141 188/24/135 186/22/133
f 192/28/139 196/32/142 186/22/133
f 186/22/133 197/33/142 195/31/141
f 194/30/141 198/34/143 187/23/134
f 187/23/134 199/35/143 193/29/140
f 192/28/139 200/36/144 196/32/142
f 199/35/143 201/37/144 193/29/140
f 194/30/141 202/38/144 198/34/143
f 197/33/142 203/39/144 195/31/141
f 183/19/130 204/40/145 169/5/118
f 204/40/145 205/41/115 169/5/118
f 206/42/126 207/43/115 208/44/146
f 209/45/123 206/42/126 208/44/146
f 208/44/146 210/46/147 209/45/123
f 211/47/124 209/45/123 210/46/147
f 210/46/147 212/48/148 211/47/124
f 213/49/149 210/46/147 208/44/146
f 214/50/150 212/48/148 210/46/147
f 210/46/147 213/49/149 214/50/150
f 211/47/124 212/48/148 215/51/151
f 215/51/151 212/48/148 214/50/150
f 215/51/151 216/52/132 211/47/124
f 208/44/146 217/53/152 213/49/149
f 208/44/146 218/54/115 217/53/152
f 214/50/150 213/49/149 219/55/153
f 213/49/149 217/53/152 220/56/154
f 220/56/154 219/55/153 213/49/149
f 214/50/150 221/57/155 215/51/151
f 222/58/156 215/51/151 221/57/155
f 216/52/132 215/51/151 222/58/156
f 219/55/153 223/59/157 214/50/150
f 214/50/150 223/59/157 224/60/158
f 224/60/158 221/57/155 214/50/150
f 222/58/156 225/61/137 216/52/132
f 217/53/152 226/62/115 220/56/154
f 227/63/131 223/59/157 219/55/153
f 224/60/158 223/59/157 227/63/131
f 219/55/153 220/56/154 228/64/145
f 228/64/145 229/65/159 219/55/153
f 219/55/153 229/65/159 227/63/131
f 220/56/154 230/66/115 228/64/145
f 221/57/155 231/67/160 222/58/156
f 221/57/155 224/60/158 232/68/161
f 232/68/161 231/67/160 221/57/155
f 232/68/161 224/60/158 233/69/136
f 227/63/131 233/69/136 224/60/158
f 234/70/139 225/61/137 222/58/156
f 233/69/136 235/71/138 232/68/161
f 232/68/161 235/71/138 236/72/140
f 236/72/140 237/73/162 232/68/161
f 236/72/140 238/74/144 237/73/162
f 239/75/163 231/67/160 232/68/161
f 232/68/161 240/76/164 239/75/163
f 240/76/164 241/77/144 239/75/163
f 222/58/156 231/67/160 242/78/163
f 222/58/156 243/79/165 234/70/139
f 243/79/165 244/80/144 234/70/139
f 242/78/163 245/81/165 222/58/156
f 242/78/163 246/82/144 245/81/165
f 247/83/166 248/84/167 249/85/168
f 247/83/166 249/85/168 250/86/169
f 250/86/169 249/85/168 251/87/170
f 251/87/170 249/85/168 252/88/167
f 253/89/171 247/83/166 250/86/169
f 253/89/171 250/86/169 254/90/172
f 251/87/170 255/91/173 250/86/169
f 254/90/172 250/86/169 255/91/173
f 247/83/166 253/89/171 256/92/174
f 257/93/175 247/83/166 256/92/174
f 247/83/166 257/93/175 258/94/167
f 259/95/176 256/92/174 253/89/171
f 253/89/171 260/96/177 259/95/176
f 254/90/172 260/96/177 253/89/171
f 259/95/176 260/96/177 261/97/178
f 261/97/178 260/96/177 254/90/172
f 255/91/173 262/98/179 254/90/172
f 254/90/172 262/98/179 263/99/180
f 263/99/180 264/100/181 254/90/172
f 254/90/172 264/100/181 261/97/178
f 265/101/182 255/91/173 251/87/170
f 255/91/173 265/101/182 266/102/183
f 266/102/183 262/98/179 255/91/173
f 263/99/180 262/98/179 266/102/183
f 261/97/178 267/103/184 259/95/176
f 267/103/184 261/97/178 268/104/185
f 268/104/185 261/97/178 264/100/181
f 264/100/181 263/99/180 269/105/186
f 269/105/186 263/99/180 270/106/187
f 266/102/183 270/106/187 263/99/180
f 269/105/186 271/107/188 264/100/181
f 264/100/181 271/107/188 268/104/185
f 268/104/185 272/108/189 267/103/184
f 273/109/190 272/108/189 268/104/185
f 268/104/185 274/110/191 273/109/190
f 274/110/191 268/104/185 271/107/188
f 270/106/187 275/111/192 269/105/186
f 276/112/193 269/105/186 275/111/192
f 271/107/188 269/105/186 276/112/193
f 276/112/193 277/113/194 271/107/188
f 271/107/188 277/113/194 274/110/191
f 273/109/190 274/110/191 278/114/195
f 274/110/191 277/113/194 279/115/195
f 275/111/192 280/116/196 276/112/193
f 277/113/194 276/112/193 281/117/197
f 276/112/193 280/116/196 282/118/197
f 251/87/170 283/119/198 265/101/182
f 283/119/198 251/87/170 284/120/199
f 285/121/200 286/122/201 287/123/199
f 286/122/201 285/121/200 288/124/202
f 288/124/202 285/121/200 289/125/203
f 289/125/203 285/121/200 290/126/204
f 288/124/202 291/127/205 286/122/201
f 291/127/205 288/124/202 292/128/206
f 289/125/203 293/129/207 288/124/202
f 292/128/206 288/124/202 293/129/207
f 292/128/206 294/130/208 291/127/205
f 291/127/205 294/130/208 295/131/209
f 286/122/201 291/127/205 296/132/210
f 295/131/209 296/132/210 291/127/205
f 295/131/209 294/130/208 297/133/211
f 297/133/211 294/130/208 292/128/206
f 296/132/210 298/134/212 286/122/201
f 286/122/201 298/134/212 299/135/167
f 297/133/211 300/136/213 295/131/209
f 293/129/207 301/137/214 292/128/206
f 292/128/206 301/137/214 302/138/215
f 302/138/215 303/139/216 292/128/206
f 292/128/206 303/139/216 297/133/211
f 300/136/213 297/133/211 304/140/217
f 304/140/217 297/133/211 303/139/216
f 302/138/215 301/137/214 305/141/176
f 305/141/176 301/137/214 293/129/207
f 304/140/217 306/142/192 300/136/213
f 305/141/176 307/143/184 302/138/215
f 303/139/216 302/138/215 308/144/218
f 308/144/218 302/138/215 307/143/184
f 303/139/216 309/145/219 304/140/217
f 308/144/218 309/145/219 303/139/216
f 306/142/192 304/140/217 310/146/220
f 310/146/220 304/140/217 309/145/219
f 310/146/220 311/147/196 306/142/192
f 307/143/184 312/148/221 308/144/218
f 308/144/218 312/148/221 313/149/190
f 313/149/190 314/150/222 308/144/218
f 309/145/219 308/144/218 314/150/222
f 314/150/222 315/151/223 309/145/219
f 309/145/219 315/151/223 310/146/220
f 311/147/196 310/146/220 316/152/197
f 310/146/220 315/151/223 317/153/197
f 314/150/222 313/149/190 318/154/197
f 315/151/223 314/150/222 319/155/197
f 320/156/224 289/125/203 321/157/225
f 289/125/203 320/156/224 322/158/174
f 322/158/174 293/129/207 289/125/203
f 293/129/207 322/158/174 305/141/176
f 323/83/226 324/84/227 325/85/228
f 323/83/226 325/85/228 326/86/229
f 326/86/229 325/85/228 327/87/230
f 327/87/230 325/85/228 328/88/227
f 326/86/229 329/89/231 323/83/226
f 329/89/231 326/86/229 330/90/232
f 327/87/230 331/91/233 326/86/229
f 330/90/232 326/86/229 331/91/233
f 323/83/226 329/89/231 332/92/234
f 332/92/234 333/93/235 323/83/226
f 323/83/226 333/93/235 334/94/227
f 335/95/236 332/92/234 329/89/231
f 329/89/231 336/96/237 335/95/236
f 330/90/232 336/96/237 329/89/231
f 335/95/236 336/96/237 337/97/238
f 337/97/238 336/96/237 330/90/232
f 331/91/233 338/98/239 330/90/232
f 330/90/232 338/98/239 339/99/240
f 339/99/240 340/100/241 330/90/232
f 330/90/232 340/100/241 337/97/238
f 341/101/242 331/91/233 327/87/230
f 331/91/233 341/101/242 342/102/243
f 342/102/243 338/98/239 331/91/233
f 339/99/240 338/98/239 342/102/243
f 337/97/238 343/103/244 335/95/236
f 343/103/244 337/97/238 344/104/245
f 344/104/245 337/97/238 340/100/241
f 340/100/241 339/99/240 345/105/246
f 345/105/246 339/99/240 346/106/247
f 342/102/243 346/106/247 339/99/240
f 345/105/246 347/107/248 340/100/241
f 340/100/241 347/107/248 344/104/245
f 344/104/245 348/108/249 343/103/244
f 349/109/250 348/108/249 344/104/245
f 344/104/245 350/110/251 349/109/250
f 350/110/251 344/104/245 347/107/248
f 346/106/247 351/111/252 345/105/246
f 352/112/253 345/105/246 351/111/252
f 347/107/248 345/105/246 352/112/253
f 352/112/253 353/113/254 347/107/248
f 347/107/248 353/113/254 350/110/251
f 349/109/250 350/110/251 354/114/255
f 350/110/251 353/113/254 355/115/255
f 351/111/252 356/116/256 352/112/253
f 353/113/254 352/112/253 357/117/255
f 352/112/253 356/116/256 358/118/255
f 327/87/230 359/119/257 341/101/242
f 359/119/257 327/87/230 360/120/227
f 361/121/258 362/122/259 363/123/227
f 362/122/259 361/121/258 364/124/260
f 364/124/260 361/121/258 365/125/261
f 365/125/261 361/121/258 366/126/227
f 364/124/260 367/127/262 362/122/259
f 367/127/262 364/124/260 368/128/263
f 365/125/261 369/129/264 364/124/260
f 368/128/263 364/124/260 369/129/264
f 368/128/263 370/130/265 367/127/262
f 367/127/262 370/130/265 371/131/243
f 362/122/259 367/127/262 372/132/242
f 371/131/243 372/132/242 367/127/262
f 371/131/243 370/130/265 373/133/266
f 373/133/266 370/130/265 368/128/263
f 372/132/242 374/134/257 362/122/259
f 362/122/259 374/134/257 375/135/227
f 373/133/266 376/136/247 371/131/243
f 369/129/264 377/137/267 368/128/263
f 368/128/263 377/137/267 378/138/268
f 378/138/268 379/139/269 368/128/263
f 368/128/263 379/139/269 373/133/266
f 376/136/247 373/133/266 380/140/270
f 380/140/270 373/133/266 379/139/269
f 378/138/268 377/137/267 381/141/236
f 381/141/236 377/137/267 369/129/264
f 380/140/270 382/142/252 376/136/247
f 381/141/236 383/143/244 378/138/268
f 379/139/269 378/138/268 384/144/271
f 384/144/271 378/138/268 383/143/244
f 379/139/269 385/145/272 380/140/270
f 384/144/271 385/145/272 379/139/269
f 382/142/252 380/140/270 386/146/273
f 386/146/273 380/140/270 385/145/272
f 386/146/273 387/147/256 382/142/252
f 383/143/244 388/148/274 384/144/271
f 384/144/271 388/148/274 389/149/250
f 389/149/250 390/150/275 384/144/271
f 385/145/272 384/144/271 390/150/275
f 390/150/275 391/151/276 385/145/272
f 385/145/272 391/151/276 386/146/273
f 387/147/256 386/146/273 392/152/255
f 386/146/273 391/151/276 393/153/255
f 390/150/275 389/149/250 394/154/255
f 391/151/276 390/150/275 395/155/255
f 396/156/235 365/125/261 397/157/227
f 365/125/261 396/156/235 398/158/234
f 398/158/234 369/129/264 365/125/261
f 369/129/264 398/158/234 381/141/236
f 399/83/277 400/84/278 401/85/279
f 399/83/277 401/85/279 402/86/280
f 402/86/280 401/85/279 403/87/281
f 403/87/281 401/85/279 404/88/282
f 402/86/280 405/89/283 399/83/277
f 405/89/283 402/86/280 406/90/284
f 403/87/281 407/91/285 402/86/280
f 406/90/284 402/86/280 407/91/285
f 399/83/277 405/89/283 408/92/286
f 408/92/286 409/93/287 399/83/277
f 399/83/277 409/93/287 410/94/278
f 411/95/288 408/92/286 405/89/283
f 405/89/283 412/96/289 411/95/288
f 406/90/284 412/96/289 405/89/283
f 411/95/288 412/96/289 413/97/290
f 413/97/290 412/96/289 406/90/284
f 407/91/285 414/98/291 406/90/284
f 406/90/284 414/98/291 415/99/292
f 415/99/292 416/100/293 406/90/284
f 406/90/284 416/100/293 413/97/290
f 417/101/294 407/91/285 403/87/281
f 407/91/285 417/101/294 418/102/295
f 418/102/295 414/98/291 407/91/285
f 415/99/292 414/98/291 418/102/295
f 413/97/290 419/103/296 411/95/288
f 419/103/296 413/97/290 420/104/297
f 420/104/297 413/97/290 416/100/293
f 416/100/293 415/99/292 421/105/298
f 421/105/298 415/99/292 422/106/299
f 418/102/295 422/106/299 415/99/292
f 421/105/298 423/107/300 416/100/293
f 416/100/293 423/107/300 420/104/297
f 420/104/297 424/108/301 419/103/296
f 425/109/302 424/108/301 420/104/297
f 420/104/297 426/110/303 425/109/302
f 426/110/303 420/104/297 423/107/300
f 422/106/299 427/111/304 421/105/298
f 428/112/305 421/105/298 427/111/304
f 423/107/300 421/105/298 428/112/305
f 428/112/305 429/113/306 423/107/300
f 423/107/300 429/113/306 426/110/303
f 425/109/302 426/110/303 430/114/307
f 426/110/303 429/113/306 431/115/307
f 427/111/304 432/116/308 428/112/305
f 429/113/306 428/112/305 433/117/307
f 428/112/305 432/116/308 434/118/307
f 403/87/281 435/119/309 417/101/294
f 435/119/309 403/87/281 436/120/278
f 437/121/310 438/122/311 439/123/312
f 438/122/311 437/121/310 440/124/313
f 440/124/313 437/121/310 441/125/314
f 441/125/314 437/121/310 442/126/282
f 440/124/313 443/127/315 438/122/311
f 443/127/315 440/124/313 444/128/316
f 441/125/314 445/129/317 440/124/313
f 444/128/316 440/124/313 445/129/317
f 444/128/316 446/130/318 443/127/315
f 443/127/315 446/130/318 447/131/295
f 438/122/311 443/127/315 448/132/294
f 447/131/295 448/132/294 443/127/315
f 447/131/295 446/130/318 449/133/319
f 449/133/319 446/130/318 444/128/316
f 448/132/294 450/134/309 438/122/311
f 438/122/311 450/134/309 451/135/278
f 449/133/319 452/136/320 447/131/295
f 445/129/317 453/137/321 444/128/316
f 444/128/316 453/137/321 454/138/322
f 454/138/322 455/139/323 444/128/316
f 444/128/316 455/139/323 449/133/319
f 452/136/320 449/133/319 456/140/324
f 456/140/324 449/133/319 455/139/323
f 454/138/322 453/137/321 457/141/288
f 457/141/288 453/137/321 445/129/317
f 456/140/324 458/142/325 452/136/320
f 457/141/288 459/143/296 454/138/322
f 455/139/323 454/138/322 460/144/326
f 460/144/326 454/138/322 459/143/296
f 455/139/323 461/145/327 456/140/324
f 460/144/326 461/145/327 455/139/323
f 458/142/325 456/140/324 462/146/328
f 462/146/328 456/140/324 461/145/327
f 462/146/328 463/147/329 458/142/325
f 459/143/296 464/148/301 460/144/326
f 460/144/326 464/148/301 465/149/330
f 465/149/330 466/150/331 460/144/326
f 461/145/327 460/144/326 466/150/331
f 466/150/331 467/151/332 461/145/327
f 461/145/327 467/151/332 462/146/328
f 463/147/329 462/146/328 468/152/307
f 462/146/328 467/151/332 469/153/307
f 466/150/331 465/149/330 470/154/307
f 467/151/332 466/150/331 471/155/307
f 472/156/287 441/125/314 473/157/278
f 441/125/314 472/156/287 474/158/286
f 474/158/286 445/129/317 441/125/314
f 445/129/317 474/158/286 457/141/288
f 475/83/333 476/84/334 477/85/335
f 475/83/333 477/85/335 478/86/336
f 478/86/336 477/85/335 479/87/337
f 479/87/337 477/85/335 480/88/334
f 478/86/336 481/89/338 475/83/333
f 481/89/338 478/86/336 482/90/339
f 479/87/337 483/91/340 478/86/336
f 482/90/339 478/86/336 483/91/340
f 475/83/333 481/89/338 484/92/341
f 484/92/341 485/93/342 475/83/333
f 475/83/333 485/93/342 486/94/334
f 487/95/343 484/92/341 481/89/338
f 481/89/338 488/96/344 487/95/343
f 482/90/339 488/96/344 481/89/338
f 487/95/343 488/96/344 489/97/345
f 489/97/345 488/96/344 482/90/339
f 483/91/340 490/98/346 482/90/339
f 482/90/339 490/98/346 491/99/347
f 491/99/347 492/100/348 482/90/339
f 482/90/339 492/100/348 489/97/345
f 493/101/349 483/91/340 479/87/337
f 483/91/340 493/101/349 494/102/350
f 494/102/350 490/98/346 483/91/340
f 491/99/347 490/98/346 494/102/350
f 489/97/345 495/103/351 487/95/343
f 495/103/351 489/97/345 496/104/352
f 496/104/352 489/97/345 492/100/348
f 492/100/348 491/99/347 497/105/353
f 497/105/353 491/99/347 498/106/354
f 494/102/350 498/106/354 491/99/347
f 497/105/353 499/107/355 492/100/348
f 492/100/348 499/107/355 496/104/352
f 496/104/352 500/108/356 495/103/351
f 501/109/357 500/108/356 496/104/352
f 496/104/352 502/110/358 501/109/357
f 502/110/358 496/104/352 499/107/355
f 498/106/354 503/111/359 497/105/353
f 504/112/360 497/105/353 503/111/359
f 499/107/355 497/105/353 504/112/360
f 504/112/360 505/113/361 499/107/355
f 499/107/355 505/113/361 502/110/358
f 501/109/357 502/110/358 506/114/362
f 502/110/358 505/113/361 507/115/362
f 503/111/359 508/116/363 504/112/360
f 505/113/361 504/112/360 509/117/362
f 504/112/360 508/116/363 510/118/362
f 479/87/337 511/119/364 493/101/349
f 511/119/364 479/87/337 512/120/334
f 513/121/365 514/122/366 515/123/334
f 514/122/366 513/121/365 516/124/367
f 516/124/367 513/121/365 517/125/368
f 517/125/368 513/121/365 518/126/334
f 516/124/367 519/127/369 514/122/366
f 519/127/369 516/124/367 520/128/370
f 517/125/368 521/129/371 516/124/367
f 520/128/370 516/124/367 521/129/371
f 520/128/370 522/130/372 519/127/369
f 519/127/369 522/130/372 523/131/373
f 514/122/366 519/127/369 524/132/349
f 523/131/373 524/132/349 519/127/369
f 523/131/373 522/130/372 525/133/374
f 525/133/374 522/130/372 520/128/370
f 524/132/349 526/134/364 514/122/366
f 514/122/366 526/134/364 527/135/334
f 525/133/374 528/136/354 523/131/373
f 521/129/371 529/137/375 520/128/370
f 520/128/370 529/137/375 530/138/376
f 530/138/376 531/139/377 520/128/370
f 520/128/370 531/139/377 525/133/374
f 528/136/354 525/133/374 532/140/378
f 532/140/378 525/133/374 531/139/377
f 530/138/376 529/137/375 533/141/343
f 533/141/343 529/137/375 521/129/371
f 532/140/378 534/142/379 528/136/354
f 533/141/343 535/143/351 530/138/376
f 531/139/377 530/138/376 536/144/380
f 536/144/380 530/138/376 535/143/351
f 531/139/377 537/145/381 532/140/378
f 536/144/380 537/145/381 531/139/377
f 534/142/379 532/140/378 538/146/382
f 538/146/382 532/140/378 537/145/381
f 538/146/382 539/147/363 534/142/379
f 535/143/351 540/148/356 536/144/380
f 536/144/380 540/148/356 541/149/357
f 541/149/357 542/150/383 536/144/380
f 537/145/381 536/144/380 542/150/383
f 542/150/383 543/151/384 537/145/381
f 537/145/381 543/151/384 538/146/382
f 539/147/363 538/146/382 544/152/362
f 538/146/382 543/151/384 545/153/362
f 542/150/383 541/149/357 546/154/362
f 543/151/384 542/150/383 547/155/362
f 548/156/342 517/125/368 549/157/334
f 517/125/368 548/156/342 550/158/341
f 550/158/341 521/129/371 517/125/368
f 521/129/371 550/158/341 533/141/343
f 551/83/385 552/84/386 553/85/387
f 551/83/385 553/85/387 554/86/388
f 554/86/388 553/85/387 555/87/389
f 555/87/389 553/85/387 556/88/390
f 554/86/388 557/89/391 551/83/385
f 557/89/391 554/86/388 558/90/392
f 555/87/389 559/91/393 554/86/388
f 558/90/392 554/86/388 559/91/393
f 551/83/385 557/89/391 560/92/394
f 560/92/394 561/93/395 551/83/385
f 551/83/385 561/93/395 562/94/386
f 563/95/396 560/92/394 557/89/391
f 557/89/391 564/96/397 563/95/396
f 558/90/392 564/96/397 557/89/391
f 563/95/396 564/96/397 565/97/398
f 565/97/398 564/96/397 558/90/392
f 559/91/393 566/98/399 558/90/392
f 558/90/392 566/98/399 567/99/400
f 567/99/400 568/100/401 558/90/392
f 558/90/392 568/100/401 565/97/398
f 569/101/402 559/91/393 555/87/389
f 559/91/393 569/101/402 570/102/403
f 570/102/403 566/98/399 559/91/393
f 567/99/400 566/98/399 570/102/403
f 565/97/398 571/103/404 563/95/396
f 571/103/404 565/97/398 572/104/405
f 572/104/405 565/97/398 568/100/401
f 568/100/401 567/99/400 573/105/406
f 573/105/406 567/99/400 574/106/407
f 570/102/403 574/106/407 567/99/400
f 573/105/406 575/107/408 568/100/401
f 568/100/401 575/107/408 572/104/405
f 572/104/405 576/108/409 571/103/404
f 577/109/410 576/108/409 572/104/405
f 572/104/405 578/110/411 577/109/410
f 578/110/411 572/104/405 575/107/408
f 574/106/407 579/111/412 573/105/406
f 580/112/413 573/105/406 579/111/412
f 575/107/408 573/105/406 580/112/413
f 580/112/413 581/113/414 575/107/408
f 575/107/408 581/113/414 578/110/411
f 577/109/410 578/110/411 582/114/415
f 578/110/411 581/113/414 583/115/415
f 579/111/412 584/116/416 580/112/413
f 581/113/414 580/112/413 585/117/415
f 580/112/413 584/116/416 586/118/415
f 555/87/389 587/119/417 569/101/402
f 587/119/417 555/87/389 588/120/390
f 589/121/418 590/122/419 591/123/390
f 590/122/419 589/121/418 592/124/420
f 592/124/420 589/121/418 593/125/421
f 593/125/421 589/121/418 594/126/422
f 592/124/420 595/127/423 590/122/419
f 595/127/423 592/124/420 596/128/424
f 593/125/421 597/129/425 592/124/420
f 596/128/424 592/124/420 597/129/425
f 596/128/424 598/130/426 595/127/423
f 595/127/423 598/130/426 599/131/403
f 590/122/419 595/127/423 600/132/402
f 599/131/403 600/132/402 595/127/423
f 599/131/403 598/130/426 601/133/427
f 601/133/427 598/130/426 596/128/424
f 600/132/402 602/134/417 590/122/419
f 590/122/419 602/134/417 603/135/390
f 601/133/427 604/136/428 599/131/403
f 597/129/425 605/137/429 596/128/424
f 596/128/424 605/137/429 606/138/430
f 606/138/430 607/139/431 596/128/424
f 596/128/424 607/139/431 601/133/427
f 604/136/428 601/133/427 608/140/432
f 608/140/432 601/133/427 607/139/431
f 606/138/430 605/137/429 609/141/396
f 609/141/396 605/137/429 597/129/425
f 608/140/432 610/142/412 604/136/428
f 609/141/396 611/143/404 606/138/430
f 607/139/431 606/138/430 612/144/433
f 612/144/433 606/138/430 611/143/404
f 607/139/431 613/145/434 608/140/432
f 612/144/433 613/145/434 607/139/431
f 610/142/412 608/140/432 614/146/435
f 614/146/435 608/140/432 613/145/434
f 614/146/435 615/147/436 610/142/412
f 611/143/404 616/148/409 612/144/433
f 612/144/433 616/148/409 617/149/410
f 617/149/410 618/150/437 612/144/433
f 613/145/434 612/144/433 618/150/437
f 618/150/437 619/151/438 613/145/434
f 613/145/434 619/151/438 614/146/435
f 615/147/436 614/146/435 620/152/415
f 614/146/435 619/151/438 621/153/415
f 618/150/437 617/149/410 622/154/415
f 619/151/438 618/150/437 623/155/415
f 624/156/439 593/125/421 625/157/390
f 593/125/421 624/156/439 626/158/394
f 626/158/394 597/129/425 593/125/421
f 597/129/425 626/158/394 609/141/396