# 3ds Max Wavefront OBJ Exporter v0.97b - (c)2007 guruware
# File Created: 19.04.2018 19:04:41

mtllib DiceTray.mtl

#
# object DiceTray
#

v  -8.5946 0.4633 6.1480
v  -8.5946 0.4633 -6.1480
v  8.5946 0.4633 -6.1480
v  8.5946 0.4633 6.1480
v  9.2093 3.5367 6.7627
v  -9.2093 3.5367 6.7627
v  9.2093 3.5367 -6.7627
v  -9.2093 3.5367 -6.7627
v  8.3076 3.5367 5.8610
v  -8.3076 3.5367 5.8610
v  8.3076 3.5367 -5.8610
v  -8.3076 3.5367 -5.8610
v  7.7748 0.9585 5.3282
v  -7.7748 0.9585 5.3282
v  7.7748 0.9585 -5.3282
v  -7.7748 0.9585 -5.3282
# 16 vertices

vn 0.0000 -1.0000 -0.0000
vn 0.0000 -0.1962 0.9806
vn 0.9806 -0.1962 -0.0000
vn 0.0000 -0.1962 -0.9806
vn -0.9806 -0.1962 -0.0000
vn 0.0000 1.0000 -0.0000
vn 0.0000 0.2024 -0.9793
vn -0.9793 0.2024 -0.0000
vn 0.0000 0.2024 0.9793
vn 0.9793 0.2024 -0.0000
# 10 vertex normals

vt 0.0984 0.9188 0.0000
vt 0.0984 0.6663 0.0000
vt 0.4514 0.6663 0.0000
vt 0.4514 0.9188 0.0000
vt 0.0488 0.1633 0.0000
vt 0.6186 0.1633 0.0000
vt 0.6389 0.2672 0.0000
vt 0.0284 0.2672 0.0000
vt 0.0557 0.0107 0.0000
vt 0.6107 0.0107 0.0000
vt 0.6385 0.1522 0.0000
vt 0.0280 0.1522 0.0000
vt 0.5180 0.6318 0.0000
vt 0.9851 0.6318 0.0000
vt 0.9670 0.6498 0.0000
vt 0.5360 0.6498 0.0000
vt 0.9851 0.9889 0.0000
vt 0.9670 0.9709 0.0000
vt 0.5180 0.9889 0.0000
vt 0.5360 0.9709 0.0000
vt 0.7162 0.4460 0.0000
vt 0.0962 0.4460 0.0000
vt 0.1161 0.3478 0.0000
vt 0.6963 0.3478 0.0000
vt 0.7113 0.6134 0.0000
vt 0.1017 0.6134 0.0000
vt 0.1294 0.4765 0.0000
vt 0.6835 0.4765 0.0000
vt 0.0565 0.9427 0.0000
vt 0.0565 0.6454 0.0000
vt 0.4904 0.6454 0.0000
vt 0.4904 0.9427 0.0000
# 32 texture coords

g DiceTray
usemtl 01___Default
s 2
f 1/1/1 2/2/1 3/3/1 4/4/1 
s 8
f 1/5/2 4/6/2 5/7/2 6/8/2 
s 16
f 4/9/3 3/10/3 7/11/3 5/12/3 
s 32
f 3/5/4 2/6/4 8/7/4 7/8/4 
s 64
f 2/9/5 1/10/5 6/11/5 8/12/5 
s off
f 6/13/6 5/14/6 9/15/6 10/16/6 
f 5/14/6 7/17/6 11/18/6 9/15/6 
f 7/17/6 8/19/6 12/20/6 11/18/6 
f 8/19/6 6/13/6 10/16/6 12/20/6 
f 10/21/7 9/22/7 13/23/7 14/24/7 
f 9/25/8 11/26/8 15/27/8 13/28/8 
f 11/21/9 12/22/9 16/23/9 15/24/9 
f 12/25/10 10/26/10 14/27/10 16/28/10 
s 1
f 16/29/6 14/30/6 13/31/6 15/32/6 
# 14 polygons

