# Blender v2.79 (sub 0) OBJ File: ''
# www.blender.org
mtllib garbopile_2.mtl
o garbage_a_Untitled.001
v -1.482422 0.030090 -0.222534
v -1.387695 0.030579 0.055481
v -1.158203 0.029800 -0.019211
v -1.250000 0.029648 -0.300537
v 0.161621 -0.024414 1.241211
v 0.208496 -0.026062 1.182617
v 0.202148 0.080811 0.943359
v 0.764648 0.077393 0.688965
v 0.654297 -0.026520 0.843750
v 1.048828 -0.027344 0.581543
v 0.591797 0.203857 0.634277
v 0.427490 0.138672 0.755859
v 0.467041 0.113037 0.890625
v 0.583008 0.107788 0.911621
v 0.605957 0.096985 1.117188
v 0.796387 -0.026459 1.050781
v 0.691895 -0.026367 1.255859
v 0.385986 0.094177 1.172852
v 0.385498 -0.027084 1.258789
v 0.100830 0.112244 0.757324
v -0.095459 0.163086 0.867676
v -0.169312 -0.026291 1.147461
v 0.820801 0.074036 0.222656
v 0.992676 0.136353 0.223877
v 0.955078 0.088745 0.063782
v 1.110352 0.034424 0.120300
v 1.131836 -0.026520 -0.101807
v 1.168945 -0.027237 0.383545
v 0.780273 0.183228 0.445801
v 0.633301 0.137207 0.461426
v 0.393311 0.165527 0.332031
v 0.027222 0.169434 0.544922
v -0.074646 0.197998 0.724609
v -0.234497 0.144043 0.783691
v 1.076172 0.080872 -0.081360
v 0.810547 0.096069 0.039368
v 0.519043 0.172363 0.102844
v 0.714355 0.180054 0.198364
v 0.376465 0.261230 0.143311
v 0.567871 0.207397 0.309570
v 0.135376 0.276855 0.213989
v 0.202759 0.321045 0.110352
v -0.372070 0.109863 0.782227
v -0.471436 0.110962 0.941895
v -0.289307 0.179688 0.951172
v -0.207764 0.157715 0.583984
v -0.433105 0.182739 0.575195
v -0.497070 0.216919 0.701172
v -0.282471 -0.026581 1.042969
v -0.479004 -0.026886 1.064453
v -0.653809 -0.024322 0.937500
v -0.772461 -0.025848 0.756348
v -0.742188 0.103638 0.500977
v -0.553223 0.225830 0.348877
v -1.241211 -0.025497 -0.263916
v -0.936523 0.121887 -0.393799
v -1.204102 -0.026016 -0.365479
v -1.120117 0.072571 0.026291
v -1.150391 -0.026413 0.053833
v -0.938965 0.088806 0.046448
v -1.112305 -0.025681 0.154907
v -0.969727 0.159546 0.273926
v -1.104492 -0.025909 0.309570
v -0.975098 -0.025650 0.446533
v -0.841797 0.090393 0.364258
v -0.773926 0.114929 0.130493
v -0.464111 0.213867 0.286621
v -0.408203 0.268066 0.400635
v -0.251709 0.290039 0.415527
v -0.224731 0.266113 0.303223
v -0.171387 0.320801 0.355713
v 0.077820 0.242188 0.052551
v -0.708984 0.115173 -0.113831
v -0.873535 0.127441 -0.042755
v -1.088867 -0.026306 -0.839844
v -1.278320 -0.027161 -0.824707
v -1.277344 0.108826 -0.687012
v -1.365234 -0.026855 -0.667969
v -1.316406 -0.026199 -0.497803
v -1.099609 0.192017 -0.602539
v -0.783203 0.108459 -0.502930
v -0.676270 0.136475 -0.358643
v -0.564941 0.256348 -0.519531
v -0.375977 0.189331 -0.356201
v -0.467285 0.280029 -0.164307
v -0.621094 0.113159 -0.658691
v -0.888184 0.065674 -0.714844
v -0.937012 0.111572 -0.831543
v -1.022461 -0.022339 -1.000977
v -0.722168 0.136108 -0.931641
v -0.765137 -0.024765 -1.103516
v -0.602051 -0.026367 -1.084961
v -0.652344 0.099487 -0.808105
v -0.498047 0.087830 -0.894043
v -0.435059 0.133667 -0.634766
v -0.347168 0.197021 -0.766113
v -0.266113 0.196533 -0.506836
v -0.062469 0.159546 -0.494141
v -0.127686 0.129517 -0.788086
v 0.171875 0.275635 -0.543457
v 0.141968 0.145142 -0.693359
v 0.249756 0.101013 -0.923828
v -0.319824 0.148926 -0.938477
v -0.364990 -0.026032 -1.181641
v -0.142456 -0.026276 -1.124023
v -0.039154 0.115662 -1.027344
v -0.028732 -0.026306 -1.069336
v 0.243164 -0.026321 -1.109375
v 0.391113 0.090271 -1.148438
v 0.361084 -0.026718 -1.249023
v 0.592773 -0.026459 -1.174805
v 0.331787 0.087219 -0.812500
v 0.494629 0.092712 -0.992676
v 0.538086 0.072388 -1.115234
v 0.630371 -0.026489 -1.077148
v 0.630371 0.126221 -0.939941
v 0.487061 0.141724 -0.722168
v 0.634766 0.152588 -0.736816
v 0.743164 -0.026291 -0.836914
v 0.726562 -0.027054 -0.995117
v 0.944336 0.080933 -0.806641
v 1.128906 0.081970 -0.634766
v 0.959961 -0.026260 -0.876953
v 0.682617 0.080872 -0.666992
v 0.643555 0.063538 -0.586426
v 0.425537 0.191650 -0.607422
v 0.264893 0.160034 -0.387939
v 0.098633 0.222290 -0.383057
v -0.143066 0.343994 -0.389648
v 0.254395 0.211548 -0.275391
v 0.505371 0.161621 -0.195557
v 0.737305 0.108032 -0.322021
v 0.694336 0.162353 -0.617676
v 0.900391 0.161255 -0.642578
v 1.107422 0.075500 -0.499023
v 0.954102 0.090637 -0.372559
v 0.206543 0.246338 -0.007374
v 1.016602 -0.027054 -0.394775
v 1.142578 -0.027115 -0.461426
v 1.162109 -0.027542 -0.668945
v -0.218018 0.363770 -0.163208
v -0.014351 0.308350 0.029739
v -0.333496 0.220581 -0.069763
v -0.496582 0.205933 0.035004
v -0.584473 0.261230 0.160889
v -0.256836 0.322998 0.044769
v -0.109253 0.346436 0.142700
v 1.393555 0.018188 -0.274902
v 1.099609 0.018143 -0.388184
v 1.065430 0.016800 -0.297607
v 1.359375 0.016861 -0.186035
v -0.292480 0.018005 -1.337891
v -0.437500 0.017960 -1.566406
v -0.577148 0.015655 -1.475586
v -0.430664 0.015716 -1.250977
v -0.782227 0.030090 1.216797
v -0.485840 0.030685 1.029297
v -0.637207 0.029755 0.783203
v -0.937500 0.029572 0.968750
v 1.125977 0.035797 0.535645
v 0.959473 0.035797 0.735352
v 0.987793 0.035675 0.743652
v 1.159180 0.035706 0.549805
v 1.162109 0.017990 0.456787
v 1.146484 0.017990 0.580566
v 1.239258 0.018021 0.592773
v 1.255859 0.018021 0.463867
v 1.002930 0.031616 0.857422
v 0.820801 0.031586 0.717773
v 0.715820 0.029526 0.824219
v 0.913574 0.029587 0.972656
v 1.409180 0.021194 -0.194092
v 1.152344 0.021194 -0.233398
v 1.160156 0.021164 -0.204834
v 1.414062 0.021179 -0.158203
v -1.157227 0.035797 0.306152
v -1.386719 0.035797 0.183960
v -1.388672 0.035675 0.213379
v -1.165039 0.035706 0.341797
v -1.300781 0.017990 0.310303
v -1.424805 0.017990 0.320801
v -1.417969 0.018021 0.413818
v -1.288086 0.018021 0.404053
v 0.892090 0.030090 0.041595
v 1.148438 0.030685 0.280518
v 1.347656 0.029755 0.071472
v 1.091797 0.029572 -0.171997
v -1.231445 0.031616 0.303955
v -1.131836 0.031586 0.097900
v -1.257812 0.029526 0.016663
v -1.362305 0.029587 0.240112
v 0.997559 0.019043 -1.096680
v 0.769043 0.019012 -1.090820
v 0.754395 0.016952 -0.942383
v 1.000977 0.017014 -0.951172
v 0.335205 0.228882 0.242554
v 0.264893 0.203735 0.301758
v 0.072327 0.335693 0.130493
v 0.134888 0.361816 0.069885
v 0.335205 0.229736 0.242554
v 0.264893 0.204590 0.301758
v -0.893555 0.081055 0.574219
v -1.019531 -0.026245 0.601562
v -0.946289 -0.025223 0.711914
v 0.367432 0.017975 -1.475586
v 0.262939 0.017975 -1.355469
v 0.352295 0.018036 -1.275391
v 0.462402 0.018036 -1.400391
v 0.445312 0.018005 -1.493164
vt -0.071106 1.598145
vt -0.024933 1.451660
vt 0.092102 1.498779
vt 0.044647 1.639648
vt 0.625000 -0.175781
vt 0.657227 -0.134766
vt 0.659668 -0.014648
vt 0.937988 0.123047
vt 0.900391 0.016602
vt 1.085938 0.165039
vt 0.843750 0.152832
vt 0.771973 0.083496
vt 0.785645 0.010254
vt 0.835449 -0.016602
vt 0.837402 -0.104492
vt 0.942383 -0.095703
vt 0.879883 -0.185547
vt 0.744141 -0.119141
vt 0.734863 -0.184570
vt 0.615234 0.074707
vt 0.519043 0.031250
vt 0.479980 -0.122070
vt 0.958984 0.354492
vt 1.037109 0.344238
vt 1.027344 0.418945
vt 1.106445 0.390625
vt 1.130859 0.493652
vt 1.143555 0.259766
vt 0.937012 0.245117
vt 0.868652 0.233398
vt 0.751465 0.283691
vt 0.578613 0.177734
vt 0.526855 0.097168
vt 0.449707 0.066406
vt 1.079102 0.487305
vt 0.956543 0.439941
vt 0.813965 0.408691
vt 0.895996 0.356934
vt 0.737305 0.380371
vt 0.832031 0.307617
vt 0.626953 0.348145
vt 0.659180 0.397461
vt 0.375732 0.071777
vt 0.336426 -0.005859
vt 0.417480 -0.001953
vt 0.464111 0.159180
vt 0.352783 0.175781
vt 0.323730 0.124512
vt 0.407227 -0.101562
vt 0.312988 -0.086914
vt 0.238037 -0.016602
vt 0.177002 0.064941
vt 0.195312 0.204102
vt 0.297607 0.280762
vt -0.062561 0.573975
vt 0.092468 0.637207
vt -0.051636 0.622070
vt 0.007721 0.442383
vt -0.028763 0.422363
vt 0.087524 0.418457
vt -0.020370 0.369141
vt 0.085876 0.320801
vt -0.013237 0.281738
vt 0.061188 0.211914
vt 0.139282 0.264648
vt 0.177490 0.380371
vt 0.337158 0.310059
vt 0.378662 0.261719
vt 0.447998 0.257812
vt 0.454834 0.310059
vt 0.487793 0.280762
vt 0.601562 0.428223
vt 0.198486 0.501221
vt 0.122314 0.468262
vt 0.004620 0.895386
vt -0.086792 0.863647
vt -0.054749 0.784180
vt -0.126099 0.781738
vt -0.109314 0.692383
vt 0.024963 0.750244
vt 0.168213 0.695801
vt 0.216064 0.622314
vt 0.282227 0.696045
vt 0.367188 0.627197
vt 0.328369 0.529785
vt 0.252197 0.773682
vt 0.126465 0.802124
vt 0.097778 0.860352
vt 0.059967 0.956573
vt 0.198730 0.897339
vt 0.183105 0.998945
vt 0.260986 0.989891
vt 0.233643 0.844849
vt 0.308594 0.885315
vt 0.343506 0.762207
vt 0.391113 0.819946
vt 0.427002 0.698730
vt 0.525879 0.706299
vt 0.495361 0.840576
vt 0.634766 0.718018
vt 0.626953 0.803223
vt 0.677734 0.911438
vt 0.400146 0.899048
vt 0.374023 1.033325
vt 0.483643 1.013557
vt 0.541504 0.945862
vt 0.551758 1.009216
vt 0.674316 1.019989
vt 0.754395 1.008675
vt 0.739746 1.078308
vt 0.851562 1.047119
vt 0.727051 0.858643
vt 0.802734 0.942169
vt 0.817871 1.000117
vt 0.879395 1.002180
vt 0.861328 0.913696
vt 0.803711 0.810547
vt 0.867676 0.824585
vt 0.955078 0.891602
vt 0.930176 0.964905
vt 1.041992 0.841431
vt 1.115234 0.759888
vt 1.066406 0.893066
vt 0.911133 0.796143
vt 0.889648 0.747070
vt 0.779785 0.741211
vt 0.697266 0.649414
vt 0.609863 0.646240
vt 0.494385 0.624512
vt 0.684570 0.589600
vt 0.812500 0.552734
vt 0.933594 0.615479
vt 0.930176 0.759766
vt 1.014648 0.768066
vt 1.107422 0.703613
vt 1.035156 0.627441
vt 0.664062 0.459961
vt 1.093750 0.632812
vt 1.151367 0.675537
vt 1.160156 0.782471
vt 0.471191 0.536133
vt 0.545898 0.439453
vt 0.387695 0.491211
vt 0.313232 0.437500
vt 0.290771 0.375488
vt 0.435791 0.426270
vt 0.504395 0.389160
vt 0.560059 1.863770
vt 0.577637 1.963379
vt 0.546387 1.969238
vt 0.527832 1.871094
vt 0.560059 1.863770
vt 0.577637 1.963379
vt 0.514648 1.974609
vt 0.495850 1.877930
vt 0.024765 2.027344
vt 0.065613 1.887695
vt 0.192383 1.924805
vt 0.146851 2.064453
vt 0.098816 2.019531
vt 0.166382 1.933594
vt 0.172974 1.944824
vt 0.108215 2.032227
vt 0.691895 2.296875
vt 0.714355 2.266602
vt 0.734375 2.281250
vt 0.709961 2.312500
vt 0.154175 2.196289
vt 0.169312 2.280273
vt 0.114319 2.297852
vt 0.097290 2.208984
vt 0.098816 2.019531
vt 0.166382 1.933594
vt 0.172974 1.944824
vt 0.108215 2.032227
vt 0.098816 2.019531
vt 0.166382 1.933594
vt 0.172974 1.944824
vt 0.108215 2.032227
vt 0.691895 2.296875
vt 0.714355 2.266602
vt 0.734375 2.281250
vt 0.709961 2.312500
vt 0.276611 1.315186
vt 0.421387 1.308594
vt 0.427979 1.440430
vt 0.281250 1.442627
vt 0.154175 2.196289
vt 0.169312 2.280273
vt 0.114319 2.297852
vt 0.097290 2.208984
vt 0.154175 2.196289
vt 0.169312 2.280273
vt 0.114319 2.297852
vt 0.097290 2.208984
vt 0.560059 1.863770
vt 0.527832 1.871094
vt 0.546387 1.969238
vt 0.577637 1.963379
vt 0.560059 1.863770
vt 0.527832 1.871094
vt 0.122559 0.159668
vt 0.050598 0.135254
vt 0.093933 0.086426
vt 0.738281 2.279297
vt 0.736816 2.245117
vt 0.764648 2.243164
vt 0.765625 2.278320
vt 0.754883 2.293945
vn 0.0024 1.0000 -0.0024
vn 0.0025 1.0000 -0.0026
vn 0.0021 1.0000 -0.0019
vn 0.0016 1.0000 -0.0010
vn 0.1442 0.8908 0.4310
vn 0.1041 0.9072 0.4076
vn 0.0623 0.9556 0.2879
vn 0.3983 0.7479 0.5310
vn 0.5439 0.8177 0.1886
vn 0.4806 0.7890 0.3828
vn 0.2213 0.9558 0.1936
vn 0.0668 0.9647 0.2547
vn 0.1254 0.9921 0.0006
vn 0.4412 0.8203 -0.3639
vn 0.3324 0.9167 0.2218
vn 0.5273 0.8474 -0.0632
vn 0.3593 0.7705 0.5265
vn -0.2651 0.8755 0.4041
vn -0.1503 0.5720 0.8063
vn 0.1443 0.9735 0.1771
vn -0.0669 0.9393 0.3365
vn -0.2050 0.7802 0.5910
vn 0.0582 0.9799 -0.1907
vn 0.2539 0.9624 -0.0964
vn 0.1414 0.9483 -0.2842
vn 0.6647 0.7361 -0.1280
vn 0.7538 0.6547 -0.0569
vn 0.5826 0.7884 0.1975
vn 0.0082 0.9993 0.0355
vn 0.1576 0.9875 0.0088
vn 0.0194 0.9569 0.2897
vn 0.1411 0.9602 0.2411
vn 0.0615 0.9945 0.0848
vn -0.1664 0.9834 0.0723
vn 0.6302 0.6722 0.3886
vn 0.1737 0.9841 0.0380
vn 0.3004 0.8880 -0.3482
vn 0.5629 0.7438 -0.3604
vn 0.2753 0.9592 -0.0649
vn 0.1063 0.9478 0.3006
vn 0.0533 0.9779 0.2024
vn -0.0167 0.9958 -0.0903
vn -0.1783 0.9766 0.1203
vn -0.4331 0.8571 0.2789
vn 0.1213 0.9228 0.3657
vn -0.0592 0.9512 0.3029
vn 0.0042 0.9840 0.1781
vn -0.0260 0.9349 0.3539
vn -0.3999 0.4272 0.8109
vn -0.1712 0.6599 0.7316
vn -0.4342 0.8640 0.2549
vn -0.2953 0.8396 0.4558
vn -0.3685 0.9159 0.1590
vn -0.1704 0.9853 0.0141
vn -0.5466 0.8328 -0.0881
vn -0.1296 0.9842 0.1203
vn -0.5032 0.8471 0.1710
vn -0.4971 0.7042 0.5069
vn -0.6539 0.6129 0.4436
vn -0.2718 0.9546 0.1221
vn -0.6479 0.7617 -0.0070
vn -0.3112 0.9301 0.1952
vn -0.7422 0.5976 0.3032
vn -0.5502 0.8010 0.2361
vn -0.1773 0.9309 0.3195
vn -0.2417 0.9704 0.0004
vn -0.1990 0.9746 0.1030
vn -0.4248 0.8987 0.1087
vn -0.1354 0.9455 0.2961
vn -0.2541 0.9617 -0.1025
vn -0.1250 0.9916 0.0346
vn 0.1411 0.9898 -0.0222
vn -0.2520 0.9675 -0.0211
vn -0.0850 0.9931 0.0804
vn -0.4041 0.7353 -0.5441
vn -0.3452 0.6690 -0.6583
vn -0.5362 0.8102 -0.2366
vn -0.8417 0.5358 -0.0669
vn -0.6098 0.6938 0.3831
vn -0.1772 0.9840 -0.0186
vn -0.1210 0.9842 -0.1293
vn -0.2839 0.9559 0.0746
vn -0.0934 0.9836 -0.1542
vn -0.2247 0.9551 -0.1932
vn -0.0522 0.9979 -0.0378
vn -0.1768 0.9324 -0.3153
vn 0.2042 0.9789 0.0007
vn -0.1881 0.9606 -0.2045
vn -0.4410 0.7791 -0.4456
vn 0.1670 0.9514 -0.2587
vn -0.2439 0.7377 -0.6295
vn -0.0222 0.8474 -0.5305
vn 0.0858 0.7166 -0.6922
vn 0.0462 0.9968 -0.0656
vn -0.2872 0.9162 -0.2794
vn -0.1659 0.9665 -0.1960
vn -0.1775 0.9780 -0.1098
vn -0.1655 0.9456 -0.2800
vn -0.0326 0.9229 -0.3836
vn 0.0859 0.9687 -0.2328
vn 0.1952 0.9779 -0.0745
vn 0.0361 0.8676 -0.4960
vn -0.0009 0.9714 -0.2375
vn 0.0129 0.9139 -0.4058
vn -0.0478 0.8150 -0.5775
vn 0.1119 0.7562 -0.6447
vn -0.0827 0.8037 -0.5893
vn 0.3018 0.4201 -0.8558
vn -0.4239 0.7395 -0.5230
vn -0.1386 0.8562 -0.4978
vn -0.2063 0.6678 -0.7151
vn 0.5303 0.6330 -0.5641
vn 0.0256 0.9868 -0.1596
vn 0.0875 0.9776 -0.1916
vn 0.4732 0.8177 -0.3279
vn 0.5942 0.6740 -0.4390
vn 0.3702 0.8561 -0.3606
vn 0.0366 0.9892 -0.1417
vn 0.3897 0.9120 0.1280
vn 0.4283 0.7892 -0.4401
vn 0.7154 0.5860 -0.3806
vn 0.1495 0.7394 -0.6565
vn 0.7148 0.6732 -0.1893
vn 0.2345 0.5439 -0.8057
vn 0.1326 0.9474 -0.2912
vn -0.1413 0.9900 -0.0055
vn -0.0015 0.9820 -0.1889
vn 0.2458 0.9664 -0.0756
vn 0.2198 0.9399 -0.2612
vn -0.0198 0.8919 -0.4518
vn 0.2905 0.9302 -0.2243
vn 0.2050 0.9780 -0.0380
vn 0.1343 0.9906 0.0271
vn -0.4700 0.8367 -0.2810
vn 0.0679 0.9834 -0.1682
vn 0.6295 0.6785 0.3787
vn 0.4150 0.8995 0.1364
vn 0.0613 0.9564 -0.2854
vn 0.8148 0.4500 0.3654
vn 0.7312 0.4231 0.5352
vn 0.8633 0.3692 -0.3441
vn -0.3172 0.9373 0.1447
vn 0.3264 0.9428 0.0678
vn -0.2410 0.9690 -0.0551
vn -0.2695 0.9259 -0.2646
vn -0.4024 0.8980 0.1781
vn -0.1656 0.9464 -0.2772
vn 0.2376 0.9254 0.2954
vn -0.0051 0.9999 0.0130
vn -0.0051 0.9999 0.0129
vn -0.0118 0.9999 0.0074
vn -0.0118 0.9999 0.0073
vn -0.0119 0.9999 0.0075
vn -0.0022 1.0000 -0.0015
vn -0.0032 1.0000 -0.0018
vn -0.0024 1.0000 -0.0016
vn -0.0014 1.0000 -0.0012
vn 0.0020 1.0000 0.0019
vn 0.0035 1.0000 0.0029
vn 0.0034 1.0000 0.0028
vn -0.0003 1.0000 -0.0000
vn -0.0085 0.9999 0.0110
vn -0.0085 0.9999 0.0109
vn -0.0086 0.9999 0.0110
vn -0.0001 1.0000 0.0005
vn -0.0002 1.0000 0.0011
vn -0.0001 1.0000 0.0004
vn -0.0015 1.0000 0.0024
vn -0.0021 1.0000 0.0040
vn -0.0021 1.0000 0.0039
vn -0.0014 1.0000 0.0023
vn -0.0000 1.0000 -0.0003
vn 0.0009 1.0000 -0.0025
vn 0.0010 1.0000 -0.0035
vn 0.0009 1.0000 -0.0027
vn 0.0008 1.0000 -0.0016
vn -0.0125 0.9999 -0.0061
vn -0.0124 0.9999 -0.0061
vn 0.0002 0.9999 0.0139
vn -0.1280 -0.8504 -0.5103
vn -0.1271 -0.8497 -0.5118
vn -0.7168 0.2731 -0.6415
vn -0.6734 0.5953 -0.4384
vn 0.1263 0.8516 0.5088
vn 0.1254 0.8508 0.5103
vn -0.3284 0.9400 0.0924
vn -0.6321 0.7681 0.1019
vn -0.3271 0.8045 0.4957
vn -0.0004 1.0000 -0.0003
vn -0.0004 1.0000 -0.0002
usemtl garbage
s 1
f 1/1/1 2/2/2 3/3/3
f 3/3/3 4/4/4 1/1/1
f 5/5/5 6/6/6 7/7/7
f 8/8/8 9/9/9 10/10/10
f 11/11/11 9/9/9 8/8/8
f 12/12/12 9/9/9 11/11/11
f 9/9/9 12/12/12 13/13/13
f 9/9/9 13/13/13 14/14/14
f 14/14/14 13/13/13 15/15/15
f 9/9/9 14/14/14 15/15/15
f 15/15/15 16/16/16 9/9/9
f 16/16/16 15/15/15 17/17/17
f 17/17/17 15/15/15 18/18/18
f 18/18/18 19/19/19 17/17/17
f 19/19/19 18/18/18 6/6/6
f 6/6/6 18/18/18 13/13/13
f 7/7/7 6/6/6 13/13/13
f 7/7/7 13/13/13 12/12/12
f 12/12/12 20/20/20 7/7/7
f 21/21/21 7/7/7 20/20/20
f 5/5/5 7/7/7 21/21/21
f 22/22/22 5/5/5 21/21/21
f 13/13/13 18/18/18 15/15/15
f 23/23/23 24/24/24 25/25/25
f 24/24/24 26/26/26 25/25/25
f 25/25/25 26/26/26 27/27/27
f 26/26/26 28/28/28 27/27/27
f 26/26/26 24/24/24 28/28/28
f 24/24/24 10/10/10 28/28/28
f 10/10/10 24/24/24 29/29/29
f 29/29/29 8/8/8 10/10/10
f 30/30/30 8/8/8 29/29/29
f 11/11/11 8/8/8 30/30/30
f 30/30/30 31/31/31 11/11/11
f 11/11/11 31/31/31 12/12/12
f 12/12/12 31/31/31 32/32/32
f 32/32/32 20/20/20 12/12/12
f 20/20/20 32/32/32 33/33/33
f 20/20/20 33/33/33 21/21/21
f 21/21/21 33/33/33 34/34/34
f 22/22/22 21/21/21 34/34/34
f 27/27/27 35/35/35 36/36/36
f 36/36/36 25/25/25 27/27/27
f 36/36/36 23/23/23 25/25/25
f 37/37/37 23/23/23 36/36/36
f 37/37/37 38/38/38 23/23/23
f 38/38/38 37/37/37 39/39/39
f 39/39/39 40/40/40 38/38/38
f 31/31/31 40/40/40 39/39/39
f 31/31/31 30/30/30 40/40/40
f 38/38/38 40/40/40 30/30/30
f 30/30/30 23/23/23 38/38/38
f 30/30/30 29/29/29 23/23/23
f 23/23/23 29/29/29 24/24/24
f 32/32/32 31/31/31 41/41/41
f 31/31/31 42/42/42 41/41/41
f 31/31/31 39/39/39 42/42/42
f 42/42/42 39/39/39 37/37/37
f 43/43/43 44/44/44 45/45/45
f 34/34/34 43/43/43 45/45/45
f 43/43/43 34/34/34 46/46/46
f 46/46/46 34/34/34 33/33/33
f 32/32/32 46/46/46 33/33/33
f 46/46/46 47/47/47 43/43/43
f 47/47/47 48/48/48 43/43/43
f 34/34/34 45/45/45 22/22/22
f 22/22/22 45/45/45 49/49/49
f 45/45/45 44/44/44 49/49/49
f 50/50/50 49/49/49 44/44/44
f 44/44/44 51/51/51 50/50/50
f 51/51/51 44/44/44 43/43/43
f 43/43/43 52/52/52 51/51/51
f 43/43/43 48/48/48 52/52/52
f 53/53/53 52/52/52 48/48/48
f 53/53/53 48/48/48 47/47/47
f 54/54/54 53/53/53 47/47/47
f 55/55/55 56/56/56 57/57/57
f 56/56/56 55/55/55 58/58/58
f 58/58/58 55/55/55 59/59/59
f 58/58/58 59/59/59 60/60/60
f 59/59/59 61/61/61 60/60/60
f 60/60/60 61/61/61 62/62/62
f 61/61/61 63/63/63 62/62/62
f 63/63/63 64/64/64 62/62/62
f 62/62/62 64/64/64 65/65/65
f 65/65/65 64/64/64 53/53/53
f 66/66/66 65/65/65 53/53/53
f 66/66/66 53/53/53 54/54/54
f 54/54/54 67/67/67 66/66/66
f 47/47/47 67/67/67 54/54/54
f 68/68/68 67/67/67 47/47/47
f 46/46/46 68/68/68 47/47/47
f 46/46/46 69/69/69 68/68/68
f 69/69/69 46/46/46 32/32/32
f 70/70/70 67/67/67 68/68/68
f 68/68/68 69/69/69 70/70/70
f 69/69/69 71/71/71 70/70/70
f 71/71/71 72/72/72 70/70/70
f 73/73/73 74/74/74 66/66/66
f 75/75/75 76/76/76 77/77/77
f 77/77/77 76/76/76 78/78/78
f 77/77/77 78/78/78 79/79/79
f 80/80/80 77/77/77 79/79/79
f 57/57/57 80/80/80 79/79/79
f 57/57/57 56/56/56 80/80/80
f 81/81/81 80/80/80 56/56/56
f 82/82/82 81/81/81 56/56/56
f 81/81/81 82/82/82 83/83/83
f 82/82/82 84/84/84 83/83/83
f 82/82/82 85/85/85 84/84/84
f 82/82/82 73/73/73 85/85/85
f 73/73/73 82/82/82 56/56/56
f 74/74/74 73/73/73 56/56/56
f 74/74/74 56/56/56 58/58/58
f 60/60/60 74/74/74 58/58/58
f 66/66/66 74/74/74 60/60/60
f 66/66/66 60/60/60 62/62/62
f 66/66/66 62/62/62 65/65/65
f 80/80/80 75/75/75 77/77/77
f 83/83/83 86/86/86 81/81/81
f 87/87/87 81/81/81 86/86/86
f 81/81/81 87/87/87 80/80/80
f 80/80/80 87/87/87 88/88/88
f 80/80/80 88/88/88 75/75/75
f 88/88/88 89/89/89 75/75/75
f 89/89/89 88/88/88 90/90/90
f 90/90/90 91/91/91 89/89/89
f 92/92/92 91/91/93 90/90/90
f 92/92/92 90/90/90 93/93/94
f 94/94/95 92/92/92 93/93/94
f 86/86/86 94/94/95 93/93/94
f 95/95/96 94/94/95 86/86/86
f 95/95/96 96/96/97 94/94/95
f 96/96/97 95/95/96 97/97/98
f 96/96/97 97/97/98 98/98/99
f 98/98/99 99/99/100 96/96/97
f 98/98/99 100/100/101 99/99/100
f 86/86/86 93/93/94 87/87/87
f 87/87/87 93/93/94 90/90/90
f 90/90/90 88/88/88 87/87/87
f 99/99/100 101/101/102 102/102/103
f 99/99/100 103/103/104 96/96/97
f 96/96/97 103/103/104 94/94/95
f 92/92/92 94/94/95 103/103/104
f 103/103/104 104/104/105 92/92/92
f 103/103/104 105/105/106 104/104/105
f 99/99/100 105/105/106 103/103/104
f 99/99/100 106/106/107 105/105/106
f 102/102/103 106/106/107 99/99/100
f 106/106/107 102/102/103 107/107/108
f 107/107/108 102/102/103 108/108/109
f 108/108/109 102/102/103 109/109/110
f 109/109/110 110/110/111 108/108/109
f 111/111/112 110/110/111 109/109/110
f 106/106/107 107/107/108 105/105/106
f 101/101/102 99/99/100 100/100/101
f 100/100/101 112/112/113 101/101/102
f 102/102/103 101/101/102 112/112/113
f 112/112/113 113/113/114 102/102/103
f 109/109/110 102/102/103 113/113/114
f 113/113/114 114/114/115 109/109/110
f 109/109/110 114/114/115 111/111/112
f 114/114/115 115/115/116 111/111/112
f 114/114/115 113/113/114 115/115/116
f 116/116/117 115/115/116 113/113/114
f 116/116/117 113/113/114 112/112/113
f 112/112/113 117/117/118 116/116/117
f 117/117/118 118/118/119 116/116/117
f 116/116/117 118/118/119 119/119/120
f 119/119/120 120/120/121 116/116/117
f 116/116/117 120/120/121 115/115/116
f 121/121/122 122/122/123 123/123/124
f 121/121/122 123/123/124 119/119/120
f 121/121/122 119/119/120 124/124/125
f 118/118/119 124/124/125 119/119/120
f 125/125/126 124/124/125 118/118/119
f 117/117/118 125/125/126 118/118/119
f 117/117/118 126/126/127 125/125/126
f 126/126/127 117/117/118 112/112/113
f 127/127/128 126/126/127 112/112/113
f 127/127/128 112/112/113 100/100/101
f 100/100/101 128/128/129 127/127/128
f 98/98/99 128/128/129 100/100/101
f 128/128/129 98/98/99 129/129/130
f 129/129/130 98/98/99 97/97/98
f 97/97/98 84/84/84 129/129/130
f 95/95/96 84/84/84 97/97/98
f 84/84/84 95/95/96 83/83/83
f 95/95/96 86/86/86 83/83/83
f 130/130/131 131/131/132 127/127/128
f 127/127/128 131/131/132 126/126/127
f 126/126/127 131/131/132 132/132/133
f 132/132/133 125/125/126 126/126/127
f 125/125/126 132/132/133 133/133/134
f 133/133/134 124/124/125 125/125/126
f 133/133/134 134/134/135 124/124/125
f 124/124/125 134/134/135 121/121/122
f 134/134/135 122/122/123 121/121/122
f 135/135/136 122/122/123 134/134/135
f 134/134/135 136/136/137 135/135/136
f 136/136/137 134/134/135 133/133/134
f 133/133/134 132/132/133 136/136/137
f 72/72/72 137/137/138 130/130/131
f 130/130/131 137/137/138 131/131/132
f 32/32/32 71/71/71 69/69/69
f 41/41/41 71/71/71 32/32/32
f 71/71/71 41/41/41 72/72/72
f 42/42/42 72/72/72 41/41/41
f 42/42/42 137/137/138 72/72/72
f 37/37/37 137/137/138 42/42/42
f 137/137/138 37/37/37 131/131/132
f 131/131/132 37/37/37 36/36/36
f 36/36/36 132/132/133 131/131/132
f 132/132/133 36/36/36 35/35/35
f 35/35/35 136/136/137 132/132/133
f 136/136/137 35/35/35 27/27/27
f 27/27/27 138/138/139 136/136/137
f 135/135/136 136/136/137 138/138/139
f 138/138/139 139/139/140 135/135/136
f 135/135/136 139/139/140 122/122/123
f 139/139/140 140/140/141 122/122/123
f 122/122/123 140/140/141 123/123/124
f 129/129/130 141/141/142 142/142/143
f 84/84/84 141/141/142 129/129/130
f 84/84/84 143/143/144 141/141/142
f 84/84/84 85/85/85 143/143/144
f 144/144/145 143/143/144 85/85/85
f 85/85/85 73/73/73 144/144/145
f 144/144/145 73/73/73 145/145/146
f 73/73/73 66/66/66 145/145/146
f 145/145/146 66/66/66 67/67/67
f 146/146/147 145/145/146 67/67/67
f 67/67/67 70/70/70 146/146/147
f 70/70/70 147/147/148 146/146/147
f 70/70/70 72/72/72 147/147/148
f 147/147/148 72/72/72 142/142/143
f 142/142/143 72/72/72 130/130/131
f 142/142/143 130/130/131 129/129/130
f 128/128/129 129/129/130 130/130/131
f 130/130/131 127/127/128 128/128/129
f 146/146/147 147/147/148 142/142/143
f 146/146/147 144/144/145 145/145/146
f 144/144/145 146/146/147 143/143/144
f 143/143/144 146/146/147 142/142/143
f 141/141/142 143/143/144 142/142/143
f 148/148/149 149/149/150 150/150/150
f 150/150/150 151/151/149 148/148/149
f 152/152/151 153/153/152 154/154/152
f 154/154/152 155/155/153 152/152/151
f 156/156/154 157/157/155 158/158/156
f 158/158/156 159/159/157 156/156/154
f 160/160/158 161/161/159 162/162/160
f 162/162/160 163/163/158 160/160/158
f 164/164/161 165/165/161 166/166/161
f 166/166/161 167/167/161 164/164/161
f 168/168/162 169/169/163 170/170/163
f 170/170/163 171/171/164 168/168/162
f 172/172/165 173/173/166 174/174/166
f 174/174/166 175/175/167 172/172/165
f 176/176/168 177/177/169 178/178/170
f 178/178/170 179/179/171 176/176/168
f 180/180/172 181/181/172 182/182/172
f 182/182/172 183/183/172 180/180/172
f 184/184/173 185/185/174 186/186/175
f 186/186/175 187/187/176 184/184/173
f 188/188/177 189/189/178 190/190/178
f 190/190/178 191/191/177 188/188/177
f 192/192/179 193/193/179 194/194/179
f 194/194/179 195/195/179 192/192/179
f 196/196/180 197/197/181 198/198/182
f 198/198/182 199/199/183 196/196/180
f 200/200/184 199/199/183 198/198/182
f 198/198/182 201/201/185 200/200/184
f 202/202/186 52/52/52 53/53/53
f 53/53/53 64/64/64 202/202/186
f 202/202/186 64/64/64 203/203/187
f 203/203/187 204/204/188 202/202/186
f 202/202/186 204/204/188 52/52/52
f 205/205/189 206/206/189 207/207/189
f 207/207/189 208/208/189 205/205/189
f 205/205/189 208/208/189 209/209/190
