# 3ds Max Wavefront OBJ Exporter v0.97b - (c)2007 guruware
# File Created: 17.05.2017 02:17:38

mtllib tires.mtl

#
# object Mesh_808
#

v  -0.4089 0.9054 -0.6362
v  -0.4233 0.8624 -0.6158
v  -0.7898 0.8612 -0.7530
v  -0.0853 0.9065 0.0746
v  -0.1100 0.8634 0.0722
v  -0.1745 0.8632 -0.3138
v  -0.1519 0.9062 -0.3241
v  -0.0864 1.2739 0.0745
v  -0.1530 1.2736 -0.3242
v  -0.4100 1.2727 -0.6362
v  -0.7875 0.9042 -0.7778
v  -1.1758 0.8601 -0.6885
v  -0.4247 1.3157 -0.6159
v  -0.1758 1.3165 -0.3139
v  -0.1114 1.3168 0.0721
v  -0.2485 1.3165 0.4386
v  -0.2281 1.2735 0.4531
v  -0.2270 0.9062 0.4532
v  -0.2472 0.8631 0.4387
v  -0.5401 1.2726 0.7101
v  -0.5506 1.3156 0.6874
v  -0.9366 1.3145 0.7519
v  -0.5390 0.9053 0.7102
v  -0.5492 0.8623 0.6875
v  -0.9388 1.2715 0.7767
v  -1.3031 1.3133 0.6147
v  -1.3174 1.2703 0.6350
v  -0.9377 0.9041 0.7768
v  -1.3163 0.9030 0.6351
v  -0.9352 0.8611 0.7520
v  -1.3017 0.8600 0.6148
v  0.8985 1.2391 -0.3694
v  0.7089 1.2386 -0.3377
v  0.5605 1.2382 -0.2155
v  1.1651 1.2401 0.2161
v  1.2325 1.2402 0.0360
v  1.2008 1.2401 -0.1536
v  0.5248 1.2381 0.1542
v  0.4931 1.2380 -0.0354
v  1.0785 1.2397 -0.3020
v  0.6470 1.2385 0.3026
v  0.8271 1.2391 0.3700
v  1.0167 1.2396 0.3383
v  -0.8982 1.6984 -0.3684
v  -1.0732 1.6978 -0.2887
v  -1.1848 1.6974 -0.1322
v  -0.4892 1.6993 0.1281
v  -0.4707 1.6994 -0.0632
v  -0.5503 1.6993 -0.2382
v  -1.1237 1.6973 0.2341
v  -1.2033 1.6972 0.0591
v  -0.7068 1.6989 -0.3499
v  -0.9672 1.6977 0.3458
v  -0.7758 1.6983 0.3643
v  -0.6009 1.6989 0.2846
v  -0.7886 1.2716 -0.7779
v  -0.7912 1.3146 -0.7531
v  -1.1863 0.9031 -0.7113
v  -1.1873 1.2704 -0.7113
v  -1.1771 1.3134 -0.6886
v  -1.4994 1.2695 -0.4543
v  -1.4792 1.3126 -0.4398
v  -1.4983 0.9022 -0.4542
v  -1.4778 0.8592 -0.4397
v  -1.6150 0.8589 -0.0732
v  -1.6399 0.9018 -0.0756
v  -1.6410 1.2692 -0.0757
v  -1.6163 1.3123 -0.0733
v  -1.5745 1.2695 0.3230
v  -1.5519 1.3125 0.3127
v  -1.5505 0.8592 0.3128
v  -1.5734 0.9021 0.3231
v  0.0854 1.2658 -0.0748
v  0.1101 1.3089 -0.0724
v  0.2472 1.3092 -0.4389
v  0.2271 1.2661 -0.4534
v  0.0865 0.8985 -0.0747
v  0.2282 0.8988 -0.4533
v  0.5391 1.2670 -0.7104
v  0.5402 0.8997 -0.7103
v  0.9378 1.2682 -0.7770
v  0.9389 0.9008 -0.7769
v  1.3164 1.2694 -0.6353
v  1.3175 0.9020 -0.6352
v  1.3031 0.8590 -0.6149
v  0.9366 0.8578 -0.7521
v  0.5506 0.8567 -0.6876
v  0.2486 0.8559 -0.4388
v  0.9353 1.3112 -0.7522
v  1.3018 1.3123 -0.6150
v  1.5506 1.3131 -0.3130
v  1.5734 1.2702 -0.3233
v  1.6150 1.3134 0.0730
v  1.6400 1.2705 0.0754
v  1.4779 1.3131 0.4395
v  1.4983 1.2701 0.4540
v  1.5745 0.9028 -0.3232
v  1.6411 0.9031 0.0755
v  1.4994 0.9028 0.4541
v  1.1863 1.2693 0.7110
v  1.1874 0.9019 0.7111
v  0.7876 1.2681 0.7776
v  0.7887 0.9007 0.7777
v  1.4792 0.8597 0.4396
v  1.6164 0.8601 0.0731
v  1.5519 0.8598 -0.3129
v  0.7912 0.8577 0.7529
v  1.1772 0.8589 0.6884
v  0.4090 1.2669 0.6359
v  0.4101 0.8996 0.6360
v  0.4247 0.8566 0.6157
v  1.1758 1.3122 0.6883
v  0.7899 1.3111 0.7528
v  0.4233 1.3100 0.6156
v  -0.7096 0.8224 -0.7793
v  -0.7129 0.8654 -0.7546
v  -0.3528 0.8646 -0.6016
v  -0.3375 0.8216 -0.6212
v  -0.7106 0.4551 -0.7788
v  -0.3385 0.4542 -0.6208
v  -0.0944 0.8213 -0.2983
v  -0.0954 0.4540 -0.2978
v  -0.0452 0.8216 0.1030
v  -0.0462 0.4543 0.1034
v  -0.2033 0.8225 0.4750
v  -0.2043 0.4552 0.4755
v  -0.1174 0.8644 -0.2890
v  -0.0698 0.8647 0.0994
v  -0.0710 0.4114 0.1000
v  -0.1186 0.4110 -0.2885
v  -0.3540 0.4113 -0.6011
v  -0.7142 0.4121 -0.7541
v  -0.9285 0.4575 0.7678
v  -0.9251 0.4145 0.7431
v  -0.5367 0.4133 0.6956
v  -0.5272 0.4563 0.7186
v  -0.2241 0.4122 0.4601
v  -0.5262 0.8237 0.7182
v  -0.9274 0.8248 0.7673
v  -1.2995 0.8257 0.6093
v  -1.3005 0.4583 0.6097
v  -1.5427 0.8260 0.2863
v  -1.5437 0.4586 0.2868
v  -1.5918 0.8256 -0.1149
v  -1.5928 0.4583 -0.1145
v  -0.5354 0.8667 0.6950
v  -0.9239 0.8678 0.7426
v  -1.2840 0.8686 0.5896
v  -1.5194 0.8689 0.2770
v  -1.5670 0.8686 -0.1115
v  -0.2228 0.8655 0.4596
v  -1.1026 0.4132 -0.7065
v  -1.1118 0.4562 -0.7297
v  -1.1108 0.8236 -0.7301
v  -1.1014 0.8666 -0.7071
v  -1.4337 0.8247 -0.4870
v  -1.4140 0.8677 -0.4716
v  -1.4348 0.4574 -0.4865
v  -1.4152 0.4144 -0.4711
v  -1.5682 0.4152 -0.1109
v  -1.5207 0.4155 0.2775
v  -1.2853 0.4153 0.5901
v  0.9238 0.8150 0.7792
v  0.9217 0.8580 0.7544
v  0.5370 0.8572 0.6829
v  0.5263 0.8141 0.7054
v  0.9247 0.4476 0.7785
v  0.5272 0.4468 0.7047
v  0.2190 0.8138 0.4427
v  0.2199 0.4465 0.4421
v  0.0842 0.8142 0.0616
v  0.0851 0.4468 0.0610
v  0.1580 0.8151 -0.3358
v  0.1589 0.4477 -0.3365
v  0.2395 0.8569 0.4287
v  0.1090 0.8572 0.0598
v  0.1101 0.4039 0.0590
v  0.2406 0.4036 0.4279
v  0.5381 0.4039 0.6821
v  0.9228 0.4047 0.7536
v  0.8026 0.4501 -0.7786
v  0.8047 0.4070 -0.7538
v  0.4358 0.4059 -0.6233
v  0.4215 0.4489 -0.6438
v  0.1815 0.4047 -0.3258
v  0.4207 0.8162 -0.6431
v  0.8018 0.8174 -0.7779
v  1.1992 0.8182 -0.7041
v  1.2001 0.4509 -0.7048
v  1.5065 0.8185 -0.4415
v  1.5074 0.4512 -0.4421
v  1.6413 0.8182 -0.0604
v  1.6422 0.4508 -0.0610
v  1.6174 0.4078 -0.0592
v  1.4869 0.4081 -0.4281
v  1.1894 0.4078 -0.6823
v  1.6164 0.8611 -0.0584
v  1.4858 0.8614 -0.4273
v  1.1883 0.8612 -0.6815
v  0.8036 0.8604 -0.7530
v  0.4347 0.8592 -0.6225
v  0.1804 0.8581 -0.3250
v  -0.9657 1.7274 -0.7723
v  -0.9617 1.7704 -0.7477
v  -0.5722 1.7715 -0.7100
v  -0.5634 1.7286 -0.7334
v  -0.2537 1.7723 -0.4827
v  -0.2343 1.7294 -0.4986
v  -0.0915 1.7726 -0.1265
v  -0.0668 1.7297 -0.1307
v  -0.1292 1.7723 0.2630
v  -0.1057 1.7293 0.2717
v  -0.0657 1.3623 -0.1309
v  -0.2333 1.3620 -0.4988
v  -0.5623 1.3612 -0.7336
v  -0.9647 1.3601 -0.7725
v  -1.3326 1.3589 -0.6050
v  -1.3336 1.7262 -0.6048
v  -1.5674 1.3580 -0.2760
v  -1.5685 1.7253 -0.2758
v  -1.5452 1.7684 -0.2670
v  -1.3179 1.7693 -0.5855
v  -0.5709 1.3182 -0.7103
v  -0.9604 1.3171 -0.7479
v  -1.3166 1.3159 -0.5858
v  -1.5439 1.3151 -0.2672
v  -1.5815 1.3147 0.1223
v  -1.6063 1.3577 0.1264
v  -1.4194 1.3150 0.4784
v  -1.4388 1.3579 0.4943
v  -1.1009 1.3158 0.7058
v  -1.1097 1.3588 0.7292
v  -1.6074 1.7250 0.1266
v  -1.4398 1.7253 0.4945
v  -1.1108 1.7261 0.7294
v  -1.4207 1.7684 0.4787
v  -1.1022 1.7692 0.7060
v  -1.5829 1.7681 0.1225
v  -0.7113 1.3169 0.7434
v  -0.7074 1.3599 0.7680
v  -0.7084 1.7273 0.7682
v  -0.3395 1.3611 0.6005
v  -0.3405 1.7285 0.6007
v  -0.1046 1.3620 0.2715
v  -0.3552 1.3181 0.5812
v  -0.1278 1.3189 0.2627
v  -0.3565 1.7714 0.5815
v  -0.7127 1.7703 0.7437
v  -0.0902 1.3193 -0.1268
v  -0.2524 1.3190 -0.4829
v  -0.3232 1.3591 0.0516
v  -0.4218 1.3589 0.3150
v  -0.6388 1.3583 0.4938
v  -0.9162 1.3575 0.5402
v  -1.1796 1.3567 0.4416
v  -1.3584 1.3561 0.2245
v  -1.4048 1.3559 -0.0529
v  -1.3062 1.3561 -0.3163
v  -1.0891 1.3567 -0.4951
v  -0.8117 1.3576 -0.5414
v  -0.5483 1.3584 -0.4428
v  -0.3695 1.3589 -0.2258
v  -0.0943 0.3677 0.2395
v  -0.1179 0.4107 0.2318
v  -0.3311 0.4116 0.5599
v  -0.3145 0.3686 0.5785
v  -0.6798 0.4127 0.7374
v  -0.6748 0.3697 0.7619
v  -1.4174 0.3717 0.5203
v  -1.4185 0.0044 0.5205
v  -1.0795 0.0035 0.7408
v  -1.0785 0.3709 0.7406
v  -0.6758 0.0024 0.7621
v  -0.3156 0.0012 0.5787
v  -0.0953 0.0003 0.2398
v  -0.0740 -0.0000 -0.1639
v  -0.0730 0.3673 -0.1642
v  -0.2564 0.3676 -0.5244
v  -0.2748 0.4107 -0.5078
v  -0.0972 0.4104 -0.1590
v  -0.2574 0.0003 -0.5242
v  -0.5964 0.0011 -0.7444
v  -0.5953 0.3685 -0.7447
v  -0.6029 0.4115 -0.7210
v  1.1865 0.3685 0.7115
v  1.1761 0.4115 0.6889
v  0.7901 0.4107 0.7533
v  0.7878 0.3676 0.7780
v  1.1871 0.0011 0.7105
v  0.7884 0.0003 0.7771
v  0.4092 0.3673 0.6364
v  0.4098 -0.0000 0.6354
v  0.1522 0.3677 0.3243
v  0.1528 0.0003 0.3234
v  0.0856 0.3686 -0.0744
v  0.0862 0.0012 -0.0753
v  0.4236 0.4104 0.6162
v  0.1748 0.4107 0.3141
v  0.1103 0.4116 -0.0719
v  0.2475 0.4127 -0.4384
v  0.2273 0.3697 -0.4530
v  0.2279 0.0024 -0.4539
v  0.5393 0.3709 -0.7100
v  0.5399 0.0035 -0.7109
v  0.9380 0.3717 -0.7766
v  0.9386 0.0044 -0.7775
v  1.3166 0.3720 -0.6349
v  1.3172 0.0047 -0.6358
v  1.5736 0.3717 -0.3229
v  1.5742 0.0043 -0.3238
v  0.5495 0.4139 -0.6872
v  0.9355 0.4147 -0.7517
v  1.3020 0.4149 -0.6145
v  1.5508 0.4146 -0.3124
v  1.6153 0.4138 0.0735
v  1.6402 0.3708 0.0758
v  1.4781 0.4126 0.4400
v  1.4985 0.3696 0.4544
v  1.6408 0.0034 0.0749
v  1.4991 0.0023 0.4535
v  1.4032 1.3558 0.0525
v  1.3046 1.3555 0.3159
v  1.0876 1.3549 0.4948
v  0.8102 1.3541 0.5411
v  0.5468 1.3533 0.4425
v  0.3680 1.3527 0.2254
v  0.3216 1.3525 -0.0520
v  0.4202 1.3527 -0.3153
v  0.6373 1.3534 -0.4942
v  0.9147 1.3542 -0.5405
v  1.1781 1.3550 -0.4419
v  1.3569 1.3556 -0.2249
v  0.1745 1.3091 0.3136
v  0.5493 1.3101 -0.6877
v  0.1520 1.2661 0.3239
v  0.1531 0.8987 0.3240
v  0.1759 0.8558 0.3137
v  0.1114 0.8555 -0.0723
v  -1.0001 0.0023 -0.7657
v  -0.9990 0.3696 -0.7660
v  -1.3603 0.0034 -0.5823
v  -1.3593 0.3708 -0.5826
v  -1.5806 0.0043 -0.2434
v  -1.5795 0.3717 -0.2436
v  -1.6019 0.0047 0.1603
v  -1.6008 0.3720 0.1601
v  -1.5557 0.4146 -0.2359
v  -1.3424 0.4138 -0.5641
v  -0.9937 0.4126 -0.7416
v  -1.5763 0.4149 0.1548
v  -1.3987 0.4147 0.5036
v  -1.0706 0.4139 0.7168
v  -0.4919 1.8141 0.4174
v  -0.3285 1.8147 0.1885
v  -0.3015 1.8150 -0.0915
v  -0.4180 1.8148 -0.3474
v  -0.6469 1.8142 -0.5108
v  -0.9268 1.8134 -0.5379
v  -1.1828 1.8126 -0.4213
v  -1.3462 1.8120 -0.1924
v  -1.3732 1.8117 0.0875
v  -1.2567 1.8119 0.3435
v  -1.0278 1.8125 0.5069
v  -0.7478 1.8133 0.5339
v  0.3683 0.4543 0.2261
v  0.5471 0.4540 0.4432
v  0.8105 0.4542 0.5417
v  1.0879 0.4548 0.4954
v  1.3050 0.4556 0.3166
v  1.4035 0.4564 0.0532
v  1.3572 0.4571 -0.2242
v  1.1784 0.4573 -0.4413
v  0.9150 0.4571 -0.5398
v  0.6376 0.4565 -0.4935
v  0.4205 0.4557 -0.3147
v  0.3220 0.4549 -0.0513
v  1.5675 0.8173 0.3370
v  1.5684 0.4499 0.3364
v  1.3049 0.8161 0.6444
v  1.3058 0.4488 0.6437
v  1.2918 0.4058 0.6231
v  1.5460 0.4069 0.3256
v  1.5449 0.8603 0.3264
v  1.2907 0.8591 0.6239
v  -1.3221 0.9112 0.1973
v  -1.3563 0.9110 -0.0819
v  -1.2463 0.9104 -0.3407
v  -1.0216 0.9096 -0.5099
v  -0.7425 0.9088 -0.5441
v  -0.4837 0.9082 -0.4341
v  -0.3145 0.9080 -0.2094
v  -0.2803 0.9082 0.0697
v  -0.3903 0.9088 0.3286
v  -0.6149 0.9097 0.4977
v  -0.8941 0.9105 0.5319
v  -1.1529 0.9110 0.4220
v  1.3104 0.9038 -0.3068
v  1.4042 0.9036 -0.0417
v  1.3529 0.9029 0.2348
v  1.1701 0.9021 0.4486
v  0.9050 0.9013 0.5424
v  0.6285 0.9007 0.4911
v  0.4147 0.9005 0.3084
v  0.3209 0.9008 0.0432
v  0.3723 0.9014 -0.2333
v  0.5550 0.9022 -0.4471
v  0.8201 0.9030 -0.5409
v  1.0966 0.9036 -0.4895
v  -1.3681 0.4573 0.1107
v  -1.3533 0.4571 -0.1702
v  -1.2001 0.4564 -0.4060
v  -0.9494 0.4556 -0.5336
v  -0.6686 0.4548 -0.5188
v  -0.4328 0.4542 -0.3655
v  -0.3052 0.4540 -0.1149
v  -0.3200 0.4543 0.1659
v  -0.4732 0.4549 0.4017
v  -0.7239 0.4557 0.5293
v  -1.0047 0.4565 0.5145
v  -1.2405 0.4571 0.3613
# 420 vertices

vn 0.5633 -0.2482 -0.7881
vn 0.3072 -0.4881 -0.8169
vn 0.0847 -0.5017 -0.8609
vn 0.9646 -0.2468 0.0932
vn 0.8625 -0.4992 0.0833
vn 0.7887 -0.4995 -0.3583
vn 0.8820 -0.2471 -0.4012
vn 0.9631 0.2525 0.0931
vn 0.8798 0.2465 -0.4065
vn 0.5618 0.2512 -0.7882
vn 0.0939 -0.2496 -0.9638
vn -0.1423 -0.4894 -0.8604
vn 0.6748 -0.4869 -0.5546
vn 0.5010 0.5032 -0.7041
vn 0.7857 0.5041 -0.3586
vn 0.8595 0.5043 0.0831
vn 0.8590 0.4913 -0.1438
vn 0.8156 0.4913 0.3057
vn 0.7874 0.2521 0.5625
vn 0.7889 -0.2472 0.5626
vn 0.8185 -0.4863 0.3059
vn 0.4005 0.2511 0.8812
vn 0.3569 0.5030 0.7871
vn 0.1422 0.4894 0.8604
vn 0.5532 0.4906 0.6732
vn 0.4020 -0.2483 0.8813
vn 0.3599 -0.5005 0.7873
vn 0.5562 -0.4870 0.6734
vn -0.0939 0.2496 0.9638
vn -0.3072 0.4881 0.8169
vn -0.3408 0.2408 0.9087
vn -0.0924 -0.2497 0.9639
vn -0.3394 -0.2425 0.9089
vn -0.0817 -0.5018 0.8611
vn -0.3043 -0.4895 0.8172
vn -0.0030 1.0000 -0.0002
vn -0.0029 1.0000 0.0006
vn -0.0030 1.0000 0.0005
vn -0.0030 1.0000 0.0006
vn -0.0029 1.0000 0.0005
vn 0.0924 0.2497 -0.9639
vn 0.3043 0.4896 -0.8171
vn -0.4005 -0.2510 -0.8812
vn -0.4020 0.2483 -0.8813
vn -0.1452 0.4882 -0.8606
vn -0.3600 0.5005 -0.7873
vn -0.7889 0.2472 -0.5626
vn -0.5561 0.4870 -0.6734
vn -0.7874 -0.2521 -0.5625
vn -0.5532 -0.4906 -0.6733
vn -0.3649 -0.5030 -0.7835
vn -0.8156 -0.4913 -0.3057
vn -0.8595 -0.5043 -0.0831
vn -0.9631 -0.2525 -0.0931
vn -0.9646 0.2467 -0.0932
vn -0.8185 0.4863 -0.3059
vn -0.8625 0.4991 -0.0833
vn -0.8820 0.2471 0.4012
vn -0.7887 0.4995 0.3584
vn -0.7497 0.2395 0.6169
vn -0.6748 0.4869 0.5546
vn -0.7857 -0.5041 0.3586
vn -0.8805 -0.2522 0.4013
vn -0.7482 -0.2438 0.6170
vn -0.6719 -0.4907 0.5548
vn -0.9646 0.2468 -0.0932
vn -0.8625 0.4992 -0.0833
vn -0.8185 0.4864 -0.3059
vn -0.9631 -0.2526 -0.0931
vn 0.0924 0.2498 -0.9639
vn -0.3570 -0.5029 -0.7872
vn -0.5532 -0.4906 -0.6732
vn 0.5010 0.5031 -0.7042
vn 0.7857 0.5040 -0.3586
vn 0.8805 0.2522 -0.4013
vn 0.9646 -0.2467 0.0932
vn 0.4005 0.2510 0.8812
vn 0.8185 -0.4864 0.3059
vn 0.8625 -0.4991 0.0833
vn 0.5561 -0.4871 0.6734
vn 0.3570 0.5030 0.7871
vn -0.0847 0.5017 0.8609
vn 0.3801 0.2395 -0.8934
vn 0.3425 0.4869 -0.8035
vn 0.5341 0.4995 -0.6821
vn 0.5971 0.2471 -0.7632
vn 0.3788 -0.2437 -0.8928
vn 0.5957 -0.2522 -0.7626
vn 0.8986 0.2467 -0.3628
vn 0.8973 -0.2525 -0.3622
vn 0.9595 0.2472 0.1348
vn 0.9582 -0.2521 0.1354
vn 0.7635 0.2483 0.5961
vn 0.7622 -0.2510 0.5967
vn 0.8035 0.4991 -0.3244
vn 0.8672 0.4863 -0.1066
vn 0.8646 -0.4913 -0.1055
vn 0.8007 -0.5043 -0.3232
vn 0.5314 -0.5040 -0.6809
vn 0.3398 -0.4907 -0.8024
vn -0.1358 -0.2482 0.9592
vn 0.1047 -0.4881 0.8665
vn 0.3224 -0.5017 0.8027
vn 0.3618 -0.2496 0.8982
vn 0.6801 -0.5030 0.5334
vn 0.8016 -0.4906 0.3417
vn 0.3631 0.2497 0.8976
vn -0.1344 0.2512 0.9586
vn -0.5957 0.2522 0.7626
vn -0.5971 -0.2471 0.7632
vn -0.8972 0.2526 0.3622
vn -0.8986 -0.2468 0.3627
vn -0.9582 0.2521 -0.1354
vn -0.9595 -0.2472 -0.1348
vn 0.1074 0.4895 0.8654
vn -0.1193 0.5031 0.8560
vn -0.5314 0.5040 0.6809
vn -0.8007 0.5044 0.3232
vn -0.8646 0.4914 0.1054
vn 0.8043 0.4870 0.3406
vn 0.6828 0.5005 0.5322
vn 0.5261 0.4882 0.6963
vn -0.1186 -0.2425 -0.9629
vn -0.1074 -0.4895 -0.8654
vn -0.3252 -0.5018 -0.8015
vn -0.3631 -0.2497 -0.8976
vn -0.1173 0.2408 -0.9635
vn -0.3618 0.2496 -0.8982
vn -0.1047 0.4881 -0.8665
vn -0.3224 0.5017 -0.8027
vn -0.7622 0.2510 -0.5967
vn -0.6801 0.5030 -0.5334
vn -0.8016 0.4906 -0.3417
vn -0.7635 -0.2483 -0.5961
vn -0.6828 -0.5005 -0.5322
vn -0.8042 -0.4871 -0.3405
vn -0.8672 -0.4864 0.1066
vn -0.8035 -0.4992 0.3244
vn -0.5341 -0.4995 0.6820
vn -0.3425 -0.4870 0.8035
vn -0.1777 0.2395 0.9545
vn -0.1604 0.4869 0.8586
vn -0.3739 0.4994 0.7815
vn -0.4178 0.2471 0.8743
vn -0.1766 -0.2438 0.9536
vn -0.4166 -0.2522 0.8734
vn -0.7988 0.2468 0.5486
vn -0.7976 -0.2525 0.5478
vn -0.9660 0.2472 0.0761
vn -0.9648 -0.2521 0.0752
vn -0.8745 0.2483 -0.4167
vn -0.8733 -0.2510 -0.4176
vn -0.7143 0.4992 0.4906
vn -0.8236 0.4863 0.2918
vn -0.8213 -0.4913 0.2901
vn -0.7118 -0.5043 0.4888
vn -0.3714 -0.5041 0.7797
vn -0.1581 -0.4907 0.8569
vn -0.0751 -0.2481 -0.9658
vn -0.2898 -0.4881 -0.8233
vn -0.4885 -0.5017 -0.7139
vn -0.5476 -0.2496 -0.7986
vn -0.7794 -0.5030 -0.3735
vn -0.8566 -0.4906 -0.1601
vn -0.5488 0.2498 -0.7978
vn -0.0763 0.2512 -0.9649
vn 0.4166 0.2522 -0.8734
vn 0.4178 -0.2471 -0.8743
vn 0.7976 0.2525 -0.5478
vn 0.7988 -0.2467 -0.5487
vn 0.9648 0.2521 -0.0752
vn 0.9660 -0.2472 -0.0761
vn 0.8236 -0.4863 -0.2918
vn 0.7143 -0.4991 -0.4906
vn 0.3739 -0.4995 -0.7815
vn 0.1604 -0.4869 -0.8586
vn 0.8212 0.4913 -0.2901
vn 0.7118 0.5043 -0.4888
vn 0.3714 0.5040 -0.7797
vn -0.0688 0.5031 -0.8615
vn -0.2921 0.4896 -0.8216
vn -0.8589 0.4870 -0.1584
vn -0.7818 0.5005 -0.3718
vn -0.6643 0.4882 -0.5659
vn -0.1602 0.2497 -0.9550
vn 0.0825 0.4895 -0.8681
vn 0.3017 0.5031 -0.8098
vn 0.3387 0.2512 -0.9068
vn 0.6662 0.5040 -0.5497
vn 0.7467 0.2522 -0.6155
vn 0.8517 0.5043 -0.1422
vn 0.9544 0.2525 -0.1594
vn 0.8670 0.4912 0.0842
vn 0.9062 0.2521 0.3396
vn 0.9558 -0.2468 -0.1596
vn 0.7481 -0.2471 -0.6158
vn 0.3401 -0.2481 -0.9070
vn -0.1588 -0.2496 -0.9552
vn -0.6150 -0.2510 -0.7475
vn -0.6164 0.2482 -0.7473
vn -0.9062 -0.2521 -0.3396
vn -0.9076 0.2471 -0.3393
vn -0.7115 0.4870 -0.5066
vn -0.5515 0.5005 -0.6674
vn -0.3629 0.4882 -0.7937
vn 0.0853 -0.4881 -0.8686
vn -0.1410 -0.5017 -0.8535
vn -0.5486 -0.5029 -0.6679
vn -0.7086 -0.4906 -0.5071
vn -0.8669 -0.4913 -0.0842
vn -0.8517 -0.5043 0.1422
vn -0.9544 -0.2525 0.1594
vn -0.6661 -0.5041 0.5497
vn -0.7467 -0.2522 0.6155
vn -0.5054 -0.4907 0.7098
vn -0.5630 -0.2438 0.7897
vn -0.9558 0.2468 0.1596
vn -0.7481 0.2471 0.6158
vn -0.5645 0.2395 0.7899
vn -0.6691 0.4995 0.5503
vn -0.5083 0.4869 0.7103
vn -0.8546 0.4992 0.1428
vn -0.8698 0.4862 -0.0836
vn -0.0926 -0.2425 0.9657
vn -0.0825 -0.4896 0.8681
vn 0.1440 -0.5018 0.8529
vn 0.1602 -0.2497 0.9550
vn -0.0940 0.2408 0.9660
vn 0.1588 0.2496 0.9552
vn 0.6164 -0.2483 0.7472
vn 0.6150 0.2511 0.7475
vn 0.9076 -0.2472 0.3393
vn 0.5514 -0.5006 0.6673
vn 0.7115 -0.4870 0.5066
vn 0.7087 0.4905 0.5071
vn 0.5485 0.5031 0.6679
vn 0.1410 0.5018 0.8534
vn -0.0853 0.4881 0.8686
vn 0.8698 -0.4862 0.0836
vn 0.8546 -0.4992 -0.1428
vn 0.6691 -0.4995 -0.5503
vn 0.5083 -0.4869 -0.7103
vn 0.1943 0.9808 0.0188
vn 0.1584 0.9807 0.1149
vn 0.0792 0.9805 0.1801
vn -0.0220 0.9802 0.1970
vn -0.1181 0.9799 0.1611
vn -0.1832 0.9797 0.0819
vn -0.2001 0.9796 -0.0193
vn -0.1642 0.9797 -0.1153
vn -0.0850 0.9799 -0.1805
vn 0.0161 0.9802 -0.1974
vn 0.1122 0.9805 -0.1615
vn 0.1774 0.9807 -0.0823
vn 0.9216 0.2472 0.2994
vn 0.7329 0.4869 0.4751
vn 0.5800 0.5006 0.6427
vn 0.6484 0.2483 0.7196
vn 0.3972 0.4882 0.7771
vn 0.2018 0.2497 0.9471
vn -0.7191 0.2522 0.6475
vn -0.7434 0.0026 0.6689
vn -0.3093 0.0016 0.9510
vn -0.2988 0.2511 0.9207
vn 0.2076 0.0001 0.9782
vn 0.6689 -0.0014 0.7434
vn 0.9510 -0.0025 0.3093
vn 0.9782 -0.0030 -0.2076
vn 0.9480 0.2468 -0.2012
vn 0.7205 0.2471 -0.6479
vn 0.6445 0.4995 -0.5789
vn 0.8476 0.4992 -0.1799
vn 0.8726 0.4863 0.0456
vn 0.7434 -0.0026 -0.6689
vn 0.5449 -0.0022 -0.8385
vn 0.5295 0.2396 -0.8138
vn 0.4768 0.4869 -0.7318
vn 0.1594 0.2395 0.9577
vn 0.1429 0.4869 0.8617
vn -0.0840 0.4994 0.8623
vn -0.0935 0.2471 0.9645
vn 0.1647 -0.0022 0.9863
vn -0.0962 -0.0026 0.9954
vn -0.5630 0.2468 0.7888
vn -0.5810 -0.0030 0.8139
vn -0.8817 0.2472 0.4019
vn -0.9101 -0.0026 0.4144
vn -0.9643 0.2483 -0.0925
vn -0.9954 -0.0014 -0.0962
vn -0.5034 0.4992 0.7053
vn -0.6742 0.4863 0.5559
vn -0.8613 0.4870 0.1449
vn -0.8618 0.5005 -0.0819
vn -0.8179 0.4882 -0.3046
vn -0.7886 0.2497 -0.5619
vn -0.8139 0.0001 -0.5810
vn -0.4017 0.2511 -0.8807
vn -0.4144 0.0016 -0.9101
vn 0.0927 0.2522 -0.9632
vn 0.0962 0.0026 -0.9954
vn 0.5621 0.2526 -0.7875
vn 0.5810 0.0030 -0.8139
vn 0.8808 0.2522 -0.4006
vn 0.9101 0.0025 -0.4144
vn -0.5555 0.4896 -0.6721
vn -0.3593 0.5031 -0.7860
vn 0.0823 0.5041 -0.8597
vn 0.5017 0.5044 -0.7028
vn 0.6725 0.4914 -0.5535
vn 0.8596 0.4907 -0.1425
vn 0.8602 0.5030 0.0844
vn 0.9634 0.2510 0.0937
vn 0.7032 0.5017 0.5038
vn 0.7877 0.2496 0.5632
vn 0.5539 0.4880 0.6746
vn 0.6166 0.2408 0.7496
vn 0.9954 0.0014 0.0962
vn 0.8139 -0.0001 0.5810
vn 0.6358 -0.0008 0.7718
vn -0.5560 0.8294 -0.0537
vn -0.4551 0.8297 -0.3233
vn -0.4551 0.8297 -0.3232
vn -0.2329 0.8303 -0.5063
vn 0.0510 0.8312 -0.5537
vn 0.3206 0.8320 -0.4528
vn 0.5036 0.8326 -0.2306
vn 0.5511 0.8328 0.0533
vn 0.4501 0.8325 0.3229
vn 0.2280 0.8319 0.5059
vn -0.0560 0.8311 0.5533
vn -0.3255 0.8303 0.4524
vn -0.5086 0.8297 0.2303
vn -0.5086 0.8296 0.2303
vn -0.1180 0.9799 0.1611
vn -0.1833 0.9796 0.0819
vn -0.2002 0.9796 -0.0193
vn 0.0161 0.9802 -0.1975
vn -0.7482 -0.2437 0.6170
vn -0.8595 -0.5044 -0.0831
vn 0.0518 0.2409 -0.9692
vn 0.0527 -0.0008 -0.9986
vn -0.2076 -0.0001 -0.9782
vn -0.2003 0.2496 -0.9474
vn -0.6689 0.0014 -0.7434
vn -0.6470 0.2510 -0.7200
vn -0.9510 0.0026 -0.3093
vn -0.9201 0.2521 -0.2997
vn -0.9782 0.0030 0.2076
vn -0.9465 0.2526 0.2009
vn -0.7301 0.4906 -0.4757
vn -0.5771 0.5030 -0.6434
vn -0.1781 0.5017 -0.8465
vn 0.0474 0.4881 -0.8715
vn -0.8698 0.4913 -0.0463
vn -0.8447 0.5044 0.1792
vn -0.6415 0.5041 0.5782
vn -0.2661 0.5031 0.8223
vn -0.0445 0.4895 0.8708
vn 0.1231 0.9804 0.1535
vn 0.1231 0.9805 0.1535
vn 0.1827 0.9807 0.0700
vn 0.1926 0.9808 -0.0321
vn 0.1501 0.9807 -0.1254
vn 0.0666 0.9805 -0.1850
vn -0.0355 0.9802 -0.1949
vn -0.1289 0.9799 -0.1524
vn -0.1885 0.9797 -0.0689
vn -0.1983 0.9796 0.0332
vn -0.1558 0.9796 0.1265
vn -0.0723 0.9799 0.1861
vn 0.0298 0.9802 0.1960
vn -0.3560 0.8303 -0.4287
vn -0.0940 0.8312 -0.5480
vn 0.1925 0.8320 -0.5203
vn 0.4268 0.8326 -0.3531
vn 0.5461 0.8328 -0.0911
vn 0.5184 0.8325 0.1954
vn 0.3511 0.8319 0.4297
vn 0.0892 0.8311 0.5490
vn -0.1973 0.8303 0.5213
vn -0.4316 0.8297 0.3540
vn -0.4317 0.8297 0.3540
vn -0.5510 0.8294 0.0921
vn -0.5233 0.8297 -0.1944
vn -0.5232 0.8297 -0.1944
vn -0.1820 0.9797 0.0845
vn -0.1168 0.9796 0.1637
vn -0.0207 0.9796 0.1997
vn 0.0805 0.9799 0.1828
vn 0.1596 0.9802 0.1175
vn 0.1956 0.9805 0.0215
vn 0.1787 0.9807 -0.0797
vn 0.1135 0.9808 -0.1589
vn 0.0174 0.9807 -0.1948
vn -0.0837 0.9805 -0.1779
vn -0.1629 0.9802 -0.1127
vn -0.1989 0.9799 -0.0166
vn 0.8733 0.2510 0.4176
vn 0.8745 -0.2483 0.4167
vn 0.5476 0.2496 0.7986
vn 0.5488 -0.2498 0.7978
vn 0.3230 0.2408 0.9152
vn 0.3242 -0.2425 0.9144
vn 0.4909 -0.5019 0.7121
vn 0.2921 -0.4895 0.8216
vn 0.7818 -0.5005 0.3718
vn 0.8589 -0.4870 0.1584
vn 0.8565 0.4906 0.1601
vn 0.7794 0.5030 0.3735
vn 0.4885 0.5017 0.7139
vn 0.2898 0.4881 0.8233
vn -0.1811 0.9808 0.0730
vn -0.1935 0.9807 -0.0288
vn -0.1534 0.9804 -0.1232
vn -0.0715 0.9802 -0.1849
vn 0.0303 0.9799 -0.1974
vn 0.1247 0.9796 -0.1573
vn 0.1864 0.9796 -0.0753
vn 0.1989 0.9797 0.0265
vn 0.1588 0.9799 0.1209
vn 0.0769 0.9802 0.1826
vn -0.0250 0.9805 0.1951
vn -0.1194 0.9807 0.1549
vn 0.1610 0.9808 -0.1105
vn 0.1952 0.9807 -0.0138
vn 0.1764 0.9805 0.0871
vn 0.1098 0.9802 0.1651
vn 0.0131 0.9799 0.1993
vn -0.0877 0.9796 0.1805
vn -0.1657 0.9796 0.1139
vn -0.1999 0.9797 0.0172
vn -0.1812 0.9799 -0.0836
vn -0.1146 0.9802 -0.1616
vn -0.0179 0.9805 -0.1958
vn 0.0830 0.9807 -0.1771
vn -0.1910 0.9808 0.0405
vn -0.1856 0.9807 -0.0620
vn -0.1297 0.9805 -0.1480
vn -0.0383 0.9802 -0.1945
vn 0.0641 0.9799 -0.1891
vn 0.1502 0.9796 -0.1332
vn 0.1501 0.9796 -0.1332
vn 0.1967 0.9796 -0.0418
vn 0.1913 0.9797 0.0606
vn 0.1354 0.9799 0.1466
vn 0.0440 0.9802 0.1931
vn -0.0584 0.9805 0.1877
vn -0.1444 0.9807 0.1319
vn -0.5561 0.4871 -0.6734
vn -0.3599 0.5006 -0.7873
vn -0.1452 0.4883 -0.8605
# 451 vertex normals

vt 0.7148 0.1904 0.0000
vt 0.7120 0.1847 0.0000
vt 0.6752 0.1847 0.0000
vt 0.8184 0.1904 0.0000
vt 0.8167 0.1847 0.0000
vt 0.7666 0.1847 0.0000
vt 0.7666 0.1904 0.0000
vt 0.8184 0.2392 0.0000
vt 0.7666 0.2392 0.0000
vt 0.7148 0.2392 0.0000
vt 0.6769 0.1904 0.0000
vt 0.6251 0.1847 0.0000
vt 0.7164 0.1847 0.0000
vt 0.7164 0.2449 0.0000
vt 0.7666 0.2449 0.0000
vt 0.8167 0.2449 0.0000
vt 0.8535 0.2449 0.0000
vt 0.8564 0.2392 0.0000
vt 0.8564 0.1904 0.0000
vt 0.8535 0.1847 0.0000
vt 0.9083 0.2392 0.0000
vt 0.9083 0.2449 0.0000
vt 0.9585 0.2449 0.0000
vt 0.8582 0.2449 0.0000
vt 0.9083 0.1904 0.0000
vt 0.9083 0.1847 0.0000
vt 0.8582 0.1847 0.0000
vt 0.9601 0.2392 0.0000
vt 0.9952 0.2449 0.0000
vt 0.9981 0.2392 0.0000
vt 0.9601 0.1904 0.0000
vt 0.9981 0.1904 0.0000
vt 0.9585 0.1847 0.0000
vt 0.9952 0.1847 0.0000
vt 0.3438 0.7301 0.0000
vt 0.3192 0.7367 0.0000
vt 0.2945 0.7301 0.0000
vt 0.3438 0.6447 0.0000
vt 0.3618 0.6628 0.0000
vt 0.3684 0.6874 0.0000
vt 0.2699 0.6874 0.0000
vt 0.2765 0.7121 0.0000
vt 0.3618 0.7121 0.0000
vt 0.2765 0.6628 0.0000
vt 0.2945 0.6447 0.0000
vt 0.3192 0.6381 0.0000
vt 0.3459 0.9355 0.0000
vt 0.3212 0.9421 0.0000
vt 0.2966 0.9355 0.0000
vt 0.3459 0.8501 0.0000
vt 0.3639 0.8682 0.0000
vt 0.3705 0.8928 0.0000
vt 0.2720 0.8928 0.0000
vt 0.2786 0.9175 0.0000
vt 0.3639 0.9175 0.0000
vt 0.2786 0.8682 0.0000
vt 0.2966 0.8501 0.0000
vt 0.3212 0.8435 0.0000
vt 0.6769 0.2392 0.0000
vt 0.6797 0.2449 0.0000
vt 0.6251 0.1904 0.0000
vt 0.6251 0.2392 0.0000
vt 0.6752 0.2449 0.0000
vt 0.6251 0.2449 0.0000
vt 0.5733 0.2392 0.0000
vt 0.5749 0.2449 0.0000
vt 0.5733 0.1904 0.0000
vt 0.5749 0.1847 0.0000
vt 0.5704 0.1847 0.0000
vt 0.5337 0.1847 0.0000
vt 0.5354 0.1904 0.0000
vt 0.5354 0.2392 0.0000
vt 0.5704 0.2449 0.0000
vt 0.5337 0.2449 0.0000
vt 0.4836 0.2392 0.0000
vt 0.4836 0.2449 0.0000
vt 0.4318 0.2392 0.0000
vt 0.4334 0.2449 0.0000
vt 0.4836 0.1847 0.0000
vt 0.4836 0.1904 0.0000
vt 0.4318 0.1904 0.0000
vt 0.4334 0.1847 0.0000
vt 0.5331 0.6082 0.0000
vt 0.5314 0.6139 0.0000
vt 0.5681 0.6139 0.0000
vt 0.5710 0.6082 0.0000
vt 0.5331 0.5595 0.0000
vt 0.5710 0.5595 0.0000
vt 0.6228 0.6082 0.0000
vt 0.6228 0.5595 0.0000
vt 0.6746 0.6082 0.0000
vt 0.6746 0.5595 0.0000
vt 0.7125 0.6082 0.0000
vt 0.7125 0.5595 0.0000
vt 0.7097 0.5538 0.0000
vt 0.6729 0.5538 0.0000
vt 0.6228 0.5538 0.0000
vt 0.5726 0.5538 0.0000
vt 0.6774 0.6139 0.0000
vt 0.7141 0.6139 0.0000
vt 0.7643 0.6139 0.0000
vt 0.7643 0.6082 0.0000
vt 0.8144 0.6139 0.0000
vt 0.8161 0.6082 0.0000
vt 0.8511 0.6139 0.0000
vt 0.8541 0.6082 0.0000
vt 0.7643 0.5595 0.0000
vt 0.8161 0.5595 0.0000
vt 0.8541 0.5595 0.0000
vt 0.9060 0.6082 0.0000
vt 0.9060 0.5595 0.0000
vt 0.9578 0.6082 0.0000
vt 0.9578 0.5595 0.0000
vt 0.8511 0.5538 0.0000
vt 0.8144 0.5538 0.0000
vt 0.7643 0.5538 0.0000
vt 0.7141 0.5538 0.0000
vt 0.9562 0.5538 0.0000
vt 0.9060 0.5538 0.0000
vt 0.8559 0.5538 0.0000
vt 0.9958 0.6082 0.0000
vt 0.9958 0.5595 0.0000
vt 0.9929 0.5538 0.0000
vt 0.8559 0.6139 0.0000
vt 0.9060 0.6139 0.0000
vt 0.9562 0.6139 0.0000
vt 0.9929 0.6139 0.0000
vt 0.4315 0.3009 0.0000
vt 0.4332 0.3066 0.0000
vt 0.4833 0.3066 0.0000
vt 0.4833 0.3009 0.0000
vt 0.4315 0.2521 0.0000
vt 0.4833 0.2521 0.0000
vt 0.5351 0.3009 0.0000
vt 0.5351 0.2521 0.0000
vt 0.5730 0.3009 0.0000
vt 0.5730 0.2521 0.0000
vt 0.6248 0.3009 0.0000
vt 0.6248 0.2521 0.0000
vt 0.5335 0.3066 0.0000
vt 0.5702 0.3066 0.0000
vt 0.5702 0.2464 0.0000
vt 0.5335 0.2464 0.0000
vt 0.4833 0.2464 0.0000
vt 0.4332 0.2464 0.0000
vt 0.7146 0.2521 0.0000
vt 0.7117 0.2464 0.0000
vt 0.6750 0.2464 0.0000
vt 0.6766 0.2521 0.0000
vt 0.6248 0.2464 0.0000
vt 0.5747 0.2464 0.0000
vt 0.6766 0.3009 0.0000
vt 0.7146 0.3009 0.0000
vt 0.7663 0.3009 0.0000
vt 0.7663 0.2521 0.0000
vt 0.8181 0.3009 0.0000
vt 0.8181 0.2521 0.0000
vt 0.8562 0.3009 0.0000
vt 0.8562 0.2521 0.0000
vt 0.6795 0.3066 0.0000
vt 0.7162 0.3066 0.0000
vt 0.7663 0.3066 0.0000
vt 0.8165 0.3066 0.0000
vt 0.8532 0.3066 0.0000
vt 0.5747 0.3066 0.0000
vt 0.6248 0.3066 0.0000
vt 0.6750 0.3066 0.0000
vt 0.9978 0.2521 0.0000
vt 0.9950 0.2464 0.0000
vt 0.9582 0.2464 0.0000
vt 0.9599 0.2521 0.0000
vt 0.9978 0.3009 0.0000
vt 0.9599 0.3009 0.0000
vt 0.9950 0.3066 0.0000
vt 0.9582 0.3066 0.0000
vt 0.9081 0.3009 0.0000
vt 0.9081 0.3066 0.0000
vt 0.8579 0.3066 0.0000
vt 0.9081 0.2521 0.0000
vt 0.9081 0.2464 0.0000
vt 0.8579 0.2464 0.0000
vt 0.8532 0.2464 0.0000
vt 0.8165 0.2464 0.0000
vt 0.7663 0.2464 0.0000
vt 0.7162 0.2464 0.0000
vt 0.4297 0.5469 0.0000
vt 0.4314 0.5526 0.0000
vt 0.4815 0.5526 0.0000
vt 0.4815 0.5469 0.0000
vt 0.4297 0.4982 0.0000
vt 0.4815 0.4982 0.0000
vt 0.5333 0.5469 0.0000
vt 0.5333 0.4982 0.0000
vt 0.5713 0.5469 0.0000
vt 0.5713 0.4982 0.0000
vt 0.6231 0.5469 0.0000
vt 0.6231 0.4982 0.0000
vt 0.5317 0.5526 0.0000
vt 0.5684 0.5526 0.0000
vt 0.5684 0.4925 0.0000
vt 0.5317 0.4925 0.0000
vt 0.4815 0.4925 0.0000
vt 0.4314 0.4925 0.0000
vt 0.7128 0.4982 0.0000
vt 0.7099 0.4925 0.0000
vt 0.6732 0.4925 0.0000
vt 0.6749 0.4982 0.0000
vt 0.6231 0.4925 0.0000
vt 0.5729 0.4925 0.0000
vt 0.6749 0.5470 0.0000
vt 0.7128 0.5470 0.0000
vt 0.7646 0.5470 0.0000
vt 0.7646 0.4982 0.0000
vt 0.8164 0.5470 0.0000
vt 0.8164 0.4982 0.0000
vt 0.8544 0.5470 0.0000
vt 0.8544 0.4982 0.0000
vt 0.8514 0.4925 0.0000
vt 0.8147 0.4925 0.0000
vt 0.7646 0.4925 0.0000
vt 0.7144 0.4925 0.0000
vt 0.8514 0.5527 0.0000
vt 0.8147 0.5527 0.0000
vt 0.7646 0.5527 0.0000
vt 0.7144 0.5527 0.0000
vt 0.6777 0.5527 0.0000
vt 0.5729 0.5526 0.0000
vt 0.6231 0.5526 0.0000
vt 0.6732 0.5526 0.0000
vt 0.6770 0.1781 0.0000
vt 0.6798 0.1838 0.0000
vt 0.7165 0.1838 0.0000
vt 0.7149 0.1781 0.0000
vt 0.7667 0.1838 0.0000
vt 0.7667 0.1781 0.0000
vt 0.8168 0.1838 0.0000
vt 0.8185 0.1781 0.0000
vt 0.8535 0.1838 0.0000
vt 0.8565 0.1781 0.0000
vt 0.8185 0.1294 0.0000
vt 0.7667 0.1294 0.0000
vt 0.7149 0.1294 0.0000
vt 0.6770 0.1293 0.0000
vt 0.6252 0.1293 0.0000
vt 0.6252 0.1781 0.0000
vt 0.5734 0.1293 0.0000
vt 0.5734 0.1781 0.0000
vt 0.5750 0.1838 0.0000
vt 0.6252 0.1838 0.0000
vt 0.6753 0.1838 0.0000
vt 0.7120 0.1236 0.0000
vt 0.6753 0.1236 0.0000
vt 0.6252 0.1236 0.0000
vt 0.5750 0.1236 0.0000
vt 0.5705 0.1236 0.0000
vt 0.5338 0.1236 0.0000
vt 0.5354 0.1293 0.0000
vt 0.4836 0.1236 0.0000
vt 0.4836 0.1293 0.0000
vt 0.4335 0.1236 0.0000
vt 0.4318 0.1293 0.0000
vt 0.5354 0.1781 0.0000
vt 0.4836 0.1781 0.0000
vt 0.4318 0.1781 0.0000
vt 0.4836 0.1838 0.0000
vt 0.4335 0.1838 0.0000
vt 0.5338 0.1838 0.0000
vt 0.5705 0.1838 0.0000
vt 0.9982 0.1294 0.0000
vt 0.9953 0.1237 0.0000
vt 0.9586 0.1237 0.0000
vt 0.9602 0.1294 0.0000
vt 0.9982 0.1781 0.0000
vt 0.9602 0.1781 0.0000
vt 0.9084 0.1294 0.0000
vt 0.9084 0.1781 0.0000
vt 0.8565 0.1294 0.0000
vt 0.9084 0.1237 0.0000
vt 0.8583 0.1237 0.0000
vt 0.8583 0.1838 0.0000
vt 0.9084 0.1838 0.0000
vt 0.9586 0.1838 0.0000
vt 0.9953 0.1838 0.0000
vt 0.8535 0.1237 0.0000
vt 0.8168 0.1237 0.0000
vt 0.7667 0.1237 0.0000
vt 0.7165 0.1237 0.0000
vt 0.6092 0.9407 0.0000
vt 0.6001 0.9459 0.0000
vt 0.5902 0.9361 0.0000
vt 0.5955 0.9270 0.0000
vt 0.5768 0.9325 0.0000
vt 0.5768 0.9219 0.0000
vt 0.5633 0.9361 0.0000
vt 0.5580 0.9270 0.0000
vt 0.5534 0.9459 0.0000
vt 0.5443 0.9407 0.0000
vt 0.5498 0.9594 0.0000
vt 0.5393 0.9594 0.0000
vt 0.5534 0.9729 0.0000
vt 0.5443 0.9782 0.0000
vt 0.5633 0.9827 0.0000
vt 0.5580 0.9919 0.0000
vt 0.5768 0.9863 0.0000
vt 0.5768 0.9969 0.0000
vt 0.5902 0.9827 0.0000
vt 0.5955 0.9919 0.0000
vt 0.6001 0.9729 0.0000
vt 0.6092 0.9782 0.0000
vt 0.6037 0.9594 0.0000
vt 0.6142 0.9594 0.0000
vt 0.5746 0.0549 0.0000
vt 0.5763 0.0606 0.0000
vt 0.6264 0.0606 0.0000
vt 0.6264 0.0549 0.0000
vt 0.6766 0.0606 0.0000
vt 0.6782 0.0549 0.0000
vt 0.7679 0.0549 0.0000
vt 0.7679 0.0062 0.0000
vt 0.7161 0.0062 0.0000
vt 0.7161 0.0549 0.0000
vt 0.6782 0.0062 0.0000
vt 0.6264 0.0062 0.0000
vt 0.5746 0.0062 0.0000
vt 0.5367 0.0062 0.0000
vt 0.5367 0.0549 0.0000
vt 0.4849 0.0549 0.0000
vt 0.4849 0.0606 0.0000
vt 0.5351 0.0606 0.0000
vt 0.5718 0.0606 0.0000
vt 0.4849 0.0062 0.0000
vt 0.4331 0.0062 0.0000
vt 0.4331 0.0549 0.0000
vt 0.4348 0.0606 0.0000
vt 0.4310 0.4237 0.0000
vt 0.4326 0.4294 0.0000
vt 0.4828 0.4294 0.0000
vt 0.4828 0.4237 0.0000
vt 0.4310 0.3750 0.0000
vt 0.4828 0.3750 0.0000
vt 0.5346 0.4237 0.0000
vt 0.5346 0.3750 0.0000
vt 0.5725 0.4237 0.0000
vt 0.5725 0.3750 0.0000
vt 0.6243 0.4237 0.0000
vt 0.6243 0.3750 0.0000
vt 0.5329 0.4294 0.0000
vt 0.5697 0.4294 0.0000
vt 0.5742 0.4294 0.0000
vt 0.6243 0.4294 0.0000
vt 0.6745 0.4294 0.0000
vt 0.6761 0.4237 0.0000
vt 0.6761 0.3750 0.0000
vt 0.7140 0.4237 0.0000
vt 0.7140 0.3750 0.0000
vt 0.7658 0.4237 0.0000
vt 0.7658 0.3750 0.0000
vt 0.8176 0.4237 0.0000
vt 0.8176 0.3750 0.0000
vt 0.8557 0.4237 0.0000
vt 0.8557 0.3750 0.0000
vt 0.6790 0.4294 0.0000
vt 0.7157 0.4294 0.0000
vt 0.7658 0.4294 0.0000
vt 0.8160 0.4294 0.0000
vt 0.8527 0.4294 0.0000
vt 0.8574 0.4294 0.0000
vt 0.9076 0.4294 0.0000
vt 0.9076 0.4237 0.0000
vt 0.9577 0.4294 0.0000
vt 0.9594 0.4237 0.0000
vt 0.9944 0.4294 0.0000
vt 0.9973 0.4237 0.0000
vt 0.9076 0.3750 0.0000
vt 0.9594 0.3750 0.0000
vt 0.9973 0.3750 0.0000
vt 0.3816 0.6514 0.0000
vt 0.3552 0.6250 0.0000
vt 0.3192 0.6153 0.0000
vt 0.2831 0.6250 0.0000
vt 0.2567 0.6514 0.0000
vt 0.2471 0.6874 0.0000
vt 0.2567 0.7235 0.0000
vt 0.2831 0.7498 0.0000
vt 0.3192 0.7595 0.0000
vt 0.3552 0.7498 0.0000
vt 0.3816 0.7235 0.0000
vt 0.3912 0.6874 0.0000
vt 0.4060 0.6373 0.0000
vt 0.3693 0.6006 0.0000
vt 0.3192 0.5871 0.0000
vt 0.2690 0.6006 0.0000
vt 0.2323 0.6373 0.0000
vt 0.2189 0.6874 0.0000
vt 0.2323 0.7376 0.0000
vt 0.2690 0.7743 0.0000
vt 0.3192 0.7877 0.0000
vt 0.3693 0.7743 0.0000
vt 0.4060 0.7376 0.0000
vt 0.4195 0.6874 0.0000
vt 0.4294 0.5595 0.0000
vt 0.4294 0.6082 0.0000
vt 0.4813 0.6082 0.0000
vt 0.4813 0.5595 0.0000
vt 0.4311 0.5538 0.0000
vt 0.4813 0.5538 0.0000
vt 0.4311 0.6139 0.0000
vt 0.4813 0.6139 0.0000
vt 0.5314 0.5538 0.0000
vt 0.5681 0.5538 0.0000
vt 0.9994 0.0549 0.0000
vt 0.9994 0.0062 0.0000
vt 0.9615 0.0062 0.0000
vt 0.9615 0.0549 0.0000
vt 0.9097 0.0062 0.0000
vt 0.9097 0.0549 0.0000
vt 0.8578 0.0062 0.0000
vt 0.8578 0.0549 0.0000
vt 0.8197 0.0062 0.0000
vt 0.8197 0.0549 0.0000
vt 0.8595 0.0606 0.0000
vt 0.9097 0.0606 0.0000
vt 0.9598 0.0606 0.0000
vt 0.9965 0.0606 0.0000
vt 0.8548 0.0606 0.0000
vt 0.8181 0.0606 0.0000
vt 0.7679 0.0606 0.0000
vt 0.7178 0.0606 0.0000
vt 0.6811 0.0606 0.0000
vt 0.3212 0.8207 0.0000
vt 0.3212 0.7925 0.0000
vt 0.3714 0.8060 0.0000
vt 0.3573 0.8304 0.0000
vt 0.4081 0.8427 0.0000
vt 0.3837 0.8568 0.0000
vt 0.4215 0.8928 0.0000
vt 0.3933 0.8928 0.0000
vt 0.4081 0.9430 0.0000
vt 0.3837 0.9289 0.0000
vt 0.3714 0.9797 0.0000
vt 0.3573 0.9552 0.0000
vt 0.3212 0.9931 0.0000
vt 0.3212 0.9649 0.0000
vt 0.2711 0.9797 0.0000
vt 0.2852 0.9552 0.0000
vt 0.2344 0.9430 0.0000
vt 0.2588 0.9289 0.0000
vt 0.2209 0.8928 0.0000
vt 0.2492 0.8928 0.0000
vt 0.2344 0.8427 0.0000
vt 0.2588 0.8568 0.0000
vt 0.2711 0.8060 0.0000
vt 0.2852 0.8304 0.0000
vt 0.9500 0.9762 0.0000
vt 0.9463 0.9825 0.0000
vt 0.9369 0.9730 0.0000
vt 0.9432 0.9694 0.0000
vt 0.9334 0.9601 0.0000
vt 0.9407 0.9601 0.0000
vt 0.9369 0.9472 0.0000
vt 0.9432 0.9508 0.0000
vt 0.9463 0.9378 0.0000
vt 0.9500 0.9441 0.0000
vt 0.9592 0.9343 0.0000
vt 0.9592 0.9416 0.0000
vt 0.9721 0.9378 0.0000
vt 0.9685 0.9441 0.0000
vt 0.9816 0.9472 0.0000
vt 0.9753 0.9508 0.0000
vt 0.9850 0.9601 0.0000
vt 0.9778 0.9601 0.0000
vt 0.9816 0.9730 0.0000
vt 0.9753 0.9694 0.0000
vt 0.9721 0.9825 0.0000
vt 0.9685 0.9762 0.0000
vt 0.9592 0.9859 0.0000
vt 0.9592 0.9787 0.0000
vt 0.9063 0.5470 0.0000
vt 0.9063 0.4982 0.0000
vt 0.9581 0.5470 0.0000
vt 0.9581 0.4982 0.0000
vt 0.9960 0.5470 0.0000
vt 0.9960 0.4982 0.0000
vt 0.9565 0.4925 0.0000
vt 0.9932 0.4925 0.0000
vt 0.9063 0.4925 0.0000
vt 0.8562 0.4925 0.0000
vt 0.8562 0.5527 0.0000
vt 0.9063 0.5527 0.0000
vt 0.9565 0.5527 0.0000
vt 0.9932 0.5527 0.0000
vt 0.7611 0.9410 0.0000
vt 0.7519 0.9463 0.0000
vt 0.7421 0.9364 0.0000
vt 0.7474 0.9273 0.0000
vt 0.7286 0.9328 0.0000
vt 0.7286 0.9223 0.0000
vt 0.7152 0.9364 0.0000
vt 0.7099 0.9273 0.0000
vt 0.7053 0.9463 0.0000
vt 0.6962 0.9410 0.0000
vt 0.7017 0.9597 0.0000
vt 0.6911 0.9597 0.0000
vt 0.7053 0.9732 0.0000
vt 0.6962 0.9785 0.0000
vt 0.7152 0.9831 0.0000
vt 0.7099 0.9922 0.0000
vt 0.7286 0.9867 0.0000
vt 0.7286 0.9972 0.0000
vt 0.7421 0.9831 0.0000
vt 0.7474 0.9922 0.0000
vt 0.7519 0.9732 0.0000
vt 0.7611 0.9785 0.0000
vt 0.7556 0.9597 0.0000
vt 0.7661 0.9597 0.0000
vt 0.9913 0.9418 0.0000
vt 0.9824 0.9470 0.0000
vt 0.9727 0.9373 0.0000
vt 0.9779 0.9283 0.0000
vt 0.9595 0.9337 0.0000
vt 0.9595 0.9234 0.0000
vt 0.9462 0.9373 0.0000
vt 0.9411 0.9283 0.0000
vt 0.9366 0.9470 0.0000
vt 0.9276 0.9418 0.0000
vt 0.9330 0.9602 0.0000
vt 0.9227 0.9602 0.0000
vt 0.9366 0.9734 0.0000
vt 0.9276 0.9786 0.0000
vt 0.9462 0.9831 0.0000
vt 0.9411 0.9920 0.0000
vt 0.9595 0.9866 0.0000
vt 0.9595 0.9970 0.0000
vt 0.9727 0.9831 0.0000
vt 0.9779 0.9920 0.0000
vt 0.9824 0.9734 0.0000
vt 0.9913 0.9786 0.0000
vt 0.9859 0.9602 0.0000
vt 0.9962 0.9602 0.0000
vt 0.6851 0.9406 0.0000
vt 0.6760 0.9459 0.0000
vt 0.6662 0.9361 0.0000
vt 0.6714 0.9269 0.0000
vt 0.6527 0.9324 0.0000
vt 0.6527 0.9219 0.0000
vt 0.6392 0.9361 0.0000
vt 0.6340 0.9269 0.0000
vt 0.6294 0.9459 0.0000
vt 0.6202 0.9406 0.0000
vt 0.6258 0.9594 0.0000
vt 0.6152 0.9594 0.0000
vt 0.6294 0.9728 0.0000
vt 0.6202 0.9781 0.0000
vt 0.6392 0.9827 0.0000
vt 0.6340 0.9918 0.0000
vt 0.6527 0.9863 0.0000
vt 0.6527 0.9969 0.0000
vt 0.6662 0.9827 0.0000
vt 0.6714 0.9918 0.0000
vt 0.6760 0.9728 0.0000
vt 0.6851 0.9781 0.0000
vt 0.6796 0.9594 0.0000
vt 0.6902 0.9594 0.0000
vt 0.5726 0.6139 0.0000
vt 0.6228 0.6139 0.0000
vt 0.6729 0.6139 0.0000
# 566 texture coords

g Mesh_808
usemtl Tex_0077_0_dds
s 1
f 1/1/1 2/2/2 3/3/3 
s 2
f 4/4/4 5/5/5 6/6/6 
s 3
f 6/6/6 7/7/7 4/4/4 
s 4
f 8/8/8 4/4/4 7/7/7 
s 5
f 7/7/7 9/9/9 8/8/8 
s 6
f 9/9/9 7/7/7 1/1/1 
s 7
f 1/1/1 10/10/10 9/9/9 
s 8
f 10/10/10 1/1/1 11/11/11 
s 9
f 3/3/3 11/11/11 1/1/1 
s 10
f 11/11/11 3/3/3 12/12/12 
s 11
f 7/7/7 6/6/6 2/13/13 
s 12
f 2/13/13 1/1/1 7/7/7 
s 13
f 10/10/10 13/14/14 14/15/15 
s 14
f 14/15/15 9/9/9 10/10/10 
s 15
f 9/9/9 14/15/15 15/16/16 
s 16
f 15/16/16 8/8/8 9/9/17 
s 17
f 8/8/8 15/16/16 16/17/18 
s 18
f 16/17/18 17/18/19 8/8/8 
s 19
f 4/4/4 8/8/8 17/18/19 
s 20
f 17/18/19 18/19/20 4/4/4 
s 21
f 5/5/5 4/4/4 18/19/20 
s 22
f 18/19/20 19/20/21 5/5/5 
s 23
f 20/21/22 21/22/23 22/23/24 
s 24
f 21/22/23 20/21/22 17/18/19 
s 25
f 18/19/20 17/18/19 20/21/22 
s 26
f 17/18/19 16/24/25 21/22/23 
s 27
f 23/25/26 24/26/27 19/27/28 
s 28
f 19/27/28 18/19/20 23/25/26 
s 29
f 20/21/22 23/25/26 18/19/20 
s 30
f 23/25/26 20/21/22 25/28/29 
s 31
f 22/23/24 25/28/29 20/21/22 
s 32
f 25/28/29 22/23/30 26/29/30 
s 33
f 26/29/30 27/30/31 25/28/29 
s 34
f 28/31/32 25/28/29 27/30/31 
s 35
f 27/30/31 29/32/33 28/31/32 
s 36
f 30/33/34 28/31/32 29/32/33 
s 37
f 29/32/33 31/34/35 30/33/34 
s 38
f 25/28/29 28/31/32 23/25/26 
s 39
f 24/26/27 23/25/26 28/31/32 
s 40
f 28/31/32 30/33/34 24/26/27 
s 51
f 32/35/36 33/36/36 34/37/36 
s 52
f 35/38/36 36/39/36 37/40/36 
s 53
f 35/38/36 37/40/36 32/35/36 
s 54
f 35/38/36 32/35/36 38/41/36 
s 55
f 32/35/36 34/37/36 38/41/36 
s 56
f 34/37/36 39/42/36 38/41/36 
s 57
f 37/40/36 40/43/36 32/35/36 
s 58
f 38/41/36 41/44/36 42/45/36 
s 59
f 35/38/36 38/41/36 42/45/36 
s 60
f 43/46/36 35/38/36 42/45/36 
s 61
f 44/47/37 45/48/38 46/49/37 
s 62
f 47/50/37 48/51/37 49/52/37 
s 63
f 47/50/37 49/52/37 44/47/37 
s 64
f 47/50/37 44/47/37 50/53/37 
s 65
f 44/47/37 46/49/37 50/53/37 
s 66
f 46/49/37 51/54/39 50/53/37 
s 67
f 49/52/37 52/55/40 44/47/37 
s 68
f 50/53/37 53/56/37 54/57/37 
s 69
f 47/50/37 50/53/37 54/57/37 
s 70
f 55/58/37 47/50/37 54/57/37 
s 71
f 56/59/41 57/60/42 13/14/14 
s 72
f 58/61/43 59/62/44 56/59/41 
s 73
f 57/63/45 56/59/41 59/62/44 
s 74
f 59/62/44 60/64/46 57/63/45 
s 75
f 61/65/47 62/66/48 60/64/46 
s 76
f 60/64/46 59/62/44 61/65/47 
s 77
f 63/67/49 61/65/47 59/62/44 
s 78
f 59/62/44 58/61/43 63/67/49 
s 79
f 64/68/50 63/67/49 58/61/43 
s 80
f 58/61/43 12/12/51 64/68/50 
s 81
f 12/12/51 58/61/43 11/11/11 
s 82
f 56/59/41 11/11/11 58/61/43 
s 83
f 11/11/11 56/59/41 10/10/10 
s 84
f 13/14/14 10/10/10 56/59/41 
s 85
f 63/67/49 64/69/52 65/70/53 
s 86
f 65/70/53 66/71/54 63/67/49 
s 87
f 61/65/47 63/67/49 66/71/54 
s 88
f 66/71/54 67/72/55 61/65/47 
s 89
f 62/73/56 61/65/47 67/72/55 
s 90
f 67/72/55 68/74/57 62/73/56 
s 91
f 68/74/57 67/72/55 69/75/58 
s 92
f 69/75/58 70/76/59 68/74/57 
s 93
f 70/76/59 69/75/58 27/77/60 
s 94
f 27/77/60 26/78/61 70/76/59 
s 95
f 66/71/54 65/70/53 71/79/62 
s 96
f 71/79/62 72/80/63 66/71/54 
s 97
f 67/72/55 66/71/54 72/80/63 
s 98
f 72/80/63 69/75/58 67/72/55 
s 99
f 69/75/58 72/80/63 29/81/64 
s 100
f 29/81/64 27/77/60 69/75/58 
s 101
f 72/80/63 71/79/62 31/82/65 
s 102
f 31/82/65 29/81/64 72/80/63 
s 149
f 73/83/66 74/84/67 75/85/68 
s 150
f 75/85/68 76/86/47 73/83/66 
s 151
f 77/87/69 73/83/66 76/86/47 
s 152
f 76/86/47 78/88/49 77/87/69 
s 153
f 78/88/49 76/86/47 79/89/44 
s 154
f 79/89/44 80/90/43 78/88/49 
s 155
f 80/90/43 79/89/44 81/91/70 
s 156
f 81/91/70 82/92/11 80/90/43 
s 157
f 82/92/11 81/91/70 83/93/10 
s 158
f 83/93/10 84/94/1 82/92/11 
s 159
f 84/94/1 85/95/2 86/96/3 
s 160
f 86/96/3 82/92/11 84/94/1 
s 161
f 82/92/11 86/96/3 87/97/71 
s 162
f 87/97/71 80/90/43 82/92/11 
s 163
f 80/90/43 87/97/71 88/98/72 
s 164
f 88/98/72 78/88/49 80/90/43 
s 165
f 81/91/70 89/99/42 90/100/73 
s 166
f 90/100/73 83/93/10 81/91/70 
s 167
f 83/93/10 90/100/73 91/101/74 
s 168
f 91/101/74 92/102/75 83/93/10 
s 169
f 92/102/75 91/101/74 93/103/16 
s 170
f 93/103/16 94/104/8 92/102/75 
s 171
f 94/104/8 93/103/16 95/105/18 
s 172
f 95/105/18 96/106/19 94/104/8 
s 173
f 84/94/1 83/93/10 92/102/75 
s 174
f 92/102/75 97/107/7 84/94/1 
s 175
f 97/107/7 92/102/75 94/104/8 
s 176
f 94/104/8 98/108/76 97/107/7 
s 177
f 98/108/76 94/104/8 96/106/19 
s 178
f 96/106/19 99/109/20 98/108/76 
s 179
f 99/109/20 96/106/19 100/110/77 
s 180
f 100/110/77 101/111/26 99/109/20 
s 181
f 101/111/26 100/110/77 102/112/29 
s 182
f 102/112/29 103/113/32 101/111/26 
s 183
f 99/109/20 104/114/78 105/115/79 
s 184
f 105/115/79 98/108/76 99/109/20 
s 185
f 98/108/76 105/115/79 106/116/6 
s 186
f 106/116/6 97/107/7 98/108/76 
s 187
f 97/107/7 106/116/6 85/117/13 
s 188
f 85/117/13 84/94/1 97/107/7 
s 189
f 103/113/32 107/118/34 108/119/27 
s 190
f 108/119/27 101/111/26 103/113/32 
s 191
f 101/111/26 108/119/27 104/120/80 
s 192
f 104/120/80 99/109/20 101/111/26 
s 193
f 103/113/32 102/112/29 109/121/31 
s 194
f 109/121/31 110/122/33 103/113/32 
s 195
f 107/118/34 103/113/32 110/122/33 
s 196
f 110/122/33 111/123/35 107/118/34 
s 197
f 96/106/19 95/124/25 112/125/81 
s 198
f 112/125/81 100/110/77 96/106/19 
s 199
f 100/110/77 112/125/81 113/126/82 
s 200
f 113/126/82 102/112/29 100/110/77 
s 201
f 102/112/29 113/126/82 114/127/30 
s 202
f 114/127/30 109/121/31 102/112/29 
s 203
f 115/128/83 116/129/84 117/130/85 
s 204
f 117/130/85 118/131/86 115/128/83 
s 205
f 119/132/87 115/128/83 118/131/86 
s 206
f 118/131/86 120/133/88 119/132/87 
s 207
f 120/133/88 118/131/86 121/134/89 
s 208
f 121/134/89 122/135/90 120/133/88 
s 209
f 122/135/90 121/134/89 123/136/91 
s 210
f 123/136/91 124/137/92 122/135/90 
s 211
f 124/137/92 123/136/91 125/138/93 
s 212
f 125/138/93 126/139/94 124/137/92 
s 213
f 118/131/86 117/130/85 127/140/95 
s 214
f 127/140/95 121/134/89 118/131/86 
s 215
f 121/134/89 127/140/95 128/141/96 
s 216
f 128/141/96 123/136/91 121/134/89 
s 217
f 124/137/92 129/142/97 130/143/98 
s 218
f 130/143/98 122/135/90 124/137/92 
s 219
f 122/135/90 130/143/98 131/144/99 
s 220
f 131/144/99 120/133/88 122/135/90 
s 221
f 120/133/88 131/144/99 132/145/100 
s 222
f 132/145/100 119/132/87 120/133/88 
s 223
f 133/146/101 134/147/102 135/148/103 
s 224
f 135/148/103 136/149/104 133/146/101 
s 225
f 136/149/104 135/148/103 137/150/105 
s 226
f 137/150/105 126/139/94 136/149/104 
s 227
f 126/139/94 137/150/105 129/151/106 
s 228
f 129/151/106 124/137/92 126/139/94 
s 229
f 126/139/94 125/138/93 138/152/107 
s 230
f 138/152/107 136/149/104 126/139/94 
s 231
f 136/149/104 138/152/107 139/153/108 
s 232
f 139/153/108 133/146/101 136/149/104 
s 233
f 133/146/101 139/153/108 140/154/109 
s 234
f 140/154/109 141/155/110 133/146/101 
s 235
f 141/155/110 140/154/109 142/156/111 
s 236
f 142/156/111 143/157/112 141/155/110 
s 237
f 143/157/112 142/156/111 144/158/113 
s 238
f 144/158/113 145/159/114 143/157/112 
s 239
f 138/152/107 146/160/115 147/161/116 
s 240
f 147/161/116 139/153/108 138/152/107 
s 241
f 139/153/108 147/161/116 148/162/117 
s 242
f 148/162/117 140/154/109 139/153/108 
s 243
f 140/154/109 148/162/117 149/163/118 
s 244
f 149/163/118 142/156/111 140/154/109 
s 245
f 142/156/111 149/163/118 150/164/119 
s 246
f 150/164/119 144/158/113 142/156/111 
s 247
f 123/136/91 128/165/120 151/166/121 
s 248
f 151/166/121 125/138/93 123/136/91 
s 249
f 125/138/93 151/166/121 146/167/122 
s 250
f 146/167/122 138/152/107 125/138/93 
s 251
f 119/168/123 132/169/124 152/170/125 
s 252
f 152/170/125 153/171/126 119/168/123 
s 253
f 115/172/127 119/168/123 153/171/126 
s 254
f 153/171/126 154/173/128 115/172/127 
s 255
f 116/174/129 115/172/127 154/173/128 
s 256
f 154/173/128 155/175/130 116/174/129 
s 257
f 155/175/130 154/173/128 156/176/131 
s 258
f 156/176/131 157/177/132 155/175/130 
s 259
f 157/177/132 156/176/131 144/158/113 
s 260
f 144/158/113 150/178/133 157/177/132 
s 261
f 145/159/114 144/158/113 156/176/131 
s 262
f 156/176/131 158/179/134 145/159/114 
s 263
f 158/179/134 156/176/131 154/173/128 
s 264
f 154/173/128 153/171/126 158/179/134 
s 265
f 159/180/135 158/179/134 153/171/126 
s 266
f 153/171/126 152/170/125 159/180/135 
s 267
f 158/179/134 159/180/135 160/181/136 
s 268
f 160/181/136 145/159/114 158/179/134 
s 269
f 145/159/114 160/182/137 161/183/138 
s 270
f 161/183/138 143/157/112 145/159/114 
s 271
f 143/157/112 161/183/138 162/184/139 
s 272
f 162/184/139 141/155/110 143/157/112 
s 273
f 141/155/110 162/184/139 134/185/140 
s 274
f 134/185/140 133/146/101 141/155/110 
s 301
f 163/186/141 164/187/142 165/188/143 
s 302
f 165/188/143 166/189/144 163/186/141 
s 303
f 167/190/145 163/186/141 166/189/144 
s 304
f 166/189/144 168/191/146 167/190/145 
s 305
f 168/191/146 166/189/144 169/192/147 
s 306
f 169/192/147 170/193/148 168/191/146 
s 307
f 170/193/148 169/192/147 171/194/149 
s 308
f 171/194/149 172/195/150 170/193/148 
s 309
f 172/195/150 171/194/149 173/196/151 
s 310
f 173/196/151 174/197/152 172/195/150 
s 311
f 166/189/144 165/188/143 175/198/153 
s 312
f 175/198/153 169/192/147 166/189/144 
s 313
f 169/192/147 175/198/153 176/199/154 
s 314
f 176/199/154 171/194/149 169/192/147 
s 315
f 172/195/150 177/200/155 178/201/156 
s 316
f 178/201/156 170/193/148 172/195/150 
s 317
f 170/193/148 178/201/156 179/202/157 
s 318
f 179/202/157 168/191/146 170/193/148 
s 319
f 168/191/146 179/202/157 180/203/158 
s 320
f 180/203/158 167/190/145 168/191/146 
s 321
f 181/204/159 182/205/160 183/206/161 
s 322
f 183/206/161 184/207/162 181/204/159 
s 323
f 184/207/162 183/206/161 185/208/163 
s 324
f 185/208/163 174/197/152 184/207/162 
s 325
f 174/197/152 185/208/163 177/209/164 
s 326
f 177/209/164 172/195/150 174/197/152 
s 327
f 174/197/152 173/196/151 186/210/165 
s 328
f 186/210/165 184/207/162 174/197/152 
s 329
f 184/207/162 186/210/165 187/211/166 
s 330
f 187/211/166 181/204/159 184/207/162 
s 331
f 181/204/159 187/211/166 188/212/167 
s 332
f 188/212/167 189/213/168 181/204/159 
s 333
f 189/213/168 188/212/167 190/214/169 
s 334
f 190/214/169 191/215/170 189/213/168 
s 335
f 191/215/170 190/214/169 192/216/171 
s 336
f 192/216/171 193/217/172 191/215/170 
s 337
f 193/217/172 194/218/173 195/219/174 
s 338
f 195/219/174 191/215/170 193/217/172 
s 339
f 191/215/170 195/219/174 196/220/175 
s 340
f 196/220/175 189/213/168 191/215/170 
s 341
f 189/213/168 196/220/175 182/221/176 
s 342
f 182/221/176 181/204/159 189/213/168 
s 343
f 197/222/177 192/216/171 190/214/169 
s 344
f 190/214/169 198/223/178 197/222/177 
s 345
f 198/223/178 190/214/169 188/212/167 
s 346
f 188/212/167 199/224/179 198/223/178 
s 347
f 199/224/179 188/212/167 187/211/166 
s 348
f 187/211/166 200/225/180 199/224/179 
s 349
f 200/225/180 187/211/166 186/210/165 
s 350
f 186/210/165 201/226/181 200/225/180 
s 351
f 171/194/149 176/227/182 202/228/183 
s 352
f 202/228/183 173/196/151 171/194/149 
s 353
f 173/196/151 202/228/183 201/229/184 
s 354
f 201/229/184 186/210/165 173/196/151 
s 355
f 203/230/185 204/231/186 205/232/187 
s 356
f 205/232/187 206/233/188 203/230/185 
s 357
f 206/233/188 205/232/187 207/234/189 
s 358
f 207/234/189 208/235/190 206/233/188 
s 359
f 208/235/190 207/234/189 209/236/191 
s 360
f 209/236/191 210/237/192 208/235/190 
s 361
f 210/237/192 209/236/191 211/238/193 
s 362
f 211/238/193 212/239/194 210/237/192 
s 363
f 210/237/192 213/240/195 214/241/196 
s 364
f 214/241/196 208/235/190 210/237/192 
s 365
f 208/235/190 214/241/196 215/242/197 
s 366
f 215/242/197 206/233/188 208/235/190 
s 367
f 206/233/188 215/242/197 216/243/198 
s 368
f 216/243/198 203/230/185 206/233/188 
s 369
f 203/230/185 216/243/198 217/244/199 
s 370
f 217/244/199 218/245/200 203/230/185 
s 371
f 218/245/200 217/244/199 219/246/201 
s 372
f 219/246/201 220/247/202 218/245/200 
s 373
f 220/247/202 221/248/203 222/249/204 
s 374
f 222/249/204 218/245/200 220/247/202 
s 375
f 218/245/200 222/249/204 204/250/205 
s 376
f 204/250/205 203/230/185 218/245/200 
s 377
f 215/242/197 223/251/206 224/252/207 
s 378
f 224/252/207 216/243/198 215/242/197 
s 379
f 216/243/198 224/252/207 225/253/208 
s 380
f 225/253/208 217/244/199 216/243/198 
s 381
f 217/244/199 225/253/208 226/254/209 
s 382
f 226/254/209 219/246/201 217/244/199 
s 383
f 219/246/201 226/255/210 227/256/211 
s 384
f 227/256/211 228/257/212 219/246/201 
s 385
f 228/257/212 227/256/211 229/258/213 
s 386
f 229/258/213 230/259/214 228/257/212 
s 387
f 230/259/214 229/258/213 231/260/215 
s 388
f 231/260/215 232/261/216 230/259/214 
s 389
f 220/247/202 219/246/201 228/257/212 
s 390
f 228/257/212 233/262/217 220/247/202 
s 391
f 233/262/217 228/257/212 230/259/214 
s 392
f 230/259/214 234/263/218 233/262/217 
s 393
f 234/263/218 230/259/214 232/261/216 
s 394
f 232/261/216 235/264/219 234/263/218 
s 395
f 236/265/220 234/263/218 235/264/219 
s 396
f 235/264/219 237/266/221 236/265/220 
s 397
f 234/263/218 236/265/220 238/267/222 
s 398
f 238/267/222 233/262/217 234/263/218 
s 399
f 233/262/217 238/267/222 221/268/223 
s 400
f 221/268/223 220/247/202 233/262/217 
s 401
f 232/269/224 231/270/225 239/271/226 
s 402
f 239/271/226 240/272/227 232/269/224 
s 403
f 235/273/228 232/269/224 240/272/227 
s 404
f 240/272/227 241/274/229 235/273/228 
s 405
f 241/274/229 240/272/227 242/275/230 
s 406
f 242/275/230 243/276/231 241/274/229 
s 407
f 243/276/231 242/275/230 244/277/232 
s 408
f 244/277/232 212/239/194 243/276/231 
s 409
f 212/239/194 244/277/232 213/240/195 
s 410
f 213/240/195 210/237/192 212/239/194 
s 411
f 240/272/227 239/271/226 245/278/233 
s 412
f 245/278/233 242/275/230 240/272/227 
s 413
f 242/275/230 245/278/233 246/279/234 
s 414
f 246/279/234 244/277/232 242/275/230 
s 415
f 212/239/194 211/280/235 247/281/236 
s 416
f 247/281/236 243/276/231 212/239/194 
s 417
f 243/276/231 247/281/236 248/282/237 
s 418
f 248/282/237 241/274/229 243/276/231 
s 419
f 241/274/229 248/282/237 237/283/238 
s 420
f 237/283/238 235/273/228 241/274/229 
s 421
f 244/277/232 246/284/239 249/285/240 
s 422
f 249/285/240 213/240/195 244/277/232 
s 423
f 213/240/195 249/285/240 250/286/241 
s 424
f 250/286/241 214/241/196 213/240/195 
s 425
f 214/241/196 250/286/241 223/287/242 
s 426
f 223/287/242 215/242/197 214/241/196 
s 427
f 15/288/243 251/289/243 252/290/244 
s 428
f 252/290/244 16/291/244 15/288/243 
s 429
f 16/291/244 252/290/244 253/292/245 
s 430
f 253/292/245 21/293/245 16/291/244 
s 431
f 21/293/245 253/292/245 254/294/246 
s 432
f 254/294/246 22/295/246 21/293/245 
s 433
f 22/295/246 254/294/246 255/296/247 
s 434
f 255/296/247 26/297/247 22/295/246 
s 435
f 26/297/247 255/296/247 256/298/248 
s 436
f 256/298/248 70/299/248 26/297/247 
s 437
f 70/299/248 256/298/248 257/300/249 
s 438
f 257/300/249 68/301/249 70/299/248 
s 439
f 68/301/249 257/300/249 258/302/250 
s 440
f 258/302/250 62/303/250 68/301/249 
s 441
f 62/303/250 258/302/250 259/304/251 
s 442
f 259/304/251 60/305/251 62/303/250 
s 443
f 60/305/251 259/304/251 260/306/252 
s 444
f 260/306/252 57/307/252 60/305/251 
s 445
f 57/307/252 260/306/252 261/308/253 
s 446
f 261/308/253 13/309/253 57/307/252 
s 447
f 13/309/253 261/308/253 262/310/254 
s 448
f 262/310/254 14/311/254 13/309/253 
s 449
f 14/311/254 262/310/254 251/289/243 
s 450
f 251/289/243 15/288/243 14/311/254 
s 451
f 263/312/255 264/313/256 265/314/257 
s 452
f 265/314/257 266/315/258 263/312/255 
s 453
f 266/315/258 265/314/257 267/316/259 
s 454
f 267/316/259 268/317/260 266/315/258 
s 455
f 269/318/261 270/319/262 271/320/263 
s 456
f 271/320/263 272/321/264 269/318/261 
s 457
f 272/321/264 271/320/263 273/322/265 
s 458
f 273/322/265 268/317/260 272/321/264 
s 459
f 268/317/260 273/322/265 274/323/266 
s 460
f 274/323/266 266/315/258 268/317/260 
s 461
f 266/315/258 274/323/266 275/324/267 
s 462
f 275/324/267 263/312/255 266/315/258 
s 463
f 263/312/255 275/324/267 276/325/268 
s 464
f 276/325/268 277/326/269 263/312/255 
s 465
f 278/327/270 279/328/271 280/329/272 
s 466
f 280/329/272 277/326/269 278/327/270 
s 467
f 277/326/269 280/329/272 264/330/273 
s 468
f 264/330/273 263/312/255 277/326/269 
s 469
f 277/326/269 276/325/268 281/331/274 
s 470
f 281/331/274 278/327/270 277/326/269 
s 471
f 278/327/270 281/331/274 282/332/275 
s 472
f 282/332/275 283/333/276 278/327/270 
s 473
f 279/328/271 278/327/270 283/333/276 
s 474
f 283/333/276 284/334/277 279/328/271 
s 475
f 285/335/278 286/336/279 287/337/280 
s 476
f 287/337/280 288/338/281 285/335/278 
s 477
f 289/339/282 285/335/278 288/338/281 
s 478
f 288/338/281 290/340/283 289/339/282 
s 479
f 290/340/283 288/338/281 291/341/284 
s 480
f 291/341/284 292/342/285 290/340/283 
s 481
f 292/342/285 291/341/284 293/343/286 
s 482
f 293/343/286 294/344/287 292/342/285 
s 483
f 294/344/287 293/343/286 295/345/288 
s 484
f 295/345/288 296/346/289 294/344/287 
s 485
f 288/338/281 287/337/280 297/347/290 
s 486
f 297/347/290 291/341/284 288/338/281 
s 487
f 291/341/284 297/347/290 298/348/291 
s 488
f 298/348/291 293/343/286 291/341/284 
s 489
f 293/343/286 298/349/292 299/350/293 
s 490
f 299/350/293 295/345/288 293/343/286 
s 491
f 295/345/288 299/350/293 300/351/294 
s 492
f 300/351/294 301/352/295 295/345/288 
s 493
f 296/346/289 295/345/288 301/352/295 
s 494
f 301/352/295 302/353/296 296/346/289 
s 495
f 302/353/296 301/352/295 303/354/297 
s 496
f 303/354/297 304/355/298 302/353/296 
s 497
f 304/355/298 303/354/297 305/356/299 
s 498
f 305/356/299 306/357/300 304/355/298 
s 499
f 306/357/300 305/356/299 307/358/301 
s 500
f 307/358/301 308/359/302 306/357/300 
s 501
f 308/359/302 307/358/301 309/360/303 
s 502
f 309/360/303 310/361/304 308/359/302 
s 503
f 301/352/295 300/362/305 311/363/306 
s 504
f 311/363/306 303/354/297 301/352/295 
s 505
f 303/354/297 311/363/306 312/364/307 
s 506
f 312/364/307 305/356/299 303/354/297 
s 507
f 305/356/299 312/364/307 313/365/308 
s 508
f 313/365/308 307/358/301 305/356/299 
s 509
f 307/358/301 313/365/308 314/366/309 
s 510
f 314/366/309 309/360/303 307/358/301 
s 511
f 309/360/303 314/367/310 315/368/311 
s 512
f 315/368/311 316/369/312 309/360/303 
s 513
f 316/369/312 315/368/311 317/370/313 
s 514
f 317/370/313 318/371/314 316/369/312 
s 515
f 318/371/314 317/370/313 286/372/315 
s 516
f 286/372/315 285/373/316 318/371/314 
s 517
f 310/361/304 309/360/303 316/369/312 
s 518
f 316/369/312 319/374/317 310/361/304 
s 519
f 319/374/317 316/369/312 318/371/314 
s 520
f 318/371/314 320/375/318 319/374/317 
s 521
f 320/375/318 318/371/314 285/373/316 
s 522
f 285/373/316 289/376/319 320/375/318 
s 523
f 321/377/320 36/39/320 35/38/321 
s 524
f 35/38/321 322/378/322 321/377/320 
s 525
f 322/378/322 35/38/321 43/46/323 
s 526
f 43/46/323 323/379/323 322/378/322 
s 527
f 323/379/323 43/46/323 42/45/324 
s 528
f 42/45/324 324/380/324 323/379/323 
s 529
f 324/380/324 42/45/324 41/44/325 
s 530
f 41/44/325 325/381/325 324/380/324 
s 531
f 325/381/325 41/44/325 38/41/326 
s 532
f 38/41/326 326/382/326 325/381/325 
s 533
f 326/382/326 38/41/326 39/42/327 
s 534
f 39/42/327 327/383/327 326/382/326 
s 535
f 327/383/327 39/42/327 34/37/328 
s 536
f 34/37/328 328/384/328 327/383/327 
s 537
f 328/384/328 34/37/328 33/36/329 
s 538
f 33/36/329 329/385/329 328/384/328 
s 539
f 329/385/329 33/36/329 32/35/330 
s 540
f 32/35/330 330/386/330 329/385/329 
s 541
f 330/386/330 32/35/330 40/43/331 
s 542
f 40/43/331 331/387/331 330/386/330 
s 543
f 331/387/331 40/43/331 37/40/332 
s 544
f 37/40/332 332/388/333 331/387/331 
s 545
f 332/388/333 37/40/332 36/39/320 
s 546
f 36/39/320 321/377/320 332/388/333 
s 547
f 93/389/243 321/377/243 322/378/244 
s 548
f 322/378/244 95/390/244 93/389/243 
s 549
f 95/390/244 322/378/244 323/379/245 
s 550
f 323/379/245 112/391/245 95/390/244 
s 551
f 112/391/245 323/379/245 324/380/246 
s 552
f 324/380/246 113/392/246 112/391/245 
s 553
f 113/392/246 324/380/246 325/381/334 
s 554
f 325/381/334 114/393/334 113/392/246 
s 555
f 114/393/334 325/381/334 326/382/335 
s 556
f 326/382/335 333/394/335 114/393/334 
s 557
f 333/394/335 326/382/335 327/383/336 
s 558
f 327/383/336 74/395/336 333/394/335 
s 559
f 74/395/336 327/383/336 328/384/250 
s 560
f 328/384/250 75/396/250 74/395/336 
s 561
f 75/396/250 328/384/250 329/385/251 
s 562
f 329/385/251 334/397/251 75/396/250 
s 563
f 334/397/251 329/385/251 330/386/337 
s 564
f 330/386/337 89/398/337 334/397/251 
s 565
f 89/398/337 330/386/337 331/387/253 
s 566
f 331/387/253 90/399/253 89/398/337 
s 567
f 90/399/253 331/387/253 332/388/254 
s 568
f 332/388/254 91/400/254 90/399/253 
s 569
f 91/400/254 332/388/254 321/377/243 
s 570
f 321/377/243 93/389/243 91/400/254 
s 571
f 110/401/338 109/402/60 335/403/58 
s 572
f 335/403/58 336/404/63 110/401/338 
s 573
f 111/405/65 110/401/338 336/404/63 
s 574
f 336/404/63 337/406/62 111/405/65 
s 575
f 109/402/60 114/407/61 333/408/59 
s 576
f 333/408/59 335/403/58 109/402/60 
s 577
f 335/403/58 333/408/59 74/84/67 
s 578
f 74/84/67 73/83/66 335/403/58 
s 579
f 336/404/63 335/403/58 73/83/66 
s 580
f 73/83/66 77/87/69 336/404/63 
s 581
f 337/406/62 336/404/63 77/87/69 
s 582
f 77/87/69 338/409/339 337/406/62 
s 583
f 338/409/339 77/87/69 78/88/49 
s 584
f 78/88/49 88/410/52 338/409/339 
s 585
f 283/411/340 282/412/341 339/413/342 
s 586
f 339/413/342 340/414/343 283/411/340 
s 587
f 340/414/343 339/413/342 341/415/344 
s 588
f 341/415/344 342/416/345 340/414/343 
s 589
f 342/416/345 341/415/344 343/417/346 
s 590
f 343/417/346 344/418/347 342/416/345 
s 591
f 344/418/347 343/417/346 345/419/348 
s 592
f 345/419/348 346/420/349 344/418/347 
s 593
f 346/420/349 345/419/348 270/319/262 
s 594
f 270/319/262 269/318/261 346/420/349 
s 595
f 344/418/347 347/421/350 348/422/351 
s 596
f 348/422/351 342/416/345 344/418/347 
s 597
f 342/416/345 348/422/351 349/423/352 
s 598
f 349/423/352 340/414/343 342/416/345 
s 599
f 340/414/343 349/423/352 284/424/353 
s 600
f 284/424/353 283/411/340 340/414/343 
s 601
f 347/425/354 344/418/347 346/420/349 
s 602
f 346/420/349 350/426/355 347/425/354 
s 603
f 350/426/355 346/420/349 269/318/261 
s 604
f 269/318/261 351/427/356 350/426/355 
s 605
f 351/427/356 269/318/261 272/321/264 
s 606
f 272/321/264 352/428/357 351/427/356 
s 607
f 352/428/357 272/321/264 268/317/260 
s 608
f 268/317/260 267/429/358 352/428/357 
s 609
f 353/430/359 247/431/360 211/432/361 
s 610
f 211/432/361 354/433/361 353/430/359 
s 611
f 354/433/361 211/432/361 209/434/362 
s 612
f 209/434/362 355/435/362 354/433/361 
s 613
f 355/435/362 209/434/362 207/436/363 
s 614
f 207/436/363 356/437/363 355/435/362 
s 615
f 356/437/363 207/436/363 205/438/364 
s 616
f 205/438/364 357/439/364 356/437/363 
s 617
f 357/439/364 205/438/364 204/440/365 
s 618
f 204/440/365 358/441/365 357/439/364 
s 619
f 358/441/365 204/440/365 222/442/366 
s 620
f 222/442/366 359/443/366 358/441/365 
s 621
f 359/443/366 222/442/366 221/444/367 
s 622
f 221/444/367 360/445/367 359/443/366 
s 623
f 360/445/367 221/444/367 238/446/368 
s 624
f 238/446/368 361/447/368 360/445/367 
s 625
f 361/447/368 238/446/368 236/448/369 
s 626
f 236/448/369 362/449/369 361/447/368 
s 627
f 362/449/369 236/448/369 237/450/370 
s 628
f 237/450/370 363/451/370 362/449/369 
s 629
f 363/451/370 237/450/370 248/452/371 
s 630
f 248/452/371 364/453/371 363/451/370 
s 631
f 364/453/371 248/452/371 247/431/360 
s 632
f 247/431/360 353/430/359 364/453/371 
s 633
f 353/430/372 55/58/372 54/57/373 
s 634
f 54/57/373 364/453/373 353/430/372 
s 635
f 364/453/373 54/57/373 53/56/374 
s 636
f 53/56/374 363/451/374 364/453/373 
s 637
f 363/451/374 53/56/374 50/53/375 
s 638
f 50/53/375 362/449/375 363/451/374 
s 639
f 362/449/375 50/53/375 51/54/376 
s 640
f 51/54/376 361/447/376 362/449/375 
s 641
f 361/447/376 51/54/376 46/49/377 
s 642
f 46/49/377 360/445/377 361/447/376 
s 643
f 360/445/377 46/49/377 45/48/378 
s 644
f 45/48/378 359/443/378 360/445/377 
s 645
f 359/443/378 45/48/378 44/47/379 
s 646
f 44/47/379 358/441/379 359/443/378 
s 647
f 358/441/379 44/47/379 52/55/380 
s 648
f 52/55/380 357/439/380 358/441/379 
s 649
f 357/439/380 52/55/380 49/52/381 
s 650
f 49/52/381 356/437/382 357/439/380 
s 651
f 356/437/382 49/52/381 48/51/383 
s 652
f 48/51/383 355/435/383 356/437/382 
s 653
f 355/435/383 48/51/383 47/50/384 
s 654
f 47/50/384 354/433/385 355/435/383 
s 655
f 354/433/385 47/50/384 55/58/372 
s 656
f 55/58/372 353/430/372 354/433/385 
s 657
f 365/454/386 298/455/386 297/456/387 
s 658
f 297/456/387 366/457/387 365/454/386 
s 659
f 366/457/387 297/456/387 287/458/388 
s 660
f 287/458/388 367/459/388 366/457/387 
s 661
f 367/459/388 287/458/388 286/460/389 
s 662
f 286/460/389 368/461/389 367/459/388 
s 663
f 368/461/389 286/460/389 317/462/390 
s 664
f 317/462/390 369/463/390 368/461/389 
s 665
f 369/463/390 317/462/390 315/464/391 
s 666
f 315/464/391 370/465/391 369/463/390 
s 667
f 370/465/391 315/464/391 314/466/392 
s 668
f 314/466/392 371/467/392 370/465/391 
s 669
f 371/467/392 314/466/392 313/468/393 
s 670
f 313/468/393 372/469/393 371/467/392 
s 671
f 372/469/393 313/468/393 312/470/394 
s 672
f 312/470/394 373/471/394 372/469/393 
s 673
f 373/471/394 312/470/394 311/472/395 
s 674
f 311/472/395 374/473/395 373/471/394 
s 675
f 374/473/395 311/472/395 300/474/396 
s 676
f 300/474/396 375/475/396 374/473/395 
s 677
f 375/475/396 300/474/396 299/476/397 
s 678
f 299/476/397 376/477/397 375/475/396 
s 679
f 376/477/397 299/476/397 298/455/386 
s 680
f 298/455/386 365/454/386 376/477/397 
s 729
f 193/217/172 192/216/171 377/478/398 
s 730
f 377/478/398 378/479/399 193/217/172 
s 731
f 378/479/399 377/478/398 379/480/400 
s 732
f 379/480/400 380/481/401 378/479/399 
s 733
f 380/481/401 379/480/400 163/482/402 
s 734
f 163/482/402 167/483/403 380/481/401 
s 735
f 381/484/404 380/481/401 167/483/403 
s 736
f 167/483/403 180/485/405 381/484/404 
s 737
f 380/481/401 381/484/404 382/486/406 
s 738
f 382/486/406 378/479/399 380/481/401 
s 739
f 378/479/399 382/486/406 194/487/407 
s 740
f 194/487/407 193/217/172 378/479/399 
s 741
f 192/216/171 197/488/408 383/489/409 
s 742
f 383/489/409 377/478/398 192/216/171 
s 743
f 377/478/398 383/489/409 384/490/410 
s 744
f 384/490/410 379/480/400 377/478/398 
s 745
f 379/480/400 384/490/410 164/491/411 
s 746
f 164/491/411 163/482/402 379/480/400 
s 747
f 149/492/412 385/493/412 386/494/413 
s 748
f 386/494/413 150/495/413 149/492/412 
s 749
f 150/495/413 386/494/413 387/496/414 
s 750
f 387/496/414 157/497/414 150/495/413 
s 751
f 157/497/414 387/496/414 388/498/415 
s 752
f 388/498/415 155/499/415 157/497/414 
s 753
f 155/499/415 388/498/415 389/500/416 
s 754
f 389/500/416 116/501/416 155/499/415 
s 755
f 116/501/416 389/500/416 390/502/417 
s 756
f 390/502/417 117/503/417 116/501/416 
s 757
f 117/503/417 390/502/417 391/504/418 
s 758
f 391/504/418 127/505/418 117/503/417 
s 759
f 127/505/418 391/504/418 392/506/419 
s 760
f 392/506/419 128/507/419 127/505/418 
s 761
f 128/507/419 392/506/419 393/508/420 
s 762
f 393/508/420 151/509/420 128/507/419 
s 763
f 151/509/420 393/508/420 394/510/421 
s 764
f 394/510/421 146/511/421 151/509/420 
s 765
f 146/511/421 394/510/421 395/512/422 
s 766
f 395/512/422 147/513/422 146/511/421 
s 767
f 147/513/422 395/512/422 396/514/423 
s 768
f 396/514/423 148/515/423 147/513/422 
s 769
f 148/515/423 396/514/423 385/493/412 
s 770
f 385/493/412 149/492/412 148/515/423 
s 771
f 198/516/424 397/517/424 398/518/425 
s 772
f 398/518/425 197/519/425 198/516/424 
s 773
f 197/519/425 398/518/425 399/520/426 
s 774
f 399/520/426 383/521/426 197/519/425 
s 775
f 383/521/426 399/520/426 400/522/427 
s 776
f 400/522/427 384/523/427 383/521/426 
s 777
f 384/523/427 400/522/427 401/524/428 
s 778
f 401/524/428 164/525/428 384/523/427 
s 779
f 164/525/428 401/524/428 402/526/429 
s 780
f 402/526/429 165/527/429 164/525/428 
s 781
f 165/527/429 402/526/429 403/528/430 
s 782
f 403/528/430 175/529/430 165/527/429 
s 783
f 175/529/430 403/528/430 404/530/431 
s 784
f 404/530/431 176/531/431 175/529/430 
s 785
f 176/531/431 404/530/431 405/532/432 
s 786
f 405/532/432 202/533/432 176/531/431 
s 787
f 202/533/432 405/532/432 406/534/433 
s 788
f 406/534/433 201/535/433 202/533/432 
s 789
f 201/535/433 406/534/433 407/536/434 
s 790
f 407/536/434 200/537/434 201/535/433 
s 791
f 200/537/434 407/536/434 408/538/435 
s 792
f 408/538/435 199/539/435 200/537/434 
s 793
f 199/539/435 408/538/435 397/517/424 
s 794
f 397/517/424 198/516/424 199/539/435 
s 795
f 350/540/436 409/541/436 410/542/437 
s 796
f 410/542/437 347/543/437 350/540/436 
s 797
f 347/543/437 410/542/437 411/544/438 
s 798
f 411/544/438 348/545/438 347/543/437 
s 799
f 348/545/438 411/544/438 412/546/439 
s 800
f 412/546/439 349/547/439 348/545/438 
s 801
f 349/547/439 412/546/439 413/548/440 
s 802
f 413/548/440 284/549/440 349/547/439 
s 803
f 284/549/440 413/548/440 414/550/441 
s 804
f 414/550/441 279/551/442 284/549/440 
s 805
f 279/551/442 414/550/441 415/552/443 
s 806
f 415/552/443 280/553/443 279/551/442 
s 807
f 280/553/443 415/552/443 416/554/444 
s 808
f 416/554/444 264/555/444 280/553/443 
s 809
f 264/555/444 416/554/444 417/556/445 
s 810
f 417/556/445 265/557/445 264/555/444 
s 811
f 265/557/445 417/556/445 418/558/446 
s 812
f 418/558/446 267/559/446 265/557/445 
s 813
f 267/559/446 418/558/446 419/560/447 
s 814
f 419/560/447 352/561/447 267/559/446 
s 815
f 352/561/447 419/560/447 420/562/448 
s 816
f 420/562/448 351/563/448 352/561/447 
s 817
f 351/563/448 420/562/448 409/541/436 
s 818
f 409/541/436 350/540/436 351/563/448 
s 819
f 76/86/47 75/564/449 334/565/450 
s 820
f 334/565/450 79/89/44 76/86/47 
s 821
f 79/89/44 334/565/450 89/566/451 
s 822
f 89/566/451 81/91/70 79/89/44 
# 0 polygons - 692 triangles