# 3ds Max Wavefront OBJ Exporter v0.97b - (c)2007 guruware
# File Created: 17.05.2017 00:16:10

mtllib elec_box3.mtl

#
# object Mesh_806
#

v  -0.9693 5.6277 -4.8021
v  -1.4742 5.1777 -4.8019
v  -1.3261 5.5572 -4.8021
v  -0.5003 5.7076 -4.8021
v  0.4964 5.1777 -4.8097
v  0.4964 1.5180 4.2442
v  2.4474 1.5180 4.2442
v  2.4474 5.1777 4.2444
v  0.4964 5.1777 4.2444
v  -1.4543 5.1777 4.2444
v  -1.4543 1.5180 4.2442
v  -1.3764 0.1687 4.0725
v  -1.3763 1.3692 4.0724
v  -1.3764 0.1687 -4.5909
v  -1.3763 1.3692 -4.5908
v  -1.6373 0.0594 -4.9001
v  -1.6373 0.0594 4.3764
v  -1.6367 0.1683 -4.8993
v  -1.6367 0.1683 4.3757
v  -1.6239 0.0594 -4.9294
v  -1.6233 0.1683 -4.9286
v  -1.5830 0.1683 -4.9383
v  -1.5836 0.0594 -4.9391
v  -1.3646 0.1687 -4.6190
v  -1.3293 0.1687 -4.6283
v  -1.3292 1.3692 -4.6282
v  -1.3645 1.3692 -4.6189
v  1.0052 5.7661 4.2907
v  0.4964 5.1777 4.2906
v  1.4946 5.7076 4.2907
v  0.4964 5.7901 4.2907
v  1.9636 5.6277 4.2907
v  2.4685 5.1777 4.2906
v  2.3204 5.5572 4.2907
v  1.9215 0.9693 -4.6012
v  1.9215 0.9693 -4.6421
v  2.0063 1.0542 -4.6012
v  2.0063 1.0542 -4.6421
v  1.7167 1.1741 -4.6012
v  1.7167 1.1741 -4.6421
v  1.7167 1.0542 -4.6012
v  1.7167 1.0542 -4.6421
v  2.0063 1.1741 -4.6012
v  2.0063 1.1741 -4.6421
v  1.8015 1.2590 -4.6012
v  1.9215 1.2590 -4.6012
v  1.8015 1.2590 -4.6421
v  1.9215 1.2590 -4.6421
v  1.8015 0.9693 -4.6012
v  1.8015 0.9693 -4.6421
v  1.8148 1.0015 -4.6421
v  1.9082 1.0015 -4.6421
v  1.7488 1.1608 -4.6421
v  1.7488 1.0675 -4.6421
v  1.9742 1.0675 -4.6421
v  1.9742 1.1608 -4.6421
v  1.9082 1.2268 -4.6421
v  1.8148 1.2268 -4.6421
v  0.4978 1.4652 -4.8302
v  -1.4985 1.4652 -4.8302
v  -1.4531 1.5180 -4.7556
v  0.4978 1.5180 -4.7556
v  2.4485 1.5180 -4.7556
v  2.4939 1.4652 -4.8302
v  -1.3501 0.5544 -0.5648
v  -1.3501 0.5412 -0.3764
v  -1.3864 0.5544 -0.5648
v  -1.3864 0.5412 -0.3764
v  -1.3501 0.9801 -0.2137
v  -1.3501 0.9966 -0.3821
v  -1.3864 0.9801 -0.2137
v  -1.3864 0.9966 -0.3821
v  -1.3501 0.6204 -0.2279
v  -1.3864 0.6204 -0.2279
v  0.4964 5.1777 -4.7569
v  2.4474 5.1777 -4.7569
v  -1.4532 5.1777 -4.7557
v  2.5559 1.3735 -4.8247
v  2.4969 1.3735 -4.8352
v  2.5509 1.4652 -4.8197
v  2.4770 1.5180 -4.7452
v  2.4771 5.1777 -4.7453
v  -0.5003 5.7076 4.2985
v  -1.4742 5.1777 4.2984
v  -0.9693 5.6277 4.2985
v  -1.3261 5.5572 4.2985
v  0.4978 1.3735 -4.8352
v  -1.5015 1.3735 -4.8352
v  -0.0109 5.7661 4.2985
v  -1.3738 0.1386 -4.3319
v  -1.3725 0.1386 -4.3319
v  -1.3725 1.3464 -4.3319
v  -1.3731 1.3464 -4.3319
v  -1.4847 1.3464 -4.3319
v  -1.6233 0.1386 -4.3319
v  0.4964 5.7901 -4.8099
v  -0.0109 5.7661 -4.8021
v  -1.0227 0.1386 -4.6137
v  -1.0227 0.1386 -4.8632
v  -1.0227 1.3464 -4.7246
v  -1.0227 1.3464 -4.6130
v  -1.0227 0.1386 -4.6124
v  -1.0227 1.3464 -4.6124
v  -1.1679 0.1386 -4.6137
v  -1.1679 0.1386 -4.6124
v  -1.1679 1.3464 -4.6124
v  -1.1679 1.3464 -4.6130
v  -1.1679 1.3464 -4.7246
v  -1.1679 0.1386 -4.8632
v  -1.3738 0.1386 3.6508
v  -1.6233 0.1386 3.6508
v  -1.4847 1.3464 3.6508
v  -1.3731 1.3464 3.6508
v  -1.3725 0.1386 3.6508
v  -1.3725 1.3464 3.6508
v  -1.3738 0.1386 3.7960
v  -1.3725 0.1386 3.7960
v  -1.3725 1.3464 3.7960
v  -1.3731 1.3464 3.7960
v  -1.4847 1.3464 3.7960
v  -1.6233 0.1386 3.7960
v  0.4964 5.8543 -4.7528
v  -0.0059 5.8306 -4.7479
v  1.0002 5.8306 -4.7528
v  1.0052 5.7661 -4.8099
v  1.4847 5.7727 -4.7528
v  1.4946 5.7076 -4.8099
v  1.9490 5.6936 -4.7528
v  1.9636 5.6277 -4.8099
v  2.3022 5.6239 -4.7528
v  2.3204 5.5572 -4.8099
v  2.4816 5.5800 -4.7438
v  2.5115 5.5195 -4.7982
v  -0.0059 5.8306 4.2414
v  0.4964 5.8543 4.2365
v  0.0065 5.8653 4.1575
v  0.4965 5.8884 4.1450
v  0.9877 5.8653 4.1450
v  1.0002 5.8306 4.2365
v  1.9126 5.7317 -4.6688
v  1.4600 5.8088 -4.6688
v  0.9877 5.8653 -4.6688
v  0.4965 5.8884 -4.6688
v  0.0065 5.8653 -4.6564
v  -0.4658 5.8088 4.1575
v  -0.4904 5.7727 4.2414
v  -0.4658 5.8088 -4.6564
v  -0.9183 5.7317 -4.6564
v  -0.4904 5.7727 -4.7479
v  -0.9547 5.6936 -4.7479
v  -1.2626 5.6637 -4.6564
v  -1.3080 5.6239 -4.7479
v  -1.4972 5.5865 -4.6565
v  -1.4874 5.5800 -4.7411
v  -1.5300 5.5170 -4.6568
v  -1.5173 5.5195 -4.7933
v  -1.4972 5.5865 4.1579
v  -1.5300 5.5170 4.1610
v  -1.5173 5.5195 4.2868
v  -1.4874 5.5800 4.2324
v  -1.3080 5.6238 4.2414
v  -1.2626 5.6637 4.1575
v  -0.9183 5.7317 4.1575
v  -0.9547 5.6936 4.2414
v  -1.5697 1.4652 4.1615
v  -1.5746 1.3735 4.1616
v  -1.5578 1.4652 4.3092
v  -1.5628 1.3735 4.3142
v  -1.4953 1.5180 4.1599
v  -1.4839 1.5180 4.2347
v  -1.4954 5.1777 4.1599
v  -1.4840 5.1777 4.2349
v  -1.5026 1.3735 4.3239
v  -1.4996 1.4652 4.3189
v  2.4685 5.1777 -4.8097
v  2.5639 1.4652 -4.6729
v  2.5689 1.3735 -4.6730
v  2.4895 1.5180 -4.6712
v  2.4896 5.1777 -4.6712
v  -1.5172 5.1777 4.2867
v  -1.5172 5.1777 -4.7931
v  1.4600 5.8088 4.1450
v  1.4847 5.7727 4.2365
v  1.9126 5.7317 4.1450
v  1.9490 5.6936 4.2365
v  2.2569 5.6637 -4.6688
v  2.4915 5.5865 -4.6693
v  2.5242 5.5170 -4.6724
v  2.2569 5.6637 4.1450
v  2.3022 5.6238 4.2365
v  2.4816 5.5800 4.2298
v  2.5115 5.5195 4.2819
v  2.5242 5.5170 4.1454
v  2.4915 5.5865 4.1452
v  1.7488 1.1608 -4.8236
v  1.7488 1.0675 -4.8236
v  1.8148 1.0015 -4.8236
v  1.9082 1.0015 -4.8236
v  1.9742 1.0675 -4.8236
v  1.9742 1.1608 -4.8236
v  1.9082 1.2268 -4.8236
v  1.8148 1.2268 -4.8236
v  0.4871 0.1683 4.4169
v  2.5646 0.1683 4.4169
v  2.3109 0.1687 4.1069
v  0.4871 0.1687 4.1069
v  -1.3308 0.1687 4.1069
v  -1.5845 0.1683 4.4169
v  1.9082 0.9468 -5.0279
v  1.9742 0.9457 -5.0939
v  1.9082 0.9654 -5.0270
v  1.9082 0.9955 -5.0088
v  1.9742 1.0514 -5.0438
v  1.9082 1.0015 -4.9952
v  1.9742 0.9954 -5.0859
v  1.9742 0.9441 -5.1873
v  1.9742 1.0377 -5.1690
v  1.9082 0.9429 -5.2532
v  1.8148 1.0677 -5.2279
v  1.9082 1.0677 -5.2279
v  1.9742 1.1307 -5.0932
v  1.9742 1.0675 -4.9952
v  1.9082 1.0015 -4.8929
v  1.9742 1.0675 -4.8929
v  1.9742 1.1608 -4.9952
v  1.9742 1.1608 -4.8929
v  1.9082 1.1867 -5.1281
v  1.9082 1.2268 -4.9952
v  1.8148 1.2268 -4.9952
v  1.9082 1.2268 -4.8929
v  1.8148 1.2268 -4.8929
v  1.7488 1.1608 -4.8929
v  1.7488 1.1608 -4.9952
v  1.7488 1.0675 -4.9952
v  1.7488 1.0675 -4.8929
v  1.8148 1.0015 -4.9952
v  1.8148 1.0015 -4.8929
v  1.8148 1.1867 -5.1281
v  1.7488 1.1307 -5.0932
v  1.7488 1.0514 -5.0438
v  1.8148 0.9955 -5.0088
v  1.7488 0.9954 -5.0859
v  1.8148 0.9654 -5.0270
v  1.7488 1.0377 -5.1690
v  1.8148 0.9468 -5.0279
v  1.7488 0.9457 -5.0939
v  1.7488 0.9441 -5.1873
v  1.8148 0.9429 -5.2532
v  -1.5852 0.0594 4.4177
v  0.4871 0.0594 4.4177
v  2.5653 0.0594 4.4177
v  -1.4847 1.3464 -1.2233
v  -1.6233 0.1386 -1.2233
v  -1.4847 1.3464 -1.0781
v  -1.6233 0.1386 -1.0781
v  -1.4847 1.3464 -4.4771
v  -1.6233 0.1386 -4.4771
v  -1.3725 1.3464 -4.4771
v  -1.3725 0.1386 -4.4771
v  -1.3731 1.3464 -4.4771
v  -1.3738 0.1386 -4.4771
v  0.4871 1.3692 4.1068
v  -1.3308 1.3692 4.1068
v  2.3108 1.3692 4.1068
v  2.2113 1.3464 -4.6130
v  2.2113 0.1386 -4.6137
v  2.2113 1.3464 -4.7246
v  2.2113 0.1386 -4.8632
v  2.0661 1.3464 -4.7246
v  2.0661 0.1386 -4.8632
v  2.0661 1.3464 -4.6130
v  2.0661 0.1386 -4.6137
v  -1.4913 5.1678 3.5551
v  -1.5441 5.1678 3.5549
v  -1.4913 4.9764 3.5551
v  -1.5969 4.9764 3.5551
v  -1.6255 0.0594 4.4080
v  -1.6240 0.1683 4.4118
v  -1.3654 0.1687 4.1022
v  -1.3653 1.3692 4.1021
v  2.3580 0.1687 -4.5939
v  2.6183 0.1683 -4.8970
v  2.3470 0.1687 -4.6236
v  2.6056 0.1683 -4.9332
v  2.3469 1.3692 -4.6234
v  2.3579 1.3692 -4.5938
v  2.3580 0.1687 4.0695
v  2.3579 1.3692 4.0694
v  2.6189 0.0594 4.3787
v  2.6189 0.0594 -4.8978
v  2.6183 0.1683 4.3779
v  2.6055 0.0594 4.4080
v  2.6049 0.1683 4.4072
v  2.3462 0.1687 4.0976
v  2.3462 1.3692 4.0975
v  2.6071 0.0594 -4.9294
v  2.5668 0.0594 -4.9391
v  2.5662 0.1683 -4.9383
v  2.3125 0.1687 -4.6283
v  2.3124 1.3692 -4.6282
v  1.7161 1.1744 -4.8236
v  1.7161 1.0539 -4.8236
v  1.9217 0.9688 -4.8236
v  1.9217 0.9688 -4.8929
v  2.0069 1.0539 -4.8236
v  2.0069 1.0539 -4.8929
v  2.0068 1.1744 -4.8929
v  2.0068 1.1744 -4.8236
v  1.8013 0.9688 -4.8236
v  1.8013 0.9688 -4.8929
v  1.7161 1.0539 -4.8929
v  1.7161 1.1744 -4.8929
v  1.8013 1.2595 -4.8236
v  1.8013 1.2595 -4.8929
v  1.9217 1.2595 -4.8236
v  1.9217 1.2595 -4.8929
v  -1.3864 0.9306 -0.1423
v  -1.3864 0.7920 -0.1423
v  -1.3864 0.9735 -0.5648
v  -1.3864 0.8547 -0.6412
v  -1.3864 0.6666 -0.6412
v  -1.3501 0.8547 -0.6412
v  -1.3501 0.6666 -0.6412
v  -1.3501 0.9735 -0.5648
v  -1.3501 0.7920 -0.1423
v  -1.3501 0.9306 -0.1423
v  -1.5746 1.3735 -4.6568
v  -1.5697 1.4652 -4.6568
v  -1.4953 1.5180 -4.6566
v  -1.4954 5.1777 -4.6566
v  -1.4827 1.5180 -4.7461
v  -1.4828 5.1777 -4.7462
v  -1.5299 5.1777 -4.6568
v  -1.5299 5.1777 4.1610
v  -1.5567 1.4652 -4.8206
v  2.5114 5.1777 -4.7980
v  2.5114 5.1777 4.2818
v  2.5689 1.3735 4.1455
v  2.5639 1.4652 4.1455
v  2.4895 1.5180 4.1453
v  2.4896 5.1777 4.1453
v  2.4770 1.5180 4.2347
v  2.4771 5.1777 4.2349
v  0.4964 1.4652 4.3189
v  2.4927 1.4652 4.3189
v  2.5242 5.1777 4.1454
v  2.5242 5.1777 -4.6724
v  2.5509 1.4652 4.3092
v  -1.4847 1.3464 0.6775
v  -1.6233 0.1386 0.6775
v  -1.4847 1.3464 0.8227
v  -1.6233 0.1386 0.8227
v  -1.5616 1.3735 -4.8256
v  -1.3725 1.3464 -1.2233
v  -1.3725 0.1386 -1.2233
v  -1.3731 1.3464 -1.2233
v  -1.3738 0.1386 -1.2233
v  0.4964 1.3735 4.3239
v  2.4957 1.3735 4.3239
v  2.5559 1.3735 4.3142
v  -1.3738 0.1386 -1.0781
v  -1.3725 0.1386 -1.0781
v  -1.3725 1.3464 -1.0781
v  -1.3731 1.3464 -1.0781
v  1.8148 0.0076 -5.0279
v  1.9082 0.0076 -5.0279
v  1.7488 0.0076 -5.0939
v  1.7488 0.0076 -5.1873
v  1.8148 0.0076 -5.2532
v  1.9082 0.0076 -5.2532
v  1.9742 0.0076 -5.1873
v  1.9742 0.0076 -5.0939
v  -1.3738 0.1386 0.6775
v  -1.3731 1.3464 0.6775
v  -1.3725 0.1386 0.6775
v  -1.3725 1.3464 0.6775
v  -1.3738 0.1386 0.8227
v  -1.3725 0.1386 0.8227
v  -1.3725 1.3464 0.8227
v  -1.3731 1.3464 0.8227
v  0.4945 1.3692 -4.6282
v  0.4945 0.1687 -4.6283
v  0.4945 0.1683 -4.9383
v  0.4945 0.0594 -4.9391
# 384 vertices

vn -0.0648 0.3474 -0.9355
vn -0.0737 -0.6842 -0.7256
vn -0.0944 0.3517 -0.9314
vn -0.0534 0.3523 -0.9344
vn -0.0030 -0.7059 -0.7083
vn 0.0000 0.4598 0.8880
vn 0.1225 0.4933 0.8612
vn 0.1031 -0.7435 0.6607
vn 0.0000 -0.7071 0.7071
vn -0.1031 -0.7435 0.6607
vn -0.1225 0.4933 0.8612
vn -0.6527 0.7486 0.1169
vn -0.9843 0.0001 0.1764
vn -0.6441 0.7539 -0.1296
vn -0.9803 0.0001 -0.1975
vn -0.9769 0.0070 -0.2136
vn -0.9839 0.0066 0.1783
vn -0.7304 0.6644 -0.1585
vn -0.7296 0.6722 0.1256
vn -0.9094 0.0081 -0.4159
vn -0.4970 0.6238 -0.6032
vn -0.0857 0.6840 -0.7244
vn -0.1182 0.0079 -0.9930
vn -0.2340 0.0084 -0.9722
vn -0.3745 0.8210 -0.4310
vn -0.0868 0.7368 -0.6705
vn -0.2548 0.0001 -0.9670
vn -0.6559 0.0001 -0.7548
vn 0.0302 0.3503 0.9362
vn 0.0030 -0.7085 0.7057
vn 0.0519 0.3489 0.9357
vn 0.0060 0.3536 0.9354
vn 0.0513 0.2596 0.9644
vn 0.0735 -0.6840 0.7258
vn 0.0943 0.3521 0.9312
vn 0.3830 -0.9238 -0.0000
vn 0.2973 -0.7172 -0.6302
vn 0.9240 -0.3824 -0.0000
vn 0.7173 -0.2969 -0.6303
vn -0.9240 0.3824 -0.0000
vn -0.7173 0.2969 -0.6303
vn -0.9240 -0.3824 -0.0000
vn -0.7173 -0.2969 -0.6303
vn 0.9240 0.3824 -0.0000
vn 0.7173 0.2969 -0.6303
vn -0.3830 0.9238 -0.0000
vn 0.3830 0.9238 -0.0000
vn -0.2973 0.7172 -0.6302
vn 0.2973 0.7172 -0.6302
vn -0.3830 -0.9238 -0.0000
vn -0.2973 -0.7172 -0.6302
vn -0.2275 -0.5491 -0.8042
vn 0.2275 -0.5491 -0.8042
vn -0.5491 0.2275 -0.8042
vn -0.5491 -0.2275 -0.8042
vn 0.5491 -0.2275 -0.8042
vn 0.5491 0.2275 -0.8042
vn 0.2275 0.5491 -0.8042
vn -0.2275 0.5491 -0.8042
vn 0.0000 0.4835 -0.8753
vn -0.0798 0.4928 -0.8665
vn -0.1225 0.4930 -0.8614
vn -0.0001 0.4594 -0.8882
vn 0.1379 0.4973 -0.8566
vn 0.0886 0.4934 -0.8653
vn 0.0000 -0.8671 -0.4982
vn 0.0000 -0.9780 0.2085
vn -0.6208 -0.6798 -0.3905
vn -0.6499 -0.7433 0.1584
vn 0.0000 0.9387 0.3447
vn 0.0000 0.9999 -0.0140
vn -0.6546 0.7096 0.2606
vn -0.6829 0.7305 -0.0103
vn 0.0000 -0.6974 0.7167
vn -0.6446 -0.5332 0.5479
vn -0.0002 -0.7073 -0.7069
vn 0.1221 -0.7513 -0.6486
vn -0.1035 -0.7436 -0.6606
vn 0.7354 0.0768 -0.6733
vn 0.0904 0.0584 -0.9942
vn 0.6467 0.4822 -0.5910
vn 0.6264 0.5984 -0.4995
vn 0.4251 -0.8366 -0.3457
vn -0.0521 0.3576 0.9324
vn -0.0967 -0.6770 0.7296
vn -0.0671 0.3595 0.9307
vn -0.1022 0.3640 0.9258
vn 0.0000 0.0544 -0.9985
vn -0.0813 0.0580 -0.9950
vn -0.0255 0.3580 0.9334
vn 0.0000 0.0000 1.0000
vn -0.6774 0.0777 0.7315
vn -0.7285 0.0836 0.6799
vn -0.0061 0.3634 -0.9316
vn -0.0360 0.3547 -0.9343
vn 1.0000 0.0000 -0.0000
vn 0.6799 0.0836 -0.7285
vn 0.7315 0.0777 -0.6774
vn -1.0000 0.0000 -0.0000
vn -0.7315 0.0777 -0.6774
vn -0.6799 0.0836 -0.7285
vn 0.0000 0.0000 -1.0000
vn -0.7285 0.0836 -0.6799
vn -0.6774 0.0777 -0.7315
vn -0.0042 0.8193 -0.5733
vn -0.0730 0.8199 -0.5679
vn 0.0691 0.8182 -0.5707
vn 0.0312 0.3624 -0.9315
vn 0.1198 0.8179 -0.5627
vn 0.0536 0.3609 -0.9311
vn 0.1513 0.8179 -0.5551
vn 0.0670 0.3594 -0.9308
vn 0.2138 0.8253 -0.5226
vn 0.1023 0.3637 -0.9259
vn 0.5200 0.7794 -0.3496
vn 0.6648 0.3200 -0.6750
vn -0.0652 0.8174 0.5723
vn 0.0040 0.8202 0.5721
vn -0.0785 0.9788 0.1893
vn 0.0021 0.9845 0.1751
vn 0.0800 0.9814 0.1744
vn 0.0691 0.8192 0.5693
vn 0.1763 0.9685 -0.1758
vn 0.1386 0.9734 -0.1822
vn 0.0797 0.9789 -0.1883
vn -0.0025 0.9814 -0.1920
vn -0.0812 0.9814 -0.1737
vn -0.1386 0.9734 0.1825
vn -0.1198 0.8178 0.5629
vn -0.1391 0.9758 -0.1686
vn -0.1768 0.9707 -0.1626
vn -0.1197 0.8185 -0.5619
vn -0.1513 0.8182 -0.5547
vn -0.2416 0.9591 -0.1474
vn -0.2115 0.8255 -0.5233
vn -0.6545 0.7522 -0.0765
vn -0.5186 0.7788 -0.3529
vn -0.9734 0.2233 -0.0512
vn -0.6630 0.3134 -0.6798
vn -0.6535 0.7523 0.0838
vn -0.9726 0.2254 0.0564
vn -0.6648 0.3201 0.6749
vn -0.5198 0.7796 0.3493
vn -0.2138 0.8252 0.5228
vn -0.2405 0.9573 0.1605
vn -0.1763 0.9685 0.1760
vn -0.1514 0.8178 0.5552
vn -0.8754 0.4817 0.0397
vn -0.9977 0.0543 0.0395
vn -0.6446 0.4812 0.5941
vn -0.7327 0.0768 0.6762
vn -0.8812 0.4679 0.0675
vn -0.6158 0.6058 0.5037
vn -0.6873 -0.7245 0.0519
vn -0.4046 -0.8469 0.3450
vn -0.0821 0.0581 0.9949
vn -0.0805 0.4929 0.8663
vn 0.0974 -0.6770 -0.7295
vn 0.8750 0.4822 -0.0436
vn 0.9975 0.0552 -0.0435
vn 0.8801 0.4688 -0.0748
vn 0.6849 -0.7264 -0.0574
vn -0.6108 -0.5993 0.5175
vn -0.5987 -0.5947 -0.5366
vn 0.1391 0.9758 0.1686
vn 0.1197 0.8185 0.5618
vn 0.1768 0.9707 0.1626
vn 0.1642 0.8683 0.4681
vn 0.2405 0.9574 -0.1600
vn 0.6541 0.7517 -0.0842
vn 0.9727 0.2251 -0.0566
vn 0.2416 0.9590 0.1479
vn 0.2112 0.8255 0.5234
vn 0.5183 0.7787 0.3534
vn 0.6631 0.3133 0.6798
vn 0.9735 0.2229 0.0514
vn 0.6550 0.7517 0.0770
vn 0.1100 0.6458 0.7556
vn -0.5491 0.2275 0.8042
vn -0.5491 -0.2275 0.8042
vn -0.2275 -0.5491 0.8042
vn 0.2275 -0.5491 0.8042
vn 0.5491 -0.2275 0.8042
vn 0.5491 0.2275 0.8042
vn 0.2275 0.5491 0.8042
vn -0.2275 0.5491 0.8042
vn 0.0000 0.7092 0.7050
vn 0.0857 0.6841 0.7244
vn 0.0868 0.7368 0.6705
vn 0.0000 0.7067 0.7075
vn -0.0466 0.7222 0.6901
vn -0.0460 0.6953 0.7172
vn 0.3846 -0.0225 0.9228
vn 0.9292 -0.0258 0.3687
vn 0.4105 -0.2657 0.8723
vn 0.4174 -0.6825 0.5999
vn 0.9478 -0.2596 0.1853
vn 0.4034 -0.8951 0.1900
vn 0.9422 -0.1300 0.3087
vn 0.9146 0.0411 -0.4023
vn 0.9026 0.1821 -0.3900
vn 0.3721 0.0902 -0.9238
vn -0.3621 0.4041 -0.8400
vn 0.3621 0.4041 -0.8400
vn 0.8984 0.3644 -0.2452
vn 0.9364 -0.3470 0.0523
vn 0.9097 0.4102 -0.0654
vn 0.3595 0.7793 -0.5132
vn 0.3686 0.9201 -0.1325
vn -0.3686 0.9201 -0.1325
vn -0.9097 0.4102 -0.0654
vn -0.9364 -0.3470 0.0523
vn -0.4034 -0.8951 0.1900
vn -0.3595 0.7793 -0.5132
vn -0.8984 0.3644 -0.2452
vn -0.9478 -0.2596 0.1853
vn -0.4174 -0.6825 0.5999
vn -0.9422 -0.1300 0.3087
vn -0.4105 -0.2657 0.8723
vn -0.9026 0.1821 -0.3900
vn -0.3846 -0.0225 0.9228
vn -0.9292 -0.0258 0.3687
vn -0.9146 0.0411 -0.4023
vn -0.3721 0.0902 -0.9238
vn -0.1063 -0.0075 0.9943
vn 0.0000 0.0073 1.0000
vn 0.1184 0.0080 0.9929
vn 0.0000 0.0001 1.0000
vn -0.0677 0.0001 0.9977
vn 0.1281 0.0001 0.9918
vn -0.0038 0.0000 1.0000
vn -0.0027 0.0003 1.0000
vn -0.0006 0.0009 1.0000
vn 0.0000 0.0010 1.0000
vn -0.6720 -0.0135 0.7405
vn -0.5019 0.6052 0.6179
vn -0.3366 0.8427 0.4201
vn -0.6255 0.0001 0.7802
vn 0.6527 0.7486 -0.1169
vn 0.7296 0.6723 -0.1252
vn 0.3368 0.8427 -0.4201
vn 0.5022 0.6052 -0.6177
vn 0.6261 0.0001 -0.7797
vn 0.9842 0.0001 -0.1769
vn 0.6441 0.7539 0.1296
vn 0.9806 0.0001 0.1960
vn 0.9769 0.0070 0.2136
vn 0.9839 0.0067 -0.1784
vn 0.7304 0.6644 0.1585
vn 0.6359 0.0092 0.7717
vn 0.4970 0.6238 0.6032
vn 0.3745 0.8210 0.4310
vn 0.6568 0.0001 0.7540
vn 0.6720 -0.0134 -0.7404
vn 0.1063 -0.0075 -0.9943
vn 0.0461 0.6953 -0.7173
vn 0.0468 0.7222 -0.6900
vn 0.0691 0.0001 -0.9976
vn -0.7172 0.2973 0.6302
vn -0.7172 -0.2973 0.6302
vn 0.2969 -0.7173 0.6303
vn 0.2969 -0.7173 -0.6303
vn 0.7174 -0.2971 0.6301
vn 0.7174 -0.2971 -0.6301
vn 0.7171 0.2974 -0.6303
vn 0.7171 0.2974 0.6303
vn -0.2969 -0.7173 0.6303
vn -0.2969 -0.7173 -0.6303
vn -0.7172 -0.2973 -0.6302
vn -0.7172 0.2973 -0.6302
vn -0.2969 0.7173 0.6303
vn -0.2969 0.7173 -0.6303
vn 0.2971 0.7173 0.6303
vn 0.2971 0.7173 -0.6303
vn -0.6161 0.3653 0.6978
vn -0.6590 -0.1725 0.7321
vn -0.6231 0.6616 -0.4171
vn -0.6488 0.2145 -0.7301
vn -0.6464 -0.2247 -0.7291
vn 0.0000 0.2819 -0.9594
vn 0.0000 -0.2945 -0.9557
vn 0.0000 0.8459 -0.5333
vn 0.0000 -0.2293 0.9734
vn 0.0000 0.4638 0.8859
vn -0.9978 0.0540 -0.0391
vn -0.8757 0.4813 -0.0389
vn -0.8821 0.4669 -0.0626
vn -0.6890 -0.7232 -0.0482
vn -0.6173 0.6078 -0.4995
vn -0.4051 -0.8482 -0.3412
vn -0.7164 -0.6969 -0.0333
vn -0.7171 -0.6961 0.0361
vn -0.6446 0.4809 -0.5943
vn 0.6108 -0.5994 -0.5174
vn 0.5986 -0.5946 0.5367
vn 0.9977 0.0551 0.0391
vn 0.8755 0.4817 0.0389
vn 0.8821 0.4669 0.0622
vn 0.6891 -0.7230 0.0478
vn 0.6176 0.6079 0.4990
vn 0.4048 -0.8485 0.3409
vn 0.0000 0.4838 0.8752
vn 0.0805 0.4929 0.8663
vn 0.7165 -0.6967 0.0335
vn 0.7173 -0.6959 -0.0365
vn 0.6448 0.4812 0.5939
vn -0.7322 0.0760 -0.6768
vn 0.0000 0.0544 0.9985
vn 0.0821 0.0581 0.9949
vn 0.7328 0.0768 0.6761
vn -0.3827 0.0000 0.9239
vn 0.3827 0.0000 0.9239
vn -0.9239 0.0000 0.3827
vn -0.9237 0.0000 -0.3830
vn -0.3823 0.0000 -0.9240
vn 0.3823 0.0000 -0.9240
vn 0.9237 0.0000 -0.3830
vn 0.9239 0.0000 0.3827
vn 0.0000 0.0001 -1.0000
vn 0.0000 0.7067 -0.7075
vn 0.0000 0.7092 -0.7050
vn 0.0000 0.0073 -1.0000
# 322 vertex normals

vt 0.7562 0.4290 0.0000
vt 0.7851 0.3966 0.0000
vt 0.7607 0.4061 0.0000
vt 0.7510 0.4591 0.0000
vt 0.7849 0.5232 0.0000
vt 0.8659 0.1235 0.0000
vt 0.7387 0.1231 0.0000
vt 0.7386 0.3629 0.0000
vt 0.8658 0.3628 0.0000
vt 0.9933 0.3629 0.0000
vt 0.9932 0.1231 0.0000
vt 0.1608 0.0281 0.0000
vt 0.1607 0.1049 0.0000
vt 0.7146 0.0278 0.0000
vt 0.7149 0.1047 0.0000
vt 0.7312 0.0024 0.0000
vt 0.1410 0.0039 0.0000
vt 0.7286 0.0145 0.0000
vt 0.1410 0.0115 0.0000
vt 0.7277 0.0024 0.0000
vt 0.7251 0.0145 0.0000
vt 0.7071 0.0073 0.0000
vt 0.7071 0.0009 0.0000
vt 0.7044 0.0080 0.0000
vt 0.7042 0.0009 0.0000
vt 0.7241 0.0153 0.0000
vt 0.7169 0.0279 0.0000
vt 0.7193 0.0279 0.0000
vt 0.7191 0.1047 0.0000
vt 0.7168 0.1047 0.0000
vt 0.1379 0.5570 0.0000
vt 0.1000 0.5244 0.0000
vt 0.1343 0.5884 0.0000
vt 0.1393 0.5243 0.0000
vt 0.1293 0.6186 0.0000
vt 0.1006 0.6511 0.0000
vt 0.1249 0.6415 0.0000
vt 0.0728 0.7610 0.0000
vt 0.0696 0.7641 0.0000
vt 0.0819 0.7702 0.0000
vt 0.0788 0.7733 0.0000
vt 0.0431 0.7863 0.0000
vt 0.0475 0.7863 0.0000
vt 0.0431 0.7733 0.0000
vt 0.0475 0.7733 0.0000
vt 0.0832 0.7733 0.0000
vt 0.0832 0.7863 0.0000
vt 0.0788 0.7863 0.0000
vt 0.0567 0.7999 0.0000
vt 0.0696 0.7999 0.0000
vt 0.0567 0.7955 0.0000
vt 0.0696 0.7955 0.0000
vt 0.0444 0.7702 0.0000
vt 0.0535 0.7610 0.0000
vt 0.0567 0.7641 0.0000
vt 0.0567 0.7597 0.0000
vt 0.0696 0.7597 0.0000
vt 0.0444 0.7894 0.0000
vt 0.0535 0.7986 0.0000
vt 0.0581 0.7676 0.0000
vt 0.0682 0.7676 0.0000
vt 0.0510 0.7849 0.0000
vt 0.0510 0.7748 0.0000
vt 0.0753 0.7748 0.0000
vt 0.0753 0.7849 0.0000
vt 0.0682 0.7920 0.0000
vt 0.0581 0.7920 0.0000
vt 0.8660 0.1175 0.0000
vt 0.7361 0.1171 0.0000
vt 0.9958 0.1171 0.0000
vt 0.2931 0.8151 0.0000
vt 0.2668 0.8144 0.0000
vt 0.2930 0.8201 0.0000
vt 0.2678 0.8190 0.0000
vt 0.2450 0.8827 0.0000
vt 0.2692 0.8850 0.0000
vt 0.2462 0.8779 0.0000
vt 0.2691 0.8800 0.0000
vt 0.2455 0.8247 0.0000
vt 0.2477 0.8293 0.0000
vt 0.8661 0.3628 0.0000
vt 0.8660 0.1235 0.0000
vt 0.9976 0.1128 0.0000
vt 0.9959 0.1113 0.0000
vt 0.9980 0.1163 0.0000
vt 0.9953 0.1231 0.0000
vt 0.9954 0.3629 0.0000
vt 0.1338 0.4603 0.0000
vt 0.0997 0.3979 0.0000
vt 0.1286 0.4302 0.0000
vt 0.1240 0.4073 0.0000
vt 0.8660 0.1116 0.0000
vt 0.7360 0.1113 0.0000
vt 0.1377 0.4917 0.0000
vt 0.0663 0.8093 0.0000
vt 0.0751 0.8891 0.0000
vt 0.0823 0.8882 0.0000
vt 0.0823 0.8074 0.0000
vt 0.7456 0.5231 0.0000
vt 0.7471 0.4905 0.0000
vt 0.1582 0.8093 0.0000
vt 0.1423 0.8074 0.0000
vt 0.1423 0.8882 0.0000
vt 0.1494 0.8891 0.0000
vt 0.1583 0.8093 0.0000
vt 0.1170 0.8093 0.0000
vt 0.1169 0.8093 0.0000
vt 0.1257 0.8891 0.0000
vt 0.1258 0.8891 0.0000
vt 0.1329 0.8882 0.0000
vt 0.1329 0.8074 0.0000
vt 0.0550 0.9065 0.0000
vt 0.0390 0.9046 0.0000
vt 0.0390 0.9854 0.0000
vt 0.0461 0.9863 0.0000
vt 0.0551 0.9065 0.0000
vt 0.0137 0.9065 0.0000
vt 0.0136 0.9065 0.0000
vt 0.0224 0.9863 0.0000
vt 0.0225 0.9863 0.0000
vt 0.0296 0.9854 0.0000
vt 0.0297 0.9046 0.0000
vt 0.7400 0.5230 0.0000
vt 0.7417 0.4907 0.0000
vt 0.7414 0.5555 0.0000
vt 0.7470 0.5557 0.0000
vt 0.7450 0.5867 0.0000
vt 0.7506 0.5872 0.0000
vt 0.7500 0.6166 0.0000
vt 0.7556 0.6173 0.0000
vt 0.7544 0.6394 0.0000
vt 0.7601 0.6402 0.0000
vt 0.7570 0.6511 0.0000
vt 0.7624 0.6525 0.0000
vt 0.1469 0.4923 0.0000
vt 0.1469 0.5251 0.0000
vt 0.1528 0.4933 0.0000
vt 0.1529 0.5251 0.0000
vt 0.1529 0.5570 0.0000
vt 0.1465 0.5580 0.0000
vt 0.7377 0.6208 0.0000
vt 0.7377 0.5898 0.0000
vt 0.7318 0.6180 0.0000
vt 0.7318 0.5879 0.0000
vt 0.7377 0.5576 0.0000
vt 0.7318 0.5566 0.0000
vt 0.7307 0.5247 0.0000
vt 0.7307 0.4929 0.0000
vt 0.1528 0.4621 0.0000
vt 0.1469 0.4602 0.0000
vt 0.7306 0.4618 0.0000
vt 0.7306 0.4317 0.0000
vt 0.7371 0.5247 0.0000
vt 0.7371 0.4919 0.0000
vt 0.7370 0.4598 0.0000
vt 0.7370 0.4288 0.0000
vt 0.7306 0.4086 0.0000
vt 0.7369 0.4051 0.0000
vt 0.7306 0.3925 0.0000
vt 0.7363 0.3922 0.0000
vt 0.7306 0.3874 0.0000
vt 0.7396 0.3876 0.0000
vt 0.1527 0.3929 0.0000
vt 0.1525 0.3878 0.0000
vt 0.1443 0.3880 0.0000
vt 0.1477 0.3927 0.0000
vt 0.1470 0.4055 0.0000
vt 0.1528 0.4090 0.0000
vt 0.1528 0.4320 0.0000
vt 0.1469 0.4292 0.0000
vt 0.1447 0.5243 0.0000
vt 0.1432 0.4919 0.0000
vt 0.1523 0.1174 0.0000
vt 0.1523 0.1114 0.0000
vt 0.1430 0.1177 0.0000
vt 0.1424 0.1118 0.0000
vt 0.1524 0.1234 0.0000
vt 0.1475 0.1235 0.0000
vt 0.1526 0.3633 0.0000
vt 0.1477 0.3633 0.0000
vt 0.7844 0.6498 0.0000
vt 0.1433 0.5567 0.0000
vt 0.1297 0.4082 0.0000
vt 0.1271 0.3965 0.0000
vt 0.1216 0.3950 0.0000
vt 0.0997 0.3950 0.0000
vt 0.7631 0.3938 0.0000
vt 0.7851 0.3938 0.0000
vt 0.7552 0.4069 0.0000
vt 0.7578 0.3953 0.0000
vt 0.7506 0.4297 0.0000
vt 0.7455 0.4595 0.0000
vt 0.1529 0.5882 0.0000
vt 0.1465 0.5902 0.0000
vt 0.1529 0.6184 0.0000
vt 0.1466 0.6212 0.0000
vt 0.7318 0.6411 0.0000
vt 0.7376 0.6446 0.0000
vt 0.7319 0.6573 0.0000
vt 0.7369 0.6575 0.0000
vt 0.7321 0.6623 0.0000
vt 0.7404 0.6621 0.0000
vt 0.1529 0.6414 0.0000
vt 0.1467 0.6450 0.0000
vt 0.1472 0.6579 0.0000
vt 0.1439 0.6625 0.0000
vt 0.1529 0.6627 0.0000
vt 0.1529 0.6577 0.0000
vt 0.1305 0.6406 0.0000
vt 0.1348 0.6178 0.0000
vt 0.1398 0.5879 0.0000
vt 0.3678 0.9283 0.0000
vt 0.3678 0.9203 0.0000
vt 0.3523 0.9283 0.0000
vt 0.3523 0.9203 0.0000
vt 0.3678 0.9123 0.0000
vt 0.3523 0.9123 0.0000
vt 0.3678 0.9044 0.0000
vt 0.3523 0.9044 0.0000
vt 0.3678 0.9680 0.0000
vt 0.3678 0.9601 0.0000
vt 0.3523 0.9680 0.0000
vt 0.3523 0.9601 0.0000
vt 0.3523 0.9521 0.0000
vt 0.3678 0.9521 0.0000
vt 0.3523 0.9442 0.0000
vt 0.3678 0.9442 0.0000
vt 0.3523 0.9362 0.0000
vt 0.3678 0.9362 0.0000
vt 0.8389 0.0079 0.0000
vt 0.8355 0.0281 0.0000
vt 0.9558 0.0281 0.0000
vt 0.9755 0.0078 0.0000
vt 0.3225 0.9070 0.0000
vt 0.3169 0.9148 0.0000
vt 0.3241 0.9081 0.0000
vt 0.3275 0.9089 0.0000
vt 0.3282 0.9182 0.0000
vt 0.3291 0.9086 0.0000
vt 0.3214 0.9171 0.0000
vt 0.3112 0.9224 0.0000
vt 0.3193 0.9252 0.0000
vt 0.3077 0.9309 0.0000
vt 0.3181 0.9390 0.0000
vt 0.3183 0.9323 0.0000
vt 0.3288 0.9261 0.0000
vt 0.3331 0.9171 0.0000
vt 0.3386 0.9043 0.0000
vt 0.3426 0.9130 0.0000
vt 0.3370 0.9248 0.0000
vt 0.3463 0.9218 0.0000
vt 0.3291 0.9327 0.0000
vt 0.3392 0.9323 0.0000
vt 0.3389 0.9397 0.0000
vt 0.3488 0.9313 0.0000
vt 0.3480 0.9411 0.0000
vt 0.3452 0.9501 0.0000
vt 0.3364 0.9469 0.0000
vt 0.3324 0.9544 0.0000
vt 0.3414 0.9584 0.0000
vt 0.3282 0.9630 0.0000
vt 0.3378 0.9665 0.0000
vt 0.3262 0.9718 0.0000
vt 0.3351 0.9747 0.0000
vt 0.3289 0.9389 0.0000
vt 0.3284 0.9454 0.0000
vt 0.3275 0.9532 0.0000
vt 0.3266 0.9627 0.0000
vt 0.3250 0.9715 0.0000
vt 0.3221 0.9711 0.0000
vt 0.3209 0.9540 0.0000
vt 0.3230 0.9629 0.0000
vt 0.3190 0.9461 0.0000
vt 0.3205 0.9709 0.0000
vt 0.3214 0.9632 0.0000
vt 0.3166 0.9562 0.0000
vt 0.3109 0.9488 0.0000
vt 0.3072 0.9402 0.0000
vt 0.9602 0.0017 0.0000
vt 0.8323 0.0005 0.0000
vt 0.1929 0.8882 0.0000
vt 0.1929 0.8074 0.0000
vt 0.1836 0.8882 0.0000
vt 0.1836 0.8074 0.0000
vt 0.0916 0.8882 0.0000
vt 0.0917 0.8074 0.0000
vt 0.0988 0.8891 0.0000
vt 0.1077 0.8093 0.0000
vt 0.1076 0.8093 0.0000
vt 0.8354 0.1049 0.0000
vt 0.9557 0.1074 0.0000
vt 0.0967 0.9857 0.0000
vt 0.1055 0.9065 0.0000
vt 0.0896 0.9849 0.0000
vt 0.0896 0.9046 0.0000
vt 0.0802 0.9849 0.0000
vt 0.0802 0.9046 0.0000
vt 0.0731 0.9857 0.0000
vt 0.0642 0.9065 0.0000
vt 0.0330 0.7093 0.0000
vt 0.0330 0.7061 0.0000
vt 0.0217 0.7091 0.0000
vt 0.0217 0.7029 0.0000
vt 0.9707 0.0020 0.0000
vt 0.9658 0.0017 0.0000
vt 0.9630 0.0017 0.0000
vt 0.9780 0.0085 0.0000
vt 0.9582 0.0281 0.0000
vt 0.9581 0.1074 0.0000
vt 0.1585 0.0287 0.0000
vt 0.1387 0.0122 0.0000
vt 0.1584 0.1048 0.0000
vt 0.1584 0.0281 0.0000
vt 0.7163 0.0286 0.0000
vt 0.0728 0.7986 0.0000
vt 0.0819 0.7894 0.0000
vt 0.0573 0.7437 0.0000
vt 0.0573 0.7307 0.0000
vt 0.0538 0.7422 0.0000
vt 0.0538 0.7322 0.0000
vt 0.0922 0.7163 0.0000
vt 0.0869 0.7215 0.0000
vt 0.1014 0.7254 0.0000
vt 0.0961 0.7307 0.0000
vt 0.0961 0.7437 0.0000
vt 0.1035 0.7307 0.0000
vt 0.1035 0.7437 0.0000
vt 0.0739 0.7141 0.0000
vt 0.0739 0.7215 0.0000
vt 0.0869 0.7141 0.0000
vt 0.0595 0.7254 0.0000
vt 0.0648 0.7307 0.0000
vt 0.0687 0.7163 0.0000
vt 0.0648 0.7437 0.0000
vt 0.0595 0.7490 0.0000
vt 0.0687 0.7581 0.0000
vt 0.0739 0.7529 0.0000
vt 0.0739 0.7603 0.0000
vt 0.0869 0.7603 0.0000
vt 0.0869 0.7529 0.0000
vt 0.0922 0.7581 0.0000
vt 0.1014 0.7490 0.0000
vt 0.0854 0.7251 0.0000
vt 0.0926 0.7322 0.0000
vt 0.0926 0.7422 0.0000
vt 0.0260 0.7307 0.0000
vt 0.0260 0.7437 0.0000
vt 0.0295 0.7322 0.0000
vt 0.0295 0.7422 0.0000
vt 0.0683 0.7422 0.0000
vt 0.0754 0.7493 0.0000
vt 0.0481 0.7215 0.0000
vt 0.0467 0.7251 0.0000
vt 0.0854 0.7493 0.0000
vt 0.0683 0.7322 0.0000
vt 0.0754 0.7251 0.0000
vt 0.0351 0.7215 0.0000
vt 0.0366 0.7251 0.0000
vt 0.0481 0.7529 0.0000
vt 0.0467 0.7493 0.0000
vt 0.0351 0.7529 0.0000
vt 0.0366 0.7493 0.0000
vt 0.2359 0.8716 0.0000
vt 0.2365 0.8526 0.0000
vt 0.2941 0.8767 0.0000
vt 0.3037 0.8602 0.0000
vt 0.3031 0.8353 0.0000
vt 0.3083 0.8611 0.0000
vt 0.3078 0.8341 0.0000
vt 0.2990 0.8792 0.0000
vt 0.2318 0.8513 0.0000
vt 0.2304 0.8713 0.0000
vt 0.2975 0.8174 0.0000
vt 0.2333 0.8765 0.0000
vt 0.2432 0.8272 0.0000
vt 0.2947 0.8817 0.0000
vt 0.7305 0.1111 0.0000
vt 0.7305 0.1171 0.0000
vt 0.7305 0.1231 0.0000
vt 0.7306 0.3629 0.0000
vt 0.7366 0.1231 0.0000
vt 0.7365 0.3629 0.0000
vt 0.7306 0.3652 0.0000
vt 0.7392 0.3654 0.0000
vt 0.1525 0.3656 0.0000
vt 0.1447 0.3658 0.0000
vt 0.7396 0.3652 0.0000
vt 0.1442 0.3656 0.0000
vt 0.7339 0.1163 0.0000
vt 0.7409 0.1170 0.0000
vt 0.1343 0.4309 0.0000
vt 0.1394 0.4607 0.0000
vt 0.7844 0.6527 0.0000
vt 0.1226 0.6538 0.0000
vt 0.1006 0.6540 0.0000
vt 0.1279 0.6523 0.0000
vt 0.1439 0.6850 0.0000
vt 0.1529 0.6850 0.0000
vt 0.7321 0.6846 0.0000
vt 0.7404 0.6846 0.0000
vt 0.0410 0.8882 0.0000
vt 0.0410 0.8074 0.0000
vt 0.0317 0.8882 0.0000
vt 0.0317 0.8074 0.0000
vt 0.7343 0.1128 0.0000
vt 0.2001 0.8891 0.0000
vt 0.2089 0.8093 0.0000
vt 0.2000 0.8891 0.0000
vt 0.0989 0.3951 0.0000
vt 0.0956 0.3973 0.0000
vt 0.0962 0.3992 0.0000
vt 0.0970 0.5244 0.0000
vt 0.0976 0.6498 0.0000
vt 0.0970 0.6517 0.0000
vt 0.1000 0.6539 0.0000
vt 0.1676 0.8093 0.0000
vt 0.1675 0.8093 0.0000
vt 0.1764 0.8891 0.0000
vt 0.1443 0.6848 0.0000
vt 0.1470 0.6873 0.0000
vt 0.1529 0.6873 0.0000
vt 0.7320 0.6869 0.0000
vt 0.7370 0.6869 0.0000
vt 0.7399 0.6843 0.0000
vt 0.2241 0.9647 0.0000
vt 0.2241 0.9728 0.0000
vt 0.3058 0.9728 0.0000
vt 0.3058 0.9647 0.0000
vt 0.3057 0.9566 0.0000
vt 0.2241 0.9566 0.0000
vt 0.3055 0.9485 0.0000
vt 0.2241 0.9485 0.0000
vt 0.3054 0.9404 0.0000
vt 0.2241 0.9404 0.0000
vt 0.3054 0.9322 0.0000
vt 0.2241 0.9322 0.0000
vt 0.2241 0.9241 0.0000
vt 0.3055 0.9241 0.0000
vt 0.2241 0.9160 0.0000
vt 0.3057 0.9160 0.0000
vt 0.2241 0.9079 0.0000
vt 0.3058 0.9079 0.0000
vt 0.0570 0.8093 0.0000
vt 0.0482 0.8891 0.0000
vt 0.0571 0.8093 0.0000
vt 0.0157 0.8093 0.0000
vt 0.0156 0.8093 0.0000
vt 0.0245 0.8891 0.0000
vt 0.0246 0.8891 0.0000
vt 0.7852 0.6526 0.0000
vt 0.7885 0.6504 0.0000
vt 0.7878 0.6485 0.0000
vt 0.7882 0.5232 0.0000
vt 0.7881 0.3979 0.0000
vt 0.7887 0.3960 0.0000
vt 0.7857 0.3938 0.0000
# 456 texture coords

g Mesh_806
usemtl Tex_0082_0_dds
s 1
f 1/1/1 2/2/2 3/3/3 
s 2
f 1/1/1 4/4/4 2/2/2 
s 3
f 4/4/4 5/5/5 2/2/2 
s 4
f 6/6/6 7/7/7 8/8/8 
s 5
f 9/9/9 6/6/6 8/8/8 
s 6
f 9/9/9 10/10/10 6/6/6 
s 7
f 10/10/10 11/11/11 6/6/6 
s 8
f 12/12/12 13/13/13 14/14/14 
s 9
f 13/13/13 15/15/15 14/14/14 
s 10
f 16/16/16 17/17/17 18/18/18 
s 11
f 17/17/17 19/19/19 18/18/18 
s 12
f 18/18/18 19/19/19 14/14/14 
s 13
f 19/19/19 12/12/12 14/14/14 
s 14
f 20/20/20 16/16/16 21/21/21 
s 15
f 16/16/16 18/18/18 21/21/21 
s 16
f 22/22/22 23/23/23 21/24/21 
s 17
f 23/23/23 20/25/24 21/24/21 
s 18
f 21/26/21 18/18/18 24/27/25 
s 19
f 18/18/18 14/14/14 24/27/25 
s 20
f 21/24/21 24/27/25 22/22/22 
s 21
f 24/27/25 25/28/26 22/22/22 
s 22
f 26/29/27 25/28/26 27/30/28 
s 23
f 25/28/26 24/27/25 27/30/28 
s 24
f 27/30/28 24/27/25 15/15/15 
s 25
f 24/27/25 14/14/14 15/15/15 
s 26
f 28/31/29 29/32/30 30/33/31 
s 27
f 31/34/32 29/32/30 28/31/29 
s 28
f 32/35/33 33/36/34 34/37/35 
s 29
f 32/35/33 30/33/31 33/36/34 
s 30
f 30/33/31 29/32/30 33/36/34 
s 31
f 35/38/36 36/39/37 37/40/38 
s 32
f 36/39/37 38/41/39 37/40/38 
s 33
f 39/42/40 40/43/41 41/44/42 
s 34
f 40/43/41 42/45/43 41/44/42 
s 35
f 37/46/38 38/41/39 43/47/44 
s 36
f 38/41/39 44/48/45 43/47/44 
s 37
f 45/49/46 46/50/47 47/51/48 
s 38
f 46/50/47 48/52/49 47/51/48 
s 39
f 41/53/42 42/45/43 49/54/50 
s 40
f 42/45/43 50/55/51 49/54/50 
s 41
f 49/56/50 50/55/51 35/57/36 
s 42
f 50/55/51 36/39/37 35/57/36 
s 43
f 39/58/40 45/59/46 40/43/41 
s 44
f 45/59/46 47/51/48 40/43/41 
s 45
f 51/60/52 52/61/53 36/39/37 
s 46
f 50/55/51 51/60/52 36/39/37 
s 47
f 40/43/41 53/62/54 42/45/43 
s 48
f 53/62/54 54/63/55 42/45/43 
s 49
f 42/45/43 54/63/55 50/55/51 
s 50
f 54/63/55 51/60/52 50/55/51 
s 51
f 36/39/37 52/61/53 38/41/39 
s 52
f 52/61/53 55/64/56 38/41/39 
s 53
f 38/41/39 55/64/56 44/48/45 
s 54
f 55/64/56 56/65/57 44/48/45 
s 55
f 44/48/45 56/65/57 57/66/58 
s 56
f 48/52/49 44/48/45 57/66/58 
s 57
f 48/52/49 57/66/58 58/67/59 
s 58
f 47/51/48 48/52/49 58/67/59 
s 59
f 47/51/48 58/67/59 53/62/54 
s 60
f 40/43/41 47/51/48 53/62/54 
s 61
f 59/68/60 60/69/61 61/7/62 
s 62
f 62/6/63 59/68/60 61/7/62 
s 63
f 62/6/63 63/11/64 59/68/60 
s 64
f 63/11/64 64/70/65 59/68/60 
s 65
f 65/71/66 66/72/67 67/73/68 
s 66
f 66/72/67 68/74/69 67/73/68 
s 67
f 69/75/70 70/76/71 71/77/72 
s 68
f 70/76/71 72/78/73 71/77/72 
s 69
f 66/72/67 73/79/74 68/74/69 
s 70
f 73/79/74 74/80/75 68/74/69 
s 71
f 75/81/76 76/10/77 62/82/63 
s 72
f 76/10/77 63/11/64 62/82/63 
s 73
f 75/9/76 62/6/63 77/8/78 
s 74
f 62/6/63 61/7/62 77/8/78 
s 75
f 78/83/79 79/84/80 80/85/81 
s 76
f 79/84/80 64/70/65 80/85/81 
s 77
f 63/11/64 76/10/77 81/86/82 
s 78
f 76/10/77 82/87/83 81/86/82 
s 79
f 63/11/64 81/86/82 64/70/65 
s 80
f 81/86/82 80/85/81 64/70/65 
s 81
f 29/32/30 83/88/84 84/89/85 
s 82
f 83/88/84 85/90/86 84/89/85 
s 83
f 85/90/86 86/91/87 84/89/85 
s 84
f 87/92/88 88/93/89 60/69/61 
s 85
f 59/68/60 87/92/88 60/69/61 
s 86
f 87/92/88 59/68/60 64/70/65 
s 87
f 79/84/80 87/92/88 64/70/65 
s 88
f 89/94/90 83/88/84 29/32/30 
s 361
f 31/34/32 89/94/90 29/32/30 
s 362
f 90/95/91 91/95/91 92/96/91 
s 363
f 93/96/91 90/95/91 92/96/91 
s 364
f 93/96/91 94/97/92 90/95/91 
s 365
f 94/97/92 95/98/93 90/95/91 
s 366
f 96/99/94 5/5/5 97/100/95 
s 367
f 98/101/96 99/102/97 100/103/98 
s 368
f 101/104/96 98/101/96 100/103/98 
s 369
f 102/105/96 98/101/96 101/104/96 
s 370
f 103/104/96 102/105/96 101/104/96 
s 371
f 104/106/99 105/107/99 106/108/99 
s 372
f 107/109/99 104/106/99 106/108/99 
s 373
f 107/109/99 108/110/100 104/106/99 
s 374
f 108/110/100 109/111/101 104/106/99 
s 375
f 97/100/95 5/5/5 4/4/4 
s 376
f 110/112/102 111/113/103 112/114/104 
s 377
f 113/115/102 110/112/102 112/114/104 
s 378
f 114/116/102 110/112/102 113/115/102 
s 379
f 115/115/102 114/116/102 113/115/102 
s 380
f 116/117/91 117/118/91 118/119/91 
s 381
f 119/120/91 116/117/91 118/119/91 
s 382
f 119/120/91 120/121/92 116/117/91 
s 383
f 120/121/92 121/122/93 116/117/91 
s 384
f 122/123/105 96/99/94 123/124/106 
s 385
f 96/99/94 97/100/95 123/124/106 
s 386
f 122/123/105 124/125/107 96/99/94 
s 387
f 124/125/107 125/126/108 96/99/94 
s 388
f 124/125/107 126/127/109 125/126/108 
s 389
f 126/127/109 127/128/110 125/126/108 
s 390
f 126/127/109 128/129/111 127/128/110 
s 391
f 128/129/111 129/130/112 127/128/110 
s 392
f 128/129/111 130/131/113 129/130/112 
s 393
f 130/131/113 131/132/114 129/130/112 
s 394
f 130/131/113 132/133/115 131/132/114 
s 395
f 132/133/115 133/134/116 131/132/114 
s 396
f 134/135/117 135/136/118 136/137/119 
s 397
f 135/136/118 137/138/120 136/137/119 
s 398
f 137/138/120 135/136/118 138/139/121 
s 399
f 135/136/118 139/140/122 138/139/121 
s 400
f 128/141/111 126/142/109 140/143/123 
s 401
f 126/142/109 141/144/124 140/143/123 
s 402
f 126/142/109 124/145/107 141/144/124 
s 403
f 124/145/107 142/146/125 141/144/124 
s 404
f 141/144/124 142/146/125 138/139/121 
s 405
f 138/139/121 142/146/125 143/147/126 
s 406
f 137/138/120 138/139/121 143/147/126 
s 407
f 143/147/126 144/148/127 137/138/120 
s 408
f 144/148/127 136/137/119 137/138/120 
s 409
f 145/149/128 136/137/119 144/148/127 
s 410
f 134/135/117 136/137/119 145/149/128 
s 411
f 146/150/129 134/135/117 145/149/128 
s 412
f 147/151/130 145/149/128 144/148/127 
s 413
f 147/151/130 148/152/131 145/149/128 
s 414
f 124/145/107 122/153/105 142/146/125 
s 415
f 122/153/105 143/147/126 142/146/125 
s 416
f 143/147/126 122/153/105 144/148/127 
s 417
f 122/153/105 123/154/106 144/148/127 
s 418
f 147/151/130 144/148/127 123/154/106 
s 419
f 149/155/132 147/151/130 123/154/106 
s 420
f 147/151/130 149/155/132 148/152/131 
s 421
f 149/155/132 150/156/133 148/152/131 
s 422
f 151/157/134 148/152/131 150/156/133 
s 423
f 152/158/135 151/157/134 150/156/133 
s 424
f 151/157/134 152/158/135 153/159/136 
s 425
f 152/158/135 154/160/137 153/159/136 
s 426
f 153/159/136 154/160/137 155/161/138 
s 427
f 154/160/137 156/162/139 155/161/138 
s 428
f 153/159/136 157/163/140 151/157/134 
s 429
f 153/159/136 155/161/138 157/163/140 
s 430
f 155/161/138 158/164/141 157/163/140 
s 431
f 159/165/142 160/166/143 158/164/141 
s 432
f 160/166/143 157/163/140 158/164/141 
s 433
f 157/163/140 160/166/143 161/167/144 
s 434
f 162/168/145 157/163/140 161/167/144 
s 435
f 157/163/140 162/168/145 151/157/134 
s 436
f 151/157/134 162/168/145 148/152/131 
s 437
f 162/168/145 163/169/146 148/152/131 
s 438
f 148/152/131 163/169/146 145/149/128 
s 439
f 146/150/129 145/149/128 163/169/146 
s 440
f 164/170/147 146/150/129 163/169/146 
s 441
f 161/167/144 164/170/147 162/168/145 
s 442
f 164/170/147 163/169/146 162/168/145 
s 443
f 135/171/118 134/172/117 31/34/32 
s 444
f 134/172/117 89/94/90 31/34/32 
s 445
f 165/173/148 166/174/149 167/175/150 
s 446
f 166/174/149 168/176/151 167/175/150 
s 447
f 169/177/152 170/178/153 171/179/154 
s 448
f 170/178/153 172/180/155 171/179/154 
s 449
f 169/177/152 165/173/148 170/178/153 
s 450
f 165/173/148 167/175/150 170/178/153 
s 451
f 168/83/151 173/84/156 167/85/150 
s 452
f 173/84/156 174/70/157 167/85/150 
s 453
f 11/11/11 10/10/10 170/86/153 
s 454
f 10/10/10 172/87/155 170/86/153 
s 455
f 11/11/11 170/86/153 174/70/157 
s 456
f 170/86/153 167/85/150 174/70/157 
s 457
f 96/99/94 125/126/108 5/5/5 
s 458
f 125/126/108 127/128/110 5/5/5 
s 459
f 5/5/5 127/128/110 175/181/158 
s 460
f 127/128/110 129/130/112 175/181/158 
s 461
f 129/130/112 131/132/114 175/181/158 
s 462
f 135/171/118 31/34/32 139/182/122 
s 463
f 31/34/32 28/31/29 139/182/122 
s 464
f 176/173/159 177/174/160 80/175/81 
s 465
f 177/174/160 78/176/79 80/175/81 
s 466
f 178/177/161 81/178/82 179/179/162 
s 467
f 81/178/82 82/180/83 179/179/162 
s 468
f 178/177/161 176/173/159 81/178/82 
s 469
f 176/173/159 80/175/81 81/178/82 
s 470
f 161/183/144 160/184/143 86/91/87 
s 471
f 160/184/143 159/185/142 86/91/87 
s 472
f 86/91/87 159/185/142 84/89/85 
s 473
f 159/185/142 180/186/163 84/89/85 
s 474
f 3/3/3 2/2/2 156/187/139 
s 475
f 2/2/2 181/188/164 156/187/139 
s 476
f 152/189/135 3/3/3 154/190/137 
s 477
f 3/3/3 156/187/139 154/190/137 
s 478
f 3/3/3 152/189/135 1/1/1 
s 479
f 152/189/135 150/191/133 1/1/1 
s 480
f 149/192/132 4/4/4 150/191/133 
s 481
f 4/4/4 1/1/1 150/191/133 
s 482
f 4/4/4 149/192/132 97/100/95 
s 483
f 149/192/132 123/124/106 97/100/95 
s 484
f 182/193/165 183/194/166 184/195/167 
s 485
f 183/194/166 185/196/168 184/195/167 
s 486
f 183/194/166 182/193/165 139/140/122 
s 487
f 182/193/165 138/139/121 139/140/122 
s 488
f 182/193/165 141/144/124 138/139/121 
s 489
f 182/193/165 184/195/167 141/144/124 
s 490
f 184/195/167 140/143/123 141/144/124 
s 491
f 186/197/169 140/143/123 184/195/167 
s 492
f 128/141/111 140/143/123 186/197/169 
s 493
f 130/198/113 128/141/111 186/197/169 
s 494
f 186/197/169 187/199/170 130/198/113 
s 495
f 187/199/170 132/200/115 130/198/113 
s 496
f 132/200/115 187/199/170 188/201/171 
s 497
f 133/202/116 132/200/115 188/201/171 
s 498
f 187/199/170 186/197/169 189/203/172 
s 499
f 189/203/172 186/197/169 184/195/167 
s 500
f 189/203/172 184/195/167 185/196/168 
s 501
f 190/204/173 189/203/172 185/196/168 
s 502
f 191/205/174 192/206/175 193/207/176 
s 503
f 194/208/177 191/205/174 193/207/176 
s 504
f 190/204/173 191/205/174 194/208/177 
s 505
f 189/203/172 190/204/173 194/208/177 
s 506
f 194/208/177 187/199/170 189/203/172 
s 507
f 194/208/177 193/207/176 187/199/170 
s 508
f 193/207/176 188/201/171 187/199/170 
s 509
f 34/37/35 190/209/173 32/35/33 
s 510
f 190/209/173 185/210/168 32/35/33 
s 511
f 183/211/166 30/33/31 185/210/168 
s 512
f 30/33/31 32/35/178 185/210/178 
s 513
f 30/33/31 183/211/166 28/31/29 
s 514
f 183/211/166 139/182/122 28/31/29 
s 515
f 195/212/179 196/213/180 53/214/54 
s 516
f 196/213/180 54/215/55 53/214/54 
s 517
f 196/213/180 197/216/181 54/215/55 
s 518
f 197/216/181 51/217/52 54/215/55 
s 519
f 197/216/181 198/218/182 51/217/52 
s 520
f 198/218/182 52/219/53 51/217/52 
s 521
f 198/220/182 199/221/183 52/222/53 
s 522
f 199/221/183 55/223/56 52/222/53 
s 523
f 55/223/56 199/221/183 56/224/57 
s 524
f 199/221/183 200/225/184 56/224/57 
s 525
f 57/226/58 56/224/57 200/225/184 
s 526
f 201/227/185 57/226/58 200/225/184 
s 527
f 58/228/59 57/226/58 201/227/185 
s 528
f 202/229/186 58/228/59 201/227/185 
s 529
f 53/214/54 58/228/59 202/229/186 
s 530
f 195/212/179 53/214/54 202/229/186 
s 531
f 203/230/187 204/22/188 205/28/189 
s 532
f 206/231/190 203/230/187 205/28/189 
s 533
f 203/230/187 206/231/190 207/232/191 
s 534
f 208/233/192 203/230/187 207/232/191 
s 535
f 209/234/193 210/235/194 211/236/195 
s 536
f 212/237/196 213/238/197 214/239/198 
s 537
f 215/240/199 213/238/197 212/237/196 
s 538
f 211/236/195 215/240/199 212/237/196 
s 539
f 210/235/194 215/240/199 211/236/195 
s 540
f 210/235/194 216/241/200 215/240/199 
s 541
f 215/240/199 217/242/201 213/238/197 
s 542
f 216/241/200 217/242/201 215/240/199 
s 543
f 216/241/200 218/243/202 217/242/201 
s 544
f 219/244/203 220/245/204 218/243/202 
s 545
f 218/243/202 220/245/204 217/242/201 
s 546
f 217/242/201 220/245/204 221/246/205 
s 547
f 217/242/201 221/246/205 213/238/197 
s 548
f 213/238/197 221/246/205 222/247/206 
s 549
f 213/238/197 222/247/206 214/239/198 
s 550
f 214/239/198 222/247/206 223/248/53 
s 551
f 222/247/206 224/249/56 223/248/53 
s 552
f 222/247/206 225/250/207 224/249/56 
s 553
f 225/250/207 226/251/57 224/249/56 
s 554
f 221/246/205 225/250/207 222/247/206 
s 555
f 221/246/205 227/252/208 225/250/207 
s 556
f 227/252/208 228/253/209 225/250/207 
s 557
f 229/254/210 228/253/209 227/252/208 
s 558
f 230/255/58 226/251/57 225/250/207 
s 559
f 228/253/209 230/255/58 225/250/207 
s 560
f 231/256/59 230/255/58 228/253/209 
s 561
f 229/254/210 231/256/59 228/253/209 
s 562
f 232/257/54 231/256/59 229/254/210 
s 563
f 233/258/211 232/257/54 229/254/210 
s 564
f 233/258/211 234/259/212 232/257/54 
s 565
f 234/259/212 235/260/55 232/257/54 
s 566
f 234/259/212 236/261/213 235/260/55 
s 567
f 236/261/213 237/262/52 235/260/55 
s 568
f 236/261/213 214/263/198 237/262/52 
s 569
f 214/263/198 223/264/53 237/262/52 
s 570
f 238/265/214 229/254/210 227/252/208 
s 571
f 229/254/210 238/265/214 233/258/211 
s 572
f 238/265/214 239/266/215 233/258/211 
s 573
f 233/258/211 239/266/215 234/259/212 
s 574
f 239/266/215 240/267/216 234/259/212 
s 575
f 234/259/212 240/267/216 236/261/213 
s 576
f 240/267/216 241/268/217 236/261/213 
s 577
f 236/261/213 241/268/217 214/263/198 
s 578
f 241/268/217 212/269/196 214/263/198 
s 579
f 211/270/195 212/269/196 241/268/217 
s 580
f 242/271/218 243/272/219 241/268/217 
s 581
f 240/267/216 242/271/218 241/268/217 
s 582
f 244/273/220 242/271/218 240/267/216 
s 583
f 239/266/215 244/273/220 240/267/216 
s 584
f 219/244/203 244/273/220 239/266/215 
s 585
f 238/265/214 219/244/203 239/266/215 
s 586
f 219/244/203 238/265/214 220/245/204 
s 587
f 238/265/214 227/252/208 220/245/204 
s 588
f 220/245/204 227/252/208 221/246/205 
s 589
f 243/272/219 211/270/195 241/268/217 
s 590
f 209/274/193 211/270/195 243/272/219 
s 591
f 245/275/221 209/274/193 243/272/219 
s 592
f 246/276/222 245/275/221 243/272/219 
s 593
f 242/271/218 246/276/222 243/272/219 
s 594
f 247/277/223 246/276/222 242/271/218 
s 595
f 244/273/220 247/277/223 242/271/218 
s 596
f 248/278/224 247/277/223 244/273/220 
s 597
f 219/244/203 248/278/224 244/273/220 
s 598
f 248/278/224 219/244/203 218/243/202 
s 851
f 203/230/187 208/233/192 249/279/225 
s 852
f 250/280/226 203/230/187 249/279/225 
s 853
f 250/280/226 251/23/227 203/230/187 
s 854
f 251/23/227 204/22/188 203/230/187 
s 855
f 252/281/104 253/282/103 254/283/92 
s 856
f 253/282/103 255/284/93 254/283/92 
s 857
f 256/285/104 257/286/103 94/97/92 
s 858
f 257/286/103 95/98/93 94/97/92 
s 859
f 258/287/102 259/288/102 260/287/102 
s 860
f 259/288/102 261/289/102 260/287/102 
s 861
f 260/287/102 261/289/102 256/285/104 
s 862
f 261/289/102 257/286/103 256/285/104 
s 863
f 262/290/228 263/291/229 207/232/191 
s 864
f 206/231/190 262/290/228 207/232/191 
s 865
f 206/231/190 205/28/189 262/290/228 
s 866
f 205/28/189 264/29/230 262/290/228 
s 867
f 100/103/98 99/102/97 108/110/100 
s 868
f 99/102/97 109/111/101 108/110/100 
s 869
f 265/292/96 266/293/96 267/294/98 
s 870
f 266/293/96 268/295/97 267/294/98 
s 871
f 267/294/98 268/295/97 269/296/100 
s 872
f 268/295/97 270/297/101 269/296/100 
s 873
f 271/298/99 269/296/100 272/299/99 
s 874
f 269/296/100 270/297/101 272/299/99 
s 875
f 112/114/104 111/113/103 120/121/92 
s 876
f 111/113/103 121/122/93 120/121/92 
s 877
f 273/300/231 274/301/232 275/302/233 
s 878
f 274/301/232 276/303/234 275/302/233 
s 895
f 19/304/19 17/305/17 277/306/235 
s 896
f 278/307/236 19/304/19 277/306/235 
s 897
f 277/306/235 249/279/225 278/307/236 
s 898
f 249/279/225 208/233/192 278/307/236 
s 899
f 278/307/236 208/233/192 279/308/237 
s 900
f 208/233/192 207/232/191 279/308/237 
s 901
f 263/291/229 280/309/238 207/232/191 
s 902
f 280/309/238 279/308/237 207/232/191 
s 903
f 281/12/239 282/19/240 283/310/241 
s 904
f 282/19/240 284/311/242 283/310/241 
s 905
f 285/312/243 286/13/244 283/313/241 
s 906
f 286/13/244 281/12/239 283/313/241 
s 907
f 281/12/239 286/13/244 287/14/245 
s 908
f 286/13/244 288/15/246 287/14/245 
s 909
f 289/16/247 290/17/248 291/18/249 
s 910
f 290/17/248 282/19/240 291/18/249 
s 911
f 291/18/249 282/19/240 287/14/245 
s 912
f 282/19/240 281/12/239 287/14/245 
s 913
f 292/20/250 289/16/247 293/21/251 
s 914
f 289/16/247 291/18/249 293/21/251 
s 915
f 204/22/188 251/23/227 293/24/251 
s 916
f 251/23/227 292/25/250 293/24/251 
s 917
f 293/26/251 291/18/249 294/314/252 
s 918
f 291/18/249 287/14/245 294/314/252 
s 919
f 293/24/251 294/27/252 204/22/188 
s 920
f 294/27/252 205/28/189 204/22/188 
s 921
f 295/30/253 294/27/252 288/15/246 
s 922
f 294/27/252 287/14/245 288/15/246 
s 923
f 264/29/230 205/28/189 295/30/253 
s 924
f 205/28/189 294/27/252 295/30/253 
s 925
f 282/304/240 290/305/248 296/306/254 
s 926
f 284/307/242 282/304/240 296/306/254 
s 927
f 296/306/254 297/279/255 284/307/242 
s 928
f 297/279/255 298/233/256 284/307/242 
s 929
f 284/307/242 298/233/256 283/308/241 
s 930
f 298/233/256 299/232/257 283/308/241 
s 931
f 300/291/258 285/309/243 299/232/257 
s 932
f 285/309/243 283/308/241 299/232/257 
s 933
f 12/12/12 19/19/19 279/310/237 
s 934
f 19/19/19 278/311/236 279/310/237 
s 935
f 280/312/238 13/13/13 279/313/237 
s 936
f 13/13/13 12/12/12 279/313/237 
s 937
f 46/315/47 43/316/44 48/52/49 
s 938
f 43/316/44 44/48/45 48/52/49 
s 939
f 301/317/259 302/318/260 195/319/179 
s 940
f 302/318/260 196/320/180 195/319/179 
s 941
f 303/321/261 304/322/262 305/323/263 
s 942
f 304/322/262 306/324/264 305/323/263 
s 943
f 306/324/264 307/325/265 305/326/263 
s 944
f 307/325/265 308/327/266 305/326/263 
s 945
f 309/328/267 310/329/268 303/330/261 
s 946
f 310/329/268 304/322/262 303/330/261 
s 947
f 302/331/260 311/332/269 309/333/267 
s 948
f 311/332/269 310/329/268 309/333/267 
s 949
f 301/317/259 312/334/270 302/318/260 
s 950
f 312/334/270 311/332/269 302/318/260 
s 951
f 301/335/259 313/336/271 312/334/270 
s 952
f 313/336/271 314/337/272 312/334/270 
s 953
f 313/338/271 315/339/273 314/337/272 
s 954
f 315/339/273 316/340/274 314/337/272 
s 955
f 315/341/273 308/342/266 316/340/274 
s 956
f 308/342/266 307/325/265 316/340/274 
s 957
f 304/322/262 223/343/53 306/324/264 
s 958
f 223/343/53 224/344/56 306/324/264 
s 959
f 306/324/264 224/344/56 307/325/265 
s 960
f 224/344/56 226/345/57 307/325/265 
s 961
f 305/346/263 308/347/266 199/348/183 
s 962
f 308/347/266 200/349/184 199/348/183 
s 963
f 312/334/270 314/337/272 232/350/54 
s 964
f 314/337/272 231/351/59 232/350/54 
s 965
f 302/318/260 309/352/267 196/320/180 
s 966
f 309/352/267 197/353/181 196/320/180 
s 967
f 314/337/272 316/340/274 231/351/59 
s 968
f 316/340/274 230/354/58 231/351/59 
s 969
f 311/332/269 235/355/55 310/329/268 
s 970
f 235/355/55 237/356/52 310/329/268 
s 971
f 312/334/270 232/350/54 311/332/269 
s 972
f 232/350/54 235/355/55 311/332/269 
s 973
f 309/352/267 303/357/261 197/353/181 
s 974
f 303/357/261 198/358/182 197/353/181 
s 975
f 313/359/271 202/360/186 315/361/273 
s 976
f 202/360/186 201/362/185 315/361/273 
s 977
f 315/361/273 201/362/185 308/347/266 
s 978
f 201/362/185 200/349/184 308/347/266 
s 979
f 301/317/259 195/319/179 313/359/271 
s 980
f 195/319/179 202/360/186 313/359/271 
s 981
f 310/329/268 237/356/52 304/322/262 
s 982
f 237/356/52 223/343/53 304/322/262 
s 983
f 303/357/261 305/346/263 198/358/182 
s 984
f 305/346/263 199/348/183 198/358/182 
s 985
f 316/340/274 307/325/265 230/354/58 
s 986
f 307/325/265 226/345/57 230/354/58 
s 987
f 317/363/275 71/77/72 318/364/276 
s 988
f 71/77/72 74/80/75 318/364/276 
s 989
f 71/77/72 72/78/73 74/80/75 
s 990
f 72/78/73 68/74/69 74/80/75 
s 991
f 72/78/73 319/365/277 68/74/69 
s 992
f 319/365/277 67/73/68 68/74/69 
s 993
f 319/365/277 320/366/278 67/73/68 
s 994
f 320/366/278 321/367/279 67/73/68 
s 995
f 322/368/280 323/369/281 320/366/278 
s 996
f 323/369/281 321/367/279 320/366/278 
s 997
f 324/370/282 322/368/280 319/365/277 
s 998
f 322/368/280 320/366/278 319/365/277 
s 999
f 325/371/283 326/372/284 318/364/276 
s 1000
f 326/372/284 317/363/275 318/364/276 
s 1001
f 323/369/281 65/373/66 321/367/279 
s 1002
f 65/373/66 67/73/68 321/367/279 
s 1003
f 326/374/284 69/75/70 317/363/275 
s 1004
f 69/75/70 71/77/72 317/363/275 
s 1005
f 73/375/74 325/371/283 74/80/75 
s 1006
f 325/371/283 318/364/276 74/80/75 
s 1007
f 70/76/71 324/376/282 72/78/73 
s 1008
f 324/376/282 319/365/277 72/78/73 
s 1009
f 327/377/285 166/174/149 328/378/286 
s 1010
f 166/174/149 165/173/148 328/378/286 
s 1011
f 169/177/152 171/179/154 329/379/287 
s 1012
f 171/179/154 330/380/288 329/379/287 
s 1013
f 61/7/62 331/381/289 77/8/78 
s 1014
f 331/381/289 332/382/290 77/8/78 
s 1015
f 330/380/288 332/382/290 331/381/289 
s 1016
f 329/379/287 330/380/288 331/381/289 
s 1017
f 333/383/291 181/384/164 332/382/290 
s 1018
f 330/380/288 333/383/291 332/382/290 
s 1019
f 333/383/291 330/380/288 334/385/292 
s 1020
f 330/380/288 171/179/154 334/385/292 
s 1021
f 334/385/292 171/179/154 172/180/155 
s 1022
f 180/386/163 334/385/292 172/180/155 
s 1023
f 156/162/139 181/387/164 155/161/138 
s 1024
f 181/387/164 333/383/291 155/161/138 
s 1025
f 155/161/138 333/383/291 158/164/141 
s 1026
f 333/383/291 334/385/292 158/164/141 
s 1027
f 159/165/142 158/164/141 180/388/163 
s 1028
f 158/164/141 334/385/292 180/388/163 
s 1029
f 328/378/286 165/173/148 329/379/287 
s 1030
f 165/173/148 169/177/152 329/379/287 
s 1031
f 335/389/293 331/381/289 60/69/61 
s 1032
f 331/381/289 61/7/62 60/69/61 
s 1033
f 329/379/287 331/381/289 328/378/286 
s 1034
f 331/381/289 335/390/293 328/378/286 
s 1035
f 164/391/147 161/183/144 85/90/86 
s 1036
f 161/183/144 86/91/87 85/90/86 
s 1037
f 146/392/129 164/391/147 83/88/84 
s 1038
f 164/391/147 85/90/86 83/88/84 
s 1039
f 134/172/117 146/392/129 89/94/90 
s 1040
f 146/392/129 83/88/84 89/94/90 
s 1041
f 131/132/114 133/134/116 175/181/158 
s 1042
f 133/134/116 336/393/294 175/181/158 
s 1043
f 34/37/35 33/36/34 192/394/175 
s 1044
f 33/36/34 337/395/295 192/394/175 
s 1045
f 190/209/173 34/37/35 191/396/174 
s 1046
f 34/37/35 192/394/175 191/396/174 
s 1047
f 338/377/296 177/174/160 339/378/297 
s 1048
f 177/174/160 176/173/159 339/378/297 
s 1049
f 178/177/161 179/179/162 340/379/298 
s 1050
f 179/179/162 341/380/299 340/379/298 
s 1051
f 7/7/7 342/381/300 8/8/8 
s 1052
f 342/381/300 343/382/301 8/8/8 
s 1053
f 341/380/299 343/382/301 342/381/300 
s 1054
f 340/379/298 341/380/299 342/381/300 
s 1055
f 344/68/302 345/69/303 7/7/7 
s 1056
f 6/6/6 344/68/302 7/7/7 
s 1057
f 6/6/6 11/11/11 344/68/302 
s 1058
f 11/11/11 174/70/157 344/68/302 
s 1059
f 192/206/175 337/397/295 193/207/176 
s 1060
f 337/397/295 346/398/304 193/207/176 
s 1061
f 193/207/176 346/398/304 188/201/171 
s 1062
f 346/398/304 347/399/305 188/201/171 
s 1063
f 133/202/116 188/201/171 336/400/294 
s 1064
f 188/201/171 347/399/305 336/400/294 
s 1065
f 339/378/297 176/173/159 340/379/298 
s 1066
f 176/173/159 178/177/161 340/379/298 
s 1067
f 348/389/306 342/381/300 345/69/303 
s 1068
f 342/381/300 7/7/7 345/69/303 
s 1069
f 340/379/298 342/381/300 339/378/297 
s 1070
f 342/381/300 348/390/306 339/378/297 
s 1089
f 349/401/104 350/402/103 351/403/92 
s 1090
f 350/402/103 352/404/93 351/403/92 
s 1091
f 327/377/285 328/378/286 335/389/293 
s 1092
f 353/405/307 327/377/285 335/389/293 
s 1093
f 353/405/307 335/389/293 88/93/89 
s 1094
f 335/389/293 60/69/61 88/93/89 
s 1095
f 354/406/102 355/407/102 356/408/102 
s 1096
f 355/407/102 357/407/102 356/408/102 
s 1097
f 356/408/102 357/407/102 252/281/104 
s 1098
f 357/407/102 253/282/103 252/281/104 
s 1099
f 358/92/308 359/93/309 345/69/303 
s 1100
f 344/68/302 358/92/308 345/69/303 
s 1101
f 358/92/308 344/68/302 174/70/157 
s 1102
f 173/84/156 358/92/308 174/70/157 
s 1119
f 180/409/163 172/410/155 84/89/85 
s 1120
f 172/410/155 10/411/10 84/89/85 
s 1121
f 84/89/85 10/411/10 29/32/30 
s 1122
f 10/411/10 9/412/9 29/32/30 
s 1123
f 29/32/30 9/412/9 8/413/8 
s 1124
f 33/36/34 29/32/30 8/413/8 
s 1125
f 8/413/8 343/414/301 33/36/34 
s 1126
f 343/414/301 337/415/295 33/36/34 
s 1175
f 348/389/306 345/69/303 359/93/309 
s 1176
f 360/405/310 348/389/306 359/93/309 
s 1177
f 360/405/310 338/377/296 348/389/306 
s 1178
f 338/377/296 339/378/297 348/389/306 
s 1179
f 361/416/91 362/417/91 363/418/91 
s 1180
f 364/418/91 361/416/91 363/418/91 
s 1181
f 364/418/91 254/283/92 361/416/91 
s 1182
f 254/283/92 255/284/93 361/416/91 
s 1183
f 346/398/304 337/419/295 343/420/301 
s 1184
f 341/421/299 346/398/304 343/420/301 
s 1185
f 346/398/304 341/421/299 347/399/305 
s 1186
f 341/421/299 179/422/162 347/399/305 
s 1187
f 347/399/305 179/422/162 82/423/83 
s 1188
f 336/424/294 347/399/305 82/423/83 
s 1189
f 365/425/311 366/426/312 209/427/193 
s 1190
f 245/428/221 365/425/311 209/427/193 
s 1191
f 245/428/221 246/429/222 365/425/311 
s 1192
f 246/429/222 367/430/313 365/425/311 
s 1193
f 246/429/222 247/431/223 367/430/313 
s 1194
f 247/431/223 368/432/314 367/430/313 
s 1195
f 247/431/223 248/433/224 368/432/314 
s 1196
f 248/433/224 369/434/315 368/432/314 
s 1197
f 248/433/224 218/435/202 369/434/315 
s 1198
f 218/435/202 370/436/316 369/434/315 
s 1199
f 370/436/316 218/435/202 371/437/317 
s 1200
f 218/435/202 216/438/200 371/437/317 
s 1201
f 372/439/318 371/437/317 216/438/200 
s 1202
f 210/440/194 372/439/318 216/438/200 
s 1203
f 366/441/312 372/439/318 210/440/194 
s 1204
f 209/442/193 366/441/312 210/440/194 
s 1205
f 373/443/102 350/402/103 349/401/104 
s 1206
f 374/444/102 373/443/102 349/401/104 
s 1207
f 375/445/102 373/443/102 374/444/102 
s 1208
f 376/444/102 375/445/102 374/444/102 
s 1209
f 377/446/91 378/447/91 379/448/91 
s 1210
f 380/449/91 377/446/91 379/448/91 
s 1211
f 380/449/91 351/403/92 377/446/91 
s 1212
f 351/403/92 352/404/93 377/446/91 
s 1213
f 336/450/294 82/451/83 175/181/158 
s 1214
f 82/451/83 76/452/77 175/181/158 
s 1215
f 175/181/158 76/452/77 5/5/5 
s 1216
f 76/452/77 75/453/76 5/5/5 
s 1217
f 5/5/5 75/453/76 77/454/78 
s 1218
f 2/2/2 5/5/5 77/454/78 
s 1219
f 77/454/78 332/455/290 2/2/2 
s 1220
f 332/455/290 181/456/164 2/2/2 
s 1221
f 381/290/319 300/291/258 299/232/257 
s 1222
f 382/231/320 381/290/319 299/232/257 
s 1223
f 382/231/320 25/28/26 381/290/319 
s 1224
f 25/28/26 26/29/319 381/290/319 
s 1225
f 383/230/321 298/233/256 297/279/255 
s 1226
f 384/280/322 383/230/321 297/279/255 
s 1227
f 384/280/322 23/23/23 383/230/321 
s 1228
f 23/23/23 22/22/22 383/230/321 
s 1229
f 383/230/321 22/22/22 25/28/26 
s 1230
f 382/231/320 383/230/321 25/28/26 
s 1231
f 383/230/321 382/231/320 299/232/257 
s 1232
f 298/233/256 383/230/321 299/232/257 
# 0 polygons - 610 triangles