# Blender v2.78 (sub 0) OBJ File: 'props.blend'
# www.blender.org
o ithplantB
v 0.606812 1.286450 0.348341
v 0.788892 1.327870 0.575688
v 0.713605 1.319280 0.621365
v 0.539092 1.272200 0.421564
v 0.658203 1.318290 0.691580
v 0.459081 1.275580 0.482706
v 0.468370 1.116870 0.180473
v 0.403938 1.135650 0.266526
v 0.228236 0.699412 0.112490
v 0.248872 0.726884 0.066574
v 0.308284 1.105130 0.322435
v 0.179918 0.722442 0.131732
v 0.855571 1.309740 0.780960
v 0.900116 1.334990 0.756334
v 0.834580 1.328860 0.831025
v 0.968777 1.257320 0.904254
v 0.006212 0.090059 0.012158
v -0.069260 1.030250 0.425812
v 0.004201 1.065640 0.448602
v -0.173547 1.095050 0.646987
v -0.227371 1.067150 0.589689
v -0.156629 1.001300 0.385501
v -0.290515 1.038790 0.551032
v 0.133190 0.946078 0.239792
v 0.049794 0.939570 0.250827
v 0.073247 0.616798 0.103203
v 0.102368 0.651410 0.088271
v -0.053316 0.879911 0.226420
v 0.020098 0.622577 0.085045
v -0.394955 1.092480 0.791302
v -0.399012 1.070080 0.751070
v -0.440831 1.061900 0.725111
v -0.460623 1.029110 0.849142
v -0.020570 0.090059 0.014983
v 0.006212 0.090059 0.012158
v 0.641162 1.751610 -0.167045
v 0.598644 1.706830 -0.313404
v 0.750186 1.801360 -0.404955
v 0.804601 1.830690 -0.282115
v 0.538223 1.708380 -0.460076
v 0.712838 1.793300 -0.542057
v 0.285544 0.767520 -0.093206
v 0.491899 1.426590 -0.213521
v 0.520046 1.455130 -0.047639
v 0.291318 0.800816 -0.033683
v 0.407642 1.409340 -0.366053
v 0.241130 0.783801 -0.147378
v 0.941521 1.683980 -0.463838
v 0.980749 1.764300 -0.398910
v 0.941660 1.735050 -0.548904
v 1.040220 1.418570 -0.501535
v 0.015239 0.090059 -0.034781
v 0.030303 0.090059 -0.009962
v 0.459138 1.385350 -0.861992
v 0.304444 1.378700 -0.617022
v 0.230909 1.288440 -0.687953
v 0.378716 1.316230 -0.908043
v 0.134556 1.221890 -0.754737
v 0.309068 1.248320 -0.980783
v 0.147403 0.762985 -0.172100
v 0.125128 0.698439 -0.214805
v 0.165628 1.147210 -0.477331
v 0.241969 1.209960 -0.387128
v 0.058141 1.042100 -0.532640
v 0.067489 0.689256 -0.239198
v 0.528381 1.276200 -1.059830
v 0.566694 1.346840 -1.047220
v 0.491014 1.267210 -1.123140
v 0.637025 1.141690 -1.133290
v -0.004028 0.090059 -0.057536
v 0.015239 0.090059 -0.034781
v -0.783846 0.830939 0.250059
v -0.835978 0.818005 0.179806
v -0.581068 0.851987 0.037295
v -0.543811 0.855619 0.130818
v -0.496992 0.880611 0.216483
v -0.760532 0.843537 0.335557
v -0.112750 0.416337 0.018572
v -0.337325 0.786416 0.045045
v -0.365375 0.757335 -0.056977
v -0.118426 0.439538 -0.032358
v -0.272958 0.788610 0.133809
v -0.080270 0.453341 0.053511
v -0.962945 0.766637 0.347542
v -1.001080 0.777803 0.306930
v -0.968831 0.788328 0.400528
v -1.090020 0.673284 0.424376
v -0.046342 0.090059 -0.006602
v -0.602334 1.065610 -0.504410
v -0.626950 0.893508 -0.595111
v -0.545010 0.890505 -0.671311
v -0.513888 1.043610 -0.602897
v -0.475518 0.901641 -0.762439
v -0.428229 1.073790 -0.699679
v -0.478313 1.084200 -0.369255
v -0.399403 1.096660 -0.487711
v -0.123775 0.433853 -0.241613
v -0.180092 0.513511 -0.143083
v -0.033432 0.522229 -0.313879
v -0.292818 1.094160 -0.574223
v -0.619462 0.709368 -0.755539
v -0.685574 0.763845 -0.722561
v -0.605977 0.759055 -0.822955
v -0.671914 0.462697 -0.816571
v -0.028047 0.090059 -0.076520
v -0.052276 0.090059 -0.071722
v -0.063501 0.090059 -0.047159
v -0.405922 0.567812 0.673647
v -0.614399 0.561064 0.881126
v -0.667291 0.559903 0.810207
v -0.484887 0.557504 0.611928
v -0.742885 0.561064 0.762409
v -0.554492 0.567483 0.539768
v -0.239897 0.455782 0.503509
v -0.334692 0.467955 0.447539
v -0.211270 0.351872 0.307270
v -0.139374 0.401778 0.331433
v -0.397285 0.455782 0.358087
v -0.249392 0.402236 0.237529
v -0.809299 0.515020 0.963617
v -0.781843 0.535350 1.009020
v -0.862610 0.532577 0.950876
v -0.915362 0.435444 1.078440
v -0.082975 0.090059 0.048777
v -0.077292 0.090059 0.071680
v -0.056091 0.090059 0.071794
v -0.502606 0.398955 0.206038
v -0.740048 0.400540 0.298927
v -0.731200 0.385924 0.216217
v -0.513147 0.377512 0.122476
v -0.745215 0.371252 0.138727
v -0.510587 0.365405 0.023978
v -0.319613 0.328622 0.173436
v -0.341251 0.325509 0.084714
v -0.212401 0.276036 0.086368
v -0.184459 0.329258 0.131471
v -0.325941 0.292745 -0.022800
v -0.193330 0.305390 0.000876
v -0.903576 0.372104 0.312082
v -0.914538 0.390132 0.355373
v -0.927662 0.372790 0.270792
v -1.002800 0.331169 0.372329
v -0.076116 0.090059 -0.007850
v -0.078016 0.090059 0.022348
v 0.075124 1.066230 0.731490
v 0.218811 1.041490 0.668436
v 0.319301 1.119850 0.823504
v 0.201348 1.129660 0.893514
v 0.357501 1.065090 0.595127
v 0.451720 1.129660 0.772263
v 0.066472 0.429227 0.374595
v 0.129783 0.783636 0.533776
v -0.032572 0.801243 0.585992
v -0.021431 0.474780 0.392958
v 0.274120 0.801243 0.437467
v 0.134875 0.476371 0.297903
v 0.407082 0.980665 0.987137
v 0.341194 1.048090 1.044730
v 0.487736 1.038450 0.987164
v 0.474442 0.707797 1.038260
v -0.006272 0.090059 0.078908
v 0.008129 0.090059 0.056403
v -0.026748 0.090059 0.077787
v 0.812531 0.742619 0.332723
v 0.770669 0.794496 0.427185
v 0.511383 0.789573 0.297834
v 0.580192 0.718054 0.204373
v 0.640680 0.672946 0.092661
v 0.881941 0.692680 0.246457
v 0.211958 0.407939 0.128475
v 0.375859 0.581021 0.143266
v 0.291323 0.631750 0.240951
v 0.143090 0.501216 0.176778
v 0.427626 0.507030 0.019571
v 0.240076 0.418244 0.029923
v 0.982265 0.694086 0.458723
v 0.968842 0.756757 0.508819
v 1.041590 0.696468 0.414456
v 1.076690 0.551781 0.536979
v 0.029465 0.090059 0.021816
v 0.030303 0.090059 -0.009962
v 0.006212 0.090059 0.012158
v -0.619507 0.162802 -0.165432
v -0.615513 0.177813 -0.247604
v -0.387992 0.157966 -0.138822
v -0.417086 0.145557 -0.061101
v -0.427683 0.125439 0.033288
v -0.649850 0.148524 -0.091042
v -0.130840 0.090059 -0.005037
v -0.286277 0.128285 -0.001019
v -0.251645 0.170589 -0.079733
v -0.110149 0.090059 -0.033565
v -0.131237 0.090059 0.033992
v -0.291938 0.136219 0.103990
v -0.782854 0.149527 -0.260679
v -0.785034 0.167443 -0.306579
v -0.813384 0.150100 -0.225817
v -0.879024 0.108644 -0.317154
v 0.006212 0.090059 0.012158
v -0.020570 0.090059 0.014983
v 0.001438 -0.249597 0.000329
v 0.015239 0.090059 -0.034781
v 0.030303 0.090059 -0.009962
v 0.001438 -0.249597 0.000329
v -0.004028 0.090059 -0.057536
v 0.015239 0.090059 -0.034781
v 0.001438 -0.249597 0.000329
v -0.052276 0.090059 -0.071722
v -0.028047 0.090059 -0.076520
v 0.001438 -0.249597 0.000329
v -0.063501 0.090059 -0.047159
v -0.077292 0.090059 0.071680
v -0.082975 0.090059 0.048777
v 0.001438 -0.249597 0.000329
v -0.056091 0.090059 0.071794
v -0.078016 0.090059 0.022348
v -0.076116 0.090059 -0.007850
v 0.001438 -0.249597 0.000329
v 0.008129 0.090059 0.056403
v -0.006272 0.090059 0.078908
v 0.001438 -0.249597 0.000329
v -0.026748 0.090059 0.077787
v 0.030303 0.090059 -0.009962
v 0.029465 0.090059 0.021816
v 0.001438 -0.249597 0.000329
v 0.006212 0.090059 0.012158
v -0.130840 0.090059 -0.005037
v -0.110149 0.090059 -0.033565
v 0.001438 -0.249597 0.000329
v -0.131237 0.090059 0.033992
v -0.427566 0.337455 -0.774643
v -0.362682 0.338786 -0.834717
v -0.195993 0.346457 -0.592645
v -0.284898 0.336150 -0.546414
v -0.366514 0.346129 -0.488152
v -0.510689 0.338786 -0.741462
v -0.091136 0.179194 -0.206778
v -0.170895 0.255321 -0.357725
v -0.069634 0.248355 -0.395803
v -0.015820 0.229101 -0.219753
v -0.250932 0.248355 -0.281571
v -0.141137 0.229558 -0.147521
v -0.539136 0.292494 -0.951405
v -0.503850 0.312825 -0.991026
v -0.593877 0.310052 -0.948614
v -0.622445 0.212919 -1.083660
v -0.052276 0.090059 -0.109361
v -0.063501 0.090059 -0.084798
v -0.028047 0.090059 -0.114159
v -0.052276 0.090059 -0.109361
v -0.028047 0.090059 -0.114159
v -0.006985 -0.241917 -0.009586
v -0.052276 0.090059 -0.109361
v -0.006985 -0.241917 -0.009586
v -0.063501 0.090059 -0.084798
v 0.338038 0.607918 -0.650266
v 0.437715 0.450188 -0.710589
v 0.522433 0.441629 -0.637930
v 0.446937 0.581642 -0.576391
v 0.619566 0.450188 -0.576698
v 0.550064 0.607021 -0.496793
v 0.218739 0.614823 -0.503296
v 0.342815 0.617268 -0.439218
v 0.215827 0.444434 -0.255757
v 0.107098 0.522960 -0.294336
v 0.441496 0.614823 -0.339288
v 0.291822 0.524561 -0.165375
v 0.610898 0.281940 -0.748028
v 0.567036 0.342621 -0.801133
v 0.675612 0.334796 -0.733401
v 0.683512 0.052359 -0.844686
v 0.051300 0.090059 -0.059787
v 0.039419 0.090059 -0.083085
v 0.010750 0.090059 -0.075820
v 0.039419 0.090059 -0.083085
v 0.051300 0.090059 -0.059787
v 0.016217 -0.249597 -0.017955
v 0.010750 0.090059 -0.075820
v -0.179956 0.769710 0.541179
v -0.262516 0.771137 0.527941
v -0.134073 0.732220 0.317940
v -0.056265 0.743306 0.353965
v 0.035591 0.730427 0.376816
v -0.108032 0.769673 0.579719
v 0.023478 0.508784 0.182513
v -0.022642 0.524176 0.155447
v -0.020570 0.090059 0.041431
v 0.006212 0.090059 0.038606
v 0.088744 0.523106 0.192935
v -0.289396 0.753312 0.695075
v -0.337431 0.763812 0.691211
v -0.258567 0.761627 0.728664
v -0.349241 0.711035 0.788568
v -0.020570 0.090059 0.041431
v -0.008177 -0.165720 0.007645
v 0.006212 0.090059 0.038606
vt -0.9071 -0.6253
vt -0.8948 -0.5504
vt -0.8736 -0.5561
vt -0.8819 -0.6247
vt -0.8511 -0.5537
vt -0.8570 -0.6285
vt -0.9155 -0.7090
vt -0.8885 -0.7054
vt -0.8880 -0.8055
vt -0.9001 -0.8100
vt -0.8619 -0.7130
vt -0.8763 -0.8110
vt -0.8673 -0.5008
vt -0.8794 -0.4970
vt -0.8544 -0.4957
vt -0.8631 -0.4575
vt -0.8724 -0.8701
vt -0.3673 -0.2113
vt -0.3364 -0.2204
vt -0.3457 -0.1369
vt -0.3788 -0.1401
vt -0.4074 -0.2037
vt -0.4103 -0.1370
vt -0.3463 -0.2966
vt -0.3719 -0.2774
vt -0.3860 -0.3519
vt -0.3800 -0.3613
vt -0.4133 -0.2628
vt -0.4088 -0.3457
vt -0.3839 -0.0579
vt -0.3956 -0.0669
vt -0.4166 -0.0649
vt -0.3913 -0.0308
vt -0.4425 -0.4167
vt -0.4381 -0.4178
vt -0.1015 -0.7328
vt -0.1578 -0.7420
vt -0.1675 -0.8156
vt -0.1176 -0.8150
vt -0.2168 -0.7445
vt -0.2199 -0.8252
vt -0.1271 -0.5570
vt -0.1388 -0.6841
vt -0.0779 -0.6660
vt -0.1058 -0.5489
vt -0.2032 -0.6784
vt -0.1520 -0.5495
vt -0.1604 -0.8987
vt -0.1325 -0.9024
vt -0.1895 -0.9135
vt -0.1592 -0.9655
vt -0.1417 -0.4173
vt -0.1384 -0.4155
vt -0.1569 -0.1191
vt -0.1518 -0.1645
vt -0.1279 -0.1596
vt -0.1343 -0.1182
vt -0.0995 -0.1568
vt -0.1110 -0.1127
vt -0.1504 -0.3039
vt -0.1407 -0.2994
vt -0.1300 -0.2041
vt -0.1568 -0.2116
vt -0.1005 -0.2038
vt -0.1255 -0.3000
vt -0.1490 -0.0863
vt -0.1587 -0.0854
vt -0.1337 -0.0799
vt -0.1639 -0.0644
vt -0.1328 -0.3732
vt -0.1344 -0.3743
vt -0.2793 -0.5626
vt -0.3104 -0.5573
vt -0.3223 -0.6418
vt -0.2855 -0.6403
vt -0.2501 -0.6423
vt -0.2472 -0.5584
vt -0.2624 -0.7968
vt -0.2852 -0.7051
vt -0.3236 -0.7100
vt -0.2803 -0.8015
vt -0.2462 -0.7113
vt -0.2460 -0.8012
vt -0.2718 -0.5036
vt -0.2909 -0.4985
vt -0.2548 -0.4956
vt -0.2639 -0.4608
vt -0.2613 -0.8501
vt -0.1868 -0.1027
vt -0.2038 -0.0782
vt -0.2441 -0.0782
vt -0.2343 -0.0992
vt -0.2850 -0.0725
vt -0.2808 -0.0955
vt -0.1833 -0.1567
vt -0.2337 -0.1470
vt -0.2400 -0.3262
vt -0.2005 -0.3361
vt -0.2813 -0.3287
vt -0.2827 -0.1498
vt -0.2469 -0.0451
vt -0.2218 -0.0389
vt -0.2676 -0.0333
vt -0.2493 -0.0214
vt -0.2354 -0.4294
vt -0.2271 -0.4272
vt -0.2182 -0.4308
vt -0.8350 -0.2428
vt -0.8394 -0.1502
vt -0.8729 -0.1541
vt -0.8734 -0.2388
vt -0.9068 -0.1479
vt -0.9120 -0.2393
vt -0.8328 -0.3176
vt -0.8742 -0.3089
vt -0.8762 -0.3675
vt -0.8495 -0.3782
vt -0.9153 -0.3147
vt -0.9052 -0.3745
vt -0.8727 -0.0884
vt -0.8531 -0.0844
vt -0.8911 -0.0793
vt -0.8725 -0.0392
vt -0.9078 -0.4536
vt -0.9002 -0.4497
vt -0.8942 -0.4545
vt -0.7298 -0.2331
vt -0.7225 -0.1519
vt -0.7514 -0.1618
vt -0.7613 -0.2371
vt -0.7811 -0.1642
vt -0.7967 -0.2465
vt -0.7214 -0.2923
vt -0.7559 -0.2934
vt -0.7410 -0.3329
vt -0.7216 -0.3376
vt -0.7932 -0.3074
vt -0.7699 -0.3462
vt -0.7358 -0.1003
vt -0.7213 -0.0932
vt -0.7534 -0.0965
vt -0.7250 -0.0645
vt -0.7601 -0.3831
vt -0.7518 -0.3784
vt -0.5583 -0.2429
vt -0.6191 -0.2488
vt -0.6243 -0.3064
vt -0.5710 -0.3064
vt -0.6801 -0.2512
vt -0.6791 -0.3137
vt -0.6221 -0.1458
vt -0.6139 -0.1986
vt -0.5488 -0.1867
vt -0.5887 -0.1367
vt -0.6811 -0.1957
vt -0.6598 -0.1361
vt -0.6236 -0.3643
vt -0.5904 -0.3692
vt -0.6511 -0.3771
vt -0.6370 -0.4164
vt -0.6526 -0.0549
vt -0.6618 -0.0512
vt -0.6459 -0.0513
vt -0.5155 -0.7302
vt -0.4762 -0.7306
vt -0.4766 -0.6382
vt -0.5201 -0.6458
vt -0.5684 -0.6486
vt -0.5566 -0.7389
vt -0.4840 -0.5290
vt -0.5065 -0.5785
vt -0.4590 -0.5669
vt -0.4559 -0.5154
vt -0.5574 -0.5771
vt -0.5223 -0.5241
vt -0.5011 -0.7961
vt -0.4817 -0.7989
vt -0.5262 -0.8075
vt -0.4903 -0.8339
vt -0.4896 -0.4619
vt -0.4989 -0.4605
vt -0.4841 -0.4568
vt -0.3946 -0.6057
vt -0.4241 -0.5978
vt -0.4179 -0.6780
vt -0.3865 -0.6780
vt -0.3517 -0.6853
vt -0.3641 -0.6049
vt -0.4072 -0.7699
vt -0.3838 -0.7238
vt -0.4164 -0.7254
vt -0.4202 -0.7730
vt -0.3934 -0.7742
vt -0.3460 -0.7338
vt -0.4050 -0.5462
vt -0.4209 -0.5405
vt -0.3884 -0.5410
vt -0.4113 -0.5111
vt -0.4381 -0.4178
vt -0.4425 -0.4167
vt -0.4370 -0.4217
vt -0.1417 -0.4173
vt -0.1384 -0.4155
vt -0.1356 -0.4034
vt -0.1328 -0.3732
vt -0.1344 -0.3743
vt -0.1388 -0.3893
vt -0.2271 -0.4272
vt -0.2354 -0.4294
vt -0.2232 -0.5068
vt -0.2182 -0.4308
vt -0.9002 -0.4497
vt -0.9078 -0.4536
vt -0.8967 -0.4832
vt -0.8942 -0.4545
vt -0.7518 -0.3784
vt -0.7601 -0.3831
vt -0.7485 -0.4063
vt -0.6618 -0.0512
vt -0.6526 -0.0549
vt -0.6700 -0.0351
vt -0.6459 -0.0513
vt -0.4989 -0.4605
vt -0.4896 -0.4619
vt -0.4922 -0.4509
vt -0.4841 -0.4568
vt -0.4072 -0.7699
vt -0.4202 -0.7730
vt -0.4240 -0.8102
vt -0.3934 -0.7742
vt -0.7862 -0.5527
vt -0.8195 -0.5467
vt -0.8318 -0.6381
vt -0.7928 -0.6365
vt -0.7541 -0.6394
vt -0.7516 -0.5485
vt -0.7964 -0.7584
vt -0.7970 -0.7053
vt -0.8387 -0.7109
vt -0.8245 -0.7668
vt -0.7555 -0.7132
vt -0.7683 -0.7665
vt -0.7807 -0.4875
vt -0.8001 -0.4824
vt -0.7614 -0.4797
vt -0.7766 -0.4388
vt -0.7853 -0.7993
vt -0.7764 -0.8036
vt -0.7941 -0.8037
vt -0.7853 -0.7993
vt -0.7941 -0.8037
vt 0.5000 0.5000
vt -0.7853 -0.7993
vt 0.5000 0.5000
vt -0.7764 -0.8036
vt -0.7102 -0.7099
vt -0.6928 -0.7441
vt -0.6498 -0.7427
vt -0.6593 -0.7129
vt -0.6054 -0.7465
vt -0.6089 -0.7134
vt -0.7140 -0.6506
vt -0.6605 -0.6590
vt -0.6583 -0.5756
vt -0.7011 -0.5640
vt -0.6069 -0.6536
vt -0.6139 -0.5682
vt -0.6472 -0.7870
vt -0.6731 -0.7915
vt -0.6237 -0.7959
vt -0.6466 -0.8248
vt -0.6650 -0.4530
vt -0.6741 -0.4564
vt -0.6834 -0.4521
vt -0.6741 -0.4564
vt -0.6650 -0.4530
vt -0.6664 -0.4006
vt -0.6834 -0.4521
vt -0.4789 -0.1666
vt -0.5099 -0.1578
vt -0.5026 -0.2344
vt -0.4692 -0.2363
vt -0.4333 -0.2439
vt -0.4472 -0.1669
vt -0.4720 -0.2951
vt -0.4928 -0.2955
vt -0.4766 -0.3575
vt -0.4713 -0.3591
vt -0.4475 -0.3020
vt -0.4896 -0.1081
vt -0.5070 -0.1020
vt -0.4730 -0.1036
vt -0.4938 -0.0736
vt -0.4766 -0.3575
vt 0.5000 0.5000
vt -0.4713 -0.3591
vn 0.1492 -0.9870 0.0603
vn 0.2326 -0.9722 0.0259
vn 0.1240 -0.9887 0.0839
vn 0.0813 -0.9836 0.1608
vn 0.6531 -0.4721 0.5921
vn 0.8580 -0.5070 0.0823
vn 0.5526 -0.4664 0.6907
vn 0.1208 -0.4749 0.8717
vn 0.0502 -0.9933 -0.1040
vn 0.3934 -0.8958 -0.2069
vn -0.1713 -0.9422 0.2880
vn -0.0272 -0.9990 -0.0355
vn 0.4782 -0.7879 0.3880
vn 0.3148 -0.8314 0.4579
vn 0.3970 -0.7887 0.4694
vn 0.4908 -0.8200 0.2944
vn 0.1833 -0.8328 -0.5224
vn -0.5135 -0.8510 0.1097
vn 0.2547 -0.2468 0.9350
vn 0.9115 -0.3637 0.1920
vn 0.2965 -0.8697 0.3946
vn 0.1284 -0.9338 0.3341
vn 0.1457 -0.9257 0.3490
vn 0.1897 -0.9134 0.3603
vn 0.1509 -0.4021 0.9031
vn 0.7328 -0.3702 0.5709
vn 0.0244 -0.4143 0.9098
vn -0.3257 -0.5249 0.7864
vn 0.2975 -0.8466 0.4414
vn 0.2205 -0.9423 0.2517
vn 0.2463 -0.9283 0.2788
vn 0.0721 -0.9787 0.1922
vn 0.2384 -0.6912 0.6822
vn 0.0610 -0.8687 0.4916
vn 0.2019 -0.7910 0.5776
vn 0.1352 -0.8391 0.5268
vn 0.7763 -0.5808 0.2451
vn 0.3049 -0.9316 -0.1976
vn 0.1039 -0.1375 0.9850
vn -0.3326 -0.1194 0.9355
vn 0.6316 -0.2094 0.7464
vn 0.5646 -0.8208 0.0871
vn 0.4450 -0.8954 0.0167
vn 0.4139 -0.9084 -0.0594
vn 0.4352 -0.8804 -0.1886
vn 0.9433 -0.3147 -0.1059
vn 0.9406 -0.3269 0.0916
vn 0.8389 -0.3402 -0.4249
vn 0.6465 -0.3993 -0.6501
vn -0.3977 -0.8369 0.3760
vn 0.2137 -0.6751 0.7061
vn -0.4736 -0.8622 0.1797
vn -0.2275 -0.8347 -0.5015
vn 0.7947 -0.4684 -0.3860
vn 0.8290 -0.4392 -0.3462
vn 0.9100 -0.4058 -0.0846
vn 0.9071 -0.3962 -0.1423
vn -0.5798 -0.3219 0.7485
vn -0.9284 -0.3179 -0.1924
vn 0.6799 -0.3278 -0.6559
vn 0.8115 -0.3144 -0.4925
vn 0.9263 -0.3600 0.1115
vn 0.5770 -0.7406 0.3443
vn 0.5390 -0.8009 0.2608
vn 0.4971 -0.8184 0.2881
vn 0.4596 -0.8655 0.1994
vn 0.9597 -0.2014 -0.1962
vn 0.8194 -0.3799 -0.4292
vn 0.6998 -0.4067 -0.5872
vn 0.3939 -0.5815 -0.7118
vn 0.3463 -0.7649 0.5432
vn 0.7127 -0.4782 0.5133
vn 0.1452 -0.9879 0.0546
vn 0.2830 -0.8211 0.4956
vn 0.7397 -0.6244 -0.2509
vn 0.6650 -0.6991 -0.2627
vn 0.8253 -0.5382 -0.1708
vn 0.7490 -0.6339 -0.1929
vn 0.2506 -0.3002 0.9204
vn -0.5694 -0.6975 0.4351
vn 0.4120 -0.3090 -0.8572
vn 0.7346 -0.2712 -0.6220
vn 0.9609 -0.2398 -0.1387
vn 0.1644 -0.9846 0.0593
vn 0.1014 -0.9948 -0.0018
vn 0.1806 -0.9790 0.0950
vn 0.1882 -0.9657 0.1789
vn -0.7861 -0.5028 0.3595
vn -0.7675 -0.6113 -0.1930
vn -0.7097 -0.4683 0.5262
vn -0.3956 -0.4227 0.8154
vn 0.3104 -0.9490 -0.0556
vn 0.0177 -0.9597 -0.2805
vn 0.3473 -0.8537 0.3881
vn 0.3569 -0.9333 0.0402
vn -0.2935 -0.9265 0.2357
vn -0.1605 -0.9205 0.3563
vn -0.2550 -0.9091 0.3293
vn -0.2614 -0.9549 0.1412
vn 0.2950 -0.8138 -0.5008
vn 0.6817 -0.6474 0.3408
vn -0.6149 -0.1843 0.7668
vn -0.9795 -0.2007 0.0177
vn 0.6037 -0.4376 0.6664
vn 0.6263 -0.4206 0.6564
vn 0.7523 -0.3981 0.5250
vn 0.7461 -0.3921 0.5381
vn -0.7032 -0.4853 -0.5195
vn -0.8656 -0.4911 -0.0977
vn -0.2675 -0.4312 -0.8617
vn -0.5384 -0.5390 -0.6477
vn 0.5682 -0.5273 0.6318
vn -0.1677 -0.6515 0.7399
vn 0.7108 -0.5150 0.4791
vn 0.7646 -0.5823 -0.2762
vn 0.0574 -0.9934 0.0994
vn 0.3798 -0.9238 0.0480
vn 0.1515 -0.9885 -0.0031
vn 0.1180 -0.9413 0.3162
vn 0.2337 -0.2801 0.9311
vn 0.9757 -0.2163 0.0357
vn -0.1708 -0.4760 -0.8627
vn -0.2247 -0.4689 -0.8542
vn -0.8599 -0.3258 -0.3930
vn -0.9106 -0.3191 -0.2625
vn 0.0279 -0.9996 -0.0045
vn 0.0701 -0.9946 0.0765
vn 0.0019 -0.9996 -0.0272
vn -0.0794 -0.9950 -0.0610
vn -0.3449 -0.8494 0.3994
vn 0.3886 -0.7897 0.4748
vn -0.3717 -0.8490 0.3756
vn -0.5259 -0.7996 -0.2900
vn 0.1805 -0.9764 -0.1186
vn 0.3129 -0.9230 0.2241
vn -0.2361 -0.9274 -0.2902
vn 0.1045 -0.9764 -0.1890
vn -0.2774 -0.9068 0.3175
vn -0.3351 -0.9216 0.1958
vn -0.2968 -0.9046 0.3060
vn -0.1586 -0.9207 0.3567
vn 0.5981 -0.8014 -0.0029
vn -0.1033 -0.7703 -0.6293
vn -0.8089 -0.5526 0.2007
vn -0.8508 -0.5175 0.0913
vn -0.0041 -0.6406 0.7678
vn 0.1647 -0.6119 0.7736
vn 0.0640 -0.9815 0.1803
vn 0.0659 -0.9685 0.2402
vn 0.0354 -0.9918 0.1228
vn 0.0391 -0.9831 0.1791
vn -0.3572 -0.9263 0.1196
vn 0.2162 -0.6948 0.6859
vn -0.3516 -0.9083 0.2267
vn 0.1424 -0.9455 -0.2929
vn 0.1830 -0.9646 0.1900
vn 0.1882 -0.8888 0.4178
vn 0.1115 -0.9799 0.1654
vn 0.0534 -0.9974 -0.0477
vn -0.3028 -0.9228 0.2381
vn -0.2654 -0.9577 0.1108
vn -0.3025 -0.9134 0.2725
vn -0.2681 -0.9583 0.0990
vn 0.5564 -0.7076 0.4356
vn 0.2803 -0.9431 -0.1792
vn -0.8779 -0.4756 -0.0552
vn -0.8135 -0.4698 -0.3428
vn -0.3222 -0.5079 0.7989
vn 0.0348 -0.9009 0.4327
vn 0.0969 -0.9501 0.2964
vn 0.1698 -0.9515 0.2565
vn 0.2982 -0.9157 0.2694
vn 0.2331 -0.4328 0.8708
vn -0.0850 -0.5093 0.8564
vn 0.5380 -0.4235 0.7289
vn 0.7763 -0.4985 0.3859
vn -0.3557 -0.7974 -0.4875
vn -0.6278 -0.7594 0.1709
vn -0.1676 -0.7935 -0.5850
vn 0.5327 -0.7433 -0.4047
vn 0.5076 -0.5545 0.6594
vn 0.4649 -0.5306 0.7087
vn 0.2058 -0.5339 0.8201
vn 0.2678 -0.5170 0.8130
vn -0.7821 -0.2958 -0.5484
vn 0.1122 -0.1562 -0.9813
vn 0.7180 -0.5228 0.4595
vn 0.7757 -0.5010 0.3838
vn -0.0423 -0.6328 0.7732
vn -0.1663 -0.6275 0.7607
vn -0.1866 -0.8937 0.4081
vn -0.1898 -0.8422 0.5047
vn -0.1721 -0.9062 0.3862
vn -0.0848 -0.9390 0.3332
vn 0.4904 -0.5239 0.6965
vn 0.0125 -0.4525 0.8917
vn 0.5634 -0.5835 0.5848
vn 0.4290 -0.9029 0.0280
vn -0.4453 -0.8533 0.2712
vn -0.3963 -0.6235 0.6739
vn 0.0333 -0.9994 -0.0091
vn -0.4010 -0.8950 0.1955
vn 0.3634 -0.7246 0.5855
vn 0.3674 -0.7762 0.5123
vn 0.3291 -0.6909 0.6436
vn 0.2443 -0.6749 0.6963
vn -0.8633 -0.4147 0.2875
vn -0.4431 -0.6395 -0.6282
vn 0.8411 -0.5403 0.0222
vn 0.8259 -0.5344 0.1797
vn -0.3728 -0.2353 0.8976
vn 0.1272 -0.3804 0.9160
vn 0.0001 -0.9837 -0.1797
vn -0.0024 -0.9873 -0.1585
vn 0.0141 -0.9783 -0.2069
vn 0.0112 -0.9828 -0.1841
vn -0.2149 -0.8177 -0.5340
vn -0.4001 -0.8693 -0.2902
vn -0.2516 -0.9660 0.0594
vn -0.2389 -0.9710 -0.0024
vn 0.1771 -0.9697 -0.1685
vn 0.1828 -0.9129 -0.3650
vn -0.0135 -0.9999 0.0046
vn 0.1530 -0.9802 -0.1257
vn 0.0388 -0.9962 0.0774
vn -0.0317 -0.9768 -0.2118
vn 0.2446 -0.8949 -0.3733
vn -0.0493 -0.9833 -0.1754
vn 0.5270 -0.7829 -0.3306
vn 0.2568 -0.9361 0.2403
vn 0.1048 -0.0361 0.9938
vn 0.8515 -0.0880 -0.5169
vn 0.7595 -0.0973 -0.6431
vn -0.1889 -0.2323 -0.9541
vn -0.8860 -0.2260 -0.4049
vn -0.9357 -0.2657 0.2322
vn -0.0053 -0.2067 0.9784
vn -0.9728 -0.2236 -0.0612
vn 0.8377 -0.1050 0.5360
vn -0.0532 -0.2262 0.9726
vn 0.9961 -0.0839 0.0263
vn -0.3834 -0.0268 0.9232
vn -0.7700 -0.3087 -0.5585
vn -0.9317 -0.3630 -0.0095
vn 0.0304 -0.9995 0.0107
vn 0.0848 -0.9947 -0.0587
vn -0.0036 -0.9995 0.0310
vn -0.0869 -0.9950 0.0487
vn -0.1969 -0.9133 -0.3566
vn 0.5058 -0.8271 -0.2451
vn -0.2384 -0.9119 -0.3340
vn -0.4902 -0.8233 0.2861
vn 0.1577 -0.9762 0.1487
vn 0.3494 -0.9228 -0.1623
vn -0.2850 -0.9272 0.2431
vn 0.0667 -0.9762 0.2062
vn -0.2190 -0.9236 -0.3146
vn -0.2788 -0.9322 -0.2309
vn -0.1903 -0.9220 -0.3373
vn -0.0758 -0.9323 -0.3536
vn 0.5876 -0.8014 0.1121
vn -0.2165 -0.7703 0.5998
vn -0.7475 -0.5696 -0.3416
vn -0.8017 -0.5645 -0.1967
vn -0.1571 -0.5885 -0.7931
vn 0.3024 -0.6401 -0.7063
vn -0.1849 -0.3059 -0.9339
vn -0.8826 -0.2416 -0.4033
vn -0.5630 -0.5807 0.5881
vn -0.5518 -0.5665 0.6120
vn -0.4095 -0.5517 0.7266
vn -0.4235 -0.5461 0.7228
vn 0.2942 -0.7889 -0.5396
vn -0.3642 -0.7651 -0.5310
vn 0.4297 -0.7865 -0.4436
vn 0.6300 -0.7627 0.1464
vn -0.5261 -0.6607 0.5355
vn -0.7047 -0.6816 -0.1968
vn -0.3600 -0.6565 0.6629
vn 0.3996 -0.6641 0.6319
vn -0.0441 -0.9988 0.0191
vn 0.0277 -0.9622 0.2709
vn -0.0032 -0.9990 0.0443
vn -0.2654 -0.9629 0.0487
vn -0.8773 -0.3933 0.2752
vn 0.0869 -0.3631 0.9277
vn 0.7627 -0.5167 -0.3890
vn 0.8221 -0.5210 -0.2294
vn -0.2253 -0.3986 -0.8890
vn 0.0019 -0.4388 -0.8986
vn 0.8812 -0.1464 -0.4494
vn -0.2422 -0.1667 -0.9558
vn -0.0422 -0.9867 0.1570
vn 0.0581 -0.9825 0.1769
vn -0.1576 -0.9843 0.0788
vn -0.0558 -0.9931 0.1032
vn -0.5467 -0.2151 0.8092
vn 0.0991 -0.3271 0.9398
vn -0.0802 -0.3210 0.9437
vn -0.0002 -0.9944 -0.1061
vn -0.2011 -0.9701 -0.1358
vn 0.0184 -0.9992 -0.0354
vn 0.2122 -0.9761 0.0469
vn -0.2698 -0.6264 0.7313
vn 0.0248 -0.6598 0.7511
vn -0.2526 -0.6255 0.7382
vn -0.5264 -0.6803 0.5100
vn -0.1493 -0.8616 -0.4852
vn 0.4052 -0.9021 -0.1486
vn 0.1041 -0.1253 0.9866
s off
f 1/1/1 2/2/1 3/3/1
f 4/4/2 1/1/2 3/3/2
f 3/3/3 5/5/3 6/6/3
f 4/4/4 3/3/4 6/6/4
f 7/7/5 8/8/5 9/9/5
f 10/10/6 7/7/6 9/9/6
f 9/9/7 8/8/7 11/11/7
f 12/12/8 9/9/8 11/11/8
f 13/13/9 3/3/9 2/2/9
f 13/13/10 2/2/10 14/14/10
f 13/13/11 15/15/11 5/5/11
f 3/3/12 13/13/12 5/5/12
f 6/6/13 11/11/13 8/8/13
f 8/8/14 4/4/14 6/6/14
f 7/7/15 1/1/15 8/8/15
f 8/8/16 1/1/16 4/4/16
f 13/13/17 14/14/17 16/16/17
f 13/13/18 16/16/18 15/15/18
f 17/17/19 9/9/19 12/12/19
f 17/17/20 10/10/20 9/9/20
f 18/18/21 19/19/21 20/20/21
f 18/18/22 20/20/22 21/21/22
f 22/22/23 18/18/23 21/21/23
f 22/22/24 21/21/24 23/23/24
f 24/24/25 25/25/25 26/26/25
f 27/27/26 24/24/26 26/26/26
f 26/26/27 25/25/27 28/28/27
f 29/29/28 26/26/28 28/28/28
f 20/20/29 30/30/29 31/31/29
f 21/21/30 20/20/30 31/31/30
f 23/23/31 21/21/31 31/31/31
f 31/31/32 32/32/32 23/23/32
f 22/22/33 28/28/33 25/25/33
f 25/25/34 18/18/34 22/22/34
f 24/24/35 19/19/35 18/18/35
f 25/25/36 24/24/36 18/18/36
f 31/31/37 30/30/37 33/33/37
f 31/31/38 33/33/38 32/32/38
f 29/29/39 34/34/39 35/35/39
f 35/35/40 26/26/40 29/29/40
f 35/35/41 27/27/41 26/26/41
f 36/36/42 37/37/42 38/38/42
f 38/38/43 39/39/43 36/36/43
f 40/40/44 41/41/44 38/38/44
f 40/40/45 38/38/45 37/37/45
f 42/42/46 43/43/46 44/44/46
f 42/42/47 44/44/47 45/45/47
f 46/46/48 43/43/48 42/42/48
f 47/47/49 46/46/49 42/42/49
f 39/39/50 38/38/50 48/48/50
f 49/49/51 39/39/51 48/48/51
f 48/48/52 38/38/52 41/41/52
f 41/41/53 50/50/53 48/48/53
f 43/43/54 46/46/54 40/40/54
f 40/40/55 37/37/55 43/43/55
f 36/36/56 44/44/56 43/43/56
f 37/37/57 36/36/57 43/43/57
f 51/51/58 49/49/58 48/48/58
f 50/50/59 51/51/59 48/48/59
f 47/47/60 42/42/60 52/52/60
f 45/45/61 53/53/61 52/52/61
f 42/42/62 45/45/62 52/52/62
f 54/54/63 55/55/63 56/56/63
f 57/57/64 54/54/64 56/56/64
f 58/58/65 59/59/65 57/57/65
f 58/58/66 57/57/66 56/56/66
f 60/60/67 61/61/67 62/62/67
f 62/62/68 63/63/68 60/60/68
f 64/64/69 62/62/69 61/61/69
f 65/65/70 64/64/70 61/61/70
f 54/54/71 57/57/71 66/66/71
f 67/67/72 54/54/72 66/66/72
f 59/59/73 68/68/73 66/66/73
f 57/57/74 59/59/74 66/66/74
f 62/62/75 64/64/75 58/58/75
f 58/58/76 56/56/76 62/62/76
f 56/56/77 55/55/77 63/63/77
f 62/62/78 56/56/78 63/63/78
f 69/69/79 67/67/79 66/66/79
f 68/68/80 69/69/80 66/66/80
f 65/65/81 61/61/81 70/70/81
f 60/60/82 71/71/82 70/70/82
f 61/61/83 60/60/83 70/70/83
f 72/72/84 73/73/84 74/74/84
f 75/75/85 72/72/85 74/74/85
f 76/76/86 77/77/86 72/72/86
f 76/76/87 72/72/87 75/75/87
f 78/78/88 79/79/88 80/80/88
f 78/78/89 80/80/89 81/81/89
f 82/82/90 79/79/90 78/78/90
f 83/83/91 82/82/91 78/78/91
f 73/73/92 72/72/92 84/84/92
f 85/85/93 73/73/93 84/84/93
f 77/77/94 86/86/94 84/84/94
f 72/72/95 77/77/95 84/84/95
f 79/79/96 82/82/96 76/76/96
f 76/76/97 75/75/97 79/79/97
f 74/74/98 80/80/98 79/79/98
f 75/75/99 74/74/99 79/79/99
f 87/87/100 85/85/100 84/84/100
f 86/86/101 87/87/101 84/84/101
f 83/83/102 78/78/102 88/88/102
f 78/78/103 81/81/103 88/88/103
f 89/89/104 90/90/104 91/91/104
f 92/92/105 89/89/105 91/91/105
f 91/91/106 93/93/106 94/94/106
f 92/92/107 91/91/107 94/94/107
f 95/95/108 96/96/108 97/97/108
f 98/98/109 95/95/109 97/97/109
f 99/99/110 97/97/110 96/96/110
f 99/99/111 96/96/111 100/100/111
f 101/101/112 91/91/112 90/90/112
f 101/101/113 90/90/113 102/102/113
f 93/93/114 91/91/114 101/101/114
f 101/101/115 103/103/115 93/93/115
f 94/94/116 100/100/116 96/96/116
f 96/96/117 92/92/117 94/94/117
f 96/96/118 95/95/118 89/89/118
f 96/96/119 89/89/119 92/92/119
f 101/101/120 102/102/120 104/104/120
f 101/101/121 104/104/121 103/103/121
f 99/99/122 105/105/122 106/106/122
f 106/106/123 97/97/123 99/99/123
f 106/106/124 107/107/124 98/98/124
f 106/106/125 98/98/125 97/97/125
f 108/108/126 109/109/126 110/110/126
f 111/111/127 108/108/127 110/110/127
f 110/110/128 112/112/128 113/113/128
f 111/111/129 110/110/129 113/113/129
f 114/114/130 115/115/130 116/116/130
f 117/117/131 114/114/131 116/116/131
f 116/116/132 115/115/132 118/118/132
f 119/119/133 116/116/133 118/118/133
f 120/120/134 110/110/134 109/109/134
f 120/120/135 109/109/135 121/121/135
f 120/120/136 122/122/136 112/112/136
f 110/110/137 120/120/137 112/112/137
f 113/113/138 118/118/138 115/115/138
f 115/115/139 111/111/139 113/113/139
f 115/115/140 114/114/140 108/108/140
f 115/115/141 108/108/141 111/111/141
f 120/120/142 121/121/142 123/123/142
f 120/120/143 123/123/143 122/122/143
f 119/119/144 124/124/144 125/125/144
f 125/125/145 116/116/145 119/119/145
f 125/125/146 126/126/146 117/117/146
f 125/125/147 117/117/147 116/116/147
f 127/127/148 128/128/148 129/129/148
f 130/130/149 127/127/149 129/129/149
f 131/131/150 132/132/150 130/130/150
f 130/130/151 129/129/151 131/131/151
f 133/133/152 134/134/152 135/135/152
f 136/136/153 133/133/153 135/135/153
f 135/135/154 134/134/154 137/137/154
f 138/138/155 135/135/155 137/137/155
f 139/139/156 129/129/156 128/128/156
f 139/139/157 128/128/157 140/140/157
f 141/141/158 131/131/158 129/129/158
f 139/139/159 141/141/159 129/129/159
f 132/132/160 137/137/160 134/134/160
f 134/134/161 130/130/161 132/132/161
f 133/133/162 127/127/162 130/130/162
f 134/134/163 133/133/163 130/130/163
f 139/139/164 140/140/164 142/142/164
f 139/139/165 142/142/165 141/141/165
f 138/138/166 143/143/166 144/144/166
f 144/144/167 135/135/167 138/138/167
f 144/144/168 136/136/168 135/135/168
f 145/145/169 146/146/169 147/147/169
f 147/147/170 148/148/170 145/145/170
f 149/149/171 150/150/171 147/147/171
f 149/149/172 147/147/172 146/146/172
f 151/151/173 152/152/173 153/153/173
f 151/151/174 153/153/174 154/154/174
f 155/155/175 152/152/175 151/151/175
f 156/156/176 155/155/176 151/151/176
f 148/148/177 147/147/177 157/157/177
f 158/158/178 148/148/178 157/157/178
f 157/157/179 147/147/179 150/150/179
f 150/150/180 159/159/180 157/157/180
f 152/152/181 155/155/181 149/149/181
f 149/149/182 146/146/182 152/152/182
f 145/145/183 153/153/183 152/152/183
f 146/146/184 145/145/184 152/152/184
f 160/160/185 158/158/185 157/157/185
f 159/159/186 160/160/186 157/157/186
f 161/161/187 162/162/187 156/156/187
f 156/156/188 151/151/188 161/161/188
f 154/154/189 163/163/189 161/161/189
f 151/151/190 154/154/190 161/161/190
f 164/164/191 165/165/191 166/166/191
f 167/167/192 164/164/192 166/166/192
f 168/168/193 169/169/193 164/164/193
f 168/168/194 164/164/194 167/167/194
f 170/170/195 171/171/195 172/172/195
f 170/170/196 172/172/196 173/173/196
f 174/174/197 171/171/197 170/170/197
f 175/175/198 174/174/198 170/170/198
f 165/165/199 164/164/199 176/176/199
f 177/177/200 165/165/200 176/176/200
f 169/169/201 178/178/201 176/176/201
f 164/164/202 169/169/202 176/176/202
f 171/171/203 174/174/203 168/168/203
f 168/168/204 167/167/204 171/171/204
f 166/166/205 172/172/205 171/171/205
f 167/167/206 166/166/206 171/171/206
f 179/179/207 177/177/207 176/176/207
f 178/178/208 179/179/208 176/176/208
f 180/180/209 181/181/209 175/175/209
f 175/175/210 170/170/210 180/180/210
f 173/173/211 182/182/211 180/180/211
f 170/170/212 173/173/212 180/180/212
f 183/183/213 184/184/213 185/185/213
f 186/186/214 183/183/214 185/185/214
f 186/186/215 187/187/215 188/188/215
f 188/188/216 183/183/216 186/186/216
f 189/189/217 190/190/217 191/191/217
f 189/189/218 191/191/218 192/192/218
f 193/193/219 194/194/219 190/190/219
f 193/193/220 190/190/220 189/189/220
f 184/184/221 183/183/221 195/195/221
f 196/196/222 184/184/222 195/195/222
f 188/188/223 197/197/223 195/195/223
f 183/183/224 188/188/224 195/195/224
f 190/190/225 194/194/225 187/187/225
f 187/187/226 186/186/226 190/190/226
f 185/185/227 191/191/227 190/190/227
f 186/186/228 185/185/228 190/190/228
f 198/198/229 196/196/229 195/195/229
f 197/197/230 198/198/230 195/195/230
f 199/199/231 200/200/231 201/201/231
f 202/202/232 203/203/232 204/204/232
f 205/205/233 206/206/233 207/207/233
f 208/208/234 209/209/234 210/210/234
f 211/211/235 208/208/235 210/210/235
f 212/212/236 213/213/236 214/214/236
f 215/215/237 212/212/237 214/214/237
f 216/216/238 217/217/238 218/218/238
f 219/219/239 220/220/239 221/221/239
f 220/220/240 222/222/240 221/221/240
f 223/223/241 224/224/241 225/225/241
f 224/224/242 226/226/242 225/225/242
f 227/227/243 228/228/243 229/229/243
f 230/230/244 227/227/244 229/229/244
f 231/231/245 232/232/245 233/233/245
f 234/234/246 231/231/246 233/233/246
f 235/235/247 236/236/247 231/231/247
f 235/235/248 231/231/248 234/234/248
f 237/237/249 238/238/249 239/239/249
f 237/237/250 239/239/250 240/240/250
f 241/241/251 238/238/251 237/237/251
f 242/242/252 241/241/252 237/237/252
f 232/232/253 231/231/253 243/243/253
f 244/244/254 232/232/254 243/243/254
f 236/236/255 245/245/255 243/243/255
f 231/231/256 236/236/256 243/243/256
f 238/238/257 241/241/257 235/235/257
f 235/235/258 234/234/258 238/238/258
f 233/233/259 239/239/259 238/238/259
f 234/234/260 233/233/260 238/238/260
f 246/246/261 244/244/261 243/243/261
f 245/245/262 246/246/262 243/243/262
f 247/247/263 248/248/263 242/242/263
f 242/242/264 237/237/264 247/247/264
f 240/240/265 249/249/265 247/247/265
f 237/237/266 240/240/266 247/247/266
f 250/250/267 251/251/267 252/252/267
f 253/253/268 254/254/268 255/255/268
f 256/256/269 257/257/269 258/258/269
f 259/259/270 256/256/270 258/258/270
f 258/258/271 260/260/271 261/261/271
f 259/259/272 258/258/272 261/261/272
f 262/262/273 263/263/273 264/264/273
f 265/265/274 262/262/274 264/264/274
f 264/264/275 263/263/275 266/266/275
f 267/267/276 264/264/276 266/266/276
f 268/268/277 258/258/277 257/257/277
f 268/268/278 257/257/278 269/269/278
f 260/260/279 258/258/279 268/268/279
f 268/268/280 270/270/280 260/260/280
f 261/261/281 266/266/281 263/263/281
f 263/263/282 259/259/282 261/261/282
f 263/263/283 262/262/283 256/256/283
f 263/263/284 256/256/284 259/259/284
f 268/268/285 269/269/285 271/271/285
f 268/268/286 271/271/286 270/270/286
f 267/267/287 272/272/287 273/273/287
f 273/273/288 264/264/288 267/267/288
f 273/273/289 274/274/289 265/265/289
f 273/273/290 265/265/290 264/264/290
f 275/275/291 276/276/291 277/277/291
f 278/278/292 275/275/292 277/277/292
f 279/279/293 280/280/293 281/281/293
f 282/282/294 279/279/294 281/281/294
f 282/282/295 283/283/295 284/284/295
f 284/284/296 279/279/296 282/282/296
f 285/285/297 286/286/297 287/287/297
f 285/285/298 287/287/298 288/288/298
f 289/289/299 285/285/299 288/288/299
f 280/280/300 279/279/300 290/290/300
f 291/291/301 280/280/301 290/290/301
f 279/279/302 284/284/302 292/292/302
f 279/279/303 292/292/303 290/290/303
f 283/283/304 282/282/304 285/285/304
f 289/289/305 283/283/305 285/285/305
f 285/285/306 282/282/306 281/281/306
f 285/285/307 281/281/307 286/286/307
f 293/293/308 291/291/308 290/290/308
f 292/292/309 293/293/309 290/290/309
f 294/294/310 295/295/310 296/296/310
o ithplantA
v 0.788892 1.327870 0.575688
v 0.606812 1.286450 0.348341
v 0.713605 1.319280 0.621365
v 0.539092 1.272200 0.421564
v 0.658203 1.318290 0.691580
v 0.459081 1.275580 0.482706
v 0.403938 1.135650 0.266526
v 0.468370 1.116870 0.180473
v 0.228236 0.699412 0.112490
v 0.248872 0.726884 0.066574
v 0.308284 1.105130 0.322435
v 0.179918 0.722442 0.131732
v 0.855571 1.309740 0.780960
v 0.900116 1.334990 0.756334
v 0.834580 1.328860 0.831025
v 0.968777 1.257320 0.904254
v 0.006212 0.090059 0.012158
v 0.004201 1.065640 0.448602
v -0.069260 1.030250 0.425812
v -0.173547 1.095050 0.646987
v -0.227371 1.067150 0.589689
v -0.156629 1.001300 0.385501
v -0.290515 1.038790 0.551032
v 0.049794 0.939570 0.250827
v 0.133190 0.946078 0.239792
v 0.073247 0.616798 0.103203
v 0.102368 0.651410 0.088271
v -0.053316 0.879911 0.226420
v 0.020098 0.622577 0.085045
v -0.394955 1.092480 0.791302
v -0.399012 1.070080 0.751070
v -0.440831 1.061900 0.725111
v -0.460623 1.029110 0.849142
v -0.020570 0.090059 0.014983
v 0.006212 0.090059 0.012158
v 0.598644 1.706830 -0.313404
v 0.641162 1.751610 -0.167045
v 0.750186 1.801360 -0.404955
v 0.804601 1.830690 -0.282115
v 0.712838 1.793300 -0.542057
v 0.538223 1.708380 -0.460076
v 0.491899 1.426590 -0.213521
v 0.285544 0.767520 -0.093206
v 0.520046 1.455130 -0.047639
v 0.291318 0.800816 -0.033683
v 0.407642 1.409340 -0.366053
v 0.241130 0.783801 -0.147378
v 0.941521 1.683980 -0.463838
v 0.980749 1.764300 -0.398910
v 0.941660 1.735050 -0.548904
v 1.040220 1.418570 -0.501535
v 0.015239 0.090059 -0.034781
v 0.030303 0.090059 -0.009962
v 0.304444 1.378700 -0.617022
v 0.459138 1.385350 -0.861992
v 0.230909 1.288440 -0.687953
v 0.378716 1.316230 -0.908043
v 0.309068 1.248320 -0.980783
v 0.134556 1.221890 -0.754737
v 0.125128 0.698439 -0.214805
v 0.147403 0.762985 -0.172100
v 0.165628 1.147210 -0.477331
v 0.241969 1.209960 -0.387128
v 0.058141 1.042100 -0.532640
v 0.067489 0.689256 -0.239198
v 0.528381 1.276200 -1.059830
v 0.566694 1.346840 -1.047220
v 0.491014 1.267210 -1.123140
v 0.637025 1.141690 -1.133290
v -0.004028 0.090059 -0.057536
v 0.015239 0.090059 -0.034781
v -0.835978 0.818005 0.179806
v -0.783846 0.830939 0.250059
v -0.581068 0.851987 0.037295
v -0.543811 0.855619 0.130818
v -0.760532 0.843537 0.335557
v -0.496992 0.880611 0.216483
v -0.337325 0.786416 0.045045
v -0.112750 0.416337 0.018572
v -0.365375 0.757335 -0.056977
v -0.118426 0.439538 -0.032358
v -0.272958 0.788610 0.133809
v -0.080270 0.453341 0.053511
v -0.962945 0.766637 0.347542
v -1.001080 0.777803 0.306930
v -0.968831 0.788328 0.400528
v -1.090020 0.673284 0.424376
v -0.046342 0.090059 -0.006602
v -0.626950 0.893508 -0.595111
v -0.602334 1.065610 -0.504410
v -0.545010 0.890505 -0.671311
v -0.513888 1.043610 -0.602897
v -0.475518 0.901641 -0.762439
v -0.428229 1.073790 -0.699679
v -0.399403 1.096660 -0.487711
v -0.478313 1.084200 -0.369255
v -0.123775 0.433853 -0.241613
v -0.180092 0.513511 -0.143083
v -0.033432 0.522229 -0.313879
v -0.292818 1.094160 -0.574223
v -0.619462 0.709368 -0.755539
v -0.685574 0.763845 -0.722561
v -0.605977 0.759055 -0.822955
v -0.671914 0.462697 -0.816571
v -0.028047 0.090059 -0.076520
v -0.052276 0.090059 -0.071722
v -0.063501 0.090059 -0.047159
v -0.614399 0.561064 0.881126
v -0.405922 0.567812 0.673647
v -0.667291 0.559903 0.810207
v -0.484887 0.557504 0.611928
v -0.742885 0.561064 0.762409
v -0.554492 0.567483 0.539768
v -0.334692 0.467955 0.447539
v -0.239897 0.455782 0.503509
v -0.211270 0.351872 0.307270
v -0.139374 0.401778 0.331433
v -0.397285 0.455782 0.358087
v -0.249392 0.402236 0.237529
v -0.809299 0.515020 0.963617
v -0.781843 0.535350 1.009020
v -0.862610 0.532577 0.950876
v -0.915362 0.435444 1.078440
v -0.082975 0.090059 0.048777
v -0.077292 0.090059 0.071680
v -0.056091 0.090059 0.071794
v -0.740048 0.400540 0.298927
v -0.502606 0.398955 0.206038
v -0.731200 0.385924 0.216217
v -0.513147 0.377512 0.122476
v -0.510587 0.365405 0.023978
v -0.745215 0.371252 0.138727
v -0.341251 0.325509 0.084714
v -0.319613 0.328622 0.173436
v -0.212401 0.276036 0.086368
v -0.184459 0.329258 0.131471
v -0.325941 0.292745 -0.022800
v -0.193330 0.305390 0.000876
v -0.903576 0.372104 0.312082
v -0.914538 0.390132 0.355373
v -0.927662 0.372790 0.270792
v -1.002800 0.331169 0.372329
v -0.076116 0.090059 -0.007850
v -0.078016 0.090059 0.022348
v 0.218811 1.041490 0.668436
v 0.075124 1.066230 0.731490
v 0.319301 1.119850 0.823504
v 0.201348 1.129660 0.893514
v 0.451720 1.129660 0.772263
v 0.357501 1.065090 0.595127
v 0.129783 0.783636 0.533776
v 0.066472 0.429227 0.374595
v -0.032572 0.801243 0.585992
v -0.021431 0.474780 0.392958
v 0.274120 0.801243 0.437467
v 0.134875 0.476371 0.297903
v 0.407082 0.980665 0.987137
v 0.341194 1.048090 1.044730
v 0.487736 1.038450 0.987164
v 0.474442 0.707797 1.038260
v 0.008129 0.090059 0.056403
v -0.006272 0.090059 0.078908
v -0.026748 0.090059 0.077787
v 0.770669 0.794496 0.427185
v 0.812531 0.742619 0.332723
v 0.511383 0.789573 0.297834
v 0.580192 0.718054 0.204373
v 0.881941 0.692680 0.246457
v 0.640680 0.672946 0.092661
v 0.375859 0.581021 0.143266
v 0.211958 0.407939 0.128475
v 0.291323 0.631750 0.240951
v 0.143090 0.501216 0.176778
v 0.427626 0.507030 0.019571
v 0.240076 0.418244 0.029923
v 0.982265 0.694086 0.458723
v 0.968842 0.756757 0.508819
v 1.041590 0.696468 0.414456
v 1.076690 0.551781 0.536979
v 0.030303 0.090059 -0.009962
v 0.029465 0.090059 0.021816
v 0.006212 0.090059 0.012158
v -0.615513 0.177813 -0.247604
v -0.619507 0.162802 -0.165432
v -0.387992 0.157966 -0.138822
v -0.417086 0.145557 -0.061101
v -0.427683 0.125439 0.033288
v -0.649850 0.148524 -0.091042
v -0.286277 0.128285 -0.001019
v -0.130840 0.090059 -0.005037
v -0.251645 0.170589 -0.079733
v -0.110149 0.090059 -0.033565
v -0.291938 0.136219 0.103990
v -0.131237 0.090059 0.033992
v -0.782854 0.149527 -0.260679
v -0.785034 0.167443 -0.306579
v -0.813384 0.150100 -0.225817
v -0.879024 0.108644 -0.317154
v -0.020570 0.090059 0.014983
v 0.006212 0.090059 0.012158
v 0.001438 -0.249597 0.000329
v 0.030303 0.090059 -0.009962
v 0.015239 0.090059 -0.034781
v 0.001438 -0.249597 0.000329
v 0.015239 0.090059 -0.034781
v -0.004028 0.090059 -0.057536
v 0.001438 -0.249597 0.000329
v -0.028047 0.090059 -0.076520
v -0.052276 0.090059 -0.071722
v 0.001438 -0.249597 0.000329
v -0.063501 0.090059 -0.047159
v -0.082975 0.090059 0.048777
v -0.077292 0.090059 0.071680
v 0.001438 -0.249597 0.000329
v -0.056091 0.090059 0.071794
v -0.076116 0.090059 -0.007850
v -0.078016 0.090059 0.022348
v 0.001438 -0.249597 0.000329
v -0.006272 0.090059 0.078908
v 0.008129 0.090059 0.056403
v 0.001438 -0.249597 0.000329
v -0.026748 0.090059 0.077787
v 0.029465 0.090059 0.021816
v 0.030303 0.090059 -0.009962
v 0.001438 -0.249597 0.000329
v 0.006212 0.090059 0.012158
v -0.110149 0.090059 -0.033565
v -0.130840 0.090059 -0.005037
v 0.001438 -0.249597 0.000329
v -0.131237 0.090059 0.033992
v -0.362682 0.338786 -0.834717
v -0.427566 0.337455 -0.774643
v -0.195993 0.346457 -0.592645
v -0.284898 0.336150 -0.546414
v -0.510689 0.338786 -0.741462
v -0.366514 0.346129 -0.488152
v -0.170895 0.255321 -0.357725
v -0.091136 0.179194 -0.206778
v -0.069634 0.248355 -0.395803
v -0.015820 0.229101 -0.219753
v -0.250932 0.248355 -0.281571
v -0.141137 0.229558 -0.147521
v -0.539136 0.292494 -0.951405
v -0.503850 0.312825 -0.991026
v -0.593877 0.310052 -0.948614
v -0.622445 0.212919 -1.083660
v -0.063501 0.090059 -0.084798
v -0.052276 0.090059 -0.109361
v -0.028047 0.090059 -0.114159
v -0.028047 0.090059 -0.114159
v -0.052276 0.090059 -0.109361
v -0.006985 -0.241917 -0.009586
v -0.006985 -0.241917 -0.009586
v -0.052276 0.090059 -0.109361
v -0.063501 0.090059 -0.084798
v 0.437715 0.450188 -0.710589
v 0.338038 0.607918 -0.650266
v 0.522433 0.441629 -0.637930
v 0.446937 0.581642 -0.576391
v 0.619566 0.450188 -0.576698
v 0.550064 0.607021 -0.496793
v 0.342815 0.617268 -0.439218
v 0.218739 0.614823 -0.503296
v 0.215827 0.444434 -0.255757
v 0.107098 0.522960 -0.294336
v 0.441496 0.614823 -0.339288
v 0.291822 0.524561 -0.165375
v 0.610898 0.281940 -0.748028
v 0.567036 0.342621 -0.801133
v 0.675612 0.334796 -0.733401
v 0.683512 0.052359 -0.844686
v 0.051300 0.090059 -0.059787
v 0.039419 0.090059 -0.083085
v 0.010750 0.090059 -0.075820
v 0.051300 0.090059 -0.059787
v 0.039419 0.090059 -0.083085
v 0.016217 -0.249597 -0.017955
v 0.010750 0.090059 -0.075820
v -0.262516 0.771137 0.527941
v -0.179956 0.769710 0.541179
v -0.134073 0.732220 0.317940
v -0.056265 0.743306 0.353965
v 0.035591 0.730427 0.376816
v -0.108032 0.769673 0.579719
v -0.022642 0.524176 0.155447
v 0.023478 0.508784 0.182513
v -0.020570 0.090059 0.041431
v 0.006212 0.090059 0.038606
v 0.088744 0.523106 0.192935
v -0.289396 0.753312 0.695075
v -0.337431 0.763812 0.691211
v -0.258567 0.761627 0.728664
v -0.349241 0.711035 0.788568
v -0.008177 -0.165720 0.007645
v -0.020570 0.090059 0.041431
v 0.006212 0.090059 0.038606
vt -0.8948 -0.5504
vt -0.9071 -0.6253
vt -0.8736 -0.5561
vt -0.8819 -0.6247
vt -0.8511 -0.5537
vt -0.8570 -0.6285
vt -0.8885 -0.7054
vt -0.9155 -0.7090
vt -0.8880 -0.8055
vt -0.9001 -0.8100
vt -0.8619 -0.7130
vt -0.8763 -0.8110
vt -0.8673 -0.5008
vt -0.8794 -0.4970
vt -0.8544 -0.4957
vt -0.8631 -0.4575
vt -0.8724 -0.8701
vt -0.3364 -0.2204
vt -0.3673 -0.2113
vt -0.3457 -0.1369
vt -0.3788 -0.1401
vt -0.4074 -0.2037
vt -0.4103 -0.1370
vt -0.3719 -0.2774
vt -0.3463 -0.2966
vt -0.3860 -0.3519
vt -0.3800 -0.3613
vt -0.4133 -0.2628
vt -0.4088 -0.3457
vt -0.3839 -0.0579
vt -0.3956 -0.0669
vt -0.4166 -0.0649
vt -0.3913 -0.0308
vt -0.4425 -0.4167
vt -0.4381 -0.4178
vt -0.1578 -0.7420
vt -0.1015 -0.7328
vt -0.1675 -0.8156
vt -0.1176 -0.8150
vt -0.2199 -0.8252
vt -0.2168 -0.7445
vt -0.1388 -0.6841
vt -0.1271 -0.5570
vt -0.0779 -0.6660
vt -0.1058 -0.5489
vt -0.2032 -0.6784
vt -0.1520 -0.5495
vt -0.1604 -0.8987
vt -0.1325 -0.9024
vt -0.1895 -0.9135
vt -0.1592 -0.9655
vt -0.1417 -0.4173
vt -0.1384 -0.4155
vt -0.1518 -0.1645
vt -0.1569 -0.1191
vt -0.1279 -0.1596
vt -0.1343 -0.1182
vt -0.1110 -0.1127
vt -0.0995 -0.1568
vt -0.1407 -0.2994
vt -0.1504 -0.3039
vt -0.1300 -0.2041
vt -0.1568 -0.2116
vt -0.1005 -0.2038
vt -0.1255 -0.3000
vt -0.1490 -0.0863
vt -0.1587 -0.0854
vt -0.1337 -0.0799
vt -0.1639 -0.0644
vt -0.1328 -0.3732
vt -0.1344 -0.3743
vt -0.3104 -0.5573
vt -0.2793 -0.5626
vt -0.3223 -0.6418
vt -0.2855 -0.6403
vt -0.2472 -0.5584
vt -0.2501 -0.6423
vt -0.2852 -0.7051
vt -0.2624 -0.7968
vt -0.3236 -0.7100
vt -0.2803 -0.8015
vt -0.2462 -0.7113
vt -0.2460 -0.8012
vt -0.2718 -0.5036
vt -0.2909 -0.4985
vt -0.2548 -0.4956
vt -0.2639 -0.4608
vt -0.2613 -0.8501
vt -0.2038 -0.0782
vt -0.1868 -0.1027
vt -0.2441 -0.0782
vt -0.2343 -0.0992
vt -0.2850 -0.0725
vt -0.2808 -0.0955
vt -0.2337 -0.1470
vt -0.1833 -0.1567
vt -0.2400 -0.3262
vt -0.2005 -0.3361
vt -0.2813 -0.3287
vt -0.2827 -0.1498
vt -0.2469 -0.0451
vt -0.2218 -0.0389
vt -0.2676 -0.0333
vt -0.2493 -0.0214
vt -0.2354 -0.4294
vt -0.2271 -0.4272
vt -0.2182 -0.4308
vt -0.8394 -0.1502
vt -0.8350 -0.2428
vt -0.8729 -0.1541
vt -0.8734 -0.2388
vt -0.9068 -0.1479
vt -0.9120 -0.2393
vt -0.8742 -0.3089
vt -0.8328 -0.3176
vt -0.8762 -0.3675
vt -0.8495 -0.3782
vt -0.9153 -0.3147
vt -0.9052 -0.3745
vt -0.8727 -0.0884
vt -0.8531 -0.0844
vt -0.8911 -0.0793
vt -0.8725 -0.0392
vt -0.9078 -0.4536
vt -0.9002 -0.4497
vt -0.8942 -0.4545
vt -0.7225 -0.1519
vt -0.7298 -0.2331
vt -0.7514 -0.1618
vt -0.7613 -0.2371
vt -0.7967 -0.2465
vt -0.7811 -0.1642
vt -0.7559 -0.2934
vt -0.7214 -0.2923
vt -0.7410 -0.3329
vt -0.7216 -0.3376
vt -0.7932 -0.3074
vt -0.7699 -0.3462
vt -0.7358 -0.1003
vt -0.7213 -0.0932
vt -0.7534 -0.0965
vt -0.7250 -0.0645
vt -0.7601 -0.3831
vt -0.7518 -0.3784
vt -0.6191 -0.2488
vt -0.5583 -0.2429
vt -0.6243 -0.3064
vt -0.5710 -0.3064
vt -0.6791 -0.3137
vt -0.6801 -0.2512
vt -0.6139 -0.1986
vt -0.6221 -0.1458
vt -0.5488 -0.1867
vt -0.5887 -0.1367
vt -0.6811 -0.1957
vt -0.6598 -0.1361
vt -0.6236 -0.3643
vt -0.5904 -0.3692
vt -0.6511 -0.3771
vt -0.6370 -0.4164
vt -0.6618 -0.0512
vt -0.6526 -0.0549
vt -0.6459 -0.0513
vt -0.4762 -0.7306
vt -0.5155 -0.7302
vt -0.4766 -0.6382
vt -0.5201 -0.6458
vt -0.5566 -0.7389
vt -0.5684 -0.6486
vt -0.5065 -0.5785
vt -0.4840 -0.5290
vt -0.4590 -0.5669
vt -0.4559 -0.5154
vt -0.5574 -0.5771
vt -0.5223 -0.5241
vt -0.5011 -0.7961
vt -0.4817 -0.7989
vt -0.5262 -0.8075
vt -0.4903 -0.8339
vt -0.4989 -0.4605
vt -0.4896 -0.4619
vt -0.4841 -0.4568
vt -0.4241 -0.5978
vt -0.3946 -0.6057
vt -0.4179 -0.6780
vt -0.3865 -0.6780
vt -0.3517 -0.6853
vt -0.3641 -0.6049
vt -0.3838 -0.7238
vt -0.4072 -0.7699
vt -0.4164 -0.7254
vt -0.4202 -0.7730
vt -0.3460 -0.7338
vt -0.3934 -0.7742
vt -0.4050 -0.5462
vt -0.4209 -0.5405
vt -0.3884 -0.5410
vt -0.4113 -0.5111
vt -0.4425 -0.4167
vt -0.4381 -0.4178
vt -0.4370 -0.4217
vt -0.1384 -0.4155
vt -0.1417 -0.4173
vt -0.1356 -0.4034
vt -0.1344 -0.3743
vt -0.1328 -0.3732
vt -0.1388 -0.3893
vt -0.2354 -0.4294
vt -0.2271 -0.4272
vt -0.2232 -0.5068
vt -0.2182 -0.4308
vt -0.9078 -0.4536
vt -0.9002 -0.4497
vt -0.8967 -0.4832
vt -0.8942 -0.4545
vt -0.7601 -0.3831
vt -0.7518 -0.3784
vt -0.7485 -0.4063
vt -0.6526 -0.0549
vt -0.6618 -0.0512
vt -0.6700 -0.0351
vt -0.6459 -0.0513
vt -0.4896 -0.4619
vt -0.4989 -0.4605
vt -0.4922 -0.4509
vt -0.4841 -0.4568
vt -0.4202 -0.7730
vt -0.4072 -0.7699
vt -0.4240 -0.8102
vt -0.3934 -0.7742
vt -0.8195 -0.5467
vt -0.7862 -0.5527
vt -0.8318 -0.6381
vt -0.7928 -0.6365
vt -0.7516 -0.5485
vt -0.7541 -0.6394
vt -0.7970 -0.7053
vt -0.7964 -0.7584
vt -0.8387 -0.7109
vt -0.8245 -0.7668
vt -0.7555 -0.7132
vt -0.7683 -0.7665
vt -0.7807 -0.4875
vt -0.8001 -0.4824
vt -0.7614 -0.4797
vt -0.7766 -0.4388
vt -0.7764 -0.8036
vt -0.7853 -0.7993
vt -0.7941 -0.8037
vt -0.7941 -0.8037
vt -0.7853 -0.7993
vt 0.5000 0.5000
vt 0.5000 0.5000
vt -0.7853 -0.7993
vt -0.7764 -0.8036
vt -0.6928 -0.7441
vt -0.7102 -0.7099
vt -0.6498 -0.7427
vt -0.6593 -0.7129
vt -0.6054 -0.7465
vt -0.6089 -0.7134
vt -0.6605 -0.6590
vt -0.7140 -0.6506
vt -0.6583 -0.5756
vt -0.7011 -0.5640
vt -0.6069 -0.6536
vt -0.6139 -0.5682
vt -0.6472 -0.7870
vt -0.6731 -0.7915
vt -0.6237 -0.7959
vt -0.6466 -0.8248
vt -0.6650 -0.4530
vt -0.6741 -0.4564
vt -0.6834 -0.4521
vt -0.6650 -0.4530
vt -0.6741 -0.4564
vt -0.6664 -0.4006
vt -0.6834 -0.4521
vt -0.5099 -0.1578
vt -0.4789 -0.1666
vt -0.5026 -0.2344
vt -0.4692 -0.2363
vt -0.4333 -0.2439
vt -0.4472 -0.1669
vt -0.4928 -0.2955
vt -0.4720 -0.2951
vt -0.4766 -0.3575
vt -0.4713 -0.3591
vt -0.4475 -0.3020
vt -0.4896 -0.1081
vt -0.5070 -0.1020
vt -0.4730 -0.1036
vt -0.4938 -0.0736
vt 0.5000 0.5000
vt -0.4766 -0.3575
vt -0.4713 -0.3591
vn -0.1492 0.9870 -0.0603
vn -0.2326 0.9722 -0.0259
vn -0.1240 0.9887 -0.0839
vn -0.0813 0.9836 -0.1608
vn -0.6531 0.4721 -0.5921
vn -0.8580 0.5070 -0.0823
vn -0.5526 0.4664 -0.6907
vn -0.1208 0.4749 -0.8717
vn -0.0502 0.9933 0.1040
vn -0.3934 0.8958 0.2069
vn 0.1713 0.9422 -0.2880
vn 0.0272 0.9990 0.0355
vn -0.4782 0.7879 -0.3880
vn -0.3148 0.8314 -0.4579
vn -0.3970 0.7887 -0.4694
vn -0.4908 0.8200 -0.2944
vn -0.1833 0.8328 0.5224
vn 0.5135 0.8510 -0.1097
vn -0.2547 0.2468 -0.9350
vn -0.9115 0.3637 -0.1920
vn -0.2965 0.8697 -0.3946
vn -0.1284 0.9338 -0.3341
vn -0.1457 0.9257 -0.3490
vn -0.1897 0.9134 -0.3603
vn -0.1509 0.4021 -0.9031
vn -0.7328 0.3702 -0.5709
vn -0.0244 0.4143 -0.9098
vn 0.3257 0.5249 -0.7864
vn -0.2975 0.8466 -0.4414
vn -0.2205 0.9423 -0.2517
vn -0.2463 0.9283 -0.2788
vn -0.0721 0.9787 -0.1922
vn -0.2384 0.6912 -0.6822
vn -0.0610 0.8687 -0.4916
vn -0.2019 0.7910 -0.5776
vn -0.1352 0.8391 -0.5268
vn -0.7763 0.5808 -0.2451
vn -0.3049 0.9316 0.1976
vn -0.1039 0.1375 -0.9850
vn 0.3326 0.1194 -0.9355
vn -0.6316 0.2094 -0.7464
vn -0.5646 0.8208 -0.0871
vn -0.4450 0.8954 -0.0167
vn -0.4139 0.9084 0.0593
vn -0.4352 0.8804 0.1886
vn -0.9433 0.3147 0.1059
vn -0.9406 0.3269 -0.0916
vn -0.8389 0.3402 0.4249
vn -0.6465 0.3993 0.6501
vn 0.3977 0.8369 -0.3760
vn -0.2137 0.6751 -0.7061
vn 0.4736 0.8622 -0.1797
vn 0.2275 0.8347 0.5015
vn -0.7947 0.4684 0.3860
vn -0.8290 0.4392 0.3462
vn -0.9100 0.4058 0.0846
vn -0.9071 0.3962 0.1423
vn 0.5798 0.3219 -0.7485
vn 0.9284 0.3179 0.1924
vn -0.6799 0.3278 0.6560
vn -0.8115 0.3144 0.4925
vn -0.9263 0.3600 -0.1115
vn -0.5770 0.7406 -0.3443
vn -0.5390 0.8009 -0.2608
vn -0.4971 0.8184 -0.2881
vn -0.4596 0.8655 -0.1994
vn -0.9597 0.2014 0.1962
vn -0.8194 0.3799 0.4292
vn -0.6998 0.4067 0.5872
vn -0.3939 0.5815 0.7118
vn -0.3463 0.7649 -0.5432
vn -0.7127 0.4782 -0.5133
vn -0.1452 0.9879 -0.0546
vn -0.2830 0.8211 -0.4956
vn -0.7397 0.6244 0.2509
vn -0.6650 0.6991 0.2627
vn -0.8253 0.5382 0.1708
vn -0.7490 0.6339 0.1929
vn -0.2506 0.3002 -0.9204
vn 0.5694 0.6975 -0.4351
vn -0.4120 0.3090 0.8572
vn -0.7346 0.2712 0.6220
vn -0.9609 0.2398 0.1387
vn -0.1644 0.9846 -0.0593
vn -0.1014 0.9948 0.0018
vn -0.1806 0.9790 -0.0950
vn -0.1882 0.9657 -0.1789
vn 0.7861 0.5028 -0.3595
vn 0.7675 0.6113 0.1930
vn 0.7097 0.4683 -0.5262
vn 0.3956 0.4227 -0.8154
vn -0.3104 0.9490 0.0556
vn -0.0177 0.9597 0.2805
vn -0.3473 0.8537 -0.3881
vn -0.3569 0.9333 -0.0402
vn 0.2935 0.9265 -0.2357
vn 0.1605 0.9205 -0.3563
vn 0.2550 0.9091 -0.3293
vn 0.2614 0.9549 -0.1412
vn -0.2950 0.8138 0.5008
vn -0.6817 0.6474 -0.3408
vn 0.6149 0.1843 -0.7668
vn 0.9795 0.2007 -0.0177
vn -0.6037 0.4376 -0.6664
vn -0.6263 0.4206 -0.6564
vn -0.7523 0.3981 -0.5250
vn -0.7461 0.3921 -0.5381
vn 0.7032 0.4853 0.5195
vn 0.8656 0.4911 0.0977
vn 0.2675 0.4312 0.8617
vn 0.5384 0.5390 0.6477
vn -0.5682 0.5273 -0.6318
vn 0.1677 0.6515 -0.7399
vn -0.7108 0.5150 -0.4791
vn -0.7646 0.5823 0.2762
vn -0.0574 0.9934 -0.0994
vn -0.3798 0.9238 -0.0480
vn -0.1515 0.9885 0.0031
vn -0.1180 0.9413 -0.3162
vn -0.2337 0.2801 -0.9311
vn -0.9757 0.2163 -0.0357
vn 0.1708 0.4760 0.8627
vn 0.2247 0.4689 0.8542
vn 0.8599 0.3258 0.3930
vn 0.9106 0.3191 0.2625
vn -0.0279 0.9996 0.0045
vn -0.0701 0.9946 -0.0765
vn -0.0019 0.9996 0.0272
vn 0.0794 0.9950 0.0610
vn 0.3449 0.8494 -0.3994
vn -0.3886 0.7897 -0.4748
vn 0.3717 0.8490 -0.3756
vn 0.5259 0.7996 0.2900
vn -0.1805 0.9764 0.1186
vn -0.3129 0.9230 -0.2241
vn 0.2361 0.9274 0.2902
vn -0.1045 0.9764 0.1890
vn 0.2774 0.9068 -0.3175
vn 0.3351 0.9216 -0.1958
vn 0.2968 0.9046 -0.3060
vn 0.1586 0.9207 -0.3567
vn -0.5981 0.8014 0.0029
vn 0.1033 0.7703 0.6293
vn 0.8089 0.5526 -0.2007
vn 0.8508 0.5175 -0.0913
vn 0.0041 0.6406 -0.7678
vn -0.1647 0.6119 -0.7736
vn -0.0640 0.9815 -0.1803
vn -0.0659 0.9685 -0.2402
vn -0.0354 0.9918 -0.1228
vn -0.0391 0.9831 -0.1791
vn 0.3572 0.9263 -0.1196
vn -0.2162 0.6948 -0.6859
vn 0.3516 0.9083 -0.2267
vn -0.1424 0.9455 0.2929
vn -0.1830 0.9646 -0.1900
vn -0.1882 0.8888 -0.4178
vn -0.1115 0.9799 -0.1654
vn -0.0534 0.9974 0.0477
vn 0.3028 0.9228 -0.2381
vn 0.2654 0.9577 -0.1108
vn 0.3025 0.9134 -0.2725
vn 0.2681 0.9583 -0.0990
vn -0.5564 0.7076 -0.4356
vn -0.2803 0.9431 0.1792
vn 0.8779 0.4756 0.0552
vn 0.8135 0.4698 0.3428
vn 0.3222 0.5079 -0.7989
vn -0.0348 0.9009 -0.4327
vn -0.0969 0.9501 -0.2964
vn -0.1698 0.9515 -0.2565
vn -0.2982 0.9157 -0.2694
vn -0.2331 0.4328 -0.8708
vn 0.0850 0.5093 -0.8564
vn -0.5380 0.4235 -0.7289
vn -0.7763 0.4985 -0.3859
vn 0.3557 0.7974 0.4875
vn 0.6278 0.7594 -0.1709
vn 0.1676 0.7935 0.5850
vn -0.5327 0.7433 0.4047
vn -0.5076 0.5545 -0.6594
vn -0.4649 0.5306 -0.7087
vn -0.2058 0.5339 -0.8201
vn -0.2678 0.5170 -0.8130
vn 0.7821 0.2958 0.5484
vn -0.1122 0.1562 0.9813
vn -0.7180 0.5228 -0.4595
vn -0.7757 0.5010 -0.3838
vn 0.0423 0.6328 -0.7732
vn 0.1663 0.6275 -0.7607
vn 0.1866 0.8937 -0.4081
vn 0.1898 0.8422 -0.5047
vn 0.1721 0.9062 -0.3862
vn 0.0848 0.9390 -0.3332
vn -0.4904 0.5239 -0.6965
vn -0.0125 0.4525 -0.8917
vn -0.5634 0.5835 -0.5848
vn -0.4290 0.9029 -0.0280
vn 0.4453 0.8533 -0.2712
vn 0.3963 0.6235 -0.6739
vn -0.0333 0.9994 0.0091
vn 0.4010 0.8950 -0.1955
vn -0.3634 0.7246 -0.5855
vn -0.3674 0.7762 -0.5123
vn -0.3291 0.6909 -0.6436
vn -0.2443 0.6749 -0.6963
vn 0.8633 0.4147 -0.2875
vn 0.4431 0.6395 0.6282
vn -0.8411 0.5403 -0.0222
vn -0.8259 0.5344 -0.1797
vn 0.3728 0.2353 -0.8976
vn -0.1272 0.3804 -0.9160
vn -0.0001 0.9837 0.1797
vn 0.0024 0.9873 0.1585
vn -0.0141 0.9783 0.2069
vn -0.0112 0.9828 0.1841
vn 0.2149 0.8177 0.5340
vn 0.4001 0.8693 0.2902
vn 0.2516 0.9660 -0.0594
vn 0.2389 0.9710 0.0024
vn -0.1771 0.9697 0.1685
vn -0.1828 0.9129 0.3650
vn 0.0135 0.9999 -0.0046
vn -0.1530 0.9802 0.1257
vn -0.0388 0.9962 -0.0774
vn 0.0317 0.9768 0.2118
vn -0.2446 0.8949 0.3733
vn 0.0493 0.9833 0.1754
vn -0.5270 0.7829 0.3306
vn -0.2568 0.9361 -0.2403
vn -0.1048 0.0361 -0.9938
vn -0.8515 0.0880 0.5169
vn -0.7595 0.0973 0.6431
vn 0.1889 0.2323 0.9541
vn 0.8860 0.2260 0.4049
vn 0.9357 0.2657 -0.2322
vn 0.0053 0.2067 -0.9784
vn 0.9728 0.2236 0.0612
vn -0.8377 0.1050 -0.5360
vn 0.0532 0.2262 -0.9726
vn -0.9961 0.0839 -0.0263
vn 0.3834 0.0268 -0.9232
vn 0.7700 0.3087 0.5585
vn 0.9317 0.3630 0.0095
vn -0.0304 0.9995 -0.0107
vn -0.0848 0.9947 0.0587
vn 0.0036 0.9995 -0.0310
vn 0.0869 0.9950 -0.0487
vn 0.1969 0.9133 0.3566
vn -0.5058 0.8271 0.2451
vn 0.2384 0.9119 0.3340
vn 0.4902 0.8233 -0.2861
vn -0.1577 0.9762 -0.1487
vn -0.3494 0.9228 0.1623
vn 0.2850 0.9272 -0.2431
vn -0.0667 0.9762 -0.2062
vn 0.2190 0.9236 0.3146
vn 0.2788 0.9322 0.2309
vn 0.1903 0.9220 0.3373
vn 0.0758 0.9323 0.3536
vn -0.5876 0.8014 -0.1121
vn 0.2165 0.7703 -0.5998
vn 0.7475 0.5696 0.3416
vn 0.8017 0.5645 0.1967
vn 0.1571 0.5885 0.7931
vn -0.3024 0.6401 0.7063
vn 0.1849 0.3059 0.9339
vn 0.8826 0.2416 0.4033
vn 0.5630 0.5807 -0.5881
vn 0.5518 0.5665 -0.6120
vn 0.4095 0.5517 -0.7266
vn 0.4235 0.5461 -0.7228
vn -0.2942 0.7889 0.5396
vn 0.3642 0.7651 0.5310
vn -0.4297 0.7865 0.4436
vn -0.6300 0.7627 -0.1464
vn 0.5261 0.6607 -0.5355
vn 0.7047 0.6816 0.1968
vn 0.3600 0.6565 -0.6629
vn -0.3996 0.6641 -0.6319
vn 0.0441 0.9988 -0.0191
vn -0.0277 0.9622 -0.2709
vn 0.0032 0.9990 -0.0443
vn 0.2654 0.9629 -0.0487
vn 0.8773 0.3933 -0.2752
vn -0.0869 0.3631 -0.9277
vn -0.7627 0.5167 0.3890
vn -0.8221 0.5210 0.2294
vn 0.2253 0.3986 0.8890
vn -0.0019 0.4388 0.8986
vn -0.8812 0.1464 0.4494
vn 0.2422 0.1667 0.9558
vn 0.0422 0.9867 -0.1570
vn -0.0581 0.9825 -0.1769
vn 0.1576 0.9843 -0.0788
vn 0.0558 0.9931 -0.1032
vn 0.5467 0.2151 -0.8092
vn -0.0991 0.3271 -0.9398
vn 0.0802 0.3210 -0.9437
vn 0.0002 0.9944 0.1061
vn 0.2011 0.9701 0.1358
vn -0.0184 0.9992 0.0354
vn -0.2122 0.9761 -0.0469
vn 0.2698 0.6264 -0.7313
vn -0.0248 0.6598 -0.7511
vn 0.2526 0.6255 -0.7382
vn 0.5264 0.6803 -0.5100
vn 0.1493 0.8616 0.4852
vn -0.4052 0.9021 0.1486
vn -0.1041 0.1253 -0.9866
s off
f 297/297/311 298/298/311 299/299/311
f 298/298/312 300/300/312 299/299/312
f 301/301/313 299/299/313 302/302/313
f 299/299/314 300/300/314 302/302/314
f 303/303/315 304/304/315 305/305/315
f 304/304/316 306/306/316 305/305/316
f 303/303/317 305/305/317 307/307/317
f 305/305/318 308/308/318 307/307/318
f 309/309/319 297/297/319 299/299/319
f 297/297/320 309/309/320 310/310/320
f 311/311/321 309/309/321 301/301/321
f 309/309/322 299/299/322 301/301/322
f 307/307/323 302/302/323 303/303/323
f 300/300/324 303/303/324 302/302/324
f 304/304/325 303/303/325 298/298/325
f 298/298/326 303/303/326 300/300/326
f 310/310/327 309/309/327 312/312/327
f 312/312/328 309/309/328 311/311/328
f 305/305/329 313/313/329 308/308/329
f 306/306/330 313/313/330 305/305/330
f 314/314/331 315/315/331 316/316/331
f 316/316/332 315/315/332 317/317/332
f 315/315/333 318/318/333 317/317/333
f 317/317/334 318/318/334 319/319/334
f 320/320/335 321/321/335 322/322/335
f 321/321/336 323/323/336 322/322/336
f 320/320/337 322/322/337 324/324/337
f 322/322/338 325/325/338 324/324/338
f 326/326/339 316/316/339 327/327/339
f 316/316/340 317/317/340 327/327/340
f 317/317/341 319/319/341 327/327/341
f 328/328/342 327/327/342 319/319/342
f 324/324/343 318/318/343 320/320/343
f 315/315/344 320/320/344 318/318/344
f 314/314/345 321/321/345 315/315/345
f 321/321/346 320/320/346 315/315/346
f 326/326/347 327/327/347 329/329/347
f 329/329/348 327/327/348 328/328/348
f 330/330/349 325/325/349 331/331/349
f 322/322/350 331/331/350 325/325/350
f 323/323/351 331/331/351 322/322/351
f 332/332/352 333/333/352 334/334/352
f 335/335/353 334/334/353 333/333/353
f 336/336/354 337/337/354 334/334/354
f 334/334/355 337/337/355 332/332/355
f 338/338/356 339/339/356 340/340/356
f 340/340/357 339/339/357 341/341/357
f 338/338/358 342/342/358 339/339/358
f 342/342/359 343/343/359 339/339/359
f 334/334/360 335/335/360 344/344/360
f 335/335/361 345/345/361 344/344/361
f 334/334/362 344/344/362 336/336/362
f 346/346/363 336/336/363 344/344/363
f 342/342/364 338/338/364 337/337/364
f 332/332/365 337/337/365 338/338/365
f 340/340/366 333/333/366 338/338/366
f 333/333/367 332/332/367 338/338/367
f 345/345/368 347/347/368 344/344/368
f 347/347/369 346/346/369 344/344/369
f 339/339/370 343/343/370 348/348/370
f 349/349/371 341/341/371 348/348/371
f 341/341/372 339/339/372 348/348/372
f 350/350/373 351/351/373 352/352/373
f 351/351/374 353/353/374 352/352/374
f 354/354/375 355/355/375 353/353/375
f 353/353/376 355/355/376 352/352/376
f 356/356/377 357/357/377 358/358/377
f 359/359/378 358/358/378 357/357/378
f 358/358/379 360/360/379 356/356/379
f 360/360/380 361/361/380 356/356/380
f 353/353/381 351/351/381 362/362/381
f 351/351/382 363/363/382 362/362/382
f 364/364/383 354/354/383 362/362/383
f 354/354/384 353/353/384 362/362/384
f 360/360/385 358/358/385 355/355/385
f 352/352/386 355/355/386 358/358/386
f 350/350/387 352/352/387 359/359/387
f 352/352/388 358/358/388 359/359/388
f 363/363/389 365/365/389 362/362/389
f 365/365/390 364/364/390 362/362/390
f 356/356/391 361/361/391 366/366/391
f 367/367/392 357/357/392 366/366/392
f 357/357/393 356/356/393 366/366/393
f 368/368/394 369/369/394 370/370/394
f 369/369/395 371/371/395 370/370/395
f 372/372/396 373/373/396 369/369/396
f 369/369/397 373/373/397 371/371/397
f 374/374/398 375/375/398 376/376/398
f 376/376/399 375/375/399 377/377/399
f 374/374/400 378/378/400 375/375/400
f 378/378/401 379/379/401 375/375/401
f 369/369/402 368/368/402 380/380/402
f 368/368/403 381/381/403 380/380/403
f 382/382/404 372/372/404 380/380/404
f 372/372/405 369/369/405 380/380/405
f 378/378/406 374/374/406 373/373/406
f 371/371/407 373/373/407 374/374/407
f 376/376/408 370/370/408 374/374/408
f 370/370/409 371/371/409 374/374/409
f 381/381/410 383/383/410 380/380/410
f 383/383/411 382/382/411 380/380/411
f 375/375/412 379/379/412 384/384/412
f 377/377/413 375/375/413 384/384/413
f 385/385/414 386/386/414 387/387/414
f 386/386/415 388/388/415 387/387/415
f 389/389/416 387/387/416 390/390/416
f 387/387/417 388/388/417 390/390/417
f 391/391/418 392/392/418 393/393/418
f 392/392/419 394/394/419 393/393/419
f 393/393/420 395/395/420 391/391/420
f 391/391/421 395/395/421 396/396/421
f 387/387/422 397/397/422 385/385/422
f 385/385/423 397/397/423 398/398/423
f 387/387/424 389/389/424 397/397/424
f 399/399/425 397/397/425 389/389/425
f 396/396/426 390/390/426 391/391/426
f 388/388/427 391/391/427 390/390/427
f 392/392/428 391/391/428 386/386/428
f 386/386/429 391/391/429 388/388/429
f 398/398/430 397/397/430 400/400/430
f 400/400/431 397/397/431 399/399/431
f 401/401/432 395/395/432 402/402/432
f 393/393/433 402/402/433 395/395/433
f 403/403/434 402/402/434 394/394/434
f 394/394/435 402/402/435 393/393/435
f 404/404/436 405/405/436 406/406/436
f 405/405/437 407/407/437 406/406/437
f 408/408/438 406/406/438 409/409/438
f 406/406/439 407/407/439 409/409/439
f 410/410/440 411/411/440 412/412/440
f 411/411/441 413/413/441 412/412/441
f 410/410/442 412/412/442 414/414/442
f 412/412/443 415/415/443 414/414/443
f 406/406/444 416/416/444 404/404/444
f 404/404/445 416/416/445 417/417/445
f 418/418/446 416/416/446 408/408/446
f 416/416/447 406/406/447 408/408/447
f 414/414/448 409/409/448 410/410/448
f 407/407/449 410/410/449 409/409/449
f 411/411/450 410/410/450 405/405/450
f 405/405/451 410/410/451 407/407/451
f 417/417/452 416/416/452 419/419/452
f 419/419/453 416/416/453 418/418/453
f 420/420/454 415/415/454 421/421/454
f 412/412/455 421/421/455 415/415/455
f 422/422/456 421/421/456 413/413/456
f 413/413/457 421/421/457 412/412/457
f 423/423/458 424/424/458 425/425/458
f 424/424/459 426/426/459 425/425/459
f 427/427/460 428/428/460 426/426/460
f 425/425/461 426/426/461 428/428/461
f 429/429/462 430/430/462 431/431/462
f 430/430/463 432/432/463 431/431/463
f 429/429/464 431/431/464 433/433/464
f 431/431/465 434/434/465 433/433/465
f 425/425/466 435/435/466 423/423/466
f 423/423/467 435/435/467 436/436/467
f 428/428/468 437/437/468 425/425/468
f 437/437/469 435/435/469 425/425/469
f 433/433/470 427/427/470 429/429/470
f 426/426/471 429/429/471 427/427/471
f 424/424/472 430/430/472 426/426/472
f 430/430/473 429/429/473 426/426/473
f 436/436/474 435/435/474 438/438/474
f 438/438/475 435/435/475 437/437/475
f 439/439/476 434/434/476 440/440/476
f 431/431/477 440/440/477 434/434/477
f 432/432/478 440/440/478 431/431/478
f 441/441/479 442/442/479 443/443/479
f 444/444/480 443/443/480 442/442/480
f 445/445/481 446/446/481 443/443/481
f 443/443/482 446/446/482 441/441/482
f 447/447/483 448/448/483 449/449/483
f 449/449/484 448/448/484 450/450/484
f 447/447/485 451/451/485 448/448/485
f 451/451/486 452/452/486 448/448/486
f 443/443/487 444/444/487 453/453/487
f 444/444/488 454/454/488 453/453/488
f 443/443/489 453/453/489 445/445/489
f 455/455/490 445/445/490 453/453/490
f 451/451/491 447/447/491 446/446/491
f 441/441/492 446/446/492 447/447/492
f 449/449/493 442/442/493 447/447/493
f 442/442/494 441/441/494 447/447/494
f 454/454/495 456/456/495 453/453/495
f 456/456/496 455/455/496 453/453/496
f 457/457/497 458/458/497 452/452/497
f 448/448/498 452/452/498 458/458/498
f 459/459/499 450/450/499 458/458/499
f 450/450/500 448/448/500 458/458/500
f 460/460/501 461/461/501 462/462/501
f 461/461/502 463/463/502 462/462/502
f 464/464/503 465/465/503 461/461/503
f 461/461/504 465/465/504 463/463/504
f 466/466/505 467/467/505 468/468/505
f 468/468/506 467/467/506 469/469/506
f 466/466/507 470/470/507 467/467/507
f 470/470/508 471/471/508 467/467/508
f 461/461/509 460/460/509 472/472/509
f 460/460/510 473/473/510 472/472/510
f 474/474/511 464/464/511 472/472/511
f 464/464/512 461/461/512 472/472/512
f 470/470/513 466/466/513 465/465/513
f 463/463/514 465/465/514 466/466/514
f 468/468/515 462/462/515 466/466/515
f 462/462/516 463/463/516 466/466/516
f 473/473/517 475/475/517 472/472/517
f 475/475/518 474/474/518 472/472/518
f 476/476/519 477/477/519 471/471/519
f 467/467/520 471/471/520 477/477/520
f 478/478/521 469/469/521 477/477/521
f 469/469/522 467/467/522 477/477/522
f 479/479/523 480/480/523 481/481/523
f 480/480/524 482/482/524 481/481/524
f 483/483/525 482/482/525 484/484/525
f 480/480/526 484/484/526 482/482/526
f 485/485/527 486/486/527 487/487/527
f 487/487/528 486/486/528 488/488/528
f 489/489/529 490/490/529 485/485/529
f 485/485/530 490/490/530 486/486/530
f 480/480/531 479/479/531 491/491/531
f 479/479/532 492/492/532 491/491/532
f 493/493/533 484/484/533 491/491/533
f 484/484/534 480/480/534 491/491/534
f 489/489/535 485/485/535 483/483/535
f 482/482/536 483/483/536 485/485/536
f 487/487/537 481/481/537 485/485/537
f 481/481/538 482/482/538 485/485/538
f 492/492/539 494/494/539 491/491/539
f 494/494/540 493/493/540 491/491/540
f 495/495/541 496/496/541 497/497/541
f 498/498/542 499/499/542 500/500/542
f 501/501/543 502/502/543 503/503/543
f 504/504/544 505/505/544 506/506/544
f 505/505/545 507/507/545 506/506/545
f 508/508/546 509/509/546 510/510/546
f 509/509/547 511/511/547 510/510/547
f 512/512/548 513/513/548 514/514/548
f 515/515/549 516/516/549 517/517/549
f 518/518/550 515/515/550 517/517/550
f 519/519/551 520/520/551 521/521/551
f 522/522/552 519/519/552 521/521/552
f 523/523/553 524/524/553 525/525/553
f 524/524/554 526/526/554 525/525/554
f 527/527/555 528/528/555 529/529/555
f 528/528/556 530/530/556 529/529/556
f 531/531/557 532/532/557 528/528/557
f 528/528/558 532/532/558 530/530/558
f 533/533/559 534/534/559 535/535/559
f 535/535/560 534/534/560 536/536/560
f 533/533/561 537/537/561 534/534/561
f 537/537/562 538/538/562 534/534/562
f 528/528/563 527/527/563 539/539/563
f 527/527/564 540/540/564 539/539/564
f 541/541/565 531/531/565 539/539/565
f 531/531/566 528/528/566 539/539/566
f 537/537/567 533/533/567 532/532/567
f 530/530/568 532/532/568 533/533/568
f 535/535/569 529/529/569 533/533/569
f 529/529/570 530/530/570 533/533/570
f 540/540/571 542/542/571 539/539/571
f 542/542/572 541/541/572 539/539/572
f 543/543/573 544/544/573 538/538/573
f 534/534/574 538/538/574 544/544/574
f 545/545/575 536/536/575 544/544/575
f 536/536/576 534/534/576 544/544/576
f 546/546/577 547/547/577 548/548/577
f 549/549/578 550/550/578 551/551/578
f 552/552/579 553/553/579 554/554/579
f 553/553/580 555/555/580 554/554/580
f 556/556/581 554/554/581 557/557/581
f 554/554/582 555/555/582 557/557/582
f 558/558/583 559/559/583 560/560/583
f 559/559/584 561/561/584 560/560/584
f 558/558/585 560/560/585 562/562/585
f 560/560/586 563/563/586 562/562/586
f 554/554/587 564/564/587 552/552/587
f 552/552/588 564/564/588 565/565/588
f 554/554/589 556/556/589 564/564/589
f 566/566/590 564/564/590 556/556/590
f 562/562/591 557/557/591 558/558/591
f 555/555/592 558/558/592 557/557/592
f 559/559/593 558/558/593 553/553/593
f 553/553/594 558/558/594 555/555/594
f 565/565/595 564/564/595 567/567/595
f 567/567/596 564/564/596 566/566/596
f 568/568/597 563/563/597 569/569/597
f 560/560/598 569/569/598 563/563/598
f 570/570/599 569/569/599 561/561/599
f 561/561/600 569/569/600 560/560/600
f 571/571/601 572/572/601 573/573/601
f 572/572/602 574/574/602 573/573/602
f 575/575/603 576/576/603 577/577/603
f 576/576/604 578/578/604 577/577/604
f 579/579/605 578/578/605 580/580/605
f 576/576/606 580/580/606 578/578/606
f 581/581/607 582/582/607 583/583/607
f 583/583/608 582/582/608 584/584/608
f 582/582/609 585/585/609 584/584/609
f 576/576/610 575/575/610 586/586/610
f 575/575/611 587/587/611 586/586/611
f 580/580/612 576/576/612 588/588/612
f 588/588/613 576/576/613 586/586/613
f 578/578/614 579/579/614 582/582/614
f 579/579/615 585/585/615 582/582/615
f 578/578/616 582/582/616 577/577/616
f 577/577/617 582/582/617 581/581/617
f 587/587/618 589/589/618 586/586/618
f 589/589/619 588/588/619 586/586/619
f 590/590/620 591/591/620 592/592/620
