# Blender v2.75 (sub 0) OBJ File: 'untitled1.blend'
# www.blender.org
mtllib untitled4.mtl
o BezierCircle_Mesh
v -16.389021 0.000000 0.000000
v -16.138105 0.000000 -3.193207
v -15.547961 0.000000 -5.728712
v -14.659548 0.000000 -7.680606
v -13.513825 0.000000 -9.122985
v -12.151752 0.000000 -10.129942
v -10.614286 0.000000 -10.775570
v -8.942389 0.000000 -11.133965
v -7.177019 0.000000 -11.279217
v -5.359136 0.000000 -11.285421
v -3.529699 0.000000 -11.226673
v -1.729666 0.000000 -11.177063
v 0.000000 0.000000 -11.210679
v 2.104776 0.000000 -11.420515
v 4.307940 0.000000 -11.743447
v 6.557005 0.000000 -12.083144
v 8.799480 0.000000 -12.343272
v 10.982878 0.000000 -12.427500
v 13.054708 0.000000 -12.239495
v 14.962480 0.000000 -11.682927
v 16.653706 0.000000 -10.661462
v 18.075897 0.000000 -9.078770
v 19.176561 0.000000 -6.838517
v 19.903215 0.000000 -3.844371
v 20.203369 0.000000 0.000000
v 20.024237 0.000000 3.983464
v 19.382898 0.000000 7.204488
v 18.335958 0.000000 9.739874
v 16.940012 0.000000 11.666423
v 15.251657 0.000000 13.060937
v 13.327492 0.000000 14.000219
v 11.224116 0.000000 14.561070
v 8.998127 0.000000 14.820292
v 6.706122 0.000000 14.854689
v 4.404701 0.000000 14.741061
v 2.150461 0.000000 14.556211
v 0.000000 0.000000 14.376945
v -1.782491 0.000000 14.267636
v -3.637819 0.000000 14.152482
v -5.521403 0.000000 13.973847
v -7.388660 0.000000 13.674101
v -9.195007 0.000000 13.195607
v -10.895862 0.000000 12.480732
v -12.446641 0.000000 11.471843
v -13.802762 0.000000 10.111306
v -14.919644 0.000000 8.341487
v -15.752703 0.000000 6.104753
v -16.257357 0.000000 3.343469
v -14.038226 1.894116 0.152160
v -13.820982 1.894116 -2.463417
v -13.310031 1.894116 -4.540265
v -12.540840 1.894116 -6.139073
v -11.548867 1.894116 -7.320533
v -10.369579 1.894116 -8.145339
v -9.038433 1.894116 -8.674178
v -7.590898 1.894116 -8.967739
v -6.062435 1.894116 -9.086718
v -4.488503 1.894116 -9.091801
v -2.904569 1.894116 -9.043678
v -1.346093 1.894116 -9.003043
v 0.151460 1.894116 -9.030579
v 1.973783 1.894116 -9.202457
v 3.881293 1.894116 -9.466972
v 5.828542 1.894116 -9.745219
v 7.770088 1.894116 -9.958291
v 9.660482 1.894116 -10.027284
v 11.454284 1.894116 -9.873289
v 13.106040 1.894116 -9.417399
v 14.570311 1.894116 -8.580711
v 15.801649 1.894116 -7.284317
v 16.754608 1.894116 -5.449312
v 17.383747 1.894116 -2.996789
v 17.643621 1.894116 0.152160
v 17.488527 1.894116 3.415040
v 16.933258 1.894116 6.053400
v 16.026812 1.894116 8.130151
v 14.818194 1.894116 9.708200
v 13.356409 1.894116 10.850454
v 11.690460 1.894116 11.619827
v 9.869349 1.894116 12.079223
v 7.942076 1.894116 12.291553
v 5.957649 1.894116 12.319729
v 3.965069 1.894116 12.226655
v 2.013338 1.894116 12.075243
v 0.151460 1.894116 11.928406
v -1.391829 1.894116 11.838870
v -2.998180 1.894116 11.744546
v -4.628995 1.894116 11.598226
v -6.245675 1.894116 11.352701
v -7.809617 1.894116 10.960763
v -9.282225 1.894116 10.375205
v -10.624895 1.894116 9.548819
v -11.799030 1.894116 8.434393
v -12.766032 1.894116 6.984725
v -13.487300 1.894116 5.152600
v -13.924231 1.894116 2.890816
vt 0.981353 0.140926
vt 0.839540 0.183279
vt 0.817421 0.144604
vt 0.254303 0.978315
vt 0.317092 0.905908
vt 0.387227 0.919407
vt 0.911541 0.792454
vt 0.894608 0.839761
vt 0.765355 0.785728
vt 0.008032 0.410836
vt 0.012157 0.348813
vt 0.157361 0.365060
vt 0.948508 0.096252
vt 0.780979 0.112020
vt 0.355399 0.994389
vt 0.473538 0.923897
vt 0.920738 0.742660
vt 0.778055 0.745132
vt 0.006613 0.472066
vt 0.153591 0.418663
vt 0.895442 0.058591
vt 0.727777 0.086612
vt 0.924890 0.691611
vt 0.785422 0.702391
vt 0.005356 0.530893
vt 0.151728 0.471522
vt 0.818731 0.029173
vt 0.655351 0.069465
vt 0.926664 0.640509
vt 0.789302 0.658548
vt 0.150014 0.522257
vt 0.147590 0.564528
vt 0.714901 0.009228
vt 0.561180 0.061674
vt 0.928700 0.590528
vt 0.791529 0.614630
vt 0.002882 0.579947
vt 0.145089 0.608751
vt 0.439915 0.003079
vt 0.580399 0.000000
vt 0.933602 0.542811
vt 0.793918 0.571638
vt 0.000342 0.631306
vt 0.144109 0.653903
vt 0.324875 0.018372
vt 0.462567 0.064588
vt 0.798266 0.530556
vt 0.807805 0.480884
vt 0.000000 0.683795
vt 0.146265 0.698941
vt 0.232520 0.044444
vt 0.381592 0.078074
vt 0.945659 0.485181
vt 0.820340 0.429229
vt 0.004148 0.736209
vt 0.153190 0.742803
vt 0.599270 0.994447
vt 0.479535 1.000000
vt 0.160221 0.079893
vt 0.316372 0.100885
vt 0.961927 0.425315
vt 0.833310 0.376820
vt 0.015105 0.787315
vt 0.166527 0.784403
vt 0.695345 0.978724
vt 0.556954 0.918852
vt 0.105438 0.123329
vt 0.265098 0.131796
vt 0.978779 0.364635
vt 0.844192 0.324860
vt 0.035214 0.835853
vt 0.187933 0.822638
vt 0.770281 0.954102
vt 0.624082 0.905170
vt 0.065688 0.173361
vt 0.226016 0.169593
vt 0.992643 0.304524
vt 0.850495 0.274521
vt 0.066832 0.880536
vt 0.219065 0.856388
vt 0.826686 0.921870
vt 0.676670 0.883926
vt 0.038521 0.228582
vt 0.197403 0.213059
vt 1.000000 0.246332
vt 0.849756 0.226953
vt 0.112322 0.920058
vt 0.261573 0.884524
vt 0.867228 0.883326
vt 0.716519 0.856209
vt 0.021495 0.287556
vt 0.177556 0.260964
vt 0.997380 0.191372
vt 0.174037 0.953095
vt 0.745463 0.823113
vt 0.164777 0.312057
vn 0.272100 0.836200 -0.476200
vn -0.607500 0.785600 0.117400
vn -0.130400 0.783100 -0.608100
vn -0.029800 0.796500 0.603900
vn 0.392400 0.840900 -0.372700
vn -0.627000 0.778600 0.026100
vn -0.052500 0.767800 -0.638600
vn -0.049700 0.793500 0.606500
vn 0.491800 0.832400 -0.255400
vn -0.002200 0.757300 -0.653100
vn -0.050700 0.792500 0.607800
vn 0.557500 0.817800 -0.143000
vn 0.021100 0.752600 -0.658200
vn -0.035400 0.791500 0.610100
vn 0.589700 0.806200 -0.048700
vn 0.018100 0.752600 -0.658200
vn -0.035900 0.790800 0.611000
vn 0.595600 0.802800 0.026800
vn -0.012700 0.755000 -0.655600
vn -0.054600 0.791800 0.608300
vn 0.577800 0.808000 0.115000
vn -0.061500 0.755600 -0.652200
vn -0.091100 0.795000 0.599700
vn 0.530400 0.819000 0.219000
vn -0.090100 0.754700 -0.649800
vn -0.145700 0.800500 0.581400
vn -0.624700 0.779300 -0.049100
vn 0.452100 0.829600 0.327600
vn -0.092500 0.756800 -0.647000
vn -0.218200 0.807000 0.548700
vn -0.600000 0.787700 -0.139600
vn 0.351500 0.833800 0.425600
vn -0.070400 0.764200 -0.641100
vn -0.305600 0.812400 0.496600
vn -0.545600 0.800400 -0.248300
vn 0.244700 0.829900 0.501300
vn -0.022900 0.778000 -0.627800
vn -0.400400 0.813400 0.421900
vn -0.459000 0.810200 -0.364600
vn 0.147200 0.820800 0.551900
vn 0.051600 0.797600 -0.601000
vn -0.490200 0.808000 0.327000
vn -0.348500 0.810100 -0.471400
vn 0.067700 0.810600 0.581700
vn 0.152500 0.819300 -0.552700
vn -0.561800 0.797200 0.221200
vn -0.232600 0.799400 -0.554000
vn 0.009000 0.802100 0.597100
vn 0.000000 1.000000 0.000000
vn 0.000000 -1.000000 0.000000
vn 0.285600 0.833600 -0.472900
vn -0.613100 0.782000 0.112100
vn -0.123400 0.783900 -0.608500
vn -0.028200 0.796000 0.604600
vn 0.407600 0.836500 -0.366300
vn -0.628200 0.777700 0.024700
vn -0.049700 0.768100 -0.638300
vn -0.047200 0.792700 0.607800
vn 0.504600 0.827000 -0.247900
vn -0.002100 0.757300 -0.653100
vn -0.048100 0.791500 0.609300
vn 0.565300 0.813400 -0.137200
vn 0.020000 0.752300 -0.658500
vn -0.037500 0.790900 0.610800
vn 0.592400 0.804300 -0.046300
vn 0.017200 0.752400 -0.658500
vn -0.038000 0.790300 0.611600
vn 0.594100 0.803900 0.028200
vn -0.012000 0.755200 -0.655300
vn -0.057800 0.791100 0.609000
vn 0.571300 0.811900 0.120200
vn -0.064800 0.757000 -0.650200
vn -0.096400 0.793900 0.600300
vn 0.518600 0.824500 0.226300
vn -0.094900 0.756400 -0.647200
vn -0.154000 0.798800 0.581500
vn -0.622200 0.781100 -0.051700
vn 0.436700 0.835100 0.334500
vn -0.097400 0.758300 -0.644700
vn -0.230100 0.804600 0.547500
vn -0.592900 0.792000 -0.145900
vn 0.336000 0.838000 0.430000
vn -0.074200 0.765100 -0.639600
vn -0.320700 0.808800 0.492900
vn -0.533600 0.805800 -0.256700
vn 0.232200 0.832600 0.502800
vn -0.024200 0.778300 -0.627500
vn -0.416700 0.808600 0.415400
vn -0.443800 0.815000 -0.372600
vn 0.139200 0.822400 0.551700
vn 0.054600 0.797200 -0.601200
vn -0.504900 0.802200 0.318600
vn -0.333500 0.813300 -0.476800
vn 0.064000 0.811400 0.581000
vn 0.161000 0.818100 -0.552000
vn -0.572400 0.791800 0.213200
vn -0.221000 0.801100 -0.556300
vn 0.008500 0.802200 0.596900
usemtl None
s off
f 20/1/1 68/2/1 69/3/1
f 47/4/2 95/5/2 96/6/2
f 8/7/3 7/8/3 55/9/3
f 35/10/4 34/11/4 82/12/4
f 21/13/5 69/3/5 70/14/5
f 48/15/6 96/6/6 49/16/6
f 9/17/7 8/7/7 56/18/7
f 36/19/8 35/10/8 83/20/8
f 22/21/9 70/14/9 71/22/9
f 10/23/10 9/17/10 57/24/10
f 37/25/11 36/19/11 84/26/11
f 23/27/12 71/22/12 72/28/12
f 11/29/13 10/23/13 58/30/13
f 37/25/14 85/31/14 86/32/14
f 24/33/15 72/28/15 73/34/15
f 12/35/16 11/29/16 59/36/16
f 38/37/17 86/32/17 87/38/17
f 26/39/18 25/40/18 73/34/18
f 13/41/19 12/35/19 60/42/19
f 39/43/20 87/38/20 88/44/20
f 27/45/21 26/39/21 74/46/21
f 13/41/22 61/47/22 62/48/22
f 40/49/23 88/44/23 89/50/23
f 28/51/24 27/45/24 75/52/24
f 14/53/25 62/48/25 63/54/25
f 41/55/26 89/50/26 90/56/26
f 2/57/27 1/58/27 49/16/27
f 29/59/28 28/51/28 76/60/28
f 15/61/29 63/54/29 64/62/29
f 42/63/30 90/56/30 91/64/30
f 3/65/31 2/57/31 50/66/31
f 30/67/32 29/59/32 77/68/32
f 16/69/33 64/62/33 65/70/33
f 43/71/34 91/64/34 92/72/34
f 4/73/35 3/65/35 51/74/35
f 31/75/36 30/67/36 78/76/36
f 17/77/37 65/70/37 66/78/37
f 44/79/38 92/72/38 93/80/38
f 5/81/39 4/73/39 52/82/39
f 32/83/40 31/75/40 79/84/40
f 18/85/41 66/78/41 67/86/41
f 45/87/42 93/80/42 94/88/42
f 6/89/43 5/81/43 53/90/43
f 33/91/44 32/83/44 80/92/44
f 19/93/45 67/86/45 68/2/45
f 46/94/46 94/88/46 95/5/46
f 7/8/47 6/89/47 54/95/47
f 34/11/48 33/91/48 81/96/48
f 81/96/49 80/92/49 65/70/49
f 9/17/50 42/63/50 8/7/50
f 21/13/51 20/1/51 69/3/51
f 48/15/52 47/4/52 96/6/52
f 56/18/53 8/7/53 55/9/53
f 83/20/54 35/10/54 82/12/54
f 22/21/55 21/13/55 70/14/55
f 1/58/56 48/15/56 49/16/56
f 57/24/57 9/17/57 56/18/57
f 84/26/58 36/19/58 83/20/58
f 23/27/59 22/21/59 71/22/59
f 58/30/60 10/23/60 57/24/60
f 85/31/61 37/25/61 84/26/61
f 24/33/62 23/27/62 72/28/62
f 59/36/63 11/29/63 58/30/63
f 38/37/64 37/25/64 86/32/64
f 25/40/65 24/33/65 73/34/65
f 60/42/66 12/35/66 59/36/66
f 39/43/67 38/37/67 87/38/67
f 74/46/68 26/39/68 73/34/68
f 61/47/69 13/41/69 60/42/69
f 40/49/70 39/43/70 88/44/70
f 75/52/71 27/45/71 74/46/71
f 14/53/72 13/41/72 62/48/72
f 41/55/73 40/49/73 89/50/73
f 76/60/74 28/51/74 75/52/74
f 15/61/75 14/53/75 63/54/75
f 42/63/76 41/55/76 90/56/76
f 50/66/77 2/57/77 49/16/77
f 77/68/78 29/59/78 76/60/78
f 16/69/79 15/61/79 64/62/79
f 43/71/80 42/63/80 91/64/80
f 51/74/81 3/65/81 50/66/81
f 78/76/82 30/67/82 77/68/82
f 17/77/83 16/69/83 65/70/83
f 44/79/84 43/71/84 92/72/84
f 52/82/85 4/73/85 51/74/85
f 79/84/86 31/75/86 78/76/86
f 18/85/87 17/77/87 66/78/87
f 45/87/88 44/79/88 93/80/88
f 53/90/89 5/81/89 52/82/89
f 80/92/90 32/83/90 79/84/90
f 19/93/91 18/85/91 67/86/91
f 46/94/92 45/87/92 94/88/92
f 54/95/93 6/89/93 53/90/93
f 81/96/94 33/91/94 80/92/94
f 20/1/95 19/93/95 68/2/95
f 47/4/96 46/94/96 95/5/96
f 55/9/97 7/8/97 54/95/97
f 82/12/98 34/11/98 81/96/98
f 51/74/49 50/66/49 49/16/49
f 49/16/49 52/82/49 51/74/49
f 93/80/49 54/95/49 53/90/49
f 91/64/49 56/18/49 55/9/49
f 89/50/49 58/30/49 57/24/49
f 83/20/49 82/12/49 63/54/49
f 89/50/49 88/44/49 58/30/49
f 83/20/49 63/54/49 62/48/49
f 90/56/49 57/24/49 56/18/49
f 63/54/49 82/12/49 64/62/49
f 58/30/49 88/44/49 59/36/49
f 64/62/49 82/12/49 81/96/49
f 92/72/49 55/9/49 54/95/49
f 84/26/49 62/48/49 61/47/49
f 79/84/49 78/76/49 67/86/49
f 77/68/49 76/60/49 69/3/49
f 73/34/49 72/28/49 71/22/49
f 75/52/49 74/46/49 73/34/49
f 73/34/49 76/60/49 75/52/49
f 69/3/49 68/2/49 77/68/49
f 67/86/49 66/78/49 79/84/49
f 65/70/49 64/62/49 81/96/49
f 62/48/49 84/26/49 83/20/49
f 61/47/49 86/32/49 85/31/49
f 60/42/49 59/36/49 87/38/49
f 57/24/49 90/56/49 89/50/49
f 55/9/49 92/72/49 91/64/49
f 53/90/49 94/88/49 93/80/49
f 49/16/49 96/6/49 95/5/49
f 95/5/49 94/88/49 49/16/49
f 59/36/49 88/44/49 87/38/49
f 67/86/49 78/76/49 68/2/49
f 70/14/49 73/34/49 71/22/49
f 73/34/49 70/14/49 76/60/49
f 79/84/49 66/78/49 80/92/49
f 61/47/49 60/42/49 86/32/49
f 80/92/49 66/78/49 65/70/49
f 70/14/49 69/3/49 76/60/49
f 85/31/49 84/26/49 61/47/49
f 94/88/49 52/82/49 49/16/49
f 54/95/49 93/80/49 92/72/49
f 86/32/49 60/42/49 87/38/49
f 77/68/49 68/2/49 78/76/49
f 94/88/49 53/90/49 52/82/49
f 56/18/49 91/64/49 90/56/49
f 45/87/50 48/15/50 1/58/50
f 48/15/50 46/94/50 47/4/50
f 6/89/50 44/79/50 45/87/50
f 7/8/50 8/7/50 43/71/50
f 10/23/50 40/49/50 41/55/50
f 12/35/50 38/37/50 39/43/50
f 13/41/50 36/19/50 37/25/50
f 14/53/50 15/61/50 35/10/50
f 17/77/50 32/83/50 33/91/50
f 19/93/50 30/67/50 31/75/50
f 25/40/50 28/51/50 29/59/50
f 28/51/50 26/39/50 27/45/50
f 21/13/50 24/33/50 25/40/50
f 24/33/50 22/21/50 23/27/50
f 29/59/50 20/1/50 21/13/50
f 31/75/50 18/85/50 19/93/50
f 33/91/50 16/69/50 17/77/50
f 40/49/50 10/23/50 11/29/50
f 33/91/50 34/11/50 16/69/50
f 39/43/50 11/29/50 12/35/50
f 32/83/50 17/77/50 18/85/50
f 41/55/50 9/17/50 10/23/50
f 16/69/50 34/11/50 15/61/50
f 41/55/50 42/63/50 9/17/50
f 30/67/50 19/93/50 20/1/50
f 37/25/50 38/37/50 13/41/50
f 44/79/50 6/89/50 7/8/50
f 2/57/50 4/73/50 5/81/50
f 4/73/50 2/57/50 3/65/50
f 45/87/50 46/94/50 48/15/50
f 7/8/50 43/71/50 44/79/50
f 11/29/50 39/43/50 40/49/50
f 13/41/50 14/53/50 36/19/50
f 18/85/50 31/75/50 32/83/50
f 25/40/50 26/39/50 28/51/50
f 21/13/50 22/21/50 24/33/50
f 15/61/50 34/11/50 35/10/50
f 45/87/50 5/81/50 6/89/50
f 5/81/50 1/58/50 2/57/50
f 43/71/50 8/7/50 42/63/50
f 36/19/50 14/53/50 35/10/50
f 21/13/50 25/40/50 29/59/50
f 13/41/50 38/37/50 12/35/50
f 5/81/50 45/87/50 1/58/50
f 20/1/50 29/59/50 30/67/50
