# Blender v2.78 (sub 0) OBJ File: ''
# www.blender.org
mtllib Picknictable.mtl
o SketchUp.002_ID29
v 0.716469 0.420000 0.830447
v 0.751470 0.345000 0.830447
v 0.716469 0.345000 0.830447
v 0.751470 0.420000 0.830447
v 0.751470 0.420000 0.830447
v 0.716469 0.420000 0.830447
v 0.751470 0.345000 0.830447
v 0.716469 0.345000 0.830447
v -0.542484 0.345000 0.830447
v -0.577484 0.345000 0.865447
v -0.577484 0.345000 0.830447
v 0.751470 0.345000 0.865447
v 0.716469 0.345000 0.830447
v 0.751470 0.345000 0.830447
v 0.751470 0.345000 0.830447
v 0.716469 0.345000 0.830447
v 0.751470 0.345000 0.865447
v -0.542484 0.345000 0.830447
v -0.577484 0.345000 0.865447
v -0.577484 0.345000 0.830447
v -0.542484 0.420000 0.830447
v 0.716469 0.345000 0.830447
v -0.542484 0.345000 0.830447
v 0.716469 0.420000 0.830447
v 0.716469 0.420000 0.830447
v -0.542484 0.420000 0.830447
v 0.716469 0.345000 0.830447
v -0.542484 0.345000 0.830447
v 0.751470 0.420000 0.865447
v -0.577484 0.420000 0.830447
v -0.577484 0.420000 0.865447
v -0.542484 0.420000 0.830447
v 0.716469 0.420000 0.830447
v 0.751470 0.420000 0.830447
v 0.751470 0.420000 0.830447
v 0.751470 0.420000 0.865447
v 0.716469 0.420000 0.830447
v -0.542484 0.420000 0.830447
v -0.577484 0.420000 0.830447
v -0.577484 0.420000 0.865447
v 0.751470 0.345000 0.830447
v 0.751470 0.420000 0.865447
v 0.751470 0.345000 0.865447
v 0.751470 0.420000 0.830447
v 0.751470 0.420000 0.830447
v 0.751470 0.345000 0.830447
v 0.751470 0.420000 0.865447
v 0.751470 0.345000 0.865447
v 0.751470 0.420000 0.865447
v -0.577484 0.345000 0.865447
v 0.751470 0.345000 0.865447
v -0.577484 0.420000 0.865447
v -0.577484 0.420000 0.865447
v 0.751470 0.420000 0.865447
v -0.577484 0.345000 0.865447
v 0.751470 0.345000 0.865447
v -0.577484 0.420000 0.830447
v -0.577484 0.345000 0.865447
v -0.577484 0.420000 0.865447
v -0.577484 0.345000 0.830447
v -0.577484 0.345000 0.830447
v -0.577484 0.420000 0.830447
v -0.577484 0.345000 0.865447
v -0.577484 0.420000 0.865447
v 0.751470 0.345000 0.655447
v 0.751470 0.420000 0.690447
v 0.751470 0.345000 0.690447
v 0.751470 0.420000 0.655447
v 0.751470 0.420000 0.655447
v 0.751470 0.345000 0.655447
v 0.751470 0.420000 0.690447
v 0.751470 0.345000 0.690447
v -0.577484 0.420000 0.655447
v 0.751470 0.345000 0.655447
v -0.577484 0.345000 0.655447
v 0.751470 0.420000 0.655447
v 0.751470 0.420000 0.655447
v -0.577484 0.420000 0.655447
v 0.751470 0.345000 0.655447
v -0.577484 0.345000 0.655447
v -0.542484 0.420000 0.690447
v -0.577484 0.420000 0.655447
v -0.577484 0.420000 0.690447
v 0.751470 0.420000 0.655447
v 0.716469 0.420000 0.690447
v 0.751470 0.420000 0.690447
v 0.751470 0.420000 0.690447
v 0.716469 0.420000 0.690447
v 0.751470 0.420000 0.655447
v -0.542484 0.420000 0.690447
v -0.577484 0.420000 0.655447
v -0.577484 0.420000 0.690447
v 0.751470 0.420000 0.690447
v 0.716469 0.345000 0.690447
v 0.751470 0.345000 0.690447
v 0.716469 0.420000 0.690447
v 0.716469 0.420000 0.690447
v 0.751470 0.420000 0.690447
v 0.716469 0.345000 0.690447
v 0.751470 0.345000 0.690447
v 0.751470 0.345000 0.655447
v -0.577484 0.345000 0.690447
v -0.577484 0.345000 0.655447
v -0.542484 0.345000 0.690447
v 0.716469 0.345000 0.690447
v 0.751470 0.345000 0.690447
v 0.751470 0.345000 0.690447
v 0.751470 0.345000 0.655447
v 0.716469 0.345000 0.690447
v -0.542484 0.345000 0.690447
v -0.577484 0.345000 0.690447
v -0.577484 0.345000 0.655447
v -0.577484 0.420000 0.655447
v -0.577484 0.345000 0.690447
v -0.577484 0.420000 0.690447
v -0.577484 0.345000 0.655447
v -0.577484 0.345000 0.655447
v -0.577484 0.420000 0.655447
v -0.577484 0.345000 0.690447
v -0.577484 0.420000 0.690447
v 0.716469 0.420000 0.690447
v -0.542484 0.345000 0.690447
v 0.716469 0.345000 0.690447
v -0.542484 0.420000 0.690447
v -0.542484 0.420000 0.690447
v 0.716469 0.420000 0.690447
v -0.542484 0.345000 0.690447
v 0.716469 0.345000 0.690447
v 0.716469 0.420000 -0.702553
v 0.751470 0.345000 -0.702553
v 0.716469 0.345000 -0.702553
v 0.751470 0.420000 -0.702553
v 0.751470 0.420000 -0.702553
v 0.716469 0.420000 -0.702553
v 0.751470 0.345000 -0.702553
v 0.716469 0.345000 -0.702553
v -0.542484 0.345000 -0.702553
v -0.577484 0.345000 -0.667554
v -0.577484 0.345000 -0.702553
v 0.751470 0.345000 -0.667554
v 0.716469 0.345000 -0.702553
v 0.751470 0.345000 -0.702553
v 0.751470 0.345000 -0.702553
v 0.716469 0.345000 -0.702553
v 0.751470 0.345000 -0.667554
v -0.542484 0.345000 -0.702553
v -0.577484 0.345000 -0.667554
v -0.577484 0.345000 -0.702553
v -0.542484 0.420000 -0.702553
v 0.716469 0.345000 -0.702553
v -0.542484 0.345000 -0.702553
v 0.716469 0.420000 -0.702553
v 0.716469 0.420000 -0.702553
v -0.542484 0.420000 -0.702553
v 0.716469 0.345000 -0.702553
v -0.542484 0.345000 -0.702553
v 0.751470 0.420000 -0.667554
v -0.577484 0.420000 -0.702553
v -0.577484 0.420000 -0.667554
v -0.542484 0.420000 -0.702553
v 0.716469 0.420000 -0.702553
v 0.751470 0.420000 -0.702553
v 0.751470 0.420000 -0.702553
v 0.751470 0.420000 -0.667554
v 0.716469 0.420000 -0.702553
v -0.542484 0.420000 -0.702553
v -0.577484 0.420000 -0.702553
v -0.577484 0.420000 -0.667554
v 0.751470 0.345000 -0.702553
v 0.751470 0.420000 -0.667554
v 0.751470 0.345000 -0.667554
v 0.751470 0.420000 -0.702553
v 0.751470 0.420000 -0.702553
v 0.751470 0.345000 -0.702553
v 0.751470 0.420000 -0.667554
v 0.751470 0.345000 -0.667554
v 0.751470 0.420000 -0.667554
v -0.577484 0.345000 -0.667554
v 0.751470 0.345000 -0.667554
v -0.577484 0.420000 -0.667554
v -0.577484 0.420000 -0.667554
v 0.751470 0.420000 -0.667554
v -0.577484 0.345000 -0.667554
v 0.751470 0.345000 -0.667554
v -0.577484 0.420000 -0.702553
v -0.577484 0.345000 -0.667554
v -0.577484 0.420000 -0.667554
v -0.577484 0.345000 -0.702553
v -0.577484 0.345000 -0.702553
v -0.577484 0.420000 -0.702553
v -0.577484 0.345000 -0.667554
v -0.577484 0.420000 -0.667554
v -0.577484 0.420000 -0.877554
v -0.577484 0.345000 -0.842552
v -0.577484 0.420000 -0.842552
v -0.577484 0.345000 -0.877554
v -0.577484 0.345000 -0.877554
v -0.577484 0.420000 -0.877554
v -0.577484 0.345000 -0.842552
v -0.577484 0.420000 -0.842552
v -0.577484 0.420000 -0.877554
v 0.751470 0.345000 -0.877554
v -0.577484 0.345000 -0.877554
v 0.751470 0.420000 -0.877554
v 0.751470 0.420000 -0.877554
v -0.577484 0.420000 -0.877554
v 0.751470 0.345000 -0.877554
v -0.577484 0.345000 -0.877554
v 0.751470 0.345000 -0.877554
v -0.577484 0.345000 -0.842552
v -0.577484 0.345000 -0.877554
v -0.542484 0.345000 -0.842552
v 0.716469 0.345000 -0.842552
v 0.751470 0.345000 -0.842552
v 0.751470 0.345000 -0.842552
v 0.751470 0.345000 -0.877554
v 0.716469 0.345000 -0.842552
v -0.542484 0.345000 -0.842552
v -0.577484 0.345000 -0.842552
v -0.577484 0.345000 -0.877554
v -0.542484 0.420000 -0.842552
v -0.577484 0.420000 -0.877554
v -0.577484 0.420000 -0.842552
v 0.751470 0.420000 -0.877554
v 0.716469 0.420000 -0.842552
v 0.751470 0.420000 -0.842552
v 0.751470 0.420000 -0.842552
v 0.716469 0.420000 -0.842552
v 0.751470 0.420000 -0.877554
v -0.542484 0.420000 -0.842552
v -0.577484 0.420000 -0.877554
v -0.577484 0.420000 -0.842552
v 0.751470 0.345000 -0.877554
v 0.751470 0.420000 -0.842552
v 0.751470 0.345000 -0.842552
v 0.751470 0.420000 -0.877554
v 0.751470 0.420000 -0.877554
v 0.751470 0.345000 -0.877554
v 0.751470 0.420000 -0.842552
v 0.751470 0.345000 -0.842552
v 0.716469 0.420000 -0.842552
v -0.542484 0.345000 -0.842552
v 0.716469 0.345000 -0.842552
v -0.542484 0.420000 -0.842552
v -0.542484 0.420000 -0.842552
v 0.716469 0.420000 -0.842552
v -0.542484 0.345000 -0.842552
v 0.716469 0.345000 -0.842552
v 0.716469 0.148000 0.011246
v -0.542484 0.000000 0.011246
v 0.716469 0.000000 0.011246
v -0.542484 0.148000 0.011246
v -0.542484 0.148000 0.011246
v 0.716469 0.148000 0.011246
v -0.542484 0.000000 0.011246
v 0.716469 0.000000 0.011246
v -0.542484 0.000000 -0.023754
v -0.542484 0.148000 0.011246
v -0.542484 0.000000 0.011246
v -0.542484 0.148000 -0.023754
v -0.542484 0.148000 -0.023754
v -0.542484 0.000000 -0.023754
v -0.542484 0.148000 0.011246
v -0.542484 0.000000 0.011246
v 0.716469 0.000000 -0.023754
v -0.542484 0.000000 0.011246
v -0.542484 0.000000 -0.023754
v 0.716469 0.000000 0.011246
v 0.716469 0.000000 0.011246
v 0.716469 0.000000 -0.023754
v -0.542484 0.000000 0.011246
v -0.542484 0.000000 -0.023754
v 0.716469 0.148000 -0.023754
v 0.716469 0.000000 0.011246
v 0.716469 0.148000 0.011246
v 0.716469 0.000000 -0.023754
v 0.716469 0.000000 -0.023754
v 0.716469 0.148000 -0.023754
v 0.716469 0.000000 0.011246
v 0.716469 0.148000 0.011246
v 0.716469 0.148000 0.011246
v -0.542484 0.148000 -0.023754
v -0.542484 0.148000 0.011246
v 0.716469 0.148000 -0.023754
v 0.716469 0.148000 -0.023754
v 0.716469 0.148000 0.011246
v -0.542484 0.148000 -0.023754
v -0.542484 0.148000 0.011246
v -0.542484 0.148000 -0.023754
v 0.716469 0.000000 -0.023754
v -0.542484 0.000000 -0.023754
v 0.716469 0.148000 -0.023754
v 0.716469 0.148000 -0.023754
v -0.542484 0.148000 -0.023754
v 0.716469 0.000000 -0.023754
v -0.542484 0.000000 -0.023754
v 0.160469 0.720000 -0.157553
v 0.012469 0.720000 -0.164553
v 0.012469 0.720000 -0.157553
v 0.160469 0.720000 -0.164553
v 0.160469 0.720000 -0.164553
v 0.160469 0.720000 -0.157553
v 0.012469 0.720000 -0.164553
v 0.012469 0.720000 -0.157553
v 0.160469 0.685000 -0.417553
v 0.160469 0.720000 0.405447
v 0.160469 0.685000 0.405447
v 0.160469 0.720000 0.307447
v 0.160469 0.720000 0.300447
v 0.160469 0.720000 0.152447
v 0.160469 0.720000 0.145447
v 0.160469 0.720000 0.011246
v 0.160469 0.720000 -0.002553
v 0.160469 0.720000 -0.009553
v 0.160469 0.720000 -0.023754
v 0.160469 0.720000 -0.157553
v 0.160469 0.720000 -0.164553
v 0.160469 0.720000 -0.312553
v 0.160469 0.720000 -0.319553
v 0.160469 0.720000 -0.417553
v 0.160469 0.720000 -0.417553
v 0.160469 0.685000 -0.417553
v 0.160469 0.720000 -0.319553
v 0.160469 0.720000 -0.312553
v 0.160469 0.720000 -0.164553
v 0.160469 0.720000 -0.157553
v 0.160469 0.720000 -0.023754
v 0.160469 0.720000 -0.009553
v 0.160469 0.720000 -0.002553
v 0.160469 0.720000 0.011246
v 0.160469 0.720000 0.145447
v 0.160469 0.720000 0.152447
v 0.160469 0.720000 0.300447
v 0.160469 0.720000 0.307447
v 0.160469 0.720000 0.405447
v 0.160469 0.685000 0.405447
v 0.012469 0.720000 -0.312553
v 0.160469 0.720000 -0.312553
v 0.160469 0.720000 -0.312553
v 0.012469 0.720000 -0.312553
v 0.012469 0.720000 0.307447
v 0.012469 0.685000 0.405447
v 0.012469 0.720000 0.405447
v 0.012469 0.685000 -0.417553
v 0.012469 0.720000 0.300447
v 0.012469 0.720000 0.152447
v 0.012469 0.720000 0.145447
v 0.012469 0.720000 0.011246
v 0.012469 0.720000 -0.002553
v 0.012469 0.720000 -0.009553
v 0.012469 0.720000 -0.023754
v 0.012469 0.720000 -0.157553
v 0.012469 0.720000 -0.164553
v 0.012469 0.720000 -0.312553
v 0.012469 0.720000 -0.319553
v 0.012469 0.720000 -0.417553
v 0.012469 0.720000 -0.417553
v 0.012469 0.720000 -0.319553
v 0.012469 0.685000 -0.417553
v 0.012469 0.720000 -0.312553
v 0.012469 0.720000 -0.164553
v 0.012469 0.720000 -0.157553
v 0.012469 0.720000 -0.023754
v 0.012469 0.720000 -0.009553
v 0.012469 0.720000 -0.002553
v 0.012469 0.720000 0.011246
v 0.012469 0.720000 0.145447
v 0.012469 0.720000 0.152447
v 0.012469 0.720000 0.300447
v 0.012469 0.720000 0.307447
v 0.012469 0.685000 0.405447
v 0.012469 0.720000 0.405447
v 0.160469 0.720000 -0.319553
v 0.012469 0.720000 -0.417553
v 0.012469 0.720000 -0.319553
v 0.160469 0.720000 -0.417553
v 0.160469 0.720000 -0.417553
v 0.160469 0.720000 -0.319553
v 0.012469 0.720000 -0.417553
v 0.012469 0.720000 -0.319553
v 0.160469 0.720000 0.011246
v 0.012469 0.720000 -0.002553
v 0.012469 0.720000 0.011246
v 0.012469 0.720000 -0.009553
v 0.012469 0.720000 -0.023754
v 0.160469 0.720000 -0.023754
v 0.160469 0.720000 -0.002553
v 0.160469 0.720000 -0.009553
v 0.160469 0.720000 -0.009553
v 0.160469 0.720000 -0.002553
v 0.160469 0.720000 -0.023754
v 0.160469 0.720000 0.011246
v 0.012469 0.720000 -0.023754
v 0.012469 0.720000 -0.009553
v 0.012469 0.720000 -0.002553
v 0.012469 0.720000 0.011246
v 0.160469 0.720000 -0.002553
v 0.012469 0.720000 -0.009553
v 0.012469 0.720000 -0.002553
v 0.160469 0.720000 -0.009553
v 0.160469 0.720000 -0.009553
v 0.160469 0.720000 -0.002553
v 0.012469 0.720000 -0.009553
v 0.012469 0.720000 -0.002553
v 0.716469 0.720000 -0.002553
v 0.160469 0.720000 -0.009553
v 0.160469 0.720000 -0.002553
v 0.716469 0.720000 -0.009553
v 0.716469 0.720000 -0.009553
v 0.716469 0.720000 -0.002553
v 0.160469 0.720000 -0.009553
v 0.160469 0.720000 -0.002553
v 0.160469 0.720000 0.152447
v 0.012469 0.720000 0.145447
v 0.012469 0.720000 0.152447
v 0.160469 0.720000 0.145447
v 0.160469 0.720000 0.145447
v 0.160469 0.720000 0.152447
v 0.012469 0.720000 0.145447
v 0.012469 0.720000 0.152447
v 0.160469 0.720000 0.307447
v 0.012469 0.720000 0.300447
v 0.012469 0.720000 0.307447
v 0.160469 0.720000 0.300447
v 0.160469 0.720000 0.300447
v 0.160469 0.720000 0.307447
v 0.012469 0.720000 0.300447
v 0.012469 0.720000 0.307447
v 0.160469 0.720000 0.405447
v 0.012469 0.685000 0.405447
v 0.160469 0.685000 0.405447
v 0.012469 0.720000 0.405447
v 0.012469 0.720000 0.405447
v 0.160469 0.720000 0.405447
v 0.012469 0.685000 0.405447
v 0.160469 0.685000 0.405447
v 0.160469 0.685000 -0.417553
v 0.012469 0.685000 0.405447
v 0.012469 0.685000 -0.417553
v 0.160469 0.685000 0.405447
v 0.160469 0.685000 0.405447
v 0.160469 0.685000 -0.417553
v 0.012469 0.685000 0.405447
v 0.012469 0.685000 -0.417553
v 0.012469 0.720000 -0.417553
v 0.160469 0.685000 -0.417553
v 0.012469 0.685000 -0.417553
v 0.160469 0.720000 -0.417553
v 0.160469 0.720000 -0.417553
v 0.012469 0.720000 -0.417553
v 0.160469 0.685000 -0.417553
v 0.012469 0.685000 -0.417553
v -0.542484 0.720000 -0.009553
v -0.542484 0.720000 -0.002553
v -0.542484 0.720000 -0.009553
v -0.542484 0.720000 -0.002553
v -0.542484 0.720000 -0.023754
v 0.716469 0.572000 -0.023754
v -0.542484 0.572000 -0.023754
v 0.012469 0.720000 -0.023754
v 0.160469 0.720000 -0.023754
v 0.716469 0.720000 -0.023754
v 0.012469 0.720000 -0.023754
v 0.716469 0.572000 -0.023754
v 0.160469 0.720000 -0.023754
v 0.716469 0.720000 -0.023754
v -0.542484 0.720000 -0.023754
v -0.542484 0.572000 -0.023754
v 0.716469 0.720000 0.011246
v -0.542484 0.572000 0.011246
v 0.716469 0.572000 0.011246
v 0.160469 0.720000 0.011246
v 0.012469 0.720000 0.011246
v -0.542484 0.720000 0.011246
v 0.160469 0.720000 0.011246
v -0.542484 0.572000 0.011246
v 0.012469 0.720000 0.011246
v -0.542484 0.720000 0.011246
v 0.716469 0.720000 0.011246
v 0.716469 0.572000 0.011246
v 0.716469 0.720000 -0.002553
v 0.716469 0.572000 0.011246
v 0.716469 0.720000 0.011246
v 0.716469 0.572000 -0.023754
v 0.716469 0.720000 -0.009553
v 0.716469 0.720000 -0.023754
v 0.716469 0.720000 -0.023754
v 0.716469 0.720000 -0.009553
v 0.716469 0.572000 -0.023754
v 0.716469 0.720000 -0.002553
v 0.716469 0.572000 0.011246
v 0.716469 0.720000 0.011246
v -0.542484 0.572000 -0.023754
v -0.542484 0.720000 0.011246
v -0.542484 0.572000 0.011246
v -0.542484 0.720000 -0.002553
v -0.542484 0.720000 -0.009553
v -0.542484 0.720000 -0.023754
v -0.542484 0.720000 -0.023754
v -0.542484 0.572000 -0.023754
v -0.542484 0.720000 -0.009553
v -0.542484 0.720000 -0.002553
v -0.542484 0.720000 0.011246
v -0.542484 0.572000 0.011246
v 0.716469 0.572000 -0.023754
v -0.542484 0.572000 0.011246
v -0.542484 0.572000 -0.023754
v 0.716469 0.572000 0.011246
v 0.716469 0.572000 0.011246
v 0.716469 0.572000 -0.023754
v -0.542484 0.572000 0.011246
v -0.542484 0.572000 -0.023754
v -0.577484 0.720000 0.152447
v 0.012469 0.720000 0.152447
v 0.160469 0.720000 0.152447
v 0.786469 0.720000 0.152447
v 1.086468 0.758000 0.152447
v -0.913531 0.758000 0.152447
v -0.612484 0.720000 0.152447
v -0.913531 0.720000 0.152447
v -0.612484 0.720000 0.300447
v -0.913531 0.720000 0.300447
v -0.913531 0.758000 0.300447
v 1.086468 0.758000 0.300447
v 1.086468 0.720000 0.152447
v 0.786469 0.720000 0.300447
v 1.086468 0.720000 0.300447
v 0.751470 0.720000 0.152447
v 0.160469 0.720000 0.300447
v 0.012469 0.720000 0.300447
v -0.612484 0.720000 -0.407553
v -0.612484 0.646000 -0.407553
v -0.612484 0.720000 -0.319553
v -0.612484 0.720000 0.307447
v 0.751470 0.720000 0.300447
v 0.786469 0.720000 0.145447
v 0.786469 0.720000 -0.002553
v 0.786469 0.572000 -0.333553
v 0.786469 0.720000 -0.407553
v 0.786469 0.720000 -0.312553
v 1.086468 0.720000 0.145447
v -0.913531 0.720000 0.145447
v -0.577484 0.720000 0.145447
v 0.751470 0.720000 0.145447
v 0.751470 0.720000 -0.002553
v 0.751470 0.720000 0.065118
v 0.751470 0.646000 0.395447
v 0.786469 0.720000 0.307447
v 0.751470 0.720000 0.307447
v -0.577484 0.720000 0.307447
v -0.577484 0.720000 0.300447
v -0.612484 0.720000 -0.002553
v -0.612484 0.720000 0.145447
v -0.577484 0.720000 -0.407553
v 0.012469 0.720000 -0.417553
v 0.160469 0.720000 -0.417553
v -0.913531 0.720000 -0.467553
v -0.577484 0.572000 -0.333553
v -0.612484 0.572000 -0.333553
v -0.612484 0.572000 0.321447
v -0.577484 0.646000 0.395447
v -0.577484 0.572000 0.321447
v -0.612484 0.646000 0.395447
v -0.577484 0.720000 0.395447
v -0.612484 0.720000 0.395447
v 0.160469 0.720000 0.405447
v 0.751470 0.720000 0.395447
v 1.086468 0.720000 0.455447
v 0.012469 0.720000 0.405447
v -0.913531 0.720000 -0.002553
v -0.612484 0.720000 -0.009553
v -0.577484 0.720000 -0.009553
v -0.577484 0.720000 -0.157553
v -0.913531 0.720000 -0.312553
v -0.612484 0.720000 -0.312553
v -0.913531 0.720000 -0.164553
v -0.577484 0.720000 -0.312553
v 0.751470 0.572000 0.321447
v 0.786469 0.572000 0.321447
v 0.786469 0.646000 -0.407553
v 0.751470 0.646000 -0.407553
v 0.751470 0.720000 -0.312553
v 0.786469 0.720000 -0.164553
v 1.086468 0.720000 -0.157553
v 0.751470 0.720000 -0.157553
v 0.786469 0.720000 0.395447
v 0.786469 0.646000 0.395447
v 1.086468 0.720000 -0.002553
v 1.086468 0.758000 0.145447
v -0.913531 0.758000 0.145447
v -0.542484 0.720000 0.065118
v 0.012469 0.720000 0.145447
v 0.012469 0.720000 0.011246
v 0.160469 0.720000 0.145447
v -0.913531 0.758000 -0.002553
v 1.086468 0.758000 -0.002553
v 0.751470 0.720000 -0.009553
v 0.716469 0.720000 0.011246
v 0.716469 0.720000 0.065118
v 0.751470 0.000000 0.065118
v 0.751470 0.572000 0.065118
v 0.012469 0.720000 0.307447
v 0.160469 0.720000 0.307447
v 1.086468 0.720000 0.307447
v 1.086468 0.758000 0.307447
v -0.913531 0.758000 0.307447
v -0.913531 0.720000 0.307447
v -0.577484 0.720000 -0.002553
v -0.577484 0.720000 -0.082882
v -0.577484 0.720000 0.065118
v -0.542484 0.000000 0.065118
v -0.542484 0.720000 0.011246
v 1.086468 0.720000 -0.319553
v 0.160469 0.720000 -0.319553
v 0.012469 0.720000 -0.319553
v -0.913531 0.758000 -0.319553
v -0.577484 0.720000 -0.319553
v 0.786469 0.720000 -0.319553
v -0.577484 0.720000 -0.164553
v -0.577484 0.646000 -0.407553
v -0.913531 0.720000 -0.319553
v 1.086468 0.758000 -0.467553
v 1.086468 0.720000 -0.467553
v 1.086468 0.758000 -0.319553
v 0.751470 0.572000 -0.333553
v 0.751470 0.720000 -0.407553
v 0.751470 0.720000 -0.319553
v 0.751470 0.720000 -0.082882
v -0.577484 0.572000 -0.082882
v -0.577484 0.572000 0.065118
v 1.086468 0.758000 0.455447
v -0.913531 0.720000 0.455447
v -0.542484 0.720000 -0.002553
v -0.542484 0.720000 -0.009553
v 0.786469 0.720000 -0.009553
v 0.786469 0.720000 -0.157553
v 1.086468 0.758000 -0.157553
v -0.612484 0.720000 -0.157553
v -0.913531 0.720000 -0.157553
v -0.913531 0.758000 -0.157553
v -0.913531 0.720000 -0.009553
v -0.913531 0.758000 -0.009553
v 0.012469 0.720000 -0.157553
v -0.542484 0.720000 -0.082882
v 1.086468 0.758000 -0.164553
v -0.612484 0.720000 -0.164553
v 0.160469 0.720000 -0.164553
v 0.751470 0.720000 -0.164553
v 1.086468 0.720000 -0.164553
v 0.012469 0.720000 -0.312553
v -0.913531 0.758000 -0.164553
v 0.012469 0.720000 -0.164553
v 0.751470 0.572000 -0.082882
v 1.086468 0.720000 -0.312553
v 0.160469 0.720000 -0.312553
v 1.086468 0.758000 -0.009553
v 1.086468 0.720000 -0.009553
v 0.716469 0.720000 -0.009553
v 0.160469 0.720000 -0.157553
v 0.716469 0.720000 -0.002553
v -0.542484 0.148000 -0.023754
v -0.542484 0.148000 0.011246
v -0.542484 0.572000 0.011246
v -0.542484 0.000000 0.011246
v -0.542484 0.572000 -0.023754
v -0.542484 0.720000 -0.023754
v 0.160469 0.720000 -0.002553
v 0.012469 0.720000 -0.002553
v 0.160469 0.720000 0.011246
v 0.716469 0.572000 -0.023754
v 0.716469 0.148000 0.011246
v 0.716469 0.572000 0.011246
v 0.716469 0.000000 0.065118
v 0.716469 0.148000 -0.023754
v 0.716469 0.720000 -0.082882
v 0.716469 0.000000 -0.082882
v 0.716469 0.000000 0.011246
v 0.716469 0.000000 -0.023754
v 0.751470 0.000000 -0.082882
v -0.913531 0.758000 0.455447
v -0.542484 0.000000 -0.082882
v -0.577484 0.000000 -0.082882
v -0.577484 0.000000 0.065118
v -0.577484 0.000000 0.690447
v -0.542484 0.000000 -0.023754
v -0.913531 0.758000 -0.467553
v -0.577484 0.148000 0.065118
v -0.577484 0.148000 -0.702553
v 0.012469 0.720000 -0.023754
v 0.012469 0.720000 -0.009553
v 0.160469 0.720000 -0.009553
v 0.716469 0.720000 -0.023754
v 0.160469 0.720000 -0.023754
v -0.913531 0.758000 -0.312553
v 1.086468 0.758000 -0.312553
v 0.751470 0.148000 -0.082882
v 0.751470 0.148000 -0.702553
v 0.751470 0.148000 -0.842552
v 0.786469 0.148000 -0.842552
v 0.751470 0.148000 0.065118
v 0.786469 0.000000 -0.842552
v 0.751470 0.000000 0.830447
v 0.751470 0.000000 -0.702553
v 0.751470 0.000000 0.690447
v 0.751470 0.148000 0.690447
v 0.716469 0.000000 0.690447
v -0.577484 0.148000 -0.082882
v -0.612484 0.000000 -0.842552
v -0.577484 0.000000 0.830447
v -0.577484 0.000000 -0.702553
v -0.577484 0.000000 -0.842552
v -0.577484 0.148000 0.830447
v -0.577484 0.148000 0.690447
v -0.577484 0.420000 0.768447
v -0.577484 0.345000 0.690447
v -0.577484 0.420000 0.690447
v -0.577484 0.345000 0.830447
v -0.577484 0.148000 -0.842552
v -0.612484 0.148000 -0.842552
v -0.612484 0.000000 0.830447
v -0.612484 0.148000 0.830447
v 0.751470 0.345000 0.690447
v 0.751470 0.420000 0.690447
v 0.751470 0.420000 0.830447
v 0.786469 0.148000 0.830447
v 0.786469 0.000000 0.830447
v 0.751470 0.148000 0.830447
v 0.751470 0.000000 -0.842552
v 0.751470 0.345000 -0.702553
v 0.716469 0.000000 -0.702553
v 0.716469 0.000000 0.830447
v 0.716469 0.345000 0.830447
v 0.751470 0.345000 0.830447
v 0.716469 0.345000 0.690447
v -0.542484 0.345000 -0.702553
v -0.577484 0.345000 -0.702553
v -0.542484 0.000000 -0.842552
v -0.542484 0.345000 0.830447
v -0.542484 0.420000 0.768447
v -0.542484 0.345000 0.690447
v -0.542484 0.000000 0.690447
v -0.542484 0.000000 0.830447
v -0.577484 0.420000 0.830447
v -0.542484 0.420000 0.830447
v 0.751470 0.420000 0.865447
v -0.577484 0.420000 0.865447
v -0.627484 0.420000 0.916447
v -0.542484 0.420000 0.690447
v -0.627484 0.420000 0.609447
v -0.577484 0.420000 0.655447
v 0.751470 0.420000 0.757447
v 0.801470 0.420000 0.757447
v 0.751470 0.420000 0.655447
v -0.542484 0.420000 -0.842552
v -0.577484 0.420000 -0.842552
v -0.577484 0.345000 -0.842552
v -0.577484 0.420000 -0.702553
v 0.751470 0.420000 -0.702553
v 0.751470 0.420000 -0.764554
v 0.751470 0.420000 -0.667554
v 0.801470 0.420000 -0.764554
v -0.577484 0.420000 -0.667554
v 0.751470 0.420000 -0.877554
v -0.577484 0.420000 -0.877554
v 0.751470 0.420000 -0.775552
v 0.716469 0.420000 0.690447
v 0.716469 0.420000 0.830447
v 0.751470 0.345000 -0.842552
v 0.716469 0.420000 -0.842552
v 0.751470 0.420000 -0.842552
v 0.716469 0.420000 -0.775552
v 0.716469 0.420000 -0.764554
v 0.716469 0.345000 -0.702553
v 0.716469 0.420000 -0.702553
v 0.716469 0.345000 -0.842552
v 0.716469 0.000000 -0.842552
v -0.542484 0.000000 -0.702553
v -0.542484 0.420000 -0.775552
v -0.542484 0.345000 -0.842552
v -0.542484 0.420000 -0.702553
v -0.542484 0.420000 -0.764554
v 0.716469 0.420000 0.768447
v 0.751470 0.420000 0.768447
v 0.801470 0.458000 0.768447
v 0.801470 0.420000 0.768447
v -0.627484 0.420000 0.768447
v 0.801470 0.420000 0.916447
v 0.801470 0.458000 0.916447
v -0.627484 0.458000 0.768447
v 0.716469 0.420000 0.757447
v -0.542484 0.420000 0.757447
v -0.577484 0.420000 0.757447
v -0.627484 0.458000 0.757447
v -0.627484 0.420000 0.757447
v -0.627484 0.458000 0.609447
v 0.801470 0.420000 0.609447
v 0.801470 0.458000 0.609447
v 0.801470 0.458000 0.757447
v -0.577484 0.420000 -0.764554
v 0.801470 0.458000 -0.616553
v -0.627484 0.420000 -0.616553
v 0.801470 0.420000 -0.616553
v -0.627484 0.420000 -0.764554
v -0.627484 0.458000 -0.764554
v 0.801470 0.458000 -0.775552
v -0.577484 0.420000 -0.775552
v -0.627484 0.420000 -0.775552
v -0.627484 0.458000 -0.775552
v -0.627484 0.420000 -0.923553
v 0.801470 0.420000 -0.923553
v 0.801470 0.420000 -0.775552
v -0.627484 0.458000 0.916447
v 0.801470 0.458000 -0.764554
v -0.627484 0.458000 -0.616553
v 0.801470 0.458000 -0.923553
v -0.627484 0.458000 -0.923553
vt -5.6812 0.8400
vt -5.7512 0.6900
vt -5.6812 0.6900
vt -5.7512 0.8400
vt -5.7512 0.8400
vt -5.6812 0.8400
vt -5.7512 0.6900
vt -5.6812 0.6900
vt -3.1633 2.3341
vt -3.0933 2.2641
vt -3.0933 2.3341
vt -5.7512 2.2641
vt -5.6812 2.3341
vt -5.7512 2.3341
vt -5.7512 2.3341
vt -5.6812 2.3341
vt -5.7512 2.2641
vt -3.1633 2.3341
vt -3.0933 2.2641
vt -3.0933 2.3341
vt -3.1633 0.8400
vt -5.6812 0.6900
vt -3.1633 0.6900
vt -5.6812 0.8400
vt -5.6812 0.8400
vt -3.1633 0.8400
vt -5.6812 0.6900
vt -3.1633 0.6900
vt 5.7512 2.2641
vt 3.0933 2.3341
vt 3.0933 2.2641
vt 3.1633 2.3341
vt 5.6812 2.3341
vt 5.7512 2.3341
vt 5.7512 2.3341
vt 5.7512 2.2641
vt 5.6812 2.3341
vt 3.1633 2.3341
vt 3.0933 2.3341
vt 3.0933 2.2641
vt 2.3341 0.6900
vt 2.2641 0.8400
vt 2.2641 0.6900
vt 2.3341 0.8400
vt 2.3341 0.8400
vt 2.3341 0.6900
vt 2.2641 0.8400
vt 2.2641 0.6900
vt 5.7512 0.8400
vt 3.0933 0.6900
vt 5.7512 0.6900
vt 3.0933 0.8400
vt 3.0933 0.8400
vt 5.7512 0.8400
vt 3.0933 0.6900
vt 5.7512 0.6900
vt -2.3341 0.8400
vt -2.2641 0.6900
vt -2.2641 0.8400
vt -2.3341 0.6900
vt -2.3341 0.6900
vt -2.3341 0.8400
vt -2.2641 0.6900
vt -2.2641 0.8400
vt 0.0000 0.0000
vt 0.0000 0.0000
vt 0.0000 0.0000
vt 0.0000 0.0000
vt 0.0000 0.0000
vt 0.0000 0.0000
vt 0.0000 0.0000
vt 0.0000 0.0000
vt 0.0000 0.0000
vt 0.0000 0.0000
vt 0.0000 0.0000
vt 0.0000 0.0000
vt 0.0000 0.0000
vt 0.0000 0.0000
vt 0.0000 0.0000
vt 0.0000 0.0000
vt 0.0000 0.0000
vt 0.0000 0.0000
vt 0.0000 0.0000
vt 0.0000 0.0000
vt 0.0000 0.0000
vt 0.0000 0.0000
vt 0.0000 0.0000
vt 0.0000 0.0000
vt 0.0000 0.0000
vt 0.0000 0.0000
vt 0.0000 0.0000
vt 0.0000 0.0000
vt 0.0000 0.0000
vt 0.0000 0.0000
vt 0.0000 0.0000
vt 0.0000 0.0000
vt 0.0000 0.0000
vt 0.0000 0.0000
vt 0.0000 0.0000
vt 0.0000 0.0000
vt 0.0000 0.0000
vt 0.0000 0.0000
vt 0.0000 0.0000
vt 0.0000 0.0000
vt 0.0000 0.0000
vt 0.0000 0.0000
vt 0.0000 0.0000
vt 0.0000 0.0000
vt 0.0000 0.0000
vt 0.0000 0.0000
vt 0.0000 0.0000
vt 0.0000 0.0000
vt 0.0000 0.0000
vt 0.0000 0.0000
vt 0.0000 0.0000
vt 0.0000 0.0000
vt 0.0000 0.0000
vt 0.0000 0.0000
vt 0.0000 0.0000
vt 0.0000 0.0000
vt 0.0000 0.0000
vt 0.0000 0.0000
vt 0.0000 0.0000
vt 0.0000 0.0000
vt 0.0000 0.0000
vt 0.0000 0.0000
vt 0.0000 0.0000
vt 0.0000 0.0000
vt 0.0000 0.0000
vt 0.0000 0.0000
vt 0.0000 0.0000
vt 0.0000 0.0000
vt 0.0000 0.0000
vt 0.0000 0.0000
vt 0.0000 0.0000
vt 0.0000 0.0000
vt 0.0000 0.0000
vt 0.0000 0.0000
vt 0.0000 0.0000
vt 0.0000 0.0000
vt 0.0000 0.0000
vt 0.0000 0.0000
vt 0.0000 0.0000
vt 0.0000 0.0000
vt 0.0000 0.0000
vt 0.0000 0.0000
vt 0.0000 0.0000
vt 0.0000 0.0000
vt 0.0000 0.0000
vt 0.0000 0.0000
vt 0.0000 0.0000
vt 0.0000 0.0000
vt 0.0000 0.0000
vt 0.0000 0.0000
vt 0.0000 0.0000
vt 0.0000 0.0000
vt 0.0000 0.0000
vt 0.0000 0.0000
vt 0.0000 0.0000
vt 0.0000 0.0000
vt 0.0000 0.0000
vt 0.0000 0.0000
vt 0.0000 0.0000
vt 0.0000 0.0000
vt 0.0000 0.0000
vt 0.0000 0.0000
vt 0.0000 0.0000
vt 0.0000 0.0000
vt 0.0000 0.0000
vt 0.0000 0.0000
vt 0.0000 0.0000
vt 0.0000 0.0000
vt 0.0000 0.0000
vt 0.0000 0.0000
vt 0.0000 0.0000
vt 0.0000 0.0000
vt 0.0000 0.0000
vt 0.0000 0.0000
vt 0.0000 0.0000
vt 0.0000 0.0000
vt 0.0000 0.0000
vt 0.0000 0.0000
vt 0.0000 0.0000
vt 0.0000 0.0000
vt 0.0000 0.0000
vt 0.0000 0.0000
vt 0.0000 0.0000
vt 0.0000 0.0000
vt 0.0000 0.0000
vt 0.0000 0.0000
vt 0.0000 0.0000
vt 0.0000 0.0000
vt 0.0000 0.0000
vt 0.0000 0.0000
vt 0.0000 0.0000
vt 0.0000 0.0000
vt 0.0000 0.0000
vt 0.0000 0.0000
vt 0.0000 0.0000
vt 0.0000 0.0000
vt 0.0000 0.0000
vt 0.0000 0.0000
vt 0.0000 0.0000
vt 0.0000 0.0000
vt 0.0000 0.0000
vt 0.0000 0.0000
vt 0.0000 0.0000
vt 0.0000 0.0000
vt 0.0000 0.0000
vt 0.0000 0.0000
vt 0.0000 0.0000
vt 0.0000 0.0000
vt 0.0000 0.0000
vt 0.0000 0.0000
vt 0.0000 0.0000
vt 0.0000 0.0000
vt 0.0000 0.0000
vt 0.0000 0.0000
vt 0.0000 0.0000
vt 0.0000 0.0000
vt 0.0000 0.0000
vt 0.0000 0.0000
vt 0.0000 0.0000
vt 0.0000 0.0000
vt 0.0000 0.0000
vt 0.0000 0.0000
vt 0.0000 0.0000
vt 0.0000 0.0000
vt 0.0000 0.0000
vt 0.0000 0.0000
vt 0.0000 0.0000
vt 0.0000 0.0000
vt 0.0000 0.0000
vt 0.0000 0.0000
vt 0.0000 0.0000
vt 0.0000 0.0000
vt 0.0000 0.0000
vt 0.0000 0.0000
vt 0.0000 0.0000
vt 0.0000 0.0000
vt 0.0000 0.0000
vt 0.0000 0.0000
vt 0.0000 0.0000
vt 0.0000 0.0000
vt 0.0000 0.0000
vt 0.0000 0.0000
vt 0.0000 0.0000
vt 0.0000 0.0000
vt 0.0000 0.0000
vt 0.0000 0.0000
vt 0.0000 0.0000
vt 0.0000 0.0000
vt 0.0000 0.0000
vt 0.0000 0.0000
vt 0.0000 0.0000
vt 0.0000 0.0000
vt 0.0000 0.0000
vt 0.0000 0.0000
vt 0.0000 0.0000
vt 0.0000 0.0000
vt 0.0000 0.0000
vt 0.0000 0.0000
vt 0.0000 0.0000
vt 0.0000 0.0000
vt 0.0000 0.0000
vt 0.0000 0.0000
vt 0.0000 0.0000
vt 0.0000 0.0000
vt 0.0000 0.0000
vt 0.0000 0.0000
vt 0.0000 0.0000
vt 0.0000 0.0000
vt 0.0000 0.0000
vt 0.0000 0.0000
vt 0.0000 0.0000
vt 0.0000 0.0000
vt 0.0000 0.0000
vt 0.0000 0.0000
vt 0.0000 0.0000
vt 0.0000 0.0000
vt 0.0000 0.0000
vt 0.0000 0.0000
vt 0.0000 0.0000
vt 0.0000 0.0000
vt 0.0000 0.0000
vt 0.0000 0.0000
vt 0.0000 0.0000
vt 0.0000 0.0000
vt 0.0000 0.0000
vt 0.0000 0.0000
vt 0.0000 0.0000
vt 0.0000 0.0000
vt 0.0000 0.0000
vt 0.0000 0.0000
vt 0.0000 0.0000
vt 0.0000 0.0000
vt 0.0000 0.0000
vt 0.0000 0.0000
vt 0.0000 0.0000
vt 0.0000 0.0000
vt 0.0000 0.0000
vt 0.0000 0.0000
vt 0.0000 0.0000
vt 0.0000 0.0000
vt 0.0000 0.0000
vt 0.0000 0.0000
vt 0.0000 0.0000
vt 0.0000 0.0000
vt 0.0000 0.0000
vt 0.0000 0.0000
vt 0.0000 0.0000
vt 0.0000 0.0000
vt 0.0000 0.0000
vt 0.0000 0.0000
vt 0.0000 0.0000
vt 0.0000 0.0000
vt 0.0000 0.0000
vt 0.0000 0.0000
vt 0.0000 0.0000
vt 0.0000 0.0000
vt 0.0000 0.0000
vt 0.0000 0.0000
vt 0.0000 0.0000
vt 0.0000 0.0000
vt 0.0000 0.0000
vt 0.0000 0.0000
vt 0.0000 0.0000
vt 0.0000 0.0000
vt 0.0000 0.0000
vt 0.0000 0.0000
vt 0.0000 0.0000
vt 0.0000 0.0000
vt 0.0000 0.0000
vt 0.0000 0.0000
vt 0.0000 0.0000
vt 0.0000 0.0000
vt 0.0000 0.0000
vt 0.0000 0.0000
vt 0.0000 0.0000
vt 0.0000 0.0000
vt 0.0000 0.0000
vt 0.0000 0.0000
vt 0.0000 0.0000
vt 0.0000 0.0000
vt 0.0000 0.0000
vt 0.0000 0.0000
vt 0.0000 0.0000
vt 0.0000 0.0000
vt 0.0000 0.0000
vt 0.0000 0.0000
vt 0.0000 0.0000
vt 0.0000 0.0000
vt 0.0000 0.0000
vt 0.0000 0.0000
vt 0.0000 0.0000
vt 0.0000 0.0000
vt 0.0000 0.0000
vt 0.0000 0.0000
vt 0.0000 0.0000
vt 0.0000 0.0000
vt 0.0000 0.0000
vt 0.0000 0.0000
vt 0.0000 0.0000
vt 0.0000 0.0000
vt 0.0000 0.0000
vt 0.0000 0.0000
vt 0.0000 0.0000
vt 0.0000 0.0000
vt 0.0000 0.0000
vt 0.0000 0.0000
vt 0.0000 0.0000
vt 0.0000 0.0000
vt 0.0000 0.0000
vt 0.0000 0.0000
vt 0.0000 0.0000
vt 0.0000 0.0000
vt 0.0000 0.0000
vt 0.0000 0.0000
vt 0.0000 0.0000
vt 0.0000 0.0000
vt 0.0000 0.0000
vt 0.0000 0.0000
vt 0.0000 0.0000
vt 0.0000 0.0000
vt 0.0000 0.0000
vt 0.0000 0.0000
vt 0.0000 0.0000
vt 0.0000 0.0000
vt 0.0000 0.0000
vt 0.0000 0.0000
vt 0.0000 0.0000
vt 0.0000 0.0000
vt 0.0000 0.0000
vt 0.0000 0.0000
vt 0.0000 0.0000
vt 0.0000 0.0000
vt 0.0000 0.0000
vt 0.0000 0.0000
vt 0.0000 0.0000
vt 0.0000 0.0000
vt 0.0000 0.0000
vt 0.0000 0.0000
vt 0.0000 0.0000
vt 0.0000 0.0000
vt 0.0000 0.0000
vt 0.0000 0.0000
vt 0.0000 0.0000
vt 0.0000 0.0000
vt 0.0000 0.0000
vt 0.0000 0.0000
vt 0.0000 0.0000
vt 0.0000 0.0000
vt 0.0000 0.0000
vt 0.0000 0.0000
vt 0.0000 0.0000
vt 0.0000 0.0000
vt 0.0000 0.0000
vt 0.0000 0.0000
vt 0.0000 0.0000
vt 0.0000 0.0000
vt 0.0000 0.0000
vt 0.0000 0.0000
vt 0.0000 0.0000
vt 0.0000 0.0000
vt 0.0000 0.0000
vt 0.0000 0.0000
vt 0.0000 0.0000
vt 0.0000 0.0000
vt 0.0000 0.0000
vt 0.0000 0.0000
vt 0.0000 0.0000
vt 0.0000 0.0000
vt 0.0000 0.0000
vt 0.0000 0.0000
vt 0.0000 0.0000
vt 0.0000 0.0000
vt 0.0000 0.0000
vt 0.0000 0.0000
vt 0.0000 0.0000
vt 0.0000 0.0000
vt 0.0000 0.0000
vt 0.0000 0.0000
vt 0.0000 0.0000
vt 0.0000 0.0000
vt 0.0000 0.0000
vt 0.0000 0.0000
vt 0.0000 0.0000
vt 0.0000 0.0000
vt 0.0000 0.0000
vt 0.0000 0.0000
vt 0.0000 0.0000
vt 0.0000 0.0000
vt 0.0000 0.0000
vt 0.0000 0.0000
vt 0.0000 0.0000
vt 0.0000 0.0000
vt 0.0000 0.0000
vt 0.0000 0.0000
vt 0.0000 0.0000
vt 0.0000 0.0000
vt 0.0000 0.0000
vt 0.0000 0.0000
vt 0.0000 0.0000
vt 0.0000 0.0000
vt 0.0000 0.0000
vt 0.0000 0.0000
vt 0.0000 0.0000
vt 0.0000 0.0000
vt 0.0000 0.0000
vt 0.0000 0.0000
vt 0.0000 0.0000
vt 0.0000 0.0000
vt 0.0000 0.0000
vt 0.0000 0.0000
vt 0.0000 0.0000
vt 0.0000 0.0000
vt 0.0000 0.0000
vt 0.0000 0.0000
vt 0.0000 0.0000
vt 0.0000 0.0000
vt 0.0000 0.0000
vt 0.0000 0.0000
vt 0.0000 0.0000
vt 0.0000 0.0000
vt 0.0000 0.0000
vt 0.0000 0.0000
vt 0.0000 0.0000
vt 0.0000 0.0000
vt 0.0000 0.0000
vt 0.0000 0.0000
vt 0.0000 0.0000
vt 0.0000 0.0000
vt 0.0000 0.0000
vt 0.0000 0.0000
vt 0.0000 0.0000
vt 0.0000 0.0000
vt 0.0000 0.0000
vt 0.0000 0.0000
vt 0.0000 0.0000
vt 0.0000 0.0000
vt 0.0000 0.0000
vt 0.0000 0.0000
vt 0.0000 0.0000
vt 0.0000 0.0000
vt 0.0000 0.0000
vt 0.0000 0.0000
vt 0.0000 0.0000
vt 0.0000 0.0000
vt 0.0000 0.0000
vt 0.0000 0.0000
vt 0.0000 0.0000
vt 0.0000 0.0000
vt 0.9108 0.4955
vt 0.8996 0.5833
vt 0.9108 0.4853
vt 0.9108 0.3132
vt 0.9108 0.2701
vt 0.9108 0.0977
vt 0.9108 0.0875
vt 0.9108 0.0000
vt 0.8996 0.0000
vt 0.9108 0.5833
vt 0.3063 0.7935
vt 0.2629 0.7058
vt 0.3063 0.7058
vt 0.2629 0.7935
vt 0.4777 0.8043
vt 0.4888 0.8475
vt 0.4777 0.8475
vt 0.4888 0.8043
vt 0.0869 0.0000
vt 0.1303 0.5833
vt 0.0869 0.5833
vt 0.1303 0.0000
vt 0.5757 0.8475
vt 0.5646 0.8043
vt 0.5757 0.8043
vt 0.5646 0.8475
vt 0.0434 0.7553
vt 0.0869 0.8428
vt 0.0434 0.8428
vt 0.0869 0.7553
vt 0.1958 0.6541
vt 0.2061 0.6562
vt 0.1958 0.6562
vt 0.2061 0.6541
vt 0.1958 0.6110
vt 0.2061 0.6110
vt 0.4777 0.4167
vt 0.5211 0.5891
vt 0.4777 0.5891
vt 0.5211 0.4167
vt 0.5211 0.6322
vt 0.4777 0.6322
vt 0.5211 0.8043
vt 0.4777 0.8043
vt 0.8125 0.5800
vt 0.8228 0.5780
vt 0.8228 0.5800
vt 0.8125 0.5780
vt 0.8228 0.6232
vt 0.8125 0.6232
vt 0.4343 0.5136
vt 0.4126 0.4879
vt 0.4343 0.4879
vt 0.3908 0.5095
vt 0.3908 0.7005
vt 0.4343 0.5156
vt 0.4343 0.5588
vt 0.4343 0.5608
vt 0.4343 0.6040
vt 0.4343 0.6060
vt 0.4343 0.6492
vt 0.4343 0.6512
vt 0.4343 0.6944
vt 0.4343 0.6964
vt 0.4343 0.7221
vt 0.4126 0.7221
vt 0.8662 0.5833
vt 0.8773 0.4958
vt 0.8773 0.5833
vt 0.8773 0.4856
vt 0.8773 0.3132
vt 0.8773 0.2701
vt 0.8773 0.0980
vt 0.8773 0.0878
vt 0.8773 0.0000
vt 0.8662 0.0000
vt 0.3474 0.7005
vt 0.3908 0.7221
vt 0.3691 0.7221
vt 0.3908 0.6964
vt 0.3474 0.5095
vt 0.3908 0.6944
vt 0.3908 0.6512
vt 0.3908 0.6492
vt 0.3908 0.6060
vt 0.3908 0.6040
vt 0.3908 0.5608
vt 0.3908 0.5588
vt 0.3908 0.5156
vt 0.3908 0.5136
vt 0.3908 0.4879
vt 0.3691 0.4879
vt 0.9331 0.5833
vt 0.9442 0.4958
vt 0.9442 0.5833
vt 0.9442 0.4856
vt 0.9442 0.3132
vt 0.9442 0.2701
vt 0.9442 0.0980
vt 0.9442 0.0878
vt 0.9442 0.0000
vt 0.9331 0.0000
vt 0.0000 0.0000
vt 0.0000 0.0000
vt 0.0000 0.0000
vt 0.1958 0.6993
vt 0.2061 0.6993
vt 0.4343 0.7686
vt 0.4560 0.7942
vt 0.4343 0.7942
vt 0.4777 0.7726
vt 0.4777 0.6979
vt 0.4343 0.7665
vt 0.4343 0.7233
vt 0.4343 0.7213
vt 0.4343 0.6979
vt 0.1958 0.6089
vt 0.2061 0.6089
vt 0.6080 0.6293
vt 0.6514 0.6509
vt 0.6297 0.6509
vt 0.6514 0.6253
vt 0.6080 0.5546
vt 0.6514 0.6232
vt 0.6514 0.5800
vt 0.6514 0.5780
vt 0.6514 0.5546
vt 0.8125 0.5348
vt 0.8228 0.5348
vt 0.0000 0.0000
vt 0.0000 0.0000
vt 0.0000 0.0000
vt 0.8125 0.6253
vt 0.8228 0.6253
vt 0.8125 0.4424
vt 0.8228 0.4167
vt 0.8228 0.4424
vt 0.8125 0.4167
vt 0.0869 0.0000
vt 0.0692 0.0878
vt 0.0434 0.0000
vt 0.0869 0.5833
vt 0.0692 0.0980
vt 0.0722 0.2701
vt 0.0434 0.0980
vt 0.0722 0.3132
vt 0.0434 0.3132
vt 0.0692 0.4856
vt 0.0692 0.4958
vt 0.0434 0.5833
vt 0.0434 0.4958
vt 0.0434 0.4856
vt 0.0434 0.2701
vt 0.0434 0.0878
vt 0.6822 0.8094
vt 0.6925 0.8310
vt 0.6822 0.8310
vt 0.6925 0.8094
vt 0.9005 0.5833
vt 0.9108 0.6048
vt 0.9005 0.6048
vt 0.9108 0.5833
vt 0.9005 0.7959
vt 0.9108 0.7959
vt 0.0000 0.0000
vt 0.0000 0.0000
vt 0.0000 0.0000
vt 0.0000 0.0000
vt 0.9108 0.8175
vt 0.9005 0.8175
vt 0.3474 0.8099
vt 0.3577 0.8315
vt 0.3474 0.8315
vt 0.3577 0.8099
vt 0.8228 0.6509
vt 0.8125 0.6509
vt 0.2171 0.3132
vt 0.2430 0.4853
vt 0.2171 0.4853
vt 0.2171 0.0977
vt 0.2459 0.2701
vt 0.2171 0.2701
vt 0.2430 0.0977
vt 0.2171 0.0000
vt 0.2430 0.0875
vt 0.2171 0.0875
vt 0.2171 0.4955
vt 0.2606 0.5833
vt 0.2171 0.5833
vt 0.2430 0.4955
vt 0.2606 0.0000
vt 0.2459 0.3132
vt 0.3908 0.8099
vt 0.3474 0.7221
vt 0.3908 0.7221
vt 0.3474 0.8099
vt 0.8228 0.5328
vt 0.8125 0.5328
vt 0.6948 0.8094
vt 0.6514 0.7216
vt 0.6948 0.7216
vt 0.6514 0.8094
vt 0.8125 0.4896
vt 0.8228 0.4896
vt 0.0000 0.0000
vt 0.0000 0.0000
vt 0.0000 0.0000
vt 0.8228 0.4876
vt 0.8125 0.4876
vt 0.4343 0.8099
vt 0.3908 0.7221
vt 0.4343 0.7221
vt 0.3908 0.8099
vt 0.8125 0.4444
vt 0.8228 0.4444
vt 0.0000 0.0000
vt 0.0000 0.0000
vt 0.0000 0.0000
vt 0.0000 0.0000
vt 0.9434 0.6048
vt 0.9434 0.7959
vt 0.9331 0.7959
vt 0.9331 0.6048
vt 0.9434 0.8175
vt 0.9331 0.8175
vt 0.3577 0.8099
vt 0.3680 0.8315
vt 0.3577 0.8315
vt 0.3680 0.8099
vt 0.2061 0.8175
vt 0.1958 0.8175
vt 0.1958 0.7918
vt 0.2061 0.7918
vt 0.2061 0.7897
vt 0.1958 0.7897
vt 0.1421 0.7069
vt 0.1855 0.7944
vt 0.1421 0.7944
vt 0.1855 0.7069
vt 0.1958 0.7466
vt 0.2061 0.7466
vt 0.2061 0.7445
vt 0.1958 0.7445
vt 0.0000 0.7556
vt 0.0434 0.8431
vt 0.0000 0.8431
vt 0.0434 0.7556
vt 0.0000 0.0000
vt 0.0000 0.0000
vt 0.0000 0.0000
vt 0.1958 0.7014
vt 0.2061 0.7014
vt 0.6948 0.7216
vt 0.7383 0.8091
vt 0.6948 0.8091
vt 0.7383 0.7216
vt 0.1958 0.5833
vt 0.2061 0.5833
vt 0.3680 0.8099
vt 0.3782 0.8315
vt 0.3680 0.8315
vt 0.3782 0.8099
vt 0.9331 0.5833
vt 0.9434 0.5833
vt 0.5980 0.8475
vt 0.5869 0.8043
vt 0.5980 0.8043
vt 0.5869 0.8475
vt 0.3040 0.0000
vt 0.3474 0.5833
vt 0.3040 0.5833
vt 0.3474 0.0000
vt 0.5335 0.8043
vt 0.5446 0.8475
vt 0.5335 0.8475
vt 0.5446 0.8043
vt 0.5686 0.6322
vt 0.5844 0.7941
vt 0.5686 0.7941
vt 0.6080 0.8043
vt 0.5844 0.8043
vt 0.6080 0.6322
vt 0.5686 0.5891
vt 0.6080 0.5891
vt 0.5686 0.4269
vt 0.5844 0.4269
vt 0.6080 0.4167
vt 0.5844 0.4167
vt 1.0000 0.0000
vt 0.9888 0.0878
vt 0.9888 0.0000
vt 0.9888 0.0980
vt 0.9888 0.1082
vt 0.9888 0.2701
vt 0.9888 0.3132
vt 0.9888 0.4754
vt 0.0000 0.0000
vt 0.0000 0.0000
vt 0.5211 0.4371
vt 0.5211 0.4167
vt 0.5211 0.5246
vt 0.9888 0.5833
vt 1.0000 0.5833
vt 0.4578 0.4879
vt 0.4777 0.4879
vt 0.4777 0.5311
vt 0.4343 0.5311
vt 0.4558 0.4879
vt 0.4343 0.4879
vt 0.5646 0.4167
vt 0.5646 0.4269
vt 0.9536 0.7501
vt 0.9639 0.7932
vt 0.9536 0.7932
vt 0.9639 0.5833
vt 0.9536 0.6264
vt 0.9536 0.5833
vt 0.8885 0.5833
vt 0.8996 0.4955
vt 0.8996 0.5833
vt 0.8996 0.4853
vt 0.8996 0.3132
vt 0.8996 0.2701
vt 0.8996 0.0977
vt 0.8996 0.0875
vt 0.8996 0.0000
vt 0.8885 0.0000
vt 0.6080 0.5114
vt 0.6514 0.5348
vt 0.6514 0.5328
vt 0.6514 0.5114
vt 0.9742 0.5833
vt 0.9844 0.7932
vt 0.9742 0.7932
vt 0.9844 0.7501
vt 0.9844 0.6264
vt 0.9844 0.5833
vt 0.5646 0.7941
vt 0.5646 0.8043
vt 0.0000 0.0000
vt 0.0000 0.0000
vt 0.0000 0.0000
vt 0.8885 0.0000
vt 0.8773 0.0875
vt 0.8773 0.0000
vt 0.8773 0.0977
vt 0.8773 0.2701
vt 0.8773 0.3132
vt 0.8773 0.4853
vt 0.8773 0.4955
vt 0.8773 0.5833
vt 0.8885 0.5833
vt 0.6080 0.4383
vt 0.6514 0.4896
vt 0.6514 0.4876
vt 0.6514 0.4444
vt 0.6514 0.4424
vt 0.6514 0.4167
vt 0.6297 0.4167
vt 0.5000 0.8043
vt 0.5112 0.8475
vt 0.5000 0.8475
vt 0.5112 0.8043
vt 0.9777 0.5833
vt 0.9888 0.0000
vt 0.9888 0.5833
vt 0.9777 0.0000
vt 0.5558 0.8475
vt 0.5446 0.8043
vt 0.5558 0.8043
vt 0.5446 0.8475
vt 0.2195 0.7787
vt 0.2629 0.8004
vt 0.2195 0.8004
vt 0.2629 0.7273
vt 0.2195 0.7766
vt 0.2195 0.7335
vt 0.2195 0.7314
vt 0.2195 0.7058
vt 0.2412 0.7058
vt 0.1855 0.5833
vt 0.1421 0.7069
vt 0.1421 0.5833
vt 0.1855 0.7069
vt 0.7060 0.8522
vt 0.6948 0.8091
vt 0.7060 0.8091
vt 0.6948 0.8522
vt 0.9442 0.5833
vt 0.9554 0.0000
vt 0.9554 0.5833
vt 0.9442 0.0000
vt 0.5223 0.8043
vt 0.5335 0.8475
vt 0.5223 0.8475
vt 0.5335 0.8043
vt 0.8022 0.5348
vt 0.8022 0.5328
vt 0.9554 0.5833
vt 0.9665 0.4958
vt 0.9665 0.5833
vt 0.9665 0.4856
vt 0.9665 0.4754
vt 0.0000 0.0000
vt 0.0000 0.0000
vt 0.0000 0.0000
vt 0.0000 0.0000
vt 0.0000 0.0000
vt 0.0000 0.0000
vt 0.9665 0.0000
vt 0.9554 0.0000
vt 0.9108 0.5833
vt 0.9219 0.4955
vt 0.9219 0.5833
vt 0.9219 0.4853
vt 0.9219 0.3132
vt 0.9219 0.2701
vt 0.9219 0.0977
vt 0.9219 0.0875
vt 0.9219 0.0000
vt 0.9108 0.0000
vt 0.4888 0.8043
vt 0.5000 0.8475
vt 0.4888 0.8475
vt 0.5000 0.8043
vt 0.5211 0.6322
vt 0.5430 0.8043
vt 0.5211 0.8043
vt 0.5430 0.7941
vt 0.5604 0.7941
vt 0.5604 0.6322
vt 0.5646 0.8043
vt 0.5646 0.7941
vt 0.9777 0.0000
vt 0.9665 0.0875
vt 0.9665 0.0000
vt 0.9665 0.0977
vt 0.9665 0.2701
vt 0.9665 0.3132
vt 0.9665 0.4853
vt 0.9665 0.4955
vt 0.9665 0.5833
vt 0.9777 0.5833
vt 0.9331 0.0000
vt 0.9219 0.0878
vt 0.9219 0.0000
vt 0.9219 0.0980
vt 0.9219 0.2701
vt 0.9219 0.3132
vt 0.9219 0.4856
vt 0.9219 0.4958
vt 0.9219 0.5833
vt 0.9331 0.5833
vt 0.5112 0.8043
vt 0.5223 0.8475
vt 0.5112 0.8475
vt 0.5223 0.8043
vt 0.0869 0.7553
vt 0.0434 0.5833
vt 0.0869 0.5833
vt 0.0434 0.7553
vt 0.4343 0.6547
vt 0.4777 0.6547
vt 0.7171 0.8522
vt 0.7060 0.8091
vt 0.7171 0.8091
vt 0.7060 0.8522
vt 0.0000 0.5833
vt 0.0434 0.7556
vt 0.0000 0.7556
vt 0.0434 0.5833
vt 0.5869 0.8475
vt 0.5757 0.8043
vt 0.5869 0.8043
vt 0.5757 0.8475
vt 0.5430 0.4167
vt 0.5604 0.4269
vt 0.5430 0.4269
vt 0.5646 0.4167
vt 0.5646 0.4269
vt 0.5604 0.5891
vt 0.5211 0.4167
vt 0.5211 0.5891
vt 0.1855 0.7014
vt 0.1855 0.6993
vt 0.0869 0.7932
vt 0.1042 0.7501
vt 0.1042 0.7932
vt 0.1042 0.6264
vt 0.1042 0.5833
vt 0.0869 0.5833
vt 0.1145 0.6264
vt 0.1145 0.7501
vt 0.8180 0.6509
vt 0.8022 0.8609
vt 0.8022 0.6509
vt 0.8180 0.8609
vt 0.0000 0.0000
vt 0.0000 0.0000
vt 0.0000 0.0000
vt 0.5646 0.6322
vt 0.5646 0.5891
vt 0.1145 0.7932
vt 0.1318 0.7501
vt 0.1318 0.7932
vt 0.1318 0.6264
vt 0.1318 0.5833
vt 0.1145 0.5833
vt 0.1421 0.6264
vt 0.1421 0.7501
vt 0.3221 0.7058
vt 0.3063 0.9157
vt 0.3063 0.7058
vt 0.3221 0.9157
vt 0.0000 0.0000
vt 0.0000 0.0000
vt 0.0000 0.0000
vt 0.0000 0.0000
vt 0.9434 0.5833
vt 0.9536 0.7932
vt 0.9434 0.7932
vt 0.9536 0.7501
vt 0.9536 0.6264
vt 0.9536 0.5833
vt 0.8559 0.2215
vt 0.8457 0.2388
vt 0.8457 0.2215
vt 0.8457 0.2490
vt 0.8559 0.2647
vt 0.8457 0.2647
vt 0.6514 0.4167
vt 0.6948 0.5991
vt 0.6514 0.5991
vt 0.6948 0.4167
vt 0.4343 0.6979
vt 0.4777 0.6979
vt 0.1303 0.0000
vt 0.1737 0.5833
vt 0.1303 0.5833
vt 0.1737 0.0000
vt 0.9639 0.7501
vt 0.9742 0.7932
vt 0.9639 0.7932
vt 0.9742 0.5833
vt 0.9639 0.6264
vt 0.9639 0.5833
vt 0.3474 0.2664
vt 0.3474 0.2232
vt 0.3908 0.2232
vt 0.3908 0.2664
vt 0.3474 0.0408
vt 0.3908 0.0408
vt 0.8457 0.2215
vt 0.8354 0.2647
vt 0.8354 0.2215
vt 0.8457 0.2647
vt 0.0000 0.0000
vt 0.0000 0.0000
vt 0.0000 0.0000
vt 0.0000 0.0000
vt 0.0434 0.5833
vt 0.0000 0.5833
vt 0.0434 0.0000
vt 0.7920 0.4167
vt 0.7817 0.9046
vt 0.7817 0.4167
vt 0.7920 0.6399
vt 0.0000 0.0000
vt 0.0000 0.0000
vt 0.0000 0.0000
vt 0.7920 0.6831
vt 0.7920 0.9046
vt 0.0000 0.0000
vt 0.0000 0.0000
vt 0.0000 0.0000
vt 0.1737 0.0000
vt 0.2171 0.5833
vt 0.1737 0.5833
vt 0.2171 0.0000
vt 0.5646 0.6322
vt 0.5646 0.5891
vt 0.2606 0.0000
vt 0.3040 0.5833
vt 0.2606 0.5833
vt 0.3040 0.0000
vt 0.8022 0.4167
vt 0.7920 0.4576
vt 0.7920 0.4167
vt 0.7920 0.6399
vt 0.7920 0.6831
vt 0.7920 0.8638
vt 0.7920 0.9046
vt 0.8022 0.9046
vt 0.6948 0.4167
vt 0.7383 0.5974
vt 0.6948 0.5974
vt 0.7383 0.4167
vt 0.8662 0.0000
vt 0.8559 0.0408
vt 0.8559 0.0000
vt 0.8559 0.4471
vt 0.8559 0.4879
vt 0.8662 0.4879
vt 0.2195 0.7058
vt 0.2606 0.6626
vt 0.2606 0.7058
vt 0.2195 0.6626
vt 0.2937 0.7935
vt 0.3040 0.8942
vt 0.2937 0.8942
vt 0.3040 0.8510
vt 0.3040 0.7935
vt 0.3908 0.4471
vt 0.3474 0.4471
vt 0.8354 0.0000
vt 0.8251 0.4879
vt 0.8251 0.0000
vt 0.0000 0.0000
vt 0.0000 0.0000
vt 0.0000 0.0000
vt 0.8354 0.4879
vt 0.0000 0.0000
vt 0.0000 0.0000
vt 0.0000 0.0000
vt 0.3474 0.0000
vt 0.3908 0.0000
vt 0.1113 0.8726
vt 0.1216 0.9157
vt 0.1113 0.9157
vt 0.1216 0.8151
vt 0.1113 0.8151
vt 0.6262 0.7734
vt 0.6080 0.7953
vt 0.6080 0.7734
vt 0.6080 0.8527
vt 0.6491 0.8527
vt 0.6294 0.7734
vt 0.6491 0.7734
vt 0.0000 0.0000
vt 0.0000 0.0000
vt 0.3474 0.4879
vt 0.3908 0.4879
vt 0.7565 0.7839
vt 0.7383 0.8058
vt 0.7383 0.7839
vt 0.7793 0.8632
vt 0.7383 0.8632
vt 0.7597 0.7839
vt 0.7793 0.7839
vt 0.0000 0.0000
vt 0.0000 0.0000
vt 0.3221 0.7851
vt 0.3324 0.8282
vt 0.3221 0.8282
vt 0.3324 0.7851
vt 0.4343 0.0000
vt 0.4777 0.4879
vt 0.4343 0.4879
vt 0.4777 0.0000
vt 0.0971 0.8726
vt 0.1074 0.9157
vt 0.0971 0.9157
vt 0.1074 0.8726
vt 0.0000 0.0000
vt 0.0000 0.0000
vt 0.0000 0.0000
vt 0.2606 0.5833
vt 0.2424 0.5833
vt 0.2391 0.5833
vt 0.2195 0.5833
vt 0.0000 0.0000
vt 0.0000 0.0000
vt 0.0000 0.0000
vt 0.2629 0.8510
vt 0.2732 0.8942
vt 0.2629 0.8942
vt 0.2732 0.8510
vt 0.4343 0.4879
vt 0.3908 0.0000
vt 0.4343 0.0000
vt 0.3908 0.4879
vt 0.1318 0.8364
vt 0.1216 0.7932
vt 0.1318 0.7932
vt 0.1216 0.8364
vt 0.6080 0.7302
vt 0.6491 0.7302
vt 0.6491 0.7734
vt 0.6080 0.7734
vt 0.6491 0.6728
vt 0.6491 0.6509
vt 0.6309 0.6509
vt 0.6276 0.6509
vt 0.6080 0.6509
vt 0.0000 0.0000
vt 0.0000 0.0000
vt 0.0000 0.0000
vt 0.4343 0.8517
vt 0.4445 0.8948
vt 0.4343 0.8948
vt 0.4445 0.7942
vt 0.4343 0.7942
vt 0.8457 0.0408
vt 0.8457 0.0000
vt 0.8457 0.4879
vt 0.8457 0.4471
vt 0.2835 0.8942
vt 0.2835 0.7935
vt 0.2732 0.7935
vt 0.0000 0.0000
vt 0.0000 0.0000
vt 0.0000 0.0000
vt 0.2629 0.7058
vt 0.2629 0.5833
vt 0.2811 0.5833
vt 0.3040 0.7058
vt 0.2843 0.5833
vt 0.3040 0.5833
vt 0.0000 0.0000
vt 0.0000 0.0000
vt 0.0000 0.0000
vt 0.2937 0.8942
vt 0.2835 0.7935
vt 0.2937 0.7935
vt 0.2835 0.8367
vt 0.2835 0.8942
vt 0.7274 0.8091
vt 0.7171 0.8499
vt 0.7171 0.8091
vt 0.7274 0.8499
vt 0.6719 0.8094
vt 0.6617 0.8502
vt 0.6617 0.8094
vt 0.6719 0.8502
vt 0.0869 0.8151
vt 0.0869 0.9157
vt 0.0971 0.8151
vt 0.1113 0.7932
vt 0.1216 0.7932
vt 0.3040 0.7058
vt 0.3451 0.6051
vt 0.3451 0.7058
vt 0.3451 0.5833
vt 0.3269 0.5833
vt 0.3237 0.5833
vt 0.3040 0.5833
vt 0.0000 0.0000
vt 0.0000 0.0000
vt 0.0000 0.0000
vt 0.0869 0.7932
vt 0.0971 0.7932
vt 0.6617 0.8094
vt 0.6514 0.8275
vt 0.6514 0.8094
vt 0.6617 0.8275
vt 0.6948 0.0000
vt 0.7130 0.0146
vt 0.6948 0.0146
vt 0.7233 0.0146
vt 0.6948 0.4022
vt 0.7383 0.4167
vt 0.6948 0.4167
vt 0.7233 0.4022
vt 0.7383 0.0000
vt 0.0000 0.0000
vt 0.0000 0.0000
vt 0.0000 0.0000
vt 0.6514 0.8307
vt 0.6617 0.8307
vt 0.6617 0.8502
vt 0.6514 0.8502
vt 0.7817 0.4167
vt 0.7952 0.4022
vt 0.8251 0.4167
vt 0.7817 0.0000
vt 0.7952 0.0146
vt 0.8055 0.0146
vt 0.8251 0.0146
vt 0.8251 0.0000
vt 0.8251 0.4022
vt 0.0000 0.0000
vt 0.0000 0.0000
vt 0.3427 0.8282
vt 0.3427 0.7276
vt 0.3324 0.7276
vt 0.3324 0.7058
vt 0.3427 0.7058
vt 0.2937 0.9160
vt 0.2835 0.9160
vt 0.6514 0.4167
vt 0.6332 0.4022
vt 0.6514 0.4022
vt 0.6229 0.4022
vt 0.6514 0.0146
vt 0.6080 0.0000
vt 0.6514 0.0000
vt 0.6229 0.0146
vt 0.6080 0.4167
vt 0.0000 0.0000
vt 0.0000 0.0000
vt 0.0000 0.0000
vt 0.7377 0.8272
vt 0.7274 0.8272
vt 0.7274 0.8091
vt 0.7377 0.8091
vt 0.7274 0.8304
vt 0.7377 0.8304
vt 0.5211 0.4167
vt 0.5346 0.4021
vt 0.5646 0.4167
vt 0.5211 0.0000
vt 0.5346 0.0146
vt 0.5449 0.0146
vt 0.5646 0.0146
vt 0.5646 0.0000
vt 0.5646 0.4021
vt 0.0000 0.0000
vt 0.0000 0.0000
vt 0.7377 0.8499
vt 0.7274 0.8499
vt 0.4668 0.8155
vt 0.4771 0.8350
vt 0.4668 0.8350
vt 0.4771 0.8155
vt 0.4771 0.8123
vt 0.4668 0.8123
vt 0.4668 0.7942
vt 0.4771 0.7942
vt 0.1421 0.8939
vt 0.1421 0.7932
vt 0.1318 0.8939
vt 0.1421 0.9157
vt 0.1318 0.9157
vt 0.6822 0.8321
vt 0.6719 0.8321
vt 0.6719 0.8126
vt 0.6822 0.8126
vt 0.6822 0.8094
vt 0.6719 0.8094
vt 0.6332 0.3919
vt 0.6514 0.3919
vt 0.7107 0.5991
vt 0.6925 0.6210
vt 0.6925 0.5991
vt 0.6925 0.7216
vt 0.7336 0.7216
vt 0.7139 0.5991
vt 0.7336 0.5991
vt 0.0000 0.0000
vt 0.0000 0.0000
vt 0.0000 0.0000
vt 0.7579 0.4167
vt 0.7761 0.7839
vt 0.7579 0.7839
vt 0.7761 0.4167
vt 0.7383 0.4167
vt 0.7579 0.7839
vt 0.7383 0.7839
vt 0.7579 0.4167
vt 0.6514 0.7216
vt 0.6925 0.6210
vt 0.6925 0.7216
vt 0.6743 0.5991
vt 0.6711 0.5991
vt 0.6514 0.5991
vt 0.0000 0.0000
vt 0.0000 0.0000
vt 0.0000 0.0000
vt 0.6925 0.5991
vt 0.9108 1.0000
vt 0.9219 0.9854
vt 0.9219 1.0000
vt 0.9219 0.9752
vt 0.9219 0.6081
vt 0.9219 0.5978
vt 0.9219 0.5833
vt 0.9108 0.5833
vt 0.1755 0.8376
vt 0.1644 0.7944
vt 0.1755 0.7944
vt 0.1644 0.8376
vt 0.9219 1.0000
vt 0.9331 0.5833
vt 0.9331 1.0000
vt 0.9219 0.5833
vt 0.2195 0.8004
vt 0.2306 0.8436
vt 0.2195 0.8436
vt 0.2306 0.8004
vt 0.8363 0.4879
vt 0.8251 0.5025
vt 0.8251 0.4879
vt 0.8251 0.5127
vt 0.8251 0.8798
vt 0.8251 0.8901
vt 0.8251 0.9046
vt 0.8363 0.9046
vt 0.2306 0.8004
vt 0.2418 0.8436
vt 0.2306 0.8436
vt 0.2418 0.8004
vt 0.8885 0.5833
vt 0.8773 1.0000
vt 0.8773 0.5833
vt 0.8885 1.0000
vt 0.2529 0.8436
vt 0.2418 0.8004
vt 0.2529 0.8004
vt 0.2418 0.8436
vt 0.5449 0.4021
vt 0.5449 0.3919
vt 0.5449 0.0248
vt 0.6332 0.0248
vt 0.6332 0.0146
vt 0.8885 1.0000
vt 0.8996 0.9854
vt 0.8996 1.0000
vt 0.8996 0.9752
vt 0.8996 0.6081
vt 0.8996 0.5978
vt 0.8996 0.5833
vt 0.8885 0.5833
vt 0.1532 0.8376
vt 0.1421 0.7944
vt 0.1532 0.7944
vt 0.1421 0.8376
vt 0.2083 1.0000
vt 0.2195 0.5833
vt 0.2195 1.0000
vt 0.2083 0.5833
vt 0.1532 0.7944
vt 0.1644 0.8376
vt 0.1532 0.8376
vt 0.1644 0.7944
vt 0.6514 0.0248
vt 0.8662 1.0000
vt 0.8773 0.9854
vt 0.8773 1.0000
vt 0.8773 0.9752
vt 0.8773 0.6081
vt 0.8773 0.5978
vt 0.8773 0.5833
vt 0.8662 0.5833
vt 0.4557 0.7942
vt 0.4668 0.8374
vt 0.4557 0.8374
vt 0.4668 0.7942
vt 0.8457 0.9046
vt 0.8568 0.4879
vt 0.8568 0.9046
vt 0.8457 0.4879
vt 0.4557 0.8374
vt 0.4445 0.7942
vt 0.4557 0.7942
vt 0.4445 0.8374
vt 0.5646 0.3919
vt 0.5646 0.0248
vt 0.7817 0.4167
vt 0.7383 0.0000
vt 0.7817 0.0000
vt 0.7383 0.4167
vt 0.6514 0.0000
vt 0.6948 0.4167
vt 0.6514 0.4167
vt 0.6948 0.0000
vt 0.5646 0.0000
vt 0.6080 0.4167
vt 0.5646 0.4167
vt 0.6080 0.0000
vt 0.4777 0.0000
vt 0.5211 0.4167
vt 0.4777 0.4167
vt 0.5211 0.0000
vn 0.0000 0.0000 -1.0000
vn 0.0000 0.0000 1.0000
vn 0.0000 -1.0000 0.0000
vn 0.0000 1.0000 0.0000
vn 1.0000 0.0000 0.0000
vn -1.0000 0.0000 0.0000
vn 1.0000 -0.0001 0.0000
vn -1.0000 0.0001 0.0000
vn 0.0000 -1.0000 -0.0001
vn 0.0000 -0.7071 -0.7071
vn 0.0000 -0.7071 0.7071
vn 0.0000 -1.0000 0.0001
vn -0.0000 0.0001 1.0000
usemtl __Wood_Plywood_Knots_1
s off
f 1/1/1 2/2/1 3/3/1
f 2/2/1 1/1/1 4/4/1
f 5/5/2 6/6/2 7/7/2
f 8/8/2 7/7/2 6/6/2
f 9/9/3 10/10/3 11/11/3
f 10/10/3 9/9/3 12/12/3
f 12/12/3 9/9/3 13/13/3
f 12/12/3 13/13/3 14/14/3
f 15/15/4 16/16/4 17/17/4
f 16/16/4 18/18/4 17/17/4
f 17/17/4 18/18/4 19/19/4
f 20/20/4 19/19/4 18/18/4
f 21/21/1 22/22/1 23/23/1
f 22/22/1 21/21/1 24/24/1
f 25/25/2 26/26/2 27/27/2
f 28/28/2 27/27/2 26/26/2
f 29/29/4 30/30/4 31/31/4
f 30/30/4 29/29/4 32/32/4
f 32/32/4 29/29/4 33/33/4
f 33/33/4 29/29/4 34/34/4
f 35/35/3 36/36/3 37/37/3
f 37/37/3 36/36/3 38/38/3
f 38/38/3 36/36/3 39/39/3
f 40/40/3 39/39/3 36/36/3
f 41/41/5 42/42/5 43/43/5
f 42/42/5 41/41/5 44/44/5
f 45/45/6 46/46/6 47/47/6
f 48/48/6 47/47/6 46/46/6
f 49/49/2 50/50/2 51/51/2
f 50/50/2 49/49/2 52/52/2
f 53/53/1 54/54/1 55/55/1
f 56/56/1 55/55/1 54/54/1
f 57/57/6 58/58/6 59/59/6
f 58/58/6 57/57/6 60/60/6
f 61/61/5 62/62/5 63/63/5
f 64/64/5 63/63/5 62/62/5
f 65/65/5 66/66/5 67/67/5
f 66/66/5 65/65/5 68/68/5
f 69/69/6 70/70/6 71/71/6
f 72/72/6 71/71/6 70/70/6
f 73/73/1 74/74/1 75/75/1
f 74/74/1 73/73/1 76/76/1
f 77/77/2 78/78/2 79/79/2
f 80/80/2 79/79/2 78/78/2
f 81/81/4 82/82/4 83/83/4
f 82/82/4 81/81/4 84/84/4
f 84/84/4 81/81/4 85/85/4
f 84/84/4 85/85/4 86/86/4
f 87/87/3 88/88/3 89/89/3
f 88/88/3 90/90/3 89/89/3
f 89/89/3 90/90/3 91/91/3
f 92/92/3 91/91/3 90/90/3
f 93/93/2 94/94/2 95/95/2
f 94/94/2 93/93/2 96/96/2
f 97/97/1 98/98/1 99/99/1
f 100/100/1 99/99/1 98/98/1
f 101/101/3 102/102/3 103/103/3
f 102/102/3 101/101/3 104/104/3
f 104/104/3 101/101/3 105/105/3
f 105/105/3 101/101/3 106/106/3
f 107/107/4 108/108/4 109/109/4
f 109/109/4 108/108/4 110/110/4
f 110/110/4 108/108/4 111/111/4
f 112/112/4 111/111/4 108/108/4
f 113/113/6 114/114/6 115/115/6
f 114/114/6 113/113/6 116/116/6
f 117/117/5 118/118/5 119/119/5
f 120/120/5 119/119/5 118/118/5
f 121/121/2 122/122/2 123/123/2
f 122/122/2 121/121/2 124/124/2
f 125/125/1 126/126/1 127/127/1
f 128/128/1 127/127/1 126/126/1
f 129/129/1 130/130/1 131/131/1
f 130/130/1 129/129/1 132/132/1
f 133/133/2 134/134/2 135/135/2
f 136/136/2 135/135/2 134/134/2
f 137/137/3 138/138/3 139/139/3
f 138/138/3 137/137/3 140/140/3
f 140/140/3 137/137/3 141/141/3
f 140/140/3 141/141/3 142/142/3
f 143/143/4 144/144/4 145/145/4
f 144/144/4 146/146/4 145/145/4
f 145/145/4 146/146/4 147/147/4
f 148/148/4 147/147/4 146/146/4
f 149/149/1 150/150/1 151/151/1
f 150/150/1 149/149/1 152/152/1
f 153/153/2 154/154/2 155/155/2
f 156/156/2 155/155/2 154/154/2
f 157/157/4 158/158/4 159/159/4
f 158/158/4 157/157/4 160/160/4
f 160/160/4 157/157/4 161/161/4
f 161/161/4 157/157/4 162/162/4
f 163/163/3 164/164/3 165/165/3
f 165/165/3 164/164/3 166/166/3
f 166/166/3 164/164/3 167/167/3
f 168/168/3 167/167/3 164/164/3
f 169/169/5 170/170/5 171/171/5
f 170/170/5 169/169/5 172/172/5
f 173/173/6 174/174/6 175/175/6
f 176/176/6 175/175/6 174/174/6
f 177/177/2 178/178/2 179/179/2
f 178/178/2 177/177/2 180/180/2
f 181/181/1 182/182/1 183/183/1
f 184/184/1 183/183/1 182/182/1
f 185/185/6 186/186/6 187/187/6
f 186/186/6 185/185/6 188/188/6
f 189/189/5 190/190/5 191/191/5
f 192/192/5 191/191/5 190/190/5
f 193/193/6 194/194/6 195/195/6
f 194/194/6 193/193/6 196/196/6
f 197/197/5 198/198/5 199/199/5
f 200/200/5 199/199/5 198/198/5
f 201/201/1 202/202/1 203/203/1
f 202/202/1 201/201/1 204/204/1
f 205/205/2 206/206/2 207/207/2
f 208/208/2 207/207/2 206/206/2
f 209/209/3 210/210/3 211/211/3
f 210/210/3 209/209/3 212/212/3
f 212/212/3 209/209/3 213/213/3
f 213/213/3 209/209/3 214/214/3
f 215/215/4 216/216/4 217/217/4
f 217/217/4 216/216/4 218/218/4
f 218/218/4 216/216/4 219/219/4
f 220/220/4 219/219/4 216/216/4
f 221/221/4 222/222/4 223/223/4
f 222/222/4 221/221/4 224/224/4
f 224/224/4 221/221/4 225/225/4
f 224/224/4 225/225/4 226/226/4
f 227/227/3 228/228/3 229/229/3
f 228/228/3 230/230/3 229/229/3
f 229/229/3 230/230/3 231/231/3
f 232/232/3 231/231/3 230/230/3
f 233/233/5 234/234/5 235/235/5
f 234/234/5 233/233/5 236/236/5
f 237/237/6 238/238/6 239/239/6
f 240/240/6 239/239/6 238/238/6
f 241/241/2 242/242/2 243/243/2
f 242/242/2 241/241/2 244/244/2
f 245/245/1 246/246/1 247/247/1
f 248/248/1 247/247/1 246/246/1
f 249/249/2 250/250/2 251/251/2
f 250/250/2 249/249/2 252/252/2
f 253/253/1 254/254/1 255/255/1
f 256/256/1 255/255/1 254/254/1
f 257/257/5 258/258/5 259/259/5
f 258/258/5 257/257/5 260/260/5
f 261/261/6 262/262/6 263/263/6
f 264/264/6 263/263/6 262/262/6
f 265/265/3 266/266/3 267/267/3
f 266/266/3 265/265/3 268/268/3
f 269/269/4 270/270/4 271/271/4
f 272/272/4 271/271/4 270/270/4
f 273/273/6 274/274/6 275/275/6
f 274/274/6 273/273/6 276/276/6
f 277/277/5 278/278/5 279/279/5
f 280/280/5 279/279/5 278/278/5
f 281/281/4 282/282/4 283/283/4
f 282/282/4 281/281/4 284/284/4
f 285/285/3 286/286/3 287/287/3
f 288/288/3 287/287/3 286/286/3
f 289/289/1 290/290/1 291/291/1
f 290/290/1 289/289/1 292/292/1
f 293/293/2 294/294/2 295/295/2
f 296/296/2 295/295/2 294/294/2
f 297/297/4 298/298/4 299/299/4
f 298/298/4 297/297/4 300/300/4
f 301/301/3 302/302/3 303/303/3
f 304/304/3 303/303/3 302/302/3
f 305/305/5 306/306/5 307/307/5
f 306/306/5 305/305/5 308/308/5
f 308/308/7 305/305/7 309/309/7
f 309/309/5 305/305/5 310/310/5
f 310/310/5 305/305/5 311/311/5
f 311/311/5 305/305/5 312/312/5
f 312/312/5 305/305/5 313/313/5
f 313/313/7 305/305/7 314/314/7
f 314/314/5 305/305/5 315/315/5
f 315/315/5 305/305/5 316/316/5
f 316/316/5 305/305/5 317/317/5
f 317/317/5 305/305/5 318/318/5
f 318/318/5 305/305/5 319/319/5
f 319/319/5 305/305/5 320/320/5
f 321/321/6 322/322/6 323/323/6
f 323/323/6 322/322/6 324/324/6
f 324/324/6 322/322/6 325/325/6
f 325/325/6 322/322/6 326/326/6
f 326/326/6 322/322/6 327/327/6
f 327/327/6 322/322/6 328/328/6
f 328/328/8 322/322/8 329/329/8
f 329/329/6 322/322/6 330/330/6
f 330/330/6 322/322/6 331/331/6
f 331/331/6 322/322/6 332/332/6
f 332/332/6 322/322/6 333/333/6
f 333/333/8 322/322/8 334/334/8
f 334/334/6 322/322/6 335/335/6
f 336/336/6 335/335/6 322/322/6
f 300/300/4 337/337/4 298/298/4
f 337/337/4 300/300/4 338/338/4
f 339/339/3 301/301/3 340/340/3
f 303/303/3 340/340/3 301/301/3
f 341/341/6 342/342/6 343/343/6
f 342/342/6 341/341/6 344/344/6
f 344/344/6 341/341/6 345/345/6
f 344/344/6 345/345/6 346/346/6
f 344/344/6 346/346/6 347/347/6
f 344/344/6 347/347/6 348/348/6
f 344/344/6 348/348/6 349/349/6
f 344/344/6 349/349/6 350/350/6
f 344/344/6 350/350/6 351/351/6
f 344/344/6 351/351/6 352/352/6
f 344/344/6 352/352/6 353/353/6
f 344/344/6 353/353/6 354/354/6
f 344/344/6 354/354/6 355/355/6
f 344/344/6 355/355/6 356/356/6
f 357/357/5 358/358/5 359/359/5
f 358/358/5 360/360/5 359/359/5
f 360/360/5 361/361/5 359/359/5
f 361/361/5 362/362/5 359/359/5
f 362/362/5 363/363/5 359/359/5
f 363/363/5 364/364/5 359/359/5
f 364/364/5 365/365/5 359/359/5
f 365/365/5 366/366/5 359/359/5
f 366/366/5 367/367/5 359/359/5
f 367/367/5 368/368/5 359/359/5
f 368/368/5 369/369/5 359/359/5
f 369/369/5 370/370/5 359/359/5
f 359/359/5 370/370/5 371/371/5
f 372/372/5 371/371/5 370/370/5
f 373/373/4 374/374/4 375/375/4
f 374/374/4 373/373/4 376/376/4
f 377/377/3 378/378/3 379/379/3
f 380/380/3 379/379/3 378/378/3
f 338/338/4 375/375/4 337/337/4
f 375/375/4 338/338/4 373/373/4
f 378/378/3 339/339/3 380/380/3
f 340/340/3 380/380/3 339/339/3
f 381/381/4 382/382/4 383/383/4
f 382/382/4 381/381/4 384/384/4
f 384/384/4 381/381/4 385/385/4
f 385/385/4 381/381/4 386/386/4
f 386/386/2 381/381/2 387/387/2
f 386/386/2 387/387/2 388/388/2
f 389/389/2 390/390/2 391/391/2
f 390/390/2 392/392/2 391/391/2
f 391/391/3 392/392/3 393/393/3
f 393/393/3 392/392/3 394/394/3
f 394/394/3 392/392/3 395/395/3
f 396/396/3 395/395/3 392/392/3
f 397/397/4 398/398/4 399/399/4
f 398/398/4 397/397/4 400/400/4
f 401/401/3 402/402/3 403/403/3
f 404/404/3 403/403/3 402/402/3
f 405/405/4 406/406/4 407/407/4
f 406/406/4 405/405/4 408/408/4
f 409/409/3 410/410/3 411/411/3
f 412/412/3 411/411/3 410/410/3
f 413/413/4 414/414/4 415/415/4
f 414/414/4 413/413/4 416/416/4
f 417/417/3 418/418/3 419/419/3
f 420/420/3 419/419/3 418/418/3
f 421/421/4 422/422/4 423/423/4
f 422/422/4 421/421/4 424/424/4
f 425/425/3 426/426/3 427/427/3
f 428/428/3 427/427/3 426/426/3
f 429/429/2 430/430/2 431/431/2
f 430/430/2 429/429/2 432/432/2
f 433/433/1 434/434/1 435/435/1
f 436/436/1 435/435/1 434/434/1
f 437/437/3 438/438/3 439/439/3
f 438/438/3 437/437/3 440/440/3
f 441/441/4 442/442/4 443/443/4
f 444/444/4 443/443/4 442/442/4
f 445/445/1 446/446/1 447/447/1
f 446/446/1 445/445/1 448/448/1
f 449/449/2 450/450/2 451/451/2
f 452/452/2 451/451/2 450/450/2
f 399/399/4 453/453/4 454/454/4
f 453/453/4 399/399/4 398/398/4
f 403/403/3 404/404/3 455/455/3
f 456/456/3 455/455/3 404/404/3
f 457/457/1 458/458/1 459/459/1
f 458/458/1 457/457/1 460/460/1
f 458/458/1 461/461/1 462/462/1
f 461/461/1 458/458/1 460/460/1
f 463/463/2 464/464/2 465/465/2
f 466/466/2 465/465/2 464/464/2
f 463/463/2 467/467/2 464/464/2
f 468/468/2 464/464/2 467/467/2
f 469/469/2 470/470/2 471/471/2
f 470/470/2 469/469/2 472/472/2
f 470/470/2 473/473/2 474/474/2
f 473/473/2 470/470/2 472/472/2
f 475/475/1 476/476/1 477/477/1
f 478/478/1 477/477/1 476/476/1
f 475/475/1 479/479/1 476/476/1
f 480/480/1 476/476/1 479/479/1
f 481/481/6 482/482/6 483/483/6
f 482/482/6 481/481/6 484/484/6
f 484/484/6 481/481/6 485/485/6
f 484/484/6 485/485/6 486/486/6
f 487/487/5 488/488/5 489/489/5
f 488/488/5 490/490/5 489/489/5
f 489/489/5 490/490/5 491/491/5
f 492/492/5 491/491/5 490/490/5
f 493/493/5 494/494/5 495/495/5
f 494/494/5 493/493/5 496/496/5
f 496/496/5 493/493/5 497/497/5
f 497/497/5 493/493/5 498/498/5
f 499/499/6 500/500/6 501/501/6
f 501/501/6 500/500/6 502/502/6
f 502/502/6 500/500/6 503/503/6
f 504/504/6 503/503/6 500/500/6
f 505/505/3 506/506/3 507/507/3
f 506/506/3 505/505/3 508/508/3
f 509/509/4 510/510/4 511/511/4
f 512/512/4 511/511/4 510/510/4
usemtl Wood_Plywood_Knots
f 519/513/1 518/514/1 513/515/1
f 513/515/1 518/514/1 514/516/1
f 514/516/1 518/514/1 515/517/1
f 515/517/1 518/514/1 528/518/1
f 528/518/1 518/514/1 516/519/1
f 516/519/1 518/514/1 525/520/1
f 525/520/1 518/514/1 517/521/1
f 520/522/1 518/514/1 519/513/1
f 519/523/3 522/524/3 520/525/3
f 522/524/3 519/523/3 521/526/3
f 518/527/6 522/528/6 523/529/6
f 522/528/6 518/527/6 520/530/6
f 524/531/4 518/532/4 523/533/4
f 518/532/4 524/531/4 517/534/4
f 525/535/5 524/536/5 527/537/5
f 524/536/5 525/535/5 517/538/5
f 525/539/3 526/540/3 516/541/3
f 526/540/3 525/539/3 527/542/3
f 528/543/4 536/544/4 544/545/4
f 536/544/4 528/543/4 516/546/4
f 528/543/4 535/547/4 526/548/4
f 526/548/4 516/546/4 528/543/4
f 528/549/3 529/550/3 515/551/3
f 529/550/3 528/549/3 535/552/3
f 515/551/3 530/553/3 514/554/3
f 530/553/3 515/551/3 529/550/3
f 514/554/3 551/555/3 513/556/3
f 551/555/3 514/554/3 530/553/3
f 513/557/4 553/558/4 519/559/4
f 553/558/4 513/557/4 543/560/4
f 513/557/4 519/559/4 521/561/4
f 521/561/4 551/562/4 513/557/4
f 534/563/6 563/564/6 565/565/6
f 563/564/6 534/563/6 560/566/6
f 560/566/6 534/563/6 559/567/6
f 559/567/6 534/563/6 521/568/6
f 559/567/6 521/568/6 519/569/6
f 559/567/6 519/569/6 553/570/6
f 559/567/6 553/570/6 552/571/6
f 559/567/6 552/571/6 571/572/6
f 559/567/6 571/572/6 638/573/6
f 559/567/6 638/573/6 646/574/6
f 559/567/6 646/574/6 575/575/6
f 559/567/6 575/575/6 533/576/6
f 559/567/6 533/576/6 531/577/6
f 559/567/6 531/577/6 532/578/6
f 524/579/2 526/580/2 527/581/2
f 526/580/2 524/579/2 535/582/2
f 535/582/2 524/579/2 529/583/2
f 529/583/2 524/579/2 530/584/2
f 530/584/2 524/579/2 551/585/2
f 551/585/2 524/579/2 521/586/2
f 521/586/2 524/579/2 522/587/2
f 522/587/2 524/579/2 523/588/2
f 579/589/5 586/590/5 587/591/5
f 586/590/5 579/589/5 548/592/5
f 548/592/5 579/589/5 538/593/5
f 548/592/5 538/593/5 526/594/5
f 526/594/5 538/593/5 516/595/5
f 516/595/5 538/593/5 536/596/5
f 536/596/5 538/593/5 537/597/5
f 537/597/5 538/593/5 635/598/5
f 635/598/5 538/593/5 636/599/5
f 636/599/5 538/593/5 583/600/5
f 583/600/5 538/593/5 540/601/5
f 540/601/5 538/593/5 618/602/5
f 618/602/5 538/593/5 539/603/5
f 539/603/5 538/593/5 580/604/5
f 589/605/2 536/606/2 541/607/2
f 536/606/2 589/605/2 544/608/2
f 544/608/2 589/605/2 594/609/2
f 594/609/2 589/605/2 592/610/2
f 592/610/2 589/605/2 543/611/2
f 543/611/2 589/605/2 553/612/2
f 553/612/2 589/605/2 542/613/2
f 542/613/2 589/605/2 590/614/2
f 545/615/3 546/616/3 544/617/3
f 544/545/4 536/544/4 545/618/4
f 536/544/4 537/619/4 545/618/4
f 549/620/6 547/621/6 567/622/6
f 547/621/6 549/620/6 578/623/6
f 578/623/6 549/620/6 601/624/6
f 601/624/6 549/620/6 535/625/6
f 601/624/6 535/625/6 528/626/6
f 601/624/6 528/626/6 544/627/6
f 601/624/6 544/627/6 546/628/6
f 549/629/4 526/548/4 535/547/4
f 526/548/4 549/629/4 548/630/4
f 562/631/5 564/632/5 561/633/5
f 564/632/5 562/631/5 550/634/5
f 550/634/5 562/631/5 630/635/5
f 550/634/5 630/635/5 551/636/5
f 551/636/5 630/635/5 513/637/5
f 513/637/5 630/635/5 543/638/5
f 543/638/5 630/635/5 610/639/5
f 608/640/4 552/641/4 553/558/4
f 553/558/4 543/560/4 608/640/4
f 543/642/2 610/643/2 608/644/2
f 550/645/4 521/561/4 534/646/4
f 521/561/4 550/645/4 551/562/4
f 617/647/4 531/648/4 533/649/4
f 531/648/4 617/647/4 554/650/4
f 557/651/3 531/652/3 621/653/3
f 531/652/3 557/651/3 623/654/3
f 531/652/9 623/654/9 554/655/9
f 554/655/3 623/654/3 555/656/3
f 554/655/3 555/656/3 617/657/3
f 555/656/3 623/654/3 556/658/3
f 556/658/3 623/654/3 614/659/3
f 614/659/3 623/654/3 626/660/3
f 626/660/3 623/654/3 539/661/3
f 539/661/3 613/662/3 618/663/3
f 613/662/3 539/661/3 623/654/3
f 627/664/3 614/659/3 626/660/3
f 615/665/3 617/657/3 555/656/3
f 533/666/3 621/653/3 531/652/3
f 531/667/1 620/668/1 532/669/1
f 620/668/1 531/667/1 554/670/1
f 532/671/10 558/672/10 559/673/10
f 558/672/10 532/671/10 620/674/10
f 558/672/3 560/675/3 559/673/3
f 560/675/3 558/672/3 562/676/3
f 562/677/3 558/678/3 629/679/3
f 562/677/4 629/679/4 630/680/4
f 561/681/11 560/675/11 562/676/11
f 560/675/11 561/681/11 563/682/11
f 564/683/2 563/684/2 561/685/2
f 563/684/2 564/683/2 565/686/2
f 550/645/4 534/646/4 565/687/4
f 565/687/4 564/688/4 550/645/4
f 602/689/3 564/690/3 550/691/3
f 549/692/3 566/693/3 603/694/3
f 566/693/3 549/692/3 567/695/3
f 604/696/3 586/697/3 548/698/3
f 534/699/3 632/700/3 607/701/3
f 632/700/3 534/699/3 565/702/3
f 632/700/3 565/702/3 568/703/3
f 568/703/12 565/702/12 564/690/12
f 568/703/3 564/690/3 569/704/3
f 569/704/3 564/690/3 602/689/3
f 568/703/3 569/704/3 566/693/3
f 568/703/3 566/693/3 567/695/3
f 568/703/3 567/695/3 586/697/3
f 568/703/3 586/697/3 604/696/3
f 552/705/3 542/706/3 570/707/3
f 542/706/3 552/705/3 553/708/3
f 608/640/4 571/709/4 552/641/4
f 571/709/4 608/640/4 572/710/4
f 638/711/3 641/712/3 639/713/3
f 641/712/3 638/711/3 571/714/3
f 573/715/4 638/716/4 571/709/4
f 571/709/4 572/710/4 573/715/4
f 572/717/2 609/718/2 573/719/2
f 573/715/4 646/720/4 638/716/4
f 646/720/4 573/715/4 619/721/4
f 575/722/3 576/723/3 574/724/3
f 576/723/3 575/722/3 646/725/3
f 646/720/4 577/726/4 575/727/4
f 577/726/4 646/720/4 619/721/4
f 577/726/4 533/649/4 575/727/4
f 533/649/4 577/726/4 617/647/4
f 625/728/4 601/729/4 653/730/4
f 601/729/3 625/728/3 578/731/3
f 578/732/3 625/733/3 538/734/3
f 578/732/3 538/734/3 579/735/3
f 581/736/10 538/734/10 625/733/10
f 538/734/10 581/736/10 580/737/10
f 626/738/1 580/739/1 581/740/1
f 580/739/1 626/738/1 539/741/1
f 539/742/4 626/743/4 627/744/4
f 627/744/4 618/745/4 539/742/4
f 540/746/4 627/744/4 582/747/4
f 627/744/4 540/746/4 618/745/4
f 654/748/3 583/749/3 540/750/3
f 583/749/3 654/748/3 649/751/3
f 648/752/4 540/746/4 582/747/4
f 540/746/4 648/752/4 583/753/4
f 636/754/4 648/752/4 585/755/4
f 648/752/4 636/754/4 583/753/4
f 584/756/3 635/757/3 636/758/3
f 635/757/3 584/756/3 657/759/3
f 585/760/3 628/761/3 597/762/3
f 597/763/4 635/764/4 585/755/4
f 635/764/4 636/754/4 585/755/4
f 545/618/4 635/764/4 597/763/4
f 635/764/4 545/618/4 537/619/4
f 588/765/3 536/766/3 537/767/3
f 536/766/3 588/765/3 541/768/3
f 549/629/4 567/769/4 586/770/4
f 586/770/4 548/630/4 549/629/4
f 586/771/2 547/772/2 587/773/2
f 547/772/2 586/771/2 567/774/2
f 587/775/11 578/732/11 579/735/11
f 578/732/11 587/775/11 547/776/11
f 588/777/5 589/778/5 541/779/5
f 589/778/5 588/777/5 596/780/5
f 589/781/4 595/782/4 590/783/4
f 595/782/4 589/781/4 596/784/4
f 595/785/6 542/786/6 590/787/6
f 542/786/6 595/785/6 570/788/6
f 593/789/3 591/790/3 612/791/3
f 591/790/3 543/792/3 610/793/3
f 543/792/3 591/790/3 592/794/3
f 592/794/3 591/790/3 593/789/3
f 669/795/3 592/794/3 593/789/3
f 592/794/3 669/795/3 594/796/3
f 598/797/3 594/796/3 669/795/3
f 594/796/3 598/797/3 599/798/3
f 599/798/3 544/799/3 594/796/3
f 544/799/3 599/798/3 546/800/3
f 595/801/1 552/802/1 570/803/1
f 552/802/1 595/801/1 608/804/1
f 608/804/1 595/801/1 633/805/1
f 633/805/1 595/801/1 668/806/1
f 668/806/1 595/801/1 667/807/1
f 667/807/1 595/801/1 660/808/1
f 660/809/1 537/810/1 545/615/1
f 537/811/4 660/812/4 588/813/4
f 588/814/1 660/808/1 596/815/1
f 596/815/1 660/808/1 595/801/1
f 545/816/5 546/817/5 601/818/5
f 601/818/5 653/819/5 545/816/5
f 653/819/5 597/820/5 545/816/5
f 653/819/5 628/821/5 597/820/5
f 545/822/3 598/797/3 660/823/3
f 598/797/3 545/822/3 546/800/3
f 546/800/3 599/798/3 598/797/3
f 700/824/2 673/825/2 600/826/2
f 673/825/2 700/824/2 599/827/2
f 599/827/2 700/824/2 601/828/2
f 599/827/2 601/828/2 546/829/2
f 606/830/1 534/831/1 607/832/1
f 534/831/1 606/830/1 550/833/1
f 550/833/1 606/830/1 602/834/1
f 602/834/1 606/830/1 603/835/1
f 603/835/1 606/830/1 549/836/1
f 549/836/1 606/830/1 548/837/1
f 548/837/1 606/830/1 604/838/1
f 604/838/1 606/830/1 605/839/1
f 629/840/5 610/639/5 630/635/5
f 610/639/5 629/840/5 608/841/5
f 608/841/5 629/840/5 572/842/5
f 572/842/5 629/840/5 609/843/5
f 591/844/2 683/845/2 611/846/2
f 683/845/2 591/844/2 687/847/2
f 687/847/2 591/844/2 630/848/2
f 630/848/2 591/844/2 610/849/2
f 633/850/3 610/793/3 608/851/3
f 610/793/3 633/850/3 591/790/3
f 591/852/3 633/853/3 612/854/3
f 624/855/2 618/856/2 613/857/2
f 618/856/2 624/855/2 627/858/2
f 627/858/2 624/855/2 614/859/2
f 614/859/2 624/855/2 615/860/2
f 615/860/2 624/855/2 617/861/2
f 617/861/2 624/855/2 533/862/2
f 533/862/2 624/855/2 621/863/2
f 621/863/2 624/855/2 616/864/2
f 558/865/5 609/843/5 629/840/5
f 609/843/5 558/865/5 573/866/5
f 573/866/5 558/865/5 619/867/5
f 619/867/5 558/865/5 577/868/5
f 577/868/5 558/865/5 617/869/5
f 617/869/5 558/865/5 554/870/5
f 554/870/5 558/865/5 620/871/5
f 686/872/6 621/873/6 616/874/6
f 621/873/6 686/872/6 557/875/6
f 686/876/1 623/877/1 557/878/1
f 623/877/1 686/876/1 622/879/1
f 623/880/5 624/881/5 613/882/5
f 624/881/5 623/880/5 622/883/5
f 585/884/6 653/885/6 628/886/6
f 653/885/6 585/884/6 625/887/6
f 625/887/6 585/884/6 648/888/6
f 625/887/6 648/888/6 582/889/6
f 625/887/6 582/889/6 627/890/6
f 625/887/6 627/890/6 626/891/6
f 625/887/6 626/891/6 581/892/6
f 629/893/6 687/894/6 630/895/6
f 687/894/6 629/893/6 707/896/6
f 603/694/3 569/704/3 602/689/3
f 569/704/3 603/694/3 566/693/3
f 604/897/5 631/898/5 568/899/5
f 631/898/5 604/897/5 605/900/5
f 631/901/2 632/902/2 568/903/2
f 632/902/2 631/901/2 680/904/2
f 606/905/6 632/906/6 680/907/6
f 632/906/6 606/905/6 607/908/6
f 633/909/4 572/710/4 608/640/4
f 572/710/4 633/909/4 634/910/4
f 656/911/2 635/912/2 657/913/2
f 635/912/2 656/911/2 597/914/2
f 597/914/2 656/911/2 658/915/2
f 658/916/2 690/917/2 691/918/2
f 690/917/1 658/916/1 634/919/1
f 634/919/2 658/916/2 572/717/2
f 572/717/2 658/916/2 571/920/2
f 571/920/2 658/916/2 641/921/2
f 641/922/2 658/915/2 642/923/2
f 642/923/2 658/915/2 656/911/2
f 640/924/1 638/925/1 639/926/1
f 638/925/1 640/924/1 573/927/1
f 573/927/1 640/924/1 643/928/1
f 643/928/1 640/924/1 659/929/1
f 659/929/1 640/924/1 585/930/1
f 585/930/1 640/924/1 636/931/1
f 636/931/1 640/924/1 584/932/1
f 584/932/1 640/924/1 637/933/1
f 640/934/6 641/935/6 642/936/6
f 641/935/6 640/934/6 639/937/6
f 643/938/3 609/939/3 573/940/3
f 609/939/3 643/938/3 644/941/3
f 644/941/3 643/938/3 666/942/3
f 666/942/3 643/938/3 689/943/3
f 644/941/3 572/944/3 609/939/3
f 572/944/3 644/941/3 666/942/3
f 572/944/3 666/942/3 634/945/3
f 645/946/2 583/947/2 649/948/2
f 583/947/2 645/946/2 648/949/2
f 648/949/2 645/946/2 647/950/2
f 647/950/2 645/946/2 652/951/2
f 652/951/2 645/946/2 619/952/2
f 619/952/2 645/946/2 646/953/2
f 646/953/2 645/946/2 576/954/2
f 576/954/2 645/946/2 651/955/2
f 694/956/1 575/957/1 574/958/1
f 575/957/1 694/956/1 577/959/1
f 577/959/1 694/956/1 650/960/1
f 650/960/1 694/956/1 655/961/1
f 655/961/1 694/956/1 582/962/1
f 582/962/1 694/956/1 540/963/1
f 540/963/1 694/956/1 654/964/1
f 654/964/1 694/956/1 695/965/1
f 694/966/6 576/967/6 651/968/6
f 576/967/6 694/966/6 574/969/6
f 650/970/3 619/971/3 577/972/3
f 619/971/3 650/970/3 652/973/3
f 696/974/5 601/818/5 700/975/5
f 601/818/5 696/974/5 653/819/5
f 654/976/5 645/977/5 649/978/5
f 645/977/5 654/976/5 695/979/5
f 582/980/3 647/981/3 655/982/3
f 647/981/3 582/980/3 648/983/3
f 584/984/5 656/985/5 657/986/5
f 656/985/5 584/984/5 637/987/5
f 628/988/3 692/989/3 675/990/3
f 692/989/3 597/991/3 658/992/3
f 597/991/3 692/989/3 628/988/3
f 692/989/3 693/993/3 675/990/3
f 585/994/3 693/993/3 659/995/3
f 693/993/3 585/994/3 675/990/3
f 675/990/3 585/994/3 628/988/3
f 545/618/4 658/996/4 660/997/4
f 658/996/4 545/618/4 597/763/4
f 681/998/5 661/999/5 685/1000/5
f 661/999/5 681/998/5 665/1001/5
f 665/1001/5 681/998/5 666/1002/5
f 666/1002/5 681/998/5 644/1003/5
f 661/999/5 663/1004/5 662/1005/5
f 663/1004/5 661/999/5 665/1001/5
f 664/1006/5 591/1007/5 611/1008/5
f 591/1007/5 664/1006/5 612/1009/5
f 612/854/6 664/1010/6 662/1011/6
f 612/854/2 662/1011/2 663/1012/2
f 593/789/3 612/791/3 633/850/3
f 633/850/3 668/1013/3 593/789/3
f 667/1014/3 593/789/3 668/1013/3
f 593/789/3 667/1014/3 669/795/3
f 598/797/3 669/795/3 667/1014/3
f 667/1014/3 660/823/3 598/797/3
f 675/1015/6 670/1016/6 692/1017/6
f 670/1016/6 675/1015/6 674/1018/6
f 674/1018/6 675/1015/6 678/1019/6
f 678/1019/6 675/1015/6 676/1020/6
f 670/1016/6 671/1021/6 672/1022/6
f 671/1021/6 670/1016/6 674/1018/6
f 598/1023/6 673/1024/6 599/1025/6
f 673/1024/6 598/1023/6 677/1026/6
f 677/1027/5 598/1028/5 672/1029/5
f 677/1027/2 672/1029/2 671/1030/2
f 675/1031/1 679/1032/1 676/1033/1
f 679/1032/1 675/1031/1 696/1034/1
f 696/1034/1 675/1031/1 653/1035/1
f 653/1035/1 675/1031/1 628/1036/1
f 679/1037/3 678/1038/3 676/1039/3
f 678/1038/3 679/1037/3 677/1040/3
f 677/1040/3 600/1041/3 673/1042/3
f 600/1041/3 677/1040/3 679/1037/3
f 700/1043/6 704/1044/6 705/1045/6
f 704/1044/6 700/1043/6 600/1046/6
f 679/1047/5 700/975/5 600/1048/5
f 700/975/5 679/1047/5 696/974/5
f 631/1049/4 606/1050/4 680/1051/4
f 606/1050/4 631/1049/4 605/1052/4
f 707/1053/1 681/1054/1 682/1055/1
f 681/1054/1 707/1053/1 644/1056/1
f 644/1056/1 707/1053/1 629/1057/1
f 644/1056/1 629/1057/1 609/1058/1
f 707/1059/5 687/1060/5 683/1061/5
f 683/1061/5 682/1062/5 707/1059/5
f 683/1061/5 713/1063/5 684/1064/5
f 713/1063/5 683/1061/5 687/1060/5
f 681/1065/3 683/1066/3 682/1067/3
f 683/1066/3 681/1065/3 611/1068/3
f 611/1069/2 681/1070/2 685/1071/2
f 611/1069/2 685/1071/2 664/1010/2
f 624/1072/4 686/1073/4 616/1074/4
f 686/1073/4 624/1072/4 622/1075/4
f 712/1076/4 719/1077/4 721/1078/4
f 719/1077/4 712/1076/4 687/1079/4
f 687/1080/3 712/1081/3 713/1082/3
f 719/1077/4 707/1083/4 718/1084/4
f 707/1083/4 719/1077/4 687/1079/4
f 718/1085/2 707/1086/2 688/1087/2
f 656/1088/4 640/1089/4 642/1090/4
f 640/1089/4 656/1088/4 637/1091/4
f 634/945/3 666/942/3 689/943/3
f 689/943/3 690/1092/3 634/945/3
f 693/993/3 690/1092/3 689/943/3
f 690/1092/3 693/993/3 691/1093/3
f 658/992/3 691/1093/3 693/993/3
f 693/993/3 692/989/3 658/992/3
f 659/995/3 689/943/3 643/938/3
f 689/943/3 659/995/3 693/993/3
f 645/1094/4 694/1095/4 651/1096/4
f 694/1095/4 645/1094/4 695/1097/4
f 725/1098/4 705/1099/4 727/1100/4
f 705/1099/4 725/1098/4 700/1101/4
f 700/1101/4 725/1098/4 696/1102/4
f 696/1102/4 725/1098/4 697/1103/4
f 697/1103/4 725/1098/4 698/1104/4
f 698/1104/4 725/1098/4 699/1105/4
f 697/1106/6 679/1107/6 696/1108/6
f 679/1107/6 697/1106/6 703/1109/6
f 701/1110/3 703/1111/3 728/1112/3
f 703/1111/3 701/1110/3 679/1037/3
f 679/1037/3 701/1110/3 600/1041/3
f 600/1041/3 701/1110/3 704/1113/3
f 704/1113/3 701/1110/3 702/1114/3
f 702/1114/3 701/1110/3 726/1115/3
f 704/1116/5 727/1117/5 702/1118/5
f 727/1117/5 704/1116/5 705/1119/5
f 734/1120/1 704/1121/1 706/1122/1
f 704/1121/1 734/1120/1 705/1123/1
f 705/1123/1 734/1120/1 722/1124/1
f 710/1125/5 707/1059/5 682/1062/5
f 707/1059/5 710/1125/5 688/1126/5
f 711/1127/3 720/1128/3 708/1129/3
f 720/1128/3 711/1127/3 682/1067/3
f 682/1130/3 711/1131/3 710/1132/3
f 720/1128/3 683/1066/3 709/1133/3
f 683/1066/3 720/1128/3 682/1067/3
f 709/1134/4 683/1135/4 684/1136/4
f 713/1063/5 712/1137/5 709/1138/5
f 709/1138/5 684/1064/5 713/1063/5
f 713/1139/1 741/1140/1 684/1141/1
f 741/1140/1 713/1139/1 740/1142/1
f 740/1142/1 713/1139/1 715/1143/1
f 714/1144/6 717/1145/6 743/1146/6
f 717/1145/6 714/1144/6 712/1147/6
f 712/1147/6 714/1144/6 713/1148/6
f 713/1148/6 714/1144/6 792/1149/6
f 713/1148/6 792/1149/6 716/1150/6
f 713/1082/6 716/1151/6 715/1152/6
f 718/1153/5 688/1126/5 710/1125/5
f 710/1125/5 711/1154/5 718/1153/5
f 799/1155/6 736/1156/6 757/1157/6
f 736/1156/6 718/1158/6 688/1159/6
f 718/1158/6 736/1156/6 799/1155/6
f 718/1158/6 799/1155/6 806/1160/6
f 718/1158/6 806/1160/6 755/1161/6
f 718/1085/5 755/1162/5 756/1163/5
f 719/1164/1 711/1165/1 708/1166/1
f 711/1165/1 719/1164/1 718/1167/1
f 719/1168/6 720/1169/6 721/1170/6
f 720/1169/6 719/1168/6 708/1171/6
f 712/1172/2 720/1173/2 709/1174/2
f 720/1173/2 712/1172/2 721/1175/2
f 727/1176/6 724/1177/6 733/1178/6
f 724/1179/5 727/1117/5 705/1119/5
f 724/1179/5 705/1119/5 783/1180/5
f 783/1180/5 705/1119/5 751/1181/5
f 751/1181/5 705/1119/5 723/1182/5
f 723/1183/5 705/1184/5 722/1185/5
f 725/1186/2 702/1187/2 726/1188/2
f 702/1187/2 725/1186/2 727/1189/2
f 701/1190/5 725/1191/5 726/1192/5
f 725/1191/5 701/1190/5 699/1193/5
f 698/1194/1 701/1195/1 728/1196/1
f 701/1195/1 698/1194/1 699/1197/1
f 698/1198/5 697/1199/5 703/1200/5
f 703/1200/5 728/1201/5 698/1198/5
f 698/1198/5 729/1202/5 697/1199/5
f 729/1202/5 698/1198/5 758/1203/5
f 758/1203/5 698/1198/5 759/1204/5
f 759/1204/5 698/1198/5 765/1205/5
f 765/1205/5 698/1198/5 770/1206/5
f 770/1207/6 698/1208/6 768/1209/6
f 697/1210/2 730/1211/2 703/1212/2
f 730/1211/2 697/1210/2 773/1213/2
f 773/1213/2 697/1210/2 729/1214/2
f 728/1112/3 730/1215/3 776/1216/3
f 730/1215/3 728/1112/3 703/1111/3
f 704/1113/3 731/1217/3 706/1218/3
f 731/1217/3 704/1113/3 702/1114/3
f 727/1189/2 731/1219/2 702/1187/2
f 731/1219/2 727/1189/2 732/1220/2
f 732/1220/2 727/1189/2 733/1221/2
f 767/1222/2 731/1223/2 732/1224/2
f 731/1225/6 767/1226/6 782/1227/6
f 731/1225/6 782/1227/6 706/1228/6
f 706/1228/6 782/1227/6 790/1229/6
f 706/1228/6 790/1229/6 766/1230/6
f 706/1231/6 766/1232/6 734/1233/6
f 735/1234/2 710/1235/2 777/1236/2
f 710/1235/2 735/1234/2 688/1237/2
f 688/1237/2 735/1234/2 736/1238/2
f 737/1239/3 710/1240/3 711/1241/3
f 710/1240/3 737/1239/3 777/1242/3
f 741/1243/3 709/1244/3 684/1245/3
f 709/1244/3 741/1243/3 742/1246/3
f 738/1247/2 709/1174/2 742/1248/2
f 709/1174/2 738/1247/2 712/1172/2
f 712/1172/2 738/1247/2 717/1249/2
f 716/1250/1 740/1142/1 715/1143/1
f 740/1142/1 716/1250/1 748/1251/1
f 741/1252/5 738/1253/5 742/1254/5
f 738/1253/5 741/1252/5 744/1255/5
f 744/1255/5 741/1252/5 739/1256/5
f 739/1256/5 741/1252/5 791/1257/5
f 791/1257/5 741/1252/5 748/1258/5
f 748/1259/5 741/1260/5 740/1261/5
f 744/1262/2 717/1249/2 738/1247/2
f 717/1249/2 744/1262/2 743/1263/2
f 744/1264/4 714/1265/4 743/1266/4
f 714/1265/4 744/1264/4 739/1267/4
f 785/1268/3 724/1269/3 783/1270/3
f 724/1269/3 785/1268/3 745/1271/3
f 714/1272/3 747/1273/3 786/1274/3
f 747/1273/3 714/1272/3 746/1275/3
f 747/1273/3 746/1275/3 787/1276/3
f 746/1277/3 714/1278/3 743/1279/3
f 787/1276/3 746/1275/3 745/1271/3
f 787/1276/3 745/1271/3 785/1268/3
f 739/1267/4 792/1280/4 714/1265/4
f 792/1280/4 739/1267/4 791/1281/4
f 748/1282/4 716/1283/4 792/1280/4
f 792/1280/4 791/1281/4 748/1282/4
f 749/1284/3 750/1285/3 794/1286/3
f 750/1285/3 749/1284/3 796/1287/3
f 750/1285/3 796/1287/3 753/1288/3
f 753/1288/3 796/1287/3 723/1289/3
f 723/1289/3 796/1287/3 751/1290/3
f 751/1290/3 796/1287/3 752/1291/3
f 750/1285/3 792/1292/3 794/1286/3
f 792/1293/3 750/1294/3 716/1151/3
f 718/1167/1 737/1295/1 711/1165/1
f 737/1295/1 718/1167/1 779/1296/1
f 779/1296/1 718/1167/1 756/1297/1
f 755/1298/1 779/1296/1 756/1297/1
f 779/1296/1 755/1298/1 754/1299/1
f 780/1300/2 736/1238/2 735/1234/2
f 736/1238/2 780/1300/2 757/1301/2
f 761/1302/3 758/1303/3 759/1304/3
f 758/1303/3 761/1302/3 760/1305/3
f 799/1306/3 801/1307/3 803/1308/3
f 801/1307/3 799/1306/3 762/1309/3
f 801/1307/3 762/1309/3 802/1310/3
f 762/1311/2 799/1312/2 757/1313/2
f 802/1310/3 762/1309/3 760/1305/3
f 802/1310/3 760/1305/3 761/1302/3
f 781/1314/4 799/1315/4 757/1316/4
f 757/1316/4 780/1317/4 781/1314/4
f 781/1314/4 806/1318/4 799/1315/4
f 806/1318/4 781/1314/4 778/1319/4
f 809/1320/3 764/1321/3 807/1322/3
f 764/1321/3 809/1320/3 810/1323/3
f 764/1321/3 810/1323/3 763/1324/3
f 763/1324/3 810/1323/3 770/1325/3
f 770/1325/3 810/1323/3 765/1326/3
f 765/1326/3 810/1323/3 811/1327/3
f 764/1321/3 806/1328/3 807/1322/3
f 806/1329/4 764/1330/4 755/1162/4
f 754/1331/4 755/1332/4 806/1318/4
f 806/1318/4 778/1319/4 754/1331/4
f 790/1333/4 723/1334/4 766/1335/4
f 723/1334/4 790/1333/4 751/1336/4
f 783/1337/4 790/1333/4 782/1338/4
f 790/1333/4 783/1337/4 751/1336/4
f 782/1338/4 767/1339/4 724/1340/4
f 724/1340/4 783/1337/4 782/1338/4
f 775/1341/1 728/1196/1 776/1342/1
f 728/1196/1 775/1341/1 698/1194/1
f 698/1194/1 775/1341/1 768/1343/1
f 769/1344/1 768/1343/1 775/1341/1
f 768/1343/1 769/1344/1 770/1345/1
f 770/1346/4 769/1347/4 771/1348/4
f 771/1348/4 765/1349/4 770/1346/4
f 759/1350/4 771/1348/4 772/1351/4
f 771/1348/4 759/1350/4 765/1349/4
f 759/1304/3 774/1352/3 772/1353/3
f 774/1352/3 759/1304/3 758/1303/3
f 772/1354/6 773/1355/6 774/1356/6
f 773/1355/6 772/1354/6 730/1357/6
f 730/1357/6 772/1354/6 776/1358/6
f 776/1358/6 772/1354/6 771/1359/6
f 776/1358/6 771/1359/6 769/1360/6
f 776/1361/2 769/1362/2 775/1363/2
f 782/1364/3 744/1365/3 739/1366/3
f 744/1365/3 782/1364/3 767/1367/3
f 766/1368/3 791/1369/3 748/1370/3
f 791/1369/3 766/1368/3 790/1371/3
f 737/1372/5 735/1373/5 777/1374/5
f 735/1373/5 737/1372/5 781/1375/5
f 781/1375/5 737/1372/5 778/1376/5
f 778/1376/5 737/1372/5 754/1377/5
f 754/1378/2 737/1379/2 779/1380/2
f 781/1375/5 780/1381/5 735/1373/5
f 789/1382/1 714/1383/1 786/1384/1
f 714/1383/1 789/1382/1 739/1385/1
f 739/1385/1 789/1382/1 782/1386/1
f 782/1386/1 789/1382/1 783/1387/1
f 783/1387/1 789/1382/1 785/1388/1
f 785/1388/1 789/1382/1 784/1389/1
f 785/1390/5 788/1391/5 787/1392/5
f 788/1391/5 785/1390/5 784/1393/5
f 788/1394/2 747/1395/2 787/1396/2
f 747/1395/2 788/1394/2 812/1397/2
f 789/1398/6 747/1399/6 812/1400/6
f 747/1399/6 789/1398/6 786/1401/6
f 798/1402/2 751/1403/2 752/1404/2
f 751/1403/2 798/1402/2 790/1405/2
f 790/1405/2 798/1402/2 791/1406/2
f 791/1406/2 798/1402/2 792/1407/2
f 792/1407/13 798/1402/13 794/1408/13
f 794/1408/2 798/1402/2 793/1409/2
f 795/1410/6 794/1411/6 793/1412/6
f 794/1411/6 795/1410/6 749/1413/6
f 795/1414/1 796/1415/1 749/1416/1
f 796/1415/1 795/1414/1 797/1417/1
f 796/1418/5 798/1419/5 752/1420/5
f 798/1419/5 796/1418/5 797/1421/5
f 763/1324/3 755/1422/3 764/1321/3
f 755/1422/3 763/1324/3 754/1423/3
f 754/1423/3 763/1324/3 769/1424/3
f 769/1424/3 763/1324/3 770/1325/3
f 780/1425/3 762/1309/3 757/1426/3
f 762/1309/3 780/1425/3 760/1305/3
f 760/1305/3 780/1425/3 774/1352/3
f 760/1305/3 774/1352/3 758/1303/3
f 804/1427/1 799/1428/1 803/1429/1
f 799/1428/1 804/1427/1 781/1430/1
f 781/1430/1 804/1427/1 772/1431/1
f 772/1431/1 804/1427/1 759/1432/1
f 759/1432/1 804/1427/1 761/1433/1
f 761/1433/1 804/1427/1 813/1434/1
f 761/1435/5 800/1436/5 802/1437/5
f 800/1436/5 761/1435/5 813/1438/5
f 800/1439/2 801/1440/2 802/1441/2
f 801/1440/2 800/1439/2 814/1442/2
f 804/1443/6 801/1444/6 814/1445/6
f 801/1444/6 804/1443/6 803/1446/6
f 772/1353/3 780/1425/3 781/1447/3
f 780/1425/3 772/1353/3 774/1352/3
f 805/1448/2 765/1449/2 811/1450/2
f 765/1449/2 805/1448/2 771/1451/2
f 771/1451/2 805/1448/2 778/1452/2
f 778/1452/2 805/1448/2 806/1453/2
f 806/1453/2 805/1448/2 807/1454/2
f 807/1454/2 805/1448/2 808/1455/2
f 816/1456/6 807/1457/6 808/1458/6
f 807/1457/6 816/1456/6 809/1459/6
f 816/1460/1 810/1461/1 809/1462/1
f 810/1461/1 816/1460/1 815/1463/1
f 810/1464/5 805/1465/5 811/1466/5
f 805/1465/5 810/1464/5 815/1467/5
f 769/1424/3 778/1468/3 754/1423/3
f 778/1468/3 769/1424/3 771/1469/3
f 788/1470/4 789/1471/4 812/1472/4
f 789/1471/4 788/1470/4 784/1473/4
f 798/1474/4 795/1475/4 793/1476/4
f 795/1475/4 798/1474/4 797/1477/4
f 800/1478/4 804/1479/4 814/1480/4
f 804/1479/4 800/1478/4 813/1481/4
f 805/1482/4 816/1483/4 808/1484/4
f 816/1483/4 805/1482/4 815/1485/4
