# 3ds Max Wavefront OBJ Exporter v0.97b - (c)2007 guruware
# File Created: 17.05.2017 00:36:18

mtllib gentow.mtl

#
# object Mesh_806
#

v  0.2712 10.5523 -0.3804
v  -0.4303 10.9531 -0.3804
v  0.0361 10.9531 -0.3804
v  -0.6626 10.5549 -0.3804
v  -0.4275 10.1446 -0.3804
v  0.0389 10.1446 -0.3804
v  0.0389 10.1446 -0.0997
v  -0.6626 10.5549 -0.0997
v  -0.4275 10.1446 -0.0997
v  -0.4303 10.9531 -0.0997
v  0.0361 10.9531 -0.0997
v  0.2712 10.5523 -0.0997
v  -0.3193 9.5180 -0.2401
v  -0.1339 10.1446 -0.1152
v  -0.3193 10.1446 -0.2401
v  -0.1339 9.5180 -0.1152
v  -0.1339 9.5180 -0.3649
v  -0.1339 10.1446 -0.3649
v  -1.0780 9.8941 0.6219
v  -0.9100 9.8607 0.0407
v  -1.2686 9.8941 0.3652
v  -0.6766 9.8607 0.3555
v  -1.5942 9.8941 0.1487
v  -1.4744 9.8941 0.4477
v  -1.3884 9.8941 0.0663
v  -0.9603 9.8607 -0.3553
v  -1.4292 9.8941 -0.2545
v  -1.3884 9.8941 -0.5753
v  -1.6491 9.8941 -0.2825
v  -1.6083 9.8941 -0.6033
v  -1.4466 9.8941 -1.0063
v  -1.0780 9.8941 -1.1309
v  -1.2560 9.8941 -1.2630
v  -1.2686 9.8941 -0.8742
v  -0.8130 9.8607 -0.7234
v  -0.8297 9.8941 -1.3279
v  -0.5103 9.8607 -0.9638
v  0.1101 9.8941 -1.6713
v  -0.2301 9.8941 -1.4939
v  0.0802 9.8941 -1.4517
v  -0.1347 9.8607 -1.0150
v  -0.5405 9.8941 -1.4517
v  -0.6277 9.8941 -1.6555
v  -0.9169 9.8941 -1.5316
v  -0.2003 9.8941 -1.7135
v  0.5072 9.8941 -1.5016
v  0.6177 9.8941 -1.1309
v  0.7555 9.8941 -1.3046
v  0.3694 9.8941 -1.3279
v  0.2163 9.8607 -0.8645
v  0.4497 9.8607 -0.5497
v  0.8083 9.8941 -0.8742
v  0.9281 9.8941 -0.5753
v  0.5000 9.8607 -0.1537
v  0.9689 9.8941 -0.2545
v  1.0141 9.8941 -0.9567
v  1.1339 9.8941 -0.6577
v  0.3527 9.8607 0.2144
v  0.3694 9.8941 0.8188
v  0.6177 9.8941 0.6219
v  0.8083 9.8941 0.3652
v  0.9281 9.8941 0.0663
v  1.1480 9.8941 0.0943
v  1.1888 9.8941 -0.2265
v  0.7957 9.8941 0.7540
v  0.9863 9.8941 0.4973
v  0.1674 9.8941 1.1464
v  0.0802 9.8941 0.9427
v  0.4566 9.8941 1.0226
v  -0.9675 9.8941 0.9925
v  -1.2158 9.8941 0.7956
v  -0.8297 9.8941 0.8188
v  -0.5405 9.8941 0.9427
v  -0.3256 9.8607 0.5060
v  -0.2301 9.8941 0.9849
v  0.0500 9.8607 0.4548
v  -0.2600 9.8941 1.2045
v  -0.5704 9.8941 1.1623
v  1.1480 9.5171 0.0943
v  1.1888 9.5171 -0.2265
v  1.1339 9.5171 -0.6577
v  1.0141 9.5171 -0.9567
v  0.7555 9.5171 -1.3046
v  0.5072 9.5171 -1.5016
v  0.1101 9.5171 -1.6713
v  -0.2003 9.5171 -1.7135
v  -0.6277 9.5171 -1.6555
v  -0.9169 9.5171 -1.5316
v  -1.2560 9.5171 -1.2630
v  -1.4466 9.5171 -1.0063
v  -1.6083 9.5171 -0.6033
v  -1.6491 9.5171 -0.2825
v  -1.5942 9.5171 0.1487
v  -1.4744 9.5171 0.4477
v  -1.2158 9.5171 0.7956
v  -0.9675 9.5171 0.9925
v  -0.5704 9.5171 1.1623
v  -0.2600 9.5171 1.2045
v  0.1674 9.5171 1.1464
v  0.4566 9.5171 1.0226
v  0.7957 9.5171 0.7540
v  0.9863 9.5171 0.4973
v  -1.0780 9.5171 0.6219
v  -0.8297 9.5171 0.8188
v  0.8083 9.5171 -0.8742
v  0.9281 9.5171 -0.5753
v  -0.5405 9.5171 -1.4517
v  -0.8297 9.5171 -1.3279
v  -1.2686 9.5171 -0.8742
v  -1.0780 9.5171 -1.1309
v  0.0802 9.5171 0.9427
v  0.3694 9.5171 0.8188
v  -1.3884 9.5171 -0.5753
v  -1.4292 9.5171 -0.2545
v  -1.2686 9.5171 0.3652
v  -1.3884 9.5171 0.0663
v  -0.5405 9.5171 0.9427
v  -0.2301 9.5171 0.9849
v  0.6177 9.5171 0.6219
v  0.8083 9.5171 0.3652
v  0.6177 9.5171 -1.1309
v  0.3694 9.5171 -1.3279
v  -0.2301 9.5171 -1.4939
v  0.0802 9.5171 -1.4517
v  0.9689 9.5171 -0.2545
v  0.9281 9.5171 0.0663
v  -1.3358 9.5176 -1.4445
v  0.1997 9.5176 -1.8621
v  -0.6211 9.5176 -1.8693
v  0.9068 9.5176 -1.4249
v  1.3107 9.5176 -0.6749
v  1.3032 9.5176 0.1869
v  0.8863 9.5176 0.9298
v  0.1717 9.5176 1.3545
v  -0.6492 9.5176 1.3473
v  -1.3563 9.5176 0.9102
v  -1.7602 9.5176 0.1602
v  -1.7527 9.5176 -0.7017
v  -1.8582 9.2536 0.1869
v  -1.8506 2.6241 -0.7366
v  -1.8586 2.6225 0.1803
v  -1.8502 9.2536 -0.7300
v  -1.4070 2.6254 -1.5268
v  -1.4067 9.2536 -1.5203
v  -0.6468 2.6262 -1.9716
v  -0.6464 9.2536 -1.9716
v  0.2264 2.6261 -1.9716
v  0.2268 9.2536 -1.9716
v  0.9787 2.6253 -1.5060
v  0.9791 9.2536 -1.4995
v  1.4088 9.2536 -0.7016
v  1.4084 2.6238 -0.7082
v  1.4004 2.6222 0.2087
v  1.4007 9.2536 0.2153
v  0.9568 2.6209 0.9990
v  0.9572 9.2536 1.0055
v  0.1966 2.6201 1.4508
v  0.1970 9.2536 1.4574
v  -0.6763 9.2536 1.4498
v  -0.6767 2.6202 1.4432
v  -1.4285 9.2536 0.9847
v  -1.4289 2.6211 0.9782
v  0.0263 1.7427 0.7572
v  0.4798 1.7431 0.4878
v  0.7443 1.7440 0.0164
v  -1.1946 1.7450 -0.5473
v  -0.9301 1.7458 -1.0187
v  -1.1994 1.7441 -0.0005
v  -0.9431 1.7433 0.4753
v  -0.4945 1.7427 0.7527
v  0.7491 1.7449 -0.5304
v  0.4928 1.7457 -1.0062
v  0.0442 1.7462 -1.2836
v  -0.4766 1.7463 -1.2881
v  1.8668 9.6801 -0.1223
v  1.7088 10.0625 -0.1812
v  1.6358 9.9895 -0.1223
v  1.9700 9.6801 -0.1812
v  1.7088 10.0625 -0.2990
v  1.9700 9.6801 -0.2990
v  1.9700 -0.6169 -0.1812
v  1.8668 -0.6169 -0.1223
v  1.7636 -0.6169 -0.1812
v  1.7698 9.6801 -0.1812
v  1.6082 9.9165 -0.1812
v  -0.1338 9.9895 -0.1223
v  -0.1338 9.9165 -0.1812
v  1.6358 -0.9263 -0.1223
v  1.5938 -0.8534 -0.1812
v  1.7088 -0.9993 -0.1812
v  1.9700 -0.6169 -0.2990
v  1.8668 9.6801 -0.3578
v  1.6358 9.9895 -0.3578
v  1.8668 -0.6169 -0.3578
v  1.7698 9.6801 -0.2990
v  1.7088 -0.9993 -0.2990
v  1.4213 -0.9993 -0.1812
v  1.4213 -0.9263 -0.1223
v  1.4213 -0.8534 -0.1812
v  1.4213 -0.8534 -0.2990
v  1.4213 -0.9993 -0.2990
v  1.6358 -0.9263 -0.3578
v  1.7636 -0.6169 -0.2990
v  1.5938 -0.8534 -0.2990
v  1.4213 -0.9263 -0.3578
v  -0.1338 10.0625 -0.1812
v  -0.1338 10.0625 -0.2990
v  -0.1338 9.9895 -0.3578
v  -0.1338 9.9165 -0.2990
v  1.6082 9.9165 -0.2990
v  -0.6294 8.9301 -2.4292
v  -0.6294 8.5882 -1.9718
v  -0.6294 8.9301 -1.9718
v  -0.6294 8.5882 -2.4292
v  -0.2744 8.7592 -3.3532
v  -0.9301 -0.2820 -1.0202
v  -1.1946 0.4472 -0.5483
v  -0.9301 0.4480 -1.0197
v  -1.1946 -0.2829 -0.5489
v  -1.1994 0.4462 -0.0015
v  -1.1994 -0.2838 -0.0021
v  -0.9431 0.4454 0.4743
v  -0.9432 -0.2847 0.4738
v  -0.4945 0.4449 0.7517
v  -0.4945 -0.2852 0.7511
v  0.0263 0.4448 0.7562
v  0.0263 -0.2852 0.7557
v  0.4797 0.4453 0.4867
v  0.4797 -0.2848 0.4862
v  0.7442 0.4461 0.0154
v  0.7442 -0.2840 0.0149
v  0.7490 0.4470 -0.5314
v  0.7490 -0.2830 -0.5319
v  0.4928 0.4479 -1.0072
v  0.4927 -0.2822 -1.0078
v  0.0441 0.4484 -1.2846
v  0.0441 -0.2817 -1.2852
v  -0.4767 0.4484 -1.2891
v  -0.4767 -0.2816 -1.2897
v  -0.6685 8.7410 1.9451
v  -0.5201 9.1547 1.7301
v  -0.6685 8.8509 1.6786
v  -0.5201 8.9677 2.1537
v  -0.6685 8.4832 2.1230
v  -0.5201 8.5308 2.4274
v  -0.6685 0.0809 2.1618
v  -0.5201 0.1654 1.8691
v  -0.5201 8.4329 1.8179
v  -0.5201 8.5114 1.7366
v  -0.5201 8.5457 1.6270
v  -0.6685 8.8478 1.5014
v  -0.5201 8.5405 1.5222
v  -0.1867 -0.4813 1.8012
v  -0.1867 0.1864 1.7969
v  -0.1867 8.4212 1.7427
v  -0.1867 8.4554 1.6851
v  -0.1867 8.4707 1.6143
v  -0.1867 8.4645 1.5274
v  -0.1867 8.4023 0.6081
v  -0.5201 9.1552 1.4806
v  -0.1867 9.2297 1.7428
v  -0.1867 9.2311 1.4754
v  -0.5201 -0.0117 2.4557
v  -0.6685 -0.6004 2.1649
v  -0.5201 -0.7044 2.4580
v  -0.1867 -0.0326 2.5280
v  -0.1867 8.5425 2.5026
v  0.0806 8.5096 2.2919
v  -0.1867 9.0237 2.2053
v  0.0806 8.8668 2.0609
v  0.0806 9.0195 1.7071
v  0.0806 9.0184 1.4899
v  -0.1867 -0.7279 2.5301
v  0.0806 0.0262 2.3247
v  0.0806 8.4569 1.9541
v  0.0806 8.6152 1.8293
v  0.0806 8.6824 1.6500
v  0.0806 8.6772 1.5130
v  0.0806 -0.5474 2.0031
v  0.0806 0.1279 1.9994
v  0.0806 -0.6616 2.3273
v  -0.9100 9.5504 0.0407
v  -0.6766 9.5504 0.3555
v  -0.3256 9.5504 0.5060
v  0.2163 9.5504 -0.8645
v  -0.1347 9.5504 -1.0150
v  -0.5103 9.5504 -0.9638
v  -0.8130 9.5504 -0.7234
v  -0.9603 9.5504 -0.3553
v  0.0500 9.5504 0.4548
v  0.3527 9.5504 0.2144
v  0.5000 9.5504 -0.1537
v  0.4497 9.5504 -0.5497
v  0.1196 8.7592 -2.4292
v  -0.0287 9.0672 -2.4292
v  0.1196 8.7592 -1.9718
v  -0.0287 9.0672 -1.9718
v  -0.3621 8.3750 -2.4292
v  -0.3621 8.3750 -1.9718
v  -0.3621 9.1433 -2.4292
v  -0.3621 9.1433 -1.9718
v  -0.0287 8.4511 -2.4292
v  -0.0287 8.4511 -1.9718
v  -0.5201 8.4782 0.6030
v  -0.6685 8.7855 0.5822
v  -0.5201 9.0929 0.5614
v  -0.1867 9.1688 0.5562
v  0.0806 8.9561 0.5706
v  0.0806 8.6150 0.5937
v  -0.5201 -0.5049 1.8733
# 310 vertices

vn 0.0000 0.0000 -1.0000
vn 0.0000 -0.0000 -1.0000
vn -0.0000 0.0000 1.0000
vn -0.0000 -0.0000 1.0000
vn 0.8626 0.5059 -0.0000
vn -0.8677 -0.4971 0.0000
vn -0.8637 0.5040 0.0000
vn 0.8688 -0.4951 -0.0000
vn 0.0000 1.0000 -0.0000
vn -0.0000 -1.0000 -0.0000
vn -0.5585 0.0000 0.8295
vn -0.5585 0.0000 -0.8295
vn 0.0331 0.9990 -0.0311
vn 0.0635 0.9977 -0.0253
vn 0.0394 0.9990 -0.0229
vn 0.0421 0.9977 -0.0529
vn 0.0445 0.9989 -0.0109
vn 0.0680 0.9976 0.0086
vn 0.0459 0.9989 -0.0007
vn 0.0442 0.9989 0.0122
vn 0.0320 0.9990 0.0321
vn 0.0402 0.9990 0.0217
vn 0.0547 0.9977 0.0404
vn 0.0237 0.9990 0.0385
vn 0.0266 0.9977 0.0618
vn 0.0007 0.9990 0.0449
vn -0.0126 0.9990 0.0431
vn -0.0091 0.9977 0.0665
vn 0.0113 0.9990 0.0435
vn -0.0331 0.9990 0.0311
vn -0.0225 0.9990 0.0391
vn -0.0421 0.9977 0.0529
vn -0.0635 0.9977 0.0253
vn -0.0394 0.9990 0.0229
vn -0.0445 0.9989 0.0109
vn -0.0680 0.9976 -0.0086
vn -0.0459 0.9989 0.0007
vn -0.0547 0.9977 -0.0404
vn -0.0237 0.9990 -0.0385
vn -0.0320 0.9990 -0.0321
vn -0.0402 0.9990 -0.0217
vn -0.0442 0.9989 -0.0122
vn -0.0113 0.9990 -0.0435
vn 0.0225 0.9990 -0.0391
vn 0.0126 0.9990 -0.0431
vn 0.0091 0.9977 -0.0665
vn -0.0007 0.9990 -0.0449
vn -0.0266 0.9977 -0.0618
vn 0.9920 -0.0000 0.1264
vn 0.9282 -0.0000 -0.3720
vn 0.6214 -0.0000 -0.7835
vn 0.1348 -0.0000 -0.9909
vn -0.3936 0.0000 -0.9193
vn -0.8029 0.0000 -0.5961
vn -0.9920 0.0000 -0.1264
vn -0.9282 0.0000 0.3720
vn -0.6214 0.0000 0.7835
vn -0.1348 0.0000 0.9909
vn 0.3936 -0.0000 0.9193
vn 0.8029 -0.0000 0.5960
vn -0.7835 0.0000 -0.6214
vn 0.7835 -0.0000 0.6214
vn -0.3720 0.0000 -0.9282
vn 0.3719 -0.0000 0.9283
vn 0.9193 -0.0000 -0.3936
vn -0.9193 0.0000 0.3936
vn -0.5961 0.0000 0.8029
vn 0.5960 -0.0000 -0.8030
vn 0.9193 -0.0000 -0.3935
vn 0.1263 -0.0000 -0.9920
vn -0.1263 0.0000 0.9920
vn 0.3720 -0.0000 0.9282
vn -0.3719 0.0000 -0.9283
vn -0.9909 0.0000 -0.1348
vn 0.9909 -0.0000 0.1349
vn -0.5960 0.0000 0.8029
vn 0.5961 -0.0000 -0.8029
vn 0.1264 -0.0000 -0.9920
vn 0.6214 -0.0000 0.7835
vn 0.9282 -0.0000 0.3720
vn 0.9920 -0.0000 -0.1263
vn 0.8029 -0.0000 -0.5961
vn 0.3936 -0.0000 -0.9193
vn -0.1348 0.0000 -0.9909
vn -0.6214 0.0000 -0.7835
vn -0.9282 0.0000 -0.3720
vn -0.9920 0.0000 0.1263
vn -0.8029 0.0000 0.5961
vn -0.3936 0.0000 0.9193
vn 0.1349 -0.0000 0.9909
vn -0.9707 -0.0002 0.2404
vn -0.9664 0.0003 -0.2571
vn -0.9664 0.0003 -0.2570
vn -0.7135 0.0007 -0.7007
vn -0.7155 0.0003 -0.6986
vn -0.2619 0.0004 -0.9651
vn -0.2647 0.0000 -0.9643
vn 0.2737 -0.0000 -0.9618
vn 0.2763 0.0004 -0.9611
vn 0.7283 0.0002 -0.6852
vn 0.7303 0.0006 -0.6831
vn 0.9707 0.0002 -0.2401
vn 1.0000 -0.0001 0.0087
vn 0.8720 -0.0005 0.4894
vn 0.7158 -0.0007 0.6983
vn 0.7157 -0.0007 0.6984
vn 0.2607 -0.0010 0.9654
vn -0.2775 -0.0009 0.9607
vn -0.7278 -0.0006 0.6858
vn 0.2046 -0.6311 0.7482
vn 0.5584 -0.6227 0.5481
vn 0.2009 -0.6312 0.7492
vn 0.5637 -0.6226 0.5428
vn 0.6951 -0.6045 0.3891
vn -0.7635 -0.6133 -0.2021
vn -0.5576 -0.6200 -0.5520
vn -0.5638 -0.6206 -0.5450
vn -0.7626 -0.6134 -0.2056
vn -0.7669 -0.6140 0.1866
vn -0.7660 -0.6140 0.1901
vn -0.5680 -0.6227 0.5383
vn -0.5732 -0.6225 0.5329
vn -0.2140 -0.6312 0.7455
vn -0.2178 -0.6311 0.7445
vn 0.7669 -0.6134 -0.1888
vn 0.8005 -0.5993 0.0059
vn 0.7660 -0.6135 -0.1923
vn 0.5680 -0.6208 -0.5403
vn 0.5731 -0.6207 -0.5350
vn 0.2120 -0.6279 -0.7489
vn 0.2177 -0.6288 -0.7465
vn -0.2051 -0.6271 -0.7515
vn -0.2025 -0.6249 -0.7540
vn 0.0824 0.0565 0.9950
vn 0.4293 0.7895 0.4385
vn 0.0136 0.1327 0.9911
vn 0.8516 0.2519 0.4596
vn 0.4293 0.7895 -0.4385
vn 0.8516 0.2519 -0.4596
vn 0.8517 -0.2519 0.4596
vn 0.0931 -0.0593 0.9939
vn -0.7977 0.2853 0.5313
vn -0.8103 -0.2823 0.5136
vn -0.4182 -0.7547 0.5056
vn -0.0000 -0.9022 0.4314
vn 0.0144 -0.1452 0.9893
vn -0.3818 0.7590 0.5274
vn 0.4293 -0.7895 0.4386
vn 0.8516 -0.2519 -0.4596
vn 0.0824 0.0564 -0.9950
vn 0.0136 0.1327 -0.9911
vn 0.0931 -0.0592 -0.9939
vn -0.5128 -0.2106 -0.8323
vn 0.4293 -0.7895 -0.4386
vn -0.0000 -0.9021 0.4315
vn -0.0000 0.0002 1.0000
vn -0.0000 0.9022 0.4313
vn 0.0000 -0.9021 -0.4315
vn 0.0144 -0.1452 -0.9893
vn -0.4876 0.2025 -0.8492
vn -0.2526 0.5152 -0.8190
vn 0.0000 0.0002 -1.0000
vn 0.0000 0.6280 -0.7783
vn -0.0000 0.9022 0.4314
vn 0.0000 0.9022 -0.4314
vn 0.0000 -0.6278 -0.7784
vn -0.3078 -0.5241 -0.7941
vn -0.4564 0.8898 0.0000
vn -0.9518 0.3067 0.0000
vn -0.9555 -0.2950 0.0000
vn -0.4668 -0.8844 0.0000
vn -0.9851 0.0000 -0.1719
vn -1.0000 0.0000 0.0000
vn -0.9335 0.0000 -0.3587
vn 1.0000 -0.0000 -0.0000
vn -0.7159 0.0006 -0.6982
vn -0.9664 0.0002 -0.2572
vn -0.7158 0.0006 -0.6983
vn -0.9664 0.0002 -0.2570
vn -0.9707 -0.0002 0.2403
vn -0.7279 -0.0005 0.6857
vn -0.7278 -0.0005 0.6858
vn -0.2775 -0.0007 0.9607
vn 0.2607 -0.0007 0.9654
vn 0.7158 -0.0006 0.6983
vn 0.7158 -0.0006 0.6984
vn 0.7159 -0.0006 0.6982
vn 0.8720 -0.0004 0.4894
vn -0.9663 0.0002 -0.2573
vn -0.7157 0.0006 -0.6984
vn -0.9707 -0.0002 0.2401
vn -0.7280 -0.0005 0.6856
vn -0.2776 -0.0007 0.9607
vn 1.0000 -0.0000 0.0087
vn 0.9707 0.0002 -0.2403
vn 0.7279 0.0005 -0.6857
vn 0.7280 0.0005 -0.6856
vn 0.2775 0.0007 -0.9607
vn 0.2776 0.0007 -0.9607
vn -0.2607 0.0007 -0.9654
vn 0.9707 0.0002 -0.2404
vn 0.7278 0.0005 -0.6858
vn -0.2607 0.0008 -0.9654
vn -0.9973 0.0567 0.0467
vn -0.5957 0.7859 0.1659
vn -0.9985 0.0522 0.0140
vn -0.5841 0.6140 0.5308
vn -0.9967 0.0313 0.0754
vn -0.5871 0.2245 0.7778
vn -1.0000 -0.0004 -0.0011
vn -0.6108 -0.0048 -0.7917
vn -0.6872 -0.2808 -0.6701
vn -0.6492 -0.6567 -0.3839
vn -0.6469 -0.7567 -0.0941
vn -1.0000 0.0061 0.0006
vn -0.6238 -0.7802 0.0470
vn -0.2110 -0.0062 -0.9775
vn -0.2116 -0.0062 -0.9773
vn -0.2430 -0.4834 -0.8410
vn -0.2207 -0.9072 -0.3581
vn -0.2240 -0.9721 -0.0690
vn -0.2225 -0.9726 0.0675
vn -0.2226 -0.9727 0.0659
vn -0.6178 0.7859 -0.0262
vn 0.2097 0.9566 0.2024
vn 0.2195 0.9751 -0.0315
vn -0.6116 0.0027 0.7912
vn -0.9955 0.0002 0.0945
vn -0.5606 0.0026 0.8281
vn 0.2167 0.0031 0.9762
vn 0.2064 0.2627 0.9425
vn 0.8697 0.1448 0.4719
vn 0.2042 0.7378 0.6434
vn 0.8694 0.3778 0.3186
vn 0.8788 0.4670 0.0980
vn 0.8975 0.4407 -0.0159
vn 0.1964 0.0032 0.9805
vn 0.8958 0.0016 0.4445
vn 0.9347 -0.1111 -0.3375
vn 0.9253 -0.3085 -0.2207
vn 0.9205 -0.3861 -0.0592
vn 0.6229 -0.7272 -0.2884
vn 0.6275 -0.7767 -0.0540
vn 0.9020 -0.4311 0.0239
vn 0.6235 -0.7800 0.0542
vn 0.6030 -0.0050 -0.7977
vn 0.9286 -0.0023 -0.3712
vn 0.6017 -0.0053 -0.7987
vn 0.8954 -0.0026 -0.4453
vn 0.6571 -0.3759 -0.6534
vn 0.8522 0.0020 0.5232
vn 0.6202 -0.0000 -0.7845
vn 0.9278 -0.0000 -0.3730
vn 0.3941 -0.0000 -0.9191
vn -0.1344 0.0000 0.9909
vn -0.6202 0.0000 0.7845
vn 0.3925 -0.0000 0.9198
vn 0.8020 -0.0000 0.5973
vn 0.9919 -0.0000 0.1267
vn -0.3925 0.0000 -0.9198
vn -0.1350 0.0000 -0.9908
vn -0.8020 0.0000 -0.5973
vn -0.9919 0.0000 -0.1267
vn -0.9278 0.0000 0.3730
vn 0.9063 0.3590 -0.2230
vn 0.6780 0.3655 -0.6378
vn 0.6808 0.3672 -0.6338
vn 0.9057 0.3590 -0.2253
vn 0.9377 0.3473 0.0082
vn -0.9023 0.3590 -0.2387
vn -0.9057 0.3590 0.2253
vn -0.9063 0.3590 0.2230
vn -0.9017 0.3590 -0.2411
vn -0.6682 0.3655 -0.6480
vn -0.6646 0.3654 -0.6517
vn -0.2432 0.3709 -0.8962
vn -0.2414 0.3733 -0.8958
vn 0.2547 0.3904 -0.8847
vn 0.2503 0.3909 -0.8857
vn 0.6682 0.3655 0.6480
vn 0.8166 0.3509 0.4583
vn 0.6646 0.3656 0.6516
vn 0.2434 0.3723 0.8956
vn 0.2408 0.3724 0.8963
vn -0.2590 0.3724 0.8912
vn -0.2564 0.3724 0.8920
vn -0.6795 0.3655 0.6362
vn -0.6759 0.3656 0.6399
vn 0.8876 0.4274 -0.1719
vn 0.8410 0.4050 -0.3587
vn 0.9010 0.4339 -0.0000
vn -0.6142 -0.7702 -0.1719
vn -0.5820 -0.7298 -0.3587
vn -0.6235 -0.7819 0.0000
vn 0.2191 0.9604 -0.1719
vn 0.2077 0.9101 -0.3587
vn 0.2225 0.9749 -0.0000
vn 0.2192 -0.9604 -0.1719
vn 0.2077 -0.9101 -0.3586
vn 0.2225 -0.9749 -0.0000
vn -0.6235 -0.7800 0.0528
vn -1.0000 -0.0000 0.0000
vn -0.6235 0.7801 -0.0528
vn 0.2225 0.9727 -0.0659
vn 0.9010 0.4329 -0.0293
vn 0.9010 -0.4329 0.0293
vn 0.6235 -0.7801 0.0528
vn -0.6142 0.7702 -0.1719
vn -0.5820 0.7298 -0.3587
vn -0.6235 0.7819 0.0000
vn -0.6496 -0.0044 -0.7603
vn 0.8876 -0.4274 -0.1719
vn 0.8410 -0.4050 -0.3587
vn 0.9010 -0.4339 -0.0000
# 314 vertex normals

vt 0.8444 0.4042 0.0000
vt 0.8952 0.4931 0.0000
vt 0.8952 0.4340 0.0000
vt 0.8447 0.5225 0.0000
vt 0.7927 0.4928 0.0000
vt 0.7927 0.4337 0.0000
vt 0.9017 0.2828 0.0000
vt 0.8439 0.3816 0.0000
vt 0.9017 0.3485 0.0000
vt 0.7878 0.3488 0.0000
vt 0.7878 0.2833 0.0000
vt 0.8443 0.2500 0.0000
vt 0.9312 0.4579 0.0000
vt 0.9707 0.5233 0.0000
vt 0.9707 0.4579 0.0000
vt 0.9312 0.5233 0.0000
vt 0.9707 0.3272 0.0000
vt 0.9312 0.2606 0.0000
vt 0.9312 0.3272 0.0000
vt 0.9707 0.2606 0.0000
vt 0.9707 0.3922 0.0000
vt 0.9312 0.3922 0.0000
vt 0.9707 0.5895 0.0000
vt 0.9312 0.5895 0.0000
vt 0.9707 0.6552 0.0000
vt 0.9312 0.6552 0.0000
vt 0.8351 0.9030 0.0000
vt 0.8665 0.8148 0.0000
vt 0.8351 0.8148 0.0000
vt 0.8665 0.9030 0.0000
vt 0.9017 0.9030 0.0000
vt 0.9331 0.8148 0.0000
vt 0.9017 0.8148 0.0000
vt 0.9331 0.9030 0.0000
vt 0.9617 0.0596 0.0000
vt 0.9428 0.1025 0.0000
vt 0.9737 0.0813 0.0000
vt 0.9280 0.0759 0.0000
vt 0.9965 0.1013 0.0000
vt 0.9905 0.0771 0.0000
vt 0.9799 0.1056 0.0000
vt 0.9425 0.1335 0.0000
vt 0.9797 0.1307 0.0000
vt 0.9731 0.1549 0.0000
vt 0.9963 0.1352 0.0000
vt 0.9897 0.1593 0.0000
vt 0.9731 0.1887 0.0000
vt 0.9435 0.1944 0.0000
vt 0.9558 0.2064 0.0000
vt 0.9608 0.1767 0.0000
vt 0.9272 0.1602 0.0000
vt 0.9223 0.2070 0.0000
vt 0.9015 0.1756 0.0000
vt 0.8464 0.2236 0.0000
vt 0.8744 0.2135 0.0000
vt 0.8510 0.2070 0.0000
vt 0.8721 0.1756 0.0000
vt 0.8988 0.2135 0.0000
vt 0.9034 0.2301 0.0000
vt 0.9269 0.2235 0.0000
vt 0.8698 0.2301 0.0000
vt 0.8177 0.2064 0.0000
vt 0.8130 0.1767 0.0000
vt 0.8006 0.1886 0.0000
vt 0.8300 0.1944 0.0000
vt 0.8467 0.1604 0.0000
vt 0.8321 0.1338 0.0000
vt 0.8010 0.1550 0.0000
vt 0.7949 0.1307 0.0000
vt 0.8323 0.1028 0.0000
vt 0.7952 0.1056 0.0000
vt 0.7843 0.1592 0.0000
vt 0.7783 0.1349 0.0000
vt 0.8475 0.0761 0.0000
vt 0.8524 0.0293 0.0000
vt 0.8313 0.0419 0.0000
vt 0.8140 0.0596 0.0000
vt 0.8016 0.0813 0.0000
vt 0.7850 0.0768 0.0000
vt 0.7786 0.1011 0.0000
vt 0.8190 0.0299 0.0000
vt 0.8016 0.0476 0.0000
vt 0.8714 0.0062 0.0000
vt 0.8760 0.0228 0.0000
vt 0.8478 0.0127 0.0000
vt 0.9571 0.0299 0.0000
vt 0.9742 0.0476 0.0000
vt 0.9448 0.0417 0.0000
vt 0.9238 0.0293 0.0000
vt 0.9026 0.0607 0.0000
vt 0.9003 0.0228 0.0000
vt 0.8732 0.0607 0.0000
vt 0.9049 0.0062 0.0000
vt 0.9283 0.0127 0.0000
vt 0.4391 0.7637 0.0000
vt 0.4140 0.7929 0.0000
vt 0.4391 0.7929 0.0000
vt 0.4140 0.7637 0.0000
vt 0.5238 0.7635 0.0000
vt 0.4987 0.7927 0.0000
vt 0.5238 0.7927 0.0000
vt 0.4987 0.7635 0.0000
vt 0.6075 0.7635 0.0000
vt 0.5829 0.7927 0.0000
vt 0.6075 0.7927 0.0000
vt 0.5830 0.7635 0.0000
vt 0.7249 0.8331 0.0000
vt 0.7489 0.8035 0.0000
vt 0.7246 0.8038 0.0000
vt 0.7492 0.8328 0.0000
vt 0.6416 0.8337 0.0000
vt 0.6660 0.8043 0.0000
vt 0.6415 0.8044 0.0000
vt 0.6661 0.8335 0.0000
vt 0.5578 0.8338 0.0000
vt 0.5825 0.8046 0.0000
vt 0.5578 0.8046 0.0000
vt 0.5825 0.8338 0.0000
vt 0.4731 0.8335 0.0000
vt 0.4984 0.8044 0.0000
vt 0.4733 0.8043 0.0000
vt 0.4982 0.8337 0.0000
vt 0.3885 0.8329 0.0000
vt 0.4137 0.8038 0.0000
vt 0.3886 0.8037 0.0000
vt 0.4136 0.8331 0.0000
vt 0.3048 0.8328 0.0000
vt 0.3294 0.8035 0.0000
vt 0.3048 0.8035 0.0000
vt 0.3294 0.8328 0.0000
vt 0.2217 0.8328 0.0000
vt 0.2460 0.8035 0.0000
vt 0.2217 0.8035 0.0000
vt 0.2460 0.8328 0.0000
vt 0.2708 0.7638 0.0000
vt 0.2463 0.7930 0.0000
vt 0.2708 0.7930 0.0000
vt 0.2463 0.7638 0.0000
vt 0.3546 0.7638 0.0000
vt 0.3299 0.7930 0.0000
vt 0.3546 0.7930 0.0000
vt 0.3297 0.7638 0.0000
vt 0.3465 0.8328 0.0000
vt 0.3466 0.8035 0.0000
vt 0.2875 0.8035 0.0000
vt 0.2875 0.8328 0.0000
vt 0.5408 0.7927 0.0000
vt 0.5408 0.7635 0.0000
vt 0.4814 0.7635 0.0000
vt 0.4814 0.7927 0.0000
vt 0.6833 0.8334 0.0000
vt 0.6832 0.8041 0.0000
vt 0.6244 0.8046 0.0000
vt 0.6244 0.8338 0.0000
vt 0.5405 0.8046 0.0000
vt 0.5405 0.8338 0.0000
vt 0.5998 0.8338 0.0000
vt 0.5998 0.8046 0.0000
vt 0.2292 0.7638 0.0000
vt 0.2292 0.7930 0.0000
vt 0.2880 0.7930 0.0000
vt 0.2880 0.7638 0.0000
vt 0.5154 0.8337 0.0000
vt 0.5156 0.8044 0.0000
vt 0.4560 0.8041 0.0000
vt 0.4559 0.8334 0.0000
vt 0.3714 0.8037 0.0000
vt 0.3714 0.8329 0.0000
vt 0.4308 0.8332 0.0000
vt 0.4310 0.8040 0.0000
vt 0.2631 0.8328 0.0000
vt 0.2631 0.8035 0.0000
vt 0.2044 0.8035 0.0000
vt 0.2044 0.8328 0.0000
vt 0.3126 0.7638 0.0000
vt 0.3126 0.7930 0.0000
vt 0.3719 0.7930 0.0000
vt 0.3719 0.7638 0.0000
vt 0.5658 0.7635 0.0000
vt 0.5658 0.7927 0.0000
vt 0.6247 0.7927 0.0000
vt 0.6247 0.7635 0.0000
vt 0.7073 0.8040 0.0000
vt 0.7077 0.8332 0.0000
vt 0.7664 0.8326 0.0000
vt 0.7661 0.8034 0.0000
vt 0.4564 0.7929 0.0000
vt 0.4564 0.7637 0.0000
vt 0.3968 0.7637 0.0000
vt 0.3968 0.7929 0.0000
vt 0.6492 0.7637 0.0000
vt 0.6492 0.7929 0.0000
vt 0.2049 0.7930 0.0000
vt 0.2049 0.7638 0.0000
vt 0.6663 0.6249 0.0000
vt 0.7578 0.5989 0.0000
vt 0.7088 0.5990 0.0000
vt 0.8003 0.6246 0.0000
vt 0.8251 0.6691 0.0000
vt 0.8252 0.7206 0.0000
vt 0.8008 0.7654 0.0000
vt 0.7583 0.7913 0.0000
vt 0.7092 0.7914 0.0000
vt 0.6667 0.7657 0.0000
vt 0.6420 0.7211 0.0000
vt 0.6418 0.6695 0.0000
vt 0.4530 0.0240 0.0000
vt 0.3834 0.4844 0.0000
vt 0.4530 0.4844 0.0000
vt 0.3834 0.0240 0.0000
vt 0.3222 0.4844 0.0000
vt 0.3222 0.0240 0.0000
vt 0.2585 0.4844 0.0000
vt 0.2585 0.0240 0.0000
vt 0.1955 0.4844 0.0000
vt 0.1955 0.0240 0.0000
vt 0.1324 0.4844 0.0000
vt 0.1324 0.0240 0.0000
vt 0.0693 0.0240 0.0000
vt 0.0693 0.4844 0.0000
vt 0.0067 0.4844 0.0000
vt 0.0067 0.0240 0.0000
vt 0.7675 0.0240 0.0000
vt 0.7057 0.4844 0.0000
vt 0.7675 0.4844 0.0000
vt 0.7057 0.0240 0.0000
vt 0.6433 0.4844 0.0000
vt 0.6433 0.0240 0.0000
vt 0.5812 0.0240 0.0000
vt 0.5812 0.4844 0.0000
vt 0.5178 0.0240 0.0000
vt 0.5178 0.4844 0.0000
vt 0.5784 0.6012 0.0000
vt 0.6207 0.6012 0.0000
vt 0.6580 0.6012 0.0000
vt 0.3834 0.6012 0.0000
vt 0.3336 0.6012 0.0000
vt 0.4350 0.6012 0.0000
vt 0.4848 0.6012 0.0000
vt 0.5330 0.6012 0.0000
vt 0.1472 0.6012 0.0000
vt 0.1089 0.6012 0.0000
vt 0.1903 0.6012 0.0000
vt 0.2365 0.6012 0.0000
vt 0.2843 0.6012 0.0000
vt 0.1460 0.9668 0.0000
vt 0.1276 0.9628 0.0000
vt 0.1256 0.9673 0.0000
vt 0.1462 0.9617 0.0000
vt 0.1268 0.9577 0.0000
vt 0.1462 0.9566 0.0000
vt 0.6819 0.9602 0.0000
vt 0.6819 0.9653 0.0000
vt 0.6819 0.9703 0.0000
vt 0.1459 0.9717 0.0000
vt 0.1257 0.9714 0.0000
vt 0.0301 0.9668 0.0000
vt 0.0301 0.9708 0.0000
vt 0.7034 0.9657 0.0000
vt 0.7034 0.9700 0.0000
vt 0.7034 0.9608 0.0000
vt 0.6819 0.9551 0.0000
vt 0.1459 0.9514 0.0000
vt 0.1234 0.9537 0.0000
vt 0.6819 0.9500 0.0000
vt 0.1457 0.9465 0.0000
vt 0.7034 0.9559 0.0000
vt 0.7162 0.9627 0.0000
vt 0.7162 0.9674 0.0000
vt 0.7162 0.9714 0.0000
vt 0.7162 0.9765 0.0000
vt 0.7162 0.9560 0.0000
vt 0.7034 0.9511 0.0000
vt 0.6819 0.9448 0.0000
vt 0.7034 0.9470 0.0000
vt 0.7162 0.9511 0.0000
vt 0.7162 0.9468 0.0000
vt 0.0301 0.9628 0.0000
vt 0.0301 0.9577 0.0000
vt 0.0301 0.9537 0.0000
vt 0.0301 0.9497 0.0000
vt 0.1219 0.9499 0.0000
vt 0.7034 0.9751 0.0000
vt 0.6819 0.9756 0.0000
vt 0.1459 0.9768 0.0000
vt 0.1266 0.9765 0.0000
vt 0.0301 0.9759 0.0000
vt 0.0557 0.7170 0.0000
vt 0.0131 0.6967 0.0000
vt 0.0209 0.7304 0.0000
vt 0.0479 0.6923 0.0000
vt 0.1308 0.6809 0.0000
vt 0.3413 0.7128 0.0000
vt 0.3834 0.6726 0.0000
vt 0.3385 0.6726 0.0000
vt 0.3834 0.7128 0.0000
vt 0.4291 0.6726 0.0000
vt 0.4259 0.7128 0.0000
vt 0.4736 0.6726 0.0000
vt 0.4673 0.7128 0.0000
vt 0.5161 0.6726 0.0000
vt 0.5067 0.7128 0.0000
vt 0.5564 0.6726 0.0000
vt 0.5439 0.7128 0.0000
vt 0.5949 0.6726 0.0000
vt 0.5804 0.7128 0.0000
vt 0.6312 0.6726 0.0000
vt 0.6163 0.7128 0.0000
vt 0.1504 0.7128 0.0000
vt 0.1724 0.6726 0.0000
vt 0.1355 0.6726 0.0000
vt 0.1868 0.7128 0.0000
vt 0.2117 0.6726 0.0000
vt 0.2238 0.7128 0.0000
vt 0.2526 0.6726 0.0000
vt 0.2617 0.7128 0.0000
vt 0.2948 0.6726 0.0000
vt 0.3006 0.7128 0.0000
vt 0.0899 0.9099 0.0000
vt 0.0677 0.8989 0.0000
vt 0.0752 0.9109 0.0000
vt 0.0860 0.8980 0.0000
vt 0.1060 0.9100 0.0000
vt 0.1056 0.8980 0.0000
vt 0.6702 0.9100 0.0000
vt 0.6654 0.9217 0.0000
vt 0.1068 0.9220 0.0000
vt 0.0963 0.9225 0.0000
vt 0.0868 0.9234 0.0000
vt 0.0669 0.9128 0.0000
vt 0.0791 0.9245 0.0000
vt 0.7094 0.9340 0.0000
vt 0.6643 0.9340 0.0000
vt 0.1068 0.9343 0.0000
vt 0.1002 0.9348 0.0000
vt 0.0937 0.9354 0.0000
vt 0.0863 0.9362 0.0000
vt 0.0334 0.9443 0.0000
vt 0.0575 0.9003 0.0000
vt 0.0655 0.8871 0.0000
vt 0.0546 0.8872 0.0000
vt 0.6753 0.8982 0.0000
vt 0.7159 0.9100 0.0000
vt 0.7214 0.8982 0.0000
vt 0.6763 0.8859 0.0000
vt 0.1054 0.8860 0.0000
vt 0.1056 0.8742 0.0000
vt 0.0851 0.8865 0.0000
vt 0.0866 0.8746 0.0000
vt 0.0689 0.8749 0.0000
vt 0.0589 0.8740 0.0000
vt 0.7227 0.8859 0.0000
vt 0.6731 0.8737 0.0000
vt 0.1060 0.8622 0.0000
vt 0.0909 0.8625 0.0000
vt 0.0771 0.8622 0.0000
vt 0.0955 0.8498 0.0000
vt 0.0855 0.8497 0.0000
vt 0.0682 0.8615 0.0000
vt 0.0752 0.8495 0.0000
vt 0.6642 0.8500 0.0000
vt 0.7130 0.8620 0.0000
vt 0.7094 0.8500 0.0000
vt 0.6674 0.8620 0.0000
vt 0.1066 0.8500 0.0000
vt 0.7191 0.8737 0.0000
vt 0.2351 0.7253 0.0000
vt 0.2654 0.7495 0.0000
vt 0.2655 0.7255 0.0000
vt 0.2351 0.7495 0.0000
vt 0.2055 0.7253 0.0000
vt 0.2054 0.7493 0.0000
vt 0.3866 0.7256 0.0000
vt 0.4163 0.7497 0.0000
vt 0.4163 0.7255 0.0000
vt 0.3866 0.7497 0.0000
vt 0.3572 0.7256 0.0000
vt 0.3572 0.7497 0.0000
vt 0.3272 0.7255 0.0000
vt 0.3272 0.7497 0.0000
vt 0.2965 0.7255 0.0000
vt 0.2965 0.7495 0.0000
vt 0.5385 0.7253 0.0000
vt 0.5679 0.7493 0.0000
vt 0.5679 0.7253 0.0000
vt 0.5385 0.7495 0.0000
vt 0.5085 0.7255 0.0000
vt 0.5085 0.7495 0.0000
vt 0.4777 0.7255 0.0000
vt 0.4777 0.7495 0.0000
vt 0.4467 0.7255 0.0000
vt 0.4467 0.7497 0.0000
vt 0.0693 0.0041 0.0000
vt 0.1324 0.0041 0.0000
vt 0.0067 0.0041 0.0000
vt 0.3834 0.0041 0.0000
vt 0.4530 0.0041 0.0000
vt 0.3222 0.0041 0.0000
vt 0.2585 0.0041 0.0000
vt 0.1955 0.0041 0.0000
vt 0.7057 0.0041 0.0000
vt 0.7675 0.0041 0.0000
vt 0.6433 0.0041 0.0000
vt 0.5812 0.0041 0.0000
vt 0.5178 0.0041 0.0000
vt 0.0714 0.6197 0.0000
vt 0.0917 0.6013 0.0000
vt 0.0391 0.6006 0.0000
vt 0.0581 0.5767 0.0000
vt 0.0488 0.6664 0.0000
vt 0.0128 0.6621 0.0000
vt 0.0888 0.7594 0.0000
vt 0.0694 0.7397 0.0000
vt 0.0556 0.7813 0.0000
vt 0.0376 0.7584 0.0000
vt 0.0569 0.6416 0.0000
vt 0.0225 0.6290 0.0000
vt 0.0280 0.9325 0.0000
vt 0.0203 0.9200 0.0000
vt 0.0134 0.9059 0.0000
vt 0.0100 0.8900 0.0000
vt 0.0114 0.8742 0.0000
vt 0.0151 0.8599 0.0000
vt 0.0180 0.8469 0.0000
vt 0.7108 0.9217 0.0000
# 425 texture coords

g Mesh_806
usemtl Tex_0061_0_dds
s 2375
f 1/1/1 2/2/1 3/3/2 
s 2376
f 1/1/1 4/4/1 2/2/1 
s 2377
f 1/1/1 5/5/2 4/4/1 
s 2378
f 1/1/1 6/6/1 5/5/2 
s 2379
f 7/7/3 8/8/4 9/9/3 
s 2380
f 7/7/3 10/10/4 8/8/4 
s 2381
f 7/7/3 11/11/4 10/10/4 
s 2382
f 7/7/3 12/12/4 11/11/4 
s 2383
f 11/13/5 1/14/5 3/15/5 
s 2384
f 1/14/5 11/13/5 12/16/5 
s 2385
f 4/17/6 9/18/6 8/19/6 
s 2386
f 9/18/6 4/17/6 5/20/6 
s 2387
f 2/21/7 8/19/7 10/22/7 
s 2388
f 8/19/7 2/21/7 4/17/7 
s 2389
f 6/23/8 12/16/8 7/24/8 
s 2390
f 12/16/8 6/23/8 1/14/8 
s 2391
f 3/15/9 10/22/9 11/13/9 
s 2392
f 10/22/9 3/15/9 2/21/9 
s 2393
f 5/25/10 7/24/10 9/26/10 
s 2394
f 7/24/10 5/25/10 6/23/10 
s 2395
f 13/27/11 14/28/11 15/29/11 
s 2396
f 14/28/11 13/27/11 16/30/11 
s 2397
f 17/31/12 15/32/12 18/33/12 
s 2398
f 15/32/12 17/31/12 13/34/12 
s 2399
f 19/35/13 20/36/14 21/37/15 
s 2400
f 20/36/14 19/35/13 22/38/16 
s 2401
f 21/37/15 23/39/9 24/40/9 
s 2402
f 23/39/9 21/37/15 25/41/17 
s 2403
f 21/37/15 20/36/14 25/41/17 
s 2404
f 26/42/18 25/41/17 20/36/14 
s 2405
f 25/41/17 26/42/18 27/43/19 
s 2406
f 27/43/19 26/42/18 28/44/20 
s 2407
f 28/44/20 29/45/9 27/43/19 
s 2408
f 29/45/9 28/44/20 30/46/9 
s 2409
f 31/47/9 32/48/21 33/49/9 
s 2410
f 32/48/21 31/47/9 34/50/22 
s 2411
f 34/50/22 35/51/23 32/48/21 
s 2412
f 34/50/22 26/42/18 35/51/23 
s 2413
f 26/42/18 34/50/22 28/44/20 
s 2414
f 36/52/24 35/51/23 37/53/25 
s 2415
f 35/51/23 36/52/24 32/48/21 
s 2416
f 38/54/9 39/55/26 40/56/27 
s 2417
f 40/56/27 39/55/26 41/57/28 
s 2418
f 39/55/26 37/53/25 41/57/28 
s 2419
f 37/53/25 39/55/26 42/58/29 
s 2420
f 42/58/29 36/52/24 37/53/25 
s 2421
f 43/59/9 36/52/24 42/58/29 
s 2422
f 36/52/24 43/59/9 44/60/9 
s 2423
f 39/55/26 38/54/9 45/61/9 
s 2424
f 46/62/9 47/63/30 48/64/9 
s 2425
f 47/63/30 46/62/9 49/65/31 
s 2426
f 47/63/30 49/65/31 50/66/32 
s 2427
f 40/56/27 50/66/32 49/65/31 
s 2428
f 50/66/32 40/56/27 41/57/28 
s 2429
f 47/63/30 51/67/33 52/68/34 
s 2430
f 51/67/33 47/63/30 50/66/32 
s 2431
f 53/69/35 54/70/36 55/71/37 
s 2432
f 54/70/36 53/69/35 51/67/33 
s 2433
f 53/69/35 52/68/34 51/67/33 
s 2434
f 53/69/35 56/72/9 52/68/34 
s 2435
f 56/72/9 53/69/35 57/73/9 
s 2436
f 58/74/38 59/75/39 60/76/40 
s 2437
f 60/76/40 61/77/41 58/74/38 
s 2438
f 61/77/41 54/70/36 58/74/38 
s 2439
f 54/70/36 61/77/41 62/78/42 
s 2440
f 55/71/37 54/70/36 62/78/42 
s 2441
f 63/79/9 55/71/37 62/78/42 
s 2442
f 55/71/37 63/79/9 64/80/9 
s 2443
f 61/77/41 65/81/9 66/82/9 
s 2444
f 65/81/9 61/77/41 60/76/40 
s 2445
f 67/83/9 59/75/39 68/84/43 
s 2446
f 59/75/39 67/83/9 69/85/9 
s 2447
f 70/86/9 19/35/13 71/87/9 
s 2448
f 19/35/13 70/86/9 72/88/44 
s 2449
f 19/35/13 72/88/44 22/38/16 
s 2450
f 73/89/45 22/38/16 72/88/44 
s 2451
f 22/38/16 73/89/45 74/90/46 
s 2452
f 75/91/47 74/90/46 73/89/45 
s 2453
f 75/91/47 76/92/48 74/90/46 
s 2454
f 76/92/48 75/91/47 68/84/43 
s 2455
f 68/84/43 59/75/39 76/92/48 
s 2456
f 59/75/39 58/74/38 76/92/48 
s 2457
f 77/93/9 73/89/45 78/94/9 
s 2458
f 73/89/45 77/93/9 75/91/47 
s 2459
f 64/95/49 79/96/49 80/97/49 
s 2460
f 79/96/49 64/95/49 63/98/49 
s 2461
f 56/99/50 81/100/50 82/101/50 
s 2462
f 81/100/50 56/99/50 57/102/50 
s 2463
f 46/103/51 83/104/51 84/105/51 
s 2464
f 83/104/51 46/103/51 48/106/51 
s 2465
f 45/107/52 85/108/52 86/109/52 
s 2466
f 85/108/52 45/107/52 38/110/52 
s 2467
f 44/111/53 87/112/53 88/113/53 
s 2468
f 87/112/53 44/111/53 43/114/53 
s 2469
f 31/115/54 89/116/54 90/117/54 
s 2470
f 89/116/54 31/115/54 33/118/54 
s 2471
f 29/119/55 91/120/55 92/121/55 
s 2472
f 91/120/55 29/119/55 30/122/55 
s 2473
f 24/123/56 93/124/56 94/125/56 
s 2474
f 93/124/56 24/123/56 23/126/56 
s 2475
f 70/127/57 95/128/57 96/129/57 
s 2476
f 95/128/57 70/127/57 71/130/57 
s 2477
f 77/131/58 97/132/58 98/133/58 
s 2478
f 97/132/58 77/131/58 78/134/58 
s 2479
f 69/135/59 99/136/59 100/137/59 
s 2480
f 99/136/59 69/135/59 67/138/59 
s 2481
f 66/139/60 101/140/60 102/141/60 
s 2482
f 101/140/60 66/139/60 65/142/60 
s 2483
f 95/128/61 19/143/61 103/144/61 
s 2484
f 19/143/61 95/128/61 71/130/61 
s 2485
f 70/127/62 104/145/62 72/146/62 
s 2486
f 104/145/62 70/127/62 96/129/62 
s 2487
f 56/99/63 105/147/63 52/148/63 
s 2488
f 105/147/63 56/99/63 82/101/63 
s 2489
f 81/100/64 53/149/64 106/150/64 
s 2490
f 53/149/64 81/100/64 57/102/64 
s 2491
f 87/112/65 42/151/65 107/152/65 
s 2492
f 42/151/65 87/112/65 43/114/65 
s 2493
f 44/111/66 108/153/66 36/154/66 
s 2494
f 108/153/66 44/111/66 88/113/66 
s 2495
f 31/115/67 109/155/67 34/156/67 
s 2496
f 109/155/67 31/115/67 90/117/67 
s 2497
f 89/116/68 32/157/68 110/158/68 
s 2498
f 32/157/68 89/116/68 33/118/68 
s 2499
f 99/136/66 68/159/66 111/160/66 
s 2500
f 68/159/66 99/136/66 67/138/66 
s 2501
f 69/135/69 112/161/69 59/162/69 
s 2502
f 112/161/69 69/135/69 100/137/69 
s 2503
f 91/120/70 28/163/70 113/164/70 
s 2504
f 28/163/70 91/120/70 30/122/70 
s 2505
f 29/119/71 114/165/71 27/166/71 
s 2506
f 114/165/71 29/119/71 92/121/71 
s 2507
f 24/123/72 115/167/72 21/168/72 
s 2508
f 115/167/72 24/123/72 94/125/72 
s 2509
f 93/124/73 25/169/73 116/170/73 
s 2510
f 25/169/73 93/124/73 23/126/73 
s 2511
f 97/132/74 73/171/74 117/172/74 
s 2512
f 73/171/74 97/132/74 78/134/74 
s 2513
f 77/131/75 118/173/75 75/174/75 
s 2514
f 118/173/75 77/131/75 98/133/75 
s 2515
f 101/140/76 60/175/76 119/176/76 
s 2516
f 60/175/76 101/140/76 65/142/76 
s 2517
f 66/139/77 120/177/77 61/178/77 
s 2518
f 120/177/77 66/139/77 102/141/77 
s 2519
f 83/104/62 47/179/62 121/180/62 
s 2520
f 47/179/62 83/104/62 48/106/62 
s 2521
f 46/103/61 122/181/61 49/182/61 
s 2522
f 122/181/61 46/103/61 84/105/61 
s 2523
f 45/107/74 123/183/74 39/184/74 
s 2524
f 123/183/74 45/107/74 86/109/74 
s 2525
f 85/108/75 40/185/75 124/186/75 
s 2526
f 40/185/75 85/108/75 38/110/75 
s 2527
f 64/95/78 125/187/78 55/188/78 
s 2528
f 125/187/78 64/95/78 80/97/78 
s 2529
f 79/96/71 62/189/71 126/190/71 
s 2530
f 62/189/71 79/96/71 63/98/71 
s 2531
f 112/161/79 60/175/79 59/162/79 
s 2532
f 60/175/79 112/161/79 119/176/79 
s 2533
f 120/177/80 62/189/80 61/178/80 
s 2534
f 62/189/80 120/177/80 126/190/80 
s 2535
f 125/187/81 53/149/81 55/188/81 
s 2536
f 53/149/81 125/187/81 106/150/81 
s 2537
f 105/147/82 47/179/82 52/148/82 
s 2538
f 47/179/82 105/147/82 121/180/82 
s 2539
f 122/181/83 40/191/83 49/182/83 
s 2540
f 40/191/83 122/181/83 124/192/83 
s 2541
f 123/183/84 42/151/84 39/184/84 
s 2542
f 42/151/84 123/183/84 107/152/84 
s 2543
f 108/153/85 32/157/85 36/154/85 
s 2544
f 32/157/85 108/153/85 110/158/85 
s 2545
f 109/155/86 28/163/86 34/156/86 
s 2546
f 28/163/86 109/155/86 113/164/86 
s 2547
f 114/165/87 25/169/87 27/166/87 
s 2548
f 25/169/87 114/165/87 116/170/87 
s 2549
f 115/167/88 19/143/88 21/168/88 
s 2550
f 19/143/88 115/167/88 103/144/88 
s 2551
f 104/145/89 73/171/89 72/146/89 
s 2552
f 73/171/89 104/145/89 117/172/89 
s 2553
f 118/193/90 68/159/90 75/194/90 
s 2554
f 68/159/90 118/193/90 111/160/90 
s 2555
f 127/195/9 128/196/9 129/197/9 
s 2556
f 127/195/9 130/198/9 128/196/9 
s 2557
f 127/195/9 131/199/9 130/198/9 
s 2558
f 127/195/9 132/200/9 131/199/9 
s 2559
f 127/195/9 133/201/9 132/200/9 
s 2560
f 127/195/9 134/202/9 133/201/9 
s 2561
f 127/195/9 135/203/9 134/202/9 
s 2562
f 127/195/9 136/204/9 135/203/9 
s 2563
f 127/195/9 137/205/9 136/204/9 
s 2564
f 127/195/9 138/206/9 137/205/9 
s 2565
f 139/207/91 140/208/92 141/209/91 
s 2566
f 140/208/92 139/207/91 142/210/93 
s 2567
f 142/210/93 143/211/94 140/208/92 
s 2568
f 143/211/94 142/210/93 144/212/95 
s 2569
f 144/212/95 145/213/96 143/211/94 
s 2570
f 145/213/96 144/212/95 146/214/97 
s 2571
f 146/214/97 147/215/98 145/213/96 
s 2572
f 147/215/98 146/214/97 148/216/99 
s 2573
f 148/216/99 149/217/100 147/215/98 
s 2574
f 149/217/100 148/216/99 150/218/101 
s 2575
f 151/219/102 149/217/100 150/218/101 
s 2576
f 149/217/100 151/219/102 152/220/102 
s 2577
f 151/219/102 153/221/103 152/220/102 
s 2578
f 153/221/103 151/219/102 154/222/103 
s 2580
f 154/223/104 155/224/105 153/225/104 
s 2581
f 155/224/105 154/223/104 156/226/106 
s 2582
f 156/226/106 157/227/107 155/224/105 
s 2583
f 157/227/107 156/226/106 158/228/107 
s 2584
f 159/229/108 157/227/107 158/228/107 
s 2585
f 157/227/107 159/229/108 160/230/108 
s 2586
f 161/231/109 160/230/108 159/229/108 
s 2587
f 160/230/108 161/231/109 162/232/109 
s 2588
f 139/207/91 162/232/109 161/231/109 
s 2589
f 162/232/109 139/207/91 141/209/91 
s 2617
f 163/233/110 155/224/111 157/227/112 
s 2618
f 155/224/111 163/233/110 164/234/113 
s 2619
f 165/235/114 155/224/111 164/234/113 
s 2620
f 155/224/111 165/235/114 153/225/114 
s 2621
f 166/236/115 143/211/116 167/237/117 
s 2622
f 143/211/116 166/236/115 140/208/118 
s 2623
f 168/238/119 140/208/118 166/236/115 
s 2624
f 140/208/118 168/238/119 141/209/120 
s 2625
f 168/238/119 162/232/121 141/209/120 
s 2626
f 162/232/121 168/238/119 169/239/122 
s 2627
f 169/239/122 160/230/123 162/232/121 
s 2628
f 160/230/123 169/239/122 170/240/124 
s 2629
f 163/233/110 160/230/123 170/240/124 
s 2630
f 160/230/123 163/233/110 157/227/112 
s 2631
f 171/241/125 153/221/126 165/242/126 
s 2632
f 153/221/126 171/241/125 152/220/127 
s 2633
f 171/241/125 149/217/128 152/220/127 
s 2634
f 149/217/128 171/241/125 172/243/129 
s 2635
f 172/243/129 147/215/130 149/217/128 
s 2636
f 147/215/130 172/243/129 173/244/131 
s 2637
f 174/245/132 147/215/130 173/244/131 
s 2638
f 147/215/130 174/245/132 145/213/133 
s 2639
f 174/245/132 143/211/116 145/213/133 
s 2640
f 143/211/116 174/245/132 167/237/117 
s 2641
f 175/246/134 176/247/135 177/248/136 
s 2642
f 176/247/135 175/246/134 178/249/137 
s 2643
f 178/249/137 179/250/138 176/247/135 
s 2644
f 179/250/138 178/249/137 180/251/139 
s 2645
f 181/252/140 180/251/139 178/249/137 
s 2646
f 178/249/137 182/253/141 181/252/140 
s 2647
f 182/253/141 178/249/137 175/246/134 
s 2648
f 175/246/134 183/254/142 182/253/141 
s 2649
f 183/254/142 175/246/134 184/255/143 
s 2650
f 177/248/136 184/255/143 175/246/134 
s 2651
f 184/255/143 177/248/136 185/256/144 
s 2652
f 186/257/4 185/256/144 177/248/136 
s 2653
f 185/256/144 186/257/4 187/258/145 
s 2654
f 188/259/146 183/254/142 189/260/147 
s 2655
f 183/254/142 188/259/146 182/253/141 
s 2656
f 190/261/148 182/253/141 188/259/146 
s 2657
f 182/253/141 190/261/148 181/252/140 
s 2658
f 190/261/148 191/262/149 181/252/140 
s 2659
f 180/251/139 181/252/140 191/262/149 
s 2660
f 191/262/149 192/263/150 180/251/139 
s 2661
f 192/263/150 179/250/138 180/251/139 
s 2662
f 179/250/138 192/263/150 193/264/151 
s 2663
f 194/265/152 195/266/153 192/263/150 
s 2664
f 192/263/150 191/262/149 194/265/152 
s 2665
f 196/267/154 194/265/152 191/262/149 
s 2666
f 191/262/149 190/261/148 196/267/154 
s 2667
f 197/268/155 196/267/154 190/261/148 
s 2668
f 190/261/148 198/269/156 197/268/155 
s 2669
f 198/269/156 190/261/148 188/259/146 
s 2670
f 188/259/146 199/270/157 198/269/156 
s 2671
f 199/270/157 188/259/146 189/260/147 
s 2672
f 189/260/147 200/271/9 199/270/157 
s 2673
f 196/267/154 197/268/155 201/272/158 
s 2674
f 201/272/158 202/273/159 196/267/154 
s 2675
f 194/265/152 196/267/154 202/273/159 
s 2676
f 202/273/159 203/274/160 194/265/152 
s 2677
f 195/266/153 194/265/152 203/274/160 
s 2678
f 203/274/160 202/273/159 204/275/161 
s 2679
f 205/276/162 204/275/161 202/273/159 
s 2680
f 202/273/159 201/272/158 205/276/162 
s 2681
f 204/275/161 205/276/162 200/277/163 
s 2682
f 177/248/136 206/278/164 186/257/4 
s 2683
f 206/278/164 177/248/136 176/247/135 
s 2684
f 176/247/135 207/279/165 206/278/164 
s 2685
f 207/279/165 176/247/135 179/250/138 
s 2686
f 179/250/138 208/280/2 207/279/165 
s 2687
f 208/280/2 179/250/138 193/264/151 
s 2688
f 193/264/151 209/281/166 208/280/2 
s 2689
f 209/281/166 193/264/151 210/282/167 
s 2690
f 193/264/151 195/266/153 210/282/167 
s 2691
f 195/266/153 193/264/151 192/263/150 
s 3485
f 200/271/9 189/260/147 204/283/168 
s 3486
f 183/254/142 204/283/168 189/260/147 
s 3487
f 204/283/168 183/254/142 203/284/169 
s 3488
f 184/255/143 203/284/169 183/254/142 
s 3489
f 203/284/169 184/255/143 195/285/170 
s 3490
f 185/256/144 195/285/170 184/255/143 
s 3491
f 195/285/170 185/256/144 210/286/171 
s 3492
f 187/258/145 210/286/171 185/256/144 
s 3493
f 210/286/171 187/258/145 209/287/10 
s 3545
f 211/288/172 212/289/173 213/290/173 
s 3546
f 212/289/173 211/288/172 214/291/172 
s 3547
f 211/288/172 215/292/174 214/291/172 
s 3548
f 16/30/175 18/33/175 14/28/175 
s 3549
f 18/33/175 16/30/175 17/31/175 
s 3834
f 216/293/176 217/294/177 218/295/178 
s 3835
f 217/294/177 216/293/176 219/296/179 
s 3836
f 219/296/179 220/297/180 217/294/177 
s 3837
f 220/297/180 219/296/179 221/298/91 
s 3838
f 221/298/91 222/299/181 220/297/180 
s 3839
f 222/299/181 221/298/91 223/300/182 
s 3840
f 223/300/182 224/301/183 222/299/181 
s 3841
f 224/301/183 223/300/182 225/302/183 
s 3842
f 225/302/183 226/303/184 224/301/183 
s 3843
f 226/303/184 225/302/183 227/304/184 
s 3844
f 227/304/184 228/305/185 226/303/184 
s 3845
f 228/305/185 227/304/184 229/306/186 
s 3846
f 226/303/184 164/234/187 163/233/184 
s 3847
f 164/234/187 226/303/184 228/305/185 
s 3848
f 228/305/185 165/235/188 164/234/187 
s 3849
f 165/235/188 228/305/185 230/307/188 
s 3850
f 229/306/186 230/307/188 228/305/185 
s 3851
f 230/307/188 229/306/186 231/308/188 
s 3852
f 218/295/178 166/236/189 167/237/190 
s 3853
f 166/236/189 218/295/178 217/294/177 
s 3854
f 217/294/177 168/238/191 166/236/189 
s 3855
f 168/238/191 217/294/177 220/297/180 
s 3856
f 220/297/180 169/239/192 168/238/191 
s 3857
f 169/239/192 220/297/180 222/299/181 
s 3858
f 222/299/181 170/240/193 169/239/192 
s 3859
f 170/240/193 222/299/181 224/301/183 
s 3860
f 224/301/183 163/233/184 170/240/193 
s 3861
f 163/233/184 224/301/183 226/303/184 
s 3865
f 231/309/194 232/310/195 230/311/194 
s 3866
f 232/310/195 231/309/194 233/312/102 
s 3867
f 233/312/102 234/313/196 232/310/195 
s 3868
f 234/313/196 233/312/102 235/314/197 
s 3869
f 235/314/197 236/315/198 234/313/196 
s 3870
f 236/315/198 235/314/197 237/316/199 
s 3871
f 237/316/199 238/317/200 236/315/198 
s 3872
f 238/317/200 237/316/199 239/318/200 
s 3873
f 239/318/200 218/295/178 238/317/200 
s 3874
f 218/295/178 239/318/200 216/293/176 
s 3875
f 230/311/194 171/241/201 165/242/194 
s 3876
f 171/241/201 230/311/194 232/310/195 
s 3877
f 232/310/195 172/243/202 171/241/201 
s 3878
f 172/243/202 232/310/195 234/313/196 
s 3879
f 234/313/196 173/244/198 172/243/202 
s 3880
f 173/244/198 234/313/196 236/315/198 
s 3881
f 236/315/198 174/245/203 173/244/198 
s 3882
f 174/245/203 236/315/198 238/317/200 
s 3883
f 238/317/200 167/237/190 174/245/203 
s 3884
f 167/237/190 238/317/200 218/295/178 
s 3885
f 240/319/204 241/320/205 242/321/206 
s 3886
f 241/320/205 240/319/204 243/322/207 
s 3887
f 244/323/208 243/322/207 240/319/204 
s 3888
f 243/322/207 244/323/208 245/324/209 
s 3889
f 246/325/210 245/324/209 244/323/208 
s 3890
f 244/323/208 247/326/211 246/325/210 
s 3891
f 247/326/211 244/323/208 248/327/212 
s 3892
f 240/319/204 248/327/212 244/323/208 
s 3893
f 248/327/212 240/319/204 249/328/213 
s 3894
f 242/321/206 249/328/213 240/319/204 
s 3895
f 249/328/213 242/321/206 250/329/214 
s 3896
f 251/330/215 250/329/214 242/321/206 
s 3897
f 250/329/214 251/330/215 252/331/216 
s 3898
f 253/332/217 247/326/211 254/333/218 
s 3899
f 248/327/212 254/333/218 247/326/211 
s 3900
f 254/333/218 248/327/212 255/334/219 
s 3901
f 249/328/213 255/334/219 248/327/212 
s 3902
f 255/334/219 249/328/213 256/335/220 
s 3903
f 250/329/214 256/335/220 249/328/213 
s 3904
f 256/335/220 250/329/214 257/336/221 
s 3905
f 252/331/216 257/336/221 250/329/214 
s 3906
f 257/336/221 252/331/216 258/337/222 
s 3907
f 252/331/216 259/338/223 258/337/222 
s 3908
f 242/321/206 260/339/224 251/330/215 
s 3909
f 260/339/224 242/321/206 241/320/205 
s 3910
f 261/340/225 260/339/224 241/320/205 
s 3911
f 260/339/224 261/340/225 262/341/226 
s 3912
f 263/342/227 264/343/228 265/344/229 
s 3913
f 265/344/229 266/345/230 263/342/227 
s 3914
f 267/346/231 263/342/227 266/345/230 
s 3915
f 266/345/230 268/347/232 267/346/231 
s 3916
f 268/347/232 269/348/233 267/346/231 
s 3917
f 269/348/233 268/347/232 270/349/234 
s 3918
f 270/349/234 261/340/225 269/348/233 
s 3919
f 261/340/225 270/349/234 271/350/235 
s 3920
f 271/350/235 262/341/226 261/340/225 
s 3921
f 262/341/226 271/350/235 272/351/236 
s 3922
f 266/345/230 265/344/229 273/352/237 
s 3923
f 273/352/237 274/353/238 266/345/230 
s 3924
f 268/347/232 266/345/230 274/353/238 
s 3925
f 274/353/238 275/354/239 268/347/232 
s 3926
f 275/354/239 270/349/234 268/347/232 
s 3927
f 270/349/234 275/354/239 276/355/240 
s 3928
f 276/355/240 271/350/235 270/349/234 
s 3929
f 271/350/235 276/355/240 277/356/241 
s 3930
f 256/357/242 277/356/241 276/355/240 
s 3931
f 277/356/241 256/357/242 257/358/243 
s 3932
f 277/356/241 272/351/236 271/350/235 
s 3933
f 272/351/236 277/356/241 278/359/244 
s 3934
f 257/358/243 278/359/244 277/356/241 
s 3935
f 278/359/244 257/358/243 258/360/245 
s 3936
f 254/361/246 279/362/247 253/363/248 
s 3937
f 279/362/247 254/361/246 280/364/249 
s 3938
f 255/365/250 280/364/249 254/361/246 
s 3939
f 280/364/249 255/365/250 275/354/239 
s 3940
f 255/365/250 276/355/240 275/354/239 
s 3941
f 276/355/240 255/365/250 256/357/242 
s 3942
f 280/364/249 281/366/251 279/362/247 
s 3943
f 281/366/251 280/364/249 274/353/238 
s 3944
f 275/354/239 274/353/238 280/364/249 
s 3945
f 274/353/238 273/352/237 281/366/251 
s 3974
f 22/367/252 282/368/253 20/369/253 
s 3975
f 282/368/253 22/367/252 283/370/252 
s 3976
f 74/371/254 283/370/252 22/367/252 
s 3977
f 283/370/252 74/371/254 284/372/254 
s 3978
f 41/373/255 285/374/256 50/375/256 
s 3979
f 285/374/256 41/373/255 286/376/255 
s 3980
f 37/377/257 286/376/255 41/373/255 
s 3981
f 286/376/255 37/377/257 287/378/257 
s 3982
f 35/379/258 287/378/257 37/377/257 
s 3983
f 287/378/257 35/379/258 288/380/258 
s 3984
f 26/381/259 288/380/258 35/379/258 
s 3985
f 288/380/258 26/381/259 289/382/259 
s 3986
f 20/369/253 289/382/259 26/381/259 
s 3987
f 289/382/259 20/369/253 282/368/253 
s 3988
f 76/383/260 284/384/261 74/385/261 
s 3989
f 284/384/261 76/383/260 290/386/260 
s 3990
f 58/387/262 290/386/260 76/383/260 
s 3991
f 290/386/260 58/387/262 291/388/262 
s 3992
f 54/389/263 291/388/262 58/387/262 
s 3993
f 291/388/262 54/389/263 292/390/263 
s 3994
f 51/391/264 292/390/263 54/389/263 
s 3995
f 292/390/263 51/391/264 293/392/264 
s 3996
f 50/375/256 293/392/264 51/391/264 
s 3997
f 293/392/264 50/375/256 285/374/256 
s 3998
f 131/393/265 150/218/266 130/394/267 
s 3999
f 150/218/266 131/393/265 151/219/268 
s 4000
f 132/395/269 151/219/268 131/393/265 
s 4001
f 151/219/268 132/395/269 154/222/269 
s 4002
f 138/396/270 139/207/271 137/397/272 
s 4003
f 139/207/271 138/396/270 142/210/273 
s 4004
f 127/398/274 142/210/273 138/396/270 
s 4005
f 142/210/273 127/398/274 144/212/275 
s 4006
f 129/399/276 144/212/275 127/398/274 
s 4007
f 144/212/275 129/399/276 146/214/277 
s 4008
f 128/400/278 146/214/277 129/399/276 
s 4009
f 146/214/277 128/400/278 148/216/279 
s 4010
f 130/394/267 148/216/279 128/400/278 
s 4011
f 148/216/279 130/394/267 150/218/266 
s 4012
f 133/401/280 154/223/281 132/402/281 
s 4013
f 154/223/281 133/401/280 156/226/282 
s 4014
f 134/403/283 156/226/282 133/401/280 
s 4015
f 156/226/282 134/403/283 158/228/284 
s 4016
f 135/404/285 158/228/284 134/403/283 
s 4017
f 158/228/284 135/404/285 159/229/286 
s 4018
f 136/405/287 159/229/286 135/404/285 
s 4019
f 159/229/286 136/405/287 161/231/288 
s 4020
f 137/397/272 161/231/288 136/405/287 
s 4021
f 161/231/288 137/397/272 139/207/271 
s 4328
f 294/406/289 215/292/290 295/407/289 
s 4329
f 295/407/289 296/408/291 294/406/289 
s 4330
f 296/408/291 295/407/289 297/409/291 
s 4363
f 214/291/292 215/292/293 298/410/292 
s 4364
f 298/410/292 212/289/294 214/291/292 
s 4365
f 212/289/294 298/410/292 299/411/294 
s 4414
f 295/412/295 215/292/296 300/413/295 
s 4415
f 300/413/295 297/414/297 295/412/295 
s 4416
f 297/414/297 300/413/295 301/415/297 
s 4433
f 298/410/298 215/292/299 302/416/298 
s 4434
f 302/416/298 299/411/300 298/410/298 
s 4435
f 299/411/300 302/416/298 303/417/300 
s 4436
f 259/338/223 252/331/216 304/418/301 
s 4437
f 251/330/215 304/418/301 252/331/216 
s 4438
f 304/418/301 251/330/215 305/419/302 
s 4439
f 260/339/224 305/419/302 251/330/215 
s 4440
f 305/419/302 260/339/224 306/420/303 
s 4441
f 262/341/226 306/420/303 260/339/224 
s 4442
f 306/420/303 262/341/226 307/421/304 
s 4443
f 272/351/236 307/421/304 262/341/226 
s 4444
f 307/421/304 272/351/236 308/422/305 
s 4445
f 278/359/244 308/422/305 272/351/236 
s 4446
f 308/422/305 278/359/244 309/423/306 
s 4447
f 258/360/245 309/423/306 278/359/244 
s 4448
f 309/423/306 258/360/245 259/424/307 
s 4449
f 300/413/308 215/292/309 211/288/308 
s 4450
f 211/288/308 301/415/310 300/413/308 
s 4451
f 301/415/310 211/288/308 213/290/310 
s 4452
f 241/320/205 269/348/233 261/340/225 
s 4453
f 269/348/233 241/320/205 243/322/207 
s 4454
f 243/322/207 267/346/231 269/348/233 
s 4455
f 267/346/231 243/322/207 245/324/209 
s 4456
f 263/342/227 267/346/231 245/324/209 
s 4457
f 245/324/209 246/325/210 263/342/227 
s 4458
f 264/343/228 263/342/227 246/325/210 
s 4459
f 246/325/210 310/425/311 264/343/228 
s 4460
f 310/425/311 246/325/210 247/326/211 
s 4461
f 247/326/211 253/332/217 310/425/311 
s 4462
f 302/416/312 215/292/313 294/406/312 
s 4463
f 294/406/312 303/417/314 302/416/312 
s 4464
f 303/417/314 294/406/312 296/408/314 
# 0 polygons - 501 triangles