# Blender v2.82 (sub 7) OBJ File: ''
# www.blender.org
mtllib chair_01.mtl
o chair_01Shape_0
v -0.131982 0.441943 -0.151893
v -0.104256 0.444342 -0.151950
v -0.103769 0.436314 -0.078329
v -0.137988 0.841760 0.073833
v -0.132593 0.780787 0.166334
v -0.123662 0.827832 0.071533
v -0.118025 0.762457 0.156683
v -0.131097 0.763290 0.178124
v -0.122733 0.819254 0.039971
v -0.129676 0.746941 0.180696
v -0.118813 0.621335 0.154835
v -0.104811 0.755418 -0.000066
v -0.103876 0.598684 0.135973
v -0.119879 0.816394 -0.000015
v -0.114594 0.573500 0.149524
v -0.122732 0.819254 -0.035373
v -0.118045 0.762457 -0.155999
v -0.103873 0.598684 -0.134929
v -0.090712 0.607651 -0.000059
v -0.090604 0.449808 0.076989
v -0.093505 0.456878 0.141483
v -0.104240 0.444342 0.152473
v -0.103767 0.436314 0.082930
v -0.123661 0.827832 -0.066958
v -0.089871 0.447137 -0.000060
v -0.090605 0.449808 -0.072377
v -0.103517 0.433386 -0.000053
v -0.118840 0.621335 -0.153815
v -0.114606 0.573500 -0.148537
v -0.093515 0.456878 -0.136873
v -0.103769 0.436314 -0.078329
v -0.104256 0.444342 -0.151950
v -0.129695 0.746941 -0.180015
v -0.132618 0.780787 -0.165684
v -0.137989 0.843012 -0.072759
v -0.131120 0.763290 -0.177397
v 0.259505 0.325194 -0.181959
v 0.279166 0.351448 -0.167506
v 0.279122 0.325173 -0.163870
v 0.259544 0.351469 -0.186845
v 0.277290 0.375150 -0.165870
v 0.257863 0.374975 -0.185046
v 0.232864 0.351496 -0.191664
v 0.259544 0.351469 -0.186845
v 0.231389 0.375003 -0.189868
v 0.254777 0.381848 -0.179535
v 0.259505 0.325194 -0.181959
v 0.230646 0.381484 -0.183716
v -0.079315 0.373021 -0.189854
v -0.077793 0.379502 -0.183689
v 0.232849 0.325221 -0.186836
v -0.080910 0.351823 -0.191673
v -0.093024 0.351835 -0.185199
v -0.091297 0.373033 -0.183487
v -0.080942 0.325548 -0.186786
v -0.087087 0.379902 -0.178749
v -0.093039 0.325560 -0.182711
v 0.232849 0.325221 -0.186836
v 0.259505 0.325194 -0.181959
v 0.256465 0.320012 -0.174298
v 0.232542 0.320034 -0.178690
v -0.079183 0.320356 -0.176353
v -0.080942 0.325548 -0.186786
v -0.093039 0.325560 -0.182711
v -0.090970 0.320366 -0.171161
v -0.102052 0.325570 -0.167457
v -0.093039 0.325560 -0.182711
v -0.090970 0.320366 -0.171161
v -0.097826 0.320330 -0.163432
v -0.167029 0.852353 0.002294
v -0.168735 0.872012 0.002323
v -0.168189 0.867156 -0.047478
v -0.166579 0.848532 -0.043020
v -0.165432 0.840641 -0.072741
v -0.167083 0.857580 -0.083062
v -0.159951 0.779720 -0.163802
v -0.161110 0.790689 -0.179922
v -0.159292 0.769572 -0.197355
v -0.158568 0.763899 -0.176792
v -0.157062 0.743912 -0.201210
v -0.156584 0.744489 -0.178191
v -0.146112 0.617116 -0.174332
v -0.147448 0.619262 -0.154446
v -0.141982 0.569226 -0.169303
v -0.143828 0.570161 -0.148731
v -0.131982 0.441943 -0.151893
v -0.131966 0.441568 -0.173207
v -0.129252 0.375693 -0.155617
v -0.130016 0.375626 -0.177282
v -0.131175 0.320475 -0.176149
v -0.131141 0.320367 -0.155336
v -0.159292 0.769572 -0.197355
v -0.161110 0.790689 -0.179922
v -0.133692 0.793058 -0.179872
v -0.131856 0.771943 -0.197374
v -0.129651 0.746281 -0.201162
v -0.157062 0.743912 -0.201210
v -0.146112 0.617116 -0.174332
v -0.118672 0.619487 -0.174340
v -0.141982 0.569226 -0.169303
v -0.114652 0.571590 -0.169283
v -0.131966 0.441568 -0.173207
v -0.104857 0.443910 -0.173189
v -0.103244 0.375598 -0.177256
v -0.130016 0.375626 -0.177282
v -0.102804 0.320383 -0.176115
v -0.131175 0.320475 -0.176149
v -0.102888 0.306863 -0.176507
v -0.131184 0.306900 -0.176301
v -0.131175 0.320475 -0.176149
v -0.102804 0.320383 -0.176115
v -0.079183 0.320356 -0.176353
v 0.232971 0.306406 -0.179186
v 0.232542 0.320034 -0.178690
v 0.256233 0.306569 -0.174520
v 0.256465 0.320012 -0.174298
v 0.273652 0.306739 -0.157231
v 0.256465 0.320012 -0.174298
v 0.273448 0.319997 -0.157533
v 0.273652 0.306739 -0.157231
v 0.273448 0.319997 -0.157533
v 0.273288 0.319952 0.002277
v 0.273679 0.306931 0.002277
v -0.131184 0.306900 -0.176301
v -0.131141 0.320367 -0.155336
v -0.131175 0.320475 -0.176149
v -0.131152 0.306862 -0.153800
v -0.131124 0.320358 0.002284
v -0.131138 0.306862 0.002284
v -0.102367 0.320337 -0.155449
v -0.102280 0.375665 -0.155729
v -0.131141 0.320367 -0.155336
v -0.129252 0.375693 -0.155617
v -0.131982 0.441943 -0.151893
v -0.104256 0.444342 -0.151950
v 0.273679 0.306931 0.002277
v 0.264257 0.306929 0.002281
v 0.264286 0.306681 -0.147942
v 0.273652 0.306739 -0.157231
v 0.251570 0.306547 -0.161324
v 0.256233 0.306569 -0.174520
v 0.232971 0.306406 -0.179186
v 0.233160 0.306444 -0.163278
v -0.102888 0.306863 -0.176507
v -0.113272 0.306859 -0.162330
v -0.131184 0.306900 -0.176301
v -0.131152 0.306862 -0.153800
v -0.113382 0.306859 0.002319
v -0.131138 0.306862 0.002284
v -0.131141 0.320367 -0.155336
v -0.131124 0.320358 0.002284
v -0.102367 0.320337 -0.155449
v -0.097815 0.320330 0.002288
v -0.097826 0.320330 -0.163432
v -0.102804 0.320383 -0.176115
v -0.090970 0.320366 -0.171161
v -0.079183 0.320356 -0.176353
v 0.264257 0.306929 0.002281
v 0.263978 0.306689 0.154827
v 0.264256 0.310824 0.002279
v 0.263982 0.310581 0.154827
v 0.263978 0.306689 0.154827
v 0.251688 0.306577 0.166851
v 0.263982 0.310581 0.154827
v 0.251685 0.310469 0.166849
v 0.233184 0.306443 0.168951
v 0.233188 0.310336 0.168951
v -0.113367 0.306854 0.167673
v -0.113363 0.310747 0.167673
v -0.113367 0.306854 0.167673
v -0.113382 0.306859 0.002319
v -0.113363 0.310747 0.167673
v -0.113378 0.310751 0.002319
v -0.113382 0.306859 0.002319
v -0.113272 0.306859 -0.162330
v -0.113378 0.310751 0.002319
v -0.113268 0.310751 -0.162330
v -0.113272 0.306859 -0.162330
v 0.233160 0.306444 -0.163278
v -0.113268 0.310751 -0.162330
v 0.233160 0.310336 -0.163279
v 0.251570 0.306547 -0.161324
v 0.251567 0.310442 -0.161327
v 0.251570 0.306547 -0.161324
v 0.264286 0.306681 -0.147942
v 0.251567 0.310442 -0.161327
v 0.264282 0.310574 -0.147945
v 0.264257 0.306929 0.002281
v 0.264256 0.310824 0.002279
v -0.164511 0.830600 -0.037870
v -0.165432 0.840641 -0.072741
v -0.159951 0.779720 -0.163802
v -0.154561 0.762942 -0.000062
v -0.164230 0.827312 -0.000029
v -0.158568 0.763899 -0.176792
v -0.164519 0.830600 0.042495
v -0.156584 0.744489 -0.178191
v -0.159728 0.778465 0.166530
v -0.165419 0.839388 0.073840
v -0.158554 0.761381 0.177701
v -0.157007 0.745312 0.179363
v -0.141832 0.642654 -0.078314
v -0.141819 0.642431 0.082951
v -0.140570 0.649932 -0.000042
v -0.147448 0.619262 -0.154446
v -0.134181 0.555313 -0.000019
v -0.147121 0.618267 0.154537
v -0.135423 0.560200 -0.078292
v -0.143828 0.570161 -0.148731
v -0.135405 0.560312 0.082897
v -0.143403 0.570510 0.148901
v -0.131982 0.441943 -0.151893
v -0.131034 0.431397 -0.078324
v -0.130775 0.428470 -0.000046
v -0.131032 0.431397 0.082934
v -0.131979 0.441943 0.152450
v -0.101183 0.322521 0.206919
v -0.101168 0.322521 0.183343
v -0.110092 0.304198 0.206893
v -0.110107 0.304198 0.183386
v -0.115076 0.284553 0.206914
v -0.115060 0.284553 0.183338
v -0.067380 0.344746 0.206872
v -0.067396 0.344746 0.183363
v -0.085341 0.335745 0.206913
v -0.085325 0.335745 0.183337
v -0.101183 0.322521 0.206919
v -0.101168 0.322521 0.183343
v -0.115370 0.002613 0.206914
v -0.115076 0.284553 0.206914
v -0.115354 0.002613 0.183338
v -0.115060 0.284553 0.183338
v -0.067396 0.344746 0.183363
v -0.067380 0.344746 0.206872
v 0.227258 0.344440 0.183356
v 0.227267 0.344440 0.206862
v -0.082430 0.307677 0.183387
v -0.082420 0.307677 0.206893
v -0.088487 0.295523 0.206874
v -0.088493 0.295523 0.183366
v -0.090614 0.282048 0.206908
v -0.090602 0.282048 0.183341
v -0.090782 0.002588 0.183381
v -0.090772 0.002588 0.206887
v -0.082430 0.307677 0.183387
v -0.088493 0.295523 0.183366
v -0.101168 0.322521 0.183343
v -0.110107 0.304198 0.183386
v -0.115060 0.284553 0.183338
v -0.090602 0.282048 0.183341
v -0.082420 0.307677 0.206893
v -0.101183 0.322521 0.206919
v -0.088487 0.295523 0.206874
v -0.110092 0.304198 0.206893
v -0.090614 0.282048 0.206908
v -0.115076 0.284553 0.206914
v -0.062126 0.320733 0.183396
v -0.073307 0.316315 0.183339
v -0.067396 0.344746 0.183363
v -0.085325 0.335745 0.183337
v -0.101168 0.322521 0.183343
v -0.082430 0.307677 0.183387
v -0.062116 0.320733 0.206901
v -0.067380 0.344746 0.206872
v -0.073323 0.316315 0.206914
v -0.085341 0.335745 0.206913
v -0.082420 0.307677 0.206893
v -0.101183 0.322521 0.206919
v -0.090614 0.282048 0.206908
v -0.115076 0.284553 0.206914
v -0.090772 0.002588 0.206887
v -0.115370 0.002613 0.206914
v -0.090772 0.002588 0.206887
v -0.115370 0.002613 0.206914
v -0.090782 0.002588 0.183381
v -0.115354 0.002613 0.183338
v -0.090602 0.282048 0.183341
v -0.090782 0.002588 0.183381
v -0.115060 0.284553 0.183338
v -0.115354 0.002613 0.183338
v -0.067380 0.344746 0.206872
v -0.062116 0.320733 0.206901
v 0.227267 0.344440 0.206862
v 0.221929 0.320438 0.206900
v -0.062126 0.320733 0.183396
v -0.067396 0.344746 0.183363
v 0.221948 0.320438 0.183324
v 0.227258 0.344440 0.183356
v 0.274813 0.284148 0.206889
v 0.274824 0.284148 0.183312
v 0.271336 0.304196 0.183349
v 0.271343 0.304196 0.206853
v 0.260983 0.322145 0.183374
v 0.260992 0.322145 0.206882
v 0.245721 0.335795 0.206863
v 0.260992 0.322145 0.206882
v 0.245711 0.335795 0.183357
v 0.260983 0.322145 0.183374
v 0.274520 0.002208 0.206889
v 0.274531 0.002208 0.183312
v 0.274813 0.284148 0.206889
v 0.274824 0.284148 0.183312
v 0.242201 0.307339 0.206907
v 0.233664 0.316390 0.206861
v 0.233653 0.316390 0.183356
v 0.242216 0.307339 0.183333
v 0.249712 0.295566 0.206873
v 0.249704 0.295566 0.183368
v 0.250349 0.281693 0.206887
v 0.250341 0.281693 0.183382
v 0.249934 0.002233 0.183340
v 0.249951 0.002233 0.206847
v 0.259541 0.325194 0.186490
v 0.279141 0.325173 0.168437
v 0.279174 0.351448 0.172027
v 0.259554 0.351469 0.191384
v 0.277311 0.375150 0.170460
v 0.257891 0.374975 0.189603
v -0.092995 0.351835 0.189816
v -0.093037 0.325560 0.187329
v -0.080922 0.325548 0.191370
v -0.080899 0.351823 0.196259
v -0.079305 0.373021 0.194425
v -0.091301 0.373033 0.188086
v 0.232875 0.351496 0.196268
v 0.232852 0.325221 0.191380
v -0.077760 0.379502 0.188268
v 0.231408 0.375003 0.194411
v 0.259554 0.351469 0.191384
v -0.087057 0.379902 0.183347
v 0.259541 0.325194 0.186490
v 0.230659 0.381484 0.188299
v 0.254774 0.381848 0.184077
v 0.257891 0.374975 0.189603
v 0.257891 0.374975 0.189603
v 0.277311 0.375150 0.170460
v 0.254774 0.381848 0.184077
v 0.271198 0.383416 0.167862
v 0.231400 0.383458 0.167472
v 0.230659 0.381484 0.188299
v 0.271180 0.388711 0.002294
v -0.077760 0.379502 0.188268
v -0.079311 0.381479 0.167483
v 0.231418 0.389545 0.002273
v -0.076485 0.385958 0.002283
v 0.231389 0.383458 -0.162861
v 0.271185 0.383416 -0.163349
v -0.087057 0.379902 0.183347
v -0.094027 0.380836 0.168545
v -0.091850 0.385676 0.002315
v -0.079314 0.381479 -0.162856
v 0.254777 0.381848 -0.179535
v 0.230646 0.381484 -0.183716
v 0.277290 0.375150 -0.165870
v -0.094056 0.380836 -0.163977
v -0.077793 0.379502 -0.183689
v -0.087087 0.379902 -0.178749
v 0.257863 0.374975 -0.185046
v 0.279141 0.325173 0.168437
v 0.259541 0.325194 0.186490
v 0.256473 0.320012 0.178815
v 0.273470 0.319997 0.162141
v 0.279131 0.325173 0.002282
v 0.273288 0.319952 0.002277
v 0.273448 0.319997 -0.157533
v 0.279122 0.325173 -0.163870
v 0.256465 0.320012 -0.174298
v 0.259505 0.325194 -0.181959
v 0.256473 0.320012 0.178815
v 0.259541 0.325194 0.186490
v 0.232852 0.325221 0.191380
v 0.232552 0.320034 0.183241
v -0.079146 0.320356 0.180922
v -0.080922 0.325548 0.191370
v -0.093037 0.325560 0.187329
v -0.090933 0.320365 0.175755
v -0.090933 0.320365 0.175755
v -0.093037 0.325560 0.187329
v -0.102042 0.325570 0.172076
v -0.097797 0.320330 0.168000
v -0.097797 0.320330 0.168000
v -0.102042 0.325570 0.172076
v -0.097815 0.320330 0.002288
v -0.102029 0.325570 0.002276
v -0.102052 0.325570 -0.167457
v -0.097826 0.320330 -0.163432
v -0.102001 0.352840 0.002276
v -0.102015 0.351845 0.172076
v -0.093037 0.325560 0.187329
v -0.092995 0.351835 0.189816
v -0.100183 0.373238 0.170474
v -0.102024 0.351845 -0.167457
v -0.093039 0.325560 -0.182711
v -0.100270 0.377483 0.002319
v -0.100204 0.373238 -0.165855
v -0.093024 0.351835 -0.185199
v -0.091301 0.373033 0.188086
v -0.087057 0.379902 0.183347
v -0.094027 0.380836 0.168545
v -0.091850 0.385676 0.002315
v -0.094056 0.380836 -0.163977
v -0.087087 0.379902 -0.178749
v -0.091297 0.373033 -0.183487
v 0.279141 0.325173 0.168437
v 0.279131 0.325173 0.002282
v 0.279174 0.351448 0.172027
v 0.279159 0.352016 0.002282
v 0.277311 0.375150 0.170460
v 0.279166 0.351448 -0.167506
v 0.279122 0.325173 -0.163870
v 0.277320 0.379847 0.002260
v 0.277290 0.375150 -0.165870
v 0.271198 0.383416 0.167862
v 0.271180 0.388711 0.002294
v 0.271185 0.383416 -0.163349
v -0.167029 0.852353 0.002294
v -0.166570 0.847704 0.047579
v -0.168735 0.872012 0.002323
v -0.168207 0.866329 0.052086
v -0.166764 0.856320 0.084886
v -0.165419 0.839388 0.073840
v -0.159728 0.778465 0.166530
v -0.161093 0.790689 0.180565
v -0.158554 0.761381 0.177701
v -0.159264 0.769572 0.198026
v -0.157063 0.743912 0.201897
v -0.157007 0.745312 0.179363
v -0.146097 0.617116 0.175349
v -0.147121 0.618267 0.154537
v -0.141969 0.569226 0.170376
v -0.143403 0.570510 0.148901
v -0.131979 0.441943 0.152450
v -0.131941 0.441568 0.173707
v -0.129225 0.375693 0.156185
v -0.129999 0.375626 0.177868
v -0.131124 0.320367 0.159958
v -0.131138 0.320475 0.180760
v -0.133671 0.793058 0.180606
v -0.139345 0.858691 0.084936
v -0.161093 0.790689 0.180565
v -0.166764 0.856320 0.084886
v -0.168207 0.866329 0.052086
v -0.140632 0.868710 0.052051
v -0.141175 0.874393 0.002282
v -0.168735 0.872012 0.002323
v -0.168189 0.867156 -0.047478
v -0.140643 0.869538 -0.047458
v -0.139638 0.859954 -0.083078
v -0.167083 0.857580 -0.083062
v -0.133692 0.793058 -0.179872
v -0.161110 0.790689 -0.179922
v -0.131851 0.771943 0.198074
v -0.133671 0.793058 0.180606
v -0.161093 0.790689 0.180565
v -0.159264 0.769572 0.198026
v -0.129628 0.746284 0.201878
v -0.157063 0.743912 0.201897
v -0.118652 0.619487 0.175333
v -0.146097 0.617116 0.175349
v -0.141969 0.569226 0.170376
v -0.114619 0.571590 0.170326
v -0.131941 0.441568 0.173707
v -0.104848 0.443910 0.173706
v -0.103223 0.375598 0.177832
v -0.129999 0.375626 0.177868
v -0.102774 0.320383 0.180711
v -0.131138 0.320475 0.180760
v -0.131138 0.320475 0.180760
v -0.131159 0.306900 0.180903
v -0.102880 0.306863 0.181125
v -0.102774 0.320383 0.180711
v -0.079146 0.320356 0.180922
v 0.232995 0.306406 0.183777
v 0.232552 0.320034 0.183241
v 0.256256 0.306569 0.179097
v 0.256473 0.320012 0.178815
v 0.273692 0.306739 0.161793
v 0.256473 0.320012 0.178815
v 0.273470 0.319997 0.162141
v 0.273470 0.319997 0.162141
v 0.273692 0.306739 0.161793
v 0.273288 0.319952 0.002277
v 0.273679 0.306931 0.002277
v -0.131135 0.306862 0.158431
v -0.131159 0.306900 0.180903
v -0.131138 0.320475 0.180760
v -0.131124 0.320367 0.159958
v -0.131138 0.306862 0.002284
v -0.131124 0.320358 0.002284
v -0.137988 0.841760 0.073833
v -0.165419 0.839388 0.073840
v -0.139027 0.850086 0.047609
v -0.166570 0.847704 0.047579
v -0.139484 0.854737 0.002317
v -0.167029 0.852353 0.002294
v -0.139039 0.850916 -0.042991
v -0.166579 0.848532 -0.043020
v -0.165432 0.840641 -0.072741
v -0.137989 0.843012 -0.072759
v -0.103223 0.375598 0.177832
v -0.102774 0.320383 0.180711
v -0.102350 0.320337 0.160070
v -0.102284 0.375665 0.156273
v -0.104848 0.443910 0.173706
v -0.104240 0.444342 0.152473
v -0.114619 0.571590 0.170326
v -0.114594 0.573500 0.149524
v -0.118813 0.621335 0.154835
v -0.118652 0.619487 0.175333
v -0.129628 0.746284 0.201878
v -0.129676 0.746941 0.180696
v -0.131851 0.771943 0.198074
v -0.131097 0.763290 0.178124
v -0.132593 0.780787 0.166334
v -0.133671 0.793058 0.180606
v -0.139345 0.858691 0.084936
v -0.137988 0.841760 0.073833
v -0.140632 0.868710 0.052051
v -0.139027 0.850086 0.047609
v -0.141175 0.874393 0.002282
v -0.139484 0.854737 0.002317
v -0.140643 0.869538 -0.047458
v -0.139039 0.850916 -0.042991
v -0.137989 0.843012 -0.072759
v -0.139638 0.859954 -0.083078
v -0.132618 0.780787 -0.165684
v -0.133692 0.793058 -0.179872
v -0.131856 0.771943 -0.197374
v -0.131120 0.763290 -0.177397
v -0.129695 0.746941 -0.180015
v -0.129651 0.746281 -0.201162
v -0.118840 0.621335 -0.153815
v -0.118672 0.619487 -0.174340
v -0.114652 0.571590 -0.169283
v -0.114606 0.573500 -0.148537
v -0.104256 0.444342 -0.151950
v -0.104857 0.443910 -0.173189
v -0.102280 0.375665 -0.155729
v -0.103244 0.375598 -0.177256
v -0.102804 0.320383 -0.176115
v -0.102367 0.320337 -0.155449
v -0.102350 0.320337 0.160070
v -0.131124 0.320367 0.159958
v -0.129225 0.375693 0.156185
v -0.102284 0.375665 0.156273
v -0.131979 0.441943 0.152450
v -0.104240 0.444342 0.152473
v 0.263978 0.306689 0.154827
v 0.264257 0.306929 0.002281
v 0.273679 0.306931 0.002277
v 0.273692 0.306739 0.161793
v 0.251688 0.306577 0.166851
v 0.256256 0.306569 0.179097
v 0.233184 0.306443 0.168951
v 0.232995 0.306406 0.183777
v -0.102880 0.306863 0.181125
v -0.113367 0.306854 0.167673
v -0.131159 0.306900 0.180903
v -0.131135 0.306862 0.158431
v -0.113382 0.306859 0.002319
v -0.131138 0.306862 0.002284
v -0.131124 0.320358 0.002284
v -0.131124 0.320367 0.159958
v -0.102350 0.320337 0.160070
v -0.097815 0.320330 0.002288
v -0.097797 0.320330 0.168000
v -0.102774 0.320383 0.180711
v -0.090933 0.320365 0.175755
v -0.079146 0.320356 0.180922
v -0.113378 0.310751 0.002319
v 0.233188 0.310336 0.168951
v -0.113363 0.310747 0.167673
v 0.235513 0.310818 0.002266
v 0.251685 0.310469 0.166849
v 0.233160 0.310336 -0.163279
v -0.113268 0.310751 -0.162330
v 0.251567 0.310442 -0.161327
v 0.250388 0.310821 0.002279
v 0.263982 0.310581 0.154827
v 0.264282 0.310574 -0.147945
v 0.264256 0.310824 0.002279
v -0.131979 0.441943 0.152450
v -0.103767 0.436314 0.082930
v -0.104240 0.444342 0.152473
v -0.131032 0.431397 0.082934
v -0.103517 0.433386 -0.000053
v -0.130775 0.428470 -0.000046
v -0.131034 0.431397 -0.078324
v 0.271336 0.304196 0.183349
v 0.274824 0.284148 0.183312
v 0.250341 0.281693 0.183382
v 0.249704 0.295566 0.183368
v 0.260983 0.322145 0.183374
v 0.242216 0.307339 0.183333
v 0.250349 0.281693 0.206887
v 0.274813 0.284148 0.206889
v 0.271343 0.304196 0.206853
v 0.249712 0.295566 0.206873
v 0.260992 0.322145 0.206882
v 0.242201 0.307339 0.206907
v 0.233653 0.316390 0.183356
v 0.245711 0.335795 0.183357
v 0.242216 0.307339 0.183333
v 0.260983 0.322145 0.183374
v 0.233664 0.316390 0.206861
v 0.242201 0.307339 0.206907
v 0.245721 0.335795 0.206863
v 0.260992 0.322145 0.206882
v 0.250349 0.281693 0.206887
v 0.249951 0.002233 0.206847
v 0.274520 0.002208 0.206889
v 0.274813 0.284148 0.206889
v 0.249951 0.002233 0.206847
v 0.249934 0.002233 0.183340
v 0.274520 0.002208 0.206889
v 0.274531 0.002208 0.183312
v 0.250341 0.281693 0.183382
v 0.274824 0.284148 0.183312
v 0.249934 0.002233 0.183340
v 0.274531 0.002208 0.183312
v -0.115095 0.284553 -0.200290
v -0.115088 0.284553 -0.176786
v -0.110112 0.304198 -0.176806
v -0.110118 0.304198 -0.200314
v -0.101196 0.322521 -0.176777
v -0.101178 0.322521 -0.200352
v -0.101178 0.322521 -0.200352
v -0.101196 0.322521 -0.176777
v -0.085359 0.335745 -0.176790
v -0.085366 0.335745 -0.200296
v -0.067402 0.344746 -0.176819
v -0.067406 0.344746 -0.200335
v -0.115388 0.002613 -0.200290
v -0.115381 0.002613 -0.176786
v -0.115095 0.284553 -0.200290
v -0.115088 0.284553 -0.176786
v -0.082431 0.307677 -0.176807
v -0.082441 0.307677 -0.200312
v -0.073339 0.316315 -0.176787
v -0.073349 0.316315 -0.200292
v -0.062136 0.320733 -0.176798
v -0.062142 0.320733 -0.200306
v 0.221903 0.320438 -0.200307
v 0.221912 0.320438 -0.176799
v 0.233644 0.316390 -0.200343
v 0.233648 0.316390 -0.176826
v -0.090792 0.002588 -0.176813
v -0.090798 0.002588 -0.200320
v -0.090639 0.282048 -0.200301
v -0.090636 0.282048 -0.176784
v -0.088499 0.295523 -0.176816
v -0.088505 0.295523 -0.200330
v -0.082431 0.307677 -0.176807
v -0.082441 0.307677 -0.200312
v -0.110112 0.304198 -0.176806
v -0.115088 0.284553 -0.176786
v -0.090636 0.282048 -0.176784
v -0.088499 0.295523 -0.176816
v -0.101196 0.322521 -0.176777
v -0.082431 0.307677 -0.176807
v -0.090639 0.282048 -0.200301
v -0.115095 0.284553 -0.200290
v -0.110118 0.304198 -0.200314
v -0.088505 0.295523 -0.200330
v -0.101178 0.322521 -0.200352
v -0.082441 0.307677 -0.200312
v -0.085359 0.335745 -0.176790
v -0.101196 0.322521 -0.176777
v -0.082431 0.307677 -0.176807
v -0.073339 0.316315 -0.176787
v -0.067402 0.344746 -0.176819
v -0.062136 0.320733 -0.176798
v -0.082441 0.307677 -0.200312
v -0.101178 0.322521 -0.200352
v -0.085366 0.335745 -0.200296
v -0.073349 0.316315 -0.200292
v -0.067406 0.344746 -0.200335
v -0.062142 0.320733 -0.200306
v -0.090639 0.282048 -0.200301
v -0.090798 0.002588 -0.200320
v -0.115095 0.284553 -0.200290
v -0.115388 0.002613 -0.200290
v -0.090798 0.002588 -0.200320
v -0.090792 0.002588 -0.176813
v -0.115388 0.002613 -0.200290
v -0.115381 0.002613 -0.176786
v -0.090636 0.282048 -0.176784
v -0.115088 0.284553 -0.176786
v -0.090792 0.002588 -0.176813
v -0.115381 0.002613 -0.176786
v 0.260974 0.322145 -0.200325
v 0.260984 0.322145 -0.176820
v 0.271317 0.304196 -0.200354
v 0.271323 0.304196 -0.176836
v 0.274787 0.284148 -0.200318
v 0.274797 0.284148 -0.176812
v 0.227248 0.344440 -0.200342
v 0.227258 0.344440 -0.176834
v 0.245695 0.335795 -0.200344
v 0.245702 0.335795 -0.176836
v 0.274494 0.002208 -0.200318
v 0.274787 0.284148 -0.200318
v 0.274504 0.002208 -0.176812
v 0.274797 0.284148 -0.176812
v -0.067402 0.344746 -0.176819
v 0.227258 0.344440 -0.176834
v -0.067406 0.344746 -0.200335
v 0.227248 0.344440 -0.200342
v 0.250324 0.281693 -0.200320
v 0.249922 0.002233 -0.200360
v 0.249907 0.002233 -0.176785
v 0.250329 0.281693 -0.176803
v 0.249696 0.295566 -0.176829
v 0.249687 0.295566 -0.200336
v 0.242189 0.307339 -0.176790
v 0.242201 0.307339 -0.200356
v 0.233648 0.316390 -0.176826
v 0.233644 0.316390 -0.200343
v 0.242189 0.307339 -0.176790
v 0.249696 0.295566 -0.176829
v 0.260984 0.322145 -0.176820
v 0.271323 0.304196 -0.176836
v 0.274797 0.284148 -0.176812
v 0.250329 0.281693 -0.176803
v 0.242201 0.307339 -0.200356
v 0.260974 0.322145 -0.200325
v 0.249687 0.295566 -0.200336
v 0.271317 0.304196 -0.200354
v 0.250324 0.281693 -0.200320
v 0.274787 0.284148 -0.200318
v 0.221912 0.320438 -0.176799
v 0.233648 0.316390 -0.176826
v 0.227258 0.344440 -0.176834
v 0.245702 0.335795 -0.176836
v 0.221903 0.320438 -0.200307
v 0.227248 0.344440 -0.200342
v 0.233644 0.316390 -0.200343
v 0.245695 0.335795 -0.200344
v 0.250324 0.281693 -0.200320
v 0.274787 0.284148 -0.200318
v 0.249922 0.002233 -0.200360
v 0.274494 0.002208 -0.200318
v 0.249922 0.002233 -0.200360
v 0.274494 0.002208 -0.200318
v 0.249907 0.002233 -0.176785
v 0.274504 0.002208 -0.176812
v 0.250329 0.281693 -0.176803
v 0.249907 0.002233 -0.176785
v 0.274504 0.002208 -0.176812
v 0.274797 0.284148 -0.176812
v -0.067406 0.344746 -0.200335
v 0.227248 0.344440 -0.200342
v -0.062142 0.320733 -0.200306
v 0.221903 0.320438 -0.200307
v -0.062136 0.320733 -0.176798
v 0.221912 0.320438 -0.176799
v -0.067402 0.344746 -0.176819
v 0.227258 0.344440 -0.176834
v 0.227267 0.344440 0.206862
v 0.245721 0.335795 0.206863
v 0.227258 0.344440 0.183356
v 0.245711 0.335795 0.183357
v 0.221929 0.320438 0.206900
v 0.233664 0.316390 0.206861
v 0.227267 0.344440 0.206862
v 0.245721 0.335795 0.206863
v 0.233653 0.316390 0.183356
v 0.233664 0.316390 0.206861
v 0.221948 0.320438 0.183324
v 0.221929 0.320438 0.206900
v -0.062126 0.320733 0.183396
v -0.062116 0.320733 0.206901
v -0.073323 0.316315 0.206914
v -0.073307 0.316315 0.183339
v -0.082420 0.307677 0.206893
v -0.082430 0.307677 0.183387
v 0.221948 0.320438 0.183324
v 0.227258 0.344440 0.183356
v 0.233653 0.316390 0.183356
v 0.245711 0.335795 0.183357
v 0.245695 0.335795 -0.200344
v 0.245702 0.335795 -0.176836
v 0.260974 0.322145 -0.200325
v 0.260984 0.322145 -0.176820
v 0.233644 0.316390 -0.200343
v 0.245695 0.335795 -0.200344
v 0.242201 0.307339 -0.200356
v 0.260974 0.322145 -0.200325
v 0.245702 0.335795 -0.176836
v 0.233648 0.316390 -0.176826
v 0.260984 0.322145 -0.176820
v 0.242189 0.307339 -0.176790
v -0.165419 0.839388 0.073840
v -0.137988 0.841760 0.073833
v -0.137038 0.832976 0.042488
v -0.123662 0.827832 0.071533
v -0.164519 0.830600 0.042495
v -0.122733 0.819254 0.039971
v -0.133723 0.829951 -0.000022
v -0.164230 0.827312 -0.000029
v -0.119879 0.816394 -0.000015
v -0.122732 0.819254 -0.035373
v -0.137027 0.832976 -0.037876
v -0.164511 0.830600 -0.037870
v -0.123661 0.827832 -0.066958
v -0.137989 0.843012 -0.072759
v -0.165432 0.840641 -0.072741
vt 0.956230 0.553917
vt 0.951278 0.520897
vt 0.865188 0.534914
vt 0.679582 0.049640
vt 0.571444 0.123529
vt 0.688948 0.072684
vt 0.586479 0.150094
vt 0.556453 0.146071
vt 0.726238 0.080954
vt 0.553447 0.167256
vt 0.583915 0.314683
vt 0.774290 0.158518
vt 0.611582 0.341473
vt 0.774290 0.084667
vt 0.590822 0.370358
vt 0.816794 0.080904
vt 0.956581 0.150029
vt 0.931586 0.341428
vt 0.774290 0.331549
vt 0.685753 0.513411
vt 0.612431 0.505502
vt 0.591929 0.520927
vt 0.677998 0.534890
vt 0.854105 0.072674
vt 0.774290 0.516550
vt 0.857414 0.513424
vt 0.774290 0.538974
vt 0.959252 0.314611
vt 0.952359 0.370320
vt 0.930767 0.505482
vt 0.865188 0.534914
vt 0.951278 0.520897
vt 0.989618 0.167163
vt 0.971603 0.123468
vt 0.863462 0.049613
vt 0.986596 0.145990
vt 0.526473 0.074479
vt 0.499298 0.102823
vt 0.526169 0.104606
vt 0.492448 0.072062
vt 0.476224 0.106405
vt 0.461409 0.081013
vt 0.431730 0.051728
vt 0.462924 0.052156
vt 0.429186 0.076708
vt 0.454321 0.090538
vt 0.462468 0.021697
vt 0.427984 0.086018
vt 0.103515 0.072818
vt 0.105019 0.082145
vt 0.432250 0.023239
vt 0.101687 0.050550
vt 0.086772 0.050411
vt 0.088903 0.075090
vt 0.101462 0.022483
vt 0.093464 0.086220
vt 0.087826 0.020896
vt 0.432250 0.023239
vt 0.462468 0.021697
vt 0.459840 0.010877
vt 0.432197 0.012954
vt 0.103098 0.010182
vt 0.101462 0.022483
vt 0.087826 0.020896
vt 0.088769 0.006074
vt 0.028206 0.097743
vt 0.028000 0.078478
vt 0.017481 0.089274
vt 0.020946 0.101637
vt 0.988932 0.933412
vt 0.988932 0.962949
vt 0.906538 0.962949
vt 0.906538 0.933412
vt 0.833256 0.933412
vt 0.833256 0.962949
vt 0.641365 0.933412
vt 0.641365 0.962949
vt 0.601787 0.962949
vt 0.601787 0.933412
vt 0.566149 0.962949
vt 0.566149 0.933412
vt 0.404182 0.962949
vt 0.404182 0.933412
vt 0.342801 0.962949
vt 0.343182 0.933412
vt 0.200886 0.933412
vt 0.200886 0.962949
vt 0.103221 0.933412
vt 0.103221 0.962949
vt 0.010199 0.962949
vt 0.010199 0.933412
vt 0.477106 0.991734
vt 0.516684 0.991734
vt 0.516684 0.962949
vt 0.477106 0.962949
vt 0.441468 0.962949
vt 0.441468 0.991734
vt 0.279502 0.991734
vt 0.279502 0.962949
vt 0.220244 0.991734
vt 0.218120 0.962949
vt 0.076205 0.991734
vt 0.076205 0.962949
vt -0.021459 0.962949
vt -0.021459 0.991734
vt -0.114482 0.962949
vt -0.114482 0.991734
vt 0.543631 0.886610
vt 0.503380 0.884739
vt 0.507933 0.893503
vt 0.543701 0.893917
vt 0.569439 0.894431
vt 0.904068 0.886610
vt 0.904322 0.895242
vt 0.943345 0.880296
vt 0.945290 0.893386
vt 0.966590 0.847652
vt 0.964131 0.886419
vt 0.988109 0.857698
vt 0.966590 0.847652
vt 0.985727 0.848163
vt 0.987809 0.665690
vt 0.967519 0.665690
vt 0.503380 0.884739
vt 0.479977 0.857628
vt 0.480227 0.884135
vt 0.503380 0.855747
vt 0.478845 0.665690
vt 0.503380 0.665690
vt -0.114482 0.933412
vt -0.021459 0.933412
vt -0.114482 0.903801
vt -0.021459 0.903801
vt 0.076205 0.903801
vt 0.076205 0.933412
vt 0.967519 0.665690
vt 0.951481 0.665690
vt 0.949241 0.836953
vt 0.966590 0.847652
vt 0.923975 0.867210
vt 0.943345 0.880296
vt 0.904068 0.886610
vt 0.904965 0.869150
vt 0.543631 0.886610
vt 0.529410 0.869603
vt 0.503380 0.884739
vt 0.503380 0.855747
vt 0.529326 0.665690
vt 0.503380 0.665690
vt 0.479977 0.857628
vt 0.478845 0.665690
vt 0.423469 0.857628
vt 0.415205 0.665690
vt 0.415205 0.867437
vt 0.424243 0.882907
vt 0.402708 0.876873
vt 0.381272 0.883176
vt 0.951481 0.665690
vt 0.949241 0.836953
vt 0.936576 0.665690
vt 0.934177 0.836229
vt 0.949241 0.836953
vt 0.923975 0.867210
vt 0.934177 0.836229
vt 0.916743 0.856255
vt 0.904965 0.869150
vt 0.905028 0.857746
vt 0.529410 0.869603
vt 0.543632 0.856400
vt 0.529410 0.869603
vt 0.529326 0.665690
vt 0.543632 0.856400
vt 0.543632 0.665690
vt 0.529326 0.665690
vt 0.529410 0.869603
vt 0.543632 0.665690
vt 0.543632 0.856400
vt 0.529410 0.869603
vt 0.904965 0.869150
vt 0.543632 0.856400
vt 0.905028 0.857746
vt 0.923975 0.867210
vt 0.916743 0.856255
vt 0.923975 0.867210
vt 0.949241 0.836953
vt 0.916743 0.856255
vt 0.934177 0.836229
vt 0.951481 0.665690
vt 0.936576 0.665690
vt 0.918088 0.682766
vt 0.926812 0.655878
vt 0.870819 0.586429
vt 0.857059 0.712865
vt 0.915500 0.711859
vt 0.856390 0.576600
vt 0.918901 0.744500
vt 0.838810 0.575705
vt 0.873080 0.843279
vt 0.928336 0.771210
vt 0.857779 0.852025
vt 0.843262 0.853463
vt 0.747392 0.653613
vt 0.748843 0.778686
vt 0.754606 0.714085
vt 0.726005 0.595025
vt 0.669304 0.714764
vt 0.728276 0.835224
vt 0.672957 0.654265
vt 0.681738 0.599862
vt 0.674716 0.779270
vt 0.685091 0.831272
vt 0.565775 0.598551
vt 0.556996 0.655171
vt 0.555149 0.715341
vt 0.558642 0.779064
vt 0.568924 0.835499
vt 0.688887 0.933412
vt 0.690432 0.903801
vt 0.647353 0.933412
vt 0.648126 0.903801
vt 0.605819 0.933412
vt 0.605819 0.903801
vt 0.738758 0.933412
vt 0.738758 0.903801
vt 0.697203 0.933412
vt 0.696728 0.903801
vt 0.655647 0.933412
vt 0.654698 0.903801
vt 0.041344 0.933412
vt 0.621337 0.933412
vt 0.041344 0.903801
vt 0.620907 0.903801
vt 0.709819 0.903801
vt 0.710265 0.933412
vt 1.319863 0.903801
vt 1.319417 0.933412
vt 0.672444 0.991734
vt 0.671992 0.962949
vt 0.644338 0.962949
vt 0.644790 0.991734
vt 0.616685 0.962949
vt 0.617136 0.991734
vt 0.041344 0.991734
vt 0.041344 0.962949
vt 0.600154 0.962949
vt 0.578736 0.962949
vt 0.613238 0.933412
vt 0.581070 0.933412
vt 0.548902 0.933412
vt 0.557318 0.962949
vt 0.671992 0.962949
vt 0.688887 0.933412
vt 0.644338 0.962949
vt 0.647353 0.933412
vt 0.616685 0.962949
vt 0.605819 0.933412
vt 0.638589 0.962949
vt 0.619371 0.962949
vt 0.651865 0.933412
vt 0.619680 0.933412
vt 0.587494 0.933412
vt 0.600154 0.962949
vt 0.721617 0.962949
vt 0.738758 0.933412
vt 0.696805 0.962949
vt 0.697203 0.933412
vt 0.671992 0.962949
vt 0.655647 0.933412
vt 0.616685 0.962949
vt 0.621337 0.933412
vt 0.041344 0.962949
vt 0.041344 0.933412
vt 0.518445 0.563664
vt 0.518445 0.654122
vt 0.431873 0.563664
vt 0.431873 0.654122
vt 0.557318 0.962949
vt 0.111713 0.962949
vt 0.560921 0.933412
vt 0.111713 0.933412
vt 0.710265 0.933412
vt 0.721617 0.962949
vt 1.319417 0.933412
vt 1.308065 0.962949
vt 0.712405 0.962949
vt 0.701053 0.933412
vt 0.712405 0.962949
vt 0.701053 0.933412
vt 1.423863 0.933412
vt 1.423863 0.903801
vt 1.381557 0.903801
vt 1.382329 0.933412
vt 1.339250 0.903801
vt 1.340796 0.933412
vt 1.332479 0.933412
vt 1.374035 0.933412
vt 1.332954 0.903801
vt 1.374985 0.903801
vt 1.988338 0.933412
vt 1.988338 0.903801
vt 1.408345 0.933412
vt 1.408775 0.903801
vt 1.357690 0.962949
vt 1.332878 0.962949
vt 1.332428 0.991734
vt 1.357238 0.991734
vt 1.385344 0.962949
vt 1.384892 0.991734
vt 1.412998 0.962949
vt 1.412546 0.991734
vt 1.988338 0.991734
vt 1.988338 0.962949
vt 0.534736 0.477204
vt 0.532870 0.447735
vt 0.505917 0.450802
vt 0.501744 0.481282
vt 0.482248 0.448482
vt 0.471724 0.474988
vt 0.082002 0.504064
vt 0.082308 0.533987
vt 0.096148 0.532734
vt 0.097108 0.504319
vt 0.099541 0.481839
vt 0.084836 0.479139
vt 0.436160 0.507086
vt 0.437582 0.536662
vt 0.101303 0.472448
vt 0.433183 0.481336
vt 0.467004 0.505824
vt 0.089779 0.468036
vt 0.468331 0.536859
vt 0.431939 0.471675
vt 0.460236 0.467303
vt 0.463799 0.478164
vt 0.471724 0.474988
vt 0.482248 0.448482
vt 0.460236 0.467303
vt 0.472214 0.446246
vt 0.431560 0.448925
vt 0.431939 0.471675
vt 0.467378 0.276531
vt 0.101303 0.472448
vt 0.100193 0.450062
vt 0.426776 0.277073
vt 0.105686 0.276779
vt 0.427747 0.107898
vt 0.466683 0.109147
vt 0.089779 0.468036
vt 0.084809 0.450725
vt 0.089720 0.276645
vt 0.103381 0.104303
vt 0.454321 0.090538
vt 0.427984 0.086018
vt 0.476224 0.106405
vt 0.088099 0.103327
vt 0.105019 0.082145
vt 0.093464 0.086220
vt 0.461409 0.081013
vt 0.532870 0.447735
vt 0.534736 0.477204
vt 0.546049 0.471875
vt 0.541198 0.441827
vt 0.534552 0.275363
vt 0.542673 0.275204
vt 0.534684 0.110120
vt 0.526169 0.104606
vt 0.538240 0.079378
vt 0.526473 0.074479
vt 0.466189 0.548161
vt 0.468331 0.536859
vt 0.437582 0.536662
vt 0.437559 0.547444
vt 0.097481 0.545233
vt 0.096148 0.532734
vt 0.082308 0.533987
vt 0.082884 0.548997
vt 0.013649 0.463335
vt 0.023959 0.474377
vt 0.024570 0.455074
vt 0.017365 0.451015
vt 0.017365 0.451015
vt 0.024570 0.455074
vt 0.016000 0.275948
vt 0.023089 0.276022
vt 0.028206 0.097743
vt 0.020946 0.101637
vt 0.051716 0.276302
vt 0.052302 0.454759
vt 0.023959 0.474377
vt 0.053741 0.476845
vt 0.074723 0.452629
vt 0.055823 0.098632
vt 0.028000 0.078478
vt 0.077500 0.276539
vt 0.078102 0.101221
vt 0.057739 0.076658
vt 0.078849 0.473590
vt 0.089779 0.468036
vt 0.084809 0.450725
vt 0.089720 0.276645
vt 0.088099 0.103327
vt 0.093464 0.086220
vt 0.082687 0.080444
vt 0.532870 0.447735
vt 0.534552 0.275363
vt 0.505917 0.450802
vt 0.506869 0.275878
vt 0.482248 0.448482
vt 0.499298 0.102823
vt 0.526169 0.104606
vt 0.478353 0.276362
vt 0.476224 0.106405
vt 0.472214 0.446246
vt 0.467378 0.276531
vt 0.466683 0.109147
vt 0.988932 0.933412
vt 0.906538 0.933412
vt 0.988932 0.962949
vt 0.906538 0.962949
vt 0.833256 0.962949
vt 0.833256 0.933412
vt 0.641365 0.933412
vt 0.641365 0.962949
vt 0.601787 0.933412
vt 0.601787 0.962949
vt 0.566149 0.962949
vt 0.566149 0.933412
vt 0.404182 0.962949
vt 0.404182 0.933412
vt 0.342801 0.962949
vt 0.343182 0.933412
vt 0.200886 0.933412
vt 0.200886 0.962949
vt 0.103221 0.933412
vt 0.103221 0.962949
vt 0.010199 0.933412
vt 0.010199 0.962949
vt 1.213408 0.962949
vt 1.021518 0.962949
vt 1.213409 0.991734
vt 1.021517 0.991734
vt 0.948236 0.991734
vt 0.948236 0.962949
vt 0.865046 0.962949
vt 0.865046 0.991734
vt 0.781857 0.991734
vt 0.781857 0.962949
vt 0.708575 0.962949
vt 0.708575 0.991734
vt 0.516684 0.962949
vt 0.516684 0.991734
vt 1.252987 0.962949
vt 1.213408 0.962949
vt 1.213409 0.991734
vt 1.252986 0.991734
vt 1.288625 0.962949
vt 1.288625 0.991734
vt 1.450591 0.962949
vt 1.450591 0.991734
vt 1.509849 0.991734
vt 1.511973 0.962949
vt 1.653888 0.991734
vt 1.653888 0.962949
vt 1.751552 0.962949
vt 1.751552 0.991734
vt 1.844574 0.962949
vt 1.844574 0.991734
vt 0.507933 0.893503
vt 0.503380 0.884739
vt 0.543631 0.886610
vt 0.543701 0.893917
vt 0.569439 0.894431
vt 0.904068 0.886610
vt 0.904322 0.895242
vt 0.943345 0.880296
vt 0.945290 0.893386
vt 0.966590 0.847652
vt 0.964131 0.886419
vt 0.988109 0.857698
vt 0.985727 0.848163
vt 0.966590 0.847652
vt 0.987809 0.665690
vt 0.967519 0.665690
vt 0.503380 0.855747
vt 0.503380 0.884739
vt 0.480227 0.884135
vt 0.479977 0.857628
vt 0.503380 0.665690
vt 0.478845 0.665690
vt 0.437127 0.933412
vt 0.437127 0.903801
vt 0.405142 0.933412
vt 0.405141 0.903801
vt 0.338278 0.933412
vt 0.338278 0.903801
vt 0.271809 0.933412
vt 0.271809 0.903801
vt 0.236249 0.903801
vt 0.236249 0.933412
vt 1.751552 0.962949
vt 1.844574 0.962949
vt 1.844575 0.933412
vt 1.751552 0.933412
vt 1.653888 0.962949
vt 1.653888 0.933412
vt 1.511973 0.962949
vt 1.511592 0.933412
vt 1.450591 0.933412
vt 1.450591 0.962949
vt 1.288625 0.962949
vt 1.288625 0.933412
vt 1.252987 0.962949
vt 1.252986 0.933412
vt 1.213408 0.933412
vt 1.213408 0.962949
vt 1.021518 0.962949
vt 1.021518 0.933412
vt 0.948236 0.962949
vt 0.948235 0.933412
vt 0.865046 0.962949
vt 0.865046 0.933412
vt 0.781857 0.962949
vt 0.781857 0.933412
vt 0.708575 0.933412
vt 0.708575 0.962949
vt 0.516684 0.933412
vt 0.516684 0.962949
vt 0.477106 0.962949
vt 0.477106 0.933412
vt 0.441468 0.933412
vt 0.441468 0.962949
vt 0.279502 0.933412
vt 0.279502 0.962949
vt 0.218120 0.962949
vt 0.218501 0.933412
vt 0.076205 0.933412
vt 0.076205 0.962949
vt -0.021459 0.933412
vt -0.021459 0.962949
vt -0.114482 0.962949
vt -0.114482 0.933412
vt 1.844575 0.933412
vt 1.844575 0.903801
vt 1.751552 0.903801
vt 1.751552 0.933412
vt 1.653888 0.903801
vt 1.653888 0.933412
vt 0.949241 0.836953
vt 0.951481 0.665690
vt 0.967519 0.665690
vt 0.966590 0.847652
vt 0.923975 0.867210
vt 0.943345 0.880296
vt 0.904965 0.869150
vt 0.904068 0.886610
vt 0.543631 0.886610
vt 0.529410 0.869603
vt 0.503380 0.884739
vt 0.503380 0.855747
vt 0.529326 0.665690
vt 0.503380 0.665690
vt 0.478845 0.665690
vt 0.479977 0.857628
vt 0.423469 0.857628
vt 0.415205 0.665690
vt 0.415205 0.867437
vt 0.424243 0.882907
vt 0.402708 0.876873
vt 0.381272 0.883176
vt 0.008807 0.719620
vt 0.351562 0.561854
vt 0.008708 0.563168
vt 0.353864 0.719620
vt 0.369714 0.563567
vt 0.351578 0.890321
vt 0.008956 0.890081
vt 0.366969 0.888652
vt 0.368465 0.719620
vt 0.381789 0.575477
vt 0.382105 0.872730
vt 0.382073 0.719620
vt 0.587010 0.553958
vt 0.677998 0.534890
vt 0.591929 0.520927
vt 0.675174 0.567323
vt 0.774290 0.538974
vt 0.774290 0.571600
vt 0.868086 0.567379
vt 0.581070 0.933412
vt 0.548902 0.933412
vt 0.557318 0.962949
vt 0.578736 0.962949
vt 0.613238 0.933412
vt 0.600154 0.962949
vt 1.412998 0.962949
vt 1.423863 0.933412
vt 1.382329 0.933412
vt 1.385344 0.962949
vt 1.340796 0.933412
vt 1.357690 0.962949
vt 0.619371 0.962949
vt 0.619680 0.933412
vt 0.600154 0.962949
vt 0.587494 0.933412
vt 1.332878 0.962949
vt 1.357690 0.962949
vt 1.332479 0.933412
vt 1.374035 0.933412
vt 1.412998 0.962949
vt 1.988338 0.962949
vt 1.988338 0.933412
vt 1.408345 0.933412
vt 0.518445 0.563664
vt 0.431873 0.563664
vt 0.518445 0.654122
vt 0.431873 0.654122
vt 0.557318 0.962949
vt 0.560921 0.933412
vt 0.111713 0.962949
vt 0.111713 0.933412
vt 0.605819 0.933412
vt 0.605819 0.903801
vt 0.648126 0.903801
vt 0.647353 0.933412
vt 0.690432 0.903801
vt 0.688887 0.933412
vt 0.655647 0.933412
vt 0.654698 0.903801
vt 0.696728 0.903801
vt 0.697203 0.933412
vt 0.738758 0.903801
vt 0.738758 0.933412
vt 0.041344 0.933412
vt 0.041344 0.903801
vt 0.621337 0.933412
vt 0.620907 0.903801
vt 0.672444 0.991734
vt 0.671992 0.962949
vt 0.697254 0.991734
vt 0.696805 0.962949
vt 0.722064 0.991734
vt 0.721617 0.962949
vt 1.308065 0.962949
vt 1.307618 0.991734
vt 1.332878 0.962949
vt 1.332428 0.991734
vt 0.041344 0.991734
vt 0.041344 0.962949
vt 0.616685 0.962949
vt 0.617136 0.991734
vt 0.644790 0.991734
vt 0.644338 0.962949
vt 0.672444 0.991734
vt 0.671992 0.962949
vt 0.581070 0.933412
vt 0.548902 0.933412
vt 0.557318 0.962949
vt 0.578736 0.962949
vt 0.613238 0.933412
vt 0.600154 0.962949
vt 0.616685 0.962949
vt 0.605819 0.933412
vt 0.647353 0.933412
vt 0.644338 0.962949
vt 0.688887 0.933412
vt 0.671992 0.962949
vt 0.619680 0.933412
vt 0.587494 0.933412
vt 0.600154 0.962949
vt 0.619371 0.962949
vt 0.651865 0.933412
vt 0.638589 0.962949
vt 0.671992 0.962949
vt 0.655647 0.933412
vt 0.697203 0.933412
vt 0.696805 0.962949
vt 0.738758 0.933412
vt 0.721617 0.962949
vt 0.616685 0.962949
vt 0.041344 0.962949
vt 0.621337 0.933412
vt 0.041344 0.933412
vt 0.518445 0.563664
vt 0.431873 0.563664
vt 0.518445 0.654122
vt 0.431873 0.654122
vt 0.557318 0.962949
vt 0.560921 0.933412
vt 0.111713 0.962949
vt 0.111713 0.933412
vt 1.340796 0.933412
vt 1.339250 0.903801
vt 1.382329 0.933412
vt 1.381557 0.903801
vt 1.423863 0.933412
vt 1.423863 0.903801
vt 1.290924 0.933412
vt 1.290924 0.903801
vt 1.332479 0.933412
vt 1.332954 0.903801
vt 1.988338 0.933412
vt 1.408345 0.933412
vt 1.988338 0.903801
vt 1.408775 0.903801
vt 0.709819 0.903801
vt 1.319863 0.903801
vt 0.710265 0.933412
vt 1.319417 0.933412
vt 1.412998 0.962949
vt 1.988338 0.962949
vt 1.988338 0.991734
vt 1.412546 0.991734
vt 1.384892 0.991734
vt 1.385344 0.962949
vt 1.357238 0.991734
vt 1.357690 0.962949
vt 1.332428 0.991734
vt 1.332878 0.962949
vt 0.600154 0.962949
vt 0.578736 0.962949
vt 0.613238 0.933412
vt 0.581070 0.933412
vt 0.548902 0.933412
vt 0.557318 0.962949
vt 1.357690 0.962949
vt 1.340796 0.933412
vt 1.385344 0.962949
vt 1.382329 0.933412
vt 1.412998 0.962949
vt 1.423863 0.933412
vt 0.638589 0.962949
vt 0.619371 0.962949
vt 0.651865 0.933412
vt 0.619680 0.933412
vt 1.308065 0.962949
vt 1.290924 0.933412
vt 1.332878 0.962949
vt 1.332479 0.933412
vt 1.412998 0.962949
vt 1.408345 0.933412
vt 1.988338 0.962949
vt 1.988338 0.933412
vt 0.518445 0.563664
vt 0.518445 0.654122
vt 0.431873 0.563664
vt 0.431873 0.654122
vt 0.557318 0.962949
vt 0.111713 0.962949
vt 0.111713 0.933412
vt 0.560921 0.933412
vt 0.710265 0.933412
vt 1.319417 0.933412
vt 0.721617 0.962949
vt 1.308065 0.962949
vt 0.712405 0.962949
vt 0.712405 0.962949
vt 0.701053 0.933412
vt 0.701053 0.933412
vt 1.290924 0.933412
vt 1.332479 0.933412
vt 1.290924 0.903801
vt 1.332954 0.903801
vt 1.308065 0.962949
vt 1.332878 0.962949
vt 1.290924 0.933412
vt 1.332479 0.933412
vt 1.332428 0.991734
vt 1.332878 0.962949
vt 1.307618 0.991734
vt 1.308065 0.962949
vt 0.722064 0.991734
vt 0.721617 0.962949
vt 0.696805 0.962949
vt 0.697254 0.991734
vt 0.671992 0.962949
vt 0.672444 0.991734
vt 0.638589 0.962949
vt 0.651865 0.933412
vt 0.619371 0.962949
vt 0.619680 0.933412
vt 1.332479 0.933412
vt 1.332954 0.903801
vt 1.374035 0.933412
vt 1.374985 0.903801
vt 1.332878 0.962949
vt 1.332479 0.933412
vt 1.357690 0.962949
vt 1.374035 0.933412
vt 0.619680 0.933412
vt 0.619371 0.962949
vt 0.587494 0.933412
vt 0.600154 0.962949
vt 0.683636 0.018097
vt 0.679582 0.049640
vt 0.722758 0.056232
vt 0.688948 0.072684
vt 0.725223 0.023492
vt 0.726238 0.080954
vt 0.774290 0.061332
vt 0.774290 0.025068
vt 0.774290 0.084667
vt 0.816794 0.080904
vt 0.820303 0.056187
vt 0.817737 0.023490
vt 0.854105 0.072674
vt 0.863462 0.049613
vt 0.859367 0.018037
vn -0.6364 -0.7696 -0.0512
vn 0.6809 -0.6384 -0.3588
vn 0.4759 -0.8763 -0.0748
vn 0.5154 0.8560 -0.0400
vn 0.7813 0.4706 0.4100
vn 0.8502 0.5204 0.0788
vn 0.9073 0.2365 0.3477
vn 0.8264 0.2710 0.4937
vn 0.8697 0.4932 -0.0181
vn 0.8505 0.0714 0.5211
vn 0.8182 -0.0056 0.5750
vn 0.9845 0.1752 -0.0012
vn 0.9034 0.0430 0.4267
vn 0.8670 0.4983 -0.0018
vn 0.7404 0.0379 0.6711
vn 0.8701 0.4927 0.0170
vn 0.9100 0.2322 -0.3434
vn 0.9105 0.0410 -0.4114
vn 0.9988 0.0485 -0.0003
vn 0.9371 -0.3445 0.0565
vn 0.9224 -0.1915 0.3353
vn 0.6581 -0.6430 0.3917
vn 0.4741 -0.8771 0.0765
vn 0.8574 0.5099 -0.0698
vn 0.9273 -0.3743 -0.0007
vn 0.9377 -0.3427 -0.0565
vn 0.4691 -0.8832 -0.0010
vn 0.8182 -0.0063 -0.5749
vn 0.7683 0.0355 -0.6390
vn 0.9332 -0.1888 -0.3059
vn 0.4760 -0.8762 -0.0748
vn 0.6812 -0.6383 -0.3584
vn 0.8502 0.0708 -0.5216
vn 0.7944 0.4584 -0.3984
vn 0.5284 0.8474 0.0524
vn 0.8263 0.2709 -0.4938
vn 0.3763 -0.5601 -0.7380
vn 0.9211 0.0155 -0.3891
vn 0.8020 -0.5004 -0.3262
vn 0.4575 -0.0280 -0.8888
vn 0.8479 0.3869 -0.3624
vn 0.4165 0.4062 -0.8133
vn 0.0896 -0.0490 -0.9948
vn 0.4173 0.4061 -0.8130
vn 0.4573 -0.0280 -0.8889
vn 0.0795 0.4057 -0.9105
vn 0.2375 0.8307 -0.5035
vn 0.3757 -0.5602 -0.7383
vn 0.0312 0.8974 -0.4402
vn -0.2183 0.4208 -0.8805
vn -0.0994 0.9020 -0.4200
vn 0.0743 -0.5715 -0.8172
vn -0.2226 -0.0306 -0.9744
vn -0.6947 0.0183 -0.7191
vn -0.6458 0.4209 -0.6371
vn -0.1572 -0.5926 -0.7900
vn -0.3729 0.8390 -0.3963
vn -0.5620 -0.5435 -0.6235
vn 0.0741 -0.5714 -0.8174
vn 0.3757 -0.5601 -0.7383
vn 0.2364 -0.8521 -0.4670
vn 0.0470 -0.8588 -0.5102
vn -0.0797 -0.8917 -0.4455
vn -0.1576 -0.5925 -0.7900
vn -0.5623 -0.5435 -0.6233
vn -0.3284 -0.8667 -0.3754
vn -0.8841 -0.4069 -0.2297
vn -0.5623 -0.5434 -0.6233
vn -0.3288 -0.8665 -0.3757
vn -0.6542 -0.7358 -0.1749
vn -0.9963 -0.0864 -0.0007
vn -0.9963 -0.0864 -0.0008
vn -0.9959 -0.0906 -0.0060
vn -0.9954 -0.0958 -0.0022
vn -0.9954 -0.0954 -0.0023
vn -0.9955 -0.0947 0.0068
vn -0.9955 -0.0945 0.0073
vn -0.9955 -0.0939 0.0125
vn -0.9955 -0.0944 0.0125
vn -0.9961 -0.0886 0.0006
vn -0.9961 -0.0885 0.0006
vn -0.9955 -0.0850 -0.0431
vn -0.9969 -0.0744 0.0266
vn -0.9947 -0.0857 -0.0568
vn -0.9970 -0.0767 0.0109
vn -0.9981 -0.0603 -0.0121
vn -0.9981 -0.0602 -0.0121
vn -0.9998 -0.0045 0.0182
vn -0.9994 0.0277 0.0187
vn -0.9994 0.0278 0.0186
vn -0.0351 0.4047 -0.9138
vn -0.0639 0.7329 -0.6773
vn -0.0636 0.7329 -0.6774
vn -0.0352 0.4047 -0.9138
vn 0.0025 -0.0302 -0.9995
vn 0.0028 -0.0301 -0.9995
vn 0.0132 -0.1548 -0.9879
vn 0.0133 -0.1549 -0.9878
vn 0.0037 -0.0367 -0.9993
vn 0.0035 -0.0367 -0.9993
vn -0.0021 0.0456 -0.9990
vn -0.0018 0.0456 -0.9990
vn -0.0001 0.0202 -0.9998
vn -0.0002 0.0203 -0.9998
vn 0.0011 -0.0206 -0.9998
vn -0.0063 -0.5394 -0.8420
vn -0.4127 -0.8130 -0.4108
vn -0.0030 0.0189 -0.9998
vn -0.0015 0.8370 -0.5472
vn -0.0070 0.4684 -0.8835
vn 0.0672 -0.6982 -0.7128
vn 0.0911 0.0310 -0.9954
vn 0.3292 -0.7167 -0.6148
vn 0.4649 0.0152 -0.8852
vn 0.6320 -0.7297 -0.2611
vn 0.3297 -0.7166 -0.6147
vn 0.4659 0.0152 -0.8847
vn 0.9226 0.0112 -0.3857
vn 0.9226 0.0113 -0.3856
vn 0.9997 0.0224 -0.0001
vn 0.7163 -0.6978 -0.0000
vn -0.4125 -0.8129 -0.4112
vn -0.8940 0.4480 0.0006
vn -1.0000 0.0009 0.0015
vn -0.7076 -0.7066 -0.0000
vn -0.4464 0.8948 0.0000
vn -0.7075 -0.7068 -0.0002
vn 0.0033 0.0047 1.0000
vn 0.0044 -0.0251 0.9997
vn 0.0037 0.0049 1.0000
vn 0.0045 -0.0254 0.9997
vn 0.0046 -0.0555 0.9984
vn 0.0045 -0.0555 0.9984
vn 0.7162 -0.6979 0.0001
vn -0.7060 -0.7082 -0.0007
vn -0.6298 -0.7343 0.2533
vn 0.6320 -0.7296 -0.2612
vn -0.2978 -0.7302 0.6149
vn 0.3294 -0.7167 -0.6146
vn 0.0670 -0.6982 -0.7128
vn -0.0338 -0.7072 0.7062
vn 0.2354 -0.9430 0.2353
vn -0.4126 -0.8129 -0.4111
vn -0.7076 -0.7066 -0.0001
vn 0.7066 -0.7076 0.0002
vn -0.7075 -0.7067 0.0002
vn -0.8940 0.4481 0.0007
vn -0.4463 0.8949 -0.0000
vn 0.0018 1.0000 0.0003
vn 0.0012 1.0000 0.0001
vn 0.0026 1.0000 0.0023
vn 0.0004 1.0000 0.0025
vn -0.0073 0.4682 -0.8836
vn -0.7060 -0.7082 -0.0008
vn -0.6224 -0.7364 -0.2652
vn -1.0000 0.0005 -0.0010
vn -0.9216 0.0016 -0.3881
vn -0.6223 -0.7365 -0.2654
vn -0.2904 -0.7270 -0.6222
vn -0.9215 0.0002 -0.3883
vn -0.4302 -0.0004 -0.9028
vn -0.0364 -0.7072 -0.7061
vn -0.0540 -0.0000 -0.9985
vn 0.2356 -0.9430 -0.2351
vn 0.7085 -0.0008 -0.7057
vn 0.2355 -0.9430 -0.2350
vn 0.7067 -0.7076 0.0003
vn 0.7084 -0.0008 -0.7058
vn 1.0000 -0.0010 -0.0001
vn 0.7067 -0.7076 0.0002
vn 1.0000 -0.0010 0.0007
vn 0.7079 -0.0007 0.7063
vn -0.0337 -0.7072 0.7062
vn -0.0502 0.0001 0.9987
vn -0.2978 -0.7303 0.6148
vn -0.4428 -0.0015 0.8966
vn -0.2977 -0.7302 0.6149
vn -0.6296 -0.7345 0.2531
vn -0.4428 -0.0002 0.8966
vn -0.9291 -0.0003 0.3697
vn -0.7058 -0.7084 -0.0006
vn -1.0000 0.0002 -0.0009
vn -0.7813 0.6092 0.1358
vn -0.7731 0.5984 0.2102
vn -0.9933 -0.1145 0.0183
vn -0.9929 -0.1189 -0.0003
vn -0.7863 0.6178 0.0033
vn -0.9944 -0.1038 0.0220
vn -0.7817 0.6099 -0.1304
vn -0.9946 -0.0931 0.0455
vn -0.9943 -0.1048 -0.0190
vn -0.7737 0.5992 -0.2058
vn -0.9956 -0.0906 -0.0231
vn -0.9945 -0.0933 -0.0475
vn -0.9947 -0.0885 0.0521
vn -0.9945 -0.0899 -0.0529
vn -0.9952 -0.0974 0.0006
vn -0.9969 -0.0744 0.0264
vn -0.9987 -0.0512 0.0004
vn -0.9930 -0.0659 -0.0985
vn -0.9972 -0.0595 0.0458
vn -0.9970 -0.0768 0.0109
vn -0.9972 -0.0595 -0.0458
vn -0.9945 -0.0675 -0.0797
vn -0.6364 -0.7697 -0.0511
vn -0.6332 -0.7731 -0.0371
vn -0.6298 -0.7768 -0.0006
vn -0.6336 -0.7726 0.0392
vn -0.6372 -0.7687 0.0562
vn -0.7875 0.6163 -0.0000
vn -0.7873 0.6165 0.0002
vn -0.9391 0.3437 0.0003
vn -0.9391 0.3436 0.0002
vn -0.9923 0.1241 0.0002
vn -0.9923 0.1240 0.0002
vn -0.2299 0.9732 -0.0001
vn -0.2300 0.9732 -0.0000
vn -0.5483 0.8363 -0.0002
vn -0.5484 0.8362 -0.0004
vn -0.7874 0.6164 0.0001
vn -0.7875 0.6164 0.0000
vn -1.0000 0.0010 -0.0003
vn -1.0000 0.0010 -0.0002
vn -0.2299 0.9732 0.0001
vn -0.2299 0.9732 0.0000
vn 0.2178 0.9760 -0.0000
vn 0.8036 -0.5951 -0.0001
vn 0.8036 -0.5951 -0.0006
vn 0.9524 -0.3048 -0.0003
vn 0.9525 -0.3046 -0.0001
vn 0.9969 -0.0783 0.0002
vn 0.9970 -0.0780 0.0002
vn 1.0000 -0.0006 -0.0004
vn 0.0006 -0.0000 -1.0000
vn 0.0001 0.0000 -1.0000
vn 0.0003 -0.0001 -1.0000
vn -0.0001 0.0001 -1.0000
vn -0.0003 -0.0000 -1.0000
vn -0.0002 -0.0001 -1.0000
vn 0.0005 -0.0002 1.0000
vn 0.0001 -0.0001 1.0000
vn 0.0006 0.0002 1.0000
vn 0.0000 0.0000 1.0000
vn 0.0004 0.0001 1.0000
vn 0.0005 0.0001 1.0000
vn -0.0004 0.0000 -1.0000
vn 0.0005 0.0002 -1.0000
vn 0.0000 -0.0002 -1.0000
vn -0.0011 -0.0001 -1.0000
vn 0.0017 0.0000 1.0000
vn -0.0001 0.0000 1.0000
vn 0.0002 0.0000 1.0000
vn -0.0004 -0.0000 1.0000
vn -0.0000 -0.0002 1.0000
vn 0.0003 0.0000 1.0000
vn 0.0002 -0.0001 1.0000
vn 0.0003 -0.0001 1.0000
vn 0.0006 -0.0000 1.0000
vn 0.0005 -0.0000 1.0000
vn -0.0010 -1.0000 0.0000
vn 0.0001 -0.0001 -1.0000
vn 0.0002 -0.0001 -1.0000
vn 0.0001 0.0001 1.0000
vn 0.0000 0.0001 1.0000
vn 0.0000 0.0002 1.0000
vn -0.0000 0.0002 -1.0000
vn 0.9963 0.0854 -0.0001
vn 0.9963 0.0854 0.0001
vn 0.9403 0.3404 -0.0001
vn 0.9403 0.3403 -0.0003
vn 0.7762 0.6304 -0.0001
vn 0.7760 0.6307 -0.0003
vn 0.6664 0.7456 -0.0003
vn 0.7762 0.6305 0.0000
vn 0.6661 0.7459 0.0001
vn 0.7763 0.6304 0.0000
vn 1.0000 -0.0010 0.0005
vn 0.9963 0.0854 -0.0002
vn -0.7886 -0.6149 -0.0002
vn -0.7264 -0.6872 0.0003
vn -0.7268 -0.6869 -0.0002
vn -0.9534 -0.3017 -0.0000
vn -0.9534 -0.3017 0.0003
vn -0.9998 -0.0222 0.0004
vn -0.9998 -0.0222 0.0003
vn -1.0000 0.0014 0.0000
vn -1.0000 0.0014 0.0007
vn 0.3759 -0.5602 0.7382
vn 0.8017 -0.5005 0.3267
vn 0.9211 0.0154 0.3891
vn 0.4578 -0.0280 0.8886
vn 0.8482 0.3869 0.3618
vn 0.4171 0.4061 0.8131
vn -0.6946 0.0184 0.7192
vn -0.5612 -0.5433 0.6243
vn -0.1569 -0.5925 0.7901
vn -0.2229 -0.0306 0.9744
vn -0.2179 0.4208 0.8806
vn -0.6447 0.4210 0.6381
vn 0.0895 -0.0490 0.9948
vn 0.0741 -0.5714 0.8173
vn -0.0993 0.9020 0.4201
vn 0.0794 0.4057 0.9106
vn 0.4576 -0.0281 0.8887
vn -0.3738 0.8384 0.3967
vn 0.3763 -0.5601 0.7381
vn 0.0310 0.8973 0.4403
vn 0.2373 0.8307 0.5035
vn 0.4172 0.4062 0.8130
vn 0.4170 0.4063 0.8131
vn 0.8481 0.3872 0.3618
vn 0.2373 0.8307 0.5036
vn 0.3810 0.9023 0.2015
vn -0.0010 0.9979 0.0641
vn 0.0309 0.8974 0.4402
vn 0.4613 0.8873 0.0000
vn -0.0994 0.9020 0.4200
vn -0.0173 0.9980 0.0603
vn 0.0008 1.0000 0.0000
vn -0.0194 0.9998 0.0000
vn -0.0012 0.9979 -0.0641
vn 0.3810 0.9023 -0.2016
vn -0.3743 0.8383 0.3964
vn -0.3999 0.9070 0.1318
vn -0.4143 0.9101 0.0000
vn -0.0174 0.9980 -0.0603
vn 0.2374 0.8306 -0.5037
vn 0.0308 0.8974 -0.4402
vn 0.8481 0.3870 -0.3619
vn -0.3999 0.9070 -0.1318
vn -0.0995 0.9020 -0.4201
vn -0.3744 0.8383 -0.3963
vn 0.4172 0.4059 -0.8131
vn 0.8020 -0.5003 0.3263
vn 0.3761 -0.5599 0.7383
vn 0.2368 -0.8520 0.4669
vn 0.5380 -0.8184 0.2022
vn 0.9136 -0.4066 -0.0000
vn 0.6703 -0.7421 -0.0000
vn 0.5379 -0.8184 -0.2022
vn 0.8019 -0.5004 -0.3265
vn 0.2366 -0.8521 -0.4668
vn 0.3761 -0.5601 -0.7381
vn 0.2366 -0.8522 0.4667
vn 0.3761 -0.5602 0.7380
vn 0.0741 -0.5715 0.8173
vn 0.0469 -0.8589 0.5101
vn -0.0798 -0.8917 0.4455
vn -0.1576 -0.5925 0.7900
vn -0.5626 -0.5433 0.6232
vn -0.3290 -0.8665 0.3754
vn -0.3283 -0.8667 0.3756
vn -0.5620 -0.5436 0.6234
vn -0.8838 -0.4075 0.2298
vn -0.6538 -0.7363 0.1746
vn -0.6537 -0.7363 0.1748
vn -0.8837 -0.4076 0.2299
vn -0.7786 -0.6275 0.0001
vn -0.9434 -0.3318 0.0000
vn -0.8837 -0.4077 -0.2297
vn -0.6532 -0.7368 -0.1747
vn -0.9992 0.0391 0.0001
vn -0.9699 0.0426 0.2399
vn -0.5625 -0.5435 0.6231
vn -0.6952 0.0184 0.7186
vn -0.8866 0.4067 0.2203
vn -0.9699 0.0427 -0.2398
vn -0.5624 -0.5434 -0.6232
vn -0.9165 0.4001 0.0000
vn -0.8865 0.4068 -0.2203
vn -0.6951 0.0184 -0.7186
vn -0.6451 0.4210 0.6377
vn -0.3742 0.8383 0.3965
vn -0.4002 0.9069 0.1316
vn -0.4146 0.9100 0.0000
vn -0.3997 0.9071 -0.1317
vn -0.3743 0.8383 -0.3964
vn -0.6453 0.4208 -0.6376
vn 0.9137 -0.4065 -0.0000
vn 0.9211 0.0155 0.3890
vn 0.9994 0.0354 -0.0000
vn 0.8482 0.3870 0.3617
vn 0.9211 0.0155 -0.3890
vn 0.8019 -0.5004 -0.3264
vn 0.8482 0.3869 -0.3618
vn 0.3810 0.9023 0.2016
vn 0.4613 0.8872 -0.0000
vn 0.3811 0.9023 -0.2016
vn -0.9963 -0.0864 -0.0005
vn -0.9961 -0.0880 0.0083
vn -0.9963 -0.0864 -0.0006
vn -0.9961 -0.0881 0.0083
vn -0.9959 -0.0907 0.0072
vn -0.9961 -0.0885 -0.0057
vn -0.9961 -0.0886 -0.0057
vn -0.9961 -0.0881 -0.0065
vn -0.9961 -0.0878 -0.0064
vn -0.9961 -0.0878 0.0073
vn -0.9961 -0.0879 0.0073
vn -0.9956 -0.0868 0.0356
vn -0.9956 -0.0867 0.0356
vn -0.9955 -0.0852 0.0417
vn -0.9982 -0.0596 0.0063
vn -0.9982 -0.0596 0.0065
vn -0.9998 -0.0051 -0.0181
vn -0.9998 -0.0051 -0.0180
vn -0.9995 0.0264 -0.0185
vn -0.9995 0.0264 -0.0186
vn -0.0635 0.7342 0.6760
vn -0.0776 0.8969 0.4355
vn -0.0776 0.8969 0.4354
vn -0.0842 0.9753 0.2043
vn -0.0840 0.9752 0.2048
vn -0.0860 0.9963 0.0081
vn -0.0861 0.9963 0.0084
vn -0.0847 0.9800 -0.1798
vn -0.0848 0.9800 -0.1799
vn -0.0783 0.9031 -0.4222
vn -0.0783 0.9035 -0.4214
vn -0.0631 0.7330 -0.6773
vn -0.0631 0.7330 -0.6772
vn -0.0347 0.4046 0.9138
vn -0.0630 0.7341 0.6762
vn -0.0631 0.7341 0.6761
vn -0.0352 0.4047 0.9138
vn 0.0025 -0.0288 0.9996
vn 0.0023 -0.0288 0.9996
vn 0.0136 -0.1535 0.9881
vn 0.0135 -0.1535 0.9881
vn 0.0038 -0.0386 0.9992
vn 0.0039 -0.0386 0.9992
vn -0.0015 0.0437 0.9990
vn 0.0003 0.0570 0.9984
vn 0.0001 0.0570 0.9984
vn 0.0017 0.0523 0.9986
vn 0.0020 0.0528 0.9986
vn -0.0023 0.0189 0.9998
vn -0.4126 -0.8129 0.4110
vn -0.0062 -0.5394 0.8420
vn -0.0016 0.8370 0.5472
vn -0.0071 0.4684 0.8835
vn 0.0671 -0.6983 0.7126
vn 0.0910 0.0311 0.9954
vn 0.3291 -0.7171 0.6143
vn 0.4657 0.0153 0.8848
vn 0.6316 -0.7302 0.2607
vn 0.4656 0.0152 0.8849
vn 0.3291 -0.7171 0.6144
vn 0.9226 0.0110 0.3856
vn 0.9226 0.0113 0.3855
vn 0.6315 -0.7301 0.2609
vn 0.7163 -0.6978 0.0002
vn -0.7079 -0.7063 0.0001
vn -0.4127 -0.8128 0.4111
vn -1.0000 0.0012 -0.0013
vn -0.8939 0.4483 -0.0006
vn -0.7074 -0.7068 0.0000
vn 0.0816 -0.9490 -0.3046
vn 0.0822 -0.9490 -0.3043
vn 0.0843 -0.9752 -0.2046
vn 0.0844 -0.9753 -0.2043
vn 0.0862 -0.9962 -0.0091
vn 0.0859 -0.9963 -0.0090
vn 0.0849 -0.9814 0.1721
vn 0.0848 -0.9815 0.1719
vn 0.0832 -0.9624 0.2586
vn 0.0835 -0.9623 0.2588
vn 0.9993 0.0169 0.0345
vn 0.9995 0.0052 0.0324
vn 0.9995 0.0052 0.0325
vn 0.9993 0.0169 0.0346
vn 0.9982 0.0534 0.0281
vn 0.9966 0.0821 0.0119
vn 0.9963 0.0858 0.0021
vn 0.9963 0.0859 0.0021
vn 0.9963 0.0862 0.0004
vn 0.9963 0.0863 0.0003
vn 0.9963 0.0862 -0.0003
vn 0.9963 0.0861 -0.0002
vn 0.9964 0.0850 -0.0010
vn 0.9964 0.0851 -0.0011
vn 0.9963 0.0858 -0.0072
vn 0.9963 0.0860 -0.0071
vn 0.9962 0.0872 -0.0065
vn 0.9962 0.0873 -0.0061
vn 0.9963 0.0864 0.0007
vn 0.9963 0.0862 0.0007
vn 0.9959 0.0900 0.0042
vn 0.9959 0.0900 0.0043
vn 0.9958 0.0920 0.0021
vn 0.9958 0.0920 0.0020
vn 0.9961 0.0883 -0.0012
vn 0.9961 0.0882 -0.0010
vn 0.9963 0.0861 -0.0000
vn 0.9963 0.0861 0.0004
vn 0.9963 0.0861 0.0002
vn 0.9963 0.0859 -0.0025
vn 0.9963 0.0858 -0.0024
vn 0.9965 0.0822 -0.0121
vn 0.9965 0.0822 -0.0122
vn 0.9982 0.0535 -0.0280
vn 0.9982 0.0535 -0.0279
vn 0.9993 0.0156 -0.0347
vn 0.9993 0.0156 -0.0346
vn 0.9995 0.0029 -0.0326
vn 0.0024 -0.0683 -0.9977
vn 0.0023 -0.0683 -0.9977
vn 0.0037 -0.0620 -0.9981
vn 0.0035 -0.0622 -0.9981
vn 0.0051 -0.0553 -0.9985
vn 0.0048 -0.0555 -0.9984
vn -0.6224 -0.7364 -0.2651
vn -0.7061 -0.7081 -0.0008
vn 0.7162 -0.6979 -0.0001
vn 0.6317 -0.7301 0.2608
vn -0.2904 -0.7267 -0.6225
vn 0.3292 -0.7172 0.6142
vn -0.0366 -0.7072 -0.7061
vn 0.0673 -0.6984 0.7125
vn -0.0062 -0.5393 0.8421
vn -0.4126 -0.8128 0.4113
vn -0.7077 -0.7065 0.0001
vn -0.8940 0.4482 -0.0006
vn 0.0021 1.0000 -0.0004
vn 0.0013 1.0000 -0.0000
vn 0.0026 1.0000 -0.0023
vn -0.0015 0.8370 0.5472
vn 0.0004 1.0000 -0.0024
vn -0.0070 0.4683 0.8835
vn -0.0003 -1.0000 -0.0000
vn 0.0018 -1.0000 -0.0019
vn -0.0005 -1.0000 -0.0015
vn 0.0012 -1.0000 0.0001
vn 0.0037 -1.0000 -0.0022
vn 0.0014 -1.0000 0.0020
vn -0.0005 -1.0000 0.0014
vn 0.0035 -1.0000 0.0023
vn 0.0037 -1.0000 0.0000
vn 0.0034 -1.0000 -0.0019
vn 0.0040 -1.0000 0.0021
vn 0.0038 -1.0000 0.0001
vn -0.6373 -0.7686 0.0562
vn 0.4741 -0.8772 0.0764
vn 0.6581 -0.6431 0.3915
vn -0.6336 -0.7727 0.0391
vn 0.4691 -0.8831 -0.0010
vn -0.6298 -0.7767 -0.0006
vn -0.0001 0.0000 -1.0000
vn -0.0002 -0.0000 -1.0000
vn -0.0005 -0.0001 -1.0000
vn -0.0021 -0.0000 -1.0000
vn 0.0009 0.0001 1.0000
vn 0.0003 0.0001 1.0000
vn 0.0007 -0.0000 1.0000
vn 0.0015 -0.0001 1.0000
vn -0.0008 0.0001 -1.0000
vn 0.0005 0.0003 -1.0000
vn 0.0000 0.0003 -1.0000
vn 0.0010 0.0001 -1.0000
vn 0.0007 0.0001 1.0000
vn 0.0004 0.0000 1.0000
vn -0.0002 -0.0000 1.0000
vn -0.0000 0.0000 -1.0000
vn -0.9923 0.1241 0.0000
vn -0.9923 0.1242 0.0000
vn -0.9392 0.3434 0.0003
vn -0.9391 0.3437 -0.0000
vn -0.7873 0.6166 0.0001
vn -0.7874 0.6165 0.0002
vn -0.7876 0.6161 -0.0001
vn -0.5484 0.8362 -0.0000
vn -0.5485 0.8361 0.0001
vn -0.2297 0.9733 0.0001
vn -0.2301 0.9732 -0.0000
vn -1.0000 0.0010 0.0003
vn -0.9923 0.1241 -0.0001
vn 0.8039 -0.5948 0.0002
vn 0.8036 -0.5952 -0.0000
vn 0.5376 -0.8432 -0.0002
vn 0.5377 -0.8431 -0.0002
vn 0.1862 -0.9825 -0.0001
vn 0.1861 -0.9825 -0.0000
vn -0.1658 -0.9862 0.0001
vn -0.1657 -0.9862 0.0000
vn -0.3262 -0.9453 -0.0000
vn -0.3263 -0.9453 0.0000
vn 1.0000 -0.0006 -0.0003
vn 0.9969 -0.0783 -0.0001
vn 0.9969 -0.0788 -0.0001
vn 0.9523 -0.3051 -0.0002
vn 0.9523 -0.3051 -0.0003
vn 0.8037 -0.5951 -0.0004
vn -0.0005 0.0000 1.0000
vn 0.0008 0.0005 1.0000
vn 0.0011 -0.0001 1.0000
vn 0.0006 0.0001 -1.0000
vn 0.0001 0.0000 1.0000
vn 0.0005 -0.0001 1.0000
vn 0.0016 -0.0000 1.0000
vn 0.0003 0.0000 -1.0000
vn 0.0004 -0.0002 -1.0000
vn 0.0002 -0.0003 -1.0000
vn -0.0004 0.0001 -1.0000
vn -0.0007 0.0000 -1.0000
vn -0.0005 0.0001 -1.0000
vn -0.0005 0.0000 -1.0000
vn -0.0001 -0.0001 1.0000
vn 0.0000 -0.0001 1.0000
vn 0.7765 0.6301 0.0003
vn 0.7763 0.6304 -0.0001
vn 0.9404 0.3401 -0.0003
vn 0.9963 0.0854 0.0000
vn 0.9963 0.0855 -0.0002
vn 0.2180 0.9759 -0.0000
vn 0.2178 0.9760 -0.0001
vn 0.4244 0.9055 -0.0001
vn 1.0000 -0.0010 -0.0004
vn -0.9998 -0.0221 0.0003
vn -1.0000 0.0014 0.0002
vn -0.9997 -0.0225 0.0001
vn -0.9533 -0.3019 0.0003
vn -0.9534 -0.3018 0.0001
vn -0.7888 -0.6147 0.0001
vn -0.7890 -0.6144 -0.0003
vn -0.7270 -0.6867 -0.0000
vn -0.7267 -0.6870 0.0001
vn 0.0002 0.0003 1.0000
vn -0.0001 0.0002 1.0000
vn -0.0006 -0.0000 -1.0000
vn -0.0000 0.0004 -1.0000
vn 0.0001 -0.0005 -1.0000
vn -0.0006 -0.0003 -1.0000
vn -0.0013 0.0000 1.0000
vn 0.0009 0.0000 -1.0000
vn -0.0008 0.0000 -1.0000
vn -0.0009 0.0000 -1.0000
vn 0.0005 -0.0000 -1.0000
vn -0.0001 -0.0001 -1.0000
vn -0.0000 -0.0001 -1.0000
vn -0.0000 -0.0003 -1.0000
vn 0.2176 0.9760 -0.0003
vn 0.4244 0.9055 0.0003
vn 0.2179 0.9760 -0.0000
vn 0.4245 0.9054 -0.0000
vn -0.0009 -0.0000 1.0000
vn -0.0008 -0.0000 1.0000
vn -0.0007 -0.0000 1.0000
vn -0.0006 -0.0000 1.0000
vn -0.3268 -0.9451 0.0001
vn -0.3263 -0.9453 -0.0001
vn -0.1660 -0.9861 0.0000
vn -0.1656 -0.9862 -0.0001
vn 0.1867 -0.9824 0.0001
vn 0.5377 -0.8431 0.0002
vn 0.5377 -0.8431 -0.0001
vn 0.8038 -0.5949 -0.0000
vn 0.8037 -0.5951 -0.0010
vn 0.0007 -0.0000 -1.0000
vn 0.0002 0.0000 -1.0000
vn 0.6663 0.7457 -0.0002
vn 0.6662 0.7458 -0.0002
vn 0.7762 0.6305 -0.0001
vn -0.0017 0.0002 -1.0000
vn 0.0002 0.0001 -1.0000
vn 0.5152 0.8561 -0.0401
vn 0.3288 0.9332 -0.1449
vn 0.8503 0.5203 0.0791
vn -0.7817 0.6099 -0.1303
vn 0.8698 0.4931 -0.0181
vn 0.3359 0.9419 0.0026
vn -0.7863 0.6178 0.0032
vn 0.8669 0.4984 -0.0019
vn 0.8701 0.4927 0.0169
vn 0.3301 0.9319 0.1501
vn 0.8574 0.5099 -0.0697
vn 0.5285 0.8473 0.0526
usemtl t1/levels/hunter-city/hotel/restaurant/outsource/hun-hot-ball-c
s 1
f 1/1/1 2/2/2 3/3/3
f 4/4/4 5/5/5 6/6/6
f 5/5/5 7/7/7 6/6/6
f 5/5/5 8/8/8 7/7/7
f 6/6/6 7/7/7 9/9/9
f 10/10/10 7/7/7 8/8/8
f 11/11/11 7/7/7 10/10/10
f 7/7/7 12/12/12 9/9/9
f 11/11/11 13/13/13 7/7/7
f 13/13/13 12/12/12 7/7/7
f 12/12/12 14/14/14 9/9/9
f 13/13/13 11/11/11 15/15/15
f 14/14/14 12/12/12 16/16/16
f 16/16/16 12/12/12 17/17/17
f 18/18/18 17/17/17 12/12/12
f 13/13/13 19/19/19 12/12/12
f 18/18/18 12/12/12 19/19/19
f 13/13/13 20/20/20 19/19/19
f 13/13/13 21/21/21 20/20/20
f 15/15/15 21/21/21 13/13/13
f 15/15/15 22/22/22 21/21/21
f 23/23/23 21/21/21 22/22/22
f 23/23/23 20/20/20 21/21/21
f 24/24/24 16/16/16 17/17/17
f 25/25/25 19/19/19 20/20/20
f 26/26/26 18/18/18 19/19/19
f 19/19/19 25/25/25 26/26/26
f 27/27/27 20/20/20 23/23/23
f 27/27/27 25/25/25 20/20/20
f 27/27/27 26/26/26 25/25/25
f 28/28/28 17/17/17 18/18/18
f 29/29/29 28/28/28 18/18/18
f 26/26/26 30/30/30 18/18/18
f 29/29/29 18/18/18 30/30/30
f 31/31/31 30/30/30 26/26/26
f 27/27/27 31/31/31 26/26/26
f 29/29/29 30/30/30 32/32/32
f 31/31/31 32/32/32 30/30/30
f 28/28/28 33/33/33 17/17/17
f 24/24/24 17/17/17 34/34/34
f 35/35/35 24/24/24 34/34/34
f 33/33/33 36/36/36 17/17/17
f 34/34/34 17/17/17 36/36/36
f 37/37/37 38/38/38 39/39/39
f 37/37/37 40/40/40 38/38/38
f 41/41/41 38/38/38 40/40/40
f 42/42/42 41/41/41 40/40/40
f 43/43/43 42/42/44 44/44/45
f 43/43/43 45/45/46 42/42/44
f 46/46/47 42/42/44 45/45/46
f 43/43/43 44/44/45 47/47/48
f 46/46/47 45/45/46 48/48/49
f 43/43/43 49/49/50 45/45/46
f 45/45/46 49/49/50 50/50/51
f 48/48/49 45/45/46 50/50/51
f 51/51/52 43/43/43 47/47/48
f 43/43/43 51/51/52 52/52/53
f 43/43/43 52/52/53 49/49/50
f 49/49/50 52/52/53 53/53/54
f 54/54/55 49/49/50 53/53/54
f 50/50/51 49/49/50 54/54/55
f 51/51/52 55/55/56 52/52/53
f 55/55/56 53/53/54 52/52/53
f 50/50/51 54/54/55 56/56/57
f 55/55/56 57/57/58 53/53/54
f 58/58/59 59/59/60 60/60/61
f 58/58/59 60/60/61 61/61/62
f 58/58/59 61/61/62 62/62/63
f 58/58/59 62/62/63 63/63/64
f 64/64/65 63/63/64 62/62/63
f 64/64/65 62/62/63 65/65/66
f 66/66/67 67/67/68 68/68/69
f 66/66/67 68/68/69 69/69/70
f 70/70/71 71/71/72 72/72/73
f 70/70/71 72/72/73 73/73/73
f 74/74/74 73/73/73 72/72/73
f 74/74/74 72/72/73 75/75/75
f 74/74/74 75/75/75 76/76/76
f 75/75/75 77/77/77 76/76/76
f 77/77/77 78/78/78 76/76/76
f 78/78/78 79/79/79 76/76/76
f 80/80/80 79/79/79 78/78/78
f 80/80/80 81/81/81 79/79/79
f 82/82/82 81/81/81 80/80/80
f 82/82/82 83/83/83 81/81/81
f 83/83/83 82/82/82 84/84/84
f 83/83/83 84/84/84 85/85/85
f 86/86/86 85/85/85 84/84/84
f 86/86/86 84/84/84 87/87/87
f 87/87/87 88/88/88 86/86/86
f 87/87/87 89/89/88 88/88/88
f 90/90/89 88/88/88 89/89/88
f 90/90/89 91/91/90 88/88/88
f 92/92/91 93/93/92 94/94/93
f 95/95/94 92/92/91 94/94/93
f 96/96/95 92/92/91 95/95/94
f 96/96/95 97/97/96 92/92/91
f 98/98/97 97/97/96 96/96/95
f 99/99/98 98/98/97 96/96/95
f 98/98/97 99/99/98 100/100/99
f 99/99/98 101/101/100 100/100/99
f 100/100/99 101/101/100 102/102/101
f 101/101/100 103/103/102 102/102/101
f 104/104/103 102/102/101 103/103/102
f 104/104/103 105/105/104 102/102/101
f 104/104/103 106/106/105 105/105/104
f 106/106/105 107/107/105 105/105/104
f 108/108/106 109/109/107 110/110/108
f 111/111/109 108/108/106 110/110/108
f 108/108/106 111/111/109 112/112/110
f 113/113/111 108/108/106 112/112/110
f 113/113/111 112/112/110 114/114/112
f 115/115/113 113/113/111 114/114/112
f 115/115/113 114/114/112 116/116/114
f 117/117/115 115/115/116 118/118/117
f 117/117/115 118/118/117 119/119/118
f 120/120/115 121/121/119 122/122/120
f 120/120/115 122/122/120 123/123/121
f 124/124/122 125/125/123 126/126/124
f 124/124/122 127/127/125 125/125/123
f 127/127/125 128/128/126 125/125/123
f 127/127/125 129/129/127 128/128/126
f 130/130/128 131/131/129 132/132/130
f 131/131/129 133/133/131 132/132/130
f 134/134/132 133/133/131 131/131/129
f 134/134/132 131/131/129 135/135/133
f 136/136/134 137/137/135 138/138/136
f 136/136/134 138/138/136 139/139/137
f 139/139/137 138/138/136 140/140/138
f 141/141/139 139/139/137 140/140/138
f 140/140/138 142/142/140 141/141/139
f 140/140/138 143/143/141 142/142/140
f 142/142/140 143/143/141 144/144/106
f 143/143/141 145/145/142 144/144/106
f 144/144/106 145/145/142 146/146/143
f 145/145/142 147/147/144 146/146/143
f 147/147/144 145/145/142 148/148/145
f 149/149/146 147/147/144 148/148/145
f 150/150/147 151/151/148 152/152/149
f 153/153/150 152/152/149 151/151/148
f 154/154/151 152/152/149 153/153/150
f 154/154/151 155/155/109 152/152/149
f 156/156/152 155/155/109 154/154/151
f 155/155/109 156/156/152 157/157/153
f 158/158/154 159/159/155 160/160/156
f 159/159/155 161/161/157 160/160/156
f 162/162/158 163/163/159 164/164/160
f 163/163/159 165/165/161 164/164/160
f 163/163/159 166/166/162 165/165/161
f 166/166/162 167/167/163 165/165/161
f 166/166/162 168/168/164 167/167/163
f 168/168/164 169/169/165 167/167/163
f 170/170/166 171/171/167 172/172/168
f 171/171/167 173/173/169 172/172/168
f 174/174/170 175/175/142 176/176/171
f 175/175/142 177/177/172 176/176/171
f 178/178/142 179/179/173 180/180/172
f 179/179/173 181/181/174 180/180/172
f 179/179/173 182/182/175 181/181/174
f 182/182/175 183/183/176 181/181/174
f 184/184/177 185/185/178 186/186/179
f 185/185/178 187/187/180 186/186/179
f 185/185/178 188/188/181 187/187/180
f 188/188/181 189/189/182 187/187/180
f 190/190/183 191/191/184 192/192/185
f 193/193/186 190/190/183 192/192/185
f 190/190/183 193/193/186 194/194/187
f 193/193/186 192/192/185 195/195/188
f 194/194/187 193/193/186 196/196/189
f 193/193/186 195/195/188 197/197/190
f 196/196/189 193/193/186 198/198/191
f 199/199/192 196/196/189 198/198/191
f 198/198/191 193/193/186 200/200/193
f 201/201/194 200/200/193 193/193/186
f 197/197/190 202/202/195 193/193/186
f 203/203/196 201/201/194 193/193/186
f 193/193/186 204/204/197 203/203/196
f 204/204/197 193/193/186 202/202/195
f 202/202/195 197/197/190 205/205/198
f 206/206/199 204/204/197 202/202/195
f 203/203/196 204/204/197 206/206/199
f 201/201/194 203/203/196 207/207/200
f 206/206/199 202/202/195 208/208/201
f 209/209/202 208/208/201 202/202/195
f 205/205/198 209/209/202 202/202/195
f 203/203/196 206/206/199 210/210/203
f 211/211/204 207/207/200 203/203/196
f 211/211/204 203/203/196 210/210/203
f 208/208/201 209/209/202 212/212/205
f 213/213/206 208/208/201 212/212/205
f 206/206/199 208/208/201 213/213/206
f 214/214/207 206/206/199 213/213/206
f 206/206/199 214/214/207 215/215/208
f 210/210/203 206/206/199 215/215/208
f 210/210/203 215/215/208 216/216/209
f 211/211/204 210/210/203 216/216/209
f 217/217/210 218/218/211 219/219/212
f 218/218/211 220/220/213 219/219/212
f 219/219/212 220/220/213 221/221/214
f 220/220/213 222/222/215 221/221/214
f 223/223/216 224/224/217 225/225/218
f 224/224/217 226/226/219 225/225/218
f 225/225/218 226/226/219 227/227/220
f 226/226/219 228/228/221 227/227/220
f 229/229/222 230/230/214 231/231/223
f 230/230/214 232/232/214 231/231/223
f 233/233/224 234/234/225 235/235/226
f 234/234/225 236/236/226 235/235/226
f 237/237/227 238/238/228 239/239/229
f 240/240/230 237/237/227 239/239/229
f 240/240/230 239/239/229 241/241/231
f 242/242/232 240/240/230 241/241/231
f 242/242/232 241/241/231 243/243/233
f 241/241/231 244/244/233 243/243/233
f 245/245/234 246/246/235 247/247/236
f 246/246/235 248/248/237 247/247/236
f 248/248/237 246/246/235 249/249/238
f 246/246/235 250/250/239 249/249/238
f 251/251/240 252/252/241 253/253/242
f 252/252/241 254/254/243 253/253/242
f 253/253/242 254/254/243 255/255/244
f 254/254/243 256/256/245 255/255/244
f 257/257/238 258/258/238 259/259/246
f 258/258/238 260/260/247 259/259/246
f 260/260/247 258/258/238 261/261/248
f 258/258/238 262/262/249 261/261/248
f 263/263/250 264/264/251 265/265/252
f 264/264/251 266/266/253 265/265/252
f 265/265/252 266/266/253 267/267/254
f 266/266/253 268/268/255 267/267/254
f 269/269/256 270/270/257 271/271/258
f 270/270/257 272/272/259 271/271/258
f 273/273/260 274/274/260 275/275/260
f 274/274/260 276/276/260 275/275/260
f 277/277/261 278/278/238 279/279/262
f 278/278/238 280/280/246 279/279/262
f 281/281/263 282/282/263 283/283/264
f 282/282/263 284/284/265 283/283/264
f 285/285/248 286/286/248 287/287/266
f 286/286/248 288/288/266 287/287/266
f 289/289/267 290/290/268 291/291/269
f 292/292/270 289/289/267 291/291/269
f 292/292/270 291/291/269 293/293/271
f 294/294/272 292/292/270 293/293/271
f 295/295/273 296/296/274 297/297/275
f 296/296/274 298/298/276 297/297/275
f 299/299/277 300/300/277 301/301/278
f 300/300/277 302/302/278 301/301/278
f 303/303/279 304/304/280 305/305/281
f 306/306/279 303/303/279 305/305/281
f 307/307/282 303/303/279 306/306/279
f 308/308/283 307/307/282 306/306/279
f 309/309/284 307/307/282 308/308/283
f 310/310/285 309/309/284 308/308/283
f 310/310/285 311/311/286 309/309/284
f 311/311/286 312/312/287 309/309/284
f 313/313/288 314/314/289 315/315/290
f 313/313/288 315/315/290 316/316/291
f 316/316/291 315/315/290 317/317/292
f 318/318/293 316/316/291 317/317/292
f 319/319/294 320/320/295 321/321/296
f 319/319/294 321/321/296 322/322/297
f 319/319/294 322/322/297 323/323/298
f 324/324/299 319/319/294 323/323/298
f 325/325/300 322/322/297 321/321/296
f 323/323/298 322/322/297 325/325/300
f 326/326/301 325/325/300 321/321/296
f 324/324/299 323/323/298 327/327/302
f 328/328/303 327/327/302 323/323/298
f 328/328/303 323/323/298 325/325/300
f 326/326/301 329/329/304 325/325/300
f 328/328/303 325/325/300 329/329/304
f 324/324/299 327/327/302 330/330/305
f 326/326/301 331/331/306 329/329/304
f 328/328/303 332/332/307 327/327/302
f 328/328/303 333/333/308 332/332/307
f 334/334/309 328/328/303 329/329/304
f 328/328/303 334/334/309 333/333/308
f 335/335/310 336/336/311 337/337/312
f 336/336/311 338/338/313 337/337/312
f 337/337/312 338/338/313 339/339/314
f 337/337/312 339/339/314 340/340/315
f 338/338/313 341/341/316 339/339/314
f 340/340/315 339/339/314 342/342/317
f 339/339/314 343/343/318 342/342/317
f 341/341/316 344/344/319 339/339/314
f 339/339/314 344/344/319 345/345/320
f 339/339/314 345/345/320 343/343/318
f 346/346/321 344/344/319 341/341/316
f 344/344/319 346/346/321 345/345/320
f 347/347/322 346/346/321 341/341/316
f 343/343/318 348/348/323 342/342/317
f 343/343/318 349/349/324 348/348/323
f 343/343/318 350/350/325 349/349/324
f 343/343/318 345/345/320 350/350/325
f 346/346/321 351/351/326 345/345/320
f 350/350/325 345/345/320 351/351/326
f 346/346/321 347/347/322 352/352/327
f 346/346/321 352/352/327 353/353/328
f 346/346/321 353/353/328 351/351/326
f 347/347/322 354/354/329 352/352/327
f 350/350/325 351/351/326 355/355/330
f 353/353/328 356/356/331 351/351/326
f 351/351/326 356/356/331 357/357/332
f 351/351/326 357/357/332 355/355/330
f 354/354/329 358/358/333 352/352/327
f 359/359/334 360/360/335 361/361/336
f 359/359/334 361/361/336 362/362/337
f 362/362/337 363/363/338 359/359/334
f 362/362/337 364/364/339 363/363/338
f 363/363/338 364/364/339 365/365/340
f 363/363/338 365/365/340 366/366/341
f 366/366/341 365/365/340 367/367/342
f 366/366/341 367/367/342 368/368/343
f 369/369/344 370/370/345 371/371/346
f 369/369/344 371/371/346 372/372/347
f 372/372/347 371/371/346 373/373/348
f 371/371/346 374/374/349 373/373/348
f 373/373/348 374/374/349 375/375/350
f 373/373/348 375/375/350 376/376/351
f 377/377/352 378/378/353 379/379/354
f 377/377/352 379/379/354 380/380/355
f 381/381/356 382/382/357 383/383/358
f 382/382/357 384/384/359 383/383/358
f 383/383/358 384/384/359 385/385/360
f 386/386/361 383/383/358 385/385/360
f 384/384/359 382/382/357 387/387/362
f 384/384/359 387/387/362 385/385/360
f 382/382/357 388/388/363 387/387/362
f 388/388/363 382/382/357 389/389/364
f 388/388/363 389/389/364 390/390/365
f 391/391/366 387/387/362 388/388/363
f 391/391/366 388/388/363 390/390/365
f 387/387/362 392/392/367 385/385/360
f 393/393/368 385/385/360 392/392/367
f 391/391/366 394/394/369 387/387/362
f 395/395/370 387/387/362 394/394/369
f 395/395/370 392/392/367 387/387/362
f 393/393/368 392/392/367 396/396/371
f 392/392/367 395/395/370 396/396/371
f 397/397/372 391/391/366 390/390/365
f 391/391/366 397/397/372 398/398/373
f 391/391/366 398/398/373 399/399/374
f 394/394/369 391/391/366 399/399/374
f 394/394/369 399/399/374 400/400/375
f 394/394/369 400/400/375 401/401/376
f 394/394/369 401/401/376 395/395/370
f 402/402/377 395/395/370 401/401/376
f 402/402/377 403/403/378 395/395/370
f 395/395/370 403/403/378 396/396/371
f 404/404/334 405/405/379 406/406/380
f 405/405/379 407/407/381 406/406/380
f 408/408/382 406/406/380 407/407/381
f 409/409/383 407/407/381 405/405/379
f 410/410/384 409/409/383 405/405/379
f 408/408/382 407/407/381 411/411/269
f 412/412/385 411/411/269 407/407/381
f 412/412/385 407/407/381 409/409/383
f 411/411/269 413/413/386 408/408/382
f 411/411/269 414/414/387 413/413/386
f 411/411/269 415/415/388 414/414/387
f 411/411/269 412/412/385 415/415/388
f 416/416/389 417/417/390 418/418/391
f 417/417/390 419/419/392 418/418/391
f 420/420/393 419/419/392 417/417/390
f 421/421/393 420/420/393 417/417/390
f 420/420/393 421/421/393 422/422/394
f 423/423/395 420/420/393 422/422/394
f 424/424/396 423/423/395 422/422/394
f 424/424/396 425/425/397 423/423/395
f 424/424/396 426/426/398 425/425/397
f 424/424/396 427/427/399 426/426/398
f 428/428/400 426/426/398 427/427/399
f 428/428/400 427/427/399 429/429/401
f 429/429/401 430/430/402 428/428/400
f 429/429/401 431/431/402 430/430/402
f 430/430/402 431/431/402 432/432/403
f 430/430/402 432/432/403 433/433/404
f 433/433/404 432/432/403 434/434/405
f 433/433/404 434/434/405 435/435/406
f 434/434/405 436/436/407 435/435/406
f 436/436/407 437/437/408 435/435/406
f 438/438/409 439/439/410 440/440/409
f 439/439/410 441/441/411 440/440/409
f 441/441/411 439/439/410 442/442/412
f 439/439/410 443/443/413 442/442/412
f 442/442/412 443/443/413 444/444/414
f 442/442/412 444/444/414 445/445/415
f 446/446/416 445/445/415 444/444/414
f 446/446/416 444/444/414 447/447/417
f 446/446/416 447/447/417 448/448/418
f 449/449/419 446/446/416 448/448/418
f 450/450/420 449/449/419 448/448/418
f 450/450/420 451/451/421 449/449/419
f 452/452/422 453/453/423 454/454/424
f 452/452/422 454/454/424 455/455/425
f 456/456/426 452/452/422 455/455/425
f 456/456/426 455/455/425 457/457/427
f 458/458/428 456/456/426 457/457/427
f 458/458/428 457/457/427 459/459/429
f 459/459/429 460/460/430 458/458/428
f 460/460/430 461/461/431 458/458/428
f 460/460/430 462/462/432 461/461/431
f 462/462/432 463/463/432 461/461/431
f 462/462/432 464/464/433 463/463/432
f 462/462/432 465/465/434 464/464/433
f 464/464/433 465/465/434 466/466/435
f 465/465/434 467/467/436 466/466/435
f 468/468/437 469/469/438 470/470/439
f 471/471/440 468/468/437 470/470/439
f 472/472/441 471/471/440 470/470/439
f 472/472/441 470/470/439 473/473/442
f 474/474/443 472/472/441 473/473/442
f 475/475/444 474/474/443 473/473/442
f 475/475/444 476/476/445 474/474/443
f 477/477/446 478/478/447 475/475/448
f 477/477/446 479/479/449 478/478/447
f 480/480/450 481/481/451 482/482/120
f 481/481/451 483/483/452 482/482/120
f 484/484/453 485/485/454 486/486/455
f 487/487/456 484/484/453 486/486/455
f 488/488/457 484/484/453 487/487/456
f 489/489/148 488/488/457 487/487/456
f 490/490/458 491/491/459 492/492/460
f 491/491/459 493/493/461 492/492/460
f 492/492/460 493/493/461 494/494/462
f 493/493/461 495/495/463 494/494/462
f 496/496/464 494/494/462 495/495/463
f 496/496/464 495/495/463 497/497/465
f 496/496/464 497/497/465 498/498/466
f 499/499/467 496/496/464 498/498/466
f 500/500/468 501/501/469 502/502/470
f 503/503/471 500/500/468 502/502/470
f 503/503/471 504/504/472 500/500/468
f 503/503/471 505/505/472 504/504/472
f 506/506/473 504/504/472 505/505/472
f 506/506/473 505/505/472 507/507/473
f 508/508/474 506/506/473 507/507/473
f 508/508/474 509/509/475 506/506/473
f 509/509/475 508/508/474 510/510/476
f 508/508/474 511/511/477 510/510/476
f 510/510/476 511/511/477 512/512/478
f 511/511/477 513/513/479 512/512/478
f 513/513/479 514/514/480 512/512/478
f 514/514/480 515/515/481 512/512/478
f 514/514/480 516/516/482 515/515/481
f 514/514/480 517/517/483 516/516/482
f 518/518/484 516/516/482 517/517/483
f 518/518/484 517/517/483 519/519/485
f 518/518/484 519/519/485 520/520/486
f 519/519/485 521/521/487 520/520/486
f 522/522/488 520/520/486 521/521/487
f 522/522/488 521/521/487 523/523/489
f 522/522/488 523/523/489 524/524/490
f 522/522/488 524/524/490 525/525/491
f 526/526/492 525/525/491 524/524/490
f 526/526/492 527/527/493 525/525/491
f 528/528/494 527/527/493 526/526/492
f 529/529/494 528/528/494 526/526/492
f 529/529/494 530/530/495 528/528/494
f 530/530/495 531/531/496 528/528/494
f 530/530/495 532/532/497 531/531/496
f 532/532/497 533/533/498 531/531/496
f 534/534/499 533/533/498 532/532/497
f 534/534/499 532/532/497 535/535/500
f 534/534/499 535/535/500 536/536/501
f 534/534/499 536/536/501 537/537/502
f 538/538/503 537/537/502 536/536/501
f 538/538/503 539/539/504 537/537/502
f 540/540/505 539/539/504 538/538/503
f 540/540/505 538/538/503 541/541/505
f 542/542/506 543/543/507 544/544/508
f 542/542/506 544/544/508 545/545/509
f 545/545/509 544/544/508 546/546/510
f 545/545/509 546/546/510 547/547/511
f 548/548/512 549/549/513 550/550/514
f 548/548/512 550/550/514 551/551/515
f 551/551/515 552/552/516 548/548/512
f 551/551/515 553/553/517 552/552/516
f 552/552/516 553/553/517 554/554/518
f 553/553/517 555/555/519 554/554/518
f 555/555/519 556/556/520 554/554/518
f 556/556/520 557/557/166 554/554/518
f 557/557/166 556/556/520 558/558/521
f 559/559/522 557/557/166 558/558/521
f 559/559/522 560/560/167 557/557/166
f 559/559/522 561/561/457 560/560/167
f 562/562/148 563/563/523 564/564/524
f 562/562/148 564/564/524 565/565/525
f 565/565/525 564/564/524 566/566/526
f 567/567/527 566/566/526 564/564/524
f 568/568/528 566/566/526 567/567/527
f 568/568/528 567/567/527 569/569/529
f 570/570/530 571/571/531 572/572/532
f 570/570/530 573/573/533 571/571/531
f 574/574/534 571/571/531 573/573/533
f 575/575/535 573/573/533 570/570/530
f 575/575/535 570/570/530 576/576/536
f 577/577/537 573/573/533 575/575/535
f 577/577/537 578/578/538 573/573/533
f 578/578/538 574/574/534 573/573/533
f 579/579/539 574/574/534 578/578/538
f 577/577/537 580/580/540 578/578/538
f 579/579/539 578/578/538 581/581/541
f 580/580/540 581/581/541 578/578/538
f 582/582/542 583/583/543 584/584/544
f 582/582/542 585/585/545 583/583/543
f 586/586/546 583/583/543 585/585/545
f 587/587/547 586/586/546 585/585/545
f 587/587/547 588/588/206 586/586/546
f 588/588/206 3/3/3 586/586/546
f 1/1/1 3/3/3 588/588/206
f 589/589/548 590/590/549 591/591/238
f 592/592/550 589/589/548 591/591/238
f 593/593/238 589/589/548 592/592/550
f 594/594/551 593/593/238 592/592/550
f 595/595/242 596/596/552 597/597/553
f 598/598/554 595/595/242 597/597/553
f 598/598/554 597/597/553 599/599/255
f 600/600/555 598/598/554 599/599/255
f 601/601/556 602/602/557 603/603/558
f 602/602/557 604/604/559 603/603/558
f 605/605/560 606/606/561 607/607/252
f 606/606/561 608/608/264 607/607/252
f 609/609/562 610/610/243 611/611/243
f 609/609/562 611/611/243 612/612/251
f 613/613/260 614/614/260 615/615/260
f 614/614/260 616/616/260 615/615/260
f 617/617/235 618/618/563 619/619/238
f 618/618/563 620/620/246 619/619/238
f 621/621/564 622/622/565 623/623/566
f 624/624/567 621/621/564 623/623/566
f 624/624/567 623/623/566 625/625/568
f 626/626/569 624/624/567 625/625/568
f 627/627/570 628/628/568 629/629/571
f 630/630/572 627/627/570 629/629/571
f 630/630/572 629/629/571 631/631/573
f 632/632/574 630/630/572 631/631/573
f 633/633/575 634/634/575 635/635/576
f 634/634/575 636/636/564 635/635/576
f 637/637/577 638/638/578 639/639/579
f 638/638/578 640/640/580 639/639/579
f 639/639/579 640/640/580 641/641/581
f 640/640/580 642/642/582 641/641/581
f 642/642/582 643/643/583 641/641/581
f 643/643/583 644/644/584 641/641/581
f 644/644/584 643/643/583 645/645/585
f 646/646/586 644/644/584 645/645/585
f 647/647/587 648/648/587 649/649/588
f 650/650/589 647/647/587 649/649/588
f 650/650/589 649/649/588 651/651/590
f 649/649/588 652/652/591 651/651/590
f 651/651/590 652/652/591 653/653/592
f 652/652/591 654/654/227 653/653/592
f 655/655/241 656/656/593 657/657/255
f 658/658/594 655/655/241 657/657/255
f 659/659/256 655/655/241 658/658/594
f 660/660/595 659/659/256 658/658/594
f 661/661/563 662/662/261 663/663/548
f 664/664/248 661/661/563 663/663/548
f 664/664/248 663/663/548 665/665/563
f 666/666/596 664/664/248 665/665/563
f 667/667/597 668/668/597 669/669/598
f 670/670/258 667/667/597 669/669/598
f 671/671/561 667/667/597 670/670/258
f 672/672/599 671/671/561 670/670/258
f 673/673/600 674/674/600 675/675/601
f 676/676/602 673/673/600 675/675/601
f 676/676/602 675/675/601 677/677/563
f 678/678/238 676/676/602 677/677/563
f 679/679/603 680/680/604 681/681/605
f 680/680/604 682/682/606 681/681/605
f 683/683/260 684/684/260 685/685/260
f 684/684/260 686/686/260 685/685/260
f 687/687/607 688/688/608 689/689/561
f 688/688/608 690/690/258 689/689/561
f 691/691/609 692/692/610 693/693/611
f 692/692/610 694/694/611 693/693/611
f 693/693/611 694/694/611 695/695/612
f 694/694/611 696/696/613 695/695/612
f 697/697/614 698/698/615 699/699/616
f 698/698/615 700/700/616 699/699/616
f 701/701/617 702/702/612 703/703/617
f 702/702/612 704/704/612 703/703/617
f 705/705/225 706/706/226 707/707/225
f 706/706/226 708/708/226 707/707/225
f 709/709/618 710/710/619 711/711/286
f 712/712/620 709/709/618 711/711/286
f 712/712/620 713/713/621 709/709/618
f 713/713/621 714/714/622 709/709/618
f 713/713/621 715/715/623 714/714/622
f 715/715/623 716/716/624 714/714/622
f 715/715/623 717/717/625 716/716/624
f 717/717/625 718/718/626 716/716/624
f 719/719/252 720/720/597 721/721/597
f 720/720/597 722/722/627 721/721/597
f 722/722/627 720/720/597 723/723/251
f 720/720/597 724/724/628 723/723/251
f 725/725/629 726/726/630 727/727/631
f 726/726/630 728/728/632 727/727/631
f 727/727/631 728/728/632 729/729/238
f 728/728/632 730/730/246 729/729/238
f 731/731/633 732/732/593 733/733/243
f 732/732/593 734/734/258 733/733/243
f 735/735/634 736/736/234 737/737/234
f 736/736/234 738/738/548 737/737/234
f 739/739/635 740/740/636 741/741/637
f 740/740/636 742/742/234 741/741/637
f 743/743/260 744/744/260 745/745/260
f 744/744/260 746/746/260 745/745/260
f 747/747/561 748/748/259 749/749/259
f 747/747/561 749/749/259 750/750/561
f 751/751/638 752/752/639 753/753/640
f 752/752/639 754/754/639 753/753/640
f 755/755/265 756/756/264 757/757/264
f 756/756/264 758/758/243 757/757/264
f 759/759/641 760/760/642 761/761/643
f 760/760/642 762/762/644 761/761/643
f 763/763/645 764/764/646 765/765/647
f 764/764/646 766/766/648 765/765/647
f 767/767/649 768/768/650 769/769/651
f 768/768/650 770/770/652 769/769/651
f 771/771/653 769/769/651 770/770/652
f 772/772/581 771/771/653 770/770/652
f 771/771/653 772/772/581 773/773/654
f 774/774/655 771/771/653 773/773/654
f 774/774/655 773/773/654 775/775/656
f 776/776/657 774/774/655 775/775/656
f 777/777/658 778/778/659 779/779/659
f 778/778/659 780/780/235 779/779/659
f 781/781/660 782/782/661 783/783/610
f 782/782/661 784/784/662 783/783/610
f 785/785/663 786/786/603 787/787/635
f 786/786/603 788/788/664 787/787/635
f 789/789/553 790/790/597 791/791/252
f 790/790/597 792/792/251 791/791/252
f 793/793/192 794/794/665 795/795/666
f 795/795/666 794/794/665 796/796/667
f 797/797/668 793/793/192 795/795/666
f 795/795/666 796/796/667 798/798/669
f 799/799/670 795/795/666 798/798/669
f 797/797/668 795/795/666 799/799/670
f 800/800/671 797/797/668 799/799/670
f 799/799/670 798/798/669 801/801/672
f 799/799/670 801/801/672 802/802/673
f 799/799/670 802/802/673 803/803/674
f 800/800/671 799/799/670 803/803/674
f 800/800/671 803/803/674 804/804/183
f 803/803/674 802/802/673 805/805/675
f 803/803/674 805/805/675 806/806/676
f 804/804/183 803/803/674 807/807/184
f 803/803/674 806/806/676 807/807/184
