# 3ds Max Wavefront OBJ Exporter v0.97b - (c)2007 guruware
# File Created: 20.04.2017 00:45:59

mtllib con1.mtl

#
# object Mesh_1513
#

v  2.7889 0.0000 7.0841
v  -2.7889 0.0000 7.0841
v  -2.7889 0.0000 2.7811
v  2.7889 0.0000 2.7811
v  -1.3154 5.8217 7.0813
v  -1.4048 5.8217 7.0813
v  -1.3397 5.8217 7.1640
v  -1.3804 5.8217 7.1640
v  2.7889 0.2894 -2.8611
v  2.7889 0.0000 -2.8611
v  2.7889 0.0000 -7.1640
v  2.7889 0.2894 -7.1640
v  2.7889 5.9906 -7.1640
v  2.7889 0.2894 -1.9682
v  2.7889 0.2894 1.8883
v  2.7889 5.9906 7.0841
v  2.7889 0.2894 2.7811
v  2.7889 0.2894 7.0841
v  2.7889 0.0000 -1.9682
v  2.7889 0.0000 1.8883
v  -2.7889 5.9906 7.0841
v  -2.7889 5.9906 -7.1640
v  -2.7889 0.0000 1.8883
v  -2.7889 0.0000 -1.9682
v  1.5328 5.8217 7.0813
v  1.4435 5.8217 7.0813
v  1.4678 5.8217 7.1640
v  1.5085 5.8217 7.1640
v  1.4435 0.1377 7.0813
v  1.5328 0.1377 7.0813
v  1.5085 0.1377 7.1640
v  1.4678 0.1377 7.1640
v  0.4891 5.8217 7.0813
v  0.3997 5.8217 7.0813
v  0.4241 5.8217 7.1640
v  0.4648 5.8217 7.1640
v  0.3997 0.1377 7.0813
v  0.4891 0.1377 7.0813
v  0.4648 0.1377 7.1640
v  0.4241 0.1377 7.1640
v  -0.2640 5.8217 7.0813
v  -0.3534 5.8217 7.0813
v  -0.3291 5.8217 7.1640
v  -0.2884 5.8217 7.1640
v  -0.3534 0.1377 7.0813
v  -0.2640 0.1377 7.0813
v  -0.2884 0.1377 7.1640
v  -0.3291 0.1377 7.1640
v  -1.4048 0.1377 7.0813
v  -1.3154 0.1377 7.0813
v  -1.3397 0.1377 7.1640
v  -1.3804 0.1377 7.1640
v  -2.7889 0.2894 2.7811
v  -2.7889 0.2894 1.8883
v  -2.7889 0.2894 -2.8611
v  -2.7889 0.2894 -1.9682
v  -2.7889 0.0000 -2.8611
v  -2.7889 0.0000 -7.1640
v  -2.7889 0.2894 7.0841
v  -2.7889 0.2894 -7.1640
# 60 vertices

vn 0.0000 -1.0000 0.0000
vn 0.0000 1.0000 -0.0000
vn 1.0000 0.0000 -0.0000
vn 0.9595 0.0000 0.2819
vn 0.5992 0.0000 0.8006
vn -0.5991 0.0000 0.8006
vn -0.9594 0.0000 0.2821
vn -0.5990 0.0000 0.8007
vn -0.9593 0.0000 0.2823
vn 0.0000 -0.0000 -1.0000
vn 0.0000 0.0000 1.0000
vn -1.0000 0.0000 -0.0000
vn 0.9593 0.0000 0.2823
vn 0.5990 0.0000 0.8007
vn 0.9593 0.0000 0.2825
vn 0.5990 0.0000 0.8008
# 16 vertex normals

vt 0.5102 0.5337 0.0000
vt 0.9965 0.5337 0.0000
vt 0.9965 0.6340 0.0000
vt 0.5102 0.6340 0.0000
vt 0.4832 0.9630 0.0000
vt 0.4832 0.9652 0.0000
vt 0.4832 0.9637 0.0000
vt 0.4832 0.9645 0.0000
vt 0.0268 0.6341 0.0000
vt 0.0028 0.6341 0.0000
vt 0.0028 0.5337 0.0000
vt 0.0268 0.5337 0.0000
vt 0.4988 0.5337 0.0000
vt 0.0268 0.6549 0.0000
vt 0.0268 0.7449 0.0000
vt 0.4988 0.8661 0.0000
vt 0.0268 0.7657 0.0000
vt 0.0268 0.8661 0.0000
vt 0.0028 0.8661 0.0000
vt 0.0028 0.7657 0.0000
vt 0.0028 0.6549 0.0000
vt 0.0028 0.7449 0.0000
vt 0.9969 0.8661 0.0000
vt 0.9969 0.5337 0.0000
vt 0.5102 0.6548 0.0000
vt 0.9965 0.6548 0.0000
vt 0.9965 0.7446 0.0000
vt 0.5102 0.7446 0.0000
vt 0.4832 0.8959 0.0000
vt 0.4832 0.8976 0.0000
vt 0.4832 0.8971 0.0000
vt 0.4832 0.8964 0.0000
vt 0.0159 0.8976 0.0000
vt 0.0159 0.8959 0.0000
vt 0.0159 0.8964 0.0000
vt 0.0159 0.8971 0.0000
vt 0.4832 0.9205 0.0000
vt 0.4832 0.9224 0.0000
vt 0.4832 0.9217 0.0000
vt 0.4832 0.9212 0.0000
vt 0.0159 0.9224 0.0000
vt 0.0159 0.9205 0.0000
vt 0.0159 0.9212 0.0000
vt 0.0159 0.9217 0.0000
vt 0.4832 0.9380 0.0000
vt 0.4832 0.9401 0.0000
vt 0.4832 0.9393 0.0000
vt 0.4832 0.9388 0.0000
vt 0.0159 0.9401 0.0000
vt 0.0159 0.9380 0.0000
vt 0.0159 0.9388 0.0000
vt 0.0159 0.9393 0.0000
vt 0.0159 0.9652 0.0000
vt 0.0159 0.9630 0.0000
vt 0.0159 0.9637 0.0000
vt 0.0159 0.9645 0.0000
vt 0.9965 0.7654 0.0000
vt 0.5102 0.7654 0.0000
vt 0.9965 0.8657 0.0000
vt 0.5102 0.8657 0.0000
vt 0.4988 0.9979 0.0000
vt 0.0268 0.9979 0.0000
vt 0.0028 0.9979 0.0000
vt 0.0268 0.6340 0.0000
vt 0.0028 0.6340 0.0000
vt 0.0268 0.6548 0.0000
vt 0.0268 0.7446 0.0000
vt 0.4988 0.8657 0.0000
vt 0.0268 0.7654 0.0000
vt 0.0268 0.8657 0.0000
vt 0.0028 0.8657 0.0000
vt 0.0028 0.7654 0.0000
vt 0.0028 0.6548 0.0000
vt 0.0028 0.7446 0.0000
vt 0.9976 0.8667 0.0000
vt 0.9976 0.9983 0.0000
vt 0.5239 0.9983 0.0000
vt 0.5239 0.8667 0.0000
vt 0.4999 0.8667 0.0000
vt 0.4999 0.9983 0.0000
# 80 texture coords

g Mesh_1513
usemtl Material__4552
s 1
f 1/1/1 2/2/1 3/3/1 
s 2
f 3/3/1 4/4/1 1/1/1 
s 3
f 5/5/2 6/6/2 7/7/2 
s 4
f 6/6/2 8/8/2 7/7/2 
s 5
f 9/9/3 10/10/3 11/11/3 
s 6
f 11/11/3 12/12/3 9/9/3 
s 7
f 12/12/3 13/13/3 9/9/3 
s 8
f 14/14/3 9/9/3 13/13/3 
s 9
f 15/15/3 14/14/3 13/13/3 
s 10
f 13/13/3 16/16/3 15/15/3 
s 11
f 16/16/3 17/17/3 15/15/3 
s 12
f 16/16/3 18/18/3 17/17/3 
s 13
f 17/17/3 18/18/3 1/19/3 
s 14
f 1/19/3 4/20/3 17/17/3 
s 15
f 19/21/3 14/14/3 15/15/3 
s 16
f 15/15/3 20/22/3 19/21/3 
s 17
f 21/23/2 16/16/2 13/13/2 
s 18
f 13/13/2 22/24/2 21/23/2 
s 19
f 20/25/1 23/26/1 24/27/1 
s 20
f 24/27/1 19/28/1 20/25/1 
s 21
f 25/29/2 26/30/2 27/31/2 
s 22
f 27/31/2 28/32/2 25/29/2 
s 23
f 29/33/1 30/34/1 31/35/1 
s 24
f 31/35/1 32/36/1 29/33/1 
s 25
f 30/34/4 25/29/4 28/32/5 
s 26
f 28/32/5 31/35/5 30/34/4 
s 27
f 32/36/6 31/35/5 28/32/5 
s 28
f 28/32/5 27/31/6 32/36/6 
s 29
f 32/36/6 27/31/6 26/30/7 
s 30
f 26/30/7 29/33/7 32/36/6 
s 31
f 33/37/2 34/38/2 35/39/2 
s 32
f 35/39/2 36/40/2 33/37/2 
s 33
f 37/41/1 38/42/1 39/43/1 
s 34
f 39/43/1 40/44/1 37/41/1 
s 35
f 38/42/4 33/37/4 36/40/5 
s 36
f 36/40/5 39/43/5 38/42/4 
s 37
f 40/44/8 39/43/5 36/40/5 
s 38
f 36/40/5 35/39/8 40/44/8 
s 39
f 40/44/8 35/39/8 34/38/9 
s 40
f 34/38/9 37/41/9 40/44/8 
s 41
f 41/45/2 42/46/2 43/47/2 
s 42
f 43/47/2 44/48/2 41/45/2 
s 43
f 45/49/1 46/50/1 47/51/1 
s 44
f 47/51/1 48/52/1 45/49/1 
s 45
f 49/53/1 50/54/1 51/55/1 
s 46
f 51/55/1 52/56/1 49/53/1 
s 47
f 4/4/10 3/3/10 53/3/10 
s 48
f 53/3/10 17/4/10 4/4/10 
s 49
f 17/4/1 53/3/1 54/26/1 
s 50
f 54/26/1 15/25/1 17/4/1 
s 51
f 55/57/1 9/58/1 14/28/1 
s 52
f 14/28/1 56/27/1 55/57/1 
s 53
f 57/57/11 10/58/11 9/58/11 
s 54
f 9/58/11 55/57/11 57/57/11 
s 55
f 24/27/10 56/27/10 14/28/10 
s 56
f 14/28/10 19/28/10 24/27/10 
s 57
f 20/25/11 15/25/11 54/26/11 
s 58
f 54/26/11 23/26/11 20/25/11 
s 59
f 58/59/1 11/60/1 10/58/1 
s 60
f 10/58/1 57/57/1 58/59/1 
s 61
f 16/16/11 21/61/11 59/62/11 
s 62
f 59/62/11 18/18/11 16/16/11 
s 63
f 1/19/11 18/18/11 59/62/11 
s 64
f 59/62/11 2/63/11 1/19/11 
s 65
f 53/64/12 3/65/12 2/11/12 
s 66
f 2/11/12 59/12/12 53/64/12 
s 67
f 59/12/12 21/13/12 53/64/12 
s 68
f 54/66/12 53/64/12 21/13/12 
s 69
f 56/67/12 54/66/12 21/13/12 
s 70
f 21/13/12 22/68/12 56/67/12 
s 71
f 22/68/12 55/69/12 56/67/12 
s 72
f 22/68/12 60/70/12 55/69/12 
s 73
f 55/69/12 60/70/12 58/71/12 
s 74
f 58/71/12 57/72/12 55/69/12 
s 75
f 23/73/12 54/66/12 56/67/12 
s 76
f 56/67/12 24/74/12 23/73/12 
s 77
f 22/75/10 13/76/10 12/77/10 
s 78
f 12/77/10 60/78/10 22/75/10 
s 79
f 58/79/10 60/78/10 12/77/10 
s 80
f 12/77/10 11/80/10 58/79/10 
s 81
f 50/54/13 5/5/13 7/7/14 
s 82
f 7/7/14 51/55/14 50/54/13 
s 83
f 52/56/8 51/55/14 7/7/14 
s 84
f 7/7/14 8/8/8 52/56/8 
s 85
f 52/56/8 8/8/8 6/6/9 
s 86
f 6/6/9 49/53/9 52/56/8 
s 87
f 46/50/15 41/45/15 44/48/16 
s 88
f 44/48/16 47/51/16 46/50/15 
s 89
f 48/52/6 47/51/16 44/48/16 
s 90
f 44/48/16 43/47/6 48/52/6 
s 91
f 48/52/6 43/47/6 42/46/7 
s 92
f 42/46/7 45/49/7 48/52/6 
# 0 polygons - 92 triangles