# 3ds Max Wavefront OBJ Exporter v0.97b - (c)2007 guruware
# File Created: 10.04.2018 20:27:46

mtllib stairs2_coll.mtl

#
# object Box084
#

v  -2.4390 0.0000 -1.4478
v  -2.4390 0.0000 1.9592
v  -6.3733 0.0000 1.9592
v  -6.3733 0.0000 -1.4478
v  -6.3733 7.9666 1.9592
v  -2.4390 7.9666 1.9592
v  -2.4390 7.9666 -1.4478
v  -6.3733 7.9666 -1.4478
# 8 vertices

vn 0.0000 -1.0000 -0.0000
vn 0.0000 1.0000 -0.0000
vn -1.0000 0.0000 -0.0000
vn -0.0000 0.0000 1.0000
vn 1.0000 0.0000 0.0000
vn 0.0000 0.0000 -1.0000
# 6 vertex normals

vt 1.0000 1.0000 0.0000
vt 0.0000 1.0000 0.0000
vt 0.0000 0.0000 0.0000
vt 1.0000 0.0000 0.0000
# 4 texture coords

g Box084
usemtl wire_135006006
s 2
f 1/1/1 2/2/1 3/3/1 4/4/1 
s 4
f 5/4/2 6/1/2 7/2/2 8/3/2 
s 8
f 5/1/3 8/2/3 4/3/3 3/4/3 
s 16
f 5/2/4 3/3/4 2/4/4 6/1/4 
s 32
f 6/2/5 2/3/5 1/4/5 7/1/5 
s 64
f 7/2/6 1/3/6 4/4/6 8/1/6 
# 6 polygons

#
# object Box085
#

v  0.2289 0.0000 -1.4776
v  0.2289 0.0000 1.9889
v  -2.2561 0.0000 1.9889
v  -2.2561 0.0000 -1.4776
v  -2.2561 6.2689 1.9889
v  0.2289 6.2689 1.9889
v  0.2289 6.2689 -1.4776
v  -2.2561 6.2689 -1.4776
# 8 vertices

vn 0.0000 -1.0000 -0.0000
vn 0.0000 1.0000 -0.0000
vn -1.0000 0.0000 -0.0000
vn -0.0000 0.0000 1.0000
vn 1.0000 0.0000 0.0000
vn 0.0000 0.0000 -1.0000
# 6 vertex normals

vt 1.0000 1.0000 0.0000
vt 0.0000 1.0000 0.0000
vt 0.0000 0.0000 0.0000
vt 1.0000 0.0000 0.0000
# 4 texture coords

g Box085
usemtl wire_135006006
s 2
f 9/5/7 10/6/7 11/7/7 12/8/7 
s 4
f 13/8/8 14/5/8 15/6/8 16/7/8 
s 8
f 13/5/9 16/6/9 12/7/9 11/8/9 
s 16
f 13/6/10 11/7/10 10/8/10 14/5/10 
s 32
f 14/6/11 10/7/11 9/8/11 15/5/11 
s 64
f 15/6/12 9/7/12 12/8/12 16/5/12 
# 6 polygons

#
# object Box086
#

v  2.7456 0.0000 -1.4776
v  2.7456 0.0000 1.9889
v  0.2576 0.0000 1.9889
v  0.2576 0.0000 -1.4776
v  0.2576 3.8078 1.9889
v  2.7456 3.8078 1.9889
v  2.7456 3.8078 -1.4776
v  0.2576 3.8078 -1.4776
# 8 vertices

vn 0.0000 -1.0000 -0.0000
vn 0.0000 1.0000 -0.0000
vn -1.0000 0.0000 -0.0000
vn -0.0000 0.0000 1.0000
vn 1.0000 0.0000 0.0000
vn 0.0000 0.0000 -1.0000
# 6 vertex normals

vt 1.0000 1.0000 0.0000
vt 0.0000 1.0000 0.0000
vt 0.0000 0.0000 0.0000
vt 1.0000 0.0000 0.0000
# 4 texture coords

g Box086
usemtl wire_135006006
s 2
f 17/9/13 18/10/13 19/11/13 20/12/13 
s 4
f 21/12/14 22/9/14 23/10/14 24/11/14 
s 8
f 21/9/15 24/10/15 20/11/15 19/12/15 
s 16
f 21/10/16 19/11/16 18/12/16 22/9/16 
s 32
f 22/10/17 18/11/17 17/12/17 23/9/17 
s 64
f 23/10/18 17/11/18 20/12/18 24/9/18 
# 6 polygons

#
# object Box087
#

v  5.1432 -0.0000 -1.4776
v  5.1432 -0.0000 1.9889
v  2.6929 -0.0000 1.9889
v  2.6929 -0.0000 -1.4776
v  2.6929 1.7566 1.9889
v  5.1432 1.7566 1.9889
v  5.1432 1.7566 -1.4776
v  2.6929 1.7566 -1.4776
# 8 vertices

vn 0.0000 -1.0000 -0.0000
vn 0.0000 1.0000 -0.0000
vn -1.0000 0.0000 -0.0000
vn -0.0000 0.0000 1.0000
vn 1.0000 0.0000 0.0000
vn 0.0000 0.0000 -1.0000
# 6 vertex normals

vt 1.0000 1.0000 0.0000
vt 0.0000 1.0000 0.0000
vt 0.0000 0.0000 0.0000
vt 1.0000 0.0000 0.0000
# 4 texture coords

g Box087
usemtl wire_135006006
s 2
f 25/13/19 26/14/19 27/15/19 28/16/19 
s 4
f 29/16/20 30/13/20 31/14/20 32/15/20 
s 8
f 29/13/21 32/14/21 28/15/21 27/16/21 
s 16
f 29/14/22 27/15/22 26/16/22 30/13/22 
s 32
f 30/14/23 26/15/23 25/16/23 31/13/23 
s 64
f 31/14/24 25/15/24 28/16/24 32/13/24 
# 6 polygons