# Blender v2.77 (sub 0) OBJ File: ''
# www.blender.org
mtllib metalbed.mtl
o bunk_bed.001
v -0.597447 1.196367 -0.880723
v -0.567712 1.201172 0.913286
v -0.570589 1.196367 -0.880927
v -0.594570 1.201172 0.913489
v -0.583473 1.172344 -0.879755
v -0.580596 1.177149 0.914458
v -1.116357 1.196367 -0.877858
v -1.084481 1.201172 0.915060
v -1.087358 1.196367 -0.879153
v -1.111339 1.201172 0.915264
v -1.098456 1.177149 0.914091
v -1.101332 1.172344 -0.880121
v -1.602341 1.201172 0.914694
v -1.634216 1.196368 -0.878225
v -1.631340 1.201172 0.915988
v -1.607358 1.196368 -0.878429
v -1.620242 1.172344 -0.877256
v -1.615225 1.177149 0.915866
v -1.934875 1.157930 -0.431144
v 1.948787 1.153125 -0.465998
v -1.935079 1.157930 -0.458002
v 1.948991 1.153125 -0.439140
v 1.947819 1.129102 -0.452024
v -1.936048 1.133906 -0.444028
v 0.469057 1.201172 0.910787
v 0.437182 1.196367 -0.882131
v 0.442199 1.201172 0.910991
v 0.466180 1.196367 -0.883426
v 0.453297 1.172344 -0.882254
v 0.456173 1.177149 0.911959
v 1.950357 1.129102 0.023912
v -1.933631 1.157930 0.015794
v 1.949185 1.153125 0.011029
v -1.933509 1.133906 0.031909
v -1.934477 1.157930 0.045883
v 1.949389 1.153125 0.037887
v -0.079587 1.196367 -0.880357
v -0.047712 1.201172 0.912561
v -0.052729 1.196367 -0.880561
v -0.076711 1.201172 0.913856
v -0.061686 1.177149 0.911593
v -0.066704 1.172344 -0.881529
v 0.957182 1.196367 -0.882856
v 0.972942 1.177149 0.910185
v 0.960059 1.201172 0.911357
v 0.986917 1.201172 0.911153
v 0.970066 1.172344 -0.884028
v 0.984040 1.196367 -0.883060
v -1.934161 1.157930 0.512167
v 1.949502 1.153125 0.477312
v -1.934364 1.157930 0.485309
v 1.950796 1.153125 0.506311
v 1.950674 1.129102 0.490196
v -1.933192 1.133906 0.498192
v 2.063468 1.527891 0.346446
v 2.040004 1.155528 0.369186
v 2.040004 1.530293 0.369186
v 2.063468 1.155528 0.346446
v 2.062745 1.530293 0.392650
v 2.086209 1.155528 0.369910
v 2.063835 1.155528 0.394791
v 2.086209 1.530293 0.369910
v 1.886612 1.093067 0.967712
v 1.913786 1.064239 0.867588
v 1.913471 1.064239 0.967508
v 2.020904 1.215586 0.966693
v 1.885837 1.093067 0.865651
v 2.020904 1.064239 0.966693
v 1.886612 1.215586 0.967712
v 2.021219 1.064239 0.866772
v 2.021219 1.215586 0.866772
v 1.885837 1.215586 0.865651
v 2.102120 1.160332 0.909134
v 2.062570 1.189160 -0.904140
v 2.065609 1.196367 0.911560
v 2.098031 1.153125 -0.903335
v 2.028199 1.153125 -0.902804
v 2.063660 1.117090 -0.901999
v 2.030149 1.160332 0.910754
v 2.065609 1.126699 0.911560
v 2.063660 1.494258 -0.901999
v 2.102120 1.537500 0.909134
v 2.065609 1.501465 0.911560
v 2.030149 1.537500 0.910754
v 2.098031 1.527891 -0.903335
v 2.028199 1.527891 -0.902804
v 2.062570 1.563926 -0.904140
v 2.065609 1.571133 0.911560
v 2.044123 0.701485 0.911723
v 2.025977 0.653438 -0.912457
v 2.030149 0.658242 0.910754
v 2.041002 0.696680 -0.914720
v 2.063579 0.627012 -0.912743
v 2.085065 0.696680 -0.912906
v 2.065609 0.631817 0.911560
v 2.089236 0.701485 0.910306
v 2.103211 0.658242 0.911274
v 2.100090 0.653438 -0.915168
v 2.062530 1.530293 -0.343307
v 2.037649 1.155528 -0.365680
v 2.062530 1.155528 -0.343307
v 2.085994 1.530293 -0.366047
v 2.037649 1.530293 -0.365680
v 2.085994 1.155528 -0.366047
v 2.063253 1.527891 -0.389511
v 2.061113 1.155528 -0.388421
v 1.891902 1.210781 0.956928
v -1.887762 1.105078 0.963059
v 1.891902 1.105078 0.956928
v -1.887762 1.210781 0.963059
v 1.891331 1.105078 0.881725
v 1.891331 1.210781 0.881725
v -1.887242 1.105078 0.889997
v -1.887242 1.210781 0.889997
v -1.891454 1.105079 -0.938587
v 1.888210 1.210781 -0.944717
v 1.888210 1.105078 -0.944717
v -1.890883 1.105079 -0.863383
v -1.891454 1.210782 -0.938587
v 1.887690 1.105078 -0.871655
v -1.890883 1.210782 -0.863383
v 1.887690 1.210781 -0.871655
v 2.017048 1.064239 -0.956439
v 1.911440 1.064239 -0.856794
v 1.910665 1.064239 -0.958855
v 2.017048 1.215586 -0.956439
v 2.016732 1.064239 -0.856519
v 1.881666 1.093067 -0.957560
v 2.016732 1.215586 -0.856519
v 1.882441 1.093067 -0.855499
v 1.881666 1.215586 -0.957560
v 1.882441 1.215586 -0.855499
v -1.910992 1.064239 0.875135
v -1.881218 1.093067 0.975902
v -1.911307 1.064239 0.975056
v -2.016284 1.064239 0.874860
v -1.881993 1.093067 0.873841
v -2.016600 1.215586 0.974781
v -2.016600 1.064239 0.974781
v -1.881218 1.215586 0.975902
v -2.016284 1.215586 0.874860
v -1.881993 1.215586 0.873841
v -1.907243 1.198770 -0.895491
v -1.902389 1.107481 0.876144
v -1.907243 1.107481 -0.895491
v -1.902389 1.198770 0.876144
v -2.004450 1.107481 0.876919
v -2.004450 1.198770 0.876919
v -2.007164 1.107481 -0.895807
v -2.007164 1.198770 -0.895807
v 1.903561 1.107481 -0.904007
v 1.906274 1.198770 0.868719
v 1.903561 1.198770 -0.904007
v 1.906274 1.107481 0.868719
v 2.003481 1.198770 -0.903691
v 2.003481 1.107481 -0.903691
v 2.007286 1.198770 0.871175
v 2.007286 1.107481 0.871175
v -2.063428 1.527891 -0.381820
v -2.040688 1.155528 -0.358356
v -2.063428 1.155528 -0.381820
v -2.085801 1.155528 -0.356940
v -2.040688 1.530293 -0.358356
v -2.086892 1.530293 -0.359080
v -2.064152 1.530293 -0.335616
v -2.063061 1.155528 -0.333476
v -2.085586 1.155528 0.379017
v -2.063213 1.527891 0.354136
v -2.063213 1.155528 0.354136
v -2.086677 1.530293 0.376877
v -2.037241 1.155528 0.378650
v -2.061796 1.530293 0.399250
v -2.038332 1.530293 0.376510
v -2.062846 1.155528 0.402481
v -2.103935 0.653438 -0.905816
v -2.062162 0.631817 0.917110
v -2.099764 0.658242 0.917395
v -2.086880 0.701485 0.916223
v -2.066334 0.627012 -0.906102
v -2.088911 0.696680 -0.908079
v -2.026701 0.658242 0.917915
v -2.042706 0.696680 -0.907355
v -2.029823 0.653438 -0.908527
v -2.040676 0.701485 0.916947
v -2.097623 1.537501 0.916305
v -2.067343 1.563926 -0.897499
v -2.101713 1.527891 -0.896164
v -2.067343 1.494258 -0.897499
v -2.062162 1.571133 0.917110
v -2.062162 1.501465 0.917110
v -2.027792 1.537501 0.915775
v -2.031882 1.527891 -0.896694
v -2.067343 1.117090 -0.897499
v -2.097623 1.160332 0.916305
v -2.101713 1.153126 -0.896164
v -2.062162 1.126699 0.917110
v -2.062162 1.196367 0.917110
v -2.027792 1.160332 0.915775
v -2.067343 1.189161 -0.897499
v -2.031882 1.153126 -0.896694
v -1.886480 1.093067 -0.849450
v -1.913022 1.064239 -0.949167
v -1.886164 1.093067 -0.949371
v -1.886164 1.215586 -0.949371
v -1.913338 1.064239 -0.849246
v -2.021546 1.064239 -0.950492
v -2.021546 1.215586 -0.950492
v -1.886480 1.215586 -0.849450
v -2.020771 1.064239 -0.848430
v -2.020771 1.215586 -0.848430
v -1.875716 1.196367 -0.563743
v -1.790991 1.345313 0.973068
v -1.875716 1.345313 -0.563743
v -0.672028 1.323692 -0.656684
v -1.790991 1.215586 0.973068
v -0.587099 1.311680 0.906986
v -0.672028 1.196367 -0.656684
v -0.587099 1.208379 0.906986
v 0.615784 1.309277 0.849507
v 0.532027 1.323692 -0.701279
v 0.532027 1.193965 -0.701279
v 0.615784 1.203574 0.849507
v 1.819635 1.314082 0.778053
v 1.736846 1.205977 -0.786707
v 1.819635 1.196367 0.778053
v 1.736846 1.335704 -0.786707
v -2.112012 1.638488 -0.902947
v -2.111447 0.002403 -0.904685
v -2.066089 0.002403 -0.873872
v -2.091054 1.638488 -0.888709
v -2.101847 1.638488 -0.931281
v -2.066067 1.638488 -0.870977
v -2.094570 1.638488 -0.956226
v -2.095740 0.002403 -0.958524
v -2.022270 0.002403 -0.904287
v -2.045857 1.638488 -0.885005
v -2.065741 1.638488 -0.956445
v -2.021683 1.638488 -0.903136
v -2.039356 1.638488 -0.956147
v -2.038792 0.002403 -0.957881
v -2.029317 1.638488 -0.927899
v -2.064588 1.638488 0.880599
v -2.064588 -0.002402 0.880599
v -2.107317 -0.002402 0.913155
v -2.084300 1.638488 0.895618
v -2.039607 1.638488 0.898322
v -2.107317 1.638488 0.913155
v -2.018139 1.638488 0.913553
v -2.018139 -0.002402 0.913553
v -2.090794 -0.002402 0.966749
v -2.099680 1.638488 0.937925
v -2.027152 1.638488 0.941292
v -2.090794 1.638488 0.966749
v -2.034937 1.638488 0.965251
v -2.034937 -0.002402 0.965251
v -2.064908 1.638488 0.966055
v 2.098698 1.638488 -0.939453
v 2.108692 0.002402 -0.914159
v 2.090029 0.002402 -0.966663
v 2.090051 1.638488 -0.963780
v 2.108128 1.638488 -0.912421
v 2.060638 1.638488 -0.964710
v 2.087396 1.638488 -0.896874
v 2.063823 0.002402 -0.880513
v 2.036313 0.002402 -0.966255
v 2.035749 1.638488 -0.964521
v 2.063257 1.638488 -0.878772
v 2.026147 1.638488 -0.934968
v 2.041835 1.638488 -0.893970
v 2.017374 0.002402 -0.913466
v 2.017396 1.638488 -0.910576
v 2.094975 1.638488 0.958610
v 2.094975 -0.002402 0.958610
v 2.103423 1.638488 0.929654
v 2.068583 1.638488 0.958313
v 2.038028 -0.002402 0.957968
v 2.110682 -0.002402 0.904771
v 2.110682 1.638488 0.904771
v 2.038028 1.638488 0.957968
v 2.087402 1.638488 0.887585
v 2.030876 1.638488 0.934122
v 2.022595 -0.002402 0.906514
v 2.067465 -0.002402 0.872867
v 2.067465 1.638488 0.872867
v 2.022595 1.638488 0.906514
v 2.043333 1.638488 0.890963
v 1.501900 1.196367 -0.882693
v 1.492943 1.177149 0.909460
v 1.487925 1.172344 -0.883662
v 1.505826 1.201172 0.908288
v 1.476828 1.201172 0.909583
v 1.473951 1.196367 -0.884630
vt 0.7275 0.5032
vt 0.7109 0.9950
vt 0.7124 0.5032
vt 0.7261 0.9951
vt 0.7578 0.9951
vt 0.7422 0.5032
vt 0.7563 0.5032
vt 0.7422 0.9951
vt 0.7275 0.5032
vt 0.7109 0.9950
vt 0.7124 0.5032
vt 0.7261 0.9951
vt 0.7422 0.9951
vt 0.7563 0.5032
vt 0.7578 0.9951
vt 0.7422 0.5032
vt 0.7109 0.9950
vt 0.7275 0.5032
vt 0.7261 0.9951
vt 0.7124 0.5032
vt 0.7422 0.5032
vt 0.7578 0.9951
vt 0.7563 0.5032
vt 0.7422 0.9951
vt 0.6777 0.9945
vt 0.6919 0.0078
vt 0.6919 0.9945
vt 0.6777 0.0078
vt 0.6636 0.0078
vt 0.6499 0.9945
vt 0.6499 0.0078
vt 0.6636 0.9945
vt 0.7109 0.9950
vt 0.7275 0.5032
vt 0.7261 0.9951
vt 0.7124 0.5032
vt 0.7422 0.5032
vt 0.7578 0.9951
vt 0.7563 0.5032
vt 0.7422 0.9951
vt 0.6636 0.0078
vt 0.6499 0.9945
vt 0.6499 0.0078
vt 0.6636 0.9945
vt 0.6777 0.9945
vt 0.6919 0.0078
vt 0.6919 0.9945
vt 0.6777 0.0078
vt 0.7275 0.5032
vt 0.7109 0.9950
vt 0.7124 0.5032
vt 0.7261 0.9951
vt 0.7422 0.9951
vt 0.7563 0.5032
vt 0.7578 0.9951
vt 0.7422 0.5032
vt 0.7275 0.5032
vt 0.7422 0.9951
vt 0.7261 0.9951
vt 0.7109 0.9950
vt 0.7422 0.5032
vt 0.7124 0.5032
vt 0.7563 0.5032
vt 0.7578 0.9951
vt 0.6777 0.9945
vt 0.6919 0.0078
vt 0.6919 0.9945
vt 0.6777 0.0078
vt 0.6636 0.0078
vt 0.6499 0.9945
vt 0.6499 0.0078
vt 0.6636 0.9945
vt 1.8086 0.8438
vt 1.8213 0.9846
vt 1.8213 0.8438
vt 1.8086 0.9846
vt 1.8330 0.8438
vt 1.7959 0.9846
vt 1.8330 0.9846
vt 1.7959 0.8438
vt 1.7832 0.8438
vt 1.7832 0.9846
vt 0.5298 0.7751
vt 0.5679 0.7900
vt 0.5298 0.7900
vt 1.5371 0.4907
vt 1.4893 0.5586
vt 1.5498 0.5037
vt 0.5679 0.7751
vt 0.5674 0.8160
vt 0.5293 0.8563
vt 0.5293 0.8160
vt 1.4893 0.4907
vt 1.5498 0.5586
vt 0.5493 0.5034
vt 0.4890 0.4907
vt 0.5366 0.4907
vt 0.5298 0.7100
vt 0.5679 0.7563
vt 0.5298 0.7563
vt 0.5674 0.8563
vt 0.5293 0.5666
vt 0.5674 0.6238
vt 0.5293 0.6238
vt 0.5679 0.6460
vt 0.5298 0.6968
vt 0.5298 0.6460
vt 0.4890 0.5586
vt 0.5679 0.7100
vt 0.5674 0.5666
vt 0.5679 0.6968
vt 0.5493 0.5586
vt 0.9565 0.0005
vt 0.9688 0.4917
vt 0.9697 0.0005
vt 0.9551 0.4917
vt 0.9834 0.4917
vt 0.9414 0.4917
vt 0.9824 0.0005
vt 0.9429 0.0005
vt 0.9971 0.4917
vt 0.9956 0.0005
vt 0.9429 0.9912
vt 0.9580 0.5000
vt 0.9443 0.5000
vt 0.9839 0.5000
vt 0.9985 0.9912
vt 0.9971 0.5000
vt 0.9565 0.9912
vt 0.9844 0.9913
vt 0.9702 0.9912
vt 0.9712 0.5000
vt 0.9033 0.0020
vt 0.9160 0.4961
vt 0.9155 0.0020
vt 0.9038 0.4961
vt 0.9287 0.4961
vt 0.8911 0.4961
vt 0.9277 0.0015
vt 0.8916 0.0020
vt 0.8662 0.4961
vt 0.8794 0.0020
vt 0.8672 0.0015
vt 0.8789 0.4961
vt 0.8330 0.8438
vt 0.8208 0.9846
vt 0.8335 0.9846
vt 0.7832 0.9846
vt 0.7959 0.8439
vt 0.7832 0.8438
vt 0.8208 0.8439
vt 0.7954 0.9846
vt 0.8081 0.8439
vt 0.8081 0.9847
vt 1.6074 0.9985
vt 1.6367 0.0015
vt 1.6367 0.9985
vt 1.6074 0.0015
vt 0.5747 0.0039
vt 0.5947 0.9984
vt 0.5747 0.9984
vt 1.5742 0.9984
vt 1.5947 0.0039
vt 1.5947 0.9984
vt 0.5947 0.0039
vt 1.5742 0.0039
vt 0.6362 0.0015
vt 0.6074 0.9985
vt 0.6074 0.0015
vt 0.6362 0.9985
vt 1.6367 0.0015
vt 1.6074 0.9985
vt 1.6367 0.9985
vt 0.5747 0.9984
vt 0.5947 0.0039
vt 0.5747 0.0039
vt 1.6074 0.0015
vt 0.5947 0.9984
vt 1.5742 0.0039
vt 1.5947 0.9984
vt 1.5947 0.0039
vt 0.6074 0.9985
vt 0.6362 0.0015
vt 0.6074 0.0015
vt 1.5742 0.9984
vt 0.6362 0.9985
vt 0.5293 0.8563
vt 0.5674 0.8160
vt 0.5293 0.8160
vt 1.5371 0.4907
vt 1.4893 0.5586
vt 1.4893 0.4907
vt 0.5674 0.8563
vt 0.5679 0.7900
vt 0.5298 0.7751
vt 0.5298 0.7900
vt 1.5498 0.5037
vt 0.5674 0.6238
vt 0.5293 0.5666
vt 0.5293 0.6238
vt 0.4890 0.4907
vt 0.5493 0.5034
vt 0.5366 0.4907
vt 0.5674 0.5666
vt 0.5679 0.7751
vt 1.5498 0.5586
vt 0.5298 0.6460
vt 0.5679 0.6968
vt 0.5679 0.6460
vt 0.5493 0.5586
vt 0.4890 0.5586
vt 0.5679 0.7563
vt 0.5298 0.7100
vt 0.5298 0.7563
vt 0.5298 0.6968
vt 0.5679 0.7100
vt 0.5679 0.7900
vt 0.5298 0.7751
vt 0.5298 0.7900
vt 0.5293 0.8160
vt 0.5674 0.8563
vt 0.5674 0.8160
vt 0.5679 0.7751
vt 1.4893 0.5586
vt 1.5371 0.4907
vt 1.5498 0.5037
vt 0.5293 0.8563
vt 0.4890 0.4907
vt 0.5493 0.5034
vt 0.5366 0.4907
vt 0.5679 0.7563
vt 0.5298 0.7100
vt 0.5298 0.7563
vt 1.5498 0.5586
vt 1.4893 0.4907
vt 0.5293 0.5666
vt 0.5674 0.6238
vt 0.5674 0.5666
vt 0.5493 0.5586
vt 0.5679 0.7100
vt 0.5679 0.6968
vt 0.5298 0.6460
vt 0.5298 0.6968
vt 0.5293 0.6238
vt 0.4890 0.5586
vt 0.5679 0.6460
vt 1.5166 0.0015
vt 1.4922 0.4819
vt 1.4922 0.0015
vt 1.5166 0.4819
vt 0.5312 0.4819
vt 0.5586 0.0015
vt 0.5586 0.4819
vt 1.5312 0.0015
vt 1.5586 0.4819
vt 1.5312 0.4819
vt 0.5312 0.0015
vt 1.5586 0.0015
vt 0.4919 0.4819
vt 0.5166 0.0015
vt 0.5166 0.4819
vt 0.4919 0.0015
vt 0.5166 0.0015
vt 0.4919 0.4819
vt 0.4919 0.0015
vt 0.5166 0.4819
vt 1.5586 0.4819
vt 1.5312 0.0015
vt 1.5586 0.0015
vt 0.5586 0.0015
vt 0.5312 0.4819
vt 0.5312 0.0015
vt 1.5312 0.4819
vt 0.5586 0.4819
vt 1.4922 0.4819
vt 1.5166 0.0015
vt 1.5166 0.4819
vt 1.4922 0.0015
vt 0.8081 0.8439
vt 0.8208 0.9846
vt 0.8081 0.9847
vt 0.7954 0.9846
vt 0.8208 0.8439
vt 0.7959 0.8439
vt 0.8330 0.8438
vt 0.7832 0.8438
vt 0.8335 0.9846
vt 0.7832 0.9846
vt 1.7959 0.9846
vt 1.8086 0.8438
vt 1.8086 0.9846
vt 1.7959 0.8438
vt 1.8213 0.9846
vt 1.7832 0.8438
vt 1.8213 0.8438
vt 1.7832 0.9846
vt 1.8330 0.8438
vt 1.8330 0.9846
vt 0.8789 0.4961
vt 0.8672 0.0015
vt 0.8794 0.0020
vt 0.8916 0.0020
vt 0.8662 0.4961
vt 0.8911 0.4961
vt 0.9287 0.4961
vt 0.9155 0.0020
vt 0.9277 0.0015
vt 0.9038 0.4961
vt 0.9160 0.4961
vt 0.9033 0.0020
vt 0.9580 0.5000
vt 0.9702 0.9912
vt 0.9565 0.9912
vt 0.9429 0.9912
vt 0.9712 0.5000
vt 0.9443 0.5000
vt 0.9839 0.5000
vt 0.9844 0.9913
vt 0.9971 0.5000
vt 0.9985 0.9912
vt 0.9414 0.4917
vt 0.9565 0.0005
vt 0.9551 0.4917
vt 0.9429 0.0005
vt 0.9697 0.0005
vt 0.9971 0.4917
vt 0.9824 0.0005
vt 0.9956 0.0005
vt 0.9688 0.4917
vt 0.9834 0.4917
vt 0.5679 0.7751
vt 0.5298 0.7900
vt 0.5298 0.7751
vt 0.5298 0.7100
vt 0.5679 0.7563
vt 0.5298 0.7563
vt 0.5679 0.7900
vt 1.5498 0.5037
vt 1.5371 0.4907
vt 1.4893 0.4907
vt 1.4893 0.5586
vt 1.5498 0.5586
vt 0.5679 0.7100
vt 0.5674 0.8563
vt 0.5293 0.8160
vt 0.5674 0.8160
vt 0.5493 0.5034
vt 0.4890 0.4907
vt 0.5366 0.4907
vt 0.5293 0.8563
vt 0.5679 0.6460
vt 0.5298 0.6968
vt 0.5298 0.6460
vt 0.4890 0.5586
vt 0.5493 0.5586
vt 0.5679 0.6968
vt 0.5293 0.5666
vt 0.5674 0.6238
vt 0.5293 0.6238
vt 0.5674 0.5666
vt 0.5200 0.5666
vt 0.4846 0.9914
vt 0.4846 0.5666
vt 1.4395 0.6555
vt 1.4746 0.9821
vt 1.4395 0.9821
vt 0.5200 0.9914
vt 1.0020 0.6633
vt 1.4268 0.9898
vt 1.0020 0.9898
vt 1.4268 0.6633
vt 1.4746 0.6555
vt 0.4392 0.6633
vt 0.4741 0.9899
vt 0.4392 0.9899
vt 0.0019 0.6631
vt 0.4265 0.9897
vt 0.0019 0.9897
vt 0.4741 0.6633
vt 1.0020 0.3369
vt 1.4395 0.3291
vt 0.4265 0.6631
vt 0.4741 0.3369
vt 1.4268 0.3369
vt 1.4746 0.3291
vt 0.0019 0.3369
vt 0.4392 0.3369
vt 1.0020 0.0103
vt 1.4746 0.0024
vt 0.4265 0.3369
vt 0.4392 0.0103
vt 0.4741 0.0103
vt 1.4268 0.0103
vt 1.4395 0.0024
vt 0.0019 0.0103
vt 0.4265 0.0103
vt 1.4844 0.9914
vt 1.5195 0.5666
vt 1.5195 0.9914
vt 1.4844 0.5666
vt 1.8359 0.3836
vt 1.8359 0.8263
vt 1.8516 0.8263
vt 1.8432 0.3836
vt 1.8281 0.3847
vt 1.8516 0.3829
vt 1.8213 0.3847
vt 1.8213 0.8263
vt 1.7754 0.3829
vt 1.7754 0.8263
vt 1.7910 0.8263
vt 1.7826 0.3829
vt 1.8129 0.3847
vt 1.7910 0.3836
vt 1.8057 0.3847
vt 1.8057 0.8263
vt 1.7978 0.3836
vt 0.8511 0.3830
vt 0.8511 0.8263
vt 0.8364 0.8263
vt 0.8443 0.3830
vt 0.7838 0.3837
vt 0.7759 0.8263
vt 0.7759 0.3830
vt 0.8364 0.3837
vt 0.7905 0.3837
vt 0.7905 0.8263
vt 0.8213 0.8263
vt 0.8294 0.3837
vt 0.7986 0.3848
vt 0.8213 0.3848
vt 0.8057 0.3848
vt 0.8057 0.8263
vt 0.8140 0.3848
vt 1.8281 0.3847
vt 1.8359 0.8263
vt 1.8213 0.8263
vt 1.8213 0.3847
vt 1.8359 0.3836
vt 1.8129 0.3847
vt 1.8432 0.3836
vt 1.8516 0.8263
vt 1.8057 0.8263
vt 1.8057 0.3847
vt 1.8516 0.3829
vt 1.7978 0.3836
vt 1.7826 0.3829
vt 1.7910 0.8263
vt 1.7754 0.8263
vt 1.7754 0.3829
vt 1.7910 0.3836
vt 0.8213 0.3848
vt 0.8213 0.8263
vt 0.8294 0.3837
vt 0.8140 0.3848
vt 0.8057 0.8263
vt 0.8364 0.8263
vt 0.8364 0.3837
vt 0.8057 0.3848
vt 0.8443 0.3830
vt 0.7986 0.3848
vt 0.7905 0.8263
vt 0.8511 0.8263
vt 0.8511 0.3830
vt 0.7905 0.3837
vt 0.7759 0.3830
vt 0.7759 0.8263
vt 0.7838 0.3837
vt 0.7563 0.5032
vt 0.7422 0.9951
vt 0.7422 0.5032
vt 0.7578 0.9951
vt 0.7261 0.9951
vt 0.7275 0.5032
vt 0.7109 0.9950
vt 0.7124 0.5032
vt 0.0000 0.0000
vt 0.0000 0.0000
vt 0.0000 0.0000
vt 0.0000 0.0000
vt 0.0000 0.0000
vt 0.0000 0.0000
vt 0.0000 0.0000
vt 0.0000 0.0000
vt 0.0000 0.0000
vt 0.0000 0.0000
vt 0.0000 0.0000
vt 0.0000 0.0000
vt 0.0000 0.0000
vt 0.0000 0.0000
vt 0.0000 0.0000
vt 0.0000 0.0000
vt 0.0000 0.0000
vt 0.0000 0.0000
vt 0.0000 0.0000
vt 0.0000 0.0000
vt 0.0000 0.0000
vt 0.0000 0.0000
vt 0.0000 0.0000
vt 0.0000 0.0000
vt 0.0000 0.0000
vt 0.0000 0.0000
vt 0.0000 0.0000
vt 0.0000 0.0000
vt 0.0000 0.0000
vt 0.0000 0.0000
vt 0.0000 0.0000
vt 0.0000 0.0000
vt 0.0000 0.0000
vt 0.0000 0.0000
vt 0.0000 0.0000
vt 0.0000 0.0000
vt 0.0000 0.0000
vt 0.0000 0.0000
vt 0.0000 0.0000
vt 0.0000 0.0000
vn -0.6327 0.7744 0.0046
vn 0.8671 0.4977 -0.0201
vn 0.8581 0.5135 -0.0027
vn -1.0000 -0.0031 0.0016
vn -0.1051 -0.9945 0.0005
vn 0.0095 -1.0000 0.0024
vn -0.8805 0.4535 0.1382
vn 0.5058 0.8626 -0.0123
vn 1.0000 -0.0032 -0.0016
vn -0.8581 0.5134 0.0010
vn 0.1091 -0.9940 0.0010
vn 0.0631 -0.9980 0.0048
vn 0.9156 0.4020 -0.0018
vn -0.8641 0.2654 0.4276
vn -0.9994 -0.0353 0.0023
vn 0.8581 0.5135 -0.0038
vn 0.1145 -0.9897 -0.0858
vn 0.0247 -0.9995 0.0218
vn 0.4240 0.2065 0.8818
vn -0.0087 0.8660 -0.5000
vn -0.0017 -0.0153 -0.9999
vn 0.0021 0.0310 0.9995
vn -0.4329 -0.8505 0.2987
vn 0.0001 -0.8517 0.5241
vn 0.9121 0.3995 -0.0924
vn -0.4980 0.8671 -0.0045
vn -0.7306 0.6065 -0.3136
vn 0.0427 -0.9991 0.0029
vn 0.0172 -0.9998 0.0026
vn 0.4070 -0.8818 0.2382
vn -0.4485 0.6260 -0.6379
vn -0.4247 0.1984 -0.8833
vn 0.0006 -0.8629 0.5054
vn -0.4127 0.2079 0.8868
vn 0.0020 -0.0032 1.0000
vn -0.5141 0.8577 0.0097
vn 0.4940 0.8694 -0.0029
vn 1.0000 -0.0032 -0.0028
vn -0.6033 0.6833 0.4113
vn -0.2886 -0.8728 -0.3937
vn -0.4978 -0.8673 0.0031
vn -0.7969 0.6041 0.0019
vn -0.0173 -0.9998 0.0027
vn -0.8354 0.5496 -0.0012
vn 0.4999 0.8660 -0.0125
vn -0.0093 -1.0000 0.0030
vn 0.9868 0.1619 -0.0012
vn 0.4254 0.2578 0.8675
vn -0.4144 0.2162 -0.8841
vn -0.0021 0.0304 -0.9995
vn 0.0017 -0.0353 0.9994
vn -0.0022 -0.8498 -0.5271
vn -0.4345 -0.8651 -0.2506
vn 0.0168 0.0001 -0.9999
vn -0.9999 0.0001 -0.0165
vn -0.9999 0.0000 -0.0156
vn 0.0157 0.0000 -0.9999
vn -0.0094 0.0083 0.9999
vn 0.9999 -0.0056 -0.0091
vn 0.0026 0.0049 1.0000
vn 0.9999 -0.0000 0.0157
vn -0.5679 -0.4894 0.6618
vn -0.5422 -0.5477 -0.6372
vn -0.1439 -0.7444 0.6520
vn 0.8350 0.4596 0.3025
vn -0.8285 -0.1773 -0.5311
vn 0.7357 -0.5824 0.3459
vn -0.5011 0.6649 0.5539
vn 0.4469 -0.4587 -0.7680
vn 0.6148 0.5032 -0.6073
vn -0.5409 0.6167 -0.5720
vn 0.9960 -0.0234 -0.0859
vn 0.3115 0.9502 -0.0054
vn 0.1514 0.9545 0.2569
vn 0.9995 0.0310 -0.0032
vn -0.9521 0.3058 0.0000
vn -0.0729 -0.9973 0.0091
vn -0.9465 -0.3226 0.0017
vn -0.0270 -0.9996 0.0054
vn 0.0209 -0.9998 -0.0057
vn 0.9999 0.0111 0.0057
vn -0.0065 -1.0000 0.0037
vn -1.0000 -0.0039 0.0013
vn 1.0000 -0.0094 -0.0022
vn -0.9997 -0.0135 0.0196
vn -0.0104 0.9999 0.0016
vn -0.0074 1.0000 -0.0039
vn -0.5539 0.8315 -0.0432
vn -0.9977 -0.0675 -0.0006
vn -0.8507 -0.5256 0.0030
vn -0.5820 0.8132 -0.0010
vn 0.0676 -0.9964 -0.0504
vn 0.5758 0.8176 -0.0035
vn -0.0139 -0.9999 0.0026
vn 0.5884 0.8086 -0.0034
vn 0.9518 -0.3066 -0.0009
vn 0.9540 -0.2998 -0.0084
vn -0.0905 0.1693 0.9814
vn -0.9999 0.0007 0.0137
vn 0.3149 0.0000 0.9491
vn 0.9429 -0.0000 0.3330
vn -0.9994 0.0146 0.0319
vn 0.9758 0.1750 -0.1308
vn 0.0277 -0.0138 -0.9995
vn -0.0187 -0.0028 -0.9998
vn -0.0005 0.8411 0.5409
vn 0.0029 -0.7064 0.7078
vn 0.0011 -0.7071 0.7071
vn -0.2734 0.5558 0.7851
vn 0.0006 -0.7083 -0.7059
vn -0.0009 0.8944 -0.4472
vn -0.0015 -0.7071 -0.7071
vn 0.1831 0.7691 -0.6124
vn -0.1849 -0.6139 -0.7674
vn 0.0006 0.7064 -0.7078
vn -0.0020 -0.8937 -0.4487
vn -0.0019 -0.8957 0.4446
vn -0.0036 0.7058 -0.7084
vn 0.0020 -0.4472 0.8944
vn 0.0009 0.6502 0.7598
vn -0.0008 0.7092 0.7050
vn 0.8249 -0.4758 -0.3053
vn -0.5539 -0.6310 0.5432
vn -0.3057 -0.5894 -0.7477
vn 0.3138 0.6801 -0.6626
vn 0.4055 -0.2795 0.8703
vn -0.7962 -0.0854 -0.5989
vn 0.3312 0.5746 0.7484
vn -0.7000 -0.0979 0.7074
vn -0.6266 0.3173 -0.7119
vn -0.8105 0.3289 0.4847
vn 0.0838 -0.8177 -0.5695
vn 0.8119 -0.2990 0.5015
vn 0.1246 -0.7171 0.6857
vn -0.7870 -0.5219 -0.3290
vn 0.5436 -0.2707 -0.7945
vn -0.5319 0.7587 0.3762
vn -0.5533 -0.3545 0.7538
vn 0.5814 0.7623 0.2844
vn -0.3682 0.7981 -0.4770
vn 0.4969 0.7869 -0.3659
vn 0.6475 0.7620 -0.0028
vn 0.5598 -0.7821 0.2737
vn 0.7822 -0.5608 0.2712
vn 0.7071 0.7071 -0.0019
vn -0.4472 -0.8944 0.0007
vn -0.7076 0.7066 0.0023
vn -0.7668 -0.6148 -0.1844
vn -0.7071 0.7071 0.0011
vn -0.6157 -0.7662 0.1841
vn -0.7012 0.7129 -0.0054
vn -0.7072 0.7070 0.0011
vn -0.4453 -0.8954 0.0036
vn 0.7033 0.7067 0.0767
vn 0.7823 -0.5620 0.2686
vn 0.7167 0.6974 -0.0016
vn 0.8944 -0.4472 -0.0019
vn -0.0013 -0.0019 -1.0000
vn 1.0000 0.0021 -0.0018
vn -0.0188 -0.0083 -0.9998
vn -0.9999 -0.0114 0.0078
vn 0.9998 0.0002 0.0193
vn -0.9999 -0.0030 -0.0154
vn -0.0029 0.0028 1.0000
vn 0.0187 0.0057 0.9998
vn -0.9997 -0.0083 0.0246
vn -0.0198 0.0023 -0.9998
vn -0.0409 0.0000 -0.9992
vn -0.9998 -0.0028 0.0189
vn 1.0000 0.0030 -0.0075
vn 0.0038 0.0066 1.0000
vn 0.9998 0.0209 0.0033
vn -0.0257 0.0087 0.9996
vn -0.9300 -0.3676 0.0033
vn -0.2163 -0.9763 -0.0011
vn -0.9476 -0.3196 0.0027
vn -0.5890 0.8081 -0.0007
vn 0.1725 -0.9850 -0.0019
vn -0.5796 0.8149 -0.0015
vn 0.9509 -0.3094 0.0048
vn 0.5931 0.8051 -0.0029
vn 0.9469 -0.3215 -0.0008
vn 0.5952 0.8035 0.0058
vn -1.0000 0.0034 0.0023
vn 0.0726 0.9974 0.0031
vn -1.0000 -0.0080 0.0023
vn 0.1050 -0.9779 -0.1807
vn 0.0058 1.0000 -0.0080
vn -0.1507 -0.9515 0.2682
vn 0.9472 0.3205 -0.0027
vn 0.9479 -0.3187 -0.0010
vn 0.0721 -0.9973 0.0095
vn -0.9469 -0.3216 0.0034
vn -0.9480 -0.1652 0.2722
vn 0.0077 -1.0000 0.0052
vn -0.3239 0.9461 -0.0030
vn 0.9952 -0.0758 -0.0615
vn 0.3239 0.9461 -0.0054
vn 1.0000 -0.0018 0.0023
vn 0.7915 -0.3062 0.5289
vn 0.1347 -0.9139 -0.3829
vn 0.5478 -0.2486 -0.7988
vn 0.4702 0.5270 -0.7080
vn 0.4823 -0.7495 0.4535
vn -0.6765 -0.6401 -0.3641
vn -0.3582 0.4603 -0.8123
vn 0.5800 0.5755 0.5766
vn -0.3224 -0.6118 0.7223
vn -0.5767 0.6729 0.4634
vn -0.6916 -0.3742 -0.6179
vn -0.5900 0.3629 0.7212
vn -0.6004 0.7467 -0.2861
vn 0.1093 0.7291 -0.6757
vn -0.5939 -0.6949 0.4054
vn 0.0551 0.5654 0.8230
vn -0.0616 -0.6815 -0.7293
vn 0.0971 -0.7910 0.6041
vn 0.2166 0.6896 0.6910
vn 0.0710 0.7723 -0.6313
vn -0.0153 -0.5601 -0.8283
vn 0.0753 -0.8266 0.5577
vn 0.4707 0.3987 0.7871
vn 0.6977 -0.3388 -0.6312
vn 0.7103 -0.3325 0.6204
vn 0.7314 0.5499 -0.4032
vn -0.9416 -0.1384 0.3070
vn -0.9964 -0.0000 0.0847
vn -0.0012 0.1008 0.9949
vn -0.5908 -0.0146 0.8067
vn -0.9458 -0.1059 -0.3070
vn -0.0087 -0.0032 1.0000
vn -0.5981 0.1278 -0.7912
vn -0.3868 0.0014 -0.9222
vn 0.8994 0.1069 0.4239
vn 0.5828 -0.0023 0.8126
vn 0.0020 0.1010 -0.9949
vn 0.9443 -0.1186 0.3070
vn 0.5774 0.1175 -0.8080
vn 0.7606 0.0006 -0.6492
vn 0.9451 0.0937 -0.3131
vn -0.0169 -0.1264 -0.9918
vn 0.2215 0.0000 -0.9752
vn -0.8928 0.0321 -0.4494
vn -0.6040 -0.0082 -0.7970
vn 0.5758 -0.0997 -0.8115
vn -0.9453 -0.1200 -0.3032
vn 0.9577 -0.0047 -0.2878
vn 0.9674 0.1425 -0.2095
vn -0.6203 0.0980 0.7782
vn -0.9567 -0.0164 0.2907
vn 0.9463 -0.0997 0.3075
vn -0.6008 -0.0038 0.7994
vn 0.5917 -0.0120 0.8061
vn 0.5777 0.0977 0.8104
vn 0.0095 -0.0029 1.0000
vn 0.9714 0.0006 -0.2373
vn 0.9985 -0.0000 0.0545
vn 0.5384 0.0910 -0.8377
vn 0.5970 -0.0148 -0.8021
vn 0.9124 0.0000 0.4093
vn 0.0254 -0.0095 -0.9996
vn 0.5892 -0.0248 0.8076
vn 0.1491 0.1169 0.9819
vn -0.6335 0.0835 -0.7692
vn -0.5772 -0.0130 -0.8165
vn -0.1123 -0.0011 0.9937
vn -0.9408 -0.0110 -0.3389
vn -0.6537 -0.0012 0.7568
vn -0.8865 0.0727 0.4569
vn -0.9568 -0.0151 0.2902
vn 0.4856 -0.0000 0.8742
vn 0.7165 0.0767 0.6934
vn 0.9555 -0.0120 0.2948
vn -0.1109 -0.0000 0.9938
vn -0.3940 -0.0000 0.9191
vn 0.9205 0.0607 -0.3861
vn 0.9534 -0.0151 -0.3013
vn -0.6976 -0.0000 0.7165
vn 0.5959 -0.0011 -0.8030
vn -0.9809 -0.0000 0.1946
vn -0.9960 -0.0000 -0.0892
vn -0.1615 0.0426 -0.9859
vn -0.0005 -0.0013 -1.0000
vn -0.9055 0.0000 -0.4244
vn -0.5164 0.0000 -0.8564
vn 0.6002 0.6932 0.3990
vn -0.2108 -0.8862 0.4125
vn 0.1768 -0.9006 0.3972
vn 0.8779 0.2219 -0.4244
vn -0.9994 -0.0352 0.0022
vn -0.5140 0.8575 0.0217
vn 0.0000 1.0000 -0.0000
usemtl bunk_bed
s 1
f 1/1/1 2/2/2 3/3/3
f 2/2/2 1/1/1 4/4/4
f 2/5/2 5/6/5 3/7/3
f 5/6/5 4/4/4 1/1/1
f 5/6/5 2/5/2 6/8/6
f 4/4/4 5/6/5 6/8/6
f 7/9/7 8/10/8 9/11/9
f 8/10/8 7/9/7 10/12/10
f 11/13/11 9/14/9 8/15/8
f 7/9/7 11/13/11 10/12/10
f 9/14/9 11/13/11 12/16/12
f 11/13/11 7/9/7 12/16/12
f 13/17/13 14/18/14 15/19/15
f 14/18/14 13/17/13 16/20/16
f 17/21/17 15/19/15 14/18/14
f 13/22/13 17/21/17 16/23/16
f 15/19/15 17/21/17 18/24/18
f 17/21/17 13/22/13 18/24/18
f 19/25/19 20/26/20 21/27/21
f 20/26/20 19/25/19 22/28/22
f 23/29/23 21/30/21 20/31/20
f 24/32/24 22/28/22 19/25/19
f 21/30/21 23/29/23 24/32/24
f 22/28/22 24/32/24 23/29/23
f 25/33/25 26/34/26 27/35/27
f 26/34/26 25/33/25 28/36/3
f 29/37/28 27/35/27 26/34/26
f 25/38/25 29/37/28 28/39/3
f 27/35/27 29/37/28 30/40/29
f 29/37/28 25/38/25 30/40/29
f 31/41/30 32/42/31 33/43/32
f 32/42/31 31/41/30 34/44/33
f 35/45/34 33/46/32 32/47/31
f 36/48/35 34/44/33 31/41/30
f 33/46/32 35/45/34 36/48/35
f 34/44/33 36/48/35 35/45/34
f 37/49/36 38/50/37 39/51/38
f 38/50/37 37/49/36 40/52/39
f 41/53/40 39/54/38 38/55/37
f 42/56/41 40/52/39 37/49/36
f 39/54/38 41/53/40 42/56/41
f 40/52/39 42/56/41 41/53/40
f 43/57/42 44/58/43 45/59/44
f 46/60/45 43/57/42 45/59/44
f 44/58/43 43/57/42 47/61/46
f 43/57/42 46/60/45 48/62/47
f 48/63/47 44/58/43 47/61/46
f 44/58/43 48/63/47 46/64/45
f 49/65/48 50/66/49 51/67/50
f 50/66/49 49/65/48 52/68/51
f 53/69/52 51/70/50 50/71/49
f 54/72/53 52/68/51 49/65/48
f 51/70/50 53/69/52 54/72/53
f 52/68/51 54/72/53 53/69/52
f 55/73/54 56/74/55 57/75/56
f 56/74/55 55/73/54 58/76/57
f 56/74/55 59/77/58 57/75/56
f 55/73/54 60/78/59 58/76/57
f 59/77/58 56/74/55 61/79/60
f 60/78/59 55/73/54 62/80/61
f 60/78/59 59/81/58 61/82/60
f 59/81/58 60/78/59 62/80/61
f 63/83/62 64/84/63 65/85/64
f 65/86/64 66/87/65 63/88/62
f 64/84/63 63/83/62 67/89/66
f 64/90/63 68/91/67 65/92/64
f 66/87/65 65/86/64 68/93/67
f 63/88/62 66/87/65 69/94/68
f 67/95/66 70/96/69 64/97/63
f 69/98/68 67/99/66 63/100/62
f 68/91/67 64/90/63 70/101/69
f 68/102/67 71/103/70 66/104/65
f 71/105/70 69/106/68 66/107/65
f 67/95/66 71/108/70 70/96/69
f 67/99/66 69/98/68 72/109/71
f 71/103/70 68/102/67 70/110/69
f 69/106/68 71/105/70 72/111/71
f 71/108/70 67/95/66 72/112/71
f 73/113/72 74/114/73 75/115/74
f 74/114/73 73/113/72 76/116/75
f 77/117/76 75/115/74 74/114/73
f 73/113/72 78/118/77 76/116/75
f 75/115/74 77/117/76 79/119/78
f 78/118/77 73/113/72 80/120/79
f 78/121/77 79/119/78 77/117/76
f 79/119/78 78/121/77 80/122/79
f 81/123/80 82/124/81 83/125/82
f 84/126/83 81/127/80 83/128/82
f 82/124/81 81/123/80 85/129/84
f 81/127/80 84/126/83 86/130/85
f 87/131/86 82/124/81 85/129/84
f 84/126/83 87/131/86 86/130/85
f 82/124/81 87/131/86 88/132/87
f 87/131/86 84/126/83 88/132/87
f 89/133/88 90/134/89 91/135/90
f 90/134/89 89/133/88 92/136/91
f 93/137/92 91/135/90 90/134/89
f 89/133/88 94/138/93 92/136/91
f 91/135/90 93/137/92 95/139/94
f 94/138/93 89/133/88 96/140/95
f 93/141/92 97/142/96 95/143/94
f 97/142/96 94/138/93 96/140/95
f 97/142/96 93/141/92 98/144/97
f 94/138/93 97/142/96 98/144/97
f 99/145/98 100/146/99 101/147/100
f 101/148/100 102/149/101 99/150/98
f 100/146/99 99/145/98 103/151/102
f 102/149/101 101/148/100 104/152/103
f 105/153/104 100/146/99 103/151/102
f 104/152/103 105/153/104 102/149/101
f 100/146/99 105/153/104 106/154/105
f 105/153/104 104/152/103 106/154/105
f 107/155/106 108/156/107 109/157/108
f 108/156/107 107/155/106 110/158/109
f 108/159/107 111/160/110 109/161/108
f 112/162/111 110/163/109 107/164/106
f 111/160/110 108/159/107 113/165/112
f 110/163/109 112/162/111 114/166/113
f 114/167/113 111/168/110 113/169/112
f 111/168/110 114/167/113 112/170/111
f 115/171/114 116/172/115 117/173/116
f 117/174/116 118/175/117 115/176/114
f 116/172/115 115/171/114 119/177/118
f 118/175/117 117/174/116 120/178/119
f 121/179/120 116/180/115 119/181/118
f 120/182/119 121/183/120 118/184/117
f 116/180/115 121/179/120 122/185/121
f 121/183/120 120/182/119 122/186/121
f 123/187/122 124/188/123 125/189/124
f 125/190/124 126/191/125 123/192/122
f 124/188/123 123/187/122 127/193/126
f 124/194/123 128/195/127 125/196/124
f 126/191/125 125/190/124 128/197/127
f 129/198/128 123/199/122 126/200/125
f 127/201/126 130/202/129 124/203/123
f 123/199/122 129/198/128 127/204/126
f 128/195/127 124/194/123 130/205/129
f 126/191/125 128/197/127 131/206/130
f 126/207/125 132/208/131 129/209/128
f 130/202/129 127/201/126 132/210/131
f 132/210/131 127/201/126 129/211/128
f 130/212/129 131/213/130 128/214/127
f 132/208/131 126/207/125 131/215/130
f 131/213/130 130/212/129 132/216/131
f 133/217/132 134/218/133 135/219/134
f 135/220/134 136/221/135 133/222/132
f 134/218/133 133/217/132 137/223/136
f 138/224/137 135/225/134 134/226/133
f 136/221/135 135/220/134 139/227/138
f 136/228/135 137/229/136 133/230/132
f 137/231/136 140/232/139 134/233/133
f 138/224/137 134/226/133 140/234/139
f 135/225/134 138/224/137 139/235/138
f 139/236/138 141/237/140 136/238/135
f 137/229/136 136/228/135 142/239/141
f 140/232/139 137/231/136 142/240/141
f 142/241/141 138/242/137 140/243/139
f 141/237/140 139/236/138 138/244/137
f 142/239/141 136/228/135 141/245/140
f 138/242/137 142/241/141 141/246/140
f 143/247/142 144/248/143 145/249/144
f 144/248/143 143/247/142 146/250/145
f 147/251/146 145/252/144 144/253/143
f 143/254/142 148/255/147 146/256/145
f 145/252/144 147/251/146 149/257/148
f 148/255/147 143/254/142 150/258/149
f 148/259/147 149/260/148 147/261/146
f 149/260/148 148/259/147 150/262/149
f 151/263/150 152/264/151 153/265/152
f 152/264/151 151/263/150 154/266/153
f 152/267/151 155/268/154 153/269/152
f 156/270/155 154/271/153 151/272/150
f 155/268/154 152/267/151 157/273/156
f 154/271/153 156/270/155 158/274/157
f 158/275/157 155/276/154 157/277/156
f 155/276/154 158/275/157 156/278/155
f 159/279/158 160/280/159 161/281/160
f 162/282/161 159/279/158 161/281/160
f 160/280/159 159/279/158 163/283/162
f 159/279/158 162/282/161 164/284/163
f 165/285/164 160/280/159 163/283/162
f 162/282/161 165/286/164 164/284/163
f 160/280/159 165/285/164 166/287/165
f 165/286/164 162/282/161 166/288/165
f 167/289/166 168/290/167 169/291/168
f 168/290/167 167/289/166 170/292/169
f 168/290/167 171/293/170 169/291/168
f 167/289/166 172/294/171 170/292/169
f 171/293/170 168/290/167 173/295/172
f 172/294/171 167/289/166 174/296/173
f 172/297/171 171/293/170 173/295/172
f 171/293/170 172/297/171 174/298/173
f 175/299/174 176/300/175 177/301/176
f 178/302/177 175/299/174 177/301/176
f 176/300/175 175/299/174 179/303/178
f 175/299/174 178/302/177 180/304/179
f 179/305/178 181/306/180 176/307/175
f 178/302/177 182/308/181 180/304/179
f 181/306/180 179/305/178 183/309/182
f 182/308/181 178/302/177 184/310/183
f 182/308/181 181/306/180 183/309/182
f 181/306/180 182/308/181 184/310/183
f 185/311/184 186/312/185 187/313/186
f 188/314/187 185/311/184 187/313/186
f 186/312/185 185/311/184 189/315/188
f 185/311/184 188/314/187 190/316/189
f 191/317/190 186/312/185 189/315/188
f 192/318/191 190/319/189 188/320/187
f 186/312/185 191/317/190 192/318/191
f 190/319/189 192/318/191 191/317/190
f 193/321/192 194/322/193 195/323/194
f 194/322/193 193/321/192 196/324/195
f 197/325/196 195/323/194 194/322/193
f 193/326/192 198/327/197 196/328/195
f 195/323/194 197/325/196 199/329/198
f 198/327/197 193/326/192 200/330/199
f 198/327/197 199/329/198 197/325/196
f 199/329/198 198/327/197 200/330/199
f 201/331/200 202/332/201 203/333/202
f 204/334/203 201/335/200 203/336/202
f 202/332/201 201/331/200 205/337/204
f 203/338/202 202/339/201 206/340/205
f 203/338/202 207/341/206 204/342/203
f 201/335/200 204/334/203 208/343/207
f 209/344/208 202/345/201 205/346/204
f 201/347/200 209/348/208 205/349/204
f 207/341/206 203/338/202 206/340/205
f 202/345/201 209/344/208 206/350/205
f 210/351/209 204/352/203 207/353/206
f 210/354/209 201/347/200 208/355/207
f 204/352/203 210/351/209 208/356/207
f 201/347/200 210/354/209 209/348/208
f 206/357/205 210/358/209 207/359/206
f 210/358/209 206/357/205 209/360/208
f 211/361/210 212/362/211 213/363/212
f 214/364/213 211/365/210 213/366/212
f 212/362/211 211/361/210 215/367/214
f 216/368/215 213/369/212 212/370/211
f 213/369/212 216/368/215 214/371/213
f 211/365/210 214/364/213 217/372/216
f 218/373/217 212/374/211 215/375/214
f 217/376/216 215/377/214 211/378/210
f 212/374/211 218/373/217 216/379/215
f 219/380/218 214/371/213 216/368/215
f 220/381/219 217/372/216 214/364/213
f 215/377/214 217/376/216 218/382/217
f 218/373/217 219/383/218 216/379/215
f 214/371/213 219/380/218 220/384/219
f 217/372/216 220/381/219 221/385/220
f 221/386/220 218/382/217 217/376/216
f 219/383/218 218/373/217 222/387/221
f 223/388/222 220/384/219 219/380/218
f 220/381/219 224/389/223 221/385/220
f 218/382/217 221/386/220 222/390/221
f 225/391/224 219/383/218 222/387/221
f 219/383/218 225/391/224 223/392/222
f 220/384/219 223/388/222 226/393/225
f 224/389/223 220/381/219 226/394/225
f 224/395/223 222/390/221 221/386/220
f 222/390/221 224/395/223 225/396/224
f 225/397/224 226/398/225 223/399/222
f 226/398/225 225/397/224 224/400/223
f 227/401/226 228/402/227 229/403/228 230/404/229
f 231/405/230 228/402/227 227/401/226
f 230/404/229 229/403/228 232/406/231
f 233/407/232 234/408/233 228/402/227 231/405/230
f 232/409/231 229/410/228 235/411/234 236/412/235
f 237/413/236 234/408/233 233/407/232
f 236/412/235 235/411/234 238/414/237
f 239/415/238 240/416/239 234/408/233 237/413/236
f 238/414/237 235/411/234 240/416/239 241/417/240
f 241/417/240 240/416/239 239/415/238
f 242/418/241 243/419/242 244/420/243 245/421/244
f 246/422/245 243/423/242 242/424/241
f 245/421/244 244/420/243 247/425/246
f 248/426/247 249/427/248 243/423/242 246/422/245
f 247/425/246 244/420/243 250/428/249 251/429/250
f 252/430/251 249/427/248 248/426/247
f 251/429/250 250/428/249 253/431/252
f 254/432/253 255/433/254 249/427/248 252/430/251
f 253/431/252 250/428/249 255/433/254 256/434/255
f 256/434/255 255/433/254 254/432/253
f 257/435/256 258/436/257 259/437/258 260/438/259
f 261/439/260 258/436/257 257/435/256
f 260/438/259 259/437/258 262/440/261
f 263/441/262 264/442/263 258/436/257 261/439/260
f 262/440/261 259/437/258 265/443/264 266/444/265
f 267/445/266 264/442/263 263/441/262
f 266/444/265 265/443/264 268/446/267
f 269/447/268 270/448/269 264/449/263 267/450/266
f 268/446/267 265/443/264 270/448/269 271/451/270
f 271/451/270 270/448/269 269/447/268
f 272/452/271 273/453/272 274/454/273
f 275/455/274 276/456/275 273/453/272 272/452/271
f 274/454/273 273/453/272 277/457/276 278/458/277
f 279/459/278 276/456/275 275/455/274
f 278/458/277 277/457/276 280/460/279
f 281/461/280 282/462/281 276/456/275 279/459/278
f 280/460/279 277/457/276 283/463/282 284/464/283
f 285/465/284 282/462/281 281/461/280
f 284/466/283 283/467/282 286/468/285
f 286/468/285 283/467/282 282/462/281 285/465/284
f 287/469/286 288/470/287 289/471/288
f 288/470/287 287/469/286 290/472/289
f 291/473/290 289/471/288 288/470/287
f 292/474/291 290/475/289 287/476/286
f 289/471/288 291/473/290 292/474/291
f 290/475/289 292/474/291 291/473/290
usemtl bunk_bed_NONE
s off
f 227/477/292 230/478/292 232/479/292 236/480/292 238/481/292 241/482/292 239/483/292 237/484/292 233/485/292 231/486/292
f 247/487/292 251/488/292 253/489/292 256/490/292 254/491/292 252/492/292 248/493/292 246/494/292 242/495/292 245/496/292
f 269/497/292 267/498/292 263/499/292 261/500/292 257/501/292 260/502/292 262/503/292 266/504/292 268/505/292 271/506/292
f 278/507/292 280/508/292 284/509/292 286/510/292 285/511/292 281/512/292 279/513/292 275/514/292 272/515/292 274/516/292
