# This file uses centimeters as units for non-parametric coordinates.

mtllib Jersey_Barrier.mtl
g default
v -2.627174 -0.013295 0.979131
v 2.627174 -0.013295 0.979131
v -2.627174 -0.013295 -0.979131
v 2.627174 -0.013295 -0.979131
v -2.627174 0.815180 0.339583
v 2.627174 0.815180 0.339583
v 2.627174 0.815180 -0.340437
v -2.627174 0.815180 -0.340437
v -2.627174 1.994338 0.140500
v -2.627174 1.973644 0.164554
v -2.627174 1.988453 0.156365
v 2.627174 1.994338 0.140500
v 2.627174 1.988453 0.156365
v 2.627174 1.973644 0.164554
v 2.627174 1.988455 -0.155522
v 2.627174 1.994338 -0.139647
v 2.627174 1.973649 -0.163731
v -2.627174 1.994338 -0.139647
v -2.627174 1.988455 -0.155522
v -2.627174 1.973649 -0.163731
v -2.627174 0.221552 0.970861
v -2.627174 0.213775 0.967779
v -2.627174 0.202423 0.979131
v -2.627174 0.212843 0.976975
v 2.627174 0.221552 0.970861
v 2.627174 0.212843 0.976975
v 2.627174 0.202423 0.979131
v 2.627174 0.213775 0.967779
v -2.627174 0.221558 -0.970866
v -2.627174 0.212845 -0.976976
v -2.627174 0.202423 -0.979131
v -2.627174 0.213775 -0.967779
v 2.627174 0.221558 -0.970866
v 2.627174 0.213775 -0.967779
v 2.627174 0.202423 -0.979131
v 2.627174 0.212845 -0.976976
v -1.318593 -0.013295 0.979131
v -1.318593 0.202423 0.979131
v -1.318593 0.212843 0.976975
v -1.318593 0.221552 0.970861
v -1.318593 0.221558 -0.970866
v -1.318593 0.212845 -0.976976
v -1.318593 0.202423 -0.979131
v -1.318593 -0.013295 -0.979131
v -0.746726 0.202423 0.979131
v -0.746726 -0.013295 0.979131
v -0.746726 -0.013295 -0.979131
v -0.746726 0.202423 -0.979131
v -0.746726 0.212845 -0.976976
v -0.746726 0.221558 -0.970866
v -0.746726 0.221552 0.970861
v -0.746726 0.212843 0.976975
v 0.783877 0.221552 0.970861
v 0.783877 0.212843 0.976975
v 0.783877 0.202423 0.979131
v 0.783877 -0.013295 0.979131
v 0.783877 -0.013295 -0.979131
v 0.783877 0.202423 -0.979131
v 0.783877 0.212845 -0.976976
v 0.783877 0.221558 -0.970866
v 1.377187 0.221558 -0.970866
v 1.377187 0.212845 -0.976976
v 1.377187 0.202423 -0.979131
v 1.377187 -0.013295 -0.979131
v 1.377187 -0.013295 0.979131
v 1.377187 0.202423 0.979131
v 1.377187 0.212843 0.976975
v 1.377187 0.221552 0.970861
vt 0.010706 0.439384
vt 0.015037 0.004738
vt 0.010706 0.387251
vt 0.988510 0.387251
vt 0.988510 0.439384
vt 0.257368 0.004738
vt 0.010706 0.384298
vt 0.988510 0.384298
vt 0.257368 0.044686
vt 0.010706 0.442339
vt 0.988510 0.442339
vt 0.015037 0.044686
vt 0.020885 0.453306
vt 0.015037 0.044686
vt 0.541098 0.453306
vt 0.020885 0.510612
vt 0.023901 0.513627
vt 0.257368 0.044686
vt 0.257368 0.004738
vt 0.538083 0.513627
vt 0.541098 0.510612
vt 0.015037 0.004738
vt 0.015037 0.048229
vt 0.257368 0.048229
vt 0.541099 0.453306
vt 0.020885 0.453306
vt 0.541099 0.510612
vt 0.538083 0.513627
vt 0.015037 0.158160
vt 0.257368 0.048230
vt 0.015037 0.048230
vt 0.015037 0.158160
vt 0.015037 0.372691
vt 0.988067 0.158160
vt 0.988067 0.372691
vt 0.023901 0.513627
vt 0.015037 0.372692
vt 0.020885 0.510612
vt 0.988067 0.372692
vt 0.988067 0.158160
vt 0.015037 0.375433
vt 0.023082 0.515693
vt 0.988067 0.375433
vt 0.190781 0.673391
vt 0.015037 0.375434
vt 0.988067 0.375434
vt 0.015037 0.046616
vt 0.257368 0.046616
vt 0.015037 0.046616
vt 0.257368 0.046616
vt 0.646715 0.046616
vt 0.646715 0.044686
vt 0.756587 0.044686
vt 0.756587 0.046616
vt 0.646715 0.048229
vt 0.756587 0.048229
vt 0.756587 0.048230
vt 0.646715 0.048230
vt 0.646715 0.046616
vt 0.756587 0.046616
vt 0.646715 0.044686
vt 0.756587 0.044686
vt 0.363269 0.046616
vt 0.363269 0.044686
vt 0.363269 0.048230
vt 0.363269 0.048229
vt 0.363269 0.046616
vt 0.363269 0.044686
vt 0.538903 0.515695
vt 0.371429 0.673391
vt 0.538903 0.515695
vt 0.371429 0.673391
vt 0.023082 0.515693
vt 0.190781 0.673391
vt 0.021458 0.513380
vt 0.021458 0.513380
vt 0.540526 0.513380
vt 0.540526 0.513380
vt 0.322306 0.985072
vt 0.239453 0.985072
vt 0.243668 0.986635
vt 0.318089 0.986635
vt 0.237278 0.981138
vt 0.324487 0.981139
vt 0.239453 0.985072
vt 0.322306 0.985072
vt 0.318089 0.986635
vt 0.243668 0.986635
vt 0.237278 0.981138
vt 0.324487 0.981139
vt 0.363269 0.004738
vt 0.646715 0.004738
vt 0.363269 0.004738
vt 0.646715 0.004738
vt 0.988067 0.048230
vt 0.988067 0.046616
vt 0.988067 0.044686
vt 0.756587 0.004738
vt 0.988067 0.004738
vt 0.756587 0.004738
vt 0.988067 0.004738
vt 0.988067 0.044686
vt 0.988067 0.046616
vt 0.988067 0.048229
vt 0.691817 0.899842
vt 0.691817 0.548620
vt 0.653127 0.548620
vt 0.653127 0.899842
vt 0.685072 0.897657
vt 0.685072 0.546435
vt 0.646382 0.546435
vt 0.646382 0.897657
vt 0.636529 0.897657
vt 0.742941 0.897657
vt 0.742941 0.546435
vt 0.636529 0.546435
vt 0.686958 0.897657
vt 0.686958 0.546435
vt 0.648268 0.546435
vt 0.648268 0.897657
vt 0.685961 0.899842
vt 0.685961 0.548620
vt 0.647271 0.548620
vt 0.647271 0.899842
vt 0.639955 0.897657
vt 0.742521 0.897657
vt 0.742521 0.546435
vt 0.639955 0.546435
vt 0.636653 0.540896
vt 0.871353 0.540896
vt 0.871353 0.892118
vt 0.636653 0.892118
vt 0.643218 0.892168
vt 0.643218 0.540946
vt 0.917738 0.540946
vt 0.917738 0.892168
vt 0.641734 0.895549
vt 0.641734 0.544327
vt 0.865925 0.544327
vt 0.865925 0.895549
vn 0.000000 0.000000 1.000000
vn 0.000000 0.000000 1.000000
vn 0.000000 0.013429 0.999910
vn 0.000000 0.009534 0.999955
vn 0.000000 0.999803 -0.019867
vn 0.000000 0.999802 0.019877
vn 0.000000 0.999802 0.019877
vn 0.000000 0.999803 -0.019867
vn 0.000000 0.009527 -0.999955
vn 0.000000 0.013420 -0.999910
vn 0.000000 0.000000 -1.000000
vn 0.000000 0.000000 -1.000000
vn 0.000000 -1.000000 0.000000
vn 0.000000 -1.000000 0.000000
vn 0.000000 -1.000000 0.000000
vn 0.000000 -1.000000 0.000000
vn 1.000000 0.000000 0.000000
vn 1.000000 -0.000000 0.000000
vn 1.000000 -0.000001 0.000000
vn 1.000000 -0.000001 0.000000
vn 1.000000 0.000001 0.000000
vn 1.000000 0.000000 0.000000
vn -1.000000 0.000000 0.000000
vn -1.000000 -0.000000 0.000000
vn -1.000000 -0.000000 0.000000
vn -1.000000 0.000000 0.000000
vn -1.000000 0.000000 0.000000
vn -1.000000 0.000000 0.000000
vn 0.000000 0.725160 0.688580
vn 0.000000 0.724102 0.689693
vn 0.000000 0.728498 0.685048
vn 0.000000 0.723641 -0.690176
vn 0.000000 0.724701 -0.689064
vn 0.000000 0.728041 -0.685534
vn 0.000000 0.154290 0.988026
vn 0.000000 0.149391 0.988778
vn 0.000000 0.149391 0.988778
vn 0.000000 0.154290 0.988026
vn 0.000000 0.150790 -0.988566
vn 0.000000 0.155684 -0.987807
vn 0.000000 0.155684 -0.987807
vn 0.000000 0.150790 -0.988566
vn 0.000000 0.937576 0.347781
vn 0.000000 0.937576 0.347781
vn 0.000000 0.483948 0.875097
vn 0.000000 0.483948 0.875097
vn 0.000000 0.937697 -0.347453
vn 0.000000 0.937697 -0.347453
vn 0.000000 0.484880 -0.874581
vn 0.000000 0.484880 -0.874581
vn 1.000000 0.000000 0.000000
vn 1.000000 0.000000 0.000000
vn 1.000000 0.000009 0.000000
vn 1.000000 -0.000001 0.000000
vn -1.000000 0.000000 0.000000
vn -1.000000 0.000000 0.000000
vn -1.000000 0.000000 0.000000
vn -1.000000 0.000000 0.000000
vn 0.000000 0.396830 0.917892
vn 0.000000 0.396830 0.917892
vn 0.000000 0.396527 -0.918023
vn 0.000000 0.396527 -0.918023
vn -1.000000 0.000000 0.000000
vn 1.000000 0.000000 0.000000
vn -1.000000 0.000000 0.000000
vn 1.000000 0.000000 0.000000
vn 0.000000 0.396830 0.917892
vn 0.000000 0.012997 0.999916
vn 0.000000 0.013757 0.999905
vn 0.000000 0.396830 0.917892
vn 0.000000 0.723253 0.690583
vn 0.000000 0.727984 0.685594
vn 0.000000 0.727527 -0.686079
vn 0.000000 0.722792 -0.691066
vn 0.000000 0.396527 -0.918023
vn 0.000000 0.396527 -0.918023
vn 0.000000 0.012988 -0.999916
vn 0.000000 0.013748 -0.999906
vn 0.000000 0.396527 -0.918023
vn 0.000000 0.012865 -0.999917
vn 0.000000 0.725518 -0.688204
vn 0.000000 0.725976 0.687720
vn 0.000000 0.396830 0.917892
vn 0.000000 0.012873 0.999917
vn 0.000000 0.000000 1.000000
vn 0.000000 0.000000 1.000000
vn 0.000000 -1.000000 0.000000
vn 0.000000 -1.000000 0.000000
vn 0.000000 -1.000000 0.000000
vn 0.000000 -1.000000 0.000000
vn 0.000000 0.000000 -1.000000
vn 0.000000 0.000000 -1.000000
vn 0.000000 0.727388 -0.686227
vn 0.000000 0.728041 -0.685534
vn 0.000000 0.396527 -0.918023
vn 0.000000 0.009527 -0.999955
vn 0.000000 0.000000 -1.000000
vn 0.000000 0.000000 -1.000000
vn 0.000000 -1.000000 0.000000
vn 0.000000 -1.000000 0.000000
vn 0.000000 -1.000000 0.000000
vn 0.000000 -1.000000 0.000000
vn 0.000000 0.000000 1.000000
vn 0.000000 0.000000 1.000000
vn 0.000000 0.009534 0.999955
vn 0.000000 0.396830 0.917892
vn 0.000000 0.727845 0.685742
vn 0.000000 0.728498 0.685048
vn 0.000000 -1.000000 0.000000
vn 0.000000 -1.000000 0.000000
vn 0.000000 -1.000000 0.000000
vn 0.000000 -1.000000 0.000000
vn -1.000000 0.000000 0.000000
vn -1.000000 0.000000 0.000000
vn -1.000000 0.000000 0.000000
vn -1.000000 0.000000 0.000000
vn 1.000000 0.000000 0.000000
vn 1.000000 0.000000 0.000000
vn 1.000000 0.000000 0.000000
vn 1.000000 0.000000 0.000000
vn 0.000000 -1.000000 0.000000
vn 0.000000 -1.000000 0.000000
vn 0.000000 -1.000000 0.000000
vn 0.000000 -1.000000 0.000000
vn 1.000000 0.000000 0.000000
vn 1.000000 0.000000 0.000000
vn 1.000000 0.000000 0.000000
vn 1.000000 0.000000 0.000000
vn -1.000000 0.000000 0.000000
vn -1.000000 0.000000 0.000000
vn -1.000000 0.000000 0.000000
vn -1.000000 0.000000 0.000000
vn -1.000000 0.000003 0.000000
vn -1.000000 0.000003 0.000000
vn -1.000000 -0.000013 0.000000
vn -1.000000 -0.000013 0.000000
vn -1.000000 0.000000 0.000000
vn -1.000000 0.000000 0.000000
vn -1.000000 0.000000 0.000000
vn -1.000000 0.000000 0.000000
vn 1.000000 -0.000004 0.000000
vn 1.000000 -0.000004 0.000000
vn 1.000000 0.000009 0.000000
vn 1.000000 0.000009 0.000000
vn 1.000000 -0.000000 0.000000
vn 1.000000 -0.000000 0.000000
vn 1.000000 0.000000 0.000000
vn 1.000000 0.000000 0.000000
s 1
g pCube1
usemtl lambert2SG
f 1/2/1 37/6/2 38/9/3 23/12/4
s 2
f 18/1/5 9/3/6 12/4/7 16/5/8
s 3
f 31/14/9 43/18/10 44/19/11 3/22/12
s off
f 3/129/13 44/130/14 37/131/15 1/132/16
s 4
f 2/13/17 4/15/18 27/16/19
f 27/16/19 4/15/18 28/17/20
f 28/17/20 4/15/18 34/20/21
f 4/15/18 35/21/22 34/20/21
s 5
f 3/25/23 1/26/24 31/27/25
f 31/27/25 1/26/24 32/28/26
f 32/28/26 1/26/24 22/36/27
f 1/26/24 23/38/28 22/36/27
s 1
f 21/23/29 40/24/30 5/29/31
s 3
f 41/30/32 29/31/33 8/32/34
s 8
f 10/33/35 5/29/36 6/34/37 14/35/38
s 9
f 8/32/39 20/37/40 17/39/41 7/40/42
s 2
f 9/3/6 11/7/43 13/8/44 12/4/7
s 8
f 11/41/45 10/33/35 14/35/38 13/43/46
s 2
f 19/10/47 18/1/5 16/5/8 15/11/48
s 9
f 20/37/40 19/45/49 15/46/50 17/39/41
s 4
f 25/42/51 28/17/20 6/44/52
f 28/17/20 34/20/21 6/44/52
f 34/20/21 33/69/53 6/44/52
f 33/69/53 7/70/54 6/44/52
s 5
f 29/71/55 32/28/26 8/72/56
f 32/28/26 22/36/27 8/72/56
f 22/36/27 21/73/57 8/72/56
f 21/73/57 5/74/58 8/72/56
s 1
f 21/23/29 24/47/59 39/48/60 40/24/30
f 24/47/59 23/12/4 38/9/3 39/48/60
s 3
f 31/14/9 30/49/61 42/50/62 43/18/10
f 30/49/61 29/31/33 41/30/32 42/50/62
s 5
f 22/36/27 23/38/28 24/75/63
f 22/36/27 24/75/63 21/73/57
s 4
f 28/17/20 25/42/51 26/76/64
f 28/17/20 26/76/64 27/16/19
s 5
f 32/28/26 29/71/55 30/77/65
f 32/28/26 30/77/65 31/27/25
s 4
f 34/20/21 35/21/22 36/78/66
f 34/20/21 36/78/66 33/69/53
s 1
f 54/51/67 55/52/68 66/53/69 67/54/70
f 53/55/71 54/51/67 67/54/70 68/56/72
f 5/29/31 53/55/71 68/56/72
s 3
f 61/57/73 60/58/74 8/32/34
f 59/59/75 60/58/74 61/57/73 62/60/76
f 58/61/77 59/59/75 62/60/76 63/62/78
f 43/18/10 42/50/62 49/63/79 48/64/80
f 42/50/62 41/30/32 50/65/81 49/63/79
f 8/32/34 50/65/81 41/30/32
s 1
f 5/29/31 40/24/30 51/66/82
f 40/24/30 39/48/60 52/67/83 51/66/82
f 39/48/60 38/9/3 45/68/84 52/67/83
f 5/29/31 51/66/82 53/55/71
f 51/66/82 52/67/83 54/51/67 53/55/71
f 52/67/83 45/68/84 55/52/68 54/51/67
f 46/91/85 56/92/86 55/52/68 45/68/84
s off
f 46/133/87 47/134/88 57/135/89 56/136/90
s 3
f 47/93/91 48/64/80 58/61/77 57/94/92
f 48/64/80 49/63/79 59/59/75 58/61/77
f 49/63/79 50/65/81 60/58/74 59/59/75
f 8/32/34 60/58/74 50/65/81
f 33/95/93 61/57/73 8/32/34 7/40/94
f 62/60/76 61/57/73 33/95/93 36/96/95
f 63/62/78 62/60/76 36/96/95 35/97/96
f 64/98/97 63/62/78 35/97/96 4/99/98
s off
f 65/137/99 64/138/100 4/139/101 2/140/102
s 1
f 66/53/69 65/100/103 2/101/104 27/102/105
f 67/54/70 66/53/69 27/102/105 26/103/106
f 68/56/72 67/54/70 26/103/106 25/104/107
f 5/29/31 68/56/72 25/104/107 6/34/108
s off
f 43/128/109 48/127/110 45/126/111 38/125/112
f 47/124/113 46/123/114 45/122/115 48/121/116
f 37/120/117 44/119/118 43/118/119 38/117/120
f 58/116/121 63/115/122 66/114/123 55/113/124
f 56/112/125 57/111/126 58/110/127 55/109/128
f 64/108/129 65/107/130 66/106/131 63/105/132
s 14
f 19/79/133 11/80/134 9/81/135 18/82/136
f 8/72/137 5/74/138 10/83/139 20/84/140
f 20/84/140 10/83/139 11/80/134 19/79/133
s 15
f 13/85/141 15/86/142 16/87/143 12/88/144
f 14/89/145 17/90/146 15/86/142 13/85/141
f 7/70/147 17/90/146 14/89/145 6/44/148
