# Blender v2.91.2 OBJ File: ''
# www.blender.org
mtllib wall_concrete_4.mtl
o wall_concrete_4_Mesh.032
v 2.560000 0.000000 0.160000
v 2.560000 0.640000 0.160000
v 0.000000 0.640000 0.160000
v 0.000000 0.000000 0.160000
v 0.000000 0.000000 -0.160000
v 2.560000 0.000000 -0.160000
v 2.560000 0.640000 -0.160000
v 0.000000 0.640000 -0.160000
vt 1.000000 0.687500
vt 1.000000 0.812500
vt 0.500000 0.812500
vt 0.500000 0.687500
vt 0.500000 0.687600
vt 1.000000 0.687600
vt 1.000000 0.750100
vt 0.500000 0.750100
vt 1.000000 0.687500
vt 1.000000 0.812500
vt 0.937500 0.812500
vt 0.937500 0.687500
vt 1.000000 0.820300
vt 0.499900 0.820300
vt 0.499900 0.757800
vt 1.000000 0.757800
vt 0.500000 0.812500
vt 0.500000 0.687500
vt 0.562500 0.687500
vt 0.562500 0.812500
vn 0.0000 0.0000 1.0000
vn 0.0000 -1.0000 0.0000
vn 1.0000 0.0000 0.0000
vn 0.0000 1.0000 0.0000
vn -1.0000 0.0000 0.0000
vn 0.0000 -0.0000 -1.0000
usemtl None
s 1
f 1/1/1 2/2/1 3/3/1
f 1/1/1 3/3/1 4/4/1
f 5/5/2 6/6/2 1/7/2
f 5/5/2 1/7/2 4/8/2
f 6/9/3 7/10/3 2/11/3
f 6/9/3 2/11/3 1/12/3
f 7/13/4 8/14/4 3/15/4
f 7/13/4 3/15/4 2/16/4
f 8/17/5 5/18/5 4/19/5
f 8/17/5 4/19/5 3/20/5
f 8/17/6 7/10/6 6/9/6
f 8/17/6 6/9/6 5/18/6
