# Blender v2.78 (sub 0) OBJ File: ''
# www.blender.org
mtllib rat.mtl
o rat_1Shape_rat_1Shape.mesh
v -0.008053 0.144876 0.438426
v -0.000872 0.131457 0.432969
v -0.000872 0.144407 0.441297
v -0.006441 0.132439 0.430466
v -0.044010 0.184003 0.316295
v -0.037689 0.204198 0.302312
v -0.024844 0.184635 0.343623
v -0.037860 0.214669 0.321230
v -0.066685 0.015633 0.016687
v -0.058902 -0.000042 0.026284
v -0.052168 0.006080 0.014192
v -0.082979 0.002626 0.006860
v -0.064353 0.017187 -0.005979
v -0.053414 0.013419 -0.019554
v -0.065660 0.000407 -0.014402
v -0.073579 0.015365 -0.018547
v -0.064801 0.024231 -0.014264
v -0.065660 0.014602 -0.032611
v -0.064730 0.065530 -0.027250
v -0.051916 0.075296 -0.043885
v -0.062742 0.084654 -0.054827
v -0.074227 0.076784 -0.042998
v -0.040513 0.084173 0.020119
v -0.069107 0.067195 0.038153
v -0.062145 0.099318 -0.020692
v -0.086570 0.103094 0.025716
v -0.067576 0.109541 0.081787
v -0.065096 0.185445 0.062207
v -0.037256 0.197372 -0.001596
v -0.051336 0.138493 -0.037698
v -0.041858 0.014662 0.319229
v -0.029130 0.000787 0.327324
v -0.021503 0.004626 0.303265
v -0.057051 0.002341 0.309212
v -0.044893 0.017155 0.289886
v -0.034611 0.013388 0.278029
v -0.045343 0.000375 0.281463
v -0.054775 0.015333 0.277318
v -0.045205 0.024199 0.281600
v -0.046856 0.007942 0.264949
v -0.036181 0.082620 0.251550
v -0.054339 0.075885 0.139416
v -0.000872 0.059715 0.139416
v -0.055145 0.070885 0.256672
v -0.043349 0.069529 0.235550
v -0.056629 0.073953 0.213884
v -0.067477 0.077781 0.232686
v -0.045388 0.095617 0.289189
v -0.066142 0.120412 0.257379
v -0.057230 0.107609 0.223215
v -0.010161 0.158554 0.448140
v -0.000872 0.159827 0.450283
v -0.000872 0.187959 0.386444
v -0.007166 0.089748 -0.464923
v -0.000873 0.089478 -0.613824
v -0.000872 0.082720 -0.464924
v -0.000872 0.095967 -0.464924
v -0.009643 0.092406 -0.351369
v -0.000872 0.083108 -0.351370
v -0.000872 0.100633 -0.351370
v -0.012802 0.095307 -0.251641
v -0.000872 0.083231 -0.251642
v -0.000872 0.105991 -0.251642
v -0.016775 0.100761 -0.152757
v -0.000872 0.086150 -0.152757
v -0.000872 0.113689 -0.152757
v -0.024242 0.100289 -0.061600
v -0.000872 0.087551 -0.054842
v -0.000872 0.129686 -0.077890
v -0.000872 0.076865 0.282775
v -0.041707 0.140591 0.310529
v -0.047720 0.173161 0.260748
v -0.000872 0.157157 -0.043861
v -0.000872 0.211367 -0.009478
v -0.000872 0.067572 0.022975
v -0.050837 0.200611 0.152419
v -0.000872 0.193890 0.250305
v -0.000872 0.223609 0.173576
v -0.000872 0.110547 0.344164
v -0.067211 0.130495 0.140679
v -0.042277 0.137200 0.360253
v -0.000872 0.114745 0.381183
v -0.025623 0.137970 0.408783
v -0.000872 0.128692 0.426310
v -0.012595 0.138452 0.429844
v -0.000872 0.144175 0.438171
v -0.000872 0.137809 0.409016
v -0.014031 0.140374 0.438068
v -0.000872 0.146264 0.448382
v -0.027887 0.197309 0.329378
v -0.032460 0.231893 0.068099
v -0.000872 0.240795 0.065862
v -0.000872 0.204607 0.325546
v -0.029802 0.179916 0.300164
v -0.000872 0.190176 0.294829
v 0.006309 0.144876 0.438426
v 0.004696 0.132439 0.430466
v 0.042265 0.184003 0.316295
v 0.023099 0.184635 0.343623
v 0.035944 0.204198 0.302312
v 0.036115 0.214669 0.321230
v 0.064941 0.015633 0.016687
v 0.050424 0.006080 0.014192
v 0.057157 -0.000042 0.026284
v 0.081235 0.002626 0.006860
v 0.062609 0.017187 -0.005979
v 0.051669 0.013419 -0.019554
v 0.063915 0.000407 -0.014402
v 0.071834 0.015364 -0.018547
v 0.063056 0.024231 -0.014264
v 0.063915 0.014602 -0.032611
v 0.062985 0.065530 -0.027250
v 0.050171 0.075296 -0.043885
v 0.060997 0.084654 -0.054827
v 0.072482 0.076784 -0.042998
v 0.038769 0.084173 0.020119
v 0.067362 0.067195 0.038153
v 0.060400 0.099318 -0.020692
v 0.084825 0.103094 0.025716
v 0.065831 0.109541 0.081787
v 0.063351 0.185445 0.062207
v 0.035511 0.197372 -0.001596
v 0.049591 0.138493 -0.037698
v 0.040114 0.014662 0.319229
v 0.019759 0.004626 0.303265
v 0.027385 0.000787 0.327324
v 0.055307 0.002341 0.309212
v 0.043149 0.017155 0.289886
v 0.032866 0.013388 0.278029
v 0.043599 0.000375 0.281463
v 0.053031 0.015333 0.277318
v 0.043460 0.024199 0.281600
v 0.045112 0.007942 0.264949
v 0.034436 0.082620 0.251550
v 0.052595 0.075885 0.139416
v 0.053400 0.070885 0.256672
v 0.041604 0.069529 0.235550
v 0.054884 0.073953 0.213884
v 0.065733 0.077781 0.232686
v 0.043644 0.095617 0.289189
v 0.064397 0.120412 0.257379
v 0.055485 0.107609 0.223215
v 0.008416 0.158554 0.448140
v 0.005421 0.089748 -0.464923
v 0.007898 0.092406 -0.351369
v 0.011057 0.095307 -0.251641
v 0.015030 0.100761 -0.152757
v 0.022497 0.100289 -0.061600
v 0.039963 0.140591 0.310529
v 0.049093 0.200611 0.152419
v 0.065466 0.130495 0.140679
v 0.045975 0.173161 0.260748
v 0.040532 0.137200 0.360253
v 0.023878 0.137970 0.408783
v 0.010850 0.138452 0.429844
v 0.012287 0.140374 0.438068
v 0.026142 0.197309 0.329378
v 0.030716 0.231893 0.068099
v 0.028057 0.179916 0.300164
vt 0.4343 0.9469
vt 0.3400 0.9948
vt 0.4324 0.9952
vt 0.3457 0.9464
vt 0.0754 0.5006
vt 0.0733 0.4311
vt 0.0096 0.5486
vt 0.0093 0.4352
vt 0.8057 0.8009
vt 0.7602 0.8235
vt 0.7958 0.8491
vt 0.8440 0.7610
vt 0.7638 0.7681
vt 0.4877 0.8406
vt 0.4950 0.8653
vt 0.5465 0.8397
vt 0.8519 0.8274
vt 0.8635 0.8735
vt 0.5236 0.7942
vt 0.4992 0.7789
vt 0.8935 0.8120
vt 0.5491 0.7875
vt 0.4340 0.7957
vt 0.4650 0.8061
vt 0.4702 0.7803
vt 0.4192 0.7639
vt 0.4058 0.8180
vt 0.9273 0.7839
vt 0.8877 0.7819
vt 0.9023 0.8027
vt 0.9652 0.7886
vt 0.9317 0.7431
vt 0.4928 0.8937
vt 0.4753 0.9494
vt 0.4589 0.9884
vt 0.9456 0.9410
vt 0.9098 0.8948
vt 0.9750 0.9754
vt 0.6130 0.8866
vt 0.6133 0.7994
vt 0.5443 0.9770
vt 0.7655 0.8713
vt 0.7747 0.9603
vt 0.8846 0.9895
vt 0.7600 0.8415
vt 0.6307 0.9409
vt 0.5412 0.5986
vt 0.6556 0.6983
vt 0.7124 0.4760
vt 0.8104 0.5235
vt 0.7981 0.6226
vt 0.5517 0.0865
vt 0.5146 0.1175
vt 0.5571 0.1467
vt 0.5971 0.0595
vt 0.5105 0.0528
vt 0.4769 0.1139
vt 0.5187 0.0982
vt 0.4841 0.0505
vt 0.6131 0.1179
vt 0.6201 0.1623
vt 0.4361 0.0737
vt 0.4245 0.1003
vt 0.6554 0.1066
vt 0.4260 0.0465
vt 0.9619 0.4443
vt 0.9392 0.4305
vt 0.9351 0.4556
vt 0.9756 0.4726
vt 0.9934 0.4341
vt 0.6665 0.1586
vt 0.6527 0.1899
vt 0.6776 0.1846
vt 0.6672 0.1147
vt 0.6294 0.1391
vt 0.2859 0.1555
vt 0.5123 0.2963
vt 0.5838 0.1663
vt 0.9010 0.3196
vt 0.9522 0.2800
vt 0.9906 0.2336
vt 0.7846 0.2118
vt 0.8458 0.1647
vt 0.8694 0.1194
vt 0.9039 0.2810
vt 0.8173 0.3151
vt 0.8898 0.2712
vt 0.7944 0.3026
vt 0.9279 0.1836
vt 0.9146 0.1896
vt 0.1107 0.5437
vt 0.1286 0.5174
vt 0.2688 0.6463
vt 0.2744 0.0193
vt 0.0058 0.0087
vt 0.2747 0.0072
vt 0.2741 0.0300
vt 0.4763 0.0256
vt 0.4768 0.0075
vt 0.4759 0.0416
vt 0.6533 0.0316
vt 0.6539 0.0089
vt 0.6528 0.0516
vt 0.8229 0.0453
vt 0.8238 0.0135
vt 0.8221 0.0756
vt 0.9796 0.0486
vt 0.9936 0.0082
vt 0.9513 0.1119
vt 0.0735 0.9021
vt 0.0507 0.9937
vt 0.1550 0.9920
vt 0.0100 0.9315
vt 0.2093 0.0521
vt 0.1821 0.1489
vt 0.0834 0.2182
vt 0.1559 0.3383
vt 0.2294 0.2385
vt 0.9325 0.5981
vt 0.8381 0.7358
vt 0.9475 0.6842
vt 0.6641 0.7893
vt 0.7575 0.4347
vt 0.9750 0.5205
vt 0.8294 0.3664
vt 0.3416 0.5221
vt 0.1175 0.4347
vt 0.2324 0.5893
vt 0.0426 0.0684
vt 0.2532 0.0477
vt 0.5919 0.4225
vt 0.4484 0.3948
vt 0.3163 0.2577
vt 0.0170 0.8596
vt 0.1256 0.7990
vt 0.1818 0.9500
vt 0.0101 0.7517
vt 0.0875 0.6671
vt 0.0098 0.6091
vt 0.0625 0.6077
vt 0.0543 0.5540
vt 0.0093 0.2203
vt 0.0654 0.2203
vt 0.0359 0.1696
vt 0.0093 0.1507
vt 0.0391 0.2866
vt 0.0093 0.3100
vt 0.3137 0.8328
vt 0.0698 0.5859
vt 0.0642 0.5277
vt 0.0916 0.5092
vt 0.4743 0.6852
vt 0.4444 0.7621
vt 0.3755 0.7897
vt 0.0576 0.3097
vt 0.2967 0.9455
vt 0.0286 0.3768
vt 0.3908 0.8279
vt 0.3838 0.9303
vt 0.4343 0.9469
vt 0.3457 0.9464
vt 0.0754 0.5006
vt 0.0096 0.5486
vt 0.0733 0.4311
vt 0.0093 0.4352
vt 0.8057 0.8009
vt 0.7958 0.8491
vt 0.7602 0.8235
vt 0.8440 0.7610
vt 0.7638 0.7681
vt 0.4877 0.8406
vt 0.5465 0.8397
vt 0.4950 0.8653
vt 0.8519 0.8274
vt 0.8635 0.8735
vt 0.5236 0.7942
vt 0.4992 0.7789
vt 0.8935 0.8120
vt 0.5491 0.7875
vt 0.4340 0.7957
vt 0.4702 0.7803
vt 0.4650 0.8061
vt 0.4058 0.8180
vt 0.4192 0.7639
vt 0.9273 0.7839
vt 0.9023 0.8027
vt 0.8877 0.7819
vt 0.9317 0.7431
vt 0.9652 0.7886
vt 0.4928 0.8937
vt 0.4753 0.9494
vt 0.4589 0.9884
vt 0.9456 0.9410
vt 0.9098 0.8948
vt 0.9750 0.9754
vt 0.6130 0.8866
vt 0.6133 0.7994
vt 0.5443 0.9770
vt 0.7655 0.8713
vt 0.7747 0.9603
vt 0.8846 0.9895
vt 0.7600 0.8415
vt 0.6307 0.9409
vt 0.5412 0.5986
vt 0.7124 0.4760
vt 0.6556 0.6983
vt 0.8104 0.5235
vt 0.7981 0.6226
vt 0.5517 0.0865
vt 0.5571 0.1467
vt 0.5146 0.1175
vt 0.5971 0.0595
vt 0.5105 0.0528
vt 0.4769 0.1139
vt 0.4841 0.0505
vt 0.5187 0.0982
vt 0.6131 0.1179
vt 0.6201 0.1623
vt 0.4361 0.0737
vt 0.4245 0.1003
vt 0.6554 0.1066
vt 0.4260 0.0465
vt 0.9619 0.4443
vt 0.9351 0.4556
vt 0.9392 0.4305
vt 0.9934 0.4341
vt 0.9756 0.4726
vt 0.6665 0.1586
vt 0.6776 0.1846
vt 0.6527 0.1899
vt 0.6294 0.1391
vt 0.6672 0.1147
vt 0.2859 0.1555
vt 0.5123 0.2963
vt 0.9010 0.3196
vt 0.9522 0.2800
vt 0.9906 0.2336
vt 0.7846 0.2118
vt 0.8458 0.1647
vt 0.8694 0.1194
vt 0.9039 0.2810
vt 0.8173 0.3151
vt 0.8898 0.2712
vt 0.7944 0.3026
vt 0.9279 0.1836
vt 0.9146 0.1896
vt 0.1107 0.5437
vt 0.2744 0.0193
vt 0.4763 0.0256
vt 0.6533 0.0316
vt 0.8229 0.0453
vt 0.9796 0.0486
vt 0.0735 0.9021
vt 0.1550 0.9920
vt 0.0507 0.9937
vt 0.0100 0.9315
vt 0.1821 0.1489
vt 0.0834 0.2182
vt 0.2294 0.2385
vt 0.9325 0.5981
vt 0.7575 0.4347
vt 0.3416 0.5221
vt 0.5919 0.4225
vt 0.4484 0.3948
vt 0.3163 0.2577
vt 0.1559 0.3383
vt 0.1818 0.9500
vt 0.1256 0.7990
vt 0.0875 0.6671
vt 0.0625 0.6077
vt 0.0359 0.1696
vt 0.0654 0.2203
vt 0.0391 0.2866
vt 0.3137 0.8328
vt 0.0698 0.5859
vt 0.4743 0.6852
vt 0.0576 0.3097
vt 0.2967 0.9455
vn -0.3483 -0.5071 0.7884
vn -0.4240 -0.5266 0.7368
vn 0.6926 -0.5444 -0.4732
vn 0.9433 0.2939 -0.1541
vn 0.5100 0.6190 0.5974
vn -0.6066 0.1738 0.7758
vn 0.1878 -0.9145 -0.3584
vn 0.4994 0.8502 0.1665
vn 0.5597 0.8208 0.1139
vn 0.6799 -0.7110 -0.1797
vn -0.6201 0.7844 -0.0100
vn -0.4907 0.8380 0.2386
vn -0.6928 -0.5085 -0.5113
vn 0.0719 -0.9843 0.1614
vn 0.7190 0.5482 0.4272
vn 0.5013 -0.6824 -0.5320
vn -0.7313 0.4997 0.4643
vn -0.7596 -0.5129 -0.3999
vn 0.6905 0.2502 0.6787
vn 0.5881 0.2417 0.7719
vn 0.6964 -0.2431 -0.6752
vn 0.5196 -0.3235 -0.7908
vn -0.7742 0.1911 0.6034
vn -0.6344 0.2801 0.7204
vn -0.5715 -0.3087 -0.7603
vn -0.8681 -0.1168 -0.4824
vn 0.6077 -0.7942 0.0019
vn 0.5362 -0.8422 0.0573
vn 0.8178 0.5235 -0.2392
vn 0.7557 0.6168 -0.2202
vn -0.7409 -0.6708 -0.0325
vn -0.8999 -0.4360 0.0053
vn -0.6079 0.6989 -0.3768
vn -0.7157 0.6461 -0.2651
vn 0.6539 -0.5543 0.5150
vn -0.8873 -0.3150 0.3368
vn -0.8757 0.3672 -0.3135
vn -0.8828 0.0405 -0.4679
vn 0.6043 0.7345 0.3088
vn -0.5446 -0.0104 0.8386
vn 0.0392 -0.9886 -0.1453
vn 0.4307 0.8982 0.0881
vn 0.4596 0.8877 0.0279
vn 0.5864 -0.6209 -0.5202
vn -0.6753 0.7257 0.1315
vn -0.5181 0.8044 0.2907
vn -0.7728 -0.5665 -0.2859
vn 0.0812 -0.9912 0.1045
vn 0.7096 0.5498 0.4407
vn 0.6715 -0.6485 -0.3587
vn -0.7028 0.5288 0.4759
vn -0.8080 -0.5601 -0.1826
vn -0.2879 -0.9520 0.1038
vn 0.7961 0.4390 0.4164
vn 0.6653 0.4569 0.5904
vn 0.7835 -0.3035 -0.5422
vn 0.7546 -0.3172 -0.5744
vn -0.5942 0.2767 0.7552
vn -0.8539 0.1763 0.4897
vn -0.8144 -0.4378 -0.3808
vn -0.8652 -0.3806 -0.3265
vn 0.5584 -0.7324 0.3895
vn -0.8849 -0.2025 0.4195
vn 0.5593 -0.7466 0.3603
vn 0.8562 0.1522 -0.4937
vn 0.8518 0.1477 -0.5025
vn -0.8932 -0.2040 0.4006
vn -0.9223 0.2149 -0.3211
vn -0.8476 0.1277 -0.5151
vn -0.2135 0.8940 0.3940
vn -0.7446 -0.6668 -0.0303
vn -0.7025 0.7110 -0.0310
vn -0.7274 -0.6862 0.0023
vn -0.7450 -0.6671 -0.0006
vn -0.6838 0.7290 -0.0320
vn -0.7026 0.7110 -0.0292
vn -0.7114 -0.7028 0.0009
vn -0.7274 -0.6862 -0.0031
vn -0.6665 0.7442 -0.0428
vn -0.6836 0.7288 -0.0392
vn -0.6764 -0.7362 0.0217
vn -0.7114 -0.7028 0.0102
vn -0.6293 0.7741 -0.0680
vn -0.6660 0.7437 -0.0579
vn -0.4813 -0.8764 0.0125
vn -0.6754 -0.7351 -0.0591
vn -0.7978 0.5997 -0.0622
vn -0.6223 0.7655 -0.1636
vn -0.8174 0.0719 0.5716
vn -0.9683 0.2147 -0.1276
vn -0.3499 -0.9086 0.2282
vn -0.9054 0.2968 0.3036
vn -0.7292 -0.0931 -0.6779
vn -0.3425 0.7310 -0.5902
vn -0.3625 0.4992 -0.7870
vn -0.3615 -0.9031 -0.2319
vn -0.2257 -0.9463 -0.2315
vn -0.4053 -0.8782 -0.2539
vn -0.5031 0.8059 0.3121
vn -0.7184 -0.2494 0.6494
vn -0.2873 -0.8397 0.4607
vn -0.2880 -0.9524 -0.0995
vn -0.3817 -0.9222 -0.0622
vn -0.2579 -0.9593 0.1148
vn -0.9691 -0.2304 0.0880
vn -0.8227 -0.5526 -0.1337
vn -0.8392 -0.5175 0.1670
vn -0.9716 -0.2303 0.0537
vn -0.8765 0.3286 -0.3518
vn -0.8767 -0.1457 0.4584
vn -0.5574 -0.8279 -0.0628
vn -0.5119 -0.8536 0.0968
vn -0.9451 0.1102 0.3075
vn -0.8820 0.3810 -0.2774
vn -0.2986 0.5498 -0.7801
vn -0.6162 0.0545 -0.7857
vn -0.5431 -0.8157 0.1993
vn -0.4934 -0.8310 0.2568
vn -0.2579 -0.5876 0.7670
vn -0.5353 -0.7693 0.3488
vn 0.0068 0.9996 -0.0271
vn -0.3095 0.9290 -0.2029
vn -0.0073 -0.9964 0.0847
vn 0.2634 -0.9432 0.2026
vn -0.8827 0.3640 0.2972
vn -0.9296 -0.0063 0.3685
vn -0.9361 0.2685 0.2273
vn -0.2050 -0.1358 0.9693
vn -0.4782 -0.3455 0.8074
vn -0.9995 0.0314 -0.0050
vn -0.9711 0.2069 0.1187
vn -0.8198 0.5717 0.0334
vn -0.7816 0.5787 -0.2329
vn -0.2741 0.8692 -0.4116
vn -0.4005 0.8535 -0.3334
vn -0.9921 0.1114 0.0568
vn -0.9654 0.1968 0.1713
vn -0.3476 0.9065 0.2397
vn -0.9719 0.2352 0.0049
vn -0.4810 0.8510 0.2109
vn -0.2581 0.9541 0.1522
vn -0.4218 0.8415 0.3376
vn -0.2178 0.9414 0.2574
vn -0.8731 0.3530 0.3364
vn -0.9594 0.2654 -0.0951
vn -0.3357 0.9419 -0.0088
vn -0.3891 0.9180 0.0766
vn -0.2917 0.8302 -0.4751
vn -0.3709 0.8405 -0.3949
vn 0.3483 -0.5071 0.7884
vn 0.4240 -0.5266 0.7368
vn -0.6926 -0.5444 -0.4732
vn -0.9433 0.2939 -0.1541
vn -0.5099 0.6190 0.5974
vn 0.6066 0.1738 0.7758
vn -0.1878 -0.9145 -0.3584
vn -0.4994 0.8502 0.1665
vn -0.5597 0.8208 0.1139
vn -0.6799 -0.7110 -0.1797
vn 0.6201 0.7844 -0.0100
vn 0.4907 0.8380 0.2386
vn 0.6928 -0.5085 -0.5113
vn -0.0719 -0.9843 0.1614
vn -0.7190 0.5482 0.4272
vn -0.5013 -0.6824 -0.5320
vn 0.7313 0.4997 0.4643
vn 0.7596 -0.5129 -0.3999
vn -0.6905 0.2502 0.6787
vn -0.5881 0.2417 0.7719
vn -0.6964 -0.2431 -0.6752
vn -0.5196 -0.3235 -0.7908
vn 0.7742 0.1911 0.6034
vn 0.6344 0.2801 0.7204
vn 0.5715 -0.3087 -0.7603
vn 0.8681 -0.1168 -0.4824
vn -0.6077 -0.7942 0.0019
vn -0.5362 -0.8422 0.0573
vn -0.8178 0.5235 -0.2392
vn -0.7557 0.6168 -0.2202
vn 0.7409 -0.6708 -0.0325
vn 0.8999 -0.4360 0.0053
vn 0.6079 0.6989 -0.3768
vn 0.7157 0.6461 -0.2651
vn -0.6539 -0.5543 0.5150
vn 0.8873 -0.3150 0.3368
vn 0.8757 0.3672 -0.3135
vn 0.8828 0.0405 -0.4679
vn -0.6043 0.7345 0.3088
vn 0.5446 -0.0104 0.8386
vn -0.0392 -0.9886 -0.1453
vn -0.4307 0.8982 0.0881
vn -0.4596 0.8877 0.0279
vn -0.5864 -0.6209 -0.5202
vn 0.6753 0.7257 0.1315
vn 0.5181 0.8044 0.2907
vn 0.7728 -0.5665 -0.2859
vn -0.0812 -0.9912 0.1045
vn -0.7096 0.5498 0.4407
vn -0.6715 -0.6485 -0.3587
vn 0.7028 0.5288 0.4759
vn 0.8080 -0.5601 -0.1826
vn 0.2879 -0.9520 0.1038
vn -0.7961 0.4390 0.4164
vn -0.6653 0.4569 0.5904
vn -0.7835 -0.3035 -0.5422
vn -0.7546 -0.3172 -0.5744
vn 0.5942 0.2767 0.7552
vn 0.8539 0.1763 0.4897
vn 0.8144 -0.4378 -0.3808
vn 0.8652 -0.3806 -0.3265
vn -0.5584 -0.7324 0.3895
vn 0.8849 -0.2025 0.4195
vn -0.5593 -0.7466 0.3603
vn -0.8562 0.1522 -0.4937
vn -0.8519 0.1477 -0.5025
vn 0.8932 -0.2041 0.4006
vn 0.9223 0.2149 -0.3211
vn 0.8476 0.1277 -0.5151
vn 0.2135 0.8940 0.3940
vn 0.7446 -0.6668 -0.0303
vn 0.7025 0.7110 -0.0310
vn 0.7274 -0.6862 0.0023
vn 0.7450 -0.6671 -0.0006
vn 0.6838 0.7290 -0.0320
vn 0.7026 0.7110 -0.0292
vn 0.7114 -0.7028 0.0009
vn 0.7274 -0.6862 -0.0031
vn 0.6666 0.7442 -0.0428
vn 0.6836 0.7288 -0.0392
vn 0.6764 -0.7362 0.0217
vn 0.7114 -0.7028 0.0102
vn 0.6293 0.7741 -0.0680
vn 0.6660 0.7437 -0.0579
vn 0.4813 -0.8764 0.0125
vn 0.6754 -0.7351 -0.0591
vn 0.7978 0.5997 -0.0622
vn 0.6223 0.7655 -0.1636
vn 0.8174 0.0719 0.5716
vn 0.9683 0.2147 -0.1276
vn 0.3499 -0.9086 0.2282
vn 0.8767 -0.1457 0.4584
vn 0.7292 -0.0931 -0.6779
vn 0.3425 0.7310 -0.5902
vn 0.3625 0.4992 -0.7870
vn 0.3615 -0.9031 -0.2319
vn 0.2257 -0.9463 -0.2315
vn 0.4053 -0.8782 -0.2539
vn 0.5031 0.8059 0.3121
vn 0.7184 -0.2494 0.6494
vn 0.2873 -0.8397 0.4607
vn 0.2880 -0.9524 -0.0995
vn 0.3817 -0.9222 -0.0622
vn 0.2579 -0.9593 0.1148
vn 0.9691 -0.2304 0.0880
vn 0.8227 -0.5526 -0.1337
vn 0.8392 -0.5175 0.1670
vn 0.9716 -0.2303 0.0537
vn 0.8765 0.3286 -0.3518
vn 0.9054 0.2968 0.3036
vn 0.5574 -0.8279 -0.0628
vn 0.5119 -0.8536 0.0968
vn 0.9451 0.1102 0.3075
vn 0.8820 0.3810 -0.2774
vn 0.2986 0.5498 -0.7801
vn 0.6162 0.0545 -0.7857
vn 0.5431 -0.8157 0.1993
vn 0.4934 -0.8310 0.2568
vn 0.2579 -0.5876 0.7670
vn 0.5353 -0.7693 0.3488
vn -0.0068 0.9996 -0.0271
vn 0.3095 0.9290 -0.2029
vn 0.0073 -0.9964 0.0847
vn -0.2634 -0.9432 0.2026
vn 0.8827 0.3640 0.2972
vn 0.9296 -0.0063 0.3685
vn 0.9361 0.2685 0.2273
vn 0.2049 -0.1358 0.9693
vn 0.4782 -0.3455 0.8074
vn 0.9995 0.0314 -0.0050
vn 0.9711 0.2069 0.1187
vn 0.8198 0.5717 0.0334
vn 0.7816 0.5787 -0.2329
vn 0.2741 0.8692 -0.4116
vn 0.4005 0.8535 -0.3334
vn 0.9654 0.1968 0.1713
vn 0.9921 0.1114 0.0568
vn 0.3476 0.9065 0.2397
vn 0.9719 0.2352 0.0049
vn 0.4810 0.8510 0.2109
vn 0.2581 0.9541 0.1522
vn 0.4218 0.8415 0.3376
vn 0.2178 0.9414 0.2574
vn 0.8731 0.3530 0.3364
vn 0.9594 0.2654 -0.0951
vn 0.3357 0.9419 -0.0088
vn 0.3891 0.9180 0.0766
vn 0.2917 0.8302 -0.4751
vn 0.3709 0.8405 -0.3949
usemtl act_rat_S
s off
f 1/1/1 2/2/1 3/3/1
f 2/2/2 1/1/2 4/4/2
f 5/5/3 6/6/3 7/7/3
f 7/7/4 6/6/4 8/8/4
f 9/9/5 10/10/5 11/11/5
f 12/12/6 10/13/6 9/9/6
f 11/14/7 10/15/7 12/16/7
f 13/17/8 11/11/8 14/18/8
f 11/11/9 13/17/9 9/9/9
f 15/19/10 14/20/10 11/14/10
f 12/12/11 9/9/11 13/17/11
f 13/17/12 16/21/12 12/12/12
f 15/19/13 12/16/13 16/22/13
f 12/16/14 15/19/14 11/14/14
f 14/23/15 17/24/15 13/25/15
f 14/23/16 15/26/16 18/27/16
f 16/28/17 13/29/17 17/30/17
f 16/28/18 18/31/18 15/32/18
f 19/33/19 14/23/19 20/34/19
f 14/23/20 19/33/20 17/24/20
f 14/23/21 18/27/21 21/35/21
f 21/35/22 20/34/22 14/23/22
f 22/36/23 17/30/23 19/37/23
f 17/30/24 22/36/24 16/28/24
f 21/38/25 16/28/25 22/36/25
f 16/28/26 21/38/26 18/31/26
f 19/33/27 20/34/27 23/39/27
f 23/39/28 24/40/28 19/33/28
f 23/39/29 21/35/29 25/41/29
f 21/35/30 23/39/30 20/34/30
f 22/36/31 19/37/31 24/42/31
f 24/42/32 26/43/32 22/36/32
f 25/44/33 22/36/33 26/43/33
f 22/36/34 25/44/34 21/38/34
f 27/45/35 24/40/35 23/39/35
f 26/43/36 24/42/36 27/46/36
f 28/47/37 29/48/37 26/49/37
f 25/50/38 26/49/38 30/51/38
f 31/52/39 32/53/39 33/54/39
f 34/55/40 32/56/40 31/52/40
f 33/57/41 32/58/41 34/59/41
f 35/60/42 33/54/42 36/61/42
f 33/54/43 35/60/43 31/52/43
f 37/62/44 36/63/44 33/57/44
f 34/55/45 31/52/45 35/60/45
f 35/60/46 38/64/46 34/55/46
f 37/62/47 34/59/47 38/65/47
f 34/59/48 37/62/48 33/57/48
f 36/66/49 39/67/49 35/68/49
f 36/66/50 37/69/50 40/70/50
f 38/71/51 35/72/51 39/73/51
f 38/71/52 40/74/52 37/75/52
f 41/76/53 42/77/53 43/78/53
f 44/79/54 36/66/54 45/80/54
f 36/66/55 44/79/55 39/67/55
f 45/80/56 40/70/56 46/81/56
f 40/70/57 45/80/57 36/66/57
f 38/71/58 39/73/58 44/82/58
f 44/82/59 47/83/59 38/71/59
f 46/84/60 38/71/60 47/83/60
f 38/71/61 46/84/61 40/74/61
f 41/85/62 48/86/62 44/79/62
f 49/87/63 44/82/63 48/88/63
f 44/79/64 45/80/64 41/85/64
f 45/80/65 46/81/65 50/89/65
f 50/89/66 41/85/66 45/80/66
f 44/82/67 49/87/67 47/83/67
f 50/90/68 47/83/68 49/87/68
f 47/83/69 50/90/69 46/84/69
f 51/91/70 52/92/70 53/93/70
f 54/94/71 55/95/71 56/96/71
f 57/97/72 55/95/72 54/94/72
f 58/98/73 56/96/73 59/99/73
f 56/96/74 58/98/74 54/94/74
f 60/100/75 54/94/75 58/98/75
f 54/94/76 60/100/76 57/97/76
f 61/101/77 59/99/77 62/102/77
f 59/99/78 61/101/78 58/98/78
f 63/103/79 58/98/79 61/101/79
f 58/98/80 63/103/80 60/100/80
f 64/104/81 62/102/81 65/105/81
f 62/102/82 64/104/82 61/101/82
f 66/106/83 61/101/83 64/104/83
f 61/101/84 66/106/84 63/103/84
f 67/107/85 65/105/85 68/108/85
f 65/105/86 67/107/86 64/104/86
f 69/109/87 64/104/87 67/107/87
f 64/104/88 69/109/88 66/106/88
f 8/110/89 5/111/89 7/112/89
f 5/111/90 8/110/90 6/113/90
f 70/114/91 48/115/91 41/76/91
f 71/116/92 72/117/92 49/118/92
f 25/50/93 30/51/93 67/119/93
f 73/120/94 69/121/94 30/51/94
f 74/122/95 73/120/95 29/48/95
f 23/123/96 68/124/96 75/125/96
f 67/119/97 23/123/97 25/50/97
f 23/123/98 67/119/98 68/124/98
f 76/126/99 77/127/99 78/128/99
f 79/129/100 71/116/100 48/115/100
f 48/115/101 70/114/101 79/129/101
f 23/123/102 43/78/102 42/77/102
f 43/78/103 23/123/103 75/125/103
f 43/78/104 70/130/104 41/76/104
f 27/131/105 42/77/105 80/132/105
f 42/77/106 27/131/106 23/123/106
f 42/77/107 41/76/107 50/133/107
f 50/133/108 80/132/108 42/77/108
f 72/117/109 50/133/109 49/118/109
f 48/115/110 71/116/110 49/118/110
f 79/134/111 81/135/111 71/136/111
f 79/134/112 82/137/112 81/135/112
f 27/131/113 28/47/113 26/49/113
f 29/48/114 30/51/114 26/49/114
f 73/120/115 30/51/115 29/48/115
f 30/51/116 69/121/116 67/119/116
f 82/137/117 83/138/117 81/135/117
f 83/138/118 82/137/118 84/139/118
f 85/140/119 84/139/119 86/141/119
f 84/139/120 85/140/120 83/138/120
f 87/142/121 83/143/121 85/144/121
f 86/145/122 87/142/122 85/144/122
f 83/143/123 87/142/123 88/146/123
f 88/146/124 87/142/124 89/147/124
f 83/138/125 90/148/125 81/135/125
f 83/138/126 88/149/126 51/91/126
f 51/91/127 90/148/127 83/138/127
f 51/91/128 89/150/128 52/151/128
f 89/150/129 51/91/129 88/149/129
f 28/47/130 27/131/130 80/132/130
f 80/132/131 76/126/131 28/47/131
f 91/152/132 28/47/132 76/126/132
f 28/47/133 91/152/133 29/48/133
f 92/153/134 29/48/134 91/152/134
f 29/48/135 92/153/135 74/122/135
f 76/126/136 50/133/136 72/117/136
f 50/133/137 76/126/137 80/132/137
f 76/126/138 72/117/138 77/127/138
f 90/148/139 71/136/139 81/135/139
f 78/128/140 91/152/140 76/126/140
f 91/152/141 78/128/141 92/153/141
f 53/93/142 90/148/142 51/91/142
f 90/148/143 53/93/143 93/154/143
f 94/155/144 72/117/144 71/116/144
f 90/148/145 94/156/145 71/136/145
f 95/157/146 72/117/146 94/155/146
f 72/117/147 95/157/147 77/127/147
f 90/148/148 93/158/148 94/156/148
f 95/159/149 94/156/149 93/158/149
f 96/160/150 3/3/150 2/2/150
f 2/2/151 97/161/151 96/160/151
f 98/162/152 99/163/152 100/164/152
f 99/163/153 101/165/153 100/164/153
f 102/166/154 103/167/154 104/168/154
f 105/169/155 102/166/155 104/170/155
f 103/171/156 105/172/156 104/173/156
f 106/174/157 107/175/157 103/167/157
f 103/167/158 102/166/158 106/174/158
f 108/176/159 103/171/159 107/177/159
f 105/169/160 106/174/160 102/166/160
f 106/174/161 105/169/161 109/178/161
f 108/176/162 109/179/162 105/172/162
f 105/172/163 103/171/163 108/176/163
f 107/180/164 106/181/164 110/182/164
f 107/180/165 111/183/165 108/184/165
f 109/185/166 110/186/166 106/187/166
f 109/185/167 108/188/167 111/189/167
f 112/190/168 113/191/168 107/180/168
f 107/180/169 110/182/169 112/190/169
f 107/180/170 114/192/170 111/183/170
f 114/192/171 107/180/171 113/191/171
f 115/193/172 112/194/172 110/186/172
f 110/186/173 109/185/173 115/193/173
f 114/195/174 115/193/174 109/185/174
f 109/185/175 111/189/175 114/195/175
f 112/190/176 116/196/176 113/191/176
f 116/196/177 112/190/177 117/197/177
f 116/196/178 118/198/178 114/192/178
f 114/192/179 113/191/179 116/196/179
f 115/193/180 117/199/180 112/194/180
f 117/199/181 115/193/181 119/200/181
f 118/201/182 119/200/182 115/193/182
f 115/193/183 114/195/183 118/201/183
f 120/202/184 116/196/184 117/197/184
f 119/200/185 120/203/185 117/199/185
f 121/204/186 119/205/186 122/206/186
f 118/207/187 123/208/187 119/205/187
f 124/209/188 125/210/188 126/211/188
f 127/212/189 124/209/189 126/213/189
f 125/214/190 127/215/190 126/216/190
f 128/217/191 129/218/191 125/210/191
f 125/210/192 124/209/192 128/217/192
f 130/219/193 125/214/193 129/220/193
f 127/212/194 128/217/194 124/209/194
f 128/217/195 127/212/195 131/221/195
f 130/219/196 131/222/196 127/215/196
f 127/215/197 125/214/197 130/219/197
f 129/223/198 128/224/198 132/225/198
f 129/223/199 133/226/199 130/227/199
f 131/228/200 132/229/200 128/230/200
f 131/228/201 130/231/201 133/232/201
f 134/233/202 43/78/202 135/234/202
f 136/235/203 137/236/203 129/223/203
f 129/223/204 132/225/204 136/235/204
f 137/236/205 138/237/205 133/226/205
f 133/226/206 129/223/206 137/236/206
f 131/228/207 136/238/207 132/229/207
f 136/238/208 131/228/208 139/239/208
f 138/240/209 139/239/209 131/228/209
f 131/228/210 133/232/210 138/240/210
f 134/241/211 136/235/211 140/242/211
f 141/243/212 140/244/212 136/238/212
f 136/235/213 134/241/213 137/236/213
f 137/236/214 142/245/214 138/237/214
f 142/245/215 137/236/215 134/241/215
f 136/238/216 139/239/216 141/243/216
f 142/246/217 141/243/217 139/239/217
f 139/239/218 138/240/218 142/246/218
f 143/247/219 53/93/219 52/92/219
f 144/248/220 56/96/220 55/95/220
f 57/97/221 144/248/221 55/95/221
f 145/249/222 59/99/222 56/96/222
f 56/96/223 144/248/223 145/249/223
f 60/100/224 145/249/224 144/248/224
f 144/248/225 57/97/225 60/100/225
f 146/250/226 62/102/226 59/99/226
f 59/99/227 145/249/227 146/250/227
f 63/103/228 146/250/228 145/249/228
f 145/249/229 60/100/229 63/103/229
f 147/251/230 65/105/230 62/102/230
f 62/102/231 146/250/231 147/251/231
f 66/106/232 147/251/232 146/250/232
f 146/250/233 63/103/233 66/106/233
f 148/252/234 68/108/234 65/105/234
f 65/105/235 147/251/235 148/252/235
f 69/109/236 148/252/236 147/251/236
f 147/251/237 66/106/237 69/109/237
f 101/253/238 99/254/238 98/255/238
f 98/255/239 100/256/239 101/253/239
f 70/114/240 134/233/240 140/257/240
f 149/258/241 140/257/241 141/259/241
f 118/207/242 148/260/242 123/208/242
f 73/120/243 123/208/243 69/121/243
f 74/122/244 122/206/244 73/120/244
f 116/261/245 75/125/245 68/124/245
f 148/260/246 118/207/246 116/261/246
f 116/261/247 68/124/247 148/260/247
f 150/262/248 78/128/248 77/127/248
f 79/129/249 140/257/249 149/258/249
f 140/257/250 79/129/250 70/114/250
f 116/261/251 135/234/251 43/78/251
f 43/78/252 75/125/252 116/261/252
f 43/78/253 134/233/253 70/130/253
f 120/263/254 151/264/254 135/234/254
f 135/234/255 116/261/255 120/263/255
f 135/234/256 142/265/256 134/233/256
f 142/265/257 135/234/257 151/264/257
f 152/266/258 141/259/258 142/265/258
f 149/258/259 141/259/259 152/266/259
f 79/134/260 149/267/260 153/268/260
f 79/134/261 153/268/261 82/137/261
f 120/263/262 119/205/262 121/204/262
f 122/206/263 119/205/263 123/208/263
f 73/120/264 122/206/264 123/208/264
f 123/208/265 148/260/265 69/121/265
f 82/137/266 153/268/266 154/269/266
f 154/269/267 84/139/267 82/137/267
f 155/270/268 86/141/268 84/139/268
f 84/139/269 154/269/269 155/270/269
f 87/142/270 155/271/270 154/272/270
f 86/145/271 155/271/271 87/142/271
f 154/272/272 156/273/272 87/142/272
f 156/273/273 89/147/273 87/142/273
f 154/269/274 153/268/274 157/274/274
f 154/269/275 143/247/275 156/275/275
f 143/247/276 154/269/276 157/274/276
f 143/247/277 52/151/277 89/150/277
f 89/150/278 156/275/278 143/247/278
f 121/204/279 151/264/279 120/263/279
f 151/264/280 121/204/280 150/262/280
f 158/276/281 150/262/281 121/204/281
f 121/204/282 122/206/282 158/276/282
f 92/153/283 158/276/283 122/206/283
f 122/206/284 74/122/284 92/153/284
f 151/264/285 150/262/285 142/265/285
f 152/266/286 142/265/286 150/262/286
f 150/262/287 77/127/287 152/266/287
f 157/274/288 153/268/288 149/267/288
f 78/128/289 150/262/289 158/276/289
f 158/276/290 92/153/290 78/128/290
f 53/93/291 143/247/291 157/274/291
f 157/274/292 93/154/292 53/93/292
f 159/277/293 149/258/293 152/266/293
f 157/274/294 149/267/294 159/278/294
f 95/157/295 159/277/295 152/266/295
f 152/266/296 77/127/296 95/157/296
f 157/274/297 159/278/297 93/158/297
f 95/159/298 93/158/298 159/278/298