# Blender v2.76 (sub 0) OBJ File: ''
# www.blender.org
mtllib Small Table.mtl
o Model001_24_roundtable_0.2_9_1
v -0.217465 0.376054 0.259120
v 0.211720 0.376054 0.259120
v 0.211720 0.580151 0.259120
v -0.217465 0.580151 0.259120
v -0.217465 0.580151 -0.237721
v 0.211720 0.580151 -0.244405
v 0.211720 0.376055 -0.244405
v -0.217465 0.376055 -0.237721
v -0.217465 0.376055 -0.237721
v 0.211720 0.376055 -0.244405
v 0.211720 0.376054 0.259120
v -0.217465 0.376054 0.259120
v 0.211720 0.376054 0.259120
v 0.211720 0.376055 -0.244405
v 0.211720 0.580151 -0.244405
v 0.211720 0.580151 0.259120
v -0.217465 0.376055 -0.237721
v -0.217465 0.376054 0.259120
v -0.217465 0.580151 0.259120
v -0.217465 0.580151 -0.237721
v 0.151530 0.402056 0.268856
v 0.151530 0.556059 0.268856
v -0.157166 0.556059 0.268856
v -0.157166 0.402056 0.268856
v 0.151530 0.556059 0.268856
v 0.151530 0.556059 0.257210
v -0.157166 0.556059 0.256819
v -0.157166 0.556059 0.268856
v 0.151530 0.402056 0.257210
v 0.151530 0.402056 0.268856
v -0.157166 0.402056 0.268856
v -0.157166 0.402056 0.256819
v -0.157166 0.402056 0.268856
v -0.157166 0.556059 0.268856
v -0.157166 0.556059 0.256819
v -0.157166 0.402056 0.256819
v 0.151530 0.402056 0.257210
v 0.151530 0.556059 0.257210
v 0.151530 0.556059 0.268856
v 0.151530 0.402056 0.268856
v -0.014323 0.476960 0.288737
v -0.014323 0.476960 0.266383
v 0.007858 0.476960 0.266383
v 0.007858 0.476960 0.288737
v 0.007858 0.499126 0.288737
v 0.007858 0.499126 0.266383
v -0.014323 0.499126 0.266383
v -0.014323 0.499126 0.288737
v -0.014323 0.476960 0.288737
v -0.014323 0.476960 0.266383
v 0.361543 0.593519 0.154692
v 0.361543 0.593519 -0.147523
v 0.391724 0.593519 0.003538
v 0.275932 0.593519 -0.275744
v 0.275932 0.593519 0.282804
v 0.218028 0.593519 0.328482
v 0.218028 0.593519 -0.321407
v 0.361543 0.632122 -0.147523
v 0.361543 0.632122 0.154692
v 0.391724 0.632122 0.003538
v 0.275932 0.632122 -0.275744
v 0.275932 0.632122 0.282804
v 0.218028 0.632122 -0.321407
v 0.218028 0.632122 0.328482
v 0.275932 0.593519 -0.275744
v 0.218028 0.593519 -0.321407
v 0.218028 0.632122 -0.321407
v 0.275932 0.632122 -0.275744
v 0.361543 0.593519 -0.147523
v 0.361543 0.632122 -0.147523
v 0.391724 0.593519 0.003538
v 0.391724 0.632122 0.003538
v 0.361543 0.593519 0.154692
v 0.361543 0.632122 0.154692
v 0.275932 0.593519 0.282804
v 0.275932 0.632122 0.282804
v 0.218028 0.632122 0.328482
v 0.218028 0.593519 0.328482
v 0.218028 0.632122 -0.321407
v 0.218028 0.593519 -0.321407
v 0.218028 0.593519 0.328482
v 0.218028 0.632122 0.328482
v 0.108732 0.632122 -0.377401
v 0.201404 0.632122 -0.335166
v 0.201404 0.593519 -0.335166
v 0.108732 0.593519 -0.377401
v 0.004602 0.632122 -0.391348
v 0.004602 0.593519 -0.391348
v 0.105382 0.593519 0.339377
v 0.201404 0.593519 0.342242
v 0.109781 0.593519 0.384476
v 0.117812 0.593519 0.219171
v 0.201404 0.593519 0.206178
v 0.108732 0.593519 -0.377401
v 0.201404 0.593519 -0.335166
v 0.004602 0.593519 0.264082
v 0.093783 0.593519 0.317008
v 0.004602 0.593519 -0.391348
v 0.094252 0.593519 0.387138
v 0.004602 0.593519 0.398221
v 0.201404 0.632122 0.342242
v 0.105382 0.632122 0.339174
v 0.109781 0.632122 0.384476
v 0.201404 0.632122 0.205990
v 0.117812 0.632122 0.218607
v 0.201404 0.632122 -0.335166
v 0.108732 0.632122 -0.377401
v 0.004602 0.632122 -0.391348
v 0.004602 0.632122 0.263518
v 0.095254 0.632122 0.316632
v 0.004602 0.632122 0.398221
v 0.096553 0.632122 0.386950
v 0.201404 0.632122 0.342242
v 0.109781 0.632122 0.384476
v 0.109781 0.593519 0.384476
v 0.201404 0.593519 0.342242
v 0.004602 0.593519 0.398221
v 0.094252 0.593519 0.387138
v 0.096553 0.632122 0.386950
v 0.004602 0.632122 0.398221
v 0.105382 0.593519 0.339377
v 0.109781 0.593519 0.384476
v 0.109781 0.632122 0.384476
v 0.105382 0.632122 0.339174
v 0.117812 0.593519 0.219171
v 0.117812 0.632122 0.218607
v 0.093783 0.593519 0.317008
v 0.117812 0.593519 0.219171
v 0.117812 0.632122 0.218607
v 0.095254 0.632122 0.316632
v 0.094252 0.593519 0.387138
v 0.096553 0.632122 0.386950
v 0.004602 0.632122 -0.391348
v 0.004602 0.593519 -0.391348
v 0.004602 0.593519 0.264082
v 0.004602 0.632122 0.263518
v 0.004602 0.593519 0.398221
v 0.004602 0.632122 0.398221
v 0.201404 0.593519 0.206178
v 0.201404 0.593519 -0.335166
v 0.201404 0.632122 -0.335166
v 0.201404 0.632122 0.205990
v 0.201404 0.593519 0.342242
v 0.201404 0.632122 0.342242
v -0.307647 0.632122 -0.237721
v -0.307271 0.593519 -0.238472
v -0.368040 0.593519 -0.147523
v -0.368040 0.632122 -0.147523
v -0.398221 0.593519 0.003538
v -0.398221 0.632122 0.003538
v -0.368040 0.593519 0.154692
v -0.368040 0.632122 0.154692
v -0.282428 0.593519 0.282804
v -0.282428 0.632122 0.282804
v -0.220705 0.632122 0.329062
v -0.220705 0.593519 0.329062
v -0.368040 0.593519 0.154692
v -0.398221 0.593519 0.003538
v -0.368040 0.593519 -0.147523
v -0.289504 0.593519 -0.216306
v -0.282428 0.593519 0.282804
v -0.307271 0.593519 -0.238472
v -0.220705 0.593519 0.329062
v -0.220705 0.593519 -0.200840
v -0.286639 0.593519 -0.265992
v -0.220705 0.593519 -0.321986
v -0.368040 0.632122 -0.147523
v -0.398221 0.632122 0.003538
v -0.368040 0.632122 0.154692
v -0.289504 0.632122 -0.216118
v -0.307647 0.632122 -0.237721
v -0.282428 0.632122 0.282804
v -0.220705 0.632122 -0.201216
v -0.220705 0.632122 0.329062
v -0.220705 0.632122 -0.321986
v -0.286639 0.632122 -0.265992
v -0.286639 0.593519 -0.265992
v -0.286639 0.632122 -0.265992
v -0.220705 0.632122 -0.321986
v -0.220705 0.593519 -0.321986
v -0.220705 0.593519 -0.200840
v -0.220705 0.593519 -0.321986
v -0.220705 0.632122 -0.321986
v -0.220705 0.632122 -0.201216
v -0.220705 0.632122 0.329062
v -0.220705 0.593519 0.329062
v -0.307647 0.632122 -0.237721
v -0.289504 0.632122 -0.216118
v -0.289504 0.593519 -0.216306
v -0.307271 0.593519 -0.238472
v -0.286639 0.593519 -0.265992
v -0.289504 0.593519 -0.216306
v -0.289504 0.632122 -0.216118
v -0.286639 0.632122 -0.265992
v -0.011506 0.632122 -0.391348
v -0.011506 0.593519 -0.391348
v -0.102612 0.593519 -0.378935
v -0.102612 0.632122 -0.378935
v -0.205035 0.593519 -0.335746
v -0.205035 0.632122 -0.335746
v -0.011506 0.593519 0.398221
v -0.011506 0.632122 0.398221
v -0.102612 0.632122 0.385995
v -0.102612 0.593519 0.385995
v -0.205035 0.632122 0.342806
v -0.205035 0.593519 0.342806
v -0.102612 0.593519 -0.378935
v -0.011506 0.593519 -0.391348
v -0.011506 0.593519 0.398221
v -0.102612 0.593519 0.385995
v -0.205035 0.593519 0.342806
v -0.205035 0.593519 -0.335746
v -0.102612 0.632122 0.385995
v -0.011506 0.632122 0.398221
v -0.011506 0.632122 -0.391348
v -0.102612 0.632122 -0.378935
v -0.205035 0.632122 0.342806
v -0.205035 0.632122 -0.335746
v -0.205035 0.632122 -0.335746
v -0.205035 0.593519 -0.335746
v -0.205035 0.593519 0.342806
v -0.205035 0.632122 0.342806
v -0.011506 0.632122 -0.391348
v -0.011506 0.632122 0.398221
v -0.011506 0.593519 0.398221
v -0.011506 0.593519 -0.391348
v -0.253578 0.578992 0.284526
v 0.247082 0.578992 0.284526
v 0.247082 0.597730 0.284526
v -0.253578 0.597730 0.284526
v -0.253578 0.597730 0.284526
v 0.247082 0.597730 0.284526
v 0.247082 0.597730 -0.274601
v -0.253578 0.597730 -0.274601
v -0.253578 0.597730 -0.274601
v 0.247082 0.597730 -0.274601
v 0.247082 0.578992 -0.274601
v -0.253578 0.578992 -0.274601
v -0.253578 0.578992 -0.274601
v 0.247082 0.578992 -0.274601
v 0.247082 0.578992 0.284526
v -0.253578 0.578992 0.284526
v 0.247082 0.578992 0.284526
v 0.247082 0.578992 -0.274601
v 0.247082 0.597730 -0.274601
v 0.247082 0.597730 0.284526
v -0.253578 0.578992 -0.274601
v -0.253578 0.578992 0.284526
v -0.253578 0.597730 0.284526
v -0.253578 0.597730 -0.274601
v 0.240773 -0.000000 0.211156
v 0.177610 -0.000000 0.211156
v 0.183449 0.145895 0.211156
v 0.245923 0.145895 0.211156
v 0.240773 -0.000000 0.276308
v 0.176091 0.195674 0.211156
v 0.237329 0.145895 0.269811
v 0.232931 0.202358 0.276308
v 0.244014 0.201591 0.203126
v 0.177610 -0.000000 0.276308
v 0.177140 0.473516 0.211156
v 0.236374 0.463967 0.210201
v 0.182588 0.200449 0.276308
v 0.234465 0.443319 0.276511
v 0.177610 0.099277 0.276308
v 0.190618 0.145895 0.264082
v 0.177610 -0.000000 0.211156
v 0.183449 0.145895 0.211156
v 0.177610 0.593143 0.211156
v 0.239051 0.494539 0.205990
v 0.176091 0.195674 0.211156
v 0.179144 0.474283 0.274210
v 0.232179 0.473140 0.265804
v 0.236187 0.503321 0.276308
v 0.237329 0.593143 0.211156
v 0.237329 0.593143 0.276308
v 0.177140 0.473516 0.211156
v 0.177610 0.593143 0.276308
v 0.177610 0.593143 0.211156
v 0.177610 -0.000000 0.211156
v 0.240773 -0.000000 0.211156
v 0.240773 -0.000000 0.276308
v 0.177610 -0.000000 0.276308
v -0.186986 -0.000000 0.211156
v -0.186986 -0.000000 0.276308
v -0.246690 -0.000000 0.276308
v -0.246690 -0.000000 0.211156
v 0.238472 0.000000 -0.259683
v 0.244217 0.000000 -0.198539
v 0.180772 0.000000 -0.198539
v 0.180772 0.000000 -0.263706
v 0.179050 0.494148 -0.200073
v 0.177610 0.593143 -0.198539
v 0.177610 0.593143 -0.263706
v 0.177610 0.512119 -0.263706
v 0.232931 0.593143 -0.263706
v 0.173508 0.459756 -0.263706
v 0.182869 0.232931 -0.204080
v 0.233698 0.523969 -0.263706
v 0.230645 0.494539 -0.255676
v 0.234277 0.462809 -0.263706
v 0.177610 0.232931 -0.263706
v 0.180772 0.192418 -0.198539
v 0.233134 0.531608 -0.196629
v 0.234465 0.494148 -0.200449
v 0.234277 0.456704 -0.198539
v 0.232931 0.593143 -0.198539
v 0.179050 0.494148 -0.200073
v 0.177610 0.593143 -0.198539
v 0.237329 0.232931 -0.263706
v 0.237329 0.232931 -0.198539
v 0.177610 0.192418 -0.256255
v 0.180772 0.000000 -0.198539
v 0.182869 0.232931 -0.204080
v 0.231976 0.192418 -0.203705
v 0.233134 0.192418 -0.254345
v 0.180772 0.000000 -0.263706
v 0.235607 0.156884 -0.259683
v 0.237329 0.159373 -0.198539
v 0.180772 0.192418 -0.198539
v 0.238472 0.000000 -0.259683
v 0.244217 0.000000 -0.198539
v 0.180772 0.000000 -0.198539
v -0.243059 0.000000 -0.263706
v -0.183355 0.000000 -0.263706
v -0.183355 0.000000 -0.198539
v -0.243059 0.000000 -0.205035
v -0.183355 0.593143 -0.263706
v -0.183355 0.593143 -0.198539
v -0.185358 0.416958 -0.198539
v -0.182400 0.414657 -0.263315
v -0.243059 0.593143 -0.263706
v -0.188896 0.088382 -0.198539
v -0.243059 0.445996 -0.269623
v -0.243059 0.593143 -0.198539
v -0.238863 0.446763 -0.205990
v -0.235795 0.417334 -0.259683
v -0.183355 0.088382 -0.262548
v -0.243059 0.381220 -0.263706
v -0.243262 0.400522 -0.200449
v -0.182102 0.056417 -0.203313
v -0.243059 0.104615 -0.263706
v -0.183355 0.593143 -0.198539
v -0.185358 0.416958 -0.198539
v -0.243638 0.107683 -0.203125
v -0.243059 0.088382 -0.258728
v -0.183355 0.056417 -0.254533
v -0.183355 0.000000 -0.198539
v -0.188896 0.088382 -0.198539
v -0.234653 0.093626 -0.205427
v -0.236187 0.056417 -0.263706
v -0.183355 0.000000 -0.263706
v -0.243059 0.056417 -0.202750
v -0.243059 0.000000 -0.263706
v -0.182102 0.056417 -0.203313
v -0.243059 0.000000 -0.205035
v -0.183355 0.000000 -0.198539
v -0.188129 0.233134 0.211156
v -0.184873 0.161376 0.211156
v -0.240006 0.161376 0.203501
v -0.186986 -0.000000 0.211156
v -0.246690 -0.000000 0.211156
v -0.246690 -0.000000 0.276308
v -0.250901 0.233134 0.211156
v -0.237721 0.161376 0.268669
v -0.244405 0.133090 0.276308
v -0.247457 0.387138 0.211156
v -0.185922 0.391161 0.211156
v -0.186986 -0.000000 0.276308
v -0.247457 0.225291 0.276308
v -0.242871 0.372235 0.276308
v -0.191369 0.161376 0.261405
v -0.184497 0.135485 0.273631
v -0.190133 0.233134 0.276308
v -0.184873 0.161376 0.211156
v -0.186986 -0.000000 0.211156
v -0.183355 0.593143 0.211156
v -0.187080 0.399379 0.276308
v -0.246503 0.393634 0.266759
v -0.188129 0.233134 0.211156
v -0.185922 0.391161 0.211156
v -0.183355 0.593143 0.211156
v -0.183355 0.593143 0.276308
v -0.249555 0.417725 0.277075
v -0.243059 0.593143 0.276308
v -0.243059 0.593143 0.211156
vt 0.368000 0.017520
vt 0.368000 0.310520
vt 0.229000 0.310520
vt 0.229000 0.017520
vt 0.846000 0.015520
vt 0.851000 0.307520
vt 0.712000 0.310520
vt 0.707000 0.017520
vt 0.712000 0.449520
vt 0.368000 0.449520
vt 0.975000 0.242520
vt 0.872000 0.242520
vt 0.871000 0.034520
vt 0.974000 0.033520
vt 0.869000 0.246520
vt 0.867000 0.030520
vt 0.978000 0.245520
vt 0.977000 0.030520
vt 0.738000 0.393520
vt 0.738000 0.378520
vt 0.753000 0.378520
vt 0.753000 0.393520
vt 0.768000 0.393520
vt 0.768000 0.378520
vt 0.783000 0.378520
vt 0.783000 0.393520
vt 0.798000 0.393520
vt 0.798000 0.378520
vt 0.630000 0.597520
vt 0.832000 0.596520
vt 0.731000 0.615520
vt 0.918000 0.541520
vt 0.543000 0.542520
vt 0.512000 0.503520
vt 0.949000 0.502520
vt 0.531000 0.565520
vt 0.487000 0.541520
vt 0.500000 0.519520
vt 0.623000 0.620520
vt 0.731000 0.640520
vt 0.840000 0.619520
vt 0.931000 0.564520
vt 0.962000 0.517520
vt 0.975000 0.540520
vt 0.512000 0.477520
vt 0.949000 0.476520
vt 0.046000 0.901520
vt 0.071000 0.965520
vt 0.046000 0.973520
vt 0.025000 0.906520
vt 0.032000 0.831520
vt 0.007000 0.837520
vt 0.530000 0.899520
vt 0.533000 0.965520
vt 0.562000 0.902520
vt 0.448000 0.908520
vt 0.440000 0.964520
vt 0.479000 0.831520
vt 0.515000 0.893520
vt 0.563000 0.893520
vt 0.571000 0.829520
vt 0.585000 0.913520
vt 0.557000 0.976520
vt 0.597000 0.833520
vt 0.589000 0.894520
vt 0.680000 0.796520
vt 0.681000 0.827520
vt 0.654000 0.828520
vt 0.654000 0.797520
vt 0.680000 0.714520
vt 0.653000 0.714520
vt 0.643000 0.759520
vt 0.643000 0.827520
vt 0.617000 0.828520
vt 0.617000 0.759520
vt 0.643000 0.711520
vt 0.617000 0.711520
vt 0.032000 0.805520
vt 0.479000 0.805520
vt 0.570000 0.801520
vt 0.439000 0.989520
vt 0.070000 0.991520
vt 0.532000 0.991520
vt 0.957000 0.712520
vt 0.983000 0.721520
vt 0.958000 0.796520
vt 0.936000 0.783520
vt 0.891000 0.887520
vt 0.873000 0.868520
vt 0.794000 0.948520
vt 0.785000 0.925520
vt 0.684000 0.970520
vt 0.682000 0.944520
vt 0.631000 0.937520
vt 0.628000 0.966520
vt 0.936000 0.711520
vt 0.895000 0.685520
vt 0.959000 0.685520
vt 0.954000 0.626520
vt 0.985000 0.682520
vt 0.981000 0.624520
vt 0.876000 0.668520
vt 0.934000 0.610520
vt 0.614000 0.917520
vt 0.965000 0.956520
vt 0.946000 0.960520
vt 0.940000 0.934520
vt 0.959000 0.930520
vt 0.907000 0.941520
vt 0.913000 0.967520
vt 0.032000 0.771520
vt 0.006000 0.764520
vt 0.023000 0.704520
vt 0.044000 0.710520
vt 0.045000 0.631520
vt 0.070000 0.638520
vt 0.596000 0.764520
vt 0.570000 0.771520
vt 0.557000 0.710520
vt 0.578000 0.704520
vt 0.532000 0.638520
vt 0.557000 0.631520
vt 0.069000 0.613520
vt 0.532000 0.613520
vt 0.570000 0.797520
vt 0.032000 0.797520
vt 0.345000 0.439520
vt 0.345000 0.589520
vt 0.339000 0.589520
vt 0.339000 0.439520
vt 0.172000 0.589520
vt 0.172000 0.439520
vt 0.167000 0.589520
vt 0.167000 0.439520
vt 0.339000 0.595520
vt 0.172000 0.595520
vt 0.172000 0.434520
vt 0.339000 0.434520
vt 0.057000 0.421520
vt 0.017000 0.420520
vt 0.017000 0.320520
vt 0.063000 0.320520
vt 0.097000 0.423520
vt 0.017000 0.288520
vt 0.105000 0.321520
vt 0.108000 0.282520
vt 0.059000 0.283520
vt 0.138000 0.423520
vt 0.017000 0.097520
vt 0.058000 0.104520
vt 0.140000 0.283520
vt 0.103000 0.118520
vt 0.142000 0.355520
vt 0.141000 0.321520
vt 0.182000 0.422520
vt 0.182000 0.320520
vt 0.017000 0.016520
vt 0.057000 0.083520
vt 0.182000 0.289520
vt 0.140000 0.096520
vt 0.100000 0.097520
vt 0.103000 0.075520
vt 0.057000 0.016520
vt 0.102000 0.016520
vt 0.182000 0.097520
vt 0.142000 0.017520
vt 0.182000 0.018520
vt 0.137000 0.467520
vt 0.095000 0.465520
vt 0.182000 0.085520
vt 0.136000 0.073520
vt 0.138000 0.108520
vt 0.182000 0.264520
vt 0.099000 0.063520
vt 0.097000 0.084520
vt 0.098000 0.106520
vt 0.134000 0.263520
vt 0.055000 0.058520
vt 0.055000 0.109520
vt 0.017000 0.083520
vt 0.096000 0.262520
vt 0.054000 0.262520
vt 0.135000 0.290520
vt 0.017000 0.262520
vt 0.055000 0.290520
vt 0.094000 0.290520
vt 0.095000 0.315520
vt 0.055000 0.313520
vt 0.052000 0.421520
vt 0.182000 0.139520
vt 0.141000 0.140520
vt 0.182000 0.363520
vt 0.103000 0.117520
vt 0.060000 0.117520
vt 0.102000 0.137520
vt 0.138000 0.362520
vt 0.102000 0.163520
vt 0.060000 0.149520
vt 0.182000 0.384520
vt 0.098000 0.352520
vt 0.017000 0.138520
vt 0.060000 0.349520
vt 0.097000 0.363520
vt 0.141000 0.384520
vt 0.017000 0.362520
vt 0.058000 0.359520
vt 0.102000 0.384520
vt 0.060000 0.385520
vt 0.017000 0.383520
vt 0.060000 0.421520
vt 0.017000 0.261520
vt 0.017000 0.310520
vt 0.054000 0.310520
vt 0.058000 0.261520
vt 0.102000 0.311520
vt 0.100000 0.332520
vt 0.059000 0.157520
vt 0.017000 0.153520
vt 0.101000 0.267520
vt 0.103000 0.167520
vt 0.140000 0.312520
vt 0.138000 0.332520
vt 0.139000 0.262520
vt 0.182000 0.313520
vt 0.141000 0.149520
vt 0.098000 0.152520
vt 0.182000 0.265520
vt 0.182000 0.156520
vt 0.101000 0.135520
vn 0.000000 -0.000000 1.000000
vn -0.015600 0.000000 -0.999900
vn -0.000000 -1.000000 -0.000000
vn 1.000000 0.000000 0.000000
vn -1.000000 0.000000 0.000000
vn 0.000000 1.000000 0.000000
vn 0.707100 -0.707100 -0.000000
vn 0.707100 0.707100 0.000000
vn -0.707100 0.707100 0.000000
vn 0.697700 0.000000 -0.716400
vn 0.619200 0.000000 -0.785200
vn 0.769300 0.000000 -0.638900
vn 0.896500 0.000000 -0.443000
vn 0.947000 0.000000 -0.321200
vn 0.997800 -0.000000 -0.066500
vn 0.997800 0.000000 0.066300
vn 0.947000 -0.000000 0.321200
vn 0.896400 0.000000 0.443200
vn 0.734400 -0.000000 0.678700
vn 0.619300 0.000000 0.785100
vn 0.323800 0.000000 -0.946100
vn 0.414700 0.000000 -0.910000
vn 0.228900 0.000000 -0.973400
vn 0.132800 0.000000 -0.991100
vn 0.418600 0.000000 0.908200
vn 0.122100 -0.001100 0.992500
vn 0.122700 -0.002500 0.992400
vn 0.122300 -0.001500 0.992500
vn 0.121700 0.000000 0.992600
vn -0.999500 -0.000000 0.030400
vn -0.995300 0.000000 0.097100
vn -0.995300 0.000200 0.096900
vn -0.999300 -0.000500 -0.036400
vn -0.994700 -0.001300 -0.102600
vn -0.994700 -0.001500 -0.102500
vn 0.988000 -0.023300 0.153000
vn 0.971100 0.003500 0.238500
vn 0.972700 -0.015700 0.231400
vn 0.996800 -0.044500 0.066700
vn 0.998700 -0.048900 -0.012600
vn 0.998100 -0.059600 -0.018400
vn -0.831200 0.001500 -0.555900
vn -0.831500 0.002700 -0.555600
vn -0.896300 0.000900 -0.443500
vn -0.946900 0.000000 -0.321600
vn -0.997800 -0.000000 -0.066500
vn -0.997800 0.000000 0.066300
vn -0.947000 -0.000000 0.321200
vn -0.896400 -0.000000 0.443200
vn -0.726000 0.000000 0.687700
vn -0.725900 0.000000 0.687700
vn -0.599700 0.000000 0.800200
vn -0.647300 0.000000 -0.762200
vn 0.773000 0.011400 -0.634300
vn 0.765800 0.003100 -0.643100
vn 0.773000 0.011500 -0.634300
vn 0.780100 0.019800 -0.625300
vn -0.998300 0.000100 -0.057400
vn -0.998300 0.000300 -0.057600
vn -0.998300 0.000200 -0.057500
vn -0.998400 0.000000 -0.057300
vn -0.135000 0.000000 -0.990800
vn -0.221200 -0.000000 -0.975200
vn -0.306400 -0.000000 -0.951900
vn -0.388500 0.000000 -0.921400
vn -0.133000 0.000000 0.991100
vn -0.219900 0.000000 0.975500
vn -0.305800 -0.000000 0.952100
vn -0.388500 0.000000 0.921400
vn 0.000000 0.000000 -1.000000
vn 0.446900 -0.015700 -0.894400
vn 0.834800 -0.007600 -0.550500
vn 0.866700 0.017000 0.498600
vn -0.074000 -0.048500 -0.996100
vn 0.336200 0.012500 0.941700
vn 0.849600 0.004100 0.527500
vn 0.545400 -0.011900 -0.838100
vn -0.408300 0.020400 0.912600
vn -0.048500 0.009000 -0.998800
vn 0.695900 -0.039100 -0.717100
vn -0.581000 -0.125600 0.804100
vn 0.701800 0.088400 0.706900
vn -0.813900 0.170900 0.555200
vn -0.702600 0.056300 0.709300
vn -0.999300 0.020000 -0.030400
vn -0.996900 0.004800 0.078700
vn -0.091800 -0.019300 -0.995600
vn 0.908300 -0.036400 -0.416800
vn -0.995400 -0.051200 0.080400
vn -0.601200 -0.003900 0.799100
vn 0.736600 -0.005500 0.676300
vn 0.828800 -0.131600 0.543800
vn 0.901200 0.024800 -0.432700
vn 0.433900 -0.013500 0.900800
vn -0.999500 0.003800 0.031700
vn -0.707000 -0.021600 0.706900
vn -0.999900 -0.004500 0.015800
vn -0.999100 0.011900 0.040700
vn -0.999900 -0.014500 0.000000
vn -0.898400 -0.006500 -0.439100
vn -0.418700 -0.047100 -0.906900
vn 0.708300 0.005100 -0.705900
vn -0.720700 0.069800 -0.689800
vn -0.995900 0.009800 0.090300
vn 0.829800 -0.093600 -0.550200
vn 0.720900 -0.012400 -0.692900
vn 0.707000 0.090600 -0.701400
vn -0.735100 -0.030800 -0.677200
vn -0.997500 0.024500 0.065700
vn 0.701000 -0.008800 0.713100
vn 0.849300 -0.041100 0.526300
vn 0.836200 0.047000 0.546400
vn 0.707000 0.024300 0.706800
vn -0.033600 -0.016800 0.999300
vn -0.026100 0.007400 0.999600
vn 0.709500 -0.146800 -0.689300
vn 0.678000 -0.057400 0.732800
vn -0.611100 -0.046700 -0.790200
vn -0.999600 -0.008200 0.027400
vn -0.034400 0.000100 0.999400
vn 0.714900 0.028100 0.698700
vn 0.842400 0.017100 -0.538500
vn -0.435600 0.010300 -0.900100
vn 0.559500 0.076500 -0.825300
vn 0.905700 0.103900 0.411000
vn 0.049800 0.075100 0.995900
vn 0.878600 0.026600 -0.476800
vn 0.462500 0.020000 0.886400
vn 0.902400 -0.003600 -0.430900
vn 0.999900 -0.011400 0.000000
vn 0.999500 -0.005600 0.030500
vn 0.532400 -0.034700 -0.845800
vn -0.402600 0.017300 -0.915200
vn 0.995500 0.060800 0.072600
vn -0.841500 -0.161000 -0.515700
vn -0.881800 -0.036500 0.470100
vn -0.724600 -0.022300 0.688900
vn -0.834900 -0.043200 -0.548700
vn 0.604500 -0.073800 -0.793200
vn -0.547200 0.088200 -0.832400
vn -0.909900 0.090200 0.404800
vn 0.998400 0.055200 0.012000
vn -0.835800 -0.080800 -0.543100
vn -0.068700 -0.024700 0.997300
vn -0.079900 0.029700 0.996400
vn -0.694200 -0.184900 0.695700
vn -0.699600 -0.291100 -0.652600
vn 0.741900 0.016300 -0.670300
vn 0.999900 -0.012200 -0.012200
vn -0.097200 -0.078300 0.992200
vn -0.798500 -0.192500 0.570400
vn -0.649200 0.111800 -0.752400
vn 0.508600 0.068800 -0.858300
vn -0.743800 0.059800 0.665700
vn -0.871500 0.052700 -0.487500
vn -0.030000 -0.033500 0.999000
vn -0.483200 0.020100 0.875300
vn -0.107800 0.086200 0.990400
vn 0.034500 0.028100 -0.999000
vn 0.137500 0.002200 -0.990500
vn -0.680400 0.038200 -0.731900
vn 0.068900 -0.024600 -0.997300
vn -0.707200 -0.004200 -0.707000
vn -0.903400 0.026500 0.428000
vn -0.910700 -0.034100 -0.411600
vn -0.790000 0.018200 0.612900
vn -0.404900 0.215200 0.888700
vn -0.786000 -0.033400 -0.617300
vn 0.462900 0.000200 0.886400
vn -0.505100 -0.117900 0.855000
vn -0.715800 0.062400 0.695600
vn 0.485500 0.132000 0.864200
vn 0.815200 0.197000 0.544600
vn 0.782400 -0.045700 0.621100
vn 0.994900 0.075000 0.068100
vn 0.999900 -0.015700 -0.005700
vn 0.489000 -0.013400 0.872200
vn -0.764200 -0.107800 0.635800
vn 0.999400 0.015700 0.030700
vn 0.999600 -0.015000 0.023400
vn 0.999800 -0.016000 0.009700
vn 0.707000 -0.013600 0.707100
vn -0.728300 -0.175600 0.662400
vn -0.712900 0.022300 0.700900
vn -0.707000 0.015100 -0.707100
usemtl Model001_Material001.036
s 1
f 1/1/1 2/2/1 3/3/1
f 4/4/1 1/1/1 3/3/1
f 5/5/2 6/6/2 7/7/2
f 7/7/2 8/8/2 5/5/2
f 9/8/3 10/7/3 11/2/3
f 11/2/3 12/1/3 9/8/3
f 13/2/4 14/7/4 15/9/4
f 15/9/4 16/10/4 13/2/4
f 17/9/5 18/10/5 19/2/5
f 19/2/5 20/7/5 17/9/5
f 21/11/1 22/12/1 23/13/1
f 23/13/1 24/14/1 21/11/1
f 25/12/6 26/15/6 27/16/6
f 27/16/6 28/13/6 25/12/6
f 29/17/3 30/11/3 31/14/3
f 31/14/3 32/18/3 29/17/3
f 33/14/5 34/13/5 35/16/5
f 35/16/5 36/18/5 33/14/5
f 37/17/4 38/15/4 39/12/4
f 39/12/4 40/11/4 37/17/4
f 41/19/3 42/20/3 43/21/7
f 43/21/7 44/22/7 41/19/3
f 45/23/8 44/22/7 43/21/7
f 43/21/7 46/24/8 45/23/8
f 45/23/8 46/24/8 47/25/9
f 47/25/9 48/26/9 45/23/8
f 49/27/5 48/26/9 47/25/9
f 47/25/9 50/28/5 49/27/5
f 51/29/3 52/30/3 53/31/3
f 54/32/3 52/30/3 51/29/3
f 51/29/3 55/33/3 54/32/3
f 54/32/3 55/33/3 56/34/3
f 56/34/3 57/35/3 54/32/3
f 58/29/6 59/30/6 60/31/6
f 59/30/6 58/29/6 61/33/6
f 61/33/6 62/32/6 59/30/6
f 62/32/6 61/33/6 63/34/6
f 63/34/6 64/35/6 62/32/6
f 65/36/10 66/37/11 67/38/11
f 67/38/11 68/33/12 65/36/10
f 69/39/13 65/36/10 68/33/12
f 68/33/12 70/29/14 69/39/13
f 71/40/15 69/39/13 70/29/14
f 70/29/14 72/31/16 71/40/15
f 73/41/17 71/40/15 72/31/16
f 72/31/16 74/30/18 73/41/17
f 75/42/19 73/41/17 74/30/18
f 74/30/18 76/32/19 75/42/19
f 75/42/19 76/32/19 77/43/20
f 77/43/20 78/44/20 75/42/19
f 79/34/5 80/45/5 81/46/5
f 81/46/5 82/35/5 79/34/5
f 83/47/21 84/48/22 85/49/22
f 85/49/22 86/50/23 83/47/21
f 87/51/24 83/47/21 86/50/23
f 86/50/23 88/52/24 87/51/24
f 89/53/3 90/54/3 91/55/3
f 90/54/3 89/53/3 92/56/3
f 92/56/3 93/57/3 90/54/3
f 93/57/3 92/56/3 94/47/3
f 94/47/3 95/48/3 93/57/3
f 94/47/3 92/56/3 96/58/3
f 96/58/3 92/56/3 97/59/3
f 96/58/3 98/51/3 94/47/3
f 96/58/3 97/59/3 99/60/3
f 99/60/3 100/61/3 96/58/3
f 101/54/6 102/53/6 103/55/6
f 102/53/6 101/54/6 104/57/6
f 104/57/6 105/56/6 102/53/6
f 105/56/6 104/57/6 106/48/6
f 106/48/6 107/47/6 105/56/6
f 105/56/6 107/47/6 108/51/6
f 108/51/6 109/58/6 105/56/6
f 109/58/6 110/59/6 105/56/6
f 110/59/6 109/58/6 111/61/6
f 111/61/6 112/60/6 110/59/6
f 113/54/25 114/55/25 115/62/25
f 115/62/25 116/63/25 113/54/25
f 117/64/26 118/65/27 119/60/28
f 119/60/28 120/61/29 117/64/26
f 121/66/30 122/67/31 123/68/32
f 123/68/32 124/69/33 121/66/30
f 125/70/34 121/66/30 124/69/33
f 124/69/33 126/71/35 125/70/34
f 127/72/36 128/73/37 129/74/38
f 129/74/38 130/75/39 127/72/36
f 131/76/40 127/72/36 130/75/39
f 130/75/39 132/77/41 131/76/40
f 133/51/5 134/78/5 135/79/5
f 135/79/5 136/58/5 133/51/5
f 136/58/5 135/79/5 137/80/5
f 137/80/5 138/61/5 136/58/5
f 139/81/4 140/82/4 141/48/4
f 141/48/4 142/57/4 139/81/4
f 143/83/4 139/81/4 142/57/4
f 142/57/4 144/54/4 143/83/4
f 145/84/42 146/85/43 147/86/44
f 147/86/44 148/87/45 145/84/42
f 148/87/45 147/86/44 149/88/46
f 149/88/46 150/89/47 148/87/45
f 150/89/47 149/88/46 151/90/48
f 151/90/48 152/91/49 150/89/47
f 152/91/49 151/90/48 153/92/50
f 153/92/50 154/93/51 152/91/49
f 155/94/52 154/93/51 153/92/50
f 153/92/50 156/95/52 155/94/52
f 157/91/3 158/89/3 159/87/3
f 157/91/3 159/87/3 160/96/3
f 160/96/3 161/93/3 157/91/3
f 160/96/3 159/87/3 162/84/3
f 163/94/3 161/93/3 160/96/3
f 160/96/3 164/97/3 163/94/3
f 164/97/3 160/96/3 165/98/3
f 165/98/3 166/99/3 164/97/3
f 167/87/6 168/89/6 169/91/6
f 170/96/6 167/87/6 169/91/6
f 171/84/6 167/87/6 170/96/6
f 169/91/6 172/93/6 170/96/6
f 173/97/6 170/96/6 172/93/6
f 172/93/6 174/94/6 173/97/6
f 170/96/6 173/97/6 175/99/6
f 175/99/6 176/98/6 170/96/6
f 177/100/53 178/98/53 179/99/53
f 179/99/53 180/101/53 177/100/53
f 181/102/4 182/103/4 183/99/4
f 183/99/4 184/97/4 181/102/4
f 181/102/4 184/97/4 185/94/4
f 185/94/4 186/104/4 181/102/4
f 187/105/54 188/106/55 189/107/56
f 189/107/56 190/108/57 187/105/54
f 191/109/58 192/107/59 193/106/60
f 193/106/60 194/110/61 191/109/58
f 195/111/62 196/112/62 197/113/63
f 197/113/63 198/114/64 195/111/62
f 198/114/64 197/113/63 199/115/65
f 199/115/65 200/116/65 198/114/64
f 201/117/66 202/118/66 203/119/67
f 203/119/67 204/120/68 201/117/66
f 204/120/68 203/119/67 205/121/69
f 205/121/69 206/122/69 204/120/68
f 207/114/3 208/111/3 209/118/3
f 209/118/3 210/119/3 207/114/3
f 207/114/3 210/119/3 211/121/3
f 211/121/3 212/116/3 207/114/3
f 213/119/6 214/118/6 215/111/6
f 215/111/6 216/114/6 213/119/6
f 217/121/6 213/119/6 216/114/6
f 216/114/6 218/116/6 217/121/6
f 219/116/5 220/123/5 221/124/5
f 221/124/5 222/121/5 219/116/5
f 223/111/4 224/118/4 225/125/4
f 225/125/4 226/126/4 223/111/4
f 227/127/1 228/128/1 229/129/1
f 229/129/1 230/130/1 227/127/1
f 231/130/6 232/129/6 233/131/6
f 233/131/6 234/132/6 231/130/6
f 235/132/70 236/131/70 237/133/70
f 237/133/70 238/134/70 235/132/70
f 239/130/3 240/129/3 241/131/3
f 241/131/3 242/132/3 239/130/3
f 243/135/4 244/136/4 245/131/4
f 245/131/4 246/129/4 243/135/4
f 247/137/5 248/138/5 249/130/5
f 249/130/5 250/132/5 247/137/5
f 251/139/71 252/140/70 253/141/70
f 253/141/70 254/142/72 251/139/71
f 255/143/73 251/139/71 254/142/72
f 254/142/72 253/141/70 256/144/74
f 254/142/72 257/145/75 255/143/73
f 258/146/76 257/145/75 254/142/72
f 254/142/72 259/147/77 258/146/76
f 256/144/74 259/147/77 254/142/72
f 260/148/78 255/143/73 257/145/75
f 259/147/77 256/144/74 261/149/79
f 258/146/76 259/147/77 262/150/80
f 261/149/79 262/150/80 259/147/77
f 257/145/75 258/146/76 263/151/81
f 262/150/80 264/152/82 258/146/76
f 263/151/81 258/146/76 264/152/82
f 257/145/75 265/153/83 260/148/78
f 263/151/81 266/154/84 257/145/75
f 265/153/83 257/145/75 266/154/84
f 267/155/85 260/148/78 265/153/83
f 265/153/83 268/156/86 267/155/85
f 268/156/86 265/153/83 266/154/84
f 268/156/86 266/154/84 263/151/81
f 262/150/80 261/149/79 269/157/87
f 264/152/82 262/150/80 270/158/88
f 269/157/87 270/158/88 262/150/80
f 263/151/81 271/159/89 268/156/86
f 271/159/89 263/151/81 272/160/90
f 264/152/82 272/160/90 263/151/81
f 272/160/90 264/152/82 273/161/91
f 270/158/88 273/161/91 264/152/82
f 272/160/90 273/161/91 274/162/92
f 273/161/91 270/158/88 274/162/92
f 274/162/92 270/158/88 275/163/93
f 269/157/87 275/163/93 270/158/88
f 275/163/93 276/164/94 274/162/92
f 272/160/90 274/162/92 276/164/94
f 272/160/90 277/165/95 271/159/89
f 276/164/94 278/166/96 272/160/90
f 279/167/97 272/160/90 278/166/96
f 277/165/95 272/160/90 279/167/97
f 280/168/3 281/169/3 282/143/3
f 282/143/3 283/148/3 280/168/3
f 284/168/3 285/148/3 286/143/3
f 286/143/3 287/169/3 284/168/3
f 288/143/3 289/169/3 290/168/3
f 290/168/3 291/148/3 288/143/3
f 292/170/98 293/167/99 294/166/100
f 294/166/100 295/171/101 292/170/98
f 295/171/101 294/166/100 296/164/102
f 292/170/98 295/171/101 297/172/103
f 298/173/104 292/170/98 297/172/103
f 296/164/102 299/174/105 295/171/101
f 299/174/105 300/175/106 295/171/101
f 297/172/103 295/171/101 300/175/106
f 300/175/106 301/176/107 297/172/103
f 297/172/103 302/177/108 298/173/104
f 302/177/108 297/172/103 301/176/107
f 303/159/109 298/173/104 302/177/108
f 304/178/110 299/174/105 296/164/102
f 299/174/105 304/178/110 305/158/111
f 305/158/111 300/175/106 299/174/105
f 306/179/112 301/176/107 300/175/106
f 300/175/106 305/158/111 306/179/112
f 296/164/102 307/163/113 304/178/110
f 306/179/112 305/158/111 308/180/114
f 305/158/111 304/178/110 308/180/114
f 304/178/110 307/163/113 309/157/115
f 309/157/115 308/180/114 304/178/110
f 301/176/107 310/181/116 302/177/108
f 301/176/107 306/179/112 311/182/117
f 311/182/117 310/181/116 301/176/107
f 311/182/117 306/179/112 308/180/114
f 312/183/118 302/177/108 310/181/116
f 302/177/108 312/183/118 303/159/109
f 313/155/119 303/159/109 312/183/118
f 308/180/114 314/184/120 311/182/117
f 315/185/121 311/182/117 314/184/120
f 310/181/116 311/182/117 315/185/121
f 310/181/116 316/186/122 312/183/118
f 315/185/121 316/186/122 310/181/116
f 312/183/118 317/148/123 313/155/119
f 317/148/123 312/183/118 318/187/124
f 316/186/122 318/187/124 312/183/118
f 319/188/125 318/187/124 316/186/122
f 316/186/122 315/185/121 319/188/125
f 314/184/120 320/144/126 315/185/121
f 320/144/126 319/188/125 315/185/121
f 318/187/124 321/143/127 317/148/123
f 321/143/127 318/187/124 319/188/125
f 322/189/128 319/188/125 320/144/126
f 319/188/125 322/189/128 321/143/127
f 320/144/126 323/140/1 322/189/128
f 324/143/3 325/148/3 326/168/3
f 326/168/3 327/169/3 324/143/3
f 328/166/129 329/167/130 330/190/131
f 330/190/131 331/191/132 328/166/129
f 332/164/133 328/166/129 331/191/132
f 331/191/132 330/190/131 333/192/134
f 331/191/132 334/193/135 332/164/133
f 335/163/136 332/164/133 334/193/135
f 334/193/135 336/194/137 335/163/136
f 336/194/137 334/193/135 337/195/138
f 334/193/135 331/191/132 337/195/138
f 333/192/134 338/196/139 331/191/132
f 339/197/140 331/191/132 338/196/139
f 337/195/138 331/191/132 339/197/140
f 337/195/138 340/198/141 336/194/137
f 339/197/140 340/198/141 337/195/138
f 338/196/139 333/192/134 341/199/142
f 338/196/139 342/200/143 339/197/140
f 340/198/141 339/197/140 342/200/143
f 343/157/144 335/163/136 336/194/137
f 336/194/137 344/201/145 343/157/144
f 340/198/141 344/201/145 336/194/137
f 342/200/143 345/202/146 340/198/141
f 344/201/145 340/198/141 345/202/146
f 342/200/143 338/196/139 346/203/147
f 345/202/146 342/200/143 346/203/147
f 341/199/142 347/204/148 338/196/139
f 346/203/147 338/196/139 347/204/148
f 347/204/148 341/199/142 348/155/149
f 345/202/146 349/205/150 344/201/145
f 350/206/151 349/205/150 345/202/146
f 346/203/147 350/206/151 345/202/146
f 350/206/151 346/203/147 351/207/152
f 347/204/148 351/207/152 346/203/147
f 348/155/149 352/148/153 347/204/148
f 351/207/152 347/204/148 352/148/153
f 351/207/152 353/208/154 350/206/151
f 349/205/150 350/206/151 353/208/154
f 353/208/154 351/207/152 354/143/155
f 352/148/153 354/143/155 351/207/152
f 353/208/154 355/209/156 349/205/150
f 354/143/155 356/210/157 353/208/154
f 355/209/156 353/208/154 356/210/157
f 356/210/157 357/140/158 355/209/156
f 358/211/159 359/212/160 360/213/161
f 360/213/161 359/212/160 361/140/162
f 361/140/162 362/189/163 360/213/161
f 360/213/161 362/189/163 363/143/164
f 360/213/161 364/214/165 358/211/159
f 364/214/165 360/213/161 365/215/166
f 360/213/161 366/216/167 365/215/166
f 363/143/164 366/216/167 360/213/161
f 358/211/159 364/214/165 367/217/168
f 367/217/168 368/218/70 358/211/159
f 366/216/167 363/143/164 369/148/169
f 365/215/166 370/219/170 364/214/165
f 371/220/171 367/217/168 364/214/165
f 364/214/165 370/219/170 371/220/171
f 370/219/170 365/215/166 372/221/172
f 372/221/172 365/215/166 366/216/167
f 369/148/169 373/222/173 366/216/167
f 366/216/167 373/222/173 372/221/172
f 372/221/172 374/223/174 370/219/170
f 371/220/171 370/219/170 374/223/174
f 374/223/174 372/221/172 375/224/175
f 373/222/173 375/224/175 372/221/172
f 376/155/176 375/224/175 373/222/173
f 373/222/173 369/148/169 376/155/176
f 377/157/70 368/218/70 367/217/168
f 374/223/174 378/225/177 371/220/171
f 371/220/171 378/225/177 379/226/178
f 367/217/168 371/220/171 379/226/178
f 375/224/175 380/227/179 374/223/174
f 381/228/180 378/225/177 374/223/174
f 374/223/174 380/227/179 381/228/180
f 378/225/177 381/228/180 382/167/181
f 382/167/181 383/166/182 378/225/177
f 379/226/178 378/225/177 384/229/183
f 385/164/184 384/229/183 378/225/177
f 378/225/177 383/166/182 385/164/184
f 367/217/168 384/229/183 385/164/184
f 367/217/168 379/226/178 384/229/183
f 367/217/168 386/163/185 377/157/70
f 385/164/184 386/163/185 367/217/168
