# 3ds Max Wavefront OBJ Exporter v0.97b - (c)2007 guruware
# File Created: 31.07.2014 19:42:47

mtllib Vanity395.mtl

#
# object Mesh_0395
#

v  -0.761118 1.112345 -1.234323
v  -1.579965 1.112345 -1.234323
v  -1.579965 1.112345 -1.095163
v  -0.692270 1.112345 -1.106882
v  -1.579965 1.049506 -1.234323
v  -0.761118 1.049506 -1.234323
v  -0.691537 1.053820 -1.105051
v  -1.578500 1.053585 -1.099191
v  -0.740976 1.080920 -1.265085
v  -0.667001 1.080920 -1.112741
v  -1.579965 1.112345 -0.164987
v  -1.609262 1.080920 -1.095529
v  -1.613657 1.080920 -0.145944
v  -0.701059 1.080920 0.385794
v  -0.692270 1.112345 0.350638
v  -1.607797 1.080920 -1.259958
v  -1.578500 1.053585 -0.166086
v  -0.691537 1.053820 0.346243
v  -1.577036 -0.011419 -1.103586
v  -0.691904 -0.011419 -1.103586
v  -0.691904 -0.011419 0.344046
v  -1.577036 -0.011419 -0.167184
v  -0.691171 0.767512 0.341849
v  -0.009653 0.767512 0.341849
v  -0.009653 1.053820 0.346243
v  -0.691171 0.767512 -1.103220
v  -0.677988 2.670710 -1.217844
v  -0.524912 2.670710 -1.218210
v  -0.677988 0.764948 -1.217844
v  -0.677621 0.764948 -1.112009
v  -0.677621 2.670710 -1.112009
v  -0.524545 2.670710 -1.112009
v  -0.524545 2.448054 -1.112375
v  -0.327341 2.927058 -1.112009
v  -0.327524 2.927058 -1.218576
v  -0.260141 2.780573 -1.112741
v  -1.493539 0.877192 -0.045969
v  -1.493539 0.174616 -0.045969
v  -0.844614 0.174616 0.333792
v  -0.844614 0.877192 0.333792
v  -1.434213 0.944117 -0.011179
v  -0.903940 0.944117 0.299368
v  -1.434213 0.102839 -0.011179
v  -0.903940 0.102839 0.299368
v  -0.770639 0.159968 0.302298
v  -0.770639 0.887446 0.302298
v  -0.859262 0.988291 0.250296
v  -1.421762 0.988291 -0.078928
v  -1.509653 0.887446 -0.130930
v  -1.509653 0.159968 -0.130930
v  -1.421762 0.058894 -0.078928
v  -0.859262 0.058894 0.250296
v  -1.265756 0.559138 0.136404
v  -1.265756 0.617365 0.136404
v  -1.130991 0.617365 0.215140
v  -1.130991 0.559138 0.215140
v  -1.297983 0.617365 0.158011
v  -1.297983 0.559138 0.158011
v  -1.133188 0.559138 0.253958
v  -1.133188 0.617365 0.253958
v  -1.025522 0.559138 0.253958
v  -1.013803 0.559138 0.234183
v  -1.013803 0.617365 0.234183
v  -1.025522 0.617365 0.253958
v  -1.350717 0.617365 0.063528
v  -1.338998 0.617365 0.044119
v  -1.338998 0.559138 0.044119
v  -1.350717 0.559138 0.063528
v  -1.070932 0.617365 0.226859
v  -1.070932 0.559138 0.226859
v  -1.303842 0.559138 0.090994
v  -1.303842 0.617365 0.090994
v  -1.084116 0.559138 0.193533
v  -1.268686 0.559138 0.085135
v  -1.268686 0.617365 0.085135
v  -1.084116 0.617365 0.193533
v  0.658682 0.764948 -1.217844
v  0.658316 0.764948 -1.112009
v  0.505240 0.854121 -1.112741
v  -0.524545 0.854121 -1.112741
v  -0.524545 2.448054 -1.163644
v  -0.260141 2.780573 -1.164011
v  -0.524912 0.854121 -1.164011
v  0.505606 0.854121 -1.164011
v  -0.009653 1.080920 0.385794
v  -0.009653 1.112345 0.350638
v  -0.009653 1.080920 -1.112741
v  -0.009653 1.053820 -1.105051
v  -0.009653 0.767512 -1.103220
v  0.308035 2.927058 -1.112009
v  0.308218 2.927058 -1.218576
v  0.240836 2.780573 -1.112741
v  0.741812 1.112345 -1.234323
v  0.672965 1.112345 -1.106882
v  1.560660 1.112345 -1.095163
v  1.560660 1.112345 -1.234323
v  1.560660 1.049506 -1.234323
v  1.559195 1.053929 -1.099191
v  0.672232 1.053820 -1.105051
v  0.741812 1.049506 -1.234323
v  0.721671 1.080920 -1.265085
v  0.647696 1.080920 -1.112741
v  1.560660 1.112345 -0.164987
v  1.594351 1.080920 -0.145944
v  1.589957 1.080920 -1.095529
v  0.681754 1.080920 0.385794
v  0.672965 1.112345 0.350638
v  1.588492 1.080920 -1.259958
v  1.559195 1.053929 -0.166086
v  0.672232 1.053820 0.346243
v  1.557730 -0.011419 -1.103586
v  1.557730 -0.011419 -0.167184
v  0.672598 -0.011419 0.344046
v  0.672598 -0.011419 -1.103586
v  0.671866 0.767512 0.341849
v  0.671866 0.767512 -1.103220
v  0.658682 2.670710 -1.217844
v  0.505606 2.670710 -1.218210
v  0.658316 2.670710 -1.112009
v  0.505240 2.670710 -1.112009
v  0.505240 2.448054 -1.112375
v  1.474234 0.877192 -0.045969
v  0.825308 0.877192 0.333792
v  0.825308 0.174616 0.333792
v  1.474234 0.174616 -0.045969
v  1.414908 0.944117 -0.011179
v  0.884634 0.944117 0.299368
v  1.414908 0.102839 -0.011179
v  0.884634 0.102839 0.299368
v  0.751334 0.887446 0.302298
v  0.751334 0.159968 0.302298
v  0.839957 0.988291 0.250296
v  1.402457 0.988291 -0.078928
v  1.490347 0.887446 -0.130930
v  1.490347 0.159968 -0.130930
v  1.402457 0.058894 -0.078928
v  0.839957 0.058894 0.250296
v  1.246451 0.559138 0.136404
v  1.111685 0.559138 0.215140
v  1.111685 0.617365 0.215140
v  1.246451 0.617365 0.136404
v  1.278677 0.617365 0.158011
v  1.113882 0.617365 0.253958
v  1.113882 0.559138 0.253958
v  1.278677 0.559138 0.158011
v  1.006216 0.559138 0.253958
v  1.006216 0.617365 0.253958
v  0.994498 0.617365 0.234183
v  0.994498 0.559138 0.234183
v  1.331412 0.617365 0.063528
v  1.331412 0.559138 0.063528
v  1.319693 0.559138 0.044119
v  1.319693 0.617365 0.044119
v  1.051627 0.559138 0.226859
v  1.051627 0.617365 0.226859
v  1.284537 0.617365 0.090994
v  1.284537 0.559138 0.090994
v  1.064810 0.559138 0.193533
v  1.249380 0.559138 0.085135
v  1.249380 0.617365 0.085135
v  1.064810 0.617365 0.193533
v  0.240836 2.780573 -1.164011
v  0.505240 2.448054 -1.163644
v  -0.009653 1.112345 -1.106882
v  -0.441415 1.512385 -1.023386
v  -0.506601 1.356013 -1.023386
v  -0.213449 1.112757 -1.023386
v  -0.052019 1.181513 -1.023386
v  -0.052019 2.779109 -1.023386
v  -0.213449 3.042780 -1.023386
v  -0.213449 2.745417 -1.023386
v  -0.052019 2.676569 -1.023386
v  -0.441415 2.232722 -1.023386
v  -0.506601 2.389460 -1.023386
v  -0.870981 2.389460 -1.023386
v  -0.870981 2.232722 -1.023386
v  0.040793 2.779109 -1.023386
v  0.202200 3.042780 -1.023386
v  -0.870981 1.512385 -1.023386
v  -0.870981 1.356013 -1.023386
v  -0.052019 1.113627 -1.023386
v  -0.506601 1.356013 -1.112741
v  -0.441415 1.512385 -1.112741
v  -0.052019 1.181513 -1.112741
v  -0.213449 1.112757 -1.112741
v  -0.213449 2.745417 -1.112741
v  -0.213449 3.042780 -1.112741
v  -0.052019 2.779109 -1.112741
v  -0.052019 2.676569 -1.112741
v  -0.506601 2.389460 -1.112741
v  -0.441415 2.232722 -1.112741
v  -0.870981 2.232722 -1.112741
v  -0.870981 2.389460 -1.112741
v  0.202200 3.042780 -1.112741
v  0.040793 2.779109 -1.112741
v  -0.870981 1.356013 -1.112741
v  -0.870981 1.512385 -1.112741
v  -0.052019 1.113627 -1.112741
v  0.057867 3.250788 -1.133981
v  -0.069070 3.250788 -1.133981
v  -0.069070 3.250788 -1.008371
v  0.057867 3.250788 -1.008371
v  -0.235788 3.132136 -1.133981
v  -0.235788 3.132136 -1.008371
v  -0.235788 3.055964 -1.133981
v  -0.235788 3.055964 -1.008371
v  0.224539 3.055964 -1.133981
v  0.224539 3.055964 -1.008371
v  0.224539 3.132136 -1.133981
v  0.430167 1.512385 -1.023386
v  0.040793 1.181513 -1.023386
v  0.202200 1.112757 -1.023386
v  0.495352 1.356013 -1.023386
v  0.202200 2.745417 -1.023386
v  0.040793 2.676569 -1.023386
v  0.430167 2.232722 -1.023386
v  0.859732 2.232722 -1.023386
v  0.859732 2.389460 -1.023386
v  0.495352 2.389460 -1.023386
v  0.859732 1.356013 -1.023386
v  0.859732 1.512385 -1.023386
v  0.040793 1.113627 -1.023386
v  0.495352 1.356013 -1.112741
v  0.202200 1.112757 -1.112741
v  0.040793 1.181513 -1.112741
v  0.430167 1.512385 -1.112741
v  0.202200 2.745417 -1.112741
v  0.040793 2.676569 -1.112741
v  0.495352 2.389460 -1.112741
v  0.859732 2.389460 -1.112741
v  0.859732 2.232722 -1.112741
v  0.430167 2.232722 -1.112741
v  0.859732 1.512385 -1.112741
v  0.859732 1.356013 -1.112741
v  0.040793 1.113627 -1.112741
v  0.224539 3.132136 -1.008371
v  -0.594492 0.852656 0.374808
v  -0.566660 0.828120 0.374808
v  0.551016 0.828120 0.374808
v  0.578848 0.852656 0.374808
v  -0.594492 0.971446 0.374808
v  0.578848 0.971446 0.374808
v  0.551016 0.995936 0.374808
v  -0.566660 0.995936 0.374808
v  -0.579111 0.805415 0.344046
v  0.563467 0.805415 0.344046
v  0.613638 0.843867 0.344046
v  -0.629282 0.843867 0.344046
v  0.563467 1.018664 0.344046
v  -0.579111 1.018664 0.344046
v  -0.629282 0.980280 0.344046
v  0.613638 0.980280 0.344046
v  -0.149728 0.936701 0.416556
v  0.132254 0.936701 0.418021
v  0.132254 0.893214 0.418021
v  -0.149728 0.893214 0.416556
v  -0.164835 0.893214 0.450980
v  0.151389 0.893214 0.451712
v  0.151389 0.936701 0.451712
v  -0.164835 0.936701 0.450980
v  0.243216 0.936701 0.398978
v  0.243216 0.893214 0.398978
v  0.242484 0.893214 0.376273
v  0.242484 0.936701 0.376273
v  -0.261789 0.893214 0.396048
v  -0.261789 0.936701 0.396048
v  -0.262521 0.936701 0.374075
v  -0.262521 0.893214 0.374075
v  0.189566 0.936701 0.398245
v  0.189566 0.893214 0.398245
v  -0.206857 0.936701 0.396780
v  -0.206857 0.893214 0.396780
v  0.160178 0.893214 0.376273
v  -0.180215 0.893214 0.374075
v  -0.180215 0.936701 0.374075
v  0.160178 0.936701 0.376273
v  -0.316354 0.657649 0.774710
v  -0.316354 0.657649 1.283743
v  0.287527 0.657649 1.283743
v  0.287527 0.657649 0.774710
v  -0.283762 0.636408 1.367239
v  0.255118 0.636408 1.367239
v  0.240286 0.657649 1.332083
v  -0.269113 0.657649 1.332083
v  0.323050 0.636408 1.299857
v  0.323050 0.636408 0.760062
v  0.255118 0.636408 0.691946
v  0.240286 0.657649 0.727835
v  -0.283762 0.636408 0.691946
v  -0.269113 0.657649 0.727835
v  -0.351877 0.636408 0.760062
v  -0.351877 0.636408 1.299857
v  -0.283762 0.587336 1.367239
v  0.255118 0.587336 1.367239
v  0.323050 0.587336 1.299857
v  0.323050 0.587336 0.760062
v  0.255118 0.587336 0.691946
v  -0.283762 0.587336 0.691946
v  -0.351877 0.587336 0.760062
v  -0.351877 0.587336 1.299857
v  0.309134 -0.017278 0.797415
v  0.219229 -0.017278 0.791556
v  0.213736 -0.017278 0.702200
v  0.213736 0.592463 0.702200
v  0.247061 0.592463 0.702200
v  0.247061 -0.017278 0.702200
v  0.309134 0.592463 0.797415
v  0.308951 -0.017278 0.763724
v  0.308951 0.592463 0.763724
v  0.219229 0.592463 0.791556
v  -0.235422 0.322199 1.214896
v  -0.337045 0.322199 1.214896
v  -0.337045 0.322199 1.277884
v  -0.205942 0.322199 1.277884
v  -0.102396 0.322199 1.099173
v  -0.029108 0.322199 1.140189
v  -0.235422 0.275690 1.214896
v  -0.205942 0.275690 1.277884
v  -0.337045 0.275690 1.277884
v  -0.337045 0.275690 1.214896
v  -0.102396 0.275690 1.099173
v  -0.029108 0.275690 1.140189
v  -0.029108 0.322199 1.106497
v  -0.029108 0.275690 1.106497
v  0.012995 0.322199 1.106497
v  0.012995 0.275690 1.106497
v  0.179495 0.322199 1.277884
v  0.308035 0.322199 1.277884
v  0.308035 0.322199 1.214896
v  0.219412 0.322199 1.214896
v  0.012995 0.322199 1.140189
v  0.086295 0.322199 1.099173
v  0.179495 0.275690 1.277884
v  0.219412 0.275690 1.214896
v  0.308035 0.275690 1.214896
v  0.308035 0.275690 1.277884
v  0.012995 0.275690 1.140189
v  0.086295 0.275690 1.099173
v  -0.029108 0.322199 0.951224
v  0.012995 0.322199 0.951224
v  0.012995 0.275690 0.951224
v  -0.029108 0.275690 0.951224
v  0.086295 0.275690 0.957083
v  0.086295 0.322199 0.957083
v  -0.235422 0.322199 0.842093
v  -0.205942 0.322199 0.779105
v  -0.337045 0.322199 0.779105
v  -0.337045 0.322199 0.842093
v  -0.102396 0.322199 0.957083
v  -0.029108 0.322199 0.917532
v  -0.235422 0.275690 0.842093
v  -0.337045 0.275690 0.842093
v  -0.337045 0.275690 0.779105
v  -0.205942 0.275690 0.779105
v  -0.029108 0.275690 0.917532
v  -0.102396 0.275690 0.957083
v  0.179495 0.322199 0.779105
v  0.219412 0.322199 0.842093
v  0.308035 0.322199 0.842093
v  0.308035 0.322199 0.779105
v  0.012995 0.322199 0.917532
v  0.179495 0.275690 0.779105
v  0.308035 0.275690 0.779105
v  0.308035 0.275690 0.842093
v  0.219412 0.275690 0.842093
v  0.012995 0.275690 0.917532
v  0.309134 -0.017278 1.260306
v  0.213736 -0.017278 1.355521
v  0.219229 -0.017278 1.266165
v  0.213736 0.592463 1.355521
v  0.247061 -0.017278 1.355521
v  0.247061 0.592463 1.355521
v  0.309134 0.592463 1.260306
v  0.308951 0.592463 1.293997
v  0.308951 -0.017278 1.293997
v  0.219229 0.592463 1.266165
v  -0.337778 -0.017278 1.260306
v  -0.247873 -0.017278 1.266165
v  -0.242380 -0.017278 1.355521
v  -0.242380 0.592463 1.355521
v  -0.275705 0.592463 1.355521
v  -0.275705 -0.017278 1.355521
v  -0.337778 0.592463 1.260306
v  -0.337595 -0.017278 1.293997
v  -0.337595 0.592463 1.293997
v  -0.247873 0.592463 1.266165
v  -0.337778 -0.017278 0.798148
v  -0.242380 -0.017278 0.702933
v  -0.247873 -0.017278 0.792288
v  -0.242380 0.592463 0.702933
v  -0.275705 -0.017278 0.702933
v  -0.275705 0.592463 0.702933
v  -0.337778 0.592463 0.798148
v  -0.337595 0.592463 0.763724
v  -0.337595 -0.017278 0.763724
v  -0.247873 0.592463 0.792288
v  0.561270 1.414790 -0.999216
v  0.605948 1.414790 -0.999216
v  0.605948 1.457453 -0.999216
v  0.561270 1.457453 -0.999216
v  0.555045 1.408747 -1.024484
v  0.612173 1.408747 -1.024484
v  0.612173 1.463313 -1.024484
v  0.555045 1.463313 -1.024484
v  0.563834 2.292048 -0.999216
v  0.608511 2.292048 -0.999216
v  0.608511 2.334528 -0.999216
v  0.563834 2.334528 -0.999216
v  0.557608 2.286189 -1.024484
v  0.614737 2.286189 -1.024484
v  0.614737 2.340388 -1.024484
v  0.557608 2.340388 -1.024484
v  -0.625253 2.292048 -0.999216
v  -0.580576 2.292048 -0.999216
v  -0.580576 2.334528 -0.999216
v  -0.625253 2.334528 -0.999216
v  -0.631479 2.286189 -1.024484
v  -0.574350 2.286189 -1.024484
v  -0.574350 2.340388 -1.024484
v  -0.631479 2.340388 -1.024484
v  -0.627817 1.414790 -0.999216
v  -0.583139 1.414790 -0.999216
v  -0.583139 1.457453 -0.999216
v  -0.627817 1.457453 -0.999216
v  -0.634042 1.408747 -1.024484
v  -0.576913 1.408747 -1.024484
v  -0.576913 1.463313 -1.024484
v  -0.634042 1.463313 -1.024484
# 428 vertices

vn -0.002208 0.923678 -0.383163
vn -0.319317 0.883228 -0.343431
vn -0.398810 0.917033 -0.000000
vn 0.000000 1.000000 -0.000000
vn 0.000000 -0.999444 0.033356
vn -0.002224 -0.930019 -0.367504
vn 0.000464 -0.999545 0.030173
vn 0.000203 -0.861898 -0.507081
vn 0.632038 0.699488 -0.333532
vn 0.613120 0.717198 -0.331226
vn 0.522052 0.559067 -0.644131
vn 0.317690 0.414458 -0.852818
vn -0.368712 0.905109 0.211731
vn -0.732081 0.681217 -0.000673
vn -0.547541 0.776297 0.312350
vn -0.169274 0.755238 0.633215
vn -0.104821 0.916993 0.384884
vn -0.453531 0.770474 -0.447972
vn -0.004235 0.698126 -0.715962
vn 0.633888 -0.706190 -0.315407
vn 0.655958 -0.684299 -0.318518
vn 0.651729 -0.688595 -0.317939
vn 0.628665 -0.711184 -0.314639
vn -0.664436 -0.747339 -0.003075
vn -0.671593 -0.740866 0.008980
vn -0.663191 -0.748307 0.014606
vn -0.613807 -0.789456 -0.000000
vn -0.142138 -0.831716 0.536699
vn -0.309312 -0.788996 0.530858
vn -0.308770 -0.789763 0.530034
vn -0.145864 -0.832133 0.535050
vn -0.000225 -0.635878 -0.771790
vn -0.004234 -0.698256 -0.715835
vn 0.000000 -1.000000 -0.000000
vn -0.258433 -0.015156 0.965910
vn -0.865304 -0.002948 0.501239
vn -0.343356 -0.008972 0.939163
vn 0.000000 -0.015347 0.999882
vn -0.003304 -0.006399 -0.999974
vn -0.003515 -0.003654 -0.999987
vn -0.002891 0.000719 -0.999996
vn 1.000000 -0.000940 -0.000000
vn -0.002392 0.000000 -0.999997
vn -0.000879 -0.000400 -1.000000
vn -0.000122 -0.000182 -1.000000
vn -0.999994 0.000000 0.003460
vn -0.442516 0.896760 0.001526
vn -0.441409 0.897305 0.001367
vn 0.000917 -0.001014 0.999999
vn 0.002262 -0.000555 0.999997
vn 0.002196 -0.001836 0.999996
vn -0.792383 0.610022 0.001638
vn -0.792328 0.610094 0.001361
vn 0.001978 -0.003871 0.999991
vn 0.001986 -0.004089 0.999990
vn -0.825866 0.215188 0.521190
vn -0.825721 -0.199055 0.527790
vn -0.018796 -0.199723 0.979672
vn -0.011566 0.222790 0.974798
vn -0.594166 0.486213 0.640752
vn -0.244071 0.494269 0.834343
vn -0.600769 -0.485803 0.634879
vn -0.240830 -0.493808 0.835556
vn 0.331950 -0.293081 0.896612
vn 0.339839 0.293084 0.893650
vn -0.033295 0.757782 0.651658
vn -0.576518 0.728871 0.369289
vn -0.938927 0.270570 0.212623
vn -0.935514 -0.272820 0.224463
vn -0.581341 -0.724591 0.370148
vn -0.031520 -0.758629 0.650760
vn 0.504454 0.000000 -0.863438
vn -0.844385 0.000000 0.535737
vn -0.058311 0.000000 0.998298
vn 0.860292 0.000000 0.509802
vn -0.856064 0.000000 -0.516869
vn -0.512457 0.000000 0.858713
vn -0.063700 0.000000 0.997969
vn -0.505547 0.000000 0.862799
vn -0.845126 0.000000 0.534567
vn -0.418608 0.000000 -0.908167
vn 0.998371 0.000000 -0.057050
vn -0.999999 -0.001375 -0.000000
vn -0.865598 -0.000631 0.500739
vn -0.500144 0.002913 0.865937
vn -0.001940 0.002511 -0.999995
vn 0.000000 0.004126 -0.999991
vn -0.745778 -0.666162 -0.006644
vn -0.735019 -0.678045 -0.001683
vn -0.003121 0.002619 0.999992
vn -0.002190 0.004454 0.999988
vn 0.002190 0.004454 0.999988
vn 0.003121 0.002619 0.999992
vn 0.782716 -0.622380 -0.000000
vn 0.944104 -0.329649 -0.000077
vn 0.944056 -0.329784 -0.000000
vn 0.999974 0.000002 -0.007143
vn 0.999976 -0.000003 -0.006996
vn 0.000000 0.745559 0.666440
vn 0.000000 0.934227 0.356680
vn 0.000000 -0.824932 0.565232
vn 0.000000 -0.273004 -0.962013
vn 0.000000 -0.046072 -0.998938
vn 0.000000 -0.006395 -0.999980
vn -0.001978 -0.003871 0.999991
vn -0.001986 -0.004089 0.999990
vn 0.002208 0.923678 -0.383163
vn 0.398810 0.917033 -0.000000
vn 0.319317 0.883228 -0.343431
vn -0.000039 -0.873809 -0.486270
vn -0.000094 -0.999465 0.032714
vn -0.000013 -0.999447 0.033266
vn 0.002224 -0.930019 -0.367504
vn -0.632038 0.699488 -0.333532
vn -0.317690 0.414458 -0.852818
vn -0.522052 0.559067 -0.644131
vn -0.613120 0.717198 -0.331226
vn 0.368712 0.905109 0.211731
vn 0.547541 0.776297 0.312350
vn 0.732082 0.681217 -0.000673
vn 0.169274 0.755238 0.633215
vn 0.104821 0.916993 0.384884
vn 0.453531 0.770474 -0.447972
vn 0.004235 0.698126 -0.715962
vn -0.633888 -0.706190 -0.315407
vn -0.628665 -0.711184 -0.314639
vn -0.651729 -0.688595 -0.317939
vn -0.655958 -0.684299 -0.318518
vn 0.610924 -0.791689 -0.000115
vn 0.608968 -0.793195 -0.000000
vn 0.657688 -0.753131 0.015467
vn 0.667310 -0.744716 0.009737
vn 0.142226 -0.831769 0.536593
vn 0.145995 -0.832131 0.535017
vn 0.306394 -0.793414 0.525944
vn 0.306877 -0.792740 0.526678
vn 0.000225 -0.635878 -0.771790
vn 0.004234 -0.698256 -0.715835
vn 0.258463 -0.015156 0.965902
vn 0.343357 -0.008971 0.939162
vn 0.865335 -0.002948 0.501185
vn 0.003306 -0.006399 -0.999974
vn 0.002892 0.000718 -0.999996
vn 0.003515 -0.003653 -0.999987
vn -1.000000 -0.000940 -0.000000
vn 0.002392 0.000000 -0.999997
vn 0.000122 -0.000182 -1.000000
vn 0.000879 -0.000400 -1.000000
vn 0.999994 0.000000 0.003460
vn 0.441409 0.897305 0.001367
vn 0.442516 0.896760 0.001526
vn -0.000917 -0.001014 0.999999
vn -0.002196 -0.001836 0.999996
vn -0.002262 -0.000555 0.999997
vn 0.792383 0.610022 0.001638
vn 0.792328 0.610094 0.001361
vn 0.825866 0.215188 0.521190
vn 0.011566 0.222790 0.974798
vn 0.018796 -0.199723 0.979672
vn 0.825721 -0.199055 0.527790
vn 0.594166 0.486213 0.640752
vn 0.244071 0.494269 0.834343
vn 0.600769 -0.485803 0.634879
vn 0.240830 -0.493808 0.835556
vn -0.339839 0.293084 0.893650
vn -0.331950 -0.293081 0.896612
vn 0.033295 0.757782 0.651658
vn 0.576518 0.728871 0.369289
vn 0.938927 0.270570 0.212623
vn 0.935514 -0.272820 0.224463
vn 0.581341 -0.724591 0.370148
vn 0.031520 -0.758629 0.650760
vn -0.504454 0.000000 -0.863438
vn 0.844385 0.000000 0.535737
vn 0.058311 0.000000 0.998298
vn -0.860292 0.000000 0.509802
vn 0.856064 0.000000 -0.516869
vn 0.512457 0.000000 0.858713
vn 0.063700 0.000000 0.997969
vn 0.505547 0.000000 0.862799
vn 0.845126 0.000000 0.534567
vn 0.418608 0.000000 -0.908167
vn -0.998371 0.000000 -0.057050
vn 0.999999 -0.001375 -0.000000
vn 0.958550 -0.000133 0.284925
vn 0.497178 -0.001578 0.867647
vn 0.500144 0.002913 0.865937
vn 0.001940 0.002511 -0.999995
vn 0.000000 0.004125 -0.999991
vn 0.734483 -0.678625 -0.001439
vn 0.745778 -0.666162 -0.006644
vn -0.782716 -0.622380 -0.000000
vn -0.944056 -0.329784 -0.000000
vn -0.944104 -0.329649 -0.000077
vn -0.999976 -0.000003 -0.006996
vn -0.999974 0.000002 -0.007143
vn 0.000000 0.183294 -0.983058
vn 0.000000 -0.000230 1.000000
vn 0.000000 0.000255 1.000000
vn 0.000000 0.001101 0.999999
vn 0.000000 -0.001429 -0.999999
vn 0.000000 0.000000 1.000000
vn 0.000000 -0.497261 0.867601
vn 0.000000 -0.497260 0.867601
vn 0.000000 0.000000 -1.000000
vn 0.000000 -0.574565 -0.818459
vn -0.339441 -0.940627 -0.000000
vn -0.638575 -0.769559 -0.000000
vn 0.907611 0.419811 -0.000000
vn 0.344927 0.938630 -0.000000
vn 1.000000 0.000000 -0.000000
vn 0.935872 -0.352341 -0.000000
vn -0.813403 -0.581701 -0.000000
vn -0.941254 0.337699 -0.000000
vn -0.825133 -0.564939 -0.000000
vn -1.000000 0.000000 -0.000000
vn -0.426778 0.904356 -0.000000
vn 0.412618 -0.910904 -0.000000
vn -0.579841 0.814730 -0.000000
vn -0.888775 0.458344 -0.000000
vn -0.935685 -0.352836 -0.000000
vn -0.919172 -0.393857 -0.000000
vn 0.000000 -0.334471 -0.942406
vn 0.000000 -0.258139 0.966108
vn 0.339441 -0.940627 -0.000000
vn 0.638575 -0.769559 -0.000000
vn -0.907618 0.419798 -0.000000
vn -0.344941 0.938625 -0.000000
vn -0.344940 0.938625 -0.000000
vn -0.935877 -0.352327 -0.000000
vn 0.813403 -0.581701 -0.000000
vn 0.825133 -0.564939 -0.000000
vn 0.941254 0.337699 -0.000000
vn 0.426778 0.904356 -0.000000
vn -0.412632 -0.910898 -0.000000
vn 0.579946 0.814655 -0.000000
vn 0.888804 0.458287 -0.000000
vn 0.935685 -0.352836 -0.000000
vn 0.919172 -0.393857 -0.000000
vn -0.384576 -0.213801 0.897993
vn -0.164028 -0.470437 0.867055
vn 0.150445 -0.469303 0.870127
vn 0.382975 -0.196299 0.902661
vn -0.384443 0.213872 0.898032
vn 0.384444 0.213872 0.898032
vn 0.163731 0.470257 0.867208
vn -0.163730 0.470257 0.867209
vn -0.267450 -0.710394 0.651008
vn 0.260913 -0.723232 0.639422
vn 0.608023 -0.266739 0.747769
vn -0.598557 -0.270195 0.754138
vn 0.267039 0.710303 0.651276
vn -0.267039 0.710303 0.651276
vn -0.598263 0.270448 0.754280
vn 0.598263 0.270448 0.754280
vn 0.005195 0.000000 -0.999987
vn -0.441075 0.000000 0.897470
vn 0.456624 0.000000 0.889660
vn 0.999480 0.000000 -0.032241
vn -0.999445 0.000000 0.033315
vn 0.451574 0.000000 0.892234
vn -0.013651 0.000000 0.999907
vn -0.446011 0.000000 0.895027
vn -0.013332 0.000000 0.999911
vn -0.831208 0.000000 -0.555962
vn 0.812430 0.000000 -0.583059
vn -0.282845 0.951943 -0.117489
vn -0.281208 0.953242 0.110690
vn 0.281337 0.952896 0.113308
vn 0.282883 0.951845 -0.118187
vn -0.397234 0.687132 0.608322
vn 0.455189 0.617541 0.641440
vn 0.119739 0.951128 0.284636
vn -0.117274 0.951407 0.284730
vn 0.636062 0.620274 0.459005
vn 0.640674 0.618183 -0.455397
vn 0.399201 0.690842 -0.602806
vn 0.116422 0.952706 -0.280708
vn -0.455080 0.619338 -0.639784
vn -0.116042 0.952696 -0.280898
vn -0.640764 0.617765 -0.455837
vn -0.637338 0.619102 0.458816
vn 0.923101 0.000000 0.384558
vn 0.924137 0.000000 -0.382062
vn -0.923880 0.000000 -0.382683
vn -0.922842 0.000000 0.385179
vn 0.704230 0.000000 0.709971
vn -0.703274 0.000000 0.710919
vn 0.708058 0.000000 -0.706154
vn -0.707107 0.000000 -0.707107
vn 0.381312 0.000000 -0.924446
vn 0.999985 0.000000 -0.005435
vn 0.922264 0.000000 -0.386561
vn -0.065035 0.000000 0.997883
vn -0.998116 0.000000 0.061360
vn 0.898437 0.000000 0.439102
vn -0.350377 0.000000 -0.936609
vn 0.324799 0.000000 0.945783
vn -0.656333 0.000000 -0.754471
vn -0.904792 0.000000 0.425853
vn 0.350218 0.000000 -0.936668
vn -0.338662 0.000000 0.940908
vn 0.909966 0.000000 -0.414683
vn 0.899001 0.000000 -0.437946
vn -0.348905 0.000000 0.937158
vn 0.326016 0.000000 -0.945364
vn -0.909384 0.000000 0.415957
vn -0.909384 0.000000 0.415958
vn -0.905347 0.000000 -0.424673
vn 0.348746 0.000000 0.937217
vn -0.339888 0.000000 -0.940466
vn 0.653701 0.000000 0.756753
vn 0.381312 0.000000 0.924446
vn 0.999985 0.000000 0.005435
vn 0.922264 0.000000 0.386561
vn -0.065035 0.000000 -0.997883
vn -0.998116 0.000000 -0.061360
vn -0.381312 0.000000 0.924446
vn -0.999985 0.000000 0.005435
vn -0.922264 0.000000 0.386561
vn 0.065035 0.000000 -0.997883
vn 0.998116 0.000000 -0.061360
vn -0.378543 0.000000 -0.925584
vn -0.999986 0.000000 -0.005319
vn -0.921125 0.000000 -0.389267
vn 0.065035 0.000000 0.997883
vn 0.998116 0.000000 0.061360
vn 0.000000 -0.972579 0.232573
vn 0.970965 0.000000 0.239223
vn 0.000000 0.974153 0.225890
vn 0.000000 0.974153 0.225891
vn -0.970965 0.000000 0.239223
vn 0.000000 -0.974153 0.225890
vn 0.000000 -0.974153 0.225891
# 334 vertex normals

vt 0.483887 0.757568 0.000000
vt 0.296143 0.756714 0.000000
vt 0.296631 0.722656 0.000000
vt 0.501465 0.725830 0.000000
vt 0.294434 0.774780 0.000000
vt 0.483398 0.779297 0.000000
vt 0.498535 0.812012 0.000000
vt 0.294189 0.808472 0.000000
vt 0.488770 0.768433 0.000000
vt 0.508301 0.731445 0.000000
vt 0.297363 0.491211 0.000000
vt 0.286621 0.722656 0.000000
vt 0.288086 0.484863 0.000000
vt 0.498047 0.351563 0.000000
vt 0.500977 0.362305 0.000000
vt 0.288086 0.764404 0.000000
vt 0.509277 0.736572 0.000000
vt 0.500000 0.769165 0.000000
vt 0.277100 0.723633 0.000000
vt 0.277344 0.490234 0.000000
vt 0.287109 0.472168 0.000000
vt 0.494385 0.341797 0.000000
vt 0.380127 0.243652 0.000000
vt 0.254883 0.242188 0.000000
vt 0.251709 0.463379 0.000000
vt 0.377930 0.387207 0.000000
vt 0.384521 0.220703 0.000000
vt 0.191284 0.220703 0.000000
vt 0.384521 0.163086 0.000000
vt 0.510742 0.163086 0.000000
vt 0.511230 0.220703 0.000000
vt 0.560547 0.122070 0.000000
vt 0.519043 0.121094 0.000000
vt 0.560547 0.004395 0.000000
vt 0.715332 0.002441 0.000000
vt 0.871094 0.002441 0.000000
vt 0.871094 0.291992 0.000000
vt 0.715332 0.292480 0.000000
vt 0.751465 0.996359 0.000000
vt 0.751465 0.978378 0.000000
vt 0.993652 0.996359 0.000000
vt 0.674805 0.742676 0.000000
vt 0.674805 0.331055 0.000000
vt 0.700195 0.331543 0.000000
vt 0.695801 0.742432 0.000000
vt 0.687500 0.760986 0.000000
vt 0.726074 0.749023 0.000000
vt 0.713379 0.768921 0.000000
vt 0.726074 0.698242 0.000000
vt 0.771484 0.801392 0.000000
vt 0.756348 0.816772 0.000000
vt 0.782715 0.770264 0.000000
vt 0.034515 0.448730 0.000000
vt 0.034485 0.271484 0.000000
vt 0.214478 0.271973 0.000000
vt 0.214478 0.448730 0.000000
vt 0.051178 0.463867 0.000000
vt 0.198242 0.463867 0.000000
vt 0.051208 0.255371 0.000000
vt 0.198242 0.255371 0.000000
vt 0.231934 0.264648 0.000000
vt 0.232056 0.454590 0.000000
vt 0.203247 0.482422 0.000000
vt 0.042297 0.481934 0.000000
vt 0.013840 0.454590 0.000000
vt 0.013901 0.264648 0.000000
vt 0.042236 0.237305 0.000000
vt 0.203369 0.236816 0.000000
vt 0.194702 0.846680 0.000000
vt 0.169678 0.848633 0.000000
vt 0.170532 0.780884 0.000000
vt 0.195679 0.783936 0.000000
vt 0.156128 0.850342 0.000000
vt 0.133911 0.850342 0.000000
vt 0.135010 0.776733 0.000000
vt 0.156616 0.777100 0.000000
vt 0.121277 0.779297 0.000000
vt 0.120605 0.849365 0.000000
vt 0.134399 0.729004 0.000000
vt 0.134521 0.719482 0.000000
vt 0.159424 0.719971 0.000000
vt 0.159058 0.729492 0.000000
vt 0.157593 0.900269 0.000000
vt 0.157715 0.909912 0.000000
vt 0.132813 0.909912 0.000000
vt 0.132935 0.900391 0.000000
vt 0.160400 0.751709 0.000000
vt 0.131958 0.750977 0.000000
vt 0.130981 0.877869 0.000000
vt 0.159058 0.877625 0.000000
vt 0.125000 0.727295 0.000000
vt 0.116882 0.757690 0.000000
vt 0.123840 0.902832 0.000000
vt 0.116882 0.872070 0.000000
vt 0.166748 0.902405 0.000000
vt 0.172852 0.871460 0.000000
vt 0.168457 0.728271 0.000000
vt 0.174927 0.759277 0.000000
vt 0.198975 0.763672 0.000000
vt 0.197388 0.868164 0.000000
vt 0.004181 0.007813 0.000000
vt 0.191284 0.007813 0.000000
vt 0.004181 0.220703 0.000000
vt 0.384521 0.007813 0.000000
vt 0.409668 0.121094 0.000000
vt 0.409912 0.003906 0.000000
vt 0.277588 0.757690 0.000000
vt 0.967773 0.308594 0.000000
vt 0.969238 0.331543 0.000000
vt 0.701172 0.308594 0.000000
vt 0.942383 0.350098 0.000000
vt 0.727051 0.350098 0.000000
vt 0.783691 0.766968 0.000000
vt 0.728027 0.696289 0.000000
vt 0.735352 0.692871 0.000000
vt 0.787109 0.759888 0.000000
vt 0.729492 0.354980 0.000000
vt 0.735352 0.358887 0.000000
vt 0.940430 0.354980 0.000000
vt 0.934082 0.358887 0.000000
vt 0.656250 0.351563 0.000000
vt 0.658203 0.362793 0.000000
vt 0.655273 0.340332 0.000000
vt 0.661133 0.733398 0.000000
vt 0.662598 0.740479 0.000000
vt 0.560547 0.212402 0.000000
vt 0.519043 0.210449 0.000000
vt 0.897461 0.801392 0.000000
vt 0.897949 0.824341 0.000000
vt 0.770996 0.824341 0.000000
vt 0.886230 0.770264 0.000000
vt 0.751465 0.839478 0.000000
vt 0.993652 0.839478 0.000000
vt 0.751465 0.857422 0.000000
vt 0.994141 0.742676 0.000000
vt 0.973145 0.742432 0.000000
vt 0.994141 0.331055 0.000000
vt 0.981445 0.760986 0.000000
vt 0.955566 0.768921 0.000000
vt 0.942871 0.749023 0.000000
vt 0.942871 0.698242 0.000000
vt 0.912598 0.816772 0.000000
vt 0.042267 0.237305 0.000000
vt 0.170654 0.780640 0.000000
vt 0.885254 0.766968 0.000000
vt 0.882324 0.759888 0.000000
vt 0.933594 0.692871 0.000000
vt 0.940918 0.696289 0.000000
vt 0.659180 0.725830 0.000000
vt 0.997070 0.002441 0.000000
vt 0.997070 0.291992 0.000000
vt 0.736328 0.361328 0.000000
vt 0.933105 0.361328 0.000000
vt 0.932617 0.692139 0.000000
vt 0.736328 0.692139 0.000000
vt 0.881836 0.758301 0.000000
vt 0.787598 0.758301 0.000000
vt 0.719238 0.955231 0.000000
vt 0.719238 0.880615 0.000000
vt 0.636230 0.778687 0.000000
vt 0.626953 0.815308 0.000000
vt 0.544434 0.811035 0.000000
vt 0.529785 0.779785 0.000000
vt 0.591797 0.240723 0.000000
vt 0.617188 0.291016 0.000000
vt 0.569336 0.267090 0.000000
vt 0.570801 0.239258 0.000000
vt 0.472656 0.258301 0.000000
vt 0.487305 0.283203 0.000000
vt 0.440430 0.324707 0.000000
vt 0.421387 0.304199 0.000000
vt 0.604980 0.223633 0.000000
vt 0.659668 0.234863 0.000000
vt 0.713379 0.818604 0.000000
vt 0.696777 0.849609 0.000000
vt 0.519043 0.789429 0.000000
vt 0.624023 0.194824 0.000000
vt 0.597656 0.204102 0.000000
vt 0.618652 0.111816 0.000000
vt 0.590332 0.104004 0.000000
vt 0.621582 0.042480 0.000000
vt 0.646484 0.055664 0.000000
vt 0.621094 0.835083 0.000000
vt 0.538574 0.828003 0.000000
vt 0.526367 0.761597 0.000000
vt 0.640137 0.759888 0.000000
vt 0.583984 0.233887 0.000000
vt 0.563477 0.231934 0.000000
vt 0.561035 0.217773 0.000000
vt 0.577148 0.219727 0.000000
vt 0.605469 0.314941 0.000000
vt 0.562012 0.292969 0.000000
vt 0.563477 0.278320 0.000000
vt 0.611328 0.300781 0.000000
vt 0.428467 0.335449 0.000000
vt 0.409668 0.314941 0.000000
vt 0.489746 0.310059 0.000000
vt 0.447266 0.352539 0.000000
vt 0.437012 0.341309 0.000000
vt 0.482910 0.296387 0.000000
vt 0.403076 0.284668 0.000000
vt 0.458496 0.237793 0.000000
vt 0.465088 0.250977 0.000000
vt 0.413818 0.297363 0.000000
vt 0.581543 0.213379 0.000000
vt 0.597168 0.216309 0.000000
vt 0.689453 0.287109 0.000000
vt 0.677734 0.304199 0.000000
vt 0.659180 0.291504 0.000000
vt 0.671387 0.274414 0.000000
vt 0.730957 0.828003 0.000000
vt 0.714355 0.859009 0.000000
vt 0.722656 0.800171 0.000000
vt 0.687988 0.867188 0.000000
vt 0.510742 0.768311 0.000000
vt 0.659668 0.305664 0.000000
vt 0.658203 0.326660 0.000000
vt 0.622559 0.324219 0.000000
vt 0.625977 0.303223 0.000000
vt 0.608887 0.320801 0.000000
vt 0.615234 0.300293 0.000000
vt 0.664551 0.235840 0.000000
vt 0.619629 0.295410 0.000000
vt 0.669434 0.240234 0.000000
vt 0.625488 0.299316 0.000000
vt 0.575684 0.198242 0.000000
vt 0.590332 0.196777 0.000000
vt 0.683594 0.218262 0.000000
vt 0.672363 0.228027 0.000000
vt 0.636719 0.189941 0.000000
vt 0.649902 0.184082 0.000000
vt 0.653809 0.041504 0.000000
vt 0.629395 0.028320 0.000000
vt 0.644531 0.110352 0.000000
vt 0.629883 0.107910 0.000000
vt 0.657715 0.052734 0.000000
vt 0.671387 0.059082 0.000000
vt 0.599609 0.028320 0.000000
vt 0.614258 0.035645 0.000000
vt 0.583008 0.097168 0.000000
vt 0.568359 0.094238 0.000000
vt 0.691895 0.271973 0.000000
vt 0.678711 0.240723 0.000000
vt 0.697754 0.231445 0.000000
vt 0.711426 0.263672 0.000000
vt 0.690430 0.219238 0.000000
vt 0.672852 0.231445 0.000000
vt 0.015610 0.938873 0.000000
vt 0.022324 0.933228 0.000000
vt 0.293457 0.933228 0.000000
vt 0.300049 0.938904 0.000000
vt 0.015602 0.969147 0.000000
vt 0.300049 0.969162 0.000000
vt 0.293457 0.974792 0.000000
vt 0.022308 0.974777 0.000000
vt 0.018280 0.923950 0.000000
vt 0.297607 0.923950 0.000000
vt 0.311035 0.935120 0.000000
vt 0.004658 0.935120 0.000000
vt 0.297363 0.984085 0.000000
vt 0.018265 0.984085 0.000000
vt 0.004665 0.972900 0.000000
vt 0.311035 0.972931 0.000000
vt 0.249023 0.853516 0.000000
vt 0.248901 0.737549 0.000000
vt 0.267578 0.739990 0.000000
vt 0.267822 0.851196 0.000000
vt 0.219360 0.855957 0.000000
vt 0.219727 0.733887 0.000000
vt 0.234985 0.734131 0.000000
vt 0.235352 0.855591 0.000000
vt 0.206055 0.855103 0.000000
vt 0.206177 0.736328 0.000000
vt 0.237549 0.686523 0.000000
vt 0.219116 0.686035 0.000000
vt 0.219238 0.676514 0.000000
vt 0.237915 0.677002 0.000000
vt 0.220215 0.905701 0.000000
vt 0.238647 0.904968 0.000000
vt 0.239136 0.914612 0.000000
vt 0.220459 0.915405 0.000000
vt 0.238892 0.708496 0.000000
vt 0.216797 0.708008 0.000000
vt 0.239380 0.882507 0.000000
vt 0.217529 0.883423 0.000000
vt 0.201660 0.714600 0.000000
vt 0.209839 0.684082 0.000000
vt 0.203003 0.878174 0.000000
vt 0.211182 0.908386 0.000000
vt 0.253174 0.875977 0.000000
vt 0.247803 0.906799 0.000000
vt 0.246948 0.685059 0.000000
vt 0.253418 0.715820 0.000000
vt 0.271484 0.719482 0.000000
vt 0.271484 0.872559 0.000000
vt 0.037079 0.662354 0.000000
vt 0.037079 0.531494 0.000000
vt 0.180176 0.531494 0.000000
vt 0.180176 0.662354 0.000000
vt 0.043518 0.509521 0.000000
vt 0.173706 0.509521 0.000000
vt 0.169189 0.519531 0.000000
vt 0.048004 0.519531 0.000000
vt 0.188843 0.528076 0.000000
vt 0.188843 0.665771 0.000000
vt 0.173706 0.684326 0.000000
vt 0.169189 0.674072 0.000000
vt 0.043518 0.684326 0.000000
vt 0.048004 0.674072 0.000000
vt 0.028442 0.665771 0.000000
vt 0.028442 0.528076 0.000000
vt 0.044281 0.496582 0.000000
vt 0.172974 0.496582 0.000000
vt 0.199707 0.525146 0.000000
vt 0.199707 0.668701 0.000000
vt 0.172974 0.697021 0.000000
vt 0.044281 0.697021 0.000000
vt 0.017532 0.668701 0.000000
vt 0.017532 0.525146 0.000000
vt 0.185791 0.502930 0.000000
vt 0.031433 0.502930 0.000000
vt 0.185791 0.690918 0.000000
vt 0.031433 0.690918 0.000000
vt 0.318604 0.841064 0.000000
vt 0.332764 0.825806 0.000000
vt 0.444092 0.825806 0.000000
vt 0.458008 0.841064 0.000000
vt 0.318604 0.961517 0.000000
vt 0.458008 0.961517 0.000000
vt 0.444092 0.976730 0.000000
vt 0.332764 0.976730 0.000000
vt 0.039154 0.726318 0.000000
vt 0.058777 0.709229 0.000000
vt 0.078369 0.726318 0.000000
vt 0.081421 0.917542 0.000000
vt 0.071472 0.917542 0.000000
vt 0.071472 0.733154 0.000000
vt 0.081421 0.733154 0.000000
vt 0.036163 0.917542 0.000000
vt 0.036163 0.733154 0.000000
vt 0.046082 0.733154 0.000000
vt 0.046082 0.917542 0.000000
vt 0.010010 0.733154 0.000000
vt 0.010010 0.917542 0.000000
vt 0.107544 0.733154 0.000000
vt 0.107544 0.917542 0.000000
vt 0.664063 0.909363 0.000000
vt 0.683105 0.933289 0.000000
vt 0.703125 0.919434 0.000000
vt 0.682129 0.890625 0.000000
vt 0.604492 0.888550 0.000000
vt 0.614746 0.865479 0.000000
vt 0.506836 0.950928 0.000000
vt 0.481934 0.943512 0.000000
vt 0.477783 0.978943 0.000000
vt 0.502441 0.981033 0.000000
vt 0.548340 0.903442 0.000000
vt 0.528320 0.888367 0.000000
vt 0.604004 0.859375 0.000000
vt 0.617188 0.859131 0.000000
vt 0.620605 0.848999 0.000000
vt 0.609863 0.847656 0.000000
vt 0.709961 0.928833 0.000000
vt 0.689453 0.942841 0.000000
vt 0.661133 0.930420 0.000000
vt 0.678223 0.951935 0.000000
vt 0.686523 0.945099 0.000000
vt 0.667969 0.921143 0.000000
vt 0.691406 0.875488 0.000000
vt 0.684570 0.884216 0.000000
vt 0.705566 0.912964 0.000000
vt 0.715332 0.905701 0.000000
vt 0.608398 0.911377 0.000000
vt 0.608398 0.900330 0.000000
vt 0.597168 0.849243 0.000000
vt 0.602051 0.841064 0.000000
vt 0.533691 0.880005 0.000000
vt 0.522949 0.872559 0.000000
vt 0.514160 0.879211 0.000000
vt 0.521973 0.886230 0.000000
vt 0.501465 0.992599 0.000000
vt 0.476807 0.990417 0.000000
vt 0.510254 0.962708 0.000000
vt 0.505859 0.992832 0.000000
vt 0.516602 0.994564 0.000000
vt 0.520508 0.967468 0.000000
vt 0.471924 0.976791 0.000000
vt 0.475830 0.941376 0.000000
vt 0.465820 0.937073 0.000000
vt 0.459961 0.975159 0.000000
vt 0.551758 0.915283 0.000000
vt 0.557617 0.924805 0.000000
vt 0.540039 0.882141 0.000000
vt 0.601563 0.865845 0.000000
vt 0.594727 0.855713 0.000000
vt 0.540527 0.869995 0.000000
vt 0.534668 0.867920 0.000000
vt 0.526367 0.863281 0.000000
vt 0.036163 0.917603 0.000000
vt 0.046082 0.917603 0.000000
vt 0.071472 0.917603 0.000000
vt 0.591309 0.946869 0.000000
vt 0.618164 0.946838 0.000000
vt 0.618164 0.972458 0.000000
vt 0.591309 0.972488 0.000000
vt 0.587891 0.926270 0.000000
vt 0.622070 0.926208 0.000000
vt 0.638672 0.943268 0.000000
vt 0.639160 0.975967 0.000000
vt 0.622070 0.993076 0.000000
vt 0.587891 0.993122 0.000000
vt 0.570801 0.976059 0.000000
vt 0.570801 0.943359 0.000000
# 413 texture coords

g Mesh_0395
usemtl Tex_0395_0_dds
s 1
f 1/1/1 2/2/2 3/3/3 
s 2
f 3/3/3 4/4/4 1/1/1 
s 3
f 5/5/5 6/6/6 7/7/5 
s 4
f 7/7/7 8/8/7 5/5/8 
s 5
f 9/9/9 1/1/10 4/4/11 
s 6
f 4/4/11 10/10/12 9/9/9 
s 7
f 11/11/13 3/3/3 12/12/14 
s 8
f 12/12/14 13/13/15 11/11/13 
s 9
f 14/14/16 15/15/17 11/11/13 
s 10
f 11/11/13 13/13/15 14/14/16 
s 11
f 16/16/18 2/2/2 1/1/1 
s 12
f 1/1/1 9/9/19 16/16/18 
s 13
f 9/9/20 10/10/21 7/17/22 
s 14
f 7/17/22 6/18/23 9/9/20 
s 15
f 13/13/24 12/12/25 8/19/26 
s 16
f 8/19/27 17/20/27 13/13/27 
s 17
f 14/14/28 13/13/29 17/21/30 
s 18
f 17/21/30 18/22/31 14/14/28 
s 19
f 16/16/32 9/9/33 6/6/6 
s 20
f 6/6/6 5/5/8 16/16/32 
s 21
f 19/23/34 20/24/34 21/25/34 
s 22
f 21/25/34 22/26/34 19/23/34 
s 23
f 18/27/35 17/28/36 23/29/37 
s 24
f 24/30/38 25/31/38 18/27/35 
s 25
f 18/27/35 23/29/37 24/30/38 
s 26
f 7/32/39 26/33/40 8/34/41 
s 27
f 20/35/42 26/36/42 23/37/42 
s 28
f 23/37/42 21/38/42 20/35/42 
s 29
f 27/39/43 28/40/44 29/41/45 
s 30
f 27/42/46 29/43/46 30/44/46 
s 31
f 30/44/46 31/45/46 27/42/46 
s 32
f 27/46/4 31/45/4 32/47/47 
s 33
f 32/47/47 28/48/48 27/46/4 
s 34
f 31/45/49 33/49/50 32/47/51 
s 35
f 34/50/52 35/51/53 28/48/48 
s 36
f 28/48/48 32/47/47 34/50/52 
s 37
f 32/47/51 33/49/50 36/52/54 
s 38
f 36/52/54 34/50/55 32/47/51 
s 39
f 37/53/56 38/54/57 39/55/58 
s 40
f 39/55/58 40/56/59 37/53/56 
s 41
f 41/57/60 37/53/56 40/56/59 
s 42
f 40/56/59 42/58/61 41/57/60 
s 43
f 43/59/62 44/60/63 39/55/58 
s 44
f 39/55/58 38/54/57 43/59/62 
s 45
f 40/56/59 39/55/58 45/61/64 
s 46
f 45/61/64 46/62/65 40/56/59 
s 47
f 40/56/59 46/62/65 47/63/66 
s 48
f 47/63/66 42/58/61 40/56/59 
s 49
f 41/57/60 42/58/61 47/63/66 
s 50
f 47/63/66 48/64/67 41/57/60 
s 51
f 41/57/60 48/64/67 49/65/68 
s 52
f 49/65/68 37/53/56 41/57/60 
s 53
f 37/53/56 49/65/68 50/66/69 
s 54
f 50/66/69 38/54/57 37/53/56 
s 55
f 51/67/70 43/59/62 38/54/57 
s 56
f 38/54/57 50/66/69 51/67/70 
s 57
f 45/61/64 39/55/58 44/60/63 
s 58
f 44/60/63 52/68/71 45/61/64 
s 59
f 43/59/62 51/67/70 52/68/71 
s 60
f 52/68/71 44/60/63 43/59/62 
s 61
f 53/69/72 54/70/72 55/71/72 
s 62
f 55/71/72 56/72/72 53/69/72 
s 63
f 57/73/73 58/74/73 59/75/74 
s 64
f 59/75/74 60/76/74 57/73/73 
s 65
f 56/77/34 59/75/34 58/74/34 
s 66
f 58/74/34 53/78/34 56/77/34 
s 67
f 61/79/75 62/80/75 63/81/75 
s 68
f 63/81/75 64/82/75 61/79/75 
s 69
f 54/70/4 57/73/4 60/76/4 
s 70
f 60/76/4 55/71/4 54/70/4 
s 71
f 65/83/76 66/84/76 67/85/76 
s 72
f 67/85/76 68/86/76 65/83/76 
s 73
f 64/82/77 69/87/78 70/88/78 
s 74
f 70/88/78 61/79/77 64/82/77 
s 75
f 68/86/79 71/89/80 72/90/80 
s 76
f 72/90/80 65/83/79 68/86/79 
s 77
f 62/91/34 61/79/34 70/88/34 
s 78
f 70/88/34 73/92/34 62/91/34 
s 79
f 68/86/34 67/93/34 74/94/34 
s 80
f 74/94/34 71/89/34 68/86/34 
s 81
f 66/95/4 65/83/4 72/90/4 
s 82
f 72/90/4 75/96/4 66/95/4 
s 83
f 69/87/4 64/82/4 63/97/4 
s 84
f 63/97/4 76/98/4 69/87/4 
s 85
f 56/72/81 55/71/81 76/98/81 
s 86
f 76/98/81 73/99/81 56/72/81 
s 87
f 54/70/82 53/69/82 74/100/82 
s 88
f 74/100/82 75/96/82 54/70/82 
s 89
f 60/76/74 59/75/74 70/88/78 
s 90
f 70/88/78 69/87/78 60/76/74 
s 91
f 58/74/73 57/73/73 72/90/80 
s 92
f 72/90/80 71/89/80 58/74/73 
s 93
f 73/92/34 70/88/34 59/75/34 
s 94
f 59/75/34 56/77/34 73/92/34 
s 95
f 71/89/34 74/94/34 53/78/34 
s 96
f 53/78/34 58/74/34 71/89/34 
s 97
f 75/96/4 72/90/4 57/73/4 
s 98
f 57/73/4 54/70/4 75/96/4 
s 99
f 69/87/4 76/98/4 55/71/4 
s 100
f 55/71/4 60/76/4 69/87/4 
s 101
f 19/101/83 22/102/84 17/28/36 
s 102
f 17/28/36 8/103/83 19/101/83 
s 103
f 22/102/84 21/104/85 23/29/37 
s 104
f 23/29/37 17/28/36 22/102/84 
s 105
f 20/105/86 19/106/87 8/34/41 
s 106
f 8/34/41 26/33/40 20/105/86 
s 107
f 2/2/2 16/16/18 12/12/14 
s 108
f 12/12/14 3/3/3 2/2/2 
s 109
f 12/12/25 16/16/88 5/107/89 
s 110
f 5/107/89 8/19/26 12/12/25 
s 111
f 77/108/34 78/109/34 30/44/34 
s 112
f 30/44/34 29/110/34 77/108/34 
s 113
f 78/109/90 79/111/91 80/112/92 
s 114
f 80/112/92 30/44/93 78/109/90 
s 115
f 33/49/50 31/45/49 30/44/93 
s 116
f 30/44/93 80/112/92 33/49/50 
s 117
f 36/113/94 33/114/95 81/115/96 
s 118
f 81/115/96 82/116/94 36/113/94 
s 119
f 33/114/95 80/117/97 83/118/98 
s 120
f 83/118/98 81/115/96 33/114/95 
s 121
f 79/119/4 84/120/4 83/118/4 
s 122
f 83/118/4 80/117/4 79/119/4 
s 123
f 15/15/17 14/14/16 85/121/99 
s 124
f 85/121/99 86/122/100 15/15/17 
s 125
f 18/22/31 25/123/101 85/121/101 
s 126
f 85/121/101 14/14/28 18/22/31 
s 127
f 10/10/102 87/124/103 88/125/102 
s 128
f 88/125/102 7/17/102 10/10/102 
s 129
f 7/32/39 88/126/104 89/127/104 
s 130
f 89/127/104 26/33/40 7/32/39 
s 131
f 34/50/4 90/128/4 91/129/4 
s 132
f 91/129/4 35/130/4 34/50/4 
s 133
f 36/52/54 92/131/105 90/128/106 
s 134
f 90/128/106 34/50/55 36/52/54 
s 135
f 93/1/107 94/4/4 95/3/108 
s 136
f 95/3/108 96/2/109 93/1/107 
s 137
f 97/5/110 98/8/111 99/7/112 
s 138
f 99/7/112 100/6/113 97/5/110 
s 139
f 101/9/114 102/10/115 94/4/116 
s 140
f 94/4/116 93/1/117 101/9/114 
s 141
f 103/11/118 104/13/119 105/12/120 
s 142
f 105/12/120 95/3/108 103/11/118 
s 143
f 106/14/121 104/13/119 103/11/118 
s 144
f 103/11/118 107/15/122 106/14/121 
s 145
f 108/16/123 101/9/124 93/1/107 
s 146
f 93/1/107 96/2/109 108/16/123 
s 147
f 101/9/125 100/18/126 99/17/127 
s 148
f 99/17/127 102/10/128 101/9/125 
s 149
f 104/13/129 109/20/130 98/19/131 
s 150
f 98/19/131 105/12/132 104/13/129 
s 151
f 106/14/133 110/22/134 109/21/135 
s 152
f 109/21/135 104/13/136 106/14/133 
s 153
f 108/16/137 97/5/110 100/6/113 
s 154
f 100/6/113 101/9/138 108/16/137 
s 155
f 111/23/34 112/26/34 113/25/34 
s 156
f 113/25/34 114/24/34 111/23/34 
s 157
f 110/27/139 115/29/140 109/28/141 
s 158
f 99/32/142 98/34/143 116/33/144 
s 159
f 114/35/145 113/38/145 115/37/145 
s 160
f 115/37/145 116/36/145 114/35/145 
s 161
f 117/132/146 77/133/147 118/134/148 
s 162
f 117/135/149 119/136/149 78/109/149 
s 163
f 78/109/149 77/137/149 117/135/149 
s 164
f 117/138/4 118/139/150 120/140/151 
s 165
f 120/140/151 119/136/4 117/138/4 
s 166
f 119/136/152 120/140/153 121/141/154 
s 167
f 77/133/147 29/41/45 28/40/44 
s 168
f 28/40/44 118/134/148 77/133/147 
s 169
f 90/128/155 120/140/151 118/139/150 
s 170
f 118/139/150 91/142/156 90/128/155 
s 171
f 92/131/105 121/141/154 120/140/153 
s 172
f 120/140/153 90/128/106 92/131/105 
s 173
f 122/53/157 123/56/158 124/55/159 
s 174
f 124/55/159 125/54/160 122/53/157 
s 175
f 126/57/161 127/58/162 123/56/158 
s 176
f 123/56/158 122/53/157 126/57/161 
s 177
f 128/59/163 125/54/160 124/55/159 
s 178
f 124/55/159 129/60/164 128/59/163 
s 179
f 123/56/158 130/62/165 131/61/166 
s 180
f 131/61/166 124/55/159 123/56/158 
s 181
f 123/56/158 127/58/162 132/63/167 
s 182
f 132/63/167 130/62/165 123/56/158 
s 183
f 126/57/161 133/64/168 132/63/167 
s 184
f 132/63/167 127/58/162 126/57/161 
s 185
f 126/57/161 122/53/157 134/65/169 
s 186
f 134/65/169 133/64/168 126/57/161 
s 187
f 122/53/157 125/54/160 135/66/170 
s 188
f 135/66/170 134/65/169 122/53/157 
s 189
f 136/143/171 135/66/170 125/54/160 
s 190
f 125/54/160 128/59/163 136/143/171 
s 191
f 131/61/166 137/68/172 129/60/164 
s 192
f 129/60/164 124/55/159 131/61/166 
s 193
f 128/59/163 129/60/164 137/68/172 
s 194
f 137/68/172 136/143/171 128/59/163 
s 195
f 138/69/173 139/72/173 140/144/173 
s 196
f 140/144/173 141/70/173 138/69/173 
s 197
f 142/73/174 143/76/175 144/75/175 
s 198
f 144/75/175 145/74/174 142/73/174 
s 199
f 139/77/34 138/78/34 145/74/34 
s 200
f 145/74/34 144/75/34 139/77/34 
s 201
f 146/79/176 147/82/176 148/81/176 
s 202
f 148/81/176 149/80/176 146/79/176 
s 203
f 141/70/4 140/144/4 143/76/4 
s 204
f 143/76/4 142/73/4 141/70/4 
s 205
f 150/83/177 151/86/177 152/85/177 
s 206
f 152/85/177 153/84/177 150/83/177 
s 207
f 147/82/178 146/79/178 154/88/179 
s 208
f 154/88/179 155/87/179 147/82/178 
s 209
f 151/86/180 150/83/180 156/90/181 
s 210
f 156/90/181 157/89/181 151/86/180 
s 211
f 149/91/34 158/92/34 154/88/34 
s 212
f 154/88/34 146/79/34 149/91/34 
s 213
f 151/86/34 157/89/34 159/94/34 
s 214
f 159/94/34 152/93/34 151/86/34 
s 215
f 153/95/4 160/96/4 156/90/4 
s 216
f 156/90/4 150/83/4 153/95/4 
s 217
f 155/87/4 161/98/4 148/97/4 
s 218
f 148/97/4 147/82/4 155/87/4 
s 219
f 139/72/182 158/99/182 161/98/182 
s 220
f 161/98/182 140/144/182 139/72/182 
s 221
f 141/70/183 160/96/183 159/100/183 
s 222
f 159/100/183 138/69/183 141/70/183 
s 223
f 143/76/175 155/87/179 154/88/179 
s 224
f 154/88/179 144/75/175 143/76/175 
s 225
f 145/74/174 157/89/181 156/90/181 
s 226
f 156/90/181 142/73/174 145/74/174 
s 227
f 158/92/34 139/77/34 144/75/34 
s 228
f 144/75/34 154/88/34 158/92/34 
s 229
f 157/89/34 145/74/34 138/78/34 
s 230
f 138/78/34 159/94/34 157/89/34 
s 231
f 160/96/4 141/70/4 142/73/4 
s 232
f 142/73/4 156/90/4 160/96/4 
s 233
f 155/87/4 143/76/4 140/144/4 
s 234
f 140/144/4 161/98/4 155/87/4 
s 235
f 111/101/184 98/103/184 109/28/141 
s 236
f 109/28/141 112/102/185 111/101/184 
s 237
f 112/102/186 109/28/141 115/29/140 
s 238
f 115/29/140 113/104/187 112/102/185 
s 239
f 114/105/188 116/33/144 98/34/143 
s 240
f 98/34/143 111/106/189 114/105/188 
s 241
f 96/2/109 95/3/108 105/12/120 
s 242
f 105/12/120 108/16/123 96/2/109 
s 243
f 105/12/132 98/19/131 97/107/190 
s 244
f 97/107/190 108/16/191 105/12/132 
s 245
f 103/11/118 95/3/108 94/4/4 
s 246
f 94/4/4 107/15/122 103/11/118 
s 247
f 121/141/154 79/111/91 78/109/90 
s 248
f 78/109/90 119/136/152 121/141/154 
s 249
f 92/145/192 162/146/192 163/147/193 
s 250
f 163/147/193 121/148/194 92/145/192 
s 251
f 121/148/194 163/147/193 84/120/195 
s 252
f 84/120/195 79/119/196 121/148/194 
s 253
f 10/10/12 4/4/11 164/149/197 
s 254
f 164/149/197 87/124/103 10/10/12 
s 255
f 26/36/34 89/150/34 24/151/34 
s 256
f 24/151/34 23/37/34 26/36/34 
s 257
f 83/152/198 84/153/198 163/154/199 
s 258
f 163/154/199 81/155/199 83/152/198 
s 259
f 162/146/34 92/145/34 36/113/34 
s 260
f 36/113/34 82/116/34 162/146/34 
s 261
f 162/156/200 82/157/200 81/155/199 
s 262
f 81/155/199 163/154/199 162/156/200 
s 263
f 35/158/201 91/159/201 118/134/148 
s 264
f 118/134/148 28/40/44 35/158/201 
s 265
f 165/160/202 166/161/202 167/162/202 
s 266
f 167/162/202 168/163/202 165/160/202 
s 267
f 169/164/202 170/165/203 171/166/202 
s 268
f 171/166/202 172/167/202 169/164/202 
s 269
f 173/168/202 174/169/202 175/170/202 
s 270
f 175/170/202 176/171/202 173/168/202 
s 271
f 171/166/202 174/169/202 173/168/202 
s 272
f 173/168/202 172/167/202 171/166/202 
s 273
f 170/165/203 169/164/202 177/172/202 
s 274
f 177/172/202 178/173/204 170/165/203 
s 275
f 166/161/202 165/160/202 179/174/202 
s 276
f 179/174/202 180/175/202 166/161/202 
s 277
f 168/163/202 167/162/202 181/176/202 
s 278
f 182/161/205 183/160/205 184/163/205 
s 279
f 184/163/205 185/162/205 182/161/205 
s 280
f 186/177/205 187/173/206 188/172/205 
s 281
f 188/172/205 189/178/205 186/177/205 
s 282
f 190/179/205 191/180/205 192/181/205 
s 283
f 192/181/205 193/182/205 190/179/205 
s 284
f 186/177/205 189/178/205 191/180/205 
s 285
f 191/180/205 190/179/205 186/177/205 
s 286
f 188/172/205 187/173/206 194/165/206 
s 287
f 194/165/206 195/164/205 188/172/205 
s 288
f 183/160/205 182/161/205 196/175/205 
s 289
f 196/175/205 197/174/205 183/160/205 
s 290
f 184/163/205 198/176/205 185/162/205 
s 291
f 182/183/207 185/184/208 167/162/208 
s 292
f 167/162/208 166/161/207 182/183/207 
s 293
f 184/185/209 183/186/210 165/160/210 
s 294
f 165/160/210 168/163/209 184/185/209 
s 295
f 169/187/211 172/188/212 189/189/212 
s 296
f 189/189/212 188/190/211 169/187/211 
s 297
f 187/191/213 186/192/214 171/193/214 
s 298
f 171/193/214 170/194/215 187/191/213 
s 299
f 193/195/216 192/196/216 176/171/216 
s 300
f 176/171/216 175/170/216 193/195/216 
s 301
f 190/197/217 193/198/4 175/199/4 
s 302
f 175/199/4 174/200/217 190/197/217 
s 303
f 192/201/34 191/202/218 173/203/218 
s 304
f 173/203/218 176/204/34 192/201/34 
s 305
f 171/193/214 186/192/214 190/197/217 
s 306
f 190/197/217 174/200/217 171/193/214 
s 307
f 173/203/218 191/202/218 189/189/212 
s 308
f 189/189/212 172/188/212 173/203/218 
s 309
f 169/187/34 188/190/34 195/205/34 
s 310
f 195/205/34 177/206/34 169/187/34 
s 311
f 199/207/4 200/208/4 201/209/4 
s 312
f 201/209/4 202/210/4 199/207/4 
s 313
f 197/211/216 196/212/216 180/175/216 
s 314
f 180/175/216 179/174/216 197/211/216 
s 315
f 183/186/210 197/213/4 179/174/4 
s 316
f 179/174/4 165/160/210 183/186/210 
s 317
f 196/214/34 182/183/207 166/161/207 
s 318
f 166/161/207 180/175/34 196/214/34 
s 319
f 198/215/211 184/185/209 168/163/209 
s 320
f 168/163/209 181/176/211 198/215/211 
s 321
f 201/216/219 200/217/219 203/218/220 
s 322
f 203/218/220 204/219/220 201/216/219 
s 323
f 205/220/221 187/191/213 170/194/215 
s 324
f 170/194/215 206/221/222 205/220/221 
s 325
f 205/222/223 207/223/223 194/165/206 
s 326
f 194/165/206 187/173/206 205/222/223 
s 327
f 206/223/224 170/165/203 178/173/204 
s 328
f 178/173/204 208/222/224 206/223/224 
s 329
f 204/219/220 203/218/220 205/220/221 
s 330
f 205/220/221 206/221/222 204/219/220 
s 331
f 207/223/223 205/222/223 203/224/205 
s 332
f 203/224/205 209/225/205 207/223/223 
s 333
f 210/160/202 211/163/202 212/162/202 
s 334
f 212/162/202 213/161/202 210/160/202 
s 335
f 214/177/202 178/173/204 177/172/202 
s 336
f 177/172/202 215/178/202 214/177/202 
s 337
f 216/180/202 217/181/202 218/182/202 
s 338
f 218/182/202 219/179/202 216/180/202 
s 339
f 214/177/202 215/178/202 216/180/202 
s 340
f 216/180/202 219/179/202 214/177/202 
s 341
f 213/161/202 220/175/202 221/174/202 
s 342
f 221/174/202 210/160/202 213/161/202 
s 343
f 211/163/202 222/176/202 212/162/202 
s 344
f 223/161/205 224/162/205 225/163/205 
s 345
f 225/163/205 226/160/205 223/161/205 
s 346
f 195/164/205 194/165/206 227/166/205 
s 347
f 227/166/205 228/167/205 195/164/205 
s 348
f 229/169/205 230/170/205 231/171/205 
s 349
f 231/171/205 232/168/205 229/169/205 
s 350
f 227/166/205 229/169/205 232/168/205 
s 351
f 232/168/205 228/167/205 227/166/205 
s 352
f 226/160/205 233/174/205 234/175/205 
s 353
f 234/175/205 223/161/205 226/160/205 
s 354
f 225/163/205 224/162/205 235/176/205 
s 355
f 223/183/225 213/161/225 212/162/226 
s 356
f 212/162/226 224/184/226 223/183/225 
s 357
f 225/185/227 211/163/227 210/160/228 
s 358
f 210/160/228 226/186/229 225/185/227 
s 359
f 177/206/216 195/205/216 228/226/230 
s 360
f 228/226/230 215/227/230 177/206/216 
s 361
f 194/228/231 178/229/232 214/230/233 
s 362
f 214/230/233 227/231/233 194/228/231 
s 363
f 230/232/211 218/182/211 217/181/211 
s 364
f 217/181/211 231/233/211 230/232/211 
s 365
f 229/234/234 219/235/234 218/236/4 
s 366
f 218/236/4 230/237/4 229/234/234 
s 367
f 231/238/34 217/239/34 216/240/235 
s 368
f 216/240/235 232/241/235 231/238/34 
s 369
f 214/230/233 219/235/234 229/234/234 
s 370
f 229/234/234 227/231/233 214/230/233 
s 371
f 216/240/235 215/227/230 228/226/230 
s 372
f 228/226/230 232/241/235 216/240/235 
s 373
f 233/211/211 221/174/211 220/175/211 
s 374
f 220/175/211 234/212/211 233/211/211 
s 375
f 226/186/229 210/160/228 221/174/4 
s 376
f 221/174/4 233/213/4 226/186/229 
s 377
f 234/214/34 220/175/34 213/161/225 
s 378
f 213/161/225 223/183/225 234/214/34 
s 379
f 235/215/216 222/176/216 211/163/227 
s 380
f 211/163/227 225/185/227 235/215/216 
s 381
f 202/242/236 236/243/237 209/244/237 
s 382
f 209/244/237 199/245/236 202/242/236 
s 383
f 207/246/238 208/247/239 178/229/232 
s 384
f 178/229/232 194/228/231 207/246/238 
s 385
f 236/243/237 208/247/239 207/246/238 
s 386
f 207/246/238 209/244/237 236/243/237 
s 387
f 236/224/202 204/225/202 206/223/224 
s 388
f 206/223/224 208/222/224 236/224/202 
s 389
f 237/248/240 238/249/241 239/250/242 
s 390
f 239/250/242 240/251/243 237/248/240 
s 391
f 241/252/244 242/253/245 243/254/246 
s 392
f 243/254/246 244/255/247 241/252/244 
s 393
f 241/252/244 237/248/240 240/251/243 
s 394
f 240/251/243 242/253/245 241/252/244 
s 395
f 238/249/241 245/256/248 246/257/249 
s 396
f 246/257/249 239/250/242 238/249/241 
s 397
f 239/250/242 246/257/249 247/258/250 
s 398
f 247/258/250 240/251/243 239/250/242 
s 399
f 237/248/240 248/259/251 245/256/248 
s 400
f 245/256/248 238/249/241 237/248/240 
s 401
f 244/255/247 243/254/246 249/260/252 
s 402
f 249/260/252 250/261/253 244/255/247 
s 403
f 241/252/244 244/255/247 250/261/253 
s 404
f 250/261/253 251/262/254 241/252/244 
s 405
f 242/253/245 252/263/255 249/260/252 
s 406
f 249/260/252 243/254/246 242/253/245 
s 407
f 251/262/254 248/259/251 237/248/240 
s 408
f 237/248/240 241/252/244 251/262/254 
s 409
f 247/258/250 252/263/255 242/253/245 
s 410
f 242/253/245 240/251/243 247/258/250 
s 411
f 253/264/256 254/265/256 255/266/256 
s 412
f 255/266/256 256/267/256 253/264/256 
s 413
f 257/268/257 258/269/258 259/270/258 
s 414
f 259/270/258 260/271/257 257/268/257 
s 415
f 257/268/34 256/272/34 255/273/34 
s 416
f 255/273/34 258/269/34 257/268/34 
s 417
f 261/274/259 262/275/259 263/276/259 
s 418
f 263/276/259 264/277/259 261/274/259 
s 419
f 260/271/4 259/270/4 254/265/4 
s 420
f 254/265/4 253/264/4 260/271/4 
s 421
f 265/278/260 266/279/260 267/280/260 
s 422
f 267/280/260 268/281/260 265/278/260 
s 423
f 269/282/261 270/283/261 262/275/262 
s 424
f 262/275/262 261/274/262 269/282/261 
s 425
f 271/284/263 266/279/264 265/278/264 
s 426
f 265/278/264 272/285/263 271/284/263 
s 427
f 270/283/34 273/286/34 263/287/34 
s 428
f 263/287/34 262/275/34 270/283/34 
s 429
f 274/288/34 272/285/34 265/278/34 
s 430
f 265/278/34 268/289/34 274/288/34 
s 431
f 275/290/4 267/291/4 266/279/4 
s 432
f 266/279/4 271/284/4 275/290/4 
s 433
f 269/282/4 261/274/4 264/292/4 
s 434
f 264/292/4 276/293/4 269/282/4 
s 435
f 255/266/265 254/265/265 276/293/265 
s 436
f 276/293/265 273/294/265 255/266/265 
s 437
f 253/264/266 256/267/266 274/295/266 
s 438
f 274/295/266 275/290/266 253/264/266 
s 439
f 259/270/258 258/269/258 270/283/261 
s 440
f 270/283/261 269/282/261 259/270/258 
s 441
f 257/268/257 260/271/257 271/284/263 
s 442
f 271/284/263 272/285/263 257/268/257 
s 443
f 258/269/34 255/273/34 273/286/34 
s 444
f 273/286/34 270/283/34 258/269/34 
s 445
f 272/285/34 274/288/34 256/272/34 
s 446
f 256/272/34 257/268/34 272/285/34 
s 447
f 275/290/4 271/284/4 260/271/4 
s 448
f 260/271/4 253/264/4 275/290/4 
s 449
f 259/270/4 269/282/4 276/293/4 
s 450
f 276/293/4 254/265/4 259/270/4 
s 451
f 200/210/205 199/209/205 209/225/205 
s 452
f 209/225/205 203/224/205 200/210/205 
s 453
f 202/210/202 201/209/202 204/225/202 
s 454
f 204/225/202 236/224/202 202/210/202 
s 455
f 277/296/267 278/297/268 279/298/269 
s 456
f 279/298/269 280/299/270 277/296/267 
s 457
f 281/300/271 282/301/272 283/302/273 
s 458
f 283/302/273 284/303/274 281/300/271 
s 459
f 282/301/272 285/304/275 279/298/269 
s 460
f 279/298/269 283/302/273 282/301/272 
s 461
f 280/299/270 279/298/269 285/304/275 
s 462
f 285/304/275 286/305/276 280/299/270 
s 463
f 286/305/276 287/306/277 288/307/278 
s 464
f 288/307/278 280/299/270 286/305/276 
s 465
f 287/306/277 289/308/279 290/309/280 
s 466
f 290/309/280 288/307/278 287/306/277 
s 467
f 289/308/279 291/310/281 277/296/267 
s 468
f 277/296/267 290/309/280 289/308/279 
s 469
f 278/297/268 277/296/267 291/310/281 
s 470
f 291/310/281 292/311/282 278/297/268 
s 471
f 292/311/282 281/300/271 284/303/274 
s 472
f 284/303/274 278/297/268 292/311/282 
s 473
f 282/301/202 281/300/202 293/312/202 
s 474
f 293/312/202 294/313/202 282/301/202 
s 475
f 295/314/283 296/315/284 286/305/211 
s 476
f 286/305/211 285/304/211 295/314/283 
s 477
f 289/308/205 287/306/205 297/316/205 
s 478
f 297/316/205 298/317/205 289/308/205 
s 479
f 299/318/285 300/319/286 292/311/216 
s 480
f 292/311/216 291/310/216 299/318/285 
s 481
f 285/304/275 282/301/272 294/320/287 
s 482
f 294/320/287 295/314/283 285/304/275 
s 483
f 281/300/288 292/311/282 300/319/286 
s 484
f 300/319/286 293/321/288 281/300/271 
s 485
f 287/306/289 286/305/276 296/315/284 
s 486
f 296/315/284 297/322/289 287/306/277 
s 487
f 291/310/281 289/308/279 298/323/290 
s 488
f 298/323/290 299/318/285 291/310/281 
s 489
f 295/324/34 294/325/34 293/326/34 
s 490
f 293/326/34 300/327/34 295/324/34 
s 491
f 283/302/273 279/298/269 278/297/268 
s 492
f 278/297/268 284/303/274 283/302/273 
s 493
f 280/299/270 288/307/278 290/309/280 
s 494
f 290/309/280 277/296/267 280/299/270 
s 495
f 296/328/34 299/329/34 298/330/34 
s 496
f 298/330/34 297/331/34 296/328/34 
s 497
f 299/329/34 296/328/34 295/324/34 
s 498
f 295/324/34 300/327/34 299/329/34 
s 499
f 301/332/34 302/333/34 303/334/34 
s 500
f 304/335/205 305/336/291 306/337/291 
s 501
f 306/337/291 303/338/205 304/335/205 
s 502
f 307/339/292 301/340/292 308/341/293 
s 503
f 308/341/293 309/342/293 307/339/292 
s 504
f 302/343/294 301/340/294 307/339/294 
s 505
f 307/339/294 310/344/294 302/343/294 
s 506
f 304/335/295 303/338/295 302/345/295 
s 507
f 302/345/295 310/346/295 304/335/295 
s 508
f 301/332/34 303/334/34 306/337/34 
s 509
f 306/337/34 308/341/34 301/332/34 
s 510
f 305/336/291 309/342/293 308/341/293 
s 511
f 308/341/293 306/337/291 305/336/291 
s 512
f 311/347/4 312/348/4 313/349/4 
s 513
f 313/349/4 314/350/4 311/347/4 
s 514
f 315/351/4 311/347/4 314/350/4 
s 515
f 314/350/4 316/352/4 315/351/4 
s 516
f 317/353/34 318/354/34 319/355/34 
s 517
f 319/355/34 320/356/34 317/353/34 
s 518
f 318/354/34 317/353/34 321/357/34 
s 519
f 321/357/34 322/358/34 318/354/34 
s 520
f 323/359/211 316/360/296 322/361/296 
s 521
f 322/361/296 324/362/211 323/359/211 
s 522
f 319/363/216 313/349/216 312/348/216 
s 523
f 312/348/216 320/364/216 319/363/216 
s 524
f 317/365/297 320/366/205 312/367/205 
s 525
f 312/367/205 311/368/297 317/365/297 
s 526
f 318/369/298 314/370/298 313/371/202 
s 527
f 313/371/202 319/372/202 318/369/298 
s 528
f 321/373/299 317/365/297 311/368/297 
s 529
f 311/368/297 315/374/299 321/373/299 
s 530
f 314/370/298 318/369/298 322/361/296 
s 531
f 322/361/296 316/360/296 314/370/298 
s 532
f 325/375/202 323/359/202 324/362/202 
s 533
f 324/362/202 326/376/202 325/375/202 
s 534
f 327/354/4 328/355/4 329/356/4 
s 535
f 329/356/4 330/353/4 327/354/4 
s 536
f 331/358/4 327/354/4 330/353/4 
s 537
f 330/353/4 332/357/4 331/358/4 
s 538
f 333/350/34 334/347/34 335/348/34 
s 539
f 335/348/34 336/349/34 333/350/34 
s 540
f 337/352/34 338/351/34 334/347/34 
s 541
f 334/347/34 333/350/34 337/352/34 
s 542
f 325/377/216 326/378/216 337/379/300 
s 543
f 337/379/300 331/380/300 325/377/216 
s 544
f 335/381/211 329/356/211 328/355/211 
s 545
f 328/355/211 336/382/211 335/381/211 
s 546
f 330/383/301 329/384/205 335/385/205 
s 547
f 335/385/205 334/386/301 330/383/301 
s 548
f 328/387/202 327/388/302 333/389/302 
s 549
f 333/389/302 336/390/202 328/387/202 
s 550
f 332/391/303 330/383/301 334/386/301 
s 551
f 334/386/301 338/392/303 332/391/303 
s 552
f 327/388/302 331/380/300 337/379/300 
s 553
f 337/379/300 333/389/302 327/388/302 
s 554
f 339/393/4 323/394/4 325/395/4 
s 555
f 325/395/4 340/396/4 339/393/4 
s 556
f 341/395/34 326/396/34 324/393/34 
s 557
f 324/393/34 342/394/34 341/395/34 
s 558
f 338/392/303 343/373/211 344/374/211 
s 559
f 344/374/211 332/391/303 338/392/303 
s 560
f 345/353/4 346/354/4 347/355/4 
s 561
f 347/355/4 348/356/4 345/353/4 
s 562
f 349/357/4 350/358/4 346/354/4 
s 563
f 346/354/4 345/353/4 349/357/4 
s 564
f 351/347/34 352/348/34 353/349/34 
s 565
f 353/349/34 354/350/34 351/347/34 
s 566
f 354/350/34 355/352/34 356/351/34 
s 567
f 356/351/34 351/347/34 354/350/34 
s 568
f 339/377/211 342/378/211 355/379/304 
s 569
f 355/379/304 350/380/304 339/377/211 
s 570
f 353/382/216 352/381/216 348/356/216 
s 571
f 348/356/216 347/355/216 353/382/216 
s 572
f 351/386/305 345/383/305 348/384/202 
s 573
f 348/384/202 352/385/202 351/386/305 
s 574
f 354/389/306 353/390/205 347/387/205 
s 575
f 347/387/205 346/388/306 354/389/306 
s 576
f 356/392/307 349/391/308 345/383/305 
s 577
f 345/383/305 351/386/305 356/392/307 
s 578
f 346/388/306 350/380/304 355/379/304 
s 579
f 355/379/304 354/389/306 346/388/306 
s 580
f 340/397/205 341/398/205 342/378/205 
s 581
f 342/378/205 339/377/205 340/397/205 
s 582
f 357/350/4 358/347/4 359/348/4 
s 583
f 359/348/4 360/349/4 357/350/4 
s 584
f 361/352/4 344/351/4 358/347/4 
s 585
f 358/347/4 357/350/4 361/352/4 
s 586
f 362/354/34 363/355/34 364/356/34 
s 587
f 364/356/34 365/353/34 362/354/34 
s 588
f 366/358/34 362/354/34 365/353/34 
s 589
f 365/353/34 343/357/34 366/358/34 
s 590
f 340/359/216 361/360/309 366/361/309 
s 591
f 366/361/309 341/362/216 340/359/216 
s 592
f 364/364/211 363/363/211 360/349/211 
s 593
f 360/349/211 359/348/211 364/364/211 
s 594
f 358/368/310 365/365/310 364/366/202 
s 595
f 364/366/202 359/367/202 358/368/310 
s 596
f 360/371/205 363/372/205 362/369/311 
s 597
f 362/369/311 357/370/311 360/371/205 
s 598
f 344/374/312 343/373/312 365/365/310 
s 599
f 365/365/310 358/368/310 344/374/312 
s 600
f 357/370/311 362/369/311 366/361/309 
s 601
f 366/361/309 361/360/309 357/370/311 
s 602
f 315/374/216 349/391/308 356/392/307 
s 603
f 356/392/307 321/373/216 315/374/216 
s 604
f 321/357/34 324/393/34 322/358/34 
s 605
f 338/351/34 326/394/34 341/393/34 
s 606
f 341/393/34 343/357/34 338/351/34 
s 607
f 349/357/4 339/393/4 350/358/4 
s 608
f 332/357/4 325/393/4 331/358/4 
s 609
f 325/393/4 332/357/4 344/351/4 
s 610
f 344/351/4 340/394/4 325/393/4 
s 611
f 340/394/4 344/351/4 361/352/4 
s 612
f 323/394/4 339/393/4 349/357/4 
s 613
f 349/357/4 315/351/4 323/394/4 
s 614
f 323/394/4 315/351/4 316/352/4 
s 615
f 324/393/34 321/357/34 356/351/34 
s 616
f 356/351/34 342/394/34 324/393/34 
s 617
f 326/394/34 338/351/34 337/352/34 
s 618
f 343/357/34 341/393/34 366/358/34 
s 619
f 342/394/34 356/351/34 355/352/34 
s 620
f 367/334/34 368/332/34 369/333/34 
s 621
f 370/399/202 368/340/202 371/341/313 
s 622
f 371/341/313 372/400/313 370/399/202 
s 623
f 373/335/314 374/336/315 375/337/315 
s 624
f 375/337/315 367/338/314 373/335/314 
s 625
f 369/345/316 376/346/316 373/335/316 
s 626
f 373/335/316 367/338/316 369/345/316 
s 627
f 370/399/317 376/344/317 369/343/317 
s 628
f 369/343/317 368/340/317 370/399/317 
s 629
f 367/334/34 375/337/34 371/341/34 
s 630
f 371/341/34 368/332/34 367/334/34 
s 631
f 372/400/313 371/341/313 375/337/315 
s 632
f 375/337/315 374/336/315 372/400/313 
s 633
f 377/332/34 378/333/34 379/334/34 
s 634
f 380/335/202 381/336/318 382/337/318 
s 635
f 382/337/318 379/338/202 380/335/202 
s 636
f 383/339/319 377/340/319 384/341/320 
s 637
f 384/341/320 385/342/320 383/339/319 
s 638
f 378/343/321 377/340/321 383/339/321 
s 639
f 383/339/321 386/344/321 378/343/321 
s 640
f 380/335/322 379/338/322 378/345/322 
s 641
f 378/345/322 386/346/322 380/335/322 
s 642
f 377/332/34 379/334/34 382/337/34 
s 643
f 382/337/34 384/341/34 377/332/34 
s 644
f 381/336/318 385/342/320 384/341/320 
s 645
f 384/341/320 382/337/318 381/336/318 
s 646
f 387/334/34 388/332/34 389/333/34 
s 647
f 390/399/205 388/340/205 391/341/323 
s 648
f 391/341/323 392/400/323 390/399/205 
s 649
f 393/335/324 394/401/325 395/337/325 
s 650
f 395/337/325 387/338/324 393/335/324 
s 651
f 389/345/326 396/346/326 393/335/326 
s 652
f 393/335/326 387/338/326 389/345/326 
s 653
f 390/399/327 396/344/327 389/343/327 
s 654
f 389/343/327 388/340/327 390/399/327 
s 655
f 387/334/34 395/337/34 391/341/34 
s 656
f 391/341/34 388/332/34 387/334/34 
s 657
f 392/400/323 391/341/323 395/337/325 
s 658
f 395/337/325 394/401/325 392/400/323 
s 659
f 397/402/202 398/403/202 399/404/202 
s 660
f 399/404/202 400/405/202 397/402/202 
s 661
f 401/406/328 402/407/328 398/403/328 
s 662
f 398/403/328 397/402/328 401/406/328 
s 663
f 402/408/329 403/409/329 399/404/329 
s 664
f 399/404/329 398/403/329 402/408/329 
s 665
f 403/410/330 404/411/330 400/405/331 
s 666
f 400/405/331 399/404/330 403/410/330 
s 667
f 404/412/332 401/413/332 397/402/332 
s 668
f 397/402/332 400/405/332 404/412/332 
s 669
f 405/402/202 406/403/202 407/404/202 
s 670
f 407/404/202 408/405/202 405/402/202 
s 671
f 409/406/333 410/407/333 406/403/334 
s 672
f 406/403/334 405/402/333 409/406/333 
s 673
f 410/408/329 411/409/329 407/404/329 
s 674
f 407/404/329 406/403/329 410/408/329 
s 675
f 411/410/330 412/411/330 408/405/331 
s 676
f 408/405/331 407/404/330 411/410/330 
s 677
f 412/412/332 409/413/332 405/402/332 
s 678
f 405/402/332 408/405/332 412/412/332 
s 679
f 413/402/202 414/403/202 415/404/202 
s 680
f 415/404/202 416/405/202 413/402/202 
s 681
f 417/406/333 418/407/333 414/403/334 
s 682
f 414/403/334 413/402/333 417/406/333 
s 683
f 418/408/329 419/409/329 415/404/329 
s 684
f 415/404/329 414/403/329 418/408/329 
s 685
f 419/410/330 420/411/330 416/405/331 
s 686
f 416/405/331 415/404/330 419/410/330 
s 687
f 420/412/332 417/413/332 413/402/332 
s 688
f 413/402/332 416/405/332 420/412/332 
s 689
f 421/402/202 422/403/202 423/404/202 
s 690
f 423/404/202 424/405/202 421/402/202 
s 691
f 425/406/328 426/407/328 422/403/328 
s 692
f 422/403/328 421/402/328 425/406/328 
s 693
f 426/408/329 427/409/329 423/404/329 
s 694
f 423/404/329 422/403/329 426/408/329 
s 695
f 427/410/330 428/411/330 424/405/331 
s 696
f 424/405/331 423/404/330 427/410/330 
s 697
f 428/412/332 425/413/332 421/402/332 
s 698
f 421/402/332 424/405/332 428/412/332 
s 699
f 115/29/140 110/27/139 25/31/38 
s 700
f 25/31/38 24/30/38 115/29/140 
s 701
f 85/121/99 106/14/121 107/15/122 
s 702
f 107/15/122 86/122/100 85/121/99 
s 703
f 110/22/134 106/14/133 85/121/101 
s 704
f 85/121/101 25/123/101 110/22/134 
s 705
f 102/10/102 99/17/102 88/125/102 
s 706
f 88/125/102 87/124/103 102/10/102 
s 707
f 99/32/142 116/33/144 89/127/104 
s 708
f 89/127/104 88/126/104 99/32/142 
s 709
f 107/15/122 94/4/4 164/149/4 
s 710
f 164/149/4 86/122/100 107/15/122 
s 711
f 164/149/197 94/4/116 102/10/115 
s 712
f 102/10/115 87/124/103 164/149/197 
s 713
f 116/36/34 115/37/34 24/151/34 
s 714
f 24/151/34 89/150/34 116/36/34 
s 715
f 4/4/4 3/3/3 11/11/13 
s 716
f 11/11/13 15/15/17 4/4/4 
s 717
f 86/122/100 164/149/4 4/4/4 
s 718
f 4/4/4 15/15/17 86/122/100 
# 0 polygons - 718 triangles