# Blender v3.2.0 OBJ File: 'stalker rips.blend'
# www.blender.org
mtllib fact_side_1_col.mtl
o fact_side_1_col_Plane.038
v -10.496180 0.000000 5.038352
v 12.877199 0.000000 5.038352
v -10.496180 0.000000 -4.288772
v 12.877199 0.000000 -4.288772
v -10.206219 0.107827 -3.998811
v -10.206219 0.107827 4.748392
v 12.587238 0.107827 4.748392
v 12.587238 0.107827 -3.998811
v -10.496180 0.107827 -4.288772
v -10.496180 0.107827 5.038352
v 12.877199 0.107827 5.038352
v 12.877199 0.107827 -4.288772
v -10.496180 4.951681 -4.288772
v -10.496180 4.951681 5.038352
v 12.877199 4.951681 5.038352
v 12.877199 4.951681 -4.288772
v -10.206219 4.951681 -3.998811
v -10.206219 4.951681 4.748392
v 12.587238 4.951681 4.748392
v 12.587238 4.951681 -3.998811
v -1.417874 1.253010 -3.998811
v -0.008288 1.253010 -3.998811
v -1.417874 4.188129 -3.998811
v -0.008288 4.188129 -3.998811
v -1.417874 1.253010 -4.288772
v -0.008288 1.253010 -4.288772
v -1.417874 4.188129 -4.288772
v -0.008288 4.188129 -4.288772
v 12.877199 0.114195 5.038352
v 12.877199 0.000000 -0.847222
v 12.877199 0.000000 1.729323
v 12.877199 0.114195 -4.288772
v -10.496180 0.114195 -4.288772
v 12.587238 0.000000 -0.847222
v 12.587238 0.000000 1.729323
v 12.877199 0.107827 -0.847222
v 12.877199 0.107827 1.729323
v 12.877199 2.906226 -0.847222
v 12.877199 2.906226 1.729323
v 12.587238 2.906226 1.729323
v 12.587238 2.906226 -0.847222
v -10.496180 0.114195 5.038352
v -10.496180 0.000000 1.729323
v -10.496180 0.000000 -0.847222
v -10.206219 0.000000 1.729323
v -10.206219 0.000000 -0.847222
v -10.496180 0.107827 1.729323
v -10.496180 0.107827 -0.847222
v -10.496180 2.906226 1.729323
v -10.496180 2.906226 -0.847222
v -10.206219 2.906226 -0.847222
v -10.206219 2.906226 1.729323
v 12.071932 0.114195 0.441050
v 12.877199 0.114195 -0.847222
v 12.877199 0.114195 1.729323
v -10.496180 0.114195 1.729323
v -10.496180 0.114195 -0.847222
v -9.643790 0.114195 0.441050
v -10.930470 4.951681 -4.805905
v -10.930470 4.951681 5.555485
v 13.311489 4.951681 5.555485
v 13.311489 4.951681 -4.805905
v -10.930470 5.289975 -4.805905
v -10.930470 5.289975 5.555485
v 13.311489 5.289975 5.555485
v 13.311489 5.289975 -4.805905
v -10.629856 0.036081 -3.452988
v -13.965918 0.036079 -3.452980
v -10.629854 0.036079 2.280289
v -13.965918 0.036077 2.280296
v -10.629854 0.280031 2.280289
v -13.965918 0.072063 2.280296
v -10.629856 0.280032 -3.452988
v -13.965918 0.072065 -3.452980
v 12.205207 0.036081 -3.452980
v 15.541267 0.036079 -3.452980
v 12.205206 0.036079 2.280296
v 15.541269 0.036077 2.280296
v 12.205206 0.280031 2.280296
v 15.541269 0.072063 2.280296
v 12.205207 0.280032 -3.452980
v 15.541267 0.072065 -3.452980
vt -4.748089 -2.019176
vt -4.748086 -2.019179
vt -4.748089 -0.364662
vt -4.748089 -0.364661
vt 6.938600 -2.019176
vt -4.748089 -2.019176
vt -4.748089 -2.019176
vt 6.938599 -2.019176
vt 6.938601 2.644386
vt -4.748090 2.644386
vt -4.748090 2.644386
vt 6.938601 2.644386
vt 6.938600 -2.019176
vt 6.938601 0.923611
vt 6.938601 0.923611
vt 6.938600 -0.364661
vt 6.938600 -0.364661
vt -4.748089 -0.364661
vt -4.748090 0.923611
vt -4.748090 0.923611
vt 6.793619 -1.874196
vt -4.603109 -1.874196
vt -4.603109 -1.874196
vt 6.793619 -1.874196
vt -4.748092 2.644386
vt 6.938600 2.644386
vt 0.495855 2.644386
vt -0.208938 2.644386
vt 6.938600 -0.364661
vt -0.208936 2.499406
vt -4.603109 2.499406
vt -4.603109 2.499406
vt -0.208936 2.499406
vt 6.793619 -0.364661
vt 6.793620 -0.364661
vt 6.938600 -2.019176
vt 6.793620 2.499406
vt -0.208937 2.644386
vt 0.156933 -2.019176
vt 0.156933 -2.019176
vt -0.005449 -2.019176
vt 0.018010 -2.019176
vt 0.018010 -2.019176
vt 0.180392 -2.019176
vt 6.535967 0.923612
vt 6.938601 0.923611
vt 0.495368 -2.019178
vt -0.294016 -2.019178
vt -0.294016 -2.019178
vt 0.495368 -2.019178
vt 2.881560 -2.019179
vt 2.881560 -2.019178
vt 2.881554 -2.019176
vt 2.881555 -2.019176
vt -0.294027 -2.019176
vt -0.294027 -2.019176
vt 0.495359 -2.019176
vt 0.495359 -2.019176
vt 0.156933 -2.019176
vt 0.156933 -2.019176
vt -0.005449 -2.019176
vt 0.156943 -2.019178
vt -0.005439 -2.019178
vt -0.005439 -2.019178
vt 0.156943 -2.019178
vt -4.748090 0.923611
vt -4.748090 2.644386
vt -4.321895 0.923611
vt 0.018010 -2.019176
vt 0.018011 -2.019176
vt 0.180392 -2.019176
vt 0.018020 -2.019178
vt 0.180402 -2.019178
vt 0.180402 -2.019178
vt 0.018020 -2.019178
vt 6.938601 2.644386
vt -4.748089 -0.364661
vt -4.603109 -0.364661
vt -4.603109 -0.364661
vt 0.495856 2.499406
vt 6.938601 -0.364662
vt -4.748090 0.923611
vt 6.793620 2.499406
vt 0.495856 2.499406
vt 6.938604 0.923611
vt 0.495856 2.644386
vt 6.793620 0.923612
vt 6.793619 0.923612
vt -4.603109 0.923611
vt -4.603109 0.923611
vt -4.321895 -0.364661
vt 6.535966 -0.364661
vt 0.000000 0.000000
vt 0.000000 0.000000
vt 0.000000 0.000000
vt 0.000000 0.000000
vt 0.000000 0.000000
vt 0.000000 0.000000
vt 0.000000 0.000000
vt 0.000000 0.000000
vt 0.807207 0.942114
vt 0.782630 0.942114
vt 0.781789 0.957481
vt 0.808215 0.957481
vt 0.807207 0.942114
vt 0.808215 0.957481
vt 0.781789 0.957481
vt 0.782630 0.942114
vt 0.808537 1.078035
vt 0.808451 1.062668
vt 0.782703 1.062669
vt 0.782786 1.078035
vt 0.808529 1.076580
vt 0.782779 1.076580
vt 0.782697 1.061331
vt 0.808444 1.061332
vt 0.781789 0.957481
vt 0.808215 0.957481
vt 0.808215 0.957481
vt 0.781789 0.957481
vt 0.815117 1.062669
vt 0.816125 1.078036
vt 0.816125 1.078036
vt 0.815116 1.062667
vt 0.807207 0.942114
vt 0.782630 0.942114
vt 0.782630 0.942114
vt 0.807207 0.942114
vt 0.775198 1.078035
vt 0.776038 1.062668
vt 0.776038 1.062668
vt 0.775198 1.078035
vn -1.0000 0.0000 0.0000
vn 0.0000 0.0000 -1.0000
vn 0.0000 0.0000 1.0000
vn 1.0000 0.0000 0.0000
vn 0.0000 1.0000 0.0000
vn 0.0000 -1.0000 0.0000
vn -0.5773 -0.5774 0.5774
vn -0.5774 -0.5774 -0.5773
vn 0.5773 -0.5773 -0.5774
vn 0.5774 -0.5774 0.5773
vn -0.5933 0.5575 0.5807
vn 0.5606 0.5967 0.5741
vn 0.5606 0.5967 -0.5741
vn -0.5933 0.5575 -0.5807
vn 0.5774 -0.5774 0.5774
vn -0.5774 -0.5774 0.5774
vn -0.5774 -0.5773 -0.5774
vn 0.5774 -0.5774 -0.5774
vn 0.5933 0.5575 0.5807
vn 0.5933 0.5575 -0.5807
vn -0.5606 0.5967 -0.5741
vn -0.5606 0.5967 0.5741
usemtl None
s off
f 10/1/1 14/2/1 49/3/1 47/4/1
f 2/5/2 1/6/2 42/7/2 29/8/2
f 4/9/2 3/10/2 9/11/2 12/12/2
f 1/6/3 2/5/3 11/13/3 10/1/3
f 30/14/4 4/9/4 12/12/4 36/15/4
f 11/13/4 2/5/4 31/16/4 37/17/4
f 1/6/1 10/1/1 47/4/1 43/18/1
f 48/19/1 9/11/1 3/10/1 44/20/1
f 7/21/2 6/22/2 18/23/2 19/24/2
f 13/25/2 16/26/2 28/27/2 27/28/2
f 31/16/1 2/5/1 29/8/1 55/29/1
f 23/30/3 17/31/3 5/32/3 21/33/3
f 7/21/1 19/24/1 40/34/1 35/35/1
f 18/23/5 17/31/5 13/25/5 14/2/5
f 19/24/5 18/23/5 14/2/5 15/36/5
f 20/37/5 19/24/5 15/36/5 16/26/5
f 17/31/5 20/37/5 16/26/5 13/25/5
f 25/38/2 9/11/2 13/25/2 27/28/2
f 30/39/3 36/40/3 34/41/3
f 10/1/3 11/13/3 15/36/3 14/2/3
f 48/42/3 44/43/3 46/44/3
f 55/29/6 53/45/6 54/46/6
f 24/47/6 23/48/6 27/49/6 28/50/6
f 24/51/1 28/52/1 26/53/1 22/54/1
f 27/49/4 23/48/4 21/55/4 25/56/4
f 25/56/5 21/55/5 22/57/5 26/58/5
f 37/59/2 31/60/2 35/61/2
f 39/62/6 40/63/6 41/64/6 38/65/6
f 57/66/6 33/67/6 58/68/6
f 43/69/2 47/70/2 45/71/2
f 50/72/6 51/73/6 52/74/6 49/75/6
f 3/10/3 4/9/3 32/76/3 33/67/3
f 44/20/4 3/10/4 33/67/4 57/66/4
f 43/18/4 44/20/4 57/66/4 56/77/4
f 4/9/1 30/14/1 54/46/1 32/76/1
f 6/22/4 45/78/4 52/79/4 18/23/4
f 1/6/4 43/18/4 56/77/4 42/7/4
f 17/31/3 23/30/3 24/80/3 20/37/3
f 11/13/4 37/17/4 39/81/4 15/36/4
f 30/14/1 31/16/1 55/29/1 54/46/1
f 9/11/1 48/19/1 50/82/1 13/25/1
f 50/82/1 49/3/1 14/2/1 13/25/1
f 5/32/3 8/83/3 22/84/3 21/33/3
f 22/84/3 8/83/3 20/37/3 24/80/3
f 12/12/4 16/26/4 38/85/4 36/15/4
f 38/85/4 16/26/4 15/36/4 39/81/4
f 9/11/2 25/38/2 26/86/2 12/12/2
f 26/86/2 28/27/2 16/26/2 12/12/2
f 8/83/1 34/87/1 41/88/1 20/37/1
f 41/88/1 40/34/1 19/24/1 20/37/1
f 5/32/4 17/31/4 51/89/4 46/90/4
f 17/31/4 18/23/4 52/79/4 51/89/4
f 38/65/3 41/64/3 34/41/3 36/40/3
f 35/61/2 40/63/2 39/62/2 37/59/2
f 50/72/3 48/42/3 46/44/3 51/73/3
f 52/74/2 45/71/2 47/70/2 49/75/2
f 29/8/6 42/7/6 58/91/6 53/92/6
f 32/76/6 54/46/6 53/45/6
f 53/92/6 55/29/6 29/8/6
f 56/77/6 57/66/6 58/68/6
f 42/7/6 56/77/6 58/91/6
f 32/76/6 53/45/6 58/68/6 33/67/6
f 62/93/6 61/94/6 60/95/6 59/96/6
f 66/97/5 63/98/5 64/99/5 65/100/5
f 59/96/1 60/95/1 64/99/1 63/98/1
f 62/93/2 59/96/2 63/98/2 66/97/2
f 60/95/3 61/94/3 65/100/3 64/99/3
f 61/94/4 62/93/4 66/97/4 65/100/4
s 1
f 70/101/7 68/102/8 67/103/9 69/104/10
f 72/105/11 71/106/12 73/107/13 74/108/14
f 67/103/9 73/107/13 71/106/12 69/104/10
f 69/104/10 71/106/12 72/105/11 70/101/7
f 70/101/7 72/105/11 74/108/14 68/102/8
f 68/102/8 74/108/14 73/107/13 67/103/9
f 78/109/15 77/110/16 75/111/17 76/112/18
f 80/113/19 82/114/20 81/115/21 79/116/22
f 75/117/17 77/118/16 79/119/22 81/120/21
f 77/121/16 78/122/15 80/123/19 79/124/22
f 78/125/15 76/126/18 82/127/20 80/128/19
f 76/129/18 75/130/17 81/131/21 82/132/20
