# Blender v2.79 (sub 0) OBJ File: ''
# www.blender.org
mtllib garbopile_6.mtl
o garbage_d_Untitled.002
v -0.381836 0.063904 3.585938
v -0.413818 0.063904 3.238281
v -0.701660 0.063904 3.259766
v -0.673340 0.063904 3.611328
v -1.209961 0.193237 0.336914
v -1.151367 0.159790 0.477539
v -1.032227 0.280273 0.189819
v -0.806641 0.191528 0.282471
v -0.806152 0.054382 0.506348
v -1.351562 0.216675 0.486328
v -1.436523 0.224365 0.331299
v -1.568359 0.158081 0.451172
v -1.493164 0.167236 0.250732
v -1.742188 0.224731 0.409912
v -1.863281 0.159546 0.245361
v -1.934570 -0.006405 0.432129
v -1.998047 0.133911 0.284912
v -2.019531 0.128662 0.401123
v -2.224609 0.117798 0.423828
v -1.967773 -0.006283 0.513184
v -2.158203 -0.006309 0.614258
v -2.363281 -0.006252 0.509766
v -2.281250 0.115051 0.204102
v -1.388672 0.216553 0.130249
v -1.509766 0.253174 0.027802
v -2.365234 -0.006699 0.203613
v -2.289062 -0.006058 -0.102417
v -1.932617 -0.006191 -0.169067
v -1.700195 0.220215 -0.069946
v -1.434570 0.162598 -0.121521
v -1.234375 0.272705 0.107605
v -1.100586 0.165894 -0.122253
v -0.772949 0.105225 -0.096191
v -0.579590 0.215576 0.243530
v -1.267578 -0.005932 -0.219238
v -0.425293 0.136475 0.274658
v -0.391602 0.083618 0.413086
v -0.345215 0.188599 0.335693
v -0.114746 0.113586 0.312500
v -0.042755 0.157959 0.140869
v -0.249756 0.124939 0.192749
v -0.243286 -0.004471 -0.203125
v 0.108704 -0.005539 -0.039246
v -1.763672 0.063721 0.410645
v -1.954102 0.063721 0.587402
v -1.927734 0.063721 0.599121
v -1.732422 0.063721 0.429199
v -1.952148 0.063904 0.324951
v -2.287109 0.063904 0.224121
v -2.375000 0.063904 0.499756
v -2.037109 0.063904 0.604980
v -1.996094 0.063904 1.053711
v -2.095703 0.063904 0.847656
v -2.236328 0.063904 0.895508
v -2.126953 0.063904 1.117188
v -1.966797 0.063660 0.560547
v -2.238281 0.063660 0.720215
v -2.187500 0.063660 0.803223
v -1.917969 0.063660 0.642578
v -0.626953 0.063660 3.751953
v -0.673828 0.063660 3.867188
v -0.588379 0.063660 3.904297
v -0.538086 0.063660 3.783203
v -0.280518 0.063660 3.425781
v -0.379150 0.063660 3.632812
v -0.253418 0.063660 3.712891
v -0.149048 0.063660 3.488281
v -0.541992 0.185913 0.650879
v -0.560547 0.040009 0.407471
v -1.291992 0.103088 0.678223
v -0.937988 0.156982 0.628906
v -1.499023 -0.006149 1.104492
v -1.291016 0.212891 0.984375
v -1.116211 0.109497 0.800293
v -0.859375 0.120361 0.747070
v -0.629883 0.154541 0.904297
v -0.502930 0.197632 0.994141
v -0.551270 0.210205 1.177734
v -0.751465 0.277100 1.028320
v -0.967773 0.129395 1.060547
v -1.083984 0.138306 1.122070
v -1.377930 -0.006031 1.228516
v -1.408203 -0.005714 1.332031
v -1.230469 -0.005966 1.894531
v -1.119141 0.175171 1.898438
v -1.153320 0.169067 1.766602
v -1.248047 -0.005829 1.740234
v -1.083984 0.109680 1.620117
v -1.293945 -0.006279 1.642578
v -1.266602 0.093445 1.613281
v -1.142578 0.147217 1.239258
v -0.974609 0.178223 1.191406
v -0.850586 0.157349 1.197266
v -0.696289 0.189819 1.220703
v -0.628418 0.300781 1.375977
v -0.514648 0.283447 1.480469
v -0.643555 0.226807 1.577148
v -0.494629 0.235474 1.514648
v -0.827148 0.145020 1.500000
v -0.931641 0.130371 1.665039
v -0.801758 0.293213 1.668945
v -0.895020 0.123535 1.355469
v -1.025391 0.148315 1.526367
v -1.057617 0.192383 1.802734
v -0.875488 0.128540 1.789062
v -0.592773 0.234741 1.825195
v -0.655762 0.286133 1.669922
v -0.403564 0.343994 1.569336
v -0.677246 0.246704 1.893555
v -0.528809 0.289063 1.935547
v -0.371582 0.310791 1.938477
v -0.364746 0.310791 1.818359
v -0.379883 0.384766 1.359375
v -0.471924 0.223267 1.423828
v -0.162720 0.329102 1.537109
v -0.249268 0.367188 1.656250
v -0.226562 0.319336 1.914062
v -0.315918 0.178589 2.103516
v -0.506348 0.195068 2.150391
v -0.575684 0.212036 2.070312
v -0.854980 0.124512 2.058594
v -0.963867 0.111267 1.929688
v -0.465332 0.130737 2.312500
v -0.321289 0.364990 1.127930
v -0.402100 0.237183 1.045898
v -0.248413 0.180420 1.017578
v -0.553223 0.131836 2.480469
v -0.370605 0.227661 2.474609
v -0.328125 0.164917 2.304688
v -0.297119 0.122315 2.611328
v -0.583496 -0.005173 2.634766
v -0.741699 -0.004982 2.511719
v -0.820312 -0.005550 2.345703
v -0.596191 0.237793 2.242188
v -0.912598 -0.006313 2.287109
v -1.000000 0.101929 2.142578
v -1.042969 -0.005543 2.283203
v -1.124023 -0.006180 2.179688
v -1.090820 -0.005802 2.021484
v -0.297119 0.169800 2.958984
v -0.596191 0.148071 2.972656
v -0.511719 -0.005241 3.296875
v -0.784668 0.077088 3.226562
v -0.892090 0.091248 2.949219
v -0.817383 -0.007904 3.265625
v -0.942383 -0.007782 2.960938
v -0.798340 0.083130 2.744141
v -0.834473 -0.007664 2.697266
v -0.079773 0.243164 1.117188
v -0.018311 0.259033 0.952637
v 0.129150 -0.004471 1.552734
v 0.129150 -0.004471 2.046875
v -0.271484 0.217651 2.234375
v -0.191162 0.185303 2.326172
v 0.132080 -0.004471 2.732422
v 0.137451 -0.004471 3.195312
v -0.051575 -0.004471 3.406250
v -0.325684 -0.006504 3.406250
v 0.076477 -0.004471 1.166016
v 0.111084 -0.004471 0.682617
v -0.074280 0.220093 2.234375
v 0.092590 -0.004471 2.310547
v -0.334717 0.150391 0.729004
v -0.263428 0.136597 0.484375
v 0.136719 -0.004471 0.474854
v 0.023117 0.141357 0.585938
v -0.058960 0.166016 0.804199
v -0.862793 0.063660 3.361328
v -0.802734 0.063660 3.507812
v -0.691895 0.063660 3.464844
v -0.752441 0.063660 3.310547
v -0.842773 0.063660 3.283203
v -2.437500 0.074463 0.705566
v -2.378906 0.074463 0.595215
v -2.460938 0.074463 0.551270
v -2.523438 0.074463 0.666016
v -2.470703 0.063660 0.571777
v -2.353516 0.063660 0.375244
v -2.472656 0.063660 0.283447
v -2.595703 0.063660 0.497070
v -2.623047 0.063904 0.562012
v -2.718750 0.063904 0.284668
v -2.949219 0.063904 0.360352
v -2.855469 0.063904 0.641113
v -2.355469 0.063904 -0.132202
v -2.650391 0.063904 0.056091
v -2.498047 0.063904 0.301758
v -2.199219 0.063904 0.114807
v -2.408203 0.063965 0.879395
v -2.355469 0.063965 1.133789
v -2.330078 0.063965 1.117188
v -2.376953 0.063965 0.862305
v -2.367188 0.063660 0.786133
v -2.279297 0.063660 0.874512
v -2.212891 0.063660 0.809570
v -2.302734 0.063660 0.716797
v -1.488281 0.063904 0.428223
v -1.709961 0.063904 0.483887
v -1.692383 0.063904 0.632324
v -1.453125 0.063904 0.569824
v -1.822266 0.063965 0.895508
v -1.925781 0.063965 0.657227
v -1.946289 0.063965 0.678711
v -1.849609 0.063965 0.918457
v -1.886719 0.063660 1.854492
v -1.934570 0.063660 1.969727
v -1.848633 0.063660 2.005859
v -1.797852 0.063660 1.885742
v -1.638672 0.063660 1.052734
v -1.737305 0.063660 1.259766
v -1.611328 0.063660 1.339844
v -1.506836 0.063660 1.116211
v -1.176758 0.063904 2.894531
v -0.886230 0.063904 2.935547
v -0.848145 0.063904 2.697266
v -1.140625 0.063904 2.652344
v -1.404297 0.063660 1.498047
v -1.673828 0.063660 1.523438
v -1.657227 0.063660 1.688477
v -1.389648 0.063660 1.660156
v -1.509766 0.198608 0.608398
v -1.799805 0.098267 0.582031
v -1.826172 -0.006554 0.593262
v -1.804688 0.090149 0.688965
v -1.815430 -0.006561 0.696289
v -1.560547 -0.006554 0.937988
v -1.473633 0.129761 0.913086
v -1.456055 0.155273 0.729980
v -1.811523 0.063660 1.361328
v -1.750977 0.063660 1.508789
v -1.639648 0.063660 1.465820
v -1.701172 0.063660 1.310547
v -1.791016 0.063660 1.284180
vt 0.024765 2.027344
vt 0.065613 1.887695
vt 0.192383 1.924805
vt 0.146851 2.064453
vt 0.831055 0.422363
vt 0.898438 0.450684
vt 0.760742 0.503906
vt 0.798340 0.609375
vt 0.921387 0.616211
vt 0.994141 0.382812
vt 0.895020 0.354004
vt 0.827637 0.315918
vt 0.885742 0.250488
vt 0.791016 0.281250
vt 0.855957 0.169922
vt 0.780273 0.104004
vt 0.888184 0.043945
vt 0.787109 0.031738
vt 0.833984 0.000977
vt 0.825195 -0.087891
vt 0.916016 0.011719
vt 0.931641 -0.089844
vt 0.859375 -0.173828
vt 0.729492 -0.092773
vt 0.732910 0.332520
vt 0.688965 0.277832
vt 0.714355 -0.157227
vt 0.581055 -0.090820
vt 0.566406 0.078613
vt 0.648926 0.199219
vt 0.612305 0.315430
vt 0.724609 0.402832
vt 0.615723 0.466797
vt 0.611328 0.619385
vt 0.773438 0.709961
vt 0.523926 0.391113
vt 0.876465 0.734863
vt 0.788574 0.788330
vt 0.862305 0.813843
vt 0.809570 0.830322
vt 0.855469 1.071350
vt 0.791504 0.936890
vt 0.712402 0.957214
vt 0.739746 0.868286
vt 0.546387 0.863647
vt 0.615234 1.037567
vt 0.098816 2.019531
vt 0.166382 1.933594
vt 0.172974 1.944824
vt 0.108215 2.032227
vt 0.276611 1.315186
vt 0.421387 1.308594
vt 0.427979 1.440430
vt 0.281250 1.442627
vt 0.154175 2.196289
vt 0.169312 2.280273
vt 0.114319 2.297852
vt 0.097290 2.208984
vt 0.560059 1.863770
vt 0.577637 1.963379
vt 0.546387 1.969238
vt 0.527832 1.871094
vt 0.691895 2.296875
vt 0.714355 2.266602
vt 0.734375 2.281250
vt 0.709961 2.312500
vt 0.154175 2.196289
vt 0.169312 2.280273
vt 0.114319 2.297852
vt 0.097290 2.208984
vt 0.364014 0.877991
vt 0.432129 0.995964
vt 0.347900 1.004856
vt 0.234863 0.953339
vt 0.011810 0.870605
vt 0.173096 0.887085
vt -0.080750 0.763916
vt -0.150513 0.736084
vt -0.119995 0.660889
vt 0.004711 0.729248
vt 0.091003 0.811279
vt 0.211670 0.838257
vt 0.318848 0.765259
vt 0.378906 0.718994
vt 0.349365 0.632080
vt 0.258545 0.697998
vt 0.145508 0.680664
vt 0.088440 0.650635
vt -0.062561 0.597656
vt -0.073242 0.551514
vt -0.001710 0.273438
vt 0.085449 0.295410
vt 0.070435 0.343750
vt -0.013458 0.355957
vt 0.083740 0.414551
vt -0.028458 0.401855
vt 0.005234 0.429688
vt 0.065979 0.594482
vt 0.142090 0.618408
vt 0.200439 0.615967
vt 0.277832 0.609131
vt 0.314941 0.532959
vt 0.357178 0.490234
vt 0.302490 0.442383
vt 0.369385 0.471680
vt 0.206421 0.474121
vt 0.160767 0.392578
vt 0.246338 0.388672
vt 0.175659 0.540283
vt 0.117371 0.459961
vt 0.108948 0.329590
vt 0.186890 0.323730
vt 0.328125 0.310547
vt 0.305664 0.389648
vt 0.421143 0.432129
vt 0.292480 0.279785
vt 0.370850 0.265625
vt 0.437500 0.269043
vt 0.435547 0.321289
vt 0.455566 0.542725
vt 0.380615 0.512939
vt 0.528320 0.448242
vt 0.488525 0.396484
vt 0.497803 0.284180
vt 0.469238 0.175293
vt 0.375488 0.162109
vt 0.341309 0.202148
vt 0.198608 0.199707
vt 0.147217 0.260254
vt 0.382568 0.080566
vt 0.473877 0.631836
vt 0.424316 0.685303
vt 0.495850 0.716553
vt 0.348389 0.000000
vt 0.431396 0.005371
vt 0.453125 0.080566
vt 0.464355 -0.067383
vt 0.317871 -0.083984
vt 0.247314 -0.028320
vt 0.208496 0.045898
vt 0.330078 0.133789
vt 0.163940 0.076660
vt 0.134277 0.158691
vt 0.103271 0.083984
vt 0.064697 0.132812
vt 0.070435 0.207031
vt 0.465088 -0.230469
vt 0.337158 -0.247070
vt 0.378174 -0.408203
vt 0.255859 -0.365234
vt 0.203491 -0.249023
vt 0.231567 -0.399414
vt 0.156616 -0.257812
vt 0.233398 -0.159180
vt 0.200928 -0.126953
vt 0.583984 0.666748
vt 0.598633 0.739014
vt 0.725586 0.433594
vt 0.690918 0.187988
vt 0.483398 0.118164
vt 0.515625 0.066406
vt 0.661133 -0.127930
vt 0.663086 -0.337891
vt 0.592773 -0.436523
vt 0.468506 -0.447266
vt 0.727539 0.642578
vt 0.698730 0.880249
vt 0.561523 0.108398
vt 0.681152 0.061035
vt 0.458984 0.847656
vt 0.489990 0.956329
vt 0.680664 0.980911
vt 0.617188 0.912415
vt 0.589844 0.814575
vt 0.738281 2.279297
vt 0.736816 2.245117
vt 0.764648 2.243164
vt 0.765625 2.278320
vt 0.754883 2.293945
vt 0.691895 2.296875
vt 0.714355 2.266602
vt 0.734375 2.281250
vt 0.709961 2.312500
vt 0.154175 2.196289
vt 0.169312 2.280273
vt 0.114319 2.297852
vt 0.097290 2.208984
vt -0.071106 1.598145
vt -0.024933 1.451660
vt 0.092102 1.498779
vt 0.044647 1.639648
vt 0.024765 2.027344
vt 0.065613 1.887695
vt 0.192383 1.924805
vt 0.146851 2.064453
vt 0.098816 2.019531
vt 0.166382 1.933594
vt 0.172974 1.944824
vt 0.108215 2.032227
vt 0.691895 2.296875
vt 0.714355 2.266602
vt 0.734375 2.281250
vt 0.709961 2.312500
vt 0.154175 2.196289
vt 0.169312 2.280273
vt 0.114319 2.297852
vt 0.097290 2.208984
vt 0.098816 2.019531
vt 0.166382 1.933594
vt 0.172974 1.944824
vt 0.108215 2.032227
vt 0.691895 2.296875
vt 0.714355 2.266602
vt 0.734375 2.281250
vt 0.709961 2.312500
vt 0.154175 2.196289
vt 0.169312 2.280273
vt 0.114319 2.297852
vt 0.097290 2.208984
vt -0.071106 1.598145
vt -0.024933 1.451660
vt 0.092102 1.498779
vt 0.044647 1.639648
vt 0.560059 1.863770
vt 0.577637 1.963379
vt 0.514648 1.974609
vt 0.495850 1.877930
vt 0.957520 0.276367
vt 0.946289 0.134766
vt 0.967773 0.084961
vt 0.994629 0.138184
vt 1.018555 0.103516
vt 1.137695 0.219238
vt 1.100586 0.289551
vt 1.015625 0.300781
vt 0.738281 2.279297
vt 0.736816 2.245117
vt 0.764648 2.243164
vt 0.765625 2.278320
vt 0.754883 2.293945
vn -0.0000 1.0000 -0.0000
vn 0.0243 0.9768 0.2125
vn 0.0794 0.9283 0.3632
vn -0.1215 0.9751 -0.1854
vn 0.1297 0.9649 0.2283
vn 0.1671 0.8829 0.4389
vn 0.0768 0.9928 0.0921
vn 0.1158 0.9922 0.0468
vn 0.0542 0.9418 0.3318
vn -0.2886 0.9573 -0.0182
vn -0.0401 0.9889 0.1429
vn -0.2099 0.9770 0.0363
vn -0.1947 0.9608 0.1975
vn -0.3409 0.9389 0.0467
vn 0.0431 0.8565 0.5143
vn 0.0682 0.9946 0.0788
vn 0.3581 0.8550 0.3750
vn -0.2369 0.9150 0.3265
vn 0.4339 0.7324 0.5248
vn 0.0368 0.8430 0.5366
vn -0.5290 0.7678 0.3615
vn -0.4568 0.8782 -0.1420
vn -0.1710 0.9832 0.0645
vn 0.1259 0.9890 -0.0779
vn -0.8194 0.5656 -0.0937
vn -0.2385 0.9053 -0.3516
vn -0.2519 0.8406 -0.4796
vn -0.2635 0.8448 -0.4657
vn 0.0068 0.6783 -0.7347
vn 0.2938 0.9506 0.1000
vn 0.1325 0.6923 -0.7093
vn 0.0990 0.8452 -0.5252
vn 0.1743 0.9701 0.1691
vn 0.0061 0.4890 -0.8723
vn 0.0087 0.9879 0.1548
vn -0.0692 0.9865 0.1487
vn -0.1947 0.9740 0.1155
vn -0.1820 0.9500 0.2538
vn 0.5493 0.8329 -0.0677
vn 0.2103 0.9612 0.1785
vn 0.2453 0.9634 -0.1085
vn 0.0716 0.9738 -0.2157
vn 0.0931 0.9056 -0.4138
vn -0.0099 0.9046 -0.4261
vn 0.4629 0.8144 -0.3500
vn -0.1095 0.9702 -0.2162
vn 0.0737 0.9560 -0.2841
vn -0.4262 0.8640 0.2681
vn -0.6814 0.4964 0.5378
vn -0.5818 0.6921 0.4272
vn -0.1354 0.9825 0.1279
vn 0.0060 0.9949 -0.1003
vn 0.0900 0.9693 -0.2289
vn -0.0303 0.9709 -0.2374
vn -0.1522 0.9774 -0.1469
vn -0.0291 0.9935 -0.1102
vn -0.0185 0.9985 -0.0513
vn -0.1968 0.9804 0.0116
vn -0.1181 0.9919 0.0472
vn -0.4516 0.8691 0.2019
vn -0.5715 0.8185 -0.0588
vn -0.8041 0.4562 0.3813
vn -0.3317 0.8052 0.4915
vn -0.5744 0.7903 -0.2135
vn -0.7373 0.6756 0.0038
vn -0.2421 0.9682 0.0629
vn -0.6223 0.6053 0.4963
vn -0.4622 0.6942 0.5518
vn -0.3428 0.9325 -0.1138
vn 0.0265 0.9832 -0.1806
vn -0.2360 0.9653 0.1117
vn -0.1600 0.9800 -0.1184
vn -0.1320 0.9873 -0.0882
vn 0.4385 0.8628 0.2514
vn -0.2670 0.9286 -0.2577
vn -0.1112 0.9828 -0.1478
vn -0.3512 0.9296 -0.1118
vn -0.2750 0.9595 -0.0613
vn -0.3951 0.9186 -0.0120
vn -0.1894 0.9799 0.0629
vn -0.0736 0.9348 0.3473
vn -0.0713 0.9930 0.0938
vn 0.0858 0.9957 -0.0336
vn -0.2250 0.9506 0.2141
vn -0.2316 0.9654 0.1195
vn -0.0784 0.9939 -0.0770
vn -0.2198 0.9333 -0.2839
vn -0.2016 0.9785 -0.0443
vn -0.4846 0.8508 0.2030
vn -0.0724 0.9348 0.3478
vn -0.2107 0.9741 0.0819
vn -0.4672 0.8723 0.1444
vn -0.0209 0.9900 -0.1398
vn 0.5131 0.8583 0.0056
vn 0.2271 0.9729 0.0443
vn 0.3173 0.8919 0.3222
vn 0.1225 0.9484 0.2925
vn -0.0667 0.9253 0.3732
vn 0.0100 0.9973 0.0726
vn -0.3725 0.9127 0.1682
vn -0.0708 0.9230 0.3781
vn -0.1622 0.9829 0.0875
vn -0.1195 0.9035 -0.4116
vn -0.1943 0.8135 -0.5482
vn -0.0399 0.9121 -0.4080
vn -0.4224 0.8743 0.2391
vn 0.1305 0.9784 0.1601
vn -0.1967 0.9795 0.0428
vn 0.0431 0.9892 0.1403
vn -0.3200 0.9474 0.0019
vn -0.5070 0.7815 0.3636
vn -0.4205 0.7473 0.5144
vn 0.0479 0.9316 0.3602
vn -0.2356 0.8038 0.5463
vn -0.2954 0.9450 0.1404
vn -0.2521 0.8045 0.5378
vn -0.6237 0.7671 0.1504
vn -0.5380 0.7664 0.3510
vn 0.0950 0.9910 0.0948
vn -0.0807 0.9956 0.0477
vn -0.0561 0.8964 0.4398
vn -0.3401 0.7674 0.5434
vn -0.6589 0.7512 -0.0384
vn -0.5207 0.5123 0.6829
vn -0.8840 0.4675 0.0055
vn -0.3545 0.7923 -0.4967
vn -0.5468 0.5455 -0.6351
vn 0.4615 0.8861 0.0421
vn 0.4162 0.9062 -0.0745
vn 0.7196 0.6944 -0.0037
vn 0.6236 0.7814 0.0251
vn -0.2231 0.9747 -0.0101
vn 0.1121 0.9327 0.3429
vn 0.3713 0.9285 0.0115
vn 0.3101 0.9425 0.1247
vn 0.1331 0.9460 0.2955
vn -0.0896 0.9285 0.3603
vn 0.8715 0.4903 0.0095
vn 0.8113 0.5822 0.0541
vn 0.3518 0.9355 -0.0336
vn 0.6572 0.7437 0.1226
vn 0.0701 0.9830 -0.1700
vn -0.0004 0.8933 -0.4495
vn 0.4662 0.8604 -0.2059
vn 0.2484 0.8880 -0.3871
vn 0.0878 0.9959 -0.0200
vn -0.6610 0.7147 0.2287
vn -0.9272 0.2295 0.2959
vn -0.7379 0.5793 0.3463
vn -0.8874 0.1320 0.4417
vn 0.1183 0.9710 0.2078
usemtl garbage
s 1
f 1/1/1 2/2/1 3/3/1
f 3/3/1 4/4/1 1/1/1
f 5/5/2 6/6/3 7/7/4
f 8/8/5 7/7/6 6/6/3
f 9/9/7 8/8/5 6/6/3
f 9/9/7 6/6/3 70/10/8
f 6/6/3 5/5/2 70/10/8
f 5/5/2 10/11/9 70/10/8
f 11/12/10 10/11/9 5/5/2
f 12/13/11 10/11/9 11/12/10
f 13/14/12 12/13/11 11/12/10
f 12/13/11 13/14/12 14/15/13
f 14/15/13 13/14/12 15/16/14
f 15/16/14 16/17/15 14/15/13
f 16/17/15 15/16/14 17/18/16
f 16/17/15 17/18/16 18/19/17
f 18/19/17 17/18/16 19/20/18
f 20/21/19 18/19/17 19/20/18
f 19/20/18 21/22/20 20/21/19
f 21/22/20 19/20/18 22/23/21
f 22/23/21 19/20/18 23/24/22
f 17/18/16 23/24/22 19/20/18
f 70/10/8 10/11/9 12/13/11
f 16/17/15 18/19/17 20/21/19
f 24/25/23 25/26/24 13/14/12
f 13/14/12 25/26/24 15/16/14
f 23/24/22 26/27/25 22/23/21
f 26/27/25 23/24/22 27/28/26
f 27/28/26 23/24/22 28/29/27
f 23/24/22 17/18/16 28/29/27
f 15/16/14 28/29/27 17/18/16
f 15/16/14 29/30/28 28/29/27
f 15/16/14 25/26/24 29/30/28
f 29/30/28 25/26/24 30/31/29
f 25/26/24 24/25/23 30/31/29
f 30/31/29 24/25/23 31/32/30
f 31/32/30 24/25/23 13/14/12
f 13/14/12 11/12/10 31/32/30
f 31/32/30 11/12/10 5/5/2
f 31/32/30 5/5/2 32/33/31
f 5/5/2 7/7/4 32/33/31
f 33/34/32 32/33/31 7/7/4
f 8/8/5 33/34/32 7/7/4
f 33/34/32 8/8/5 34/35/33
f 30/31/29 35/36/34 28/29/27
f 28/29/27 29/30/28 30/31/29
f 34/35/33 8/8/5 9/9/7
f 9/9/7 69/37/35 34/35/33
f 36/38/36 34/35/33 69/37/35
f 37/39/37 36/38/36 69/37/35
f 37/39/37 38/40/38 36/38/36
f 165/41/39 38/40/38 37/39/37
f 165/41/39 39/42/40 38/40/38
f 40/43/41 39/42/40 165/41/39
f 41/44/42 39/42/40 40/43/41
f 41/44/42 40/43/41 42/45/43
f 38/40/38 41/44/42 42/45/43
f 42/45/43 36/38/36 38/40/38
f 42/45/43 34/35/33 36/38/36
f 42/45/43 33/34/32 34/35/33
f 33/34/32 42/45/43 35/36/34
f 32/33/31 33/34/32 35/36/34
f 30/31/29 32/33/31 35/36/34
f 31/32/44 32/33/44 30/31/44
f 39/42/40 41/44/42 38/40/38
f 165/41/39 43/46/45 40/43/41
f 40/43/41 43/46/45 42/45/43
f 44/47/1 45/48/1 46/49/1
f 46/49/1 47/50/1 44/47/1
f 48/51/1 49/52/1 50/53/1
f 50/53/1 51/54/1 48/51/1
f 52/55/1 53/56/1 54/57/1
f 54/57/1 55/58/1 52/55/1
f 56/59/1 57/60/1 58/61/1
f 58/61/1 59/62/1 56/59/1
f 60/63/1 61/64/1 62/65/1
f 62/65/1 63/66/1 60/63/1
f 64/67/1 65/68/1 66/69/1
f 66/69/1 67/70/1 64/67/1
f 68/71/46 37/72/37 69/73/35
f 9/74/7 68/71/46 69/73/35
f 70/75/8 71/76/47 9/74/7
f 227/77/48 226/78/49 72/79/50
f 73/80/51 227/77/48 72/79/50
f 73/80/51 70/75/8 227/77/48
f 73/80/51 74/81/52 70/75/8
f 70/75/8 74/81/52 71/76/47
f 75/82/53 71/76/47 74/81/52
f 9/74/7 71/76/47 75/82/53
f 9/74/7 75/82/53 76/83/54
f 76/83/54 68/71/46 9/74/7
f 68/71/46 76/83/54 77/84/55
f 76/83/54 78/85/56 77/84/55
f 78/85/56 76/83/54 79/86/57
f 79/86/57 76/83/54 75/82/53
f 79/86/57 75/82/53 74/81/52
f 79/86/57 74/81/52 80/87/58
f 80/87/58 74/81/52 73/80/51
f 80/87/58 73/80/51 81/88/59
f 82/89/60 81/88/59 73/80/51
f 81/88/59 82/89/60 83/90/61
f 82/89/60 73/80/51 72/79/50
f 84/91/62 85/92/63 86/93/64
f 86/93/64 87/94/65 84/91/62
f 88/95/66 87/94/65 86/93/64
f 89/96/67 87/94/65 88/95/66
f 88/95/66 90/97/68 89/96/67
f 90/97/68 83/90/61 89/96/67
f 91/98/69 83/90/61 90/97/68
f 83/90/61 91/98/69 81/88/59
f 92/99/70 81/88/59 91/98/69
f 92/99/70 80/87/58 81/88/59
f 92/99/70 93/100/71 80/87/58
f 79/86/57 80/87/58 93/100/71
f 93/100/71 94/101/72 79/86/57
f 94/101/72 78/85/56 79/86/57
f 95/102/73 78/85/56 94/101/72
f 78/85/56 95/102/73 96/103/74
f 97/104/75 96/103/74 95/102/73
f 98/105/76 96/103/74 97/104/75
f 94/101/72 93/100/71 95/102/73
f 99/106/77 100/107/78 101/108/79
f 97/104/75 99/106/77 101/108/79
f 99/106/77 97/104/75 95/102/73
f 95/102/73 102/109/80 99/106/77
f 93/100/71 102/109/80 95/102/73
f 102/109/80 93/100/71 92/99/70
f 102/109/80 92/99/81 91/98/69
f 103/110/82 102/109/80 91/98/69
f 103/110/82 91/98/69 90/97/68
f 88/95/66 103/110/82 90/97/68
f 100/107/78 103/110/82 88/95/66
f 100/107/78 88/95/66 86/93/64
f 86/93/64 104/111/83 100/107/78
f 105/112/84 100/107/78 104/111/83
f 100/107/78 105/112/84 101/108/79
f 101/108/79 105/112/84 106/113/85
f 101/108/79 106/113/85 107/114/86
f 108/115/87 107/114/86 106/113/85
f 108/115/87 97/104/75 107/114/86
f 97/104/75 101/108/79 107/114/86
f 102/109/80 103/110/82 99/106/77
f 103/110/82 100/107/78 99/106/77
f 109/116/88 106/113/85 105/112/84
f 110/117/89 111/118/90 112/119/91
f 112/119/91 106/113/85 110/117/89
f 106/113/85 112/119/91 108/115/87
f 113/120/92 114/121/93 115/122/94
f 114/121/93 108/115/87 115/122/94
f 108/115/87 116/123/95 115/122/94
f 112/119/91 116/123/95 108/115/87
f 117/124/96 116/123/95 112/119/91
f 117/124/96 112/119/91 111/118/90
f 117/124/96 111/118/90 118/125/97
f 118/125/97 111/118/90 110/117/89
f 118/125/97 110/117/89 119/126/98
f 110/117/89 106/113/85 119/126/98
f 120/127/99 119/126/98 106/113/85
f 120/127/99 106/113/85 109/116/88
f 109/116/88 121/128/100 120/127/99
f 105/112/84 121/128/100 109/116/88
f 105/112/84 122/129/101 121/128/100
f 104/111/83 122/129/101 105/112/84
f 104/111/83 85/92/63 122/129/101
f 86/93/64 85/92/63 104/111/83
f 123/130/102 119/126/98 120/127/99
f 124/131/103 113/120/92 115/122/94
f 114/121/93 113/120/92 124/131/103
f 125/132/104 114/121/93 124/131/103
f 124/131/103 126/133/105 125/132/104
f 123/130/102 127/134/106 128/135/107
f 118/125/97 119/126/98 123/130/102
f 123/130/102 129/136/108 118/125/97
f 129/136/108 123/130/102 128/135/107
f 129/136/108 128/135/107 130/137/109
f 128/135/107 127/134/106 130/137/109
f 131/138/110 130/137/109 127/134/106
f 127/134/106 132/139/111 131/138/110
f 132/139/111 127/134/106 133/140/112
f 127/134/106 123/130/102 133/140/112
f 123/130/102 134/141/113 133/140/112
f 120/127/99 134/141/113 123/130/102
f 134/141/113 120/127/99 121/128/100
f 134/141/113 121/128/100 135/142/114
f 136/143/115 135/142/114 121/128/100
f 136/143/115 137/144/116 135/142/114
f 138/145/117 137/144/116 136/143/115
f 136/143/115 139/146/118 138/145/117
f 121/128/100 139/146/118 136/143/115
f 122/129/101 139/146/118 121/128/100
f 85/92/63 139/146/118 122/129/101
f 139/146/118 85/92/63 84/91/62
f 134/141/113 135/142/114 133/140/112
f 140/147/119 141/148/120 142/149/121
f 142/149/121 141/148/120 143/150/122
f 143/150/122 141/148/120 144/151/123
f 145/152/124 143/150/122 144/151/123
f 144/151/123 146/153/125 145/152/124
f 146/153/125 144/151/123 147/154/126
f 147/154/126 148/155/127 146/153/125
f 148/155/127 147/154/126 131/138/110
f 147/154/126 141/148/120 131/138/110
f 130/137/109 131/138/110 141/148/120
f 141/148/120 140/147/119 130/137/109
f 144/151/123 141/148/120 147/154/126
f 145/152/124 142/149/121 143/150/122
f 126/133/105 149/156/128 150/157/129
f 149/156/128 126/133/105 124/131/103
f 151/158/130 149/156/128 124/131/103
f 115/122/94 151/158/130 124/131/103
f 116/123/95 151/158/130 115/122/94
f 151/158/130 116/123/95 117/124/96
f 117/124/96 152/159/131 151/158/130
f 152/159/131 117/124/96 118/125/97
f 152/159/131 118/125/97 153/160/132
f 118/125/97 129/136/108 153/160/132
f 154/161/133 153/160/132 129/136/108
f 130/137/109 154/161/133 129/136/108
f 130/137/109 155/162/134 154/161/133
f 155/162/134 130/137/109 140/147/119
f 155/162/134 140/147/119 156/163/135
f 156/163/135 140/147/119 157/164/136
f 140/147/119 158/165/137 157/164/136
f 140/147/119 142/149/121 158/165/137
f 151/158/130 159/166/138 149/156/128
f 150/157/129 149/156/128 159/166/138
f 150/157/129 159/166/138 160/167/139
f 152/159/131 161/168/140 162/169/141
f 152/159/131 153/160/132 161/168/140
f 161/168/140 153/160/132 154/161/133
f 162/169/141 161/168/140 154/161/133
f 154/161/133 155/162/134 162/169/141
f 97/104/75 108/115/87 98/105/76
f 108/115/87 114/121/93 98/105/76
f 114/121/93 96/103/74 98/105/76
f 78/85/56 96/103/74 114/121/93
f 78/85/56 114/121/93 125/132/104
f 78/85/56 125/132/104 77/84/55
f 77/84/55 125/132/104 126/133/105
f 68/71/46 77/84/55 126/133/105
f 126/133/105 163/170/142 68/71/46
f 163/170/142 37/72/37 68/71/46
f 163/170/142 164/171/143 37/72/37
f 164/171/143 165/172/39 37/72/37
f 165/172/39 164/171/143 166/173/144
f 165/172/39 166/173/144 160/167/139
f 166/173/144 167/174/145 160/167/139
f 150/157/129 160/167/139 167/174/145
f 167/174/145 163/170/142 150/157/129
f 126/133/105 150/157/129 163/170/142
f 166/173/144 164/171/143 163/170/142
f 163/170/142 167/174/145 166/173/144
f 168/175/1 169/176/1 170/177/1
f 170/177/1 171/178/1 168/175/1
f 168/175/1 171/178/1 172/179/1
f 173/180/1 174/181/1 175/182/1
f 175/182/1 176/183/1 173/180/1
f 177/184/1 178/185/1 179/186/1
f 179/186/1 180/187/1 177/184/1
f 181/188/1 182/189/1 183/190/1
f 183/190/1 184/191/1 181/188/1
f 185/192/1 186/193/1 187/194/1
f 187/194/1 188/195/1 185/192/1
f 189/196/1 190/197/1 191/198/1
f 191/198/1 192/199/1 189/196/1
f 193/200/1 194/201/1 195/202/1
f 195/202/1 196/203/1 193/200/1
f 197/204/1 198/205/1 199/206/1
f 199/206/1 200/207/1 197/204/1
f 201/208/1 202/209/1 203/210/1
f 203/210/1 204/211/1 201/208/1
f 205/212/1 206/213/1 207/214/1
f 207/214/1 208/215/1 205/212/1
f 209/216/1 210/217/1 211/218/1
f 211/218/1 212/219/1 209/216/1
f 213/220/1 214/221/1 215/222/1
f 215/222/1 216/223/1 213/220/1
f 217/224/1 218/225/1 219/226/1
f 219/226/1 220/227/1 217/224/1
f 221/228/146 70/10/8 12/13/11
f 12/13/11 222/229/147 221/228/146
f 14/15/13 222/229/147 12/13/11
f 14/15/13 16/17/15 222/229/147
f 222/229/147 16/17/15 223/230/148
f 224/231/149 222/229/147 223/230/148
f 224/231/149 223/230/148 225/232/150
f 224/231/149 225/232/150 226/233/49
f 226/233/49 227/234/48 224/231/149
f 227/234/48 228/235/151 224/231/149
f 70/10/8 228/235/151 227/234/48
f 221/228/146 228/235/151 70/10/8
f 228/235/151 221/228/146 224/231/149
f 222/229/147 224/231/149 221/228/146
f 229/236/1 230/237/1 231/238/1
f 231/238/1 232/239/1 229/236/1
f 229/236/1 232/239/1 233/240/1
