# Blender v2.82 (sub 7) OBJ File: ''
# www.blender.org
mtllib eso_l13_plank.mtl
o Mesh_1791_Mesh_1791Mesh
v -0.205466 0.212272 2.122142
v -0.227494 0.059801 2.154130
v 0.388422 -0.003922 2.121373
v 0.417905 0.200179 2.078555
v -0.192011 0.280426 -2.272194
v 0.458442 0.291894 -2.295140
v 0.459037 0.134655 -2.295262
v -0.191419 0.125004 -2.272315
v 0.388422 -0.003922 2.121373
v -0.227494 0.059801 2.154130
v -0.252094 -0.001926 -0.074565
v 0.383402 0.007433 -0.089498
v -0.191419 0.125004 -2.272315
v 0.459037 0.134655 -2.295262
v -0.252683 0.153291 -0.074445
v -0.205466 0.212272 2.122142
v 0.417905 0.200179 2.078555
v 0.382710 0.189803 -0.089356
v -0.192011 0.280426 -2.272194
v 0.458442 0.291894 -2.295140
v 0.417905 0.200179 2.078555
v 0.388422 -0.003922 2.121373
v 0.383402 0.007433 -0.089498
v 0.382710 0.189803 -0.089356
v 0.458442 0.291894 -2.295140
v 0.459037 0.134655 -2.295262
v -0.192011 0.280426 -2.272194
v -0.191419 0.125004 -2.272315
v -0.252094 -0.001926 -0.074565
v -0.252683 0.153291 -0.074445
v -0.205466 0.212272 2.122142
v -0.227494 0.059801 2.154130
vt 0.775485 0.059051
vt 0.776462 0.041473
vt 0.913184 0.041473
vt 0.913184 0.059051
vt 0.775485 0.978025
vt 0.913184 0.978025
vt 0.913184 0.995603
vt 0.775485 0.995603
vt 0.913184 0.070770
vt 0.775485 0.070770
vt 0.775485 0.517073
vt 0.913184 0.517073
vt 0.775485 0.959469
vt 0.913184 0.959469
vt 0.775485 0.517073
vt 0.775485 0.070770
vt 0.913184 0.070770
vt 0.913184 0.517073
vt 0.775485 0.959469
vt 0.913184 0.959469
vt 0.920021 0.070770
vt 0.955178 0.070770
vt 0.955178 0.517073
vt 0.920021 0.517073
vt 0.920021 0.963376
vt 0.955178 0.963376
vt 0.967874 0.963376
vt 0.929786 0.963376
vt 0.929786 0.517073
vt 0.967874 0.517073
vt 0.967874 0.070770
vt 0.929786 0.070770
vn 0.0722 0.1948 0.9782
vn 0.0721 0.1948 0.9782
vn -0.0352 0.0006 -0.9994
vn -0.0813 -0.9964 0.0228
vn -0.1014 -0.9944 0.0287
vn 0.0037 -0.9996 -0.0277
vn 0.0139 -0.9994 -0.0319
vn 0.0129 -0.9983 -0.0572
vn 0.0128 -0.9983 -0.0571
vn -0.0500 0.9985 0.0235
vn 0.0175 0.9995 -0.0272
vn 0.0043 0.9997 -0.0231
vn -0.0531 0.9982 0.0258
vn -0.0229 0.9986 0.0475
vn -0.0160 0.9988 0.0457
vn 0.9906 -0.1366 -0.0036
vn 0.9896 -0.1436 -0.0030
vn 0.9999 -0.0007 0.0090
vn 0.9999 0.0038 0.0094
vn 0.9994 0.0038 0.0345
vn -0.9996 -0.0038 -0.0278
vn -1.0000 -0.0004 -0.0032
vn -1.0000 -0.0038 -0.0033
vn -0.9903 0.1385 0.0075
vn -0.9895 0.1444 0.0069
usemtl Tex_5630_0_dds
s 1
f 1/1/1 2/2/1 3/3/2
f 3/3/2 4/4/2 1/1/1
f 5/5/3 6/6/3 7/7/3
f 7/7/3 8/8/3 5/5/3
f 9/9/4 10/10/5 11/11/6
f 11/11/6 12/12/7 9/9/4
f 12/12/7 11/11/6 13/13/8
f 13/13/8 14/14/9 12/12/7
f 15/15/10 16/16/11 17/17/12
f 17/17/12 18/18/13 15/15/10
f 19/19/14 15/15/10 18/18/13
f 18/18/13 20/20/15 19/19/14
f 21/21/16 22/22/17 23/23/18
f 23/23/18 24/24/19 21/21/16
f 25/25/20 24/24/19 23/23/18
f 23/23/18 26/26/20 25/25/20
f 27/27/21 28/28/21 29/29/22
f 29/29/22 30/30/23 27/27/21
f 31/31/24 30/30/23 29/29/22
f 29/29/22 32/32/25 31/31/24
