# Blender v2.79 (sub 0) OBJ File: ''
# www.blender.org
mtllib small.mtl
o Cabinet_Open
v -0.111496 0.106648 0.121191
v -0.111496 0.256925 0.121191
v 0.111496 0.256774 0.121191
v 0.111496 0.106648 0.121191
v 0.066655 0.218144 -0.222992
v 0.061656 0.234808 -0.227536
v 0.061656 0.236323 -0.222992
v 0.049688 0.243746 -0.222992
v 0.061656 0.218144 -0.234960
v 0.049688 0.218144 -0.239958
v 0.049688 0.227839 -0.238747
v 0.061656 0.224961 -0.234051
v 0.061656 0.230869 -0.231475
v 0.049688 0.241776 -0.229506
v -0.052112 0.243746 -0.222992
v -0.052112 0.241776 -0.229506
v -0.064080 0.236323 -0.222992
v -0.064080 0.234808 -0.227536
v -0.069079 0.218144 -0.222992
v -0.064080 0.230869 -0.231475
v -0.052112 0.236323 -0.234960
v 0.049688 0.236323 -0.234960
v -0.052112 0.227839 -0.238747
v -0.064080 0.224961 -0.234051
v -0.064080 0.218144 -0.234960
v -0.052112 0.218144 -0.239958
v 0.135734 0.712604 0.135734
v -0.135734 0.712604 0.135734
v -0.135734 0.067867 0.135734
v 0.135734 0.067867 0.135734
v -0.135734 0.712604 -0.101800
v -0.135734 0.707756 -0.118767
v -0.135734 0.695637 -0.131114
v -0.135734 0.678670 -0.135734
v -0.135734 0.465374 -0.135734
v -0.135734 0.276316 -0.135734
v -0.135734 0.067867 -0.135734
v 0.135734 0.712604 -0.101800
v 0.135734 0.067867 -0.135734
v -0.106648 0.232687 -0.208449
v -0.106648 0.232687 0.028991
v -0.106648 0.111496 0.028991
v -0.106648 0.111420 -0.208449
v 0.106648 0.232687 -0.208449
v 0.106648 0.111420 -0.208449
v 0.106648 0.232687 0.028991
v 0.106648 0.111496 0.028991
v -0.111496 0.232687 -0.218144
v -0.111496 0.232687 0.036263
v 0.111496 0.232687 -0.218144
v 0.111496 0.232687 0.036263
v 0.111496 0.106648 0.036263
v 0.111496 0.106648 -0.218144
v -0.111496 0.106648 0.036263
v -0.111496 0.106648 -0.218144
v 0.121191 0.266621 -0.218144
v 0.121191 0.096953 -0.218144
v 0.121191 0.096953 -0.222992
v 0.121191 0.266621 -0.222992
v -0.121191 0.266621 -0.218144
v -0.121191 0.266621 -0.222992
v -0.121191 0.096953 -0.218144
v -0.121191 0.096953 -0.222992
v -0.106648 0.401143 -0.304190
v -0.106648 0.431440 -0.068662
v -0.106648 0.311158 -0.053248
v -0.106648 0.281012 -0.288738
v 0.106648 0.401143 -0.304190
v 0.106648 0.281012 -0.288738
v 0.106648 0.431440 -0.068662
v 0.106648 0.311158 -0.053248
v -0.111496 0.399931 -0.313885
v -0.111496 0.432349 -0.061429
v 0.111496 0.399931 -0.313885
v 0.111496 0.432349 -0.061429
v 0.111496 0.307371 -0.045447
v 0.111496 0.274953 -0.297827
v -0.111496 0.307371 -0.045447
v -0.111496 0.274953 -0.297827
v 0.121191 0.433561 -0.318127
v 0.121191 0.265409 -0.296615
v 0.121191 0.264803 -0.301312
v 0.121191 0.432955 -0.322974
v -0.121191 0.433561 -0.318127
v -0.121191 0.432955 -0.322974
v -0.121191 0.265409 -0.296615
v -0.121191 0.264803 -0.301312
v -0.106648 0.605047 -0.225415
v -0.106648 0.620499 0.011513
v -0.106648 0.499610 0.019410
v -0.106648 0.484159 -0.217538
v 0.106648 0.605047 -0.225415
v 0.106648 0.484159 -0.217538
v 0.106648 0.620499 0.011513
v 0.106648 0.499610 0.019410
v -0.111496 0.604441 -0.235111
v -0.111496 0.621105 0.018766
v 0.111496 0.604441 -0.235111
v 0.111496 0.621105 0.018766
v 0.111496 0.495369 0.026984
v 0.111496 0.478705 -0.226930
v -0.111496 0.495369 0.026984
v -0.111496 0.478705 -0.226930
v 0.121191 0.638071 -0.237383
v 0.121191 0.469010 -0.226324
v 0.121191 0.468707 -0.231021
v 0.121191 0.638071 -0.242231
v -0.121191 0.638071 -0.237383
v -0.121191 0.638071 -0.242231
v -0.121191 0.469010 -0.226324
v -0.121191 0.468707 -0.231021
v 0.135734 -0.000000 0.135734
v 0.135734 -0.000000 0.118767
v 0.135734 0.067867 0.110663
v 0.118767 -0.000000 0.135734
v 0.110663 0.067867 0.135734
v 0.118767 -0.000000 0.118767
v 0.110663 0.067867 0.110663
v -0.135734 -0.000000 0.135734
v -0.135734 0.067867 0.110663
v -0.135734 -0.000000 0.118767
v -0.118767 -0.000000 0.135734
v -0.110663 0.067867 0.135734
v -0.118767 -0.000000 0.118767
v -0.110663 0.067867 0.110663
v 0.135734 0.000000 -0.135734
v 0.135734 0.067867 -0.110663
v 0.135734 0.000000 -0.118767
v 0.118767 0.000000 -0.135734
v 0.110663 0.067867 -0.135734
v 0.118767 0.000000 -0.118767
v 0.110663 0.067867 -0.110663
v -0.135734 0.000000 -0.135734
v -0.135734 0.000000 -0.118767
v -0.135734 0.067867 -0.110663
v -0.118767 0.000000 -0.135734
v -0.110663 0.067867 -0.135734
v -0.118767 0.000000 -0.118767
v -0.110663 0.067867 -0.110663
v 0.111496 0.295706 -0.135734
v -0.111496 0.295706 -0.135734
v -0.111496 0.295706 0.121191
v 0.111496 0.295706 0.121191
v 0.111496 0.450831 -0.135734
v 0.111496 0.450831 0.121191
v -0.111496 0.450831 -0.135734
v -0.111496 0.450831 0.121191
v 0.111496 0.484462 -0.135734
v -0.111496 0.484462 -0.135734
v -0.111496 0.484462 0.121191
v 0.111496 0.484462 0.121191
v 0.111496 0.634436 -0.135734
v 0.111496 0.634436 0.121191
v -0.111496 0.635042 -0.135734
v -0.111496 0.635042 0.121191
v 0.111496 0.256774 -0.135734
v 0.111496 0.106648 -0.135734
v -0.111496 0.256925 -0.135734
v -0.111496 0.106648 -0.135734
v 0.135734 0.678064 -0.135734
v 0.135734 0.695637 -0.131114
v 0.135734 0.707756 -0.118767
v -0.052112 0.392659 -0.333579
v 0.049688 0.392659 -0.333579
v 0.049688 0.382661 -0.333579
v 0.061656 0.383267 -0.328731
v 0.061656 0.390236 -0.328731
v 0.066655 0.384782 -0.316612
v 0.049688 0.401446 -0.330852
v -0.052112 0.401446 -0.330852
v -0.064080 0.396598 -0.326610
v -0.064080 0.390236 -0.328731
v -0.069079 0.384782 -0.316612
v -0.064080 0.383267 -0.328731
v -0.052112 0.382661 -0.333579
v 0.049688 0.407505 -0.326307
v 0.061656 0.400840 -0.323277
v 0.061656 0.396598 -0.326610
v -0.052112 0.407505 -0.326307
v -0.064080 0.400840 -0.323277
v -0.064080 0.402961 -0.319036
v -0.052112 0.410232 -0.319945
v 0.049688 0.410232 -0.319945
v 0.061656 0.402961 -0.319036
v -0.052112 0.598381 -0.255259
v 0.049688 0.598381 -0.255259
v 0.049688 0.588383 -0.255865
v 0.061656 0.588686 -0.251017
v 0.061656 0.595958 -0.250563
v 0.066655 0.589595 -0.239049
v 0.061656 0.602017 -0.248290
v 0.061656 0.605956 -0.244655
v 0.049688 0.612924 -0.247079
v 0.049688 0.615348 -0.240716
v -0.052112 0.615348 -0.240716
v -0.052112 0.612924 -0.247079
v 0.061656 0.607774 -0.240261
v -0.064080 0.607774 -0.240261
v -0.064080 0.605956 -0.244655
v -0.069079 0.589595 -0.239049
v -0.064080 0.602017 -0.248290
v -0.052112 0.606865 -0.252229
v 0.049688 0.606865 -0.252229
v -0.064080 0.595958 -0.250563
v -0.064080 0.588686 -0.251017
v -0.052112 0.588383 -0.255865
v 0.135734 0.276316 -0.135734
v 0.135734 0.465071 -0.135734
vt 0.536100 0.005400
vt 0.693400 0.005400
vt 0.693400 0.264600
vt 0.536100 0.264600
vt 0.972200 0.704100
vt 0.962900 0.711400
vt 0.955100 0.711400
vt 0.947800 0.729700
vt 0.989700 0.711400
vt 0.997100 0.729700
vt 0.985400 0.729700
vt 0.981400 0.711400
vt 0.972200 0.711400
vt 0.959000 0.729700
vt 0.947800 0.883300
vt 0.959000 0.883300
vt 0.955100 0.901400
vt 0.962900 0.901400
vt 0.972200 0.908900
vt 0.972200 0.901400
vt 0.972200 0.883300
vt 0.972200 0.729700
vt 0.985400 0.883300
vt 0.981400 0.901400
vt 0.989700 0.901400
vt 0.997100 0.883300
vt 0.536100 0.893300
vt 0.271700 0.893300
vt 0.271700 0.264600
vt 0.536100 0.264600
vt 0.536100 0.893300
vt 0.768100 0.893300
vt 0.784700 0.888900
vt 0.796400 0.876700
vt 0.800800 0.860200
vt 0.800800 0.652300
vt 0.800800 0.468300
vt 0.800800 0.264600
vt 0.536100 0.264600
vt 0.264600 0.872400
vt 0.000000 0.872400
vt 0.000000 0.640900
vt 0.264600 0.640900
vt 0.271700 0.000000
vt 0.536100 0.000000
vt 0.257800 0.901000
vt 0.508800 0.901000
vt 0.508300 0.985400
vt 0.257800 0.985400
vt 0.508300 0.985400
vt 0.257800 0.985400
vt 0.257800 0.901000
vt 0.508300 0.901000
vt 0.508800 0.985400
vt 0.257800 0.985400
vt 0.257800 0.901000
vt 0.508300 0.901000
vt 0.257800 0.901000
vt 0.508300 0.901000
vt 0.508300 0.985400
vt 0.257800 0.985400
vt 0.777800 0.988200
vt 0.509300 0.988200
vt 0.517100 0.993400
vt 0.767600 0.993400
vt 0.509300 0.988200
vt 0.744600 0.988200
vt 0.739300 0.998500
vt 0.514200 0.998500
vt 0.509300 0.988200
vt 0.777800 0.988200
vt 0.767600 0.993400
vt 0.517100 0.993400
vt 0.744600 0.988200
vt 0.514200 0.995900
vt 0.739300 0.995900
vt 0.509300 0.900500
vt 0.777800 0.900500
vt 0.991200 0.698200
vt 0.805700 0.698200
vt 0.805700 0.491200
vt 0.991200 0.491200
vt 0.509300 0.988200
vt 0.509300 0.900500
vt 0.777800 0.900500
vt 0.777800 0.988200
vt 0.805700 0.269500
vt 0.999500 0.269500
vt 0.999500 0.491200
vt 0.805700 0.491200
vt 0.509300 0.900500
vt 0.777800 0.900500
vt 0.509300 0.988200
vt 0.509300 0.900500
vt 0.777800 0.900500
vt 0.777800 0.988200
vt 0.627400 0.988400
vt 0.509300 0.988400
vt 0.509300 0.993500
vt 0.627400 0.993500
vt 0.509300 0.993500
vt 0.765100 0.993500
vt 0.765100 0.988400
vt 0.509300 0.988400
vt 0.627400 0.988400
vt 0.509300 0.988400
vt 0.509300 0.993500
vt 0.627400 0.993500
vt 0.765100 0.988400
vt 0.509300 0.988400
vt 0.509300 0.993500
vt 0.765100 0.993500
vt 0.943400 0.700000
vt 0.943400 0.997100
vt 0.806200 0.997100
vt 0.806200 0.700000
vt 0.255600 0.874500
vt 0.255600 0.992700
vt -0.000200 0.992700
vt -0.000200 0.874500
vt 0.257800 0.901000
vt 0.508800 0.901000
vt 0.508300 0.985400
vt 0.257800 0.985400
vt 0.508300 0.985400
vt 0.257800 0.985400
vt 0.257800 0.901000
vt 0.508300 0.901000
vt 0.508800 0.985400
vt 0.257800 0.985400
vt 0.257800 0.901000
vt 0.508300 0.901000
vt 0.257800 0.901000
vt 0.508300 0.901000
vt 0.508300 0.985400
vt 0.257800 0.985400
vt 0.777800 0.988200
vt 0.509300 0.988200
vt 0.517100 0.993400
vt 0.767600 0.993400
vt 0.509300 0.988200
vt 0.744600 0.988200
vt 0.739300 0.998500
vt 0.514200 0.998500
vt 0.509300 0.988200
vt 0.777800 0.988200
vt 0.767600 0.993400
vt 0.517100 0.993400
vt 0.744600 0.988200
vt 0.514200 0.995900
vt 0.739300 0.995900
vt 0.509300 0.900500
vt 0.777800 0.900500
vt 0.991200 0.698200
vt 0.805700 0.698200
vt 0.805700 0.491200
vt 0.991200 0.491200
vt 0.509300 0.988200
vt 0.509300 0.900500
vt 0.777800 0.900500
vt 0.777800 0.988200
vt 0.805700 0.269500
vt 0.999500 0.269500
vt 0.999500 0.491200
vt 0.805700 0.491200
vt 0.509300 0.900500
vt 0.777800 0.900500
vt 0.509300 0.988200
vt 0.509300 0.900500
vt 0.777800 0.900500
vt 0.777800 0.988200
vt 0.627400 0.988400
vt 0.509300 0.988400
vt 0.509300 0.993500
vt 0.627400 0.993500
vt 0.509300 0.993500
vt 0.765100 0.993500
vt 0.765100 0.988400
vt 0.509300 0.988400
vt 0.627400 0.988400
vt 0.509300 0.988400
vt 0.509300 0.993500
vt 0.627400 0.993500
vt 0.765100 0.988400
vt 0.509300 0.988400
vt 0.509300 0.993500
vt 0.765100 0.993500
vt 0.943400 0.700000
vt 0.943400 0.997100
vt 0.806200 0.997100
vt 0.806200 0.700000
vt 0.255600 0.874500
vt 0.255600 0.992700
vt -0.000200 0.992700
vt -0.000200 0.874500
vt 0.257800 0.901000
vt 0.508800 0.901000
vt 0.508300 0.985400
vt 0.257800 0.985400
vt 0.508300 0.985400
vt 0.257800 0.985400
vt 0.257800 0.901000
vt 0.508300 0.901000
vt 0.508800 0.985400
vt 0.257800 0.985400
vt 0.257800 0.901000
vt 0.508300 0.901000
vt 0.257800 0.901000
vt 0.508300 0.901000
vt 0.508300 0.985400
vt 0.257800 0.985400
vt 0.777800 0.988200
vt 0.509300 0.988200
vt 0.517100 0.993400
vt 0.767600 0.993400
vt 0.509300 0.988200
vt 0.744600 0.988200
vt 0.739300 0.998500
vt 0.514200 0.998500
vt 0.509300 0.988200
vt 0.777800 0.988200
vt 0.767600 0.993400
vt 0.517100 0.993400
vt 0.744600 0.988200
vt 0.514200 0.995900
vt 0.739300 0.995900
vt 0.509300 0.900500
vt 0.777800 0.900500
vt 0.991200 0.698200
vt 0.805700 0.698200
vt 0.805700 0.491200
vt 0.991200 0.491200
vt 0.509300 0.988200
vt 0.509300 0.900500
vt 0.777800 0.900500
vt 0.777800 0.988200
vt 0.805700 0.269500
vt 0.999500 0.269500
vt 0.999500 0.491200
vt 0.805700 0.491200
vt 0.509300 0.900500
vt 0.777800 0.900500
vt 0.509300 0.988200
vt 0.509300 0.900500
vt 0.777800 0.900500
vt 0.777800 0.988200
vt 0.627400 0.988400
vt 0.509300 0.988400
vt 0.509300 0.993500
vt 0.627400 0.993500
vt 0.509300 0.993500
vt 0.765100 0.993500
vt 0.765100 0.988400
vt 0.509300 0.988400
vt 0.627400 0.988400
vt 0.509300 0.988400
vt 0.509300 0.993500
vt 0.627400 0.993500
vt 0.765100 0.988400
vt 0.509300 0.988400
vt 0.509300 0.993500
vt 0.765100 0.993500
vt 0.943400 0.700000
vt 0.943400 0.997100
vt 0.806200 0.997100
vt 0.806200 0.700000
vt 0.255600 0.874500
vt 0.255600 0.992700
vt -0.000200 0.992700
vt -0.000200 0.874500
vt 0.923800 0.053700
vt 0.973100 0.053700
vt 0.996100 0.249500
vt 0.923800 0.249500
vt 0.973100 0.053700
vt 0.996100 0.249500
vt 0.973100 0.053700
vt 0.923800 0.053700
vt 0.923800 0.251000
vt 0.996100 0.251000
vt 0.923800 0.053700
vt 0.923800 0.251000
vt 0.923800 0.004900
vt 0.973100 0.004900
vt 0.923800 0.053700
vt 0.923800 0.249500
vt 0.996100 0.249500
vt 0.973100 0.053700
vt 0.973100 0.053700
vt 0.996100 0.249500
vt 0.973100 0.053700
vt 0.996100 0.249500
vt 0.923800 0.249500
vt 0.923800 0.053700
vt 0.923800 0.053700
vt 0.923800 0.251000
vt 0.996100 0.251000
vt 0.973100 0.004900
vt 0.923800 0.004900
vt 0.923800 0.053700
vt 0.923800 0.249500
vt 0.996100 0.249500
vt 0.973100 0.053700
vt 0.973100 0.053700
vt 0.996100 0.249500
vt 0.973100 0.053700
vt 0.996100 0.251000
vt 0.923800 0.251000
vt 0.923800 0.053700
vt 0.923800 0.053700
vt 0.923800 0.249500
vt 0.996100 0.249500
vt 0.973100 0.004900
vt 0.923800 0.004900
vt 0.923800 0.053700
vt 0.973100 0.053700
vt 0.996100 0.249500
vt 0.923800 0.249500
vt 0.973100 0.053700
vt 0.996100 0.249500
vt 0.973100 0.053700
vt 0.923800 0.053700
vt 0.923800 0.249500
vt 0.996100 0.249500
vt 0.923800 0.053700
vt 0.923800 0.249500
vt 0.923800 0.004900
vt 0.973100 0.004900
vt 0.923800 0.053700
vt 0.693400 0.005400
vt 0.918500 0.005400
vt 0.918500 0.265100
vt 0.693400 0.265100
vt 0.693400 0.265100
vt 0.536100 0.265100
vt 0.536100 0.005400
vt 0.693400 0.005400
vt 0.918500 0.265100
vt 0.918500 0.005400
vt 0.536100 0.005400
vt 0.693400 0.005400
vt 0.693400 0.265100
vt 0.536100 0.265100
vt 0.693400 0.005400
vt 0.918500 0.005400
vt 0.918500 0.265100
vt 0.693400 0.265100
vt 0.693400 0.265100
vt 0.536100 0.265100
vt 0.536100 0.005400
vt 0.693400 0.005400
vt 0.918500 0.265100
vt 0.918500 0.005400
vt 0.536100 0.005400
vt 0.693400 0.005400
vt 0.693400 0.265100
vt 0.536100 0.265100
vt 0.693400 0.265100
vt 0.536100 0.265100
vt 0.536100 0.005400
vt 0.693400 0.005400
vt 0.918500 0.265100
vt 0.918500 0.005400
vt 0.536100 0.005400
vt 0.693400 0.005400
vt 0.693400 0.265100
vt 0.536100 0.265100
vt 0.693400 0.005400
vt 0.918500 0.005400
vt 0.918500 0.265100
vt 0.693400 0.265100
vt 0.693400 0.005400
vt 0.693400 0.264600
vt 0.536100 0.264600
vt 0.536100 0.005400
vt 0.693400 0.005400
vt 0.693400 0.264600
vt 0.536100 0.264600
vt 0.536100 0.005400
vt 0.000000 0.595700
vt 0.264600 0.595700
vt 0.264600 0.612300
vt 0.000000 0.612300
vt 0.264600 0.624300
vt 0.000000 0.624300
vt 0.985400 0.883300
vt 0.985400 0.729700
vt 0.997100 0.729700
vt 0.989700 0.711400
vt 0.981400 0.711400
vt 0.972200 0.704100
vt 0.972200 0.729700
vt 0.972200 0.883300
vt 0.972200 0.901400
vt 0.981400 0.901400
vt 0.972200 0.908900
vt 0.989700 0.901400
vt 0.997100 0.883300
vt 0.959000 0.729700
vt 0.962900 0.711400
vt 0.972200 0.711400
vt 0.959000 0.883300
vt 0.962900 0.901400
vt 0.955100 0.901400
vt 0.947800 0.883300
vt 0.947800 0.729700
vt 0.955100 0.711400
vt 0.985400 0.883300
vt 0.985400 0.729700
vt 0.997100 0.729700
vt 0.989700 0.711400
vt 0.981400 0.711400
vt 0.972200 0.704100
vt 0.972200 0.711400
vt 0.962900 0.711400
vt 0.959000 0.729700
vt 0.947800 0.729700
vt 0.947800 0.883300
vt 0.959000 0.883300
vt 0.955100 0.711400
vt 0.955100 0.901400
vt 0.962900 0.901400
vt 0.972200 0.908900
vt 0.972200 0.901400
vt 0.972200 0.883300
vt 0.972200 0.729700
vt 0.981400 0.901400
vt 0.989700 0.901400
vt 0.997100 0.883300
vt 0.264600 0.000000
vt 0.264600 0.203600
vt 0.241100 0.184600
vt 0.023600 0.184600
vt 0.000000 0.203600
vt 0.023600 0.038100
vt 0.000000 0.000000
vt 0.241100 0.038100
vt 0.241100 0.222700
vt 0.023600 0.222700
vt 0.000000 0.387700
vt 0.023600 0.373500
vt 0.264600 0.387700
vt 0.241100 0.373500
vt 0.241100 0.553200
vt 0.023600 0.553200
vt 0.023600 0.406700
vt 0.241100 0.406700
vt 0.800800 0.264600
vt 0.800800 0.468300
vt 0.800800 0.652300
vt 0.800800 0.860100
vt 0.796400 0.876700
vt 0.784700 0.888900
vt 0.768100 0.893300
vn 0.0000 0.0000 -1.0000
vn 0.9502 0.1532 -0.2714
vn 0.8023 0.4774 -0.3583
vn 0.9605 0.2641 -0.0880
vn 0.0846 0.9526 -0.2922
vn 0.5071 0.8176 -0.2725
vn 0.6896 0.0940 -0.7180
vn 0.1922 0.1217 -0.9738
vn 0.1215 0.2259 -0.9665
vn 0.5734 0.1990 -0.7947
vn 0.9321 0.1448 -0.3321
vn 0.7274 0.3810 -0.5707
vn 0.8023 0.4773 -0.3583
vn 0.2526 0.8343 -0.4901
vn 0.5176 0.8190 -0.2476
vn -0.2511 0.9265 -0.2801
vn -0.2508 0.8341 -0.4913
vn -0.5155 0.8150 -0.2647
vn -0.6416 0.6335 -0.4324
vn -0.9605 0.2641 -0.0880
vn -0.9456 0.1510 -0.2883
vn -0.7282 0.3814 -0.5694
vn -0.2249 0.5597 -0.7976
vn 0.2254 0.5592 -0.7978
vn 0.4152 0.3708 -0.8307
vn -0.1449 0.3103 -0.9395
vn -0.7381 0.1963 -0.6456
vn -0.7380 0.1963 -0.6456
vn -0.6883 0.0959 -0.7191
vn -0.7381 0.1963 -0.6455
vn -0.0902 0.1253 -0.9880
vn -0.3866 0.1144 -0.9151
vn 0.0000 -0.0000 1.0000
vn -1.0000 -0.0000 0.0000
vn 0.0000 1.0000 0.0000
vn 0.0000 -1.0000 -0.0000
vn 1.0000 -0.0000 0.0000
vn 0.0000 1.0000 -0.0003
vn 0.0000 0.1276 0.9918
vn 0.0000 -0.1271 -0.9919
vn 0.0034 0.9920 -0.1258
vn -0.0020 0.9920 -0.1260
vn 0.0036 0.9920 -0.1258
vn -0.0034 0.9921 -0.1257
vn -0.0033 0.9921 -0.1257
vn 0.0020 0.9920 -0.1261
vn 0.0022 0.9920 -0.1261
vn 0.0000 0.9919 -0.1270
vn 0.0000 -0.9919 0.1274
vn 0.0000 -0.1274 -0.9918
vn 0.0000 0.1268 0.9919
vn 0.0000 0.9923 -0.1240
vn 0.0000 -0.9918 0.1280
vn 0.0000 -0.1278 -0.9918
vn 0.0000 0.1269 0.9919
vn 0.0000 0.0650 0.9979
vn 0.0000 -0.0652 -0.9979
vn 0.0032 0.9980 -0.0637
vn 0.0134 0.9971 -0.0744
vn 0.0133 0.9971 -0.0744
vn 0.0027 0.9980 -0.0637
vn -0.0031 0.9980 -0.0639
vn -0.0032 0.9980 -0.0639
vn -0.0133 0.9972 -0.0742
vn -0.0031 0.9979 -0.0639
vn -0.0032 0.9979 -0.0639
vn -0.0137 0.9971 -0.0742
vn 0.0000 0.9979 -0.0651
vn 0.0000 -0.9979 0.0655
vn 0.0000 -0.0649 -0.9979
vn 0.0000 0.0652 0.9979
vn 0.0000 -0.9979 0.0644
vn 0.0000 -0.0660 -0.9978
vn 0.0000 0.0653 0.9979
vn -0.9929 -0.1186 0.0000
vn 0.0000 -0.1186 -0.9929
vn 0.9929 -0.1186 -0.0000
vn 0.0000 -0.1186 0.9929
vn -0.0027 -1.0000 0.0000
vn -0.0007 -1.0000 -0.0000
vn 0.0000 0.2546 -0.9670
vn 0.0006 0.2627 -0.9649
vn 0.0003 0.5056 -0.8628
vn -0.0000 0.5020 -0.8649
vn -0.0000 0.2547 -0.9670
vn 0.0000 0.8642 -0.5031
vn -0.0001 0.8642 -0.5031
vn 0.0000 0.9615 -0.2747
vn -0.2009 0.1535 -0.9675
vn 0.1989 0.1521 -0.9681
vn 0.1883 0.0000 -0.9821
vn 0.6890 0.0000 -0.7248
vn 0.7021 0.1090 -0.7037
vn 0.9471 0.1138 -0.3000
vn 0.2245 0.4514 -0.8636
vn -0.2274 0.4511 -0.8630
vn -0.7310 0.3172 -0.6042
vn -0.7008 0.1112 -0.7046
vn -0.7309 0.3172 -0.6042
vn -0.9471 0.1138 -0.3000
vn -0.6890 0.0000 -0.7248
vn -0.1883 0.0000 -0.9821
vn 0.2542 0.7658 -0.5907
vn 0.7608 0.5020 -0.4114
vn 0.7338 0.3163 -0.6012
vn -0.2517 0.7643 -0.5937
vn -0.7616 0.4969 -0.4159
vn -0.7531 0.5923 -0.2863
vn -0.2500 0.8900 -0.3814
vn 0.2555 0.8865 -0.3858
vn 0.7450 0.5966 -0.2983
vn -0.1980 0.2017 -0.9592
vn 0.1965 0.2009 -0.9597
vn 0.1875 0.0594 -0.9805
vn 0.6849 0.0450 -0.7272
vn 0.6995 0.1466 -0.6995
vn 0.9461 0.1298 -0.2969
vn 0.7292 0.3519 -0.5869
vn 0.7627 0.5279 -0.3737
vn 0.2534 0.7961 -0.5495
vn 0.2567 0.9023 -0.3465
vn -0.2541 0.9038 -0.3443
vn -0.2535 0.7944 -0.5519
vn 0.9460 0.1298 -0.2969
vn 0.7516 0.6095 -0.2522
vn -0.7554 0.6071 -0.2468
vn -0.7608 0.5260 -0.3801
vn -0.9460 0.1298 -0.2969
vn -0.7258 0.3552 -0.5891
vn -0.9461 0.1298 -0.2969
vn -0.2239 0.4961 -0.8389
vn 0.2198 0.4955 -0.8403
vn 0.6995 0.1466 -0.6994
vn -0.6983 0.1481 -0.7003
vn -0.6984 0.1481 -0.7002
vn -0.6846 0.0455 -0.7275
vn -0.1878 0.0597 -0.9804
vn -0.6984 0.1481 -0.7003
vn 0.1875 0.0593 -0.9805
usemtl Cabinet_Shader
s 1
f 1/1/1 2/2/1 3/3/1
f 3/3/1 4/4/1 1/1/1
f 5/5/2 6/6/3 7/7/4
f 8/8/5 7/7/6 6/6/6
f 9/9/7 10/10/8 11/11/9
f 11/11/9 12/12/10 9/9/7
f 5/5/2 9/9/7 12/12/10
f 5/5/11 12/12/11 13/13/12
f 5/5/2 13/13/12 6/6/13
f 14/14/14 6/6/13 13/13/12
f 6/6/13 14/14/14 8/8/15
f 15/15/16 8/8/5 14/14/14
f 14/14/14 16/16/17 15/15/16
f 17/17/18 15/15/16 16/16/17
f 16/16/17 18/18/19 17/17/18
f 18/18/20 19/19/21 17/17/20
f 20/20/22 19/19/21 18/18/19
f 21/21/23 20/20/22 18/18/19
f 18/18/19 16/16/17 21/21/23
f 22/22/24 21/21/23 16/16/17
f 16/16/17 14/14/14 22/22/24
f 13/13/12 22/22/24 14/14/14
f 22/22/24 13/13/12 12/12/10
f 12/12/10 11/11/25 22/22/24
f 21/21/23 22/22/24 11/11/9
f 11/11/9 23/23/26 21/21/23
f 20/20/22 21/21/23 23/23/26
f 23/23/26 24/24/27 20/20/22
f 24/24/28 19/19/21 20/20/22
f 25/25/29 19/19/21 24/24/30
f 26/26/31 25/25/29 24/24/27
f 24/24/32 23/23/32 26/26/32
f 10/10/8 26/26/31 23/23/26
f 23/23/26 11/11/9 10/10/8
f 27/27/33 28/28/33 29/29/33
f 29/29/33 30/30/33 27/27/33
f 28/31/34 31/32/34 32/33/34
f 28/31/34 32/33/34 33/34/34
f 28/31/34 33/34/34 34/35/34
f 28/31/34 34/35/34 35/36/34
f 28/31/34 35/36/34 36/37/34
f 28/31/34 36/37/34 37/38/34
f 28/31/34 37/38/34 29/39/34
f 28/40/35 27/41/35 38/42/35
f 38/42/35 31/43/35 28/40/35
f 29/29/36 37/44/36 39/45/36
f 39/45/36 30/30/36 29/29/36
f 40/46/37 41/47/37 42/48/37
f 42/48/37 43/49/37 40/46/37
f 44/50/33 40/51/33 43/52/33
f 43/52/33 45/53/33 44/50/33
f 46/54/34 44/55/34 45/56/34
f 45/56/34 47/57/34 46/54/34
f 41/58/1 46/59/1 47/60/1
f 47/60/1 42/61/1 41/58/1
f 48/62/35 49/63/35 41/64/35
f 41/64/35 40/65/35 48/62/35
f 50/66/35 48/67/35 40/68/35
f 40/68/35 44/69/35 50/66/35
f 51/70/35 50/71/35 44/72/35
f 44/72/35 46/73/35 51/70/35
f 49/74/35 51/70/35 46/75/35
f 46/75/35 41/76/35 49/74/35
f 51/70/37 52/77/37 53/78/37
f 53/78/37 50/71/37 51/70/37
f 42/79/38 47/80/38 45/81/38
f 45/81/38 43/82/38 42/79/38
f 54/83/34 49/84/34 48/85/34
f 48/85/34 55/86/34 54/83/34
f 52/87/36 54/88/36 55/89/36
f 55/89/36 53/90/36 52/87/36
f 53/91/1 55/92/1 48/62/1
f 48/62/1 50/66/1 53/91/1
f 52/93/33 51/94/33 49/95/33
f 49/95/33 54/96/33 52/93/33
f 56/97/37 57/98/37 58/99/37
f 58/99/37 59/100/37 56/97/37
f 60/101/35 56/102/35 59/103/35
f 59/103/35 61/104/35 60/101/35
f 62/105/34 60/106/34 61/107/34
f 61/107/34 63/108/34 62/105/34
f 57/109/36 62/110/36 63/111/36
f 63/111/36 58/112/36 57/109/36
f 58/113/1 63/114/1 61/115/1
f 61/115/1 59/116/1 58/113/1
f 57/117/33 56/118/33 60/119/33
f 60/119/33 62/120/33 57/117/33
f 64/121/37 65/122/37 66/123/37
f 66/123/37 67/124/37 64/121/37
f 68/125/39 64/126/39 67/127/39
f 67/127/39 69/128/39 68/125/39
f 70/129/34 68/130/34 69/131/34
f 69/131/34 71/132/34 70/129/34
f 65/133/40 70/134/40 71/135/40
f 71/135/40 66/136/40 65/133/40
f 72/137/41 73/138/42 65/139/42
f 65/139/42 64/140/43 72/137/41
f 74/141/44 72/142/41 64/143/43
f 64/143/43 68/144/45 74/141/44
f 75/145/46 74/146/44 68/147/45
f 68/147/45 70/148/47 75/145/46
f 73/149/42 75/145/46 70/150/47
f 70/150/47 65/151/42 73/149/42
f 75/145/37 76/152/37 77/153/37
f 77/153/37 74/146/37 75/145/37
f 66/154/48 71/155/48 69/156/48
f 69/156/48 67/157/48 66/154/48
f 78/158/34 73/159/34 72/160/34
f 72/160/34 79/161/34 78/158/34
f 76/162/49 78/163/49 79/164/49
f 79/164/49 77/165/49 76/162/49
f 77/166/50 79/167/50 72/137/50
f 72/137/50 74/141/50 77/166/50
f 76/168/51 75/169/51 73/170/51
f 73/170/51 78/171/51 76/168/51
f 80/172/37 81/173/37 82/174/37
f 82/174/37 83/175/37 80/172/37
f 84/176/52 80/177/52 83/178/52
f 83/178/52 85/179/52 84/176/52
f 86/180/34 84/181/34 85/182/34
f 85/182/34 87/183/34 86/180/34
f 81/184/53 86/185/53 87/186/53
f 87/186/53 82/187/53 81/184/53
f 82/188/54 87/189/54 85/190/54
f 85/190/54 83/191/54 82/188/54
f 81/192/55 80/193/55 84/194/55
f 84/194/55 86/195/55 81/192/55
f 88/196/37 89/197/37 90/198/37
f 90/198/37 91/199/37 88/196/37
f 92/200/56 88/201/56 91/202/56
f 91/202/56 93/203/56 92/200/56
f 94/204/34 92/205/34 93/206/34
f 93/206/34 95/207/34 94/204/34
f 89/208/57 94/209/57 95/210/57
f 95/210/57 90/211/57 89/208/57
f 96/212/58 97/213/59 89/214/60
f 89/214/60 88/215/61 96/212/58
f 98/216/62 96/217/58 88/218/61
f 88/218/61 92/219/63 98/216/62
f 99/220/64 98/221/65 92/222/66
f 92/222/63 94/223/67 99/220/64
f 97/224/59 99/220/64 94/225/67
f 94/225/67 89/226/60 97/224/59
f 99/220/37 100/227/37 101/228/37
f 101/228/37 98/221/37 99/220/37
f 90/229/68 95/230/68 93/231/68
f 93/231/68 91/232/68 90/229/68
f 102/233/34 97/234/34 96/235/34
f 96/235/34 103/236/34 102/233/34
f 100/237/69 102/238/69 103/239/69
f 103/239/69 101/240/69 100/237/69
f 101/241/70 103/242/70 96/212/70
f 96/212/70 98/216/70 101/241/70
f 100/243/71 99/244/71 97/245/71
f 97/245/71 102/246/71 100/243/71
f 104/247/37 105/248/37 106/249/37
f 106/249/37 107/250/37 104/247/37
f 108/251/35 104/252/35 107/253/35
f 107/253/35 109/254/35 108/251/35
f 110/255/34 108/256/34 109/257/34
f 109/257/34 111/258/34 110/255/34
f 105/259/72 110/260/72 111/261/72
f 111/261/72 106/262/72 105/259/72
f 106/263/73 111/264/73 109/265/73
f 109/265/73 107/266/73 106/263/73
f 105/267/74 104/268/74 108/269/74
f 108/269/74 110/270/74 105/267/74
f 112/271/37 113/272/37 114/273/37
f 114/273/37 30/274/37 112/271/37
f 115/275/33 112/271/33 30/274/33
f 30/274/33 116/276/33 115/275/33
f 117/277/75 115/278/75 116/279/75
f 116/279/75 118/280/75 117/277/75
f 113/281/76 117/277/76 118/280/76
f 118/280/76 114/282/76 113/281/76
f 113/272/36 112/271/36 115/283/36
f 115/283/36 117/284/36 113/272/36
f 119/285/34 29/286/34 120/287/34
f 120/287/34 121/288/34 119/285/34
f 122/289/33 123/290/33 29/286/33
f 29/286/33 119/285/33 122/289/33
f 124/291/77 125/292/77 123/293/77
f 123/293/77 122/294/77 124/291/77
f 121/295/76 120/296/76 125/297/76
f 125/297/76 124/291/76 121/295/76
f 121/288/36 124/298/36 122/299/36
f 122/299/36 119/285/36 121/288/36
f 126/300/37 39/301/37 127/302/37
f 127/302/37 128/303/37 126/300/37
f 129/304/1 130/305/1 39/301/1
f 39/301/1 126/300/1 129/304/1
f 131/306/75 132/307/75 130/308/75
f 130/308/75 129/309/75 131/306/75
f 128/310/78 127/311/78 132/312/78
f 132/312/78 131/306/78 128/310/78
f 128/303/36 131/313/36 129/314/36
f 129/314/36 126/300/36 128/303/36
f 133/315/34 134/316/34 135/317/34
f 135/317/34 37/318/34 133/315/34
f 136/319/1 133/315/1 37/318/1
f 37/318/1 137/320/1 136/319/1
f 138/321/77 136/322/77 137/323/77
f 137/323/77 139/324/77 138/321/77
f 134/325/78 138/321/78 139/324/78
f 139/324/78 135/326/78 134/325/78
f 134/327/36 133/328/36 136/319/36
f 136/319/36 138/329/36 134/327/36
f 140/330/35 141/331/35 142/332/35
f 142/332/35 143/333/35 140/330/35
f 144/334/34 140/335/34 143/336/34
f 143/336/34 145/337/34 144/334/34
f 146/338/36 144/334/36 145/337/36
f 145/337/36 147/339/36 146/338/36
f 141/340/37 146/341/37 147/342/37
f 147/342/37 142/343/37 141/340/37
f 148/344/35 149/345/35 150/346/35
f 150/346/35 151/347/35 148/344/35
f 152/348/34 148/349/34 151/350/34
f 151/350/34 153/351/34 152/348/34
f 154/352/79 152/348/79 153/351/79
f 153/351/79 155/353/79 154/352/79
f 149/354/37 154/355/37 155/356/37
f 155/356/37 150/357/37 149/354/37
f 156/358/34 157/359/34 4/360/34
f 4/360/34 3/361/34 156/358/34
f 158/362/80 156/358/80 3/361/80
f 3/361/80 2/363/80 158/362/80
f 159/364/37 158/365/37 2/366/37
f 2/366/37 1/367/37 159/364/37
f 157/368/35 159/369/35 1/370/35
f 1/370/35 4/371/35 157/368/35
f 147/372/1 145/373/1 143/374/1
f 143/374/1 142/375/1 147/372/1
f 155/376/1 153/377/1 151/378/1
f 151/378/1 150/379/1 155/376/1
f 160/380/81 34/381/82 33/382/83
f 33/382/83 161/383/84 160/380/85
f 161/383/84 33/382/83 32/384/86
f 32/384/86 162/385/87 161/383/84
f 162/385/86 32/384/86 31/43/88
f 31/43/88 38/42/88 162/385/86
f 163/386/89 164/387/90 165/388/91
f 166/389/92 165/388/91 164/387/90
f 164/387/90 167/390/93 166/389/92
f 168/391/94 166/389/92 167/390/93
f 167/390/93 164/387/90 169/392/95
f 170/393/96 169/392/95 164/387/90
f 164/387/90 163/386/89 170/393/96
f 171/394/97 170/393/96 163/386/89
f 163/386/89 172/395/98 171/394/99
f 172/395/98 173/396/100 171/394/99
f 174/397/101 173/396/100 172/395/98
f 175/398/102 174/397/101 172/395/98
f 172/395/98 163/386/89 175/398/102
f 165/388/91 175/398/102 163/386/89
f 176/399/103 177/400/104 178/401/105
f 178/401/105 169/392/95 176/399/103
f 179/402/106 176/399/103 169/392/95
f 169/392/95 170/393/96 179/402/106
f 180/403/107 179/402/106 170/393/96
f 170/393/96 171/394/99 180/403/107
f 171/394/99 173/396/100 180/403/107
f 180/403/107 173/396/100 181/404/108
f 179/402/106 180/403/107 181/404/108
f 181/404/108 182/405/109 179/402/106
f 176/399/103 179/402/106 182/405/109
f 182/405/109 183/406/110 176/399/103
f 177/400/104 176/399/103 183/406/110
f 183/406/110 184/407/111 177/400/104
f 168/391/94 177/400/104 184/407/111
f 168/391/94 178/401/105 177/400/104
f 168/391/94 167/390/93 178/401/105
f 169/392/95 178/401/105 167/390/93
f 185/408/112 186/409/113 187/410/114
f 188/411/115 187/410/114 186/409/113
f 186/409/113 189/412/116 188/411/115
f 190/413/117 188/411/115 189/412/116
f 190/413/117 189/412/116 191/414/118
f 190/413/117 191/414/118 192/415/119
f 193/416/120 192/415/119 191/414/118
f 192/415/119 193/416/120 194/417/121
f 195/418/122 194/417/121 193/416/120
f 193/416/120 196/419/123 195/418/122
f 190/413/124 192/415/119 197/420/125
f 194/417/121 197/420/125 192/415/119
f 198/421/126 195/418/122 196/419/123
f 196/419/123 199/422/127 198/421/126
f 199/422/127 200/423/128 198/421/126
f 201/424/129 200/423/130 199/422/127
f 202/425/131 201/424/129 199/422/127
f 199/422/127 196/419/123 202/425/131
f 203/426/132 202/425/131 196/419/123
f 196/419/123 193/416/120 203/426/132
f 191/414/118 203/426/132 193/416/120
f 203/426/132 191/414/118 189/412/133
f 189/412/116 186/409/113 203/426/132
f 202/425/131 203/426/132 186/409/113
f 186/409/113 185/408/112 202/425/131
f 201/424/129 202/425/131 185/408/112
f 185/408/112 204/427/134 201/424/129
f 204/427/135 200/423/130 201/424/129
f 205/428/136 200/423/130 204/427/135
f 206/429/137 205/428/136 204/427/138
f 204/427/138 185/408/112 206/429/137
f 187/410/139 206/429/137 185/408/112
f 37/430/1 36/431/1 158/432/1
f 156/433/1 158/432/1 36/431/1
f 36/431/1 207/434/1 156/433/1
f 157/435/1 156/433/1 207/434/1
f 207/434/1 39/436/1 157/435/1
f 159/437/1 157/435/1 39/436/1
f 39/436/1 37/430/1 159/437/1
f 158/432/1 159/437/1 37/430/1
f 207/434/1 36/431/1 141/438/1
f 141/438/1 140/439/1 207/434/1
f 208/440/1 207/434/1 140/439/1
f 140/439/1 144/441/1 208/440/1
f 35/442/1 208/440/1 144/441/1
f 144/441/1 146/443/1 35/442/1
f 36/431/1 35/442/1 146/443/1
f 146/443/1 141/438/1 36/431/1
f 35/442/1 34/381/1 154/444/1
f 152/445/1 154/444/1 34/381/1
f 34/381/1 160/380/1 152/445/1
f 148/446/1 152/445/1 160/380/1
f 160/380/1 208/440/1 148/446/1
f 149/447/1 148/446/1 208/440/1
f 208/440/1 35/442/1 149/447/1
f 154/444/1 149/447/1 35/442/1
f 30/30/37 39/448/37 207/449/37
f 30/30/37 207/449/37 208/450/37
f 30/30/37 208/450/37 160/451/37
f 30/30/37 160/451/37 161/452/37
f 30/30/37 161/452/37 162/453/37
f 30/30/37 162/453/37 38/454/37
f 30/30/37 38/454/37 27/27/37
