# This file uses centimeters as units for non-parametric coordinates.

g default
v 1.002392 0.228853 1.635134
v 0.176022 0.365078 1.648132
v 0.606487 0.399652 1.871917
v 1.093834 0.083203 0.911875
v -0.036804 0.085301 0.997670
v 0.556391 0.084200 1.200023
v 1.257656 0.392670 0.785122
v 1.143154 0.724902 1.710791
v -0.215897 0.363205 0.908821
v -0.360706 0.085902 0.169540
v 0.037991 0.702803 1.803565
v 0.613802 0.825825 2.060580
v 1.201780 0.083003 -0.055120
v 0.978472 0.908316 1.679517
v 1.051315 0.547256 -0.026140
v 0.159832 0.891946 1.748239
v -0.251667 0.521201 0.083241
v 1.145735 0.728410 0.663521
v 0.580023 1.129353 1.897954
v 0.488991 0.477836 -0.193807
v 0.027891 0.733539 0.749172
v 0.037991 0.702803 1.803565
v 1.143154 0.724902 1.710791
v 1.257656 0.392670 0.785122
v 0.571217 0.927331 0.636052
v -0.215897 0.363205 0.908821
v 0.613802 0.825825 2.060580
v 1.201780 0.083003 -0.055120
v -0.375185 0.085928 0.016854
v -0.360706 0.085902 0.169540
v 0.445156 0.084407 -0.317937
v -0.885166 0.296183 -1.615751
v 0.225143 0.551360 0.114129
v 0.179052 0.296183 -2.039284
v 1.321728 0.623655 -0.737051
v -0.741034 0.432411 -0.718082
v -0.440825 0.504735 -1.995077
v 0.560518 0.649398 0.015732
v 0.590105 0.471069 -1.442474
v -0.069221 0.734427 -1.085068
v -1.036642 0.087156 -1.604085
v 0.218424 0.084827 0.426974
v 0.218891 0.084826 -2.284369
v 1.630219 0.082208 -0.545424
v -0.823151 0.086760 -0.679933
v 0.868404 0.083621 -1.598888
v 0.835522 0.083682 0.372601
v -0.484919 0.086132 -2.040454
v -1.152740 0.660284 0.699381
v -1.158983 0.316183 -1.073208
v -1.263599 0.087214 1.189996
v -0.034340 0.536193 0.611440
v 0.185223 0.284416 1.030908
v 0.109951 0.440192 0.032781
v -0.556099 0.744734 0.953233
v -1.383881 0.498732 0.154570
v -1.308609 0.342956 1.152697
v -1.637266 0.168340 0.284216
v -0.635574 0.576528 0.059257
v -0.568235 0.351205 1.220401
v 0.193016 0.084874 -0.698651
v -1.239964 0.087533 -1.118219
v 0.032974 0.085171 1.136622
v -0.947617 0.086991 -1.213775
v -1.598093 0.088197 0.048517
v -1.616840 0.088232 0.306535
v 0.306246 0.084664 0.128171
v -0.581274 0.086732 -0.900124
v -0.564137 0.086279 1.264130
v -0.952881 0.000000 2.438112
v -0.305716 0.000000 2.879309
v 0.511061 0.000000 2.613158
v 1.006090 0.000000 2.011803
v 1.366344 0.000000 0.977463
v 1.886890 0.000000 -0.212028
v 1.553457 0.000000 -1.645423
v 0.592117 0.000000 -2.657683
v -0.115856 0.000000 -2.879309
v -1.430519 0.000000 -2.610533
v -1.843653 0.000000 -1.999672
v -1.886890 0.000000 -0.960452
v -1.678432 0.000000 0.397509
v -1.631264 0.000000 1.432015
v -1.502827 0.000000 2.004768
v -0.909025 0.133823 2.325901
v -0.291645 0.133823 2.746793
v 0.487539 0.133823 2.492891
v 0.959785 0.133823 1.919212
v 1.303461 0.133823 0.932476
v 1.800049 0.133823 -0.202270
v 1.481962 0.133823 -1.569694
v 0.564865 0.133823 -2.535367
v -0.110523 0.133823 -2.746793
v -1.364681 0.133823 -2.490386
v -1.758801 0.133823 -1.907639
v -1.800049 0.133823 -0.916248
v -1.601185 0.133823 0.379214
v -1.556187 0.133823 1.366109
v -1.433661 0.133823 1.912501
vt 0.402709 0.040269
vt 0.401460 0.010979
vt 0.455757 0.046480
vt 0.479676 0.016942
vt 0.445863 0.157080
vt 0.396617 0.196680
vt 0.430494 0.134697
vt 0.506157 0.107511
vt 0.476303 0.100368
vt 0.428071 0.083514
vt 0.481674 0.065911
vt 0.515141 0.055895
vt 0.330984 0.013661
vt 0.236178 0.142979
vt 0.293746 0.160228
vt 0.207982 0.167633
vt 0.290828 0.191030
vt 0.377163 0.176907
vt 0.375506 0.156692
vt 0.300097 0.113773
vt 0.392650 0.125165
vt 0.228127 0.100366
vt 0.255604 0.049236
vt 0.308731 0.069423
vt 0.387375 0.090930
vt 0.396332 0.073383
vt 0.320092 0.031822
vt 0.249325 0.015772
vt 0.236480 0.020976
vt 0.415237 0.130655
vt 0.195452 0.091935
vt 0.164869 0.106250
vt 0.104053 0.119259
vt 0.125740 0.038714
vt 0.079947 0.050827
vt 0.144121 0.196677
vt 0.121938 0.204254
vt 0.054585 0.200045
vt 0.047387 0.131357
vt 0.037154 0.073688
vt 0.007487 0.138344
vt 0.016752 0.056082
vt 0.033456 0.237896
vt 0.175768 0.223194
vt 0.138537 0.020601
vt 0.191738 0.099661
vt 0.128353 0.254880
vt 0.072990 0.020043
vt 0.338205 0.337530
vt 0.311684 0.356463
vt 0.322177 0.298638
vt 0.285915 0.289646
vt 0.432284 0.382114
vt 0.431329 0.400768
vt 0.327013 0.373183
vt 0.305522 0.358856
vt 0.267719 0.287952
vt 0.348934 0.210680
vt 0.419965 0.217254
vt 0.367576 0.240791
vt 0.409496 0.249127
vt 0.378500 0.296465
vt 0.331226 0.259841
vt 0.472919 0.270280
vt 0.456300 0.336640
vt 0.456225 0.381065
vt 0.306849 0.241811
vt 0.290362 0.228892
vt 0.336759 0.196872
vt 0.574855 0.860247
vt 0.594057 0.805117
vt 0.603802 0.905788
vt 0.635343 0.771541
vt 0.706972 0.746636
vt 0.634874 0.941917
vt 0.672473 0.955840
vt 0.743359 0.962846
vt 0.790349 0.715813
vt 0.888153 0.738290
vt 0.837212 0.976343
vt 0.955359 0.805325
vt 0.970335 0.853537
vt 0.909007 0.970991
vt 0.951175 0.943628
vt 0.588662 0.913139
vt 0.557631 0.862026
vt 0.578016 0.799352
vt 0.622989 0.760681
vt 0.700059 0.732710
vt 0.791010 0.699890
vt 0.898217 0.725280
vt 0.971880 0.800447
vt 0.987693 0.853911
vt 0.965368 0.953863
vt 0.919347 0.984748
vt 0.841358 0.991966
vt 0.740561 0.978176
vt 0.663713 0.969610
vt 0.622665 0.953315
vn 0.744036 -0.641221 0.187738
vn 0.907245 -0.391630 0.153405
vn 0.555026 -0.681635 0.476780
vn 0.775262 -0.328558 0.539461
vn -0.821134 -0.430770 0.374402
vn -0.838421 -0.435571 0.327611
vn -0.645844 -0.624589 0.439060
vn -0.560563 -0.490065 0.667537
vn -0.457375 -0.719800 0.522204
vn -0.058230 -0.931188 0.359859
vn 0.007648 -0.638743 0.769382
vn 0.084530 -0.404564 0.910595
vn 0.895733 -0.433182 0.100081
vn 0.477246 0.659186 -0.581129
vn 0.646508 0.745750 -0.160888
vn 0.712393 0.282188 -0.642546
vn 0.953828 0.290932 -0.074637
vn 0.785051 0.605749 0.129473
vn 0.519674 0.854006 0.024756
vn -0.010437 0.969109 -0.246410
vn -0.039626 0.993072 0.110624
vn -0.036083 0.689176 -0.723695
vn -0.556441 0.697499 -0.451518
vn -0.585963 0.808218 -0.058569
vn -0.561149 0.825595 0.059205
vn -0.801148 0.572413 0.174655
vn -0.836189 0.548421 -0.004721
vn -0.915329 0.372275 0.153570
vn -0.500462 0.267595 -0.823365
vn 0.076879 0.507787 0.858045
vn -0.043139 0.288505 -0.956506
vn -0.597005 0.744936 0.297751
vn -0.112309 0.992107 -0.055778
vn -0.576417 0.810620 -0.103143
vn -0.218142 0.850262 -0.479029
vn -0.407490 0.748385 0.523328
vn 0.198951 0.915465 0.349776
vn 0.561237 0.826026 -0.051899
vn 0.296920 0.831367 -0.469753
vn 0.327350 0.825523 -0.459733
vn 0.595675 0.532613 -0.601244
vn 0.250070 0.630579 -0.734735
vn 0.839499 0.526223 0.135390
vn -0.367930 0.507011 0.779466
vn -0.869669 0.441775 -0.220254
vn -0.824265 0.251794 0.507136
vn 0.442651 0.606682 0.660301
vn -0.474800 0.144128 -0.868212
vn -0.446696 0.877916 -0.172416
vn -0.862042 0.498006 0.094203
vn -0.397681 0.914304 0.076799
vn -0.633095 0.492851 0.596899
vn -0.141203 0.906938 -0.396894
vn -0.836402 0.418521 -0.353938
vn -0.829352 0.494641 -0.259817
vn -0.936518 -0.142241 0.320471
vn -0.599708 0.015481 0.800069
vn 0.818717 0.369454 0.439553
vn 0.883203 0.468710 -0.016215
vn 0.489619 0.871616 -0.023635
vn 0.415452 0.870371 -0.264299
vn 0.068083 0.958827 -0.275710
vn 0.100443 0.949818 0.296239
vn 0.227312 0.885834 -0.404509
vn 0.302028 0.855577 -0.420437
vn 0.344851 0.700934 -0.624315
vn 0.073053 0.437679 0.896159
vn 0.041663 0.163343 0.985689
vn 0.586745 -0.044847 0.808529
vn -0.046688 0.927504 0.370887
vn 0.151128 0.966373 0.208045
vn -0.075242 0.991916 0.102187
vn 0.157120 0.984703 0.075324
vn 0.092697 0.995005 0.037038
vn -0.106362 0.992207 0.064901
vn -0.101955 0.994744 0.009497
vn -0.076640 0.997024 0.008366
vn 0.101797 0.994761 0.009348
vn 0.091055 0.994838 -0.044788
vn -0.096651 0.995284 0.008328
vn 0.068630 0.993803 -0.087434
vn -0.002728 0.982694 -0.185219
vn -0.181574 0.982543 -0.040514
vn -0.164758 0.934980 -0.314114
vn -0.442437 0.656907 0.610510
vn -0.077560 0.705616 0.704337
vn 0.382410 0.653905 0.652818
vn 0.727262 0.542527 0.420422
vn 0.812061 0.488773 0.318837
vn 0.839513 0.541955 0.038765
vn 0.694317 0.597741 -0.400786
vn 0.424136 0.656514 -0.623778
vn -0.024001 0.703911 -0.709883
vn -0.306677 0.714972 -0.628303
vn -0.727423 0.636883 -0.255412
vn -0.844373 0.534120 0.041838
vn -0.857225 0.507079 0.089649
vn -0.843244 0.526480 0.108438
vn -0.612433 0.638188 0.466522
s 1
g RockPile_01
f 4/1/1 7/2/2 1/3/3
f 1/3/3 7/2/2 8/4/4
f 9/5/5 10/6/6 5/7/7
f 11/8/8 9/5/5 2/9/9
f 2/9/9 9/5/5 5/7/7
f 5/7/7 6/10/10 2/9/9
f 2/9/9 6/10/10 3/11/11
f 3/11/11 6/10/10 1/3/3
f 1/3/3 6/10/10 4/1/1
f 2/9/9 3/11/11 11/8/8
f 11/8/8 3/11/11 12/12/12
f 1/3/3 8/4/4 3/11/11
f 3/11/11 8/4/4 12/12/12
f 4/1/1 13/13/13 7/2/2
s 3
f 15/14/14 18/15/15 28/16/16
f 24/17/17 28/16/16 18/15/15
f 24/17/17 18/15/15 23/18/18
f 23/18/18 18/15/15 14/19/19
f 18/15/15 25/20/20 14/19/19
f 14/19/19 25/20/20 19/21/21
f 18/15/15 15/14/14 25/20/20
f 25/20/20 15/14/14 20/22/22
f 20/22/22 17/23/23 25/20/20
f 25/20/20 17/23/23 21/24/24
f 19/21/21 25/20/20 16/25/25
f 16/25/25 25/20/20 21/24/24
f 16/25/25 21/24/24 22/26/26
f 22/26/26 21/24/24 26/27/27
f 26/27/27 21/24/24 30/28/28
f 29/29/29 30/28/28 17/23/23
f 21/24/24 17/23/23 30/28/28
f 23/18/18 14/19/19 27/30/30
f 27/30/30 14/19/19 19/21/21
f 22/26/26 27/30/30 16/25/25
f 16/25/25 27/30/30 19/21/21
f 29/29/29 17/23/23 31/31/31
f 31/31/31 17/23/23 20/22/22
f 31/31/31 20/22/22 28/16/16
f 28/16/16 20/22/22 15/14/14
s 4
f 36/32/32 40/33/33 32/34/34
f 32/34/34 40/33/33 37/35/35
f 40/33/33 33/36/36 38/37/37
f 40/33/33 35/38/38 39/39/39
f 37/35/35 40/33/33 34/40/40
f 34/40/40 40/33/33 39/39/39
f 39/39/39 46/41/41 34/40/40
f 34/40/40 46/41/41 43/42/42
f 39/39/39 35/38/38 46/41/41
f 46/41/41 35/38/38 44/43/43
f 36/32/32 42/44/44 33/36/36
f 41/45/45 45/46/46 36/32/32
f 44/43/43 35/38/38 47/47/47
f 47/47/47 35/38/38 38/37/37
f 47/47/47 38/37/37 42/44/44
f 42/44/44 38/37/37 33/36/36
f 37/35/35 41/45/45 32/34/34
f 43/42/42 48/48/48 37/35/35
f 43/42/42 37/35/35 34/40/40
f 48/48/48 41/45/45 37/35/35
f 40/33/33 38/37/37 35/38/38
f 36/32/32 33/36/36 40/33/33
f 41/45/45 36/32/32 32/34/34
f 45/46/46 42/44/44 36/32/32
s 6
f 56/49/49 58/50/50 49/51/51
f 49/51/51 58/50/50 57/52/52
f 50/53/53 62/54/54 56/49/49
f 58/50/50 56/49/49 65/55/55
f 56/49/49 62/54/54 65/55/55
f 58/50/50 65/55/55 66/56/56
f 58/50/50 66/56/56 57/52/52
f 57/52/52 66/56/56 51/57/57
f 53/58/58 67/59/59 52/60/60
f 52/60/60 67/59/59 54/61/61
f 54/61/61 59/62/62 52/60/60
f 52/60/60 59/62/62 55/63/63
f 61/64/64 68/65/65 54/61/61
f 54/61/61 68/65/65 59/62/62
f 50/53/53 68/65/65 64/66/66
f 49/51/51 59/62/62 56/49/49
f 50/53/53 64/66/66 62/54/54
f 52/60/60 55/63/63 53/58/58
f 55/63/63 57/52/52 60/67/67
f 57/52/52 51/57/57 60/67/67
f 60/67/67 51/57/57 69/68/68
f 53/58/58 60/67/67 63/69/69
f 63/69/69 60/67/67 69/68/68
f 63/69/69 67/59/59 53/58/58
f 67/59/59 61/64/64 54/61/61
f 59/62/62 50/53/53 56/49/49
f 59/62/62 68/65/65 50/53/53
f 53/58/58 55/63/63 60/67/67
f 55/63/63 49/51/51 57/52/52
f 55/63/63 59/62/62 49/51/51
s 9
f 86/70/70 87/71/71 85/72/72
f 87/71/71 88/73/73 85/72/72
f 88/73/73 89/74/74 85/72/72
f 85/72/72 89/74/74 99/75/75
f 99/75/75 89/74/74 98/76/76
f 98/76/76 89/74/74 97/77/77
f 89/74/74 90/78/78 97/77/77
f 90/78/78 91/79/79 97/77/77
f 97/77/77 91/79/79 96/80/80
f 91/79/79 92/81/81 96/80/80
f 92/81/81 93/82/82 96/80/80
f 96/80/80 93/82/82 95/83/83
f 93/82/82 94/84/84 95/83/83
f 70/85/85 71/86/86 86/70/70 85/72/72
f 86/70/70 71/86/86 72/87/87 87/71/71
f 87/71/71 72/87/87 73/88/88 88/73/73
f 88/73/73 73/88/88 74/89/89 89/74/74
f 74/89/89 75/90/90 90/78/78 89/74/74
f 75/90/90 76/91/91 91/79/79 90/78/78
f 76/91/91 77/92/92 92/81/81 91/79/79
f 77/92/92 78/93/93 93/82/82 92/81/81
f 78/93/93 79/94/94 94/84/84 93/82/82
f 94/84/84 79/94/94 80/95/95 95/83/83
f 95/83/83 80/95/95 81/96/96 96/80/80
f 96/80/80 81/96/96 82/97/97 97/77/77
f 82/97/97 83/98/98 98/76/76 97/77/77
f 83/98/98 84/99/99 99/75/75 98/76/76
f 84/99/99 70/85/85 85/72/72 99/75/75
