# Blender v2.79 (sub 0) OBJ File: ''
# www.blender.org
mtllib doctorbag.mtl
o Box02:0
v 0.052187 1.803098 0.479373
v 0.064477 1.666534 0.568616
v 0.082035 1.766109 0.568616
v 0.052187 1.803098 0.479373
v 0.023779 1.641983 0.479373
v 0.064477 1.666534 0.568616
v 0.052187 1.803098 0.479373
v 0.016183 1.726384 0.424218
v 0.023779 1.641983 0.479373
v 0.078585 1.678615 -0.089744
v 0.078585 1.610951 -0.292863
v -0.077216 1.678615 -0.089744
v -0.077216 1.610951 -0.292863
v -0.088617 1.693011 1.192441
v -0.123081 1.705555 1.192441
v -0.088617 1.693011 1.213815
v -0.123081 1.705555 1.213815
v -0.163251 1.489107 1.213815
v -0.199626 1.502347 1.213815
v -0.163251 1.489107 1.192441
v -0.199626 1.502347 1.192441
v -0.125588 1.691447 1.187275
v -0.101878 1.693521 1.187275
v -0.123514 1.667736 1.187275
v -0.099803 1.669811 1.187275
v -0.126934 1.669895 1.308528
v -0.103223 1.671970 1.308528
v -0.129008 1.693606 1.308528
v -0.105298 1.695680 1.308528
v -0.186250 1.523875 1.187275
v -0.162540 1.525949 1.187275
v -0.184176 1.500164 1.187275
v -0.160465 1.502239 1.187275
v -0.186876 1.504300 1.308528
v -0.163165 1.506374 1.308528
v -0.188950 1.528010 1.308528
v -0.165239 1.530085 1.308528
v -0.092864 1.693016 1.284153
v -0.127328 1.705560 1.284153
v -0.092864 1.693016 1.304543
v -0.127328 1.705560 1.304543
v -0.163251 1.489107 1.304543
v -0.199627 1.502347 1.304543
v -0.163251 1.489107 1.284152
v -0.199627 1.502347 1.284152
v -0.123081 1.705555 -1.213815
v -0.123081 1.705555 -1.192441
v -0.088617 1.693011 -1.213815
v -0.088617 1.693011 -1.192441
v -0.199626 1.502347 -1.192441
v -0.199626 1.502347 -1.213815
v -0.163251 1.489107 -1.192441
v -0.163251 1.489107 -1.213815
v -0.099803 1.669811 -1.187275
v -0.101878 1.693521 -1.187275
v -0.123514 1.667736 -1.187275
v -0.125588 1.691447 -1.187275
v -0.105298 1.695680 -1.308528
v -0.103223 1.671970 -1.308528
v -0.129008 1.693606 -1.308528
v -0.126934 1.669895 -1.308528
v -0.160465 1.502239 -1.187275
v -0.162540 1.525949 -1.187275
v -0.184176 1.500164 -1.187275
v -0.186250 1.523875 -1.187275
v -0.165239 1.530085 -1.308528
v -0.163165 1.506374 -1.308528
v -0.188950 1.528010 -1.308528
v -0.186876 1.504300 -1.308528
v -0.127328 1.705560 -1.304543
v -0.127328 1.705560 -1.284153
v -0.092864 1.693016 -1.304543
v -0.092864 1.693016 -1.284153
v -0.199627 1.502347 -1.284152
v -0.199627 1.502347 -1.304543
v -0.163251 1.489107 -1.284152
v -0.163251 1.489107 -1.304543
v 0.078585 1.610951 0.316494
v 0.078585 1.678615 0.113375
v -0.077216 1.610951 0.316494
v -0.077216 1.678615 0.113375
v 0.078585 1.678615 0.113375
v 0.078585 1.678615 -0.089744
v -0.077216 1.678615 0.113375
v -0.077216 1.678615 -0.089744
v -0.103363 1.699003 1.214438
v 0.059938 1.698182 1.214863
v -0.099678 1.685228 1.214506
v 0.067277 1.684407 1.214932
v -0.130908 1.691613 1.214300
v -0.123536 1.664063 1.214438
v -0.095992 1.671453 1.214575
v 0.067277 1.684407 -1.214932
v 0.059938 1.698182 -1.214863
v -0.099678 1.685228 -1.214506
v -0.103363 1.699003 -1.214438
v -0.095992 1.671453 -1.214575
v -0.123536 1.664063 -1.214438
v -0.130908 1.691613 -1.214300
v 0.066688 1.612239 0.497822
v 0.056816 1.624874 0.513856
v 0.099080 1.725205 0.497822
v 0.084013 1.719721 0.513856
v 0.076559 1.599604 0.513856
v 0.114147 1.730689 0.513856
v 0.001093 1.806944 0.513856
v 0.001653 1.790920 0.497822
v 0.002213 1.774896 0.513856
v 0.066688 1.612239 0.529890
v 0.099080 1.725205 0.529890
v 0.001653 1.790920 0.529890
v -0.090953 1.718569 0.529890
v -0.106365 1.722988 0.513856
v -0.090953 1.718569 0.497822
v -0.075540 1.714149 0.513856
v 0.056816 1.624874 0.513856
v 0.084013 1.719721 0.513856
v 0.002213 1.774896 0.513856
v -0.075540 1.714149 0.513856
v -0.041793 1.621430 0.513856
v -0.050759 1.608138 0.529890
v -0.059725 1.594845 0.513856
v -0.050759 1.608138 0.497822
v -0.041793 1.621430 0.513856
v 0.052881 1.802976 -0.485744
v 0.080218 1.766429 -0.575968
v 0.018428 1.725989 -0.429983
v 0.062661 1.666854 -0.575968
v 0.024472 1.641860 -0.485744
v 0.001653 1.790920 -0.497822
v 0.099080 1.725205 -0.497822
v 0.001093 1.806944 -0.513856
v 0.114147 1.730689 -0.513856
v -0.090953 1.718569 -0.497822
v -0.106365 1.722988 -0.513856
v -0.090953 1.718569 -0.529890
v 0.001653 1.790920 -0.529890
v 0.099080 1.725205 -0.529890
v -0.050759 1.608138 -0.497822
v -0.059725 1.594845 -0.513856
v -0.050759 1.608138 -0.529890
v -0.041793 1.621430 -0.513856
v -0.075540 1.714149 -0.513856
v 0.002213 1.774896 -0.513856
v 0.084013 1.719721 -0.513856
v 0.056816 1.624874 -0.513856
v 0.066688 1.612239 -0.529890
v 0.076559 1.599604 -0.513856
v 0.066688 1.612239 -0.497822
v 0.056816 1.624874 -0.513856
v 0.084013 1.719721 -0.513856
v 0.002213 1.774896 -0.513856
v -0.075540 1.714149 -0.513856
v -0.041793 1.621430 -0.513856
v 0.078585 1.610951 0.316494
v 0.078585 1.610951 0.113375
v 0.078585 1.678615 0.113375
v 0.078585 1.678615 -0.089744
v 0.078585 1.610951 -0.089744
v 0.078585 1.610951 -0.292863
v -0.077216 1.610951 -0.292863
v -0.077216 1.610951 -0.089744
v -0.077216 1.678615 -0.089744
v -0.077216 1.678615 0.113375
v -0.077216 1.610951 0.113375
v -0.077216 1.610951 0.316494
v -0.589432 0.112915 -1.642977
v -0.588403 0.032914 -1.621771
v -0.696686 0.112956 -1.574577
v -0.688076 0.029167 -1.553778
v -0.770176 0.112898 -1.468878
v -0.748431 0.032914 -1.467875
v -0.669928 -0.035255 -1.527293
v -0.001320 -0.034516 -1.527293
v 0.000000 0.032914 -1.621771
v 0.588403 0.032914 -1.621771
v 0.667288 -0.033776 -1.527293
v 0.685009 0.029167 -1.553778
v 0.748431 0.032914 -1.467875
v 0.770176 0.112898 -1.468878
v 0.696686 0.112956 -1.574577
v 0.589432 0.112915 -1.642977
v 0.000000 0.112915 -1.642977
v -0.719116 1.190584 -1.539005
v -0.684953 1.203447 -1.624902
v -0.601199 1.242431 -1.657770
v 0.000000 1.526128 -1.639330
v 0.601199 1.242431 -1.657770
v 0.684953 1.203447 -1.624902
v 0.719116 1.190584 -1.539005
v 0.658929 1.287121 -1.590739
v 0.088319 1.526128 -1.639330
v 0.000000 1.569878 -1.632354
v -0.088319 1.526128 -1.639330
v -0.658929 1.287121 -1.590739
v 0.177404 1.506870 -1.595580
v 0.094371 1.569878 -1.632354
v 0.138121 1.569878 -1.595580
v 0.094371 1.613628 -1.595580
v 0.000000 1.613628 -1.595580
v -0.177404 1.506870 -1.595580
v -0.094371 1.569878 -1.632354
v -0.094371 1.613628 -1.595580
v -0.138121 1.569878 -1.595580
v -0.589432 0.112915 1.642977
v -0.696686 0.112956 1.572031
v -0.588403 0.032914 1.621771
v -0.688076 0.029167 1.556523
v -0.601199 1.242431 1.657770
v -0.684953 1.203447 1.624902
v -0.658929 1.287121 1.590739
v -0.719116 1.190584 1.539005
v -0.770176 0.112898 1.468878
v -0.748431 0.032914 1.467875
v -0.669928 -0.035255 1.532775
v -0.001320 -0.034516 1.532775
v 0.000000 0.032914 1.621771
v 0.588403 0.032914 1.621771
v 0.667288 -0.033776 1.532775
v 0.685009 0.029167 1.556523
v 0.748431 0.032914 1.467875
v 0.696686 0.112956 1.572031
v 0.770176 0.112898 1.468878
v 0.000000 0.112915 1.642977
v 0.589432 0.112915 1.642977
v 0.719116 1.190584 1.539005
v 0.684953 1.203447 1.624902
v 0.601199 1.242431 1.657770
v 0.000000 1.526129 1.639330
v -0.088319 1.526129 1.639330
v -0.177404 1.506870 1.595580
v -0.094371 1.569878 1.630951
v -0.138121 1.569878 1.595580
v -0.094371 1.613628 1.595580
v 0.000000 1.613628 1.595580
v 0.000000 1.569878 1.630951
v 0.088319 1.526129 1.639330
v 0.658929 1.287121 1.590739
v 0.177404 1.506870 1.595580
v 0.094371 1.569878 1.630951
v 0.094371 1.613628 1.595580
v 0.138121 1.569878 1.595580
v -0.055897 1.628818 0.471833
v 0.062790 1.628819 0.471833
v -0.055897 1.628818 0.385884
v 0.062790 1.628819 0.385884
v -0.066123 1.600476 0.373073
v -0.066123 1.600476 0.471821
v -0.066123 1.600476 0.544756
v -0.055897 1.628818 0.544840
v -0.066123 1.600476 0.643596
v -0.055897 1.628818 0.630785
v 0.073020 1.600479 0.643596
v 0.062790 1.628819 0.630785
v 0.062790 1.628819 0.544840
v 0.073020 1.600479 0.544756
v 0.073020 1.600479 0.471821
v 0.073020 1.600479 0.373073
v 0.057804 1.642664 0.532545
v -0.050914 1.642665 0.532545
v -0.050914 1.642665 0.484128
v 0.057804 1.642664 0.484128
v 0.055512 1.649456 1.050155
v 0.055512 1.629222 1.050155
v -0.051626 1.649456 1.050155
v -0.051626 1.629222 1.050155
v 0.055512 1.629222 1.097440
v -0.051626 1.629222 1.097440
v -0.051626 1.629222 1.050155
v -0.051626 1.629222 1.097440
v -0.051626 1.649456 1.097440
v 0.055512 1.649456 1.097440
v 0.055512 1.629222 1.050155
v 0.055512 1.629222 1.097440
v 0.055512 1.649456 -1.050155
v -0.051626 1.649456 -1.050155
v 0.055512 1.629222 -1.050155
v -0.051626 1.629222 -1.050155
v 0.055512 1.629222 -1.097440
v -0.051626 1.629222 -1.097440
v -0.051626 1.629222 -1.050155
v -0.051626 1.629222 -1.097440
v -0.051626 1.649456 -1.097440
v 0.055512 1.649456 -1.097440
v 0.055512 1.629222 -1.050155
v 0.055512 1.629222 -1.097440
v 0.059927 1.698531 -1.283667
v 0.067266 1.684756 -1.283736
v -0.105274 1.699353 -1.283241
v -0.101588 1.685578 -1.283310
v -0.132819 1.691962 -1.283104
v -0.097902 1.671803 -1.283379
v -0.125447 1.664412 -1.283241
v -0.125447 1.664412 1.283241
v -0.097902 1.671803 1.283379
v -0.132819 1.691962 1.283104
v -0.101588 1.685578 1.283310
v -0.105274 1.699353 1.283241
v 0.067266 1.684756 1.283736
v 0.059927 1.698531 1.283667
v 0.075139 1.580927 1.403913
v 0.064210 1.684684 1.384709
v -0.071252 1.580927 1.403913
v -0.060324 1.684684 1.384709
v 0.064210 1.684684 1.100583
v 0.075139 1.580927 1.403913
v 0.075139 1.580927 1.081379
v -0.071252 1.580927 1.081379
v -0.060324 1.684684 1.100583
v 0.075139 1.580927 1.081379
v -0.071252 1.580927 1.081379
v -0.071252 1.580927 1.403913
v 0.075139 1.580927 -1.403913
v -0.071252 1.580927 -1.403913
v 0.064210 1.684684 -1.384709
v -0.060324 1.684684 -1.384709
v 0.064210 1.684684 -1.100583
v 0.075139 1.580927 -1.403913
v 0.075139 1.580927 -1.081379
v -0.071252 1.580927 -1.081379
v 0.075139 1.580927 -1.081379
v -0.060324 1.684684 -1.100583
v -0.071252 1.580927 -1.081379
v -0.071252 1.580927 -1.403913
v 0.257521 1.768935 0.395132
v 0.208719 1.692435 0.343475
v 0.052187 1.803098 0.479373
v 0.016183 1.726384 0.424218
v 0.228413 1.603858 0.395132
v 0.023779 1.641983 0.479373
v 0.358735 1.576453 0.255114
v 0.319767 1.672854 0.219982
v 0.389357 1.750114 0.255114
v 0.307376 1.727637 0.478714
v 0.471334 1.701462 0.311959
v 0.289387 1.625613 0.478714
v 0.452409 1.594133 0.311959
v 0.557900 1.690516 0.101893
v 0.537498 1.574812 0.101893
v 0.557442 1.690597 -0.123692
v 0.537040 1.574892 -0.123692
v 0.469908 1.701713 -0.331660
v 0.450983 1.594385 -0.331660
v 0.305075 1.728043 -0.493682
v 0.287085 1.626019 -0.493682
v 0.080218 1.766429 -0.575968
v 0.062661 1.666854 -0.575968
v 0.421110 1.558468 0.081237
v 0.369580 1.664071 0.068471
v 0.454121 1.745682 0.081237
v 0.453748 1.745748 -0.102385
v 0.388531 1.750260 -0.273681
v 0.257030 1.769021 -0.408741
v 0.052881 1.802976 -0.485744
v 0.209348 1.692324 -0.356245
v 0.319313 1.672934 -0.237847
v 0.369259 1.664128 -0.089217
v 0.018428 1.725989 -0.429983
v 0.024472 1.641860 -0.485744
v 0.227923 1.603944 -0.408741
v 0.357910 1.576599 -0.273681
v 0.420737 1.558533 -0.102385
v 0.024472 1.641860 -0.485744
v 0.227923 1.603944 -0.408741
v 0.357910 1.576599 -0.273681
v 0.420737 1.558533 -0.102385
v 0.421110 1.558468 0.081237
v 0.358735 1.576453 0.255114
v 0.228413 1.603858 0.395132
v 0.023779 1.641983 0.479373
v 0.064477 1.666534 0.568616
v 0.082035 1.766109 0.568616
v -0.186250 1.523875 -1.187275
v -0.162540 1.525949 -1.187275
v -0.188950 1.528010 -1.308528
v -0.165239 1.530085 -1.308528
v -0.160465 1.502239 -1.187275
v -0.163165 1.506374 -1.308528
v -0.184176 1.500164 -1.187275
v -0.186876 1.504300 -1.308528
v -0.186250 1.523875 -1.187275
v -0.188950 1.528010 -1.308528
v -0.199626 1.502347 -1.192441
v -0.123081 1.705555 -1.192441
v -0.199626 1.502347 -1.213815
v -0.123081 1.705555 -1.213815
v -0.163251 1.489107 -1.213815
v -0.088617 1.693011 -1.213815
v -0.088617 1.693011 -1.192441
v -0.163251 1.489107 -1.192441
v -0.199626 1.502347 -1.192441
v -0.123081 1.705555 -1.192441
v -0.199627 1.502347 -1.284152
v -0.127328 1.705560 -1.284153
v -0.199627 1.502347 -1.304543
v -0.127328 1.705560 -1.304543
v -0.163251 1.489107 -1.304543
v -0.092864 1.693016 -1.304543
v -0.092864 1.693016 -1.284153
v -0.163251 1.489107 -1.284152
v -0.199627 1.502347 -1.284152
v -0.127328 1.705560 -1.284153
v -0.199626 1.502347 1.192441
v -0.199626 1.502347 1.213815
v -0.123081 1.705555 1.192441
v -0.123081 1.705555 1.213815
v -0.163251 1.489107 1.213815
v -0.088617 1.693011 1.213815
v -0.088617 1.693011 1.192441
v -0.163251 1.489107 1.192441
v -0.199626 1.502347 1.192441
v -0.123081 1.705555 1.192441
v -0.125588 1.691447 1.187275
v -0.129008 1.693606 1.308528
v -0.101878 1.693521 1.187275
v -0.105298 1.695680 1.308528
v -0.099803 1.669811 1.187275
v -0.103223 1.671970 1.308528
v -0.123514 1.667736 1.187275
v -0.126934 1.669895 1.308528
v -0.125588 1.691447 1.187275
v -0.129008 1.693606 1.308528
v -0.125588 1.691447 -1.187275
v -0.101878 1.693521 -1.187275
v -0.129008 1.693606 -1.308528
v -0.105298 1.695680 -1.308528
v -0.099803 1.669811 -1.187275
v -0.103223 1.671970 -1.308528
v -0.123514 1.667736 -1.187275
v -0.126934 1.669895 -1.308528
v -0.125588 1.691447 -1.187275
v -0.129008 1.693606 -1.308528
v -0.186250 1.523875 1.187275
v -0.188950 1.528010 1.308528
v -0.162540 1.525949 1.187275
v -0.165239 1.530085 1.308528
v -0.160465 1.502239 1.187275
v -0.163165 1.506374 1.308528
v -0.184176 1.500164 1.187275
v -0.186876 1.504300 1.308528
v -0.186250 1.523875 1.187275
v -0.188950 1.528010 1.308528
v -0.199627 1.502347 1.284152
v -0.199627 1.502347 1.304543
v -0.127328 1.705560 1.284153
v -0.127328 1.705560 1.304543
v -0.163251 1.489107 1.304543
v -0.092864 1.693016 1.304543
v -0.092864 1.693016 1.284153
v -0.163251 1.489107 1.284152
v -0.199627 1.502347 1.284152
v -0.127328 1.705560 1.284153
v -0.050914 1.642665 -0.484128
v 0.057804 1.642664 -0.484128
v 0.057804 1.642664 -0.532545
v 0.062790 1.628819 -0.471833
v -0.055897 1.628818 -0.471833
v -0.055897 1.628818 -0.385884
v 0.062790 1.628819 -0.385884
v -0.055897 1.628818 -0.544840
v -0.066123 1.600476 -0.544756
v -0.066123 1.600476 -0.643596
v -0.055897 1.628818 -0.630785
v 0.073020 1.600479 -0.643596
v 0.062790 1.628819 -0.630785
v 0.062790 1.628819 -0.544840
v 0.073020 1.600479 -0.544756
v 0.073020 1.600479 -0.471821
v 0.073020 1.600479 -0.373073
v -0.066123 1.600476 -0.373073
v -0.066123 1.600476 -0.471821
v -0.050914 1.642665 -0.532545
v 0.588403 -0.081079 -1.442146
v 0.000000 -0.081079 -1.442146
v -0.001320 -0.034516 -1.527293
v -0.588403 -0.081079 -1.442146
v -0.669928 -0.035255 -1.527293
v -0.588403 -0.081079 1.442146
v -0.669928 -0.035255 1.532775
v -0.748431 0.032914 -1.467875
v -0.748431 0.032914 1.467875
v -0.001320 -0.034516 1.532775
v 0.000000 -0.081079 1.442146
v 0.588403 -0.081079 1.442146
v 0.667288 -0.033776 1.532775
v 0.667288 -0.033776 -1.527293
v 0.748431 0.032914 1.467875
v 0.748431 0.032914 -1.467875
v 0.770176 0.112898 1.468878
v 0.770176 0.112898 -1.468878
v 0.719116 1.190584 -1.539005
v 0.719116 1.190584 1.539005
v 0.658929 1.287121 -1.590739
v 0.658929 1.287121 1.590739
v 0.177404 1.506870 -1.595580
v 0.177404 1.506870 1.595580
v 0.138121 1.569878 1.595580
v 0.138121 1.569878 -1.595580
v 0.094371 1.613628 1.595580
v 0.094371 1.613628 -1.595580
v 0.000000 1.613628 -1.595580
v 0.000000 1.613628 1.595580
v -0.101588 1.685578 1.283310
v -0.097902 1.671803 1.283379
v -0.099678 1.685228 1.214506
v -0.095992 1.671453 1.214575
v -0.123536 1.664063 1.214438
v -0.125447 1.664412 1.283241
v -0.130908 1.691613 1.214300
v -0.132819 1.691962 1.283104
v -0.103363 1.699003 1.214438
v -0.105274 1.699353 1.283241
v 0.059927 1.698531 1.283667
v 0.059938 1.698182 1.214863
v 0.067266 1.684756 1.283736
v 0.067277 1.684407 1.214932
v -0.101588 1.685578 -1.283310
v -0.099678 1.685228 -1.214506
v -0.097902 1.671803 -1.283379
v -0.095992 1.671453 -1.214575
v -0.123536 1.664063 -1.214438
v -0.125447 1.664412 -1.283241
v -0.130908 1.691613 -1.214300
v -0.132819 1.691962 -1.283104
v -0.103363 1.699003 -1.214438
v -0.105274 1.699353 -1.283241
v 0.059927 1.698531 -1.283667
v 0.059938 1.698182 -1.214863
v 0.067266 1.684756 -1.283736
v 0.067277 1.684407 -1.214932
v -0.748431 0.032914 -1.467875
v -0.748431 0.032914 1.467875
v -0.770176 0.112898 -1.468878
v -0.770176 0.112898 1.468878
v -0.719116 1.190584 1.539005
v -0.719116 1.190584 -1.539005
v -0.658929 1.287121 1.590739
v -0.658929 1.287121 -1.590739
v -0.177404 1.506870 1.595580
v -0.177404 1.506870 -1.595580
v -0.138121 1.569878 -1.595580
v -0.138121 1.569878 1.595580
v -0.094371 1.613628 -1.595580
v -0.094371 1.613628 1.595580
v 0.000000 1.613628 1.595580
v 0.000000 1.613628 -1.595580
vt 0.655809 0.910192
vt 0.622954 0.999091
vt 0.607096 0.943787
vt 0.655809 0.910192
vt 0.681475 0.999646
vt 0.622954 0.999091
vt 0.655809 0.910192
vt 0.701774 0.944703
vt 0.681475 0.999646
vt 0.134161 0.873271
vt 0.134054 0.999521
vt 0.042254 0.872871
vt 0.042215 0.999521
vt 1.006914 0.495522
vt 1.042400 0.495522
vt 1.006914 0.473513
vt 1.042400 0.473513
vt 1.006914 0.447942
vt 1.044369 0.447942
vt 1.006914 0.425934
vt 1.044369 0.425934
vt 1.038222 0.427863
vt 1.013808 0.425727
vt 1.036086 0.452277
vt 1.011672 0.450141
vt 1.065706 0.453910
vt 1.041209 0.453211
vt 1.065007 0.478407
vt 1.040510 0.477708
vt 1.033464 0.499946
vt 1.009050 0.497810
vt 1.031328 0.524359
vt 1.006914 0.522223
vt 1.065706 0.426426
vt 1.041209 0.425727
vt 1.065007 0.450923
vt 1.040510 0.450224
vt 1.007558 0.476470
vt 1.043045 0.476470
vt 1.007558 0.455474
vt 1.043045 0.455474
vt 1.006914 0.471225
vt 1.044369 0.471225
vt 1.006914 0.450230
vt 1.044369 0.450230
vt 1.042400 0.473513
vt 1.042400 0.495522
vt 1.006914 0.473513
vt 1.006914 0.495522
vt 1.044369 0.425934
vt 1.044369 0.447942
vt 1.006914 0.425934
vt 1.006914 0.447942
vt 1.011672 0.450141
vt 1.013808 0.425727
vt 1.036086 0.452277
vt 1.038222 0.427863
vt 1.040510 0.477708
vt 1.041209 0.453211
vt 1.065007 0.478407
vt 1.065706 0.453910
vt 1.006914 0.522223
vt 1.009050 0.497810
vt 1.031328 0.524359
vt 1.033464 0.499946
vt 1.040510 0.450224
vt 1.041209 0.425727
vt 1.065007 0.450923
vt 1.065706 0.426426
vt 1.043045 0.455474
vt 1.043045 0.476470
vt 1.007558 0.455474
vt 1.007558 0.476470
vt 1.044369 0.450230
vt 1.044369 0.471225
vt 1.006914 0.450230
vt 1.006914 0.471225
vt 0.134054 0.627395
vt 0.134161 0.753530
vt 0.042215 0.627395
vt 0.042254 0.753561
vt 0.134161 0.753530
vt 0.134161 0.873271
vt 0.042254 0.753561
vt 0.042254 0.872871
vt 0.039818 0.306159
vt 0.234405 0.314969
vt 0.043822 0.322420
vt 0.242405 0.331667
vt 0.007259 0.314228
vt 0.015309 0.346771
vt 0.047852 0.338702
vt 0.242405 0.331667
vt 0.234405 0.314969
vt 0.043822 0.322420
vt 0.039818 0.306159
vt 0.047852 0.338702
vt 0.015309 0.346771
vt 0.007259 0.314228
vt 1.024544 0.359126
vt 1.013150 0.366791
vt 1.026831 0.421904
vt 1.015912 0.423348
vt 1.037580 0.351781
vt 1.037017 0.420601
vt 1.036693 0.484582
vt 1.026157 0.484563
vt 1.015342 0.484548
vt 1.050500 0.359264
vt 1.047211 0.421980
vt 1.047304 0.484602
vt 1.047122 0.547227
vt 1.036945 0.548564
vt 1.026741 0.547219
vt 1.015809 0.545729
vt 1.061774 0.367075
vt 1.058136 0.423534
vt 1.058189 0.484617
vt 1.058034 0.545719
vt 1.061299 0.602223
vt 1.049971 0.609970
vt 1.036999 0.617386
vt 1.024015 0.609975
vt 1.012673 0.602245
vt 0.701774 0.944700
vt 0.681459 0.999642
vt 0.655812 0.910199
vt 0.622952 0.999098
vt 0.607096 0.943837
vt 1.026157 0.484563
vt 1.026831 0.421904
vt 1.036693 0.484582
vt 1.037017 0.420601
vt 1.026741 0.547219
vt 1.036945 0.548564
vt 1.047122 0.547227
vt 1.047304 0.484602
vt 1.047211 0.421980
vt 1.024015 0.609975
vt 1.036999 0.617386
vt 1.049971 0.609970
vt 1.061299 0.602223
vt 1.058034 0.545719
vt 1.058189 0.484617
vt 1.058136 0.423534
vt 1.061774 0.367075
vt 1.050500 0.359264
vt 1.037580 0.351781
vt 1.024544 0.359126
vt 1.013150 0.366791
vt 1.015912 0.423348
vt 1.015342 0.484548
vt 1.015809 0.545729
vt 1.012673 0.602245
vt 0.174050 0.633790
vt 0.174050 0.753530
vt 0.134161 0.753530
vt 0.134161 0.873271
vt 0.174050 0.873271
vt 0.174050 0.993011
vt 0.002508 0.992183
vt 0.002508 0.872871
vt 0.042254 0.872871
vt 0.042254 0.753561
vt 0.002508 0.753561
vt 0.002508 0.634250
vt 0.948510 0.687036
vt 0.948369 0.672052
vt 0.973531 0.685255
vt 0.971979 0.667009
vt 0.999477 0.682605
vt 0.993097 0.663274
vt 0.968065 0.651226
vt 0.826997 0.651321
vt 0.826755 0.672051
vt 0.705140 0.672050
vt 0.685930 0.651417
vt 0.682082 0.666937
vt 0.660568 0.663205
vt 0.654100 0.682519
vt 0.680014 0.685223
vt 0.705009 0.687028
vt 0.826759 0.687032
vt 0.986658 0.909660
vt 0.968246 0.911257
vt 0.951098 0.919441
vt 0.826764 0.978286
vt 0.702421 0.919442
vt 0.685287 0.911225
vt 0.666879 0.909570
vt 0.685828 0.931126
vt 0.808004 0.978285
vt 0.826757 0.987101
vt 0.845523 0.978286
vt 0.967674 0.931152
vt 0.786855 0.978483
vt 0.807505 0.987098
vt 0.796508 0.990367
vt 0.806871 0.998691
vt 0.826752 0.998696
vt 0.866647 0.978528
vt 0.846010 0.987104
vt 0.846633 0.998700
vt 0.856999 0.990388
vt 0.361800 0.702431
vt 0.337031 0.702850
vt 0.360732 0.687600
vt 0.337511 0.685027
vt 0.379384 0.930462
vt 0.361800 0.923949
vt 0.364116 0.943384
vt 0.343465 0.924002
vt 0.312090 0.702622
vt 0.316119 0.683387
vt 0.339985 0.669529
vt 0.477769 0.657576
vt 0.479694 0.677174
vt 0.598657 0.666749
vt 0.615553 0.645624
vt 0.620620 0.660215
vt 0.641823 0.654824
vt 0.624682 0.677657
vt 0.649492 0.673075
vt 0.480904 0.691975
vt 0.600007 0.681518
vt 0.656383 0.896586
vt 0.638537 0.899696
vt 0.622492 0.909137
vt 0.505984 0.977466
vt 0.487666 0.979075
vt 0.467010 0.981099
vt 0.487875 0.987839
vt 0.477504 0.991889
vt 0.488319 0.999095
vt 0.507723 0.997395
vt 0.506743 0.986185
vt 0.524301 0.975857
vt 0.639679 0.919231
vt 0.544968 0.974295
vt 0.525612 0.984530
vt 0.527127 0.995694
vt 0.536522 0.986725
vt 0.104113 0.460476
vt 0.213219 0.460476
vt 0.107822 0.386357
vt 0.209510 0.386356
vt 0.091599 0.365989
vt 0.077268 0.459212
vt 0.077265 0.527620
vt 0.104114 0.526443
vt 0.091599 0.620926
vt 0.107823 0.600559
vt 0.225735 0.620926
vt 0.209510 0.600559
vt 0.213219 0.526443
vt 0.240067 0.527620
vt 0.240064 0.459212
vt 0.225735 0.365989
vt 0.205892 0.514086
vt 0.111440 0.514086
vt 0.111440 0.472833
vt 0.205892 0.472833
vt 0.178086 0.275934
vt 0.178086 0.285900
vt 0.230858 0.275933
vt 0.230859 0.285900
vt 0.178086 0.309190
vt 0.230859 0.309190
vt 0.240824 0.275933
vt 0.240824 0.252643
vt 0.230858 0.252643
vt 0.178086 0.252643
vt 0.168120 0.275934
vt 0.168120 0.252643
vt 0.178086 0.275934
vt 0.230858 0.275933
vt 0.178086 0.285900
vt 0.230859 0.285900
vt 0.178086 0.309190
vt 0.230859 0.309190
vt 0.240824 0.275933
vt 0.240824 0.252643
vt 0.230858 0.252643
vt 0.178086 0.252643
vt 0.168120 0.275934
vt 0.168120 0.252643
vt 0.234423 0.314990
vt 0.242419 0.331634
vt 0.039823 0.306167
vt 0.043848 0.322458
vt 0.007290 0.314202
vt 0.047849 0.338727
vt 0.015299 0.346762
vt 0.015299 0.346762
vt 0.047849 0.338727
vt 0.007290 0.314202
vt 0.043848 0.322458
vt 0.039823 0.306167
vt 0.242419 0.331634
vt 0.234423 0.314990
vt 0.169282 0.301935
vt 0.162698 0.238383
vt 0.081113 0.301936
vt 0.087695 0.238383
vt 0.162698 0.067260
vt 0.225534 0.249949
vt 0.225534 0.055693
vt 0.081113 0.003707
vt 0.087695 0.067259
vt 0.169282 0.003708
vt 0.024859 0.055693
vt 0.024859 0.249949
vt 0.169282 0.301935
vt 0.081113 0.301936
vt 0.162698 0.238383
vt 0.087695 0.238383
vt 0.162698 0.067260
vt 0.225534 0.249949
vt 0.225534 0.055693
vt 0.081113 0.003707
vt 0.169282 0.003708
vt 0.087695 0.067259
vt 0.024859 0.055693
vt 0.024859 0.249949
vt 0.284610 0.924647
vt 0.305917 0.914776
vt 0.305740 0.969851
vt 0.324642 0.959181
vt 0.327573 0.907066
vt 0.344561 0.951431
vt 0.316459 0.869767
vt 0.293404 0.875994
vt 0.270222 0.883359
vt 0.264285 0.934911
vt 0.247277 0.890913
vt 0.243663 0.942743
vt 0.224809 0.898022
vt 0.234944 0.848394
vt 0.210596 0.853778
vt 0.227393 0.805556
vt 0.202564 0.808511
vt 0.224702 0.761796
vt 0.201121 0.762366
vt 0.226293 0.715413
vt 0.204248 0.714411
vt 0.231812 0.664517
vt 0.206941 0.662698
vt 0.309746 0.832644
vt 0.284687 0.837561
vt 0.259770 0.842945
vt 0.252665 0.802481
vt 0.248967 0.761424
vt 0.249066 0.718615
vt 0.255111 0.669973
vt 0.272517 0.721043
vt 0.273360 0.760756
vt 0.277978 0.799268
vt 0.276117 0.673919
vt 0.297370 0.674773
vt 0.295510 0.721274
vt 0.297179 0.759015
vt 0.303245 0.795526
vt 0.183499 0.663022
vt 0.181755 0.714163
vt 0.177695 0.762326
vt 0.177776 0.811117
vt 0.186377 0.859655
vt 0.202647 0.905745
vt 0.222255 0.950159
vt 0.239387 0.998849
vt 0.261580 0.991982
vt 0.284848 0.982647
vt 1.006092 0.407894
vt 1.020415 0.407888
vt 1.004655 0.534201
vt 1.019697 0.534207
vt 1.034370 0.406999
vt 1.035088 0.533318
vt 1.048693 0.407005
vt 1.050130 0.533312
vt 1.063373 0.407420
vt 1.064810 0.533726
vt 1.007582 0.514731
vt 1.007582 0.395701
vt 1.019159 0.514731
vt 1.019438 0.395701
vt 1.040099 0.514593
vt 1.039820 0.395570
vt 1.051677 0.395570
vt 1.051677 0.514594
vt 1.072896 0.514632
vt 1.071781 0.395607
vt 1.007739 0.513647
vt 1.007739 0.395556
vt 1.018948 0.513647
vt 1.019231 0.395556
vt 1.040211 0.513901
vt 1.039928 0.395797
vt 1.051420 0.395796
vt 1.051420 0.513901
vt 1.072964 0.513548
vt 1.071832 0.395462
vt 1.007582 0.514731
vt 1.019159 0.514731
vt 1.007582 0.395701
vt 1.019438 0.395701
vt 1.040099 0.514593
vt 1.039820 0.395570
vt 1.051677 0.395570
vt 1.051677 0.514594
vt 1.072896 0.514632
vt 1.071781 0.395607
vt 1.006370 0.406793
vt 1.004384 0.533045
vt 1.021014 0.406783
vt 1.019105 0.533037
vt 1.035630 0.406864
vt 1.033854 0.533124
vt 1.050250 0.408062
vt 1.048563 0.534325
vt 1.064905 0.409098
vt 1.063247 0.535362
vt 1.006370 0.406793
vt 1.021014 0.406783
vt 1.004384 0.533045
vt 1.019105 0.533037
vt 1.035630 0.406864
vt 1.033854 0.533124
vt 1.050250 0.408062
vt 1.048563 0.534325
vt 1.064905 0.409098
vt 1.063247 0.535362
vt 1.006092 0.407894
vt 1.004655 0.534201
vt 1.020415 0.407888
vt 1.019697 0.534207
vt 1.034370 0.406999
vt 1.035088 0.533318
vt 1.048693 0.407005
vt 1.050130 0.533312
vt 1.063373 0.407420
vt 1.064810 0.533726
vt 1.007739 0.513647
vt 1.018948 0.513647
vt 1.007739 0.395556
vt 1.019231 0.395556
vt 1.040211 0.513901
vt 1.039928 0.395797
vt 1.051420 0.395796
vt 1.051420 0.513901
vt 1.072964 0.513548
vt 1.071832 0.395462
vt 0.111440 0.472833
vt 0.205892 0.472833
vt 0.205892 0.514086
vt 0.213219 0.460476
vt 0.104113 0.460476
vt 0.107822 0.386357
vt 0.209510 0.386356
vt 0.104114 0.526443
vt 0.077265 0.527620
vt 0.091599 0.620926
vt 0.107823 0.600559
vt 0.225735 0.620926
vt 0.209510 0.600559
vt 0.213219 0.526443
vt 0.240067 0.527620
vt 0.240064 0.459212
vt 0.225735 0.365989
vt 0.091599 0.365989
vt 0.077268 0.459212
vt 0.111440 0.514086
vt 0.705452 0.630657
vt 0.827172 0.630520
vt 0.827429 0.650224
vt 0.948921 0.630692
vt 0.966985 0.649181
vt 0.948921 0.032521
vt 0.966985 0.012962
vt 0.988565 0.636341
vt 0.988565 0.026940
vt 0.827429 0.011955
vt 0.827172 0.032673
vt 0.705452 0.032553
vt 0.687828 0.012954
vt 0.687828 0.649190
vt 0.666069 0.026941
vt 0.666069 0.636342
vt 0.648911 0.026734
vt 0.648912 0.636551
vt 0.425008 0.651109
vt 0.425007 0.012178
vt 0.401450 0.661849
vt 0.401450 0.001440
vt 0.291640 0.662855
vt 0.291639 0.000436
vt 0.276289 0.000437
vt 0.276289 0.662856
vt 0.263506 0.000437
vt 0.263506 0.662856
vt 0.243974 0.662857
vt 0.243974 0.000437
vt 0.069087 0.623156
vt 0.069094 0.609177
vt 0.001855 0.623024
vt 0.001868 0.609156
vt 0.001929 0.581332
vt 0.069128 0.581357
vt 0.001973 0.553490
vt 0.069152 0.553526
vt 0.001980 0.525552
vt 0.069156 0.525761
vt 0.072047 0.365256
vt 0.001749 0.365242
vt 0.072522 0.349059
vt 0.002206 0.349044
vt 0.069087 0.623156
vt 0.001855 0.623024
vt 0.069094 0.609177
vt 0.001868 0.609156
vt 0.001929 0.581332
vt 0.069128 0.581357
vt 0.001973 0.553490
vt 0.069152 0.553526
vt 0.001980 0.525552
vt 0.069156 0.525761
vt 0.072047 0.365256
vt 0.001749 0.365242
vt 0.072522 0.349059
vt 0.002206 0.349044
vt 0.666304 0.636341
vt 0.666302 0.026940
vt 0.649100 0.636549
vt 0.649097 0.026732
vt 0.425147 0.012176
vt 0.425149 0.651108
vt 0.401546 0.001438
vt 0.401547 0.661848
vt 0.291697 0.000434
vt 0.291697 0.662853
vt 0.276316 0.662854
vt 0.276316 0.000435
vt 0.263515 0.662854
vt 0.263515 0.000435
vt 0.243977 0.000435
vt 0.243977 0.662854
vn -0.9139 0.1611 0.3724
vn 0.0000 0.9487 -0.3160
vn 0.3420 0.9397 0.0000
vn -0.3420 -0.9397 0.0000
vn 0.0000 0.0000 -1.0000
vn 0.0000 0.0000 1.0000
vn 0.0000 0.9487 0.3160
vn 0.0000 1.0000 0.0000
vn 0.0044 -0.0038 -1.0000
vn 0.0025 -0.0037 -1.0000
vn 0.0047 -0.0037 -1.0000
vn 0.0025 -0.0036 -1.0000
vn 0.0059 -0.0034 -1.0000
vn 0.0025 -0.0036 1.0000
vn 0.0025 -0.0037 1.0000
vn 0.0047 -0.0037 1.0000
vn 0.0044 -0.0038 1.0000
vn 0.0059 -0.0034 1.0000
vn 0.3072 -0.0881 -0.9475
vn -0.7473 0.2143 -0.6290
vn 0.2474 0.0900 -0.9647
vn -0.6644 -0.2418 -0.7071
vn 0.9612 -0.2756 0.0000
vn 0.9397 0.3420 0.0000
vn -0.0349 0.9994 0.0000
vn -0.0092 0.2631 -0.9647
vn 0.0247 -0.7067 -0.7071
vn 0.3072 -0.0881 0.9475
vn 0.2474 0.0900 0.9647
vn -0.0092 0.2631 0.9647
vn -0.2530 0.0725 0.9647
vn -0.9612 0.2756 0.0000
vn -0.2530 0.0725 -0.9647
vn 0.6797 -0.1949 -0.7071
vn -0.7473 0.2143 0.6290
vn -0.6644 -0.2418 0.7071
vn 0.0247 -0.7067 0.7071
vn 0.6797 -0.1949 0.7071
vn 0.7305 0.2659 0.6290
vn -0.3003 -0.1093 0.9475
vn -0.9397 -0.3420 0.0000
vn -0.3003 -0.1093 -0.9475
vn 0.7305 0.2659 -0.6290
vn -0.9240 0.1629 -0.3460
vn 0.7306 0.2659 0.6290
vn 1.0000 0.0000 0.0000
vn -1.0000 0.0000 0.0000
vn -0.2675 -0.1321 -0.9544
vn -0.2129 -0.5097 -0.8336
vn -0.6903 -0.1256 -0.7125
vn -0.6619 -0.3407 -0.6676
vn -0.8160 -0.1098 -0.5674
vn -0.7909 -0.2770 -0.5455
vn -0.4590 -0.5952 -0.6595
vn 0.0001 -0.8139 -0.5809
vn 0.0000 -0.5688 -0.8225
vn 0.2162 -0.5139 -0.8301
vn 0.4557 -0.6009 -0.6566
vn 0.6567 -0.3527 -0.6666
vn 0.7788 -0.2768 -0.5629
vn 0.8154 -0.1230 -0.5657
vn 0.6873 -0.1357 -0.7135
vn 0.2702 -0.1281 -0.9542
vn 0.0000 -0.1279 -0.9918
vn -0.9246 0.1231 -0.3606
vn -0.7172 0.1901 -0.6704
vn -0.2575 0.2822 -0.9241
vn 0.0000 0.0854 -0.9963
vn 0.2598 0.2782 -0.9247
vn 0.7099 0.1884 -0.6786
vn 0.9270 0.1412 -0.3475
vn 0.5618 0.5394 -0.6272
vn 0.1495 0.1628 -0.9752
vn 0.0000 0.4155 -0.9095
vn -0.1495 0.1628 -0.9752
vn -0.5618 0.5394 -0.6272
vn 0.4439 0.7159 -0.5389
vn 0.2774 0.3957 -0.8755
vn 0.5807 0.4305 -0.6909
vn 0.2188 0.6278 -0.7469
vn 0.0000 0.6434 -0.7655
vn -0.4439 0.7159 -0.5389
vn -0.2774 0.3957 -0.8755
vn -0.2188 0.6278 -0.7469
vn -0.5807 0.4305 -0.6909
vn -0.2779 -0.1279 0.9520
vn -0.6892 -0.1142 0.7155
vn -0.2130 -0.4945 0.8426
vn -0.6671 -0.3091 0.6778
vn -0.2600 0.2778 0.9247
vn -0.7096 0.1876 0.6792
vn -0.5618 0.5394 0.6272
vn -0.9270 0.1412 0.3475
vn -0.8126 -0.1185 0.5706
vn -0.7957 -0.2600 0.5469
vn -0.4664 -0.5714 0.6753
vn 0.0001 -0.7971 0.6039
vn 0.0000 -0.5570 0.8305
vn 0.2163 -0.4989 0.8392
vn 0.4634 -0.5770 0.6725
vn 0.6593 -0.3237 0.6786
vn 0.7871 -0.2687 0.5551
vn 0.6935 -0.1202 0.7103
vn 0.8095 -0.1094 0.5768
vn 0.0000 -0.1279 0.9918
vn 0.2749 -0.1322 0.9523
vn 0.9245 0.1224 0.3610
vn 0.7173 0.1898 0.6703
vn 0.2575 0.2822 0.9241
vn 0.0000 0.1009 0.9949
vn -0.1497 0.1784 0.9725
vn -0.4416 0.7170 0.5394
vn -0.2744 0.3998 0.8746
vn -0.5700 0.4220 0.7050
vn -0.2135 0.6142 0.7597
vn 0.0000 0.6287 0.7776
vn 0.0000 0.4210 0.9070
vn 0.1497 0.1784 0.9725
vn 0.5618 0.5394 0.6272
vn 0.4416 0.7170 0.5394
vn 0.2744 0.3998 0.8746
vn 0.2135 0.6142 0.7597
vn 0.5700 0.4220 0.7050
vn -0.6934 0.6977 -0.1795
vn 0.6934 0.6978 -0.1794
vn -0.4711 0.7663 -0.4369
vn 0.4711 0.7663 -0.4369
vn -0.6010 0.4990 -0.6243
vn -0.9406 0.3394 0.0000
vn -0.6934 0.6977 0.1795
vn -0.6010 0.4990 0.6243
vn -0.4711 0.7663 0.4369
vn 0.6010 0.4991 0.6242
vn 0.4711 0.7663 0.4369
vn 0.6934 0.6978 0.1794
vn 0.9406 0.3395 0.0000
vn 0.6010 0.4991 -0.6242
vn 0.4883 0.8142 0.3139
vn -0.4884 0.8142 0.3139
vn -0.4884 0.8142 -0.3139
vn 0.4883 0.8142 -0.3139
vn 0.5773 0.5773 -0.5773
vn 0.0000 -0.7071 -0.7071
vn -0.5773 0.5773 -0.5773
vn 0.0000 -1.0000 0.0000
vn -0.7071 0.7071 0.0000
vn 0.7071 0.7071 0.0000
vn 0.5773 0.5773 0.5773
vn -0.5773 0.5773 0.5773
vn 0.0000 -0.7071 0.7071
vn -0.0025 0.0036 -1.0000
vn -0.0025 0.0037 -1.0000
vn -0.0044 0.0038 -1.0000
vn -0.0046 0.0037 -1.0000
vn -0.0059 0.0034 -1.0000
vn -0.0059 0.0034 1.0000
vn -0.0046 0.0037 1.0000
vn -0.0044 0.0038 1.0000
vn -0.0025 0.0037 1.0000
vn -0.0025 0.0036 1.0000
vn 0.0000 0.1820 0.9833
vn 0.5516 0.6515 0.5208
vn -0.5516 0.6515 0.5208
vn 0.5516 0.6515 -0.5208
vn 0.9945 0.1047 0.0000
vn 0.0000 0.1820 -0.9833
vn -0.5516 0.6515 -0.5208
vn -0.9945 0.1047 0.0000
vn 0.0266 0.9827 -0.1833
vn -0.5660 0.0992 -0.8184
vn 0.0430 0.9581 -0.2831
vn -0.3757 0.0661 -0.9243
vn -0.5571 -0.5072 -0.6576
vn -0.4057 -0.5253 -0.7479
vn -0.7856 -0.4652 -0.4078
vn -0.8500 0.1485 -0.5053
vn -0.0450 0.9939 -0.1002
vn 0.5425 0.4679 0.6977
vn 0.7731 0.4283 0.4678
vn 0.3499 -0.6257 0.6971
vn 0.5795 -0.6678 0.4671
vn 0.8971 0.4096 0.1654
vn 0.7022 -0.6922 0.1662
vn 0.8958 0.4103 -0.1710
vn 0.7021 -0.6914 -0.1702
vn 0.7674 0.4297 -0.4758
vn 0.5747 -0.6653 -0.4765
vn 0.5271 0.4703 -0.7077
vn 0.3343 -0.6218 -0.7082
vn 0.3696 0.5316 -0.7620
vn 0.1653 -0.6258 -0.7623
vn -0.8857 -0.4461 -0.1283
vn -0.9724 0.1707 -0.1590
vn -0.0717 0.9971 -0.0265
vn -0.0713 0.9971 0.0252
vn -0.0417 0.9939 0.1021
vn 0.0329 0.9821 0.1851
vn 0.0514 0.9567 0.2865
vn -0.5478 0.0972 0.8309
vn -0.8439 0.1503 0.5151
vn -0.9713 0.1721 0.1643
vn -0.3499 0.0618 0.9348
vn -0.3851 -0.5292 0.7561
vn -0.5429 -0.5110 0.6663
vn -0.7803 -0.4685 0.4143
vn -0.8841 -0.4477 0.1338
vn -0.0670 -0.9539 -0.2926
vn -0.0160 -0.9650 -0.2617
vn 0.0704 -0.9801 -0.1857
vn 0.1247 -0.9897 -0.0697
vn 0.1264 -0.9894 0.0705
vn 0.0759 -0.9801 0.1831
vn -0.0081 -0.9659 0.2586
vn -0.0581 -0.9553 0.2898
vn 0.1868 -0.6297 0.7540
vn 0.3907 0.5278 0.7542
vn -0.0871 0.9955 0.0359
vn 0.6562 0.7545 0.0111
vn 0.6293 0.7770 0.0125
vn 0.7621 -0.6462 -0.0390
vn 0.7689 -0.6381 -0.0389
vn -0.6293 -0.7770 -0.0125
vn -0.6562 -0.7545 -0.0111
vn -0.9960 -0.0871 0.0192
vn -0.9358 0.3525 0.0000
vn -0.6641 0.2501 -0.7046
vn -0.6594 0.2484 -0.7096
vn 0.6636 -0.2429 -0.7075
vn 0.6644 -0.2432 -0.7067
vn 0.6644 -0.2432 0.7067
vn 0.6636 -0.2429 0.7075
vn -0.9421 0.3352 0.0000
vn -0.6646 0.2365 -0.7087
vn -0.6677 0.2376 -0.7055
vn 0.6720 -0.2319 -0.7033
vn 0.6648 -0.2295 -0.7108
vn 0.6648 -0.2295 0.7108
vn 0.6720 -0.2319 0.7033
vn -0.6641 0.2501 0.7046
vn -0.6594 0.2484 0.7096
vn -0.0871 0.9960 -0.0202
vn 0.6540 0.7564 0.0050
vn 0.6313 0.7755 0.0040
vn 0.7669 -0.6409 0.0330
vn 0.7643 -0.6440 0.0330
vn -0.6313 -0.7755 -0.0040
vn -0.6540 -0.7564 -0.0050
vn -0.9958 -0.0871 -0.0265
vn -0.0871 0.9960 0.0202
vn 0.6540 0.7564 -0.0050
vn 0.6313 0.7755 -0.0040
vn 0.7669 -0.6409 -0.0330
vn 0.7643 -0.6440 -0.0330
vn -0.6313 -0.7755 0.0040
vn -0.6540 -0.7564 0.0050
vn -0.9958 -0.0871 0.0265
vn -0.0871 0.9955 -0.0359
vn 0.6562 0.7545 -0.0111
vn 0.6293 0.7770 -0.0125
vn 0.7621 -0.6462 0.0390
vn 0.7689 -0.6381 0.0389
vn -0.6293 -0.7770 0.0125
vn -0.6562 -0.7545 0.0111
vn -0.9960 -0.0871 -0.0192
vn -0.6646 0.2365 0.7087
vn -0.6677 0.2376 0.7055
vn 0.2073 -0.9597 -0.1894
vn 0.0000 -0.9688 -0.2476
vn 0.0001 -0.8773 -0.4798
vn -0.1948 -0.9630 -0.1861
vn -0.4268 -0.8899 -0.1609
vn -0.1967 -0.9648 0.1746
vn -0.4176 -0.8944 0.1599
vn -0.6557 -0.7550 0.0000
vn 0.0001 -0.8895 0.4570
vn 0.0000 -0.9720 0.2351
vn 0.2092 -0.9615 0.1778
vn 0.4146 -0.8947 0.1659
vn 0.4238 -0.8902 -0.1669
vn 0.8135 -0.5816 0.0000
vn 0.8151 -0.5792 0.0000
vn 0.9944 -0.1050 0.0000
vn 0.9431 0.3325 0.0000
vn 0.6230 0.7822 0.0000
vn 0.6606 0.7507 0.0000
vn 0.7829 0.6221 0.0000
vn 0.3827 0.9239 0.0000
vn 0.9657 0.2585 0.0255
vn 0.8635 -0.5036 0.0265
vn 0.8678 -0.4961 0.0266
vn -0.4921 -0.8704 -0.0092
vn -0.5076 -0.8615 -0.0097
vn -0.8635 0.5036 -0.0265
vn -0.8678 0.4961 -0.0266
vn -0.1262 0.9919 -0.0085
vn -0.1301 0.9915 -0.0086
vn 0.5172 0.8558 -0.0042
vn 0.5165 0.8563 -0.0042
vn 0.8825 0.4702 -0.0022
vn 0.9657 0.2585 -0.0255
vn 0.8635 -0.5036 -0.0265
vn 0.8678 -0.4961 -0.0266
vn -0.4921 -0.8704 0.0092
vn -0.5076 -0.8615 0.0097
vn -0.8635 0.5036 0.0265
vn -0.8678 0.4961 0.0266
vn -0.1262 0.9919 0.0085
vn -0.1301 0.9915 0.0086
vn 0.5172 0.8558 0.0042
vn 0.5165 0.8563 0.0042
vn 0.8825 0.4702 0.0022
vn -0.9650 -0.2623 0.0000
vn -0.9944 -0.1050 0.0000
vn -0.9431 0.3325 0.0000
vn -0.6230 0.7822 0.0000
vn -0.6606 0.7507 0.0000
vn -0.7829 0.6221 0.0000
vn -0.3827 0.9239 0.0000
usemtl noname.07
s 1
f 1/1/1 2/2/1 3/3/1
f 4/4/1 5/5/1 6/6/1
f 7/7/1 8/8/1 9/9/1
f 10/10/2 11/11/2 12/12/2
f 11/11/2 13/13/2 12/12/2
f 14/14/3 15/15/3 16/16/3
f 15/15/3 17/17/3 16/16/3
f 18/18/4 19/19/4 20/20/4
f 19/19/4 21/21/4 20/20/4
f 22/22/5 23/23/5 24/24/5
f 23/23/5 25/25/5 24/24/5
f 26/26/6 27/27/6 28/28/6
f 27/27/6 29/29/6 28/28/6
f 30/30/5 31/31/5 32/32/5
f 31/31/5 33/33/5 32/32/5
f 34/34/6 35/35/6 36/36/6
f 35/35/6 37/37/6 36/36/6
f 38/38/3 39/39/3 40/40/3
f 39/39/3 41/41/3 40/40/3
f 42/42/4 43/43/4 44/44/4
f 43/43/4 45/45/4 44/44/4
f 46/46/3 47/47/3 48/48/3
f 47/47/3 49/49/3 48/48/3
f 50/50/4 51/51/4 52/52/4
f 51/51/4 53/53/4 52/52/4
f 54/54/6 55/55/6 56/56/6
f 55/55/6 57/57/6 56/56/6
f 58/58/5 59/59/5 60/60/5
f 59/59/5 61/61/5 60/60/5
f 62/62/6 63/63/6 64/64/6
f 63/63/6 65/65/6 64/64/6
f 66/66/5 67/67/5 68/68/5
f 67/67/5 69/69/5 68/68/5
f 70/70/3 71/71/3 72/72/3
f 71/71/3 73/73/3 72/72/3
f 74/74/4 75/75/4 76/76/4
f 75/75/4 77/77/4 76/76/4
f 78/78/7 79/79/7 80/80/7
f 79/79/7 81/81/7 80/80/7
f 82/82/8 83/83/8 84/84/8
f 83/83/8 85/85/8 84/84/8
f 86/86/9 87/87/10 88/88/11
f 87/87/10 89/89/12 88/88/11
f 90/90/13 86/86/9 91/91/13
f 86/86/9 88/88/11 91/91/13
f 91/91/13 88/88/11 92/92/13
f 93/93/14 94/94/15 95/95/16
f 94/94/15 96/96/17 95/95/16
f 97/97/18 95/95/16 98/98/18
f 95/95/16 96/96/17 98/98/18
f 98/98/18 96/96/17 99/99/18
f 100/100/19 101/101/20 102/102/21
f 101/101/20 103/103/22 102/102/21
f 104/104/23 100/100/19 105/105/24
f 100/100/19 102/102/21 105/105/24
f 105/105/24 102/102/21 106/106/25
f 106/106/25 102/102/21 107/107/26
f 102/102/21 103/103/22 107/107/26
f 107/107/26 103/103/22 108/108/27
f 109/109/28 104/104/23 110/110/29
f 104/104/23 105/105/24 110/110/29
f 110/110/29 105/105/24 111/111/30
f 105/105/24 106/106/25 111/111/30
f 111/111/30 106/106/25 112/112/31
f 112/112/31 106/106/25 113/113/32
f 106/106/25 107/107/26 113/113/32
f 113/113/32 107/107/26 114/114/33
f 107/107/26 108/108/27 114/114/33
f 114/114/33 108/108/27 115/115/34
f 116/116/35 109/109/28 117/117/36
f 109/109/28 110/110/29 117/117/36
f 117/117/36 110/110/29 118/118/37
f 110/110/29 111/111/30 118/118/37
f 118/118/37 111/111/30 119/119/38
f 111/111/30 112/112/31 119/119/38
f 119/119/38 112/112/31 120/120/39
f 120/120/39 112/112/31 121/121/40
f 112/112/31 113/113/32 121/121/40
f 121/121/40 113/113/32 122/122/41
f 113/113/32 114/114/33 122/122/41
f 122/122/41 114/114/33 123/123/42
f 114/114/33 115/115/34 123/123/42
f 123/123/42 115/115/34 124/124/43
f 125/125/44 126/126/44 127/127/44
f 126/126/44 128/128/44 127/127/44
f 127/127/44 128/128/44 129/129/44
f 130/130/30 131/131/29 132/132/25
f 131/131/29 133/133/24 132/132/25
f 134/134/31 130/130/30 135/135/32
f 130/130/30 132/132/25 135/135/32
f 135/135/32 132/132/25 136/136/33
f 136/136/33 132/132/25 137/137/26
f 132/132/25 133/133/24 137/137/26
f 137/137/26 133/133/24 138/138/21
f 139/139/40 134/134/31 140/140/41
f 134/134/31 135/135/32 140/140/41
f 140/140/41 135/135/32 141/141/42
f 135/135/32 136/136/33 141/141/42
f 141/141/42 136/136/33 142/142/43
f 142/142/43 136/136/33 143/143/34
f 136/136/33 137/137/26 143/143/34
f 143/143/34 137/137/26 144/144/27
f 137/137/26 138/138/21 144/144/27
f 144/144/27 138/138/21 145/145/22
f 146/146/20 145/145/22 147/147/19
f 145/145/22 138/138/21 147/147/19
f 147/147/19 138/138/21 148/148/23
f 138/138/21 133/133/24 148/148/23
f 148/148/23 133/133/24 149/149/28
f 133/133/24 131/131/29 149/149/28
f 149/149/28 131/131/29 150/150/35
f 150/150/35 131/131/29 151/151/36
f 131/131/29 130/130/30 151/151/36
f 151/151/36 130/130/30 152/152/37
f 130/130/30 134/134/31 152/152/37
f 152/152/37 134/134/31 153/153/38
f 134/134/31 139/139/40 153/153/38
f 153/153/38 139/139/40 154/154/45
f 155/155/46 156/156/46 157/157/46
f 157/157/46 156/156/46 158/158/46
f 156/156/46 159/159/46 158/158/46
f 158/158/46 159/159/46 160/160/46
f 161/161/47 162/162/47 163/163/47
f 163/163/47 162/162/47 164/164/47
f 162/162/47 165/165/47 164/164/47
f 164/164/47 165/165/47 166/166/47
f 167/167/48 168/168/49 169/169/50
f 168/168/49 170/170/51 169/169/50
f 171/171/52 169/169/50 172/172/53
f 169/169/50 170/170/51 172/172/53
f 172/172/53 170/170/51 173/173/54
f 170/170/51 168/168/49 173/173/54
f 173/173/54 168/168/49 174/174/55
f 168/168/49 175/175/56 174/174/55
f 175/175/56 176/176/57 174/174/55
f 174/174/55 176/176/57 177/177/58
f 176/176/57 178/178/59 177/177/58
f 177/177/58 178/178/59 179/179/60
f 179/179/60 178/178/59 180/180/61
f 180/180/61 178/178/59 181/181/62
f 178/178/59 176/176/57 181/181/62
f 181/181/62 176/176/57 182/182/63
f 176/176/57 175/175/56 182/182/63
f 182/182/63 175/175/56 183/183/64
f 183/183/64 175/175/56 167/167/48
f 175/175/56 168/168/49 167/167/48
f 171/171/52 184/184/65 169/169/50
f 184/184/65 185/185/66 169/169/50
f 169/169/50 185/185/66 167/167/48
f 185/185/66 186/186/67 167/167/48
f 186/186/67 187/187/68 167/167/48
f 167/167/48 187/187/68 183/183/64
f 183/183/64 187/187/68 182/182/63
f 187/187/68 188/188/69 182/182/63
f 182/182/63 188/188/69 181/181/62
f 188/188/69 189/189/70 181/181/62
f 181/181/62 189/189/70 180/180/61
f 180/180/61 189/189/70 190/190/71
f 190/190/71 189/189/70 191/191/72
f 189/189/70 188/188/69 191/191/72
f 191/191/72 188/188/69 192/192/73
f 188/188/69 187/187/68 192/192/73
f 192/192/73 187/187/68 193/193/74
f 187/187/68 194/194/75 193/193/74
f 187/187/68 186/186/67 194/194/75
f 194/194/75 186/186/67 195/195/76
f 186/186/67 185/185/66 195/195/76
f 195/195/76 185/185/66 184/184/65
f 191/191/72 192/192/73 196/196/77
f 192/192/73 197/197/78 196/196/77
f 196/196/77 197/197/78 198/198/79
f 198/198/79 197/197/78 199/199/80
f 199/199/80 197/197/78 200/200/81
f 200/200/81 197/197/78 193/193/74
f 197/197/78 192/192/73 193/193/74
f 195/195/76 201/201/82 194/194/75
f 201/201/82 202/202/83 194/194/75
f 194/194/75 202/202/83 193/193/74
f 193/193/74 202/202/83 200/200/81
f 200/200/81 202/202/83 203/203/84
f 203/203/84 202/202/83 204/204/85
f 202/202/83 201/201/82 204/204/85
f 205/205/86 206/206/87 207/207/88
f 206/206/87 208/208/89 207/207/88
f 205/205/86 209/209/90 206/206/87
f 206/206/87 209/209/90 210/210/91
f 209/209/90 211/211/92 210/210/91
f 211/211/92 212/212/93 210/210/91
f 212/212/93 213/213/94 210/210/91
f 210/210/91 213/213/94 206/206/87
f 213/213/94 214/214/95 206/206/87
f 206/206/87 214/214/95 208/208/89
f 214/214/95 215/215/96 208/208/89
f 208/208/89 215/215/96 207/207/88
f 215/215/96 216/216/97 207/207/88
f 207/207/88 216/216/97 217/217/98
f 217/217/98 216/216/97 218/218/99
f 216/216/97 219/219/100 218/218/99
f 218/218/99 219/219/100 220/220/101
f 219/219/100 221/221/102 220/220/101
f 220/220/101 221/221/102 222/222/103
f 221/221/102 223/223/104 222/222/103
f 207/207/88 217/217/98 205/205/86
f 205/205/86 217/217/98 224/224/105
f 224/224/105 217/217/98 225/225/106
f 217/217/98 218/218/99 225/225/106
f 225/225/106 218/218/99 222/222/103
f 218/218/99 220/220/101 222/222/103
f 223/223/104 226/226/107 222/222/103
f 226/226/107 227/227/108 222/222/103
f 222/222/103 227/227/108 225/225/106
f 227/227/108 228/228/109 225/225/106
f 228/228/109 229/229/110 225/225/106
f 225/225/106 229/229/110 224/224/105
f 224/224/105 229/229/110 205/205/86
f 205/205/86 229/229/110 209/209/90
f 229/229/110 230/230/111 209/209/90
f 209/209/90 230/230/111 211/211/92
f 211/211/92 230/230/111 231/231/112
f 230/230/111 232/232/113 231/231/112
f 231/231/112 232/232/113 233/233/114
f 233/233/114 232/232/113 234/234/115
f 234/234/115 232/232/113 235/235/116
f 235/235/116 232/232/113 236/236/117
f 232/232/113 230/230/111 236/236/117
f 236/236/117 230/230/111 229/229/110
f 236/236/117 229/229/110 237/237/118
f 229/229/110 228/228/109 237/237/118
f 237/237/118 228/228/109 238/238/119
f 228/228/109 227/227/108 238/238/119
f 238/238/119 227/227/108 226/226/107
f 238/238/119 239/239/120 237/237/118
f 239/239/120 240/240/121 237/237/118
f 237/237/118 240/240/121 236/236/117
f 236/236/117 240/240/121 235/235/116
f 235/235/116 240/240/121 241/241/122
f 241/241/122 240/240/121 242/242/123
f 240/240/121 239/239/120 242/242/123
f 243/243/124 244/244/125 245/245/126
f 244/244/125 246/246/127 245/245/126
f 247/247/128 248/248/129 243/243/124
f 248/248/129 249/249/129 243/243/124
f 243/243/124 249/249/129 250/250/130
f 249/249/129 251/251/131 250/250/130
f 250/250/130 251/251/131 252/252/132
f 251/251/131 253/253/133 252/252/132
f 253/253/133 254/254/134 252/252/132
f 252/252/132 254/254/134 250/250/130
f 250/250/130 254/254/134 255/255/135
f 254/254/134 253/253/133 255/255/135
f 253/253/133 256/256/136 255/255/135
f 255/255/135 256/256/136 244/244/125
f 256/256/136 257/257/136 244/244/125
f 257/257/136 258/258/137 244/244/125
f 244/244/125 258/258/137 246/246/127
f 258/258/137 247/247/128 246/246/127
f 246/246/127 247/247/128 245/245/126
f 247/247/128 243/243/124 245/245/126
f 244/244/125 259/259/138 255/255/135
f 259/259/138 260/260/139 255/255/135
f 255/255/135 260/260/139 250/250/130
f 260/260/139 261/261/140 250/250/130
f 250/250/130 261/261/140 243/243/124
f 261/261/140 262/262/141 243/243/124
f 243/243/124 262/262/141 244/244/125
f 244/244/125 262/262/141 259/259/138
f 262/262/141 261/261/140 259/259/138
f 259/259/138 261/261/140 260/260/139
f 263/263/142 264/264/143 265/265/144
f 265/265/144 264/264/143 266/266/143
f 264/264/143 267/267/145 266/266/143
f 266/266/143 267/267/145 268/268/145
f 269/269/47 270/270/47 265/265/144
f 270/270/47 271/271/146 265/265/144
f 265/265/144 271/271/146 263/263/142
f 271/271/146 272/272/147 263/263/142
f 263/263/142 272/272/147 273/273/46
f 272/272/147 274/274/46 273/273/46
f 275/275/148 276/276/149 277/277/150
f 276/276/149 278/278/150 277/277/150
f 277/277/150 278/278/150 279/279/145
f 278/278/150 280/280/145 279/279/145
f 281/281/47 276/276/149 282/282/47
f 282/282/47 276/276/149 283/283/146
f 276/276/149 275/275/148 283/283/146
f 283/283/146 275/275/148 284/284/147
f 275/275/148 285/285/46 284/284/147
f 284/284/147 285/285/46 286/286/46
f 287/287/151 288/288/152 289/289/153
f 288/288/152 290/290/154 289/289/153
f 289/289/153 290/290/154 291/291/155
f 290/290/154 292/292/155 291/291/155
f 291/291/155 292/292/155 293/293/155
f 294/294/156 295/295/156 296/296/156
f 295/295/156 297/297/157 296/296/156
f 296/296/156 297/297/157 298/298/158
f 297/297/157 299/299/159 298/298/158
f 298/298/158 299/299/159 300/300/160
f 301/301/161 302/302/162 303/303/161
f 303/303/161 302/302/162 304/304/163
f 304/304/163 302/302/162 305/305/164
f 302/302/162 306/306/165 305/305/164
f 305/305/164 306/306/165 307/307/165
f 308/308/166 309/309/167 310/310/166
f 310/310/166 309/309/167 305/305/164
f 305/305/164 309/309/167 304/304/163
f 309/309/167 311/311/168 304/304/163
f 304/304/163 311/311/168 312/312/168
f 313/313/166 314/314/166 315/315/164
f 314/314/166 316/316/167 315/315/164
f 316/316/167 317/317/162 315/315/164
f 315/315/164 317/317/162 318/318/165
f 317/317/162 319/319/165 318/318/165
f 320/320/161 321/321/161 322/322/163
f 321/321/161 317/317/162 322/322/163
f 317/317/162 316/316/167 322/322/163
f 322/322/163 316/316/167 323/323/168
f 316/316/167 324/324/168 323/323/168
f 325/325/169 326/326/170 327/327/171
f 327/327/171 326/326/170 328/328/172
f 326/326/170 329/329/173 328/328/172
f 328/328/172 329/329/173 330/330/174
f 329/329/173 326/326/170 331/331/175
f 331/331/175 326/326/170 332/332/176
f 326/326/170 325/325/169 332/332/176
f 332/332/176 325/325/169 333/333/177
f 325/325/169 334/334/178 333/333/177
f 333/333/177 334/334/178 335/335/179
f 334/334/178 336/336/180 335/335/179
f 336/336/180 337/337/181 335/335/179
f 335/335/179 337/337/181 338/338/182
f 337/337/181 339/339/183 338/338/182
f 338/338/182 339/339/183 340/340/184
f 339/339/183 341/341/185 340/340/184
f 340/340/184 341/341/185 342/342/186
f 341/341/185 343/343/187 342/342/186
f 342/342/186 343/343/187 344/344/188
f 343/343/187 345/345/189 344/344/188
f 344/344/188 345/345/189 346/346/190
f 345/345/189 347/347/191 346/346/190
f 331/331/175 332/332/176 348/348/192
f 348/348/192 332/332/176 349/349/193
f 332/332/176 333/333/177 349/349/193
f 349/349/193 333/333/177 350/350/194
f 333/333/177 335/335/179 350/350/194
f 335/335/179 338/338/182 350/350/194
f 350/350/194 338/338/182 351/351/195
f 338/338/182 340/340/184 351/351/195
f 351/351/195 340/340/184 352/352/196
f 340/340/184 342/342/186 352/352/196
f 352/352/196 342/342/186 353/353/197
f 342/342/186 344/344/188 353/353/197
f 353/353/197 344/344/188 354/354/198
f 344/344/188 346/346/190 354/354/198
f 353/353/197 355/355/199 352/352/196
f 355/355/199 356/356/200 352/352/196
f 352/352/196 356/356/200 351/351/195
f 356/356/200 357/357/201 351/351/195
f 351/351/195 357/357/201 350/350/194
f 357/357/201 349/349/193 350/350/194
f 354/354/198 358/358/202 353/353/197
f 353/353/197 358/358/202 355/355/199
f 358/358/202 359/359/203 355/355/199
f 359/359/203 360/360/204 355/355/199
f 355/355/199 360/360/204 356/356/200
f 360/360/204 361/361/205 356/356/200
f 356/356/200 361/361/205 357/357/201
f 361/361/205 362/362/206 357/357/201
f 357/357/201 362/362/206 349/349/193
f 362/362/206 348/348/192 349/349/193
f 363/363/207 347/347/191 364/364/208
f 347/347/191 345/345/189 364/364/208
f 364/364/208 345/345/189 365/365/209
f 345/345/189 343/343/187 365/365/209
f 365/365/209 343/343/187 366/366/210
f 343/343/187 341/341/185 366/366/210
f 366/366/210 341/341/185 367/367/211
f 341/341/185 339/339/183 367/367/211
f 367/367/211 339/339/183 368/368/212
f 339/339/183 337/337/181 368/368/212
f 368/368/212 337/337/181 369/369/213
f 337/337/181 336/336/180 369/369/213
f 369/369/213 336/336/180 370/370/214
f 370/370/214 336/336/180 371/371/215
f 336/336/180 334/334/178 371/371/215
f 371/371/215 334/334/178 372/372/216
f 334/334/178 325/325/169 372/372/216
f 372/372/216 325/325/169 327/327/171
f 373/373/217 374/374/218 375/375/217
f 375/375/217 374/374/218 376/376/219
f 374/374/218 377/377/220 376/376/219
f 376/376/219 377/377/220 378/378/221
f 377/377/220 379/379/222 378/378/221
f 378/378/221 379/379/222 380/380/223
f 379/379/222 381/381/224 380/380/223
f 380/380/223 381/381/224 382/382/224
f 383/383/225 384/384/225 385/385/226
f 384/384/225 386/386/227 385/385/226
f 385/385/226 386/386/227 387/387/228
f 386/386/227 388/388/229 387/387/228
f 388/388/229 389/389/230 387/387/228
f 387/387/228 389/389/230 390/390/231
f 390/390/231 389/389/230 391/391/6
f 389/389/230 392/392/6 391/391/6
f 393/393/232 394/394/232 395/395/233
f 394/394/232 396/396/234 395/395/233
f 395/395/233 396/396/234 397/397/235
f 396/396/234 398/398/236 397/397/235
f 398/398/236 399/399/237 397/397/235
f 397/397/235 399/399/237 400/400/238
f 400/400/238 399/399/237 401/401/6
f 399/399/237 402/402/6 401/401/6
f 403/403/225 404/404/239 405/405/225
f 405/405/225 404/404/239 406/406/240
f 404/404/239 407/407/231 406/406/240
f 406/406/240 407/407/231 408/408/230
f 408/408/230 407/407/231 409/409/229
f 407/407/231 410/410/228 409/409/229
f 410/410/228 411/411/5 409/409/229
f 409/409/229 411/411/5 412/412/5
f 413/413/241 414/414/241 415/415/242
f 414/414/241 416/416/243 415/415/242
f 415/415/242 416/416/243 417/417/244
f 416/416/243 418/418/245 417/417/244
f 417/417/244 418/418/245 419/419/246
f 418/418/245 420/420/247 419/419/246
f 419/419/246 420/420/247 421/421/248
f 420/420/247 422/422/248 421/421/248
f 423/423/249 424/424/250 425/425/249
f 425/425/249 424/424/250 426/426/251
f 424/424/250 427/427/252 426/426/251
f 426/426/251 427/427/252 428/428/253
f 427/427/252 429/429/254 428/428/253
f 428/428/253 429/429/254 430/430/255
f 429/429/254 431/431/256 430/430/255
f 430/430/255 431/431/256 432/432/256
f 433/433/257 434/434/257 435/435/258
f 434/434/257 436/436/259 435/435/258
f 435/435/258 436/436/259 437/437/260
f 436/436/259 438/438/261 437/437/260
f 437/437/260 438/438/261 439/439/262
f 438/438/261 440/440/263 439/439/262
f 439/439/262 440/440/263 441/441/264
f 440/440/263 442/442/264 441/441/264
f 443/443/232 444/444/265 445/445/232
f 445/445/232 444/444/265 446/446/266
f 444/444/265 447/447/238 446/446/266
f 446/446/266 447/447/238 448/448/237
f 448/448/237 447/447/238 449/449/236
f 447/447/238 450/450/235 449/449/236
f 450/450/235 451/451/5 449/449/236
f 449/449/236 451/451/5 452/452/5
f 453/453/139 454/454/138 455/455/141
f 455/455/141 454/454/138 456/456/135
f 454/454/138 457/457/130 456/456/135
f 457/457/130 458/458/132 456/456/135
f 456/456/135 458/458/132 459/459/134
f 454/454/138 453/453/139 457/457/130
f 453/453/139 460/460/124 457/457/130
f 457/457/130 460/460/124 461/461/129
f 461/461/129 460/460/124 462/462/128
f 460/460/124 463/463/126 462/462/128
f 462/462/128 463/463/126 464/464/137
f 463/463/126 465/465/127 464/464/137
f 465/465/127 466/466/125 464/464/137
f 464/464/137 466/466/125 467/467/136
f 466/466/125 456/456/135 467/467/136
f 467/467/136 456/456/135 468/468/136
f 468/468/136 456/456/135 469/469/133
f 456/456/135 459/459/134 469/469/133
f 469/469/133 459/459/134 470/470/131
f 459/459/134 458/458/132 470/470/131
f 458/458/132 457/457/130 470/470/131
f 470/470/131 457/457/130 471/471/129
f 457/457/130 461/461/129 471/471/129
f 456/456/135 466/466/125 455/455/141
f 466/466/125 472/472/140 455/455/141
f 455/455/141 472/472/140 453/453/139
f 453/453/139 472/472/140 460/460/124
f 472/472/140 466/466/125 460/460/124
f 466/466/125 465/465/127 460/460/124
f 460/460/124 465/465/127 463/463/126
f 473/473/267 474/474/268 475/475/269
f 474/474/268 476/476/270 475/475/269
f 475/475/269 476/476/270 477/477/271
f 476/476/270 478/478/272 477/477/271
f 478/478/272 479/479/273 477/477/271
f 477/477/271 479/479/273 480/480/274
f 479/479/273 481/481/274 480/480/274
f 479/479/273 478/478/272 482/482/275
f 482/482/275 478/478/272 483/483/276
f 478/478/272 476/476/270 483/483/276
f 476/476/270 474/474/268 483/483/276
f 474/474/268 473/473/267 483/483/276
f 483/483/276 473/473/267 484/484/277
f 473/473/267 485/485/278 484/484/277
f 485/485/278 482/482/275 484/484/277
f 484/484/277 482/482/275 483/483/276
f 475/475/269 486/486/279 473/473/267
f 473/473/267 486/486/279 485/485/278
f 485/485/278 486/486/279 487/487/280
f 486/486/279 488/488/281 487/487/280
f 487/487/280 488/488/281 489/489/282
f 488/488/281 490/490/282 489/489/282
f 490/490/282 491/491/283 489/489/282
f 489/489/282 491/491/283 492/492/283
f 491/491/283 493/493/284 492/492/283
f 492/492/283 493/493/284 494/494/284
f 493/493/284 495/495/285 494/494/284
f 494/494/284 495/495/285 496/496/285
f 496/496/285 495/495/285 497/497/286
f 495/495/285 498/498/286 497/497/286
f 497/497/286 498/498/286 499/499/287
f 498/498/286 500/500/287 499/499/287
f 500/500/287 501/501/8 499/499/287
f 501/501/8 502/502/8 499/499/287
f 503/503/288 504/504/289 505/505/288
f 505/505/288 504/504/289 506/506/290
f 506/506/290 504/504/289 507/507/291
f 504/504/289 508/508/292 507/507/291
f 507/507/291 508/508/292 509/509/293
f 508/508/292 510/510/294 509/509/293
f 509/509/293 510/510/294 511/511/295
f 510/510/294 512/512/296 511/511/295
f 512/512/296 513/513/297 511/511/295
f 511/511/295 513/513/297 514/514/298
f 513/513/297 515/515/299 514/514/298
f 514/514/298 515/515/299 516/516/299
f 517/517/300 518/518/300 519/519/301
f 518/518/300 520/520/302 519/519/301
f 520/520/302 521/521/303 519/519/301
f 519/519/301 521/521/303 522/522/304
f 521/521/303 523/523/305 522/522/304
f 522/522/304 523/523/305 524/524/306
f 523/523/305 525/525/307 524/524/306
f 524/524/306 525/525/307 526/526/308
f 526/526/308 525/525/307 527/527/309
f 525/525/307 528/528/310 527/527/309
f 527/527/309 528/528/310 529/529/311
f 528/528/310 530/530/311 529/529/311
f 531/531/312 532/532/312 533/533/313
f 532/532/312 534/534/313 533/533/313
f 534/534/313 535/535/314 533/533/313
f 533/533/313 535/535/314 536/536/314
f 535/535/314 537/537/315 536/536/314
f 536/536/314 537/537/315 538/538/315
f 537/537/315 539/539/316 538/538/315
f 538/538/315 539/539/316 540/540/316
f 540/540/316 539/539/316 541/541/317
f 539/539/316 542/542/317 541/541/317
f 541/541/317 542/542/317 543/543/318
f 542/542/317 544/544/318 543/543/318
f 544/544/318 545/545/8 543/543/318
f 543/543/318 545/545/8 546/546/8
