# Blender v2.78 (sub 0) OBJ File: ''
# www.blender.org
mtllib Table_WoodTable.mtl
o Furniture_01_Table_WoodTable_JT_Smesh
v -0.009355 0.756873 -0.474506
v -0.009272 0.703941 -0.474506
v -1.009164 0.703941 -0.504582
v -1.009164 0.756873 -0.504582
v -1.009164 0.756873 0.504582
v -0.004139 0.756873 0.493757
v -1.009164 0.756873 -0.504582
v -0.009355 0.756873 -0.474506
v -0.004139 0.756873 0.493757
v 1.009164 0.756873 0.504582
v 1.037349 0.756873 -0.063673
v 1.009164 0.756873 -0.504582
v -1.009164 0.703941 0.504582
v -0.004056 0.703941 0.493757
v -1.009164 0.756873 0.504582
v -0.004139 0.756873 0.493757
v 0.977627 0.381175 0.473046
v 0.977627 0.710991 0.473046
v 0.914555 0.381499 0.473046
v 0.914555 0.710991 0.473046
v 0.977627 0.383387 0.409973
v 0.914555 0.383711 0.409973
v 0.977627 0.710991 0.409973
v 0.914555 0.710991 0.409973
v 0.977627 0.383387 0.409973
v 0.977627 0.381175 0.473046
v 0.990820 -0.000015 0.423020
v 0.990820 -0.000015 0.486093
v 0.914555 0.381499 0.473046
v 0.914555 0.710991 0.473046
v 0.914555 0.383711 0.409973
v 0.914555 0.710991 0.409973
v 0.990820 -0.000015 0.486093
v 0.977627 0.381175 0.473046
v 0.927747 -0.000015 0.486093
v 0.914555 0.381499 0.473046
v 0.914555 0.383711 0.409973
v 0.977627 0.383387 0.409973
v 0.927747 -0.000015 0.423020
v 0.990820 -0.000015 0.423020
v 0.990820 -0.000015 0.486093
v 0.927747 -0.000015 0.486093
v 0.990820 -0.000015 0.423020
v 0.927747 -0.000015 0.423020
v 0.977627 0.381175 0.473046
v 0.977627 0.383387 0.409973
v 0.977627 0.710991 0.473046
v 0.977627 0.710991 0.409973
v 0.914555 0.383711 0.409973
v 0.927747 -0.000015 0.423020
v 0.914555 0.381499 0.473046
v 0.927747 -0.000015 0.486093
v -0.900348 -0.000015 0.473045
v -0.900348 -0.000015 0.409973
v -0.914555 0.710991 0.473046
v -0.914555 0.710991 0.409973
v -0.963421 -0.000015 0.409973
v -0.963421 -0.000015 0.473045
v -0.977627 0.710991 0.409973
v -0.977627 0.710991 0.473046
v -0.900348 -0.000015 0.473045
v -0.963421 -0.000015 0.473045
v -0.900348 -0.000015 0.409973
v -0.963421 -0.000015 0.409973
v -0.977627 0.710991 0.473046
v -0.963421 -0.000015 0.473045
v -0.914555 0.710991 0.473046
v -0.900348 -0.000015 0.473045
v -0.900348 -0.000015 0.409973
v -0.963421 -0.000015 0.409973
v -0.914555 0.710991 0.409973
v -0.977627 0.710991 0.409973
v -0.000505 0.497921 0.424379
v -0.004027 0.497921 0.458639
v -0.930546 0.519716 0.424379
v -0.930546 0.519716 0.458639
v -0.001618 0.560994 0.424379
v -0.930546 0.582789 0.424379
v -0.005140 0.560994 0.458639
v -0.930546 0.582789 0.458639
v -0.004027 0.497921 0.458639
v -0.000505 0.497921 0.424379
v 0.925569 0.519716 0.458639
v 0.925569 0.519716 0.424379
v -0.005140 0.560994 0.458639
v 0.925569 0.582789 0.458639
v -0.001618 0.560994 0.424379
v 0.925569 0.582789 0.424379
v -0.914555 0.423925 -0.473045
v -0.977627 0.427061 -0.473045
v -0.914555 0.710991 -0.473045
v -0.977627 0.710991 -0.473045
v -0.914555 0.425129 -0.409973
v -0.914555 0.710991 -0.409973
v -0.977627 0.428265 -0.409973
v -0.977627 0.710991 -0.409973
v -0.962911 -0.000015 -0.392402
v -0.977627 0.428265 -0.409973
v -0.962911 -0.000015 -0.455475
v -0.977627 0.427061 -0.473045
v -0.914555 0.423925 -0.473045
v -0.914555 0.710991 -0.473045
v -0.914555 0.425129 -0.409973
v -0.914555 0.710991 -0.409973
v -0.977627 0.427061 -0.473045
v -0.914555 0.423925 -0.473045
v -0.962911 -0.000015 -0.455475
v -0.899838 -0.000015 -0.455475
v -0.977627 0.428265 -0.409973
v -0.962911 -0.000015 -0.392402
v -0.914555 0.425129 -0.409973
v -0.899838 -0.000015 -0.392402
v -0.962911 -0.000015 -0.455475
v -0.899838 -0.000015 -0.455475
v -0.962911 -0.000015 -0.392402
v -0.899838 -0.000015 -0.392402
v -0.977627 0.710991 -0.473045
v -0.977627 0.427061 -0.473045
v -0.977627 0.710991 -0.409973
v -0.977627 0.428265 -0.409973
v -0.899838 -0.000015 -0.392402
v -0.899838 -0.000015 -0.455475
v -0.914555 0.425129 -0.409973
v -0.914555 0.423925 -0.473045
v 0.517946 0.509032 -0.424379
v -0.930546 0.519716 -0.424379
v 0.516489 0.509032 -0.458639
v -0.930546 0.519716 -0.458639
v 0.520636 0.572105 -0.424379
v 0.519179 0.572105 -0.458639
v -0.930546 0.582789 -0.424379
v -0.930546 0.582789 -0.458639
v 0.516489 0.509032 -0.458639
v 0.925569 0.519716 -0.458639
v 0.517946 0.509032 -0.424379
v 0.925569 0.519716 -0.424379
v 0.519179 0.572105 -0.458639
v 0.520636 0.572105 -0.424379
v 0.925569 0.582789 -0.458639
v 0.925569 0.582789 -0.424379
v 0.914555 -0.000015 -0.473045
v 0.914555 -0.000015 -0.409973
v 0.914555 0.710991 -0.473045
v 0.914555 0.710991 -0.409973
v 0.977627 -0.000015 -0.409973
v 0.977627 -0.000015 -0.473045
v 0.977627 0.710991 -0.409973
v 0.977627 0.710991 -0.473045
v 0.914555 -0.000015 -0.473045
v 0.977627 -0.000015 -0.473045
v 0.914555 -0.000015 -0.409973
v 0.977627 -0.000015 -0.409973
v 0.914555 0.710991 -0.473045
v 0.977627 0.710991 -0.473045
v 0.914555 -0.000015 -0.473045
v 0.977627 -0.000015 -0.473045
v 0.914555 -0.000015 -0.409973
v 0.977627 -0.000015 -0.409973
v 0.914555 0.710991 -0.409973
v 0.977627 0.710991 -0.409973
v 1.037349 0.756873 -0.063673
v 1.037349 0.703941 -0.064006
v 1.009164 0.756873 -0.504582
v 1.009164 0.703941 -0.504582
v -0.004056 0.703941 0.493757
v -0.009272 0.703941 -0.474506
v 1.009164 0.703941 0.504582
v 1.037349 0.703941 -0.064006
v 1.009164 0.703941 -0.504582
v -1.009164 0.703941 -0.504582
v -0.009272 0.703941 -0.474506
v -1.009164 0.703941 0.504582
v -0.009355 0.756873 -0.474506
v 1.009164 0.756873 -0.504582
v -0.009272 0.703941 -0.474506
v 1.009164 0.703941 -0.504582
v -0.004139 0.756873 0.493757
v -0.004056 0.703941 0.493757
v 1.009164 0.756873 0.504582
v 1.009164 0.703941 0.504582
v -1.009164 0.703941 -0.504582
v -1.009164 0.703941 0.504582
v -1.009164 0.756873 -0.504582
v -1.009164 0.756873 0.504582
v 1.009164 0.703941 0.504582
v 1.037349 0.703941 -0.064006
v 1.009164 0.756873 0.504582
v 1.037349 0.756873 -0.063673
v -0.930546 0.519716 -0.458639
v -0.930546 0.582789 -0.458639
v 0.516489 0.509032 -0.458639
v 0.519179 0.572105 -0.458639
v 0.925569 0.519716 -0.458639
v 0.925569 0.582789 -0.458639
v 0.925569 0.519716 -0.424379
v 0.925569 0.582789 -0.424379
v 0.520636 0.572105 -0.424379
v 0.517946 0.509032 -0.424379
v -0.930546 0.582789 -0.424379
v -0.930546 0.519716 -0.424379
v -0.001618 0.560994 0.424379
v -0.930546 0.519716 0.424379
v -0.930546 0.582789 0.424379
v -0.000505 0.497921 0.424379
v 0.925569 0.519716 0.424379
v 0.925569 0.582789 0.424379
v -0.005140 0.560994 0.458639
v 0.925569 0.519716 0.458639
v 0.925569 0.582789 0.458639
v -0.004027 0.497921 0.458639
v -0.930546 0.519716 0.458639
v -0.930546 0.582789 0.458639
vt 0.4312 0.5759
vt 0.4521 0.5757
vt 0.4521 0.9673
vt 0.4312 0.9676
vt 0.0357 0.9676
vt 0.0358 0.5737
vt 0.4312 0.9676
vt 0.4312 0.5759
vt 0.0358 0.5737
vt 0.0358 0.1768
vt 0.2585 0.1768
vt 0.4312 0.1768
vt 0.0149 0.9673
vt 0.0149 0.5737
vt 0.0357 0.9676
vt 0.0358 0.5737
vt 0.8154 0.0815
vt 0.6841 0.0815
vt 0.8154 0.0498
vt 0.6841 0.0498
vt 0.8145 0.1143
vt 0.8145 0.1475
vt 0.6841 0.1143
vt 0.6841 0.1475
vt 0.8145 0.1143
vt 0.8154 0.0815
vt 0.9678 0.1138
vt 0.9678 0.0815
vt 0.8154 0.0498
vt 0.6841 0.0498
vt 0.8145 0.0181
vt 0.6841 0.0181
vt 0.9678 0.0815
vt 0.8154 0.0815
vt 0.9673 0.0498
vt 0.8154 0.0498
vt 0.8145 0.1475
vt 0.8145 0.1143
vt 0.9673 0.1475
vt 0.9678 0.1138
vt 0.9678 0.0815
vt 0.9927 0.0815
vt 0.9678 0.1138
vt 0.9927 0.1138
vt 0.8154 0.0815
vt 0.8145 0.1143
vt 0.6841 0.0815
vt 0.6841 0.1143
vt 0.8145 0.0181
vt 0.9673 0.0181
vt 0.8154 0.0498
vt 0.9673 0.0498
vt 0.3210 0.0728
vt 0.3208 0.1030
vt 0.0118 0.0728
vt 0.0118 0.1030
vt 0.3208 0.0088
vt 0.3210 0.0415
vt 0.0118 0.0088
vt 0.0118 0.0405
vt 0.3210 0.0728
vt 0.3210 0.0415
vt 0.3484 0.0728
vt 0.3484 0.0415
vt 0.0118 0.0405
vt 0.3210 0.0415
vt 0.0118 0.0728
vt 0.3210 0.0728
vt 0.3208 0.1030
vt 0.3208 0.1338
vt 0.0118 0.1030
vt 0.0118 0.1338
vt 0.9546 0.5747
vt 0.9346 0.5764
vt 0.9546 0.9920
vt 0.9346 0.9920
vt 0.8799 0.5752
vt 0.8799 0.9920
vt 0.8989 0.5769
vt 0.8989 0.9920
vt 0.9346 0.5764
vt 0.9546 0.5747
vt 0.9346 0.1592
vt 0.9546 0.1592
vt 0.8989 0.5769
vt 0.8989 0.1592
vt 0.8799 0.5752
vt 0.8799 0.1592
vt 0.5449 0.0498
vt 0.5464 0.0815
vt 0.6729 0.0498
vt 0.6729 0.0815
vt 0.5454 0.1475
vt 0.6729 0.1475
vt 0.5469 0.1143
vt 0.6729 0.1143
vt 0.3564 0.1138
vt 0.5469 0.1143
vt 0.3564 0.0815
vt 0.5464 0.0815
vt 0.5449 0.0498
vt 0.6729 0.0498
vt 0.5454 0.0181
vt 0.6729 0.0181
vt 0.5464 0.0815
vt 0.5449 0.0498
vt 0.3564 0.0815
vt 0.3564 0.0498
vt 0.5469 0.1143
vt 0.3564 0.1138
vt 0.5454 0.1475
vt 0.3564 0.1475
vt 0.3564 0.0815
vt 0.3281 0.0815
vt 0.3564 0.1138
vt 0.3281 0.1138
vt 0.6729 0.0815
vt 0.5464 0.0815
vt 0.6729 0.1143
vt 0.5469 0.1143
vt 0.3564 0.0181
vt 0.3564 0.0498
vt 0.5454 0.0181
vt 0.5449 0.0498
vt 0.8325 0.3423
vt 0.8325 0.9920
vt 0.8120 0.3428
vt 0.8120 0.9920
vt 0.7578 0.3413
vt 0.7769 0.3418
vt 0.7578 0.9920
vt 0.7769 0.9920
vt 0.8120 0.3428
vt 0.8120 0.1592
vt 0.8325 0.3423
vt 0.8325 0.1592
vt 0.7769 0.3418
vt 0.7578 0.3413
vt 0.7769 0.1592
vt 0.7578 0.1592
vt 0.3210 0.0728
vt 0.3208 0.1030
vt 0.0118 0.0728
vt 0.0118 0.1030
vt 0.3208 0.0088
vt 0.3210 0.0415
vt 0.0118 0.0088
vt 0.0118 0.0405
vt 0.3210 0.0728
vt 0.3210 0.0415
vt 0.3484 0.0728
vt 0.3484 0.0415
vt 0.0118 0.0728
vt 0.0118 0.0405
vt 0.3210 0.0728
vt 0.3210 0.0415
vt 0.3208 0.1030
vt 0.3208 0.1338
vt 0.0118 0.1030
vt 0.0118 0.1338
vt 0.2585 0.1768
vt 0.2585 0.1562
vt 0.4312 0.1768
vt 0.4312 0.1562
vt 0.7441 0.5737
vt 0.4521 0.5757
vt 0.7441 0.1768
vt 0.5796 0.1768
vt 0.4521 0.1768
vt 0.4521 0.9673
vt 0.4521 0.5757
vt 0.7441 0.9673
vt 0.4312 0.5759
vt 0.4312 0.1768
vt 0.4521 0.5757
vt 0.4521 0.1768
vt 0.0358 0.5737
vt 0.0149 0.5737
vt 0.0358 0.1768
vt 0.0149 0.1768
vt 0.4312 0.9887
vt 0.0358 0.9887
vt 0.4312 0.9676
vt 0.0357 0.9676
vt 0.0360 0.1562
vt 0.2585 0.1562
vt 0.0358 0.1768
vt 0.2585 0.1768
vt 0.8120 0.9920
vt 0.7769 0.9920
vt 0.8120 0.3428
vt 0.7769 0.3418
vt 0.8120 0.1592
vt 0.7769 0.1592
vt 0.8325 0.1592
vt 0.8691 0.1592
vt 0.8691 0.3413
vt 0.8325 0.3423
vt 0.8691 0.9920
vt 0.8325 0.9920
vt 0.9912 0.5752
vt 0.9546 0.9920
vt 0.9912 0.9920
vt 0.9546 0.5747
vt 0.9546 0.1592
vt 0.9912 0.1592
vt 0.8989 0.5769
vt 0.9346 0.1592
vt 0.8989 0.1592
vt 0.9346 0.5764
vt 0.9346 0.9920
vt 0.8989 0.9920
vn 0.0301 0.0000 -0.9995
vn 0.0000 1.0000 0.0000
vn 0.0107 0.0000 0.9999
vn 0.0000 0.0000 1.0000
vn 0.0000 0.0000 -1.0000
vn 0.9994 0.0344 0.0012
vn 0.9994 0.0344 0.0011
vn 0.9994 0.0345 0.0001
vn 0.9994 0.0346 0.0000
vn -1.0000 0.0000 0.0000
vn 0.0000 0.0342 0.9994
vn 0.0002 0.0342 0.9994
vn -0.0002 -0.0340 -0.9994
vn 0.0000 -0.0340 -0.9994
vn 0.0000 -1.0000 0.0000
vn 1.0000 0.0000 0.0000
vn -0.9994 -0.0344 -0.0012
vn -0.9994 -0.0345 -0.0001
vn -0.9994 -0.0344 -0.0011
vn -0.9994 -0.0345 0.0000
vn 0.9998 0.0200 0.0000
vn -0.9998 -0.0200 0.0000
vn -0.0234 -0.9997 -0.0024
vn -0.0234 -0.9997 -0.0023
vn -0.0235 -0.9997 -0.0000
vn 0.0234 0.9997 0.0024
vn 0.0235 0.9997 0.0000
vn 0.0234 0.9997 0.0023
vn 0.0234 -0.9997 0.0024
vn 0.0234 -0.9997 0.0023
vn 0.0235 -0.9997 0.0000
vn -0.0234 0.9997 -0.0024
vn -0.0235 0.9997 -0.0000
vn -0.0234 0.9997 -0.0023
vn -0.9994 -0.0343 0.0000
vn -0.9994 -0.0344 0.0006
vn -0.0020 -0.0412 -0.9991
vn -0.0019 -0.0412 -0.9991
vn -0.0002 -0.0414 -0.9991
vn 0.0000 -0.0414 -0.9991
vn 0.0020 0.0410 0.9991
vn 0.0002 0.0413 0.9991
vn 0.0018 0.0411 0.9991
vn 0.0000 0.0413 0.9991
vn 0.9994 0.0346 -0.0006
vn -0.0074 -1.0000 0.0003
vn -0.0074 -1.0000 0.0000
vn 0.0074 1.0000 -0.0003
vn 0.0074 1.0000 0.0000
vn 0.0261 -0.9996 -0.0011
vn 0.0262 -0.9996 -0.0000
vn 0.0261 -0.9996 -0.0010
vn -0.0263 0.9996 0.0011
vn -0.0263 0.9996 0.0010
vn -0.0264 0.9996 0.0000
vn 0.9980 0.0004 -0.0638
vn 0.9980 0.0000 -0.0638
vn -0.0295 -0.0000 -0.9995
vn -0.0107 0.0000 0.9999
vn 0.9987 0.0000 0.0495
vn 0.9987 -0.0003 0.0495
usemtl Furniture_01_Table_WoodTable_JT_Mat
s 1
f 1/1/1 2/2/1 3/3/1
f 4/4/1 1/1/1 3/3/1
f 5/5/2 6/6/2 7/7/2
f 6/6/2 8/8/2 7/7/2
f 9/9/2 10/10/2 11/11/2
f 12/12/2 9/9/2 11/11/2
f 8/8/2 9/9/2 12/12/2
f 13/13/3 14/14/3 15/15/3
f 14/14/3 16/16/3 15/15/3
f 17/17/4 18/18/4 19/19/4
f 19/19/4 18/18/4 20/20/4
f 21/21/5 22/22/5 23/23/5
f 22/22/5 24/24/5 23/23/5
f 25/25/6 26/26/7 27/27/8
f 26/26/7 28/28/9 27/27/8
f 29/29/10 30/30/10 31/31/10
f 31/31/10 30/30/10 32/32/10
f 33/33/11 34/34/12 35/35/11
f 34/34/12 36/36/12 35/35/11
f 37/37/13 38/38/13 39/39/14
f 39/39/14 38/38/13 40/40/14
f 41/41/15 42/42/15 43/43/15
f 42/42/15 44/44/15 43/43/15
f 45/45/16 46/46/16 47/47/16
f 47/47/16 46/46/16 48/48/16
f 49/49/17 50/50/18 51/51/19
f 52/52/20 51/51/19 50/50/18
f 53/53/21 54/54/21 55/55/21
f 54/54/21 56/56/21 55/55/21
f 57/57/22 58/58/22 59/59/22
f 58/58/22 60/60/22 59/59/22
f 61/61/15 62/62/15 63/63/15
f 62/62/15 64/64/15 63/63/15
f 65/65/4 66/66/4 67/67/4
f 67/67/4 66/66/4 68/68/4
f 69/69/5 70/70/5 71/71/5
f 70/70/5 72/72/5 71/71/5
f 73/73/23 74/74/24 75/75/25
f 74/74/24 76/76/25 75/75/25
f 77/77/26 78/78/27 79/79/28
f 79/79/28 78/78/27 80/80/27
f 81/81/29 82/82/30 83/83/31
f 83/83/31 82/82/30 84/84/31
f 85/85/32 86/86/33 87/87/34
f 88/88/33 87/87/34 86/86/33
f 89/89/5 90/90/5 91/91/5
f 90/90/5 92/92/5 91/91/5
f 93/93/4 94/94/4 95/95/4
f 95/95/4 94/94/4 96/96/4
f 97/97/35 98/98/36 99/99/35
f 98/98/36 100/100/36 99/99/35
f 101/101/16 102/102/16 103/103/16
f 103/103/16 102/102/16 104/104/16
f 105/105/37 106/106/38 107/107/39
f 107/107/39 106/106/38 108/108/40
f 109/109/41 110/110/42 111/111/43
f 112/112/44 111/111/43 110/110/42
f 113/113/15 114/114/15 115/115/15
f 114/114/15 116/116/15 115/115/15
f 117/117/10 118/118/10 119/119/10
f 118/118/10 120/120/10 119/119/10
f 121/121/9 122/122/9 123/123/45
f 122/122/9 124/124/45 123/123/45
f 125/125/46 126/126/47 127/127/46
f 127/127/46 126/126/47 128/128/47
f 129/129/48 130/130/48 131/131/49
f 130/130/48 132/132/49 131/131/49
f 133/133/50 134/134/51 135/135/52
f 134/134/51 136/136/51 135/135/52
f 137/137/53 138/138/54 139/139/55
f 140/140/55 139/139/55 138/138/54
f 141/141/10 142/142/10 143/143/10
f 142/142/10 144/144/10 143/143/10
f 145/145/16 146/146/16 147/147/16
f 146/146/16 148/148/16 147/147/16
f 149/149/15 150/150/15 151/151/15
f 150/150/15 152/152/15 151/151/15
f 153/153/5 154/154/5 155/155/5
f 154/154/5 156/156/5 155/155/5
f 157/157/4 158/158/4 159/159/4
f 158/158/4 160/160/4 159/159/4
f 161/161/56 162/162/56 163/163/57
f 162/162/56 164/164/57 163/163/57
f 165/165/15 166/166/15 167/167/15
f 167/167/15 166/166/15 168/168/15
f 166/166/15 169/169/15 168/168/15
f 170/170/15 171/171/15 172/172/15
f 171/171/15 165/165/15 172/172/15
f 173/173/58 174/174/58 175/175/58
f 175/175/58 174/174/58 176/176/58
f 177/177/59 178/178/59 179/179/59
f 178/178/59 180/180/59 179/179/59
f 181/181/10 182/182/10 183/183/10
f 182/182/10 184/184/10 183/183/10
f 185/185/60 186/186/61 187/187/60
f 186/186/61 188/188/61 187/187/60
f 189/189/5 190/190/5 191/191/5
f 192/192/5 191/191/5 190/190/5
f 191/191/5 192/192/5 193/193/5
f 192/192/5 194/194/5 193/193/5
f 195/195/4 196/196/4 197/197/4
f 198/198/4 195/195/4 197/197/4
f 197/197/4 199/199/4 198/198/4
f 198/198/4 199/199/4 200/200/4
f 201/201/5 202/202/5 203/203/5
f 204/204/5 202/202/5 201/201/5
f 204/204/5 201/201/5 205/205/5
f 205/205/5 201/201/5 206/206/5
f 207/207/4 208/208/4 209/209/4
f 210/210/4 208/208/4 207/207/4
f 210/210/4 207/207/4 211/211/4
f 211/211/4 207/207/4 212/212/4