# Blender v3.2.0 OBJ File: 'stalker rips.blend'
# www.blender.org
mtllib floor_tile.mtl
o FloorTile.001_Mesh.1202
v 3.228638 0.075830 2.566440
v -0.564102 0.075828 2.566443
v 3.228638 0.075829 4.476733
v 3.228638 0.075830 2.566440
v 1.332268 0.075830 0.521768
v -0.564102 0.075828 2.566443
v 1.332268 0.075830 0.521768
v -0.564102 0.075829 -1.522900
v -0.564102 0.075828 2.566443
v -0.564102 0.075829 -1.522900
v 1.332268 0.075830 0.521768
v 3.228637 0.075831 -1.522903
v 3.228637 0.075831 -1.522903
v -0.564102 0.075830 -3.672949
v -0.564102 0.075829 -1.522900
v 3.228637 0.075832 -3.672951
v -0.564102 0.075830 -3.672949
v 3.228637 0.075831 -1.522903
v 1.332268 0.075830 0.521768
v 3.228638 0.075830 2.566440
v 3.228637 0.075831 -1.522903
v -0.564097 0.075827 4.476736
v -0.564102 0.075828 2.566443
v -3.906328 0.075826 4.476736
v 3.228638 0.075829 4.476733
v -0.564102 0.075828 2.566443
v -0.564097 0.075827 4.476736
v -3.906328 0.075826 4.476736
v -0.564102 0.075828 2.566443
v -3.906331 0.075826 2.566443
v -2.235212 0.075828 0.521770
v -3.906331 0.075826 2.566443
v -0.564102 0.075828 2.566443
v -0.564102 0.075829 -1.522900
v -2.235212 0.075828 0.521770
v -0.564102 0.075828 2.566443
v -2.235212 0.075828 0.521770
v -0.564102 0.075829 -1.522900
v -3.906326 0.075828 -1.522900
v -0.564102 0.075829 -1.522900
v -0.564102 0.075830 -3.672949
v -3.906326 0.075828 -1.522900
v -3.906326 0.075828 -1.522900
v -0.564102 0.075830 -3.672949
v -3.906326 0.075828 -3.672949
v -3.906331 0.075826 2.566443
v -2.235212 0.075828 0.521770
v -3.906326 0.075828 -1.522900
v -3.906326 0.004635 -3.672949
v -3.906326 0.075828 -1.522900
v -3.906326 0.075828 -3.672949
v -3.906326 0.004634 -1.522900
v -3.906326 0.075828 -1.522900
v -3.906326 0.004635 -3.672949
v -3.906326 0.004634 -1.522900
v -3.906331 0.075826 2.566443
v -3.906326 0.075828 -1.522900
v -3.906326 0.004633 2.566443
v -3.906331 0.075826 2.566443
v -3.906326 0.004634 -1.522900
v -3.906326 0.004633 2.566443
v -3.906328 0.075826 4.476736
v -3.906331 0.075826 2.566443
v -3.906323 0.004632 4.476736
v -3.906328 0.075826 4.476736
v -3.906326 0.004633 2.566443
v 3.228637 0.075832 -3.672951
v 3.228637 0.004638 -1.522903
v 3.228637 0.004639 -3.672951
v 3.228637 0.075831 -1.522903
v 3.228637 0.004638 -1.522903
v 3.228637 0.075832 -3.672951
v 3.228637 0.075831 -1.522903
v 3.228638 0.004637 2.566440
v 3.228637 0.004638 -1.522903
v 3.228638 0.075830 2.566440
v 3.228638 0.004637 2.566440
v 3.228637 0.075831 -1.522903
v 3.228638 0.075829 4.476733
v 3.228638 0.004637 2.566440
v 3.228638 0.075830 2.566440
v 3.228638 0.004636 4.476733
v 3.228638 0.004637 2.566440
v 3.228638 0.075829 4.476733
v 3.228637 0.075832 -3.672951
v 3.228637 0.004639 -3.672951
v -0.564102 0.075830 -3.672949
v -0.564102 0.075830 -3.672949
v 3.228637 0.004639 -3.672951
v -0.564102 0.004637 -3.672949
v -0.564102 0.075830 -3.672949
v -0.564102 0.004637 -3.672949
v -3.906326 0.075828 -3.672949
v -3.906326 0.075828 -3.672949
v -0.564102 0.004637 -3.672949
v -3.906326 0.004635 -3.672949
v -3.906323 0.004632 4.476736
v -0.564097 0.075827 4.476736
v -3.906328 0.075826 4.476736
v -0.564099 0.004634 4.476736
v -0.564097 0.075827 4.476736
v -3.906323 0.004632 4.476736
v 3.228638 0.075829 4.476733
v -0.564097 0.075827 4.476736
v 3.228638 0.004636 4.476733
v 3.228638 0.004636 4.476733
v -0.564097 0.075827 4.476736
v -0.564099 0.004634 4.476736
vt 1.357422 1.002930
vt 1.357422 -0.577148
vt 2.153320 1.002930
vt 1.357422 1.002930
vt 0.505859 0.212891
vt 1.357422 -0.577148
vt 0.505859 0.212891
vt -0.345703 -0.577148
vt 1.357422 -0.577148
vt -0.345703 -0.577148
vt 0.505859 0.212891
vt -0.345703 1.002930
vt -0.345703 1.002930
vt -1.242188 -0.577148
vt -0.345703 -0.577148
vt -1.242188 1.002930
vt -1.242188 -0.577148
vt -0.345703 1.002930
vt 0.505859 0.212891
vt 1.357422 1.002930
vt -0.345703 1.002930
vt 2.153320 -0.577148
vt 1.357422 -0.577148
vt 2.153320 -1.969727
vt 2.153320 1.002930
vt 1.357422 -0.577148
vt 2.153320 -0.577148
vt 2.153320 -1.969727
vt 1.357422 -0.577148
vt 1.357422 -1.969727
vt 0.505859 -1.273438
vt 1.357422 -1.969727
vt 1.357422 -0.577148
vt -0.345703 -0.577148
vt 0.505859 -1.273438
vt 1.357422 -0.577148
vt 0.505859 -1.273438
vt -0.345703 -0.577148
vt -0.345703 -1.969727
vt -0.345703 -0.577148
vt -1.242188 -0.577148
vt -0.345703 -1.969727
vt -0.345703 -1.969727
vt -1.242188 -0.577148
vt -1.242188 -1.969727
vt 1.357422 -1.969727
vt 0.505859 -1.273438
vt -0.345703 -1.969727
vt 2.153320 -0.942383
vt 1.257812 -0.997070
vt 2.153320 -0.997070
vt 1.257812 -0.943359
vt 1.257812 -0.997070
vt 2.153320 -0.942383
vt 1.257812 -0.943359
vt -0.446289 -0.997070
vt 1.257812 -0.997070
vt -0.446289 -0.945312
vt -0.446289 -0.997070
vt 1.257812 -0.943359
vt -0.446289 -0.945312
vt -1.242188 -0.997070
vt -0.446289 -0.997070
vt -1.242188 -0.946289
vt -1.242188 -0.997070
vt -0.446289 -0.945312
vt -1.242188 -0.997070
vt -0.345703 -0.943359
vt -1.242188 -0.942383
vt -0.345703 -0.997070
vt -0.345703 -0.943359
vt -1.242188 -0.997070
vt -0.345703 -0.997070
vt 1.357422 -0.945312
vt -0.345703 -0.943359
vt 1.357422 -0.997070
vt 1.357422 -0.945312
vt -0.345703 -0.997070
vt 2.153320 -0.997070
vt 1.357422 -0.945312
vt 1.357422 -0.997070
vt 2.153320 -0.946289
vt 1.357422 -0.945312
vt 2.153320 -0.997070
vt 0.757812 1.002930
vt 0.703125 1.002930
vt 0.757812 -0.577148
vt 0.757812 -0.577148
vt 0.703125 1.002930
vt 0.703125 -0.577148
vt 0.757812 -0.577148
vt 0.703125 -0.577148
vt 0.757812 -1.969727
vt 0.757812 -1.969727
vt 0.703125 -0.577148
vt 0.703125 -1.969727
vt 0.757812 -1.969727
vt 0.703125 -0.577148
vt 0.703125 -1.969727
vt 0.757812 -0.577148
vt 0.703125 -0.577148
vt 0.757812 -1.969727
vt 0.703125 1.002930
vt 0.703125 -0.577148
vt 0.757812 1.002930
vt 0.757812 1.002930
vt 0.703125 -0.577148
vt 0.757812 -0.577148
vn -0.0000 1.0000 0.0000
vn -1.0000 0.0000 0.0000
vn -1.0000 -0.0001 -0.0000
vn 1.0000 0.0000 0.0000
vn -0.0000 0.0000 -1.0000
vn 0.0000 0.0000 1.0000
usemtl Material_#351.001
s 1
f 1/1/1 2/2/1 3/3/1
f 4/4/1 5/5/1 6/6/1
f 7/7/1 8/8/1 9/9/1
f 10/10/1 11/11/1 12/12/1
f 13/13/1 14/14/1 15/15/1
f 16/16/1 17/17/1 18/18/1
f 19/19/1 20/20/1 21/21/1
f 22/22/1 23/23/1 24/24/1
f 25/25/1 26/26/1 27/27/1
f 28/28/1 29/29/1 30/30/1
f 31/31/1 32/32/1 33/33/1
f 34/34/1 35/35/1 36/36/1
f 37/37/1 38/38/1 39/39/1
f 40/40/1 41/41/1 42/42/1
f 43/43/1 44/44/1 45/45/1
f 46/46/1 47/47/1 48/48/1
f 49/49/2 50/50/2 51/51/2
f 52/52/2 53/53/2 54/54/2
f 55/55/2 56/56/2 57/57/2
f 58/58/3 59/59/3 60/60/3
f 61/61/3 62/62/3 63/63/3
f 64/64/3 65/65/3 66/66/3
f 67/67/4 68/68/4 69/69/4
f 70/70/4 71/71/4 72/72/4
f 73/73/4 74/74/4 75/75/4
f 76/76/4 77/77/4 78/78/4
f 79/79/4 80/80/4 81/81/4
f 82/82/4 83/83/4 84/84/4
f 85/85/5 86/86/5 87/87/5
f 88/88/5 89/89/5 90/90/5
f 91/91/5 92/92/5 93/93/5
f 94/94/5 95/95/5 96/96/5
f 97/97/6 98/98/6 99/99/6
f 100/100/6 101/101/6 102/102/6
f 103/103/6 104/104/6 105/105/6
f 106/106/6 107/107/6 108/108/6
