# Blender v2.77 (sub 0) OBJ File: ''
# www.blender.org
mtllib farmhouse_open.mtl
o Default
v 1.263999 0.087870 2.698057
v 1.263999 0.487870 2.698057
v 1.248377 0.487870 2.678057
v 1.247999 0.087870 2.678057
v 3.019999 -0.312130 2.698054
v 3.019999 0.487868 2.698054
v 0.254999 0.087870 2.678057
v 0.239999 0.087870 2.698058
v -3.020000 -0.312129 2.698061
v 2.999999 0.487868 2.678054
v 1.247999 0.087870 2.578057
v 0.254999 0.087870 2.578058
v 1.248377 1.987867 2.578057
v 0.255000 1.987867 2.578058
v 0.254999 0.487870 2.678057
v 0.255002 1.987867 2.678057
v 3.099995 1.449407 -2.614253
v 3.099995 1.541714 -2.652715
v 3.099998 2.080176 -1.360407
v 3.099998 1.987868 -1.321944
v -0.100004 1.541714 -2.652712
v -0.100004 1.449407 -2.614250
v -0.000004 1.487869 -2.521942
v 2.999995 1.487868 -2.521945
v 2.999997 1.987868 -1.321944
v -0.100002 2.080177 -1.360405
v -0.000002 1.987869 -1.321943
v -0.000005 -0.312131 -2.517942
v -0.000005 0.487868 -2.518264
v 0.019995 0.487868 -2.541942
v 0.019995 -0.312131 -2.541942
v -0.000002 -0.312131 -1.341941
v 3.019994 -0.312132 -2.541945
v 3.019995 0.487868 -2.541945
v 2.999995 0.487868 -2.521945
v -0.000005 0.167868 -2.406148
v -0.000002 0.167868 -1.437735
v -0.000002 1.814176 -1.437735
v -0.000002 0.487868 -1.341941
v -0.000002 0.487868 -1.321941
v -0.996724 1.987869 -1.321941
v -0.996724 1.487869 -1.321941
v -1.495002 1.487869 -1.321941
v -3.000002 0.487869 -1.321940
v -3.020002 0.487869 -1.341940
v -0.040002 0.167868 -1.437735
v -0.040002 1.814177 -1.437735
v -0.040004 1.410673 -2.406148
v -0.040005 0.167868 -2.406148
v -0.000004 1.410673 -2.406148
v 0.239999 0.487870 2.698058
v -3.020000 0.487871 2.698061
v 1.248379 1.987867 2.678057
v -2.900001 1.487869 0.678060
v -2.900000 1.487871 1.178061
v -2.900000 1.987869 1.178061
v -2.900000 1.987869 0.678060
v -3.000000 1.487869 0.678060
v -3.000000 1.487871 1.178061
v -3.000000 1.987869 1.178061
v 2.900001 2.487868 2.678056
v 2.899998 2.487868 -1.321944
v 3.000001 2.487868 2.678055
v 2.999998 2.487868 -1.321944
v -3.020002 -0.312129 -1.341940
v 2.899999 1.487868 1.678054
v 2.899999 1.987868 1.678054
v 2.899999 1.987868 2.178055
v 2.899999 1.487868 2.178055
v 2.999999 1.987868 1.678054
v 2.999999 1.987868 2.178054
v 2.999999 1.487868 1.678054
v 2.999999 1.487868 2.178054
v 2.899998 1.487868 0.178056
v 2.899998 1.987868 0.178056
v 2.899998 1.987868 0.678056
v 2.899998 1.487868 0.678056
v 2.999998 1.487868 0.178056
v 2.999998 1.987868 0.178056
v 2.999998 1.487868 0.678056
v 2.999998 1.987868 0.678056
v -0.100002 1.987869 -1.321943
v -3.000000 1.987869 0.678060
v -2.900001 1.487869 -0.321940
v -2.900001 1.987869 -0.321940
v -2.900001 1.987869 -0.821940
v -2.900001 1.487869 -0.821940
v -3.000001 1.487869 -0.821940
v -3.000001 1.987869 -0.821940
v -3.000001 1.987869 -0.321940
v -3.000001 1.487869 -0.321940
v -1.495001 1.987869 -1.221941
v -0.996723 1.987869 -1.221941
v -0.996724 1.487869 -1.221941
v -1.495001 1.487869 -1.221941
v -1.495001 1.987869 -1.321941
v -1.495860 1.487871 2.578058
v -0.995860 1.487871 2.578058
v -0.995860 1.987869 2.578058
v -1.495860 1.987869 2.578058
v -0.995860 1.487871 2.678058
v -0.995858 1.987869 2.678058
v -1.495860 1.487871 2.678058
v -1.495858 1.987869 2.678058
v -2.999997 2.487870 2.678060
v -3.000000 0.487871 2.678061
v -3.000001 2.487869 -1.321940
v -2.900001 2.487869 -1.321940
v -2.899999 2.487870 2.678060
v -2.906755 0.091879 2.583792
v -2.906755 2.485998 2.583792
v -2.906755 1.987869 1.178062
v -2.906755 1.487871 1.178061
v -2.906755 1.487869 0.678060
v -2.906755 1.987869 0.678061
v -2.906755 1.987869 -0.321939
v -2.906755 1.487869 -0.321939
v -2.906755 1.487869 -0.821939
v -2.906755 0.091879 -1.235764
v -2.906755 2.485998 -1.235764
v -2.906755 1.987869 -0.821940
v -1.495860 1.487871 2.583792
v -1.495860 1.987869 2.583792
v -0.995860 1.987869 2.583792
v -0.995860 1.487871 2.583792
v 0.255000 1.987867 2.583792
v 1.248377 1.987867 2.583792
v 1.248377 1.901847 2.583792
v 1.248095 0.091879 2.583792
v 2.914156 0.091879 2.583792
v 2.914156 2.485998 2.583792
v 0.254999 0.091879 2.583792
v 0.255000 1.901860 2.583792
v -1.495001 1.487869 -1.235764
v -0.996724 1.487869 -1.235764
v -0.996723 1.987869 -1.235764
v -1.495001 1.987869 -1.235764
v 2.914156 2.485998 -1.235764
v 2.914156 0.091879 -1.235764
v 1.248078 0.091879 2.578057
v 0.254999 0.091879 2.578058
v 2.914156 1.487868 2.178056
v 2.914156 1.987868 2.178055
v 2.914156 1.987868 1.678055
v 2.914156 1.987868 0.678056
v 2.914156 1.987868 0.178057
v 2.914156 1.487868 0.178056
v 2.914156 1.487868 0.678056
v 2.914156 1.487868 1.678054
v 1.248377 1.987867 2.578058
v 0.255000 1.987867 2.578058
v -2.900001 1.487869 0.678060
v -2.900000 1.487871 1.178061
v -2.900000 1.987869 1.178062
v -2.900000 1.987869 0.678061
v 2.899999 1.487868 1.678054
v 2.899999 1.987868 1.678055
v 2.899999 1.987868 2.178056
v 2.899999 1.487868 2.178056
v 2.899998 1.487868 0.178056
v 2.899998 1.987868 0.178057
v 2.899998 1.987868 0.678056
v 2.899998 1.487868 0.678056
v -2.900001 1.487869 -0.321939
v -2.900001 1.987869 -0.321939
v -2.900001 1.987869 -0.821940
v -2.900001 1.487869 -0.821939
v -1.495001 1.987869 -1.221940
v -0.996723 1.987869 -1.221940
v -0.996724 1.487869 -1.221940
v -1.495001 1.487869 -1.221940
v -1.495860 1.487871 2.578058
v -0.995860 1.487871 2.578058
v -0.995860 1.987869 2.578058
v -1.495860 1.987869 2.578058
v 0.254999 0.087870 2.569615
v 0.255000 1.987867 2.569615
v 1.248377 1.987867 2.569614
v 1.247999 0.087870 2.569614
v -1.495860 1.487871 2.563077
v -0.995860 1.487871 2.563077
v -0.995860 1.987869 2.563077
v -1.495860 1.987869 2.563077
v -2.886474 1.987869 1.178061
v -2.886474 1.987869 0.678060
v -2.886475 1.987869 -0.821940
v -2.886475 1.487869 -0.821940
v -2.886474 1.487871 1.178061
v -2.886475 1.487869 -0.321940
v -2.886475 1.987869 -0.321940
v -2.886475 1.487869 0.678060
v -0.996724 1.487869 -1.217455
v -1.495001 1.487869 -1.217455
v -1.495001 1.987869 -1.217455
v -0.996723 1.987869 -1.217455
v 2.893204 1.487868 1.678054
v 2.893204 1.487868 2.178055
v 2.893203 1.987868 0.178056
v 2.893203 1.987868 0.678056
v 2.893204 1.987868 1.678054
v 2.893204 1.987868 2.178055
v 2.893203 1.487868 0.678056
v 2.893203 1.487868 0.178056
vt 0.6324 0.5598
vt 0.4110 0.5598
vt 0.5219 0.6250
vt 0.4110 0.6715
vt 0.5219 0.6483
vt 0.4640 0.6483
vt 0.2479 0.5098
vt 0.3982 0.5327
vt 0.3040 0.5098
vt 0.2479 0.4223
vt 0.1489 0.4867
vt 0.1772 0.4867
vt 0.2920 0.6481
vt 0.2920 0.6219
vt 0.2360 0.6741
vt 0.3920 0.6741
vt 0.3181 0.6219
vt 0.3181 0.6481
vt 0.5935 0.7805
vt 0.5342 0.7546
vt 0.5935 0.7959
vt 0.5212 0.6486
vt 0.6305 0.6741
vt 0.5498 0.6486
vt 0.4124 0.5515
vt 0.4641 0.6230
vt 0.5212 0.6230
vt 0.5509 0.6250
vt 0.6324 0.6715
vt 0.5509 0.6483
vt 0.4350 0.6250
vt 0.4640 0.6250
vt 0.4350 0.6483
vt 0.0691 0.5327
vt 0.1489 0.5098
vt 0.1772 0.5098
vt 0.3040 0.4223
vt 0.3040 0.5058
vt 0.3982 0.4223
vt 0.0691 0.4223
vt 0.2479 0.5058
vt 0.2360 0.5488
vt 0.3920 0.5488
vt 0.5342 0.8451
vt 0.5936 0.8451
vt 0.5936 0.7959
vt 0.5936 0.7546
vt 0.5936 0.7805
vt 0.4124 0.6741
vt 0.4356 0.6486
vt 0.4356 0.6230
vt 0.4641 0.6486
vt 0.5498 0.6230
vt 0.6305 0.5515
vt 0.3622 0.4300
vt 0.3619 0.4260
vt 0.5922 0.4260
vt 0.5917 0.4300
vt 0.3619 0.4260
vt 0.3621 0.4218
vt 0.6022 0.4218
vt 0.6028 0.4260
vt 0.8459 0.0334
vt 0.8156 0.0334
vt 0.8156 0.0637
vt 0.8459 0.0637
vt 0.8458 0.0334
vt 0.8156 0.0334
vt 0.8156 0.0637
vt 0.8458 0.0637
vt 0.7131 0.8866
vt 0.7131 0.9096
vt 0.7116 0.9096
vt 0.7116 0.8866
vt 0.8139 0.8636
vt 0.8139 0.9096
vt 0.7122 0.8878
vt 0.6552 0.8878
vt 0.6543 0.8866
vt 0.4671 0.8637
vt 0.8128 0.9107
vt 0.7122 0.9108
vt 0.8674 0.2366
vt 0.8617 0.2366
vt 0.8617 0.1796
vt 0.8674 0.1796
vt 0.8674 0.2596
vt 0.8617 0.3457
vt 0.8617 0.3457
vt 0.8617 0.2366
vt 0.8395 0.2025
vt 0.8453 0.1795
vt 0.8453 0.2887
vt 0.8395 0.2887
vt 0.0620 0.0468
vt 0.0677 0.0468
vt 0.0677 0.1272
vt 0.0620 0.1272
vt 0.2515 0.0468
vt 0.0677 0.0410
vt 0.2515 0.0410
vt 0.2457 0.0353
vt 0.0734 0.0353
vt 0.0562 0.1272
vt 0.0562 0.0525
vt 0.2515 0.1272
vt 0.0734 0.1329
vt 0.0677 0.1329
vt 0.2457 0.1329
vt 0.5366 0.9272
vt 0.5366 0.9731
vt 0.5348 0.9731
vt 0.5348 0.9272
vt 0.5932 0.7568
vt 0.5352 0.8002
vt 0.5184 0.8002
vt 0.5180 0.7999
vt 0.5180 0.7568
vt 0.3626 0.9731
vt 0.3626 0.9272
vt 0.5360 0.9745
vt 0.3637 0.9743
vt 0.2342 0.7005
vt 0.2406 0.7281
vt 0.2342 0.7465
vt 0.2963 0.7281
vt 0.3018 0.7005
vt 0.2963 0.8226
vt 0.3018 0.7465
vt 0.3029 0.7465
vt 0.3029 0.8326
vt 0.2912 0.6496
vt 0.2340 0.6496
vt 0.2912 0.6209
vt 0.2340 0.5635
vt 0.3199 0.6209
vt 0.4063 0.5635
vt 0.0617 0.9108
vt 0.0617 0.9096
vt 0.2351 0.9096
vt 0.2339 0.9108
vt 0.4229 0.0325
vt 0.4229 0.1270
vt 0.3672 0.1038
vt 0.3672 0.0325
vt 0.4252 0.0325
vt 0.4252 0.1270
vt 0.3672 0.0302
vt 0.4229 0.0302
vt 0.3649 0.1038
vt 0.3649 0.0325
vt 0.4220 0.1291
vt 0.3664 0.1060
vt 0.2340 0.8039
vt 0.2406 0.7995
vt 0.6543 0.9096
vt 0.4671 0.9096
vt 0.6557 0.8866
vt 0.6557 0.9096
vt 0.8675 0.3457
vt 0.7859 0.0889
vt 0.7859 0.1176
vt 0.7859 0.1176
vt 0.7859 0.0889
vt 0.7572 0.0889
vt 0.7572 0.0832
vt 0.7859 0.0832
vt 0.7917 0.1176
vt 0.7917 0.0889
vt 0.4063 0.5413
vt 0.6360 0.5413
vt 0.6360 0.5471
vt 0.4063 0.5471
vt 0.8395 0.1795
vt 0.8453 0.3457
vt 0.8395 0.3457
vt 0.5932 0.8436
vt 0.5352 0.8436
vt 0.7293 0.0889
vt 0.7293 0.1176
vt 0.7293 0.1176
vt 0.7293 0.0889
vt 0.7006 0.1176
vt 0.7293 0.1234
vt 0.7006 0.1234
vt 0.7351 0.0889
vt 0.7351 0.1176
vt 0.6949 0.1176
vt 0.6949 0.0889
vt 0.7006 0.0889
vt 0.7006 0.0832
vt 0.7293 0.0832
vt 0.7006 0.0889
vt 0.7006 0.1176
vt 0.8446 0.0342
vt 0.8504 0.0342
vt 0.8504 0.0630
vt 0.8446 0.0630
vt 0.8159 0.0285
vt 0.8446 0.0285
vt 0.8159 0.0342
vt 0.8159 0.0630
vt 0.8446 0.0687
vt 0.8159 0.0687
vt 0.8101 0.0630
vt 0.8101 0.0342
vt 0.2572 0.0468
vt 0.2572 0.1272
vt 0.2629 0.0525
vt 0.2629 0.1272
vt 0.2515 0.1329
vt 0.0617 0.9731
vt 0.0617 0.9272
vt 0.0617 0.8033
vt 0.0619 0.7458
vt 0.7515 0.0889
vt 0.7572 0.1176
vt 0.7515 0.1176
vt 0.7859 0.1234
vt 0.7572 0.1234
vt 0.7572 0.1176
vt 0.7536 0.0342
vt 0.7593 0.0342
vt 0.7593 0.0630
vt 0.7536 0.0630
vt 0.7880 0.0687
vt 0.7593 0.0687
vt 0.7880 0.0630
vt 0.7880 0.0342
vt 0.7593 0.0285
vt 0.7880 0.0285
vt 0.7937 0.0630
vt 0.7937 0.0342
vt 0.7293 0.0323
vt 0.7293 0.0611
vt 0.7293 0.0611
vt 0.7293 0.0323
vt 0.7007 0.0323
vt 0.7007 0.0266
vt 0.7293 0.0266
vt 0.7007 0.0611
vt 0.6949 0.0611
vt 0.6949 0.0323
vt 0.7350 0.0323
vt 0.7350 0.0611
vt 0.7293 0.0668
vt 0.7007 0.0668
vt 0.8425 0.0889
vt 0.8425 0.1176
vt 0.8425 0.1176
vt 0.8425 0.0889
vt 0.8483 0.0889
vt 0.8483 0.1176
vt 0.8425 0.0832
vt 0.8138 0.0889
vt 0.8138 0.0832
vt 0.8138 0.1234
vt 0.8138 0.1176
vt 0.8425 0.1234
vt 0.8081 0.1176
vt 0.8081 0.0889
vt 0.0617 0.8636
vt 0.2351 0.8637
vt 0.3057 0.5126
vt 0.3057 0.4264
vt 0.4063 0.4264
vt 0.0617 0.5413
vt 0.2486 0.5126
vt 0.1481 0.5126
vt 0.1768 0.5126
vt 0.1768 0.4839
vt 0.2486 0.4264
vt 0.1481 0.4839
vt 0.0617 0.4264
vt 0.5498 0.5126
vt 0.5211 0.5126
vt 0.4350 0.4839
vt 0.4350 0.5126
vt 0.4637 0.5126
vt 0.5211 0.4839
vt 0.4637 0.4839
vt 0.6360 0.5126
vt 0.5498 0.4839
vt 0.7049 0.4264
vt 0.7049 0.4839
vt 0.6360 0.6841
vt 0.4063 0.6841
vt 0.4063 0.6784
vt 0.6360 0.6784
vt 0.5211 0.6496
vt 0.5498 0.6496
vt 0.4350 0.6496
vt 0.4637 0.6496
vt 0.4637 0.6209
vt 0.5211 0.6209
vt 0.5498 0.6209
vt 0.6360 0.5635
vt 0.4350 0.6209
vt 0.4659 0.9108
vt 0.2362 0.9108
vt 0.6552 0.9108
vt 0.4682 0.9108
vt 0.3614 0.9743
vt 0.0628 0.9743
vt 0.0617 0.6784
vt 0.0617 0.6496
vt 0.3199 0.6496
vt 0.8622 0.2422
vt 0.8627 0.2478
vt 0.8643 0.2735
vt 0.8643 0.2734
vt 0.8670 0.2732
vt 0.8670 0.2733
vt 0.8668 0.2775
vt 0.8424 0.3150
vt 0.8424 0.3150
vt 0.8424 0.3194
vt 0.8424 0.3194
vt 0.8427 0.2164
vt 0.8443 0.1908
vt 0.8447 0.1851
vt 0.8427 0.2163
vt 0.8402 0.2204
vt 0.8400 0.2162
vt 0.8400 0.2162
vt 0.7544 0.1014
vt 0.7544 0.1014
vt 0.7544 0.1009
vt 0.7544 0.1009
vt 0.7722 0.0860
vt 0.7722 0.0860
vt 0.7720 0.0860
vt 0.7720 0.0860
vt 0.7888 0.1004
vt 0.7888 0.1004
vt 0.7888 0.1012
vt 0.7888 0.1012
vt 0.7723 0.1205
vt 0.7723 0.1205
vt 0.7725 0.1205
vt 0.7725 0.1205
vt 0.7149 0.0860
vt 0.7147 0.0860
vt 0.7147 0.0860
vt 0.7149 0.0860
vt 0.7322 0.0999
vt 0.7322 0.1010
vt 0.7322 0.1010
vt 0.7322 0.0999
vt 0.7145 0.1205
vt 0.7149 0.1205
vt 0.7149 0.1205
vt 0.7145 0.1205
vt 0.6977 0.1006
vt 0.6977 0.0992
vt 0.6976 0.0992
vt 0.6977 0.1006
vt 0.8296 0.0314
vt 0.8295 0.0314
vt 0.8295 0.0314
vt 0.8296 0.0314
vt 0.8475 0.0466
vt 0.8475 0.0469
vt 0.8475 0.0469
vt 0.8475 0.0466
vt 0.8292 0.0658
vt 0.8293 0.0658
vt 0.8293 0.0658
vt 0.8292 0.0658
vt 0.8130 0.0467
vt 0.8130 0.0462
vt 0.8130 0.0462
vt 0.8130 0.0468
vt 0.7746 0.0314
vt 0.7746 0.0314
vt 0.7745 0.0314
vt 0.7745 0.0314
vt 0.7909 0.0469
vt 0.7909 0.0469
vt 0.7909 0.0471
vt 0.7909 0.0471
vt 0.7748 0.0658
vt 0.7748 0.0658
vt 0.7749 0.0658
vt 0.7749 0.0658
vt 0.7564 0.0472
vt 0.7564 0.0472
vt 0.7564 0.0472
vt 0.7564 0.0472
vt 0.7321 0.0457
vt 0.7322 0.0456
vt 0.7322 0.0456
vt 0.7321 0.0458
vt 0.7148 0.0639
vt 0.7151 0.0639
vt 0.7151 0.0639
vt 0.7148 0.0639
vt 0.6978 0.0456
vt 0.6979 0.0457
vt 0.6979 0.0458
vt 0.6978 0.0456
vt 0.7151 0.0295
vt 0.7149 0.0295
vt 0.7149 0.0295
vt 0.7151 0.0295
vt 0.8107 0.1007
vt 0.8107 0.1007
vt 0.8107 0.0993
vt 0.8107 0.0993
vt 0.8284 0.0860
vt 0.8284 0.0860
vt 0.8280 0.0860
vt 0.8280 0.0860
vt 0.8457 0.0993
vt 0.8457 0.0993
vt 0.8456 0.1007
vt 0.8456 0.1007
vt 0.8279 0.1205
vt 0.8279 0.1205
vt 0.8285 0.1205
vt 0.8285 0.1205
vt 0.2915 0.0200
vt 0.2915 0.1291
vt 0.3485 0.1291
vt 0.3485 0.0200
vt 0.8453 0.1795
vt 0.8453 0.2887
vt 0.8453 0.3457
vt 0.8617 0.1796
vt 0.8138 0.0889
vt 0.8138 0.1176
vt 0.7572 0.0889
vt 0.7880 0.0342
vt 0.7593 0.0342
vt 0.7593 0.0630
vt 0.7880 0.0630
vt 0.7007 0.0323
vt 0.7007 0.0611
vt 0.8446 0.0342
vt 0.8159 0.0342
vt 0.8159 0.0630
vt 0.8446 0.0630
vt 0.8156 0.0334
vt 0.8459 0.0334
vt 0.8459 0.0637
vt 0.8156 0.0637
vt 0.8458 0.0637
vt 0.8458 0.0334
vt 0.8155 0.0334
vt 0.8155 0.0637
vt 0.8155 0.0637
vt 0.8155 0.0334
vt 0.8458 0.0334
vt 0.8458 0.0637
vt 0.8458 0.0637
vt 0.8155 0.0637
vt 0.8155 0.0334
vt 0.8458 0.0334
vt 0.5111 0.0058
vt 0.5111 0.1323
vt 0.4449 0.1323
vt 0.4449 0.0058
vn 1.0000 0.0000 0.0000
vn 0.0000 0.0000 -1.0000
vn -0.0000 0.0000 1.0000
vn -0.0000 1.0000 -0.0000
vn -1.0000 0.0000 0.0000
vn 0.0000 0.9998 0.0217
vn 0.0000 0.9998 -0.0198
vn -0.2082 0.1521 0.9662
vn -0.3401 0.6194 0.7076
vn -0.8491 0.1766 0.4978
vn -0.5787 0.7899 0.2031
vn 0.5774 -0.5774 0.5773
vn 0.5774 0.5773 0.5773
vn 0.5869 0.7857 0.1956
vn 0.2142 0.1581 0.9639
vn -0.5773 -0.5774 0.5774
vn 0.3015 0.9045 0.3015
vn -0.7069 0.7073 0.0002
vn 0.7071 0.7071 0.0000
vn -0.7071 -0.7071 0.0001
vn -0.7072 -0.7070 0.0000
vn -0.7070 0.7072 0.0000
vn 0.8541 0.1801 0.4880
vn 0.7071 -0.7071 -0.0000
vn 0.3015 -0.3015 0.9045
vn 0.5773 -0.7550 -0.3109
vn 0.5773 0.3109 -0.7550
vn 0.5774 0.7550 0.3109
vn 0.5774 -0.3109 0.7550
vn -0.5774 0.3109 -0.7550
vn -0.5774 -0.7550 -0.3109
vn -0.4105 -0.9104 0.0505
vn 0.4113 -0.9101 0.0506
vn 0.9115 -0.0510 0.4081
vn -0.5773 0.7550 0.3109
vn -0.6904 -0.1419 -0.7094
vn -0.7241 -0.6380 -0.2620
vn -0.8483 0.1680 -0.5021
vn -0.3314 0.6240 -0.7077
vn -0.3318 -0.6230 -0.7084
vn -0.3015 -0.9045 -0.3015
vn 0.5773 -0.5774 -0.5774
vn 0.5773 0.5774 -0.5774
vn 0.3014 0.9046 -0.3015
vn -0.9045 -0.3015 -0.3015
vn -0.9045 -0.3015 0.3015
vn -0.9464 0.2687 0.1791
vn -0.9045 0.3015 -0.3015
vn -0.5774 0.5774 -0.5774
vn -0.3015 -0.3015 -0.9045
vn -0.3015 0.3015 -0.9045
vn 0.3015 0.3015 -0.9045
vn -0.3015 0.9045 -0.3015
vn -0.5774 0.5774 -0.5773
vn -0.5594 0.6897 0.4598
vn -0.6010 0.4433 -0.6650
vn -0.5774 -0.5773 -0.5773
vn -0.8554 0.2873 -0.4309
vn 0.3513 0.6189 0.7025
vn -0.5773 0.5774 0.5774
vn -0.3015 -0.3015 0.9045
vn 0.0000 0.7071 -0.7071
vn 0.0000 -0.7071 -0.7071
vn 0.0000 0.7071 0.7071
vn -0.9045 0.3015 0.3015
vn 0.5774 0.5774 0.5773
vn 0.5774 0.5773 -0.5774
vn -0.5774 -0.5774 -0.5774
vn -0.0000 -0.7071 0.7071
vn 0.9045 -0.3015 0.3015
vn 0.9045 -0.3015 -0.3015
vn 0.9045 0.3015 0.3015
vn 0.9045 0.3015 -0.3015
vn -0.5773 -0.3109 0.7550
vn -0.7071 0.7071 0.0000
vn -0.7071 -0.7071 0.0000
vn 0.3015 -0.3015 -0.9045
vn -0.3015 0.3015 0.9045
vn 0.3015 0.3015 0.9045
vn -0.3015 0.9045 0.3015
vn -0.5773 0.5774 -0.5774
vn -1.0000 0.0002 0.0026
vn -0.5773 -0.5773 0.5774
vn -0.7061 0.0001 0.7081
vn -1.0000 0.0002 0.0027
vn 0.5774 -0.5773 0.5773
vn 0.7071 -0.0000 0.7071
vn -0.5773 0.5774 0.5773
vn -0.5774 -0.5774 0.5774
vn -0.5774 0.5773 -0.5774
vn -0.5774 -0.5773 -0.5774
vn -0.5774 0.5774 0.5774
vn -0.5773 0.5773 0.5774
usemtl oldhut
s off
f 110/1/1 119/2/1 114/3/1
f 120/4/1 115/5/1 116/6/1
f 126/7/2 131/8/2 127/9/2
f 132/10/2 122/11/2 125/12/2
f 136/13/3 135/14/3 138/15/3
f 120/16/3 134/17/3 137/18/3
f 140/19/4 139/20/4 141/21/4
f 145/22/5 138/23/5 146/24/5
f 130/25/5 149/26/5 148/27/5
f 110/1/1 113/28/1 111/29/1
f 111/29/1 113/28/1 112/30/1
f 118/31/1 117/32/1 119/2/1
f 115/5/1 117/32/1 116/6/1
f 117/32/1 114/3/1 119/2/1
f 110/1/1 114/3/1 113/28/1
f 114/3/1 117/32/1 115/5/1
f 112/30/1 115/5/1 111/29/1
f 120/4/1 118/31/1 119/2/1
f 120/4/1 121/33/1 118/31/1
f 115/5/1 120/4/1 111/29/1
f 120/4/1 116/6/1 121/33/1
f 111/34/2 123/35/2 122/11/2
f 124/36/2 126/7/2 125/12/2
f 111/34/2 124/36/2 123/35/2
f 129/37/2 128/38/2 130/39/2
f 128/38/2 131/8/2 130/39/2
f 131/8/2 126/7/2 111/34/2
f 124/36/2 111/34/2 126/7/2
f 127/9/2 131/8/2 128/38/2
f 111/34/2 122/11/2 110/40/2
f 133/41/2 125/12/2 126/7/2
f 122/11/2 132/10/2 110/40/2
f 132/10/2 125/12/2 133/41/2
f 139/42/3 135/14/3 119/43/3
f 119/43/3 135/14/3 134/17/3
f 136/13/3 138/15/3 137/18/3
f 139/42/3 138/15/3 135/14/3
f 134/17/3 120/16/3 119/43/3
f 120/16/3 137/18/3 138/15/3
f 119/44/4 110/45/4 141/21/4
f 110/45/4 132/46/4 141/21/4
f 130/47/4 139/20/4 140/19/4
f 140/19/4 129/48/4 130/47/4
f 119/44/4 141/21/4 139/20/4
f 131/49/5 143/50/5 142/51/5
f 144/52/5 131/49/5 145/22/5
f 131/49/5 144/52/5 143/50/5
f 147/53/5 138/23/5 139/54/5
f 131/49/5 138/23/5 145/22/5
f 146/24/5 138/23/5 147/53/5
f 130/25/5 148/27/5 139/54/5
f 148/27/5 149/26/5 145/22/5
f 139/54/5 148/27/5 147/53/5
f 142/51/5 130/25/5 131/49/5
f 145/22/5 149/26/5 144/52/5
f 149/26/5 130/25/5 142/51/5
f 108/55/6 120/56/6 138/57/6 62/58/6
f 111/59/7 109/60/7 61/61/7 131/62/7
f 149/63/1 144/64/1 143/65/1 142/66/1
f 94/67/2 95/68/2 92/69/2 93/70/2
s 1
f 1/71/8 2/72/9 3/73/10 4/74/11
f 1/71/8 5/75/12 6/76/13 2/72/9
f 1/71/8 4/77/11 7/78/14 8/79/15
f 9/80/16 5/75/12 1/71/8 8/79/15
f 2/72/9 6/76/13 10/81/17 3/82/10
f 4/83/11 11/84/18 12/85/19 7/86/14
f 11/84/18 4/83/11 3/87/10
f 11/84/18 3/87/10 13/88/20
f 11/84/18 13/88/20 178/89/21 179/90/22
f 15/91/23 12/92/19 14/93/24
f 14/93/24 16/94/25 15/91/23
f 17/95/26 18/96/27 19/97/28 20/98/29
f 21/99/30 18/96/27 17/100/26 22/101/31
f 23/102/32 22/101/31 17/100/26 24/103/33
f 25/104/34 24/105/33 17/95/26 20/98/29
f 19/97/28 18/96/27 21/99/30 26/106/35
f 25/107/34 20/108/29 19/97/28
f 26/106/35 27/109/36 25/107/34 19/97/28
f 28/110/37 29/111/38 30/112/39 31/113/40
f 5/114/12 32/115/41 28/116/37 31/117/40 33/118/42
f 30/112/39 34/119/43 33/120/42 31/113/40
f 29/121/38 35/122/44 34/119/43 30/112/39
f 28/123/37 36/124/45 29/125/38
f 36/124/45 28/123/37 37/126/46
f 37/126/46 28/123/37 32/127/41
f 38/128/47 37/126/46 39/129/48
f 38/128/47 39/129/48 40/130/49
f 38/128/47 40/130/49 27/131/36
f 41/132/50 27/133/36 42/134/51
f 42/134/51 27/133/36 40/135/49
f 43/136/52 42/134/51 40/135/49
f 43/136/52 40/135/49 44/137/53
f 40/138/49 39/139/48 45/140/54 44/141/53
f 46/142/16 47/143/55 48/144/56 49/145/57
f 46/142/16 37/146/46 38/147/47 47/143/55
f 46/142/16 49/145/57 36/148/45 37/149/46
f 48/144/56 50/150/58 36/151/45 49/145/57
f 38/152/47 50/153/58 48/144/56 47/143/55
f 23/154/32 50/155/58 38/128/47
f 23/154/32 38/128/47 27/131/36
f 23/154/32 29/125/38 36/124/45
f 23/154/32 36/124/45 50/155/58
f 39/129/48 37/126/46 32/127/41
f 9/80/16 8/79/15 51/156/59 52/157/60
f 7/158/14 15/159/23 51/156/59 8/79/15
f 13/88/20 3/87/10 53/160/61
f 55/161/62 56/162/63 184/163/63 188/164/62
f 55/161/62 54/165/64 58/166/65 59/167/48
f 60/168/45 56/162/63 55/161/62 59/169/48
f 63/170/66 64/171/67 62/172/4 61/173/4
f 12/92/19 15/91/23 7/174/14
f 16/94/25 14/93/24 13/175/20 53/176/61
f 9/177/16 65/178/68 32/115/41 5/114/12
f 66/179/64 67/180/69 200/181/69 196/182/64
f 68/183/63 67/180/69 70/184/70 71/185/71
f 66/179/64 72/186/72 70/187/70 67/180/69
f 68/183/63 71/188/71 73/189/73 69/190/62
f 73/191/73 72/192/72 66/179/64 69/190/62
f 68/183/63 69/190/62 197/193/62 201/194/63
f 74/195/64 78/196/72 79/197/70 75/198/69
f 80/199/73 78/200/72 74/195/64 77/201/62
f 76/202/63 75/198/69 79/203/70 81/204/71
f 76/202/63 81/205/71 80/206/73 77/201/62
f 22/207/31 82/208/74 26/106/35 21/99/30
f 82/208/74 22/207/31 23/209/32 27/210/36
f 27/109/36 26/106/35 82/211/74
f 33/120/42 34/119/43 6/212/13 5/213/12
f 23/154/32 24/214/33 35/215/44
f 23/154/32 35/215/44 29/125/38
f 58/216/65 54/165/64 57/217/69 83/218/46
f 60/219/45 83/220/46 57/217/69 56/162/63
f 56/162/63 57/217/69 185/221/69 184/163/63
f 88/222/65 87/223/64 86/224/69 89/225/46
f 90/226/45 89/227/46 86/224/69 85/228/63
f 84/229/62 87/223/64 88/230/65 91/231/48
f 90/232/45 85/228/63 84/229/62 91/233/48
f 95/234/19 92/235/24 194/236/24 193/237/19
f 94/238/75 42/239/51 43/240/52 95/234/19
f 94/238/75 93/241/76 41/242/50 42/243/51
f 43/244/52 96/245/77 92/235/24 95/234/19
f 92/235/24 96/246/77 41/247/50 93/241/76
f 98/248/75 99/249/76 182/250/76 181/251/75
f 101/252/78 102/253/61 99/249/76 98/248/75
f 101/254/78 98/248/75 97/255/19 103/256/79
f 104/257/25 100/258/24 99/249/76 102/259/61
f 97/255/19 100/258/24 104/260/25 103/261/79
f 45/140/54 39/139/48 32/262/41 65/263/68
f 63/170/66 53/264/61 3/265/10
f 63/170/66 3/265/10 10/266/17
f 63/170/66 105/267/60 16/268/25
f 63/170/66 16/268/25 53/264/61
f 105/267/60 104/269/25 102/270/61
f 105/267/60 102/270/61 16/268/25
f 16/268/25 102/270/61 101/271/78
f 16/268/25 101/271/78 15/272/23
f 104/269/25 105/267/60 103/273/79
f 103/273/79 105/267/60 106/274/80
f 101/271/78 103/273/79 106/274/80
f 101/271/78 106/274/80 15/272/23
f 79/275/70 64/171/67 81/276/71
f 81/276/71 64/171/67 63/170/66
f 73/277/73 71/278/71 63/170/66
f 73/277/73 63/170/66 10/266/17
f 70/279/70 81/276/71 63/170/66
f 71/278/71 70/279/70 63/170/66
f 80/280/73 72/281/72 10/266/17
f 72/281/72 73/277/73 10/266/17
f 80/280/73 81/276/71 70/279/70
f 80/280/73 70/279/70 72/281/72
f 25/282/34 64/171/67 79/275/70
f 25/282/34 79/275/70 78/283/72
f 35/284/44 78/283/72 80/280/73
f 35/284/44 80/280/73 10/266/17
f 35/284/44 24/285/33 25/282/34
f 35/284/44 25/282/34 78/283/72
f 109/286/4 108/287/4 107/288/81 105/289/60
f 107/288/81 83/290/46 60/291/45
f 107/288/81 60/291/45 105/289/60
f 107/288/81 89/292/46 90/293/45
f 107/288/81 90/293/45 83/290/46
f 90/293/45 91/294/48 58/295/65
f 90/293/45 58/295/65 83/290/46
f 60/291/45 59/296/48 106/297/80
f 60/291/45 106/297/80 105/289/60
f 107/288/81 44/137/53 88/298/65
f 107/288/81 88/298/65 89/292/46
f 58/295/65 44/137/53 59/296/48
f 59/296/48 44/137/53 106/297/80
f 88/298/65 44/137/53 91/294/48
f 91/294/48 44/137/53 58/295/65
f 9/80/16 52/157/60 45/140/54 65/263/68
f 52/157/60 106/299/80 44/300/53 45/140/54
f 52/157/60 51/156/59 15/301/23 106/302/80
f 6/212/13 34/119/43 35/303/44 10/304/17
f 64/305/67 25/306/34 27/133/36
f 107/288/81 64/305/67 27/133/36
f 107/288/81 27/133/36 41/132/50
f 41/132/50 96/307/77 107/288/81
f 107/288/81 96/307/77 43/136/52
f 107/288/81 43/136/52 44/137/53
f 128/308/82 150/309/83 140/310/84 129/311/85
f 127/312/76 150/313/83 128/314/82
f 126/315/24 151/316/86 150/317/83 127/318/76
f 141/319/87 151/320/86 133/321/1 132/322/1
f 133/323/1 151/324/86 126/325/24
f 114/326/64 152/327/88 155/328/89 115/329/69
f 113/330/62 153/331/90 152/332/88 114/333/64
f 112/334/63 154/335/91 153/336/90 113/337/62
f 115/338/69 155/339/89 154/340/91 112/341/63
f 149/342/63 142/343/69 159/344/69 156/345/63
f 144/346/62 149/347/63 156/348/63 157/349/62
f 143/350/64 144/351/62 157/352/62 158/353/64
f 142/354/69 143/355/64 158/356/64 159/357/69
f 147/358/63 148/359/69 163/360/69 160/361/63
f 146/362/62 147/363/63 160/364/63 161/365/62
f 145/366/64 146/367/62 161/368/62 162/369/64
f 148/370/69 145/371/64 162/372/64 163/373/69
f 117/374/62 164/375/49 167/376/92 118/377/64
f 116/378/63 165/379/68 164/380/49 117/381/62
f 121/382/69 166/383/89 165/384/68 116/385/63
f 118/386/64 167/387/92 166/388/89 121/389/69
f 137/390/75 134/391/76 171/392/76 168/393/75
f 136/394/19 137/395/75 168/396/75 169/397/19
f 135/398/24 136/399/19 169/400/19 170/401/24
f 134/402/76 135/403/24 170/404/24 171/405/76
f 122/406/19 172/407/66 175/408/86 123/409/24
f 125/410/75 173/411/93 172/412/66 122/413/19
f 124/414/76 174/415/16 173/416/93 125/417/75
f 123/418/24 175/419/86 174/420/16 124/421/76
f 176/422/2 177/423/2 178/424/2 179/425/2
f 14/93/24 12/92/19 176/426/19 177/427/24
f 13/175/20 14/93/24 177/427/24 178/428/21
f 12/85/19 11/84/18 179/90/22 176/429/19
f 180/430/2 183/431/2 182/250/2 181/251/2
f 99/249/76 100/258/24 183/431/24 182/250/76
f 97/255/19 98/248/75 181/251/75 180/430/19
f 100/258/24 97/255/19 180/430/19 183/431/24
f 191/432/1 185/221/1 184/163/1 188/164/1
f 189/433/1 187/434/1 186/435/1 190/436/1
f 84/229/62 85/228/63 190/436/63 189/433/62
f 57/217/69 54/165/64 191/432/64 185/221/69
f 86/224/69 87/223/64 187/434/64 186/435/69
f 54/165/64 55/161/62 188/164/62 191/432/64
f 87/223/64 84/229/62 189/433/62 187/434/64
f 85/228/63 86/224/69 186/435/69 190/436/63
f 194/236/3 193/237/3 192/437/3 195/438/3
f 93/241/76 94/238/75 192/437/75 195/438/76
f 92/235/24 93/241/76 195/438/76 194/236/24
f 94/238/75 95/234/19 193/237/19 192/437/75
f 196/182/5 197/193/5 201/194/5 200/181/5
f 203/439/5 202/440/5 199/441/5 198/442/5
f 74/195/64 75/198/69 198/442/69 203/439/64
f 67/180/69 68/183/63 201/194/63 200/181/69
f 77/201/62 74/195/64 203/439/64 202/440/62
f 69/190/62 66/179/64 196/182/64 197/193/62
f 75/198/69 76/202/63 199/441/63 198/442/69
f 76/202/63 77/201/62 202/440/62 199/441/63
f 172/443/66 173/444/93 174/445/16 175/446/86
f 160/447/1 161/448/1 162/449/1 163/450/1
f 164/451/49 165/452/68 166/453/89 167/454/92
f 154/455/91 155/456/89 152/457/88 153/458/90
f 140/459/84 150/460/83 151/461/86 141/462/87
