# 3ds Max Wavefront OBJ Exporter v0.97b - (c)2007 guruware
# File Created: 15.05.2017 21:35:52

mtllib tank_rust.mtl

#
# object Mesh_0034
#

v  4.5375 0.0000 -1.9470
v  4.0095 1.3695 -1.9470
v  4.5375 1.3695 -1.9470
v  4.0095 0.0000 -1.9470
v  4.0095 0.0000 1.9470
v  4.0095 1.3695 1.9470
v  0.0495 1.3695 -1.9470
v  0.0495 0.0000 1.9470
v  0.0495 0.0000 -1.9470
v  0.0495 1.3695 1.9470
v  -0.4785 0.0000 1.9470
v  -0.4785 1.3695 1.9470
v  -0.4785 1.3695 -1.9470
v  -0.4785 0.0000 -1.9470
v  -4.8345 1.3695 -1.9470
v  -4.8345 0.0000 1.9470
v  -4.8345 0.0000 -1.9470
v  -4.8345 1.3695 1.9470
v  -5.3625 0.0000 1.9470
v  -5.3625 1.3695 1.9470
v  -5.3625 1.3695 -1.9470
v  -5.3625 0.0000 -1.9470
v  -5.4945 0.3465 -0.0000
v  -5.4945 2.6235 2.2770
v  -5.4945 3.4949 2.1037
v  -5.4945 1.7521 2.1037
v  -5.4945 1.0134 1.6101
v  -5.4945 0.5198 0.8714
v  -5.4945 1.0134 -1.6101
v  -5.4945 0.5198 -0.8714
v  -5.4945 1.7521 -2.1037
v  -5.4945 2.6235 -2.2770
v  -5.4945 3.4949 -2.1037
v  -5.4945 4.2336 -1.6101
v  -5.4945 4.7272 -0.8714
v  -5.4945 4.9005 -0.0000
v  -5.4945 4.7272 0.8714
v  -5.4945 4.2336 1.6101
v  5.2635 3.3944 1.8612
v  5.0655 2.6235 2.2770
v  5.2635 2.6235 2.0145
v  5.0655 3.4949 2.1037
v  5.2635 4.0480 1.4245
v  5.0655 4.2336 1.6101
v  5.4945 1.9080 0.7155
v  5.2635 0.7623 0.7710
v  5.4945 1.6886 0.3872
v  5.2635 1.1990 1.4245
v  5.4945 2.2363 0.9349
v  5.2635 1.8526 1.8612
v  5.4945 2.6235 1.0119
v  5.4945 3.0107 0.9349
v  5.4945 3.3390 0.7155
v  5.2635 0.6089 -0.0000
v  5.0655 0.5198 -0.8714
v  5.2635 0.7623 -0.7710
v  5.0655 0.3465 -0.0000
v  5.0655 0.5198 0.8714
v  5.0655 1.0134 1.6101
v  5.0655 1.7521 2.1037
v  5.4945 2.2363 -0.9349
v  5.2635 2.6235 -2.0145
v  5.4945 2.6235 -1.0119
v  5.2635 1.8526 -1.8612
v  5.4945 1.9080 -0.7155
v  5.2635 1.1990 -1.4245
v  5.4945 1.6886 -0.3872
v  5.4945 1.6116 -0.0000
v  5.4945 3.0107 -0.9349
v  5.4945 3.5584 0.3872
v  5.4945 3.6354 -0.0000
v  5.4945 3.5584 -0.3872
v  5.4945 3.3390 -0.7155
v  5.2635 4.4847 0.7710
v  5.2635 4.6381 -0.0000
v  5.2635 4.4847 -0.7710
v  5.2635 4.0480 -1.4245
v  5.2635 3.3944 -1.8612
v  5.0655 4.7272 0.8714
v  5.0655 4.9005 -0.0000
v  5.0655 4.7272 -0.8714
v  5.0655 4.2336 -1.6101
v  5.0655 3.4949 -2.1037
v  5.0655 2.6235 -2.2770
v  5.0655 1.7521 -2.1037
v  5.0655 1.0134 -1.6101
v  4.5375 0.0000 1.9470
v  4.5375 1.3695 1.9470
# 88 vertices

vn 0.0000 -0.0000 -1.0000
vn -1.0000 0.0000 -0.0000
vn 1.0000 0.0000 -0.0000
vn 0.0000 0.0000 1.0000
vn 0.0000 1.0000 0.0000
vn 0.8962 0.1697 0.4098
vn 0.7983 0.0000 0.6023
vn 0.8962 0.0000 0.4436
vn 0.7983 0.2305 0.5564
vn 0.8962 0.3137 0.3137
vn 0.7983 0.4259 0.4259
vn 0.9919 -0.0897 0.0897
vn 0.8962 -0.4098 0.1698
vn 0.9919 -0.1172 0.0485
vn 0.8962 -0.3137 0.3137
vn 0.9919 -0.0486 0.1172
vn 0.8962 -0.1697 0.4098
vn 0.9919 -0.0000 0.1269
vn 0.9919 0.0485 0.1172
vn 0.9919 0.0897 0.0897
vn 0.8962 -0.4436 -0.0000
vn 0.7983 -0.5564 -0.2305
vn 0.8962 -0.4098 -0.1698
vn 0.7983 -0.6023 -0.0000
vn 0.7983 -0.5564 0.2305
vn 0.7983 -0.4259 0.4259
vn 0.7983 -0.2305 0.5564
vn 0.9919 -0.0486 -0.1172
vn 0.8962 -0.0000 -0.4436
vn 0.9919 -0.0000 -0.1269
vn 0.8962 -0.1697 -0.4098
vn 0.9919 -0.0897 -0.0897
vn 0.8962 -0.3137 -0.3137
vn 0.9919 -0.1172 -0.0485
vn 0.9914 -0.1310 0.0000
vn 0.9919 0.0486 -0.1172
vn 0.9919 0.1172 0.0485
vn 0.9919 0.1269 -0.0000
vn 0.9919 0.1172 -0.0485
vn 0.9919 0.0897 -0.0897
vn 0.8962 0.4098 0.1698
vn 0.8962 0.4436 -0.0000
vn 0.8962 0.4098 -0.1697
vn 0.8962 0.3137 -0.3137
vn 0.8962 0.1698 -0.4098
vn 0.7983 0.5564 0.2305
vn 0.7983 0.6023 -0.0000
vn 0.7983 0.5564 -0.2305
vn 0.7983 0.4259 -0.4259
vn 0.7983 0.2305 -0.5564
vn 0.7983 -0.0000 -0.6023
vn 0.7983 -0.2305 -0.5564
vn 0.7983 -0.4259 -0.4259
vn 0.0000 -0.9808 0.1951
vn 0.0000 -0.9239 0.3827
vn 0.0000 -0.7071 0.7071
vn 0.0000 -0.3827 0.9239
vn 0.0000 0.3827 0.9239
vn 0.0000 0.7071 0.7071
vn 0.0000 0.9239 0.3827
vn 0.0000 0.9239 -0.3827
vn 0.0000 0.7071 -0.7071
vn 0.0000 0.3827 -0.9239
vn 0.0000 0.0000 -1.0000
vn 0.0000 -0.3827 -0.9239
vn 0.0000 -0.7071 -0.7071
vn 0.0000 -0.9239 -0.3827
vn 0.0000 -0.9808 -0.1951
# 68 vertex normals

vt 0.6045 0.7086 0.0000
vt 0.5746 0.8636 0.0000
vt 0.6045 0.8636 0.0000
vt 0.5746 0.7086 0.0000
vt 0.8586 0.6949 0.0000
vt 0.9977 0.7927 0.0000
vt 0.9977 0.6949 0.0000
vt 0.8586 0.7927 0.0000
vt 0.0345 0.8651 0.0000
vt 0.2548 0.7101 0.0000
vt 0.0345 0.7101 0.0000
vt 0.2548 0.8651 0.0000
vt 0.2847 0.7101 0.0000
vt 0.2847 0.8651 0.0000
vt 0.2548 0.9248 0.0000
vt 0.0345 0.9248 0.0000
vt 0.0046 0.8650 0.0000
vt 0.0046 0.7101 0.0000
vt 0.8579 0.7972 0.0000
vt 0.9970 0.8951 0.0000
vt 0.9970 0.7972 0.0000
vt 0.8579 0.8951 0.0000
vt 0.3202 0.8635 0.0000
vt 0.5413 0.7080 0.0000
vt 0.3202 0.7080 0.0000
vt 0.5413 0.8635 0.0000
vt 0.5713 0.7080 0.0000
vt 0.5713 0.8635 0.0000
vt 0.5413 0.9235 0.0000
vt 0.3202 0.9235 0.0000
vt 0.2902 0.8635 0.0000
vt 0.2902 0.7080 0.0000
vt 0.8577 0.8984 0.0000
vt 0.9973 0.9965 0.0000
vt 0.9973 0.8984 0.0000
vt 0.8577 0.9965 0.0000
vt 0.9352 0.0330 0.0000
vt 0.8937 0.1572 0.0000
vt 0.9016 0.1953 0.0000
vt 0.8937 0.1160 0.0000
vt 0.9016 0.0779 0.0000
vt 0.9162 0.0488 0.0000
vt 0.9749 0.0488 0.0000
vt 0.9558 0.0330 0.0000
vt 0.9894 0.0779 0.0000
vt 0.9973 0.1160 0.0000
vt 0.9973 0.1572 0.0000
vt 0.9894 0.1953 0.0000
vt 0.9749 0.2244 0.0000
vt 0.9558 0.2402 0.0000
vt 0.9352 0.2402 0.0000
vt 0.9162 0.2244 0.0000
vt 0.8075 0.2075 0.0000
vt 0.8232 0.2366 0.0000
vt 0.8247 0.2216 0.0000
vt 0.8033 0.2204 0.0000
vt 0.7944 0.1813 0.0000
vt 0.7880 0.1900 0.0000
vt 0.8469 0.1674 0.0000
vt 0.8734 0.1809 0.0000
vt 0.8534 0.1544 0.0000
vt 0.8603 0.2072 0.0000
vt 0.8385 0.1745 0.0000
vt 0.8432 0.2214 0.0000
vt 0.8293 0.1745 0.0000
vt 0.8208 0.1675 0.0000
vt 0.8143 0.1546 0.0000
vt 0.8805 0.1466 0.0000
vt 0.8880 0.1064 0.0000
vt 0.8804 0.1095 0.0000
vt 0.8880 0.1495 0.0000
vt 0.8798 0.1894 0.0000
vt 0.8647 0.2199 0.0000
vt 0.8448 0.2366 0.0000
vt 0.8469 0.0891 0.0000
vt 0.8429 0.0350 0.0000
vt 0.8384 0.0821 0.0000
vt 0.8601 0.0492 0.0000
vt 0.8534 0.1021 0.0000
vt 0.8732 0.0753 0.0000
vt 0.8569 0.1190 0.0000
vt 0.8569 0.1374 0.0000
vt 0.8292 0.0821 0.0000
vt 0.8107 0.1376 0.0000
vt 0.8107 0.1192 0.0000
vt 0.8142 0.1022 0.0000
vt 0.8207 0.0892 0.0000
vt 0.7872 0.1471 0.0000
vt 0.7872 0.1100 0.0000
vt 0.7942 0.0758 0.0000
vt 0.8073 0.0494 0.0000
vt 0.8244 0.0352 0.0000
vt 0.7797 0.1501 0.0000
vt 0.7796 0.1071 0.0000
vt 0.7878 0.0672 0.0000
vt 0.8030 0.0367 0.0000
vt 0.8229 0.0200 0.0000
vt 0.8444 0.0200 0.0000
vt 0.8644 0.0362 0.0000
vt 0.8796 0.0667 0.0000
vt 0.8249 0.7086 0.0000
vt 0.8249 0.8636 0.0000
vt 0.8548 0.7086 0.0000
vt 0.8548 0.8636 0.0000
vt 0.8249 0.9234 0.0000
vt 0.6045 0.9234 0.0000
vt 0.2571 0.6916 0.0000
vt 0.0039 0.6490 0.0000
vt 0.0039 0.6916 0.0000
vt 0.2571 0.6489 0.0000
vt 0.0039 0.6064 0.0000
vt 0.2571 0.6063 0.0000
vt 0.0039 0.5637 0.0000
vt 0.2571 0.5637 0.0000
vt 0.0039 0.5210 0.0000
vt 0.2571 0.5210 0.0000
vt 0.0039 0.4784 0.0000
vt 0.2571 0.4784 0.0000
vt 0.0039 0.4357 0.0000
vt 0.2572 0.4357 0.0000
vt 0.0039 0.3931 0.0000
vt 0.2572 0.3931 0.0000
vt 0.0039 0.3504 0.0000
vt 0.2572 0.3504 0.0000
vt 0.0039 0.3078 0.0000
vt 0.2572 0.3078 0.0000
vt 0.0039 0.2652 0.0000
vt 0.2572 0.2651 0.0000
vt 0.0039 0.2225 0.0000
vt 0.2572 0.2225 0.0000
vt 0.0039 0.1799 0.0000
vt 0.2572 0.1798 0.0000
vt 0.0039 0.1372 0.0000
vt 0.2572 0.1372 0.0000
vt 0.0039 0.0946 0.0000
vt 0.2572 0.0946 0.0000
vt 0.0039 0.0520 0.0000
vt 0.2572 0.0519 0.0000
vt 0.0039 0.0093 0.0000
vt 0.2572 0.0093 0.0000
# 140 texture coords

g Mesh_0034
usemtl Tex_0031_0_dds
s 1
f 1/1/1 2/2/1 3/3/1 
s 2
f 2/2/1 1/1/1 4/4/1 
s 81
f 2/5/2 5/6/2 6/7/2 
s 82
f 5/6/2 2/5/2 4/8/2 
s 83
f 7/9/3 8/10/3 9/11/3 
s 84
f 8/10/3 7/9/3 10/12/3 
s 85
f 11/13/4 10/12/4 12/14/4 
s 86
f 10/12/4 11/13/4 8/10/4 
s 87
f 12/15/5 7/9/5 13/16/5 
s 88
f 7/9/5 12/15/5 10/12/5 
s 89
f 13/17/1 9/11/1 14/18/1 
s 90
f 9/11/1 13/17/1 7/9/1 
s 91
f 13/19/2 11/20/2 12/21/2 
s 92
f 11/20/2 13/19/2 14/22/2 
s 93
f 15/23/3 16/24/3 17/25/3 
s 94
f 16/24/3 15/23/3 18/26/3 
s 95
f 19/27/4 18/26/4 20/28/4 
s 96
f 18/26/4 19/27/4 16/24/4 
s 97
f 20/29/5 15/23/5 21/30/5 
s 98
f 15/23/5 20/29/5 18/26/5 
s 99
f 21/31/1 17/25/1 22/32/1 
s 100
f 17/25/1 21/31/1 15/23/1 
s 101
f 21/33/2 19/34/2 20/35/2 
s 102
f 19/34/2 21/33/2 22/36/2 
s 103
f 23/37/2 24/38/2 25/39/2 
s 104
f 23/37/2 26/40/2 24/38/2 
s 105
f 23/37/2 27/41/2 26/40/2 
s 106
f 23/37/2 28/42/2 27/41/2 
s 107
f 23/37/2 29/43/2 30/44/2 
s 108
f 23/37/2 31/45/2 29/43/2 
s 109
f 23/37/2 32/46/2 31/45/2 
s 110
f 23/37/2 33/47/2 32/46/2 
s 111
f 23/37/2 34/48/2 33/47/2 
s 112
f 23/37/2 35/49/2 34/48/2 
s 113
f 23/37/2 36/50/2 35/49/2 
s 114
f 23/37/2 37/51/2 36/50/2 
s 115
f 23/37/2 38/52/2 37/51/2 
s 116
f 23/37/2 25/39/2 38/52/2 
s 209
f 39/53/6 40/54/7 41/55/8 
s 210
f 40/54/7 39/53/6 42/56/9 
s 211
f 43/57/10 42/56/9 39/53/6 
s 212
f 42/56/9 43/57/10 44/58/11 
s 213
f 45/59/12 46/60/13 47/61/14 
s 214
f 46/60/13 45/59/12 48/62/15 
s 215
f 49/63/16 48/62/15 45/59/12 
s 216
f 48/62/15 49/63/16 50/64/17 
s 217
f 51/65/18 50/64/17 49/63/16 
s 218
f 50/64/17 51/65/18 41/55/8 
s 219
f 52/66/19 41/55/8 51/65/18 
s 220
f 41/55/8 52/66/19 39/53/6 
s 221
f 53/67/20 39/53/6 52/66/19 
s 222
f 39/53/6 53/67/20 43/57/10 
s 223
f 54/68/21 55/69/22 56/70/23 
s 224
f 55/69/22 54/68/21 57/71/24 
s 225
f 46/60/13 57/71/24 54/68/21 
s 226
f 57/71/24 46/60/13 58/72/25 
s 227
f 48/62/15 58/72/25 46/60/13 
s 228
f 58/72/25 48/62/15 59/73/26 
s 229
f 50/64/17 59/73/26 48/62/15 
s 230
f 59/73/26 50/64/17 60/74/27 
s 231
f 41/55/8 60/74/27 50/64/17 
s 232
f 60/74/27 41/55/8 40/54/7 
s 233
f 61/75/28 62/76/29 63/77/30 
s 234
f 62/76/29 61/75/28 64/78/31 
s 235
f 65/79/32 64/78/31 61/75/28 
s 236
f 64/78/31 65/79/32 66/80/33 
s 237
f 67/81/34 66/80/33 65/79/32 
s 238
f 66/80/33 67/81/34 56/70/23 
s 239
f 68/82/35 56/70/23 67/81/34 
s 240
f 56/70/23 68/82/35 54/68/21 
s 241
f 47/61/14 54/68/21 68/82/35 
s 242
f 54/68/21 47/61/14 46/60/13 
s 243
f 68/82/35 63/77/30 69/83/36 
s 244
f 68/82/35 61/75/28 63/77/30 
s 245
f 68/82/35 65/79/32 61/75/28 
s 246
f 68/82/35 67/81/34 65/79/32 
s 247
f 68/82/35 45/59/12 47/61/14 
s 248
f 68/82/35 49/63/16 45/59/12 
s 249
f 68/82/35 51/65/18 49/63/16 
s 250
f 68/82/35 52/66/19 51/65/18 
s 251
f 68/82/35 53/67/20 52/66/19 
s 252
f 68/82/35 70/84/37 53/67/20 
s 253
f 68/82/35 71/85/38 70/84/37 
s 254
f 68/82/35 72/86/39 71/85/38 
s 255
f 68/82/35 73/87/40 72/86/39 
s 256
f 68/82/3 69/83/36 73/87/40 
s 257
f 71/85/38 74/88/41 70/84/37 
s 258
f 74/88/41 71/85/38 75/89/42 
s 259
f 72/86/39 75/89/42 71/85/38 
s 260
f 75/89/42 72/86/39 76/90/43 
s 261
f 73/87/40 76/90/43 72/86/39 
s 262
f 76/90/43 73/87/40 77/91/44 
s 263
f 69/83/36 77/91/44 73/87/40 
s 264
f 77/91/44 69/83/36 78/92/45 
s 265
f 63/77/30 78/92/45 69/83/36 
s 266
f 78/92/45 63/77/30 62/76/29 
s 267
f 70/84/37 43/57/10 53/67/20 
s 268
f 43/57/10 70/84/37 74/88/41 
s 269
f 74/88/41 44/58/11 43/57/10 
s 270
f 44/58/11 74/88/41 79/93/46 
s 271
f 75/89/42 79/93/46 74/88/41 
s 272
f 79/93/46 75/89/42 80/94/47 
s 273
f 76/90/43 80/94/47 75/89/42 
s 274
f 80/94/47 76/90/43 81/95/48 
s 275
f 77/91/44 81/95/48 76/90/43 
s 276
f 81/95/48 77/91/44 82/96/49 
s 277
f 78/92/45 82/96/49 77/91/44 
s 278
f 82/96/49 78/92/45 83/97/50 
s 279
f 62/76/29 83/97/50 78/92/45 
s 280
f 83/97/50 62/76/29 84/98/51 
s 281
f 64/78/31 84/98/51 62/76/29 
s 282
f 84/98/51 64/78/31 85/99/52 
s 283
f 66/80/33 85/99/52 64/78/31 
s 284
f 85/99/52 66/80/33 86/100/53 
s 285
f 56/70/23 86/100/53 66/80/33 
s 286
f 86/100/53 56/70/23 55/69/22 
s 347
f 3/3/3 87/101/3 1/1/3 
s 348
f 87/101/3 3/3/3 88/102/3 
s 349
f 5/103/4 88/102/4 6/104/4 
s 350
f 88/102/4 5/103/4 87/101/4 
s 351
f 6/105/5 3/3/5 2/106/5 
s 352
f 3/3/5 6/105/5 88/102/5 
s 399
f 57/107/54 28/108/55 23/109/54 
s 400
f 28/108/55 57/107/54 58/110/55 
s 401
f 58/110/55 27/111/56 28/108/55 
s 402
f 27/111/56 58/110/55 59/112/56 
s 403
f 59/112/56 26/113/57 27/111/56 
s 404
f 26/113/57 59/112/56 60/114/57 
s 405
f 60/114/57 24/115/4 26/113/57 
s 406
f 24/115/4 60/114/57 40/116/4 
s 407
f 40/116/4 25/117/58 24/115/4 
s 408
f 25/117/58 40/116/4 42/118/58 
s 409
f 42/118/58 38/119/59 25/117/58 
s 410
f 38/119/59 42/118/58 44/120/59 
s 411
f 44/120/59 37/121/60 38/119/59 
s 412
f 37/121/60 44/120/59 79/122/60 
s 413
f 79/122/60 36/123/5 37/121/60 
s 414
f 36/123/5 79/122/60 80/124/5 
s 415
f 80/124/5 35/125/61 36/123/5 
s 416
f 35/125/61 80/124/5 81/126/61 
s 417
f 81/126/61 34/127/62 35/125/61 
s 418
f 34/127/62 81/126/61 82/128/62 
s 419
f 82/128/62 33/129/63 34/127/62 
s 420
f 33/129/63 82/128/62 83/130/63 
s 421
f 83/130/63 32/131/64 33/129/63 
s 422
f 32/131/64 83/130/63 84/132/64 
s 423
f 84/132/64 31/133/65 32/131/64 
s 424
f 31/133/65 84/132/64 85/134/65 
s 425
f 85/134/65 29/135/66 31/133/65 
s 426
f 29/135/66 85/134/65 86/136/66 
s 427
f 86/136/66 30/137/67 29/135/66 
s 428
f 30/137/67 86/136/66 55/138/67 
s 429
f 55/138/67 23/139/68 30/137/67 
s 430
f 23/139/68 55/138/67 57/140/68 
# 0 polygons - 154 triangles