# Blender v2.81 (sub 16) OBJ File: '323Rus5.blend'
# www.blender.org
mtllib 323Rus5.mtl
o RS323_Cube.004
v 0.862885 1.401872 -0.070553
v 0.868819 1.409467 -0.078669
v 0.878430 1.416606 -0.074742
v 0.882107 1.416150 -0.062699
v 0.876174 1.408555 -0.054583
v 0.960315 1.331122 -0.097239
v 0.963371 1.340947 -0.104511
v 0.969516 1.350773 -0.099566
v 0.972605 1.350773 -0.087351
v 0.969549 1.340947 -0.080080
v 1.086226 1.292444 -0.126959
v 1.086752 1.303149 -0.133584
v 1.090415 1.313836 -0.128006
v 1.093552 1.313820 -0.115803
v 1.093025 1.303115 -0.109178
v 1.225665 1.276660 -0.165799
v 1.224330 1.287617 -0.171875
v 1.226967 1.298444 -0.165995
v 1.230939 1.298314 -0.154038
v 1.232274 1.287357 -0.147962
v 1.364469 1.275112 -0.219776
v 1.361653 1.286108 -0.225245
v 1.364402 1.296932 -0.219411
v 1.369967 1.296760 -0.208107
v 1.372783 1.285763 -0.202639
v 1.583465 1.281930 -0.396300
v 1.578336 1.292879 -0.399849
v 1.583503 1.303754 -0.396134
v 1.593798 1.303680 -0.388871
v 1.598927 1.292732 -0.385322
v 1.719722 1.279934 -0.660148
v 1.713816 1.290880 -0.662162
v 1.719857 1.301757 -0.660174
v 1.731805 1.301688 -0.656172
v 1.737711 1.290741 -0.654158
v 1.738716 1.280048 -0.851046
v 1.732484 1.290993 -0.850683
v 1.738835 1.301871 -0.850955
v 1.751419 1.301805 -0.851589
v 1.757651 1.290861 -0.851951
v 1.715139 1.281188 -0.985790
v 1.709579 1.292115 -0.982882
v 1.715272 1.303011 -0.985643
v 1.726526 1.302980 -0.991310
v 1.732085 1.292054 -0.994218
v 1.639840 1.282305 -1.082111
v 1.635252 1.293220 -1.077801
v 1.639918 1.304128 -1.082043
v 1.649172 1.304121 -1.090595
v 1.653759 1.293206 -1.094904
v 1.558241 1.282336 -1.156823
v 1.553545 1.293250 -1.152630
v 1.558069 1.304158 -1.157025
v 1.567288 1.304151 -1.165614
v 1.571984 1.293237 -1.169807
v 1.421851 1.287402 -1.267671
v 1.420171 1.297978 -1.261031
v 1.424455 1.308959 -1.265483
v 1.430419 1.309364 -1.276575
v 1.432099 1.298788 -1.283214
v 1.304726 1.314813 -1.300899
v 1.307919 1.324348 -1.293306
v 1.310232 1.335751 -1.298144
v 1.309352 1.337617 -1.310574
v 1.306159 1.328082 -1.318166
v 1.168688 1.350829 -1.284787
v 1.174402 1.359732 -1.277943
v 1.175166 1.371523 -1.282321
v 1.170217 1.374409 -1.293543
v 1.164504 1.365506 -1.300388
v 1.032209 1.383519 -1.191568
v 1.039054 1.392166 -1.185474
v 1.038485 1.404258 -1.188968
v 1.031072 1.407704 -1.198556
v 1.024227 1.399057 -1.204650
v 0.913939 1.400929 -1.069486
v 0.921345 1.409507 -1.063979
v 0.919273 1.421785 -1.065902
v 0.909794 1.425487 -1.073332
v 0.902388 1.416909 -1.078840
v 0.832084 1.391404 -0.935473
v 0.839775 1.400027 -0.930448
v 0.836088 1.412048 -0.929637
v 0.824710 1.415446 -0.933850
v 0.817019 1.406823 -0.938874
v -0.803059 1.369438 -1.842267
v -1.083618 1.369438 -1.071436
v -0.803060 3.858941 -1.842267
v -1.083619 3.858941 -1.071436
v -0.712198 1.369438 -1.809196
v -0.992757 1.369438 -1.038366
v -0.712199 3.858941 -1.809196
v -0.992758 3.858941 -1.038366
v 1.027693 1.369439 -1.175928
v 0.747134 1.369439 -0.405097
v 1.027692 3.858942 -1.175927
v 0.747133 3.858942 -0.405097
v 1.118554 1.369439 -1.142857
v 0.837994 1.369439 -0.372027
v 1.118553 3.858942 -1.142857
v 0.837994 3.858942 -0.372027
v -0.994375 1.381084 -0.999620
v -0.994376 3.844707 -0.999620
v 0.723927 3.844708 -0.374209
v 0.723927 1.381085 -0.374209
v -0.999287 1.371724 -1.020425
v -0.999288 3.854068 -1.020425
v 0.740604 1.371724 -0.387157
v 0.740603 3.854069 -0.387157
v -0.821803 1.374702 -1.876668
v -1.120090 1.374702 -1.057131
v 1.156740 1.374702 -1.156537
v 0.858453 1.374702 -0.337001
v -0.821803 1.278010 -1.876668
v -1.120090 1.278010 -1.057131
v 1.156740 1.278010 -1.156537
v 0.858453 1.278010 -0.337001
v -0.821804 3.950471 -1.876668
v -1.120091 3.950471 -1.057131
v 1.156739 3.950472 -1.156537
v 0.858452 3.950472 -0.337001
v -0.821804 3.853780 -1.876668
v -1.120091 3.853780 -1.057131
v 1.156739 3.853780 -1.156537
v 0.858452 3.853780 -0.337001
v -0.970465 1.413373 -0.982828
v -1.002340 1.371724 -1.012037
v -0.970466 3.812418 -0.982828
v -1.002341 3.854068 -1.012037
v 0.694358 1.413374 -0.376883
v 0.737551 1.371724 -0.378768
v 0.694358 3.812418 -0.376883
v 0.737550 3.854069 -0.378768
v -0.808394 1.369438 -1.544898
v -0.808395 3.858941 -1.544898
v 0.931496 3.858942 -0.911630
v 0.931497 1.369439 -0.911630
v 0.693635 1.280718 1.576074
v 0.670464 1.367306 1.599245
v 0.693635 1.280718 1.507997
v 0.670464 1.367306 1.484826
v 0.761712 1.280718 1.576074
v 0.784883 1.367306 1.599245
v 0.761712 1.280718 1.507997
v 0.784883 1.367306 1.484826
v 0.693635 1.280718 -0.010980
v 0.670464 1.367306 0.012191
v 0.693635 1.280718 -0.079057
v 0.670464 1.367306 -0.102228
v 0.761712 1.280718 -0.010980
v 0.784883 1.367306 0.012191
v 0.761712 1.280718 -0.079057
v 0.784883 1.367306 -0.102228
v -1.602440 1.280718 -0.010980
v -1.625611 1.367306 0.012191
v -1.602440 1.280718 -0.079057
v -1.625611 1.367306 -0.102228
v -1.534364 1.280718 -0.010980
v -1.511192 1.367306 0.012191
v -1.534364 1.280718 -0.079057
v -1.511192 1.367306 -0.102228
v -1.602440 1.280718 1.576074
v -1.625611 1.367306 1.599245
v -1.602440 1.280718 1.507997
v -1.625611 1.367306 1.484826
v -1.534364 1.280718 1.576074
v -1.511192 1.367306 1.599245
v -1.534364 1.280718 1.507997
v -1.511192 1.367306 1.484826
v 0.331324 1.952415 1.336156
v 0.342776 2.012305 1.345606
v 0.439885 1.952415 1.336156
v 0.428433 2.012305 1.345606
v 0.331324 1.952415 1.393942
v 0.342776 2.012305 1.384491
v 0.439885 1.952415 1.393942
v 0.428433 2.012305 1.384491
v 0.464166 1.952415 0.637300
v 0.473612 2.012305 0.625848
v 0.464166 1.952415 0.528740
v 0.473612 2.012305 0.540192
v 0.521952 1.952415 0.637300
v 0.512506 2.012305 0.625848
v 0.521952 1.952415 0.528740
v 0.512506 2.012305 0.540192
v 0.410118 2.154221 0.961703
v 0.410118 2.154221 0.879696
v 0.469803 2.149192 0.961703
v 0.469803 2.149192 0.879696
v 0.439960 2.071402 0.879696
v 0.439960 2.071402 0.961703
v 0.454881 2.073903 0.879696
v 0.454881 2.073903 0.961703
v 0.425272 2.076421 0.961703
v 0.425272 2.076421 0.879696
v 0.404828 1.914433 0.879696
v 0.404828 1.914433 0.961703
v 0.404828 2.154221 0.961703
v 0.404828 2.154221 0.879696
v 0.475092 2.149192 0.879696
v 0.475092 1.914433 0.879696
v 0.475092 1.914433 0.961703
v 0.475092 2.149192 0.961703
v 0.417695 2.082000 0.961703
v 0.417695 2.082000 0.879696
v 0.462342 2.078227 0.879696
v 0.462342 2.078227 0.961703
v -0.220506 2.058729 0.944790
v -0.166142 2.058729 0.999728
v -0.602209 2.055972 1.135042
v -0.574608 2.055972 1.213110
v -0.319833 2.047994 1.008080
v -0.323349 2.047856 1.009986
v -0.289682 2.047715 1.127019
v -0.286247 2.047805 1.124817
v -0.215644 2.133821 0.949703
v -0.214119 2.136019 0.951244
v -0.172206 2.136019 0.993600
v -0.171298 2.134643 0.994518
v -0.599136 2.109069 1.143734
v -0.599870 2.106870 1.141658
v -0.577448 2.107692 1.205076
v -0.577949 2.109069 1.203661
v -0.321395 2.160519 1.016772
v -0.320782 2.162724 1.018901
v -0.317265 2.162607 1.016995
v -0.317878 2.160400 1.014866
v -0.288570 2.161624 1.116612
v -0.288985 2.162994 1.115172
v -0.292425 2.163007 1.117380
v -0.292011 2.161636 1.118820
v -0.337389 2.099188 1.131473
v -0.337389 2.145882 1.131473
v -0.297557 2.099188 1.120401
v -0.297557 2.145882 1.120401
v -0.237125 2.109701 1.217901
v -0.237125 2.131324 1.217901
v -0.219156 2.109701 1.200261
v -0.219156 2.131324 1.200261
v -0.204755 2.129918 0.983468
v 0.252441 2.129918 0.534630
v -0.213705 2.127002 0.974351
v 0.243491 2.127002 0.525513
v -0.220883 2.118832 0.967040
v 0.236313 2.118832 0.518202
v -0.224866 2.107025 0.962982
v 0.232330 2.107025 0.514145
v -0.224866 2.093920 0.962982
v 0.232330 2.093920 0.514145
v -0.220883 2.082114 0.967040
v 0.236313 2.082114 0.518202
v -0.213705 2.073943 0.974351
v 0.243491 2.073943 0.525513
v -0.204755 2.071027 0.983468
v 0.252441 2.071027 0.534630
v -0.195805 2.073943 0.992585
v 0.261391 2.073943 0.543747
v -0.188627 2.082113 0.999896
v 0.268569 2.082113 0.551059
v -0.184644 2.093920 1.003954
v 0.272552 2.093920 0.555116
v -0.184644 2.107025 1.003954
v 0.272552 2.107025 0.555116
v -0.188627 2.118832 0.999896
v 0.268569 2.118832 0.551059
v -0.195805 2.127002 0.992585
v 0.261391 2.127002 0.543747
v 0.656023 2.055283 0.259933
v 0.655968 2.055283 0.265523
v 0.631361 2.172313 0.261284
v 0.629828 2.174090 0.262557
v 0.631337 2.172311 0.263826
v 0.309769 2.055283 0.605393
v 0.304179 2.055283 0.605345
v 0.307286 2.174090 0.579202
v 0.305985 2.172313 0.580712
v 0.308527 2.172311 0.580734
v 0.535025 2.055283 0.142328
v 0.541329 2.055283 0.142382
v 0.537667 2.174317 0.168714
v 0.539134 2.172313 0.167011
v 0.536268 2.172311 0.166986
v 0.188764 2.055283 0.488501
v 0.188827 2.055283 0.482197
v 0.215159 2.174317 0.485326
v 0.213458 2.172311 0.483895
v 0.213430 2.172313 0.486761
v 0.423700 2.174090 0.464916
v 0.425073 2.172311 0.466318
v 0.331556 2.174317 0.371056
v 0.330004 2.172311 0.369479
v 0.437862 2.025283 0.479641
v 0.316919 2.025283 0.356446
v 0.641130 2.134589 0.260754
v 0.641075 2.134585 0.266344
v 0.305274 2.134589 0.590469
v 0.310864 2.134585 0.590517
v 0.203719 2.134585 0.481377
v 0.203658 2.134589 0.487681
v 0.540234 2.134589 0.157258
v 0.533930 2.134585 0.157203
v 0.431064 2.125637 0.472515
v 0.323919 2.125637 0.363375
v 0.647248 2.135554 0.272721
v 0.662141 2.056252 0.271901
v 0.444035 2.026252 0.486019
v 0.528762 2.056252 0.136038
v 0.310657 2.026252 0.350157
v 0.437237 2.126606 0.478892
v 0.317657 2.126606 0.357085
v 0.527667 2.135554 0.150914
v 0.410468 1.989453 0.403246
v 0.410468 2.061925 0.403246
v 0.410468 1.989453 0.298525
v 0.410468 2.061925 0.298525
v 0.486713 1.989453 0.403246
v 0.486713 2.061925 0.403246
v 0.486713 1.989453 0.298525
v 0.486713 2.061925 0.298525
v 0.376642 1.947631 0.483581
v 0.376642 2.016588 0.483581
v 0.376642 1.947631 0.175671
v 0.376642 2.008671 0.175671
v 0.507238 1.947631 0.483581
v 0.507238 2.016588 0.483581
v 0.507238 1.947631 0.175671
v 0.507238 2.008671 0.175671
v 0.376642 1.947631 0.344398
v 0.376642 1.992837 0.344398
v 0.507238 1.947631 0.344398
v 0.507238 1.992837 0.344398
v 0.545080 1.949051 0.042868
v 0.545080 1.918924 0.042868
v 0.545080 1.949051 1.478099
v 0.545080 1.918924 1.478099
v 0.180306 1.949051 0.042868
v 0.180306 1.918924 0.042868
v 0.180306 1.949051 1.478099
v 0.180306 1.918924 1.478099
v -1.366987 1.932260 1.505624
v -1.366987 1.948294 1.505624
v -1.400243 1.932260 1.472981
v -1.400243 1.948294 1.472981
v -1.416043 1.932260 1.429142
v -1.416043 1.948294 1.429142
v -1.411256 1.932260 1.382789
v -1.411256 1.948294 1.382789
v -1.386832 1.932260 1.343103
v -1.386832 1.948294 1.343103
v -1.347607 1.932260 1.317944
v -1.347607 1.948294 1.317944
v -1.301352 1.932260 1.312296
v -1.301352 1.948294 1.312296
v -1.257226 1.932260 1.327277
v -1.257226 1.948294 1.327277
v -1.223970 1.932260 1.359920
v -1.223970 1.948294 1.359920
v -1.208171 1.932260 1.403759
v -1.208171 1.948294 1.403759
v -1.212957 1.932260 1.450112
v -1.212957 1.948294 1.450112
v -1.237381 1.932260 1.489798
v -1.237381 1.948294 1.489798
v -1.276606 1.932260 1.514956
v -1.276606 1.948294 1.514956
v -1.322862 1.932260 1.520604
v -1.322862 1.948294 1.520604
v -1.285922 1.948686 1.411831
v -1.367747 1.948686 1.544784
v -1.372317 1.988443 1.541971
v -1.319781 1.948686 1.390993
v -1.401605 1.948686 1.523946
v -1.397034 1.988443 1.526759
v -1.288160 1.968153 1.410454
v -1.300918 1.988443 1.425956
v -1.290723 1.978298 1.412005
v -1.295393 1.985724 1.417680
v -1.325635 1.988443 1.410745
v -1.317543 1.968153 1.392371
v -1.320735 1.985724 1.402083
v -1.317773 1.978298 1.395358
v -0.668491 1.934459 1.507848
v -0.668491 1.998821 1.483691
v -0.831437 1.934459 1.489488
v -0.826062 1.998821 1.465937
v -0.986213 1.934459 1.435330
v -0.975732 1.998821 1.413565
v -1.125057 1.934459 1.348089
v -1.109995 1.998821 1.329202
v -1.241007 1.934459 1.232139
v -1.222120 1.998821 1.217077
v -1.328248 1.934459 1.093295
v -1.306483 1.998821 1.082814
v -1.382407 1.934459 0.938520
v -1.358855 1.998821 0.933144
v -1.400766 1.934459 0.775573
v -1.376609 1.998821 0.775573
v -1.382407 1.934459 0.612626
v -1.358855 1.998821 0.618002
v -1.328248 1.934459 0.457851
v -1.306483 1.998821 0.468332
v -1.241007 1.934459 0.319007
v -1.222120 1.998821 0.334069
v -1.125057 1.934459 0.203057
v -1.109995 1.998821 0.221944
v -0.986213 1.934459 0.115816
v -0.975731 1.998821 0.137581
v -0.831437 1.934459 0.061657
v -0.826061 1.998821 0.085209
v -0.668490 1.934459 0.043298
v -0.668490 1.998821 0.067455
v -0.505544 1.934459 0.061657
v -0.510919 1.998821 0.085209
v -0.350768 1.934459 0.115816
v -0.361249 1.998821 0.137581
v -0.211924 1.934459 0.203057
v -0.226986 1.998821 0.221944
v -0.095974 1.934459 0.319007
v -0.114862 1.998821 0.334069
v -0.008733 1.934459 0.457851
v -0.030498 1.998821 0.468333
v 0.045425 1.934459 0.612627
v 0.021873 1.998821 0.618003
v 0.063785 1.934459 0.775574
v 0.039627 1.998821 0.775574
v 0.045425 1.934459 0.938520
v 0.021873 1.998821 0.933145
v -0.008734 1.934459 1.093296
v -0.030499 1.998821 1.082815
v -0.095975 1.934459 1.232140
v -0.114862 1.998821 1.217078
v -0.211925 1.934459 1.348090
v -0.226987 1.998821 1.329202
v -0.350769 1.934459 1.435331
v -0.361251 1.998821 1.413566
v -0.505545 1.934459 1.489489
v -0.510921 1.998821 1.465937
v 0.820517 1.345646 -0.152306
v 0.820517 1.841627 -0.152306
v 0.820517 1.345646 -0.250652
v 0.820517 1.841627 -0.250652
v 0.820516 1.345646 1.785659
v 0.820516 1.841627 1.785659
v 0.820516 1.345646 1.687312
v 0.820516 1.841627 1.687312
v -1.757651 1.319136 1.816298
v -1.757651 1.868137 1.816298
v -1.659305 1.319136 1.816298
v -1.659305 1.868137 1.816298
v -1.757651 1.319136 -0.269974
v -1.757651 1.868137 -0.269974
v -1.659305 1.319136 -0.269974
v -1.659305 1.868137 -0.269974
v -1.659305 1.319136 -0.141070
v -1.659305 1.795832 -0.141070
v -1.659305 1.795832 1.672193
v -1.659305 1.319582 1.672193
v 0.814836 1.804424 -0.152306
v 0.814835 1.804424 1.687312
v -1.667638 1.345646 -0.152306
v -1.667638 1.841627 -0.152306
v -1.667638 1.345646 -0.250652
v -1.667638 1.841627 -0.250652
v -1.667638 1.345646 1.785659
v -1.667638 1.841627 1.785659
v -1.667638 1.345646 1.687312
v -1.667638 1.841627 1.687312
v 0.909583 1.319136 1.816298
v 0.909583 1.868137 1.816298
v 0.811237 1.319136 1.816298
v 0.811237 1.868137 1.816298
v 0.909583 1.319136 -0.269974
v 0.909583 1.868137 -0.269974
v 0.811237 1.319136 -0.269974
v 0.811237 1.868137 -0.269974
v 0.811237 1.795832 -0.141070
v 0.811237 1.795832 1.672193
v 0.811237 1.349247 -0.141070
v -1.661957 1.804424 -0.152306
v -1.661956 1.804424 1.687312
v -1.407441 1.841312 -0.056712
v -1.474029 1.841312 0.009875
v -1.440735 1.841312 -0.047791
v -1.465108 1.841312 -0.023418
v -1.461439 1.918759 0.022078
v -1.395750 1.918759 -0.043438
v -1.452638 1.918759 -0.010680
v -1.428594 1.918759 -0.034660
v -1.474029 1.841312 1.525131
v -1.407441 1.841312 1.591719
v -1.465108 1.841312 1.558425
v -1.440735 1.841312 1.582798
v -1.395750 1.918759 1.578444
v -1.461438 1.918759 1.512929
v -1.428594 1.918759 1.569667
v -1.452638 1.918759 1.545686
v 0.615540 1.841312 0.009875
v 0.548952 1.841312 -0.056713
v 0.606619 1.841312 -0.023419
v 0.582246 1.841312 -0.047792
v 0.537262 1.918759 -0.043438
v 0.602950 1.918759 0.022077
v 0.570106 1.918759 -0.034661
v 0.594149 1.918759 -0.010680
v 0.548953 1.841312 1.591719
v 0.615540 1.841312 1.525130
v 0.582247 1.841312 1.582798
v 0.606619 1.841312 1.558424
v 0.602950 1.918759 1.512928
v 0.537262 1.918759 1.578444
v 0.594150 1.918759 1.545686
v 0.570106 1.918759 1.569667
v -1.407441 1.909225 -0.056712
v -1.440735 1.909225 -0.047791
v -1.465108 1.909225 -0.023418
v -1.474029 1.909225 0.009875
v -1.407441 1.909225 1.591719
v -1.440735 1.909225 1.582798
v -1.465108 1.909225 1.558425
v -1.474029 1.909225 1.525131
v 0.615540 1.909225 1.525130
v 0.606619 1.909225 1.558424
v 0.582247 1.909225 1.582798
v 0.548953 1.909225 1.591719
v 0.548952 1.909225 -0.056713
v 0.582246 1.909225 -0.047792
v 0.606619 1.909225 -0.023419
v 0.615540 1.909225 0.009875
v -1.667638 1.723633 1.804202
v -1.667638 1.776923 1.804202
v 0.820516 1.776923 1.804202
v 0.820516 1.723633 1.804202
v 0.820516 1.776923 1.785659
v 0.820516 1.723633 1.785659
v 0.820516 1.463640 1.785659
v 0.820516 1.410350 1.785659
v -1.667638 1.410350 1.785659
v -1.667638 1.463640 1.785659
v -1.667638 1.723633 1.785659
v -1.667638 1.776923 1.785659
v -1.667638 1.463640 1.804202
v -1.667638 1.410350 1.804202
v 0.820516 1.410350 1.804202
v 0.820516 1.463640 1.804202
v -1.304219 1.557665 1.779819
v -1.304219 1.629608 1.779819
v -1.304219 1.557665 1.824060
v -1.304219 1.629608 1.824060
v -1.427202 1.557665 1.779819
v -1.427202 1.629608 1.779819
v -1.427202 1.557665 1.824060
v -1.427202 1.629608 1.824060
v -0.500059 1.573791 1.782413
v -0.500059 1.613482 1.782413
v -0.500059 1.573791 1.801342
v -0.500059 1.613482 1.801342
v -0.633342 1.573791 1.782413
v -0.633342 1.613482 1.782413
v -0.633342 1.573791 1.801342
v -0.633342 1.613482 1.801342
v -0.272523 1.660114 1.876668
v -0.272523 1.674489 1.801995
v -0.311599 1.647418 1.876668
v -0.320048 1.659047 1.801995
v -0.335749 1.614178 1.876668
v -0.349420 1.618620 1.801995
v -0.335749 1.573091 1.876668
v -0.349420 1.568649 1.801995
v -0.311599 1.539851 1.876668
v -0.320048 1.528222 1.801995
v -0.272523 1.527155 1.876668
v -0.272523 1.512780 1.801995
v -0.233447 1.539851 1.876668
v -0.224998 1.528222 1.801995
v -0.209297 1.573091 1.876668
v -0.195626 1.568649 1.801995
v -0.209297 1.614178 1.876668
v -0.195626 1.618620 1.801995
v -0.233447 1.647418 1.876668
v -0.224998 1.659047 1.801995
v -0.273232 1.650008 1.813216
v -0.273232 1.650008 1.779131
v -0.322165 1.621756 1.813216
v -0.322165 1.621757 1.779131
v -0.322165 1.565254 1.813216
v -0.322165 1.565254 1.779131
v -0.273232 1.537002 1.813216
v -0.273232 1.537002 1.779131
v -0.224299 1.565254 1.813216
v -0.224299 1.565254 1.779131
v -0.224299 1.621757 1.813216
v -0.224299 1.621757 1.779131
v 0.055440 1.660114 1.876668
v 0.055440 1.674489 1.801995
v 0.016365 1.647418 1.876668
v 0.007915 1.659047 1.801995
v -0.007785 1.614178 1.876668
v -0.021457 1.618620 1.801995
v -0.007785 1.573091 1.876668
v -0.021457 1.568649 1.801995
v 0.016365 1.539851 1.876668
v 0.007915 1.528222 1.801995
v 0.055440 1.527155 1.876668
v 0.055440 1.512780 1.801995
v 0.094516 1.539851 1.876668
v 0.102966 1.528222 1.801995
v 0.118666 1.573091 1.876668
v 0.132338 1.568649 1.801995
v 0.118666 1.614178 1.876668
v 0.132338 1.618620 1.801995
v 0.094516 1.647418 1.876668
v 0.102965 1.659047 1.801995
v 0.054731 1.650008 1.813216
v 0.054731 1.650008 1.779131
v 0.005798 1.621756 1.813216
v 0.005798 1.621757 1.779131
v 0.005798 1.565254 1.813216
v 0.005798 1.565254 1.779131
v 0.054731 1.537002 1.813216
v 0.054731 1.537002 1.779131
v 0.103664 1.565254 1.813216
v 0.103664 1.565254 1.779131
v 0.103664 1.621757 1.813216
v 0.103664 1.621757 1.779131
v 0.361459 1.660114 1.876668
v 0.361459 1.674489 1.801995
v 0.322384 1.647418 1.876668
v 0.313934 1.659047 1.801995
v 0.298233 1.614178 1.876668
v 0.284562 1.618620 1.801995
v 0.298233 1.573091 1.876668
v 0.284562 1.568649 1.801995
v 0.322384 1.539851 1.876668
v 0.313934 1.528222 1.801995
v 0.361459 1.527155 1.876668
v 0.361459 1.512780 1.801995
v 0.400535 1.539851 1.876668
v 0.408984 1.528222 1.801995
v 0.424685 1.573091 1.876668
v 0.438356 1.568649 1.801995
v 0.424685 1.614178 1.876668
v 0.438356 1.618620 1.801995
v 0.400535 1.647418 1.876668
v 0.408984 1.659047 1.801995
v 0.360750 1.650008 1.813216
v 0.360750 1.650008 1.779131
v 0.311817 1.621756 1.813216
v 0.311817 1.621757 1.779131
v 0.311817 1.565254 1.813216
v 0.311817 1.565254 1.779131
v 0.360750 1.537002 1.813216
v 0.360750 1.537002 1.779131
v 0.409683 1.565254 1.813216
v 0.409683 1.565254 1.779131
v 0.409683 1.621757 1.813216
v 0.409683 1.621757 1.779131
v -1.387582 1.947160 1.532712
v -1.386956 1.989463 1.533155
v -1.304633 1.947142 1.398538
v -1.314395 1.989500 1.416134
v -1.309080 1.986600 1.407527
v -1.305573 1.978682 1.401167
v -1.304343 1.967883 1.398756
v -0.668491 1.995005 0.793015
v -0.668491 2.032633 0.793015
v -0.677212 1.995005 0.790679
v -0.677212 2.032633 0.790679
v -0.683596 1.995005 0.784294
v -0.683596 2.032633 0.784294
v -0.685933 1.995005 0.775573
v -0.685933 2.032633 0.775573
v -0.683596 1.995005 0.766852
v -0.683596 2.032633 0.766852
v -0.677212 1.995005 0.760468
v -0.677212 2.032633 0.760468
v -0.668491 1.995005 0.758131
v -0.668491 2.032633 0.758131
v -0.659770 1.995005 0.760468
v -0.659770 2.032633 0.760468
v -0.653386 1.995005 0.766852
v -0.653386 2.032633 0.766852
v -0.651049 1.995005 0.775573
v -0.651049 2.032633 0.775573
v -0.653386 1.995005 0.784294
v -0.653386 2.032633 0.784294
v -0.659770 1.995005 0.790679
v -0.659770 2.032633 0.790679
v -0.673117 2.044714 0.783586
v -0.668491 2.044714 0.784825
v -0.676503 2.044714 0.780199
v -0.677743 2.044714 0.775573
v -0.676503 2.044714 0.770947
v -0.673117 2.044714 0.767561
v -0.668491 2.044714 0.766321
v -0.663865 2.044714 0.767561
v -0.660479 2.044714 0.770947
v -0.659239 2.044714 0.775573
v -0.660478 2.044714 0.780199
v -0.663865 2.044714 0.783586
v -0.668491 1.966640 1.501808
v -0.830093 1.966640 1.483600
v -0.983593 1.966640 1.429888
v -1.121291 1.966640 1.343367
v -1.236285 1.966640 1.228373
v -1.322806 1.966640 1.090675
v -1.376518 1.966640 0.937176
v -1.394726 1.966640 0.775573
v -1.376518 1.966640 0.613970
v -1.322806 1.966640 0.460471
v -1.236284 1.966640 0.322773
v -1.121291 1.966640 0.207779
v -0.983592 1.966640 0.121257
v -0.830093 1.966640 0.067546
v -0.668490 1.966640 0.049338
v -0.506888 1.966640 0.067546
v -0.353389 1.966640 0.121258
v -0.215690 1.966640 0.207780
v -0.100697 1.966640 0.322773
v -0.014175 1.966640 0.460472
v 0.039537 1.966640 0.613971
v 0.057745 1.966640 0.775574
v 0.039536 1.966640 0.937176
v -0.014176 1.966640 1.090676
v -0.100698 1.966640 1.228374
v -0.215691 1.966640 1.343367
v -0.353390 1.966640 1.429889
v -0.506889 1.966640 1.483600
v 0.856723 1.689196 1.501175
v 0.856723 1.498077 1.501175
v 0.856723 1.498077 1.015764
v 0.856723 1.689196 1.015764
v 0.909583 1.486382 1.530877
v 0.909583 1.700891 1.530877
v 0.811237 1.465285 -0.141070
v 0.909583 1.700891 0.986062
v 0.909583 1.486382 0.986062
v 1.473952 1.300343 -0.287369
v 1.473967 1.278521 -0.287635
v 1.481883 1.300220 -0.278086
v 1.485855 1.289248 -0.273577
v 1.469995 1.289493 -0.292143
v 0.811237 1.320245 1.744246
v -0.563570 2.057489 1.160106
v -0.551826 2.057489 1.155474
v -0.555382 1.977659 1.163662
v -0.558938 2.057489 1.171851
v -0.547193 2.057489 1.167218
v 0.481974 1.949051 0.561105
v 0.502976 1.949051 0.561105
v 0.502976 1.949051 0.740033
v 0.481974 1.949051 0.740033
v 0.481974 1.949051 1.370626
v 0.481974 1.949051 1.358643
v 0.241655 1.949051 1.358642
v 0.241655 1.949051 1.370626
v 0.502976 1.927614 0.740033
v 0.502976 1.927614 0.561105
v 0.481974 1.927614 0.561105
v 0.481974 1.927614 1.358643
v 0.241655 1.927614 1.358642
v 0.481974 1.927614 0.740033
v 0.241655 1.927614 1.370626
v 0.481974 1.927614 1.370626
v -0.272523 1.674489 1.876668
v -0.320048 1.659047 1.876668
v -0.349420 1.618620 1.876668
v -0.349420 1.568649 1.876668
v -0.320048 1.528222 1.876668
v -0.272523 1.512780 1.876668
v -0.224998 1.528222 1.876668
v -0.195626 1.568649 1.876668
v -0.195626 1.618620 1.876668
v -0.224998 1.659047 1.876668
v 0.055440 1.674489 1.876668
v 0.007915 1.659047 1.876668
v -0.021457 1.618620 1.876668
v -0.021457 1.568649 1.876668
v 0.007915 1.528222 1.876668
v 0.055440 1.512780 1.876668
v 0.102966 1.528222 1.876668
v 0.132338 1.568649 1.876668
v 0.132338 1.618620 1.876668
v 0.102965 1.659047 1.876668
v 0.361459 1.674489 1.876668
v 0.313934 1.659047 1.876668
v 0.284562 1.618620 1.876668
v 0.284562 1.568649 1.876668
v 0.313934 1.528222 1.876668
v 0.361459 1.512780 1.876668
v 0.408984 1.528222 1.876668
v 0.438356 1.568649 1.876668
v 0.438356 1.618620 1.876668
v 0.408984 1.659047 1.876668
v -0.272523 1.660114 1.870305
v -0.311599 1.647418 1.870305
v -0.335749 1.614178 1.870305
v -0.335749 1.573091 1.870305
v -0.311599 1.539851 1.870305
v -0.272523 1.527155 1.870305
v -0.233447 1.539851 1.870305
v -0.209297 1.573091 1.870305
v -0.209297 1.614178 1.870305
v -0.233447 1.647418 1.870305
v 0.055440 1.660114 1.870305
v 0.016365 1.647418 1.870305
v -0.007785 1.614178 1.870305
v -0.007785 1.573091 1.870305
v 0.016365 1.539851 1.870305
v 0.055440 1.527155 1.870305
v 0.094516 1.539851 1.870305
v 0.118666 1.573091 1.870305
v 0.118666 1.614178 1.870305
v 0.094516 1.647418 1.870305
v 0.361459 1.660114 1.870305
v 0.322384 1.647418 1.870305
v 0.298233 1.614178 1.870305
v 0.298233 1.573091 1.870305
v 0.322384 1.539851 1.870305
v 0.361459 1.527155 1.870305
v 0.400535 1.539851 1.870305
v 0.424685 1.573091 1.870305
v 0.424685 1.614178 1.870305
v 0.400535 1.647418 1.870305
vt 0.585042 0.001310
vt 0.659643 0.001310
vt 0.659643 0.227713
vt 0.585042 0.227713
vt 0.967687 0.800709
vt 0.975319 0.800709
vt 0.975319 0.997197
vt 0.967687 0.997197
vt 0.668436 0.227713
vt 0.668436 0.001310
vt 0.754618 0.228880
vt 0.679548 0.228880
vt 0.679548 0.001051
vt 0.754619 0.001051
vt 0.987736 0.595478
vt 0.995367 0.595478
vt 0.995368 0.791966
vt 0.987736 0.791966
vt 0.670699 0.228880
vt 0.670699 0.001051
vt 0.956672 0.837472
vt 0.957220 0.654232
vt 0.952999 0.654221
vt 0.952450 0.837462
vt 0.959421 0.652163
vt 0.958617 0.836981
vt 0.962870 0.836994
vt 0.963674 0.652177
vt 0.810547 0.594992
vt 0.810547 0.652862
vt 0.804131 0.652862
vt 0.804131 0.594992
vt 0.956676 0.594992
vt 0.956675 0.652863
vt 0.950259 0.652863
vt 0.950260 0.594992
vt 0.950259 0.659279
vt 0.810547 0.659279
vt 0.950260 0.588576
vt 0.810547 0.588576
vt 0.959421 0.999449
vt 0.963674 0.999463
vt 0.952999 0.998382
vt 0.957220 0.998392
vt 0.965537 0.791966
vt 0.965537 0.595478
vt 0.190707 0.575942
vt 0.124198 0.575942
vt 0.124198 0.526476
vt 0.190707 0.526476
vt 0.997517 0.800709
vt 0.997517 0.997197
vt 0.156577 0.989920
vt 0.151514 0.998016
vt 0.143392 0.989453
vt 0.151745 0.984825
vt 0.140439 0.978027
vt 0.149988 0.978027
vt 0.143393 0.966601
vt 0.151745 0.971229
vt 0.151514 0.958038
vt 0.156577 0.966134
vt 0.124280 0.966134
vt 0.129344 0.958038
vt 0.137465 0.966601
vt 0.129112 0.971229
vt 0.140418 0.978027
vt 0.130869 0.978027
vt 0.137465 0.989453
vt 0.129112 0.984825
vt 0.129344 0.998016
vt 0.124280 0.989920
vt 0.161429 0.984825
vt 0.169782 0.989453
vt 0.161661 0.998016
vt 0.156598 0.989920
vt 0.156597 0.966134
vt 0.161661 0.958038
vt 0.169782 0.966601
vt 0.161429 0.971229
vt 0.172736 0.978027
vt 0.163187 0.978027
vt 0.182305 0.978027
vt 0.172756 0.978027
vt 0.175710 0.966601
vt 0.184063 0.971229
vt 0.183831 0.958038
vt 0.188895 0.966134
vt 0.188895 0.989920
vt 0.183831 0.998016
vt 0.175710 0.989453
vt 0.184063 0.984825
vt 0.608584 0.660890
vt 0.629342 0.664811
vt 0.629342 0.694138
vt 0.608584 0.698059
vt 0.626107 0.715014
vt 0.642656 0.694138
vt 0.645891 0.715014
vt 0.663414 0.698059
vt 0.642656 0.664811
vt 0.663414 0.660890
vt 0.645891 0.643935
vt 0.626107 0.643935
vt 0.581590 0.340170
vt 0.607173 0.345002
vt 0.607173 0.381144
vt 0.581590 0.385977
vt 0.603187 0.406873
vt 0.623584 0.381144
vt 0.627570 0.406873
vt 0.649167 0.385977
vt 0.623584 0.345002
vt 0.649167 0.340170
vt 0.627570 0.319273
vt 0.603187 0.319273
vt 0.754545 0.233380
vt 0.754545 0.255587
vt 0.753061 0.255586
vt 0.753061 0.233380
vt 0.753061 0.298311
vt 0.749475 0.253958
vt 0.751573 0.234742
vt 0.733299 0.298311
vt 0.731811 0.233380
vt 0.733299 0.233380
vt 0.729680 0.252936
vt 0.690473 0.296862
vt 0.710868 0.296862
vt 0.710868 0.319069
vt 0.690473 0.319069
vt 0.723807 0.320517
vt 0.719571 0.320517
vt 0.719570 0.298311
vt 0.723807 0.298311
vt 0.713537 0.298311
vt 0.719221 0.255129
vt 0.723418 0.255806
vt 0.733299 0.298311
vt 0.739049 0.254447
vt 0.743180 0.255806
vt 0.717123 0.253958
vt 0.725986 0.320517
vt 0.725986 0.298311
vt 0.747377 0.255129
vt 0.736918 0.252936
vt 0.715551 0.320517
vt 0.715551 0.298311
vt 0.727549 0.254447
vt 0.667408 0.298222
vt 0.667408 0.233380
vt 0.690473 0.233380
vt 0.690473 0.298222
vt 0.713537 0.233380
vt 0.713537 0.296862
vt 0.690473 0.296862
vt 0.690473 0.233380
vt 0.753061 0.234742
vt 0.753061 0.277793
vt 0.753061 0.255587
vt 0.754545 0.255587
vt 0.754545 0.277793
vt 0.715025 0.234742
vt 0.713537 0.234742
vt 0.734787 0.233380
vt 0.733299 0.233380
vt 0.713537 0.320517
vt 0.713537 0.298311
vt 0.667408 0.298222
vt 0.687449 0.298222
vt 0.687449 0.320428
vt 0.667408 0.320428
vt 0.926654 0.423090
vt 0.900385 0.412513
vt 0.899827 0.411497
vt 0.906247 0.390060
vt 0.906881 0.389744
vt 0.934980 0.395285
vt 0.850944 0.375313
vt 0.855905 0.406018
vt 0.766014 0.400111
vt 0.766025 0.380306
vt 0.749482 0.377174
vt 0.765596 0.379838
vt 0.765329 0.400797
vt 0.749469 0.402975
vt 0.559472 0.514403
vt 0.605756 0.514530
vt 0.605478 0.616169
vt 0.559196 0.616035
vt 0.559629 0.456999
vt 0.605917 0.457119
vt 0.555993 0.311822
vt 0.526684 0.315073
vt 0.526302 0.311667
vt 0.554298 0.310194
vt 0.562894 0.206519
vt 0.561172 0.207927
vt 0.664221 0.286028
vt 0.661347 0.312264
vt 0.565046 0.312265
vt 0.563999 0.279301
vt 0.526302 0.204218
vt 0.564184 0.276386
vt 0.664406 0.283114
vt 0.523178 0.311656
vt 0.523178 0.204207
vt 0.526754 0.201013
vt 0.562126 0.312326
vt 0.561079 0.279361
vt 0.661358 0.315184
vt 0.565057 0.315185
vt 0.667119 0.286386
vt 0.664245 0.312621
vt 0.520672 0.584974
vt 0.539109 0.584974
vt 0.539109 0.611616
vt 0.520672 0.611616
vt 0.520672 0.519537
vt 0.539109 0.519537
vt 0.539109 0.538935
vt 0.520672 0.538935
vt 0.539109 0.565577
vt 0.520672 0.565577
vt 0.574501 0.365897
vt 0.564678 0.366216
vt 0.564422 0.329099
vt 0.577475 0.330133
vt 0.564423 0.315871
vt 0.536120 0.329099
vt 0.536120 0.315871
vt 0.525970 0.365808
vt 0.535774 0.366167
vt 0.536017 0.397027
vt 0.521487 0.394738
vt 0.535953 0.412016
vt 0.564269 0.397081
vt 0.564263 0.412029
vt 0.523114 0.330155
vt 0.578820 0.394872
vt 0.012884 0.464826
vt 0.018049 0.439786
vt 0.033226 0.419242
vt 0.056219 0.406670
vt 0.082447 0.407644
vt 0.105674 0.418483
vt 0.122820 0.438121
vt 0.128460 0.463569
vt 0.123415 0.488735
vt 0.108440 0.510630
vt 0.084250 0.520741
vt 0.058624 0.520805
vt 0.034755 0.510343
vt 0.018832 0.489717
vt 0.504148 0.648775
vt 0.542464 0.657520
vt 0.577873 0.674572
vt 0.608600 0.699076
vt 0.633104 0.729803
vt 0.650156 0.765212
vt 0.658901 0.803527
vt 0.658901 0.842829
vt 0.650156 0.881144
vt 0.633104 0.916553
vt 0.608600 0.947280
vt 0.577874 0.971784
vt 0.542465 0.988836
vt 0.504149 0.997582
vt 0.464848 0.997582
vt 0.426532 0.988836
vt 0.391123 0.971784
vt 0.360396 0.947280
vt 0.335892 0.916553
vt 0.318840 0.881144
vt 0.310094 0.842828
vt 0.310094 0.803527
vt 0.318840 0.765211
vt 0.335892 0.729802
vt 0.360395 0.699076
vt 0.391122 0.674572
vt 0.426531 0.657520
vt 0.464847 0.648775
vt 0.109903 0.996561
vt 0.023562 0.996561
vt 0.023562 0.973214
vt 0.122999 0.973214
vt 0.122999 0.559715
vt 0.023562 0.559715
vt 0.023643 0.533614
vt 0.109903 0.533614
vt 0.023562 0.955401
vt 0.122999 0.955401
vt 0.122999 0.577528
vt 0.023562 0.577528
vt 0.005749 0.932053
vt 0.005749 0.955401
vt 0.140812 0.955401
vt 0.140812 0.577528
vt 0.153909 0.603631
vt 0.153908 0.932053
vt 0.005749 0.577528
vt 0.506329 0.004425
vt 0.506331 0.385616
vt 0.430345 0.385617
vt 0.430344 0.004425
vt 0.521396 0.004425
vt 0.521398 0.385616
vt 0.004573 0.004425
vt 0.019640 0.004425
vt 0.019639 0.385617
vt 0.004572 0.385617
vt 0.190908 0.577182
vt 0.221312 0.728097
vt 0.190912 0.956414
vt 0.173031 0.577182
vt 0.173035 0.956415
vt 0.308584 0.956414
vt 0.290706 0.956414
vt 0.290698 0.577173
vt 0.308576 0.577173
vt 0.122043 0.385617
vt 0.106976 0.385617
vt 0.106977 0.004426
vt 0.122045 0.004426
vt 0.094229 0.004426
vt 0.094223 0.385617
vt 0.086058 0.385617
vt 0.086066 0.004426
vt 0.415279 0.385617
vt 0.415277 0.004426
vt 0.409579 0.384746
vt 0.409578 0.005296
vt 0.127744 0.005296
vt 0.127745 0.384747
vt 0.097064 0.385617
vt 0.097064 0.004426
vt 0.029553 0.004425
vt 0.029552 0.385617
vt 0.032394 0.004425
vt 0.032387 0.385617
vt 0.043393 0.004426
vt 0.043392 0.385617
vt 0.040551 0.385617
vt 0.040558 0.004426
vt 0.083225 0.004426
vt 0.083223 0.385617
vt 0.405646 0.498910
vt 0.315458 0.498910
vt 0.315458 0.486102
vt 0.405646 0.486102
vt 0.315458 0.525768
vt 0.302650 0.525768
vt 0.302650 0.498910
vt 0.405646 0.525768
vt 0.418454 0.498910
vt 0.418454 0.525768
vt 0.509247 0.450996
vt 0.509247 0.482007
vt 0.481248 0.482007
vt 0.481248 0.450996
vt 0.428237 0.482007
vt 0.428237 0.450996
vt 0.400237 0.482007
vt 0.400237 0.450996
vt 0.405646 0.538576
vt 0.315458 0.538576
vt 0.428237 0.422996
vt 0.481248 0.422996
vt 0.481248 0.510006
vt 0.428237 0.510006
vt 0.415690 0.637216
vt 0.432346 0.637842
vt 0.432350 0.641031
vt 0.415595 0.639728
vt 0.464699 0.599684
vt 0.479859 0.600449
vt 0.479698 0.602752
vt 0.464647 0.602061
vt 0.349125 0.704603
vt 0.346705 0.690466
vt 0.348967 0.690169
vt 0.351304 0.704241
vt 0.259685 0.540359
vt 0.245824 0.532356
vt 0.237821 0.518495
vt 0.237821 0.502489
vt 0.245824 0.488628
vt 0.259685 0.480625
vt 0.275691 0.480625
vt 0.289552 0.488628
vt 0.297555 0.502489
vt 0.297555 0.518495
vt 0.289552 0.532356
vt 0.275691 0.540359
vt 0.159891 0.932983
vt 0.159887 0.603379
vt 0.260305 0.629061
vt 0.260305 0.728097
vt 0.252934 0.719988
vt 0.228718 0.719988
vt 0.228718 0.658482
vt 0.252934 0.658482
vt 0.221311 0.629062
vt 0.264140 0.997723
vt 0.290707 0.974291
vt 0.285233 0.997723
vt 0.254416 0.650800
vt 0.227236 0.650800
vt 0.190906 0.559305
vt 0.290697 0.559297
vt 0.190912 0.974291
vt 0.204047 0.533111
vt 0.290494 0.546200
vt 0.204055 0.997723
vt 0.227236 0.727671
vt 0.254416 0.727671
vt 0.221858 0.654719
vt 0.221858 0.723751
vt 0.259794 0.723751
vt 0.259794 0.654719
vt 0.708495 0.411987
vt 0.708495 0.446424
vt 0.625358 0.446424
vt 0.625358 0.411987
vt 0.664418 0.652862
vt 0.664418 0.594991
vt 0.668085 0.456490
vt 0.994051 0.456490
vt 0.876351 0.466052
vt 0.835712 0.466052
vt 0.835713 0.470822
vt 0.695216 0.470823
vt 0.876351 0.470822
vt 0.650517 0.636162
vt 0.650517 0.516054
vt 0.654250 0.518760
vt 0.654279 0.635375
vt 0.659053 0.517316
vt 0.654886 0.519113
vt 0.668085 0.449648
vt 0.994051 0.449648
vt 0.695216 0.525403
vt 0.994051 0.539336
vt 0.668085 0.539337
vt 0.994051 0.546178
vt 0.668086 0.546178
vt 0.692494 0.525403
vt 0.692494 0.470823
vt 0.661243 0.539337
vt 0.661243 0.456490
vt 1.000893 0.456490
vt 1.000894 0.539336
vt 0.629035 0.612595
vt 0.628889 0.519511
vt 0.633573 0.521034
vt 0.634275 0.613565
vt 0.654589 0.634675
vt 0.638178 0.518426
vt 0.638178 0.618661
vt 0.624198 0.615977
vt 0.625258 0.517318
vt 0.658565 0.635843
vt 0.449013 0.599639
vt 0.432357 0.600347
vt 0.432277 0.594852
vt 0.448904 0.594712
vt 0.464802 0.595002
vt 0.480161 0.595912
vt 0.494587 0.601870
vt 0.495203 0.597497
vt 0.508262 0.604226
vt 0.510515 0.599947
vt 0.370133 0.601851
vt 0.356352 0.604210
vt 0.354098 0.599933
vt 0.369399 0.597485
vt 0.384866 0.600429
vt 0.384433 0.595899
vt 0.400021 0.599670
vt 0.399783 0.594988
vt 0.415703 0.599633
vt 0.415669 0.594696
vt 0.344437 0.609547
vt 0.345163 0.626633
vt 0.339526 0.626715
vt 0.339382 0.609659
vt 0.344482 0.593456
vt 0.339680 0.593350
vt 0.345267 0.577904
vt 0.340613 0.577593
vt 0.346725 0.562795
vt 0.342239 0.562163
vt 0.349142 0.548767
vt 0.344753 0.546456
vt 0.344738 0.706915
vt 0.342226 0.691218
vt 0.345247 0.675352
vt 0.340600 0.675796
vt 0.344469 0.659805
vt 0.339665 0.660049
vt 0.344430 0.643718
vt 0.339366 0.643753
vt 0.449030 0.637173
vt 0.432337 0.632376
vt 0.448931 0.632245
vt 0.464715 0.637226
vt 0.464821 0.632545
vt 0.479870 0.637998
vt 0.480174 0.633462
vt 0.494592 0.639425
vt 0.495209 0.635054
vt 0.508260 0.641786
vt 0.510514 0.637510
vt 0.370137 0.639411
vt 0.356348 0.641768
vt 0.354094 0.637489
vt 0.369404 0.635042
vt 0.384878 0.637992
vt 0.384446 0.633460
vt 0.400038 0.637236
vt 0.399806 0.632554
vt 0.415719 0.632276
vt 0.623877 0.998900
vt 0.608842 0.987977
vt 0.603100 0.970303
vt 0.608842 0.952630
vt 0.623877 0.941707
vt 0.642460 0.941707
vt 0.657494 0.952630
vt 0.663237 0.970303
vt 0.657494 0.987977
vt 0.642460 0.998900
vt 0.488356 0.571874
vt 0.470682 0.566132
vt 0.459759 0.551097
vt 0.459759 0.532514
vt 0.470682 0.517480
vt 0.488356 0.511737
vt 0.506030 0.517480
vt 0.516953 0.532514
vt 0.516953 0.551097
vt 0.506030 0.566132
vt 0.337696 0.999280
vt 0.320781 0.993784
vt 0.310326 0.979395
vt 0.310326 0.961609
vt 0.320781 0.947220
vt 0.337696 0.941724
vt 0.354612 0.947220
vt 0.365066 0.961609
vt 0.365066 0.979395
vt 0.354612 0.993784
vt 0.347610 0.675187
vt 0.494298 0.604066
vt 0.346907 0.659752
vt 0.507910 0.606334
vt 0.347010 0.643820
vt 0.370422 0.604055
vt 0.356705 0.606334
vt 0.348430 0.626632
vt 0.385027 0.602733
vt 0.449125 0.639690
vt 0.400073 0.602047
vt 0.464661 0.639604
vt 0.415603 0.602148
vt 0.479708 0.640300
vt 0.432358 0.603532
vt 0.494302 0.641620
vt 0.347017 0.609445
vt 0.507908 0.643893
vt 0.346922 0.593509
vt 0.370426 0.641617
vt 0.356701 0.643893
vt 0.347630 0.578068
vt 0.385039 0.640296
vt 0.348978 0.563091
vt 0.449112 0.602155
vt 0.400087 0.639612
vt 0.351304 0.549127
vt 0.650457 0.344405
vt 0.666372 0.341646
vt 0.666861 0.344486
vt 0.651354 0.347119
vt 0.651992 0.351963
vt 0.667748 0.349527
vt 0.668038 0.351163
vt 0.651969 0.353624
vt 0.652091 0.350296
vt 0.667448 0.347863
vt 0.651908 0.348707
vt 0.667145 0.346176
vt 0.683640 0.338542
vt 0.684168 0.341338
vt 0.685093 0.346139
vt 0.685413 0.347753
vt 0.684780 0.344546
vt 0.684470 0.342951
vt 0.701966 0.335012
vt 0.702499 0.337766
vt 0.703418 0.342481
vt 0.703732 0.344059
vt 0.703112 0.340924
vt 0.702806 0.339361
vt 0.720622 0.331475
vt 0.721096 0.334215
vt 0.721977 0.338883
vt 0.722268 0.340447
vt 0.721681 0.337342
vt 0.721386 0.335796
vt 0.736893 0.328762
vt 0.756772 0.325683
vt 0.757199 0.328531
vt 0.737440 0.331462
vt 0.738049 0.336104
vt 0.757724 0.333395
vt 0.757919 0.334988
vt 0.738293 0.337625
vt 0.737858 0.334562
vt 0.757555 0.331792
vt 0.737678 0.333039
vt 0.757391 0.330193
vt 0.796325 0.321347
vt 0.796465 0.324403
vt 0.796991 0.329440
vt 0.797096 0.331119
vt 0.796833 0.327821
vt 0.796633 0.326146
vt 0.822262 0.320181
vt 0.822396 0.323061
vt 0.822538 0.327954
vt 0.822604 0.329534
vt 0.822491 0.326364
vt 0.822452 0.324762
vt 0.840954 0.319638
vt 0.841046 0.322631
vt 0.840833 0.327657
vt 0.840862 0.329361
vt 0.840891 0.325978
vt 0.840992 0.324321
vt 0.857607 0.320417
vt 0.857452 0.323300
vt 0.857234 0.328187
vt 0.857168 0.329795
vt 0.857305 0.326584
vt 0.857377 0.324971
vt 0.872073 0.321311
vt 0.871661 0.324163
vt 0.871690 0.329034
vt 0.871458 0.330609
vt 0.871748 0.327433
vt 0.871680 0.325828
vt 0.895633 0.322813
vt 0.895347 0.325740
vt 0.894937 0.330799
vt 0.894800 0.332454
vt 0.895049 0.329091
vt 0.895173 0.327420
vt 0.913094 0.324392
vt 0.913165 0.327554
vt 0.911874 0.332608
vt 0.911841 0.334320
vt 0.912208 0.330949
vt 0.912744 0.329330
vt 0.933479 0.327257
vt 0.933177 0.330484
vt 0.931859 0.335674
vt 0.931663 0.337461
vt 0.932235 0.333972
vt 0.932750 0.332271
vt 0.957070 0.332458
vt 0.956398 0.335397
vt 0.955280 0.340454
vt 0.954915 0.342119
vt 0.955643 0.338802
vt 0.956011 0.337153
vt 0.980307 0.337984
vt 0.979544 0.340937
vt 0.978253 0.345969
vt 0.977819 0.347642
vt 0.978682 0.344292
vt 0.979114 0.342615
vt 1.001753 0.343797
vt 1.001475 0.347006
vt 0.999432 0.351983
vt 0.999000 0.353624
vt 1.000162 0.350390
vt 1.000947 0.348748
vt 0.989300 0.008038
vt 0.989302 0.309263
vt 0.766850 0.309265
vt 0.766849 0.008039
vt 0.994319 0.315055
vt 0.761836 0.315055
vt 0.763308 0.313430
vt 0.992906 0.313429
vt 0.994310 0.002253
vt 0.761835 0.002250
vt 0.761835 0.001129
vt 0.994310 0.001132
vt 0.998351 0.002519
vt 0.998351 0.315104
vt 0.994834 0.314493
vt 0.994834 0.002806
vt 0.994319 0.316176
vt 0.761836 0.316173
vt 0.993030 0.003982
vt 0.993030 0.313318
vt 0.763179 0.313322
vt 0.763180 0.003985
vt 0.992903 0.003874
vt 0.763308 0.003875
vt 0.757808 0.315110
vt 0.757810 0.002523
vt 0.761328 0.002810
vt 0.761325 0.314498
vt 0.654521 0.410700
vt 0.656804 0.372823
vt 0.857211 0.406186
vt 0.852403 0.375527
vt 0.855272 0.445065
vt 0.855928 0.407231
vt 0.857372 0.407261
vt 0.856624 0.445065
vt 0.761773 0.417556
vt 0.765805 0.401681
vt 0.916805 0.362243
vt 0.906599 0.389112
vt 0.852411 0.374657
vt 0.857231 0.335060
vt 0.855758 0.334819
vt 0.850836 0.374394
vt 0.765798 0.378768
vt 0.761589 0.362033
vt 0.653289 0.410894
vt 0.655566 0.373113
vt 0.997955 0.412371
vt 0.965568 0.444495
vt 0.899702 0.412556
vt 0.899752 0.440228
vt 0.750854 0.446781
vt 0.753980 0.434394
vt 0.723319 0.430762
vt 0.721871 0.436498
vt 0.718039 0.426739
vt 0.725352 0.425275
vt 0.723093 0.420987
vt 0.760182 0.425082
vt 0.758510 0.412748
vt 0.750273 0.404981
vt 0.720978 0.414424
vt 0.552736 0.002162
vt 0.552734 0.198334
vt 0.548722 0.198334
vt 0.548723 0.002162
vt 0.544709 0.198334
vt 0.544710 0.002162
vt 0.540697 0.198334
vt 0.540698 0.002162
vt 0.536684 0.198334
vt 0.536685 0.002162
vt 0.532672 0.198334
vt 0.532674 0.002162
vt 0.528659 0.198334
vt 0.528661 0.002162
vt 0.524647 0.198334
vt 0.524649 0.002161
vt 0.580822 0.002162
vt 0.580822 0.198334
vt 0.576809 0.198334
vt 0.576810 0.002162
vt 0.572797 0.198334
vt 0.572797 0.002162
vt 0.568784 0.198334
vt 0.568786 0.002162
vt 0.564772 0.198334
vt 0.564773 0.002162
vt 0.560759 0.198334
vt 0.560761 0.002162
vt 0.556747 0.198334
vt 0.556748 0.002162
vt 0.556942 0.630633
vt 0.559128 0.617092
vt 0.605535 0.617107
vt 0.607801 0.630632
vt 0.541743 0.514330
vt 0.558420 0.514400
vt 0.558160 0.615988
vt 0.544556 0.617789
vt 0.608320 0.442668
vt 0.605979 0.456182
vt 0.559567 0.455941
vt 0.557454 0.442387
vt 0.606117 0.616966
vt 0.606397 0.616131
vt 0.606561 0.456324
vt 0.606837 0.457162
vt 0.558472 0.616930
vt 0.558591 0.457040
vt 0.558908 0.456097
vt 0.619599 0.619933
vt 0.619992 0.618001
vt 0.606687 0.514533
vt 0.620119 0.453433
vt 0.648270 0.449567
vt 0.648514 0.451520
vt 0.620432 0.455374
vt 0.545011 0.455176
vt 0.516955 0.451162
vt 0.517243 0.448959
vt 0.545376 0.452990
vt 0.545002 0.619972
vt 0.517121 0.626166
vt 0.516663 0.623981
vt 0.623366 0.514555
vt 0.506322 0.514199
vt 0.658791 0.514624
vt 0.647427 0.625914
vt 0.647818 0.623981
vt 0.611928 0.414499
vt 0.554131 0.414183
vt 0.553463 0.658815
vt 0.611253 0.658816
vt 0.009726 0.436090
vt 0.003787 0.464952
vt 0.010619 0.493363
vt 0.026976 0.515971
vt 0.031191 0.519230
vt 0.057017 0.529588
vt 0.085807 0.529588
vt 0.111877 0.519600
vt 0.117053 0.516341
vt 0.131920 0.492001
vt 0.137405 0.463680
vt 0.132227 0.436339
vt 0.129833 0.431594
vt 0.110865 0.411213
vt 0.084773 0.398968
vt 0.056872 0.397070
vt 0.051306 0.398353
vt 0.027134 0.412632
vt 0.221109 0.516580
vt 0.195764 0.504077
vt 0.195592 0.418099
vt 0.220912 0.418048
vt 0.141446 0.417980
vt 0.151948 0.418041
vt 0.152057 0.516761
vt 0.141355 0.517730
vt 0.208711 0.516605
vt 0.202247 0.514936
vt 0.197508 0.510350
vt 0.218378 0.532675
vt 0.218377 0.519630
vt 0.230900 0.519042
vt 0.232879 0.531321
vt 0.199345 0.392883
vt 0.184834 0.418308
vt 0.184606 0.391720
vt 0.177316 0.418013
vt 0.177411 0.504156
vt 0.175684 0.510447
vt 0.170950 0.515056
vt 0.164479 0.516748
vt 0.177297 0.510841
vt 0.185348 0.511214
vt 0.185203 0.517727
vt 0.176747 0.517571
vt 0.185156 0.524552
vt 0.175921 0.524331
vt 0.207606 0.531813
vt 0.209141 0.519409
vt 0.979065 0.566477
vt 0.978755 0.584500
vt 0.969275 0.584500
vt 0.969522 0.566477
vt 0.960072 0.584500
vt 0.960257 0.566477
vt 0.951060 0.584500
vt 0.951185 0.566477
vt 0.942172 0.584500
vt 0.942238 0.566477
vt 0.933347 0.584500
vt 0.933353 0.566477
vt 0.924527 0.584500
vt 0.924475 0.566477
vt 0.915657 0.584500
vt 0.915546 0.566477
vt 0.906678 0.584500
vt 0.906506 0.566477
vt 0.897523 0.584500
vt 0.897290 0.566477
vt 0.888110 0.584500
vt 0.887815 0.566477
vt 0.878343 0.584500
vt 0.877984 0.566477
vt 0.868093 0.584500
vt 0.867671 0.566477
vt 0.857197 0.584500
vt 0.856717 0.566477
vt 0.845446 0.584500
vt 0.844918 0.566477
vt 0.832579 0.584500
vt 0.832027 0.566477
vt 0.818315 0.584500
vt 0.817780 0.566477
vt 0.802434 0.584500
vt 0.801987 0.566477
vt 0.784967 0.584500
vt 0.784694 0.566477
vt 0.766416 0.584500
vt 0.766388 0.566477
vt 0.747747 0.584500
vt 0.747972 0.566477
vt 0.729985 0.584500
vt 0.730402 0.566477
vt 0.713744 0.584500
vt 0.714267 0.566477
vt 0.699144 0.584500
vt 0.699697 0.566477
vt 0.685999 0.584500
vt 0.686534 0.566477
vt 0.674029 0.584500
vt 0.674521 0.566477
vt 0.662968 0.584500
vt 0.663403 0.566477
vt 0.999424 0.566477
vt 0.998990 0.584500
vt 0.988616 0.584500
vt 0.988988 0.566477
vt 0.677289 0.979266
vt 0.677291 0.682747
vt 0.679664 0.684402
vt 0.679662 0.977613
vt 0.916967 0.988743
vt 0.688039 0.988790
vt 0.689782 0.986649
vt 0.915234 0.986620
vt 0.684876 0.985715
vt 0.680714 0.982725
vt 0.680718 0.679283
vt 0.684887 0.676284
vt 0.689798 0.675349
vt 0.915508 0.674871
vt 0.920319 0.675896
vt 0.924755 0.678890
vt 0.925650 0.684424
vt 0.925330 0.977022
vt 0.924456 0.982559
vt 0.920042 0.985578
vt 0.688041 0.673192
vt 0.917227 0.672755
vt 0.928157 0.682690
vt 0.927843 0.978755
vt 0.677778 0.677549
vt 0.678729 0.675885
vt 0.683490 0.673987
vt 0.927802 0.677337
vt 0.938411 0.677194
vt 0.938484 0.682579
vt 0.926654 0.675408
vt 0.921783 0.673551
vt 0.923425 0.663367
vt 0.928946 0.664530
vt 0.917783 0.662623
vt 0.921520 0.987919
vt 0.923223 0.998111
vt 0.917573 0.998890
vt 0.926384 0.986031
vt 0.928745 0.996913
vt 0.927493 0.984105
vt 0.938169 0.978883
vt 0.938090 0.984261
vt 0.677778 0.984461
vt 0.667179 0.984809
vt 0.667002 0.979430
vt 0.678732 0.986122
vt 0.683490 0.988009
vt 0.681829 0.998115
vt 0.676354 0.996909
vt 0.687456 0.998894
vt 0.681805 0.663871
vt 0.687436 0.663079
vt 0.676327 0.665090
vt 0.667001 0.682584
vt 0.667177 0.677203
vt 0.432283 0.568865
vt 0.449637 0.569719
vt 0.466266 0.570930
vt 0.482358 0.572479
vt 0.498124 0.574360
vt 0.513783 0.576547
vt 0.350830 0.576549
vt 0.366479 0.574361
vt 0.382235 0.572480
vt 0.398318 0.570931
vt 0.414937 0.569719
vt 0.492715 0.393220
vt 0.454167 0.393220
vt 0.454162 0.399618
vt 0.492709 0.399618
vt 0.454164 0.412082
vt 0.492711 0.412082
vt 0.454172 0.418149
vt 0.492719 0.418149
vt 0.616651 0.269521
vt 0.616651 0.234043
vt 0.611013 0.234032
vt 0.611013 0.269511
vt 0.599528 0.234030
vt 0.599528 0.269508
vt 0.593682 0.234039
vt 0.593682 0.269517
vt 0.312867 0.626710
vt 0.313743 0.608907
vt 0.314986 0.591848
vt 0.316575 0.575340
vt 0.318504 0.559167
vt 0.320748 0.543103
vt 0.320749 0.710267
vt 0.318506 0.694214
vt 0.316576 0.678051
vt 0.314986 0.661552
vt 0.313743 0.644504
vt 0.662539 0.269514
vt 0.662539 0.234036
vt 0.656651 0.234030
vt 0.656651 0.269509
vt 0.645179 0.234032
vt 0.645179 0.269511
vt 0.639595 0.234040
vt 0.639595 0.269518
vt 0.454162 0.393193
vt 0.415614 0.393193
vt 0.415602 0.399318
vt 0.454150 0.399318
vt 0.415600 0.411796
vt 0.454148 0.411796
vt 0.415610 0.418149
vt 0.454157 0.418149
vt 0.432326 0.606406
vt 0.449673 0.607266
vt 0.466295 0.608484
vt 0.482381 0.610039
vt 0.498140 0.611927
vt 0.513792 0.614120
vt 0.350830 0.614090
vt 0.366488 0.611906
vt 0.382253 0.610028
vt 0.398346 0.608482
vt 0.414975 0.607272
vt 0.616651 0.234034
vt 0.616651 0.269513
vt 0.622539 0.269518
vt 0.622539 0.234040
vt 0.634011 0.269516
vt 0.634011 0.234037
vt 0.639595 0.269509
vt 0.639595 0.234030
vt 0.593682 0.269522
vt 0.593682 0.234043
vt 0.588044 0.234032
vt 0.588044 0.269511
vt 0.576560 0.234030
vt 0.576560 0.269509
vt 0.570713 0.234039
vt 0.570713 0.269517
vt 0.185278 0.504790
vt 0.196657 0.517306
vt 0.197679 0.523964
vt 0.195963 0.510681
vt 0.174050 0.392628
vt 0.235599 0.417946
vt 0.235599 0.517506
vt 0.324114 0.386488
vt 0.323983 0.444976
vt 0.312091 0.445313
vt 0.308934 0.387893
vt 0.300326 0.446247
vt 0.294200 0.389864
vt 0.288651 0.447925
vt 0.279825 0.392327
vt 0.276960 0.450505
vt 0.265719 0.395222
vt 0.265044 0.454239
vt 0.251795 0.398477
vt 0.252524 0.459612
vt 0.237964 0.401971
vt 0.410144 0.402101
vt 0.395570 0.459653
vt 0.383070 0.454293
vt 0.396335 0.398604
vt 0.371163 0.450575
vt 0.382431 0.395344
vt 0.359469 0.448022
vt 0.368347 0.392440
vt 0.347772 0.446396
vt 0.353992 0.389960
vt 0.344660 0.468538
vt 0.334355 0.468461
vt 0.335949 0.445566
vt 0.339278 0.387956
vt 0.312660 0.468095
vt 0.302333 0.468382
vt 0.354539 0.469513
vt 0.363925 0.471433
vt 0.372612 0.474410
vt 0.380144 0.478660
vt 0.274919 0.474544
vt 0.267998 0.478660
vt 0.283287 0.471543
vt 0.292514 0.469517
vt 0.323548 0.468630
vt 0.989109 0.548454
vt 0.979165 0.548454
vt 0.999565 0.548454
vt 0.674679 0.548454
vt 0.663543 0.548454
vt 0.686707 0.548454
vt 0.699874 0.548454
vt 0.714433 0.548454
vt 0.730534 0.548454
vt 0.748043 0.548454
vt 0.766379 0.548454
vt 0.784608 0.548454
vt 0.801844 0.548454
vt 0.817610 0.548454
vt 0.831849 0.548454
vt 0.844748 0.548454
vt 0.856562 0.548454
vt 0.867535 0.548454
vt 0.877867 0.548454
vt 0.887719 0.548454
vt 0.897214 0.548454
vt 0.906451 0.548454
vt 0.915509 0.548454
vt 0.924457 0.548454
vt 0.933355 0.548454
vt 0.942259 0.548454
vt 0.951226 0.548454
vt 0.960317 0.548454
vt 0.969602 0.548454
vt 0.000000 0.000000
vt 0.000000 0.000000
vt 0.000000 0.000000
vt 0.000000 0.000000
vt 0.000000 0.000000
vn -0.9397 -0.0000 -0.3420
vn 0.3420 0.0000 -0.9397
vn -0.3420 -0.0000 0.9397
vn 0.9397 0.0000 0.3420
vn -0.0000 1.0000 0.0000
vn -0.9660 -0.2585 0.0000
vn 0.0000 -0.2585 -0.9660
vn 0.9660 -0.2585 0.0000
vn 0.0000 -0.2585 0.9660
vn 0.0000 0.1559 -0.9878
vn 0.9822 0.1878 0.0000
vn 0.0000 0.1559 0.9878
vn -0.9822 0.1878 0.0000
vn -0.9878 0.1558 0.0000
vn 0.0000 0.1878 -0.9822
vn 0.9878 0.1558 0.0000
vn 0.0000 0.1878 0.9822
vn -0.0000 0.0000 -1.0000
vn 0.0000 0.0000 1.0000
vn 0.9945 0.1043 0.0000
vn -0.1653 0.9862 0.0000
vn -0.5015 0.8652 0.0000
vn 0.3234 0.9463 0.0000
vn -1.0000 0.0000 0.0000
vn 1.0000 0.0000 0.0000
vn 0.5929 0.8053 0.0000
vn -0.9945 0.1046 0.0000
vn 0.7108 0.0000 -0.7034
vn -0.1687 0.9843 0.0510
vn -0.9428 -0.0000 0.3333
vn 0.0012 1.0000 0.0012
vn 0.7124 0.1389 -0.6879
vn 0.0546 0.9936 0.0987
vn 0.6914 0.1085 0.7143
vn -0.7014 0.1085 -0.7044
vn 0.1455 -0.9893 0.0095
vn -0.0069 -0.9893 -0.1456
vn -0.7086 0.0007 0.7057
vn -0.7186 0.0007 0.6954
vn -0.0977 0.9936 -0.0564
vn 0.7009 0.1389 -0.6996
vn 0.0000 0.9858 -0.1682
vn 0.0000 0.9956 0.0934
vn 0.0000 -1.0000 0.0000
vn -0.3090 -0.9511 0.0000
vn -0.3090 0.9511 0.0000
vn 0.4899 0.0000 -0.8718
vn 0.4899 0.0000 0.8718
vn 0.2160 -0.9764 0.0000
vn 0.2160 0.9764 0.0000
vn -0.8090 0.5878 0.0000
vn 0.8090 0.5878 0.0000
vn 0.3090 0.9511 0.0000
vn -0.8090 -0.5878 0.0000
vn 0.3090 -0.9511 0.0000
vn 0.8090 -0.5878 0.0000
vn -0.6026 -0.7910 -0.1058
vn -0.4701 -0.8718 -0.1376
vn 0.0942 -0.2932 0.9514
vn 0.0435 -0.2985 0.9534
vn -0.2991 -0.0529 -0.9528
vn -0.2667 -0.0453 -0.9627
vn 0.3301 0.6969 -0.6367
vn 0.2288 0.7656 -0.6013
vn 0.6080 0.6994 0.3756
vn 0.4872 0.7697 0.4127
vn -0.2467 -0.9509 -0.1869
vn 0.1816 -0.2888 0.9400
vn -0.2547 -0.0275 -0.9666
vn 0.0387 0.8452 -0.5331
vn 0.2928 0.8382 0.4601
vn -0.1315 -0.9683 -0.2122
vn 0.2871 -0.2823 0.9154
vn -0.3162 -0.0056 -0.9487
vn -0.1041 0.8727 -0.4771
vn 0.2146 0.8481 0.4845
vn -0.0950 -0.9730 -0.2102
vn 0.4339 -0.2683 0.8601
vn -0.4465 0.0073 -0.8948
vn -0.2156 0.8830 -0.4168
vn 0.2353 0.8434 0.4830
vn -0.1183 -0.9753 -0.1868
vn -0.1555 -0.9803 -0.1218
vn 0.7834 -0.2425 0.5723
vn 0.6058 -0.2556 0.7535
vn -0.6186 0.0108 -0.7856
vn -0.8058 0.0112 -0.5921
vn -0.3064 0.8846 -0.3517
vn -0.3714 0.8904 -0.2630
vn 0.3172 0.8434 0.4337
vn 0.4303 0.8422 0.3249
vn -0.1750 -0.9832 -0.0513
vn 0.9282 -0.2466 0.2787
vn -0.9595 0.0048 -0.2818
vn -0.4273 0.8947 -0.1303
vn 0.5254 0.8372 0.1520
vn -0.2046 -0.9788 0.0034
vn 0.9672 -0.2510 -0.0390
vn -0.9993 0.0044 0.0363
vn -0.4634 0.8859 0.0213
vn 0.5387 0.8423 -0.0167
vn -0.1432 -0.9880 0.0588
vn 0.8846 -0.2378 -0.4012
vn -0.9154 0.0030 0.4025
vn -0.3913 0.9016 0.1844
vn 0.5094 0.8328 -0.2167
vn -0.1675 -0.9745 0.1492
vn 0.7109 -0.2487 -0.6578
vn -0.7340 0.0022 0.6791
vn -0.3491 0.8776 0.3285
vn 0.3849 0.8541 -0.3497
vn -0.1700 -0.9703 0.1722
vn 0.6291 -0.2588 -0.7330
vn -0.6527 -0.0059 0.7576
vn -0.3168 0.8661 0.3867
vn 0.3399 0.8619 -0.3763
vn -0.1783 -0.9820 0.0630
vn 0.4183 -0.2471 -0.8741
vn -0.4694 -0.0640 0.8806
vn -0.1303 0.8647 0.4851
vn 0.3441 0.8357 -0.4279
vn -0.2313 -0.9718 0.0463
vn 0.0248 -0.1387 -0.9900
vn -0.1205 -0.1142 0.9861
vn 0.1553 0.8067 0.5701
vn 0.2557 0.8617 -0.4382
vn -0.2267 -0.9737 0.0244
vn -0.3706 -0.0286 -0.9283
vn 0.2887 -0.2105 0.9340
vn 0.3891 0.7632 0.5158
vn 0.0763 0.9054 -0.4177
vn -0.1553 -0.9868 0.0460
vn -0.6402 0.0369 -0.7673
vn 0.5900 -0.2681 0.7616
vn 0.5307 0.7095 0.4636
vn -0.0627 0.9531 -0.2962
vn -0.0838 -0.9957 -0.0387
vn -0.7883 0.0688 -0.6115
vn 0.7557 -0.2793 0.5923
vn 0.5642 0.7118 0.4183
vn -0.1857 0.9681 -0.1684
vn -0.0500 -0.9936 -0.1012
vn -0.8532 0.0890 -0.5140
vn 0.8299 -0.2713 0.4876
vn 0.5656 0.7228 0.3971
vn -0.2565 0.9626 -0.0872
vn -0.2455 -0.0849 0.9657
vn -0.2455 0.0849 0.9657
vn -0.4345 0.0846 0.8967
vn -0.4345 -0.0846 0.8967
vn 0.4986 0.6190 0.6068
vn -0.7730 0.6170 0.1476
vn -0.5658 0.3292 0.7560
vn -0.0435 0.3276 0.9438
vn 0.4826 -0.6299 0.6085
vn -0.7618 -0.6279 0.1593
vn -0.0435 -0.3276 0.9438
vn -0.5658 -0.3292 0.7560
vn -0.3174 -0.6971 -0.6429
vn 0.3129 -0.6512 0.6914
vn 0.1888 -0.6727 0.7155
vn -0.3204 -0.6854 -0.6539
vn 0.4222 0.8853 0.1948
vn -0.0341 0.9176 -0.3960
vn -0.0956 0.9237 -0.3709
vn 0.3248 0.9082 0.2641
vn -0.4262 0.4324 -0.7946
vn -0.4112 0.4257 -0.8060
vn -0.3241 -0.6986 -0.6379
vn -0.4339 0.3915 -0.8114
vn 0.5792 -0.6587 0.4802
vn 0.7068 0.3680 0.6042
vn 0.5901 0.4204 0.6892
vn 0.5017 -0.6543 0.5659
vn 0.3364 0.4462 0.8293
vn 0.1953 0.4187 0.8869
vn -0.2384 0.8772 -0.4168
vn 0.1862 0.8595 0.4760
vn -0.3287 -0.7039 -0.6297
vn -0.4283 0.3857 -0.8172
vn -0.4017 0.6938 -0.5977
vn 0.0677 0.7296 0.6805
vn 0.4534 -0.8221 -0.3443
vn 0.4624 0.8296 -0.3130
vn 0.8383 0.5438 0.0376
vn 0.8323 -0.5535 0.0297
vn 0.0315 0.5361 0.8436
vn 0.0302 -0.5488 0.8354
vn -0.4984 0.5428 0.6759
vn -0.5141 -0.5399 0.6665
vn -0.3040 0.9010 -0.3096
vn -0.5477 0.6235 -0.5579
vn -0.6830 0.2225 -0.6957
vn -0.6830 -0.2225 -0.6957
vn -0.5477 -0.6235 -0.5579
vn -0.3040 -0.9010 -0.3096
vn 0.3040 -0.9010 0.3096
vn 0.5477 -0.6235 0.5579
vn 0.6830 -0.2225 0.6957
vn 0.6830 0.2225 0.6957
vn 0.5477 0.6235 0.5579
vn 0.3040 0.9010 0.3096
vn 0.3844 0.2064 -0.8998
vn 0.3666 0.4796 -0.7972
vn 0.8043 0.4795 -0.3510
vn 0.9083 0.2063 -0.3640
vn -0.6870 0.1683 -0.7069
vn -0.6083 0.4949 -0.6205
vn -0.3478 0.4793 -0.8058
vn -0.2321 0.2259 -0.9461
vn -0.3807 0.2063 0.9014
vn -0.3658 0.4795 0.7977
vn -0.8039 0.4796 0.3518
vn -0.9067 0.2064 0.3677
vn 0.5994 0.8004 0.0085
vn 0.7992 0.4793 0.3626
vn -0.0025 0.8004 0.5995
vn 0.3485 0.4793 0.8055
vn 0.0029 0.8007 -0.5991
vn -0.5991 0.8007 -0.0082
vn -0.7989 0.4793 -0.3633
vn 0.9417 0.2259 0.2495
vn 0.4706 0.7408 0.4793
vn 0.6092 0.4949 0.6196
vn -0.3710 0.1760 0.9118
vn 0.3791 0.1584 0.9117
vn 0.3782 0.1990 0.9041
vn -0.8969 0.1990 -0.3948
vn -0.9045 0.1584 -0.3958
vn -0.9174 0.1762 0.3568
vn -0.4706 0.7408 -0.4794
vn 0.3737 0.1762 -0.9107
vn 0.0084 0.1845 -0.9828
vn 0.6941 0.1683 0.7000
vn -0.6877 0.1082 -0.7178
vn 0.7050 0.1082 0.7009
vn 0.9185 0.1760 -0.3541
vn 0.9828 0.1845 0.0098
vn -0.5241 0.0000 0.8516
vn -0.8417 0.0000 0.5399
vn -0.9926 0.0000 0.1212
vn -0.9469 0.0000 -0.3215
vn -0.7137 0.0000 -0.7005
vn -0.3390 0.0000 -0.9408
vn 0.1027 0.0000 -0.9947
vn 0.5241 0.0000 -0.8516
vn 0.8417 0.0000 -0.5399
vn 0.9926 0.0000 -0.1212
vn 0.9469 0.0000 0.3215
vn 0.7137 0.0000 0.7005
vn 0.3390 0.0000 0.9408
vn -0.1027 0.0000 0.9947
vn 0.8439 -0.5209 -0.1287
vn 0.6040 0.7506 0.2680
vn 0.1638 0.5929 0.7884
vn 0.2421 -0.5184 0.8202
vn -0.3709 -0.7226 0.5833
vn -0.8472 -0.5095 0.1506
vn -0.2796 -0.5125 -0.8119
vn 0.3566 -0.7053 -0.6127
vn 0.9576 0.1718 -0.2312
vn 0.8881 0.4180 -0.1911
vn 0.7348 0.6778 0.0266
vn 0.5086 0.1288 -0.8513
vn -0.3717 0.7200 0.5860
vn -0.7838 0.5859 0.2059
vn -0.5206 0.7426 -0.4214
vn -0.3678 0.6715 -0.6433
vn -0.2441 0.4157 -0.8762
vn -0.2379 0.1723 -0.9559
vn 0.2624 0.8531 -0.4509
vn 0.4459 0.4847 -0.7525
vn -0.0000 0.3384 0.9410
vn -0.0000 0.4906 0.8714
vn -0.1939 0.4906 0.8495
vn -0.2094 0.3384 0.9174
vn -0.3781 0.4906 0.7851
vn -0.4083 0.3384 0.8478
vn -0.5433 0.4906 0.6813
vn -0.5867 0.3384 0.7357
vn -0.6813 0.4906 0.5433
vn -0.7357 0.3384 0.5867
vn -0.7851 0.4906 0.3781
vn -0.8478 0.3384 0.4083
vn -0.8495 0.4906 0.1939
vn -0.9174 0.3384 0.2094
vn -0.8714 0.4906 -0.0000
vn -0.9410 0.3384 -0.0000
vn -0.8495 0.4906 -0.1939
vn -0.9174 0.3384 -0.2094
vn -0.7851 0.4906 -0.3781
vn -0.8478 0.3384 -0.4083
vn -0.6813 0.4906 -0.5433
vn -0.7357 0.3384 -0.5867
vn -0.5433 0.4906 -0.6813
vn -0.5867 0.3384 -0.7357
vn -0.3781 0.4906 -0.7851
vn -0.4083 0.3384 -0.8478
vn -0.1939 0.4906 -0.8495
vn -0.2094 0.3384 -0.9174
vn 0.0000 0.4906 -0.8714
vn 0.0000 0.3384 -0.9410
vn 0.1939 0.4906 -0.8495
vn 0.2094 0.3384 -0.9174
vn 0.3781 0.4906 -0.7851
vn 0.4083 0.3384 -0.8478
vn 0.5433 0.4906 -0.6813
vn 0.5867 0.3384 -0.7357
vn 0.6813 0.4906 -0.5433
vn 0.7357 0.3384 -0.5867
vn 0.7851 0.4906 -0.3781
vn 0.8478 0.3384 -0.4083
vn 0.8495 0.4906 -0.1939
vn 0.9174 0.3384 -0.2094
vn 0.8714 0.4906 0.0000
vn 0.9410 0.3384 0.0000
vn 0.8495 0.4906 0.1939
vn 0.9174 0.3384 0.2094
vn 0.7851 0.4906 0.3781
vn 0.8478 0.3384 0.4083
vn 0.6813 0.4906 0.5433
vn 0.7357 0.3384 0.5867
vn 0.5433 0.4906 0.6813
vn 0.5867 0.3384 0.7357
vn 0.3781 0.4906 0.7851
vn 0.4083 0.3384 0.8478
vn 0.1939 0.4906 0.8495
vn 0.2094 0.3384 0.9174
vn 0.1268 0.4660 -0.8757
vn -0.1268 0.4660 -0.8757
vn -0.0261 0.9497 -0.3121
vn 0.0261 0.9497 -0.3121
vn 0.8790 0.4591 0.1285
vn 0.8790 0.4591 -0.1285
vn 0.3237 0.9458 -0.0260
vn 0.3237 0.9458 0.0260
vn 0.2603 0.9562 -0.1335
vn 0.1334 0.9577 -0.2550
vn -0.1334 0.9577 -0.2550
vn -0.2603 0.9562 -0.1335
vn -0.3237 0.9458 -0.0260
vn -0.3237 0.9458 0.0260
vn -0.2603 0.9562 0.1335
vn -0.1334 0.9577 0.2550
vn -0.0261 0.9497 0.3121
vn 0.0261 0.9497 0.3121
vn 0.1334 0.9577 0.2550
vn 0.2603 0.9562 0.1335
vn -0.8790 0.4591 -0.1285
vn -0.8790 0.4591 0.1285
vn -0.1268 0.4660 0.8756
vn 0.1268 0.4660 0.8757
vn -0.4453 0.4772 -0.7576
vn -0.7576 0.4753 -0.4474
vn -0.4453 0.4772 0.7576
vn -0.5000 0.0000 0.8660
vn -0.1305 0.0000 0.9914
vn -0.7576 0.4753 0.4474
vn -0.8660 0.0000 0.5000
vn -0.9914 0.0000 0.1305
vn 0.7576 0.4753 0.4474
vn 0.8660 0.0000 0.5000
vn 0.9914 0.0000 0.1305
vn 0.4453 0.4772 0.7576
vn 0.5000 0.0000 0.8660
vn 0.1305 0.0000 0.9914
vn 0.4453 0.4772 -0.7576
vn 0.5000 0.0000 -0.8660
vn 0.1305 0.0000 -0.9914
vn 0.7576 0.4753 -0.4474
vn 0.8660 0.0000 -0.5000
vn 0.9914 0.0000 -0.1305
vn -0.8660 0.0000 -0.5000
vn -0.9914 0.0000 -0.1305
vn -0.5000 0.0000 -0.8660
vn -0.1305 0.0000 -0.9914
vn -0.5878 0.8090 -0.0000
vn -0.9511 0.3090 -0.0000
vn -0.9511 -0.3090 -0.0000
vn -0.5878 -0.8090 0.0000
vn 0.5878 -0.8090 -0.0000
vn 0.9511 -0.3090 -0.0000
vn 0.9511 0.3090 0.0000
vn 0.5878 0.8090 0.0000
vn -0.8660 0.5000 -0.0000
vn -0.8660 -0.5000 -0.0000
vn 0.8660 -0.5000 0.0000
vn 0.8660 0.5000 0.0000
vn 0.0639 0.9898 -0.1275
vn 0.7168 0.5611 0.4139
vn 0.4139 0.5611 0.7168
vn -0.4139 0.5611 0.7168
vn -0.7168 0.5611 0.4139
vn 0.8277 0.5611 -0.0000
vn 0.7168 0.5611 -0.4139
vn 0.4139 0.5611 -0.7168
vn 0.0000 0.5611 -0.8277
vn -0.4139 0.5611 -0.7168
vn -0.7168 0.5611 -0.4139
vn -0.8277 0.5611 -0.0000
vn 0.0000 0.5611 0.8277
vn 0.2187 0.1845 0.9582
vn -0.0000 0.1845 0.9828
vn 0.4264 0.1845 0.8855
vn 0.6128 0.1845 0.7684
vn 0.7684 0.1845 0.6128
vn 0.8855 0.1845 0.4264
vn 0.9582 0.1845 0.2187
vn 0.9828 0.1845 0.0000
vn 0.9582 0.1845 -0.2187
vn 0.8855 0.1845 -0.4264
vn 0.7684 0.1845 -0.6128
vn 0.6128 0.1845 -0.7684
vn 0.4264 0.1845 -0.8855
vn 0.2187 0.1845 -0.9582
vn 0.0000 0.1845 -0.9828
vn -0.2187 0.1845 -0.9582
vn -0.4264 0.1845 -0.8855
vn -0.6128 0.1845 -0.7684
vn -0.7684 0.1845 -0.6128
vn -0.8855 0.1845 -0.4264
vn -0.9582 0.1845 -0.2187
vn -0.9828 0.1845 0.0000
vn -0.9582 0.1845 0.2187
vn -0.8855 0.1845 0.4264
vn -0.7684 0.1845 0.6128
vn -0.6128 0.1845 0.7684
vn -0.4264 0.1845 0.8855
vn -0.2187 0.1845 0.9582
vn -0.0001 -1.0000 0.0001
vn -0.9116 -0.1111 -0.3959
vn 0.3959 -0.1111 -0.9116
vn 0.9116 -0.1111 0.3959
vn -0.3959 -0.1111 0.9116
usemtl Material.008
s off
f 86/1/1 87/2/1 89/3/1 88/4/1
f 88/5/2 92/6/2 90/7/2 86/8/2
f 93/9/3 89/3/3 87/2/3 91/10/3
f 100/11/4 101/12/4 99/13/4 98/14/4
f 96/15/2 100/16/2 98/17/2 94/18/2
f 101/12/3 97/19/3 95/20/3 99/13/3
f 112/21/4 113/22/4 117/23/4 116/24/4
f 114/25/1 115/26/1 111/27/1 110/28/1
f 120/29/4 121/30/4 125/31/4 124/32/4
f 122/33/1 123/34/1 119/35/1 118/36/1
f 119/35/3 123/37/3 125/38/3 121/30/3
f 122/39/2 118/36/2 120/29/2 124/40/2
f 121/30/5 120/29/5 118/36/5 119/35/5
f 111/27/3 115/26/3 117/41/3 113/42/3
f 114/43/2 110/44/2 112/21/2 116/24/2
f 96/15/1 94/18/1 137/45/1 136/46/1
f 134/47/2 135/48/2 136/49/2 137/50/2
f 90/7/4 92/6/4 135/51/4 134/52/4
f 138/53/6 139/54/6 141/55/6 140/56/6
f 140/56/7 141/55/7 145/57/7 144/58/7
f 144/58/8 145/57/8 143/59/8 142/60/8
f 142/60/9 143/59/9 139/61/9 138/62/9
f 146/63/6 147/64/6 149/65/6 148/66/6
f 148/66/7 149/65/7 153/67/7 152/68/7
f 152/68/8 153/67/8 151/69/8 150/70/8
f 150/70/9 151/69/9 147/71/9 146/72/9
f 154/73/6 155/74/6 157/75/6 156/76/6
f 156/77/7 157/78/7 161/79/7 160/80/7
f 160/80/8 161/79/8 159/81/8 158/82/8
f 158/82/9 159/81/9 155/74/9 154/73/9
f 162/83/6 163/84/6 165/85/6 164/86/6
f 164/86/7 165/85/7 169/87/7 168/88/7
f 168/89/8 169/90/8 167/91/8 166/92/8
f 166/92/9 167/91/9 163/84/9 162/83/9
f 170/93/10 171/94/10 173/95/10 172/96/10
f 172/97/11 173/95/11 177/98/11 176/99/11
f 176/100/12 177/98/12 175/101/12 174/102/12
f 174/103/13 175/101/13 171/94/13 170/104/13
f 177/98/5 173/95/5 171/94/5 175/101/5
f 178/105/14 179/106/14 181/107/14 180/108/14
f 180/109/15 181/107/15 185/110/15 184/111/15
f 184/112/16 185/110/16 183/113/16 182/114/16
f 182/115/17 183/113/17 179/106/17 178/116/17
f 185/110/5 181/107/5 179/106/5 183/113/5
f 189/117/5 188/118/5 203/119/5 200/120/5
f 201/121/18 206/122/18 189/123/18
f 197/124/19 186/125/19 198/126/19
f 197/124/19 204/127/19 186/125/19
f 205/128/20 187/129/20 186/130/20 204/131/20
f 192/132/21 190/133/21 191/134/21 193/135/21
f 202/136/19 193/137/19 191/138/19
f 196/139/18 195/140/18 190/141/18 201/121/18
f 202/136/19 207/142/19 193/137/19
f 206/143/22 192/132/22 193/135/22 207/144/22
f 201/121/18 190/141/18 192/145/18
f 196/139/18 205/146/18 195/140/18
f 190/133/23 195/147/23 194/148/23 191/134/23
f 202/136/19 191/138/19 194/149/19 197/124/19
f 197/150/24 198/151/24 199/152/24 196/153/24
f 201/154/25 200/155/25 203/156/25 202/157/25
f 201/121/18 189/123/18 200/158/18
f 186/159/5 187/160/5 199/161/5 198/162/5
f 188/163/19 202/136/19 203/164/19
f 187/165/18 196/139/18 199/166/18
f 196/139/18 187/165/18 205/146/18
f 195/147/26 205/167/26 204/168/26 194/148/26
f 197/124/19 194/149/19 204/127/19
f 189/169/27 206/170/27 207/171/27 188/172/27
f 202/136/19 188/163/19 207/142/19
f 201/121/18 192/145/18 206/122/18
f 208/173/28 216/174/28 217/175/28 218/176/28 219/177/28 209/178/28
f 230/179/29 225/180/29 220/181/29 223/182/29
f 211/183/30 222/184/30 223/182/30 220/181/30 221/185/30 210/186/30
f 290/187/31 288/188/31 271/189/31 280/190/31
f 285/191/31 275/192/31 288/188/31 290/187/31
f 301/193/32 278/194/32 307/195/32 311/196/32
f 303/197/33 301/193/33 311/196/33 310/198/33
f 305/199/34 304/200/34 309/201/34 306/202/34
f 308/203/35 310/198/35 311/196/35 307/195/35
f 292/204/36 269/205/36 305/199/36 306/202/36
f 278/206/37 293/207/37 308/203/37 307/195/37
f 293/208/38 303/197/38 310/198/38 308/203/38
f 302/209/39 292/210/39 306/202/39 309/201/39
f 295/211/40 302/212/40 309/201/40 304/200/40
f 269/213/41 295/214/41 304/200/41 305/199/41
f 312/215/24 313/216/24 315/217/24 314/218/24
f 314/219/18 315/220/18 319/221/18 318/222/18
f 318/222/25 319/221/25 317/223/25 316/224/25
f 316/224/19 317/223/19 313/216/19 312/215/19
f 328/225/24 329/226/24 323/227/24 322/228/24
f 322/229/18 323/227/18 327/230/18 326/231/18
f 330/232/25 331/233/25 325/234/25 324/235/25
f 324/236/19 325/234/19 321/237/19 320/238/19
f 331/233/42 329/226/42 321/237/42 325/234/42
f 327/230/43 323/227/43 329/226/43 331/233/43
f 326/239/25 327/230/25 331/233/25 330/232/25
f 320/240/24 321/237/24 329/226/24 328/225/24
f 343/241/5 341/242/5 367/243/5 365/244/5 363/245/5 361/246/5 359/247/5 357/248/5 355/249/5 353/250/5 351/251/5 349/252/5 347/253/5 345/254/5
f 385/255/5 383/256/5 437/257/5 435/258/5 433/259/5 431/260/5 429/261/5 427/262/5 425/263/5 423/264/5 421/265/5 419/266/5 417/267/5 415/268/5 413/269/5 411/270/5 409/271/5 407/272/5 405/273/5 403/274/5 401/275/5 399/276/5 397/277/5 395/278/5 393/279/5 391/280/5 389/281/5 387/282/5
f 455/283/25 454/284/25 452/285/25 453/286/25
f 449/287/25 448/288/25 457/289/25 456/290/25
f 453/286/18 452/285/18 450/291/18 451/292/18
f 447/293/19 446/294/19 448/288/19 449/287/19
f 454/295/44 450/291/44 452/296/44
f 453/297/25 449/298/25 456/299/25 455/300/25
f 447/293/24 451/292/24 450/291/24 446/294/24
f 449/298/5 453/297/5 451/292/5 447/293/5
f 454/295/44 448/301/44 446/294/44 450/291/44
f 440/302/18 462/303/18 463/304/18 441/305/18
f 440/302/44 438/306/44 460/307/44 462/303/44
f 444/308/44 442/309/44 464/310/44 466/311/44
f 469/312/25 735/313/25 473/314/25
f 471/315/5 469/312/5 473/314/5 475/316/5
f 474/317/44 472/318/44 468/319/44 470/320/44
f 467/321/5 465/322/5 443/323/5 445/324/5
f 531/325/19 530/326/19 529/327/19 532/328/19
f 463/304/5 461/329/5 439/330/5 441/305/5
f 461/329/19 479/331/19 458/332/19 439/330/19
f 445/324/18 459/333/18 480/334/18 467/321/18
f 459/333/5 458/332/5 479/331/5 480/334/5
f 540/335/19 533/336/19 443/323/19 465/322/19
f 464/310/19 442/309/19 536/337/19 537/338/19
f 537/338/44 536/337/44 543/339/44 542/340/44
f 535/341/5 538/342/5 541/343/5 544/344/5
f 534/345/19 539/346/19 538/342/19 535/341/19
f 542/340/19 543/339/19 544/344/19 541/343/19
f 539/346/44 534/345/44 532/328/44 529/327/44
f 533/336/5 540/335/5 530/326/5 531/325/5
f 555/347/44 559/348/44 557/349/44 553/350/44
f 559/348/24 560/351/24 558/352/24 557/353/24
f 555/347/19 556/354/19 560/351/19 559/348/19
f 553/355/25 554/356/25 556/354/25 555/347/25
f 545/357/25 546/358/25 548/359/25 547/360/25
f 547/360/19 548/359/19 552/361/19 551/362/19
f 551/362/24 552/361/24 550/363/24 549/364/24
f 560/351/5 556/354/5 554/365/5 558/366/5
f 547/360/44 551/362/44 549/367/44 545/368/44
f 552/361/5 548/359/5 546/369/5 550/370/5
f 643/371/45 625/372/45 814/373/45 823/374/45
f 565/375/25 567/376/25 797/377/25 796/378/25
f 603/379/46 605/380/46 810/381/46 809/382/46
f 688/383/5 689/384/5 699/385/5 698/386/5 697/387/5 696/388/5 695/389/5 694/390/5 693/391/5 692/392/5 691/393/5 690/394/5
f 475/316/24 476/395/24 477/396/24 471/315/24
f 732/397/25 468/319/25 472/318/25 736/398/25
f 730/399/25 731/400/25 728/401/25 729/402/25
f 469/312/25 733/403/25 735/313/25
f 734/404/24 474/405/24 478/406/24
f 732/407/47 729/402/47 728/401/47 733/408/47
f 472/318/25 473/314/25 735/313/25 736/398/25
f 732/397/25 733/403/25 469/312/25 468/319/25
f 468/319/19 469/312/19 471/409/19 470/410/19
f 474/405/18 475/411/18 473/314/18 472/318/18
f 470/410/24 471/409/24 477/412/24 742/413/24
f 734/404/24 476/414/24 475/411/24 474/405/24
f 735/415/48 731/400/48 730/399/48 736/416/48
f 733/417/49 728/401/49 731/400/49 735/418/49
f 736/419/50 730/399/50 729/402/50 732/420/50
f 113/421/5 112/422/5 110/423/5 111/424/5
f 123/425/44 122/426/44 124/32/44 125/31/44
f 334/427/5 332/428/5 749/429/5 750/430/5
f 751/431/5 753/432/5 334/427/5 750/430/5
f 332/428/5 748/433/5 749/429/5
f 753/434/19 754/435/19 760/436/19 759/437/19
f 754/435/25 755/438/25 762/439/25 760/436/25
f 332/428/25 334/427/25 335/440/25 333/441/25
f 754/442/5 336/443/5 338/444/5
f 338/444/24 336/443/24 337/445/24 339/446/24
f 754/442/5 338/444/5 755/447/5
f 752/448/5 334/427/5 753/432/5
f 753/432/5 751/431/5 336/443/5 754/442/5
f 751/431/5 748/433/5 336/443/5
f 334/427/19 338/444/19 339/449/19 335/450/19
f 336/443/18 332/428/18 333/451/18 337/452/18
f 748/433/5 332/428/5 336/443/5
f 334/427/5 752/448/5 755/447/5 338/444/5
f 758/453/5 761/454/5 756/455/5 757/456/5
f 759/437/5 760/436/5 762/439/5 763/457/5
f 750/458/24 749/459/24 757/456/24 756/455/24
f 748/460/25 751/461/25 761/454/25 758/453/25
f 749/459/19 748/460/19 758/453/19 757/456/19
f 755/438/18 752/462/18 763/457/18 762/439/18
f 752/462/24 753/434/24 759/437/24 763/457/24
f 751/461/18 750/458/18 756/455/18 761/454/18
f 563/463/19 561/464/19 764/465/19 765/466/19
f 565/375/19 563/463/19 765/466/19 766/467/19
f 567/376/19 565/375/19 766/467/19 767/468/19
f 569/469/19 567/376/19 767/468/19 768/470/19
f 571/471/19 569/469/19 768/470/19 769/472/19
f 573/473/19 571/474/19 769/475/19 770/476/19
f 575/477/19 573/473/19 770/476/19 771/478/19
f 577/479/19 575/477/19 771/478/19 772/480/19
f 579/481/19 577/479/19 772/480/19 773/482/19
f 561/464/19 579/481/19 773/482/19 764/465/19
f 595/483/19 593/484/19 774/485/19 775/486/19
f 597/487/19 595/483/19 775/486/19 776/488/19
f 599/489/19 597/487/19 776/488/19 777/490/19
f 601/491/19 599/489/19 777/490/19 778/492/19
f 603/493/19 601/491/19 778/492/19 779/494/19
f 605/380/19 603/379/19 779/495/19 780/496/19
f 607/497/19 605/380/19 780/496/19 781/498/19
f 609/499/19 607/497/19 781/498/19 782/500/19
f 611/501/19 609/499/19 782/500/19 783/502/19
f 593/484/19 611/501/19 783/502/19 774/485/19
f 627/503/19 625/372/19 784/504/19 785/505/19
f 629/506/19 627/503/19 785/505/19 786/507/19
f 631/508/19 629/506/19 786/507/19 787/509/19
f 633/510/19 631/508/19 787/509/19 788/511/19
f 635/512/19 633/510/19 788/511/19 789/513/19
f 637/514/19 635/515/19 789/516/19 790/517/19
f 639/518/19 637/514/19 790/517/19 791/519/19
f 641/520/19 639/518/19 791/519/19 792/521/19
f 643/371/19 641/520/19 792/521/19 793/522/19
f 625/372/19 643/371/19 793/522/19 784/504/19
f 794/523/19 795/524/19 796/525/19 797/526/19 798/527/19 799/528/19 800/529/19 801/530/19 802/531/19 803/532/19
f 804/533/19 805/534/19 806/535/19 807/536/19 808/537/19 809/538/19 810/539/19 811/540/19 812/541/19 813/542/19
f 814/543/19 815/544/19 816/545/19 817/546/19 818/547/19 819/548/19 820/549/19 821/550/19 822/551/19 823/552/19
f 605/380/51 607/497/51 811/553/51 810/381/51
f 567/376/52 569/469/52 798/554/52 797/377/52
f 607/497/24 609/499/24 812/555/24 811/553/24
f 569/469/53 571/471/53 799/556/53 798/554/53
f 609/499/54 611/501/54 813/557/54 812/555/54
f 571/474/46 573/473/46 800/558/46 799/559/46
f 611/501/45 593/484/45 804/560/45 813/557/45
f 573/473/51 575/477/51 801/561/51 800/558/51
f 625/372/55 627/503/55 815/562/55 814/373/55
f 575/477/24 577/479/24 802/563/24 801/561/24
f 627/503/56 629/506/56 816/564/56 815/562/56
f 577/479/54 579/481/54 803/565/54 802/563/54
f 629/506/25 631/508/25 817/566/25 816/564/25
f 579/481/45 561/464/45 794/567/45 803/565/45
f 631/508/52 633/510/52 818/568/52 817/566/52
f 593/484/55 595/483/55 805/569/55 804/560/55
f 633/510/53 635/512/53 819/570/53 818/568/53
f 595/483/56 597/487/56 806/571/56 805/569/56
f 635/515/46 637/514/46 820/572/46 819/573/46
f 597/487/25 599/489/25 807/574/25 806/571/25
f 637/514/51 639/518/51 821/575/51 820/572/51
f 599/489/52 601/491/52 808/576/52 807/574/52
f 561/464/55 563/463/55 795/577/55 794/567/55
f 639/518/24 641/520/24 822/578/24 821/575/24
f 601/491/53 603/493/53 809/579/53 808/576/53
f 563/463/56 565/375/56 796/378/56 795/577/56
f 641/520/54 643/371/54 823/374/54 822/578/54
s 1
f 1/580/57 6/581/58 10/582/59 5/583/60
f 2/584/61 7/585/62 6/586/58 1/587/57
f 3/588/63 8/589/64 7/585/62 2/584/61
f 4/590/65 9/591/66 8/589/64 3/588/63
f 5/583/60 10/582/59 9/591/66 4/590/65
f 6/581/58 11/592/67 15/593/68 10/582/59
f 7/585/62 12/594/69 11/595/67 6/586/58
f 8/589/64 13/596/70 12/594/69 7/585/62
f 9/591/66 14/597/71 13/596/70 8/589/64
f 10/582/59 15/593/68 14/597/71 9/591/66
f 11/592/67 16/598/72 20/599/73 15/593/68
f 12/594/69 17/600/74 16/601/72 11/595/67
f 13/596/70 18/602/75 17/600/74 12/594/69
f 14/597/71 19/603/76 18/602/75 13/596/70
f 15/593/68 20/599/73 19/603/76 14/597/71
f 16/598/72 21/604/77 25/605/78 20/599/73
f 17/600/74 22/606/79 21/607/77 16/601/72
f 18/602/75 23/608/80 22/606/79 17/600/74
f 19/603/76 24/609/81 23/608/80 18/602/75
f 20/599/73 25/605/78 24/609/81 19/603/76
f 738/610/82 26/611/83 30/612/84 740/613/85
f 741/614/86 27/615/87 26/616/83 738/617/82
f 737/618/88 28/619/89 27/615/87 741/614/86
f 739/620/90 29/621/91 28/619/89 737/618/88
f 740/613/85 30/612/84 29/621/91 739/620/90
f 26/611/83 31/622/92 35/623/93 30/612/84
f 27/615/87 32/624/94 31/625/92 26/616/83
f 28/619/89 33/626/95 32/624/94 27/615/87
f 29/621/91 34/627/96 33/626/95 28/619/89
f 30/612/84 35/623/93 34/627/96 29/621/91
f 31/622/92 36/628/97 40/629/98 35/623/93
f 32/624/94 37/630/99 36/631/97 31/625/92
f 33/626/95 38/632/100 37/630/99 32/624/94
f 34/627/96 39/633/101 38/632/100 33/626/95
f 35/623/93 40/629/98 39/633/101 34/627/96
f 36/628/97 41/634/102 45/635/103 40/629/98
f 37/630/99 42/636/104 41/637/102 36/631/97
f 38/632/100 43/638/105 42/636/104 37/630/99
f 39/633/101 44/639/106 43/638/105 38/632/100
f 40/629/98 45/635/103 44/639/106 39/633/101
f 41/634/102 46/640/107 50/641/108 45/635/103
f 42/636/104 47/642/109 46/643/107 41/637/102
f 43/638/105 48/644/110 47/642/109 42/636/104
f 44/639/106 49/645/111 48/644/110 43/638/105
f 45/635/103 50/641/108 49/645/111 44/639/106
f 46/640/107 51/646/112 55/647/113 50/641/108
f 47/642/109 52/648/114 51/649/112 46/643/107
f 48/644/110 53/650/115 52/648/114 47/642/109
f 49/645/111 54/651/116 53/650/115 48/644/110
f 50/641/108 55/647/113 54/651/116 49/645/111
f 51/646/112 56/652/117 60/653/118 55/647/113
f 52/648/114 57/654/119 56/655/117 51/649/112
f 53/650/115 58/656/120 57/654/119 52/648/114
f 54/651/116 59/657/121 58/656/120 53/650/115
f 55/647/113 60/653/118 59/657/121 54/651/116
f 56/652/117 61/658/122 65/659/123 60/653/118
f 57/654/119 62/660/124 61/661/122 56/655/117
f 58/656/120 63/662/125 62/660/124 57/654/119
f 59/657/121 64/663/126 63/662/125 58/656/120
f 60/653/118 65/659/123 64/663/126 59/657/121
f 61/658/122 66/664/127 70/665/128 65/659/123
f 62/660/124 67/666/129 66/667/127 61/661/122
f 63/662/125 68/668/130 67/666/129 62/660/124
f 64/663/126 69/669/131 68/668/130 63/662/125
f 65/659/123 70/665/128 69/669/131 64/663/126
f 66/664/127 71/670/132 75/671/133 70/665/128
f 67/666/129 72/672/134 71/673/132 66/667/127
f 68/668/130 73/674/135 72/672/134 67/666/129
f 69/669/131 74/675/136 73/674/135 68/668/130
f 70/665/128 75/671/133 74/675/136 69/669/131
f 71/670/132 76/676/137 80/677/138 75/671/133
f 72/672/134 77/678/139 76/679/137 71/673/132
f 73/674/135 78/680/140 77/678/139 72/672/134
f 74/675/136 79/681/141 78/680/140 73/674/135
f 75/671/133 80/677/138 79/681/141 74/675/136
f 76/676/137 81/682/142 85/683/143 80/677/138
f 77/678/139 82/684/144 81/685/142 76/679/137
f 78/680/140 83/686/145 82/684/144 77/678/139
f 79/681/141 84/687/146 83/686/145 78/680/140
f 80/677/138 85/683/143 84/687/146 79/681/141
f 130/688/147 132/689/148 128/690/149 126/691/150
f 133/692/151 129/693/152 103/694/153 104/695/154
f 131/696/155 127/697/156 106/698/44 108/699/44
f 95/700/4 97/701/4 133/702/151 131/703/155
f 129/693/152 133/692/151 109/704/5 107/705/5
f 105/706/157 104/707/154 132/689/148 130/688/147
f 103/708/153 102/709/158 126/691/150 128/690/149
f 105/710/157 102/711/158 127/697/156 131/696/155
f 104/695/154 103/694/153 128/690/149 132/689/148
f 93/712/1 91/713/1 127/714/156 129/715/152
f 130/688/147 126/691/150 102/711/158 105/710/157
f 129/715/152 127/714/156 102/709/158 103/708/153
f 131/703/155 133/702/151 104/707/154 105/706/157
f 213/716/159 214/717/160 211/183/161 210/186/162
f 218/176/163 217/175/164 226/718/165 229/719/166
f 213/720/159 224/721/167 227/722/168 212/723/169
f 224/721/167 213/720/159 210/724/162 221/725/170
f 209/726/171 219/727/172 228/728/173 215/729/174
f 214/730/160 231/731/175 222/732/176 211/733/161
f 229/719/166 226/718/165 225/180/177 230/179/178
f 212/734/169 215/735/174 214/717/160 213/716/159
f 231/731/175 214/730/160 215/729/174 228/728/173
f 208/173/179 209/178/171 215/736/174 212/737/169
f 225/180/177 226/718/165 227/722/168 224/721/167
f 229/719/166 230/179/178 231/731/175 228/728/173
f 226/718/165 217/175/164 216/738/180 227/722/168
f 220/181/181 225/180/177 224/721/167 221/725/170
f 228/728/173 219/727/172 218/176/163 229/719/166
f 222/732/176 231/731/175 230/179/178 223/182/182
f 212/723/169 227/722/168 216/738/180 208/739/179
f 234/740/183 235/741/184 239/742/185 238/743/186
f 238/744/186 239/742/185 237/745/187 236/746/188
f 236/746/188 237/745/187 233/747/189 232/748/190
f 234/749/183 238/750/186 236/746/188 232/748/190
f 239/742/185 235/741/184 233/747/189 237/745/187
f 240/751/5 241/752/5 243/753/191 242/754/191
f 242/754/191 243/753/191 245/755/192 244/756/192
f 244/756/192 245/755/192 247/757/193 246/758/193
f 246/758/193 247/757/193 249/759/194 248/760/194
f 248/760/194 249/759/194 251/761/195 250/762/195
f 250/762/195 251/761/195 253/763/196 252/764/196
f 252/764/196 253/763/196 255/765/44 254/766/44
f 254/767/44 255/768/44 257/769/197 256/770/197
f 256/770/197 257/769/197 259/771/198 258/772/198
f 258/772/198 259/771/198 261/773/199 260/774/199
f 260/774/199 261/773/199 263/775/200 262/776/200
f 262/776/200 263/775/200 265/777/201 264/778/201
f 264/778/201 265/777/201 267/779/202 266/780/202
f 266/780/202 267/779/202 241/752/5 240/751/5
f 300/781/203 281/782/204 270/783/205 294/784/206
f 303/785/207 291/786/208 282/787/209 301/788/210
f 296/789/211 276/790/212 287/791/213 299/792/214
f 270/793/205 271/189/215 272/794/216
f 275/192/217 276/795/212 277/796/218
f 280/190/219 281/797/204 282/787/209
f 285/191/220 286/798/221 287/799/213
f 294/800/206 270/793/205 272/794/216 295/801/222
f 288/188/223 275/192/217 277/796/218 289/802/224
f 296/803/211 274/804/225 273/805/226 297/806/227
f 275/192/217 285/191/220 287/791/213 276/790/212
f 298/807/228 284/808/229 283/809/230 299/810/214
f 290/187/231 280/190/219 282/787/209 291/786/208
f 300/811/203 279/812/232 278/813/233 301/788/210
f 280/190/219 271/189/215 270/783/205 281/782/204
f 302/814/234 289/802/224 277/796/218 297/806/227
f 295/801/222 272/794/216 289/802/224 302/814/234
f 285/191/220 290/187/231 291/786/208 286/798/221
f 271/189/215 288/188/223 289/802/224 272/794/216
f 298/807/228 286/798/221 291/786/208 303/785/207
f 284/808/229 298/807/228 303/785/207 293/815/235
f 292/816/236 302/814/234 297/806/227 273/805/226
f 281/797/204 300/811/203 301/788/210 282/787/209
f 286/798/221 298/807/228 299/810/214 287/799/213
f 276/795/212 296/803/211 297/806/227 277/796/218
f 268/817/237 294/800/206 295/801/222 269/818/238
f 274/819/225 296/789/211 299/792/214 283/820/230
f 279/821/232 300/781/203 294/784/206 268/822/237
f 340/823/239 341/242/239 343/241/240 342/824/240
f 342/824/240 343/241/240 345/254/241 344/825/241
f 344/825/241 345/254/241 347/253/242 346/826/242
f 346/827/242 347/253/242 349/252/243 348/828/243
f 348/828/243 349/252/243 351/251/244 350/829/244
f 350/829/244 351/251/244 353/250/245 352/830/245
f 352/831/245 353/250/245 355/249/246 354/832/246
f 354/832/246 355/249/246 357/248/247 356/833/247
f 356/833/247 357/248/247 359/247/248 358/834/248
f 358/835/248 359/247/248 361/246/249 360/836/249
f 360/836/249 361/246/249 363/245/250 362/837/250
f 362/837/250 363/245/250 365/244/251 364/838/251
f 364/839/251 365/244/251 367/243/252 366/840/252
f 366/840/252 367/243/252 341/242/239 340/823/239
f 368/841/253 375/842/254 370/843/255 369/844/256
f 657/845/257 372/846/258 371/847/259 659/848/260
f 368/841/253 374/849/261 376/850/262 377/851/263 375/842/254
f 659/852/260 663/853/264 374/854/261 368/855/253
f 369/856/256 370/843/255 658/857/265 657/858/257
f 372/846/258 373/859/266 378/860/267 371/847/259
f 371/847/259 378/860/267 380/861/268 381/862/269 379/863/270
f 380/864/268 661/865/271 662/866/272 381/867/269
f 381/867/269 662/866/272 663/868/264 379/869/270
f 371/870/259 379/871/270 663/853/264 659/852/260
f 700/872/273 383/873/274 385/874/275 701/875/276
f 701/875/276 385/874/275 387/876/277 702/877/278
f 702/877/278 387/876/277 389/878/279 703/879/280
f 703/879/280 389/878/279 391/880/281 704/881/282
f 704/881/282 391/880/281 393/882/283 705/883/284
f 705/883/284 393/882/283 395/884/285 706/885/286
f 706/885/286 395/884/285 397/886/287 707/887/288
f 707/887/288 397/886/287 399/888/289 708/889/290
f 708/889/290 399/888/289 401/890/291 709/891/292
f 709/891/292 401/890/291 403/892/293 710/893/294
f 710/893/294 403/892/293 405/894/295 711/895/296
f 711/895/296 405/894/295 407/896/297 712/897/298
f 712/897/298 407/896/297 409/898/299 713/899/300
f 713/899/300 409/898/299 411/900/301 714/901/302
f 714/901/302 411/900/301 413/902/303 715/903/304
f 715/903/304 413/902/303 415/904/305 716/905/306
f 716/905/306 415/904/305 417/906/307 717/907/308
f 717/907/308 417/906/307 419/908/309 718/909/310
f 718/909/310 419/908/309 421/910/311 719/911/312
f 719/911/312 421/910/311 423/912/313 720/913/314
f 720/913/314 423/912/313 425/914/315 721/915/316
f 721/915/316 425/914/315 427/916/317 722/917/318
f 722/917/318 427/916/317 429/918/319 723/919/320
f 723/919/320 429/918/319 431/920/321 724/921/322
f 724/921/322 431/920/321 433/922/323 725/923/324
f 725/923/324 433/922/323 435/924/325 726/925/326
f 726/926/326 435/927/325 437/928/327 727/929/328
f 727/929/328 437/928/327 383/873/274 700/872/273
f 525/930/329 513/931/330 486/932/331 501/933/332
f 521/934/333 528/935/334 502/936/335 509/937/336
f 509/937/336 502/936/335 504/938/337 503/939/338 501/933/332 486/932/331 488/940/339 487/941/340 485/942/341 494/943/342 496/944/343 495/945/344 493/946/345 510/947/346 512/948/347 511/949/348
f 516/950/349 520/951/350 494/943/342 485/942/341
f 517/952/351 524/953/352 510/947/346 493/946/345
f 513/931/330 514/954/353 488/940/339 486/932/331
f 514/955/353 515/956/354 487/941/340 488/940/339
f 515/956/354 516/950/349 485/942/341 487/941/340
f 517/952/351 518/957/355 492/958/356 490/959/357
f 518/960/355 519/961/358 491/962/359 492/963/356
f 519/961/358 520/951/350 489/964/360 491/962/359
f 521/934/333 522/965/361 508/966/362 506/967/363
f 522/965/361 523/968/364 507/969/365 508/966/362
f 523/970/364 524/953/352 505/971/366 507/972/365
f 525/930/329 526/973/367 500/974/368 498/975/369
f 526/976/367 527/977/370 499/978/371 500/979/368
f 527/977/370 528/935/334 497/980/372 499/978/371
f 484/981/373 482/982/374 516/950/349 515/956/354
f 483/983/375 484/981/373 515/956/354 514/955/353
f 481/984/376 483/985/375 514/954/353 513/931/330
f 490/959/357 505/971/366 524/953/352 517/952/351
f 482/982/374 489/964/360 520/951/350 516/950/349
f 506/967/363 497/980/372 528/935/334 521/934/333
f 498/975/369 481/984/376 513/931/330 525/930/329
f 493/946/345 495/945/344 518/957/355 517/952/351
f 495/945/344 496/944/343 519/961/358 518/960/355
f 496/944/343 494/943/342 520/951/350 519/961/358
f 509/937/336 511/949/348 522/965/361 521/934/333
f 511/949/348 512/948/347 523/968/364 522/965/361
f 512/948/347 510/947/346 524/953/352 523/970/364
f 501/933/332 503/939/338 526/973/367 525/930/329
f 503/939/338 504/938/337 527/977/370 526/976/367
f 504/938/337 502/936/335 528/935/334 527/977/370
f 764/465/5 562/986/5 564/987/377 765/466/377
f 765/466/377 564/987/377 566/988/378 766/467/378
f 766/467/378 566/988/378 568/989/379 767/468/379
f 767/468/379 568/989/379 570/990/380 768/470/380
f 768/470/380 570/990/380 572/991/44 769/472/44
f 769/475/44 572/992/44 574/993/381 770/476/381
f 770/476/381 574/993/381 576/994/382 771/478/382
f 771/478/382 576/994/382 578/995/383 772/480/383
f 772/480/383 578/995/383 580/996/384 773/482/384
f 773/482/384 580/996/384 562/986/5 764/465/5
f 581/997/5 582/998/5 584/999/385 583/1000/385
f 583/1000/385 584/999/385 586/1001/386 585/1002/386
f 585/1002/386 586/1001/386 588/1003/44 587/1004/44
f 587/1005/44 588/1006/44 590/1007/387 589/1008/387
f 589/1008/387 590/1007/387 592/1009/388 591/1010/388
f 591/1010/388 592/1009/388 582/1011/5 581/1012/5
f 774/485/5 594/1013/5 596/1014/377 775/486/377
f 775/486/377 596/1014/377 598/1015/378 776/488/378
f 776/488/378 598/1015/378 600/1016/379 777/490/379
f 777/490/379 600/1016/379 602/1017/380 778/492/380
f 778/492/380 602/1017/380 604/1018/44 779/494/44
f 779/495/44 604/1019/44 606/1020/381 780/496/381
f 780/496/381 606/1020/381 608/1021/382 781/498/382
f 781/498/382 608/1021/382 610/1022/383 782/500/383
f 782/500/383 610/1022/383 612/1023/384 783/502/384
f 783/502/384 612/1023/384 594/1013/5 774/485/5
f 613/1024/5 614/1025/5 616/1026/385 615/1027/385
f 615/1027/385 616/1026/385 618/1028/386 617/1029/386
f 617/1029/386 618/1028/386 620/1030/44 619/1031/44
f 619/1032/44 620/1033/44 622/1034/387 621/1035/387
f 621/1035/387 622/1034/387 624/1036/388 623/1037/388
f 623/1037/388 624/1036/388 614/1038/5 613/1039/5
f 784/504/5 626/1040/5 628/1041/377 785/505/377
f 785/505/377 628/1041/377 630/1042/378 786/507/378
f 786/507/378 630/1042/378 632/1043/379 787/509/379
f 787/509/379 632/1043/379 634/1044/380 788/511/380
f 788/511/380 634/1044/380 636/1045/44 789/513/44
f 789/516/44 636/1046/44 638/1047/381 790/517/381
f 790/517/381 638/1047/381 640/1048/382 791/519/382
f 791/519/382 640/1048/382 642/1049/383 792/521/383
f 792/521/383 642/1049/383 644/1050/384 793/522/384
f 793/522/384 644/1050/384 626/1040/5 784/504/5
f 645/1051/5 646/1052/5 648/1053/385 647/1054/385
f 647/1054/385 648/1053/385 650/1055/386 649/1056/386
f 649/1056/386 650/1055/386 652/1057/44 651/1058/44
f 651/1059/44 652/1060/44 654/1061/387 653/1062/387
f 653/1062/387 654/1061/387 656/1063/388 655/1064/388
f 655/1064/388 656/1063/388 646/1065/5 645/1066/5
f 378/860/267 660/1067/389 661/865/271 380/864/268
f 662/866/272 376/1068/262 374/1069/261 663/868/264
f 661/865/271 377/1070/263 376/1068/262 662/866/272
f 660/1067/389 375/842/254 377/1070/263 661/865/271
f 657/858/257 658/857/265 373/859/266 372/1071/258
f 658/857/265 370/843/255 375/842/254 660/1067/389
f 373/859/266 658/857/265 660/1067/389 378/860/267
f 369/844/256 657/1072/257 659/1073/260 368/841/253
f 664/1074/19 665/1075/19 667/1076/356 666/1077/356
f 666/1077/356 667/1076/356 669/1078/359 668/1079/359
f 668/1079/359 669/1078/359 671/1080/24 670/1081/24
f 670/1081/24 671/1080/24 673/1082/373 672/1083/373
f 672/1083/373 673/1082/373 675/1084/375 674/1085/375
f 674/1085/375 675/1084/375 677/1086/18 676/1087/18
f 676/1088/18 677/1089/18 679/1090/368 678/1091/368
f 678/1091/368 679/1090/368 681/1092/371 680/1093/371
f 680/1093/371 681/1092/371 683/1094/25 682/1095/25
f 682/1095/25 683/1094/25 685/1096/362 684/1097/362
f 685/1096/390 698/1098/390 699/1099/391 687/1100/391
f 684/1097/362 685/1096/362 687/1100/365 686/1101/365
f 686/1101/365 687/1100/365 665/1075/19 664/1074/19
f 667/1076/392 688/1102/392 690/1103/393 669/1078/393
f 683/1094/394 697/1104/394 698/1098/390 685/1096/390
f 681/1092/395 696/1105/395 697/1104/394 683/1094/394
f 679/1090/396 695/1106/396 696/1105/395 681/1092/395
f 677/1089/397 694/1107/397 695/1106/396 679/1090/396
f 675/1084/398 693/1108/398 694/1109/397 677/1086/397
f 673/1082/399 692/1110/399 693/1108/398 675/1084/398
f 671/1080/400 691/1111/400 692/1110/399 673/1082/399
f 687/1100/391 699/1099/391 689/1112/401 665/1075/401
f 665/1075/401 689/1112/401 688/1102/392 667/1076/392
f 669/1078/393 690/1103/393 691/1111/400 671/1080/400
f 436/1113/402 727/929/328 700/872/273 382/1114/403
f 434/1115/404 726/926/326 727/929/328 436/1113/402
f 432/1116/405 725/923/324 726/925/326 434/1117/404
f 430/1118/406 724/921/322 725/923/324 432/1116/405
f 428/1119/407 723/919/320 724/921/322 430/1118/406
f 426/1120/408 722/917/318 723/919/320 428/1119/407
f 424/1121/409 721/915/316 722/917/318 426/1120/408
f 422/1122/410 720/913/314 721/915/316 424/1121/409
f 420/1123/411 719/911/312 720/913/314 422/1122/410
f 418/1124/412 718/909/310 719/911/312 420/1123/411
f 416/1125/413 717/907/308 718/909/310 418/1124/412
f 414/1126/414 716/905/306 717/907/308 416/1125/413
f 412/1127/415 715/903/304 716/905/306 414/1126/414
f 410/1128/416 714/901/302 715/903/304 412/1127/415
f 408/1129/417 713/899/300 714/901/302 410/1128/416
f 406/1130/418 712/897/298 713/899/300 408/1129/417
f 404/1131/419 711/895/296 712/897/298 406/1130/418
f 402/1132/420 710/893/294 711/895/296 404/1131/419
f 400/1133/421 709/891/292 710/893/294 402/1132/420
f 398/1134/422 708/889/290 709/891/292 400/1133/421
f 396/1135/423 707/887/288 708/889/290 398/1134/422
f 394/1136/424 706/885/286 707/887/288 396/1135/423
f 392/1137/425 705/883/284 706/885/286 394/1136/424
f 390/1138/426 704/881/282 705/883/284 392/1137/425
f 388/1139/427 703/879/280 704/881/282 390/1138/426
f 386/1140/428 702/877/278 703/879/280 388/1139/427
f 384/1141/429 701/875/276 702/877/278 386/1140/428
f 382/1114/403 700/872/273 701/875/276 384/1141/429
f 25/605/78 740/613/85 739/620/90 24/609/81
f 24/609/81 739/620/90 737/618/88 23/608/80
f 23/608/80 737/618/88 741/614/86 22/606/79
f 22/606/79 741/614/86 738/617/82 21/607/77
f 21/604/77 738/610/82 740/613/85 25/605/78
f 745/1142/430 743/1143/431 744/1144/432
f 745/1142/430 744/1144/432 747/1145/433
f 745/1142/430 747/1145/433 746/1146/434
f 745/1142/430 746/1146/434 743/1143/431
