# 3ds Max Wavefront OBJ Exporter v0.94b - (c)2007 guruware
# File Created: 01.02.2017 19:41:23

mtllib botle2.mtl

#
# object props34_butilikas
#

v  -0.2592 0.0000 -0.1090
v  -0.2798 0.0000 -0.0021
v  -0.3271 0.0288 -0.0021
v  0.1070 2.2856 -0.0453
v  0.0967 2.2938 -0.0411
v  0.1049 2.2938 -0.0021
v  0.1173 2.2856 -0.0021
v  0.0823 2.2856 -0.0823
v  0.0741 2.2938 -0.0741
v  0.0453 2.2856 -0.1070
v  0.0411 2.2938 -0.0967
v  0.0000 2.2856 -0.1173
v  0.0000 2.2938 -0.1049
v  -0.0432 2.2856 -0.1070
v  -0.0391 2.2938 -0.0967
v  -0.0802 2.2856 -0.0823
v  -0.0720 2.2938 -0.0741
v  -0.1049 2.2856 -0.0453
v  -0.0946 2.2938 -0.0411
v  -0.0843 2.2856 -0.0370
v  -0.1029 2.2938 -0.0021
v  -0.0926 2.2856 -0.0021
v  -0.1152 2.2856 -0.0000
v  0.2613 0.0000 0.1070
v  0.2818 0.0000 -0.0021
v  0.3292 0.0288 -0.0021
v  -0.1049 2.2856 0.0432
v  -0.0946 2.2938 0.0391
v  -0.0802 2.2856 0.0802
v  -0.0720 2.2938 0.0720
v  -0.0432 2.2856 0.1049
v  -0.0391 2.2938 0.0946
v  0.0021 2.2856 0.1152
v  0.0021 2.2938 0.1029
v  0.0453 2.2856 0.1049
v  0.0411 2.2938 0.0946
v  0.0823 2.2856 0.0802
v  0.0741 2.2938 0.0720
v  0.1070 2.2856 0.0432
v  0.0967 2.2938 0.0391
v  -0.0926 1.3248 -0.0021
v  -0.0843 1.3248 -0.0370
v  -0.0638 1.3248 -0.0658
v  -0.0638 2.2856 -0.0658
v  -0.0350 1.3248 -0.0864
v  -0.0350 2.2856 -0.0864
v  0.0000 1.3248 -0.0946
v  0.0000 2.2856 -0.0946
v  0.0370 1.3248 -0.0864
v  0.0370 2.2856 -0.0864
v  0.0658 1.3248 -0.0658
v  0.0658 2.2856 -0.0658
v  0.0864 1.3248 -0.0370
v  0.0864 2.2856 -0.0370
v  0.0946 1.3248 -0.0021
v  0.0946 2.2856 -0.0021
v  0.1419 2.0449 -0.0021
v  0.1317 2.0449 -0.0555
v  0.1275 1.9770 -0.0021
v  0.1173 1.9770 -0.0494
v  0.1358 1.6273 -0.0576
v  0.1481 1.6273 -0.0021
v  0.1646 1.5532 -0.0021
v  0.1008 2.0449 -0.1008
v  0.0905 1.9770 -0.0905
v  0.1049 1.6273 -0.1049
v  0.1522 1.5532 -0.0638
v  0.2037 1.4915 -0.0021
v  0.0555 2.0449 -0.1317
v  0.0494 1.9770 -0.1173
v  0.0576 1.6273 -0.1358
v  0.1152 1.5532 -0.1152
v  0.1872 1.4915 -0.0782
v  0.2962 1.3886 -0.0021
v  0.0000 2.0449 -0.1419
v  0.0000 1.9770 -0.1275
v  0.0000 1.6273 -0.1481
v  0.0638 1.5532 -0.1522
v  0.1440 1.4915 -0.1440
v  -0.0535 2.0449 -0.1317
v  -0.0473 1.9770 -0.1173
v  -0.0555 1.6273 -0.1358
v  0.0000 1.5532 -0.1646
v  0.0782 1.4915 -0.1872
v  -0.0987 2.0449 -0.1008
v  -0.0885 1.9770 -0.0905
v  -0.1029 1.6273 -0.1049
v  -0.0617 1.5532 -0.1522
v  0.0000 1.4915 -0.2037
v  -0.1296 2.0449 -0.0555
v  -0.1152 1.9770 -0.0494
v  -0.1337 1.6273 -0.0576
v  -0.1131 1.5532 -0.1152
v  -0.0761 1.4915 -0.1872
v  -0.1399 2.0449 -0.0021
v  -0.1255 1.9770 -0.0021
v  -0.1461 1.6273 -0.0021
v  -0.1502 1.5532 -0.0638
v  -0.1419 1.4915 -0.1440
v  -0.1625 1.5532 -0.0021
v  -0.1851 1.4915 -0.0782
v  -0.2078 1.3886 -0.2098
v  -0.1111 1.3886 -0.2736
v  0.0000 1.3886 -0.2962
v  -0.2016 1.4915 -0.0021
v  -0.2716 1.3886 -0.1131
v  -0.2325 1.3310 -0.2345
v  -0.1255 1.3310 -0.3065
v  0.0000 1.3310 -0.3333
v  0.1275 1.3310 -0.3065
v  0.1131 1.3886 -0.2736
v  -0.2942 1.3886 -0.0021
v  -0.3045 1.3310 -0.1275
v  -0.2428 1.2590 -0.2448
v  -0.1317 1.2590 -0.3189
v  0.0000 1.2590 -0.3456
v  0.1337 1.2590 -0.3189
v  -0.3312 1.3310 -0.0021
v  -0.3168 1.2590 -0.1337
v  -0.2428 0.0864 -0.2448
v  -0.1317 0.0864 -0.3209
v  0.0000 0.0864 -0.3477
v  0.1337 0.0864 -0.3209
v  -0.3436 1.2590 -0.0021
v  -0.3189 0.0864 -0.1337
v  -0.2304 0.0288 -0.2325
v  -0.1255 0.0288 -0.3045
v  0.0000 0.0288 -0.3292
v  0.1275 0.0288 -0.3045
v  -0.3456 0.0864 -0.0021
v  -0.3024 0.0288 -0.1275
v  -0.1975 0.0000 -0.1995
v  -0.1070 0.0000 -0.2613
v  0.0021 0.0000 -0.2818
v  0.1090 0.0000 -0.2613
v  0.1995 0.0000 -0.1995
v  0.2325 0.0288 -0.2325
v  0.2448 0.0864 -0.2448
v  0.2448 1.2590 -0.2448
v  0.2613 0.0000 -0.1090
v  0.3045 0.0288 -0.1275
v  0.3209 0.0864 -0.1337
v  0.3189 1.2590 -0.1337
v  0.2345 1.3310 -0.2345
v  0.2098 1.3886 -0.2098
v  0.3477 0.0864 -0.0021
v  0.3456 1.2590 -0.0021
v  0.3065 1.3310 -0.1275
v  0.2736 1.3886 -0.1131
v  0.3333 1.3310 -0.0021
v  0.1090 0.0000 0.2592
v  0.0021 0.0000 0.2798
v  -0.1070 0.0000 0.2592
v  -0.2592 0.0000 0.1070
v  -0.1975 0.0000 0.1975
v  0.1995 0.0000 0.1975
v  0.0864 1.3248 0.0350
v  0.0864 2.2856 0.0350
v  0.0658 1.3248 0.0638
v  0.0658 2.2856 0.0638
v  0.0370 1.3248 0.0843
v  0.0370 2.2856 0.0843
v  0.0021 1.3248 0.0926
v  0.0021 2.2856 0.0926
v  -0.0350 1.3248 0.0843
v  -0.0350 2.2856 0.0843
v  -0.0638 1.3248 0.0638
v  -0.0638 2.2856 0.0638
v  -0.0843 1.3248 0.0350
v  -0.0843 2.2856 0.0350
v  -0.1296 2.0449 0.0535
v  -0.1152 1.9770 0.0473
v  -0.1337 1.6273 0.0555
v  -0.0987 2.0449 0.0987
v  -0.0885 1.9770 0.0885
v  -0.1029 1.6273 0.1029
v  -0.1502 1.5532 0.0617
v  -0.0535 2.0449 0.1296
v  -0.0473 1.9770 0.1152
v  -0.0555 1.6273 0.1337
v  -0.1131 1.5532 0.1131
v  -0.1851 1.4915 0.0761
v  0.0021 2.0449 0.1399
v  0.0021 1.9770 0.1255
v  0.0021 1.6273 0.1461
v  -0.0617 1.5532 0.1502
v  -0.1419 1.4915 0.1419
v  0.0555 2.0449 0.1296
v  0.0494 1.9770 0.1152
v  0.0576 1.6273 0.1337
v  0.0021 1.5532 0.1625
v  -0.0761 1.4915 0.1851
v  0.1008 2.0449 0.0987
v  0.0905 1.9770 0.0885
v  0.1049 1.6273 0.1029
v  0.0638 1.5532 0.1502
v  0.0021 1.4915 0.2016
v  0.1317 2.0449 0.0535
v  0.1173 1.9770 0.0473
v  0.1358 1.6273 0.0555
v  0.1152 1.5532 0.1131
v  0.0782 1.4915 0.1851
v  0.1522 1.5532 0.0617
v  0.1440 1.4915 0.1419
v  0.1872 1.4915 0.0761
v  0.2098 1.3886 0.2078
v  0.1131 1.3886 0.2716
v  0.0021 1.3886 0.2942
v  0.2736 1.3886 0.1111
v  0.2345 1.3310 0.2325
v  0.1275 1.3310 0.3045
v  0.0021 1.3310 0.3312
v  -0.1255 1.3310 0.3045
v  -0.1111 1.3886 0.2716
v  0.3065 1.3310 0.1255
v  0.2448 1.2590 0.2428
v  0.1337 1.2590 0.3168
v  0.0021 1.2590 0.3436
v  -0.1317 1.2590 0.3168
v  0.3189 1.2590 0.1317
v  0.2448 0.0864 0.2428
v  0.1337 0.0864 0.3189
v  0.0021 0.0864 0.3456
v  -0.1317 0.0864 0.3189
v  0.3209 0.0864 0.1317
v  0.2325 0.0288 0.2304
v  0.1275 0.0288 0.3024
v  0.0021 0.0288 0.3271
v  -0.1255 0.0288 0.3024
v  0.3045 0.0288 0.1255
v  -0.2304 0.0288 0.2304
v  -0.2428 0.0864 0.2428
v  -0.2428 1.2590 0.2428
v  -0.3024 0.0288 0.1255
v  -0.3189 0.0864 0.1317
v  -0.3168 1.2590 0.1317
v  -0.2325 1.3310 0.2325
v  -0.2078 1.3886 0.2078
v  -0.3045 1.3310 0.1255
v  -0.2716 1.3886 0.1111
# 240 vertices

vn -0.1408 -0.9825 -0.1219
vn -0.2887 -0.9566 0.0403
vn -0.8444 -0.5328 0.0563
vn 0.8065 0.4797 -0.3456
vn 0.3199 0.9377 -0.1356
vn -0.9790 0.1877 0.0791
vn 0.2575 0.9656 0.0364
vn 0.5545 0.8318 -0.0246
vn 0.5802 0.8047 -0.1257
vn 0.6232 0.5231 -0.5814
vn -0.2879 0.9442 0.1601
vn 0.5741 0.8035 -0.1575
vn 0.3516 0.5392 -0.7653
vn -0.1127 0.9430 0.3130
vn 0.4615 0.8119 -0.3576
vn 0.0118 0.5571 -0.8304
vn 0.0690 0.9469 0.3140
vn 0.3085 0.8035 -0.5092
vn -0.3124 0.5414 -0.7806
vn -0.1356 0.9377 -0.3199
vn 0.0745 0.8257 -0.5592
vn -0.5794 0.5485 -0.6029
vn 0.1980 0.9654 0.1698
vn -0.1575 0.8035 -0.5741
vn -0.7653 0.5392 -0.3516
vn -0.2888 0.9536 -0.0850
vn -0.3576 0.8119 -0.4615
vn 0.5891 0.7984 0.1240
vn -0.0113 0.9863 -0.1644
vn 0.2388 0.9691 0.0614
vn 0.8786 0.4775 -0.0048
vn 0.5948 0.7936 0.1282
vn -0.8527 0.5213 -0.0341
vn -0.0757 0.9971 -0.0098
vn 0.4300 0.8983 0.0905
vn 0.1423 -0.9823 0.1221
vn 0.2887 -0.9565 -0.0417
vn 0.8438 -0.5334 -0.0587
vn -0.7724 0.5585 0.3024
vn -0.1935 0.9794 0.0572
vn -0.5700 0.8171 -0.0864
vn -0.6029 0.5485 0.5794
vn 0.2946 0.9497 -0.1063
vn -0.5758 0.8032 0.1525
vn -0.3739 0.4994 0.7815
vn 0.1127 0.9430 -0.3130
vn -0.4615 0.8119 0.3576
vn -0.0118 0.5571 0.8304
vn -0.0690 0.9469 -0.3140
vn -0.3085 0.8035 0.5092
vn 0.3124 0.5414 0.7806
vn 0.1356 0.9377 0.3199
vn -0.0745 0.8257 0.5592
vn 0.5794 0.5485 0.6029
vn -0.1601 0.9442 -0.2879
vn 0.1575 0.8035 0.5741
vn 0.7653 0.5392 0.3516
vn -0.3130 0.9430 -0.1127
vn 0.3576 0.8119 0.4615
vn 0.8845 0.4661 0.0203
vn 0.5547 0.8320 0.0014
vn 0.5092 0.8035 0.3085
vn 0.8692 0.4502 0.2045
vn 0.9734 0.0000 0.2290
vn 0.9108 0.0000 0.4129
vn 0.8697 0.3221 0.3740
vn 0.7071 0.0000 0.7071
vn 0.6226 0.4790 0.6188
vn 0.4037 0.0158 0.9147
vn 0.3625 0.4745 0.8022
vn 0.0062 0.0000 1.0000
vn 0.0018 0.4615 0.8872
vn -0.4073 0.0000 0.9133
vn -0.0603 0.9894 0.1320
vn 0.1355 0.9712 0.1959
vn 0.0559 0.9698 0.2374
vn -0.0546 0.9607 0.2721
vn -0.3575 0.4718 0.8060
vn -0.7071 0.0000 0.7071
vn -0.6188 0.4790 0.6226
vn -0.9152 0.0182 0.4026
vn -0.8022 0.4745 0.3625
vn -0.9734 0.0000 0.2290
vn -0.8682 0.4554 0.1971
vn -0.1342 0.9699 0.2032
vn -0.1959 0.9712 0.1355
vn -0.2374 0.9698 0.0559
vn 0.9680 0.0993 -0.2305
vn 0.9930 0.0251 -0.1157
vn 0.9211 -0.0548 -0.3854
vn 0.9750 -0.0806 -0.2070
vn 0.9189 -0.0832 -0.3857
vn 0.9129 0.1439 -0.3820
vn 0.9670 0.1365 -0.2149
vn 0.9184 0.3534 -0.1781
vn 0.7074 -0.0522 -0.7049
vn 0.7119 -0.0110 -0.7022
vn 0.6971 0.1324 -0.7047
vn 0.8465 0.3863 -0.3663
vn 0.7834 0.5988 -0.1665
vn 0.3797 -0.0562 -0.9234
vn 0.3771 -0.0832 -0.9224
vn 0.3858 0.1410 -0.9117
vn 0.6531 0.3860 -0.6515
vn 0.7317 0.6072 -0.3095
vn 0.7871 0.5952 -0.1617
vn -0.0725 -0.0025 -0.9974
vn -0.0016 -0.0795 -0.9968
vn -0.0060 0.1420 -0.9898
vn 0.5166 0.3800 -0.7673
vn 0.5601 0.6145 -0.5556
vn -0.3854 -0.0548 -0.9211
vn -0.3858 -0.0831 -0.9188
vn -0.3821 0.1438 -0.9129
vn -0.1486 0.3953 -0.9064
vn 0.3046 0.6060 -0.7348
vn -0.7736 -0.0085 -0.6337
vn -0.7031 -0.0803 -0.7065
vn -0.7047 0.1324 -0.6971
vn -0.3663 0.3863 -0.8465
vn -0.0020 0.6092 -0.7930
vn -0.9222 -0.0560 -0.3827
vn -0.9208 -0.0830 -0.3811
vn -0.9103 0.1409 -0.3893
vn -0.6515 0.3860 -0.6531
vn -0.3095 0.6072 -0.7317
vn -0.9796 -0.0550 -0.1931
vn -0.9744 -0.0751 -0.2121
vn -0.9673 0.1416 -0.2102
vn -0.7753 0.3725 -0.5101
vn -0.5556 0.6145 -0.5601
vn -0.9063 0.4038 0.1248
vn -0.7340 0.6059 -0.3068
vn -0.5708 0.5927 -0.5683
vn -0.3067 0.5984 -0.7402
vn -0.0004 0.6016 -0.7988
vn -0.7802 0.6030 -0.1665
vn -0.7416 0.5960 -0.3081
vn -0.6606 0.3424 -0.6681
vn -0.3619 0.3550 -0.8620
vn -0.0066 0.3372 -0.9414
vn 0.3608 0.3589 -0.8608
vn 0.3066 0.5960 -0.7421
vn -0.7892 0.5920 -0.1637
vn -0.8602 0.3589 -0.3623
vn -0.7034 0.0980 -0.7040
vn -0.3837 0.0947 -0.9186
vn -0.0030 0.0861 -0.9963
vn 0.3834 0.0924 -0.9190
vn -0.9423 0.3287 -0.0637
vn -0.9184 0.0924 -0.3848
vn -0.7000 -0.1437 -0.6995
vn -0.3840 -0.1452 -0.9119
vn -0.0025 -0.1503 -0.9886
vn 0.3839 -0.1441 -0.9120
vn -0.9766 0.0831 -0.1984
vn -0.9115 -0.1441 -0.3853
vn -0.5706 -0.5905 -0.5707
vn -0.3042 -0.5956 -0.7434
vn -0.0036 -0.5984 -0.8012
vn 0.2214 -0.6499 -0.7270
vn -0.9698 -0.1465 -0.1949
vn -0.7666 -0.5306 -0.3617
vn -0.3713 -0.8506 -0.3723
vn -0.1998 -0.8524 -0.4832
vn 0.0020 -0.8536 -0.5210
vn 0.2002 -0.8527 -0.4825
vn -0.8847 -0.4324 -0.1740
vn -0.4763 -0.8526 -0.2150
vn 0.3723 -0.8506 -0.3713
vn 0.6746 -0.4963 -0.5465
vn 0.6995 -0.1437 -0.7000
vn 0.7040 0.0980 -0.7034
vn 0.4828 -0.8524 -0.2008
vn 0.7435 -0.5910 -0.3130
vn 0.9119 -0.1452 -0.3840
vn 0.9186 0.0947 -0.3837
vn 0.6692 0.3407 -0.6604
vn 0.5683 0.5927 -0.5708
vn 0.5184 -0.8491 -0.1014
vn 0.7917 -0.5900 -0.1583
vn 0.9692 -0.1481 -0.1969
vn 0.9758 0.0857 -0.2014
vn 0.8620 0.3550 -0.3619
vn 0.7402 0.5984 -0.3067
vn 0.9416 0.3267 -0.0816
vn 0.0000 -1.0000 -0.0000
vn -0.8719 0.4497 -0.1938
vn -0.9762 0.0000 -0.2169
vn -0.9133 0.0000 -0.4073
vn -0.8060 0.4718 -0.3575
vn -0.7071 0.0000 -0.7071
vn -0.6226 0.4790 -0.6188
vn -0.4026 0.0182 -0.9152
vn -0.3625 0.4745 -0.8022
vn -0.0062 0.0000 -1.0000
vn -0.6124 0.7793 -0.1330
vn -0.2032 0.9699 -0.1342
vn -0.1355 0.9712 -0.1959
vn -0.0559 0.9698 -0.2374
vn -0.0018 0.4615 -0.8872
vn 0.4073 0.0000 -0.9133
vn 0.3575 0.4718 -0.8060
vn 0.7071 0.0000 -0.7071
vn 0.6188 0.4790 -0.6226
vn 0.9172 0.0156 -0.3982
vn 0.0546 0.9607 -0.2721
vn 0.1342 0.9699 -0.2032
vn 0.1959 0.9712 -0.1355
vn 0.8040 0.4754 -0.3571
vn 0.9762 0.0000 -0.2169
vn 0.8710 0.4543 -0.1871
vn 0.2372 0.9700 -0.0529
vn 0.0840 0.9965 -0.0047
vn -0.8398 0.5047 0.2000
vn -0.9816 -0.0488 0.1848
vn -0.9221 -0.0014 0.3870
vn -0.9767 -0.0805 0.1989
vn -0.9205 -0.0833 0.3817
vn -0.9143 0.1441 0.3786
vn -0.9686 0.1367 0.2076
vn -0.9046 0.3869 0.1791
vn -0.7074 -0.0522 0.7049
vn -0.7065 -0.0803 0.7031
vn -0.6971 0.1324 0.7047
vn -0.8475 0.3865 0.3637
vn -0.7842 0.5990 0.1620
vn -0.3797 -0.0562 0.9234
vn -0.3771 -0.0832 0.9224
vn -0.3858 0.1410 0.9117
vn -0.6531 0.3860 0.6515
vn -0.7324 0.6075 0.3076
vn -0.7876 0.5954 0.1587
vn -0.0340 0.0061 0.9994
vn 0.0016 -0.0795 0.9968
vn 0.0060 0.1420 0.9898
vn -0.5161 0.3760 0.7696
vn -0.5601 0.6145 0.5556
vn 0.3854 -0.0548 0.9211
vn 0.3858 -0.0831 0.9188
vn 0.3821 0.1438 0.9129
vn 0.1486 0.3953 0.9064
vn -0.3046 0.6060 0.7348
vn 0.7443 -0.0021 0.6679
vn 0.7031 -0.0803 0.7065
vn 0.7047 0.1324 0.6971
vn 0.3663 0.3863 0.8465
vn 0.0020 0.6092 0.7930
vn 0.9234 -0.0562 0.3797
vn 0.9224 -0.0832 0.3771
vn 0.9117 0.1410 0.3858
vn 0.6515 0.3860 0.6531
vn 0.3095 0.6072 0.7317
vn 0.9809 -0.0561 0.1861
vn 0.9761 -0.0752 0.2037
vn 0.9689 0.1415 0.2031
vn 0.8306 0.3572 0.4272
vn 0.5556 0.6145 0.5601
vn 0.9076 0.3794 0.1797
vn 0.7348 0.6060 0.3046
vn 0.5708 0.5927 0.5683
vn 0.3067 0.5984 0.7402
vn 0.0004 0.6016 0.7988
vn 0.7810 0.6029 0.1626
vn 0.7421 0.5960 0.3066
vn 0.6611 0.3425 0.6676
vn 0.3619 0.3550 0.8620
vn 0.0066 0.3372 0.9414
vn -0.3608 0.3589 0.8608
vn -0.3066 0.5960 0.7421
vn 0.7895 0.5923 0.1609
vn 0.8608 0.3589 0.3608
vn 0.7034 0.0980 0.7040
vn 0.3837 0.0947 0.9186
vn 0.0030 0.0861 0.9963
vn -0.3834 0.0924 0.9190
vn 0.9176 0.3497 0.1890
vn 0.9190 0.0924 0.3834
vn 0.7000 -0.1437 0.6995
vn 0.3840 -0.1452 0.9119
vn 0.0025 -0.1503 0.9886
vn -0.3839 -0.1441 0.9120
vn 0.9772 0.0831 0.1954
vn 0.9120 -0.1441 0.3839
vn 0.5706 -0.5905 0.5707
vn 0.3044 -0.5956 0.7434
vn 0.0029 -0.5981 0.8014
vn -0.2214 -0.6499 0.7271
vn 0.9704 -0.1466 0.1919
vn 0.7672 -0.5305 0.3606
vn 0.3713 -0.8506 0.3723
vn 0.2008 -0.8524 0.4828
vn 0.0020 -0.8539 0.5205
vn -0.1998 -0.8530 0.4821
vn 0.8859 -0.4311 0.1715
vn 0.4767 -0.8526 0.2140
vn -0.3723 -0.8506 0.3713
vn -0.6750 -0.4963 0.5459
vn -0.6995 -0.1437 0.7000
vn -0.7040 0.0980 0.7034
vn -0.4832 -0.8524 0.1998
vn -0.7440 -0.5909 0.3119
vn -0.9124 -0.1452 0.3826
vn -0.9191 0.0947 0.3824
vn -0.6696 0.3407 0.6599
vn -0.5683 0.5927 0.5708
vn -0.5186 -0.8492 0.0997
vn -0.7918 -0.5905 0.1558
vn -0.9697 -0.1483 0.1939
vn -0.9764 0.0857 0.1984
vn -0.8625 0.3550 0.3605
vn -0.7407 0.5984 0.3054
vn -0.9191 0.3452 0.1901
vn 0.5861 0.7992 0.1332
vn 0.9748 0.0261 0.2215
vn 0.8274 0.1061 0.5516
vn 0.4867 0.8111 0.3244
vn 0.3827 0.1001 0.9184
vn 0.5546 0.0213 0.8319
vn 0.3354 0.7965 0.5031
vn 0.8319 0.0213 -0.5546
vn 0.5031 0.7965 -0.3354
vn 0.1309 0.8249 0.5499
vn 0.2305 0.0993 0.9680
vn -0.2205 0.0995 0.9703
vn -0.1332 0.7992 0.5861
vn -0.5546 0.0213 0.8319
vn -0.3244 0.8111 0.4867
vn -0.9768 0.0875 -0.1954
vn -0.9670 0.1090 0.2302
vn -0.8271 0.1084 0.5514
vn -0.1898 0.0451 0.9808
vn -0.1693 0.4541 0.8747
vn -0.8722 0.4571 -0.1744
vn -0.5658 -0.0022 0.8245
vn -0.0980 -0.9849 0.1428
vn -0.5174 -0.8500 -0.0995
vn 0.5175 -0.8501 0.0976
vn 0.0990 -0.9846 -0.1443
vn 0.5658 -0.0022 -0.8245
vn 0.1898 0.0451 -0.9808
vn 0.1693 0.4541 -0.8747
vn 0.5401 0.0859 -0.8372
vn -0.2305 0.0993 -0.9680
vn -0.5546 0.0213 -0.8319
vn -0.3827 0.1001 -0.9184
vn 0.2216 -0.0195 -0.9749
vn 0.1332 0.7992 -0.5861
vn 0.5543 0.0370 -0.8315
vn 0.3244 0.8111 -0.4867
vn -0.3354 0.7965 -0.5031
vn -0.1309 0.8249 -0.5499
vn -0.5031 0.7965 0.3354
vn -0.5861 0.7992 -0.1332
vn -0.9748 0.0261 -0.2215
vn -0.8274 0.1061 -0.5516
vn -0.4867 0.8111 -0.3244
# 357 vertex normals

vt 0.2090 -0.8481 0.0000
vt 0.1777 -0.7012 0.0000
vt 0.2236 -0.8418 0.0000
vt 0.1401 -0.5562 0.0000
vt 0.1401 -0.5537 0.0000
vt 0.2632 -0.1069 0.0000
vt 0.1313 -0.5562 0.0000
vt 0.1484 -0.5562 0.0000
vt 0.1484 -0.5537 0.0000
vt 0.1572 -0.5562 0.0000
vt 0.1572 -0.5537 0.0000
vt 0.1660 -0.5562 0.0000
vt 0.1660 -0.5537 0.0000
vt 0.1743 -0.5562 0.0000
vt 0.1743 -0.5537 0.0000
vt 0.1831 -0.5562 0.0000
vt 0.1831 -0.5537 0.0000
vt 0.1919 -0.5562 0.0000
vt 0.1943 -0.5537 0.0000
vt 0.1919 -0.5518 0.0000
vt 0.4004 -0.1089 0.0000
vt 0.2002 -0.5518 0.0000
vt 0.2002 -0.5562 0.0000
vt 0.1313 -0.5542 0.0000
vt 0.2002 -0.5532 0.0000
vt 0.2002 -0.4897 0.0000
vt 0.1919 -0.4897 0.0000
vt 0.1831 -0.4897 0.0000
vt 0.1831 -0.5518 0.0000
vt 0.1743 -0.4897 0.0000
vt 0.1743 -0.5518 0.0000
vt 0.1660 -0.4897 0.0000
vt 0.1660 -0.5518 0.0000
vt 0.1572 -0.4897 0.0000
vt 0.1572 -0.5518 0.0000
vt 0.1484 -0.4897 0.0000
vt 0.1484 -0.5518 0.0000
vt 0.1401 -0.4897 0.0000
vt 0.1401 -0.5518 0.0000
vt 0.1313 -0.4897 0.0000
vt 0.1313 -0.5518 0.0000
vt 0.1313 -0.5879 0.0000
vt 0.1401 -0.5879 0.0000
vt 0.1313 -0.5977 0.0000
vt 0.1401 -0.5977 0.0000
vt 0.1401 -0.6514 0.0000
vt 0.1313 -0.6514 0.0000
vt 0.1274 -0.6626 0.0000
vt 0.1484 -0.5879 0.0000
vt 0.1484 -0.5977 0.0000
vt 0.1484 -0.6514 0.0000
vt 0.1362 -0.6626 0.0000
vt 0.1230 -0.6733 0.0000
vt 0.1572 -0.5879 0.0000
vt 0.1572 -0.5977 0.0000
vt 0.1572 -0.6514 0.0000
vt 0.1460 -0.6626 0.0000
vt 0.1333 -0.6733 0.0000
vt 0.1138 -0.6904 0.0000
vt 0.1660 -0.5879 0.0000
vt 0.1660 -0.5977 0.0000
vt 0.1660 -0.6514 0.0000
vt 0.1558 -0.6626 0.0000
vt 0.1440 -0.6733 0.0000
vt 0.1743 -0.5879 0.0000
vt 0.1743 -0.5977 0.0000
vt 0.1743 -0.6514 0.0000
vt 0.1660 -0.6626 0.0000
vt 0.1553 -0.6733 0.0000
vt 0.1831 -0.5879 0.0000
vt 0.1831 -0.5977 0.0000
vt 0.1831 -0.6514 0.0000
vt 0.1763 -0.6626 0.0000
vt 0.1660 -0.6733 0.0000
vt 0.1919 -0.5879 0.0000
vt 0.1919 -0.5977 0.0000
vt 0.1919 -0.6514 0.0000
vt 0.1860 -0.6626 0.0000
vt 0.1772 -0.6733 0.0000
vt 0.2002 -0.5879 0.0000
vt 0.2002 -0.5977 0.0000
vt 0.2002 -0.6514 0.0000
vt 0.1958 -0.6626 0.0000
vt 0.1885 -0.6733 0.0000
vt 0.2046 -0.6626 0.0000
vt 0.1987 -0.6733 0.0000
vt 0.1919 -0.6904 0.0000
vt 0.1787 -0.6904 0.0000
vt 0.1660 -0.6904 0.0000
vt 0.2090 -0.6733 0.0000
vt 0.2051 -0.6904 0.0000
vt 0.1929 -0.6982 0.0000
vt 0.1797 -0.6982 0.0000
vt 0.1660 -0.6982 0.0000
vt 0.1528 -0.6982 0.0000
vt 0.1533 -0.6904 0.0000
vt 0.2188 -0.6904 0.0000
vt 0.2070 -0.6982 0.0000
vt 0.1943 -0.7061 0.0000
vt 0.1807 -0.7061 0.0000
vt 0.1665 -0.7061 0.0000
vt 0.1523 -0.7061 0.0000
vt 0.2222 -0.6982 0.0000
vt 0.2090 -0.7061 0.0000
vt 0.1943 -0.8350 0.0000
vt 0.1807 -0.8350 0.0000
vt 0.1665 -0.8350 0.0000
vt 0.1523 -0.8350 0.0000
vt 0.2236 -0.7061 0.0000
vt 0.2090 -0.8350 0.0000
vt 0.1943 -0.8418 0.0000
vt 0.1807 -0.8418 0.0000
vt 0.1665 -0.8418 0.0000
vt 0.1523 -0.8418 0.0000
vt 0.2236 -0.8350 0.0000
vt 0.2090 -0.8418 0.0000
vt 0.1943 -0.8481 0.0000
vt 0.1807 -0.8481 0.0000
vt 0.1665 -0.8481 0.0000
vt 0.1523 -0.8481 0.0000
vt 0.1382 -0.8481 0.0000
vt 0.1382 -0.8418 0.0000
vt 0.1382 -0.8350 0.0000
vt 0.1382 -0.7061 0.0000
vt 0.1230 -0.8481 0.0000
vt 0.1230 -0.8418 0.0000
vt 0.1230 -0.8350 0.0000
vt 0.1230 -0.7061 0.0000
vt 0.1396 -0.6982 0.0000
vt 0.1406 -0.6904 0.0000
vt 0.1079 -0.8481 0.0000
vt 0.1079 -0.8418 0.0000
vt 0.1079 -0.8350 0.0000
vt 0.1079 -0.7061 0.0000
vt 0.1255 -0.6982 0.0000
vt 0.1274 -0.6904 0.0000
vt 0.1104 -0.6982 0.0000
vt 0.3359 -0.3936 0.0000
vt 0.3218 -0.3936 0.0000
vt 0.3086 -0.3989 0.0000
vt 0.2935 -0.4219 0.0000
vt 0.2988 -0.4087 0.0000
vt 0.3643 -0.4360 0.0000
vt 0.3218 -0.4644 0.0000
vt 0.2988 -0.4487 0.0000
vt 0.2935 -0.4360 0.0000
vt 0.3589 -0.4087 0.0000
vt 0.3643 -0.4219 0.0000
vt 0.3486 -0.3989 0.0000
vt 0.3086 -0.4590 0.0000
vt 0.3359 -0.4644 0.0000
vt 0.3486 -0.4590 0.0000
vt 0.3589 -0.4487 0.0000
# 153 texture coords

g props34_butilikas
usemtl L__Met_textures_props34_props34_butilikas_512
s 1
f -240/-153/-357 -239/-152/-356 -238/-151/-355 
f -237/-150/-354 -236/-149/-353 -235/-148/-352 
f -235/-148/-351 -234/-147/-350 -237/-150/-349 
f -233/-146/-348 -232/-145/-347 -236/-149/-346 
f -231/-144/-345 -230/-143/-344 -232/-145/-343 
f -229/-142/-342 -228/-141/-341 -230/-143/-340 
f -227/-140/-339 -226/-139/-338 -228/-141/-337 
f -225/-138/-336 -224/-137/-335 -226/-139/-334 
f -223/-136/-333 -222/-135/-332 -224/-137/-331 
f -221/-134/-330 -222/-135/-329 -220/-133/-328 
f -220/-133/-328 -219/-132/-327 -221/-134/-326 
f -218/-131/-325 -220/-133/-324 -222/-135/-323 
f -217/-153/-322 -216/-152/-321 -215/-151/-320 
f -214/-150/-319 -213/-149/-318 -220/-130/-317 
f -212/-146/-316 -211/-145/-315 -213/-149/-314 
f -210/-144/-313 -209/-143/-312 -211/-145/-311 
f -208/-142/-310 -207/-141/-309 -209/-143/-308 
f -206/-140/-307 -205/-139/-306 -207/-141/-305 
f -204/-138/-304 -203/-137/-303 -205/-139/-302 
f -202/-136/-301 -201/-135/-300 -203/-137/-299 
f -234/-131/-298 -235/-129/-297 -201/-135/-296 
f -219/-132/-295 -200/-128/-294 -199/-127/-293 
f -199/-127/-293 -221/-134/-292 -219/-132/-295 
f -221/-134/-292 -199/-127/-293 -198/-126/-291 
f -198/-126/-291 -197/-125/-290 -221/-134/-292 
f -197/-125/-290 -198/-126/-291 -196/-124/-289 
f -196/-124/-289 -195/-123/-288 -197/-125/-290 
f -195/-123/-288 -196/-124/-289 -194/-122/-287 
f -194/-122/-287 -193/-121/-286 -195/-123/-288 
f -193/-121/-286 -194/-122/-287 -192/-120/-285 
f -222/-135/-284 -221/-134/-292 -197/-125/-290 
f -197/-125/-290 -224/-137/-283 -222/-135/-284 
f -224/-137/-283 -197/-125/-290 -195/-123/-288 
f -195/-123/-288 -226/-139/-282 -224/-137/-283 
f -226/-139/-282 -195/-123/-288 -193/-121/-286 
f -193/-121/-286 -228/-141/-281 -226/-139/-282 
f -228/-141/-281 -193/-121/-286 -191/-119/-280 
f -192/-120/-285 -191/-119/-280 -193/-121/-286 
f -191/-119/-280 -192/-120/-285 -190/-118/-279 
f -190/-118/-279 -189/-117/-278 -191/-119/-280 
f -189/-117/-278 -190/-118/-279 -188/-116/-277 
f -188/-116/-277 -187/-115/-276 -189/-117/-278 
f -187/-115/-276 -188/-116/-277 -186/-114/-275 
f -186/-114/-275 -185/-113/-274 -187/-115/-276 
f -191/-119/-280 -230/-143/-273 -228/-141/-281 
f -230/-143/-273 -191/-119/-280 -189/-117/-278 
f -189/-117/-278 -232/-145/-272 -230/-143/-273 
f -232/-145/-272 -189/-117/-278 -187/-115/-276 
f -187/-115/-276 -236/-149/-271 -232/-145/-272 
f -236/-149/-271 -187/-115/-276 -185/-113/-274 
f -185/-113/-274 -235/-148/-351 -236/-149/-271 
f -237/-150/-354 -234/-147/-270 -184/-112/-269 
f -184/-112/-269 -183/-111/-268 -237/-150/-354 
f -183/-111/-268 -184/-112/-269 -182/-110/-267 
f -182/-110/-267 -181/-109/-266 -183/-111/-268 
f -180/-108/-265 -181/-109/-266 -182/-110/-267 
f -182/-110/-267 -179/-107/-264 -180/-108/-265 
f -180/-108/-265 -179/-107/-264 -178/-106/-263 
f -233/-146/-348 -237/-150/-354 -183/-111/-268 
f -183/-111/-268 -177/-105/-262 -233/-146/-348 
f -177/-105/-262 -183/-111/-268 -181/-109/-266 
f -181/-109/-266 -176/-104/-261 -177/-105/-262 
f -176/-104/-261 -181/-109/-266 -180/-108/-265 
f -180/-108/-265 -175/-103/-260 -176/-104/-261 
f -175/-103/-260 -180/-108/-265 -174/-102/-259 
f -178/-106/-263 -174/-102/-259 -180/-108/-265 
f -174/-102/-259 -178/-106/-263 -173/-101/-258 
f -236/-149/-271 -237/-150/-354 -233/-146/-348 
f -232/-145/-272 -233/-146/-348 -231/-144/-345 
f -231/-144/-345 -233/-146/-348 -177/-105/-262 
f -177/-105/-262 -172/-100/-257 -231/-144/-345 
f -172/-100/-257 -177/-105/-262 -176/-104/-261 
f -176/-104/-261 -171/-99/-256 -172/-100/-257 
f -171/-99/-256 -176/-104/-261 -175/-103/-260 
f -175/-103/-260 -170/-98/-255 -171/-99/-256 
f -170/-98/-255 -175/-103/-260 -169/-97/-254 
f -174/-102/-259 -169/-97/-254 -175/-103/-260 
f -169/-97/-254 -174/-102/-259 -168/-96/-253 
f -173/-101/-258 -168/-96/-253 -174/-102/-259 
f -168/-96/-253 -173/-101/-258 -167/-95/-252 
f -229/-142/-342 -231/-144/-345 -172/-100/-257 
f -172/-100/-257 -166/-94/-251 -229/-142/-342 
f -166/-94/-251 -172/-100/-257 -171/-99/-256 
f -171/-99/-256 -165/-93/-250 -166/-94/-251 
f -165/-93/-250 -171/-99/-256 -170/-98/-255 
f -170/-98/-255 -164/-92/-249 -165/-93/-250 
f -164/-92/-249 -170/-98/-255 -163/-91/-248 
f -169/-97/-254 -163/-91/-248 -170/-98/-255 
f -163/-91/-248 -169/-97/-254 -162/-90/-247 
f -168/-96/-253 -162/-90/-247 -169/-97/-254 
f -230/-143/-273 -231/-144/-345 -229/-142/-342 
f -228/-141/-281 -229/-142/-342 -227/-140/-339 
f -227/-140/-339 -229/-142/-342 -166/-94/-251 
f -166/-94/-251 -161/-89/-246 -227/-140/-339 
f -161/-89/-246 -166/-94/-251 -165/-93/-250 
f -165/-93/-250 -160/-88/-245 -161/-89/-246 
f -160/-88/-245 -165/-93/-250 -164/-92/-249 
f -164/-92/-249 -159/-87/-244 -160/-88/-245 
f -159/-87/-244 -164/-92/-249 -158/-86/-243 
f -163/-91/-248 -158/-86/-243 -164/-92/-249 
f -158/-86/-243 -163/-91/-248 -157/-85/-242 
f -162/-90/-247 -157/-85/-242 -163/-91/-248 
f -225/-138/-336 -227/-140/-339 -161/-89/-246 
f -161/-89/-246 -156/-84/-241 -225/-138/-336 
f -156/-84/-241 -161/-89/-246 -160/-88/-245 
f -160/-88/-245 -155/-83/-240 -156/-84/-241 
f -155/-83/-240 -160/-88/-245 -159/-87/-244 
f -159/-87/-244 -154/-82/-239 -155/-83/-240 
f -154/-82/-239 -159/-87/-244 -153/-81/-238 
f -158/-86/-243 -153/-81/-238 -159/-87/-244 
f -153/-81/-238 -158/-86/-243 -152/-80/-237 
f -157/-85/-242 -152/-80/-237 -158/-86/-243 
f -226/-139/-282 -227/-140/-339 -225/-138/-336 
f -224/-137/-283 -225/-138/-336 -223/-136/-333 
f -223/-136/-333 -225/-138/-336 -156/-84/-241 
f -156/-84/-241 -151/-79/-236 -223/-136/-333 
f -151/-79/-236 -156/-84/-241 -155/-83/-240 
f -155/-83/-240 -150/-78/-235 -151/-79/-236 
f -150/-78/-235 -155/-83/-240 -154/-82/-239 
f -154/-82/-239 -149/-77/-234 -150/-78/-235 
f -149/-77/-234 -154/-82/-239 -148/-76/-233 
f -153/-81/-238 -148/-76/-233 -154/-82/-239 
f -148/-76/-233 -153/-81/-238 -147/-75/-232 
f -152/-80/-237 -147/-75/-232 -153/-81/-238 
f -218/-131/-325 -223/-136/-333 -151/-79/-236 
f -151/-79/-236 -146/-74/-231 -218/-131/-325 
f -146/-74/-231 -151/-79/-236 -150/-78/-235 
f -150/-78/-235 -145/-73/-230 -146/-74/-231 
f -145/-73/-230 -150/-78/-235 -149/-77/-234 
f -149/-77/-234 -144/-72/-229 -145/-73/-230 
f -144/-72/-229 -149/-77/-234 -143/-71/-228 
f -148/-76/-233 -143/-71/-228 -149/-77/-234 
f -143/-71/-228 -148/-76/-233 -142/-70/-227 
f -147/-75/-232 -142/-70/-227 -148/-76/-233 
f -222/-135/-284 -223/-136/-333 -218/-131/-325 
f -143/-71/-228 -141/-69/-226 -144/-72/-229 
f -141/-69/-226 -143/-71/-228 -140/-68/-225 
f -142/-70/-227 -140/-68/-225 -143/-71/-228 
f -140/-68/-225 -142/-70/-227 -139/-67/-224 
f -138/-66/-223 -139/-67/-224 -142/-70/-227 
f -142/-70/-227 -147/-75/-232 -138/-66/-223 
f -137/-65/-222 -138/-66/-223 -147/-75/-232 
f -147/-75/-232 -152/-80/-237 -137/-65/-222 
f -140/-68/-225 -136/-64/-221 -141/-69/-226 
f -136/-64/-221 -140/-68/-225 -135/-63/-220 
f -139/-67/-224 -135/-63/-220 -140/-68/-225 
f -135/-63/-220 -139/-67/-224 -134/-62/-219 
f -133/-61/-218 -134/-62/-219 -139/-67/-224 
f -139/-67/-224 -138/-66/-223 -133/-61/-218 
f -132/-60/-217 -133/-61/-218 -138/-66/-223 
f -138/-66/-223 -137/-65/-222 -132/-60/-217 
f -131/-59/-216 -132/-60/-217 -137/-65/-222 
f -137/-65/-222 -130/-58/-215 -131/-59/-216 
f -130/-58/-215 -137/-65/-222 -152/-80/-237 
f -152/-80/-237 -157/-85/-242 -130/-58/-215 
f -135/-63/-220 -129/-57/-214 -136/-64/-221 
f -129/-57/-214 -135/-63/-220 -128/-56/-213 
f -134/-62/-219 -128/-56/-213 -135/-63/-220 
f -128/-56/-213 -134/-62/-219 -127/-55/-212 
f -126/-54/-211 -127/-55/-212 -134/-62/-219 
f -134/-62/-219 -133/-61/-218 -126/-54/-211 
f -125/-53/-210 -126/-54/-211 -133/-61/-218 
f -133/-61/-218 -132/-60/-217 -125/-53/-210 
f -124/-52/-209 -125/-53/-210 -132/-60/-217 
f -132/-60/-217 -131/-59/-216 -124/-52/-209 
f -128/-56/-213 -123/-51/-208 -129/-57/-214 
f -123/-51/-208 -128/-56/-213 -122/-50/-207 
f -127/-55/-212 -122/-50/-207 -128/-56/-213 
f -122/-50/-207 -127/-55/-212 -121/-49/-206 
f -120/-48/-205 -121/-49/-206 -127/-55/-212 
f -127/-55/-212 -126/-54/-211 -120/-48/-205 
f -119/-47/-204 -120/-48/-205 -126/-54/-211 
f -126/-54/-211 -125/-53/-210 -119/-47/-204 
f -118/-46/-203 -119/-47/-204 -125/-53/-210 
f -125/-53/-210 -124/-52/-209 -118/-46/-203 
f -122/-50/-207 -117/-45/-202 -123/-51/-208 
f -117/-45/-202 -122/-50/-207 -116/-44/-201 
f -121/-49/-206 -116/-44/-201 -122/-50/-207 
f -116/-44/-201 -121/-49/-206 -115/-43/-200 
f -114/-42/-199 -115/-43/-200 -121/-49/-206 
f -121/-49/-206 -120/-48/-205 -114/-42/-199 
f -113/-41/-198 -114/-42/-199 -120/-48/-205 
f -120/-48/-205 -119/-47/-204 -113/-41/-198 
f -112/-40/-197 -113/-41/-198 -119/-47/-204 
f -119/-47/-204 -118/-46/-203 -112/-40/-197 
f -116/-44/-201 -111/-39/-196 -117/-45/-202 
f -111/-39/-196 -116/-44/-201 -110/-38/-195 
f -115/-43/-200 -110/-38/-195 -116/-44/-201 
f -110/-38/-195 -115/-43/-200 -109/-37/-194 
f -108/-36/-193 -109/-37/-194 -115/-43/-200 
f -115/-43/-200 -114/-42/-199 -108/-36/-193 
f -107/-35/-192 -108/-36/-193 -114/-42/-199 
f -114/-42/-199 -113/-41/-198 -107/-35/-192 
f -106/-34/-191 -107/-35/-192 -113/-41/-198 
f -113/-41/-198 -112/-40/-197 -106/-34/-191 
f -110/-38/-195 -238/-151/-190 -111/-39/-196 
f -238/-151/-190 -110/-38/-195 -240/-153/-189 
f -109/-37/-194 -240/-153/-189 -110/-38/-195 
f -105/-33/-188 -106/-34/-191 -112/-40/-197 
f -112/-40/-197 -104/-32/-187 -105/-33/-188 
f -104/-32/-187 -112/-40/-197 -118/-46/-203 
f -118/-46/-203 -103/-31/-186 -104/-32/-187 
f -103/-31/-186 -118/-46/-203 -124/-52/-209 
f -124/-52/-209 -102/-30/-185 -103/-31/-186 
f -102/-30/-185 -124/-52/-209 -131/-59/-216 
f -101/-29/-184 -105/-33/-188 -104/-32/-187 
f -104/-32/-187 -100/-28/-183 -101/-29/-184 
f -100/-28/-183 -104/-32/-187 -103/-31/-186 
f -103/-31/-186 -99/-27/-182 -100/-28/-183 
f -99/-27/-182 -103/-31/-186 -102/-30/-185 
f -102/-30/-185 -98/-26/-181 -99/-27/-182 
f -98/-26/-181 -102/-30/-185 -97/-25/-180 
f -131/-59/-216 -97/-25/-180 -102/-30/-185 
f -97/-25/-180 -131/-59/-216 -130/-58/-215 
f -130/-58/-215 -96/-24/-179 -97/-25/-180 
f -96/-24/-179 -130/-58/-215 -157/-85/-242 
f -216/-23/-178 -101/-29/-184 -100/-28/-183 
f -100/-28/-183 -215/-22/-177 -216/-23/-178 
f -215/-22/-177 -100/-28/-183 -99/-27/-182 
f -99/-27/-182 -95/-21/-176 -215/-22/-177 
f -95/-21/-176 -99/-27/-182 -98/-26/-181 
f -98/-26/-181 -94/-20/-175 -95/-21/-176 
f -94/-20/-175 -98/-26/-181 -93/-19/-174 
f -97/-25/-180 -93/-19/-174 -98/-26/-181 
f -93/-19/-174 -97/-25/-180 -96/-24/-179 
f -96/-24/-179 -92/-18/-173 -93/-19/-174 
f -92/-18/-173 -96/-24/-179 -162/-90/-247 
f -157/-85/-242 -162/-90/-247 -96/-24/-179 
f -93/-19/-174 -91/-17/-172 -94/-20/-175 
f -91/-17/-172 -93/-19/-174 -92/-18/-173 
f -92/-18/-173 -167/-95/-252 -91/-17/-172 
f -167/-95/-252 -92/-18/-173 -168/-96/-253 
f -162/-90/-247 -168/-96/-253 -92/-18/-173 
f -90/-16/-171 -89/-15/-171 -88/-14/-171 
f -90/-16/-171 -88/-14/-171 -87/-13/-171 
f -88/-14/-171 -86/-12/-171 -87/-13/-171 
f -87/-13/-171 -101/-11/-171 -90/-16/-171 
f -108/-10/-171 -101/-11/-171 -87/-13/-171 
f -87/-13/-171 -240/-9/-171 -108/-10/-171 
f -87/-13/-171 -239/-8/-171 -240/-9/-171 
f -217/-7/-171 -90/-16/-171 -101/-11/-171 
f -101/-11/-171 -216/-6/-171 -217/-7/-171 
f -217/-7/-171 -85/-5/-171 -90/-16/-171 
f -240/-9/-171 -109/-4/-171 -108/-10/-171 
f -108/-10/-171 -107/-3/-171 -106/-2/-171 
f -106/-2/-171 -101/-11/-171 -108/-10/-171 
f -101/-11/-171 -106/-2/-171 -105/-1/-171 
f -185/-132/-170 -186/-128/-169 -84/-127/-168 
f -84/-127/-168 -83/-134/-167 -185/-132/-170 
f -83/-134/-167 -84/-127/-168 -82/-126/-166 
f -82/-126/-166 -81/-125/-165 -83/-134/-167 
f -81/-125/-165 -82/-126/-166 -80/-124/-164 
f -80/-124/-164 -79/-123/-163 -81/-125/-165 
f -79/-123/-163 -80/-124/-164 -78/-122/-162 
f -235/-129/-161 -185/-132/-170 -83/-134/-167 
f -83/-134/-167 -201/-135/-160 -235/-129/-161 
f -201/-135/-160 -83/-134/-167 -81/-125/-165 
f -81/-125/-165 -203/-137/-159 -201/-135/-160 
f -203/-137/-159 -81/-125/-165 -79/-123/-163 
f -79/-123/-163 -205/-139/-158 -203/-137/-159 
f -205/-139/-158 -79/-123/-163 -77/-121/-157 
f -78/-122/-162 -77/-121/-157 -79/-123/-163 
f -77/-121/-157 -78/-122/-162 -76/-120/-156 
f -76/-120/-156 -75/-119/-155 -77/-121/-157 
f -75/-119/-155 -76/-120/-156 -74/-118/-154 
f -74/-118/-154 -73/-117/-153 -75/-119/-155 
f -73/-117/-153 -74/-118/-154 -72/-116/-152 
f -77/-121/-157 -207/-141/-151 -205/-139/-158 
f -207/-141/-151 -77/-121/-157 -75/-119/-155 
f -75/-119/-155 -209/-143/-150 -207/-141/-151 
f -209/-143/-150 -75/-119/-155 -73/-117/-153 
f -73/-117/-153 -211/-145/-149 -209/-143/-150 
f -211/-145/-149 -73/-117/-153 -71/-115/-148 
f -72/-116/-152 -71/-115/-148 -73/-117/-153 
f -71/-115/-148 -72/-116/-152 -200/-114/-147 
f -200/-114/-147 -219/-113/-146 -71/-115/-148 
f -213/-149/-145 -71/-115/-148 -219/-113/-146 
f -219/-113/-146 -220/-130/-144 -213/-149/-145 
f -71/-115/-148 -213/-149/-145 -211/-145/-149 
f -220/-130/-144 -218/-147/-143 -214/-150/-319 
f -214/-150/-319 -218/-147/-143 -146/-112/-142 
f -146/-112/-142 -70/-111/-141 -214/-150/-319 
f -70/-111/-141 -146/-112/-142 -145/-110/-140 
f -145/-110/-140 -69/-109/-139 -70/-111/-141 
f -68/-108/-138 -69/-109/-139 -145/-110/-140 
f -145/-110/-140 -144/-107/-137 -68/-108/-138 
f -68/-108/-138 -144/-107/-137 -141/-106/-136 
f -212/-146/-316 -214/-150/-319 -70/-111/-141 
f -70/-111/-141 -67/-105/-135 -212/-146/-316 
f -67/-105/-135 -70/-111/-141 -69/-109/-139 
f -69/-109/-139 -66/-104/-134 -67/-105/-135 
f -66/-104/-134 -69/-109/-139 -68/-108/-138 
f -68/-108/-138 -65/-103/-133 -66/-104/-134 
f -65/-103/-133 -68/-108/-138 -64/-102/-132 
f -141/-106/-136 -64/-102/-132 -68/-108/-138 
f -64/-102/-132 -141/-106/-136 -136/-101/-131 
f -213/-149/-145 -214/-150/-319 -212/-146/-316 
f -211/-145/-149 -212/-146/-316 -210/-144/-313 
f -210/-144/-313 -212/-146/-316 -67/-105/-135 
f -67/-105/-135 -63/-100/-130 -210/-144/-313 
f -63/-100/-130 -67/-105/-135 -66/-104/-134 
f -66/-104/-134 -62/-99/-129 -63/-100/-130 
f -62/-99/-129 -66/-104/-134 -65/-103/-133 
f -65/-103/-133 -61/-98/-128 -62/-99/-129 
f -61/-98/-128 -65/-103/-133 -60/-97/-127 
f -64/-102/-132 -60/-97/-127 -65/-103/-133 
f -60/-97/-127 -64/-102/-132 -59/-96/-126 
f -136/-101/-131 -59/-96/-126 -64/-102/-132 
f -59/-96/-126 -136/-101/-131 -129/-95/-125 
f -208/-142/-310 -210/-144/-313 -63/-100/-130 
f -63/-100/-130 -58/-94/-124 -208/-142/-310 
f -58/-94/-124 -63/-100/-130 -62/-99/-129 
f -62/-99/-129 -57/-93/-123 -58/-94/-124 
f -57/-93/-123 -62/-99/-129 -61/-98/-128 
f -61/-98/-128 -56/-92/-122 -57/-93/-123 
f -56/-92/-122 -61/-98/-128 -55/-91/-121 
f -60/-97/-127 -55/-91/-121 -61/-98/-128 
f -55/-91/-121 -60/-97/-127 -54/-90/-120 
f -59/-96/-126 -54/-90/-120 -60/-97/-127 
f -209/-143/-150 -210/-144/-313 -208/-142/-310 
f -207/-141/-151 -208/-142/-310 -206/-140/-307 
f -206/-140/-307 -208/-142/-310 -58/-94/-124 
f -58/-94/-124 -53/-89/-119 -206/-140/-307 
f -53/-89/-119 -58/-94/-124 -57/-93/-123 
f -57/-93/-123 -52/-88/-118 -53/-89/-119 
f -52/-88/-118 -57/-93/-123 -56/-92/-122 
f -56/-92/-122 -51/-87/-117 -52/-88/-118 
f -51/-87/-117 -56/-92/-122 -50/-86/-116 
f -55/-91/-121 -50/-86/-116 -56/-92/-122 
f -50/-86/-116 -55/-91/-121 -49/-85/-115 
f -54/-90/-120 -49/-85/-115 -55/-91/-121 
f -204/-138/-304 -206/-140/-307 -53/-89/-119 
f -53/-89/-119 -48/-84/-114 -204/-138/-304 
f -48/-84/-114 -53/-89/-119 -52/-88/-118 
f -52/-88/-118 -47/-83/-113 -48/-84/-114 
f -47/-83/-113 -52/-88/-118 -51/-87/-117 
f -51/-87/-117 -46/-82/-112 -47/-83/-113 
f -46/-82/-112 -51/-87/-117 -45/-81/-111 
f -50/-86/-116 -45/-81/-111 -51/-87/-117 
f -45/-81/-111 -50/-86/-116 -44/-80/-110 
f -49/-85/-115 -44/-80/-110 -50/-86/-116 
f -205/-139/-158 -206/-140/-307 -204/-138/-304 
f -203/-137/-159 -204/-138/-304 -202/-136/-301 
f -202/-136/-301 -204/-138/-304 -48/-84/-114 
f -48/-84/-114 -43/-79/-109 -202/-136/-301 
f -43/-79/-109 -48/-84/-114 -47/-83/-113 
f -47/-83/-113 -42/-78/-108 -43/-79/-109 
f -42/-78/-108 -47/-83/-113 -46/-82/-112 
f -46/-82/-112 -41/-77/-107 -42/-78/-108 
f -41/-77/-107 -46/-82/-112 -40/-76/-106 
f -45/-81/-111 -40/-76/-106 -46/-82/-112 
f -40/-76/-106 -45/-81/-111 -39/-75/-105 
f -44/-80/-110 -39/-75/-105 -45/-81/-111 
f -234/-131/-298 -202/-136/-301 -43/-79/-109 
f -43/-79/-109 -184/-74/-104 -234/-131/-298 
f -184/-74/-104 -43/-79/-109 -42/-78/-108 
f -42/-78/-108 -182/-73/-103 -184/-74/-104 
f -182/-73/-103 -42/-78/-108 -41/-77/-107 
f -41/-77/-107 -179/-72/-102 -182/-73/-103 
f -179/-72/-102 -41/-77/-107 -38/-71/-101 
f -40/-76/-106 -38/-71/-101 -41/-77/-107 
f -38/-71/-101 -40/-76/-106 -37/-70/-100 
f -39/-75/-105 -37/-70/-100 -40/-76/-106 
f -201/-135/-160 -202/-136/-301 -234/-131/-298 
f -38/-71/-101 -178/-69/-99 -179/-72/-102 
f -178/-69/-99 -38/-71/-101 -36/-68/-98 
f -37/-70/-100 -36/-68/-98 -38/-71/-101 
f -36/-68/-98 -37/-70/-100 -35/-67/-97 
f -34/-66/-96 -35/-67/-97 -37/-70/-100 
f -37/-70/-100 -39/-75/-105 -34/-66/-96 
f -33/-65/-95 -34/-66/-96 -39/-75/-105 
f -39/-75/-105 -44/-80/-110 -33/-65/-95 
f -36/-68/-98 -173/-64/-94 -178/-69/-99 
f -173/-64/-94 -36/-68/-98 -32/-63/-93 
f -35/-67/-97 -32/-63/-93 -36/-68/-98 
f -32/-63/-93 -35/-67/-97 -31/-62/-92 
f -30/-61/-91 -31/-62/-92 -35/-67/-97 
f -35/-67/-97 -34/-66/-96 -30/-61/-91 
f -29/-60/-90 -30/-61/-91 -34/-66/-96 
f -34/-66/-96 -33/-65/-95 -29/-60/-90 
f -28/-59/-89 -29/-60/-90 -33/-65/-95 
f -33/-65/-95 -27/-58/-88 -28/-59/-89 
f -27/-58/-88 -33/-65/-95 -44/-80/-110 
f -44/-80/-110 -49/-85/-115 -27/-58/-88 
f -32/-63/-93 -167/-57/-87 -173/-64/-94 
f -167/-57/-87 -32/-63/-93 -26/-56/-86 
f -31/-62/-92 -26/-56/-86 -32/-63/-93 
f -26/-56/-86 -31/-62/-92 -25/-55/-85 
f -24/-54/-84 -25/-55/-85 -31/-62/-92 
f -31/-62/-92 -30/-61/-91 -24/-54/-84 
f -23/-53/-83 -24/-54/-84 -30/-61/-91 
f -30/-61/-91 -29/-60/-90 -23/-53/-83 
f -22/-52/-82 -23/-53/-83 -29/-60/-90 
f -29/-60/-90 -28/-59/-89 -22/-52/-82 
f -26/-56/-86 -91/-51/-81 -167/-57/-87 
f -91/-51/-81 -26/-56/-86 -21/-50/-80 
f -25/-55/-85 -21/-50/-80 -26/-56/-86 
f -21/-50/-80 -25/-55/-85 -20/-49/-79 
f -19/-48/-78 -20/-49/-79 -25/-55/-85 
f -25/-55/-85 -24/-54/-84 -19/-48/-78 
f -18/-47/-77 -19/-48/-78 -24/-54/-84 
f -24/-54/-84 -23/-53/-83 -18/-47/-77 
f -17/-46/-76 -18/-47/-77 -23/-53/-83 
f -23/-53/-83 -22/-52/-82 -17/-46/-76 
f -21/-50/-80 -94/-45/-75 -91/-51/-81 
f -94/-45/-75 -21/-50/-80 -16/-44/-74 
f -20/-49/-79 -16/-44/-74 -21/-50/-80 
f -16/-44/-74 -20/-49/-79 -15/-43/-73 
f -14/-42/-72 -15/-43/-73 -20/-49/-79 
f -20/-49/-79 -19/-48/-78 -14/-42/-72 
f -13/-41/-71 -14/-42/-72 -19/-48/-78 
f -19/-48/-78 -18/-47/-77 -13/-41/-71 
f -12/-40/-70 -13/-41/-71 -18/-47/-77 
f -18/-47/-77 -17/-46/-76 -12/-40/-70 
f -16/-44/-74 -95/-39/-69 -94/-45/-75 
f -95/-39/-69 -16/-44/-74 -11/-38/-68 
f -15/-43/-73 -11/-38/-68 -16/-44/-74 
f -11/-38/-68 -15/-43/-73 -85/-37/-67 
f -90/-36/-66 -85/-37/-67 -15/-43/-73 
f -15/-43/-73 -14/-42/-72 -90/-36/-66 
f -89/-35/-65 -90/-36/-66 -14/-42/-72 
f -14/-42/-72 -13/-41/-71 -89/-35/-65 
f -88/-34/-64 -89/-35/-65 -13/-41/-71 
f -13/-41/-71 -12/-40/-70 -88/-34/-64 
f -11/-38/-68 -215/-151/-63 -95/-39/-69 
f -215/-151/-63 -11/-38/-68 -217/-153/-62 
f -85/-37/-67 -217/-153/-62 -11/-38/-68 
f -86/-33/-61 -88/-34/-64 -12/-40/-70 
f -12/-40/-70 -10/-32/-60 -86/-33/-61 
f -10/-32/-60 -12/-40/-70 -17/-46/-76 
f -17/-46/-76 -9/-31/-59 -10/-32/-60 
f -9/-31/-59 -17/-46/-76 -22/-52/-82 
f -22/-52/-82 -8/-30/-58 -9/-31/-59 
f -8/-30/-58 -22/-52/-82 -28/-59/-89 
f -87/-29/-57 -86/-33/-61 -10/-32/-60 
f -10/-32/-60 -7/-28/-56 -87/-29/-57 
f -7/-28/-56 -10/-32/-60 -9/-31/-59 
f -9/-31/-59 -6/-27/-55 -7/-28/-56 
f -6/-27/-55 -9/-31/-59 -8/-30/-58 
f -8/-30/-58 -5/-26/-54 -6/-27/-55 
f -5/-26/-54 -8/-30/-58 -4/-25/-53 
f -28/-59/-89 -4/-25/-53 -8/-30/-58 
f -4/-25/-53 -28/-59/-89 -27/-58/-88 
f -27/-58/-88 -3/-24/-52 -4/-25/-53 
f -3/-24/-52 -27/-58/-88 -49/-85/-115 
f -239/-23/-51 -87/-29/-57 -7/-28/-56 
f -7/-28/-56 -238/-22/-50 -239/-23/-51 
f -238/-22/-50 -7/-28/-56 -6/-27/-55 
f -6/-27/-55 -111/-21/-49 -238/-22/-50 
f -111/-21/-49 -6/-27/-55 -5/-26/-54 
f -5/-26/-54 -117/-20/-48 -111/-21/-49 
f -117/-20/-48 -5/-26/-54 -2/-19/-47 
f -4/-25/-53 -2/-19/-47 -5/-26/-54 
f -2/-19/-47 -4/-25/-53 -3/-24/-52 
f -3/-24/-52 -1/-18/-46 -2/-19/-47 
f -1/-18/-46 -3/-24/-52 -54/-90/-120 
f -49/-85/-115 -54/-90/-120 -3/-24/-52 
f -2/-19/-47 -123/-17/-45 -117/-20/-48 
f -123/-17/-45 -2/-19/-47 -1/-18/-46 
f -1/-18/-46 -129/-95/-125 -123/-17/-45 
f -129/-95/-125 -1/-18/-46 -59/-96/-126 
f -54/-90/-120 -59/-96/-126 -1/-18/-46 
f -234/-147/-350 -235/-148/-351 -201/-135/-300 
f -220/-133/-324 -219/-132/-295 -221/-134/-292 
f -221/-134/-326 -222/-135/-323 -220/-133/-324 
f -237/-150/-349 -236/-149/-346 -235/-148/-351 
f -201/-135/-300 -202/-136/-44 -234/-131/-44 
f -234/-131/-43 -202/-136/-43 -48/-84/-114 
f -202/-136/-42 -204/-138/-42 -48/-84/-114 
f -203/-137/-303 -204/-138/-41 -202/-136/-41 
f -202/-136/-301 -201/-135/-296 -203/-137/-303 
f -48/-84/-114 -184/-112/-269 -234/-131/-298 
f -184/-112/-269 -48/-84/-114 -38/-71/-101 
f -50/-86/-116 -38/-71/-101 -48/-84/-114 
f -48/-84/-114 -58/-94/-124 -50/-86/-116 
f -58/-94/-124 -48/-84/-40 -204/-138/-40 
f -204/-138/-39 -206/-140/-39 -58/-94/-124 
f -205/-139/-306 -206/-140/-38 -204/-138/-38 
f -204/-138/-304 -203/-137/-299 -205/-139/-306 
f -237/-150/-270 -234/-131/-298 -184/-112/-270 
f -233/-146/-37 -237/-150/-37 -184/-112/-269 
f -184/-112/-269 -176/-104/-261 -233/-146/-348 
f -178/-106/-263 -176/-104/-261 -184/-112/-269 
f -38/-71/-101 -178/-106/-263 -184/-112/-269 
f -178/-106/-263 -38/-71/-101 -31/-62/-92 
f -29/-60/-90 -31/-62/-92 -38/-71/-101 
f -38/-71/-101 -50/-86/-116 -29/-60/-90 
f -235/-129/-297 -234/-131/-298 -237/-150/-354 
f -236/-149/-353 -237/-150/-36 -233/-146/-36 
f -233/-146/-348 -232/-145/-343 -236/-149/-353 
f -219/-132/-327 -220/-133/-328 -213/-149/-318 
f -213/-149/-318 -211/-145/-315 -219/-132/-327 
f -72/-116/-152 -219/-132/-327 -211/-145/-315 
f -72/-116/-152 -211/-145/-315 -209/-143/-312 
f -72/-116/-152 -209/-143/-312 -207/-141/-309 
f -207/-141/-309 -80/-124/-164 -72/-116/-152 
f -80/-124/-164 -207/-141/-309 -203/-137/-303 
f -205/-139/-306 -203/-137/-303 -207/-141/-309 
f -219/-132/-327 -72/-116/-152 -196/-124/-289 
f -196/-124/-289 -221/-134/-292 -219/-132/-327 
f -196/-124/-289 -224/-137/-335 -221/-134/-292 
f -196/-124/-289 -228/-141/-341 -224/-137/-335 
f -228/-141/-341 -196/-124/-289 -188/-116/-277 
f -188/-116/-277 -230/-143/-344 -228/-141/-341 
f -188/-116/-277 -232/-145/-347 -230/-143/-344 
f -188/-116/-277 -235/-148/-352 -232/-145/-347 
f -235/-148/-352 -188/-116/-277 -80/-124/-164 
f -222/-135/-332 -221/-134/-292 -224/-137/-335 
f -236/-149/-353 -232/-145/-347 -235/-148/-352 
f -226/-139/-338 -224/-137/-335 -228/-141/-341 
f -80/-124/-164 -201/-135/-300 -235/-148/-352 
f -80/-124/-164 -203/-137/-303 -201/-135/-300 
f -206/-140/-307 -205/-139/-302 -207/-141/-309 
f -207/-141/-309 -208/-142/-35 -206/-140/-35 
f -206/-140/-34 -208/-142/-34 -58/-94/-124 
f -208/-142/-33 -210/-144/-33 -58/-94/-124 
f -209/-143/-312 -210/-144/-32 -208/-142/-32 
f -208/-142/-310 -207/-141/-305 -209/-143/-312 
f -70/-111/-141 -58/-94/-124 -210/-144/-313 
f -210/-144/-31 -212/-146/-31 -70/-111/-141 
f -211/-145/-315 -212/-146/-30 -210/-144/-30 
f -210/-144/-313 -209/-143/-308 -211/-145/-315 
f -58/-94/-124 -70/-111/-141 -55/-91/-121 
f -141/-69/-226 -55/-91/-121 -70/-111/-141 
f -143/-71/-29 -141/-69/-29 -70/-111/-141 
f -70/-111/-141 -156/-84/-241 -143/-71/-228 
f -156/-84/-241 -70/-111/-141 -218/-131/-325 
f -214/-150/-28 -218/-131/-325 -70/-111/-28 
f -212/-146/-27 -214/-150/-27 -70/-111/-141 
f -55/-91/-26 -50/-86/-26 -58/-94/-124 
f -50/-86/-25 -55/-91/-25 -4/-25/-53 
f -123/-51/-208 -4/-25/-53 -55/-91/-121 
f -55/-91/-121 -141/-69/-226 -123/-51/-208 
f -134/-62/-219 -123/-51/-208 -141/-69/-226 
f -141/-69/-24 -143/-71/-24 -134/-62/-219 
f -132/-60/-217 -134/-62/-219 -143/-71/-228 
f -143/-71/-228 -158/-86/-243 -132/-60/-217 
f -158/-86/-243 -143/-71/-228 -156/-84/-241 
f -4/-25/-53 -29/-60/-90 -50/-86/-116 
f -29/-60/-90 -4/-25/-53 -12/-40/-70 
f -10/-32/-23 -12/-40/-23 -4/-25/-53 
f -4/-25/-53 -123/-51/-208 -10/-32/-60 
f -238/-151/-355 -10/-32/-60 -123/-51/-208 
f -110/-38/-195 -238/-151/-355 -123/-51/-208 
f -123/-51/-208 -134/-62/-219 -110/-38/-195 
f -114/-42/-199 -110/-38/-195 -134/-62/-219 
f -134/-62/-219 -132/-60/-217 -114/-42/-199 
f -12/-40/-70 -14/-42/-72 -29/-60/-90 
f -14/-42/-72 -12/-40/-70 -239/-152/-356 
f -239/-152/-356 -12/-40/-22 -10/-32/-22 
f -10/-32/-60 -238/-151/-355 -239/-152/-356 
f -240/-153/-21 -239/-152/-21 -238/-151/-355 
f -238/-151/-355 -110/-38/-195 -240/-153/-357 
f -114/-42/-199 -240/-153/-357 -110/-38/-195 
f -239/-152/-356 -240/-153/-357 -114/-42/-199 
f -114/-42/-199 -216/-152/-321 -239/-152/-356 
f -112/-40/-197 -216/-152/-321 -114/-42/-199 
f -112/-40/-197 -114/-42/-199 -132/-60/-217 
f -31/-62/-92 -29/-60/-90 -14/-42/-72 
f -14/-42/-72 -11/-38/-68 -31/-62/-92 
f -14/-42/-72 -217/-153/-322 -11/-38/-68 
f -217/-153/-322 -14/-42/-72 -216/-152/-321 
f -239/-152/-356 -216/-152/-321 -14/-42/-72 
f -91/-17/-172 -31/-62/-92 -11/-38/-68 
f -11/-38/-68 -215/-151/-320 -91/-17/-172 
f -215/-151/-320 -11/-38/-68 -217/-153/-322 
f -217/-153/-20 -216/-152/-20 -215/-151/-320 
f -104/-32/-187 -215/-151/-320 -216/-152/-321 
f -216/-152/-321 -112/-40/-19 -104/-32/-19 
f -104/-32/-18 -112/-40/-18 -97/-25/-180 
f -132/-60/-217 -97/-25/-180 -112/-40/-197 
f -97/-25/-180 -132/-60/-217 -158/-86/-243 
f -31/-62/-92 -91/-17/-172 -178/-106/-263 
f -163/-91/-248 -178/-106/-263 -91/-17/-172 
f -91/-17/-172 -97/-25/-180 -163/-91/-248 
f -97/-25/-180 -91/-17/-172 -104/-32/-187 
f -215/-151/-320 -104/-32/-187 -91/-17/-172 
f -178/-106/-263 -163/-91/-248 -176/-104/-261 
f -166/-94/-251 -176/-104/-261 -163/-91/-248 
f -163/-91/-17 -158/-86/-17 -166/-94/-251 
f -158/-86/-16 -163/-91/-16 -97/-25/-180 
f -176/-104/-261 -166/-94/-15 -229/-142/-15 
f -227/-140/-14 -229/-142/-14 -166/-94/-251 
f -225/-138/-13 -227/-140/-13 -166/-94/-251 
f -166/-94/-251 -156/-84/-12 -225/-138/-12 
f -156/-84/-241 -166/-94/-251 -158/-86/-243 
f -229/-142/-11 -231/-144/-11 -176/-104/-261 
f -230/-143/-344 -231/-144/-10 -229/-142/-10 
f -229/-142/-342 -228/-141/-337 -230/-143/-344 
f -231/-144/-9 -233/-146/-9 -176/-104/-261 
f -232/-145/-347 -233/-146/-8 -231/-144/-8 
f -231/-144/-345 -230/-143/-340 -232/-145/-347 
f -226/-139/-338 -227/-140/-7 -225/-138/-7 
f -225/-138/-336 -224/-137/-331 -226/-139/-338 
f -228/-141/-341 -229/-142/-6 -227/-140/-6 
f -227/-140/-339 -226/-139/-334 -228/-141/-341 
f -213/-149/-318 -214/-150/-5 -212/-146/-5 
f -212/-146/-316 -211/-145/-311 -213/-149/-318 
f -220/-133/-328 -218/-131/-325 -214/-150/-319 
f -214/-150/-319 -213/-149/-314 -220/-133/-328 
f -218/-131/-325 -220/-130/-317 -222/-135/-332 
f -222/-135/-332 -223/-136/-4 -218/-131/-4 
f -218/-131/-3 -223/-136/-3 -156/-84/-241 
f -223/-136/-2 -225/-138/-2 -156/-84/-241 
f -224/-137/-335 -225/-138/-1 -223/-136/-1 
f -223/-136/-333 -222/-135/-329 -224/-137/-335 
# 0 polygons - 606 triangles

