# 3ds Max Wavefront OBJ Exporter v0.97b - (c)2007 guruware
# File Created: 29.07.2014 21:38:46

mtllib ShelfAlchemical113.mtl

#
# object Mesh_0113
#

v  1.069946 0.000382 -0.234833
v  1.069946 1.701660 -0.234833
v  1.069946 1.701660 0.234833
v  1.069946 0.000382 0.234833
v  0.944824 0.000382 -0.234833
v  0.944824 0.000382 0.234833
v  0.944824 1.701660 0.234833
v  0.944824 1.701660 -0.234833
v  1.069946 1.926270 0.127258
v  1.069946 1.926270 -0.127258
v  0.944824 1.926270 -0.127258
v  0.944824 1.926270 0.127258
v  0.952759 1.473389 -0.179596
v  0.952759 1.473389 0.190887
v  -0.947876 1.473389 0.190887
v  -0.947876 1.473389 -0.179596
v  0.952759 1.572266 -0.198059
v  -0.947876 1.572266 -0.198059
v  0.952759 1.572266 0.209351
v  -0.947876 1.572266 0.209351
v  -0.947876 1.494141 0.175323
v  0.952759 1.494141 0.175323
v  0.952759 1.494141 -0.164185
v  -0.947876 1.494141 -0.164185
v  0.952759 1.588135 -0.177002
v  -0.947876 1.588135 -0.177002
v  -0.947876 1.588135 0.188293
v  0.952759 1.588135 0.188293
v  0.260925 0.976563 -0.123291
v  0.260925 1.236572 -0.123291
v  0.525208 1.236572 -0.123291
v  0.525208 0.976563 -0.123291
v  0.260925 0.976563 0.153580
v  0.525208 0.976563 0.153580
v  0.525208 1.236572 0.153580
v  0.260925 1.236572 0.153580
v  0.502930 1.434326 -0.101318
v  0.283203 1.434326 -0.101318
v  0.283203 1.434326 0.131531
v  0.502930 1.434326 0.131531
v  0.292053 1.287842 -0.092010
v  0.494080 1.287842 -0.092010
v  0.292053 1.287842 0.122223
v  0.494080 1.287842 0.122223
v  -0.853882 1.491699 -0.123291
v  -0.853882 1.868896 -0.123291
v  -0.589600 1.868896 -0.123291
v  -0.589600 1.491699 -0.123291
v  -0.853882 1.491699 0.153580
v  -0.589600 1.491699 0.153580
v  -0.589600 1.868896 0.153580
v  -0.853882 1.868896 0.153580
v  -0.620728 1.921387 -0.092010
v  -0.822754 1.921387 -0.092010
v  -0.822754 1.921387 0.122223
v  -0.620728 1.921387 0.122223
v  -0.557556 1.916504 0.015383
v  -0.639648 1.916504 -0.127106
v  -0.639648 1.947021 -0.127106
v  -0.557556 1.947021 0.015383
v  -0.804443 1.916504 -0.127106
v  -0.804443 1.947021 -0.127106
v  -0.886841 1.916504 0.015383
v  -0.886841 1.947021 0.015383
v  -0.804443 1.916504 0.157928
v  -0.804443 1.947021 0.157928
v  -0.639648 1.916504 0.157928
v  -0.639648 1.947021 0.157928
v  0.204926 1.492920 -0.111542
v  0.204926 1.679688 -0.111542
v  0.394287 1.679688 -0.111542
v  0.394287 1.492920 -0.111542
v  0.204926 1.492920 0.086670
v  0.394287 1.492920 0.086670
v  0.394287 1.679688 0.086670
v  0.204926 1.679688 0.086670
v  0.378113 1.773682 -0.095825
v  0.220947 1.773682 -0.095825
v  0.220947 1.773682 0.070915
v  0.378113 1.773682 0.070915
v  0.227203 1.716309 -0.089111
v  0.372009 1.716309 -0.089111
v  0.227203 1.716309 0.064240
v  0.372009 1.716309 0.064240
v  -1.055908 0.000382 -0.234833
v  -1.055908 0.000382 0.234833
v  -1.055908 1.701660 0.234833
v  -1.055908 1.701660 -0.234833
v  -0.930786 0.000382 -0.234833
v  -0.930786 1.701660 -0.234833
v  -0.930786 1.701660 0.234833
v  -0.930786 0.000382 0.234833
v  -1.055908 1.926270 0.127258
v  -0.930786 1.926270 0.127258
v  -0.930786 1.926270 -0.127258
v  -1.055908 1.926270 -0.127258
v  0.952759 0.879517 -0.179596
v  0.952759 0.879517 0.190887
v  -0.947876 0.879517 0.190887
v  -0.947876 0.879517 -0.179596
v  0.952759 0.979004 -0.198059
v  -0.947876 0.979004 -0.198059
v  0.952759 0.979004 0.209351
v  -0.947876 0.979004 0.209351
v  -0.947876 0.900879 0.175323
v  0.952759 0.900879 0.175323
v  0.952759 0.900879 -0.164185
v  -0.947876 0.900879 -0.164185
v  0.952759 0.994873 -0.177002
v  -0.947876 0.994873 -0.177002
v  -0.947876 0.994873 0.188293
v  0.952759 0.994873 0.188293
v  0.952759 0.287170 -0.179596
v  0.952759 0.287170 0.190887
v  -0.947876 0.287170 0.190887
v  -0.947876 0.287170 -0.179596
v  0.952759 0.386353 -0.198059
v  -0.947876 0.386353 -0.198059
v  0.952759 0.386353 0.209351
v  -0.947876 0.386353 0.209351
v  -0.947876 0.308685 0.175323
v  0.952759 0.308685 0.175323
v  0.952759 0.308685 -0.164185
v  -0.947876 0.308685 -0.164185
v  0.952759 0.402527 -0.177002
v  -0.947876 0.402527 -0.177002
v  -0.947876 0.402527 0.188293
v  0.952759 0.402527 0.188293
v  -0.535278 0.903931 -0.134430
v  -0.535278 1.077271 -0.134430
v  -0.270844 1.077271 -0.134430
v  -0.270844 0.903931 -0.134430
v  -0.535278 0.903931 0.142517
v  -0.270844 0.903931 0.142517
v  -0.270844 1.077271 0.142517
v  -0.535278 1.077271 0.142517
v  -0.301971 1.129150 -0.103073
v  -0.504150 1.129150 -0.103073
v  -0.504150 1.129150 0.111160
v  -0.301971 1.129150 0.111160
v  -0.238800 1.124268 0.004296
v  -0.321045 1.124268 -0.138168
v  -0.321045 1.155396 -0.138168
v  -0.238800 1.155396 0.004296
v  -0.485535 1.124268 -0.138168
v  -0.485535 1.155396 -0.138168
v  -0.567932 1.124268 0.004296
v  -0.567932 1.155396 0.004296
v  -0.485535 1.124268 0.146790
v  -0.485535 1.155396 0.146790
v  -0.321045 1.124268 0.146790
v  -0.321045 1.155396 0.146790
v  0.859375 1.491699 -0.117035
v  0.859375 2.124023 -0.117035
v  0.859375 2.124023 0.147324
v  0.859375 1.491699 0.147324
v  0.582581 1.491699 -0.117035
v  0.582581 1.491699 0.147324
v  0.582581 2.124023 0.147324
v  0.582581 2.124023 -0.117035
v  0.837402 2.320557 0.125046
v  0.837402 2.320557 -0.094757
v  0.604553 2.320557 -0.094757
v  0.604553 2.320557 0.125046
v  0.828247 2.175293 -0.085983
v  0.828247 2.175293 0.116196
v  0.614014 2.175293 -0.085983
v  0.614014 2.175293 0.116196
v  -0.210724 0.899658 -0.134201
v  -0.210724 1.260986 -0.134201
v  0.053711 1.260986 -0.134201
v  0.053711 0.899658 -0.134201
v  -0.210724 0.899658 0.142746
v  0.053711 0.899658 0.142746
v  0.053711 1.260986 0.142746
v  -0.210724 1.260986 0.142746
v  0.031414 1.458740 -0.112152
v  -0.188446 1.458740 -0.112152
v  -0.188446 1.458740 0.120697
v  0.031414 1.458740 0.120697
v  -0.179596 1.313477 -0.102844
v  0.022602 1.313477 -0.102844
v  -0.179596 1.313477 0.111389
v  0.022602 1.313477 0.111389
v  0.621033 0.890503 -0.122681
v  0.621033 1.077271 -0.122681
v  0.810547 1.077271 -0.122681
v  0.810547 0.890503 -0.122681
v  0.621033 0.890503 0.075607
v  0.810547 0.890503 0.075607
v  0.810547 1.077271 0.075607
v  0.621033 1.077271 0.075607
v  0.794678 1.171875 -0.106888
v  0.637207 1.171875 -0.106888
v  0.637207 1.171875 0.059814
v  0.794678 1.171875 0.059814
v  0.643311 1.113892 -0.100250
v  0.787964 1.113892 -0.100250
v  0.643311 1.113892 0.053139
v  0.787964 1.113892 0.053139
v  -0.609436 0.890503 -0.118179
v  -0.609436 1.077271 -0.118179
v  -0.609436 1.077271 0.071106
v  -0.609436 0.890503 0.071106
v  -0.807495 0.890503 -0.118179
v  -0.807495 0.890503 0.071106
v  -0.807495 1.077271 0.071106
v  -0.807495 1.077271 -0.118179
v  -0.625000 1.171875 0.055161
v  -0.625000 1.171875 -0.102234
v  -0.791626 1.171875 -0.102234
v  -0.791626 1.171875 0.055161
v  -0.631714 1.113892 -0.095901
v  -0.631714 1.113892 0.048866
v  -0.784912 1.113892 -0.095901
v  -0.784912 1.113892 0.048866
v  -0.779419 0.300293 0.147324
v  -0.779419 0.560608 0.147324
v  -0.779419 0.560608 -0.117035
v  -0.779419 0.300293 -0.117035
v  -0.502319 0.300293 0.147324
v  -0.502319 0.300293 -0.117035
v  -0.502319 0.560608 -0.117035
v  -0.502319 0.560608 0.147324
v  -0.756836 0.757446 -0.094757
v  -0.756836 0.757446 0.125046
v  -0.524292 0.757446 0.125046
v  -0.524292 0.757446 -0.094757
v  -0.747681 0.612183 0.116196
v  -0.747681 0.612183 -0.085983
v  -0.533447 0.612183 0.116196
v  -0.533447 0.612183 -0.085983
v  -0.043945 0.310059 -0.107117
v  -0.043945 0.496216 -0.107117
v  -0.043945 0.496216 0.082245
v  -0.043945 0.310059 0.082245
v  -0.242157 0.310059 -0.107117
v  -0.242157 0.310059 0.082245
v  -0.242157 0.496216 0.082245
v  -0.242157 0.496216 -0.107117
v  -0.059738 0.591431 0.066223
v  -0.059738 0.591431 -0.091095
v  -0.226440 0.591431 -0.091095
v  -0.226440 0.591431 0.066223
v  -0.066414 0.533447 -0.084839
v  -0.066414 0.533447 0.059929
v  -0.219727 0.533447 -0.084839
v  -0.219727 0.533447 0.059929
v  0.158081 0.560608 -0.117035
v  0.158081 0.300293 -0.117035
v  0.158081 0.300293 0.147324
v  0.158081 0.560608 0.147324
v  0.434875 0.560608 -0.117035
v  0.434875 0.560608 0.147324
v  0.434875 0.300293 0.147324
v  0.434875 0.300293 -0.117035
v  0.412903 0.757446 0.125046
v  0.412903 0.757446 -0.094757
v  0.180054 0.757446 -0.094757
v  0.180054 0.757446 0.125046
v  0.189362 0.612183 0.116196
v  0.189362 0.612183 -0.085983
v  0.403748 0.612183 0.116196
v  0.403748 0.612183 -0.085983
v  0.876465 0.560608 -0.123291
v  0.876465 0.300293 -0.123291
v  0.611877 0.300293 -0.123291
v  0.611877 0.560608 -0.123291
v  0.876465 0.560608 0.153580
v  0.611877 0.560608 0.153580
v  0.611877 0.300293 0.153580
v  0.876465 0.300293 0.153580
v  0.634155 0.757446 0.131531
v  0.853882 0.757446 0.131531
v  0.853882 0.757446 -0.101318
v  0.634155 0.757446 -0.101318
v  0.642700 0.612183 -0.092010
v  0.845337 0.612183 -0.092010
v  0.642700 0.612183 0.122223
v  0.845337 0.612183 0.122223
v  -0.067978 1.492920 -0.111542
v  -0.067978 1.912842 -0.111542
v  0.121307 1.912842 -0.111542
v  0.121307 1.492920 -0.111542
v  -0.067978 1.492920 0.086670
v  0.121307 1.492920 0.086670
v  0.121307 1.912842 0.086670
v  -0.067978 1.912842 0.086670
v  0.105362 2.008057 -0.095825
v  -0.051994 2.008057 -0.095825
v  -0.051994 2.008057 0.070915
v  0.105362 2.008057 0.070915
v  -0.045700 1.949463 -0.089111
v  0.099030 1.949463 -0.089111
v  -0.045700 1.949463 0.064240
v  0.099030 1.949463 0.064240
# 296 vertices

vn 1.000000 0.000000 -0.000000
vn -1.000000 0.000000 -0.000000
vn 0.000002 -1.000000 0.000001
vn 0.000000 -1.000000 -0.000000
vn 0.000000 -1.000000 0.000000
vn 0.000000 0.000000 1.000000
vn 0.000000 0.221477 0.975166
vn 0.000000 0.226773 0.973948
vn 0.000000 1.000000 -0.000000
vn 0.000000 0.182802 -0.983150
vn 0.000000 0.000000 -1.000000
vn 0.000000 0.221477 -0.975166
vn 0.000000 0.431954 -0.901896
vn 0.000000 0.431954 0.901896
vn 0.000000 -0.183556 -0.983009
vn 0.000000 -0.183556 0.983009
vn 0.000000 0.135113 0.990830
vn 0.000000 0.136692 -0.990614
vn 0.000000 0.798609 -0.601850
vn 0.000000 0.798609 0.601850
vn 0.000000 0.221655 -0.975125
vn 0.000000 0.222114 0.975021
vn 0.975388 0.220494 -0.000000
vn 0.975416 0.220373 -0.000000
vn -0.975388 0.220494 -0.000000
vn -0.975416 0.220373 -0.000000
vn 0.000000 0.520833 -0.853658
vn -0.854787 0.518978 -0.000000
vn 0.000000 0.521758 0.853094
vn 0.854788 0.518978 -0.000000
vn 0.000000 -0.063414 -0.997987
vn -0.998180 -0.060307 -0.000000
vn 0.000000 -0.063414 0.997987
vn 0.998180 -0.060307 -0.000000
vn 0.000000 0.218389 -0.975862
vn 0.000000 0.218844 0.975760
vn 0.976117 0.217246 -0.000000
vn 0.976143 0.217129 -0.000000
vn -0.976117 0.217246 -0.000000
vn -0.976143 0.217129 -0.000000
vn 0.000000 0.511923 -0.859031
vn -0.860129 0.510077 -0.000000
vn 0.000000 0.512843 0.858482
vn 0.860129 0.510076 -0.000000
vn 0.860129 0.510077 -0.000000
vn 0.866482 0.000000 -0.499209
vn -0.865679 0.000000 -0.500600
vn -0.865766 0.000000 0.500449
vn 0.866569 0.000000 0.499058
vn 0.000000 0.222292 -0.974980
vn 0.000000 0.222292 0.974980
vn 0.975349 0.220668 -0.000000
vn -0.975349 0.220668 -0.000000
vn 0.000000 0.522312 -0.852754
vn -0.854336 0.519721 -0.000000
vn 0.000000 0.522312 0.852754
vn 0.854336 0.519721 -0.000000
vn 0.000000 -0.116228 -0.993223
vn -0.994107 -0.108400 -0.000000
vn 0.000000 -0.115577 0.993299
vn 0.994389 -0.105786 -0.000000
vn -0.000002 -1.000000 0.000001
vn -0.000000 -1.000000 0.000000
vn 0.000000 -0.182467 -0.983212
vn 0.000000 -0.182467 0.983212
vn 0.000000 -0.183010 -0.983111
vn 0.000000 -0.183010 0.983111
vn 0.000000 0.135329 0.990801
vn 0.000000 0.136910 -0.990583
vn 0.000000 0.793051 -0.609155
vn 0.000000 0.793051 0.609155
vn 0.000000 0.220469 -0.975394
vn 0.000000 0.220469 0.975394
vn 0.975783 0.218741 -0.000000
vn -0.975783 0.218741 -0.000000
vn 0.000000 0.517269 -0.855823
vn -0.857493 0.514496 -0.000000
vn 0.000000 0.517269 0.855823
vn 0.857493 0.514496 -0.000000
vn 0.866044 0.000000 -0.499967
vn -0.865642 0.000000 -0.500663
vn -0.865686 0.000000 0.500587
vn 0.866088 0.000000 0.499892
vn 0.975306 0.220856 -0.000000
vn 0.975334 0.220735 -0.000000
vn -0.974916 0.222573 -0.000000
vn -0.974888 0.222694 -0.000000
vn 0.000000 0.220735 0.975334
vn 0.000000 0.220252 0.975443
vn 0.000000 0.220275 -0.975438
vn 0.000000 0.219792 -0.975547
vn 0.854787 0.518978 -0.000000
vn 0.000000 0.518048 -0.855352
vn -0.852528 0.522681 -0.000000
vn 0.000000 0.518978 0.854788
vn 0.998020 -0.062900 -0.000000
vn 0.000000 -0.060289 -0.998181
vn -0.997886 -0.064988 -0.000000
vn 0.000000 -0.060812 0.998149
vn 0.000000 0.218844 -0.975760
vn 0.000000 0.218873 -0.975753
vn 0.000000 0.218873 0.975753
vn 0.976168 0.217015 -0.000000
vn 0.000000 0.512843 -0.858482
vn -0.860129 0.510076 -0.000000
vn 0.860266 0.509845 -0.000000
vn 0.000000 -0.063944 -0.997953
vn 0.000000 -0.063945 -0.997953
vn -0.998149 -0.060812 -0.000000
vn 0.000000 -0.063944 0.997953
vn 0.000000 -0.063945 0.997953
vn 0.998165 -0.060550 -0.000000
vn 0.000000 0.221613 -0.975135
vn 0.000000 0.221933 0.975062
vn 0.000000 0.222613 0.974907
vn 0.974765 0.223232 -0.000000
vn 0.974785 0.223147 -0.000000
vn -0.975368 0.220584 -0.000000
vn 0.000000 0.522958 0.852359
vn 0.851171 0.524889 -0.000000
vn 0.000000 -0.113731 -0.993512
vn -0.994505 -0.104685 -0.000000
vn 0.000000 -0.114376 0.993438
vn 0.993363 -0.115021 -0.000000
vn 0.975272 0.221007 -0.000000
vn 0.975253 0.221091 -0.000000
vn -0.974667 0.223659 -0.000000
vn -0.974687 0.223574 -0.000000
vn 0.000000 0.220685 0.975345
vn 0.000000 0.220009 0.975498
vn 0.000000 0.221007 -0.975272
vn 0.000000 0.220330 -0.975425
vn 0.000000 0.519721 -0.854336
vn -0.851171 0.524889 -0.000000
vn 0.000000 0.519071 0.854731
vn 0.000000 -0.108565 -0.994089
vn -0.993363 -0.115021 -0.000000
vn 0.000000 -0.107919 0.994160
vn -0.974688 0.223571 -0.000000
vn -0.974660 0.223692 -0.000000
vn 0.975492 0.220034 -0.000000
vn 0.975519 0.219914 -0.000000
vn 0.000000 0.218498 -0.975837
vn 0.000000 0.219454 -0.975623
vn 0.000000 0.218956 0.975735
vn 0.000000 0.219914 0.975519
vn -0.851658 0.524097 -0.000000
vn 0.000000 0.516729 0.856149
vn 0.856149 0.516729 -0.000000
vn 0.000000 0.515800 -0.856709
vn -0.998020 -0.062900 -0.000000
vn 0.975429 0.220314 -0.000000
vn 0.975448 0.220230 -0.000000
vn -0.975520 0.219912 -0.000000
vn -0.975501 0.219995 -0.000000
vn 0.000000 0.218625 0.975809
vn 0.000000 0.218707 0.975791
vn 0.000000 0.218305 -0.975881
vn 0.000000 0.218388 -0.975862
vn 0.856174 0.516687 -0.000000
vn 0.000000 0.513461 -0.858113
vn -0.856562 0.516044 -0.000000
vn 0.000000 0.514108 0.857725
vn 0.993438 -0.114376 -0.000000
vn 0.000000 -0.107272 -0.994230
vn -0.975285 0.220951 -0.000000
vn -0.975312 0.220831 -0.000000
vn 0.000000 0.219215 -0.975677
vn 0.000000 0.219674 0.975573
vn -0.855028 0.518582 -0.000000
vn -0.997953 -0.063944 -0.000000
vn 0.000000 0.220831 -0.975312
vn 0.000000 0.221312 -0.975203
vn 0.000000 0.221289 0.975208
vn 0.000000 0.221770 0.975099
vn 0.975600 0.219554 -0.000000
vn 0.975573 0.219674 -0.000000
vn -0.976012 0.217716 -0.000000
vn -0.975986 0.217835 -0.000000
vn 0.000000 0.518582 -0.855028
vn -0.858388 0.513001 -0.000000
vn 0.000000 0.519506 0.854467
vn -0.998274 -0.058722 -0.000000
vn 0.998274 -0.058722 -0.000000
vn 0.000000 -0.113838 -0.993499
vn -0.994280 -0.106807 -0.000000
vn 0.000000 -0.113200 0.993572
vn 0.994211 -0.107447 -0.000000
# 188 vertex normals

vt 0.990723 0.293945 0.000000
vt 0.170166 0.293945 0.000000
vt 0.170288 0.067383 0.000000
vt 0.990723 0.067383 0.000000
vt 1.464844 1.538574 0.000000
vt 0.170288 0.006836 0.000000
vt 0.990723 0.006836 0.000000
vt 0.062042 0.119141 0.000000
vt 0.061981 0.241699 0.000000
vt 0.001552 0.241699 0.000000
vt 0.001552 0.119141 0.000000
vt 0.050323 0.066895 0.000000
vt 0.050323 0.006836 0.000000
vt 0.995605 0.814575 0.000000
vt 0.995605 0.991791 0.000000
vt 0.003328 0.991791 0.000000
vt 0.003328 0.814575 0.000000
vt 0.995605 0.765137 0.000000
vt 0.003328 0.765137 0.000000
vt 0.995605 0.698730 0.000000
vt 0.995605 0.751343 0.000000
vt 0.003328 0.751343 0.000000
vt 0.003328 0.698730 0.000000
vt 0.387451 0.517822 0.000000
vt 0.554688 0.518799 0.000000
vt 0.554688 0.684326 0.000000
vt 0.387451 0.684326 0.000000
vt 0.389160 0.340820 0.000000
vt 0.556641 0.342773 0.000000
vt 0.083923 0.489258 0.000000
vt 0.083923 0.375977 0.000000
vt 0.203857 0.375977 0.000000
vt 0.203857 0.489258 0.000000
vt 0.593262 0.537109 0.000000
vt 0.593262 0.666992 0.000000
vt 0.595215 0.363770 0.000000
vt 0.593262 0.501465 0.000000
vt 0.009125 0.485352 0.000000
vt 0.009125 0.380371 0.000000
vt 0.088257 0.301270 0.000000
vt 0.199585 0.301270 0.000000
vt 0.278564 0.380371 0.000000
vt 0.278564 0.485352 0.000000
vt 0.199585 0.564209 0.000000
vt 0.088257 0.564209 0.000000
vt 0.806152 0.505615 0.000000
vt 0.925293 0.507813 0.000000
vt 0.946289 0.320313 0.000000
vt 0.822754 0.308105 0.000000
vt 0.814941 0.694824 0.000000
vt 0.938965 0.687012 0.000000
vt 0.968262 0.508301 0.000000
vt 0.987305 0.349121 0.000000
vt 0.981445 0.659668 0.000000
vt 0.484375 0.311523 0.000000
vt 0.570313 0.311523 0.000000
vt 0.570313 0.323730 0.000000
vt 0.484375 0.323730 0.000000
vt 0.656250 0.311523 0.000000
vt 0.656250 0.323730 0.000000
vt 0.737305 0.311523 0.000000
vt 0.737305 0.323730 0.000000
vt 0.809082 0.311523 0.000000
vt 0.809082 0.323730 0.000000
vt 0.331543 0.311523 0.000000
vt 0.403320 0.311523 0.000000
vt 0.403320 0.323730 0.000000
vt 0.331543 0.323730 0.000000
vt 0.042542 0.629639 0.000000
vt 0.075806 0.572021 0.000000
vt 0.075806 0.687256 0.000000
vt 0.799805 0.512451 0.000000
vt 0.643555 0.511963 0.000000
vt 0.642090 0.355957 0.000000
vt 0.800293 0.354980 0.000000
vt 0.797363 0.670410 0.000000
vt 0.640625 0.666748 0.000000
vt 0.243530 0.644287 0.000000
vt 0.243530 0.547607 0.000000
vt 0.345947 0.547607 0.000000
vt 0.345947 0.644287 0.000000
vt 0.607910 0.501709 0.000000
vt 0.605469 0.377441 0.000000
vt 0.604492 0.656494 0.000000
vt 0.606445 0.524658 0.000000
vt 0.207642 0.640381 0.000000
vt 0.207642 0.551514 0.000000
vt 0.247559 0.511719 0.000000
vt 0.341797 0.511719 0.000000
vt 0.381836 0.551514 0.000000
vt 0.381836 0.640381 0.000000
vt 0.341797 0.680176 0.000000
vt 0.247559 0.680176 0.000000
vt 0.142334 0.572021 0.000000
vt 0.142334 0.687256 0.000000
vt 0.175659 0.629639 0.000000
# 96 texture coords

g Mesh_0113
usemtl Tex_0113_0_dds
s 1
f 1/1/1 2/2/1 3/3/1 
s 2
f 3/3/1 4/4/1 1/1/1 
s 3
f 5/4/2 6/1/2 7/2/2 
s 4
f 7/2/2 8/3/2 5/4/2 
s 5
f 1/5/3 4/5/4 6/5/5 
s 6
f 6/5/5 5/5/3 1/5/3 
s 7
f 4/4/6 3/3/7 7/6/8 
s 8
f 7/6/6 6/7/6 4/4/6 
s 9
f 9/8/9 10/9/9 11/10/9 
s 10
f 11/10/9 12/11/9 9/8/9 
s 11
f 2/6/10 1/7/11 5/4/11 
s 12
f 5/4/11 8/3/12 2/6/10 
s 13
f 3/3/1 2/2/1 10/9/1 
s 14
f 10/9/1 9/8/1 3/3/1 
s 15
f 2/6/10 8/3/12 11/12/13 
s 16
f 11/12/13 10/13/13 2/6/13 
s 17
f 8/3/2 7/2/2 12/9/2 
s 18
f 12/9/2 11/8/2 8/3/2 
s 19
f 7/6/8 3/3/7 9/12/14 
s 20
f 9/12/14 12/13/14 7/6/8 
s 21
f 13/14/4 14/15/4 15/16/4 
s 22
f 15/16/4 16/17/4 13/14/4 
s 23
f 17/18/15 13/14/15 16/17/15 
s 24
f 16/17/15 18/19/15 17/18/15 
s 25
f 14/20/16 19/21/16 20/22/16 
s 26
f 20/22/16 15/23/16 14/20/16 
s 27
f 21/17/9 22/14/9 23/15/9 
s 28
f 23/15/9 24/16/9 21/17/9 
s 29
f 24/23/17 23/20/17 25/21/17 
s 30
f 25/21/17 26/22/17 24/23/17 
s 31
f 27/19/18 28/18/18 22/14/18 
s 32
f 22/14/18 21/17/18 27/19/18 
s 33
f 26/22/19 25/21/19 17/18/19 
s 34
f 17/18/19 18/19/19 26/22/19 
s 35
f 28/18/20 27/19/20 20/22/20 
s 36
f 20/22/20 19/21/20 28/18/20 
s 37
f 29/24/11 30/25/21 31/26/21 
s 38
f 31/26/21 32/27/11 29/24/11 
s 39
f 33/27/6 34/24/6 35/25/22 
s 40
f 35/25/22 36/26/22 33/27/6 
s 41
f 32/28/1 31/29/23 35/25/24 
s 42
f 35/25/24 34/24/1 32/28/1 
s 43
f 37/30/9 38/31/9 39/32/9 
s 44
f 39/32/9 40/33/9 37/30/9 
s 45
f 30/25/25 29/24/2 33/28/2 
s 46
f 33/28/2 36/29/26 30/25/25 
s 47
f 31/26/21 30/25/21 41/34/27 
s 48
f 41/34/27 42/35/27 31/26/21 
s 49
f 30/25/25 36/29/26 43/36/28 
s 50
f 43/36/28 41/37/28 30/25/25 
s 51
f 36/26/22 35/25/22 44/34/29 
s 52
f 44/34/29 43/35/29 36/26/22 
s 53
f 35/25/24 31/29/23 42/36/30 
s 54
f 42/36/30 44/37/30 35/25/24 
s 55
f 42/38/31 41/39/31 38/31/31 
s 56
f 38/31/31 37/30/31 42/38/31 
s 57
f 41/40/32 43/41/32 39/32/32 
s 58
f 39/32/32 38/31/32 41/40/32 
s 59
f 43/42/33 44/43/33 40/33/33 
s 60
f 40/33/33 39/32/33 43/42/33 
s 61
f 44/44/34 42/45/34 37/30/34 
s 62
f 37/30/34 40/33/34 44/44/34 
s 63
f 45/46/11 46/47/35 47/48/35 
s 64
f 47/48/35 48/49/11 45/46/11 
s 65
f 49/50/6 50/46/6 51/47/36 
s 66
f 51/47/36 52/51/36 49/50/6 
s 67
f 48/49/1 47/48/37 51/47/38 
s 68
f 51/47/38 50/46/1 48/49/1 
s 69
f 53/5/9 54/5/9 55/5/9 
s 70
f 55/5/9 56/5/9 53/5/9 
s 71
f 46/47/39 45/46/2 49/50/2 
s 72
f 49/50/2 52/51/40 46/47/39 
s 73
f 47/48/35 46/47/35 54/52/41 
s 74
f 54/52/41 53/53/41 47/48/35 
s 75
f 46/47/39 52/51/40 55/54/42 
s 76
f 55/54/42 54/52/42 46/47/39 
s 77
f 52/51/36 51/47/36 56/52/43 
s 78
f 56/52/43 55/54/43 52/51/36 
s 79
f 51/47/38 47/48/37 53/53/44 
s 80
f 53/53/44 56/52/45 51/47/38 
s 81
f 57/55/46 58/56/46 59/57/46 
s 82
f 59/57/46 60/58/46 57/55/46 
s 83
f 58/56/11 61/59/11 62/60/11 
s 84
f 62/60/11 59/57/11 58/56/11 
s 85
f 61/59/47 63/61/47 64/62/47 
s 86
f 64/62/47 62/60/47 61/59/47 
s 87
f 63/61/48 65/63/48 66/64/48 
s 88
f 66/64/48 64/62/48 63/61/48 
s 89
f 65/65/6 67/66/6 68/67/6 
s 90
f 68/67/6 66/68/6 65/65/6 
s 91
f 67/66/49 57/55/49 60/58/49 
s 92
f 60/58/49 68/67/49 67/66/49 
s 93
f 65/5/4 63/5/4 61/5/4 
s 94
f 61/5/4 57/5/4 65/5/4 
s 95
f 64/69/9 66/70/9 62/71/9 
s 96
f 69/72/11 70/73/50 71/74/50 
s 97
f 71/74/50 72/75/11 69/72/11 
s 98
f 73/75/6 74/72/6 75/73/51 
s 99
f 75/73/51 76/74/51 73/75/6 
s 100
f 69/5/4 72/5/4 74/5/4 
s 101
f 74/5/4 73/5/4 69/5/4 
s 102
f 72/76/1 71/77/52 75/73/52 
s 103
f 75/73/52 74/72/1 72/76/1 
s 104
f 77/78/9 78/79/9 79/80/9 
s 105
f 79/80/9 80/81/9 77/78/9 
s 106
f 70/73/53 69/72/2 73/76/2 
s 107
f 73/76/2 76/77/53 70/73/53 
s 108
f 71/74/50 70/73/50 81/82/54 
s 109
f 81/82/54 82/83/54 71/74/50 
s 110
f 70/73/53 76/77/53 83/84/55 
s 111
f 83/84/55 81/85/55 70/73/53 
s 112
f 76/74/51 75/73/51 84/82/56 
s 113
f 84/82/56 83/83/56 76/74/51 
s 114
f 75/73/52 71/77/52 82/84/57 
s 115
f 82/84/57 84/85/57 75/73/52 
s 116
f 82/86/58 81/87/58 78/79/58 
s 117
f 78/79/58 77/78/58 82/86/58 
s 118
f 81/88/59 83/89/59 79/80/59 
s 119
f 79/80/59 78/79/59 81/88/59 
s 120
f 83/90/60 84/91/60 80/81/60 
s 121
f 80/81/60 79/80/60 83/90/60 
s 122
f 84/92/61 82/93/61 77/78/61 
s 123
f 77/78/61 80/81/61 84/92/61 
s 124
f 85/1/2 86/4/2 87/3/2 
s 125
f 87/3/2 88/2/2 85/1/2 
s 126
f 89/4/1 90/3/1 91/2/1 
s 127
f 91/2/1 92/1/1 89/4/1 
s 128
f 85/5/62 89/5/62 92/5/63 
s 129
f 92/5/63 86/5/4 85/5/62 
s 130
f 86/4/6 92/7/6 91/6/7 
s 131
f 91/6/7 87/3/7 86/4/6 
s 132
f 93/8/9 94/11/9 95/10/9 
s 133
f 95/10/9 96/9/9 93/8/9 
s 134
f 88/6/12 90/3/12 89/4/11 
s 135
f 89/4/11 85/7/11 88/6/12 
s 136
f 87/3/2 93/8/2 96/9/2 
s 137
f 96/9/2 88/2/2 87/3/2 
s 138
f 88/6/12 96/13/13 95/12/13 
s 139
f 95/12/13 90/3/12 88/6/12 
s 140
f 90/3/1 95/8/1 94/9/1 
s 141
f 94/9/1 91/2/1 90/3/1 
s 142
f 91/6/7 94/13/14 93/12/14 
s 143
f 93/12/14 87/3/7 91/6/7 
s 144
f 97/14/4 98/15/4 99/16/4 
s 145
f 99/16/4 100/17/4 97/14/4 
s 146
f 101/18/64 97/14/64 100/17/64 
s 147
f 100/17/64 102/19/64 101/18/64 
s 148
f 98/20/65 103/21/65 104/22/65 
s 149
f 104/22/65 99/23/65 98/20/65 
s 150
f 105/17/9 106/14/9 107/15/9 
s 151
f 107/15/9 108/16/9 105/17/9 
s 152
f 108/23/17 107/20/17 109/21/17 
s 153
f 109/21/17 110/22/17 108/23/17 
s 154
f 111/19/18 112/18/18 106/14/18 
s 155
f 106/14/18 105/17/18 111/19/18 
s 156
f 110/22/19 109/21/19 101/18/19 
s 157
f 101/18/19 102/19/19 110/22/19 
s 158
f 112/18/20 111/19/20 104/22/20 
s 159
f 104/22/20 103/21/20 112/18/20 
s 160
f 113/14/4 114/15/4 115/16/4 
s 161
f 115/16/4 116/17/4 113/14/4 
s 162
f 117/18/66 113/14/66 116/17/66 
s 163
f 116/17/66 118/19/66 117/18/66 
s 164
f 114/20/67 119/21/67 120/22/67 
s 165
f 120/22/67 115/23/67 114/20/67 
s 166
f 121/17/9 122/14/9 123/15/9 
s 167
f 123/15/9 124/16/9 121/17/9 
s 168
f 124/23/68 123/20/68 125/21/68 
s 169
f 125/21/68 126/22/68 124/23/68 
s 170
f 127/19/69 128/18/69 122/14/69 
s 171
f 122/14/69 121/17/69 127/19/69 
s 172
f 126/22/70 125/21/70 117/18/70 
s 173
f 117/18/70 118/19/70 126/22/70 
s 174
f 128/18/71 127/19/71 120/22/71 
s 175
f 120/22/71 119/21/71 128/18/71 
s 176
f 129/46/11 130/47/72 131/48/72 
s 177
f 131/48/72 132/49/11 129/46/11 
s 178
f 133/50/6 134/46/6 135/47/73 
s 179
f 135/47/73 136/51/73 133/50/6 
s 180
f 132/49/1 131/48/74 135/47/74 
s 181
f 135/47/74 134/46/1 132/49/1 
s 182
f 137/5/9 138/5/9 139/5/9 
s 183
f 139/5/9 140/5/9 137/5/9 
s 184
f 130/47/75 129/46/2 133/50/2 
s 185
f 133/50/2 136/51/75 130/47/75 
s 186
f 131/48/72 130/47/72 138/52/76 
s 187
f 138/52/76 137/53/76 131/48/72 
s 188
f 130/47/75 136/51/75 139/54/77 
s 189
f 139/54/77 138/52/77 130/47/75 
s 190
f 136/51/73 135/47/73 140/52/78 
s 191
f 140/52/78 139/54/78 136/51/73 
s 192
f 135/47/74 131/48/74 137/53/79 
s 193
f 137/53/79 140/52/79 135/47/74 
s 194
f 141/55/80 142/56/80 143/57/80 
s 195
f 143/57/80 144/58/80 141/55/80 
s 196
f 142/56/11 145/59/11 146/60/11 
s 197
f 146/60/11 143/57/11 142/56/11 
s 198
f 145/59/81 147/61/81 148/62/81 
s 199
f 148/62/81 146/60/81 145/59/81 
s 200
f 147/61/82 149/63/82 150/64/82 
s 201
f 150/64/82 148/62/82 147/61/82 
s 202
f 149/65/6 151/66/6 152/67/6 
s 203
f 152/67/6 150/68/6 149/65/6 
s 204
f 151/66/83 141/55/83 144/58/83 
s 205
f 144/58/83 152/67/83 151/66/83 
s 206
f 149/5/4 147/5/4 145/5/4 
s 207
f 145/5/4 141/5/4 149/5/4 
s 208
f 148/69/9 150/70/9 146/71/9 
s 209
f 153/24/1 154/25/84 155/26/85 
s 210
f 155/26/85 156/27/1 153/24/1 
s 211
f 157/27/2 158/24/2 159/25/86 
s 212
f 159/25/86 160/26/87 157/27/2 
s 213
f 156/28/6 155/29/88 159/25/89 
s 214
f 159/25/89 158/24/6 156/28/6 
s 215
f 161/30/9 162/31/9 163/32/9 
s 216
f 163/32/9 164/33/9 161/30/9 
s 217
f 154/25/90 153/24/11 157/28/11 
s 218
f 157/28/11 160/29/91 154/25/90 
s 219
f 155/26/85 154/25/84 165/34/92 
s 220
f 165/34/92 166/35/30 155/26/85 
s 221
f 154/25/90 160/29/91 167/36/93 
s 222
f 167/36/93 165/37/93 154/25/90 
s 223
f 160/26/87 159/25/86 168/34/94 
s 224
f 168/34/94 167/35/94 160/26/87 
s 225
f 159/25/89 155/29/88 166/36/95 
s 226
f 166/36/95 168/37/95 159/25/89 
s 227
f 166/38/96 165/39/96 162/31/96 
s 228
f 162/31/96 161/30/96 166/38/96 
s 229
f 165/40/97 167/41/97 163/32/97 
s 230
f 163/32/97 162/31/97 165/40/97 
s 231
f 167/42/98 168/43/98 164/33/98 
s 232
f 164/33/98 163/32/98 167/42/98 
s 233
f 168/44/99 166/45/99 161/30/99 
s 234
f 161/30/99 164/33/99 168/44/99 
s 235
f 169/24/11 170/25/100 171/26/101 
s 236
f 171/26/101 172/27/11 169/24/11 
s 237
f 173/27/6 174/24/6 175/25/102 
s 238
f 175/25/102 176/26/36 173/27/6 
s 239
f 172/28/1 171/29/103 175/25/103 
s 240
f 175/25/103 174/24/1 172/28/1 
s 241
f 177/30/9 178/31/9 179/32/9 
s 242
f 179/32/9 180/33/9 177/30/9 
s 243
f 170/25/40 169/24/2 173/28/2 
s 244
f 173/28/2 176/29/40 170/25/40 
s 245
f 171/26/101 170/25/100 181/34/104 
s 246
f 181/34/104 182/35/104 171/26/101 
s 247
f 170/25/40 176/29/40 183/36/105 
s 248
f 183/36/105 181/37/42 170/25/40 
s 249
f 176/26/36 175/25/102 184/34/43 
s 250
f 184/34/43 183/35/43 176/26/36 
s 251
f 175/25/103 171/29/103 182/36/106 
s 252
f 182/36/106 184/37/106 175/25/103 
s 253
f 182/38/107 181/39/108 178/31/108 
s 254
f 178/31/108 177/30/107 182/38/107 
s 255
f 181/40/109 183/41/109 179/32/109 
s 256
f 179/32/109 178/31/109 181/40/109 
s 257
f 183/42/110 184/43/111 180/33/110 
s 258
f 180/33/110 179/32/110 183/42/110 
s 259
f 184/44/112 182/45/112 177/30/112 
s 260
f 177/30/112 180/33/112 184/44/112 
s 261
f 185/72/11 186/73/50 187/74/113 
s 262
f 187/74/113 188/75/11 185/72/11 
s 263
f 189/75/6 190/72/6 191/73/114 
s 264
f 191/73/114 192/74/115 189/75/6 
s 265
f 185/5/4 188/5/4 190/5/4 
s 266
f 190/5/4 189/5/4 185/5/4 
s 267
f 188/76/1 187/77/116 191/73/117 
s 268
f 191/73/117 190/72/1 188/76/1 
s 269
f 193/78/9 194/79/9 195/80/9 
s 270
f 195/80/9 196/81/9 193/78/9 
s 271
f 186/73/53 185/72/2 189/76/2 
s 272
f 189/76/2 192/77/118 186/73/53 
s 273
f 187/74/113 186/73/50 197/82/54 
s 274
f 197/82/54 198/83/54 187/74/113 
s 275
f 186/73/53 192/77/118 199/84/55 
s 276
f 199/84/55 197/85/55 186/73/53 
s 277
f 192/74/115 191/73/114 200/82/119 
s 278
f 200/82/119 199/83/119 192/74/115 
s 279
f 191/73/117 187/77/116 198/84/120 
s 280
f 198/84/120 200/85/120 191/73/117 
s 281
f 198/86/121 197/87/121 194/79/121 
s 282
f 194/79/121 193/78/121 198/86/121 
s 283
f 197/88/122 199/89/122 195/80/122 
s 284
f 195/80/122 194/79/122 197/88/122 
s 285
f 199/90/123 200/91/123 196/81/123 
s 286
f 196/81/123 195/80/123 199/90/123 
s 287
f 200/92/124 198/93/124 193/78/124 
s 288
f 193/78/124 196/81/124 200/92/124 
s 289
f 201/72/1 202/73/125 203/74/126 
s 290
f 203/74/126 204/75/1 201/72/1 
s 291
f 205/75/2 206/72/2 207/73/127 
s 292
f 207/73/127 208/74/128 205/75/2 
s 293
f 201/5/4 204/5/4 206/5/4 
s 294
f 206/5/4 205/5/4 201/5/4 
s 295
f 204/76/6 203/77/129 207/73/130 
s 296
f 207/73/130 206/72/6 204/76/6 
s 297
f 209/78/9 210/79/9 211/80/9 
s 298
f 211/80/9 212/81/9 209/78/9 
s 299
f 202/73/131 201/72/11 205/76/11 
s 300
f 205/76/11 208/77/132 202/73/131 
s 301
f 203/74/126 202/73/125 213/82/57 
s 302
f 213/82/57 214/83/57 203/74/126 
s 303
f 202/73/131 208/77/132 215/84/133 
s 304
f 215/84/133 213/85/133 202/73/131 
s 305
f 208/74/128 207/73/127 216/82/134 
s 306
f 216/82/134 215/83/134 208/74/128 
s 307
f 207/73/130 203/77/129 214/84/135 
s 308
f 214/84/135 216/85/135 207/73/130 
s 309
f 214/86/124 213/87/124 210/79/124 
s 310
f 210/79/124 209/78/124 214/86/124 
s 311
f 213/88/136 215/89/136 211/80/136 
s 312
f 211/80/136 210/79/136 213/88/136 
s 313
f 215/90/137 216/91/137 212/81/137 
s 314
f 212/81/137 211/80/137 215/90/137 
s 315
f 216/92/138 214/93/138 209/78/138 
s 316
f 209/78/138 212/81/138 216/92/138 
s 317
f 217/24/2 218/25/139 219/26/140 
s 318
f 219/26/140 220/27/2 217/24/2 
s 319
f 221/27/1 222/24/1 223/25/141 
s 320
f 223/25/141 224/26/142 221/27/1 
s 321
f 220/28/11 219/29/143 223/25/144 
s 322
f 223/25/144 222/24/11 220/28/11 
s 323
f 225/30/9 226/31/9 227/32/9 
s 324
f 227/32/9 228/33/9 225/30/9 
s 325
f 218/25/145 217/24/6 221/28/6 
s 326
f 221/28/6 224/29/146 218/25/145 
s 327
f 219/26/140 218/25/139 229/34/147 
s 328
f 229/34/147 230/35/147 219/26/140 
s 329
f 218/25/145 224/29/146 231/36/148 
s 330
f 231/36/148 229/37/148 218/25/145 
s 331
f 224/26/142 223/25/141 232/34/149 
s 332
f 232/34/149 231/35/149 224/26/142 
s 333
f 223/25/144 219/29/143 230/36/150 
s 334
f 230/36/150 232/37/150 223/25/144 
s 335
f 230/38/151 229/39/151 226/31/151 
s 336
f 226/31/151 225/30/151 230/38/151 
s 337
f 229/40/99 231/41/99 227/32/99 
s 338
f 227/32/99 226/31/99 229/40/99 
s 339
f 231/42/96 232/43/96 228/33/96 
s 340
f 228/33/96 227/32/96 231/42/96 
s 341
f 232/44/97 230/45/97 225/30/97 
s 342
f 225/30/97 228/33/97 232/44/97 
s 343
f 233/72/1 234/73/152 235/74/153 
s 344
f 235/74/153 236/75/1 233/72/1 
s 345
f 237/75/2 238/72/2 239/73/154 
s 346
f 239/73/154 240/74/155 237/75/2 
s 347
f 233/5/4 236/5/4 238/5/4 
s 348
f 238/5/4 237/5/4 233/5/4 
s 349
f 236/76/6 235/77/156 239/73/157 
s 350
f 239/73/157 238/72/6 236/76/6 
s 351
f 241/78/9 242/79/9 243/80/9 
s 352
f 243/80/9 244/81/9 241/78/9 
s 353
f 234/73/158 233/72/11 237/76/11 
s 354
f 237/76/11 240/77/159 234/73/158 
s 355
f 235/74/153 234/73/152 245/82/160 
s 356
f 245/82/160 246/83/160 235/74/153 
s 357
f 234/73/158 240/77/159 247/84/161 
s 358
f 247/84/161 245/85/161 234/73/158 
s 359
f 240/74/155 239/73/154 248/82/162 
s 360
f 248/82/162 247/83/162 240/74/155 
s 361
f 239/73/157 235/77/156 246/84/163 
s 362
f 246/84/163 248/85/163 239/73/157 
s 363
f 246/86/164 245/87/164 242/79/164 
s 364
f 242/79/164 241/78/164 246/86/164 
s 365
f 245/88/165 247/89/165 243/80/165 
s 366
f 243/80/165 242/79/165 245/88/165 
s 367
f 247/90/137 248/91/137 244/81/137 
s 368
f 244/81/137 243/80/137 247/90/137 
s 369
f 248/92/138 246/93/138 241/78/138 
s 370
f 241/78/138 244/81/138 248/92/138 
s 371
f 249/26/166 250/27/2 251/24/2 
s 372
f 251/24/2 252/25/167 249/26/166 
s 373
f 253/25/141 254/26/142 255/27/1 
s 374
f 255/27/1 256/24/1 253/25/141 
s 375
f 253/25/144 256/24/11 250/28/11 
s 376
f 250/28/11 249/29/168 253/25/144 
s 377
f 257/32/9 258/33/9 259/30/9 
s 378
f 259/30/9 260/31/9 257/32/9 
s 379
f 255/28/6 254/29/146 252/25/169 
s 380
f 252/25/169 251/24/6 255/28/6 
s 381
f 261/34/170 262/35/170 249/26/166 
s 382
f 249/26/166 252/25/167 261/34/170 
s 383
f 263/36/148 261/37/148 252/25/169 
s 384
f 252/25/169 254/29/146 263/36/148 
s 385
f 264/34/149 263/35/149 254/26/142 
s 386
f 254/26/142 253/25/141 264/34/149 
s 387
f 262/36/150 264/37/150 253/25/144 
s 388
f 253/25/144 249/29/168 262/36/150 
s 389
f 260/31/171 259/30/171 262/38/171 
s 390
f 262/38/171 261/39/171 260/31/171 
s 391
f 257/32/99 260/31/99 261/40/99 
s 392
f 261/40/99 263/41/99 257/32/99 
s 393
f 258/33/96 257/32/96 263/42/96 
s 394
f 263/42/96 264/43/96 258/33/96 
s 395
f 259/30/97 258/33/97 264/44/97 
s 396
f 264/44/97 262/45/97 259/30/97 
s 397
f 265/26/172 266/27/11 267/24/11 
s 398
f 267/24/11 268/25/173 265/26/172 
s 399
f 269/25/174 270/26/175 271/27/6 
s 400
f 271/27/6 272/24/6 269/25/174 
s 401
f 269/25/176 272/24/1 266/28/1 
s 402
f 266/28/1 265/29/177 269/25/176 
s 403
f 273/32/9 274/33/9 275/30/9 
s 404
f 275/30/9 276/31/9 273/32/9 
s 405
f 271/28/2 270/29/178 268/25/179 
s 406
f 268/25/179 267/24/2 271/28/2 
s 407
f 277/34/180 278/35/180 265/26/172 
s 408
f 265/26/172 268/25/173 277/34/180 
s 409
f 279/36/181 277/37/181 268/25/179 
s 410
f 268/25/179 270/29/178 279/36/181 
s 411
f 280/34/182 279/35/182 270/26/175 
s 412
f 270/26/175 269/25/174 280/34/182 
s 413
f 278/36/149 280/37/149 269/25/176 
s 414
f 269/25/176 265/29/177 278/36/149 
s 415
f 276/31/107 275/30/107 278/38/108 
s 416
f 278/38/108 277/39/107 276/31/107 
s 417
f 273/32/183 276/31/183 277/40/183 
s 418
f 277/40/183 279/41/183 273/32/183 
s 419
f 274/33/110 273/32/110 279/42/111 
s 420
f 279/42/111 280/43/110 274/33/110 
s 421
f 275/30/184 274/33/184 280/44/184 
s 422
f 280/44/184 278/45/184 275/30/184 
s 423
f 61/5/4 58/5/4 57/5/4 
s 424
f 67/5/4 65/5/4 57/5/4 
s 425
f 145/5/4 142/5/4 141/5/4 
s 426
f 151/5/4 149/5/4 141/5/4 
s 427
f 68/94/9 59/95/9 62/71/9 
s 428
f 62/71/9 66/70/9 68/94/9 
s 429
f 68/94/9 60/96/9 59/95/9 
s 430
f 152/94/9 144/96/9 143/95/9 
s 431
f 152/94/9 143/95/9 146/71/9 
s 432
f 146/71/9 150/70/9 152/94/9 
s 433
f 281/72/11 282/73/50 283/74/50 
s 434
f 283/74/50 284/75/11 281/72/11 
s 435
f 285/75/6 286/72/6 287/73/51 
s 436
f 287/73/51 288/74/51 285/75/6 
s 437
f 281/5/4 284/5/4 286/5/4 
s 438
f 286/5/4 285/5/4 281/5/4 
s 439
f 284/76/1 283/77/52 287/73/52 
s 440
f 287/73/52 286/72/1 284/76/1 
s 441
f 289/78/9 290/79/9 291/80/9 
s 442
f 291/80/9 292/81/9 289/78/9 
s 443
f 282/73/53 281/72/2 285/76/2 
s 444
f 285/76/2 288/77/53 282/73/53 
s 445
f 283/74/50 282/73/50 293/82/54 
s 446
f 293/82/54 294/83/54 283/74/50 
s 447
f 282/73/53 288/77/53 295/84/55 
s 448
f 295/84/55 293/85/55 282/73/53 
s 449
f 288/74/51 287/73/51 296/82/56 
s 450
f 296/82/56 295/83/56 288/74/51 
s 451
f 287/73/52 283/77/52 294/84/57 
s 452
f 294/84/57 296/85/57 287/73/52 
s 453
f 294/86/185 293/87/185 290/79/185 
s 454
f 290/79/185 289/78/185 294/86/185 
s 455
f 293/88/186 295/89/186 291/80/186 
s 456
f 291/80/186 290/79/186 293/88/186 
s 457
f 295/90/187 296/91/187 292/81/187 
s 458
f 292/81/187 291/80/187 295/90/187 
s 459
f 296/92/188 294/93/188 289/78/188 
s 460
f 289/78/188 292/81/188 296/92/188 
# 0 polygons - 460 triangles