# Blender v2.82 (sub 7) OBJ File: ''
# www.blender.org
mtllib towerShape_0_1.mtl
o towerShape_0.001
v 0.250899 0.151423 0.234493
v 0.299252 0.171323 0.514293
v 0.249690 0.167223 0.521521
v 0.196714 0.146923 0.239807
v 0.197017 0.142323 -0.005275
v 0.195430 0.162723 0.520089
v 0.135670 0.158723 0.504382
v 0.135912 0.142823 0.229120
v 0.136257 0.138023 -0.005197
v 0.072056 0.156023 0.474081
v 0.073304 0.140223 0.221157
v 0.073808 0.134223 -0.005295
v 0.005040 0.153523 0.384877
v 0.006136 0.139023 0.208878
v 0.004905 0.154823 0.398237
v 0.006612 0.133123 -0.005209
v -0.111787 0.150123 0.349030
v -0.110540 0.135623 0.183712
v -0.110149 0.129623 -0.005342
v -0.251227 0.146423 0.318596
v -0.250050 0.131523 0.158594
v -0.249568 0.125623 -0.005199
v -0.376017 0.148523 0.296877
v -0.374809 0.133623 0.153377
v -0.374378 0.127623 -0.005296
v -0.500826 0.150523 0.279077
v -0.499580 0.135623 0.148255
v -0.499112 0.129723 -0.005180
v 0.300913 0.149523 -0.005230
v 0.301829 0.138623 -0.005329
v 0.301397 0.144623 0.233505
v 0.300502 0.155523 0.233408
v 0.299252 0.171323 0.514293
v 0.299988 0.162623 0.506531
v -0.611384 0.322723 0.140414
v -0.612249 0.336723 0.277009
v -0.612916 0.421223 0.278549
v -0.612569 0.421223 -0.005155
v -0.611357 0.315423 -0.005222
v -0.602030 0.530023 0.278309
v -0.601904 0.526623 -0.005208
v -0.582685 0.635123 0.270542
v -0.582598 0.633423 -0.005139
v -0.554866 0.717523 0.140477
v -0.556758 0.710823 0.248401
v -0.553920 0.719323 -0.005263
v -0.380376 0.266623 0.297210
v -0.503940 0.316623 0.279041
v -0.500826 0.150523 0.279077
v -0.376017 0.148523 0.296877
v -0.256767 0.220223 0.319605
v -0.251227 0.146423 0.318596
v -0.111931 0.179523 0.349422
v -0.111787 0.150123 0.349030
v 0.005040 0.153523 0.384877
v -0.502665 0.301023 0.144205
v -0.500826 0.150523 0.279077
v -0.503940 0.316623 0.279041
v -0.499580 0.135623 0.148255
v -0.499112 0.129723 -0.005180
v -0.502139 0.293723 -0.005105
v 0.005040 0.153523 0.384877
v 0.004905 0.154823 0.398237
v -0.114152 0.180923 0.369997
v -0.111931 0.179523 0.349422
v -0.256836 0.221623 0.342630
v -0.256767 0.220223 0.319605
v -0.380399 0.267523 0.321644
v -0.380376 0.266623 0.297210
v -0.504039 0.317223 0.300457
v -0.503940 0.316623 0.279041
v -0.503940 0.316623 0.279041
v -0.612249 0.336723 0.277009
v -0.611384 0.322723 0.140414
v -0.502665 0.301023 0.144205
v -0.611357 0.315423 -0.005222
v -0.502139 0.293723 -0.005105
v -0.115480 0.876623 0.171711
v -0.124241 0.890723 -0.005251
v -0.124241 0.876823 -0.005251
v -0.115523 0.895523 0.179554
v -0.054324 0.884223 0.396275
v -0.057448 0.926423 0.396333
v 0.227399 1.054923 -0.005317
v 0.178213 1.045523 -0.005296
v 0.227444 1.054923 0.230954
v 0.178319 1.045523 0.229471
v 0.124596 1.025023 -0.005244
v 0.124617 1.025023 0.230317
v 0.178347 1.045523 0.516231
v 0.227538 1.055023 0.514298
v 0.069591 0.996223 -0.005354
v 0.124963 1.025123 0.509462
v 0.069607 0.996223 0.218145
v 0.069654 0.996223 0.490722
v 0.006811 0.961723 -0.005188
v 0.006817 0.961723 0.208148
v 0.006928 0.961723 0.451260
v -0.124241 0.890723 -0.005251
v -0.115523 0.895523 0.179554
v -0.057448 0.926423 0.396333
v 0.226668 1.064123 0.233484
v 0.226602 1.064123 -0.005403
v 0.227399 1.054923 -0.005317
v 0.227444 1.054923 0.230954
v 0.226694 1.064123 0.506264
v 0.227538 1.055023 0.514298
v 0.228187 1.058523 0.517588
v 0.229036 1.047623 0.523716
v 0.262347 0.852223 0.514230
v 0.262330 0.852223 0.523689
v 0.289402 0.626023 0.514237
v 0.289375 0.626023 0.523790
v 0.300269 0.391023 0.514205
v 0.300343 0.391023 0.523763
v 0.299845 0.179023 0.523709
v 0.299252 0.171323 0.514293
v 0.298763 0.169023 0.516962
v 0.299988 0.162623 0.506531
v 0.006928 0.961723 0.451260
v -0.057448 0.926423 0.396333
v -0.054324 0.884223 0.396275
v 0.022638 0.763223 0.452956
v 0.087700 0.786623 0.497802
v 0.069654 0.996223 0.490722
v -0.041930 0.731623 0.397001
v -0.166248 0.855823 0.364374
v 0.039607 0.570023 0.458810
v 0.105254 0.582523 0.502910
v 0.143018 0.806223 0.516446
v 0.161420 0.594723 0.521142
v 0.124963 1.025123 0.509462
v -0.027424 0.552423 0.399574
v -0.154948 0.691423 0.376157
v -0.297289 0.820523 0.328804
v 0.055258 0.361823 0.474079
v 0.120387 0.364923 0.504339
v 0.178433 0.371723 0.520065
v 0.196025 0.827523 0.520153
v 0.214966 0.606623 0.523601
v 0.232495 0.377923 0.521476
v 0.178347 1.045523 0.516231
v -0.011762 0.359623 0.407301
v -0.142072 0.531923 0.378950
v -0.291233 0.658623 0.354709
v 0.195430 0.162723 0.520089
v -0.394606 0.786023 0.299499
v 0.004905 0.154823 0.398237
v 0.072056 0.156023 0.474081
v 0.135670 0.158723 0.504382
v 0.289402 0.626023 0.514237
v 0.262347 0.852223 0.514230
v 0.300269 0.391023 0.514205
v 0.227538 1.055023 0.514298
v -0.127926 0.355523 0.379278
v -0.114152 0.180923 0.369997
v -0.399947 0.639323 0.324767
v -0.278947 0.512023 0.359248
v -0.484678 0.746423 0.270161
v -0.256836 0.221623 0.342630
v -0.395106 0.505723 0.333036
v -0.500368 0.631723 0.295326
v -0.556758 0.710823 0.248401
v -0.267083 0.361323 0.353694
v -0.387479 0.376523 0.328529
v -0.380399 0.267523 0.321644
v -0.502196 0.507323 0.306687
v -0.503423 0.402423 0.303137
v -0.504039 0.317223 0.300457
v -0.602030 0.530023 0.278309
v -0.582685 0.635123 0.270542
v -0.612916 0.421223 0.278549
v -0.612249 0.336723 0.277009
v 0.299252 0.171323 0.514293
v 0.249690 0.167223 0.521521
v 0.298763 0.169023 0.516962
v 0.299988 0.162623 0.506531
v 0.386365 0.176823 0.516058
v 0.386987 0.169623 0.506569
v -0.115480 0.876623 0.171711
v -0.166248 0.855823 0.364374
v -0.054324 0.884223 0.396275
v -0.196843 0.855623 0.165141
v -0.124241 0.876823 -0.005251
v -0.297289 0.820523 0.328804
v -0.297512 0.826823 0.158501
v -0.201288 0.855323 -0.005216
v -0.394606 0.786023 0.299499
v -0.297629 0.828123 -0.005357
v -0.394715 0.792423 0.151427
v -0.484678 0.746423 0.270161
v -0.394798 0.793823 -0.005288
v -0.484624 0.754323 -0.005223
v -0.484673 0.753023 0.144337
v -0.556758 0.710823 0.248401
v -0.554866 0.717523 0.140477
v -0.553920 0.719323 -0.005263
v 0.314136 1.066523 0.517111
v 0.228187 1.058523 0.517588
v 0.315008 1.055223 0.523943
v 0.229036 1.047623 0.523716
v 0.328679 0.887723 0.524010
v 0.262330 0.852223 0.523689
v 0.349099 0.648523 0.524002
v 0.289375 0.626023 0.523790
v 0.367507 0.408723 0.523974
v 0.300343 0.391023 0.523763
v 0.299845 0.179023 0.523709
v 0.385727 0.185823 0.523831
v 0.386365 0.176823 0.516058
v 0.298763 0.169023 0.516962
v -0.503940 0.316623 0.279041
v -0.504039 0.317223 0.300457
v -0.612249 0.336723 0.277009
v 0.028916 0.094623 -0.203458
v 0.028905 0.020723 0.025865
v -0.064173 0.094723 -0.190880
v -0.139649 0.094823 -0.136462
v -0.196338 0.094823 -0.064129
v -0.209773 0.094923 0.025852
v -0.196347 0.094823 0.115807
v -0.139500 0.094823 0.188332
v -0.064183 0.094723 0.242528
v 0.028897 0.094623 0.255188
v 0.028910 0.140623 -0.155887
v 0.102545 0.140623 -0.145727
v 0.028901 0.103323 -0.204263
v 0.122277 0.103223 -0.191570
v 0.197865 0.103123 -0.137045
v 0.162169 0.140623 -0.102680
v 0.206876 0.140623 -0.045349
v 0.254799 0.103023 -0.064415
v 0.217304 0.140623 0.025781
v 0.268189 0.102923 0.025842
v 0.206914 0.140623 0.096876
v 0.254736 0.103023 0.116019
v 0.197904 0.103123 0.188738
v 0.162191 0.140623 0.154308
v 0.102618 0.140623 0.197463
v 0.122316 0.103223 0.243246
v 0.028909 0.103323 0.255993
v 0.028890 0.140623 0.207713
v 0.028897 0.094623 0.255188
v 0.028905 0.020723 0.025865
v 0.121983 0.094723 0.242604
v 0.197449 0.094823 0.188287
v 0.254238 0.094923 0.115965
v 0.267594 0.094923 0.025778
v 0.254158 0.094923 -0.064082
v 0.197324 0.094823 -0.136702
v 0.313590 1.072323 -0.005264
v 0.226604 1.064123 -0.243977
v 0.226602 1.064123 -0.005403
v 0.313520 1.072323 -0.517132
v 0.226610 1.064123 -0.517052
v 0.228011 1.058523 -0.528172
v 0.122014 0.094723 -0.190999
v 0.028916 0.094623 -0.203458
v 0.028890 0.140623 0.207713
v -0.064467 0.103223 0.243300
v 0.028909 0.103323 0.255993
v -0.044843 0.140623 0.197542
v -0.140062 0.103123 0.188871
v -0.104369 0.140623 0.154505
v -0.149062 0.140623 0.097074
v -0.196986 0.103023 0.116145
v -0.159591 0.140623 0.025939
v -0.210390 0.102923 0.025983
v -0.197012 0.103023 -0.064405
v -0.149079 0.140623 -0.045347
v -0.104380 0.140623 -0.102584
v -0.140080 0.103123 -0.137114
v -0.044815 0.140623 -0.145638
v -0.064506 0.103223 -0.191515
v 0.028910 0.140623 -0.155887
v 0.028901 0.103323 -0.204263
v -0.139500 0.094823 0.188332
v -0.140062 0.103123 0.188871
v -0.196347 0.094823 0.115807
v -0.196986 0.103023 0.116145
v -0.209773 0.094923 0.025852
v -0.210390 0.102923 0.025983
v -0.196338 0.094823 -0.064129
v -0.197012 0.103023 -0.064405
v -0.140080 0.103123 -0.137114
v -0.139649 0.094823 -0.136462
v 0.028901 0.103323 -0.204263
v 0.028916 0.094623 -0.203458
v -0.064506 0.103223 -0.191515
v -0.064173 0.094723 -0.190880
v -0.139649 0.094823 -0.136462
v -0.140080 0.103123 -0.137114
v 0.197865 0.103123 -0.137045
v 0.197324 0.094823 -0.136702
v 0.122277 0.103223 -0.191570
v 0.122014 0.094723 -0.190999
v 0.028901 0.103323 -0.204263
v 0.028916 0.094623 -0.203458
v 0.197324 0.094823 -0.136702
v 0.197865 0.103123 -0.137045
v 0.254799 0.103023 -0.064415
v 0.254158 0.094923 -0.064082
v 0.268189 0.102923 0.025842
v 0.267594 0.094923 0.025778
v 0.254238 0.094923 0.115965
v 0.254736 0.103023 0.116019
v 0.197449 0.094823 0.188287
v 0.197904 0.103123 0.188738
v 0.028909 0.103323 0.255993
v 0.028897 0.094623 0.255188
v 0.122316 0.103223 0.243246
v 0.121983 0.094723 0.242604
v 0.197904 0.103123 0.188738
v 0.197449 0.094823 0.188287
v -0.140062 0.103123 0.188871
v -0.139500 0.094823 0.188332
v -0.064467 0.103223 0.243300
v -0.064183 0.094723 0.242528
v 0.028909 0.103323 0.255993
v 0.028897 0.094623 0.255188
v 0.316147 0.019423 0.140650
v 0.247814 0.017723 0.236972
v 0.247814 0.002223 0.236972
v 0.316147 0.000523 0.140650
v 0.338391 0.017723 0.025877
v 0.338391 0.002223 0.025877
v 0.316078 0.019423 -0.088879
v 0.316078 0.000523 -0.088879
v 0.247728 0.017723 -0.185271
v 0.247728 0.002223 -0.185271
v 0.147812 0.019423 -0.251079
v 0.247728 0.017723 -0.185271
v 0.247728 0.002223 -0.185271
v 0.147812 0.000523 -0.251079
v 0.028841 0.017723 -0.272667
v 0.028841 0.002223 -0.272667
v -0.090058 0.019423 -0.251101
v 0.028841 0.017723 -0.272667
v 0.028841 0.002223 -0.272667
v -0.090058 0.000523 -0.251101
v -0.190003 0.017723 -0.185247
v -0.190003 0.002223 -0.185247
v -0.258344 0.019423 -0.088825
v -0.190003 0.017723 -0.185247
v -0.190003 0.002223 -0.185247
v -0.258344 0.000523 -0.088825
v -0.280679 0.017723 0.025842
v -0.280679 0.002223 0.025842
v -0.258279 0.019423 0.140710
v -0.258279 0.000523 0.140710
v -0.189925 0.017723 0.237097
v -0.189925 0.002223 0.237097
v -0.090013 0.019423 0.302904
v -0.189925 0.017723 0.237097
v -0.189925 0.002223 0.237097
v -0.090013 0.000523 0.302904
v 0.028970 0.017723 0.324391
v 0.028970 0.002223 0.324391
v 0.147872 0.019423 0.302826
v 0.028970 0.017723 0.324391
v 0.028970 0.002223 0.324391
v 0.147872 0.000523 0.302826
v 0.247814 0.017723 0.236972
v 0.247814 0.002223 0.236972
v 0.338391 0.002223 0.025877
v 0.316147 0.000523 0.140650
v 0.316078 0.000523 -0.088879
v 0.247814 0.002223 0.236972
v 0.247728 0.002223 -0.185271
v 0.147812 0.000523 -0.251079
v 0.147872 0.000523 0.302826
v 0.028841 0.002223 -0.272667
v 0.028970 0.002223 0.324391
v 0.028841 0.017723 -0.272667
v -0.090058 0.019423 -0.251101
v 0.028905 0.116923 0.025865
v -0.190003 0.017723 -0.185247
v -0.258344 0.019423 -0.088825
v -0.280679 0.017723 0.025842
v -0.258279 0.019423 0.140710
v -0.189925 0.017723 0.237097
v -0.090013 0.019423 0.302904
v 0.028970 0.017723 0.324391
v 0.028970 0.017723 0.324391
v 0.147872 0.019423 0.302826
v 0.028905 0.116923 0.025865
v 0.247814 0.017723 0.236972
v 0.316147 0.019423 0.140650
v 0.338391 0.017723 0.025877
v 0.316078 0.019423 -0.088879
v 0.247728 0.017723 -0.185271
v 0.147812 0.019423 -0.251079
v 0.028841 0.017723 -0.272667
v -0.258279 0.000523 0.140710
v -0.280679 0.002223 0.025842
v -0.258344 0.000523 -0.088825
v -0.190003 0.002223 -0.185247
v -0.189925 0.002223 0.237097
v -0.090013 0.000523 0.302904
v -0.090058 0.000523 -0.251101
v 0.028970 0.002223 0.324391
v 0.028841 0.002223 -0.272667
v 0.375348 0.316323 -0.419027
v 0.388452 0.151323 -0.244109
v 0.386867 0.169623 -0.517356
v 0.386263 0.176823 -0.526678
v 0.385809 0.185823 -0.534575
v 0.367697 0.408823 -0.534515
v 0.348383 0.648023 -0.418922
v 0.375974 0.316323 -0.005473
v 0.388915 0.145423 -0.005179
v 0.348294 0.648423 -0.534601
v 0.388416 0.151323 0.233341
v 0.375470 0.316323 0.408265
v 0.328772 0.887823 -0.534490
v 0.322850 0.949423 -0.419064
v 0.313972 1.066523 -0.527844
v 0.301344 0.144623 -0.244057
v 0.299849 0.162623 -0.517199
v 0.386867 0.169623 -0.517356
v 0.388452 0.151323 -0.244109
v 0.301829 0.138623 -0.005329
v 0.388915 0.145423 -0.005179
v 0.300428 0.155523 -0.243958
v 0.300913 0.149523 -0.005230
v 0.251340 0.146323 -0.005347
v 0.250873 0.151423 -0.245182
v 0.299171 0.171323 -0.524916
v 0.197017 0.142323 -0.005275
v 0.196623 0.146923 -0.250432
v 0.249564 0.167223 -0.532177
v 0.195292 0.162723 -0.530696
v 0.135553 0.158723 -0.514915
v 0.135910 0.142823 -0.239588
v 0.136257 0.138023 -0.005197
v 0.071953 0.156023 -0.484766
v 0.073220 0.140223 -0.231870
v 0.073808 0.134223 -0.005295
v 0.004969 0.153523 -0.395337
v 0.006103 0.139023 -0.219499
v 0.004827 0.154823 -0.408931
v 0.006612 0.133123 -0.005209
v -0.111845 0.150123 -0.359565
v -0.110577 0.135623 -0.194276
v -0.110149 0.129623 -0.005342
v -0.251214 0.146423 -0.329148
v -0.249994 0.131523 -0.168995
v -0.249568 0.125623 -0.005199
v -0.376088 0.148523 -0.307219
v -0.374854 0.133623 -0.163959
v -0.374378 0.127623 -0.005296
v -0.500909 0.150523 -0.289517
v -0.499648 0.135623 -0.158623
v -0.499112 0.129723 -0.005180
v 0.363184 0.331423 -0.005343
v 0.362727 0.331423 -0.404599
v 0.338190 0.645923 -0.404633
v 0.338326 0.645923 -0.005208
v 0.362725 0.331423 0.394012
v 0.314844 0.933823 -0.404539
v 0.338289 0.645923 0.393989
v 0.314088 0.933723 -0.005210
v 0.314943 0.933823 0.394083
v 0.301344 0.144623 -0.244057
v 0.301829 0.138623 -0.005329
v 0.300913 0.149523 -0.005230
v 0.300428 0.155523 -0.243958
v 0.299171 0.171323 -0.524916
v 0.299849 0.162623 -0.517199
v -0.613019 0.421223 -0.288945
v -0.612275 0.336723 -0.287455
v -0.611438 0.322723 -0.150773
v -0.612569 0.421223 -0.005155
v -0.602074 0.530023 -0.288764
v -0.611357 0.315423 -0.005222
v -0.601904 0.526623 -0.005208
v -0.582790 0.635123 -0.281053
v -0.582598 0.633423 -0.005139
v -0.554907 0.717523 -0.150804
v -0.556836 0.710823 -0.258738
v -0.553920 0.719323 -0.005263
v -0.380464 0.266623 -0.307691
v -0.500909 0.150523 -0.289517
v -0.504034 0.316623 -0.289447
v -0.376088 0.148523 -0.307219
v -0.256839 0.220223 -0.330156
v -0.251214 0.146423 -0.329148
v -0.112001 0.179523 -0.359984
v -0.111845 0.150123 -0.359565
v 0.004969 0.153523 -0.395337
v -0.504034 0.316623 -0.289447
v -0.500909 0.150523 -0.289517
v -0.499648 0.135623 -0.158623
v -0.502773 0.301023 -0.154835
v -0.502139 0.293723 -0.005105
v -0.499112 0.129723 -0.005180
v 0.004969 0.153523 -0.395337
v -0.114318 0.180923 -0.380449
v 0.004827 0.154823 -0.408931
v -0.112001 0.179523 -0.359984
v -0.256966 0.221623 -0.353203
v -0.256839 0.220223 -0.330156
v -0.380440 0.267523 -0.332131
v -0.380464 0.266623 -0.307691
v -0.504025 0.317223 -0.310974
v -0.504034 0.316623 -0.289447
v -0.504034 0.316623 -0.289447
v -0.611438 0.322723 -0.150773
v -0.612275 0.336723 -0.287455
v -0.502773 0.301023 -0.154835
v -0.611357 0.315423 -0.005222
v -0.502139 0.293723 -0.005105
v -0.115498 0.876623 -0.182235
v -0.124241 0.876823 -0.005251
v -0.124241 0.890723 -0.005251
v -0.115556 0.895523 -0.190083
v -0.054448 0.884223 -0.406780
v -0.057551 0.926423 -0.406911
v 0.227399 1.054923 -0.005317
v 0.227363 1.054923 -0.241683
v 0.178213 1.045523 -0.005296
v 0.178193 1.045523 -0.239952
v 0.124596 1.025023 -0.005244
v 0.178166 1.045523 -0.526712
v 0.124576 1.025023 -0.240811
v 0.227346 1.055023 -0.524821
v 0.069591 0.996223 -0.005354
v 0.124847 1.025123 -0.520093
v 0.069542 0.996223 -0.228544
v 0.006811 0.961723 -0.005188
v 0.069524 0.996223 -0.501424
v 0.006814 0.961723 -0.218619
v 0.006812 0.961723 -0.461821
v -0.115556 0.895523 -0.190083
v -0.124241 0.890723 -0.005251
v 0.006812 0.961723 -0.461821
v -0.057551 0.926423 -0.406911
v 0.227399 1.054923 -0.005317
v 0.226602 1.064123 -0.005403
v 0.226604 1.064123 -0.243977
v 0.227363 1.054923 -0.241683
v 0.226610 1.064123 -0.517052
v 0.227346 1.055023 -0.524821
v 0.228011 1.058523 -0.528172
v 0.228985 1.047623 -0.534398
v 0.262256 0.852223 -0.524877
v 0.262279 0.852223 -0.534425
v 0.289300 0.626023 -0.524770
v 0.289324 0.626023 -0.534324
v 0.300292 0.391023 -0.534351
v 0.300167 0.391023 -0.524808
v 0.299794 0.179023 -0.534405
v 0.299171 0.171323 -0.524916
v 0.298645 0.169023 -0.527484
v 0.299849 0.162623 -0.517199
v 0.006812 0.961723 -0.461821
v -0.054448 0.884223 -0.406780
v -0.057551 0.926423 -0.406911
v 0.022577 0.763223 -0.463441
v 0.087669 0.786623 -0.508315
v 0.069524 0.996223 -0.501424
v -0.041984 0.731623 -0.407647
v -0.166324 0.855823 -0.374804
v 0.105234 0.582523 -0.513559
v 0.039500 0.570023 -0.469258
v 0.143003 0.806223 -0.527084
v 0.161287 0.594723 -0.531549
v 0.124847 1.025123 -0.520093
v -0.027446 0.552423 -0.410005
v -0.155089 0.691423 -0.386660
v -0.297386 0.820523 -0.339359
v 0.178299 0.371723 -0.530720
v 0.120349 0.364923 -0.514745
v 0.055255 0.361823 -0.484758
v 0.195912 0.827523 -0.530827
v 0.214883 0.606623 -0.534211
v 0.232459 0.377923 -0.532116
v 0.195292 0.162723 -0.530696
v 0.178166 1.045523 -0.526712
v -0.011800 0.359623 -0.417968
v -0.142121 0.531923 -0.389385
v -0.291270 0.658623 -0.365257
v -0.394696 0.786023 -0.310031
v 0.071953 0.156023 -0.484766
v 0.135553 0.158723 -0.514915
v 0.004827 0.154823 -0.408931
v 0.262256 0.852223 -0.524877
v 0.289300 0.626023 -0.524770
v 0.300167 0.391023 -0.524808
v 0.249564 0.167223 -0.532177
v 0.227346 1.055023 -0.524821
v -0.114318 0.180923 -0.380449
v -0.127986 0.355523 -0.389874
v -0.279017 0.512023 -0.369768
v -0.400019 0.639323 -0.335251
v -0.484659 0.746423 -0.280719
v -0.256966 0.221623 -0.353203
v -0.395109 0.505723 -0.343474
v -0.500453 0.631723 -0.305859
v -0.556836 0.710823 -0.258738
v -0.267139 0.361323 -0.364259
v -0.387542 0.376523 -0.339036
v -0.380440 0.267523 -0.332131
v -0.502266 0.507323 -0.317019
v -0.503447 0.402423 -0.313526
v -0.504025 0.317223 -0.310974
v -0.582790 0.635123 -0.281053
v -0.602074 0.530023 -0.288764
v -0.613019 0.421223 -0.288945
v -0.612275 0.336723 -0.287455
v 0.299171 0.171323 -0.524916
v 0.298645 0.169023 -0.527484
v 0.386263 0.176823 -0.526678
v 0.299849 0.162623 -0.517199
v 0.386867 0.169623 -0.517356
v -0.115498 0.876623 -0.182235
v -0.054448 0.884223 -0.406780
v -0.166324 0.855823 -0.374804
v -0.196874 0.855623 -0.175629
v -0.124241 0.876823 -0.005251
v -0.297386 0.820523 -0.339359
v -0.297557 0.826823 -0.169093
v -0.201288 0.855323 -0.005216
v -0.394696 0.786023 -0.310031
v -0.297629 0.828123 -0.005357
v -0.394705 0.792423 -0.161779
v -0.484659 0.746423 -0.280719
v -0.394798 0.793823 -0.005288
v -0.484683 0.753023 -0.154693
v -0.556836 0.710823 -0.258738
v -0.484624 0.754323 -0.005223
v -0.554907 0.717523 -0.150804
v -0.553920 0.719323 -0.005263
v 0.313972 1.066523 -0.527844
v 0.315199 1.055323 -0.534552
v 0.228011 1.058523 -0.528172
v 0.228985 1.047623 -0.534398
v 0.328772 0.887823 -0.534490
v 0.262279 0.852223 -0.534425
v 0.348294 0.648423 -0.534601
v 0.289324 0.626023 -0.534324
v 0.300292 0.391023 -0.534351
v 0.367697 0.408823 -0.534515
v 0.385809 0.185823 -0.534575
v 0.299794 0.179023 -0.534405
v 0.386263 0.176823 -0.526678
v 0.298645 0.169023 -0.527484
v -0.504034 0.316623 -0.289447
v -0.612275 0.336723 -0.287455
v -0.504025 0.317223 -0.310974
v 0.226602 1.064123 -0.005403
v 0.226668 1.064123 0.233484
v 0.313590 1.072323 -0.005264
v 0.313682 1.072323 0.506402
v 0.226694 1.064123 0.506264
v 0.228187 1.058523 0.517588
v 0.314136 1.066523 0.517111
v 0.386987 0.169623 0.506569
v 0.299988 0.162623 0.506531
v 0.301397 0.144623 0.233505
v 0.388416 0.151323 0.233341
v 0.301829 0.138623 -0.005329
v 0.388915 0.145423 -0.005179
v 0.300502 0.155523 0.233408
v 0.251340 0.146323 -0.005347
v 0.300913 0.149523 -0.005230
v 0.386987 0.169623 0.506569
v 0.315199 1.055323 -0.534552
v 0.386365 0.176823 0.516058
v 0.313972 1.066523 -0.527844
v 0.385727 0.185823 0.523831
v 0.367507 0.408723 0.523974
v 0.348404 0.648023 0.408360
v 0.313520 1.072323 -0.517132
v 0.313590 1.072323 -0.005264
v 0.322047 0.949323 -0.005358
v 0.349099 0.648523 0.524002
v 0.322839 0.949423 0.408520
v 0.328679 0.887723 0.524010
v 0.313682 1.072323 0.506402
v 0.315008 1.055223 0.523943
v 0.314136 1.066523 0.517111
v 0.362725 0.331423 0.394012
v 0.375974 0.316323 -0.005473
v 0.363184 0.331423 -0.005343
v 0.362727 0.331423 -0.404599
v 0.375348 0.316323 -0.419027
v 0.375470 0.316323 0.408265
v 0.348383 0.648023 -0.418922
v 0.338190 0.645923 -0.404633
v 0.348404 0.648023 0.408360
v 0.338289 0.645923 0.393989
v 0.314844 0.933823 -0.404539
v 0.322850 0.949423 -0.419064
v 0.314943 0.933823 0.394083
v 0.322839 0.949423 0.408520
v 0.322047 0.949323 -0.005358
v 0.314088 0.933723 -0.005210
vt 0.745898 0.720082
vt 0.791201 0.711552
vt 0.792403 0.720082
vt 0.746778 0.729413
vt 0.707711 0.729413
vt 0.792137 0.729413
vt 0.789719 0.739809
vt 0.745114 0.739809
vt 0.707711 0.739809
vt 0.784947 0.749303
vt 0.743919 0.749303
vt 0.707711 0.749303
vt 0.770688 0.762147
vt 0.742138 0.762147
vt 0.772859 0.762147
vt 0.707711 0.762147
vt 0.765352 0.782329
vt 0.738095 0.782329
vt 0.707711 0.782329
vt 0.759851 0.806323
vt 0.735035 0.806323
vt 0.707711 0.806323
vt 0.758236 0.827759
vt 0.734262 0.827759
vt 0.707711 0.827760
vt 0.756125 0.848576
vt 0.734025 0.849184
vt 0.707710 0.849764
vt 0.957544 0.983633
vt 0.960784 0.983633
vt 0.960802 0.902097
vt 0.957566 0.902773
vt 0.958610 0.805803
vt 0.960910 0.809450
vt 0.380771 0.174699
vt 0.331162 0.171488
vt 0.329252 0.136423
vt 0.429154 0.136423
vt 0.429154 0.175076
vt 0.327693 0.097922
vt 0.429154 0.097922
vt 0.329141 0.058404
vt 0.429154 0.058404
vt 0.373382 0.028669
vt 0.335469 0.033143
vt 0.429154 0.025359
vt 0.254040 0.245482
vt 0.293330 0.225587
vt 0.297585 0.278969
vt 0.256104 0.283457
vt 0.214079 0.263901
vt 0.214398 0.287767
vt 0.166596 0.281097
vt 0.167222 0.290490
vt 0.126880 0.291323
vt 0.378965 0.216099
vt 0.332001 0.272688
vt 0.329283 0.212439
vt 0.378275 0.276016
vt 0.429154 0.276203
vt 0.429154 0.216643
vt 0.126880 0.291323
vt 0.124882 0.287479
vt 0.164074 0.275185
vt 0.166596 0.281097
vt 0.210396 0.257724
vt 0.214079 0.263901
vt 0.250028 0.239179
vt 0.254040 0.245482
vt 0.289868 0.219701
vt 0.293330 0.225587
vt 0.329283 0.212439
vt 0.331162 0.171488
vt 0.380771 0.174699
vt 0.378965 0.216099
vt 0.429154 0.175076
vt 0.429154 0.216643
vt 0.795874 0.850933
vt 0.855227 0.852221
vt 0.854852 0.847505
vt 0.794279 0.858285
vt 0.721661 0.868422
vt 0.724511 0.881210
vt 0.858778 0.990007
vt 0.858385 0.972620
vt 0.781308 0.990007
vt 0.781429 0.972620
vt 0.857940 0.952543
vt 0.782328 0.952543
vt 0.687420 0.972620
vt 0.688444 0.990007
vt 0.857481 0.931528
vt 0.689182 0.952543
vt 0.784230 0.931528
vt 0.694785 0.931528
vt 0.856933 0.907663
vt 0.786937 0.907663
vt 0.707155 0.907663
vt 0.855227 0.852221
vt 0.794279 0.858285
vt 0.724511 0.881210
vt 0.960802 0.902097
vt 0.960784 0.983633
vt 0.957544 0.983633
vt 0.957569 0.902794
vt 0.960910 0.809450
vt 0.958610 0.805803
vt 0.960837 0.805803
vt 0.960870 0.802141
vt 0.964041 0.732866
vt 0.967257 0.732869
vt 0.964638 0.652634
vt 0.967930 0.652572
vt 0.964477 0.569794
vt 0.967467 0.569746
vt 0.960615 0.495460
vt 0.957914 0.491846
vt 0.959315 0.491846
vt 0.959042 0.487376
vt 0.092777 0.028795
vt 0.120955 0.037959
vt 0.121274 0.051563
vt 0.093702 0.092885
vt 0.067477 0.087500
vt 0.067712 0.019765
vt 0.123312 0.101579
vt 0.160259 0.057100
vt 0.094340 0.155909
vt 0.067437 0.153432
vt 0.047812 0.082851
vt 0.048760 0.151362
vt 0.047734 0.012144
vt 0.123543 0.159426
vt 0.161027 0.110295
vt 0.205878 0.064073
vt 0.092724 0.223237
vt 0.069212 0.223977
vt 0.049255 0.223335
vt 0.029723 0.077520
vt 0.030788 0.148960
vt 0.031231 0.222778
vt 0.029437 0.007112
vt 0.122825 0.221173
vt 0.162357 0.162886
vt 0.207288 0.116766
vt 0.049372 0.290813
vt 0.240376 0.071655
vt 0.124882 0.287479
vt 0.092803 0.289548
vt 0.069781 0.290506
vt 0.005597 0.144667
vt 0.007099 0.071420
vt 0.008427 0.220370
vt 0.014006 0.005856
vt 0.162328 0.218826
vt 0.164074 0.275185
vt 0.244822 0.119398
vt 0.207554 0.164018
vt 0.272744 0.081017
vt 0.210396 0.257724
vt 0.246846 0.162465
vt 0.279377 0.118600
vt 0.298644 0.089670
vt 0.208703 0.212621
vt 0.248672 0.204068
vt 0.250028 0.239179
vt 0.282948 0.158651
vt 0.286821 0.192274
vt 0.289868 0.219701
vt 0.316274 0.148270
vt 0.307465 0.114895
vt 0.323028 0.182788
vt 0.325675 0.209688
vt 0.014763 0.290830
vt 0.031364 0.290802
vt 0.959315 0.491846
vt 0.959042 0.487376
vt 0.991370 0.491846
vt 0.990917 0.487376
vt 0.795316 0.757091
vt 0.813498 0.819170
vt 0.773840 0.828973
vt 0.824257 0.755323
vt 0.798834 0.701031
vt 0.861126 0.808322
vt 0.861127 0.753662
vt 0.826373 0.701032
vt 0.896205 0.799359
vt 0.861127 0.701032
vt 0.896205 0.751806
vt 0.931341 0.790393
vt 0.896205 0.701032
vt 0.931342 0.701032
vt 0.931342 0.749952
vt 0.953078 0.783712
vt 0.953078 0.748992
vt 0.953078 0.701032
vt 0.992298 0.805803
vt 0.960837 0.805803
vt 0.992450 0.802141
vt 0.960870 0.802141
vt 0.992317 0.743398
vt 0.967257 0.732869
vt 0.992498 0.658937
vt 0.967930 0.652572
vt 0.991865 0.574280
vt 0.967467 0.569746
vt 0.960615 0.495460
vt 0.991713 0.495460
vt 0.991370 0.491846
vt 0.959315 0.491846
vt 0.293330 0.225587
vt 0.289868 0.219701
vt 0.325675 0.209688
vt 0.947631 0.586864
vt 0.852914 0.586864
vt 0.940665 0.550622
vt 0.919707 0.519996
vt 0.888780 0.499541
vt 0.852914 0.492788
vt 0.816708 0.499541
vt 0.786502 0.519996
vt 0.765836 0.550622
vt 0.758678 0.586864
vt 0.777681 0.586864
vt 0.783616 0.557870
vt 0.758678 0.586864
vt 0.765836 0.550622
vt 0.786502 0.519996
vt 0.799934 0.533439
vt 0.824190 0.516782
vt 0.816689 0.499710
vt 0.852914 0.511159
vt 0.852914 0.492788
vt 0.882025 0.516782
vt 0.888780 0.499541
vt 0.919707 0.519996
vt 0.906335 0.533439
vt 0.923565 0.557870
vt 0.940665 0.550622
vt 0.947094 0.586864
vt 0.929289 0.586864
vt 0.758678 0.586864
vt 0.852914 0.586864
vt 0.765836 0.550622
vt 0.786502 0.519996
vt 0.816708 0.499541
vt 0.852914 0.492788
vt 0.888780 0.499541
vt 0.919707 0.519996
vt 0.992401 0.983633
vt 0.960802 0.902097
vt 0.960784 0.983633
vt 0.992321 0.809450
vt 0.960910 0.809450
vt 0.960837 0.805803
vt 0.940665 0.550622
vt 0.947631 0.586864
vt 0.929289 0.586864
vt 0.940665 0.550622
vt 0.947094 0.586864
vt 0.923565 0.557870
vt 0.919707 0.519996
vt 0.906335 0.533439
vt 0.882040 0.516782
vt 0.888780 0.499541
vt 0.852914 0.511159
vt 0.852914 0.492788
vt 0.816689 0.499710
vt 0.824190 0.516782
vt 0.799934 0.533439
vt 0.786502 0.519996
vt 0.783616 0.557870
vt 0.765836 0.550622
vt 0.777681 0.586864
vt 0.758678 0.586864
vt 0.920784 0.518581
vt 0.919707 0.519996
vt 0.889320 0.498132
vt 0.888780 0.499541
vt 0.852914 0.490943
vt 0.852914 0.492788
vt 0.816076 0.498182
vt 0.816689 0.499710
vt 0.786502 0.519996
vt 0.785107 0.518883
vt 0.758678 0.586864
vt 0.757392 0.586811
vt 0.765836 0.550622
vt 0.764267 0.550048
vt 0.785107 0.518883
vt 0.786502 0.519996
vt 0.786502 0.519996
vt 0.785107 0.518883
vt 0.765836 0.550622
vt 0.764267 0.550048
vt 0.758678 0.586864
vt 0.757392 0.586811
vt 0.785107 0.518883
vt 0.786502 0.519996
vt 0.816689 0.499710
vt 0.816076 0.498182
vt 0.852914 0.492788
vt 0.852914 0.490943
vt 0.889320 0.498132
vt 0.888780 0.499541
vt 0.920784 0.518581
vt 0.919707 0.519996
vt 0.947094 0.586864
vt 0.948527 0.586823
vt 0.940665 0.550622
vt 0.941734 0.550075
vt 0.919707 0.519996
vt 0.920784 0.518581
vt 0.919707 0.519996
vt 0.920784 0.518581
vt 0.940665 0.550622
vt 0.941734 0.550075
vt 0.947094 0.586864
vt 0.948527 0.586823
vt 0.890603 0.496036
vt 0.922318 0.517465
vt 0.925260 0.514106
vt 0.892396 0.491525
vt 0.852914 0.488647
vt 0.852994 0.484558
vt 0.815486 0.496036
vt 0.813567 0.492156
vt 0.783453 0.517460
vt 0.780583 0.514511
vt 0.761952 0.548988
vt 0.783453 0.517460
vt 0.780583 0.514511
vt 0.758987 0.547741
vt 0.755461 0.586864
vt 0.750935 0.586784
vt 0.761883 0.549076
vt 0.755461 0.586864
vt 0.750935 0.586784
vt 0.758987 0.547741
vt 0.783453 0.517460
vt 0.780583 0.514511
vt 0.815486 0.496036
vt 0.783453 0.517460
vt 0.780583 0.514511
vt 0.813567 0.492156
vt 0.852914 0.488647
vt 0.852994 0.484558
vt 0.890603 0.496036
vt 0.892396 0.491525
vt 0.922318 0.517465
vt 0.925260 0.514106
vt 0.943854 0.549213
vt 0.922318 0.517465
vt 0.925260 0.514106
vt 0.947621 0.547532
vt 0.951086 0.586864
vt 0.955462 0.586864
vt 0.943854 0.549213
vt 0.951086 0.586864
vt 0.955462 0.586864
vt 0.947621 0.547532
vt 0.922318 0.517465
vt 0.925260 0.514106
vt 0.852914 0.511159
vt 0.824190 0.516782
vt 0.882025 0.516782
vt 0.799934 0.533439
vt 0.906335 0.533439
vt 0.923565 0.557870
vt 0.783616 0.557870
vt 0.929289 0.586864
vt 0.777681 0.586864
vt 0.755461 0.586864
vt 0.761883 0.549076
vt 0.852914 0.586864
vt 0.783453 0.517460
vt 0.815486 0.496036
vt 0.852914 0.488647
vt 0.890603 0.496036
vt 0.922318 0.517465
vt 0.943854 0.549213
vt 0.951086 0.586864
vt 0.951086 0.586864
vt 0.943854 0.549213
vt 0.853359 0.585790
vt 0.922318 0.517465
vt 0.890603 0.496036
vt 0.852914 0.488647
vt 0.815486 0.496036
vt 0.783453 0.517460
vt 0.761952 0.548988
vt 0.755461 0.586864
vt 0.824190 0.516782
vt 0.852914 0.511159
vt 0.882040 0.516782
vt 0.906335 0.533439
vt 0.799934 0.533439
vt 0.783616 0.557870
vt 0.923565 0.557870
vt 0.777681 0.586864
vt 0.929289 0.586864
vt 0.397381 0.625686
vt 0.324665 0.695233
vt 0.438129 0.687218
vt 0.442166 0.683971
vt 0.445232 0.679898
vt 0.445232 0.584143
vt 0.397661 0.481663
vt 0.225429 0.626276
vt 0.225429 0.697941
vt 0.445232 0.481387
vt 0.126193 0.695233
vt 0.053434 0.625739
vt 0.445232 0.378796
vt 0.396921 0.352292
vt 0.992298 0.805803
vt 0.960802 0.902097
vt 0.960910 0.809450
vt 0.992321 0.809450
vt 0.992366 0.902340
vt 0.960784 0.983633
vt 0.992401 0.983633
vt 0.745671 0.711552
vt 0.707711 0.711552
vt 0.707711 0.720082
vt 0.745898 0.720082
vt 0.791200 0.711552
vt 0.707711 0.729413
vt 0.746778 0.729413
vt 0.792403 0.720082
vt 0.792137 0.729413
vt 0.789719 0.739809
vt 0.745114 0.739809
vt 0.707711 0.739809
vt 0.784947 0.749303
vt 0.743919 0.749303
vt 0.707711 0.749303
vt 0.770688 0.762147
vt 0.742138 0.762147
vt 0.772859 0.762147
vt 0.707711 0.762147
vt 0.765352 0.782329
vt 0.738095 0.782329
vt 0.707711 0.782329
vt 0.759851 0.806323
vt 0.735035 0.806323
vt 0.707711 0.806323
vt 0.758236 0.827759
vt 0.734262 0.827759
vt 0.707711 0.827760
vt 0.756125 0.848576
vt 0.734025 0.849184
vt 0.707710 0.849768
vt 0.225429 0.618339
vt 0.390513 0.618225
vt 0.390551 0.482164
vt 0.225429 0.482320
vt 0.060440 0.618200
vt 0.390504 0.359045
vt 0.060308 0.482164
vt 0.225430 0.359417
vt 0.060355 0.359044
vt 0.960802 0.902097
vt 0.960784 0.983633
vt 0.957544 0.983633
vt 0.957566 0.902773
vt 0.958610 0.805803
vt 0.960910 0.809450
vt 0.329252 0.136423
vt 0.331162 0.171488
vt 0.380771 0.174699
vt 0.429154 0.136423
vt 0.327693 0.097922
vt 0.429154 0.175076
vt 0.429154 0.097922
vt 0.329141 0.058404
vt 0.429154 0.058404
vt 0.373382 0.028669
vt 0.335469 0.033143
vt 0.429154 0.025359
vt 0.254040 0.245482
vt 0.297585 0.278969
vt 0.293330 0.225587
vt 0.256104 0.283457
vt 0.214079 0.263901
vt 0.214398 0.287767
vt 0.166596 0.281097
vt 0.167222 0.290490
vt 0.126880 0.291323
vt 0.329283 0.212439
vt 0.332001 0.272688
vt 0.378275 0.276016
vt 0.378965 0.216099
vt 0.429154 0.216643
vt 0.429154 0.276203
vt 0.126880 0.291323
vt 0.164074 0.275185
vt 0.124882 0.287479
vt 0.166596 0.281097
vt 0.210396 0.257724
vt 0.214079 0.263901
vt 0.250028 0.239179
vt 0.254040 0.245482
vt 0.289868 0.219701
vt 0.293330 0.225587
vt 0.329283 0.212439
vt 0.380771 0.174699
vt 0.331162 0.171488
vt 0.378965 0.216099
vt 0.429154 0.175076
vt 0.429154 0.216643
vt 0.795874 0.850933
vt 0.854852 0.847505
vt 0.855227 0.852221
vt 0.794279 0.858285
vt 0.721661 0.868422
vt 0.724511 0.881210
vt 0.858778 0.990007
vt 0.781308 0.990007
vt 0.858385 0.972620
vt 0.781429 0.972620
vt 0.857940 0.952543
vt 0.687420 0.972620
vt 0.782328 0.952543
vt 0.688444 0.990007
vt 0.857481 0.931528
vt 0.689182 0.952543
vt 0.784230 0.931528
vt 0.856933 0.907663
vt 0.694785 0.931528
vt 0.786937 0.907663
vt 0.707155 0.907663
vt 0.794279 0.858285
vt 0.855227 0.852221
vt 0.707155 0.907663
vt 0.724511 0.881210
vt 0.957541 0.983633
vt 0.960784 0.983633
vt 0.960802 0.902097
vt 0.957566 0.902773
vt 0.960910 0.809450
vt 0.958610 0.805803
vt 0.960837 0.805803
vt 0.960870 0.802141
vt 0.964025 0.732824
vt 0.967257 0.732869
vt 0.964704 0.652591
vt 0.967930 0.652572
vt 0.967467 0.569746
vt 0.964477 0.569794
vt 0.960615 0.495460
vt 0.957914 0.491846
vt 0.959315 0.491846
vt 0.959042 0.487376
vt 0.092777 0.028795
vt 0.121274 0.051563
vt 0.120955 0.037959
vt 0.093702 0.092885
vt 0.067477 0.087500
vt 0.067712 0.019765
vt 0.123312 0.101579
vt 0.160259 0.057100
vt 0.067437 0.153432
vt 0.094340 0.155909
vt 0.047812 0.082851
vt 0.048760 0.151362
vt 0.047734 0.012144
vt 0.123543 0.159426
vt 0.161027 0.110295
vt 0.205878 0.064073
vt 0.049255 0.223335
vt 0.069212 0.223977
vt 0.092724 0.223237
vt 0.029723 0.077520
vt 0.030788 0.148960
vt 0.031231 0.222778
vt 0.049372 0.290813
vt 0.029437 0.007112
vt 0.122825 0.221173
vt 0.162357 0.162886
vt 0.207288 0.116766
vt 0.240376 0.071655
vt 0.092803 0.289548
vt 0.069781 0.290506
vt 0.124882 0.287479
vt 0.007099 0.071420
vt 0.005597 0.144667
vt 0.008427 0.220370
vt 0.031364 0.290802
vt 0.014006 0.005856
vt 0.164074 0.275185
vt 0.162328 0.218826
vt 0.207554 0.164018
vt 0.244822 0.119398
vt 0.272744 0.081017
vt 0.210396 0.257724
vt 0.246846 0.162465
vt 0.279377 0.118600
vt 0.298644 0.089670
vt 0.208703 0.212621
vt 0.248672 0.204068
vt 0.250028 0.239179
vt 0.282948 0.158651
vt 0.286821 0.192274
vt 0.289868 0.219701
vt 0.307465 0.114895
vt 0.316274 0.148270
vt 0.323028 0.182788
vt 0.325675 0.209688
vt 0.014763 0.290830
vt 0.959315 0.491846
vt 0.991379 0.491846
vt 0.959042 0.487376
vt 0.990917 0.487376
vt 0.795316 0.757091
vt 0.773840 0.828973
vt 0.813498 0.819170
vt 0.824257 0.755323
vt 0.798834 0.701031
vt 0.861126 0.808322
vt 0.861127 0.753662
vt 0.826390 0.701032
vt 0.896205 0.799359
vt 0.861127 0.701032
vt 0.896205 0.751806
vt 0.931341 0.790393
vt 0.896205 0.701032
vt 0.931342 0.749952
vt 0.953078 0.783716
vt 0.931342 0.701032
vt 0.953078 0.748990
vt 0.953078 0.701032
vt 0.992298 0.805803
vt 0.992450 0.802141
vt 0.960837 0.805803
vt 0.960870 0.802141
vt 0.992317 0.743398
vt 0.967257 0.732869
vt 0.992498 0.658937
vt 0.967930 0.652572
vt 0.967467 0.569746
vt 0.991865 0.574280
vt 0.991713 0.495460
vt 0.960615 0.495460
vt 0.991379 0.491846
vt 0.959315 0.491846
vt 0.293330 0.225587
vt 0.325675 0.209688
vt 0.289868 0.219701
vt 0.960784 0.983633
vt 0.960802 0.902097
vt 0.992401 0.983633
vt 0.992321 0.809450
vt 0.960910 0.809450
vt 0.960837 0.805803
vt 0.992298 0.805803
vt 0.992321 0.809450
vt 0.960910 0.809450
vt 0.960802 0.902097
vt 0.992366 0.902340
vt 0.960784 0.983633
vt 0.992401 0.983633
vt 0.745672 0.711552
vt 0.707711 0.720082
vt 0.707711 0.711552
vt 0.012728 0.687217
vt 0.445232 0.306993
vt 0.008690 0.683969
vt 0.441907 0.302163
vt 0.005627 0.679896
vt 0.005627 0.584142
vt 0.053198 0.481662
vt 0.437405 0.299699
vt 0.225431 0.299671
vt 0.225431 0.352227
vt 0.005627 0.481379
vt 0.053940 0.352291
vt 0.005627 0.378794
vt 0.013456 0.299698
vt 0.005627 0.306993
vt 0.008953 0.302163
vt 0.060440 0.618200
vt 0.225429 0.626276
vt 0.225429 0.618339
vt 0.390513 0.618225
vt 0.397381 0.625686
vt 0.053434 0.625739
vt 0.397661 0.481663
vt 0.390551 0.482164
vt 0.053198 0.481662
vt 0.060308 0.482164
vt 0.390504 0.359045
vt 0.396921 0.352292
vt 0.060355 0.359044
vt 0.053940 0.352291
vt 0.225431 0.352227
vt 0.225430 0.359417
vn 0.0809 -0.9960 0.0388
vn 0.0857 -0.9948 0.0558
vn 0.0859 -0.9947 0.0557
vn 0.0715 -0.9967 0.0382
vn 0.0731 -0.9973 -0.0000
vn 0.0699 -0.9960 0.0564
vn 0.0389 -0.9975 0.0584
vn 0.0484 -0.9980 0.0400
vn 0.0581 -0.9983 -0.0001
vn -0.0313 -0.9966 0.0757
vn 0.0156 -0.9989 0.0452
vn 0.0322 -0.9995 0.0001
vn -0.0367 -0.9958 0.0839
vn 0.0058 -0.9986 0.0530
vn -0.0915 -0.9911 0.0964
vn 0.0208 -0.9998 -0.0001
vn 0.0084 -0.9961 0.0874
vn 0.0174 -0.9981 0.0593
vn 0.0261 -0.9997 0.0000
vn -0.0086 -0.9956 0.0936
vn -0.0021 -0.9979 0.0645
vn 0.0043 -1.0000 0.0001
vn -0.0267 -0.9944 0.1024
vn -0.0219 -0.9973 0.0701
vn -0.0172 -0.9999 0.0001
vn -0.0265 -0.9939 0.1075
vn -0.0218 -0.9971 0.0730
vn -0.0172 -0.9999 -0.0001
vn -0.9969 -0.0789 0.0002
vn -0.9967 -0.0812 0.0001
vn -0.9998 0.0064 -0.0206
vn -0.9987 0.0085 -0.0498
vn -0.9999 -0.0115 -0.0008
vn -0.9999 -0.0123 -0.0024
vn -0.9990 0.0441 -0.0020
vn -0.9997 0.0258 0.0001
vn -0.9999 -0.0115 0.0004
vn -0.9902 0.1398 -0.0020
vn -0.9902 0.1398 0.0000
vn -0.9683 0.2497 -0.0014
vn -0.9622 0.2723 0.0001
vn -0.9481 0.3181 -0.0013
vn -0.9477 0.3190 -0.0006
vn -0.9484 0.3172 0.0000
vn -0.1610 -0.0105 0.9869
vn -0.1434 -0.0045 0.9896
vn -0.1435 -0.0046 0.9896
vn -0.1610 -0.0104 0.9869
vn -0.1945 -0.0206 0.9807
vn -0.1946 -0.0206 0.9807
vn -0.2515 -0.0194 0.9677
vn -0.2516 -0.0194 0.9676
vn -0.2921 -0.0138 0.9563
vn -0.9998 -0.0187 -0.0050
vn -0.9998 -0.0191 -0.0069
vn -0.9998 -0.0187 -0.0073
vn -0.9998 -0.0188 -0.0048
vn -0.9998 -0.0186 0.0000
vn -0.9998 -0.0187 0.0001
vn -0.2310 -0.9709 0.0624
vn -0.2311 -0.9709 0.0623
vn -0.2558 -0.9652 0.0540
vn -0.3187 -0.9468 0.0443
vn -0.3188 -0.9468 0.0443
vn -0.3676 -0.9293 0.0361
vn -0.3677 -0.9293 0.0360
vn -0.3779 -0.9254 0.0290
vn -0.3776 -0.9255 0.0290
vn -0.1866 -0.9803 0.0649
vn -0.1866 -0.9803 0.0648
vn -0.1931 -0.9782 0.0766
vn -0.1956 -0.9807 0.0000
vn -0.9861 -0.0491 0.1586
vn -0.8626 0.5059 0.0001
vn -0.9999 -0.0143 0.0001
vn -0.7990 0.5966 0.0754
vn -0.9602 -0.0836 0.2664
vn -0.8654 0.4739 0.1627
vn -0.1885 0.9821 0.0000
vn -0.2738 0.9618 0.0000
vn -0.1888 0.9820 0.0001
vn -0.2740 0.9617 -0.0000
vn -0.4112 0.9116 0.0001
vn -0.4110 0.9117 0.0001
vn -0.1885 0.9821 0.0001
vn -0.4728 0.8812 0.0000
vn -0.4110 0.9116 0.0001
vn -0.4727 0.8812 0.0001
vn -0.4728 0.8812 0.0002
vn -0.4790 0.8778 0.0000
vn -0.4791 0.8778 -0.0000
vn -0.4808 0.8768 0.0018
vn -0.8623 0.5063 0.0002
vn -0.7988 0.5969 0.0754
vn -0.8655 0.4738 0.1628
vn -0.9966 -0.0824 0.0002
vn -0.9966 -0.0824 0.0001
vn -0.9964 -0.0285 0.0804
vn -0.9955 -0.0752 0.0585
vn -0.9867 0.0291 0.1600
vn -0.9936 -0.0705 0.0878
vn -0.9895 -0.1440 0.0073
vn -0.9895 -0.1440 0.0074
vn -0.9966 -0.0828 0.0025
vn -0.9966 -0.0828 0.0024
vn -0.9996 -0.0214 0.0210
vn -0.9981 0.0528 -0.0307
vn -0.9998 0.0087 -0.0204
vn -0.9898 0.1023 -0.0988
vn -0.9987 0.0092 -0.0494
vn -0.6055 -0.0401 0.7948
vn -0.6349 -0.0465 0.7712
vn -0.5142 -0.0245 0.8573
vn -0.5981 -0.0343 0.8007
vn -0.4368 -0.0136 0.8995
vn -0.4342 -0.0119 0.9007
vn -0.4389 -0.0161 0.8984
vn -0.2337 0.0602 0.9704
vn -0.5991 -0.0192 0.8004
vn -0.4148 -0.0130 0.9098
vn -0.2014 0.0072 0.9795
vn -0.1739 -0.0051 0.9848
vn -0.2137 0.0100 0.9768
vn -0.4463 -0.0113 0.8948
vn -0.1995 0.0330 0.9793
vn -0.2709 0.1272 0.9541
vn -0.5889 -0.0303 0.8077
vn -0.3666 -0.0186 0.9302
vn -0.1511 -0.0128 0.9884
vn -0.0011 0.0162 0.9999
vn 0.0301 0.0062 0.9995
vn 0.0446 -0.0010 0.9990
vn -0.0212 0.0167 0.9996
vn -0.4830 -0.0380 0.8748
vn -0.1744 -0.0028 0.9847
vn -0.2350 0.0738 0.9692
vn -0.1427 -0.0111 0.9897
vn -0.3221 0.1799 0.9295
vn -0.5022 -0.0731 0.8616
vn -0.5843 -0.0544 0.8097
vn -0.3424 -0.0264 0.9392
vn 0.1085 0.0103 0.9940
vn 0.0822 0.0177 0.9965
vn 0.1182 0.0035 0.9930
vn 0.0628 0.0172 0.9979
vn -0.2008 -0.0418 0.9787
vn -0.2176 -0.0722 0.9734
vn -0.2884 0.1147 0.9506
vn -0.1926 -0.0094 0.9812
vn -0.3338 0.2505 0.9088
vn -0.2012 -0.0815 0.9762
vn -0.2380 0.0022 0.9713
vn -0.2997 0.1691 0.9389
vn -0.3324 0.2956 0.8956
vn -0.1941 -0.0602 0.9791
vn -0.2146 -0.0571 0.9750
vn -0.2067 -0.0698 0.9759
vn -0.2507 0.0330 0.9675
vn -0.2255 -0.0297 0.9738
vn -0.2132 -0.0390 0.9762
vn -0.2555 0.0512 0.9655
vn -0.3005 0.2007 0.9324
vn -0.2320 -0.0124 0.9726
vn -0.2193 -0.0235 0.9754
vn 0.1211 0.0045 0.9926
vn 0.0488 0.0013 0.9988
vn 0.0632 -0.7224 0.6885
vn 0.0772 -0.9407 0.3304
vn 0.0633 -0.7225 0.6885
vn 0.0773 -0.9407 0.3304
vn -0.2572 0.9661 0.0233
vn -0.2636 0.9639 0.0378
vn -0.2544 0.9664 0.0373
vn -0.2653 0.9639 0.0228
vn -0.2599 0.9656 0.0000
vn -0.3065 0.9511 0.0380
vn -0.3051 0.9521 0.0226
vn -0.2669 0.9637 0.0001
vn -0.3747 0.9263 0.0405
vn -0.3036 0.9528 0.0000
vn -0.3711 0.9283 0.0244
vn -0.4312 0.9011 0.0453
vn -0.3678 0.9299 0.0000
vn -0.4269 0.9043 0.0001
vn -0.4291 0.9029 0.0267
vn -0.4528 0.8904 0.0473
vn -0.4522 0.8915 0.0273
vn -0.4513 0.8924 0.0001
vn -0.0659 0.7186 0.6923
vn -0.0657 0.7188 0.6921
vn -0.0245 0.2567 0.9662
vn -0.0244 0.2568 0.9662
vn -0.0033 -0.0004 1.0000
vn -0.0029 -0.0004 1.0000
vn -0.0031 -0.0002 1.0000
vn -0.0029 -0.0002 1.0000
vn -0.0029 -0.0003 1.0000
vn -0.0031 -0.0003 1.0000
vn 0.0273 -0.3222 0.9463
vn 0.0272 -0.3223 0.9463
vn 0.0634 -0.7225 0.6885
vn 0.0638 -0.7223 0.6887
vn -0.1865 -0.9803 0.0649
vn -0.1822 -0.9830 0.0247
vn 0.0000 -0.9518 -0.3068
vn 0.0000 -1.0000 0.0000
vn -0.1112 -0.9541 -0.2780
vn -0.2098 -0.9533 -0.2172
vn -0.2689 -0.9562 -0.1154
vn -0.2969 -0.9549 -0.0000
vn -0.2688 -0.9562 0.1154
vn -0.2098 -0.9533 0.2172
vn -0.1112 -0.9541 0.2780
vn 0.0001 -0.9517 0.3069
vn -0.0001 0.7917 -0.6109
vn 0.2227 0.7999 -0.5574
vn -0.0000 0.4052 -0.9142
vn 0.3372 0.4150 -0.8450
vn 0.6314 0.4125 -0.6567
vn 0.4185 0.7976 -0.4344
vn 0.5414 0.8079 -0.2326
vn 0.8317 0.4249 -0.3575
vn 0.5953 0.8035 -0.0003
vn 0.9080 0.4191 -0.0001
vn 0.5415 0.8079 0.2325
vn 0.8317 0.4249 0.3573
vn 0.6316 0.4124 0.6565
vn 0.4185 0.7976 0.4345
vn 0.2230 0.7998 0.5573
vn 0.3375 0.4149 0.8450
vn 0.0003 0.4053 0.9142
vn 0.0005 0.7918 0.6108
vn 0.1111 -0.9541 0.2780
vn 0.2097 -0.9533 0.2173
vn 0.2688 -0.9563 0.1153
vn 0.2969 -0.9549 -0.0002
vn 0.2689 -0.9563 -0.1152
vn 0.2097 -0.9533 -0.2173
vn -0.0939 0.9956 0.0000
vn -0.0903 0.9671 -0.2376
vn -0.0903 0.9672 -0.2374
vn -0.0657 0.7189 -0.6920
vn 0.1111 -0.9541 -0.2781
vn 0.0000 -0.9517 -0.3070
vn -0.0002 0.7918 0.6108
vn -0.3374 0.4139 0.8455
vn -0.0003 0.4053 0.9142
vn -0.2225 0.7999 0.5573
vn -0.6321 0.4103 0.6574
vn -0.4186 0.7976 0.4343
vn -0.5413 0.8081 0.2325
vn -0.8328 0.4221 0.3580
vn -0.5952 0.8036 0.0001
vn -0.9093 0.4161 0.0001
vn -0.8329 0.4221 -0.3580
vn -0.5415 0.8079 -0.2324
vn -0.4184 0.7976 -0.4344
vn -0.6322 0.4104 -0.6572
vn -0.2228 0.7999 -0.5572
vn -0.3377 0.4138 -0.8454
vn -0.0002 0.7918 -0.6108
vn -0.0003 0.4052 -0.9142
vn -0.6908 -0.0783 0.7188
vn -0.6313 0.4128 0.6565
vn -0.9155 -0.0823 0.3937
vn -0.8334 0.4208 0.3584
vn -0.9969 -0.0790 0.0002
vn -0.9094 0.4159 0.0001
vn -0.9157 -0.0806 -0.3937
vn -0.8326 0.4228 -0.3578
vn -0.6320 0.4110 -0.6570
vn -0.6907 -0.0804 -0.7187
vn -0.0002 0.4051 -0.9143
vn -0.0003 -0.0823 -0.9966
vn -0.3378 0.4141 -0.8452
vn -0.3696 -0.0839 -0.9254
vn -0.6903 -0.0825 -0.7188
vn -0.6324 0.4087 -0.6580
vn 0.6313 0.4124 -0.6568
vn 0.6905 -0.0763 -0.7193
vn 0.3371 0.4154 -0.8449
vn 0.3690 -0.0812 -0.9259
vn 0.0001 0.4053 -0.9142
vn 0.0001 -0.0821 -0.9966
vn 0.6909 -0.0760 -0.7190
vn 0.6315 0.4128 -0.6564
vn 0.8321 0.4239 -0.3577
vn 0.9159 -0.0758 -0.3941
vn 0.9075 0.4201 -0.0001
vn 0.9975 -0.0707 -0.0001
vn 0.9160 -0.0753 0.3940
vn 0.8320 0.4242 0.3576
vn 0.6909 -0.0784 0.7187
vn 0.6327 0.4101 0.6568
vn 0.0003 0.4054 0.9141
vn 0.0003 -0.0820 0.9966
vn 0.3375 0.4144 0.8452
vn 0.3690 -0.0822 0.9258
vn 0.6312 0.4141 0.6558
vn 0.6908 -0.0746 0.7191
vn -0.6321 0.4109 0.6570
vn -0.6906 -0.0805 0.7188
vn -0.3374 0.4138 0.8456
vn -0.3691 -0.0843 0.9256
vn -0.0004 -0.0821 0.9966
vn 0.7375 0.5970 0.3158
vn 0.5600 0.5920 0.5795
vn 0.6950 -0.0000 0.7190
vn 0.9194 0.0000 0.3933
vn 0.8041 0.5945 -0.0001
vn 1.0000 0.0000 -0.0003
vn 0.7374 0.5970 -0.3160
vn 0.9193 0.0000 -0.3935
vn 0.5599 0.5920 -0.5797
vn 0.6948 -0.0000 -0.7192
vn 0.2990 0.5934 -0.7473
vn 0.5601 0.5920 -0.5795
vn 0.6951 0.0000 -0.7189
vn 0.3718 0.0000 -0.9283
vn 0.0001 0.5894 -0.8078
vn 0.0002 0.0000 -1.0000
vn -0.2993 0.5934 -0.7472
vn -0.0004 0.5894 -0.8078
vn -0.0004 0.0000 -1.0000
vn -0.3719 0.0000 -0.9283
vn -0.5600 0.5919 -0.5796
vn -0.6950 0.0000 -0.7190
vn -0.7375 0.5970 -0.3158
vn -0.6951 -0.0000 -0.7190
vn -0.9193 -0.0000 -0.3935
vn -0.8041 0.5945 0.0000
vn -1.0000 0.0000 0.0001
vn -0.7374 0.5970 0.3160
vn -0.9192 0.0000 0.3938
vn -0.5598 0.5920 0.5798
vn -0.6948 -0.0000 0.7192
vn -0.2991 0.5934 0.7473
vn -0.5601 0.5919 0.5796
vn -0.6950 0.0000 0.7190
vn -0.3714 0.0000 0.9285
vn 0.0004 0.5895 0.8078
vn 0.0004 0.0000 1.0000
vn 0.2993 0.5934 0.7472
vn 0.0001 0.5895 0.8078
vn 0.0002 0.0000 1.0000
vn 0.3719 0.0000 0.9283
vn 0.5602 0.5920 0.5794
vn 0.6952 0.0000 0.7188
vn 0.0758 -0.9971 0.0000
vn 0.0255 -0.9997 0.0000
vn 0.0254 -0.9997 0.0000
vn -0.0039 -1.0000 -0.0000
vn 0.0014 -1.0000 0.0001
vn 0.0013 -1.0000 0.0000
vn -0.0002 0.5894 -0.8078
vn -0.2992 0.5934 -0.7472
vn 0.0000 1.0000 -0.0000
vn -0.5601 0.5920 -0.5795
vn -0.7375 0.5970 -0.3159
vn -0.8041 0.5945 0.0001
vn -0.7374 0.5971 0.3160
vn -0.5600 0.5919 0.5797
vn -0.2992 0.5934 0.7472
vn 0.0002 0.5895 0.8078
vn 0.2992 0.5934 0.7472
vn 0.5601 0.5919 0.5795
vn 0.7375 0.5970 0.3157
vn 0.5601 0.5919 -0.5796
vn 0.2991 0.5934 -0.7472
vn -0.0001 0.5894 -0.8078
vn -0.0254 -0.9997 -0.0000
vn -0.0758 -0.9971 0.0000
vn -0.0255 -0.9997 -0.0000
vn 0.0039 -1.0000 0.0000
vn -0.0014 -1.0000 -0.0001
vn -0.0013 -1.0000 -0.0000
vn 0.9970 0.0773 0.0016
vn 0.9971 0.0766 -0.0006
vn 0.9972 0.0749 0.0027
vn 0.9973 0.0725 0.0068
vn 0.9970 0.0769 0.0031
vn 0.9967 0.0810 -0.0011
vn 0.9967 0.0817 0.0018
vn 0.9970 0.0769 -0.0001
vn 0.9971 0.0755 -0.0003
vn 0.9967 0.0810 -0.0005
vn 0.9971 0.0768 0.0005
vn 0.9968 0.0796 0.0020
vn 0.9966 0.0821 0.0033
vn 0.9968 0.0801 0.0062
vn -0.0658 0.7186 -0.6922
vn 0.0769 -0.9960 -0.0460
vn 0.0773 -0.9407 -0.3303
vn 0.0769 -0.9960 -0.0458
vn 0.0771 -0.9970 -0.0000
vn 0.0796 -0.9960 -0.0396
vn 0.0736 -0.9973 -0.0000
vn 0.0763 -0.9971 -0.0000
vn 0.0810 -0.9960 -0.0388
vn 0.0857 -0.9948 -0.0558
vn 0.0731 -0.9973 -0.0001
vn 0.0715 -0.9967 -0.0383
vn 0.0859 -0.9947 -0.0558
vn 0.0700 -0.9960 -0.0564
vn 0.0390 -0.9975 -0.0585
vn 0.0486 -0.9980 -0.0400
vn 0.0581 -0.9983 -0.0000
vn -0.0313 -0.9966 -0.0756
vn 0.0156 -0.9989 -0.0453
vn 0.0322 -0.9995 -0.0001
vn -0.0367 -0.9958 -0.0839
vn 0.0058 -0.9986 -0.0530
vn -0.0914 -0.9911 -0.0966
vn 0.0208 -0.9998 0.0000
vn 0.0084 -0.9961 -0.0873
vn 0.0174 -0.9981 -0.0593
vn -0.0086 -0.9956 -0.0935
vn -0.0021 -0.9979 -0.0645
vn 0.0043 -1.0000 -0.0000
vn -0.0266 -0.9944 -0.1025
vn -0.0219 -0.9973 -0.0701
vn -0.0264 -0.9939 -0.1075
vn -0.0218 -0.9971 -0.0730
vn 0.9969 0.0786 0.0002
vn 0.9969 0.0782 -0.0008
vn 0.9968 0.0803 0.0000
vn 0.9967 0.0806 0.0000
vn 0.9970 0.0780 0.0005
vn 0.9966 0.0821 0.0006
vn 0.9968 0.0804 -0.0002
vn 0.9966 0.0824 -0.0001
vn 0.9966 0.0821 -0.0008
vn -0.9968 -0.0804 0.0001
vn -0.9967 -0.0807 0.0002
vn -0.9997 0.0090 0.0208
vn -0.9987 0.0112 0.0501
vn -0.9990 0.0442 0.0023
vn -0.9999 -0.0124 0.0027
vn -0.9999 -0.0118 0.0013
vn -0.9997 0.0257 0.0001
vn -0.9902 0.1397 0.0022
vn -0.9999 -0.0115 -0.0000
vn -0.9902 0.1397 0.0002
vn -0.9683 0.2497 0.0016
vn -0.9480 0.3182 0.0016
vn -0.9477 0.3190 0.0008
vn -0.9483 0.3173 0.0002
vn -0.1611 -0.0105 -0.9869
vn -0.1436 -0.0046 -0.9896
vn -0.1435 -0.0046 -0.9896
vn -0.1611 -0.0106 -0.9869
vn -0.1948 -0.0206 -0.9806
vn -0.1947 -0.0206 -0.9807
vn -0.2518 -0.0193 -0.9676
vn -0.2924 -0.0139 -0.9562
vn -0.9998 -0.0189 0.0073
vn -0.9998 -0.0190 0.0072
vn -0.9998 -0.0188 0.0051
vn -0.9998 -0.0187 0.0052
vn -0.9998 -0.0186 0.0002
vn -0.2304 -0.9711 -0.0625
vn -0.2562 -0.9651 -0.0540
vn -0.3182 -0.9470 -0.0442
vn -0.3672 -0.9295 -0.0361
vn -0.3673 -0.9294 -0.0361
vn -0.3778 -0.9254 -0.0288
vn -0.3777 -0.9255 -0.0288
vn -0.1866 -0.9803 -0.0648
vn -0.1931 -0.9782 -0.0766
vn -0.1866 -0.9803 -0.0649
vn -0.1930 -0.9782 -0.0766
vn -0.9862 -0.0494 -0.1583
vn -0.9999 -0.0127 0.0001
vn -0.8618 0.5072 0.0001
vn -0.7988 0.5968 -0.0751
vn -0.9602 -0.0841 -0.2663
vn -0.8657 0.4734 -0.1626
vn -0.1886 0.9820 0.0001
vn -0.1883 0.9821 0.0001
vn -0.2739 0.9618 0.0000
vn -0.4112 0.9116 0.0000
vn -0.4108 0.9117 0.0000
vn -0.4110 0.9117 -0.0000
vn -0.4789 0.8779 0.0002
vn -0.4725 0.8813 -0.0001
vn -0.4789 0.8779 0.0000
vn -0.7989 0.5968 -0.0752
vn -0.8624 0.5062 0.0001
vn -0.7988 0.5969 -0.0752
vn -0.4847 0.8747 -0.0052
vn -0.8654 0.4739 -0.1626
vn -0.9966 -0.0822 0.0001
vn -0.9966 -0.0820 0.0000
vn -0.9964 -0.0287 -0.0802
vn -0.9955 -0.0748 -0.0584
vn -0.9867 0.0297 -0.1597
vn -0.9937 -0.0702 -0.0878
vn -0.9896 -0.1438 -0.0070
vn -0.9966 -0.0825 -0.0021
vn -0.9966 -0.0826 -0.0020
vn -0.9996 -0.0215 -0.0207
vn -0.9981 0.0527 0.0310
vn -0.9998 0.0088 0.0195
vn -0.9899 0.1023 0.0979
vn -0.9988 0.0098 0.0477
vn -0.6058 -0.0401 -0.7946
vn -0.5141 -0.0245 -0.8574
vn -0.6340 -0.0468 -0.7719
vn -0.5982 -0.0343 -0.8006
vn -0.4368 -0.0136 -0.8995
vn -0.4348 -0.0119 -0.9004
vn -0.4391 -0.0162 -0.8983
vn -0.2338 0.0601 -0.9704
vn -0.4149 -0.0130 -0.9098
vn -0.5992 -0.0192 -0.8004
vn -0.2012 0.0072 -0.9795
vn -0.1744 -0.0051 -0.9847
vn -0.2138 0.0100 -0.9768
vn -0.4465 -0.0113 -0.8947
vn -0.1997 0.0330 -0.9793
vn -0.2712 0.1271 -0.9541
vn -0.1510 -0.0128 -0.9884
vn -0.3667 -0.0187 -0.9302
vn -0.5890 -0.0303 -0.8076
vn -0.0012 0.0163 -0.9999
vn 0.0298 0.0062 -0.9995
vn 0.0445 -0.0010 -0.9990
vn -0.1426 -0.0111 -0.9897
vn -0.0213 0.0167 -0.9996
vn -0.4830 -0.0380 -0.8748
vn -0.1748 -0.0028 -0.9846
vn -0.2353 0.0738 -0.9691
vn -0.3224 0.1799 -0.9293
vn -0.5845 -0.0544 -0.8096
vn -0.3425 -0.0265 -0.9392
vn -0.5025 -0.0731 -0.8615
vn 0.0818 0.0177 -0.9965
vn 0.1082 0.0103 -0.9941
vn 0.1177 0.0035 -0.9930
vn 0.0492 0.0013 -0.9988
vn 0.0632 0.0172 -0.9979
vn -0.2177 -0.0722 -0.9733
vn -0.2008 -0.0418 -0.9787
vn -0.1929 -0.0094 -0.9812
vn -0.2886 0.1147 -0.9506
vn -0.3340 0.2505 -0.9087
vn -0.2013 -0.0815 -0.9761
vn -0.2381 0.0022 -0.9712
vn -0.2999 0.1691 -0.9389
vn -0.3326 0.2955 -0.8956
vn -0.1944 -0.0602 -0.9791
vn -0.2145 -0.0571 -0.9750
vn -0.2069 -0.0697 -0.9759
vn -0.2510 0.0330 -0.9674
vn -0.2258 -0.0297 -0.9737
vn -0.2134 -0.0392 -0.9762
vn -0.3006 0.2007 -0.9324
vn -0.2557 0.0512 -0.9654
vn -0.2323 -0.0124 -0.9726
vn -0.2192 -0.0234 -0.9754
vn 0.1213 0.0045 -0.9926
vn 0.0634 -0.7223 -0.6887
vn 0.0630 -0.7227 -0.6883
vn 0.0776 -0.9406 -0.3305
vn 0.0772 -0.9408 -0.3300
vn -0.2572 0.9661 -0.0232
vn -0.2544 0.9664 -0.0372
vn -0.2637 0.9639 -0.0377
vn -0.2649 0.9640 -0.0231
vn -0.2600 0.9656 -0.0000
vn -0.3065 0.9511 -0.0379
vn -0.3052 0.9520 -0.0225
vn -0.3746 0.9263 -0.0404
vn -0.3712 0.9282 -0.0242
vn -0.4312 0.9011 -0.0451
vn -0.4291 0.9029 -0.0266
vn -0.4531 0.8902 -0.0469
vn -0.4521 0.8916 -0.0272
vn -0.4514 0.8923 0.0000
vn -0.0660 0.7189 -0.6920
vn -0.0244 0.2567 -0.9662
vn -0.0659 0.7184 -0.6925
vn -0.0245 0.2564 -0.9663
vn -0.0032 -0.0003 -1.0000
vn -0.0033 -0.0003 -1.0000
vn -0.0038 -0.0002 -1.0000
vn -0.0038 -0.0003 -1.0000
vn -0.0030 -0.0001 -1.0000
vn -0.0033 -0.0002 -1.0000
vn 0.0270 -0.3224 -0.9462
vn 0.0269 -0.3225 -0.9462
vn 0.0634 -0.7227 -0.6883
vn 0.0632 -0.7228 -0.6882
vn -0.1865 -0.9803 -0.0648
vn -0.1824 -0.9829 -0.0247
vn -0.0903 0.9672 0.2376
vn -0.0902 0.9671 0.2377
vn -0.0658 0.7187 0.6922
vn -0.0658 0.7188 0.6921
vn 0.0774 -0.9407 0.3303
vn 0.0771 -0.9960 0.0460
vn 0.0769 -0.9960 0.0460
vn 0.0770 -0.9970 0.0000
vn 0.0796 -0.9960 0.0396
vn 0.0735 -0.9973 0.0000
vn 0.9969 0.0792 0.0013
vn 0.9965 0.0835 0.0089
vn 0.9968 0.0797 0.0014
vn 0.9964 0.0846 0.0105
vn 0.9968 0.0801 0.0022
vn 0.9967 0.0810 -0.0015
vn 0.9966 0.0818 -0.0027
vn 0.9969 0.0790 0.0055
vn 0.9974 0.0721 -0.0001
vn 0.9974 0.0722 -0.0001
vn 0.9967 0.0810 -0.0059
vn 0.9969 0.0782 -0.0033
vn 0.9966 0.0822 -0.0056
vn 0.9972 0.0753 -0.0021
vn 0.9968 0.0800 -0.0042
vn 0.9970 0.0775 -0.0033
vn 0.8594 0.3896 -0.3311
vn 0.7643 0.6449 -0.0001
vn 0.8594 0.3900 0.3306
vn 0.8595 0.3894 -0.3311
vn 0.8103 0.0661 0.5822
vn 0.8103 0.0661 0.5823
vn 0.8106 0.0659 -0.5818
vn 0.8106 0.0660 -0.5819
vn 0.9293 -0.2092 0.3042
vn 0.9293 -0.2094 0.3042
vn 0.9293 -0.2096 -0.3041
vn 0.9293 -0.2095 -0.3042
vn 0.8903 -0.4554 -0.0001
vn 0.8904 -0.4552 -0.0001
usemtl t1/levels/hunter-city/hotel/service-area/other-props/monitor-wo
s 1
f 1/1/1 2/2/2 3/3/3
f 1/1/1 4/4/4 5/5/5
f 1/1/1 3/3/3 4/4/4
f 3/3/3 6/6/6 4/4/4
f 4/4/4 6/6/6 7/7/7
f 8/8/8 4/4/4 7/7/7
f 5/5/5 4/4/4 8/8/8
f 9/9/9 5/5/5 8/8/8
f 8/8/8 7/7/7 10/10/10
f 8/8/8 10/10/10 11/11/11
f 9/9/9 8/8/8 11/11/11
f 12/12/12 9/9/9 11/11/11
f 11/11/11 10/10/10 13/13/13
f 14/14/14 11/11/11 13/13/13
f 12/12/12 11/11/11 14/14/14
f 10/10/10 15/15/15 13/13/13
f 16/16/16 12/12/12 14/14/14
f 14/14/14 13/13/13 17/17/17
f 18/18/18 16/16/16 14/14/14
f 14/14/14 17/17/17 18/18/18
f 18/18/18 19/19/19 16/16/16
f 18/18/18 17/17/17 20/20/20
f 18/18/18 20/20/20 21/21/21
f 19/19/19 18/18/18 21/21/21
f 19/19/19 21/21/21 22/22/22
f 23/23/23 21/21/21 20/20/20
f 24/24/24 22/22/22 21/21/21
f 23/23/23 24/24/24 21/21/21
f 24/24/24 25/25/25 22/22/22
f 26/26/26 24/24/24 23/23/23
f 27/27/27 25/25/25 24/24/24
f 26/26/26 27/27/27 24/24/24
f 27/27/27 28/28/28 25/25/25
f 29/29/29 30/30/29 31/31/30
f 32/32/30 29/29/29 31/31/30
f 31/31/30 33/33/31 32/32/30
f 31/31/30 34/34/32 33/33/31
f 35/35/33 36/36/34 37/37/35
f 38/38/36 35/35/33 37/37/35
f 39/39/37 35/35/33 38/38/36
f 38/38/36 37/37/35 40/40/38
f 41/41/39 38/38/36 40/40/38
f 42/42/40 41/41/39 40/40/38
f 42/42/40 43/43/41 41/41/39
f 42/42/40 44/44/42 43/43/41
f 42/42/40 45/45/43 44/44/42
f 43/43/41 44/44/42 46/46/44
f 47/47/45 48/48/46 49/49/47
f 47/47/45 49/49/47 50/50/48
f 51/51/49 47/47/45 50/50/48
f 51/51/49 50/50/48 52/52/50
f 53/53/51 51/51/49 52/52/50
f 53/53/51 52/52/50 54/54/52
f 54/54/52 55/55/53 53/53/51
f 56/56/54 57/57/55 58/58/56
f 56/56/54 59/59/57 57/57/55
f 59/59/57 56/56/54 60/60/58
f 56/56/54 61/61/59 60/60/58
f 62/62/60 63/63/61 64/64/62
f 62/62/60 64/64/62 65/65/62
f 65/65/62 64/64/62 66/66/63
f 65/65/62 66/66/63 67/67/64
f 67/67/64 66/66/63 68/68/65
f 67/67/64 68/68/65 69/69/66
f 69/69/66 68/68/65 70/70/67
f 69/69/66 70/70/67 71/71/68
f 72/72/69 73/73/70 74/74/71
f 72/72/69 74/74/71 75/75/71
f 75/75/71 74/74/71 76/76/72
f 77/77/72 75/75/71 76/76/72
f 78/78/73 79/79/74 80/80/75
f 78/78/73 81/81/76 79/79/74
f 81/81/76 78/78/73 82/82/77
f 81/81/76 82/82/77 83/83/78
f 84/84/79 85/85/80 86/86/81
f 85/85/80 87/87/82 86/86/81
f 85/85/80 88/88/83 87/87/82
f 88/88/83 89/89/84 87/87/82
f 87/87/82 89/89/84 90/90/80
f 86/86/81 87/87/82 90/90/80
f 86/86/81 90/90/80 91/91/85
f 89/89/84 88/88/83 92/92/86
f 89/89/84 93/93/87 90/90/80
f 94/94/88 89/89/84 92/92/86
f 95/95/89 89/89/84 94/94/88
f 95/95/89 93/93/87 89/89/84
f 94/94/88 92/92/86 96/96/90
f 97/97/91 94/94/88 96/96/90
f 98/98/92 94/94/88 97/97/91
f 98/98/92 95/95/89 94/94/88
f 97/97/91 96/96/90 99/99/93
f 97/97/91 100/100/94 98/98/92
f 100/100/94 97/97/91 99/99/93
f 98/98/92 100/100/94 101/101/95
f 102/102/96 103/103/97 104/104/97
f 105/105/96 102/102/96 104/104/97
f 106/106/98 102/102/96 105/105/96
f 107/107/99 106/106/98 105/105/96
f 108/108/100 106/106/98 107/107/99
f 108/108/100 107/107/99 109/109/101
f 107/107/99 110/110/102 109/109/101
f 110/110/102 111/111/103 109/109/101
f 110/110/102 112/112/104 111/111/103
f 112/112/104 113/113/105 111/111/103
f 114/114/106 113/113/105 112/112/104
f 114/114/106 115/115/106 113/113/105
f 116/116/107 115/115/106 114/114/106
f 117/117/108 116/116/107 114/114/106
f 118/118/109 116/116/107 117/117/108
f 118/118/109 117/117/108 119/119/110
f 120/120/111 121/121/112 122/122/113
f 123/123/114 120/120/111 122/122/113
f 124/124/115 120/120/111 123/123/114
f 124/124/115 125/125/116 120/120/111
f 123/123/114 122/122/113 126/126/117
f 127/127/118 126/126/117 122/122/113
f 126/126/117 128/128/119 123/123/114
f 129/129/120 123/123/114 128/128/119
f 129/129/120 124/124/115 123/123/114
f 124/124/115 130/130/121 125/125/116
f 131/131/122 130/130/121 124/124/115
f 129/129/120 131/131/122 124/124/115
f 130/130/121 132/132/123 125/125/116
f 126/126/117 133/133/124 128/128/119
f 134/134/125 133/133/124 126/126/117
f 127/127/118 134/134/125 126/126/117
f 135/135/126 134/134/125 127/127/118
f 133/133/124 136/136/127 128/128/119
f 128/128/119 136/136/127 137/137/128
f 128/128/119 137/137/128 129/129/120
f 138/138/129 131/131/122 129/129/120
f 137/137/128 138/138/129 129/129/120
f 139/139/130 132/132/123 130/130/121
f 140/140/131 139/139/130 130/130/121
f 140/140/131 130/130/121 131/131/122
f 131/131/122 141/141/132 140/140/131
f 131/131/122 138/138/129 141/141/132
f 139/139/130 142/142/133 132/132/123
f 133/133/124 143/143/134 136/136/127
f 134/134/125 144/144/135 133/133/124
f 143/143/134 133/133/124 144/144/135
f 145/145/136 144/144/135 134/134/125
f 135/135/126 145/145/136 134/134/125
f 146/146/137 138/138/129 137/137/128
f 138/138/129 146/146/137 141/141/132
f 145/145/136 135/135/126 147/147/138
f 136/136/127 143/143/134 148/148/139
f 136/136/127 149/149/140 137/137/128
f 149/149/140 136/136/127 148/148/139
f 149/149/140 150/150/141 137/137/128
f 150/150/141 146/146/137 137/137/128
f 151/151/142 139/139/130 140/140/131
f 151/151/142 152/152/143 139/139/130
f 139/139/130 152/152/143 142/142/133
f 140/140/131 153/153/144 151/151/142
f 140/140/131 141/141/132 153/153/144
f 152/152/143 154/154/145 142/142/133
f 143/143/134 144/144/135 155/155/146
f 156/156/147 148/148/139 143/143/134
f 156/156/147 143/143/134 155/155/146
f 145/145/136 147/147/138 157/157/148
f 145/145/136 158/158/149 144/144/135
f 158/158/149 145/145/136 157/157/148
f 157/157/148 147/147/138 159/159/150
f 160/160/151 156/156/147 155/155/146
f 158/158/149 157/157/148 161/161/152
f 161/161/152 157/157/148 162/162/153
f 157/157/148 159/159/150 162/162/153
f 163/163/154 162/162/153 159/159/150
f 160/160/151 155/155/146 164/164/155
f 155/155/146 144/144/135 164/164/155
f 144/144/135 158/158/149 164/164/155
f 158/158/149 165/165/156 164/164/155
f 158/158/149 161/161/152 165/165/156
f 166/166/157 160/160/151 164/164/155
f 165/165/156 166/166/157 164/164/155
f 161/161/152 162/162/153 167/167/158
f 161/161/152 167/167/158 168/168/159
f 161/161/152 168/168/159 165/165/156
f 169/169/160 165/165/156 168/168/159
f 169/169/160 166/166/157 165/165/156
f 170/170/161 167/167/158 162/162/153
f 171/171/162 170/170/161 162/162/153
f 163/163/154 171/171/162 162/162/153
f 172/172/163 167/167/158 170/170/161
f 172/172/163 168/168/159 167/167/158
f 168/168/159 172/172/163 173/173/164
f 169/169/160 168/168/159 173/173/164
f 141/141/132 174/174/165 153/153/144
f 141/141/132 175/175/166 174/174/165
f 146/146/137 175/175/166 141/141/132
f 176/176/167 177/177/168 178/178/169
f 177/177/168 179/179/170 178/178/169
f 180/180/171 181/181/172 182/182/173
f 180/180/171 183/183/174 181/181/172
f 184/184/175 183/183/174 180/180/171
f 183/183/174 185/185/176 181/181/172
f 183/183/174 186/186/177 185/185/176
f 187/187/178 186/186/177 183/183/174
f 184/184/175 187/187/178 183/183/174
f 186/186/177 188/188/179 185/185/176
f 187/187/178 189/189/180 186/186/177
f 189/189/180 190/190/181 186/186/177
f 186/186/177 190/190/181 188/188/179
f 191/191/182 188/188/179 190/190/181
f 189/189/180 192/192/183 190/190/181
f 190/190/181 192/192/183 193/193/184
f 194/194/185 190/190/181 193/193/184
f 191/191/182 190/190/181 194/194/185
f 195/195/186 191/191/182 194/194/185
f 195/195/186 194/194/185 196/196/187
f 196/196/187 194/194/185 193/193/184
f 196/196/187 193/193/184 197/197/188
f 198/198/189 199/199/190 200/200/191
f 199/199/190 201/201/192 200/200/191
f 200/200/191 201/201/192 202/202/193
f 201/201/192 203/203/194 202/202/193
f 202/202/193 203/203/194 204/204/195
f 203/203/194 205/205/196 204/204/195
f 205/205/196 206/206/197 204/204/195
f 205/205/196 207/207/198 206/206/197
f 206/206/197 207/207/198 208/208/199
f 209/209/200 206/206/197 208/208/199
f 208/208/199 210/210/201 209/209/200
f 208/208/199 211/211/202 210/210/201
f 212/212/203 213/213/204 214/214/203
f 215/215/205 216/216/206 217/217/207
f 216/216/206 218/218/208 217/217/207
f 216/216/206 219/219/209 218/218/208
f 216/216/206 220/220/210 219/219/209
f 216/216/206 221/221/211 220/220/210
f 216/216/206 222/222/212 221/221/211
f 216/216/206 223/223/213 222/222/212
f 216/216/206 224/224/214 223/223/213
f 225/225/215 226/226/216 227/227/217
f 226/226/216 228/228/218 227/227/217
f 229/229/219 228/228/218 226/226/216
f 230/230/220 229/229/219 226/226/216
f 230/230/220 231/231/221 229/229/219
f 231/231/221 232/232/222 229/229/219
f 233/233/223 232/232/222 231/231/221
f 233/233/223 234/234/224 232/232/222
f 233/233/223 235/235/225 234/234/224
f 235/235/225 236/236/226 234/234/224
f 237/237/227 236/236/226 235/235/225
f 238/238/228 237/237/227 235/235/225
f 238/238/228 239/239/229 237/237/227
f 239/239/229 240/240/230 237/237/227
f 241/241/231 240/240/230 239/239/229
f 242/242/232 241/241/231 239/239/229
f 243/243/214 244/244/206 245/245/233
f 244/244/206 246/246/234 245/245/233
f 244/244/206 247/247/235 246/246/234
f 244/244/206 248/248/236 247/247/235
f 244/244/206 249/249/237 248/248/236
f 244/244/206 250/250/238 249/249/237
f 251/251/239 252/252/239 253/253/239
f 251/251/239 254/254/240 252/252/239
f 254/254/240 255/255/241 252/252/239
f 254/254/240 256/256/242 255/255/241
f 244/244/206 257/257/243 250/250/238
f 244/244/206 258/258/244 257/257/243
f 259/259/245 260/260/246 261/261/247
f 259/259/245 262/262/248 260/260/246
f 263/263/249 260/260/246 262/262/248
f 264/264/250 263/263/249 262/262/248
f 264/264/250 265/265/251 263/263/249
f 265/265/251 266/266/252 263/263/249
f 267/267/253 266/266/252 265/265/251
f 267/267/253 268/268/254 266/266/252
f 267/267/253 269/269/255 268/268/254
f 267/267/253 270/270/256 269/269/255
f 271/271/257 269/269/255 270/270/256
f 271/271/257 272/272/258 269/269/255
f 271/271/257 273/273/259 272/272/258
f 273/273/259 274/274/260 272/272/258
f 275/275/261 274/274/260 273/273/259
f 275/275/261 276/276/262 274/274/260
f 277/277/263 278/278/264 279/279/265
f 278/278/264 280/280/266 279/279/265
f 281/281/267 279/279/265 280/280/266
f 282/282/268 281/281/267 280/280/266
f 281/281/267 282/282/268 283/283/269
f 282/282/268 284/284/270 283/283/269
f 285/285/271 283/283/269 284/284/270
f 285/285/271 286/286/272 283/283/269
f 287/287/273 288/288/274 289/289/275
f 288/288/274 290/290/276 289/289/275
f 291/291/277 289/289/275 290/290/276
f 291/291/277 292/292/278 289/289/275
f 293/293/279 294/294/280 295/295/281
f 294/294/280 296/296/282 295/295/281
f 297/297/283 295/295/281 296/296/282
f 298/298/284 297/297/283 296/296/282
f 299/299/285 300/300/286 301/301/287
f 299/299/285 301/301/287 302/302/288
f 303/303/289 302/302/288 301/301/287
f 303/303/289 304/304/290 302/302/288
f 304/304/290 303/303/289 305/305/291
f 303/303/289 306/306/292 305/305/291
f 307/307/293 305/305/291 306/306/292
f 308/308/294 307/307/293 306/306/292
f 309/309/295 310/310/296 311/311/297
f 310/310/296 312/312/298 311/311/297
f 313/313/299 311/311/297 312/312/298
f 314/314/300 313/313/299 312/312/298
f 315/315/301 316/316/302 317/317/303
f 316/316/302 318/318/304 317/317/303
f 319/319/247 317/317/303 318/318/304
f 320/320/305 319/319/247 318/318/304
f 321/321/306 322/322/307 323/323/308
f 324/324/309 321/321/306 323/323/308
f 325/325/310 321/321/306 324/324/309
f 326/326/311 325/325/310 324/324/309
f 327/327/312 325/325/310 326/326/311
f 328/328/313 327/327/312 326/326/311
f 329/329/314 327/327/312 328/328/313
f 330/330/315 329/329/314 328/328/313
f 331/331/316 332/332/317 333/333/318
f 334/334/319 331/331/316 333/333/318
f 335/335/320 331/331/316 334/334/319
f 336/336/321 335/335/320 334/334/319
f 337/337/322 338/338/323 339/339/324
f 340/340/325 337/337/322 339/339/324
f 341/341/326 337/337/322 340/340/325
f 342/342/327 341/341/326 340/340/325
f 343/343/328 344/344/326 345/345/329
f 346/346/330 343/343/328 345/345/329
f 347/347/331 343/343/328 346/346/330
f 348/348/332 347/347/331 346/346/330
f 349/349/333 347/347/331 348/348/332
f 350/350/334 349/349/333 348/348/332
f 351/351/335 349/349/333 350/350/334
f 352/352/336 351/351/335 350/350/334
f 353/353/337 354/354/338 355/355/339
f 356/356/340 353/353/337 355/355/339
f 357/357/341 353/353/337 356/356/340
f 358/358/342 357/357/341 356/356/340
f 359/359/343 360/360/344 361/361/345
f 362/362/346 359/359/343 361/361/345
f 363/363/347 359/359/343 362/362/346
f 364/364/348 363/363/347 362/362/346
f 365/365/349 366/366/350 367/367/351
f 367/367/351 366/366/350 368/368/352
f 369/369/352 367/367/351 368/368/352
f 370/370/353 369/369/352 368/368/352
f 371/371/354 370/370/353 368/368/352
f 372/372/206 370/370/353 371/371/354
f 373/373/206 372/372/206 371/371/354
f 374/374/355 375/375/356 376/376/357
f 377/377/358 376/376/357 375/375/356
f 377/377/358 378/378/359 376/376/357
f 379/379/360 376/376/357 378/378/359
f 379/379/360 380/380/361 376/376/357
f 381/381/362 376/376/357 380/380/361
f 381/381/362 382/382/363 376/376/357
f 382/382/363 383/383/344 376/376/357
f 384/384/364 385/385/365 386/386/357
f 387/387/366 386/386/357 385/385/365
f 387/387/366 388/388/367 386/386/357
f 389/389/310 386/386/357 388/388/367
f 389/389/310 390/390/312 386/386/357
f 391/391/368 386/386/357 390/390/312
f 391/391/368 392/392/369 386/386/357
f 392/392/369 393/393/370 386/386/357
f 394/394/371 395/395/372 396/396/373
f 394/394/371 396/396/373 397/397/374
f 398/398/374 394/394/371 397/397/374
f 399/399/375 398/398/374 397/397/374
f 400/400/376 399/399/375 397/397/374
f 401/401/206 399/399/375 400/400/376
f 402/402/206 401/401/206 400/400/376
f 403/403/377 404/404/378 405/405/379
f 406/406/380 403/403/377 405/405/379
f 406/406/380 407/407/381 403/403/377
f 407/407/381 408/408/382 403/403/377
f 408/408/382 409/409/383 403/403/377
f 403/403/377 410/410/384 404/404/378
f 411/411/385 404/404/378 410/410/384
f 409/409/383 408/408/382 412/412/386
f 411/411/385 410/410/384 413/413/387
f 414/414/388 413/413/387 410/410/384
f 409/409/383 412/412/386 415/415/389
f 415/415/389 416/416/390 409/409/383
f 254/254/240 417/417/391 256/256/242
f 418/418/392 419/419/393 420/420/393
f 421/421/394 418/418/392 420/420/393
f 422/422/395 418/418/392 421/421/394
f 422/422/395 421/421/394 423/423/395
f 424/424/396 425/425/397 426/426/398
f 424/424/396 426/426/398 427/427/399
f 427/427/399 428/428/400 424/424/396
f 427/427/399 426/426/398 429/429/401
f 427/427/399 429/429/401 430/430/402
f 427/427/399 430/430/402 431/431/403
f 427/427/399 431/431/403 428/428/400
f 430/430/402 432/432/404 431/431/403
f 433/433/405 432/432/404 430/430/402
f 434/434/406 433/433/405 430/430/402
f 434/434/406 430/430/402 429/429/401
f 435/435/407 434/434/406 429/429/401
f 434/434/406 436/436/408 433/433/405
f 437/437/409 434/434/406 435/435/407
f 434/434/406 437/437/409 436/436/408
f 438/438/410 437/437/409 435/435/407
f 439/439/411 436/436/408 437/437/409
f 440/440/412 439/439/411 437/437/409
f 440/440/412 437/437/409 438/438/410
f 436/436/408 439/439/411 441/441/413
f 442/442/414 440/440/412 438/438/410
f 440/440/412 443/443/415 439/439/411
f 444/444/416 440/440/412 442/442/414
f 440/440/412 444/444/416 443/443/415
f 444/444/416 442/442/414 445/445/19
f 444/444/416 446/446/417 443/443/415
f 445/445/19 447/447/418 444/444/416
f 444/444/416 447/447/418 446/446/417
f 445/445/19 448/448/419 447/447/418
f 449/449/420 446/446/417 447/447/418
f 449/449/420 447/447/418 450/450/421
f 450/450/421 447/447/418 448/448/419
f 450/450/421 448/448/419 451/451/25
f 452/452/422 449/449/420 450/450/421
f 452/452/422 450/450/421 453/453/423
f 453/453/423 450/450/421 451/451/25
f 453/453/423 451/451/25 454/454/28
f 455/455/424 456/456/425 457/457/426
f 455/455/424 457/457/426 458/458/427
f 455/455/424 458/458/427 459/459/428
f 458/458/427 457/457/426 460/460/429
f 458/458/427 461/461/430 459/459/428
f 458/458/427 460/460/429 462/462/431
f 458/458/427 462/462/431 463/463/432
f 458/458/427 463/463/432 461/461/430
f 464/464/433 465/465/434 466/466/434
f 467/467/433 464/464/433 466/466/434
f 464/464/433 467/467/433 468/468/435
f 464/464/433 468/468/435 469/469/436
f 470/470/437 471/471/438 472/472/439
f 473/473/440 470/470/437 472/472/439
f 474/474/441 470/470/437 473/473/440
f 473/473/440 472/472/439 475/475/442
f 476/476/443 474/474/441 473/473/440
f 477/477/444 474/474/441 476/476/443
f 477/477/444 476/476/443 478/478/41
f 477/477/444 478/478/41 479/479/445
f 477/477/444 479/479/445 480/480/446
f 478/478/41 481/481/447 479/479/445
f 482/482/448 483/483/449 484/484/450
f 482/482/448 485/485/451 483/483/449
f 486/486/452 485/485/451 482/482/448
f 486/486/452 487/487/453 485/485/451
f 488/488/454 487/487/453 486/486/452
f 488/488/454 489/489/454 487/487/453
f 489/489/454 488/488/454 490/490/455
f 491/491/456 492/492/457 493/493/458
f 494/494/459 491/491/456 493/493/458
f 493/493/458 495/495/460 494/494/459
f 493/493/458 496/496/460 495/495/460
f 497/497/461 498/498/462 499/499/461
f 497/497/461 500/500/462 498/498/462
f 500/500/462 501/501/463 498/498/462
f 500/500/462 502/502/463 501/501/463
f 502/502/463 503/503/464 501/501/463
f 502/502/463 504/504/465 503/503/464
f 504/504/465 505/505/466 503/503/464
f 504/504/465 506/506/467 505/505/466
f 507/507/468 508/508/469 509/509/470
f 507/507/468 510/510/471 508/508/469
f 511/511/72 508/508/469 510/510/471
f 512/512/72 511/511/72 510/510/471
f 513/513/472 514/514/473 515/515/474
f 513/513/472 515/515/474 516/516/475
f 516/516/475 517/517/476 513/513/472
f 516/516/475 518/518/477 517/517/476
f 519/519/478 520/520/479 521/521/480
f 520/520/479 522/522/80 521/521/480
f 521/521/480 522/522/80 523/523/481
f 520/520/479 524/524/80 522/522/80
f 522/522/80 524/524/80 525/525/482
f 522/522/80 525/525/482 523/523/481
f 520/520/479 526/526/79 524/524/80
f 527/527/88 523/523/481 525/525/482
f 524/524/80 528/528/483 525/525/482
f 529/529/86 525/525/482 528/528/483
f 529/529/86 527/527/88 525/525/482
f 530/530/484 527/527/88 529/529/86
f 531/531/485 529/529/86 528/528/483
f 532/532/486 529/529/86 531/531/485
f 532/532/486 530/530/484 529/529/86
f 533/533/90 532/532/486 531/531/485
f 532/532/486 533/533/90 534/534/487
f 534/534/487 530/530/484 532/532/486
f 534/534/487 535/535/488 530/530/484
f 534/534/489 536/536/490 537/537/491
f 538/538/492 539/539/492 540/540/493
f 541/541/492 538/538/492 540/540/493
f 541/541/492 540/540/493 542/542/494
f 543/543/495 541/541/492 542/542/494
f 543/543/495 542/542/494 544/544/496
f 543/543/495 544/544/496 545/545/497
f 543/543/495 545/545/497 546/546/498
f 545/545/497 547/547/498 546/546/498
f 546/546/498 547/547/498 548/548/499
f 547/547/498 549/549/500 548/548/499
f 548/548/499 549/549/500 550/550/501
f 551/551/501 548/548/499 550/550/501
f 551/551/501 550/550/501 552/552/502
f 553/553/503 551/551/501 552/552/502
f 553/553/503 552/552/502 554/554/504
f 553/553/503 554/554/504 555/555/505
f 556/556/506 557/557/507 558/558/508
f 559/559/509 557/557/507 556/556/506
f 560/560/510 559/559/509 556/556/506
f 560/560/510 556/556/506 561/561/511
f 559/559/509 562/562/512 557/557/507
f 563/563/513 557/557/507 562/562/512
f 564/564/514 559/559/509 560/560/510
f 562/562/512 559/559/509 565/565/515
f 564/564/514 565/565/515 559/559/509
f 560/560/510 561/561/511 566/566/516
f 560/560/510 566/566/516 567/567/517
f 564/564/514 560/560/510 567/567/517
f 561/561/511 568/568/518 566/566/516
f 562/562/512 565/565/515 569/569/519
f 570/570/520 562/562/512 569/569/519
f 563/563/513 562/562/512 570/570/520
f 571/571/521 563/563/513 570/570/520
f 564/564/514 567/567/517 572/572/522
f 573/573/523 564/564/514 572/572/522
f 565/565/515 564/564/514 573/573/523
f 565/565/515 573/573/523 574/574/524
f 569/569/519 565/565/515 574/574/524
f 575/575/525 566/566/516 568/568/518
f 576/576/526 566/566/516 575/575/525
f 576/576/526 567/567/517 566/566/516
f 567/567/517 577/577/527 572/572/522
f 567/567/517 576/576/526 577/577/527
f 573/573/523 572/572/522 578/578/528
f 572/572/522 577/577/527 578/578/528
f 575/575/525 568/568/518 579/579/529
f 569/569/519 574/574/524 580/580/530
f 570/570/520 569/569/519 581/581/531
f 580/580/530 581/581/531 569/569/519
f 571/571/521 570/570/520 582/582/532
f 582/582/532 570/570/520 581/581/531
f 582/582/532 583/583/533 571/571/521
f 574/574/524 573/573/523 584/584/534
f 573/573/523 585/585/535 584/584/534
f 585/585/535 573/573/523 578/578/528
f 586/586/536 580/580/530 574/574/524
f 584/584/534 586/586/536 574/574/524
f 575/575/525 579/579/529 587/587/537
f 588/588/538 575/575/525 587/587/537
f 588/588/538 576/576/526 575/575/525
f 576/576/526 589/589/539 577/577/527
f 576/576/526 588/588/538 589/589/539
f 577/577/527 590/590/540 578/578/528
f 579/579/529 591/591/541 587/587/537
f 592/592/542 580/580/530 586/586/536
f 592/592/542 593/593/543 580/580/530
f 580/580/530 593/593/543 581/581/531
f 582/582/532 581/581/531 594/594/544
f 594/594/544 595/595/545 582/582/532
f 582/582/532 595/595/545 583/583/533
f 595/595/545 596/596/546 583/583/533
f 597/597/547 593/593/543 592/592/542
f 594/594/544 598/598/548 595/595/545
f 598/598/548 599/599/549 595/595/545
f 595/595/545 599/599/549 596/596/546
f 600/600/550 596/596/546 599/599/549
f 597/597/547 601/601/551 593/593/543
f 593/593/543 601/601/551 581/581/531
f 601/601/551 594/594/544 581/581/531
f 594/594/544 602/602/552 598/598/548
f 594/594/544 601/601/551 602/602/552
f 601/601/551 597/597/547 603/603/553
f 602/602/552 601/601/551 603/603/553
f 598/598/548 604/604/554 599/599/549
f 598/598/548 605/605/555 604/604/554
f 598/598/548 602/602/552 605/605/555
f 606/606/556 602/602/552 603/603/553
f 606/606/556 605/605/555 602/602/552
f 600/600/550 599/599/549 607/607/557
f 607/607/557 599/599/549 608/608/558
f 599/599/549 604/604/554 608/608/558
f 609/609/559 604/604/554 605/605/555
f 609/609/559 608/608/558 604/604/554
f 610/610/560 609/609/559 605/605/555
f 606/606/556 610/610/560 605/605/555
f 577/577/527 589/589/539 611/611/561
f 577/577/527 611/611/561 590/590/540
f 612/612/562 613/613/563 614/614/564
f 613/613/563 615/615/565 614/614/564
f 616/616/566 617/617/567 618/618/568
f 616/616/566 618/618/568 619/619/569
f 620/620/570 616/616/566 619/619/569
f 619/619/569 618/618/568 621/621/571
f 619/619/569 621/621/571 622/622/572
f 623/623/178 619/619/569 622/622/572
f 620/620/570 619/619/569 623/623/178
f 622/622/572 621/621/571 624/624/573
f 623/623/178 622/622/572 625/625/180
f 625/625/180 622/622/572 626/626/574
f 622/622/572 624/624/573 626/626/574
f 627/627/575 626/626/574 624/624/573
f 625/625/180 626/626/574 628/628/183
f 629/629/576 628/628/183 626/626/574
f 627/627/575 629/629/576 626/626/574
f 630/630/577 629/629/576 627/627/575
f 629/629/576 631/631/184 628/628/183
f 632/632/578 631/631/184 629/629/576
f 630/630/577 632/632/578 629/629/576
f 632/632/578 633/633/579 631/631/184
f 634/634/580 635/635/581 636/636/582
f 635/635/581 637/637/583 636/636/582
f 635/635/581 638/638/584 637/637/583
f 638/638/584 639/639/585 637/637/583
f 638/638/584 640/640/586 639/639/585
f 640/640/586 641/641/587 639/639/585
f 641/641/587 640/640/586 642/642/588
f 640/640/586 643/643/589 642/642/588
f 644/644/590 642/642/588 643/643/589
f 644/644/590 645/645/591 642/642/588
f 645/645/591 644/644/590 646/646/592
f 645/645/591 646/646/592 647/647/593
f 648/648/594 649/649/594 650/650/595
f 651/651/239 652/652/239 653/653/239
f 653/653/239 652/652/239 654/654/596
f 652/652/239 655/655/597 654/654/596
f 654/654/596 655/655/597 656/656/598
f 654/654/596 656/656/598 657/657/599
f 658/658/600 659/659/600 660/660/601
f 661/661/602 658/658/600 660/660/601
f 662/662/395 661/661/602 660/660/601
f 662/662/395 663/663/603 661/661/602
f 664/664/604 665/665/398 666/666/605
f 664/664/604 1/1/1 665/665/398
f 1/1/1 664/664/604 2/2/2
f 1/1/1 5/5/5 665/665/398
f 414/414/388 667/667/606 413/413/387
f 415/415/389 668/668/607 416/416/390
f 414/414/388 669/669/608 667/667/606
f 670/670/609 416/416/390 668/668/607
f 414/414/388 671/671/610 669/669/608
f 671/671/610 414/414/388 672/672/611
f 414/414/388 673/673/612 672/672/611
f 670/670/609 674/674/613 416/416/390
f 416/416/390 674/674/613 675/675/614
f 416/416/390 675/675/614 676/676/615
f 677/677/616 672/672/611 673/673/612
f 678/678/617 676/676/615 675/675/614
f 677/677/616 673/673/612 679/679/618
f 679/679/618 673/673/612 678/678/617
f 678/678/617 675/675/614 680/680/619
f 679/679/618 678/678/617 681/681/620
f 678/678/617 680/680/619 682/682/621
f 678/678/617 682/682/621 681/681/620
f 683/683/622 684/684/623 685/685/623
f 686/686/624 685/685/623 684/684/623
f 686/686/624 684/684/623 687/687/624
f 683/683/622 688/688/625 684/684/623
f 686/686/624 687/687/624 689/689/626
f 686/686/624 689/689/626 690/690/627
f 683/683/622 691/691/628 688/688/625
f 683/683/622 692/692/629 691/691/628
f 693/693/630 690/690/627 689/689/626
f 693/693/630 689/689/626 694/694/631
f 695/695/632 691/691/628 692/692/629
f 695/695/632 696/696/633 691/691/628
f 693/693/630 694/694/631 697/697/634
f 697/697/634 696/696/633 695/695/632
f 698/698/635 693/693/630 697/697/634
f 698/698/635 697/697/634 695/695/632
