o Generic
v 0.026342 0.050945 -0.000001
v 0.026342 0.041215 0.029944
v 0.026342 0.015742 0.048451
v 0.026342 0.015742 -0.048452
v 0.026342 0.041215 -0.029945
v 0.026342 -0.041215 -0.029945
v 0.026342 -0.041215 0.029944
v 0.026342 -0.015743 0.048451
v 0.026342 -0.050945 -0.000001
v 0.026342 -0.015743 -0.048452
v 0.322417 0.027502 -0.000000
v 0.254013 0.041030 -0.000000
v 0.254013 0.033195 0.024117
v 0.322417 0.022250 0.016166
v 0.396219 0.008935 -0.000000
v 0.396219 0.007227 0.005251
v 0.322417 0.008500 0.026157
v 0.396219 0.002760 0.008497
v 0.322417 -0.008500 0.026157
v 0.396219 -0.002760 0.008497
v 0.322417 -0.022250 0.016166
v 0.396219 -0.007227 0.005251
v 0.322417 -0.027503 -0.000000
v 0.396219 -0.008935 -0.000000
v 0.396219 -0.007228 -0.005252
v 0.322417 -0.022250 -0.016166
v 0.396219 -0.002760 -0.008497
v 0.322417 -0.008500 -0.026157
v 0.396219 0.002760 -0.008497
v 0.322417 0.008500 -0.026157
v 0.254013 0.012680 0.039022
v 0.254013 -0.012680 0.039022
v 0.254013 -0.033195 0.024117
v 0.254013 -0.041030 -0.000000
v 0.254013 -0.033195 -0.024117
v 0.254013 -0.012680 -0.039023
v 0.254013 0.012680 -0.039023
v 0.322417 0.022250 -0.016166
v 0.254013 0.033195 -0.024117
v 0.169986 0.038777 -0.028174
v 0.169986 0.047932 -0.000000
v 0.169986 0.014812 -0.045586
v 0.169986 -0.014813 -0.045586
v 0.169986 -0.038778 -0.028174
v 0.396219 0.007227 -0.005252
v 0.169986 0.038777 0.028174
v 0.169986 0.014812 0.045586
v 0.169986 -0.014813 0.045586
v 0.169986 -0.038778 0.028174
v 0.169986 -0.047933 -0.000000
v 0.025540 -0.047933 -0.000000
v 0.025540 -0.038778 -0.028174
v 0.025540 -0.014813 -0.045586
v 0.025540 0.014812 -0.045587
v 0.025540 0.038777 -0.028174
v 0.025540 0.047932 -0.000000
v 0.025540 0.038777 0.028174
v 0.025540 0.014812 0.045586
v 0.025540 -0.014813 0.045586
v 0.025540 -0.038778 0.028174
v -0.347506 0.015742 0.048451
v 0.026342 0.015742 0.048451
v 0.026342 0.041215 0.029944
v -0.347506 0.041215 0.029944
v 0.026342 0.050945 -0.000001
v -0.347506 0.050945 -0.000001
v -0.347506 0.041215 -0.029945
v 0.026342 0.041215 -0.029945
v -0.347506 0.015742 -0.048452
v 0.026342 0.015742 -0.048452
v -0.347506 -0.015742 -0.048452
v 0.026342 -0.015743 -0.048452
v -0.347506 -0.041215 -0.029945
v 0.026342 -0.041215 -0.029945
v -0.347506 -0.050945 -0.000001
v 0.026342 -0.050945 -0.000001
v 0.026342 -0.041215 0.029944
v -0.347506 -0.041215 0.029944
v 0.026342 -0.015743 0.048451
v -0.347506 -0.015743 0.048451
v -0.353199 -0.045128 -0.032788
v -0.353199 -0.017238 -0.053051
v -0.347096 -0.017238 -0.053051
v -0.347096 0.017237 -0.053051
v -0.353199 0.017237 -0.053051
v -0.347096 0.045127 -0.032788
v -0.353199 0.045127 -0.032788
v -0.347096 0.055780 -0.000000
v -0.353199 0.055780 -0.000000
v -0.347096 0.045127 0.032786
v -0.353199 0.045127 0.032786
v -0.347096 0.017238 0.053051
v -0.353199 0.017238 0.053051
v -0.347096 -0.017238 0.053051
v -0.353199 -0.017238 0.053051
v -0.347096 -0.045128 0.032786
v -0.353199 -0.045128 0.032786
v -0.347096 -0.055780 -0.000000
v -0.353199 -0.055780 -0.000000
v -0.347096 -0.045128 -0.032788
v -0.353199 -0.055780 -0.000000
v -0.353199 -0.045128 0.032786
v -0.353199 -0.017238 0.053051
v -0.353199 -0.017238 -0.053051
v -0.353199 0.045127 0.032786
v -0.353199 0.045127 -0.032788
v -0.353199 0.055780 -0.000000
v -0.353199 -0.045128 -0.032788
v -0.353199 0.017237 -0.053051
v 0.396219 0.007227 -0.005252
v 0.396219 0.008935 -0.000000
v 0.396219 0.007227 0.005251
v 0.396219 -0.002760 -0.008497
v 0.396219 -0.002760 0.008497
v 0.396219 -0.008935 -0.000000
v 0.396219 -0.007227 0.005251
v 0.396219 -0.007228 -0.005252
v 0.396219 0.002760 -0.008497
v -0.347096 0.045127 -0.032788
v -0.347096 0.055780 -0.000000
v -0.347096 0.045127 0.032786
v -0.347096 -0.017238 -0.053051
v -0.347096 -0.017238 0.053051
v -0.347096 -0.055780 -0.000000
v -0.347096 -0.045128 0.032786
v -0.347096 0.017237 -0.053051
v -0.347096 -0.045128 -0.032788
v -0.347096 0.017238 0.053051
v -0.353199 0.017238 0.053051
v 0.396219 0.002760 0.008497
vn 1.000000 0.000000 -0.000000
vn 1.000000 0.000000 0.000000
vn 1.000000 0.000000 0.000000
vn 1.000000 0.000000 -0.000001
vn 1.000000 0.000000 0.000000
vn 1.000000 -0.000000 -0.000000
vn 1.000000 -0.000001 0.000001
vn 1.000000 0.000000 0.000000
vn 1.000000 -0.000003 0.000001
vn 1.000000 0.000000 -0.000003
vn 0.210739 0.977542 -0.000000
vn 0.138199 0.990404 -0.000002
vn 0.137408 0.859381 0.492528
vn 0.219085 0.789029 0.573964
vn 0.244003 0.969774 0.000006
vn 0.242667 0.718831 0.651455
vn 0.219088 0.300992 0.928119
vn 0.242665 0.198681 0.949547
vn 0.219089 -0.302049 0.927775
vn 0.242665 -0.397384 0.884986
vn 0.219090 -0.789698 0.573042
vn 0.242650 -0.841637 0.482461
vn 0.227404 -0.973800 0.000007
vn 0.243983 -0.969780 0.000022
vn 0.242650 -0.841637 -0.482460
vn 0.219088 -0.789695 -0.573046
vn 0.242662 -0.397379 -0.884989
vn 0.219089 -0.302054 -0.927773
vn 0.242665 0.198672 -0.949549
vn 0.219087 0.300991 -0.928119
vn 0.137405 0.405755 0.903594
vn 0.137405 -0.202873 0.969517
vn 0.137406 -0.734013 0.665090
vn 0.138195 -0.990405 -0.000001
vn 0.137405 -0.734014 -0.665089
vn 0.137405 -0.202873 -0.969517
vn 0.137405 0.405756 -0.903594
vn 0.219084 0.789032 -0.573960
vn 0.137409 0.859381 -0.492527
vn 0.040729 0.740412 -0.670919
vn 0.040971 0.999160 -0.000000
vn 0.040733 0.204651 -0.977987
vn 0.040731 -0.409299 -0.911491
vn 0.040731 -0.866885 -0.496841
vn 0.242666 0.718834 -0.651452
vn 0.040728 0.740411 0.670919
vn 0.040732 0.204651 0.977987
vn 0.040730 -0.409298 0.911491
vn 0.040731 -0.866886 0.496840
vn 0.040976 -0.999160 -0.000002
vn -0.000000 -1.000000 -0.000001
vn -0.000000 -0.741027 -0.671475
vn -0.000001 -0.204823 -0.978799
vn 0.000000 0.409641 -0.912247
vn 0.000000 0.867599 -0.497265
vn 0.000000 1.000000 0.000000
vn -0.000000 0.867599 0.497265
vn -0.000000 0.409642 0.912246
vn -0.000001 -0.204821 0.978799
vn -0.000001 -0.741026 0.671476
vn 0.000000 0.409632 0.912251
vn 0.000000 0.204817 0.978800
vn 0.000000 0.741023 0.671480
vn 0.000000 0.867600 0.497262
vn 0.000000 1.000000 0.000001
vn 0.000000 1.000000 0.000000
vn 0.000000 0.867600 -0.497262
vn -0.000000 0.741021 -0.671481
vn 0.000000 0.409629 -0.912252
vn 0.000000 0.204814 -0.978801
vn 0.000000 -0.204814 -0.978801
vn 0.000000 -0.409629 -0.912252
vn 0.000000 -0.741021 -0.671481
vn -0.000000 -0.867601 -0.497261
vn -0.000000 -1.000000 -0.000001
vn -0.000000 -1.000000 -0.000000
vn 0.000000 -0.867603 0.497258
vn 0.000000 -0.741024 0.671479
vn 0.000000 -0.409630 0.912252
vn -0.000000 -0.204813 0.978801
vn 0.000000 -0.741030 -0.671472
vn -0.000003 -0.204815 -0.978801
vn 0.000000 -0.409631 -0.912251
vn -0.000005 0.204816 -0.978801
vn -0.000005 0.409631 -0.912251
vn -0.000002 0.741028 -0.671474
vn 0.000000 0.867611 -0.497244
vn 0.000000 0.994187 -0.107668
vn 0.000000 0.994186 0.107677
vn 0.000000 0.867613 0.497240
vn -0.000002 0.741043 0.671457
vn -0.000005 0.409653 0.912241
vn -0.000005 0.204826 0.978798
vn -0.000003 -0.204826 0.978798
vn 0.000000 -0.409651 0.912242
vn 0.000000 -0.741043 0.671458
vn 0.000000 -0.867614 0.497238
vn 0.000000 -0.994186 0.107676
vn 0.000000 -0.994187 -0.107666
vn 0.000000 -0.867613 -0.497241
vn -1.000000 0.000002 0.000000
vn -1.000000 0.000002 -0.000002
vn -1.000000 0.000000 -0.000002
vn -1.000000 0.000001 0.000000
vn -1.000000 -0.000001 -0.000001
vn -1.000000 -0.000002 0.000000
vn -1.000000 -0.000006 0.000000
vn -1.000000 0.000005 0.000003
vn -1.000000 0.000000 0.000000
vn 1.000000 0.000000 0.000000
vn 1.000000 0.000000 0.000000
vn 1.000000 0.000000 0.000000
vn 1.000000 0.000000 0.000000
vn 1.000000 0.000000 0.000000
vn 1.000000 0.000000 0.000000
vn 1.000000 0.000000 0.000000
vn 1.000000 0.000000 0.000000
vn 1.000000 0.000000 0.000000
vn 1.000000 0.000001 0.000000
vn 1.000000 0.000003 0.000000
vn 1.000000 0.000001 0.000000
vn 1.000000 -0.000000 -0.000000
vn 1.000000 -0.000000 0.000001
vn 1.000000 -0.000001 -0.000000
vn 1.000000 -0.000001 0.000001
vn 1.000000 0.000000 0.000000
vn 1.000000 -0.000002 -0.000002
vn 1.000000 -0.000000 0.000001
vn -1.000000 0.000000 -0.000003
vn 1.000000 0.000000 0.000000
vt 0.101256 1.109627
vt 0.138968 1.134133
vt 0.162275 1.198291
vt 0.040238 1.198291
vt 0.063545 1.134133
vt 0.063545 1.341753
vt 0.138967 1.341753
vt 0.162274 1.277595
vt 0.101256 1.366259
vt 0.040238 1.277595
vt 0.541581 1.552081
vt 0.420986 1.482789
vt 0.420986 1.571612
vt 0.541581 1.611027
vt 0.673175 1.649807
vt 0.673175 1.668779
vt 0.541581 1.670510
vt 0.673175 1.688319
vt 0.541581 1.730164
vt 0.673175 1.708053
vt 0.541581 1.789579
vt 0.673175 1.727617
vt 0.541581 1.848083
vt 0.673175 1.746554
vt 0.673175 1.727617
vt 0.541581 1.789579
vt 0.673175 1.708053
vt 0.541581 1.730164
vt 0.673175 1.688319
vt 0.541581 1.670510
vt 0.420986 1.658998
vt 0.420986 1.745469
vt 0.420986 1.832759
vt 0.420986 1.922103
vt 0.420986 1.832759
vt 0.420986 1.745469
vt 0.420986 1.658998
vt 0.541581 1.611027
vt 0.420986 1.571612
vt 0.274095 1.549842
vt 0.274095 1.444823
vt 0.274095 1.654326
vt 0.274095 1.758531
vt 0.274095 1.862954
vt 0.673175 1.668779
vt 0.274095 1.549842
vt 0.274095 1.654326
vt 0.274095 1.758531
vt 0.274095 1.862954
vt 0.274095 1.968028
vt 0.019136 1.968028
vt 0.019136 1.862954
vt 0.019136 1.758531
vt 0.019136 1.654326
vt 0.019136 1.549842
vt 0.019136 1.444823
vt 0.019136 1.549842
vt 0.019136 1.654326
vt 0.019136 1.758531
vt 0.019136 1.862954
vt 0.466229 1.196770
vt 0.975813 1.196770
vt 0.975813 1.110935
vt 0.466229 1.110935
vt 0.975813 1.025099
vt 0.466229 1.025099
vt 0.466229 1.110935
vt 0.975813 1.110935
vt 0.466229 1.196770
vt 0.975813 1.196770
vt 0.466229 1.282605
vt 0.975813 1.282605
vt 0.466229 1.368440
vt 0.975813 1.368440
vt 0.466229 1.454277
vt 0.975813 1.454277
vt 0.975813 1.368440
vt 0.466229 1.368440
vt 0.975813 1.282605
vt 0.466229 1.282605
vt 0.088572 1.033762
vt 0.153553 1.033763
vt 0.153553 1.056776
vt 0.218535 1.056775
vt 0.218535 1.033763
vt 0.283516 1.056775
vt 0.283516 1.033763
vt 0.348497 1.056816
vt 0.348497 1.033804
vt 0.283516 1.056816
vt 0.283516 1.033804
vt 0.218535 1.056816
vt 0.218535 1.033804
vt 0.153554 1.056816
vt 0.153554 1.033804
vt 0.088572 1.056816
vt 0.088572 1.033804
vt 0.023591 1.056774
vt 0.023591 1.033762
vt 0.088572 1.056775
vt 0.859154 1.952272
vt 0.793389 1.910801
vt 0.752372 1.799938
vt 0.964590 1.796234
vt 0.791813 1.549753
vt 0.922971 1.547464
vt 0.857206 1.505993
vt 0.924547 1.908511
vt 0.963988 1.658326
vt 0.321373 1.150703
vt 0.354606 1.125189
vt 0.388994 1.143615
vt 0.303846 1.281516
vt 0.413260 1.270049
vt 0.360636 1.355271
vt 0.393871 1.329762
vt 0.326249 1.336850
vt 0.301983 1.210414
vt 0.922971 1.547464
vt 0.857206 1.505993
vt 0.791813 1.549753
vt 0.964590 1.796234
vt 0.752372 1.799938
vt 0.859154 1.952272
vt 0.793389 1.910801
vt 0.963988 1.658326
vt 0.924547 1.908511
vt 0.751770 1.662030
vt 0.751770 1.662030
vt 0.411395 1.198946
g Generic
f 1/1/1 2/2/2 3/3/3 
f 4/4/4 5/5/5 1/1/1 
f 1/1/1 6/6/6 4/4/4 
f 3/3/3 6/6/6 1/1/1 
f 7/7/7 6/6/6 3/3/3 
f 3/3/3 8/8/8 7/7/7 
f 7/7/7 9/9/9 6/6/6 
f 10/10/10 4/4/4 6/6/6 
f 11/11/11 12/12/12 13/13/13 
f 13/13/13 14/14/14 11/11/11 
f 15/15/15 11/11/11 14/14/14 
f 14/14/14 16/16/16 15/15/15 
f 16/16/16 14/14/14 17/17/17 
f 17/17/17 18/18/18 16/16/16 
f 18/18/18 17/17/17 19/19/19 
f 19/19/19 20/20/20 18/18/18 
f 20/20/20 19/19/19 21/21/21 
f 21/21/21 22/22/22 20/20/20 
f 22/22/22 21/21/21 23/23/23 
f 23/23/23 24/24/24 22/22/22 
f 25/25/25 24/24/24 23/23/23 
f 23/23/23 26/26/26 25/25/25 
f 27/27/27 25/25/25 26/26/26 
f 26/26/26 28/28/28 27/27/27 
f 29/29/29 27/27/27 28/28/28 
f 28/28/28 30/30/30 29/29/29 
f 14/14/14 13/13/13 31/31/31 
f 31/31/31 17/17/17 14/14/14 
f 17/17/17 31/31/31 32/32/32 
f 32/32/32 19/19/19 17/17/17 
f 19/19/19 32/32/32 33/33/33 
f 33/33/33 21/21/21 19/19/19 
f 21/21/21 33/33/33 34/34/34 
f 34/34/34 23/23/23 21/21/21 
f 26/26/26 23/23/23 34/34/34 
f 34/34/34 35/35/35 26/26/26 
f 28/28/28 26/26/26 35/35/35 
f 35/35/35 36/36/36 28/28/28 
f 30/30/30 28/28/28 36/36/36 
f 36/36/36 37/37/37 30/30/30 
f 38/38/38 30/30/30 37/37/37 
f 37/37/37 39/39/39 38/38/38 
f 40/40/40 39/39/39 37/37/37 
f 39/39/39 40/40/40 41/41/41 
f 37/37/37 42/42/42 40/40/40 
f 42/42/42 37/37/37 36/36/36 
f 36/36/36 43/43/43 42/42/42 
f 43/43/43 36/36/36 35/35/35 
f 35/35/35 44/44/44 43/43/43 
f 44/44/44 35/35/35 34/34/34 
f 45/45/45 29/29/29 30/30/30 
f 30/30/30 38/38/38 45/45/45 
f 15/15/15 45/45/45 38/38/38 
f 38/38/38 11/11/11 15/15/15 
f 11/11/11 38/38/38 39/39/39 
f 39/39/39 12/12/12 11/11/11 
f 41/41/41 12/12/12 39/39/39 
f 13/13/13 12/12/12 41/41/41 
f 41/41/41 46/46/46 13/13/13 
f 31/31/31 13/13/13 46/46/46 
f 46/46/46 47/47/47 31/31/31 
f 32/32/32 31/31/31 47/47/47 
f 47/47/47 48/48/48 32/32/32 
f 33/33/33 32/32/32 48/48/48 
f 48/48/48 49/49/49 33/33/33 
f 34/34/34 33/33/33 49/49/49 
f 49/49/49 50/50/50 34/34/34 
f 34/34/34 50/50/50 44/44/44 
f 44/44/44 50/50/50 51/51/51 
f 51/51/51 52/52/52 44/44/44 
f 43/43/43 44/44/44 52/52/52 
f 52/52/52 53/53/53 43/43/43 
f 42/42/42 43/43/43 53/53/53 
f 53/53/53 54/54/54 42/42/42 
f 40/40/40 42/42/42 54/54/54 
f 54/54/54 55/55/55 40/40/40 
f 41/41/41 40/40/40 55/55/55 
f 55/55/55 56/56/56 41/41/41 
f 41/41/41 56/56/56 57/57/57 
f 57/57/57 46/46/46 41/41/41 
f 46/46/46 57/57/57 58/58/58 
f 58/58/58 47/47/47 46/46/46 
f 47/47/47 58/58/58 59/59/59 
f 59/59/59 48/48/48 47/47/47 
f 48/48/48 59/59/59 60/60/60 
f 60/60/60 49/49/49 48/48/48 
f 49/49/49 60/60/60 51/51/51 
f 51/51/51 50/50/50 49/49/49 
f 61/61/61 62/62/62 63/63/63 
f 63/63/63 64/64/64 61/61/61 
f 64/64/64 63/63/63 65/65/65 
f 65/65/65 66/66/66 64/64/64 
f 67/67/67 66/66/66 65/65/65 
f 65/65/65 68/68/68 67/67/67 
f 69/69/69 67/67/67 68/68/68 
f 68/68/68 70/70/70 69/69/69 
f 71/71/71 69/69/69 70/70/70 
f 70/70/70 72/72/72 71/71/71 
f 73/73/73 71/71/71 72/72/72 
f 72/72/72 74/74/74 73/73/73 
f 75/75/75 73/73/73 74/74/74 
f 74/74/74 76/76/76 75/75/75 
f 75/75/75 76/76/76 77/77/77 
f 77/77/77 78/78/78 75/75/75 
f 78/78/78 77/77/77 79/79/79 
f 79/79/79 80/80/80 78/78/78 
f 80/80/80 79/79/79 62/62/62 
f 62/62/62 61/61/61 80/80/80 
f 81/81/81 82/82/82 83/83/83 
f 84/84/84 83/83/83 82/82/82 
f 82/82/82 85/85/85 84/84/84 
f 86/86/86 84/84/84 85/85/85 
f 85/85/85 87/87/87 86/86/86 
f 88/88/88 86/86/86 87/87/87 
f 87/87/87 89/89/89 88/88/88 
f 90/90/90 88/88/88 89/89/89 
f 89/89/89 91/91/91 90/90/90 
f 92/92/92 90/90/90 91/91/91 
f 91/91/91 93/93/93 92/92/92 
f 94/94/94 92/92/92 93/93/93 
f 93/93/93 95/95/95 94/94/94 
f 96/96/96 94/94/94 95/95/95 
f 95/95/95 97/97/97 96/96/96 
f 98/98/98 96/96/96 97/97/97 
f 97/97/97 99/99/99 98/98/98 
f 100/100/100 98/98/98 99/99/99 
f 99/99/99 81/81/81 100/100/100 
f 83/83/83 100/100/100 81/81/81 
f 101/101/101 102/102/102 103/103/103 
f 103/103/103 104/104/104 101/101/101 
f 105/105/105 104/104/104 103/103/103 
f 106/106/106 104/104/104 105/105/105 
f 105/105/105 107/107/107 106/106/106 
f 108/108/108 101/101/101 104/104/104 
f 106/106/106 109/109/109 104/104/104 
f 110/110/110 111/111/111 112/112/112 
f 112/112/112 113/113/113 110/110/110 
f 114/114/114 113/113/113 112/112/112 
f 115/115/115 113/113/113 114/114/114 
f 114/114/114 116/116/116 115/115/115 
f 115/115/115 117/117/117 113/113/113 
f 118/118/118 110/110/110 113/113/113 
f 119/119/119 120/120/120 121/121/121 
f 121/121/121 122/122/122 119/119/119 
f 123/123/123 122/122/122 121/121/121 
f 124/124/124 122/122/122 123/123/123 
f 123/123/123 125/125/125 124/124/124 
f 119/119/119 122/122/122 126/126/126 
f 127/127/127 122/122/122 124/124/124 
f 121/121/121 128/128/128 123/123/123 
f 103/103/103 129/129/129 105/105/105 
f 112/112/112 130/130/130 114/114/114 
