# 3ds Max Wavefront OBJ Exporter v0.97b - (c)2007 guruware
# File Created: 18.03.2017 23:04:55

mtllib liblary.mtl

#
# object liblary
#

v  38.9207 0.6075 133.1543
v  38.9207 0.6075 -133.2044
v  38.9207 13.4463 -133.2044
v  38.9207 13.4463 133.1543
v  32.3555 312.7789 -130.2349
v  31.2805 310.7210 -128.8766
v  -34.3229 310.7210 -128.8766
v  -35.3978 312.7789 -130.2349
v  -34.3229 314.8369 -128.8766
v  31.2805 314.8369 -128.8766
v  -37.1852 0.6075 133.1543
v  -37.1852 13.4463 133.1543
v  -34.3229 16.2585 128.8265
v  36.0584 16.2585 128.8265
v  36.0584 16.2585 -128.8766
v  -34.3229 16.2585 -128.8766
v  -37.1852 0.6075 -133.2044
v  -34.2598 14.7374 120.3968
v  -34.2598 357.4000 120.3967
v  -32.4296 357.4000 119.3954
v  -32.4296 14.7374 119.3954
v  -34.2598 357.4000 -120.4065
v  -34.2598 14.7374 -120.4065
v  -32.4296 14.7374 -119.4052
v  -32.4296 357.4000 -119.4052
v  -34.2598 14.7374 128.8496
v  -34.2598 357.4000 128.8496
v  -34.2598 357.4000 -128.8594
v  -34.2598 14.7374 -128.8594
v  26.4873 220.3636 118.0061
v  -25.0979 220.3636 118.0079
v  -25.0979 220.3636 -118.3690
v  26.4873 220.3636 -118.3690
v  -25.0979 225.3514 -118.3690
v  -25.0979 225.3514 118.0079
v  26.4873 225.3514 118.0061
v  26.4873 225.3514 -118.3690
v  31.3105 357.4000 6.3840
v  24.3360 357.4000 6.3840
v  24.3360 312.7869 6.3840
v  31.3105 312.7869 6.3988
v  20.3476 357.4000 -6.2152
v  31.3105 357.4000 -6.2152
v  31.3105 312.7869 -6.2152
v  20.3476 312.7869 -6.2152
v  -34.3229 91.8921 128.8265
v  -34.3229 91.8921 -128.8766
v  31.2805 91.8921 -128.8766
v  31.2805 91.8921 128.8265
v  -34.3229 96.0585 128.8265
v  31.2805 96.0585 128.8265
v  31.2805 96.0585 -128.8766
v  -34.3229 96.0585 -128.8766
v  -34.3229 310.7210 128.8265
v  31.2805 310.7210 128.8265
v  -34.3229 314.8369 128.8265
v  31.2805 314.8369 128.8265
v  26.4873 265.8959 -118.0061
v  26.4873 265.8959 118.3690
v  -25.0979 265.8959 118.3690
v  -25.0979 265.8959 -118.0079
v  -25.0979 270.8837 118.3690
v  26.4873 270.8837 118.3690
v  26.4873 270.8837 -118.0061
v  -25.0979 270.8837 -118.0079
v  26.4873 175.8790 -118.0061
v  26.4873 175.8790 118.3690
v  -25.0979 175.8790 118.3690
v  -25.0979 175.8790 -118.0079
v  -25.0979 180.8667 118.3690
v  26.4873 180.8667 118.3690
v  26.4873 180.8667 -118.0061
v  -25.0979 180.8667 -118.0079
v  26.4873 133.1562 -118.0061
v  26.4873 133.1562 118.3690
v  -25.0979 133.1562 118.3690
v  -25.0979 133.1562 -118.0079
v  -25.0979 138.1440 118.3690
v  26.4873 138.1440 118.3690
v  26.4873 138.1440 -118.0061
v  -25.0979 138.1440 -118.0079
v  31.3105 14.7374 116.6302
v  -30.2714 14.7374 116.6204
v  -30.2714 357.4000 116.6204
v  31.3105 357.4000 116.6204
v  -30.2714 14.7374 -116.2601
v  31.3105 14.7374 -116.2307
v  31.3105 357.4000 -116.2601
v  -30.2714 357.4000 -116.2601
v  31.3105 14.7374 128.8496
v  31.3105 357.4000 128.8496
v  31.3105 357.4000 -128.8594
v  31.3105 14.7374 -128.8594
v  -23.2236 319.6439 -117.9235
v  -23.2236 319.6439 118.2846
v  -23.2236 92.7223 118.2846
v  -23.2236 92.7223 -117.9235
v  35.7861 368.5679 -130.0698
v  -34.0506 368.5679 -130.0698
v  -33.3920 359.9333 -129.4112
v  35.1275 359.9333 -129.4112
v  35.7861 368.5679 130.0197
v  35.1275 359.9333 129.3611
v  -34.0506 368.5679 130.0197
v  -33.3920 359.9333 129.3611
v  38.9207 368.5679 -133.2044
v  -37.1852 368.5679 -133.2044
v  38.9207 368.5679 133.1543
v  -37.1852 368.5679 133.1543
v  -37.1852 355.7291 -133.2044
v  -34.3229 352.9169 -128.8766
v  -34.3229 352.9169 128.8265
v  -37.1852 355.7291 133.1543
v  38.9207 355.7291 -133.2044
v  36.0584 352.9169 -128.8766
v  38.9207 355.7291 133.1543
v  36.0584 352.9169 128.8265
v  -37.1852 13.4463 -133.2044
v  -35.3978 93.9753 130.1424
v  32.3555 93.9753 130.1424
v  32.3555 312.7789 130.1424
v  -35.3978 312.7789 130.1424
v  -35.3978 93.9753 -130.2349
v  32.3555 93.9753 -130.2349
v  30.7433 341.8466 117.5403
v  30.7433 353.2096 117.5403
v  35.4298 353.2096 117.5403
v  32.7311 342.5948 117.5403
v  29.7457 335.2538 -65.6309
v  29.7459 335.2538 -66.9197
v  29.1411 335.2538 -66.9198
v  29.1443 335.2538 -65.2407
v  31.5110 334.9688 -64.3420
v  31.1502 334.9687 -63.8852
v  32.1617 334.9687 -60.0261
v  31.6952 334.9687 -60.0262
v  31.5100 334.9687 -55.7101
v  31.1492 334.9688 -56.1670
v  29.7444 335.2538 -54.4212
v  29.1443 335.2538 -54.8116
v  29.7442 335.2538 -53.1324
v  29.1410 335.2538 -53.1325
v  29.7457 335.2538 57.9560
v  29.7459 335.2538 56.6671
v  29.1411 335.2538 56.6670
v  29.1443 335.2538 58.3461
v  31.5110 334.9688 59.2449
v  31.1502 334.9687 59.7016
v  32.1617 334.9687 63.5608
v  31.6952 334.9687 63.5606
v  31.5100 334.9687 67.8767
v  31.1492 334.9688 67.4198
v  29.7444 335.2538 69.1656
v  29.1443 335.2538 68.7753
v  29.7442 335.2538 70.4544
v  29.1410 335.2538 70.4543
v  28.7921 68.4252 -4.7053
v  28.7922 68.4252 -5.9942
v  28.1875 68.4252 -5.9943
v  28.1907 68.4252 -4.3152
v  30.5574 68.1402 -3.4164
v  30.1965 68.1402 -2.9597
v  31.2081 68.1402 0.8995
v  30.7415 68.1402 0.8993
v  30.5563 68.1402 5.2154
v  30.1956 68.1402 4.7585
v  28.7908 68.4252 6.5043
v  28.1906 68.4252 6.1140
v  28.7906 68.4252 7.7932
v  28.1874 68.4252 7.7930
v  -2.4680 187.9085 -66.9980
v  -19.6311 187.9085 -84.1611
v  -19.6311 180.8668 -84.1611
v  -2.4680 180.8668 -66.9980
v  -1.3906 186.3838 -65.9205
v  -1.3906 182.3906 -65.9205
v  21.9473 306.5247 106.9539
v  2.9814 306.5247 106.9539
v  2.9814 306.5247 114.4725
v  21.9473 306.5247 114.4725
v  23.5742 306.5247 108.5818
v  23.5742 306.5247 112.8455
v  20.3093 310.0135 98.6564
v  1.3435 310.0135 98.6564
v  1.3435 310.0135 106.1749
v  20.3093 310.0135 106.1749
v  21.9363 310.0135 100.2843
v  21.9363 310.0135 104.5480
v  21.9473 306.5247 90.3588
v  2.9814 306.5247 90.3588
v  2.9814 306.5247 97.8773
v  21.9473 306.5247 97.8773
v  23.5742 306.5247 91.9867
v  23.5742 306.5247 96.2504
v  24.0679 306.5247 82.0612
v  5.1020 306.5247 82.0612
v  5.1020 306.5247 89.5798
v  24.0679 306.5247 89.5798
v  25.6948 306.5247 83.6892
v  25.6948 306.5247 87.9528
v  20.4510 307.0350 74.8782
v  1.5053 307.9086 74.9082
v  1.4286 305.9937 82.1784
v  20.3742 305.1200 82.1484
v  22.0596 306.5454 76.4497
v  22.0161 305.4595 80.5726
v  22.6662 278.3384 46.8934
v  3.9885 278.3384 50.1868
v  3.9885 270.8199 50.1868
v  22.6662 270.8199 46.8934
v  24.2684 276.7105 46.6109
v  24.2684 272.4468 46.6109
v  18.8454 256.1608 -18.2753
v  3.0822 256.1608 -18.2753
v  3.0822 256.1608 -12.0263
v  18.8454 256.1608 -12.0263
v  20.1976 256.1608 -16.9222
v  20.1976 256.1608 -13.3785
v  20.3783 256.1608 -24.9021
v  4.6152 256.1608 -24.9021
v  4.6152 256.1608 -18.6532
v  20.3783 256.1608 -18.6532
v  21.7305 256.1608 -23.5491
v  21.7305 256.1608 -20.0054
v  19.0269 257.9297 -44.3138
v  3.5032 257.9297 -41.5766
v  4.8245 257.9297 -34.0835
v  20.3481 257.9297 -36.8207
v  20.6446 257.9297 -42.9262
v  21.3939 257.9297 -38.6770
v  19.0269 257.9297 -53.2486
v  3.5032 257.9297 -50.5113
v  4.8245 257.9297 -43.0182
v  20.3481 257.9297 -45.7555
v  20.6446 257.9297 -51.8610
v  21.3939 257.9297 -47.6117
v  14.3467 231.9240 -83.2036
v  25.2251 231.9240 -67.6677
v  25.2250 225.2749 -67.6677
v  14.3467 225.2749 -83.2036
v  13.4135 230.4843 -84.5363
v  13.4135 226.7137 -84.5363
v  19.0269 257.9297 -35.3791
v  3.5032 257.9297 -32.6419
v  4.8245 257.9297 -25.1488
v  20.3481 257.9297 -27.8860
v  20.6446 257.9297 -33.9915
v  21.3939 257.9297 -29.7422
v  20.0728 258.4832 -113.5657
v  4.3697 258.4832 -114.9395
v  3.7632 258.4832 -108.0073
v  19.4663 258.4832 -106.6335
v  21.2886 258.4832 -111.9469
v  20.9446 258.4832 -108.0157
v  20.0728 258.4832 -99.4140
v  4.3697 258.4832 -100.7878
v  3.7632 258.4832 -93.8556
v  19.4663 258.4832 -92.4818
v  21.2886 258.4832 -97.7952
v  20.9446 258.4832 -93.8640
v  18.2685 258.4832 -106.4898
v  2.5653 258.4832 -107.8637
v  1.9588 258.4832 -100.9314
v  17.6620 258.4832 -99.5576
v  19.4842 258.4832 -104.8710
v  19.1403 258.4832 -100.9398
v  20.4510 174.2898 0.5704
v  1.5053 175.1633 0.6004
v  1.4286 173.2485 7.8706
v  20.3742 172.3749 7.8406
v  22.0596 173.8002 2.1420
v  22.0161 172.7143 6.2648
v  21.9473 173.7795 24.8382
v  2.9814 173.7795 24.8382
v  2.9814 173.7795 32.3568
v  21.9473 173.7795 32.3568
v  23.5742 173.7795 26.4662
v  23.5742 173.7795 30.7298
v  24.0679 173.7795 7.7535
v  5.1020 173.7795 7.7535
v  5.1020 173.7795 15.2720
v  24.0679 173.7795 15.2720
v  25.6948 173.7795 9.3814
v  25.6948 173.7795 13.6451
v  22.6360 173.6966 -56.3529
v  4.3577 173.6966 -61.4130
v  2.3517 173.6966 -54.1670
v  20.6300 173.6966 -49.1069
v  23.7696 173.6966 -54.3499
v  22.6321 173.6966 -50.2408
v  -8.1318 189.1369 -35.4831
v  8.6382 189.1369 -44.3415
v  8.6382 180.7063 -44.3415
v  -8.1318 180.7063 -35.4831
v  -9.5704 187.3116 -34.7232
v  -9.5704 182.5306 -34.7232
v  1.0883 184.4996 -58.2921
v  0.3901 184.4996 -40.5430
v  -5.4478 180.5688 -40.7726
v  -4.7496 180.5688 -58.5217
v  -0.1158 183.6485 -59.8644
v  -3.4264 181.4194 -59.9946
v  21.9473 173.7795 15.6005
v  2.9814 173.7795 15.6005
v  2.9814 173.7795 23.1191
v  21.9473 173.7795 23.1191
v  23.5742 173.7795 17.2285
v  23.5742 173.7795 21.4921
v  -0.4755 104.4234 -36.4452
v  18.2022 104.4234 -39.7385
v  18.2022 95.9928 -39.7385
v  -0.4755 95.9928 -36.4452
v  -2.0778 102.5980 -36.1626
v  -2.0778 97.8171 -36.1626
v  -3.5334 104.9657 25.1077
v  4.4819 104.9657 7.9188
v  4.4819 95.9798 7.9188
v  -3.5334 95.9798 25.1077
v  -4.2209 103.0201 26.5822
v  -4.2209 97.9243 26.5822
v  34.1224 111.6998 -13.8346
v  16.9593 111.6998 3.3285
v  16.9593 104.6581 3.3285
v  34.1224 104.6581 -13.8346
v  35.1998 110.1751 -14.9120
v  35.1998 106.1819 -14.9120
v  21.7047 173.6966 -45.6434
v  2.7734 173.6966 -44.4993
v  3.2270 173.6966 -36.9944
v  22.1583 173.6966 -38.1385
v  23.4269 173.6966 -44.1165
v  23.6841 173.6966 -39.8606
v  17.6262 258.4832 -92.1272
v  1.9231 258.4832 -93.5010
v  1.3166 258.4832 -86.5688
v  17.0197 258.4832 -85.1949
v  18.8420 258.4832 -90.5083
v  18.4980 258.4832 -86.5771
v  -18.3494 195.7785 -21.4512
v  -11.7968 195.7785 -39.2492
v  -11.7968 189.0833 -39.2492
v  -18.3494 189.0833 -21.4512
v  -18.9115 194.3289 -19.9245
v  -18.9115 190.5321 -19.9245
v  -3.2329 116.4222 21.5651
v  7.6453 116.4222 6.0291
v  7.6453 110.0268 6.0291
v  -3.2329 110.0268 21.5651
v  -4.1661 115.0375 22.8978
v  -4.1661 111.4108 22.8978
v  19.2013 130.0142 -83.2983
v  20.7532 130.0142 -84.8502
v  20.7532 130.0142 -88.9171
v  19.2013 130.0142 -90.4699
v  1.1106 130.0142 -83.2983
v  1.1106 130.0142 -90.4699
v  18.4361 135.2251 99.2189
v  -0.5297 135.2251 99.2189
v  -0.5297 135.2251 105.6793
v  18.4361 135.2251 105.6793
v  20.0630 135.2251 100.6177
v  20.0630 135.2251 104.2813
v  28.7736 61.4074 -53.0606
v  28.7737 60.1186 -53.0606
v  28.1690 60.1185 -53.0606
v  28.1722 61.7976 -53.0606
v  30.5389 62.6963 -52.7756
v  30.1780 63.1531 -52.7756
v  31.1896 67.0122 -52.7756
v  30.7230 67.0121 -52.7756
v  30.5378 71.3282 -52.7756
v  30.1771 70.8713 -52.7756
v  28.7723 72.6171 -53.0606
v  28.1721 72.2267 -53.0606
v  28.7721 73.9059 -53.0606
v  28.1689 73.9058 -53.0606
v  28.6081 72.6171 52.9910
v  28.6080 73.9059 52.9910
v  28.0047 73.9058 52.9910
v  28.0080 72.2267 52.9910
v  30.3737 71.3282 52.7059
v  30.0129 70.8713 52.7059
v  31.0255 67.0122 52.7059
v  30.5589 67.0121 52.7059
v  30.3747 62.6963 52.7059
v  30.0139 63.1531 52.7059
v  28.6094 61.4074 52.9910
v  28.0080 61.7976 52.9910
v  28.6096 60.1186 52.9910
v  28.0048 60.1185 52.9910
v  28.0080 72.2267 50.1959
v  28.0047 73.9058 50.1959
v  28.6080 73.9059 50.1959
v  28.6081 72.6171 50.1959
v  30.0129 70.8713 50.4809
v  30.3737 71.3282 50.4809
v  30.5589 67.0121 50.4809
v  31.0255 67.0122 50.4809
v  30.0139 63.1531 50.4809
v  30.3747 62.6963 50.4809
v  28.0080 61.7976 50.1959
v  28.6094 61.4074 50.1959
v  28.0048 60.1185 50.1959
v  28.6096 60.1186 50.1959
v  17.0197 225.2408 -85.1949
v  18.4980 225.2408 -86.5772
v  18.8420 225.2408 -90.5083
v  17.6262 225.2408 -92.1272
v  28.7721 73.9059 -50.2655
v  28.7723 72.6171 -50.2655
v  30.5378 71.3282 -50.5505
v  31.1896 67.0122 -50.5505
v  30.5389 62.6963 -50.5505
v  28.7736 61.4074 -50.2655
v  28.7737 60.1186 -50.2655
v  28.1722 61.7976 -50.2655
v  30.1780 63.1531 -50.5505
v  30.7230 67.0121 -50.5505
v  30.1771 70.8713 -50.5505
v  28.1721 72.2267 -50.2655
v  19.2013 95.8747 -83.2983
v  20.7532 95.8747 -84.8502
v  20.7532 95.8747 -88.9171
v  19.2013 95.8747 -90.4699
v  17.2304 95.8477 -93.3352
v  17.2304 118.3617 -93.3352
v  17.8614 118.3617 -92.7927
v  17.8614 95.8477 -92.7927
v  17.8614 118.3617 -91.3719
v  17.8614 95.8477 -91.3719
v  17.2304 118.3617 -90.8297
v  17.2304 95.8477 -90.8297
v  2.4697 118.3617 -90.8297
v  2.4697 118.3617 -93.3352
v  29.2066 313.7376 -117.1988
v  29.2066 353.8966 -117.2002
v  29.2066 353.8966 118.0951
v  29.2066 313.7376 118.0945
v  28.2628 92.8382 118.5595
v  28.2771 14.7076 118.5595
v  28.2771 14.7076 -117.5668
v  28.2628 92.8382 -117.5668
v  29.7459 332.4587 -66.9197
v  29.1411 332.4587 -66.9198
v  29.7444 332.4587 -54.4212
v  29.7442 332.4587 -53.1324
v  29.1410 332.4587 -53.1325
v  29.1443 332.4587 -54.8116
v  31.5100 332.7438 -55.7101
v  31.1492 332.7438 -56.1670
v  32.1617 332.7438 -60.0261
v  31.6952 332.7437 -60.0262
v  31.5110 332.7438 -64.3420
v  31.1502 332.7437 -63.8852
v  29.7457 332.4587 -65.6309
v  29.1443 332.4587 -65.2407
v  0.1236 110.0796 13.3993
v  16.5484 110.0796 3.9164
v  16.5484 104.9302 3.9164
v  0.1236 104.9302 13.3993
v  -1.2854 108.9647 14.2128
v  -1.2854 106.0445 14.2128
v  34.4438 104.9302 34.9123
v  34.4438 110.0796 34.9123
v  18.0189 110.0796 44.3953
v  18.0189 104.9302 44.3953
v  16.6100 106.0445 45.2088
v  16.6100 108.9647 45.2088
v  29.7459 332.4587 56.6671
v  29.1411 332.4587 56.6670
v  29.7444 332.4587 69.1656
v  29.7442 332.4587 70.4544
v  29.1410 332.4587 70.4543
v  29.1443 332.4587 68.7753
v  31.5100 332.7438 67.8767
v  31.1492 332.7438 67.4198
v  32.1617 332.7438 63.5608
v  31.6952 332.7437 63.5606
v  31.5110 332.7438 59.2449
v  31.1502 332.7437 59.7016
v  29.7457 332.4587 57.9560
v  29.1443 332.4587 58.3461
v  26.0851 110.0268 42.0942
v  25.1520 111.4108 43.4270
v  25.1520 115.0375 43.4270
v  26.0851 116.4223 42.0942
v  -15.5180 278.3210 24.9926
v  -16.5638 280.1454 26.2389
v  -16.5638 284.9263 26.2389
v  -15.5180 286.7517 24.9926
v  -3.3270 278.3210 10.4639
v  -3.3270 286.7517 10.4639
v  30.7433 341.8466 127.7540
v  32.7311 342.5948 127.7540
v  35.4298 353.2096 127.7540
v  30.7433 353.2096 127.7540
v  30.7433 341.8466 -4.9594
v  30.7433 353.2096 -4.9594
v  35.4298 353.2096 -4.9594
v  32.7311 342.5948 -4.9594
v  30.7433 341.8466 5.2543
v  32.7311 342.5948 5.2543
v  35.4298 353.2096 5.2543
v  30.7433 353.2096 5.2543
v  30.7433 341.8466 -127.4702
v  30.7433 353.2096 -127.4702
v  35.4298 353.2096 -127.4702
v  32.7311 342.5948 -127.4702
v  30.7433 341.8466 -117.2565
v  32.7311 342.5948 -117.2565
v  35.4298 353.2096 -117.2565
v  30.7433 353.2096 -117.2565
v  30.7433 26.7335 127.7105
v  30.7433 15.3706 127.7105
v  35.4298 15.3706 127.7105
v  32.7311 25.9853 127.7105
v  30.7433 26.7335 117.4968
v  32.7311 25.9853 117.4968
v  35.4298 15.3706 117.4968
v  30.7433 15.3706 117.4968
v  30.7433 26.7335 -117.6843
v  30.7433 15.3706 -117.6843
v  35.4298 15.3706 -117.6843
v  32.7311 25.9853 -117.6843
v  30.7433 26.7335 -127.8980
v  32.7311 25.9853 -127.8980
v  35.4298 15.3706 -127.8980
v  30.7433 15.3706 -127.8980
v  14.4536 308.2782 -48.2329
v  14.4536 270.8279 -48.2329
v  13.7638 270.8279 -113.2010
v  13.7638 308.2782 -113.2010
v  -12.8374 308.2782 -112.9488
v  -12.1475 308.2782 -47.9806
v  -12.1475 270.8279 -47.9806
v  -12.8374 270.8279 -112.9488
v  1.3166 225.2408 -86.5688
v  1.9231 225.2408 -93.5010
v  22.1946 95.9453 82.0947
v  22.1946 131.7363 82.0947
v  23.8216 131.7363 83.7226
v  23.8216 95.9453 83.7226
v  23.8216 131.7363 87.9863
v  23.8216 95.9453 87.9863
v  22.1946 131.7363 89.6132
v  22.1946 95.9453 89.6132
v  3.2288 131.7363 89.6132
v  3.2288 131.7363 82.0947
v  28.7922 65.6301 -5.9942
v  28.1875 65.6301 -5.9943
v  28.7908 65.6301 6.5043
v  28.7906 65.6301 7.7932
v  28.1874 65.6301 7.7930
v  28.1906 65.6301 6.1140
v  30.5563 65.9152 5.2154
v  30.1956 65.9152 4.7585
v  31.2081 65.9152 0.8995
v  30.7415 65.9152 0.8993
v  30.5574 65.9152 -3.4164
v  30.1965 65.9152 -2.9596
v  28.7921 65.6301 -4.7053
v  28.1907 65.6301 -4.3152
v  3.2288 95.9453 89.6132
v  3.2288 95.9453 82.0947
v  16.9344 95.9453 69.4612
v  16.9344 131.7363 69.4612
v  18.8193 131.7363 70.7819
v  18.8193 95.9453 70.7819
v  19.5597 131.7363 74.9808
v  19.5597 95.9453 74.9808
v  18.2400 131.7363 76.8656
v  18.2400 95.9453 76.8656
v  -0.4377 131.7363 80.1589
v  -1.7433 131.7363 72.7546
v  -0.4377 95.9453 80.1589
v  -1.7433 95.9453 72.7546
v  20.0740 95.9453 90.8046
v  20.0740 130.3434 90.8046
v  21.7010 130.3434 92.2539
v  21.7010 95.9453 92.2539
v  21.7010 130.3434 96.0499
v  21.7010 95.9453 96.0499
v  20.0740 130.3434 97.4984
v  20.0740 95.9453 97.4984
v  1.1082 130.3434 97.4984
v  1.1082 130.3434 90.8046
v  28.1690 60.1185 -50.2655
v  28.1689 73.9058 -50.2655
v  1.1082 95.9453 97.4984
v  1.1082 95.9453 90.8046
v  18.4361 95.9453 99.2189
v  20.0630 95.9453 100.6177
v  20.0630 95.9453 104.2813
v  18.4361 95.9453 105.6793
v  -0.5297 95.9453 105.6793
v  -0.5297 95.9453 99.2189
v  20.0740 95.7670 107.4004
v  20.0740 127.6395 107.4004
v  21.7010 127.6395 108.8495
v  21.7010 95.7670 108.8495
v  21.7010 127.6395 112.6446
v  21.7010 95.7670 112.6446
v  20.0740 127.6395 114.0928
v  20.0740 95.7670 114.0928
v  1.1082 127.6395 114.0928
v  1.1082 127.6395 107.4004
v  4.0717 187.9085 -107.8638
v  4.0717 180.8668 -107.8638
v  21.2347 187.9085 -90.7008
v  21.2347 180.8668 -90.7008
v  22.3122 182.3906 -89.6233
v  22.3122 186.3838 -89.6233
v  1.1082 95.7670 114.0928
v  1.1082 95.7670 107.4004
v  20.0740 95.9430 59.5337
v  20.0740 129.8684 59.5337
v  21.7010 129.8684 61.2483
v  21.7010 95.9430 61.2483
v  21.7010 129.8684 65.7388
v  21.7010 95.9430 65.7388
v  20.0740 129.8684 67.4524
v  20.0740 95.9430 67.4524
v  1.1082 129.8684 67.4524
v  1.1082 129.8684 59.5337
v  21.9473 270.7337 106.9539
v  2.9814 270.7337 106.9539
v  2.9814 270.7337 114.4725
v  21.9473 270.7337 114.4725
v  23.5742 270.7337 112.8455
v  23.5742 270.7337 108.5819
v  20.3093 270.7337 98.6564
v  1.3435 270.7337 98.6564
v  1.3435 270.7337 106.1749
v  20.3093 270.7337 106.1749
v  21.9363 270.7337 104.5480
v  21.9363 270.7337 100.2843
v  21.9473 270.7337 90.3588
v  2.9814 270.7337 90.3588
v  2.9814 270.7337 97.8773
v  21.9473 270.7337 97.8773
v  23.5742 270.7337 96.2504
v  23.5742 270.7337 91.9867
v  24.0679 270.7337 82.0612
v  5.1020 270.7337 82.0612
v  5.1020 270.7337 89.5798
v  24.0679 270.7337 89.5798
v  25.6948 270.7337 87.9528
v  25.6948 270.7337 83.6892
v  -0.1032 273.3371 65.7855
v  -0.1800 271.4222 73.0558
v  18.8424 272.4635 65.7555
v  18.7657 270.5486 73.0257
v  20.4075 270.8881 71.4499
v  20.4510 271.9740 67.3271
v  1.1082 95.9430 67.4524
v  1.1082 95.9430 59.5337
v  22.1946 95.9453 47.8272
v  22.1946 131.7363 47.8272
v  23.8216 131.7363 49.4551
v  23.8216 95.9453 49.4551
v  23.8216 131.7363 53.7188
v  23.8216 95.9453 53.7188
v  22.1946 131.7363 55.3457
v  22.1946 95.9453 55.3457
v  3.2288 131.7363 55.3457
v  3.2288 131.7363 47.8272
v  24.0904 286.7517 33.4699
v  24.0904 278.3210 33.4699
v  11.8994 286.7517 47.9986
v  11.8994 278.3210 47.9986
v  10.8537 280.1454 49.2449
v  10.8537 284.9263 49.2449
v  3.2288 95.9453 55.3457
v  3.2288 95.9453 47.8272
v  24.3592 95.8477 56.0648
v  24.3592 118.3617 56.0648
v  24.9902 118.3617 56.6073
v  24.9902 95.8477 56.6073
v  24.9902 118.3617 58.0281
v  24.9902 95.8477 58.0281
v  24.3592 118.3617 58.5703
v  24.3592 95.8477 58.5703
v  9.5985 118.3617 58.5703
v  9.5985 118.3617 56.0648
v  16.4511 278.3384 11.6462
v  -2.2265 278.3384 14.9396
v  -2.2265 270.8199 14.9396
v  16.4511 270.8199 11.6462
v  18.0534 272.4468 11.3637
v  18.0534 276.7105 11.3637
v  9.5985 95.8477 58.5703
v  9.5985 95.8477 56.0648
v  12.2882 180.8584 19.2312
v  12.2882 216.9919 19.2312
v  13.7849 216.9919 20.5179
v  13.7849 180.8584 20.5179
v  13.7849 216.9919 23.8881
v  13.7849 180.8584 23.8881
v  12.2882 216.9919 25.1741
v  12.2882 180.8584 25.1741
v  -5.1584 216.9919 25.1741
v  -5.1584 216.9919 19.2312
v  3.0822 225.1683 -18.2753
v  3.0822 225.1683 -12.0263
v  18.8454 225.1683 -18.2753
v  18.8454 225.1683 -12.0263
v  20.1976 225.1683 -13.3785
v  20.1976 225.1683 -16.9222
v  20.3783 225.1683 -24.9021
v  4.6152 225.1683 -24.9021
v  4.6152 225.1683 -18.6532
v  20.3783 225.1683 -18.6532
v  21.7305 225.1683 -20.0054
v  21.7305 225.1683 -23.5491
v  19.0269 225.1683 -44.3139
v  3.5032 225.1683 -41.5766
v  4.8245 225.1683 -34.0835
v  20.3481 225.1683 -36.8207
v  21.3939 225.1683 -38.6770
v  20.6446 225.1683 -42.9262
v  3.5032 225.1683 -50.5114
v  4.8245 225.1683 -43.0182
v  19.0269 225.1683 -53.2486
v  20.3481 225.1683 -45.7555
v  21.3939 225.1683 -47.6117
v  20.6446 225.1683 -51.8610
v  -4.0932 231.9240 -47.1389
v  -4.0932 225.2749 -47.1389
v  -14.9715 231.9240 -62.6747
v  -14.9715 225.2749 -62.6747
v  -15.9047 226.7137 -64.0075
v  -15.9047 230.4843 -64.0075
v  -5.1584 180.8584 25.1741
v  -5.1584 180.8584 19.2312
v  10.5433 180.8584 26.1191
v  10.5433 216.9919 26.1192
v  12.0399 216.9919 27.4059
v  12.0399 180.8584 27.4059
v  12.0399 216.9919 30.7761
v  12.0399 180.8584 30.7761
v  10.5433 216.9919 32.0621
v  10.5433 180.8584 32.0621
v  -6.9034 216.9919 32.0621
v  -6.9034 216.9919 26.1192
v  19.0269 225.1683 -35.3791
v  3.5032 225.1683 -32.6419
v  4.8245 225.1683 -25.1488
v  20.3481 225.1683 -27.8860
v  21.3939 225.1683 -29.7423
v  20.6446 225.1683 -33.9915
v  20.0728 225.2408 -113.5657
v  4.3697 225.2408 -114.9395
v  3.7632 225.2408 -108.0073
v  19.4663 225.2408 -106.6335
v  20.9446 225.2408 -108.0157
v  21.2886 225.2408 -111.9469
v  20.0728 225.2408 -99.4140
v  4.3697 225.2408 -100.7879
v  3.7632 225.2408 -93.8556
v  19.4663 225.2408 -92.4818
v  20.9446 225.2408 -93.8640
v  21.2886 225.2408 -97.7952
v  18.2685 225.2408 -106.4899
v  2.5653 225.2408 -107.8637
v  1.9588 225.2408 -100.9315
v  17.6620 225.2408 -99.5576
v  19.1403 225.2408 -100.9398
v  19.4842 225.2408 -104.8710
v  -0.1032 140.5919 -8.5222
v  -0.1800 138.6771 -1.2520
v  18.8424 139.7183 -8.5522
v  18.7657 137.8035 -1.2820
v  20.4075 138.1429 -2.8578
v  20.4510 139.2288 -6.9807
v  -6.9034 180.8584 32.0621
v  -6.9034 180.8584 26.1191
v  12.2882 180.8584 33.0354
v  12.2882 216.9919 33.0354
v  13.7849 216.9919 34.3222
v  13.7849 180.8584 34.3222
v  13.7849 216.9919 37.6923
v  13.7849 180.8584 37.6923
v  12.2882 216.9919 38.9783
v  12.2882 180.8584 38.9783
v  -5.1584 216.9919 38.9783
v  -5.1584 216.9919 33.0354
v  2.9814 137.9886 24.8382
v  2.9814 137.9886 32.3568
v  21.9473 137.9886 24.8382
v  21.9473 137.9886 32.3568
v  23.5742 137.9886 30.7298
v  23.5742 137.9886 26.4662
v  5.1020 137.9886 7.7535
v  5.1020 137.9886 15.2720
v  24.0679 137.9886 7.7535
v  24.0679 137.9886 15.2720
v  25.6948 137.9886 13.6451
v  25.6948 137.9886 9.3814
v  4.3577 137.9056 -61.4130
v  2.3517 137.9056 -54.1670
v  22.6360 137.9056 -56.3529
v  20.6300 137.9056 -49.1069
v  22.6321 137.9056 -50.2408
v  23.7696 137.9056 -54.3499
v  21.7902 195.7785 -26.8836
v  21.7902 189.0833 -26.8836
v  15.2376 195.7785 -9.0856
v  15.2376 189.0833 -9.0856
v  14.6755 190.5321 -7.5589
v  14.6755 194.3289 -7.5589
v  -5.1584 180.8584 38.9783
v  -5.1584 180.8584 33.0354
v  8.8147 180.8584 40.6424
v  8.8147 216.9919 40.6424
v  10.7455 216.9919 41.0522
v  10.7455 180.8584 41.0522
v  12.3641 216.9919 44.0082
v  12.3641 180.8584 44.0082
v  11.6690 216.9919 45.8550
v  11.6690 180.8584 45.8550
v  -3.6336 216.9919 54.2344
v  -6.4879 216.9919 49.0218
v  25.3551 189.1369 -12.6945
v  25.3551 180.7063 -12.6945
v  8.5852 189.1369 -3.8360
v  8.5852 180.7063 -3.8360
v  7.1466 182.5306 -3.0761
v  7.1466 187.3115 -3.0761
v  -3.6336 180.8584 54.2344
v  -6.4879 180.8584 49.0218
v  12.2882 180.8584 57.8245
v  12.2882 216.9919 57.8245
v  13.7849 216.9919 59.1113
v  13.7849 180.8584 59.1113
v  13.7849 216.9919 62.4814
v  13.7849 180.8584 62.4814
v  12.2882 216.9919 63.7674
v  12.2882 180.8584 63.7674
v  -5.1584 216.9919 63.7674
v  -5.1584 216.9919 57.8245
v  -18.3075 212.3115 -41.2785
v  -24.1454 208.3806 -41.5081
v  -17.6093 212.3115 -59.0276
v  -23.4472 208.3806 -59.2573
v  -22.1240 209.2313 -60.7301
v  -18.8134 211.4604 -60.5999
v  -5.1584 180.8584 63.7674
v  -5.1584 180.8584 57.8245
v  10.5433 180.8584 64.7125
v  10.5433 216.9919 64.7125
v  12.0399 216.9919 65.9993
v  12.0399 180.8584 65.9993
v  12.0399 216.9919 69.3694
v  12.0399 180.8584 69.3694
v  10.5433 216.9919 70.6554
v  10.5433 180.8584 70.6554
v  -6.9034 216.9919 70.6554
v  -6.9034 216.9919 64.7125
v  2.9814 137.9886 15.6005
v  2.9814 137.9886 23.1191
v  21.9473 137.9886 15.6005
v  21.9473 137.9886 23.1191
v  23.5742 137.9886 21.4921
v  23.5742 137.9886 17.2285
v  24.4172 104.4234 -4.4913
v  24.4172 95.9928 -4.4913
v  5.7395 104.4234 -1.1979
v  5.7395 95.9928 -1.1979
v  4.1373 97.8171 -0.9154
v  4.1373 102.5980 -0.9154
v  -6.9034 180.8584 70.6554
v  -6.9034 180.8584 64.7125
v  12.2882 180.8584 71.6287
v  12.2882 216.9919 71.6287
v  13.7849 216.9919 72.9155
v  13.7849 180.8584 72.9155
v  13.7849 216.9919 76.2857
v  13.7849 180.8584 76.2856
v  12.2882 216.9919 77.5717
v  12.2882 180.8584 77.5716
v  -5.1584 216.9919 77.5717
v  -5.1584 216.9919 71.6287
v  36.9196 104.9657 23.0447
v  36.9196 95.9798 23.0447
v  28.9043 104.9657 40.2336
v  28.9043 95.9798 40.2336
v  28.2167 97.9243 41.7081
v  28.2167 103.0200 41.7081
v  -5.1584 180.8584 77.5716
v  -5.1584 180.8584 71.6287
v  19.2013 95.8747 -56.3477
v  19.2013 130.0142 -56.3477
v  20.7532 130.0142 -54.7949
v  20.7532 95.8747 -54.7949
v  20.7532 130.0142 -50.7280
v  20.7532 95.8747 -50.7280
v  19.2013 130.0142 -49.1761
v  19.2013 95.8747 -49.1761
v  1.1106 130.0142 -49.1761
v  1.1106 130.0142 -56.3477
v  36.9633 116.4223 26.5582
v  36.9633 110.0268 26.5582
v  1.1106 95.8747 -49.1761
v  1.1106 95.8747 -56.3477
v  13.9749 95.8747 -67.0022
v  13.9749 130.0142 -67.0022
v  15.7728 130.0142 -65.7425
v  15.7728 95.8747 -65.7425
v  16.4790 130.0142 -61.7373
v  16.4790 95.8747 -61.7373
v  15.2202 130.0142 -59.9396
v  15.2202 95.8747 -59.9396
v  -2.5956 130.0142 -56.7981
v  -3.8410 130.0142 -63.8608
v  -6.7435 111.6998 -20.3743
v  -6.7435 104.6581 -20.3743
v  10.4196 111.6998 -37.5374
v  10.4196 104.6581 -37.5374
v  11.4971 106.1819 -38.6148
v  11.4971 110.1751 -38.6148
v  -2.5956 95.8747 -56.7981
v  -3.8410 95.8747 -63.8608
v  19.2013 95.8747 -74.9293
v  19.2013 130.0142 -74.9293
v  20.7532 130.0142 -73.3765
v  20.7532 95.8747 -73.3765
v  20.7532 130.0142 -69.3095
v  20.7532 95.8747 -69.3095
v  19.2013 130.0142 -67.7576
v  19.2013 95.8747 -67.7576
v  1.1106 130.0142 -67.7576
v  1.1106 130.0142 -74.9293
v  2.7734 137.9056 -44.4993
v  3.2270 137.9056 -36.9944
v  21.7047 137.9056 -45.6434
v  22.1583 137.9056 -38.1385
v  23.6841 137.9056 -39.8606
v  23.4269 137.9056 -44.1165
v  -0.0575 181.2825 -65.2451
v  -14.3866 181.2825 -68.7885
v  -15.6676 203.1549 -63.6084
v  -1.3385 203.1549 -60.0650
v  0.4286 181.1539 -64.5819
v  0.0972 180.8171 -63.2420
v  -0.6418 180.6886 -62.8821
v  -14.9709 180.6886 -66.4256
v  -1.9228 202.5611 -57.7020
v  -16.2519 202.5611 -61.2455
v  -1.1838 202.6896 -58.0619
v  -0.8524 203.0263 -59.4019
v  1.1106 95.8747 -67.7576
v  1.1106 95.8747 -74.9293
v  17.6662 95.8747 -82.6705
v  17.6662 130.0142 -82.6705
v  19.2181 130.0142 -81.1177
v  19.2181 95.8747 -81.1177
v  19.2181 130.0142 -77.0508
v  19.2181 95.8747 -77.0508
v  17.6662 130.0142 -75.4989
v  17.6662 95.8747 -75.4989
v  -0.4245 130.0142 -75.4989
v  -0.4245 130.0142 -82.6705
v  17.3208 96.9982 -114.8383
v  -1.6451 96.9982 -114.8383
v  -1.6451 130.6643 -107.7793
v  17.3208 130.6643 -107.7793
v  18.9477 96.7008 -113.4198
v  18.9477 95.9218 -109.7046
v  17.3208 95.6246 -108.2869
v  -1.6451 95.6246 -108.2869
v  17.3208 129.2906 -101.2280
v  -1.6451 129.2906 -101.2280
v  18.9477 129.5879 -102.6456
v  18.9477 130.3669 -106.3608
v  -0.4245 95.8747 -75.4989
v  -0.4245 95.8747 -82.6705
v  1.1106 95.8747 -83.2983
v  1.1106 95.8747 -90.4699
v  2.4697 95.8477 -90.8297
v  2.4697 95.8477 -93.3352
v  17.3208 95.9453 -100.4069
v  17.3208 130.3434 -100.4069
v  18.9477 130.3434 -98.9576
v  18.9477 95.9453 -98.9576
v  18.9477 130.3434 -95.1616
v  18.9477 95.9453 -95.1616
v  17.3208 130.3434 -93.7131
v  17.3208 95.9453 -93.7131
v  -1.6451 130.3434 -93.7131
v  -1.6451 130.3434 -100.4069
v  -1.6451 95.9453 -100.4069
v  -1.6451 95.9453 -93.7131
# 992 vertices

vn 1.0000 0.0000 -0.0000
vn 0.0000 -0.5509 -0.8346
vn 0.0000 0.5509 -0.8346
vn 0.0000 0.0000 1.0000
vn 0.0000 1.0000 -0.0000
vn 0.0000 -1.0000 -0.0000
vn -0.4800 -0.0000 -0.8773
vn -0.4800 0.0000 0.8773
vn -1.0000 0.0000 -0.0000
vn -0.0021 0.0003 1.0000
vn 0.0000 -0.0000 -1.0000
vn 0.0002 0.0000 -1.0000
vn -0.0005 0.0001 1.0000
vn 1.0000 -0.0000 0.0000
vn 1.0000 0.0000 0.0000
vn 0.0000 0.0760 0.9971
vn -0.9971 0.0761 -0.0000
vn 0.0000 0.0760 -0.9971
vn 0.9971 0.0760 -0.0000
vn -0.7008 -0.7133 -0.0000
vn 0.0000 -0.8385 -0.5449
vn 0.7008 -0.7133 -0.0000
vn 0.0000 -0.8385 0.5449
vn -0.7008 0.7133 -0.0000
vn 0.0000 0.8385 -0.5449
vn 0.7008 0.7133 -0.0000
vn 0.0000 0.8385 0.5449
vn 0.0000 0.0000 -1.0000
vn 0.0000 0.5340 0.8455
vn 0.0000 -0.5340 0.8455
vn 0.8864 -0.4630 -0.0000
vn 0.8864 0.4630 -0.0000
vn -0.8864 0.4630 -0.0000
vn -0.8864 -0.4630 -0.0000
vn -0.8887 -0.4586 -0.0000
vn -0.8887 0.4586 -0.0000
vn 0.0000 0.5387 0.8425
vn 0.0000 -0.5387 0.8425
vn 0.0000 -0.5462 -0.8377
vn 0.0000 0.5462 -0.8377
vn 0.8887 -0.4586 -0.0000
vn 0.8887 0.4586 -0.0000
vn 0.0357 0.9978 0.0551
vn -0.0001 1.0000 -0.0000
vn -0.0000 1.0000 -0.0000
vn 0.0425 0.9974 0.0582
vn 0.0581 0.9969 0.0525
vn 0.0380 0.9988 0.0302
vn -0.0000 1.0000 0.0000
vn 0.0000 1.0000 0.0000
vn 0.0664 0.9964 -0.0523
vn 0.0398 0.9986 -0.0351
vn 0.0349 0.9982 -0.0488
vn 0.0375 0.9976 -0.0576
vn -0.0001 1.0000 0.0000
vn 0.0582 0.9969 0.0524
vn 0.0381 0.9988 0.0301
vn 0.0664 0.9964 -0.0524
vn 0.0397 0.9986 -0.0352
vn -0.7071 -0.0000 0.7071
vn -0.7071 0.0000 0.7071
vn 0.0449 0.9659 0.2549
vn 0.1736 0.0000 0.9848
vn 0.8192 -0.0000 -0.5736
vn 0.8192 0.0000 -0.5736
vn -0.4671 0.0000 -0.8842
vn 0.5578 -0.8297 0.0219
vn -0.1736 0.0000 -0.9848
vn -0.1736 -0.0000 -0.9848
vn -0.9063 -0.0000 -0.4226
vn -0.9063 0.0000 -0.4226
vn 0.7071 -0.0000 0.7071
vn 0.7071 0.0000 0.7071
vn -0.9384 -0.0000 -0.3455
vn -0.9384 0.0000 -0.3455
vn -0.8192 -0.0000 -0.5736
vn -0.8192 0.0000 -0.5736
vn 0.0357 0.0551 -0.9978
vn 0.0425 0.0582 -0.9974
vn 0.0582 0.0524 -0.9969
vn 0.0381 0.0301 -0.9988
vn 0.0663 -0.0524 -0.9964
vn 0.0397 -0.0352 -0.9986
vn 0.0349 -0.0488 -0.9982
vn 0.0375 -0.0576 -0.9976
vn 0.0358 -0.0550 0.9978
vn 0.0426 -0.0582 0.9974
vn 0.0582 -0.0524 0.9969
vn 0.0381 -0.0301 0.9988
vn 0.0663 0.0524 0.9964
vn 0.0396 0.0352 0.9986
vn 0.0349 0.0488 0.9982
vn 0.0374 0.0576 0.9976
vn -0.0000 -0.0000 1.0000
vn 0.0000 -0.0000 1.0000
vn 0.6830 -0.0000 0.7304
vn 0.8991 -0.0000 0.4378
vn 0.9615 0.0000 -0.2749
vn 0.7996 0.0000 -0.6005
vn 1.0000 0.0001 -0.0000
vn 0.9012 0.4334 -0.0000
vn 0.8464 0.5325 -0.0000
vn 0.8465 -0.5324 -0.0000
vn 0.9013 -0.4333 -0.0000
vn -0.8395 0.5433 -0.0000
vn -0.5599 0.8286 -0.0000
vn -1.0000 -0.0001 -0.0000
vn -0.8395 -0.5433 -0.0000
vn -0.5601 -0.8284 -0.0000
vn 0.0002 -1.0000 -0.0000
vn -0.0002 1.0000 -0.0000
vn 0.9239 0.0000 0.3827
vn 0.9239 -0.0000 -0.3825
vn 0.7073 -0.0000 -0.7069
vn 0.7073 0.0000 -0.7069
vn 0.6519 -0.0000 -0.7583
vn 0.6519 0.0000 -0.7583
vn 0.9088 0.0000 -0.4172
vn 0.9088 -0.0000 -0.4172
vn 0.9088 0.0000 0.4173
vn 0.6517 0.0000 0.7585
vn 1.0000 0.0002 -0.0000
vn 0.0358 -0.9978 -0.0550
vn 0.0426 -0.9974 -0.0582
vn 0.0582 -0.9969 -0.0524
vn 0.0381 -0.9988 -0.0301
vn 0.0001 -1.0000 0.0000
vn 0.0664 -0.9964 0.0524
vn 0.0397 -0.9986 0.0352
vn 0.0349 -0.9982 0.0488
vn 0.0374 -0.9976 0.0576
vn -0.5000 0.0000 -0.8660
vn -0.0002 -0.0000 1.0000
vn -0.0002 0.0000 1.0000
vn -0.8395 0.0000 0.5433
vn -0.5599 -0.0000 0.8286
vn -0.5599 0.0000 0.8286
vn -1.0000 0.0000 -0.0001
vn -0.8395 0.0000 -0.5433
vn -0.5601 0.0000 -0.8284
vn 0.5000 0.0000 0.8660
vn 1.0000 0.0000 0.0001
vn 0.9013 0.0000 -0.4333
vn 0.8465 0.0000 -0.5324
vn 1.0000 -0.0000 0.0001
vn 0.8464 -0.0000 0.5325
vn 0.9012 -0.0000 0.4334
vn 0.9012 0.0000 0.4334
vn -0.3716 -0.7617 0.5307
vn -0.5207 -0.4196 0.7436
vn -0.5207 0.4194 0.7436
vn -0.3718 0.7615 0.5309
vn -0.7660 0.0000 -0.6428
vn -0.7660 -0.0000 -0.6428
vn 0.3522 -0.9359 -0.0000
vn 0.9692 -0.2464 -0.0000
vn 0.3522 0.9359 0.0000
vn 0.3522 0.9359 -0.0000
vn 0.3523 0.9359 0.0000
vn 0.9692 0.2464 -0.0000
vn 0.9999 0.0000 -0.0106
vn 0.0095 0.0000 1.0000
vn -0.0095 -0.0000 -1.0000
vn -0.0095 0.0000 -1.0000
vn -0.0872 -0.0000 0.9962
vn 0.0872 0.0000 -0.9962
vn -0.9962 -0.0000 -0.0872
vn 0.9239 0.0000 -0.3825
vn 0.0000 -1.0000 0.0000
vn -0.0000 -1.0000 -0.0000
vn 0.5738 0.0000 -0.8190
vn 0.8435 0.0000 -0.5372
vn 0.9763 0.0000 0.2164
vn 0.8192 0.0000 0.5736
vn -0.0003 -0.0000 1.0000
vn 0.6652 0.0000 -0.7467
vn 0.9125 0.0000 -0.4092
vn 0.9124 0.0000 0.4093
vn 0.6650 0.0000 0.7469
vn 0.6651 0.0000 -0.7468
vn 0.9124 0.0000 -0.4092
vn 0.6649 0.0000 0.7470
vn -0.7071 0.0000 -0.7071
vn 0.7071 0.0000 -0.7071
vn 0.7254 -0.0000 -0.6883
vn 0.7254 0.0000 -0.6883
vn 0.9288 0.0000 -0.3705
vn 0.9288 -0.0000 -0.3705
vn 0.9288 0.0000 0.3707
vn 0.7252 0.0000 0.6886
vn 0.5000 -0.7071 0.5000
vn 0.6533 -0.3827 0.6533
vn 0.6533 0.3825 0.6533
vn 0.5001 0.7069 0.5001
vn -0.9989 0.0461 0.0016
vn 0.0102 0.2547 -0.9670
vn -0.0449 -0.9659 -0.2549
vn -0.0450 -0.9659 -0.2549
vn -0.0102 -0.2547 0.9670
vn 0.6991 -0.2127 0.6826
vn 0.9190 -0.1400 0.3686
vn 0.9269 0.0549 -0.3714
vn 0.7138 0.1475 -0.6847
vn 0.6428 -0.0000 -0.7660
vn 0.6428 0.0000 -0.7660
vn 0.7660 0.0000 0.6428
vn -0.4797 -0.6656 0.5717
vn -0.6006 -0.3561 0.7158
vn -0.6007 0.3560 0.7159
vn -0.4799 0.6654 0.5719
vn 0.9088 -0.0000 0.4173
vn 0.6517 -0.0000 0.7585
vn 0.6964 -0.7071 -0.1228
vn 0.9098 -0.3827 -0.1604
vn 0.9099 0.3825 -0.1604
vn 0.6966 0.7069 -0.1228
vn -1.0000 -0.0000 0.0000
vn -1.0000 0.0000 0.0000
vn 0.1736 -0.0000 0.9848
vn 0.8712 -0.0000 0.4908
vn 0.9857 -0.0000 0.1685
vn 0.8687 0.0000 -0.4953
vn 0.6511 0.0000 -0.7590
vn -0.9848 0.0000 0.1736
vn -0.9848 -0.0000 0.1736
vn 0.5736 -0.0000 0.8192
vn 0.5736 0.0000 0.8192
vn -0.8192 0.0000 0.5736
vn -0.0000 0.0000 -1.0000
vn -0.3800 -0.7491 -0.5427
vn -0.5229 -0.4108 -0.7468
vn -0.5230 0.4107 -0.7469
vn -0.3801 0.7489 -0.5428
vn 0.8991 0.0000 0.4378
vn 0.6830 -0.0000 0.7305
vn -0.9638 0.0000 -0.2668
vn 0.2668 0.0000 -0.9638
vn -0.2668 0.0000 0.9638
vn 0.4928 0.0000 0.8701
vn 0.7883 0.0000 0.6153
vn 0.9925 -0.0000 -0.1222
vn 0.9925 0.0000 -0.1222
vn 0.8703 -0.0000 -0.4926
vn 0.8703 0.0000 -0.4926
vn 0.3455 0.0000 -0.9384
vn 0.9384 0.0000 0.3455
vn 0.2076 -0.0000 -0.9782
vn 0.2076 0.0000 -0.9782
vn 0.5968 0.0000 -0.8024
vn 0.9975 -0.0000 -0.0705
vn 0.9359 -0.0000 0.3522
vn -0.2298 -0.7468 0.6241
vn -0.3152 -0.4092 0.8562
vn -0.3153 0.4091 0.8563
vn -0.2298 0.7466 0.6243
vn 0.8842 0.0000 -0.4671
vn 0.4671 0.0000 0.8842
vn 0.4803 -0.0000 0.8771
vn -0.4803 0.0000 -0.8771
vn -0.6599 -0.6656 0.3486
vn -0.8262 -0.3561 0.4364
vn -0.8263 0.3560 0.4365
vn -0.6601 0.6654 0.3487
vn -0.0393 -0.0000 0.9992
vn 0.8290 0.5582 0.0326
vn -0.5578 0.8297 -0.0219
vn -0.8290 -0.5582 -0.0326
vn -0.5584 -0.3947 -0.7296
vn -0.2809 -0.2136 -0.9356
vn 0.3535 0.2135 -0.9107
vn 0.6139 0.3946 -0.6837
vn 0.9848 0.0000 -0.1736
vn -0.7350 -0.6656 0.1296
vn -0.9202 -0.3561 0.1623
vn -0.9203 0.3560 0.1623
vn -0.7352 0.6654 0.1296
vn 0.4226 0.0000 -0.9063
vn 0.9063 0.0000 0.4226
vn -0.3241 -0.6417 0.6951
vn -0.3972 -0.3414 0.8519
vn -0.3973 0.3412 0.8519
vn -0.3242 0.6415 0.6953
vn 0.5736 0.0000 -0.8191
vn 0.8660 0.0000 -0.5000
vn -0.4894 -0.8250 0.2825
vn -0.7661 -0.4663 0.4423
vn -0.7662 0.4662 0.4423
vn -0.4896 0.8249 0.2826
vn 0.5000 -0.7071 -0.5000
vn 0.6533 -0.3827 -0.6533
vn 0.6533 0.3825 -0.6533
vn 0.5002 0.7069 -0.5002
vn 0.5001 0.7069 -0.5001
vn -0.9982 -0.0000 0.0603
vn -0.9982 0.0000 0.0603
vn -0.0603 -0.0000 -0.9982
vn -0.0603 0.0000 -0.9982
vn 0.0603 0.0000 0.9982
vn 0.7485 0.0000 0.6632
vn 0.9453 0.0000 0.3263
vn 0.9453 -0.0000 0.3263
vn 0.8992 -0.0000 -0.4376
vn 0.6634 -0.0000 -0.7483
vn 0.6634 0.0000 -0.7483
vn 0.2332 0.2370 -0.9431
vn 0.0569 -0.9715 -0.2301
vn -0.2332 -0.2370 0.9431
vn -0.0569 0.9715 0.2301
vn 0.8097 0.1797 -0.5586
vn 0.9795 0.0989 -0.1753
vn 0.7849 -0.0989 0.6117
vn 0.4558 -0.1798 0.8718
vn 0.4558 -0.1798 0.8717
vn 0.0000 0.2052 -0.9787
vn -0.0000 -0.9787 -0.2052
vn 0.0000 -0.9787 -0.2052
vn 0.0000 -0.2052 0.9787
vn 0.0000 0.9787 0.2052
vn -0.0000 0.9787 0.2052
vn 0.6652 0.1532 -0.7308
vn 0.9125 0.0840 -0.4005
vn 0.9124 -0.0840 0.4006
vn 0.6650 -0.1533 0.7310
# 323 vertex normals

vt 0.0156 -0.2590 0.0000
vt 0.7647 -0.2590 0.0000
vt 0.7647 -0.2229 0.0000
vt 0.0156 -0.2229 0.0000
vt 0.6458 0.4529 0.0000
vt 0.6519 0.4417 0.0000
vt 1.0201 0.4417 0.0000
vt 1.0262 0.4529 0.0000
vt 1.0201 0.4642 0.0000
vt 0.6519 0.4642 0.0000
vt 0.2796 -0.2599 0.0000
vt 0.5007 -0.2599 0.0000
vt 0.5007 -0.2226 0.0000
vt 0.2796 -0.2226 0.0000
vt 0.0996 0.0752 0.0000
vt 0.3471 0.0752 0.0000
vt 0.3471 0.9815 0.0000
vt 0.0996 0.9815 0.0000
vt 0.9658 0.4000 0.0000
vt 0.0291 0.4000 0.0000
vt 0.0291 0.6677 0.0000
vt 0.9658 0.6677 0.0000
vt 0.0095 0.0333 0.0000
vt 1.3304 0.0333 0.0000
vt 1.3304 0.0398 0.0000
vt 0.0095 0.0398 0.0000
vt 1.3304 0.9667 0.0000
vt 0.0095 0.9667 0.0000
vt 0.0095 0.9602 0.0000
vt 1.3304 0.9602 0.0000
vt 0.0078 0.0039 0.0000
vt 1.3320 0.0039 0.0000
vt 1.3320 0.0364 0.0000
vt 0.0078 0.0364 0.0000
vt 1.3320 0.9961 0.0000
vt 0.0078 0.9961 0.0000
vt 0.0078 0.9635 0.0000
vt 1.3320 0.9635 0.0000
vt 0.9757 0.7161 0.0000
vt 0.9757 0.5169 0.0000
vt 0.0616 0.5169 0.0000
vt 0.0616 0.7161 0.0000
vt 0.0616 0.9349 0.0000
vt 0.9757 0.9349 0.0000
vt 0.9757 0.7357 0.0000
vt 0.0616 0.7357 0.0000
vt 1.3242 0.2109 0.0000
vt 1.3242 0.2384 0.0000
vt 1.1544 0.2384 0.0000
vt 1.1544 0.2109 0.0000
vt 1.3438 0.4152 0.0000
vt 1.3438 0.4570 0.0000
vt 1.1688 0.4570 0.0000
vt 1.1688 0.4152 0.0000
vt 0.1193 0.1197 0.0000
vt 0.1193 0.9369 0.0000
vt 0.3274 0.9369 0.0000
vt 0.3274 0.1197 0.0000
vt 0.3068 0.1197 0.0000
vt 0.3068 0.9369 0.0000
vt 0.5148 0.9369 0.0000
vt 0.5148 0.1197 0.0000
vt 0.9757 0.1926 0.0000
vt 0.0616 0.1926 0.0000
vt 0.0616 -0.0066 0.0000
vt 0.9757 -0.0066 0.0000
vt 0.0616 0.4113 0.0000
vt 0.0616 0.2121 0.0000
vt 0.9757 0.2121 0.0000
vt 0.9757 0.4113 0.0000
vt 0.8389 0.2701 0.0000
vt -0.0752 0.2701 0.0000
vt -0.0752 0.0709 0.0000
vt 0.8389 0.0709 0.0000
vt -0.0752 0.4888 0.0000
vt -0.0752 0.2896 0.0000
vt 0.8389 0.2896 0.0000
vt 0.8389 0.4888 0.0000
vt 0.0664 0.4567 0.0000
vt 0.9805 0.4567 0.0000
vt 0.9805 0.6560 0.0000
vt 0.0664 0.6560 0.0000
vt 0.9805 0.2380 0.0000
vt 0.9805 0.4372 0.0000
vt 0.0664 0.4372 0.0000
vt 0.0664 0.2380 0.0000
vt 0.0195 0.4531 0.0000
vt 0.0195 0.2109 0.0000
vt 1.3242 0.4531 0.0000
vt 0.0000 0.6014 0.0000
vt 1.3438 0.6014 0.0000
vt 1.3438 0.3514 0.0000
vt 0.0000 0.3514 0.0000
vt 1.3438 0.0053 0.0000
vt 1.3438 0.2553 0.0000
vt 0.0000 0.2553 0.0000
vt 0.0000 0.0053 0.0000
vt 0.0078 -0.3672 0.0000
vt 0.9180 -0.3672 0.0000
vt 0.9180 0.5039 0.0000
vt 0.0078 0.5039 0.0000
vt 0.3458 0.2671 0.0000
vt 0.0889 0.2671 0.0000
vt 0.0913 0.2354 0.0000
vt 0.3434 0.2354 0.0000
vt 0.9669 0.3835 0.0000
vt 0.0100 0.3835 0.0000
vt 0.0124 0.3518 0.0000
vt 0.9645 0.3518 0.0000
vt 0.3458 0.2294 0.0000
vt 0.0889 0.2294 0.0000
vt 0.0913 0.1977 0.0000
vt 0.3434 0.1977 0.0000
vt 0.9669 0.3340 0.0000
vt 0.0100 0.3340 0.0000
vt 0.0124 0.3022 0.0000
vt 0.9645 0.3022 0.0000
vt 0.3574 0.2787 0.0000
vt 0.0773 0.2787 0.0000
vt 0.9785 0.3951 0.0000
vt -0.0015 0.3951 0.0000
vt 0.3574 0.2410 0.0000
vt 0.0773 0.2410 0.0000
vt 0.9785 0.3455 0.0000
vt -0.0015 0.3455 0.0000
vt 0.0278 -0.2100 0.0000
vt 0.7525 -0.2100 0.0000
vt 0.2879 -0.2093 0.0000
vt 0.4924 -0.2093 0.0000
vt 0.0886 0.9967 0.0000
vt 0.3563 0.9967 0.0000
vt 0.3563 0.0600 0.0000
vt 0.0886 0.0600 0.0000
vt 1.0201 0.6069 0.0000
vt 0.6519 0.6069 0.0000
vt 0.6458 0.5958 0.0000
vt 1.0262 0.5958 0.0000
vt 1.0201 0.5847 0.0000
vt 0.6519 0.5847 0.0000
vt -0.0109 0.3633 0.0000
vt -0.0035 0.3513 0.0000
vt 1.4430 0.3513 0.0000
vt 1.4506 0.3633 0.0000
vt 1.4430 0.3753 0.0000
vt -0.0035 0.3753 0.0000
vt 1.4431 0.5193 0.0000
vt -0.0034 0.5193 0.0000
vt -0.0110 0.5073 0.0000
vt 1.4505 0.5073 0.0000
vt 1.4431 0.4953 0.0000
vt -0.0034 0.4953 0.0000
vt 0.6680 0.8594 0.0000
vt 0.5820 0.8438 0.0000
vt 0.5820 0.8867 0.0000
vt 0.6680 0.8867 0.0000
vt 0.5107 0.7891 0.0000
vt 0.5097 0.7713 0.0000
vt 0.5171 0.7699 0.0000
vt 0.5203 0.7905 0.0000
vt 0.5065 0.8182 0.0000
vt 0.5128 0.8217 0.0000
vt 0.5069 0.8754 0.0000
vt 0.5130 0.8754 0.0000
vt 0.5065 0.9326 0.0000
vt 0.5128 0.9291 0.0000
vt 0.5107 0.9617 0.0000
vt 0.5203 0.9603 0.0000
vt 0.5097 0.9795 0.0000
vt 0.5171 0.9809 0.0000
vt 0.7070 0.8242 0.0000
vt 0.8438 0.8242 0.0000
vt 0.8438 0.8906 0.0000
vt 0.7070 0.8906 0.0000
vt 0.6992 0.8398 0.0000
vt 0.6992 0.8750 0.0000
vt 0.7070 0.8922 0.0000
vt 0.8438 0.8922 0.0000
vt 0.8438 0.9862 0.0000
vt 0.7070 0.9862 0.0000
vt 0.6992 0.9143 0.0000
vt 0.6992 0.9641 0.0000
vt 0.7070 0.7761 0.0000
vt 0.8438 0.7761 0.0000
vt 0.8438 0.8220 0.0000
vt 0.7070 0.8220 0.0000
vt 0.6992 0.7869 0.0000
vt 0.6992 0.8112 0.0000
vt 0.4784 0.9617 0.0000
vt 0.4794 0.9795 0.0000
vt 0.4720 0.9809 0.0000
vt 0.4687 0.9603 0.0000
vt 0.4826 0.9326 0.0000
vt 0.4763 0.9291 0.0000
vt 0.4822 0.8754 0.0000
vt 0.4760 0.8754 0.0000
vt 0.4826 0.8182 0.0000
vt 0.4763 0.8217 0.0000
vt 0.4784 0.7891 0.0000
vt 0.4687 0.7905 0.0000
vt 0.4794 0.7713 0.0000
vt 0.4720 0.7699 0.0000
vt 0.7940 0.4294 0.0000
vt 0.7940 0.1367 0.0000
vt 0.8120 0.1367 0.0000
vt 0.8120 0.4294 0.0000
vt 0.8445 0.1367 0.0000
vt 0.8445 0.4294 0.0000
vt 0.8625 0.1367 0.0000
vt 0.8625 0.4294 0.0000
vt 0.5065 0.9269 0.0000
vt 0.5096 0.9591 0.0000
vt 0.4787 0.9591 0.0000
vt 0.4818 0.9269 0.0000
vt 0.5065 0.8750 0.0000
vt 0.4818 0.8750 0.0000
vt 0.5065 0.8231 0.0000
vt 0.4818 0.8231 0.0000
vt 0.5096 0.7909 0.0000
vt 0.4787 0.7909 0.0000
vt 0.4791 0.7633 0.0000
vt 0.5100 0.7633 0.0000
vt 0.5100 0.9875 0.0000
vt 0.4791 0.9875 0.0000
vt 0.8639 0.4294 0.0000
vt 0.8639 0.1367 0.0000
vt 0.8821 0.1367 0.0000
vt 0.8821 0.4294 0.0000
vt 0.9148 0.1367 0.0000
vt 0.9148 0.4294 0.0000
vt 0.9330 0.1367 0.0000
vt 0.9330 0.4294 0.0000
vt 0.6599 0.1367 0.0000
vt 0.6599 0.4294 0.0000
vt 0.6504 0.4294 0.0000
vt 0.6504 0.1367 0.0000
vt 0.6334 0.4294 0.0000
vt 0.6334 0.1367 0.0000
vt 0.6239 0.4294 0.0000
vt 0.6239 0.1367 0.0000
vt 1.2068 0.0025 0.0000
vt 1.2068 0.0572 0.0000
vt 1.0023 0.0572 0.0000
vt 1.0023 0.0025 0.0000
vt -0.3642 0.0572 0.0000
vt -0.3642 0.0025 0.0000
vt 0.2969 0.1289 0.0000
vt 0.4414 0.1289 0.0000
vt 0.4414 0.9961 0.0000
vt 0.2969 0.9961 0.0000
vt 0.0078 0.1289 0.0000
vt 0.2891 0.1289 0.0000
vt 0.2891 0.9961 0.0000
vt 1.2913 0.1160 0.0000
vt 1.2913 0.0636 0.0000
vt 2.2919 0.0636 0.0000
vt 2.2919 0.1160 0.0000
vt 1.0044 0.1160 0.0000
vt 1.0044 0.0636 0.0000
vt 1.2937 0.0636 0.0000
vt 1.2937 0.1160 0.0000
vt 0.0037 0.1160 0.0000
vt 0.0037 0.0636 0.0000
vt 2.2887 0.1160 0.0000
vt 2.2887 0.0636 0.0000
vt 2.5810 0.0636 0.0000
vt 2.5810 0.1160 0.0000
vt 0.7070 0.7293 0.0000
vt 0.8438 0.7293 0.0000
vt 0.8438 0.7752 0.0000
vt 0.7070 0.7752 0.0000
vt 0.6992 0.7401 0.0000
vt 0.6992 0.7644 0.0000
vt 0.4446 0.4294 0.0000
vt 0.4446 0.1367 0.0000
vt 0.4609 0.1367 0.0000
vt 0.4609 0.4294 0.0000
vt 0.4900 0.1367 0.0000
vt 0.4900 0.4294 0.0000
vt 0.5062 0.1367 0.0000
vt 0.5062 0.4294 0.0000
vt 0.6680 0.9883 0.0000
vt 0.6680 0.9609 0.0000
vt 0.5820 0.9609 0.0000
vt 0.5820 0.9961 0.0000
vt 0.6836 0.8867 0.0000
vt 0.6836 0.9609 0.0000
vt 0.6680 0.7468 0.0000
vt 0.5820 0.7312 0.0000
vt 0.5820 0.7742 0.0000
vt 0.6680 0.7742 0.0000
vt 0.6680 0.8757 0.0000
vt 0.6680 0.8484 0.0000
vt 0.5820 0.8484 0.0000
vt 0.5820 0.8836 0.0000
vt 0.6836 0.7742 0.0000
vt 0.6836 0.8484 0.0000
vt 0.9977 0.1367 0.0000
vt 0.9977 0.4294 0.0000
vt 0.8438 0.5717 0.0000
vt 0.8438 0.8908 0.0000
vt 0.7070 0.8908 0.0000
vt 0.7070 0.5717 0.0000
vt 0.8873 0.7305 0.0000
vt 0.6543 0.7305 0.0000
vt 0.6543 0.4414 0.0000
vt 0.8873 0.4414 0.0000
vt 0.4570 0.7305 0.0000
vt 0.6133 0.7305 0.0000
vt 0.6133 0.4414 0.0000
vt 0.4570 0.4414 0.0000
vt 0.7179 0.8242 0.0000
vt 0.7179 0.8908 0.0000
vt 0.9668 0.8908 0.0000
vt 0.9668 0.8242 0.0000
vt 0.9973 0.1367 0.0000
vt 0.9973 0.4294 0.0000
vt 0.9807 0.4294 0.0000
vt 0.9807 0.1367 0.0000
vt 0.9508 0.4294 0.0000
vt 0.9508 0.1367 0.0000
vt 0.9342 0.4294 0.0000
vt 0.9342 0.1367 0.0000
vt 0.8603 0.1367 0.0000
vt 0.8603 0.4294 0.0000
vt 0.8427 0.4294 0.0000
vt 0.8427 0.1367 0.0000
vt 0.8112 0.4294 0.0000
vt 0.8112 0.1367 0.0000
vt 0.7937 0.4294 0.0000
vt 0.7937 0.1367 0.0000
vt 0.6200 0.1367 0.0000
vt 0.6200 0.4294 0.0000
vt 0.6057 0.4294 0.0000
vt 0.6057 0.1367 0.0000
vt 0.5799 0.4294 0.0000
vt 0.5799 0.1367 0.0000
vt 0.5656 0.4294 0.0000
vt 0.5656 0.1367 0.0000
vt 0.5619 0.1367 0.0000
vt 0.5619 0.4294 0.0000
vt 0.5483 0.4294 0.0000
vt 0.5483 0.1367 0.0000
vt 0.5238 0.4294 0.0000
vt 0.5238 0.1367 0.0000
vt 0.5102 0.4294 0.0000
vt 0.5102 0.1367 0.0000
vt 0.8802 0.4414 0.0000
vt 0.6548 0.4414 0.0000
vt 0.6548 0.7305 0.0000
vt 0.8802 0.7305 0.0000
vt 0.7278 0.1367 0.0000
vt 0.7278 0.4294 0.0000
vt 0.7103 0.4294 0.0000
vt 0.7103 0.1367 0.0000
vt 0.6787 0.4294 0.0000
vt 0.6787 0.1367 0.0000
vt 0.6612 0.4294 0.0000
vt 0.6612 0.1367 0.0000
vt 0.8820 0.7242 0.0000
vt 0.8820 0.4370 0.0000
vt 0.8982 0.4370 0.0000
vt 0.8982 0.7242 0.0000
vt 0.9274 0.4370 0.0000
vt 0.9274 0.7242 0.0000
vt 0.9436 0.4370 0.0000
vt 0.9436 0.7242 0.0000
vt 0.7918 0.1367 0.0000
vt 0.7918 0.4294 0.0000
vt 0.7758 0.4294 0.0000
vt 0.7758 0.1367 0.0000
vt 0.7471 0.4294 0.0000
vt 0.7471 0.1367 0.0000
vt 0.7312 0.4294 0.0000
vt 0.7312 0.1367 0.0000
vt 0.5111 0.4294 0.0000
vt 0.5111 0.1367 0.0000
vt 0.5243 0.1367 0.0000
vt 0.5243 0.4294 0.0000
vt 0.5480 0.1367 0.0000
vt 0.5480 0.4294 0.0000
vt 0.5612 0.1367 0.0000
vt 0.5612 0.4294 0.0000
vt 0.7289 0.4294 0.0000
vt 0.7289 0.1367 0.0000
vt 0.7458 0.1367 0.0000
vt 0.7458 0.4294 0.0000
vt 0.7762 0.1367 0.0000
vt 0.7762 0.4294 0.0000
vt 0.7932 0.1367 0.0000
vt 0.7932 0.4294 0.0000
vt 0.7179 0.8922 0.0000
vt 0.7179 0.9864 0.0000
vt 0.9668 0.9864 0.0000
vt 0.9668 0.8922 0.0000
vt 0.7179 0.7761 0.0000
vt 0.7179 0.8221 0.0000
vt 0.9668 0.8221 0.0000
vt 0.9668 0.7761 0.0000
vt 0.7179 0.7293 0.0000
vt 0.7179 0.7753 0.0000
vt 0.9668 0.7753 0.0000
vt 0.9668 0.7293 0.0000
vt 0.9989 0.4423 0.0000
vt 0.9989 0.7166 0.0000
vt 0.9836 0.7166 0.0000
vt 0.9836 0.4423 0.0000
vt 0.9561 0.7166 0.0000
vt 0.9561 0.4423 0.0000
vt 0.9408 0.7166 0.0000
vt 0.9408 0.4423 0.0000
# 410 texture coords

g liblary
usemtl library_bookcase_01
s off
f 1/1/1 2/2/1 3/3/1 
f 3/3/1 4/4/1 1/1/1 
f 5/5/2 6/6/2 7/7/2 
f 7/7/2 8/8/2 5/5/2 
f 5/5/3 8/8/3 9/9/3 
f 9/9/3 10/10/3 5/5/3 
f 11/11/4 1/12/4 4/13/4 
f 4/13/4 12/14/4 11/11/4 
f 13/15/5 14/16/5 15/17/5 
f 15/17/5 16/18/5 13/15/5 
f 11/19/6 17/20/6 2/21/6 
f 2/21/6 1/22/6 11/19/6 
f 18/23/7 19/24/7 20/25/7 
f 20/25/7 21/26/7 18/23/7 
f 22/27/8 23/28/8 24/29/8 
f 24/29/8 25/30/8 22/27/8 
f 26/31/9 27/32/9 19/33/9 
f 19/33/9 18/34/9 26/31/9 
f 28/35/9 29/36/9 23/37/9 
f 23/37/9 22/38/9 28/35/9 
f 30/39/6 31/40/6 32/41/6 
f 32/41/6 33/42/6 30/39/6 
f 34/43/5 35/44/5 36/45/5 
f 36/45/5 37/46/5 34/43/5 
f 37/46/1 36/45/1 30/39/1 
f 30/39/1 33/42/1 37/46/1 
f 38/47/4 39/48/4 40/49/4 
f 40/49/10 41/50/10 38/47/10 
f 42/51/11 43/52/11 44/53/11 
f 44/53/11 45/54/11 42/51/11 
f 46/55/6 47/56/6 48/57/6 
f 48/57/6 49/58/6 46/55/6 
f 50/55/5 51/58/5 52/57/5 
f 52/57/5 53/56/5 50/55/5 
f 54/59/6 7/60/6 6/61/6 
f 6/61/6 55/62/6 54/59/6 
f 56/55/5 57/58/5 10/57/5 
f 10/57/5 9/56/5 56/55/5 
f 58/63/6 59/64/6 60/65/6 
f 60/65/6 61/66/6 58/63/6 
f 62/67/5 63/68/5 64/69/5 
f 64/69/5 65/70/5 62/67/5 
f 63/68/1 59/64/1 58/63/1 
f 58/63/1 64/69/1 63/68/1 
f 66/71/6 67/72/6 68/73/6 
f 68/73/6 69/74/6 66/71/6 
f 70/75/5 71/76/5 72/77/5 
f 72/77/5 73/78/5 70/75/5 
f 71/76/1 67/72/1 66/71/1 
f 66/71/1 72/77/1 71/76/1 
f 74/79/6 75/80/6 76/81/6 
f 76/81/6 77/82/6 74/79/6 
f 78/83/5 79/84/5 80/85/5 
f 80/85/5 81/86/5 78/83/5 
f 79/84/1 75/80/1 74/79/1 
f 74/79/1 80/85/1 79/84/1 
f 82/87/12 83/88/12 84/47/12 
f 84/47/11 85/89/11 82/87/11 
f 86/87/13 87/88/13 88/47/13 
f 88/47/4 89/89/4 86/87/4 
f 25/30/9 24/29/9 21/26/9 
f 21/26/9 20/25/9 25/30/9 
f 90/90/4 91/91/4 27/92/4 
f 27/92/4 26/93/4 90/90/4 
f 28/94/11 92/95/11 93/96/11 
f 93/96/11 29/97/11 28/94/11 
f 94/98/14 95/99/14 96/100/14 
f 96/100/15 97/101/15 94/98/15 
f 98/102/16 99/103/16 100/104/16 
f 100/104/16 101/105/16 98/102/16 
f 102/106/17 98/107/17 101/108/17 
f 101/108/17 103/109/17 102/106/17 
f 104/110/18 102/111/18 103/112/18 
f 103/112/18 105/113/18 104/110/18 
f 99/114/19 104/115/19 105/116/19 
f 105/116/19 100/117/19 99/114/19 
f 106/118/5 107/119/5 99/103/5 
f 99/103/5 98/102/5 106/118/5 
f 108/120/5 106/121/5 98/107/5 
f 98/107/5 102/106/5 108/120/5 
f 109/122/5 108/123/5 102/111/5 
f 102/111/5 104/110/5 109/122/5 
f 107/124/5 109/125/5 104/115/5 
f 104/115/5 99/114/5 107/124/5 
f 110/4/20 111/126/20 112/127/20 
f 112/127/20 113/3/20 110/4/20 
f 114/14/21 115/128/21 111/129/21 
f 111/129/21 110/13/21 114/14/21 
f 116/4/22 117/126/22 115/127/22 
f 115/127/22 114/3/22 116/4/22 
f 113/14/23 112/128/23 117/129/23 
f 117/129/23 116/13/23 113/14/23 
f 112/15/6 111/18/6 115/17/6 
f 115/17/6 117/16/6 112/15/6 
f 105/130/5 103/131/5 101/132/5 
f 101/132/5 100/133/5 105/130/5 
f 118/4/24 12/3/24 13/127/24 
f 13/127/24 16/126/24 118/4/24 
f 3/14/25 118/13/25 16/129/25 
f 16/129/25 15/128/25 3/14/25 
f 4/4/26 3/3/26 15/127/26 
f 15/127/26 14/126/26 4/4/26 
f 12/14/27 4/13/27 14/129/27 
f 14/129/27 13/128/27 12/14/27 
f 17/1/9 11/2/9 12/3/9 
f 12/3/9 118/4/9 17/1/9 
f 2/11/28 17/12/28 118/13/28 
f 118/13/28 3/14/28 2/11/28 
f 51/134/29 50/135/29 119/136/29 
f 119/136/29 120/137/29 51/134/29 
f 49/138/30 120/137/30 119/136/30 
f 119/136/30 46/139/30 49/138/30 
f 121/140/31 55/141/31 6/142/31 
f 6/142/31 5/143/31 121/140/31 
f 121/140/32 5/143/32 10/144/32 
f 10/144/32 57/145/32 121/140/32 
f 56/146/33 9/147/33 8/148/33 
f 8/148/33 122/149/33 56/146/33 
f 54/150/34 122/149/34 8/148/34 
f 8/148/34 7/151/34 54/150/34 
f 123/148/35 47/151/35 46/150/35 
f 46/150/35 119/149/35 123/148/35 
f 123/148/36 119/149/36 50/146/36 
f 50/146/36 53/147/36 123/148/36 
f 57/134/37 56/135/37 122/136/37 
f 122/136/37 121/137/37 57/134/37 
f 55/138/38 121/137/38 122/136/38 
f 122/136/38 54/139/38 55/138/38 
f 124/5/39 48/6/39 47/7/39 
f 47/7/39 123/8/39 124/5/39 
f 124/5/40 123/8/40 53/9/40 
f 53/9/40 52/10/40 124/5/40 
f 120/140/41 49/141/41 48/142/41 
f 48/142/41 124/143/41 120/140/41 
f 120/140/42 124/143/42 52/144/42 
f 52/144/42 51/145/42 120/140/42 
usemtl library_bookcase_02
s 1
f 125/152/28 126/153/28 127/154/28 
f 127/154/28 128/155/28 125/152/28 
f 129/156/43 130/157/44 131/158/45 
f 131/158/45 132/159/46 129/156/43 
f 133/160/47 129/156/43 132/159/46 
f 132/159/46 134/161/48 133/160/47 
f 135/162/49 133/160/47 134/161/48 
f 134/161/48 136/163/50 135/162/49 
f 137/164/51 135/162/49 136/163/50 
f 136/163/50 138/165/52 137/164/51 
f 139/166/53 137/164/51 138/165/52 
f 138/165/52 140/167/54 139/166/53 
f 141/168/49 139/166/53 140/167/54 
f 140/167/54 142/169/55 141/168/49 
f 143/156/43 144/157/44 145/158/45 
f 145/158/45 146/159/46 143/156/43 
f 147/160/47 143/156/43 146/159/46 
f 146/159/46 148/161/48 147/160/47 
f 149/162/49 147/160/47 148/161/48 
f 148/161/48 150/163/50 149/162/49 
f 151/164/51 149/162/49 150/163/50 
f 150/163/50 152/165/52 151/164/51 
f 153/166/53 151/164/51 152/165/52 
f 152/165/52 154/167/54 153/166/53 
f 155/168/49 153/166/53 154/167/54 
f 154/167/54 156/169/55 155/168/49 
f 157/156/43 158/157/45 159/158/45 
f 159/158/45 160/159/46 157/156/43 
f 161/160/56 157/156/43 160/159/46 
f 160/159/46 162/161/57 161/160/56 
f 163/162/5 161/160/56 162/161/57 
f 162/161/57 164/163/5 163/162/5 
f 165/164/58 163/162/5 164/163/5 
f 164/163/5 166/165/59 165/164/58 
f 167/166/53 165/164/58 166/165/59 
f 166/165/59 168/167/54 167/166/53 
f 169/168/45 167/166/53 168/167/54 
f 168/167/54 170/169/45 169/168/45 
f 171/170/60 172/171/61 173/172/60 
f 173/172/60 174/173/60 171/170/60 
f 175/174/60 171/170/60 174/173/60 
f 174/173/60 176/175/61 175/174/60 
f 177/170/5 178/171/5 179/172/5 
f 179/172/5 180/173/5 177/170/5 
f 181/174/5 177/170/5 180/173/5 
f 180/173/5 182/175/5 181/174/5 
f 183/170/5 184/171/5 185/172/5 
f 185/172/5 186/173/5 183/170/5 
f 187/174/5 183/170/5 186/173/5 
f 186/173/5 188/175/5 187/174/5 
f 189/170/5 190/171/5 191/172/5 
f 191/172/5 192/173/5 189/170/5 
f 193/174/5 189/170/5 192/173/5 
f 192/173/5 194/175/5 193/174/5 
f 195/170/5 196/171/5 197/172/5 
f 197/172/5 198/173/5 195/170/5 
f 199/174/5 195/170/5 198/173/5 
f 198/173/5 200/175/5 199/174/5 
f 201/170/62 202/171/62 203/172/62 
f 203/172/62 204/173/62 201/170/62 
f 205/174/62 201/170/62 204/173/62 
f 204/173/62 206/175/62 205/174/62 
f 207/170/63 208/171/63 209/172/63 
f 209/172/63 210/173/63 207/170/63 
f 211/174/63 207/170/63 210/173/63 
f 210/173/63 212/175/63 211/174/63 
f 213/170/5 214/171/5 215/172/5 
f 215/172/5 216/173/5 213/170/5 
f 217/174/5 213/170/5 216/173/5 
f 216/173/5 218/175/5 217/174/5 
f 219/170/5 220/171/5 221/172/5 
f 221/172/5 222/173/5 219/170/5 
f 223/174/5 219/170/5 222/173/5 
f 222/173/5 224/175/5 223/174/5 
f 225/170/5 226/171/5 227/172/5 
f 227/172/5 228/173/5 225/170/5 
f 229/174/5 225/170/5 228/173/5 
f 228/173/5 230/175/5 229/174/5 
f 231/170/5 232/171/5 233/172/5 
f 233/172/5 234/173/5 231/170/5 
f 235/174/5 231/170/5 234/173/5 
f 234/173/5 236/175/5 235/174/5 
f 237/170/64 238/171/64 239/172/64 
f 239/172/64 240/173/65 237/170/64 
f 241/174/65 237/170/64 240/173/65 
f 240/173/65 242/175/65 241/174/65 
f 243/170/5 244/171/5 245/172/5 
f 245/172/5 246/173/5 243/170/5 
f 247/174/5 243/170/5 246/173/5 
f 246/173/5 248/175/5 247/174/5 
f 249/170/5 250/171/5 251/172/5 
f 251/172/5 252/173/5 249/170/5 
f 253/174/5 249/170/5 252/173/5 
f 252/173/5 254/175/5 253/174/5 
f 255/170/5 256/171/5 257/172/5 
f 257/172/5 258/173/5 255/170/5 
f 259/174/5 255/170/5 258/173/5 
f 258/173/5 260/175/5 259/174/5 
f 261/170/5 262/171/5 263/172/5 
f 263/172/5 264/173/5 261/170/5 
f 265/174/5 261/170/5 264/173/5 
f 264/173/5 266/175/5 265/174/5 
f 267/170/62 268/171/62 269/172/62 
f 269/172/62 270/173/62 267/170/62 
f 271/174/62 267/170/62 270/173/62 
f 270/173/62 272/175/62 271/174/62 
f 273/170/5 274/171/5 275/172/5 
f 275/172/5 276/173/5 273/170/5 
f 277/174/5 273/170/5 276/173/5 
f 276/173/5 278/175/5 277/174/5 
f 279/170/5 280/171/5 281/172/5 
f 281/172/5 282/173/5 279/170/5 
f 283/174/5 279/170/5 282/173/5 
f 282/173/5 284/175/5 283/174/5 
f 285/170/5 286/171/5 287/172/5 
f 287/172/5 288/173/5 285/170/5 
f 289/174/5 285/170/5 288/173/5 
f 288/173/5 290/175/5 289/174/5 
f 291/170/66 292/171/66 293/172/66 
f 293/172/66 294/173/66 291/170/66 
f 295/174/66 291/170/66 294/173/66 
f 294/173/66 296/175/66 295/174/66 
f 297/170/67 298/171/67 299/172/67 
f 299/172/67 300/173/67 297/170/67 
f 301/174/67 297/170/67 300/173/67 
f 300/173/67 302/175/67 301/174/67 
f 303/170/5 304/171/5 305/172/5 
f 305/172/5 306/173/5 303/170/5 
f 307/174/5 303/170/5 306/173/5 
f 306/173/5 308/175/5 307/174/5 
f 309/170/68 310/171/68 311/172/68 
f 311/172/68 312/173/68 309/170/68 
f 313/174/68 309/170/68 312/173/68 
f 312/173/68 314/175/69 313/174/68 
f 315/176/70 316/177/71 317/178/70 
f 317/178/70 318/179/70 315/176/70 
f 319/180/70 315/176/70 318/179/70 
f 318/179/70 320/181/71 319/180/70 
f 321/170/72 322/171/73 323/172/72 
f 323/172/72 324/173/72 321/170/72 
f 325/174/72 321/170/72 324/173/72 
f 324/173/72 326/175/73 325/174/72 
f 327/170/5 328/171/5 329/172/5 
f 329/172/5 330/173/5 327/170/5 
f 331/174/5 327/170/5 330/173/5 
f 330/173/5 332/175/5 331/174/5 
f 333/170/5 334/171/5 335/172/5 
f 335/172/5 336/173/5 333/170/5 
f 337/174/5 333/170/5 336/173/5 
f 336/173/5 338/175/5 337/174/5 
f 339/170/74 340/171/75 341/172/74 
f 341/172/74 342/173/74 339/170/74 
f 343/174/74 339/170/74 342/173/74 
f 342/173/74 344/175/75 343/174/74 
f 345/182/76 346/183/77 347/184/76 
f 347/184/76 348/185/76 345/182/76 
f 349/186/76 345/182/76 348/185/76 
f 348/185/76 350/187/77 349/186/76 
f 351/173/5 352/175/5 353/174/5 
f 353/174/5 354/170/5 351/173/5 
f 355/172/5 351/173/5 354/170/5 
f 354/170/5 356/171/5 355/172/5 
f 357/170/5 358/171/5 359/172/5 
f 359/172/5 360/173/5 357/170/5 
f 361/174/5 357/170/5 360/173/5 
f 360/173/5 362/175/5 361/174/5 
f 363/156/78 364/157/28 365/158/28 
f 365/158/28 366/159/79 363/156/78 
f 367/160/80 363/156/78 366/159/79 
f 366/159/79 368/161/81 367/160/80 
f 369/162/28 367/160/80 368/161/81 
f 368/161/81 370/163/28 369/162/28 
f 371/164/82 369/162/28 370/163/28 
f 370/163/28 372/165/83 371/164/82 
f 373/166/84 371/164/82 372/165/83 
f 372/165/83 374/167/85 373/166/84 
f 375/168/28 373/166/84 374/167/85 
f 374/167/85 376/169/28 375/168/28 
f 377/188/86 378/189/4 379/190/4 
f 379/190/4 380/191/87 377/188/86 
f 381/192/88 377/188/86 380/191/87 
f 380/191/87 382/193/89 381/192/88 
f 383/194/4 381/192/88 382/193/89 
f 382/193/89 384/195/4 383/194/4 
f 385/196/90 383/194/4 384/195/4 
f 384/195/4 386/197/91 385/196/90 
f 387/198/92 385/196/90 386/197/91 
f 386/197/91 388/199/93 387/198/92 
f 389/200/94 387/198/92 388/199/93 
f 388/199/93 390/201/95 389/200/94 
f 391/167/85 392/169/28 393/168/28 
f 393/168/28 394/166/84 391/167/85 
f 395/165/83 391/167/85 394/166/84 
f 394/166/84 396/164/82 395/165/83 
f 397/163/28 395/165/83 396/164/82 
f 396/164/82 398/162/28 397/163/28 
f 399/161/81 397/163/28 398/162/28 
f 398/162/28 400/160/80 399/161/81 
f 401/159/79 399/161/81 400/160/80 
f 400/160/80 402/156/78 401/159/79 
f 403/158/28 401/159/79 402/156/78 
f 402/156/78 404/157/28 403/158/28 
f 336/202/96 405/203/96 406/204/97 
f 406/204/97 338/205/97 336/202/96 
f 338/205/97 406/204/97 407/206/98 
f 407/206/98 337/207/98 338/205/97 
f 337/207/98 407/206/98 408/208/99 
f 408/208/99 333/209/99 337/207/98 
f 375/168/100 409/189/100 410/188/101 
f 410/188/101 373/166/101 375/168/100 
f 373/166/101 410/188/101 411/192/102 
f 411/192/102 371/164/102 373/166/101 
f 371/164/102 411/192/102 412/194/100 
f 412/194/100 369/162/100 371/164/102 
f 369/162/100 412/194/100 413/196/103 
f 413/196/103 367/160/103 369/162/100 
f 367/160/103 413/196/103 414/198/104 
f 414/198/104 363/156/104 367/160/103 
f 363/156/104 414/198/104 415/200/100 
f 415/200/100 364/157/100 363/156/104 
f 368/210/105 366/211/106 416/212/106 
f 416/212/106 417/213/105 368/210/105 
f 370/214/107 368/210/105 417/213/105 
f 417/213/105 418/215/107 370/214/107 
f 372/216/108 370/214/107 418/215/107 
f 418/215/107 419/217/108 372/216/108 
f 374/218/109 372/216/108 419/217/108 
f 419/217/108 420/219/109 374/218/109 
f 404/157/110 389/200/110 390/220/110 
f 390/220/110 403/221/110 404/157/110 
f 378/189/111 393/168/111 392/222/111 
f 392/222/111 379/223/111 378/189/111 
f 399/210/105 401/211/106 388/212/106 
f 388/212/106 386/213/105 399/210/105 
f 397/214/107 399/210/105 386/213/105 
f 386/213/105 384/215/107 397/214/107 
f 395/216/108 397/214/107 384/215/107 
f 384/215/107 382/217/108 395/216/108 
f 391/218/109 395/216/108 382/217/108 
f 382/217/108 380/219/109 391/218/109 
f 351/224/73 421/225/73 422/226/112 
f 422/226/112 352/227/112 351/224/73 
f 352/227/112 422/226/112 423/228/113 
f 423/228/113 353/229/113 352/227/112 
f 353/229/113 423/228/113 424/230/114 
f 424/230/114 354/231/115 353/229/113 
f 425/232/116 426/233/117 427/234/118 
f 427/234/118 428/235/119 425/232/116 
f 428/235/119 427/234/118 429/236/120 
f 429/236/120 430/237/120 428/235/119 
f 430/237/120 429/236/120 431/238/121 
f 431/238/121 432/239/121 430/237/120 
f 431/173/5 429/175/5 427/174/5 
f 427/174/5 426/170/5 431/173/5 
f 433/172/5 431/173/5 426/170/5 
f 426/170/5 434/171/5 433/172/5 
f 389/200/100 404/157/100 402/156/104 
f 402/156/104 387/198/104 389/200/100 
f 387/198/104 402/156/104 400/160/103 
f 400/160/103 385/196/103 387/198/104 
f 385/196/103 400/160/103 398/162/100 
f 398/162/100 383/194/100 385/196/103 
f 383/194/100 398/162/100 396/164/102 
f 396/164/102 381/192/102 383/194/100 
f 381/192/102 396/164/102 394/166/101 
f 394/166/101 377/188/101 381/192/102 
f 377/188/101 394/166/101 393/168/100 
f 393/168/100 378/189/100 377/188/101 
f 43/240/15 38/241/15 41/242/15 
f 41/242/15 44/243/15 43/240/15 
f 87/244/15 93/245/15 92/240/15 
f 92/240/15 88/241/15 87/244/15 
f 90/244/1 82/245/1 85/240/1 
f 85/240/1 91/241/1 90/244/1 
f 435/246/1 436/247/1 437/248/14 
f 437/248/14 438/249/14 435/246/1 
f 439/250/122 440/251/122 441/252/122 
f 441/252/122 442/36/122 439/250/122 
f 107/253/9 110/254/9 113/255/9 
f 113/255/9 109/256/9 107/253/9 
f 106/257/28 114/258/28 110/259/28 
f 110/259/28 107/260/28 106/257/28 
f 108/261/1 116/262/1 114/258/1 
f 114/258/1 106/257/1 108/261/1 
f 109/263/4 113/264/4 116/265/4 
f 116/265/4 108/266/4 109/263/4 
f 130/157/12 443/200/12 444/220/12 
f 444/220/12 131/221/12 130/157/12 
f 445/188/123 446/189/6 447/190/6 
f 447/190/6 448/191/124 445/188/123 
f 449/192/125 445/188/123 448/191/124 
f 448/191/124 450/193/126 449/192/125 
f 451/194/127 449/192/125 450/193/126 
f 450/193/126 452/195/127 451/194/127 
f 453/196/128 451/194/127 452/195/127 
f 452/195/127 454/197/129 453/196/128 
f 455/198/130 453/196/128 454/197/129 
f 454/197/129 456/199/131 455/198/130 
f 443/200/6 455/198/130 456/199/131 
f 456/199/131 444/201/6 443/200/6 
f 457/267/132 458/268/132 459/269/132 
f 459/269/132 460/270/132 457/267/132 
f 461/271/132 457/267/132 460/270/132 
f 460/270/132 462/272/132 461/271/132 
f 446/189/133 141/168/134 142/222/133 
f 142/222/133 447/223/133 446/189/133 
f 134/210/135 132/211/136 456/212/137 
f 456/212/137 454/213/135 134/210/135 
f 136/214/138 134/210/135 454/213/135 
f 454/213/135 452/215/138 136/214/138 
f 138/216/139 136/214/138 452/215/138 
f 452/215/138 450/217/139 138/216/139 
f 140/218/140 138/216/139 450/217/139 
f 450/217/139 448/219/140 140/218/140 
f 463/269/141 464/268/141 465/267/141 
f 465/267/141 466/270/141 463/269/141 
f 467/272/141 466/270/141 465/267/141 
f 465/267/141 468/271/141 467/272/141 
f 443/200/142 130/157/142 129/156/143 
f 129/156/143 455/198/143 443/200/142 
f 455/198/143 129/156/143 133/160/144 
f 133/160/144 453/196/144 455/198/143 
f 453/196/144 133/160/144 135/162/142 
f 135/162/142 451/194/145 453/196/144 
f 451/194/145 135/162/142 137/164/146 
f 137/164/146 449/192/146 451/194/145 
f 449/192/146 137/164/146 139/166/147 
f 139/166/147 445/188/148 449/192/146 
f 445/188/148 139/166/147 141/168/142 
f 141/168/142 446/189/142 445/188/148 
f 144/157/12 469/200/12 470/220/12 
f 470/220/12 145/221/12 144/157/12 
f 471/188/123 472/189/6 473/190/6 
f 473/190/6 474/191/124 471/188/123 
f 475/192/125 471/188/123 474/191/124 
f 474/191/124 476/193/126 475/192/125 
f 477/194/127 475/192/125 476/193/126 
f 476/193/126 478/195/127 477/194/127 
f 479/196/128 477/194/127 478/195/127 
f 478/195/127 480/197/129 479/196/128 
f 481/198/130 479/196/128 480/197/129 
f 480/197/129 482/199/131 481/198/130 
f 469/200/6 481/198/130 482/199/131 
f 482/199/131 470/201/6 469/200/6 
f 348/273/149 483/274/149 484/275/150 
f 484/275/150 350/276/150 348/273/149 
f 350/276/150 484/275/150 485/277/151 
f 485/277/151 349/278/151 350/276/150 
f 349/278/151 485/277/151 486/279/152 
f 486/279/152 345/280/152 349/278/151 
f 487/173/153 488/175/153 489/174/153 
f 489/174/153 490/170/154 487/173/153 
f 491/172/154 487/173/153 490/170/154 
f 490/170/154 492/171/154 491/172/154 
f 472/189/133 155/168/134 156/222/133 
f 156/222/133 473/223/133 472/189/133 
f 148/210/135 146/211/136 482/212/137 
f 482/212/137 480/213/135 148/210/135 
f 150/214/138 148/210/135 480/213/135 
f 480/213/135 478/215/138 150/214/138 
f 152/216/139 150/214/138 478/215/138 
f 478/215/138 476/217/139 152/216/139 
f 154/218/140 152/216/139 476/217/139 
f 476/217/139 474/219/140 154/218/140 
f 493/281/4 494/282/4 495/283/4 
f 495/283/4 496/284/4 493/281/4 
f 125/285/155 128/155/155 494/282/155 
f 494/282/155 493/286/155 125/285/155 
f 128/155/156 127/154/156 495/283/156 
f 495/283/156 494/282/156 128/155/156 
f 497/287/28 498/288/28 499/289/28 
f 499/289/28 500/290/28 497/287/28 
f 501/291/4 502/292/4 503/293/4 
f 503/293/4 504/294/4 501/291/4 
f 497/295/155 500/290/155 502/292/155 
f 502/292/155 501/296/155 497/295/155 
f 500/290/156 499/289/156 503/293/156 
f 503/293/156 502/292/156 500/290/156 
f 505/152/28 506/153/28 507/154/28 
f 507/154/28 508/155/28 505/152/28 
f 509/281/4 510/282/4 511/283/4 
f 511/283/4 512/284/4 509/281/4 
f 505/285/155 508/155/155 510/282/155 
f 510/282/155 509/286/155 505/285/155 
f 508/155/156 507/154/156 511/283/156 
f 511/283/156 510/282/156 508/155/156 
f 513/152/4 514/153/4 515/154/4 
f 515/154/4 516/155/4 513/152/4 
f 517/281/28 518/282/28 519/283/28 
f 519/283/28 520/284/28 517/281/28 
f 513/285/157 516/155/158 518/282/159 
f 518/282/159 517/286/159 513/285/157 
f 516/155/160 515/154/160 519/283/160 
f 519/283/160 518/282/160 516/155/160 
f 521/152/4 522/153/4 523/154/4 
f 523/154/4 524/155/4 521/152/4 
f 525/281/28 526/282/28 527/283/28 
f 527/283/28 528/284/28 525/281/28 
f 521/285/157 524/155/158 526/282/159 
f 526/282/159 525/286/159 521/285/157 
f 524/155/160 523/154/160 527/283/160 
f 527/283/160 526/282/160 524/155/160 
f 529/273/161 530/274/161 531/297/161 
f 531/297/161 532/298/161 529/273/161 
f 533/299/5 534/300/5 529/301/5 
f 529/301/5 532/302/5 533/299/5 
f 535/303/162 530/304/162 529/305/162 
f 529/305/162 534/306/162 535/303/162 
f 530/301/6 535/300/6 536/299/6 
f 536/299/6 531/302/6 530/301/6 
f 533/306/163 532/305/164 531/304/163 
f 531/304/163 536/303/163 533/306/163 
f 537/307/165 405/308/165 336/309/165 
f 336/309/165 335/310/165 537/307/165 
f 334/309/166 333/310/166 408/307/166 
f 408/307/166 538/308/166 334/309/166 
f 335/311/167 334/312/167 538/313/167 
f 538/313/167 537/314/167 335/311/167 
f 539/230/114 540/231/115 541/229/168 
f 541/229/168 542/228/113 539/230/114 
f 542/228/113 541/229/168 543/227/112 
f 543/227/112 544/226/112 542/228/113 
f 544/226/112 543/227/112 545/224/73 
f 545/224/73 546/225/73 544/226/112 
f 545/173/5 543/175/5 541/174/5 
f 541/174/5 540/170/5 545/173/5 
f 547/172/5 545/173/5 540/170/5 
f 540/170/5 548/171/5 547/172/5 
f 469/200/142 144/157/142 143/156/143 
f 143/156/143 481/198/143 469/200/142 
f 481/198/143 143/156/143 147/160/144 
f 147/160/144 479/196/144 481/198/143 
f 479/196/144 147/160/144 149/162/142 
f 149/162/142 477/194/145 479/196/144 
f 477/194/145 149/162/142 151/164/146 
f 151/164/146 475/192/146 477/194/145 
f 475/192/146 151/164/146 153/166/147 
f 153/166/147 471/188/148 475/192/146 
f 471/188/148 153/166/147 155/168/142 
f 155/168/142 472/189/142 471/188/148 
f 158/157/12 549/200/12 550/220/12 
f 550/220/12 159/221/12 158/157/12 
f 551/188/123 552/189/169 553/190/169 
f 553/190/169 554/191/124 551/188/123 
f 555/192/125 551/188/123 554/191/124 
f 554/191/124 556/193/126 555/192/125 
f 557/194/170 555/192/125 556/193/126 
f 556/193/126 558/195/170 557/194/170 
f 559/196/128 557/194/170 558/195/170 
f 558/195/170 560/197/129 559/196/128 
f 561/198/130 559/196/128 560/197/129 
f 560/197/129 562/199/131 561/198/130 
f 549/200/6 561/198/130 562/199/131 
f 562/199/131 550/201/6 549/200/6 
f 545/309/4 547/310/4 563/307/4 
f 563/307/4 546/308/4 545/309/4 
f 539/307/28 564/308/28 548/309/28 
f 548/309/28 540/310/28 539/307/28 
f 565/315/171 566/316/171 567/317/172 
f 567/317/172 568/318/172 565/315/171 
f 568/318/172 567/317/172 569/319/173 
f 569/319/173 570/320/173 568/318/172 
f 570/320/173 569/319/173 571/321/174 
f 571/321/174 572/322/174 570/320/173 
f 571/173/5 569/175/5 567/174/5 
f 567/174/5 566/170/5 571/173/5 
f 573/172/5 571/173/5 566/170/5 
f 566/170/5 574/171/5 573/172/5 
f 552/189/175 169/168/134 170/222/133 
f 170/222/133 553/223/175 552/189/175 
f 162/210/135 160/211/136 562/212/137 
f 562/212/137 560/213/135 162/210/135 
f 164/214/138 162/210/135 560/213/135 
f 560/213/135 558/215/138 164/214/138 
f 166/216/139 164/214/138 558/215/138 
f 558/215/138 556/217/139 166/216/139 
f 168/218/140 166/216/139 556/217/139 
f 556/217/139 554/219/140 168/218/140 
f 571/309/63 573/310/63 575/307/63 
f 575/307/63 572/308/63 571/309/63 
f 565/307/69 576/308/68 574/309/69 
f 574/309/69 566/310/69 565/307/69 
f 577/323/176 578/324/176 579/325/177 
f 579/325/177 580/326/177 577/323/176 
f 580/326/177 579/325/177 581/327/178 
f 581/327/178 582/328/178 580/326/177 
f 582/328/178 581/327/178 583/329/179 
f 583/329/179 584/330/179 582/328/178 
f 583/173/5 581/175/5 579/174/5 
f 579/174/5 578/170/5 583/173/5 
f 585/172/5 583/173/5 578/170/5 
f 578/170/5 586/171/5 585/172/5 
f 549/200/142 158/157/142 157/156/143 
f 157/156/143 561/198/143 549/200/142 
f 561/198/143 157/156/143 161/160/144 
f 161/160/144 559/196/144 561/198/143 
f 559/196/144 161/160/144 163/162/142 
f 163/162/142 557/194/145 559/196/144 
f 557/194/145 163/162/142 165/164/146 
f 165/164/146 555/192/146 557/194/145 
f 555/192/146 165/164/146 167/166/147 
f 167/166/147 551/188/148 555/192/146 
f 551/188/148 167/166/147 169/168/142 
f 169/168/142 552/189/142 551/188/148 
f 364/157/110 415/200/110 587/220/110 
f 587/220/110 365/221/110 364/157/110 
f 410/188/86 409/189/4 588/190/4 
f 588/190/4 420/191/87 410/188/86 
f 411/192/88 410/188/86 420/191/87 
f 420/191/87 419/193/89 411/192/88 
f 412/194/4 411/192/88 419/193/89 
f 419/193/89 418/195/4 412/194/4 
f 413/196/90 412/194/4 418/195/4 
f 418/195/4 417/197/91 413/196/90 
f 414/198/92 413/196/90 417/197/91 
f 417/197/91 416/199/93 414/198/92 
f 415/200/4 414/198/92 416/199/93 
f 416/199/93 587/201/4 415/200/4 
f 583/309/4 585/310/4 589/307/4 
f 589/307/4 584/308/4 583/309/4 
f 577/307/28 590/308/28 586/309/28 
f 586/309/28 578/310/28 577/307/28 
f 591/331/116 357/332/117 361/333/118 
f 361/333/118 592/334/119 591/331/116 
f 592/334/119 361/333/118 362/335/120 
f 362/335/120 593/336/120 592/334/119 
f 593/336/120 362/335/120 360/337/121 
f 360/337/121 594/338/121 593/336/120 
f 360/309/4 359/310/4 595/307/4 
f 595/307/4 594/308/4 360/309/4 
f 591/307/28 596/308/28 358/309/28 
f 358/309/28 357/310/28 591/307/28 
f 597/339/180 598/340/180 599/341/181 
f 599/341/181 600/342/181 597/339/180 
f 600/342/181 599/341/181 601/343/178 
f 601/343/178 602/344/178 600/342/181 
f 602/344/178 601/343/178 603/345/182 
f 603/345/182 604/346/182 602/344/178 
f 603/173/5 601/175/5 599/174/5 
f 599/174/5 598/170/5 603/173/5 
f 605/172/5 603/173/5 598/170/5 
f 598/170/5 606/171/5 605/172/5 
f 409/189/111 375/168/111 376/222/111 
f 376/222/111 588/223/111 409/189/111 
f 173/311/183 172/312/183 607/313/183 
f 607/313/183 608/314/183 173/311/183 
f 172/347/45 171/348/45 609/349/45 
f 609/349/45 607/350/45 172/347/45 
f 608/172/184 607/171/184 609/170/184 
f 609/170/184 610/173/184 608/172/184 
f 611/175/184 610/173/184 609/170/184 
f 609/170/184 612/174/184 611/175/184 
f 603/309/4 605/310/4 613/307/4 
f 613/307/4 604/308/4 603/309/4 
f 597/307/28 614/308/28 606/309/28 
f 606/309/28 598/310/28 597/307/28 
f 615/351/185 616/352/186 617/353/187 
f 617/353/187 618/354/188 615/351/185 
f 618/354/188 617/353/187 619/355/189 
f 619/355/189 620/356/189 618/354/188 
f 620/356/189 619/355/189 621/357/190 
f 621/357/190 622/358/190 620/356/189 
f 621/173/5 619/175/5 617/174/5 
f 617/174/5 616/170/5 621/173/5 
f 623/172/5 621/173/5 616/170/5 
f 616/170/5 624/171/5 623/172/5 
f 174/359/191 610/360/191 611/361/192 
f 611/361/192 176/362/192 174/359/191 
f 176/362/192 611/361/192 612/363/193 
f 612/363/193 175/364/193 176/362/192 
f 175/364/193 612/363/193 609/365/194 
f 609/365/194 171/366/194 175/364/193 
f 178/309/28 177/310/28 625/307/28 
f 625/307/28 626/308/28 178/309/28 
f 627/307/4 628/308/4 180/309/4 
f 180/309/4 179/310/4 627/307/4 
f 180/273/73 628/274/73 629/275/112 
f 629/275/112 182/276/112 180/273/73 
f 182/276/112 629/275/112 630/277/113 
f 630/277/113 181/278/168 182/276/112 
f 181/278/168 630/277/113 625/279/114 
f 625/279/114 177/280/115 181/278/168 
f 184/309/28 183/310/28 631/307/28 
f 631/307/28 632/308/28 184/309/28 
f 633/307/4 634/308/4 186/309/4 
f 186/309/4 185/310/4 633/307/4 
f 186/273/73 634/274/73 635/275/112 
f 635/275/112 188/276/112 186/273/73 
f 188/276/112 635/275/112 636/277/113 
f 636/277/113 187/278/168 188/276/112 
f 187/278/168 636/277/113 631/279/114 
f 631/279/114 183/280/115 187/278/168 
f 190/309/28 189/310/28 637/307/28 
f 637/307/28 638/308/28 190/309/28 
f 639/307/4 640/308/4 192/309/4 
f 192/309/4 191/310/4 639/307/4 
f 192/273/73 640/274/73 641/275/112 
f 641/275/112 194/276/112 192/273/73 
f 194/276/112 641/275/112 642/277/113 
f 642/277/113 193/278/168 194/276/112 
f 193/278/168 642/277/113 637/279/114 
f 637/279/114 189/280/115 193/278/168 
f 196/309/28 195/310/28 643/307/28 
f 643/307/28 644/308/28 196/309/28 
f 645/307/4 646/308/4 198/309/4 
f 198/309/4 197/310/4 645/307/4 
f 198/273/73 646/274/73 647/275/112 
f 647/275/112 200/276/112 198/273/73 
f 200/276/112 647/275/112 648/277/113 
f 648/277/113 199/278/168 200/276/112 
f 199/278/168 648/277/113 643/279/114 
f 643/279/114 195/280/115 199/278/168 
f 203/311/195 202/312/195 649/313/195 
f 649/313/195 650/314/195 203/311/195 
f 202/309/196 201/310/196 651/307/196 
f 651/307/196 649/308/196 202/309/196 
f 650/172/197 649/171/197 651/170/197 
f 651/170/197 652/173/197 650/172/197 
f 653/175/198 652/173/197 651/170/197 
f 651/170/197 654/174/197 653/175/198 
f 621/309/4 623/310/4 655/307/4 
f 655/307/4 622/308/4 621/309/4 
f 615/307/28 656/308/28 624/309/28 
f 624/309/28 616/310/28 615/307/28 
f 657/367/114 658/368/115 659/369/168 
f 659/369/168 660/370/113 657/367/114 
f 660/370/113 659/369/168 661/371/112 
f 661/371/112 662/372/112 660/370/113 
f 662/372/112 661/371/112 663/373/73 
f 663/373/73 664/374/73 662/372/112 
f 663/173/5 661/175/5 659/174/5 
f 659/174/5 658/170/5 663/173/5 
f 665/172/5 663/173/5 658/170/5 
f 658/170/5 666/171/5 665/172/5 
f 650/307/199 652/308/199 204/309/199 
f 204/309/199 203/310/199 650/307/199 
f 204/273/200 652/274/200 653/275/201 
f 653/275/201 206/276/201 204/273/200 
f 206/276/201 653/275/201 654/277/202 
f 654/277/202 205/278/202 206/276/201 
f 205/278/202 654/277/202 651/279/203 
f 651/279/203 201/280/203 205/278/202 
f 491/311/204 492/312/204 667/313/204 
f 667/313/204 668/314/205 491/311/204 
f 492/309/5 490/310/5 669/307/5 
f 669/307/5 667/308/5 492/309/5 
f 668/172/206 667/171/206 669/170/206 
f 669/170/206 670/173/206 668/172/206 
f 671/175/206 670/173/206 669/170/206 
f 669/170/206 672/174/206 671/175/206 
f 663/309/4 665/310/4 673/307/4 
f 673/307/4 664/308/4 663/309/4 
f 657/307/28 674/308/28 666/309/28 
f 666/309/28 658/310/28 657/307/28 
f 674/313/9 673/314/9 665/311/9 
f 665/311/9 666/312/9 674/313/9 
f 675/232/116 676/233/117 677/234/118 
f 677/234/118 678/235/119 675/232/116 
f 678/235/119 677/234/118 679/236/120 
f 679/236/120 680/237/120 678/235/119 
f 680/237/120 679/236/120 681/238/121 
f 681/238/121 682/239/121 680/237/120 
f 681/173/5 679/175/5 677/174/5 
f 677/174/5 676/170/5 681/173/5 
f 683/172/5 681/173/5 676/170/5 
f 676/170/5 684/171/5 683/172/5 
f 668/307/6 670/308/6 487/309/6 
f 487/309/6 491/310/6 668/307/6 
f 487/273/207 670/274/207 671/275/208 
f 671/275/208 488/276/208 487/273/207 
f 488/276/208 671/275/208 672/277/209 
f 672/277/209 489/278/209 488/276/208 
f 489/278/209 672/277/209 669/279/210 
f 669/279/210 490/280/210 489/278/209 
f 208/309/5 207/310/5 685/307/5 
f 685/307/5 686/308/5 208/309/5 
f 687/172/68 686/171/68 685/170/68 
f 685/170/68 688/173/68 687/172/68 
f 689/175/68 688/173/68 685/170/68 
f 685/170/68 690/174/68 689/175/68 
f 681/309/4 683/310/4 691/307/4 
f 691/307/4 682/308/4 681/309/4 
f 675/307/28 692/308/28 684/309/28 
f 684/309/28 676/310/28 675/307/28 
f 693/331/117 694/332/117 695/333/118 
f 695/333/118 696/334/118 693/331/117 
f 696/334/118 695/333/118 697/335/211 
f 697/335/211 698/336/211 696/334/118 
f 698/336/211 697/335/211 699/337/212 
f 699/337/212 700/338/212 698/336/211 
f 699/173/45 697/175/45 695/174/45 
f 695/174/45 694/170/50 699/173/45 
f 701/172/50 699/173/45 694/170/50 
f 694/170/50 702/171/50 701/172/50 
f 210/273/213 688/274/213 689/275/214 
f 689/275/214 212/276/214 210/273/213 
f 212/276/214 689/275/214 690/277/215 
f 690/277/215 211/278/215 212/276/214 
f 211/278/215 690/277/215 685/279/216 
f 685/279/216 207/280/216 211/278/215 
f 215/311/217 214/312/217 703/313/218 
f 703/313/218 704/314/9 215/311/217 
f 214/309/28 213/310/28 705/307/28 
f 705/307/28 703/308/28 214/309/28 
f 704/307/4 706/308/4 216/309/4 
f 216/309/4 215/310/4 704/307/4 
f 216/375/73 706/376/73 707/377/112 
f 707/377/112 218/378/112 216/375/73 
f 218/378/112 707/377/112 708/379/113 
f 708/379/113 217/380/168 218/378/112 
f 217/380/168 708/379/113 705/381/114 
f 705/381/114 213/382/115 217/380/168 
f 220/309/28 219/310/28 709/307/28 
f 709/307/28 710/308/28 220/309/28 
f 711/307/4 712/308/4 222/309/4 
f 222/309/4 221/310/4 711/307/4 
f 222/375/73 712/376/73 713/377/112 
f 713/377/112 224/378/112 222/375/73 
f 224/378/112 713/377/112 714/379/113 
f 714/379/113 223/380/113 224/378/112 
f 223/380/113 714/379/113 709/381/114 
f 709/381/114 219/382/115 223/380/113 
f 226/309/68 225/310/68 715/307/68 
f 715/307/68 716/308/68 226/309/68 
f 717/307/219 718/308/219 228/309/219 
f 228/309/219 227/310/219 717/307/219 
f 228/383/220 718/384/220 719/385/221 
f 719/385/221 230/386/221 228/383/220 
f 230/386/221 719/385/221 720/387/222 
f 720/387/222 229/388/222 230/386/221 
f 229/388/222 720/387/222 715/389/223 
f 715/389/223 225/390/223 229/388/222 
f 233/311/224 232/312/224 721/313/225 
f 721/313/225 722/314/225 233/311/224 
f 232/309/68 231/310/68 723/307/68 
f 723/307/68 721/308/68 232/309/68 
f 722/307/219 724/308/219 234/309/219 
f 234/309/219 233/310/219 722/307/219 
f 234/383/220 724/384/220 725/385/221 
f 725/385/221 236/386/221 234/383/220 
f 236/386/221 725/385/221 726/387/222 
f 726/387/222 235/388/222 236/386/221 
f 235/388/222 726/387/222 723/389/223 
f 723/389/223 231/390/223 235/388/222 
f 239/311/226 238/312/226 727/313/226 
f 727/313/226 728/314/227 239/311/226 
f 238/309/5 237/310/5 729/307/5 
f 729/307/5 727/308/5 238/309/5 
f 728/172/228 727/171/228 729/170/228 
f 729/170/228 730/173/228 728/172/228 
f 731/175/228 730/173/228 729/170/228 
f 729/170/228 732/174/228 731/175/228 
f 699/309/95 701/310/95 733/307/95 
f 733/307/95 700/308/95 699/309/95 
f 693/307/229 734/308/28 702/309/229 
f 702/309/229 694/310/229 693/307/229 
f 734/313/217 733/314/217 701/311/217 
f 701/311/217 702/312/9 734/313/217 
f 735/331/116 736/332/117 737/333/118 
f 737/333/118 738/334/118 735/331/116 
f 738/334/118 737/333/118 739/335/211 
f 739/335/211 740/336/211 738/334/118 
f 740/336/211 739/335/211 741/337/212 
f 741/337/212 742/338/212 740/336/211 
f 741/173/45 739/175/45 737/174/45 
f 737/174/45 736/170/50 741/173/45 
f 743/172/50 741/173/45 736/170/50 
f 736/170/50 744/171/50 743/172/50 
f 240/273/230 730/274/230 731/275/231 
f 731/275/231 242/276/231 240/273/230 
f 242/276/231 731/275/231 732/277/232 
f 732/277/232 241/278/232 242/276/231 
f 241/278/232 732/277/232 729/279/233 
f 729/279/233 237/280/233 241/278/232 
f 244/309/68 243/310/68 745/307/68 
f 745/307/68 746/308/68 244/309/68 
f 747/307/219 748/308/219 246/309/219 
f 246/309/219 245/310/219 747/307/219 
f 246/383/220 748/384/220 749/385/221 
f 749/385/221 248/386/221 246/383/220 
f 248/386/221 749/385/221 750/387/222 
f 750/387/222 247/388/222 248/386/221 
f 247/388/222 750/387/222 745/389/223 
f 745/389/223 243/390/223 247/388/222 
f 250/309/166 249/310/166 751/307/166 
f 751/307/166 752/308/166 250/309/166 
f 753/307/165 754/308/165 252/309/165 
f 252/309/165 251/310/165 753/307/165 
f 252/202/96 754/203/96 755/204/234 
f 755/204/234 254/205/97 252/202/96 
f 254/205/97 755/204/234 756/206/98 
f 756/206/98 253/207/98 254/205/97 
f 253/207/98 756/206/98 751/208/99 
f 751/208/99 249/209/99 253/207/98 
f 256/309/166 255/310/166 757/307/166 
f 757/307/166 758/308/166 256/309/166 
f 759/307/165 760/308/165 258/309/165 
f 258/309/165 257/310/165 759/307/165 
f 258/202/96 760/203/96 761/204/97 
f 761/204/97 260/205/97 258/202/96 
f 260/205/97 761/204/97 762/206/98 
f 762/206/98 259/207/98 260/205/97 
f 259/207/98 762/206/98 757/208/99 
f 757/208/99 255/209/99 259/207/98 
f 262/309/166 261/310/166 763/307/166 
f 763/307/166 764/308/166 262/309/166 
f 765/307/165 766/308/165 264/309/165 
f 264/309/165 263/310/165 765/307/165 
f 264/202/235 766/203/96 767/204/97 
f 767/204/97 266/205/97 264/202/235 
f 266/205/97 767/204/97 768/206/98 
f 768/206/98 265/207/98 266/205/97 
f 265/207/98 768/206/98 763/208/99 
f 763/208/99 261/209/99 265/207/98 
f 269/311/195 268/312/195 769/313/195 
f 769/313/195 770/314/195 269/311/195 
f 268/309/196 267/310/196 771/307/196 
f 771/307/196 769/308/196 268/309/196 
f 770/172/197 769/171/197 771/170/197 
f 771/170/197 772/173/197 770/172/197 
f 773/175/197 772/173/197 771/170/197 
f 771/170/197 774/174/197 773/175/197 
f 741/309/95 743/310/95 775/307/95 
f 775/307/95 742/308/95 741/309/95 
f 735/307/28 776/308/28 744/309/28 
f 744/309/28 736/310/28 735/307/28 
f 777/331/116 778/332/117 779/333/118 
f 779/333/118 780/334/118 777/331/116 
f 780/334/118 779/333/118 781/335/211 
f 781/335/211 782/336/211 780/334/118 
f 782/336/211 781/335/211 783/337/212 
f 783/337/212 784/338/212 782/336/211 
f 783/173/45 781/175/45 779/174/45 
f 779/174/45 778/170/50 783/173/45 
f 785/172/50 783/173/45 778/170/50 
f 778/170/50 786/171/50 785/172/50 
f 770/307/199 772/308/199 270/309/199 
f 270/309/199 269/310/199 770/307/199 
f 270/273/200 772/274/200 773/275/201 
f 773/275/201 272/276/201 270/273/200 
f 272/276/201 773/275/201 774/277/202 
f 774/277/202 271/278/202 272/276/201 
f 271/278/202 774/277/202 771/279/203 
f 771/279/203 267/280/203 271/278/202 
f 275/311/217 274/312/217 787/313/217 
f 787/313/217 788/314/9 275/311/217 
f 274/309/28 273/310/28 789/307/28 
f 789/307/28 787/308/28 274/309/28 
f 788/307/4 790/308/4 276/309/4 
f 276/309/4 275/310/4 788/307/4 
f 276/273/73 790/274/73 791/275/112 
f 791/275/112 278/276/112 276/273/73 
f 278/276/112 791/275/112 792/277/113 
f 792/277/113 277/278/168 278/276/112 
f 277/278/168 792/277/113 789/279/114 
f 789/279/114 273/280/115 277/278/168 
f 281/311/217 280/312/217 793/313/217 
f 793/313/217 794/314/9 281/311/217 
f 280/309/28 279/310/28 795/307/28 
f 795/307/28 793/308/28 280/309/28 
f 794/307/4 796/308/4 282/309/4 
f 282/309/4 281/310/4 794/307/4 
f 282/273/73 796/274/73 797/275/112 
f 797/275/112 284/276/112 282/273/73 
f 284/276/112 797/275/112 798/277/113 
f 798/277/113 283/278/168 284/276/112 
f 283/278/168 798/277/113 795/279/114 
f 795/279/114 279/280/115 283/278/168 
f 287/311/236 286/312/236 799/313/236 
f 799/313/236 800/314/236 287/311/236 
f 286/309/237 285/310/237 801/307/237 
f 801/307/237 799/308/237 286/309/237 
f 800/307/238 802/308/238 288/309/238 
f 288/309/238 287/310/238 800/307/238 
f 288/273/239 802/274/239 803/275/240 
f 803/275/240 290/276/240 288/273/239 
f 290/276/240 803/275/240 804/277/241 
f 804/277/241 289/278/242 290/276/240 
f 289/278/242 804/277/241 801/279/243 
f 801/279/243 285/280/244 289/278/242 
f 341/311/245 340/312/245 805/313/245 
f 805/313/245 806/314/245 341/311/245 
f 340/309/5 339/310/5 807/307/5 
f 807/307/5 805/308/5 340/309/5 
f 806/172/246 805/171/246 807/170/246 
f 807/170/246 808/173/246 806/172/246 
f 809/175/246 808/173/246 807/170/246 
f 807/170/246 810/174/246 809/175/246 
f 783/309/95 785/310/95 811/307/95 
f 811/307/95 784/308/95 783/309/95 
f 777/307/28 812/308/28 786/309/28 
f 786/309/28 778/310/28 777/307/28 
f 813/331/247 814/332/248 815/333/249 
f 815/333/249 816/334/249 813/331/247 
f 816/334/249 815/333/249 817/335/250 
f 817/335/250 818/336/250 816/334/249 
f 818/336/250 817/335/250 819/337/251 
f 819/337/251 820/338/251 818/336/250 
f 819/173/49 817/175/49 815/174/49 
f 815/174/49 814/170/50 819/173/49 
f 821/172/50 819/173/49 814/170/50 
f 814/170/50 822/171/50 821/172/50 
f 806/307/6 808/308/6 342/309/6 
f 342/309/6 341/310/6 806/307/6 
f 342/273/252 808/274/252 809/275/253 
f 809/275/253 344/276/253 342/273/252 
f 344/276/253 809/275/253 810/277/254 
f 810/277/254 343/278/254 344/276/253 
f 343/278/254 810/277/254 807/279/255 
f 807/279/255 339/280/255 343/278/254 
f 293/311/256 292/312/256 823/313/256 
f 823/313/256 824/314/256 293/311/256 
f 292/309/5 291/310/5 825/307/5 
f 825/307/5 823/308/5 292/309/5 
f 824/172/257 823/171/257 825/170/257 
f 825/170/257 826/173/257 824/172/257 
f 827/175/257 826/173/257 825/170/257 
f 825/170/257 828/174/257 827/175/257 
f 819/309/258 821/310/258 829/307/258 
f 829/307/258 820/308/258 819/309/258 
f 813/307/259 830/308/259 822/309/259 
f 822/309/259 814/310/259 813/307/259 
f 831/331/117 832/332/117 833/333/118 
f 833/333/118 834/334/118 831/331/117 
f 834/334/118 833/333/118 835/335/211 
f 835/335/211 836/336/211 834/334/118 
f 836/336/211 835/335/211 837/337/212 
f 837/337/212 838/338/212 836/336/211 
f 837/173/45 835/175/45 833/174/45 
f 833/174/45 832/170/50 837/173/45 
f 839/172/50 837/173/45 832/170/50 
f 832/170/50 840/171/50 839/172/50 
f 294/273/260 826/274/260 827/275/261 
f 827/275/261 296/276/261 294/273/260 
f 296/276/261 827/275/261 828/277/262 
f 828/277/262 295/278/262 296/276/261 
f 295/278/262 828/277/262 825/279/263 
f 825/279/263 291/280/263 295/278/262 
f 299/311/264 298/312/264 841/313/264 
f 841/313/264 842/314/264 299/311/264 
f 298/309/265 297/310/265 843/307/265 
f 843/307/265 841/308/265 298/309/265 
f 842/172/266 841/171/266 843/170/266 
f 843/170/266 844/173/266 842/172/266 
f 845/175/266 844/173/266 843/170/266 
f 843/170/266 846/174/266 845/175/266 
f 837/309/95 839/310/95 847/307/95 
f 847/307/95 838/308/95 837/309/95 
f 831/307/229 848/308/28 840/309/229 
f 840/309/229 832/310/229 831/307/229 
f 849/331/116 850/332/117 851/333/118 
f 851/333/118 852/334/118 849/331/116 
f 852/334/118 851/333/118 853/335/211 
f 853/335/211 854/336/211 852/334/118 
f 854/336/211 853/335/211 855/337/212 
f 855/337/212 856/338/212 854/336/211 
f 855/173/45 853/175/45 851/174/45 
f 851/174/45 850/170/50 855/173/45 
f 857/172/50 855/173/45 850/170/50 
f 850/170/50 858/171/50 857/172/50 
f 842/307/267 844/308/267 300/309/267 
f 300/309/267 299/310/267 842/307/267 
f 300/273/268 844/274/268 845/275/269 
f 845/275/269 302/276/269 300/273/268 
f 302/276/269 845/275/269 846/277/270 
f 846/277/270 301/278/270 302/276/269 
f 301/278/270 846/277/270 843/279/271 
f 843/279/271 297/280/271 301/278/270 
f 305/311/217 304/312/217 859/313/217 
f 859/313/217 860/314/9 305/311/217 
f 304/309/28 303/310/28 861/307/28 
f 861/307/28 859/308/28 304/309/28 
f 860/307/4 862/308/4 306/309/4 
f 306/309/4 305/310/4 860/307/4 
f 306/273/73 862/274/73 863/275/112 
f 863/275/112 308/276/112 306/273/73 
f 308/276/112 863/275/112 864/277/113 
f 864/277/113 307/278/168 308/276/112 
f 307/278/168 864/277/113 861/279/114 
f 861/279/114 303/280/115 307/278/168 
f 311/311/272 310/312/272 865/313/272 
f 865/313/272 866/314/272 311/311/272 
f 310/309/5 309/310/5 867/307/5 
f 867/307/5 865/308/5 310/309/5 
f 866/172/63 865/171/63 867/170/63 
f 867/170/63 868/173/63 866/172/63 
f 869/175/63 868/173/63 867/170/63 
f 867/170/63 870/174/63 869/175/63 
f 855/309/95 857/310/95 871/307/95 
f 871/307/95 856/308/95 855/309/95 
f 849/307/28 872/308/28 858/309/28 
f 858/309/28 850/310/28 849/307/28 
f 873/331/116 874/332/117 875/333/119 
f 875/333/119 876/334/119 873/331/116 
f 876/334/119 875/333/119 877/335/211 
f 877/335/211 878/336/211 876/334/119 
f 878/336/211 877/335/211 879/337/212 
f 879/337/212 880/338/212 878/336/211 
f 879/173/45 877/175/45 875/174/45 
f 875/174/45 874/170/50 879/173/45 
f 881/172/50 879/173/45 874/170/50 
f 874/170/50 882/171/50 881/172/50 
f 312/273/273 868/274/273 869/275/274 
f 869/275/274 314/276/274 312/273/273 
f 314/276/274 869/275/274 870/277/275 
f 870/277/275 313/278/275 314/276/274 
f 313/278/275 870/277/275 867/279/276 
f 867/279/276 309/280/276 313/278/275 
f 317/391/277 316/392/277 883/393/277 
f 883/393/277 884/394/277 317/391/277 
f 316/309/5 315/310/5 885/307/5 
f 885/307/5 883/308/5 316/309/5 
f 884/178/278 883/177/278 885/176/278 
f 885/176/278 886/179/278 884/178/278 
f 887/181/278 886/179/278 885/176/278 
f 885/176/278 888/180/278 887/181/278 
f 879/309/95 881/310/95 889/307/95 
f 889/307/95 880/308/95 879/309/95 
f 873/307/28 890/308/28 882/309/28 
f 882/309/28 874/310/28 873/307/28 
f 890/313/217 889/314/217 881/311/217 
f 881/311/217 882/312/9 890/313/217 
f 891/230/114 892/231/115 893/229/113 
f 893/229/113 894/228/113 891/230/114 
f 894/228/113 893/229/113 895/227/112 
f 895/227/112 896/226/112 894/228/113 
f 896/226/112 895/227/112 897/224/73 
f 897/224/73 898/225/73 896/226/112 
f 897/173/5 895/175/5 893/174/5 
f 893/174/5 892/170/5 897/173/5 
f 899/172/5 897/173/5 892/170/5 
f 892/170/5 900/171/5 899/172/5 
f 884/307/6 886/308/6 318/309/6 
f 318/309/6 317/310/6 884/307/6 
f 318/273/279 886/274/279 887/275/280 
f 887/275/280 320/276/280 318/273/279 
f 320/276/280 887/275/280 888/277/281 
f 888/277/281 319/278/281 320/276/280 
f 319/278/281 888/277/281 885/279/282 
f 885/279/282 315/280/282 319/278/281 
f 347/395/283 346/396/283 901/397/283 
f 901/397/283 902/398/283 347/395/283 
f 346/309/45 345/310/45 486/307/45 
f 486/307/45 901/308/45 346/309/45 
f 902/184/174 901/183/174 486/182/174 
f 486/182/174 483/185/174 902/184/174 
f 484/187/174 483/185/174 486/182/174 
f 486/182/174 485/186/174 484/187/174 
f 897/309/4 899/310/4 903/307/4 
f 903/307/4 898/308/4 897/309/4 
f 891/307/28 904/308/28 900/309/28 
f 900/309/28 892/310/28 891/307/28 
f 904/313/217 903/314/9 899/311/217 
f 899/311/217 900/312/217 904/313/217 
f 905/315/171 906/316/171 907/317/172 
f 907/317/172 908/318/172 905/315/171 
f 908/318/172 907/317/172 909/319/173 
f 909/319/173 910/320/173 908/318/172 
f 910/320/173 909/319/173 911/321/174 
f 911/321/174 912/322/174 910/320/173 
f 911/173/5 909/175/5 907/174/5 
f 907/174/5 906/170/5 911/173/5 
f 913/172/5 911/173/5 906/170/5 
f 906/170/5 914/171/5 913/172/5 
f 902/307/169 483/308/169 348/309/169 
f 348/309/169 347/310/169 902/307/169 
f 459/399/284 458/400/284 464/401/284 
f 464/401/284 463/402/284 459/399/284 
f 458/309/45 457/310/45 465/307/45 
f 465/307/45 464/308/45 458/309/45 
f 463/307/6 466/308/6 460/309/6 
f 460/309/6 459/310/6 463/307/6 
f 460/273/285 466/274/285 467/275/286 
f 467/275/286 462/276/286 460/273/285 
f 462/276/286 467/275/286 468/277/287 
f 468/277/287 461/278/287 462/276/286 
f 461/278/287 468/277/287 465/279/288 
f 465/279/288 457/280/288 461/278/287 
f 323/311/61 322/312/61 915/313/61 
f 915/313/61 916/314/61 323/311/61 
f 322/347/49 321/348/49 917/349/49 
f 917/349/49 915/350/49 322/347/49 
f 916/172/183 915/171/183 917/170/183 
f 917/170/183 918/173/183 916/172/183 
f 919/175/183 918/173/183 917/170/183 
f 917/170/183 920/174/183 919/175/183 
f 911/309/63 913/310/63 921/307/63 
f 921/307/63 912/308/63 911/309/63 
f 905/307/69 922/308/68 914/309/69 
f 914/309/69 906/310/69 905/307/69 
f 922/313/224 921/314/224 913/311/224 
f 913/311/224 914/312/224 922/313/224 
f 923/230/114 924/231/115 925/229/113 
f 925/229/113 926/228/113 923/230/114 
f 926/228/113 925/229/113 927/227/112 
f 927/227/112 928/226/112 926/228/113 
f 928/226/112 927/227/112 929/224/73 
f 929/224/73 930/225/73 928/226/112 
f 929/173/5 927/175/5 925/174/5 
f 925/174/5 924/170/5 929/173/5 
f 931/172/5 929/173/5 924/170/5 
f 924/170/5 932/171/5 931/172/5 
f 916/350/6 918/349/6 324/348/6 
f 324/348/6 323/347/6 916/350/6 
f 324/359/289 918/360/289 919/361/290 
f 919/361/290 326/362/290 324/359/289 
f 326/362/290 919/361/290 920/363/291 
f 920/363/291 325/364/291 326/362/290 
f 325/364/291 920/363/291 917/365/292 
f 917/365/292 321/366/293 325/364/291 
f 329/311/294 328/312/294 933/313/294 
f 933/313/294 934/314/295 329/311/294 
f 328/309/296 327/310/297 935/307/296 
f 935/307/296 933/308/296 328/309/296 
f 934/307/298 936/308/298 330/309/298 
f 330/309/298 329/310/298 934/307/298 
f 330/273/299 936/274/299 937/275/300 
f 937/275/300 332/276/301 330/273/299 
f 332/276/301 937/275/300 938/277/302 
f 938/277/302 331/278/302 332/276/301 
f 331/278/302 938/277/302 935/279/303 
f 935/279/303 327/280/304 331/278/302 
f 939/307/305 940/308/305 941/309/305 
f 941/309/305 942/310/305 939/307/305 
f 939/170/306 943/174/306 944/175/306 
f 944/175/306 945/173/306 939/170/306 
f 939/170/306 945/173/306 946/172/306 
f 946/172/306 940/171/306 939/170/306 
f 947/309/307 948/310/307 946/307/307 
f 946/307/307 945/308/307 947/309/307 
f 947/173/308 949/175/308 950/174/308 
f 950/174/308 942/170/308 947/173/308 
f 948/172/308 947/173/308 942/170/308 
f 942/170/308 941/171/308 948/172/308 
f 929/309/4 931/310/4 951/307/4 
f 951/307/4 930/308/4 929/309/4 
f 923/307/28 952/308/28 932/309/28 
f 932/309/28 924/310/28 923/307/28 
f 953/230/114 954/231/115 955/229/113 
f 955/229/113 956/228/113 953/230/114 
f 956/228/113 955/229/113 957/227/112 
f 957/227/112 958/226/112 956/228/113 
f 958/226/112 957/227/112 959/224/73 
f 959/224/73 960/225/73 958/226/112 
f 959/173/5 957/175/5 955/174/5 
f 955/174/5 954/170/5 959/173/5 
f 961/172/5 959/173/5 954/170/5 
f 954/170/5 962/171/5 961/172/5 
f 939/232/309 942/233/309 950/234/310 
f 950/234/310 943/235/310 939/232/309 
f 943/235/310 950/234/310 949/236/311 
f 949/236/311 944/237/311 943/235/310 
f 944/237/311 949/236/311 947/238/312 
f 947/238/312 945/239/313 944/237/311 
f 963/307/314 964/308/314 965/309/314 
f 965/309/314 966/310/314 963/307/314 
f 963/170/315 967/174/316 968/175/315 
f 968/175/315 969/173/315 963/170/315 
f 963/170/315 969/173/315 970/172/316 
f 970/172/316 964/171/316 963/170/315 
f 971/309/317 972/310/317 970/307/317 
f 970/307/317 969/308/317 971/309/317 
f 971/173/318 973/175/318 974/174/318 
f 974/174/318 966/170/319 971/173/318 
f 972/172/318 971/173/318 966/170/319 
f 966/170/319 965/171/318 972/172/318 
f 959/309/4 961/310/4 975/307/4 
f 975/307/4 960/308/4 959/309/4 
f 953/307/28 976/308/28 962/309/28 
f 962/309/28 954/310/28 953/307/28 
f 351/309/4 355/310/4 977/307/4 
f 977/307/4 421/308/4 351/309/4 
f 424/307/28 978/308/28 356/309/28 
f 356/309/28 354/310/28 424/307/28 
f 431/309/4 433/310/4 979/307/4 
f 979/307/4 432/308/4 431/309/4 
f 425/307/28 980/308/28 434/309/28 
f 434/309/28 426/310/28 425/307/28 
f 981/403/176 982/404/176 983/405/177 
f 983/405/177 984/406/177 981/403/176 
f 984/406/177 983/405/177 985/407/178 
f 985/407/178 986/408/178 984/406/177 
f 986/408/178 985/407/178 987/409/179 
f 987/409/179 988/410/179 986/408/178 
f 987/173/5 985/175/5 983/174/5 
f 983/174/5 982/170/5 987/173/5 
f 989/172/5 987/173/5 982/170/5 
f 982/170/5 990/171/5 989/172/5 
f 963/403/320 966/404/320 974/405/321 
f 974/405/321 967/406/321 963/403/320 
f 967/406/321 974/405/321 973/407/322 
f 973/407/322 968/408/322 967/406/321 
f 968/408/322 973/407/322 971/409/323 
f 971/409/323 969/410/323 968/408/322 
f 981/307/28 991/308/28 990/309/28 
f 990/309/28 982/310/28 981/307/28 
f 987/309/4 989/310/4 992/307/4 
f 992/307/4 988/308/4 987/309/4 
# 0 polygons - 1334 triangles