# Blender v2.79 (sub 0) OBJ File: ''
# www.blender.org
mtllib bread3.mtl
o breadHalf.001_Circle.002
v 0.029807 -0.009409 -0.030840
v -0.020593 -0.009409 0.094757
v -0.054131 -0.009409 0.088455
v -0.002064 -0.009409 -0.040448
v -0.084893 -0.009409 0.073687
v -0.034514 -0.009409 -0.051868
v -0.110793 -0.009409 0.051488
v -0.065483 -0.009409 -0.062931
v -0.130289 -0.009409 0.024256
v -0.093079 -0.009409 -0.070965
v -0.142439 -0.009408 -0.004634
v -0.115843 -0.009408 -0.073380
v -0.146814 -0.009408 -0.031647
v -0.132895 -0.009408 -0.067832
v -0.143477 -0.009408 -0.053525
v 0.058822 -0.009409 -0.022409
v 0.013425 -0.009409 0.092193
v 0.082708 -0.009408 -0.013650
v 0.045381 -0.009409 0.081821
v 0.099353 -0.009408 -0.002978
v 0.072711 -0.009408 0.065868
v 0.107072 -0.009408 0.010802
v 0.093153 -0.009408 0.046987
v 0.104955 -0.009408 0.027883
v -0.147120 0.021216 -0.005032
v -0.151668 0.021216 -0.033110
v 0.086906 0.021216 -0.014404
v 0.104208 0.021217 -0.003310
v -0.114226 0.021216 0.053303
v -0.134491 0.021216 0.024998
v 0.031918 0.021216 -0.032272
v 0.062077 0.021216 -0.023508
v 0.014891 0.021216 0.095613
v -0.020469 0.021216 0.098278
v -0.055329 0.021216 0.091727
v -0.087305 0.021216 0.076377
v -0.034938 0.021216 -0.054129
v -0.001209 0.021216 -0.042259
v 0.076515 0.021216 0.068250
v 0.048107 0.021216 0.084833
v -0.095814 0.021216 -0.073979
v -0.067129 0.021216 -0.065627
v 0.110031 0.021217 0.028767
v 0.097764 0.021216 0.048625
v -0.137200 0.021217 -0.070723
v -0.119475 0.021217 -0.076490
v 0.112232 0.021217 0.011013
v -0.148199 0.021217 -0.055852
vt 0.499245 0.010323
vt 0.513194 0.219800
vt 0.565689 0.226629
vt 0.550871 0.011475
vt 0.618162 0.219639
vt 0.604222 0.010234
vt 0.667034 0.199350
vt 0.655218 0.008807
vt 0.708882 0.168559
vt 0.699783 0.010225
vt 0.740693 0.131790
vt 0.734518 0.017607
vt 0.760134 0.094052
vt 0.757001 0.033990
vt 0.765730 0.060179
vt 0.452397 0.008809
vt 0.464253 0.199662
vt 0.412955 0.010242
vt 0.422108 0.169001
vt 0.383274 0.017980
vt 0.389469 0.132331
vt 0.365263 0.034593
vt 0.368396 0.094656
vt 0.360174 0.060803
vt 0.518910 0.642581
vt 0.511363 0.689652
vt 0.554012 0.700078
vt 0.562041 0.652101
vt 0.111837 0.590769
vt 0.112227 0.532977
vt 0.074233 0.528500
vt 0.073721 0.586310
vt 0.415529 0.625019
vt 0.411407 0.671068
vt 0.462977 0.679299
vt 0.469152 0.632798
vt 0.220142 0.599900
vt 0.220327 0.541932
vt 0.161406 0.537912
vt 0.161214 0.595823
vt 0.197433 0.626577
vt 0.202321 0.672421
vt 0.254572 0.666900
vt 0.251918 0.621462
vt 0.306275 0.620048
vt 0.306741 0.664944
vt 0.358984 0.666185
vt 0.360756 0.620635
vt 0.352199 0.601970
vt 0.353070 0.543888
vt 0.285556 0.544019
vt 0.285068 0.601832
vt 0.094294 0.645290
vt 0.102263 0.692043
vt 0.150832 0.681195
vt 0.144058 0.634965
vt 0.472570 0.595556
vt 0.473639 0.537491
vt 0.417575 0.541455
vt 0.416520 0.599573
vt 0.015876 0.663121
vt 0.023927 0.711943
vt 0.059228 0.702976
vt 0.050918 0.655386
vt 0.551659 0.589076
vt 0.553055 0.530522
vt 0.518051 0.533409
vt 0.516924 0.591503
vt 0.043619 0.525452
vt 0.043155 0.583788
vt 0.589216 0.708539
vt 0.597046 0.659194
vt 0.009352 0.523782
vt 0.009884 0.583812
vt 0.586471 0.589301
vt 0.588228 0.529287
vt 0.385253 0.017679
vt 0.391392 0.130995
vt 0.370509 0.093660
vt 0.367405 0.034141
vt 0.414666 0.010011
vt 0.423735 0.167333
vt 0.453751 0.008591
vt 0.465500 0.197717
vt 0.500175 0.010092
vt 0.513998 0.217673
vt 0.764250 0.059496
vt 0.758704 0.093063
vt 0.755600 0.033544
vt 0.739439 0.130459
vt 0.733320 0.017310
vt 0.707915 0.166896
vt 0.698899 0.009995
vt 0.666446 0.197407
vt 0.654736 0.008590
vt 0.618015 0.217513
vt 0.604202 0.010003
vt 0.566017 0.224440
vt 0.551334 0.011233
vt 0.362361 0.060114
vn 0.1939 -0.7306 -0.6547
vn -0.0389 -0.7197 0.6932
vn -0.2161 -0.7193 0.6602
vn 0.2107 -0.7346 -0.6449
vn -0.3781 -0.7204 0.5814
vn 0.2283 -0.7302 -0.6440
vn -0.5071 -0.7244 0.4670
vn 0.2135 -0.7240 -0.6560
vn -0.5963 -0.7292 0.3359
vn 0.1391 -0.7156 -0.6845
vn -0.6544 -0.7317 0.1906
vn -0.0639 -0.7035 -0.7079
vn -0.6839 -0.7296 0.0065
vn -0.4095 -0.7019 -0.5828
vn -0.6429 -0.7182 -0.2661
vn 0.2142 -0.7230 -0.6568
vn 0.1322 -0.7233 0.6777
vn 0.3071 -0.7127 -0.6307
vn 0.2784 -0.7282 0.6263
vn 0.5117 -0.7003 -0.4977
vn 0.4036 -0.7313 0.5497
vn 0.6971 -0.7026 -0.1426
vn 0.5248 -0.7307 0.4366
vn 0.6525 -0.7213 0.2324
vn -0.7489 0.6280 0.2116
vn -0.7889 0.6145 -0.0000
vn 0.3422 0.6524 -0.6762
vn 0.5850 0.6096 -0.5349
vn -0.5705 0.6355 0.5203
vn -0.6762 0.6340 0.3752
vn 0.2066 0.6852 -0.6985
vn 0.2314 0.6750 -0.7005
vn 0.1504 0.6372 0.7559
vn -0.0420 0.6364 0.7702
vn -0.2404 0.6366 0.7328
vn -0.4228 0.6356 0.6459
vn 0.2437 0.6844 -0.6872
vn 0.2248 0.6892 -0.6888
vn 0.4628 0.6328 0.6208
vn 0.3170 0.6370 0.7027
vn 0.1411 0.6583 -0.7394
vn 0.2260 0.6761 -0.7013
vn 0.7558 0.5997 0.2629
vn 0.6067 0.6217 0.4953
vn -0.4814 0.5843 -0.6533
vn -0.0926 0.6200 -0.7792
vn 0.7997 0.5812 -0.1507
vn -0.7435 0.5922 -0.3106
usemtl bread01
s 1
f 1/1/1 2/2/2 3/3/3 4/4/4
f 5/5/5 6/6/6 4/4/4 3/3/3
f 7/7/7 8/8/8 6/6/6 5/5/5
f 9/9/9 10/10/10 8/8/8 7/7/7
f 11/11/11 12/12/12 10/10/10 9/9/9
f 13/13/13 14/14/14 12/12/12 11/11/11
f 15/15/15 14/14/14 13/13/13
f 16/16/16 17/17/17 2/2/2 1/1/1
f 18/18/18 19/19/19 17/17/17 16/16/16
f 20/20/20 21/21/21 19/19/19 18/18/18
f 22/22/22 23/23/23 21/21/21 20/20/20
f 24/24/24 23/23/23 22/22/22
f 11/25/11 25/26/25 26/27/26 13/28/13
f 18/29/18 27/30/27 28/31/28 20/32/20
f 7/33/7 29/34/29 30/35/30 9/36/9
f 1/37/1 31/38/31 32/39/32 16/40/16
f 17/41/17 33/42/33 34/43/34 2/44/2
f 3/45/3 35/46/35 36/47/36 5/48/5
f 6/49/6 37/50/37 38/51/38 4/52/4
f 21/53/21 39/54/39 40/55/40 19/56/19
f 10/57/10 41/58/41 42/59/42 8/60/8
f 24/61/24 43/62/43 44/63/44 23/64/23
f 14/65/14 45/66/45 46/67/46 12/68/12
f 20/32/20 28/31/28 47/69/47 22/70/22
f 13/28/13 26/27/26 48/71/48 15/72/15
f 9/36/9 30/35/30 25/26/25 11/25/11
f 16/40/16 32/39/32 27/30/27 18/29/18
f 2/44/2 34/43/34 35/46/35 3/45/3
f 5/48/5 36/47/36 29/34/29 7/33/7
f 4/52/4 38/51/38 31/38/31 1/37/1
f 19/56/19 40/55/40 33/42/33 17/41/17
f 8/60/8 42/59/42 37/50/37 6/49/6
f 23/64/23 44/63/44 39/54/39 21/53/21
f 12/68/12 46/67/46 41/58/41 10/57/10
f 22/70/22 47/69/47 43/73/43 24/74/24
f 15/75/15 48/76/48 45/66/45 14/65/14
f 28/77/28 39/78/39 44/79/44 47/80/47
f 27/81/27 40/82/40 39/78/39 28/77/28
f 32/83/32 33/84/33 40/82/40 27/81/27
f 31/85/31 34/86/34 33/84/33 32/83/32
f 48/87/48 26/88/26 45/89/45
f 25/90/25 46/91/46 45/89/45 26/88/26
f 30/92/30 41/93/41 46/91/46 25/90/25
f 29/94/29 42/95/42 41/93/41 30/92/30
f 36/96/36 37/97/37 42/95/42 29/94/29
f 35/98/35 38/99/38 37/97/37 36/96/36
f 34/86/34 31/85/31 38/99/38 35/98/35
f 43/100/43 47/80/47 44/79/44
