# Exported from Wings 3D 1.5.3
mtllib TIEBase1.mtl
o TIEBase.obj
#48 vertices, 92 faces
v 3.50000000 0.0000000e+0 0.0000000e+0
v 3.38074000 0.0000000e+0 -0.90586700
v 3.03109000 0.0000000e+0 -1.75000000
v 2.47487000 0.0000000e+0 -2.47487000
v 1.75000000 0.0000000e+0 -3.03109000
v 0.90586700 0.0000000e+0 -3.38074000
v 0.0000000e+0 0.0000000e+0 -3.50000000
v -0.90586700 0.0000000e+0 -3.38074000
v -1.75000000 0.0000000e+0 -3.03109000
v -2.47487000 0.0000000e+0 -2.47487000
v -3.03109000 0.0000000e+0 -1.75000000
v -3.38074000 0.0000000e+0 -0.90586700
v -3.50000000 0.0000000e+0 0.0000000e+0
v -3.38074000 0.0000000e+0 0.90586700
v -3.03109000 0.0000000e+0 1.75000000
v -2.47487000 0.0000000e+0 2.47487000
v -1.75000000 0.0000000e+0 3.03109000
v -0.90586700 0.0000000e+0 3.38074000
v 0.0000000e+0 0.0000000e+0 3.50000000
v 0.90586700 0.0000000e+0 3.38074000
v 1.75000000 0.0000000e+0 3.03109000
v 2.47487000 0.0000000e+0 2.47487000
v 3.03109000 0.0000000e+0 1.75000000
v 3.38074000 0.0000000e+0 0.90586700
v 3.50000000 0.25000000 0.0000000e+0
v 3.38074000 0.25000000 -0.90586700
v 3.03109000 0.25000000 -1.75000000
v 2.47487000 0.25000000 -2.47487000
v 1.75000000 0.25000000 -3.03109000
v 0.90586700 0.25000000 -3.38074000
v 0.0000000e+0 0.25000000 -3.50000000
v -0.90586700 0.25000000 -3.38074000
v -1.75000000 0.25000000 -3.03109000
v -2.47487000 0.25000000 -2.47487000
v -3.03109000 0.25000000 -1.75000000
v -3.38074000 0.25000000 -0.90586700
v -3.50000000 0.25000000 0.0000000e+0
v -3.38074000 0.25000000 0.90586700
v -3.03109000 0.25000000 1.75000000
v -2.47487000 0.25000000 2.47487000
v -1.75000000 0.25000000 3.03109000
v -0.90586700 0.25000000 3.38074000
v 0.0000000e+0 0.25000000 3.50000000
v 0.90586700 0.25000000 3.38074000
v 1.75000000 0.25000000 3.03109000
v 2.47487000 0.25000000 2.47487000
v 3.03109000 0.25000000 1.75000000
v 3.38074000 0.25000000 0.90586700
vt 3.9061500e-2 1.5183300e-2
vt 3.9061500e-2 3.3516700e-2
vt 3.9061500e-2 3.7183300e-2
vt 3.9061500e-2 5.5516700e-2
vt 3.9061500e-2 5.9183300e-2
vt 3.9061500e-2 7.7516700e-2
vt 3.9061500e-2 8.1183300e-2
vt 3.9061500e-2 9.9516700e-2
vt 4.7606000e-2 0.73120800
vt 4.9589100e-2 0.70581800
vt 4.9589100e-2 0.75659800
vt 5.5403300e-2 0.68215800
vt 5.5403300e-2 0.78025800
vt 6.4652400e-2 0.66184100
vt 6.4652400e-2 0.80057500
vt 7.6706000e-2 0.64625100
vt 7.6706000e-2 0.81616500
vt 9.0742700e-2 0.63645100
vt 9.0742700e-2 0.82596500
vt 0.10580600 0.63310800
vt 0.10580600 0.82930800
vt 0.12086900 0.63645100
vt 0.12086900 0.82596500
vt 0.13490600 0.64625100
vt 0.13490600 0.81616500
vt 0.14696000 0.66184100
vt 0.14696000 0.80057500
vt 0.15620900 0.68215800
vt 0.15620900 0.78025800
vt 0.16202300 0.70581800
vt 0.16202300 0.75659800
vt 0.16400600 0.73120800
vt 0.17424300 1.5183300e-2
vt 0.17424300 3.3516700e-2
vt 0.17424300 3.7183300e-2
vt 0.17424300 5.5516700e-2
vt 0.17424300 5.9183300e-2
vt 0.17424300 7.7516700e-2
vt 0.17424300 8.1183300e-2
vt 0.17424300 9.9516700e-2
vt 0.33166500 1.5183300e-2
vt 0.33166500 3.3516700e-2
vt 0.33166500 3.7183300e-2
vt 0.33166500 5.5516700e-2
vt 0.33166500 5.9183300e-2
vt 0.33166500 7.7516700e-2
vt 0.33166500 8.1183300e-2
vt 0.33166500 9.9516700e-2
vt 0.50060000 1.5183300e-2
vt 0.50060000 3.3516700e-2
vt 0.50060000 3.7183300e-2
vt 0.50060000 5.5516700e-2
vt 0.50060000 5.9183300e-2
vt 0.50060000 7.7516700e-2
vt 0.50060000 8.1183300e-2
vt 0.50060000 9.9516700e-2
vt 0.52586200 0.60000000
vt 0.53392000 0.49697700
vt 0.53392000 0.70302300
vt 0.55754600 0.40097600
vt 0.55754600 0.79902400
vt 0.59512800 0.31853700
vt 0.59512800 0.88146300
vt 0.64410600 0.25528000
vt 0.64410600 0.94472000
vt 0.66953500 1.5183300e-2
vt 0.66953500 3.3516700e-2
vt 0.66953500 3.7183300e-2
vt 0.66953500 5.5516700e-2
vt 0.66953500 5.9183300e-2
vt 0.66953500 7.7516700e-2
vt 0.66953500 8.1183300e-2
vt 0.66953500 9.9516700e-2
vt 0.70114200 0.21551400
vt 0.70114200 0.98448600
vt 0.76235000 0.20195100
vt 0.76235000 0.99804900
vt 0.82355700 0.21551400
vt 0.82355700 0.98448600
vt 0.82695700 1.5183300e-2
vt 0.82695700 3.3516700e-2
vt 0.82695700 3.7183300e-2
vt 0.82695700 5.5516700e-2
vt 0.82695700 5.9183300e-2
vt 0.82695700 7.7516700e-2
vt 0.82695700 8.1183300e-2
vt 0.82695700 9.9516700e-2
vt 0.88059400 0.25528000
vt 0.88059400 0.94472000
vt 0.92957200 0.31853700
vt 0.92957200 0.88146300
vt 0.96213800 1.5183300e-2
vt 0.96213800 3.3516700e-2
vt 0.96213800 3.7183300e-2
vt 0.96213800 5.5516700e-2
vt 0.96213800 5.9183300e-2
vt 0.96213800 7.7516700e-2
vt 0.96213800 8.1183300e-2
vt 0.96213800 9.9516700e-2
vt 0.96715400 0.40097600
vt 0.96715400 0.79902400
vt 0.99078000 0.49697700
vt 0.99078000 0.70302300
vt 0.99883800 0.60000000
vn 0.0000000e+0 -1.00000000 0.0000000e+0
vn 0.0000000e+0 -1.00000000 0.0000000e+0
vn 0.99144481 0.0000000e+0 -0.13052657
vn 0.99144481 0.0000000e+0 0.13052657
vn 0.99144481 0.0000000e+0 0.13052657
vn 0.0000000e+0 -1.00000000 0.0000000e+0
vn 0.0000000e+0 -1.00000000 0.0000000e+0
vn 0.99144481 0.0000000e+0 -0.13052657
vn 0.99144481 0.0000000e+0 -0.13052657
vn 0.92388005 0.0000000e+0 -0.38268218
vn 0.0000000e+0 -1.00000000 0.0000000e+0
vn 0.0000000e+0 -1.00000000 0.0000000e+0
vn 0.92388005 0.0000000e+0 -0.38268218
vn 0.92388005 0.0000000e+0 -0.38268218
vn 0.79334928 0.0000000e+0 -0.60876672
vn 0.0000000e+0 -1.00000000 0.0000000e+0
vn 0.79334928 0.0000000e+0 -0.60876672
vn 0.79334928 0.0000000e+0 -0.60876672
vn 0.60876672 0.0000000e+0 -0.79334928
vn 0.0000000e+0 -1.00000000 0.0000000e+0
vn 0.0000000e+0 -1.00000000 0.0000000e+0
vn 0.0000000e+0 -1.00000000 0.0000000e+0
vn 0.0000000e+0 -1.00000000 0.0000000e+0
vn 0.0000000e+0 -1.00000000 0.0000000e+0
vn 0.0000000e+0 -1.00000000 0.0000000e+0
vn 0.60876672 0.0000000e+0 -0.79334928
vn 0.60876672 0.0000000e+0 -0.79334928
vn 0.38268218 0.0000000e+0 -0.92388005
vn 0.0000000e+0 -1.00000000 0.0000000e+0
vn 0.0000000e+0 -1.00000000 0.0000000e+0
vn 0.38268218 0.0000000e+0 -0.92388005
vn 0.38268218 0.0000000e+0 -0.92388005
vn 0.13052657 0.0000000e+0 -0.99144481
vn 0.0000000e+0 -1.00000000 0.0000000e+0
vn 0.0000000e+0 -1.00000000 0.0000000e+0
vn 0.13052657 0.0000000e+0 -0.99144481
vn 0.13052657 0.0000000e+0 -0.99144481
vn -0.13052657 0.0000000e+0 -0.99144481
vn -0.13052657 0.0000000e+0 -0.99144481
vn 0.0000000e+0 -1.00000000 0.0000000e+0
vn 0.0000000e+0 -1.00000000 0.0000000e+0
vn -0.13052657 0.0000000e+0 -0.99144481
vn -0.38268218 0.0000000e+0 -0.92388005
vn -0.38268218 0.0000000e+0 -0.92388005
vn 0.0000000e+0 -1.00000000 0.0000000e+0
vn 0.0000000e+0 -1.00000000 0.0000000e+0
vn -0.38268218 0.0000000e+0 -0.92388005
vn -0.60876672 0.0000000e+0 -0.79334928
vn -0.60876672 0.0000000e+0 -0.79334928
vn 0.0000000e+0 -1.00000000 0.0000000e+0
vn 0.0000000e+0 -1.00000000 0.0000000e+0
vn -0.60876672 0.0000000e+0 -0.79334928
vn -0.79334928 0.0000000e+0 -0.60876672
vn -0.79334928 0.0000000e+0 -0.60876672
vn 0.0000000e+0 -1.00000000 0.0000000e+0
vn 0.0000000e+0 -1.00000000 0.0000000e+0
vn -0.79334928 0.0000000e+0 -0.60876672
vn -0.92388005 0.0000000e+0 -0.38268218
vn -0.92388005 0.0000000e+0 -0.38268218
vn 0.0000000e+0 -1.00000000 0.0000000e+0
vn 0.0000000e+0 -1.00000000 0.0000000e+0
vn 0.0000000e+0 -1.00000000 0.0000000e+0
vn -0.92388005 0.0000000e+0 -0.38268218
vn -0.99144481 0.0000000e+0 -0.13052657
vn -0.99144481 0.0000000e+0 -0.13052657
vn 0.0000000e+0 -1.00000000 0.0000000e+0
vn 0.0000000e+0 -1.00000000 0.0000000e+0
vn -0.99144481 0.0000000e+0 -0.13052657
vn -0.99144481 0.0000000e+0 0.13052657
vn -0.99144481 0.0000000e+0 0.13052657
vn 0.0000000e+0 -1.00000000 0.0000000e+0
vn 0.0000000e+0 -1.00000000 0.0000000e+0
vn -0.99144481 0.0000000e+0 0.13052657
vn -0.92388005 0.0000000e+0 0.38268218
vn -0.92388005 0.0000000e+0 0.38268218
vn 0.0000000e+0 -1.00000000 0.0000000e+0
vn 0.0000000e+0 -1.00000000 0.0000000e+0
vn -0.92388005 0.0000000e+0 0.38268218
vn -0.79334928 0.0000000e+0 0.60876672
vn -0.79334928 0.0000000e+0 0.60876672
vn 0.0000000e+0 -1.00000000 0.0000000e+0
vn 0.0000000e+0 -1.00000000 0.0000000e+0
vn -0.79334928 0.0000000e+0 0.60876672
vn -0.60876672 0.0000000e+0 0.79334928
vn -0.60876672 0.0000000e+0 0.79334928
vn 0.0000000e+0 -1.00000000 0.0000000e+0
vn 0.0000000e+0 -1.00000000 0.0000000e+0
vn -0.60876672 0.0000000e+0 0.79334928
vn -0.38268218 0.0000000e+0 0.92388005
vn -0.38268218 0.0000000e+0 0.92388005
vn 0.0000000e+0 -1.00000000 0.0000000e+0
vn 0.0000000e+0 -1.00000000 0.0000000e+0
vn 0.0000000e+0 -1.00000000 0.0000000e+0
vn -0.38268218 0.0000000e+0 0.92388005
vn -0.13052657 0.0000000e+0 0.99144481
vn -0.13052657 0.0000000e+0 0.99144481
vn 0.0000000e+0 -1.00000000 0.0000000e+0
vn 0.0000000e+0 -1.00000000 0.0000000e+0
vn -0.13052657 0.0000000e+0 0.99144481
vn 0.13052657 0.0000000e+0 0.99144481
vn 0.0000000e+0 -1.00000000 0.0000000e+0
vn 0.13052657 0.0000000e+0 0.99144481
vn 0.13052657 0.0000000e+0 0.99144481
vn 0.38268218 0.0000000e+0 0.92388005
vn 0.0000000e+0 -1.00000000 0.0000000e+0
vn 0.0000000e+0 -1.00000000 0.0000000e+0
vn 0.0000000e+0 -1.00000000 0.0000000e+0
vn 0.38268218 0.0000000e+0 0.92388005
vn 0.38268218 0.0000000e+0 0.92388005
vn 0.60876672 0.0000000e+0 0.79334928
vn 0.0000000e+0 -1.00000000 0.0000000e+0
vn 0.0000000e+0 -1.00000000 0.0000000e+0
vn 0.0000000e+0 -1.00000000 0.0000000e+0
vn 0.0000000e+0 -1.00000000 0.0000000e+0
vn 0.0000000e+0 -1.00000000 0.0000000e+0
vn 0.0000000e+0 -1.00000000 0.0000000e+0
vn 0.0000000e+0 -1.00000000 0.0000000e+0
vn 0.0000000e+0 -1.00000000 0.0000000e+0
vn 0.60876672 0.0000000e+0 0.79334928
vn 0.60876672 0.0000000e+0 0.79334928
vn 0.79334928 0.0000000e+0 0.60876672
vn 0.0000000e+0 -1.00000000 0.0000000e+0
vn 0.0000000e+0 -1.00000000 0.0000000e+0
vn 0.0000000e+0 -1.00000000 0.0000000e+0
vn 0.0000000e+0 -1.00000000 0.0000000e+0
vn 0.0000000e+0 -1.00000000 0.0000000e+0
vn 0.0000000e+0 -1.00000000 0.0000000e+0
vn 0.0000000e+0 -1.00000000 0.0000000e+0
vn 0.0000000e+0 -1.00000000 0.0000000e+0
vn 0.0000000e+0 -1.00000000 0.0000000e+0
vn 0.79334928 0.0000000e+0 0.60876672
vn 0.79334928 0.0000000e+0 0.60876672
vn 0.92388005 0.0000000e+0 0.38268218
vn 0.0000000e+0 -1.00000000 0.0000000e+0
vn 0.0000000e+0 -1.00000000 0.0000000e+0
vn 0.92388005 0.0000000e+0 0.38268218
vn 0.92388005 0.0000000e+0 0.38268218
vn 0.99144481 0.0000000e+0 0.13052657
vn 0.99144481 0.0000000e+0 -0.13052657
vn 0.99144481 0.0000000e+0 -0.13052657
vn 0.99144481 0.0000000e+0 0.13052657
vn 0.0000000e+0 1.00000000 0.0000000e+0
vn 0.0000000e+0 1.00000000 0.0000000e+0
vn 0.99144481 0.0000000e+0 -0.13052657
vn 0.92388005 0.0000000e+0 -0.38268218
vn 0.92388005 0.0000000e+0 -0.38268218
vn 0.0000000e+0 1.00000000 0.0000000e+0
vn 0.0000000e+0 1.00000000 0.0000000e+0
vn 0.92388005 0.0000000e+0 -0.38268218
vn 0.79334928 0.0000000e+0 -0.60876672
vn 0.79334928 0.0000000e+0 -0.60876672
vn 0.0000000e+0 1.00000000 0.0000000e+0
vn 0.0000000e+0 1.00000000 0.0000000e+0
vn 0.0000000e+0 1.00000000 0.0000000e+0
vn 0.0000000e+0 1.00000000 0.0000000e+0
vn 0.0000000e+0 1.00000000 0.0000000e+0
vn 0.0000000e+0 1.00000000 0.0000000e+0
vn 0.0000000e+0 1.00000000 0.0000000e+0
vn 0.0000000e+0 1.00000000 0.0000000e+0
vn 0.0000000e+0 1.00000000 0.0000000e+0
vn 0.79334928 0.0000000e+0 -0.60876672
vn 0.60876672 0.0000000e+0 -0.79334928
vn 0.60876672 0.0000000e+0 -0.79334928
vn 0.0000000e+0 1.00000000 0.0000000e+0
vn 0.0000000e+0 1.00000000 -7.7806774e-17
vn 0.0000000e+0 1.00000000 0.0000000e+0
vn 0.0000000e+0 1.00000000 0.0000000e+0
vn 0.0000000e+0 1.00000000 0.0000000e+0
vn 0.0000000e+0 1.00000000 0.0000000e+0
vn 0.0000000e+0 1.00000000 0.0000000e+0
vn 0.0000000e+0 1.00000000 0.0000000e+0
vn 0.60876672 0.0000000e+0 -0.79334928
vn 0.38268218 0.0000000e+0 -0.92388005
vn 0.38268218 0.0000000e+0 -0.92388005
vn 0.0000000e+0 1.00000000 0.0000000e+0
vn 0.0000000e+0 1.00000000 1.7525914e-16
vn 0.0000000e+0 1.00000000 0.0000000e+0
vn 0.38268218 0.0000000e+0 -0.92388005
vn 0.13052657 0.0000000e+0 -0.99144481
vn 0.13052657 0.0000000e+0 -0.99144481
vn 0.0000000e+0 1.00000000 0.0000000e+0
vn 0.13052657 0.0000000e+0 -0.99144481
vn -0.13052657 0.0000000e+0 -0.99144481
vn 0.0000000e+0 1.00000000 1.7525914e-16
vn 0.0000000e+0 1.00000000 0.0000000e+0
vn -0.13052657 0.0000000e+0 -0.99144481
vn -0.13052657 0.0000000e+0 -0.99144481
vn -0.38268218 0.0000000e+0 -0.92388005
vn 0.0000000e+0 1.00000000 0.0000000e+0
vn 0.0000000e+0 1.00000000 0.0000000e+0
vn 0.0000000e+0 1.00000000 1.7525914e-16
vn -0.38268218 0.0000000e+0 -0.92388005
vn -0.38268218 0.0000000e+0 -0.92388005
vn -0.60876672 0.0000000e+0 -0.79334928
vn 0.0000000e+0 1.00000000 0.0000000e+0
vn 0.0000000e+0 1.00000000 0.0000000e+0
vn -0.60876672 0.0000000e+0 -0.79334928
vn -0.60876672 0.0000000e+0 -0.79334928
vn -0.79334928 0.0000000e+0 -0.60876672
vn 0.0000000e+0 1.00000000 0.0000000e+0
vn 0.0000000e+0 1.00000000 0.0000000e+0
vn -0.79334928 0.0000000e+0 -0.60876672
vn -0.79334928 0.0000000e+0 -0.60876672
vn -0.92388005 0.0000000e+0 -0.38268218
vn 0.0000000e+0 1.00000000 0.0000000e+0
vn 0.0000000e+0 1.00000000 0.0000000e+0
vn -0.92388005 0.0000000e+0 -0.38268218
vn -0.92388005 0.0000000e+0 -0.38268218
vn -0.99144481 0.0000000e+0 -0.13052657
vn 0.0000000e+0 1.00000000 0.0000000e+0
vn 0.0000000e+0 1.00000000 0.0000000e+0
vn -0.99144481 0.0000000e+0 -0.13052657
vn -0.99144481 0.0000000e+0 -0.13052657
vn -0.99144481 0.0000000e+0 0.13052657
vn 0.0000000e+0 1.00000000 -7.7806774e-17
vn 0.0000000e+0 1.00000000 0.0000000e+0
vn -0.99144481 0.0000000e+0 0.13052657
vn -0.99144481 0.0000000e+0 0.13052657
vn -0.92388005 0.0000000e+0 0.38268218
vn 0.0000000e+0 1.00000000 0.0000000e+0
vn 0.0000000e+0 1.00000000 0.0000000e+0
vn 0.0000000e+0 1.00000000 -7.7806774e-17
vn -0.92388005 0.0000000e+0 0.38268218
vn -0.92388005 0.0000000e+0 0.38268218
vn -0.79334928 0.0000000e+0 0.60876672
vn 0.0000000e+0 1.00000000 0.0000000e+0
vn 0.0000000e+0 1.00000000 0.0000000e+0
vn -0.79334928 0.0000000e+0 0.60876672
vn -0.79334928 0.0000000e+0 0.60876672
vn -0.60876672 0.0000000e+0 0.79334928
vn 0.0000000e+0 1.00000000 0.0000000e+0
vn 0.0000000e+0 1.00000000 0.0000000e+0
vn -0.60876672 0.0000000e+0 0.79334928
vn -0.60876672 0.0000000e+0 0.79334928
vn -0.38268218 0.0000000e+0 0.92388005
vn 0.0000000e+0 1.00000000 0.0000000e+0
vn 0.0000000e+0 1.00000000 0.0000000e+0
vn -0.38268218 0.0000000e+0 0.92388005
vn -0.38268218 0.0000000e+0 0.92388005
vn -0.13052657 0.0000000e+0 0.99144481
vn 0.0000000e+0 1.00000000 0.0000000e+0
vn 0.0000000e+0 1.00000000 0.0000000e+0
vn -0.13052657 0.0000000e+0 0.99144481
vn -0.13052657 0.0000000e+0 0.99144481
vn 0.13052657 0.0000000e+0 0.99144481
vn 0.13052657 0.0000000e+0 0.99144481
vn 0.0000000e+0 1.00000000 0.0000000e+0
vn 0.0000000e+0 1.00000000 0.0000000e+0
vn 0.13052657 0.0000000e+0 0.99144481
vn 0.38268218 0.0000000e+0 0.92388005
vn 0.38268218 0.0000000e+0 0.92388005
vn 0.0000000e+0 1.00000000 0.0000000e+0
vn 0.0000000e+0 1.00000000 0.0000000e+0
vn 0.38268218 0.0000000e+0 0.92388005
vn 0.60876672 0.0000000e+0 0.79334928
vn 0.60876672 0.0000000e+0 0.79334928
vn 0.0000000e+0 1.00000000 0.0000000e+0
vn 0.0000000e+0 1.00000000 0.0000000e+0
vn 0.0000000e+0 1.00000000 0.0000000e+0
vn 0.0000000e+0 1.00000000 0.0000000e+0
vn 0.0000000e+0 1.00000000 0.0000000e+0
vn 0.0000000e+0 1.00000000 0.0000000e+0
vn 0.60876672 0.0000000e+0 0.79334928
vn 0.79334928 0.0000000e+0 0.60876672
vn 0.79334928 0.0000000e+0 0.60876672
vn 0.0000000e+0 1.00000000 0.0000000e+0
vn 0.79334928 0.0000000e+0 0.60876672
vn 0.92388005 0.0000000e+0 0.38268218
vn 0.92388005 0.0000000e+0 0.38268218
vn 0.0000000e+0 1.00000000 0.0000000e+0
vn 0.0000000e+0 1.00000000 0.0000000e+0
vn 0.92388005 0.0000000e+0 0.38268218
vn 0.99144481 0.0000000e+0 0.13052657
vn 0.99144481 0.0000000e+0 0.13052657
vn 0.0000000e+0 1.00000000 0.0000000e+0
vn 0.0000000e+0 1.00000000 0.0000000e+0
g TIEBase.obj_TIEBase
usemtl TIEBase
s 1
f 1/32/2 24/30/134 5/25/23
f 3/29/11 5/25/20 4/27/16
f 6/23/30 23/28/124 7/21/34
f 9/17/46 23/28/127 10/15/50
f 11/13/56 23/28/129 12/11/60
f 14/10/72 22/26/114 15/12/76
f 16/14/82 22/26/116 17/16/86
f 18/18/92 22/26/118 21/24/105
f 19/20/98 21/24/107 20/22/101
s 2
f 5/25/24 24/30/135 23/28/122
f 7/21/35 23/28/125 8/19/40
f 10/15/51 23/28/128 11/13/55
f 12/11/62 22/26/112 13/9/66
f 17/16/87 22/26/117 18/18/91
f 18/18/93 21/24/106 19/20/97
s 3
f 2/31/6 5/25/21 3/29/12
f 5/25/25 23/28/123 6/23/29
f 12/11/61 23/28/130 22/26/111
f 13/9/67 22/26/113 14/10/71
f 15/12/77 22/26/115 16/14/81
s 4
f 1/32/1 5/25/22 2/31/7
f 8/19/41 23/28/126 9/17/45
g TIEBase.obj_TIESide2
usemtl TIESide2
s 1
f 2/66/9 26/67/144 25/50/140
f 3/80/14 27/81/149 26/67/146
f 4/92/18 28/93/161 27/81/151
f 5/82/27 29/83/172 28/95/163
f 7/51/39 32/44/187 31/52/183
f 9/35/49 34/4/198 33/36/194
f 11/84/57 35/85/202 10/96/53
f 13/53/68 37/54/212 12/70/64
f 14/45/73 38/46/217 13/53/69
f 15/37/80 40/6/229 39/38/225
f 16/7/85 41/40/234 40/8/230
f 18/47/96 43/56/244 42/48/240
f 20/72/103 44/73/249 43/56/246
f 21/86/109 45/87/254 44/73/251
f 23/33/131 46/2/264 22/1/121
f 24/41/137 48/42/272 47/34/269
f 25/50/141 48/42/274 1/49/5
s 2
f 1/49/4 48/42/273 24/41/138
f 2/66/8 25/50/139 1/49/3
f 3/80/13 26/67/145 2/66/10
f 4/92/17 27/81/150 3/80/15
f 5/82/26 28/95/162 4/94/19
f 6/68/31 29/83/173 5/82/28
f 7/51/36 30/69/179 6/68/33
f 8/43/44 33/36/193 32/44/188
f 10/96/54 35/85/203 34/97/199
f 11/84/59 36/71/208 35/85/204
f 12/70/65 37/54/213 36/71/209
f 13/53/70 38/46/218 37/54/214
f 14/45/75 39/38/224 38/46/219
f 16/5/83 40/6/228 15/37/79
f 17/39/88 41/40/233 16/7/84
f 20/72/102 43/56/245 19/55/100
f 21/86/108 44/73/250 20/72/104
f 22/98/120 46/99/263 45/87/256
f 23/33/132 47/34/267 46/2/265
s 3
f 6/68/32 30/69/178 29/83/174
f 7/51/37 31/52/182 30/69/180
f 8/43/42 32/44/186 7/51/38
f 9/35/47 33/36/192 8/43/43
f 10/3/52 34/4/197 9/35/48
f 12/70/63 36/71/207 11/84/58
f 15/37/78 39/38/223 14/45/74
f 17/39/90 42/48/239 41/40/235
f 19/55/99 43/56/243 18/47/95
f 22/98/119 45/87/255 21/86/110
f 24/41/136 47/34/268 23/33/133
s 4
f 18/47/94 42/48/238 17/39/89
g TIEBase.obj_TieNumbers
usemtl TieNumbers
s 1
f 30/79/181 31/77/185 29/89/177
f 32/75/189 33/65/196 28/91/170
f 34/63/200 35/61/206 28/91/168
f 37/57/215 38/58/222 28/91/165
f 38/58/220 39/60/227 27/101/159
f 41/64/236 42/74/242 27/101/156
f 46/90/266 47/100/270 45/88/257
s 2
f 27/101/152 45/88/261 26/103/148
f 28/91/164 38/58/221 27/101/160
f 29/89/175 32/75/190 28/91/171
f 33/65/195 34/63/201 28/91/169
f 40/62/231 41/64/237 27/101/157
f 43/76/247 44/78/253 27/101/154
f 45/88/259 48/102/276 25/104/142
s 3
f 26/103/147 45/88/260 25/104/143
f 31/77/184 32/75/191 29/89/176
f 35/61/205 36/59/211 28/91/167
f 39/60/226 40/62/232 27/101/158
f 42/74/241 43/76/248 27/101/155
f 44/78/252 45/88/262 27/101/153
f 47/100/271 48/102/275 45/88/258
s 4
f 36/59/210 37/57/216 28/91/166