# Blender v2.82 (sub 7) OBJ File: ''
# www.blender.org
mtllib snowdriftm02int.mtl
o snowdriftm02int
v 0.581957 0.442226 -0.457402
v 0.342621 0.481391 -0.456889
v 0.658465 0.517923 -0.107908
v 0.814983 0.491129 -0.062826
v -0.461768 0.602602 -0.783670
v 0.654070 0.503913 -0.005094
v 0.992459 0.536212 0.224105
v 2.210358 -0.083770 2.707834
v 2.586492 -0.112247 2.686424
v 2.314320 0.133038 2.165322
v 2.051976 0.166264 2.193050
v 2.977151 -0.125720 2.519969
v 2.579566 0.103274 2.035083
v 2.062359 0.383355 1.414554
v 1.995626 0.395914 1.501134
v 1.903654 0.426439 1.490255
v 3.398813 -0.124635 2.151615
v 2.865601 0.072423 1.773759
v 3.738442 -0.127834 1.701131
v 3.100388 0.043250 1.455752
v 2.217967 0.325684 1.226282
v 2.174032 0.335944 1.345987
v 3.883008 -0.154155 1.288284
v 3.211886 0.018519 1.155469
v 3.865518 -0.175298 0.904565
v 3.212918 0.008829 0.872337
v 2.495474 0.190200 0.890760
v 2.328798 0.274862 1.099963
v 3.718984 -0.162960 0.541463
v 3.116303 0.024778 0.605788
v 3.476523 -0.131823 0.215385
v 2.936002 0.052010 0.360808
v 2.407526 0.185345 0.496932
v 2.526930 0.163669 0.666233
v 3.171251 -0.096567 -0.057266
v 2.685976 0.076165 0.142383
v 2.843395 -0.067919 -0.306244
v 2.416093 0.088917 -0.082245
v 1.816829 0.221627 0.007061
v 2.212844 0.198962 0.338904
v 1.657742 0.211021 -0.521196
v 1.575660 0.265066 -0.511133
v 1.632105 0.254111 -0.345077
v 1.768634 0.209808 -0.271142
v 1.560617 0.279440 -0.507912
v 1.620890 0.265047 -0.334327
v 1.392716 0.208682 -1.279804
v 1.345698 0.282041 -1.216740
v 1.482044 0.283824 -0.841825
v 1.542448 0.217900 -0.886923
v 1.334390 0.301025 -1.201480
v 1.468784 0.300678 -0.831689
v 0.861237 0.118159 -1.852084
v 0.813988 0.164193 -1.769993
v 1.146475 0.219362 -1.516426
v 1.176738 0.156879 -1.600778
v 0.801334 0.179163 -1.748410
v 1.137762 0.237295 -1.494881
v 0.117566 0.224543 -2.062578
v 0.062172 0.300593 -1.988144
v 0.436975 0.225090 -1.880976
v 0.500591 0.164686 -1.963809
v 0.051812 0.319163 -1.972559
v 0.422815 0.242220 -1.862373
v -0.664149 0.233441 -2.400429
v -0.656211 0.318427 -2.340829
v -0.335582 0.324754 -2.204075
v -0.298832 0.241733 -2.262964
v -0.654949 0.336501 -2.322235
v -0.342016 0.343090 -2.188367
v -1.377503 0.178931 -2.256914
v -1.301207 0.240163 -2.215369
v -0.970275 0.285598 -2.318736
v -1.019893 0.206769 -2.378725
v -1.285549 0.256705 -2.197111
v -0.961026 0.303252 -2.299426
v -1.785131 0.217863 -1.756821
v -1.529815 0.257698 -1.724481
v -1.469049 0.233908 -2.028837
v -1.483299 0.231924 -2.093772
v -1.294840 0.267407 -1.800238
v -1.284394 0.255423 -2.117477
v -2.509908 -0.029631 -2.660029
v -2.940980 -0.019152 -2.393047
v -2.569836 0.144816 -1.938609
v -2.232274 0.118342 -2.147348
v -3.330613 -0.022874 -2.089072
v -2.878467 0.156279 -1.728531
v -2.465868 0.279269 -1.415734
v -2.231860 0.256682 -1.536769
v -3.616173 -0.013699 -1.759388
v -3.112295 0.168385 -1.482427
v -3.786856 0.011729 -1.365100
v -3.225344 0.201614 -1.136291
v -2.710099 0.352987 -0.943900
v -2.648174 0.294289 -1.246060
v -3.827766 0.052670 -0.912566
v -3.186983 0.255062 -0.771879
v -3.812693 0.064850 -0.497652
v -3.144630 0.275905 -0.524218
v -2.618515 0.432556 -0.585864
v -2.650044 0.408014 -0.698987
v -3.804611 0.011339 -0.094352
v -3.167279 0.244277 -0.277474
v -3.742070 -0.059887 0.332780
v -3.190507 0.181507 0.078497
v -2.682345 0.386779 -0.184806
v -2.636694 0.418690 -0.460677
v -3.559901 -0.080003 0.701745
v -3.096944 0.155417 0.401808
v -3.294795 -0.060605 0.953259
v -2.919492 0.168763 0.588788
v -2.542383 0.360096 0.248371
v -2.647475 0.354196 0.115688
v -2.977190 -0.020415 1.070749
v -2.700346 0.199196 0.678159
v -2.627521 0.025121 1.089680
v -2.446211 0.237638 0.691298
v -2.263187 0.407212 0.326089
v -2.428364 0.370857 0.328973
v -2.266224 0.060557 1.045516
v -2.163793 0.275013 0.649587
v -1.911812 0.065552 0.944064
v -1.858954 0.288357 0.557979
v -1.802728 0.463890 0.208882
v -2.056950 0.443920 0.287172
v -1.582796 0.019768 0.791133
v -1.537553 0.254707 0.421432
v -1.238041 -0.043404 0.670352
v -1.175738 0.197631 0.311623
v -1.121164 0.407323 -0.015876
v -1.493593 0.450029 0.087883
v -0.836414 -0.090573 0.665350
v -0.749656 0.140698 0.300232
v -0.453365 -0.111735 0.756390
v -0.331467 0.108368 0.388167
v -0.181463 0.300896 0.042873
v -0.677061 0.340758 -0.042441
v -0.164349 -0.096884 0.923735
v 0.006671 0.125102 0.576338
v 0.052738 -0.073909 1.152867
v 0.269548 0.153682 0.831485
v 0.576133 0.370646 0.476192
v 0.275232 0.333312 0.243853
v 0.219994 -0.070702 1.429271
v 0.461955 0.156887 1.120348
v 0.384678 -0.070117 1.706510
v 0.627066 0.156793 1.394549
v 0.871902 0.359807 1.086116
v 0.740218 0.369440 0.759700
v 0.594042 -0.055012 1.938150
v 0.808057 0.175476 1.605712
v 0.846254 -0.032681 2.142679
v 1.011359 0.202678 1.775233
v 1.165507 0.406184 1.456412
v 1.015970 0.377045 1.315139
v 1.139477 -0.010417 2.338584
v 1.243404 0.228141 1.924510
v 1.469540 -0.006659 2.509998
v 1.499422 0.235276 2.049670
v 1.564430 0.443777 1.601334
v 1.333850 0.430772 1.569765
v 1.832270 -0.039842 2.641054
v 1.774645 0.207497 2.146841
v 1.781739 0.440152 1.534071
v 1.911987 0.478966 1.248982
v 1.957595 0.454291 1.205916
v 1.888939 0.500829 1.174346
v 1.983886 0.431640 1.143388
v 2.075451 0.348512 0.997055
v 1.830397 0.499153 0.974384
v 1.875404 0.499350 1.113845
v 2.137392 0.271327 0.755666
v 2.050996 0.284925 0.629294
v 1.741129 0.499409 0.753871
v 1.796416 0.476418 0.811959
v 1.898009 0.292156 0.507645
v 1.584185 0.335298 0.342727
v 1.499859 0.514150 0.579378
v 1.681536 0.482676 0.690865
v 1.509446 0.291964 -0.108669
v 1.231921 0.410425 0.184102
v 1.362109 0.308619 -0.293650
v 1.041743 0.441652 0.055664
v 1.240519 0.526998 0.389491
v 1.247675 0.309564 -0.616817
v 0.920550 0.417664 -0.174519
v 1.104528 0.289292 -1.000764
v 0.745079 0.349487 -0.601392
v 0.899061 0.234216 -1.277400
v 0.539852 0.299183 -0.953603
v 0.623104 0.193778 -1.477676
v 0.362177 0.291404 -1.112118
v 0.262681 0.378866 -0.986174
v 0.344875 0.405759 -0.838388
v 0.334231 0.231979 -1.612539
v 0.161447 0.308871 -1.220430
v 0.026946 0.286156 -1.724701
v -0.050170 0.305251 -1.277892
v -0.383649 0.557513 -1.160579
v 0.085746 0.408887 -1.013543
v -0.333259 0.306544 -1.869869
v -0.302825 0.300659 -1.285063
v -0.663869 0.305366 -1.951890
v -0.678558 0.276803 -1.269930
v -0.719246 0.614482 -1.243422
v -0.514038 0.585020 -1.230551
v -0.981124 0.288846 -1.904959
v -1.049121 0.306855 -1.275247
v -1.307787 0.337314 -1.291335
v -1.342401 0.602665 -1.162174
v -1.036039 0.618201 -1.206345
v -1.551912 0.338741 -1.312806
v -1.801437 0.334741 -1.322959
v -1.665804 0.574822 -1.102437
v -1.516179 0.563810 -1.150301
v -2.032974 0.343813 -1.302397
v -2.231046 0.359485 -1.238228
v -2.056228 0.489261 -1.073919
v -1.915236 0.538011 -1.023721
v -2.380173 0.375285 -1.117558
v -2.402799 0.458717 -0.847156
v -2.208280 0.554949 -0.812460
v -2.046633 0.546490 -0.968669
v -2.350486 0.525540 -0.699135
v -2.332932 0.545866 -0.649886
v -2.143914 0.612138 -0.725950
v -2.165683 0.589961 -0.752709
v -2.344290 0.552975 -0.587453
v -2.384208 0.540615 -0.389277
v -2.189487 0.625839 -0.581524
v -2.153069 0.624587 -0.682348
v -2.367357 0.512987 -0.092575
v -2.295252 0.512288 0.008126
v -1.900774 0.682646 -0.500472
v -2.023818 0.665943 -0.588165
v -2.267933 0.489374 0.107439
v -2.140403 0.540598 0.054208
v -1.976973 0.578420 0.012695
v -1.759408 0.599617 -0.049415
v -1.677100 0.684907 -0.368099
v -1.745371 0.708814 -0.512764
v -1.469475 0.600964 -0.164438
v -1.102092 0.572991 -0.272370
v -1.324111 0.725960 -0.744846
v -1.511727 0.723732 -0.594138
v -0.652178 0.506224 -0.313209
v -0.022248 0.439863 -0.181294
v -1.054137 0.670409 -0.745731
v 0.539629 0.473414 0.072778
v 0.802199 0.492430 0.258133
v 0.922238 0.497888 0.468335
v 1.043906 0.504348 0.815195
v 1.338268 0.612998 0.711547
v 1.156378 0.574110 0.462602
v 1.178555 0.525250 1.091473
v 1.289404 0.547451 1.210470
v 1.491120 0.644162 0.926061
v 1.425393 0.634462 0.881916
v 1.414496 0.561778 1.298807
v 1.677920 0.534469 1.302346
v 1.703112 0.589670 1.057581
v 1.534022 0.644437 0.984697
v 1.842797 0.502266 1.259892
v 1.833359 0.529706 1.142879
v 1.779300 0.560720 1.003998
v 1.772397 0.570533 1.007189
v 1.696100 0.601785 0.870748
v 1.621145 0.651294 0.794711
v -1.893298 0.639352 -0.899623
v -1.623900 0.690565 -1.029397
v -1.878870 0.670782 -0.864507
v -1.502318 0.733781 -1.047236
v -0.615153 0.660575 -1.250018
v -0.608583 0.663908 -1.239538
v -0.731695 0.676542 -1.241345
v -0.729657 0.683143 -1.230944
v 0.105760 0.458970 -0.806592
v -0.393944 0.593630 -1.059822
v 1.595136 0.661433 0.841802
v 1.588370 0.661685 0.817116
v 1.662170 0.632817 0.889654
v 1.425817 0.603921 0.601514
v 1.567432 0.618916 0.721657
v 1.416623 0.619734 0.606913
v 1.404127 0.624310 0.618907
v 1.531975 0.650377 0.748620
v 1.665478 0.603669 0.800457
v 1.643658 0.619351 0.782165
v 1.763382 0.576161 1.012579
v 1.628992 0.605082 0.761680
v 1.561343 0.659427 0.808655
v -1.899270 0.683695 -0.811687
v -1.667551 0.729279 -0.912466
v -1.480545 0.748564 -0.973039
v -1.375599 0.725260 -0.966067
v -1.241820 0.717312 -1.053165
v -1.363342 0.704334 -1.108695
v -1.523470 0.688476 -1.081455
v -1.562294 0.742311 -0.876288
v 2.880129 -0.633864 3.659744
v 3.445398 -0.673124 3.374339
v 2.336345 -0.575542 3.738356
v 4.044172 -0.669931 2.801446
v 4.517830 -0.662823 2.106630
v 1.802022 -0.521549 3.690870
v 1.308901 -0.487273 3.526364
v 4.707748 -0.690334 1.455457
v 4.677660 -0.716309 0.857152
v 4.491297 -0.704593 0.320943
v 4.187915 -0.667588 -0.112563
v 3.806769 -0.617699 -0.402757
v 3.420916 -0.576098 -0.635907
v 0.888721 -0.488106 3.253914
v 0.536891 -0.507065 2.938496
v 0.248819 -0.527166 2.645086
v 0.028102 -0.552780 2.358427
v -0.121664 -0.588274 2.063262
v -0.252086 -0.625143 1.785886
v 2.276868 -0.056138 -0.875254
v 2.533185 -0.056603 -0.561303
v 3.103415 -0.563956 -0.898284
v 2.858192 -0.567250 -1.243170
v -0.414774 -0.654882 1.552591
v -0.640855 -0.659919 1.390828
v 1.929886 -0.068470 -1.761065
v 2.110694 -0.060042 -1.300903
v 2.689175 -0.571953 -1.723849
v 2.484097 -0.579552 -2.261507
v 1.258158 -0.083901 -2.504146
v 1.629671 -0.081577 -2.178552
v 2.130691 -0.591527 -2.777330
v 1.682778 -0.592454 -3.195863
v 0.411673 -0.052050 -2.834763
v 0.863457 -0.059979 -2.688634
v 1.194178 -0.566907 -3.441650
v 0.627515 -0.560104 -3.635307
v -0.694959 -0.158416 -3.200482
v -0.131092 -0.102347 -3.045282
v -0.054587 -0.617269 -3.897454
v -0.750950 -0.680832 -4.088196
v -0.961456 -0.622684 1.328048
v -1.312545 -0.572134 1.366447
v -1.677895 -0.139224 -3.051499
v -1.210049 -0.167800 -3.180651
v -1.360398 -0.693225 -4.067639
v -1.912003 -0.664271 -3.926256
v -2.100031 -0.081411 -2.878736
v -2.434839 -0.603790 -3.754522
v -2.955702 -0.551161 -3.508997
v -3.501390 -0.545759 -3.146243
v -3.988197 -0.555051 -2.710652
v -4.332415 -0.546505 -2.246618
v -4.563640 -0.529259 -1.720210
v -4.711467 -0.512449 -1.097497
v -4.756362 -0.518664 -0.451894
v -4.678787 -0.570488 0.143183
v -4.472153 -0.623697 0.686311
v -1.630087 -0.537226 1.508223
v -1.968415 -0.516896 1.674174
v -2.381858 -0.510081 1.785100
v -2.830972 -0.524162 1.818988
v -4.129869 -0.634068 1.176067
v -3.711426 -0.611658 1.552042
v -3.276311 -0.566522 1.753826
v -0.974623 0.701511 -1.152286
v -1.004015 0.704570 -1.173242
v -0.712717 0.678127 -1.194608
v -1.016676 0.692952 -1.182981
v -0.584805 0.658585 -1.204393
v -0.962345 0.298915 -2.222567
v -0.656411 0.329731 -2.251178
v -0.341862 0.334449 -2.128187
v 0.046820 0.309296 -1.926190
v 0.405499 0.235091 -1.812924
v 0.764943 0.176676 -1.691264
v 1.091350 0.232644 -1.450175
v 1.292449 0.294774 -1.167786
v 1.432940 0.295297 -0.804824
v 1.531399 0.275130 -0.482388
v 1.592823 0.262938 -0.321290
v -1.488344 0.218979 -2.120055
v -1.627324 0.182380 -2.086500
v 2.176223 0.081938 -0.345837
v 1.975564 0.067084 -0.673984
v 1.823317 0.056211 -1.092278
v 1.648642 0.044111 -1.524332
v 1.380699 0.025577 -1.893758
v 1.051912 0.018606 -2.168410
v 0.694702 0.041197 -2.316145
v 0.288384 0.053574 -2.438896
v -0.187728 0.015958 -2.638594
v -0.683581 -0.026577 -2.788652
v -1.149123 -0.028962 -2.762480
v -1.564949 0.002425 -2.612075
v -1.911656 0.061202 -2.389433
vt 0.625232 0.532193
vt 0.600032 0.530021
vt 0.632317 0.492401
vt 0.649123 0.489582
vt 0.512487 0.555863
vt 0.631906 0.480445
vt 0.668458 0.459374
vt 0.813374 0.197750
vt 0.853026 0.202687
vt 0.819582 0.260158
vt 0.791537 0.255771
vt 0.893285 0.222519
vt 0.847461 0.275111
vt 0.787531 0.341275
vt 0.781004 0.332053
vt 0.771549 0.332985
vt 0.935670 0.263510
vt 0.876845 0.303565
vt 0.969476 0.312194
vt 0.900962 0.337627
vt 0.804358 0.361529
vt 0.799925 0.348638
vt 0.984501 0.355858
vt 0.912589 0.369588
vt 0.983399 0.396408
vt 0.912684 0.399697
vt 0.835740 0.397787
vt 0.816825 0.375185
vt 0.967921 0.434715
vt 0.902023 0.428022
vt 0.941887 0.469246
vt 0.882341 0.454064
vt 0.825694 0.440092
vt 0.839079 0.421837
vt 0.909156 0.498486
vt 0.855386 0.477386
vt 0.874089 0.525570
vt 0.826543 0.501465
vt 0.761441 0.491744
vt 0.804463 0.457116
vt 0.744057 0.546520
vt 0.732695 0.544063
vt 0.739968 0.527291
vt 0.756492 0.520906
vt 0.730208 0.543347
vt 0.738171 0.525948
vt 0.711950 0.625127
vt 0.704356 0.616234
vt 0.719815 0.577601
vt 0.729541 0.584119
vt 0.703377 0.614378
vt 0.717729 0.576084
vt 0.655279 0.687305
vt 0.649066 0.676216
vt 0.683853 0.648497
vt 0.688500 0.659717
vt 0.647413 0.672947
vt 0.682909 0.645812
vt 0.576031 0.710627
vt 0.568794 0.699699
vt 0.609087 0.689048
vt 0.616950 0.699896
vt 0.567795 0.697647
vt 0.607476 0.686195
vt 0.493845 0.747369
vt 0.494455 0.737091
vt 0.526989 0.721846
vt 0.532207 0.732006
vt 0.495150 0.736328
vt 0.526772 0.720396
vt 0.417552 0.735234
vt 0.426655 0.728185
vt 0.461952 0.737077
vt 0.455944 0.746866
vt 0.428250 0.726392
vt 0.462963 0.735761
vt 0.373982 0.681390
vt 0.401336 0.678144
vt 0.408162 0.709632
vt 0.406987 0.716176
vt 0.426498 0.686285
vt 0.427904 0.718684
vt 0.296124 0.777467
vt 0.250003 0.748136
vt 0.290380 0.699230
vt 0.326502 0.722702
vt 0.207951 0.715232
vt 0.257149 0.675874
vt 0.301382 0.642615
vt 0.326400 0.656685
vt 0.177141 0.679161
vt 0.231956 0.648776
vt 0.158640 0.636123
vt 0.219788 0.611346
vt 0.275455 0.590978
vt 0.281797 0.623913
vt 0.154283 0.587145
vt 0.224035 0.572113
vt 0.154954 0.542715
vt 0.227813 0.545247
vt 0.285215 0.551384
vt 0.282244 0.564063
vt 0.152880 0.499302
vt 0.223542 0.518437
vt 0.155846 0.452816
vt 0.218393 0.479912
vt 0.274961 0.507708
vt 0.282115 0.537515
vt 0.172870 0.412494
vt 0.226266 0.444802
vt 0.199890 0.384500
vt 0.244025 0.424142
vt 0.287023 0.460487
vt 0.276716 0.475170
vt 0.232883 0.370675
vt 0.266929 0.413770
vt 0.269801 0.366918
vt 0.293779 0.411269
vt 0.316102 0.451021
vt 0.298419 0.451425
vt 0.308609 0.368706
vt 0.323755 0.413881
vt 0.347277 0.374820
vt 0.356693 0.420153
vt 0.365781 0.459568
vt 0.338390 0.453710
vt 0.385337 0.383232
vt 0.392850 0.428380
vt 0.424616 0.388433
vt 0.433086 0.433327
vt 0.440204 0.473643
vt 0.399645 0.467958
vt 0.467531 0.384995
vt 0.478566 0.430169
vt 0.508059 0.374537
vt 0.522595 0.419789
vt 0.539421 0.461632
vt 0.487484 0.471875
vt 0.539978 0.359310
vt 0.559469 0.402849
vt 0.565889 0.338324
vt 0.589979 0.379518
vt 0.622419 0.424230
vt 0.588840 0.444940
vt 0.587067 0.311527
vt 0.613189 0.351455
vt 0.607954 0.284368
vt 0.633397 0.324445
vt 0.658322 0.363251
vt 0.641806 0.396257
vt 0.633058 0.262518
vt 0.655040 0.304560
vt 0.662492 0.244181
vt 0.678757 0.289671
vt 0.693792 0.328739
vt 0.676093 0.341104
vt 0.696229 0.227521
vt 0.705120 0.277476
vt 0.733150 0.213354
vt 0.733082 0.267576
vt 0.736960 0.318990
vt 0.712899 0.319705
vt 0.772703 0.202345
vt 0.762175 0.259397
vt 0.759160 0.327620
vt 0.769646 0.358594
vt 0.774593 0.363365
vt 0.766639 0.365825
vt 0.777909 0.370207
vt 0.789559 0.386489
vt 0.760194 0.386584
vt 0.765262 0.372150
vt 0.797372 0.412781
vt 0.787549 0.426085
vt 0.750193 0.409074
vt 0.757021 0.403690
vt 0.771071 0.439139
vt 0.736887 0.455532
vt 0.724540 0.426658
vt 0.744705 0.416458
vt 0.727098 0.501629
vt 0.697340 0.468989
vt 0.709841 0.519567
vt 0.675373 0.480312
vt 0.696202 0.444828
vt 0.695604 0.552421
vt 0.661222 0.504075
vt 0.680376 0.592838
vt 0.642859 0.549947
vt 0.658364 0.622478
vt 0.620895 0.587725
vt 0.629388 0.644091
vt 0.601624 0.604834
vt 0.590642 0.589055
vt 0.599592 0.572692
vt 0.598730 0.658641
vt 0.579738 0.616557
vt 0.565745 0.671089
vt 0.556623 0.623670
vt 0.519193 0.596822
vt 0.571649 0.590520
vt 0.528261 0.689127
vt 0.529585 0.628906
vt 0.493575 0.700826
vt 0.490477 0.632287
vt 0.484290 0.598488
vt 0.505286 0.601124
vt 0.459785 0.697157
vt 0.452302 0.633041
vt 0.425114 0.633464
vt 0.420238 0.602718
vt 0.451812 0.600043
vt 0.398970 0.634882
vt 0.372184 0.634837
vt 0.387141 0.600350
vt 0.402365 0.605294
vt 0.347477 0.631169
vt 0.326264 0.623094
vt 0.345308 0.602205
vt 0.360457 0.595053
vt 0.310233 0.609580
vt 0.308694 0.578655
vt 0.330247 0.572498
vt 0.347323 0.588654
vt 0.315358 0.560989
vt 0.317440 0.554929
vt 0.337645 0.561836
vt 0.335210 0.565052
vt 0.315880 0.548081
vt 0.310229 0.527251
vt 0.331761 0.547304
vt 0.336373 0.557571
vt 0.310313 0.495816
vt 0.317142 0.484915
vt 0.360585 0.537881
vt 0.348844 0.547435
vt 0.318901 0.474388
vt 0.333015 0.479796
vt 0.349889 0.483694
vt 0.372294 0.488798
vt 0.382616 0.522129
vt 0.376550 0.538156
vt 0.403273 0.497831
vt 0.442856 0.505071
vt 0.422206 0.557195
vt 0.401580 0.543894
vt 0.491129 0.505186
vt 0.557595 0.490327
vt 0.450507 0.554731
vt 0.618533 0.469094
vt 0.646803 0.452062
vt 0.660137 0.430897
vt 0.675500 0.395492
vt 0.706052 0.409631
vt 0.685518 0.434226
vt 0.692508 0.368340
vt 0.705316 0.357759
vt 0.723171 0.389786
vt 0.716436 0.393250
vt 0.718874 0.350480
vt 0.745816 0.351778
vt 0.745780 0.377383
vt 0.727624 0.384363
vt 0.762668 0.356964
vt 0.760339 0.368616
vt 0.753083 0.382341
vt 0.752106 0.381828
vt 0.742297 0.395141
vt 0.734035 0.402121
vt 0.364040 0.578117
vt 0.392901 0.586194
vt 0.365754 0.573673
vt 0.405053 0.587808
vt 0.493910 0.595910
vt 0.493835 0.596896
vt 0.483056 0.593570
vt 0.482923 0.595405
vt 0.574383 0.566794
vt 0.518032 0.584893
vt 0.732419 0.399055
vt 0.732044 0.401015
vt 0.739639 0.394145
vt 0.713753 0.420632
vt 0.728418 0.408456
vt 0.712443 0.419491
vt 0.711633 0.418555
vt 0.725886 0.406393
vt 0.738603 0.402055
vt 0.735817 0.403037
vt 0.751279 0.381376
vt 0.735085 0.405198
vt 0.729661 0.401158
vt 0.363651 0.568910
vt 0.388272 0.577571
vt 0.406644 0.581156
vt 0.416605 0.577892
vt 0.430582 0.584160
vt 0.418384 0.591987
vt 0.402644 0.590214
vt 0.398681 0.573224
vt 0.896565 0.091110
vt 0.957064 0.124335
vt 0.837534 0.079821
vt 1.018911 0.189227
vt 1.066608 0.266552
vt 0.778903 0.081478
vt 0.723827 0.094807
vt 1.087009 0.337389
vt 1.085473 0.403326
vt 1.065310 0.463261
vt 1.031688 0.511781
vt 0.990133 0.544974
vt 0.948599 0.571882
vt 0.674841 0.118408
vt 0.632086 0.146631
vt 0.596743 0.173658
vt 0.568522 0.200404
vt 0.546499 0.227851
vt 0.526782 0.253070
vt 0.812972 0.587752
vt 0.841076 0.553875
vt 0.914725 0.601094
vt 0.887787 0.637750
vt 0.506118 0.273460
vt 0.482191 0.287942
vt 0.770746 0.680074
vt 0.792554 0.632345
vt 0.866310 0.687837
vt 0.840706 0.743946
vt 0.699125 0.758145
vt 0.738191 0.723449
vt 0.801293 0.798278
vt 0.752623 0.843019
vt 0.608981 0.795014
vt 0.656988 0.778207
vt 0.699433 0.869882
vt 0.637966 0.892570
vt 0.491669 0.839469
vt 0.551734 0.820201
vt 0.564204 0.923944
vt 0.487718 0.947362
vt 0.449775 0.296556
vt 0.412436 0.297308
vt 0.385239 0.823783
vt 0.435967 0.838443
vt 0.419196 0.946156
vt 0.357341 0.929807
vt 0.339829 0.802951
vt 0.299652 0.907875
vt 0.242684 0.878391
vt 0.182467 0.838346
vt 0.128105 0.790679
vt 0.089259 0.739008
vt 0.062711 0.680240
vt 0.045527 0.611131
vt 0.038870 0.539634
vt 0.043329 0.472938
vt 0.061249 0.410841
vt 0.375661 0.288559
vt 0.335607 0.277784
vt 0.288658 0.272451
vt 0.239008 0.274163
vt 0.095541 0.354149
vt 0.140340 0.309785
vt 0.189130 0.284358
vt 0.458225 0.591558
vt 0.455527 0.592606
vt 0.484189 0.594538
vt 0.453975 0.592555
vt 0.496219 0.595473
vt 0.462467 0.729078
vt 0.495269 0.730622
vt 0.527560 0.715245
vt 0.567672 0.692724
vt 0.605814 0.680307
vt 0.643755 0.666702
vt 0.678252 0.641006
vt 0.699668 0.610854
vt 0.714171 0.572991
vt 0.726969 0.540394
vt 0.734933 0.524272
vt 0.406511 0.718976
vt 0.390822 0.717120
vt 0.801469 0.530043
vt 0.779787 0.564805
vt 0.761585 0.608428
vt 0.740787 0.653493
vt 0.711199 0.692214
vt 0.676540 0.721909
vt 0.638661 0.738240
vt 0.595603 0.752613
vt 0.545426 0.776452
vt 0.492535 0.794874
vt 0.442166 0.792830
vt 0.397449 0.775858
vt 0.360532 0.750259
vn 0.2314 0.9395 -0.2524
vn 0.2154 0.9417 -0.2586
vn 0.0996 0.9913 -0.0857
vn 0.2700 0.9155 -0.2982
vn 0.1469 0.9830 0.1104
vn -0.1331 0.9796 0.1508
vn 0.0758 0.9832 -0.1662
vn 0.0753 0.9055 0.4176
vn 0.1452 0.9049 0.4002
vn 0.1852 0.9322 0.3111
vn 0.1120 0.9225 0.3693
vn 0.2523 0.9070 0.3372
vn 0.2557 0.9405 0.2239
vn 0.3889 0.9135 0.1199
vn 0.3350 0.9208 0.1999
vn 0.2368 0.9349 0.2642
vn 0.3031 0.9118 0.2772
vn 0.2611 0.9528 0.1546
vn 0.3703 0.9161 0.1535
vn 0.2626 0.9632 0.0576
vn 0.3748 0.9270 0.0129
vn 0.3872 0.9214 0.0336
vn 0.4178 0.9085 0.0071
vn 0.2655 0.9639 -0.0173
vn 0.4267 0.8988 -0.1005
vn 0.2603 0.9649 -0.0347
vn 0.2708 0.9553 -0.1184
vn 0.3474 0.9336 -0.0880
vn 0.4111 0.8940 -0.1781
vn 0.2633 0.9621 -0.0705
vn 0.3805 0.8888 -0.2555
vn 0.2518 0.9590 -0.1297
vn 0.2191 0.9701 -0.1045
vn 0.2339 0.9703 -0.0614
vn 0.3475 0.8834 -0.3144
vn 0.2235 0.9582 -0.1786
vn 0.3265 0.8783 -0.3491
vn 0.2068 0.9573 -0.2020
vn 0.2384 0.9621 -0.1323
vn 0.1929 0.9682 -0.1593
vn 0.4327 0.8900 -0.1439
vn 0.6030 0.7855 -0.1394
vn 0.5085 0.8450 -0.1653
vn 0.3188 0.9414 -0.1106
vn 0.3196 0.9469 -0.0363
vn 0.2830 0.9586 -0.0325
vn 0.4573 0.8338 -0.3093
vn 0.6142 0.6932 -0.3772
vn 0.6701 0.7114 -0.2118
vn 0.5296 0.8277 -0.1857
vn 0.2939 0.9300 -0.2208
vn 0.3455 0.9351 -0.0795
vn 0.1863 0.9318 -0.3116
vn 0.2224 0.8824 -0.4145
vn 0.3637 0.7965 -0.4831
vn 0.2546 0.8879 -0.3830
vn 0.1354 0.9580 -0.2527
vn 0.1451 0.9352 -0.3231
vn 0.2510 0.8498 -0.4635
vn 0.3366 0.7386 -0.5841
vn 0.2774 0.8325 -0.4796
vn 0.2255 0.9159 -0.3320
vn 0.2012 0.9599 -0.1954
vn 0.2332 0.9565 -0.1752
vn 0.0568 0.7431 -0.6667
vn 0.0964 0.6354 -0.7662
vn 0.3204 0.6598 -0.6797
vn 0.2624 0.7639 -0.5896
vn 0.0261 0.9232 -0.3834
vn 0.1592 0.9408 -0.2992
vn -0.2288 0.8585 -0.4590
vn -0.3073 0.7933 -0.5256
vn -0.1953 0.7155 -0.6708
vn -0.1838 0.7842 -0.5927
vn -0.2214 0.9402 -0.2588
vn -0.1683 0.9332 -0.3176
vn -0.0898 0.9726 -0.2146
vn -0.1139 0.9812 -0.1560
vn -0.1012 0.9942 -0.0377
vn -0.2608 0.9436 -0.2041
vn -0.0704 0.9945 -0.0774
vn -0.1287 0.9916 -0.0110
vn -0.1318 0.9263 -0.3529
vn -0.2157 0.9226 -0.3198
vn -0.0983 0.9671 -0.2345
vn -0.0401 0.9717 -0.2326
vn -0.2802 0.9116 -0.3007
vn -0.1545 0.9603 -0.2324
vn -0.1031 0.9611 -0.2563
vn -0.0486 0.9614 -0.2707
vn -0.3426 0.9037 -0.2568
vn -0.2045 0.9590 -0.1962
vn -0.3936 0.9039 -0.1673
vn -0.2503 0.9579 -0.1405
vn -0.2323 0.9532 -0.1935
vn -0.1565 0.9598 -0.2328
vn -0.4149 0.9076 -0.0645
vn -0.2762 0.9581 -0.0755
vn -0.4166 0.9074 0.0547
vn -0.2897 0.9565 0.0347
vn -0.3411 0.9395 -0.0319
vn -0.3082 0.9428 -0.1273
vn -0.4119 0.8958 0.1667
vn -0.2997 0.9463 0.1209
vn -0.4220 0.8753 0.2360
vn -0.3199 0.9348 0.1544
vn -0.3524 0.9302 0.1028
vn -0.3482 0.9360 0.0516
vn -0.4136 0.8594 0.3007
vn -0.3122 0.9287 0.1998
vn -0.3325 0.8590 0.3893
vn -0.2778 0.9249 0.2597
vn -0.2926 0.9254 0.2407
vn -0.3348 0.9256 0.1766
vn -0.2058 0.8583 0.4701
vn -0.2017 0.9197 0.3368
vn -0.0812 0.8510 0.5188
vn -0.1071 0.9088 0.4032
vn -0.1386 0.9179 0.3718
vn -0.2373 0.9265 0.2921
vn 0.0647 0.8302 0.5537
vn 0.0244 0.8903 0.4547
vn 0.2463 0.7907 0.5604
vn 0.2002 0.8498 0.4877
vn 0.1564 0.8644 0.4779
vn -0.0086 0.9032 0.4291
vn 0.3494 0.7511 0.5601
vn 0.2895 0.8021 0.5224
vn 0.2244 0.7800 0.5842
vn 0.2089 0.8014 0.5604
vn 0.1967 0.8219 0.5346
vn 0.2381 0.8237 0.5146
vn 0.0078 0.8143 0.5804
vn 0.0448 0.8496 0.5255
vn -0.1962 0.8283 0.5248
vn -0.1494 0.8805 0.4499
vn -0.1235 0.8838 0.4513
vn 0.0664 0.8519 0.5194
vn -0.3991 0.8108 0.4281
vn -0.3161 0.8814 0.3511
vn -0.5014 0.7978 0.3349
vn -0.3903 0.8784 0.2757
vn -0.3311 0.9133 0.2370
vn -0.2745 0.9020 0.3332
vn -0.5061 0.8094 0.2980
vn -0.4263 0.8684 0.2534
vn -0.4822 0.8203 0.3075
vn -0.4230 0.8653 0.2689
vn -0.4416 0.8725 0.2090
vn -0.3766 0.9048 0.1988
vn -0.4024 0.8460 0.3500
vn -0.4142 0.8552 0.3114
vn -0.3604 0.8539 0.3754
vn -0.3748 0.8504 0.3693
vn -0.3911 0.8624 0.3215
vn -0.4517 0.8549 0.2552
vn -0.2767 0.8715 0.4050
vn -0.2790 0.8692 0.4083
vn -0.1520 0.8908 0.4282
vn -0.1479 0.8919 0.4273
vn 0.0062 0.9257 0.3782
vn -0.2418 0.8825 0.4033
vn -0.0203 0.9017 0.4319
vn 0.0124 0.9134 0.4069
vn 0.1568 0.9412 0.2991
vn 0.4198 0.8976 0.1346
vn 0.5105 0.8599 -0.0027
vn 0.4873 0.8727 0.0320
vn 0.4843 0.8642 -0.1363
vn 0.3877 0.8902 -0.2391
vn 0.6130 0.7623 -0.2076
vn 0.6097 0.7738 -0.1720
vn 0.3514 0.9238 -0.1518
vn 0.3281 0.9171 -0.2264
vn 0.5185 0.7349 -0.4372
vn 0.5690 0.7936 -0.2153
vn 0.2878 0.9074 -0.3061
vn 0.3126 0.8964 -0.3141
vn 0.4483 0.6939 -0.5634
vn 0.4204 0.7309 -0.5376
vn 0.2478 0.9640 -0.0969
vn 0.3230 0.8963 -0.3039
vn 0.2047 0.9758 -0.0764
vn 0.3481 0.8973 -0.2715
vn 0.4101 0.7280 -0.5494
vn 0.1145 0.9911 -0.0675
vn 0.2407 0.9426 -0.2314
vn -0.0157 0.9942 -0.1063
vn 0.1328 0.9676 -0.2148
vn -0.0486 0.9878 -0.1481
vn 0.1571 0.9575 -0.2418
vn 0.0659 0.9932 -0.0960
vn 0.2112 0.9410 -0.2645
vn 0.2418 0.9132 -0.3279
vn 0.2454 0.9312 -0.2695
vn 0.1603 0.9869 -0.0203
vn 0.2036 0.9441 -0.2591
vn 0.0899 0.9954 0.0346
vn 0.0745 0.8920 -0.4458
vn 0.4218 0.7443 -0.5178
vn 0.2986 0.9104 -0.2865
vn 0.0058 0.9981 0.0607
vn 0.0354 0.8303 -0.5561
vn -0.0385 0.9983 0.0441
vn -0.0025 0.7555 -0.6552
vn -0.0612 0.0669 -0.9959
vn 0.3270 0.3601 -0.8737
vn -0.0599 0.9982 -0.0018
vn 0.0087 0.7725 -0.6350
vn 0.0952 0.8026 -0.5889
vn -0.1175 0.4325 -0.8939
vn -0.1312 0.2744 -0.9526
vn -0.0316 0.8436 -0.5360
vn -0.0051 0.8629 -0.5054
vn -0.2568 0.6521 -0.7133
vn -0.1980 0.5387 -0.8189
vn -0.0776 0.8961 -0.4370
vn -0.1272 0.9096 -0.3955
vn -0.1740 0.8478 -0.5010
vn -0.1788 0.8059 -0.5644
vn -0.2171 0.9256 -0.3102
vn -0.2884 0.9055 -0.3113
vn -0.3507 0.8864 -0.3022
vn -0.3090 0.8591 -0.4081
vn -0.3757 0.8973 -0.2316
vn -0.3962 0.8967 -0.1975
vn -0.3922 0.8511 -0.3490
vn -0.3692 0.8671 -0.3343
vn -0.4165 0.9038 -0.0983
vn -0.4012 0.9152 0.0379
vn -0.3228 0.9463 -0.0153
vn -0.3789 0.8968 -0.2283
vn -0.3151 0.9352 0.1617
vn -0.2149 0.9477 0.2360
vn -0.1762 0.9791 0.1012
vn -0.2079 0.9774 0.0372
vn -0.2378 0.9268 0.2906
vn -0.2227 0.9431 0.2469
vn -0.0668 0.9444 0.3221
vn 0.0802 0.9231 0.3762
vn 0.0239 0.9750 0.2211
vn -0.0674 0.9920 0.1063
vn 0.1795 0.9037 0.3887
vn 0.1757 0.9058 0.3855
vn 0.1487 0.9848 0.0901
vn 0.0441 0.9861 0.1602
vn 0.0943 0.9235 0.3718
vn -0.1598 0.8985 0.4089
vn 0.1577 0.9793 0.1269
vn -0.1986 0.9442 0.2626
vn -0.2395 0.9549 0.1757
vn -0.3234 0.9380 0.1249
vn -0.4031 0.9066 0.1248
vn -0.2560 0.9663 0.0278
vn -0.2446 0.9694 0.0203
vn -0.3944 0.9036 0.1672
vn -0.3387 0.9143 0.2223
vn -0.1874 0.9770 0.1014
vn -0.2567 0.9638 0.0724
vn -0.1216 0.9478 0.2947
vn 0.1849 0.9363 0.2985
vn 0.2474 0.9454 0.2124
vn -0.0003 0.9800 0.1990
vn 0.2864 0.9301 0.2300
vn 0.3609 0.9202 0.1516
vn 0.7172 0.6515 -0.2471
vn 0.6433 0.7498 -0.1550
vn 0.6956 0.6744 -0.2475
vn 0.4451 0.8297 -0.3370
vn -0.3498 0.7797 -0.5193
vn -0.3824 0.7183 -0.5812
vn -0.3689 0.8241 -0.4299
vn -0.1491 0.8842 -0.4427
vn 0.1857 0.4649 -0.8656
vn 0.3302 0.9005 -0.2829
vn -0.0806 0.4847 -0.8710
vn 0.0671 0.9649 -0.2537
vn 0.2372 0.9481 -0.2118
vn 0.3481 0.9310 -0.1102
vn 0.1400 0.9884 0.0594
vn 0.0557 0.9894 -0.1344
vn 0.4260 0.9036 0.0447
vn 0.5060 0.5560 -0.6594
vn 0.5006 0.5861 -0.6371
vn 0.3222 0.7987 -0.5081
vn -0.0499 0.9871 -0.1519
vn 0.0066 0.9782 -0.2074
vn 0.7064 0.6432 -0.2953
vn 0.5865 0.6120 -0.5305
vn 0.4303 0.9005 0.0631
vn 0.4959 0.5579 -0.6655
vn -0.0637 0.9950 -0.0775
vn -0.2833 0.9405 -0.1878
vn -0.2311 0.9559 -0.1811
vn 0.0284 0.9931 -0.1134
vn 0.1502 0.9883 -0.0258
vn 0.0863 0.9950 0.0500
vn -0.1529 0.6189 -0.7705
vn -0.2585 0.5717 -0.7786
vn -0.0639 0.9978 0.0159
vn 0.1995 0.8874 0.4155
vn 0.3045 0.8690 0.3899
vn 0.1092 0.9022 0.4172
vn 0.3815 0.8598 0.3395
vn 0.4762 0.8537 0.2111
vn -0.0042 0.9071 0.4209
vn -0.1468 0.9030 0.4038
vn 0.5380 0.8424 0.0301
vn 0.5463 0.8300 -0.1130
vn 0.5189 0.8261 -0.2196
vn 0.4665 0.8210 -0.3292
vn 0.4153 0.7982 -0.4364
vn 0.3998 0.7735 -0.4918
vn -0.2888 0.8794 0.3786
vn -0.3873 0.8503 0.3563
vn -0.4389 0.8317 0.3402
vn -0.5491 0.7867 0.2821
vn -0.6297 0.7354 0.2503
vn -0.6693 0.6891 0.2778
vn 0.3902 0.8921 -0.2280
vn 0.3410 0.8840 -0.3197
vn 0.4463 0.7893 -0.4218
vn 0.5295 0.8018 -0.2772
vn -0.5122 0.7422 0.4321
vn -0.2343 0.7688 0.5950
vn 0.3856 0.8941 -0.2281
vn 0.4246 0.8876 -0.1786
vn 0.5533 0.8039 -0.2184
vn 0.4974 0.8191 -0.2857
vn 0.2449 0.9112 -0.3313
vn 0.3069 0.9049 -0.2948
vn 0.4043 0.8357 -0.3718
vn 0.3193 0.8464 -0.4262
vn 0.1036 0.9222 -0.3727
vn 0.1734 0.9201 -0.3513
vn 0.2254 0.8508 -0.4747
vn 0.1496 0.8526 -0.5007
vn 0.0021 0.9083 -0.4183
vn 0.0462 0.9148 -0.4012
vn 0.0856 0.8564 -0.5092
vn 0.0071 0.8616 -0.5075
vn 0.0531 0.7751 0.6296
vn 0.2725 0.7519 0.6003
vn -0.0508 0.9138 -0.4029
vn -0.0457 0.9083 -0.4158
vn -0.0590 0.8634 -0.5011
vn -0.0736 0.8637 -0.4987
vn -0.0596 0.9216 -0.3835
vn -0.1001 0.8697 -0.4834
vn -0.1941 0.8780 -0.4375
vn -0.2952 0.8712 -0.3923
vn -0.3742 0.8619 -0.3421
vn -0.4347 0.8539 -0.2861
vn -0.4987 0.8444 -0.1956
vn -0.5247 0.8472 -0.0836
vn -0.5230 0.8503 0.0587
vn -0.5108 0.8363 0.1994
vn -0.4840 0.8194 0.3072
vn 0.3449 0.7253 0.5957
vn 0.2435 0.7489 0.6163
vn 0.0822 0.7846 0.6145
vn -0.0835 0.8071 0.5845
vn -0.4575 0.8049 0.3778
vn -0.3780 0.7972 0.4707
vn -0.2433 0.8060 0.5396
vn 0.0916 0.9930 0.0746
vn -0.0192 0.9308 -0.3650
vn 0.1298 0.9875 0.0890
vn -0.1305 0.5318 -0.8368
vn 0.3197 0.9460 -0.0541
vn -0.1003 0.9941 0.0422
vn -0.0707 0.9937 0.0872
vn -0.0310 0.9921 0.1218
vn 0.0657 0.9841 0.1652
vn 0.1335 0.9832 0.1242
vn 0.0128 0.9999 -0.0037
vn -0.1325 0.9873 -0.0874
vn -0.1240 0.9917 -0.0352
vn -0.0283 0.9993 0.0226
vn 0.0685 0.9966 0.0466
vn 0.0996 0.9944 0.0362
vn -0.3374 0.8438 -0.4174
vn -0.2321 0.9404 -0.2485
vn 0.2414 0.9511 -0.1928
vn 0.3027 0.9359 -0.1802
vn 0.3411 0.9288 -0.1450
vn 0.2952 0.9343 -0.2001
vn 0.1925 0.9533 -0.2328
vn 0.1499 0.9666 -0.2079
vn 0.1442 0.9616 -0.2336
vn 0.0896 0.9475 -0.3069
vn 0.0769 0.9242 -0.3740
vn 0.0082 0.9069 -0.4212
vn -0.0640 0.9199 -0.3869
vn -0.0597 0.9354 -0.3485
vn -0.0554 0.9588 -0.2788
usemtl icefrozen01
s 1
f 1/1/1 2/2/2 3/3/3
f 3/3/3 4/4/4 1/1/1
f 5/5/5 6/6/6 3/3/3
f 3/3/3 2/2/2 5/5/5
f 7/7/7 4/4/4 3/3/3
f 3/3/3 6/6/6 7/7/7
f 8/8/8 9/9/9 10/10/10
f 10/10/10 11/11/11 8/8/8
f 12/12/12 13/13/13 10/10/10
f 10/10/10 9/9/9 12/12/12
f 14/14/14 15/15/15 10/10/10
f 10/10/10 13/13/13 14/14/14
f 16/16/16 11/11/11 10/10/10
f 10/10/10 15/15/15 16/16/16
f 12/12/12 17/17/17 18/18/18
f 18/18/18 13/13/13 12/12/12
f 19/19/19 20/20/20 18/18/18
f 18/18/18 17/17/17 19/19/19
f 21/21/21 22/22/22 18/18/18
f 18/18/18 20/20/20 21/21/21
f 14/14/14 13/13/13 18/18/18
f 18/18/18 22/22/22 14/14/14
f 19/19/19 23/23/23 24/24/24
f 24/24/24 20/20/20 19/19/19
f 25/25/25 26/26/26 24/24/24
f 24/24/24 23/23/23 25/25/25
f 27/27/27 28/28/28 24/24/24
f 24/24/24 26/26/26 27/27/27
f 21/21/21 20/20/20 24/24/24
f 24/24/24 28/28/28 21/21/21
f 25/25/25 29/29/29 30/30/30
f 30/30/30 26/26/26 25/25/25
f 31/31/31 32/32/32 30/30/30
f 30/30/30 29/29/29 31/31/31
f 33/33/33 34/34/34 30/30/30
f 30/30/30 32/32/32 33/33/33
f 27/27/27 26/26/26 30/30/30
f 30/30/30 34/34/34 27/27/27
f 31/31/31 35/35/35 36/36/36
f 36/36/36 32/32/32 31/31/31
f 37/37/37 38/38/38 36/36/36
f 36/36/36 35/35/35 37/37/37
f 39/39/39 40/40/40 36/36/36
f 36/36/36 38/38/38 39/39/39
f 33/33/33 32/32/32 36/36/36
f 36/36/36 40/40/40 33/33/33
f 41/41/41 42/42/42 43/43/43
f 43/43/43 44/44/44 41/41/41
f 45/45/45 46/46/46 43/43/43
f 43/43/43 42/42/42 45/45/45
f 39/39/39 44/44/44 43/43/43
f 43/43/43 46/46/46 39/39/39
f 47/47/47 48/48/48 49/49/49
f 49/49/49 50/50/50 47/47/47
f 51/51/51 52/52/52 49/49/49
f 49/49/49 48/48/48 51/51/51
f 45/45/45 42/42/42 49/49/49
f 49/49/49 52/52/52 45/45/45
f 41/41/41 50/50/50 49/49/49
f 49/49/49 42/42/42 41/41/41
f 53/53/53 54/54/54 55/55/55
f 55/55/55 56/56/56 53/53/53
f 57/57/57 58/58/58 55/55/55
f 55/55/55 54/54/54 57/57/57
f 51/51/51 48/48/48 55/55/55
f 55/55/55 58/58/58 51/51/51
f 47/47/47 56/56/56 55/55/55
f 55/55/55 48/48/48 47/47/47
f 59/59/59 60/60/60 61/61/61
f 61/61/61 62/62/62 59/59/59
f 63/63/63 64/64/64 61/61/61
f 61/61/61 60/60/60 63/63/63
f 57/57/57 54/54/54 61/61/61
f 61/61/61 64/64/64 57/57/57
f 53/53/53 62/62/62 61/61/61
f 61/61/61 54/54/54 53/53/53
f 65/65/65 66/66/66 67/67/67
f 67/67/67 68/68/68 65/65/65
f 69/69/69 70/70/70 67/67/67
f 67/67/67 66/66/66 69/69/69
f 63/63/63 60/60/60 67/67/67
f 67/67/67 70/70/70 63/63/63
f 59/59/59 68/68/68 67/67/67
f 67/67/67 60/60/60 59/59/59
f 71/71/71 72/72/72 73/73/73
f 73/73/73 74/74/74 71/71/71
f 75/75/75 76/76/76 73/73/73
f 73/73/73 72/72/72 75/75/75
f 69/69/69 66/66/66 73/73/73
f 73/73/73 76/76/76 69/69/69
f 65/65/65 74/74/74 73/73/73
f 73/73/73 66/66/66 65/65/65
f 77/77/77 78/78/78 79/79/79
f 79/79/79 80/80/80 77/77/77
f 81/81/81 82/82/82 79/79/79
f 79/79/79 78/78/78 81/81/81
f 75/75/75 80/80/80 79/79/79
f 79/79/79 82/82/82 75/75/75
f 83/83/83 84/84/84 85/85/85
f 85/85/85 86/86/86 83/83/83
f 87/87/87 88/88/88 85/85/85
f 85/85/85 84/84/84 87/87/87
f 89/89/89 90/90/90 85/85/85
f 85/85/85 88/88/88 89/89/89
f 77/77/77 86/86/86 85/85/85
f 85/85/85 90/90/90 77/77/77
f 87/87/87 91/91/91 92/92/92
f 92/92/92 88/88/88 87/87/87
f 93/93/93 94/94/94 92/92/92
f 92/92/92 91/91/91 93/93/93
f 95/95/95 96/96/96 92/92/92
f 92/92/92 94/94/94 95/95/95
f 89/89/89 88/88/88 92/92/92
f 92/92/92 96/96/96 89/89/89
f 93/93/93 97/97/97 98/98/98
f 98/98/98 94/94/94 93/93/93
f 99/99/99 100/100/100 98/98/98
f 98/98/98 97/97/97 99/99/99
f 101/101/101 102/102/102 98/98/98
f 98/98/98 100/100/100 101/101/101
f 95/95/95 94/94/94 98/98/98
f 98/98/98 102/102/102 95/95/95
f 99/99/99 103/103/103 104/104/104
f 104/104/104 100/100/100 99/99/99
f 105/105/105 106/106/106 104/104/104
f 104/104/104 103/103/103 105/105/105
f 107/107/107 108/108/108 104/104/104
f 104/104/104 106/106/106 107/107/107
f 101/101/101 100/100/100 104/104/104
f 104/104/104 108/108/108 101/101/101
f 105/105/105 109/109/109 110/110/110
f 110/110/110 106/106/106 105/105/105
f 111/111/111 112/112/112 110/110/110
f 110/110/110 109/109/109 111/111/111
f 113/113/113 114/114/114 110/110/110
f 110/110/110 112/112/112 113/113/113
f 107/107/107 106/106/106 110/110/110
f 110/110/110 114/114/114 107/107/107
f 111/111/111 115/115/115 116/116/116
f 116/116/116 112/112/112 111/111/111
f 117/117/117 118/118/118 116/116/116
f 116/116/116 115/115/115 117/117/117
f 119/119/119 120/120/120 116/116/116
f 116/116/116 118/118/118 119/119/119
f 113/113/113 112/112/112 116/116/116
f 116/116/116 120/120/120 113/113/113
f 117/117/117 121/121/121 122/122/122
f 122/122/122 118/118/118 117/117/117
f 123/123/123 124/124/124 122/122/122
f 122/122/122 121/121/121 123/123/123
f 125/125/125 126/126/126 122/122/122
f 122/122/122 124/124/124 125/125/125
f 119/119/119 118/118/118 122/122/122
f 122/122/122 126/126/126 119/119/119
f 123/123/123 127/127/127 128/128/128
f 128/128/128 124/124/124 123/123/123
f 129/129/129 130/130/130 128/128/128
f 128/128/128 127/127/127 129/129/129
f 131/131/131 132/132/132 128/128/128
f 128/128/128 130/130/130 131/131/131
f 125/125/125 124/124/124 128/128/128
f 128/128/128 132/132/132 125/125/125
f 129/129/129 133/133/133 134/134/134
f 134/134/134 130/130/130 129/129/129
f 135/135/135 136/136/136 134/134/134
f 134/134/134 133/133/133 135/135/135
f 137/137/137 138/138/138 134/134/134
f 134/134/134 136/136/136 137/137/137
f 131/131/131 130/130/130 134/134/134
f 134/134/134 138/138/138 131/131/131
f 135/135/135 139/139/139 140/140/140
f 140/140/140 136/136/136 135/135/135
f 141/141/141 142/142/142 140/140/140
f 140/140/140 139/139/139 141/141/141
f 143/143/143 144/144/144 140/140/140
f 140/140/140 142/142/142 143/143/143
f 137/137/137 136/136/136 140/140/140
f 140/140/140 144/144/144 137/137/137
f 141/141/141 145/145/145 146/146/146
f 146/146/146 142/142/142 141/141/141
f 147/147/147 148/148/148 146/146/146
f 146/146/146 145/145/145 147/147/147
f 149/149/149 150/150/150 146/146/146
f 146/146/146 148/148/148 149/149/149
f 143/143/143 142/142/142 146/146/146
f 146/146/146 150/150/150 143/143/143
f 147/147/147 151/151/151 152/152/152
f 152/152/152 148/148/148 147/147/147
f 153/153/153 154/154/154 152/152/152
f 152/152/152 151/151/151 153/153/153
f 155/155/155 156/156/156 152/152/152
f 152/152/152 154/154/154 155/155/155
f 149/149/149 148/148/148 152/152/152
f 152/152/152 156/156/156 149/149/149
f 153/153/153 157/157/157 158/158/158
f 158/158/158 154/154/154 153/153/153
f 159/159/159 160/160/160 158/158/158
f 158/158/158 157/157/157 159/159/159
f 161/161/161 162/162/162 158/158/158
f 158/158/158 160/160/160 161/161/161
f 155/155/155 154/154/154 158/158/158
f 158/158/158 162/162/162 155/155/155
f 159/159/159 163/163/163 164/164/164
f 164/164/164 160/160/160 159/159/159
f 8/8/8 11/11/11 164/164/164
f 164/164/164 163/163/163 8/8/8
f 16/16/16 165/165/165 164/164/164
f 164/164/164 11/11/11 16/16/16
f 161/161/161 160/160/160 164/164/164
f 164/164/164 165/165/165 161/161/161
f 16/16/16 15/15/15 166/166/166
f 14/14/14 166/166/166 15/15/15
f 14/14/14 22/22/22 167/167/167
f 167/167/167 166/166/166 14/14/14
f 21/21/21 167/167/167 22/22/22
f 168/168/168 166/166/166 167/167/167
f 21/21/21 28/28/28 169/169/169
f 169/169/169 167/167/167 21/21/21
f 27/27/27 170/170/170 169/169/169
f 169/169/169 28/28/28 27/27/27
f 171/171/171 172/172/172 169/169/169
f 169/169/169 170/170/170 171/171/171
f 168/168/168 167/167/167 169/169/169
f 169/169/169 172/172/172 168/168/168
f 27/27/27 34/34/34 173/173/173
f 173/173/173 170/170/170 27/27/27
f 33/33/33 174/174/174 173/173/173
f 173/173/173 34/34/34 33/33/33
f 175/175/175 176/176/176 173/173/173
f 173/173/173 174/174/174 175/175/175
f 171/171/171 170/170/170 173/173/173
f 173/173/173 176/176/176 171/171/171
f 33/33/33 40/40/40 177/177/177
f 177/177/177 174/174/174 33/33/33
f 39/39/39 178/178/178 177/177/177
f 177/177/177 40/40/40 39/39/39
f 179/179/179 180/180/180 177/177/177
f 177/177/177 178/178/178 179/179/179
f 175/175/175 174/174/174 177/177/177
f 177/177/177 180/180/180 175/175/175
f 39/39/39 181/181/181 182/182/182
f 182/182/182 178/178/178 39/39/39
f 183/183/183 184/184/184 182/182/182
f 182/182/182 181/181/181 183/183/183
f 7/7/7 185/185/185 182/182/182
f 182/182/182 184/184/184 7/7/7
f 179/179/179 178/178/178 182/182/182
f 182/182/182 185/185/185 179/179/179
f 183/183/183 186/186/186 187/187/187
f 187/187/187 184/184/184 183/183/183
f 188/188/188 189/189/189 187/187/187
f 187/187/187 186/186/186 188/188/188
f 1/1/1 4/4/4 187/187/187
f 187/187/187 189/189/189 1/1/1
f 7/7/7 184/184/184 187/187/187
f 187/187/187 4/4/4 7/7/7
f 188/188/188 190/190/190 191/191/191
f 191/191/191 189/189/189 188/188/188
f 192/192/192 193/193/193 191/191/191
f 191/191/191 190/190/190 192/192/192
f 194/194/194 195/195/195 191/191/191
f 191/191/191 193/193/193 194/194/194
f 1/1/1 189/189/189 191/191/191
f 191/191/191 195/195/195 1/1/1
f 192/192/192 196/196/196 197/197/197
f 197/197/197 193/193/193 192/192/192
f 198/198/198 199/199/199 197/197/197
f 197/197/197 196/196/196 198/198/198
f 200/200/200 201/201/201 197/197/197
f 197/197/197 199/199/199 200/200/200
f 194/194/194 193/193/193 197/197/197
f 197/197/197 201/201/201 194/194/194
f 198/198/198 202/202/202 203/203/203
f 203/203/203 199/199/199 198/198/198
f 204/204/204 205/205/205 203/203/203
f 203/203/203 202/202/202 204/204/204
f 206/206/206 207/207/207 203/203/203
f 203/203/203 205/205/205 206/206/206
f 200/200/200 199/199/199 203/203/203
f 203/203/203 207/207/207 200/200/200
f 204/204/204 208/208/208 209/209/209
f 209/209/209 205/205/205 204/204/204
f 81/81/81 210/210/210 209/209/209
f 209/209/209 208/208/208 81/81/81
f 211/211/211 212/212/212 209/209/209
f 209/209/209 210/210/210 211/211/211
f 206/206/206 205/205/205 209/209/209
f 209/209/209 212/212/212 206/206/206
f 81/81/81 78/78/78 213/213/213
f 213/213/213 210/210/210 81/81/81
f 77/77/77 214/214/214 213/213/213
f 213/213/213 78/78/78 77/77/77
f 215/215/215 216/216/216 213/213/213
f 213/213/213 214/214/214 215/215/215
f 211/211/211 210/210/210 213/213/213
f 213/213/213 216/216/216 211/211/211
f 77/77/77 90/90/90 217/217/217
f 217/217/217 214/214/214 77/77/77
f 89/89/89 218/218/218 217/217/217
f 217/217/217 90/90/90 89/89/89
f 219/219/219 220/220/220 217/217/217
f 217/217/217 218/218/218 219/219/219
f 215/215/215 214/214/214 217/217/217
f 217/217/217 220/220/220 215/215/215
f 89/89/89 96/96/96 221/221/221
f 221/221/221 218/218/218 89/89/89
f 95/95/95 222/222/222 221/221/221
f 221/221/221 96/96/96 95/95/95
f 223/223/223 224/224/224 221/221/221
f 221/221/221 222/222/222 223/223/223
f 219/219/219 218/218/218 221/221/221
f 221/221/221 224/224/224 219/219/219
f 95/95/95 102/102/102 225/225/225
f 225/225/225 222/222/222 95/95/95
f 101/101/101 226/226/226 225/225/225
f 225/225/225 102/102/102 101/101/101
f 227/227/227 228/228/228 225/225/225
f 225/225/225 226/226/226 227/227/227
f 223/223/223 222/222/222 225/225/225
f 225/225/225 228/228/228 223/223/223
f 101/101/101 108/108/108 229/229/229
f 229/229/229 226/226/226 101/101/101
f 107/107/107 230/230/230 229/229/229
f 229/229/229 108/108/108 107/107/107
f 231/231/231 232/232/232 229/229/229
f 229/229/229 230/230/230 231/231/231
f 227/227/227 226/226/226 229/229/229
f 229/229/229 232/232/232 227/227/227
f 107/107/107 114/114/114 233/233/233
f 233/233/233 230/230/230 107/107/107
f 113/113/113 234/234/234 233/233/233
f 233/233/233 114/114/114 113/113/113
f 235/235/235 236/236/236 233/233/233
f 233/233/233 234/234/234 235/235/235
f 231/231/231 230/230/230 233/233/233
f 233/233/233 236/236/236 231/231/231
f 113/113/113 120/120/120 237/237/237
f 237/237/237 234/234/234 113/113/113
f 119/119/119 238/238/238 237/237/237
f 237/237/237 120/120/120 119/119/119
f 235/235/235 234/234/234 237/237/237
f 237/237/237 238/238/238 235/235/235
f 119/119/119 126/126/126 239/239/239
f 239/239/239 238/238/238 119/119/119
f 125/125/125 240/240/240 239/239/239
f 239/239/239 126/126/126 125/125/125
f 241/241/241 242/242/242 239/239/239
f 239/239/239 240/240/240 241/241/241
f 235/235/235 238/238/238 239/239/239
f 239/239/239 242/242/242 235/235/235
f 125/125/125 132/132/132 243/243/243
f 243/243/243 240/240/240 125/125/125
f 131/131/131 244/244/244 243/243/243
f 243/243/243 132/132/132 131/131/131
f 245/245/245 246/246/246 243/243/243
f 243/243/243 244/244/244 245/245/245
f 241/241/241 240/240/240 243/243/243
f 243/243/243 246/246/246 241/241/241
f 131/131/131 138/138/138 247/247/247
f 247/247/247 244/244/244 131/131/131
f 137/137/137 248/248/248 247/247/247
f 247/247/247 138/138/138 137/137/137
f 5/5/5 249/249/249 247/247/247
f 247/247/247 248/248/248 5/5/5
f 245/245/245 244/244/244 247/247/247
f 247/247/247 249/249/249 245/245/245
f 137/137/137 144/144/144 250/250/250
f 250/250/250 248/248/248 137/137/137
f 143/143/143 251/251/251 250/250/250
f 250/250/250 144/144/144 143/143/143
f 7/7/7 6/6/6 250/250/250
f 250/250/250 251/251/251 7/7/7
f 5/5/5 248/248/248 250/250/250
f 250/250/250 6/6/6 5/5/5
f 143/143/143 150/150/150 252/252/252
f 252/252/252 251/251/251 143/143/143
f 149/149/149 253/253/253 252/252/252
f 252/252/252 150/150/150 149/149/149
f 254/254/254 255/255/255 252/252/252
f 252/252/252 253/253/253 254/254/254
f 7/7/7 251/251/251 252/252/252
f 252/252/252 255/255/255 7/7/7
f 149/149/149 156/156/156 256/256/256
f 256/256/256 253/253/253 149/149/149
f 155/155/155 257/257/257 256/256/256
f 256/256/256 156/156/156 155/155/155
f 258/258/258 259/259/259 256/256/256
f 256/256/256 257/257/257 258/258/258
f 254/254/254 253/253/253 256/256/256
f 256/256/256 259/259/259 254/254/254
f 155/155/155 162/162/162 260/260/260
f 260/260/260 257/257/257 155/155/155
f 161/161/161 261/261/261 260/260/260
f 260/260/260 162/162/162 161/161/161
f 262/262/262 263/263/263 260/260/260
f 260/260/260 261/261/261 262/262/262
f 258/258/258 257/257/257 260/260/260
f 260/260/260 263/263/263 258/258/258
f 161/161/161 165/165/165 264/264/264
f 264/264/264 261/261/261 161/161/161
f 16/16/16 166/166/166 264/264/264
f 264/264/264 165/165/165 16/16/16
f 168/168/168 265/265/265 264/264/264
f 264/264/264 166/166/166 168/168/168
f 262/262/262 261/261/261 264/264/264
f 264/264/264 265/265/265 262/262/262
f 168/168/168 172/172/172 266/266/266
f 266/266/266 267/267/267 168/168/168
f 171/171/171 268/268/268 266/266/266
f 266/266/266 172/172/172 171/171/171
f 269/269/269 267/267/267 266/266/266
f 266/266/266 268/268/268 269/269/269
f 215/215/215 220/220/220 270/270/270
f 270/270/270 271/271/271 215/215/215
f 219/219/219 224/224/224 270/270/270
f 270/270/270 220/220/220 219/219/219
f 223/223/223 228/228/228 270/270/270
f 270/270/270 224/224/224 223/223/223
f 227/227/227 272/272/272 270/270/270
f 270/270/270 228/228/228 227/227/227
f 273/273/273 271/271/271 270/270/270
f 270/270/270 272/272/272 273/273/273
f 200/200/200 207/207/207 274/274/274
f 274/274/274 275/275/275 200/200/200
f 206/206/206 276/276/276 274/274/274
f 274/274/274 207/207/207 206/206/206
f 277/277/277 275/275/275 274/274/274
f 274/274/274 276/276/276 277/277/277
f 5/5/5 2/2/2 278/278/278
f 278/278/278 279/279/279 5/5/5
f 1/1/1 195/195/195 278/278/278
f 278/278/278 2/2/2 1/1/1
f 194/194/194 201/201/201 278/278/278
f 278/278/278 195/195/195 194/194/194
f 200/200/200 279/279/279 278/278/278
f 278/278/278 201/201/201 200/200/200
f 258/258/258 263/263/263 280/280/280
f 280/280/280 281/281/281 258/258/258
f 262/262/262 282/282/282 280/280/280
f 280/280/280 263/263/263 262/262/262
f 269/269/269 281/281/281 280/280/280
f 280/280/280 282/282/282 269/269/269
f 179/179/179 185/185/185 283/283/283
f 283/283/283 284/284/284 179/179/179
f 7/7/7 285/285/285 283/283/283
f 283/283/283 185/185/185 7/7/7
f 269/269/269 284/284/284 283/283/283
f 283/283/283 285/285/285 269/269/269
f 269/269/269 285/285/285 286/286/286
f 286/286/286 287/287/287 269/269/269
f 7/7/7 255/255/255 286/286/286
f 286/286/286 285/285/285 7/7/7
f 254/254/254 287/287/287 286/286/286
f 286/286/286 255/255/255 254/254/254
f 171/171/171 176/176/176 288/288/288
f 288/288/288 268/268/268 171/171/171
f 175/175/175 289/289/289 288/288/288
f 288/288/288 176/176/176 175/175/175
f 269/269/269 268/268/268 288/288/288
f 288/288/288 289/289/289 269/269/269
f 262/262/262 265/265/265 290/290/290
f 290/290/290 282/282/282 262/262/262
f 168/168/168 267/267/267 290/290/290
f 290/290/290 265/265/265 168/168/168
f 269/269/269 282/282/282 290/290/290
f 290/290/290 267/267/267 269/269/269
f 269/269/269 289/289/289 291/291/291
f 291/291/291 284/284/284 269/269/269
f 175/175/175 180/180/180 291/291/291
f 291/291/291 289/289/289 175/175/175
f 179/179/179 284/284/284 291/291/291
f 291/291/291 180/180/180 179/179/179
f 254/254/254 259/259/259 292/292/292
f 292/292/292 287/287/287 254/254/254
f 258/258/258 281/281/281 292/292/292
f 292/292/292 259/259/259 258/258/258
f 269/269/269 287/287/287 292/292/292
f 292/292/292 281/281/281 269/269/269
f 227/227/227 232/232/232 293/293/293
f 293/293/293 272/272/272 227/227/227
f 231/231/231 236/236/236 293/293/293
f 293/293/293 232/232/232 231/231/231
f 235/235/235 294/294/294 293/293/293
f 293/293/293 236/236/236 235/235/235
f 273/273/273 272/272/272 293/293/293
f 293/293/293 294/294/294 273/273/273
f 273/273/273 295/295/295 296/296/296
f 296/296/296 297/297/297 273/273/273
f 245/245/245 249/249/249 296/296/296
f 296/296/296 295/295/295 245/245/245
f 5/5/5 297/297/297 296/296/296
f 296/296/296 249/249/249 5/5/5
f 273/273/273 298/298/298 299/299/299
f 299/299/299 271/271/271 273/273/273
f 211/211/211 216/216/216 299/299/299
f 299/299/299 298/298/298 211/211/211
f 215/215/215 271/271/271 299/299/299
f 299/299/299 216/216/216 215/215/215
f 235/235/235 242/242/242 300/300/300
f 300/300/300 294/294/294 235/235/235
f 241/241/241 246/246/246 300/300/300
f 300/300/300 242/242/242 241/241/241
f 245/245/245 295/295/295 300/300/300
f 300/300/300 246/246/246 245/245/245
f 273/273/273 294/294/294 300/300/300
f 300/300/300 295/295/295 273/273/273
f 12/12/12 9/9/9 301/301/301
f 301/301/301 302/302/302 12/12/12
f 8/8/8 303/303/303 301/301/301
f 301/301/301 9/9/9 8/8/8
f 19/19/19 17/17/17 304/304/304
f 304/304/304 305/305/305 19/19/19
f 12/12/12 302/302/302 304/304/304
f 304/304/304 17/17/17 12/12/12
f 8/8/8 163/163/163 306/306/306
f 306/306/306 303/303/303 8/8/8
f 159/159/159 307/307/307 306/306/306
f 306/306/306 163/163/163 159/159/159
f 25/25/25 23/23/23 308/308/308
f 308/308/308 309/309/309 25/25/25
f 19/19/19 305/305/305 308/308/308
f 308/308/308 23/23/23 19/19/19
f 31/31/31 29/29/29 310/310/310
f 310/310/310 311/311/311 31/31/31
f 25/25/25 309/309/309 310/310/310
f 310/310/310 29/29/29 25/25/25
f 37/37/37 35/35/35 312/312/312
f 312/312/312 313/313/313 37/37/37
f 31/31/31 311/311/311 312/312/312
f 312/312/312 35/35/35 31/31/31
f 159/159/159 157/157/157 314/314/314
f 314/314/314 307/307/307 159/159/159
f 153/153/153 315/315/315 314/314/314
f 314/314/314 157/157/157 153/153/153
f 153/153/153 151/151/151 316/316/316
f 316/316/316 315/315/315 153/153/153
f 147/147/147 317/317/317 316/316/316
f 316/316/316 151/151/151 147/147/147
f 147/147/147 145/145/145 318/318/318
f 318/318/318 317/317/317 147/147/147
f 141/141/141 319/319/319 318/318/318
f 318/318/318 145/145/145 141/141/141
f 320/320/320 321/321/321 322/322/322
f 322/322/322 323/323/323 320/320/320
f 37/37/37 313/313/313 322/322/322
f 322/322/322 321/321/321 37/37/37
f 141/141/141 139/139/139 324/324/324
f 324/324/324 319/319/319 141/141/141
f 135/135/135 325/325/325 324/324/324
f 324/324/324 139/139/139 135/135/135
f 326/326/326 327/327/327 328/328/328
f 328/328/328 329/329/329 326/326/326
f 320/320/320 323/323/323 328/328/328
f 328/328/328 327/327/327 320/320/320
f 330/330/330 331/331/331 332/332/332
f 332/332/332 333/333/333 330/330/330
f 326/326/326 329/329/329 332/332/332
f 332/332/332 331/331/331 326/326/326
f 334/334/334 335/335/335 336/336/336
f 336/336/336 337/337/337 334/334/334
f 330/330/330 333/333/333 336/336/336
f 336/336/336 335/335/335 330/330/330
f 338/338/338 339/339/339 340/340/340
f 340/340/340 341/341/341 338/338/338
f 334/334/334 337/337/337 340/340/340
f 340/340/340 339/339/339 334/334/334
f 135/135/135 133/133/133 342/342/342
f 342/342/342 325/325/325 135/135/135
f 129/129/129 343/343/343 342/342/342
f 342/342/342 133/133/133 129/129/129
f 344/344/344 345/345/345 346/346/346
f 346/346/346 347/347/347 344/344/344
f 338/338/338 341/341/341 346/346/346
f 346/346/346 345/345/345 338/338/338
f 83/83/83 348/348/348 349/349/349
f 349/349/349 350/350/350 83/83/83
f 344/344/344 347/347/347 349/349/349
f 349/349/349 348/348/348 344/344/344
f 87/87/87 84/84/84 351/351/351
f 351/351/351 352/352/352 87/87/87
f 83/83/83 350/350/350 351/351/351
f 351/351/351 84/84/84 83/83/83
f 93/93/93 91/91/91 353/353/353
f 353/353/353 354/354/354 93/93/93
f 87/87/87 352/352/352 353/353/353
f 353/353/353 91/91/91 87/87/87
f 99/99/99 97/97/97 355/355/355
f 355/355/355 356/356/356 99/99/99
f 93/93/93 354/354/354 355/355/355
f 355/355/355 97/97/97 93/93/93
f 105/105/105 103/103/103 357/357/357
f 357/357/357 358/358/358 105/105/105
f 99/99/99 356/356/356 357/357/357
f 357/357/357 103/103/103 99/99/99
f 129/129/129 127/127/127 359/359/359
f 359/359/359 343/343/343 129/129/129
f 123/123/123 360/360/360 359/359/359
f 359/359/359 127/127/127 123/123/123
f 123/123/123 121/121/121 361/361/361
f 361/361/361 360/360/360 123/123/123
f 117/117/117 362/362/362 361/361/361
f 361/361/361 121/121/121 117/117/117
f 111/111/111 109/109/109 363/363/363
f 363/363/363 364/364/364 111/111/111
f 105/105/105 358/358/358 363/363/363
f 363/363/363 109/109/109 105/105/105
f 117/117/117 115/115/115 365/365/365
f 365/365/365 362/362/362 117/117/117
f 111/111/111 364/364/364 365/365/365
f 365/365/365 115/115/115 111/111/111
f 273/273/273 297/297/297 366/366/366
f 366/366/366 367/367/367 273/273/273
f 5/5/5 368/368/368 366/366/366
f 366/366/366 297/297/297 5/5/5
f 277/277/277 367/367/367 366/366/366
f 366/366/366 368/368/368 277/277/277
f 206/206/206 212/212/212 369/369/369
f 369/369/369 276/276/276 206/206/206
f 211/211/211 298/298/298 369/369/369
f 369/369/369 212/212/212 211/211/211
f 273/273/273 367/367/367 369/369/369
f 369/369/369 298/298/298 273/273/273
f 277/277/277 276/276/276 369/369/369
f 369/369/369 367/367/367 277/277/277
f 5/5/5 279/279/279 370/370/370
f 370/370/370 368/368/368 5/5/5
f 200/200/200 275/275/275 370/370/370
f 370/370/370 279/279/279 200/200/200
f 277/277/277 368/368/368 370/370/370
f 370/370/370 275/275/275 277/277/277
f 75/75/75 82/82/82 371/371/371
f 371/371/371 76/76/76 75/75/75
f 81/81/81 208/208/208 371/371/371
f 371/371/371 82/82/82 81/81/81
f 204/204/204 372/372/372 371/371/371
f 371/371/371 208/208/208 204/204/204
f 69/69/69 76/76/76 371/371/371
f 371/371/371 372/372/372 69/69/69
f 69/69/69 372/372/372 373/373/373
f 373/373/373 70/70/70 69/69/69
f 204/204/204 202/202/202 373/373/373
f 373/373/373 372/372/372 204/204/204
f 198/198/198 374/374/374 373/373/373
f 373/373/373 202/202/202 198/198/198
f 63/63/63 70/70/70 373/373/373
f 373/373/373 374/374/374 63/63/63
f 63/63/63 374/374/374 375/375/375
f 375/375/375 64/64/64 63/63/63
f 198/198/198 196/196/196 375/375/375
f 375/375/375 374/374/374 198/198/198
f 192/192/192 376/376/376 375/375/375
f 375/375/375 196/196/196 192/192/192
f 57/57/57 64/64/64 375/375/375
f 375/375/375 376/376/376 57/57/57
f 57/57/57 376/376/376 377/377/377
f 377/377/377 58/58/58 57/57/57
f 192/192/192 190/190/190 377/377/377
f 377/377/377 376/376/376 192/192/192
f 188/188/188 378/378/378 377/377/377
f 377/377/377 190/190/190 188/188/188
f 51/51/51 58/58/58 377/377/377
f 377/377/377 378/378/378 51/51/51
f 51/51/51 378/378/378 379/379/379
f 379/379/379 52/52/52 51/51/51
f 188/188/188 186/186/186 379/379/379
f 379/379/379 378/378/378 188/188/188
f 183/183/183 380/380/380 379/379/379
f 379/379/379 186/186/186 183/183/183
f 45/45/45 52/52/52 379/379/379
f 379/379/379 380/380/380 45/45/45
f 45/45/45 380/380/380 381/381/381
f 381/381/381 46/46/46 45/45/45
f 183/183/183 181/181/181 381/381/381
f 381/381/381 380/380/380 183/183/183
f 39/39/39 46/46/46 381/381/381
f 381/381/381 181/181/181 39/39/39
f 75/75/75 72/72/72 382/382/382
f 382/382/382 80/80/80 75/75/75
f 71/71/71 383/383/383 382/382/382
f 382/382/382 72/72/72 71/71/71
f 77/77/77 80/80/80 382/382/382
f 382/382/382 383/383/383 77/77/77
f 39/39/39 38/38/38 384/384/384
f 384/384/384 44/44/44 39/39/39
f 37/37/37 321/321/321 384/384/384
f 384/384/384 38/38/38 37/37/37
f 320/320/320 385/385/385 384/384/384
f 384/384/384 321/321/321 320/320/320
f 41/41/41 44/44/44 384/384/384
f 384/384/384 385/385/385 41/41/41
f 41/41/41 385/385/385 386/386/386
f 386/386/386 50/50/50 41/41/41
f 320/320/320 327/327/327 386/386/386
f 386/386/386 385/385/385 320/320/320
f 326/326/326 387/387/387 386/386/386
f 386/386/386 327/327/327 326/326/326
f 47/47/47 50/50/50 386/386/386
f 386/386/386 387/387/387 47/47/47
f 47/47/47 387/387/387 388/388/388
f 388/388/388 56/56/56 47/47/47
f 326/326/326 331/331/331 388/388/388
f 388/388/388 387/387/387 326/326/326
f 330/330/330 389/389/389 388/388/388
f 388/388/388 331/331/331 330/330/330
f 53/53/53 56/56/56 388/388/388
f 388/388/388 389/389/389 53/53/53
f 53/53/53 389/389/389 390/390/390
f 390/390/390 62/62/62 53/53/53
f 330/330/330 335/335/335 390/390/390
f 390/390/390 389/389/389 330/330/330
f 334/334/334 391/391/391 390/390/390
f 390/390/390 335/335/335 334/334/334
f 59/59/59 62/62/62 390/390/390
f 390/390/390 391/391/391 59/59/59
f 59/59/59 391/391/391 392/392/392
f 392/392/392 68/68/68 59/59/59
f 334/334/334 339/339/339 392/392/392
f 392/392/392 391/391/391 334/334/334
f 338/338/338 393/393/393 392/392/392
f 392/392/392 339/339/339 338/338/338
f 65/65/65 68/68/68 392/392/392
f 392/392/392 393/393/393 65/65/65
f 65/65/65 393/393/393 394/394/394
f 394/394/394 74/74/74 65/65/65
f 338/338/338 345/345/345 394/394/394
f 394/394/394 393/393/393 338/338/338
f 344/344/344 395/395/395 394/394/394
f 394/394/394 345/345/345 344/344/344
f 71/71/71 74/74/74 394/394/394
f 394/394/394 395/395/395 71/71/71
f 71/71/71 395/395/395 396/396/396
f 396/396/396 383/383/383 71/71/71
f 344/344/344 348/348/348 396/396/396
f 396/396/396 395/395/395 344/344/344
f 83/83/83 86/86/86 396/396/396
f 396/396/396 348/348/348 83/83/83
f 77/77/77 383/383/383 396/396/396
f 396/396/396 86/86/86 77/77/77
