# Blender v2.79 (sub 0) OBJ File: ''
# www.blender.org
mtllib untitled.mtl
o damagedcrate
v 1.046407 0.200146 0.211050
v 1.174666 -0.001433 0.356916
v 1.193264 -0.000714 0.275269
v 1.268297 -0.001429 0.245391
v 1.399210 0.200146 0.228118
v 1.279637 0.205610 0.144863
v 1.337180 -0.001430 0.344174
v 1.561127 -0.001431 0.375042
v 1.611924 0.200146 0.206157
v 1.645411 -0.001431 0.252174
v 1.813579 -0.001431 0.266387
v 1.917612 0.200146 -0.054339
v 1.977082 -0.001432 0.185856
v 1.997697 0.200146 -0.039521
v 2.121286 0.072984 0.021734
v 2.113508 -0.001432 -0.010405
v 1.863748 -0.001432 -0.627948
v 1.963647 -0.001432 -0.629601
v 1.778891 -0.001432 -0.697427
v 1.678140 -0.001432 -0.753804
v 1.609838 -0.001432 -0.887948
v 1.058044 -0.001433 0.308506
v 1.368673 -0.000716 -0.696641
v 1.005314 -0.001433 -0.588342
v 0.821295 -0.001433 -0.591831
v 0.911591 -0.001433 -0.636522
v 0.702888 -0.001433 -0.586916
v 0.762992 -0.001433 -0.638983
v 0.964109 -0.001433 0.492400
v 1.036445 -0.001433 -0.711944
v 1.240091 -0.001433 -0.785514
v 1.089231 -0.001433 -0.785168
v -0.147006 0.537249 1.316347
v -0.154857 0.499123 1.487779
v -0.064274 0.522727 1.487779
v -0.043659 0.556292 1.316347
v 0.170620 0.550661 1.316347
v 0.223431 0.526782 1.487779
v 0.192517 0.565514 1.316347
v 0.359660 0.618514 1.487779
v 0.372848 0.675276 1.316347
v 0.428139 0.625897 1.316347
v 0.191234 0.570819 1.276718
v 0.166339 0.553060 1.276728
v -0.053518 0.564059 1.276731
v -0.150432 0.538701 1.276748
v 0.491610 0.653674 1.487779
v 0.913134 -0.001752 0.977871
v 0.955681 -0.001752 0.907409
v 1.036009 -0.001752 0.948036
v 0.807755 -0.001752 1.214671
v 0.787838 -0.001752 1.028863
v 0.749994 -0.001752 1.174745
v 0.911871 -0.001752 1.599269
v 0.768834 -0.001752 1.641462
v 0.822939 -0.001752 1.549746
v 0.794276 -0.001752 1.401611
v 1.077405 -0.001752 1.580959
v 1.243665 -0.001752 1.334690
v 1.293266 -0.001752 1.125790
v 1.208780 -0.001752 0.990242
v 1.072600 -0.001752 0.922215
v 0.748998 -0.001752 1.459917
v 0.963397 -0.001752 1.625284
v 1.160086 -0.001752 1.634290
v 1.101866 -0.001752 1.615057
v 1.249568 -0.001752 1.475858
v 0.630474 0.653674 1.419465
v 0.706021 0.653674 1.296962
v 0.668131 0.682268 1.268486
v 0.588388 0.612114 1.487779
v 0.476518 0.687878 1.230742
v 0.546932 0.696420 1.106146
v 0.706021 0.653674 1.086321
v 0.546932 0.692891 1.005356
v 1.287904 0.180058 -1.371826
v 1.073683 0.222431 -1.207039
v 1.079430 0.213082 -1.157043
v 1.370955 0.131251 -1.321633
v 1.458201 0.088000 -1.260360
v 1.411778 0.123706 -1.354064
v 1.468491 0.074613 -1.196956
v 1.354723 0.094844 -0.973457
v 1.165501 0.127365 -0.831266
v 0.880725 0.327656 -1.010788
v 1.010731 0.136385 -0.732821
v 0.830945 0.377220 -0.904094
v 0.841922 0.379641 -1.010467
v 0.802930 0.496985 -0.888789
v 0.843685 0.371122 -0.794415
v 0.850616 0.365506 -0.740287
v 0.870870 0.268682 -0.776050
v 0.874956 0.280469 -0.707737
v 0.193574 0.085848 1.275610
v -0.006774 0.085847 1.275884
v -0.207123 0.085847 1.276157
v -0.205155 0.637392 1.276695
v -0.178853 0.627259 1.276700
v 1.200061 0.202550 0.143890
v 1.047353 0.200949 -0.509812
v 1.216942 0.200801 -0.631778
v 1.074837 0.200146 -0.729963
v 1.032958 0.200146 -0.601787
v 1.200148 0.200857 -0.562412
v 0.893200 0.200146 -0.646150
v 0.810868 0.200146 -0.591215
v 1.038783 0.200146 0.350486
v 1.429397 0.200931 -0.740310
v 1.287687 0.200146 -0.832095
v 1.149597 0.200146 -0.830959
v 1.258584 0.203249 0.132852
v 1.356305 0.201709 0.154300
v 1.567397 0.200716 0.050912
v 1.767507 0.200716 0.006199
v 1.816178 0.200906 0.015793
v 1.622651 0.200721 -0.785004
v 1.809864 0.200146 -0.815614
v 1.670461 0.200146 -0.902775
v 1.592754 0.201506 -0.757533
v 1.514687 0.200716 -0.584549
v 1.420402 0.200730 -0.576790
v 1.301303 0.200769 -0.652460
v 1.717025 0.200716 -0.057155
v 1.673835 0.200716 -0.056895
v 1.496491 0.200716 0.027844
v 1.420463 0.200716 0.041067
v 0.760192 0.250112 -0.800940
v 0.746652 0.328013 -0.745269
v 0.738491 0.337701 -0.801584
v 0.771790 0.243584 -0.703455
v 0.761254 0.262438 -0.760840
v 0.908770 0.091453 -0.743005
v 1.091978 0.044926 -0.855355
v 0.701045 0.453629 -0.887597
v 0.725003 0.350825 -0.901619
v 0.795976 0.259860 -1.024277
v 1.023020 0.121219 -1.175713
v 1.359632 0.003949 -1.243377
v 1.280992 0.011617 -0.990578
v 1.401907 0.000067 -1.203029
v 1.397987 0.005963 -1.233380
v 0.751787 0.318962 -1.022309
v 1.270557 0.058529 -1.314614
v 1.343397 0.032435 -1.329773
v 1.165359 0.119765 -1.373632
v 1.018827 0.132241 -1.244931
v -0.546939 0.648300 -0.918898
v -0.546939 0.720317 -0.893465
v -0.546939 0.552479 -0.893727
v -0.546939 0.720317 1.106146
v -0.546939 0.085847 1.106146
v -0.546939 0.085847 0.000054
v -0.546939 0.085847 -1.106038
v -0.546939 0.720317 -1.106038
v -0.546939 0.645414 -0.997675
v -0.546939 0.720317 -1.012972
v 1.946065 0.072984 -0.702247
v 1.866544 0.159209 -0.726092
v -0.706021 0.653674 -1.296962
v -0.619346 0.653674 -1.437510
v -0.588434 0.567837 -1.487779
v -0.613977 0.483045 -1.446501
v -0.706021 -0.000000 -1.296952
v -0.588616 0.390840 -1.487779
v -0.589018 -0.000000 -1.487779
v -0.706021 0.563136 -0.961942
v -0.706021 0.653674 1.296962
v -0.706021 0.653674 -0.938334
v -0.706021 0.461022 -0.936670
v -0.706021 -0.000000 1.296952
v -0.706021 -0.000000 0.000000
v -0.706021 0.563283 -1.028023
v -0.706021 0.653674 -1.049847
v 0.589018 0.000000 1.487779
v -0.000000 0.000000 1.487779
v -0.589018 -0.000000 1.487779
v -0.588346 0.653674 1.487779
v -0.186700 0.589061 1.487779
v -0.240081 0.653674 1.487779
v 0.706021 0.000000 1.296952
v 0.706021 0.434974 0.949492
v 0.706021 0.000000 -0.000000
v 0.706021 0.000000 -1.296952
v 0.706021 0.476489 0.921184
v 0.706021 0.653674 -1.296962
v 0.706021 0.653674 1.023853
v -0.428146 0.455517 -1.317378
v -0.491787 0.501175 -1.487779
v -0.541977 0.485853 -1.487779
v -0.343343 0.590108 -1.317372
v -0.424228 0.653674 -1.487779
v -0.340018 0.720317 -1.412843
v -0.298247 0.720317 -1.317371
v -0.453102 0.426816 -1.272980
v -0.471857 0.341557 -1.239612
v -0.206147 0.621549 -1.317366
v -0.170539 0.629709 -1.317364
v -0.204095 0.671658 -1.317366
v -0.156067 0.552985 -1.317363
v -0.177855 0.552657 -1.317364
v -0.206201 0.565971 -1.317408
v -0.222641 0.720317 -1.317367
v -0.191514 0.703036 -1.317365
v -0.428145 0.085847 -1.317378
v -0.207340 0.085847 -1.317408
v 0.834420 0.107138 0.960828
v 0.774399 0.107138 1.185994
v 0.818154 0.107138 1.212557
v 0.936180 0.107138 0.922830
v 0.829364 0.107138 1.555070
v 0.765502 0.107138 1.661297
v 0.921593 0.107138 1.616083
v 0.968768 0.107138 1.644083
v 1.110850 0.107138 1.596398
v 1.270193 0.107138 1.460488
v 0.799308 0.107138 1.410465
v 1.271147 0.107138 1.321656
v 1.315405 0.107138 1.108210
v 1.216851 0.107138 0.971710
v 1.049822 0.107138 0.888273
v 0.941137 0.107138 0.868320
v 0.758417 0.107138 1.460826
v 1.158382 0.107138 1.647026
v 1.212923 0.312662 0.139089
v 1.345197 0.312662 0.110234
v 1.401582 0.312662 0.025499
v 1.521387 0.312662 0.004513
v 1.589460 0.312662 -0.069567
v 1.191497 0.312662 -0.579700
v 1.059347 0.312662 -0.495459
v 1.413548 0.312662 -0.621358
v 1.503623 0.312662 -0.619307
v 1.657182 0.312662 -0.069348
v 1.621055 0.312662 -0.737585
v 1.810132 0.312277 0.044884
v 1.737953 0.312662 0.028843
v 1.305621 0.312662 -0.709062
v 1.216851 0.312662 -0.689216
v -0.483807 0.107138 -2.010172
v -0.552421 0.107137 -2.010655
v -0.638538 0.107137 -1.891275
v -0.408955 0.107138 -2.004982
v -0.468609 0.107138 -2.041228
v -0.375899 0.107138 -1.699370
v -0.407718 0.107138 -1.617645
v -0.709846 0.107138 -1.732666
v -0.515706 0.107138 -1.532722
v -0.750799 0.107138 -1.612751
v -0.301723 0.107138 -1.815382
v -0.329159 0.107138 -1.918133
v 0.617711 0.720317 -1.230457
v 0.617711 0.720317 -0.661786
v 0.671430 0.679778 -0.510907
v 0.617711 0.720317 -0.312595
v 0.617711 0.720317 0.999915
v -0.490920 0.425409 -1.205698
v -0.467846 0.498146 -1.246749
v -0.494348 0.561749 -1.199600
v -0.469438 0.660827 -1.243916
v -0.436739 0.720317 -1.302090
v -0.192749 0.720317 -1.412843
v -0.192445 0.685170 -1.452364
v -0.160395 0.653674 -1.487779
v -0.128902 0.488831 -1.487779
v -0.147118 0.455803 -1.487778
v -0.141571 0.476126 -1.317363
v -0.164747 0.447337 -1.317364
v -0.166681 0.448350 -1.277449
v -0.143336 0.484099 -1.277661
v -0.617711 0.720317 -0.889545
v 0.546932 0.489599 0.881689
v -0.744366 -0.001752 -1.623708
v -0.511833 -0.001752 -1.539856
v -0.423351 -0.001752 -1.613217
v -0.395053 -0.001752 -1.697864
v -0.318747 -0.001752 -1.809991
v -0.338094 -0.001752 -1.909013
v -0.403153 -0.001752 -1.979821
v -0.430562 -0.001752 -1.972820
v -0.468825 -0.001752 -2.014883
v 0.743424 0.131865 -0.628011
v 0.699361 0.072983 -0.601490
v 0.546932 0.720317 -0.688497
v 0.546932 0.620363 -0.487916
v 0.546932 0.720317 -0.304641
v -0.509800 -0.001752 -1.982875
v -0.715200 -0.001752 -1.735323
v -0.650409 -0.001752 -1.903408
v -0.595231 -0.001752 -1.980988
v -0.428145 0.085847 1.316347
v -0.205830 0.085847 1.316347
v -0.000003 0.085847 0.000069
v -0.000003 0.085847 -1.106009
v -0.000004 0.085847 1.106146
v -0.207635 0.085847 -1.277226
v -0.007027 0.085847 -1.277357
v 0.193581 0.085848 -1.277489
v 0.546932 0.085848 -1.105980
v 0.546932 0.085848 0.000083
v 0.546932 0.085848 0.553115
v 0.546932 0.085848 1.106146
v 0.428139 0.085848 1.316347
v 0.193146 0.085848 1.316347
v 0.428139 0.085848 -1.317332
v 0.193124 0.085848 -1.317397
v -0.428146 0.720317 1.316347
v -0.472441 0.679651 1.237968
v 0.163936 0.778806 1.535527
v 0.174289 0.835168 1.531806
v 0.200438 0.777623 1.419504
v 0.190086 0.721260 1.423225
v 0.276723 0.734521 1.313545
v 0.266370 0.678159 1.317266
v 0.506075 0.712107 1.223108
v 0.506075 0.654681 1.223108
v 0.158084 0.629269 -1.317433
v 0.172178 0.720317 -1.317346
v 0.166258 0.720318 -1.412843
v 0.172225 0.653674 -1.487779
v 0.086721 0.492285 -1.487779
v 0.069686 0.487442 -1.317351
v -0.024294 0.447996 -1.487778
v -0.026274 0.451842 -1.317357
v -0.025999 0.451763 -1.277447
v 0.067915 0.485510 -1.277623
v 0.165304 0.627259 -1.277803
v 0.546932 0.720317 0.950085
v 0.546932 0.537517 0.846049
v 0.546932 0.554905 1.106146
v 0.546932 0.720317 -1.105980
v -0.537334 0.720317 -1.369622
v -0.617711 0.720317 -1.230178
v -0.617711 0.720317 -1.037726
v 0.253156 0.715559 -1.221053
v 0.506075 0.715559 -1.221053
v 0.474734 0.715559 -1.274874
v 0.237486 0.715559 -1.274874
v 0.117638 0.715558 -1.257103
v 0.127920 0.715558 -1.310510
v 0.000237 0.720948 -1.272843
v 0.000237 0.720948 -1.326663
v -0.126662 0.732037 -1.274806
v -0.117946 0.732037 -1.221121
v -0.237011 0.715559 -1.274874
v -0.252681 0.715559 -1.221053
v -0.474259 0.715558 -1.274874
v -0.505600 0.715558 -1.221053
v -0.630669 0.670466 1.367745
v -0.620818 0.717018 1.231294
v -0.567725 0.671773 1.467427
v -0.117160 0.638963 1.463309
v -0.117160 0.696389 1.463308
v -0.169361 0.696389 1.476413
v -0.169361 0.638963 1.476413
v -0.474259 0.654681 1.276929
v -0.474259 0.712107 1.276929
v -0.505600 0.712107 1.223108
v -0.505600 0.654681 1.223108
v 0.215988 0.769932 1.545946
v 0.226341 0.826295 1.542226
v -0.505600 0.647622 -1.221053
v -0.474259 0.647622 -1.274874
v 0.191606 0.637392 -1.277798
v 0.193317 0.641781 -1.317397
v -0.159458 0.554082 -1.277831
v -0.204783 0.570818 -1.277821
v 0.474734 0.712107 1.276929
v 0.474734 0.654681 1.276929
v -0.205900 0.648633 1.316347
v 0.933933 0.072983 0.367721
v 0.512296 0.720318 -1.412843
v 0.588345 0.653674 -1.487779
v 0.428139 0.720317 -1.317332
v 0.589018 0.000000 -1.487779
v -0.182044 0.634933 1.316347
v -0.455457 0.662455 1.477905
v -0.345405 0.720317 1.316347
v -0.336232 0.670333 1.469047
v -0.179888 0.553060 -1.277831
v -0.252681 0.647622 -1.221053
v -0.237011 0.647622 -1.274874
v -0.117946 0.664101 -1.221121
v -0.126662 0.664101 -1.274806
v 0.000238 0.653012 -1.272843
v 0.000237 0.653012 -1.326663
v 0.127920 0.647622 -1.310510
v 0.117638 0.647622 -1.257103
v 0.237486 0.647622 -1.274874
v 0.253156 0.647622 -1.221053
v 0.474734 0.647622 -1.274874
v 0.506075 0.647622 -1.221053
v 0.000000 0.000000 0.000000
v 0.000000 0.000000 -1.487779
v -0.589018 -0.000000 0.000000
v 0.589018 0.000000 -0.000000
v -0.206225 0.714020 1.380774
v -0.170131 0.714020 1.345800
v -0.260699 0.731650 1.307426
v -0.257807 0.731650 1.251445
v 0.194327 0.720317 -1.317345
v -0.260699 0.674223 1.307426
v -0.206225 0.656593 1.380774
v 0.309339 0.731533 1.359038
v 0.239099 0.772990 1.456901
v 0.228746 0.716627 1.460622
v 0.298986 0.675171 1.362759
v -0.170131 0.656593 1.345800
v -0.257807 0.674223 1.251445
vt 0.129028 -0.579102
vt 0.089050 -0.602051
vt 0.089050 -0.616699
vt 0.089050 -0.643066
vt 0.129028 -0.675293
vt 0.129028 -0.631348
vt 0.089050 -0.657715
vt 0.089050 -0.690430
vt 0.129028 -0.710449
vt 0.089050 -0.713379
vt 0.089050 -0.737793
vt 0.129028 -0.777832
vt 0.089050 -0.768555
vt 0.129028 -0.803223
vt 0.104919 -0.821777
vt 0.089050 -0.826172
vt 0.147705 -0.763672
vt 0.148560 -0.768555
vt 0.182251 -0.768555
vt 0.190186 -0.759277
vt 0.191895 -0.750488
vt 0.189331 -0.742676
vt 0.143311 -0.760254
vt 0.138916 -0.755859
vt 0.194580 -0.737305
vt 0.190186 -0.726563
vt 0.184814 -0.725098
vt 0.184814 -0.720703
vt 0.138306 -0.754883
vt 0.184692 -0.714844
vt 0.141846 -0.737305
vt 0.141479 -0.722168
vt 0.137939 -0.713379
vt 0.137085 -0.717773
vt 0.189331 -0.718750
vt 0.135376 -0.707520
vt 0.134399 -0.710938
vt 0.193726 -0.707520
vt 0.136230 -0.725098
vt 0.136230 -0.735840
vt 0.133545 -0.728516
vt 0.058319 -0.530762
vt 0.003693 -0.527344
vt 0.003693 -0.554688
vt 0.058319 -0.560547
vt 0.058319 -0.619141
vt 0.003693 -0.633301
vt 0.058319 -0.626465
vt 0.003693 -0.675781
vt 0.058319 -0.682129
vt 0.058319 -0.726074
vt 0.072205 -0.626953
vt 0.072205 -0.618164
vt 0.072205 -0.559082
vt 0.072205 -0.529297
vt 0.003693 -0.700684
vt 0.049530 -0.088989
vt 0.039795 -0.088745
vt 0.039856 -0.102539
vt 0.075562 -0.078430
vt 0.053009 -0.073792
vt 0.072205 -0.070190
vt 0.120667 -0.094666
vt 0.127197 -0.076843
vt 0.115845 -0.082825
vt 0.097351 -0.077881
vt 0.116211 -0.114319
vt 0.084961 -0.132446
vt 0.060120 -0.135620
vt 0.043243 -0.124573
vt 0.036072 -0.106812
vt 0.105164 -0.073364
vt 0.123047 -0.100586
vt 0.121704 -0.124512
vt 0.119995 -0.116943
vt 0.102051 -0.133789
vt 0.003693 -0.762695
vt 0.003693 -0.797363
vt 0.016373 -0.796387
vt 0.003693 -0.731934
vt 0.058319 -0.782227
vt 0.058319 -0.823242
vt 0.003693 -0.836426
vt 0.058319 -0.847168
vt 0.693359 -0.895996
vt 0.629883 -0.897461
vt 0.624023 -0.908203
vt 0.706055 -0.920410
vt 0.716797 -0.950195
vt 0.718750 -0.919922
vt 0.711426 -0.963379
vt 0.660156 -0.993652
vt 0.602539 -0.994629
vt 0.562500 -0.902832
vt 0.559570 -0.993652
vt 0.535645 -0.916992
vt 0.551270 -0.894043
vt 0.510742 -0.899414
vt 0.521484 -0.939941
vt 0.515625 -0.951660
vt 0.538086 -0.959961
vt 0.525879 -0.971680
vt 0.374023 -0.447998
vt 0.383057 -0.287598
vt 0.374023 -0.281494
vt 0.455078 -0.283447
vt 0.487061 -0.291992
vt 0.439941 -0.447998
vt 0.505371 -0.447998
vt 0.505371 -0.258789
vt 0.496338 -0.262207
vt 0.355469 -0.501953
vt 0.318115 -0.509277
vt 0.317383 -0.649902
vt 0.302246 -0.506836
vt 0.273926 -0.666016
vt 0.299316 -0.693848
vt 0.315674 -0.668945
vt 0.281250 -0.653809
vt 0.344482 -0.685059
vt 0.364258 -0.677734
vt 0.364258 -0.474365
vt 0.221680 -0.677734
vt 0.248779 -0.705078
vt 0.277588 -0.711914
vt 0.304443 -0.510742
vt 0.285156 -0.498535
vt 0.279541 -0.479248
vt 0.233887 -0.506348
vt 0.232544 -0.471924
vt 0.187866 -0.506348
vt 0.177002 -0.501953
vt 0.151245 -0.511719
vt 0.177124 -0.677246
vt 0.135010 -0.674316
vt 0.160278 -0.699707
vt 0.185059 -0.673340
vt 0.211304 -0.641602
vt 0.232178 -0.644531
vt 0.254395 -0.666504
vt 0.135010 -0.504395
vt 0.195190 -0.521484
vt 0.204590 -0.523438
vt 0.248169 -0.514648
vt 0.264893 -0.516113
vt 0.116211 -0.114319
vt 0.123047 -0.100586
vt 0.120667 -0.094666
vt 0.121704 -0.124512
vt 0.119995 -0.116943
vt 0.102051 -0.133789
vt 0.084961 -0.132446
vt 0.127197 -0.076843
vt 0.115845 -0.082825
vt 0.097351 -0.077881
vt 0.075562 -0.078430
vt 0.039856 -0.102539
vt 0.060120 -0.135620
vt 0.043243 -0.124573
vt 0.036072 -0.106812
vt 0.105164 -0.073364
vt 0.049530 -0.088989
vt 0.039795 -0.088745
vt 0.053009 -0.073792
vt 0.072205 -0.070190
vt 0.693359 -0.840332
vt 0.715332 -0.833496
vt 0.661621 -0.833496
vt 0.715332 -0.303223
vt 0.512207 -0.303223
vt 0.512207 -0.596680
vt 0.512207 -0.890137
vt 0.715332 -0.890137
vt 0.693359 -0.860840
vt 0.715332 -0.865234
vt 0.370850 -0.645020
vt 0.419678 -0.669922
vt 0.419678 -0.505859
vt 0.387207 -0.495117
vt 0.370850 -0.475098
vt 0.449219 -0.682129
vt 0.490479 -0.682129
vt 0.504883 -0.650879
vt 0.492432 -0.621582
vt 0.449219 -0.455566
vt 0.504883 -0.590332
vt 0.504883 -0.455566
vt 0.799805 -0.875977
vt 0.766602 -0.076721
vt 0.766602 -0.868652
vt 0.834473 -0.866699
vt 0.995117 -0.076721
vt 0.995117 -0.536133
vt 0.995117 -0.995605
vt 0.766602 -0.995605
vt 0.799805 -0.899902
vt 0.766602 -0.907227
vt 0.366943 -0.071289
vt 0.157471 -0.071289
vt 0.142944 -0.103699
vt 0.155640 -0.147095
vt 0.186890 -0.193604
vt 0.187988 -0.289063
vt 0.366943 -0.268311
vt 0.192139 -0.319824
vt 0.366943 -0.462402
vt 0.142944 -0.462402
vt 0.166260 -0.331055
vt 0.142944 -0.349121
vt 0.504883 -0.455566
vt 0.449219 -0.455566
vt 0.449219 -0.682129
vt 0.485107 -0.682129
vt 0.504883 -0.667480
vt 0.843750 -0.872559
vt 0.766602 -0.920410
vt 0.766602 -0.995605
vt 0.995117 -0.995605
vt 0.995117 -0.536133
vt 0.995117 -0.076721
vt 0.829102 -0.861328
vt 0.766602 -0.076721
vt 0.766602 -0.898438
vt 0.129028 -0.556641
vt 0.089050 -0.571289
vt 0.129028 -0.587891
vt 0.089050 -0.547363
vt 0.114929 -0.538086
vt 0.101746 -0.518066
vt 0.089050 -0.527344
vt 0.089050 -0.506836
vt 0.089050 -0.603027
vt 0.089050 -0.731445
vt 0.089050 -0.755371
vt 0.129028 -0.751953
vt 0.129028 -0.726074
vt 0.089050 -0.713379
vt 0.129028 -0.700195
vt 0.089050 -0.681641
vt 0.129028 -0.670898
vt 0.089050 -0.651855
vt 0.129028 -0.639648
vt 0.058319 -0.493896
vt 0.003693 -0.498291
vt 0.003693 -0.489502
vt 0.058319 -0.536133
vt 0.003693 -0.544922
vt 0.029617 -0.569336
vt 0.058319 -0.571289
vt 0.058319 -0.482910
vt 0.003693 -0.460693
vt 0.058319 -0.458496
vt 0.683594 -0.069458
vt 0.686035 -0.060455
vt 0.699707 -0.067200
vt 0.661133 -0.055939
vt 0.661133 -0.062683
vt 0.665527 -0.069458
vt 0.674805 -0.103271
vt 0.715332 -0.092041
vt 0.715332 -0.073975
vt 0.710938 -0.064941
vt 0.512207 -0.125854
vt 0.512207 -0.069458
vt 0.631836 -0.125854
vt 0.693359 -0.895996
vt 0.629883 -0.897461
vt 0.624023 -0.908203
vt 0.706055 -0.920410
vt 0.535645 -0.916992
vt 0.510742 -0.899414
vt 0.521484 -0.939941
vt 0.515625 -0.951660
vt 0.538086 -0.959961
vt 0.559570 -0.993652
vt 0.562500 -0.902832
vt 0.602539 -0.994629
vt 0.660156 -0.993652
vt 0.711426 -0.963379
vt 0.716797 -0.950195
vt 0.718750 -0.919922
vt 0.551270 -0.894043
vt 0.525879 -0.971680
vt 0.189331 -0.835938
vt 0.162720 -0.833984
vt 0.146729 -0.848145
vt 0.121948 -0.846680
vt 0.104187 -0.857422
vt 0.159180 -0.974121
vt 0.189331 -0.963867
vt 0.113037 -0.972656
vt 0.095337 -0.967285
vt 0.090576 -0.854492
vt 0.065186 -0.984863
vt 0.065186 -0.825195
vt 0.079346 -0.832520
vt 0.130859 -0.993652
vt 0.148560 -0.993652
vt 0.285156 -0.641602
vt 0.301514 -0.632324
vt 0.306152 -0.593262
vt 0.266602 -0.648926
vt 0.285156 -0.648926
vt 0.220093 -0.583984
vt 0.217773 -0.560547
vt 0.303711 -0.546387
vt 0.231812 -0.527832
vt 0.299072 -0.514160
vt 0.215454 -0.621094
vt 0.236450 -0.639648
vt 0.723633 -0.099060
vt 0.723633 -0.301514
vt 0.743652 -0.354980
vt 0.756836 -0.076721
vt 0.756836 -0.898438
vt 0.723633 -0.424805
vt 0.723633 -0.889160
vt 0.668457 -0.027771
vt 0.679199 -0.002741
vt 0.695801 -0.002741
vt 0.664551 -0.002741
vt 0.655273 -0.027771
vt 0.605469 -0.027771
vt 0.607422 -0.002741
vt 0.594727 -0.027771
vt 0.592773 -0.002741
vt 0.552246 -0.002741
vt 0.537598 -0.027771
vt 0.522949 -0.002741
vt 0.513672 -0.027771
vt 0.508301 -0.002741
vt 0.502441 -0.027771
vt 0.690430 -0.027771
vt 0.718262 -0.002741
vt 0.717285 -0.027771
vt 0.620605 -0.152954
vt 0.645508 -0.141602
vt 0.665527 -0.155151
vt 0.623047 -0.137085
vt 0.595703 -0.143921
vt 0.512207 -0.177734
vt 0.715332 -0.177734
vt 0.697266 -0.143921
vt 0.715332 -0.128052
vt 0.762695 -0.002741
vt 0.764160 -0.027771
vt 0.751953 -0.027771
vt 0.750488 -0.002741
vt 0.695801 -0.002741
vt 0.695801 -0.027771
vt 0.721191 -0.027771
vt 0.719727 -0.002741
vt 0.745117 -0.027771
vt 0.745117 -0.002741
vt 0.029221 -0.800293
vt 0.058319 -0.803223
vt 0.056824 -0.796875
vt 0.016083 -0.783691
vt 0.058319 -0.783691
vt 0.003693 -0.770508
vt 0.058319 -0.767578
vt 0.003693 -0.705566
vt 0.058319 -0.735840
vt 0.003693 -0.669434
vt 0.058319 -0.705078
vt 0.058319 -0.670410
vt 0.072205 -0.671875
vt 0.072205 -0.708984
vt 0.038086 -0.546387
vt 0.058563 -0.557129
vt 0.058563 -0.577148
vt 0.003864 -0.552246
vt 0.003864 -0.575684
vt 0.058563 -0.596680
vt 0.003864 -0.598145
vt 0.058319 -0.914063
vt 0.003693 -0.906738
vt 0.660645 -0.027771
vt 0.663574 -0.002741
vt 0.650391 -0.002741
vt 0.649414 -0.027771
vt 0.624512 -0.002741
vt 0.615723 -0.027771
vt 0.615234 -0.002741
vt 0.600586 -0.027771
vt 0.603516 -0.002741
vt 0.782715 -0.002741
vt 0.785645 -0.027771
vt 0.985840 -0.027771
vt 0.984375 -0.002741
vt 0.954590 -0.002741
vt 0.954590 -0.027771
vt 0.921875 -0.002741
vt 0.913086 -0.027771
vt 0.891602 -0.027771
vt 0.913086 -0.002741
vt 0.888184 -0.002741
vt 0.799316 -0.027771
vt 0.791016 -0.002741
vt 0.803711 -0.002741
vt 0.484131 -0.027771
vt 0.487793 -0.002741
vt 0.495361 -0.002741
vt 0.707520 -0.027771
vt 0.708008 -0.002741
vt 0.652832 -0.002741
vt 0.652832 -0.027771
vt 0.629883 -0.002741
vt 0.625488 -0.027771
vt 0.610840 -0.002741
vt 0.606445 -0.027771
vt 0.582031 -0.002741
vt 0.577637 -0.027771
vt 0.565430 -0.002741
vt 0.557129 -0.027771
vt 0.545410 -0.002741
vt 0.534180 -0.027771
vt 0.831055 -0.002741
vt 0.817871 -0.002741
vt 0.823242 -0.027771
vt 0.838379 -0.027771
vt 0.836914 -0.002741
vt 0.089050 -0.799805
vt 0.129028 -0.803223
vt 0.129028 -0.783203
vt 0.114929 -0.813965
vt 0.089050 -0.816406
vt 0.101746 -0.821289
vt 0.089050 -0.826172
vt 0.089050 -0.779297
vt 0.033234 -0.861328
vt 0.054382 -0.870117
vt 0.058533 -0.825195
vt 0.021500 -0.826660
vt 0.035217 -0.783691
vt 0.054077 -0.781250
vt 0.065002 -0.221802
vt 0.085083 -0.216431
vt 0.093750 -0.199707
vt 0.069336 -0.224854
vt 0.051514 -0.214111
vt 0.052277 -0.223145
vt 0.088379 -0.177002
vt 0.077454 -0.143677
vt 0.032684 -0.143188
vt 0.031616 -0.164063
vt 0.087952 -0.161011
vt 0.031860 -0.194946
vt 0.037079 -0.212280
vt 0.880859 -0.036438
vt 0.847656 -0.036438
vt 0.842285 -0.069641
vt 0.852051 -0.069641
vt 0.876465 -0.069641
vt 0.903320 -0.069641
vt 0.901367 -0.036438
vt 0.926758 -0.069641
vt 0.922852 -0.036438
vt 0.939453 -0.036438
vt 0.943359 -0.069641
vt 0.962891 -0.036438
vt 0.955078 -0.069641
vt 0.990234 -0.069641
vt 0.992676 -0.036438
vt 0.195068 -0.968750
vt 0.195068 -0.914551
vt 0.202759 -0.914551
vt 0.225952 -0.995605
vt 0.505859 -0.862305
vt 0.225952 -0.862305
vt 0.225952 -0.995605
vt 0.505859 -0.995605
vt 0.225952 -0.862305
vt 0.202759 -0.865234
vt 0.202759 -0.814453
vt 0.195068 -0.914551
vt 0.195068 -0.968750
vt 0.202759 -0.914551
vt 0.202759 -0.865234
vt 0.202759 -0.814453
vt 0.225952 -0.729492
vt 0.505859 -0.729492
vt 0.365967 -0.729492
vt 0.225952 -0.729492
vt 0.195068 -0.760254
vt 0.195068 -0.814453
vt 0.195068 -0.760254
vt 0.195068 -0.814453
vt 0.815430 -0.027771
vt 0.808105 -0.002741
vt 0.800781 -0.027771
vt 0.789551 -0.002741
vt 0.770508 -0.027771
vt 0.770996 -0.002741
vt 0.732422 -0.002741
vt 0.733398 -0.027771
vt 0.715332 -0.233154
vt 0.512207 -0.233154
vt 0.701660 -0.213013
vt 0.512207 -0.181274
vt 0.715332 -0.181274
vt 0.702148 -0.246460
vt 0.686523 -0.233154
vt 0.666016 -0.291992
vt 0.512207 -0.233154
vt 0.512207 -0.291992
vt 0.361328 -0.028046
vt 0.361328 -0.008293
vt 0.389893 -0.008293
vt 0.389893 -0.028046
vt 0.418457 -0.008293
vt 0.418457 -0.028046
vt 0.475342 -0.008293
vt 0.475342 -0.028046
vt 0.058319 -0.497803
vt 0.058319 -0.463867
vt 0.029129 -0.463867
vt 0.003693 -0.493164
vt 0.003693 -0.571289
vt 0.058319 -0.570801
vt 0.003693 -0.620605
vt 0.058319 -0.613281
vt 0.072205 -0.612793
vt 0.072205 -0.570313
vt 0.072205 -0.496582
vt 0.003693 -0.980957
vt 0.028763 -0.995117
vt 0.058319 -0.990234
vt 0.058319 -0.928223
vt 0.003693 -0.921387
vt 0.657227 -0.821777
vt 0.715332 -0.850098
vt 0.715332 -0.516602
vt 0.684082 -0.467773
vt 0.706543 -0.863281
vt 0.643555 -0.831055
vt 0.708984 -0.890137
vt 0.663574 -0.890137
vt 0.512207 -0.890137
vt 0.512207 -0.743652
vt 0.512207 -0.596680
vt 0.512207 -0.303223
vt 0.715332 -0.413818
vt 0.715332 -0.303223
vt 0.025772 -0.163574
vt 0.004231 -0.160522
vt 0.004231 -0.212158
vt 0.025772 -0.226563
vt 0.004231 -0.260254
vt 0.025772 -0.269775
vt 0.065063 -0.008293
vt 0.006264 -0.008293
vt 0.013550 -0.028046
vt 0.068726 -0.028046
vt 0.094482 -0.008293
vt 0.096313 -0.028046
vt 0.123901 -0.008293
vt 0.123901 -0.028046
vt 0.151489 -0.028046
vt 0.153320 -0.008293
vt 0.179077 -0.028046
vt 0.182739 -0.008293
vt 0.234253 -0.028046
vt 0.241577 -0.008293
vt 0.476318 -0.695801
vt 0.452881 -0.711914
vt 0.449219 -0.686523
vt 0.504883 -0.686523
vt 0.504883 -0.697266
vt 0.418457 -0.296631
vt 0.433594 -0.296631
vt 0.432861 -0.309082
vt 0.418213 -0.309082
vt 0.041779 -0.046112
vt 0.041779 -0.059723
vt 0.054413 -0.059723
vt 0.054413 -0.046112
vt 0.432861 -0.309082
vt 0.433594 -0.296631
vt 0.418457 -0.296631
vt 0.418213 -0.309082
vt 0.041779 -0.059723
vt 0.054413 -0.059723
vt 0.054413 -0.046112
vt 0.041779 -0.046112
vt 0.308594 -0.705566
vt 0.304443 -0.723633
vt 0.433350 -0.723633
vt 0.428467 -0.705566
vt 0.374023 -0.259521
vt 0.374023 -0.276855
vt 0.385254 -0.276855
vt 0.383057 -0.255859
vt 0.072205 -0.737793
vt 0.836914 -0.050690
vt 0.713867 -0.050690
vt 0.714355 -0.033447
vt 0.836914 -0.033447
vt 0.656250 -0.050690
vt 0.836914 -0.050690
vt 0.836914 -0.033447
vt 0.656250 -0.033447
vt 0.041779 -0.046112
vt 0.041779 -0.059723
vt 0.054413 -0.059723
vt 0.054413 -0.046112
vt 0.836914 -0.050690
vt 0.670898 -0.050690
vt 0.672852 -0.033447
vt 0.836914 -0.033447
vt 0.647949 -0.050690
vt 0.836914 -0.050690
vt 0.836914 -0.033447
vt 0.644043 -0.033447
vt 0.289795 -0.723633
vt 0.438477 -0.723633
vt 0.437500 -0.705566
vt 0.290771 -0.705566
vt 0.443115 -0.459961
vt 0.443115 -0.707520
vt 0.425049 -0.678223
vt 0.425049 -0.458008
vt 0.425049 -0.665527
vt 0.443115 -0.658691
vt 0.443115 -0.517578
vt 0.425049 -0.501465
vt 0.062073 -0.040771
vt 0.066772 -0.062286
vt 0.637207 -0.062286
vt 0.604492 -0.040741
vt 0.723633 -0.099060
vt 0.723633 -0.850098
vt 0.756836 -0.868652
vt 0.756836 -0.076721
vt 0.757324 -0.907227
vt 0.723633 -0.903809
vt 0.723633 -0.971680
vt 0.757324 -0.995605
vt 0.004231 -0.234131
vt 0.004231 -0.276611
vt 0.025772 -0.267090
vt 0.025772 -0.243530
vt 0.454102 -0.722168
vt 0.455811 -0.686523
vt 0.497314 -0.686523
vt 0.491943 -0.722168
vt 0.138062 -0.325928
vt 0.101929 -0.323975
vt 0.101929 -0.439697
vt 0.138062 -0.462402
vt 0.512207 -0.233154
vt 0.512207 -0.181274
vt 0.715332 -0.181274
vt 0.715332 -0.233154
vt 0.195068 -0.040771
vt 0.195068 -0.062286
vt 0.534668 -0.062286
vt 0.548828 -0.040741
vt 0.506836 -0.722168
vt 0.454590 -0.722168
vt 0.449219 -0.686523
vt 0.504883 -0.686523
vt 0.449219 -0.682129
vt 0.449219 -0.455566
vt 0.504883 -0.455566
vt 0.504883 -0.682129
vt 0.504883 -0.455566
vt 0.504883 -0.682129
vt 0.449219 -0.682129
vt 0.449219 -0.455566
vt 0.124207 -0.550781
vt 0.089050 -0.573730
vt 0.107117 -0.525879
vt 0.089050 -0.507813
vt 0.003693 -0.479004
vt 0.003693 -0.502441
vt 0.058319 -0.500977
vt 0.003693 -0.337646
vt 0.058319 -0.367188
vt 0.058319 -0.324951
vt 0.003693 -0.366943
vt 0.058319 -0.398682
vt 0.003693 -0.394775
vt 0.003693 -0.419922
vt 0.058319 -0.444824
vt 0.003693 -0.451660
vt 0.058319 -0.493652
vt 0.072205 -0.495850
vt 0.072205 -0.503418
vt 0.488770 -0.230835
vt 0.487061 -0.254395
vt 0.497070 -0.253906
vt 0.496338 -0.230469
vt 0.505371 -0.253418
vt 0.505371 -0.236328
vt 0.182739 -0.008293
vt 0.241577 -0.008293
vt 0.234253 -0.028046
vt 0.179077 -0.028046
vt 0.153320 -0.008293
vt 0.151489 -0.028046
vt 0.123901 -0.008293
vt 0.123901 -0.028046
vt 0.096313 -0.028046
vt 0.094482 -0.008293
vt 0.068726 -0.028046
vt 0.065063 -0.008293
vt 0.013550 -0.028046
vt 0.006264 -0.008293
vt 0.182495 -0.301514
vt 0.040619 -0.301514
vt 0.040619 -0.240967
vt 0.182495 -0.240967
vt 0.040619 -0.240967
vt 0.058685 -0.228271
vt 0.182495 -0.228271
vt 0.058685 -0.228271
vt 0.040619 -0.240967
vt 0.040619 -0.301514
vt 0.040619 -0.240967
vt 0.182495 -0.240967
vt 0.058685 -0.228271
vt 0.182495 -0.228271
vt 0.058685 -0.228271
vt 0.874023 -0.036438
vt 0.844727 -0.036438
vt 0.841309 -0.069641
vt 0.855469 -0.069641
vt 0.871582 -0.069641
vt 0.900391 -0.069641
vt 0.898926 -0.036438
vt 0.923340 -0.036438
vt 0.912598 -0.069641
vt 0.932129 -0.069641
vt 0.938477 -0.036438
vt 0.959961 -0.069641
vt 0.966797 -0.069641
vt 0.951660 -0.036438
vt 0.979004 -0.069641
vt 0.973633 -0.036438
vt 0.988770 -0.069641
vt 0.990234 -0.036438
vt 0.715332 -0.253662
vt 0.692871 -0.291992
vt 0.512207 -0.291992
vt 0.419678 -0.682617
vt 0.370850 -0.677246
vt 0.370850 -0.471436
vt 0.397949 -0.455322
vt 0.419678 -0.462402
vt 0.119995 -0.203003
vt 0.138062 -0.213867
vt 0.138062 -0.125366
vt 0.101929 -0.152466
vt 0.101929 -0.203003
vt 0.706543 -0.212646
vt 0.708984 -0.181274
vt 0.663574 -0.181274
vt 0.512207 -0.181274
vt 0.096313 -0.028046
vt 0.123901 -0.028046
vt 0.123901 -0.008293
vt 0.094482 -0.008293
vt 0.068726 -0.028046
vt 0.065063 -0.008293
vt 0.013550 -0.028046
vt 0.006264 -0.008293
vt 0.475342 -0.028046
vt 0.475342 -0.008293
vt 0.418457 -0.008293
vt 0.418457 -0.028046
vt 0.389893 -0.008293
vt 0.389893 -0.028046
vt 0.361328 -0.008293
vt 0.361328 -0.028046
vt 0.333008 -0.008293
vt 0.333008 -0.028046
vt 0.304443 -0.008293
vt 0.304443 -0.028046
vt 0.247437 -0.008293
vt 0.247437 -0.028046
vt 0.414551 -0.208130
vt 0.374023 -0.070251
vt 0.439941 -0.070251
vt 0.505371 -0.070251
vt 0.449219 -0.195679
vt 0.494385 -0.195313
vt 0.487305 -0.206543
vt 0.247437 -0.028046
vt 0.247437 -0.008293
vt 0.304443 -0.008293
vt 0.304443 -0.028046
vt 0.333008 -0.008293
vt 0.333008 -0.028046
vt 0.361328 -0.008293
vt 0.361328 -0.028046
vt 0.389893 -0.008293
vt 0.389893 -0.028046
vt 0.418457 -0.008293
vt 0.418457 -0.028046
vt 0.475342 -0.008293
vt 0.475342 -0.028046
vt 0.715332 -0.298828
vt 0.701660 -0.301025
vt 0.690430 -0.291992
vt 0.715332 -0.291992
vt 0.512207 -0.291992
vt 0.142944 -0.125366
vt 0.142944 -0.213867
vt 0.200806 -0.224731
vt 0.195313 -0.103699
vt 0.200806 -0.087463
vt 0.213257 -0.218994
vt 0.233276 -0.071289
vt 0.366943 -0.071289
vt 0.366943 -0.268066
vt 0.366943 -0.462402
vt 0.216797 -0.259766
vt 0.198608 -0.302979
vt 0.142944 -0.462402
vt 0.142944 -0.325928
vt 0.025772 -0.326172
vt 0.025772 -0.321289
vt 0.004231 -0.330811
vt 0.025772 -0.235107
vt 0.004231 -0.222290
vt 0.004231 -0.188599
vt 0.025772 -0.177246
vt 0.004231 -0.032959
vt 0.025772 -0.042389
vt 0.843262 -0.002741
vt 0.847656 -0.027771
vt 0.882324 -0.002741
vt 0.890625 -0.027771
vt 0.925781 -0.002741
vt 0.930176 -0.027771
vt 0.960449 -0.002741
vt 0.966797 -0.027771
vt 0.973633 -0.002741
vt 0.984375 -0.027771
vt 0.127197 -0.459473
vt 0.138062 -0.462402
vt 0.132690 -0.421631
vt 0.138062 -0.349365
vt 0.129028 -0.379883
vt 0.003864 -0.659180
vt 0.058563 -0.656738
vt 0.037323 -0.663574
vt 0.058563 -0.637695
vt 0.003864 -0.637207
vt 0.880371 -0.027771
vt 0.871094 -0.002741
vt 0.856934 -0.027771
vt 0.842285 -0.002741
vt 0.806641 -0.027771
vt 0.811035 -0.002741
vt 0.794922 -0.002741
vt 0.796387 -0.027771
vt 0.760742 -0.002741
vt 0.760254 -0.027771
vt 0.003693 -0.434082
vt 0.058319 -0.434082
vt 0.058319 -0.414063
vt 0.003693 -0.409668
vt 0.003693 -0.380859
vt 0.058319 -0.391846
vt 0.023086 -0.356445
vt 0.054901 -0.365479
vt 0.052338 -0.347656
vt 0.560547 -0.002741
vt 0.556641 -0.027771
vt 0.531738 -0.002741
vt 0.527832 -0.027771
vt 0.484619 -0.002741
vt 0.480713 -0.027771
vt 0.247437 -0.008293
vt 0.247437 -0.028046
vt 0.304443 -0.028046
vt 0.304443 -0.008293
vt 0.333008 -0.008293
vt 0.333008 -0.028046
vt 0.361328 -0.008293
vt 0.361328 -0.028046
vt 0.234253 -0.028046
vt 0.241577 -0.008293
vt 0.182739 -0.008293
vt 0.179077 -0.028046
vt 0.153320 -0.008293
vt 0.151489 -0.028046
vt 0.123901 -0.028046
vt 0.123901 -0.008293
vt 0.123901 -0.028046
vt 0.123901 -0.008293
vt 0.153320 -0.008293
vt 0.151489 -0.028046
vt 0.179077 -0.028046
vt 0.182739 -0.008293
vt 0.234253 -0.028046
vt 0.241577 -0.008293
vt 0.123901 -0.008293
vt 0.123901 -0.028046
vt 0.096313 -0.028046
vt 0.094482 -0.008293
vt 0.068726 -0.028046
vt 0.065063 -0.008293
vt 0.013550 -0.028046
vt 0.006264 -0.008293
vt 0.475342 -0.028046
vt 0.475342 -0.008293
vt 0.418457 -0.008293
vt 0.418457 -0.028046
vt 0.389893 -0.028046
vt 0.389893 -0.008293
vt 0.361328 -0.028046
vt 0.361328 -0.008293
vt 0.247437 -0.028046
vt 0.247437 -0.008293
vt 0.304443 -0.008293
vt 0.304443 -0.028046
vt 0.333008 -0.008293
vt 0.333008 -0.028046
vt 0.361328 -0.008293
vt 0.361328 -0.028046
vn 0.7658 0.6174 0.1799
vn 0.5598 0.5633 0.6077
vn 0.1290 0.4274 0.8948
vn -0.2888 0.5394 0.7910
vn -0.1284 0.4531 0.8822
vn 0.2344 0.4474 0.8631
vn -0.7090 0.5028 0.4944
vn -0.4326 0.5461 0.7174
vn 0.2886 0.5169 0.8059
vn 0.3229 0.5535 0.7677
vn 0.3967 0.2664 0.8784
vn 0.2909 0.6163 0.7318
vn 0.1475 0.7537 0.6404
vn 0.3560 0.6763 0.6449
vn 0.0523 0.7420 0.6684
vn 0.6758 0.2329 0.6994
vn 0.7792 -0.3154 0.5416
vn -0.0000 -1.0000 0.0000
vn -0.0006 -1.0000 0.0002
vn -0.0059 -1.0000 -0.0024
vn -0.0007 -1.0000 0.0003
vn -0.0046 -1.0000 -0.0021
vn 0.0012 -1.0000 0.0001
vn 0.0033 -1.0000 -0.0080
vn 0.0016 -1.0000 0.0011
vn 0.0017 -1.0000 0.0046
vn -0.2471 0.9482 0.1996
vn -0.1192 0.9759 0.1827
vn -0.0587 0.9800 0.1903
vn -0.1786 0.9694 0.1683
vn -0.2684 0.9504 0.1571
vn -0.3291 0.9160 0.2293
vn -0.5437 0.8110 0.2161
vn -0.3161 0.9349 0.1614
vn 0.0996 0.9423 0.3197
vn 0.6383 0.7148 0.2858
vn -0.5760 0.8076 0.1268
vn -0.2686 0.9581 0.0998
vn -0.0900 0.9778 0.1894
vn -0.1763 0.9567 0.2315
vn -0.2527 0.9658 0.0573
vn -0.2570 0.9645 -0.0611
vn -0.1447 0.9370 0.3178
vn 0.4410 0.8553 0.2720
vn 0.1724 0.9758 0.1348
vn -0.3015 0.8857 0.3531
vn -0.3254 0.8527 0.4087
vn -0.1246 0.9632 0.2380
vn 0.1781 0.9838 -0.0183
vn 0.2495 0.9652 -0.0787
vn 0.2554 0.9662 -0.0338
vn 0.3768 0.8978 0.2277
vn 0.2964 0.9444 0.1425
vn 0.3880 0.9128 0.1274
vn 0.3522 0.9210 0.1663
vn 0.3556 0.9233 0.1454
vn 0.3241 0.9263 0.1924
vn 0.3812 0.9169 0.1183
vn 0.3212 0.9367 0.1394
vn 0.3676 0.8960 0.2491
vn 0.6768 0.7249 0.1284
vn 0.4917 0.8128 0.3123
vn 0.8840 0.4667 0.0252
vn 0.7980 0.5950 0.0959
vn 0.9661 0.2386 -0.0989
vn 0.9660 0.2387 -0.0989
vn 0.7468 0.6471 0.1533
vn 0.7041 0.6916 -0.1614
vn 0.3785 0.8813 -0.2829
vn -0.0009 0.0018 -1.0000
vn -0.0011 0.0023 -1.0000
vn -0.0020 0.0023 -1.0000
vn -0.0004 0.0021 -1.0000
vn 0.0011 0.0012 -1.0000
vn -0.0014 0.0015 -1.0000
vn -0.0011 0.0014 -1.0000
vn 0.0011 0.0001 -1.0000
vn -0.0000 -0.0006 -1.0000
vn 0.6024 0.7982 -0.0000
vn -0.0054 1.0000 -0.0012
vn -0.0292 0.9990 -0.0347
vn -0.0041 1.0000 -0.0033
vn 0.0604 0.9648 -0.2558
vn -0.0028 1.0000 -0.0021
vn -0.0026 1.0000 -0.0020
vn -0.0005 1.0000 -0.0065
vn -0.0034 1.0000 -0.0035
vn -0.0013 1.0000 -0.0014
vn 0.0000 1.0000 0.0000
vn -0.0017 1.0000 -0.0011
vn -0.0020 1.0000 -0.0041
vn -0.0218 0.9875 -0.1559
vn 0.0322 0.9994 -0.0085
vn 0.0156 0.9999 0.0070
vn 0.0014 1.0000 0.0023
vn 0.0009 1.0000 0.0040
vn -0.0019 1.0000 0.0005
vn 0.0239 0.9994 0.0267
vn 0.0040 1.0000 0.0004
vn 0.0007 1.0000 -0.0066
vn 0.0027 1.0000 -0.0015
vn 0.0017 1.0000 -0.0042
vn -0.0061 0.9997 -0.0249
vn -0.0013 1.0000 0.0021
vn -0.0000 1.0000 0.0012
vn 0.0008 1.0000 0.0030
vn 0.0005 1.0000 -0.0076
vn -0.8322 -0.5458 -0.0972
vn -0.9661 -0.2386 0.0989
vn -0.9528 -0.3036 0.0077
vn -0.7819 -0.6213 0.0514
vn -0.9661 -0.2386 0.0990
vn -0.5602 -0.6913 -0.4564
vn -0.4519 -0.8753 -0.1721
vn -0.8695 -0.4917 0.0477
vn -0.7010 -0.7065 -0.0972
vn -0.3959 -0.9058 -0.1508
vn -0.2247 -0.9645 -0.1388
vn -0.1868 -0.9820 -0.0283
vn -0.0391 -0.9977 -0.0551
vn 0.1039 -0.9737 -0.2026
vn -0.8010 -0.5983 -0.0198
vn -0.3663 -0.8985 -0.2418
vn -0.3700 -0.9007 -0.2275
vn -0.3527 -0.9025 -0.2470
vn -0.2068 -0.9681 -0.1416
vn 1.0000 -0.0000 0.0000
vn 0.7474 0.6393 -0.1809
vn -0.8514 0.0004 -0.5245
vn -0.8512 0.0009 -0.5249
vn -0.8515 0.0003 -0.5243
vn -0.8522 0.0006 -0.5231
vn -0.8520 0.0003 -0.5236
vn -0.8525 0.0009 -0.5227
vn -1.0000 0.0000 0.0000
vn -0.0000 0.0000 1.0000
vn 0.8522 0.0002 0.5232
vn 0.8525 -0.0000 0.5227
vn 0.8514 0.0007 0.5244
vn 0.8512 0.0009 0.5249
vn 0.5138 -0.4994 -0.6976
vn 0.5999 -0.4507 -0.6611
vn -0.0809 -0.2457 -0.9660
vn 0.3892 -0.5477 -0.7407
vn 0.4338 -0.3823 -0.8159
vn 0.1183 -0.5438 -0.8308
vn 0.2350 -0.8045 -0.5455
vn -0.0118 -0.6999 -0.7141
vn 0.8532 -0.2886 -0.4344
vn -0.9024 0.1185 -0.4144
vn -0.9632 0.1159 -0.2426
vn -0.9485 0.1392 -0.2847
vn -0.8744 0.1270 -0.4683
vn -0.5447 -0.0309 -0.8381
vn -0.3621 -0.1038 -0.9264
vn 0.2560 -0.2733 -0.9273
vn 0.2983 -0.2883 -0.9099
vn 0.0601 -0.2190 -0.9739
vn -0.1495 -0.1362 -0.9793
vn -0.5819 0.0722 -0.8101
vn -0.5255 0.7471 0.4072
vn -0.5529 0.7128 0.4315
vn -0.6071 0.6694 0.4281
vn -0.8006 0.3901 0.4547
vn -0.7799 0.3670 0.5071
vn -0.8123 0.3582 0.4602
vn -0.8732 0.3024 0.3821
vn -0.7070 0.5430 0.4530
vn -0.8053 0.3953 0.4418
vn -0.8157 0.3574 0.4548
vn 0.0000 -0.0004 1.0000
vn -0.0002 -0.0002 1.0000
vn -0.0007 0.0001 1.0000
vn -0.0003 -0.0003 1.0000
vn 0.0001 -0.0002 1.0000
vn -0.0001 -0.0000 1.0000
vn 0.0001 -0.0000 1.0000
vn 0.0002 -0.0000 1.0000
vn 0.0019 1.0000 -0.0004
vn 0.0005 1.0000 -0.0000
vn 0.0041 1.0000 -0.0021
vn 0.0065 1.0000 -0.0054
vn -0.1470 0.4069 -0.9016
vn -0.2568 0.5382 -0.8027
vn -0.2600 0.6151 -0.7444
vn -0.1028 0.2834 -0.9535
vn -0.1142 0.3292 -0.9373
vn -0.7130 0.5503 -0.4345
vn -0.7478 0.5262 -0.4047
vn -0.7516 0.6152 -0.2380
vn -0.7525 0.5849 -0.3028
vn -0.2363 0.4082 -0.8818
vn 0.0874 -0.1215 -0.9887
vn 0.1145 -0.2660 -0.9572
vn -0.2322 -0.0325 -0.9721
vn -0.2655 0.1525 -0.9520
vn -0.5799 0.2262 -0.7826
vn -0.2601 0.6151 -0.7443
vn -0.2418 0.9703 -0.0029
vn -0.0596 0.1127 -0.9918
vn -0.2600 0.6151 -0.7443
vn -0.0569 0.1174 -0.9915
vn -0.0596 0.1128 -0.9918
vn 0.8717 0.0000 0.4900
vn -0.3418 0.9292 0.1402
vn -0.3044 0.8067 0.5065
vn -0.2840 0.7720 0.5687
vn -0.3090 0.9288 0.2046
vn -0.2197 0.5387 0.8133
vn -0.8568 0.0712 -0.5107
vn -0.8551 0.0675 -0.5141
vn -0.9979 0.0546 0.0361
vn -0.9940 0.0683 0.0855
vn -0.7988 0.0177 0.6013
vn -0.7706 0.0614 0.6343
vn 0.9892 0.1462 0.0137
vn 0.4799 0.8644 0.1502
vn 0.9479 0.2980 0.1126
vn 0.8809 0.4621 0.1020
vn 0.9795 0.1724 0.1040
vn 0.9210 0.3748 0.1061
vn 0.9094 0.4008 0.1111
vn 0.9883 -0.1395 0.0624
vn 0.9790 0.1846 0.0865
vn 0.8753 -0.4827 0.0291
vn 0.9644 -0.2544 0.0719
vn 0.7780 -0.6263 0.0494
vn 0.8065 -0.5823 0.1021
vn 0.7780 -0.6263 0.0495
vn 0.8061 -0.5830 0.1014
vn 0.8288 -0.5404 0.1454
vn 0.0634 0.4295 -0.9009
vn -0.0522 0.3325 -0.9416
vn 0.1829 0.1636 -0.9694
vn 0.1255 0.3228 -0.9381
vn 0.2960 -0.0637 -0.9531
vn 0.3715 -0.2231 -0.9012
vn 0.3715 -0.2230 -0.9012
vn 0.4774 0.4661 -0.7449
vn 0.4905 0.4529 -0.7445
vn 0.4851 0.4584 -0.7447
vn 0.4775 0.4660 -0.7449
vn -0.1403 -0.1517 0.9784
vn 0.2745 -0.1642 0.9475
vn 0.2788 -0.1709 0.9450
vn -0.0669 -0.1464 0.9870
vn -0.0740 -0.1527 0.9855
vn -0.0761 -0.1795 0.9808
vn -0.1809 -0.0646 0.9814
vn -0.3646 0.0083 0.9311
vn -0.6526 0.0760 0.7538
vn -0.7178 0.1747 0.6739
vn -0.3116 -0.1152 0.9432
vn -0.6527 0.0760 0.7538
vn -0.1445 -0.3693 0.9180
vn -0.0092 -0.4596 0.8881
vn 0.1611 -0.5551 0.8160
vn 0.8149 -0.2147 -0.5383
vn 0.8218 -0.2498 -0.5122
vn 0.6511 -0.1934 -0.7339
vn 0.6317 -0.1753 -0.7551
vn -0.0086 -0.2992 -0.9541
vn 0.2000 -0.3729 -0.9061
vn 0.1574 -0.4904 -0.8572
vn -0.0841 -0.4029 -0.9114
vn 0.4368 -0.2517 -0.8636
vn -0.3029 0.8875 0.3472
vn -0.1700 0.9839 -0.0550
vn -0.0821 0.9783 -0.1900
vn -0.0945 0.9523 -0.2902
vn -0.0789 0.9831 -0.1649
vn 0.4738 -0.6709 -0.5705
vn 0.2464 -0.4612 -0.8524
vn 0.5035 -0.6179 -0.6039
vn 0.5035 -0.6944 -0.5141
vn 0.7080 -0.6203 -0.3376
vn -0.3370 -0.1139 0.9346
vn 0.1931 -0.0633 0.9791
vn 0.1608 -0.0661 0.9848
vn -0.3214 -0.0733 0.9441
vn 0.8057 -0.0841 0.5863
vn 0.8162 -0.1066 0.5678
vn 0.8861 -0.1379 0.4425
vn 0.8762 -0.1396 0.4613
vn 0.9663 -0.1494 0.2096
vn 0.9804 -0.1272 0.1504
vn 0.8802 -0.1283 -0.4570
vn 0.8687 -0.1117 -0.4825
vn 0.7314 -0.1163 -0.6720
vn 0.2623 -0.2576 -0.9300
vn 0.7299 -0.1621 -0.6640
vn 0.4028 -0.3319 -0.8530
vn -0.2408 -0.2307 -0.9428
vn 0.4893 -0.3349 -0.8053
vn 0.0389 0.0235 -0.9990
vn -0.2089 -0.0078 -0.9779
vn -0.1434 -0.0340 -0.9891
vn 0.2340 0.0428 -0.9713
vn 0.0756 0.0450 -0.9961
vn -0.5609 -0.0637 -0.8255
vn -0.6445 -0.1763 -0.7440
vn -0.0012 -0.0902 -0.9959
vn 0.3025 -0.0179 -0.9530
vn 0.4538 -0.1211 -0.8828
vn -0.0012 -0.0903 -0.9959
vn -0.2245 0.8815 0.4154
vn -0.1660 0.8826 0.4398
vn -0.3646 0.9310 -0.0189
vn -0.4198 0.9052 0.0662
vn -0.1929 0.8839 -0.4261
vn -0.0537 0.8767 -0.4781
vn -0.5100 -0.2163 -0.8325
vn -0.6819 0.2771 -0.6770
vn -0.6601 0.3105 -0.6840
vn -0.7055 0.2561 -0.6608
vn -0.5283 -0.2990 -0.7947
vn 0.2211 -0.3256 -0.9193
vn 0.3232 -0.3636 -0.8737
vn 0.1964 -0.4248 -0.8837
vn 0.1905 -0.4490 -0.8730
vn -0.5936 -0.3630 -0.7182
vn -0.7594 -0.2948 -0.5800
vn -0.7812 -0.0879 -0.6181
vn -0.7185 -0.1603 -0.6768
vn -0.4557 0.0315 -0.8896
vn -0.5303 0.1638 -0.8319
vn -0.8933 -0.1040 -0.4372
vn -0.6746 -0.0610 -0.7356
vn -0.5578 -0.1773 -0.8108
vn -0.2726 -0.1794 -0.9453
vn -0.3421 -0.1099 -0.9332
vn -0.5752 0.0006 -0.8180
vn -0.8693 0.1333 -0.4759
vn -0.8696 0.1473 -0.4713
vn -0.9438 0.0699 -0.3229
vn -0.9365 0.0357 -0.3488
vn -0.9565 0.0115 -0.2916
vn -0.9461 -0.0234 -0.3231
vn 0.8706 0.0000 -0.4920
vn 0.0000 0.0000 -1.0000
vn -0.9422 0.1534 -0.2980
vn -0.8897 0.1346 -0.4361
vn -0.8639 0.1265 -0.4876
vn -0.6021 0.0580 -0.7963
vn -0.5942 0.0557 -0.8024
vn -0.3657 0.0008 -0.9307
vn -0.3656 0.0000 -0.9308
vn -0.9469 0.3208 -0.0212
vn -0.9864 0.1526 0.0611
vn -0.9980 0.0510 -0.0369
vn -0.9535 0.2993 -0.0363
vn -0.6695 0.7424 -0.0263
vn -0.6200 0.7833 -0.0456
vn -0.1543 0.9878 -0.0192
vn -0.1731 0.9849 -0.0029
vn 0.0222 0.9997 0.0075
vn -0.0325 0.9984 0.0462
vn -0.0325 0.9991 -0.0269
vn -0.0310 0.9993 -0.0217
vn -0.1841 0.9829 0.0032
vn -0.6036 0.7972 0.0085
vn -0.6269 0.7787 0.0248
vn -0.8354 0.5288 0.1503
vn -0.8350 0.5205 0.1785
vn -0.5187 -0.4255 0.7415
vn -0.5212 -0.4247 0.7403
vn -0.5209 -0.4228 0.7415
vn -0.4414 -0.0394 0.8964
vn -0.3573 0.1750 0.9174
vn -0.1495 0.5857 0.7966
vn -0.1567 0.5564 0.8160
vn 0.0223 0.9997 0.0043
vn 0.0225 0.9997 0.0032
vn 0.0666 0.9978 -0.0007
vn 0.0624 0.9981 0.0000
vn -0.0282 0.9996 0.0062
vn -0.0303 0.9995 -0.0036
vn -0.0753 0.9971 -0.0129
vn -0.0499 0.9987 -0.0145
vn -0.4474 0.8515 0.2735
vn -0.4377 0.8602 0.2619
vn -0.4399 0.8581 0.2647
vn -0.4596 0.8429 0.2800
vn -0.4617 0.8415 0.2805
vn 0.2435 0.0000 0.9699
vn -0.8642 -0.0000 0.5032
vn -0.1793 0.0976 0.9789
vn -0.8642 -0.0000 -0.5032
vn -0.9705 0.0798 0.2273
vn -0.9711 0.0751 0.2267
vn -0.9654 0.1177 0.2327
vn -0.9646 0.1229 0.2335
vn -0.3459 0.9328 0.1014
vn -0.3334 0.9385 0.0896
vn -0.3428 0.9342 0.0985
vn -0.3572 0.9273 0.1121
vn 0.9801 0.1967 0.0270
vn 0.9827 0.1853 0.0065
vn 0.9758 0.2118 0.0546
vn 0.9715 0.2240 0.0771
vn -1.0000 0.0026 -0.0051
vn -0.9994 0.0059 0.0351
vn -0.9994 0.0057 0.0330
vn -1.0000 0.0024 -0.0073
vn 0.9992 -0.0002 0.0408
vn 0.9999 0.0036 -0.0115
vn 1.0000 0.0034 -0.0090
vn 0.9991 -0.0003 0.0431
vn 0.8642 -0.0000 0.5032
vn 1.0000 0.0015 0.0083
vn 0.9995 0.0049 -0.0317
vn 0.9996 0.0047 -0.0296
vn 0.9999 0.0013 0.0105
vn -0.9999 0.0000 -0.0167
vn -0.9995 0.0035 0.0322
vn -0.9995 0.0034 0.0298
vn -0.9998 -0.0001 -0.0187
vn 0.9658 0.1133 -0.2333
vn 0.9658 0.1127 -0.2334
vn 0.9658 0.1134 -0.2333
vn -0.9719 0.0000 0.2352
vn 0.9719 0.0000 -0.2352
vn -0.0009 1.0000 0.0015
vn 0.0001 1.0000 0.0016
vn -0.0418 0.9991 0.0001
vn -0.0446 0.9990 0.0000
vn -0.5968 0.8024 0.0000
vn -0.6025 0.7981 0.0004
vn -0.6023 0.7983 0.0003
vn -0.5966 0.8025 0.0000
vn -0.6024 0.7982 0.0000
vn -0.4525 0.8494 -0.2715
vn -0.4548 0.8453 -0.2804
vn -0.4516 0.8510 -0.2680
vn -0.4493 0.8550 -0.2590
vn -0.0000 0.7472 -0.6646
vn -0.8717 0.0000 0.4900
vn 0.4560 0.8463 -0.2756
vn 0.4494 0.8547 -0.2597
vn 0.4527 0.8506 -0.2676
vn 0.4590 0.8421 -0.2831
vn 0.8514 0.0007 -0.5244
vn 0.8525 -0.0000 -0.5227
vn 0.8522 0.0002 -0.5232
vn 0.8512 0.0009 -0.5249
vn -0.8522 0.0002 0.5232
vn -0.8512 0.0009 0.5249
vn -0.8514 0.0007 0.5244
vn -0.8525 -0.0000 0.5227
vn 0.8883 -0.0108 0.4592
vn 0.2684 0.4001 0.8763
vn 0.9950 0.0837 0.0544
vn 0.5723 0.3735 0.7301
vn 0.5922 0.7469 0.3025
vn -0.3529 0.3907 0.8502
vn 0.5171 0.8346 0.1901
vn 0.8715 0.4670 0.1496
vn 0.7470 0.6648 -0.0003
vn 0.9446 0.3258 0.0394
vn 0.9362 0.3315 0.1166
vn 0.2248 0.9390 0.2603
vn -0.0105 0.9999 -0.0047
vn 0.2340 0.9584 0.1634
vn -0.0906 0.9891 0.1163
vn -0.1189 0.9854 0.1217
vn -0.1027 0.9707 0.2170
vn 0.0130 0.9426 0.3335
vn 0.1544 0.9559 0.2499
vn 0.0382 0.9504 0.3088
vn 0.4854 0.8739 -0.0239
vn 0.4051 0.8962 -0.1806
vn 0.7513 0.6553 -0.0784
vn 0.9498 0.3048 -0.0710
vn -0.0390 0.9991 -0.0179
vn -0.0150 0.9995 -0.0290
vn 0.1979 0.9802 -0.0065
vn 0.2532 0.9665 -0.0411
vn 0.4914 0.8699 -0.0429
vn 0.5765 0.8083 -0.1196
vn 0.0499 -0.9987 0.0145
vn 0.0753 -0.9971 0.0129
vn 0.0303 -0.9995 0.0036
vn 0.0282 -0.9996 -0.0062
vn -0.0666 -0.9978 0.0007
vn -0.0624 -0.9981 -0.0000
vn -0.0225 -0.9997 -0.0032
vn -0.0223 -0.9997 -0.0043
vn 0.5102 0.2436 0.8248
vn 0.2131 0.0177 0.9769
vn 0.2007 0.0348 0.9790
vn 0.0708 0.1479 0.9865
vn 0.3689 0.3747 0.8506
vn 0.5337 0.2223 0.8160
vn 0.5473 0.2051 0.8114
vn 0.3311 0.3684 0.8687
vn -0.0381 0.2120 0.9765
vn 0.2750 0.4712 0.8381
vn 0.4547 0.4164 0.7873
vn 0.2368 0.2836 0.9292
vn -0.5322 -0.1932 0.8243
vn -0.3037 -0.0560 0.9511
vn -0.4698 -0.2962 0.8316
vn -0.5147 -0.3022 0.8023
vn -0.1955 -0.2477 0.9489
vn -0.2109 -0.2577 0.9429
vn -0.7467 0.6402 0.1807
vn -0.8706 0.0000 -0.4920
vn 0.1063 0.9863 0.1260
vn 0.0416 0.9853 0.1656
vn 0.0582 0.9873 0.1481
vn 0.1269 0.9865 0.1037
vn 0.0757 0.9969 0.0215
vn 0.0021 1.0000 0.0052
vn -0.0848 0.9955 0.0428
vn -0.0841 0.9953 0.0490
vn -0.1296 0.0000 0.9916
vn -0.1945 0.0000 0.9809
vn -0.1963 -0.0000 0.9805
vn 0.1506 0.0000 0.9886
vn 0.1274 0.0000 0.9918
vn 0.2076 0.0000 0.9782
vn 0.2029 0.0000 0.9792
vn 0.0003 0.0000 1.0000
vn 0.0000 0.0011 1.0000
vn -0.0009 0.0019 1.0000
vn 0.0009 0.0004 1.0000
vn 0.0007 0.0005 1.0000
vn 0.0002 0.0005 1.0000
vn 0.0014 -0.0001 1.0000
vn -0.0024 0.0015 1.0000
vn 0.0004 0.0032 1.0000
vn 0.0023 0.0036 1.0000
vn 0.0026 0.0038 1.0000
vn -0.0001 0.0024 1.0000
vn 0.0003 0.0000 -1.0000
vn -0.1969 0.0000 -0.9804
vn -0.1886 0.0000 -0.9821
vn -0.1407 0.0000 -0.9901
vn -0.1204 0.0000 -0.9927
vn 0.2172 0.0000 -0.9761
vn 0.2196 0.0000 -0.9756
vn 0.1566 0.0000 -0.9877
vn -0.0002 -0.0007 1.0000
vn -0.0007 -0.0008 1.0000
vn -0.0004 -0.0005 1.0000
vn -0.0000 -0.0007 1.0000
vn -0.0002 -0.0001 1.0000
vn -0.0003 0.0000 1.0000
vn 0.0664 -0.1715 0.9829
vn 0.0998 -0.1652 0.9812
vn 0.0937 -0.3637 0.9268
vn 0.1918 -0.5248 0.8293
vn 0.3837 -0.5963 0.7051
vn 0.4165 -0.5685 0.7095
vn 0.5334 -0.6040 0.5922
vn 0.5727 -0.6131 0.5442
vn 0.7327 -0.6704 0.1172
vn 0.7453 -0.6641 0.0596
vn 0.7373 -0.6351 -0.2303
vn 0.7388 -0.6251 -0.2519
vn 0.0000 0.7472 0.6646
vn -0.2972 0.2216 0.9288
vn -0.3025 0.2073 0.9303
vn -0.3191 0.2569 0.9122
vn -0.3784 0.4088 0.8305
vn -0.4247 0.4759 0.7701
vn -0.4762 0.6288 0.6147
vn -0.5045 0.5752 0.6439
vn -0.9825 -0.1633 -0.0893
vn -0.9052 -0.1038 -0.4120
vn -0.8101 -0.2523 -0.5292
vn -0.5541 -0.2876 -0.7812
vn -0.6049 -0.2082 -0.7686
vn -0.8583 0.0447 -0.5112
vn -0.8885 0.1741 0.4245
vn -0.9399 0.1807 0.2899
vn -0.8915 0.0820 0.4456
vn -0.8908 0.0858 0.4461
vn -0.9308 0.0750 -0.3578
vn -0.9190 0.0740 -0.3873
vn -0.7788 0.0817 -0.6219
vn -0.7877 0.0732 -0.6117
vn 0.8663 0.3525 -0.3540
vn 0.8623 0.3846 -0.3293
vn 0.8755 -0.1027 -0.4723
vn 0.8897 -0.0072 -0.4564
vn 0.8961 -0.0496 -0.4412
vn 0.9007 0.0858 -0.4258
vn 0.8928 0.1700 -0.4171
vn 0.8933 0.1598 -0.4200
vn 0.6744 -0.4784 -0.5625
vn 0.6110 -0.5352 -0.5833
vn 0.3715 -0.7454 -0.5534
vn 0.8647 -0.0599 0.4987
vn 0.8699 -0.0439 0.4913
vn 0.9527 -0.1334 0.2729
vn 0.9605 -0.1655 0.2238
vn 0.9709 -0.2192 0.0960
vn 0.9677 -0.2205 0.1225
vn 0.9618 -0.1784 0.2078
vn 0.9659 -0.1640 0.2003
vn -0.1414 -0.0000 0.9900
vn -0.5220 -0.0000 0.8530
vn -0.4989 -0.0000 0.8667
vn -0.8684 -0.0000 0.4959
vn -0.8835 -0.0000 0.4685
vn -0.9331 -0.0000 0.3597
vn 0.1239 0.9902 0.0637
vn 0.1255 0.9894 0.0731
vn 0.2106 0.9743 -0.0797
vn 0.2125 0.9727 -0.0930
vn 0.3418 0.8985 -0.2753
vn 0.4123 0.8528 -0.3206
vn 0.2911 0.8667 -0.4052
vn 0.2313 0.8866 -0.4005
vn -0.2911 -0.8667 0.4052
vn -0.2313 -0.8866 0.4005
vn -0.3418 -0.8985 0.2753
vn -0.4123 -0.8528 0.3206
vn -0.2121 -0.9728 0.0926
vn -0.2103 -0.9744 0.0798
vn -0.1240 -0.9902 -0.0643
vn -0.1256 -0.9894 -0.0732
vn -0.0582 -0.9873 -0.1481
vn -0.0416 -0.9853 -0.1656
vn -0.1063 -0.9863 -0.1260
vn -0.1269 -0.9865 -0.1037
vn -0.0757 -0.9969 -0.0215
vn -0.0021 -1.0000 -0.0052
vn 0.0848 -0.9955 -0.0428
vn 0.0841 -0.9953 -0.0490
vn 0.4431 -0.0041 0.8965
vn 0.4447 -0.0000 0.8957
vn 0.6338 -0.0636 0.7709
vn 0.6234 -0.0631 0.7793
vn 0.8704 -0.1285 0.4753
vn 0.9056 -0.1399 0.4005
vn 0.9568 -0.1597 0.2429
vn 0.1136 0.0000 -0.9935
vn 0.4445 0.0000 -0.8958
vn 0.4568 0.0000 -0.8896
vn 0.8252 -0.0000 -0.5649
vn 0.8409 -0.0000 -0.5412
vn 0.9117 -0.0000 -0.4110
usemtl crated
s 1
f 1/1/1 2/2/1 3/3/2
f 4/4/3 5/5/4 6/6/5
f 6/6/5 3/3/2 4/4/3
f 1/1/6 3/3/2 6/6/5
f 4/4/7 7/7/8 5/5/4
f 5/5/4 7/7/8 8/8/9
f 8/8/9 9/9/10 5/5/4
f 9/9/10 8/8/9 10/10/11
f 9/9/10 10/10/11 11/11/12
f 12/12/13 9/9/10 11/11/12
f 11/11/12 13/13/14 12/12/13
f 12/12/13 13/13/14 14/14/15
f 13/13/14 15/15/16 14/14/15
f 13/13/14 16/16/17 15/15/16
f 17/17/18 18/18/18 16/19/18
f 16/19/18 13/20/18 17/17/18
f 11/21/18 17/17/18 13/20/18
f 17/17/18 11/21/18 10/22/18
f 10/22/18 19/23/18 17/17/18
f 10/22/18 20/24/19 19/23/18
f 10/22/18 8/25/18 7/26/18
f 7/26/18 4/27/20 10/22/18
f 10/22/18 4/27/20 20/24/19
f 20/24/19 4/27/20 3/28/21
f 3/28/21 21/29/22 20/24/19
f 3/28/21 22/30/22 21/29/22
f 21/29/22 22/30/22 23/31/22
f 23/31/22 22/30/22 24/32/23
f 22/30/22 25/33/18 24/32/23
f 25/33/18 26/34/18 24/32/23
f 3/28/21 2/35/24 22/30/22
f 27/36/18 28/37/18 25/33/18
f 27/36/18 25/33/18 22/30/22
f 22/30/22 29/38/18 27/36/18
f 30/39/25 23/31/22 24/32/23
f 31/40/26 23/31/22 30/39/25
f 30/39/25 32/41/18 31/40/26
f 33/42/27 34/43/27 35/44/28
f 35/44/28 36/45/29 33/42/30
f 37/46/31 36/45/29 35/44/28
f 35/44/28 38/47/32 37/46/31
f 37/46/31 38/47/32 39/48/33
f 39/48/33 38/47/32 40/49/34
f 40/49/34 41/50/35 39/48/33
f 42/51/36 41/50/35 40/49/34
f 39/48/33 43/52/37 44/53/38
f 44/53/38 37/46/31 39/48/33
f 36/45/29 37/46/31 44/53/38
f 44/53/38 45/54/39 36/45/29
f 33/42/40 36/45/29 45/54/39
f 45/54/39 46/55/41 33/42/41
f 40/49/34 47/56/42 42/51/42
f 48/57/18 49/58/18 50/59/18
f 51/60/18 48/57/18 50/59/18
f 52/61/18 48/57/18 51/60/18
f 51/60/18 53/62/18 52/61/18
f 54/63/18 55/64/18 56/65/18
f 57/66/18 54/63/18 56/65/18
f 54/63/18 57/66/18 58/67/18
f 58/67/18 57/66/18 51/60/18
f 51/60/18 59/68/18 58/67/18
f 50/59/18 59/68/18 51/60/18
f 60/69/18 59/68/18 50/59/18
f 50/59/18 61/70/18 60/69/18
f 50/59/18 62/71/18 61/70/18
f 63/72/18 57/66/18 56/65/18
f 58/67/18 64/73/18 54/63/18
f 65/74/18 66/75/18 58/67/18
f 58/67/18 67/76/18 65/74/18
f 59/68/18 67/76/18 58/67/18
f 68/77/43 69/78/44 70/79/45
f 71/80/46 68/77/43 42/51/47
f 72/81/48 42/51/47 68/77/43
f 68/77/43 70/79/45 72/81/48
f 73/82/49 72/81/48 70/79/45
f 70/79/45 74/83/50 73/82/49
f 75/84/51 73/82/49 74/83/50
f 76/85/52 77/86/53 78/87/54
f 78/87/54 79/88/55 76/85/52
f 80/89/56 81/90/57 79/88/55
f 82/91/58 80/89/56 79/88/55
f 79/88/55 83/92/59 82/91/58
f 83/92/59 79/88/55 78/87/54
f 84/93/60 83/92/59 78/87/54
f 84/93/60 78/87/54 85/94/61
f 85/94/61 86/95/62 84/93/60
f 86/95/62 85/94/61 87/96/63
f 88/97/64 87/96/63 85/94/61
f 87/96/63 89/98/65 90/99/66
f 87/96/63 90/99/66 91/100/65
f 91/100/65 92/101/67 87/96/63
f 87/96/63 92/101/67 86/95/62
f 92/101/67 93/102/68 86/95/62
f 47/56/69 71/80/69 42/51/69
f 94/103/70 44/104/71 43/105/72
f 94/103/70 45/106/73 44/104/71
f 94/103/70 46/107/74 45/106/73
f 94/103/70 95/108/75 46/107/74
f 95/108/75 96/109/76 46/107/74
f 46/107/74 96/109/76 97/110/77
f 97/110/77 98/111/78 46/107/74
f 70/79/79 69/78/79 74/83/79
f 1/112/80 99/113/81 100/114/82
f 99/113/81 1/112/80 6/115/83
f 101/116/84 102/117/85 103/118/86
f 103/118/86 104/119/87 101/116/84
f 103/118/86 100/114/82 104/119/87
f 103/118/86 105/120/88 100/114/82
f 100/114/82 105/120/88 1/112/80
f 1/112/80 105/120/88 106/121/89
f 106/121/89 107/122/89 1/112/80
f 102/117/85 108/123/90 109/124/91
f 109/124/91 110/125/89 102/117/85
f 6/115/83 111/126/92 99/113/81
f 6/115/83 112/127/93 111/126/92
f 6/115/83 5/128/94 112/127/93
f 113/129/95 112/127/93 5/128/94
f 5/128/94 9/130/96 113/129/95
f 9/130/96 114/131/97 113/129/95
f 9/130/96 115/132/98 114/131/97
f 9/130/96 12/133/99 115/132/98
f 12/133/99 116/134/100 115/132/98
f 117/135/101 116/134/100 12/133/99
f 116/134/100 117/135/101 118/136/102
f 116/134/100 118/136/102 108/123/90
f 108/123/90 119/137/103 116/134/100
f 120/138/104 119/137/103 108/123/90
f 121/139/105 120/138/104 108/123/90
f 121/139/105 108/123/90 122/140/106
f 101/116/84 122/140/106 108/123/90
f 108/123/90 102/117/85 101/116/84
f 12/133/99 14/141/89 117/135/101
f 114/131/97 123/142/89 124/143/89
f 124/143/89 113/129/95 114/131/97
f 113/129/95 125/144/89 126/145/107
f 126/145/107 112/127/93 113/129/95
f 127/146/108 128/147/109 129/148/110
f 130/149/111 131/150/112 127/146/108
f 127/146/108 132/151/113 130/149/111
f 133/152/114 132/151/113 127/146/108
f 129/148/110 134/153/109 135/154/115
f 136/155/116 129/148/110 135/154/115
f 129/148/110 136/155/116 127/146/108
f 127/146/108 136/155/116 137/156/117
f 137/156/117 133/152/114 127/146/108
f 138/157/118 133/152/114 137/156/117
f 139/158/119 133/152/114 138/157/118
f 138/157/118 140/159/120 139/158/119
f 138/157/118 141/160/121 140/159/120
f 142/161/122 136/155/116 135/154/115
f 143/162/123 144/163/124 138/157/118
f 137/156/117 143/162/123 138/157/118
f 145/164/125 143/162/123 137/156/117
f 137/156/117 146/165/126 145/164/125
f 147/166/127 148/167/127 149/168/127
f 148/167/127 150/169/127 149/168/127
f 149/168/127 150/169/127 151/170/127
f 151/170/127 152/171/127 149/168/127
f 152/171/127 153/172/127 149/168/127
f 149/168/127 153/172/127 154/173/127
f 154/173/127 155/174/127 149/168/127
f 154/173/127 156/175/127 155/174/127
f 14/176/128 15/177/128 157/178/128
f 157/178/128 158/179/128 14/176/128
f 158/179/128 117/180/128 14/176/128
f 159/181/129 160/182/130 161/183/130
f 161/183/130 162/184/131 159/181/129
f 162/184/131 163/185/132 159/181/129
f 163/185/132 162/184/131 164/186/133
f 164/186/133 165/187/134 163/185/132
f 166/188/135 167/189/135 168/190/135
f 166/188/135 169/191/135 167/189/135
f 169/191/135 170/192/135 167/189/135
f 169/191/135 171/193/135 170/192/135
f 169/191/135 163/194/135 171/193/135
f 159/195/135 163/194/135 169/191/135
f 169/191/135 172/196/135 159/195/135
f 172/196/135 173/197/135 159/195/135
f 174/198/136 71/199/136 47/200/136
f 47/200/136 40/201/136 174/198/136
f 174/198/136 40/201/136 38/202/136
f 174/198/136 38/202/136 35/203/136
f 175/204/136 174/198/136 35/203/136
f 35/203/136 34/205/136 175/204/136
f 176/206/136 175/204/136 34/205/136
f 177/207/136 176/206/136 34/205/136
f 178/208/136 177/207/136 34/205/136
f 178/208/136 179/209/136 177/207/136
f 174/210/137 180/211/138 69/212/139
f 69/212/139 68/213/140 174/210/137
f 68/213/140 71/214/140 174/210/137
f 181/215/127 74/216/127 69/217/127
f 69/217/127 180/218/127 181/215/127
f 180/218/127 182/219/127 181/215/127
f 182/219/127 183/220/127 181/215/127
f 183/220/127 184/221/127 181/215/127
f 184/221/127 183/220/127 185/222/127
f 185/222/127 186/223/127 184/221/127
f 117/224/141 20/225/142 118/226/143
f 19/227/144 20/225/142 117/224/141
f 117/224/141 158/228/145 19/227/144
f 19/227/144 158/228/145 157/229/146
f 157/229/146 17/230/147 19/227/144
f 18/231/148 17/230/147 157/229/146
f 20/225/142 21/232/149 118/226/149
f 30/233/150 24/234/151 103/235/152
f 103/235/152 102/236/153 30/233/150
f 32/237/154 30/233/150 102/236/153
f 102/236/153 110/238/155 32/237/154
f 31/239/156 32/237/154 110/238/155
f 110/238/155 109/240/157 31/239/156
f 23/241/158 31/239/156 109/240/157
f 109/240/157 108/242/159 23/241/158
f 21/232/160 23/241/158 108/242/159
f 108/242/159 118/226/143 21/232/160
f 187/243/161 188/244/162 189/245/163
f 188/244/162 187/243/161 190/246/164
f 190/246/164 191/247/165 188/244/162
f 192/248/166 191/247/165 190/246/164
f 190/246/164 193/249/167 192/248/166
f 194/250/168 189/245/163 164/251/169
f 189/245/163 194/250/168 187/243/161
f 164/251/170 195/252/170 194/250/168
f 196/253/171 197/254/172 198/255/136
f 199/256/136 197/254/172 200/257/173
f 201/258/174 200/257/173 197/254/172
f 197/254/172 196/253/171 201/258/174
f 190/259/175 201/258/174 196/253/171
f 190/259/175 196/253/171 198/255/136
f 193/260/136 190/259/175 198/255/136
f 202/261/176 193/260/136 198/255/136
f 198/255/136 203/262/136 202/261/176
f 204/263/177 205/264/177 201/258/174
f 187/265/178 204/263/177 201/258/174
f 201/258/174 190/259/175 187/265/178
f 206/266/89 207/267/89 208/268/89
f 208/268/89 209/269/89 206/266/89
f 210/270/89 211/271/89 212/272/89
f 210/270/89 212/272/89 213/273/89
f 213/273/89 214/274/89 210/270/89
f 210/270/89 214/274/89 215/275/89
f 215/275/89 216/276/89 210/270/89
f 216/276/89 215/275/89 217/277/89
f 217/277/89 208/268/89 216/276/89
f 217/277/89 218/278/89 208/268/89
f 218/278/89 209/269/89 208/268/89
f 209/269/89 218/278/89 219/279/89
f 219/279/89 220/280/89 209/269/89
f 220/280/89 221/281/89 209/269/89
f 222/282/89 210/270/89 216/276/89
f 214/274/89 223/283/89 215/275/89
f 224/284/89 225/285/89 226/286/89
f 226/286/89 227/287/89 228/288/89
f 229/289/89 230/290/89 224/284/89
f 224/284/89 226/286/89 229/289/89
f 231/291/89 229/289/89 226/286/89
f 226/286/89 228/288/89 231/291/89
f 232/292/89 231/291/89 228/288/89
f 228/288/89 233/293/179 232/292/89
f 234/294/180 232/292/89 233/293/179
f 233/293/179 235/295/181 234/294/180
f 233/293/179 236/296/182 235/295/181
f 231/291/89 237/297/89 238/298/89
f 238/298/89 229/289/89 231/291/89
f 239/299/89 240/300/89 241/301/89
f 242/302/89 243/303/89 239/299/89
f 244/304/89 242/302/89 239/299/89
f 241/301/89 244/304/89 239/299/89
f 245/305/89 244/304/89 241/301/89
f 245/305/89 241/301/89 246/306/89
f 246/306/89 247/307/89 245/305/89
f 246/306/89 248/308/89 247/307/89
f 249/309/89 250/310/89 242/302/89
f 242/302/89 244/304/89 249/309/89
f 251/311/79 252/312/79 253/313/79
f 253/313/79 185/314/79 251/311/79
f 253/313/79 186/315/79 185/314/79
f 186/315/79 253/313/79 254/316/79
f 254/316/79 255/317/79 186/315/79
f 88/318/183 142/319/184 135/320/185
f 136/321/186 142/319/184 88/318/183
f 88/318/183 85/322/187 136/321/186
f 136/321/186 85/322/187 78/323/188
f 78/323/188 137/324/189 136/321/186
f 137/324/189 78/323/188 77/325/190
f 77/325/190 146/326/191 137/324/189
f 145/327/192 146/326/191 77/325/190
f 77/325/190 76/328/193 145/327/192
f 143/329/194 145/327/192 76/328/193
f 79/330/195 143/329/194 76/328/193
f 144/331/196 143/329/194 79/330/195
f 81/332/197 144/331/196 79/330/195
f 135/320/198 87/333/199 88/318/199
f 87/333/200 135/320/201 134/334/202
f 134/334/202 89/335/203 87/333/200
f 256/336/204 257/337/204 258/338/204
f 187/265/204 194/339/204 195/340/204
f 195/340/204 204/263/204 187/265/204
f 153/341/204 204/263/204 195/340/204
f 195/340/204 256/336/204 153/341/204
f 153/341/204 256/336/204 258/338/204
f 258/338/204 154/342/204 153/341/204
f 259/343/204 154/342/204 258/338/204
f 259/343/204 260/344/204 154/342/204
f 128/345/205 91/346/205 90/347/206
f 90/347/206 129/348/207 128/345/208
f 134/334/209 129/348/207 90/347/206
f 90/347/206 89/335/209 134/334/209
f 55/349/210 211/350/211 210/351/212
f 56/352/213 210/351/212 222/353/214
f 210/351/212 56/352/213 55/349/210
f 222/353/215 63/354/215 56/352/213
f 261/355/216 202/356/217 203/357/218
f 203/357/218 262/358/219 261/355/216
f 262/358/219 203/357/218 198/359/220
f 198/359/220 263/360/221 262/358/219
f 198/359/220 197/361/222 263/360/221
f 264/362/223 263/360/221 197/361/222
f 197/361/222 199/363/224 264/362/223
f 265/364/225 264/362/223 266/365/226
f 199/363/224 266/365/226 264/362/223
f 266/365/226 267/366/227 265/364/227
f 268/367/228 267/366/229 266/365/230
f 266/365/230 269/368/231 268/367/228
f 270/369/232 148/370/233 147/371/234
f 147/371/234 168/372/235 270/369/232
f 168/372/235 147/371/234 166/373/236
f 166/373/236 147/371/234 149/374/237
f 149/374/237 169/375/238 166/373/236
f 271/376/239 75/84/240 74/83/241
f 74/83/241 181/377/242 271/376/239
f 212/378/243 211/350/244 55/349/245
f 55/349/245 54/379/246 212/378/243
f 212/378/243 54/379/246 64/380/247
f 64/380/247 213/381/248 212/378/243
f 213/381/248 64/380/247 58/382/249
f 58/382/249 214/383/250 213/381/248
f 66/384/251 223/385/252 214/383/250
f 214/383/250 58/382/249 66/384/251
f 223/385/253 66/384/254 65/386/253
f 127/387/255 92/388/255 91/346/256
f 91/346/256 128/345/257 127/387/257
f 218/389/258 60/390/259 61/391/260
f 61/391/260 219/392/261 218/389/258
f 219/392/261 61/391/260 62/393/262
f 62/393/262 220/394/263 219/392/261
f 221/395/264 220/394/263 50/396/265
f 220/394/263 62/393/262 50/396/265
f 50/396/265 49/397/266 221/395/266
f 93/398/267 131/399/268 130/400/267
f 92/388/269 127/387/270 131/399/268
f 131/399/268 93/398/271 92/388/269
f 80/401/272 141/402/273 138/403/274
f 81/332/275 80/401/272 138/403/274
f 138/403/274 144/331/276 81/332/276
f 248/404/277 272/405/277 273/406/278
f 273/406/278 247/407/279 248/404/280
f 247/407/279 273/406/278 274/408/281
f 274/408/281 245/409/282 247/407/279
f 245/409/282 274/408/281 275/410/283
f 275/410/283 244/411/284 245/409/282
f 244/411/284 275/410/283 276/412/285
f 276/412/285 249/413/286 244/411/284
f 249/413/286 276/412/285 277/414/287
f 277/414/287 250/415/288 249/413/286
f 250/415/288 277/414/287 278/416/289
f 278/416/289 242/417/289 250/415/288
f 279/418/290 280/419/291 243/420/291
f 242/421/292 278/422/293 279/418/290
f 243/420/294 242/421/292 279/418/290
f 25/423/295 106/424/296 105/425/297
f 281/426/298 106/424/296 25/423/295
f 25/423/295 28/427/299 281/426/298
f 282/428/300 281/426/298 28/427/299
f 28/427/299 27/429/301 282/428/300
f 26/430/302 105/425/297 103/235/303
f 105/425/297 26/430/302 25/423/295
f 103/235/304 24/234/304 26/430/305
f 252/431/306 283/432/307 284/433/308
f 284/433/308 253/434/309 252/431/306
f 254/435/310 253/434/309 284/433/308
f 284/433/308 285/436/311 254/435/310
f 279/437/18 277/438/18 276/439/18
f 279/437/18 278/440/18 277/438/18
f 286/441/18 280/442/18 279/437/18
f 286/441/18 279/437/18 275/443/18
f 276/439/18 275/443/18 279/437/18
f 273/444/18 272/445/18 287/446/18
f 287/446/18 274/447/18 273/444/18
f 275/443/18 274/447/18 287/446/18
f 287/446/18 288/448/18 275/443/18
f 286/441/18 275/443/18 288/448/18
f 288/448/18 289/449/18 286/441/18
f 232/450/312 234/451/313 116/452/314
f 116/452/314 119/453/315 232/450/312
f 120/454/316 232/450/312 119/453/315
f 232/450/312 120/454/316 121/455/317
f 121/455/317 231/456/318 232/450/312
f 231/456/318 121/455/317 122/457/319
f 122/457/319 237/458/320 231/456/318
f 238/459/321 237/458/320 122/457/319
f 122/457/319 101/460/322 238/459/321
f 229/461/323 238/459/321 101/460/322
f 101/460/322 104/462/324 229/461/323
f 229/461/323 104/462/324 100/463/325
f 100/463/325 230/464/326 229/461/323
f 290/465/89 291/466/89 96/467/89
f 96/467/89 151/468/89 290/465/89
f 292/469/89 293/470/89 153/471/89
f 153/471/89 152/472/89 292/469/89
f 292/469/89 152/472/89 151/468/89
f 151/468/89 294/473/89 292/469/89
f 294/473/89 151/468/89 96/467/89
f 96/467/89 95/474/89 294/473/89
f 294/473/89 95/474/89 94/475/89
f 205/476/89 204/477/89 295/478/89
f 295/478/89 204/477/89 153/471/89
f 295/478/89 153/471/89 293/470/89
f 293/470/89 296/479/89 295/478/89
f 297/480/89 296/479/89 293/470/89
f 293/470/89 298/481/89 297/480/89
f 298/481/89 293/470/89 292/469/89
f 292/469/89 299/482/89 298/481/89
f 300/483/89 299/482/89 292/469/89
f 300/483/89 292/469/89 294/473/89
f 294/473/89 301/484/89 300/483/89
f 94/475/89 301/484/89 294/473/89
f 302/485/89 301/484/89 94/475/89
f 94/475/89 303/486/89 302/485/89
f 298/481/89 304/487/89 297/480/89
f 304/487/89 305/488/89 297/480/89
f 243/420/327 280/419/328 239/489/329
f 280/419/328 286/490/330 239/489/329
f 239/489/329 286/490/330 240/491/331
f 286/490/330 289/492/332 240/491/331
f 241/493/333 240/491/331 289/492/332
f 289/492/332 288/494/334 241/493/333
f 241/493/333 288/494/334 287/495/335
f 287/495/335 246/496/336 241/493/333
f 246/496/336 287/495/335 272/405/337
f 272/405/337 248/404/338 246/496/336
f 306/497/339 290/498/339 307/499/339
f 307/499/339 290/498/339 151/500/339
f 151/500/339 150/501/339 307/499/339
f 41/502/340 42/503/340 39/504/340
f 39/504/340 42/503/340 302/505/340
f 302/505/340 303/506/340 39/504/340
f 308/507/341 309/508/341 310/509/342
f 310/509/342 311/510/343 308/507/341
f 311/510/343 310/509/342 312/511/344
f 312/511/344 313/512/345 311/510/343
f 313/512/345 312/511/344 314/513/346
f 314/513/346 315/514/347 313/512/345
f 316/515/348 317/516/349 318/517/350
f 318/517/350 319/518/351 316/515/348
f 316/515/348 319/518/351 320/519/352
f 320/519/352 321/520/353 316/515/348
f 321/520/353 320/519/352 322/521/354
f 322/521/354 323/522/355 321/520/353
f 323/522/355 322/521/354 265/364/356
f 265/364/356 267/366/357 323/522/355
f 323/522/355 267/366/358 268/367/359
f 268/367/359 324/523/360 323/522/355
f 323/522/355 324/523/360 325/524/361
f 325/524/361 321/520/362 323/522/355
f 321/520/362 325/524/361 326/525/363
f 326/525/363 316/515/364 321/520/362
f 186/526/365 255/527/366 327/528/367
f 186/526/365 327/528/367 328/529/368
f 328/529/368 184/530/369 186/526/365
f 184/530/369 328/529/368 271/376/370
f 271/376/370 181/377/371 184/530/369
f 328/531/135 327/532/135 285/533/135
f 285/533/135 284/534/135 328/531/135
f 75/535/135 271/536/135 73/537/135
f 271/536/135 329/538/135 73/537/135
f 301/539/135 329/538/135 271/536/135
f 271/536/135 300/540/135 301/539/135
f 299/541/135 300/540/135 271/536/135
f 271/536/135 328/531/135 299/541/135
f 328/531/135 284/534/135 299/541/135
f 284/534/135 298/542/135 299/541/135
f 298/542/135 284/534/135 283/543/135
f 283/543/135 330/544/135 298/542/135
f 260/545/89 331/546/89 332/547/89
f 332/547/89 154/548/89 260/545/89
f 154/548/89 332/547/89 333/549/89
f 333/549/89 156/550/89 154/548/89
f 334/551/89 335/552/89 336/553/89
f 336/553/89 337/554/89 334/551/89
f 338/555/372 334/551/89 337/554/89
f 337/554/89 339/556/373 338/555/372
f 340/557/374 338/555/372 339/556/373
f 339/556/373 341/558/375 340/557/374
f 340/557/374 341/558/375 342/559/376
f 342/559/376 343/560/377 340/557/374
f 343/560/377 342/559/376 344/561/378
f 344/561/378 345/562/379 343/560/377
f 345/562/379 344/561/378 346/563/89
f 346/563/89 347/564/89 345/562/379
f 348/565/380 349/566/381 167/567/382
f 348/565/380 167/567/382 177/568/383
f 177/568/383 350/569/384 348/565/380
f 351/570/385 352/571/385 353/572/385
f 353/572/385 354/573/385 351/570/385
f 355/574/386 356/575/386 357/576/386
f 357/576/386 358/577/386 355/574/386
f 359/578/387 360/579/387 309/580/387
f 309/580/387 308/581/387 359/578/387
f 361/582/388 347/583/388 346/584/388
f 346/584/388 362/585/388 361/582/388
f 230/586/389 100/587/390 99/588/391
f 99/588/391 224/589/392 230/586/389
f 363/590/393 364/591/394 316/592/395
f 316/592/395 326/593/396 363/590/393
f 269/368/397 266/365/398 199/363/399
f 199/363/399 365/594/400 269/368/397
f 295/595/401 366/596/402 201/597/403
f 201/597/403 205/598/404 295/595/401
f 363/599/405 297/600/406 305/601/407
f 305/601/407 364/602/408 363/599/405
f 315/603/409 314/604/409 367/605/409
f 367/605/409 368/606/409 315/603/409
f 94/607/410 43/608/411 39/609/412
f 39/609/412 303/610/413 94/607/410
f 97/611/414 96/612/415 291/613/416
f 291/613/416 369/614/417 97/611/414
f 115/615/418 116/616/419 234/617/419
f 234/617/419 235/618/420 115/615/418
f 27/619/421 29/620/421 370/621/421
f 370/621/421 282/622/421 27/619/421
f 15/623/422 16/624/422 18/625/422
f 18/625/422 157/626/422 15/623/422
f 148/627/423 270/628/424 349/629/425
f 349/629/425 150/630/426 148/627/423
f 349/631/427 270/632/428 168/633/429
f 168/633/429 167/634/430 349/631/427
f 173/635/431 333/636/431 332/637/431
f 332/637/431 159/638/431 173/635/431
f 261/639/89 192/640/89 193/641/89
f 193/641/89 202/642/89 261/639/89
f 331/643/432 160/644/433 159/645/434
f 159/645/434 332/646/435 331/643/432
f 319/647/436 318/648/436 371/649/436
f 371/649/436 372/650/436 319/647/436
f 304/651/437 298/652/437 330/653/437
f 330/653/437 373/654/437 304/651/437
f 254/655/89 285/656/89 327/657/89
f 327/657/89 255/658/89 254/655/89
f 371/659/438 251/660/439 185/661/440
f 185/661/440 372/662/441 371/659/438
f 185/663/442 183/664/443 374/665/444
f 374/665/444 372/666/445 185/663/442
f 176/667/446 177/668/447 167/669/448
f 167/669/448 170/670/449 176/667/446
f 107/671/450 22/672/451 1/1/452
f 107/671/450 370/673/453 22/672/451
f 29/674/454 22/672/451 370/673/453
f 1/1/455 22/672/451 2/2/455
f 179/675/456 178/676/457 375/677/458
f 178/676/457 33/42/459 375/677/458
f 178/676/457 34/43/460 33/42/459
f 349/678/461 307/679/462 150/680/463
f 307/679/462 349/678/461 348/681/464
f 348/681/464 306/682/465 307/679/462
f 348/681/464 350/683/466 306/682/465
f 306/682/465 350/683/466 376/684/467
f 376/684/467 377/685/468 306/682/465
f 376/684/467 378/686/469 377/685/468
f 377/685/468 378/686/469 179/675/456
f 179/675/456 369/687/470 377/685/468
f 179/675/456 375/677/458 369/687/470
f 97/688/471 369/687/470 375/677/458
f 375/677/458 98/689/472 97/688/471
f 98/689/472 375/677/458 33/42/459
f 33/42/459 46/55/473 98/689/472
f 365/690/474 199/691/475 200/692/476
f 200/692/476 379/693/477 365/690/474
f 379/693/477 200/692/476 201/694/478
f 201/694/478 366/695/479 379/693/477
f 380/696/480 361/697/18 362/698/18
f 362/698/18 381/699/481 380/696/480
f 382/700/482 380/696/480 381/699/481
f 381/699/481 383/701/483 382/700/482
f 384/702/484 382/700/482 383/701/483
f 383/701/483 385/703/485 384/702/484
f 384/702/484 385/703/485 386/704/486
f 386/704/486 387/705/487 384/702/484
f 387/705/487 386/704/486 388/706/18
f 388/706/18 389/707/18 387/705/487
f 389/707/18 388/706/18 390/708/18
f 390/708/18 391/709/18 389/707/18
f 392/710/18 393/711/18 374/712/18
f 393/711/18 392/710/18 394/713/18
f 394/713/18 165/714/18 393/711/18
f 163/715/18 165/714/18 394/713/18
f 394/713/18 171/716/18 163/715/18
f 170/717/18 171/716/18 394/713/18
f 394/713/18 176/718/18 170/717/18
f 175/719/18 176/718/18 394/713/18
f 394/713/18 392/710/18 175/719/18
f 174/720/18 175/719/18 392/710/18
f 392/710/18 395/721/18 174/720/18
f 180/722/18 174/720/18 395/721/18
f 395/721/18 182/723/18 180/722/18
f 183/724/18 182/723/18 395/721/18
f 395/721/18 374/712/18 183/724/18
f 374/712/18 395/721/18 392/710/18
f 225/725/488 224/726/489 99/727/490
f 99/727/490 111/728/491 225/725/488
f 225/725/488 111/728/491 112/729/492
f 225/725/488 112/729/492 126/730/493
f 126/730/493 226/731/494 225/725/488
f 227/732/495 226/731/494 126/730/493
f 126/730/493 125/733/496 227/732/495
f 113/734/497 227/732/495 125/733/496
f 228/735/498 227/732/495 113/734/497
f 113/734/497 124/736/499 228/735/498
f 228/735/498 124/736/499 123/737/500
f 123/737/500 233/738/501 228/735/498
f 233/738/501 123/737/500 114/739/502
f 114/739/502 236/740/503 233/738/501
f 236/740/503 114/739/502 115/741/504
f 115/741/504 235/742/505 236/740/503
f 290/498/340 306/497/340 377/743/340
f 290/498/340 377/743/340 369/744/340
f 369/744/340 291/745/340 290/498/340
f 370/746/506 107/747/506 106/748/506
f 106/748/506 281/749/506 370/746/506
f 281/749/506 282/750/506 370/746/506
f 262/751/436 263/752/436 191/753/436
f 262/751/436 191/753/436 192/754/436
f 192/754/436 261/755/436 262/751/436
f 72/756/507 73/757/507 329/758/507
f 329/758/507 301/759/507 72/756/507
f 42/503/507 72/756/507 301/759/507
f 301/759/507 302/505/507 42/503/507
f 396/760/508 353/761/509 352/762/510
f 352/762/510 397/763/511 396/760/508
f 398/764/512 396/760/508 397/763/511
f 397/763/511 399/765/513 398/764/512
f 356/766/514 398/764/512 399/765/513
f 399/765/513 357/767/515 356/766/514
f 391/768/136 335/769/136 334/770/516
f 334/770/516 389/771/516 391/768/136
f 389/771/516 334/770/516 338/772/517
f 338/772/517 387/773/518 389/771/516
f 387/773/518 338/772/517 340/774/519
f 340/774/519 384/775/520 387/773/518
f 384/775/520 340/774/519 343/776/521
f 343/776/521 382/777/522 384/775/520
f 382/777/522 343/776/521 345/778/523
f 345/778/523 380/779/178 382/777/522
f 380/779/178 345/778/523 347/780/136
f 347/780/136 361/781/136 380/779/178
f 363/590/524 326/593/525 325/782/526
f 325/782/526 297/783/527 363/590/524
f 296/784/527 297/783/527 325/782/526
f 295/785/528 296/784/527 325/782/526
f 324/786/529 295/785/528 325/782/526
f 268/787/530 295/785/528 324/786/529
f 366/695/531 295/785/528 268/787/530
f 268/787/530 379/693/532 366/695/531
f 379/693/532 268/787/530 269/788/533
f 269/788/533 365/690/534 379/693/532
f 362/789/340 346/790/340 344/791/535
f 344/791/535 381/792/535 362/789/340
f 381/792/535 344/791/535 342/793/536
f 342/793/536 383/794/537 381/792/535
f 383/794/537 342/793/536 341/795/538
f 341/795/538 385/796/539 383/794/537
f 385/796/539 341/795/538 339/797/540
f 339/797/540 386/798/541 385/796/539
f 386/798/541 339/797/540 337/799/542
f 337/799/542 388/800/542 386/798/541
f 388/800/542 337/799/542 336/801/340
f 336/801/340 390/802/340 388/800/542
f 317/803/543 316/804/544 364/805/545
f 364/805/545 400/806/546 317/803/543
f 364/805/545 373/654/547 400/806/546
f 373/654/547 364/805/545 305/807/548
f 305/807/548 304/651/548 373/654/547
f 191/808/340 263/809/340 264/810/340
f 264/810/340 188/811/340 191/808/340
f 189/812/340 188/811/340 264/810/340
f 264/810/340 265/813/340 189/812/340
f 265/813/340 164/814/340 189/812/340
f 265/813/340 165/815/340 164/814/340
f 265/813/340 393/816/340 165/815/340
f 374/817/340 393/816/340 265/813/340
f 265/813/340 322/818/340 374/817/340
f 322/818/340 320/819/340 374/817/340
f 372/820/340 374/817/340 320/819/340
f 320/819/340 319/821/340 372/820/340
f 317/822/89 400/823/89 318/824/89
f 400/823/89 373/825/89 318/824/89
f 373/825/89 371/826/89 318/824/89
f 251/827/89 371/826/89 373/825/89
f 373/825/89 330/828/89 251/827/89
f 252/829/89 251/827/89 330/828/89
f 330/828/89 283/830/89 252/829/89
f 93/398/549 130/400/550 132/831/551
f 132/831/551 86/832/552 93/398/549
f 86/832/552 132/831/551 133/833/553
f 133/833/553 84/834/554 86/832/552
f 84/834/554 133/833/553 139/835/555
f 139/835/555 83/836/556 84/834/554
f 83/836/556 139/835/555 140/837/557
f 140/837/557 82/838/558 83/836/556
f 82/838/558 140/837/557 141/839/559
f 141/839/559 80/840/560 82/838/558
f 350/841/561 177/842/561 376/843/561
f 376/843/561 177/842/561 179/844/561
f 378/845/561 376/843/561 179/844/561
f 173/846/562 156/847/563 333/848/564
f 155/849/565 156/847/563 173/846/562
f 173/846/562 172/850/566 155/849/565
f 149/374/567 155/849/565 172/850/566
f 172/850/566 169/375/568 149/374/567
f 221/395/569 49/397/570 209/851/571
f 49/397/570 48/852/572 209/851/571
f 209/851/571 48/852/572 206/853/573
f 48/852/572 52/854/574 206/853/573
f 207/855/575 206/853/573 52/854/574
f 52/854/574 53/856/576 207/855/575
f 207/855/575 53/856/576 51/857/577
f 51/857/577 208/858/578 207/855/575
f 208/858/578 51/857/577 57/859/579
f 57/859/579 216/860/580 208/858/578
f 222/353/581 216/860/580 57/859/579
f 57/859/579 63/354/582 222/353/581
f 195/252/583 164/251/584 162/861/585
f 162/861/585 256/862/586 195/252/583
f 257/863/587 256/862/586 162/861/585
f 162/861/585 161/864/588 257/863/587
f 257/863/587 161/864/588 160/865/589
f 160/865/589 258/866/590 257/863/587
f 258/866/590 160/865/589 331/867/591
f 331/867/591 259/868/592 258/866/590
f 331/867/591 260/869/593 259/868/592
f 223/385/594 65/386/595 67/870/596
f 67/870/596 215/871/597 223/385/594
f 215/871/597 67/870/596 59/872/598
f 59/872/598 217/873/599 215/871/597
f 217/873/599 59/872/598 60/874/600
f 60/874/600 218/875/601 217/873/599
f 356/876/602 355/877/602 401/878/603
f 401/878/603 398/879/604 356/876/602
f 396/880/605 398/879/604 401/878/603
f 401/878/603 402/881/606 396/880/605
f 353/882/607 396/880/605 402/881/606
f 402/881/606 354/883/607 353/882/607
f 367/884/608 314/885/609 312/886/610
f 312/886/610 403/887/611 367/884/608
f 403/887/611 312/886/610 310/888/612
f 310/888/612 404/889/613 403/887/611
f 360/890/614 404/889/613 310/888/612
f 310/888/612 309/891/615 360/890/614
f 359/892/616 308/893/617 311/894/618
f 311/894/618 405/895/619 359/892/616
f 406/896/620 405/895/619 311/894/618
f 311/894/618 313/897/621 406/896/620
f 368/898/622 406/896/620 313/897/621
f 313/897/621 315/899/623 368/898/622
f 351/900/624 354/901/625 402/902/626
f 402/902/626 407/903/627 351/900/624
f 407/903/627 402/902/626 401/904/628
f 401/904/628 408/905/629 407/903/627
f 408/905/629 401/904/628 355/906/630
f 355/906/630 358/907/631 408/905/629
f 368/908/632 367/909/633 403/910/634
f 403/910/634 406/911/635 368/908/632
f 405/912/636 406/911/635 403/910/634
f 403/910/634 404/913/637 405/912/636
f 359/914/638 405/912/636 404/913/637
f 404/913/637 360/915/638 359/914/638
f 358/916/639 357/917/639 399/918/640
f 399/918/640 408/919/641 358/916/639
f 408/919/641 399/918/640 397/920/642
f 397/920/642 407/921/643 408/919/641
f 407/921/643 397/920/642 352/922/644
f 352/922/644 351/923/644 407/921/643
