# Blender v2.78 (sub 0) OBJ File: ''
# www.blender.org
mtllib pk collider.mtl
o Cube_Cube.002
v 0.086538 0.120376 -0.018755
v 0.086538 -0.000528 -0.018755
v 0.086538 0.120376 0.023919
v 0.086538 -0.000528 0.023919
v 0.035813 0.120376 -0.018755
v 0.035813 -0.000528 -0.018755
v 0.035813 0.120376 0.023919
v 0.035813 -0.000528 0.023919
vn -1.0000 0.0000 0.0000
vn 0.0000 0.0000 -1.0000
vn 1.0000 0.0000 0.0000
vn 0.0000 0.0000 1.0000
vn 0.0000 -1.0000 0.0000
vn 0.0000 1.0000 0.0000
usemtl None
s off
f 2//1 3//1 1//1
f 4//2 7//2 3//2
f 8//3 5//3 7//3
f 6//4 1//4 5//4
f 7//5 1//5 3//5
f 4//6 6//6 8//6
f 2//1 4//1 3//1
f 4//2 8//2 7//2
f 8//3 6//3 5//3
f 6//4 2//4 1//4
f 7//5 5//5 1//5
f 4//6 2//6 6//6
o Cube.001
v -0.834141 0.118109 -0.022267
v 0.373971 0.118109 0.022267
v -0.834141 0.118109 0.022267
v -0.834141 0.175244 0.022267
v 0.373972 0.175244 -0.022267
v -0.834141 0.175244 -0.022267
v 0.373971 0.118109 -0.022267
v 0.373971 0.175244 0.022267
vn 0.0000 -1.0000 0.0000
vn 0.0000 1.0000 -0.0000
vn 0.0000 0.0000 -1.0000
vn 1.0000 -0.0000 0.0000
vn 0.0000 -0.0000 1.0000
vn -1.0000 0.0000 0.0000
usemtl Material.001
s 1
f 9//7 10//7 11//7
f 12//8 13//8 14//8
f 14//9 15//9 9//9
f 13//10 10//10 15//10
f 10//11 12//11 11//11
f 9//12 12//12 14//12
f 9//7 15//7 10//7
f 12//8 16//8 13//8
f 14//9 13//9 15//9
f 13//10 16//10 10//10
f 10//11 16//11 12//11
f 9//12 11//12 12//12