# Blender v2.79 (sub 0) OBJ File: ''
# www.blender.org
mtllib scrappile1.mtl
o junk_a_Untitled.005
v 0.435547 0.194702 1.297852
v 0.438477 0.307617 1.296875
v 0.431152 0.307617 1.298828
v 0.431152 0.194702 1.298828
v 0.463623 0.194702 1.289062
v 0.463623 0.307617 1.289062
v -0.312012 0.307617 -1.330078
v -0.312012 0.194702 -1.330078
v 1.096680 0.142334 0.334229
v 0.586914 0.159668 0.077026
v 0.267090 0.170532 -0.096497
v 1.193359 0.140259 0.141357
v 1.182617 0.140503 0.163330
v 0.888672 0.150513 0.016418
v 0.058594 0.177490 -0.189453
v 0.299316 0.307617 1.173828
v 0.336182 0.307617 1.237305
v 0.358154 0.297119 1.320312
v 0.307861 0.295410 1.202148
v 0.343994 0.194702 1.324219
v 0.362793 0.307617 1.319336
v 0.343994 0.293945 1.324219
v 0.313232 0.297607 1.192383
v 0.171021 0.183105 0.588379
v -0.015930 0.183105 0.095642
v -1.143555 0.183105 -1.563477
v 1.126953 0.150879 0.274170
v 0.587402 0.168823 0.077087
v -0.513672 0.207031 -0.666016
v -0.509277 0.206909 -0.674805
v 1.130859 0.150757 0.267090
v 1.152344 0.150391 0.224731
v -0.655762 0.154541 -0.701660
v -0.858887 0.168213 -1.018555
v -0.989746 0.183105 -1.222656
v -1.195312 0.069824 -0.612305
v -1.185547 0.045135 -0.633789
v -0.120605 0.332031 -0.284668
v -0.119751 0.316895 -0.265137
v -0.634277 0.135132 -0.397217
v -0.936035 0.050934 -0.503906
v 0.545898 0.393555 -0.168335
v 0.545898 0.378418 -0.148804
v 0.539062 0.393555 -0.130615
v -0.948242 0.056519 -0.480957
v -1.200195 0.048279 -0.611328
v -1.188477 0.183105 -1.534180
v -1.087891 0.183105 -1.598633
v -1.188477 0.077515 -1.534180
v 0.159424 0.307617 0.701172
v 0.298340 0.307617 1.169922
v 0.428223 0.307617 1.286133
v -0.129150 0.346924 -0.266846
v -0.634766 0.150391 -0.416748
v -0.645508 0.164795 -0.399414
v -0.937500 0.071716 -0.512695
v 0.539062 0.408936 -0.150024
v -0.128296 0.331787 -0.247192
v -0.645020 0.149536 -0.379883
v -0.950195 0.077332 -0.489746
v -1.180664 0.066711 -0.634766
v 1.405273 0.424072 -1.058594
v 1.498047 0.224976 0.076660
v 1.483398 0.208740 0.071350
v 1.467773 0.196777 0.132812
v 1.480469 0.212036 0.143433
v 1.415039 0.175781 0.216553
v 1.425781 0.190308 0.230225
v 1.397461 0.189087 0.209351
v 0.374512 0.183105 0.684082
v -0.188965 0.183105 -0.195190
v -0.010872 0.169800 0.082703
v 2.271484 0.195435 0.440430
v 0.628418 0.328613 0.300049
v 0.629395 0.353027 0.325439
v 2.273438 0.219971 0.465820
v 2.267578 0.176514 0.468262
v -1.018555 0.488037 0.234619
v 0.623535 0.309570 0.327881
v 0.624512 0.333984 0.353516
v 2.269531 0.200928 0.493896
v -1.013672 0.506836 0.206787
v -1.014648 0.482422 0.181274
v -1.019531 0.463379 0.209106
v 1.391602 0.407471 -1.060547
v 1.371094 0.418457 -1.056641
v 1.384766 0.435059 -1.053711
v 0.809082 0.054016 0.846191
v 0.799805 0.040192 0.830078
v 0.815430 0.026260 0.839355
v -1.227539 0.022400 -1.268555
v 1.393555 0.038696 1.018555
v 1.426758 0.091187 0.978516
v -1.187500 -0.023941 -1.313477
v 1.389648 0.088074 1.021484
v -1.190430 0.025452 -1.311523
v 1.177734 0.140625 0.173950
v 1.177734 0.149780 0.173950
v 1.157227 0.150269 0.214111
v 1.157227 0.141113 0.213989
v 0.942871 0.148315 0.113403
v 0.943359 0.157471 0.113525
v 1.151367 0.141235 0.224609
v 1.129883 0.141602 0.267090
v 0.690430 0.156616 0.031708
v 0.690430 0.165771 0.031799
v 1.126953 0.141724 0.274170
v 1.096680 0.151489 0.334229
v 0.267578 0.179688 -0.096436
v 0.059021 0.186645 -0.189331
v -0.588867 0.208618 -0.516113
v -0.514160 0.197876 -0.666016
v -0.589355 0.199463 -0.516113
v -0.233398 0.197510 -0.538574
v -0.233765 0.188354 -0.538574
v -0.509766 0.197754 -0.674805
v -0.491943 0.206543 -0.708984
v -0.492188 0.197388 -0.708984
v 1.194336 0.149414 0.141357
v 1.182617 0.149658 0.163330
v 0.889160 0.159668 0.016479
v -0.103699 0.404785 -0.066528
v -0.090088 0.315674 -0.184570
v 2.119141 0.245361 0.384033
v 2.142578 0.248169 0.271484
v 2.111328 0.153442 0.378418
v 2.132812 0.156250 0.265869
v -0.113220 0.312988 -0.072021
v -0.080566 0.407715 -0.179077
v -0.431641 0.194702 -1.293945
v 0.006729 0.294434 0.185547
v -0.106262 0.307617 -0.195801
v -0.431641 0.307617 -1.293945
v -0.085999 0.283447 -0.127441
v -0.064636 0.292969 -0.087524
v 0.053345 0.299072 0.313721
v -0.016205 0.307617 0.033813
v 0.066650 0.307617 0.333496
v -0.464600 0.123901 0.552734
v 0.518555 0.123901 1.153320
v 0.518555 0.092407 1.153320
v -0.520020 0.123901 0.672363
v 0.574219 0.123901 1.034180
v -0.520020 0.092407 0.672363
v -0.464600 0.092407 0.552734
v 0.574219 0.092407 1.034180
v 0.239868 0.310791 0.061829
v 0.366699 0.226685 0.041412
v -1.082031 0.183105 -1.487305
v 0.166138 0.215088 0.148804
v 0.165894 0.289062 0.110474
v 0.208740 0.143066 0.164673
v -1.131836 0.136719 -1.570312
v -1.128906 0.183105 -1.572266
v 0.356445 0.162109 0.080139
v 1.923828 0.108521 0.147339
v -0.397461 -0.001020 -1.297852
v -0.387695 0.061310 -1.324219
v 1.909180 0.230835 0.147095
v -0.302734 0.067444 -1.458008
v -0.288574 -0.054871 -1.458008
v -0.327881 -0.084107 -1.390625
v 1.968750 0.085327 0.080566
v 0.175171 0.018967 0.843262
v 0.129517 0.018967 0.805664
v 0.204590 -0.000825 0.867676
v 0.096497 -0.028427 0.778809
v 0.287598 0.183105 0.739746
v 0.273682 0.170532 0.748535
v 1.109375 0.018967 -0.385498
v 1.155273 0.018967 -0.347900
v 1.184570 -0.000825 -0.323730
v 1.080078 -0.000825 -0.409668
v 1.076172 -0.028427 -0.412598
v 1.187500 -0.028427 -0.320801
v 0.427490 0.194702 1.269531
v 0.655762 0.080933 -0.650879
v -0.659668 0.204834 -1.163086
v -0.656250 0.230102 -1.163086
v 0.578125 0.088196 -0.449707
v 0.659180 0.106201 -0.650879
v -0.736816 0.212158 -0.961914
v -0.733398 0.237427 -0.961914
v 0.581543 0.113464 -0.449707
v 1.408203 0.203491 0.223022
v 1.460938 0.224487 0.139282
v 1.448242 0.209351 0.128662
v 1.476562 0.236450 0.077820
v 1.462891 0.220215 0.072510
v 0.824219 0.040100 0.855469
v 0.208130 -0.028427 0.870605
v 0.100037 -0.000825 0.781250
v -0.836914 0.171020 -1.016602
v -0.269043 0.117676 -1.588867
v -0.269531 0.095459 -1.584961
v 1.363281 0.262695 -0.168335
v 1.363281 0.284912 -0.172730
v -0.395508 0.115234 -1.443359
v 1.237305 0.282227 -0.026672
v 1.237305 0.304443 -0.031052
v -0.395020 0.137451 -1.447266
v -0.600098 0.061279 -1.533203
v -0.602051 0.087585 -1.532227
v -1.016602 0.026184 -1.031250
v -1.018555 0.052490 -1.029297
v -0.953125 0.027863 -0.977539
v -0.536133 0.062988 -1.480469
v -0.955078 0.054169 -0.976562
v -0.538086 0.089294 -1.479492
v 1.453125 0.112915 0.258545
v 1.385742 0.137451 0.208496
v 1.387695 0.111145 0.207397
v 1.451172 0.139282 0.259766
v 1.049805 0.104553 0.774902
v 1.051758 0.078247 0.773926
v 0.986328 0.076416 0.722656
v 0.984375 0.102722 0.723633
v 1.133789 0.131226 -0.015373
v 1.196289 0.132812 0.039368
v 0.704590 0.095764 0.476562
v 1.135742 0.104919 -0.016495
v 0.706543 0.069458 0.475586
v 1.198242 0.106506 0.038239
v 0.767090 0.097351 0.531250
v 0.769043 0.071045 0.530273
v -0.900391 0.051422 -1.713867
v -0.896484 0.002003 -1.715820
v 1.801758 0.069763 0.645020
v 1.764648 0.066650 0.687500
v -0.933594 -0.001062 -1.672852
v 1.760742 0.116089 0.689453
v 1.797852 0.119141 0.646973
v -0.937500 0.048340 -1.670898
v -0.347900 0.067627 -1.312500
v -0.349854 0.093933 -1.311523
v -0.285889 0.095581 -1.258789
v -0.283936 0.069275 -1.259766
v -0.766602 0.058807 -0.809082
v -0.702637 0.060486 -0.755859
v -0.700684 0.034210 -0.757324
v -0.764648 0.032532 -0.810059
v 0.487793 0.114807 -0.574707
v 0.489746 0.088562 -0.576172
v -0.034027 0.051056 -0.177856
v 0.429443 0.113586 -0.634277
v 0.431641 0.087341 -0.635254
v 0.024200 0.052277 -0.118469
v -0.036011 0.077332 -0.176758
v 0.022217 0.078552 -0.117371
v 0.201050 0.056793 0.033295
v 0.261719 0.084656 0.089172
v 0.263672 0.058380 0.088074
v 0.630371 0.092224 -0.458740
v 0.692871 0.093811 -0.404053
v 0.690918 0.120056 -0.402832
v 0.628418 0.118530 -0.457520
v 0.199097 0.083069 0.034424
v 0.906738 0.099121 -0.214600
v 0.904785 0.125366 -0.213379
v 0.969238 0.127075 -0.160889
v 0.560059 0.065857 0.344971
v 0.971191 0.100830 -0.162109
v 0.495605 0.064148 0.292480
v 0.558105 0.092163 0.346191
v 0.493652 0.090454 0.293701
v 1.430664 0.041748 0.976562
v -1.224609 -0.027008 -1.270508
v 0.147583 0.183105 0.330078
v -0.023102 0.170776 0.084412
v -0.792480 0.183105 -0.975586
v -0.668945 0.159058 -0.754395
v -0.662598 0.183105 -0.759766
v -0.593750 0.183105 -0.604980
v -0.767090 0.810059 -0.200928
v 0.749512 0.326172 0.969238
v 0.685547 0.145020 1.012695
v 0.833496 0.164063 0.928711
v 0.841797 0.154541 0.924316
v 0.856445 0.228760 0.912598
v 0.868164 0.229614 0.906250
v 0.750000 0.312744 0.969238
v 0.374512 0.077515 0.684082
v 0.273682 0.077515 0.748535
v -1.087891 0.077515 -1.598633
v -1.069336 0.034790 -0.427490
v 0.686523 0.097778 0.796387
v -0.957031 0.026566 -0.561035
v -0.958984 0.046783 -0.559570
v 0.578613 0.065552 0.927734
v 0.576660 0.085815 0.928711
v -1.067383 0.014564 -0.428711
v 0.688477 0.077515 0.795410
v 0.499756 -0.022873 0.968750
v -0.305420 0.038727 0.612305
v 0.499756 0.038727 0.968750
v -0.381104 0.038727 0.783691
v 0.424316 -0.022873 1.139648
v -0.305420 -0.022873 0.612305
v -0.381104 -0.022873 0.783691
v 0.424316 0.038727 1.139648
v 0.444824 0.092468 1.166992
v 0.520508 0.037384 1.027344
v 0.520508 0.092468 1.027344
v 0.444824 0.037384 1.166992
v -0.328613 0.092468 0.566895
v -0.328613 0.037384 0.566895
v -0.404053 0.092468 0.706055
v -0.404053 0.037384 0.706055
v -1.075195 0.009788 -0.646484
v 0.803223 0.073608 0.928223
v -1.213867 -0.005219 -0.481201
v -1.210938 -0.030548 -0.482666
v 0.667969 0.033264 1.091797
v 0.665527 0.058594 1.093750
v -1.073242 -0.015533 -0.647949
v 0.805664 0.048279 0.926758
v 0.646973 0.216064 1.031250
v 1.046875 -0.082397 -0.547363
v -0.762207 0.819336 -0.200806
v -0.746094 0.833984 -0.136841
v 1.066406 -0.094666 -0.370361
v -0.701660 0.922363 -0.133179
v 1.084961 -0.048737 -0.394043
v -0.698730 0.945801 -0.195435
v 1.071289 -0.039856 -0.520020
v 0.822754 0.290039 0.929199
v 0.292969 0.130859 0.128418
v 0.765137 0.132813 0.968262
v 0.692383 0.155640 1.008789
v 0.213501 0.153687 0.156860
v 0.681641 0.281738 1.008789
v 0.658691 0.217163 1.024414
v 0.176392 0.279541 0.110107
v 0.319336 0.288086 0.033478
v -0.271729 0.008156 -1.495117
v -0.278809 0.007324 -1.484375
v -0.299072 0.077576 -1.464844
v -0.349365 0.103516 -1.390625
v -0.348389 0.090637 -1.390625
v 1.074219 -0.032471 -0.526855
v 1.092773 -0.016235 -0.456055
v 1.087891 -0.025360 -0.456299
v 1.022461 -0.134888 -0.530762
v 1.027344 -0.128418 -0.523926
v 1.019531 -0.161011 -0.461670
v 1.024414 -0.151855 -0.461426
v -0.749023 0.826172 -0.130249
v -0.720703 0.876465 -0.109619
v -0.719727 0.875488 -0.099304
v -0.715332 0.931152 -0.259522
v -0.740234 0.888672 -0.286621
v -0.741211 0.889648 -0.296875
v -0.759766 0.842773 -0.262939
v 0.154541 0.214111 0.155151
v 0.673828 0.291016 1.013672
v 0.236206 0.323975 0.056793
v 0.324219 0.298584 0.025574
v 0.830078 0.300537 0.925293
v 0.378174 0.227661 0.035095
v 0.366943 0.152710 0.079773
v 0.296631 0.117676 0.133545
v 0.766113 0.119568 0.967773
v 1.038086 -0.144775 -0.390869
v 1.041016 -0.137329 -0.397461
v 1.067383 -0.095642 -0.360107
v 1.089844 -0.042389 -0.386963
v -0.696777 0.928711 -0.126221
v -0.693848 0.955078 -0.195313
v -0.712402 0.938477 -0.265869
v 1.045898 -0.081604 -0.557617
v -0.764160 0.836426 -0.270020
v 1.892578 0.167725 0.184937
v 1.899414 0.168579 0.173950
v 1.919922 0.098328 0.154297
v 1.969727 0.072449 0.080566
v 2.007812 0.114624 0.013908
v 2.017578 0.177002 -0.012924
v 2.025391 0.177612 -0.023804
v 1.994141 0.236938 0.013840
v 1.998047 0.246948 0.006760
v 1.948242 0.260010 0.080505
v 2.013672 0.105225 0.006760
v -0.326904 -0.096985 -1.390625
v -0.283203 -0.064148 -1.464844
v 1.947266 0.272949 0.080566
v 1.904297 0.240112 0.154297
v -0.392822 0.070679 -1.317383
v -0.404297 -0.001620 -1.287109
v -0.373291 -0.060944 -1.324219
v -0.376953 -0.071045 -1.317383
vt 0.383057 0.772461
vt 0.474365 0.751465
vt 0.341797 0.751465
vt 1.518555 0.627197
vt 1.628906 0.633545
vt 1.624023 0.643799
vt 1.516602 0.632812
vt 1.518555 0.622070
vt 1.628906 0.622070
vt 1.541016 0.885803
vt 1.655273 0.882996
vt 1.655273 0.909485
vt 1.541016 0.909485
vt 1.541016 0.639648
vt 1.655273 0.639648
vt 1.655273 0.752563
vt 1.541016 0.752563
vt 1.530273 0.722412
vt 1.530273 0.848267
vt -0.729980 0.848267
vt -0.729980 0.722412
vt -0.444580 0.863892
vt 0.104431 0.863892
vt 0.454102 0.854492
vt 0.035278 0.788818
vt -0.444580 0.805908
vt 1.371094 0.677734
vt -0.444580 0.677734
vt -0.444580 0.698975
vt -0.128418 0.699951
vt 1.075195 0.708740
vt 1.371094 0.863892
vt 0.673340 0.863892
vt 1.371094 0.710938
vt 1.371094 0.719238
vt -0.444580 0.709229
vt -0.444580 0.747803
vt -0.217163 0.753540
vt -0.444580 0.799072
vt -0.444580 0.758057
vt 0.030670 0.690918
vt 0.077271 0.706055
vt 0.030975 0.745605
vt 0.027130 0.688232
vt 0.188965 0.807007
vt 0.268066 0.804565
vt 0.136719 0.712646
vt 1.655273 0.796509
vt 1.655273 0.872925
vt 1.541016 0.871460
vt 1.541016 0.814209
vt 1.561523 0.811035
vt 1.554688 0.796509
vt 0.103333 0.807861
vt -0.385254 0.777100
vt -0.089844 0.777100
vt 0.161621 0.796509
vt 1.628906 0.777100
vt 1.781250 0.786743
vt 1.781250 0.848999
vt 1.216797 0.841797
vt -0.307861 0.815796
vt -0.385254 0.809570
vt 1.445312 0.848999
vt 0.362793 0.792358
vt 0.496338 0.777100
vt 0.946777 0.848999
vt -0.385254 0.848877
vt -0.385254 0.819458
vt -0.444580 0.863892
vt -0.444580 0.805908
vt 0.035278 0.788818
vt 0.454102 0.854492
vt 0.104431 0.863892
vt -0.128418 0.699951
vt -0.444580 0.698975
vt -0.444580 0.677734
vt 1.075195 0.708740
vt 1.371094 0.863892
vt 0.673340 0.863892
vt 1.371094 0.719238
vt 1.371094 0.677734
vt 1.371094 0.710938
vt -0.444580 0.799072
vt -0.444580 0.758057
vt -0.217163 0.753540
vt -0.444580 0.709229
vt -0.444580 0.747803
vt 1.607422 0.751465
vt 1.759766 0.828979
vt 1.759766 0.760742
vt -0.406982 0.751465
vt 0.082092 0.762451
vt -0.111755 0.751465
vt -0.406982 0.828979
vt 1.030273 0.552979
vt 1.030273 0.552979
vt 1.030273 0.552979
vt 1.030273 0.552979
vt 1.030273 0.552979
vt 1.030273 0.552979
vt 1.030273 0.552979
vt 1.030273 0.552979
vt 0.694336 0.552979
vt 0.694336 0.575928
vt 0.421875 0.575928
vt 0.421875 0.552979
vt 0.259277 0.575928
vt 0.259277 0.552979
vt 0.122925 0.575928
vt 0.122925 0.552979
vt 1.030273 0.575928
vt 1.030273 0.598633
vt 0.694336 0.598633
vt 0.421875 0.598633
vt 0.259277 0.598633
vt 0.122925 0.598633
vt 1.791016 0.816650
vt 1.791016 0.784058
vt 1.836914 0.776245
vt 1.791016 0.774170
vt 1.791016 0.745117
vt 1.895508 0.745117
vt 1.895508 0.816650
vt 1.373047 0.754028
vt 0.397705 0.773071
vt 0.654785 0.767944
vt 0.968262 0.754028
vt 1.435547 0.769531
vt 1.506836 0.771729
vt 1.509766 0.833008
vt -0.753906 0.866943
vt 1.496094 0.837036
vt 1.506836 0.866943
vt 1.506836 0.843262
vt -0.753906 0.754028
vt 0.194336 0.754028
vt 0.694336 0.575928
vt 0.421875 0.575928
vt 1.030273 0.575928
vt 0.259277 0.575928
vt 0.122925 0.575928
vt -0.133301 0.575684
vt -0.133301 0.598145
vt 0.861816 0.598145
vt -0.133301 0.552979
vt 0.861816 0.575684
vt 0.917969 0.575684
vt 0.917969 0.598145
vt 1.006836 0.575684
vt 1.006836 0.598145
vt 1.780273 0.598145
vt 1.780273 0.575684
vt 1.006836 0.552979
vt 1.780273 0.552979
vt 0.917969 0.552979
vt 0.861816 0.552979
vt 1.781250 0.926941
vt -0.385254 0.926941
vt 1.210938 0.859253
vt 2.169922 0.848511
vt 2.169922 0.878662
vt 0.544434 0.878662
vt 0.544434 0.848511
vt -1.081055 0.878662
vt -1.081055 0.848511
vt 1.749023 0.973236
vt 1.749023 0.994770
vt 1.718750 0.994770
vt 1.718750 0.973236
vt -1.081055 0.820557
vt -1.081055 0.790405
vt 0.544434 0.790405
vt 0.544434 0.820557
vt 2.169922 0.790405
vt 2.169922 0.820557
vt 1.794922 0.994770
vt 1.764648 0.994770
vt 1.764648 0.973236
vt 1.794922 0.973236
vt -1.081055 0.762329
vt 0.544434 0.762451
vt 2.169922 0.762451
vt 1.780273 0.552979
vt 1.780273 0.552979
vt 1.780273 0.552979
vt 1.780273 0.552979
vt 1.780273 0.552979
vt 1.780273 0.552979
vt 1.780273 0.552979
vt 1.892578 0.705078
vt 1.892578 0.758179
vt -1.436523 0.758179
vt -1.436523 0.705078
vt 1.951172 0.758179
vt 1.951172 0.807495
vt 1.892578 0.807495
vt -1.436523 0.860596
vt 1.892578 0.860596
vt 1.892578 0.909973
vt -1.436523 0.909973
vt -1.436523 0.807495
vt 5.343750 0.785645
vt 5.343750 0.765381
vt 6.531250 0.765381
vt 6.531250 0.785645
vt 6.695312 0.765381
vt 6.695312 0.785645
vt 7.546875 0.765381
vt 7.546875 0.785645
vt 8.398438 0.765381
vt 8.398438 0.785645
vt 8.570312 0.765381
vt 8.570312 0.785645
vt 10.375000 0.765381
vt 10.375000 0.785645
vt -0.114624 0.768433
vt -0.114624 0.788574
vt 1.688477 0.788574
vt 1.688477 0.768433
vt 1.931641 0.788574
vt 1.931641 0.768433
vt 3.992188 0.788574
vt 3.992188 0.768433
vt 5.304688 0.788574
vt 5.304688 0.768433
vt 6.128906 0.788574
vt 6.128906 0.768433
vt 8.750000 0.788574
vt 8.750000 0.768311
vt 0.790039 0.834595
vt 0.972168 0.830688
vt 0.972168 0.808228
vt 0.790527 0.812134
vt -5.113281 0.785522
vt -5.113281 0.765381
vt -4.000000 0.765381
vt -4.000000 0.785522
vt -2.890625 0.765381
vt -2.890625 0.785522
vt -2.751953 0.765381
vt -2.751953 0.785522
vt 4.066406 0.765381
vt 4.066406 0.785645
vt 4.156250 0.765381
vt 4.156250 0.785645
vt 1.500000 0.602051
vt 1.500000 0.723877
vt 1.667969 0.723877
vt 1.666992 0.602051
vt -0.663574 0.723877
vt -0.662598 0.844849
vt 1.500000 0.844849
vt -0.665039 0.602051
vt -0.773926 0.602051
vt -0.772949 0.723877
vt 1.500000 0.844849
vt 1.500000 0.957245
vt -0.661133 0.957245
vt -0.662598 0.844849
vt 1.620117 0.835693
vt -0.541016 0.835693
vt -0.541016 0.723389
vt 1.621094 0.723389
vt -0.753906 0.628174
vt 1.506836 0.628174
vt 1.506836 0.738525
vt 1.401367 0.740234
vt 0.523438 0.739258
vt 0.253418 0.727051
vt 0.290039 0.750122
vt 0.636230 0.755615
vt 1.375977 0.754028
vt 1.057617 0.741211
vt 1.057617 0.827393
vt -0.049042 0.827393
vt -0.049042 0.741211
vt 1.057617 0.867920
vt 0.970703 0.867920
vt 0.970703 0.741211
vt -0.049042 0.823853
vt -0.049042 0.895386
vt 1.057617 0.895386
vt 1.057617 0.823853
vt 0.037781 0.741211
vt 0.037781 0.867920
vt -0.049042 0.867920
vt 1.057617 0.697021
vt -0.049042 0.697021
vt -0.049042 0.715332
vt 1.057617 0.715332
vt -0.105103 0.254883
vt -0.187378 0.280273
vt -0.195679 0.268555
vt -0.104370 0.240234
vt -0.024506 0.290039
vt -0.015305 0.279297
vt 0.006001 0.362305
vt 0.019226 0.362793
vt 0.858398 0.717773
vt 0.932129 0.717773
vt 0.932129 0.779541
vt -0.222412 0.348145
vt -0.235718 0.347168
vt -0.111328 0.455078
vt -0.028961 0.430176
vt -0.020767 0.441406
vt -0.112061 0.469727
vt -0.191895 0.419922
vt -0.201050 0.430664
vt 0.936035 0.779541
vt 1.009766 0.717773
vt 1.009766 0.779541
vt 1.841797 0.205078
vt -0.641113 0.197266
vt -0.641602 0.113281
vt 1.841797 0.120605
vt -0.643555 0.040039
vt 1.839844 0.047852
vt -0.641602 0.113281
vt 1.841797 0.120605
vt -0.641113 0.197266
vt 1.841797 0.205078
vt -0.646484 0.279785
vt 1.836914 0.287598
vt -0.644531 0.353027
vt 1.837891 0.360840
vt -0.642578 0.424805
vt 1.839844 0.432617
vt -0.642090 0.508301
vt 1.840820 0.516113
vt 1.067383 0.510986
vt 1.067383 0.544189
vt 1.024414 0.565674
vt 1.024414 0.489746
vt 0.963867 0.486816
vt 0.963867 0.568359
vt 1.243164 0.737305
vt 0.995605 0.726807
vt 1.243164 0.726807
vt 0.953125 0.510986
vt 0.953125 0.544189
vt 0.909668 0.565674
vt 0.900879 0.489258
vt 0.858398 0.487305
vt 0.849121 0.568359
vt -0.641602 0.113281
vt -0.641113 0.197266
vt 1.841797 0.205078
vt 1.841797 0.120605
vt -0.643555 0.040039
vt 1.839844 0.047852
vt 1.506836 0.874634
vt 1.530273 0.878906
vt 1.530273 0.961243
vt -0.729980 0.961212
vt 1.537109 0.872437
vt -0.266846 0.920105
vt 1.112305 0.920471
vt 1.112305 0.791138
vt -0.266846 0.790771
vt -0.363281 0.865845
vt -0.393311 0.866089
vt -0.393311 0.679932
vt -0.363281 0.679688
vt 1.000977 0.652344
vt 1.000977 0.679688
vt -0.363281 0.679688
vt -0.363281 0.652344
vt 1.000977 0.679688
vt 1.031250 0.679932
vt 1.031250 0.866211
vt 1.000977 0.865845
vt -0.363281 0.892517
vt -0.363281 0.865845
vt 1.000977 0.865845
vt 1.000977 0.892517
vt 1.006836 0.598145
vt 1.006836 0.575684
vt 0.917969 0.575684
vt 0.917969 0.598145
vt 0.861816 0.575684
vt 0.861816 0.598145
vt 1.780273 0.598145
vt 1.780273 0.575684
vt 1.006836 0.552979
vt 0.917969 0.552979
vt 0.861816 0.552979
vt -0.133301 0.552979
vt -0.133301 0.575684
vt -0.133301 0.598145
vt 1.112305 0.895447
vt -0.266846 0.895081
vt -0.266846 0.856567
vt 1.112305 0.857056
vt 1.112305 0.804199
vt -0.266846 0.803711
vt -0.266846 0.774170
vt 1.112305 0.765747
vt 1.112305 0.740723
vt -0.266846 0.731445
vt 0.092712 0.751465
vt 1.599609 0.811523
vt 1.590820 0.641113
vt 1.620117 0.641602
vt 1.626953 0.810425
vt 1.599609 0.811523
vt 1.600586 0.833618
vt -0.426025 0.917114
vt -0.427002 0.893677
vt 1.590820 0.641113
vt 1.620117 0.641602
vt 1.626953 0.810425
vt -0.426025 0.917114
vt -0.427002 0.892639
vt 1.599609 0.811523
vt 1.600586 0.833618
vt -0.434570 0.723877
vt -0.434570 0.723877
vt 1.590820 0.641113
vt 0.742676 0.697266
vt 0.784668 0.697266
vt 0.784668 0.751343
vt 0.742676 0.751343
vt 0.710449 0.836548
vt 0.710449 0.648926
vt 0.060425 0.648926
vt 0.060425 0.836548
vt 0.774414 0.848633
vt 0.774414 0.794556
vt 0.816406 0.794556
vt 0.816406 0.848633
vt 0.060425 0.842407
vt 0.060425 0.703125
vt 0.710449 0.703125
vt 0.710449 0.842407
vt 0.060425 0.891357
vt 0.710449 0.891357
vt 0.704102 0.583252
vt 0.746582 0.583252
vt 0.746582 0.637207
vt 0.704102 0.637207
vt 0.686035 0.640137
vt 0.686035 0.670410
vt 0.035736 0.670410
vt 0.035736 0.640137
vt 0.758301 0.637207
vt 0.758301 0.583252
vt 0.800781 0.583252
vt 0.800781 0.637207
vt 0.035736 0.754883
vt 0.035736 0.724609
vt 0.686035 0.724609
vt 0.686035 0.754883
vt 0.035736 0.585938
vt 0.686035 0.585938
vt 0.601562 0.563721
vt 0.644531 0.563721
vt 0.644531 0.618896
vt 0.601562 0.618896
vt 0.583008 0.621826
vt 0.583008 0.652588
vt -0.078308 0.652588
vt -0.078308 0.621826
vt 0.656738 0.618896
vt 0.656738 0.563721
vt 0.699707 0.563721
vt 0.699707 0.618896
vt -0.078308 0.738525
vt -0.078308 0.707520
vt 0.583008 0.707520
vt 0.583008 0.738525
vt -0.078308 0.566650
vt 0.583008 0.566650
vt -1.613281 0.755981
vt -1.613281 0.702881
vt 1.819336 0.702881
vt 1.819336 0.755981
vt -1.671875 0.653564
vt -1.613281 0.653564
vt -1.671875 0.702881
vt 1.819336 0.600586
vt 1.819336 0.653564
vt -1.613281 0.600342
vt 1.877930 0.653564
vt 1.877930 0.702881
vt 1.819336 0.805420
vt -1.613281 0.805298
vt 0.926758 0.546387
vt 0.970703 0.546387
vt 0.970703 0.603271
vt 0.926758 0.603271
vt 0.907227 0.606201
vt 0.907227 0.637939
vt 0.225342 0.637939
vt 0.225342 0.606201
vt 0.983398 0.603271
vt 0.983398 0.546387
vt 1.027344 0.546387
vt 1.027344 0.603271
vt 0.225342 0.726562
vt 0.225342 0.694824
vt 0.907227 0.694824
vt 0.907227 0.726562
vt 0.225342 0.549316
vt 0.907227 0.549316
vt 0.813965 0.725098
vt 0.856445 0.725098
vt 0.856445 0.779175
vt 0.813965 0.779175
vt 0.795898 0.781982
vt 0.795898 0.812378
vt 0.145508 0.812378
vt 0.145508 0.781982
vt 0.868164 0.725098
vt 0.910156 0.725098
vt 0.910156 0.779175
vt 0.868164 0.779175
vt 0.145508 0.896851
vt 0.145508 0.866455
vt 0.795898 0.866455
vt 0.795898 0.896851
vt 0.145508 0.728027
vt 0.795898 0.728027
vt 0.926758 0.546387
vt 0.970703 0.546387
vt 0.970703 0.603271
vt 0.926758 0.603271
vt 0.907227 0.606201
vt 0.907227 0.637939
vt 0.225342 0.637939
vt 0.225342 0.606201
vt 0.983398 0.603271
vt 0.983398 0.546387
vt 1.027344 0.546387
vt 1.027344 0.603271
vt 0.225342 0.726562
vt 0.225342 0.694824
vt 0.907227 0.694824
vt 0.907227 0.726562
vt 0.225342 0.549316
vt 0.907227 0.549316
vt 0.813965 0.725098
vt 0.856445 0.725098
vt 0.856445 0.779175
vt 0.813965 0.779175
vt 0.795898 0.781982
vt 0.795898 0.812378
vt 0.145508 0.812378
vt 0.145508 0.781982
vt 0.868164 0.779175
vt 0.868164 0.725098
vt 0.910156 0.725098
vt 0.910156 0.779175
vt 0.145508 0.896851
vt 0.145508 0.866455
vt 0.795898 0.866455
vt 0.795898 0.896851
vt 0.145508 0.728027
vt 0.795898 0.728027
vt -1.495117 0.758179
vt -1.495117 0.807495
vt 1.206055 0.848999
vt 0.114563 0.777100
vt 0.363770 0.777100
vt -0.643066 0.106445
vt -0.642578 0.182617
vt 1.607422 0.189941
vt 1.607422 0.113281
vt -0.645020 0.040039
vt 1.605469 0.046875
vt 1.085938 0.211426
vt 1.179688 0.194336
vt 1.176758 0.207520
vt 1.235352 0.247559
vt 1.247070 0.241211
vt 1.236328 0.319824
vt 1.249023 0.324219
vt 1.177734 0.383789
vt 1.184570 0.395508
vt 1.093750 0.399414
vt 1.090820 0.412598
vt 1.035156 0.359375
vt 1.023438 0.365723
vt 1.034180 0.287109
vt 1.021484 0.282715
vt 1.092773 0.223145
vt 1.803711 0.844727
vt 1.895508 0.844727
vt 1.895508 0.916138
vt 1.791016 0.916138
vt 1.791016 0.854370
vt 1.781250 0.848999
vt -0.385254 0.848877
vt -0.863770 0.870605
vt -0.891113 0.870605
vt -0.891113 0.699707
vt -0.863770 0.699707
vt 1.298828 0.870605
vt 1.298828 0.895325
vt -0.863770 0.895325
vt 1.298828 0.699707
vt 1.326172 0.699707
vt 1.326172 0.870605
vt -0.863770 0.724365
vt 1.298828 0.724365
vt 0.056091 0.877808
vt 0.056091 0.831421
vt 0.973145 0.831421
vt 0.973145 0.877808
vt -0.037415 0.734863
vt 0.056091 0.734863
vt -0.037445 0.831421
vt 0.973145 0.781250
vt 0.973145 0.734863
vt 0.056091 0.781250
vt 1.066406 0.831421
vt 1.066406 0.734863
vt -0.064636 0.877441
vt -0.064636 0.831909
vt 1.111328 0.831909
vt 1.111328 0.877441
vt -0.062012 0.764404
vt -0.094788 0.765503
vt -0.094788 0.878479
vt -0.062012 0.877441
vt 1.111328 0.764404
vt 1.111328 0.718994
vt -0.063232 0.718994
vt 1.151367 0.877441
vt 1.151367 0.764404
vt -0.431641 0.794434
vt -0.461426 0.794434
vt -0.461426 0.610107
vt -0.431641 0.610107
vt 1.900391 0.584961
vt 1.900391 0.611572
vt -0.431641 0.611572
vt -0.431641 0.584961
vt 1.900391 0.794434
vt 1.900391 0.610107
vt 1.930664 0.610107
vt 1.930664 0.794434
vt -0.431641 0.822510
vt -0.431641 0.795776
vt 1.900391 0.795776
vt 1.900391 0.822510
vt 1.025391 0.010254
vt 0.015495 0.006836
vt 0.050049 0.090332
vt 1.027344 0.093262
vt 0.065674 0.186035
vt 1.027344 0.189453
vt -0.191406 0.262207
vt 1.769531 0.265137
vt 1.768555 0.212402
vt -0.193237 0.209473
vt 1.767578 0.148926
vt -0.193970 0.145996
vt 1.768555 0.084473
vt -0.193115 0.081055
vt 1.770508 0.030273
vt -0.191284 0.027344
vt 1.771484 0.083008
vt -0.189575 0.080078
vt 1.772461 0.146484
vt -0.188843 0.144043
vt 1.771484 0.211426
vt -0.189575 0.208496
vt 1.021484 0.444824
vt -0.010773 0.448242
vt 0.019226 0.364746
vt 1.023438 0.361816
vt 0.047668 0.282715
vt 1.021484 0.282715
vt 0.058380 0.187988
vt 1.026367 0.185059
vt 1.027344 0.093262
vt 0.045502 0.090332
vt 1.025391 0.010254
vt 0.015495 0.006836
vt 1.027344 0.093262
vt -0.008804 0.090332
vt 1.026367 0.185059
vt -0.018173 0.186035
vt -0.010773 0.279297
vt 1.021484 0.282715
vt -0.655762 0.424316
vt -0.654297 0.507812
vt -0.658203 0.354492
vt -0.658691 0.279785
vt -0.652832 0.197754
vt 1.614258 0.264160
vt 1.618164 0.189941
vt 1.607422 0.189941
vt 1.602539 0.264160
vt 1.616211 0.331055
vt 1.604492 0.330566
vt 1.618164 0.395996
vt 1.606445 0.395996
vt 1.618164 0.471680
vt 1.606445 0.471680
vt 0.336426 0.032715
vt 0.405029 0.049316
vt 0.399170 0.057129
vt 0.428223 0.101562
vt 0.437988 0.100586
vt 0.409424 0.149902
vt 0.416260 0.156738
vt 0.351807 0.175293
vt 0.352539 0.185059
vt 0.289795 0.160156
vt 0.284180 0.167969
vt 0.260742 0.115723
vt 0.250977 0.116699
vt 0.279785 0.067383
vt 0.272705 0.060547
vt 0.337402 0.042480
vt 1.027344 0.093262
vt -0.013611 0.090332
vt 1.027344 0.189453
vt -0.024353 0.186035
vt 0.052460 0.444824
vt 1.026367 0.447754
vt 0.064575 0.539551
vt 1.026367 0.542480
vt 1.461914 0.114746
vt 1.525391 0.052246
vt 1.530273 0.063477
vt 1.472656 0.119629
vt 1.458984 0.191895
vt 1.469727 0.186523
vt 1.518555 0.238770
vt 1.522461 0.226562
vt 1.606445 0.227539
vt 1.600586 0.216309
vt -0.643066 0.106445
vt 1.607422 0.113281
vt -0.642578 0.182617
vt 1.607422 0.189941
vt -0.647461 0.257324
vt 1.602539 0.264160
vt -0.645996 0.323730
vt 1.604492 0.330566
vt -0.644043 0.388672
vt 1.606445 0.395996
vt -0.643555 0.464355
vt 1.606445 0.471680
vt 1.888672 0.132324
vt 1.966797 0.126953
vt 1.961914 0.138672
vt 2.005859 0.191406
vt 2.017578 0.187500
vt 2.000000 0.273438
vt 2.011719 0.278320
vt 1.947266 0.335449
vt 1.953125 0.346680
vt 1.879883 0.340332
vt 1.875000 0.352051
vt 1.824219 0.291504
vt 1.830078 0.200684
vt 1.894531 0.143555
vt 1.839844 0.432617
vt 1.840820 0.516113
vt -0.642090 0.508301
vt -0.642578 0.424805
vt 1.837891 0.360840
vt -0.644531 0.353027
vt 1.836914 0.287598
vt -0.646484 0.279785
vt 1.841797 0.205078
vt -0.641113 0.197266
vt 1.841797 0.120605
vt -0.641602 0.113281
vt 1.693359 0.127930
vt 1.756836 0.065918
vt 1.750977 0.053223
vt 1.680664 0.122070
vt 1.690430 0.201660
vt 1.677734 0.207520
vt 1.747070 0.246094
vt 1.744141 0.259277
vt 1.833984 0.234863
vt 1.839844 0.247070
vn -0.8266 0.3577 0.4346
vn -0.6006 0.7075 0.3725
vn -0.5719 0.7551 0.3204
vn 0.0648 0.9904 0.1222
vn 0.0066 -0.9994 0.0347
vn -0.4653 -0.0205 0.8849
vn -0.1926 0.6109 0.7679
vn 0.7031 0.5802 0.4112
vn 0.6803 -0.5836 0.4435
vn 0.7200 -0.5781 0.3840
vn 0.7197 0.5781 0.3846
vn 0.3878 0.5770 -0.7188
vn 0.3878 -0.5771 -0.7188
vn -0.7184 -0.5776 -0.3876
vn -0.7184 0.5776 -0.3876
vn 0.2484 -0.5839 0.7729
vn -0.3537 -0.6907 0.6307
vn -0.3319 -0.7062 0.6255
vn -0.0279 -0.9996 -0.0033
vn 0.7694 -0.5919 -0.2401
vn -0.2689 -0.5679 -0.7780
vn 0.7388 -0.6244 -0.2536
vn 0.2545 -0.5832 0.7715
vn -0.0257 -0.9997 0.0036
vn -0.0381 -0.9992 -0.0096
vn -0.7984 -0.5456 0.2547
vn -0.3267 -0.6971 0.6382
vn -0.7983 -0.5452 0.2559
vn -0.2972 -0.5653 -0.7694
vn 0.7693 -0.5917 -0.2409
vn 0.2562 -0.5900 0.7657
vn -0.0198 -0.9998 -0.0001
vn 0.2006 -0.5929 0.7799
vn 0.7378 -0.6253 -0.2543
vn -0.7110 0.6623 0.2362
vn -0.5667 0.6029 0.5616
vn -0.4100 0.9012 0.1407
vn -0.6781 0.7080 0.1973
vn -0.1113 0.4172 0.9019
vn -0.4420 0.5034 0.7424
vn -0.7505 0.5944 0.2887
vn -0.3911 -0.5779 0.7163
vn -0.2231 0.6576 0.7196
vn -0.7980 0.5770 -0.1738
vn -0.6060 0.6939 0.3891
vn -0.3006 0.9300 0.2116
vn -0.5947 0.7071 0.3827
vn 0.1581 0.7198 0.6759
vn 0.7975 0.5773 0.1751
vn 0.5724 0.7241 -0.3848
vn -0.0068 0.9999 -0.0105
vn 0.0400 0.6408 -0.7666
vn 0.5926 0.7098 -0.3808
vn -0.5028 0.8232 0.2636
vn 0.5950 0.7080 -0.3805
vn 0.1739 0.5771 -0.7979
vn -0.7709 0.5993 -0.2157
vn 0.2624 0.5706 0.7782
vn 0.7882 0.5670 -0.2392
vn 0.0345 0.9994 0.0069
vn -0.2850 0.7251 0.6269
vn -0.3042 0.7163 0.6280
vn 0.0402 0.9992 0.0076
vn 0.2657 0.5689 0.7783
vn 0.8155 0.5251 -0.2434
vn 0.0201 0.9997 0.0098
vn -0.7505 0.6083 0.2583
vn -0.2842 0.7057 0.6490
vn -0.2452 0.5922 -0.7676
vn -0.2360 0.5872 -0.7743
vn -0.7505 0.6075 0.2600
vn 0.2908 0.5552 0.7792
vn 0.8146 0.5292 -0.2374
vn 0.0428 0.9990 0.0108
vn 0.7886 0.5658 -0.2409
vn 0.2702 0.5681 0.7773
vn -0.1750 -0.5774 0.7975
vn -0.2517 0.3318 0.9091
vn -0.6627 0.5875 0.4644
vn -0.7976 -0.5774 -0.1747
vn -0.8574 -0.4576 0.2354
vn -0.7162 0.6776 0.1671
vn -0.1293 0.5317 -0.8370
vn -0.2914 -0.6167 -0.7313
vn 0.7018 -0.7011 0.1263
vn 0.6973 0.0690 -0.7134
vn 0.6882 0.6678 -0.2836
vn 0.6114 -0.4800 0.6291
vn 0.2004 0.0688 -0.9773
vn 0.1981 -0.9790 0.0485
vn 0.2818 -0.9569 0.0705
vn 0.2835 0.0138 -0.9589
vn 0.2898 -0.8925 -0.3457
vn 0.2752 0.4441 -0.8527
vn -0.2132 0.0420 0.9761
vn -0.2692 -0.0474 0.9619
vn -0.2612 -0.5114 0.8187
vn -0.5399 0.0690 -0.8389
vn 0.1745 -0.5771 -0.7978
vn -0.3771 0.9199 0.1072
vn -0.3835 0.9183 0.0982
vn -0.6808 0.7042 0.2014
vn -0.6761 0.7066 0.2088
vn -0.2130 0.9768 -0.0240
vn -0.2835 0.9581 -0.0402
vn -0.3186 0.8370 0.4449
vn -0.1781 0.7712 0.6111
vn 0.1007 -0.6742 -0.7317
vn 0.7542 0.2658 -0.6004
vn 0.9816 0.1534 0.1137
vn -0.8496 -0.0573 -0.5243
vn 0.2323 -0.9595 -0.1597
vn 0.2233 -0.9676 -0.1178
vn 0.9053 0.0970 0.4136
vn 0.1770 -0.9789 -0.1023
vn 0.7836 0.0277 0.6206
vn 0.1836 -0.1249 0.9750
vn -0.2565 -0.9309 0.2599
vn -0.7807 -0.0452 -0.6233
vn -0.9752 -0.1172 -0.1877
vn -0.9068 -0.0970 -0.4102
vn -0.9766 -0.1812 -0.1161
vn 0.7975 -0.5773 0.1751
vn 0.6233 0.6656 -0.4106
vn 0.6749 0.7375 -0.0265
vn 0.6100 -0.1280 -0.7820
vn 0.0707 -0.0890 -0.9935
vn 0.0931 0.9921 -0.0843
vn -0.5051 -0.0115 -0.8630
vn -0.4877 0.8660 -0.1101
vn 0.5175 0.0169 0.8555
vn 0.4929 -0.8637 0.1049
vn -0.6201 0.1327 0.7732
vn -0.6785 -0.7344 0.0175
vn -0.0927 -0.9929 0.0743
vn -0.0710 0.0829 0.9940
vn -0.2003 0.9001 -0.3869
vn -0.5398 0.6365 0.5509
vn 0.0956 -0.6057 0.7899
vn 0.0184 0.5441 0.8388
vn -0.8442 0.5306 0.0767
vn -0.7819 -0.6223 0.0360
vn 0.8496 -0.5225 -0.0717
vn 0.7772 0.6284 -0.0333
vn -0.0254 -0.5517 -0.8336
vn -0.0899 0.5998 -0.7951
vn -0.7293 -0.5398 0.4205
vn -0.6305 0.6080 0.4825
vn -0.3984 0.6443 -0.6528
vn -0.4962 -0.5060 -0.7055
vn 0.4895 0.5094 0.7078
vn 0.7277 0.5413 -0.4213
vn 0.4061 -0.6417 0.6506
vn 0.6258 -0.6093 -0.4869
vn -0.7740 0.5938 0.2196
vn -0.9290 0.1770 0.3251
vn -0.8508 0.4375 0.2911
vn -0.4667 0.8768 0.1161
vn 0.7671 0.5772 -0.2799
vn 0.7671 -0.5772 -0.2799
vn -0.2811 -0.5773 -0.7666
vn -0.2811 0.5773 -0.7666
vn 0.2799 0.5775 0.7669
vn 0.2799 -0.5775 0.7669
vn -0.7665 0.5773 0.2812
vn -0.7665 -0.5773 0.2812
vn -0.2573 -0.7780 -0.5731
vn -0.0217 -0.6770 -0.7356
vn -0.8546 0.3677 -0.3666
vn -0.4104 0.6026 -0.6844
vn -0.5272 -0.7214 -0.4491
vn 0.1044 0.4316 -0.8960
vn -0.8102 -0.4475 -0.3786
vn 0.4178 -0.1154 -0.9012
vn 0.1587 -0.3677 -0.9163
vn -0.9646 -0.2275 -0.1337
vn -0.4482 0.4193 -0.7895
vn -0.8655 0.1076 -0.4893
vn 0.2440 -0.6916 -0.6799
vn -0.1745 -0.8893 -0.4227
vn 0.0482 0.1765 -0.9831
vn -0.6216 -0.7555 -0.2069
vn 0.6181 0.6638 0.4210
vn -0.7047 0.5707 -0.4215
vn -0.4848 0.4113 -0.7719
vn 0.8416 0.5254 0.1250
vn -0.3873 -0.0519 -0.9205
vn 0.9924 0.1177 -0.0370
vn -0.4408 -0.4922 -0.7506
vn 0.9240 -0.3756 0.0714
vn -0.6151 -0.6645 -0.4244
vn 0.7041 -0.5727 0.4199
vn -0.8392 -0.5298 -0.1231
vn 0.4853 -0.4133 0.7705
vn -0.9930 -0.1166 0.0204
vn 0.3535 0.0432 0.9344
vn -0.9292 0.3561 -0.0989
vn 0.4240 0.5063 0.7509
vn -0.2804 0.7334 0.6193
vn -0.5569 0.7302 0.3958
vn -0.8835 0.4633 0.0687
vn 0.0962 0.4623 0.8815
vn 0.1222 -0.5312 0.8384
vn -0.8457 -0.5316 0.0470
vn 0.2784 0.7330 -0.6206
vn 0.5571 0.7298 -0.3963
vn 0.8892 0.4518 -0.0730
vn -0.0936 0.4614 -0.8823
vn -0.1274 -0.5304 -0.8381
vn 0.8408 -0.5398 -0.0403
vn -0.7517 -0.6548 0.0785
vn -0.4797 -0.8074 -0.3435
vn 0.5998 -0.7222 0.3446
vn 0.3008 -0.5660 0.7675
vn -0.9393 -0.0954 0.3295
vn 0.0986 0.0083 0.9951
vn 0.0000 -1.0000 0.0000
vn -0.2601 0.6101 -0.7484
vn -0.3967 -0.5361 -0.7451
vn -0.8073 -0.4900 0.3288
vn -0.6763 0.6576 0.3319
vn 0.8076 0.4900 -0.3280
vn 0.6769 -0.6574 -0.3313
vn 0.3958 0.5362 0.7456
vn 0.2593 -0.6102 0.7486
vn -0.1139 0.9817 0.1528
vn -0.1124 0.9793 0.1682
vn -0.1294 0.9771 0.1689
vn -0.4068 0.8489 0.3375
vn -0.8062 0.5903 -0.0397
vn -0.0430 0.4504 -0.8918
vn -0.0639 -0.6918 -0.7193
vn -0.8236 -0.5492 0.1416
vn 0.8177 0.5557 -0.1505
vn 0.8125 -0.5811 0.0461
vn 0.0559 0.6989 0.7130
vn 0.0509 -0.4422 0.8955
vn -0.0398 -0.5545 -0.8313
vn -0.1153 0.5975 -0.7935
vn 0.7763 0.6278 -0.0569
vn 0.8465 -0.5238 -0.0955
vn -0.7769 -0.6283 0.0413
vn -0.8461 0.5221 0.1075
vn 0.1103 -0.5971 0.7946
vn 0.0355 0.5532 0.8323
vn -0.0626 -0.5536 -0.8304
vn -0.1380 0.5974 -0.7900
vn 0.7738 0.6288 -0.0763
vn 0.8435 -0.5232 -0.1216
vn -0.7736 -0.6287 0.0793
vn -0.8439 0.5235 0.1178
vn 0.1379 -0.5957 0.7913
vn 0.0624 0.5556 0.8291
vn -0.0178 -0.5507 -0.8345
vn -0.0933 0.6006 -0.7941
vn 0.7779 0.6275 -0.0323
vn 0.8481 -0.5244 -0.0753
vn -0.7779 -0.6274 0.0347
vn -0.8482 0.5246 0.0734
vn 0.0934 -0.5987 0.7955
vn 0.0178 0.5528 0.8331
vn -0.0182 -0.5518 -0.8338
vn -0.0972 0.5990 -0.7949
vn 0.7767 0.6290 -0.0335
vn 0.8495 -0.5224 -0.0741
vn -0.7763 -0.6293 0.0358
vn -0.8490 0.5229 0.0763
vn 0.0950 -0.5996 0.7946
vn 0.0160 0.5519 0.8337
vn -0.0400 -0.5542 -0.8314
vn -0.1152 0.5977 -0.7934
vn 0.7765 0.6276 -0.0569
vn 0.8463 -0.5241 -0.0957
vn -0.7762 -0.6280 0.0552
vn -0.8465 0.5241 0.0936
vn 0.1159 -0.6043 0.7883
vn 0.0397 0.5475 0.8359
vn 0.0480 -0.5485 -0.8348
vn -0.0340 0.6024 -0.7975
vn 0.7799 0.6249 0.0345
vn 0.8502 -0.5261 -0.0185
vn -0.7794 -0.6258 -0.0297
vn -0.8504 0.5260 0.0129
vn 0.0315 -0.6043 0.7962
vn -0.0447 0.5471 0.8359
vn -0.0179 -0.5493 -0.8354
vn -0.0934 0.6022 -0.7929
vn 0.7781 0.6273 -0.0311
vn 0.8481 -0.5242 -0.0768
vn -0.7780 -0.6275 0.0326
vn -0.8482 0.5243 0.0756
vn 0.0936 -0.6003 0.7943
vn 0.0180 0.5510 0.8343
vn -0.0469 -0.5510 -0.8332
vn -0.1226 0.6002 -0.7904
vn 0.7756 0.6284 -0.0603
vn 0.8455 -0.5234 -0.1058
vn -0.7756 -0.6283 0.0603
vn -0.8454 0.5236 0.1057
vn 0.1226 -0.6002 0.7904
vn 0.0470 0.5510 0.8332
vn 0.6322 0.6729 -0.3840
vn -0.7769 -0.2707 0.5685
vn -0.9228 -0.3789 0.0699
vn 0.1990 -0.9757 -0.0914
vn 0.3322 -0.8475 0.4141
vn -0.4661 0.2137 0.8585
vn 0.6243 -0.3463 0.7002
vn 0.2731 0.7737 0.5717
vn -0.1492 0.5594 0.8153
vn 0.7745 -0.4212 0.4719
vn 0.8984 0.0758 0.4326
vn -0.3788 -0.0390 0.9247
vn 0.6943 0.4878 0.5291
vn -0.0999 -0.6080 0.7876
vn 0.3585 0.6187 0.6990
vn 0.3554 -0.7624 0.5407
vn 0.0428 0.4477 0.8931
vn 0.7897 -0.5407 0.2897
vn -0.0978 -0.0061 0.9952
vn 0.9849 0.0687 0.1592
vn 0.0590 -0.4761 0.8774
vn 0.7135 0.6200 0.3262
vn 0.4159 -0.6117 0.6730
vn -0.1263 0.6124 -0.7804
vn -0.0314 -0.5156 -0.8562
vn -0.7660 -0.6413 0.0443
vn -0.8553 0.5076 0.1038
vn 0.7657 0.6412 -0.0500
vn 0.9905 0.1000 -0.0943
vn 0.0295 0.5463 0.8371
vn 0.1131 -0.0732 0.9909
vn 0.0625 -0.9973 -0.0383
vn 0.7615 0.5774 -0.2946
vn 0.7615 -0.5774 -0.2946
vn -0.2946 -0.5773 -0.7615
vn -0.2946 0.5773 -0.7615
vn 0.2949 0.5773 0.7614
vn 0.2949 -0.5773 0.7614
vn -0.7614 0.5774 0.2948
vn -0.7614 -0.5774 0.2948
vn 0.7827 0.5774 -0.2324
vn 0.7827 -0.5774 -0.2324
vn -0.2324 -0.5773 -0.7827
vn -0.2324 0.5773 -0.7827
vn 0.2322 0.5773 0.7828
vn 0.2322 -0.5773 0.7828
vn -0.7828 0.5774 0.2321
vn -0.7828 -0.5774 0.2321
vn -0.1159 0.6075 -0.7858
vn -0.0321 -0.5427 -0.8393
vn -0.7598 -0.6488 0.0414
vn -0.8604 0.5002 0.0979
vn 0.7652 0.6423 -0.0425
vn 0.8559 -0.5075 -0.0995
vn 0.0259 0.5355 0.8442
vn 0.1241 -0.6131 0.7802
vn 0.7908 -0.4085 0.4558
vn -0.6800 0.3142 0.6625
vn -0.4525 0.7321 0.5092
vn 0.9659 -0.0181 0.2584
vn -0.3923 0.9135 0.1078
vn 0.9803 0.1746 -0.0929
vn -0.5388 0.7942 -0.2810
vn 0.8805 0.0633 -0.4698
vn -0.7926 0.4053 -0.4556
vn 0.6802 -0.3160 -0.6615
vn -0.9653 0.0207 -0.2603
vn 0.4269 -0.7343 -0.5277
vn -0.9799 -0.1753 0.0948
vn 0.3922 -0.9135 -0.1086
vn -0.8829 -0.0641 0.4652
vn 0.5270 -0.7975 0.2937
vn -0.2052 -0.6107 -0.7648
vn -0.0911 -0.0069 -0.9958
vn -0.3030 0.5623 -0.7694
vn -0.5995 0.7227 -0.3441
vn 0.7803 0.2662 -0.5659
vn 0.9241 0.3752 -0.0732
vn 0.4726 -0.2156 -0.8545
vn 0.2080 -0.7672 -0.6068
vn -0.2070 0.7683 0.6057
vn -0.2010 0.9753 0.0915
vn -0.3338 0.8466 -0.4146
vn -0.6216 0.3490 -0.7013
vn -0.8829 -0.1873 -0.4306
vn 0.8893 0.1811 0.4200
vn 0.2230 0.6047 0.7646
vn 0.8584 -0.5059 -0.0848
vn 0.9460 0.0936 -0.3105
vn 0.7527 0.6541 -0.0749
vn 0.4787 0.8071 0.3454
vn -0.8532 0.5123 0.0975
usemtl junk
s 1
f 33/1/1 273/2/2 271/3/3
f 52/4/4 176/5/5 1/6/6
f 1/6/6 2/7/7 52/4/4
f 52/4/4 3/8/8 4/9/9
f 4/9/9 176/5/5 52/4/4
f 2/10/7 1/11/6 5/12/10
f 5/12/10 6/13/11 2/10/7
f 7/14/12 8/15/13 130/16/14
f 130/16/14 133/17/15 7/14/12
f 6/18/11 5/19/10 8/20/13
f 8/20/13 7/21/12 6/18/11
f 9/22/16 10/23/17 11/24/18
f 11/24/18 105/25/19 9/22/16
f 105/25/19 107/26/20 9/22/16
f 118/27/21 12/28/22 13/29/23
f 13/29/23 14/30/24 118/27/21
f 118/27/21 14/30/24 115/31/25
f 105/25/19 115/31/25 14/30/24
f 115/31/25 105/25/19 113/32/26
f 113/32/26 105/25/19 11/24/18
f 11/24/18 15/33/27 113/32/26
f 115/31/25 116/34/28 118/27/21
f 113/32/26 112/35/29 115/31/25
f 14/30/24 97/36/30 100/37/31
f 100/37/31 101/38/32 14/30/24
f 14/30/24 101/38/32 105/25/19
f 104/39/33 105/25/19 101/38/32
f 101/38/32 103/40/34 104/39/33
f 16/41/35 23/42/36 17/43/37
f 17/43/37 51/44/38 16/41/35
f 18/45/39 23/42/36 22/46/40
f 19/47/41 22/46/40 23/42/36
f 19/47/41 23/42/36 16/41/35
f 20/48/42 4/49/9 3/50/8
f 3/50/8 21/51/43 18/52/39
f 3/50/8 18/52/39 20/48/42
f 18/52/39 22/53/40 20/48/42
f 17/43/37 23/42/36 21/54/43
f 18/45/39 21/54/43 23/42/36
f 47/55/44 35/56/45 270/57/46
f 24/58/47 168/59/48 70/60/49
f 70/60/49 25/61/50 24/58/47
f 270/57/46 24/58/47 25/61/50
f 25/61/50 149/62/51 270/57/46
f 270/57/46 149/62/51 47/55/44
f 149/62/51 26/63/52 47/55/44
f 70/60/49 268/64/53 25/61/50
f 272/65/54 273/66/2 24/58/47
f 24/58/47 270/57/46 272/65/54
f 25/61/50 71/67/55 48/68/56
f 149/62/51 25/61/50 48/68/56
f 48/68/56 154/69/57 149/62/51
f 108/70/58 27/71/59 106/72/60
f 106/72/60 109/73/61 108/70/58
f 109/73/61 28/74/62 108/70/58
f 121/75/63 120/76/64 119/77/65
f 119/77/65 114/78/66 121/75/63
f 121/75/63 114/78/66 106/72/60
f 111/79/67 106/72/60 114/78/66
f 109/73/61 106/72/60 111/79/67
f 111/79/67 110/80/68 109/73/61
f 114/78/66 29/81/69 111/79/67
f 119/77/65 117/82/70 30/83/71
f 30/83/71 114/78/66 119/77/65
f 106/72/60 31/84/72 32/85/73
f 32/85/73 102/86/74 106/72/60
f 106/72/60 102/86/74 121/75/63
f 98/87/75 121/75/63 102/86/74
f 102/86/74 99/88/76 98/87/75
f 24/89/47 273/2/2 33/1/1
f 283/90/77 169/91/78 24/89/47
f 33/1/1 283/90/77 24/89/47
f 283/90/77 33/1/1 47/92/44
f 47/92/44 33/1/1 34/93/79
f 34/93/79 35/94/45 47/92/44
f 47/92/44 49/95/80 283/90/77
f 46/96/81 36/97/82 61/98/83
f 37/99/84 46/96/81 61/98/83
f 43/100/85 42/101/86 57/102/87
f 57/102/87 44/103/88 43/100/85
f 38/104/89 39/105/90 40/106/91
f 40/106/91 54/107/92 38/104/89
f 54/107/92 40/106/91 41/108/93
f 41/108/93 56/109/94 54/107/92
f 56/109/94 41/108/93 37/110/84
f 37/110/84 61/111/83 56/109/94
f 39/105/90 38/104/89 42/101/86
f 42/101/86 43/112/85 39/105/90
f 39/105/90 43/112/85 44/113/88
f 44/113/88 58/114/95 39/105/90
f 40/106/91 39/105/90 58/114/95
f 58/114/95 59/115/96 40/106/91
f 41/108/93 40/106/91 59/115/96
f 59/115/96 45/116/97 41/108/93
f 37/110/84 41/108/93 45/116/97
f 45/116/97 46/117/81 37/110/84
f 47/118/44 26/119/52 153/120/98
f 153/120/98 154/121/57 48/122/56
f 48/122/56 284/123/99 153/120/98
f 153/120/98 284/123/99 47/118/44
f 284/123/99 49/124/80 47/118/44
f 51/125/38 137/126/100 138/127/101
f 138/127/101 50/128/102 51/125/38
f 17/129/37 21/130/43 3/131/8
f 3/131/8 51/125/38 17/129/37
f 137/126/100 51/125/38 3/131/8
f 7/132/12 137/126/100 3/131/8
f 3/131/8 52/133/4 7/132/12
f 6/134/11 7/132/12 52/133/4
f 52/133/4 2/135/7 6/134/11
f 7/132/12 133/136/15 132/137/103
f 132/137/103 137/126/100 7/132/12
f 53/138/104 38/104/89 54/107/92
f 54/107/92 55/139/105 53/138/104
f 55/139/105 54/107/92 56/109/94
f 57/140/87 42/101/86 38/104/89
f 38/104/89 53/138/104 57/140/87
f 57/140/87 53/138/104 58/114/95
f 59/115/96 58/114/95 53/138/104
f 53/138/104 55/139/105 59/115/96
f 59/115/96 55/139/105 60/141/106
f 56/109/94 60/141/106 55/139/105
f 60/141/106 56/109/94 61/111/83
f 61/111/83 36/142/82 60/141/106
f 45/116/97 60/141/106 36/142/82
f 36/142/82 46/117/81 45/116/97
f 60/141/106 45/116/97 59/115/96
f 58/114/107 44/113/107 57/140/107
f 85/143/108 62/144/109 63/145/110
f 86/146/111 85/143/108 64/147/112
f 63/145/110 64/147/112 85/143/108
f 65/148/113 64/147/112 63/145/110
f 63/145/110 66/149/114 65/148/113
f 67/150/115 65/148/113 66/149/114
f 66/149/114 68/151/116 67/150/115
f 67/150/115 68/151/116 190/152/117
f 190/152/117 90/153/118 67/150/115
f 69/154/119 67/150/115 90/153/118
f 90/153/118 89/155/120 69/154/119
f 67/150/115 69/154/119 187/156/121
f 187/156/121 65/148/113 67/150/115
f 65/148/113 187/156/121 189/157/122
f 189/157/122 64/147/112 65/148/113
f 64/147/112 189/157/122 86/146/111
f 70/60/49 282/158/123 284/159/99
f 284/159/99 48/68/56 71/67/55
f 71/67/55 72/160/124 284/159/99
f 284/159/99 72/160/124 70/60/49
f 72/160/124 268/64/53 70/60/49
f 76/161/125 73/162/126 74/163/127
f 74/163/127 75/164/128 76/161/125
f 75/164/128 74/163/127 83/165/129
f 83/165/129 82/166/130 75/164/128
f 76/167/125 81/168/131 77/169/132
f 77/169/132 73/170/126 76/167/125
f 78/171/133 84/172/134 79/173/135
f 79/173/135 80/174/136 78/171/133
f 80/174/136 79/173/135 77/175/132
f 77/175/132 81/176/131 80/174/136
f 82/177/130 83/178/129 84/179/134
f 84/179/134 78/180/133 82/177/130
f 75/164/128 82/166/130 78/171/133
f 78/171/133 80/174/136 75/164/128
f 75/164/128 80/174/136 81/176/131
f 81/176/131 76/161/125 75/164/128
f 84/172/134 83/181/129 74/182/127
f 74/182/127 79/173/135 84/172/134
f 79/173/135 74/182/127 73/183/126
f 73/183/126 77/175/132 79/173/135
f 62/184/109 85/185/108 86/186/111
f 87/187/137 62/184/109 86/186/111
f 88/188/138 89/155/120 90/189/118
f 90/189/118 190/190/117 88/188/138
f 92/191/139 95/192/140 91/193/141
f 91/193/141 267/194/142 92/191/139
f 92/195/139 266/196/143 93/197/144
f 93/197/144 95/192/140 92/195/139
f 94/198/145 266/199/143 92/200/139
f 92/200/139 267/201/142 94/198/145
f 95/192/140 93/197/144 96/202/146
f 96/202/146 91/193/141 95/192/140
f 14/203/24 121/204/63 98/205/75
f 98/205/75 97/206/30 14/203/24
f 97/206/30 98/205/75 99/207/76
f 99/207/76 100/208/31 97/206/30
f 100/208/31 99/207/76 102/209/74
f 102/209/74 101/210/32 100/208/31
f 101/210/32 102/209/74 32/211/73
f 32/211/73 103/212/34 101/210/32
f 103/212/34 32/211/73 31/213/72
f 31/213/72 104/214/33 103/212/34
f 104/214/33 31/213/72 106/215/60
f 106/215/60 105/216/19 104/214/33
f 105/217/19 106/218/60 27/219/59
f 27/219/59 107/220/20 105/217/19
f 107/220/20 27/219/59 108/221/58
f 108/221/58 9/222/16 107/220/20
f 9/222/16 108/221/58 28/223/62
f 28/223/62 10/224/17 9/222/16
f 10/224/17 28/223/62 109/225/61
f 109/225/61 11/226/18 10/224/17
f 11/226/18 109/225/61 110/227/68
f 110/227/68 15/228/27 11/226/18
f 15/228/27 110/227/68 111/229/67
f 111/229/67 113/230/26 15/228/27
f 111/231/67 29/232/69 112/233/29
f 112/233/29 113/234/26 111/231/67
f 112/235/29 29/236/69 114/237/66
f 114/237/66 115/238/25 112/235/29
f 115/238/25 114/237/66 30/239/71
f 30/239/71 116/240/28 115/238/25
f 116/240/28 30/239/71 117/241/70
f 117/241/70 118/242/21 116/240/28
f 118/242/21 117/241/70 119/243/65
f 119/243/65 12/244/22 118/242/21
f 12/244/22 119/243/65 120/245/64
f 120/245/64 13/246/23 12/244/22
f 13/246/23 120/245/64 121/204/63
f 121/204/63 14/203/24 13/246/23
f 128/247/147 122/248/148 129/249/149
f 129/249/149 123/250/150 128/247/147
f 124/251/151 125/252/152 129/253/149
f 129/253/149 122/248/148 124/251/151
f 126/254/153 127/255/154 125/256/152
f 125/256/152 124/251/151 126/254/153
f 128/257/147 123/258/150 127/259/154
f 127/259/154 126/260/153 128/257/147
f 122/248/148 128/247/147 126/254/153
f 126/254/153 124/251/151 122/248/148
f 127/261/154 123/262/150 129/263/149
f 129/263/149 125/264/152 127/261/154
f 130/265/14 20/266/42 22/267/40
f 22/267/40 19/268/41 130/265/14
f 130/265/14 19/268/41 131/269/155
f 132/137/103 133/136/15 130/265/14
f 130/265/14 134/270/156 132/137/103
f 131/269/155 134/270/156 130/265/14
f 135/271/157 134/270/156 131/269/155
f 131/269/155 136/272/158 135/271/157
f 137/126/100 135/271/157 136/272/158
f 136/272/158 138/127/101 137/126/100
f 136/272/158 50/128/102 138/127/101
f 131/269/155 50/128/102 136/272/158
f 51/125/38 50/128/102 131/269/155
f 51/125/38 131/269/155 19/268/41
f 19/268/41 16/273/35 51/125/38
f 137/126/100 132/137/103 135/271/157
f 135/271/157 132/137/103 134/270/156
f 143/274/159 146/275/160 145/276/161
f 145/276/161 139/277/162 143/274/159
f 140/278/163 141/279/164 146/280/160
f 146/280/160 143/274/159 140/278/163
f 142/281/165 144/282/166 141/283/164
f 141/283/164 140/284/163 142/281/165
f 139/277/162 145/285/161 144/286/166
f 144/286/166 142/287/165 139/277/162
f 143/288/159 139/289/162 142/281/165
f 142/281/165 140/284/163 143/288/159
f 144/290/166 145/276/161 146/275/160
f 146/275/160 141/291/164 144/290/166
f 147/292/167 333/293/168 151/294/169
f 151/294/169 356/295/170 147/292/167
f 334/296/171 147/292/167 356/295/170
f 356/295/170 357/297/172 334/296/171
f 148/298/173 334/296/171 357/297/172
f 357/297/172 359/299/174 148/298/173
f 153/300/98 26/301/52 149/302/51
f 333/293/168 150/303/175 354/304/176
f 354/304/176 151/294/169 333/293/168
f 327/305/177 155/306/178 360/307/179
f 360/307/179 361/308/180 327/305/177
f 330/309/181 327/305/177 361/308/180
f 361/308/180 152/310/182 330/309/181
f 150/303/175 330/309/181 152/310/182
f 152/310/182 354/304/176 150/303/175
f 153/311/98 149/312/51 154/313/57
f 155/306/178 148/298/173 359/299/174
f 359/299/174 360/307/179 155/306/178
f 163/314/183 162/315/184 389/316/185
f 389/316/185 156/317/186 163/314/183
f 156/317/186 389/316/185 157/318/187
f 157/318/187 373/319/188 156/317/186
f 373/319/188 157/318/187 158/320/189
f 158/320/189 159/321/190 373/319/188
f 159/321/190 158/320/189 339/322/191
f 339/322/191 381/323/192 159/321/190
f 381/323/192 339/322/191 160/324/193
f 160/324/193 379/325/194 381/323/192
f 379/325/194 160/324/193 336/326/195
f 336/326/195 377/327/196 379/325/194
f 377/327/196 336/326/195 161/328/197
f 161/328/197 376/329/198 377/327/196
f 376/329/198 161/328/197 162/330/184
f 162/330/184 163/331/183 376/329/198
f 164/332/199 165/333/200 192/334/201
f 192/334/201 166/335/202 164/332/199
f 191/336/203 166/335/202 192/334/201
f 192/334/201 167/337/204 191/336/203
f 168/338/48 24/339/47 169/340/78
f 170/341/205 171/342/206 172/343/207
f 172/343/207 173/344/208 170/341/205
f 174/345/209 173/344/208 172/343/207
f 172/343/207 175/346/210 174/345/209
f 390/347/211 383/348/212 375/349/213
f 375/349/213 374/350/214 390/347/211
f 388/351/215 390/347/211 374/350/214
f 374/350/214 372/352/216 388/351/215
f 176/353/5 4/354/9 20/355/42
f 20/355/42 130/356/14 176/353/5
f 130/356/14 8/20/13 176/353/5
f 176/353/5 8/20/13 5/19/10
f 5/19/10 1/357/217 176/353/5
f 175/358/210 191/359/203 167/360/204
f 167/360/204 174/361/209 175/358/210
f 179/362/218 178/363/219 182/364/220
f 182/364/220 183/365/221 179/362/218
f 181/366/222 177/367/223 178/368/219
f 178/368/219 179/369/218 181/366/222
f 184/370/224 180/371/225 177/372/223
f 177/372/223 181/373/222 184/370/224
f 183/374/221 182/375/220 180/376/225
f 180/376/225 184/377/224 183/374/221
f 179/362/218 183/365/221 184/370/224
f 184/370/224 181/373/222 179/362/218
f 178/368/219 177/367/223 180/376/225
f 180/376/225 182/375/220 178/368/219
f 69/378/119 185/379/226 186/380/227
f 186/380/227 187/381/121 69/378/119
f 187/381/121 186/380/227 188/382/228
f 188/382/228 189/383/122 187/381/121
f 185/379/226 69/378/119 89/384/120
f 89/384/120 88/385/138 185/379/226
f 185/379/226 88/385/138 190/190/117
f 190/190/117 68/386/116 185/379/226
f 186/380/227 185/379/226 68/386/116
f 68/386/116 66/387/114 186/380/227
f 188/382/228 186/380/227 66/387/114
f 66/387/114 63/388/110 188/382/228
f 188/382/228 63/388/110 62/389/109
f 62/389/109 87/390/137 188/382/228
f 189/383/122 188/382/228 87/390/137
f 87/390/137 86/391/111 189/383/122
f 166/392/202 191/359/203 175/358/210
f 175/358/210 172/393/207 166/392/202
f 166/392/202 172/393/207 171/394/206
f 171/394/206 164/395/199 166/392/202
f 165/396/200 164/395/199 171/394/206
f 171/394/206 170/397/205 165/396/200
f 165/396/200 170/397/205 173/398/208
f 173/398/208 192/399/201 165/396/200
f 167/400/204 192/399/201 173/398/208
f 173/398/208 174/401/209 167/400/204
f 34/93/79 33/1/1 271/3/3
f 271/3/3 193/402/229 34/93/79
f 34/93/79 193/402/229 35/94/45
f 201/403/230 194/404/231 195/405/232
f 195/405/232 198/406/233 201/403/230
f 197/407/234 196/408/235 195/409/232
f 195/409/232 194/410/231 197/407/234
f 200/411/236 199/412/237 196/413/235
f 196/413/235 197/407/234 200/411/236
f 201/414/230 198/415/233 199/416/237
f 199/416/237 200/417/236 201/414/230
f 194/410/231 201/418/230 200/411/236
f 200/411/236 197/407/234 194/410/231
f 199/416/237 198/415/233 195/419/232
f 195/419/232 196/420/235 199/416/237
f 202/421/238 203/422/239 209/423/240
f 209/423/240 207/424/241 202/421/238
f 204/425/242 205/426/243 203/427/239
f 203/427/239 202/428/238 204/425/242
f 204/429/242 206/430/244 208/431/245
f 208/431/245 205/432/243 204/429/242
f 207/433/241 209/434/240 208/435/245
f 208/435/245 206/436/244 207/433/241
f 202/428/238 207/437/241 206/438/244
f 206/438/244 204/425/242 202/428/238
f 208/435/245 209/434/240 203/427/239
f 203/427/239 205/426/243 208/435/245
f 212/439/246 211/440/247 213/441/248
f 213/441/248 210/442/249 212/439/246
f 216/443/250 217/444/251 211/445/247
f 211/445/247 212/446/246 216/443/250
f 216/447/250 215/448/252 214/449/253
f 214/449/253 217/450/251 216/447/250
f 210/451/249 213/452/248 214/453/253
f 214/453/253 215/454/252 210/451/249
f 212/446/246 210/455/249 215/456/252
f 215/456/252 216/443/250 212/446/246
f 214/453/253 213/452/248 211/445/247
f 211/445/247 217/444/251 214/453/253
f 221/457/254 218/458/255 219/459/256
f 219/459/256 223/460/257 221/457/254
f 222/461/258 220/462/259 218/463/255
f 218/463/255 221/464/254 222/461/258
f 222/465/258 225/466/260 224/467/261
f 224/467/261 220/468/259 222/465/258
f 223/469/257 219/470/256 224/471/261
f 224/471/261 225/472/260 223/469/257
f 221/464/254 223/473/257 225/474/260
f 225/474/260 222/461/258 221/464/254
f 224/471/261 219/470/256 218/463/255
f 218/463/255 220/462/259 224/471/261
f 227/475/262 226/476/263 232/477/264
f 232/477/264 228/478/265 227/475/262
f 230/479/266 233/480/267 226/476/263
f 226/476/263 227/481/262 230/479/266
f 229/482/268 231/483/269 233/480/267
f 233/480/267 230/484/266 229/482/268
f 229/485/268 228/486/265 232/477/264
f 232/477/264 231/483/269 229/485/268
f 227/475/262 228/478/265 229/487/268
f 229/487/268 230/488/266 227/475/262
f 231/483/269 232/477/264 226/476/263
f 226/476/263 233/480/267 231/483/269
f 234/489/270 235/490/271 236/491/272
f 236/491/272 237/492/273 234/489/270
f 241/493/274 238/494/275 235/495/271
f 235/495/271 234/496/270 241/493/274
f 241/497/274 240/498/276 239/499/277
f 239/499/277 238/500/275 241/497/274
f 237/501/273 236/502/272 239/503/277
f 239/503/277 240/504/276 237/501/273
f 234/496/270 237/505/273 240/506/276
f 240/506/276 241/493/274 234/496/270
f 239/503/277 236/502/272 235/495/271
f 235/495/271 238/494/275 239/503/277
f 246/507/278 245/508/279 242/509/280
f 242/509/280 243/510/281 246/507/278
f 244/511/282 248/512/283 245/513/279
f 245/513/279 246/514/278 244/511/282
f 247/515/284 249/516/285 248/517/283
f 248/517/283 244/518/282 247/515/284
f 243/519/281 242/520/280 249/521/285
f 249/521/285 247/522/284 243/519/281
f 246/514/278 243/523/281 247/524/284
f 247/524/284 244/511/282 246/514/278
f 249/521/285 242/520/280 245/513/279
f 245/513/279 248/512/283 249/521/285
f 253/525/286 256/526/287 255/527/288
f 255/527/288 254/528/289 253/525/286
f 250/529/290 257/530/291 256/531/287
f 256/531/287 253/532/286 250/529/290
f 250/533/290 252/534/292 251/535/293
f 251/535/293 257/536/291 250/533/290
f 254/537/289 255/538/288 251/539/293
f 251/539/293 252/540/292 254/537/289
f 253/532/286 254/541/289 252/542/292
f 252/542/292 250/529/290 253/532/286
f 251/539/293 255/538/288 256/531/287
f 256/531/287 257/530/291 251/539/293
f 258/543/294 259/544/295 260/545/296
f 260/545/296 262/546/297 258/543/294
f 263/547/298 265/548/299 259/549/295
f 259/549/295 258/550/294 263/547/298
f 263/551/298 261/552/300 264/553/301
f 264/553/301 265/554/299 263/551/298
f 262/555/297 260/556/296 264/557/301
f 264/557/301 261/558/300 262/555/297
f 258/550/294 262/559/297 261/560/300
f 261/560/300 263/547/298 258/550/294
f 264/557/301 260/556/296 259/549/295
f 259/549/295 265/548/299 264/557/301
f 94/198/145 96/202/146 93/197/144
f 93/197/144 266/199/143 94/198/145
f 267/561/142 91/193/141 96/202/146
f 96/202/146 94/562/145 267/561/142
f 25/61/50 268/64/53 269/563/302
f 269/563/302 71/67/55 25/61/50
f 270/57/46 35/56/45 193/564/229
f 270/57/46 193/564/229 271/565/3
f 271/565/3 272/65/54 270/57/46
f 271/565/3 273/66/2 272/65/54
f 347/566/303 274/567/304 345/568/305
f 345/568/305 363/569/306 347/566/303
f 349/570/307 347/566/303 363/569/306
f 363/569/306 365/571/308 349/570/307
f 275/572/309 355/573/310 331/574/311
f 332/575/312 331/574/311 355/573/310
f 355/573/310 317/576/313 332/575/312
f 329/577/314 332/575/312 317/576/313
f 317/576/313 276/578/315 329/577/314
f 328/579/316 329/577/314 276/578/315
f 276/578/315 362/580/317 328/579/316
f 277/581/318 328/579/316 362/580/317
f 362/580/317 278/582/319 277/581/318
f 279/583/320 277/581/318 278/582/319
f 278/582/319 280/584/321 279/583/320
f 326/585/322 279/583/320 280/584/321
f 280/584/321 358/586/323 326/585/322
f 281/587/324 326/585/322 358/586/323
f 358/586/323 275/572/309 281/587/324
f 331/574/311 281/587/324 275/572/309
f 72/160/124 71/67/55 269/563/302
f 72/160/124 269/563/302 268/64/53
f 169/588/78 283/589/77 282/590/123
f 282/590/123 70/591/49 169/588/78
f 70/591/49 168/592/48 169/588/78
f 282/158/123 283/593/77 49/594/80
f 49/594/80 284/159/99 282/158/123
f 288/595/325 287/596/326 291/597/327
f 291/597/327 285/598/328 288/595/325
f 286/599/329 292/600/330 287/601/326
f 287/601/326 288/595/325 286/599/329
f 286/599/329 290/602/331 289/603/332
f 289/603/332 292/604/330 286/599/329
f 285/598/328 291/605/327 289/606/332
f 289/606/332 290/602/331 285/598/328
f 288/595/325 285/598/328 290/602/331
f 290/602/331 286/599/329 288/595/325
f 289/606/332 291/605/327 287/601/326
f 287/601/333 292/600/333 289/606/333
f 295/607/334 293/608/335 298/609/336
f 298/609/336 294/610/337 295/607/334
f 300/611/338 297/612/339 293/608/335
f 293/608/335 295/613/334 300/611/338
f 296/614/340 299/615/341 297/612/339
f 297/612/339 300/616/338 296/614/340
f 294/617/337 298/609/336 299/615/341
f 299/615/341 296/618/340 294/617/337
f 295/607/334 294/610/337 296/614/340
f 296/614/340 300/616/338 295/607/334
f 299/615/341 298/609/336 293/608/335
f 293/608/335 297/612/339 299/615/341
f 303/619/342 302/620/343 306/621/344
f 306/621/344 305/622/345 303/619/342
f 301/623/346 304/624/347 302/625/343
f 302/625/343 303/626/342 301/623/346
f 307/627/348 308/628/349 304/629/347
f 304/629/347 301/623/346 307/627/348
f 305/622/345 306/630/344 308/631/349
f 308/631/349 307/627/348 305/622/345
f 303/626/342 305/622/345 307/627/348
f 307/627/348 301/623/346 303/626/342
f 308/628/349 306/621/344 302/620/343
f 302/620/343 304/629/347 308/628/349
f 309/632/350 315/633/351 312/634/352
f 312/634/352 311/635/353 309/632/350
f 310/636/354 316/637/355 315/638/351
f 315/638/351 309/639/350 310/636/354
f 310/640/354 314/641/356 313/642/357
f 313/642/357 316/643/355 310/640/354
f 311/644/353 312/645/352 313/646/357
f 313/646/357 314/647/356 311/644/353
f 309/632/350 311/635/353 314/641/356
f 314/641/356 310/640/354 309/632/350
f 315/638/351 316/637/355 313/646/357
f 313/646/357 312/645/352 315/638/351
f 317/648/313 354/649/176 152/650/182
f 152/650/182 276/651/315 317/648/313
f 276/651/315 152/650/182 361/652/180
f 361/652/180 362/653/317 276/651/315
f 318/654/358 351/655/359 353/656/360
f 353/656/360 344/657/361 318/654/358
f 344/657/361 353/656/360 319/658/362
f 319/658/362 346/659/363 344/657/361
f 346/659/363 319/658/362 320/660/364
f 320/660/364 364/661/365 346/659/363
f 364/661/365 320/660/364 348/662/366
f 348/662/366 321/663/367 364/661/365
f 321/663/367 348/662/366 322/664/368
f 322/664/368 323/665/369 321/663/367
f 323/665/369 322/664/368 324/666/370
f 324/666/370 342/667/371 323/665/369
f 342/667/371 324/666/370 350/668/372
f 350/668/372 325/669/373 342/667/371
f 325/669/373 350/668/372 351/655/359
f 351/655/359 318/654/358 325/669/373
f 326/670/322 334/671/171 148/672/173
f 148/672/173 279/673/320 326/670/322
f 279/673/320 148/672/173 155/674/178
f 155/674/178 277/675/318 279/673/320
f 277/675/318 155/674/178 327/676/177
f 327/676/177 328/677/316 277/675/318
f 329/678/314 328/677/316 327/676/177
f 327/676/177 330/679/181 329/678/314
f 332/680/312 329/678/314 330/679/181
f 330/679/181 150/681/175 332/680/312
f 331/682/311 332/680/312 150/681/175
f 150/681/175 333/683/168 331/682/311
f 281/684/324 331/682/311 333/683/168
f 333/683/168 147/685/167 281/684/324
f 281/684/324 147/685/167 334/686/171
f 334/686/171 326/687/322 281/684/324
f 384/688/374 383/689/212 162/330/184
f 162/330/184 161/328/197 384/688/374
f 335/690/375 384/688/374 161/328/197
f 161/328/197 336/326/195 335/690/375
f 337/691/376 335/690/375 336/326/195
f 336/326/195 160/324/193 337/691/376
f 338/692/377 337/691/376 160/324/193
f 160/324/193 339/322/191 338/692/377
f 340/693/378 341/694/379 342/695/371
f 342/695/371 325/696/373 340/693/378
f 370/697/380 340/693/378 325/696/373
f 325/696/373 318/698/358 370/697/380
f 343/699/381 370/697/380 318/698/358
f 318/698/358 344/700/361 343/699/381
f 345/701/305 343/699/381 344/700/361
f 344/700/361 346/702/363 345/701/305
f 274/703/304 347/704/303 320/705/364
f 348/706/366 320/705/364 347/704/303
f 347/704/303 349/707/307 348/706/366
f 322/708/368 348/706/366 349/707/307
f 349/707/307 367/709/382 322/708/368
f 324/710/370 322/708/368 367/709/382
f 367/709/382 368/711/383 324/710/370
f 350/712/372 324/710/370 368/711/383
f 368/711/383 369/713/384 350/712/372
f 351/714/359 350/712/372 369/713/384
f 369/713/384 352/715/385 351/714/359
f 353/716/360 351/714/359 352/715/385
f 352/715/385 371/717/386 353/716/360
f 319/718/362 353/716/360 371/717/386
f 371/717/386 274/703/304 319/718/362
f 320/705/364 319/718/362 274/703/304
f 354/649/176 317/648/313 355/719/310
f 355/719/310 151/720/169 354/649/176
f 151/720/169 355/719/310 275/721/309
f 275/721/309 356/722/170 151/720/169
f 357/297/172 356/722/170 275/721/309
f 275/721/309 358/586/323 357/297/172
f 359/299/174 357/297/172 358/586/323
f 358/586/323 280/584/321 359/299/174
f 360/723/179 359/299/174 280/584/321
f 280/584/321 278/724/319 360/723/179
f 361/725/180 360/723/179 278/724/319
f 278/724/319 362/726/317 361/725/180
f 363/727/306 345/728/305 346/729/363
f 346/729/363 364/730/365 363/727/306
f 365/731/308 363/727/306 364/730/365
f 364/730/365 321/732/367 365/731/308
f 366/733/387 365/731/308 321/732/367
f 321/732/367 323/734/369 366/733/387
f 341/735/379 366/733/387 323/734/369
f 323/734/369 342/736/371 341/735/379
f 367/737/382 349/570/307 365/571/308
f 365/571/308 366/738/387 367/737/382
f 368/739/383 367/737/382 366/738/387
f 366/738/387 341/740/379 368/739/383
f 369/741/384 368/739/383 341/740/379
f 341/740/379 340/742/378 369/741/384
f 352/743/385 369/741/384 340/742/378
f 340/742/378 370/744/380 352/743/385
f 371/745/386 352/743/385 370/744/380
f 370/744/380 343/746/381 371/745/386
f 274/747/304 371/745/386 343/746/381
f 343/746/381 345/748/305 274/747/304
f 386/749/388 372/750/216 373/751/188
f 156/752/186 373/751/188 372/750/216
f 372/750/216 374/753/214 156/752/186
f 163/754/183 156/752/186 374/753/214
f 374/753/214 375/755/213 163/754/183
f 376/756/198 163/754/183 375/755/213
f 375/755/213 382/757/389 376/756/198
f 377/758/196 376/756/198 382/757/389
f 382/757/389 378/759/390 377/758/196
f 379/325/194 377/758/196 378/759/390
f 378/759/390 380/760/391 379/325/194
f 381/323/192 379/325/194 380/760/391
f 380/760/391 385/761/392 381/323/192
f 159/762/190 381/323/192 385/761/392
f 385/761/392 386/749/388 159/762/190
f 373/751/188 159/762/190 386/749/388
f 382/763/389 375/764/213 383/765/212
f 383/765/212 384/766/374 382/763/389
f 378/767/390 382/763/389 384/766/374
f 384/766/374 335/768/375 378/767/390
f 380/769/391 378/767/390 335/768/375
f 335/768/375 337/770/376 380/769/391
f 385/771/392 380/769/391 337/770/376
f 337/770/376 338/772/377 385/771/392
f 386/773/388 385/771/392 338/772/377
f 338/772/377 387/774/393 386/773/388
f 372/352/216 386/773/388 387/774/393
f 387/774/393 388/351/215 372/352/216
f 389/775/185 162/776/184 383/777/212
f 383/777/212 390/778/211 389/775/185
f 157/779/187 389/775/185 390/778/211
f 390/778/211 388/780/215 157/779/187
f 158/781/189 157/779/187 388/780/215
f 388/780/215 387/782/393 158/781/189
f 339/783/191 158/781/189 387/782/393
f 387/782/393 338/784/377 339/783/191
