# 3ds Max Wavefront OBJ Exporter v0.97b - (c)2007 guruware
# File Created: 03.04.2017 18:48:34

mtllib gen2_coll.mtl

#
# object Box003
#

v  -10.8789 0.0000 11.3134
v  -10.8789 0.0000 -11.2866
v  5.7572 0.0000 -11.2866
v  5.7572 0.0000 11.3134
v  -10.8789 1.2789 11.3134
v  5.7572 1.2789 11.3134
v  5.7572 1.2789 -11.2866
v  -10.8789 1.2789 -11.2866
# 8 vertices

vn 0.0000 -1.0000 -0.0000
vn 0.0000 1.0000 -0.0000
vn 0.0000 0.0000 1.0000
vn 1.0000 0.0000 -0.0000
vn 0.0000 0.0000 -1.0000
vn -1.0000 0.0000 -0.0000
# 6 vertex normals

vt 1.0000 0.0000 0.0000
vt 1.0000 1.0000 0.0000
vt 0.0000 1.0000 0.0000
vt 0.0000 0.0000 0.0000
# 4 texture coords

g Box003
usemtl wire_057008136
s 2
f 1/1/1 2/2/1 3/3/1 4/4/1 
s 4
f 5/4/2 6/1/2 7/2/2 8/3/2 
s 8
f 1/4/3 4/1/3 6/2/3 5/3/3 
s 16
f 4/4/4 3/1/4 7/2/4 6/3/4 
s 32
f 3/4/5 2/1/5 8/2/5 7/3/5 
s 64
f 2/4/6 1/1/6 5/2/6 8/3/6 
# 6 polygons

#
# object Box004
#

v  -5.3981 1.4904 8.9870
v  -5.3981 1.4904 5.4432
v  0.3798 1.4904 5.4432
v  0.3798 1.4904 8.9870
v  -5.3981 1.4904 1.8994
v  0.3798 1.4904 1.8994
v  -5.3981 1.4904 -1.6444
v  0.3798 1.4904 -1.6444
v  -5.3981 1.4904 -5.1882
v  0.3798 1.4904 -5.1882
v  -5.3981 1.4904 -8.7320
v  0.3798 1.4904 -8.7320
v  -5.3981 10.7092 8.9256
v  0.3798 10.7092 8.9256
v  0.3798 11.3659 5.4432
v  -5.3981 11.3659 5.4432
v  0.3798 12.0227 1.9608
v  -5.3981 12.0227 1.9608
v  0.3798 11.9955 -1.7007
v  -5.3981 11.9955 -1.7007
v  0.3798 11.3659 -5.1882
v  -5.3981 11.3659 -5.1882
v  0.3798 10.7364 -8.6756
v  -5.3981 10.7364 -8.6756
# 24 vertices

vn 0.0000 -1.0000 -0.0000
vn 0.0000 0.9827 0.1853
vn 0.0000 0.9960 0.0894
vn 0.0000 0.9957 -0.0929
vn 0.0000 0.9841 -0.1776
vn 0.0000 0.0067 1.0000
vn 1.0000 0.0000 -0.0000
vn 0.0000 0.0061 -1.0000
vn -1.0000 0.0000 -0.0000
# 9 vertex normals

vt 1.0000 0.0000 0.0000
vt 1.0000 0.2000 0.0000
vt 0.0000 0.2000 0.0000
vt 0.0000 0.0000 0.0000
vt 1.0000 0.4000 0.0000
vt 0.0000 0.4000 0.0000
vt 1.0000 0.6000 0.0000
vt 0.0000 0.6000 0.0000
vt 1.0000 0.8000 0.0000
vt 0.0000 0.8000 0.0000
vt 1.0000 1.0000 0.0000
vt 0.0000 1.0000 0.0000
vt 0.2000 0.0000 0.0000
vt 0.2000 1.0000 0.0000
vt 0.4000 0.0000 0.0000
vt 0.4000 1.0000 0.0000
vt 0.6000 0.0000 0.0000
vt 0.6000 1.0000 0.0000
vt 0.8000 0.0000 0.0000
vt 0.8000 1.0000 0.0000
# 20 texture coords

g Box004
usemtl wire_135059008
s 2
f 9/5/7 10/6/7 11/7/7 12/8/7 
f 10/6/7 13/9/7 14/10/7 11/7/7 
f 13/9/7 15/11/7 16/12/7 14/10/7 
f 15/11/7 17/13/7 18/14/7 16/12/7 
f 17/13/7 19/15/7 20/16/7 18/14/7 
s 4
f 21/8/8 22/5/8 23/6/8 24/7/8 
f 24/7/8 23/6/8 25/9/9 26/10/9 
f 26/10/9 25/9/9 27/11/10 28/12/10 
f 28/12/10 27/11/10 29/13/11 30/14/11 
f 30/14/11 29/13/11 31/15/11 32/16/11 
s 8
f 9/8/12 12/5/12 22/15/12 21/16/12 
s 16
f 12/8/13 11/17/13 23/18/13 22/16/13 
f 11/17/13 14/19/13 25/20/13 23/18/13 
f 14/19/13 16/21/13 27/22/13 25/20/13 
f 16/21/13 18/23/13 29/24/13 27/22/13 
f 18/23/13 20/5/13 31/15/13 29/24/13 
s 32
f 20/8/14 19/5/14 32/15/14 31/16/14 
s 64
f 19/8/15 17/17/15 30/18/15 32/16/15 
f 17/17/15 15/19/15 28/20/15 30/18/15 
f 15/19/15 13/21/15 26/22/15 28/20/15 
f 13/21/15 10/23/15 24/24/15 26/22/15 
f 10/23/15 9/5/15 21/15/15 24/24/15 
# 22 polygons

#
# object Box005
#

v  2.6868 0.0000 0.4811
v  2.6868 0.0000 0.2795
v  10.4494 0.0000 0.2795
v  10.4494 0.0000 0.4811
v  2.6868 0.0000 0.0780
v  10.4494 0.0000 0.0780
v  2.6868 0.0000 -0.1236
v  10.4494 0.0000 -0.1236
v  2.6868 0.0000 -0.3251
v  10.4494 0.0000 -0.3251
v  2.6868 0.0000 -0.5267
v  10.4494 0.0000 -0.5267
v  2.6868 3.7588 0.4811
v  10.4494 3.7588 0.4811
v  10.4494 3.7588 0.2795
v  2.6868 3.7588 0.2795
v  10.4494 3.7588 0.0780
v  2.6868 3.7588 0.0780
v  10.4494 3.7588 -0.1236
v  2.6868 3.7588 -0.1236
v  10.4494 3.7588 -0.3251
v  2.6868 3.7588 -0.3251
v  10.4494 3.7588 -0.5267
v  2.6868 3.7588 -0.5267
# 24 vertices

vn 0.0000 -1.0000 -0.0000
vn 0.0000 1.0000 -0.0000
vn 0.0000 0.0000 1.0000
vn 1.0000 0.0000 -0.0000
vn 0.0000 0.0000 -1.0000
vn -1.0000 0.0000 -0.0000
# 6 vertex normals

vt 1.0000 0.0000 0.0000
vt 1.0000 0.2000 0.0000
vt 0.0000 0.2000 0.0000
vt 0.0000 0.0000 0.0000
vt 1.0000 0.4000 0.0000
vt 0.0000 0.4000 0.0000
vt 1.0000 0.6000 0.0000
vt 0.0000 0.6000 0.0000
vt 1.0000 0.8000 0.0000
vt 0.0000 0.8000 0.0000
vt 1.0000 1.0000 0.0000
vt 0.0000 1.0000 0.0000
vt 0.2000 0.0000 0.0000
vt 0.2000 1.0000 0.0000
vt 0.4000 0.0000 0.0000
vt 0.4000 1.0000 0.0000
vt 0.6000 0.0000 0.0000
vt 0.6000 1.0000 0.0000
vt 0.8000 0.0000 0.0000
vt 0.8000 1.0000 0.0000
# 20 texture coords

g Box005
usemtl wire_138008110
s 2
f 33/25/16 34/26/16 35/27/16 36/28/16 
f 34/26/16 37/29/16 38/30/16 35/27/16 
f 37/29/16 39/31/16 40/32/16 38/30/16 
f 39/31/16 41/33/16 42/34/16 40/32/16 
f 41/33/16 43/35/16 44/36/16 42/34/16 
s 4
f 45/28/17 46/25/17 47/26/17 48/27/17 
f 48/27/17 47/26/17 49/29/17 50/30/17 
f 50/30/17 49/29/17 51/31/17 52/32/17 
f 52/32/17 51/31/17 53/33/17 54/34/17 
f 54/34/17 53/33/17 55/35/17 56/36/17 
s 8
f 33/28/18 36/25/18 46/35/18 45/36/18 
s 16
f 36/28/19 35/37/19 47/38/19 46/36/19 
f 35/37/19 38/39/19 49/40/19 47/38/19 
f 38/39/19 40/41/19 51/42/19 49/40/19 
f 40/41/19 42/43/19 53/44/19 51/42/19 
f 42/43/19 44/25/19 55/35/19 53/44/19 
s 32
f 44/28/20 43/25/20 56/35/20 55/36/20 
s 64
f 43/28/21 41/37/21 54/38/21 56/36/21 
f 41/37/21 39/39/21 52/40/21 54/38/21 
f 39/39/21 37/41/21 50/42/21 52/40/21 
f 37/41/21 34/43/21 48/44/21 50/42/21 
f 34/43/21 33/25/21 45/35/21 48/44/21 
# 22 polygons

#
# object Box006
#

v  -7.4709 1.4904 7.0900
v  -7.4709 1.4904 5.4432
v  2.5364 1.4904 5.4432
v  2.5364 1.4904 7.0900
v  -7.4709 1.4904 1.8994
v  2.5364 1.4904 1.8994
v  -7.4709 1.4904 -1.6444
v  2.5364 1.4904 -1.6444
v  -7.4709 1.4904 -5.1882
v  2.5364 1.4904 -5.1882
v  -7.4709 1.4904 -6.7350
v  2.5364 1.4904 -6.7350
v  -7.4709 8.6884 7.0286
v  2.5364 8.6884 7.0286
v  2.5364 9.3452 5.4432
v  -7.4709 9.3452 5.4432
v  2.5364 10.0019 1.9608
v  -7.4709 10.0019 1.9608
v  2.5364 9.9747 -1.7007
v  -7.4709 9.9747 -1.7007
v  2.5364 9.3452 -5.1882
v  -7.4709 9.3452 -5.1882
v  2.5364 8.7156 -6.6787
v  -7.4709 8.7156 -6.6787
# 24 vertices

vn 0.0000 -1.0000 -0.0000
vn 0.0000 0.9239 0.3827
vn 0.0000 0.9584 0.2855
vn 0.0000 0.9960 0.0894
vn 0.0000 0.9957 -0.0929
vn 0.0000 0.9585 -0.2851
vn 0.0000 0.9212 -0.3891
vn 0.0000 0.0085 1.0000
vn 1.0000 0.0000 -0.0000
vn 0.0000 0.0078 -1.0000
vn -1.0000 -0.0000 0.0000
vn -1.0000 0.0000 -0.0000
vn -1.0000 -0.0000 -0.0000
# 13 vertex normals

vt 1.0000 0.0000 0.0000
vt 1.0000 0.2000 0.0000
vt 0.0000 0.2000 0.0000
vt 0.0000 0.0000 0.0000
vt 1.0000 0.4000 0.0000
vt 0.0000 0.4000 0.0000
vt 1.0000 0.6000 0.0000
vt 0.0000 0.6000 0.0000
vt 1.0000 0.8000 0.0000
vt 0.0000 0.8000 0.0000
vt 1.0000 1.0000 0.0000
vt 0.0000 1.0000 0.0000
vt 0.2000 0.0000 0.0000
vt 0.2000 1.0000 0.0000
vt 0.4000 0.0000 0.0000
vt 0.4000 1.0000 0.0000
vt 0.6000 0.0000 0.0000
vt 0.6000 1.0000 0.0000
vt 0.8000 0.0000 0.0000
vt 0.8000 1.0000 0.0000
# 20 texture coords

g Box006
usemtl wire_135059008
s 2
f 57/45/22 58/46/22 59/47/22 60/48/22 
f 58/46/22 61/49/22 62/50/22 59/47/22 
f 61/49/22 63/51/22 64/52/22 62/50/22 
f 63/51/22 65/53/22 66/54/22 64/52/22 
f 65/53/22 67/55/22 68/56/22 66/54/22 
s 4
f 69/48/23 70/45/23 71/46/24 72/47/24 
f 72/47/24 71/46/24 73/49/25 74/50/25 
f 74/50/25 73/49/25 75/51/26 76/52/26 
f 76/52/26 75/51/26 77/53/27 78/54/27 
f 78/54/27 77/53/27 79/55/28 80/56/28 
s 8
f 57/48/29 60/45/29 70/55/29 69/56/29 
s 16
f 60/48/30 59/57/30 71/58/30 70/56/30 
f 59/57/30 62/59/30 73/60/30 71/58/30 
f 62/59/30 64/61/30 75/62/30 73/60/30 
f 64/61/30 66/63/30 77/64/30 75/62/30 
f 66/63/30 68/45/30 79/55/30 77/64/30 
s 32
f 68/48/31 67/45/31 80/55/31 79/56/31 
s 64
f 67/48/32 65/57/32 78/58/32 80/56/33 
f 65/57/32 63/59/32 76/60/32 78/58/32 
f 63/59/32 61/61/34 74/62/34 76/60/32 
f 61/61/34 58/63/34 72/64/34 74/62/34 
f 58/63/34 57/45/34 69/55/34 72/64/34 
# 22 polygons