# 3ds Max Wavefront OBJ Exporter v0.97b - (c)2007 guruware
# File Created: 08.04.2018 18:11:59

mtllib fence3.mtl

#
# object Mesh_072
#

v  -0.7766 0.0000 -4.6650
v  0.8716 0.3000 -4.6650
v  0.8716 0.0000 -4.6650
v  -0.7766 0.3000 -4.6650
v  0.8716 1.6167 -4.6650
v  0.3206 6.4480 -4.2313
v  0.2714 6.4185 -4.2313
v  0.3206 6.4480 -4.3001
v  0.3089 6.4442 -4.3008
v  0.2465 6.4442 -4.3008
v  0.3089 6.4442 -4.2320
v  0.2714 6.4185 -4.3001
v  0.3089 5.6289 -4.2320
v  0.3089 5.6289 -4.3008
v  0.2465 6.4442 -4.2320
v  0.2465 5.6289 -4.3008
v  -0.5877 1.6167 -4.6650
v  0.6998 2.1034 -4.3423
v  0.2465 5.6289 -4.2320
v  0.3189 4.9750 -4.3703
v  -0.0197 6.5280 -4.3703
v  0.3189 6.5280 -4.3703
v  -0.0197 6.5280 -4.1696
v  0.3189 6.5280 -4.1696
v  -0.1035 6.8656 -4.3001
v  -0.1527 6.8361 -4.2313
v  -0.1527 6.8361 -4.3001
v  0.3189 3.4220 -4.3703
v  -0.0197 4.9750 -4.3703
v  -0.0197 4.9750 -4.1696
v  0.3189 4.9750 -4.1696
v  -0.1035 6.8656 -4.2313
v  0.3189 1.8691 -4.3703
v  -0.0197 3.4220 -4.3703
v  -0.0197 3.4220 -4.1696
v  0.3189 3.4220 -4.1696
v  -0.0197 1.8691 -4.1696
v  0.3189 1.8691 -4.1696
v  -0.0197 1.8691 -4.3703
v  -0.1289 2.1034 -4.3423
v  -0.5276 7.2832 -4.3001
v  -0.5768 7.2536 -4.2313
v  -0.5768 7.2536 -4.3001
v  -0.5276 7.2832 -4.2313
v  -0.0622 2.1034 -1.2143
v  0.3220 6.4467 -2.0552
v  0.2728 6.4172 -2.0552
v  0.3220 6.4467 -2.1240
v  0.3089 6.4429 -2.1246
v  0.2465 6.4429 -2.1246
v  0.3089 6.4429 -2.0558
v  0.2728 6.4172 -2.1240
v  0.6331 2.1034 -1.2143
v  0.3089 5.6276 -2.0558
v  0.3089 5.6276 -2.1246
v  0.2465 6.4429 -2.0558
v  0.2465 5.6276 -2.1246
v  0.2465 5.6276 -2.0558
v  -0.1022 6.8643 -2.1240
v  -0.1513 6.8347 -2.0552
v  -0.1513 6.8347 -2.1240
v  -0.1022 6.8643 -2.0552
v  -0.5877 1.6167 -1.5550
v  -0.4590 7.3870 -2.1240
v  -0.5082 7.3574 -2.0552
v  -0.5082 7.3574 -2.1240
v  -0.4590 7.3870 -2.0552
v  -0.7766 0.3000 -1.5550
v  -0.7766 0.0000 -1.5550
v  0.3089 6.4554 -0.0568
v  0.2465 6.4554 -0.0568
v  0.3089 6.4554 0.0120
v  0.3090 6.4595 0.0126
v  0.2598 6.4300 0.0126
v  0.3090 6.4595 -0.0562
v  0.3089 5.6401 0.0120
v  0.2598 6.4300 -0.0562
v  0.3089 5.6401 -0.0568
v  0.2465 6.4554 0.0120
v  0.2465 5.6401 -0.0568
v  0.2465 5.6401 0.0120
v  -0.1152 6.8771 -0.0562
v  -0.1643 6.8475 0.0126
v  -0.1643 6.8475 -0.0562
v  -0.0622 2.1034 1.2143
v  0.6331 2.1034 1.2143
v  -0.1152 6.8771 0.0126
v  -0.5393 7.2946 -0.0562
v  -0.5884 7.2651 0.0126
v  -0.5884 7.2651 -0.0562
v  -0.5393 7.2946 0.0126
v  0.3089 6.4626 2.1055
v  0.2465 6.4626 2.1055
v  0.3089 6.4626 2.1743
v  0.3089 5.6474 2.1743
v  0.3014 6.4669 2.1750
v  0.2523 6.4374 2.1750
v  0.3014 6.4669 2.1062
v  0.2523 6.4374 2.1062
v  0.3089 5.6474 2.1055
v  0.2465 6.4626 2.1743
v  0.2465 5.6474 2.1055
v  0.2465 5.6474 2.1743
v  -0.1227 6.8845 2.1062
v  -0.5877 1.6167 1.5550
v  -0.1719 6.8549 2.1750
v  -0.1719 6.8549 2.1062
v  -0.1227 6.8845 2.1750
v  -0.7766 0.3000 1.5550
v  -0.1289 2.1034 4.3423
v  -0.7766 0.0000 1.5550
v  0.6998 2.1034 4.3423
v  0.3089 6.4751 4.1733
v  0.2465 6.4751 4.1733
v  0.3089 6.4751 4.2421
v  0.3089 5.6599 4.2421
v  0.2884 6.4797 4.2428
v  0.2393 6.4502 4.2428
v  0.2884 6.4797 4.1740
v  0.3089 5.6599 4.1733
v  0.2465 6.4751 4.2421
v  -0.8224 7.1249 2.1062
v  0.2393 6.4502 4.1740
v  0.2465 5.6599 4.1733
v  0.8716 1.6167 4.6650
v  0.2465 5.6599 4.2421
v  -0.8716 7.0953 2.1750
v  -0.8716 7.0953 2.1062
v  0.3189 6.4944 4.1736
v  -0.0197 6.4944 4.3743
v  0.3189 6.4944 4.3743
v  0.3189 4.9415 4.1736
v  -0.0197 6.4944 4.1736
v  -0.1357 6.8973 4.1740
v  -0.1849 6.8678 4.2428
v  -0.1849 6.8678 4.1740
v  -0.5877 1.6167 4.6650
v  0.8716 0.3000 4.6650
v  -0.0197 4.9415 4.3743
v  0.3189 4.9415 4.3743
v  0.3189 3.3885 4.1736
v  -0.0197 4.9415 4.1736
v  -0.7766 0.3000 4.6650
v  0.8716 0.0000 4.6650
v  -0.1357 6.8973 4.2428
v  -0.8224 7.1249 2.1750
v  0.3189 1.8355 4.1736
v  -0.0197 3.3885 4.1736
v  -0.0197 3.3885 4.3743
v  0.3189 3.3885 4.3743
v  -0.0197 1.8355 4.3743
v  0.3189 1.8355 4.3743
v  -0.0197 1.8355 4.1736
v  -0.6609 7.3505 4.1740
v  -0.7101 7.3210 4.2428
v  -0.7101 7.3210 4.1740
v  -0.6609 7.3505 4.2428
v  -0.7766 0.0000 4.6650
v  0.8715 1.6172 -1.5550
v  0.8715 1.6172 -4.6650
v  0.7113 2.0972 -4.3423
v  0.8719 0.2998 -1.5550
v  0.8719 0.2998 -4.6650
v  0.6519 2.1200 -1.2143
v  0.8729 -0.0001 -1.5550
v  0.8729 -0.0001 -4.6650
v  0.8715 1.6172 1.5550
v  0.6519 2.1200 1.2143
v  0.8719 0.2998 1.5550
v  0.8729 -0.0001 1.5550
v  0.8715 1.6172 4.6650
v  0.7113 2.0972 4.3423
v  0.8719 0.2998 4.6650
v  0.8729 -0.0001 4.6650
v  0.3171 6.5280 -4.3703
v  0.3171 6.5280 -4.1696
v  0.3171 4.9750 -4.1696
v  0.3171 4.9750 -4.3703
v  0.3171 3.4220 -4.1696
v  0.3171 3.4220 -4.3703
v  0.3171 1.8691 -4.1696
v  0.3171 1.8691 -4.3703
v  0.3171 6.4944 4.1736
v  0.3171 6.4944 4.3743
v  0.3171 4.9415 4.3743
v  0.3171 4.9415 4.1736
v  0.3171 3.3885 4.3743
v  0.3171 3.3885 4.1736
v  0.3171 1.8355 4.3743
v  0.3171 1.8355 4.1736
# 190 vertices

vn 0.0000 0.0000 -1.0000
vn 0.0000 0.2595 -0.9657
vn 0.5151 -0.8572 -0.0000
vn 0.0000 1.0000 -0.0000
vn 1.0000 0.0000 -0.0000
vn 0.0000 0.0000 1.0000
vn 0.0000 0.1986 -0.9801
vn 0.0000 0.5526 -0.8335
vn -1.0000 0.0000 -0.0000
vn 0.0000 -1.0000 -0.0000
vn 0.7016 0.7126 -0.0000
vn -0.7016 -0.7126 -0.0000
vn -0.5151 0.8571 -0.0000
vn 0.7674 0.6412 -0.0000
vn -0.7673 -0.6412 -0.0000
vn -0.8763 0.4817 0.0047
vn -0.7225 0.6914 0.0018
vn -0.9225 0.3860 -0.0000
vn 0.8259 0.5638 -0.0000
vn -0.8259 -0.5638 -0.0000
vn -0.9975 0.0712 -0.0000
vn -0.6813 0.7320 0.0052
vn -0.5152 0.8571 -0.0000
vn 0.5152 -0.8571 -0.0000
vn -0.8856 0.4645 -0.0000
vn -0.6828 0.7306 -0.0009
vn 0.3249 0.9457 -0.0000
vn 0.0000 0.5526 0.8335
vn 0.0000 0.2595 0.9657
vn -0.9899 0.1420 -0.0000
vn -0.3249 -0.9457 -0.0000
vn 0.6778 0.7352 -0.0000
vn -0.6778 -0.7352 -0.0000
vn 0.0000 0.1986 0.9801
vn -0.9215 0.3884 -0.0056
vn -0.5151 0.8572 -0.0000
vn -0.7327 0.6804 -0.0156
vn 0.6533 0.7571 -0.0000
vn -0.6533 -0.7571 -0.0000
vn 0.9771 0.2128 0.0049
vn 0.9921 0.1251 -0.0000
vn 0.9462 0.3235 0.0013
vn 1.0000 0.0019 -0.0000
vn 0.9176 0.3976 0.0047
vn 1.0000 0.0035 -0.0000
vn 0.9789 0.2046 -0.0000
vn 0.9182 0.3960 -0.0007
vn 1.0000 0.0003 -0.0000
vn 0.9919 0.1272 -0.0053
vn 0.9516 0.3070 -0.0158
# 50 vertex normals

vt 0.0847 -0.0025 0.0000
vt 0.2521 0.0641 0.0000
vt 0.2521 -0.0026 0.0000
vt 0.0847 0.0641 0.0000
vt 0.2521 0.3566 0.0000
vt 0.7276 0.6523 0.0000
vt 0.7276 0.6490 0.0000
vt 0.7263 0.6523 0.0000
vt 0.9845 0.9944 0.0000
vt 0.9845 0.9700 0.0000
vt 0.9808 0.9944 0.0000
vt 0.7263 0.6490 0.0000
vt 0.5205 0.7498 0.0000
vt 0.5205 0.5340 0.0000
vt 0.5168 0.7498 0.0000
vt 0.5168 0.5340 0.0000
vt 0.9808 0.9700 0.0000
vt 0.9549 0.7498 0.0000
vt 0.9794 0.7498 0.0000
vt 0.9549 0.5340 0.0000
vt 0.9794 0.5340 0.0000
vt 0.5219 0.7498 0.0000
vt 0.5464 0.7498 0.0000
vt 0.5219 0.5340 0.0000
vt 0.1039 0.3566 0.0000
vt 0.2347 0.4647 0.0000
vt 0.9808 0.7498 0.0000
vt 0.9845 0.7498 0.0000
vt 0.9808 0.5340 0.0000
vt 0.5205 0.9944 0.0000
vt 0.5205 0.9700 0.0000
vt 0.5168 0.9944 0.0000
vt 0.5464 0.5340 0.0000
vt 0.7114 0.1627 0.0000
vt 0.6720 0.0117 0.0000
vt 0.7114 0.0117 0.0000
vt 0.9845 0.5340 0.0000
vt 0.5168 0.9700 0.0000
vt 0.6720 0.4645 0.0000
vt 0.7263 0.6994 0.0000
vt 0.8927 0.6523 0.0000
vt 0.8858 0.6490 0.0000
vt 0.8335 0.6994 0.0000
vt 0.7333 0.6490 0.0000
vt 0.7265 0.6523 0.0000
vt 0.7925 0.6961 0.0000
vt 0.8929 0.6490 0.0000
vt 0.8915 0.6490 0.0000
vt 0.8929 0.6961 0.0000
vt 0.7114 0.4645 0.0000
vt 0.7114 0.3136 0.0000
vt 0.6720 0.1627 0.0000
vt 0.7276 0.6994 0.0000
vt 0.6720 0.3136 0.0000
vt 0.8266 0.6961 0.0000
vt 0.7857 0.6994 0.0000
vt 0.8915 0.6961 0.0000
vt 0.1505 0.4647 0.0000
vt 0.7263 0.7465 0.0000
vt 0.7743 0.7465 0.0000
vt 0.8517 0.7432 0.0000
vt 0.8929 0.7432 0.0000
vt 0.7276 0.7465 0.0000
vt 0.7674 0.7432 0.0000
vt 0.8449 0.7465 0.0000
vt 0.8915 0.7432 0.0000
vt 0.3671 0.4858 0.0000
vt 0.0920 0.3851 0.0000
vt 0.0920 0.4987 0.0000
vt 0.8929 0.7465 0.0000
vt 0.8915 0.7465 0.0000
vt 0.7701 0.6522 0.0000
vt 0.7701 0.6488 0.0000
vt 0.7687 0.6522 0.0000
vt 0.8504 0.7560 0.0000
vt 0.8504 0.7456 0.0000
vt 0.8491 0.7560 0.0000
vt 0.7687 0.6488 0.0000
vt 0.3671 0.3905 0.0000
vt 0.7701 0.6517 0.0000
vt 0.7701 0.5598 0.0000
vt 0.7687 0.6517 0.0000
vt 0.7687 0.5598 0.0000
vt 0.8491 0.7456 0.0000
vt 0.8823 0.6517 0.0000
vt 0.8910 0.6517 0.0000
vt 0.8823 0.5598 0.0000
vt 0.8910 0.5598 0.0000
vt 0.7281 0.6517 0.0000
vt 0.7368 0.6517 0.0000
vt 0.7281 0.5598 0.0000
vt 0.8491 0.6517 0.0000
vt 0.8504 0.6517 0.0000
vt 0.8491 0.5598 0.0000
vt 0.7701 0.7560 0.0000
vt 0.7701 0.7456 0.0000
vt 0.7687 0.7560 0.0000
vt 0.7368 0.5598 0.0000
vt 0.8504 0.5598 0.0000
vt 0.7687 0.7456 0.0000
vt 0.7687 0.6993 0.0000
vt 0.8929 0.6522 0.0000
vt 0.8860 0.6488 0.0000
vt 0.8337 0.6993 0.0000
vt 0.7331 0.6488 0.0000
vt 0.7263 0.6522 0.0000
vt 0.7923 0.6959 0.0000
vt 0.8504 0.6488 0.0000
vt 0.8491 0.6488 0.0000
vt 0.8504 0.6959 0.0000
vt 0.7701 0.6993 0.0000
vt 0.8268 0.6959 0.0000
vt 0.7855 0.6993 0.0000
vt 0.8491 0.6959 0.0000
vt 0.6682 0.3706 0.0000
vt 0.9616 0.4772 0.0000
vt 0.9956 0.3706 0.0000
vt 0.7687 0.7582 0.0000
vt 0.7839 0.7582 0.0000
vt 0.8422 0.7549 0.0000
vt 0.8504 0.7549 0.0000
vt 0.7701 0.7582 0.0000
vt 0.7770 0.7549 0.0000
vt 0.8353 0.7582 0.0000
vt 0.8491 0.7549 0.0000
vt 0.6682 0.0822 0.0000
vt 0.9956 0.0822 0.0000
vt 0.6323 0.4772 0.0000
vt 0.6682 0.0165 0.0000
vt 0.9956 0.0165 0.0000
vt 0.8504 0.7582 0.0000
vt 0.8491 0.7582 0.0000
vt 0.8101 0.7560 0.0000
vt 0.8101 0.7456 0.0000
vt 0.8088 0.7560 0.0000
vt 0.8104 0.6536 0.0000
vt 0.8104 0.6503 0.0000
vt 0.8090 0.6536 0.0000
vt 0.8104 0.6531 0.0000
vt 0.8104 0.5612 0.0000
vt 0.8090 0.6531 0.0000
vt 0.8090 0.6503 0.0000
vt 0.8090 0.5612 0.0000
vt 0.8088 0.7456 0.0000
vt 0.8823 0.6531 0.0000
vt 0.8910 0.6531 0.0000
vt 0.8823 0.5612 0.0000
vt 0.7281 0.6531 0.0000
vt 0.7368 0.6531 0.0000
vt 0.7281 0.5612 0.0000
vt 0.8911 0.5612 0.0000
vt 0.8088 0.6531 0.0000
vt 0.8101 0.6531 0.0000
vt 0.8088 0.5612 0.0000
vt 0.8104 0.7560 0.0000
vt 0.8104 0.7456 0.0000
vt 0.8090 0.7560 0.0000
vt 0.7368 0.5612 0.0000
vt 0.8101 0.5612 0.0000
vt 0.8090 0.7456 0.0000
vt 0.8090 0.7007 0.0000
vt 0.8911 0.6536 0.0000
vt 0.8842 0.6503 0.0000
vt 0.8319 0.7007 0.0000
vt 0.7350 0.6503 0.0000
vt 0.7281 0.6536 0.0000
vt 0.7942 0.6974 0.0000
vt 0.8101 0.6503 0.0000
vt 0.8088 0.6503 0.0000
vt 0.8101 0.6974 0.0000
vt 0.6436 0.4858 0.0000
vt 0.6436 0.3905 0.0000
vt 0.8104 0.7007 0.0000
vt 0.8250 0.6974 0.0000
vt 0.7873 0.7007 0.0000
vt 0.8088 0.6974 0.0000
vt 0.8090 0.7478 0.0000
vt 0.7727 0.7478 0.0000
vt 0.8534 0.7445 0.0000
vt 0.8101 0.7445 0.0000
vt 0.8104 0.7478 0.0000
vt 0.7658 0.7445 0.0000
vt 0.7680 0.7560 0.0000
vt 0.7680 0.7456 0.0000
vt 0.7666 0.7560 0.0000
vt 0.8465 0.7478 0.0000
vt 0.8525 0.6540 0.0000
vt 0.8525 0.5620 0.0000
vt 0.8512 0.6540 0.0000
vt 0.8526 0.6544 0.0000
vt 0.8526 0.6511 0.0000
vt 0.8512 0.6544 0.0000
vt 0.8512 0.6511 0.0000
vt 0.8512 0.5620 0.0000
vt 0.7666 0.7456 0.0000
vt 0.8088 0.7445 0.0000
vt 0.7281 0.6540 0.0000
vt 0.7368 0.6540 0.0000
vt 0.7281 0.5620 0.0000
vt 0.8823 0.6540 0.0000
vt 0.8911 0.6540 0.0000
vt 0.8823 0.5620 0.0000
vt 0.8911 0.5620 0.0000
vt 0.7666 0.6540 0.0000
vt 0.7680 0.6540 0.0000
vt 0.7666 0.5620 0.0000
vt 0.8525 0.7560 0.0000
vt 0.8525 0.7456 0.0000
vt 0.8512 0.7560 0.0000
vt 0.7368 0.5620 0.0000
vt 0.7680 0.5620 0.0000
vt 0.8512 0.7456 0.0000
vt 0.8101 0.7478 0.0000
vt 0.8088 0.7478 0.0000
vt 0.8512 0.7015 0.0000
vt 0.8900 0.6544 0.0000
vt 0.8831 0.6511 0.0000
vt 0.8308 0.7015 0.0000
vt 0.3407 0.3706 0.0000
vt 0.7360 0.6511 0.0000
vt 0.7291 0.6544 0.0000
vt 0.7952 0.6982 0.0000
vt 0.7679 0.6511 0.0000
vt 0.7666 0.6511 0.0000
vt 0.7679 0.6982 0.0000
vt 0.3766 0.4772 0.0000
vt 0.8526 0.7015 0.0000
vt 0.8239 0.6982 0.0000
vt 0.7883 0.7015 0.0000
vt 0.7666 0.6982 0.0000
vt 0.3407 0.0822 0.0000
vt 0.9936 0.4950 0.0000
vt 0.3407 0.0165 0.0000
vt 0.9936 0.3814 0.0000
vt 0.5206 0.9944 0.0000
vt 0.5206 0.9700 0.0000
vt 0.9845 0.7580 0.0000
vt 0.9845 0.5421 0.0000
vt 0.9807 0.7580 0.0000
vt 0.8929 0.6559 0.0000
vt 0.8929 0.6526 0.0000
vt 0.8915 0.6559 0.0000
vt 0.9807 0.5421 0.0000
vt 0.7679 0.6843 0.0000
vt 0.7679 0.5680 0.0000
vt 0.7666 0.6843 0.0000
vt 0.8915 0.6526 0.0000
vt 0.5219 0.7580 0.0000
vt 0.5464 0.7580 0.0000
vt 0.5219 0.5421 0.0000
vt 0.9549 0.7580 0.0000
vt 0.9794 0.7580 0.0000
vt 0.9549 0.5421 0.0000
vt 0.9794 0.5421 0.0000
vt 0.7331 0.7286 0.0000
vt 0.1545 0.4766 0.0000
vt 0.2561 0.3685 0.0000
vt 0.2386 0.4766 0.0000
vt 0.5168 0.7580 0.0000
vt 0.5206 0.7580 0.0000
vt 0.5168 0.5421 0.0000
vt 0.9807 0.9944 0.0000
vt 0.5464 0.5421 0.0000
vt 0.8929 0.7253 0.0000
vt 0.8512 0.6761 0.0000
vt 0.8526 0.6761 0.0000
vt 0.8512 0.5598 0.0000
vt 0.5206 0.5421 0.0000
vt 0.9807 0.9700 0.0000
vt 0.7114 0.0080 0.0000
vt 0.6552 0.4907 0.0000
vt 0.6552 0.0080 0.0000
vt 0.7114 0.1689 0.0000
vt 0.8915 0.7030 0.0000
vt 0.8882 0.6559 0.0000
vt 0.8813 0.6526 0.0000
vt 0.8290 0.7030 0.0000
vt 0.7378 0.6526 0.0000
vt 0.7310 0.6559 0.0000
vt 0.7970 0.6996 0.0000
vt 0.7276 0.6526 0.0000
vt 0.7263 0.6526 0.0000
vt 0.7276 0.6996 0.0000
vt 0.1079 0.3685 0.0000
vt 0.2561 0.0760 0.0000
vt 0.7114 0.4907 0.0000
vt 0.6552 0.1689 0.0000
vt 0.7114 0.3298 0.0000
vt 0.0887 0.0760 0.0000
vt 0.2561 0.0094 0.0000
vt 0.8929 0.7030 0.0000
vt 0.7666 0.5680 0.0000
vt 0.6552 0.3298 0.0000
vt 0.8221 0.6996 0.0000
vt 0.7902 0.7030 0.0000
vt 0.7263 0.7253 0.0000
vt 0.8860 0.7286 0.0000
vt 0.7263 0.6996 0.0000
vt 0.8526 0.5598 0.0000
vt 0.0226 0.3706 0.0000
vt 0.7679 0.7286 0.0000
vt 0.7679 0.7253 0.0000
vt 0.7666 0.7286 0.0000
vt 0.7666 0.7253 0.0000
vt 0.0473 0.4772 0.0000
vt 0.8915 0.7541 0.0000
vt 0.7557 0.7541 0.0000
vt 0.8703 0.7508 0.0000
vt 0.7276 0.7508 0.0000
vt 0.8929 0.7541 0.0000
vt 0.7488 0.7508 0.0000
vt 0.8635 0.7541 0.0000
vt 0.0133 0.0822 0.0000
vt 0.7263 0.7508 0.0000
vt 0.0133 0.0165 0.0000
vt 0.0887 0.0094 0.0000
vt 0.7276 0.7541 0.0000
vt 0.7263 0.7541 0.0000
# 318 texture coords

g Mesh_072
usemtl Tex_0138_0_dds
s 1
f 1/1/1 2/2/1 3/3/1 
s 2
f 4/4/1 5/5/2 2/2/1 
s 3
f 6/6/3 7/7/3 8/8/3 
s 4
f 9/9/4 10/10/4 11/11/4 
s 5
f 12/12/3 8/8/3 7/7/3 
s 6
f 11/13/5 13/14/5 9/15/5 
s 7
f 14/16/5 9/15/5 13/14/5 
s 8
f 15/17/4 11/11/4 10/10/4 
s 11
f 10/18/1 9/19/1 16/20/1 
s 12
f 14/21/1 16/20/1 9/19/1 
s 13
f 11/22/6 15/23/6 13/24/6 
s 14
f 17/25/7 18/26/8 5/5/2 
s 18
f 15/27/9 10/28/9 19/29/9 
s 19
f 13/30/10 19/31/10 14/32/10 
s 21
f 19/33/6 13/24/6 15/23/6 
s 22
f 20/34/1 21/35/1 22/36/1 
s 23
f 16/37/9 19/29/9 10/28/9 
s 24
f 16/38/10 14/32/10 19/31/10 
s 25
f 22/36/4 23/39/4 24/35/4 
s 26
f 8/8/11 25/40/11 6/6/11 
s 28
f 8/41/1 12/42/1 25/43/1 
s 33
f 7/44/6 6/45/6 26/46/6 
s 34
f 12/47/12 7/48/12 27/49/12 
s 36
f 23/39/4 22/36/4 21/50/4 
s 37
f 28/51/1 29/52/1 20/34/1 
s 38
f 24/35/6 30/34/6 31/52/6 
s 39
f 32/53/11 6/6/11 25/40/11 
s 40
f 33/50/1 34/54/1 28/51/1 
s 41
f 21/35/1 20/34/1 29/52/1 
s 42
f 27/55/1 25/43/1 12/42/1 
s 43
f 32/56/6 26/46/6 6/45/6 
s 44
f 30/34/6 24/35/6 23/36/6 
s 45
f 31/52/6 35/51/6 36/54/6 
s 46
f 26/57/12 27/49/12 7/48/12 
s 47
f 36/54/6 37/50/6 38/39/6 
s 49
f 29/52/1 28/51/1 34/54/1 
s 51
f 34/54/1 33/50/1 39/39/1 
s 53
f 21/36/9 30/52/9 23/35/9 
s 54
f 35/51/6 31/52/6 30/34/6 
s 55
f 30/52/9 21/36/9 29/34/9 
s 60
f 18/26/8 17/25/7 40/58/8 
s 62
f 37/50/6 36/54/6 35/51/6 
s 63
f 35/54/9 29/34/9 34/51/9 
s 64
f 29/34/9 35/54/9 30/52/9 
s 66
f 25/40/11 41/59/11 32/53/11 
s 67
f 25/43/1 27/55/1 41/60/1 
s 68
f 5/5/2 4/4/1 17/25/7 
s 69
f 37/39/9 34/51/9 39/50/9 
s 71
f 34/51/9 37/39/9 35/54/9 
s 72
f 2/2/1 1/1/1 4/4/1 
s 73
f 26/46/6 32/56/6 42/61/6 
s 74
f 27/49/12 26/57/12 43/62/12 
s 78
f 44/63/11 32/53/11 41/59/11 
s 79
f 43/64/1 41/60/1 27/55/1 
s 81
f 44/65/6 42/61/6 32/56/6 
s 82
f 42/66/12 43/62/12 26/57/12 
s 83
f 45/67/4 18/68/4 40/69/4 
s 88
f 41/70/13 43/62/13 44/71/13 
s 89
f 46/72/3 47/73/3 48/74/3 
s 90
f 49/75/4 50/76/4 51/77/4 
s 91
f 52/78/3 48/74/3 47/73/3 
s 92
f 42/66/13 44/71/13 43/62/13 
s 93
f 18/68/4 45/67/4 53/79/4 
s 94
f 51/80/5 54/81/5 49/82/5 
s 95
f 55/83/5 49/82/5 54/81/5 
s 96
f 56/84/4 51/77/4 50/76/4 
s 97
f 50/85/1 49/86/1 57/87/1 
s 98
f 55/88/1 57/87/1 49/86/1 
s 99
f 51/89/6 56/90/6 54/91/6 
s 100
f 56/92/9 50/93/9 58/94/9 
s 101
f 54/95/10 58/96/10 55/97/10 
s 102
f 58/98/6 54/91/6 56/90/6 
s 103
f 57/99/9 58/94/9 50/93/9 
s 104
f 57/100/10 55/97/10 58/96/10 
s 105
f 48/74/11 59/101/14 46/72/11 
s 106
f 48/102/1 52/103/1 59/104/1 
s 107
f 47/105/6 46/106/6 60/107/6 
s 108
f 52/108/12 47/109/12 61/110/15 
s 109
f 62/111/14 46/72/11 59/101/14 
s 110
f 61/112/1 59/104/1 52/103/1 
s 111
f 62/113/6 60/107/6 46/106/6 
s 113
f 60/114/15 61/110/15 47/109/12 
s 119
f 63/115/16 40/116/17 17/117/18 
s 120
f 59/101/14 64/118/19 62/111/14 
s 121
f 59/104/1 61/112/1 64/119/1 
s 122
f 60/107/6 62/113/6 65/120/6 
s 123
f 61/110/15 60/114/15 66/121/20 
s 127
f 67/122/19 62/111/14 64/118/19 
s 130
f 66/123/1 64/119/1 61/112/1 
s 131
f 67/124/6 65/120/6 62/113/6 
s 134
f 65/125/20 66/121/20 60/114/15 
s 136
f 68/126/21 17/117/18 4/127/21 
s 137
f 40/116/17 63/115/16 45/128/22 
s 138
f 69/129/9 4/127/21 1/130/9 
s 139
f 64/131/23 66/121/23 67/132/23 
s 141
f 70/133/4 71/134/4 72/135/4 
s 142
f 73/136/24 74/137/24 75/138/24 
s 143
f 72/139/5 76/140/5 70/141/5 
s 144
f 77/142/24 75/138/24 74/137/24 
s 145
f 65/125/23 67/132/23 66/121/23 
s 146
f 78/143/5 70/141/5 76/140/5 
s 147
f 79/144/4 72/135/4 71/134/4 
s 148
f 71/145/1 70/146/1 80/147/1 
s 149
f 72/148/6 79/149/6 76/150/6 
s 150
f 78/151/1 80/147/1 70/146/1 
s 151
f 79/152/9 71/153/9 81/154/9 
s 152
f 76/155/10 81/156/10 78/157/10 
s 153
f 81/158/6 76/150/6 79/149/6 
s 154
f 80/159/9 81/154/9 71/153/9 
s 155
f 80/160/10 78/157/10 81/156/10 
s 156
f 75/138/11 82/161/11 73/136/11 
s 157
f 75/162/1 77/163/1 82/164/1 
s 158
f 74/165/6 73/166/6 83/167/6 
s 159
f 77/168/12 74/169/12 84/170/12 
s 161
f 85/171/4 53/79/4 45/67/4 
s 163
f 53/79/4 85/171/4 86/172/4 
s 165
f 87/173/11 73/136/11 82/161/11 
s 166
f 84/174/1 82/164/1 77/163/1 
s 167
f 87/175/6 83/167/6 73/166/6 
s 168
f 17/117/18 68/126/21 63/115/16 
s 169
f 83/176/12 84/170/12 74/169/12 
s 172
f 4/127/21 69/129/9 68/126/21 
s 177
f 82/161/11 88/177/11 87/173/11 
s 178
f 82/164/1 84/174/1 88/178/1 
s 181
f 83/167/6 87/175/6 89/179/6 
s 182
f 84/170/12 83/176/12 90/180/12 
s 186
f 91/181/11 87/173/11 88/177/11 
s 188
f 90/182/1 88/178/1 84/174/1 
s 189
f 92/183/4 93/184/4 94/185/4 
s 190
f 91/186/6 89/179/6 87/175/6 
s 191
f 94/187/5 95/188/5 92/189/5 
s 192
f 96/190/24 97/191/24 98/192/24 
s 193
f 99/193/24 98/192/24 97/191/24 
s 194
f 100/194/5 92/189/5 95/188/5 
s 195
f 101/195/4 94/185/4 93/184/4 
s 196
f 89/196/12 90/180/12 83/176/12 
s 197
f 94/197/6 101/198/6 95/199/6 
s 198
f 93/200/1 92/201/1 102/202/1 
s 199
f 100/203/1 102/202/1 92/201/1 
s 201
f 101/204/9 93/205/9 103/206/9 
s 202
f 95/207/10 103/208/10 100/209/10 
s 203
f 103/210/6 95/199/6 101/198/6 
s 204
f 102/211/9 103/206/9 93/205/9 
s 205
f 102/212/10 100/209/10 103/208/10 
s 206
f 88/213/23 90/180/23 91/214/23 
s 207
f 98/192/11 104/215/11 96/190/11 
s 208
f 98/216/1 99/217/1 104/218/1 
s 209
f 105/219/25 45/128/22 63/115/16 
s 211
f 89/196/23 91/214/23 90/180/23 
s 213
f 97/220/6 96/221/6 106/222/6 
s 214
f 99/223/12 97/224/12 107/225/12 
s 215
f 45/128/22 105/219/25 85/226/26 
s 216
f 108/227/11 96/190/11 104/215/11 
s 218
f 107/228/1 104/218/1 99/217/1 
s 219
f 108/229/6 106/222/6 96/221/6 
s 220
f 106/230/12 107/225/12 97/224/12 
s 225
f 109/231/21 63/115/16 68/126/21 
s 227
f 110/232/4 86/172/4 85/171/4 
s 229
f 111/233/9 68/126/21 69/129/9 
s 230
f 86/172/4 110/232/4 112/234/4 
s 236
f 113/235/4 114/236/4 115/32/4 
s 237
f 115/237/5 116/238/5 113/239/5 
s 238
f 117/240/24 118/241/24 119/242/24 
s 239
f 120/243/5 113/239/5 116/238/5 
s 240
f 121/38/4 115/32/4 114/236/4 
s 242
f 104/244/27 122/245/27 108/246/27 
s 243
f 123/247/24 119/242/24 118/241/24 
s 244
f 115/248/6 121/249/6 116/250/6 
s 245
f 114/251/1 113/252/1 124/253/1 
s 247
f 120/254/1 124/253/1 113/252/1 
s 249
f 104/218/1 107/228/1 122/255/1 
s 250
f 110/256/28 125/257/29 112/258/28 
s 252
f 121/259/9 114/260/9 126/261/9 
s 254
f 116/9/10 126/10/10 120/262/10 
s 256
f 63/115/30 109/231/21 105/219/25 
s 257
f 126/263/6 116/250/6 121/249/6 
s 258
f 106/222/6 108/229/6 127/264/6 
s 259
f 107/265/31 106/266/31 128/267/31 
s 260
f 124/268/9 126/261/9 114/260/9 
s 261
f 124/269/10 120/262/10 126/10/10 
s 263
f 129/270/4 130/271/4 131/272/4 
s 265
f 132/273/1 133/272/1 129/270/1 
s 266
f 119/242/11 134/274/32 117/240/11 
s 269
f 119/275/1 123/276/1 134/277/1 
s 270
f 68/126/21 111/233/9 109/231/21 
s 271
f 118/278/6 117/279/6 135/280/6 
s 272
f 123/281/12 118/282/12 136/283/33 
s 275
f 137/284/34 138/285/6 125/257/29 
s 277
f 130/271/4 129/270/4 133/286/4 
s 278
f 131/272/6 139/273/6 140/287/6 
s 279
f 141/288/1 142/287/1 132/273/1 
s 280
f 143/289/6 144/290/6 138/285/6 
s 283
f 145/291/32 117/240/11 134/274/32 
s 284
f 146/292/27 108/246/27 122/245/27 
s 285
f 147/286/1 148/293/1 141/288/1 
s 286
f 133/272/1 132/273/1 142/287/1 
s 287
f 139/273/6 131/272/6 130/270/6 
s 288
f 136/294/1 134/277/1 123/276/1 
s 289
f 145/295/6 135/280/6 117/279/6 
s 290
f 128/296/1 122/255/1 107/228/1 
s 291
f 146/297/6 127/264/6 108/229/6 
s 292
f 140/287/6 149/288/6 150/293/6 
s 293
f 135/298/33 136/283/33 118/282/12 
s 294
f 127/299/31 128/267/31 106/266/31 
s 295
f 150/293/6 151/286/6 152/271/6 
s 296
f 142/287/1 141/288/1 148/293/1 
s 297
f 133/270/9 139/287/9 130/272/9 
s 298
f 148/293/1 147/286/1 153/271/1 
s 299
f 149/288/6 140/287/6 139/273/6 
s 300
f 139/287/9 133/270/9 142/273/9 
s 301
f 137/300/35 85/226/26 105/219/25 
s 302
f 151/286/6 150/293/6 149/288/6 
s 303
f 142/273/9 149/293/9 139/287/9 
s 304
f 149/293/9 142/273/9 148/288/9 
s 305
f 122/301/36 128/302/36 146/303/36 
s 306
f 151/271/9 148/288/9 153/286/9 
s 307
f 127/304/36 146/303/36 128/302/36 
s 308
f 125/257/29 110/256/28 137/284/34 
s 309
f 148/288/9 151/271/9 149/293/9 
s 310
f 85/226/26 137/300/35 110/305/37 
s 311
f 134/274/32 154/306/38 145/291/32 
s 312
f 134/277/1 136/294/1 154/307/1 
s 313
f 135/280/6 145/295/6 155/308/6 
s 314
f 136/283/33 135/298/33 156/309/39 
s 315
f 157/310/38 145/291/32 154/306/38 
s 316
f 156/311/1 154/307/1 136/294/1 
s 317
f 157/312/6 155/308/6 145/295/6 
s 318
f 143/313/21 105/219/25 109/231/21 
s 319
f 138/285/6 137/284/34 143/289/6 
s 320
f 155/314/39 156/309/39 135/298/33 
s 321
f 158/315/9 109/231/21 111/233/9 
s 322
f 144/290/6 143/289/6 158/316/6 
s 323
f 154/317/36 156/309/36 157/318/36 
s 324
f 155/314/36 157/318/36 156/309/36 
s 325
f 105/219/25 143/313/21 137/300/35 
s 326
f 109/231/21 158/315/9 143/313/21 
s 119
f 159/115/40 160/117/41 161/116/42 
s 136
f 162/126/43 163/127/43 160/117/41 
s 137
f 161/116/42 164/128/44 159/115/40 
s 138
f 165/129/45 166/130/45 163/127/43 
s 168
f 160/117/41 159/115/40 162/126/43 
s 172
f 163/127/43 162/126/43 165/129/45 
s 209
f 167/219/46 159/115/40 164/128/44 
s 215
f 164/128/44 168/226/47 167/219/46 
s 225
f 169/231/43 162/126/43 159/115/40 
s 229
f 170/233/45 165/129/45 162/126/43 
s 256
f 159/115/48 167/219/46 169/231/43 
s 270
f 162/126/43 169/231/43 170/233/45 
s 301
f 171/300/49 167/219/46 168/226/47 
s 310
f 168/226/47 172/305/50 171/300/49 
s 318
f 173/313/43 169/231/43 167/219/46 
s 321
f 174/315/45 170/233/45 169/231/43 
s 325
f 167/219/46 171/300/49 173/313/43 
s 326
f 169/231/43 173/313/43 174/315/45 
s 53
f 175/36/5 176/35/5 177/52/5 
s 55
f 177/52/5 178/34/5 175/36/5 
s 63
f 179/54/5 180/51/5 178/34/5 
s 64
f 178/34/5 177/52/5 179/54/5 
s 69
f 181/39/5 182/50/5 180/51/5 
s 71
f 180/51/5 179/54/5 181/39/5 
s 297
f 183/270/5 184/272/5 185/287/5 
s 300
f 185/287/5 186/273/5 183/270/5 
s 303
f 186/273/5 185/287/5 187/293/5 
s 304
f 187/293/5 188/288/5 186/273/5 
s 306
f 189/271/5 190/286/5 188/288/5 
s 309
f 188/288/5 187/293/5 189/271/5 
# 0 polygons - 266 triangles

#
# object Object075
#

v  0.2680 5.6590 -4.2741
v  0.2680 5.6590 -1.4336
v  0.2680 6.4490 -4.2741
v  0.2680 6.4490 -1.4336
v  0.2680 5.6590 1.4069
v  0.2680 6.4490 1.4069
v  0.2680 5.6590 4.2473
v  0.2680 6.4490 4.2473
# 8 vertices

vn -1.0000 0.0000 -0.0000
# 1 vertex normals

vt 0.3018 0.8946 0.0000
vt 0.2038 0.8946 0.0000
vt 0.3018 0.9958 0.0000
vt 0.2038 0.9958 0.0000
vt 0.1059 0.8946 0.0000
vt 0.1059 0.9958 0.0000
vt 0.0080 0.8946 0.0000
vt 0.0080 0.9958 0.0000
# 8 texture coords

g Object075
usemtl Tex_0138_0_dds
s 58
f 191/319/51 192/320/51 193/321/51 
s 86
f 194/322/51 193/321/51 192/320/51 
s 132
f 192/320/51 195/323/51 194/322/51 
s 162
f 196/324/51 194/322/51 195/323/51 
s 210
f 195/323/51 197/325/51 196/324/51 
s 226
f 198/326/51 196/324/51 197/325/51 
# 0 polygons - 6 triangles

#
# object Object077
#

v  0.2680 5.6590 -4.2741
v  0.2680 6.4490 -4.2741
v  0.2680 5.6590 -1.4336
v  0.2680 6.4490 -1.4336
v  0.2680 5.6590 1.4069
v  0.2680 6.4490 1.4069
v  0.2680 5.6590 4.2473
v  0.2680 6.4490 4.2473
# 8 vertices

vn 1.0000 0.0000 -0.0000
# 1 vertex normals

vt 0.3018 0.8946 0.0000
vt 0.3018 0.9958 0.0000
vt 0.2038 0.8946 0.0000
vt 0.2038 0.9958 0.0000
vt 0.1059 0.8946 0.0000
vt 0.1059 0.9958 0.0000
vt 0.0080 0.8946 0.0000
vt 0.0080 0.9958 0.0000
# 8 texture coords

g Object077
usemtl Tex_0138_0_dds
s 58
f 199/327/52 200/328/52 201/329/52 
s 86
f 202/330/52 201/329/52 200/328/52 
s 132
f 201/329/52 202/330/52 203/331/52 
s 162
f 204/332/52 203/331/52 202/330/52 
s 210
f 203/331/52 204/332/52 205/333/52 
s 226
f 206/334/52 205/333/52 204/332/52 
# 0 polygons - 6 triangles

#
# object Box001
#

v  0.2269 5.6408 4.2500
v  0.2269 5.6408 -4.2500
v  0.3269 5.6408 -4.2500
v  0.3269 5.6408 4.2500
v  0.2269 5.7408 4.2500
v  0.3269 5.7408 4.2500
v  0.3269 5.7408 -4.2500
v  0.2269 5.7408 -4.2500
# 8 vertices

vn 0.0000 -1.0000 -0.0000
vn 0.0000 1.0000 -0.0000
vn 0.0000 0.0000 1.0000
vn 1.0000 0.0000 -0.0000
vn 0.0000 0.0000 -1.0000
vn -1.0000 0.0000 -0.0000
# 6 vertex normals

vt 0.4544 0.5019 0.0000
vt 0.4544 0.9970 0.0000
vt 0.4486 0.9970 0.0000
vt 0.4486 0.5019 0.0000
vt 0.4603 0.9970 0.0000
vt 0.4603 0.5019 0.0000
vt 0.4661 0.5019 0.0000
vt 0.4719 0.5019 0.0000
vt 0.4719 0.5077 0.0000
vt 0.4661 0.5077 0.0000
vt 0.4661 0.9970 0.0000
vt 0.4719 0.5135 0.0000
vt 0.4661 0.5135 0.0000
vt 0.4428 0.9970 0.0000
vt 0.4428 0.5019 0.0000
# 15 texture coords

g Box001
usemtl Tex_0138_0_dds
s 2
f 207/335/53 208/336/53 209/337/53 210/338/53 
s 4
f 211/339/54 212/336/54 213/335/54 214/340/54 
s 8
f 207/341/55 210/342/55 212/343/55 211/344/55 
s 16
f 210/341/56 209/345/56 213/339/56 212/340/56 
s 32
f 209/344/57 208/343/57 214/346/57 213/347/57 
s 64
f 208/338/58 207/337/58 211/348/58 214/349/58 
# 6 polygons

#
# object Box002
#

v  0.2720 2.0872 4.2500
v  0.2720 2.0872 -0.0000
v  0.2820 2.0872 -0.0000
v  0.2820 2.0872 4.2500
v  0.2720 2.0872 -4.2500
v  0.2820 2.0872 -4.2500
v  0.2720 5.6872 4.2500
v  0.2820 5.6872 4.2500
v  0.2820 5.6872 -0.0000
v  0.2720 5.6872 -0.0000
v  0.2820 5.6872 -4.2500
v  0.2720 5.6872 -4.2500
v  0.2820 3.8872 4.2500
v  0.2720 3.8872 4.2500
v  0.2820 3.8872 -0.0000
v  0.2820 3.8872 -4.2500
v  0.2720 3.8872 -4.2500
v  0.2720 3.8872 -0.0000
# 18 vertices

vn 0.0000 -1.0000 -0.0000
vn 0.0000 1.0000 -0.0000
vn 0.0000 0.0000 1.0000
vn 1.0000 0.0000 -0.0000
vn 0.0000 0.0000 -1.0000
vn -1.0000 0.0000 -0.0000
# 6 vertex normals

vt 0.4397 0.9417 0.0000
vt 0.4397 0.7569 0.0000
vt 0.4401 0.7569 0.0000
vt 0.4401 0.9417 0.0000
vt 0.4397 0.5721 0.0000
vt 0.4401 0.5721 0.0000
vt 0.4406 0.5721 0.0000
vt 0.4406 0.7569 0.0000
vt 0.4406 0.9417 0.0000
vt 0.4392 0.7851 0.0000
vt 0.4397 0.7851 0.0000
vt 0.4397 0.8634 0.0000
vt 0.4392 0.8634 0.0000
vt 0.4392 0.9417 0.0000
vt 0.2844 0.8067 0.0000
vt 0.0628 0.8067 0.0000
vt 0.0628 0.9005 0.0000
vt 0.2844 0.9005 0.0000
vt 0.0628 0.9943 0.0000
vt 0.2844 0.9943 0.0000
vt 0.4392 0.6286 0.0000
vt 0.4397 0.6286 0.0000
vt 0.4397 0.7069 0.0000
vt 0.4392 0.7069 0.0000
# 24 texture coords

g Box002
usemtl Tex_0138_0_dds
s 2
f 215/350/59 216/351/59 217/352/59 218/353/59 
f 216/351/59 219/354/59 220/355/59 217/352/59 
s 4
f 221/355/60 222/356/60 223/357/60 224/352/60 
f 224/352/60 223/357/60 225/358/60 226/353/60 
s 8
f 215/359/61 218/360/61 227/361/61 228/362/61 
f 228/362/61 227/361/61 222/350/61 221/363/61 
s 16
f 218/364/62 217/365/62 229/366/62 227/367/62 
f 217/365/62 220/364/62 230/367/62 229/366/62 
f 227/367/62 229/366/62 223/368/62 222/369/62 
f 229/366/62 230/367/62 225/369/62 223/368/62 
s 32
f 220/370/63 219/371/63 231/372/63 230/373/63 
f 230/373/63 231/372/63 226/360/63 225/359/63 
s 64
f 219/364/64 216/365/64 232/366/64 231/367/64 
f 216/365/64 215/364/64 228/367/64 232/366/64 
f 231/367/64 232/366/64 224/368/64 226/369/64 
f 232/366/64 228/367/64 221/369/64 224/368/64 
# 16 polygons