# 3ds Max Wavefront OBJ Exporter v0.97b - (c)2007 guruware
# File Created: 26.04.2017 21:32:32

mtllib warehouse1_o.mtl

#
# object Box050
#

v  -17.7595 0.0000 11.9608
v  17.2405 0.0000 11.9608
v  17.2405 10.7500 11.9608
v  -17.7595 10.7500 11.9608
v  17.2405 0.0000 -13.0392
v  17.2405 10.7500 -13.0392
v  -17.7595 0.0000 -13.0392
v  -17.7595 10.7500 -13.0392
# 8 vertices

vn 0.0000 0.0000 1.0000
vn 1.0000 0.0000 -0.0000
vn 0.0000 0.0000 -1.0000
vn -1.0000 0.0000 -0.0000
# 4 vertex normals

vt 0.0006 0.7968 0.0000
vt 2.8521 0.7968 0.0000
vt 2.8521 0.9963 0.0000
vt 0.0006 0.9963 0.0000
vt 0.0020 0.9963 0.0000
vt 0.0020 0.8005 0.0000
vt 2.0828 0.8005 0.0000
vt 2.0828 0.9963 0.0000
vt 0.0016 0.7969 0.0000
vt 2.9595 0.7969 0.0000
vt 2.9595 0.9958 0.0000
vt 0.0016 0.9958 0.0000
vt 0.0002 0.9967 0.0000
vt 0.0002 0.8012 0.0000
vt 2.0772 0.8012 0.0000
vt 2.0772 0.9967 0.0000
# 16 texture coords

g Box050
usemtl Material__5073
s 8
f 1/1/1 2/2/1 3/3/1 4/4/1 
s 16
f 3/5/2 2/6/2 5/7/2 6/8/2 
s 32
f 5/9/3 7/10/3 8/11/3 6/12/3 
s 64
f 8/13/4 7/14/4 1/15/4 4/16/4 
# 4 polygons

#
# object Mesh_1568
#

v  4.6966 0.0000 11.8928
v  7.3366 0.0000 12.0248
v  4.6966 0.0000 12.0248
v  7.3366 0.0000 11.8928
v  4.6966 4.7520 11.8928
v  7.3366 4.7520 12.0248
v  7.3366 4.7520 11.8928
v  4.6966 4.7520 12.0248
# 8 vertices

vn 0.0000 -1.0000 -0.0000
vn 0.0000 1.0000 -0.0000
vn 0.0000 0.0000 -1.0000
vn 1.0000 0.0000 -0.0000
vn 0.0000 0.0000 1.0000
vn -1.0000 0.0000 -0.0000
# 6 vertex normals

vt 0.5162 0.0583 0.0000
vt 0.5412 0.1171 0.0000
vt 0.5412 0.0583 0.0000
vt 0.5162 0.1171 0.0000
vt 0.5001 0.1171 0.0000
vt 0.9996 0.0583 0.0000
vt 0.5001 0.0583 0.0000
vt 0.9996 0.1171 0.0000
vt 0.5001 0.1152 0.0000
vt 0.9996 0.1122 0.0000
vt 0.5001 0.1122 0.0000
vt 0.9996 0.1152 0.0000
vt 0.5001 0.0631 0.0000
vt 0.9996 0.0602 0.0000
vt 0.5001 0.0602 0.0000
vt 0.9996 0.0631 0.0000
# 16 texture coords

g Mesh_1568
usemtl Material__5073
s off
f 9/17/5 10/18/5 11/19/5 
f 10/18/5 9/17/5 12/20/5 
f 13/20/6 14/19/6 15/17/6 
f 14/19/6 13/20/6 16/18/6 
f 9/21/7 15/22/7 12/23/7 
f 15/22/7 9/21/7 13/24/7 
f 12/25/8 14/26/8 10/27/8 
f 14/26/8 12/25/8 15/28/8 
f 10/23/9 16/24/9 11/21/9 
f 16/24/9 10/23/9 14/22/9 
f 11/29/10 13/30/10 9/31/10 
f 13/30/10 11/29/10 16/32/10 
# 0 polygons - 12 triangles

#
# object Mesh_1569
#

v  17.3433 6.0932 -4.9231
v  17.3437 6.0933 -4.2689
v  17.3433 5.6041 -4.9230
v  17.3438 5.6042 -4.2689
v  17.2988 5.5188 -4.1834
v  17.2988 6.1787 -4.1834
v  17.2596 5.5521 -4.2250
v  17.2596 6.1454 -4.2251
v  17.2983 6.1787 -5.0085
v  17.2983 5.5187 -5.0084
v  17.2591 6.1453 -4.9668
v  17.2591 5.5520 -4.9667
v  17.3577 6.1788 -4.1835
v  17.3577 5.5188 -4.1834
v  17.3571 6.1787 -5.0085
v  17.3572 6.1259 -4.9557
v  17.3572 5.5715 -4.9557
v  17.3576 5.5715 -4.2362
v  17.3576 6.1260 -4.2363
v  17.3571 5.5187 -5.0085
# 20 vertices

vn 1.0000 0.0000 -0.0007
vn -0.7283 0.0001 0.6853
vn -0.7289 -0.0001 -0.6846
vn -0.7292 -0.0001 -0.6843
vn -0.7290 -0.0001 -0.6846
vn 0.0009 0.0001 1.0000
vn 0.0007 0.0001 1.0000
vn -0.0001 1.0000 -0.0001
vn -0.2486 0.9686 -0.0000
vn -0.2486 0.9686 0.0001
vn -0.6482 0.7615 0.0003
vn 0.9974 -0.0517 0.0510
vn 0.9578 -0.2034 0.2029
vn 0.9974 0.0517 0.0511
vn 0.9579 0.2034 0.2025
vn 0.9973 0.0517 -0.0524
vn 0.9576 0.2035 -0.2042
vn 0.9973 -0.0517 -0.0524
vn 0.9575 -0.2037 -0.2043
vn 1.0000 0.0001 -0.0008
vn 1.0000 0.0001 -0.0006
vn 1.0000 0.0000 -0.0006
vn -0.6485 -0.7612 0.0005
vn -0.6481 -0.7615 0.0005
vn -0.2486 -0.9686 0.0003
vn -0.2484 -0.9686 0.0003
vn 0.0000 -1.0000 0.0001
vn -0.0009 -0.0001 -1.0000
vn -0.0007 -0.0001 -1.0000
# 29 vertex normals

vt 0.1372 0.1226 0.0000
vt 0.1372 0.1598 0.0000
vt 0.0205 0.1226 0.0000
vt 0.0205 0.1598 0.0000
vt 0.4714 0.1185 0.0000
vt 0.4714 0.1526 0.0000
vt 0.4624 0.1203 0.0000
vt 0.4624 0.1509 0.0000
vt 0.4715 0.1527 0.0000
vt 0.4715 0.1186 0.0000
vt 0.4624 0.1510 0.0000
vt 0.4842 0.1526 0.0000
vt 0.4842 0.1185 0.0000
vt 0.3875 0.1604 0.0000
vt 0.3747 0.1604 0.0000
vt 0.3875 0.1178 0.0000
vt 0.3747 0.1178 0.0000
vt 0.3662 0.1199 0.0000
vt 0.3662 0.1582 0.0000
vt 0.1450 0.1207 0.0000
vt 0.0127 0.1207 0.0000
vt 0.0127 0.1617 0.0000
vt 0.1450 0.1617 0.0000
vt 0.1576 0.1177 0.0000
vt 0.0001 0.1177 0.0000
vt 0.0001 0.1647 0.0000
vt 0.1576 0.1647 0.0000
vt 0.3747 0.1177 0.0000
vt 0.3874 0.1604 0.0000
vt 0.3874 0.1177 0.0000
vt 0.4842 0.1186 0.0000
vt 0.4842 0.1527 0.0000
# 32 texture coords

g Mesh_1569
usemtl Material__5073
s 81
f 17/33/11 18/34/11 19/35/11 
s 82
f 20/36/11 19/35/11 18/34/11 
s 123
f 21/37/12 22/38/12 23/39/12 
s 124
f 24/40/12 23/39/12 22/38/12 
s 125
f 25/41/13 26/42/14 27/43/15 
s 126
f 28/39/14 27/43/15 26/42/14 
s 127
f 29/44/16 22/38/16 30/45/16 
s 128
f 21/37/17 30/45/17 22/38/17 
s 129
f 31/46/18 25/47/19 29/48/18 
s 130
f 22/49/20 29/48/18 25/47/19 
s 131
f 22/49/20 25/47/19 24/50/21 
s 132
f 27/51/21 24/50/21 25/47/19 
s 141
f 32/52/22 17/33/23 33/53/24 
s 142
f 19/35/25 33/53/24 17/33/23 
s 143
f 33/53/24 19/35/25 34/54/26 
s 144
f 20/36/27 34/54/26 19/35/25 
s 145
f 34/54/26 20/36/27 35/55/28 
s 146
f 18/34/29 35/55/28 20/36/27 
s 147
f 31/56/30 32/52/22 36/57/31 
s 148
f 33/53/24 36/57/31 32/52/22 
s 149
f 36/57/31 33/53/24 30/58/32 
s 150
f 34/54/26 30/58/32 33/53/24 
s 151
f 30/58/32 34/54/26 29/59/31 
s 152
f 35/55/28 29/59/31 34/54/26 
s 153
f 29/59/31 35/55/28 31/56/30 
s 154
f 32/52/22 31/56/30 35/55/28 
s 155
f 35/55/28 18/34/29 32/52/22 
s 156
f 17/33/23 32/52/22 18/34/29 
s 175
f 23/50/33 28/51/34 21/60/35 
s 176
f 26/47/36 21/60/35 28/51/34 
s 177
f 26/47/36 36/61/37 21/60/35 
s 178
f 30/62/37 21/60/35 36/61/37 
s 181
f 36/63/38 26/42/38 31/64/39 
s 182
f 25/41/39 31/64/39 26/42/38 
# 0 polygons - 34 triangles

#
# object Box046
#

v  -5.1400 0.0000 11.8936
v  3.3080 0.0000 11.8936
v  3.3080 0.0000 12.0436
v  -5.1400 0.0000 12.0436
v  -5.1400 8.4480 11.8936
v  -5.1400 8.4480 12.0436
v  3.3080 8.4480 12.0436
v  3.3080 8.4480 11.8936
# 8 vertices

vn 0.0000 -1.0000 -0.0000
vn 0.0000 1.0000 -0.0000
vn 1.0000 0.0000 -0.0000
vn 0.0000 0.0000 -1.0000
vn -1.0000 0.0000 -0.0000
vn 0.0000 0.0000 1.0000
# 6 vertex normals

vt 0.9850 0.1881 0.0000
vt 0.5166 0.1881 0.0000
vt 0.5166 0.1847 0.0000
vt 0.9850 0.1847 0.0000
vt 1.0000 0.2941 0.0000
vt 0.5000 0.2941 0.0000
vt 0.5000 0.1765 0.0000
vt 1.0000 0.1765 0.0000
# 8 texture coords

g Box046
usemtl Material__5073
s 2
f 37/65/40 38/66/40 39/67/40 40/68/40 
s 4
f 41/68/41 42/65/41 43/66/41 44/67/41 
s 8
f 38/67/42 44/68/42 43/65/42 39/66/42 
s 16
f 41/69/43 44/70/43 38/71/43 37/72/43 
s 32
f 42/68/44 41/65/44 37/66/44 40/67/44 
s 64
f 39/72/45 43/69/45 42/70/45 40/71/45 
# 6 polygons

#
# object Mesh_1570
#

v  6.3415 6.0932 12.0466
v  5.6873 6.0933 12.0471
v  6.3414 5.6041 12.0466
v  5.6873 5.6042 12.0471
v  5.6018 5.5188 12.0021
v  5.6019 6.1787 12.0021
v  5.6434 5.5521 11.9629
v  5.6435 6.1454 11.9629
v  6.4269 6.1786 12.0016
v  6.4268 5.5187 12.0016
v  6.3852 6.1453 11.9624
v  6.3851 5.5520 11.9624
v  5.6019 6.1788 12.0610
v  5.6018 5.5188 12.0610
v  6.4269 6.1787 12.0604
v  6.3741 6.1259 12.0605
v  6.3740 5.5714 12.0605
v  5.6546 5.5715 12.0610
v  5.6547 6.1259 12.0610
v  6.4269 5.5186 12.0604
# 20 vertices

vn 0.0007 0.0000 1.0000
vn -0.6853 0.0001 -0.7283
vn 0.6846 -0.0001 -0.7289
vn 0.6843 -0.0001 -0.7292
vn 0.6846 -0.0001 -0.7290
vn -1.0000 0.0001 0.0009
vn -1.0000 0.0001 0.0007
vn 0.0001 1.0000 -0.0001
vn 0.0000 0.9686 -0.2486
vn -0.0001 0.9686 -0.2486
vn -0.0003 0.7615 -0.6482
vn -0.0510 -0.0517 0.9974
vn -0.2029 -0.2034 0.9578
vn -0.0511 0.0517 0.9974
vn -0.2025 0.2034 0.9579
vn 0.0524 0.0517 0.9973
vn 0.2042 0.2035 0.9576
vn 0.0524 -0.0517 0.9973
vn 0.2043 -0.2037 0.9575
vn 0.0008 0.0001 1.0000
vn 0.0006 0.0001 1.0000
vn 0.0006 0.0000 1.0000
vn -0.0005 -0.7612 -0.6485
vn -0.0005 -0.7615 -0.6481
vn -0.0003 -0.9686 -0.2486
vn -0.0003 -0.9686 -0.2484
vn -0.0001 -1.0000 -0.0000
vn 1.0000 -0.0001 -0.0009
vn 1.0000 -0.0001 -0.0007
# 29 vertex normals

vt 0.1372 0.1226 0.0000
vt 0.1372 0.1598 0.0000
vt 0.0205 0.1226 0.0000
vt 0.0205 0.1598 0.0000
vt 0.4714 0.1185 0.0000
vt 0.4714 0.1526 0.0000
vt 0.4624 0.1203 0.0000
vt 0.4624 0.1509 0.0000
vt 0.4715 0.1527 0.0000
vt 0.4715 0.1186 0.0000
vt 0.4624 0.1510 0.0000
vt 0.4842 0.1526 0.0000
vt 0.4842 0.1185 0.0000
vt 0.3875 0.1604 0.0000
vt 0.3747 0.1604 0.0000
vt 0.3875 0.1178 0.0000
vt 0.3747 0.1178 0.0000
vt 0.3662 0.1199 0.0000
vt 0.3662 0.1582 0.0000
vt 0.1450 0.1207 0.0000
vt 0.0127 0.1207 0.0000
vt 0.0127 0.1617 0.0000
vt 0.1450 0.1617 0.0000
vt 0.1576 0.1177 0.0000
vt 0.0001 0.1177 0.0000
vt 0.0001 0.1647 0.0000
vt 0.1576 0.1647 0.0000
vt 0.3747 0.1177 0.0000
vt 0.3874 0.1604 0.0000
vt 0.3874 0.1177 0.0000
vt 0.4842 0.1186 0.0000
vt 0.4842 0.1527 0.0000
# 32 texture coords

g Mesh_1570
usemtl Material__5073
s 81
f 45/73/46 46/74/46 47/75/46 
s 82
f 48/76/46 47/75/46 46/74/46 
s 123
f 49/77/47 50/78/47 51/79/47 
s 124
f 52/80/47 51/79/47 50/78/47 
s 125
f 53/81/48 54/82/49 55/83/50 
s 126
f 56/79/49 55/83/50 54/82/49 
s 127
f 57/84/51 50/78/51 58/85/51 
s 128
f 49/77/52 58/85/52 50/78/52 
s 129
f 59/86/53 53/87/54 57/88/53 
s 130
f 50/89/55 57/88/53 53/87/54 
s 131
f 50/89/55 53/87/54 52/90/56 
s 132
f 55/91/56 52/90/56 53/87/54 
s 141
f 60/92/57 45/73/58 61/93/59 
s 142
f 47/75/60 61/93/59 45/73/58 
s 143
f 61/93/59 47/75/60 62/94/61 
s 144
f 48/76/62 62/94/61 47/75/60 
s 145
f 62/94/61 48/76/62 63/95/63 
s 146
f 46/74/64 63/95/63 48/76/62 
s 147
f 59/96/65 60/92/57 64/97/66 
s 148
f 61/93/59 64/97/66 60/92/57 
s 149
f 64/97/66 61/93/59 58/98/67 
s 150
f 62/94/61 58/98/67 61/93/59 
s 151
f 58/98/67 62/94/61 57/99/66 
s 152
f 63/95/63 57/99/66 62/94/61 
s 153
f 57/99/66 63/95/63 59/96/65 
s 154
f 60/92/57 59/96/65 63/95/63 
s 155
f 63/95/63 46/74/64 60/92/57 
s 156
f 45/73/58 60/92/57 46/74/64 
s 175
f 51/90/68 56/91/69 49/100/70 
s 176
f 54/87/71 49/100/70 56/91/69 
s 177
f 54/87/71 64/101/72 49/100/70 
s 178
f 58/102/72 49/100/70 64/101/72 
s 181
f 64/103/73 54/82/73 59/104/74 
s 182
f 53/81/74 59/104/74 54/82/73 
# 0 polygons - 34 triangles

#
# object Mesh_1571
#

v  -18.4310 0.0000 -4.6799
v  -18.4310 2.1280 -4.6799
v  -18.4310 0.0000 -8.3279
v  -18.4310 2.1280 -8.3279
v  -17.7470 0.0000 -4.6799
v  -17.7470 2.1280 -4.6799
v  -17.7470 0.0000 -8.3279
v  -17.7470 2.1280 -8.3279
v  -17.7470 2.1280 -8.4039
v  -17.7470 2.1280 -4.6039
v  -18.5070 2.1280 -8.4039
v  -18.5070 2.1280 -4.6039
v  -18.5070 2.2040 -4.6039
v  -17.7470 2.2040 -4.6039
v  -18.5070 2.2040 -8.4039
v  -17.7470 2.2040 -8.4039
v  -17.7514 1.4440 -5.2803
v  -17.7514 1.4440 -4.9248
v  -17.8540 1.4440 -5.2803
v  -17.8540 1.4440 -4.9248
v  -17.7636 3.9520 -4.9885
v  -17.7636 0.3040 -4.9885
v  -17.8016 3.9520 -5.0265
v  -17.8016 0.3040 -5.0265
v  -17.8396 3.9520 -4.9885
v  -17.8396 0.3040 -4.9885
v  -17.8016 3.9520 -4.9505
v  -17.8016 0.3040 -4.9505
v  -17.7636 0.3040 -5.1025
v  -17.7636 3.9520 -5.1025
v  -17.8016 0.3040 -5.0645
v  -17.8016 3.9520 -5.0645
v  -17.8396 0.3040 -5.1025
v  -17.8396 3.9520 -5.1025
v  -17.8016 0.3040 -5.1405
v  -17.8016 3.9520 -5.1405
v  -17.8540 3.8760 -5.2803
v  -17.8540 3.9520 -5.2803
v  -17.7514 3.8760 -5.2803
v  -17.7514 3.9520 -5.2803
v  -17.7514 3.8760 -4.9248
v  -17.7514 3.9520 -4.9248
v  -17.8540 3.8760 -4.9248
v  -17.8540 3.9520 -4.9248
v  -17.8540 2.6600 -5.2803
v  -17.8540 2.7360 -5.2803
v  -17.7514 2.6600 -5.2803
v  -17.7514 2.7360 -5.2803
v  -17.7514 2.6600 -4.9248
v  -17.7514 2.7360 -4.9248
v  -17.8540 2.6600 -4.9248
v  -17.8540 2.7360 -4.9248
v  -17.8540 1.5200 -5.2803
v  -17.7514 1.5200 -5.2803
v  -17.7514 1.5200 -4.9248
v  -17.8540 1.5200 -4.9248
v  -17.7636 0.3040 -5.2165
v  -17.7636 3.9520 -5.2165
v  -17.8016 0.3040 -5.1785
v  -17.8016 3.9520 -5.1785
v  -17.8396 0.3040 -5.2165
v  -17.8396 3.9520 -5.2165
v  -17.8016 0.3040 -5.2545
v  -17.8016 3.9520 -5.2545
v  -18.0554 3.4200 -4.6465
v  -18.0554 4.3320 -4.6465
v  -18.0554 3.4200 -5.5585
v  -18.0554 4.3320 -5.5585
v  -17.7515 3.4200 -4.6465
v  -17.7515 3.4200 -5.5585
v  -17.7515 4.3320 -4.6465
v  -17.7515 4.3320 -5.5585
v  -18.0554 3.4200 -4.1145
v  -18.0554 4.3320 -4.1145
v  -18.0554 3.4200 -4.5705
v  -18.0554 4.3320 -4.5705
v  -17.7515 3.4200 -4.1145
v  -17.7515 3.4200 -4.5705
v  -17.7515 4.3320 -4.1145
v  -17.7515 4.3320 -4.5705
v  -18.0554 3.4200 -3.1265
v  -18.0554 4.3320 -3.1265
v  -18.0554 3.4200 -4.0385
v  -18.0554 4.3320 -4.0385
v  -17.7515 3.4200 -3.1265
v  -17.7515 3.4200 -4.0385
v  -17.7515 4.3320 -3.1265
v  -17.7515 4.3320 -4.0385
v  -18.0554 2.7740 -4.1145
v  -18.0554 3.3820 -4.1145
v  -18.0554 2.7740 -4.5705
v  -18.0554 3.3820 -4.5705
v  -17.7515 2.7740 -4.1145
v  -17.7515 2.7740 -4.5705
v  -17.7515 3.3820 -4.1145
v  -17.7515 3.3820 -4.5705
v  -17.8540 3.7734 -5.6352
v  -17.8540 3.7734 -5.5592
v  -17.8540 4.1289 -5.6352
v  -17.8540 4.1289 -5.5592
v  -17.7732 4.1110 -5.7943
v  -17.7668 4.1051 -5.7968
v  -17.7826 4.2573 -5.9963
v  -17.7699 4.2484 -6.0053
v  -17.7731 4.4620 -6.1447
v  -17.7636 4.1022 -5.7980
v  -17.7636 4.0512 -5.5587
v  -17.7921 4.1284 -5.7870
v  -17.8016 4.2708 -5.9830
v  -17.8016 4.4729 -6.1184
v  -17.8111 4.4693 -6.1271
v  -17.7636 4.2439 -6.0098
v  -17.7636 4.4584 -6.1534
v  -17.7636 4.7114 -6.2039
v  -17.8016 4.7114 -6.1659
v  -17.8364 4.0992 -5.7992
v  -17.8396 4.1022 -5.7980
v  -17.8333 4.2394 -6.0143
v  -17.8396 4.2439 -6.0098
v  -17.8301 4.4547 -6.1622
v  -17.8396 4.4584 -6.1534
v  -17.8396 4.7114 -6.2039
v  -17.8016 4.7114 -6.2419
v  -17.8206 4.2573 -5.9964
v  -17.8300 4.1110 -5.7943
v  -17.8396 4.0512 -5.5587
v  -17.8300 4.0933 -5.8017
v  -17.8206 4.2304 -6.0232
v  -17.8112 4.0759 -5.8089
v  -17.8016 4.2170 -6.0366
v  -17.8112 4.1284 -5.7871
v  -17.8079 4.2663 -5.9874
v  -17.8048 4.1343 -5.7846
v  -17.8016 4.0892 -5.5587
v  -17.8016 4.1372 -5.7834
v  -17.8016 4.0132 -5.5587
v  -17.7984 4.0701 -5.8114
v  -17.7920 4.0760 -5.8089
v  -17.8016 4.0671 -5.8126
v  -17.7953 4.2214 -6.0321
v  -17.7825 4.2304 -6.0232
v  -17.7732 4.0933 -5.8017
v  -17.7921 4.4474 -6.1798
v  -17.8016 4.4438 -6.1885
v  -17.7515 3.7734 -5.5592
v  -17.7515 4.1289 -5.5592
v  -17.7515 4.1289 -5.6352
v  -17.7515 3.7734 -5.6352
v  -17.8540 4.3190 -5.9908
v  -17.8540 4.2653 -5.9370
v  -17.7515 4.3190 -5.9908
v  -17.7515 4.2653 -5.9370
v  -17.7515 4.0677 -6.2421
v  -17.7515 4.0140 -6.1884
v  -17.8540 4.0677 -6.2421
v  -17.8540 4.0140 -6.1884
v  -17.7636 3.8232 -5.5587
v  -17.7636 3.8918 -5.8858
v  -17.7668 3.8947 -5.8846
v  -17.7699 4.0869 -6.1663
v  -17.7636 4.0824 -6.1708
v  -17.8016 4.1093 -6.1439
v  -17.8016 3.9268 -5.8712
v  -17.7921 3.9180 -5.8749
v  -17.8016 3.8612 -5.5587
v  -17.7732 3.9006 -5.8821
v  -17.7826 4.0959 -6.1573
v  -17.7731 4.3746 -6.3552
v  -17.7636 4.3710 -6.3640
v  -17.8016 4.3855 -6.3289
v  -17.7636 4.7114 -6.4318
v  -17.8016 4.7114 -6.3939
v  -17.8111 4.3819 -6.3377
v  -17.8300 3.8829 -5.8895
v  -17.8364 3.8888 -5.8871
v  -17.8206 4.0689 -6.1842
v  -17.8333 4.0779 -6.1752
v  -17.8301 4.3673 -6.3728
v  -17.8396 4.0824 -6.1708
v  -17.8396 4.3710 -6.3640
v  -17.8206 4.0958 -6.1574
v  -17.8079 4.1048 -6.1484
v  -17.8016 4.3564 -6.3991
v  -17.8016 4.7114 -6.4699
v  -17.8396 4.7114 -6.4318
v  -17.7921 4.3601 -6.3903
v  -17.8016 4.0555 -6.1976
v  -17.8112 3.8655 -5.8968
v  -17.8016 3.8567 -5.9005
v  -17.7953 4.0600 -6.1931
v  -17.7825 4.0690 -6.1841
v  -17.7732 3.8829 -5.8895
v  -17.8016 3.7852 -5.5587
v  -17.7920 3.8656 -5.8968
v  -17.7984 3.8596 -5.8992
v  -17.8396 3.8232 -5.5587
v  -17.8396 3.8918 -5.8858
v  -17.8300 3.9006 -5.8821
v  -17.8112 3.9180 -5.8749
v  -17.8048 3.9239 -5.8724
v  -17.7920 3.9708 -5.8528
v  -17.7825 4.1497 -6.1037
v  -17.7732 3.9881 -5.8456
v  -17.7984 3.9648 -5.8553
v  -17.8016 3.8992 -5.5587
v  -17.7636 3.9372 -5.5587
v  -17.7636 3.9970 -5.8419
v  -17.7636 4.1631 -6.0903
v  -17.7636 4.4147 -6.2587
v  -17.7953 4.1407 -6.1126
v  -17.7921 4.4038 -6.2850
v  -17.7636 4.7114 -6.3179
v  -17.8016 4.7114 -6.3559
v  -17.8016 4.4001 -6.2938
v  -17.8301 4.4110 -6.2675
v  -17.8206 4.1497 -6.1037
v  -17.8333 4.1586 -6.0947
v  -17.8396 4.1631 -6.0903
v  -17.8016 3.9619 -5.8565
v  -17.8016 4.1362 -6.1171
v  -17.8112 3.9707 -5.8529
v  -17.8396 3.9970 -5.8419
v  -17.8364 3.9940 -5.8431
v  -17.8300 3.9881 -5.8456
v  -17.8396 3.9372 -5.5587
v  -17.8300 4.0058 -5.8382
v  -17.8016 3.9752 -5.5587
v  -17.8112 4.0232 -5.8310
v  -17.8016 4.4292 -6.2236
v  -17.8016 4.1900 -6.0634
v  -17.7826 4.1766 -6.0768
v  -17.7921 4.0232 -5.8310
v  -17.8016 4.0320 -5.8273
v  -17.8048 4.0291 -5.8285
v  -17.8206 4.1766 -6.0769
v  -17.8396 4.4147 -6.2587
v  -17.8111 4.4256 -6.2324
v  -17.8079 4.1856 -6.0679
v  -17.8016 4.7114 -6.2798
v  -17.8396 4.7114 -6.3179
v  -17.7668 3.9999 -5.8407
v  -17.7732 4.0058 -5.8382
v  -17.7699 4.1676 -6.0858
v  -17.7731 4.4183 -6.2499
v  -17.7515 4.7709 -6.8600
v  -18.0554 4.7709 -6.8600
v  -17.7515 5.5651 -6.8600
v  -18.0554 5.5651 -6.8600
v  -18.1314 4.6740 -6.7365
v  -18.1314 4.6740 -6.6985
v  -18.1314 5.6620 -6.0145
v  -18.1314 4.6740 -6.6225
v  -18.1314 4.6740 -6.4325
v  -18.1314 4.5980 -6.6225
v  -18.1314 4.5980 -6.6985
v  -18.1314 5.6620 -6.6225
v  -18.1314 4.7500 -6.8885
v  -18.1314 4.6740 -6.8125
v  -18.1314 4.5980 -6.8125
v  -18.1314 4.5980 -6.7365
v  -18.1314 5.7380 -6.8125
v  -18.1314 5.6620 -6.8125
v  -18.1314 5.7380 -6.7365
v  -18.1314 5.6620 -6.7365
v  -18.1314 5.5860 -6.8885
v  -18.1314 5.6620 -6.6985
v  -18.1314 5.7380 -6.6225
v  -18.1314 5.7380 -6.6985
v  -18.1314 4.6360 -6.4325
v  -18.1314 4.6360 -6.2045
v  -18.1314 4.6740 -6.2045
v  -18.1314 4.6740 -6.0145
v  -18.1314 5.6620 -5.9385
v  -18.1314 4.6740 -5.9385
v  -18.1314 5.6620 -5.9005
v  -18.1314 4.6740 -5.9005
v  -18.1314 5.6620 -5.8245
v  -18.1314 5.5860 -5.7485
v  -18.1314 5.7380 -6.0145
v  -18.1314 5.7380 -5.9385
v  -18.1314 5.7380 -5.9005
v  -18.1314 5.7380 -5.8245
v  -18.1314 4.7500 -5.7485
v  -18.1314 4.6740 -5.8245
v  -18.1314 4.5980 -5.9005
v  -18.1314 4.5980 -5.8245
v  -17.7515 5.6373 -6.7878
v  -18.0554 5.6373 -6.7878
v  -17.7515 5.6373 -5.8492
v  -18.0554 5.6373 -5.8492
v  -17.7515 5.5651 -5.7770
v  -18.0554 5.5651 -5.7770
v  -18.1314 4.6360 -6.0905
v  -18.1314 4.4840 -6.0905
v  -18.1314 4.4840 -6.5465
v  -18.1314 4.6360 -6.5465
v  -18.1314 4.5980 -5.9385
v  -18.1314 4.5980 -6.0145
v  -18.0554 5.7380 -6.6225
v  -18.0554 5.6620 -6.6225
v  -18.0554 5.6620 -6.0145
v  -18.0554 5.7380 -6.0145
v  -18.0554 5.7380 -5.9385
v  -18.0554 5.6620 -5.9385
v  -18.0554 5.6620 -5.9005
v  -18.0554 5.7380 -5.9005
v  -18.0554 5.7380 -5.8245
v  -18.0554 5.6620 -5.8245
v  -18.0554 5.5860 -5.7485
v  -18.0554 4.7500 -5.7485
v  -18.0554 4.6740 -5.8245
v  -18.0554 4.5980 -5.8245
v  -18.0554 4.5980 -5.9005
v  -18.0554 4.6740 -5.9005
v  -18.0554 4.6740 -5.9385
v  -18.0554 4.5980 -5.9385
v  -18.0554 4.5980 -6.0145
v  -18.0554 4.6740 -6.0145
v  -18.0554 4.6740 -6.2045
v  -18.0554 4.6360 -6.2045
v  -18.0554 4.6360 -6.0905
v  -18.0554 4.4840 -6.0905
v  -18.0554 4.4840 -6.5465
v  -18.0554 4.6360 -6.5465
v  -18.0554 4.6360 -6.4325
v  -18.0554 4.6740 -6.4325
v  -18.0554 4.6740 -6.6225
v  -18.0554 4.5980 -6.6225
v  -18.0554 4.5980 -6.6985
v  -18.0554 4.6740 -6.6985
v  -18.0554 4.6740 -6.7365
v  -18.0554 4.5980 -6.7365
v  -18.0554 4.5980 -6.8125
v  -18.0554 4.6740 -6.8125
v  -18.0554 4.7500 -6.8885
v  -18.0554 5.5860 -6.8885
v  -18.0554 5.6620 -6.8125
v  -18.0554 5.7380 -6.8125
v  -18.0554 5.7380 -6.7365
v  -18.0554 5.6620 -6.7365
v  -18.0554 5.6620 -6.6985
v  -18.0554 5.7380 -6.6985
v  -17.7515 4.7709 -5.7770
v  -18.0554 4.7709 -5.7770
v  -17.7515 4.6987 -5.8492
v  -18.0554 4.6987 -5.8492
v  -17.7515 4.6987 -6.7878
v  -18.0554 4.6987 -6.7878
# 348 vertices

vn -0.7801 0.0000 0.6257
vn -1.0000 0.0000 -0.0000
vn -0.3187 0.0000 -0.9479
vn -0.7071 0.0000 -0.7071
vn 0.0000 0.0000 1.0000
vn 0.0000 0.0000 -1.0000
vn 0.0000 -0.9980 -0.0633
vn 0.0000 -0.7071 0.7071
vn -0.5774 -0.5773 -0.5773
vn -0.5774 -0.5774 0.5774
vn -0.5774 0.5773 0.5773
vn 0.0000 0.7071 0.7071
vn -0.5896 0.5896 -0.5521
vn 0.0000 1.0000 -0.0000
vn 0.0000 -0.7071 -0.7071
vn 0.0000 -0.1761 0.9844
vn -0.5774 -0.5774 -0.5774
vn 0.0000 -1.0000 -0.0000
vn 1.0000 0.0000 -0.0000
vn 0.7137 0.0000 0.7004
vn 0.7071 0.0000 -0.7071
vn -0.7137 0.0000 -0.7004
vn -0.7071 0.0000 0.7071
vn -0.7137 0.0000 0.7004
vn -0.5774 0.5774 -0.5774
vn 0.0000 0.7071 -0.7071
vn -0.5774 0.5774 0.5774
vn 0.0000 -0.2006 -0.9797
vn 0.0000 0.2006 0.9797
vn -0.7071 -0.7071 -0.0000
vn 0.0000 -0.9797 0.2006
vn 0.7071 0.6514 0.2751
vn 0.7018 0.6389 0.3151
vn 0.7061 0.5011 0.5003
vn 0.7085 0.4991 0.4990
vn 0.7053 0.2718 0.6547
vn 0.9968 -0.0731 -0.0314
vn 0.9954 -0.0937 -0.0197
vn 0.7010 0.6975 0.1485
vn 0.7069 0.6516 0.2753
vn -0.0004 0.7066 0.7077
vn 0.0021 0.3835 0.9235
vn -0.7055 0.2717 0.6545
vn 0.9953 -0.0671 -0.0698
vn 0.6970 0.3989 0.5959
vn 0.9964 -0.0325 -0.0784
vn 0.9960 -0.0175 -0.0879
vn 0.0001 0.1955 0.9807
vn -0.7088 -0.6500 -0.2741
vn -0.9967 -0.0743 -0.0325
vn -0.7081 -0.4993 -0.4994
vn -0.9965 -0.0595 -0.0595
vn -0.7077 -0.2710 -0.6525
vn -0.9963 -0.0329 -0.0798
vn -0.9960 -0.0175 -0.0880
vn 0.0000 -0.1955 -0.9807
vn -0.7070 0.5002 0.5000
vn -0.7062 0.6522 0.2756
vn -0.9954 -0.0936 -0.0195
vn -0.7076 -0.6508 -0.2753
vn -0.7061 -0.5009 -0.5005
vn -0.7062 -0.6522 -0.2753
vn 0.0003 -0.7070 -0.7072
vn -0.7076 0.6507 0.2756
vn -0.7073 0.5001 0.4996
vn -0.7042 0.6540 0.2763
vn -0.0001 0.9780 0.2085
vn 0.0054 0.9207 0.3903
vn 0.0001 -0.9782 -0.2078
vn 0.7090 -0.6495 -0.2748
vn 0.7068 -0.6519 -0.2748
vn 0.0034 -0.9216 -0.3882
vn 0.7051 -0.5020 -0.5008
vn 0.7060 -0.5008 -0.5007
vn 0.7071 -0.6514 -0.2751
vn 0.7059 -0.2716 -0.6541
vn -0.0018 -0.3834 -0.9236
vn -0.5774 0.8165 -0.0004
vn -0.5773 0.0003 0.8165
vn 0.0000 1.0000 -0.0005
vn 0.0000 0.0004 1.0000
vn 0.0000 -1.0000 -0.0001
vn -0.5773 0.0000 -0.8165
vn -0.5774 -0.8165 -0.0001
vn 0.9955 -0.0923 -0.0192
vn 0.9968 -0.0739 -0.0314
vn 0.7036 0.6548 0.2759
vn 0.7094 0.4985 0.4982
vn 0.9959 -0.0634 -0.0638
vn -0.0035 0.7072 0.7070
vn 0.0065 0.9216 0.3880
vn 0.7071 0.6516 0.2745
vn 0.0000 0.9787 0.2052
vn 0.7067 0.6522 0.2741
vn 0.7071 0.5001 0.4999
vn 0.7071 0.2712 0.6530
vn 0.9961 -0.0341 -0.0816
vn -0.0006 0.3837 0.9234
vn 0.9961 -0.0174 -0.0867
vn 0.0000 0.1955 0.9807
vn -0.7070 0.2709 0.6532
vn -0.7070 -0.6520 -0.2739
vn -0.7096 -0.6492 -0.2738
vn -0.7070 -0.5002 -0.5000
vn -0.7074 -0.5002 -0.4995
vn -0.7077 -0.2709 -0.6525
vn -0.9962 -0.0613 -0.0620
vn -0.9963 -0.0329 -0.0799
vn -0.7092 0.4986 0.4985
vn 0.0013 -0.3835 -0.9235
vn 0.0001 -0.1955 -0.9807
vn -0.9961 -0.0172 -0.0866
vn 0.7079 -0.2706 -0.6525
vn 0.0029 -0.7072 -0.7070
vn -0.7066 -0.6523 -0.2743
vn -0.0004 -0.9215 -0.3884
vn 0.7081 -0.4994 -0.4992
vn 0.7059 -0.5010 -0.5007
vn 0.7075 -0.6515 -0.2738
vn 0.0001 -0.9788 -0.2049
vn 0.7087 -0.6502 -0.2740
vn 0.7072 -0.6523 -0.2728
vn -0.9956 -0.0922 -0.0191
vn -0.9969 -0.0726 -0.0301
vn -0.7062 0.6527 0.2744
vn -0.7076 0.6512 0.2743
vn -0.7042 0.6545 0.2751
vn 0.7095 -0.6495 -0.2733
vn 0.7054 -0.5011 -0.5013
vn 0.7071 -0.6516 -0.2745
vn 0.7057 -0.6529 -0.2750
vn 0.0001 -0.9785 -0.2061
vn 0.9917 -0.1255 -0.0263
vn 0.9968 -0.0735 -0.0314
vn 0.9960 -0.0629 -0.0630
vn 0.9961 -0.0340 -0.0815
vn 0.7072 -0.5001 -0.4997
vn 0.7078 -0.2706 -0.6525
vn 0.9959 -0.0177 -0.0886
vn 0.0000 -0.1957 -0.9807
vn 0.0013 -0.3836 -0.9235
vn -0.7076 -0.2710 -0.6525
vn -0.7068 -0.5001 -0.5003
vn -0.7063 -0.5011 -0.5001
vn -0.9961 -0.0618 -0.0626
vn -0.0022 -0.9218 -0.3876
vn 0.0021 -0.7073 -0.7069
vn -0.7058 -0.6527 -0.2753
vn -0.9967 -0.0747 -0.0326
vn -0.7088 -0.6502 -0.2735
vn -0.7080 -0.6507 -0.2744
vn -0.9955 -0.0928 -0.0192
vn -0.7062 0.6524 0.2749
vn 0.0000 0.9784 0.2066
vn -0.7076 0.6510 0.2749
vn -0.0006 0.3836 0.9235
vn -0.0004 0.7076 0.7066
vn 0.7071 0.5001 0.5000
vn 0.7071 0.6514 0.2749
vn 0.0065 0.9213 0.3888
vn -0.7042 0.6543 0.2756
vn -0.7077 0.4996 0.4996
vn -0.9963 -0.0328 -0.0798
vn -0.7071 0.2710 0.6532
vn -0.7074 0.4997 0.4999
vn -0.0001 0.1955 0.9807
vn -0.9959 -0.0177 -0.0885
vn 0.7036 0.6547 0.2763
vn 0.7067 0.6520 0.2746
vn 0.7072 0.2712 0.6530
vn 0.6997 0.6990 0.1475
vn 0.0000 -0.3827 -0.9239
vn 0.0000 0.3827 -0.9239
vn 0.0000 -0.6012 -0.7991
vn -0.9045 -0.3015 0.3015
vn -0.9045 -0.3015 -0.3015
vn -0.9045 0.3015 -0.3015
vn -0.6303 -0.2971 -0.7173
vn -0.8042 -0.2275 -0.5491
vn -0.8727 0.2468 -0.4214
vn -0.9045 0.3015 0.3015
vn -0.6303 0.2971 -0.7173
vn -0.7895 0.4340 0.4340
vn -0.9370 0.3123 -0.1562
vn -0.8042 0.2275 0.5491
vn -0.6303 0.2971 0.7173
vn -0.6303 -0.2971 0.7173
vn -0.8042 -0.2275 0.5491
vn 0.0000 0.9239 -0.3827
vn 0.0000 0.9239 0.3827
vn 0.0000 0.3827 0.9239
vn 0.0000 -0.3827 0.9239
vn 0.0000 -0.9239 0.3827
vn 0.0000 -0.9239 -0.3827
# 194 vertex normals

vt 0.2368 0.0124 0.0000
vt 0.2368 0.0588 0.0000
vt -0.0009 0.0124 0.0000
vt -0.0009 0.0588 0.0000
vt 0.0127 0.0125 0.0000
vt 0.0127 0.0520 0.0000
vt 0.0595 0.0125 0.0000
vt 0.0595 0.0520 0.0000
vt 0.2368 0.0000 0.0000
vt 0.0000 0.0000 0.0000
vt 0.2368 0.0122 0.0000
vt 0.0000 0.0122 0.0000
vt 0.2333 0.0006 0.0000
vt 0.2486 0.0004 0.0000
vt 0.2333 0.0590 0.0000
vt 0.2486 0.0587 0.0000
vt 0.2358 0.0266 0.0000
vt 0.2465 0.0266 0.0000
vt 0.2358 0.0589 0.0000
vt 0.2465 0.0589 0.0000
vt 0.7485 0.1301 0.0000
vt 0.6882 0.1301 0.0000
vt 0.7485 0.1228 0.0000
vt 0.6882 0.1228 0.0000
vt 0.7446 0.1179 0.0000
vt 0.7446 0.1766 0.0000
vt 0.7387 0.1179 0.0000
vt 0.7387 0.1766 0.0000
vt 0.7327 0.1179 0.0000
vt 0.7327 0.1766 0.0000
vt 0.7267 0.1179 0.0000
vt 0.7267 0.1766 0.0000
vt 0.7207 0.1179 0.0000
vt 0.7207 0.1766 0.0000
vt 0.7201 0.1179 0.0000
vt 0.7201 0.1765 0.0000
vt 0.7142 0.1179 0.0000
vt 0.7142 0.1765 0.0000
vt 0.7082 0.1179 0.0000
vt 0.7082 0.1765 0.0000
vt 0.7022 0.1179 0.0000
vt 0.7022 0.1765 0.0000
vt 0.6962 0.1179 0.0000
vt 0.6962 0.1765 0.0000
vt 0.6692 0.1741 0.0000
vt 0.6692 0.1760 0.0000
vt 0.6590 0.1741 0.0000
vt 0.6590 0.1760 0.0000
vt 0.5726 0.1583 0.0000
vt 0.5726 0.1602 0.0000
vt 0.5374 0.1583 0.0000
vt 0.5374 0.1602 0.0000
vt 0.5460 0.1580 0.0000
vt 0.5460 0.1602 0.0000
vt 0.5043 0.1580 0.0000
vt 0.5043 0.1602 0.0000
vt 0.6716 0.1763 0.0000
vt 0.6565 0.1763 0.0000
vt 0.6716 0.1738 0.0000
vt 0.6565 0.1738 0.0000
vt 0.7244 0.1682 0.0000
vt 0.7244 0.1755 0.0000
vt 0.6943 0.1682 0.0000
vt 0.6943 0.1755 0.0000
vt 0.5537 0.1682 0.0000
vt 0.5537 0.1755 0.0000
vt 0.5236 0.1682 0.0000
vt 0.5236 0.1755 0.0000
vt 0.5599 0.1682 0.0000
vt 0.5599 0.1755 0.0000
vt 0.4995 0.1682 0.0000
vt 0.4995 0.1755 0.0000
vt 0.6726 0.1764 0.0000
vt 0.6726 0.1179 0.0000
vt 0.6786 0.1764 0.0000
vt 0.6786 0.1179 0.0000
vt 0.6846 0.1764 0.0000
vt 0.6846 0.1179 0.0000
vt 0.6906 0.1764 0.0000
vt 0.6906 0.1179 0.0000
vt 0.6965 0.1764 0.0000
vt 0.6965 0.1179 0.0000
vt 0.8445 0.1543 0.0000
vt 0.8445 0.1766 0.0000
vt 0.7563 0.1543 0.0000
vt 0.7563 0.1766 0.0000
vt 0.9485 0.1766 0.0000
vt 0.9996 0.1766 0.0000
vt 0.9485 0.1547 0.0000
vt 0.9996 0.1547 0.0000
vt 0.9996 0.1548 0.0000
vt 0.9481 0.1548 0.0000
vt 0.9481 0.1766 0.0000
vt 0.9996 0.1767 0.0000
vt 0.9476 0.1548 0.0000
vt 0.9476 0.1767 0.0000
vt 0.9384 0.1545 0.0000
vt 0.9384 0.1768 0.0000
vt 0.8506 0.1545 0.0000
vt 0.8506 0.1768 0.0000
vt 0.9999 0.1379 0.0000
vt 0.9999 0.1533 0.0000
vt 0.9392 0.1379 0.0000
vt 0.9392 0.1533 0.0000
vt 0.6950 0.1326 0.0000
vt 0.6960 0.1326 0.0000
vt 0.6935 0.1471 0.0000
vt 0.6955 0.1471 0.0000
vt 0.6950 0.1618 0.0000
vt 0.6965 0.1326 0.0000
vt 0.6921 0.1326 0.0000
vt 0.6906 0.1471 0.0000
vt 0.6906 0.1618 0.0000
vt 0.6891 0.1618 0.0000
vt 0.6965 0.1471 0.0000
vt 0.6965 0.1618 0.0000
vt 0.6841 0.1326 0.0000
vt 0.6846 0.1326 0.0000
vt 0.6836 0.1471 0.0000
vt 0.6846 0.1471 0.0000
vt 0.6831 0.1618 0.0000
vt 0.6846 0.1618 0.0000
vt 0.6876 0.1471 0.0000
vt 0.6861 0.1326 0.0000
vt 0.6831 0.1326 0.0000
vt 0.6816 0.1471 0.0000
vt 0.6801 0.1326 0.0000
vt 0.6786 0.1471 0.0000
vt 0.6890 0.1326 0.0000
vt 0.6896 0.1471 0.0000
vt 0.6901 0.1326 0.0000
vt 0.6906 0.1326 0.0000
vt 0.6781 0.1326 0.0000
vt 0.6771 0.1326 0.0000
vt 0.6786 0.1326 0.0000
vt 0.6776 0.1471 0.0000
vt 0.6756 0.1471 0.0000
vt 0.6741 0.1326 0.0000
vt 0.6726 0.1326 0.0000
vt 0.6726 0.1471 0.0000
vt 0.6771 0.1618 0.0000
vt 0.6786 0.1618 0.0000
vt 0.6726 0.1618 0.0000
vt 0.7446 0.1327 0.0000
vt 0.7441 0.1327 0.0000
vt 0.7436 0.1472 0.0000
vt 0.7446 0.1472 0.0000
vt 0.7387 0.1472 0.0000
vt 0.7387 0.1327 0.0000
vt 0.7402 0.1327 0.0000
vt 0.7431 0.1327 0.0000
vt 0.7416 0.1472 0.0000
vt 0.7431 0.1619 0.0000
vt 0.7446 0.1619 0.0000
vt 0.7387 0.1619 0.0000
vt 0.7372 0.1619 0.0000
vt 0.7312 0.1327 0.0000
vt 0.7322 0.1327 0.0000
vt 0.7297 0.1472 0.0000
vt 0.7317 0.1472 0.0000
vt 0.7312 0.1619 0.0000
vt 0.7327 0.1472 0.0000
vt 0.7327 0.1619 0.0000
vt 0.7357 0.1472 0.0000
vt 0.7377 0.1472 0.0000
vt 0.7267 0.1619 0.0000
vt 0.7207 0.1619 0.0000
vt 0.7252 0.1619 0.0000
vt 0.7267 0.1472 0.0000
vt 0.7282 0.1327 0.0000
vt 0.7267 0.1327 0.0000
vt 0.7257 0.1472 0.0000
vt 0.7237 0.1472 0.0000
vt 0.7207 0.1472 0.0000
vt 0.7222 0.1327 0.0000
vt 0.7207 0.1327 0.0000
vt 0.7252 0.1327 0.0000
vt 0.7262 0.1327 0.0000
vt 0.7327 0.1327 0.0000
vt 0.7342 0.1327 0.0000
vt 0.7371 0.1327 0.0000
vt 0.7382 0.1327 0.0000
vt 0.7157 0.1618 0.0000
vt 0.7172 0.1473 0.0000
vt 0.7186 0.1618 0.0000
vt 0.7147 0.1618 0.0000
vt 0.7201 0.1618 0.0000
vt 0.7201 0.1473 0.0000
vt 0.7201 0.1326 0.0000
vt 0.7152 0.1473 0.0000
vt 0.7157 0.1326 0.0000
vt 0.7142 0.1326 0.0000
vt 0.7097 0.1326 0.0000
vt 0.7112 0.1473 0.0000
vt 0.7092 0.1473 0.0000
vt 0.7082 0.1473 0.0000
vt 0.7142 0.1618 0.0000
vt 0.7142 0.1473 0.0000
vt 0.7127 0.1618 0.0000
vt 0.7082 0.1618 0.0000
vt 0.7087 0.1618 0.0000
vt 0.7097 0.1618 0.0000
vt 0.7067 0.1618 0.0000
vt 0.7037 0.1618 0.0000
vt 0.7022 0.1326 0.0000
vt 0.7022 0.1473 0.0000
vt 0.6992 0.1473 0.0000
vt 0.7007 0.1618 0.0000
vt 0.7022 0.1618 0.0000
vt 0.7027 0.1618 0.0000
vt 0.7052 0.1473 0.0000
vt 0.7082 0.1326 0.0000
vt 0.7037 0.1326 0.0000
vt 0.7032 0.1473 0.0000
vt 0.6967 0.1618 0.0000
vt 0.6977 0.1618 0.0000
vt 0.6962 0.1618 0.0000
vt 0.6972 0.1473 0.0000
vt 0.6962 0.1473 0.0000
vt 0.6977 0.1326 0.0000
vt 0.6962 0.1326 0.0000
vt 0.7615 0.1284 0.0000
vt 0.8088 0.1284 0.0000
vt 0.7615 0.1488 0.0000
vt 0.8088 0.1488 0.0000
vt 0.7783 0.1257 0.0000
vt 0.7824 0.1257 0.0000
vt 0.8570 0.1510 0.0000
vt 0.7907 0.1257 0.0000
vt 0.8114 0.1257 0.0000
vt 0.7907 0.1237 0.0000
vt 0.7824 0.1237 0.0000
vt 0.7907 0.1510 0.0000
vt 0.7617 0.1276 0.0000
vt 0.7700 0.1257 0.0000
vt 0.7700 0.1237 0.0000
vt 0.7783 0.1237 0.0000
vt 0.7700 0.1529 0.0000
vt 0.7700 0.1510 0.0000
vt 0.7783 0.1529 0.0000
vt 0.7783 0.1510 0.0000
vt 0.7617 0.1490 0.0000
vt 0.7824 0.1510 0.0000
vt 0.7907 0.1529 0.0000
vt 0.7824 0.1529 0.0000
vt 0.8114 0.1247 0.0000
vt 0.8363 0.1247 0.0000
vt 0.8363 0.1257 0.0000
vt 0.8570 0.1257 0.0000
vt 0.8653 0.1510 0.0000
vt 0.8653 0.1257 0.0000
vt 0.8695 0.1510 0.0000
vt 0.8695 0.1257 0.0000
vt 0.8778 0.1510 0.0000
vt 0.8861 0.1490 0.0000
vt 0.8570 0.1529 0.0000
vt 0.8653 0.1529 0.0000
vt 0.8695 0.1529 0.0000
vt 0.8778 0.1529 0.0000
vt 0.8861 0.1276 0.0000
vt 0.8778 0.1257 0.0000
vt 0.8695 0.1237 0.0000
vt 0.8778 0.1237 0.0000
vt 0.7683 0.1506 0.0000
vt 0.8088 0.1506 0.0000
vt 0.7956 0.1442 0.0000
vt 0.7956 0.1508 0.0000
vt 0.8511 0.1442 0.0000
vt 0.8511 0.1508 0.0000
vt 0.8487 0.1247 0.0000
vt 0.8487 0.1208 0.0000
vt 0.7990 0.1208 0.0000
vt 0.7990 0.1247 0.0000
vt 0.8653 0.1237 0.0000
vt 0.8570 0.1237 0.0000
vt 0.9552 0.1761 0.0000
vt 0.9703 0.1761 0.0000
vt 0.9552 0.1740 0.0000
vt 0.9703 0.1740 0.0000
vt 0.9665 0.1592 0.0000
vt 0.9757 0.1592 0.0000
vt 0.9665 0.1724 0.0000
vt 0.9757 0.1724 0.0000
vt 0.9665 0.1740 0.0000
vt 0.9757 0.1740 0.0000
vt 0.9665 0.1748 0.0000
vt 0.9757 0.1748 0.0000
vt 0.9665 0.1765 0.0000
vt 0.9757 0.1765 0.0000
vt 0.9544 0.1765 0.0000
vt 0.9813 0.1765 0.0000
vt 0.9544 0.1751 0.0000
vt 0.9813 0.1751 0.0000
vt 0.9544 0.1737 0.0000
vt 0.9813 0.1737 0.0000
vt 0.9544 0.1580 0.0000
vt 0.9813 0.1580 0.0000
vt 0.9544 0.1566 0.0000
vt 0.9813 0.1566 0.0000
vt 0.9544 0.1552 0.0000
vt 0.9813 0.1552 0.0000
vt 0.9552 0.1440 0.0000
vt 0.9703 0.1440 0.0000
vt 0.9552 0.1461 0.0000
vt 0.9703 0.1461 0.0000
vt 0.9665 0.1682 0.0000
vt 0.9757 0.1682 0.0000
vt 0.9552 0.1451 0.0000
vt 0.9703 0.1451 0.0000
vt 0.9665 0.1707 0.0000
vt 0.9757 0.1707 0.0000
vt 0.9552 0.1408 0.0000
vt 0.9703 0.1408 0.0000
vt 0.9665 0.1608 0.0000
vt 0.9757 0.1608 0.0000
vt 0.9665 0.1633 0.0000
vt 0.9757 0.1633 0.0000
vt 0.9665 0.1576 0.0000
vt 0.9757 0.1576 0.0000
vt 0.9665 0.1567 0.0000
vt 0.9757 0.1567 0.0000
vt 0.9665 0.1551 0.0000
vt 0.9757 0.1551 0.0000
vt 0.9495 0.1558 0.0000
vt 0.9686 0.1558 0.0000
vt 0.9495 0.1572 0.0000
vt 0.9686 0.1572 0.0000
vt 0.9495 0.1586 0.0000
vt 0.9686 0.1586 0.0000
vt 0.9495 0.1738 0.0000
vt 0.9686 0.1738 0.0000
vt 0.9495 0.1751 0.0000
vt 0.9686 0.1751 0.0000
vt 0.9495 0.1765 0.0000
vt 0.9686 0.1765 0.0000
vt 0.7674 0.1262 0.0000
vt 0.8088 0.1262 0.0000
# 337 texture coords

g Mesh_1571
usemtl Material__5073
s 1
f 65/105/75 66/106/76 67/107/77 
s 2
f 68/108/78 67/107/76 66/106/76 
s 3
f 69/109/79 70/110/79 65/111/75 
s 4
f 66/112/79 65/111/79 70/110/79 
s 5
f 67/111/77 68/112/78 71/109/80 
s 6
f 72/110/80 71/109/80 68/112/78 
s 7
f 73/113/81 74/114/82 75/115/83 
s 8
f 76/116/84 75/115/83 74/114/82 
s 9
f 77/116/85 78/114/86 79/115/87 
s 10
f 80/113/88 79/115/87 78/114/86 
s 11
f 76/117/84 77/118/85 75/119/83 
s 12
f 79/120/87 75/119/83 77/118/85 
s 13
f 74/121/82 78/122/86 76/123/84 
s 14
f 77/124/85 76/123/84 78/122/86 
s 15
f 75/123/83 79/124/87 73/121/81 
s 16
f 80/122/80 73/121/80 79/124/80 
s 1
f 81/125/89 82/126/90 83/127/91 
s 2
f 84/128/84 83/127/91 82/126/92 
s 3
f 85/129/93 86/130/94 87/131/80 
s 4
f 88/132/80 87/131/80 86/130/95 
s 5
f 87/131/80 88/132/80 89/133/76 
s 6
f 90/134/96 89/133/76 88/132/80 
s 7
f 89/133/76 90/134/96 91/135/79 
s 8
f 92/136/79 91/135/79 90/134/97 
s 9
f 91/135/79 92/136/79 85/137/93 
s 10
f 86/138/94 85/137/93 92/136/79 
s 11
f 93/139/93 94/140/93 95/141/79 
s 12
f 96/142/79 95/141/79 94/140/93 
s 13
f 95/141/79 96/142/79 97/143/76 
s 14
f 98/144/98 97/143/76 96/142/79 
s 15
f 97/143/76 98/144/98 99/145/80 
s 16
f 100/146/80 99/145/80 98/144/78 
s 17
f 99/145/80 100/146/80 93/147/93 
s 18
f 94/148/93 93/147/93 100/146/80 
s 19
f 101/149/91 102/150/99 103/151/89 
s 20
f 104/152/100 103/151/89 102/150/99 
s 21
f 105/149/82 106/150/86 107/151/84 
s 22
f 108/152/101 107/151/84 106/150/86 
s 23
f 107/153/84 108/154/101 101/155/91 
s 24
f 102/156/99 101/155/91 108/154/101 
s 25
f 108/157/101 106/158/86 102/159/99 
s 26
f 104/160/100 102/159/99 106/158/86 
s 27
f 103/161/89 105/162/82 101/163/91 
s 28
f 107/164/84 101/163/91 105/162/82 
s 29
f 109/165/91 110/166/99 111/167/89 
s 30
f 112/168/100 111/167/89 110/166/99 
s 31
f 113/169/82 114/170/86 115/171/84 
s 32
f 116/172/101 115/171/84 114/170/86 
s 33
f 115/173/84 116/174/101 109/175/91 
s 34
f 110/176/99 109/175/91 116/174/101 
s 35
f 116/157/101 114/158/86 110/159/99 
s 36
f 112/160/100 110/159/99 114/158/86 
s 37
f 111/125/89 113/126/82 109/127/91 
s 38
f 115/128/84 109/127/91 113/126/82 
s 39
f 83/165/91 117/166/99 81/167/89 
s 40
f 118/168/100 81/167/89 117/166/99 
s 41
f 82/169/90 119/170/86 84/171/84 
s 42
f 120/172/101 84/171/84 119/170/86 
s 43
f 84/173/84 120/174/101 83/175/91 
s 44
f 117/176/99 83/175/91 120/174/101 
s 45
f 120/157/101 119/158/86 117/159/99 
s 46
f 118/160/100 117/159/99 119/158/86 
s 47
f 121/177/93 122/178/93 123/179/79 
s 48
f 124/180/79 123/179/79 122/178/93 
s 49
f 123/179/79 124/180/79 125/181/76 
s 50
f 126/182/76 125/181/76 124/180/79 
s 51
f 125/181/76 126/182/76 127/183/80 
s 52
f 128/184/80 127/183/80 126/182/76 
s 53
f 127/183/80 128/184/80 121/185/93 
s 54
f 122/186/93 121/185/93 128/184/80 
s 1
f 129/187/84 130/188/97 131/189/78 
s 2
f 132/190/99 131/189/78 130/188/97 
s 3
f 133/191/82 129/192/84 134/193/102 
s 4
f 131/194/92 134/193/92 129/192/84 
s 5
f 135/195/103 130/196/97 133/192/82 
s 6
f 129/197/84 133/192/82 130/196/97 
s 7
f 136/193/100 132/194/99 135/191/103 
s 8
f 130/192/88 135/191/88 132/194/99 
s 9
f 134/192/102 131/197/78 136/195/100 
s 10
f 132/196/99 136/195/100 131/197/78 
s 11
f 137/195/104 138/198/101 139/199/91 
s 12
f 140/200/99 139/199/91 138/198/101 
s 13
f 141/191/105 137/192/104 142/193/89 
s 14
f 139/194/91 142/193/89 137/192/104 
s 15
f 143/195/86 138/196/101 141/192/105 
s 16
f 137/197/79 141/192/79 138/196/101 
s 17
f 144/193/100 140/194/99 143/191/86 
s 18
f 138/192/101 143/191/86 140/194/99 
s 19
f 142/192/89 139/197/91 144/195/100 
s 20
f 140/196/99 144/195/100 139/197/91 
s 21
f 145/201/84 146/202/101 147/203/91 
s 22
f 148/204/99 147/203/91 146/202/101 
s 23
f 149/191/82 145/192/84 150/193/89 
s 24
f 147/194/91 150/193/89 145/192/84 
s 25
f 151/195/86 146/196/101 149/192/82 
s 26
f 145/197/84 149/192/82 146/196/101 
s 27
f 152/193/100 148/194/99 151/191/86 
s 28
f 146/192/101 151/191/86 148/194/99 
s 29
f 150/192/89 147/197/91 152/195/100 
s 30
f 148/196/99 152/195/100 147/197/91 
s 31
f 153/205/84 154/206/101 155/207/91 
s 32
f 156/208/99 155/207/91 154/206/101 
s 33
f 157/191/82 153/192/84 158/193/89 
s 34
f 155/194/91 158/193/89 153/192/84 
s 35
f 159/195/86 154/196/101 157/192/82 
s 36
f 153/197/84 157/192/82 154/196/101 
s 37
f 160/193/100 156/194/99 159/191/86 
s 38
f 154/192/101 159/191/86 156/194/99 
s 39
f 158/192/89 155/197/91 160/195/100 
s 40
f 156/196/99 160/195/100 155/197/91 
s 1
f 161/173/91 162/174/84 163/175/99 
s 2
f 164/176/101 163/175/99 162/174/84 
s 3
f 165/209/106 166/210/107 167/211/108 
s 4
f 168/212/109 169/213/110 167/211/108 
s 5
f 166/210/107 168/212/109 167/211/108 
s 6
f 166/210/107 170/214/111 168/212/109 
s 7
f 171/186/112 170/214/111 166/210/107 
s 8
f 171/186/112 166/210/113 165/209/106 
s 9
f 171/186/112 165/209/106 172/215/114 
s 10
f 165/209/106 167/211/108 172/215/114 
s 11
f 173/216/115 172/215/114 167/211/108 
s 12
f 174/217/116 173/216/115 167/211/108 
s 13
f 173/216/115 174/217/116 175/218/117 
s 14
f 170/214/111 176/219/118 168/212/109 
s 15
f 168/212/109 176/219/118 169/213/110 
s 16
f 176/219/119 177/220/120 169/213/110 
s 17
f 177/220/120 178/185/121 169/213/110 
s 18
f 179/183/122 169/213/110 178/185/121 
s 19
f 180/221/123 181/222/124 182/223/125 
s 20
f 181/222/124 183/224/126 182/223/125 
s 21
f 182/223/125 183/224/126 184/225/127 
s 22
f 183/224/126 185/226/128 184/225/127 
s 23
f 185/226/128 186/181/129 184/225/127 
s 24
f 186/181/129 185/226/128 175/218/117 
s 25
f 186/181/129 175/218/117 179/183/122 
s 26
f 174/217/116 179/183/122 175/218/117 
s 27
f 179/183/122 174/217/116 169/213/110 
s 28
f 174/217/116 167/211/108 169/213/110 
s 29
f 187/179/130 184/225/127 186/181/129 
s 30
f 185/226/128 188/227/131 175/218/117 
s 31
f 185/226/128 183/224/126 188/227/131 
s 32
f 183/224/126 189/228/132 188/227/131 
s 33
f 183/224/126 181/222/124 189/228/132 
s 34
f 181/222/124 190/182/133 189/228/132 
s 35
f 190/182/133 181/222/124 180/221/123 
s 36
f 190/182/133 180/221/123 191/229/134 
s 37
f 191/229/134 180/221/123 192/230/135 
s 38
f 191/229/134 192/230/135 193/231/136 
s 39
f 194/232/137 193/231/136 192/230/135 
s 40
f 195/233/138 188/227/131 189/228/132 
s 41
f 196/234/139 173/216/115 175/218/117 
s 42
f 196/234/139 175/218/117 188/227/131 
s 43
f 197/235/140 196/234/139 188/227/131 
s 44
f 195/233/138 197/235/140 188/227/131 
s 45
f 198/184/141 197/235/140 195/233/138 
s 46
f 198/184/141 195/233/138 189/228/132 
s 47
f 198/184/141 189/228/132 190/182/133 
s 48
f 173/216/115 199/236/142 172/215/114 
s 49
f 199/236/142 173/216/115 196/234/139 
s 50
f 197/235/140 199/236/142 196/234/139 
s 51
f 198/184/141 199/236/142 197/235/140 
s 52
f 199/236/142 198/184/141 172/215/114 
s 53
f 171/186/112 172/215/114 198/184/141 
s 54
f 200/180/143 201/237/144 202/238/145 
s 55
f 200/180/143 203/239/146 201/237/144 
s 56
f 203/239/146 200/180/143 193/231/136 
s 57
f 190/182/133 193/231/136 200/180/143 
s 58
f 190/182/133 191/229/134 193/231/136 
s 59
f 194/232/137 203/239/146 193/231/136 
s 60
f 203/239/146 194/232/137 204/240/147 
s 61
f 201/237/144 203/239/146 204/240/147 
s 62
f 201/237/144 204/240/147 205/241/148 
s 63
f 202/238/145 201/237/144 205/241/148 
s 64
f 202/238/145 205/241/148 206/242/149 
s 65
f 200/180/143 202/238/145 206/242/149 
s 66
f 200/180/143 206/242/149 171/178/112 
s 67
f 170/243/111 171/178/112 206/242/149 
s 68
f 176/244/118 170/243/111 206/242/149 
s 69
f 204/240/147 207/245/150 205/241/148 
s 70
f 204/240/147 194/232/137 207/245/150 
s 71
f 194/232/137 208/246/151 207/245/150 
s 72
f 208/246/151 194/232/137 192/230/135 
s 73
f 176/244/118 206/242/149 205/241/148 
s 74
f 177/247/120 176/244/118 205/241/148 
s 75
f 177/247/120 205/241/148 207/245/150 
s 76
f 178/177/121 177/247/120 207/245/150 
s 77
f 178/177/121 207/245/150 187/179/130 
s 78
f 208/246/151 187/179/130 207/245/150 
s 79
f 187/179/130 208/246/151 184/225/127 
s 80
f 208/246/151 192/230/135 184/225/127 
s 81
f 182/223/125 184/225/127 192/230/135 
s 82
f 180/221/123 182/223/125 192/230/135 
s 83
f 162/157/84 209/158/82 164/159/101 
s 84
f 210/160/86 164/159/101 209/158/82 
s 85
f 211/125/100 212/126/89 163/127/99 
s 86
f 161/128/91 163/127/99 212/126/89 
s 87
f 213/165/152 214/166/153 215/167/154 
s 88
f 216/168/155 215/167/154 214/166/153 
s 89
f 217/169/80 218/170/156 219/171/157 
s 90
f 220/172/158 219/171/157 218/170/156 
s 91
f 219/173/157 220/174/158 213/175/152 
s 92
f 214/176/153 213/175/152 220/174/158 
s 93
f 220/157/158 218/158/156 214/159/153 
s 94
f 216/160/155 214/159/153 218/158/156 
s 95
f 215/125/154 217/126/80 213/127/152 
s 96
f 219/128/157 213/127/152 217/126/80 
s 97
f 163/165/99 164/166/101 211/167/100 
s 98
f 210/168/86 211/167/100 164/166/101 
s 99
f 212/169/89 209/170/82 161/171/91 
s 100
f 162/172/84 161/171/91 209/170/82 
s 101
f 221/129/159 222/248/160 223/249/161 
s 102
f 223/249/161 222/248/160 224/250/162 
s 103
f 222/248/160 225/251/163 224/250/162 
s 104
f 226/252/164 227/253/165 228/254/166 
s 105
f 227/253/165 229/131/167 228/254/166 
s 106
f 221/129/159 228/254/166 229/131/167 
s 107
f 221/129/159 230/255/168 228/254/166 
s 108
f 221/129/159 223/249/161 230/255/168 
s 109
f 230/255/168 223/249/161 231/256/169 
s 110
f 223/249/161 224/250/162 231/256/169 
s 111
f 224/250/162 232/257/170 231/256/169 
s 112
f 224/250/162 225/251/163 232/257/170 
s 113
f 225/251/163 233/258/171 232/257/170 
s 114
f 234/259/172 231/256/169 232/257/170 
s 115
f 233/258/171 235/130/173 232/257/170 
s 116
f 236/132/174 232/257/170 235/130/173 
s 117
f 236/132/174 234/259/172 232/257/170 
s 118
f 234/259/172 236/132/174 237/260/175 
s 119
f 226/252/164 234/259/172 237/260/175 
s 120
f 234/259/172 226/252/164 231/256/169 
s 121
f 226/252/164 228/254/166 231/256/169 
s 122
f 230/255/168 231/256/169 228/254/166 
s 123
f 238/261/176 239/262/177 240/263/178 
s 124
f 239/262/177 241/264/179 240/263/178 
s 125
f 241/264/179 242/265/180 240/263/178 
s 126
f 241/264/179 243/266/181 242/265/180 
s 127
f 243/266/181 244/267/182 242/265/180 
s 128
f 244/267/182 243/266/181 245/268/131 
s 129
f 244/267/182 245/268/131 237/260/175 
s 130
f 246/269/183 237/260/175 245/268/131 
s 131
f 246/269/183 226/252/164 237/260/175 
s 132
f 227/253/165 226/252/164 246/269/183 
s 133
f 247/270/184 240/263/178 242/265/180 
s 134
f 248/136/185 247/270/184 242/265/180 
s 135
f 248/136/185 242/265/180 249/134/186 
s 136
f 244/267/182 249/134/186 242/265/180 
s 137
f 249/134/186 244/267/182 237/260/175 
s 138
f 249/134/186 237/260/175 236/132/174 
s 139
f 235/138/173 233/271/171 250/272/187 
s 140
f 235/138/173 250/272/187 248/136/185 
s 141
f 247/270/184 248/136/185 250/272/187 
s 142
f 251/273/188 247/270/184 250/272/187 
s 143
f 247/270/184 251/273/188 240/263/178 
s 144
f 251/273/188 252/274/189 240/263/178 
s 145
f 238/261/176 240/263/178 252/274/189 
s 146
f 251/273/188 253/275/190 252/274/189 
s 147
f 253/275/190 251/273/188 254/276/191 
s 148
f 254/276/191 251/273/188 250/272/187 
s 149
f 254/276/191 250/272/187 255/277/192 
s 150
f 233/271/171 255/277/192 250/272/187 
s 151
f 233/271/171 225/278/163 255/277/192 
s 152
f 225/278/163 256/279/193 255/277/192 
s 153
f 225/278/163 222/280/160 256/279/193 
s 154
f 222/280/160 221/137/159 256/279/193 
s 155
f 257/135/194 256/279/193 221/137/159 
s 156
f 258/281/195 255/277/192 256/279/193 
s 157
f 257/135/194 258/281/195 256/279/193 
s 158
f 257/135/194 259/282/196 258/281/195 
s 159
f 258/281/195 259/282/196 255/277/192 
s 160
f 259/282/196 254/276/191 255/277/192 
s 161
f 259/282/196 253/275/190 254/276/191 
s 162
f 257/135/194 253/275/190 259/282/196 
s 163
f 253/275/190 257/135/194 252/274/189 
s 164
f 260/133/197 252/274/189 257/135/194 
s 165
f 260/133/197 238/261/176 252/274/189 
s 166
f 260/133/197 239/262/177 238/261/176 
s 167
f 239/262/177 261/283/198 241/264/179 
s 168
f 260/133/197 261/283/198 239/262/177 
s 169
f 261/283/198 260/133/197 262/284/199 
s 170
f 229/131/167 262/284/199 260/133/197 
s 171
f 263/285/200 264/286/201 245/268/131 
s 172
f 264/286/201 246/269/183 245/268/131 
s 173
f 264/286/201 227/253/165 246/269/183 
s 174
f 229/131/167 227/253/165 264/286/201 
s 175
f 229/131/167 264/286/201 263/285/200 
s 176
f 229/131/167 263/285/200 262/284/199 
s 177
f 263/285/200 245/268/131 262/284/199 
s 178
f 243/266/181 262/284/199 245/268/131 
s 179
f 243/266/181 261/283/198 262/284/199 
s 180
f 261/283/198 243/266/181 241/264/179 
s 181
f 265/287/202 266/288/203 267/289/204 
s 182
f 265/287/202 268/290/205 266/288/203 
s 183
f 269/142/206 268/290/205 265/287/202 
s 184
f 269/142/206 265/287/202 267/289/204 
s 185
f 269/142/206 267/289/204 270/140/207 
s 186
f 271/291/208 270/140/207 267/289/204 
s 187
f 272/292/209 271/291/208 267/289/204 
s 188
f 272/292/209 267/289/204 266/288/203 
s 189
f 273/293/210 272/292/209 266/288/203 
s 190
f 268/290/205 274/294/211 266/288/203 
s 191
f 274/294/211 275/295/212 266/288/203 
s 192
f 273/293/210 266/288/203 275/295/212 
s 193
f 276/139/213 273/293/210 275/295/212 
s 194
f 276/139/213 275/295/212 277/141/214 
s 195
f 278/296/215 277/141/214 275/295/212 
s 196
f 277/141/214 278/296/215 279/297/216 
s 197
f 278/296/215 280/298/217 279/297/216 
s 198
f 281/299/218 279/297/216 280/298/217 
s 199
f 281/299/218 282/300/219 279/297/216 
s 200
f 283/301/220 284/302/221 274/294/211 
s 201
f 274/294/211 284/302/221 275/295/212 
s 202
f 284/302/221 278/296/215 275/295/212 
s 203
f 278/296/215 284/302/221 280/298/217 
s 204
f 284/302/221 285/303/222 280/298/217 
s 205
f 284/302/221 283/301/220 285/303/222 
s 206
f 286/304/223 282/300/219 281/299/218 
s 207
f 287/305/224 286/304/223 281/299/218 
s 208
f 287/305/224 281/299/218 280/298/217 
s 209
f 288/306/225 287/305/224 280/298/217 
s 210
f 288/306/225 280/298/217 285/303/222 
s 211
f 289/144/226 288/306/225 285/303/222 
s 212
f 289/144/226 285/303/222 269/142/206 
s 213
f 283/301/220 269/142/206 285/303/222 
s 214
f 269/142/206 283/301/220 268/290/205 
s 215
f 268/290/205 283/301/220 274/294/211 
s 216
f 289/144/226 287/305/224 288/306/225 
s 217
f 289/144/226 286/304/223 287/305/224 
s 218
f 286/304/223 289/144/226 290/307/227 
s 219
f 291/146/228 290/307/227 289/144/226 
s 220
f 291/146/228 292/308/229 290/307/227 
s 221
f 293/309/230 294/310/231 295/311/232 
s 222
f 294/310/231 296/312/233 295/311/232 
s 223
f 294/310/231 297/313/234 296/312/233 
s 224
f 297/313/234 291/146/228 296/312/233 
s 225
f 291/146/228 297/313/234 298/314/235 
s 226
f 291/146/228 298/314/235 292/308/229 
s 227
f 292/308/229 298/314/235 299/315/236 
s 228
f 292/308/229 299/315/236 290/307/227 
s 229
f 282/300/219 290/307/227 299/315/236 
s 230
f 282/300/219 286/304/223 290/307/227 
s 231
f 282/300/219 300/316/237 279/297/216 
s 232
f 300/316/237 282/300/219 299/315/236 
s 233
f 300/316/237 299/315/236 301/317/238 
s 234
f 302/318/239 301/317/238 299/315/236 
s 235
f 302/318/239 294/310/231 301/317/238 
s 236
f 297/313/234 294/310/231 302/318/239 
s 237
f 298/314/235 297/313/234 302/318/239 
s 238
f 298/314/235 302/318/239 299/315/236 
s 239
f 294/310/231 293/309/230 301/317/238 
s 240
f 293/309/230 303/145/240 301/317/238 
s 241
f 304/143/241 301/317/238 303/145/240 
s 242
f 304/143/241 300/316/237 301/317/238 
s 243
f 300/316/237 304/143/241 279/297/216 
s 244
f 277/141/214 279/297/216 304/143/241 
s 245
f 270/148/207 305/319/242 306/320/243 
s 246
f 270/148/207 271/321/208 305/319/242 
s 247
f 305/319/242 271/321/208 307/322/162 
s 248
f 271/321/208 272/323/209 307/322/162 
s 249
f 307/322/162 272/323/209 308/324/244 
s 250
f 272/323/209 273/325/210 308/324/244 
s 251
f 273/325/210 276/147/213 308/324/244 
s 252
f 303/145/240 308/324/244 276/147/213 
s 253
f 303/145/240 293/309/230 308/324/244 
s 254
f 293/309/230 295/311/232 308/324/244 
s 255
f 270/148/207 296/312/233 291/146/228 
s 256
f 270/148/245 306/320/243 296/312/233 
s 257
f 306/320/243 295/311/232 296/312/233 
s 258
f 306/320/243 305/319/242 295/311/232 
s 259
f 305/319/242 307/322/162 295/311/232 
s 260
f 307/322/162 308/324/244 295/311/232 
s 1
f 309/326/246 310/327/80 311/328/247 
s 2
f 310/327/248 312/329/247 311/328/247 
s 3
f 313/330/249 314/331/250 315/332/251 
s 4
f 314/331/250 316/333/249 315/332/251 
s 5
f 316/333/249 317/334/250 315/332/251 
s 6
f 318/335/84 316/333/249 319/336/91 
s 7
f 319/336/91 316/333/249 314/331/250 
s 8
f 320/337/76 321/338/252 315/332/251 
s 9
f 321/338/252 322/339/253 315/332/251 
s 10
f 322/339/253 313/330/249 315/332/251 
s 11
f 323/340/91 313/330/249 322/339/253 
s 12
f 324/341/84 313/330/249 323/340/91 
s 13
f 325/342/99 326/343/254 327/344/101 
s 14
f 327/344/101 326/343/254 328/345/255 
s 15
f 326/343/254 329/346/256 328/345/255 
s 16
f 329/346/256 321/338/252 328/345/255 
s 17
f 328/345/255 321/338/252 330/347/251 
s 18
f 330/347/251 321/338/252 320/337/257 
s 19
f 331/348/101 330/347/251 320/337/257 
s 20
f 332/349/76 330/347/251 331/348/101 
s 21
f 333/350/251 334/351/255 317/334/250 
s 22
f 334/351/255 335/352/249 317/334/250 
s 23
f 317/334/250 335/352/249 315/332/251 
s 24
f 335/352/249 336/353/250 315/332/251 
s 25
f 315/332/251 336/353/250 337/354/255 
s 26
f 336/353/250 338/355/249 337/354/255 
s 27
f 337/354/255 338/355/249 339/356/258 
s 28
f 338/355/249 340/357/250 339/356/258 
s 29
f 339/356/258 340/357/250 341/358/259 
s 30
f 341/358/259 340/357/250 342/359/260 
s 31
f 343/360/99 315/332/251 344/361/101 
s 32
f 344/361/101 315/332/251 337/354/255 
s 33
f 345/362/99 339/356/258 346/363/101 
s 34
f 346/363/101 339/356/258 341/358/259 
s 35
f 342/359/260 340/357/250 347/364/261 
s 36
f 347/364/261 340/357/250 348/365/262 
s 37
f 349/366/91 348/365/262 340/357/250 
s 38
f 350/367/84 348/365/262 349/366/91 
s 39
f 311/328/247 312/329/247 351/368/263 
s 40
f 312/329/247 352/369/263 351/368/263 
s 41
f 351/370/263 352/371/263 353/372/264 
s 42
f 352/371/263 354/373/264 353/372/264 
s 43
f 353/368/264 354/369/264 355/328/265 
s 44
f 354/369/264 356/329/265 355/328/265 
s 45
f 357/374/101 334/351/255 358/375/84 
s 46
f 358/375/84 334/351/255 359/376/91 
s 47
f 359/376/91 334/351/255 333/350/251 
s 48
f 360/377/99 359/376/91 333/350/251 
s 49
f 361/378/84 338/355/249 362/379/91 
s 50
f 362/379/91 338/355/249 336/353/250 
s 51
f 363/380/86 331/381/101 364/382/86 
s 52
f 331/381/101 320/383/257 364/382/86 
s 53
f 364/384/86 320/385/257 365/386/100 
s 54
f 320/385/257 315/387/251 365/386/100 
s 55
f 365/382/100 315/383/251 366/380/100 
s 56
f 315/383/251 343/381/99 366/380/100 
s 57
f 366/386/100 343/387/99 367/388/86 
s 58
f 343/387/99 344/389/101 367/388/86 
s 59
f 367/380/86 344/381/101 368/382/86 
s 60
f 344/381/101 337/383/255 368/382/86 
s 61
f 368/388/86 337/389/255 369/390/100 
s 62
f 337/389/255 339/391/258 369/390/100 
s 63
f 369/382/100 339/383/258 370/380/100 
s 64
f 339/383/80 345/381/99 370/380/100 
s 65
f 370/390/100 345/391/99 371/392/86 
s 66
f 345/391/99 346/393/101 371/392/86 
s 67
f 371/394/86 346/395/101 372/396/265 
s 68
f 346/395/101 341/397/259 372/396/265 
s 69
f 372/396/265 341/397/259 373/398/265 
s 70
f 341/397/259 342/399/260 373/398/265 
s 71
f 373/398/265 342/399/260 374/400/266 
s 72
f 342/399/260 347/401/261 374/400/266 
s 73
f 374/400/266 347/401/261 375/402/266 
s 74
f 347/401/261 348/403/262 375/402/266 
s 75
f 375/402/266 348/403/262 376/404/82 
s 76
f 348/403/262 350/405/84 376/404/82 
s 77
f 376/392/82 350/393/84 377/390/89 
s 78
f 350/393/84 349/391/91 377/390/89 
s 79
f 377/406/89 349/407/91 378/408/89 
s 80
f 349/407/91 340/409/250 378/408/89 
s 81
f 378/390/89 340/391/250 379/388/82 
s 82
f 340/391/250 338/389/249 379/388/82 
s 83
f 379/408/82 338/409/249 380/406/82 
s 84
f 338/409/249 361/407/84 380/406/82 
s 85
f 380/388/82 361/389/84 381/386/89 
s 86
f 361/389/84 362/387/91 381/386/89 
s 87
f 381/406/89 362/407/91 382/408/89 
s 88
f 362/407/91 336/409/250 382/408/89 
s 89
f 382/386/89 336/387/250 383/410/82 
s 90
f 336/387/250 335/411/249 383/410/82 
s 91
f 383/408/82 335/409/249 384/412/86 
s 92
f 335/409/249 334/413/255 384/412/86 
s 93
f 384/410/86 334/411/255 385/414/86 
s 94
f 334/411/255 357/415/101 385/414/86 
s 95
f 385/412/86 357/413/101 386/416/82 
s 96
f 357/413/101 358/417/84 386/416/82 
s 97
f 386/414/82 358/415/84 387/418/89 
s 98
f 358/415/84 359/419/91 387/418/89 
s 99
f 387/416/89 359/417/91 388/412/100 
s 100
f 359/417/91 360/413/99 388/412/100 
s 101
f 388/418/100 360/419/99 389/420/100 
s 102
f 360/419/99 333/421/251 389/420/100 
s 103
f 389/412/100 333/413/251 390/408/89 
s 104
f 333/413/251 317/409/250 390/408/89 
s 105
f 390/420/89 317/421/250 391/384/82 
s 106
f 317/421/250 316/385/249 391/384/82 
s 107
f 391/408/82 316/409/249 392/406/82 
s 108
f 316/409/249 318/407/84 392/406/82 
s 109
f 392/384/82 318/385/84 393/422/89 
s 110
f 318/385/84 319/423/91 393/422/89 
s 111
f 393/406/89 319/407/91 394/408/89 
s 112
f 319/407/91 314/409/250 394/408/89 
s 113
f 394/422/89 314/423/250 395/424/82 
s 114
f 314/423/250 313/425/249 395/424/82 
s 115
f 395/408/82 313/409/249 396/406/82 
s 116
f 313/409/249 324/407/84 396/406/82 
s 117
f 396/424/82 324/425/84 397/426/89 
s 118
f 324/425/84 323/427/91 397/426/89 
s 119
f 397/428/89 323/429/91 398/430/246 
s 120
f 323/429/91 322/431/253 398/430/246 
s 121
f 398/430/246 322/431/253 399/432/246 
s 122
f 322/431/253 321/433/252 399/432/246 
s 123
f 399/432/246 321/433/252 400/434/247 
s 124
f 321/433/252 329/435/256 400/434/247 
s 125
f 400/434/247 329/435/256 401/436/247 
s 126
f 329/435/256 326/437/254 401/436/247 
s 127
f 401/436/247 326/437/254 402/438/100 
s 128
f 326/437/80 325/439/99 402/438/100 
s 129
f 402/426/100 325/427/99 403/424/86 
s 130
f 325/427/99 327/425/101 403/424/86 
s 131
f 403/380/86 327/381/101 404/382/86 
s 132
f 327/381/101 328/383/255 404/382/86 
s 133
f 404/424/86 328/425/255 405/422/100 
s 134
f 328/425/255 330/423/251 405/422/100 
s 135
f 405/382/100 330/383/251 406/380/100 
s 136
f 330/383/251 332/381/100 406/380/100 
s 137
f 406/422/100 332/423/100 363/384/86 
s 138
f 332/423/100 331/385/101 363/384/86 
s 139
f 355/328/265 356/329/265 407/326/266 
s 140
f 356/329/265 408/327/266 407/326/266 
s 141
f 407/326/266 408/327/266 409/440/267 
s 142
f 408/327/266 410/441/267 409/440/267 
s 143
f 409/372/267 410/373/267 411/370/268 
s 144
f 410/373/267 412/371/268 411/370/268 
s 145
f 411/440/268 412/441/268 309/326/246 
s 146
f 412/441/268 310/327/248 309/326/246 
# 0 polygons - 516 triangles

#
# object Mesh_1572
#

v  17.1895 0.0000 -3.2782
v  17.3215 0.0000 -5.9182
v  17.3215 0.0000 -3.2782
v  17.1895 0.0000 -5.9182
v  17.1895 4.7520 -3.2782
v  17.3215 4.7520 -5.9182
v  17.1895 4.7520 -5.9182
v  17.3215 4.7520 -3.2782
# 8 vertices

vn 0.0000 -1.0000 -0.0000
vn 0.0000 1.0000 -0.0000
vn -1.0000 0.0000 -0.0000
vn 0.0000 0.0000 -1.0000
vn 1.0000 0.0000 -0.0000
vn 0.0000 0.0000 1.0000
# 6 vertex normals

vt 0.5162 0.0583 0.0000
vt 0.5412 0.1171 0.0000
vt 0.5412 0.0583 0.0000
vt 0.5162 0.1171 0.0000
vt 0.5001 0.1171 0.0000
vt 0.9996 0.0583 0.0000
vt 0.5001 0.0583 0.0000
vt 0.9996 0.1171 0.0000
vt 0.5001 0.1152 0.0000
vt 0.9996 0.1122 0.0000
vt 0.5001 0.1122 0.0000
vt 0.9996 0.1152 0.0000
vt 0.5001 0.0631 0.0000
vt 0.9996 0.0602 0.0000
vt 0.5001 0.0602 0.0000
vt 0.9996 0.0631 0.0000
# 16 texture coords

g Mesh_1572
usemtl Material__5073
s off
f 413/442/269 414/443/269 415/444/269 
f 414/443/269 413/442/269 416/445/269 
f 417/445/270 418/444/270 419/442/270 
f 418/444/270 417/445/270 420/443/270 
f 413/446/271 419/447/271 416/448/271 
f 419/447/271 413/446/271 417/449/271 
f 416/450/272 418/451/272 414/452/272 
f 418/451/272 416/450/272 419/453/272 
f 414/448/273 420/449/273 415/446/273 
f 420/449/273 414/448/273 418/447/273 
f 415/454/274 417/455/274 413/456/274 
f 417/455/274 415/454/274 420/457/274 
# 0 polygons - 12 triangles

#
# object Box047
#

v  -14.8246 0.0000 11.8936
v  -6.3766 0.0000 11.8936
v  -6.3766 0.0000 12.0436
v  -14.8246 0.0000 12.0436
v  -14.8246 8.4480 11.8936
v  -14.8246 8.4480 12.0436
v  -6.3766 8.4480 12.0436
v  -6.3766 8.4480 11.8936
# 8 vertices

vn 0.0000 -1.0000 -0.0000
vn 0.0000 1.0000 -0.0000
vn 1.0000 0.0000 -0.0000
vn 0.0000 0.0000 -1.0000
vn -1.0000 0.0000 -0.0000
vn 0.0000 0.0000 1.0000
# 6 vertex normals

vt 0.9850 0.1881 0.0000
vt 0.5166 0.1881 0.0000
vt 0.5166 0.1847 0.0000
vt 0.9850 0.1847 0.0000
vt 1.0000 0.2941 0.0000
vt 0.5000 0.2941 0.0000
vt 0.5000 0.1765 0.0000
vt 1.0000 0.1765 0.0000
# 8 texture coords

g Box047
usemtl Material__5073
s 2
f 421/458/275 422/459/275 423/460/275 424/461/275 
s 4
f 425/461/276 426/458/276 427/459/276 428/460/276 
s 8
f 422/460/277 428/461/277 427/458/277 423/459/277 
s 16
f 425/462/278 428/463/278 422/464/278 421/465/278 
s 32
f 426/461/279 425/458/279 421/459/279 424/460/279 
s 64
f 423/465/280 427/462/280 426/463/280 424/464/280 
# 6 polygons

#
# object Object063
#

v  -17.7595 0.0000 11.9608
v  17.2405 0.0000 11.9608
v  17.2405 0.0000 -13.0392
v  -17.7595 0.0000 -13.0392
# 4 vertices

vn 0.0000 1.0000 -0.0000
# 1 vertex normals

vt 0.0128 0.4963 0.0000
vt 1.1592 0.4963 0.0000
vt 1.1592 0.3036 0.0000
vt 0.0128 0.3036 0.0000
# 4 texture coords

g Object063
usemtl Material__5073
s 2
f 429/466/281 430/467/281 431/468/281 432/469/281 
# 1 polygons

#
# object Mesh_1574
#

v  -11.5099 0.0000 -12.9710
v  -14.1499 0.0000 -13.1030
v  -11.5099 0.0000 -13.1030
v  -14.1499 0.0000 -12.9710
v  -11.5099 4.7520 -12.9710
v  -14.1499 4.7520 -13.1030
v  -14.1499 4.7520 -12.9710
v  -11.5099 4.7520 -13.1030
# 8 vertices

vn 0.0000 -1.0000 -0.0000
vn 0.0000 1.0000 -0.0000
vn 0.0000 0.0000 1.0000
vn -1.0000 0.0000 -0.0000
vn 0.0000 0.0000 -1.0000
vn 1.0000 0.0000 -0.0000
# 6 vertex normals

vt 0.5162 0.0583 0.0000
vt 0.5412 0.1171 0.0000
vt 0.5412 0.0583 0.0000
vt 0.5162 0.1171 0.0000
vt 0.5001 0.1171 0.0000
vt 0.9996 0.0583 0.0000
vt 0.5001 0.0583 0.0000
vt 0.9996 0.1171 0.0000
vt 0.5001 0.1152 0.0000
vt 0.9996 0.1122 0.0000
vt 0.5001 0.1122 0.0000
vt 0.9996 0.1152 0.0000
vt 0.5001 0.0631 0.0000
vt 0.9996 0.0602 0.0000
vt 0.5001 0.0602 0.0000
vt 0.9996 0.0631 0.0000
# 16 texture coords

g Mesh_1574
usemtl Material__5073
s off
f 433/470/282 434/471/282 435/472/282 
f 434/471/282 433/470/282 436/473/282 
f 437/473/283 438/472/283 439/470/283 
f 438/472/283 437/473/283 440/471/283 
f 433/474/284 439/475/284 436/476/284 
f 439/475/284 433/474/284 437/477/284 
f 436/478/285 438/479/285 434/480/285 
f 438/479/285 436/478/285 439/481/285 
f 434/476/286 440/477/286 435/474/286 
f 440/477/286 434/476/286 438/475/286 
f 435/482/287 437/483/287 433/484/287 
f 437/483/287 435/482/287 440/485/287 
# 0 polygons - 12 triangles

#
# object Mesh_1575
#

v  -13.1548 6.0932 -13.1248
v  -12.5006 6.0933 -13.1252
v  -13.1548 5.6041 -13.1248
v  -12.5006 5.6042 -13.1252
v  -12.4152 5.5188 -13.0803
v  -12.4152 6.1787 -13.0803
v  -12.4568 5.5521 -13.0411
v  -12.4569 6.1454 -13.0411
v  -13.2402 6.1787 -13.0797
v  -13.2401 5.5187 -13.0797
v  -13.1985 6.1453 -13.0406
v  -13.1985 5.5520 -13.0406
v  -12.4153 6.1788 -13.1392
v  -12.4152 5.5188 -13.1391
v  -13.2403 6.1787 -13.1386
v  -13.1875 6.1259 -13.1386
v  -13.1874 5.5715 -13.1386
v  -12.4680 5.5715 -13.1391
v  -12.4680 6.1260 -13.1391
v  -13.2402 5.5187 -13.1386
# 20 vertices

vn -0.0007 0.0000 -1.0000
vn 0.6853 0.0001 0.7283
vn -0.6846 -0.0001 0.7289
vn -0.6843 -0.0001 0.7292
vn -0.6846 -0.0001 0.7290
vn 1.0000 0.0001 -0.0009
vn 1.0000 0.0001 -0.0007
vn -0.0001 1.0000 0.0001
vn 0.0000 0.9686 0.2486
vn 0.0001 0.9686 0.2486
vn 0.0003 0.7615 0.6482
vn 0.0510 -0.0517 -0.9974
vn 0.2029 -0.2034 -0.9578
vn 0.0511 0.0517 -0.9974
vn 0.2025 0.2034 -0.9579
vn -0.0524 0.0517 -0.9973
vn -0.2042 0.2035 -0.9576
vn -0.0524 -0.0517 -0.9973
vn -0.2043 -0.2037 -0.9575
vn -0.0008 0.0001 -1.0000
vn -0.0006 0.0001 -1.0000
vn -0.0006 0.0000 -1.0000
vn 0.0005 -0.7612 0.6485
vn 0.0005 -0.7615 0.6481
vn 0.0003 -0.9686 0.2486
vn 0.0003 -0.9686 0.2484
vn 0.0001 -1.0000 -0.0000
vn -1.0000 -0.0001 0.0009
vn -1.0000 -0.0001 0.0007
# 29 vertex normals

vt 0.1372 0.1226 0.0000
vt 0.1372 0.1598 0.0000
vt 0.0205 0.1226 0.0000
vt 0.0205 0.1598 0.0000
vt 0.4714 0.1185 0.0000
vt 0.4714 0.1526 0.0000
vt 0.4624 0.1203 0.0000
vt 0.4624 0.1509 0.0000
vt 0.4715 0.1527 0.0000
vt 0.4715 0.1186 0.0000
vt 0.4624 0.1510 0.0000
vt 0.4842 0.1526 0.0000
vt 0.4842 0.1185 0.0000
vt 0.3875 0.1604 0.0000
vt 0.3747 0.1604 0.0000
vt 0.3875 0.1178 0.0000
vt 0.3747 0.1178 0.0000
vt 0.3662 0.1199 0.0000
vt 0.3662 0.1582 0.0000
vt 0.1450 0.1207 0.0000
vt 0.0127 0.1207 0.0000
vt 0.0127 0.1617 0.0000
vt 0.1450 0.1617 0.0000
vt 0.1576 0.1177 0.0000
vt 0.0001 0.1177 0.0000
vt 0.0001 0.1647 0.0000
vt 0.1576 0.1647 0.0000
vt 0.3747 0.1177 0.0000
vt 0.3874 0.1604 0.0000
vt 0.3874 0.1177 0.0000
vt 0.4842 0.1186 0.0000
vt 0.4842 0.1527 0.0000
# 32 texture coords

g Mesh_1575
usemtl Material__5073
s 81
f 441/486/288 442/487/288 443/488/288 
s 82
f 444/489/288 443/488/288 442/487/288 
s 123
f 445/490/289 446/491/289 447/492/289 
s 124
f 448/493/289 447/492/289 446/491/289 
s 125
f 449/494/290 450/495/291 451/496/292 
s 126
f 452/492/291 451/496/292 450/495/291 
s 127
f 453/497/293 446/491/293 454/498/293 
s 128
f 445/490/294 454/498/294 446/491/294 
s 129
f 455/499/295 449/500/296 453/501/295 
s 130
f 446/502/297 453/501/295 449/500/296 
s 131
f 446/502/297 449/500/296 448/503/298 
s 132
f 451/504/298 448/503/298 449/500/296 
s 141
f 456/505/299 441/486/300 457/506/301 
s 142
f 443/488/302 457/506/301 441/486/300 
s 143
f 457/506/301 443/488/302 458/507/303 
s 144
f 444/489/304 458/507/303 443/488/302 
s 145
f 458/507/303 444/489/304 459/508/305 
s 146
f 442/487/306 459/508/305 444/489/304 
s 147
f 455/509/307 456/505/299 460/510/308 
s 148
f 457/506/301 460/510/308 456/505/299 
s 149
f 460/510/308 457/506/301 454/511/309 
s 150
f 458/507/303 454/511/309 457/506/301 
s 151
f 454/511/309 458/507/303 453/512/308 
s 152
f 459/508/305 453/512/308 458/507/303 
s 153
f 453/512/308 459/508/305 455/509/307 
s 154
f 456/505/299 455/509/307 459/508/305 
s 155
f 459/508/305 442/487/306 456/505/299 
s 156
f 441/486/300 456/505/299 442/487/306 
s 175
f 447/503/310 452/504/311 445/513/312 
s 176
f 450/500/313 445/513/312 452/504/311 
s 177
f 450/500/313 460/514/314 445/513/312 
s 178
f 454/515/314 445/513/312 460/514/314 
s 181
f 460/516/315 450/495/315 455/517/316 
s 182
f 449/494/316 455/517/316 450/495/315 
# 0 polygons - 34 triangles

#
# object Mesh_1576
#

v  -7.5436 4.0408 -13.0394
v  -7.5436 3.3511 -13.0394
v  -7.5436 3.3511 -13.3034
v  -7.5436 4.0408 -13.3034
v  -8.2779 4.1250 -13.3694
v  -7.6508 3.2670 -13.3694
v  -7.6839 3.2670 -13.3694
v  -7.7498 3.2670 -13.3694
v  -7.9149 3.2670 -13.3694
v  -7.6839 3.2010 -13.3694
v  -7.7498 3.2010 -13.3694
v  -7.7498 4.1250 -13.3694
v  -7.5189 3.3330 -13.3694
v  -7.5849 3.2670 -13.3694
v  -7.5849 3.2010 -13.3694
v  -7.6508 3.2010 -13.3694
v  -7.6508 4.1910 -13.3694
v  -7.5849 4.1910 -13.3694
v  -7.5849 4.1250 -13.3694
v  -7.6508 4.1250 -13.3694
v  -7.5189 4.0590 -13.3694
v  -7.6839 4.1250 -13.3694
v  -7.7498 4.1910 -13.3694
v  -7.6839 4.1910 -13.3694
v  -7.9149 3.2340 -13.3694
v  -8.1129 3.2340 -13.3694
v  -8.1129 3.2670 -13.3694
v  -8.2779 3.2670 -13.3694
v  -8.3438 4.1250 -13.3694
v  -8.3438 3.2670 -13.3694
v  -8.3769 4.1250 -13.3694
v  -8.3769 3.2670 -13.3694
v  -8.4428 4.1250 -13.3694
v  -8.5089 4.0590 -13.3694
v  -8.3438 4.1910 -13.3694
v  -8.2779 4.1910 -13.3694
v  -8.4428 4.1910 -13.3694
v  -8.3769 4.1910 -13.3694
v  -8.5089 3.3330 -13.3694
v  -8.4428 3.2670 -13.3694
v  -8.3769 3.2010 -13.3694
v  -8.4428 3.2010 -13.3694
v  -7.6064 4.1035 -13.0394
v  -7.6064 4.1035 -13.3034
v  -8.4214 4.1035 -13.0394
v  -8.4214 4.1035 -13.3034
v  -8.4841 4.0408 -13.0394
v  -8.4841 4.0408 -13.3034
v  -8.2119 3.1020 -13.3694
v  -8.2119 3.2340 -13.3694
v  -7.8159 3.1020 -13.3694
v  -7.8159 3.2340 -13.3694
v  -8.2779 3.2010 -13.3694
v  -8.3438 3.2010 -13.3694
v  -7.7498 4.1250 -13.3034
v  -7.7498 4.1910 -13.3034
v  -8.2779 4.1250 -13.3034
v  -8.2779 4.1910 -13.3034
v  -8.3438 4.1910 -13.3034
v  -8.3438 4.1250 -13.3034
v  -8.3769 4.1250 -13.3034
v  -8.3769 4.1910 -13.3034
v  -8.4428 4.1910 -13.3034
v  -8.4428 4.1250 -13.3034
v  -8.5089 4.0590 -13.3034
v  -8.5089 3.3330 -13.3034
v  -8.4428 3.2670 -13.3034
v  -8.4428 3.2010 -13.3034
v  -8.3769 3.2010 -13.3034
v  -8.3769 3.2670 -13.3034
v  -8.3438 3.2670 -13.3034
v  -8.3438 3.2010 -13.3034
v  -8.2779 3.2010 -13.3034
v  -8.2779 3.2670 -13.3034
v  -8.1129 3.2670 -13.3034
v  -8.1129 3.2340 -13.3034
v  -8.2119 3.2340 -13.3034
v  -8.2119 3.1020 -13.3034
v  -7.8159 3.1020 -13.3034
v  -7.8159 3.2340 -13.3034
v  -7.9149 3.2340 -13.3034
v  -7.9149 3.2670 -13.3034
v  -7.7498 3.2670 -13.3034
v  -7.7498 3.2010 -13.3034
v  -7.6839 3.2010 -13.3034
v  -7.6839 3.2670 -13.3034
v  -7.6508 3.2670 -13.3034
v  -7.6508 3.2010 -13.3034
v  -7.5849 3.2010 -13.3034
v  -7.5849 3.2670 -13.3034
v  -7.5189 3.3330 -13.3034
v  -7.5189 4.0590 -13.3034
v  -7.5849 4.1250 -13.3034
v  -7.5849 4.1910 -13.3034
v  -7.6508 4.1910 -13.3034
v  -7.6508 4.1250 -13.3034
v  -7.6839 4.1250 -13.3034
v  -7.6839 4.1910 -13.3034
v  -8.4841 3.3511 -13.0394
v  -8.4841 3.3511 -13.3034
v  -8.4214 3.2884 -13.0394
v  -8.4214 3.2884 -13.3034
v  -7.6064 3.2884 -13.0394
v  -7.6064 3.2884 -13.3034
v  -7.8555 0.9900 -13.1324
v  -7.8555 0.9900 -13.0433
v  -8.1642 0.9900 -13.0433
v  -8.1642 0.9900 -13.1324
v  -8.0759 3.1680 -13.0868
v  -8.1089 3.1680 -13.0538
v  -8.1089 0.0000 -13.0538
v  -8.0759 0.0000 -13.0868
v  -8.1089 3.1680 -13.1198
v  -8.1089 0.0000 -13.1198
v  -8.1418 3.1680 -13.0868
v  -8.1418 0.0000 -13.0868
v  -8.0428 0.0000 -13.0868
v  -8.0099 0.0000 -13.0538
v  -8.0099 3.1680 -13.0538
v  -8.0428 3.1680 -13.0868
v  -8.0099 0.0000 -13.1198
v  -8.0099 3.1680 -13.1198
v  -7.9769 0.0000 -13.0868
v  -7.9769 3.1680 -13.0868
v  -7.8555 3.1020 -13.0433
v  -7.8555 3.1020 -13.1324
v  -7.8555 3.1680 -13.1324
v  -7.8555 3.1680 -13.0433
v  -8.1642 3.1020 -13.1324
v  -8.1642 3.1020 -13.0433
v  -8.1642 3.1680 -13.0433
v  -8.1642 3.1680 -13.1324
v  -7.8555 2.0460 -13.0433
v  -7.8555 2.0460 -13.1324
v  -7.8555 2.1120 -13.1324
v  -7.8555 2.1120 -13.0433
v  -8.1642 2.0460 -13.1324
v  -8.1642 2.0460 -13.0433
v  -8.1642 2.1120 -13.0433
v  -8.1642 2.1120 -13.1324
v  -7.8555 1.0560 -13.1324
v  -7.8555 1.0560 -13.0433
v  -8.1642 1.0560 -13.0433
v  -8.1642 1.0560 -13.1324
v  -7.9438 0.0000 -13.0868
v  -7.9109 0.0000 -13.0538
v  -7.9109 3.1680 -13.0538
v  -7.9438 3.1680 -13.0868
v  -7.9109 0.0000 -13.1198
v  -7.9109 3.1680 -13.1198
v  -7.8778 0.0000 -13.0868
v  -7.8778 3.1680 -13.0868
# 152 vertices

vn 1.0000 0.0000 -0.0000
vn 0.0000 0.0000 -1.0000
vn 0.7069 0.7073 -0.0000
vn 0.0000 1.0000 -0.0000
vn -0.7071 0.7071 -0.0000
vn -1.0000 0.0000 -0.0000
vn -0.7071 -0.7071 -0.0000
vn 0.0000 -1.0000 -0.0000
vn 0.7071 -0.7071 -0.0000
vn 0.7071 0.7071 -0.0000
vn 0.7069 -0.7073 -0.0000
vn 1.0000 0.0000 0.0006
vn 0.7067 0.0000 0.7075
vn 0.7009 0.0000 -0.7133
vn -1.0000 0.0000 0.0006
vn -0.7075 0.0000 -0.7067
vn -0.7067 0.0000 0.7075
vn -0.7009 0.0000 -0.7133
vn 0.7075 0.0000 -0.7067
# 19 vertex normals

vt 0.7621 0.1487 0.0000
vt 0.7621 0.1284 0.0000
vt 0.8094 0.1284 0.0000
vt 0.8094 0.1487 0.0000
vt 0.8576 0.1509 0.0000
vt 0.7789 0.1256 0.0000
vt 0.7830 0.1256 0.0000
vt 0.7913 0.1256 0.0000
vt 0.8120 0.1256 0.0000
vt 0.7830 0.1236 0.0000
vt 0.7913 0.1236 0.0000
vt 0.7913 0.1509 0.0000
vt 0.7623 0.1275 0.0000
vt 0.7706 0.1256 0.0000
vt 0.7706 0.1236 0.0000
vt 0.7789 0.1236 0.0000
vt 0.7789 0.1528 0.0000
vt 0.7706 0.1528 0.0000
vt 0.7706 0.1509 0.0000
vt 0.7789 0.1509 0.0000
vt 0.7623 0.1489 0.0000
vt 0.7830 0.1509 0.0000
vt 0.7913 0.1528 0.0000
vt 0.7830 0.1528 0.0000
vt 0.8120 0.1246 0.0000
vt 0.8369 0.1246 0.0000
vt 0.8369 0.1256 0.0000
vt 0.8576 0.1256 0.0000
vt 0.8659 0.1509 0.0000
vt 0.8659 0.1256 0.0000
vt 0.8701 0.1509 0.0000
vt 0.8701 0.1256 0.0000
vt 0.8784 0.1509 0.0000
vt 0.8867 0.1489 0.0000
vt 0.8659 0.1528 0.0000
vt 0.8576 0.1528 0.0000
vt 0.8784 0.1528 0.0000
vt 0.8701 0.1528 0.0000
vt 0.8867 0.1275 0.0000
vt 0.8784 0.1256 0.0000
vt 0.8701 0.1236 0.0000
vt 0.8784 0.1236 0.0000
vt 0.7689 0.1505 0.0000
vt 0.8094 0.1505 0.0000
vt 0.8517 0.1442 0.0000
vt 0.7962 0.1442 0.0000
vt 0.7962 0.1508 0.0000
vt 0.8517 0.1508 0.0000
vt 0.8493 0.1207 0.0000
vt 0.8493 0.1246 0.0000
vt 0.7996 0.1207 0.0000
vt 0.7996 0.1246 0.0000
vt 0.8576 0.1236 0.0000
vt 0.8659 0.1236 0.0000
vt 0.9558 0.1739 0.0000
vt 0.9558 0.1760 0.0000
vt 0.9709 0.1760 0.0000
vt 0.9709 0.1739 0.0000
vt 0.9671 0.1723 0.0000
vt 0.9671 0.1591 0.0000
vt 0.9763 0.1591 0.0000
vt 0.9763 0.1723 0.0000
vt 0.9671 0.1739 0.0000
vt 0.9763 0.1739 0.0000
vt 0.9671 0.1747 0.0000
vt 0.9763 0.1747 0.0000
vt 0.9671 0.1764 0.0000
vt 0.9763 0.1764 0.0000
vt 0.9550 0.1750 0.0000
vt 0.9550 0.1764 0.0000
vt 0.9819 0.1764 0.0000
vt 0.9819 0.1750 0.0000
vt 0.9550 0.1736 0.0000
vt 0.9819 0.1736 0.0000
vt 0.9550 0.1579 0.0000
vt 0.9819 0.1579 0.0000
vt 0.9550 0.1565 0.0000
vt 0.9819 0.1565 0.0000
vt 0.9550 0.1551 0.0000
vt 0.9819 0.1551 0.0000
vt 0.9558 0.1461 0.0000
vt 0.9558 0.1439 0.0000
vt 0.9709 0.1439 0.0000
vt 0.9709 0.1461 0.0000
vt 0.9671 0.1682 0.0000
vt 0.9763 0.1682 0.0000
vt 0.9558 0.1450 0.0000
vt 0.9709 0.1450 0.0000
vt 0.9671 0.1706 0.0000
vt 0.9763 0.1706 0.0000
vt 0.9558 0.1407 0.0000
vt 0.9709 0.1407 0.0000
vt 0.9671 0.1608 0.0000
vt 0.9763 0.1608 0.0000
vt 0.9671 0.1632 0.0000
vt 0.9763 0.1632 0.0000
vt 0.9671 0.1575 0.0000
vt 0.9763 0.1575 0.0000
vt 0.9671 0.1567 0.0000
vt 0.9763 0.1567 0.0000
vt 0.9671 0.1550 0.0000
vt 0.9763 0.1550 0.0000
vt 0.9501 0.1571 0.0000
vt 0.9501 0.1557 0.0000
vt 0.9692 0.1557 0.0000
vt 0.9692 0.1571 0.0000
vt 0.9501 0.1585 0.0000
vt 0.9692 0.1585 0.0000
vt 0.9501 0.1737 0.0000
vt 0.9692 0.1737 0.0000
vt 0.9501 0.1751 0.0000
vt 0.9692 0.1751 0.0000
vt 0.9501 0.1764 0.0000
vt 0.9692 0.1764 0.0000
vt 0.7680 0.1261 0.0000
vt 0.8094 0.1261 0.0000
vt 0.7491 0.1227 0.0000
vt 0.7491 0.1301 0.0000
vt 0.6888 0.1301 0.0000
vt 0.6888 0.1227 0.0000
vt 0.7393 0.1178 0.0000
vt 0.7452 0.1178 0.0000
vt 0.7452 0.1765 0.0000
vt 0.7393 0.1765 0.0000
vt 0.7333 0.1178 0.0000
vt 0.7333 0.1765 0.0000
vt 0.7273 0.1178 0.0000
vt 0.7273 0.1765 0.0000
vt 0.7213 0.1178 0.0000
vt 0.7213 0.1765 0.0000
vt 0.7148 0.1178 0.0000
vt 0.7207 0.1178 0.0000
vt 0.7207 0.1765 0.0000
vt 0.7148 0.1765 0.0000
vt 0.7088 0.1178 0.0000
vt 0.7088 0.1765 0.0000
vt 0.7028 0.1178 0.0000
vt 0.7028 0.1765 0.0000
vt 0.6968 0.1178 0.0000
vt 0.6968 0.1765 0.0000
vt 0.6596 0.1741 0.0000
vt 0.6698 0.1741 0.0000
vt 0.6698 0.1759 0.0000
vt 0.6596 0.1759 0.0000
vt 0.5380 0.1583 0.0000
vt 0.5732 0.1583 0.0000
vt 0.5732 0.1601 0.0000
vt 0.5380 0.1601 0.0000
vt 0.5049 0.1579 0.0000
vt 0.5466 0.1579 0.0000
vt 0.5466 0.1601 0.0000
vt 0.5049 0.1601 0.0000
vt 0.6722 0.1737 0.0000
vt 0.6722 0.1762 0.0000
vt 0.6571 0.1762 0.0000
vt 0.6571 0.1737 0.0000
vt 0.6949 0.1681 0.0000
vt 0.7250 0.1681 0.0000
vt 0.7250 0.1755 0.0000
vt 0.6949 0.1755 0.0000
vt 0.5242 0.1681 0.0000
vt 0.5543 0.1681 0.0000
vt 0.5543 0.1755 0.0000
vt 0.5242 0.1755 0.0000
vt 0.5001 0.1681 0.0000
vt 0.5605 0.1681 0.0000
vt 0.5605 0.1755 0.0000
vt 0.5001 0.1755 0.0000
vt 0.6792 0.1763 0.0000
vt 0.6732 0.1763 0.0000
vt 0.6732 0.1178 0.0000
vt 0.6792 0.1178 0.0000
vt 0.6852 0.1763 0.0000
vt 0.6852 0.1178 0.0000
vt 0.6912 0.1763 0.0000
vt 0.6912 0.1178 0.0000
vt 0.6971 0.1763 0.0000
vt 0.6971 0.1178 0.0000
# 178 texture coords

g Mesh_1576
usemtl Material__5073
s 1
f 461/518/317 462/519/317 463/520/317 
s 2
f 461/518/317 463/520/317 464/521/317 
s 3
f 465/522/318 466/523/318 467/524/318 
s 4
f 465/522/318 467/524/318 468/525/318 
s 5
f 465/522/318 468/525/318 469/526/318 
s 6
f 470/527/318 471/528/318 468/525/318 
s 7
f 467/524/318 470/527/318 468/525/318 
s 8
f 465/522/318 472/529/318 473/530/318 
s 9
f 465/522/318 473/530/318 474/531/318 
s 10
f 465/522/318 474/531/318 466/523/318 
s 11
f 474/531/318 475/532/318 466/523/318 
s 12
f 475/532/318 476/533/318 466/523/318 
s 13
f 477/534/318 478/535/318 479/536/318 
s 14
f 480/537/318 477/534/318 479/536/318 
s 15
f 480/537/318 479/536/318 481/538/318 
s 16
f 480/537/318 481/538/318 473/530/318 
s 17
f 482/539/318 480/537/318 473/530/318 
s 18
f 472/529/318 482/539/318 473/530/318 
s 19
f 472/529/318 483/540/318 482/539/318 
s 20
f 483/540/318 484/541/318 482/539/318 
s 21
f 469/526/318 485/542/318 486/543/318 
s 22
f 469/526/318 486/543/318 487/544/318 
s 23
f 465/522/318 469/526/318 487/544/318 
s 24
f 465/522/318 487/544/318 488/545/318 
s 25
f 489/546/318 465/522/318 488/545/318 
s 26
f 489/546/318 488/545/318 490/547/318 
s 27
f 491/548/318 489/546/318 490/547/318 
s 28
f 491/548/318 490/547/318 492/549/318 
s 29
f 493/550/318 491/548/318 492/549/318 
s 30
f 494/551/318 493/550/318 492/549/318 
s 31
f 495/552/318 496/553/318 465/522/318 
s 32
f 489/546/318 495/552/318 465/522/318 
s 33
f 497/554/318 498/555/318 491/548/318 
s 34
f 493/550/318 497/554/318 491/548/318 
s 35
f 499/556/318 494/551/318 492/549/318 
s 36
f 500/557/318 499/556/318 492/549/318 
s 37
f 492/549/318 501/558/318 500/557/318 
s 38
f 501/558/318 502/559/318 500/557/318 
s 39
f 503/560/319 461/518/319 464/521/319 
s 40
f 503/560/319 464/521/319 504/561/319 
s 41
f 505/562/320 503/563/320 504/564/320 
s 42
f 505/562/320 504/564/320 506/565/320 
s 43
f 507/518/321 505/560/321 506/561/321 
s 44
f 507/518/321 506/561/321 508/521/321 
s 45
f 509/566/318 510/567/318 486/543/318 
s 46
f 511/568/318 509/566/318 486/543/318 
s 47
f 485/542/318 511/568/318 486/543/318 
s 48
f 485/542/318 512/569/318 511/568/318 
s 49
f 513/570/318 514/571/318 490/547/318 
s 50
f 488/545/318 513/570/318 490/547/318 
s 51
f 515/572/322 516/573/322 483/574/322 
s 52
f 515/572/322 483/574/322 472/575/322 
s 53
f 517/576/320 515/577/320 472/578/320 
s 54
f 517/576/320 472/578/320 465/579/320 
s 55
f 518/573/317 517/572/317 465/575/317 
s 56
f 518/573/317 465/575/317 496/574/317 
s 57
f 519/580/320 518/576/320 496/579/320 
s 58
f 519/580/320 496/579/320 495/581/320 
s 59
f 520/572/322 519/573/322 495/574/322 
s 60
f 520/572/322 495/574/322 489/575/322 
s 61
f 521/582/320 520/580/320 489/581/320 
s 62
f 521/582/320 489/581/320 491/583/320 
s 63
f 522/573/317 521/572/317 491/575/317 
s 64
f 522/573/317 491/575/317 498/574/317 
s 65
f 523/584/320 522/582/320 498/583/320 
s 66
f 523/584/320 498/583/320 497/585/320 
s 67
f 524/586/322 523/587/322 497/588/322 
s 68
f 524/586/322 497/588/322 493/589/322 
s 69
f 525/590/321 524/586/321 493/589/321 
s 70
f 525/590/321 493/589/321 494/591/321 
s 71
f 526/592/322 525/590/322 494/591/322 
s 72
f 526/592/322 494/591/322 499/593/322 
s 73
f 527/594/323 526/592/323 499/593/323 
s 74
f 527/594/323 499/593/323 500/595/323 
s 75
f 528/596/322 527/594/322 500/595/322 
s 76
f 528/596/322 500/595/322 502/597/322 
s 77
f 529/582/324 528/584/324 502/585/324 
s 78
f 529/582/324 502/585/324 501/583/324 
s 79
f 530/598/317 529/599/317 501/600/317 
s 80
f 530/598/317 501/600/317 492/601/317 
s 81
f 531/580/324 530/582/324 492/583/324 
s 82
f 531/580/324 492/583/324 490/581/324 
s 83
f 532/599/322 531/598/322 490/601/322 
s 84
f 532/599/322 490/601/322 514/600/322 
s 85
f 533/576/324 532/580/324 514/581/324 
s 86
f 533/576/324 514/581/324 513/579/324 
s 87
f 534/598/317 533/599/317 513/600/317 
s 88
f 534/598/317 513/600/317 488/601/317 
s 89
f 535/602/324 534/576/324 488/579/324 
s 90
f 535/602/324 488/579/324 487/603/324 
s 91
f 536/604/322 535/598/322 487/601/322 
s 92
f 536/604/322 487/601/322 486/605/322 
s 93
f 537/606/320 536/602/320 486/603/320 
s 94
f 537/606/320 486/603/320 510/607/320 
s 95
f 538/608/322 537/604/322 510/605/322 
s 96
f 538/608/322 510/605/322 509/609/322 
s 97
f 539/610/324 538/606/324 509/607/324 
s 98
f 539/610/324 509/607/324 511/611/324 
s 99
f 540/604/317 539/608/317 511/609/317 
s 100
f 540/604/317 511/609/317 512/605/317 
s 101
f 541/612/320 540/610/320 512/611/320 
s 102
f 541/612/320 512/611/320 485/613/320 
s 103
f 542/598/317 541/604/317 485/605/317 
s 104
f 542/598/317 485/605/317 469/601/317 
s 105
f 543/577/324 542/612/324 469/613/324 
s 106
f 543/577/324 469/613/324 468/578/324 
s 107
f 544/599/322 543/598/322 468/601/322 
s 108
f 544/599/322 468/601/322 471/600/322 
s 109
f 545/614/324 544/577/324 471/578/324 
s 110
f 545/614/324 471/578/324 470/615/324 
s 111
f 546/598/317 545/599/317 470/600/317 
s 112
f 546/598/317 470/600/317 467/601/317 
s 113
f 547/616/324 546/614/324 467/615/324 
s 114
f 547/616/324 467/615/324 466/617/324 
s 115
f 548/599/322 547/598/322 466/601/322 
s 116
f 548/599/322 466/601/322 476/600/322 
s 117
f 549/618/324 548/616/324 476/617/324 
s 118
f 549/618/324 476/617/324 475/619/324 
s 119
f 550/620/317 549/621/317 475/622/317 
s 120
f 550/620/317 475/622/317 474/623/317 
s 121
f 551/624/325 550/620/325 474/623/325 
s 122
f 551/624/325 474/623/325 473/625/325 
s 123
f 552/626/317 551/624/317 473/625/317 
s 124
f 552/626/317 473/625/317 481/627/317 
s 125
f 553/628/326 552/626/326 481/627/326 
s 126
f 553/628/326 481/627/326 479/629/326 
s 127
f 554/630/317 553/628/317 479/629/317 
s 128
f 554/630/317 479/629/317 478/631/317 
s 129
f 555/616/320 554/618/320 478/619/320 
s 130
f 555/616/320 478/619/320 477/617/320 
s 131
f 556/572/322 555/573/322 477/574/322 
s 132
f 556/572/322 477/574/322 480/575/322 
s 133
f 557/614/320 556/616/320 480/617/320 
s 134
f 557/614/320 480/617/320 482/615/320 
s 135
f 558/573/317 557/572/317 482/575/317 
s 136
f 558/573/317 482/575/317 484/574/317 
s 137
f 516/577/320 558/614/320 484/615/320 
s 138
f 516/577/320 484/615/320 483/578/320 
s 139
f 559/519/322 507/518/322 508/521/322 
s 140
f 559/519/322 508/521/322 560/520/322 
s 141
f 561/632/323 559/519/323 560/520/323 
s 142
f 561/632/323 560/520/323 562/633/323 
s 143
f 563/563/324 561/562/324 562/565/324 
s 144
f 563/563/324 562/565/324 564/564/324 
s 145
f 462/519/327 563/632/327 564/633/327 
s 146
f 462/519/327 564/633/327 463/520/327 
s 1
f 565/634/324 566/635/324 567/636/324 
s 2
f 567/636/324 568/637/324 565/634/324 
s 3
f 569/638/328 570/639/329 571/640/329 
s 4
f 571/640/329 572/641/328 569/638/328 
s 5
f 573/642/318 569/638/328 572/641/328 
s 6
f 572/641/328 574/643/330 573/642/318 
s 7
f 575/644/331 573/642/318 574/643/330 
s 8
f 574/643/332 576/645/331 575/644/331 
s 9
f 570/646/333 575/644/331 576/645/331 
s 10
f 576/645/331 571/647/333 570/646/333 
s 11
f 577/648/331 578/649/333 579/650/333 
s 12
f 579/650/333 580/651/331 577/648/331 
s 13
f 581/652/318 577/648/331 580/651/331 
s 14
f 580/651/331 582/653/334 581/652/318 
s 15
f 583/654/328 581/652/318 582/653/334 
s 16
f 582/653/335 584/655/328 583/654/328 
s 17
f 578/656/329 583/654/328 584/655/328 
s 18
f 584/655/328 579/657/329 578/656/329 
s 19
f 585/658/317 586/659/317 587/660/317 
s 20
f 587/660/317 588/661/317 585/658/317 
s 21
f 589/658/322 590/659/322 591/660/322 
s 22
f 591/660/322 592/661/322 589/658/322 
s 23
f 586/662/318 589/663/318 592/664/318 
s 24
f 592/664/318 587/665/318 586/662/318 
s 25
f 587/666/320 592/667/320 591/668/320 
s 26
f 591/668/320 588/669/320 587/666/320 
s 27
f 586/670/324 585/671/324 590/672/324 
s 28
f 590/672/324 589/673/324 586/670/324 
s 29
f 593/674/317 594/675/317 595/676/317 
s 30
f 595/676/317 596/677/317 593/674/317 
s 31
f 597/678/322 598/679/322 599/680/322 
s 32
f 599/680/322 600/681/322 597/678/322 
s 33
f 594/682/318 597/683/318 600/684/318 
s 34
f 600/684/318 595/685/318 594/682/318 
s 35
f 595/666/320 600/667/320 599/668/320 
s 36
f 599/668/320 596/669/320 595/666/320 
s 37
f 594/634/324 593/635/324 598/636/324 
s 38
f 598/636/324 597/637/324 594/634/324 
s 39
f 566/674/317 565/675/317 601/676/317 
s 40
f 601/676/317 602/677/317 566/674/317 
s 41
f 568/678/322 567/679/322 603/680/322 
s 42
f 603/680/322 604/681/322 568/678/322 
s 43
f 565/682/318 568/683/318 604/684/318 
s 44
f 604/684/318 601/685/318 565/682/318 
s 45
f 601/666/320 604/667/320 603/668/320 
s 46
f 603/668/320 602/669/320 601/666/320 
s 47
f 605/686/331 606/687/333 607/688/333 
s 48
f 607/688/333 608/689/331 605/686/331 
s 49
f 609/690/318 605/686/331 608/689/331 
s 50
f 608/689/331 610/691/318 609/690/318 
s 51
f 611/692/328 609/690/318 610/691/318 
s 52
f 610/691/318 612/693/328 611/692/328 
s 53
f 606/694/329 611/692/328 612/693/328 
s 54
f 612/693/328 607/695/329 606/694/329 
# 0 polygons - 200 triangles

#
# object Box002
#

v  -17.7595 0.0000 11.9608
v  -17.7595 10.7500 11.9608
v  17.2405 10.7500 11.9608
v  17.2405 0.0000 11.9608
v  17.2405 0.0000 -13.0392
v  17.2405 10.7500 -13.0392
v  -17.7595 10.7500 -13.0392
v  -17.7595 0.0000 -13.0392
# 8 vertices

vn 0.0000 0.0000 -1.0000
vn -1.0000 0.0000 -0.0000
vn 0.0000 0.0000 1.0000
vn 1.0000 0.0000 -0.0000
# 4 vertex normals

vt 0.0006 0.7968 0.0000
vt 0.0006 0.9963 0.0000
vt 2.8521 0.9963 0.0000
vt 2.8521 0.7968 0.0000
vt 2.0828 0.8005 0.0000
vt 0.0020 0.8005 0.0000
vt 0.0020 0.9963 0.0000
vt 2.0828 0.9963 0.0000
vt 0.0016 0.7969 0.0000
vt 0.0016 0.9958 0.0000
vt 2.9595 0.9958 0.0000
vt 2.9595 0.7969 0.0000
vt 2.0772 0.8012 0.0000
vt 0.0002 0.8012 0.0000
vt 0.0002 0.9967 0.0000
vt 2.0772 0.9967 0.0000
# 16 texture coords

g Box002
usemtl Material__5073
s 8
f 613/696/336 614/697/336 615/698/336 616/699/336 
s 16
f 617/700/337 616/701/337 615/702/337 618/703/337 
s 32
f 617/704/338 618/705/338 619/706/338 620/707/338 
s 64
f 613/708/339 620/709/339 619/710/339 614/711/339 
# 4 polygons