# Blender v3.2.0 OBJ File: 'stalker rips.blend'
# www.blender.org
mtllib pipe_concrete_end.mtl
o default/crete\crete_walls_old_01.dds.003_Mesh.079
v 0.049863 0.726481 -0.804756
v 0.057827 0.719560 -0.953164
v -0.282871 0.721482 -0.911641
v -0.282871 0.721482 -0.911641
v -0.239497 0.728018 -0.769385
v 0.049863 0.726481 -0.804756
v -0.239497 0.728018 -0.769385
v -0.282871 0.721482 -0.911641
v -0.588779 0.728787 -0.755928
v -0.588779 0.728787 -0.755928
v -0.499331 0.734170 -0.637510
v -0.239497 0.728018 -0.769385
v -0.499331 0.734170 -0.637510
v -0.588779 0.728787 -0.755928
v -0.822959 0.740321 -0.505640
v -0.822959 0.740321 -0.505640
v -0.698320 0.744166 -0.424512
v -0.499331 0.734170 -0.637510
v -0.698320 0.744166 -0.424512
v -0.822959 0.740321 -0.505640
v -0.957295 0.755315 -0.189985
v -0.957295 0.755315 -0.189985
v -0.812412 0.756853 -0.156533
v -0.698320 0.744166 -0.424512
v -0.812412 0.756853 -0.156533
v -0.957295 0.755315 -0.189985
v -0.975478 0.771463 0.152197
v -0.975478 0.771463 0.152197
v -0.827920 0.770694 0.134126
v -0.812412 0.756853 -0.156533
v -0.827920 0.770694 0.134126
v -0.975478 0.771463 0.152197
v -0.875405 0.786842 0.480151
v -0.875405 0.786842 0.480151
v -0.742881 0.783766 0.412871
v -0.827920 0.770694 0.134126
v -0.742881 0.783766 0.412871
v -0.875405 0.786842 0.480151
v -0.669023 0.799530 0.754282
v -0.669023 0.799530 0.754282
v -0.567524 0.794532 0.645478
v -0.742881 0.783766 0.412871
v -0.567524 0.794532 0.645478
v -0.669023 0.799530 0.754282
v -0.381382 0.808373 0.941138
v -0.381382 0.808373 0.941138
v -0.323203 0.801837 0.804263
v -0.567524 0.794532 0.645478
v -0.323203 0.801837 0.804263
v -0.381382 0.808373 0.941138
v -0.047056 0.812218 1.018413
v -0.047056 0.812218 1.018413
v -0.039106 0.804913 0.870010
v -0.323203 0.801837 0.804263
v -0.039106 0.804913 0.870010
v -0.047056 0.812218 1.018413
v 0.293657 0.809911 0.976894
v 0.293657 0.809911 0.976894
v 0.250259 0.803375 0.834639
v -0.039106 0.804913 0.870010
v 0.250259 0.803375 0.834639
v 0.293657 0.809911 0.976894
v 0.599556 0.802606 0.821567
v 0.599556 0.802606 0.821567
v 0.510103 0.797224 0.702764
v 0.250259 0.803375 0.834639
v 0.510103 0.797224 0.702764
v 0.599556 0.802606 0.821567
v 0.833735 0.791072 0.570889
v 0.833735 0.791072 0.570889
v 0.709082 0.787227 0.489766
v 0.510103 0.797224 0.702764
v 0.709082 0.787227 0.489766
v 0.833735 0.791072 0.570889
v 0.968062 0.776078 0.255234
v 0.968062 0.776078 0.255234
v 0.823174 0.774540 0.221787
v 0.709082 0.787227 0.489766
v 0.823174 0.774540 0.221787
v 0.968062 0.776078 0.255234
v 0.986240 0.760315 -0.086943
v 0.986240 0.760315 -0.086943
v 0.838687 0.761083 -0.068877
v 0.823174 0.774540 0.221787
v 0.838687 0.761083 -0.068877
v 0.986240 0.760315 -0.086943
v 0.886172 0.744936 -0.414902
v 0.886172 0.744936 -0.414902
v 0.753643 0.748011 -0.347617
v 0.838687 0.761083 -0.068877
v 0.753643 0.748011 -0.347617
v 0.886172 0.744936 -0.414902
v 0.679790 0.731864 -0.688647
v 0.679790 0.731864 -0.688647
v 0.578301 0.736862 -0.580225
v 0.753643 0.748011 -0.347617
v 0.578301 0.736862 -0.580225
v 0.679790 0.731864 -0.688647
v 0.392153 0.723021 -0.875503
v 0.392153 0.723021 -0.875503
v 0.333970 0.729557 -0.739014
v 0.578301 0.736862 -0.580225
v 0.333970 0.729557 -0.739014
v 0.392153 0.723021 -0.875503
v 0.057827 0.719560 -0.953164
v 0.057827 0.719560 -0.953164
v 0.049863 0.726481 -0.804756
v 0.333970 0.729557 -0.739014
v -0.282871 0.721482 -0.911641
v -0.282886 0.000000 -0.873193
v -0.588711 0.000000 -0.717866
v -0.588711 0.000000 -0.717866
v -0.588779 0.728787 -0.755928
v -0.282871 0.721482 -0.911641
v -0.588779 0.728787 -0.755928
v -0.588711 0.000000 -0.717866
v -0.822964 0.000000 -0.467187
v -0.822964 0.000000 -0.467187
v -0.822959 0.740321 -0.505640
v -0.588779 0.728787 -0.755928
v -0.822959 0.740321 -0.505640
v -0.822964 0.000000 -0.467187
v -0.957300 0.000000 -0.151924
v -0.957300 0.000000 -0.151924
v -0.957295 0.755315 -0.189985
v -0.822959 0.740321 -0.505640
v -0.957295 0.755315 -0.189985
v -0.957300 0.000000 -0.151924
v -0.975478 0.000000 0.190645
v -0.975478 0.000000 0.190645
v -0.975478 0.771463 0.152197
v -0.957295 0.755315 -0.189985
v -0.975478 0.771463 0.152197
v -0.975478 0.000000 0.190645
v -0.875405 0.000000 0.518218
v -0.875405 0.000000 0.518218
v -0.875405 0.786842 0.480151
v -0.975478 0.771463 0.152197
v -0.875405 0.786842 0.480151
v -0.875405 0.000000 0.518218
v -0.669023 0.000000 0.792344
v -0.669023 0.000000 0.792344
v -0.669023 0.799530 0.754282
v -0.875405 0.786842 0.480151
v -0.669023 0.799530 0.754282
v -0.669023 0.000000 0.792344
v -0.381387 0.000000 0.979199
v -0.381387 0.000000 0.979199
v -0.381382 0.808373 0.941138
v -0.669023 0.799530 0.754282
v -0.239497 0.000000 -0.731323
v -0.239497 0.728018 -0.769385
v -0.499331 0.734170 -0.637510
v -0.499331 0.734170 -0.637510
v -0.499341 0.000000 -0.599063
v -0.239497 0.000000 -0.731323
v -0.499341 0.000000 -0.599063
v -0.499331 0.734170 -0.637510
v -0.698320 0.744166 -0.424512
v -0.698320 0.744166 -0.424512
v -0.698315 0.000000 -0.386450
v -0.499341 0.000000 -0.599063
v -0.698315 0.000000 -0.386450
v -0.698320 0.744166 -0.424512
v -0.812412 0.756853 -0.156533
v -0.812412 0.756853 -0.156533
v -0.812407 0.000000 -0.118472
v -0.698315 0.000000 -0.386450
v -0.812407 0.000000 -0.118472
v -0.812412 0.756853 -0.156533
v -0.827920 0.770694 0.134126
v -0.827920 0.770694 0.134126
v -0.827925 0.000000 0.172573
v -0.812407 0.000000 -0.118472
v -0.827925 0.000000 0.172573
v -0.827920 0.770694 0.134126
v -0.742881 0.783766 0.412871
v -0.742881 0.783766 0.412871
v -0.742886 0.000000 0.450933
v -0.827925 0.000000 0.172573
v -0.742886 0.000000 0.450933
v -0.742881 0.783766 0.412871
v -0.567524 0.794532 0.645478
v -0.567524 0.794532 0.645478
v -0.567524 0.000000 0.683540
v -0.742886 0.000000 0.450933
v -0.567524 0.000000 0.683540
v -0.567524 0.794532 0.645478
v -0.323203 0.801837 0.804263
v -0.323203 0.801837 0.804263
v -0.323120 0.000000 0.842710
v -0.567524 0.000000 0.683540
v -0.381382 0.808373 0.941138
v -0.381387 0.000000 0.979199
v -0.046973 0.000000 1.056479
v -0.046973 0.000000 1.056479
v -0.047056 0.812218 1.018413
v -0.381382 0.808373 0.941138
v -0.047056 0.812218 1.018413
v -0.046973 0.000000 1.056479
v 0.293652 0.000000 1.014956
v 0.293652 0.000000 1.014956
v 0.293657 0.809911 0.976894
v -0.047056 0.812218 1.018413
v -0.323120 0.000000 0.842710
v -0.323203 0.801837 0.804263
v -0.039106 0.804913 0.870010
v -0.039106 0.804913 0.870010
v -0.039106 0.000000 0.908071
v -0.323120 0.000000 0.842710
v -0.039106 0.000000 0.908071
v -0.039106 0.804913 0.870010
v 0.250259 0.803375 0.834639
v 0.250259 0.803375 0.834639
v 0.250269 0.000000 0.873086
v -0.039106 0.000000 0.908071
v 0.250269 0.000000 0.873086
v 0.250259 0.803375 0.834639
v 0.510103 0.797224 0.702764
v 0.510103 0.797224 0.702764
v 0.510107 0.000000 0.740825
v 0.250269 0.000000 0.873086
v 0.510107 0.000000 0.740825
v 0.510103 0.797224 0.702764
v 0.709082 0.787227 0.489766
v 0.709082 0.787227 0.489766
v 0.709082 0.000000 0.528213
v 0.510107 0.000000 0.740825
v 0.293657 0.809911 0.976894
v 0.293652 0.000000 1.014956
v 0.599561 0.000000 0.859629
v 0.599561 0.000000 0.859629
v 0.599556 0.802606 0.821567
v 0.293657 0.809911 0.976894
v 0.599556 0.802606 0.821567
v 0.599561 0.000000 0.859629
v 0.833730 0.000000 0.608950
v 0.833730 0.000000 0.608950
v 0.833735 0.791072 0.570889
v 0.599556 0.802606 0.821567
v 0.833735 0.791072 0.570889
v 0.833730 0.000000 0.608950
v 0.968062 0.000000 0.293682
v 0.968062 0.000000 0.293682
v 0.968062 0.776078 0.255234
v 0.833735 0.791072 0.570889
v 0.968062 0.776078 0.255234
v 0.968062 0.000000 0.293682
v 0.986245 0.000000 -0.048882
v 0.986245 0.000000 -0.048882
v 0.986240 0.760315 -0.086943
v 0.968062 0.776078 0.255234
v 0.986240 0.760315 -0.086943
v 0.986245 0.000000 -0.048882
v 0.886172 0.000000 -0.376455
v 0.886172 0.000000 -0.376455
v 0.886172 0.744936 -0.414902
v 0.986240 0.760315 -0.086943
v 0.886172 0.744936 -0.414902
v 0.886172 0.000000 -0.376455
v 0.679790 0.000000 -0.650586
v 0.679790 0.000000 -0.650586
v 0.679790 0.731864 -0.688647
v 0.886172 0.744936 -0.414902
v 0.679790 0.731864 -0.688647
v 0.679790 0.000000 -0.650586
v 0.392153 0.000000 -0.837436
v 0.392153 0.000000 -0.837436
v 0.392153 0.723021 -0.875503
v 0.679790 0.731864 -0.688647
v -0.239497 0.728018 -0.769385
v -0.239497 0.000000 -0.731323
v 0.049956 0.000000 -0.766694
v 0.049956 0.000000 -0.766694
v 0.049863 0.726481 -0.804756
v -0.239497 0.728018 -0.769385
v 0.709082 0.000000 0.528213
v 0.709082 0.787227 0.489766
v 0.823174 0.774540 0.221787
v 0.823174 0.774540 0.221787
v 0.823179 0.000000 0.260234
v 0.709082 0.000000 0.528213
v 0.823179 0.000000 0.260234
v 0.823174 0.774540 0.221787
v 0.838687 0.761083 -0.068877
v 0.838687 0.761083 -0.068877
v 0.838691 0.000000 -0.030811
v 0.823179 0.000000 0.260234
v 0.838691 0.000000 -0.030811
v 0.838687 0.761083 -0.068877
v 0.753643 0.748011 -0.347617
v 0.753643 0.748011 -0.347617
v 0.753652 0.000000 -0.309170
v 0.838691 0.000000 -0.030811
v 0.753652 0.000000 -0.309170
v 0.753643 0.748011 -0.347617
v 0.578301 0.736862 -0.580225
v 0.578301 0.736862 -0.580225
v 0.578374 0.000000 -0.542163
v 0.753652 0.000000 -0.309170
v 0.578374 0.000000 -0.542163
v 0.578301 0.736862 -0.580225
v 0.333970 0.729557 -0.739014
v 0.333970 0.729557 -0.739014
v 0.333970 0.000000 -0.700952
v 0.578374 0.000000 -0.542163
v 0.333970 0.000000 -0.700952
v 0.333970 0.729557 -0.739014
v 0.049863 0.726481 -0.804756
v 0.049863 0.726481 -0.804756
v 0.049956 0.000000 -0.766694
v 0.333970 0.000000 -0.700952
v -0.282886 0.000000 -0.873193
v -0.282871 0.721482 -0.911641
v 0.057827 0.719560 -0.953164
v 0.057827 0.719560 -0.953164
v 0.057827 0.000000 -0.914717
v -0.282886 0.000000 -0.873193
v 0.057827 0.000000 -0.914717
v 0.057827 0.719560 -0.953164
v 0.392153 0.723021 -0.875503
v 0.392153 0.723021 -0.875503
v 0.392153 0.000000 -0.837436
v 0.057827 0.000000 -0.914717
v 0.057832 0.000000 -0.914722
v 0.049961 0.000000 -0.766699
v -0.239492 0.000000 -0.731328
v -0.239492 0.000000 -0.731328
v -0.282881 0.000000 -0.873198
v 0.057832 0.000000 -0.914722
v -0.282881 0.000000 -0.873198
v -0.239492 0.000000 -0.731328
v -0.499336 0.000000 -0.599067
v -0.499336 0.000000 -0.599067
v -0.588706 0.000000 -0.717871
v -0.282881 0.000000 -0.873198
v -0.588706 0.000000 -0.717871
v -0.499336 0.000000 -0.599067
v -0.698311 0.000000 -0.386455
v -0.698311 0.000000 -0.386455
v -0.822959 0.000000 -0.467192
v -0.588706 0.000000 -0.717871
v -0.822959 0.000000 -0.467192
v -0.698311 0.000000 -0.386455
v -0.812402 0.000000 -0.118477
v -0.812402 0.000000 -0.118477
v -0.957295 0.000000 -0.151929
v -0.822959 0.000000 -0.467192
v -0.957295 0.000000 -0.151929
v -0.812402 0.000000 -0.118477
v -0.827920 0.000000 0.172568
v -0.827920 0.000000 0.172568
v -0.975474 0.000000 0.190640
v -0.957295 0.000000 -0.151929
v -0.975474 0.000000 0.190640
v -0.827920 0.000000 0.172568
v -0.742881 0.000000 0.450928
v -0.742881 0.000000 0.450928
v -0.875400 0.000000 0.518213
v -0.975474 0.000000 0.190640
v -0.875400 0.000000 0.518213
v -0.742881 0.000000 0.450928
v -0.567520 0.000000 0.683535
v -0.567520 0.000000 0.683535
v -0.669019 0.000000 0.792339
v -0.875400 0.000000 0.518213
v -0.669019 0.000000 0.792339
v -0.567520 0.000000 0.683535
v -0.323115 0.000000 0.842705
v -0.323115 0.000000 0.842705
v -0.381382 0.000000 0.979194
v -0.669019 0.000000 0.792339
v -0.381382 0.000000 0.979194
v -0.323115 0.000000 0.842705
v -0.039102 0.000000 0.908066
v -0.039102 0.000000 0.908066
v -0.046968 0.000000 1.056475
v -0.381382 0.000000 0.979194
v -0.046968 0.000000 1.056475
v -0.039102 0.000000 0.908066
v 0.250273 0.000000 0.873081
v 0.250273 0.000000 0.873081
v 0.293657 0.000000 1.014951
v -0.046968 0.000000 1.056475
v 0.293657 0.000000 1.014951
v 0.250273 0.000000 0.873081
v 0.510112 0.000000 0.740820
v 0.510112 0.000000 0.740820
v 0.599565 0.000000 0.859624
v 0.293657 0.000000 1.014951
v 0.599565 0.000000 0.859624
v 0.510112 0.000000 0.740820
v 0.709087 0.000000 0.528208
v 0.709087 0.000000 0.528208
v 0.833735 0.000000 0.608945
v 0.599565 0.000000 0.859624
v 0.833735 0.000000 0.608945
v 0.709087 0.000000 0.528208
v 0.823184 0.000000 0.260229
v 0.823184 0.000000 0.260229
v 0.968066 0.000000 0.293677
v 0.833735 0.000000 0.608945
v 0.968066 0.000000 0.293677
v 0.823184 0.000000 0.260229
v 0.838696 0.000000 -0.030815
v 0.838696 0.000000 -0.030815
v 0.986250 0.000000 -0.048887
v 0.968066 0.000000 0.293677
v 0.986250 0.000000 -0.048887
v 0.838696 0.000000 -0.030815
v 0.753657 0.000000 -0.309175
v 0.753657 0.000000 -0.309175
v 0.886177 0.000000 -0.376460
v 0.986250 0.000000 -0.048887
v 0.886177 0.000000 -0.376460
v 0.753657 0.000000 -0.309175
v 0.578379 0.000000 -0.542168
v 0.578379 0.000000 -0.542168
v 0.679795 0.000000 -0.650591
v 0.886177 0.000000 -0.376460
v 0.679795 0.000000 -0.650591
v 0.578379 0.000000 -0.542168
v 0.333975 0.000000 -0.700957
v 0.333975 0.000000 -0.700957
v 0.392158 0.000000 -0.837441
v 0.679795 0.000000 -0.650591
v 0.392158 0.000000 -0.837441
v 0.333975 0.000000 -0.700957
v 0.049961 0.000000 -0.766699
v 0.049961 0.000000 -0.766699
v 0.057832 0.000000 -0.914722
v 0.392158 0.000000 -0.837441
vt 0.871932 0.313173
vt 0.871932 0.316684
vt 0.867850 0.316684
vt 0.867850 0.316684
vt 0.867850 0.313173
vt 0.871932 0.313173
vt 0.867850 0.313173
vt 0.867850 0.316684
vt 0.863767 0.316684
vt 0.863767 0.316684
vt 0.863767 0.313173
vt 0.867850 0.313173
vt 0.863767 0.313173
vt 0.863767 0.316684
vt 0.859685 0.316684
vt 0.859685 0.316684
vt 0.859685 0.313173
vt 0.863767 0.313173
vt 0.859685 0.313173
vt 0.859685 0.316684
vt 0.855643 0.316684
vt 0.855643 0.316684
vt 0.855643 0.313173
vt 0.859685 0.313173
vt 0.855643 0.313173
vt 0.855643 0.316684
vt 0.851561 0.316684
vt 0.851561 0.316684
vt 0.851561 0.313173
vt 0.855643 0.313173
vt 0.851561 0.313173
vt 0.851561 0.316684
vt 0.847478 0.316684
vt 0.847478 0.316684
vt 0.847478 0.313173
vt 0.851561 0.313173
vt 0.847478 0.313173
vt 0.847478 0.316684
vt 0.843437 0.316684
vt 0.843437 0.316684
vt 0.843437 0.313173
vt 0.847478 0.313173
vt 0.843437 0.313173
vt 0.843437 0.316684
vt 0.839354 0.316684
vt 0.839354 0.316684
vt 0.839354 0.313173
vt 0.843437 0.313173
vt 0.839354 0.313173
vt 0.839354 0.316684
vt 0.835272 0.316684
vt 0.835272 0.316684
vt 0.835272 0.313173
vt 0.839354 0.313173
vt 0.835272 0.313173
vt 0.835272 0.316684
vt 0.831189 0.316684
vt 0.831189 0.316684
vt 0.831189 0.313173
vt 0.835272 0.313173
vt 0.831189 0.313173
vt 0.831189 0.316684
vt 0.827148 0.316684
vt 0.827148 0.316684
vt 0.827148 0.313173
vt 0.831189 0.313173
vt 0.827148 0.313173
vt 0.827148 0.316684
vt 0.823065 0.316684
vt 0.823065 0.316684
vt 0.823065 0.313173
vt 0.827148 0.313173
vt 0.823065 0.313173
vt 0.823065 0.316684
vt 0.818983 0.316684
vt 0.818983 0.316684
vt 0.818983 0.313173
vt 0.823065 0.313173
vt 0.818983 0.313173
vt 0.818983 0.316684
vt 0.814941 0.316684
vt 0.814941 0.316684
vt 0.814941 0.313173
vt 0.818983 0.313173
vt 0.814941 0.313173
vt 0.814941 0.316684
vt 0.810859 0.316684
vt 0.810859 0.316684
vt 0.810859 0.313173
vt 0.814941 0.313173
vt 0.810859 0.313173
vt 0.810859 0.316684
vt 0.806776 0.316684
vt 0.806776 0.316684
vt 0.806776 0.313173
vt 0.810859 0.313173
vt 0.806776 0.313173
vt 0.806776 0.316684
vt 0.802735 0.316684
vt 0.802735 0.316684
vt 0.802735 0.313173
vt 0.806776 0.313173
vt 0.802735 0.313173
vt 0.802735 0.316684
vt 0.798652 0.316684
vt 0.798652 0.316684
vt 0.798652 0.313173
vt 0.802735 0.313173
vt 0.817455 0.300889
vt 0.817610 0.288654
vt 0.822475 0.288654
vt 0.822475 0.288654
vt 0.822160 0.301013
vt 0.817455 0.300889
vt 0.822160 0.301013
vt 0.822475 0.288654
vt 0.827315 0.288654
vt 0.827315 0.288654
vt 0.826878 0.301208
vt 0.822160 0.301013
vt 0.826878 0.301208
vt 0.827315 0.288654
vt 0.832120 0.288654
vt 0.832120 0.288654
vt 0.831613 0.301462
vt 0.826878 0.301208
vt 0.831613 0.301462
vt 0.832120 0.288654
vt 0.836910 0.288654
vt 0.836910 0.288654
vt 0.836373 0.301736
vt 0.831613 0.301462
vt 0.836373 0.301736
vt 0.836910 0.288654
vt 0.841640 0.288654
vt 0.841640 0.288654
vt 0.841170 0.301997
vt 0.836373 0.301736
vt 0.841170 0.301997
vt 0.841640 0.288654
vt 0.846371 0.288654
vt 0.846371 0.288654
vt 0.846006 0.302212
vt 0.841170 0.301997
vt 0.846006 0.302212
vt 0.846371 0.288654
vt 0.851076 0.288654
vt 0.851076 0.288654
vt 0.850871 0.302362
vt 0.846006 0.302212
vt 0.817631 0.288654
vt 0.817438 0.301000
vt 0.822131 0.301104
vt 0.822131 0.301104
vt 0.822504 0.288654
vt 0.817631 0.288654
vt 0.822504 0.288654
vt 0.822131 0.301104
vt 0.826836 0.301273
vt 0.826836 0.301273
vt 0.827348 0.288654
vt 0.822504 0.288654
vt 0.827348 0.288654
vt 0.826836 0.301273
vt 0.831563 0.301489
vt 0.831563 0.301489
vt 0.832171 0.288654
vt 0.827348 0.288654
vt 0.832171 0.288654
vt 0.831563 0.301489
vt 0.836327 0.301723
vt 0.836327 0.301723
vt 0.836947 0.288654
vt 0.832171 0.288654
vt 0.836947 0.288654
vt 0.836327 0.301723
vt 0.841133 0.301945
vt 0.841133 0.301945
vt 0.841686 0.288654
vt 0.836947 0.288654
vt 0.841686 0.288654
vt 0.841133 0.301945
vt 0.845972 0.302127
vt 0.845972 0.302127
vt 0.846400 0.288654
vt 0.841686 0.288654
vt 0.846400 0.288654
vt 0.845972 0.302127
vt 0.850841 0.302251
vt 0.850841 0.302251
vt 0.851085 0.288654
vt 0.846400 0.288654
vt 0.850871 0.302362
vt 0.851076 0.288654
vt 0.855765 0.288654
vt 0.855765 0.288654
vt 0.855731 0.302427
vt 0.850871 0.302362
vt 0.855731 0.302427
vt 0.855765 0.288654
vt 0.860462 0.288654
vt 0.860462 0.288654
vt 0.860608 0.302388
vt 0.855731 0.302427
vt 0.851085 0.288654
vt 0.850841 0.302251
vt 0.855731 0.302303
vt 0.855731 0.302303
vt 0.855773 0.288654
vt 0.851085 0.288654
vt 0.855773 0.288654
vt 0.855731 0.302303
vt 0.860629 0.302277
vt 0.860629 0.302277
vt 0.860441 0.288654
vt 0.855773 0.288654
vt 0.860441 0.288654
vt 0.860629 0.302277
vt 0.865515 0.302173
vt 0.865515 0.302173
vt 0.865133 0.288654
vt 0.860441 0.288654
vt 0.865133 0.288654
vt 0.865515 0.302173
vt 0.870359 0.302004
vt 0.870359 0.302004
vt 0.869839 0.288654
vt 0.865133 0.288654
vt 0.860608 0.302388
vt 0.860462 0.288654
vt 0.865163 0.288654
vt 0.865163 0.288654
vt 0.865481 0.302264
vt 0.860608 0.302388
vt 0.865481 0.302264
vt 0.865163 0.288654
vt 0.869872 0.288654
vt 0.869872 0.288654
vt 0.870321 0.302069
vt 0.865481 0.302264
vt 0.870321 0.302069
vt 0.869872 0.288654
vt 0.874611 0.288654
vt 0.874611 0.288654
vt 0.875131 0.301815
vt 0.870321 0.302069
vt 0.875131 0.301815
vt 0.874611 0.288654
vt 0.879380 0.288654
vt 0.879380 0.288654
vt 0.879900 0.301547
vt 0.875131 0.301815
vt 0.879900 0.301547
vt 0.879380 0.288654
vt 0.884169 0.288654
vt 0.884169 0.288654
vt 0.884647 0.301286
vt 0.879900 0.301547
vt 0.884647 0.301286
vt 0.884169 0.288654
vt 0.889004 0.288654
vt 0.889004 0.288654
vt 0.889365 0.301065
vt 0.884647 0.301286
vt 0.889365 0.301065
vt 0.889004 0.288654
vt 0.893861 0.288654
vt 0.893861 0.288654
vt 0.894070 0.300915
vt 0.889365 0.301065
vt 0.903452 0.301000
vt 0.903628 0.288654
vt 0.898742 0.288654
vt 0.898742 0.288654
vt 0.898763 0.300973
vt 0.903452 0.301000
vt 0.869839 0.288654
vt 0.870359 0.302004
vt 0.875165 0.301788
vt 0.875165 0.301788
vt 0.874553 0.288654
vt 0.869839 0.288654
vt 0.874553 0.288654
vt 0.875165 0.301788
vt 0.879946 0.301560
vt 0.879946 0.301560
vt 0.879338 0.288654
vt 0.874553 0.288654
vt 0.879338 0.288654
vt 0.879946 0.301560
vt 0.884689 0.301339
vt 0.884689 0.301339
vt 0.884131 0.288654
vt 0.879338 0.288654
vt 0.884131 0.288654
vt 0.884689 0.301339
vt 0.889398 0.301149
vt 0.889398 0.301149
vt 0.888979 0.288654
vt 0.884131 0.288654
vt 0.888979 0.288654
vt 0.889398 0.301149
vt 0.894087 0.301026
vt 0.894087 0.301026
vt 0.893844 0.288654
vt 0.888979 0.288654
vt 0.893844 0.288654
vt 0.894087 0.301026
vt 0.898763 0.300973
vt 0.898763 0.300973
vt 0.898742 0.288654
vt 0.893844 0.288654
vt 0.903619 0.288654
vt 0.903460 0.300889
vt 0.898763 0.300856
vt 0.898763 0.300856
vt 0.898742 0.288654
vt 0.903619 0.288654
vt 0.898742 0.288654
vt 0.898763 0.300856
vt 0.894070 0.300915
vt 0.894070 0.300915
vt 0.893861 0.288654
vt 0.898742 0.288654
vt 0.873483 0.313255
vt 0.873483 0.316684
vt 0.869319 0.316684
vt 0.869319 0.316684
vt 0.869319 0.313255
vt 0.873483 0.313255
vt 0.869319 0.313255
vt 0.869319 0.316684
vt 0.865155 0.316684
vt 0.865155 0.316684
vt 0.865155 0.313255
vt 0.869319 0.313255
vt 0.865155 0.313255
vt 0.865155 0.316684
vt 0.860991 0.316684
vt 0.860991 0.316684
vt 0.860991 0.313255
vt 0.865155 0.313255
vt 0.860991 0.313255
vt 0.860991 0.316684
vt 0.856827 0.316684
vt 0.856827 0.316684
vt 0.856827 0.313255
vt 0.860991 0.313255
vt 0.856827 0.313255
vt 0.856827 0.316684
vt 0.852704 0.316684
vt 0.852704 0.316684
vt 0.852704 0.313255
vt 0.856827 0.313255
vt 0.852704 0.313255
vt 0.852704 0.316684
vt 0.848540 0.316684
vt 0.848540 0.316684
vt 0.848540 0.313255
vt 0.852704 0.313255
vt 0.848540 0.313255
vt 0.848540 0.316684
vt 0.844376 0.316684
vt 0.844376 0.316684
vt 0.844376 0.313255
vt 0.848540 0.313255
vt 0.844376 0.313255
vt 0.844376 0.316684
vt 0.840212 0.316684
vt 0.840212 0.316684
vt 0.840212 0.313255
vt 0.844376 0.313255
vt 0.840212 0.313255
vt 0.840212 0.316684
vt 0.836047 0.316684
vt 0.836047 0.316684
vt 0.836047 0.313255
vt 0.840212 0.313255
vt 0.836047 0.313255
vt 0.836047 0.316684
vt 0.831924 0.316684
vt 0.831924 0.316684
vt 0.831924 0.313255
vt 0.836047 0.313255
vt 0.831924 0.313255
vt 0.831924 0.316684
vt 0.827760 0.316684
vt 0.827760 0.316684
vt 0.827760 0.313255
vt 0.831924 0.313255
vt 0.827760 0.313255
vt 0.827760 0.316684
vt 0.823596 0.316684
vt 0.823596 0.316684
vt 0.823596 0.313255
vt 0.827760 0.313255
vt 0.823596 0.313255
vt 0.823596 0.316684
vt 0.819432 0.316684
vt 0.819432 0.316684
vt 0.819432 0.313255
vt 0.823596 0.313255
vt 0.819432 0.313255
vt 0.819432 0.316684
vt 0.815268 0.316684
vt 0.815268 0.316684
vt 0.815268 0.313255
vt 0.819432 0.313255
vt 0.815268 0.313255
vt 0.815268 0.316684
vt 0.811145 0.316684
vt 0.811145 0.316684
vt 0.811145 0.313255
vt 0.815268 0.313255
vt 0.811145 0.313255
vt 0.811145 0.316684
vt 0.806981 0.316684
vt 0.806981 0.316684
vt 0.806981 0.313255
vt 0.811145 0.313255
vt 0.806981 0.313255
vt 0.806981 0.316684
vt 0.802816 0.316684
vt 0.802816 0.316684
vt 0.802816 0.313255
vt 0.806981 0.313255
vt 0.802816 0.313255
vt 0.802816 0.316684
vt 0.798652 0.316684
vt 0.798652 0.316684
vt 0.798652 0.313255
vt 0.802816 0.313255
vn -0.0000 0.9989 -0.0466
vn 0.0000 0.9989 -0.0463
vn -0.0003 0.9990 -0.0458
vn -0.0002 0.9989 -0.0461
vn -0.0000 0.9989 -0.0458
vn 0.0001 0.9989 -0.0460
vn 0.0004 0.9990 -0.0457
vn 0.0002 0.9989 -0.0460
vn -0.0001 0.9989 -0.0459
vn 0.0000 0.9989 -0.0470
vn -0.0002 0.9989 -0.0471
vn 0.0003 0.9989 -0.0459
vn -0.0001 0.9989 -0.0471
vn 0.0000 0.9989 -0.0471
vn 0.0001 0.9989 -0.0474
vn 0.0003 0.9989 -0.0472
vn -0.0002 0.9989 -0.0472
vn 0.0003 0.9989 -0.0471
vn -0.0003 0.9989 -0.0471
vn -0.0005 0.9989 -0.0471
vn -0.0006 0.9989 -0.0471
vn 0.0001 0.9989 -0.0472
vn -0.0006 0.9989 -0.0472
vn -0.0004 0.9989 -0.0472
vn -0.0004 0.9989 -0.0464
vn -0.0005 0.9989 -0.0467
vn -0.0004 0.9989 -0.0465
vn -0.0005 0.9989 -0.0463
vn -0.0004 0.9989 -0.0463
vn -0.0002 0.9989 -0.0466
vn -0.0001 0.9989 -0.0463
vn -0.0003 0.9989 -0.0462
vn -0.0000 0.9989 -0.0474
vn 0.0000 0.9989 -0.0475
vn 0.0003 0.9989 -0.0478
vn -0.0002 0.9989 -0.0463
vn -0.0004 0.9989 -0.0479
vn 0.0005 0.9988 -0.0489
vn 0.0006 0.9988 -0.0491
vn 0.0005 0.9988 -0.0488
vn 0.0004 0.9989 -0.0478
vn 0.0005 0.9988 -0.0487
vn 0.0003 0.9989 -0.0464
vn 0.0002 0.9989 -0.0464
vn 0.0002 0.9989 -0.0459
vn 0.0002 0.9989 -0.0465
vn 0.0005 0.9989 -0.0460
vn 0.0005 0.9990 -0.0456
vn 0.0000 0.9989 -0.0459
vn 0.0004 0.9990 -0.0456
vn 0.0004 0.9990 -0.0458
vn 0.0001 0.9989 -0.0469
vn 0.0002 0.9989 -0.0469
vn 0.0001 0.9989 -0.0465
vn -0.0003 0.9989 -0.0464
vn -0.0003 0.9989 -0.0467
vn -0.0005 0.9989 -0.0466
vn 0.0001 0.9989 -0.0466
vn -0.0007 0.9989 -0.0470
vn -0.0007 0.9989 -0.0471
vn -0.0006 0.9989 -0.0468
vn -0.0007 0.9989 -0.0467
vn -0.0007 0.9989 -0.0468
vn -0.0006 0.9989 -0.0469
vn -0.0005 0.9989 -0.0465
vn 0.0006 0.9989 -0.0473
vn 0.0005 0.9989 -0.0473
vn 0.0007 0.9989 -0.0475
vn 0.0007 0.9989 -0.0474
vn -0.4527 -0.0472 -0.8904
vn -0.4523 -0.0474 -0.8906
vn -0.6005 -0.0397 -0.7986
vn -0.6013 -0.0400 -0.7980
vn -0.6014 -0.0420 -0.7978
vn -0.4540 -0.0465 -0.8898
vn -0.6004 -0.0434 -0.7985
vn -0.6004 -0.0397 -0.7987
vn -0.8376 -0.0277 -0.5456
vn -0.8382 -0.0266 -0.5447
vn -0.8382 -0.0284 -0.5447
vn -0.6014 -0.0446 -0.7977
vn -0.8377 -0.0294 -0.5453
vn -0.8378 -0.0255 -0.5454
vn -0.9740 -0.0121 -0.2262
vn -0.9742 -0.0102 -0.2255
vn -0.9743 -0.0115 -0.2252
vn -0.8382 -0.0303 -0.5446
vn -0.9742 -0.0122 -0.2252
vn -0.9742 -0.0085 -0.2256
vn -0.9926 0.0047 0.1211
vn -0.9926 0.0069 0.1211
vn -0.9926 0.0059 0.1210
vn -0.9742 -0.0130 -0.2251
vn -0.9926 0.0055 0.1217
vn -0.9925 0.0088 0.1217
vn -0.8911 0.0204 0.4534
vn -0.8913 0.0225 0.4528
vn -0.8914 0.0218 0.4526
vn -0.9926 0.0047 0.1210
vn -0.8909 0.0217 0.4536
vn -0.8909 0.0242 0.4536
vn -0.6818 0.0334 0.7308
vn -0.6826 0.0350 0.7300
vn -0.6826 0.0347 0.7300
vn -0.8914 0.0209 0.4527
vn -0.6818 0.0347 0.7307
vn -0.6818 0.0362 0.7306
vn -0.5443 0.0399 0.8379
vn -0.5452 0.0394 0.8374
vn -0.6826 0.0342 0.7300
vn 0.4537 0.0468 0.8899
vn 0.4530 0.0465 0.8903
vn 0.6013 0.0423 0.7979
vn 0.6005 0.0467 0.7983
vn 0.6006 0.0459 0.7982
vn 0.4531 0.0466 0.8902
vn 0.6015 0.0369 0.7980
vn 0.6013 0.0411 0.7980
vn 0.8383 0.0290 0.5444
vn 0.8377 0.0327 0.5452
vn 0.8374 0.0344 0.5455
vn 0.6005 0.0346 0.7988
vn 0.8381 0.0238 0.5450
vn 0.8383 0.0272 0.5445
vn 0.9742 0.0122 0.2253
vn 0.9740 0.0154 0.2260
vn 0.9739 0.0194 0.2261
vn 0.8377 0.0193 0.5457
vn 0.9742 0.0081 0.2256
vn 0.9742 0.0109 0.2254
vn 0.9927 -0.0055 -0.1209
vn 0.9927 -0.0029 -0.1208
vn 0.9926 0.0026 -0.1211
vn 0.9742 0.0024 0.2258
vn 0.9926 -0.0084 -0.1209
vn 0.9927 -0.0065 -0.1208
vn 0.8913 -0.0220 -0.4530
vn 0.8910 -0.0197 -0.4536
vn 0.8910 -0.0140 -0.4539
vn 0.9925 -0.0140 -0.1214
vn 0.8912 -0.0237 -0.4531
vn 0.8913 -0.0223 -0.4529
vn 0.6824 -0.0352 -0.7301
vn 0.6817 -0.0334 -0.7309
vn 0.6820 -0.0284 -0.7308
vn 0.8906 -0.0283 -0.4538
vn 0.6826 -0.0362 -0.7299
vn 0.5453 -0.0401 -0.8373
vn 0.5448 -0.0399 -0.8376
vn 0.6819 -0.0392 -0.7304
vn -0.2249 0.0458 0.9733
vn -0.0525 0.0463 0.9975
vn -0.0529 0.0468 0.9975
vn -0.0530 0.0468 0.9975
vn -0.2255 0.0456 0.9732
vn -0.0533 0.0467 0.9975
vn -0.0533 0.0464 0.9975
vn 0.1209 0.0465 0.9916
vn 0.1211 0.0466 0.9915
vn -0.0530 0.0467 0.9975
vn 0.2247 -0.0463 -0.9733
vn 0.2257 -0.0466 -0.9731
vn 0.0528 -0.0475 -0.9975
vn 0.0523 -0.0467 -0.9975
vn 0.0524 -0.0453 -0.9976
vn 0.2240 -0.0460 -0.9735
vn 0.0529 -0.0478 -0.9975
vn 0.0528 -0.0471 -0.9975
vn -0.2915 -0.0455 -0.9555
vn -0.2913 -0.0451 -0.9556
vn -0.2912 -0.0467 -0.9555
vn 0.0531 -0.0465 -0.9975
vn -0.2914 -0.0461 -0.9555
vn -0.2915 -0.0456 -0.9555
vn -0.6013 -0.0380 -0.7981
vn -0.6006 -0.0378 -0.7987
vn -0.6007 -0.0419 -0.7984
vn -0.2906 -0.0422 -0.9559
vn -0.6014 -0.0391 -0.7980
vn -0.7311 -0.0325 -0.6815
vn -0.7301 -0.0331 -0.6825
vn -0.7297 -0.0334 -0.6829
vn -0.6006 -0.0326 -0.7989
vn 0.4523 0.0419 0.8909
vn 0.6006 0.0394 0.7985
vn 0.6013 0.0381 0.7981
vn 0.6013 0.0379 0.7981
vn 0.4531 0.0422 0.8904
vn 0.6004 0.0374 0.7988
vn 0.6004 0.0359 0.7989
vn 0.8377 0.0293 0.5453
vn 0.8383 0.0267 0.5445
vn 0.8384 0.0263 0.5444
vn 0.6013 0.0372 0.7981
vn 0.8380 0.0255 0.5451
vn 0.8379 0.0237 0.5453
vn 0.9740 0.0157 0.2261
vn 0.9742 0.0119 0.2254
vn 0.9742 0.0112 0.2252
vn 0.8384 0.0248 0.5445
vn 0.9742 0.0100 0.2254
vn 0.9742 0.0083 0.2257
vn 0.9926 -0.0001 -0.1212
vn 0.9926 -0.0049 -0.1212
vn 0.9926 -0.0059 -0.1210
vn 0.9743 0.0084 0.2253
vn 0.9926 -0.0076 -0.1216
vn 0.9925 -0.0088 -0.1216
vn 0.8911 -0.0162 -0.4535
vn 0.8914 -0.0218 -0.4528
vn 0.8913 -0.0231 -0.4528
vn 0.9926 -0.0101 -0.1209
vn 0.8908 -0.0251 -0.4538
vn 0.8908 -0.0258 -0.4536
vn 0.6817 -0.0305 -0.7310
vn 0.6825 -0.0362 -0.7300
vn 0.6824 -0.0377 -0.7300
vn 0.8913 -0.0282 -0.4526
vn 0.6815 -0.0400 -0.7307
vn 0.6816 -0.0397 -0.7306
vn 0.5442 -0.0436 -0.8378
vn 0.5452 -0.0441 -0.8372
vn 0.6823 -0.0434 -0.7298
vn 0.1211 0.0518 0.9913
vn 0.1214 0.0519 0.9912
vn -0.9202 -0.0191 -0.3909
vn -0.9742 -0.0113 -0.2254
vn -0.9740 -0.0099 -0.2263
vn -0.9739 -0.0192 -0.2261
vn -0.9199 -0.0194 -0.3917
vn -0.9742 -0.0133 -0.2254
vn -0.9742 -0.0106 -0.2254
vn -0.9926 0.0055 0.1209
vn -0.9927 0.0081 0.1206
vn -0.9926 -0.0026 0.1211
vn -0.9742 -0.0028 -0.2258
vn -0.9926 0.0032 0.1211
vn -0.9926 0.0066 0.1209
vn -0.8913 0.0223 0.4529
vn -0.8910 0.0261 0.4533
vn -0.8911 0.0148 0.4535
vn -0.9925 0.0147 0.1214
vn -0.8914 0.0194 0.4529
vn -0.8913 0.0237 0.4528
vn -0.6826 0.0367 0.7299
vn -0.6817 0.0415 0.7305
vn -0.6820 0.0305 0.7308
vn -0.8907 0.0308 0.4535
vn -0.6827 0.0332 0.7299
vn -0.6825 0.0382 0.7299
vn -0.3914 0.0470 0.9190
vn -0.3904 0.0523 0.9191
vn -0.3905 0.0430 0.9196
vn -0.6819 0.0429 0.7302
vn -0.3914 0.0430 0.9192
vn -0.3914 0.0482 0.9189
vn -0.2257 0.0508 0.9729
vn -0.2252 0.0509 0.9730
vn -0.3909 0.0502 0.9191
vn -0.1211 -0.0528 -0.9912
vn -0.1208 -0.0530 -0.9913
vn 0.2258 -0.0517 -0.9728
vn 0.2265 -0.0520 -0.9726
vn 0.2256 -0.0515 -0.9729
vn 0.2249 -0.0512 -0.9730
vn -0.0003 -1.0000 -0.0004
vn 0.0000 -1.0000 0.0000
vn -0.0005 -1.0000 -0.0006
vn 0.0003 -1.0000 0.0005
vn -0.0005 -1.0000 -0.0001
vn 0.0003 -1.0000 0.0002
vn -0.0009 -1.0000 0.0000
vn 0.0009 -1.0000 0.0001
vn 0.0004 -1.0000 -0.0002
vn 0.0018 -1.0000 0.0006
vn -0.0004 -1.0000 0.0006
vn 0.0000 -1.0000 0.0005
vn -0.0017 -1.0000 -0.0002
vn 0.0002 -1.0000 -0.0005
vn -0.0001 -1.0000 -0.0005
vn 0.0007 -1.0000 -0.0005
vn -0.0002 -1.0000 -0.0002
vn -0.0000 -1.0000 -0.0003
vn -0.0007 -1.0000 -0.0003
vn -0.0002 -1.0000 -0.0004
vn 0.0000 -1.0000 0.0003
vn 0.0002 -1.0000 0.0003
vn 0.0002 -1.0000 0.0004
vn -0.0002 -1.0000 0.0016
vn 0.0003 -1.0000 -0.0014
vn 0.0005 -1.0000 0.0012
vn 0.0003 -1.0000 -0.0002
vn -0.0003 -1.0000 -0.0012
vn -0.0003 -1.0000 -0.0002
vn 0.0000 -1.0000 -0.0005
vn 0.0003 -1.0000 -0.0000
vn -0.0003 -1.0000 0.0000
vn 0.0001 -1.0000 -0.0003
vn 0.0004 -1.0000 0.0003
vn 0.0001 -1.0000 -0.0005
vn 0.0003 -1.0000 0.0001
vn -0.0001 -1.0000 0.0005
vn 0.0005 -1.0000 0.0002
vn -0.0005 -1.0000 0.0007
vn -0.0001 -1.0000 -0.0003
vn -0.0004 -1.0000 -0.0008
vn -0.0005 -1.0000 -0.0004
vn -0.0004 -1.0000 -0.0002
vn 0.0005 -1.0000 0.0007
vn 0.0005 -1.0000 0.0006
vn -0.0002 -1.0000 0.0015
vn 0.0007 -1.0000 -0.0009
vn -0.0001 -1.0000 -0.0007
vn 0.0001 -1.0000 0.0008
usemtl Atlas8k
s 1
f 1/1/1 2/2/1 3/3/2
f 4/4/3 5/5/3 6/6/4
f 7/7/5 8/8/6 9/9/7
f 10/10/7 11/11/8 12/12/9
f 13/13/7 14/14/7 15/15/10
f 16/16/11 17/17/11 18/18/12
f 19/19/13 20/20/14 21/21/15
f 22/22/16 23/23/16 24/24/17
f 25/25/18 26/26/18 27/27/19
f 28/28/20 29/29/21 30/30/22
f 31/31/23 32/32/24 33/33/25
f 34/34/25 35/35/26 36/36/23
f 37/37/25 38/38/27 39/39/28
f 40/40/29 41/41/30 42/42/25
f 43/43/31 44/44/32 45/45/33
f 46/46/34 47/47/35 48/48/36
f 49/49/35 50/50/37 51/51/38
f 52/52/39 53/53/40 54/54/41
f 55/55/42 56/56/38 57/57/43
f 58/58/44 59/59/3 60/60/42
f 61/61/45 62/62/46 63/63/47
f 64/64/48 65/65/12 66/66/49
f 67/67/50 68/68/50 69/69/10
f 70/70/11 71/71/11 72/72/51
f 73/73/15 74/74/15 75/75/52
f 76/76/53 77/77/53 78/78/16
f 79/79/54 80/80/54 81/81/55
f 82/82/56 83/83/57 84/84/58
f 85/85/26 86/86/26 87/87/26
f 88/88/59 89/89/26 90/90/26
f 91/91/60 92/92/61 93/93/62
f 94/94/63 95/95/64 96/96/64
f 97/97/65 98/98/65 99/99/66
f 100/100/67 101/101/67 102/102/64
f 103/103/68 104/104/68 105/105/53
f 106/106/1 107/107/1 108/108/69
f 109/109/70 110/110/71 111/111/72
f 112/112/73 113/113/74 114/114/75
f 115/115/76 116/116/77 117/117/78
f 118/118/79 119/119/80 120/120/81
f 121/121/82 122/122/83 123/123/84
f 124/124/85 125/125/86 126/126/87
f 127/127/88 128/128/89 129/129/90
f 130/130/91 131/131/92 132/132/93
f 133/133/94 134/134/95 135/135/96
f 136/136/97 137/137/98 138/138/99
f 139/139/100 140/140/101 141/141/102
f 142/142/103 143/143/104 144/144/105
f 145/145/106 146/146/107 147/147/108
f 148/148/109 149/149/109 150/150/110
f 151/151/111 152/152/112 153/153/113
f 154/154/114 155/155/115 156/156/116
f 157/157/117 158/158/118 159/159/119
f 160/160/120 161/161/121 162/162/122
f 163/163/123 164/164/124 165/165/125
f 166/166/126 167/167/127 168/168/128
f 169/169/129 170/170/130 171/171/131
f 172/172/132 173/173/133 174/174/134
f 175/175/135 176/176/136 177/177/137
f 178/178/138 179/179/139 180/180/140
f 181/181/141 182/182/142 183/183/143
f 184/184/144 185/185/145 186/186/146
f 187/187/147 188/188/143 189/189/148
f 190/190/149 191/191/148 192/192/150
f 193/193/151 194/194/151 195/195/152
f 196/196/153 197/197/154 198/198/155
f 199/199/156 200/200/157 201/201/158
f 202/202/159 203/203/159 204/204/160
f 205/205/161 206/206/162 207/207/163
f 208/208/164 209/209/165 210/210/166
f 211/211/167 212/212/168 213/213/169
f 214/214/170 215/215/171 216/216/172
f 217/217/173 218/218/174 219/219/175
f 220/220/176 221/221/177 222/222/178
f 223/223/179 224/224/175 225/225/180
f 226/226/181 227/227/182 228/228/183
f 229/229/184 230/230/184 231/231/185
f 232/232/186 233/233/187 234/234/188
f 235/235/189 236/236/190 237/237/191
f 238/238/192 239/239/193 240/240/194
f 241/241/195 242/242/196 243/243/197
f 244/244/198 245/245/199 246/246/200
f 247/247/201 248/248/202 249/249/203
f 250/250/204 251/251/205 252/252/206
f 253/253/207 254/254/208 255/255/209
f 256/256/210 257/257/211 258/258/212
f 259/259/213 260/260/214 261/261/215
f 262/262/216 263/263/217 264/264/218
f 265/265/219 266/266/220 267/267/221
f 268/268/222 269/269/222 270/270/223
f 271/271/224 272/272/224 273/273/224
f 274/274/225 275/275/225 276/276/225
f 277/277/226 278/278/226 279/279/227
f 280/280/228 281/281/229 282/282/230
f 283/283/231 284/284/232 285/285/233
f 286/286/234 287/287/235 288/288/236
f 289/289/237 290/290/238 291/291/239
f 292/292/240 293/293/241 294/294/242
f 295/295/243 296/296/244 297/297/245
f 298/298/246 299/299/247 300/300/248
f 301/301/249 302/302/250 303/303/251
f 304/304/252 305/305/253 306/306/254
f 307/307/255 308/308/256 309/309/257
f 310/310/258 311/311/258 312/312/259
f 313/313/260 314/314/260 315/315/260
f 316/316/261 317/317/261 318/318/261
f 319/319/262 320/320/263 321/321/263
f 322/322/264 323/323/265 324/324/265
f 325/325/266 326/326/267 327/327/268
f 328/328/267 329/329/267 330/330/269
f 331/331/267 332/332/267 333/333/270
f 334/334/267 335/335/267 336/336/271
f 337/337/267 338/338/267 339/339/272
f 340/340/267 341/341/267 342/342/273
f 343/343/274 344/344/267 345/345/275
f 346/346/276 347/347/277 348/348/278
f 349/349/279 350/350/280 351/351/281
f 352/352/282 353/353/283 354/354/284
f 355/355/267 356/356/267 357/357/267
f 358/358/267 359/359/285 360/360/286
f 361/361/287 362/362/267 363/363/267
f 364/364/267 365/365/267 366/366/288
f 367/367/267 368/368/267 369/369/289
f 370/370/267 371/371/267 372/372/290
f 373/373/267 374/374/267 375/375/291
f 376/376/292 377/377/267 378/378/293
f 379/379/267 380/380/294 381/381/295
f 382/382/296 383/383/292 384/384/286
f 385/385/297 386/386/267 387/387/267
f 388/388/267 389/389/298 390/390/277
f 391/391/267 392/392/267 393/393/284
f 394/394/267 395/395/267 396/396/299
f 397/397/267 398/398/267 399/399/285
f 400/400/300 401/401/279 402/402/301
f 403/403/286 404/404/302 405/405/303
f 406/406/286 407/407/267 408/408/304
f 409/409/267 410/410/305 411/411/267
f 412/412/267 413/413/287 414/414/267
f 415/415/267 416/416/267 417/417/306
f 418/418/307 419/419/308 420/420/267
f 421/421/309 422/422/310 423/423/311
f 424/424/267 425/425/267 426/426/312
f 427/427/267 428/428/267 429/429/313
f 430/430/267 431/431/267 432/432/314
