# This file uses centimeters as units for non-parametric coordinates.

mtllib Sandbags_1.mtl
g default
v -1.249743 0.096923 0.405103
v 0.001328 0.096923 0.405103
v -1.249743 0.212633 0.405103
v 0.001328 0.212633 0.405103
v -1.249743 0.212633 -0.405103
v 0.001328 0.212633 -0.405103
v -1.249743 0.096923 -0.405103
v 0.001328 0.096923 -0.405103
v -1.049541 0.354204 0.263532
v -1.049541 0.354204 -0.263532
v -0.198874 0.354204 0.263532
v -0.198874 0.354204 -0.263532
v -1.049541 -0.044648 0.263532
v -1.049541 -0.044648 -0.263532
v -0.198874 -0.044648 0.263532
v -0.198874 -0.044648 -0.263532
v -0.611134 0.359670 0.405103
v 0.639937 0.359670 0.405103
v -0.611134 0.475380 0.405103
v 0.639937 0.475380 0.405103
v -0.611134 0.475380 -0.405103
v 0.639937 0.475380 -0.405103
v -0.611134 0.359670 -0.405103
v 0.639937 0.359670 -0.405103
v -0.410932 0.616951 0.263532
v -0.410932 0.616951 -0.263532
v 0.439735 0.616951 0.263532
v 0.439735 0.616951 -0.263532
v -0.410932 0.218099 0.263532
v -0.410932 0.218099 -0.263532
v 0.439735 0.218099 0.263532
v 0.439735 0.218099 -0.263532
v -1.890843 0.359670 0.405103
v -0.639772 0.359670 0.405103
v -1.890843 0.475380 0.405103
v -0.639772 0.475380 0.405103
v -1.890843 0.475380 -0.405103
v -0.639772 0.475380 -0.405103
v -1.890843 0.359670 -0.405103
v -0.639772 0.359670 -0.405103
v -1.690640 0.616951 0.263532
v -1.690640 0.616951 -0.263532
v -0.839974 0.616951 0.263532
v -0.839974 0.616951 -0.263532
v -1.690640 0.218099 0.263532
v -1.690640 0.218099 -0.263532
v -0.839974 0.218099 0.263532
v -0.839974 0.218099 -0.263532
v -1.249743 0.646905 0.405103
v 0.001328 0.646905 0.405103
v -1.249743 0.762615 0.405103
v 0.001328 0.762615 0.405103
v -1.249743 0.762615 -0.405103
v 0.001328 0.762615 -0.405103
v -1.249743 0.646905 -0.405103
v 0.001328 0.646905 -0.405103
v -1.049541 0.904186 0.263532
v -1.049541 0.904186 -0.263532
v -0.198874 0.904186 0.263532
v -0.198874 0.904186 -0.263532
v -1.049541 0.505334 0.263532
v -1.049541 0.505334 -0.263532
v -0.198874 0.505334 0.263532
v -0.198874 0.505334 -0.263532
v -1.890843 0.947766 0.405103
v -0.639772 0.947766 0.405103
v -1.890843 1.063475 0.405103
v -0.639772 1.063475 0.405103
v -1.890843 1.063475 -0.405103
v -0.639772 1.063475 -0.405103
v -1.890843 0.947766 -0.405103
v -0.639772 0.947766 -0.405103
v -1.690640 1.205047 0.263532
v -1.690640 1.205047 -0.263532
v -0.839974 1.205047 0.263532
v -0.839974 1.205047 -0.263532
v -1.690640 0.806194 0.263532
v -1.690640 0.806194 -0.263532
v -0.839974 0.806194 0.263532
v -0.839974 0.806194 -0.263532
v -0.611134 0.947766 0.405103
v 0.639937 0.947766 0.405103
v -0.611134 1.063475 0.405103
v 0.639937 1.063475 0.405103
v -0.611134 1.063475 -0.405103
v 0.639937 1.063475 -0.405103
v -0.611134 0.947766 -0.405103
v 0.639937 0.947766 -0.405103
v -0.410932 1.205047 0.263532
v -0.410932 1.205047 -0.263532
v 0.439735 1.205047 0.263532
v 0.439735 1.205047 -0.263532
v -0.410932 0.806194 0.263532
v -0.410932 0.806194 -0.263532
v 0.439735 0.806194 0.263532
v 0.439735 0.806194 -0.263532
v -1.249743 1.227629 0.405103
v 0.001328 1.227629 0.405103
v -1.249743 1.343339 0.405103
v 0.001328 1.343339 0.405103
v -1.249743 1.343339 -0.405103
v 0.001328 1.343339 -0.405103
v -1.249743 1.227629 -0.405103
v 0.001328 1.227629 -0.405103
v -1.049541 1.484910 0.263532
v -1.049541 1.484910 -0.263532
v -0.198874 1.484910 0.263532
v -0.198874 1.484910 -0.263532
v -1.049541 1.086058 0.263532
v -1.049541 1.086058 -0.263532
v -0.198874 1.086058 0.263532
v -0.198874 1.086058 -0.263532
v -1.890843 1.426899 0.405103
v -0.639772 1.533891 0.405103
v -1.890843 1.542608 0.405103
v -0.639772 1.649601 0.405103
v -1.890843 1.542608 -0.405103
v -0.639772 1.649601 -0.405103
v -1.890843 1.426899 -0.405103
v -0.639772 1.533891 -0.405103
v -1.690640 1.684180 0.263532
v -1.690640 1.684180 -0.263532
v -0.839974 1.791172 0.263532
v -0.839974 1.791172 -0.263532
v -1.690640 1.285327 0.263532
v -1.690640 1.285327 -0.263532
v -0.839974 1.392320 0.263532
v -0.839974 1.392320 -0.263532
v -0.611134 1.533891 0.405103
v 0.639937 1.533891 0.405103
v -0.611134 1.649601 0.405103
v 0.639937 1.649601 0.405103
v -0.611134 1.649601 -0.405103
v 0.639937 1.649601 -0.405103
v -0.611134 1.533891 -0.405103
v 0.639937 1.533891 -0.405103
v -0.410932 1.791172 0.263532
v -0.410932 1.791172 -0.263532
v 0.439735 1.791172 0.263532
v 0.439735 1.791172 -0.263532
v -0.410932 1.392320 0.263532
v -0.410932 1.392320 -0.263532
v 0.439735 1.392320 0.263532
v 0.439735 1.392320 -0.263532
v -1.249743 1.806412 0.405103
v 0.001328 1.806412 0.405103
v -1.249743 1.922122 0.405103
v 0.001328 1.922122 0.405103
v -1.249743 1.922122 -0.405103
v 0.001328 1.922122 -0.405103
v -1.249743 1.806412 -0.405103
v 0.001328 1.806412 -0.405103
v -1.049541 2.063693 0.263532
v -1.049541 2.063693 -0.263532
v -0.198874 2.063693 0.263532
v -0.198874 2.063693 -0.263532
v -1.049541 1.664841 0.263532
v -1.049541 1.664841 -0.263532
v -0.198874 1.664841 0.263532
v -0.198874 1.664841 -0.263532
v -0.003338 0.096923 0.405103
v 1.247733 0.096923 0.405103
v -0.003338 0.212633 0.405103
v 1.247733 0.212633 0.405103
v -0.003338 0.212633 -0.405103
v 1.247733 0.212633 -0.405103
v -0.003338 0.096923 -0.405103
v 1.247733 0.096923 -0.405103
v 0.196864 0.354204 0.263532
v 0.196864 0.354204 -0.263532
v 1.047531 0.354204 0.263532
v 1.047531 0.354204 -0.263532
v 0.196864 -0.044648 0.263532
v 0.196864 -0.044648 -0.263532
v 1.047531 -0.044648 0.263532
v 1.047531 -0.044648 -0.263532
v -0.003338 0.646905 0.405103
v 1.247733 0.646905 0.405103
v -0.003338 0.762615 0.405103
v 1.247733 0.762615 0.405103
v -0.003338 0.762615 -0.405103
v 1.247733 0.762615 -0.405103
v -0.003338 0.646905 -0.405103
v 1.247733 0.646905 -0.405103
v 0.196864 0.904186 0.263532
v 0.196864 0.904186 -0.263532
v 1.047531 0.904186 0.263532
v 1.047531 0.904186 -0.263532
v 0.196864 0.505334 0.263532
v 0.196864 0.505334 -0.263532
v 1.047531 0.505334 0.263532
v 1.047531 0.505334 -0.263532
v -0.003338 1.227629 0.405103
v 1.247733 1.227629 0.405103
v -0.003338 1.343339 0.405103
v 1.247733 1.343339 0.405103
v -0.003338 1.343339 -0.405103
v 1.247733 1.343339 -0.405103
v -0.003338 1.227629 -0.405103
v 1.247733 1.227629 -0.405103
v 0.196864 1.484910 0.263532
v 0.196864 1.484910 -0.263532
v 1.047531 1.484910 0.263532
v 1.047531 1.484910 -0.263532
v 0.196864 1.086058 0.263532
v 0.196864 1.086058 -0.263532
v 1.047531 1.086058 0.263532
v 1.047531 1.086058 -0.263532
v -0.003338 1.806412 0.405103
v 1.247733 1.806412 0.405103
v -0.003338 1.922122 0.405103
v 1.247733 1.922122 0.405103
v -0.003338 1.922122 -0.405103
v 1.247733 1.922122 -0.405103
v -0.003338 1.806412 -0.405103
v 1.247733 1.806412 -0.405103
v 0.196864 2.063693 0.263532
v 0.196864 2.063693 -0.263532
v 1.047531 2.063693 0.263532
v 1.047531 2.063693 -0.263532
v 0.196864 1.664841 0.263532
v 0.196864 1.664841 -0.263532
v 1.047531 1.664841 0.263532
v 1.047531 1.664841 -0.263532
v 0.642538 1.533891 0.405103
v 1.893609 1.420747 0.405103
v 0.642538 1.649601 0.405103
v 1.893609 1.536457 0.405103
v 0.642538 1.649601 -0.405103
v 1.893609 1.536457 -0.405103
v 0.642538 1.533891 -0.405103
v 1.893609 1.420747 -0.405103
v 0.842740 1.791172 0.263532
v 0.842740 1.791172 -0.263532
v 1.693407 1.678028 0.263532
v 1.693407 1.678028 -0.263532
v 0.842740 1.392320 0.263532
v 0.842740 1.392320 -0.263532
v 1.693407 1.279176 0.263532
v 1.693407 1.279176 -0.263532
v 0.642538 0.947766 0.405103
v 1.893609 0.947766 0.405103
v 0.642538 1.063475 0.405103
v 1.893609 1.063475 0.405103
v 0.642538 1.063475 -0.405103
v 1.893609 1.063475 -0.405103
v 0.642538 0.947766 -0.405103
v 1.893609 0.947766 -0.405103
v 0.842740 1.205047 0.263532
v 0.842740 1.205047 -0.263532
v 1.693407 1.205047 0.263532
v 1.693407 1.205047 -0.263532
v 0.842740 0.806194 0.263532
v 0.842740 0.806194 -0.263532
v 1.693407 0.806194 0.263532
v 1.693407 0.806194 -0.263532
v 0.642538 0.359670 0.405103
v 1.893609 0.359670 0.405103
v 0.642538 0.475380 0.405103
v 1.893609 0.475380 0.405103
v 0.642538 0.475380 -0.405103
v 1.893609 0.475380 -0.405103
v 0.642538 0.359670 -0.405103
v 1.893609 0.359670 -0.405103
v 0.842740 0.616951 0.263532
v 0.842740 0.616951 -0.263532
v 1.693407 0.616951 0.263532
v 1.693407 0.616951 -0.263532
v 0.842740 0.218099 0.263532
v 0.842740 0.218099 -0.263532
v 1.693407 0.218099 0.263532
v 1.693407 0.218099 -0.263532
v -2.519248 0.096923 0.405103
v -1.268178 0.096923 0.405103
v -2.519248 0.212633 0.405103
v -1.268178 0.212633 0.405103
v -2.519248 0.212633 -0.405103
v -1.268178 0.212633 -0.405103
v -2.519248 0.096923 -0.405103
v -1.268178 0.096923 -0.405103
v -2.319046 0.354204 0.263532
v -2.319046 0.354204 -0.263532
v -1.468380 0.354204 0.263532
v -1.468380 0.354204 -0.263532
v -2.319046 -0.044648 0.263532
v -2.319046 -0.044648 -0.263532
v -1.468380 -0.044648 0.263532
v -1.468380 -0.044648 -0.263532
v 1.243370 0.096923 0.405103
v 2.494440 0.096923 0.405103
v 1.243370 0.212633 0.405103
v 2.494440 0.212633 0.405103
v 1.243370 0.212633 -0.405103
v 2.494440 0.212633 -0.405103
v 1.243370 0.096923 -0.405103
v 2.494440 0.096923 -0.405103
v 1.443572 0.354204 0.263532
v 1.443572 0.354204 -0.263532
v 2.294238 0.354204 0.263532
v 2.294238 0.354204 -0.263532
v 1.443572 -0.044648 0.263532
v 1.443572 -0.044648 -0.263532
v 2.294238 -0.044648 0.263532
v 2.294238 -0.044648 -0.263532
v 1.243370 0.619552 0.405103
v 2.494441 0.452923 0.405103
v 1.243370 0.735262 0.405103
v 2.494441 0.568633 0.405103
v 1.243370 0.735262 -0.405103
v 2.494441 0.568633 -0.405103
v 1.243370 0.619552 -0.405103
v 2.494441 0.452923 -0.405103
v 1.443572 0.876833 0.263532
v 1.443572 0.876833 -0.263532
v 2.294238 0.710204 0.263532
v 2.294238 0.710204 -0.263532
v 1.443572 0.477981 0.263532
v 1.443572 0.477981 -0.263532
v 2.294238 0.311352 0.263532
v 2.294238 0.311352 -0.263532
v 1.243370 1.216476 0.405103
v 2.301199 0.880150 0.441672
v 1.243370 1.332186 0.405103
v 2.301199 0.995860 0.441672
v 1.243370 1.332186 -0.405103
v 2.301199 0.995860 -0.441672
v 1.243370 1.216476 -0.405103
v 2.301199 0.880150 -0.441672
v 1.443572 1.473757 0.263532
v 1.443572 1.473757 -0.263532
v 2.100997 1.137431 0.287321
v 2.100997 1.137431 -0.287321
v 1.443572 1.074904 0.263532
v 1.443572 1.074904 -0.263532
v 2.100997 0.738579 0.287321
v 2.100997 0.738579 -0.287321
v -2.519248 0.494593 0.405103
v -1.268178 0.620432 0.405103
v -2.519248 0.610302 0.405103
v -1.268178 0.736142 0.405103
v -2.519248 0.610302 -0.405103
v -1.268178 0.736142 -0.405103
v -2.519248 0.494593 -0.405103
v -1.268178 0.620432 -0.405103
v -2.319046 0.751874 0.263532
v -2.319046 0.751874 -0.263532
v -1.468380 0.877713 0.263532
v -1.468380 0.877713 -0.263532
v -2.319046 0.353021 0.263532
v -2.319046 0.353021 -0.263532
v -1.468380 0.478861 0.263532
v -1.468380 0.478861 -0.263532
v -2.519248 0.868733 0.405103
v -1.268178 1.232794 0.405103
v -2.519248 0.984443 0.405103
v -1.268178 1.348504 0.405103
v -2.519248 0.984443 -0.405103
v -1.268178 1.348504 -0.405103
v -2.519248 0.868733 -0.405103
v -1.268178 1.232794 -0.405103
v -2.319046 1.126015 0.263532
v -2.319046 1.126015 -0.263532
v -1.468380 1.490075 0.263532
v -1.468380 1.490075 -0.263532
v -2.319046 0.727162 0.263532
v -2.319046 0.727162 -0.263532
v -1.468380 1.091223 0.263532
v -1.468380 1.091223 -0.263532
vt 0.212038 0.980734
vt 0.989092 0.014396
vt 0.320898 0.009433
vt 0.358597 0.986662
vt 0.879005 0.831566
vt 0.879005 0.170076
vt 0.468684 0.830981
vt 0.468685 0.169491
vt 0.878537 0.830981
vt 0.122309 0.352453
vt 0.468685 0.169491
vt 0.878537 0.169491
vt 0.122310 0.980734
vt 0.231472 0.987280
vt 0.358597 0.013811
vt 0.988624 0.013811
vt 0.123939 0.354992
vt 0.359065 0.987246
vt 0.322053 0.007907
vt 0.359074 0.987246
vt 0.469160 0.831565
vt 0.469153 0.170076
vt 0.213666 0.983273
vt 0.469152 0.831566
vt 0.320899 0.988806
vt 0.322053 0.987280
vt 0.213666 0.354992
vt 0.358597 0.013811
vt 0.212038 0.352453
vt 0.230317 0.988806
vt 0.123939 0.983273
vt 0.359064 0.014396
vt 0.989093 0.987246
vt 0.230317 0.009433
vt 0.988624 0.986661
vt 0.231472 0.007907
vt 0.230317 0.988806
vt 0.230317 0.009433
vt 0.320898 0.009433
vt 0.320899 0.988806
vt 0.878537 0.830981
vt 0.468684 0.830981
vt 0.468685 0.169491
vt 0.878537 0.169491
vt 0.231472 0.987280
vt 0.231472 0.007907
vt 0.322053 0.007907
vt 0.322053 0.987280
vt 0.879005 0.831566
vt 0.469152 0.831566
vt 0.469153 0.170076
vt 0.879005 0.170076
vt 0.123939 0.983273
vt 0.123939 0.354992
vt 0.213666 0.354992
vt 0.213666 0.983273
vt 0.212038 0.352453
vt 0.212038 0.980734
vt 0.122310 0.980734
vt 0.122309 0.352453
vt 0.989093 0.987246
vt 0.989092 0.014396
vt 0.988624 0.986661
vt 0.988624 0.013811
vt 0.358597 0.986662
vt 0.358597 0.013811
vt 0.468685 0.169491
vt 0.469160 0.831565
vt 0.359074 0.987246
vt 0.359064 0.014396
vt 0.358597 0.013811
vt 0.359065 0.987246
vt 0.230317 0.988806
vt 0.230317 0.009433
vt 0.320898 0.009433
vt 0.320899 0.988806
vt 0.878537 0.830981
vt 0.468684 0.830981
vt 0.468685 0.169491
vt 0.878537 0.169491
vt 0.231472 0.987280
vt 0.231472 0.007907
vt 0.322053 0.007907
vt 0.322053 0.987280
vt 0.879005 0.831566
vt 0.469152 0.831566
vt 0.469153 0.170076
vt 0.879005 0.170076
vt 0.123939 0.983273
vt 0.123939 0.354992
vt 0.213666 0.354992
vt 0.213666 0.983273
vt 0.212038 0.352453
vt 0.212038 0.980734
vt 0.122310 0.980734
vt 0.122309 0.352453
vt 0.989093 0.987246
vt 0.989092 0.014396
vt 0.988624 0.986661
vt 0.988624 0.013811
vt 0.358597 0.986662
vt 0.358597 0.013811
vt 0.468685 0.169491
vt 0.469160 0.831565
vt 0.359074 0.987246
vt 0.359064 0.014396
vt 0.358597 0.013811
vt 0.359065 0.987246
vt 0.230317 0.988806
vt 0.230317 0.009433
vt 0.320898 0.009433
vt 0.320899 0.988806
vt 0.878537 0.830981
vt 0.468684 0.830981
vt 0.468685 0.169491
vt 0.878537 0.169491
vt 0.231472 0.987280
vt 0.231472 0.007907
vt 0.322053 0.007907
vt 0.322053 0.987280
vt 0.879005 0.831566
vt 0.469152 0.831566
vt 0.469153 0.170076
vt 0.879005 0.170076
vt 0.123939 0.983273
vt 0.123939 0.354992
vt 0.213666 0.354992
vt 0.213666 0.983273
vt 0.212038 0.352453
vt 0.212038 0.980734
vt 0.122310 0.980734
vt 0.122309 0.352453
vt 0.989093 0.987246
vt 0.989092 0.014396
vt 0.988624 0.986661
vt 0.988624 0.013811
vt 0.358597 0.986662
vt 0.358597 0.013811
vt 0.468685 0.169491
vt 0.469160 0.831565
vt 0.359074 0.987246
vt 0.359064 0.014396
vt 0.358597 0.013811
vt 0.359065 0.987246
vt 0.230317 0.988806
vt 0.230317 0.009433
vt 0.320898 0.009433
vt 0.320899 0.988806
vt 0.878537 0.830981
vt 0.468684 0.830981
vt 0.468685 0.169491
vt 0.878537 0.169491
vt 0.231472 0.987280
vt 0.231472 0.007907
vt 0.322053 0.007907
vt 0.322053 0.987280
vt 0.879005 0.831566
vt 0.469152 0.831566
vt 0.469153 0.170076
vt 0.879005 0.170076
vt 0.123939 0.983273
vt 0.123939 0.354992
vt 0.213666 0.354992
vt 0.213666 0.983273
vt 0.212038 0.352453
vt 0.212038 0.980734
vt 0.122310 0.980734
vt 0.122309 0.352453
vt 0.989093 0.987246
vt 0.989092 0.014396
vt 0.988624 0.986661
vt 0.988624 0.013811
vt 0.358597 0.986662
vt 0.358597 0.013811
vt 0.468685 0.169491
vt 0.469160 0.831565
vt 0.359074 0.987246
vt 0.359064 0.014396
vt 0.358597 0.013811
vt 0.359065 0.987246
vt 0.230317 0.988806
vt 0.230317 0.009433
vt 0.320898 0.009433
vt 0.320899 0.988806
vt 0.878537 0.830981
vt 0.468684 0.830981
vt 0.468685 0.169491
vt 0.878537 0.169491
vt 0.231472 0.987280
vt 0.231472 0.007907
vt 0.322053 0.007907
vt 0.322053 0.987280
vt 0.879005 0.831566
vt 0.469152 0.831566
vt 0.469153 0.170076
vt 0.879005 0.170076
vt 0.123939 0.983273
vt 0.123939 0.354992
vt 0.213666 0.354992
vt 0.213666 0.983273
vt 0.212038 0.352453
vt 0.212038 0.980734
vt 0.122310 0.980734
vt 0.122309 0.352453
vt 0.989093 0.987246
vt 0.989092 0.014396
vt 0.988624 0.986661
vt 0.988624 0.013811
vt 0.358597 0.986662
vt 0.358597 0.013811
vt 0.468685 0.169491
vt 0.469160 0.831565
vt 0.359074 0.987246
vt 0.359064 0.014396
vt 0.358597 0.013811
vt 0.359065 0.987246
vt 0.230317 0.988806
vt 0.230317 0.009433
vt 0.320898 0.009433
vt 0.320899 0.988806
vt 0.878537 0.830981
vt 0.468684 0.830981
vt 0.468685 0.169491
vt 0.878537 0.169491
vt 0.231472 0.987280
vt 0.231472 0.007907
vt 0.322053 0.007907
vt 0.322053 0.987280
vt 0.879005 0.831566
vt 0.469152 0.831566
vt 0.469153 0.170076
vt 0.879005 0.170076
vt 0.123939 0.983273
vt 0.123939 0.354992
vt 0.213666 0.354992
vt 0.213666 0.983273
vt 0.212038 0.352453
vt 0.212038 0.980734
vt 0.122310 0.980734
vt 0.122309 0.352453
vt 0.989093 0.987246
vt 0.989092 0.014396
vt 0.988624 0.986661
vt 0.988624 0.013811
vt 0.358597 0.986662
vt 0.358597 0.013811
vt 0.468685 0.169491
vt 0.469160 0.831565
vt 0.359074 0.987246
vt 0.359064 0.014396
vt 0.358597 0.013811
vt 0.359065 0.987246
vt 0.230317 0.988806
vt 0.230317 0.009433
vt 0.320898 0.009433
vt 0.320899 0.988806
vt 0.878537 0.830981
vt 0.468684 0.830981
vt 0.468685 0.169491
vt 0.878537 0.169491
vt 0.231472 0.987280
vt 0.231472 0.007907
vt 0.322053 0.007907
vt 0.322053 0.987280
vt 0.879005 0.831566
vt 0.469152 0.831566
vt 0.469153 0.170076
vt 0.879005 0.170076
vt 0.123939 0.983273
vt 0.123939 0.354992
vt 0.213666 0.354992
vt 0.213666 0.983273
vt 0.212038 0.352453
vt 0.212038 0.980734
vt 0.122310 0.980734
vt 0.122309 0.352453
vt 0.989093 0.987246
vt 0.989092 0.014396
vt 0.988624 0.986661
vt 0.988624 0.013811
vt 0.358597 0.986662
vt 0.358597 0.013811
vt 0.468685 0.169491
vt 0.469160 0.831565
vt 0.359074 0.987246
vt 0.359064 0.014396
vt 0.358597 0.013811
vt 0.359065 0.987246
vt 0.230317 0.988806
vt 0.230317 0.009433
vt 0.320898 0.009433
vt 0.320899 0.988806
vt 0.878537 0.830981
vt 0.468684 0.830981
vt 0.468685 0.169491
vt 0.878537 0.169491
vt 0.231472 0.987280
vt 0.231472 0.007907
vt 0.322053 0.007907
vt 0.322053 0.987280
vt 0.879005 0.831566
vt 0.469152 0.831566
vt 0.469153 0.170076
vt 0.879005 0.170076
vt 0.123939 0.983273
vt 0.123939 0.354992
vt 0.213666 0.354992
vt 0.213666 0.983273
vt 0.212038 0.352453
vt 0.212038 0.980734
vt 0.122310 0.980734
vt 0.122309 0.352453
vt 0.989093 0.987246
vt 0.989092 0.014396
vt 0.988624 0.986661
vt 0.988624 0.013811
vt 0.358597 0.986662
vt 0.358597 0.013811
vt 0.468685 0.169491
vt 0.469160 0.831565
vt 0.359074 0.987246
vt 0.359064 0.014396
vt 0.358597 0.013811
vt 0.359065 0.987246
vt 0.230317 0.988806
vt 0.230317 0.009433
vt 0.320898 0.009433
vt 0.320899 0.988806
vt 0.878537 0.830981
vt 0.468684 0.830981
vt 0.468685 0.169491
vt 0.878537 0.169491
vt 0.231472 0.987280
vt 0.231472 0.007907
vt 0.322053 0.007907
vt 0.322053 0.987280
vt 0.879005 0.831566
vt 0.469152 0.831566
vt 0.469153 0.170076
vt 0.879005 0.170076
vt 0.123939 0.983273
vt 0.123939 0.354992
vt 0.213666 0.354992
vt 0.213666 0.983273
vt 0.212038 0.352453
vt 0.212038 0.980734
vt 0.122310 0.980734
vt 0.122309 0.352453
vt 0.989093 0.987246
vt 0.989092 0.014396
vt 0.988624 0.986661
vt 0.988624 0.013811
vt 0.358597 0.986662
vt 0.358597 0.013811
vt 0.468685 0.169491
vt 0.469160 0.831565
vt 0.359074 0.987246
vt 0.359064 0.014396
vt 0.358597 0.013811
vt 0.359065 0.987246
vt 0.230317 0.988806
vt 0.230317 0.009433
vt 0.320898 0.009433
vt 0.320899 0.988806
vt 0.878537 0.830981
vt 0.468684 0.830981
vt 0.468685 0.169491
vt 0.878537 0.169491
vt 0.231472 0.987280
vt 0.231472 0.007907
vt 0.322053 0.007907
vt 0.322053 0.987280
vt 0.879005 0.831566
vt 0.469152 0.831566
vt 0.469153 0.170076
vt 0.879005 0.170076
vt 0.123939 0.983273
vt 0.123939 0.354992
vt 0.213666 0.354992
vt 0.213666 0.983273
vt 0.212038 0.352453
vt 0.212038 0.980734
vt 0.122310 0.980734
vt 0.122309 0.352453
vt 0.989093 0.987246
vt 0.989092 0.014396
vt 0.988624 0.986661
vt 0.988624 0.013811
vt 0.358597 0.986662
vt 0.358597 0.013811
vt 0.468685 0.169491
vt 0.469160 0.831565
vt 0.359074 0.987246
vt 0.359064 0.014396
vt 0.358597 0.013811
vt 0.359065 0.987246
vt 0.230317 0.988806
vt 0.230317 0.009433
vt 0.320898 0.009433
vt 0.320899 0.988806
vt 0.878537 0.830981
vt 0.468684 0.830981
vt 0.468685 0.169491
vt 0.878537 0.169491
vt 0.231472 0.987280
vt 0.231472 0.007907
vt 0.322053 0.007907
vt 0.322053 0.987280
vt 0.879005 0.831566
vt 0.469152 0.831566
vt 0.469153 0.170076
vt 0.879005 0.170076
vt 0.123939 0.983273
vt 0.123939 0.354992
vt 0.213666 0.354992
vt 0.213666 0.983273
vt 0.212038 0.352453
vt 0.212038 0.980734
vt 0.122310 0.980734
vt 0.122309 0.352453
vt 0.989093 0.987246
vt 0.989092 0.014396
vt 0.988624 0.986661
vt 0.988624 0.013811
vt 0.358597 0.986662
vt 0.358597 0.013811
vt 0.468685 0.169491
vt 0.469160 0.831565
vt 0.359074 0.987246
vt 0.359064 0.014396
vt 0.358597 0.013811
vt 0.359065 0.987246
vt 0.230317 0.988806
vt 0.230317 0.009433
vt 0.320898 0.009433
vt 0.320899 0.988806
vt 0.878537 0.830981
vt 0.468684 0.830981
vt 0.468685 0.169491
vt 0.878537 0.169491
vt 0.231472 0.987280
vt 0.231472 0.007907
vt 0.322053 0.007907
vt 0.322053 0.987280
vt 0.879005 0.831566
vt 0.469152 0.831566
vt 0.469153 0.170076
vt 0.879005 0.170076
vt 0.123939 0.983273
vt 0.123939 0.354992
vt 0.213666 0.354992
vt 0.213666 0.983273
vt 0.212038 0.352453
vt 0.212038 0.980734
vt 0.122310 0.980734
vt 0.122309 0.352453
vt 0.989093 0.987246
vt 0.989092 0.014396
vt 0.988624 0.986661
vt 0.988624 0.013811
vt 0.358597 0.986662
vt 0.358597 0.013811
vt 0.468685 0.169491
vt 0.469160 0.831565
vt 0.359074 0.987246
vt 0.359064 0.014396
vt 0.358597 0.013811
vt 0.359065 0.987246
vt 0.230317 0.988806
vt 0.230317 0.009433
vt 0.320898 0.009433
vt 0.320899 0.988806
vt 0.878537 0.830981
vt 0.468684 0.830981
vt 0.468685 0.169491
vt 0.878537 0.169491
vt 0.231472 0.987280
vt 0.231472 0.007907
vt 0.322053 0.007907
vt 0.322053 0.987280
vt 0.879005 0.831566
vt 0.469152 0.831566
vt 0.469153 0.170076
vt 0.879005 0.170076
vt 0.123939 0.983273
vt 0.123939 0.354992
vt 0.213666 0.354992
vt 0.213666 0.983273
vt 0.212038 0.352453
vt 0.212038 0.980734
vt 0.122310 0.980734
vt 0.122309 0.352453
vt 0.989093 0.987246
vt 0.989092 0.014396
vt 0.988624 0.986661
vt 0.988624 0.013811
vt 0.358597 0.986662
vt 0.358597 0.013811
vt 0.468685 0.169491
vt 0.469160 0.831565
vt 0.359074 0.987246
vt 0.359064 0.014396
vt 0.358597 0.013811
vt 0.359065 0.987246
vt 0.230317 0.988806
vt 0.230317 0.009433
vt 0.320898 0.009433
vt 0.320899 0.988806
vt 0.878537 0.830981
vt 0.468684 0.830981
vt 0.468685 0.169491
vt 0.878537 0.169491
vt 0.231472 0.987280
vt 0.231472 0.007907
vt 0.322053 0.007907
vt 0.322053 0.987280
vt 0.879005 0.831566
vt 0.469152 0.831566
vt 0.469153 0.170076
vt 0.879005 0.170076
vt 0.123939 0.983273
vt 0.123939 0.354992
vt 0.213666 0.354992
vt 0.213666 0.983273
vt 0.212038 0.352453
vt 0.212038 0.980734
vt 0.122310 0.980734
vt 0.122309 0.352453
vt 0.989093 0.987246
vt 0.989092 0.014396
vt 0.988624 0.986661
vt 0.988624 0.013811
vt 0.358597 0.986662
vt 0.358597 0.013811
vt 0.468685 0.169491
vt 0.469160 0.831565
vt 0.359074 0.987246
vt 0.359064 0.014396
vt 0.358597 0.013811
vt 0.359065 0.987246
vt 0.230317 0.988806
vt 0.230317 0.009433
vt 0.320898 0.009433
vt 0.320899 0.988806
vt 0.878537 0.830981
vt 0.468684 0.830981
vt 0.468685 0.169491
vt 0.878537 0.169491
vt 0.231472 0.987280
vt 0.231472 0.007907
vt 0.322053 0.007907
vt 0.322053 0.987280
vt 0.879005 0.831566
vt 0.469152 0.831566
vt 0.469153 0.170076
vt 0.879005 0.170076
vt 0.123939 0.983273
vt 0.123939 0.354992
vt 0.213666 0.354992
vt 0.213666 0.983273
vt 0.212038 0.352453
vt 0.212038 0.980734
vt 0.122310 0.980734
vt 0.122309 0.352453
vt 0.989093 0.987246
vt 0.989092 0.014396
vt 0.988624 0.986661
vt 0.988624 0.013811
vt 0.358597 0.986662
vt 0.358597 0.013811
vt 0.468685 0.169491
vt 0.469160 0.831565
vt 0.359074 0.987246
vt 0.359064 0.014396
vt 0.358597 0.013811
vt 0.359065 0.987246
vt 0.230317 0.988806
vt 0.230317 0.009433
vt 0.320898 0.009433
vt 0.320899 0.988806
vt 0.878537 0.830981
vt 0.468684 0.830981
vt 0.468685 0.169491
vt 0.878537 0.169491
vt 0.231472 0.987280
vt 0.231472 0.007907
vt 0.322053 0.007907
vt 0.322053 0.987280
vt 0.879005 0.831566
vt 0.469152 0.831566
vt 0.469153 0.170076
vt 0.879005 0.170076
vt 0.123939 0.983273
vt 0.123939 0.354992
vt 0.213666 0.354992
vt 0.213666 0.983273
vt 0.212038 0.352453
vt 0.212038 0.980734
vt 0.122310 0.980734
vt 0.122309 0.352453
vt 0.989093 0.987246
vt 0.989092 0.014396
vt 0.988624 0.986661
vt 0.988624 0.013811
vt 0.358597 0.986662
vt 0.358597 0.013811
vt 0.468685 0.169491
vt 0.469160 0.831565
vt 0.359074 0.987246
vt 0.359064 0.014396
vt 0.358597 0.013811
vt 0.359065 0.987246
vt 0.230317 0.988806
vt 0.230317 0.009433
vt 0.320898 0.009433
vt 0.320899 0.988806
vt 0.878537 0.830981
vt 0.468684 0.830981
vt 0.468685 0.169491
vt 0.878537 0.169491
vt 0.231472 0.987280
vt 0.231472 0.007907
vt 0.322053 0.007907
vt 0.322053 0.987280
vt 0.879005 0.831566
vt 0.469152 0.831566
vt 0.469153 0.170076
vt 0.879005 0.170076
vt 0.123939 0.983273
vt 0.123939 0.354992
vt 0.213666 0.354992
vt 0.213666 0.983273
vt 0.212038 0.352453
vt 0.212038 0.980734
vt 0.122310 0.980734
vt 0.122309 0.352453
vt 0.989093 0.987246
vt 0.989092 0.014396
vt 0.988624 0.986661
vt 0.988624 0.013811
vt 0.358597 0.986662
vt 0.358597 0.013811
vt 0.468685 0.169491
vt 0.469160 0.831565
vt 0.359074 0.987246
vt 0.359064 0.014396
vt 0.358597 0.013811
vt 0.359065 0.987246
vt 0.230317 0.988806
vt 0.230317 0.009433
vt 0.320898 0.009433
vt 0.320899 0.988806
vt 0.878537 0.830981
vt 0.468684 0.830981
vt 0.468685 0.169491
vt 0.878537 0.169491
vt 0.231472 0.987280
vt 0.231472 0.007907
vt 0.322053 0.007907
vt 0.322053 0.987280
vt 0.879005 0.831566
vt 0.469152 0.831566
vt 0.469153 0.170076
vt 0.879005 0.170076
vt 0.123939 0.983273
vt 0.123939 0.354992
vt 0.213666 0.354992
vt 0.213666 0.983273
vt 0.212038 0.352453
vt 0.212038 0.980734
vt 0.122310 0.980734
vt 0.122309 0.352453
vt 0.989093 0.987246
vt 0.989092 0.014396
vt 0.988624 0.986661
vt 0.988624 0.013811
vt 0.358597 0.986662
vt 0.358597 0.013811
vt 0.468685 0.169491
vt 0.469160 0.831565
vt 0.359074 0.987246
vt 0.359064 0.014396
vt 0.358597 0.013811
vt 0.359065 0.987246
vt 0.230317 0.988806
vt 0.230317 0.009433
vt 0.320898 0.009433
vt 0.320899 0.988806
vt 0.878537 0.830981
vt 0.468684 0.830981
vt 0.468685 0.169491
vt 0.878537 0.169491
vt 0.231472 0.987280
vt 0.231472 0.007907
vt 0.322053 0.007907
vt 0.322053 0.987280
vt 0.879005 0.831566
vt 0.469152 0.831566
vt 0.469153 0.170076
vt 0.879005 0.170076
vt 0.123939 0.983273
vt 0.123939 0.354992
vt 0.213666 0.354992
vt 0.213666 0.983273
vt 0.212038 0.352453
vt 0.212038 0.980734
vt 0.122310 0.980734
vt 0.122309 0.352453
vt 0.989093 0.987246
vt 0.989092 0.014396
vt 0.988624 0.986661
vt 0.988624 0.013811
vt 0.358597 0.986662
vt 0.358597 0.013811
vt 0.468685 0.169491
vt 0.469160 0.831565
vt 0.359074 0.987246
vt 0.359064 0.014396
vt 0.358597 0.013811
vt 0.359065 0.987246
vt 0.230317 0.988806
vt 0.230317 0.009433
vt 0.320898 0.009433
vt 0.320899 0.988806
vt 0.878537 0.830981
vt 0.468684 0.830981
vt 0.468685 0.169491
vt 0.878537 0.169491
vt 0.231472 0.987280
vt 0.231472 0.007907
vt 0.322053 0.007907
vt 0.322053 0.987280
vt 0.879005 0.831566
vt 0.469152 0.831566
vt 0.469153 0.170076
vt 0.879005 0.170076
vt 0.123939 0.983273
vt 0.123939 0.354992
vt 0.213666 0.354992
vt 0.213666 0.983273
vt 0.212038 0.352453
vt 0.212038 0.980734
vt 0.122310 0.980734
vt 0.122309 0.352453
vt 0.989093 0.987246
vt 0.989092 0.014396
vt 0.988624 0.986661
vt 0.988624 0.013811
vt 0.358597 0.986662
vt 0.358597 0.013811
vt 0.468685 0.169491
vt 0.469160 0.831565
vt 0.359074 0.987246
vt 0.359064 0.014396
vt 0.358597 0.013811
vt 0.359065 0.987246
vt 0.230317 0.988806
vt 0.230317 0.009433
vt 0.320898 0.009433
vt 0.320899 0.988806
vt 0.878537 0.830981
vt 0.468684 0.830981
vt 0.468685 0.169491
vt 0.878537 0.169491
vt 0.231472 0.987280
vt 0.231472 0.007907
vt 0.322053 0.007907
vt 0.322053 0.987280
vt 0.879005 0.831566
vt 0.469152 0.831566
vt 0.469153 0.170076
vt 0.879005 0.170076
vt 0.123939 0.983273
vt 0.123939 0.354992
vt 0.213666 0.354992
vt 0.213666 0.983273
vt 0.212038 0.352453
vt 0.212038 0.980734
vt 0.122310 0.980734
vt 0.122309 0.352453
vt 0.989093 0.987246
vt 0.989092 0.014396
vt 0.988624 0.986661
vt 0.988624 0.013811
vt 0.358597 0.986662
vt 0.358597 0.013811
vt 0.468685 0.169491
vt 0.469160 0.831565
vt 0.359074 0.987246
vt 0.359064 0.014396
vt 0.358597 0.013811
vt 0.359065 0.987246
vt 0.230317 0.988806
vt 0.230317 0.009433
vt 0.320898 0.009433
vt 0.320899 0.988806
vt 0.878537 0.830981
vt 0.468684 0.830981
vt 0.468685 0.169491
vt 0.878537 0.169491
vt 0.231472 0.987280
vt 0.231472 0.007907
vt 0.322053 0.007907
vt 0.322053 0.987280
vt 0.879005 0.831566
vt 0.469152 0.831566
vt 0.469153 0.170076
vt 0.879005 0.170076
vt 0.123939 0.983273
vt 0.123939 0.354992
vt 0.213666 0.354992
vt 0.213666 0.983273
vt 0.212038 0.352453
vt 0.212038 0.980734
vt 0.122310 0.980734
vt 0.122309 0.352453
vt 0.989093 0.987246
vt 0.989092 0.014396
vt 0.988624 0.986661
vt 0.988624 0.013811
vt 0.358597 0.986662
vt 0.358597 0.013811
vt 0.468685 0.169491
vt 0.469160 0.831565
vt 0.359074 0.987246
vt 0.359064 0.014396
vt 0.358597 0.013811
vt 0.359065 0.987246
vn 0.000000 -0.321430 0.946934
vn 0.000000 -0.321430 0.946934
vn 0.000000 0.321430 0.946934
vn 0.000000 0.321430 0.946934
vn -0.142161 0.957398 -0.251354
vn -0.142161 0.957398 0.251354
vn 0.142161 0.957398 0.251354
vn 0.142161 0.957398 -0.251354
vn 0.000000 0.321430 -0.946934
vn 0.000000 0.321430 -0.946934
vn 0.000000 -0.321430 -0.946934
vn 0.000000 -0.321430 -0.946934
vn -0.142161 -0.957398 0.251354
vn -0.142161 -0.957398 -0.251354
vn 0.142161 -0.957398 -0.251354
vn 0.142161 -0.957398 0.251354
vn 0.869174 -0.494506 0.000000
vn 0.869174 -0.494506 0.000000
vn 0.869174 0.494506 0.000000
vn 0.869174 0.494506 0.000000
vn -0.869174 -0.494506 0.000000
vn -0.869174 -0.494506 0.000000
vn -0.869174 0.494506 0.000000
vn -0.869174 0.494506 0.000000
vn 0.000000 -0.321430 0.946934
vn 0.000000 -0.321430 0.946934
vn 0.000000 0.321430 0.946934
vn 0.000000 0.321430 0.946934
vn -0.142161 0.957398 -0.251354
vn -0.142161 0.957398 0.251354
vn 0.142161 0.957398 0.251354
vn 0.142161 0.957398 -0.251354
vn 0.000000 0.321430 -0.946934
vn 0.000000 0.321430 -0.946934
vn 0.000000 -0.321430 -0.946934
vn 0.000000 -0.321430 -0.946934
vn -0.142161 -0.957398 0.251354
vn -0.142161 -0.957398 -0.251354
vn 0.142161 -0.957398 -0.251354
vn 0.142161 -0.957398 0.251354
vn 0.869174 -0.494506 0.000000
vn 0.869174 -0.494506 0.000000
vn 0.869174 0.494506 0.000000
vn 0.869174 0.494506 0.000000
vn -0.869174 -0.494506 0.000000
vn -0.869174 -0.494506 0.000000
vn -0.869174 0.494506 0.000000
vn -0.869174 0.494506 0.000000
vn 0.000000 -0.321430 0.946934
vn 0.000000 -0.321430 0.946934
vn 0.000000 0.321430 0.946934
vn 0.000000 0.321430 0.946934
vn -0.142161 0.957398 -0.251354
vn -0.142161 0.957398 0.251354
vn 0.142161 0.957398 0.251354
vn 0.142161 0.957398 -0.251354
vn 0.000000 0.321430 -0.946934
vn 0.000000 0.321430 -0.946934
vn 0.000000 -0.321430 -0.946934
vn 0.000000 -0.321430 -0.946934
vn -0.142161 -0.957398 0.251354
vn -0.142161 -0.957398 -0.251354
vn 0.142161 -0.957398 -0.251354
vn 0.142161 -0.957398 0.251354
vn 0.869174 -0.494506 0.000000
vn 0.869174 -0.494506 0.000000
vn 0.869174 0.494506 0.000000
vn 0.869174 0.494506 0.000000
vn -0.869174 -0.494506 0.000000
vn -0.869174 -0.494506 0.000000
vn -0.869174 0.494506 0.000000
vn -0.869174 0.494506 0.000000
vn 0.000000 -0.321430 0.946934
vn 0.000000 -0.321430 0.946934
vn 0.000000 0.321430 0.946934
vn 0.000000 0.321430 0.946934
vn -0.142161 0.957398 -0.251354
vn -0.142161 0.957398 0.251354
vn 0.142161 0.957398 0.251354
vn 0.142161 0.957398 -0.251354
vn 0.000000 0.321430 -0.946934
vn 0.000000 0.321430 -0.946934
vn 0.000000 -0.321430 -0.946934
vn 0.000000 -0.321430 -0.946934
vn -0.142161 -0.957398 0.251354
vn -0.142161 -0.957398 -0.251354
vn 0.142161 -0.957398 -0.251354
vn 0.142161 -0.957398 0.251354
vn 0.869174 -0.494506 0.000000
vn 0.869174 -0.494506 0.000000
vn 0.869174 0.494506 0.000000
vn 0.869174 0.494506 0.000000
vn -0.869174 -0.494506 0.000000
vn -0.869174 -0.494506 0.000000
vn -0.869174 0.494506 0.000000
vn -0.869174 0.494506 0.000000
vn 0.000000 -0.321430 0.946934
vn 0.000000 -0.321430 0.946934
vn 0.000000 0.321430 0.946934
vn 0.000000 0.321430 0.946934
vn -0.142161 0.957398 -0.251354
vn -0.142161 0.957398 0.251354
vn 0.142161 0.957398 0.251354
vn 0.142161 0.957398 -0.251354
vn 0.000000 0.321430 -0.946934
vn 0.000000 0.321430 -0.946934
vn 0.000000 -0.321430 -0.946934
vn 0.000000 -0.321430 -0.946934
vn -0.142161 -0.957398 0.251354
vn -0.142161 -0.957398 -0.251354
vn 0.142161 -0.957398 -0.251354
vn 0.142161 -0.957398 0.251354
vn 0.869174 -0.494506 0.000000
vn 0.869174 -0.494506 0.000000
vn 0.869174 0.494506 0.000000
vn 0.869174 0.494506 0.000000
vn -0.869174 -0.494506 0.000000
vn -0.869174 -0.494506 0.000000
vn -0.869174 0.494506 0.000000
vn -0.869174 0.494506 0.000000
vn 0.000000 -0.321430 0.946934
vn 0.000000 -0.321430 0.946934
vn 0.000000 0.321430 0.946934
vn 0.000000 0.321430 0.946934
vn -0.142161 0.957398 -0.251354
vn -0.142161 0.957398 0.251354
vn 0.142161 0.957398 0.251354
vn 0.142161 0.957398 -0.251354
vn 0.000000 0.321430 -0.946933
vn 0.000000 0.321430 -0.946934
vn 0.000000 -0.321430 -0.946934
vn 0.000000 -0.321430 -0.946934
vn -0.142161 -0.957398 0.251354
vn -0.142161 -0.957398 -0.251354
vn 0.142161 -0.957398 -0.251354
vn 0.142161 -0.957398 0.251354
vn 0.869174 -0.494506 0.000000
vn 0.869174 -0.494506 0.000000
vn 0.869174 0.494506 0.000000
vn 0.869174 0.494506 0.000000
vn -0.869174 -0.494506 0.000000
vn -0.869174 -0.494506 0.000000
vn -0.869174 0.494506 0.000000
vn -0.869174 0.494506 0.000000
vn 0.000000 -0.321430 0.946934
vn 0.000000 -0.321430 0.946934
vn 0.000000 0.321430 0.946934
vn 0.000000 0.321430 0.946934
vn -0.142161 0.957398 -0.251354
vn -0.142161 0.957398 0.251354
vn 0.142161 0.957398 0.251354
vn 0.142161 0.957398 -0.251354
vn 0.000000 0.321430 -0.946934
vn 0.000000 0.321430 -0.946934
vn 0.000000 -0.321430 -0.946934
vn 0.000000 -0.321430 -0.946934
vn -0.142161 -0.957398 0.251354
vn -0.142161 -0.957398 -0.251354
vn 0.142161 -0.957398 -0.251354
vn 0.142161 -0.957398 0.251354
vn 0.869174 -0.494506 0.000000
vn 0.869174 -0.494506 0.000000
vn 0.869175 0.494505 0.000000
vn 0.869175 0.494505 0.000000
vn -0.869175 -0.494505 0.000000
vn -0.869175 -0.494505 0.000000
vn -0.869175 0.494505 0.000000
vn -0.869175 0.494505 0.000000
vn 0.035274 -0.346460 0.937401
vn 0.030214 -0.296756 0.954475
vn -0.035274 0.346460 0.937401
vn -0.030214 0.296757 0.954475
vn -0.225992 0.940599 -0.253380
vn -0.225992 0.940599 0.253380
vn 0.055189 0.967537 0.246629
vn 0.055189 0.967537 -0.246629
vn -0.030214 0.296757 -0.954475
vn -0.035274 0.346460 -0.937401
vn 0.030214 -0.296756 -0.954475
vn 0.035274 -0.346460 -0.937401
vn -0.055189 -0.967537 0.246629
vn -0.055189 -0.967537 -0.246629
vn 0.225992 -0.940599 -0.253380
vn 0.225992 -0.940599 0.253380
vn 0.869174 -0.494506 0.000000
vn 0.869174 -0.494506 0.000000
vn 0.869174 0.494506 0.000000
vn 0.869174 0.494506 0.000000
vn -0.869175 -0.494505 0.000000
vn -0.869175 -0.494505 0.000000
vn -0.869174 0.494506 0.000000
vn -0.869174 0.494506 0.000000
vn 0.000000 -0.321429 0.946934
vn 0.000000 -0.321429 0.946934
vn 0.000000 0.321429 0.946934
vn 0.000000 0.321429 0.946934
vn -0.142161 0.957398 -0.251354
vn -0.142161 0.957398 0.251354
vn 0.142161 0.957398 0.251354
vn 0.142161 0.957398 -0.251354
vn 0.000000 0.321429 -0.946934
vn 0.000000 0.321429 -0.946934
vn 0.000000 -0.321429 -0.946934
vn 0.000000 -0.321429 -0.946934
vn -0.142161 -0.957398 0.251354
vn -0.142161 -0.957398 -0.251354
vn 0.142161 -0.957398 -0.251354
vn 0.142161 -0.957398 0.251354
vn 0.869174 -0.494506 0.000000
vn 0.869174 -0.494506 0.000000
vn 0.869174 0.494506 0.000000
vn 0.869174 0.494506 0.000000
vn -0.869175 -0.494505 0.000000
vn -0.869175 -0.494505 0.000000
vn -0.869175 0.494506 0.000000
vn -0.869175 0.494506 0.000000
vn 0.000000 -0.321429 0.946934
vn 0.000000 -0.321429 0.946934
vn 0.000000 0.321430 0.946934
vn 0.000000 0.321430 0.946934
vn -0.142161 0.957398 -0.251354
vn -0.142161 0.957398 0.251354
vn 0.142161 0.957398 0.251354
vn 0.142161 0.957398 -0.251354
vn 0.000000 0.321429 -0.946934
vn 0.000000 0.321429 -0.946934
vn 0.000000 -0.321429 -0.946934
vn 0.000000 -0.321429 -0.946934
vn -0.142161 -0.957398 0.251354
vn -0.142161 -0.957398 -0.251354
vn 0.142161 -0.957398 -0.251354
vn 0.142161 -0.957398 0.251354
vn 0.869175 -0.494505 0.000000
vn 0.869175 -0.494505 0.000000
vn 0.869175 0.494505 0.000000
vn 0.869175 0.494505 0.000000
vn -0.869175 -0.494505 0.000000
vn -0.869175 -0.494505 0.000000
vn -0.869175 0.494505 0.000000
vn -0.869175 0.494505 0.000000
vn 0.000000 -0.321430 0.946934
vn 0.000000 -0.321430 0.946934
vn 0.000000 0.321430 0.946934
vn 0.000000 0.321430 0.946934
vn -0.142161 0.957398 -0.251354
vn -0.142161 0.957398 0.251354
vn 0.142161 0.957398 0.251354
vn 0.142161 0.957398 -0.251354
vn 0.000000 0.321430 -0.946934
vn 0.000000 0.321430 -0.946934
vn 0.000000 -0.321430 -0.946934
vn 0.000000 -0.321430 -0.946934
vn -0.142161 -0.957398 0.251354
vn -0.142161 -0.957398 -0.251354
vn 0.142161 -0.957398 -0.251354
vn 0.142161 -0.957398 0.251354
vn 0.869175 -0.494506 0.000000
vn 0.869175 -0.494506 0.000000
vn 0.869175 0.494506 0.000000
vn 0.869175 0.494506 0.000000
vn -0.869174 -0.494506 0.000000
vn -0.869174 -0.494506 0.000000
vn -0.869174 0.494506 0.000000
vn -0.869174 0.494506 0.000000
vn 0.000000 -0.321430 0.946934
vn 0.000000 -0.321430 0.946934
vn 0.000000 0.321430 0.946934
vn 0.000000 0.321430 0.946934
vn -0.142161 0.957398 -0.251354
vn -0.142161 0.957398 0.251354
vn 0.142161 0.957398 0.251354
vn 0.142161 0.957398 -0.251354
vn 0.000000 0.321430 -0.946934
vn 0.000000 0.321430 -0.946934
vn 0.000000 -0.321430 -0.946934
vn 0.000000 -0.321430 -0.946934
vn -0.142161 -0.957398 0.251354
vn -0.142161 -0.957398 -0.251354
vn 0.142161 -0.957398 -0.251354
vn 0.142161 -0.957398 0.251354
vn 0.869175 -0.494506 0.000000
vn 0.869175 -0.494506 0.000000
vn 0.869175 0.494506 0.000000
vn 0.869175 0.494506 0.000000
vn -0.869174 -0.494506 0.000000
vn -0.869174 -0.494506 0.000000
vn -0.869174 0.494506 0.000000
vn -0.869174 0.494506 0.000000
vn 0.000000 -0.321429 0.946934
vn 0.000000 -0.321429 0.946934
vn 0.000000 0.321429 0.946934
vn 0.000000 0.321429 0.946934
vn -0.142161 0.957398 -0.251354
vn -0.142161 0.957398 0.251354
vn 0.142161 0.957398 0.251354
vn 0.142161 0.957398 -0.251354
vn 0.000000 0.321429 -0.946934
vn 0.000000 0.321429 -0.946934
vn 0.000000 -0.321430 -0.946934
vn 0.000000 -0.321430 -0.946934
vn -0.142161 -0.957398 0.251354
vn -0.142161 -0.957398 -0.251354
vn 0.142161 -0.957398 -0.251354
vn 0.142161 -0.957398 0.251354
vn 0.869175 -0.494505 0.000000
vn 0.869175 -0.494505 0.000000
vn 0.869175 0.494505 0.000000
vn 0.869175 0.494505 0.000000
vn -0.869175 -0.494505 0.000000
vn -0.869175 -0.494505 0.000000
vn -0.869175 0.494505 0.000000
vn -0.869175 0.494505 0.000000
vn 0.000000 -0.321429 0.946934
vn 0.000000 -0.321429 0.946934
vn 0.000000 0.321429 0.946934
vn 0.000000 0.321429 0.946934
vn -0.142161 0.957398 -0.251354
vn -0.142161 0.957398 0.251354
vn 0.142161 0.957398 0.251354
vn 0.142161 0.957398 -0.251354
vn 0.000000 0.321429 -0.946934
vn 0.000000 0.321429 -0.946934
vn 0.000000 -0.321429 -0.946934
vn 0.000000 -0.321429 -0.946934
vn -0.142161 -0.957398 0.251354
vn -0.142161 -0.957398 -0.251354
vn 0.142161 -0.957398 -0.251354
vn 0.142161 -0.957398 0.251354
vn 0.869175 -0.494505 0.000000
vn 0.869175 -0.494505 0.000000
vn 0.869175 0.494505 0.000000
vn 0.869175 0.494505 0.000000
vn -0.869175 -0.494505 0.000000
vn -0.869175 -0.494505 0.000000
vn -0.869175 0.494505 0.000000
vn -0.869175 0.494505 0.000000
vn -0.031802 -0.295370 0.954853
vn -0.037456 -0.347888 0.936788
vn 0.031802 0.295370 0.954854
vn 0.037456 0.347888 0.936788
vn -0.050130 0.967901 -0.246282
vn -0.050130 0.967901 0.246282
vn 0.230684 0.939451 0.253410
vn 0.230684 0.939451 -0.253410
vn 0.037456 0.347888 -0.936788
vn 0.031802 0.295370 -0.954853
vn -0.037456 -0.347888 -0.936788
vn -0.031802 -0.295370 -0.954853
vn -0.230684 -0.939451 0.253410
vn -0.230684 -0.939451 -0.253410
vn 0.050130 -0.967901 -0.246282
vn 0.050130 -0.967901 0.246282
vn 0.869174 -0.494506 0.000000
vn 0.869174 -0.494506 0.000000
vn 0.869174 0.494506 0.000000
vn 0.869174 0.494506 0.000000
vn -0.869174 -0.494506 0.000000
vn -0.869174 -0.494506 0.000000
vn -0.869174 0.494506 0.000000
vn -0.869174 0.494506 0.000000
vn 0.000000 -0.321430 0.946934
vn 0.000000 -0.321430 0.946934
vn 0.000000 0.321430 0.946934
vn 0.000000 0.321430 0.946934
vn -0.142161 0.957398 -0.251354
vn -0.142161 0.957398 0.251354
vn 0.142161 0.957398 0.251354
vn 0.142161 0.957398 -0.251354
vn 0.000000 0.321430 -0.946934
vn 0.000000 0.321430 -0.946933
vn 0.000000 -0.321430 -0.946934
vn 0.000000 -0.321430 -0.946934
vn -0.142161 -0.957398 0.251354
vn -0.142161 -0.957398 -0.251354
vn 0.142162 -0.957398 -0.251354
vn 0.142162 -0.957398 0.251354
vn 0.869175 -0.494505 0.000000
vn 0.869175 -0.494505 0.000000
vn 0.869175 0.494505 0.000000
vn 0.869175 0.494505 0.000000
vn -0.869174 -0.494506 0.000000
vn -0.869174 -0.494506 0.000000
vn -0.869174 0.494506 0.000000
vn -0.869174 0.494506 0.000000
vn 0.000000 -0.321430 0.946934
vn 0.000000 -0.321430 0.946933
vn 0.000000 0.321430 0.946934
vn 0.000000 0.321430 0.946934
vn -0.142161 0.957398 -0.251354
vn -0.142161 0.957398 0.251354
vn 0.142161 0.957398 0.251354
vn 0.142161 0.957398 -0.251354
vn 0.000000 0.321430 -0.946934
vn 0.000000 0.321430 -0.946934
vn 0.000000 -0.321430 -0.946933
vn 0.000000 -0.321430 -0.946934
vn -0.142161 -0.957398 0.251354
vn -0.142161 -0.957398 -0.251354
vn 0.142162 -0.957398 -0.251354
vn 0.142162 -0.957398 0.251354
vn 0.869175 -0.494505 0.000000
vn 0.869175 -0.494505 0.000000
vn 0.869175 0.494505 0.000000
vn 0.869175 0.494505 0.000000
vn -0.869174 -0.494506 0.000000
vn -0.869174 -0.494506 0.000000
vn -0.869174 0.494506 0.000000
vn -0.869174 0.494506 0.000000
vn 0.000000 -0.321430 0.946934
vn 0.000000 -0.321430 0.946934
vn 0.000000 0.321430 0.946934
vn 0.000000 0.321430 0.946934
vn -0.142161 0.957398 -0.251354
vn -0.142161 0.957398 0.251354
vn 0.142161 0.957398 0.251354
vn 0.142161 0.957398 -0.251354
vn 0.000000 0.321430 -0.946934
vn 0.000000 0.321430 -0.946934
vn 0.000000 -0.321430 -0.946934
vn 0.000000 -0.321430 -0.946934
vn -0.142161 -0.957398 0.251354
vn -0.142161 -0.957398 -0.251354
vn 0.142161 -0.957398 -0.251354
vn 0.142161 -0.957398 0.251354
vn 0.869174 -0.494506 0.000000
vn 0.869174 -0.494506 0.000000
vn 0.869175 0.494506 0.000000
vn 0.869175 0.494506 0.000000
vn -0.869175 -0.494505 0.000000
vn -0.869175 -0.494505 0.000000
vn -0.869175 0.494505 0.000000
vn -0.869175 0.494505 0.000000
vn 0.000000 -0.321430 0.946934
vn 0.000000 -0.321430 0.946934
vn 0.000000 0.321430 0.946934
vn 0.000000 0.321430 0.946934
vn -0.142161 0.957398 -0.251354
vn -0.142161 0.957398 0.251354
vn 0.142161 0.957398 0.251354
vn 0.142161 0.957398 -0.251354
vn 0.000000 0.321430 -0.946934
vn 0.000000 0.321430 -0.946934
vn 0.000000 -0.321430 -0.946933
vn 0.000000 -0.321430 -0.946934
vn -0.142161 -0.957398 0.251354
vn -0.142161 -0.957398 -0.251354
vn 0.142161 -0.957398 -0.251354
vn 0.142161 -0.957398 0.251354
vn 0.869175 -0.494505 0.000000
vn 0.869175 -0.494505 0.000000
vn 0.869175 0.494505 0.000000
vn 0.869175 0.494505 0.000000
vn -0.869174 -0.494506 0.000000
vn -0.869174 -0.494506 0.000000
vn -0.869174 0.494506 0.000000
vn -0.869174 0.494506 0.000000
vn -0.044958 -0.283532 0.957908
vn -0.057112 -0.360183 0.931132
vn 0.044958 0.283532 0.957908
vn 0.057112 0.360183 0.931132
vn -0.006005 0.970020 -0.242950
vn -0.006005 0.970020 0.242950
vn 0.270796 0.928722 0.253268
vn 0.270796 0.928722 -0.253268
vn 0.057112 0.360183 -0.931132
vn 0.044958 0.283532 -0.957908
vn -0.057112 -0.360183 -0.931132
vn -0.044958 -0.283532 -0.957908
vn -0.270796 -0.928722 0.253269
vn -0.270796 -0.928722 -0.253269
vn 0.006005 -0.970020 -0.242950
vn 0.006005 -0.970020 0.242950
vn 0.869174 -0.494506 0.000000
vn 0.869174 -0.494506 0.000000
vn 0.869174 0.494506 0.000000
vn 0.869174 0.494506 0.000000
vn -0.869174 -0.494506 0.000000
vn -0.869174 -0.494506 0.000000
vn -0.869174 0.494506 0.000000
vn -0.869174 0.494506 0.000000
vn -0.131375 -0.250066 0.959275
vn -0.192846 -0.412656 0.890239
vn 0.062192 0.244263 0.967713
vn 0.134057 0.421540 0.896846
vn 0.163455 0.964506 -0.207389
vn 0.163455 0.964506 0.207389
vn 0.449489 0.863892 0.227267
vn 0.449489 0.863892 -0.227267
vn 0.134057 0.421540 -0.896846
vn 0.062192 0.244262 -0.967713
vn -0.192846 -0.412656 -0.890239
vn -0.131375 -0.250066 -0.959275
vn -0.459023 -0.859242 0.225834
vn -0.459023 -0.859242 -0.225834
vn -0.148818 -0.966618 -0.208574
vn -0.148818 -0.966618 0.208574
vn 0.873864 -0.486171 0.000000
vn 0.873864 -0.486171 0.000000
vn 0.873864 0.486171 0.000000
vn 0.873864 0.486171 0.000000
vn -0.869174 -0.494506 0.000000
vn -0.869174 -0.494506 0.000000
vn -0.869174 0.494506 0.000000
vn -0.869174 0.494506 0.000000
vn 0.042011 -0.350828 0.935497
vn 0.035029 -0.292524 0.955616
vn -0.042011 0.350828 0.935497
vn -0.035029 0.292524 0.955616
vn -0.240317 0.937025 -0.253441
vn -0.240317 0.937025 0.253441
vn 0.039675 0.968574 0.245541
vn 0.039675 0.968574 -0.245541
vn -0.035029 0.292524 -0.955616
vn -0.042011 0.350828 -0.935497
vn 0.035029 -0.292524 -0.955616
vn 0.042011 -0.350828 -0.935497
vn -0.039675 -0.968574 0.245542
vn -0.039675 -0.968574 -0.245542
vn 0.240317 -0.937025 -0.253441
vn 0.240317 -0.937025 0.253441
vn 0.869174 -0.494506 0.000000
vn 0.869174 -0.494506 0.000000
vn 0.869174 0.494506 0.000000
vn 0.869174 0.494506 0.000000
vn -0.869175 -0.494505 0.000000
vn -0.869175 -0.494505 0.000000
vn -0.869175 0.494505 0.000000
vn -0.869175 0.494505 0.000000
vn 0.139264 -0.401989 0.904992
vn 0.084741 -0.244608 0.965912
vn -0.139264 0.401989 0.904992
vn -0.084742 0.244608 0.965912
vn -0.406642 0.879629 -0.246771
vn -0.406642 0.879629 0.246771
vn -0.155502 0.961484 0.226644
vn -0.155502 0.961484 -0.226645
vn -0.084742 0.244608 -0.965912
vn -0.139264 0.401989 -0.904992
vn 0.084742 -0.244608 -0.965912
vn 0.139264 -0.401989 -0.904992
vn 0.155502 -0.961484 0.226644
vn 0.155502 -0.961484 -0.226644
vn 0.406642 -0.879629 -0.246771
vn 0.406642 -0.879629 0.246771
vn 0.869174 -0.494506 0.000000
vn 0.869174 -0.494506 0.000000
vn 0.869174 0.494506 0.000000
vn 0.869174 0.494506 0.000000
vn -0.869175 -0.494505 0.000000
vn -0.869175 -0.494505 0.000000
vn -0.869175 0.494505 0.000000
vn -0.869175 0.494505 0.000000
s 1
g pCube31
usemtl lambert2SG
f 1/30/1 2/34/2 4/3/3 3/25/4
f 10/9/5 9/7/6 11/11/7 12/12/8
f 5/14/9 6/36/10 8/19/11 7/26/12
f 13/5/13 14/24/14 16/22/15 15/6/16
f 2/31/17 8/17/18 6/27/19 4/23/20
f 7/29/21 1/1/22 3/13/23 5/10/24
f 1/33/1 13/5/13 15/6/16 2/2/2
f 5/35/9 10/9/5 12/12/8 6/16/10
f 9/7/6 3/4/4 4/28/3 11/8/7
f 14/21/14 7/20/12 8/32/11 16/22/15
f 3/4/23 9/7/6 10/9/5 5/35/24
f 11/11/7 4/15/20 6/16/19 12/12/8
f 13/5/13 1/33/22 7/18/21 14/24/14
f 2/2/17 15/6/16 16/22/15 8/32/18
s 4
f 17/37/25 18/38/26 20/39/27 19/40/28
f 26/41/29 25/42/30 27/43/31 28/44/32
f 21/45/33 22/46/34 24/47/35 23/48/36
f 29/49/37 30/50/38 32/51/39 31/52/40
f 18/53/41 24/54/42 22/55/43 20/56/44
f 23/57/45 17/58/46 19/59/47 21/60/48
f 17/61/25 29/49/37 31/52/40 18/62/26
f 21/63/33 26/41/29 28/44/32 22/64/34
f 25/42/30 19/65/28 20/66/27 27/67/31
f 30/68/38 23/69/36 24/70/35 32/51/39
f 19/65/47 25/42/30 26/41/29 21/63/48
f 27/43/31 20/71/44 22/64/43 28/44/32
f 29/49/37 17/61/46 23/72/45 30/50/38
f 18/62/41 31/52/40 32/51/39 24/70/42
s 7
f 33/73/49 34/74/50 36/75/51 35/76/52
f 42/77/53 41/78/54 43/79/55 44/80/56
f 37/81/57 38/82/58 40/83/59 39/84/60
f 45/85/61 46/86/62 48/87/63 47/88/64
f 34/89/65 40/90/66 38/91/67 36/92/68
f 39/93/69 33/94/70 35/95/71 37/96/72
f 33/97/49 45/85/61 47/88/64 34/98/50
f 37/99/57 42/77/53 44/80/56 38/100/58
f 41/78/54 35/101/52 36/102/51 43/103/55
f 46/104/62 39/105/60 40/106/59 48/87/63
f 35/101/71 41/78/54 42/77/53 37/99/72
f 43/79/55 36/107/68 38/100/67 44/80/56
f 45/85/61 33/97/70 39/108/69 46/86/62
f 34/98/65 47/88/64 48/87/63 40/106/66
s 10
f 49/109/73 50/110/74 52/111/75 51/112/76
f 58/113/77 57/114/78 59/115/79 60/116/80
f 53/117/81 54/118/82 56/119/83 55/120/84
f 61/121/85 62/122/86 64/123/87 63/124/88
f 50/125/89 56/126/90 54/127/91 52/128/92
f 55/129/93 49/130/94 51/131/95 53/132/96
f 49/133/73 61/121/85 63/124/88 50/134/74
f 53/135/81 58/113/77 60/116/80 54/136/82
f 57/114/78 51/137/76 52/138/75 59/139/79
f 62/140/86 55/141/84 56/142/83 64/123/87
f 51/137/95 57/114/78 58/113/77 53/135/96
f 59/115/79 52/143/92 54/136/91 60/116/80
f 61/121/85 49/133/94 55/144/93 62/122/86
f 50/134/89 63/124/88 64/123/87 56/142/90
s 13
f 65/145/97 66/146/98 68/147/99 67/148/100
f 74/149/101 73/150/102 75/151/103 76/152/104
f 69/153/105 70/154/106 72/155/107 71/156/108
f 77/157/109 78/158/110 80/159/111 79/160/112
f 66/161/113 72/162/114 70/163/115 68/164/116
f 71/165/117 65/166/118 67/167/119 69/168/120
f 65/169/97 77/157/109 79/160/112 66/170/98
f 69/171/105 74/149/101 76/152/104 70/172/106
f 73/150/102 67/173/100 68/174/99 75/175/103
f 78/176/110 71/177/108 72/178/107 80/159/111
f 67/173/119 73/150/102 74/149/101 69/171/120
f 75/151/103 68/179/116 70/172/115 76/152/104
f 77/157/109 65/169/118 71/180/117 78/158/110
f 66/170/113 79/160/112 80/159/111 72/178/114
s 16
f 81/181/121 82/182/122 84/183/123 83/184/124
f 90/185/125 89/186/126 91/187/127 92/188/128
f 85/189/129 86/190/130 88/191/131 87/192/132
f 93/193/133 94/194/134 96/195/135 95/196/136
f 82/197/137 88/198/138 86/199/139 84/200/140
f 87/201/141 81/202/142 83/203/143 85/204/144
f 81/205/121 93/193/133 95/196/136 82/206/122
f 85/207/129 90/185/125 92/188/128 86/208/130
f 89/186/126 83/209/124 84/210/123 91/211/127
f 94/212/134 87/213/132 88/214/131 96/195/135
f 83/209/143 89/186/126 90/185/125 85/207/144
f 91/187/127 84/215/140 86/208/139 92/188/128
f 93/193/133 81/205/142 87/216/141 94/194/134
f 82/206/137 95/196/136 96/195/135 88/214/138
s 19
f 97/217/145 98/218/146 100/219/147 99/220/148
f 106/221/149 105/222/150 107/223/151 108/224/152
f 101/225/153 102/226/154 104/227/155 103/228/156
f 109/229/157 110/230/158 112/231/159 111/232/160
f 98/233/161 104/234/162 102/235/163 100/236/164
f 103/237/165 97/238/166 99/239/167 101/240/168
f 97/241/145 109/229/157 111/232/160 98/242/146
f 101/243/153 106/221/149 108/224/152 102/244/154
f 105/222/150 99/245/148 100/246/147 107/247/151
f 110/248/158 103/249/156 104/250/155 112/231/159
f 99/245/167 105/222/150 106/221/149 101/243/168
f 107/223/151 100/251/164 102/244/163 108/224/152
f 109/229/157 97/241/166 103/252/165 110/230/158
f 98/242/161 111/232/160 112/231/159 104/250/162
s 22
f 113/253/169 114/254/170 116/255/171 115/256/172
f 122/257/173 121/258/174 123/259/175 124/260/176
f 117/261/177 118/262/178 120/263/179 119/264/180
f 125/265/181 126/266/182 128/267/183 127/268/184
f 114/269/185 120/270/186 118/271/187 116/272/188
f 119/273/189 113/274/190 115/275/191 117/276/192
f 113/277/169 125/265/181 127/268/184 114/278/170
f 117/279/177 122/257/173 124/260/176 118/280/178
f 121/258/174 115/281/172 116/282/171 123/283/175
f 126/284/182 119/285/180 120/286/179 128/267/183
f 115/281/191 121/258/174 122/257/173 117/279/192
f 123/259/175 116/287/188 118/280/187 124/260/176
f 125/265/181 113/277/190 119/288/189 126/266/182
f 114/278/185 127/268/184 128/267/183 120/286/186
s 25
f 129/289/193 130/290/194 132/291/195 131/292/196
f 138/293/197 137/294/198 139/295/199 140/296/200
f 133/297/201 134/298/202 136/299/203 135/300/204
f 141/301/205 142/302/206 144/303/207 143/304/208
f 130/305/209 136/306/210 134/307/211 132/308/212
f 135/309/213 129/310/214 131/311/215 133/312/216
f 129/313/193 141/301/205 143/304/208 130/314/194
f 133/315/201 138/293/197 140/296/200 134/316/202
f 137/294/198 131/317/196 132/318/195 139/319/199
f 142/320/206 135/321/204 136/322/203 144/303/207
f 131/317/215 137/294/198 138/293/197 133/315/216
f 139/295/199 132/323/212 134/316/211 140/296/200
f 141/301/205 129/313/214 135/324/213 142/302/206
f 130/314/209 143/304/208 144/303/207 136/322/210
s 28
f 145/325/217 146/326/218 148/327/219 147/328/220
f 154/329/221 153/330/222 155/331/223 156/332/224
f 149/333/225 150/334/226 152/335/227 151/336/228
f 157/337/229 158/338/230 160/339/231 159/340/232
f 146/341/233 152/342/234 150/343/235 148/344/236
f 151/345/237 145/346/238 147/347/239 149/348/240
f 145/349/217 157/337/229 159/340/232 146/350/218
f 149/351/225 154/329/221 156/332/224 150/352/226
f 153/330/222 147/353/220 148/354/219 155/355/223
f 158/356/230 151/357/228 152/358/227 160/339/231
f 147/353/239 153/330/222 154/329/221 149/351/240
f 155/331/223 148/359/236 150/352/235 156/332/224
f 157/337/229 145/349/238 151/360/237 158/338/230
f 146/350/233 159/340/232 160/339/231 152/358/234
s 31
f 161/361/241 162/362/242 164/363/243 163/364/244
f 170/365/245 169/366/246 171/367/247 172/368/248
f 165/369/249 166/370/250 168/371/251 167/372/252
f 173/373/253 174/374/254 176/375/255 175/376/256
f 162/377/257 168/378/258 166/379/259 164/380/260
f 167/381/261 161/382/262 163/383/263 165/384/264
f 161/385/241 173/373/253 175/376/256 162/386/242
f 165/387/249 170/365/245 172/368/248 166/388/250
f 169/366/246 163/389/244 164/390/243 171/391/247
f 174/392/254 167/393/252 168/394/251 176/375/255
f 163/389/263 169/366/246 170/365/245 165/387/264
f 171/367/247 164/395/260 166/388/259 172/368/248
f 173/373/253 161/385/262 167/396/261 174/374/254
f 162/386/257 175/376/256 176/375/255 168/394/258
s 34
f 177/397/265 178/398/266 180/399/267 179/400/268
f 186/401/269 185/402/270 187/403/271 188/404/272
f 181/405/273 182/406/274 184/407/275 183/408/276
f 189/409/277 190/410/278 192/411/279 191/412/280
f 178/413/281 184/414/282 182/415/283 180/416/284
f 183/417/285 177/418/286 179/419/287 181/420/288
f 177/421/265 189/409/277 191/412/280 178/422/266
f 181/423/273 186/401/269 188/404/272 182/424/274
f 185/402/270 179/425/268 180/426/267 187/427/271
f 190/428/278 183/429/276 184/430/275 192/411/279
f 179/425/287 185/402/270 186/401/269 181/423/288
f 187/403/271 180/431/284 182/424/283 188/404/272
f 189/409/277 177/421/286 183/432/285 190/410/278
f 178/422/281 191/412/280 192/411/279 184/430/282
s 37
f 193/433/289 194/434/290 196/435/291 195/436/292
f 202/437/293 201/438/294 203/439/295 204/440/296
f 197/441/297 198/442/298 200/443/299 199/444/300
f 205/445/301 206/446/302 208/447/303 207/448/304
f 194/449/305 200/450/306 198/451/307 196/452/308
f 199/453/309 193/454/310 195/455/311 197/456/312
f 193/457/289 205/445/301 207/448/304 194/458/290
f 197/459/297 202/437/293 204/440/296 198/460/298
f 201/438/294 195/461/292 196/462/291 203/463/295
f 206/464/302 199/465/300 200/466/299 208/447/303
f 195/461/311 201/438/294 202/437/293 197/459/312
f 203/439/295 196/467/308 198/460/307 204/440/296
f 205/445/301 193/457/310 199/468/309 206/446/302
f 194/458/305 207/448/304 208/447/303 200/466/306
s 40
f 209/469/313 210/470/314 212/471/315 211/472/316
f 218/473/317 217/474/318 219/475/319 220/476/320
f 213/477/321 214/478/322 216/479/323 215/480/324
f 221/481/325 222/482/326 224/483/327 223/484/328
f 210/485/329 216/486/330 214/487/331 212/488/332
f 215/489/333 209/490/334 211/491/335 213/492/336
f 209/493/313 221/481/325 223/484/328 210/494/314
f 213/495/321 218/473/317 220/476/320 214/496/322
f 217/474/318 211/497/316 212/498/315 219/499/319
f 222/500/326 215/501/324 216/502/323 224/483/327
f 211/497/335 217/474/318 218/473/317 213/495/336
f 219/475/319 212/503/332 214/496/331 220/476/320
f 221/481/325 209/493/334 215/504/333 222/482/326
f 210/494/329 223/484/328 224/483/327 216/502/330
s 43
f 225/505/337 226/506/338 228/507/339 227/508/340
f 234/509/341 233/510/342 235/511/343 236/512/344
f 229/513/345 230/514/346 232/515/347 231/516/348
f 237/517/349 238/518/350 240/519/351 239/520/352
f 226/521/353 232/522/354 230/523/355 228/524/356
f 231/525/357 225/526/358 227/527/359 229/528/360
f 225/529/337 237/517/349 239/520/352 226/530/338
f 229/531/345 234/509/341 236/512/344 230/532/346
f 233/510/342 227/533/340 228/534/339 235/535/343
f 238/536/350 231/537/348 232/538/347 240/519/351
f 227/533/359 233/510/342 234/509/341 229/531/360
f 235/511/343 228/539/356 230/532/355 236/512/344
f 237/517/349 225/529/358 231/540/357 238/518/350
f 226/530/353 239/520/352 240/519/351 232/538/354
s 46
f 241/541/361 242/542/362 244/543/363 243/544/364
f 250/545/365 249/546/366 251/547/367 252/548/368
f 245/549/369 246/550/370 248/551/371 247/552/372
f 253/553/373 254/554/374 256/555/375 255/556/376
f 242/557/377 248/558/378 246/559/379 244/560/380
f 247/561/381 241/562/382 243/563/383 245/564/384
f 241/565/361 253/553/373 255/556/376 242/566/362
f 245/567/369 250/545/365 252/548/368 246/568/370
f 249/546/366 243/569/364 244/570/363 251/571/367
f 254/572/374 247/573/372 248/574/371 256/555/375
f 243/569/383 249/546/366 250/545/365 245/567/384
f 251/547/367 244/575/380 246/568/379 252/548/368
f 253/553/373 241/565/382 247/576/381 254/554/374
f 242/566/377 255/556/376 256/555/375 248/574/378
s 49
f 257/577/385 258/578/386 260/579/387 259/580/388
f 266/581/389 265/582/390 267/583/391 268/584/392
f 261/585/393 262/586/394 264/587/395 263/588/396
f 269/589/397 270/590/398 272/591/399 271/592/400
f 258/593/401 264/594/402 262/595/403 260/596/404
f 263/597/405 257/598/406 259/599/407 261/600/408
f 257/601/385 269/589/397 271/592/400 258/602/386
f 261/603/393 266/581/389 268/584/392 262/604/394
f 265/582/390 259/605/388 260/606/387 267/607/391
f 270/608/398 263/609/396 264/610/395 272/591/399
f 259/605/407 265/582/390 266/581/389 261/603/408
f 267/583/391 260/611/404 262/604/403 268/584/392
f 269/589/397 257/601/406 263/612/405 270/590/398
f 258/602/401 271/592/400 272/591/399 264/610/402
s 52
f 273/613/409 274/614/410 276/615/411 275/616/412
f 282/617/413 281/618/414 283/619/415 284/620/416
f 277/621/417 278/622/418 280/623/419 279/624/420
f 285/625/421 286/626/422 288/627/423 287/628/424
f 274/629/425 280/630/426 278/631/427 276/632/428
f 279/633/429 273/634/430 275/635/431 277/636/432
f 273/637/409 285/625/421 287/628/424 274/638/410
f 277/639/417 282/617/413 284/620/416 278/640/418
f 281/618/414 275/641/412 276/642/411 283/643/415
f 286/644/422 279/645/420 280/646/419 288/627/423
f 275/641/431 281/618/414 282/617/413 277/639/432
f 283/619/415 276/647/428 278/640/427 284/620/416
f 285/625/421 273/637/430 279/648/429 286/626/422
f 274/638/425 287/628/424 288/627/423 280/646/426
s 55
f 289/649/433 290/650/434 292/651/435 291/652/436
f 298/653/437 297/654/438 299/655/439 300/656/440
f 293/657/441 294/658/442 296/659/443 295/660/444
f 301/661/445 302/662/446 304/663/447 303/664/448
f 290/665/449 296/666/450 294/667/451 292/668/452
f 295/669/453 289/670/454 291/671/455 293/672/456
f 289/673/433 301/661/445 303/664/448 290/674/434
f 293/675/441 298/653/437 300/656/440 294/676/442
f 297/654/438 291/677/436 292/678/435 299/679/439
f 302/680/446 295/681/444 296/682/443 304/663/447
f 291/677/455 297/654/438 298/653/437 293/675/456
f 299/655/439 292/683/452 294/676/451 300/656/440
f 301/661/445 289/673/454 295/684/453 302/662/446
f 290/674/449 303/664/448 304/663/447 296/682/450
s 58
f 305/685/457 306/686/458 308/687/459 307/688/460
f 314/689/461 313/690/462 315/691/463 316/692/464
f 309/693/465 310/694/466 312/695/467 311/696/468
f 317/697/469 318/698/470 320/699/471 319/700/472
f 306/701/473 312/702/474 310/703/475 308/704/476
f 311/705/477 305/706/478 307/707/479 309/708/480
f 305/709/457 317/697/469 319/700/472 306/710/458
f 309/711/465 314/689/461 316/692/464 310/712/466
f 313/690/462 307/713/460 308/714/459 315/715/463
f 318/716/470 311/717/468 312/718/467 320/699/471
f 307/713/479 313/690/462 314/689/461 309/711/480
f 315/691/463 308/719/476 310/712/475 316/692/464
f 317/697/469 305/709/478 311/720/477 318/698/470
f 306/710/473 319/700/472 320/699/471 312/718/474
s 61
f 321/721/481 322/722/482 324/723/483 323/724/484
f 330/725/485 329/726/486 331/727/487 332/728/488
f 325/729/489 326/730/490 328/731/491 327/732/492
f 333/733/493 334/734/494 336/735/495 335/736/496
f 322/737/497 328/738/498 326/739/499 324/740/500
f 327/741/501 321/742/502 323/743/503 325/744/504
f 321/745/481 333/733/493 335/736/496 322/746/482
f 325/747/489 330/725/485 332/728/488 326/748/490
f 329/726/486 323/749/484 324/750/483 331/751/487
f 334/752/494 327/753/492 328/754/491 336/735/495
f 323/749/503 329/726/486 330/725/485 325/747/504
f 331/727/487 324/755/500 326/748/499 332/728/488
f 333/733/493 321/745/502 327/756/501 334/734/494
f 322/746/497 335/736/496 336/735/495 328/754/498
s 64
f 337/757/505 338/758/506 340/759/507 339/760/508
f 346/761/509 345/762/510 347/763/511 348/764/512
f 341/765/513 342/766/514 344/767/515 343/768/516
f 349/769/517 350/770/518 352/771/519 351/772/520
f 338/773/521 344/774/522 342/775/523 340/776/524
f 343/777/525 337/778/526 339/779/527 341/780/528
f 337/781/505 349/769/517 351/772/520 338/782/506
f 341/783/513 346/761/509 348/764/512 342/784/514
f 345/762/510 339/785/508 340/786/507 347/787/511
f 350/788/518 343/789/516 344/790/515 352/771/519
f 339/785/527 345/762/510 346/761/509 341/783/528
f 347/763/511 340/791/524 342/784/523 348/764/512
f 349/769/517 337/781/526 343/792/525 350/770/518
f 338/782/521 351/772/520 352/771/519 344/790/522
s 67
f 353/793/529 354/794/530 356/795/531 355/796/532
f 362/797/533 361/798/534 363/799/535 364/800/536
f 357/801/537 358/802/538 360/803/539 359/804/540
f 365/805/541 366/806/542 368/807/543 367/808/544
f 354/809/545 360/810/546 358/811/547 356/812/548
f 359/813/549 353/814/550 355/815/551 357/816/552
f 353/817/529 365/805/541 367/808/544 354/818/530
f 357/819/537 362/797/533 364/800/536 358/820/538
f 361/798/534 355/821/532 356/822/531 363/823/535
f 366/824/542 359/825/540 360/826/539 368/807/543
f 355/821/551 361/798/534 362/797/533 357/819/552
f 363/799/535 356/827/548 358/820/547 364/800/536
f 365/805/541 353/817/550 359/828/549 366/806/542
f 354/818/545 367/808/544 368/807/543 360/826/546
