# Blender v2.78 (sub 0) OBJ File: ''
# www.blender.org
mtllib documents 2.mtl
o item_document_01Shape_item_document_01Shape.mesh
v 0.110057 0.003735 0.015369
v 0.110057 0.003735 -0.015369
v 0.111667 0.001476 0.000000
v 0.110057 0.055601 -0.015370
v 0.110057 0.055601 0.015368
v 0.111667 0.057859 -0.000001
v 0.150738 0.057859 -0.000001
v 0.150738 0.001476 0.000000
v 0.148596 0.003735 -0.015369
v 0.148596 0.055601 -0.015370
v 0.148596 0.003735 0.015369
v 0.148596 0.055601 0.015368
v -0.149379 0.055601 0.211525
v -0.149379 0.055601 -0.211527
v -0.154535 0.029617 -0.211526
v -0.154535 0.029617 0.211526
v -0.149379 0.003735 0.211526
v -0.149379 0.003735 -0.211526
v 0.148597 0.055601 -0.211527
v 0.148597 0.055601 0.211525
v 0.141807 0.029616 0.204736
v 0.141807 0.029617 -0.204737
v 0.148597 0.003735 -0.211526
v 0.148597 0.003735 0.211526
v -0.138657 0.029617 -0.204737
v -0.135931 0.029617 0.204736
vt 0.9377 0.6405
vt 1.0000 0.6405
vt 0.9688 0.6366
vt 1.0000 0.6405
vt 0.9377 0.6405
vt 0.9688 0.6366
vt 0.9688 0.5701
vt 0.9688 0.4997
vt 1.0000 0.4997
vt 1.0000 0.5701
vt 0.9688 0.5662
vt 0.9688 0.6405
vt 1.0000 0.5662
vt 0.9377 0.5662
vt 0.9377 0.5701
vt 0.9377 0.4997
vt 0.9688 0.5662
vt 0.9688 0.6405
vt 0.9377 0.5662
vt 1.0000 0.5662
vt 0.6881 0.4994
vt 0.6881 1.0000
vt 0.6568 1.0000
vt 0.6568 0.4997
vt 0.6259 0.4997
vt 0.6259 1.0000
vt 1.0000 0.6406
vt 1.0000 0.9922
vt 0.9690 0.9922
vt 0.9690 0.6406
vt 0.9380 0.6406
vt 0.9380 0.9922
vt 0.9373 1.0000
vt 0.9373 0.4994
vt 0.9373 0.4994
vt 0.9373 1.0000
vt 0.6881 1.0000
vt 0.6881 0.4994
vt 0.9690 0.9803
vt 1.0000 0.9944
vt 0.9690 1.0000
vt 0.9380 0.9944
vt 0.9380 0.6406
vt 1.0000 0.6406
vt 0.9690 0.9803
vt 0.9690 1.0000
vt 1.0000 0.9944
vt 1.0000 0.6406
vt 0.9690 0.6406
vt 0.9380 0.6406
vt 0.9380 0.9944
vn -0.8142 -0.5806 -0.0000
vn -0.8142 0.5806 0.0000
vn 0.9904 -0.0000 -0.1380
vn 0.0000 -0.9894 -0.1454
vn 0.0000 -0.9894 0.1454
vn 0.9904 0.0000 0.1380
vn -0.0000 0.9894 0.1454
vn 0.0000 0.9894 -0.1454
vn -0.9809 0.1946 -0.0000
vn -1.0000 -0.0004 0.0000
vn -0.9807 -0.1954 0.0000
vn 0.9675 -0.2528 -0.0000
vn 1.0000 0.0005 0.0000
vn 0.9673 0.2538 0.0000
vn 0.0000 1.0000 0.0000
vn 0.0000 -1.0000 -0.0000
vn 0.1491 0.0004 -0.9888
vn 0.1387 0.1971 -0.9705
vn 0.3932 0.0001 -0.9195
vn 0.1383 -0.1966 -0.9707
vn 0.0000 -0.2528 -0.9675
vn 0.0000 0.0005 -1.0000
vn 0.0000 0.2537 -0.9673
vn 0.1206 0.0004 0.9927
vn 0.3428 0.0001 0.9394
vn 0.1360 0.1847 0.9733
vn 0.0000 0.2538 0.9673
vn -0.0000 0.0006 1.0000
vn -0.0000 -0.2528 0.9675
vn 0.1356 -0.1842 0.9735
usemtl item_document_01_S
s off
f 1/1/1 2/2/1 3/3/1
f 4/4/2 5/5/2 6/6/2
s 1
f 7/7/3 8/8/3 9/9/3
f 9/9/3 10/10/3 7/7/3
f 8/11/4 3/12/4 2/2/4
f 2/2/4 9/13/4 8/11/4
f 3/12/5 8/11/5 11/14/5
f 11/14/5 1/1/5 3/12/5
f 8/8/6 7/7/6 12/15/6
f 12/15/6 11/16/6 8/8/6
f 7/17/7 6/18/7 5/5/7
f 5/5/7 12/19/7 7/17/7
f 6/18/8 7/17/8 10/20/8
f 10/20/8 4/4/8 6/18/8
f 13/21/9 14/22/9 15/23/10
f 15/23/10 16/24/10 13/21/9
f 17/25/11 16/24/10 15/23/10
f 15/23/10 18/26/11 17/25/11
f 19/27/12 20/28/12 21/29/13
f 21/29/13 22/30/13 19/27/12
f 23/31/14 22/30/13 21/29/13
f 21/29/13 24/32/14 23/31/14
f 19/33/15 14/22/15 13/21/15
f 13/21/15 20/34/15 19/33/15
f 23/35/16 24/36/16 17/37/16
f 17/37/16 18/38/16 23/35/16
f 25/39/17 18/40/18 15/41/19
f 14/42/20 25/39/17 15/41/19
f 25/39/17 14/42/20 19/43/21
f 19/43/21 22/30/22 25/39/17
f 25/39/17 22/30/22 23/44/23
f 23/44/23 18/40/18 25/39/17
f 26/45/24 16/46/25 17/47/26
f 26/45/24 17/47/26 24/48/27
f 24/48/27 21/49/28 26/45/24
f 26/45/24 21/49/28 20/50/29
f 20/50/29 13/51/30 26/45/24
f 13/51/30 16/46/25 26/45/24