# This file uses centimeters as units for non-parametric coordinates.

mtllib tankBarrier_01.mtl
g default
v 0.083917 0.317015 -0.014074
v 0.083868 0.317015 0.014153
v 0.025118 1.031635 0.000000
v -0.105494 0.317015 -0.123430
v -0.088433 1.031635 -0.065565
v -0.130066 0.317015 -0.109356
v -0.079885 1.048803 -0.050675
v 0.007946 1.048803 0.000002
v -0.079857 1.048804 0.050695
v -0.088438 1.031635 0.065561
v -0.047811 0.108763 -0.032737
v -0.023312 0.108763 -0.018592
v 0.318707 -0.000002 -0.639280
v 0.275126 0.110470 -0.694894
v -0.121491 0.292996 -0.125003
v 0.224578 0.221673 -0.298052
v 0.222701 0.213031 -0.275346
v 0.093323 0.296164 0.000599
v 0.295362 0.098145 -0.700195
v 0.329053 0.012714 -0.657193
v 0.383149 0.098118 -0.649504
v 0.388670 0.110450 -0.629334
v -0.080408 0.108762 0.014145
v -0.080408 0.108762 -0.014145
v -0.788949 0.000003 0.000000
v -0.122035 0.297761 0.124852
v -0.815322 0.110477 0.065549
v -0.130066 0.317015 0.109356
v -0.815317 0.110456 -0.065562
v -0.830030 0.098150 0.050675
v -0.809636 0.012720 -0.000002
v -0.830024 0.098123 -0.050695
v -0.023410 0.108763 0.018750
v -0.047909 0.108763 0.032894
v 0.318612 -0.000002 0.639436
v 0.388566 0.110472 0.629501
v 0.275018 0.110450 0.695052
v -0.105542 0.317015 0.123508
v 0.383039 0.098144 0.649675
v 0.328954 0.012714 0.657353
v 0.295246 0.098118 0.700356
v 0.322051 0.155605 -0.494838
v 0.323331 0.150834 -0.489976
v 0.254691 0.172042 -0.470794
v 0.210807 0.201018 -0.385139
v 0.230923 0.184005 -0.317913
v 0.255367 0.161363 -0.377925
v -0.100028 0.832677 0.077755
v -0.103174 0.778672 0.071549
v -0.107745 0.700191 0.079506
v -0.111562 0.634678 0.089889
v -0.097270 0.662628 0.095484
v -0.007446 0.710979 0.040371
v 0.002304 0.767928 0.030911
v -0.093482 0.820898 0.082650
vt 0.157791 0.876671
vt 0.112689 0.452957
vt 0.124493 0.449071
vt 0.198099 0.163707
vt 0.172273 0.126309
vt 0.247312 0.451599
vt 0.227484 0.870499
vt 0.170298 0.128590
vt 0.153075 0.243387
vt 0.258484 0.458624
vt 0.201136 0.931028
vt 0.163037 0.887209
vt 0.225583 0.878370
vt 0.289920 0.881556
vt 0.786378 0.010383
vt 0.639587 0.463071
vt 0.299370 0.873198
vt 0.320738 0.764550
vt 0.321299 0.734358
vt 0.164252 0.208962
vt 0.330506 0.694685
vt 0.373586 0.491855
vt 0.341936 0.659009
vt 0.812892 0.058660
vt 0.099229 0.898677
vt 0.092311 0.889724
vt 0.264953 0.438555
vt 0.066106 0.766819
vt 0.115417 0.725204
vt 0.188165 0.222456
vt 0.103450 0.693368
vt 0.001992 0.473990
vt 0.046152 0.675404
vt 0.394694 0.491287
vt 0.409834 0.460511
vt 0.344604 0.679642
vt 0.392985 0.465624
vt 0.342475 0.069565
vt 0.916192 0.421521
vt 0.900305 0.039576
vt 0.656762 0.467783
vt 0.269264 0.056574
vt 0.044784 0.698443
vt 0.880691 0.916642
vt 0.744253 0.072433
vt 0.389839 0.510342
vt 0.676627 0.072130
vt 0.142179 0.271743
vt 0.152979 0.263818
vt 0.913797 0.436209
vt 0.106790 0.437732
vt 0.308950 0.003022
vt 0.340530 0.058487
vt 0.277088 0.047671
vt 0.203348 0.028917
vt 0.058571 0.775281
vt 0.807606 0.430105
vt 0.189811 0.035852
vt 0.408580 0.076418
vt 0.055835 0.742354
vt 0.380224 0.482662
vt 0.783486 0.908930
vt 0.400956 0.063826
vt 0.439707 0.230227
vt 0.433188 0.161338
vt 0.522482 0.462155
vt 0.453580 0.266998
vt 0.471365 0.293079
vt 0.747602 0.061499
vt 0.413546 0.491822
vt 0.419143 0.479047
vt 0.790283 0.425085
vt 0.829193 0.870723
vt 0.658793 0.489824
vt 0.671307 0.484495
vt 0.963612 0.844680
vt 0.436012 0.158158
vt 0.561145 0.541157
vt 0.892039 0.848680
vt 0.820668 0.069110
vt 0.901798 0.424889
vt 0.799796 0.428659
vt 0.525623 0.452243
vt 0.686862 0.060199
vt 0.926089 0.453478
vt 0.970301 0.833261
vt 0.887388 0.034415
vt 0.894136 0.859809
vt 0.940282 0.446738
vt 0.407344 0.499767
vt 0.836599 0.880256
vt 0.774207 0.902614
vn 0.996633 0.081968 0.001721
vn 0.996633 0.081968 0.001721
vn 0.996633 0.081968 0.001721
vn 0.482990 0.258338 -0.836649
vn 0.499155 0.058097 -0.864563
vn 0.499172 0.058092 -0.864554
vn 0.499172 0.058092 -0.864554
vn 0.483006 0.258736 -0.836517
vn 0.482990 0.258338 -0.836649
vn -0.495327 0.081855 -0.864842
vn -0.495327 0.081855 -0.864842
vn -0.495327 0.081855 -0.864842
vn 0.000000 1.000000 0.000000
vn 0.000000 1.000000 0.000000
vn 0.000000 1.000000 0.000000
vn -0.894893 0.446280 0.000103
vn -0.895264 0.445536 0.000240
vn -0.976024 0.217662 0.000024
vn -0.976024 0.217662 0.000024
vn -0.966182 0.257863 -0.000037
vn -0.894893 0.446280 0.000103
vn 0.447214 0.447214 0.774597
vn 0.447214 0.447214 0.774597
vn 0.473130 0.323409 0.819485
vn 0.473130 0.323409 0.819485
vn 0.493733 0.157840 0.855169
vn 0.447214 0.447214 0.774597
vn 0.482990 0.258338 -0.836649
vn 0.483006 0.258736 -0.836517
vn 0.446939 0.447956 -0.774326
vn 0.446939 0.447956 -0.774326
vn 0.447006 0.447214 -0.774716
vn 0.482990 0.258338 -0.836649
vn -0.075864 -0.988422 0.131400
vn -0.025351 -0.998714 0.043912
vn -0.025350 -0.998714 0.043912
vn -0.777741 -0.500128 -0.380777
vn -0.654806 -0.529720 -0.539097
vn -0.654802 -0.530250 -0.538580
vn -0.654802 -0.530250 -0.538580
vn -0.777464 -0.501203 -0.379927
vn -0.777741 -0.500128 -0.380777
vn -0.646720 0.470083 -0.600646
vn -0.561307 0.420544 -0.712795
vn -0.561307 0.420544 -0.712795
vn 0.828990 0.505555 0.239142
vn 0.838297 0.482908 0.253099
vn 0.863302 0.478242 0.161225
vn 0.863302 0.478242 0.161225
vn 0.872943 0.474240 0.114314
vn 0.828990 0.505555 0.239142
vn 0.486332 -0.232206 -0.842355
vn 0.486332 -0.232206 -0.842355
vn 0.486332 -0.232206 -0.842355
vn 0.321352 0.766387 -0.556223
vn 0.321277 0.766588 -0.555989
vn 0.219489 0.898624 -0.379868
vn 0.219489 0.898624 -0.379868
vn 0.207193 0.910209 -0.358594
vn 0.321352 0.766387 -0.556223
vn 0.780317 -0.527233 0.336349
vn 0.793986 -0.529774 0.298202
vn 0.836392 -0.538836 0.100520
vn 0.836392 -0.538836 0.100520
vn 0.836392 -0.538836 0.100520
vn 0.780317 -0.527233 0.336349
vn -0.654802 -0.530250 -0.538580
vn -0.654806 -0.529720 -0.539097
vn -0.505067 -0.538673 -0.674343
vn -0.505067 -0.538673 -0.674343
vn -0.505331 -0.538633 -0.674177
vn -0.654802 -0.530250 -0.538580
vn 0.151721 -0.988423 0.000000
vn 0.076084 -0.997101 0.000000
vn 0.030404 -0.999538 0.000001
vn -0.138730 -0.528592 0.837463
vn 0.058661 -0.494909 0.866962
vn -0.248257 -0.557081 0.792483
vn -0.248257 -0.557081 0.792483
vn -0.138340 -0.529592 0.836896
vn -0.138730 -0.528592 0.837463
vn -0.218551 0.554854 0.802728
vn -0.427281 0.523193 0.737360
vn -0.400098 0.369187 0.838822
vn -0.475211 0.879872 -0.000142
vn -0.288581 0.957456 -0.000000
vn -0.288600 0.957450 -0.000084
vn -0.288600 0.957450 -0.000084
vn -0.475340 0.879802 -0.000162
vn -0.475211 0.879872 -0.000142
vn -0.200231 0.483598 -0.852080
vn -0.200231 0.483598 -0.852080
vn -0.200231 0.483598 -0.852080
vn 0.059211 -0.502000 -0.862838
vn -0.138745 -0.529773 -0.836714
vn -0.138800 -0.531254 -0.835766
vn -0.138800 -0.531254 -0.835766
vn 0.059083 -0.504980 -0.861107
vn 0.059211 -0.502000 -0.862838
vn -0.972668 -0.232199 0.000001
vn -0.972668 -0.232199 0.000001
vn -0.972668 -0.232199 0.000001
vn -0.642413 0.766358 -0.000195
vn -0.642203 0.766534 -0.000240
vn -0.475211 0.879872 -0.000142
vn -0.475211 0.879872 -0.000142
vn -0.475340 0.879802 -0.000162
vn -0.642413 0.766358 -0.000195
vn -0.331147 -0.538833 -0.774597
vn -0.331148 -0.538833 -0.774597
vn -0.138800 -0.531254 -0.835766
vn -0.138800 -0.531254 -0.835766
vn -0.138745 -0.529773 -0.836714
vn -0.331147 -0.538833 -0.774597
vn -0.331436 -0.538666 0.774590
vn -0.331194 -0.538631 0.774718
vn -0.138730 -0.528592 0.837463
vn -0.138730 -0.528592 0.837463
vn -0.138340 -0.529592 0.836896
vn -0.331436 -0.538666 0.774590
vn -0.075864 -0.988422 -0.131400
vn -0.038041 -0.997102 -0.065888
vn -0.025351 -0.998714 -0.043911
vn 0.719776 -0.497292 -0.484379
vn 0.793995 -0.529612 -0.298468
vn 0.794498 -0.528861 -0.298463
vn 0.794498 -0.528861 -0.298463
vn 0.720879 -0.495929 -0.484136
vn 0.719776 -0.497292 -0.484379
vn 0.820796 0.522392 -0.231086
vn 0.820796 0.522392 -0.231086
vn 0.820796 0.522392 -0.231086
vn 0.144231 0.957448 0.249982
vn 0.237533 0.879799 0.411743
vn 0.237486 0.879869 0.411621
vn 0.237486 0.879869 0.411621
vn 0.144293 0.957454 0.249924
vn 0.144231 0.957448 0.249982
vn -0.591371 0.547820 0.591754
vn -0.524844 0.296496 0.797890
vn -0.427281 0.523193 0.737360
vn -0.780039 -0.495842 0.381680
vn -0.655244 -0.529774 0.538511
vn -0.656139 -0.528203 0.538965
vn -0.656139 -0.528203 0.538965
vn -0.248257 -0.557081 0.792483
vn -0.780039 -0.495842 0.381680
vn 0.486335 -0.232206 0.842353
vn 0.486335 -0.232206 0.842353
vn 0.486335 -0.232206 0.842353
vn 0.321041 0.766354 0.556448
vn 0.320898 0.766529 0.556290
vn 0.237486 0.879869 0.411621
vn 0.237486 0.879869 0.411621
vn 0.237533 0.879799 0.411743
vn 0.321041 0.766354 0.556448
vn -0.656139 -0.528203 0.538965
vn -0.655244 -0.529774 0.538511
vn -0.505249 -0.538836 0.674077
vn -0.505249 -0.538836 0.674077
vn -0.505248 -0.538836 0.674078
vn -0.656139 -0.528203 0.538965
vn 0.794498 -0.528861 -0.298463
vn 0.793995 -0.529612 -0.298468
vn 0.836530 -0.538669 -0.100267
vn 0.836530 -0.538669 -0.100267
vn 0.836520 -0.538633 -0.100541
vn 0.794498 -0.528861 -0.298463
vn -0.561307 0.420544 -0.712795
vn -0.962803 0.149249 -0.225244
vn -0.561307 0.420544 -0.712795
vn -0.400098 0.369187 0.838822
vn -0.427281 0.523193 0.737360
vn -0.524844 0.296496 0.797890
vn 0.911124 0.412129 0.001573
vn 0.872943 0.474240 0.114314
vn 0.863302 0.478242 0.161225
vn 0.030404 -0.999538 0.000001
vn 0.076084 -0.997101 0.000000
vn -0.025350 -0.998714 0.043912
vn 0.030404 -0.999538 0.000001
vn -0.025350 -0.998714 0.043912
vn -0.025351 -0.998714 0.043912
vn 0.030404 -0.999538 0.000001
vn -0.025351 -0.998714 0.043912
vn -0.025351 -0.998714 -0.043911
vn 0.030404 -0.999538 0.000001
vn -0.025351 -0.998714 -0.043911
vn -0.038041 -0.997102 -0.065888
vn 0.838295 0.482911 0.253097
vn 0.838295 0.482911 0.253097
vn 0.838295 0.482911 0.253097
vn 0.144439 0.957439 -0.249896
vn 0.144420 0.957438 -0.249911
vn 0.207193 0.910209 -0.358594
vn 0.144439 0.957439 -0.249896
vn 0.207193 0.910209 -0.358594
vn 0.219489 0.898624 -0.379868
vn 0.144358 0.957441 -0.249936
vn 0.144406 0.957438 -0.249919
vn 0.144378 0.957443 -0.249918
vn 0.144329 0.957446 -0.249932
vn 0.144358 0.957441 -0.249936
vn 0.144378 0.957443 -0.249918
vn 0.219489 0.898624 -0.379868
vn 0.144329 0.957446 -0.249932
vn 0.144378 0.957443 -0.249918
vn 0.144439 0.957439 -0.249896
vn 0.219489 0.898624 -0.379868
vn 0.144378 0.957443 -0.249918
vn 0.667318 -0.563680 0.486777
vn 0.707678 -0.512613 0.486230
vn 0.685209 -0.541966 0.486582
vn 0.718353 -0.500106 0.483594
vn 0.793986 -0.529774 0.298202
vn 0.780317 -0.527233 0.336349
vn 0.780317 -0.527233 0.336349
vn 0.716695 -0.503948 0.482062
vn 0.695576 -0.530447 0.484562
vn 0.718353 -0.500106 0.483594
vn 0.780317 -0.527233 0.336349
vn 0.695576 -0.530447 0.484562
vn 0.685209 -0.541966 0.486582
vn 0.718353 -0.500106 0.483594
vn 0.695576 -0.530447 0.484562
vn 0.667318 -0.563680 0.486777
vn 0.685209 -0.541966 0.486582
vn 0.695576 -0.530447 0.484562
vn 0.917493 0.396102 -0.036193
vn 0.786753 0.615304 -0.049206
vn 0.980698 0.189849 -0.046781
vn 0.980698 0.189849 -0.046781
vn 0.987366 0.102675 0.120688
vn 0.917493 0.396102 -0.036193
vn 0.557369 0.828083 0.060158
vn 0.474393 0.837141 0.272298
vn 0.786753 0.615304 -0.049206
vn 0.786753 0.615304 -0.049206
vn 0.917493 0.396102 -0.036193
vn 0.557369 0.828083 0.060158
vn 0.366202 0.856725 0.363206
vn 0.384333 0.707479 0.593095
vn 0.474393 0.837141 0.272298
vn 0.474393 0.837141 0.272298
vn 0.557369 0.828083 0.060158
vn 0.366202 0.856725 0.363206
vn -0.998308 0.058155 -0.000034
vn -0.966182 0.257863 -0.000037
vn -0.976024 0.217662 0.000024
vn -0.998307 0.058158 -0.000017
vn -0.998308 0.058155 -0.000034
vn -0.976024 0.217662 0.000024
vn -0.998307 0.058158 -0.000017
vn -0.976024 0.217662 0.000024
vn -0.962803 0.149249 -0.225244
vn -0.998308 0.058154 -0.000001
vn -0.998307 0.058158 -0.000017
vn -0.962803 0.149249 -0.225244
vn -0.998308 0.058154 -0.000001
vn -0.962803 0.149249 -0.225244
vn -0.998308 0.058154 -0.000002
vn -0.998308 0.058154 -0.000001
vn -0.998308 0.058154 -0.000002
vn -0.998308 0.058154 -0.000005
vn -0.498152 0.081919 0.863212
vn -0.400098 0.369187 0.838822
vn -0.524844 0.296496 0.797890
vn -0.524844 0.296496 0.797890
vn -0.498152 0.081919 0.863212
vn -0.498152 0.081919 0.863212
vn 0.499154 0.058158 0.864559
vn 0.499154 0.058158 0.864559
vn 0.499154 0.058158 0.864559
vn 0.499154 0.058158 0.864559
vn 0.499154 0.058158 0.864559
vn 0.499154 0.058158 0.864559
vn 0.499154 0.058158 0.864559
vn 0.499154 0.058158 0.864559
vn 0.499154 0.058158 0.864559
vn 0.499154 0.058158 0.864559
vn 0.499154 0.058158 0.864559
vn 0.493733 0.157840 0.855169
vn 0.493733 0.157840 0.855169
vn 0.473130 0.323409 0.819485
vn 0.499154 0.058158 0.864559
vn 0.499154 0.058158 0.864559
vn 0.493733 0.157840 0.855169
vn 0.499154 0.058158 0.864559
vn -0.498152 0.081919 0.863212
vn -0.498152 0.081919 0.863212
vn -0.498152 0.081919 0.863212
vn 0.108330 -0.054300 0.992631
vn -0.196199 -0.206923 0.958483
vn -0.653011 -0.048792 0.755775
vn 0.108330 -0.054300 0.992631
vn 0.347461 -0.110798 0.931125
vn -0.196199 -0.206923 0.958483
vn 0.340809 0.205326 0.917437
vn 0.347461 -0.110798 0.931125
vn 0.108330 -0.054300 0.992631
vn 0.108330 -0.054300 0.992631
vn 0.010339 0.254695 0.966966
vn 0.340809 0.205326 0.917437
vn -0.612845 0.158391 0.774166
vn -0.186184 0.340153 0.921755
vn 0.010339 0.254695 0.966966
vn 0.010339 0.254695 0.966966
vn -0.186184 0.340153 0.921755
vn 0.340809 0.205326 0.917437
vn 0.848891 -0.528563 0.002214
vn 0.848891 -0.528563 0.002214
vn 0.848891 -0.528563 0.002214
vn -0.418592 -0.534953 -0.733897
vn -0.418592 -0.534953 -0.733897
vn -0.418592 -0.534953 -0.733897
vn -0.425202 -0.525364 0.737018
vn -0.425202 -0.525364 0.737018
vn -0.425202 -0.525364 0.737018
s off
g tank_barrier
usemtl lambert3SG
f 3/1/1 2/2/2 1/3/3
f 3/1/4 1/3/5 4/6/6
f 4/6/7 5/7/8 3/1/9
f 5/7/10 4/6/11 6/10/12
f 9/11/13 8/12/14 7/13/15
f 9/14/16 7/13/17 5/7/18
f 5/7/19 10/17/20 9/14/21
f 8/12/22 9/25/23 10/26/24
f 10/26/25 3/1/26 8/12/27
f 3/1/28 5/7/29 7/13/30
f 7/13/31 8/12/32 3/1/33
f 13/38/34 12/35/35 11/37/36
f 15/27/37 14/42/38 13/38/39
f 13/38/40 11/37/41 15/27/42
f 14/42/43 15/27/44 4/6/45
f 17/48/46 16/49/47 1/3/48
f 1/3/49 18/51/50 17/48/51
f 21/52/52 20/53/53 19/54/54
f 21/55/55 19/54/56 14/42/57
f 14/42/58 22/58/59 21/55/60
f 22/59/61 13/38/62 20/53/63
f 20/53/64 21/63/65 22/59/66
f 13/38/67 14/42/68 19/54/69
f 19/54/70 20/53/71 13/38/72
f 25/73/73 24/74/74 23/75/75
f 25/73/76 23/75/77 26/72/78
f 26/72/79 27/79/80 25/73/81
f 27/79/82 26/72/83 28/82/84
f 27/79/85 28/82/86 6/85/87
f 6/85/88 29/86/89 27/79/90
f 29/86/91 6/85/92 15/89/93
f 24/74/94 25/73/95 29/92/96
f 29/92/97 15/78/98 24/74/99
f 32/44/100 31/91/101 30/88/102
f 32/76/103 30/88/104 27/79/105
f 27/79/106 29/86/107 32/76/108
f 31/91/109 32/62/110 29/92/111
f 29/92/112 25/73/113 31/91/114
f 30/88/115 31/91/116 25/73/117
f 25/73/118 27/79/119 30/88/120
f 35/45/121 34/41/122 33/16/123
f 18/83/124 36/47/125 35/45/126
f 35/45/127 33/16/128 18/83/129
f 36/40/130 18/39/131 2/81/132
f 38/57/133 37/80/134 36/40/135
f 36/40/136 2/81/137 38/57/138
f 37/80/139 38/57/140 26/72/141
f 34/41/142 35/45/143 37/80/144
f 37/80/145 26/72/146 34/41/147
f 41/24/148 40/69/149 39/15/150
f 41/24/151 39/87/152 36/40/153
f 36/40/154 37/80/155 41/24/156
f 37/80/157 35/45/158 40/69/159
f 40/69/160 41/24/161 37/80/162
f 35/45/163 36/47/164 39/84/165
f 39/84/166 40/69/167 35/45/168
f 15/27/169 6/10/170 4/6/171
f 28/22/172 26/90/173 38/46/174
f 2/81/175 18/39/176 1/50/177
f 23/34/178 24/61/179 11/37/180
f 23/34/181 11/37/182 12/35/183
f 23/34/184 12/35/185 33/71/186
f 23/34/187 33/71/188 34/70/189
f 43/65/190 22/59/191 42/77/192
f 44/4/193 42/5/194 22/58/195
f 44/4/196 22/58/197 14/42/198
f 1/3/199 16/49/200 45/30/201
f 4/6/202 1/3/203 45/30/204
f 14/42/205 4/6/206 45/30/207
f 44/4/208 14/42/209 45/30/210
f 46/67/211 17/68/212 18/66/213
f 12/35/214 13/38/215 22/59/216
f 22/59/217 43/65/218 47/64/219
f 12/35/220 22/59/221 47/64/222
f 18/66/223 12/35/224 47/64/225
f 46/67/226 18/66/227 47/64/228
f 46/9/229 45/30/230 16/49/231
f 16/49/232 17/48/233 46/9/234
f 47/20/235 44/4/236 45/30/237
f 45/30/238 46/9/239 47/20/240
f 43/8/241 42/5/242 44/4/243
f 44/4/244 47/20/245 43/8/246
f 48/18/247 10/17/248 5/7/249
f 49/19/250 48/18/251 5/7/252
f 49/19/253 5/7/254 6/10/255
f 50/21/256 49/19/257 6/10/258
f 50/21/259 6/10/260 28/22/261
f 50/21/262 28/22/263 51/23/264
f 51/23/265 28/22/266 38/46/267
f 38/46/268 52/36/269 51/23/270
f 53/31/271 52/33/272 38/32/273
f 53/31/274 38/32/275 2/2/276
f 54/29/277 53/31/278 2/2/279
f 54/29/280 2/2/281 3/1/282
f 3/1/283 10/26/284 55/28/285
f 54/29/286 3/1/287 55/28/288
f 55/28/289 10/26/290 48/56/291
f 49/60/292 55/28/293 48/56/294
f 49/60/295 54/29/296 55/28/297
f 53/31/298 54/29/299 49/60/300
f 49/60/301 50/43/302 53/31/303
f 51/23/304 52/36/305 50/21/306
f 50/43/307 52/33/308 53/31/309
f 12/35/310 18/66/311 33/71/312
f 11/37/313 24/61/314 15/27/315
f 23/75/316 34/41/317 26/72/318
