# Blender v2.81 (sub 16) OBJ File: ''
# www.blender.org
mtllib TraSsh.mtl
o pCube9_Mesh.001
v -0.366202 0.514551 -0.240989
v 0.250500 0.514551 -0.240989
v 0.250500 0.497910 0.234181
v -0.366202 0.497910 0.234181
v -0.349355 0.524603 -0.230282
v -0.349355 0.508728 0.223029
v 0.238976 0.508728 0.223029
v 0.238976 0.524603 -0.230282
v -0.366202 1.421548 0.266528
v -0.366202 1.438188 -0.208643
v -0.349355 1.437826 -0.198300
v -0.349355 1.421951 0.255011
v 0.250500 1.438188 -0.208643
v 0.238976 1.437826 -0.198300
v 0.238976 1.421951 0.255011
v 0.250500 1.421548 0.266528
v 0.251688 0.020831 0.025050
v 0.285141 0.020641 0.025050
v 0.258080 1.143943 0.025050
v 0.291532 1.143752 0.025050
v 0.258080 1.143943 -0.025050
v 0.291532 1.143752 -0.025050
v 0.251688 0.020831 -0.025050
v 0.285141 0.020641 -0.025050
v 0.251570 0.000104 -0.207992
v 0.285023 -0.000086 -0.207992
v 0.251570 0.000104 0.215061
v 0.285023 -0.000086 0.215061
v 0.251688 0.020831 0.215061
v 0.285141 0.020641 0.215061
v 0.251688 0.020831 -0.207993
v 0.285141 0.020641 -0.207993
v -0.367014 0.020753 -0.017982
v -0.400466 0.020527 -0.017982
v -0.374610 1.143857 -0.017982
v -0.408063 1.143631 -0.017982
v -0.374610 1.143857 0.032118
v -0.408063 1.143631 0.032118
v -0.367014 0.020753 0.032118
v -0.400466 0.020527 0.032118
v -0.366873 0.000026 0.215061
v -0.400326 -0.000200 0.215061
v -0.366873 0.000026 -0.207993
v -0.400326 -0.000200 -0.207993
v -0.367014 0.020753 -0.207993
v -0.400466 0.020527 -0.207993
v -0.367014 0.020753 0.215061
v -0.400466 0.020527 0.215061
v -0.378020 0.303132 0.015164
v 0.264170 0.303132 0.015164
v -0.378020 0.351797 0.015164
v 0.264170 0.351797 0.015164
v -0.378020 0.351797 -0.015164
v 0.264170 0.351797 -0.015164
v -0.378020 0.303132 -0.015164
v 0.264170 0.303132 -0.015164
v 0.297811 1.125588 -0.006620
v 0.297811 1.121066 -0.011723
v 0.297811 1.114691 -0.014141
v 0.297811 1.107923 -0.013319
v 0.297811 1.102311 -0.009446
v 0.297811 1.099143 -0.003409
v 0.297811 1.099143 0.003409
v 0.297811 1.102311 0.009447
v 0.297811 1.107923 0.013320
v 0.297811 1.114691 0.014142
v 0.297811 1.121066 0.011724
v 0.297811 1.125588 0.006620
v 0.297811 1.127219 0.000000
v 0.250500 1.125588 -0.006620
v 0.250500 1.121066 -0.011723
v 0.250500 1.114691 -0.014141
v 0.250500 1.107923 -0.013319
v 0.250500 1.102311 -0.009446
v 0.250500 1.099143 -0.003409
v 0.250500 1.099143 0.003409
v 0.250500 1.102311 0.009447
v 0.250500 1.107923 0.013320
v 0.250500 1.114691 0.014142
v 0.250500 1.121066 0.011724
v 0.250500 1.125588 0.006620
v 0.250500 1.127219 0.000000
v -0.413513 1.119568 0.006620
v -0.413513 1.115047 0.011724
v -0.413513 1.108672 0.014142
v -0.413513 1.101903 0.013320
v -0.413513 1.096292 0.009447
v -0.413513 1.093123 0.003409
v -0.413513 1.093123 -0.003409
v -0.413513 1.096292 -0.009446
v -0.413513 1.101903 -0.013319
v -0.413513 1.108672 -0.014141
v -0.413513 1.115047 -0.011723
v -0.413513 1.119568 -0.006620
v -0.413513 1.121200 0.000000
v -0.366202 1.119568 0.006620
v -0.366202 1.115047 0.011724
v -0.366202 1.108672 0.014142
v -0.366202 1.101903 0.013320
v -0.366202 1.096292 0.009447
v -0.366202 1.093123 0.003409
v -0.366202 1.093123 -0.003409
v -0.366202 1.096292 -0.009446
v -0.366202 1.101903 -0.013319
v -0.366202 1.108672 -0.014141
v -0.366202 1.115047 -0.011723
v -0.366202 1.119568 -0.006620
v -0.366202 1.121200 0.000000
vt 0.758614 0.689779
vt 0.758614 0.469653
vt 0.928222 0.469653
vt 0.928222 0.689779
vt 0.903727 0.905581
vt 0.741922 0.905581
vt 0.741922 0.695582
vt 0.903727 0.695582
vt 0.172523 0.007932
vt 0.342130 0.001993
vt 0.353676 0.331677
vt 0.184068 0.337616
vt 0.697851 0.333625
vt 0.536046 0.327959
vt 0.547461 0.001992
vt 0.709266 0.007659
vt 0.534191 0.337567
vt 0.754317 0.337567
vt 0.754317 0.667251
vt 0.534191 0.667251
vt 0.271240 0.732441
vt 0.061240 0.732441
vt 0.061240 0.406474
vt 0.271240 0.406474
vt 0.528627 0.672042
vt 0.738626 0.672042
vt 0.738626 0.998008
vt 0.528627 0.998008
vt 0.302352 0.337850
vt 0.522478 0.337850
vt 0.522478 0.667534
vt 0.302352 0.667534
vt 0.887321 0.327959
vt 0.725516 0.333626
vt 0.714100 0.007659
vt 0.875906 0.001993
vt 0.371394 0.001992
vt 0.541001 0.007932
vt 0.529456 0.337616
vt 0.359848 0.331676
vt 0.278241 0.891939
vt 0.278241 0.671813
vt 0.282352 0.675927
vt 0.282352 0.885926
vt 0.444157 0.885926
vt 0.447849 0.891939
vt 0.447849 0.671813
vt 0.444157 0.675927
vt 0.038984 0.002060
vt 0.050924 0.001993
vt 0.053206 0.402877
vt 0.041265 0.402945
vt 0.038984 0.563903
vt 0.050924 0.563903
vt 0.050924 0.581786
vt 0.038984 0.581786
vt 0.059812 0.001992
vt 0.071753 0.002060
vt 0.069471 0.402944
vt 0.057531 0.402877
vt 0.076078 0.001992
vt 0.093961 0.001992
vt 0.093961 0.402876
vt 0.076078 0.402876
vt 0.100189 0.001992
vt 0.118072 0.001992
vt 0.118072 0.402877
vt 0.100189 0.402877
vt 0.932959 0.237475
vt 0.944900 0.237475
vt 0.944900 0.388480
vt 0.932959 0.388480
vt 0.001957 0.644231
vt 0.001889 0.632290
vt 0.009288 0.632248
vt 0.009356 0.644189
vt 0.932959 0.395128
vt 0.944900 0.395128
vt 0.944900 0.546133
vt 0.932959 0.546133
vt 0.046403 0.644188
vt 0.046470 0.632247
vt 0.053869 0.632289
vt 0.053801 0.644230
vt 0.352429 0.007487
vt 0.359828 0.007487
vt 0.359828 0.158492
vt 0.352429 0.158492
vt 0.027835 0.560963
vt 0.020437 0.560963
vt 0.020437 0.409958
vt 0.027835 0.409958
vt 0.016542 0.402874
vt 0.004601 0.402955
vt 0.001889 0.002073
vt 0.013830 0.001993
vt 0.013830 0.583642
vt 0.001889 0.583642
vt 0.001889 0.565759
vt 0.013830 0.565759
vt 0.032377 0.402955
vt 0.020437 0.402874
vt 0.023148 0.001992
vt 0.035089 0.002073
vt 0.124300 0.001992
vt 0.142183 0.001992
vt 0.142183 0.402874
vt 0.124300 0.402874
vt 0.148411 0.001992
vt 0.166294 0.001992
vt 0.166294 0.402874
vt 0.148411 0.402874
vt 0.045360 0.560965
vt 0.033419 0.560965
vt 0.033419 0.409960
vt 0.045360 0.409960
vt 0.053801 0.613700
vt 0.053882 0.625640
vt 0.046483 0.625690
vt 0.046403 0.613750
vt 0.013830 0.560967
vt 0.001889 0.560967
vt 0.001889 0.409961
vt 0.013830 0.409961
vt 0.009368 0.613751
vt 0.009288 0.625691
vt 0.001889 0.625641
vt 0.001970 0.613701
vt 0.932959 0.554633
vt 0.940358 0.554633
vt 0.940358 0.705638
vt 0.932959 0.705638
vt 0.025980 0.718614
vt 0.018582 0.718614
vt 0.018582 0.567609
vt 0.025980 0.567609
vt 0.892155 0.231785
vt 0.892155 0.002561
vt 0.909526 0.002561
vt 0.909526 0.231785
vt 0.914412 0.231785
vt 0.914412 0.002561
vt 0.925238 0.002561
vt 0.925238 0.231785
vt 0.929250 0.231785
vt 0.929250 0.002561
vt 0.946620 0.002561
vt 0.946620 0.231785
vt 0.892155 0.467345
vt 0.892155 0.238121
vt 0.902981 0.238121
vt 0.902981 0.467345
vt 0.038112 0.588015
vt 0.039934 0.588015
vt 0.039934 0.604902
vt 0.038112 0.604902
vt 0.882882 0.089094
vt 0.885157 0.089094
vt 0.885157 0.105981
vt 0.882882 0.105981
vt 0.887573 0.089094
vt 0.887573 0.105981
vt 0.044548 0.588015
vt 0.045930 0.588015
vt 0.045930 0.604902
vt 0.044548 0.604902
vt 0.048085 0.588015
vt 0.048085 0.604902
vt 0.050519 0.588015
vt 0.050519 0.604902
vt 0.052674 0.588015
vt 0.052674 0.604902
vt 0.054056 0.588015
vt 0.054056 0.604902
vt 0.882882 0.064983
vt 0.885297 0.064983
vt 0.885297 0.081870
vt 0.882882 0.081870
vt 0.887573 0.064983
vt 0.887573 0.081870
vt 0.031565 0.588015
vt 0.033386 0.588015
vt 0.033386 0.604902
vt 0.031565 0.604902
vt 0.035749 0.588015
vt 0.035749 0.604902
vt 0.041004 0.645222
vt 0.039390 0.647043
vt 0.037115 0.647906
vt 0.034699 0.647613
vt 0.032696 0.646230
vt 0.031565 0.644075
vt 0.031565 0.641642
vt 0.032696 0.639487
vt 0.034699 0.638104
vt 0.037115 0.637811
vt 0.039390 0.638674
vt 0.041004 0.640496
vt 0.041586 0.642859
vt 0.003711 0.606758
vt 0.001889 0.606758
vt 0.001889 0.589871
vt 0.003711 0.589871
vt 0.887573 0.059331
vt 0.885297 0.059331
vt 0.885297 0.042444
vt 0.887573 0.042444
vt 0.882882 0.059331
vt 0.882882 0.042444
vt 0.041073 0.630587
vt 0.039691 0.630587
vt 0.039691 0.613700
vt 0.041073 0.613700
vt 0.037536 0.630587
vt 0.037536 0.613700
vt 0.035102 0.630587
vt 0.035102 0.613700
vt 0.032947 0.630587
vt 0.032947 0.613700
vt 0.031565 0.630587
vt 0.031565 0.613700
vt 0.885718 0.035220
vt 0.883302 0.035220
vt 0.883302 0.018332
vt 0.885718 0.018332
vt 0.881027 0.035220
vt 0.881027 0.018332
vt 0.010259 0.606758
vt 0.008437 0.606758
vt 0.008437 0.589871
vt 0.010259 0.589871
vt 0.006074 0.606758
vt 0.006074 0.589871
vt 0.050278 0.658205
vt 0.048664 0.660027
vt 0.046388 0.660890
vt 0.043972 0.660596
vt 0.041969 0.659214
vt 0.040838 0.657059
vt 0.040838 0.654625
vt 0.041969 0.652470
vt 0.043972 0.651088
vt 0.046388 0.650794
vt 0.048664 0.651657
vt 0.050278 0.653479
vt 0.050860 0.655842
vn 0.0000 -0.9994 -0.0350
vn 0.0000 0.9994 0.0350
vn -1.0000 0.0000 0.0000
vn 1.0000 0.0000 0.0000
vn 0.0000 0.0350 -0.9994
vn 0.0000 -0.0350 0.9994
vn -0.0000 -0.0000 1.0000
vn 0.0057 1.0000 0.0000
vn 0.0000 0.0000 -1.0000
vn 1.0000 -0.0057 0.0000
vn -1.0000 0.0057 0.0000
vn -0.0057 -1.0000 -0.0000
vn -0.0068 1.0000 0.0000
vn -1.0000 -0.0068 -0.0000
vn 1.0000 0.0068 0.0000
vn 0.0068 -1.0000 -0.0000
vn 0.0000 1.0000 0.0000
vn 0.0000 -1.0000 0.0000
vn 0.0000 0.8855 -0.4647
vn 0.0000 0.5681 -0.8230
vn 0.0000 0.1205 -0.9927
vn 0.0000 -0.3546 -0.9350
vn 0.0000 -0.7485 -0.6631
vn 0.0000 -0.9709 -0.2393
vn 0.0000 -0.9709 0.2393
vn 0.0000 -0.7485 0.6631
vn 0.0000 -0.3546 0.9350
vn 0.0000 0.1205 0.9927
vn 0.0000 0.5681 0.8230
vn 0.0000 0.8855 0.4647
usemtl lambert1
s 1
f 1/1/1 2/2/1 3/3/1 4/4/1
f 5/5/2 6/6/2 7/7/2 8/8/2
f 1/9/3 4/10/3 9/11/3 10/12/3
f 11/13/4 12/14/4 6/15/4 5/16/4
f 10/17/5 13/18/5 2/19/5 1/20/5
f 14/21/6 11/22/6 5/23/6 8/24/6
f 12/25/5 15/26/5 7/27/5 6/28/5
f 4/29/6 3/30/6 16/31/6 9/32/6
f 15/33/3 14/34/3 8/35/3 7/36/3
f 3/37/4 2/38/4 13/39/4 16/40/4
f 9/41/2 16/42/2 15/43/2 12/44/2 11/45/2 10/46/2
f 16/42/2 13/47/2 10/46/2 11/45/2 14/48/2 15/43/2
f 17/49/7 18/50/7 20/51/7 19/52/7
f 19/53/8 20/54/8 22/55/8 21/56/8
f 21/57/9 22/58/9 24/59/9 23/60/9
f 18/61/10 24/62/10 22/63/10 20/64/10
f 23/65/11 17/66/11 19/67/11 21/68/11
f 25/69/12 26/70/12 28/71/12 27/72/12
f 27/73/7 28/74/7 30/75/7 29/76/7
f 29/77/8 30/78/8 32/79/8 31/80/8
f 31/81/9 32/82/9 26/83/9 25/84/9
f 26/85/10 32/86/10 30/87/10 28/88/10
f 31/89/11 25/90/11 27/91/11 29/92/11
f 33/93/9 34/94/9 36/95/9 35/96/9
f 35/97/13 36/98/13 38/99/13 37/100/13
f 37/101/7 38/102/7 40/103/7 39/104/7
f 34/105/14 40/106/14 38/107/14 36/108/14
f 39/109/15 33/110/15 35/111/15 37/112/15
f 41/113/16 42/114/16 44/115/16 43/116/16
f 43/117/9 44/118/9 46/119/9 45/120/9
f 45/121/13 46/122/13 48/123/13 47/124/13
f 47/125/7 48/126/7 42/127/7 41/128/7
f 42/129/14 48/130/14 46/131/14 44/132/14
f 47/133/15 41/134/15 43/135/15 45/136/15
f 49/137/7 50/138/7 52/139/7 51/140/7
f 51/141/17 52/142/17 54/143/17 53/144/17
f 53/145/9 54/146/9 56/147/9 55/148/9
f 55/149/18 56/150/18 50/151/18 49/152/18
f 57/153/19 58/154/20 71/155/20 70/156/19
f 58/157/20 59/158/21 72/159/21 71/160/20
f 59/158/21 60/161/22 73/162/22 72/159/21
f 60/163/22 61/164/23 74/165/23 73/166/22
f 61/164/23 62/167/24 75/168/24 74/165/23
f 62/167/24 63/169/25 76/170/25 75/168/24
f 63/169/25 64/171/26 77/172/26 76/170/25
f 64/171/26 65/173/27 78/174/27 77/172/26
f 65/175/27 66/176/28 79/177/28 78/178/27
f 66/176/28 67/179/29 80/180/29 79/177/28
f 67/181/29 68/182/30 81/183/30 80/184/29
f 68/182/30 69/185/17 82/186/17 81/183/30
f 69/185/17 57/153/19 70/156/19 82/186/17
f 68/187/4 67/188/4 66/189/4 65/190/4 64/191/4 63/192/4 62/193/4 61/194/4 60/195/4 59/196/4 58/197/4 57/198/4 69/199/4
f 83/200/30 84/201/29 97/202/29 96/203/30
f 84/204/29 85/205/28 98/206/28 97/207/29
f 85/205/28 86/208/27 99/209/27 98/206/28
f 86/210/27 87/211/26 100/212/26 99/213/27
f 87/211/26 88/214/25 101/215/25 100/212/26
f 88/214/25 89/216/24 102/217/24 101/215/25
f 89/216/24 90/218/23 103/219/23 102/217/24
f 90/218/23 91/220/22 104/221/22 103/219/23
f 91/222/22 92/223/21 105/224/21 104/225/22
f 92/223/21 93/226/20 106/227/20 105/224/21
f 93/228/20 94/229/19 107/230/19 106/231/20
f 94/229/19 95/232/17 108/233/17 107/230/19
f 95/232/17 83/200/30 96/203/30 108/233/17
f 94/234/3 93/235/3 92/236/3 91/237/3 90/238/3 89/239/3 88/240/3 87/241/3 86/242/3 85/243/3 84/244/3 83/245/3 95/246/3
