# 3ds Max Wavefront OBJ Exporter v0.97b - (c)2007 guruware
# File Created: 18.04.2018 02:21:55

mtllib p5.mtl

#
# object Mesh_8358
#

v  -0.0900 0.3341 1.4603
v  -0.0900 0.2673 1.4603
v  0.1642 0.3341 1.4603
v  0.1642 0.2673 1.4603
v  -1.3532 0.3773 1.4562
v  -1.3532 0.3773 1.2082
v  -1.3532 0.3341 1.4562
v  -1.3532 0.3341 1.2082
v  -1.3528 0.0668 -1.4591
v  -1.3528 -0.0000 -1.4591
v  -1.3528 0.0668 -1.2913
v  -1.3528 -0.0000 -1.2913
v  1.3528 -0.0000 -1.2913
v  1.3528 0.0668 -1.2913
v  1.3528 0.0668 -1.4591
v  1.3528 -0.0000 -1.4591
v  1.3530 0.3773 1.1221
v  1.3530 0.3341 1.1221
v  1.3530 0.3773 0.8741
v  1.3530 0.3341 0.8741
v  -1.3532 0.3341 1.1221
v  -1.3532 0.3341 0.8741
v  -1.3532 0.3773 0.8741
v  -1.3532 0.3773 1.1221
v  1.3530 0.3773 0.7880
v  1.3530 0.3341 0.7880
v  1.3530 0.3773 0.5400
v  1.3530 0.3341 0.5400
v  -1.3532 0.3341 0.7880
v  -1.3532 0.3341 0.5400
v  -1.3532 0.3773 0.5400
v  -1.3532 0.3773 0.7880
v  1.3530 0.3773 0.4538
v  1.3530 0.3341 0.4538
v  1.3530 0.3773 0.2058
v  1.3530 0.3341 0.2058
v  -1.3532 0.3341 0.4538
v  -1.3532 0.3341 0.2058
v  -1.3532 0.3773 0.2058
v  -1.3532 0.3773 0.4538
v  1.3530 0.3773 0.1197
v  1.3530 0.3341 0.1197
v  1.3530 0.3773 -0.1283
v  1.3530 0.3341 -0.1283
v  -1.3532 0.3341 0.1197
v  -1.3532 0.3341 -0.1283
v  -1.3532 0.3773 -0.1283
v  -1.3532 0.3773 0.1197
v  1.3530 0.3773 -0.2144
v  1.3530 0.3341 -0.2144
v  1.3530 0.3773 -0.4624
v  1.3530 0.3341 -0.4624
v  -1.3532 0.3341 -0.2144
v  -1.3532 0.3341 -0.4624
v  -1.3532 0.3773 -0.4624
v  -1.3532 0.3773 -0.2144
v  1.3530 0.3773 -0.5485
v  1.3530 0.3341 -0.5485
v  1.3530 0.3773 -0.7965
v  1.3530 0.3341 -0.7965
v  -1.3532 0.3341 -0.5485
v  -1.3532 0.3341 -0.7965
v  -1.3532 0.3773 -0.7965
v  -1.3532 0.3773 -0.5485
v  1.3530 0.3773 -0.8827
v  1.3530 0.3341 -0.8827
v  1.3530 0.3773 -1.1307
v  1.3530 0.3341 -1.1307
v  -1.3532 0.3341 -0.8827
v  -1.3532 0.3341 -1.1307
v  -1.3532 0.3773 -1.1307
v  -1.3532 0.3773 -0.8827
v  1.3530 0.3773 -1.2168
v  1.3530 0.3341 -1.2168
v  1.3530 0.3773 -1.4648
v  1.3530 0.3341 -1.4648
v  -1.3532 0.3341 -1.2168
v  -1.3532 0.3341 -1.4648
v  -1.3532 0.3773 -1.4648
v  -1.3532 0.3773 -1.2168
v  1.0990 0.3341 1.4603
v  1.0990 0.2673 1.4603
v  1.3532 0.3341 1.4603
v  1.3532 0.2673 1.4603
v  1.0990 0.2673 -1.4688
v  1.3532 0.2673 -1.4688
v  1.3532 0.3341 -1.4688
v  1.0990 0.3341 -1.4688
v  1.1110 0.2664 1.4508
v  1.1110 0.0678 1.4508
v  1.3437 0.2664 1.4508
v  1.3437 0.0678 1.4508
v  1.3437 0.0678 1.0960
v  1.3437 0.2664 1.0960
v  1.1110 0.2664 1.0960
v  1.1110 0.0678 1.0960
v  1.0990 0.0668 1.2818
v  1.0990 -0.0000 1.2818
v  1.3532 0.0668 1.2818
v  1.3532 -0.0000 1.2818
v  1.3532 -0.0000 -1.2904
v  1.3532 0.0668 -1.2904
v  1.0990 0.0668 -1.2904
v  1.0990 -0.0000 -1.2904
v  0.1549 0.0678 -1.4595
v  -0.0780 0.0678 -1.4595
v  0.1549 0.2664 -1.4595
v  -0.0780 0.2664 -1.4595
v  0.1549 0.2664 -1.1046
v  0.1549 0.0678 -1.1046
v  -0.0780 0.0678 -1.1046
v  -0.0780 0.2664 -1.1046
v  -1.1096 0.0678 -1.4595
v  -1.3424 0.0678 -1.4595
v  -1.1096 0.2664 -1.4595
v  -1.3424 0.2664 -1.4595
v  -1.1096 0.2664 -1.1046
v  -1.1096 0.0678 -1.1046
v  -1.3424 0.0678 -1.1046
v  -1.3424 0.2664 -1.1046
v  1.3437 0.0678 -1.4595
v  1.1110 0.0678 -1.4595
v  1.3437 0.2664 -1.4595
v  1.1110 0.2664 -1.4595
v  1.3437 0.2664 -1.1046
v  1.3437 0.0678 -1.1046
v  1.1110 0.0678 -1.1046
v  1.1110 0.2664 -1.1046
v  -1.3532 0.2673 1.4603
v  -1.0990 0.2673 1.4603
v  -1.3532 0.3341 1.4603
v  -1.0990 0.3341 1.4603
v  -1.3532 0.2673 -1.4688
v  -1.0990 0.2673 -1.4688
v  -1.3532 0.3341 -1.4688
v  -1.0990 0.3341 -1.4688
v  -1.3532 -0.0000 1.2818
v  -1.0990 -0.0000 1.2818
v  -1.3532 0.0668 1.2818
v  -1.0990 0.0668 1.2818
v  -1.3532 0.0668 -1.2904
v  -1.3532 -0.0000 -1.2904
v  -1.0990 0.0668 -1.2904
v  -1.0990 -0.0000 -1.2904
v  -1.3528 -0.0000 1.2827
v  -1.3528 -0.0000 1.4505
v  -1.3528 0.0668 1.2827
v  -1.3528 0.0668 1.4505
v  1.3528 0.0668 1.2827
v  1.3528 -0.0000 1.2827
v  1.3528 0.0668 1.4505
v  1.3528 -0.0000 1.4505
v  -0.0900 0.2673 -1.4688
v  0.1642 0.2673 -1.4688
v  0.1642 0.3341 -1.4688
v  -0.0900 0.3341 -1.4688
v  -0.0780 0.2664 1.4508
v  -0.0780 0.0678 1.4508
v  0.1549 0.2664 1.4508
v  0.1549 0.0678 1.4508
v  0.1549 0.0678 1.0960
v  0.1549 0.2664 1.0960
v  -0.0780 0.2664 1.0960
v  -0.0780 0.0678 1.0960
v  -0.0900 0.0668 1.2818
v  -0.0900 -0.0000 1.2818
v  0.1642 0.0668 1.2818
v  0.1642 -0.0000 1.2818
v  0.1642 -0.0000 -1.2904
v  0.1642 0.0668 -1.2904
v  -0.0900 0.0668 -1.2904
v  -0.0900 -0.0000 -1.2904
v  -1.3424 0.2664 1.4508
v  -1.3424 0.0678 1.4508
v  -1.1096 0.2664 1.4508
v  -1.1096 0.0678 1.4508
v  -1.1096 0.0678 1.0960
v  -1.1096 0.2664 1.0960
v  -1.3424 0.2664 1.0960
v  -1.3424 0.0678 1.0960
v  1.3530 0.3773 1.4562
v  1.3530 0.3341 1.4562
v  1.3530 0.3773 1.2082
v  1.3530 0.3341 1.2082
v  -0.9551 0.8051 1.5410
v  -1.0286 0.6278 1.5410
v  -0.9551 0.8051 1.4928
v  -1.0286 0.6278 1.4928
v  -0.9551 0.4505 1.5410
v  -0.9551 0.4505 1.4928
v  -0.7778 0.3770 1.5410
v  -0.7778 0.3770 1.4928
v  -0.6004 0.4505 1.5410
v  -0.6004 0.4505 1.4928
v  -0.5270 0.6278 1.5410
v  -0.5270 0.6278 1.4928
v  -0.6004 0.8051 1.5410
v  -0.6004 0.8051 1.4928
v  -0.7778 0.8786 1.5410
v  -0.7778 0.8786 1.4928
v  -0.9439 0.4617 0.0000
v  -1.0127 0.6278 0.0000
v  -0.9439 0.4617 1.4146
v  -1.0127 0.6278 1.4146
v  -0.9439 0.7939 0.0000
v  -0.9439 0.7939 1.4146
v  -0.7778 0.8627 0.0000
v  -0.7778 0.8627 1.4146
v  -0.6117 0.7939 0.0000
v  -0.6117 0.7939 1.4146
v  -0.5429 0.6278 0.0000
v  -0.5429 0.6278 1.4146
v  -0.6117 0.4617 0.0000
v  -0.6117 0.4617 1.4146
v  -0.7778 0.3929 1.4146
v  -0.7778 0.3929 0.0000
v  -0.7778 0.3929 -1.4146
v  -0.6117 0.4617 -1.4146
v  -0.5429 0.6278 -1.4146
v  -0.6117 0.7939 -1.4146
v  -0.7778 0.8627 -1.4146
v  -0.6117 0.7939 -1.4929
v  -0.5429 0.6278 -1.4929
v  -0.6117 0.4617 -1.4929
v  -0.7778 0.3929 -1.4929
v  -0.9439 0.4617 -1.4146
v  -0.9439 0.4617 -1.4929
v  -1.0127 0.6278 -1.4146
v  -1.0127 0.6278 -1.4929
v  -0.9439 0.7939 -1.4146
v  -0.9439 0.7939 -1.4929
v  -0.7778 0.8627 -1.4929
v  -0.9439 0.7939 1.4928
v  -1.0127 0.6278 1.4928
v  -0.9439 0.4617 1.4928
v  -0.7778 0.3929 1.4928
v  -0.6117 0.4617 1.4928
v  -0.5429 0.6278 1.4928
v  -0.6117 0.7939 1.4928
v  -0.7778 0.8627 1.4928
v  -0.7778 0.3770 -1.5410
v  -0.9551 0.4505 -1.5410
v  -0.7778 0.3770 -1.4929
v  -0.9551 0.4505 -1.4929
v  -1.0286 0.6278 -1.5410
v  -1.0286 0.6278 -1.4929
v  -0.9551 0.8051 -1.5410
v  -0.9551 0.8051 -1.4929
v  -0.7778 0.8786 -1.5410
v  -0.7778 0.8786 -1.4929
v  -0.6004 0.8051 -1.5410
v  -0.6004 0.8051 -1.4929
v  -0.5270 0.6278 -1.5410
v  -0.5270 0.6278 -1.4929
v  -0.6004 0.4505 -1.5410
v  -0.6004 0.4505 -1.4929
v  -0.4403 0.8051 1.5410
v  -0.5138 0.6278 1.5410
v  -0.4403 0.8051 1.4928
v  -0.5138 0.6278 1.4928
v  -0.4403 0.4505 1.5410
v  -0.4403 0.4505 1.4928
v  -0.2630 0.3770 1.5410
v  -0.2630 0.3770 1.4928
v  -0.0856 0.4505 1.5410
v  -0.0856 0.4505 1.4928
v  -0.0122 0.6278 1.5410
v  -0.0122 0.6278 1.4928
v  -0.0856 0.8051 1.5410
v  -0.0856 0.8051 1.4928
v  -0.2630 0.8786 1.5410
v  -0.2630 0.8786 1.4928
v  -0.4291 0.4617 0.0000
v  -0.4979 0.6278 0.0000
v  -0.4291 0.4617 1.4146
v  -0.4979 0.6278 1.4146
v  -0.4291 0.7939 0.0000
v  -0.4291 0.7939 1.4146
v  -0.2630 0.8627 0.0000
v  -0.2630 0.8627 1.4146
v  -0.0969 0.7939 0.0000
v  -0.0969 0.7939 1.4146
v  -0.0281 0.6278 0.0000
v  -0.0281 0.6278 1.4146
v  -0.0969 0.4617 0.0000
v  -0.0969 0.4617 1.4146
v  -0.2630 0.3929 1.4146
v  -0.2630 0.3929 0.0000
v  -0.2630 0.3929 -1.4146
v  -0.0969 0.4617 -1.4146
v  -0.0281 0.6278 -1.4146
v  -0.0969 0.7939 -1.4146
v  -0.2630 0.8627 -1.4146
v  -0.0969 0.7939 -1.4929
v  -0.0281 0.6278 -1.4929
v  -0.0969 0.4617 -1.4929
v  -0.2630 0.3929 -1.4929
v  -0.4291 0.4617 -1.4146
v  -0.4291 0.4617 -1.4929
v  -0.4979 0.6278 -1.4146
v  -0.4979 0.6278 -1.4929
v  -0.4291 0.7939 -1.4146
v  -0.4291 0.7939 -1.4929
v  -0.2630 0.8627 -1.4929
v  -0.4291 0.7939 1.4928
v  -0.4979 0.6278 1.4928
v  -0.4291 0.4617 1.4928
v  -0.2630 0.3929 1.4928
v  -0.0969 0.4617 1.4928
v  -0.0281 0.6278 1.4928
v  -0.0969 0.7939 1.4928
v  -0.2630 0.8627 1.4928
v  -0.2630 0.3770 -1.5410
v  -0.4403 0.4505 -1.5410
v  -0.2630 0.3770 -1.4929
v  -0.4403 0.4505 -1.4929
v  -0.5138 0.6278 -1.5410
v  -0.5138 0.6278 -1.4929
v  -0.4403 0.8051 -1.5410
v  -0.4403 0.8051 -1.4929
v  -0.2630 0.8786 -1.5410
v  -0.2630 0.8786 -1.4929
v  -0.0856 0.8051 -1.5410
v  -0.0856 0.8051 -1.4929
v  -0.0122 0.6278 -1.5410
v  -0.0122 0.6278 -1.4929
v  -0.0856 0.4505 -1.5410
v  -0.0856 0.4505 -1.4929
v  0.0707 0.8051 1.5410
v  -0.0027 0.6278 1.5410
v  0.0707 0.8051 1.4928
v  -0.0027 0.6278 1.4928
v  0.0707 0.4505 1.5410
v  0.0707 0.4505 1.4928
v  0.2481 0.3770 1.5410
v  0.2481 0.3770 1.4928
v  0.4254 0.4505 1.5410
v  0.4254 0.4505 1.4928
v  0.4989 0.6278 1.5410
v  0.4989 0.6278 1.4928
v  0.4254 0.8051 1.5410
v  0.4254 0.8051 1.4928
v  0.2481 0.8786 1.5410
v  0.2481 0.8786 1.4928
v  0.0820 0.4617 0.0000
v  0.0132 0.6278 0.0000
v  0.0820 0.4617 1.4146
v  0.0132 0.6278 1.4146
v  0.0820 0.7939 0.0000
v  0.0820 0.7939 1.4146
v  0.2481 0.8627 0.0000
v  0.2481 0.8627 1.4146
v  0.4142 0.7939 0.0000
v  0.4142 0.7939 1.4146
v  0.4830 0.6278 0.0000
v  0.4830 0.6278 1.4146
v  0.4142 0.4617 0.0000
v  0.4142 0.4617 1.4146
v  0.2481 0.3929 1.4146
v  0.2481 0.3929 0.0000
v  0.2481 0.3929 -1.4146
v  0.4142 0.4617 -1.4146
v  0.4830 0.6278 -1.4146
v  0.4142 0.7939 -1.4146
v  0.2481 0.8627 -1.4146
v  0.4142 0.7939 -1.4929
v  0.4830 0.6278 -1.4929
v  0.4142 0.4617 -1.4929
v  0.2481 0.3929 -1.4929
v  0.0820 0.4617 -1.4146
v  0.0820 0.4617 -1.4929
v  0.0132 0.6278 -1.4146
v  0.0132 0.6278 -1.4929
v  0.0820 0.7939 -1.4146
v  0.0820 0.7939 -1.4929
v  0.2481 0.8627 -1.4929
v  0.0820 0.7939 1.4928
v  0.0132 0.6278 1.4928
v  0.0820 0.4617 1.4928
v  0.2481 0.3929 1.4928
v  0.4142 0.4617 1.4928
v  0.4830 0.6278 1.4928
v  0.4142 0.7939 1.4928
v  0.2481 0.8627 1.4928
v  0.2481 0.3770 -1.5410
v  0.0707 0.4505 -1.5410
v  0.2481 0.3770 -1.4929
v  0.0707 0.4505 -1.4929
v  -0.0027 0.6278 -1.5410
v  -0.0027 0.6278 -1.4929
v  0.0707 0.8051 -1.5410
v  0.0707 0.8051 -1.4929
v  0.2481 0.8786 -1.5410
v  0.2481 0.8786 -1.4929
v  0.4254 0.8051 -1.5410
v  0.4254 0.8051 -1.4929
v  0.4989 0.6278 -1.5410
v  0.4989 0.6278 -1.4929
v  0.4254 0.4505 -1.5410
v  0.4254 0.4505 -1.4929
v  0.5925 0.8051 1.5410
v  0.5191 0.6278 1.5410
v  0.5925 0.8051 1.4928
v  0.5191 0.6278 1.4928
v  0.5925 0.4505 1.5410
v  0.5925 0.4505 1.4928
v  0.7699 0.3770 1.5410
v  0.7699 0.3770 1.4928
v  0.9472 0.4505 1.5410
v  0.9472 0.4505 1.4928
v  1.0207 0.6278 1.5410
v  1.0207 0.6278 1.4928
v  0.9472 0.8051 1.5410
v  0.9472 0.8051 1.4928
v  0.7699 0.8786 1.5410
v  0.7699 0.8786 1.4928
v  0.6037 0.4617 0.0000
v  0.5350 0.6278 0.0000
v  0.6037 0.4617 1.4146
v  0.5350 0.6278 1.4146
v  0.6037 0.7939 0.0000
v  0.6037 0.7939 1.4146
v  0.7699 0.8627 0.0000
v  0.7699 0.8627 1.4146
v  0.9359 0.7939 0.0000
v  0.9359 0.7939 1.4146
v  1.0048 0.6278 0.0000
v  1.0048 0.6278 1.4146
v  0.9359 0.4617 0.0000
v  0.9359 0.4617 1.4146
v  0.7699 0.3929 1.4146
v  0.7699 0.3929 0.0000
v  0.7699 0.3929 -1.4146
v  0.9359 0.4617 -1.4146
v  1.0048 0.6278 -1.4146
v  0.9359 0.7939 -1.4146
v  0.7699 0.8627 -1.4146
v  0.9359 0.7939 -1.4929
v  1.0048 0.6278 -1.4929
v  0.9359 0.4617 -1.4929
v  0.7699 0.3929 -1.4929
v  0.6037 0.4617 -1.4146
v  0.6037 0.4617 -1.4929
v  0.5350 0.6278 -1.4146
v  0.5350 0.6278 -1.4929
v  0.6037 0.7939 -1.4146
v  0.6037 0.7939 -1.4929
v  0.7699 0.8627 -1.4929
v  0.6037 0.7939 1.4928
v  0.5350 0.6278 1.4928
v  0.6037 0.4617 1.4928
v  0.7699 0.3929 1.4928
v  0.9359 0.4617 1.4928
v  1.0048 0.6278 1.4928
v  0.9359 0.7939 1.4928
v  0.7699 0.8627 1.4928
v  0.7699 0.3770 -1.5410
v  0.5925 0.4505 -1.5410
v  0.7699 0.3770 -1.4929
v  0.5925 0.4505 -1.4929
v  0.5191 0.6278 -1.5410
v  0.5191 0.6278 -1.4929
v  0.5925 0.8051 -1.5410
v  0.5925 0.8051 -1.4929
v  0.7699 0.8786 -1.5410
v  0.7699 0.8786 -1.4929
v  0.9472 0.8051 -1.5410
v  0.9472 0.8051 -1.4929
v  1.0207 0.6278 -1.5410
v  1.0207 0.6278 -1.4929
v  0.9472 0.4505 -1.5410
v  0.9472 0.4505 -1.4929
v  0.3316 1.1878 1.5410
v  0.2582 1.0104 1.5410
v  0.3316 1.1878 1.4928
v  0.2582 1.0104 1.4928
v  0.3316 0.8331 1.5410
v  0.3316 0.8331 1.4928
v  0.5090 0.7596 1.5410
v  0.5090 0.7596 1.4928
v  0.6863 0.8331 1.5410
v  0.6863 0.8331 1.4928
v  0.7597 1.0104 1.5410
v  0.7597 1.0104 1.4928
v  0.6863 1.1878 1.5410
v  0.6863 1.1878 1.4928
v  0.5090 1.2612 1.5410
v  0.5090 1.2612 1.4928
v  0.3428 0.8443 0.0000
v  0.2740 1.0104 0.0000
v  0.3428 0.8443 1.4146
v  0.2740 1.0104 1.4146
v  0.3428 1.1766 0.0000
v  0.3428 1.1766 1.4146
v  0.5090 1.2453 0.0000
v  0.5090 1.2453 1.4146
v  0.6750 1.1766 0.0000
v  0.6750 1.1766 1.4146
v  0.7439 1.0104 0.0000
v  0.7439 1.0104 1.4146
v  0.6750 0.8443 0.0000
v  0.6750 0.8443 1.4146
v  0.5090 0.7755 1.4146
v  0.5090 0.7755 0.0000
v  0.5090 0.7755 -1.4146
v  0.6750 0.8443 -1.4146
v  0.7439 1.0104 -1.4146
v  0.6750 1.1766 -1.4146
v  0.5090 1.2453 -1.4146
v  0.6750 1.1766 -1.4929
v  0.7439 1.0104 -1.4929
v  0.6750 0.8443 -1.4929
v  0.5090 0.7755 -1.4929
v  0.3428 0.8443 -1.4146
v  0.3428 0.8443 -1.4929
v  0.2740 1.0104 -1.4146
v  0.2740 1.0104 -1.4929
v  0.3428 1.1766 -1.4146
v  0.3428 1.1766 -1.4929
v  0.5090 1.2453 -1.4929
v  0.3428 1.1766 1.4928
v  0.2740 1.0104 1.4928
v  0.3428 0.8443 1.4928
v  0.5090 0.7755 1.4928
v  0.6750 0.8443 1.4928
v  0.7439 1.0104 1.4928
v  0.6750 1.1766 1.4928
v  0.5090 1.2453 1.4928
v  0.5090 0.7596 -1.5410
v  0.3316 0.8331 -1.5410
v  0.5090 0.7596 -1.4929
v  0.3316 0.8331 -1.4929
v  0.2582 1.0104 -1.5410
v  0.2582 1.0104 -1.4929
v  0.3316 1.1878 -1.5410
v  0.3316 1.1878 -1.4929
v  0.5090 1.2612 -1.5410
v  0.5090 1.2612 -1.4929
v  0.6863 1.1878 -1.5410
v  0.6863 1.1878 -1.4929
v  0.7597 1.0104 -1.5410
v  0.7597 1.0104 -1.4929
v  0.6863 0.8331 -1.5410
v  0.6863 0.8331 -1.4929
v  -0.1794 1.1878 1.5410
v  -0.2529 1.0104 1.5410
v  -0.1794 1.1878 1.4928
v  -0.2529 1.0104 1.4928
v  -0.1794 0.8331 1.5410
v  -0.1794 0.8331 1.4928
v  -0.0021 0.7596 1.5410
v  -0.0021 0.7596 1.4928
v  0.1752 0.8331 1.5410
v  0.1752 0.8331 1.4928
v  0.2487 1.0104 1.5410
v  0.2487 1.0104 1.4928
v  0.1752 1.1878 1.5410
v  0.1752 1.1878 1.4928
v  -0.0021 1.2612 1.5410
v  -0.0021 1.2612 1.4928
v  -0.1682 0.8443 0.0000
v  -0.2370 1.0104 0.0000
v  -0.1682 0.8443 1.4146
v  -0.2370 1.0104 1.4146
v  -0.1682 1.1766 0.0000
v  -0.1682 1.1766 1.4146
v  -0.0021 1.2453 0.0000
v  -0.0021 1.2453 1.4146
v  0.1640 1.1766 0.0000
v  0.1640 1.1766 1.4146
v  0.2328 1.0104 0.0000
v  0.2328 1.0104 1.4146
v  0.1640 0.8443 0.0000
v  0.1640 0.8443 1.4146
v  -0.0021 0.7755 1.4146
v  -0.0021 0.7755 0.0000
v  -0.0021 0.7755 -1.4146
v  0.1640 0.8443 -1.4146
v  0.2328 1.0104 -1.4146
v  0.1640 1.1766 -1.4146
v  -0.0021 1.2453 -1.4146
v  0.1640 1.1766 -1.4929
v  0.2328 1.0104 -1.4929
v  0.1640 0.8443 -1.4929
v  -0.0021 0.7755 -1.4929
v  -0.1682 0.8443 -1.4146
v  -0.1682 0.8443 -1.4929
v  -0.2370 1.0104 -1.4146
v  -0.2370 1.0104 -1.4929
v  -0.1682 1.1766 -1.4146
v  -0.1682 1.1766 -1.4929
v  -0.0021 1.2453 -1.4929
v  -0.1682 1.1766 1.4928
v  -0.2370 1.0104 1.4928
v  -0.1682 0.8443 1.4928
v  -0.0021 0.7755 1.4928
v  0.1640 0.8443 1.4928
v  0.2328 1.0104 1.4928
v  0.1640 1.1766 1.4928
v  -0.0021 1.2453 1.4928
v  -0.0021 0.7596 -1.5410
v  -0.1794 0.8331 -1.5410
v  -0.0021 0.7596 -1.4929
v  -0.1794 0.8331 -1.4929
v  -0.2529 1.0104 -1.5410
v  -0.2529 1.0104 -1.4929
v  -0.1794 1.1878 -1.5410
v  -0.1794 1.1878 -1.4929
v  -0.0021 1.2612 -1.5410
v  -0.0021 1.2612 -1.4929
v  0.1752 1.1878 -1.5410
v  0.1752 1.1878 -1.4929
v  0.2487 1.0104 -1.5410
v  0.2487 1.0104 -1.4929
v  0.1752 0.8331 -1.5410
v  0.1752 0.8331 -1.4929
v  -0.6942 1.1878 1.5410
v  -0.7677 1.0104 1.5410
v  -0.6942 1.1878 1.4928
v  -0.7677 1.0104 1.4928
v  -0.6942 0.8331 1.5410
v  -0.6942 0.8331 1.4928
v  -0.5169 0.7596 1.5410
v  -0.5169 0.7596 1.4928
v  -0.3396 0.8331 1.5410
v  -0.3396 0.8331 1.4928
v  -0.2661 1.0104 1.5410
v  -0.2661 1.0104 1.4928
v  -0.3396 1.1878 1.5410
v  -0.3396 1.1878 1.4928
v  -0.5169 1.2612 1.5410
v  -0.5169 1.2612 1.4928
v  -0.6830 0.8443 0.0000
v  -0.7518 1.0104 0.0000
v  -0.6830 0.8443 1.4146
v  -0.7518 1.0104 1.4146
v  -0.6830 1.1766 0.0000
v  -0.6830 1.1766 1.4146
v  -0.5169 1.2453 0.0000
v  -0.5169 1.2453 1.4146
v  -0.3508 1.1766 0.0000
v  -0.3508 1.1766 1.4146
v  -0.2820 1.0104 0.0000
v  -0.2820 1.0104 1.4146
v  -0.3508 0.8443 0.0000
v  -0.3508 0.8443 1.4146
v  -0.5169 0.7755 1.4146
v  -0.5169 0.7755 0.0000
v  -0.5169 0.7755 -1.4146
v  -0.3508 0.8443 -1.4146
v  -0.2820 1.0104 -1.4146
v  -0.3508 1.1766 -1.4146
v  -0.5169 1.2453 -1.4146
v  -0.3508 1.1766 -1.4929
v  -0.2820 1.0104 -1.4929
v  -0.3508 0.8443 -1.4929
v  -0.5169 0.7755 -1.4929
v  -0.6830 0.8443 -1.4146
v  -0.6830 0.8443 -1.4929
v  -0.7518 1.0104 -1.4146
v  -0.7518 1.0104 -1.4929
v  -0.6830 1.1766 -1.4146
v  -0.6830 1.1766 -1.4929
v  -0.5169 1.2453 -1.4929
v  -0.6830 1.1766 1.4928
v  -0.7518 1.0104 1.4928
v  -0.6830 0.8443 1.4928
v  -0.5169 0.7755 1.4928
v  -0.3508 0.8443 1.4928
v  -0.2820 1.0104 1.4928
v  -0.3508 1.1766 1.4928
v  -0.5169 1.2453 1.4928
v  -0.5169 0.7596 -1.5410
v  -0.6942 0.8331 -1.5410
v  -0.5169 0.7596 -1.4929
v  -0.6942 0.8331 -1.4929
v  -0.7677 1.0104 -1.5410
v  -0.7677 1.0104 -1.4929
v  -0.6942 1.1878 -1.5410
v  -0.6942 1.1878 -1.4929
v  -0.5169 1.2612 -1.5410
v  -0.5169 1.2612 -1.4929
v  -0.3396 1.1878 -1.5410
v  -0.3396 1.1878 -1.4929
v  -0.2661 1.0104 -1.5410
v  -0.2661 1.0104 -1.4929
v  -0.3396 0.8331 -1.5410
v  -0.3396 0.8331 -1.4929
# 688 vertices

vn 0.0000 0.0000 1.0000
vn -1.0000 0.0000 0.0000
vn 0.0000 1.0000 -0.0000
vn -0.0000 0.0000 -1.0000
vn 1.0000 0.0000 -0.0000
vn 0.0000 -1.0000 -0.0000
vn 0.9239 -0.3827 -0.0000
vn 0.9239 0.3827 -0.0000
vn 0.3827 0.9239 -0.0000
vn -0.3827 0.9239 0.0000
vn -0.9239 0.3827 0.0000
vn -0.9239 -0.3827 0.0000
vn -0.3827 -0.9239 0.0000
vn 0.3827 -0.9239 -0.0000
vn 0.7071 0.7071 -0.0000
vn 1.0000 -0.0000 -0.0000
vn 0.7071 -0.7071 0.0000
vn 0.7071 -0.7071 -0.0000
vn -0.0000 -1.0000 0.0000
vn -0.7071 -0.7072 0.0000
vn -1.0000 -0.0000 0.0000
vn -0.7071 0.7072 -0.0000
vn -0.7071 0.7072 0.0000
vn -0.0000 1.0000 0.0000
vn -0.0000 1.0000 -0.0000
vn -0.7071 -0.7072 -0.0000
vn -0.0000 -1.0000 -0.0000
vn -0.9239 -0.3828 0.0000
vn -0.9239 0.3828 0.0000
vn -0.3826 0.9239 0.0000
vn 0.3825 0.9239 -0.0000
vn 0.9239 0.3825 -0.0000
vn 0.9239 -0.3825 -0.0000
vn 0.3825 -0.9239 -0.0000
vn -0.3826 -0.9239 0.0000
vn 0.7071 0.7071 0.0000
vn -0.7071 -0.7071 0.0000
vn -0.7071 0.7071 -0.0000
vn -0.7071 0.7071 0.0000
vn 0.7071 0.7072 -0.0000
vn 0.7071 -0.7072 0.0000
vn 0.7071 -0.7072 -0.0000
vn 0.0000 -1.0000 0.0000
vn 0.7071 0.7072 0.0000
vn 0.0000 1.0000 0.0000
vn 0.9239 0.3828 -0.0000
vn 0.9239 -0.3828 -0.0000
vn 0.3826 -0.9239 -0.0000
vn -0.3825 -0.9239 0.0000
vn -0.9239 -0.3825 0.0000
vn -0.9239 0.3825 0.0000
vn -0.3825 0.9239 0.0000
vn 0.3826 0.9239 -0.0000
vn -0.7071 -0.7071 -0.0000
vn -0.0000 0.0000 1.0000
vn -0.0000 -0.0000 1.0000
vn 0.0000 0.0000 -1.0000
vn 0.0000 -0.0000 -1.0000
vn -0.9238 -0.3828 0.0000
vn -0.9238 0.3828 0.0000
vn 0.0000 -0.0000 1.0000
vn 0.9238 0.3828 -0.0000
vn 0.9238 -0.3828 -0.0000
vn -0.0000 -0.0000 -1.0000
vn 1.0000 -0.0000 0.0000
vn 1.0000 0.0000 0.0000
vn -1.0000 0.0000 -0.0000
vn -1.0000 -0.0000 -0.0000
# 68 vertex normals

vt 0.8806 0.5818 0.0000
vt 0.8806 0.5802 0.0000
vt 0.9198 0.5818 0.0000
vt 0.9197 0.5802 0.0000
vt 0.0604 0.5804 0.0000
vt 0.0195 0.5804 0.0000
vt 0.0604 0.5792 0.0000
vt 0.0195 0.5792 0.0000
vt 0.9801 0.6568 0.0000
vt 0.9807 0.6585 0.0000
vt 0.9522 0.6568 0.0000
vt 0.9528 0.6585 0.0000
vt 0.9428 0.6568 0.0000
vt 0.9428 0.5819 0.0000
vt 0.9522 0.5819 0.0000
vt 0.9801 0.5819 0.0000
vt 0.9894 0.6568 0.0000
vt 0.9894 0.5819 0.0000
vt 0.9528 0.5801 0.0000
vt 0.9807 0.5801 0.0000
vt 0.1270 0.6549 0.0000
vt 0.1270 0.6560 0.0000
vt 0.0860 0.6549 0.0000
vt 0.0860 0.6560 0.0000
vt 0.0860 0.5773 0.0000
vt 0.0860 0.5029 0.0000
vt 0.1270 0.5773 0.0000
vt 0.1270 0.5029 0.0000
vt 0.0791 0.6549 0.0000
vt 0.0791 0.5804 0.0000
vt 0.0860 0.5804 0.0000
vt 0.1270 0.5804 0.0000
vt 0.1339 0.6549 0.0000
vt 0.1339 0.5804 0.0000
vt 0.0860 0.5792 0.0000
vt 0.1270 0.5792 0.0000
vt 0.1935 0.6546 0.0000
vt 0.1935 0.6557 0.0000
vt 0.1526 0.6546 0.0000
vt 0.1525 0.6557 0.0000
vt 0.1526 0.5773 0.0000
vt 0.1526 0.5029 0.0000
vt 0.1935 0.5773 0.0000
vt 0.1935 0.5029 0.0000
vt 0.1456 0.6546 0.0000
vt 0.1456 0.5801 0.0000
vt 0.1526 0.5801 0.0000
vt 0.1935 0.5801 0.0000
vt 0.2005 0.6546 0.0000
vt 0.2005 0.5801 0.0000
vt 0.1526 0.5789 0.0000
vt 0.1935 0.5789 0.0000
vt 0.2611 0.6549 0.0000
vt 0.2611 0.6561 0.0000
vt 0.2202 0.6549 0.0000
vt 0.2202 0.6561 0.0000
vt 0.2203 0.5772 0.0000
vt 0.2203 0.5027 0.0000
vt 0.2612 0.5772 0.0000
vt 0.2612 0.5027 0.0000
vt 0.2132 0.6549 0.0000
vt 0.2132 0.5805 0.0000
vt 0.2202 0.5805 0.0000
vt 0.2611 0.5805 0.0000
vt 0.2681 0.6549 0.0000
vt 0.2681 0.5805 0.0000
vt 0.2202 0.5793 0.0000
vt 0.2611 0.5793 0.0000
vt 0.3292 0.6551 0.0000
vt 0.3292 0.6563 0.0000
vt 0.2883 0.6551 0.0000
vt 0.2883 0.6563 0.0000
vt 0.2900 0.5778 0.0000
vt 0.2900 0.5033 0.0000
vt 0.3310 0.5778 0.0000
vt 0.3310 0.5033 0.0000
vt 0.2813 0.6551 0.0000
vt 0.2813 0.5807 0.0000
vt 0.2883 0.5807 0.0000
vt 0.3292 0.5807 0.0000
vt 0.3362 0.6551 0.0000
vt 0.3362 0.5807 0.0000
vt 0.2883 0.5795 0.0000
vt 0.3292 0.5795 0.0000
vt 0.3993 0.6551 0.0000
vt 0.3993 0.6563 0.0000
vt 0.3583 0.6551 0.0000
vt 0.3583 0.6563 0.0000
vt 0.3583 0.5772 0.0000
vt 0.3583 0.5027 0.0000
vt 0.3993 0.5772 0.0000
vt 0.3993 0.5027 0.0000
vt 0.3514 0.6551 0.0000
vt 0.3514 0.5807 0.0000
vt 0.3583 0.5807 0.0000
vt 0.3993 0.5807 0.0000
vt 0.4062 0.6551 0.0000
vt 0.4062 0.5807 0.0000
vt 0.3583 0.5795 0.0000
vt 0.3993 0.5795 0.0000
vt 0.4693 0.6557 0.0000
vt 0.4693 0.6569 0.0000
vt 0.4284 0.6557 0.0000
vt 0.4284 0.6569 0.0000
vt 0.4275 0.5779 0.0000
vt 0.4275 0.5034 0.0000
vt 0.4684 0.5779 0.0000
vt 0.4684 0.5034 0.0000
vt 0.4214 0.6557 0.0000
vt 0.4214 0.5813 0.0000
vt 0.4284 0.5813 0.0000
vt 0.4693 0.5813 0.0000
vt 0.4763 0.6557 0.0000
vt 0.4763 0.5813 0.0000
vt 0.4284 0.5801 0.0000
vt 0.4693 0.5801 0.0000
vt 0.5394 0.6549 0.0000
vt 0.5394 0.6560 0.0000
vt 0.4984 0.6549 0.0000
vt 0.4984 0.6560 0.0000
vt 0.4984 0.5767 0.0000
vt 0.4984 0.5023 0.0000
vt 0.5394 0.5767 0.0000
vt 0.5394 0.5023 0.0000
vt 0.4915 0.6549 0.0000
vt 0.4914 0.5804 0.0000
vt 0.4984 0.5804 0.0000
vt 0.5394 0.5804 0.0000
vt 0.5463 0.6549 0.0000
vt 0.5463 0.5804 0.0000
vt 0.4984 0.5792 0.0000
vt 0.5394 0.5792 0.0000
vt 0.6109 0.6549 0.0000
vt 0.6109 0.6560 0.0000
vt 0.5699 0.6549 0.0000
vt 0.5699 0.6560 0.0000
vt 0.5699 0.5767 0.0000
vt 0.5699 0.5023 0.0000
vt 0.6109 0.5767 0.0000
vt 0.6109 0.5023 0.0000
vt 0.5630 0.6549 0.0000
vt 0.5630 0.5804 0.0000
vt 0.5699 0.5804 0.0000
vt 0.6109 0.5804 0.0000
vt 0.6178 0.6549 0.0000
vt 0.6178 0.5804 0.0000
vt 0.5699 0.5792 0.0000
vt 0.6109 0.5792 0.0000
vt 0.8068 0.5811 0.0000
vt 0.8067 0.5796 0.0000
vt 0.8460 0.5811 0.0000
vt 0.8459 0.5795 0.0000
vt 0.8068 0.5774 0.0000
vt 0.8068 0.5021 0.0000
vt 0.8460 0.5774 0.0000
vt 0.8460 0.5021 0.0000
vt 0.8547 0.5811 0.0000
vt 0.8547 0.6564 0.0000
vt 0.8460 0.6564 0.0000
vt 0.8068 0.6564 0.0000
vt 0.7981 0.5811 0.0000
vt 0.7981 0.6564 0.0000
vt 0.8456 0.6580 0.0000
vt 0.8064 0.6580 0.0000
vt 0.4496 0.6647 0.0000
vt 0.4496 0.6587 0.0000
vt 0.4926 0.6647 0.0000
vt 0.4926 0.6587 0.0000
vt 0.5581 0.6587 0.0000
vt 0.5581 0.6647 0.0000
vt 0.3832 0.6647 0.0000
vt 0.3832 0.6587 0.0000
vt 0.6011 0.6587 0.0000
vt 0.6011 0.6647 0.0000
vt 0.6446 0.5807 0.0000
vt 0.6446 0.5790 0.0000
vt 0.6895 0.5807 0.0000
vt 0.6895 0.5790 0.0000
vt 0.6989 0.5807 0.0000
vt 0.6989 0.6550 0.0000
vt 0.6895 0.6550 0.0000
vt 0.6446 0.6550 0.0000
vt 0.6353 0.5807 0.0000
vt 0.6353 0.6550 0.0000
vt 0.6895 0.6568 0.0000
vt 0.6446 0.6568 0.0000
vt 0.8797 0.5776 0.0000
vt 0.8797 0.5023 0.0000
vt 0.9189 0.5776 0.0000
vt 0.9189 0.5023 0.0000
vt 0.9285 0.5818 0.0000
vt 0.9285 0.6571 0.0000
vt 0.9198 0.6571 0.0000
vt 0.8806 0.6571 0.0000
vt 0.8719 0.5818 0.0000
vt 0.8719 0.6571 0.0000
vt 0.9194 0.6587 0.0000
vt 0.8802 0.6587 0.0000
vt 0.7266 0.5807 0.0000
vt 0.7266 0.5790 0.0000
vt 0.7715 0.5807 0.0000
vt 0.7715 0.5790 0.0000
vt 0.7808 0.5807 0.0000
vt 0.7808 0.6550 0.0000
vt 0.7715 0.6550 0.0000
vt 0.7266 0.6550 0.0000
vt 0.7173 0.5807 0.0000
vt 0.7173 0.6550 0.0000
vt 0.7715 0.6568 0.0000
vt 0.7266 0.6568 0.0000
vt 0.0604 0.6549 0.0000
vt 0.0604 0.6560 0.0000
vt 0.0195 0.6549 0.0000
vt 0.0195 0.6560 0.0000
vt 0.0195 0.5772 0.0000
vt 0.0195 0.5027 0.0000
vt 0.0604 0.5772 0.0000
vt 0.0604 0.5027 0.0000
vt 0.0125 0.6549 0.0000
vt 0.0125 0.5804 0.0000
vt 0.0674 0.6549 0.0000
vt 0.0674 0.5804 0.0000
vt 0.2335 0.7815 0.0000
vt 0.2335 0.7713 0.0000
vt 0.2141 0.7815 0.0000
vt 0.2141 0.7712 0.0000
vt 0.2335 0.7609 0.0000
vt 0.2141 0.7609 0.0000
vt 0.2335 0.7503 0.0000
vt 0.2141 0.7503 0.0000
vt 0.2335 0.8331 0.0000
vt 0.2335 0.8226 0.0000
vt 0.2141 0.8331 0.0000
vt 0.2141 0.8225 0.0000
vt 0.2335 0.8122 0.0000
vt 0.2141 0.8123 0.0000
vt 0.2335 0.8020 0.0000
vt 0.2141 0.8020 0.0000
vt 0.2335 0.7918 0.0000
vt 0.2141 0.7917 0.0000
vt 0.2182 0.7611 0.0000
vt 0.2182 0.7714 0.0000
vt 0.8103 0.7612 0.0000
vt 0.8103 0.7715 0.0000
vt 0.2182 0.7817 0.0000
vt 0.8103 0.7817 0.0000
vt 0.2182 0.7920 0.0000
vt 0.8103 0.7920 0.0000
vt 0.2182 0.8022 0.0000
vt 0.8103 0.8023 0.0000
vt 0.2182 0.8125 0.0000
vt 0.8103 0.8125 0.0000
vt 0.2182 0.8228 0.0000
vt 0.8103 0.8228 0.0000
vt 0.8103 0.8331 0.0000
vt 0.2182 0.8331 0.0000
vt -0.3743 0.8330 0.0000
vt -0.3743 0.8227 0.0000
vt -0.3743 0.8125 0.0000
vt -0.3743 0.8022 0.0000
vt -0.3743 0.7919 0.0000
vt -0.4074 0.8022 0.0000
vt -0.4074 0.8124 0.0000
vt -0.4074 0.8228 0.0000
vt -0.4074 0.8330 0.0000
vt -0.3743 0.7509 0.0000
vt -0.4074 0.7509 0.0000
vt -0.3743 0.7611 0.0000
vt -0.4074 0.7611 0.0000
vt -0.3743 0.7714 0.0000
vt -0.4074 0.7714 0.0000
vt -0.3743 0.7817 0.0000
vt -0.4074 0.7817 0.0000
vt -0.4074 0.7919 0.0000
vt 0.8423 0.7818 0.0000
vt 0.8423 0.7715 0.0000
vt 0.8423 0.7612 0.0000
vt 0.8423 0.7509 0.0000
vt 0.8103 0.7509 0.0000
vt 0.2182 0.7508 0.0000
vt 0.8423 0.8330 0.0000
vt 0.8423 0.8228 0.0000
vt 0.8423 0.8125 0.0000
vt 0.8423 0.8023 0.0000
vt 0.8423 0.7920 0.0000
vt 0.2093 0.8020 0.0000
vt 0.2093 0.8123 0.0000
vt 0.2093 0.8225 0.0000
vt 0.2093 0.8327 0.0000
vt 0.2093 0.7507 0.0000
vt 0.2093 0.7609 0.0000
vt 0.2093 0.7712 0.0000
vt 0.2093 0.7815 0.0000
vt 0.2093 0.7917 0.0000
vt 0.2118 0.7504 0.0000
vt 0.2118 0.7609 0.0000
vt 0.2311 0.7504 0.0000
vt 0.2311 0.7610 0.0000
vt 0.2118 0.7713 0.0000
vt 0.2311 0.7713 0.0000
vt 0.2118 0.7815 0.0000
vt 0.2311 0.7815 0.0000
vt 0.2118 0.7918 0.0000
vt 0.2311 0.7918 0.0000
vt 0.2118 0.8020 0.0000
vt 0.2311 0.8020 0.0000
vt 0.2118 0.8123 0.0000
vt 0.2311 0.8123 0.0000
vt 0.2118 0.8227 0.0000
vt 0.2311 0.8226 0.0000
vt 0.2118 0.8333 0.0000
vt 0.2311 0.8332 0.0000
vt 0.2361 0.8329 0.0000
vt 0.2361 0.8226 0.0000
vt 0.2361 0.8123 0.0000
vt 0.2361 0.8020 0.0000
vt 0.2361 0.7918 0.0000
vt 0.2361 0.7815 0.0000
vt 0.2361 0.7713 0.0000
vt 0.2361 0.7610 0.0000
vt 0.2361 0.7508 0.0000
# 321 texture coords

g Mesh_8358
usemtl Material__5830
s 1
f 1/1/1 2/2/1 3/3/1 
f 4/4/1 3/3/1 2/2/1 
f 5/5/2 6/6/2 7/7/2 
f 8/8/2 7/7/2 6/6/2 
f 9/9/2 10/10/2 11/11/2 
f 12/12/2 11/11/2 10/10/2 
s 2
f 12/13/1 13/14/1 11/11/1 
f 14/15/1 11/11/1 13/14/1 
s 4
f 11/11/3 14/15/3 9/9/3 
f 15/16/3 9/9/3 14/15/3 
s 2
f 9/9/4 15/16/4 10/17/4 
f 16/18/4 10/17/4 15/16/4 
s 1
f 13/19/5 16/20/5 14/15/5 
f 15/16/5 14/15/5 16/20/5 
f 17/21/5 18/22/5 19/23/5 
f 20/24/5 19/23/5 18/22/5 
s 2
f 18/25/6 21/26/6 20/27/6 
f 22/28/6 20/27/6 21/26/6 
s 4
f 20/29/4 22/30/4 19/23/4 
f 23/31/4 19/23/4 22/30/4 
s 2
f 19/23/3 23/31/3 17/21/3 
f 24/32/3 17/21/3 23/31/3 
s 4
f 17/21/1 24/32/1 18/33/1 
f 21/34/1 18/33/1 24/32/1 
s 1
f 22/35/2 21/36/2 23/31/2 
f 24/32/2 23/31/2 21/36/2 
f 25/37/5 26/38/5 27/39/5 
f 28/40/5 27/39/5 26/38/5 
s 2
f 26/41/6 29/42/6 28/43/6 
f 30/44/6 28/43/6 29/42/6 
s 4
f 28/45/4 30/46/4 27/39/4 
f 31/47/4 27/39/4 30/46/4 
s 2
f 27/39/3 31/47/3 25/37/3 
f 32/48/3 25/37/3 31/47/3 
s 4
f 25/37/1 32/48/1 26/49/1 
f 29/50/1 26/49/1 32/48/1 
s 1
f 30/51/2 29/52/2 31/47/2 
f 32/48/2 31/47/2 29/52/2 
f 33/53/5 34/54/5 35/55/5 
f 36/56/5 35/55/5 34/54/5 
s 2
f 34/57/6 37/58/6 36/59/6 
f 38/60/6 36/59/6 37/58/6 
s 4
f 36/61/4 38/62/4 35/55/4 
f 39/63/4 35/55/4 38/62/4 
s 2
f 35/55/3 39/63/3 33/53/3 
f 40/64/3 33/53/3 39/63/3 
s 4
f 33/53/1 40/64/1 34/65/1 
f 37/66/1 34/65/1 40/64/1 
s 1
f 38/67/2 37/68/2 39/63/2 
f 40/64/2 39/63/2 37/68/2 
f 41/69/5 42/70/5 43/71/5 
f 44/72/5 43/71/5 42/70/5 
s 2
f 42/73/6 45/74/6 44/75/6 
f 46/76/6 44/75/6 45/74/6 
s 4
f 44/77/4 46/78/4 43/71/4 
f 47/79/4 43/71/4 46/78/4 
s 2
f 43/71/3 47/79/3 41/69/3 
f 48/80/3 41/69/3 47/79/3 
s 4
f 41/69/1 48/80/1 42/81/1 
f 45/82/1 42/81/1 48/80/1 
s 1
f 46/83/2 45/84/2 47/79/2 
f 48/80/2 47/79/2 45/84/2 
f 49/85/5 50/86/5 51/87/5 
f 52/88/5 51/87/5 50/86/5 
s 2
f 50/89/6 53/90/6 52/91/6 
f 54/92/6 52/91/6 53/90/6 
s 4
f 52/93/4 54/94/4 51/87/4 
f 55/95/4 51/87/4 54/94/4 
s 2
f 51/87/3 55/95/3 49/85/3 
f 56/96/3 49/85/3 55/95/3 
s 4
f 49/85/1 56/96/1 50/97/1 
f 53/98/1 50/97/1 56/96/1 
s 1
f 54/99/2 53/100/2 55/95/2 
f 56/96/2 55/95/2 53/100/2 
f 57/101/5 58/102/5 59/103/5 
f 60/104/5 59/103/5 58/102/5 
s 2
f 58/105/6 61/106/6 60/107/6 
f 62/108/6 60/107/6 61/106/6 
s 4
f 60/109/4 62/110/4 59/103/4 
f 63/111/4 59/103/4 62/110/4 
s 2
f 59/103/3 63/111/3 57/101/3 
f 64/112/3 57/101/3 63/111/3 
s 4
f 57/101/1 64/112/1 58/113/1 
f 61/114/1 58/113/1 64/112/1 
s 1
f 62/115/2 61/116/2 63/111/2 
f 64/112/2 63/111/2 61/116/2 
f 65/117/5 66/118/5 67/119/5 
f 68/120/5 67/119/5 66/118/5 
s 2
f 66/121/6 69/122/6 68/123/6 
f 70/124/6 68/123/6 69/122/6 
s 4
f 68/125/4 70/126/4 67/119/4 
f 71/127/4 67/119/4 70/126/4 
s 2
f 67/119/3 71/127/3 65/117/3 
f 72/128/3 65/117/3 71/127/3 
s 4
f 65/117/1 72/128/1 66/129/1 
f 69/130/1 66/129/1 72/128/1 
s 1
f 70/131/2 69/132/2 71/127/2 
f 72/128/2 71/127/2 69/132/2 
f 73/133/5 74/134/5 75/135/5 
f 76/136/5 75/135/5 74/134/5 
s 2
f 74/137/6 77/138/6 76/139/6 
f 78/140/6 76/139/6 77/138/6 
s 4
f 76/141/4 78/142/4 75/135/4 
f 79/143/4 75/135/4 78/142/4 
s 2
f 75/135/3 79/143/3 73/133/3 
f 80/144/3 73/133/3 79/143/3 
s 4
f 73/133/1 80/144/1 74/145/1 
f 77/146/1 74/145/1 80/144/1 
s 1
f 78/147/2 77/148/2 79/143/2 
f 80/144/2 79/143/2 77/148/2 
f 81/149/1 82/150/1 83/151/1 
f 84/152/1 83/151/1 82/150/1 
s 2
f 82/153/6 85/154/6 84/155/6 
f 86/156/6 84/155/6 85/154/6 
s 4
f 84/157/5 86/158/5 83/151/5 
f 87/159/5 83/151/5 86/158/5 
s 2
f 83/151/3 87/159/3 81/149/3 
f 88/160/3 81/149/3 87/159/3 
s 4
f 81/149/2 88/160/2 82/161/2 
f 85/162/2 82/161/2 88/160/2 
s 1
f 86/163/4 85/164/4 87/159/4 
f 88/160/4 87/159/4 85/164/4 
f 89/165/1 90/166/1 91/167/1 
f 92/168/1 91/167/1 90/166/1 
s 2
f 92/168/5 93/169/5 91/167/5 
f 94/170/5 91/167/5 93/169/5 
f 89/165/2 95/171/2 90/166/2 
f 96/172/2 90/166/2 95/171/2 
s 1
f 93/169/4 96/173/4 94/170/4 
f 95/174/4 94/170/4 96/173/4 
f 97/175/1 98/176/1 99/177/1 
f 100/178/1 99/177/1 98/176/1 
s 2
f 100/179/5 101/180/5 99/177/5 
f 102/181/5 99/177/5 101/180/5 
s 4
f 99/177/3 102/181/3 97/175/3 
f 103/182/3 97/175/3 102/181/3 
s 2
f 97/175/2 103/182/2 98/183/2 
f 104/184/2 98/183/2 103/182/2 
s 1
f 101/185/4 104/186/4 102/181/4 
f 103/182/4 102/181/4 104/186/4 
f 105/168/4 106/166/4 107/167/4 
f 108/165/4 107/167/4 106/166/4 
s 2
f 109/170/5 110/169/5 107/167/5 
f 105/168/5 107/167/5 110/169/5 
f 111/172/2 112/171/2 106/166/2 
f 108/165/2 106/166/2 112/171/2 
s 1
f 112/174/1 111/173/1 109/170/1 
f 110/169/1 109/170/1 111/173/1 
f 113/168/4 114/166/4 115/167/4 
f 116/165/4 115/167/4 114/166/4 
s 2
f 117/170/5 118/169/5 115/167/5 
f 113/168/5 115/167/5 118/169/5 
f 119/172/2 120/171/2 114/166/2 
f 116/165/2 114/166/2 120/171/2 
s 1
f 120/174/1 119/173/1 117/170/1 
f 118/169/1 117/170/1 119/173/1 
f 121/168/4 122/166/4 123/167/4 
f 124/165/4 123/167/4 122/166/4 
s 2
f 125/170/5 126/169/5 123/167/5 
f 121/168/5 123/167/5 126/169/5 
f 127/172/2 128/171/2 122/166/2 
f 124/165/2 122/166/2 128/171/2 
s 1
f 128/174/1 127/173/1 125/170/1 
f 126/169/1 125/170/1 127/173/1 
f 129/152/1 130/150/1 131/151/1 
f 132/149/1 131/151/1 130/150/1 
s 2
f 133/156/6 134/154/6 129/155/6 
f 130/153/6 129/155/6 134/154/6 
s 4
f 135/159/2 133/158/2 131/151/2 
f 129/157/2 131/151/2 133/158/2 
s 2
f 136/160/3 135/159/3 132/149/3 
f 131/151/3 132/149/3 135/159/3 
s 4
f 134/162/5 136/160/5 130/161/5 
f 132/149/5 130/161/5 136/160/5 
s 1
f 136/160/4 134/164/4 135/159/4 
f 133/163/4 135/159/4 134/164/4 
f 137/178/1 138/176/1 139/177/1 
f 140/175/1 139/177/1 138/176/1 
s 2
f 141/181/2 142/180/2 139/177/2 
f 137/179/2 139/177/2 142/180/2 
s 4
f 143/182/3 141/181/3 140/175/3 
f 139/177/3 140/175/3 141/181/3 
s 2
f 144/184/5 143/182/5 138/183/5 
f 140/175/5 138/183/5 143/182/5 
s 1
f 143/182/4 144/186/4 141/181/4 
f 142/185/4 141/181/4 144/186/4 
f 145/12/2 146/10/2 147/11/2 
f 148/9/2 147/11/2 146/10/2 
s 2
f 149/15/4 150/14/4 147/11/4 
f 145/13/4 147/11/4 150/14/4 
s 4
f 151/16/3 149/15/3 148/9/3 
f 147/11/3 148/9/3 149/15/3 
s 2
f 152/18/1 151/16/1 146/17/1 
f 148/9/1 146/17/1 151/16/1 
s 1
f 151/16/5 152/20/5 149/15/5 
f 150/19/5 149/15/5 152/20/5 
s 2
f 2/187/6 153/188/6 4/189/6 
f 154/190/6 4/189/6 153/188/6 
s 4
f 4/191/5 154/192/5 3/3/5 
f 155/193/5 3/3/5 154/192/5 
s 2
f 3/3/3 155/193/3 1/1/3 
f 156/194/3 1/1/3 155/193/3 
s 4
f 1/1/2 156/194/2 2/195/2 
f 153/196/2 2/195/2 156/194/2 
s 1
f 154/197/4 153/198/4 155/193/4 
f 156/194/4 155/193/4 153/198/4 
f 157/165/1 158/166/1 159/167/1 
f 160/168/1 159/167/1 158/166/1 
s 2
f 160/168/5 161/169/5 159/167/5 
f 162/170/5 159/167/5 161/169/5 
f 157/165/2 163/171/2 158/166/2 
f 164/172/2 158/166/2 163/171/2 
s 1
f 161/169/4 164/173/4 162/170/4 
f 163/174/4 162/170/4 164/173/4 
f 165/199/1 166/200/1 167/201/1 
f 168/202/1 167/201/1 166/200/1 
s 2
f 168/203/5 169/204/5 167/201/5 
f 170/205/5 167/201/5 169/204/5 
s 4
f 167/201/3 170/205/3 165/199/3 
f 171/206/3 165/199/3 170/205/3 
s 2
f 165/199/2 171/206/2 166/207/2 
f 172/208/2 166/207/2 171/206/2 
s 1
f 169/209/4 172/210/4 170/205/4 
f 171/206/4 170/205/4 172/210/4 
f 173/165/1 174/166/1 175/167/1 
f 176/168/1 175/167/1 174/166/1 
s 2
f 176/168/5 177/169/5 175/167/5 
f 178/170/5 175/167/5 177/169/5 
f 173/165/2 179/171/2 174/166/2 
f 180/172/2 174/166/2 179/171/2 
s 1
f 177/169/4 180/173/4 178/170/4 
f 179/174/4 178/170/4 180/173/4 
f 181/211/5 182/212/5 183/213/5 
f 184/214/5 183/213/5 182/212/5 
s 2
f 182/215/6 7/216/6 184/217/6 
f 8/218/6 184/217/6 7/216/6 
s 4
f 184/219/4 8/220/4 183/213/4 
f 6/6/4 183/213/4 8/220/4 
s 2
f 183/213/3 6/6/3 181/211/3 
f 5/5/3 181/211/3 6/6/3 
s 4
f 181/211/1 5/5/1 182/221/1 
f 7/222/1 182/221/1 5/5/1 
s off
f 185/223/7 186/224/7 187/225/7 
f 188/226/7 187/225/7 186/224/7 
f 186/224/8 189/227/8 188/226/8 
f 190/228/8 188/226/8 189/227/8 
f 189/227/9 191/229/9 190/228/9 
f 192/230/9 190/228/9 191/229/9 
f 191/231/10 193/232/10 192/233/10 
f 194/234/10 192/233/10 193/232/10 
f 193/232/11 195/235/11 194/234/11 
f 196/236/11 194/234/11 195/235/11 
f 195/235/12 197/237/12 196/236/12 
f 198/238/12 196/236/12 197/237/12 
f 197/237/13 199/239/13 198/238/13 
f 200/240/13 198/238/13 199/239/13 
f 199/239/14 185/223/14 200/240/14 
f 187/225/14 200/240/14 185/223/14 
s 1
f 201/241/15 202/242/16 203/243/15 
f 204/244/16 203/243/15 202/242/16 
f 202/242/16 205/245/17 204/244/16 
f 206/246/18 204/244/16 205/245/17 
f 205/245/17 207/247/19 206/246/18 
f 208/248/19 206/246/18 207/247/19 
f 207/247/19 209/249/20 208/248/19 
f 210/250/20 208/248/19 209/249/20 
f 209/249/20 211/251/2 210/250/20 
f 212/252/21 210/250/20 211/251/2 
f 211/251/2 213/253/22 212/252/21 
f 214/254/23 212/252/21 213/253/22 
f 215/255/24 214/254/23 216/256/25 
f 213/253/22 216/256/25 214/254/23 
f 216/256/25 213/253/22 217/257/24 
f 218/258/23 217/257/24 213/253/22 
f 213/253/22 211/251/2 218/258/23 
f 219/259/21 218/258/23 211/251/2 
f 211/251/2 209/249/20 219/259/21 
f 220/260/26 219/259/21 209/249/20 
f 209/249/20 207/247/19 220/260/26 
f 221/261/27 220/260/26 207/247/19 
s off
f 220/260/28 222/262/28 219/259/28 
f 223/263/28 219/259/28 222/262/28 
f 219/259/29 223/263/29 218/258/29 
f 224/264/29 218/258/29 223/263/29 
f 218/258/30 224/264/30 217/257/30 
f 225/265/30 217/257/30 224/264/30 
f 217/266/31 225/267/31 226/268/31 
f 227/269/31 226/268/31 225/267/31 
f 226/268/32 227/269/32 228/270/32 
f 229/271/32 228/270/32 227/269/32 
f 228/270/33 229/271/33 230/272/33 
f 231/273/33 230/272/33 229/271/33 
f 230/272/34 231/273/34 221/261/34 
f 232/274/34 221/261/34 231/273/34 
f 221/261/35 232/274/35 220/260/35 
f 222/262/35 220/260/35 232/274/35 
s 1
f 207/247/19 205/245/17 221/261/27 
f 230/272/18 221/261/27 205/245/17 
f 205/245/17 202/242/16 230/272/18 
f 228/270/5 230/272/18 202/242/16 
f 202/242/16 201/241/15 228/270/5 
f 226/268/36 228/270/5 201/241/15 
s off
f 233/275/33 234/276/33 206/246/33 
f 204/244/33 206/246/33 234/276/33 
f 234/276/32 235/277/32 204/244/32 
f 203/243/32 204/244/32 235/277/32 
f 235/277/31 236/278/31 203/243/31 
f 215/279/31 203/243/31 236/278/31 
s 1
f 203/243/15 215/279/24 201/241/15 
f 216/280/25 201/241/15 215/279/24 
f 201/241/15 216/280/25 226/268/36 
f 217/266/24 226/268/36 216/280/25 
s off
f 236/281/30 237/282/30 215/255/30 
f 214/254/30 215/255/30 237/282/30 
f 237/282/29 238/283/29 214/254/29 
f 212/252/29 214/254/29 238/283/29 
f 238/283/28 239/284/28 212/252/28 
f 210/250/28 212/252/28 239/284/28 
f 239/284/35 240/285/35 210/250/35 
f 208/248/35 210/250/35 240/285/35 
f 240/285/34 233/275/34 208/248/34 
f 206/246/34 208/248/34 233/275/34 
f 198/238/1 239/286/1 196/236/1 
f 238/287/1 196/236/1 239/286/1 
f 196/236/1 238/287/1 194/234/1 
f 237/288/1 194/234/1 238/287/1 
f 237/288/1 236/289/1 194/234/1 
f 192/233/1 194/234/1 236/289/1 
f 192/230/1 236/290/1 190/228/1 
f 235/291/1 190/228/1 236/290/1 
f 190/228/1 235/291/1 188/226/1 
f 234/292/1 188/226/1 235/291/1 
f 188/226/1 234/292/1 187/225/1 
f 233/293/1 187/225/1 234/292/1 
f 187/225/1 233/293/1 200/240/1 
f 240/294/1 200/240/1 233/293/1 
f 240/294/1 239/286/1 200/240/1 
f 198/238/1 200/240/1 239/286/1 
f 241/295/9 242/296/9 243/297/9 
f 244/298/9 243/297/9 242/296/9 
f 242/296/8 245/299/8 244/298/8 
f 246/300/8 244/298/8 245/299/8 
f 245/299/7 247/301/7 246/300/7 
f 248/302/7 246/300/7 247/301/7 
f 247/301/14 249/303/14 248/302/14 
f 250/304/14 248/302/14 249/303/14 
f 249/303/13 251/305/13 250/304/13 
f 252/306/13 250/304/13 251/305/13 
f 251/305/12 253/307/12 252/306/12 
f 254/308/12 252/306/12 253/307/12 
f 253/307/11 255/309/11 254/308/11 
f 256/310/11 254/308/11 255/309/11 
f 255/309/10 241/311/10 256/310/10 
f 243/312/10 256/310/10 241/311/10 
f 225/313/4 224/314/4 243/312/4 
f 256/310/4 243/312/4 224/314/4 
f 224/314/4 223/315/4 256/310/4 
f 254/308/4 256/310/4 223/315/4 
f 223/315/4 222/316/4 254/308/4 
f 252/306/4 254/308/4 222/316/4 
f 252/306/4 222/316/4 250/304/4 
f 232/317/4 250/304/4 222/316/4 
f 232/317/4 231/318/4 250/304/4 
f 248/302/4 250/304/4 231/318/4 
f 231/318/4 229/319/4 248/302/4 
f 246/300/4 248/302/4 229/319/4 
f 229/319/4 227/320/4 246/300/4 
f 244/298/4 246/300/4 227/320/4 
f 227/320/4 225/321/4 244/298/4 
f 243/297/4 244/298/4 225/321/4 
f 185/223/11 187/225/11 186/224/11 
f 188/226/11 186/224/11 187/225/11 
f 186/224/12 188/226/12 189/227/12 
f 190/228/12 189/227/12 188/226/12 
f 189/227/13 190/228/13 191/229/13 
f 192/230/13 191/229/13 190/228/13 
f 191/231/14 192/233/14 193/232/14 
f 194/234/14 193/232/14 192/233/14 
f 193/232/7 194/234/7 195/235/7 
f 196/236/7 195/235/7 194/234/7 
f 195/235/8 196/236/8 197/237/8 
f 198/238/8 197/237/8 196/236/8 
f 197/237/9 198/238/9 199/239/9 
f 200/240/9 199/239/9 198/238/9 
f 199/239/10 200/240/10 185/223/10 
f 187/225/10 185/223/10 200/240/10 
s 1
f 201/241/37 203/243/37 202/242/2 
f 204/244/2 202/242/2 203/243/37 
f 202/242/2 204/244/2 205/245/38 
f 206/246/39 205/245/38 204/244/2 
f 205/245/38 206/246/39 207/247/3 
f 208/248/3 207/247/3 206/246/39 
f 207/247/3 208/248/3 209/249/40 
f 210/250/40 209/249/40 208/248/3 
f 209/249/40 210/250/40 211/251/5 
f 212/252/5 211/251/5 210/250/40 
f 211/251/5 212/252/5 213/253/41 
f 214/254/42 213/253/41 212/252/5 
f 215/255/6 216/256/43 214/254/42 
f 213/253/41 214/254/42 216/256/43 
f 216/256/43 217/257/6 213/253/41 
f 218/258/42 213/253/41 217/257/6 
f 213/253/41 218/258/42 211/251/5 
f 219/259/5 211/251/5 218/258/42 
f 211/251/5 219/259/5 209/249/40 
f 220/260/44 209/249/40 219/259/5 
f 209/249/40 220/260/44 207/247/3 
f 221/261/45 207/247/3 220/260/44 
s off
f 220/260/46 219/259/46 222/262/46 
f 223/263/46 222/262/46 219/259/46 
f 219/259/47 218/258/47 223/263/47 
f 224/264/47 223/263/47 218/258/47 
f 218/258/48 217/257/48 224/264/48 
f 225/265/48 224/264/48 217/257/48 
f 217/266/49 226/268/49 225/267/49 
f 227/269/49 225/267/49 226/268/49 
f 226/268/50 228/270/50 227/269/50 
f 229/271/50 227/269/50 228/270/50 
f 228/270/51 230/272/51 229/271/51 
f 231/273/51 229/271/51 230/272/51 
f 230/272/52 221/261/52 231/273/52 
f 232/274/52 231/273/52 221/261/52 
f 221/261/53 220/260/53 232/274/53 
f 222/262/53 232/274/53 220/260/53 
s 1
f 207/247/3 221/261/45 205/245/38 
f 230/272/39 205/245/38 221/261/45 
f 205/245/38 230/272/39 202/242/2 
f 228/270/21 202/242/2 230/272/39 
f 202/242/2 228/270/21 201/241/37 
f 226/268/54 201/241/37 228/270/21 
s off
f 233/275/51 206/246/51 234/276/51 
f 204/244/51 234/276/51 206/246/51 
f 234/276/50 204/244/50 235/277/50 
f 203/243/50 235/277/50 204/244/50 
f 235/277/49 203/243/49 236/278/49 
f 215/279/49 236/278/49 203/243/49 
s 1
f 203/243/37 201/241/37 215/279/6 
f 216/280/43 215/279/6 201/241/37 
f 201/241/37 226/268/54 216/280/43 
f 217/266/6 216/280/43 226/268/54 
s off
f 236/281/48 215/255/48 237/282/48 
f 214/254/48 237/282/48 215/255/48 
f 237/282/47 214/254/47 238/283/47 
f 212/252/47 238/283/47 214/254/47 
f 238/283/46 212/252/46 239/284/46 
f 210/250/46 239/284/46 212/252/46 
f 239/284/53 210/250/53 240/285/53 
f 208/248/53 240/285/53 210/250/53 
f 240/285/52 208/248/52 233/275/52 
f 206/246/52 233/275/52 208/248/52 
f 198/238/4 196/236/4 239/286/4 
f 238/287/4 239/286/4 196/236/4 
f 196/236/4 194/234/4 238/287/4 
f 237/288/4 238/287/4 194/234/4 
f 237/288/4 194/234/4 236/289/4 
f 192/233/4 236/289/4 194/234/4 
f 192/230/4 190/228/4 236/290/4 
f 235/291/4 236/290/4 190/228/4 
f 190/228/4 188/226/4 235/291/4 
f 234/292/4 235/291/4 188/226/4 
f 188/226/4 187/225/4 234/292/4 
f 233/293/4 234/292/4 187/225/4 
f 187/225/4 200/240/4 233/293/4 
f 240/294/4 233/293/4 200/240/4 
f 240/294/4 200/240/4 239/286/4 
f 198/238/4 239/286/4 200/240/4 
f 241/295/13 243/297/13 242/296/13 
f 244/298/13 242/296/13 243/297/13 
f 242/296/12 244/298/12 245/299/12 
f 246/300/12 245/299/12 244/298/12 
f 245/299/11 246/300/11 247/301/11 
f 248/302/11 247/301/11 246/300/11 
f 247/301/10 248/302/10 249/303/10 
f 250/304/10 249/303/10 248/302/10 
f 249/303/9 250/304/9 251/305/9 
f 252/306/9 251/305/9 250/304/9 
f 251/305/8 252/306/8 253/307/8 
f 254/308/8 253/307/8 252/306/8 
f 253/307/7 254/308/7 255/309/7 
f 256/310/7 255/309/7 254/308/7 
f 255/309/14 256/310/14 241/311/14 
f 243/312/14 241/311/14 256/310/14 
f 225/313/1 243/312/1 224/314/1 
f 256/310/1 224/314/1 243/312/1 
f 224/314/1 256/310/1 223/315/1 
f 254/308/1 223/315/1 256/310/1 
f 223/315/1 254/308/1 222/316/1 
f 252/306/1 222/316/1 254/308/1 
f 252/306/1 250/304/1 222/316/1 
f 232/317/1 222/316/1 250/304/1 
f 232/317/1 250/304/1 231/318/1 
f 248/302/1 231/318/1 250/304/1 
f 231/318/1 248/302/1 229/319/1 
f 246/300/1 229/319/1 248/302/1 
f 229/319/1 246/300/1 227/320/1 
f 244/298/1 227/320/1 246/300/1 
f 227/320/1 244/298/1 225/321/1 
f 243/297/1 225/321/1 244/298/1 
f 257/223/7 258/224/7 259/225/7 
f 260/226/7 259/225/7 258/224/7 
f 258/224/8 261/227/8 260/226/8 
f 262/228/8 260/226/8 261/227/8 
f 261/227/9 263/229/9 262/228/9 
f 264/230/9 262/228/9 263/229/9 
f 263/231/10 265/232/10 264/233/10 
f 266/234/10 264/233/10 265/232/10 
f 265/232/11 267/235/11 266/234/11 
f 268/236/11 266/234/11 267/235/11 
f 267/235/12 269/237/12 268/236/12 
f 270/238/12 268/236/12 269/237/12 
f 269/237/13 271/239/13 270/238/13 
f 272/240/13 270/238/13 271/239/13 
f 271/239/14 257/223/14 272/240/14 
f 259/225/14 272/240/14 257/223/14 
s 1
f 273/241/15 274/242/16 275/243/15 
f 276/244/16 275/243/15 274/242/16 
f 274/242/16 277/245/18 276/244/16 
f 278/246/18 276/244/16 277/245/18 
f 277/245/18 279/247/19 278/246/18 
f 280/248/19 278/246/18 279/247/19 
f 279/247/19 281/249/20 280/248/19 
f 282/250/20 280/248/19 281/249/20 
f 281/249/20 283/251/2 282/250/20 
f 284/252/21 282/250/20 283/251/2 
f 283/251/2 285/253/23 284/252/21 
f 286/254/23 284/252/21 285/253/23 
f 287/255/24 286/254/23 288/256/24 
f 285/253/23 288/256/24 286/254/23 
f 288/256/24 285/253/23 289/257/24 
f 290/258/23 289/257/24 285/253/23 
f 285/253/23 283/251/2 290/258/23 
f 291/259/21 290/258/23 283/251/2 
f 283/251/2 281/249/20 291/259/21 
f 292/260/20 291/259/21 281/249/20 
f 281/249/20 279/247/19 292/260/20 
f 293/261/19 292/260/20 279/247/19 
s off
f 292/260/28 294/262/28 291/259/28 
f 295/263/28 291/259/28 294/262/28 
f 291/259/29 295/263/29 290/258/29 
f 296/264/29 290/258/29 295/263/29 
f 290/258/30 296/264/30 289/257/30 
f 297/265/30 289/257/30 296/264/30 
f 289/266/31 297/267/31 298/268/31 
f 299/269/31 298/268/31 297/267/31 
f 298/268/32 299/269/32 300/270/32 
f 301/271/32 300/270/32 299/269/32 
f 300/270/33 301/271/33 302/272/33 
f 303/273/33 302/272/33 301/271/33 
f 302/272/34 303/273/34 293/261/34 
f 304/274/34 293/261/34 303/273/34 
f 293/261/35 304/274/35 292/260/35 
f 294/262/35 292/260/35 304/274/35 
s 1
f 279/247/19 277/245/18 293/261/19 
f 302/272/18 293/261/19 277/245/18 
f 277/245/18 274/242/16 302/272/18 
f 300/270/5 302/272/18 274/242/16 
f 274/242/16 273/241/15 300/270/5 
f 298/268/15 300/270/5 273/241/15 
s off
f 305/275/33 306/276/33 278/246/33 
f 276/244/33 278/246/33 306/276/33 
f 306/276/32 307/277/32 276/244/32 
f 275/243/32 276/244/32 307/277/32 
f 307/277/31 308/278/31 275/243/31 
f 287/279/31 275/243/31 308/278/31 
s 1
f 275/243/15 287/279/24 273/241/15 
f 288/280/24 273/241/15 287/279/24 
f 273/241/15 288/280/24 298/268/15 
f 289/266/24 298/268/15 288/280/24 
s off
f 308/281/30 309/282/30 287/255/30 
f 286/254/30 287/255/30 309/282/30 
f 309/282/29 310/283/29 286/254/29 
f 284/252/29 286/254/29 310/283/29 
f 310/283/28 311/284/28 284/252/28 
f 282/250/28 284/252/28 311/284/28 
f 311/284/35 312/285/35 282/250/35 
f 280/248/35 282/250/35 312/285/35 
f 312/285/34 305/275/34 280/248/34 
f 278/246/34 280/248/34 305/275/34 
f 270/238/1 311/286/1 268/236/1 
f 310/287/1 268/236/1 311/286/1 
f 268/236/1 310/287/1 266/234/1 
f 309/288/1 266/234/1 310/287/1 
f 309/288/1 308/289/1 266/234/1 
f 264/233/1 266/234/1 308/289/1 
f 264/230/1 308/290/1 262/228/1 
f 307/291/1 262/228/1 308/290/1 
f 262/228/1 307/291/1 260/226/1 
f 306/292/1 260/226/1 307/291/1 
f 260/226/1 306/292/1 259/225/1 
f 305/293/1 259/225/1 306/292/1 
f 259/225/1 305/293/1 272/240/1 
f 312/294/1 272/240/1 305/293/1 
f 312/294/1 311/286/1 272/240/1 
f 270/238/1 272/240/1 311/286/1 
f 313/295/9 314/296/9 315/297/9 
f 316/298/9 315/297/9 314/296/9 
f 314/296/8 317/299/8 316/298/8 
f 318/300/8 316/298/8 317/299/8 
f 317/299/7 319/301/7 318/300/7 
f 320/302/7 318/300/7 319/301/7 
f 319/301/14 321/303/14 320/302/14 
f 322/304/14 320/302/14 321/303/14 
f 321/303/13 323/305/13 322/304/13 
f 324/306/13 322/304/13 323/305/13 
f 323/305/12 325/307/12 324/306/12 
f 326/308/12 324/306/12 325/307/12 
f 325/307/11 327/309/11 326/308/11 
f 328/310/11 326/308/11 327/309/11 
f 327/309/10 313/311/10 328/310/10 
f 315/312/10 328/310/10 313/311/10 
f 297/313/4 296/314/4 315/312/4 
f 328/310/4 315/312/4 296/314/4 
f 296/314/4 295/315/4 328/310/4 
f 326/308/4 328/310/4 295/315/4 
f 295/315/4 294/316/4 326/308/4 
f 324/306/4 326/308/4 294/316/4 
f 324/306/4 294/316/4 322/304/4 
f 304/317/4 322/304/4 294/316/4 
f 304/317/4 303/318/4 322/304/4 
f 320/302/4 322/304/4 303/318/4 
f 303/318/4 301/319/4 320/302/4 
f 318/300/4 320/302/4 301/319/4 
f 301/319/4 299/320/4 318/300/4 
f 316/298/4 318/300/4 299/320/4 
f 299/320/4 297/321/4 316/298/4 
f 315/297/4 316/298/4 297/321/4 
f 257/223/11 259/225/11 258/224/11 
f 260/226/11 258/224/11 259/225/11 
f 258/224/12 260/226/12 261/227/12 
f 262/228/12 261/227/12 260/226/12 
f 261/227/13 262/228/13 263/229/13 
f 264/230/13 263/229/13 262/228/13 
f 263/231/14 264/233/14 265/232/14 
f 266/234/14 265/232/14 264/233/14 
f 265/232/7 266/234/7 267/235/7 
f 268/236/7 267/235/7 266/234/7 
f 267/235/8 268/236/8 269/237/8 
f 270/238/8 269/237/8 268/236/8 
f 269/237/9 270/238/9 271/239/9 
f 272/240/9 271/239/9 270/238/9 
f 271/239/10 272/240/10 257/223/10 
f 259/225/10 257/223/10 272/240/10 
s 1
f 273/241/37 275/243/37 274/242/2 
f 276/244/2 274/242/2 275/243/37 
f 274/242/2 276/244/2 277/245/39 
f 278/246/39 277/245/39 276/244/2 
f 277/245/39 278/246/39 279/247/3 
f 280/248/3 279/247/3 278/246/39 
f 279/247/3 280/248/3 281/249/40 
f 282/250/40 281/249/40 280/248/3 
f 281/249/40 282/250/40 283/251/5 
f 284/252/5 283/251/5 282/250/40 
f 283/251/5 284/252/5 285/253/42 
f 286/254/42 285/253/42 284/252/5 
f 287/255/6 288/256/6 286/254/42 
f 285/253/42 286/254/42 288/256/6 
f 288/256/6 289/257/6 285/253/42 
f 290/258/42 285/253/42 289/257/6 
f 285/253/42 290/258/42 283/251/5 
f 291/259/5 283/251/5 290/258/42 
f 283/251/5 291/259/5 281/249/40 
f 292/260/40 281/249/40 291/259/5 
f 281/249/40 292/260/40 279/247/3 
f 293/261/3 279/247/3 292/260/40 
s off
f 292/260/46 291/259/46 294/262/46 
f 295/263/46 294/262/46 291/259/46 
f 291/259/47 290/258/47 295/263/47 
f 296/264/47 295/263/47 290/258/47 
f 290/258/48 289/257/48 296/264/48 
f 297/265/48 296/264/48 289/257/48 
f 289/266/49 298/268/49 297/267/49 
f 299/269/49 297/267/49 298/268/49 
f 298/268/50 300/270/50 299/269/50 
f 301/271/50 299/269/50 300/270/50 
f 300/270/51 302/272/51 301/271/51 
f 303/273/51 301/271/51 302/272/51 
f 302/272/52 293/261/52 303/273/52 
f 304/274/52 303/273/52 293/261/52 
f 293/261/53 292/260/53 304/274/53 
f 294/262/53 304/274/53 292/260/53 
s 1
f 279/247/3 293/261/3 277/245/39 
f 302/272/39 277/245/39 293/261/3 
f 277/245/39 302/272/39 274/242/2 
f 300/270/21 274/242/2 302/272/39 
f 274/242/2 300/270/21 273/241/37 
f 298/268/37 273/241/37 300/270/21 
s off
f 305/275/51 278/246/51 306/276/51 
f 276/244/51 306/276/51 278/246/51 
f 306/276/50 276/244/50 307/277/50 
f 275/243/50 307/277/50 276/244/50 
f 307/277/49 275/243/49 308/278/49 
f 287/279/49 308/278/49 275/243/49 
s 1
f 275/243/37 273/241/37 287/279/6 
f 288/280/6 287/279/6 273/241/37 
f 273/241/37 298/268/37 288/280/6 
f 289/266/6 288/280/6 298/268/37 
s off
f 308/281/48 287/255/48 309/282/48 
f 286/254/48 309/282/48 287/255/48 
f 309/282/47 286/254/47 310/283/47 
f 284/252/47 310/283/47 286/254/47 
f 310/283/46 284/252/46 311/284/46 
f 282/250/46 311/284/46 284/252/46 
f 311/284/53 282/250/53 312/285/53 
f 280/248/53 312/285/53 282/250/53 
f 312/285/52 280/248/52 305/275/52 
f 278/246/52 305/275/52 280/248/52 
f 270/238/4 268/236/4 311/286/4 
f 310/287/4 311/286/4 268/236/4 
f 268/236/4 266/234/4 310/287/4 
f 309/288/4 310/287/4 266/234/4 
f 309/288/4 266/234/4 308/289/4 
f 264/233/4 308/289/4 266/234/4 
f 264/230/4 262/228/4 308/290/4 
f 307/291/4 308/290/4 262/228/4 
f 262/228/4 260/226/4 307/291/4 
f 306/292/4 307/291/4 260/226/4 
f 260/226/4 259/225/4 306/292/4 
f 305/293/4 306/292/4 259/225/4 
f 259/225/4 272/240/4 305/293/4 
f 312/294/4 305/293/4 272/240/4 
f 312/294/4 272/240/4 311/286/4 
f 270/238/4 311/286/4 272/240/4 
f 313/295/13 315/297/13 314/296/13 
f 316/298/13 314/296/13 315/297/13 
f 314/296/12 316/298/12 317/299/12 
f 318/300/12 317/299/12 316/298/12 
f 317/299/11 318/300/11 319/301/11 
f 320/302/11 319/301/11 318/300/11 
f 319/301/10 320/302/10 321/303/10 
f 322/304/10 321/303/10 320/302/10 
f 321/303/9 322/304/9 323/305/9 
f 324/306/9 323/305/9 322/304/9 
f 323/305/8 324/306/8 325/307/8 
f 326/308/8 325/307/8 324/306/8 
f 325/307/7 326/308/7 327/309/7 
f 328/310/7 327/309/7 326/308/7 
f 327/309/14 328/310/14 313/311/14 
f 315/312/14 313/311/14 328/310/14 
f 297/313/1 315/312/1 296/314/1 
f 328/310/1 296/314/1 315/312/1 
f 296/314/1 328/310/1 295/315/1 
f 326/308/1 295/315/1 328/310/1 
f 295/315/1 326/308/1 294/316/1 
f 324/306/1 294/316/1 326/308/1 
f 324/306/1 322/304/1 294/316/1 
f 304/317/1 294/316/1 322/304/1 
f 304/317/1 322/304/1 303/318/1 
f 320/302/1 303/318/1 322/304/1 
f 303/318/1 320/302/1 301/319/1 
f 318/300/1 301/319/1 320/302/1 
f 301/319/1 318/300/1 299/320/1 
f 316/298/1 299/320/1 318/300/1 
f 299/320/1 316/298/1 297/321/1 
f 315/297/1 297/321/1 316/298/1 
f 329/223/7 330/224/7 331/225/7 
f 332/226/7 331/225/7 330/224/7 
f 330/224/8 333/227/8 332/226/8 
f 334/228/8 332/226/8 333/227/8 
f 333/227/9 335/229/9 334/228/9 
f 336/230/9 334/228/9 335/229/9 
f 335/231/10 337/232/10 336/233/10 
f 338/234/10 336/233/10 337/232/10 
f 337/232/11 339/235/11 338/234/11 
f 340/236/11 338/234/11 339/235/11 
f 339/235/12 341/237/12 340/236/12 
f 342/238/12 340/236/12 341/237/12 
f 341/237/13 343/239/13 342/238/13 
f 344/240/13 342/238/13 343/239/13 
f 343/239/14 329/223/14 344/240/14 
f 331/225/14 344/240/14 329/223/14 
s 1
f 345/241/15 346/242/16 347/243/15 
f 348/244/16 347/243/15 346/242/16 
f 346/242/16 349/245/18 348/244/16 
f 350/246/18 348/244/16 349/245/18 
f 349/245/18 351/247/19 350/246/18 
f 352/248/19 350/246/18 351/247/19 
f 351/247/19 353/249/20 352/248/19 
f 354/250/20 352/248/19 353/249/20 
f 353/249/20 355/251/21 354/250/20 
f 356/252/2 354/250/20 355/251/21 
f 355/251/21 357/253/23 356/252/2 
f 358/254/23 356/252/2 357/253/23 
f 359/255/24 358/254/23 360/256/24 
f 357/253/23 360/256/24 358/254/23 
f 360/256/24 357/253/23 361/257/24 
f 362/258/23 361/257/24 357/253/23 
f 357/253/23 355/251/21 362/258/23 
f 363/259/21 362/258/23 355/251/21 
f 355/251/21 353/249/20 363/259/21 
f 364/260/20 363/259/21 353/249/20 
f 353/249/20 351/247/19 364/260/20 
f 365/261/19 364/260/20 351/247/19 
s off
f 364/260/28 366/262/28 363/259/28 
f 367/263/28 363/259/28 366/262/28 
f 363/259/29 367/263/29 362/258/29 
f 368/264/29 362/258/29 367/263/29 
f 362/258/30 368/264/30 361/257/30 
f 369/265/30 361/257/30 368/264/30 
f 361/266/31 369/267/31 370/268/31 
f 371/269/31 370/268/31 369/267/31 
f 370/268/32 371/269/32 372/270/32 
f 373/271/32 372/270/32 371/269/32 
f 372/270/33 373/271/33 374/272/33 
f 375/273/33 374/272/33 373/271/33 
f 374/272/34 375/273/34 365/261/34 
f 376/274/34 365/261/34 375/273/34 
f 365/261/35 376/274/35 364/260/35 
f 366/262/35 364/260/35 376/274/35 
s 1
f 351/247/19 349/245/18 365/261/19 
f 374/272/18 365/261/19 349/245/18 
f 349/245/18 346/242/16 374/272/18 
f 372/270/5 374/272/18 346/242/16 
f 346/242/16 345/241/15 372/270/5 
f 370/268/15 372/270/5 345/241/15 
s off
f 377/275/33 378/276/33 350/246/33 
f 348/244/33 350/246/33 378/276/33 
f 378/276/32 379/277/32 348/244/32 
f 347/243/32 348/244/32 379/277/32 
f 379/277/31 380/278/31 347/243/31 
f 359/279/31 347/243/31 380/278/31 
s 1
f 347/243/15 359/279/24 345/241/15 
f 360/280/24 345/241/15 359/279/24 
f 345/241/15 360/280/24 370/268/15 
f 361/266/24 370/268/15 360/280/24 
s off
f 380/281/30 381/282/30 359/255/30 
f 358/254/30 359/255/30 381/282/30 
f 381/282/29 382/283/29 358/254/29 
f 356/252/29 358/254/29 382/283/29 
f 382/283/28 383/284/28 356/252/28 
f 354/250/28 356/252/28 383/284/28 
f 383/284/35 384/285/35 354/250/35 
f 352/248/35 354/250/35 384/285/35 
f 384/285/34 377/275/34 352/248/34 
f 350/246/34 352/248/34 377/275/34 
f 342/238/1 383/286/1 340/236/1 
f 382/287/1 340/236/1 383/286/1 
f 340/236/1 382/287/1 338/234/1 
f 381/288/1 338/234/1 382/287/1 
f 381/288/1 380/289/1 338/234/1 
f 336/233/1 338/234/1 380/289/1 
f 336/230/55 380/290/55 334/228/55 
f 379/291/55 334/228/55 380/290/55 
f 334/228/1 379/291/1 332/226/1 
f 378/292/1 332/226/1 379/291/1 
f 332/226/1 378/292/1 331/225/1 
f 377/293/1 331/225/1 378/292/1 
f 331/225/56 377/293/56 344/240/56 
f 384/294/55 344/240/55 377/293/55 
f 384/294/1 383/286/1 344/240/1 
f 342/238/1 344/240/1 383/286/1 
f 385/295/9 386/296/9 387/297/9 
f 388/298/9 387/297/9 386/296/9 
f 386/296/8 389/299/8 388/298/8 
f 390/300/8 388/298/8 389/299/8 
f 389/299/7 391/301/7 390/300/7 
f 392/302/7 390/300/7 391/301/7 
f 391/301/14 393/303/14 392/302/14 
f 394/304/14 392/302/14 393/303/14 
f 393/303/13 395/305/13 394/304/13 
f 396/306/13 394/304/13 395/305/13 
f 395/305/12 397/307/12 396/306/12 
f 398/308/12 396/306/12 397/307/12 
f 397/307/11 399/309/11 398/308/11 
f 400/310/11 398/308/11 399/309/11 
f 399/309/10 385/311/10 400/310/10 
f 387/312/10 400/310/10 385/311/10 
f 369/313/4 368/314/4 387/312/4 
f 400/310/4 387/312/4 368/314/4 
f 368/314/4 367/315/4 400/310/4 
f 398/308/4 400/310/4 367/315/4 
f 367/315/4 366/316/4 398/308/4 
f 396/306/4 398/308/4 366/316/4 
f 396/306/4 366/316/4 394/304/4 
f 376/317/4 394/304/4 366/316/4 
f 376/317/4 375/318/4 394/304/4 
f 392/302/4 394/304/4 375/318/4 
f 375/318/4 373/319/4 392/302/4 
f 390/300/4 392/302/4 373/319/4 
f 373/319/4 371/320/4 390/300/4 
f 388/298/4 390/300/4 371/320/4 
f 371/320/4 369/321/4 388/298/4 
f 387/297/4 388/298/4 369/321/4 
f 329/223/11 331/225/11 330/224/11 
f 332/226/11 330/224/11 331/225/11 
f 330/224/12 332/226/12 333/227/12 
f 334/228/12 333/227/12 332/226/12 
f 333/227/13 334/228/13 335/229/13 
f 336/230/13 335/229/13 334/228/13 
f 335/231/14 336/233/14 337/232/14 
f 338/234/14 337/232/14 336/233/14 
f 337/232/7 338/234/7 339/235/7 
f 340/236/7 339/235/7 338/234/7 
f 339/235/8 340/236/8 341/237/8 
f 342/238/8 341/237/8 340/236/8 
f 341/237/9 342/238/9 343/239/9 
f 344/240/9 343/239/9 342/238/9 
f 343/239/10 344/240/10 329/223/10 
f 331/225/10 329/223/10 344/240/10 
s 1
f 345/241/37 347/243/37 346/242/2 
f 348/244/2 346/242/2 347/243/37 
f 346/242/2 348/244/2 349/245/39 
f 350/246/39 349/245/39 348/244/2 
f 349/245/39 350/246/39 351/247/3 
f 352/248/3 351/247/3 350/246/39 
f 351/247/3 352/248/3 353/249/40 
f 354/250/40 353/249/40 352/248/3 
f 353/249/40 354/250/40 355/251/5 
f 356/252/16 355/251/5 354/250/40 
f 355/251/5 356/252/16 357/253/42 
f 358/254/42 357/253/42 356/252/16 
f 359/255/6 360/256/6 358/254/42 
f 357/253/42 358/254/42 360/256/6 
f 360/256/6 361/257/6 357/253/42 
f 362/258/42 357/253/42 361/257/6 
f 357/253/42 362/258/42 355/251/5 
f 363/259/5 355/251/5 362/258/42 
f 355/251/5 363/259/5 353/249/40 
f 364/260/40 353/249/40 363/259/5 
f 353/249/40 364/260/40 351/247/3 
f 365/261/3 351/247/3 364/260/40 
s off
f 364/260/46 363/259/46 366/262/46 
f 367/263/46 366/262/46 363/259/46 
f 363/259/47 362/258/47 367/263/47 
f 368/264/47 367/263/47 362/258/47 
f 362/258/48 361/257/48 368/264/48 
f 369/265/48 368/264/48 361/257/48 
f 361/266/49 370/268/49 369/267/49 
f 371/269/49 369/267/49 370/268/49 
f 370/268/50 372/270/50 371/269/50 
f 373/271/50 371/269/50 372/270/50 
f 372/270/51 374/272/51 373/271/51 
f 375/273/51 373/271/51 374/272/51 
f 374/272/52 365/261/52 375/273/52 
f 376/274/52 375/273/52 365/261/52 
f 365/261/53 364/260/53 376/274/53 
f 366/262/53 376/274/53 364/260/53 
s 1
f 351/247/3 365/261/3 349/245/39 
f 374/272/39 349/245/39 365/261/3 
f 349/245/39 374/272/39 346/242/2 
f 372/270/21 346/242/2 374/272/39 
f 346/242/2 372/270/21 345/241/37 
f 370/268/37 345/241/37 372/270/21 
s off
f 377/275/51 350/246/51 378/276/51 
f 348/244/51 378/276/51 350/246/51 
f 378/276/50 348/244/50 379/277/50 
f 347/243/50 379/277/50 348/244/50 
f 379/277/49 347/243/49 380/278/49 
f 359/279/49 380/278/49 347/243/49 
s 1
f 347/243/37 345/241/37 359/279/6 
f 360/280/6 359/279/6 345/241/37 
f 345/241/37 370/268/37 360/280/6 
f 361/266/6 360/280/6 370/268/37 
s off
f 380/281/48 359/255/48 381/282/48 
f 358/254/48 381/282/48 359/255/48 
f 381/282/47 358/254/47 382/283/47 
f 356/252/47 382/283/47 358/254/47 
f 382/283/46 356/252/46 383/284/46 
f 354/250/46 383/284/46 356/252/46 
f 383/284/53 354/250/53 384/285/53 
f 352/248/53 384/285/53 354/250/53 
f 384/285/52 352/248/52 377/275/52 
f 350/246/52 377/275/52 352/248/52 
f 342/238/4 340/236/4 383/286/4 
f 382/287/4 383/286/4 340/236/4 
f 340/236/4 338/234/4 382/287/4 
f 381/288/4 382/287/4 338/234/4 
f 381/288/4 338/234/4 380/289/4 
f 336/233/4 380/289/4 338/234/4 
f 336/230/57 334/228/57 380/290/57 
f 379/291/58 380/290/58 334/228/58 
f 334/228/4 332/226/4 379/291/4 
f 378/292/4 379/291/4 332/226/4 
f 332/226/4 331/225/4 378/292/4 
f 377/293/4 378/292/4 331/225/4 
f 331/225/57 344/240/57 377/293/57 
f 384/294/57 377/293/57 344/240/57 
f 384/294/4 344/240/4 383/286/4 
f 342/238/4 383/286/4 344/240/4 
f 385/295/13 387/297/13 386/296/13 
f 388/298/13 386/296/13 387/297/13 
f 386/296/12 388/298/12 389/299/12 
f 390/300/12 389/299/12 388/298/12 
f 389/299/11 390/300/11 391/301/11 
f 392/302/11 391/301/11 390/300/11 
f 391/301/10 392/302/10 393/303/10 
f 394/304/10 393/303/10 392/302/10 
f 393/303/9 394/304/9 395/305/9 
f 396/306/9 395/305/9 394/304/9 
f 395/305/8 396/306/8 397/307/8 
f 398/308/8 397/307/8 396/306/8 
f 397/307/7 398/308/7 399/309/7 
f 400/310/7 399/309/7 398/308/7 
f 399/309/14 400/310/14 385/311/14 
f 387/312/14 385/311/14 400/310/14 
f 369/313/1 387/312/1 368/314/1 
f 400/310/1 368/314/1 387/312/1 
f 368/314/1 400/310/1 367/315/1 
f 398/308/1 367/315/1 400/310/1 
f 367/315/1 398/308/1 366/316/1 
f 396/306/1 366/316/1 398/308/1 
f 396/306/1 394/304/1 366/316/1 
f 376/317/1 366/316/1 394/304/1 
f 376/317/1 394/304/1 375/318/1 
f 392/302/1 375/318/1 394/304/1 
f 375/318/1 392/302/1 373/319/1 
f 390/300/1 373/319/1 392/302/1 
f 373/319/1 390/300/1 371/320/1 
f 388/298/1 371/320/1 390/300/1 
f 371/320/1 388/298/1 369/321/1 
f 387/297/1 369/321/1 388/298/1 
f 401/223/7 402/224/7 403/225/7 
f 404/226/7 403/225/7 402/224/7 
f 402/224/8 405/227/8 404/226/8 
f 406/228/8 404/226/8 405/227/8 
f 405/227/9 407/229/9 406/228/9 
f 408/230/9 406/228/9 407/229/9 
f 407/231/10 409/232/10 408/233/10 
f 410/234/10 408/233/10 409/232/10 
f 409/232/11 411/235/11 410/234/11 
f 412/236/11 410/234/11 411/235/11 
f 411/235/12 413/237/12 412/236/12 
f 414/238/12 412/236/12 413/237/12 
f 413/237/13 415/239/13 414/238/13 
f 416/240/13 414/238/13 415/239/13 
f 415/239/14 401/223/14 416/240/14 
f 403/225/14 416/240/14 401/223/14 
s 1
f 417/241/15 418/242/16 419/243/15 
f 420/244/5 419/243/15 418/242/16 
f 418/242/16 421/245/18 420/244/5 
f 422/246/18 420/244/5 421/245/18 
f 421/245/18 423/247/19 422/246/18 
f 424/248/19 422/246/18 423/247/19 
f 423/247/19 425/249/20 424/248/19 
f 426/250/20 424/248/19 425/249/20 
f 425/249/20 427/251/21 426/250/20 
f 428/252/2 426/250/20 427/251/21 
f 427/251/21 429/253/23 428/252/2 
f 430/254/23 428/252/2 429/253/23 
f 431/255/24 430/254/23 432/256/24 
f 429/253/23 432/256/24 430/254/23 
f 432/256/24 429/253/23 433/257/24 
f 434/258/23 433/257/24 429/253/23 
f 429/253/23 427/251/21 434/258/23 
f 435/259/21 434/258/23 427/251/21 
f 427/251/21 425/249/20 435/259/21 
f 436/260/20 435/259/21 425/249/20 
f 425/249/20 423/247/19 436/260/20 
f 437/261/19 436/260/20 423/247/19 
s off
f 436/260/28 438/262/28 435/259/28 
f 439/263/28 435/259/28 438/262/28 
f 435/259/29 439/263/29 434/258/29 
f 440/264/29 434/258/29 439/263/29 
f 434/258/30 440/264/30 433/257/30 
f 441/265/30 433/257/30 440/264/30 
f 433/266/31 441/267/31 442/268/31 
f 443/269/31 442/268/31 441/267/31 
f 442/268/32 443/269/32 444/270/32 
f 445/271/32 444/270/32 443/269/32 
f 444/270/33 445/271/33 446/272/33 
f 447/273/33 446/272/33 445/271/33 
f 446/272/34 447/273/34 437/261/34 
f 448/274/34 437/261/34 447/273/34 
f 437/261/35 448/274/35 436/260/35 
f 438/262/35 436/260/35 448/274/35 
s 1
f 423/247/19 421/245/18 437/261/19 
f 446/272/18 437/261/19 421/245/18 
f 421/245/18 418/242/16 446/272/18 
f 444/270/5 446/272/18 418/242/16 
f 418/242/16 417/241/15 444/270/5 
f 442/268/15 444/270/5 417/241/15 
s off
f 449/275/33 450/276/33 422/246/33 
f 420/244/33 422/246/33 450/276/33 
f 450/276/32 451/277/32 420/244/32 
f 419/243/32 420/244/32 451/277/32 
f 451/277/31 452/278/31 419/243/31 
f 431/279/31 419/243/31 452/278/31 
s 1
f 419/243/15 431/279/24 417/241/15 
f 432/280/24 417/241/15 431/279/24 
f 417/241/15 432/280/24 442/268/15 
f 433/266/24 442/268/15 432/280/24 
s off
f 452/281/30 453/282/30 431/255/30 
f 430/254/30 431/255/30 453/282/30 
f 453/282/29 454/283/29 430/254/29 
f 428/252/29 430/254/29 454/283/29 
f 454/283/28 455/284/28 428/252/28 
f 426/250/28 428/252/28 455/284/28 
f 455/284/35 456/285/35 426/250/35 
f 424/248/35 426/250/35 456/285/35 
f 456/285/34 449/275/34 424/248/34 
f 422/246/34 424/248/34 449/275/34 
f 414/238/1 455/286/1 412/236/1 
f 454/287/1 412/236/1 455/286/1 
f 412/236/1 454/287/1 410/234/1 
f 453/288/1 410/234/1 454/287/1 
f 453/288/1 452/289/1 410/234/1 
f 408/233/1 410/234/1 452/289/1 
f 408/230/1 452/290/1 406/228/1 
f 451/291/1 406/228/1 452/290/1 
f 406/228/1 451/291/1 404/226/1 
f 450/292/1 404/226/1 451/291/1 
f 404/226/1 450/292/1 403/225/1 
f 449/293/1 403/225/1 450/292/1 
f 403/225/1 449/293/1 416/240/1 
f 456/294/1 416/240/1 449/293/1 
f 456/294/1 455/286/1 416/240/1 
f 414/238/1 416/240/1 455/286/1 
f 457/295/9 458/296/9 459/297/9 
f 460/298/9 459/297/9 458/296/9 
f 458/296/8 461/299/8 460/298/8 
f 462/300/8 460/298/8 461/299/8 
f 461/299/7 463/301/7 462/300/7 
f 464/302/7 462/300/7 463/301/7 
f 463/301/14 465/303/14 464/302/14 
f 466/304/14 464/302/14 465/303/14 
f 465/303/13 467/305/13 466/304/13 
f 468/306/13 466/304/13 467/305/13 
f 467/305/12 469/307/12 468/306/12 
f 470/308/12 468/306/12 469/307/12 
f 469/307/11 471/309/11 470/308/11 
f 472/310/11 470/308/11 471/309/11 
f 471/309/10 457/311/10 472/310/10 
f 459/312/10 472/310/10 457/311/10 
f 441/313/4 440/314/4 459/312/4 
f 472/310/4 459/312/4 440/314/4 
f 440/314/4 439/315/4 472/310/4 
f 470/308/4 472/310/4 439/315/4 
f 439/315/4 438/316/4 470/308/4 
f 468/306/4 470/308/4 438/316/4 
f 468/306/4 438/316/4 466/304/4 
f 448/317/4 466/304/4 438/316/4 
f 448/317/4 447/318/4 466/304/4 
f 464/302/4 466/304/4 447/318/4 
f 447/318/4 445/319/4 464/302/4 
f 462/300/4 464/302/4 445/319/4 
f 445/319/4 443/320/4 462/300/4 
f 460/298/4 462/300/4 443/320/4 
f 443/320/4 441/321/4 460/298/4 
f 459/297/4 460/298/4 441/321/4 
f 401/223/11 403/225/11 402/224/11 
f 404/226/11 402/224/11 403/225/11 
f 402/224/12 404/226/12 405/227/12 
f 406/228/12 405/227/12 404/226/12 
f 405/227/13 406/228/13 407/229/13 
f 408/230/13 407/229/13 406/228/13 
f 407/231/14 408/233/14 409/232/14 
f 410/234/14 409/232/14 408/233/14 
f 409/232/7 410/234/7 411/235/7 
f 412/236/7 411/235/7 410/234/7 
f 411/235/8 412/236/8 413/237/8 
f 414/238/8 413/237/8 412/236/8 
f 413/237/9 414/238/9 415/239/9 
f 416/240/9 415/239/9 414/238/9 
f 415/239/10 416/240/10 401/223/10 
f 403/225/10 401/223/10 416/240/10 
s 1
f 417/241/37 419/243/37 418/242/2 
f 420/244/21 418/242/2 419/243/37 
f 418/242/2 420/244/21 421/245/39 
f 422/246/39 421/245/39 420/244/21 
f 421/245/39 422/246/39 423/247/3 
f 424/248/3 423/247/3 422/246/39 
f 423/247/3 424/248/3 425/249/40 
f 426/250/40 425/249/40 424/248/3 
f 425/249/40 426/250/40 427/251/5 
f 428/252/16 427/251/5 426/250/40 
f 427/251/5 428/252/16 429/253/42 
f 430/254/42 429/253/42 428/252/16 
f 431/255/6 432/256/6 430/254/42 
f 429/253/42 430/254/42 432/256/6 
f 432/256/6 433/257/6 429/253/42 
f 434/258/42 429/253/42 433/257/6 
f 429/253/42 434/258/42 427/251/5 
f 435/259/5 427/251/5 434/258/42 
f 427/251/5 435/259/5 425/249/40 
f 436/260/40 425/249/40 435/259/5 
f 425/249/40 436/260/40 423/247/3 
f 437/261/3 423/247/3 436/260/40 
s off
f 436/260/46 435/259/46 438/262/46 
f 439/263/46 438/262/46 435/259/46 
f 435/259/47 434/258/47 439/263/47 
f 440/264/47 439/263/47 434/258/47 
f 434/258/48 433/257/48 440/264/48 
f 441/265/48 440/264/48 433/257/48 
f 433/266/49 442/268/49 441/267/49 
f 443/269/49 441/267/49 442/268/49 
f 442/268/50 444/270/50 443/269/50 
f 445/271/50 443/269/50 444/270/50 
f 444/270/51 446/272/51 445/271/51 
f 447/273/51 445/271/51 446/272/51 
f 446/272/52 437/261/52 447/273/52 
f 448/274/52 447/273/52 437/261/52 
f 437/261/53 436/260/53 448/274/53 
f 438/262/53 448/274/53 436/260/53 
s 1
f 423/247/3 437/261/3 421/245/39 
f 446/272/39 421/245/39 437/261/3 
f 421/245/39 446/272/39 418/242/2 
f 444/270/21 418/242/2 446/272/39 
f 418/242/2 444/270/21 417/241/37 
f 442/268/37 417/241/37 444/270/21 
s off
f 449/275/51 422/246/51 450/276/51 
f 420/244/51 450/276/51 422/246/51 
f 450/276/50 420/244/50 451/277/50 
f 419/243/50 451/277/50 420/244/50 
f 451/277/49 419/243/49 452/278/49 
f 431/279/49 452/278/49 419/243/49 
s 1
f 419/243/37 417/241/37 431/279/6 
f 432/280/6 431/279/6 417/241/37 
f 417/241/37 442/268/37 432/280/6 
f 433/266/6 432/280/6 442/268/37 
s off
f 452/281/48 431/255/48 453/282/48 
f 430/254/48 453/282/48 431/255/48 
f 453/282/47 430/254/47 454/283/47 
f 428/252/47 454/283/47 430/254/47 
f 454/283/46 428/252/46 455/284/46 
f 426/250/46 455/284/46 428/252/46 
f 455/284/53 426/250/53 456/285/53 
f 424/248/53 456/285/53 426/250/53 
f 456/285/52 424/248/52 449/275/52 
f 422/246/52 449/275/52 424/248/52 
f 414/238/4 412/236/4 455/286/4 
f 454/287/4 455/286/4 412/236/4 
f 412/236/4 410/234/4 454/287/4 
f 453/288/4 454/287/4 410/234/4 
f 453/288/4 410/234/4 452/289/4 
f 408/233/4 452/289/4 410/234/4 
f 408/230/4 406/228/4 452/290/4 
f 451/291/4 452/290/4 406/228/4 
f 406/228/4 404/226/4 451/291/4 
f 450/292/4 451/291/4 404/226/4 
f 404/226/4 403/225/4 450/292/4 
f 449/293/4 450/292/4 403/225/4 
f 403/225/4 416/240/4 449/293/4 
f 456/294/4 449/293/4 416/240/4 
f 456/294/4 416/240/4 455/286/4 
f 414/238/4 455/286/4 416/240/4 
f 457/295/13 459/297/13 458/296/13 
f 460/298/13 458/296/13 459/297/13 
f 458/296/12 460/298/12 461/299/12 
f 462/300/12 461/299/12 460/298/12 
f 461/299/11 462/300/11 463/301/11 
f 464/302/11 463/301/11 462/300/11 
f 463/301/10 464/302/10 465/303/10 
f 466/304/10 465/303/10 464/302/10 
f 465/303/9 466/304/9 467/305/9 
f 468/306/9 467/305/9 466/304/9 
f 467/305/8 468/306/8 469/307/8 
f 470/308/8 469/307/8 468/306/8 
f 469/307/7 470/308/7 471/309/7 
f 472/310/7 471/309/7 470/308/7 
f 471/309/14 472/310/14 457/311/14 
f 459/312/14 457/311/14 472/310/14 
f 441/313/1 459/312/1 440/314/1 
f 472/310/1 440/314/1 459/312/1 
f 440/314/1 472/310/1 439/315/1 
f 470/308/1 439/315/1 472/310/1 
f 439/315/1 470/308/1 438/316/1 
f 468/306/1 438/316/1 470/308/1 
f 468/306/1 466/304/1 438/316/1 
f 448/317/1 438/316/1 466/304/1 
f 448/317/1 466/304/1 447/318/1 
f 464/302/1 447/318/1 466/304/1 
f 447/318/1 464/302/1 445/319/1 
f 462/300/1 445/319/1 464/302/1 
f 445/319/1 462/300/1 443/320/1 
f 460/298/1 443/320/1 462/300/1 
f 443/320/1 460/298/1 441/321/1 
f 459/297/1 441/321/1 460/298/1 
f 473/223/7 474/224/7 475/225/7 
f 476/226/7 475/225/7 474/224/7 
f 474/224/8 477/227/8 476/226/8 
f 478/228/8 476/226/8 477/227/8 
f 477/227/9 479/229/9 478/228/9 
f 480/230/9 478/228/9 479/229/9 
f 479/231/10 481/232/10 480/233/10 
f 482/234/10 480/233/10 481/232/10 
f 481/232/11 483/235/11 482/234/11 
f 484/236/11 482/234/11 483/235/11 
f 483/235/12 485/237/12 484/236/12 
f 486/238/12 484/236/12 485/237/12 
f 485/237/13 487/239/13 486/238/13 
f 488/240/13 486/238/13 487/239/13 
f 487/239/14 473/223/14 488/240/14 
f 475/225/14 488/240/14 473/223/14 
s 1
f 489/241/15 490/242/16 491/243/15 
f 492/244/5 491/243/15 490/242/16 
f 490/242/16 493/245/18 492/244/5 
f 494/246/18 492/244/5 493/245/18 
f 493/245/18 495/247/19 494/246/18 
f 496/248/19 494/246/18 495/247/19 
f 495/247/19 497/249/20 496/248/19 
f 498/250/20 496/248/19 497/249/20 
f 497/249/20 499/251/21 498/250/20 
f 500/252/2 498/250/20 499/251/21 
f 499/251/21 501/253/23 500/252/2 
f 502/254/23 500/252/2 501/253/23 
f 503/255/24 502/254/23 504/256/24 
f 501/253/23 504/256/24 502/254/23 
f 504/256/24 501/253/23 505/257/24 
f 506/258/23 505/257/24 501/253/23 
f 501/253/23 499/251/21 506/258/23 
f 507/259/21 506/258/23 499/251/21 
f 499/251/21 497/249/20 507/259/21 
f 508/260/20 507/259/21 497/249/20 
f 497/249/20 495/247/19 508/260/20 
f 509/261/19 508/260/20 495/247/19 
s off
f 508/260/28 510/262/28 507/259/28 
f 511/263/28 507/259/28 510/262/28 
f 507/259/29 511/263/29 506/258/29 
f 512/264/29 506/258/29 511/263/29 
f 506/258/30 512/264/30 505/257/30 
f 513/265/30 505/257/30 512/264/30 
f 505/266/31 513/267/31 514/268/31 
f 515/269/31 514/268/31 513/267/31 
f 514/268/32 515/269/32 516/270/32 
f 517/271/32 516/270/32 515/269/32 
f 516/270/33 517/271/33 518/272/33 
f 519/273/33 518/272/33 517/271/33 
f 518/272/34 519/273/34 509/261/34 
f 520/274/34 509/261/34 519/273/34 
f 509/261/35 520/274/35 508/260/35 
f 510/262/35 508/260/35 520/274/35 
s 1
f 495/247/19 493/245/18 509/261/19 
f 518/272/18 509/261/19 493/245/18 
f 493/245/18 490/242/16 518/272/18 
f 516/270/5 518/272/18 490/242/16 
f 490/242/16 489/241/15 516/270/5 
f 514/268/15 516/270/5 489/241/15 
s off
f 521/275/33 522/276/33 494/246/33 
f 492/244/33 494/246/33 522/276/33 
f 522/276/32 523/277/32 492/244/32 
f 491/243/32 492/244/32 523/277/32 
f 523/277/31 524/278/31 491/243/31 
f 503/279/31 491/243/31 524/278/31 
s 1
f 491/243/15 503/279/24 489/241/15 
f 504/280/24 489/241/15 503/279/24 
f 489/241/15 504/280/24 514/268/15 
f 505/266/24 514/268/15 504/280/24 
s off
f 524/281/30 525/282/30 503/255/30 
f 502/254/30 503/255/30 525/282/30 
f 525/282/29 526/283/29 502/254/29 
f 500/252/29 502/254/29 526/283/29 
f 526/283/28 527/284/28 500/252/28 
f 498/250/28 500/252/28 527/284/28 
f 527/284/35 528/285/35 498/250/35 
f 496/248/35 498/250/35 528/285/35 
f 528/285/34 521/275/34 496/248/34 
f 494/246/34 496/248/34 521/275/34 
f 486/238/1 527/286/1 484/236/1 
f 526/287/1 484/236/1 527/286/1 
f 484/236/1 526/287/1 482/234/1 
f 525/288/1 482/234/1 526/287/1 
f 525/288/1 524/289/1 482/234/1 
f 480/233/1 482/234/1 524/289/1 
f 480/230/1 524/290/1 478/228/1 
f 523/291/1 478/228/1 524/290/1 
f 478/228/1 523/291/1 476/226/1 
f 522/292/1 476/226/1 523/291/1 
f 476/226/1 522/292/1 475/225/1 
f 521/293/1 475/225/1 522/292/1 
f 475/225/1 521/293/1 488/240/1 
f 528/294/1 488/240/1 521/293/1 
f 528/294/1 527/286/1 488/240/1 
f 486/238/1 488/240/1 527/286/1 
f 529/295/9 530/296/9 531/297/9 
f 532/298/9 531/297/9 530/296/9 
f 530/296/8 533/299/8 532/298/8 
f 534/300/8 532/298/8 533/299/8 
f 533/299/7 535/301/7 534/300/7 
f 536/302/7 534/300/7 535/301/7 
f 535/301/14 537/303/14 536/302/14 
f 538/304/14 536/302/14 537/303/14 
f 537/303/13 539/305/13 538/304/13 
f 540/306/13 538/304/13 539/305/13 
f 539/305/12 541/307/12 540/306/12 
f 542/308/12 540/306/12 541/307/12 
f 541/307/11 543/309/11 542/308/11 
f 544/310/11 542/308/11 543/309/11 
f 543/309/10 529/311/10 544/310/10 
f 531/312/10 544/310/10 529/311/10 
f 513/313/4 512/314/4 531/312/4 
f 544/310/4 531/312/4 512/314/4 
f 512/314/4 511/315/4 544/310/4 
f 542/308/4 544/310/4 511/315/4 
f 511/315/4 510/316/4 542/308/4 
f 540/306/4 542/308/4 510/316/4 
f 540/306/4 510/316/4 538/304/4 
f 520/317/4 538/304/4 510/316/4 
f 520/317/4 519/318/4 538/304/4 
f 536/302/4 538/304/4 519/318/4 
f 519/318/4 517/319/4 536/302/4 
f 534/300/4 536/302/4 517/319/4 
f 517/319/4 515/320/4 534/300/4 
f 532/298/4 534/300/4 515/320/4 
f 515/320/4 513/321/4 532/298/4 
f 531/297/4 532/298/4 513/321/4 
f 473/223/11 475/225/11 474/224/11 
f 476/226/11 474/224/11 475/225/11 
f 474/224/12 476/226/12 477/227/12 
f 478/228/12 477/227/12 476/226/12 
f 477/227/13 478/228/13 479/229/13 
f 480/230/13 479/229/13 478/228/13 
f 479/231/14 480/233/14 481/232/14 
f 482/234/14 481/232/14 480/233/14 
f 481/232/7 482/234/7 483/235/7 
f 484/236/7 483/235/7 482/234/7 
f 483/235/8 484/236/8 485/237/8 
f 486/238/8 485/237/8 484/236/8 
f 485/237/9 486/238/9 487/239/9 
f 488/240/9 487/239/9 486/238/9 
f 487/239/10 488/240/10 473/223/10 
f 475/225/10 473/223/10 488/240/10 
s 1
f 489/241/37 491/243/37 490/242/2 
f 492/244/2 490/242/2 491/243/37 
f 490/242/2 492/244/2 493/245/39 
f 494/246/39 493/245/39 492/244/2 
f 493/245/39 494/246/39 495/247/3 
f 496/248/3 495/247/3 494/246/39 
f 495/247/3 496/248/3 497/249/40 
f 498/250/40 497/249/40 496/248/3 
f 497/249/40 498/250/40 499/251/5 
f 500/252/5 499/251/5 498/250/40 
f 499/251/5 500/252/5 501/253/42 
f 502/254/42 501/253/42 500/252/5 
f 503/255/6 504/256/6 502/254/42 
f 501/253/42 502/254/42 504/256/6 
f 504/256/6 505/257/6 501/253/42 
f 506/258/42 501/253/42 505/257/6 
f 501/253/42 506/258/42 499/251/5 
f 507/259/5 499/251/5 506/258/42 
f 499/251/5 507/259/5 497/249/40 
f 508/260/40 497/249/40 507/259/5 
f 497/249/40 508/260/40 495/247/3 
f 509/261/3 495/247/3 508/260/40 
s off
f 508/260/46 507/259/46 510/262/46 
f 511/263/46 510/262/46 507/259/46 
f 507/259/47 506/258/47 511/263/47 
f 512/264/47 511/263/47 506/258/47 
f 506/258/48 505/257/48 512/264/48 
f 513/265/48 512/264/48 505/257/48 
f 505/266/49 514/268/49 513/267/49 
f 515/269/49 513/267/49 514/268/49 
f 514/268/50 516/270/50 515/269/50 
f 517/271/50 515/269/50 516/270/50 
f 516/270/51 518/272/51 517/271/51 
f 519/273/51 517/271/51 518/272/51 
f 518/272/52 509/261/52 519/273/52 
f 520/274/52 519/273/52 509/261/52 
f 509/261/53 508/260/53 520/274/53 
f 510/262/53 520/274/53 508/260/53 
s 1
f 495/247/3 509/261/3 493/245/39 
f 518/272/39 493/245/39 509/261/3 
f 493/245/39 518/272/39 490/242/2 
f 516/270/21 490/242/2 518/272/39 
f 490/242/2 516/270/21 489/241/37 
f 514/268/37 489/241/37 516/270/21 
s off
f 521/275/51 494/246/51 522/276/51 
f 492/244/51 522/276/51 494/246/51 
f 522/276/50 492/244/50 523/277/50 
f 491/243/50 523/277/50 492/244/50 
f 523/277/49 491/243/49 524/278/49 
f 503/279/49 524/278/49 491/243/49 
s 1
f 491/243/37 489/241/37 503/279/6 
f 504/280/6 503/279/6 489/241/37 
f 489/241/37 514/268/37 504/280/6 
f 505/266/6 504/280/6 514/268/37 
s off
f 524/281/48 503/255/48 525/282/48 
f 502/254/48 525/282/48 503/255/48 
f 525/282/47 502/254/47 526/283/47 
f 500/252/47 526/283/47 502/254/47 
f 526/283/46 500/252/46 527/284/46 
f 498/250/46 527/284/46 500/252/46 
f 527/284/53 498/250/53 528/285/53 
f 496/248/53 528/285/53 498/250/53 
f 528/285/52 496/248/52 521/275/52 
f 494/246/52 521/275/52 496/248/52 
f 486/238/4 484/236/4 527/286/4 
f 526/287/4 527/286/4 484/236/4 
f 484/236/4 482/234/4 526/287/4 
f 525/288/4 526/287/4 482/234/4 
f 525/288/4 482/234/4 524/289/4 
f 480/233/4 524/289/4 482/234/4 
f 480/230/4 478/228/4 524/290/4 
f 523/291/4 524/290/4 478/228/4 
f 478/228/4 476/226/4 523/291/4 
f 522/292/4 523/291/4 476/226/4 
f 476/226/4 475/225/4 522/292/4 
f 521/293/4 522/292/4 475/225/4 
f 475/225/4 488/240/4 521/293/4 
f 528/294/4 521/293/4 488/240/4 
f 528/294/4 488/240/4 527/286/4 
f 486/238/4 527/286/4 488/240/4 
f 529/295/13 531/297/13 530/296/13 
f 532/298/13 530/296/13 531/297/13 
f 530/296/12 532/298/12 533/299/12 
f 534/300/12 533/299/12 532/298/12 
f 533/299/11 534/300/11 535/301/11 
f 536/302/11 535/301/11 534/300/11 
f 535/301/10 536/302/10 537/303/10 
f 538/304/10 537/303/10 536/302/10 
f 537/303/9 538/304/9 539/305/9 
f 540/306/9 539/305/9 538/304/9 
f 539/305/8 540/306/8 541/307/8 
f 542/308/8 541/307/8 540/306/8 
f 541/307/7 542/308/7 543/309/7 
f 544/310/7 543/309/7 542/308/7 
f 543/309/14 544/310/14 529/311/14 
f 531/312/14 529/311/14 544/310/14 
f 513/313/1 531/312/1 512/314/1 
f 544/310/1 512/314/1 531/312/1 
f 512/314/1 544/310/1 511/315/1 
f 542/308/1 511/315/1 544/310/1 
f 511/315/1 542/308/1 510/316/1 
f 540/306/1 510/316/1 542/308/1 
f 540/306/1 538/304/1 510/316/1 
f 520/317/1 510/316/1 538/304/1 
f 520/317/1 538/304/1 519/318/1 
f 536/302/1 519/318/1 538/304/1 
f 519/318/1 536/302/1 517/319/1 
f 534/300/1 517/319/1 536/302/1 
f 517/319/1 534/300/1 515/320/1 
f 532/298/1 515/320/1 534/300/1 
f 515/320/1 532/298/1 513/321/1 
f 531/297/1 513/321/1 532/298/1 
f 545/223/7 546/224/7 547/225/7 
f 548/226/7 547/225/7 546/224/7 
f 546/224/8 549/227/8 548/226/8 
f 550/228/8 548/226/8 549/227/8 
f 549/227/9 551/229/9 550/228/9 
f 552/230/9 550/228/9 551/229/9 
f 551/231/10 553/232/10 552/233/10 
f 554/234/10 552/233/10 553/232/10 
f 553/232/11 555/235/11 554/234/11 
f 556/236/11 554/234/11 555/235/11 
f 555/235/12 557/237/12 556/236/12 
f 558/238/12 556/236/12 557/237/12 
f 557/237/13 559/239/13 558/238/13 
f 560/240/13 558/238/13 559/239/13 
f 559/239/14 545/223/14 560/240/14 
f 547/225/14 560/240/14 545/223/14 
s 1
f 561/241/15 562/242/16 563/243/15 
f 564/244/16 563/243/15 562/242/16 
f 562/242/16 565/245/18 564/244/16 
f 566/246/18 564/244/16 565/245/18 
f 565/245/18 567/247/19 566/246/18 
f 568/248/19 566/246/18 567/247/19 
f 567/247/19 569/249/20 568/248/19 
f 570/250/20 568/248/19 569/249/20 
f 569/249/20 571/251/21 570/250/20 
f 572/252/21 570/250/20 571/251/21 
f 571/251/21 573/253/23 572/252/21 
f 574/254/23 572/252/21 573/253/23 
f 575/255/24 574/254/23 576/256/24 
f 573/253/23 576/256/24 574/254/23 
f 576/256/24 573/253/23 577/257/24 
f 578/258/23 577/257/24 573/253/23 
f 573/253/23 571/251/21 578/258/23 
f 579/259/2 578/258/23 571/251/21 
f 571/251/21 569/249/20 579/259/2 
f 580/260/20 579/259/2 569/249/20 
f 569/249/20 567/247/19 580/260/20 
f 581/261/19 580/260/20 567/247/19 
s off
f 580/260/59 582/262/59 579/259/59 
f 583/263/59 579/259/59 582/262/59 
f 579/259/60 583/263/60 578/258/60 
f 584/264/60 578/258/60 583/263/60 
f 578/258/30 584/264/30 577/257/30 
f 585/265/30 577/257/30 584/264/30 
f 577/266/31 585/267/31 586/268/31 
f 587/269/31 586/268/31 585/267/31 
f 586/268/32 587/269/32 588/270/32 
f 589/271/32 588/270/32 587/269/32 
f 588/270/33 589/271/33 590/272/33 
f 591/273/33 590/272/33 589/271/33 
f 590/272/34 591/273/34 581/261/34 
f 592/274/34 581/261/34 591/273/34 
f 581/261/35 592/274/35 580/260/35 
f 582/262/35 580/260/35 592/274/35 
s 1
f 567/247/19 565/245/18 581/261/19 
f 590/272/18 581/261/19 565/245/18 
f 565/245/18 562/242/16 590/272/18 
f 588/270/5 590/272/18 562/242/16 
f 562/242/16 561/241/15 588/270/5 
f 586/268/15 588/270/5 561/241/15 
s off
f 593/275/33 594/276/33 566/246/33 
f 564/244/33 566/246/33 594/276/33 
f 594/276/32 595/277/32 564/244/32 
f 563/243/32 564/244/32 595/277/32 
f 595/277/31 596/278/31 563/243/31 
f 575/279/31 563/243/31 596/278/31 
s 1
f 563/243/15 575/279/24 561/241/15 
f 576/280/24 561/241/15 575/279/24 
f 561/241/15 576/280/24 586/268/15 
f 577/266/24 586/268/15 576/280/24 
s off
f 596/281/30 597/282/30 575/255/30 
f 574/254/30 575/255/30 597/282/30 
f 597/282/60 598/283/60 574/254/60 
f 572/252/60 574/254/60 598/283/60 
f 598/283/59 599/284/59 572/252/59 
f 570/250/59 572/252/59 599/284/59 
f 599/284/35 600/285/35 570/250/35 
f 568/248/35 570/250/35 600/285/35 
f 600/285/34 593/275/34 568/248/34 
f 566/246/34 568/248/34 593/275/34 
f 558/238/55 599/286/55 556/236/55 
f 598/287/1 556/236/1 599/286/1 
f 556/236/61 598/287/61 554/234/61 
f 597/288/56 554/234/56 598/287/56 
f 597/288/1 596/289/1 554/234/1 
f 552/233/1 554/234/1 596/289/1 
f 552/230/1 596/290/1 550/228/1 
f 595/291/1 550/228/1 596/290/1 
f 550/228/1 595/291/1 548/226/1 
f 594/292/1 548/226/1 595/291/1 
f 548/226/1 594/292/1 547/225/1 
f 593/293/1 547/225/1 594/292/1 
f 547/225/1 593/293/1 560/240/1 
f 600/294/1 560/240/1 593/293/1 
f 600/294/1 599/286/1 560/240/1 
f 558/238/1 560/240/1 599/286/1 
f 601/295/9 602/296/9 603/297/9 
f 604/298/9 603/297/9 602/296/9 
f 602/296/8 605/299/8 604/298/8 
f 606/300/8 604/298/8 605/299/8 
f 605/299/7 607/301/7 606/300/7 
f 608/302/7 606/300/7 607/301/7 
f 607/301/14 609/303/14 608/302/14 
f 610/304/14 608/302/14 609/303/14 
f 609/303/13 611/305/13 610/304/13 
f 612/306/13 610/304/13 611/305/13 
f 611/305/12 613/307/12 612/306/12 
f 614/308/12 612/306/12 613/307/12 
f 613/307/11 615/309/11 614/308/11 
f 616/310/11 614/308/11 615/309/11 
f 615/309/10 601/311/10 616/310/10 
f 603/312/10 616/310/10 601/311/10 
f 585/313/4 584/314/4 603/312/4 
f 616/310/4 603/312/4 584/314/4 
f 584/314/4 583/315/4 616/310/4 
f 614/308/4 616/310/4 583/315/4 
f 583/315/4 582/316/4 614/308/4 
f 612/306/4 614/308/4 582/316/4 
f 612/306/4 582/316/4 610/304/4 
f 592/317/4 610/304/4 582/316/4 
f 592/317/4 591/318/4 610/304/4 
f 608/302/4 610/304/4 591/318/4 
f 591/318/4 589/319/4 608/302/4 
f 606/300/4 608/302/4 589/319/4 
f 589/319/4 587/320/4 606/300/4 
f 604/298/4 606/300/4 587/320/4 
f 587/320/4 585/321/4 604/298/4 
f 603/297/4 604/298/4 585/321/4 
f 545/223/11 547/225/11 546/224/11 
f 548/226/11 546/224/11 547/225/11 
f 546/224/12 548/226/12 549/227/12 
f 550/228/12 549/227/12 548/226/12 
f 549/227/13 550/228/13 551/229/13 
f 552/230/13 551/229/13 550/228/13 
f 551/231/14 552/233/14 553/232/14 
f 554/234/14 553/232/14 552/233/14 
f 553/232/7 554/234/7 555/235/7 
f 556/236/7 555/235/7 554/234/7 
f 555/235/8 556/236/8 557/237/8 
f 558/238/8 557/237/8 556/236/8 
f 557/237/9 558/238/9 559/239/9 
f 560/240/9 559/239/9 558/238/9 
f 559/239/10 560/240/10 545/223/10 
f 547/225/10 545/223/10 560/240/10 
s 1
f 561/241/37 563/243/37 562/242/2 
f 564/244/2 562/242/2 563/243/37 
f 562/242/2 564/244/2 565/245/39 
f 566/246/39 565/245/39 564/244/2 
f 565/245/39 566/246/39 567/247/3 
f 568/248/3 567/247/3 566/246/39 
f 567/247/3 568/248/3 569/249/40 
f 570/250/40 569/249/40 568/248/3 
f 569/249/40 570/250/40 571/251/5 
f 572/252/5 571/251/5 570/250/40 
f 571/251/5 572/252/5 573/253/42 
f 574/254/42 573/253/42 572/252/5 
f 575/255/6 576/256/6 574/254/42 
f 573/253/42 574/254/42 576/256/6 
f 576/256/6 577/257/6 573/253/42 
f 578/258/42 573/253/42 577/257/6 
f 573/253/42 578/258/42 571/251/5 
f 579/259/5 571/251/5 578/258/42 
f 571/251/5 579/259/5 569/249/40 
f 580/260/40 569/249/40 579/259/5 
f 569/249/40 580/260/40 567/247/3 
f 581/261/3 567/247/3 580/260/40 
s off
f 580/260/62 579/259/62 582/262/62 
f 583/263/62 582/262/62 579/259/62 
f 579/259/63 578/258/63 583/263/63 
f 584/264/63 583/263/63 578/258/63 
f 578/258/48 577/257/48 584/264/48 
f 585/265/48 584/264/48 577/257/48 
f 577/266/49 586/268/49 585/267/49 
f 587/269/49 585/267/49 586/268/49 
f 586/268/50 588/270/50 587/269/50 
f 589/271/50 587/269/50 588/270/50 
f 588/270/51 590/272/51 589/271/51 
f 591/273/51 589/271/51 590/272/51 
f 590/272/52 581/261/52 591/273/52 
f 592/274/52 591/273/52 581/261/52 
f 581/261/53 580/260/53 592/274/53 
f 582/262/53 592/274/53 580/260/53 
s 1
f 567/247/3 581/261/3 565/245/39 
f 590/272/39 565/245/39 581/261/3 
f 565/245/39 590/272/39 562/242/2 
f 588/270/21 562/242/2 590/272/39 
f 562/242/2 588/270/21 561/241/37 
f 586/268/37 561/241/37 588/270/21 
s off
f 593/275/51 566/246/51 594/276/51 
f 564/244/51 594/276/51 566/246/51 
f 594/276/50 564/244/50 595/277/50 
f 563/243/50 595/277/50 564/244/50 
f 595/277/49 563/243/49 596/278/49 
f 575/279/49 596/278/49 563/243/49 
s 1
f 563/243/37 561/241/37 575/279/6 
f 576/280/6 575/279/6 561/241/37 
f 561/241/37 586/268/37 576/280/6 
f 577/266/6 576/280/6 586/268/37 
s off
f 596/281/48 575/255/48 597/282/48 
f 574/254/48 597/282/48 575/255/48 
f 597/282/63 574/254/63 598/283/63 
f 572/252/63 598/283/63 574/254/63 
f 598/283/62 572/252/62 599/284/62 
f 570/250/62 599/284/62 572/252/62 
f 599/284/53 570/250/53 600/285/53 
f 568/248/53 600/285/53 570/250/53 
f 600/285/52 568/248/52 593/275/52 
f 566/246/52 593/275/52 568/248/52 
f 558/238/58 556/236/58 599/286/58 
f 598/287/64 599/286/64 556/236/64 
f 556/236/4 554/234/4 598/287/4 
f 597/288/57 598/287/57 554/234/57 
f 597/288/4 554/234/4 596/289/4 
f 552/233/4 596/289/4 554/234/4 
f 552/230/4 550/228/4 596/290/4 
f 595/291/4 596/290/4 550/228/4 
f 550/228/4 548/226/4 595/291/4 
f 594/292/4 595/291/4 548/226/4 
f 548/226/4 547/225/4 594/292/4 
f 593/293/4 594/292/4 547/225/4 
f 547/225/4 560/240/4 593/293/4 
f 600/294/4 593/293/4 560/240/4 
f 600/294/4 560/240/4 599/286/4 
f 558/238/4 599/286/4 560/240/4 
f 601/295/13 603/297/13 602/296/13 
f 604/298/13 602/296/13 603/297/13 
f 602/296/12 604/298/12 605/299/12 
f 606/300/12 605/299/12 604/298/12 
f 605/299/11 606/300/11 607/301/11 
f 608/302/11 607/301/11 606/300/11 
f 607/301/10 608/302/10 609/303/10 
f 610/304/10 609/303/10 608/302/10 
f 609/303/9 610/304/9 611/305/9 
f 612/306/9 611/305/9 610/304/9 
f 611/305/8 612/306/8 613/307/8 
f 614/308/8 613/307/8 612/306/8 
f 613/307/7 614/308/7 615/309/7 
f 616/310/7 615/309/7 614/308/7 
f 615/309/14 616/310/14 601/311/14 
f 603/312/14 601/311/14 616/310/14 
f 585/313/1 603/312/1 584/314/1 
f 616/310/1 584/314/1 603/312/1 
f 584/314/1 616/310/1 583/315/1 
f 614/308/1 583/315/1 616/310/1 
f 583/315/1 614/308/1 582/316/1 
f 612/306/1 582/316/1 614/308/1 
f 612/306/1 610/304/1 582/316/1 
f 592/317/1 582/316/1 610/304/1 
f 592/317/1 610/304/1 591/318/1 
f 608/302/1 591/318/1 610/304/1 
f 591/318/1 608/302/1 589/319/1 
f 606/300/1 589/319/1 608/302/1 
f 589/319/1 606/300/1 587/320/1 
f 604/298/1 587/320/1 606/300/1 
f 587/320/1 604/298/1 585/321/1 
f 603/297/1 585/321/1 604/298/1 
f 617/223/7 618/224/7 619/225/7 
f 620/226/7 619/225/7 618/224/7 
f 618/224/8 621/227/8 620/226/8 
f 622/228/8 620/226/8 621/227/8 
f 621/227/9 623/229/9 622/228/9 
f 624/230/9 622/228/9 623/229/9 
f 623/231/10 625/232/10 624/233/10 
f 626/234/10 624/233/10 625/232/10 
f 625/232/11 627/235/11 626/234/11 
f 628/236/11 626/234/11 627/235/11 
f 627/235/12 629/237/12 628/236/12 
f 630/238/12 628/236/12 629/237/12 
f 629/237/13 631/239/13 630/238/13 
f 632/240/13 630/238/13 631/239/13 
f 631/239/14 617/223/14 632/240/14 
f 619/225/14 632/240/14 617/223/14 
s 1
f 633/241/36 634/242/65 635/243/15 
f 636/244/16 635/243/15 634/242/65 
f 634/242/65 637/245/17 636/244/16 
f 638/246/18 636/244/16 637/245/17 
f 637/245/17 639/247/19 638/246/18 
f 640/248/19 638/246/18 639/247/19 
f 639/247/19 641/249/20 640/248/19 
f 642/250/20 640/248/19 641/249/20 
f 641/249/20 643/251/2 642/250/20 
f 644/252/21 642/250/20 643/251/2 
f 643/251/2 645/253/23 644/252/21 
f 646/254/23 644/252/21 645/253/23 
f 647/255/24 646/254/23 648/256/24 
f 645/253/23 648/256/24 646/254/23 
f 648/256/24 645/253/23 649/257/24 
f 650/258/23 649/257/24 645/253/23 
f 645/253/23 643/251/2 650/258/23 
f 651/259/21 650/258/23 643/251/2 
f 643/251/2 641/249/20 651/259/21 
f 652/260/20 651/259/21 641/249/20 
f 641/249/20 639/247/19 652/260/20 
f 653/261/19 652/260/20 639/247/19 
s off
f 652/260/28 654/262/28 651/259/28 
f 655/263/28 651/259/28 654/262/28 
f 651/259/29 655/263/29 650/258/29 
f 656/264/29 650/258/29 655/263/29 
f 650/258/30 656/264/30 649/257/30 
f 657/265/30 649/257/30 656/264/30 
f 649/266/31 657/267/31 658/268/31 
f 659/269/31 658/268/31 657/267/31 
f 658/268/32 659/269/32 660/270/32 
f 661/271/32 660/270/32 659/269/32 
f 660/270/33 661/271/33 662/272/33 
f 663/273/33 662/272/33 661/271/33 
f 662/272/34 663/273/34 653/261/34 
f 664/274/34 653/261/34 663/273/34 
f 653/261/35 664/274/35 652/260/35 
f 654/262/35 652/260/35 664/274/35 
s 1
f 639/247/19 637/245/17 653/261/19 
f 662/272/17 653/261/19 637/245/17 
f 637/245/17 634/242/65 662/272/17 
f 660/270/66 662/272/17 634/242/65 
f 634/242/65 633/241/36 660/270/66 
f 658/268/36 660/270/66 633/241/36 
s off
f 665/275/33 666/276/33 638/246/33 
f 636/244/33 638/246/33 666/276/33 
f 666/276/32 667/277/32 636/244/32 
f 635/243/32 636/244/32 667/277/32 
f 667/277/31 668/278/31 635/243/31 
f 647/279/31 635/243/31 668/278/31 
s 1
f 635/243/15 647/279/24 633/241/36 
f 648/280/24 633/241/36 647/279/24 
f 633/241/36 648/280/24 658/268/36 
f 649/266/24 658/268/36 648/280/24 
s off
f 668/281/30 669/282/30 647/255/30 
f 646/254/30 647/255/30 669/282/30 
f 669/282/29 670/283/29 646/254/29 
f 644/252/29 646/254/29 670/283/29 
f 670/283/28 671/284/28 644/252/28 
f 642/250/28 644/252/28 671/284/28 
f 671/284/35 672/285/35 642/250/35 
f 640/248/35 642/250/35 672/285/35 
f 672/285/34 665/275/34 640/248/34 
f 638/246/34 640/248/34 665/275/34 
f 630/238/1 671/286/1 628/236/1 
f 670/287/1 628/236/1 671/286/1 
f 628/236/1 670/287/1 626/234/1 
f 669/288/1 626/234/1 670/287/1 
f 669/288/1 668/289/1 626/234/1 
f 624/233/1 626/234/1 668/289/1 
f 624/230/1 668/290/1 622/228/1 
f 667/291/1 622/228/1 668/290/1 
f 622/228/1 667/291/1 620/226/1 
f 666/292/1 620/226/1 667/291/1 
f 620/226/1 666/292/1 619/225/1 
f 665/293/1 619/225/1 666/292/1 
f 619/225/1 665/293/1 632/240/1 
f 672/294/1 632/240/1 665/293/1 
f 672/294/1 671/286/1 632/240/1 
f 630/238/1 632/240/1 671/286/1 
f 673/295/9 674/296/9 675/297/9 
f 676/298/9 675/297/9 674/296/9 
f 674/296/8 677/299/8 676/298/8 
f 678/300/8 676/298/8 677/299/8 
f 677/299/7 679/301/7 678/300/7 
f 680/302/7 678/300/7 679/301/7 
f 679/301/14 681/303/14 680/302/14 
f 682/304/14 680/302/14 681/303/14 
f 681/303/13 683/305/13 682/304/13 
f 684/306/13 682/304/13 683/305/13 
f 683/305/12 685/307/12 684/306/12 
f 686/308/12 684/306/12 685/307/12 
f 685/307/11 687/309/11 686/308/11 
f 688/310/11 686/308/11 687/309/11 
f 687/309/10 673/311/10 688/310/10 
f 675/312/10 688/310/10 673/311/10 
f 657/313/4 656/314/4 675/312/4 
f 688/310/4 675/312/4 656/314/4 
f 656/314/4 655/315/4 688/310/4 
f 686/308/4 688/310/4 655/315/4 
f 655/315/4 654/316/4 686/308/4 
f 684/306/4 686/308/4 654/316/4 
f 684/306/4 654/316/4 682/304/4 
f 664/317/4 682/304/4 654/316/4 
f 664/317/4 663/318/4 682/304/4 
f 680/302/4 682/304/4 663/318/4 
f 663/318/4 661/319/4 680/302/4 
f 678/300/4 680/302/4 661/319/4 
f 661/319/4 659/320/4 678/300/4 
f 676/298/4 678/300/4 659/320/4 
f 659/320/4 657/321/4 676/298/4 
f 675/297/4 676/298/4 657/321/4 
f 617/223/11 619/225/11 618/224/11 
f 620/226/11 618/224/11 619/225/11 
f 618/224/12 620/226/12 621/227/12 
f 622/228/12 621/227/12 620/226/12 
f 621/227/13 622/228/13 623/229/13 
f 624/230/13 623/229/13 622/228/13 
f 623/231/14 624/233/14 625/232/14 
f 626/234/14 625/232/14 624/233/14 
f 625/232/7 626/234/7 627/235/7 
f 628/236/7 627/235/7 626/234/7 
f 627/235/8 628/236/8 629/237/8 
f 630/238/8 629/237/8 628/236/8 
f 629/237/9 630/238/9 631/239/9 
f 632/240/9 631/239/9 630/238/9 
f 631/239/10 632/240/10 617/223/10 
f 619/225/10 617/223/10 632/240/10 
s 1
f 633/241/54 635/243/37 634/242/67 
f 636/244/2 634/242/67 635/243/37 
f 634/242/67 636/244/2 637/245/38 
f 638/246/39 637/245/38 636/244/2 
f 637/245/38 638/246/39 639/247/3 
f 640/248/3 639/247/3 638/246/39 
f 639/247/3 640/248/3 641/249/40 
f 642/250/40 641/249/40 640/248/3 
f 641/249/40 642/250/40 643/251/16 
f 644/252/5 643/251/16 642/250/40 
f 643/251/16 644/252/5 645/253/42 
f 646/254/42 645/253/42 644/252/5 
f 647/255/6 648/256/6 646/254/42 
f 645/253/42 646/254/42 648/256/6 
f 648/256/6 649/257/6 645/253/42 
f 650/258/42 645/253/42 649/257/6 
f 645/253/42 650/258/42 643/251/16 
f 651/259/5 643/251/16 650/258/42 
f 643/251/16 651/259/5 641/249/40 
f 652/260/40 641/249/40 651/259/5 
f 641/249/40 652/260/40 639/247/3 
f 653/261/3 639/247/3 652/260/40 
s off
f 652/260/46 651/259/46 654/262/46 
f 655/263/46 654/262/46 651/259/46 
f 651/259/47 650/258/47 655/263/47 
f 656/264/47 655/263/47 650/258/47 
f 650/258/48 649/257/48 656/264/48 
f 657/265/48 656/264/48 649/257/48 
f 649/266/49 658/268/49 657/267/49 
f 659/269/49 657/267/49 658/268/49 
f 658/268/50 660/270/50 659/269/50 
f 661/271/50 659/269/50 660/270/50 
f 660/270/51 662/272/51 661/271/51 
f 663/273/51 661/271/51 662/272/51 
f 662/272/52 653/261/52 663/273/52 
f 664/274/52 663/273/52 653/261/52 
f 653/261/53 652/260/53 664/274/53 
f 654/262/53 664/274/53 652/260/53 
s 1
f 639/247/3 653/261/3 637/245/38 
f 662/272/38 637/245/38 653/261/3 
f 637/245/38 662/272/38 634/242/67 
f 660/270/68 634/242/67 662/272/38 
f 634/242/67 660/270/68 633/241/54 
f 658/268/54 633/241/54 660/270/68 
s off
f 665/275/51 638/246/51 666/276/51 
f 636/244/51 666/276/51 638/246/51 
f 666/276/50 636/244/50 667/277/50 
f 635/243/50 667/277/50 636/244/50 
f 667/277/49 635/243/49 668/278/49 
f 647/279/49 668/278/49 635/243/49 
s 1
f 635/243/37 633/241/54 647/279/6 
f 648/280/6 647/279/6 633/241/54 
f 633/241/54 658/268/54 648/280/6 
f 649/266/6 648/280/6 658/268/54 
s off
f 668/281/48 647/255/48 669/282/48 
f 646/254/48 669/282/48 647/255/48 
f 669/282/47 646/254/47 670/283/47 
f 644/252/47 670/283/47 646/254/47 
f 670/283/46 644/252/46 671/284/46 
f 642/250/46 671/284/46 644/252/46 
f 671/284/53 642/250/53 672/285/53 
f 640/248/53 672/285/53 642/250/53 
f 672/285/52 640/248/52 665/275/52 
f 638/246/52 665/275/52 640/248/52 
f 630/238/4 628/236/4 671/286/4 
f 670/287/4 671/286/4 628/236/4 
f 628/236/4 626/234/4 670/287/4 
f 669/288/4 670/287/4 626/234/4 
f 669/288/4 626/234/4 668/289/4 
f 624/233/4 668/289/4 626/234/4 
f 624/230/4 622/228/4 668/290/4 
f 667/291/4 668/290/4 622/228/4 
f 622/228/4 620/226/4 667/291/4 
f 666/292/4 667/291/4 620/226/4 
f 620/226/4 619/225/4 666/292/4 
f 665/293/4 666/292/4 619/225/4 
f 619/225/4 632/240/4 665/293/4 
f 672/294/4 665/293/4 632/240/4 
f 672/294/4 632/240/4 671/286/4 
f 630/238/4 671/286/4 632/240/4 
f 673/295/13 675/297/13 674/296/13 
f 676/298/13 674/296/13 675/297/13 
f 674/296/12 676/298/12 677/299/12 
f 678/300/12 677/299/12 676/298/12 
f 677/299/11 678/300/11 679/301/11 
f 680/302/11 679/301/11 678/300/11 
f 679/301/10 680/302/10 681/303/10 
f 682/304/10 681/303/10 680/302/10 
f 681/303/9 682/304/9 683/305/9 
f 684/306/9 683/305/9 682/304/9 
f 683/305/8 684/306/8 685/307/8 
f 686/308/8 685/307/8 684/306/8 
f 685/307/7 686/308/7 687/309/7 
f 688/310/7 687/309/7 686/308/7 
f 687/309/14 688/310/14 673/311/14 
f 675/312/14 673/311/14 688/310/14 
f 657/313/1 675/312/1 656/314/1 
f 688/310/1 656/314/1 675/312/1 
f 656/314/1 688/310/1 655/315/1 
f 686/308/1 655/315/1 688/310/1 
f 655/315/1 686/308/1 654/316/1 
f 684/306/1 654/316/1 686/308/1 
f 684/306/1 682/304/1 654/316/1 
f 664/317/1 654/316/1 682/304/1 
f 664/317/1 682/304/1 663/318/1 
f 680/302/1 663/318/1 682/304/1 
f 663/318/1 680/302/1 661/319/1 
f 678/300/1 661/319/1 680/302/1 
f 661/319/1 678/300/1 659/320/1 
f 676/298/1 659/320/1 678/300/1 
f 659/320/1 676/298/1 657/321/1 
f 675/297/1 657/321/1 676/298/1 
# 0 polygons - 2034 triangles