# 3ds Max Wavefront OBJ Exporter v0.97b - (c)2007 guruware
# File Created: 26.04.2017 23:11:39

mtllib awning2.mtl

#
# object Mesh_1619
#

v  -13.9039 11.1789 6.2765
v  13.9039 7.3039 -6.2382
v  13.9039 11.1790 6.2765
v  -13.9039 7.3039 -6.2382
v  -13.9039 11.3016 6.2381
v  13.9039 7.4265 -6.2766
v  -13.9039 7.4265 -6.2766
v  13.9039 11.3016 6.2381
v  -13.1219 7.3907 -5.3671
v  -12.6154 7.3907 -5.9523
v  -13.1219 7.3907 -5.9523
v  -12.6154 7.3907 -5.3671
v  -12.7581 10.7825 5.9988
v  -12.7581 7.3839 -5.9863
v  -12.7581 11.0699 5.9113
v  -12.7581 7.0964 -5.8988
v  -12.9847 10.7825 5.9988
v  -12.9847 7.3839 -5.9863
v  -12.9847 7.0964 -5.8988
v  -12.9847 11.0699 5.9113
v  -12.7294 7.0018 6.0697
v  -12.7294 7.3854 -5.1682
v  -12.7294 7.3854 6.0697
v  -12.7294 7.0018 -5.1682
v  -13.0139 7.0018 6.0697
v  -13.0139 7.3854 -5.1682
v  -13.0139 7.0018 -5.1682
v  -13.0139 7.3854 6.0697
v  -12.9412 10.0683 3.4862
v  -12.9412 7.3440 4.4824
v  -12.9412 10.1433 3.8007
v  -12.9412 7.2690 4.1679
v  -12.7960 10.0683 3.4862
v  -12.7960 7.2690 4.1679
v  -12.7960 10.1433 3.8007
v  -12.7960 7.3440 4.4824
v  12.6074 7.3907 -5.3671
v  13.1140 7.3907 -5.9523
v  12.6074 7.3907 -5.9523
v  13.1140 7.3907 -5.3671
v  12.6074 0.0000 -5.3671
v  12.6074 0.0000 -5.9523
v  13.1140 0.0000 -5.9523
v  13.1140 0.0000 -5.3671
v  12.9712 10.7825 5.9988
v  12.9712 7.3839 -5.9863
v  12.9712 11.0699 5.9113
v  12.9712 7.0964 -5.8988
v  12.7446 10.7825 5.9988
v  12.7446 7.3839 -5.9863
v  12.7446 7.0964 -5.8988
v  12.7446 11.0699 5.9113
v  12.9999 7.0018 6.0697
v  12.9999 7.3854 -5.1682
v  12.9999 7.3854 6.0697
v  12.9999 7.0018 -5.1682
v  12.7153 7.0018 6.0697
v  12.7153 7.3854 -5.1682
v  12.7153 7.0018 -5.1682
v  12.7153 7.3854 6.0697
v  12.7881 10.0683 3.4862
v  12.7881 7.3440 4.4824
v  12.7881 10.1433 3.8007
v  12.7881 7.2690 4.1679
v  12.9333 10.0683 3.4862
v  12.9333 7.2690 4.1679
v  12.9333 10.1433 3.8007
v  12.9333 7.3440 4.4824
v  -0.6149 7.3907 -5.3671
v  -0.1084 7.3907 -5.9523
v  -0.6149 7.3907 -5.9523
v  -0.1084 7.3907 -5.3671
v  -0.6149 0.0000 -5.3671
v  -0.6149 0.0000 -5.9523
v  -0.1084 0.0000 -5.9523
v  -0.1084 0.0000 -5.3671
v  -0.2511 10.7825 5.9988
v  -0.2511 7.3839 -5.9863
v  -0.2511 11.0699 5.9113
v  -0.2511 7.0964 -5.8988
v  -0.4778 10.7825 5.9988
v  -0.4778 7.3839 -5.9863
v  -0.4778 7.0964 -5.8988
v  -0.4778 11.0699 5.9113
v  -0.2225 7.0018 6.0697
v  -0.2225 7.3854 -5.1682
v  -0.2225 7.3854 6.0697
v  -0.2225 7.0018 -5.1682
v  -0.5069 7.0018 6.0697
v  -0.5069 7.3854 -5.1682
v  -0.5069 7.0018 -5.1682
v  -0.5069 7.3854 6.0697
v  -0.4343 10.0683 3.4862
v  -0.4343 7.3440 4.4824
v  -0.4343 10.1433 3.8007
v  -0.4343 7.2690 4.1679
v  -0.2891 10.0683 3.4862
v  -0.2891 7.2690 4.1679
v  -0.2891 10.1433 3.8007
v  -0.2891 7.3440 4.4824
v  5.9987 7.3907 -5.3671
v  6.5052 7.3907 -5.9523
v  5.9987 7.3907 -5.9523
v  6.5052 7.3907 -5.3671
v  5.9987 0.0000 -5.3671
v  5.9987 0.0000 -5.9523
v  6.5052 0.0000 -5.9523
v  6.5052 0.0000 -5.3671
v  6.3626 10.7825 5.9988
v  6.3626 7.3839 -5.9863
v  6.3626 11.0699 5.9113
v  6.3626 7.0964 -5.8988
v  6.1359 10.7825 5.9988
v  6.1359 7.3839 -5.9863
v  6.1359 7.0964 -5.8988
v  6.1359 11.0699 5.9113
v  6.3912 7.0018 6.0697
v  6.3912 7.3854 -5.1682
v  6.3912 7.3854 6.0697
v  6.3912 7.0018 -5.1682
v  6.1068 7.0018 6.0697
v  6.1068 7.3854 -5.1682
v  6.1068 7.0018 -5.1682
v  6.1068 7.3854 6.0697
v  6.1795 10.0683 3.4862
v  6.1795 7.3440 4.4824
v  6.1795 10.1433 3.8007
v  6.1795 7.2690 4.1679
v  6.3247 10.0683 3.4862
v  6.3247 7.2690 4.1679
v  6.3247 10.1433 3.8007
v  6.3247 7.3440 4.4824
v  -7.2057 7.3907 -5.3671
v  -6.6992 7.3907 -5.9523
v  -7.2057 7.3907 -5.9523
v  -6.6992 7.3907 -5.3671
v  -7.2057 0.0000 -5.3671
v  -7.2057 0.0000 -5.9523
v  -6.6992 0.0000 -5.9523
v  -6.6992 0.0000 -5.3671
v  -6.8419 10.7825 5.9988
v  -6.8419 7.3839 -5.9863
v  -6.8419 11.0699 5.9113
v  -6.8419 7.0964 -5.8988
v  -7.0685 10.7825 5.9988
v  -7.0685 7.3839 -5.9863
v  -7.0685 7.0964 -5.8988
v  -7.0685 11.0699 5.9113
v  -6.8132 7.0018 6.0697
v  -6.8132 7.3854 -5.1682
v  -6.8132 7.3854 6.0697
v  -6.8132 7.0018 -5.1682
v  -7.0978 7.0018 6.0697
v  -7.0978 7.3854 -5.1682
v  -7.0978 7.0018 -5.1682
v  -7.0978 7.3854 6.0697
v  -7.0251 10.0683 3.4862
v  -7.0251 7.3440 4.4824
v  -7.0251 10.1433 3.8007
v  -7.0251 7.2690 4.1679
v  -6.8798 10.0683 3.4862
v  -6.8798 7.2690 4.1679
v  -6.8798 10.1433 3.8007
v  -6.8798 7.3440 4.4824
v  13.9005 6.8132 -5.1684
v  13.9005 7.3900 -5.3717
v  13.9005 7.3900 -5.1684
v  13.9005 6.8132 -5.3717
v  -13.9039 6.8132 -5.1684
v  -13.9039 7.3900 -5.3717
v  -13.9039 6.8132 -5.3717
v  -13.9039 7.3900 -5.1684
v  13.9005 6.8132 -5.9554
v  13.9005 7.3900 -6.1587
v  13.9005 7.3900 -5.9554
v  13.9005 6.8132 -6.1587
v  -13.9039 6.8132 -5.9554
v  -13.9039 7.3900 -6.1587
v  -13.9039 6.8132 -6.1587
v  -13.9039 7.3900 -5.9554
v  13.9005 10.5232 6.2732
v  13.9005 11.1000 5.8886
v  13.9005 11.1000 6.2732
v  13.9005 10.5232 5.8886
v  -13.9039 10.5232 6.2732
v  -13.9039 11.1000 5.8886
v  -13.9039 10.5232 5.8886
v  -13.9039 11.1000 6.2732
v  13.9005 6.8132 6.2730
v  13.9005 7.3900 6.0697
v  13.9005 7.3900 6.2730
v  13.9005 6.8132 6.0697
v  -13.9039 6.8132 6.2730
v  -13.9039 7.3900 6.0697
v  -13.9039 6.8132 6.0697
v  -13.9039 7.3900 6.2730
v  -13.1219 0.0000 -5.3671
v  -13.1219 0.0000 -5.9523
v  -12.6154 0.0000 -5.9523
v  -12.6154 0.0000 -5.3671
# 200 vertices

vn 0.0000 -0.9553 0.2958
vn -0.0000 0.9553 -0.2958
vn -1.0000 0.0000 0.0000
vn -0.0000 -0.2989 -0.9543
vn 1.0000 0.0000 -0.0000
vn -0.0000 0.2987 0.9544
vn 0.0000 0.2989 0.9543
vn 0.0000 1.0000 -0.0000
vn 0.0000 -0.9552 0.2959
vn 0.0000 -1.0000 -0.0000
vn -0.0000 -0.2366 -0.9716
vn 0.0000 0.2366 0.9716
vn -0.0000 0.0000 -1.0000
vn 0.0000 0.0000 1.0000
# 14 vertex normals

vt 0.0191 0.5130 0.0000
vt 2.5277 0.9920 0.0000
vt 2.5277 0.5130 0.0000
vt 0.0191 0.9920 0.0000
vt 0.0191 0.9921 0.0000
vt 2.5277 0.9921 0.0000
vt 0.0075 0.9921 0.0000
vt 0.0075 0.5130 0.0000
vt 2.5393 0.5130 0.0000
vt 2.5393 0.9921 0.0000
vt 2.5277 0.9968 0.0000
vt 0.0191 0.9968 0.0000
vt 0.7604 0.0569 0.0000
vt 0.8119 0.0271 0.0000
vt 0.7604 0.0271 0.0000
vt 0.8119 0.0569 0.0000
vt 1.2750 0.0777 0.0000
vt 0.0091 0.0929 0.0000
vt 1.2751 0.0929 0.0000
vt 0.0090 0.0777 0.0000
vt 1.2750 0.1197 0.0000
vt 0.0091 0.1044 0.0000
vt 0.0090 0.1197 0.0000
vt 1.2751 0.1044 0.0000
vt 1.2750 0.1312 0.0000
vt 0.0090 0.1312 0.0000
vt 1.1523 0.2764 0.0000
vt 0.0100 0.2959 0.0000
vt 1.1523 0.2959 0.0000
vt 0.0100 0.2764 0.0000
vt 1.1523 0.2619 0.0000
vt 0.0100 0.2425 0.0000
vt 0.0100 0.2619 0.0000
vt 1.1523 0.2425 0.0000
vt 1.1523 0.3104 0.0000
vt 0.0100 0.3104 0.0000
vt 1.1577 0.2137 0.0000
vt 0.8647 0.2301 0.0000
vt 1.1575 0.2301 0.0000
vt 0.8648 0.2137 0.0000
vt 1.1577 0.2063 0.0000
vt 0.8648 0.2063 0.0000
vt 1.1575 0.1899 0.0000
vt 0.8647 0.1899 0.0000
vt 0.8647 0.2375 0.0000
vt 1.1575 0.2375 0.0000
vt 0.7604 0.1821 0.0000
vt 0.8119 0.1524 0.0000
vt 0.7604 0.1524 0.0000
vt 0.8119 0.1821 0.0000
vt 0.0092 0.1821 0.0000
vt 0.0092 0.1524 0.0000
vt 0.7604 0.1267 0.0000
vt 0.0092 0.1267 0.0000
vt 0.0092 0.2376 0.0000
vt 0.7604 0.2079 0.0000
vt 0.0092 0.2079 0.0000
vt 0.7604 0.2376 0.0000
vt 1.1523 0.1847 0.0000
vt 0.0100 0.2042 0.0000
vt 1.1523 0.2042 0.0000
vt 0.0100 0.1847 0.0000
vt 1.1523 0.1702 0.0000
vt 0.0100 0.1507 0.0000
vt 0.0100 0.1702 0.0000
vt 1.1523 0.1507 0.0000
vt 1.1523 0.2186 0.0000
vt 0.0100 0.2186 0.0000
vt 1.5898 0.0569 0.0000
vt 1.6413 0.0271 0.0000
vt 1.5898 0.0271 0.0000
vt 1.6413 0.0569 0.0000
vt 0.8386 0.0569 0.0000
vt 0.8386 0.0271 0.0000
vt 1.5898 0.0014 0.0000
vt 0.8386 0.0014 0.0000
vt 0.8386 0.1124 0.0000
vt 1.5898 0.0826 0.0000
vt 0.8386 0.0826 0.0000
vt 1.5898 0.1124 0.0000
vt 2.8782 0.4528 0.0000
vt 2.8991 0.4233 0.0000
vt 2.8782 0.4233 0.0000
vt 2.8991 0.4528 0.0000
vt 0.0260 0.4529 0.0000
vt 0.0051 0.4233 0.0000
vt 0.0051 0.4529 0.0000
vt 0.0260 0.4233 0.0000
vt 0.0260 0.4633 0.0000
vt 2.8783 0.4633 0.0000
vt 0.0260 0.4929 0.0000
vt 2.8783 0.4929 0.0000
vt 2.8782 0.4128 0.0000
vt 0.0260 0.4128 0.0000
vt 0.0260 0.4528 0.0000
vt 2.8782 0.4633 0.0000
vt 2.8782 0.4929 0.0000
vt 2.9348 0.3474 0.0000
vt 2.8953 0.3770 0.0000
vt 2.9348 0.3770 0.0000
vt 2.8953 0.3474 0.0000
vt 0.0032 0.3474 0.0000
vt 0.0426 0.3770 0.0000
vt 0.0426 0.3474 0.0000
vt 0.0032 0.3770 0.0000
vt 2.8953 0.3277 0.0000
vt 0.0426 0.3277 0.0000
vt 0.0426 0.3967 0.0000
vt 2.8953 0.3967 0.0000
vt 0.0092 0.0569 0.0000
vt 0.0092 0.0271 0.0000
vt 0.7604 0.0014 0.0000
vt 0.0092 0.0014 0.0000
vt 0.0092 0.1124 0.0000
vt 0.7604 0.0826 0.0000
vt 0.0092 0.0826 0.0000
vt 0.7604 0.1124 0.0000
# 117 texture coords

g Mesh_1619
usemtl Material__4907
s off
f 1/1/1 2/2/1 3/3/1 
f 2/2/1 1/1/1 4/4/1 
f 5/5/2 6/3/2 7/1/2 
f 6/3/2 5/5/2 8/6/2 
f 1/7/3 7/1/3 4/8/3 
f 7/1/3 1/7/3 5/5/3 
f 4/4/4 6/3/4 2/2/4 
f 6/3/4 4/4/4 7/1/4 
f 2/9/5 8/6/5 3/10/5 
f 8/6/5 2/9/5 6/3/5 
f 3/11/6 5/5/6 1/12/6 
f 5/5/7 3/11/7 8/6/7 
f 9/13/8 10/14/8 11/15/8 
f 10/14/8 9/13/8 12/16/8 
f 13/17/5 14/18/5 15/19/5 
f 14/18/5 13/17/5 16/20/5 
f 17/21/3 18/22/3 19/23/3 
f 18/22/3 17/21/3 20/24/3 
f 13/25/9 19/23/9 16/26/9 
f 19/23/9 13/25/9 17/21/9 
f 21/27/5 22/28/5 23/29/5 
f 22/28/5 21/27/5 24/30/5 
f 25/31/3 26/32/3 27/33/3 
f 26/32/3 25/31/3 28/34/3 
f 21/27/10 27/33/10 24/30/10 
f 27/33/10 21/27/10 25/31/10 
f 22/28/8 28/35/8 23/29/8 
f 28/35/8 22/28/8 26/36/8 
f 29/37/3 30/38/3 31/39/3 
f 30/38/3 29/37/3 32/40/3 
f 33/41/11 32/40/11 29/37/11 
f 32/40/11 33/41/11 34/42/11 
f 35/43/5 34/42/5 33/41/5 
f 34/42/5 35/43/5 36/44/5 
f 31/39/12 36/45/12 35/46/12 
f 36/45/12 31/39/12 30/38/12 
f 37/47/8 38/48/8 39/49/8 
f 38/48/8 37/47/8 40/50/8 
f 41/51/3 39/49/3 42/52/3 
f 39/49/3 41/51/3 37/47/3 
f 42/52/13 38/53/13 43/54/13 
f 38/53/13 42/52/13 39/49/13 
f 43/55/5 40/56/5 44/57/5 
f 40/56/5 43/55/5 38/58/5 
f 44/57/14 37/47/14 41/51/14 
f 37/47/14 44/57/14 40/56/14 
f 45/17/5 46/18/5 47/19/5 
f 46/18/5 45/17/5 48/20/5 
f 49/21/3 50/22/3 51/23/3 
f 50/22/3 49/21/3 52/24/3 
f 45/25/9 51/23/9 48/26/9 
f 51/23/9 45/25/9 49/21/9 
f 53/59/5 54/60/5 55/61/5 
f 54/60/5 53/59/5 56/62/5 
f 57/63/3 58/64/3 59/65/3 
f 58/64/3 57/63/3 60/66/3 
f 53/59/10 59/65/10 56/62/10 
f 59/65/10 53/59/10 57/63/10 
f 54/60/8 60/67/8 55/61/8 
f 60/67/8 54/60/8 58/68/8 
f 61/37/3 62/38/3 63/39/3 
f 62/38/3 61/37/3 64/40/3 
f 65/41/11 64/40/11 61/37/11 
f 64/40/11 65/41/11 66/42/11 
f 67/43/5 66/42/5 65/41/5 
f 66/42/5 67/43/5 68/44/5 
f 63/39/12 68/45/12 67/46/12 
f 68/45/12 63/39/12 62/38/12 
f 69/47/8 70/48/8 71/49/8 
f 70/48/8 69/47/8 72/50/8 
f 73/51/3 71/49/3 74/52/3 
f 71/49/3 73/51/3 69/47/3 
f 74/52/13 70/53/13 75/54/13 
f 70/53/13 74/52/13 71/49/13 
f 75/55/5 72/56/5 76/57/5 
f 72/56/5 75/55/5 70/58/5 
f 76/57/14 69/47/14 73/51/14 
f 69/47/14 76/57/14 72/56/14 
f 77/17/5 78/18/5 79/19/5 
f 78/18/5 77/17/5 80/20/5 
f 81/21/3 82/22/3 83/23/3 
f 82/22/3 81/21/3 84/24/3 
f 77/25/9 83/23/9 80/26/9 
f 83/23/9 77/25/9 81/21/9 
f 85/59/5 86/60/5 87/61/5 
f 86/60/5 85/59/5 88/62/5 
f 89/63/3 90/64/3 91/65/3 
f 90/64/3 89/63/3 92/66/3 
f 85/59/10 91/65/10 88/62/10 
f 91/65/10 85/59/10 89/63/10 
f 86/60/8 92/67/8 87/61/8 
f 92/67/8 86/60/8 90/68/8 
f 93/37/3 94/38/3 95/39/3 
f 94/38/3 93/37/3 96/40/3 
f 97/41/11 96/40/11 93/37/11 
f 96/40/11 97/41/11 98/42/11 
f 99/43/5 98/42/5 97/41/5 
f 98/42/5 99/43/5 100/44/5 
f 95/39/12 100/45/12 99/46/12 
f 100/45/12 95/39/12 94/38/12 
f 101/69/8 102/70/8 103/71/8 
f 102/70/8 101/69/8 104/72/8 
f 105/73/3 103/71/3 106/74/3 
f 103/71/3 105/73/3 101/69/3 
f 106/74/13 102/75/13 107/76/13 
f 102/75/13 106/74/13 103/71/13 
f 107/77/5 104/78/5 108/79/5 
f 104/78/5 107/77/5 102/80/5 
f 108/79/14 101/69/14 105/73/14 
f 101/69/14 108/79/14 104/78/14 
f 109/17/5 110/18/5 111/19/5 
f 110/18/5 109/17/5 112/20/5 
f 113/21/3 114/22/3 115/23/3 
f 114/22/3 113/21/3 116/24/3 
f 109/25/9 115/23/9 112/26/9 
f 115/23/9 109/25/9 113/21/9 
f 117/27/5 118/28/5 119/29/5 
f 118/28/5 117/27/5 120/30/5 
f 121/31/3 122/32/3 123/33/3 
f 122/32/3 121/31/3 124/34/3 
f 117/27/10 123/33/10 120/30/10 
f 123/33/10 117/27/10 121/31/10 
f 118/28/8 124/35/8 119/29/8 
f 124/35/8 118/28/8 122/36/8 
f 125/37/3 126/38/3 127/39/3 
f 126/38/3 125/37/3 128/40/3 
f 129/41/11 128/40/11 125/37/11 
f 128/40/11 129/41/11 130/42/11 
f 131/43/5 130/42/5 129/41/5 
f 130/42/5 131/43/5 132/44/5 
f 127/39/12 132/45/12 131/46/12 
f 132/45/12 127/39/12 126/38/12 
f 133/47/8 134/48/8 135/49/8 
f 134/48/8 133/47/8 136/50/8 
f 137/51/3 135/49/3 138/52/3 
f 135/49/3 137/51/3 133/47/3 
f 138/52/13 134/53/13 139/54/13 
f 134/53/13 138/52/13 135/49/13 
f 139/55/5 136/56/5 140/57/5 
f 136/56/5 139/55/5 134/58/5 
f 140/57/14 133/47/14 137/51/14 
f 133/47/14 140/57/14 136/56/14 
f 141/17/5 142/18/5 143/19/5 
f 142/18/5 141/17/5 144/20/5 
f 145/21/3 146/22/3 147/23/3 
f 146/22/3 145/21/3 148/24/3 
f 141/25/9 147/23/9 144/26/9 
f 147/23/9 141/25/9 145/21/9 
f 149/27/5 150/28/5 151/29/5 
f 150/28/5 149/27/5 152/30/5 
f 153/31/3 154/32/3 155/33/3 
f 154/32/3 153/31/3 156/34/3 
f 149/27/10 155/33/10 152/30/10 
f 155/33/10 149/27/10 153/31/10 
f 150/28/8 156/35/8 151/29/8 
f 156/35/8 150/28/8 154/36/8 
f 157/37/3 158/38/3 159/39/3 
f 158/38/3 157/37/3 160/40/3 
f 161/41/11 160/40/11 157/37/11 
f 160/40/11 161/41/11 162/42/11 
f 163/43/5 162/42/5 161/41/5 
f 162/42/5 163/43/5 164/44/5 
f 159/39/12 164/45/12 163/46/12 
f 164/45/12 159/39/12 158/38/12 
f 165/81/5 166/82/5 167/83/5 
f 166/82/5 165/81/5 168/84/5 
f 169/85/3 170/86/3 171/87/3 
f 170/86/3 169/85/3 172/88/3 
f 165/81/10 171/89/10 168/90/10 
f 171/89/10 165/81/10 169/85/10 
f 168/90/13 170/91/13 166/92/13 
f 170/91/13 168/90/13 171/89/13 
f 166/93/8 172/88/8 167/83/8 
f 172/88/8 166/93/8 170/94/8 
f 167/83/14 169/85/14 165/81/14 
f 169/85/14 167/83/14 172/88/14 
f 173/81/5 174/82/5 175/83/5 
f 174/82/5 173/81/5 176/84/5 
f 177/95/3 178/86/3 179/87/3 
f 178/86/3 177/95/3 180/88/3 
f 173/81/10 179/89/10 176/96/10 
f 179/89/10 173/81/10 177/95/10 
f 176/96/13 178/91/13 174/97/13 
f 178/91/13 176/96/13 179/89/13 
f 174/93/8 180/88/8 175/83/8 
f 180/88/8 174/93/8 178/94/8 
f 175/83/14 177/95/14 173/81/14 
f 177/95/14 175/83/14 180/88/14 
f 181/98/5 182/99/5 183/100/5 
f 182/99/5 181/98/5 184/101/5 
f 185/102/3 186/103/3 187/104/3 
f 186/103/3 185/102/3 188/105/3 
f 181/106/10 187/104/10 184/101/10 
f 187/104/10 181/106/10 185/107/10 
f 184/101/13 186/103/13 182/99/13 
f 186/103/13 184/101/13 187/104/13 
f 182/99/8 188/108/8 183/109/8 
f 188/108/8 182/99/8 186/103/8 
f 189/81/5 190/82/5 191/83/5 
f 190/82/5 189/81/5 192/84/5 
f 193/85/3 194/86/3 195/87/3 
f 194/86/3 193/85/3 196/88/3 
f 189/81/10 195/89/10 192/90/10 
f 195/89/10 189/81/10 193/85/10 
f 192/90/13 194/91/13 190/92/13 
f 194/91/13 192/90/13 195/89/13 
f 190/93/8 196/88/8 191/83/8 
f 196/88/8 190/93/8 194/94/8 
f 191/83/14 193/85/14 189/81/14 
f 193/85/14 191/83/14 196/88/14 
f 197/110/3 11/15/3 198/111/3 
f 11/15/3 197/110/3 9/13/3 
f 198/111/13 10/112/13 199/113/13 
f 10/112/13 198/111/13 11/15/13 
f 199/114/5 12/115/5 200/116/5 
f 12/115/5 199/114/5 10/117/5 
f 200/116/14 9/13/14 197/110/14 
f 9/13/14 200/116/14 12/115/14 
# 0 polygons - 218 triangles