# Blender v2.76 (sub 0) OBJ File: ''
# www.blender.org
mtllib destroy_wall14.mtl
o pCube232.001
v -7.947212 1.243926 -0.566658
v -7.795525 1.177021 -0.379015
v -7.484642 1.355555 -0.566658
v -6.798454 2.048491 -0.566656
v -7.190941 2.021375 -0.054951
v -7.317451 2.014517 -0.000004
v -7.768700 1.718922 -0.000004
v -7.926399 1.263479 -0.000004
v -7.999992 1.197283 -0.000004
v -7.999992 1.059598 -0.255600
v -7.999992 1.231187 -0.566658
v 3.999992 3.767851 -0.566652
v 3.365166 4.186360 -0.566652
v 3.999992 4.186360 -0.318935
v 4.357948 4.186360 -0.179260
v 4.397301 3.505929 -0.566652
v 5.675850 2.622516 0.000002
v 5.233147 2.330634 -0.566652
v 4.563652 4.186360 0.000002
v 6.292931 2.191903 0.000002
v 6.330009 1.565232 -0.566652
v 7.999992 0.915264 -0.566652
v 6.950584 1.132180 -0.566652
v 7.999992 0.828622 -0.162287
v 7.999992 1.006793 0.000002
v 7.999992 0.996400 -0.004044
v 7.990303 1.007450 0.000002
v -7.999992 0.061439 -0.000004
v -3.999992 0.061439 0.000000
v -3.999992 1.474516 0.000000
v -4.113487 1.471681 0.000000
v -4.200188 1.422581 0.000000
v -4.504570 1.466077 0.000000
v -6.204933 2.066557 -0.000002
v -6.384926 2.067834 -0.566656
v -4.892036 1.540625 -0.566654
v -4.273247 1.491192 -0.566654
v -3.999992 1.439971 -0.566654
v -3.999992 0.061439 -0.566654
v -7.999992 0.061439 -0.566658
v 7.999992 0.061439 -0.566652
v 3.999992 0.061439 -0.566652
v 3.999992 4.186360 0.000002
v 3.999992 0.061439 0.000002
v 7.999992 0.061439 0.000002
v -0.070610 2.591671 -0.566652
v -0.000008 2.561386 -0.566652
v -0.000008 0.061439 -0.566652
v -2.660027 1.188799 -0.566654
v -2.125511 1.302061 -0.566654
v -0.713707 1.601217 -0.566652
v -0.625618 2.489044 0.000002
v -0.755684 2.546384 0.000002
v -1.064705 2.070458 0.000002
v -1.890175 1.895545 0.000000
v -3.860695 1.477997 0.000000
v -0.000008 0.061439 0.000002
v -0.000008 2.220685 0.000002
v 0.181770 2.483415 -0.566652
v 1.524895 2.807552 -0.566652
v 1.987434 2.919178 -0.566652
v 3.242287 4.186360 -0.566652
v 0.139824 2.160707 0.000002
v 2.837395 4.186360 0.000002
v 2.383675 3.728184 0.000002
v 1.703392 3.282557 0.000002
v 1.545692 2.827109 0.000002
v 1.048622 2.380030 0.000002
v -0.692345 2.549520 -0.052988
v -4.139137 1.326419 -0.096500
v 1.676567 2.740649 -0.379015
vt 0.496749 1.691060
vt 0.496749 1.715749
vt 0.531421 1.715749
vt 0.944494 1.748858
vt 0.982604 1.609790
vt 0.982604 1.525499
vt 0.919209 1.611263
vt 0.917656 1.591271
vt 0.935776 1.523228
vt 0.496749 1.780909
vt 0.475589 1.747468
vt 0.468353 1.742772
vt 0.473945 1.715749
vt 0.492793 1.688243
vt 0.496750 1.598036
vt 0.496749 1.681424
vt 0.598510 1.620757
vt 0.553999 1.563905
vt 0.352468 1.751849
vt 0.439175 1.715749
vt 0.339362 1.715749
vt 0.338513 1.692261
vt 0.338401 1.693035
vt 0.339276 1.691918
vt 0.317548 1.386185
vt 0.344944 1.375495
vt 0.344944 1.399904
vt 0.301805 1.399904
vt 0.430928 1.574851
vt 0.384176 1.634568
vt 0.496749 1.693455
vt 0.496749 1.609282
vt 0.943837 1.918656
vt 0.982604 1.953695
vt 0.982604 1.629116
vt 0.950404 1.869613
vt 0.723586 1.791761
vt 0.672879 1.715749
vt 0.672879 1.769692
vt 0.681068 1.705291
vt 0.706156 1.715749
vt 0.672879 1.702693
vt 0.653873 1.691473
vt 0.664346 1.697655
vt 0.387736 1.529604
vt 0.395070 1.518006
vt 0.395069 1.527252
vt 0.426716 1.715749
vt 0.908458 1.625808
vt 0.883260 1.717760
vt 0.912912 1.864103
vt 0.320618 1.635570
vt 0.320619 1.642345
vt 0.351658 1.662693
vt 0.358596 1.667242
vt 0.396074 1.619371
vt 0.383552 1.611162
vt 0.387055 1.613459
vt 0.925307 1.805930
vt 0.849010 1.766769
vt 0.915434 1.807629
vt 0.849010 1.836556
vt 0.877369 1.851112
vt 0.539370 1.715749
vt 0.402896 1.556931
vt 0.339361 1.590050
vt 0.409394 1.553461
vt 0.096798 1.356536
vt 0.127786 1.399904
vt 0.038808 1.399904
vt 0.038808 1.375495
vt 0.087394 1.356536
vt 0.747863 1.147158
vt 0.675932 1.147158
vt 0.647860 1.175506
vt 0.747863 1.402369
vt 0.605771 1.203077
vt 0.596014 1.231256
vt 0.565260 1.258916
vt 0.509032 1.272486
vt 0.500381 1.268776
vt 0.500381 1.402369
vt 0.623345 1.225560
vt 0.700983 1.147158
vt 0.708586 1.147158
vt 0.747863 1.173052
vt 0.594727 1.232466
vt 0.511628 1.252520
vt 0.500381 1.247696
vt 0.461674 1.252172
vt 0.453627 1.248624
vt 0.434508 1.278070
vt 0.383436 1.288892
vt 0.261519 1.314726
vt 0.252900 1.314941
vt 0.252900 1.402369
vt 0.456224 1.307102
vt 0.496013 1.245822
vt 0.368875 1.325611
vt 0.252900 1.317079
vt 0.335805 1.332619
vt 0.822901 1.225045
vt 0.823168 1.278159
vt 0.785796 1.278159
vt 0.823168 1.224455
vt 0.812465 1.234576
vt 0.785796 1.229654
vt 0.782737 1.147158
vt 0.851549 1.243914
vt 0.889728 1.270556
vt 0.994745 1.343839
vt 0.995345 1.343880
vt 0.995345 1.402369
vt 0.772444 1.189257
vt 0.824159 1.261973
vt 0.892022 1.309329
vt 0.930417 1.336122
vt 0.995345 1.349543
vt 0.785796 1.213633
vt 0.802653 1.221455
vt 0.823168 1.211707
vt 0.079758 1.279429
vt 0.105343 1.278233
vt 0.197709 1.310851
vt 0.037303 1.322302
vt 0.235994 1.313910
vt 0.008684 1.329208
vt 0.005418 1.329996
vt 0.005418 1.402369
vt 0.221682 1.315464
vt 0.116479 1.278312
vt 0.047647 1.281531
vt 0.019728 1.299820
vt 0.009971 1.327998
vt 0.245878 1.315117
vt 0.240514 1.318155
vt 0.005418 1.332094
vt 0.672879 1.573832
vt 0.672879 1.515765
vt 0.652956 1.501467
vt 0.712365 1.549084
vt 0.775455 1.509541
vt 0.709864 1.513521
vn -0.206700 0.856700 0.472600
vn -0.633600 0.627400 -0.452700
vn -0.358300 0.546900 -0.756600
vn -0.877100 0.303700 -0.372100
vn -0.620800 0.690200 -0.371800
vn 0.431800 0.618900 -0.656100
vn 0.198100 0.958400 0.205400
vn 0.024600 0.362600 -0.931600
vn 0.000000 1.000000 0.000000
vn -0.151200 0.713300 -0.684300
vn 0.176900 0.943500 0.280200
vn 0.075700 0.947600 0.310500
vn 0.105300 0.736900 -0.667700
vn -0.318800 0.562900 -0.762600
vn -0.013900 0.555000 -0.831700
vn 0.355500 0.806400 0.472700
vn 0.345100 0.804400 0.483600
vn 0.345000 0.804300 0.483800
vn 0.345000 0.804400 0.483600
vn -0.062400 0.000000 -0.998100
vn -0.046700 0.998800 0.017100
vn 0.331200 0.937900 -0.103100
vn -0.601900 0.390800 -0.696400
vn -0.602000 0.390800 -0.696400
vn 0.000000 0.000000 1.000000
vn 0.000000 0.000000 -1.000000
vn 1.000000 0.000000 0.000000
vn -1.000000 0.000000 0.000000
vn 0.431800 0.618800 -0.656200
vn 0.595200 0.423300 -0.683000
vn 0.318300 0.482900 -0.815800
usemtl brokenWalls.014
s off
f 1/1/1 2/2/1 3/3/1
f 4/4/2 3/5/2 2/6/2 5/7/2
f 6/8/3 5/7/3 2/6/3 7/9/3
f 7/10/4 2/2/4 8/11/4
f 9/12/5 8/11/5 2/2/5 10/13/5
f 1/1/1 11/14/1 10/13/1 2/2/1
f 20/15/6 21/16/6 18/17/6 17/18/6
f 22/19/7 23/20/7 24/21/7
f 25/22/8 26/23/8 27/24/8
f 15/25/9 14/26/9 43/27/9 19/28/9
f 54/29/10 51/30/10 50/31/10 55/32/10
f 37/33/11 70/34/11 49/35/11 38/36/11
f 36/37/12 70/38/12 37/39/12
f 32/40/13 70/38/13 33/41/13
f 31/42/14 70/38/14 32/40/14
f 56/43/15 70/38/15 31/42/15 30/44/15
f 60/1/1 71/2/1 61/3/1
f 53/45/16 52/46/16 69/47/16
f 67/11/5 71/2/5 68/48/5
f 66/10/4 71/2/4 67/11/4
f 65/49/3 71/6/3 66/9/3
f 71/6/2 65/49/2 64/50/2
f 71/6/2 64/50/2 62/51/2
f 61/5/2 71/6/2 62/51/2
f 69/52/17 52/53/17 58/54/17
f 69/52/18 58/54/18 63/55/18
f 69/52/19 63/55/19 59/56/19
f 46/57/19 69/52/19 59/56/19
f 47/58/20 46/57/20 59/56/20
f 59/56/1 63/55/1 68/48/1
f 59/56/1 68/48/1 71/2/1
f 59/56/1 71/2/1 60/1/1
f 6/59/21 34/60/21 5/61/21
f 5/61/21 34/60/21 35/62/21
f 4/63/21 5/61/21 35/62/21
f 34/60/22 33/41/22 70/38/22
f 35/62/22 34/60/22 70/38/22
f 35/62/22 70/38/22 36/37/22
f 70/38/10 56/43/10 55/32/10
f 70/38/10 55/32/10 50/31/10
f 49/64/10 70/38/10 50/31/10
f 69/65/23 46/66/23 51/30/23
f 53/67/24 69/65/24 51/30/24
f 54/29/23 53/67/23 51/30/23
f 62/68/9 64/69/9 43/70/9
f 62/68/9 43/70/9 14/71/9
f 62/68/9 14/71/9 13/72/9
f 43/73/25 64/74/25 65/75/25
f 44/76/25 43/73/25 65/75/25
f 44/76/25 65/75/25 66/77/25
f 44/76/25 66/77/25 67/78/25
f 44/76/25 67/78/25 68/79/25
f 44/76/25 68/79/25 63/80/25
f 63/80/25 58/81/25 57/82/25
f 44/76/25 63/80/25 57/82/25
f 61/83/26 62/84/26 13/85/26
f 61/83/26 13/85/26 12/86/26
f 61/83/26 12/86/26 42/76/26
f 60/87/26 61/83/26 42/76/26
f 59/88/26 60/87/26 42/76/26
f 48/82/26 47/89/26 59/88/26
f 48/82/26 59/88/26 42/76/26
f 52/90/25 53/91/25 54/92/25
f 58/81/25 52/90/25 54/92/25
f 57/82/25 58/81/25 54/92/25
f 57/82/25 54/92/25 55/93/25
f 57/82/25 55/93/25 56/94/25
f 57/82/25 56/94/25 30/95/25
f 57/82/25 30/95/25 29/96/25
f 51/97/26 46/98/26 47/89/26
f 51/97/26 47/89/26 48/82/26
f 50/99/26 51/97/26 48/82/26
f 39/96/26 38/100/26 49/101/26
f 49/101/26 50/99/26 48/82/26
f 39/96/26 49/101/26 48/82/26
f 26/102/27 45/103/27 41/104/27
f 25/105/27 45/103/27 26/102/27
f 24/106/27 26/102/27 41/104/27
f 22/107/27 24/106/27 41/104/27
f 19/108/25 43/73/25 44/76/25
f 17/109/25 19/108/25 44/76/25
f 20/110/25 17/109/25 44/76/25
f 27/111/25 20/110/25 44/76/25
f 25/112/25 27/111/25 44/76/25
f 45/113/25 25/112/25 44/76/25
f 42/76/26 12/86/26 16/114/26
f 42/76/26 16/114/26 18/115/26
f 42/76/26 18/115/26 21/116/26
f 42/76/26 21/116/26 23/117/26
f 42/76/26 23/117/26 22/118/26
f 42/76/26 22/118/26 41/113/26
f 40/103/28 28/104/28 9/119/28
f 40/103/28 9/119/28 10/120/28
f 40/103/28 10/120/28 11/121/28
f 4/122/26 35/123/26 36/124/26
f 3/125/26 4/122/26 36/124/26
f 3/125/26 36/124/26 37/126/26
f 3/125/26 37/126/26 38/100/26
f 3/125/26 38/100/26 39/96/26
f 1/127/26 3/125/26 39/96/26
f 11/128/26 1/127/26 39/96/26
f 40/129/26 11/128/26 39/96/26
f 33/130/25 34/131/25 6/132/25
f 33/130/25 6/132/25 7/133/25
f 33/130/25 7/133/25 8/134/25
f 29/96/25 30/95/25 31/135/25
f 29/96/25 31/135/25 32/136/25
f 32/136/25 33/130/25 8/134/25
f 29/96/25 32/136/25 8/134/25
f 29/96/25 8/134/25 9/137/25
f 29/96/25 9/137/25 28/129/25
f 21/16/6 20/15/6 27/24/6
f 23/20/29 21/16/29 27/24/29
f 24/21/6 23/20/6 27/24/6
f 24/21/6 27/24/6 26/23/6
f 16/138/30 15/139/30 19/140/30
f 16/138/30 19/140/30 17/18/30
f 18/17/30 16/138/30 17/18/30
f 12/141/31 13/142/31 14/143/31
f 12/141/31 14/143/31 15/139/31
f 12/141/31 15/139/31 16/138/31
