# Blender v2.79 (sub 0) OBJ File: ''
# www.blender.org
mtllib vaultlocker.mtl
o LockerVault01:0
v 1.384779 13.144028 -2.184199
v 1.384779 13.144028 -1.964043
v -2.230818 13.144028 -2.184200
v -2.230818 13.144028 -1.964046
v -2.230818 -0.034634 -2.184200
v -2.230818 -0.034634 -1.964046
v 1.384779 -0.034634 -2.184199
v 1.384779 -0.034634 -1.964043
v 1.384779 -0.034634 -1.964043
v -2.230818 -0.034634 -1.964046
v 1.751283 -0.312955 1.765074
v -2.652024 -0.312955 1.765075
v -2.652024 -0.312955 1.765075
v -2.652024 13.335602 1.765075
v 1.751283 -0.312955 1.765074
v 1.751283 13.335602 1.765074
v 1.751283 -0.312955 1.765074
v 1.751283 13.335602 1.765074
v 1.384779 -0.034634 -1.964043
v 1.384779 13.144028 -1.964043
v -2.230818 -0.034634 -1.964046
v -2.230818 13.144028 -1.964046
v -2.652024 -0.312955 1.765075
v -2.652024 13.335602 1.765075
v -2.230818 13.144028 -1.964046
v 1.384779 13.144028 -1.964043
v -2.652024 13.335602 1.765075
v 1.751283 13.335602 1.765074
v 1.384779 13.144028 -1.964043
v 1.384779 13.144028 -2.184199
v 1.384779 -0.034634 -1.964043
v 1.384779 -0.034634 -2.184199
v -2.230818 -0.034634 -1.964046
v -2.230818 -0.034634 -2.184200
v -2.230818 13.144028 -1.964046
v -2.230818 13.144028 -2.184200
v 1.904940 13.583618 -1.688036
v -2.730421 13.583618 -1.665292
v 1.904940 13.583618 1.896066
v -2.732141 13.583618 1.896067
v 1.904940 13.583618 -1.921117
v 1.617857 13.583618 -2.184199
v 1.384779 13.583616 -2.184199
v -2.230818 13.583618 -2.184200
v -2.463899 13.583618 -2.184200
v -2.730421 13.583618 -1.897115
v -2.732141 -0.833979 1.896067
v 1.904940 -0.833979 1.896066
v -2.732141 -0.034634 1.896067
v 1.904940 -0.034634 1.896066
v 1.904940 13.144028 1.896066
v -2.732141 13.144028 1.896067
v 1.904940 13.583618 1.896066
v -2.732141 13.583618 1.896067
v -2.730421 -0.833979 -1.664040
v -2.732141 -0.833979 1.896067
v -2.730421 -0.034634 -1.664040
v -2.732141 -0.034634 1.896067
v -2.732141 13.144028 1.896067
v -2.730421 13.144028 -1.664040
v -2.732141 13.583618 1.896067
v -2.730421 13.583618 -1.665292
v -2.730421 -0.034634 -1.897118
v -2.730421 13.144028 -1.897118
v -2.463899 -0.034634 -2.184202
v -2.463899 13.144028 -2.184202
v -2.230818 -0.034634 -2.184200
v -2.230818 13.144028 -2.184200
v 1.384779 -0.034634 -2.184199
v 1.384779 -0.833979 -2.184199
v -2.230818 -0.833979 -2.184200
v -2.463899 -0.833979 -2.184202
v -2.730421 -0.833979 -1.897118
v -2.730421 -0.833979 -1.664040
v -2.730421 -0.034634 -1.664040
v -2.730421 13.144028 -1.664040
v -2.730421 13.583618 -1.665292
v -2.730421 13.583618 -1.897115
v -2.463899 13.583618 -2.184200
v -2.230818 13.583618 -2.184200
v 1.384779 13.583616 -2.184199
v 1.384779 13.144028 -2.184199
v 1.617857 13.144028 -2.184199
v 1.617857 13.583618 -2.184199
v 1.904940 13.144028 -1.921117
v 1.904940 13.583618 -1.921117
v 1.904940 13.144028 -1.688036
v 1.904940 13.583618 -1.688036
v 1.904940 -0.833979 1.896066
v 1.904940 -0.833979 -1.688036
v 1.904940 -0.034634 1.896066
v 1.904940 -0.034634 -1.688036
v 1.904940 -0.833979 -1.921117
v 1.904940 -0.034634 -1.921117
v 1.617857 -0.833979 -2.184199
v 1.617857 -0.034634 -2.184199
v 1.904940 13.144028 1.896066
v 1.904940 13.583618 1.896066
vt 0.594241 0.435067
vt 0.605091 0.435067
vt 0.594241 0.613249
vt 0.605091 0.613249
vt 0.592376 0.613249
vt 0.581527 0.613249
vt 0.592376 0.435067
vt 0.581526 0.435067
vt 0.210794 0.556602
vt 0.209579 0.791878
vt 0.026217 0.556602
vt 0.026217 0.791970
vt 0.879118 0.254029
vt 0.879118 0.983578
vt 0.643750 0.254029
vt 0.643750 0.983578
vt 0.851667 0.252801
vt 0.851667 0.982350
vt 0.667089 0.252801
vt 0.667089 0.982350
vt 0.854134 0.254029
vt 0.854134 0.983578
vt 0.670772 0.254029
vt 0.670773 0.983578
vt 0.026205 0.451245
vt 0.024989 0.215969
vt 0.209567 0.451337
vt 0.209567 0.215969
vt 0.595355 0.965194
vt 0.580320 0.965194
vt 0.595355 0.065192
vt 0.580320 0.065192
vt 0.580315 0.065192
vt 0.595350 0.065192
vt 0.580315 0.965194
vt 0.595350 0.965194
vt 0.880100 0.195852
vt 0.635880 0.194721
vt 0.880100 0.007159
vt 0.635880 0.007159
vt 0.880100 0.208123
vt 0.864985 0.221974
vt 0.852715 0.221974
vt 0.662363 0.221974
vt 0.650092 0.221974
vt 0.636242 0.206859
vt 0.637199 0.238169
vt 0.881031 0.238169
vt 0.637199 0.280185
vt 0.881031 0.280185
vt 0.881031 0.972903
vt 0.637199 0.972903
vt 0.881031 0.996009
vt 0.637199 0.996010
vt 0.005971 0.006586
vt 0.251748 0.006586
vt 0.005971 0.061401
vt 0.251748 0.061401
vt 0.251748 0.965116
vt 0.005971 0.965116
vt 0.251748 0.995261
vt 0.005971 0.995261
vt 0.608297 0.061401
vt 0.608297 0.965116
vt 0.577941 0.061401
vt 0.577942 0.965116
vt 0.561982 0.061401
vt 0.561982 0.965116
vt 0.314092 0.061401
vt 0.314092 0.006586
vt 0.561982 0.006586
vt 0.577941 0.006586
vt 0.608297 0.006586
vt 0.624280 0.006586
vt 0.624280 0.061401
vt 0.624280 0.965116
vt 0.624280 0.995261
vt 0.608297 0.995261
vt 0.577942 0.995261
vt 0.561982 0.995261
vt 0.314092 0.995261
vt 0.314092 0.965116
vt 0.298109 0.965116
vt 0.298109 0.995261
vt 0.267754 0.965116
vt 0.267754 0.995261
vt 0.251748 0.965116
vt 0.251748 0.995261
vt 0.005971 0.006586
vt 0.251748 0.006586
vt 0.005971 0.061401
vt 0.251748 0.061401
vt 0.267754 0.006586
vt 0.267754 0.061401
vt 0.298109 0.006586
vt 0.298109 0.061401
vt 0.005971 0.965116
vt 0.005971 0.995261
vn 0.0000 -1.0000 0.0000
vn 0.0000 1.0000 0.0000
vn 0.0000 0.9972 0.0744
vn 0.0000 0.0000 -1.0000
vn -0.9952 0.0000 0.0978
vn 0.9937 0.0000 0.1122
vn 0.0000 -0.9987 0.0513
vn -1.0000 0.0000 0.0000
vn 1.0000 0.0000 0.0000
vn 0.0000 0.0000 1.0000
vn -1.0000 0.0000 -0.0005
vn -0.9308 0.0000 -0.3655
vn -0.3998 0.0000 -0.9166
vn 0.3624 0.0000 -0.9320
vn 0.9153 0.0000 -0.4027
usemtl noname
s 1
f 1/1/1 2/2/1 3/3/1
f 2/2/1 4/4/1 3/3/1
f 5/5/2 6/6/2 7/7/2
f 6/6/2 8/8/2 7/7/2
f 9/9/3 10/10/3 11/11/3
f 10/10/3 12/12/3 11/11/3
f 13/13/4 14/14/4 15/15/4
f 14/14/4 16/16/4 15/15/4
f 17/17/5 18/18/5 19/19/5
f 18/18/5 20/20/5 19/19/5
f 21/21/6 22/22/6 23/23/6
f 22/22/6 24/24/6 23/23/6
f 25/25/7 26/26/7 27/27/7
f 26/26/7 28/28/7 27/27/7
f 29/29/8 30/30/8 31/31/8
f 30/30/8 32/32/8 31/31/8
f 33/33/9 34/34/9 35/35/9
f 34/34/9 36/36/9 35/35/9
f 37/37/2 38/38/2 39/39/2
f 38/38/2 40/40/2 39/39/2
f 41/41/2 42/42/2 37/37/2
f 42/42/2 43/43/2 37/37/2
f 43/43/2 44/44/2 37/37/2
f 37/37/2 44/44/2 38/38/2
f 44/44/2 45/45/2 38/38/2
f 38/38/2 45/45/2 46/46/2
f 47/47/10 48/48/10 49/49/10
f 48/48/10 50/50/10 49/49/10
f 50/50/10 51/51/10 49/49/10
f 49/49/10 51/51/10 52/52/10
f 51/51/10 53/53/10 52/52/10
f 52/52/10 53/53/10 54/54/10
f 55/55/11 56/56/11 57/57/11
f 56/56/11 58/58/11 57/57/11
f 58/58/11 59/59/11 57/57/11
f 57/57/11 59/59/11 60/60/11
f 59/59/11 61/61/11 60/60/11
f 60/60/11 61/61/11 62/62/11
f 63/63/12 64/64/12 65/65/13
f 64/64/12 66/66/13 65/65/13
f 65/65/13 66/66/13 67/67/4
f 66/66/13 68/68/4 67/67/4
f 69/69/4 70/70/4 67/67/4
f 70/70/4 71/71/4 67/67/4
f 71/71/4 72/72/13 67/67/4
f 67/67/4 72/72/13 65/65/13
f 72/72/13 73/73/12 65/65/13
f 65/65/13 73/73/12 63/63/12
f 73/73/12 74/74/8 63/63/12
f 74/74/8 75/75/8 63/63/12
f 75/75/8 76/76/8 63/63/12
f 63/63/12 76/76/8 64/64/12
f 76/76/8 77/77/8 64/64/12
f 77/77/8 78/78/12 64/64/12
f 64/64/12 78/78/12 66/66/13
f 78/78/12 79/79/13 66/66/13
f 66/66/13 79/79/13 68/68/4
f 79/79/13 80/80/4 68/68/4
f 80/80/4 81/81/4 68/68/4
f 68/68/4 81/81/4 82/82/4
f 82/82/4 81/81/4 83/83/14
f 81/81/4 84/84/14 83/83/14
f 83/83/14 84/84/14 85/85/15
f 84/84/14 86/86/15 85/85/15
f 85/85/15 86/86/15 87/87/9
f 86/86/15 88/88/9 87/87/9
f 89/89/9 90/90/9 91/91/9
f 91/91/9 90/90/9 92/92/9
f 90/90/9 93/93/15 92/92/9
f 92/92/9 93/93/15 94/94/15
f 93/93/15 95/95/14 94/94/15
f 94/94/15 95/95/14 96/96/14
f 95/95/14 70/70/4 96/96/14
f 70/70/4 69/69/4 96/96/14
f 69/69/4 82/82/4 96/96/14
f 82/82/4 83/83/14 96/96/14
f 96/96/14 83/83/14 94/94/15
f 83/83/14 85/85/15 94/94/15
f 94/94/15 85/85/15 92/92/9
f 85/85/15 87/87/9 92/92/9
f 92/92/9 87/87/9 91/91/9
f 91/91/9 87/87/9 97/97/9
f 87/87/9 88/88/9 97/97/9
f 97/97/9 88/88/9 98/98/9
o LockerVaultDoor:0
v -2.230818 -0.034635 -2.024452
v 1.384779 13.144026 -2.024447
v -2.230817 13.144026 -2.024450
v 1.384779 13.144026 -2.024447
v -2.230818 -0.034635 -2.024452
v 1.384779 -0.034635 -2.024447
v 1.384779 13.144026 -2.184192
v 1.384779 13.144026 -2.024447
v 1.384779 -0.034635 -2.184192
v 1.384779 -0.034635 -2.024447
v 0.735485 7.311155 -2.180581
v 0.835485 7.311155 -2.180581
v 0.735485 7.311154 -2.338756
v 0.835485 7.311155 -2.338756
v 0.735485 7.311154 -2.338756
v 0.835485 7.311155 -2.338756
v 0.735485 7.195796 -2.454114
v 0.835485 7.195796 -2.454114
v 0.735485 7.195796 -2.454114
v 0.835485 7.195796 -2.454114
v 0.735485 6.671622 -2.454114
v 0.835485 6.671622 -2.454114
v 0.735485 6.671622 -2.454114
v 0.835485 6.671622 -2.454114
v 0.735485 6.556263 -2.338755
v 0.835485 6.556263 -2.338755
v 0.735485 6.556263 -2.338755
v 0.835485 6.556263 -2.338755
v 0.735485 6.556263 -2.180579
v 0.835485 6.556263 -2.180579
v 0.735485 6.638649 -2.180582
v 0.835485 6.638649 -2.180582
v 0.735485 6.638649 -2.304631
v 0.835485 6.638649 -2.304631
v 0.735485 6.638649 -2.304631
v 0.835485 6.638649 -2.304631
v 0.735485 6.705747 -2.371729
v 0.835485 6.705747 -2.371729
v 0.735485 6.705747 -2.371729
v 0.835485 6.705747 -2.371729
v 0.735485 7.161672 -2.371729
v 0.835485 7.161672 -2.371729
v 0.735485 7.161672 -2.371729
v 0.835485 7.161672 -2.371729
v 0.735485 7.228770 -2.304630
v 0.835485 7.228770 -2.304630
v 0.735485 7.228770 -2.304630
v 0.835485 7.228770 -2.304630
v 0.735485 7.228770 -2.180579
v 0.835485 7.228770 -2.180579
v -2.230818 -0.034635 -2.184194
v -2.230818 -0.034635 -2.024452
v -2.230817 13.144026 -2.184194
v -2.230817 13.144026 -2.024450
v -2.230818 -0.034635 -2.024452
v -2.230818 -0.034635 -2.184194
v 1.384779 -0.034635 -2.024447
v 1.384779 -0.034635 -2.184192
v -2.230818 -0.034635 -2.184194
v -2.230817 13.144026 -2.184194
v 1.384779 -0.034635 -2.184192
v 1.384779 13.144026 -2.184192
v -2.230817 13.144026 -2.184194
v -2.230817 13.144026 -2.024450
v 1.384779 13.144026 -2.184192
v 1.384779 13.144026 -2.024447
v 0.735485 6.556263 -2.180579
v 0.735485 6.638649 -2.180582
v 0.735485 6.556263 -2.338755
v 0.735485 6.638649 -2.304631
v 0.735485 6.671622 -2.454114
v 0.735485 6.705747 -2.371729
v 0.735485 7.195796 -2.454114
v 0.735485 7.161672 -2.371729
v 0.735485 7.311154 -2.338756
v 0.735485 7.228770 -2.304630
v 0.735485 7.311155 -2.180581
v 0.735485 7.228770 -2.180579
v 0.835485 7.228770 -2.180579
v 0.835485 7.228770 -2.304630
v 0.835485 7.311155 -2.180581
v 0.835485 7.311155 -2.338756
v 0.835485 7.161672 -2.371729
v 0.835485 7.195796 -2.454114
v 0.835485 6.705747 -2.371729
v 0.835485 6.671622 -2.454114
v 0.835485 6.638649 -2.304631
v 0.835485 6.556263 -2.338755
v 0.835485 6.638649 -2.180582
v 0.835485 6.556263 -2.180579
vt 0.561982 0.061401
vt 0.314092 0.965116
vt 0.561982 0.965116
vt 0.314092 0.965116
vt 0.561982 0.061401
vt 0.314092 0.061401
vt 0.294464 0.956488
vt 0.283674 0.956488
vt 0.294464 0.066307
vt 0.283674 0.066307
vt 0.201265 0.394213
vt 0.201265 0.410566
vt 0.175290 0.394206
vt 0.175290 0.410559
vt 0.175290 0.394206
vt 0.175290 0.410559
vt 0.147718 0.394198
vt 0.147718 0.410551
vt 0.147718 0.394198
vt 0.147718 0.410551
vt 0.061993 0.394198
vt 0.061993 0.410551
vt 0.061993 0.394198
vt 0.061993 0.410551
vt 0.035062 0.394198
vt 0.035062 0.410551
vt 0.035062 0.394198
vt 0.035062 0.410551
vt 0.009195 0.394198
vt 0.009195 0.410551
vt 0.077503 0.363353
vt 0.077503 0.347000
vt 0.097789 0.363353
vt 0.097789 0.347000
vt 0.148068 0.414364
vt 0.148068 0.430717
vt 0.137095 0.414364
vt 0.137095 0.430717
vt 0.137095 0.414364
vt 0.137095 0.430717
vt 0.062537 0.414364
vt 0.062537 0.430717
vt 0.183139 0.414364
vt 0.183139 0.430717
vt 0.172166 0.414364
vt 0.172166 0.430717
vt 0.172166 0.414364
vt 0.172166 0.430717
vt 0.151880 0.414364
vt 0.151880 0.430717
vt 0.561982 0.061401
vt 0.561982 0.061401
vt 0.561982 0.965116
vt 0.561982 0.965116
vt 0.561982 0.061401
vt 0.561982 0.061401
vt 0.283674 0.066307
vt 0.314092 0.061401
vt 0.561982 0.061401
vt 0.561982 0.965116
vt 0.314092 0.061401
vt 0.314092 0.965116
vt 0.279248 0.310530
vt 0.268458 0.310530
vt 0.279248 0.066307
vt 0.268458 0.066307
vt 0.062537 0.344383
vt 0.076009 0.344383
vt 0.062537 0.370250
vt 0.076009 0.364669
vt 0.081402 0.389114
vt 0.086982 0.375642
vt 0.167120 0.389114
vt 0.161540 0.375642
vt 0.185985 0.370250
vt 0.172513 0.364669
vt 0.185985 0.344383
vt 0.172513 0.344383
vt 0.076009 0.294568
vt 0.076009 0.314854
vt 0.062537 0.294569
vt 0.062537 0.320435
vt 0.086982 0.325827
vt 0.081402 0.339300
vt 0.161540 0.325827
vt 0.167120 0.339300
vt 0.172513 0.314855
vt 0.185985 0.320435
vt 0.172513 0.294569
vt 0.185985 0.294568
vn 0.0000 0.0000 1.0000
vn 1.0000 0.0000 0.0000
vn 0.0000 1.0000 0.0000
vn 0.0000 0.7071 -0.7071
vn 0.0000 0.0000 -1.0000
vn 0.0000 -0.7071 -0.7071
vn 0.0000 -1.0000 0.0000
vn 0.0000 0.7071 0.7071
vn 0.0000 -0.7071 0.7071
vn -1.0000 0.0000 0.0000
usemtl noname
s 1
f 99/99/16 100/100/16 101/101/16
f 102/102/16 103/103/16 104/104/16
f 105/105/17 106/106/17 107/107/17
f 106/106/17 108/108/17 107/107/17
f 109/109/18 110/110/18 111/111/18
f 110/110/18 112/112/18 111/111/18
f 113/113/19 114/114/19 115/115/19
f 114/114/19 116/116/19 115/115/19
f 117/117/20 118/118/20 119/119/20
f 118/118/20 120/120/20 119/119/20
f 121/121/21 122/122/21 123/123/21
f 122/122/21 124/124/21 123/123/21
f 125/125/22 126/126/22 127/127/22
f 126/126/22 128/128/22 127/127/22
f 129/129/18 130/130/18 131/131/18
f 130/130/18 132/132/18 131/131/18
f 133/133/23 134/134/23 135/135/23
f 134/134/23 136/136/23 135/135/23
f 137/137/16 138/138/16 139/139/16
f 138/138/16 140/140/16 139/139/16
f 141/141/24 142/142/24 143/143/24
f 142/142/24 144/144/24 143/143/24
f 145/145/22 146/146/22 147/147/22
f 146/146/22 148/148/22 147/147/22
f 149/149/25 150/150/25 151/151/25
f 150/150/25 152/152/25 151/151/25
f 153/153/22 154/154/22 155/155/22
f 154/154/22 156/156/22 155/155/22
f 157/157/20 158/158/20 159/159/20
f 158/158/20 160/160/20 159/159/20
f 161/161/18 162/162/18 163/163/18
f 162/162/18 164/164/18 163/163/18
f 165/165/25 166/166/25 167/167/25
f 166/166/25 168/168/25 167/167/25
f 167/167/25 168/168/25 169/169/25
f 168/168/25 170/170/25 169/169/25
f 169/169/25 170/170/25 171/171/25
f 170/170/25 172/172/25 171/171/25
f 171/171/25 172/172/25 173/173/25
f 172/172/25 174/174/25 173/173/25
f 173/173/25 174/174/25 175/175/25
f 174/174/25 176/176/25 175/175/25
f 177/177/17 178/178/17 179/179/17
f 179/179/17 178/178/17 180/180/17
f 178/178/17 181/181/17 180/180/17
f 180/180/17 181/181/17 182/182/17
f 181/181/17 183/183/17 182/182/17
f 182/182/17 183/183/17 184/184/17
f 183/183/17 185/185/17 184/184/17
f 184/184/17 185/185/17 186/186/17
f 185/185/17 187/187/17 186/186/17
f 186/186/17 187/187/17 188/188/17
