# Blender v2.78 (sub 0) OBJ File: ''
# www.blender.org
mtllib untitled.mtl
o SketchUp.008_ID55
v -0.532653 0.239903 -0.227395
v -0.532653 0.366903 0.283463
v -0.532653 0.239903 0.283463
v -0.532653 0.366903 -0.227395
v -0.532653 0.366903 -0.227395
v -0.532653 0.239903 -0.227395
v -0.532653 0.366903 0.283463
v -0.532653 0.239903 0.283463
v -0.532653 0.366903 0.283463
v -0.045290 0.239903 0.283463
v -0.532653 0.239903 0.283463
v -0.045290 0.366903 0.283463
v -0.045290 0.366903 0.283463
v -0.532653 0.366903 0.283463
v -0.045290 0.239903 0.283463
v -0.532653 0.239903 0.283463
v -0.045290 0.239903 0.283463
v -0.532653 0.239903 -0.227395
v -0.532653 0.239903 0.283463
v -0.045290 0.239903 -0.227395
v -0.045290 0.239903 -0.227395
v -0.045290 0.239903 0.283463
v -0.532653 0.239903 -0.227395
v -0.532653 0.239903 0.283463
v -0.045290 0.366903 -0.227395
v -0.532653 0.239903 -0.227395
v -0.045290 0.239903 -0.227395
v -0.532653 0.366903 -0.227395
v -0.532653 0.366903 -0.227395
v -0.045290 0.366903 -0.227395
v -0.532653 0.239903 -0.227395
v -0.045290 0.239903 -0.227395
v -0.045290 0.366903 -0.227395
v -0.045290 0.239903 0.283463
v -0.045290 0.366903 0.283463
v -0.045290 0.239903 -0.227395
v -0.045290 0.239903 -0.227395
v -0.045290 0.366903 -0.227395
v -0.045290 0.239903 0.283463
v -0.045290 0.366903 0.283463
v -0.539003 0.366903 -0.233745
v -0.038940 0.219075 -0.233745
v -0.539003 0.219075 -0.233745
v -0.038940 0.366903 -0.233745
v -0.038940 0.366903 -0.233745
v -0.539003 0.366903 -0.233745
v -0.038940 0.219075 -0.233745
v -0.539003 0.219075 -0.233745
v -0.539003 0.366903 0.289813
v -0.532653 0.366903 0.283463
v -0.539003 0.366903 -0.233745
v -0.038940 0.366903 0.289813
v -0.045290 0.366903 0.283463
v -0.045290 0.366903 -0.227395
v -0.532653 0.366903 -0.227395
v -0.038940 0.366903 -0.233745
v -0.038940 0.366903 0.289813
v -0.045290 0.366903 -0.227395
v -0.038940 0.366903 -0.233745
v -0.532653 0.366903 -0.227395
v -0.532653 0.366903 0.283463
v -0.539003 0.366903 -0.233745
v -0.045290 0.366903 0.283463
v -0.539003 0.366903 0.289813
v -0.038940 0.219075 -0.233745
v -0.038940 0.366903 0.289813
v -0.038940 0.219075 0.289813
v -0.038940 0.366903 -0.233745
v -0.038940 0.366903 -0.233745
v -0.038940 0.219075 -0.233745
v -0.038940 0.366903 0.289813
v -0.038940 0.219075 0.289813
v -0.038940 0.219075 0.289813
v -0.539003 0.219075 -0.233745
v -0.539003 0.219075 0.289813
v -0.038940 0.219075 -0.233745
v -0.038940 0.219075 -0.233745
v -0.038940 0.219075 0.289813
v -0.539003 0.219075 -0.233745
v -0.539003 0.219075 0.289813
v -0.539003 0.366903 0.289813
v -0.038940 0.219075 0.289813
v -0.539003 0.219075 0.289813
v -0.038940 0.366903 0.289813
v -0.038940 0.366903 0.289813
v -0.539003 0.366903 0.289813
v -0.038940 0.219075 0.289813
v -0.539003 0.219075 0.289813
v -0.539003 0.400050 0.312038
v -0.564403 0.400050 -0.272162
v -0.564403 0.400050 0.312038
v -0.539003 0.400050 -0.272162
v -0.539003 0.400050 0.289813
v -0.539003 0.400050 -0.249937
v -0.539003 0.400050 -0.249937
v -0.539003 0.400050 0.289813
v -0.539003 0.400050 -0.272162
v -0.539003 0.400050 0.312038
v -0.564403 0.400050 -0.272162
v -0.564403 0.400050 0.312038
v -0.539003 0.393700 -0.249937
v -0.539003 0.400050 0.289813
v -0.539003 0.393700 0.289813
v -0.539003 0.400050 -0.249937
v -0.539003 0.400050 -0.249937
v -0.539003 0.393700 -0.249937
v -0.539003 0.400050 0.289813
v -0.539003 0.393700 0.289813
v -0.564403 0.400050 -0.272162
v -0.539003 0.196850 -0.272162
v -0.564403 0.196850 -0.272162
v -0.539003 0.400050 -0.272162
v -0.539003 0.400050 -0.272162
v -0.564403 0.400050 -0.272162
v -0.539003 0.196850 -0.272162
v -0.564403 0.196850 -0.272162
v -0.564403 0.400050 -0.272162
v -0.564403 0.196850 0.312038
v -0.564403 0.400050 0.312038
v -0.564403 0.196850 -0.272162
v -0.564403 0.196850 -0.272162
v -0.564403 0.400050 -0.272162
v -0.564403 0.196850 0.312038
v -0.564403 0.400050 0.312038
v -0.539003 0.400050 0.312038
v -0.564403 0.196850 0.312038
v -0.539003 0.196850 0.312038
v -0.564403 0.400050 0.312038
v -0.564403 0.400050 0.312038
v -0.539003 0.400050 0.312038
v -0.564403 0.196850 0.312038
v -0.539003 0.196850 0.312038
v -0.539003 0.196850 -0.272162
v -0.564403 0.196850 0.312038
v -0.564403 0.196850 -0.272162
v -0.539003 0.196850 0.312038
v -0.539003 0.196850 0.312038
v -0.539003 0.196850 -0.272162
v -0.564403 0.196850 0.312038
v -0.564403 0.196850 -0.272162
v -0.539003 0.366903 0.289813
v -0.539003 0.371475 0.289813
v -0.539003 0.219075 0.289813
v -0.539003 0.196850 0.312038
v -0.539003 0.400050 0.312038
v -0.539003 0.196850 -0.272162
v -0.539003 0.219075 -0.233745
v -0.539003 0.219075 -0.249937
v -0.539003 0.371475 -0.249937
v -0.539003 0.393700 -0.249937
v -0.539003 0.400050 -0.249937
v -0.539003 0.400050 -0.272162
v -0.539003 0.393700 0.289813
v -0.539003 0.400050 0.289813
v 0.116635 0.219075 0.289813
v -0.038940 0.219075 -0.233745
v -0.038940 0.219075 0.289813
v -0.539003 0.219075 -0.249937
v -0.539003 0.219075 -0.233745
v 0.616697 0.219075 -0.249937
v 0.116635 0.219075 -0.233745
v 0.616697 0.219075 -0.233745
v -0.539003 0.371475 0.289813
v -0.038940 0.366903 0.289813
v -0.539003 0.366903 0.289813
v 0.116635 0.366903 0.289813
v 0.616697 0.366903 0.289813
v 0.616697 0.371475 0.289813
v 0.116635 0.219075 0.289813
v -0.038940 0.219075 0.289813
v 0.616697 0.371475 -0.249937
v -0.539003 0.219075 -0.249937
v 0.616697 0.219075 -0.249937
v -0.539003 0.371475 -0.249937
v 0.616697 0.371475 -0.249937
v -0.539003 0.371475 0.289813
v -0.539003 0.371475 -0.249937
v 0.616697 0.371475 0.289813
v 0.616697 0.400050 -0.272162
v 0.616697 0.393700 -0.249937
v 0.616697 0.400050 -0.249937
v 0.616697 0.371475 -0.249937
v 0.616697 0.219075 -0.249937
v 0.616697 0.400050 0.289813
v 0.616697 0.196850 0.312038
v 0.616697 0.400050 0.312038
v 0.616697 0.371475 0.289813
v 0.616697 0.219075 0.289813
v 0.616697 0.196850 -0.272162
v 0.616697 0.393700 0.289813
v 0.616697 0.366903 0.289813
v 0.616697 0.219075 -0.233745
v -0.412003 0.196850 -0.195962
v -0.437403 0.196850 0.235838
v -0.437403 0.196850 -0.195962
v -0.412003 0.196850 0.235838
v -0.412003 0.196850 -0.170562
v -0.412003 0.196850 0.210438
v 0.515097 0.196850 -0.195962
v 0.489697 0.196850 -0.170562
v 0.489697 0.196850 0.210438
v 0.515097 0.196850 0.235838
v -0.412003 0.196850 0.210438
v 0.489697 0.146050 0.210438
v -0.412003 0.146050 0.210438
v 0.489697 0.196850 0.210438
v -0.412003 0.025400 -0.195962
v -0.412003 0.146050 0.235838
v -0.412003 0.025400 0.235838
v -0.412003 0.146050 0.210438
v -0.412003 0.196850 0.210438
v -0.412003 0.146050 -0.170562
v -0.412003 0.146050 -0.195962
v -0.412003 0.196850 -0.170562
v 0.489697 0.196850 -0.170562
v -0.412003 0.146050 -0.170562
v 0.489697 0.146050 -0.170562
v -0.412003 0.196850 -0.170562
v 0.489697 0.196850 -0.170562
v 0.489697 0.146050 0.210438
v 0.489697 0.196850 0.210438
v 0.489697 0.025400 0.235838
v 0.489697 0.146050 0.235838
v 0.489697 0.025400 -0.195962
v 0.489697 0.146050 -0.170562
v 0.489697 0.146050 -0.195962
v 0.489697 0.146050 0.210438
v -0.412003 0.146050 0.235838
v -0.412003 0.146050 0.210438
v 0.489697 0.146050 0.235838
v 0.489697 0.146050 -0.195962
v -0.412003 0.146050 -0.170562
v -0.412003 0.146050 -0.195962
v 0.489697 0.146050 -0.170562
v 0.489697 0.025400 0.235838
v -0.412003 0.025400 -0.195962
v -0.412003 0.025400 0.235838
v 0.489697 0.025400 -0.195962
v 0.616697 0.400050 0.312038
v -0.539003 0.196850 0.312038
v 0.616697 0.196850 0.312038
v -0.539003 0.400050 0.312038
v 0.616697 0.400050 0.312038
v -0.539003 0.400050 0.289813
v -0.539003 0.400050 0.312038
v 0.616697 0.400050 0.289813
v -0.539003 0.196850 -0.272162
v -0.437403 0.196850 -0.195962
v -0.539003 0.196850 0.312038
v 0.616697 0.196850 -0.272162
v -0.412003 0.196850 -0.195962
v 0.515097 0.196850 -0.195962
v 0.515097 0.196850 0.235838
v -0.437403 0.196850 0.235838
v 0.616697 0.196850 0.312038
v -0.412003 0.196850 0.235838
v -0.539003 0.400050 0.289813
v 0.616697 0.393700 0.289813
v -0.539003 0.393700 0.289813
v 0.616697 0.400050 0.289813
v -0.539003 0.400050 -0.272162
v 0.616697 0.196850 -0.272162
v -0.539003 0.196850 -0.272162
v 0.616697 0.400050 -0.272162
v 0.616697 0.393700 0.289813
v -0.539003 0.393700 -0.249937
v -0.539003 0.393700 0.289813
v 0.616697 0.393700 -0.249937
v 0.616697 0.400050 -0.249937
v -0.539003 0.400050 -0.272162
v -0.539003 0.400050 -0.249937
v 0.616697 0.400050 -0.272162
v 0.616697 0.400050 -0.249937
v -0.539003 0.393700 -0.249937
v 0.616697 0.393700 -0.249937
v -0.539003 0.400050 -0.249937
v 0.515097 0.000000 -0.195962
v -0.437403 0.000000 0.235838
v -0.437403 0.000000 -0.195962
v 0.515097 0.000000 0.235838
v 0.515097 0.000000 -0.195962
v 0.515097 0.196850 0.235838
v 0.515097 0.000000 0.235838
v 0.515097 0.196850 -0.195962
v 0.515097 0.000000 0.235838
v 0.489697 0.025400 0.235838
v -0.437403 0.000000 0.235838
v 0.515097 0.196850 0.235838
v 0.489697 0.146050 0.235838
v -0.412003 0.146050 0.235838
v -0.412003 0.025400 0.235838
v -0.437403 0.196850 0.235838
v -0.412003 0.196850 0.235838
v -0.437403 0.196850 -0.195962
v -0.437403 0.000000 0.235838
v -0.437403 0.196850 0.235838
v -0.437403 0.000000 -0.195962
v -0.437403 0.000000 -0.195962
v -0.412003 0.025400 -0.195962
v 0.515097 0.000000 -0.195962
v -0.437403 0.196850 -0.195962
v -0.412003 0.146050 -0.195962
v 0.489697 0.146050 -0.195962
v 0.489697 0.025400 -0.195962
v 0.515097 0.196850 -0.195962
v -0.412003 0.196850 -0.195962
v 0.610347 0.366903 -0.227395
v 0.610347 0.239903 0.283463
v 0.610347 0.366903 0.283463
v 0.610347 0.239903 -0.227395
v 0.610347 0.239903 -0.227395
v 0.610347 0.366903 -0.227395
v 0.610347 0.239903 0.283463
v 0.610347 0.366903 0.283463
v 0.610347 0.366903 -0.227395
v 0.122985 0.239903 -0.227395
v 0.610347 0.239903 -0.227395
v 0.122985 0.366903 -0.227395
v 0.122985 0.366903 -0.227395
v 0.610347 0.366903 -0.227395
v 0.122985 0.239903 -0.227395
v 0.610347 0.239903 -0.227395
v 0.610347 0.239903 0.283463
v 0.122985 0.239903 -0.227395
v 0.122985 0.239903 0.283463
v 0.610347 0.239903 -0.227395
v 0.610347 0.239903 -0.227395
v 0.610347 0.239903 0.283463
v 0.122985 0.239903 -0.227395
v 0.122985 0.239903 0.283463
v 0.122985 0.366903 0.283463
v 0.610347 0.239903 0.283463
v 0.122985 0.239903 0.283463
v 0.610347 0.366903 0.283463
v 0.610347 0.366903 0.283463
v 0.122985 0.366903 0.283463
v 0.610347 0.239903 0.283463
v 0.122985 0.239903 0.283463
v 0.122985 0.239903 -0.227395
v 0.122985 0.366903 0.283463
v 0.122985 0.239903 0.283463
v 0.122985 0.366903 -0.227395
v 0.122985 0.366903 -0.227395
v 0.122985 0.239903 -0.227395
v 0.122985 0.366903 0.283463
v 0.122985 0.239903 0.283463
v 0.116635 0.366903 -0.233745
v 0.616697 0.219075 -0.233745
v 0.116635 0.219075 -0.233745
v 0.616697 0.366903 -0.233745
v 0.616697 0.366903 -0.233745
v 0.116635 0.366903 -0.233745
v 0.616697 0.219075 -0.233745
v 0.116635 0.219075 -0.233745
v 0.616697 0.219075 0.289813
v 0.116635 0.219075 -0.233745
v 0.116635 0.219075 0.289813
v 0.616697 0.219075 -0.233745
v 0.616697 0.219075 -0.233745
v 0.616697 0.219075 0.289813
v 0.116635 0.219075 -0.233745
v 0.116635 0.219075 0.289813
v 0.116635 0.366903 -0.233745
v 0.116635 0.219075 0.289813
v 0.116635 0.366903 0.289813
v 0.116635 0.219075 -0.233745
v 0.116635 0.219075 -0.233745
v 0.116635 0.366903 -0.233745
v 0.116635 0.219075 0.289813
v 0.116635 0.366903 0.289813
v 0.116635 0.366903 0.289813
v 0.122985 0.366903 0.283463
v 0.116635 0.366903 -0.233745
v 0.616697 0.366903 0.289813
v 0.610347 0.366903 0.283463
v 0.610347 0.366903 -0.227395
v 0.122985 0.366903 -0.227395
v 0.616697 0.366903 -0.233745
v 0.616697 0.366903 0.289813
v 0.610347 0.366903 -0.227395
v 0.616697 0.366903 -0.233745
v 0.122985 0.366903 -0.227395
v 0.122985 0.366903 0.283463
v 0.116635 0.366903 -0.233745
v 0.610347 0.366903 0.283463
v 0.116635 0.366903 0.289813
v 0.116635 0.366903 0.289813
v 0.616697 0.219075 0.289813
v 0.116635 0.219075 0.289813
v 0.616697 0.366903 0.289813
v 0.616697 0.366903 0.289813
v 0.116635 0.366903 0.289813
v 0.616697 0.219075 0.289813
v 0.116635 0.219075 0.289813
v 0.642097 0.196850 -0.272162
v 0.616697 0.196850 0.312038
v 0.616697 0.196850 -0.272162
v 0.642097 0.196850 0.312038
v 0.642097 0.196850 0.312038
v 0.642097 0.196850 -0.272162
v 0.616697 0.196850 0.312038
v 0.616697 0.196850 -0.272162
v 0.616697 0.400050 -0.272162
v 0.642097 0.196850 -0.272162
v 0.616697 0.196850 -0.272162
v 0.642097 0.400050 -0.272162
v 0.642097 0.400050 -0.272162
v 0.616697 0.400050 -0.272162
v 0.642097 0.196850 -0.272162
v 0.616697 0.196850 -0.272162
v 0.642097 0.196850 -0.272162
v 0.642097 0.400050 0.312038
v 0.642097 0.196850 0.312038
v 0.642097 0.400050 -0.272162
v 0.642097 0.400050 -0.272162
v 0.642097 0.196850 -0.272162
v 0.642097 0.400050 0.312038
v 0.642097 0.196850 0.312038
v 0.642097 0.400050 0.312038
v 0.616697 0.196850 0.312038
v 0.642097 0.196850 0.312038
v 0.616697 0.400050 0.312038
v 0.616697 0.400050 0.312038
v 0.642097 0.400050 0.312038
v 0.616697 0.196850 0.312038
v 0.642097 0.196850 0.312038
v 0.616697 0.400050 0.312038
v 0.616697 0.400050 -0.249937
v 0.616697 0.400050 0.289813
v 0.616697 0.400050 -0.272162
v 0.642097 0.400050 0.312038
v 0.642097 0.400050 -0.272162
v 0.642097 0.400050 -0.272162
v 0.642097 0.400050 0.312038
v 0.616697 0.400050 -0.272162
v 0.616697 0.400050 0.312038
v 0.616697 0.400050 -0.249937
v 0.616697 0.400050 0.289813
v 0.616697 0.400050 -0.249937
v 0.616697 0.393700 0.289813
v 0.616697 0.400050 0.289813
v 0.616697 0.393700 -0.249937
v 0.616697 0.393700 -0.249937
v 0.616697 0.400050 -0.249937
v 0.616697 0.393700 0.289813
v 0.616697 0.400050 0.289813
v 0.616697 0.400050 0.289813
v -0.539003 0.400050 -0.249937
v -0.539003 0.400050 0.289813
v 0.616697 0.400050 -0.249937
v 0.616697 0.400050 -0.249937
v 0.616697 0.400050 0.289813
v -0.539003 0.400050 -0.249937
v -0.539003 0.400050 0.289813
vt 0.9494 0.8211
vt 0.9157 0.6844
vt 0.9494 0.6844
vt 0.9157 0.8211
vt 0.9240 0.1401
vt 0.9578 0.1401
vt 0.9240 0.2768
vt 0.9578 0.2768
vt 0.9494 0.9453
vt 0.9831 0.8149
vt 0.9831 0.9453
vt 0.9494 0.8149
vt 0.9730 0.0000
vt 0.9730 0.1304
vt 0.9393 0.0000
vt 0.9393 0.1304
vt 0.2868 0.8410
vt 0.4163 0.7043
vt 0.4163 0.8410
vt 0.2868 0.7043
vt 0.6457 0.6907
vt 0.6457 0.8274
vt 0.5162 0.6907
vt 0.5162 0.8274
vt 0.9831 0.6844
vt 0.9494 0.8149
vt 0.9494 0.6844
vt 0.9831 0.8149
vt 0.8156 0.8599
vt 0.8156 0.9903
vt 0.7819 0.8599
vt 0.7819 0.9903
vt 0.3880 0.8410
vt 0.4217 0.9777
vt 0.3880 0.9777
vt 0.4217 0.8410
vt 0.9494 0.9579
vt 0.9157 0.9579
vt 0.9494 0.8211
vt 0.9157 0.8211
vt 0.6010 0.8274
vt 0.5618 0.9613
vt 0.5618 0.8274
vt 0.6010 0.9613
vt 0.9393 0.0000
vt 0.9393 0.1338
vt 0.9000 0.0000
vt 0.9000 0.1338
vt 0.1328 0.7587
vt 0.1312 0.7570
vt 0.1328 0.6186
vt 0.0000 0.7587
vt 0.0017 0.7570
vt 0.0017 0.6203
vt 0.1312 0.6203
vt 0.0000 0.6186
vt 0.2868 0.5642
vt 0.2885 0.7026
vt 0.2868 0.7043
vt 0.4179 0.7026
vt 0.4179 0.5659
vt 0.4196 0.7043
vt 0.2885 0.5659
vt 0.4196 0.5642
vt 0.8764 0.5506
vt 0.9157 0.6907
vt 0.8764 0.6907
vt 0.9157 0.5506
vt 0.7182 0.1367
vt 0.7575 0.1367
vt 0.7182 0.2768
vt 0.7575 0.2768
vt 0.1328 0.7587
vt 0.2657 0.6186
vt 0.2657 0.7587
vt 0.1328 0.6186
vt 0.5162 0.6907
vt 0.5162 0.5506
vt 0.6491 0.6907
vt 0.6491 0.5506
vt 0.7189 0.9613
vt 0.7581 0.8274
vt 0.7581 0.9613
vt 0.7189 0.8274
vt 0.9093 0.4303
vt 0.9093 0.2965
vt 0.9486 0.4303
vt 0.9486 0.2965
vt 0.7716 0.8274
vt 0.7649 0.9838
vt 0.7649 0.8274
vt 0.7716 0.9838
vt 0.0000 0.0000
vt 0.0000 0.0000
vt 0.0000 0.0000
vt 0.0000 0.0000
vt 0.0000 0.0000
vt 0.0000 0.0000
vt 0.0000 0.0000
vt 0.0000 0.0000
vt 0.9645 0.2965
vt 0.9645 0.1401
vt 0.9713 0.2965
vt 0.9713 0.1401
vt 0.4217 0.7018
vt 0.4201 0.5574
vt 0.4217 0.5574
vt 0.4201 0.7018
vt 0.7592 0.1367
vt 0.7609 0.1367
vt 0.7592 0.2812
vt 0.7609 0.2812
vt 0.6377 0.4494
vt 0.6444 0.5038
vt 0.6377 0.5038
vt 0.6444 0.4494
vt 0.6512 0.4494
vt 0.6579 0.4494
vt 0.6512 0.5038
vt 0.6579 0.5038
vt 0.1619 0.7587
vt 0.2159 0.9150
vt 0.1619 0.9150
vt 0.2159 0.7587
vt 0.0000 0.7587
vt 0.0540 0.7587
vt 0.0000 0.9150
vt 0.0540 0.9150
vt 0.6444 0.4494
vt 0.6512 0.5038
vt 0.6444 0.5038
vt 0.6512 0.4494
vt 0.6309 0.4494
vt 0.6377 0.4494
vt 0.6309 0.5038
vt 0.6377 0.5038
vt 0.7581 0.9838
vt 0.7649 0.8274
vt 0.7649 0.9838
vt 0.7581 0.8274
vt 0.7784 0.8274
vt 0.7784 0.9838
vt 0.7716 0.8274
vt 0.7716 0.9838
vt 0.0000 0.0000
vt 0.0000 0.0000
vt 0.0000 0.0000
vt 0.8701 0.2965
vt 0.8760 0.2905
vt 0.9240 0.2965
vt 0.8701 0.1401
vt 0.8760 0.1504
vt 0.8760 0.1461
vt 0.9164 0.1461
vt 0.9223 0.1461
vt 0.9240 0.1461
vt 0.9240 0.1401
vt 0.9223 0.2905
vt 0.9164 0.2905
vt 0.9240 0.2905
vt 0.0000 0.0000
vt 0.0000 0.0000
vt 0.2868 0.4847
vt 0.1477 0.4431
vt 0.2868 0.4431
vt 0.1434 0.3093
vt 0.1477 0.3093
vt 0.1434 0.6186
vt 0.1477 0.4847
vt 0.1477 0.6186
vt 0.8359 0.8599
vt 0.8371 0.7261
vt 0.8371 0.8599
vt 0.8371 0.6844
vt 0.8371 0.5506
vt 0.8359 0.5506
vt 0.8764 0.6844
vt 0.8764 0.7261
vt 0.4639 0.5574
vt 0.4234 0.8667
vt 0.4234 0.5574
vt 0.4639 0.8667
vt 0.2986 0.0000
vt 0.4420 0.3093
vt 0.2986 0.3093
vt 0.4420 0.0000
vt 0.0540 0.7587
vt 0.0557 0.7646
vt 0.0540 0.7646
vt 0.0616 0.7646
vt 0.1021 0.7646
vt 0.0540 0.9091
vt 0.1080 0.9150
vt 0.0540 0.9150
vt 0.0616 0.9091
vt 0.1021 0.9091
vt 0.1080 0.7587
vt 0.0000 0.0000
vt 0.0000 0.0000
vt 0.0000 0.0000
vt 0.0000 0.0000
vt 0.0000 0.0000
vt 0.1021 0.7690
vt 0.0557 0.9091
vt 0.2724 0.6186
vt 0.2657 0.7341
vt 0.2657 0.6186
vt 0.2724 0.7341
vt 0.0000 0.0000
vt 0.0000 0.0000
vt 0.0000 0.0000
vt 0.0000 0.0000
vt 0.4015 0.3093
vt 0.4082 0.5574
vt 0.4015 0.5574
vt 0.4082 0.3161
vt 0.5095 0.3161
vt 0.5162 0.5574
vt 0.5095 0.5574
vt 0.5162 0.3093
vt 0.9730 0.2413
vt 0.9865 0.0000
vt 0.9865 0.2413
vt 0.9730 0.0000
vt 0.4639 0.8123
vt 0.4960 0.9279
vt 0.4639 0.9279
vt 0.4960 0.9211
vt 0.5095 0.9211
vt 0.4960 0.8191
vt 0.4960 0.8123
vt 0.5095 0.8191
vt 0.2733 0.8599
vt 0.2868 0.6186
vt 0.2868 0.8599
vt 0.2733 0.6186
vt 0.5618 0.9362
vt 0.5483 0.8342
vt 0.5618 0.8342
vt 0.5162 0.8274
vt 0.5483 0.8274
vt 0.5162 0.9430
vt 0.5483 0.9362
vt 0.5483 0.9430
vt 0.9890 0.6844
vt 0.9958 0.9257
vt 0.9890 0.9257
vt 0.9958 0.6844
vt 0.9865 0.3093
vt 0.9933 0.5506
vt 0.9865 0.5506
vt 0.9933 0.3093
vt 0.5162 0.3093
vt 0.6309 0.5506
vt 0.5162 0.5506
vt 0.6309 0.3093
vt 0.7638 0.4494
vt 0.8178 0.1401
vt 0.8178 0.4494
vt 0.7638 0.1401
vt 0.9865 0.0000
vt 0.9924 0.3093
vt 0.9865 0.3093
vt 0.9924 0.0000
vt 0.0000 0.3093
vt 0.0202 0.2821
vt 0.1552 0.3093
vt 0.0000 0.0000
vt 0.0202 0.2753
vt 0.0202 0.0272
vt 0.1350 0.0272
vt 0.1350 0.2821
vt 0.1552 0.0000
vt 0.1350 0.2753
vt 0.7785 1.0000
vt 0.7802 0.6907
vt 0.7802 1.0000
vt 0.7785 0.6907
vt 0.8359 0.5506
vt 0.7819 0.8599
vt 0.7819 0.5506
vt 0.8359 0.8599
vt 0.5854 0.3093
vt 0.4420 0.0000
vt 0.5854 0.0000
vt 0.4420 0.3093
vt 0.9890 0.9937
vt 0.9831 0.6844
vt 0.9890 0.6844
vt 0.9831 0.9937
vt 0.7819 0.6907
vt 0.7802 1.0000
vt 0.7802 0.6907
vt 0.7819 1.0000
vt 0.2868 0.3093
vt 0.4015 0.5642
vt 0.2868 0.5642
vt 0.4015 0.3093
vt 0.9000 0.1156
vt 0.8477 0.0000
vt 0.9000 0.0000
vt 0.8477 0.1156
vt 0.5162 0.8123
vt 0.5095 0.8055
vt 0.5162 0.5574
vt 0.4639 0.8123
vt 0.4774 0.8055
vt 0.4774 0.5642
vt 0.5095 0.5642
vt 0.4639 0.5574
vt 0.4201 0.8123
vt 0.4201 0.5574
vt 0.4201 0.8055
vt 0.8178 0.3950
vt 0.8701 0.5106
vt 0.8178 0.5106
vt 0.8701 0.3950
vt 0.8701 0.3950
vt 0.8633 0.3882
vt 0.8701 0.1401
vt 0.8178 0.3950
vt 0.8313 0.3882
vt 0.8313 0.1469
vt 0.8633 0.1469
vt 0.8178 0.1401
vt 0.0000 0.0000
vt 0.0000 0.0000
vt 0.0000 0.0000
vt 0.3205 0.8410
vt 0.3543 0.9777
vt 0.3205 0.9777
vt 0.3543 0.8410
vt 0.3880 0.9777
vt 0.3543 0.9777
vt 0.3880 0.8410
vt 0.3543 0.8410
vt 0.8494 0.8599
vt 0.8156 0.9903
vt 0.8156 0.8599
vt 0.8494 0.9903
vt 0.9549 0.6810
vt 0.9549 0.5506
vt 0.9887 0.6810
vt 0.9887 0.5506
vt 0.7182 0.1367
vt 0.8477 0.0000
vt 0.8477 0.1367
vt 0.7182 0.0000
vt 0.6457 0.8274
vt 0.6457 0.6907
vt 0.7752 0.8274
vt 0.7752 0.6907
vt 0.4572 0.8667
vt 0.4234 0.9971
vt 0.4234 0.8667
vt 0.4572 0.9971
vt 0.9823 0.2965
vt 0.9823 0.4269
vt 0.9486 0.2965
vt 0.9486 0.4269
vt 0.9101 0.9675
vt 0.8764 0.8308
vt 0.9101 0.8308
vt 0.8764 0.9675
vt 0.2868 0.8410
vt 0.3205 0.8410
vt 0.2868 0.9777
vt 0.3205 0.9777
vt 0.6796 0.9613
vt 0.7189 0.8274
vt 0.7189 0.9613
vt 0.6796 0.8274
vt 0.6403 0.8274
vt 0.6403 0.9613
vt 0.6010 0.8274
vt 0.6010 0.9613
vt 0.7819 0.5506
vt 0.6491 0.6907
vt 0.6491 0.5506
vt 0.7819 0.6907
vt 0.5854 0.1401
vt 0.5854 0.0000
vt 0.7182 0.1401
vt 0.7182 0.0000
vt 0.8701 0.2965
vt 0.9093 0.4366
vt 0.8701 0.4366
vt 0.9093 0.2965
vt 0.9157 0.8308
vt 0.8764 0.8308
vt 0.9157 0.6907
vt 0.8764 0.6907
vt 0.6309 0.3093
vt 0.6326 0.3110
vt 0.6309 0.4494
vt 0.7638 0.3093
vt 0.7621 0.3110
vt 0.7621 0.4477
vt 0.6326 0.4477
vt 0.7638 0.4494
vt 0.5854 0.1401
vt 0.5871 0.2785
vt 0.5854 0.2802
vt 0.7165 0.2785
vt 0.7165 0.1418
vt 0.7182 0.2802
vt 0.5871 0.1418
vt 0.7182 0.1401
vt 0.9549 0.5506
vt 0.9157 0.6844
vt 0.9157 0.5506
vt 0.9549 0.6844
vt 0.6796 0.8274
vt 0.6796 0.9613
vt 0.6403 0.8274
vt 0.6403 0.9613
vt 0.9924 0.1563
vt 0.9992 0.0000
vt 0.9992 0.1563
vt 0.9924 0.0000
vt 0.9645 0.1401
vt 0.9645 0.2965
vt 0.9578 0.1401
vt 0.9578 0.2965
vt 0.6782 0.4494
vt 0.6849 0.5038
vt 0.6782 0.5038
vt 0.6849 0.4494
vt 0.6579 0.4494
vt 0.6647 0.4494
vt 0.6579 0.5038
vt 0.6647 0.5038
vt 0.2159 0.7587
vt 0.2699 0.9150
vt 0.2159 0.9150
vt 0.2699 0.7587
vt 0.1080 0.7587
vt 0.1619 0.7587
vt 0.1080 0.9150
vt 0.1619 0.9150
vt 0.6714 0.4494
vt 0.6782 0.5038
vt 0.6714 0.5038
vt 0.6782 0.4494
vt 0.6647 0.4494
vt 0.6714 0.4494
vt 0.6647 0.5038
vt 0.6714 0.5038
vt 0.0000 0.0000
vt 0.0000 0.0000
vt 0.0000 0.0000
vt 0.0000 0.0000
vt 0.5095 0.9686
vt 0.5095 0.8123
vt 0.5162 0.8123
vt 0.5162 0.9686
vt 0.9933 0.4656
vt 0.9933 0.3093
vt 1.0000 0.4656
vt 1.0000 0.3093
vt 0.0000 0.0000
vt 0.0000 0.0000
vt 0.0000 0.0000
vt 0.0000 0.0000
vt 0.7575 0.1367
vt 0.7592 0.2812
vt 0.7575 0.2812
vt 0.7592 0.1367
vt 0.4234 0.7018
vt 0.4217 0.7018
vt 0.4234 0.5574
vt 0.4217 0.5574
vt 0.1434 0.6186
vt 0.0000 0.3093
vt 0.1434 0.3093
vt 0.0000 0.6186
vt 0.1552 0.0000
vt 0.2986 0.0000
vt 0.1552 0.3093
vt 0.2986 0.3093
vn 1.0000 0.0000 0.0000
vn -1.0000 0.0000 0.0000
vn -0.0000 0.0000 -1.0000
vn 0.0000 0.0000 1.0000
vn 0.0000 1.0000 0.0000
vn 0.0000 -1.0000 0.0000
usemtl Color_C25
s off
f 1/1/1 2/2/1 3/3/1
f 2/2/1 1/1/1 4/4/1
f 5/5/2 6/6/2 7/7/2
f 8/8/2 7/7/2 6/6/2
f 9/9/3 10/10/3 11/11/3
f 10/10/3 9/9/3 12/12/3
f 13/13/4 14/14/4 15/15/4
f 16/16/4 15/15/4 14/14/4
f 17/17/5 18/18/5 19/19/5
f 18/18/5 17/17/5 20/20/5
f 21/21/6 22/22/6 23/23/6
f 24/24/6 23/23/6 22/22/6
f 25/25/4 26/26/4 27/27/4
f 26/26/4 25/25/4 28/28/4
f 29/29/3 30/30/3 31/31/3
f 32/32/3 31/31/3 30/30/3
f 33/33/2 34/34/2 35/35/2
f 34/34/2 33/33/2 36/36/2
f 37/37/1 38/38/1 39/39/1
f 40/40/1 39/39/1 38/38/1
f 41/41/3 42/42/3 43/43/3
f 42/42/3 41/41/3 44/44/3
f 45/45/4 46/46/4 47/47/4
f 48/48/4 47/47/4 46/46/4
f 49/49/5 50/50/5 51/51/5
f 50/50/5 49/49/5 52/52/5
f 50/50/5 52/52/5 53/53/5
f 53/53/5 52/52/5 54/54/5
f 51/51/5 55/55/5 56/56/5
f 55/55/5 51/51/5 50/50/5
f 56/56/5 55/55/5 54/54/5
f 56/56/5 54/54/5 52/52/5
f 57/57/6 58/58/6 59/59/6
f 58/58/6 60/60/6 59/59/6
f 61/61/6 62/62/6 60/60/6
f 59/59/6 60/60/6 62/62/6
f 58/58/6 57/57/6 63/63/6
f 63/63/6 57/57/6 61/61/6
f 57/57/6 64/64/6 61/61/6
f 62/62/6 61/61/6 64/64/6
f 65/65/1 66/66/1 67/67/1
f 66/66/1 65/65/1 68/68/1
f 69/69/2 70/70/2 71/71/2
f 72/72/2 71/71/2 70/70/2
f 73/73/5 74/74/5 75/75/5
f 74/74/5 73/73/5 76/76/5
f 77/77/6 78/78/6 79/79/6
f 80/80/6 79/79/6 78/78/6
f 81/81/3 82/82/3 83/83/3
f 82/82/3 81/81/3 84/84/3
f 85/85/4 86/86/4 87/87/4
f 88/88/4 87/87/4 86/86/4
f 89/89/5 90/90/5 91/91/5
f 90/90/5 89/89/5 92/92/5
f 92/93/5 89/94/5 93/95/5
f 92/93/4 93/95/4 94/96/4
f 95/97/4 96/98/4 97/99/4
f 96/98/4 98/100/4 97/99/4
f 97/101/6 98/102/6 99/103/6
f 100/104/6 99/103/6 98/102/6
f 101/105/1 102/106/1 103/107/1
f 102/106/1 101/105/1 104/108/1
f 105/109/2 106/110/2 107/111/2
f 108/112/2 107/111/2 106/110/2
f 109/113/3 110/114/3 111/115/3
f 110/114/3 109/113/3 112/116/3
f 113/117/4 114/118/4 115/119/4
f 116/120/4 115/119/4 114/118/4
f 117/121/2 118/122/2 119/123/2
f 118/122/2 117/121/2 120/124/2
f 121/125/1 122/126/1 123/127/1
f 124/128/1 123/127/1 122/126/1
f 125/129/4 126/130/4 127/131/4
f 126/130/4 125/129/4 128/132/4
f 129/133/3 130/134/3 131/135/3
f 132/136/3 131/135/3 130/134/3
f 133/137/6 134/138/6 135/139/6
f 134/138/6 133/137/6 136/140/6
f 137/141/5 138/142/5 139/143/5
f 140/144/5 139/143/5 138/142/5
f 141/145/4 142/146/4 143/147/4
f 144/148/1 143/149/1 145/150/1
f 143/149/1 144/148/1 146/151/1
f 143/149/1 146/151/1 147/152/1
f 147/152/1 146/151/1 148/153/1
f 148/153/1 146/151/1 149/154/1
f 149/154/1 146/151/1 150/155/1
f 150/155/1 146/151/1 151/156/1
f 151/156/1 146/151/1 152/157/1
f 149/154/1 153/158/1 142/159/1
f 153/158/1 149/154/1 150/155/1
f 143/149/1 154/160/1 145/150/1
f 154/161/2 143/147/2 142/146/2
f 154/161/1 142/146/1 153/162/1
f 155/163/5 156/164/5 157/165/5
f 156/164/5 158/166/5 159/167/5
f 158/166/5 156/164/5 160/168/5
f 160/168/5 156/164/5 161/169/5
f 161/169/5 156/164/5 155/163/5
f 160/168/5 161/169/5 162/170/5
f 163/171/3 164/172/3 165/173/3
f 164/172/3 163/171/3 166/174/3
f 166/174/3 163/171/3 167/175/3
f 167/175/3 163/171/3 168/176/3
f 164/172/3 169/177/3 170/178/3
f 169/177/3 164/172/3 166/174/3
f 171/179/4 172/180/4 173/181/4
f 172/180/4 171/179/4 174/182/4
f 175/183/6 176/184/6 177/185/6
f 176/184/6 175/183/6 178/186/6
f 179/187/2 180/188/2 181/189/2
f 180/188/2 179/187/2 182/190/2
f 182/190/2 179/187/2 183/191/2
f 184/192/2 185/193/2 186/194/2
f 185/193/2 184/192/2 187/195/2
f 185/193/2 187/195/2 188/196/2
f 185/193/2 188/196/2 189/197/2
f 187/198/2 184/199/2 190/200/2
f 188/201/1 187/198/1 191/202/1
f 189/197/2 188/196/2 192/203/2
f 189/197/2 192/203/2 183/191/2
f 189/197/2 183/191/2 179/187/2
f 180/188/2 187/195/2 190/204/2
f 187/195/2 180/188/2 182/190/2
f 193/205/6 194/206/6 195/207/6
f 194/206/6 193/205/6 196/208/6
f 196/209/5 193/210/5 197/211/5
f 196/209/6 197/211/6 198/212/6
f 199/213/6 197/214/6 193/215/6
f 197/214/6 199/213/6 200/216/6
f 200/216/6 199/213/6 201/217/6
f 201/217/6 196/218/6 198/219/6
f 196/218/6 201/217/6 202/220/6
f 202/220/6 201/217/6 199/213/6
f 200/216/6 198/219/6 197/214/6
f 198/219/6 200/216/6 201/217/6
f 203/221/3 204/222/3 205/223/3
f 204/222/3 203/221/3 206/224/3
f 207/225/1 208/226/1 209/227/1
f 208/226/1 207/225/1 210/228/1
f 210/228/1 207/225/1 211/229/1
f 211/229/1 207/225/1 212/230/1
f 212/230/1 207/225/1 213/231/1
f 214/232/1 211/229/1 212/230/1
f 215/233/4 216/234/4 217/235/4
f 216/234/4 215/233/4 218/236/4
f 219/237/2 220/238/2 221/239/2
f 220/238/2 222/240/2 223/241/2
f 222/240/2 220/238/2 224/242/2
f 224/242/2 220/238/2 225/243/2
f 225/243/2 220/238/2 219/237/2
f 224/242/2 225/243/2 226/244/2
f 227/245/6 228/246/6 229/247/6
f 228/246/6 227/245/6 230/248/6
f 231/249/6 232/250/6 233/251/6
f 232/250/6 231/249/6 234/252/6
f 235/253/5 236/254/5 237/255/5
f 236/254/5 235/253/5 238/256/5
f 239/257/4 240/258/4 241/259/4
f 240/258/4 239/257/4 242/260/4
f 243/261/5 244/262/5 245/263/5
f 244/262/5 243/261/5 246/264/5
f 247/265/6 248/266/6 249/267/6
f 248/266/6 247/265/6 250/268/6
f 248/266/6 250/268/6 251/269/6
f 251/269/6 250/268/6 252/270/6
f 252/270/6 250/268/6 253/271/6
f 249/267/6 254/272/6 255/273/6
f 254/272/6 249/267/6 248/266/6
f 255/273/6 254/272/6 256/274/6
f 255/273/6 256/274/6 253/271/6
f 255/273/6 253/271/6 250/268/6
f 257/275/3 258/276/3 259/277/3
f 258/276/3 257/275/3 260/278/3
f 261/279/3 262/280/3 263/281/3
f 262/280/3 261/279/3 264/282/3
f 265/283/5 266/284/5 267/285/5
f 266/284/5 265/283/5 268/286/5
f 269/287/5 270/288/5 271/289/5
f 270/288/5 269/287/5 272/290/5
f 273/291/4 274/292/4 275/293/4
f 274/292/4 273/291/4 276/294/4
f 277/295/6 278/296/6 279/297/6
f 278/296/6 277/295/6 280/298/6
f 281/299/1 282/300/1 283/301/1
f 282/300/1 281/299/1 284/302/1
f 285/303/4 286/304/4 287/305/4
f 286/304/4 285/303/4 288/306/4
f 286/304/4 288/306/4 289/307/4
f 289/307/4 288/306/4 290/308/4
f 287/305/4 291/309/4 292/310/4
f 291/309/4 287/305/4 286/304/4
f 292/310/4 291/309/4 290/308/4
f 292/310/4 290/308/4 288/306/4
f 292/311/6 288/312/6 293/313/6
f 294/314/2 295/315/2 296/316/2
f 295/315/2 294/314/2 297/317/2
f 298/318/3 299/319/3 300/320/3
f 299/319/3 298/318/3 301/321/3
f 299/319/3 301/321/3 302/322/3
f 302/322/3 301/321/3 303/323/3
f 300/320/3 304/324/3 305/325/3
f 304/324/3 300/320/3 299/319/3
f 305/325/3 304/324/3 303/323/3
f 305/325/3 303/323/3 301/321/3
f 305/326/4 301/327/4 306/328/4
f 307/329/2 308/330/2 309/331/2
f 308/330/2 307/329/2 310/332/2
f 311/333/1 312/334/1 313/335/1
f 314/336/1 313/335/1 312/334/1
f 315/337/4 316/338/4 317/339/4
f 316/338/4 315/337/4 318/340/4
f 319/341/3 320/342/3 321/343/3
f 322/344/3 321/343/3 320/342/3
f 323/345/5 324/346/5 325/347/5
f 324/346/5 323/345/5 326/348/5
f 327/349/6 328/350/6 329/351/6
f 330/352/6 329/351/6 328/350/6
f 331/353/3 332/354/3 333/355/3
f 332/354/3 331/353/3 334/356/3
f 335/357/4 336/358/4 337/359/4
f 338/360/4 337/359/4 336/358/4
f 339/361/1 340/362/1 341/363/1
f 340/362/1 339/361/1 342/364/1
f 343/365/2 344/366/2 345/367/2
f 346/368/2 345/367/2 344/366/2
f 347/369/3 348/370/3 349/371/3
f 348/370/3 347/369/3 350/372/3
f 351/373/4 352/374/4 353/375/4
f 354/376/4 353/375/4 352/374/4
f 355/377/5 356/378/5 357/379/5
f 356/378/5 355/377/5 358/380/5
f 359/381/6 360/382/6 361/383/6
f 362/384/6 361/383/6 360/382/6
f 363/385/2 364/386/2 365/387/2
f 364/386/2 363/385/2 366/388/2
f 367/389/1 368/390/1 369/391/1
f 370/392/1 369/391/1 368/390/1
f 371/393/5 372/394/5 373/395/5
f 372/394/5 371/393/5 374/396/5
f 372/394/5 374/396/5 375/397/5
f 375/397/5 374/396/5 376/398/5
f 373/395/5 377/399/5 378/400/5
f 377/399/5 373/395/5 372/394/5
f 378/400/5 377/399/5 376/398/5
f 378/400/5 376/398/5 374/396/5
f 379/401/6 380/402/6 381/403/6
f 380/402/6 382/404/6 381/403/6
f 383/405/6 384/406/6 382/404/6
f 381/403/6 382/404/6 384/406/6
f 380/402/6 379/401/6 385/407/6
f 385/407/6 379/401/6 383/405/6
f 379/401/6 386/408/6 383/405/6
f 384/406/6 383/405/6 386/408/6
f 387/409/3 388/410/3 389/411/3
f 388/410/3 387/409/3 390/412/3
f 391/413/4 392/414/4 393/415/4
f 394/416/4 393/415/4 392/414/4
f 395/417/6 396/418/6 397/419/6
f 396/418/6 395/417/6 398/420/6
f 399/421/5 400/422/5 401/423/5
f 402/424/5 401/423/5 400/422/5
f 403/425/3 404/426/3 405/427/3
f 404/426/3 403/425/3 406/428/3
f 407/429/4 408/430/4 409/431/4
f 410/432/4 409/431/4 408/430/4
f 411/433/1 412/434/1 413/435/1
f 412/434/1 411/433/1 414/436/1
f 415/437/2 416/438/2 417/439/2
f 418/440/2 417/439/2 416/438/2
f 419/441/4 420/442/4 421/443/4
f 420/442/4 419/441/4 422/444/4
f 423/445/3 424/446/3 425/447/3
f 426/448/3 425/447/3 424/446/3
f 427/449/4 428/450/4 429/451/4
f 428/450/4 427/449/4 430/452/4
f 430/453/5 427/454/5 431/455/5
f 430/453/5 431/455/5 432/456/5
f 433/457/6 434/458/6 435/459/6
f 434/458/6 436/460/6 435/459/6
f 435/461/4 436/462/4 437/463/4
f 438/464/4 437/463/4 436/462/4
usemtl Translucent_Glass_Blue
f 439/465/2 440/466/2 441/467/2
f 440/466/2 439/465/2 442/468/2
f 443/469/1 444/470/1 445/471/1
f 446/472/1 445/471/1 444/470/1
f 447/473/5 448/474/5 449/475/5
f 448/474/5 447/473/5 450/476/5
f 451/477/6 452/478/6 453/479/6
f 454/480/6 453/479/6 452/478/6
