# Blender v2.77 (sub 0) OBJ File: ''
# www.blender.org
mtllib buffer.mtl
o SketchUp.001_ID16
v 0.037837 0.363277 0.511046
v 0.037837 0.382234 0.504313
v 0.037837 0.384046 0.511046
v 0.037837 0.380695 0.494727
v 0.037837 0.373672 0.449073
v 0.037837 0.388157 0.438350
v 0.037837 0.361464 0.368441
v 0.037837 0.391904 0.402324
v 0.037837 0.388713 0.350568
v 0.037837 0.361295 0.275925
v 0.037837 0.368796 0.225852
v 0.037837 0.359858 0.207645
v 0.037837 0.368612 0.156161
v 0.037837 0.381409 0.480132
v 0.044260 0.373672 0.449073
v 0.044260 0.363277 0.511046
v 0.044260 0.361464 0.368441
v 0.044260 0.361295 0.275925
v 0.044260 0.359858 0.207645
v 0.044260 0.368612 0.156161
v 0.044260 0.368796 0.225852
v 0.044260 0.388713 0.350568
v 0.044260 0.391904 0.402324
v 0.044260 0.388157 0.438350
v 0.044260 0.381409 0.480132
v 0.044260 0.380695 0.494727
v 0.044260 0.382234 0.504313
v 0.044260 0.384046 0.511046
v 0.037034 0.623018 -0.104223
v 0.037034 0.627311 -0.278322
v 0.037034 0.627311 -0.098474
v 0.037034 0.621346 -0.119885
v 0.037034 0.619170 -0.161528
v 0.037034 0.621857 -0.275988
v 0.044260 0.627311 -0.098474
v 0.044260 0.623018 -0.104223
v 0.044260 0.621346 -0.119885
v 0.044260 0.619170 -0.161528
v 0.044260 0.621857 -0.275988
v 0.044260 0.627311 -0.278322
v 0.034626 0.624310 0.340955
v 0.034626 0.627311 -0.057469
v 0.034626 0.627311 0.344337
v 0.034626 0.622617 0.336505
v 0.034626 0.621517 0.325697
v 0.034626 0.619055 0.305740
v 0.034626 0.617812 0.262721
v 0.034626 0.616151 0.197308
v 0.034626 0.611408 0.119445
v 0.034626 0.613686 0.086357
v 0.034626 0.615201 0.033643
v 0.034626 0.618449 0.004059
v 0.034626 0.614895 0.016160
v 0.034626 0.620282 -0.024732
v 0.034626 0.622424 -0.051699
v 0.044260 0.627311 0.344337
v 0.044260 0.624310 0.340955
v 0.044260 0.622617 0.336505
v 0.044260 0.621517 0.325697
v 0.044260 0.619055 0.305740
v 0.044260 0.617812 0.262721
v 0.044260 0.616151 0.197308
v 0.044260 0.611408 0.119445
v 0.044260 0.613686 0.086357
v 0.044260 0.615201 0.033643
v 0.044260 0.614895 0.016160
v 0.044260 0.618449 0.004059
v 0.044260 0.620282 -0.024732
v 0.044260 0.622424 -0.051699
v 0.044260 0.627311 -0.057469
v 0.040045 0.364652 -0.133048
v 0.040045 0.369155 -0.141579
v 0.040045 0.366702 -0.124711
v 0.040045 0.362115 -0.150147
v 0.040045 0.370947 -0.183997
v 0.040045 0.362465 -0.167163
v 0.040045 0.355982 -0.218691
v 0.040045 0.368157 -0.229755
v 0.040045 0.354222 -0.265187
v 0.040045 0.368254 -0.276143
v 0.040045 0.354870 -0.315330
v 0.040045 0.366446 -0.326287
v 0.040045 0.355309 -0.420033
v 0.040045 0.365222 -0.354205
v 0.040045 0.369892 -0.386568
v 0.040045 0.375165 -0.526999
v 0.040045 0.360019 -0.473874
v 0.040045 0.358969 -0.526999
v 0.044260 0.375165 -0.526999
v 0.044260 0.369892 -0.386568
v 0.044260 0.365222 -0.354205
v 0.044260 0.366446 -0.326287
v 0.044260 0.368254 -0.276143
v 0.044260 0.368157 -0.229755
v 0.044260 0.370947 -0.183997
v 0.044260 0.369155 -0.141579
v 0.044260 0.366702 -0.124711
v 0.044260 0.364652 -0.133048
v 0.044260 0.362115 -0.150147
v 0.044260 0.362465 -0.167163
v 0.044260 0.355982 -0.218691
v 0.044260 0.354222 -0.265187
v 0.044260 0.354870 -0.315330
v 0.044260 0.355309 -0.420033
v 0.044260 0.360019 -0.473874
v 0.044260 0.358969 -0.526999
v 0.039443 0.560028 -0.444623
v 0.039443 0.561304 -0.526999
v 0.039443 0.561304 -0.426441
v 0.039443 0.553725 -0.473134
v 0.039443 0.547397 -0.499680
v 0.039443 0.546269 -0.526999
v 0.044260 0.561304 -0.526999
v 0.044260 0.561304 -0.426441
v 0.044260 0.560028 -0.444623
v 0.044260 0.553725 -0.473134
v 0.044260 0.547397 -0.499680
v 0.044260 0.546269 -0.526999
v 0.033622 0.491282 -0.354901
v 0.033622 0.502851 -0.352396
v 0.033622 0.492357 -0.350704
v 0.033622 0.504713 -0.402282
v 0.033622 0.488006 -0.375849
v 0.033622 0.484559 -0.424092
v 0.033622 0.499188 -0.454895
v 0.033622 0.479990 -0.479030
v 0.033622 0.495831 -0.490869
v 0.033622 0.481791 -0.526999
v 0.033622 0.495749 -0.526999
v 0.044260 0.504713 -0.402282
v 0.044260 0.502851 -0.352396
v 0.044260 0.492357 -0.350704
v 0.044260 0.491282 -0.354901
v 0.044260 0.488006 -0.375849
v 0.044260 0.484559 -0.424092
v 0.044260 0.479990 -0.479030
v 0.044260 0.481791 -0.526999
v 0.044260 0.495749 -0.526999
v 0.044260 0.495831 -0.490869
v 0.044260 0.499188 -0.454895
v 0.036030 0.422326 0.497040
v 0.036030 0.443917 0.511046
v 0.036030 0.428469 0.511046
v 0.036030 0.428662 0.088804
v 0.036030 0.419993 0.467718
v 0.036030 0.415218 0.401039
v 0.036030 0.411683 0.259768
v 0.036030 0.416067 0.080018
v 0.036030 0.431285 -0.195312
v 0.036030 0.413350 -0.084102
v 0.036030 0.416878 -0.153470
v 0.036030 0.420740 -0.191390
v 0.036030 0.422780 -0.199583
v 0.044260 0.428469 0.511046
v 0.044260 0.422326 0.497040
v 0.044260 0.419993 0.467718
v 0.044260 0.415218 0.401039
v 0.044260 0.411683 0.259768
v 0.044260 0.416067 0.080018
v 0.044260 0.413350 -0.084102
v 0.044260 0.416878 -0.153470
v 0.044260 0.420740 -0.191390
v 0.044260 0.422780 -0.199583
v 0.044260 0.431285 -0.195312
v 0.044260 0.428662 0.088804
v 0.044260 0.443917 0.511046
v 0.034626 0.486962 0.158791
v 0.034626 0.515987 0.511046
v 0.034626 0.500998 0.511046
v 0.034626 0.518314 0.351081
v 0.034626 0.506210 0.130932
v 0.034626 0.491438 0.046308
v 0.034626 0.502382 -0.018337
v 0.034626 0.496352 0.004503
v 0.034626 0.496299 -0.005469
v 0.044260 0.500998 0.511046
v 0.044260 0.486962 0.158791
v 0.044260 0.491438 0.046308
v 0.044260 0.496352 0.004503
v 0.044260 0.496299 -0.005469
v 0.044260 0.502382 -0.018337
v 0.044260 0.506210 0.130932
v 0.044260 0.518314 0.351081
v 0.044260 0.515987 0.511046
v 0.028805 0.570313 0.504629
v 0.028805 0.582077 0.511046
v 0.028805 0.570315 0.511046
v 0.028805 0.584019 0.400929
v 0.028805 0.570256 0.446742
v 0.028805 0.561275 0.377549
v 0.028805 0.583029 0.371766
v 0.028805 0.552166 0.291371
v 0.028805 0.574113 0.335258
v 0.028805 0.564135 0.292819
v 0.028805 0.562089 0.255548
v 0.028805 0.549112 0.266565
v 0.028805 0.549055 0.240604
v 0.028805 0.562893 0.116163
v 0.028805 0.553855 0.132917
v 0.028805 0.553795 0.101662
v 0.028805 0.561018 0.096204
v 0.044260 0.570315 0.511046
v 0.044260 0.570313 0.504629
v 0.044260 0.570256 0.446742
v 0.044260 0.561275 0.377549
v 0.044260 0.552166 0.291371
v 0.044260 0.549112 0.266565
v 0.044260 0.549055 0.240604
v 0.044260 0.553855 0.132917
v 0.044260 0.553795 0.101662
v 0.044260 0.561018 0.096204
v 0.044260 0.562893 0.116163
v 0.044260 0.562089 0.255548
v 0.044260 0.564135 0.292819
v 0.044260 0.574113 0.335258
v 0.044260 0.583029 0.371766
v 0.044260 0.584019 0.400929
v 0.044260 0.582077 0.511046
v -0.017556 0.529132 -0.169725
v -0.026588 0.529132 -0.030489
v -0.026588 0.529132 -0.169725
v -0.017556 0.529132 -0.030489
v -0.026588 0.320793 -0.169725
v -0.017556 0.320793 -0.169725
v -0.017556 0.320793 -0.030489
v -0.026588 0.320793 -0.030489
v 0.037205 0.005228 -0.333213
v 0.006560 0.303753 -0.333213
v 0.006560 0.005228 -0.333213
v 0.037205 0.330074 -0.333213
v -0.034185 0.303753 -0.333213
v -0.008152 0.330074 -0.333213
v -0.034185 0.462423 -0.333213
v -0.008963 0.486339 -0.333213
v -0.008152 0.563421 -0.333213
v -0.008963 0.549580 -0.333213
v -0.034185 0.549580 -0.333213
v -0.034185 0.563421 -0.333213
v 0.037205 0.005228 -0.343564
v 0.037205 0.330074 -0.343564
v -0.008152 0.330074 -0.343564
v 0.006560 0.005228 -0.343564
v -0.008152 0.563421 -0.343564
v 0.006560 0.303753 -0.343564
v -0.034185 0.563421 -0.343564
v -0.034185 0.303753 -0.343564
v -0.034185 0.549580 -0.343564
v -0.034185 0.462423 -0.343564
v -0.008963 0.549580 -0.343564
v -0.008963 0.486339 -0.343564
v -0.009416 0.561712 -0.248700
v -0.032922 0.561712 -0.235359
v -0.032922 0.561712 -0.248700
v -0.009416 0.561712 -0.235359
v -0.009416 0.328364 -0.235359
v -0.009416 0.328364 -0.248700
v 0.007823 -0.004743 -0.235359
v 0.035942 0.272002 -0.235359
v 0.035942 -0.004743 -0.235359
v 0.007823 0.305463 -0.235359
v 0.270366 -0.023596 -0.235359
v 0.253438 -0.044879 -0.235359
v 0.035942 0.317948 -0.235359
v -0.032922 0.305463 -0.235359
v 0.035942 0.328364 -0.235359
v -0.032922 0.305463 -0.248700
v 0.035942 0.328364 -0.248700
v 0.035942 0.317948 -0.248700
v 0.270366 -0.023596 -0.248700
v 0.253438 -0.044879 -0.248700
v 0.035942 0.272002 -0.248700
v 0.035942 -0.004743 -0.248700
v 0.007823 -0.004743 -0.248700
v 0.007823 0.305463 -0.248700
v -0.034185 0.303753 0.317260
v 0.006560 0.303753 0.317260
v -0.008152 0.330074 0.317260
v -0.034185 0.462423 0.317260
v -0.008963 0.486339 0.317260
v -0.008152 0.563421 0.317260
v -0.008963 0.549580 0.317260
v -0.034185 0.549580 0.317260
v -0.034185 0.563421 0.317260
v 0.006560 0.005228 0.317260
v 0.037205 0.005228 0.317260
v 0.037205 0.330074 0.317260
v -0.017556 0.529132 0.014536
v -0.017556 0.320793 0.153772
v -0.017556 0.529132 0.153772
v -0.017556 0.320793 0.014536
v -0.026588 0.529132 0.153772
v -0.026588 0.529132 0.014536
v -0.026588 0.320793 0.014536
v -0.026588 0.320793 0.153772
v -0.027216 0.499195 -0.333213
v -0.603438 -0.011562 -0.333213
v -0.591067 -0.035461 -0.333213
v -0.037708 0.524876 -0.333213
v -0.027216 0.524876 -0.333213
v -0.041240 0.540031 0.274024
v -0.614302 -0.003358 0.274024
v -0.614302 -0.003358 0.327610
v -0.041240 0.540031 0.327610
v -0.603438 -0.011562 0.317260
v -0.591067 -0.035461 0.317260
v -0.027216 0.499195 0.317260
v -0.037708 0.524876 0.317260
v -0.027216 0.524876 0.317260
v -0.041240 0.540031 -0.343564
v -0.614302 -0.003358 -0.289977
v -0.614302 -0.003358 -0.343564
v -0.041240 0.540031 -0.289977
v 0.037205 0.005228 0.327610
v 0.037205 0.330074 0.327610
v 0.006560 0.005228 0.327610
v -0.008152 0.330074 0.327610
v 0.006560 0.303753 0.327610
v -0.008152 0.563421 0.327610
v -0.034185 0.303753 0.327610
v -0.034185 0.563421 0.327610
v -0.034185 0.462423 0.327610
v -0.034185 0.549580 0.327610
v -0.008963 0.486339 0.327610
v -0.008963 0.549580 0.327610
v 0.253438 -0.044879 0.219406
v 0.035942 0.272002 0.232747
v 0.253438 -0.044879 0.232747
v 0.035942 0.272002 0.219406
v 0.270366 -0.023596 0.232747
v 0.270366 -0.023596 0.219406
v 0.035942 0.317948 0.219406
v 0.007823 0.305463 0.219406
v -0.032922 0.305463 0.219406
v -0.009416 0.328364 0.219406
v -0.032922 0.561712 0.219406
v 0.035942 0.328364 0.219406
v -0.009416 0.561712 0.219406
v 0.007823 -0.004743 0.219406
v 0.035942 -0.004743 0.219406
v 0.035942 -0.004743 0.232747
v 0.035942 0.317948 0.232747
v 0.035942 0.328364 0.232747
v -0.009416 0.328364 0.232747
v -0.009416 0.561712 0.232747
v -0.032922 0.561712 0.232747
v -0.032922 0.305463 0.232747
v 0.007823 0.305463 0.232747
v 0.007823 -0.004743 0.232747
v -0.001097 0.339622 -0.192238
v -0.001097 0.339622 0.176285
v -0.001097 0.572970 0.176285
v -0.001097 0.572970 0.274024
v -0.001097 0.572970 0.327610
v -0.001097 0.594430 0.327610
v -0.001097 0.594430 -0.343564
v -0.001097 0.572970 0.232747
v -0.001097 0.572970 -0.192238
v -0.001097 0.572970 -0.248700
v -0.001097 0.572970 -0.289977
v -0.001097 0.572970 -0.343564
v -0.000495 -0.016002 0.176285
v 0.044260 0.243341 0.176285
v 0.044260 -0.016002 0.176285
v -0.000495 0.294205 0.176285
v 0.282122 -0.024183 0.176285
v 0.253005 -0.060789 0.176285
v 0.044260 0.322371 0.176285
v -0.000495 0.313889 0.176285
v -0.026588 0.555720 0.176285
v -0.026588 0.313889 0.176285
v -0.013843 0.572970 0.176285
v 0.044260 0.339622 0.176285
v -0.001097 0.339622 0.232747
v 0.044260 0.339622 -0.192238
v 0.282122 -0.024183 -0.192238
v 0.044260 0.243341 -0.192238
v 0.253005 -0.060789 -0.192238
v 0.044260 0.322371 -0.192238
v -0.000495 0.294205 -0.192238
v -0.000495 0.313889 -0.192238
v -0.026588 0.313889 -0.192238
v -0.026588 0.555720 -0.192238
v -0.013843 0.572970 -0.192238
v -0.000495 -0.016002 -0.192238
v 0.044260 -0.016002 -0.192238
v -0.001097 0.339622 -0.248700
v -0.013843 0.572970 -0.248700
v -0.001097 0.339622 -0.289977
v -0.013843 0.572970 -0.289977
v -0.013843 0.572970 -0.343564
v -0.001097 0.339622 -0.343564
v -0.013843 0.594430 -0.343564
v -0.001097 0.339622 -0.526999
v -0.001097 0.339622 0.327610
v -0.001097 0.339622 0.511046
v -0.001097 0.627311 0.511046
v -0.001097 0.627311 -0.526999
v -0.013843 0.594430 0.327610
v -0.013843 0.572970 0.327610
v -0.013843 0.572970 0.274024
v -0.001097 0.339622 0.274024
v -0.013843 0.572970 0.232747
v 0.044260 0.322371 0.232747
v 0.044260 0.339622 0.232747
v 0.282122 -0.024183 0.232747
v 0.253005 -0.060789 0.232747
v 0.044260 0.243341 0.232747
v 0.044260 -0.016002 0.232747
v -0.000495 -0.016002 0.232747
v -0.000495 0.294205 0.232747
v -0.041240 0.572970 0.176285
v -0.026588 0.294205 0.176285
v -0.041240 0.294205 0.176285
v -0.041240 0.294205 0.232747
v -0.041240 0.572970 0.232747
v 0.044260 0.339622 -0.248700
v 0.044260 0.322371 -0.248700
v -0.026588 0.294205 -0.192238
v -0.041240 0.294205 -0.192238
v -0.041240 0.572970 -0.192238
v -0.000495 -0.016002 -0.248700
v -0.000495 0.294205 -0.248700
v 0.044260 -0.016002 -0.248700
v 0.044260 0.243341 -0.248700
v 0.253005 -0.060789 -0.248700
v 0.282122 -0.024183 -0.248700
v -0.041240 0.294205 -0.248700
v -0.041240 0.572970 -0.248700
v 0.044260 0.339622 -0.289977
v -0.041240 0.467392 -0.289977
v -0.589079 -0.052082 -0.289977
v -0.041240 0.339622 -0.289977
v -0.041240 0.572970 -0.289977
v -0.000495 0.294205 -0.343564
v -0.000495 -0.007027 -0.343564
v -0.041240 0.294205 -0.343564
v -0.041240 0.467392 -0.343564
v 0.044260 -0.016002 -0.343564
v 0.006560 -0.016002 -0.343564
v 0.044260 0.339622 -0.343564
v 0.005958 -0.016002 -0.343564
v -0.001097 -0.016002 -0.343564
v -0.041240 0.572970 -0.343564
v -0.595505 -0.039669 -0.343564
v -0.589079 -0.052082 -0.343564
v -0.591067 -0.035461 -0.343564
v -0.027216 0.499195 -0.343564
v -0.027216 0.524876 -0.343564
v -0.037708 0.524876 -0.343564
v -0.603438 -0.011562 -0.343564
v -0.607877 -0.015771 -0.343564
v -0.001097 -0.007027 -0.343564
v 0.044260 0.339622 0.511046
v 0.044260 0.339622 0.327610
v -0.001097 -0.007027 0.327610
v -0.001097 -0.016002 0.327610
v 0.005958 -0.016002 0.327610
v 0.006560 -0.016002 0.327610
v 0.044260 -0.016002 0.327610
v -0.000495 -0.007027 0.327610
v -0.607877 -0.015771 0.327610
v -0.603438 -0.011562 0.327610
v -0.037708 0.524876 0.327610
v -0.027216 0.524876 0.327610
v -0.041240 0.572970 0.327610
v -0.595505 -0.039669 0.327610
v -0.589079 -0.052082 0.327610
v -0.041240 0.467392 0.327610
v -0.591067 -0.035461 0.327610
v -0.027216 0.499195 0.327610
v -0.041240 0.294205 0.327610
v -0.000495 0.294205 0.327610
v 0.044260 0.339622 -0.526999
v -0.041240 0.572970 0.274024
v -0.041240 0.339622 0.274024
v -0.041240 0.467392 0.274024
v -0.589079 -0.052082 0.274024
v 0.044260 0.339622 0.274024
v 0.044260 -0.016002 -0.289977
v -0.001097 -0.016002 -0.289977
v -0.000495 -0.007027 -0.289977
v -0.000495 0.294205 -0.289977
v -0.041240 0.294205 -0.289977
v -0.001097 -0.007027 -0.289977
v 0.006560 -0.016575 -0.343564
v 0.005958 -0.016575 -0.343564
v 0.044260 -0.016002 0.274024
v -0.001097 -0.016002 0.274024
v 0.005958 -0.016575 0.327610
v 0.006560 -0.016575 0.327610
v -0.001097 -0.007027 0.274024
v -0.000495 -0.007027 0.274024
v -0.000495 0.294205 0.274024
v -0.041240 0.294205 0.274024
v -0.016018 0.491308 -0.289977
v -0.016018 0.491308 -0.343564
v -0.016018 0.491308 0.327610
v -0.016018 0.491308 0.274024
v 0.044260 0.627311 -0.526999
v 0.044260 0.627311 0.511046
vt 0.3025 0.3552
vt 0.1412 0.3288
vt 0.3025 0.3288
vt 0.1412 0.3552
vt 0.3025 0.1565
vt 0.1412 0.1301
vt 0.3025 0.1301
vt 0.1412 0.1565
vt 0.7315 0.8119
vt 0.7125 0.8209
vt 0.7105 0.8119
vt 0.7315 0.9464
vt 0.7125 0.8285
vt 0.7105 0.8285
vt 0.7155 0.8784
vt 0.7155 0.8849
vt 0.7105 0.8849
vt 0.7128 0.9085
vt 0.7128 0.9155
vt 0.7105 0.9155
vt 0.7105 0.9464
vt 0.7105 0.9085
vt 0.7105 0.8784
vt 0.7105 0.8209
vt 0.9331 0.4852
vt 0.9496 0.5631
vt 0.9331 0.9704
vt 0.9541 0.4852
vt 0.9541 0.5631
vt 0.9541 0.7509
vt 0.9508 0.7701
vt 0.9496 0.7509
vt 0.9541 0.7701
vt 0.9508 0.8542
vt 0.9541 0.9704
vt 0.9541 0.8542
vt 0.0505 0.0748
vt 0.0264 0.0000
vt 0.0516 0.0000
vt 0.0264 0.0030
vt 0.0264 0.0301
vt 0.0306 0.0624
vt 0.0348 0.1027
vt 0.0561 0.1777
vt 0.0362 0.1143
vt 0.0362 0.1264
vt 0.0340 0.1768
vt 0.0340 0.1914
vt 0.0579 0.2475
vt 0.0307 0.1939
vt 0.0063 0.1985
vt 0.0056 0.2232
vt 0.0057 0.2314
vt 0.0041 0.2370
vt 0.0033 0.2505
vt 0.0200 0.0515
vt 0.0000 0.0000
vt 0.0209 0.0000
vt 0.0000 0.0779
vt 0.0205 0.0651
vt 0.0246 0.0822
vt 0.0014 0.0795
vt 0.0022 0.0816
vt 0.0027 0.0866
vt 0.0293 0.1020
vt 0.0038 0.0960
vt 0.0044 0.1161
vt 0.0302 0.1194
vt 0.0052 0.1467
vt 0.0298 0.1846
vt 0.0074 0.1831
vt 0.1135 0.0031
vt 0.0921 0.0000
vt 0.1127 0.0000
vt 0.0949 0.0065
vt 0.1142 0.0076
vt 0.0960 0.0203
vt 0.1139 0.0145
vt 0.1107 0.0340
vt 0.0982 0.0514
vt 0.1090 0.0508
vt 0.1105 0.0750
vt 0.0999 0.1175
vt 0.1197 0.1333
vt 0.0978 0.2015
vt 0.1198 0.1659
vt 0.1332 0.0858
vt 0.1223 0.0000
vt 0.1332 0.0000
vt 0.1175 0.0290
vt 0.1231 0.0667
vt 0.1232 0.1099
vt 0.1332 0.1108
vt 0.1239 0.1418
vt 0.1332 0.1301
vt 0.1332 0.1565
vt 0.1332 0.3288
vt 0.1207 0.2972
vt 0.0991 0.2782
vt 0.1216 0.3011
vt 0.1228 0.3091
vt 0.1226 0.3171
vt 0.1256 0.3411
vt 0.1332 0.3552
vt 0.1265 0.3629
vt 0.1332 0.3745
vt 0.1262 0.3863
vt 0.1332 0.3995
vt 0.1260 0.4353
vt 0.1332 0.4853
vt 0.1238 0.4604
vt 0.1243 0.4853
vt 0.0974 0.3106
vt 0.1195 0.3051
vt 0.1187 0.3249
vt 0.0957 0.3284
vt 0.1200 0.3463
vt 0.0947 0.3322
vt 0.1214 0.4045
vt 0.0625 0.4029
vt 0.1208 0.3914
vt 0.0630 0.4048
vt 0.1192 0.4196
vt 0.0645 0.4146
vt 0.0661 0.4372
vt 0.1168 0.4853
vt 0.0682 0.4628
vt 0.0674 0.4853
vt 0.0593 0.4516
vt 0.0306 0.4383
vt 0.0568 0.4270
vt 0.0312 0.4468
vt 0.0341 0.4601
vt 0.0609 0.4684
vt 0.0370 0.4725
vt 0.0609 0.4853
vt 0.0375 0.4853
vt 0.0920 0.1974
vt 0.0585 0.0000
vt 0.0849 0.0000
vt 0.0650 0.1647
vt 0.0629 0.2173
vt 0.0908 0.3302
vt 0.0606 0.2368
vt 0.0607 0.2415
vt 0.0023 0.2631
vt 0.0000 0.2658
vt 0.0000 0.2849
vt 0.0020 0.2876
vt 0.0028 0.2949
vt 0.0038 0.3144
vt 0.0025 0.3679
vt 0.1200 0.3680
vt 0.0000 0.3690
vt 0.0576 0.4036
vt 0.0000 0.4853
vt 0.0306 0.4853
vt 0.6724 0.9049
vt 0.6753 0.9256
vt 0.6724 0.9256
vt 0.6724 0.8710
vt 0.6762 0.8976
vt 0.6724 0.8976
vt 0.6724 0.8385
vt 0.6768 0.8639
vt 0.6724 0.8639
vt 0.6724 0.8119
vt 0.6795 0.8330
vt 0.6724 0.8330
vt 0.6724 0.9353
vt 0.6934 0.9464
vt 0.6724 0.9464
vt 0.6753 0.9353
vt 0.6934 0.8119
vt 0.6762 0.9049
vt 0.6768 0.8710
vt 0.6795 0.8385
vt 0.7073 0.8120
vt 0.6984 0.8151
vt 0.6976 0.8119
vt 0.6991 0.8196
vt 0.7021 0.8409
vt 0.6953 0.8459
vt 0.7073 0.8787
vt 0.6934 0.8627
vt 0.6945 0.8869
vt 0.7068 0.9219
vt 0.7030 0.9453
vt 0.7070 0.9539
vt 0.7027 0.9779
vt 0.6987 0.8264
vt 0.8238 0.8119
vt 0.8267 0.8408
vt 0.8238 0.8408
vt 0.8267 0.8119
vt 0.8238 0.8786
vt 0.8267 0.8786
vt 0.8238 0.9218
vt 0.8267 0.9218
vt 0.8238 0.9537
vt 0.8267 0.9537
vt 0.8238 0.9777
vt 0.8267 0.9777
vt 0.7073 0.9779
vt 0.7102 0.9453
vt 0.7102 0.9779
vt 0.7073 0.9453
vt 0.7102 0.8869
vt 0.7073 0.8869
vt 0.7102 0.8627
vt 0.7073 0.8627
vt 0.7102 0.8459
vt 0.7073 0.8459
vt 0.7102 0.8264
vt 0.7073 0.8264
vt 0.7102 0.8196
vt 0.7073 0.8196
vt 0.7102 0.8151
vt 0.7073 0.8151
vt 0.7102 0.8119
vt 0.7073 0.8119
vt 0.9266 0.4824
vt 0.9286 0.4010
vt 0.9286 0.4851
vt 0.9258 0.4751
vt 0.9248 0.4556
vt 0.9261 0.4021
vt 0.9508 0.7728
vt 0.9541 0.7728
vt 0.9508 0.7802
vt 0.9541 0.7802
vt 0.9508 0.7996
vt 0.9541 0.7996
vt 0.9508 0.8531
vt 0.9541 0.8531
vt 0.7479 0.4741
vt 0.7453 0.4775
vt 0.7453 0.4741
vt 0.7479 0.4775
vt 0.9839 0.9585
vt 0.9853 0.7723
vt 0.9853 0.9601
vt 0.9831 0.9565
vt 0.9826 0.9514
vt 0.9814 0.9421
vt 0.9809 0.9220
vt 0.9801 0.8914
vt 0.9779 0.8550
vt 0.9790 0.8395
vt 0.9797 0.8149
vt 0.9812 0.8010
vt 0.9795 0.8067
vt 0.9820 0.7876
vt 0.9830 0.7750
vt 0.9496 0.5647
vt 0.9541 0.5647
vt 0.9496 0.5668
vt 0.9541 0.5668
vt 0.9496 0.5719
vt 0.9541 0.5719
vt 0.9496 0.5812
vt 0.9541 0.5812
vt 0.9496 0.6014
vt 0.9541 0.6014
vt 0.9496 0.6320
vt 0.9541 0.6320
vt 0.9496 0.6684
vt 0.9541 0.6684
vt 0.9496 0.6838
vt 0.9541 0.6838
vt 0.9496 0.7085
vt 0.9541 0.7085
vt 0.9496 0.7166
vt 0.9541 0.7166
vt 0.9496 0.7223
vt 0.9541 0.7223
vt 0.9496 0.7357
vt 0.9541 0.7357
vt 0.9496 0.7483
vt 0.9541 0.7483
vt 0.9830 0.7090
vt 0.9850 0.7049
vt 0.9840 0.7128
vt 0.9817 0.7010
vt 0.9856 0.6851
vt 0.9818 0.6930
vt 0.9785 0.6690
vt 0.9841 0.6637
vt 0.9774 0.6473
vt 0.9838 0.6421
vt 0.9774 0.6238
vt 0.9827 0.6186
vt 0.9770 0.5749
vt 0.9820 0.6056
vt 0.9840 0.5904
vt 0.9856 0.5247
vt 0.9789 0.5497
vt 0.9781 0.5248
vt 0.9970 0.1880
vt 0.9990 0.1224
vt 0.9990 0.1880
vt 0.9970 0.1224
vt 0.9990 0.1073
vt 0.9970 0.1073
vt 0.9990 0.0942
vt 0.9970 0.0942
vt 0.9990 0.0708
vt 0.9970 0.0708
vt 0.9990 0.0491
vt 0.9970 0.0491
vt 0.9990 0.0277
vt 0.9970 0.0277
vt 0.9990 0.0079
vt 0.9970 0.0079
vt 0.9990 0.0000
vt 0.9970 0.0000
vt 0.2454 1.0000
vt 0.2434 0.9961
vt 0.2454 0.9961
vt 0.2434 1.0000
vt 0.2454 0.9881
vt 0.2434 0.9881
vt 0.2454 0.9801
vt 0.2434 0.9801
vt 0.2454 0.9560
vt 0.2434 0.9560
vt 0.2454 0.9342
vt 0.2434 0.9342
vt 0.2454 0.9108
vt 0.2434 0.9108
vt 0.2454 0.8619
vt 0.2434 0.8619
vt 0.2454 0.8367
vt 0.2434 0.8367
vt 0.2454 0.8119
vt 0.2434 0.8119
vt 0.9184 0.4095
vt 0.9179 0.4480
vt 0.9179 0.4010
vt 0.9214 0.4228
vt 0.9243 0.4353
vt 0.9248 0.4480
vt 0.5756 0.9483
vt 0.5778 0.9013
vt 0.5778 0.9483
vt 0.5756 0.9013
vt 0.9135 0.9334
vt 0.9158 0.9249
vt 0.9158 0.9334
vt 0.9135 0.9249
vt 0.9158 0.9115
vt 0.9135 0.9115
vt 0.9158 0.8991
vt 0.9135 0.8991
vt 0.9158 0.8863
vt 0.9135 0.8863
vt 0.8696 0.4816
vt 0.8749 0.4831
vt 0.8700 0.4836
vt 0.8774 0.4599
vt 0.8688 0.4717
vt 0.8688 0.4491
vt 0.8766 0.4352
vt 0.8685 0.4233
vt 0.8762 0.4183
vt 0.8710 0.4010
vt 0.8774 0.4015
vt 0.9033 0.4243
vt 0.9083 0.4010
vt 0.9083 0.4243
vt 0.9033 0.4010
vt 0.7598 0.4777
vt 0.7549 0.4826
vt 0.7549 0.4777
vt 0.7598 0.4826
vt 0.9033 0.4010
vt 0.8984 0.4030
vt 0.8984 0.4010
vt 0.9033 0.4030
vt 0.8984 0.4128
vt 0.9033 0.4128
vt 0.8984 0.4354
vt 0.9033 0.4354
vt 0.8984 0.4611
vt 0.9033 0.4611
vt 0.8984 0.4835
vt 0.9033 0.4835
vt 0.9033 0.4827
vt 0.9083 0.4658
vt 0.9083 0.4827
vt 0.9033 0.4658
vt 0.9083 0.4489
vt 0.9033 0.4489
vt 0.5838 0.9586
vt 0.5937 0.9653
vt 0.5865 0.9652
vt 0.5901 0.7678
vt 0.5829 0.9449
vt 0.5813 0.9136
vt 0.5808 0.8476
vt 0.5843 0.7636
vt 0.5937 0.6350
vt 0.5844 0.6869
vt 0.5866 0.6545
vt 0.5888 0.6368
vt 0.5898 0.6330
vt 0.9323 0.4853
vt 0.9285 0.4919
vt 0.9285 0.4853
vt 0.9323 0.4919
vt 0.9285 0.5056
vt 0.9323 0.5056
vt 0.9285 0.5368
vt 0.9323 0.5368
vt 0.9285 0.6029
vt 0.9323 0.6029
vt 0.9285 0.6868
vt 0.9323 0.6868
vt 0.9285 0.7636
vt 0.9323 0.7636
vt 0.9285 0.7960
vt 0.9323 0.7960
vt 0.9285 0.8137
vt 0.9323 0.8137
vt 0.9285 0.8175
vt 0.9323 0.8175
vt 0.7631 0.4777
vt 0.7670 0.4816
vt 0.7631 0.4816
vt 0.7670 0.4777
vt 0.9904 0.8550
vt 0.9942 0.7222
vt 0.9942 0.8550
vt 0.9904 0.7222
vt 0.9942 0.5247
vt 0.9904 0.5247
vt 0.9770 0.6898
vt 0.9701 0.5247
vt 0.9770 0.5250
vt 0.9661 0.5994
vt 0.9676 0.7025
vt 0.9729 0.7423
vt 0.9666 0.7723
vt 0.9698 0.7617
vt 0.9697 0.7664
vt 0.9942 0.7722
vt 0.9987 0.6074
vt 0.9987 0.7722
vt 0.9942 0.6074
vt 0.9987 0.5549
vt 0.9942 0.5549
vt 0.9987 0.5354
vt 0.9942 0.5354
vt 0.9987 0.5307
vt 0.9942 0.5307
vt 0.9987 0.5247
vt 0.9942 0.5247
vt 0.9934 0.4390
vt 0.9979 0.3692
vt 0.9979 0.4390
vt 0.9934 0.3692
vt 0.9979 0.2662
vt 0.9934 0.2662
vt 0.9979 0.1915
vt 0.9934 0.1915
vt 0.9672 0.9630
vt 0.9724 0.9664
vt 0.9670 0.9660
vt 0.9773 0.9151
vt 0.9693 0.9360
vt 0.9677 0.9034
vt 0.9779 0.9015
vt 0.9666 0.8629
vt 0.9751 0.8842
vt 0.9721 0.8640
vt 0.9725 0.8466
vt 0.9661 0.8512
vt 0.9670 0.8391
vt 0.9779 0.7817
vt 0.9731 0.7891
vt 0.9742 0.7746
vt 0.9778 0.7723
vt 0.9789 0.1915
vt 0.9861 0.1885
vt 0.9861 0.1915
vt 0.9789 0.1885
vt 0.9861 0.1614
vt 0.9789 0.1614
vt 0.9861 0.1290
vt 0.9789 0.1290
vt 0.9861 0.0887
vt 0.9789 0.0887
vt 0.9861 0.0770
vt 0.9789 0.0770
vt 0.9861 0.0649
vt 0.9789 0.0649
vt 0.9861 0.0146
vt 0.9789 0.0146
vt 0.9861 0.0000
vt 0.9789 0.0000
vt 0.7631 0.4777
vt 0.7598 0.4849
vt 0.7598 0.4777
vt 0.7631 0.4849
vt 0.3112 0.9930
vt 0.3184 0.9837
vt 0.3184 0.9930
vt 0.3112 0.9837
vt 0.3184 0.9185
vt 0.3112 0.9185
vt 0.3184 0.9011
vt 0.3112 0.9011
vt 0.3184 0.8812
vt 0.3112 0.8812
vt 0.3184 0.8641
vt 0.3112 0.8641
vt 0.3184 0.8504
vt 0.3112 0.8504
vt 0.3184 0.7990
vt 0.3112 0.7990
vt 0.9286 0.4661
vt 0.9328 0.4010
vt 0.9328 0.4661
vt 0.9286 0.4010
vt 0.9289 0.8568
vt 0.9331 0.9542
vt 0.9289 0.9542
vt 0.9331 0.8568
vt 0.7916 0.3266
vt 0.7271 0.4240
vt 0.7271 0.3266
vt 0.7916 0.4240
vt 0.9093 0.8863
vt 0.9135 0.9837
vt 0.9093 0.9837
vt 0.9135 0.8863
vt 0.5312 0.9013
vt 0.5354 0.9664
vt 0.5312 0.9664
vt 0.5354 0.9013
vt 0.2464 0.7462
vt 0.2605 0.7462
vt 0.2605 0.6067
vt 0.2464 0.5944
vt 0.2794 0.6067
vt 0.2674 0.5944
vt 0.2794 0.5325
vt 0.2677 0.5213
vt 0.2674 0.4853
vt 0.2677 0.4917
vt 0.2794 0.4917
vt 0.2794 0.4853
vt 0.9904 0.7885
vt 0.9856 0.7885
vt 0.9856 0.9403
vt 0.9904 0.9403
vt 0.2955 0.9336
vt 0.2955 0.9124
vt 0.2907 0.9124
vt 0.2907 0.9336
vt 0.8177 0.4675
vt 0.8177 0.4818
vt 0.8225 0.4818
vt 0.8225 0.4675
vt 0.8443 0.8863
vt 0.8395 0.8863
vt 0.8395 0.9954
vt 0.8443 0.9954
vt 1.0000 0.8550
vt 0.9952 0.8550
vt 0.9952 0.9945
vt 1.0000 0.9945
vt 0.8321 0.4796
vt 0.8273 0.4675
vt 0.8321 0.4675
vt 0.8273 0.4796
vt 0.2955 0.9124
vt 0.2955 0.9315
vt 0.3003 0.9315
vt 0.3003 0.9124
vt 0.7549 0.4777
vt 0.7501 0.4841
vt 0.7501 0.4777
vt 0.7549 0.4841
vt 0.9131 0.4010
vt 0.9131 0.4752
vt 0.9179 0.4752
vt 0.9179 0.4010
vt 0.2559 0.9243
vt 0.2559 0.9125
vt 0.2511 0.9125
vt 0.2511 0.9243
vt 0.3051 0.9124
vt 0.3099 0.9243
vt 0.3051 0.9242
vt 0.3099 0.9125
vt 0.5509 0.9013
vt 0.5461 0.9309
vt 0.5461 0.9013
vt 0.5509 0.9309
vt 0.7333 0.4741
vt 0.7394 0.4851
vt 0.7333 0.4851
vt 0.7394 0.4741
vt 0.8333 0.8863
vt 0.8272 0.9953
vt 0.8272 0.8863
vt 0.8333 0.9953
vt 0.4253 0.8801
vt 0.4923 0.7690
vt 0.4370 0.8858
vt 0.4872 0.7493
vt 0.5312 0.9410
vt 0.5199 0.9465
vt 0.5015 0.7497
vt 0.4702 0.7411
vt 0.4846 0.7361
vt 0.5214 0.6330
vt 0.5312 0.6377
vt 0.5036 0.7453
vt 0.9227 0.9766
vt 0.9289 0.8568
vt 0.9289 0.9766
vt 0.9227 0.8568
vt 0.5509 0.9013
vt 0.5571 0.9225
vt 0.5509 0.9225
vt 0.5571 0.9013
vt 0.7805 0.9890
vt 0.7867 0.9841
vt 0.7867 0.9890
vt 0.7805 0.9841
vt 0.7867 0.8216
vt 0.7805 0.8216
vt 0.7867 0.8119
vt 0.7805 0.8119
vt 0.7991 0.8119
vt 0.7929 0.9608
vt 0.7929 0.8119
vt 0.7991 0.9608
vt 0.8238 0.8119
vt 0.8176 0.9412
vt 0.8176 0.8119
vt 0.8238 0.9412
vt 0.7977 0.4847
vt 0.7916 0.4716
vt 0.7977 0.4716
vt 0.7916 0.4847
vt 0.8052 0.9569
vt 0.8114 0.8119
vt 0.8114 0.9569
vt 0.8052 0.8119
vt 0.5694 0.9204
vt 0.5632 0.9013
vt 0.5694 0.9013
vt 0.5632 0.9204
vt 0.3125 0.6067
vt 0.2936 0.6067
vt 0.3004 0.5944
vt 0.3125 0.5325
vt 0.3008 0.5213
vt 0.3004 0.4853
vt 0.3008 0.4917
vt 0.3125 0.4917
vt 0.3125 0.4853
vt 0.2936 0.7462
vt 0.2794 0.7462
vt 0.2794 0.5944
vt 0.1041 0.7990
vt 0.0396 0.8964
vt 0.0396 0.7990
vt 0.1041 0.8964
vt 0.0945 0.9615
vt 0.0986 0.8964
vt 0.0986 0.9615
vt 0.0945 0.8964
vt 0.9052 0.8863
vt 0.9093 0.9837
vt 0.9052 0.9837
vt 0.9093 0.8863
vt 0.1028 0.8964
vt 0.0986 0.9615
vt 0.0986 0.8964
vt 0.1028 0.9615
vt 0.7743 0.8928
vt 0.7785 0.9902
vt 0.7743 0.9902
vt 0.7785 0.8928
vt 0.9285 0.8485
vt 0.9285 0.4853
vt 0.9165 0.4888
vt 0.9165 0.8532
vt 0.9199 0.8568
vt 0.5808 0.6334
vt 0.5808 0.9013
vt 0.5560 0.9009
vt 0.5560 0.6330
vt 0.9541 0.5282
vt 0.9661 0.5247
vt 0.9661 0.8880
vt 0.9541 0.8927
vt 0.9574 0.8963
vt 0.9789 0.2679
vt 0.9789 0.0000
vt 0.9541 0.0003
vt 0.9541 0.2683
vt 0.9970 0.1518
vt 0.9922 0.1518
vt 0.9922 0.0000
vt 0.9970 0.0000
vt 0.8225 0.4818
vt 0.8225 0.4675
vt 0.8273 0.4675
vt 0.8273 0.4818
vt 0.2859 0.9336
vt 0.2859 0.9124
vt 0.2907 0.9124
vt 0.2907 0.9336
vt 0.9904 0.9946
vt 0.9904 0.8550
vt 0.9952 0.8550
vt 0.9952 0.9946
vt 0.8491 0.9953
vt 0.8443 0.9953
vt 0.8443 0.8863
vt 0.8491 0.8863
vt 0.3003 0.9315
vt 0.3003 0.9124
vt 0.3051 0.9124
vt 0.3051 0.9315
vt 0.8146 0.4716
vt 0.8146 0.4838
vt 0.8098 0.4838
vt 0.8098 0.4716
vt 0.9083 0.4010
vt 0.9131 0.4010
vt 0.9131 0.4752
vt 0.9083 0.4752
vt 0.7453 0.4777
vt 0.7501 0.4777
vt 0.7501 0.4841
vt 0.7453 0.4841
vt 0.2464 0.9243
vt 0.2464 0.9125
vt 0.2511 0.9125
vt 0.2511 0.9243
vt 0.2607 0.9125
vt 0.2607 0.9243
vt 0.2559 0.9243
vt 0.2559 0.9125
vt 0.5461 0.9309
vt 0.5413 0.9309
vt 0.5413 0.9013
vt 0.5461 0.9013
vt 0.7991 0.9608
vt 0.8052 0.8119
vt 0.8052 0.9608
vt 0.7991 0.8119
vt 0.7867 0.9792
vt 0.7929 0.9890
vt 0.7867 0.9890
vt 0.7929 0.9792
vt 0.4253 0.6385
vt 0.3864 0.8105
vt 0.4140 0.6330
vt 0.3955 0.8299
vt 0.3813 0.8303
vt 0.3643 0.8385
vt 0.3787 0.8434
vt 0.4155 0.9466
vt 0.3976 0.8342
vt 0.4253 0.9418
vt 0.3193 0.6994
vt 0.3311 0.6938
vt 0.9227 0.9861
vt 0.9165 0.8568
vt 0.9227 0.8568
vt 0.9165 0.9861
vt 0.7929 0.8168
vt 0.7867 0.8168
vt 0.7929 0.8119
vt 0.7867 0.8119
vt 0.5571 0.9013
vt 0.5632 0.9225
vt 0.5571 0.9225
vt 0.5632 0.9013
vt 0.8333 0.9953
vt 0.8395 0.8863
vt 0.8395 0.9953
vt 0.8333 0.8863
vt 0.7271 0.4741
vt 0.7333 0.4851
vt 0.7271 0.4851
vt 0.7333 0.4741
vt 0.9861 0.0000
vt 0.9922 0.1198
vt 0.9861 0.1198
vt 0.9922 0.0000
vt 0.5756 0.9204
vt 0.5694 0.9013
vt 0.5756 0.9013
vt 0.5694 0.9204
vt 0.8114 0.9569
vt 0.8176 0.8119
vt 0.8176 0.9569
vt 0.8114 0.8119
vt 0.7977 0.4716
vt 0.8039 0.4847
vt 0.7977 0.4847
vt 0.8039 0.4716
vt 0.5939 0.3288
vt 0.5939 0.1565
vt 0.7019 0.1565
vt 0.7019 0.1108
vt 0.7019 0.0858
vt 0.7119 0.0858
vt 0.7119 0.3995
vt 0.7019 0.1301
vt 0.7019 0.3288
vt 0.7019 0.3552
vt 0.7019 0.3745
vt 0.7019 0.3995
vt 0.7105 0.7422
vt 0.7807 0.6416
vt 0.7293 0.7512
vt 0.7721 0.6112
vt 0.8272 0.8023
vt 0.8077 0.8119
vt 0.7964 0.6082
vt 0.7760 0.6029
vt 0.8131 0.4955
vt 0.7651 0.5976
vt 0.7809 0.5919
vt 0.8272 0.4933
vt 0.8218 0.4908
vt 0.7998 0.6010
vt 0.5939 0.1301
vt 0.9331 0.1565
vt 0.9541 0.1565
vt 0.9541 0.3287
vt 0.9331 0.3287
vt 0.2464 0.4949
vt 0.1999 0.6555
vt 0.2269 0.4853
vt 0.2156 0.6889
vt 0.1913 0.6860
vt 0.1952 0.6943
vt 0.1843 0.6995
vt 0.2000 0.7053
vt 0.2323 0.8017
vt 0.2190 0.6962
vt 0.2464 0.8039
vt 0.2410 0.8064
vt 0.1297 0.5550
vt 0.1484 0.5460
vt 0.5939 0.3552
vt 0.8677 0.9127
vt 0.8618 0.9127
vt 0.8618 0.8863
vt 0.8677 0.8863
vt 0.5939 0.3745
vt 0.8922 0.9306
vt 0.8981 0.9113
vt 0.8981 0.9306
vt 0.8922 0.9113
vt 0.5413 0.9264
vt 0.5354 0.9264
vt 0.5354 0.9013
vt 0.5413 0.9013
vt 0.5939 0.3995
vt 0.8039 0.4716
vt 0.8098 0.4816
vt 0.8039 0.4816
vt 0.8098 0.4716
vt 0.5939 0.4853
vt 0.5939 0.0858
vt 0.5939 0.0000
vt 0.7271 0.0000
vt 0.7271 0.4853
vt 0.0000 0.0000
vt 0.0000 0.0000
vt 0.0000 0.0000
vt 0.3184 0.4853
vt 0.3125 0.7990
vt 0.3125 0.4853
vt 0.3184 0.7990
vt 0.7394 0.4741
vt 0.7453 0.4841
vt 0.7394 0.4841
vt 0.7453 0.4741
vt 0.7557 0.8928
vt 0.7616 0.8928
vt 0.7616 0.9179
vt 0.7557 0.9179
vt 0.5939 0.1108
vt 0.8863 0.9306
vt 0.8922 0.9113
vt 0.8922 0.9306
vt 0.8863 0.9113
vt 0.8677 0.8863
vt 0.8736 0.8863
vt 0.8736 0.9127
vt 0.8677 0.9127
vt 0.3193 0.1565
vt 0.3193 0.1301
vt 0.1820 0.9566
vt 0.1559 0.8119
vt 0.1820 0.8119
vt 0.1559 0.9566
vt 0.6724 0.8119
vt 0.6462 0.9331
vt 0.6462 0.8119
vt 0.6724 0.9331
vt 0.7705 0.4754
vt 0.7912 0.4490
vt 0.7912 0.4754
vt 0.7705 0.4490
vt 0.8177 0.4716
vt 0.7916 0.4716
vt 0.7916 0.3266
vt 0.8177 0.3266
vt 0.8104 0.4853
vt 0.7612 0.6059
vt 0.7550 0.6030
vt 0.2343 0.8119
vt 0.2434 0.9842
vt 0.2343 0.9842
vt 0.2434 0.8119
vt 0.7315 0.9842
vt 0.7436 0.8119
vt 0.7436 0.9842
vt 0.7315 0.8119
vt 0.0178 0.7283
vt 0.0301 0.7178
vt 0.1297 0.7283
vt 0.0178 0.5560
vt 0.0301 0.6527
vt 0.0301 0.6316
vt 0.1265 0.6527
vt 0.0301 0.5665
vt 0.1265 0.5665
vt 0.1265 0.7178
vt 0.1297 0.5560
vt 0.1265 0.6316
vt 0.0099 0.5560
vt 0.0099 0.7283
vt 0.9541 0.1301
vt 0.9331 0.1301
vt 0.6944 0.4919
vt 0.6641 0.6555
vt 0.6911 0.4853
vt 0.6663 0.6693
vt 0.6126 0.5460
vt 0.6114 0.5524
vt 0.5939 0.5550
vt 0.7105 0.4949
vt 0.7057 0.4975
vt 0.6798 0.6889
vt 0.6754 0.6887
vt 0.6775 0.6931
vt 0.6832 0.6962
vt 0.6585 0.7022
vt 0.6642 0.7053
vt 0.7048 0.8008
vt 0.7105 0.8039
vt 0.6950 0.8055
vt 0.5996 0.5581
vt 0.6555 0.6860
vt 0.6612 0.6891
vt 0.6384 0.6942
vt 0.6441 0.6972
vt 0.6937 0.8119
vt 0.0000 0.0000
vt 0.0000 0.0000
vt 0.0000 0.0000
vt 0.9331 0.3551
vt 0.9541 0.3551
vt 0.1804 0.6912
vt 0.1742 0.6942
vt 0.2296 0.8119
vt 0.1559 0.9569
vt 0.1297 0.9569
vt 0.1297 0.8119
vt 0.1559 0.8119
vt 0.7497 0.4754
vt 0.7705 0.4490
vt 0.7705 0.4754
vt 0.7497 0.4490
vt 0.6462 0.8119
vt 0.6201 0.9331
vt 0.6201 0.8119
vt 0.6462 0.9331
vt 0.2082 0.8119
vt 0.1820 0.9566
vt 0.1820 0.8119
vt 0.2082 0.9566
vt 0.3193 0.3552
vt 0.3193 0.3288
vt 0.7716 0.1177
vt 0.7773 0.1147
vt 0.7887 0.1259
vt 0.8269 0.0000
vt 0.8282 0.0064
vt 0.8380 0.0111
vt 0.7917 0.1097
vt 0.7974 0.1066
vt 0.8107 0.1188
vt 0.8437 0.0080
vt 0.0000 0.0000
vt 0.0000 0.0000
vt 0.0000 0.0000
vt 0.8276 0.3200
vt 0.8437 0.3170
vt 0.8243 0.3266
vt 0.8389 0.3144
vt 0.8130 0.1230
vt 0.8086 0.1232
vt 0.8164 0.1157
vt 0.7328 0.2538
vt 0.7271 0.2569
vt 0.7944 0.1228
vt 0.7458 0.2659
vt 0.7446 0.2595
vt 0.7973 0.1564
vt 0.7995 0.1426
vt 0.0000 0.4853
vt 0.0099 0.7990
vt 0.0000 0.7990
vt 0.0099 0.7740
vt 0.0099 0.7547
vt 0.0099 0.5296
vt 0.0099 0.5103
vt 0.0099 0.4853
vt 0.8491 0.9127
vt 0.8491 0.8863
vt 0.9331 0.3744
vt 0.9541 0.3744
vt 0.9331 0.0078
vt 0.9089 0.0000
vt 0.8986 0.3528
vt 0.9223 0.3769
vt 0.8569 0.3104
vt 0.8437 0.3237
vt 0.9199 0.4010
vt 0.9331 0.3878
vt 0.0000 0.0000
vt 0.0000 0.0000
vt 0.0000 0.0000
vt 0.5831 0.6065
vt 0.5886 0.6029
vt 0.4493 0.6109
vt 0.4451 0.6144
vt 0.4482 0.5919
vt 0.4440 0.5954
vt 0.3682 0.5965
vt 0.3706 0.5996
vt 0.3603 0.6120
vt 0.5939 0.6235
vt 0.5929 0.6059
vt 0.5839 0.6208
vt 0.4295 0.6330
vt 0.5929 0.6056
vt 0.5927 0.6023
vt 0.4337 0.6294
vt 0.4325 0.6083
vt 0.4283 0.6118
vt 0.3246 0.6145
vt 0.3204 0.6180
vt 0.3193 0.5993
vt 0.0000 0.0000
vt 0.0000 0.0000
vt 0.0000 0.0000
vt 0.5939 0.3270
vt 0.5880 0.3243
vt 0.5862 0.3265
vt 0.3538 0.6039
vt 0.3310 0.6137
vt 0.3420 0.6045
vt 0.3417 0.5996
vt 0.3346 0.5984
vt 0.3303 0.6019
vt 0.3239 0.6023
vt 0.5748 0.3213
vt 0.5707 0.3165
vt 0.5766 0.3192
vt 0.5886 0.6026
vt 0.0701 0.9214
vt 0.0828 0.9214
vt 0.0828 0.8964
vt 0.0701 0.8964
vt 0.9541 0.3995
vt 0.9331 0.3995
vt 0.9331 0.0000
vt 0.9541 0.0000
vt 0.9541 0.0857
vt 0.9331 0.0857
vt 0.5886 0.2861
vt 0.5927 0.2859
vt 0.5929 0.2892
vt 0.5929 0.2894
vt 0.5939 0.3070
vt 0.5886 0.2864
vt 0.5707 0.0000
vt 0.5766 0.0027
vt 0.5748 0.0049
vt 0.3417 0.2832
vt 0.3346 0.2819
vt 0.3420 0.2881
vt 0.3193 0.2828
vt 0.3303 0.2855
vt 0.3239 0.2858
vt 0.3246 0.2980
vt 0.4325 0.2918
vt 0.4337 0.3129
vt 0.4283 0.2953
vt 0.3204 0.3015
vt 0.0000 0.0000
vt 0.0000 0.0000
vt 0.5880 0.0078
vt 0.5939 0.0105
vt 0.3682 0.2800
vt 0.5862 0.0100
vt 0.3538 0.2874
vt 0.3603 0.2955
vt 0.3310 0.2972
vt 0.4482 0.2754
vt 0.4493 0.2944
vt 0.4440 0.2789
vt 0.3706 0.2831
vt 0.4295 0.3165
vt 0.5839 0.3043
vt 0.5831 0.2900
vt 0.4451 0.2979
vt 0.9541 0.4852
vt 0.9331 0.4852
vt 0.7743 0.8928
vt 0.7743 0.9179
vt 0.9034 0.8863
vt 0.8272 0.8089
vt 0.8403 0.7957
vt 0.8821 0.8380
vt 0.9058 0.8621
vt 0.9165 0.8730
vt 0.0000 0.0000
vt 0.0000 0.0000
vt 0.0000 0.0000
vt 0.8924 0.4853
vt 0.9165 0.4931
vt 0.9541 0.1108
vt 0.9331 0.1108
vt 0.8863 0.8863
vt 0.8863 0.9127
vt 0.8774 0.4261
vt 0.8963 0.4261
vt 0.8963 0.4525
vt 0.8895 0.4525
vt 0.8774 0.4525
vt 0.7557 0.8119
vt 0.7436 0.9842
vt 0.7436 0.8119
vt 0.7557 0.9842
vt 0.2343 0.8119
vt 0.2343 0.9422
vt 0.2082 0.9422
vt 0.2082 0.8119
vt 0.5939 0.8119
vt 0.6201 0.8119
vt 0.6201 0.9422
vt 0.5939 0.9422
vt 0.8895 0.4525
vt 0.8963 0.4525
vt 0.8963 0.4788
vt 0.8774 0.4788
vt 0.8774 0.4525
vt 0.2859 0.7462
vt 0.2649 0.9125
vt 0.2859 0.9125
vt 0.2652 0.9083
vt 0.2652 0.7674
vt 0.2464 0.7674
vt 0.2464 0.7462
vt 0.0000 0.0000
vt 0.0000 0.0000
vt 0.0000 0.0000
vt 0.2649 0.9083
vt 0.8437 0.4820
vt 0.8685 0.4820
vt 0.8685 0.4607
vt 0.8685 0.4010
vt 0.8437 0.4010
vt 0.5312 0.6448
vt 0.5560 0.9013
vt 0.5312 0.9009
vt 0.5560 0.6452
vt 0.7497 0.4741
vt 0.7271 0.4490
vt 0.7497 0.4490
vt 0.7271 0.4741
vt 0.3193 0.4853
vt 0.3193 0.5109
vt 0.3193 0.5044
vt 0.3193 0.4918
vt 0.0548 0.9214
vt 0.0548 0.8964
vt 0.0396 0.8964
vt 0.0396 0.9214
vt 0.8774 0.4261
vt 0.8984 0.4010
vt 0.8984 0.4261
vt 0.8951 0.4010
vt 0.8949 0.4010
vt 0.8774 0.4010
vt 0.3192 0.4855
vt 0.3189 0.4855
vt 0.3189 0.4853
vt 0.3192 0.4853
vt 0.2859 0.9124
vt 0.3108 0.9124
vt 0.3108 0.7462
vt 0.2859 0.7462
vt 0.9789 0.1964
vt 0.9838 0.4610
vt 0.9790 0.4609
vt 0.9837 0.1965
vt 0.9790 0.1915
vt 0.9838 0.1916
vt 0.8321 0.4675
vt 0.8321 0.4795
vt 0.8369 0.4795
vt 0.8369 0.4675
vt 0.9934 0.4551
vt 0.9934 0.1915
vt 0.9886 0.1916
vt 0.9886 0.4552
vt 0.8863 0.9113
vt 0.9052 0.9113
vt 0.9052 0.8863
vt 0.8863 0.8863
vt 0.8177 0.4675
vt 0.8425 0.4675
vt 0.8425 0.3266
vt 0.8177 0.3266
vt 0.3184 0.5103
vt 0.3187 0.4853
vt 0.3187 0.5103
vt 0.3184 0.4853
vt 0.9220 0.4731
vt 0.9220 0.4480
vt 0.9179 0.4480
vt 0.9179 0.4731
vt 0.0701 0.8964
vt 0.0701 0.9214
vt 0.0548 0.9214
vt 0.0548 0.8964
vt 0.2979 0.0858
vt 0.2979 0.1108
vt 0.7677 0.4240
vt 0.7710 0.4240
vt 0.7710 0.4490
vt 0.7499 0.4490
vt 0.7674 0.4240
vt 0.7499 0.4240
vt 0.5932 0.2891
vt 0.5932 0.2894
vt 0.9022 0.9113
vt 0.9022 0.9364
vt 0.8981 0.9364
vt 0.8981 0.9113
vt 0.3189 0.5103
vt 0.3187 0.5103
vt 0.3187 0.4853
vt 0.3189 0.4853
vt 0.1041 0.7990
vt 0.1289 0.7990
vt 0.1289 0.9398
vt 0.1041 0.9398
vt 0.7710 0.4240
vt 0.7898 0.4240
vt 0.7898 0.4490
vt 0.7710 0.4490
vt 0.7557 0.8928
vt 0.7557 0.8119
vt 0.7805 0.8119
vt 0.7805 0.8928
vt 0.0000 0.0000
vt 0.0000 0.0000
vt 0.0000 0.0000
vt 0.9541 0.5247
vt 0.9541 0.2686
vt 0.9789 0.2683
vt 0.9789 0.5244
vt 0.7499 0.4240
vt 0.7499 0.4490
vt 0.7441 0.4490
vt 0.7329 0.4490
vt 0.7271 0.4490
vt 0.7271 0.4240
vt 0.9904 0.5248
vt 0.9904 0.7885
vt 0.9856 0.7884
vt 0.9856 0.5247
vt 0.8417 0.4795
vt 0.8369 0.4795
vt 0.8369 0.4675
vt 0.8417 0.4675
vt 0.9839 0.4610
vt 0.9838 0.4560
vt 0.9886 0.4560
vt 0.9886 0.4609
vt 0.9839 0.1916
vt 0.9886 0.1915
vt 0.0000 0.7990
vt 0.0189 0.8203
vt 0.0000 0.8203
vt 0.0186 0.9611
vt 0.0396 0.9653
vt 0.0186 0.9653
vt 0.0189 0.9611
vt 0.0396 0.7990
vt 0.0000 0.0000
vt 0.0000 0.0000
vt 0.5312 0.6330
vt 0.5560 0.6334
vt 0.2655 0.9238
vt 0.2607 0.9238
vt 0.2607 0.9125
vt 0.2655 0.9125
vt 0.0828 0.9216
vt 0.0945 0.8964
vt 0.0945 0.9214
vt 0.0828 0.8966
vt 0.2655 0.9237
vt 0.2703 0.9125
vt 0.2703 0.9237
vt 0.2655 0.9125
vn 0.8245 0.5659 0.0000
vn 0.0000 0.0000 -1.0000
vn 0.0000 1.0000 0.0000
vn 1.0000 -0.0000 0.0000
vn 0.0000 0.0000 1.0000
vn 0.0000 0.9862 0.1654
vn 0.0000 0.9887 -0.1497
vn 0.0000 1.0000 -0.0018
vn 0.0000 0.9998 -0.0210
vn 0.0000 0.9859 0.1676
vn 0.0000 -1.0000 0.0026
vn 0.0000 -0.9875 0.1577
vn 0.0000 -0.9981 0.0615
vn 0.0000 -0.9946 -0.1035
vn 0.0000 -0.9946 -0.1034
vn 0.0000 -0.9872 -0.1594
vn 0.0000 -0.9988 -0.0489
vn 0.0000 -0.9874 0.1585
vn 0.0000 -0.9656 0.2599
vn 0.0000 0.8013 -0.5983
vn 0.0000 0.9943 -0.1062
vn 0.0000 0.9986 -0.0522
vn 0.0000 0.9997 0.0235
vn 0.0000 0.3934 0.9194
vn 0.0000 0.7480 -0.6637
vn 0.0000 0.9346 -0.3556
vn 0.0000 0.9949 -0.1012
vn 0.0000 0.9949 -0.1013
vn 0.0000 0.9925 -0.1224
vn 0.0000 0.9996 -0.0289
vn 0.0000 0.9997 -0.0254
vn 0.0000 0.9981 -0.0608
vn 0.0000 0.9976 0.0687
vn 0.0000 0.9996 0.0287
vn 0.0000 0.9998 -0.0175
vn 0.0000 0.9595 0.2818
vn 0.0000 0.9980 0.0635
vn 0.0000 0.9969 0.0792
vn 0.0000 0.7631 0.6463
vn 0.0000 -0.9993 -0.0375
vn 0.0000 -0.9897 -0.1428
vn 0.0000 -0.9990 0.0438
vn 0.0000 -0.9994 0.0360
vn 0.0000 -1.0000 -0.0021
vn 0.0000 -0.9981 0.0609
vn 0.0000 -0.9991 -0.0422
vn 0.0000 -0.9896 -0.1439
vn 0.0000 0.9711 -0.2388
vn 0.0000 0.9892 -0.1468
vn 0.0000 0.9998 0.0206
vn 0.0000 0.9922 -0.1248
vn 0.0000 0.9993 -0.0378
vn 0.0000 0.9999 0.0129
vn 0.0000 1.0000 0.0042
vn 0.0000 0.9962 0.0871
vn 0.0000 0.9998 -0.0198
vn 0.0000 -1.0000 0.0000
vn 0.0000 0.9975 -0.0700
vn 0.0000 0.9764 -0.2159
vn 0.0000 0.9727 -0.2319
vn 0.0000 0.9991 -0.0413
vn 0.0000 -0.9993 -0.0373
vn 0.0000 -0.1592 -0.9872
vn 0.0000 0.9687 -0.2481
vn 0.0000 0.9880 -0.1545
vn 0.0000 0.9975 -0.0713
vn 0.0000 0.9966 -0.0829
vn 0.0000 0.9993 0.0375
vn 0.0000 -1.0000 0.0023
vn 0.0000 -0.9957 0.0929
vn 0.0000 -0.9945 0.1044
vn 0.0000 0.9158 -0.4017
vn 0.0000 0.9968 -0.0793
vn 0.0000 0.9974 -0.0714
vn 0.0000 0.9997 -0.0250
vn 0.0000 0.9997 0.0244
vn 0.0000 0.9999 -0.0166
vn 0.0000 0.9987 0.0508
vn 0.0000 0.9949 0.1013
vn 0.0000 0.9704 0.2416
vn 0.0000 -0.4488 0.8936
vn 0.0000 -1.0000 -0.0092
vn 0.0000 -0.9993 0.0361
vn 0.0000 0.9992 -0.0398
vn 0.0000 0.9992 0.0398
vn 0.0000 0.9932 0.1167
vn 0.0000 1.0000 -0.0053
vn 0.0000 0.9041 0.4274
vn 0.0000 -0.9997 0.0256
vn 0.0000 -0.9985 0.0549
vn 0.0000 -0.9999 -0.0145
vn 0.0000 1.0000 -0.0003
vn 0.0000 1.0000 -0.0007
vn 0.0000 1.0000 -0.0010
vn 0.0000 0.9917 -0.1287
vn 0.0000 0.9945 -0.1051
vn 0.0000 0.9925 -0.1222
vn 0.0000 1.0000 -0.0022
vn 0.0000 0.9990 0.0445
vn 0.0000 1.0000 -0.0019
vn 0.0000 0.6029 0.7978
vn 0.0000 -0.9956 0.0935
vn 0.0000 -1.0000 -0.0058
vn 0.0000 -0.9985 0.0548
vn 0.0000 -0.9735 0.2289
vn 0.0000 -0.9714 0.2372
vn 0.0000 -0.9994 0.0339
vn 0.0000 -0.9998 -0.0176
vn -1.0000 -0.0000 0.0000
vn -0.6881 0.7256 0.0000
vn -0.8245 -0.5659 0.0000
vn -0.7826 0.6225 0.0000
vn 0.6881 -0.7256 0.0000
vn 0.7826 -0.6225 -0.0000
vn -0.8043 0.5942 0.0000
vn 0.0004 0.0000 1.0000
vn 0.0002 0.0000 1.0000
vn -0.0002 0.0000 1.0000
vn 0.8881 0.4597 0.0000
vn -0.3487 0.0000 -0.9372
vn 0.5240 0.0000 -0.8517
vn 0.5239 -0.0000 -0.8518
vn 0.5240 0.0001 -0.8517
vn -0.8881 -0.4597 -0.0000
usemtl _0135_DarkGray.001
s 1
f 426/1/1 378/2/1 375/3/1
f 378/2/1 426/1/1 417/4/1
f 365/5/1 403/6/1 405/7/1
f 403/6/1 365/5/1 367/8/1
f 393/9/2 88/10/2 473/11/2
f 88/10/2 393/9/2 397/12/2
f 88/10/2 397/12/2 86/13/2
f 86/13/2 397/12/2 89/14/2
f 89/14/2 397/12/2 128/15/2
f 128/15/2 397/12/2 129/16/2
f 129/16/2 397/12/2 138/17/2
f 138/17/2 397/12/2 112/18/2
f 112/18/2 397/12/2 108/19/2
f 108/19/2 397/12/2 113/20/2
f 113/20/2 397/12/2 499/21/2
f 118/22/2 138/17/2 112/18/2
f 137/23/2 89/14/2 128/15/2
f 106/24/2 473/11/2 88/10/2
f 396/25/3 43/26/3 397/27/3
f 43/26/3 396/25/3 500/28/3
f 43/26/3 500/28/3 56/29/3
f 70/30/3 31/31/3 42/32/3
f 31/31/3 70/30/3 35/33/3
f 397/27/3 30/34/3 499/35/3
f 30/34/3 397/27/3 42/32/3
f 42/32/3 397/27/3 43/26/3
f 30/34/3 42/32/3 31/31/3
f 499/35/3 30/34/3 40/36/3
f 183/37/4 202/38/4 184/39/4
f 202/38/4 183/37/4 203/40/4
f 203/40/4 183/37/4 204/41/4
f 204/41/4 183/37/4 205/42/4
f 205/42/4 183/37/4 206/43/4
f 206/43/4 183/37/4 182/44/4
f 206/43/4 182/44/4 207/45/4
f 207/45/4 182/44/4 208/46/4
f 208/46/4 182/44/4 209/47/4
f 209/47/4 182/44/4 210/48/4
f 210/48/4 182/44/4 181/49/4
f 210/48/4 181/49/4 211/50/4
f 211/50/4 181/49/4 64/51/4
f 64/51/4 181/49/4 65/52/4
f 65/52/4 181/49/4 66/53/4
f 66/53/4 181/49/4 67/54/4
f 67/54/4 181/49/4 68/55/4
f 217/56/4 500/57/4 218/58/4
f 500/57/4 217/56/4 56/59/4
f 56/59/4 217/56/4 216/60/4
f 56/59/4 216/60/4 215/61/4
f 56/59/4 215/61/4 57/62/4
f 57/62/4 215/61/4 58/63/4
f 58/63/4 215/61/4 59/64/4
f 59/64/4 215/61/4 214/65/4
f 59/64/4 214/65/4 60/66/4
f 60/66/4 214/65/4 61/67/4
f 61/67/4 214/65/4 213/68/4
f 61/67/4 213/68/4 62/69/4
f 62/69/4 213/68/4 212/70/4
f 62/69/4 212/70/4 63/71/4
f 63/71/4 212/70/4 64/51/4
f 64/51/4 212/70/4 211/50/4
f 27/72/4 154/73/4 28/74/4
f 154/73/4 27/72/4 155/75/4
f 155/75/4 27/72/4 26/76/4
f 155/75/4 26/76/4 156/77/4
f 156/77/4 26/76/4 25/78/4
f 156/77/4 25/78/4 24/79/4
f 156/77/4 24/79/4 157/80/4
f 157/80/4 24/79/4 23/81/4
f 157/80/4 23/81/4 22/82/4
f 157/80/4 22/82/4 158/83/4
f 158/83/4 22/82/4 21/84/4
f 158/83/4 21/84/4 159/85/4
f 159/85/4 21/84/4 20/86/4
f 454/87/4 16/88/4 453/89/4
f 16/88/4 454/87/4 15/90/4
f 15/90/4 454/87/4 17/91/4
f 17/91/4 454/87/4 18/92/4
f 18/92/4 454/87/4 478/93/4
f 18/92/4 478/93/4 19/94/4
f 19/94/4 478/93/4 404/95/4
f 19/94/4 404/95/4 372/96/4
f 19/94/4 372/96/4 20/86/4
f 20/86/4 372/96/4 374/97/4
f 20/86/4 374/97/4 159/85/4
f 159/85/4 374/97/4 97/98/4
f 159/85/4 97/98/4 160/99/4
f 97/98/4 374/97/4 98/100/4
f 98/100/4 374/97/4 99/101/4
f 99/101/4 374/97/4 100/102/4
f 100/102/4 374/97/4 101/103/4
f 101/103/4 374/97/4 416/104/4
f 101/103/4 416/104/4 102/105/4
f 102/105/4 416/104/4 429/106/4
f 102/105/4 429/106/4 103/107/4
f 103/107/4 429/106/4 440/108/4
f 103/107/4 440/108/4 104/109/4
f 104/109/4 440/108/4 473/110/4
f 104/109/4 473/110/4 105/111/4
f 105/111/4 473/110/4 106/112/4
f 97/98/4 161/113/4 160/99/4
f 161/113/4 97/98/4 96/114/4
f 161/113/4 96/114/4 95/115/4
f 161/113/4 95/115/4 162/116/4
f 162/116/4 95/115/4 94/117/4
f 162/116/4 94/117/4 163/118/4
f 91/119/4 132/120/4 92/121/4
f 132/120/4 91/119/4 133/122/4
f 133/122/4 91/119/4 90/123/4
f 133/122/4 90/123/4 134/124/4
f 134/124/4 90/123/4 135/125/4
f 135/125/4 90/123/4 89/126/4
f 135/125/4 89/126/4 136/127/4
f 136/127/4 89/126/4 137/128/4
f 140/129/4 114/130/4 130/131/4
f 114/130/4 140/129/4 115/132/4
f 115/132/4 140/129/4 116/133/4
f 116/133/4 140/129/4 139/134/4
f 116/133/4 139/134/4 117/135/4
f 117/135/4 139/134/4 138/136/4
f 117/135/4 138/136/4 118/137/4
f 165/138/4 176/139/4 166/140/4
f 176/139/4 165/138/4 177/141/4
f 177/141/4 165/138/4 178/142/4
f 178/142/4 165/138/4 164/143/4
f 178/142/4 164/143/4 179/144/4
f 179/144/4 164/143/4 180/145/4
f 180/145/4 164/143/4 181/49/4
f 181/49/4 164/143/4 68/55/4
f 68/55/4 164/143/4 69/146/4
f 69/146/4 164/143/4 70/147/4
f 70/147/4 164/143/4 35/148/4
f 35/148/4 164/143/4 36/149/4
f 36/149/4 164/143/4 37/150/4
f 37/150/4 164/143/4 38/151/4
f 38/151/4 164/143/4 39/152/4
f 39/152/4 164/143/4 163/118/4
f 39/152/4 163/118/4 94/117/4
f 39/152/4 94/117/4 93/153/4
f 39/152/4 93/153/4 40/154/4
f 40/154/4 93/153/4 92/121/4
f 40/154/4 92/121/4 131/155/4
f 40/154/4 131/155/4 114/130/4
f 40/154/4 114/130/4 499/156/4
f 131/155/4 92/121/4 132/120/4
f 114/130/4 131/155/4 130/131/4
f 499/156/4 114/130/4 113/157/4
f 154/158/5 3/159/5 28/160/5
f 176/161/5 142/162/5 166/163/5
f 202/164/5 168/165/5 184/166/5
f 500/167/5 186/168/5 218/169/5
f 16/170/5 395/171/5 453/172/5
f 395/171/5 16/170/5 1/173/5
f 395/171/5 1/173/5 396/174/5
f 396/174/5 1/173/5 3/159/5
f 396/174/5 3/159/5 143/175/5
f 143/175/5 3/159/5 154/158/5
f 396/174/5 143/175/5 142/162/5
f 396/174/5 142/162/5 169/176/5
f 169/176/5 142/162/5 176/161/5
f 396/174/5 169/176/5 168/165/5
f 396/174/5 168/165/5 187/177/5
f 187/177/5 168/165/5 202/164/5
f 396/174/5 187/177/5 186/168/5
f 396/174/5 186/168/5 500/167/5
usemtl T759AimgEx
f 1/178/4 2/179/4 3/180/4
f 2/179/4 1/178/4 4/181/4
f 4/181/4 1/178/4 5/182/4
f 6/183/4 5/182/4 7/184/4
f 6/183/4 7/184/4 8/185/4
f 8/185/4 7/184/4 9/186/4
f 9/186/4 7/184/4 10/187/4
f 9/186/4 10/187/4 11/188/4
f 11/188/4 10/187/4 12/189/4
f 11/188/4 12/189/4 13/190/4
f 6/183/4 14/191/4 5/182/4
f 14/191/4 4/181/4 5/182/4
f 1/192/6 15/193/6 5/194/6
f 15/193/6 1/192/6 16/195/6
f 15/193/7 7/196/7 5/194/7
f 7/196/7 15/193/7 17/197/7
f 17/197/8 10/198/8 7/196/8
f 10/198/8 17/197/8 18/199/8
f 18/199/9 12/200/9 10/198/9
f 12/200/9 18/199/9 19/201/9
f 19/201/10 13/202/10 12/200/10
f 13/202/10 19/201/10 20/203/10
f 20/204/11 11/205/11 13/206/11
f 11/205/11 20/204/11 21/207/11
f 21/207/12 9/208/12 11/205/12
f 9/208/12 21/207/12 22/209/12
f 22/209/13 8/210/13 9/208/13
f 8/210/13 22/209/13 23/211/13
f 23/211/14 6/212/15 8/210/14
f 6/212/15 23/211/14 24/213/15
f 24/213/16 14/214/16 6/212/16
f 14/214/16 24/213/16 25/215/16
f 25/215/17 4/216/17 14/214/17
f 4/216/17 25/215/17 26/217/17
f 26/217/18 2/218/18 4/216/18
f 2/218/18 26/217/18 27/219/18
f 27/219/19 3/220/19 2/218/19
f 3/220/19 27/219/19 28/221/19
f 29/222/4 30/223/4 31/224/4
f 30/223/4 29/222/4 32/225/4
f 30/223/4 32/225/4 33/226/4
f 30/223/4 33/226/4 34/227/4
f 35/33/20 29/228/20 31/31/20
f 29/228/20 35/33/20 36/229/20
f 36/229/21 32/230/21 29/228/21
f 32/230/21 36/229/21 37/231/21
f 37/231/22 33/232/22 32/230/22
f 33/232/22 37/231/22 38/233/22
f 38/233/23 34/234/23 33/232/23
f 34/234/23 38/233/23 39/235/23
f 40/236/24 34/237/24 39/238/24
f 34/237/24 40/236/24 30/239/24
f 41/240/4 42/241/4 43/242/4
f 42/241/4 41/240/4 44/243/4
f 42/241/4 44/243/4 45/244/4
f 42/241/4 45/244/4 46/245/4
f 42/241/4 46/245/4 47/246/4
f 42/241/4 47/246/4 48/247/4
f 42/241/4 48/247/4 49/248/4
f 42/241/4 49/248/4 50/249/4
f 42/241/4 50/249/4 51/250/4
f 42/241/4 51/250/4 52/251/4
f 52/251/4 51/250/4 53/252/4
f 42/241/4 52/251/4 54/253/4
f 42/241/4 54/253/4 55/254/4
f 56/29/25 41/255/25 43/26/25
f 41/255/25 56/29/25 57/256/25
f 57/256/26 44/257/26 41/255/26
f 44/257/26 57/256/26 58/258/26
f 58/258/27 45/259/28 44/257/27
f 45/259/28 58/258/27 59/260/28
f 59/260/29 46/261/29 45/259/29
f 46/261/29 59/260/29 60/262/29
f 60/262/30 47/263/30 46/261/30
f 47/263/30 60/262/30 61/264/30
f 61/264/31 48/265/31 47/263/31
f 48/265/31 61/264/31 62/266/31
f 62/266/32 49/267/32 48/265/32
f 49/267/32 62/266/32 63/268/32
f 63/268/33 50/269/33 49/267/33
f 50/269/33 63/268/33 64/270/33
f 64/270/34 51/271/34 50/269/34
f 51/271/34 64/270/34 65/272/34
f 65/272/35 53/273/35 51/271/35
f 53/273/35 65/272/35 66/274/35
f 66/274/36 52/275/36 53/273/36
f 52/275/36 66/274/36 67/276/36
f 67/276/37 54/277/37 52/275/37
f 54/277/37 67/276/37 68/278/37
f 68/278/38 55/279/38 54/277/38
f 55/279/38 68/278/38 69/280/38
f 69/280/39 42/32/39 55/279/39
f 42/32/39 69/280/39 70/30/39
f 71/281/4 72/282/4 73/283/4
f 72/282/4 71/281/4 74/284/4
f 72/282/4 74/284/4 75/285/4
f 75/285/4 74/284/4 76/286/4
f 75/285/4 76/286/4 77/287/4
f 75/285/4 77/287/4 78/288/4
f 78/288/4 77/287/4 79/289/4
f 78/288/4 79/289/4 80/290/4
f 80/290/4 79/289/4 81/291/4
f 80/290/4 81/291/4 82/292/4
f 82/292/4 81/291/4 83/293/4
f 82/292/4 83/293/4 84/294/4
f 84/294/4 83/293/4 85/295/4
f 85/295/4 83/293/4 86/296/4
f 86/296/4 83/293/4 87/297/4
f 86/296/4 87/297/4 88/298/4
f 89/299/40 85/300/40 86/301/40
f 85/300/40 89/299/40 90/302/40
f 90/302/41 84/303/41 85/300/41
f 84/303/41 90/302/41 91/304/41
f 91/304/42 82/305/42 84/303/42
f 82/305/42 91/304/42 92/306/42
f 92/306/43 80/307/43 82/305/43
f 80/307/43 92/306/43 93/308/43
f 93/308/44 78/309/44 80/307/44
f 78/309/44 93/308/44 94/310/44
f 94/310/45 75/311/45 78/309/45
f 75/311/45 94/310/45 95/312/45
f 95/312/46 72/313/46 75/311/46
f 72/313/46 95/312/46 96/314/46
f 96/314/47 73/315/47 72/313/47
f 73/315/47 96/314/47 97/316/47
f 73/317/48 98/318/48 71/319/48
f 98/318/48 73/317/48 97/320/48
f 98/318/49 74/321/49 71/319/49
f 74/321/49 98/318/49 99/322/49
f 99/322/50 76/323/50 74/321/50
f 76/323/50 99/322/50 100/324/50
f 100/324/51 77/325/51 76/323/51
f 77/325/51 100/324/51 101/326/51
f 101/326/52 79/327/52 77/325/52
f 79/327/52 101/326/52 102/328/52
f 102/328/53 81/329/53 79/327/53
f 81/329/53 102/328/53 103/330/53
f 103/330/54 83/331/54 81/329/54
f 83/331/54 103/330/54 104/332/54
f 104/332/55 87/333/55 83/331/55
f 87/333/55 104/332/55 105/334/55
f 105/334/56 88/335/56 87/333/56
f 88/335/56 105/334/56 106/336/56
f 107/337/4 108/338/4 109/339/4
f 108/338/4 107/337/4 110/340/4
f 108/338/4 110/340/4 111/341/4
f 108/338/4 111/341/4 112/342/4
f 113/343/57 109/344/57 108/345/57
f 109/344/57 113/343/57 114/346/57
f 114/347/58 107/348/58 109/349/58
f 107/348/58 114/347/58 115/350/58
f 115/350/59 110/351/59 107/348/59
f 110/351/59 115/350/59 116/352/59
f 116/352/60 111/353/60 110/351/60
f 111/353/60 116/352/60 117/354/60
f 117/354/61 112/355/61 111/353/61
f 112/355/61 117/354/61 118/356/61
f 119/357/4 120/358/4 121/359/4
f 120/358/4 119/357/4 122/360/4
f 122/360/4 119/357/4 123/361/4
f 122/360/4 123/361/4 124/362/4
f 122/360/4 124/362/4 125/363/4
f 125/363/4 124/362/4 126/364/4
f 125/363/4 126/364/4 127/365/4
f 127/365/4 126/364/4 128/366/4
f 127/365/4 128/366/4 129/367/4
f 130/368/62 120/369/62 122/370/62
f 120/369/62 130/368/62 131/371/62
f 120/372/63 132/373/63 121/374/63
f 132/373/63 120/372/63 131/375/63
f 132/376/64 119/377/64 121/378/64
f 119/377/64 132/376/64 133/379/64
f 133/379/65 123/380/65 119/377/65
f 123/380/65 133/379/65 134/381/65
f 134/381/66 124/382/66 123/380/66
f 124/382/66 134/381/66 135/383/66
f 135/383/67 126/384/67 124/382/67
f 126/384/67 135/383/67 136/385/67
f 136/385/68 128/386/68 126/384/68
f 128/386/68 136/385/68 137/387/68
f 138/388/69 127/389/69 129/390/69
f 127/389/69 138/388/69 139/391/69
f 139/391/70 125/392/70 127/389/70
f 125/392/70 139/391/70 140/393/70
f 140/393/71 122/370/71 125/392/71
f 122/370/71 140/393/71 130/368/71
f 141/394/4 142/395/4 143/396/4
f 142/395/4 141/394/4 144/397/4
f 144/397/4 141/394/4 145/398/4
f 144/397/4 145/398/4 146/399/4
f 144/397/4 146/399/4 147/400/4
f 144/397/4 147/400/4 148/401/4
f 144/397/4 148/401/4 149/402/4
f 149/402/4 148/401/4 150/403/4
f 149/402/4 150/403/4 151/404/4
f 149/402/4 151/404/4 152/405/4
f 149/402/4 152/405/4 153/406/4
f 154/407/72 141/408/72 143/409/72
f 141/408/72 154/407/72 155/410/72
f 155/410/73 145/411/73 141/408/73
f 145/411/73 155/410/73 156/412/73
f 156/412/74 146/413/74 145/411/74
f 146/413/74 156/412/74 157/414/74
f 157/414/75 147/415/75 146/413/75
f 147/415/75 157/414/75 158/416/75
f 158/416/76 148/417/76 147/415/76
f 148/417/76 158/416/76 159/418/76
f 159/418/77 150/419/77 148/417/77
f 150/419/77 159/418/77 160/420/77
f 160/420/78 151/421/78 150/419/78
f 151/421/78 160/420/78 161/422/78
f 161/422/79 152/423/79 151/421/79
f 152/423/79 161/422/79 162/424/79
f 162/424/80 153/425/80 152/423/80
f 153/425/80 162/424/80 163/426/80
f 164/427/81 153/428/81 163/429/81
f 153/428/81 164/427/81 149/430/81
f 164/431/82 144/432/82 149/433/82
f 144/432/82 164/431/82 165/434/82
f 165/434/83 142/435/83 144/432/83
f 142/435/83 165/434/83 166/436/83
f 167/437/4 168/438/4 169/439/4
f 168/438/4 167/437/4 170/440/4
f 170/440/4 167/437/4 171/441/4
f 171/441/4 167/437/4 172/442/4
f 171/441/4 172/442/4 173/443/4
f 173/443/4 172/442/4 174/444/4
f 173/443/4 174/444/4 175/445/4
f 176/446/84 167/447/84 169/448/84
f 167/447/84 176/446/84 177/449/84
f 177/449/85 172/450/85 167/447/85
f 172/450/85 177/449/85 178/451/85
f 178/451/86 174/452/86 172/450/86
f 174/452/86 178/451/86 179/453/86
f 179/453/87 175/454/87 174/452/87
f 175/454/87 179/453/87 180/455/87
f 180/455/88 173/456/88 175/454/88
f 173/456/88 180/455/88 181/457/88
f 181/458/89 171/459/89 173/460/89
f 171/459/89 181/458/89 182/461/89
f 182/461/90 170/462/90 171/459/90
f 170/462/90 182/461/90 183/463/90
f 183/463/91 168/464/91 170/462/91
f 168/464/91 183/463/91 184/465/91
f 185/466/4 186/467/4 187/468/4
f 186/467/4 185/466/4 188/469/4
f 188/469/4 185/466/4 189/470/4
f 188/469/4 189/470/4 190/471/4
f 188/469/4 190/471/4 191/472/4
f 191/472/4 190/471/4 192/473/4
f 191/472/4 192/473/4 193/474/4
f 193/474/4 192/473/4 194/475/4
f 194/475/4 192/473/4 195/476/4
f 195/476/4 192/473/4 196/477/4
f 195/476/4 196/477/4 197/478/4
f 195/476/4 197/478/4 198/479/4
f 198/479/4 197/478/4 199/480/4
f 198/479/4 199/480/4 200/481/4
f 198/479/4 200/481/4 201/482/4
f 202/483/92 185/484/93 187/485/92
f 185/484/93 202/483/92 203/486/93
f 203/486/93 189/487/94 185/484/93
f 189/487/94 203/486/93 204/488/94
f 204/488/95 190/489/95 189/487/95
f 190/489/95 204/488/95 205/490/95
f 205/490/96 192/491/96 190/489/96
f 192/491/96 205/490/96 206/492/96
f 206/492/97 196/493/97 192/491/97
f 196/493/97 206/492/97 207/494/97
f 207/494/98 197/495/98 196/493/98
f 197/495/98 207/494/98 208/496/98
f 208/496/99 199/497/99 197/495/99
f 199/497/99 208/496/99 209/498/99
f 209/498/100 200/499/100 199/497/100
f 200/499/100 209/498/100 210/500/100
f 211/501/101 200/502/101 210/503/101
f 200/502/101 211/501/101 201/504/101
f 211/505/102 198/506/102 201/507/102
f 198/506/102 211/505/102 212/508/102
f 212/508/103 195/509/103 198/506/103
f 195/509/103 212/508/103 213/510/103
f 213/510/104 194/511/104 195/509/104
f 194/511/104 213/510/104 214/512/104
f 214/512/105 193/513/105 194/511/105
f 193/513/105 214/512/105 215/514/105
f 215/514/106 191/515/106 193/513/106
f 191/515/106 215/514/106 216/516/106
f 216/516/107 188/517/107 191/515/107
f 188/517/107 216/516/107 217/518/107
f 217/518/108 186/519/108 188/517/108
f 186/519/108 217/518/108 218/520/108
f 219/521/57 220/522/57 221/523/57
f 220/522/57 219/521/57 222/524/57
f 219/525/5 223/526/5 224/527/5
f 223/526/5 219/525/5 221/528/5
f 219/529/109 225/530/109 222/531/109
f 225/530/109 219/529/109 224/532/109
f 220/533/2 225/534/2 226/535/2
f 225/534/2 220/533/2 222/536/2
f 226/537/3 224/538/3 223/539/3
f 224/538/3 226/537/3 225/540/3
f 227/541/2 229/542/2 228/543/2
f 228/543/2 230/544/2 227/541/2
f 228/543/2 231/545/2 230/544/2
f 231/545/2 232/546/2 230/544/2
f 231/545/2 233/547/2 232/546/2
f 233/547/2 234/548/2 232/546/2
f 234/548/5 232/546/5 235/549/5
f 234/548/5 235/549/5 236/550/5
f 236/550/2 237/551/2 235/549/2
f 237/551/2 238/552/2 235/549/2
f 239/553/109 227/554/109 230/555/109
f 230/555/109 240/556/109 239/553/109
f 230/557/57 232/558/57 241/559/57
f 241/559/57 240/560/57 230/557/57
f 239/561/3 242/562/3 229/563/3
f 229/563/3 227/564/3 239/561/3
f 241/565/109 232/566/109 235/567/109
f 235/567/109 243/568/109 241/565/109
f 244/569/4 228/570/4 229/571/4
f 229/571/4 242/572/4 244/569/4
f 235/573/3 245/574/3 238/575/3
f 245/574/3 235/573/3 243/576/3
f 244/577/3 246/578/3 231/579/3
f 231/579/3 228/580/3 244/577/3
f 245/581/109 237/582/109 238/583/109
f 237/582/109 245/581/109 247/584/109
f 233/585/4 231/586/4 246/587/4
f 246/587/4 248/588/4 233/585/4
f 249/589/3 247/590/3 237/591/3
f 237/591/3 236/592/3 249/589/3
f 234/593/110 248/594/110 233/595/110
f 248/594/110 234/593/110 250/596/110
f 249/597/109 234/598/109 236/599/109
f 234/598/109 249/597/109 250/600/109
f 251/601/57 252/602/57 253/603/57
f 252/602/57 251/601/57 254/604/57
f 251/605/109 255/606/109 254/607/109
f 255/606/109 251/605/109 256/608/109
f 257/609/2 258/610/2 259/611/2
f 258/610/2 257/609/2 260/612/2
f 258/610/2 261/613/2 262/614/2
f 261/613/2 258/610/2 263/615/2
f 263/615/2 258/610/2 260/612/2
f 264/616/2 255/617/2 260/612/2
f 255/617/2 264/616/2 252/618/2
f 260/612/2 255/617/2 263/615/2
f 255/617/2 252/618/2 254/619/2
f 265/620/2 263/615/2 255/617/2
f 266/621/4 252/622/4 264/623/4
f 252/622/4 266/621/4 253/624/4
f 267/625/57 255/626/57 256/627/57
f 255/626/57 267/625/57 265/628/57
f 267/629/109 263/630/109 265/631/109
f 263/630/109 267/629/109 268/632/109
f 268/632/111 261/633/111 263/630/111
f 261/633/111 268/632/111 269/634/111
f 269/634/112 262/635/112 261/633/112
f 262/635/112 269/634/112 270/636/112
f 270/637/1 258/638/1 262/639/1
f 258/638/1 270/637/1 271/640/1
f 271/641/109 259/642/109 258/643/109
f 259/642/109 271/641/109 272/644/109
f 259/645/3 273/646/3 257/647/3
f 273/646/3 259/645/3 272/648/3
f 273/649/4 260/650/4 257/651/4
f 260/650/4 273/649/4 274/652/4
f 260/653/3 266/654/3 264/655/3
f 266/654/3 260/653/3 274/656/3
f 275/657/5 276/658/5 277/659/5
f 277/659/5 278/660/5 275/657/5
f 277/659/5 279/661/5 278/660/5
f 277/659/5 280/662/5 279/661/5
f 280/662/5 281/663/5 279/661/5
f 280/662/5 282/664/5 281/663/5
f 280/662/5 283/665/5 282/664/5
f 276/658/5 284/666/5 285/667/5
f 285/667/5 286/668/5 276/658/5
f 286/668/5 277/659/5 276/658/5
f 287/669/109 288/670/109 289/671/109
f 288/670/109 287/669/109 290/672/109
f 287/673/57 291/674/57 292/675/57
f 291/674/57 287/673/57 289/676/57
f 287/677/5 293/678/5 290/679/5
f 293/678/5 287/677/5 292/680/5
f 288/681/3 293/682/3 294/683/3
f 293/682/3 288/681/3 290/684/3
f 291/685/2 288/686/2 294/687/2
f 288/686/2 291/685/2 289/688/2
f 295/689/2 297/690/2 296/691/2
f 296/691/2 298/692/2 295/689/2
f 298/692/2 299/693/2 295/689/2
f 300/694/110 301/695/110 302/696/110
f 302/696/110 303/697/110 300/694/110
f 304/698/5 305/699/5 306/700/5
f 306/700/5 307/701/5 304/698/5
f 306/700/5 308/702/5 307/701/5
f 309/703/110 311/704/110 310/705/110
f 310/705/110 312/706/110 309/703/110
f 285/707/109 313/708/109 314/709/109
f 314/709/109 286/710/109 285/707/109
f 285/711/3 284/712/3 315/713/3
f 315/713/3 313/714/3 285/711/3
f 314/715/57 316/716/57 277/717/57
f 277/717/57 286/718/57 314/715/57
f 317/719/4 315/720/4 284/721/4
f 284/721/4 276/722/4 317/719/4
f 277/723/109 316/724/109 318/725/109
f 318/725/109 280/726/109 277/723/109
f 276/727/3 275/728/3 319/729/3
f 319/729/3 317/730/3 276/727/3
f 318/731/57 320/732/57 283/733/57
f 283/733/57 280/734/57 318/731/57
f 278/735/4 321/736/4 319/737/4
f 319/737/4 275/738/4 278/735/4
f 283/739/4 320/740/4 322/741/4
f 322/741/4 282/742/4 283/739/4
f 278/743/113 279/744/113 323/745/113
f 321/746/113 278/743/113 323/745/113
f 281/747/3 282/748/3 322/749/3
f 322/749/3 324/750/3 281/747/3
f 281/751/4 324/752/4 323/753/4
f 323/753/4 279/754/4 281/751/4
f 325/755/1 326/756/1 327/757/1
f 326/756/1 325/755/1 328/758/1
f 329/759/112 325/760/112 327/761/112
f 325/760/112 329/759/112 330/762/112
f 330/763/5 328/764/5 325/765/5
f 328/764/5 330/763/5 331/766/5
f 328/764/5 331/766/5 332/767/5
f 332/767/5 331/766/5 333/768/5
f 333/768/5 331/766/5 334/769/5
f 333/768/5 334/769/5 335/770/5
f 334/769/5 331/766/5 336/771/5
f 335/770/5 334/769/5 337/772/5
f 328/764/5 338/773/5 339/774/5
f 338/773/5 328/764/5 332/767/5
f 326/775/109 339/776/109 340/777/109
f 339/776/109 326/775/109 328/778/109
f 331/779/111 329/759/111 341/780/111
f 329/759/111 331/779/111 330/762/111
f 336/781/109 341/780/109 342/782/109
f 341/780/109 336/781/109 331/779/109
f 336/783/57 343/784/57 334/785/57
f 343/784/57 336/783/57 342/786/57
f 337/787/109 343/788/109 344/789/109
f 343/788/109 337/787/109 334/790/109
f 337/791/57 345/792/57 335/793/57
f 345/792/57 337/791/57 344/794/57
f 346/795/4 335/796/4 345/797/4
f 335/796/4 346/795/4 333/798/4
f 347/799/3 333/800/3 346/801/3
f 333/800/3 347/799/3 332/802/3
f 338/803/4 347/804/4 348/805/4
f 347/804/4 338/803/4 332/806/4
f 340/807/3 338/808/3 348/809/3
f 338/808/3 340/807/3 339/810/3
f 349/811/109 350/812/109 351/813/109
f 352/814/109 353/815/109 354/816/109
f 354/816/109 355/817/109 352/814/109
f 355/817/109 356/818/109 352/814/109
f 355/817/109 351/813/109 356/818/109
f 355/817/109 357/819/109 351/813/109
f 357/819/109 349/811/109 351/813/109
f 355/817/109 358/820/109 357/819/109
f 355/817/109 359/821/109 358/820/109
f 355/817/109 360/822/109 359/821/109
f 361/823/2 362/824/2 363/825/2
f 362/824/2 361/823/2 364/826/2
f 362/824/2 365/827/2 366/828/2
f 365/827/2 362/824/2 367/829/2
f 367/829/2 362/824/2 364/826/2
f 367/829/2 364/826/2 368/830/2
f 369/831/2 368/830/2 370/832/2
f 368/830/2 369/831/2 350/833/2
f 368/830/2 350/833/2 367/829/2
f 350/833/2 369/831/2 351/834/2
f 351/834/2 369/831/2 371/835/2
f 372/836/2 367/829/2 350/833/2
f 350/812/109 373/837/109 356/818/109
f 356/818/109 351/813/109 350/812/109
f 372/838/57 350/839/57 349/840/57
f 349/840/57 374/841/57 372/838/57
f 375/842/5 376/843/5 377/844/5
f 376/843/5 375/842/5 378/845/5
f 376/843/5 378/845/5 379/846/5
f 379/846/5 378/845/5 380/847/5
f 380/847/5 378/845/5 381/848/5
f 381/848/5 378/845/5 349/849/5
f 381/848/5 349/849/5 382/850/5
f 349/849/5 378/845/5 374/851/5
f 382/850/5 349/849/5 357/852/5
f 382/850/5 357/852/5 383/853/5
f 376/843/5 384/854/5 385/855/5
f 384/854/5 376/843/5 379/846/5
f 386/856/109 349/811/109 357/819/109
f 357/819/109 358/820/109 386/856/109
f 358/857/3 387/858/3 383/859/3
f 383/859/3 357/860/3 358/857/3
f 388/861/109 386/856/109 358/820/109
f 358/820/109 359/821/109 388/861/109
f 359/862/57 387/863/57 389/864/57
f 387/863/57 359/862/57 358/865/57
f 360/866/3 390/867/3 389/868/3
f 389/868/3 359/869/3 360/866/3
f 391/870/109 388/861/109 359/821/109
f 359/821/109 360/822/109 391/870/109
f 392/871/2 360/872/2 390/873/2
f 360/872/2 392/871/2 355/874/2
f 393/875/109 391/870/109 360/822/109
f 360/822/109 355/817/109 393/875/109
f 394/876/109 395/877/109 396/878/109
f 396/878/109 354/816/109 394/876/109
f 396/878/109 397/879/109 354/816/109
f 354/880/4 353/881/4 394/882/4
f 397/879/109 355/817/109 354/816/109
f 397/879/109 393/875/109 355/817/109
f 354/883/3 392/884/3 398/885/3
f 392/884/3 354/883/3 355/886/3
f 354/887/5 399/888/5 353/889/5
f 399/888/5 354/887/5 398/890/5
f 352/891/3 400/892/3 399/893/3
f 399/893/3 353/894/3 352/891/3
f 401/895/109 394/876/109 353/815/109
f 353/815/109 352/814/109 401/895/109
f 356/896/57 400/897/57 402/898/57
f 400/897/57 356/896/57 352/899/57
f 373/837/109 401/895/109 352/814/109
f 352/814/109 356/818/109 373/837/109
f 351/900/3 371/901/3 402/902/3
f 402/902/3 356/903/3 351/900/3
f 403/6/4 372/96/4 404/95/4
f 372/96/4 403/6/4 367/8/4
f 366/904/114 405/7/114 406/905/114
f 405/7/114 366/904/114 365/5/114
f 407/906/111 366/907/111 406/908/111
f 366/907/111 407/906/111 362/909/111
f 363/910/4 407/911/4 408/912/4
f 407/911/4 363/910/4 362/913/4
f 363/914/57 409/915/57 361/916/57
f 409/915/57 363/914/57 408/917/57
f 361/918/109 409/919/109 410/920/109
f 410/920/109 364/921/109 361/918/109
f 411/922/2 412/923/2 413/924/2
f 412/923/2 411/922/2 370/832/2
f 412/923/2 370/832/2 364/826/2
f 370/832/2 411/922/2 369/831/2
f 369/831/2 411/922/2 371/835/2
f 368/830/2 364/826/2 370/832/2
f 380/925/109 364/926/109 368/927/109
f 364/926/109 380/925/109 379/928/109
f 380/929/57 370/930/57 381/931/57
f 370/930/57 380/929/57 368/932/57
f 369/933/109 291/934/109 370/935/109
f 291/934/109 369/933/109 382/936/109
f 291/934/109 382/936/109 292/937/109
f 292/937/109 382/936/109 220/938/109
f 292/937/109 220/938/109 293/939/109
f 220/938/109 382/936/109 221/940/109
f 221/940/109 382/936/109 223/941/109
f 370/935/109 294/942/109 381/943/109
f 294/942/109 370/935/109 291/934/109
f 381/943/109 294/942/109 293/939/109
f 381/943/109 293/939/109 226/944/109
f 226/944/109 293/939/109 220/938/109
f 381/943/109 226/944/109 223/941/109
f 381/943/109 223/941/109 382/936/109
f 383/945/115 369/933/115 371/946/115
f 369/933/115 383/945/115 382/936/115
f 372/838/57 373/947/57 350/839/57
f 373/947/57 372/838/57 404/948/57
f 327/949/5 407/950/5 406/951/5
f 407/950/5 327/949/5 326/952/5
f 408/953/5 340/954/5 409/955/5
f 340/954/5 408/953/5 407/950/5
f 340/954/5 407/950/5 326/952/5
f 405/956/5 327/949/5 406/951/5
f 327/949/5 405/956/5 329/957/5
f 329/957/5 405/956/5 403/958/5
f 329/957/5 403/958/5 341/959/5
f 341/959/5 403/958/5 342/960/5
f 342/960/5 403/958/5 404/961/5
f 342/960/5 404/961/5 343/962/5
f 343/962/5 404/961/5 373/963/5
f 343/962/5 373/963/5 344/964/5
f 344/964/5 373/963/5 356/965/5
f 344/964/5 356/965/5 345/966/5
f 409/955/5 348/967/5 410/968/5
f 348/967/5 409/955/5 340/954/5
f 410/968/5 348/967/5 347/969/5
f 410/968/5 347/969/5 414/970/5
f 414/970/5 347/969/5 346/971/5
f 414/970/5 346/971/5 415/972/5
f 415/972/5 346/971/5 345/966/5
f 415/972/5 345/966/5 356/965/5
f 415/973/5 356/974/5 402/975/5
f 416/976/57 349/840/57 386/977/57
f 349/840/57 416/976/57 374/841/57
f 417/4/4 374/97/4 378/2/4
f 374/97/4 417/4/4 416/104/4
f 380/847/5 418/978/5 379/846/5
f 418/978/5 380/847/5 419/979/5
f 419/979/5 380/847/5 381/848/5
f 419/979/5 381/848/5 420/980/5
f 420/980/5 381/848/5 382/850/5
f 420/980/5 382/850/5 383/853/5
f 421/981/109 384/982/109 379/983/109
f 379/983/109 422/984/109 421/981/109
f 423/985/57 384/986/57 421/987/57
f 384/986/57 423/985/57 385/988/57
f 423/989/4 376/990/4 385/991/4
f 376/990/4 423/989/4 424/992/4
f 424/993/111 377/994/111 376/995/111
f 377/994/111 424/993/111 425/996/111
f 425/997/114 375/3/114 377/998/114
f 375/3/114 425/997/114 426/1/114
f 427/999/2 266/1000/2 422/1001/2
f 266/1000/2 427/999/2 428/1002/2
f 266/1000/2 428/1002/2 253/1003/2
f 253/1003/2 428/1002/2 251/1004/2
f 256/1005/2 386/1006/2 267/1007/2
f 386/1006/2 256/1005/2 251/1004/2
f 386/1006/2 251/1004/2 358/1008/2
f 358/1008/2 251/1004/2 428/1002/2
f 358/1009/5 428/1010/5 387/1011/5
f 270/1012/2 426/1013/2 425/1014/2
f 426/1013/2 270/1012/2 269/1015/2
f 426/1013/2 269/1015/2 417/1016/2
f 417/1016/2 269/1015/2 268/1017/2
f 417/1016/2 268/1017/2 267/1007/2
f 417/1016/2 267/1007/2 416/1018/2
f 416/1018/2 267/1007/2 386/1006/2
f 273/1019/2 421/1020/2 422/1001/2
f 273/1019/2 422/1001/2 274/1021/2
f 274/1021/2 422/1001/2 266/1000/2
f 423/1022/2 272/1023/2 424/1024/2
f 272/1023/2 423/1022/2 421/1020/2
f 424/1024/2 272/1023/2 271/1025/2
f 424/1024/2 270/1012/2 425/1014/2
f 270/1012/2 424/1024/2 271/1025/2
f 272/1023/2 421/1020/2 273/1019/2
f 392/1026/109 399/1027/109 398/1028/109
f 399/1027/109 392/1026/109 400/1029/109
f 400/1029/109 392/1026/109 402/1030/109
f 402/1030/109 392/1026/109 371/946/109
f 371/946/109 392/1026/109 383/945/109
f 383/945/109 392/1026/109 387/1031/109
f 387/1031/109 392/1026/109 389/1032/109
f 389/1032/109 392/1026/109 390/1033/109
f 387/858/3 428/1034/3 420/1035/3
f 420/1035/3 383/859/3 387/858/3
f 429/1036/57 386/977/57 388/1037/57
f 386/977/57 429/1036/57 416/976/57
f 310/1038/5 431/1039/5 430/1040/5
f 430/1040/5 312/1041/5 310/1038/5
f 430/1040/5 432/1042/5 388/1043/5
f 388/1043/5 359/1044/5 430/1040/5
f 359/1044/5 312/1041/5 430/1040/5
f 359/1044/5 433/1045/5 312/1041/5
f 359/1046/5 433/1047/5 389/1048/5
f 242/1049/2 435/1050/2 434/1051/2
f 434/1051/2 244/1052/2 242/1049/2
f 434/1051/2 436/1053/2 244/1052/2
f 436/1053/2 246/1054/2 244/1052/2
f 436/1053/2 437/1055/2 246/1054/2
f 437/1055/2 248/1056/2 246/1054/2
f 437/1055/2 250/1057/2 248/1056/2
f 438/1058/2 439/1059/2 239/1060/2
f 239/1060/2 440/1061/2 438/1058/2
f 439/1059/5 239/1060/5 441/1062/5
f 441/1062/2 442/1063/2 239/1060/2
f 442/1063/2 435/1050/2 239/1060/2
f 435/1050/2 242/1049/2 239/1060/2
f 239/1060/2 240/1064/2 440/1061/2
f 240/1064/2 241/1065/2 440/1061/2
f 241/1065/2 391/1066/2 440/1061/2
f 241/1065/2 243/1067/2 391/1066/2
f 243/1067/2 360/1068/2 391/1066/2
f 243/1067/2 443/1069/2 360/1068/2
f 443/1070/5 360/1071/5 390/1072/5
f 437/1055/2 445/1073/2 444/1074/2
f 444/1074/5 437/1055/116 446/1075/117
f 446/1075/2 447/1076/2 437/1055/2
f 447/1076/2 250/1057/2 437/1055/2
f 447/1076/2 249/1077/2 250/1057/2
f 447/1076/2 448/1078/2 249/1077/2
f 448/1078/2 449/1079/2 249/1077/2
f 449/1079/2 309/1080/2 249/1077/2
f 309/1080/2 247/1081/2 249/1077/2
f 309/1080/2 443/1069/2 247/1081/2
f 443/1069/2 245/1082/2 247/1081/2
f 443/1069/2 243/1067/2 245/1082/2
f 450/1083/5 311/1084/5 451/1085/5
f 311/1084/2 449/1079/2 450/1083/2
f 311/1084/2 309/1080/2 449/1079/2
f 452/1086/5 442/1063/5 435/1050/5
f 390/1087/3 443/1088/3 433/1089/3
f 433/1089/3 389/1090/3 390/1087/3
f 429/1036/57 388/1037/57 391/1091/57
f 391/1091/57 440/1092/57 429/1036/57
f 453/1093/57 395/1094/57 394/1095/57
f 394/1095/57 454/1096/57 453/1093/57
f 455/1097/5 456/1098/5 457/1099/5
f 457/1099/5 458/1100/5 455/1097/5
f 458/1100/5 459/1101/5 455/1097/5
f 459/1101/5 460/1102/5 455/1097/5
f 302/1103/5 461/1104/5 462/1105/5
f 462/1105/5 463/1106/5 302/1103/5
f 463/1106/5 303/1107/5 302/1103/5
f 463/1106/5 464/1108/5 303/1107/5
f 465/1109/5 303/1107/5 322/1110/5
f 322/1110/5 320/1111/5 465/1109/5
f 320/1111/5 318/1112/5 465/1109/5
f 316/1113/5 314/1114/5 394/1115/5
f 394/1115/5 318/1112/5 316/1113/5
f 394/1115/5 353/1116/5 318/1112/5
f 353/1116/5 465/1109/5 318/1112/5
f 353/881/5 399/1117/5 465/1118/5
f 466/1119/5 467/1120/5 468/1121/5
f 468/1121/5 469/1122/118 466/1119/5
f 468/1121/5 470/1123/5 469/1122/118
f 468/1121/5 323/1124/5 470/1123/5
f 323/1124/5 324/1125/5 470/1123/5
f 324/1125/5 464/1108/5 470/1123/5
f 324/1125/5 303/1107/5 464/1108/5
f 324/1125/5 322/1110/5 303/1107/5
f 471/1126/5 472/1127/5 319/1128/5
f 319/1128/5 468/1121/5 471/1126/5
f 319/1128/5 321/1129/5 468/1121/5
f 321/1129/5 323/1124/5 468/1121/5
f 459/1101/5 454/1130/5 313/1131/5
f 313/1131/5 460/1102/5 459/1101/5
f 313/1131/5 315/1132/5 460/1102/5
f 454/1130/5 314/1114/5 313/1131/5
f 454/1130/5 394/1115/5 314/1114/5
f 472/1127/5 460/1102/5 315/1132/5
f 315/1132/5 317/1133/5 472/1127/5
f 317/1133/5 319/1128/5 472/1127/5
f 440/1092/57 391/1091/57 393/1134/57
f 393/1134/57 473/1135/57 440/1092/57
f 400/892/3 474/1136/3 465/1137/3
f 465/1137/3 399/893/3 400/892/3
f 352/1138/2 401/1139/2 475/1140/2
f 475/1140/2 476/1141/2 352/1138/2
f 476/1141/2 300/1142/2 352/1138/2
f 300/1142/2 474/1143/2 352/1138/2
f 474/1144/5 400/1145/5 352/1146/5
f 476/1141/2 477/1147/2 301/1148/2
f 301/1148/2 300/1142/2 476/1141/2
f 454/1096/57 394/1095/57 401/1149/57
f 401/1149/57 478/1150/57 454/1096/57
f 404/948/57 401/1149/57 373/947/57
f 401/1149/57 404/948/57 478/1150/57
f 371/901/3 411/1151/3 415/1152/3
f 415/1152/3 402/902/3 371/901/3
f 410/1153/57 414/1154/57 413/1155/57
f 413/1155/57 412/1156/57 410/1153/57
f 412/1156/57 364/1157/57 410/1153/57
f 364/1158/3 418/1159/3 412/1160/3
f 418/1159/3 364/1158/3 379/1161/3
f 414/1162/109 415/1163/109 411/1164/109
f 411/1164/109 413/1165/109 414/1162/109
f 427/1166/109 419/1167/109 420/1168/109
f 420/1168/109 428/1169/109 427/1166/109
f 418/1170/57 419/1171/57 427/1172/57
f 427/1172/57 422/1173/57 418/1170/57
f 422/1173/57 379/1174/57 418/1170/57
f 429/1175/5 480/1176/5 479/1177/5
f 480/1176/2 481/1178/2 429/1175/2
f 481/1178/5 429/1175/5 482/1179/5
f 482/1179/5 429/1175/5 483/1180/5
f 483/1180/5 429/1175/5 432/1181/5
f 432/1182/5 388/1183/5 429/1184/5
f 484/1185/2 481/1178/2 480/1176/2
f 436/1186/109 483/1187/109 432/1188/109
f 432/1188/109 430/1189/109 436/1186/109
f 430/1189/109 437/1190/109 436/1186/109
f 430/1191/110 445/1192/110 431/1193/110
f 445/1192/110 430/1191/110 437/1194/110
f 445/1195/119 310/1196/119 431/1197/119
f 310/1196/119 445/1195/119 311/1198/119
f 311/1199/120 445/1200/120 444/1201/120
f 311/1199/121 444/1201/122 451/1202/123
f 309/1203/109 312/1204/109 433/1205/109
f 433/1205/109 443/1206/109 309/1203/109
f 479/1207/3 442/1208/3 480/1209/3
f 442/1208/3 479/1207/3 441/1210/3
f 441/1210/3 479/1207/3 439/1211/3
f 439/1211/3 479/1207/3 438/1212/3
f 439/1213/2 485/1214/2 486/1215/2
f 486/1215/2 441/1216/2 439/1213/2
f 440/1217/4 429/1218/4 479/1219/4
f 479/1219/4 438/1220/4 440/1217/4
f 451/1085/5 444/1074/5 446/1075/117
f 446/1075/117 450/1083/5 451/1085/5
f 298/1221/110 450/1222/110 296/1223/110
f 450/1222/110 298/1221/110 449/1224/110
f 299/1225/3 449/1224/3 298/1221/3
f 449/1224/3 299/1225/3 448/1226/3
f 295/1227/109 299/1228/109 448/1229/109
f 448/1229/109 447/1230/109 295/1227/109
f 447/1231/110 446/1232/110 297/1233/110
f 297/1233/110 295/1234/110 447/1231/110
f 482/1235/57 483/1236/57 436/1237/57
f 436/1237/57 434/1238/57 482/1235/57
f 435/1239/109 481/1240/109 482/1241/109
f 482/1241/109 434/1242/109 435/1239/109
f 435/1243/57 484/1244/57 452/1245/57
f 484/1244/57 435/1243/57 481/1246/57
f 442/1247/109 480/1248/109 484/1249/109
f 484/1249/109 452/1250/109 442/1247/109
f 300/1251/109 303/1252/109 465/1253/109
f 465/1253/109 474/1254/109 300/1251/109
f 478/93/4 454/87/4 459/1255/4
f 459/1255/4 487/1256/4 478/93/4
f 457/1257/57 456/1258/57 488/1259/57
f 488/1259/57 487/1260/57 457/1257/57
f 487/1260/57 458/1261/57 457/1257/57
f 487/1260/57 459/1262/57 458/1261/57
f 457/1099/5 489/1263/5 490/1264/5
f 490/1264/5 458/1100/5 457/1099/5
f 488/1265/109 456/1266/109 455/1267/109
f 455/1267/109 491/1268/109 488/1265/109
f 492/1269/3 491/1270/3 455/1271/3
f 455/1271/3 460/1272/3 492/1269/3
f 492/1273/109 460/1274/109 472/1275/109
f 472/1275/109 493/1276/109 492/1273/109
f 472/1277/57 471/1278/57 494/1279/57
f 494/1279/57 493/1280/57 472/1277/57
f 471/1281/109 468/1282/109 476/1283/109
f 476/1283/109 494/1284/109 471/1281/109
f 476/1285/2 475/1286/2 494/1287/2
f 468/1288/113 467/1289/113 477/1290/113
f 477/1290/113 476/1291/113 468/1288/113
f 477/1292/124 467/1293/124 466/1294/124
f 466/1294/124 461/1295/124 477/1292/124
f 461/1295/124 302/1296/124 477/1292/124
f 302/1296/124 301/1297/124 477/1292/124
f 469/1122/118 461/1104/5 466/1119/5
f 461/1104/5 469/1122/118 462/1105/5
f 306/1298/110 305/1299/110 469/1300/110
f 469/1300/110 470/1301/110 306/1298/110
f 306/1302/109 470/1303/109 464/1304/109
f 464/1304/109 308/1305/109 306/1302/109
f 464/1306/57 463/1307/57 307/1308/57
f 307/1308/57 308/1309/57 464/1306/57
f 463/1307/113 462/1310/113 304/1311/113
f 304/1311/113 307/1308/113 463/1307/113
f 475/1312/2 493/1313/2 494/1314/2
f 491/1315/2 487/1316/2 488/1317/2
f 487/1316/2 491/1315/2 492/1318/2
f 487/1316/2 492/1318/2 478/1319/2
f 478/1319/2 492/1318/2 493/1313/2
f 478/1319/2 493/1313/2 475/1312/2
f 478/1320/5 475/1286/5 401/1321/5
f 495/1322/110 437/1194/110 430/1191/110
f 437/1194/110 495/1322/110 496/1323/110
f 446/1324/124 297/1325/124 296/1326/124
f 296/1326/124 450/1327/124 446/1324/124
f 497/1328/110 476/1329/110 468/1330/110
f 476/1329/110 497/1328/110 498/1331/110
f 305/1332/119 462/1333/119 469/1334/119
f 462/1333/119 305/1332/119 304/1335/119
