# Blender v3.2.0 OBJ File: 'stalker rips.blend'
# www.blender.org
mtllib storage_1_col.mtl
o Storage_col_Plane
v 4.225242 0.000000 4.414758
v 4.474758 0.000000 4.414758
v 4.225242 0.000000 -6.414757
v 4.474758 0.000000 -6.414757
v 4.225242 0.000000 4.111531
v 4.474758 0.000000 4.111531
v -4.094758 0.000000 4.414758
v -4.094758 0.000000 4.111531
v -3.845158 0.000000 4.414757
v -3.845158 0.000000 4.111531
v -4.094758 0.000000 -6.408468
v -3.845158 0.000000 -6.408468
v -4.094758 0.000000 -6.122469
v -3.845158 0.000000 -6.122469
v 1.894842 0.000000 -6.408468
v 1.894842 0.000000 -6.122469
v -4.094758 0.000000 -1.419148
v -4.094758 0.000000 -1.151789
v -3.845158 0.000000 -1.151789
v -3.845158 0.000000 -1.419148
v 1.894842 0.000000 -1.151789
v 1.894842 0.000000 -1.419148
v 4.225242 1.220000 4.111531
v 4.225242 1.220000 4.414758
v 4.474758 1.220000 4.414758
v 4.474758 1.220000 4.111531
v 4.474758 1.220000 -6.414758
v 4.225242 1.220000 -6.414757
v -4.094758 1.220000 4.111531
v -4.094758 1.220000 4.414757
v -3.845158 1.220000 4.414757
v -3.845158 1.220000 4.111531
v -3.845158 1.220000 -6.408468
v -4.094758 1.220000 -6.408468
v -4.094758 1.220000 -1.151789
v -3.845158 1.220000 -6.122469
v -4.094758 1.220000 -6.122469
v -3.845158 1.220000 -1.419148
v 1.894842 1.220000 -6.122469
v 1.894842 1.220000 -6.408468
v -4.094758 1.220000 -1.419148
v -3.845158 1.220000 -1.151789
v 1.894842 1.220000 -1.151789
v 1.894842 1.220000 -1.419148
v -0.688158 0.000000 -6.408468
v -0.688158 0.000000 -6.122469
v -0.688158 1.220000 -6.408468
v -0.688158 1.220000 -6.122469
v 4.225242 1.900000 4.111531
v 4.225242 1.900000 4.414758
v 4.474758 1.900000 4.414758
v 4.474758 1.900000 4.111531
v 4.474758 1.900000 -6.414758
v 4.225242 1.900000 -6.414758
v -4.094758 1.900000 4.111531
v -4.094758 1.900000 4.414758
v -3.845158 1.900000 4.414757
v -3.845158 1.900000 4.111531
v -3.845158 1.900000 -6.408468
v -4.094758 1.900000 -6.408468
v -4.094758 1.900000 -1.151789
v -3.845158 1.900000 -6.122469
v -4.094758 1.900000 -6.122469
v -3.845158 1.900000 -1.419148
v -0.688158 1.900000 -6.408468
v -4.094758 1.900000 -1.419148
v -3.845158 1.900000 -1.151789
v 1.894842 1.900000 -1.151789
v 1.894842 1.900000 -1.419148
v -0.688158 1.900000 -6.122469
v 2.435998 4.696267 -7.327832
v -4.407905 4.006345 -7.327832
v -4.407905 4.006340 5.038760
v 2.436108 4.696268 5.038755
v 2.444022 4.276671 -7.327832
v -4.399881 3.586749 -7.327832
v -4.399881 3.586744 5.038760
v -4.399881 3.926744 5.038760
v 2.444132 4.616672 5.038755
v 2.444132 4.276672 5.038754
vt 0.698959 0.435638
vt 0.698959 0.000000
vt 0.709290 0.000000
vt 0.709290 0.435638
vt 0.698959 0.448181
vt 0.709290 0.448181
vt 0.364975 0.448181
vt 0.354645 0.448181
vt 0.354645 0.435638
vt 0.364975 0.435638
vt 0.354645 0.012085
vt 0.354645 0.000275
vt 0.364975 0.000275
vt 0.364975 0.012085
vt 0.354645 0.206757
vt 0.364975 0.206757
vt 0.495621 0.000275
vt 0.602524 0.000275
vt 0.602524 0.012085
vt 0.495621 0.012085
vt 0.354645 0.217804
vt 0.364975 0.217804
vt 0.602524 0.206757
vt 0.602524 0.217804
vt 0.894684 0.485428
vt 0.894684 0.722977
vt 0.866539 0.722977
vt 0.866539 0.485428
vt 0.816055 0.217560
vt 0.816055 0.435364
vt 0.787910 0.435364
vt 0.787910 0.217560
vt 0.776245 0.783348
vt 0.787312 0.783348
vt 0.787312 0.811490
vt 0.776245 0.811490
vt 0.917031 0.010330
vt 0.917031 0.000000
vt 0.945173 0.000000
vt 0.945173 0.010330
vt 0.917031 0.140976
vt 0.945173 0.140976
vt 0.737419 0.000000
vt 0.737419 0.012543
vt 0.709274 0.012543
vt 0.709274 0.000000
vt 0.770782 0.841164
vt 0.758942 0.841164
vt 0.758942 0.734268
vt 0.770782 0.734268
vt 0.894684 0.722977
vt 0.894684 0.853622
vt 0.866539 0.853622
vt 0.866539 0.722977
vt 0.816055 0.447906
vt 0.816055 0.883545
vt 0.787910 0.883545
vt 0.787910 0.447906
vt 0.673714 0.448181
vt 0.673714 0.782181
vt 0.645569 0.782181
vt 0.645569 0.448181
vt 0.758942 0.841163
vt 0.770782 0.841163
vt 0.770782 0.891653
vt 0.758942 0.891653
vt 0.787903 0.000000
vt 0.787903 0.012543
vt 0.866541 0.140976
vt 0.866541 0.010330
vt 0.866541 0.000000
vt 0.776245 0.732858
vt 0.787312 0.732858
vt 0.945168 0.853622
vt 0.945168 0.960526
vt 0.894684 0.960526
vt 0.866539 0.217560
vt 0.866539 0.435364
vt 0.945168 0.485428
vt 0.945168 0.722977
vt 0.866539 0.447906
vt 0.816055 0.447906
vt 0.866539 0.011841
vt 0.866539 0.206482
vt 0.816055 0.206482
vt 0.816055 0.011841
vt 0.945168 0.247879
vt 0.945168 0.485428
vt 0.894684 0.485428
vt 0.894684 0.247879
vt 0.645569 0.458511
vt 0.645569 0.792511
vt 0.595085 0.792511
vt 0.595085 0.458511
vt 0.645569 0.802826
vt 0.595085 0.802826
vt 0.816055 0.000000
vt 0.724197 0.782181
vt 0.724197 1.000000
vt 0.673714 1.000000
vt 0.787903 0.448181
vt 0.737419 0.448181
vt 0.645569 0.802834
vt 0.645569 0.997482
vt 0.595085 0.997482
vt 0.595085 0.802834
vt 0.645569 0.448181
vt 0.595085 0.448181
vt 0.776245 0.811490
vt 0.786575 0.811490
vt 0.786575 0.861979
vt 0.776245 0.861979
vt 0.724197 0.448181
vt 0.866539 0.447906
vt 0.866539 0.883545
vt 0.945168 0.722977
vt 0.866541 0.247879
vt 0.917031 0.247879
vt 0.786575 0.890121
vt 0.776245 0.890121
vt 0.344315 0.012543
vt 0.354645 0.012543
vt 0.354645 0.448181
vt 0.344315 0.448181
vt 0.344315 0.000000
vt 0.354645 0.000000
vt 0.010330 0.000000
vt 0.010330 0.012543
vt 0.000000 0.012543
vt 0.000000 0.000000
vt 0.000000 0.436081
vt 0.010330 0.436081
vt 0.010330 0.447922
vt 0.000000 0.447922
vt 0.000000 0.241440
vt 0.010330 0.241440
vt 0.010330 0.230377
vt 0.000000 0.230377
vt 0.247879 0.230377
vt 0.247879 0.241440
vt 0.140976 0.436081
vt 0.140976 0.447922
vt 0.787910 0.447906
vt 0.787903 0.883553
vt 0.799744 0.883553
vt 0.799744 0.911694
vt 0.787903 0.911694
vt 0.787910 0.206482
vt 0.787910 0.011841
vt 0.866539 0.485428
vt 0.866539 0.247879
vt 0.566940 0.792511
vt 0.566940 0.458511
vt 0.566940 0.802826
vt 0.787910 0.000000
vt 0.645569 1.000000
vt 0.709274 0.448181
vt 0.566940 0.997482
vt 0.566940 0.802834
vt 0.566940 0.448181
vt 0.283463 0.959976
vt 0.283463 0.448181
vt 0.566925 0.448181
vt 0.566925 0.959976
vt 0.283470 0.959976
vt 0.000008 0.959976
vt 0.000000 0.448181
vt 0.283470 0.448181
vt 0.779556 0.732864
vt 0.776245 0.732864
vt 0.776245 0.448181
vt 0.779556 0.448181
vt 0.776245 0.448181
vt 0.776245 0.732864
vt 0.758942 0.734268
vt 0.758942 0.449585
vt 0.741562 0.448181
vt 0.741562 0.959976
vt 0.724197 0.959976
vt 0.724197 0.448181
vt 0.741562 0.959976
vt 0.741562 0.448181
vt 0.758926 0.448181
vt 0.758926 0.959976
vt 0.962479 0.001404
vt 0.962479 0.286087
vt 0.945175 0.284668
vt 0.945175 0.000000
vn 0.0000 -1.0000 0.0000
vn 0.0000 0.0000 -1.0000
vn -1.0000 0.0000 0.0000
vn 1.0000 0.0000 0.0000
vn 0.0000 1.0000 0.0000
vn 0.0000 0.0000 1.0000
vn -0.1003 0.9950 0.0000
vn 0.1003 -0.9950 -0.0000
vn -0.9998 -0.0191 0.0000
vn 0.9998 0.0191 -0.0000
usemtl metal_supports_3
s off
f 5/1/1 3/2/1 4/3/1 6/4/1
f 1/5/1 5/1/1 6/4/1 2/6/1
f 9/7/1 7/8/1 8/9/1 10/10/1
f 1/5/1 9/7/1 10/10/1 5/1/1
f 13/11/1 11/12/1 12/13/1 14/14/1
f 17/15/1 13/11/1 14/14/1 20/16/1
f 45/17/1 15/18/1 16/19/1 46/20/1
f 8/9/1 18/21/1 19/22/1 10/10/1
f 18/21/1 17/15/1 20/16/1 19/22/1
f 20/16/1 22/23/1 21/24/1 19/22/1
f 44/25/2 38/26/2 64/27/2 69/28/2
f 35/29/3 29/30/3 55/31/3 61/32/3
f 43/33/4 44/34/4 69/35/4 68/36/4
f 33/37/2 34/38/2 60/39/2 59/40/2
f 47/41/2 33/37/2 59/40/2 65/42/2
f 25/43/4 26/44/4 52/45/4 51/46/4
f 47/47/5 48/48/5 39/49/5 40/50/5
f 36/51/6 48/52/6 70/53/6 62/54/6
f 28/55/3 23/56/3 49/57/3 54/58/3
f 23/59/2 32/60/2 58/61/2 49/62/2
f 16/63/4 15/64/4 40/65/4 39/66/4
f 2/67/4 6/68/4 26/44/4 25/43/4
f 45/69/2 12/70/2 33/37/2 47/41/2
f 12/70/2 11/71/2 34/38/2 33/37/2
f 21/72/4 22/73/4 44/34/4 43/33/4
f 46/74/6 16/75/6 39/76/6 48/52/6
f 18/77/3 8/78/3 29/30/3 35/29/3
f 22/79/2 20/80/2 38/26/2 44/25/2
f 8/78/3 7/81/3 30/82/3 29/30/3
f 13/83/3 17/84/3 41/85/3 37/86/3
f 19/87/6 21/88/6 43/89/6 42/90/6
f 9/91/6 1/92/6 24/93/6 31/94/6
f 17/84/3 18/77/3 35/29/3 41/85/3
f 1/92/6 2/95/6 25/96/6 24/93/6
f 11/71/3 13/83/3 37/86/3 34/97/3
f 10/98/4 19/99/4 42/100/4 32/60/4
f 6/68/4 4/101/4 27/102/4 26/44/4
f 20/103/4 14/104/4 36/105/4 38/106/4
f 7/107/6 9/91/6 31/94/6 30/108/6
f 4/109/2 3/110/2 28/111/2 27/112/2
f 5/113/2 10/98/2 32/60/2 23/59/2
f 3/114/3 5/115/3 23/56/3 28/55/3
f 14/116/6 46/74/6 48/52/6 36/51/6
f 15/117/2 45/69/2 47/41/2 40/118/2
f 27/112/2 28/111/2 54/119/2 53/120/2
f 12/13/1 45/17/1 46/20/1 14/14/1
f 49/121/5 52/122/5 53/123/5 54/124/5
f 50/125/5 51/126/5 52/122/5 49/121/5
f 57/127/5 58/128/5 55/129/5 56/130/5
f 50/125/5 49/121/5 58/128/5 57/127/5
f 63/131/5 62/132/5 59/133/5 60/134/5
f 66/135/5 64/136/5 62/132/5 63/131/5
f 55/129/5 58/128/5 67/137/5 61/138/5
f 61/138/5 67/137/5 64/136/5 66/135/5
f 64/136/5 67/137/5 68/139/5 69/140/5
f 59/133/5 62/132/5 70/141/5 65/142/5
f 29/30/3 30/82/3 56/143/3 55/31/3
f 48/144/4 47/145/4 65/146/4 70/147/4
f 37/86/3 41/85/3 66/148/3 63/149/3
f 42/90/6 43/89/6 68/150/6 67/151/6
f 31/94/6 24/93/6 50/152/6 57/153/6
f 41/85/3 35/29/3 61/32/3 66/148/3
f 24/93/6 25/96/6 51/154/6 50/152/6
f 34/97/3 37/86/3 63/149/3 60/155/3
f 32/60/4 42/100/4 67/156/4 58/61/4
f 26/44/4 27/102/4 53/157/4 52/45/4
f 38/106/4 36/105/4 62/158/4 64/159/4
f 30/108/6 31/94/6 57/153/6 56/160/6
f 72/161/7 73/162/7 74/163/7 71/164/7
f 76/165/8 75/166/8 80/167/8 77/168/8
f 74/169/2 79/170/2 78/171/2 73/172/2
f 74/173/6 73/174/6 77/175/6 80/176/6
f 73/177/9 72/178/9 76/179/9 77/180/9
f 71/181/10 74/182/10 80/183/10 75/184/10
f 72/185/2 71/186/2 75/187/2 76/188/2
