# Blender v2.91.2 OBJ File: ''
# www.blender.org
mtllib wall_concrete_1.mtl
o wall_concrete_1_Mesh.029
v 2.560000 0.000000 0.160000
v 2.560000 2.560000 0.160000
v 0.000000 2.560000 0.160000
v 0.000000 0.000000 0.160000
v 0.000000 0.000000 -0.160000
v 2.560000 0.000000 -0.160000
v 2.560000 2.560000 -0.160000
v 0.000000 2.560000 -0.160000
vt 1.000000 0.500000
vt 1.000000 1.000000
vt 0.500000 1.000000
vt 0.500000 0.500000
vt 0.500000 0.500000
vt 1.000000 0.500000
vt 1.000000 0.562600
vt 0.500000 0.562600
vt 1.000000 1.000000
vt 0.937500 1.000000
vt 0.937500 0.500000
vt 0.500000 1.000000
vt 0.500000 0.937400
vt 1.000000 0.937400
vt 0.562600 0.500000
vt 0.562600 1.000000
vn 0.0000 0.0000 1.0000
vn 0.0000 -1.0000 0.0000
vn 1.0000 -0.0000 0.0000
vn 0.0000 1.0000 0.0000
vn -1.0000 0.0000 0.0000
vn 0.0000 -0.0000 -1.0000
usemtl None
s 1
f 1/1/1 2/2/1 3/3/1
f 1/1/1 3/3/1 4/4/1
f 5/5/2 6/6/2 1/7/2
f 5/5/2 1/7/2 4/8/2
f 6/6/3 7/9/3 2/10/3
f 6/6/3 2/10/3 1/11/3
f 7/9/4 8/12/4 3/13/4
f 7/9/4 3/13/4 2/14/4
f 8/12/5 5/5/5 4/15/5
f 8/12/5 4/15/5 3/16/5
f 8/12/6 7/9/6 6/6/6
f 8/12/6 6/6/6 5/5/6
