# Blender v2.78 (sub 0) OBJ File: 'botella3.blend'
# www.blender.org
mtllib botella3.mtl
o small_health_poti.001_Cylinder.006
v 0.196226 -0.355014 -0.196225
v 0.261225 -0.258312 -0.261227
v 0.369431 -0.258312 0.000000
v 0.277505 -0.355014 0.000000
v 0.261229 -0.258312 0.261228
v 0.196226 -0.355014 0.196226
v 0.000001 -0.258312 0.369431
v 0.000001 -0.355014 0.277505
v -0.261227 -0.258312 0.261228
v -0.196228 -0.355014 0.196226
v -0.369433 -0.258312 0.000000
v -0.277506 -0.355014 0.000000
v -0.261227 -0.258312 -0.261227
v -0.196228 -0.355014 -0.196225
v 0.000001 -0.258312 -0.369433
v -0.000002 -0.355014 -0.277507
v 0.000001 -0.095453 -0.426881
v 0.301848 -0.095453 -0.301850
v -0.301850 -0.095453 -0.301850
v -0.426880 -0.095453 0.000000
v -0.301850 -0.095453 0.301851
v 0.000001 -0.095453 0.426882
v 0.301848 -0.095453 0.301851
v 0.426879 -0.095453 0.000000
v 0.307114 0.174033 -0.307116
v 0.000001 0.174033 -0.434325
v 0.000001 0.356712 -0.232808
v 0.164620 0.356712 -0.164622
v -0.307115 0.174033 -0.307116
v -0.164622 0.356712 -0.164622
v -0.434328 0.174033 0.000001
v -0.232808 0.356712 0.000001
v -0.307115 0.174033 0.307114
v -0.164622 0.356712 0.164620
v -0.000002 0.174033 0.434326
v 0.000001 0.356712 0.232809
v 0.307114 0.174033 0.307114
v 0.164620 0.356712 0.164620
v 0.434327 0.174033 0.000001
v 0.232806 0.356712 0.000001
v 0.110068 0.562051 -0.110070
v 0.155662 0.562051 0.000001
v 0.110071 0.562051 0.110071
v 0.000001 0.562051 0.155661
v -0.110069 0.562051 0.110071
v -0.155663 0.562051 0.000001
v -0.110069 0.562051 -0.110070
v 0.000001 0.562051 -0.155663
v 0.000001 0.830697 -0.180707
v 0.127781 0.830697 -0.127779
v -0.127779 0.830697 -0.127779
v -0.180710 0.830697 0.000001
v -0.127782 0.830697 0.127781
v 0.000001 0.830697 0.180708
v 0.127781 0.830697 0.127781
v 0.180709 0.830697 0.000001
v 0.127781 0.830697 -0.127779
v 0.000001 0.830697 -0.180707
v 0.000001 0.847749 -0.134598
v 0.095176 0.847749 -0.095178
v -0.127779 0.830697 -0.127779
v -0.095177 0.847749 -0.095178
v -0.180710 0.830697 0.000001
v -0.134601 0.847749 0.000001
v -0.127782 0.830697 0.127781
v -0.095177 0.847749 0.095176
v 0.000001 0.830697 0.180708
v 0.000001 0.847749 0.134599
v 0.127781 0.830697 0.127781
v 0.095176 0.847749 0.095176
v 0.180709 0.830697 0.000001
v 0.134600 0.847749 0.000001
v 0.314821 0.040637 -0.314819
v 0.445224 0.040637 0.000001
v 0.314821 0.040637 0.314820
v -0.000002 0.040637 0.445224
v -0.314822 0.040637 0.314820
v -0.445225 0.040637 0.000001
v -0.314822 0.040637 -0.314823
v 0.000001 0.040637 -0.445223
vt 0.4648 0.1085
vt 0.3916 0.1816
vt 0.3916 0.1085
vt 0.3184 0.1085
vt 0.2451 0.1816
vt 0.2451 0.1085
vt 0.1719 0.1816
vt 0.1719 0.1085
vt 0.0987 0.1816
vt 0.0987 0.1085
vt 0.0255 0.1085
vt 0.6112 0.1816
vt 0.5380 0.1085
vt 0.6112 0.1085
vt 0.4648 0.1816
vt 0.5380 0.1816
vt 0.4648 0.2304
vt 0.5380 0.2304
vt 0.0255 0.1816
vt 0.0987 0.2304
vt 0.0255 0.2304
vt 0.1719 0.2304
vt 0.3184 0.2304
vt 0.2451 0.2304
vt 0.3184 0.1816
vt 0.3916 0.2304
vt 0.5380 0.3289
vt 0.4648 0.4227
vt 0.4648 0.3289
vt 0.6112 0.4227
vt 0.5380 0.4227
vt 0.0987 0.3289
vt 0.0255 0.4227
vt 0.0255 0.3289
vt 0.1719 0.3289
vt 0.0987 0.4227
vt 0.2451 0.3289
vt 0.1719 0.4227
vt 0.3184 0.3289
vt 0.2451 0.4227
vt 0.3916 0.4227
vt 0.3184 0.4227
vt 0.3916 0.3289
vt 0.4331 0.4487
vt 0.5170 0.4637
vt 0.4346 0.4637
vt 0.3523 0.4637
vt 0.3508 0.4487
vt 0.2700 0.4637
vt 0.2684 0.4487
vt 0.1876 0.4637
vt 0.1861 0.4487
vt 0.1053 0.4637
vt 0.1038 0.4487
vt 0.0230 0.4637
vt 0.0214 0.4487
vt 0.5978 0.4487
vt 0.6816 0.4637
vt 0.5993 0.4637
vt 0.5154 0.4487
vt 0.5993 0.6143
vt 0.5170 0.6143
vt 0.0230 0.6143
vt 0.1876 0.6143
vt 0.1053 0.6143
vt 0.2700 0.6143
vt 0.3523 0.6143
vt 0.4346 0.6143
vt 0.5993 0.6143
vt 0.5170 0.6251
vt 0.5170 0.6143
vt 0.6816 0.6251
vt 0.5993 0.6251
vt 0.0230 0.6143
vt 0.1053 0.6251
vt 0.0230 0.6251
vt 0.1876 0.6143
vt 0.1053 0.6143
vt 0.2700 0.6143
vt 0.1876 0.6251
vt 0.3523 0.6143
vt 0.2700 0.6251
vt 0.4346 0.6251
vt 0.3523 0.6251
vt 0.4346 0.6143
vt 0.4648 0.2797
vt 0.3916 0.2797
vt 0.3184 0.2797
vt 0.2451 0.2797
vt 0.1719 0.2797
vt 0.0987 0.2797
vt 0.0255 0.2797
vt 0.6112 0.2304
vt 0.5380 0.2797
vt 0.6112 0.3289
vt 0.6112 0.2797
vt 0.6801 0.4487
vt 0.6816 0.6143
vt 0.6816 0.6143
vn 0.5125 -0.6890 -0.5125
vn 0.8656 -0.5007 0.0000
vn 0.7248 -0.6890 0.0000
vn 0.5125 -0.6890 0.5125
vn 0.0000 -0.5007 0.8656
vn 0.0000 -0.6890 0.7248
vn -0.6120 -0.5007 0.6120
vn -0.5125 -0.6890 0.5125
vn -0.8656 -0.5007 0.0000
vn -0.7248 -0.6890 0.0000
vn -0.5125 -0.6890 -0.5125
vn -0.6120 -0.5007 -0.6120
vn 0.0000 -0.6890 -0.7248
vn 0.6120 -0.5007 -0.6120
vn 0.0000 -0.5007 -0.8656
vn 0.6883 -0.2288 -0.6883
vn 0.0000 -0.2288 -0.9734
vn -0.9734 -0.2289 0.0000
vn -0.6883 -0.2289 -0.6883
vn -0.6883 -0.2288 0.6883
vn 0.6883 -0.2288 0.6883
vn 0.0000 -0.2288 0.9734
vn 0.6120 -0.5007 0.6120
vn 0.9734 -0.2288 0.0000
vn 0.0000 0.4100 -0.9121
vn 0.5706 0.5906 -0.5706
vn 0.6449 0.4100 -0.6449
vn -0.5706 0.5906 -0.5706
vn 0.0000 0.5906 -0.8069
vn -0.9121 0.4100 0.0000
vn -0.6449 0.4100 -0.6449
vn -0.6449 0.4100 0.6449
vn -0.8069 0.5906 0.0000
vn 0.0000 0.4100 0.9121
vn -0.5706 0.5906 0.5706
vn 0.6449 0.4100 0.6449
vn 0.0000 0.5906 0.8069
vn 0.8069 0.5906 0.0000
vn 0.5706 0.5906 0.5706
vn 0.9121 0.4100 0.0000
vn 0.7001 0.1406 -0.7001
vn 0.9901 0.1406 0.0000
vn 0.7001 0.1406 0.7001
vn 0.0000 0.1406 0.9901
vn -0.7001 0.1406 0.7001
vn -0.9901 0.1406 0.0000
vn -0.7001 0.1406 -0.7001
vn 0.0000 0.1406 -0.9901
vn 0.0000 -0.0928 -0.9957
vn 0.7040 -0.0928 -0.7040
vn -0.7040 -0.0928 -0.7040
vn -0.7040 -0.0928 0.7040
vn -0.9957 -0.0928 0.0000
vn 0.0000 -0.0928 0.9957
vn 0.7040 -0.0928 0.7040
vn 0.9957 -0.0928 0.0000
vn 0.0000 0.9379 -0.3468
vn 0.2452 0.9379 -0.2452
vn -0.2452 0.9379 -0.2452
vn -0.3468 0.9379 0.0000
vn -0.2452 0.9379 0.2452
vn 0.0000 0.9379 0.3468
vn 0.2452 0.9379 0.2452
vn 0.3468 0.9379 0.0000
vn 0.7069 -0.0255 -0.7069
vn 0.9997 -0.0256 0.0000
vn 0.7069 -0.0255 0.7069
vn 0.0000 -0.0255 0.9997
vn -0.7069 -0.0255 0.7069
vn -0.9997 -0.0256 0.0000
vn -0.7069 -0.0255 -0.7069
vn 0.0000 -0.0255 -0.9997
usemtl botella.002
s 1
f 1/1/1 3/2/2 4/3/3
f 3/2/2 6/4/4 4/3/3
f 6/4/4 7/5/5 8/6/6
f 8/6/6 9/7/7 10/8/8
f 10/8/8 11/9/9 12/10/10
f 11/9/9 14/11/11 12/10/10
f 13/12/12 16/13/13 14/14/11
f 2/15/14 16/13/13 15/16/15
f 15/16/15 18/17/16 2/15/14
f 13/12/12 17/18/17 15/16/15
f 13/19/12 20/20/18 19/21/19
f 9/7/7 20/20/18 11/9/9
f 7/5/5 21/22/20 9/7/7
f 7/5/5 23/23/21 22/24/22
f 5/25/23 24/26/24 23/23/21
f 2/15/14 24/26/24 3/2/2
f 26/27/25 28/28/26 25/29/27
f 26/27/25 30/30/28 27/31/29
f 31/32/30 30/33/28 29/34/31
f 33/35/32 32/36/33 31/32/30
f 35/37/34 34/38/35 33/35/32
f 37/39/36 36/40/37 35/37/34
f 37/39/36 40/41/38 38/42/39
f 39/43/40 28/28/26 40/41/38
f 40/44/38 41/45/41 42/46/42
f 40/44/38 43/47/43 38/48/39
f 38/48/39 44/49/44 36/50/37
f 36/50/37 45/51/45 34/52/35
f 34/52/35 46/53/46 32/54/33
f 32/54/33 47/55/47 30/56/28
f 27/57/29 47/58/47 48/59/48
f 27/57/29 41/45/41 28/60/26
f 41/45/41 49/61/49 50/62/50
f 47/58/47 49/61/49 48/59/48
f 46/53/46 51/63/51 47/55/47
f 46/53/46 53/64/52 52/65/53
f 45/51/45 54/66/54 53/64/52
f 43/47/43 54/66/54 44/49/44
f 42/46/42 55/67/55 43/47/43
f 42/46/42 50/62/50 56/68/56
f 58/69/57 60/70/58 57/71/58
f 58/69/57 62/72/59 59/73/57
f 61/74/59 64/75/60 62/76/59
f 65/77/61 64/75/60 63/78/60
f 67/79/62 66/80/61 65/77/61
f 69/81/63 68/82/62 67/79/62
f 69/81/63 72/83/64 70/84/63
f 57/71/58 72/83/64 71/85/64
f 73/86/65 24/26/24 18/17/16
f 73/86/65 39/43/40 74/87/66
f 24/26/24 75/88/67 23/23/21
f 74/87/66 37/39/36 75/88/67
f 75/88/67 22/24/22 23/23/21
f 37/39/36 76/89/68 75/88/67
f 76/89/68 21/22/20 22/24/22
f 76/89/68 33/35/32 77/90/69
f 77/90/69 20/20/18 21/22/20
f 33/35/32 78/91/70 77/90/69
f 78/91/70 19/21/19 20/20/18
f 78/91/70 29/34/31 79/92/71
f 19/93/19 80/94/72 17/18/17
f 29/95/31 80/94/72 79/96/71
f 80/94/72 18/17/16 17/18/17
f 80/94/72 25/29/27 73/86/65
f 1/1/1 2/15/14 3/2/2
f 3/2/2 5/25/23 6/4/4
f 6/4/4 5/25/23 7/5/5
f 8/6/6 7/5/5 9/7/7
f 10/8/8 9/7/7 11/9/9
f 11/9/9 13/19/12 14/11/11
f 13/12/12 15/16/15 16/13/13
f 2/15/14 1/1/1 16/13/13
f 15/16/15 17/18/17 18/17/16
f 13/12/12 19/93/19 17/18/17
f 13/19/12 11/9/9 20/20/18
f 9/7/7 21/22/20 20/20/18
f 7/5/5 22/24/22 21/22/20
f 7/5/5 5/25/23 23/23/21
f 5/25/23 3/2/2 24/26/24
f 2/15/14 18/17/16 24/26/24
f 26/27/25 27/31/29 28/28/26
f 26/27/25 29/95/31 30/30/28
f 31/32/30 32/36/33 30/33/28
f 33/35/32 34/38/35 32/36/33
f 35/37/34 36/40/37 34/38/35
f 37/39/36 38/42/39 36/40/37
f 37/39/36 39/43/40 40/41/38
f 39/43/40 25/29/27 28/28/26
f 40/44/38 28/60/26 41/45/41
f 40/44/38 42/46/42 43/47/43
f 38/48/39 43/47/43 44/49/44
f 36/50/37 44/49/44 45/51/45
f 34/52/35 45/51/45 46/53/46
f 32/54/33 46/53/46 47/55/47
f 27/57/29 30/97/28 47/58/47
f 27/57/29 48/59/48 41/45/41
f 41/45/41 48/59/48 49/61/49
f 47/58/47 51/98/51 49/61/49
f 46/53/46 52/65/53 51/63/51
f 46/53/46 45/51/45 53/64/52
f 45/51/45 44/49/44 54/66/54
f 43/47/43 55/67/55 54/66/54
f 42/46/42 56/68/56 55/67/55
f 42/46/42 41/45/41 50/62/50
f 58/69/57 59/73/57 60/70/58
f 58/69/57 61/99/59 62/72/59
f 61/74/59 63/78/60 64/75/60
f 65/77/61 66/80/61 64/75/60
f 67/79/62 68/82/62 66/80/61
f 69/81/63 70/84/63 68/82/62
f 69/81/63 71/85/64 72/83/64
f 57/71/58 60/70/58 72/83/64
f 73/86/65 74/87/66 24/26/24
f 73/86/65 25/29/27 39/43/40
f 24/26/24 74/87/66 75/88/67
f 74/87/66 39/43/40 37/39/36
f 75/88/67 76/89/68 22/24/22
f 37/39/36 35/37/34 76/89/68
f 76/89/68 77/90/69 21/22/20
f 76/89/68 35/37/34 33/35/32
f 77/90/69 78/91/70 20/20/18
f 33/35/32 31/32/30 78/91/70
f 78/91/70 79/92/71 19/21/19
f 78/91/70 31/32/30 29/34/31
f 19/93/19 79/96/71 80/94/72
f 29/95/31 26/27/25 80/94/72
f 80/94/72 73/86/65 18/17/16
f 80/94/72 26/27/25 25/29/27
o small_health_poti.001_Cylinder.000
v 0.196226 -0.355014 -0.196225
v 0.277505 -0.355014 0.000000
v 0.196226 -0.355014 0.196226
v 0.000001 -0.355014 0.277505
v -0.196228 -0.355014 0.196226
v -0.277506 -0.355014 0.000000
v -0.196228 -0.355014 -0.196225
v -0.000002 -0.355014 -0.277507
v 0.196226 -0.415020 -0.196225
v -0.000002 -0.415020 -0.277507
v -0.196228 -0.415020 -0.196225
v -0.277506 -0.415020 0.000000
v -0.196228 -0.415020 0.196226
v 0.000001 -0.415020 0.277505
v 0.196226 -0.415020 0.196226
v 0.277505 -0.415020 0.000000
v 0.000001 -0.415020 0.000000
v 0.196226 -0.415020 -0.196225
v 0.277505 -0.415020 0.000000
v 0.196226 -0.415020 0.196226
v 0.000001 -0.415020 0.277505
v -0.196228 -0.415020 0.196226
v -0.277506 -0.415020 0.000000
v -0.196228 -0.415020 -0.196225
v -0.000002 -0.415020 -0.277507
v 0.106174 1.020010 -0.106172
v 0.000001 1.020010 -0.150151
v -0.106175 1.020010 -0.106172
v -0.150154 1.020010 0.000001
v 0.150153 1.020010 0.000001
v -0.106175 1.020010 0.106174
v 0.106174 1.020010 0.106174
v 0.000001 1.020010 0.150153
v 0.000001 0.847749 -0.134598
v 0.000001 0.985557 -0.164648
v 0.116423 0.985557 -0.116421
v 0.095176 0.847749 -0.095178
v 0.000001 1.020010 -0.150151
v 0.106174 1.020010 -0.106172
v -0.095177 0.847749 -0.095178
v -0.116424 0.985557 -0.116421
v -0.106175 1.020010 -0.106172
v -0.134601 0.847749 0.000001
v -0.164648 0.985557 0.000001
v -0.150154 1.020010 0.000001
v -0.095177 0.847749 0.095176
v -0.116424 0.985557 0.116423
v -0.106175 1.020010 0.106174
v 0.000001 0.847749 0.134599
v 0.000001 0.985557 0.164646
v 0.000001 1.020010 0.150153
v 0.095176 0.847749 0.095176
v 0.116423 0.985557 0.116423
v 0.106174 1.020010 0.106174
v 0.134600 0.847749 0.000001
v 0.164646 0.985557 0.000001
v 0.150153 1.020010 0.000001
vt 0.6250 0.8637
vt 0.7500 0.8069
vt 0.7500 0.8637
vt 0.8750 0.8069
vt 0.8750 0.8637
vt 1.0000 0.8069
vt 1.0000 0.8637
vt 0.0000 0.8637
vt 0.1250 0.8069
vt 0.1250 0.8637
vt 0.2500 0.8069
vt 0.2500 0.8637
vt 0.3750 0.8069
vt 0.3750 0.8637
vt 0.5000 0.8069
vt 0.5000 0.8637
vt 0.6250 0.8069
vt 0.7500 0.8893
vt 0.6250 0.7365
vt 0.7500 0.7365
vt 0.7500 0.9275
vt 0.6250 0.8893
vt 0.8750 0.7365
vt 0.8750 0.8893
vt 1.0000 0.7365
vt 1.0000 0.8893
vt 0.8750 0.9275
vt 0.1250 0.7365
vt 0.0000 0.8893
vt 0.0000 0.7365
vt 0.1250 0.9275
vt 0.1250 0.8893
vt 0.2500 0.8893
vt 0.2500 0.7365
vt 0.3750 0.7365
vt 0.3750 0.9275
vt 0.3750 0.8893
vt 0.5000 0.8893
vt 0.5000 0.7365
vt 0.6250 0.9275
vt 0.0000 0.8069
vt 1.0000 0.9275
vt 0.0000 0.9275
vt 0.2500 0.9275
vt 0.5000 0.9275
vt 0.7204 0.8085
vt 0.7823 0.6591
vt 0.8698 0.7466
vt 0.8698 0.8704
vt 0.7823 0.9579
vt 0.6585 0.9579
vt 0.5709 0.8704
vt 0.5709 0.7466
vt 0.6585 0.6591
vt 0.7837 0.6610
vt 0.8721 0.7494
vt 0.8721 0.8745
vt 0.7837 0.9629
vt 0.6587 0.6610
vt 0.6587 0.9629
vt 0.5703 0.7494
vt 0.5703 0.8745
vn 0.7071 0.0000 -0.7071
vn 0.0000 0.0000 -1.0000
vn -0.7071 0.0000 -0.7071
vn -1.0000 0.0000 0.0000
vn -0.7071 0.0000 0.7071
vn 0.0000 0.0000 1.0000
vn 0.7071 0.0000 0.7071
vn 1.0000 0.0000 0.0000
vn 0.0000 0.0856 -0.9963
vn 0.6908 -0.2130 -0.6908
vn 0.0000 -0.2130 -0.9770
vn 0.0000 0.3878 -0.9217
vn 0.7045 0.0856 -0.7045
vn -0.6908 -0.2130 -0.6909
vn -0.7045 0.0856 -0.7045
vn -0.9770 -0.2130 0.0000
vn -0.9963 0.0855 0.0000
vn -0.6518 0.3878 -0.6518
vn -0.6908 -0.2130 0.6909
vn -0.6518 0.3878 0.6518
vn -0.7045 0.0856 0.7045
vn 0.0000 0.0855 0.9963
vn 0.0000 -0.2130 0.9770
vn 0.6908 -0.2130 0.6908
vn 0.6518 0.3878 0.6518
vn 0.7045 0.0856 0.7045
vn 0.9963 0.0855 0.0000
vn 0.9770 -0.2130 0.0000
vn 0.6518 0.3878 -0.6518
vn -0.9218 0.3877 0.0000
vn 0.0000 0.3877 0.9218
vn 0.9218 0.3877 0.0000
vn 0.0000 -1.0000 -0.0000
vn 0.0000 1.0000 0.0000
usemtl corcho.003
s 1
f 81/100/73 90/101/74 88/102/74
f 88/102/74 91/103/75 87/104/75
f 87/104/75 92/105/76 86/106/76
f 86/107/76 93/108/77 85/109/77
f 85/109/77 94/110/78 84/111/78
f 84/111/78 95/112/79 83/113/79
f 83/113/79 96/114/80 82/115/80
f 82/115/80 89/116/73 81/100/73
f 115/117/81 117/118/82 114/119/83
f 118/120/84 116/121/85 115/117/81
f 120/122/86 115/117/81 114/119/83
f 121/123/87 118/120/84 115/117/81
f 123/124/88 121/123/87 120/122/86
f 124/125/89 122/126/90 121/123/87
f 126/127/91 124/128/89 123/129/88
f 128/130/92 124/128/89 127/131/93
f 130/132/94 126/127/91 129/133/95
f 130/132/94 128/130/92 127/131/93
f 132/134/96 130/132/94 129/133/95
f 134/135/97 130/132/94 133/136/98
f 136/137/99 132/134/96 135/138/100
f 136/137/99 134/135/97 133/136/98
f 116/121/85 135/138/100 117/118/82
f 119/139/101 136/137/99 116/121/85
f 81/100/73 89/116/73 90/101/74
f 88/102/74 90/101/74 91/103/75
f 87/104/75 91/103/75 92/105/76
f 86/107/76 92/140/76 93/108/77
f 85/109/77 93/108/77 94/110/78
f 84/111/78 94/110/78 95/112/79
f 83/113/79 95/112/79 96/114/80
f 82/115/80 96/114/80 89/116/73
f 115/117/81 116/121/85 117/118/82
f 118/120/84 119/139/101 116/121/85
f 120/122/86 121/123/87 115/117/81
f 121/123/87 122/126/90 118/120/84
f 123/124/88 124/125/89 121/123/87
f 124/125/89 125/141/102 122/126/90
f 126/127/91 127/131/93 124/128/89
f 128/130/92 125/142/102 124/128/89
f 130/132/94 127/131/93 126/127/91
f 130/132/94 131/143/103 128/130/92
f 132/134/96 133/136/98 130/132/94
f 134/135/97 131/143/103 130/132/94
f 136/137/99 133/136/98 132/134/96
f 136/137/99 137/144/104 134/135/97
f 116/121/85 136/137/99 135/138/100
f 119/139/101 137/144/104 136/137/99
usemtl corcho.003_botella2.jpg
s off
f 97/145/105 98/146/105 99/147/105
f 97/145/105 99/147/105 100/148/105
f 97/145/105 100/148/105 101/149/105
f 97/145/105 101/149/105 102/150/105
f 97/145/105 102/150/105 103/151/105
f 97/145/105 103/151/105 104/152/105
f 97/145/105 104/152/105 105/153/105
f 105/153/105 98/146/105 97/145/105
usemtl corcho.003_NONE
s 1
f 106/154/106 107/155/106 108/156/106
f 106/154/106 108/156/106 109/157/106
f 110/158/106 106/154/106 109/157/106
f 110/158/106 109/157/106 111/159/106
f 112/160/106 110/158/106 111/159/106
f 112/160/106 111/159/106 113/161/106
