# Blender v2.79 (sub 0) OBJ File: 'Stentrappa.blend'
# www.blender.org
mtllib Stentrappa.mtl
o Cube
v 0.593800 -0.492013 -0.593800
v 0.593800 -0.492013 0.593800
v -0.593800 -0.492013 0.593800
v -0.593800 -0.492013 -0.593800
v 0.593800 -0.259595 -0.593800
v 0.493549 -0.259595 0.593800
v -0.522945 -0.281022 0.593800
v -0.593800 -0.259595 -0.593800
v 0.593800 -0.492013 -0.340364
v 0.593800 -0.492013 -0.102845
v 0.593800 -0.492013 0.134675
v 0.593800 -0.492013 0.372195
v -0.593800 -0.492013 0.372195
v -0.593800 -0.492013 0.134675
v -0.593800 -0.492013 -0.102845
v -0.593800 -0.492013 -0.340365
v 0.593800 -0.259595 -0.340364
v 0.593800 -0.259595 -0.102844
v 0.593800 -0.259595 0.134676
v 0.593800 -0.259595 0.372196
v -0.593800 -0.259595 0.372195
v -0.593800 -0.259595 0.134675
v -0.593800 -0.259595 -0.102845
v -0.593800 -0.259595 -0.340365
v 0.593800 -0.259595 -0.593800
v -0.593800 -0.259595 -0.593800
v -0.593800 -0.259595 -0.340365
v 0.593800 -0.259595 -0.340364
v 0.593800 -0.025398 0.134676
v 0.486031 -0.072280 0.372196
v -0.528063 -0.025398 0.372195
v -0.593800 -0.025398 0.134675
v 0.593800 0.180842 -0.102844
v 0.530157 0.180842 0.134676
v -0.538915 0.180842 0.134675
v -0.593800 0.180842 -0.102845
v 0.593800 0.380833 -0.340364
v 0.544321 0.432738 -0.102844
v -0.593800 0.296755 -0.102845
v -0.593800 0.380833 -0.340365
v 0.593800 0.563740 -0.593800
v -0.593800 0.563740 -0.593800
v -0.593800 0.626671 -0.340365
v 0.532683 0.611950 -0.340364
v 0.356280 -0.492013 -0.593800
v 0.118760 -0.492013 -0.593800
v -0.118760 -0.492013 -0.593800
v -0.356280 -0.492013 -0.593800
v 0.356280 -0.492013 0.622704
v 0.118760 -0.492013 0.593800
v -0.118760 -0.492013 0.593800
v -0.356280 -0.492013 0.593800
v 0.356280 -0.259595 -0.593800
v 0.118760 -0.259595 -0.593800
v -0.118760 -0.259595 -0.593800
v -0.356280 -0.259595 -0.593800
v 0.356280 -0.337865 0.547972
v 0.118760 -0.259595 0.593800
v -0.118760 -0.311706 0.636600
v -0.356280 -0.223458 0.593800
v -0.356280 -0.259595 -0.340365
v -0.118760 -0.259595 -0.340364
v 0.118760 -0.259595 -0.340364
v 0.356280 -0.259595 -0.340364
v -0.356280 -0.223458 0.372195
v -0.118760 -0.289993 0.372195
v 0.118760 -0.259595 0.372195
v 0.356280 -0.337865 0.372196
v 0.356280 -0.492013 -0.340364
v 0.118760 -0.492013 -0.340365
v -0.118760 -0.492013 -0.340365
v -0.356280 -0.492013 -0.340365
v 0.356280 -0.492013 -0.102845
v 0.118760 -0.492013 -0.102845
v -0.118760 -0.492013 -0.102845
v -0.356280 -0.492013 -0.102845
v 0.356280 -0.492013 0.134675
v 0.118760 -0.492013 0.134675
v -0.118760 -0.492013 0.134675
v -0.356280 -0.492013 0.134675
v 0.356280 -0.492013 0.372195
v 0.118760 -0.492013 0.372195
v -0.118760 -0.492013 0.372195
v -0.356280 -0.492013 0.372195
v 0.356280 -0.259595 -0.593800
v 0.118760 -0.259595 -0.593800
v -0.118760 -0.259595 -0.593800
v -0.356280 -0.259595 -0.593800
v -0.356280 -0.259595 -0.340365
v -0.118760 -0.259595 -0.340364
v 0.118760 -0.259595 -0.340364
v 0.356280 -0.259595 -0.340364
v -0.356280 -0.055977 0.134675
v -0.118760 -0.025398 0.134675
v 0.118760 -0.059648 0.134676
v 0.356280 -0.025398 0.134676
v -0.356280 -0.055977 0.372195
v -0.118760 -0.025398 0.334915
v 0.118760 -0.059648 0.396564
v 0.356280 -0.025398 0.372196
v 0.356280 0.563740 -0.593800
v 0.118760 0.532749 -0.593800
v -0.118760 0.563740 -0.593800
v -0.356280 0.606318 -0.593800
v -0.356280 0.606318 -0.297031
v -0.118760 0.563740 -0.396350
v 0.118760 0.532749 -0.340364
v 0.356419 0.564500 -0.391944
v -0.356280 -0.259595 0.134675
v -0.118760 -0.259595 0.134675
v 0.118760 -0.259595 0.134676
v 0.356280 -0.259595 0.134676
v -0.356280 0.180842 -0.102845
v -0.118760 0.216752 -0.102844
v 0.118760 0.180842 -0.102844
v 0.356280 0.147660 -0.102844
v -0.356280 0.118630 0.091463
v -0.118760 0.216752 0.134675
v 0.120990 0.182221 0.079975
v 0.356280 0.121468 0.134676
v -0.356280 -0.259595 -0.102845
v -0.118760 -0.259595 -0.102844
v 0.118760 -0.259595 -0.102844
v 0.356280 -0.259595 -0.102844
v -0.356280 0.339081 -0.340365
v -0.118760 0.380833 -0.340364
v 0.118760 0.329481 -0.340364
v 0.356280 0.380833 -0.340364
v -0.356280 0.339081 -0.067353
v -0.118760 0.380833 -0.161053
v 0.118760 0.329481 -0.102844
v 0.356280 0.380833 -0.132257
v -0.593800 0.068640 0.144151
v -0.593800 0.068640 -0.102845
v 0.593800 0.068640 -0.102844
v 0.593800 0.068640 0.134676
v -0.356280 0.068640 0.156140
v -0.118760 0.095402 0.156141
v 0.118760 0.068640 0.161138
v 0.356280 0.043911 0.161138
v 0.593800 0.293637 -0.340364
v 0.593800 0.293637 -0.075960
v -0.593800 0.293637 -0.074242
v -0.593800 0.293637 -0.340365
v -0.356280 0.257569 -0.074242
v -0.118760 0.293637 -0.075125
v 0.118760 0.249277 -0.075125
v 0.356280 0.293637 -0.075960
v 0.593800 0.482344 -0.593800
v 0.593800 0.482344 -0.340364
v -0.593800 0.482344 -0.593800
v -0.593800 0.482344 -0.312312
v -0.356280 0.520713 -0.271359
v -0.118760 0.482344 -0.298537
v 0.118760 0.454417 -0.298537
v 0.356280 0.482344 -0.340364
v 0.356280 0.482344 -0.593800
v 0.118760 0.454417 -0.593800
v -0.118760 0.482344 -0.593800
v -0.356280 0.520713 -0.593800
v 0.593800 -0.143453 0.388207
v -0.593800 -0.143453 0.372195
v -0.593800 -0.143453 0.134675
v 0.593800 -0.143453 0.134676
v -0.356280 -0.140402 0.393189
v -0.118760 -0.158776 0.393190
v 0.118760 -0.160438 0.410669
v 0.356280 -0.182908 0.388206
v 0.593800 -0.375804 -0.593800
v 0.593800 -0.375804 0.593800
v -0.593800 -0.375804 0.593800
v -0.593800 -0.375804 -0.593800
v -0.593800 -0.375804 0.372195
v -0.593800 -0.375804 0.134675
v -0.593800 -0.375804 -0.102845
v -0.593800 -0.375804 -0.340365
v 0.593800 -0.375804 -0.340364
v 0.593800 -0.375804 -0.102844
v 0.593800 -0.375804 0.134676
v 0.593800 -0.375804 0.372196
v 0.356280 -0.375804 -0.593800
v 0.118760 -0.375804 -0.593800
v -0.118760 -0.375804 -0.593800
v -0.356280 -0.375804 -0.593800
v 0.356280 -0.414939 0.622704
v 0.118760 -0.375804 0.622704
v -0.118760 -0.391003 0.630425
v -0.356280 -0.357735 0.598005
v 0.593800 -0.492013 0.015915
v -0.593800 -0.492013 0.015915
v 0.593800 -0.259595 0.015916
v -0.593800 -0.259595 0.015915
v 0.593800 0.180842 0.015916
v -0.593800 0.180842 0.015915
v 0.356280 -0.492013 0.015915
v 0.118760 -0.492013 0.015915
v -0.118760 -0.492013 0.015915
v -0.356280 -0.492013 0.015915
v 0.356280 0.147660 0.061240
v 0.118760 0.180842 0.015916
v -0.118760 0.216752 0.058938
v -0.356280 0.180842 0.015915
v 0.593800 0.068640 0.015916
v -0.593800 0.068640 0.020653
v 0.593800 -0.375804 0.015916
v -0.593800 -0.375804 0.015915
v 0.593800 -0.492013 -0.221604
v -0.593800 -0.492013 -0.221605
v 0.593800 -0.259595 -0.221604
v -0.593800 -0.259595 -0.221605
v 0.593800 0.380833 -0.221604
v -0.593800 0.380833 -0.221605
v 0.356280 -0.492013 -0.221605
v 0.118760 -0.492013 -0.221605
v -0.118760 -0.492013 -0.221605
v -0.356280 -0.492013 -0.221605
v 0.356280 0.380833 -0.268443
v 0.048061 0.329481 -0.221604
v -0.118760 0.380833 -0.175621
v -0.356280 0.339081 -0.221605
v -0.593800 0.293637 -0.207303
v 0.593800 0.293637 -0.208162
v 0.593800 -0.375804 -0.221604
v -0.593800 -0.375804 -0.221605
v -0.593800 -0.492013 -0.467082
v -0.593800 -0.259595 -0.467082
v 0.593800 -0.492013 -0.467082
v 0.593800 -0.259595 -0.467082
v -0.593800 -0.259595 -0.467082
v 0.593800 -0.259595 -0.467082
v -0.593800 0.563740 -0.467082
v 0.593800 0.563740 -0.467082
v 0.271390 0.563740 -0.467082
v 0.118760 0.532749 -0.467082
v -0.118760 0.603981 -0.503919
v -0.356280 0.606318 -0.467082
v 0.356280 -0.492013 -0.467082
v 0.118760 -0.492013 -0.467082
v -0.118760 -0.492013 -0.467082
v -0.356280 -0.492013 -0.467082
v -0.593800 0.482344 -0.453056
v 0.593800 0.482344 -0.467082
v 0.593800 -0.375804 -0.467082
v -0.593800 -0.375804 -0.467082
v 0.593800 -0.492013 0.253435
v -0.593800 -0.492013 0.253435
v 0.593800 -0.259595 0.253436
v -0.593800 -0.259595 0.253435
v 0.593800 -0.025398 0.253436
v -0.593800 -0.025398 0.253435
v 0.356280 -0.025398 0.214683
v 0.118760 -0.059648 0.253435
v -0.118760 -0.025398 0.276039
v -0.281135 -0.055977 0.253435
v 0.356280 -0.492013 0.253435
v 0.118760 -0.492013 0.253435
v -0.118760 -0.492013 0.253435
v -0.356280 -0.492013 0.253435
v 0.593800 -0.143453 0.261441
v -0.593800 -0.143453 0.253435
v 0.593800 -0.375804 0.253436
v -0.593800 -0.375804 0.253435
v 0.593800 -0.492013 0.482998
v 0.593800 -0.259595 0.482998
v -0.593800 -0.492013 0.482997
v -0.593800 -0.259595 0.482997
v 0.304319 -0.337865 0.482998
v 0.118760 -0.232071 0.482998
v -0.082156 -0.286608 0.490720
v -0.375386 -0.192120 0.472408
v 0.356280 -0.492013 0.497450
v 0.118760 -0.492013 0.482998
v -0.118760 -0.492013 0.482998
v -0.356280 -0.492013 0.482998
v -0.593800 -0.375804 0.482997
v 0.593800 -0.375804 0.482998
vt 0.267710 0.008108
vt 0.334637 0.039188
vt 0.267710 0.039188
vt 0.381291 0.938598
vt 0.346751 0.980116
vt 0.346979 0.933272
vt 0.530072 0.031837
vt 0.562799 0.000740
vt 0.562799 0.031808
vt 0.962175 0.066629
vt 0.940605 0.019847
vt 0.967305 0.000000
vt 0.213148 0.376780
vt 0.180411 0.341228
vt 0.213148 0.341244
vt 0.860723 0.933376
vt 0.893468 1.000000
vt 0.860723 1.000000
vt 0.180411 0.643195
vt 0.213148 0.612139
vt 0.213148 0.643211
vt 0.180411 0.578819
vt 0.213148 0.545531
vt 0.213148 0.578835
vt 0.213148 0.512227
vt 0.180411 0.478907
vt 0.213148 0.478923
vt 0.213148 0.445619
vt 0.180411 0.412299
vt 0.213148 0.412315
vt 0.530072 0.298234
vt 0.562799 0.262674
vt 0.562799 0.298205
vt 0.530072 0.229404
vt 0.562799 0.196075
vt 0.562799 0.229374
vt 0.530072 0.162804
vt 0.562799 0.129476
vt 0.562799 0.162775
vt 0.530072 0.096205
vt 0.562799 0.062876
vt 0.562799 0.096176
vt 0.000000 0.000000
vt 0.000000 0.000000
vt 0.000000 0.000000
vt 0.374269 0.262842
vt 0.349712 0.229565
vt 0.374269 0.225774
vt 0.087946 0.513494
vt 0.055990 0.545793
vt 0.056338 0.512150
vt 0.289232 0.407865
vt 0.320763 0.371644
vt 0.333795 0.408083
vt 0.267710 0.305684
vt 0.334637 0.270140
vt 0.334637 0.305684
vt 0.267710 0.203516
vt 0.334637 0.236828
vt 0.267710 0.236828
vt 0.267710 0.170204
vt 0.334637 0.136892
vt 0.334637 0.170204
vt 0.267710 0.070267
vt 0.334637 0.103579
vt 0.267710 0.103579
vt 0.663303 0.703783
vt 0.698975 0.680964
vt 0.698996 0.703783
vt 0.000000 0.000000
vt 0.000000 0.000000
vt 0.000000 0.000000
vt 0.000000 0.000000
vt 0.000000 0.000000
vt 0.000000 0.000000
vt 0.000000 0.000000
vt 0.000000 0.000000
vt 0.000000 0.000000
vt 0.449866 0.999972
vt 0.416296 0.933398
vt 0.449757 0.912322
vt 0.516872 0.933349
vt 0.483378 0.984554
vt 0.495364 0.933437
vt 0.147694 0.612107
vt 0.114437 0.578786
vt 0.147694 0.578803
vt 0.497364 0.129534
vt 0.464117 0.096264
vt 0.497364 0.093990
vt 0.955055 0.600326
vt 0.921443 0.667016
vt 0.911594 0.600322
vt 0.437633 0.196187
vt 0.406035 0.162915
vt 0.437633 0.162887
vt 0.839352 0.266629
vt 0.800415 0.315330
vt 0.817120 0.266550
vt 0.635080 0.266680
vt 0.595527 0.319353
vt 0.609673 0.266496
vt 0.024564 0.449537
vt 0.023685 0.478830
vt 0.000000 0.445514
vt 0.875891 0.600186
vt 0.840266 0.666775
vt 0.827978 0.600186
vt 0.803857 0.400389
vt 0.815981 0.333765
vt 0.827978 0.400389
vt 0.543568 0.400383
vt 0.580068 0.350907
vt 0.567484 0.400530
vt 0.583985 0.707362
vt 0.627585 0.684515
vt 0.623634 0.707343
vt 0.542943 0.666757
vt 0.577633 0.600083
vt 0.583985 0.666858
vt 0.542824 0.533470
vt 0.553149 0.599991
vt 0.557703 0.467002
vt 0.567244 0.533822
vt 0.535014 0.466852
vt 0.793046 0.600261
vt 0.815981 0.666885
vt 0.793046 0.666885
vt 0.807249 0.533637
vt 0.815981 0.600261
vt 0.793046 0.467013
vt 0.785177 0.533637
vt 0.815981 0.467013
vt 0.875719 0.333765
vt 0.854556 0.400348
vt 0.840189 0.350828
vt 0.875726 0.424199
vt 0.839915 0.467062
vt 0.875618 0.467062
vt 0.855805 0.533634
vt 0.886257 0.533567
vt 0.460785 0.733482
vt 0.416238 0.697161
vt 0.449866 0.666858
vt 0.449744 0.800161
vt 0.416405 0.733478
vt 0.426909 0.866725
vt 0.409417 0.800157
vt 0.443498 0.866726
vt 0.000000 0.000000
vt 0.000000 0.000000
vt 0.000000 0.000000
vt 0.000000 0.000000
vt 0.000000 0.000000
vt 0.000000 0.000000
vt 0.000000 0.000000
vt 0.000000 0.000000
vt 0.000000 0.000000
vt 0.000000 0.000000
vt 0.000000 0.000000
vt 0.000000 0.000000
vt 0.000000 0.000000
vt 0.000000 0.000000
vt 0.000000 0.070268
vt 0.066927 0.103580
vt 0.000000 0.103580
vt 0.066927 0.070267
vt 0.133855 0.103580
vt 0.133855 0.070267
vt 0.200782 0.103579
vt 0.200782 0.070267
vt 0.000000 0.136892
vt 0.066927 0.170204
vt 0.000000 0.170204
vt 0.066927 0.136892
vt 0.133855 0.170204
vt 0.133855 0.136892
vt 0.200782 0.170204
vt 0.267710 0.136892
vt 0.000000 0.203516
vt 0.066927 0.236828
vt 0.000000 0.236828
vt 0.066927 0.203516
vt 0.133855 0.236828
vt 0.200782 0.203516
vt 0.200782 0.236828
vt 0.000000 0.305684
vt 0.066927 0.270140
vt 0.066927 0.305684
vt 0.133855 0.270140
vt 0.133855 0.305684
vt 0.200782 0.270140
vt 0.200782 0.305684
vt 0.300245 0.607744
vt 0.332718 0.656118
vt 0.299423 0.674436
vt 0.295365 0.541108
vt 0.324324 0.607906
vt 0.323491 0.474578
vt 0.333795 0.541456
vt 0.294916 0.474424
vt 0.893468 0.666880
vt 0.860723 0.733504
vt 0.860723 0.666880
vt 0.893468 0.733504
vt 0.860723 0.800128
vt 0.893468 0.800128
vt 0.860723 0.866752
vt 0.893468 0.866752
vt 0.934096 0.304943
vt 0.978316 0.266589
vt 0.966744 0.333093
vt 0.955470 0.266298
vt 0.967417 0.199960
vt 0.949712 0.133374
vt 0.971926 0.133373
vt 0.378198 0.666858
vt 0.359579 0.733600
vt 0.346966 0.694960
vt 0.377879 0.748185
vt 0.346915 0.800086
vt 0.375834 0.856503
vt 0.378232 0.800058
vt 0.334637 0.866789
vt 0.000000 0.008108
vt 0.066927 0.035134
vt 0.000000 0.039188
vt 0.133855 0.008108
vt 0.133855 0.039188
vt 0.200782 0.039188
vt 0.200782 0.008108
vt 0.832317 0.066761
vt 0.800415 0.015481
vt 0.832130 0.000099
vt 0.824787 0.133385
vt 0.817247 0.066539
vt 0.799177 0.200373
vt 0.790312 0.133332
vt 0.832394 0.200016
vt 0.504112 0.733527
vt 0.483571 0.684685
vt 0.517043 0.666858
vt 0.498914 0.799463
vt 0.483327 0.733555
vt 0.504922 0.866659
vt 0.516958 0.800104
vt 0.483582 0.866643
vt 0.635107 0.000212
vt 0.622428 0.066864
vt 0.633785 0.000110
vt 0.635093 0.133446
vt 0.645254 0.066824
vt 0.624578 0.199973
vt 0.609225 0.133155
vt 0.647574 0.200056
vt 0.955204 0.333765
vt 0.930030 0.400386
vt 0.921929 0.347555
vt 0.968401 0.400389
vt 0.921560 0.467093
vt 0.955021 0.486926
vt 0.938144 0.533632
vt 0.942248 0.533633
vt 0.924331 0.199856
vt 0.924331 0.133237
vt 0.924331 0.066619
vt 0.924331 0.000000
vt 0.924331 0.333093
vt 0.924331 0.266474
vt 0.530072 0.196104
vt 0.180411 0.545515
vt 0.180411 0.512211
vt 0.790312 0.266475
vt 0.790312 0.199856
vt 0.790312 0.133237
vt 0.790312 0.066619
vt 0.790312 0.000000
vt 0.180411 0.445603
vt 0.790312 0.333093
vt 0.583985 0.400389
vt 0.583985 0.467013
vt 0.583985 0.533637
vt 0.583985 0.600261
vt 0.583985 0.666885
vt 0.334826 0.400383
vt 0.334779 0.467002
vt 0.334732 0.533621
vt 0.334684 0.600239
vt 0.334637 0.666858
vt 0.591888 0.915419
vt 0.627585 0.915401
vt 0.334874 0.333765
vt 0.793046 0.333765
vt 0.663491 0.911784
vt 0.699183 0.911784
vt 0.267616 0.474464
vt 0.258774 0.541051
vt 0.277204 0.607737
vt 0.266747 0.674318
vt 0.180411 0.612123
vt 0.268195 0.341228
vt 0.245884 0.407767
vt 0.999888 0.066650
vt 0.999775 0.133269
vt 0.999663 0.199887
vt 1.000000 0.266610
vt 0.999439 0.333124
vt 0.827978 0.866752
vt 0.827978 0.933376
vt 0.827978 0.800128
vt 0.827978 0.733504
vt 0.827978 0.666879
vt 0.595527 0.062847
vt 0.595527 0.096147
vt 0.595527 0.129446
vt 0.595527 0.162746
vt 0.595527 0.196045
vt 0.595527 0.229345
vt 0.595527 0.262645
vt 0.595527 0.298175
vt 0.245884 0.445635
vt 0.245884 0.412331
vt 0.245884 0.512243
vt 0.245884 0.478939
vt 0.245884 0.545547
vt 0.245884 0.578851
vt 0.245884 0.612155
vt 0.245884 0.643228
vt 0.827978 1.000000
vt 0.245884 0.376796
vt 0.245884 0.341260
vt 1.000000 0.000032
vt 0.595527 0.000711
vt 0.595527 0.031779
vt 0.087946 0.478861
vt 0.437633 0.129587
vt 0.530072 0.129505
vt 0.550505 0.866691
vt 0.550419 0.800128
vt 0.550343 0.733560
vt 0.550505 0.666882
vt 0.133855 0.203516
vt 0.405446 0.129128
vt 0.550333 0.933373
vt 0.516829 0.999972
vt 0.334637 0.203516
vt 0.056338 0.478846
vt 0.374269 0.188705
vt 0.024564 0.412222
vt 0.988665 0.533636
vt 0.988482 0.467098
vt 0.988665 0.400390
vt 0.988665 0.333767
vt 0.267710 0.270140
vt 0.000000 0.270140
vt 0.000000 0.412210
vt 0.988665 0.666882
vt 0.988516 0.600328
vt 0.334637 0.195899
vt 0.530072 0.262703
vt 0.562799 0.333736
vt 0.595527 0.333706
vt 0.734688 0.703783
vt 0.734876 0.911784
vt 0.663282 0.707323
vt 0.663282 0.915384
vt 0.200782 0.341228
vt 0.267710 0.341228
vt 0.133855 0.341228
vt 0.066927 0.341228
vt 0.000000 0.341228
vt 0.911594 0.600186
vt 0.911437 0.533634
vt 0.911321 0.467062
vt 0.911427 0.400388
vt 0.911422 0.333765
vt 0.663282 0.684498
vt 0.911447 0.666879
vt 0.000000 0.000000
vt 0.735126 0.666885
vt 0.334637 0.341228
vt 0.000000 0.000000
vt 0.530072 0.333765
vt 0.180411 0.376764
vt 0.147694 0.545499
vt 0.530072 0.062906
vt 0.497364 0.058446
vt 0.200782 0.136892
vt 0.483327 0.866729
vt 0.483205 0.800163
vt 0.483327 0.733483
vt 0.483327 0.666860
vt 0.476323 0.062126
vt 0.114437 0.545482
vt 0.483218 0.933403
vt 0.213148 0.674284
vt 0.245884 0.674300
vt 0.409211 0.866794
vt 0.409352 0.800121
vt 0.409105 0.733628
vt 0.409417 0.666875
vt 0.409256 0.999990
vt 0.409417 0.933307
vt 0.334637 0.070267
vt 0.334637 0.008108
vt 0.378037 0.999972
vt 0.529145 0.000000
vt 0.924331 0.066577
vt 0.893468 0.933376
vt 0.349712 0.262864
vt 0.087946 0.548126
vt 0.300622 0.341287
vt 0.663282 0.680964
vt 0.416405 0.981531
vt 0.114020 0.612496
vt 0.464117 0.129564
vt 0.955204 0.666879
vt 0.406035 0.196215
vt 0.831983 0.333158
vt 0.635080 0.333299
vt 0.024564 0.486851
vt 0.875744 0.666879
vt 0.543616 0.333765
vt 0.591888 0.666885
vt 0.934273 0.199824
vt 0.066927 0.000000
vt 0.583985 0.333765
vt 0.550291 0.999996
vt 0.483327 0.999975
vt 0.185998 0.674708
vn 0.0000 -1.0000 0.0000
vn -0.3131 0.9065 0.2833
vn 1.0000 0.0000 0.0000
vn -0.0188 0.0140 0.9997
vn -1.0000 -0.0000 0.0000
vn 0.0000 0.0000 -1.0000
vn 0.0000 0.0000 1.0000
vn -0.9076 0.0177 0.4194
vn 0.0365 0.1011 0.9942
vn 0.0972 0.9934 0.0615
vn 0.3820 0.7134 0.5875
vn -0.1754 0.9845 0.0000
vn -0.1096 0.3210 0.9407
vn -0.2706 0.5222 0.8088
vn 0.0854 0.9963 0.0000
vn -0.3642 0.4956 0.7885
vn -0.1606 0.1883 0.9689
vn 0.1541 0.2838 0.9464
vn -0.0504 0.7677 0.6388
vn 0.0995 0.4687 0.8777
vn -0.1253 0.9057 -0.4050
vn -0.1077 0.9879 0.1119
vn 0.1294 0.9916 0.0000
vn 0.0634 0.9347 0.3497
vn -0.0530 0.9443 0.3247
vn -0.1427 0.9898 -0.0000
vn 0.1427 0.9898 0.0000
vn -0.1851 0.9827 -0.0000
vn -0.0886 0.0493 0.9948
vn 0.0187 0.2413 0.9703
vn -0.1773 0.3940 0.9018
vn 0.1062 0.1378 0.9848
vn 0.1055 0.0910 0.9902
vn 0.1139 0.6916 0.7133
vn 0.0374 -0.0776 0.9963
vn -0.1454 -0.0768 0.9864
vn -0.3771 0.8611 -0.3412
vn 0.2681 0.9392 -0.2144
vn -0.2463 0.9406 0.2337
vn 0.3011 0.9243 0.2346
vn -0.0501 0.1084 0.9928
vn -0.0888 0.7881 0.6091
vn 0.2423 0.1690 0.9554
vn -0.0388 0.5815 0.8126
vn -0.1532 0.9848 -0.0821
vn 0.1629 0.9293 0.3314
vn 0.1448 0.9891 -0.0263
vn -0.3818 0.9242 -0.0000
vn -0.1898 0.9760 0.1064
vn 0.0165 -0.0842 0.9963
vn -0.0228 0.7017 0.7121
vn -0.0576 0.3261 0.9436
vn -0.1706 0.8748 -0.4534
vn -0.2113 0.9774 0.0000
vn 0.2428 0.9592 -0.1445
vn -0.1731 0.9849 0.0000
vn -0.0084 -0.0804 0.9967
vn -0.0278 -0.0603 0.9978
vn -0.0000 -0.0653 0.9979
vn -0.0000 -0.0289 0.9996
vn -0.0000 -0.0869 0.9962
vn -0.0000 -0.0544 0.9985
vn -0.0093 -0.0500 0.9987
vn -0.0000 -0.0552 0.9985
vn -0.0078 -0.0516 0.9986
vn -0.0000 -0.0485 0.9988
vn -0.0000 -0.0585 0.9983
vn -0.0066 -0.0563 0.9984
vn 0.0993 -0.0877 0.9912
vn -0.0000 -0.0378 0.9993
vn 0.0539 -0.3612 0.9309
vn 0.0202 -0.1580 0.9872
vn -0.0190 -0.2450 0.9693
vn 0.0338 -0.1027 0.9941
vn 0.0000 -0.3409 0.9401
vn -0.1208 -0.0000 0.9927
vn 0.1208 -0.0000 0.9927
vn -0.1495 0.9888 -0.0000
vn 0.1495 0.9888 0.0000
vn 0.1384 0.9904 0.0000
vn -0.1384 0.9904 0.0000
vn 0.7884 0.4472 0.4225
vn 0.0000 1.0000 0.0000
vn 0.2097 0.9698 0.1248
vn 0.1731 0.9849 0.0000
vn 0.9054 0.3642 0.2181
vn 0.1615 0.9007 -0.4033
vn 0.2873 0.9579 0.0000
vn -0.1289 0.9879 -0.0863
vn -0.1764 0.9843 0.0000
vn 0.8723 0.4114 0.2642
vn 0.5511 0.8344 0.0000
vn 0.0972 0.9934 -0.0615
vn 0.3113 0.9423 -0.1231
vn -0.2631 0.9363 -0.2326
vn 0.3097 0.9397 0.1452
vn -0.3130 0.9498 0.0000
vn -0.1425 0.9366 -0.3201
vn -0.2622 0.9023 0.3421
vn 0.6247 0.5389 0.5652
vn -0.0108 0.0313 0.9995
vn -0.8983 0.4394 -0.0000
vn -0.0294 0.1768 0.9838
vn 0.1744 0.9799 -0.0966
vn -0.7865 0.4380 0.4354
vn 0.1420 0.8079 0.5720
vn 0.1044 0.0592 0.9928
vn -0.0000 0.1898 0.9818
vn -0.1585 0.8843 -0.4392
vn -0.2070 0.2810 0.9371
vn 0.3756 0.7124 0.5928
vn 0.0553 0.4703 0.8808
vn 0.1121 0.5282 0.8417
vn 0.0000 0.9999 -0.0101
vn -0.1990 0.9800 0.0000
vn 0.2209 0.9135 0.3417
vn 0.1764 0.9843 0.0000
vn 0.3398 0.9405 0.0000
vn -0.1409 0.9860 -0.0892
vn 0.0429 0.2411 0.9696
vn 0.0919 0.3987 0.9125
vn -0.0717 0.1382 0.9878
vn 0.0872 0.1007 0.9911
vn -0.5370 0.5872 0.6056
vn 0.2578 0.2332 0.9376
vn 0.1210 0.2396 0.9633
vn -0.1661 0.0309 0.9856
vn -0.2555 0.9450 0.2043
vn 0.4841 0.8492 0.2109
vn -0.1922 0.9741 0.1194
vn 0.2896 0.9368 0.1963
vn 0.3827 0.7310 0.5650
vn -0.2435 0.1689 0.9551
vn 0.0483 0.5801 0.8131
vn 0.0336 0.3227 0.9459
vn -0.3062 0.8967 0.3198
vn 0.1432 0.9893 -0.0263
vn 0.1426 0.9898 0.0000
vn -0.2259 0.7520 0.6193
vn -0.0128 -0.0842 0.9964
vn 0.1557 0.6934 0.7036
vn 0.0609 0.3260 0.9434
vn -0.0132 0.5424 0.8400
vn -0.1504 0.9846 0.0895
vn 0.2942 0.9557 0.0000
vn -0.0000 -0.0804 0.9968
vn 0.0068 -0.0604 0.9982
vn -0.0503 -0.0652 0.9966
vn 0.1107 0.0000 0.9939
vn 0.0126 -0.0485 0.9987
vn 0.0113 -0.0500 0.9987
vn 0.1734 0.0000 0.9848
vn -0.0000 -0.0563 0.9984
vn -0.1556 -0.0870 0.9840
vn -0.0338 -0.1027 0.9941
vn -0.0710 -0.3608 0.9299
vn -0.0442 -0.1578 0.9865
vn -0.0823 -0.2442 0.9662
vn 0.0227 -0.1365 0.9904
vn -0.1394 -0.0310 0.9897
vn 0.0469 -0.2411 0.9694
vn -0.0397 -0.2412 0.9697
vn -0.0153 -0.0313 0.9994
vn -0.1792 0.9780 -0.1067
vn 0.0098 1.0000 0.0000
vn 0.1182 0.9063 -0.4058
vn -0.1273 0.9886 0.0805
vn 0.7306 0.0462 0.6812
vn 0.1277 0.9918 0.0000
vn 0.2617 0.9342 -0.2423
vn -0.1269 0.9919 0.0109
vn 0.4841 0.8492 -0.2109
vn -0.2591 0.9582 -0.1215
vn -0.6783 0.5071 0.5318
vn -0.2952 0.9554 0.0000
usemtl Material
s off
f 52/1/1 265/2/1 274/3/1
f 270/4/2 7/5/2 60/6/2
f 264/7/3 170/8/3 276/9/3
f 188/10/4 7/11/4 171/12/4
f 244/13/5 8/14/5 172/15/5
f 184/16/6 4/17/6 172/18/6
f 266/19/5 173/20/5 275/21/5
f 248/22/5 174/23/5 262/24/5
f 206/25/5 23/26/5 175/27/5
f 224/28/5 24/29/5 176/30/5
f 228/31/3 177/32/3 243/33/3
f 209/34/3 178/35/3 223/36/3
f 191/37/3 179/38/3 205/39/3
f 247/40/3 180/41/3 261/42/3
f 226/43/7 27/44/7 229/45/7
f 141/46/3 211/47/3 222/48/3
f 204/49/8 35/50/8 194/51/8
f 168/52/9 30/53/9 100/54/9
f 240/55/1 16/56/1 225/57/1
f 76/58/1 208/59/1 216/60/1
f 198/61/1 14/62/1 190/63/1
f 84/64/1 246/65/1 258/66/1
f 149/67/3 232/68/3 242/69/3
f 56/70/7 26/71/7 88/72/7
f 228/73/7 25/74/7 230/75/7
f 64/76/7 28/77/7 92/78/7
f 250/79/10 97/80/10 254/81/10
f 202/82/11 35/83/11 117/84/11
f 162/85/5 250/86/5 260/87/5
f 164/88/3 249/89/3 259/90/3
f 220/91/12 39/92/12 129/93/12
f 135/94/3 193/95/3 203/96/3
f 140/97/13 34/98/13 120/99/13
f 148/100/14 38/101/14 132/102/14
f 221/103/5 39/104/5 212/105/5
f 236/106/15 43/107/15 105/108/15
f 160/109/6 42/110/6 104/111/6
f 156/112/16 44/113/16 108/114/16
f 152/115/5 231/116/5 241/117/5
f 152/118/17 105/119/17 43/120/17
f 154/121/18 105/119/18 153/122/18
f 154/121/19 107/123/19 106/124/19
f 156/112/20 107/123/20 155/125/20
f 157/126/6 41/127/6 149/128/6
f 157/126/6 102/129/6 101/130/6
f 159/131/6 102/129/6 158/132/6
f 160/109/6 103/133/6 159/131/6
f 232/134/21 108/135/21 44/136/21
f 233/137/22 107/138/22 108/135/22
f 234/139/23 106/140/23 107/138/23
f 236/106/24 106/140/24 235/141/24
f 251/142/25 30/143/25 249/144/25
f 252/145/26 100/146/26 251/142/26
f 252/145/27 98/147/27 99/148/27
f 254/81/28 98/147/28 253/149/28
f 24/150/7 89/151/7 27/44/7
f 61/152/7 90/153/7 89/151/7
f 62/154/7 91/155/7 90/153/7
f 63/156/7 92/78/7 91/155/7
f 5/157/7 85/158/7 25/74/7
f 53/159/7 86/160/7 85/158/7
f 54/161/7 87/162/7 86/160/7
f 55/163/7 88/72/7 87/162/7
f 12/164/1 255/165/1 245/166/1
f 81/167/1 256/168/1 255/165/1
f 82/169/1 257/170/1 256/168/1
f 83/171/1 258/66/1 257/170/1
f 11/172/1 195/173/1 189/174/1
f 77/175/1 196/176/1 195/173/1
f 78/177/1 197/178/1 196/176/1
f 197/178/1 80/179/1 198/61/1
f 10/180/1 213/181/1 207/182/1
f 73/183/1 214/184/1 213/181/1
f 214/184/1 75/185/1 215/186/1
f 215/186/1 76/58/1 216/60/1
f 227/187/1 69/188/1 237/189/1
f 237/189/1 70/190/1 238/191/1
f 238/191/1 71/192/1 239/193/1
f 71/192/1 240/55/1 239/193/1
f 165/194/29 31/195/29 162/196/29
f 166/197/30 97/198/30 165/194/30
f 166/197/31 99/199/31 98/200/31
f 168/52/32 99/199/32 167/201/32
f 1/202/6 181/203/6 169/204/6
f 45/205/6 182/206/6 181/203/6
f 46/207/6 183/208/6 182/206/6
f 47/209/6 184/16/6 183/208/6
f 6/210/33 185/211/33 170/212/33
f 57/213/34 186/214/34 185/211/34
f 186/214/35 59/215/35 187/216/35
f 59/215/36 188/10/36 187/216/36
f 264/217/37 57/218/37 6/219/37
f 267/220/38 58/221/38 57/218/38
f 269/222/39 58/221/39 268/223/39
f 269/222/40 60/6/40 59/224/40
f 2/225/1 271/226/1 263/227/1
f 271/226/1 50/228/1 272/229/1
f 50/228/1 273/230/1 272/229/1
f 51/231/1 274/3/1 273/230/1
f 137/232/41 35/233/41 133/234/41
f 138/235/42 117/236/42 137/232/42
f 138/235/43 119/237/43 118/238/43
f 139/239/44 120/99/44 119/237/44
f 199/240/45 34/241/45 193/242/45
f 199/240/46 119/243/46 120/244/46
f 201/245/47 119/243/47 200/246/47
f 201/245/48 117/84/48 118/247/48
f 143/248/49 129/249/49 39/250/49
f 146/251/50 129/249/50 145/252/50
f 146/251/51 131/253/51 130/254/51
f 148/100/52 131/253/52 147/255/52
f 211/256/53 132/257/53 38/258/53
f 217/259/54 131/260/54 132/257/54
f 218/261/55 130/262/55 131/260/55
f 220/91/56 130/262/56 219/263/56
f 111/264/57 140/97/57 139/239/57
f 110/265/58 139/239/58 138/235/58
f 110/265/59 137/232/59 109/266/59
f 109/266/60 133/234/60 22/267/60
f 19/268/61 140/97/61 112/269/61
f 18/270/3 203/96/3 191/37/3
f 22/271/5 204/49/5 192/272/5
f 124/273/62 147/255/62 123/274/62
f 122/275/63 147/255/63 146/251/63
f 122/275/64 145/252/64 121/276/64
f 23/277/65 145/252/65 143/248/65
f 23/26/5 221/103/5 210/278/5
f 18/279/66 148/100/66 124/273/66
f 209/34/3 141/46/3 222/48/3
f 88/280/6 159/131/6 87/281/6
f 87/281/6 158/132/6 86/282/6
f 85/283/6 158/132/6 157/126/6
f 85/283/6 149/128/6 25/284/6
f 92/285/67 155/125/67 91/286/67
f 90/287/68 155/125/68 154/121/68
f 89/288/69 154/121/69 153/122/69
f 89/288/70 152/118/70 27/289/70
f 27/290/5 241/117/5 229/291/5
f 28/292/7 156/112/7 92/285/7
f 88/280/6 151/293/6 160/109/6
f 25/294/3 242/69/3 230/295/3
f 67/296/71 168/52/71 167/201/71
f 67/296/72 166/197/72 66/297/72
f 65/298/73 166/197/73 165/194/73
f 65/298/7 162/196/7 21/299/7
f 247/40/3 164/88/3 259/90/3
f 21/300/5 260/87/5 248/22/5
f 20/301/74 168/52/74 68/302/74
f 187/216/75 52/303/75 51/304/75
f 50/305/75 187/216/75 51/304/75
f 185/211/76 50/305/76 49/306/76
f 2/307/77 185/211/77 49/306/77
f 55/308/6 184/16/6 56/309/6
f 182/206/6 55/308/6 54/310/6
f 181/203/6 54/310/6 53/311/6
f 169/204/6 53/311/6 5/312/6
f 261/42/3 12/313/3 245/314/3
f 205/39/3 11/315/3 189/316/3
f 223/36/3 10/317/3 207/318/3
f 243/33/3 9/319/3 227/320/3
f 208/321/5 176/30/5 16/322/5
f 190/323/5 175/27/5 15/324/5
f 262/24/5 14/325/5 246/326/5
f 275/21/5 13/327/5 265/328/5
f 56/309/6 172/18/6 8/329/6
f 225/330/5 172/15/5 4/331/5
f 52/303/7 171/12/7 3/332/7
f 276/9/3 2/333/3 263/334/3
f 174/23/5 190/323/5 14/325/5
f 178/35/3 189/316/3 10/317/3
f 192/272/5 134/335/5 23/26/5
f 191/37/3 136/336/3 19/337/3
f 114/338/78 202/82/78 201/245/78
f 114/338/79 200/246/79 115/339/79
f 116/340/80 200/246/80 199/240/80
f 116/340/81 193/242/81 33/341/81
f 75/185/1 198/61/1 76/58/1
f 196/176/1 75/185/1 74/342/1
f 195/173/1 74/342/1 73/183/1
f 189/174/1 73/183/1 10/180/1
f 136/336/82 193/95/82 34/343/82
f 113/344/83 194/345/83 202/82/83
f 198/61/1 15/346/1 76/58/1
f 134/335/5 194/51/5 36/347/5
f 18/270/3 205/39/3 178/35/3
f 22/271/5 206/25/5 174/23/5
f 15/324/5 224/28/5 208/321/5
f 177/32/3 207/318/3 9/319/3
f 18/270/3 222/48/3 142/348/3
f 210/278/5 144/349/5 24/29/5
f 126/350/56 220/91/56 219/263/56
f 126/350/84 218/261/84 127/351/84
f 127/351/54 217/259/54 128/352/54
f 37/353/83 217/259/83 211/256/83
f 215/186/1 72/354/1 71/192/1
f 70/190/1 215/186/1 71/192/1
f 213/181/1 70/190/1 69/188/1
f 207/182/1 69/188/1 9/355/1
f 144/349/5 212/105/5 40/356/5
f 40/357/85 220/91/85 125/358/85
f 216/60/1 16/56/1 72/354/1
f 142/348/86 211/47/86 38/359/86
f 17/360/3 223/36/3 177/32/3
f 175/27/5 210/278/5 224/28/5
f 16/322/5 244/13/5 225/330/5
f 169/361/3 227/320/3 1/362/3
f 230/295/3 150/363/3 28/364/3
f 229/291/5 151/365/5 26/366/5
f 47/367/1 240/55/1 48/368/1
f 46/369/1 239/193/1 47/367/1
f 237/189/1 46/369/1 45/370/1
f 1/371/1 237/189/1 45/370/1
f 104/372/87 235/141/87 103/373/87
f 102/374/88 235/141/88 234/139/88
f 102/374/89 233/137/89 101/375/89
f 101/375/83 232/134/83 41/376/83
f 151/365/5 231/116/5 42/377/5
f 42/378/90 236/106/90 104/372/90
f 17/379/7 230/75/7 28/77/7
f 150/363/91 232/68/91 44/380/91
f 240/55/1 4/381/1 48/368/1
f 8/382/7 229/45/7 26/71/7
f 5/383/3 243/33/3 169/361/3
f 176/30/5 226/384/5 244/13/5
f 173/20/5 246/326/5 13/327/5
f 179/38/3 245/314/3 11/315/3
f 248/22/5 163/385/5 22/271/5
f 20/386/3 259/90/3 161/387/3
f 79/388/1 258/66/1 80/179/1
f 256/168/1 79/388/1 78/177/1
f 255/165/1 78/177/1 77/175/1
f 245/166/1 77/175/1 11/172/1
f 94/389/28 254/81/28 253/149/28
f 94/389/27 252/145/27 95/390/27
f 95/390/26 251/142/26 96/391/26
f 29/392/83 251/142/83 249/144/83
f 259/90/92 30/393/92 161/387/92
f 260/87/5 32/394/5 163/385/5
f 93/395/93 250/79/93 254/81/93
f 258/66/1 14/62/1 80/179/1
f 19/337/3 261/42/3 179/38/3
f 21/300/5 262/24/5 173/20/5
f 180/41/3 263/334/3 12/313/3
f 171/396/5 265/328/5 3/397/5
f 83/171/1 274/3/1 84/64/1
f 82/169/1 273/230/1 83/171/1
f 81/167/1 272/229/1 82/169/1
f 263/227/1 81/167/1 12/164/1
f 66/398/94 270/4/94 269/222/94
f 67/399/95 269/222/95 268/223/95
f 67/399/96 267/220/96 68/400/96
f 68/400/97 264/217/97 20/401/97
f 171/396/5 266/19/5 275/21/5
f 20/386/3 276/9/3 180/41/3
f 21/402/98 270/4/98 65/403/98
f 274/3/1 13/404/1 84/64/1
f 52/1/1 3/405/1 265/2/1
f 270/4/99 266/406/99 7/5/99
f 264/7/100 6/407/100 170/8/100
f 188/10/101 60/408/101 7/11/101
f 244/13/5 226/384/5 8/14/5
f 184/16/6 48/409/6 4/17/6
f 266/19/5 21/300/5 173/20/5
f 248/22/5 22/271/5 174/23/5
f 206/25/5 192/272/5 23/26/5
f 224/28/5 210/278/5 24/29/5
f 228/31/3 17/360/3 177/32/3
f 209/34/3 18/270/3 178/35/3
f 191/37/3 19/337/3 179/38/3
f 247/40/3 20/386/3 180/41/3
f 226/43/7 24/150/7 27/44/7
f 141/46/3 37/410/3 211/47/3
f 204/49/102 133/411/102 35/50/102
f 168/52/103 161/412/103 30/53/103
f 240/55/1 72/354/1 16/56/1
f 76/58/1 15/346/1 208/59/1
f 198/61/1 80/179/1 14/62/1
f 84/64/1 13/404/1 246/65/1
f 149/67/3 41/413/3 232/68/3
f 56/70/7 8/382/7 26/71/7
f 228/73/7 5/157/7 25/74/7
f 64/76/7 17/379/7 28/77/7
f 250/79/104 31/414/104 97/80/104
f 202/82/83 194/345/83 35/83/83
f 162/85/105 31/415/105 250/86/105
f 164/88/3 29/416/3 249/89/3
f 220/91/106 212/417/106 39/92/106
f 135/94/3 33/418/3 193/95/3
f 140/97/107 136/419/107 34/98/107
f 148/100/108 142/420/108 38/101/108
f 221/103/5 143/421/5 39/104/5
f 236/106/109 231/422/109 43/107/109
f 160/109/6 151/293/6 42/110/6
f 156/112/7 150/423/7 44/113/7
f 152/115/5 43/424/5 231/116/5
f 152/118/110 153/122/110 105/119/110
f 154/121/111 106/124/111 105/119/111
f 154/121/112 155/125/112 107/123/112
f 156/112/113 108/114/113 107/123/113
f 157/126/6 101/130/6 41/127/6
f 157/126/6 158/132/6 102/129/6
f 159/131/6 103/133/6 102/129/6
f 160/109/6 104/111/6 103/133/6
f 232/134/114 233/137/114 108/135/114
f 233/137/115 234/139/115 107/138/115
f 234/139/116 235/141/116 106/140/116
f 236/106/117 105/108/117 106/140/117
f 251/142/118 100/146/118 30/143/118
f 252/145/26 99/148/26 100/146/26
f 252/145/27 253/149/27 98/147/27
f 254/81/119 97/80/119 98/147/119
f 24/150/7 61/152/7 89/151/7
f 61/152/7 62/154/7 90/153/7
f 62/154/7 63/156/7 91/155/7
f 63/156/7 64/76/7 92/78/7
f 5/157/7 53/159/7 85/158/7
f 53/159/7 54/161/7 86/160/7
f 54/161/7 55/163/7 87/162/7
f 55/163/7 56/70/7 88/72/7
f 12/164/1 81/167/1 255/165/1
f 81/167/1 82/169/1 256/168/1
f 82/169/1 83/171/1 257/170/1
f 83/171/1 84/64/1 258/66/1
f 11/172/1 77/175/1 195/173/1
f 77/175/1 78/177/1 196/176/1
f 78/177/1 79/388/1 197/178/1
f 197/178/1 79/388/1 80/179/1
f 10/180/1 73/183/1 213/181/1
f 73/183/1 74/342/1 214/184/1
f 214/184/1 74/342/1 75/185/1
f 215/186/1 75/185/1 76/58/1
f 227/187/1 9/355/1 69/188/1
f 237/189/1 69/188/1 70/190/1
f 238/191/1 70/190/1 71/192/1
f 71/192/1 72/354/1 240/55/1
f 165/194/120 97/198/120 31/195/120
f 166/197/121 98/200/121 97/198/121
f 166/197/122 167/201/122 99/199/122
f 168/52/123 100/54/123 99/199/123
f 1/202/6 45/205/6 181/203/6
f 45/205/6 46/207/6 182/206/6
f 46/207/6 47/209/6 183/208/6
f 47/209/6 48/409/6 184/16/6
f 6/210/124 57/213/124 185/211/124
f 57/213/125 58/425/125 186/214/125
f 186/214/126 58/425/126 59/215/126
f 59/215/127 60/408/127 188/10/127
f 264/217/128 267/220/128 57/218/128
f 267/220/129 268/223/129 58/221/129
f 269/222/130 59/224/130 58/221/130
f 269/222/131 270/4/131 60/6/131
f 2/225/1 49/426/1 271/226/1
f 271/226/1 49/426/1 50/228/1
f 50/228/1 51/231/1 273/230/1
f 51/231/1 52/1/1 274/3/1
f 137/232/132 117/236/132 35/233/132
f 138/235/133 118/238/133 117/236/133
f 138/235/134 139/239/134 119/237/134
f 139/239/135 140/97/135 120/99/135
f 199/240/136 120/244/136 34/241/136
f 199/240/137 200/246/137 119/243/137
f 201/245/138 118/247/138 119/243/138
f 201/245/139 202/82/139 117/84/139
f 143/248/140 145/252/140 129/249/140
f 146/251/141 130/254/141 129/249/141
f 146/251/142 147/255/142 131/253/142
f 148/100/143 132/102/143 131/253/143
f 211/256/83 217/259/83 132/257/83
f 217/259/144 218/261/144 131/260/144
f 218/261/145 219/263/145 130/262/145
f 220/91/56 129/93/56 130/262/56
f 111/264/61 112/269/61 140/97/61
f 110/265/146 111/264/146 139/239/146
f 110/265/147 138/235/147 137/232/147
f 109/266/148 137/232/148 133/234/148
f 19/268/149 136/419/149 140/97/149
f 18/270/3 135/94/3 203/96/3
f 22/271/5 133/411/5 204/49/5
f 124/273/150 148/100/150 147/255/150
f 122/275/62 123/274/62 147/255/62
f 122/275/151 146/251/151 145/252/151
f 23/277/64 121/276/64 145/252/64
f 23/26/5 143/421/5 221/103/5
f 18/279/66 142/420/66 148/100/66
f 209/34/3 17/360/3 141/46/3
f 88/280/6 160/109/6 159/131/6
f 87/281/6 159/131/6 158/132/6
f 85/283/6 86/282/6 158/132/6
f 85/283/6 157/126/6 149/128/6
f 92/285/152 156/112/152 155/125/152
f 90/287/67 91/286/67 155/125/67
f 89/288/153 90/287/153 154/121/153
f 89/288/154 153/122/154 152/118/154
f 27/290/5 152/115/5 241/117/5
f 28/292/7 150/423/7 156/112/7
f 88/280/6 26/427/6 151/293/6
f 25/294/3 149/67/3 242/69/3
f 67/296/155 68/302/155 168/52/155
f 67/296/156 167/201/156 166/197/156
f 65/298/157 66/297/157 166/197/157
f 65/298/158 165/194/158 162/196/158
f 247/40/3 19/337/3 164/88/3
f 21/300/5 162/85/5 260/87/5
f 20/301/159 161/412/159 168/52/159
f 187/216/160 188/10/160 52/303/160
f 50/305/161 186/214/161 187/216/161
f 185/211/162 186/214/162 50/305/162
f 2/307/77 170/212/77 185/211/77
f 55/308/6 183/208/6 184/16/6
f 182/206/6 183/208/6 55/308/6
f 181/203/6 182/206/6 54/310/6
f 169/204/6 181/203/6 53/311/6
f 261/42/3 180/41/3 12/313/3
f 205/39/3 179/38/3 11/315/3
f 223/36/3 178/35/3 10/317/3
f 243/33/3 177/32/3 9/319/3
f 208/321/5 224/28/5 176/30/5
f 190/323/5 206/25/5 175/27/5
f 262/24/5 174/23/5 14/325/5
f 275/21/5 173/20/5 13/327/5
f 56/309/6 184/16/6 172/18/6
f 225/330/5 244/13/5 172/15/5
f 52/303/163 188/10/163 171/12/163
f 276/9/3 170/8/3 2/333/3
f 174/23/5 206/25/5 190/323/5
f 178/35/3 205/39/3 189/316/3
f 192/272/5 204/49/5 134/335/5
f 191/37/3 203/96/3 136/336/3
f 114/338/78 113/344/78 202/82/78
f 114/338/79 201/245/79 200/246/79
f 116/340/80 115/339/80 200/246/80
f 116/340/81 199/240/81 193/242/81
f 75/185/1 197/178/1 198/61/1
f 196/176/1 197/178/1 75/185/1
f 195/173/1 196/176/1 74/342/1
f 189/174/1 195/173/1 73/183/1
f 136/336/3 203/96/3 193/95/3
f 113/344/83 36/428/83 194/345/83
f 198/61/1 190/63/1 15/346/1
f 134/335/5 204/49/5 194/51/5
f 18/270/3 191/37/3 205/39/3
f 22/271/5 192/272/5 206/25/5
f 15/324/5 175/27/5 224/28/5
f 177/32/3 223/36/3 207/318/3
f 18/270/3 209/34/3 222/48/3
f 210/278/5 221/103/5 144/349/5
f 126/350/56 125/358/56 220/91/56
f 126/350/145 219/263/145 218/261/145
f 127/351/164 218/261/164 217/259/164
f 37/353/83 128/352/83 217/259/83
f 215/186/1 216/60/1 72/354/1
f 70/190/1 214/184/1 215/186/1
f 213/181/1 214/184/1 70/190/1
f 207/182/1 213/181/1 69/188/1
f 144/349/5 221/103/5 212/105/5
f 40/357/85 212/417/85 220/91/85
f 216/60/1 208/59/1 16/56/1
f 142/348/3 222/48/3 211/47/3
f 17/360/3 209/34/3 223/36/3
f 175/27/5 23/26/5 210/278/5
f 16/322/5 176/30/5 244/13/5
f 169/361/3 243/33/3 227/320/3
f 230/295/3 242/69/3 150/363/3
f 229/291/5 241/117/5 151/365/5
f 47/367/1 239/193/1 240/55/1
f 46/369/1 238/191/1 239/193/1
f 237/189/1 238/191/1 46/369/1
f 1/371/1 227/187/1 237/189/1
f 104/372/165 236/106/165 235/141/165
f 102/374/166 103/373/166 235/141/166
f 102/374/115 234/139/115 233/137/115
f 101/375/83 233/137/83 232/134/83
f 151/365/5 241/117/5 231/116/5
f 42/378/90 231/422/90 236/106/90
f 17/379/7 228/73/7 230/75/7
f 150/363/3 242/69/3 232/68/3
f 240/55/1 225/57/1 4/381/1
f 8/382/7 226/43/7 229/45/7
f 5/383/3 228/31/3 243/33/3
f 176/30/5 24/29/5 226/384/5
f 173/20/5 262/24/5 246/326/5
f 179/38/3 261/42/3 245/314/3
f 248/22/5 260/87/5 163/385/5
f 20/386/3 247/40/3 259/90/3
f 79/388/1 257/170/1 258/66/1
f 256/168/1 257/170/1 79/388/1
f 255/165/1 256/168/1 78/177/1
f 245/166/1 255/165/1 77/175/1
f 94/389/167 93/395/167 254/81/167
f 94/389/27 253/149/27 252/145/27
f 95/390/26 252/145/26 251/142/26
f 29/392/83 96/391/83 251/142/83
f 259/90/168 249/89/168 30/393/168
f 260/87/5 250/86/5 32/394/5
f 93/395/169 32/429/169 250/79/169
f 258/66/1 246/65/1 14/62/1
f 19/337/3 247/40/3 261/42/3
f 21/300/5 248/22/5 262/24/5
f 180/41/3 276/9/3 263/334/3
f 171/396/5 275/21/5 265/328/5
f 83/171/1 273/230/1 274/3/1
f 82/169/1 272/229/1 273/230/1
f 81/167/1 271/226/1 272/229/1
f 263/227/1 271/226/1 81/167/1
f 66/398/170 65/403/170 270/4/170
f 67/399/171 66/398/171 269/222/171
f 67/399/172 268/223/172 267/220/172
f 68/400/173 267/220/173 264/217/173
f 171/396/174 7/430/174 266/19/174
f 20/386/3 264/7/3 276/9/3
f 21/402/175 266/406/175 270/4/175
f 274/3/1 265/2/1 13/404/1