# Blender v2.78 (sub 0) OBJ File: 'props.blend'
# www.blender.org
o Computer_Panel
v -0.145333 0.000000 -0.061414
v -0.145333 0.000000 -0.288493
v -0.073927 0.000000 -0.040107
v -0.135243 1.094150 -0.181434
v -0.086208 1.094150 -0.137299
v -0.012013 1.094150 -0.137299
v -0.135243 1.040430 -0.295753
v -0.012013 1.040430 -0.295753
v -0.145333 0.403135 -0.065319
v -0.092159 0.403135 -0.026356
v -0.145333 0.784554 -0.065319
v -0.092158 0.813670 -0.026356
v -0.144712 0.938153 -0.093998
v -0.091772 0.938153 -0.054941
v -0.135243 1.094150 -0.181434
v -0.086208 1.094150 -0.137299
v 0.113076 0.618662 -0.270409
v 0.113076 0.784554 -0.065319
v 0.113076 0.403135 -0.065319
v 0.112555 0.865255 -0.286144
v 0.112555 0.938153 -0.093998
v 0.103044 1.040430 -0.295753
v 0.103044 1.094150 -0.181434
v 0.113076 0.618662 -0.270409
v -0.012013 0.618662 -0.270409
v 0.112555 0.865255 -0.286144
v -0.012013 0.865255 -0.286144
v 0.103044 1.040430 -0.295753
v -0.012013 1.040430 -0.295753
v -0.145333 0.618662 -0.270409
v -0.145333 0.403135 -0.065319
v -0.145333 0.784554 -0.065319
v -0.144712 0.938153 -0.093998
v -0.144712 0.865255 -0.286144
v -0.135243 1.094150 -0.181434
v -0.135243 1.040430 -0.295753
v -0.012013 0.000000 -0.288493
v -0.012013 0.000000 -0.040107
v -0.012013 0.813670 -0.026356
v -0.012013 0.938153 -0.054941
v -0.012013 1.094150 -0.137299
v 0.113076 0.000000 -0.061414
v 0.058251 0.000000 -0.022452
v 0.040018 0.000000 -0.040107
v 0.058251 0.403135 -0.026356
v 0.113076 0.403135 -0.065319
v 0.058251 0.813670 -0.026356
v 0.113076 0.784554 -0.065319
v 0.057971 0.938153 -0.054941
v 0.112555 0.938153 -0.093998
v 0.052488 1.094150 -0.137299
v 0.103044 1.094150 -0.181434
v -0.092159 0.000000 -0.022452
v -0.092158 0.813670 -0.026356
v -0.092159 0.403135 -0.026356
v -0.073927 0.407746 -0.044012
v -0.073927 0.407746 -0.044012
v -0.073927 0.785405 -0.044012
v -0.092158 0.813670 -0.026356
v 0.113076 0.000000 -0.288493
v 0.058251 0.813670 -0.026356
v -0.012013 0.813670 -0.026356
v 0.040018 0.785405 -0.044012
v -0.012013 0.785405 -0.044012
v 0.058251 0.403135 -0.026356
v 0.058251 0.813670 -0.026356
v 0.040018 0.785405 -0.044012
v 0.040018 0.785405 -0.044012
v 0.040020 0.407746 -0.044012
v 0.058251 0.403135 -0.026356
v -0.145333 0.618662 -0.270409
v -0.145333 0.000000 -0.288493
v -0.145333 0.000000 -0.061414
v -0.092159 0.403135 -0.026356
v -0.145333 0.403135 -0.065319
v -0.145333 0.000000 -0.061414
v -0.145333 0.000000 -0.061414
v -0.092159 0.000000 -0.022452
v -0.092159 0.403135 -0.026356
v 0.113076 0.618662 -0.270409
v 0.113076 0.000000 -0.061414
v 0.113076 0.000000 -0.288493
v -0.145333 0.618662 -0.270409
v -0.012013 0.618662 -0.270409
v -0.145333 0.000000 -0.288493
v -0.012013 0.000000 -0.288493
v -0.145333 0.000000 -0.288493
v -0.012013 0.618662 -0.270409
v 0.040020 0.407746 -0.044012
v -0.012013 0.407746 -0.044012
v 0.040018 0.000000 -0.040107
v -0.012013 0.000000 -0.040107
v 0.040018 0.000000 -0.040107
v -0.012013 0.407746 -0.044012
v 0.113076 0.403135 -0.065319
v 0.058251 0.403135 -0.026356
v 0.058251 0.000000 -0.022452
v 0.058251 0.000000 -0.022452
v 0.113076 0.000000 -0.061414
v 0.113076 0.403135 -0.065319
v -0.073927 0.407746 -0.044012
v -0.092159 0.403135 -0.026356
v -0.092159 0.000000 -0.022452
v -0.092159 0.000000 -0.022452
v -0.073927 0.000000 -0.040107
v -0.073927 0.407746 -0.044012
v 0.058251 0.403135 -0.026356
v 0.040020 0.407746 -0.044012
v 0.040018 0.000000 -0.040107
v 0.040018 0.000000 -0.040107
v 0.058251 0.000000 -0.022452
v 0.058251 0.403135 -0.026356
v 0.052488 1.094150 -0.137299
v 0.103044 1.094150 -0.181434
v 0.103044 1.040430 -0.295753
v -0.145333 0.618662 -0.270409
v -0.144712 0.865255 -0.286144
v -0.135243 1.040430 -0.295753
v -0.092158 0.813670 -0.026356
v -0.073927 0.785405 -0.044012
v 0.113076 0.618662 -0.270409
v 0.113076 0.000000 -0.288493
v -0.012013 0.000000 -0.288493
v 0.113076 0.618662 -0.270409
v -0.073927 0.407746 -0.044012
v -0.073927 0.000000 -0.040107
v 0.015137 0.733845 -0.046447
v -0.000667 0.755277 -0.020680
v 0.009655 0.733845 -0.020680
v 0.002753 0.759563 -0.046447
v -0.023857 0.760570 -0.020680
v -0.025077 0.765915 -0.046447
v -0.042455 0.745739 -0.020680
v -0.047395 0.748118 -0.046447
v -0.042455 0.721951 -0.020680
v -0.047395 0.719573 -0.046447
v -0.047395 0.719573 -0.046447
v -0.023857 0.707120 -0.020680
v -0.042455 0.721951 -0.020680
v -0.025077 0.701775 -0.046447
v -0.000667 0.712413 -0.020680
v 0.002753 0.708127 -0.046447
v 0.009655 0.733845 -0.020680
v -0.009628 0.744039 -0.026269
v -0.004719 0.733845 -0.026269
v -0.000667 0.755277 -0.020680
v -0.020659 0.746557 -0.026269
v -0.023857 0.760570 -0.020680
v -0.029504 0.739503 -0.026269
v -0.042455 0.745739 -0.020680
v -0.029504 0.728188 -0.026269
v -0.042455 0.721951 -0.020680
v -0.020659 0.721134 -0.026269
v -0.023857 0.707120 -0.020680
v -0.009628 0.723651 -0.026269
v -0.000667 0.712413 -0.020680
v -0.017758 0.733845 -0.026269
v -0.004719 0.733845 -0.026269
v -0.009628 0.744039 -0.026269
v -0.009628 0.723651 -0.026269
v -0.020659 0.746557 -0.026269
v -0.020659 0.721134 -0.026269
v -0.029504 0.739503 -0.026269
v -0.029504 0.728188 -0.026269
v 0.015138 0.661665 -0.046447
v -0.000667 0.683097 -0.020680
v 0.009655 0.661665 -0.020680
v 0.002753 0.687384 -0.046447
v -0.023857 0.688390 -0.020680
v -0.025077 0.693735 -0.046447
v -0.042455 0.673559 -0.020680
v -0.047394 0.675938 -0.046447
v -0.042455 0.649772 -0.020680
v -0.047394 0.647393 -0.046447
v -0.047394 0.647393 -0.046447
v -0.023857 0.634941 -0.020680
v -0.042455 0.649772 -0.020680
v -0.025077 0.629596 -0.046447
v -0.000667 0.640234 -0.020680
v 0.002753 0.635947 -0.046447
v 0.009655 0.661665 -0.020680
v -0.009628 0.671860 -0.026269
v -0.004718 0.661665 -0.026269
v -0.000667 0.683097 -0.020680
v -0.020658 0.674377 -0.026269
v -0.023857 0.688390 -0.020680
v -0.029504 0.667323 -0.026269
v -0.042455 0.673559 -0.020680
v -0.029504 0.656008 -0.026269
v -0.042455 0.649772 -0.020680
v -0.020658 0.648954 -0.026269
v -0.023857 0.634941 -0.020680
v -0.009628 0.651472 -0.026269
v -0.000667 0.640234 -0.020680
v -0.017758 0.661665 -0.026269
v -0.004718 0.661665 -0.026269
v -0.009628 0.671860 -0.026269
v -0.009628 0.651472 -0.026269
v -0.020658 0.674377 -0.026269
v -0.020658 0.648954 -0.026269
v -0.029504 0.667323 -0.026269
v -0.029504 0.656008 -0.026269
v -0.287882 1.013460 -0.011047
v -0.287882 0.956103 -0.092963
v 0.153541 0.956103 -0.092963
v 0.153541 1.013460 -0.011047
v 0.180280 0.972963 -0.104768
v 0.180280 1.030320 -0.022853
v 0.303744 0.972963 -0.104768
v 0.303744 1.030320 -0.022853
v -0.287882 1.423040 -0.297835
v 0.153541 1.423040 -0.297835
v 0.153541 1.365680 -0.379750
v -0.287882 1.365680 -0.379750
v 0.180280 1.413890 -0.291432
v 0.180280 1.356540 -0.373348
v 0.303745 1.413890 -0.291432
v 0.303744 1.356540 -0.373348
v 0.180280 1.030320 -0.022853
v 0.153541 1.115640 -0.082595
v 0.153541 1.013460 -0.011047
v 0.180280 1.413890 -0.291432
v 0.153541 1.323110 -0.227866
v 0.153541 1.423040 -0.297835
v 0.153541 1.323110 -0.227866
v 0.190280 1.044250 -0.020397
v 0.293744 1.044250 -0.020397
v 0.293745 1.411440 -0.277505
v 0.190280 1.411440 -0.277505
v 0.303744 1.030320 -0.022853
v 0.303744 0.972963 -0.104768
v 0.303744 1.356540 -0.373348
v 0.303745 1.413890 -0.291432
v 0.303744 0.972963 -0.104768
v 0.180280 0.972963 -0.104768
v 0.180280 1.356540 -0.373348
v 0.303744 1.356540 -0.373348
v 0.153541 0.956103 -0.092963
v 0.153541 1.365680 -0.379750
v -0.287882 0.956103 -0.092963
v -0.287882 1.365680 -0.379750
v -0.287882 0.956103 -0.092963
v -0.287882 1.013460 -0.011047
v -0.287882 1.115640 -0.082595
v -0.287882 1.365680 -0.379750
v -0.287882 1.323110 -0.227866
v -0.287882 1.323110 -0.227866
v -0.287882 1.423040 -0.297835
v 0.153541 1.115640 -0.082595
v 0.143541 1.129570 -0.080139
v -0.287882 1.115640 -0.082595
v -0.277882 1.129570 -0.080139
v -0.287882 1.423040 -0.297835
v -0.287882 1.323110 -0.227866
v -0.277882 1.339060 -0.226830
v 0.143541 1.420580 -0.283908
v 0.143541 1.339060 -0.226830
v 0.153541 1.323110 -0.227866
v -0.287882 1.423040 -0.297835
v -0.277882 1.339060 -0.226830
v -0.277882 1.420580 -0.283908
v 0.143541 1.420580 -0.283908
v 0.153541 1.323110 -0.227866
v 0.153541 1.423040 -0.297835
v 0.153541 1.423040 -0.297835
v -0.287882 1.423040 -0.297835
v -0.277882 1.420580 -0.283908
v 0.143541 1.420580 -0.283908
v -0.277882 1.129570 -0.080139
v 0.143541 1.129570 -0.080139
v -0.255203 1.148500 -0.093398
v 0.122070 1.148500 -0.093398
v 0.122070 1.303900 -0.202211
v 0.143541 1.318090 -0.212146
v -0.255203 1.303900 -0.202211
v -0.277882 1.318090 -0.212146
v -0.287882 1.013460 -0.011047
v 0.153541 1.013460 -0.011047
v 0.143541 1.027390 -0.008591
v 0.143541 1.027390 -0.008591
v -0.277882 1.027390 -0.008591
v -0.287882 1.013460 -0.011047
v 0.153541 1.013460 -0.011047
v 0.153541 1.115640 -0.082595
v 0.143541 1.113190 -0.068668
v 0.143541 1.113190 -0.068668
v 0.143541 1.027390 -0.008591
v 0.153541 1.013460 -0.011047
v 0.153541 1.115640 -0.082595
v -0.287882 1.115640 -0.082595
v -0.277882 1.113190 -0.068668
v -0.277882 1.113190 -0.068668
v 0.143541 1.113190 -0.068668
v 0.153541 1.115640 -0.082595
v -0.287882 1.115640 -0.082595
v -0.287882 1.013460 -0.011047
v -0.277882 1.027390 -0.008591
v -0.277882 1.027390 -0.008591
v -0.277882 1.113190 -0.068668
v -0.287882 1.115640 -0.082595
v 0.303745 1.413890 -0.291432
v 0.180280 1.413890 -0.291432
v 0.190280 1.411440 -0.277505
v 0.293745 1.411440 -0.277505
v 0.180280 1.413890 -0.291432
v 0.180280 1.030320 -0.022853
v 0.190280 1.044250 -0.020397
v 0.190280 1.044250 -0.020397
v 0.190280 1.411440 -0.277505
v 0.180280 1.413890 -0.291432
v 0.303744 1.030320 -0.022853
v 0.303745 1.413890 -0.291432
v 0.293745 1.411440 -0.277505
v 0.293745 1.411440 -0.277505
v 0.293744 1.044250 -0.020397
v 0.303744 1.030320 -0.022853
v 0.180280 1.030320 -0.022853
v 0.303744 1.030320 -0.022853
v 0.293744 1.044250 -0.020397
v 0.190280 1.044250 -0.020397
v -0.277882 1.027390 -0.008591
v 0.143541 1.027390 -0.008591
v 0.128541 1.040250 -0.016376
v 0.128541 1.040250 -0.016376
v -0.262882 1.040250 -0.016376
v -0.277882 1.027390 -0.008591
v 0.143541 1.027390 -0.008591
v 0.143541 1.113190 -0.068668
v 0.128541 1.101470 -0.059244
v 0.128541 1.101470 -0.059244
v 0.128541 1.040250 -0.016376
v 0.143541 1.027390 -0.008591
v 0.143541 1.113190 -0.068668
v -0.277882 1.113190 -0.068668
v -0.262882 1.101470 -0.059244
v -0.262882 1.101470 -0.059244
v 0.128541 1.101470 -0.059244
v 0.143541 1.113190 -0.068668
v -0.277882 1.113190 -0.068668
v -0.277882 1.027390 -0.008591
v -0.262882 1.040250 -0.016376
v -0.262882 1.040250 -0.016376
v -0.262882 1.101470 -0.059244
v -0.277882 1.113190 -0.068668
v 0.353782 0.956507 -0.092385
v 0.503429 1.015230 -0.086822
v 0.331215 1.029920 0.012452
v 0.484917 1.075450 -0.000819
v 0.353782 1.366080 -0.379174
v 0.331215 1.439490 -0.274336
v 0.503429 1.351230 -0.322087
v 0.484917 1.411450 -0.236084
v 0.818827 1.400940 -0.137148
v 0.818827 1.290150 -0.059569
v 0.850751 1.385730 -0.172489
v 0.850751 1.144010 -0.003234
v 0.818827 1.172900 0.022527
v 0.353782 0.956507 -0.092385
v 0.353782 1.366080 -0.379174
v 0.503429 1.015230 -0.086822
v 0.503429 1.351230 -0.322087
v 0.331215 1.029920 0.012452
v 0.331215 1.439490 -0.274336
v 0.353782 0.956507 -0.092385
v 0.353782 1.366080 -0.379174
v 0.513845 1.088330 -0.003610
v 0.484917 1.075450 -0.000819
v 0.513845 1.088330 -0.003610
v 0.513845 1.254530 -0.119983
v 0.484917 1.189420 -0.080618
v 0.484917 1.227180 -0.107060
v 0.484917 1.272800 -0.139006
v 0.513845 1.405310 -0.225558
v 0.484917 1.411450 -0.236084
v 0.484917 1.311070 -0.165800
v 0.850751 1.144010 -0.003234
v 0.818827 1.172900 0.022527
v 0.503429 1.351230 -0.322087
v 0.850751 1.385730 -0.172489
v 0.503429 1.015230 -0.086822
v 0.850751 1.144010 -0.003234
v 0.503429 1.015230 -0.086822
v 0.850751 1.385730 -0.172489
v 0.850751 1.385730 -0.172489
v 0.818827 1.400940 -0.137148
v 0.513845 1.405310 -0.225558
v 0.539738 1.317440 -0.154861
v 0.513845 1.254530 -0.119983
v 0.539738 1.278850 -0.127842
v 0.513845 1.405310 -0.225558
v 0.818827 1.172900 0.022527
v 0.777242 1.228780 -0.028060
v 0.539738 1.197640 -0.070977
v 0.513845 1.088330 -0.003610
v 0.818827 1.400940 -0.137148
v 0.779996 1.348370 -0.111201
v 0.818827 1.290150 -0.059569
v 0.779996 1.309540 -0.084016
v 0.539738 1.236180 -0.097957
v 0.777242 1.266580 -0.054529
v 0.372852 1.218770 -0.114742
v 0.331215 1.029920 0.012452
v 0.371985 1.127980 -0.051273
v 0.331215 1.439490 -0.274336
v 0.373312 1.266930 -0.148407
v 0.374231 1.363170 -0.215685
v 0.415974 1.184780 -0.085718
v 0.415588 1.135620 -0.051342
v 0.484917 1.189420 -0.080618
v 0.484917 1.075450 -0.000819
v 0.484917 1.411450 -0.236084
v 0.417350 1.360210 -0.208389
v 0.484917 1.311070 -0.165800
v 0.416930 1.306600 -0.170901
v 0.484917 1.227180 -0.107060
v 0.484917 1.272800 -0.139006
v -0.341249 0.956507 -0.092385
v -0.318682 1.029920 0.012452
v -0.490896 1.015230 -0.086822
v -0.472383 1.075450 -0.000819
v -0.341249 1.366080 -0.379174
v -0.490896 1.351230 -0.322087
v -0.318682 1.439490 -0.274336
v -0.472383 1.411450 -0.236084
v -0.806293 1.400940 -0.137148
v -0.838217 1.385730 -0.172489
v -0.806293 1.290150 -0.059569
v -0.838217 1.144010 -0.003234
v -0.806293 1.172900 0.022527
v -0.341249 0.956507 -0.092385
v -0.490896 1.015230 -0.086822
v -0.341249 1.366080 -0.379174
v -0.490896 1.351230 -0.322087
v -0.318682 1.029920 0.012452
v -0.341249 0.956507 -0.092385
v -0.318682 1.439490 -0.274336
v -0.341249 1.366080 -0.379174
v -0.501311 1.088330 -0.003610
v -0.472383 1.075450 -0.000819
v -0.501311 1.254530 -0.119983
v -0.501311 1.088330 -0.003610
v -0.472383 1.189420 -0.080618
v -0.472383 1.227180 -0.107060
v -0.472383 1.272800 -0.139006
v -0.472383 1.411450 -0.236084
v -0.501311 1.405310 -0.225558
v -0.472383 1.311070 -0.165800
v -0.838217 1.144010 -0.003234
v -0.806293 1.172900 0.022527
v -0.490896 1.351230 -0.322087
v -0.490896 1.015230 -0.086822
v -0.838217 1.385730 -0.172489
v -0.838217 1.144010 -0.003234
v -0.838217 1.385730 -0.172489
v -0.490896 1.015230 -0.086822
v -0.838217 1.385730 -0.172489
v -0.806293 1.400940 -0.137148
v -0.501311 1.405310 -0.225558
v -0.527205 1.317440 -0.154861
v -0.527205 1.278850 -0.127842
v -0.501311 1.254530 -0.119983
v -0.501311 1.405310 -0.225558
v -0.806293 1.172900 0.022527
v -0.527205 1.197640 -0.070977
v -0.764708 1.228780 -0.028060
v -0.501311 1.088330 -0.003610
v -0.806293 1.400940 -0.137148
v -0.806293 1.290150 -0.059569
v -0.767463 1.348370 -0.111201
v -0.767463 1.309540 -0.084016
v -0.527205 1.236180 -0.097957
v -0.764708 1.266580 -0.054529
v -0.360319 1.218770 -0.114742
v -0.359451 1.127980 -0.051273
v -0.318682 1.029920 0.012452
v -0.318682 1.439490 -0.274336
v -0.361698 1.363170 -0.215685
v -0.360779 1.266930 -0.148407
v -0.403441 1.184780 -0.085718
v -0.472383 1.189420 -0.080618
v -0.403055 1.135620 -0.051342
v -0.472383 1.075450 -0.000819
v -0.472383 1.411450 -0.236084
v -0.404817 1.360210 -0.208389
v -0.472383 1.311070 -0.165800
v -0.404396 1.306600 -0.170901
v -0.472383 1.227180 -0.107060
v -0.472383 1.272800 -0.139006
v 0.284784 1.050240 -0.051285
v 0.284784 1.010080 -0.108626
v 0.354784 1.010080 -0.108626
v 0.354784 1.050230 -0.051285
v 0.284784 1.377900 -0.280716
v 0.354784 1.377900 -0.280716
v 0.354784 1.337750 -0.338057
v 0.284784 1.337750 -0.338057
v 0.284784 1.050240 -0.051285
v 0.354784 1.050230 -0.051285
v 0.354784 1.377900 -0.280716
v 0.284784 1.377900 -0.280716
v 0.354784 1.010080 -0.108626
v 0.284784 1.010080 -0.108626
v 0.284784 1.337750 -0.338057
v 0.354784 1.337750 -0.338057
v -0.341249 1.050240 -0.035045
v -0.341249 1.010080 -0.092386
v -0.275140 1.010080 -0.108626
v -0.275140 1.050240 -0.051285
v -0.341249 1.377900 -0.264476
v -0.275140 1.377900 -0.280716
v -0.275140 1.337750 -0.338057
v -0.341249 1.337750 -0.321816
v -0.341249 1.050240 -0.035045
v -0.275140 1.050240 -0.051285
v -0.275140 1.377900 -0.280716
v -0.341249 1.377900 -0.264476
v -0.275140 1.010080 -0.108626
v -0.341249 1.010080 -0.092386
v -0.341249 1.337750 -0.321816
v -0.275140 1.337750 -0.338057
v -0.262882 1.040250 -0.016376
v 0.128541 1.040250 -0.016376
v 0.128541 1.037380 -0.020472
v -0.262882 1.037380 -0.020472
v 0.128541 1.040250 -0.016376
v 0.128541 1.101470 -0.059244
v 0.128541 1.098600 -0.063340
v 0.128541 1.037380 -0.020472
v 0.128541 1.101470 -0.059244
v -0.262882 1.101470 -0.059244
v -0.262882 1.098600 -0.063340
v 0.128541 1.098600 -0.063340
v -0.262882 1.101470 -0.059244
v -0.262882 1.040250 -0.016376
v -0.262882 1.037380 -0.020472
v -0.262882 1.098600 -0.063340
v 0.122070 1.303900 -0.202211
v 0.122070 1.148500 -0.093398
v 0.143541 1.129570 -0.080139
v 0.122070 1.303900 -0.202211
v 0.143541 1.129570 -0.080139
v 0.143541 1.318090 -0.212146
v -0.287882 1.323110 -0.227866
v -0.287882 1.115640 -0.082595
v -0.277882 1.129570 -0.080139
v -0.277882 1.129570 -0.080139
v -0.277882 1.318090 -0.212146
v -0.287882 1.323110 -0.227866
v 0.143541 1.318090 -0.212146
v 0.143541 1.129570 -0.080139
v 0.153541 1.323110 -0.227866
v 0.153541 1.115640 -0.082595
v 0.153541 1.323110 -0.227866
v 0.143541 1.129570 -0.080139
v 0.153541 1.323110 -0.227866
v -0.287882 1.323110 -0.227866
v 0.153541 1.323110 -0.227866
v 0.143541 1.339060 -0.226830
v -0.287882 1.323110 -0.227866
v -0.277882 1.339060 -0.226830
v 0.143541 1.339060 -0.226830
v 0.143541 1.420580 -0.283908
v -0.277882 1.339060 -0.226830
v -0.277882 1.420580 -0.283908
vt 0.5407 0.1863
vt 0.5407 0.3517
vt 0.5927 0.1708
vt 0.9180 0.8358
vt 0.9525 0.8391
vt 0.9942 0.8358
vt 0.9180 0.8039
vt 0.9942 0.8039
vt 0.9040 0.3499
vt 0.8651 0.3499
vt 0.9040 0.5908
vt 0.8651 0.6092
vt 0.9037 0.6913
vt 0.8650 0.6913
vt 0.8962 0.7968
vt 0.8595 0.7968
vt 0.3354 0.3807
vt 0.4265 0.4875
vt 0.2235 0.4928
vt 0.4664 0.3689
vt 0.5078 0.4701
vt 0.5595 0.3613
vt 0.5897 0.4214
vt 0.9118 0.6871
vt 0.9942 0.6871
vt 0.9122 0.7552
vt 0.9942 0.7552
vt 0.9180 0.8039
vt 0.9942 0.8039
vt 0.3354 0.3807
vt 0.2235 0.4928
vt 0.4265 0.4875
vt 0.5078 0.4701
vt 0.4664 0.3689
vt 0.5897 0.4214
vt 0.5595 0.3613
vt 0.6378 0.3517
vt 0.6378 0.1708
vt 0.8227 0.6092
vt 0.8227 0.6913
vt 0.8202 0.7968
vt 0.7290 0.1863
vt 0.6890 0.1579
vt 0.6757 0.1708
vt 0.8651 0.3499
vt 0.9040 0.3499
vt 0.8651 0.6092
vt 0.9040 0.5908
vt 0.8650 0.6913
vt 0.9037 0.6913
vt 0.8595 0.7968
vt 0.8962 0.7968
vt 0.5794 0.1579
vt 0.7918 0.6051
vt 0.7918 0.3458
vt 0.7704 0.3487
vt 0.7704 0.3487
vt 0.7704 0.5872
vt 0.7918 0.6051
vt 0.7290 0.3517
vt 0.6048 0.4669
vt 0.5554 0.4669
vt 0.5919 0.4913
vt 0.5554 0.4913
vt 0.7918 0.3458
vt 0.7918 0.6051
vt 0.7704 0.5872
vt 0.7704 0.5872
vt 0.7704 0.3487
vt 0.7918 0.3458
vt 0.3354 0.3807
vt 0.0054 0.3797
vt 0.0085 0.5005
vt 0.8651 0.3499
vt 0.9040 0.3499
vt 0.9040 0.0947
vt 0.9040 0.0947
vt 0.8651 0.0947
vt 0.8651 0.3499
vt 0.3354 0.3807
vt 0.0085 0.5005
vt 0.0054 0.3797
vt 0.9118 0.6871
vt 0.9942 0.6871
vt 0.9118 0.4992
vt 0.9942 0.4992
vt 0.9118 0.4992
vt 0.9942 0.6871
vt 0.8627 0.3647
vt 0.8346 0.3647
vt 0.8627 0.1095
vt 0.8346 0.1095
vt 0.8627 0.1095
vt 0.8346 0.3647
vt 0.9040 0.3499
vt 0.8651 0.3499
vt 0.8651 0.0947
vt 0.8651 0.0947
vt 0.9040 0.0947
vt 0.9040 0.3499
vt 0.7704 0.3487
vt 0.7918 0.3458
vt 0.7965 0.0906
vt 0.7965 0.0906
vt 0.7751 0.0935
vt 0.7704 0.3487
vt 0.7918 0.3458
vt 0.7704 0.3487
vt 0.7751 0.0935
vt 0.7751 0.0935
vt 0.7965 0.0906
vt 0.7918 0.3458
vt 0.9525 0.8391
vt 0.9180 0.8358
vt 0.9180 0.8039
vt 0.9118 0.6871
vt 0.9122 0.7552
vt 0.9180 0.8039
vt 0.6056 0.4669
vt 0.5928 0.4913
vt 0.9118 0.6871
vt 0.9118 0.4992
vt 0.9942 0.4992
vt 0.9118 0.6871
vt 0.8012 0.3647
vt 0.8012 0.1095
vt 0.8145 0.8624
vt 0.8311 0.8461
vt 0.8160 0.8461
vt 0.8326 0.8624
vt 0.8160 0.8461
vt 0.8145 0.8624
vt 0.8311 0.8461
vt 0.8326 0.8624
vt 0.8160 0.8461
vt 0.8145 0.8624
vt 0.8326 0.8624
vt 0.8160 0.8461
vt 0.8311 0.8461
vt 0.8145 0.8624
vt 0.8311 0.8461
vt 0.8326 0.8624
vt 0.6576 0.4144
vt 0.6414 0.4237
vt 0.6460 0.4141
vt 0.6497 0.4342
vt 0.6310 0.4260
vt 0.6281 0.4391
vt 0.6228 0.4194
vt 0.6107 0.4253
vt 0.6228 0.4088
vt 0.6107 0.4030
vt 0.6310 0.4022
vt 0.6281 0.3891
vt 0.6414 0.4046
vt 0.6497 0.3941
vt 0.6338 0.4141
vt 0.6460 0.4141
vt 0.6414 0.4237
vt 0.6414 0.4046
vt 0.6310 0.4260
vt 0.6310 0.4022
vt 0.6228 0.4194
vt 0.6228 0.4088
vt 0.8145 0.8624
vt 0.8311 0.8461
vt 0.8160 0.8461
vt 0.8326 0.8624
vt 0.8160 0.8461
vt 0.8145 0.8624
vt 0.8311 0.8461
vt 0.8326 0.8624
vt 0.8160 0.8461
vt 0.8145 0.8624
vt 0.8326 0.8624
vt 0.8160 0.8461
vt 0.8311 0.8461
vt 0.8145 0.8624
vt 0.8311 0.8461
vt 0.8326 0.8624
vt 0.6576 0.4144
vt 0.6414 0.4237
vt 0.6460 0.4141
vt 0.6497 0.4342
vt 0.6310 0.4260
vt 0.6281 0.4391
vt 0.6228 0.4194
vt 0.6107 0.4253
vt 0.6228 0.4088
vt 0.6107 0.4030
vt 0.6310 0.4022
vt 0.6281 0.3891
vt 0.6414 0.4046
vt 0.6497 0.3941
vt 0.6338 0.4141
vt 0.6460 0.4141
vt 0.6414 0.4237
vt 0.6414 0.4046
vt 0.6310 0.4260
vt 0.6310 0.4022
vt 0.6228 0.4194
vt 0.6228 0.4088
vt 0.9206 0.4835
vt 0.9835 0.4835
vt 0.9835 0.2038
vt 0.9206 0.2038
vt 0.9850 0.1817
vt 0.9222 0.1817
vt 0.9850 0.1035
vt 0.9222 0.1035
vt 0.9206 0.4835
vt 0.9206 0.2038
vt 0.9835 0.2038
vt 0.9835 0.4835
vt 0.9222 0.1817
vt 0.9850 0.1817
vt 0.9222 0.1035
vt 0.9850 0.1035
vt 0.3367 0.5471
vt 0.3235 0.6390
vt 0.3149 0.5250
vt 0.3367 0.9868
vt 0.3235 0.8628
vt 0.3235 0.9903
vt 0.3235 0.8865
vt 0.3438 0.5540
vt 0.4174 0.5540
vt 0.4174 0.9763
vt 0.3438 0.9763
vt 0.6651 0.0194
vt 0.6651 0.0828
vt 0.9818 0.0828
vt 0.9818 0.0194
vt 0.2883 0.1203
vt 0.2326 0.1069
vt 0.2306 0.3653
vt 0.2883 0.3653
vt 0.2181 0.0965
vt 0.2181 0.3712
vt 0.0120 0.0947
vt 0.0120 0.3712
vt 0.6651 0.0828
vt 0.6651 0.0194
vt 0.7486 0.0184
vt 0.9818 0.0828
vt 0.8978 0.0191
vt 0.9134 0.0191
vt 0.9818 0.0194
vt 0.3346 0.6310
vt 0.3272 0.6401
vt 0.0039 0.6310
vt 0.0113 0.6401
vt 0.0039 0.9952
vt 0.0039 0.8918
vt 0.0113 0.9030
vt 0.3272 0.9870
vt 0.3272 0.9030
vt 0.3346 0.8918
vt 0.0039 0.9952
vt 0.0113 0.9030
vt 0.0113 0.9870
vt 0.3272 0.9870
vt 0.3346 0.8918
vt 0.3346 0.9952
vt 0.3346 0.9952
vt 0.0039 0.9952
vt 0.0113 0.9870
vt 0.3272 0.9870
vt 0.0113 0.6401
vt 0.3272 0.6401
vt 0.0262 0.6639
vt 0.3114 0.6639
vt 0.3114 0.8612
vt 0.3272 0.8809
vt 0.0262 0.8612
vt 0.0113 0.8809
vt 0.0019 0.5238
vt 0.3149 0.5250
vt 0.3087 0.5286
vt 0.3087 0.5286
vt 0.0090 0.5286
vt 0.0019 0.5238
vt 0.3149 0.5250
vt 0.3235 0.6390
vt 0.3087 0.6273
vt 0.3087 0.6273
vt 0.3087 0.5286
vt 0.3149 0.5250
vt 0.3235 0.6390
vt 0.0019 0.6378
vt 0.0090 0.6273
vt 0.0090 0.6273
vt 0.3087 0.6273
vt 0.3235 0.6390
vt 0.0019 0.6378
vt 0.0019 0.5238
vt 0.0090 0.5286
vt 0.0090 0.5286
vt 0.0090 0.6273
vt 0.0019 0.6378
vt 0.4245 0.9868
vt 0.3367 0.9868
vt 0.3438 0.9763
vt 0.4174 0.9763
vt 0.3367 0.9868
vt 0.3367 0.5471
vt 0.3438 0.5540
vt 0.3438 0.5540
vt 0.3438 0.9763
vt 0.3367 0.9868
vt 0.4245 0.5456
vt 0.4245 0.9868
vt 0.4174 0.9763
vt 0.4174 0.9763
vt 0.4174 0.5540
vt 0.4245 0.5456
vt 0.3367 0.5471
vt 0.4245 0.5456
vt 0.4174 0.5540
vt 0.3438 0.5540
vt 0.0090 0.5286
vt 0.3087 0.5286
vt 0.2981 0.5427
vt 0.2981 0.5427
vt 0.0196 0.5427
vt 0.0090 0.5286
vt 0.3087 0.5286
vt 0.3087 0.6273
vt 0.2981 0.6131
vt 0.2981 0.6131
vt 0.2981 0.5427
vt 0.3087 0.5286
vt 0.3087 0.6273
vt 0.0090 0.6273
vt 0.0196 0.6131
vt 0.0196 0.6131
vt 0.2981 0.6131
vt 0.3087 0.6273
vt 0.0090 0.6273
vt 0.0090 0.5286
vt 0.0196 0.5427
vt 0.0196 0.5427
vt 0.0196 0.6131
vt 0.0090 0.6273
vt 0.9940 0.8704
vt 0.8495 0.8748
vt 0.9931 0.9922
vt 0.8488 0.9747
vt 0.9940 0.8704
vt 0.9931 0.9922
vt 0.8495 0.8748
vt 0.8488 0.9747
vt 0.7552 0.5037
vt 0.6695 0.5044
vt 0.7602 0.5396
vt 0.5732 0.5413
vt 0.5789 0.5052
vt 0.2943 0.1104
vt 0.2943 0.3720
vt 0.3642 0.1332
vt 0.3642 0.3478
vt 0.3191 0.0118
vt 0.6388 0.0136
vt 0.3205 0.0929
vt 0.6372 0.0874
vt 0.8213 0.9730
vt 0.5375 0.5444
vt 0.5575 0.5559
vt 0.5575 0.7424
vt 0.5375 0.6723
vt 0.5375 0.7147
vt 0.5375 0.7659
vt 0.5575 0.9115
vt 0.5375 0.9214
vt 0.5375 0.8088
vt 0.5041 0.9397
vt 0.5275 0.9789
vt 0.3642 0.3478
vt 0.5264 0.3151
vt 0.3642 0.1332
vt 0.5264 0.1607
vt 0.3642 0.1332
vt 0.5264 0.3151
vt 0.5041 0.9397
vt 0.5275 0.9789
vt 0.8213 0.9730
vt 0.5754 0.8085
vt 0.5575 0.7424
vt 0.5754 0.7652
vt 0.5575 0.9115
vt 0.7681 0.6097
vt 0.7394 0.6779
vt 0.5754 0.6741
vt 0.5575 0.5559
vt 0.7681 0.8656
vt 0.7413 0.8118
vt 0.7681 0.7413
vt 0.7413 0.7682
vt 0.5754 0.7174
vt 0.7394 0.7203
vt 0.4602 0.7118
vt 0.4314 0.5023
vt 0.4596 0.6100
vt 0.4314 0.9618
vt 0.4605 0.7658
vt 0.4611 0.8737
vt 0.4899 0.6711
vt 0.4897 0.6160
vt 0.5375 0.6723
vt 0.5375 0.5444
vt 0.5375 0.9214
vt 0.4909 0.8679
vt 0.5375 0.8088
vt 0.4906 0.8077
vt 0.5375 0.7147
vt 0.5375 0.7659
vt 0.9940 0.8704
vt 0.9931 0.9922
vt 0.8495 0.8748
vt 0.8488 0.9747
vt 0.9940 0.8704
vt 0.8495 0.8748
vt 0.9931 0.9922
vt 0.8488 0.9747
vt 0.7552 0.5037
vt 0.7602 0.5396
vt 0.6695 0.5044
vt 0.5732 0.5413
vt 0.5789 0.5052
vt 0.2943 0.1104
vt 0.3642 0.1332
vt 0.2943 0.3720
vt 0.3642 0.3478
vt 0.3191 0.0118
vt 0.3205 0.0929
vt 0.6388 0.0136
vt 0.6372 0.0874
vt 0.8213 0.9730
vt 0.5375 0.5444
vt 0.5575 0.7424
vt 0.5575 0.5559
vt 0.5375 0.6723
vt 0.5375 0.7147
vt 0.5375 0.7659
vt 0.5375 0.9214
vt 0.5575 0.9115
vt 0.5375 0.8088
vt 0.5041 0.9397
vt 0.5275 0.9789
vt 0.3642 0.3478
vt 0.3642 0.1332
vt 0.5264 0.3151
vt 0.5264 0.1607
vt 0.5264 0.3151
vt 0.3642 0.1332
vt 0.5041 0.9397
vt 0.5275 0.9789
vt 0.8213 0.9730
vt 0.5754 0.8085
vt 0.5754 0.7652
vt 0.5575 0.7424
vt 0.5575 0.9115
vt 0.7681 0.6097
vt 0.5754 0.6741
vt 0.7394 0.6779
vt 0.5575 0.5559
vt 0.7681 0.8656
vt 0.7681 0.7413
vt 0.7413 0.8118
vt 0.7413 0.7682
vt 0.5754 0.7174
vt 0.7394 0.7203
vt 0.4602 0.7118
vt 0.4596 0.6100
vt 0.4314 0.5023
vt 0.4314 0.9618
vt 0.4611 0.8737
vt 0.4605 0.7658
vt 0.4899 0.6711
vt 0.5375 0.6723
vt 0.4897 0.6160
vt 0.5375 0.5444
vt 0.5375 0.9214
vt 0.4909 0.8679
vt 0.5375 0.8088
vt 0.4906 0.8077
vt 0.5375 0.7147
vt 0.5375 0.7659
vt 0.6827 0.4040
vt 0.6808 0.4803
vt 0.7548 0.4838
vt 0.7575 0.4021
vt 0.6827 0.4040
vt 0.7575 0.4021
vt 0.7548 0.4838
vt 0.6808 0.4803
vt 0.2656 0.0360
vt 0.2649 0.0821
vt 0.0117 0.0821
vt 0.0116 0.0360
vt 0.2649 0.0821
vt 0.2656 0.0360
vt 0.0116 0.0360
vt 0.0117 0.0821
vt 0.7575 0.4021
vt 0.7548 0.4838
vt 0.6808 0.4803
vt 0.6827 0.4040
vt 0.7575 0.4021
vt 0.6827 0.4040
vt 0.6808 0.4803
vt 0.7548 0.4838
vt 0.2649 0.0821
vt 0.2656 0.0360
vt 0.0116 0.0360
vt 0.0117 0.0821
vt 0.2656 0.0360
vt 0.2649 0.0821
vt 0.0117 0.0821
vt 0.0116 0.0360
vt 0.0129 0.0274
vt 0.2609 0.0274
vt 0.2609 0.0306
vt 0.0129 0.0306
vt 0.4515 0.0954
vt 0.5292 0.0953
vt 0.5293 0.1025
vt 0.4516 0.1027
vt 0.2609 0.0274
vt 0.0129 0.0274
vt 0.0129 0.0306
vt 0.2609 0.0306
vt 0.5292 0.0953
vt 0.4515 0.0954
vt 0.4516 0.1027
vt 0.5293 0.1025
vt 0.3114 0.8612
vt 0.3114 0.6639
vt 0.3272 0.6401
vt 0.3114 0.8612
vt 0.3272 0.6401
vt 0.3272 0.8809
vt 0.0039 0.8918
vt 0.0039 0.6310
vt 0.0113 0.6401
vt 0.0113 0.6401
vt 0.0113 0.8809
vt 0.0039 0.8918
vt 0.3272 0.8809
vt 0.3272 0.6401
vt 0.3346 0.8918
vt 0.3346 0.6310
vt 0.3346 0.8918
vt 0.3272 0.6401
vt 0.3346 0.8918
vt 0.0039 0.8918
vt 0.3346 0.8918
vt 0.3272 0.9030
vt 0.0039 0.8918
vt 0.0113 0.9030
vt 0.3272 0.9030
vt 0.3272 0.9870
vt 0.0113 0.9030
vt 0.0113 0.9870
vn 0.0000 -1.0000 0.0000
vn 0.0000 1.0000 0.0000
vn 0.0000 0.9051 -0.4253
vn 0.1142 0.9409 -0.3190
vn -0.5911 0.0000 0.8066
vn -0.5910 0.0000 0.8066
vn -0.6350 0.1443 0.7589
vn -0.5836 0.1835 0.7910
vn -0.5337 0.4379 0.7234
vn -0.6176 0.3843 0.6862
vn 1.0000 0.0000 0.0000
vn 1.0000 0.0020 -0.0016
vn 1.0000 0.0032 -0.0012
vn 0.9984 0.0531 -0.0201
vn 0.9986 0.0482 -0.0226
vn 0.0000 -0.0637 -0.9980
vn 0.0000 -0.0548 -0.9985
vn -1.0000 0.0000 0.0000
vn -1.0000 0.0035 -0.0028
vn -1.0000 0.0025 -0.0009
vn -0.9986 0.0500 -0.0190
vn -0.9983 0.0526 -0.0247
vn 0.0000 0.2238 0.9746
vn 0.0000 0.4669 0.8843
vn 0.5793 0.0000 0.8151
vn 0.6304 0.1751 0.7563
vn 0.5752 0.1520 0.8038
vn 0.5307 0.4102 0.7417
vn 0.5969 0.4197 0.6838
vn 0.6957 -0.0000 0.7184
vn 0.0000 -0.5298 0.8481
vn -0.6957 0.0000 0.7184
vn -0.5910 0.0078 0.8066
vn 0.0000 0.0292 -0.9996
vn 0.0000 0.0096 1.0000
vn 0.5793 0.0079 0.8151
vn 0.6947 0.0070 0.7192
vn 0.6956 0.0069 0.7184
vn -0.6948 0.0069 0.7192
vn -0.6956 0.0070 0.7184
vn 0.0000 0.9471 -0.3211
vn -0.2072 0.9491 -0.2374
vn 0.8849 0.4261 0.1883
vn 0.2185 0.9575 0.1883
vn -0.6123 0.7679 0.1883
vn -0.9821 0.0000 0.1883
vn -0.6123 -0.7678 0.1883
vn -0.6123 -0.7679 0.1883
vn 0.2185 -0.9575 0.1883
vn 0.8849 -0.4261 0.1883
vn -0.3570 -0.1719 0.9181
vn -0.3571 -0.1719 0.9181
vn -0.0882 -0.3863 0.9181
vn -0.0882 -0.3864 0.9181
vn 0.2471 -0.3098 0.9181
vn 0.3963 0.0000 0.9181
vn 0.2471 0.3098 0.9181
vn -0.0881 0.3863 0.9181
vn -0.0882 0.3863 0.9181
vn -0.3571 0.1719 0.9181
vn -0.3570 0.1719 0.9181
vn 0.0000 0.0000 1.0000
vn -0.6123 0.7678 0.1883
vn 0.8848 -0.4261 0.1883
vn -0.3571 -0.1720 0.9181
vn 0.2471 0.3099 0.9181
vn -0.0882 0.3864 0.9181
vn -0.3570 0.1720 0.9181
vn -0.3571 0.1720 0.9181
vn 0.0000 -0.8192 0.5736
vn 0.6100 -0.6491 0.4545
vn 0.0000 0.8191 -0.5736
vn 0.3854 0.7559 -0.5292
vn 0.3851 0.7559 -0.5293
vn 0.0000 0.8192 -0.5735
vn -0.0000 0.5736 0.8192
vn 0.0001 0.5736 0.8192
vn 0.0000 -0.5736 -0.8192
vn 0.0001 -0.5736 -0.8192
vn 0.0000 -0.1736 0.9848
vn -0.7070 0.4056 0.5793
vn 0.7070 0.4056 0.5793
vn 0.0000 0.9848 0.1740
vn 0.0000 0.9848 0.1739
vn 0.0000 0.5737 0.8191
vn 0.0000 0.5735 0.8192
vn 0.0000 0.5736 0.8191
vn 0.7072 0.4055 0.5791
vn 0.7072 0.4055 0.5792
vn 0.0000 0.9849 0.1733
vn -0.7072 0.4055 0.5792
vn -0.7072 0.4055 0.5791
vn 0.0000 0.9849 0.1732
vn 0.0000 0.5178 0.8555
vn 0.0663 0.5723 0.8174
vn 0.0665 0.5723 0.8173
vn 0.0000 0.6266 0.7793
vn -0.0665 0.5723 0.8173
vn -0.0663 0.5723 0.8173
vn 0.2757 -0.7585 0.5905
vn 0.2757 0.8143 -0.5108
vn 0.7629 0.3708 0.5296
vn 0.2476 -0.5557 -0.7936
vn -0.9848 -0.0996 -0.1422
vn 0.3765 -0.7189 0.5844
vn -0.1737 0.5649 0.8067
vn -0.1736 0.5649 0.8067
vn -0.1737 0.5648 0.8067
vn -0.1738 0.5648 0.8067
vn 0.1237 -0.7531 0.6461
vn 0.0982 -0.5996 0.7942
vn 0.3792 -0.5307 -0.7580
vn 0.0579 0.9349 -0.3501
vn 0.3472 0.8017 -0.4866
vn 0.1559 0.8545 -0.4955
vn -0.2786 0.5508 0.7867
vn -0.2786 0.5509 0.7867
vn -0.2179 0.5609 0.7987
vn -0.2213 0.5491 0.8059
vn -0.2234 0.5591 0.7984
vn -0.2236 0.5590 0.7985
vn -0.2787 0.5509 0.7866
vn -0.2216 0.5614 0.7973
vn -0.2203 0.5595 0.7990
vn -0.2787 0.5509 0.7867
vn -0.2789 0.5507 0.7867
vn -0.2202 0.5595 0.7991
vn -0.2210 0.5710 0.7906
vn -0.2174 0.5564 0.8020
vn -0.2174 0.5618 0.7982
vn -0.2178 0.5599 0.7994
vn -0.0988 0.5708 0.8151
vn -0.0987 0.5708 0.8151
vn -0.0989 0.5708 0.8151
vn -0.0987 0.5708 0.8152
vn -0.2757 -0.7585 0.5905
vn -0.2757 0.8143 -0.5108
vn -0.7629 0.3708 0.5296
vn -0.2476 -0.5557 -0.7936
vn 0.9848 -0.0996 -0.1422
vn -0.3765 -0.7189 0.5844
vn 0.1737 0.5649 0.8067
vn 0.1736 0.5649 0.8067
vn 0.1737 0.5648 0.8067
vn 0.1738 0.5648 0.8067
vn -0.1237 -0.7531 0.6461
vn -0.0982 -0.5996 0.7942
vn -0.3792 -0.5307 -0.7580
vn -0.0579 0.9349 -0.3501
vn -0.3472 0.8017 -0.4866
vn -0.1559 0.8545 -0.4955
vn 0.2786 0.5508 0.7867
vn 0.2786 0.5509 0.7867
vn 0.2179 0.5609 0.7987
vn 0.2213 0.5491 0.8059
vn 0.2234 0.5591 0.7984
vn 0.2236 0.5590 0.7985
vn 0.2787 0.5509 0.7866
vn 0.2216 0.5615 0.7973
vn 0.2203 0.5595 0.7990
vn 0.2787 0.5509 0.7867
vn 0.2789 0.5507 0.7867
vn 0.2202 0.5595 0.7991
vn 0.2210 0.5710 0.7906
vn 0.2174 0.5564 0.8020
vn 0.2174 0.5618 0.7982
vn 0.2178 0.5599 0.7994
vn 0.0988 0.5708 0.8151
vn 0.0987 0.5708 0.8151
vn 0.0989 0.5708 0.8151
vn 0.0987 0.5708 0.8152
vn 0.0000 -0.8191 0.5737
vn -0.0001 -0.8192 0.5736
vn 0.0000 0.8192 -0.5736
vn 0.1395 -0.8111 0.5681
vn -0.1395 0.8111 -0.5680
vn 0.1973 0.5623 0.8031
vn -0.1973 -0.5623 -0.8031
vn 0.0000 0.8190 -0.5738
vn 0.0000 -0.8190 0.5738
vn -0.0001 0.5736 0.8191
vn -0.7072 0.4056 0.5792
vn 0.7072 0.4056 0.5792
vn 0.0000 0.9526 0.3042
vn 0.0000 -0.0648 0.9979
s off
f 1/1/1 2/2/1 3/3/1
f 4/4/2 5/5/2 6/6/2
f 7/7/3 4/4/3 8/8/3
f 6/6/4 8/8/4 4/4/4
f 9/9/5 10/10/5 11/11/5
f 12/12/6 11/11/6 10/10/6
f 11/11/7 12/12/7 13/13/7
f 14/14/8 13/13/8 12/12/8
f 13/13/9 14/14/9 15/15/9
f 16/16/10 15/15/10 14/14/10
f 17/17/11 18/18/11 19/19/11
f 18/18/12 17/17/12 20/20/12
f 20/20/13 21/21/13 18/18/13
f 21/21/14 20/20/14 22/22/14
f 22/22/15 23/23/15 21/21/15
f 24/24/16 25/25/16 26/26/16
f 27/27/16 26/26/16 25/25/16
f 26/26/17 27/27/17 28/28/17
f 29/29/17 28/28/17 27/27/17
f 30/30/18 31/31/18 32/32/18
f 30/30/19 32/32/19 33/33/19
f 33/33/20 34/34/20 30/30/20
f 34/34/21 33/33/21 35/35/21
f 35/35/22 36/36/22 34/34/22
f 2/2/1 37/37/1 3/3/1
f 38/38/1 3/3/1 37/37/1
f 12/12/23 39/39/23 14/14/23
f 40/40/23 14/14/23 39/39/23
f 14/14/24 40/40/24 16/16/24
f 41/41/24 16/16/24 40/40/24
f 42/42/1 43/43/1 44/44/1
f 45/45/25 46/46/25 47/47/25
f 48/48/25 47/47/25 46/46/25
f 47/47/26 48/48/26 49/49/26
f 50/50/27 49/49/27 48/48/27
f 49/49/28 50/50/28 51/51/28
f 52/52/29 51/51/29 50/50/29
f 1/1/1 3/3/1 53/53/1
f 54/54/30 55/55/30 56/56/30
f 57/57/30 58/58/30 59/59/30
f 60/60/1 42/42/1 44/44/1
f 61/61/31 62/62/31 63/63/31
f 64/64/31 63/63/31 62/62/31
f 65/65/32 66/66/32 67/67/32
f 68/68/32 69/69/32 70/70/32
f 31/31/18 71/71/18 72/72/18
f 72/72/18 73/73/18 31/31/18
f 74/74/33 75/75/33 76/76/33
f 77/77/33 78/78/33 79/79/33
f 80/80/11 19/19/11 81/81/11
f 81/81/11 82/82/11 80/80/11
f 83/83/34 84/84/34 85/85/34
f 86/86/34 87/87/34 88/88/34
f 89/89/35 90/90/35 91/91/35
f 92/92/35 93/93/35 94/94/35
f 95/95/36 96/96/36 97/97/36
f 98/98/36 99/99/36 100/100/36
f 101/101/37 102/102/37 103/103/37
f 104/104/38 105/105/38 106/106/38
f 107/107/39 108/108/39 109/109/39
f 110/110/40 111/111/40 112/112/40
f 6/6/41 113/113/41 8/8/41
f 113/113/42 114/114/42 8/8/42
f 115/115/3 8/8/3 114/114/3
f 25/25/16 116/116/16 27/27/16
f 117/117/16 27/27/16 116/116/16
f 27/27/17 117/117/17 118/118/17
f 118/118/17 29/29/17 27/27/17
f 37/37/1 60/60/1 44/44/1
f 44/44/1 38/38/1 37/37/1
f 39/39/23 47/47/23 40/40/23
f 49/49/23 40/40/23 47/47/23
f 40/40/24 49/49/24 51/51/24
f 51/51/24 41/41/24 40/40/24
f 62/62/31 119/119/31 120/120/31
f 120/120/31 64/64/31 62/62/31
f 88/88/34 121/121/34 86/86/34
f 122/122/34 123/123/34 124/124/34
f 94/94/35 125/125/35 92/92/35
f 126/126/35 92/92/35 125/125/35
f 127/127/43 128/128/43 129/129/43
f 127/127/43 130/130/43 128/128/43
f 130/130/44 131/131/44 128/128/44
f 130/130/44 132/132/44 131/131/44
f 132/132/45 133/133/45 131/131/45
f 132/132/45 134/134/45 133/133/45
f 134/134/46 135/135/46 133/133/46
f 134/134/46 136/136/46 135/135/46
f 137/137/47 138/138/47 139/139/47
f 137/137/48 140/140/48 138/138/48
f 140/140/49 141/141/49 138/138/49
f 140/140/49 142/142/49 141/141/49
f 142/142/50 129/129/50 141/141/50
f 142/142/50 127/127/50 129/129/50
f 143/143/51 144/144/51 145/145/51
f 143/143/52 146/146/52 144/144/52
f 146/146/53 147/147/53 144/144/53
f 146/146/54 148/148/54 147/147/54
f 148/148/55 149/149/55 147/147/55
f 148/148/55 150/150/55 149/149/55
f 150/150/56 151/151/56 149/149/56
f 150/150/56 152/152/56 151/151/56
f 152/152/57 153/153/57 151/151/57
f 152/152/57 154/154/57 153/153/57
f 154/154/58 155/155/58 153/153/58
f 154/154/59 156/156/59 155/155/59
f 156/156/60 145/145/60 155/155/60
f 156/156/61 143/143/61 145/145/61
f 157/157/62 158/158/62 159/159/62
f 157/157/62 160/160/62 158/158/62
f 157/157/62 159/159/62 161/161/62
f 157/157/62 162/162/62 160/160/62
f 157/157/62 161/161/62 163/163/62
f 157/157/62 164/164/62 162/162/62
f 157/157/62 163/163/62 164/164/62
f 165/165/43 166/166/43 167/167/43
f 165/165/43 168/168/43 166/166/43
f 168/168/44 169/169/44 166/166/44
f 168/168/44 170/170/44 169/169/44
f 170/170/63 171/171/63 169/169/63
f 170/170/45 172/172/45 171/171/45
f 172/172/46 173/173/46 171/171/46
f 172/172/46 174/174/46 173/173/46
f 175/175/47 176/176/47 177/177/47
f 175/175/48 178/178/48 176/176/48
f 178/178/49 179/179/49 176/176/49
f 178/178/49 180/180/49 179/179/49
f 180/180/64 167/167/64 179/179/64
f 180/180/50 165/165/50 167/167/50
f 181/181/65 182/182/65 183/183/65
f 181/181/52 184/184/52 182/182/52
f 184/184/54 185/185/54 182/182/54
f 184/184/54 186/186/54 185/185/54
f 186/186/55 187/187/55 185/185/55
f 186/186/55 188/188/55 187/187/55
f 188/188/56 189/189/56 187/187/56
f 188/188/56 190/190/56 189/189/56
f 190/190/66 191/191/66 189/189/66
f 190/190/57 192/192/57 191/191/57
f 192/192/67 193/193/67 191/191/67
f 192/192/59 194/194/59 193/193/59
f 194/194/68 183/183/68 193/193/68
f 194/194/69 181/181/69 183/183/69
f 195/195/62 196/196/62 197/197/62
f 195/195/62 198/198/62 196/196/62
f 195/195/62 197/197/62 199/199/62
f 195/195/62 200/200/62 198/198/62
f 195/195/62 199/199/62 201/201/62
f 195/195/62 202/202/62 200/200/62
f 195/195/62 201/201/62 202/202/62
f 203/203/70 204/204/70 205/205/70
f 205/205/70 206/206/70 203/203/70
f 206/206/71 205/205/71 207/207/71
f 207/207/71 208/208/71 206/206/71
f 208/208/70 207/207/70 209/209/70
f 209/209/70 210/210/70 208/208/70
f 211/211/72 212/212/72 213/213/72
f 213/213/72 214/214/72 211/211/72
f 212/212/73 215/215/73 216/216/73
f 216/216/74 213/213/74 212/212/74
f 215/215/75 217/217/75 218/218/75
f 218/218/75 216/216/75 215/215/75
f 219/219/76 220/220/76 221/221/76
f 220/220/76 219/219/76 222/222/76
f 222/222/76 223/223/76 220/220/76
f 222/222/77 224/224/77 225/225/77
f 226/226/76 227/227/76 228/228/76
f 228/228/76 229/229/76 226/226/76
f 230/230/11 231/231/11 232/232/11
f 232/232/11 233/233/11 230/230/11
f 234/234/78 235/235/78 236/236/78
f 236/236/78 237/237/78 234/234/78
f 235/235/78 238/238/78 239/239/78
f 239/239/79 236/236/79 235/235/79
f 238/238/78 240/240/78 241/241/78
f 241/241/78 239/239/78 238/238/78
f 242/242/18 243/243/18 244/244/18
f 245/245/18 244/244/18 246/246/18
f 244/244/18 245/245/18 242/242/18
f 245/245/18 247/247/18 248/248/18
f 249/249/80 250/250/80 251/251/80
f 251/251/80 250/250/80 252/252/80
f 253/253/81 254/254/81 255/255/81
f 256/256/82 257/257/82 258/258/82
f 259/259/81 260/260/81 261/261/81
f 262/262/82 263/263/82 264/264/82
f 265/265/83 266/266/83 267/267/83
f 267/267/84 268/268/84 265/265/84
f 269/269/85 270/270/85 271/271/85
f 272/272/85 271/271/85 270/270/85
f 273/273/86 274/274/86 275/275/86
f 276/276/86 275/275/86 274/274/86
f 271/271/77 275/275/77 269/269/77
f 275/275/87 276/276/87 269/269/87
f 277/277/80 278/278/80 279/279/80
f 280/280/80 281/281/80 282/282/80
f 283/283/88 284/284/88 285/285/88
f 286/286/89 287/287/89 288/288/89
f 289/289/90 290/290/90 291/291/90
f 292/292/90 293/293/90 294/294/90
f 295/295/91 296/296/91 297/297/91
f 298/298/92 299/299/92 300/300/92
f 301/301/93 302/302/93 303/303/93
f 303/303/90 304/304/90 301/301/90
f 305/305/91 306/306/91 307/307/91
f 308/308/92 309/309/92 310/310/92
f 311/311/88 312/312/88 313/313/88
f 314/314/89 315/315/89 316/316/89
f 317/317/80 318/318/80 319/319/80
f 319/319/80 320/320/80 317/317/80
f 321/321/94 322/322/94 323/323/94
f 324/324/94 325/325/94 326/326/94
f 327/327/95 328/328/95 329/329/95
f 330/330/96 331/331/96 332/332/96
f 333/333/97 334/334/97 335/335/97
f 336/336/97 337/337/97 338/338/97
f 339/339/98 340/340/98 341/341/98
f 342/342/99 343/343/99 344/344/99
f 345/345/100 346/346/100 347/347/100
f 348/348/100 347/347/100 346/346/100
f 349/349/101 350/350/101 351/351/101
f 352/352/101 351/351/101 350/350/101
f 353/353/102 354/354/102 355/355/102
f 356/356/102 355/355/102 354/354/102
f 354/354/102 357/357/102 356/356/102
f 358/358/103 359/359/103 360/360/103
f 361/361/103 360/360/103 359/359/103
f 362/362/104 363/363/104 364/364/104
f 365/365/104 364/364/104 363/363/104
f 366/366/105 348/348/105 346/346/105
f 367/367/106 368/368/106 369/369/106
f 369/369/107 370/370/107 367/367/107
f 369/369/106 371/371/106 370/370/106
f 369/369/106 372/372/106 371/371/106
f 369/369/107 373/373/107 374/374/107
f 369/369/108 374/374/108 375/375/108
f 369/369/109 375/375/109 372/372/109
f 346/346/110 376/376/110 366/366/110
f 377/377/111 366/366/111 376/376/111
f 378/378/112 379/379/112 380/380/112
f 381/381/112 382/382/112 383/383/112
f 384/384/113 351/351/113 385/385/113
f 352/352/114 386/386/114 351/351/114
f 386/386/115 385/385/115 351/351/115
f 387/387/116 388/388/116 389/389/116
f 387/387/117 390/390/117 388/388/117
f 391/391/118 392/392/118 393/393/118
f 391/391/119 393/393/119 394/394/119
f 395/395/120 396/396/120 397/397/120
f 398/398/121 397/397/121 396/396/121
f 389/389/122 388/388/122 399/399/122
f 400/400/123 397/397/123 398/398/123
f 392/392/124 397/397/124 400/400/124
f 393/393/125 388/388/125 394/394/125
f 393/393/126 399/399/126 388/388/126
f 392/392/127 391/391/127 397/397/127
f 390/390/128 387/387/128 395/395/128
f 396/396/129 395/395/129 387/387/129
f 389/389/130 400/400/130 398/398/130
f 400/400/131 389/389/131 399/399/131
f 401/401/132 402/402/132 403/403/132
f 404/404/133 402/402/133 401/401/133
f 404/404/133 405/405/133 406/406/133
f 404/404/134 401/401/134 405/405/134
f 407/407/133 408/408/133 409/409/133
f 408/408/135 410/410/135 409/409/135
f 404/404/133 406/406/133 411/411/133
f 411/411/133 406/406/133 412/412/133
f 413/413/135 411/411/135 414/414/135
f 412/412/133 414/414/133 411/411/133
f 415/415/133 416/416/133 401/401/133
f 405/405/135 401/401/135 416/416/135
f 408/408/135 402/402/135 410/410/135
f 403/403/133 402/402/133 408/408/133
f 417/417/136 418/418/136 419/419/136
f 420/420/136 419/419/136 418/418/136
f 421/421/137 422/422/137 423/423/137
f 424/424/137 423/423/137 422/422/137
f 425/425/138 426/426/138 427/427/138
f 428/428/138 427/427/138 426/426/138
f 427/427/138 428/428/138 429/429/138
f 430/430/139 431/431/139 432/432/139
f 433/433/139 432/432/139 431/431/139
f 434/434/140 435/435/140 436/436/140
f 437/437/140 436/436/140 435/435/140
f 438/438/141 419/419/141 420/420/141
f 439/439/142 440/440/142 441/441/142
f 440/440/143 439/439/143 442/442/143
f 440/440/142 442/442/142 443/443/142
f 440/440/142 443/443/142 444/444/142
f 440/440/143 445/445/143 446/446/143
f 440/440/144 447/447/144 445/445/144
f 440/440/145 444/444/145 447/447/145
f 419/419/146 438/438/146 448/448/146
f 449/449/147 448/448/147 438/438/147
f 450/450/148 451/451/148 452/452/148
f 453/453/148 454/454/148 455/455/148
f 456/456/149 457/457/149 422/422/149
f 424/424/150 422/422/150 458/458/150
f 458/458/151 422/422/151 457/457/151
f 459/459/152 460/460/152 461/461/152
f 459/459/153 461/461/153 462/462/153
f 463/463/154 464/464/154 465/465/154
f 463/463/155 466/466/155 464/464/155
f 467/467/156 468/468/156 469/469/156
f 470/470/157 469/469/157 468/468/157
f 460/460/158 471/471/158 461/461/158
f 472/472/159 470/470/159 468/468/159
f 465/465/160 472/472/160 468/468/160
f 464/464/161 466/466/161 461/461/161
f 464/464/162 461/461/162 471/471/162
f 465/465/163 468/468/163 463/463/163
f 462/462/164 467/467/164 459/459/164
f 469/469/165 459/459/165 467/467/165
f 460/460/166 470/470/166 472/472/166
f 472/472/167 471/471/167 460/460/167
f 473/473/168 474/474/168 475/475/168
f 476/476/169 473/473/169 475/475/169
f 476/476/169 477/477/169 478/478/169
f 476/476/170 478/478/170 473/473/170
f 479/479/169 480/480/169 481/481/169
f 481/481/171 480/480/171 482/482/171
f 476/476/169 483/483/169 477/477/169
f 483/483/169 484/484/169 477/477/169
f 485/485/171 486/486/171 483/483/171
f 484/484/169 483/483/169 486/486/169
f 487/487/169 473/473/169 488/488/169
f 478/478/171 488/488/171 473/473/171
f 481/481/171 482/482/171 475/475/171
f 474/474/171 481/481/171 475/475/171
f 489/489/172 490/490/172 491/491/172
f 491/491/173 492/492/173 489/489/173
f 493/493/174 494/494/174 495/495/174
f 495/495/174 496/496/174 493/493/174
f 497/497/77 498/498/77 499/499/77
f 499/499/76 500/500/76 497/497/76
f 501/501/78 502/502/78 503/503/78
f 503/503/78 504/504/78 501/501/78
f 505/505/175 506/506/175 507/507/175
f 507/507/175 508/508/175 505/505/175
f 509/509/176 510/510/176 511/511/176
f 511/511/176 512/512/176 509/509/176
f 513/513/177 514/514/177 515/515/177
f 515/515/177 516/516/177 513/513/177
f 517/517/178 518/518/178 519/519/178
f 519/519/178 520/520/178 517/517/178
f 521/521/179 522/522/179 523/523/179
f 523/523/179 524/524/179 521/521/179
f 525/525/18 526/526/18 527/527/18
f 527/527/18 528/528/18 525/525/18
f 529/529/180 530/530/180 531/531/180
f 531/531/180 532/532/180 529/529/180
f 533/533/11 534/534/11 535/535/11
f 535/535/11 536/536/11 533/533/11
f 537/537/181 538/538/181 539/539/181
f 540/540/87 541/541/87 542/542/87
f 543/543/182 544/544/182 545/545/182
f 546/546/81 547/547/81 548/548/81
f 549/549/82 550/550/82 551/551/82
f 552/552/183 553/553/183 554/554/183
f 274/274/184 555/555/184 276/276/184
f 556/556/184 276/276/184 555/555/184
f 557/557/185 558/558/185 559/559/185
f 560/560/185 559/559/185 558/558/185
f 561/561/76 562/562/76 563/563/76
f 564/564/76 563/563/76 562/562/76
o Object55
v -0.255201 1.148500 -0.093398
v 0.122072 1.148500 -0.093398
v 0.112072 1.150956 -0.107325
v 0.112072 1.150956 -0.107325
v -0.245201 1.150956 -0.107325
v -0.255201 1.148500 -0.093398
v 0.122070 1.303900 -0.202211
v -0.255203 1.303900 -0.202211
v -0.245203 1.289973 -0.204666
v 0.112070 1.289973 -0.204666
v -0.255203 1.303900 -0.202211
v -0.255201 1.148500 -0.093398
v -0.245201 1.150956 -0.107325
v -0.245201 1.150956 -0.107325
v -0.245203 1.289973 -0.204666
v -0.255203 1.303900 -0.202211
v 0.122072 1.148500 -0.093398
v 0.122070 1.303900 -0.202211
v 0.112070 1.289973 -0.204666
v 0.112070 1.289973 -0.204666
v 0.112072 1.150956 -0.107325
v 0.122072 1.148500 -0.093398
v -0.262882 1.037377 -0.020472
v 0.128541 1.037377 -0.020472
v 0.128541 1.098600 -0.063340
v -0.262882 1.098600 -0.063340
v 0.112072 1.150956 -0.107325
v 0.112070 1.289973 -0.204666
v -0.245201 1.150956 -0.107325
v -0.245203 1.289973 -0.204666
vt 0.2868 0.1461
vt 0.0984 0.1461
vt 0.1066 0.1310
vt 0.1066 0.1310
vt 0.2799 0.1310
vt 0.2868 0.1461
vt 0.0984 0.1461
vt 0.2868 0.1461
vt 0.2799 0.1310
vt 0.1066 0.1310
vt 0.0205 0.1463
vt 0.3100 0.1463
vt 0.3007 0.1301
vt 0.3007 0.1301
vt 0.0299 0.1301
vt 0.0205 0.1463
vt 0.3110 0.1461
vt 0.0215 0.1461
vt 0.0308 0.1303
vt 0.0308 0.1303
vt 0.3017 0.1303
vt 0.3110 0.1461
vt 0.0196 0.6136
vt 0.2981 0.6136
vt 0.2981 0.5432
vt 0.0196 0.5432
vt 0.2104 0.2056
vt 0.2104 0.3607
vt 0.0258 0.2054
vt 0.0258 0.3607
vn 0.0000 0.9848 0.1737
vn 0.0000 -0.1736 0.9848
vn 0.7071 0.4056 0.5792
vn -0.7071 0.4056 0.5793
vn -0.7071 0.4056 0.5792
vn 0.0000 0.5736 0.8192
s off
f 565/565/186 566/566/186 567/567/186
f 568/568/186 569/569/186 570/570/186
f 571/571/187 572/572/187 573/573/187
f 573/573/187 574/574/187 571/571/187
f 575/575/188 576/576/188 577/577/188
f 578/578/188 579/579/188 580/580/188
f 581/581/189 582/582/189 583/583/189
f 584/584/190 585/585/190 586/586/190
f 587/587/191 588/588/191 589/589/191
f 589/589/191 590/590/191 587/587/191
f 591/591/191 592/592/191 593/593/191
f 594/594/191 593/593/191 592/592/191
o Object56
v -0.255201 1.148500 -0.093398
v 0.122072 1.148500 -0.093398
v 0.112072 1.150960 -0.107325
v 0.112072 1.150960 -0.107325
v -0.245201 1.150960 -0.107325
v -0.255201 1.148500 -0.093398
v 0.122070 1.303900 -0.202211
v -0.255203 1.303900 -0.202211
v -0.245203 1.289980 -0.204666
v -0.245203 1.289980 -0.204666
v 0.112070 1.289980 -0.204666
v 0.122070 1.303900 -0.202211
v -0.255203 1.303900 -0.202211
v -0.255201 1.148500 -0.093398
v -0.245201 1.150960 -0.107325
v -0.245201 1.150960 -0.107325
v -0.245203 1.289980 -0.204666
v -0.255203 1.303900 -0.202211
v 0.122072 1.148500 -0.093398
v 0.122070 1.303900 -0.202211
v 0.112070 1.289980 -0.204666
v 0.112070 1.289980 -0.204666
v 0.112072 1.150960 -0.107325
v 0.122072 1.148500 -0.093398
v -0.262882 1.037380 -0.020472
v 0.128541 1.037380 -0.020472
v 0.128541 1.098600 -0.063340
v -0.262882 1.098600 -0.063340
v 0.112072 1.150960 -0.107325
v 0.112070 1.289980 -0.204666
v -0.245201 1.150960 -0.107325
v -0.245203 1.289980 -0.204666
vt 0.3776 0.5181
vt 0.1892 0.5181
vt 0.1974 0.5030
vt 0.1974 0.5030
vt 0.3707 0.5030
vt 0.3776 0.5181
vt 0.1892 0.5181
vt 0.3776 0.5181
vt 0.3707 0.5030
vt 0.3707 0.5030
vt 0.1974 0.5030
vt 0.1892 0.5181
vt 0.1113 0.5182
vt 0.4008 0.5182
vt 0.3915 0.5021
vt 0.3915 0.5021
vt 0.1206 0.5021
vt 0.1113 0.5182
vt 0.4018 0.5181
vt 0.1123 0.5181
vt 0.1216 0.5022
vt 0.1216 0.5022
vt 0.3925 0.5022
vt 0.4018 0.5181
vt 0.0196 0.5432
vt 0.2981 0.5432
vt 0.2981 0.6136
vt 0.0196 0.6136
vt 0.3091 0.6669
vt 0.3091 0.8583
vt 0.0277 0.6667
vt 0.0277 0.8583
vn 0.0000 0.9848 0.1739
vn 0.0000 -0.1737 0.9848
vn 0.7070 0.4056 0.5793
vn 0.7069 0.4057 0.5794
vn -0.7069 0.4057 0.5794
vn -0.7070 0.4056 0.5793
vn 0.0000 0.5736 0.8191
vn 0.0000 0.5736 0.8192
s off
f 595/595/192 596/596/192 597/597/192
f 598/598/192 599/599/192 600/600/192
f 601/601/193 602/602/193 603/603/193
f 604/604/193 605/605/193 606/606/193
f 607/607/194 608/608/194 609/609/194
f 610/610/195 611/611/195 612/612/195
f 613/613/196 614/614/196 615/615/196
f 616/616/197 617/617/197 618/618/197
f 619/619/198 620/620/198 621/621/198
f 621/621/198 622/622/198 619/619/198
f 623/623/199 624/624/199 625/625/199
f 626/626/199 625/625/199 624/624/199
o screens01
v -0.073927 0.407746 -0.044012
v -0.012013 0.407746 -0.044012
v -0.073927 0.785405 -0.044012
v -0.012013 0.785405 -0.044012
v 0.040020 0.407746 -0.044012
v 0.040020 0.785405 -0.044012
v 0.547612 1.306100 -0.159671
v 0.771477 1.305930 -0.099087
v 0.771477 1.334720 -0.119241
v 0.771477 1.305930 -0.099087
v 0.547612 1.306100 -0.159671
v 0.547612 1.277520 -0.139661
v 0.549365 1.225000 -0.102504
v 0.768048 1.224930 -0.043110
v 0.768048 1.252890 -0.062685
v 0.768048 1.224930 -0.043110
v 0.549365 1.225000 -0.102504
v 0.549365 1.195710 -0.081990
v 0.539738 1.197640 -0.070977
v 0.549365 1.195710 -0.081990
v 0.539738 1.236180 -0.097957
v 0.549365 1.225000 -0.102504
v 0.777242 1.228780 -0.028060
v 0.768048 1.224930 -0.043110
v 0.539738 1.197640 -0.070977
v 0.549365 1.195710 -0.081990
v 0.779996 1.348370 -0.111201
v 0.771477 1.334720 -0.119241
v 0.779996 1.309540 -0.084016
v 0.771477 1.305930 -0.099087
v 0.777242 1.266580 -0.054529
v 0.768048 1.252890 -0.062685
v 0.777242 1.228780 -0.028060
v 0.768048 1.224930 -0.043110
v 0.539738 1.317440 -0.154861
v 0.547612 1.306100 -0.159671
v 0.779996 1.348370 -0.111201
v 0.771477 1.334720 -0.119241
v 0.779996 1.309540 -0.084016
v 0.771477 1.305930 -0.099087
v 0.539738 1.278850 -0.127842
v 0.547612 1.277520 -0.139661
v 0.539738 1.236180 -0.097957
v 0.549365 1.225000 -0.102504
v 0.777242 1.266580 -0.054529
v 0.768048 1.252890 -0.062685
v 0.539738 1.278850 -0.127842
v 0.547612 1.277520 -0.139661
v 0.539738 1.317440 -0.154861
v 0.547612 1.306100 -0.159671
v 0.379128 1.210160 -0.116803
v 0.378361 1.129860 -0.060668
v 0.410393 1.185160 -0.095508
v 0.410002 1.135400 -0.060718
v 0.479297 1.189790 -0.090411
v 0.479297 1.217680 -0.109937
v 0.479297 1.273270 -0.148859
v 0.479297 1.301620 -0.168716
v 0.379680 1.268020 -0.157251
v 0.411271 1.297150 -0.173820
v 0.411698 1.351510 -0.211833
v 0.380498 1.353650 -0.217112
v 0.371985 1.127980 -0.051273
v 0.379128 1.210160 -0.116803
v 0.372852 1.218770 -0.114742
v 0.379128 1.210160 -0.116803
v 0.371985 1.127980 -0.051273
v 0.378361 1.129860 -0.060668
v 0.415974 1.184780 -0.085718
v 0.410002 1.135400 -0.060718
v 0.415588 1.135620 -0.051341
v 0.410002 1.135400 -0.060718
v 0.415974 1.184780 -0.085718
v 0.410393 1.185160 -0.095508
v 0.415588 1.135620 -0.051341
v 0.378361 1.129860 -0.060668
v 0.371985 1.127980 -0.051273
v 0.378361 1.129860 -0.060668
v 0.415588 1.135620 -0.051341
v 0.410002 1.135400 -0.060718
v 0.484917 1.189420 -0.080618
v 0.410393 1.185160 -0.095508
v 0.415974 1.184780 -0.085718
v 0.410393 1.185160 -0.095508
v 0.484917 1.189420 -0.080618
v 0.479297 1.189790 -0.090411
v 0.374231 1.363170 -0.215684
v 0.411698 1.351510 -0.211833
v 0.417350 1.360210 -0.208389
v 0.411698 1.351510 -0.211833
v 0.374231 1.363170 -0.215684
v 0.380498 1.353650 -0.217112
v 0.416930 1.306600 -0.170901
v 0.479297 1.301620 -0.168716
v 0.484917 1.311070 -0.165800
v 0.479297 1.301620 -0.168716
v 0.416930 1.306600 -0.170901
v 0.411271 1.297150 -0.173820
v 0.484917 1.227180 -0.107060
v 0.479297 1.189790 -0.090411
v 0.484917 1.189420 -0.080618
v 0.479297 1.189790 -0.090411
v 0.484917 1.227180 -0.107060
v 0.479297 1.217680 -0.109937
v 0.372852 1.218770 -0.114742
v 0.479297 1.217680 -0.109937
v 0.484917 1.227180 -0.107060
v 0.479297 1.217680 -0.109937
v 0.372852 1.218770 -0.114742
v 0.379128 1.210160 -0.116803
v 0.484917 1.272800 -0.139006
v 0.379680 1.268020 -0.157251
v 0.373312 1.266930 -0.148407
v 0.379680 1.268020 -0.157251
v 0.484917 1.272800 -0.139006
v 0.479297 1.273270 -0.148859
v 0.484917 1.311070 -0.165800
v 0.479297 1.273270 -0.148859
v 0.484917 1.272800 -0.139006
v 0.479297 1.273270 -0.148859
v 0.484917 1.311070 -0.165800
v 0.479297 1.301620 -0.168716
v 0.417350 1.360210 -0.208389
v 0.411271 1.297150 -0.173820
v 0.416930 1.306600 -0.170901
v 0.411271 1.297150 -0.173820
v 0.417350 1.360210 -0.208389
v 0.411698 1.351510 -0.211833
v 0.373312 1.266930 -0.148407
v 0.380498 1.353650 -0.217112
v 0.374231 1.363170 -0.215684
v 0.380498 1.353650 -0.217112
v 0.373312 1.266930 -0.148407
v 0.379680 1.268020 -0.157251
v -0.535078 1.306100 -0.159671
v -0.758943 1.334720 -0.119242
v -0.758943 1.305930 -0.099087
v -0.758943 1.305930 -0.099087
v -0.535078 1.277520 -0.139661
v -0.535078 1.306100 -0.159671
v -0.536831 1.225000 -0.102504
v -0.755514 1.252890 -0.062685
v -0.755514 1.224930 -0.043110
v -0.755514 1.224930 -0.043110
v -0.536831 1.195710 -0.081990
v -0.536831 1.225000 -0.102504
v -0.527205 1.197640 -0.070977
v -0.527205 1.236180 -0.097957
v -0.536831 1.195710 -0.081990
v -0.536831 1.225000 -0.102504
v -0.764708 1.228780 -0.028060
v -0.527205 1.197640 -0.070977
v -0.755514 1.224930 -0.043110
v -0.536831 1.195710 -0.081990
v -0.767463 1.348370 -0.111201
v -0.767463 1.309540 -0.084016
v -0.758943 1.334720 -0.119242
v -0.758943 1.305930 -0.099087
v -0.764708 1.266580 -0.054529
v -0.764708 1.228780 -0.028060
v -0.755514 1.252890 -0.062685
v -0.755514 1.224930 -0.043110
v -0.527205 1.317440 -0.154861
v -0.767463 1.348370 -0.111201
v -0.535078 1.306100 -0.159671
v -0.758943 1.334720 -0.119242
v -0.767463 1.309540 -0.084016
v -0.527205 1.278850 -0.127842
v -0.758943 1.305930 -0.099087
v -0.535078 1.277520 -0.139661
v -0.527205 1.236180 -0.097957
v -0.764708 1.266580 -0.054529
v -0.536831 1.225000 -0.102504
v -0.755514 1.252890 -0.062685
v -0.527205 1.278850 -0.127842
v -0.527205 1.317440 -0.154861
v -0.535078 1.277520 -0.139661
v -0.535078 1.306100 -0.159671
v -0.366594 1.210160 -0.116803
v -0.397859 1.185160 -0.095508
v -0.365826 1.129860 -0.060668
v -0.397468 1.135400 -0.060718
v -0.466763 1.189790 -0.090411
v -0.466763 1.217680 -0.109936
v -0.466763 1.273270 -0.148859
v -0.367147 1.268020 -0.157251
v -0.466763 1.301620 -0.168716
v -0.398738 1.297150 -0.173820
v -0.399164 1.351510 -0.211833
v -0.367965 1.353650 -0.217112
v -0.359451 1.127980 -0.051273
v -0.360317 1.218770 -0.114742
v -0.366594 1.210160 -0.116803
v -0.366594 1.210160 -0.116803
v -0.365826 1.129860 -0.060668
v -0.359451 1.127980 -0.051273
v -0.403441 1.184780 -0.085718
v -0.403055 1.135620 -0.051341
v -0.397468 1.135400 -0.060718
v -0.397468 1.135400 -0.060718
v -0.397859 1.185160 -0.095508
v -0.403441 1.184780 -0.085718
v -0.403055 1.135620 -0.051341
v -0.359451 1.127980 -0.051273
v -0.365826 1.129860 -0.060668
v -0.365826 1.129860 -0.060668
v -0.397468 1.135400 -0.060718
v -0.403055 1.135620 -0.051341
v -0.472383 1.189420 -0.080618
v -0.403441 1.184780 -0.085718
v -0.397859 1.185160 -0.095508
v -0.397859 1.185160 -0.095508
v -0.466763 1.189790 -0.090411
v -0.472383 1.189420 -0.080618
v -0.361697 1.363170 -0.215684
v -0.404817 1.360210 -0.208389
v -0.399164 1.351510 -0.211833
v -0.399164 1.351510 -0.211833
v -0.367965 1.353650 -0.217112
v -0.361697 1.363170 -0.215684
v -0.404396 1.306600 -0.170901
v -0.472383 1.311070 -0.165800
v -0.466763 1.301620 -0.168716
v -0.466763 1.301620 -0.168716
v -0.398738 1.297150 -0.173820
v -0.404396 1.306600 -0.170901
v -0.472383 1.227180 -0.107060
v -0.472383 1.189420 -0.080618
v -0.466763 1.189790 -0.090411
v -0.466763 1.189790 -0.090411
v -0.466763 1.217680 -0.109936
v -0.472383 1.227180 -0.107060
v -0.360317 1.218770 -0.114742
v -0.472383 1.227180 -0.107060
v -0.466763 1.217680 -0.109936
v -0.466763 1.217680 -0.109936
v -0.366594 1.210160 -0.116803
v -0.360317 1.218770 -0.114742
v -0.472383 1.272800 -0.139006
v -0.360778 1.266930 -0.148407
v -0.367147 1.268020 -0.157251
v -0.367147 1.268020 -0.157251
v -0.466763 1.273270 -0.148859
v -0.472383 1.272800 -0.139006
v -0.472383 1.311070 -0.165800
v -0.472383 1.272800 -0.139006
v -0.466763 1.273270 -0.148859
v -0.466763 1.273270 -0.148859
v -0.466763 1.301620 -0.168716
v -0.472383 1.311070 -0.165800
v -0.404817 1.360210 -0.208389
v -0.404396 1.306600 -0.170901
v -0.398738 1.297150 -0.173820
v -0.398738 1.297150 -0.173820
v -0.399164 1.351510 -0.211833
v -0.404817 1.360210 -0.208389
v -0.360778 1.266930 -0.148407
v -0.361697 1.363170 -0.215684
v -0.367965 1.353650 -0.217112
v -0.367965 1.353650 -0.217112
v -0.367147 1.268020 -0.157251
v -0.360778 1.266930 -0.148407
vt 0.8012 0.3647
vt 0.8346 0.3647
vt 0.8012 0.6032
vt 0.8346 0.6032
vt 0.8627 0.3647
vt 0.8627 0.6032
vt 0.5808 0.8019
vt 0.7354 0.7727
vt 0.7354 0.8050
vt 0.7354 0.7727
vt 0.5808 0.8019
vt 0.5808 0.7699
vt 0.5820 0.7108
vt 0.7331 0.6821
vt 0.7331 0.7135
vt 0.7331 0.6821
vt 0.5820 0.7108
vt 0.5820 0.6779
vt 0.3228 0.5180
vt 0.3191 0.5018
vt 0.2935 0.5177
vt 0.2975 0.5016
vt 0.1850 0.5175
vt 0.1927 0.5030
vt 0.3391 0.5174
vt 0.3346 0.5032
vt 0.2935 0.5177
vt 0.2975 0.5016
vt 0.3228 0.5180
vt 0.3191 0.5018
vt 0.2935 0.5177
vt 0.2975 0.5016
vt 0.3228 0.5180
vt 0.3191 0.5018
vt 0.3391 0.5174
vt 0.3346 0.5032
vt 0.1850 0.5175
vt 0.1927 0.5030
vt 0.1850 0.5175
vt 0.1927 0.5030
vt 0.3391 0.5174
vt 0.3346 0.5032
vt 0.3391 0.5174
vt 0.3346 0.5032
vt 0.1850 0.5175
vt 0.1927 0.5030
vt 0.3228 0.5180
vt 0.3191 0.5018
vt 0.2935 0.5177
vt 0.2975 0.5016
vt 0.4645 0.7060
vt 0.4640 0.6160
vt 0.4861 0.6761
vt 0.4858 0.6203
vt 0.5337 0.6773
vt 0.5337 0.7086
vt 0.5337 0.7710
vt 0.5337 0.8028
vt 0.4649 0.7709
vt 0.4867 0.8017
vt 0.4870 0.8627
vt 0.4654 0.8669
vt 0.2438 0.5164
vt 0.1770 0.5022
vt 0.1732 0.5169
vt 0.1770 0.5022
vt 0.2438 0.5164
vt 0.2401 0.5024
vt 0.2736 0.5162
vt 0.3043 0.5033
vt 0.3106 0.5176
vt 0.3043 0.5033
vt 0.2736 0.5162
vt 0.2727 0.5028
vt 0.3193 0.5175
vt 0.3433 0.5026
vt 0.3470 0.5180
vt 0.3433 0.5026
vt 0.3193 0.5175
vt 0.3234 0.5022
vt 0.1971 0.5177
vt 0.2313 0.5019
vt 0.2291 0.5177
vt 0.2313 0.5019
vt 0.1971 0.5177
vt 0.1991 0.5019
vt 0.3470 0.5180
vt 0.3234 0.5022
vt 0.3193 0.5175
vt 0.3234 0.5022
vt 0.3470 0.5180
vt 0.3433 0.5026
vt 0.2291 0.5177
vt 0.1991 0.5019
vt 0.1971 0.5177
vt 0.1991 0.5019
vt 0.2291 0.5177
vt 0.2313 0.5019
vt 0.2812 0.5171
vt 0.3055 0.5022
vt 0.3099 0.5170
vt 0.3055 0.5022
vt 0.2812 0.5171
vt 0.2843 0.5020
vt 0.3401 0.5158
vt 0.2734 0.5033
vt 0.2706 0.5161
vt 0.2734 0.5033
vt 0.3401 0.5158
vt 0.3365 0.5032
vt 0.2706 0.5161
vt 0.3365 0.5032
vt 0.3401 0.5158
vt 0.3365 0.5032
vt 0.2706 0.5161
vt 0.2734 0.5033
vt 0.3099 0.5170
vt 0.2843 0.5020
vt 0.2812 0.5171
vt 0.2843 0.5020
vt 0.3099 0.5170
vt 0.3055 0.5022
vt 0.3106 0.5176
vt 0.2727 0.5028
vt 0.2736 0.5162
vt 0.2727 0.5028
vt 0.3106 0.5176
vt 0.3043 0.5033
vt 0.2438 0.5164
vt 0.1770 0.5022
vt 0.1732 0.5169
vt 0.1770 0.5022
vt 0.2438 0.5164
vt 0.2401 0.5024
vt 0.5808 0.8019
vt 0.7354 0.8050
vt 0.7354 0.7727
vt 0.7354 0.7727
vt 0.5808 0.7699
vt 0.5808 0.8019
vt 0.5820 0.7108
vt 0.7331 0.7135
vt 0.7331 0.6821
vt 0.7331 0.6821
vt 0.5820 0.6779
vt 0.5820 0.7108
vt 0.3228 0.5180
vt 0.2935 0.5177
vt 0.3191 0.5018
vt 0.2975 0.5016
vt 0.1850 0.5175
vt 0.3391 0.5174
vt 0.1927 0.5030
vt 0.3346 0.5032
vt 0.2935 0.5177
vt 0.3228 0.5180
vt 0.2975 0.5016
vt 0.3191 0.5018
vt 0.2935 0.5177
vt 0.3228 0.5180
vt 0.2975 0.5016
vt 0.3191 0.5018
vt 0.3391 0.5174
vt 0.1850 0.5175
vt 0.3346 0.5032
vt 0.1927 0.5030
vt 0.1850 0.5175
vt 0.3391 0.5174
vt 0.1927 0.5030
vt 0.3346 0.5032
vt 0.3391 0.5174
vt 0.1850 0.5175
vt 0.3346 0.5032
vt 0.1927 0.5030
vt 0.3228 0.5180
vt 0.2935 0.5177
vt 0.3191 0.5018
vt 0.2975 0.5016
vt 0.4645 0.7060
vt 0.4861 0.6761
vt 0.4640 0.6160
vt 0.4858 0.6203
vt 0.5337 0.6773
vt 0.5337 0.7086
vt 0.5337 0.7710
vt 0.4649 0.7709
vt 0.5337 0.8028
vt 0.4867 0.8017
vt 0.4870 0.8627
vt 0.4654 0.8669
vt 0.2438 0.5164
vt 0.3621 0.5167
vt 0.3620 0.5027
vt 0.3620 0.5027
vt 0.2401 0.5024
vt 0.2438 0.5164
vt 0.3176 0.5180
vt 0.3035 0.5180
vt 0.3043 0.5033
vt 0.3043 0.5033
vt 0.3190 0.5031
vt 0.3176 0.5180
vt 0.3193 0.5175
vt 0.3470 0.5180
vt 0.3433 0.5026
vt 0.3433 0.5026
vt 0.3234 0.5022
vt 0.3193 0.5175
vt 0.1971 0.5177
vt 0.2291 0.5177
vt 0.2313 0.5019
vt 0.2313 0.5019
vt 0.1991 0.5019
vt 0.1971 0.5177
vt 0.3470 0.5180
vt 0.3193 0.5175
vt 0.3234 0.5022
vt 0.3234 0.5022
vt 0.3433 0.5026
vt 0.3470 0.5180
vt 0.2291 0.5177
vt 0.1971 0.5177
vt 0.1991 0.5019
vt 0.1991 0.5019
vt 0.2313 0.5019
vt 0.2291 0.5177
vt 0.2869 0.5175
vt 0.3157 0.5176
vt 0.3121 0.5020
vt 0.3121 0.5020
vt 0.2908 0.5019
vt 0.2869 0.5175
vt 0.3401 0.5158
vt 0.2706 0.5161
vt 0.2734 0.5033
vt 0.2734 0.5033
vt 0.3365 0.5032
vt 0.3401 0.5158
vt 0.3418 0.5160
vt 0.2706 0.5161
vt 0.2734 0.5033
vt 0.2734 0.5033
vt 0.3365 0.5032
vt 0.3418 0.5160
vt 0.3099 0.5170
vt 0.2812 0.5171
vt 0.2843 0.5020
vt 0.2843 0.5020
vt 0.3055 0.5022
vt 0.3099 0.5170
vt 0.3106 0.5176
vt 0.2736 0.5162
vt 0.2727 0.5028
vt 0.2727 0.5028
vt 0.3043 0.5033
vt 0.3106 0.5176
vt 0.2438 0.5164
vt 0.1732 0.5169
vt 0.1770 0.5022
vt 0.1770 0.5022
vt 0.2401 0.5024
vt 0.2438 0.5164
vn 0.0000 0.0000 1.0000
vn -0.2160 0.5599 0.7999
vn -0.2160 0.5600 0.7998
vn -0.2170 0.5599 0.7997
vn -0.2170 0.5600 0.7996
vn 0.7248 0.3951 0.5644
vn 0.7251 0.3950 0.5640
vn -0.0932 0.9768 -0.1929
vn -0.0857 0.9659 -0.2442
vn -0.8609 0.2918 0.4168
vn -0.8609 0.2917 0.4168
vn -0.8451 0.3067 0.4379
vn -0.8451 0.3066 0.4379
vn -0.1036 -0.4485 0.8878
vn -0.1011 -0.4573 0.8835
vn -0.0917 0.9789 -0.1826
vn -0.0932 0.9806 -0.1724
vn -0.1045 -0.4505 0.8866
vn -0.1025 -0.4574 0.8833
vn 0.7985 0.3453 0.4931
vn -0.0988 0.5708 0.8151
vn -0.0987 0.5707 0.8152
vn -0.0987 0.5708 0.8151
vn -0.0988 0.5709 0.8151
vn 0.7233 0.3910 0.5692
vn 0.7234 0.3909 0.5691
vn -0.8117 0.3390 0.4756
vn -0.8116 0.3390 0.4758
vn -0.1719 0.9819 0.0798
vn -0.1718 0.9819 0.0793
vn -0.0728 0.9941 0.0801
vn -0.0727 0.9942 0.0793
vn -0.1784 -0.2598 0.9490
vn -0.0549 -0.2645 0.9628
vn -0.0549 -0.2646 0.9628
vn -0.8117 0.3351 0.4785
vn -0.8115 0.3351 0.4787
vn -0.0462 -0.2644 0.9633
vn -0.0462 -0.2643 0.9633
vn -0.0591 0.9950 0.0801
vn -0.0593 0.9949 0.0813
vn -0.8114 0.3352 0.4788
vn -0.8117 0.3351 0.4784
vn -0.8116 0.3391 0.4758
vn -0.8117 0.3390 0.4757
vn 0.7235 0.3909 0.5690
vn 0.2160 0.5600 0.7999
vn 0.2160 0.5600 0.7998
vn 0.2170 0.5599 0.7997
vn 0.2170 0.5600 0.7996
vn -0.7249 0.3951 0.5643
vn -0.7252 0.3950 0.5640
vn 0.0932 0.9768 -0.1929
vn 0.0857 0.9659 -0.2441
vn 0.8609 0.2918 0.4168
vn 0.8451 0.3067 0.4379
vn 0.8452 0.3066 0.4379
vn 0.1036 -0.4485 0.8878
vn 0.1011 -0.4574 0.8835
vn 0.0917 0.9789 -0.1826
vn 0.0932 0.9806 -0.1724
vn 0.1045 -0.4505 0.8866
vn 0.1025 -0.4574 0.8833
vn -0.7985 0.3452 0.4931
vn 0.0988 0.5708 0.8151
vn 0.0987 0.5707 0.8152
vn 0.0987 0.5708 0.8151
vn 0.0988 0.5709 0.8151
vn -0.7233 0.3910 0.5692
vn -0.7234 0.3909 0.5691
vn 0.8117 0.3390 0.4757
vn 0.8115 0.3391 0.4759
vn 0.1719 0.9819 0.0799
vn 0.1718 0.9819 0.0793
vn 0.0728 0.9941 0.0801
vn 0.0727 0.9942 0.0793
vn 0.1784 -0.2598 0.9490
vn 0.0549 -0.2645 0.9628
vn 0.0549 -0.2646 0.9628
vn 0.8117 0.3351 0.4785
vn 0.8115 0.3351 0.4787
vn 0.0462 -0.2643 0.9633
vn 0.0591 0.9950 0.0801
vn 0.0593 0.9949 0.0813
vn 0.8114 0.3352 0.4788
vn 0.8117 0.3351 0.4784
vn 0.8116 0.3390 0.4757
s off
f 627/627/200 628/628/200 629/629/200
f 630/630/200 629/629/200 628/628/200
f 628/628/200 631/631/200 630/630/200
f 632/632/200 630/630/200 631/631/200
f 633/633/201 634/634/201 635/635/201
f 636/636/202 637/637/202 638/638/202
f 639/639/203 640/640/203 641/641/203
f 642/642/204 643/643/204 644/644/204
f 645/645/205 646/646/205 647/647/205
f 648/648/206 647/647/206 646/646/206
f 649/649/207 650/650/207 651/651/207
f 652/652/208 651/651/208 650/650/208
f 653/653/209 654/654/209 655/655/209
f 656/656/210 655/655/210 654/654/210
f 657/657/211 658/658/211 659/659/211
f 660/660/212 659/659/212 658/658/212
f 661/661/213 662/662/213 663/663/213
f 664/664/214 663/663/214 662/662/214
f 665/665/215 666/666/215 667/667/215
f 668/668/216 667/667/216 666/666/216
f 669/669/217 670/670/217 671/671/217
f 672/672/218 671/671/218 670/670/218
f 673/673/219 674/674/219 675/675/219
f 676/676/219 675/675/219 674/674/219
f 677/677/220 678/678/220 679/679/220
f 679/679/221 678/678/221 680/680/221
f 681/681/221 682/682/221 679/679/221
f 677/677/222 679/679/222 682/682/222
f 683/683/223 684/684/223 685/685/223
f 686/686/221 685/685/221 684/684/221
f 687/687/220 685/685/220 686/686/220
f 688/688/220 685/685/220 687/687/220
f 689/689/224 690/690/224 691/691/224
f 692/692/225 693/693/225 694/694/225
f 695/695/226 696/696/226 697/697/226
f 698/698/227 699/699/227 700/700/227
f 701/701/228 702/702/228 703/703/228
f 704/704/229 705/705/229 706/706/229
f 707/707/230 708/708/230 709/709/230
f 710/710/231 711/711/231 712/712/231
f 713/713/232 714/714/232 715/715/232
f 716/716/232 717/717/232 718/718/232
f 719/719/233 720/720/233 721/721/233
f 722/722/234 723/723/234 724/724/234
f 725/725/235 726/726/235 727/727/235
f 728/728/236 729/729/236 730/730/236
f 731/731/237 732/732/237 733/733/237
f 734/734/238 735/735/238 736/736/238
f 737/737/239 738/738/239 739/739/239
f 740/740/240 741/741/240 742/742/240
f 743/743/241 744/744/241 745/745/241
f 746/746/242 747/747/242 748/748/242
f 749/749/243 750/750/243 751/751/243
f 752/752/244 753/753/244 754/754/244
f 755/755/245 756/756/245 757/757/245
f 758/758/225 759/759/225 760/760/225
f 761/761/246 762/762/246 763/763/246
f 764/764/247 765/765/247 766/766/247
f 767/767/248 768/768/248 769/769/248
f 770/770/249 771/771/249 772/772/249
f 773/773/250 774/774/250 775/775/250
f 776/776/251 775/775/251 774/774/251
f 777/777/252 778/778/252 779/779/252
f 780/780/253 779/779/253 778/778/253
f 781/781/254 782/782/254 783/783/254
f 784/784/254 783/783/254 782/782/254
f 785/785/255 786/786/255 787/787/255
f 788/788/256 787/787/256 786/786/256
f 789/789/257 790/790/257 791/791/257
f 792/792/258 791/791/258 790/790/258
f 793/793/259 794/794/259 795/795/259
f 796/796/260 795/795/260 794/794/260
f 797/797/261 798/798/261 799/799/261
f 800/800/262 799/799/262 798/798/262
f 801/801/263 802/802/263 803/803/263
f 804/804/263 803/803/263 802/802/263
f 805/805/264 806/806/264 807/807/264
f 806/806/265 808/808/265 807/807/265
f 809/809/265 806/806/265 810/810/265
f 805/805/266 810/810/266 806/806/266
f 811/811/267 812/812/267 813/813/267
f 814/814/265 813/813/265 812/812/265
f 815/815/264 814/814/264 812/812/264
f 816/816/264 815/815/264 812/812/264
f 817/817/268 818/818/268 819/819/268
f 820/820/269 821/821/269 822/822/269
f 823/823/270 824/824/270 825/825/270
f 826/826/271 827/827/271 828/828/271
f 829/829/272 830/830/272 831/831/272
f 832/832/273 833/833/273 834/834/273
f 835/835/274 836/836/274 837/837/274
f 838/838/275 839/839/275 840/840/275
f 841/841/276 842/842/276 843/843/276
f 844/844/276 845/845/276 846/846/276
f 847/847/277 848/848/277 849/849/277
f 850/850/278 851/851/278 852/852/278
f 853/853/279 854/854/279 855/855/279
f 856/856/280 857/857/280 858/858/280
f 859/859/281 860/860/281 861/861/281
f 862/862/281 863/863/281 864/864/281
f 865/865/282 866/866/282 867/867/282
f 868/868/283 869/869/283 870/870/283
f 871/871/284 872/872/284 873/873/284
f 874/874/285 875/875/285 876/876/285
f 877/877/286 878/878/286 879/879/286
f 880/880/286 881/881/286 882/882/286
f 883/883/269 884/884/269 885/885/269
f 886/886/269 887/887/269 888/888/269
