# Blender v2.72 (sub 0) OBJ File: 'curved chest.blend'
# www.blender.org
mtllib curved chest.mtl
o Plane
v 0.251471 0.003150 0.156351
v 0.275829 0.003150 0.156351
v 0.251471 0.211449 0.156351
v 0.275829 0.211449 0.156351
v 0.275829 0.003150 0.134891
v 0.275829 0.211449 0.134891
v -0.249191 0.003150 0.156351
v -0.273548 0.003150 0.156351
v -0.249191 0.211449 0.156351
v -0.273548 0.211449 0.156351
v -0.273548 0.003150 0.134891
v -0.273548 0.211449 0.134891
v 0.251471 0.003150 -0.156351
v 0.275829 0.003150 -0.156351
v 0.251471 0.211449 -0.156351
v 0.275829 0.211449 -0.156351
v 0.275829 0.003150 -0.134891
v 0.275829 0.211449 -0.134891
v -0.249191 0.003150 -0.156351
v -0.273548 0.003150 -0.156351
v -0.249191 0.211449 -0.156351
v -0.273548 0.211449 -0.156351
v -0.273548 0.003150 -0.134891
v -0.273548 0.211449 -0.134891
v 0.251471 0.219281 0.156351
v 0.275829 0.219281 0.156351
v 0.251471 0.403055 -0.001533
v 0.275829 0.403055 -0.001533
v 0.275829 0.219281 0.134891
v 0.275829 0.381595 -0.001533
v -0.249191 0.219281 0.156351
v -0.273548 0.219281 0.156351
v -0.249191 0.404588 -0.001533
v -0.273548 0.404588 -0.001533
v -0.273548 0.219281 0.134891
v -0.273548 0.383128 -0.001533
v 0.251471 0.219281 -0.156351
v 0.275829 0.219281 -0.156351
v 0.251471 0.403055 -0.001533
v 0.275829 0.403055 -0.001533
v 0.275829 0.219281 -0.134891
v 0.275829 0.381595 -0.001533
v -0.249191 0.219281 -0.156351
v -0.273548 0.219281 -0.156351
v -0.249191 0.404588 -0.001533
v -0.273548 0.404588 -0.001533
v -0.273548 0.219281 -0.134891
v -0.273548 0.383128 -0.001533
v 0.251471 0.358610 0.117952
v 0.275829 0.358610 0.117952
v 0.275829 0.343435 0.102778
v 0.251471 0.351668 -0.123283
v 0.275829 0.351668 -0.123283
v 0.275829 0.338114 -0.106644
v -0.249191 0.358610 0.117952
v -0.273548 0.358610 0.117952
v -0.273548 0.343435 0.102778
v -0.249191 0.351668 -0.123283
v -0.273548 0.351668 -0.123283
v -0.273548 0.336493 -0.108108
v 0.251471 0.287413 0.152480
v 0.275829 0.287413 0.152480
v 0.275829 0.279825 0.134163
v 0.275829 0.391562 0.062808
v 0.275829 0.373245 0.055221
v 0.251471 0.391562 0.062808
v 0.275829 0.389624 -0.065474
v 0.275829 0.372118 -0.057154
v 0.251471 0.389624 -0.065474
v 0.251471 0.291606 -0.152080
v 0.275829 0.291606 -0.152080
v 0.275829 0.284829 -0.133030
v -0.249191 0.293361 -0.152659
v -0.273548 0.293361 -0.152659
v -0.273548 0.286140 -0.132451
v -0.273548 0.393185 -0.065164
v -0.273548 0.373155 -0.057464
v -0.249191 0.393185 -0.065164
v -0.273548 0.393407 0.064530
v -0.273548 0.372934 0.058098
v -0.249191 0.393407 0.064530
v -0.249191 0.290501 0.154116
v -0.273548 0.290501 0.154116
v -0.273548 0.282869 0.134059
vt 0.517258 0.991163
vt 0.517258 0.970348
vt 0.695256 0.970348
vt 0.695256 0.991163
vt 0.517258 0.952010
vt 0.695256 0.952010
vt 0.571567 0.952933
vt 0.749565 0.952933
vt 0.749565 0.973747
vt 0.571567 0.973747
vt 0.749565 0.992085
vt 0.571567 0.992085
vt 0.559760 0.942971
vt 0.737759 0.942971
vt 0.737759 0.963785
vt 0.559760 0.963785
vt 0.737759 0.982123
vt 0.559760 0.982123
vt 0.479477 0.985923
vt 0.479477 0.965109
vt 0.657476 0.965109
vt 0.657476 0.985923
vt 0.479477 0.946771
vt 0.657476 0.946771
vt 0.650756 0.991163
vt 0.650756 0.970348
vt 0.561757 0.970348
vt 0.561757 0.952010
vt 0.705066 0.952933
vt 0.705066 0.973747
vt 0.616066 0.973747
vt 0.616066 0.992085
vt 0.693259 0.942971
vt 0.693259 0.963785
vt 0.604260 0.963785
vt 0.604260 0.982123
vt 0.612976 0.985923
vt 0.612976 0.965109
vt 0.523977 0.965109
vt 0.523977 0.946771
vt 0.606257 0.970348
vt 0.606257 0.952010
vt 0.650756 0.952010
vt 0.561757 0.991163
vt 0.606257 0.991163
vt 0.693259 0.982123
vt 0.648760 0.982123
vt 0.648760 0.963785
vt 0.604260 0.942971
vt 0.648760 0.942971
vt 0.705066 0.992085
vt 0.660566 0.992085
vt 0.660566 0.973747
vt 0.616066 0.952933
vt 0.660566 0.952933
vt 0.568477 0.965109
vt 0.568477 0.946771
vt 0.612976 0.946771
vt 0.523977 0.985923
vt 0.568477 0.985923
usemtl None
s off
f 1/1 2/2 4/3 3/4
f 4/3 2/2 5/5 6/6
f 7/7 9/8 10/9 8/10
f 10/9 12/11 11/12 8/10
f 13/13 15/14 16/15 14/16
f 16/15 18/17 17/18 14/16
f 19/19 20/20 22/21 21/22
f 22/21 20/20 23/23 24/24
f 66/25 64/26 28/3 27/4
f 62/27 26/2 29/5 63/28
f 81/29 33/8 34/9 79/30
f 83/31 84/32 35/12 32/10
f 69/33 39/14 40/15 67/34
f 71/35 72/36 41/18 38/16
f 78/37 76/38 46/21 45/22
f 74/39 44/20 47/23 75/40
f 64/26 50/41 51/42 65/43
f 61/44 62/27 50/41 49/45
f 67/34 68/46 54/47 53/48
f 70/49 52/50 53/48 71/35
f 79/30 80/51 57/52 56/53
f 82/54 55/55 56/53 83/31
f 76/38 59/56 60/57 77/58
f 73/59 74/39 59/56 58/60
f 25/1 26/2 62/27 61/44
f 50/41 62/27 63/28 51/42
f 28/3 64/26 65/43 30/6
f 49/45 50/41 64/26 66/25
f 40/15 42/17 68/46 67/34
f 52/50 69/33 67/34 53/48
f 37/13 70/49 71/35 38/16
f 53/48 54/47 72/36 71/35
f 43/19 44/20 74/39 73/59
f 59/56 74/39 75/40 60/57
f 46/21 76/38 77/58 48/24
f 58/60 59/56 76/38 78/37
f 34/9 36/11 80/51 79/30
f 55/55 81/29 79/30 56/53
f 31/7 82/54 83/31 32/10
f 56/53 57/52 84/32 83/31
o Cube_Cube.001
v -0.270000 0.004258 0.151722
v -0.270000 0.004258 -0.151722
v 0.270000 0.004258 -0.151722
v 0.270000 0.004258 0.151722
v -0.270000 0.211894 0.151722
v -0.270000 0.211894 -0.151722
v 0.270000 0.211894 -0.151722
v 0.270000 0.211894 0.151722
v -0.270000 0.215073 0.151722
v -0.270000 0.215073 -0.151722
v 0.270000 0.215073 -0.151722
v 0.270000 0.215073 0.151722
v -0.270000 0.274307 0.151722
v -0.270000 0.274307 -0.151722
v 0.270000 0.274307 -0.151722
v 0.270000 0.274307 0.151722
v -0.032184 0.163833 0.160662
v 0.032184 0.163833 0.160662
v -0.032184 0.228201 0.160662
v 0.032184 0.228201 0.160662
v 0.169131 0.241240 -0.158933
v 0.233499 0.241240 -0.158933
v 0.169131 0.187878 -0.158933
v 0.233499 0.187878 -0.158933
v -0.233499 0.241240 -0.158933
v -0.169131 0.241240 -0.158933
v -0.233499 0.187878 -0.158933
v -0.169131 0.187878 -0.158933
v -0.270000 0.215073 0.091033
v -0.270000 0.215073 0.030344
v -0.270000 0.215073 -0.030344
v -0.270000 0.215073 -0.091033
v 0.270000 0.215073 -0.091033
v 0.270000 0.215073 -0.030344
v 0.270000 0.215073 0.030344
v 0.270000 0.215073 0.091033
v -0.270000 0.366279 0.091033
v -0.270000 0.397550 0.030344
v -0.270000 0.397550 -0.030344
v -0.270000 0.366279 -0.091033
v 0.270000 0.366279 -0.091033
v 0.270000 0.397550 -0.030344
v 0.270000 0.397550 0.030344
v 0.270000 0.366279 0.091033
vt 0.746648 0.831338
vt 0.746648 0.596070
vt 0.907633 0.596070
vt 0.907633 0.831338
vt 0.581410 0.918654
vt 0.581410 0.499979
vt 0.742395 0.499979
vt 0.742395 0.918654
vt 0.908213 0.522452
vt 0.908213 0.757720
vt 0.747228 0.757720
vt 0.747228 0.522452
vt 0.736387 0.424418
vt 0.736387 0.843093
vt 0.575401 0.843093
vt 0.575401 0.424418
vt 0.746479 0.852203
vt 0.511211 0.852203
vt 0.511211 0.433528
vt 0.746479 0.433528
vt 0.513715 0.428052
vt 0.748983 0.428052
vt 0.748983 0.846727
vt 0.513715 0.846727
vt 0.418953 0.463667
vt 0.000277 0.463667
vt 0.000277 0.416613
vt 0.418953 0.416613
vt 0.722903 0.439428
vt 0.792355 0.439452
vt 0.792237 0.779805
vt 0.722786 0.779781
vt 0.491688 0.779701
vt 0.491806 0.439349
vt 0.529140 0.439362
vt 0.529022 0.779714
vt 0.741793 0.516631
vt 0.741793 0.440830
vt 0.815777 0.440830
vt 0.930652 0.516631
vt 0.829689 0.439465
vt 0.829571 0.779818
vt 0.740163 0.524933
vt 0.740163 0.450367
vt 0.812942 0.450367
vt 0.925946 0.524933
vt 0.573761 0.936762
vt 0.623667 0.936762
vt 0.623667 0.986668
vt 0.573761 0.986668
vt 0.465441 0.986668
vt 0.465441 0.936762
vt 0.506814 0.936762
vt 0.506814 0.986668
vt 0.515603 0.996113
vt 0.515603 0.946207
vt 0.556976 0.946207
vt 0.556976 0.996113
vt 0.740163 0.823199
vt 0.740163 0.748632
vt 0.925945 0.748632
vt 0.812942 0.823199
vt 0.740163 0.674066
vt 0.964367 0.674066
vt 0.740163 0.599499
vt 0.964367 0.599499
vt 0.741793 0.819835
vt 0.741793 0.744034
vt 0.930652 0.744034
vt 0.815777 0.819835
vt 0.741793 0.668233
vt 0.969709 0.668233
vt 0.741793 0.592432
vt 0.969709 0.592432
vt 0.598591 0.439386
vt 0.598474 0.779738
vt 0.641622 0.439400
vt 0.641504 0.779753
vt 0.679873 0.439414
vt 0.679755 0.779766
vt 0.418953 0.651881
vt 0.000277 0.651882
vt 0.000277 0.604828
vt 0.418953 0.604827
vt 0.000277 0.557774
vt 0.418953 0.557774
vt 0.000277 0.510721
vt 0.418953 0.510720
usemtl None
s off
f 89/61 90/62 86/63 85/64
f 90/65 91/66 87/67 86/68
f 91/69 92/70 88/71 87/72
f 92/73 89/74 85/75 88/76
f 85/77 86/78 87/79 88/80
f 92/81 91/82 90/83 89/84
f 117/85 116/86 94/87 95/88
f 125/89 99/90 98/91 124/92
f 93/93 96/94 100/95 97/96
f 117/97 95/98 99/99 125/100
f 95/101 94/102 98/91 99/90
f 113/103 93/104 97/105 121/106
f 101/107 102/108 104/109 103/110
f 105/111 106/112 108/113 107/114
f 109/115 110/116 112/117 111/118
f 94/119 116/120 124/121 98/122
f 116/120 115/123 123/124 124/121
f 115/123 114/125 122/126 123/124
f 114/125 113/103 121/106 122/126
f 96/127 120/128 128/129 100/130
f 120/128 119/131 127/132 128/129
f 119/131 118/133 126/134 127/132
f 118/133 117/97 125/100 126/134
f 100/95 128/135 121/136 97/96
f 128/135 127/137 122/138 121/136
f 127/137 126/139 123/140 122/138
f 126/139 125/89 124/92 123/140
f 96/141 93/142 113/143 120/144
f 120/144 113/143 114/145 119/146
f 119/146 114/145 115/147 118/148
f 118/148 115/147 116/86 117/85
