# 3ds Max Wavefront OBJ Exporter v0.97b - (c)2007 guruware
# File Created: 03.08.2014 15:11:14

mtllib Campfire239.mtl

#
# object Mesh_0239
#

v  -0.300406 0.013862 -0.334576
v  -0.297963 0.033113 -0.300042
v  -0.330676 0.013862 -0.299990
v  -0.360641 0.006312 -0.315702
v  -0.320966 0.003509 -0.362721
v  -0.367240 0.012467 -0.333525
v  -0.342115 0.008027 -0.370214
v  -0.356675 0.026873 -0.353710
v  0.035870 0.914675 0.028340
v  0.059741 0.909227 0.036582
v  0.081513 0.908733 0.030219
v  0.025555 0.925733 0.011784
v  0.085163 0.915229 0.014226
v  0.036646 0.932984 -0.000331
v  0.074289 0.909496 -0.016430
v  0.053043 0.920987 -0.022374
v  0.334577 0.013862 -0.300406
v  0.300042 0.033113 -0.297963
v  0.299990 0.013862 -0.330676
v  0.315702 0.006312 -0.360641
v  0.362721 0.003509 -0.320966
v  0.333526 0.012467 -0.367240
v  0.370214 0.008027 -0.342115
v  0.353710 0.026873 -0.356675
v  -0.028340 0.914675 0.035870
v  -0.036582 0.909227 0.059741
v  -0.030219 0.908733 0.081513
v  -0.011784 0.925733 0.025555
v  -0.014226 0.915229 0.085163
v  0.000331 0.932984 0.036646
v  0.016430 0.909496 0.074289
v  0.022374 0.920987 0.053043
v  -0.334577 0.013862 0.300406
v  -0.300042 0.033113 0.297963
v  -0.299990 0.013862 0.330676
v  -0.315702 0.006312 0.360641
v  -0.362721 0.003509 0.320966
v  -0.333525 0.012467 0.367240
v  -0.370214 0.008027 0.342115
v  -0.353710 0.026873 0.356675
v  0.028340 0.914675 -0.035870
v  0.036582 0.909227 -0.059741
v  0.030219 0.908733 -0.081513
v  0.011784 0.925733 -0.025555
v  0.014226 0.915229 -0.085163
v  -0.000331 0.932984 -0.036646
v  -0.016430 0.909496 -0.074289
v  -0.022374 0.920987 -0.053043
v  0.300406 0.013862 0.334577
v  0.297963 0.033113 0.300042
v  0.330676 0.013862 0.299990
v  0.360641 0.006312 0.315702
v  0.320966 0.003509 0.362721
v  0.367240 0.012467 0.333526
v  0.342115 0.008027 0.370214
v  0.356675 0.026873 0.353710
v  -0.035870 0.914675 -0.028340
v  -0.059741 0.909227 -0.036582
v  -0.081513 0.908733 -0.030219
v  -0.025555 0.925733 -0.011784
v  -0.085163 0.915229 -0.014226
v  -0.036646 0.932984 0.000331
v  -0.074289 0.909496 0.016430
v  -0.053043 0.920987 0.022374
v  -0.004295 0.119348 -0.027275
v  0.003006 0.085818 -0.032614
v  0.026971 0.070559 -0.044425
v  0.005482 0.139511 -0.029423
v  0.051849 0.083413 -0.064274
v  0.032579 0.151117 -0.044254
v  0.055959 0.139027 -0.064455
v  0.060467 0.114094 -0.072973
v  -0.154065 0.093639 -0.299963
v  -0.158869 0.123542 -0.299379
v  -0.152607 0.149433 -0.320077
v  -0.134061 0.080928 -0.323625
v  -0.130154 0.160128 -0.343928
v  -0.109585 0.094571 -0.351392
v  -0.097071 0.120427 -0.358525
v  -0.107313 0.151411 -0.353390
v  0.052852 0.157264 -0.008945
v  0.053160 0.148497 -0.035492
v  0.067261 0.161329 -0.057514
v  0.065974 0.187053 -0.066970
v  0.039811 0.184066 -0.000011
v  0.056228 0.211784 -0.061063
v  0.039131 0.210652 -0.011780
v  0.042406 0.219813 -0.034529
v  -0.339867 0.080299 -0.155166
v  -0.342803 0.091039 -0.129759
v  -0.359721 0.114332 -0.124776
v  -0.371172 0.138470 -0.138797
v  -0.345268 0.096726 -0.189545
v  -0.366744 0.149628 -0.162470
v  -0.352584 0.117352 -0.198403
v  -0.356853 0.141367 -0.186887
v  0.020767 0.084220 0.015609
v  0.011137 0.077602 -0.009792
v  0.020405 0.088876 -0.035000
v  0.022003 0.114951 -0.043387
v  0.017231 0.112383 0.028359
v  0.020159 0.140643 -0.034552
v  0.018885 0.139347 0.017592
v  0.017082 0.149325 -0.004977
v  -0.404597 0.101062 -0.002135
v  -0.397316 0.110231 0.023012
v  -0.406410 0.136067 0.033182
v  -0.415966 0.163033 0.023598
v  -0.416359 0.120792 -0.033011
v  -0.416538 0.174791 -0.000192
v  -0.421294 0.143091 -0.038999
v  -0.416524 0.166532 -0.026538
v  -0.030664 0.111832 0.053421
v  -0.041007 0.078881 0.049763
v  -0.064939 0.065154 0.036144
v  -0.036742 0.132476 0.046816
v  -0.094492 0.079832 0.026692
v  -0.063425 0.145820 0.032712
v  -0.093827 0.135542 0.024292
v  -0.104786 0.111167 0.024862
v  -0.175706 0.089607 0.328956
v  -0.170898 0.119223 0.333118
v  -0.190124 0.146118 0.339833
v  -0.207149 0.078686 0.325253
v  -0.221778 0.158679 0.334584
v  -0.243014 0.094426 0.320546
v  -0.254433 0.121061 0.314528
v  -0.242773 0.151345 0.320704
v  -0.016732 0.121522 0.385433
v  0.009885 0.134093 0.363881
v  0.008721 0.173339 0.367243
v  -0.019916 0.185001 0.379993
v  -0.042340 0.134024 0.384892
v  -0.045716 0.170496 0.381623
v  0.012804 0.132641 0.067912
v  0.013832 0.094612 0.075592
v  -0.012401 0.077528 0.071024
v  -0.011667 0.139441 0.047263
v  -0.036277 0.091304 0.056972
v  -0.038614 0.123152 0.044297
v  0.050451 0.087275 -0.008309
v  0.028966 0.079525 0.007817
v  0.001897 0.090194 0.006425
v  -0.007239 0.116004 0.008212
v  0.062984 0.115744 -0.007457
v  0.001121 0.141918 0.008449
v  0.051527 0.142362 -0.005022
v  0.030142 0.151510 0.003415
v  0.152901 0.091354 0.405237
v  0.174743 0.101577 0.391531
v  0.186425 0.127475 0.398351
v  0.179261 0.153815 0.411205
v  0.126116 0.109678 0.425919
v  0.156315 0.164735 0.418870
v  0.121215 0.131610 0.433158
v  0.131245 0.155589 0.425950
v  -0.058594 0.157721 0.020903
v  -0.047749 0.148198 0.044849
v  -0.051968 0.159753 0.071253
v  -0.047679 0.185231 0.080489
v  -0.051147 0.185324 0.008622
v  -0.041936 0.210532 0.072221
v  -0.046490 0.211568 0.020254
v  -0.040431 0.219924 0.042741
v  0.361643 0.094349 -0.009388
v  0.353603 0.105927 -0.033279
v  0.366307 0.130088 -0.043694
v  0.381779 0.154309 -0.034511
v  0.380160 0.110020 0.020487
v  0.387105 0.164581 -0.010623
v  0.389852 0.130694 0.026493
v  0.388326 0.155193 0.015313
v  0.342414 0.096239 -0.219043
v  0.312204 0.113322 -0.230289
v  0.321256 0.151668 -0.231025
v  0.348584 0.159479 -0.213396
v  0.357104 0.106721 -0.196982
v  0.361334 0.142955 -0.192347
v  0.061518 0.147926 -0.076772
v  0.061999 0.109438 -0.081737
v  0.069393 0.091078 -0.057056
v  0.057884 0.155285 -0.045084
v  0.071996 0.104588 -0.029344
v  0.067111 0.137463 -0.020640
v  0.293345 0.018138 -0.282475
v  0.298250 0.000000 -0.272575
v  0.260437 0.000000 -0.232768
v  0.361158 0.016562 -0.298769
v  0.355570 0.000000 -0.280514
v  0.394883 0.000000 -0.233915
v  0.241357 0.021369 -0.239820
v  0.305321 0.091725 -0.265610
v  0.358046 0.073405 -0.283989
v  0.408364 0.018127 -0.241656
v  0.432330 0.014058 -0.164282
v  0.414972 0.000000 -0.169459
v  0.281310 0.000000 -0.171180
v  0.263833 0.027588 -0.162720
v  0.270626 0.078552 -0.227970
v  0.290943 0.084269 -0.170518
v  0.339765 0.108778 -0.188726
v  0.392879 0.083151 -0.229054
v  0.313274 0.020100 -0.103311
v  0.327015 0.082587 -0.122531
v  0.317316 0.000000 -0.117956
v  0.369336 0.000000 -0.132638
v  0.375945 0.016757 -0.119782
v  0.370478 0.086970 -0.135538
v  0.416718 0.068362 -0.171636
v  -0.101684 0.018631 -0.400971
v  -0.083868 0.000000 -0.400788
v  -0.068847 0.000000 -0.346156
v  -0.079663 0.019220 -0.462023
v  -0.068746 0.000000 -0.451091
v  0.004090 0.000000 -0.467233
v  -0.079411 0.019062 -0.336430
v  -0.069535 0.086023 -0.404855
v  -0.067920 0.070690 -0.446447
v  0.006133 0.018127 -0.481788
v  0.080948 0.016565 -0.458312
v  0.062757 0.000000 -0.452626
v  0.004279 0.000000 -0.336227
v  0.005361 0.018697 -0.319085
v  -0.052656 0.092235 -0.357301
v  0.007992 0.098097 -0.348372
v  0.020315 0.106899 -0.391782
v  0.022898 0.086628 -0.457008
v  0.082738 0.017765 -0.332894
v  0.072757 0.082354 -0.349816
v  0.065975 0.000000 -0.343452
v  0.084239 0.000000 -0.394223
v  0.098752 0.016757 -0.396779
v  0.081657 0.083751 -0.399341
v  0.065738 0.078943 -0.446899
v  -0.388270 0.018631 -0.113517
v  -0.380846 0.000000 -0.123825
v  -0.328284 0.000000 -0.114052
v  -0.431517 0.019220 -0.170541
v  -0.416051 0.000000 -0.173998
v  -0.389431 0.000000 -0.242341
v  -0.322199 0.017551 -0.098961
v  -0.369558 0.079437 -0.141927
v  -0.410504 0.071953 -0.174369
v  -0.397068 0.018127 -0.253741
v  -0.344863 0.024552 -0.296363
v  -0.342511 0.000000 -0.280468
v  -0.284582 0.000000 -0.163796
v  -0.267099 0.018553 -0.157575
v  -0.329635 0.066492 -0.118805
v  -0.292150 0.076112 -0.171283
v  -0.328077 0.091956 -0.191926
v  -0.373467 0.084268 -0.240598
v  -0.241315 0.018137 -0.230557
v  -0.273406 0.078223 -0.217683
v  -0.253296 0.000000 -0.217459
v  -0.282915 0.000000 -0.262560
v  -0.279274 0.020138 -0.271134
v  -0.299296 0.082547 -0.246588
v  -0.341803 0.075705 -0.272787
v  -0.282475 0.018138 -0.293345
v  -0.272575 0.000000 -0.298250
v  -0.232768 0.000000 -0.260437
v  -0.298769 0.016562 -0.361158
v  -0.280514 0.000000 -0.355570
v  -0.233915 0.000000 -0.394883
v  -0.239820 0.021369 -0.241357
v  -0.265610 0.091725 -0.305321
v  -0.283989 0.073405 -0.358046
v  -0.241656 0.018127 -0.408364
v  -0.164282 0.014058 -0.432330
v  -0.169459 0.000000 -0.414972
v  -0.171180 0.000000 -0.281310
v  -0.162720 0.027588 -0.263833
v  -0.227970 0.078552 -0.270626
v  -0.170518 0.084269 -0.290943
v  -0.188726 0.108778 -0.339765
v  -0.229054 0.083151 -0.392879
v  -0.103311 0.020100 -0.313274
v  -0.122531 0.082587 -0.327015
v  -0.117956 0.000000 -0.317316
v  -0.132638 0.000000 -0.369336
v  -0.119782 0.016757 -0.375945
v  -0.135538 0.086970 -0.370478
v  -0.171636 0.068362 -0.416718
v  -0.400971 0.018631 0.101684
v  -0.400788 0.000000 0.083868
v  -0.346156 0.000000 0.068847
v  -0.462023 0.019220 0.079663
v  -0.451091 0.000000 0.068746
v  -0.467233 0.000000 -0.004090
v  -0.336430 0.019062 0.079411
v  -0.404855 0.086023 0.069535
v  -0.446447 0.070690 0.067920
v  -0.481788 0.018127 -0.006133
v  -0.458312 0.016565 -0.080948
v  -0.452626 0.000000 -0.062757
v  -0.336227 0.000000 -0.004279
v  -0.319085 0.018697 -0.005361
v  -0.357301 0.092235 0.052656
v  -0.348372 0.098097 -0.007992
v  -0.391782 0.106899 -0.020315
v  -0.457008 0.086628 -0.022898
v  -0.332894 0.017765 -0.082738
v  -0.349816 0.082354 -0.072757
v  -0.343452 0.000000 -0.065975
v  -0.394223 0.000000 -0.084239
v  -0.396779 0.016757 -0.098752
v  -0.399341 0.083751 -0.081657
v  -0.446899 0.078943 -0.065738
v  -0.113517 0.018631 0.388270
v  -0.123825 0.000000 0.380846
v  -0.114052 0.000000 0.328284
v  -0.170541 0.019220 0.431517
v  -0.173998 0.000000 0.416051
v  -0.242341 0.000000 0.389431
v  -0.098961 0.017551 0.322199
v  -0.141927 0.079437 0.369559
v  -0.174369 0.071953 0.410504
v  -0.253741 0.018127 0.397068
v  -0.296363 0.024552 0.344863
v  -0.280468 0.000000 0.342511
v  -0.163796 0.000000 0.284582
v  -0.157575 0.018553 0.267100
v  -0.118805 0.066492 0.329635
v  -0.171283 0.076112 0.292150
v  -0.191926 0.091956 0.328078
v  -0.240598 0.084268 0.373467
v  -0.230557 0.018137 0.241315
v  -0.217683 0.078223 0.273406
v  -0.217459 0.000000 0.253296
v  -0.262560 0.000000 0.282915
v  -0.271134 0.020138 0.279274
v  -0.246588 0.082547 0.299296
v  -0.272787 0.075705 0.341803
v  -0.293345 0.018138 0.282475
v  -0.298250 0.000000 0.272575
v  -0.260437 0.000000 0.232768
v  -0.361158 0.016562 0.298769
v  -0.355570 0.000000 0.280514
v  -0.394883 0.000000 0.233915
v  -0.241357 0.021369 0.239820
v  -0.305321 0.091725 0.265610
v  -0.358046 0.073405 0.283989
v  -0.408364 0.018127 0.241656
v  -0.432330 0.014058 0.164282
v  -0.414972 0.000000 0.169459
v  -0.281310 0.000000 0.171180
v  -0.263833 0.027588 0.162720
v  -0.270626 0.078552 0.227970
v  -0.290943 0.084269 0.170518
v  -0.339765 0.108778 0.188727
v  -0.392879 0.083151 0.229054
v  -0.313274 0.020100 0.103311
v  -0.327015 0.082587 0.122531
v  -0.317316 0.000000 0.117956
v  -0.369336 0.000000 0.132638
v  -0.375945 0.016757 0.119782
v  -0.370478 0.086970 0.135538
v  -0.416718 0.068362 0.171636
v  0.101684 0.018631 0.400971
v  0.083868 0.000000 0.400788
v  0.068847 0.000000 0.346156
v  0.079663 0.019220 0.462023
v  0.068746 0.000000 0.451091
v  -0.004090 0.000000 0.467233
v  0.079411 0.019062 0.336430
v  0.069535 0.086023 0.404855
v  0.067920 0.070690 0.446447
v  -0.006133 0.018127 0.481788
v  -0.080948 0.016565 0.458312
v  -0.062757 0.000000 0.452626
v  -0.004279 0.000000 0.336227
v  -0.005361 0.018697 0.319085
v  0.052657 0.092235 0.357301
v  -0.007992 0.098097 0.348372
v  -0.020315 0.106899 0.391782
v  -0.022898 0.086628 0.457008
v  -0.082738 0.017765 0.332894
v  -0.072757 0.082354 0.349816
v  -0.065975 0.000000 0.343452
v  -0.084239 0.000000 0.394223
v  -0.098752 0.016757 0.396779
v  -0.081657 0.083751 0.399341
v  -0.065738 0.078943 0.446899
v  0.388270 0.018631 0.113517
v  0.380846 0.000000 0.123825
v  0.328284 0.000000 0.114052
v  0.431517 0.019220 0.170542
v  0.416051 0.000000 0.173998
v  0.389431 0.000000 0.242341
v  0.322199 0.017551 0.098961
v  0.369558 0.079437 0.141927
v  0.410504 0.071953 0.174369
v  0.397068 0.018127 0.253741
v  0.344863 0.024552 0.296363
v  0.342510 0.000000 0.280468
v  0.284582 0.000000 0.163796
v  0.267099 0.018553 0.157575
v  0.329635 0.066492 0.118805
v  0.292150 0.076112 0.171283
v  0.328077 0.091956 0.191927
v  0.373467 0.084268 0.240598
v  0.241315 0.018137 0.230557
v  0.273406 0.078223 0.217683
v  0.253296 0.000000 0.217459
v  0.282915 0.000000 0.262560
v  0.279274 0.020138 0.271134
v  0.299296 0.082547 0.246588
v  0.341803 0.075705 0.272787
v  0.282475 0.018138 0.293345
v  0.272575 0.000000 0.298250
v  0.232768 0.000000 0.260437
v  0.298769 0.016562 0.361158
v  0.280514 0.000000 0.355570
v  0.233915 0.000000 0.394883
v  0.239820 0.021369 0.241357
v  0.265610 0.091725 0.305321
v  0.283989 0.073405 0.358046
v  0.241656 0.018127 0.408364
v  0.164282 0.014058 0.432330
v  0.169459 0.000000 0.414972
v  0.171180 0.000000 0.281310
v  0.162720 0.027588 0.263833
v  0.227970 0.078552 0.270626
v  0.170518 0.084269 0.290943
v  0.188726 0.108778 0.339765
v  0.229053 0.083151 0.392879
v  0.103311 0.020100 0.313274
v  0.122531 0.082587 0.327015
v  0.117956 0.000000 0.317316
v  0.132638 0.000000 0.369336
v  0.119782 0.016757 0.375945
v  0.135538 0.086970 0.370478
v  0.171636 0.068362 0.416718
v  0.364330 0.018631 -0.113087
v  0.366958 -0.000000 -0.095464
v  0.315306 0.000000 -0.071785
v  0.437036 0.018927 -0.109023
v  0.424570 -0.000000 -0.092800
v  0.448675 -0.000000 -0.027622
v  0.299352 0.019062 -0.077219
v  0.368179 0.102007 -0.096783
v  0.426230 0.094064 -0.089018
v  0.468865 0.014159 -0.028267
v  0.459465 0.018291 0.056085
v  0.447983 -0.000000 0.036164
v  0.320530 -0.000000 0.000250
v  0.302241 0.019752 0.003718
v  0.318208 0.099596 -0.068177
v  0.323269 0.104592 -0.015945
v  0.381282 0.124110 -0.047261
v  0.446011 0.103448 -0.019841
v  0.331191 0.020492 0.065810
v  0.339194 0.068041 0.050289
v  0.344664 -0.000000 0.050061
v  0.392459 0.000000 0.059215
v  0.400923 0.022087 0.078635
v  0.396171 0.095758 0.040433
v  0.433112 0.093360 0.037549
v  0.113517 0.018631 -0.388270
v  0.123825 0.000000 -0.380846
v  0.114052 0.000000 -0.328284
v  0.170541 0.019220 -0.431517
v  0.173998 0.000000 -0.416051
v  0.242341 0.000000 -0.389431
v  0.098961 0.017551 -0.322199
v  0.141927 0.079437 -0.369558
v  0.174369 0.071953 -0.410504
v  0.253741 0.018127 -0.397068
v  0.296363 0.024552 -0.344863
v  0.280468 0.000000 -0.342511
v  0.163796 0.000000 -0.284582
v  0.157575 0.018553 -0.267099
v  0.118805 0.066492 -0.329635
v  0.171283 0.076112 -0.292150
v  0.191926 0.091956 -0.328077
v  0.240598 0.084268 -0.373467
v  0.230557 0.018137 -0.241315
v  0.217683 0.078223 -0.273406
v  0.217459 0.000000 -0.253296
v  0.262560 0.000000 -0.282915
v  0.271134 0.020138 -0.279274
v  0.246588 0.082547 -0.299296
v  0.272787 0.075705 -0.341803
v  0.239355 0.016305 0.173901
v  0.285421 -0.007294 0.207371
v  0.352800 -0.007294 -0.000000
v  0.091425 0.016305 0.281378
v  0.109021 -0.007294 0.335533
v  -0.091425 0.027268 0.281378
v  -0.109021 -0.007294 0.335533
v  0.295859 0.021060 -0.000000
v  0.184817 0.080633 0.122932
v  0.068387 0.076997 0.210473
v  -0.073848 0.087925 0.216537
v  0.285421 -0.007294 -0.207371
v  0.239355 0.018909 -0.173901
v  0.221304 0.083596 -0.000000
v  0.099274 0.106295 0.072127
v  0.041335 0.106295 0.120087
v  -0.037525 0.106295 0.121159
v  0.100521 -0.007294 -0.334056
v  0.091425 0.016305 -0.281378
v  0.179039 0.077182 -0.130079
v  0.122710 0.122461 -0.000000
v  0.000000 0.091079 -0.000000
v  -0.102652 0.106295 0.067694
v  -0.106906 -0.018662 -0.327327
v  -0.091425 0.016305 -0.281378
v  0.068387 0.076997 -0.210473
v  0.099274 0.106295 -0.072127
v  -0.277796 -0.018809 -0.211469
v  -0.239355 0.025855 -0.173901
v  -0.068387 0.065838 -0.210473
v  0.039628 0.106295 -0.110170
v  -0.346559 -0.016157 -0.000688
v  -0.301266 0.016305 -0.002721
v  -0.179499 0.076376 -0.138340
v  -0.033848 0.106295 -0.105061
v  -0.094746 0.117972 -0.048185
v  -0.107679 0.106295 0.002055
v  -0.285421 -0.007294 0.207371
v  -0.239355 0.016305 0.173901
v  -0.221304 0.076997 -0.000000
v  -0.187242 0.070086 0.132739
# 525 vertices

vn 0.281881 -0.920550 0.270425
vn 0.463950 -0.787320 0.406051
vn 0.168344 -0.974655 0.147335
vn 0.176752 -0.968259 0.176727
vn -0.012788 -0.996551 0.081994
vn -0.309652 -0.928275 -0.205965
vn -0.465173 -0.836389 -0.289943
vn -0.413744 -0.893372 -0.175220
vn -0.823427 -0.159182 -0.544636
vn 0.110596 0.945935 0.304918
vn 0.129829 0.906143 0.402554
vn 0.112013 0.836330 0.536662
vn 0.089921 0.853172 0.513821
vn 0.259294 0.951106 0.167819
vn 0.269192 0.913115 0.306196
vn 0.434815 0.866038 -0.246806
vn 0.495068 0.862920 -0.101369
vn 0.726196 -0.494593 0.477511
vn 0.243856 -0.432608 0.867977
vn 0.258060 -0.436844 0.861726
vn 0.264130 -0.438480 0.859052
vn 0.926354 -0.367926 -0.080610
vn 0.874929 -0.446655 0.187081
vn 0.889101 -0.236315 -0.391987
vn 0.780610 -0.098672 -0.617180
vn 0.524444 0.094724 -0.846160
vn -0.165547 0.412834 -0.895635
vn 0.066505 0.333099 -0.940543
vn -0.667944 0.501180 -0.550154
vn -0.657179 0.501834 -0.562387
vn -0.921603 0.385958 0.041034
vn -0.926343 0.340697 0.160670
vn -0.595194 -0.046336 0.802245
vn -0.786313 0.114055 0.607209
vn -0.360192 -0.188747 0.913584
vn -0.429923 -0.147375 0.890756
vn -0.270425 -0.920550 0.281882
vn -0.406051 -0.787320 0.463951
vn -0.242938 -0.929479 0.277580
vn -0.176727 -0.968260 0.176752
vn -0.081994 -0.996551 -0.012788
vn 0.205964 -0.928275 -0.309652
vn 0.289943 -0.836389 -0.465173
vn 0.175220 -0.893372 -0.413744
vn 0.544637 -0.159182 -0.823427
vn -0.489744 0.866924 0.092702
vn -0.304918 0.945935 0.110596
vn -0.402554 0.906143 0.129829
vn -0.536662 0.836330 0.112013
vn -0.167819 0.951106 0.259294
vn -0.306196 0.913115 0.269192
vn 0.246806 0.866038 0.434815
vn 0.101369 0.862920 0.495068
vn -0.477512 -0.494593 0.726196
vn -0.867977 -0.432608 0.243856
vn -0.861726 -0.436844 0.258060
vn -0.592957 -0.496637 0.633840
vn 0.080610 -0.367926 0.926354
vn 0.391987 -0.236315 0.889101
vn 0.617180 -0.098672 0.780611
vn 0.846160 0.094724 0.524443
vn 0.895635 0.412834 -0.165546
vn 0.940543 0.333100 0.066505
vn 0.550155 0.501180 -0.667943
vn 0.562387 0.501834 -0.657179
vn -0.041033 0.385958 -0.921603
vn -0.160669 0.340697 -0.926343
vn -0.802244 -0.046336 -0.595195
vn -0.607209 0.114055 -0.786314
vn -0.913584 -0.188747 -0.360192
vn -0.890756 -0.147375 -0.429923
vn 0.270426 -0.920550 -0.281882
vn 0.406051 -0.787319 -0.463951
vn 0.242939 -0.929479 -0.277580
vn 0.006596 -0.999099 0.041936
vn 0.081993 -0.996551 0.012789
vn -0.289943 -0.836389 0.465173
vn -0.175220 -0.893372 0.413744
vn -0.544637 -0.159182 0.823427
vn 0.304918 0.945935 -0.110596
vn 0.402554 0.906143 -0.129829
vn 0.536662 0.836330 -0.112013
vn 0.513821 0.853172 -0.089921
vn 0.167819 0.951106 -0.259294
vn 0.306196 0.913115 -0.269192
vn -0.246806 0.866038 -0.434815
vn -0.101369 0.862920 -0.495068
vn 0.477512 -0.494593 -0.726196
vn 0.867977 -0.432608 -0.243856
vn 0.861726 -0.436845 -0.258061
vn 0.592956 -0.496637 -0.633841
vn -0.080610 -0.367926 -0.926354
vn -0.391987 -0.236315 -0.889101
vn -0.617180 -0.098672 -0.780610
vn -0.846160 0.094724 -0.524444
vn -0.895635 0.412834 0.165547
vn -0.940543 0.333100 -0.066505
vn -0.550155 0.501180 0.667943
vn -0.562387 0.501834 0.657179
vn 0.041033 0.385958 0.921603
vn 0.160670 0.340697 0.926343
vn 0.802245 -0.046336 0.595195
vn 0.607210 0.114054 0.786313
vn 0.913584 -0.188747 0.360192
vn 0.890756 -0.147375 0.429923
vn -0.281882 -0.920550 -0.270425
vn -0.463951 -0.787320 -0.406051
vn -0.277580 -0.929479 -0.242938
vn 0.041935 -0.999099 -0.006596
vn 0.012788 -0.996551 -0.081994
vn 0.465173 -0.836389 0.289943
vn 0.413744 -0.893372 0.175220
vn 0.823427 -0.159182 0.544637
vn -0.092702 0.866924 -0.489744
vn -0.110596 0.945935 -0.304918
vn -0.129829 0.906143 -0.402554
vn -0.112013 0.836330 -0.536662
vn -0.259294 0.951106 -0.167819
vn -0.269192 0.913115 -0.306196
vn -0.434815 0.866038 0.246806
vn -0.495068 0.862920 0.101369
vn -0.726196 -0.494593 -0.477512
vn -0.243856 -0.432608 -0.867977
vn -0.258060 -0.436844 -0.861726
vn -0.633840 -0.496637 -0.592957
vn -0.926354 -0.367926 0.080610
vn -0.889101 -0.236315 0.391987
vn -0.780610 -0.098672 0.617180
vn -0.524443 0.094724 0.846160
vn 0.165546 0.412834 0.895635
vn -0.066505 0.333100 0.940543
vn 0.667943 0.501180 0.550155
vn 0.657179 0.501834 0.562387
vn 0.921603 0.385958 -0.041033
vn 0.926343 0.340697 -0.160669
vn 0.595195 -0.046336 -0.802244
vn 0.786314 0.114055 -0.607209
vn 0.360192 -0.188747 -0.913584
vn 0.429923 -0.147375 -0.890756
vn 0.381350 -0.079375 0.921017
vn 0.413122 -0.054799 0.909025
vn 0.553539 -0.005994 0.832802
vn 0.488079 -0.075654 0.869514
vn 0.633259 -0.025466 0.773521
vn 0.556981 -0.085745 0.826087
vn 0.671843 -0.047229 0.739186
vn 0.803062 -0.057402 0.593124
vn -0.817304 -0.176397 -0.548542
vn -0.889324 -0.134339 -0.437099
vn -0.742970 -0.155200 -0.651083
vn -0.742161 -0.161989 -0.650351
vn -0.595865 -0.093953 -0.797570
vn -0.625506 -0.108277 -0.772670
vn -0.427802 -0.024280 -0.903546
vn -0.372610 0.030514 -0.927486
vn -0.080231 -0.996657 0.015397
vn -0.438406 -0.868274 0.232165
vn -0.372199 -0.910240 0.181470
vn -0.322979 -0.934187 0.151589
vn 0.582435 -0.730066 -0.357453
vn 0.292961 -0.934749 -0.201044
vn 0.594453 -0.722399 -0.353222
vn 0.871994 -0.025871 -0.488832
vn 0.871911 -0.070040 -0.484630
vn 0.621530 0.715806 -0.318312
vn 0.607080 0.729656 -0.314731
vn 0.000848 0.999500 0.031594
vn 0.041723 0.999087 0.009232
vn -0.576614 0.744314 0.336917
vn -0.465029 0.838341 0.284486
vn -0.866067 0.109054 0.487888
vn -0.837694 0.249548 0.485793
vn -0.842717 -0.252012 0.475729
vn -0.854707 -0.147056 0.497847
vn 0.934977 0.116409 0.335063
vn 0.808078 -0.556507 0.193155
vn 0.958028 0.020620 0.285932
vn 0.909332 0.239659 0.340116
vn 0.901400 0.256305 0.348979
vn 0.896107 0.275964 0.347616
vn 0.920640 0.217275 0.324365
vn 0.840750 0.449384 0.301983
vn -0.869581 -0.493354 -0.020758
vn -0.781024 -0.602463 0.164438
vn -0.871302 -0.490334 -0.020114
vn -0.917905 -0.358051 -0.171026
vn -0.915949 -0.388133 -0.101936
vn -0.939876 -0.211555 -0.268101
vn -0.949215 -0.295175 -0.108914
vn -0.924548 0.018155 -0.380633
vn -0.088868 -0.725357 0.682612
vn -0.209071 -0.399281 0.892672
vn -0.218048 -0.356116 0.908646
vn -0.103153 -0.683662 0.722472
vn 0.173769 -0.984585 -0.019906
vn 0.197605 -0.974205 -0.108982
vn 0.329078 -0.623143 -0.709507
vn 0.330645 -0.538769 -0.774856
vn 0.302525 -0.012184 -0.953064
vn 0.275155 0.114976 -0.954500
vn 0.110356 0.680733 -0.724171
vn 0.075410 0.745698 -0.662003
vn -0.169975 0.985448 0.000376
vn -0.174547 0.984555 0.013557
vn -0.321263 0.686150 0.652678
vn -0.320201 0.708182 0.629245
vn -0.333721 0.373443 0.865547
vn -0.334337 0.349735 0.875160
vn 0.994112 -0.104316 0.029306
vn 0.686082 -0.724000 -0.071522
vn 0.979709 -0.198819 -0.025306
vn 0.998856 0.020835 0.043039
vn 0.997813 0.038042 0.054057
vn 0.996800 0.058415 0.054558
vn 0.999700 -0.002147 0.024381
vn 0.969707 0.242455 0.029725
vn -0.921421 -0.300604 0.246211
vn -0.807392 -0.439256 0.393919
vn -0.922163 -0.297352 0.247379
vn -0.981853 -0.147317 0.119426
vn -0.965828 -0.182275 0.184260
vn -0.999355 0.007453 0.035118
vn -0.978422 -0.084200 0.188680
vn -0.968652 0.236890 -0.074803
vn -0.035957 -0.740811 0.670750
vn -0.012767 -0.413740 0.910305
vn -0.006824 -0.370981 0.928615
vn -0.028070 -0.700192 0.713403
vn -0.060593 -0.994902 -0.080608
vn -0.063018 -0.982974 -0.172599
vn -0.044866 -0.622304 -0.781489
vn -0.044592 -0.535384 -0.843431
vn -0.008900 -0.002406 -0.999958
vn -0.006854 0.127404 -0.991827
vn 0.033600 0.695979 -0.717276
vn 0.034132 0.761876 -0.646823
vn 0.058422 0.996434 0.060873
vn 0.057952 0.995512 0.074814
vn 0.048822 0.686447 0.725539
vn 0.047581 0.709490 0.703107
vn 0.032799 0.367885 0.929293
vn 0.029925 0.344159 0.938435
vn 0.549596 -0.096408 -0.829849
vn 0.523405 -0.070013 -0.849203
vn 0.385031 -0.012207 -0.922823
vn 0.447910 -0.086029 -0.889930
vn 0.290550 -0.025896 -0.956509
vn 0.373113 -0.091422 -0.923271
vn 0.239448 -0.044630 -0.969883
vn 0.044867 -0.043523 -0.998044
vn -0.012936 -0.192171 0.981276
vn 0.121871 -0.157527 0.979966
vn -0.138115 -0.163895 0.976761
vn -0.138331 -0.170664 0.975571
vn -0.337876 -0.090764 0.936804
vn -0.301570 -0.107308 0.947386
vn -0.515118 -0.009790 0.857063
vn -0.562527 0.048260 0.825369
vn 0.001829 -0.999127 0.041737
vn 0.387405 -0.894957 0.221289
vn 0.306291 -0.932023 0.193700
vn -0.116202 -0.993150 -0.012229
vn -0.660090 -0.689631 -0.297809
vn -0.662803 -0.681599 -0.310025
vn -0.890452 0.031153 -0.454009
vn -0.889370 -0.013102 -0.457000
vn -0.568861 0.754099 -0.328226
vn -0.557114 0.767150 -0.317971
vn 0.081330 0.996686 -0.001780
vn 0.040094 0.998923 -0.023355
vn 0.640596 0.704877 0.304607
vn 0.540469 0.805662 0.242492
vn 0.891009 0.052189 0.450975
vn 0.881365 0.193789 0.430862
vn 0.847909 -0.306778 0.432362
vn 0.878757 -0.203353 0.431779
vn 0.318356 0.052300 0.946527
vn 0.641771 -0.046528 0.765483
vn 0.504900 0.054398 0.861462
vn 0.241777 0.096143 0.965557
vn 0.019013 0.087372 0.995994
vn 0.012126 0.090386 0.995833
vn 0.501827 -0.275798 -0.819820
vn 0.282825 -0.182516 -0.941646
vn 0.374777 -0.289528 -0.880747
vn 0.444440 -0.322456 -0.835760
vn 0.316449 -0.340376 -0.885440
vn 0.300038 -0.333647 -0.893676
vn -0.123868 -0.983111 0.134718
vn 0.526556 -0.841280 0.122420
vn 0.506477 -0.852967 0.126205
vn -0.094720 -0.987015 0.129730
vn -0.907287 -0.418405 0.042041
vn -0.832744 -0.550873 0.055470
vn -0.875160 0.476423 -0.084356
vn -0.881169 0.465416 -0.083246
vn -0.213652 0.967054 -0.138416
vn -0.167986 0.975949 -0.138942
vn 0.737452 0.670758 -0.079045
vn 0.718127 0.690809 -0.084119
vn 0.999534 0.028950 0.009701
vn 0.999537 0.028818 0.009737
vn -0.249501 -0.074835 -0.965479
vn -0.244136 -0.706133 -0.664661
vn -0.295496 -0.171515 -0.939822
vn -0.240748 0.050795 -0.969258
vn -0.230310 0.068330 -0.970715
vn -0.230045 0.088671 -0.969132
vn -0.258316 0.027224 -0.965677
vn -0.250761 0.270911 -0.929369
vn 0.503246 -0.318231 0.803413
vn 0.616196 -0.448462 0.647445
vn 0.504496 -0.314963 0.803917
vn 0.394899 -0.171137 0.902645
vn 0.453427 -0.203395 0.867775
vn 0.336213 -0.064119 0.939601
vn 0.503111 -0.167410 0.847852
vn 0.195424 0.206455 0.958742
vn 0.671724 -0.718276 -0.181292
vn 0.886903 -0.382712 -0.258719
vn 0.901737 -0.339201 -0.267980
vn 0.709411 -0.676019 -0.199334
vn -0.035738 -0.998394 0.043964
vn -0.123581 -0.989678 0.072567
vn -0.721593 -0.649570 0.239505
vn -0.783222 -0.564837 0.259853
vn -0.956538 -0.036694 0.289291
vn -0.952513 0.093322 0.289845
vn -0.714581 0.671836 0.194962
vn -0.648779 0.740082 0.177101
vn 0.017382 0.999190 -0.036282
vn 0.030910 0.998730 -0.039781
vn 0.665234 0.711859 -0.225213
vn 0.643501 0.734080 -0.216871
vn 0.873024 0.400089 -0.278851
vn 0.883186 0.376616 -0.279539
vn -0.993183 0.083768 0.081064
vn -0.799605 -0.586527 0.128909
vn -0.991275 -0.014316 0.131031
vn -0.975486 0.208139 0.071449
vn -0.972370 0.225369 0.060868
vn -0.967563 0.245199 0.060822
vn -0.978692 0.184832 0.089436
vn -0.903496 0.419565 0.087527
vn 0.815943 -0.454196 -0.357690
vn 0.662575 -0.561871 -0.495273
vn 0.817161 -0.451085 -0.358845
vn 0.917555 -0.321179 -0.234384
vn 0.888369 -0.349345 -0.297923
vn 0.973030 -0.176658 -0.148338
vn 0.918831 -0.255222 -0.301016
vn 0.998377 0.048846 -0.029295
vn -0.177119 -0.700966 -0.690852
vn -0.163084 -0.363989 -0.917014
vn -0.162706 -0.320029 -0.933332
vn -0.181636 -0.657556 -0.731183
vn -0.121389 -0.991563 0.045461
vn -0.106962 -0.984797 0.136875
vn 0.008694 -0.657181 0.753683
vn 0.031541 -0.574852 0.817650
vn 0.114675 -0.052806 0.991999
vn 0.136486 0.075362 0.987771
vn 0.175850 0.654260 0.735541
vn 0.180357 0.722466 0.667468
vn 0.125900 0.991700 -0.026066
vn 0.124699 0.991388 -0.039990
vn 0.005594 0.718135 -0.695882
vn 0.013573 0.739423 -0.673104
vn -0.061009 0.412471 -0.908925
vn -0.063686 0.389098 -0.918992
vn 0.637633 -0.038458 -0.769379
vn 0.302538 -0.089645 -0.948912
vn 0.469096 -0.011832 -0.883068
vn 0.699852 -0.003222 -0.714280
vn 0.840374 -0.032610 -0.541025
vn 0.844262 -0.030133 -0.535083
vn -0.990777 -0.135396 0.005330
vn -0.965689 -0.045066 0.255762
vn -0.977733 -0.151320 0.145396
vn -0.980935 -0.184030 0.062445
vn -0.958539 -0.205534 0.197379
vn -0.955945 -0.199132 0.215674
vn 0.037212 -0.998759 0.033112
vn -0.292037 -0.807196 -0.512980
vn -0.280055 -0.820755 -0.497926
vn 0.017257 -0.999791 0.010966
vn 0.448641 -0.488518 0.748379
vn 0.402103 -0.615550 0.677799
vn 0.453637 0.414849 0.788742
vn 0.456130 0.403362 0.793250
vn 0.133400 0.957522 0.255647
vn 0.110415 0.969878 0.217129
vn -0.355079 0.729773 -0.584252
vn -0.346399 0.748754 -0.565132
vn -0.508966 0.103859 -0.854498
vn -0.508957 0.103725 -0.854520
vn -0.462379 -0.146925 -0.874425
vn -0.423302 -0.543454 -0.724896
vn -0.723609 -0.672126 -0.156963
vn 0.309355 -0.245849 -0.918617
vn 0.250170 -0.753943 -0.607441
vn 0.654920 -0.662659 -0.363266
vn -0.951587 -0.135443 -0.275931
vn -0.307984 0.758223 -0.574669
vn 0.299324 0.560546 -0.772136
vn 0.861915 -0.200926 -0.465544
vn 0.921640 -0.255129 0.292386
vn 0.586224 -0.789979 0.179649
vn -0.728150 -0.571079 0.379033
vn -0.886687 -0.062551 0.458120
vn -0.718753 0.689848 -0.086622
vn -0.635182 0.709700 0.304746
vn 0.006769 0.998924 0.045875
vn 0.648607 0.692441 -0.315964
vn -0.320984 -0.146547 0.935678
vn -0.212401 0.622818 0.752983
vn -0.294916 -0.600711 0.743082
vn 0.317451 -0.649644 0.690787
vn 0.432915 -0.220632 0.874017
vn 0.401862 0.671382 0.622698
vn 0.818699 0.533525 0.212328
vn -0.988789 -0.149293 0.002729
vn -0.731579 -0.681094 -0.030041
vn -0.480264 -0.609141 0.631105
vn -0.660147 -0.143258 -0.737349
vn -0.524621 -0.626084 -0.576880
vn 0.008131 -0.615262 -0.788281
vn -0.665901 -0.094980 0.739970
vn -0.630768 0.773300 -0.064336
vn -0.542281 0.604944 -0.583073
vn 0.023560 -0.161005 -0.986672
vn 0.712813 -0.221028 -0.665616
vn 0.401798 -0.659390 -0.635423
vn -0.019188 -0.654857 0.755509
vn -0.020064 -0.189978 0.981583
vn -0.441116 0.768716 0.463133
vn -0.028043 0.781341 0.623474
vn 0.056948 0.997757 -0.035176
vn 0.061129 0.713061 -0.698432
vn 0.658735 -0.222153 0.718829
vn 0.573695 0.600666 0.556843
vn 0.365404 -0.705621 0.607106
vn 0.732792 -0.680379 0.009957
vn 0.975626 -0.217152 -0.031591
vn 0.762192 0.642133 -0.082029
vn 0.562838 0.589963 -0.578928
vn -0.521034 -0.059639 0.851450
vn -0.428145 -0.568712 0.702324
vn 0.212976 -0.670564 0.710623
vn -0.983230 -0.124131 0.133606
vn -0.770647 -0.633135 0.072408
vn -0.668279 -0.568383 -0.479942
vn 0.287281 -0.133181 0.948542
vn -0.267073 0.810721 0.520964
vn -0.728475 0.674973 0.117202
vn -0.780467 -0.134131 -0.610639
vn -0.166569 -0.044643 -0.985019
vn -0.170923 -0.546939 -0.819539
vn 0.624849 -0.665139 0.408844
vn 0.849113 -0.157747 0.504105
vn 0.148499 0.634243 0.758738
vn 0.552218 0.735887 0.391825
vn 0.062051 0.992720 0.103235
vn -0.468948 0.796574 -0.381520
vn 0.974184 -0.066419 -0.215766
vn 0.682600 0.726981 -0.074535
vn 0.875946 -0.446146 0.183503
vn 0.496484 -0.470809 -0.729276
vn 0.567196 0.012759 -0.823484
vn 0.366993 0.804030 -0.467817
vn -0.097376 0.690298 -0.716943
vn -0.874425 -0.146925 0.462379
vn -0.724895 -0.543454 0.423302
vn -0.156963 -0.672126 0.723608
vn -0.918617 -0.245849 -0.309355
vn -0.607441 -0.753944 -0.250170
vn -0.363266 -0.662659 -0.654920
vn -0.275931 -0.135444 0.951587
vn -0.574669 0.758223 0.307984
vn -0.772136 0.560546 -0.299324
vn -0.465544 -0.200926 -0.861915
vn 0.292385 -0.255129 -0.921640
vn 0.179650 -0.789979 -0.586224
vn 0.379034 -0.571079 0.728150
vn 0.458120 -0.062551 0.886687
vn -0.086622 0.689848 0.718753
vn 0.304747 0.709700 0.635182
vn 0.045875 0.998924 -0.006769
vn -0.315964 0.692441 -0.648607
vn 0.935678 -0.146547 0.320984
vn 0.752983 0.622818 0.212401
vn 0.743082 -0.600711 0.294916
vn 0.690787 -0.649645 -0.317451
vn 0.874017 -0.220633 -0.432915
vn 0.622698 0.671382 -0.401862
vn 0.212328 0.533525 -0.818699
vn 0.002729 -0.149293 0.988789
vn -0.030041 -0.681094 0.731579
vn 0.631105 -0.609141 0.480264
vn -0.737349 -0.143258 0.660147
vn -0.576880 -0.626084 0.524621
vn -0.788281 -0.615262 -0.008131
vn 0.739970 -0.094980 0.665901
vn -0.064336 0.773300 0.630768
vn -0.583073 0.604944 0.542281
vn -0.986672 -0.161005 -0.023560
vn -0.665616 -0.221028 -0.712813
vn -0.635423 -0.659390 -0.401798
vn 0.755509 -0.654857 0.019188
vn 0.981583 -0.189978 0.020064
vn 0.463133 0.768716 0.441116
vn 0.716963 0.687350 0.116251
vn -0.035176 0.997757 -0.056948
vn -0.698432 0.713061 -0.061129
vn 0.718830 -0.222153 -0.658735
vn 0.590988 0.523001 -0.614169
vn 0.607106 -0.705621 -0.365404
vn 0.009957 -0.680379 -0.732792
vn -0.031591 -0.217152 -0.975626
vn -0.082029 0.642133 -0.762192
vn 0.256502 0.937867 -0.233692
vn -0.578928 0.589963 -0.562838
vn 0.851450 -0.059639 0.521034
vn 0.702324 -0.568713 0.428144
vn 0.710622 -0.670565 -0.212976
vn 0.133606 -0.124131 0.983230
vn 0.072408 -0.633136 0.770646
vn -0.479942 -0.568383 0.668279
vn 0.948542 -0.133181 -0.287281
vn 0.520965 0.810721 0.267073
vn 0.117202 0.674973 0.728474
vn -0.610639 -0.134131 0.780467
vn -0.985019 -0.044643 0.166569
vn -0.819539 -0.546938 0.170923
vn 0.408844 -0.665139 -0.624849
vn 0.504105 -0.157747 -0.849113
vn 0.758738 0.634243 -0.148499
vn 0.391824 0.735887 -0.552218
vn 0.103235 0.992720 -0.062051
vn -0.381520 0.796574 0.468948
vn -0.215766 -0.066419 -0.974184
vn -0.074535 0.726981 -0.682600
vn 0.183502 -0.446147 -0.875945
vn -0.729275 -0.470809 -0.496484
vn -0.823484 0.012759 -0.567195
vn -0.467817 0.804030 -0.366993
vn -0.716943 0.690297 0.097376
vn 0.462379 -0.146925 0.874425
vn 0.423302 -0.543454 0.724895
vn 0.723608 -0.672126 0.156963
vn -0.309355 -0.245849 0.918617
vn -0.250170 -0.753944 0.607441
vn -0.654921 -0.662658 0.363267
vn 0.951587 -0.135444 0.275931
vn 0.307984 0.758223 0.574669
vn -0.299324 0.560546 0.772136
vn -0.861915 -0.200925 0.465544
vn -0.921640 -0.255130 -0.292385
vn -0.586224 -0.789979 -0.179649
vn 0.728151 -0.571078 -0.379034
vn 0.886687 -0.062550 -0.458120
vn 0.718753 0.689848 0.086622
vn 0.635182 0.709699 -0.304747
vn -0.006769 0.998924 -0.045875
vn -0.648608 0.692441 0.315964
vn 0.320984 -0.146547 -0.935678
vn 0.212401 0.622818 -0.752983
vn 0.294915 -0.600711 -0.743083
vn -0.317451 -0.649645 -0.690787
vn -0.432915 -0.220633 -0.874017
vn -0.401861 0.671383 -0.622698
vn -0.818699 0.533525 -0.212327
vn 0.988789 -0.149293 -0.002729
vn 0.731579 -0.681094 0.030041
vn 0.480264 -0.609141 -0.631105
vn 0.660147 -0.143258 0.737349
vn 0.524621 -0.626084 0.576880
vn -0.008131 -0.615262 0.788281
vn 0.665901 -0.094980 -0.739970
vn 0.630768 0.773300 0.064336
vn 0.542281 0.604944 0.583073
vn -0.023560 -0.161005 0.986672
vn -0.712813 -0.221028 0.665616
vn -0.401798 -0.659390 0.635423
vn 0.019188 -0.654857 -0.755509
vn 0.020064 -0.189978 -0.981583
vn 0.441116 0.768716 -0.463133
vn 0.028043 0.781341 -0.623474
vn -0.056948 0.997757 0.035176
vn -0.061129 0.713061 0.698432
vn -0.658735 -0.222153 -0.718829
vn -0.573696 0.600666 -0.556843
vn -0.365404 -0.705621 -0.607106
vn -0.732792 -0.680379 -0.009957
vn -0.975626 -0.217152 0.031591
vn -0.762192 0.642133 0.082029
vn -0.562838 0.589963 0.578928
vn 0.521034 -0.059640 -0.851450
vn 0.428145 -0.568713 -0.702323
vn -0.212976 -0.670565 -0.710623
vn 0.983230 -0.124131 -0.133606
vn 0.770647 -0.633135 -0.072408
vn 0.668278 -0.568384 0.479942
vn -0.287281 -0.133181 -0.948542
vn 0.267073 0.810721 -0.520964
vn 0.728475 0.674973 -0.117202
vn 0.780467 -0.134132 0.610639
vn 0.166569 -0.044643 0.985019
vn 0.170923 -0.546938 0.819539
vn -0.624849 -0.665139 -0.408845
vn -0.849113 -0.157747 -0.504106
vn -0.148499 0.634243 -0.758738
vn -0.552218 0.735887 -0.391825
vn -0.062051 0.992720 -0.103235
vn 0.468948 0.796574 0.381520
vn -0.974184 -0.066418 0.215766
vn -0.682600 0.726981 0.074535
vn -0.875946 -0.446145 -0.183503
vn -0.496484 -0.470808 0.729276
vn -0.567196 0.012760 0.823484
vn -0.366993 0.804030 0.467817
vn 0.097376 0.690297 0.716943
vn 0.874425 -0.146925 -0.462379
vn 0.724895 -0.543455 -0.423302
vn 0.156963 -0.672126 -0.723608
vn 0.918617 -0.245849 0.309356
vn 0.607441 -0.753943 0.250169
vn 0.363266 -0.662659 0.654921
vn 0.275931 -0.135444 -0.951587
vn 0.574669 0.758223 -0.307984
vn 0.772136 0.560546 0.299324
vn 0.465544 -0.200925 0.861915
vn -0.292386 -0.255129 0.921640
vn -0.179649 -0.789979 0.586224
vn -0.379033 -0.571079 -0.728150
vn -0.458119 -0.062550 -0.886687
vn 0.086623 0.689848 -0.718753
vn -0.304746 0.709700 -0.635182
vn -0.045875 0.998924 0.006769
vn 0.315964 0.692441 0.648608
vn -0.935678 -0.146547 -0.320985
vn -0.752983 0.622818 -0.212401
vn -0.743082 -0.600711 -0.294916
vn -0.690787 -0.649645 0.317450
vn -0.874017 -0.220633 0.432915
vn -0.622698 0.671382 0.401861
vn -0.212328 0.533525 0.818699
vn -0.192103 -0.242071 -0.951051
vn -0.137784 -0.688733 -0.711802
vn -0.631767 -0.666716 -0.395424
vn 0.568240 -0.226452 -0.791089
vn 0.395467 -0.733878 -0.552294
vn 0.605881 -0.789317 -0.099433
vn -0.861954 -0.208174 -0.462276
vn -0.120328 0.645497 -0.754225
vn 0.502724 0.617308 -0.605144
vn 0.940788 -0.323179 -0.102335
vn 0.769920 -0.201525 0.605484
vn 0.651463 -0.707453 0.274054
vn -0.708488 -0.681337 0.183913
vn -0.944981 -0.224425 0.237999
vn -0.660481 0.654606 -0.367772
vn -0.603764 0.755886 0.253189
vn 0.020208 0.991680 -0.127134
vn 0.722447 0.691388 0.007324
vn -0.595734 -0.190968 0.780149
vn -0.504347 0.542384 0.671903
vn -0.419786 -0.710276 0.565056
vn 0.027772 -0.683052 0.729842
vn 0.098015 -0.137608 0.985625
vn -0.074109 0.780384 0.620894
vn 0.515550 0.664080 0.541485
vn -0.851450 -0.059640 -0.521034
vn -0.702324 -0.568712 -0.428145
vn -0.710623 -0.670565 0.212976
vn -0.133606 -0.124131 -0.983230
vn -0.072408 -0.633135 -0.770647
vn 0.479942 -0.568383 -0.668279
vn -0.948542 -0.133181 0.287281
vn -0.520964 0.810721 -0.267073
vn -0.117202 0.674973 -0.728475
vn 0.610639 -0.134132 -0.780467
vn 0.985019 -0.044643 -0.166569
vn 0.819539 -0.546938 -0.170923
vn -0.408844 -0.665139 0.624849
vn -0.504106 -0.157747 0.849113
vn -0.758738 0.634243 0.148499
vn -0.391825 0.735887 0.552218
vn -0.103235 0.992720 0.062051
vn 0.381520 0.796574 -0.468948
vn 0.215766 -0.066419 0.974184
vn 0.074535 0.726981 0.682600
vn -0.183503 -0.446146 0.875945
vn 0.729276 -0.470808 0.496484
vn 0.823484 0.012760 0.567196
vn 0.467816 0.804030 0.366993
vn 0.716943 0.690297 -0.097376
vn 0.401743 0.864057 0.303330
vn 0.309749 0.923802 0.225045
vn 0.438832 0.898541 0.007103
vn 0.182593 0.869247 0.459424
vn 0.139244 0.916533 0.374937
vn -0.195006 0.818390 0.540564
vn -0.170824 0.863372 0.474771
vn 0.532364 0.846482 0.007495
vn 0.404634 0.865585 0.295016
vn 0.186928 0.867181 0.461579
vn -0.167902 0.875742 0.452643
vn 0.335992 0.906903 -0.254237
vn 0.400951 0.862447 -0.308908
vn 0.513716 0.857959 0.001662
vn 0.068603 0.989586 0.126542
vn 0.037975 0.991649 0.123246
vn -0.003941 0.996859 0.079101
vn 0.079021 0.914678 -0.396383
vn 0.143559 0.859698 -0.490215
vn 0.385396 0.865219 -0.320727
vn 0.093463 0.995045 0.033912
vn -0.000388 0.999805 0.019765
vn -0.151782 0.987812 0.034501
vn -0.180789 0.823123 -0.538316
vn -0.171061 0.813378 -0.556016
vn 0.128196 0.876431 -0.464150
vn 0.034566 0.985974 -0.163277
vn -0.494322 0.772085 -0.399413
vn -0.489186 0.791373 -0.366641
vn -0.145439 0.880418 -0.451345
vn 0.015064 0.992500 -0.121312
vn -0.591431 0.806139 -0.018684
vn -0.582537 0.812786 -0.005485
vn -0.359455 0.873007 -0.329621
vn 0.001500 0.985855 -0.167594
vn -0.055582 0.998411 -0.009261
vn -0.090438 0.988409 0.121941
vn -0.328384 0.916071 0.230170
vn -0.404096 0.868466 0.287180
vn -0.477139 0.878477 0.024847
vn -0.445093 0.854322 0.268377
# 738 vertex normals

vt 0.856049 0.923143 0.000000
vt 0.841469 0.953616 0.000000
vt 0.856049 0.980596 0.000000
vt 0.886942 0.990485 0.000000
vt 0.886392 0.913596 0.000000
vt 0.908872 0.979152 0.000000
vt 0.911786 0.923958 0.000000
vt 0.923658 0.951469 0.000000
vt 0.643927 0.734854 0.000000
vt 0.615201 0.722955 0.000000
vt 0.601693 0.699046 0.000000
vt 0.671044 0.727772 0.000000
vt 0.614182 0.680998 0.000000
vt 0.675179 0.707246 0.000000
vt 0.641313 0.661114 0.000000
vt 0.670039 0.673013 0.000000
vt 0.031522 0.989581 0.000000
vt 0.010626 0.984394 0.000000
vt 0.008960 0.038923 0.000000
vt 0.030354 0.065428 0.000000
vt 0.048114 0.991168 0.000000
vt 0.054002 0.038923 0.000000
vt 0.075122 0.973642 0.000000
vt 0.076966 0.015157 0.000000
vt 0.097497 0.973642 0.000000
vt 0.096230 0.009197 0.000000
vt 0.123257 0.984147 0.000000
vt 0.116737 0.024094 0.000000
vt 0.137453 0.978232 0.000000
vt 0.138956 0.015121 0.000000
vt 0.157060 0.978009 0.000000
vt 0.156881 0.017886 0.000000
vt 0.182058 0.984394 0.000000
vt 0.180393 0.038923 0.000000
vt 0.884950 0.892043 0.000000
vt 0.860004 0.876609 0.000000
vt 0.849803 0.838147 0.000000
vt 0.900762 0.880304 0.000000
vt 0.860611 0.795301 0.000000
vt 0.911008 0.838327 0.000000
vt 0.902962 0.794509 0.000000
vt 0.884273 0.780404 0.000000
vt 0.397227 0.319267 0.000000
vt 0.423951 0.326451 0.000000
vt 0.441291 0.359239 0.000000
vt 0.377585 0.349453 0.000000
vt 0.440622 0.400074 0.000000
vt 0.378316 0.396219 0.000000
vt 0.395384 0.423050 0.000000
vt 0.425214 0.423691 0.000000
vt 0.438893 0.781709 0.000000
vt 0.439863 0.751972 0.000000
vt 0.600577 0.747382 0.000000
vt 0.605983 0.778040 0.000000
vt 0.441778 0.814503 0.000000
vt 0.612564 0.814195 0.000000
vt 0.444070 0.846202 0.000000
vt 0.613078 0.842557 0.000000
vt 0.441740 0.871717 0.000000
vt 0.613824 0.874484 0.000000
vt 0.438675 0.903331 0.000000
vt 0.615431 0.899660 0.000000
vt 0.438652 0.935283 0.000000
vt 0.610168 0.931522 0.000000
vt 0.439916 0.956952 0.000000
vt 0.602080 0.960333 0.000000
vt 0.440019 0.990578 0.000000
vt 0.600733 0.989367 0.000000
vt 0.910983 0.762997 0.000000
vt 0.902047 0.727746 0.000000
vt 0.912840 0.692415 0.000000
vt 0.932128 0.678827 0.000000
vt 0.932927 0.779021 0.000000
vt 0.951877 0.689319 0.000000
vt 0.952974 0.761998 0.000000
vt 0.959863 0.729921 0.000000
vt 0.964539 0.787787 0.000000
vt 0.982494 0.807893 0.000000
vt 0.982625 0.848545 0.000000
vt 0.968895 0.882089 0.000000
vt 0.936693 0.803697 0.000000
vt 0.949712 0.888596 0.000000
vt 0.927258 0.831747 0.000000
vt 0.931836 0.868420 0.000000
vt 0.196841 0.783853 0.000000
vt 0.199609 0.751065 0.000000
vt 0.417789 0.753054 0.000000
vt 0.412259 0.782082 0.000000
vt 0.201394 0.812225 0.000000
vt 0.415529 0.810856 0.000000
vt 0.196766 0.841865 0.000000
vt 0.421906 0.849598 0.000000
vt 0.196669 0.871218 0.000000
vt 0.425068 0.873965 0.000000
vt 0.198414 0.900123 0.000000
vt 0.423370 0.902269 0.000000
vt 0.200462 0.932987 0.000000
vt 0.423814 0.931785 0.000000
vt 0.199396 0.959365 0.000000
vt 0.423337 0.960134 0.000000
vt 0.199542 0.990475 0.000000
vt 0.417721 0.990214 0.000000
vt 0.941690 0.956502 0.000000
vt 0.950390 0.909075 0.000000
vt 0.979912 0.909697 0.000000
vt 0.990067 0.952399 0.000000
vt 0.953004 0.990344 0.000000
vt 0.980921 0.990127 0.000000
vt 0.646742 0.090269 0.000000
vt 0.617663 0.088754 0.000000
vt 0.605846 0.051357 0.000000
vt 0.656161 0.048074 0.000000
vt 0.618530 0.015098 0.000000
vt 0.644442 0.009619 0.000000
vt 0.642160 0.796517 0.000000
vt 0.645869 0.758726 0.000000
vt 0.819859 0.755470 0.000000
vt 0.831988 0.792395 0.000000
vt 0.635357 0.831567 0.000000
vt 0.833094 0.826783 0.000000
vt 0.630564 0.872264 0.000000
vt 0.834272 0.871507 0.000000
vt 0.633370 0.910363 0.000000
vt 0.834224 0.907613 0.000000
vt 0.644795 0.942738 0.000000
vt 0.825428 0.944185 0.000000
vt 0.646182 0.989929 0.000000
vt 0.820176 0.990980 0.000000
vt 0.229964 0.561309 0.000000
vt 0.214340 0.560541 0.000000
vt 0.239047 0.441962 0.000000
vt 0.250260 0.664319 0.000000
vt 0.240696 0.684338 0.000000
vt 0.307877 0.738057 0.000000
vt 0.249505 0.465391 0.000000
vt 0.274468 0.563289 0.000000
vt 0.274904 0.618995 0.000000
vt 0.308029 0.703924 0.000000
vt 0.372213 0.665668 0.000000
vt 0.380538 0.680748 0.000000
vt 0.309242 0.383939 0.000000
vt 0.309200 0.431087 0.000000
vt 0.279141 0.515309 0.000000
vt 0.313185 0.502495 0.000000
vt 0.316926 0.555847 0.000000
vt 0.310720 0.624888 0.000000
vt 0.368968 0.461209 0.000000
vt 0.343862 0.519729 0.000000
vt 0.379031 0.439641 0.000000
vt 0.406274 0.554814 0.000000
vt 0.389751 0.555797 0.000000
vt 0.347410 0.558708 0.000000
vt 0.346328 0.621307 0.000000
vt 0.214441 0.190115 0.000000
vt 0.196982 0.190254 0.000000
vt 0.224253 0.069830 0.000000
vt 0.232597 0.285203 0.000000
vt 0.222312 0.305642 0.000000
vt 0.301657 0.364464 0.000000
vt 0.234118 0.090403 0.000000
vt 0.258737 0.197678 0.000000
vt 0.255667 0.239608 0.000000
vt 0.302380 0.331504 0.000000
vt 0.361523 0.282828 0.000000
vt 0.367829 0.309758 0.000000
vt 0.300628 0.009422 0.000000
vt 0.300719 0.045913 0.000000
vt 0.270486 0.154547 0.000000
vt 0.301463 0.143936 0.000000
vt 0.308288 0.179904 0.000000
vt 0.311017 0.244854 0.000000
vt 0.360087 0.088654 0.000000
vt 0.334653 0.143971 0.000000
vt 0.368027 0.064733 0.000000
vt 0.395445 0.180849 0.000000
vt 0.380059 0.184783 0.000000
vt 0.339944 0.188191 0.000000
vt 0.332141 0.233880 0.000000
vt 0.438803 0.547963 0.000000
vt 0.423325 0.544631 0.000000
vt 0.452621 0.434662 0.000000
vt 0.456640 0.652610 0.000000
vt 0.446405 0.672480 0.000000
vt 0.522190 0.732686 0.000000
vt 0.462294 0.454258 0.000000
vt 0.482408 0.554129 0.000000
vt 0.482692 0.608130 0.000000
vt 0.525230 0.701591 0.000000
vt 0.574232 0.657522 0.000000
vt 0.586787 0.682306 0.000000
vt 0.524790 0.388616 0.000000
vt 0.526888 0.426368 0.000000
vt 0.482663 0.504625 0.000000
vt 0.521933 0.504746 0.000000
vt 0.518991 0.548524 0.000000
vt 0.527086 0.616398 0.000000
vt 0.584182 0.475159 0.000000
vt 0.548209 0.525266 0.000000
vt 0.589153 0.447801 0.000000
vt 0.613579 0.556914 0.000000
vt 0.597170 0.558997 0.000000
vt 0.552032 0.560789 0.000000
vt 0.550188 0.612239 0.000000
vt 0.430839 0.185951 0.000000
vt 0.413207 0.183038 0.000000
vt 0.445670 0.061181 0.000000
vt 0.450613 0.292627 0.000000
vt 0.439482 0.311012 0.000000
vt 0.513732 0.374724 0.000000
vt 0.456856 0.079691 0.000000
vt 0.474887 0.191397 0.000000
vt 0.482790 0.236225 0.000000
vt 0.515694 0.343034 0.000000
vt 0.576795 0.287456 0.000000
vt 0.584203 0.313773 0.000000
vt 0.524870 0.010239 0.000000
vt 0.521485 0.048562 0.000000
vt 0.485833 0.148775 0.000000
vt 0.508464 0.144012 0.000000
vt 0.495846 0.195168 0.000000
vt 0.517295 0.242251 0.000000
vt 0.573063 0.093528 0.000000
vt 0.550358 0.129648 0.000000
vt 0.586832 0.071718 0.000000
vt 0.611025 0.186383 0.000000
vt 0.590318 0.196073 0.000000
vt 0.541840 0.192711 0.000000
vt 0.542794 0.222736 0.000000
vt 0.926991 0.183763 0.000000
vt 0.954200 0.146040 0.000000
vt 0.991554 0.368362 0.000000
vt 0.845424 0.069902 0.000000
vt 0.855785 0.008975 0.000000
vt 0.744666 0.075134 0.000000
vt 0.733662 0.009511 0.000000
vt 0.956999 0.368123 0.000000
vt 0.888519 0.248607 0.000000
vt 0.829534 0.161315 0.000000
vt 0.757306 0.160038 0.000000
vt 0.953503 0.590248 0.000000
vt 0.925965 0.551654 0.000000
vt 0.906711 0.368073 0.000000
vt 0.843974 0.298954 0.000000
vt 0.815043 0.252711 0.000000
vt 0.775465 0.252002 0.000000
vt 0.850232 0.725602 0.000000
vt 0.844581 0.665416 0.000000
vt 0.886162 0.495557 0.000000
vt 0.855283 0.367661 0.000000
vt 0.794262 0.368008 0.000000
vt 0.742741 0.303252 0.000000
vt 0.733405 0.723014 0.000000
vt 0.744077 0.664624 0.000000
vt 0.829375 0.573951 0.000000
vt 0.844223 0.436871 0.000000
vt 0.637342 0.597235 0.000000
vt 0.665063 0.548371 0.000000
vt 0.758639 0.578876 0.000000
vt 0.814205 0.473508 0.000000
vt 0.598584 0.369946 0.000000
vt 0.628881 0.371384 0.000000
vt 0.702503 0.503819 0.000000
vt 0.777239 0.468804 0.000000
vt 0.747129 0.413557 0.000000
vt 0.740338 0.366069 0.000000
vt 0.634564 0.146703 0.000000
vt 0.661500 0.184544 0.000000
vt 0.681076 0.368371 0.000000
vt 0.697241 0.236694 0.000000
# 269 texture coords

g Mesh_0239
usemtl Tex_0239_0_dds
s 1
f 1/1/1 2/2/2 3/3/2 
s 2
f 1/1/1 3/3/3 4/4/4 
s 3
f 4/4/4 5/5/5 1/1/1 
s 4
f 5/5/5 4/4/6 6/6/7 
s 5
f 6/6/7 7/7/8 5/5/5 
s 6
f 7/7/8 6/6/7 8/8/9 
s 7
f 9/9/10 10/10/10 11/11/11 
s 8
f 11/11/11 12/12/12 9/9/13 
s 9
f 12/12/12 11/11/11 13/13/14 
s 10
f 13/13/14 14/14/15 12/12/12 
s 11
f 14/14/15 13/13/14 15/15/16 
s 12
f 15/15/16 16/16/17 14/14/15 
s 13
f 11/17/18 10/18/19 3/19/20 
s 14
f 3/19/20 2/20/21 11/17/18 
s 15
f 13/21/22 11/17/18 2/20/21 
s 16
f 2/20/23 1/22/24 13/21/22 
s 17
f 15/23/25 13/21/22 1/22/24 
s 18
f 1/22/24 5/24/26 15/23/25 
s 19
f 16/25/27 15/23/25 5/24/26 
s 20
f 5/24/26 7/26/28 16/25/27 
s 21
f 14/27/29 16/25/27 7/26/28 
s 22
f 7/26/28 8/28/30 14/27/29 
s 23
f 12/29/31 14/27/29 8/28/30 
s 24
f 8/28/30 6/30/32 12/29/31 
s 25
f 9/31/33 12/29/31 6/30/32 
s 26
f 6/30/32 4/32/34 9/31/33 
s 27
f 10/33/35 9/31/33 4/32/34 
s 28
f 4/32/34 3/34/36 10/33/35 
s 29
f 17/1/37 18/2/38 19/3/39 
s 30
f 17/1/37 19/3/39 20/4/40 
s 31
f 20/4/40 21/5/41 17/1/37 
s 32
f 21/5/41 20/4/42 22/6/43 
s 33
f 22/6/43 23/7/44 21/5/41 
s 34
f 23/7/44 22/6/43 24/8/45 
s 35
f 25/9/46 26/10/47 27/11/48 
s 36
f 27/11/48 28/12/49 25/9/46 
s 37
f 28/12/49 27/11/48 29/13/50 
s 38
f 29/13/50 30/14/51 28/12/49 
s 39
f 30/14/51 29/13/50 31/15/52 
s 40
f 31/15/52 32/16/53 30/14/51 
s 41
f 27/17/54 26/18/55 19/19/56 
s 42
f 19/19/56 18/20/57 27/17/54 
s 43
f 29/21/58 27/17/54 18/20/57 
s 44
f 18/20/57 17/22/59 29/21/58 
s 45
f 31/23/60 29/21/58 17/22/59 
s 46
f 17/22/59 21/24/61 31/23/60 
s 47
f 32/25/62 31/23/60 21/24/61 
s 48
f 21/24/61 23/26/63 32/25/62 
s 49
f 30/27/64 32/25/62 23/26/63 
s 50
f 23/26/63 24/28/65 30/27/64 
s 51
f 28/29/66 30/27/64 24/28/65 
s 52
f 24/28/65 22/30/67 28/29/66 
s 53
f 25/31/68 28/29/66 22/30/67 
s 54
f 22/30/67 20/32/69 25/31/68 
s 55
f 26/33/70 25/31/68 20/32/69 
s 56
f 20/32/69 19/34/71 26/33/70 
s 57
f 33/1/72 34/2/73 35/3/74 
s 58
f 33/1/72 35/3/74 36/4/75 
s 59
f 36/4/75 37/5/76 33/1/72 
s 60
f 37/5/76 36/4/75 38/6/77 
s 61
f 38/6/77 39/7/78 37/5/76 
s 62
f 39/7/78 38/6/77 40/8/79 
s 63
f 41/9/80 42/10/80 43/11/81 
s 64
f 43/11/81 44/12/82 41/9/83 
s 65
f 44/12/82 43/11/81 45/13/84 
s 66
f 45/13/84 46/14/85 44/12/82 
s 67
f 46/14/85 45/13/84 47/15/86 
s 68
f 47/15/86 48/16/87 46/14/85 
s 69
f 43/17/88 42/18/89 35/19/90 
s 70
f 35/19/90 34/20/91 43/17/88 
s 71
f 45/21/92 43/17/88 34/20/91 
s 72
f 34/20/91 33/22/93 45/21/92 
s 73
f 47/23/94 45/21/92 33/22/93 
s 74
f 33/22/93 37/24/95 47/23/94 
s 75
f 48/25/96 47/23/94 37/24/95 
s 76
f 37/24/95 39/26/97 48/25/96 
s 77
f 46/27/98 48/25/96 39/26/97 
s 78
f 39/26/97 40/28/99 46/27/98 
s 79
f 44/29/100 46/27/98 40/28/99 
s 80
f 40/28/99 38/30/101 44/29/100 
s 81
f 41/31/102 44/29/100 38/30/101 
s 82
f 38/30/101 36/32/103 41/31/102 
s 83
f 42/33/104 41/31/102 36/32/103 
s 84
f 36/32/103 35/34/105 42/33/104 
s 85
f 49/1/106 50/2/107 51/3/108 
s 86
f 49/1/106 51/3/108 52/4/109 
s 87
f 52/4/109 53/5/110 49/1/106 
s 88
f 53/5/110 52/4/109 54/6/111 
s 89
f 54/6/111 55/7/112 53/5/110 
s 90
f 55/7/112 54/6/111 56/8/113 
s 91
f 57/9/114 58/10/115 59/11/116 
s 92
f 59/11/116 60/12/117 57/9/114 
s 93
f 60/12/117 59/11/116 61/13/118 
s 94
f 61/13/118 62/14/119 60/12/117 
s 95
f 62/14/119 61/13/118 63/15/120 
s 96
f 63/15/120 64/16/121 62/14/119 
s 97
f 59/17/122 58/18/123 51/19/124 
s 98
f 51/19/124 50/20/125 59/17/122 
s 99
f 61/21/126 59/17/122 50/20/125 
s 100
f 50/20/125 49/22/127 61/21/126 
s 101
f 63/23/128 61/21/126 49/22/127 
s 102
f 49/22/127 53/24/129 63/23/128 
s 103
f 64/25/130 63/23/128 53/24/129 
s 104
f 53/24/129 55/26/131 64/25/130 
s 105
f 62/27/132 64/25/130 55/26/131 
s 106
f 55/26/131 56/28/133 62/27/132 
s 107
f 60/29/134 62/27/132 56/28/133 
s 108
f 56/28/133 54/30/135 60/29/134 
s 109
f 57/31/136 60/29/134 54/30/135 
s 110
f 54/30/135 52/32/137 57/31/136 
s 111
f 58/33/138 57/31/136 52/32/137 
s 112
f 52/32/137 51/34/139 58/33/138 
s 113
f 65/35/140 66/36/141 67/37/142 
s 114
f 67/37/142 68/38/143 65/35/140 
s 115
f 68/38/143 67/37/142 69/39/144 
s 116
f 69/39/144 70/40/145 68/38/143 
s 117
f 71/41/146 70/40/145 69/39/144 
s 118
f 69/39/144 72/42/147 71/41/146 
s 119
f 73/43/148 74/44/149 75/45/150 
s 120
f 75/45/150 76/46/151 73/43/148 
s 121
f 76/46/151 75/45/150 77/47/152 
s 122
f 77/47/152 78/48/153 76/46/151 
s 123
f 79/49/154 78/48/153 77/47/152 
s 124
f 77/47/152 80/50/155 79/49/154 
s 125
f 67/51/156 66/52/157 73/53/158 
s 126
f 73/53/158 76/54/159 67/51/156 
s 127
f 69/55/160 67/51/156 76/54/159 
s 128
f 76/54/161 78/56/162 69/55/160 
s 129
f 72/57/163 69/55/160 78/56/162 
s 130
f 78/56/162 79/58/164 72/57/163 
s 131
f 71/59/165 72/57/163 79/58/164 
s 132
f 79/58/164 80/60/166 71/59/165 
s 133
f 70/61/167 71/59/165 80/60/166 
s 134
f 80/60/166 77/62/168 70/61/167 
s 135
f 68/63/169 70/61/167 77/62/168 
s 136
f 77/62/168 75/64/170 68/63/169 
s 137
f 65/65/171 68/63/169 75/64/170 
s 138
f 75/64/170 74/66/172 65/65/171 
s 139
f 66/67/173 65/65/171 74/66/172 
s 140
f 74/66/172 73/68/174 66/67/173 
s 141
f 81/69/175 82/70/176 83/71/177 
s 142
f 81/69/175 83/71/177 84/72/178 
s 143
f 84/72/178 85/73/179 81/69/175 
s 144
f 85/73/179 84/72/178 86/74/180 
s 145
f 86/74/180 87/75/181 85/73/179 
s 146
f 88/76/182 87/75/181 86/74/180 
s 147
f 89/77/183 90/78/184 91/79/185 
s 148
f 89/77/183 91/79/185 92/80/186 
s 149
f 92/80/186 93/81/187 89/77/183 
s 150
f 93/81/187 92/80/186 94/82/188 
s 151
f 94/82/188 95/83/189 93/81/187 
s 152
f 96/84/190 95/83/189 94/82/188 
s 153
f 81/85/191 85/86/192 91/87/193 
s 154
f 91/87/193 90/88/194 81/85/191 
s 155
f 82/89/195 81/85/191 90/88/194 
s 156
f 90/88/194 89/90/196 82/89/195 
s 157
f 83/91/197 82/89/195 89/90/196 
s 158
f 89/90/196 93/92/198 83/91/197 
s 159
f 84/93/199 83/91/197 93/92/198 
s 160
f 93/92/198 95/94/200 84/93/199 
s 161
f 86/95/201 84/93/199 95/94/200 
s 162
f 95/94/200 96/96/202 86/95/201 
s 163
f 88/97/203 86/95/201 96/96/202 
s 164
f 96/96/202 94/98/204 88/97/203 
s 165
f 87/99/205 88/97/203 94/98/204 
s 166
f 94/98/204 92/100/206 87/99/205 
s 167
f 85/101/207 87/99/205 92/100/206 
s 168
f 92/100/206 91/102/208 85/101/207 
s 169
f 97/69/209 98/70/210 99/71/211 
s 170
f 97/69/209 99/71/211 100/72/212 
s 171
f 100/72/212 101/73/213 97/69/209 
s 172
f 101/73/213 100/72/212 102/74/214 
s 173
f 102/74/214 103/75/215 101/73/213 
s 174
f 104/76/216 103/75/215 102/74/214 
s 175
f 105/77/217 106/78/218 107/79/219 
s 176
f 105/77/217 107/79/219 108/80/220 
s 177
f 108/80/220 109/81/221 105/77/217 
s 178
f 109/81/221 108/80/220 110/82/222 
s 179
f 110/82/222 111/83/223 109/81/221 
s 180
f 112/84/224 111/83/223 110/82/222 
s 181
f 97/85/225 101/86/226 107/87/227 
s 182
f 107/87/227 106/88/228 97/85/225 
s 183
f 98/89/229 97/85/225 106/88/228 
s 184
f 106/88/228 105/90/230 98/89/229 
s 185
f 99/91/231 98/89/229 105/90/230 
s 186
f 105/90/230 109/92/232 99/91/231 
s 187
f 100/93/233 99/91/231 109/92/232 
s 188
f 109/92/232 111/94/234 100/93/233 
s 189
f 102/95/235 100/93/233 111/94/234 
s 190
f 111/94/234 112/96/236 102/95/235 
s 191
f 104/97/237 102/95/235 112/96/236 
s 192
f 112/96/236 110/98/238 104/97/237 
s 193
f 103/99/239 104/97/237 110/98/238 
s 194
f 110/98/238 108/100/240 103/99/239 
s 195
f 101/101/241 103/99/239 108/100/240 
s 196
f 108/100/240 107/102/242 101/101/241 
s 197
f 113/35/243 114/36/244 115/37/245 
s 198
f 115/37/245 116/38/246 113/35/243 
s 199
f 116/38/246 115/37/245 117/39/247 
s 200
f 117/39/247 118/40/248 116/38/246 
s 201
f 119/41/249 118/40/248 117/39/247 
s 202
f 117/39/247 120/42/250 119/41/249 
s 203
f 121/43/251 122/44/252 123/45/253 
s 204
f 123/45/253 124/46/254 121/43/251 
s 205
f 124/46/254 123/45/253 125/47/255 
s 206
f 125/47/255 126/48/256 124/46/254 
s 207
f 127/49/257 126/48/256 125/47/255 
s 208
f 125/47/255 128/50/258 127/49/257 
s 209
f 115/51/259 114/52/260 121/53/261 
s 210
f 121/53/261 124/54/262 115/51/259 
s 211
f 117/55/263 115/51/259 124/54/262 
s 212
f 124/54/262 126/56/264 117/55/263 
s 213
f 120/57/265 117/55/263 126/56/264 
s 214
f 126/56/264 127/58/266 120/57/265 
s 215
f 119/59/267 120/57/265 127/58/266 
s 216
f 127/58/266 128/60/268 119/59/267 
s 217
f 118/61/269 119/59/267 128/60/268 
s 218
f 128/60/268 125/62/270 118/61/269 
s 219
f 116/63/271 118/61/269 125/62/270 
s 220
f 125/62/270 123/64/272 116/63/271 
s 221
f 113/65/273 116/63/271 123/64/272 
s 222
f 123/64/272 122/66/274 113/65/273 
s 223
f 114/67/275 113/65/273 122/66/274 
s 224
f 122/66/274 121/68/276 114/67/275 
s 225
f 129/103/277 130/104/278 131/105/279 
s 226
f 131/105/279 132/106/280 129/103/277 
s 227
f 133/107/281 129/103/277 132/106/280 
s 228
f 132/106/280 134/108/282 133/107/281 
s 229
f 135/109/283 136/110/284 137/111/285 
s 230
f 137/111/285 138/112/286 135/109/283 
s 231
f 138/112/286 137/111/285 139/113/287 
s 232
f 139/113/287 140/114/288 138/112/286 
s 233
f 137/115/289 136/116/290 130/117/291 
s 234
f 130/117/291 129/118/292 137/115/289 
s 235
f 139/119/293 137/115/289 129/118/292 
s 236
f 129/118/292 133/120/294 139/119/293 
s 237
f 140/121/295 139/119/293 133/120/294 
s 238
f 133/120/294 134/122/296 140/121/295 
s 239
f 138/123/297 140/121/295 134/122/296 
s 240
f 134/122/296 132/124/298 138/123/297 
s 241
f 135/125/299 138/123/297 132/124/298 
s 242
f 132/124/298 131/126/300 135/125/299 
s 243
f 136/127/301 135/125/299 131/126/300 
s 244
f 131/126/300 130/128/302 136/127/301 
s 245
f 141/69/303 142/70/304 143/71/305 
s 246
f 141/69/303 143/71/305 144/72/306 
s 247
f 144/72/306 145/73/307 141/69/303 
s 248
f 145/73/307 144/72/306 146/74/308 
s 249
f 146/74/308 147/75/309 145/73/307 
s 250
f 148/76/310 147/75/309 146/74/308 
s 251
f 149/77/311 150/78/312 151/79/313 
s 252
f 149/77/311 151/79/313 152/80/314 
s 253
f 152/80/314 153/81/315 149/77/311 
s 254
f 153/81/315 152/80/314 154/82/316 
s 255
f 154/82/316 155/83/317 153/81/315 
s 256
f 156/84/318 155/83/318 154/82/318 
s 257
f 141/85/319 145/86/320 151/87/321 
s 258
f 151/87/321 150/88/322 141/85/319 
s 259
f 142/89/323 141/85/319 150/88/322 
s 260
f 150/88/322 149/90/324 142/89/323 
s 261
f 143/91/325 142/89/323 149/90/324 
s 262
f 149/90/324 153/92/326 143/91/325 
s 263
f 144/93/327 143/91/325 153/92/326 
s 264
f 153/92/326 155/94/328 144/93/327 
s 265
f 146/95/329 144/93/327 155/94/328 
s 266
f 155/94/328 156/96/330 146/95/329 
s 267
f 148/97/331 146/95/329 156/96/330 
s 268
f 156/96/330 154/98/332 148/97/331 
s 269
f 147/99/333 148/97/331 154/98/332 
s 270
f 154/98/332 152/100/334 147/99/333 
s 271
f 145/101/335 147/99/333 152/100/334 
s 272
f 152/100/334 151/102/336 145/101/335 
s 273
f 157/69/337 158/70/338 159/71/339 
s 274
f 157/69/337 159/71/339 160/72/340 
s 275
f 160/72/340 161/73/341 157/69/337 
s 276
f 161/73/341 160/72/340 162/74/342 
s 277
f 162/74/342 163/75/343 161/73/341 
s 278
f 164/76/344 163/75/343 162/74/342 
s 279
f 165/77/345 166/78/346 167/79/347 
s 280
f 165/77/345 167/79/347 168/80/348 
s 281
f 168/80/348 169/81/349 165/77/345 
s 282
f 169/81/349 168/80/348 170/82/350 
s 283
f 170/82/350 171/83/351 169/81/349 
s 284
f 172/84/352 171/83/351 170/82/350 
s 285
f 157/85/353 161/86/354 167/87/355 
s 286
f 167/87/355 166/88/356 157/85/353 
s 287
f 158/89/357 157/85/353 166/88/356 
s 288
f 166/88/356 165/90/358 158/89/357 
s 289
f 159/91/359 158/89/357 165/90/358 
s 290
f 165/90/358 169/92/360 159/91/359 
s 291
f 160/93/361 159/91/359 169/92/360 
s 292
f 169/92/360 171/94/362 160/93/361 
s 293
f 162/95/363 160/93/361 171/94/362 
s 294
f 171/94/362 172/96/364 162/95/363 
s 295
f 164/97/365 162/95/363 172/96/364 
s 296
f 172/96/364 170/98/366 164/97/365 
s 297
f 163/99/367 164/97/365 170/98/366 
s 298
f 170/98/366 168/100/368 163/99/367 
s 299
f 161/101/369 163/99/367 168/100/368 
s 300
f 168/100/368 167/102/370 161/101/369 
s 301
f 173/103/371 174/104/372 175/105/373 
s 302
f 175/105/373 176/106/374 173/103/371 
s 303
f 177/107/375 173/103/371 176/106/374 
s 304
f 176/106/374 178/108/376 177/107/375 
s 305
f 179/109/377 180/110/378 181/111/379 
s 306
f 181/111/379 182/112/380 179/109/377 
s 307
f 182/112/380 181/111/379 183/113/381 
s 308
f 183/113/381 184/114/382 182/112/380 
s 309
f 181/115/383 180/116/384 174/117/385 
s 310
f 174/117/385 173/118/386 181/115/383 
s 311
f 183/119/387 181/115/383 173/118/386 
s 312
f 173/118/386 177/120/388 183/119/387 
s 313
f 184/121/389 183/119/387 177/120/388 
s 314
f 177/120/388 178/122/390 184/121/389 
s 315
f 182/123/391 184/121/389 178/122/390 
s 316
f 178/122/390 176/124/392 182/123/391 
s 317
f 179/125/393 182/123/391 176/124/392 
s 318
f 176/124/392 175/126/394 179/125/393 
s 319
f 180/127/395 179/125/393 175/126/394 
s 320
f 175/126/394 174/128/396 180/127/395 
s 321
f 185/129/397 186/130/398 187/131/399 
s 322
f 186/130/398 185/129/397 188/132/400 
s 323
f 188/132/400 189/133/401 186/130/398 
s 324
f 190/134/402 189/133/401 188/132/400 
s 325
f 187/131/399 191/135/403 185/129/397 
s 326
f 192/136/404 185/129/397 191/135/403 
s 327
f 185/129/397 192/136/404 193/137/405 
s 328
f 193/137/405 188/132/400 185/129/397 
s 329
f 194/138/406 188/132/400 193/137/405 
s 330
f 188/132/400 194/138/406 190/134/402 
s 331
f 190/134/402 194/138/406 195/139/407 
s 332
f 195/139/407 196/140/408 190/134/402 
s 333
f 191/135/403 187/131/399 197/141/409 
s 334
f 197/141/409 198/142/410 191/135/403 
s 335
f 199/143/411 191/135/403 198/142/410 
s 336
f 191/135/403 199/143/411 192/136/404 
s 337
f 192/136/404 199/143/411 200/144/412 
s 338
f 200/144/412 201/145/413 192/136/404 
s 339
f 192/136/404 201/145/413 202/146/414 
s 340
f 202/146/414 193/137/405 192/136/404 
s 341
f 193/137/405 202/146/414 194/138/406 
s 342
f 203/147/415 198/142/410 197/141/409 
s 343
f 198/142/410 203/147/415 204/148/416 
s 344
f 204/148/416 200/144/412 198/142/410 
s 345
f 198/142/410 200/144/412 199/143/411 
s 346
f 197/141/409 205/149/417 203/147/415 
s 347
f 203/147/415 205/149/417 206/150/418 
s 348
f 206/150/418 207/151/419 203/147/415 
s 349
f 204/148/416 203/147/415 207/151/419 
s 350
f 207/151/419 208/152/420 204/148/416 
s 351
f 204/148/416 208/152/420 201/145/413 
s 352
f 201/145/413 200/144/412 204/148/416 
s 353
f 195/139/407 207/151/419 206/150/418 
s 354
f 207/151/419 195/139/407 209/153/421 
s 355
f 209/153/421 208/152/420 207/151/419 
s 356
f 201/145/413 208/152/420 209/153/421 
s 357
f 209/153/421 202/146/414 201/145/413 
s 358
f 194/138/406 202/146/414 209/153/421 
s 359
f 209/153/421 195/139/407 194/138/406 
s 360
f 206/150/418 196/140/408 195/139/407 
s 361
f 210/154/422 211/155/423 212/156/424 
s 362
f 211/155/423 210/154/422 213/157/425 
s 363
f 213/157/425 214/158/426 211/155/423 
s 364
f 215/159/427 214/158/426 213/157/425 
s 365
f 212/156/424 216/160/428 210/154/422 
s 366
f 217/161/429 210/154/422 216/160/428 
s 367
f 210/154/422 217/161/429 218/162/430 
s 368
f 218/162/430 213/157/425 210/154/422 
s 369
f 219/163/431 213/157/425 218/162/430 
s 370
f 213/157/425 219/163/431 215/159/427 
s 371
f 215/159/427 219/163/431 220/164/432 
s 372
f 220/164/432 221/165/433 215/159/427 
s 373
f 216/160/428 212/156/424 222/166/434 
s 374
f 222/166/434 223/167/435 216/160/428 
s 375
f 224/168/436 216/160/428 223/167/435 
s 376
f 216/160/428 224/168/436 217/161/429 
s 377
f 217/161/429 224/168/436 225/169/437 
s 378
f 225/169/437 226/170/438 217/161/429 
s 379
f 217/161/429 226/170/438 227/171/439 
s 380
f 227/171/439 218/162/430 217/161/429 
s 381
f 218/162/430 227/171/439 219/163/431 
s 382
f 228/172/440 223/167/435 222/166/434 
s 383
f 223/167/435 228/172/440 229/173/441 
s 384
f 229/173/441 225/169/437 223/167/435 
s 385
f 223/167/435 225/169/437 224/168/436 
s 386
f 222/166/434 230/174/442 228/172/440 
s 387
f 228/172/440 230/174/442 231/175/443 
s 388
f 231/175/443 232/176/444 228/172/440 
s 389
f 229/173/441 228/172/440 232/176/444 
s 390
f 232/176/444 233/177/445 229/173/441 
s 391
f 229/173/441 233/177/445 226/170/438 
s 392
f 226/170/438 225/169/437 229/173/441 
s 393
f 220/164/432 232/176/444 231/175/443 
s 394
f 232/176/444 220/164/432 234/178/446 
s 395
f 234/178/446 233/177/445 232/176/444 
s 396
f 226/170/438 233/177/445 234/178/446 
s 397
f 234/178/446 227/171/439 226/170/438 
s 398
f 219/163/431 227/171/439 234/178/446 
s 399
f 234/178/446 220/164/432 219/163/431 
s 400
f 231/175/443 221/165/433 220/164/432 
s 401
f 235/179/447 236/180/448 237/181/449 
s 402
f 236/180/448 235/179/447 238/182/450 
s 403
f 238/182/450 239/183/451 236/180/448 
s 404
f 240/184/452 239/183/451 238/182/450 
s 405
f 237/181/449 241/185/453 235/179/447 
s 406
f 242/186/454 235/179/447 241/185/453 
s 407
f 235/179/447 242/186/454 243/187/455 
s 408
f 243/187/455 238/182/450 235/179/447 
s 409
f 244/188/456 238/182/450 243/187/455 
s 410
f 238/182/450 244/188/456 240/184/452 
s 411
f 240/184/452 244/188/456 245/189/457 
s 412
f 245/189/457 246/190/458 240/184/452 
s 413
f 241/185/453 237/181/449 247/191/459 
s 414
f 247/191/459 248/192/460 241/185/453 
s 415
f 249/193/461 241/185/453 248/192/460 
s 416
f 241/185/453 249/193/461 242/186/454 
s 417
f 242/186/454 249/193/461 250/194/462 
s 418
f 250/194/462 251/195/463 242/186/454 
s 419
f 242/186/454 251/195/463 252/196/464 
s 420
f 252/196/464 243/187/455 242/186/454 
s 421
f 243/187/455 252/196/464 244/188/456 
s 422
f 253/197/465 248/192/460 247/191/459 
s 423
f 248/192/460 253/197/465 254/198/466 
s 424
f 254/198/466 250/194/462 248/192/460 
s 425
f 248/192/460 250/194/462 249/193/461 
s 426
f 247/191/459 255/199/467 253/197/465 
s 427
f 253/197/465 255/199/467 256/200/468 
s 428
f 256/200/468 257/201/469 253/197/465 
s 429
f 254/198/466 253/197/465 257/201/469 
s 430
f 257/201/469 258/202/470 254/198/466 
s 431
f 254/198/466 258/202/470 251/195/463 
s 432
f 251/195/463 250/194/462 254/198/466 
s 433
f 245/189/457 257/201/469 256/200/468 
s 434
f 257/201/469 245/189/457 259/203/471 
s 435
f 259/203/471 258/202/470 257/201/469 
s 436
f 251/195/463 258/202/470 259/203/471 
s 437
f 259/203/471 252/196/464 251/195/463 
s 438
f 244/188/456 252/196/464 259/203/471 
s 439
f 259/203/471 245/189/457 244/188/456 
s 440
f 256/200/468 246/190/458 245/189/457 
s 441
f 260/129/472 261/130/473 262/131/474 
s 442
f 261/130/473 260/129/472 263/132/475 
s 443
f 263/132/475 264/133/476 261/130/473 
s 444
f 265/134/477 264/133/476 263/132/475 
s 445
f 262/131/474 266/135/478 260/129/472 
s 446
f 267/136/479 260/129/472 266/135/478 
s 447
f 260/129/472 267/136/479 268/137/480 
s 448
f 268/137/480 263/132/475 260/129/472 
s 449
f 269/138/481 263/132/475 268/137/480 
s 450
f 263/132/475 269/138/481 265/134/477 
s 451
f 265/134/477 269/138/481 270/139/482 
s 452
f 270/139/482 271/140/483 265/134/477 
s 453
f 266/135/478 262/131/474 272/141/484 
s 454
f 272/141/484 273/142/485 266/135/478 
s 455
f 274/143/486 266/135/478 273/142/485 
s 456
f 266/135/478 274/143/486 267/136/479 
s 457
f 267/136/479 274/143/486 275/144/487 
s 458
f 275/144/487 276/145/488 267/136/479 
s 459
f 267/136/479 276/145/488 277/146/489 
s 460
f 277/146/489 268/137/480 267/136/479 
s 461
f 268/137/480 277/146/489 269/138/481 
s 462
f 278/147/490 273/142/485 272/141/484 
s 463
f 273/142/485 278/147/490 279/148/491 
s 464
f 279/148/491 275/144/487 273/142/485 
s 465
f 273/142/485 275/144/487 274/143/486 
s 466
f 272/141/484 280/149/492 278/147/490 
s 467
f 278/147/490 280/149/492 281/150/493 
s 468
f 281/150/493 282/151/494 278/147/490 
s 469
f 279/148/491 278/147/490 282/151/494 
s 470
f 282/151/494 283/152/495 279/148/491 
s 471
f 279/148/491 283/152/495 276/145/488 
s 472
f 276/145/488 275/144/487 279/148/491 
s 473
f 270/139/482 282/151/494 281/150/493 
s 474
f 282/151/494 270/139/482 284/153/496 
s 475
f 284/153/496 283/152/495 282/151/494 
s 476
f 276/145/488 283/152/495 284/153/496 
s 477
f 284/153/496 277/146/489 276/145/488 
s 478
f 269/138/481 277/146/489 284/153/496 
s 479
f 284/153/496 270/139/482 269/138/481 
s 480
f 281/150/493 271/140/483 270/139/482 
s 481
f 285/154/497 286/155/498 287/156/499 
s 482
f 286/155/498 285/154/497 288/157/500 
s 483
f 288/157/500 289/158/501 286/155/498 
s 484
f 290/159/502 289/158/501 288/157/500 
s 485
f 287/156/499 291/160/503 285/154/497 
s 486
f 292/161/504 285/154/497 291/160/503 
s 487
f 285/154/497 292/161/504 293/162/505 
s 488
f 293/162/505 288/157/500 285/154/497 
s 489
f 294/163/506 288/157/500 293/162/505 
s 490
f 288/157/500 294/163/506 290/159/502 
s 491
f 290/159/502 294/163/506 295/164/507 
s 492
f 295/164/507 296/165/508 290/159/502 
s 493
f 291/160/503 287/156/499 297/166/509 
s 494
f 297/166/509 298/167/510 291/160/503 
s 495
f 299/168/511 291/160/503 298/167/510 
s 496
f 291/160/503 299/168/511 292/161/504 
s 497
f 292/161/504 299/168/511 300/169/512 
s 498
f 300/169/512 301/170/513 292/161/504 
s 499
f 292/161/504 301/170/513 302/171/514 
s 500
f 302/171/514 293/162/505 292/161/504 
s 501
f 293/162/505 302/171/514 294/163/506 
s 502
f 303/172/515 298/167/510 297/166/509 
s 503
f 298/167/510 303/172/515 304/173/516 
s 504
f 304/173/516 300/169/512 298/167/510 
s 505
f 298/167/510 300/169/512 299/168/511 
s 506
f 297/166/509 305/174/517 303/172/515 
s 507
f 303/172/515 305/174/517 306/175/518 
s 508
f 306/175/518 307/176/519 303/172/515 
s 509
f 304/173/516 303/172/515 307/176/519 
s 510
f 307/176/519 308/177/520 304/173/516 
s 511
f 304/173/516 308/177/520 301/170/513 
s 512
f 301/170/513 300/169/521 304/173/521 
s 513
f 295/164/507 307/176/519 306/175/518 
s 514
f 307/176/519 295/164/507 309/178/522 
s 515
f 309/178/522 308/177/520 307/176/519 
s 516
f 301/170/513 308/177/520 309/178/522 
s 517
f 309/178/522 302/171/514 301/170/513 
s 518
f 294/163/506 302/171/514 309/178/522 
s 519
f 309/178/522 295/164/507 294/163/506 
s 520
f 306/175/518 296/165/508 295/164/507 
s 521
f 310/179/523 311/180/524 312/181/525 
s 522
f 311/180/524 310/179/523 313/182/526 
s 523
f 313/182/526 314/183/527 311/180/524 
s 524
f 315/184/528 314/183/527 313/182/526 
s 525
f 312/181/525 316/185/529 310/179/523 
s 526
f 317/186/530 310/179/523 316/185/529 
s 527
f 310/179/523 317/186/530 318/187/531 
s 528
f 318/187/531 313/182/526 310/179/523 
s 529
f 319/188/532 313/182/526 318/187/531 
s 530
f 313/182/526 319/188/532 315/184/528 
s 531
f 315/184/528 319/188/532 320/189/533 
s 532
f 320/189/533 321/190/534 315/184/528 
s 533
f 316/185/529 312/181/525 322/191/535 
s 534
f 322/191/535 323/192/536 316/185/529 
s 535
f 324/193/537 316/185/529 323/192/536 
s 536
f 316/185/529 324/193/537 317/186/530 
s 537
f 317/186/530 324/193/537 325/194/538 
s 538
f 325/194/538 326/195/539 317/186/530 
s 539
f 317/186/530 326/195/539 327/196/540 
s 540
f 327/196/540 318/187/531 317/186/530 
s 541
f 318/187/531 327/196/540 319/188/532 
s 542
f 328/197/541 323/192/536 322/191/535 
s 543
f 323/192/536 328/197/541 329/198/542 
s 544
f 329/198/542 325/194/538 323/192/536 
s 545
f 323/192/536 325/194/538 324/193/537 
s 546
f 322/191/535 330/199/543 328/197/541 
s 547
f 328/197/541 330/199/543 331/200/544 
s 548
f 331/200/544 332/201/545 328/197/541 
s 549
f 329/198/542 328/197/541 332/201/545 
s 550
f 332/201/545 333/202/546 329/198/542 
s 551
f 329/198/542 333/202/546 326/195/539 
s 552
f 326/195/539 325/194/538 329/198/542 
s 553
f 320/189/533 332/201/545 331/200/544 
s 554
f 332/201/545 320/189/533 334/203/547 
s 555
f 334/203/547 333/202/546 332/201/545 
s 556
f 326/195/539 333/202/546 334/203/547 
s 557
f 334/203/547 327/196/540 326/195/539 
s 558
f 319/188/532 327/196/540 334/203/547 
s 559
f 334/203/547 320/189/533 319/188/532 
s 560
f 331/200/544 321/190/534 320/189/533 
s 561
f 335/129/548 336/130/549 337/131/550 
s 562
f 336/130/549 335/129/548 338/132/551 
s 563
f 338/132/551 339/133/552 336/130/549 
s 564
f 340/134/553 339/133/552 338/132/551 
s 565
f 337/131/550 341/135/554 335/129/548 
s 566
f 342/136/555 335/129/548 341/135/554 
s 567
f 335/129/548 342/136/555 343/137/556 
s 568
f 343/137/556 338/132/551 335/129/548 
s 569
f 344/138/557 338/132/551 343/137/556 
s 570
f 338/132/551 344/138/557 340/134/553 
s 571
f 340/134/553 344/138/557 345/139/558 
s 572
f 345/139/558 346/140/559 340/134/553 
s 573
f 341/135/554 337/131/550 347/141/560 
s 574
f 347/141/560 348/142/561 341/135/554 
s 575
f 349/143/562 341/135/554 348/142/561 
s 576
f 341/135/554 349/143/562 342/136/555 
s 577
f 342/136/555 349/143/562 350/144/563 
s 578
f 350/144/563 351/145/564 342/136/555 
s 579
f 342/136/555 351/145/564 352/146/565 
s 580
f 352/146/565 343/137/556 342/136/555 
s 581
f 343/137/556 352/146/565 344/138/557 
s 582
f 353/147/566 348/142/561 347/141/560 
s 583
f 348/142/561 353/147/566 354/148/567 
s 584
f 354/148/567 350/144/563 348/142/561 
s 585
f 348/142/561 350/144/563 349/143/562 
s 586
f 347/141/560 355/149/568 353/147/566 
s 587
f 353/147/566 355/149/568 356/150/569 
s 588
f 356/150/569 357/151/570 353/147/566 
s 589
f 354/148/567 353/147/566 357/151/570 
s 590
f 357/151/570 358/152/571 354/148/567 
s 591
f 354/148/567 358/152/571 351/145/564 
s 592
f 351/145/564 350/144/563 354/148/567 
s 593
f 345/139/558 357/151/570 356/150/569 
s 594
f 357/151/570 345/139/558 359/153/572 
s 595
f 359/153/572 358/152/571 357/151/570 
s 596
f 351/145/564 358/152/571 359/153/572 
s 597
f 359/153/572 352/146/565 351/145/564 
s 598
f 344/138/557 352/146/565 359/153/572 
s 599
f 359/153/572 345/139/558 344/138/557 
s 600
f 356/150/569 346/140/559 345/139/558 
s 601
f 360/154/573 361/155/574 362/156/575 
s 602
f 361/155/574 360/154/573 363/157/576 
s 603
f 363/157/576 364/158/577 361/155/574 
s 604
f 365/159/578 364/158/577 363/157/576 
s 605
f 362/156/575 366/160/579 360/154/573 
s 606
f 367/161/580 360/154/573 366/160/579 
s 607
f 360/154/573 367/161/580 368/162/581 
s 608
f 368/162/581 363/157/576 360/154/573 
s 609
f 369/163/582 363/157/576 368/162/581 
s 610
f 363/157/576 369/163/582 365/159/578 
s 611
f 365/159/578 369/163/582 370/164/583 
s 612
f 370/164/583 371/165/584 365/159/578 
s 613
f 366/160/579 362/156/575 372/166/585 
s 614
f 372/166/585 373/167/586 366/160/579 
s 615
f 374/168/587 366/160/579 373/167/586 
s 616
f 366/160/579 374/168/587 367/161/580 
s 617
f 367/161/580 374/168/587 375/169/588 
s 618
f 375/169/588 376/170/589 367/161/580 
s 619
f 367/161/580 376/170/589 377/171/590 
s 620
f 377/171/590 368/162/581 367/161/580 
s 621
f 368/162/581 377/171/590 369/163/582 
s 622
f 378/172/591 373/167/586 372/166/585 
s 623
f 373/167/586 378/172/591 379/173/592 
s 624
f 379/173/592 375/169/588 373/167/586 
s 625
f 373/167/586 375/169/588 374/168/587 
s 626
f 372/166/585 380/174/593 378/172/591 
s 627
f 378/172/591 380/174/593 381/175/594 
s 628
f 381/175/594 382/176/595 378/172/591 
s 629
f 379/173/592 378/172/591 382/176/595 
s 630
f 382/176/595 383/177/596 379/173/592 
s 631
f 379/173/592 383/177/596 376/170/589 
s 632
f 376/170/589 375/169/588 379/173/592 
s 633
f 370/164/583 382/176/595 381/175/594 
s 634
f 382/176/595 370/164/583 384/178/597 
s 635
f 384/178/597 383/177/596 382/176/595 
s 636
f 376/170/589 383/177/596 384/178/597 
s 637
f 384/178/597 377/171/590 376/170/589 
s 638
f 369/163/582 377/171/590 384/178/597 
s 639
f 384/178/597 370/164/583 369/163/582 
s 640
f 381/175/594 371/165/584 370/164/583 
s 641
f 385/179/598 386/180/599 387/181/600 
s 642
f 386/180/599 385/179/598 388/182/601 
s 643
f 388/182/601 389/183/602 386/180/599 
s 644
f 390/184/603 389/183/602 388/182/601 
s 645
f 387/181/600 391/185/604 385/179/598 
s 646
f 392/186/605 385/179/598 391/185/604 
s 647
f 385/179/598 392/186/605 393/187/606 
s 648
f 393/187/606 388/182/601 385/179/598 
s 649
f 394/188/607 388/182/601 393/187/606 
s 650
f 388/182/601 394/188/607 390/184/603 
s 651
f 390/184/603 394/188/607 395/189/608 
s 652
f 395/189/608 396/190/609 390/184/603 
s 653
f 391/185/604 387/181/600 397/191/610 
s 654
f 397/191/610 398/192/611 391/185/604 
s 655
f 399/193/612 391/185/604 398/192/611 
s 656
f 391/185/604 399/193/612 392/186/605 
s 657
f 392/186/605 399/193/612 400/194/613 
s 658
f 400/194/613 401/195/614 392/186/605 
s 659
f 392/186/605 401/195/614 402/196/615 
s 660
f 402/196/615 393/187/606 392/186/605 
s 661
f 393/187/606 402/196/615 394/188/607 
s 662
f 403/197/616 398/192/611 397/191/610 
s 663
f 398/192/611 403/197/616 404/198/617 
s 664
f 404/198/617 400/194/613 398/192/611 
s 665
f 398/192/611 400/194/613 399/193/612 
s 666
f 397/191/610 405/199/618 403/197/616 
s 667
f 403/197/616 405/199/618 406/200/619 
s 668
f 406/200/619 407/201/620 403/197/616 
s 669
f 404/198/617 403/197/616 407/201/620 
s 670
f 407/201/620 408/202/621 404/198/617 
s 671
f 404/198/617 408/202/621 401/195/614 
s 672
f 401/195/614 400/194/613 404/198/617 
s 673
f 395/189/608 407/201/620 406/200/619 
s 674
f 407/201/620 395/189/608 409/203/622 
s 675
f 409/203/622 408/202/621 407/201/620 
s 676
f 401/195/614 408/202/621 409/203/622 
s 677
f 409/203/622 402/196/615 401/195/614 
s 678
f 394/188/607 402/196/615 409/203/622 
s 679
f 409/203/622 395/189/608 394/188/607 
s 680
f 406/200/619 396/190/609 395/189/608 
s 681
f 410/129/623 411/130/624 412/131/625 
s 682
f 411/130/624 410/129/623 413/132/626 
s 683
f 413/132/626 414/133/627 411/130/624 
s 684
f 415/134/628 414/133/627 413/132/626 
s 685
f 412/131/625 416/135/629 410/129/623 
s 686
f 417/136/630 410/129/623 416/135/629 
s 687
f 410/129/623 417/136/630 418/137/631 
s 688
f 418/137/631 413/132/626 410/129/623 
s 689
f 419/138/632 413/132/626 418/137/631 
s 690
f 413/132/626 419/138/632 415/134/628 
s 691
f 415/134/628 419/138/632 420/139/633 
s 692
f 420/139/633 421/140/634 415/134/628 
s 693
f 416/135/629 412/131/625 422/141/635 
s 694
f 422/141/635 423/142/636 416/135/629 
s 695
f 424/143/637 416/135/629 423/142/636 
s 696
f 416/135/629 424/143/637 417/136/630 
s 697
f 417/136/630 424/143/637 425/144/638 
s 698
f 425/144/638 426/145/639 417/136/630 
s 699
f 417/136/630 426/145/639 427/146/640 
s 700
f 427/146/640 418/137/631 417/136/630 
s 701
f 418/137/631 427/146/640 419/138/632 
s 702
f 428/147/641 423/142/636 422/141/635 
s 703
f 423/142/636 428/147/641 429/148/642 
s 704
f 429/148/642 425/144/638 423/142/636 
s 705
f 423/142/636 425/144/638 424/143/637 
s 706
f 422/141/635 430/149/643 428/147/641 
s 707
f 428/147/641 430/149/643 431/150/644 
s 708
f 431/150/644 432/151/645 428/147/641 
s 709
f 429/148/642 428/147/641 432/151/645 
s 710
f 432/151/645 433/152/646 429/148/642 
s 711
f 429/148/642 433/152/646 426/145/639 
s 712
f 426/145/639 425/144/638 429/148/642 
s 713
f 420/139/633 432/151/645 431/150/644 
s 714
f 432/151/645 420/139/633 434/153/647 
s 715
f 434/153/647 433/152/646 432/151/645 
s 716
f 426/145/639 433/152/646 434/153/647 
s 717
f 434/153/647 427/146/640 426/145/639 
s 718
f 419/138/632 427/146/640 434/153/647 
s 719
f 434/153/647 420/139/633 419/138/632 
s 720
f 431/150/644 421/140/634 420/139/633 
s 721
f 435/204/648 436/205/649 437/206/650 
s 722
f 436/205/649 435/204/648 438/207/651 
s 723
f 438/207/651 439/208/652 436/205/649 
s 724
f 440/209/653 439/208/652 438/207/651 
s 725
f 437/206/650 441/210/654 435/204/648 
s 726
f 442/211/655 435/204/648 441/210/654 
s 727
f 435/204/648 442/211/655 443/212/656 
s 728
f 443/212/656 438/207/651 435/204/648 
s 729
f 444/213/657 438/207/651 443/212/656 
s 730
f 438/207/651 444/213/657 440/209/653 
s 731
f 440/209/653 444/213/657 445/214/658 
s 732
f 445/214/658 446/215/659 440/209/653 
s 733
f 441/210/654 437/206/650 447/216/660 
s 734
f 447/216/660 448/217/661 441/210/654 
s 735
f 449/218/662 441/210/654 448/217/661 
s 736
f 441/210/654 449/218/662 442/211/655 
s 737
f 442/211/655 449/218/662 450/219/663 
s 738
f 450/219/663 451/220/664 442/211/655 
s 739
f 442/211/655 451/220/664 452/221/665 
s 740
f 452/221/665 443/212/656 442/211/655 
s 741
f 443/212/656 452/221/665 444/213/657 
s 742
f 453/222/666 448/217/661 447/216/660 
s 743
f 448/217/661 453/222/666 454/223/667 
s 744
f 454/223/667 450/219/663 448/217/661 
s 745
f 448/217/661 450/219/663 449/218/662 
s 746
f 447/216/660 455/224/668 453/222/666 
s 747
f 453/222/666 455/224/668 456/225/669 
s 748
f 456/225/669 457/226/670 453/222/666 
s 749
f 454/223/667 453/222/666 457/226/670 
s 750
f 457/226/670 458/227/671 454/223/667 
s 751
f 454/223/667 458/227/671 451/220/664 
s 752
f 451/220/664 450/219/663 454/223/667 
s 753
f 445/214/658 457/226/670 456/225/669 
s 754
f 457/226/670 445/214/658 459/228/672 
s 755
f 459/228/672 458/227/671 457/226/670 
s 756
f 451/220/664 458/227/671 459/228/672 
s 757
f 459/228/672 452/221/665 451/220/664 
s 758
f 444/213/657 452/221/665 459/228/672 
s 759
f 459/228/672 445/214/658 444/213/657 
s 760
f 456/225/669 446/215/659 445/214/658 
s 761
f 460/179/673 461/180/674 462/181/675 
s 762
f 461/180/674 460/179/673 463/182/676 
s 763
f 463/182/676 464/183/677 461/180/674 
s 764
f 465/184/678 464/183/677 463/182/676 
s 765
f 462/181/675 466/185/679 460/179/673 
s 766
f 467/186/680 460/179/673 466/185/679 
s 767
f 460/179/673 467/186/680 468/187/681 
s 768
f 468/187/681 463/182/676 460/179/673 
s 769
f 469/188/682 463/182/676 468/187/681 
s 770
f 463/182/676 469/188/682 465/184/678 
s 771
f 465/184/678 469/188/682 470/189/683 
s 772
f 470/189/683 471/190/684 465/184/678 
s 773
f 466/185/679 462/181/675 472/191/685 
s 774
f 472/191/685 473/192/686 466/185/679 
s 775
f 474/193/687 466/185/679 473/192/686 
s 776
f 466/185/679 474/193/687 467/186/680 
s 777
f 467/186/680 474/193/687 475/194/688 
s 778
f 475/194/688 476/195/689 467/186/680 
s 779
f 467/186/680 476/195/689 477/196/690 
s 780
f 477/196/690 468/187/681 467/186/680 
s 781
f 468/187/681 477/196/690 469/188/682 
s 782
f 478/197/691 473/192/686 472/191/685 
s 783
f 473/192/686 478/197/691 479/198/692 
s 784
f 479/198/692 475/194/688 473/192/686 
s 785
f 473/192/686 475/194/688 474/193/687 
s 786
f 472/191/685 480/199/693 478/197/691 
s 787
f 478/197/691 480/199/693 481/200/694 
s 788
f 481/200/694 482/201/695 478/197/691 
s 789
f 479/198/692 478/197/691 482/201/695 
s 790
f 482/201/695 483/202/696 479/198/692 
s 791
f 479/198/692 483/202/696 476/195/689 
s 792
f 476/195/689 475/194/688 479/198/692 
s 793
f 470/189/683 482/201/695 481/200/694 
s 794
f 482/201/695 470/189/683 484/203/697 
s 795
f 484/203/697 483/202/696 482/201/695 
s 796
f 476/195/689 483/202/696 484/203/697 
s 797
f 484/203/697 477/196/690 476/195/689 
s 798
f 469/188/682 477/196/690 484/203/697 
s 799
f 484/203/697 470/189/683 469/188/682 
s 800
f 481/200/694 471/190/684 470/189/683 
s 801
f 485/229/698 486/230/699 487/231/700 
s 802
f 486/230/699 485/229/698 488/232/701 
s 803
f 488/232/701 489/233/702 486/230/699 
s 804
f 489/233/702 488/232/701 490/234/703 
s 805
f 490/234/703 491/235/704 489/233/702 
s 806
f 487/231/700 492/236/705 485/229/698 
s 807
f 493/237/706 485/229/698 492/236/705 
s 808
f 485/229/698 493/237/706 494/238/707 
s 809
f 494/238/707 488/232/701 485/229/698 
s 810
f 488/232/701 494/238/707 495/239/708 
s 811
f 495/239/708 490/234/703 488/232/701 
s 812
f 492/236/705 487/231/700 496/240/709 
s 813
f 496/240/709 497/241/710 492/236/705 
s 814
f 498/242/711 492/236/705 497/241/710 
s 815
f 492/236/705 498/242/711 493/237/706 
s 816
f 499/243/712 493/237/706 498/242/711 
s 817
f 493/237/706 499/243/712 500/244/713 
s 818
f 500/244/713 494/238/707 493/237/706 
s 819
f 494/238/707 500/244/713 501/245/714 
s 820
f 501/245/714 495/239/708 494/238/707 
s 821
f 497/241/710 496/240/709 502/246/715 
s 822
f 502/246/715 503/247/716 497/241/710 
s 823
f 504/248/717 497/241/710 503/247/716 
s 824
f 497/241/710 504/248/717 498/242/711 
s 825
f 505/249/718 498/242/711 504/248/717 
s 826
f 498/242/711 505/249/718 499/243/712 
s 827
f 506/250/719 499/243/712 505/249/718 
s 828
f 500/244/713 499/243/712 506/250/719 
s 829
f 501/245/714 500/244/713 506/250/719 
s 830
f 506/250/719 507/251/720 501/245/714 
s 831
f 495/239/708 501/245/714 507/251/720 
s 832
f 503/247/716 502/246/715 508/252/721 
s 833
f 508/252/721 509/253/722 503/247/716 
s 834
f 510/254/723 503/247/716 509/253/722 
s 835
f 503/247/716 510/254/723 504/248/717 
s 836
f 511/255/724 504/248/717 510/254/723 
s 837
f 504/248/717 511/255/724 505/249/718 
s 838
f 506/250/719 505/249/718 511/255/724 
s 839
f 509/253/722 508/252/721 512/256/725 
s 840
f 512/256/725 513/257/726 509/253/722 
s 841
f 514/258/727 509/253/722 513/257/726 
s 842
f 509/253/722 514/258/727 510/254/723 
s 843
f 515/259/728 510/254/723 514/258/727 
s 844
f 510/254/723 515/259/728 511/255/724 
s 845
f 511/255/724 515/259/728 506/250/719 
s 846
f 513/257/726 512/256/725 516/260/729 
s 847
f 516/260/729 517/261/730 513/257/726 
s 848
f 518/262/731 513/257/726 517/261/730 
s 849
f 513/257/726 518/262/731 514/258/727 
s 850
f 519/263/732 514/258/727 518/262/731 
s 851
f 514/258/727 519/263/732 515/259/728 
s 852
f 506/250/719 515/259/728 519/263/732 
s 853
f 519/263/732 520/264/733 506/250/719 
s 854
f 520/264/733 521/265/734 506/250/719 
s 855
f 506/250/719 521/265/734 507/251/720 
s 856
f 517/261/730 516/260/729 522/266/735 
s 857
f 522/266/735 523/267/736 517/261/730 
s 858
f 524/268/737 517/261/730 523/267/736 
s 859
f 517/261/730 524/268/737 518/262/731 
s 860
f 520/264/733 518/262/731 524/268/737 
s 861
f 518/262/731 520/264/733 519/263/732 
s 862
f 523/267/736 522/266/735 491/235/704 
s 863
f 491/235/704 490/234/703 523/267/736 
s 864
f 525/269/738 523/267/736 490/234/703 
s 865
f 523/267/736 525/269/738 524/268/737 
s 866
f 521/265/734 524/268/737 525/269/738 
s 867
f 524/268/737 521/265/734 520/264/733 
s 868
f 490/234/703 495/239/708 525/269/738 
s 869
f 507/251/720 525/269/738 495/239/708 
s 870
f 525/269/738 507/251/720 521/265/734 
# 0 polygons - 870 triangles