# Blender v2.91.2 OBJ File: ''
# www.blender.org
mtllib chest.mtl
o chest_closed
v -0.045827 0.454050 -0.361148
v -0.045827 0.594675 -0.361148
v 0.045827 0.594675 -0.361148
v 0.045827 0.594675 -0.361148
v 0.045827 0.454050 -0.361148
v 0.030827 0.439050 -0.361148
v -0.045827 0.454050 -0.361148
v 0.045827 0.594675 -0.361148
v 0.030827 0.439050 -0.361148
v -0.030827 0.439050 -0.361148
v -0.045827 0.454050 -0.361148
v 0.030827 0.439050 -0.361148
v -0.045827 0.454050 -0.361148
v -0.030827 0.439050 -0.361148
v -0.032380 0.435300 -0.346148
v -0.032380 0.435300 -0.346148
v -0.049577 0.452497 -0.346148
v -0.045827 0.454050 -0.361148
v -0.030827 0.439050 -0.361148
v 0.030827 0.439050 -0.361148
v 0.032381 0.435300 -0.346148
v 0.032381 0.435300 -0.346148
v -0.032380 0.435300 -0.346148
v -0.030827 0.439050 -0.361148
v 0.030827 0.439050 -0.361148
v 0.045827 0.454050 -0.361148
v 0.049577 0.452497 -0.346148
v 0.049577 0.452497 -0.346148
v 0.032381 0.435300 -0.346148
v 0.030827 0.439050 -0.361148
v 0.045827 0.454050 -0.361148
v 0.045827 0.594675 -0.361148
v 0.049577 0.598425 -0.346148
v 0.049577 0.598425 -0.346148
v 0.049577 0.452497 -0.346148
v 0.045827 0.454050 -0.361148
v 0.045827 0.594675 -0.361148
v -0.045827 0.594675 -0.361148
v -0.049577 0.598425 -0.346148
v -0.049577 0.598425 -0.346148
v 0.049577 0.598425 -0.346148
v 0.045827 0.594675 -0.361148
v -0.045827 0.594675 -0.361148
v -0.045827 0.454050 -0.361148
v -0.049577 0.452497 -0.346148
v -0.049577 0.452497 -0.346148
v -0.049577 0.598425 -0.346148
v -0.045827 0.594675 -0.361148
v 0.032381 0.435300 -0.346148
v 0.049577 0.452497 -0.346148
v 0.049577 0.598425 -0.346148
v 0.049577 0.598425 -0.346148
v -0.049577 0.598425 -0.346148
v -0.049577 0.452497 -0.346148
v 0.032381 0.435300 -0.346148
v 0.049577 0.598425 -0.346148
v -0.049577 0.452497 -0.346148
v -0.032380 0.435300 -0.346148
v 0.032381 0.435300 -0.346148
v -0.049577 0.452497 -0.346148
v -0.656250 0.706142 0.339260
v -0.656250 0.706142 -0.339260
v -0.705000 0.720000 -0.345000
v -0.705000 0.720000 0.345000
v 0.705000 0.705000 0.360000
v 0.656250 0.699260 0.346142
v 0.656250 0.539985 0.345000
v 0.705000 0.539985 0.360000
v -0.705000 0.705000 -0.360000
v -0.656250 0.699260 -0.346142
v -0.656250 0.539985 -0.345000
v -0.705000 0.539985 -0.360000
v -0.720000 0.705000 0.345000
v -0.720000 0.705000 -0.345000
v -0.720000 0.539985 -0.345000
v -0.720000 0.539985 0.345000
v -0.705000 0.720000 0.345000
v -0.720000 0.705000 0.345000
v -0.705000 0.705000 0.360000
v -0.705000 0.720000 -0.345000
v -0.705000 0.705000 -0.360000
v -0.720000 0.705000 -0.345000
v -0.705000 0.705000 0.360000
v -0.656250 0.699260 0.346142
v -0.656250 0.706142 0.339260
v -0.656250 0.706142 0.339260
v -0.705000 0.720000 0.345000
v -0.705000 0.705000 0.360000
v 0.705000 0.705000 -0.360000
v 0.656250 0.699260 -0.346142
v 0.656250 0.706142 -0.339260
v 0.656250 0.706142 -0.339260
v 0.705000 0.720000 -0.345000
v 0.705000 0.705000 -0.360000
v -0.705000 0.720000 -0.345000
v -0.720000 0.705000 -0.345000
v -0.720000 0.705000 0.345000
v -0.705000 0.720000 0.345000
v -0.705000 0.705000 0.360000
v -0.720000 0.705000 0.345000
v -0.720000 0.539985 0.345000
v -0.705000 0.539985 0.360000
v -0.705000 0.539985 -0.360000
v -0.720000 0.539985 -0.345000
v -0.720000 0.705000 -0.345000
v -0.705000 0.705000 -0.360000
v 0.720000 0.705000 0.345000
v 0.720000 0.539985 0.345000
v 0.720000 0.539985 -0.345000
v 0.720000 0.705000 -0.345000
v 0.705000 0.720000 0.345000
v 0.705000 0.705000 0.360000
v 0.720000 0.705000 0.345000
v 0.705000 0.720000 -0.345000
v 0.720000 0.705000 -0.345000
v 0.705000 0.705000 -0.360000
v 0.705000 0.720000 -0.345000
v 0.705000 0.720000 0.345000
v 0.720000 0.705000 0.345000
v 0.720000 0.705000 -0.345000
v 0.705000 0.705000 0.360000
v 0.705000 0.539985 0.360000
v 0.720000 0.539985 0.345000
v 0.720000 0.705000 0.345000
v 0.705000 0.539985 -0.360000
v 0.705000 0.705000 -0.360000
v 0.720000 0.705000 -0.345000
v 0.720000 0.539985 -0.345000
v 0.656250 0.706142 0.339260
v 0.656250 0.706142 -0.339260
v -0.705000 0.705000 0.360000
v -0.705000 0.539985 0.360000
v -0.656250 0.539985 0.345000
v -0.656250 0.699260 0.346142
v 0.656250 0.699260 -0.346142
v 0.656250 0.539985 -0.345000
v 0.656250 0.699260 0.346142
v 0.656250 0.706142 0.339260
v -0.656250 0.706142 0.339260
v -0.656250 0.699260 0.346142
v -0.705000 0.705000 -0.360000
v -0.705000 0.720000 -0.345000
v -0.656250 0.706142 -0.339260
v -0.656250 0.706142 -0.339260
v -0.656250 0.699260 -0.346142
v -0.705000 0.705000 -0.360000
v -0.656250 0.699260 -0.346142
v -0.656250 0.706142 -0.339260
v 0.656250 0.706142 -0.339260
v 0.656250 0.699260 -0.346142
v 0.705000 0.720000 0.345000
v 0.705000 0.720000 -0.345000
v 0.705000 0.705000 -0.360000
v 0.705000 0.539985 -0.360000
v 0.705000 0.705000 0.360000
v 0.705000 0.720000 0.345000
v 0.656250 0.706142 0.339260
v 0.656250 0.706142 0.339260
v 0.656250 0.699260 0.346142
v 0.705000 0.705000 0.360000
v 0.076379 0.598425 -0.346148
v 0.076379 0.567334 -0.346148
v 0.072629 0.567334 -0.361148
v 0.072629 0.567334 -0.361148
v 0.072629 0.594679 -0.361148
v 0.076379 0.598425 -0.346148
v -0.076379 0.567334 -0.346148
v -0.076379 0.598425 -0.346148
v -0.072629 0.594679 -0.361148
v -0.072629 0.594679 -0.361148
v -0.072629 0.567334 -0.361148
v -0.076379 0.567334 -0.346148
v 0.072629 0.594679 -0.361148
v 0.072629 0.567334 -0.361148
v 0.053327 0.567334 -0.361148
v 0.053327 0.594679 -0.361148
v -0.072629 0.567334 -0.361148
v -0.072629 0.594679 -0.361148
v -0.053327 0.594679 -0.361148
v -0.053327 0.567334 -0.361148
v -0.076379 0.567334 -0.346148
v -0.072629 0.567334 -0.361148
v -0.053327 0.567334 -0.361148
v -0.049577 0.567334 -0.346148
v 0.072629 0.567334 -0.361148
v 0.076379 0.567334 -0.346148
v 0.049577 0.567334 -0.346148
v 0.053327 0.567334 -0.361148
v 0.076379 0.598425 -0.346148
v 0.072629 0.594679 -0.361148
v 0.053327 0.594679 -0.361148
v 0.049577 0.598425 -0.346148
v -0.072629 0.594679 -0.361148
v -0.076379 0.598425 -0.346148
v -0.049577 0.598425 -0.346148
v -0.049577 0.598425 -0.346148
v -0.053327 0.594679 -0.361148
v -0.072629 0.594679 -0.361148
v 0.053327 0.594679 -0.361148
v 0.053327 0.567334 -0.361148
v 0.049577 0.567334 -0.346148
v 0.049577 0.567334 -0.346148
v 0.049577 0.598425 -0.346148
v 0.053327 0.594679 -0.361148
v -0.053327 0.567334 -0.361148
v -0.053327 0.594679 -0.361148
v -0.049577 0.598425 -0.346148
v -0.049577 0.598425 -0.346148
v -0.049577 0.567334 -0.346148
v -0.053327 0.567334 -0.361148
v 0.645000 0.631140 -0.270000
v 0.645000 0.631140 0.270000
v -0.645000 0.631140 0.270000
v -0.645000 0.631140 -0.270000
v -0.656250 0.539985 0.345000
v -0.705000 0.539985 0.360000
v -0.645000 0.539985 0.270000
v -0.705000 0.539985 0.360000
v -0.720000 0.539985 0.345000
v -0.645000 0.539985 0.270000
v -0.720000 0.539985 0.345000
v -0.720000 0.539985 -0.345000
v -0.645000 0.539985 -0.270000
v -0.645000 0.539985 0.270000
v -0.720000 0.539985 -0.345000
v -0.705000 0.539985 -0.360000
v -0.645000 0.539985 -0.270000
v -0.705000 0.539985 -0.360000
v -0.656250 0.539985 -0.345000
v -0.645000 0.539985 -0.270000
v -0.656250 0.539985 -0.345000
v 0.656250 0.539985 -0.345000
v 0.645000 0.539985 -0.270000
v 0.645000 0.539985 -0.270000
v -0.645000 0.539985 -0.270000
v -0.656250 0.539985 -0.345000
v 0.656250 0.539985 -0.345000
v 0.705000 0.539985 -0.360000
v 0.645000 0.539985 -0.270000
v 0.720000 0.539985 -0.345000
v 0.720000 0.539985 0.345000
v 0.645000 0.539985 0.270000
v 0.705000 0.539985 0.360000
v 0.656250 0.539985 0.345000
v 0.656250 0.539985 0.345000
v -0.656250 0.539985 0.345000
v -0.645000 0.539985 0.270000
v -0.645000 0.539985 0.270000
v 0.645000 0.539985 0.270000
v 0.656250 0.539985 0.345000
v -0.645000 0.539985 -0.270000
v -0.645000 0.631140 -0.270000
v -0.645000 0.631140 0.270000
v -0.645000 0.631140 0.270000
v -0.645000 0.539985 0.270000
v -0.645000 0.539985 -0.270000
v 0.645000 0.539985 -0.270000
v 0.645000 0.631140 -0.270000
v -0.645000 0.631140 -0.270000
v -0.645000 0.539985 -0.270000
v 0.645000 0.539985 0.270000
v 0.645000 0.631140 0.270000
v 0.645000 0.631140 -0.270000
v 0.645000 0.539985 -0.270000
v -0.645000 0.539985 0.270000
v -0.645000 0.631140 0.270000
v 0.645000 0.631140 0.270000
v 0.645000 0.631140 0.270000
v 0.645000 0.539985 0.270000
v -0.645000 0.539985 0.270000
v -0.720000 -0.000000 0.345000
v -0.720000 0.000000 -0.345000
v -0.705000 0.000000 -0.360000
v -0.720000 -0.000000 0.345000
v -0.705000 0.000000 -0.360000
v -0.656250 0.000000 -0.349393
v -0.720000 -0.000000 0.345000
v -0.656250 0.000000 -0.349393
v -0.656250 -0.000000 0.349394
v -0.705000 -0.000000 0.360000
v -0.720000 -0.000000 0.345000
v -0.656250 -0.000000 0.349394
v -0.656250 -0.000000 0.349394
v -0.656250 0.539985 0.345000
v -0.705000 0.539985 0.360000
v -0.705000 0.539985 0.360000
v -0.705000 -0.000000 0.360000
v -0.656250 -0.000000 0.349394
v 0.656250 0.000000 -0.349393
v 0.656250 0.539985 -0.345000
v 0.705000 0.539985 -0.360000
v 0.705000 0.539985 -0.360000
v 0.705000 0.000000 -0.360000
v 0.656250 0.000000 -0.349393
v -0.720000 -0.000000 0.345000
v -0.720000 0.539985 0.345000
v -0.720000 0.539985 -0.345000
v -0.720000 0.000000 -0.345000
v -0.058869 0.487500 0.344996
v 0.058376 0.487500 0.344996
v 0.058376 0.507900 0.357803
v -0.058869 0.507900 0.357803
v -0.058869 0.536573 0.377779
v -0.058869 0.528300 0.381206
v 0.058376 0.528300 0.381206
v 0.058376 0.536573 0.377779
v -0.058869 0.520027 0.377779
v 0.058376 0.520027 0.377779
v -0.058869 0.528300 0.381206
v -0.058869 0.536573 0.377779
v -0.058869 0.540000 0.369506
v -0.058869 0.540000 0.344996
v -0.058869 0.487500 0.344996
v -0.058869 0.507900 0.357803
v -0.058869 0.520027 0.377779
v 0.058376 0.536573 0.377779
v 0.058376 0.528300 0.381206
v 0.058376 0.520027 0.377779
v 0.058376 0.540000 0.369506
v 0.058376 0.507900 0.357803
v 0.058376 0.487500 0.344996
v 0.058376 0.540000 0.344996
v 0.058376 0.540000 0.369506
v 0.058376 0.540000 0.344996
v -0.058869 0.540000 0.344996
v -0.058869 0.540000 0.369506
v 0.307446 0.487500 0.344996
v 0.424691 0.487500 0.344996
v 0.424691 0.507900 0.352498
v 0.307446 0.507900 0.352498
v 0.307446 0.536573 0.372474
v 0.307446 0.528300 0.375901
v 0.424691 0.528300 0.375901
v 0.424691 0.536573 0.372474
v 0.307446 0.520027 0.372474
v 0.424691 0.520027 0.372474
v 0.307446 0.528300 0.375901
v 0.307446 0.536573 0.372474
v 0.307446 0.540000 0.364201
v 0.307446 0.540000 0.344996
v 0.307446 0.487500 0.344996
v 0.307446 0.507900 0.352498
v 0.307446 0.540000 0.344996
v 0.307446 0.507900 0.352498
v 0.307446 0.520027 0.372474
v 0.424691 0.536573 0.372474
v 0.424691 0.528300 0.375901
v 0.424691 0.520027 0.372474
v 0.424691 0.540000 0.364201
v 0.424691 0.507900 0.352498
v 0.424691 0.507900 0.352498
v 0.424691 0.487500 0.344996
v 0.424691 0.540000 0.344996
v 0.424691 0.540000 0.344996
v 0.424691 0.540000 0.364201
v 0.424691 0.540000 0.344996
v 0.307446 0.540000 0.344996
v 0.307446 0.540000 0.364201
v -0.425184 0.487500 0.344996
v -0.307939 0.487500 0.344996
v -0.307939 0.507900 0.352498
v -0.425184 0.507900 0.352498
v -0.425184 0.536573 0.372474
v -0.425184 0.528300 0.375901
v -0.307939 0.528300 0.375901
v -0.307939 0.536573 0.372474
v -0.425184 0.520027 0.372474
v -0.307939 0.520027 0.372474
v -0.425184 0.528300 0.375901
v -0.425184 0.536573 0.372474
v -0.425184 0.540000 0.364201
v -0.425184 0.540000 0.344996
v -0.425184 0.487500 0.344996
v -0.425184 0.507900 0.352498
v -0.425184 0.540000 0.344996
v -0.425184 0.507900 0.352498
v -0.425184 0.520027 0.372474
v -0.307939 0.536573 0.372474
v -0.307939 0.528300 0.375901
v -0.307939 0.520027 0.372474
v -0.307939 0.540000 0.364201
v -0.307939 0.507900 0.352498
v -0.307939 0.507900 0.352498
v -0.307939 0.487500 0.344996
v -0.307939 0.540000 0.344996
v -0.307939 0.540000 0.344996
v -0.307939 0.540000 0.364201
v -0.307939 0.540000 0.344996
v -0.425184 0.540000 0.344996
v -0.425184 0.540000 0.364201
v -0.705000 0.000000 -0.360000
v -0.720000 0.000000 -0.345000
v -0.720000 0.539985 -0.345000
v -0.705000 0.539985 -0.360000
v -0.705000 0.539985 0.360000
v -0.720000 0.539985 0.345000
v -0.720000 -0.000000 0.345000
v -0.705000 -0.000000 0.360000
v 0.720000 -0.000000 0.345000
v 0.720000 0.000000 -0.345000
v 0.720000 0.539985 -0.345000
v 0.720000 0.539985 0.345000
v 0.705000 0.000000 -0.360000
v 0.705000 0.539985 -0.360000
v 0.720000 0.539985 -0.345000
v 0.720000 0.000000 -0.345000
v 0.705000 0.539985 0.360000
v 0.705000 -0.000000 0.360000
v 0.720000 -0.000000 0.345000
v 0.720000 0.539985 0.345000
v 0.656250 0.000000 -0.349393
v 0.656250 -0.000000 0.349394
v -0.656250 -0.000000 0.349394
v -0.656250 -0.000000 0.349394
v -0.656250 0.000000 -0.349393
v 0.656250 0.000000 -0.349393
v 0.656250 -0.000000 0.349394
v 0.656250 0.539985 0.345000
v -0.656250 0.539985 0.345000
v -0.656250 0.539985 0.345000
v -0.656250 -0.000000 0.349394
v 0.656250 -0.000000 0.349394
v -0.705000 0.000000 -0.360000
v -0.705000 0.539985 -0.360000
v -0.656250 0.539985 -0.345000
v -0.656250 0.539985 -0.345000
v -0.656250 0.000000 -0.349393
v -0.705000 0.000000 -0.360000
v -0.656250 0.000000 -0.349393
v -0.656250 0.539985 -0.345000
v 0.656250 0.539985 -0.345000
v 0.656250 0.539985 -0.345000
v 0.656250 0.000000 -0.349393
v -0.656250 0.000000 -0.349393
v 0.705000 0.000000 -0.360000
v 0.720000 0.000000 -0.345000
v 0.720000 -0.000000 0.345000
v 0.705000 -0.000000 0.360000
v 0.656250 -0.000000 0.349394
v 0.656250 0.000000 -0.349393
v 0.705000 -0.000000 0.360000
v 0.705000 0.539985 0.360000
v 0.656250 0.539985 0.345000
v 0.656250 0.539985 0.345000
v 0.656250 -0.000000 0.349394
v 0.705000 -0.000000 0.360000
v -0.656250 0.539985 -0.345000
v -0.705000 0.539985 -0.360000
v -0.645000 0.539985 -0.270000
v -0.705000 0.539985 -0.360000
v -0.720000 0.539985 -0.345000
v -0.645000 0.539985 -0.270000
v -0.720000 0.539985 -0.345000
v -0.720000 0.539985 0.345000
v -0.645000 0.539985 0.270000
v -0.645000 0.539985 0.270000
v -0.645000 0.539985 -0.270000
v -0.720000 0.539985 -0.345000
v -0.720000 0.539985 0.345000
v -0.705000 0.539985 0.360000
v -0.645000 0.539985 0.270000
v -0.705000 0.539985 0.360000
v -0.656250 0.539985 0.345000
v -0.645000 0.539985 0.270000
v -0.656250 0.539985 0.345000
v 0.656250 0.539985 0.345000
v 0.645000 0.539985 0.270000
v 0.645000 0.539985 0.270000
v -0.645000 0.539985 0.270000
v -0.656250 0.539985 0.345000
v 0.656250 0.539985 0.345000
v 0.705000 0.539985 0.360000
v 0.645000 0.539985 0.270000
v 0.720000 0.539985 0.345000
v 0.720000 0.539985 -0.345000
v 0.645000 0.539985 -0.270000
v 0.705000 0.539985 -0.360000
v 0.656250 0.539985 -0.345000
v 0.656250 0.539985 -0.345000
v -0.656250 0.539985 -0.345000
v -0.645000 0.539985 -0.270000
v -0.645000 0.539985 -0.270000
v 0.645000 0.539985 -0.270000
v 0.656250 0.539985 -0.345000
v 0.645000 0.075000 0.270000
v 0.645000 0.075000 -0.270000
v -0.645000 0.075000 -0.270000
v -0.645000 0.075000 0.270000
v -0.645000 0.539985 -0.270000
v -0.645000 0.539985 0.270000
v -0.645000 0.075000 0.270000
v -0.645000 0.075000 -0.270000
v -0.645000 0.539985 0.270000
v 0.645000 0.539985 0.270000
v 0.645000 0.075000 0.270000
v 0.645000 0.075000 0.270000
v -0.645000 0.075000 0.270000
v -0.645000 0.539985 0.270000
v 0.645000 0.539985 0.270000
v 0.645000 0.539985 -0.270000
v 0.645000 0.075000 -0.270000
v 0.645000 0.075000 0.270000
v 0.645000 0.539985 -0.270000
v -0.645000 0.539985 -0.270000
v -0.645000 0.075000 -0.270000
v 0.645000 0.075000 -0.270000
vt 0.056427 0.302734
vt 0.056427 0.363770
vt 0.016449 0.363770
vt 0.016449 0.363770
vt 0.016449 0.302734
vt 0.022995 0.295898
vt 0.056427 0.302734
vt 0.016449 0.363770
vt 0.022995 0.295898
vt 0.049896 0.295898
vt 0.056427 0.302734
vt 0.022995 0.295898
vt 0.056427 0.302734
vt 0.049896 0.295898
vt 0.054169 0.290527
vt 0.054169 0.290527
vt 0.061676 0.298340
vt 0.056427 0.302734
vt 0.049896 0.295898
vt 0.022995 0.295898
vt 0.022308 0.289062
vt 0.022308 0.289062
vt 0.050568 0.289062
vt 0.049896 0.295898
vt 0.022995 0.295898
vt 0.016449 0.302734
vt 0.011192 0.298340
vt 0.011192 0.298340
vt 0.018692 0.290527
vt 0.022995 0.295898
vt 0.016449 0.302734
vt 0.016449 0.363770
vt 0.009697 0.365723
vt 0.009697 0.365723
vt 0.009697 0.301758
vt 0.016449 0.302734
vt 0.016449 0.363770
vt 0.056427 0.363770
vt 0.058075 0.370605
vt 0.058075 0.370605
vt 0.014809 0.370605
vt 0.016449 0.363770
vt 0.056427 0.363770
vt 0.056427 0.302734
vt 0.063171 0.301758
vt 0.063171 0.301758
vt 0.063171 0.365723
vt 0.056427 0.363770
vt 0.022995 0.295898
vt 0.016449 0.302734
vt 0.016449 0.363770
vt 0.016449 0.363770
vt 0.056427 0.363770
vt 0.056427 0.302734
vt 0.022995 0.295898
vt 0.016449 0.363770
vt 0.056427 0.302734
vt 0.049896 0.295898
vt 0.022995 0.295898
vt 0.056427 0.302734
vt 0.406006 0.316895
vt 0.406006 0.617920
vt 0.384766 0.617920
vt 0.384766 0.316895
vt 1.000000 0.307617
vt 0.978516 0.307617
vt 0.978516 0.235840
vt 1.000000 0.235840
vt 0.384766 0.627197
vt 0.406006 0.627197
vt 0.406006 0.699219
vt 0.384766 0.699219
vt 0.074402 0.627197
vt 0.375488 0.627197
vt 0.375488 0.699219
vt 0.074402 0.699219
vt 0.074402 0.617920
vt 0.074402 0.627197
vt 0.065125 0.627197
vt 0.375488 0.617920
vt 0.384766 0.627197
vt 0.375488 0.627197
vt 0.384766 0.307617
vt 0.406006 0.307617
vt 0.406006 0.316895
vt 0.406006 0.316895
vt 0.384766 0.316895
vt 0.384766 0.307617
vt 1.000000 0.627197
vt 0.978516 0.627197
vt 0.978516 0.617920
vt 0.978516 0.617920
vt 1.000000 0.617920
vt 1.000000 0.627197
vt 0.375488 0.617920
vt 0.375488 0.627197
vt 0.074402 0.627197
vt 0.074402 0.617920
vt 0.065125 0.627197
vt 0.074402 0.627197
vt 0.074402 0.699219
vt 0.065125 0.699219
vt 0.384766 0.699219
vt 0.375488 0.699219
vt 0.375488 0.627197
vt 0.384766 0.627197
vt 0.074402 0.627197
vt 0.074402 0.699219
vt 0.375488 0.699219
vt 0.375488 0.627197
vt 0.074402 0.617920
vt 0.065125 0.627197
vt 0.074402 0.627197
vt 0.375488 0.617920
vt 0.375488 0.627197
vt 0.384766 0.627197
vt 0.375488 0.617920
vt 0.074402 0.617920
vt 0.074402 0.627197
vt 0.375488 0.627197
vt 0.065125 0.627197
vt 0.065125 0.699219
vt 0.074402 0.699219
vt 0.074402 0.627197
vt 0.384766 0.699219
vt 0.384766 0.627197
vt 0.375488 0.627197
vt 0.375488 0.699219
vt 0.978516 0.316895
vt 0.978516 0.617920
vt 0.384766 0.307617
vt 0.384766 0.235840
vt 0.406006 0.235840
vt 0.406006 0.307617
vt 0.978516 0.627197
vt 0.978516 0.699219
vt 0.978516 0.307617
vt 0.978516 0.316895
vt 0.406006 0.316895
vt 0.406006 0.307617
vt 0.384766 0.627197
vt 0.384766 0.617920
vt 0.406006 0.617920
vt 0.406006 0.617920
vt 0.406006 0.627197
vt 0.384766 0.627197
vt 0.406006 0.627197
vt 0.406006 0.617920
vt 0.978516 0.617920
vt 0.978516 0.627197
vt 1.000000 0.316895
vt 1.000000 0.617920
vt 1.000000 0.627197
vt 1.000000 0.699219
vt 1.000000 0.307617
vt 1.000000 0.316895
vt 0.978516 0.316895
vt 0.978516 0.316895
vt 0.978516 0.307617
vt 1.000000 0.307617
vt 0.345703 0.598389
vt 0.345703 0.584961
vt 0.352539 0.584961
vt 0.352539 0.584961
vt 0.352539 0.596924
vt 0.345703 0.598389
vt 0.334473 0.584961
vt 0.334473 0.598389
vt 0.327637 0.596924
vt 0.327637 0.596924
vt 0.327637 0.584961
vt 0.334473 0.584961
vt 0.352539 0.596924
vt 0.352539 0.584961
vt 0.360840 0.584961
vt 0.360840 0.596924
vt 0.327637 0.584961
vt 0.327637 0.596924
vt 0.319336 0.596924
vt 0.319336 0.584961
vt 0.329346 0.578369
vt 0.327637 0.584961
vt 0.319336 0.584961
vt 0.317627 0.578369
vt 0.352539 0.584961
vt 0.350830 0.578369
vt 0.362549 0.578369
vt 0.360840 0.584961
vt 0.350830 0.603516
vt 0.352539 0.596924
vt 0.360840 0.596924
vt 0.362549 0.603516
vt 0.327637 0.596924
vt 0.329346 0.603516
vt 0.317627 0.603516
vt 0.317627 0.603516
vt 0.319336 0.596924
vt 0.327637 0.596924
vt 0.360840 0.596924
vt 0.360840 0.584961
vt 0.367676 0.584961
vt 0.367676 0.584961
vt 0.367676 0.598389
vt 0.360840 0.596924
vt 0.319336 0.584961
vt 0.319336 0.596924
vt 0.312500 0.598389
vt 0.312500 0.598389
vt 0.312500 0.584961
vt 0.319336 0.584961
vt 0.124512 -0.496094
vt 0.308350 -0.496094
vt 0.308350 -0.934570
vt 0.124512 -0.934570
vt 0.271973 -0.675781
vt 0.288574 -0.680664
vt 0.268311 -0.650391
vt 0.288574 -0.680664
vt 0.293701 -0.675781
vt 0.268311 -0.650391
vt 0.293701 -0.675781
vt 0.293701 -0.440430
vt 0.268311 -0.465820
vt 0.268311 -0.650391
vt 0.293701 -0.440430
vt 0.288574 -0.435547
vt 0.268311 -0.465820
vt 0.288574 -0.435547
vt 0.271973 -0.440430
vt 0.268311 -0.465820
vt 0.095825 -0.492188
vt 0.095825 -0.938477
vt 0.121338 -0.934570
vt 0.121338 -0.934570
vt 0.121338 -0.496094
vt 0.095825 -0.492188
vt 0.159180 -0.751953
vt 0.142578 -0.747070
vt 0.162964 -0.777344
vt 0.137451 -0.751953
vt 0.137451 -0.986328
vt 0.162964 -0.960938
vt 0.142578 -0.992188
vt 0.159180 -0.986328
vt 0.330566 -0.938477
vt 0.330566 -0.492188
vt 0.305176 -0.496094
vt 0.305176 -0.496094
vt 0.305176 -0.934570
vt 0.330566 -0.938477
vt 0.268311 -0.465820
vt 0.237183 -0.465820
vt 0.237183 -0.650391
vt 0.237183 -0.650391
vt 0.268311 -0.650391
vt 0.268311 -0.465820
vt 0.121338 -0.934570
vt 0.152344 -0.934570
vt 0.152344 -0.496094
vt 0.121338 -0.496094
vt 0.162964 -0.960938
vt 0.194092 -0.960938
vt 0.194092 -0.777344
vt 0.162964 -0.777344
vt 0.305176 -0.496094
vt 0.274170 -0.496094
vt 0.274170 -0.934570
vt 0.274170 -0.934570
vt 0.305176 -0.934570
vt 0.305176 -0.496094
vt 0.080200 0.000000
vt 0.351074 0.000000
vt 0.356934 0.005859
vt 0.080200 0.000000
vt 0.356934 0.005859
vt 0.356934 0.024902
vt 0.080200 0.000000
vt 0.356934 0.024902
vt 0.074280 0.024902
vt 0.074280 0.005859
vt 0.080200 0.000000
vt 0.074280 0.024902
vt 0.406006 0.000000
vt 0.406006 0.235840
vt 0.384766 0.235840
vt 0.384766 0.235840
vt 0.384766 0.000000
vt 0.406006 0.000000
vt 0.978516 0.934814
vt 0.978516 0.699219
vt 1.000000 0.699219
vt 1.000000 0.699219
vt 1.000000 0.934814
vt 0.978516 0.934814
vt 0.074402 0.934814
vt 0.074402 0.699219
vt 0.375488 0.699219
vt 0.375488 0.934814
vt 0.009018 0.176270
vt 0.009018 0.125000
vt 0.019531 0.125000
vt 0.019531 0.176270
vt 0.037537 0.176270
vt 0.033630 0.176270
vt 0.033630 0.125000
vt 0.037537 0.125000
vt 0.029724 0.176270
vt 0.029724 0.125000
vt 0.036346 0.181152
vt 0.037842 0.177734
vt 0.041443 0.176270
vt 0.052155 0.176270
vt 0.052155 0.199219
vt 0.046539 0.189941
vt 0.037842 0.185059
vt 0.037842 0.123535
vt 0.036346 0.119629
vt 0.037842 0.116211
vt 0.041443 0.125000
vt 0.046539 0.110840
vt 0.052155 0.102051
vt 0.052155 0.125000
vt 0.041443 0.125000
vt 0.052155 0.125000
vt 0.052155 0.176270
vt 0.041443 0.176270
vt 0.052155 0.208984
vt 0.052155 0.260254
vt 0.042664 0.260254
vt 0.042664 0.208984
vt 0.024643 0.208984
vt 0.028549 0.208984
vt 0.028549 0.260254
vt 0.024643 0.260254
vt 0.032471 0.208984
vt 0.032471 0.260254
vt 0.025848 0.204102
vt 0.024353 0.207520
vt 0.020737 0.208984
vt 0.012360 0.208984
vt 0.012360 0.186523
vt 0.015640 0.195312
vt 0.012360 0.208984
vt 0.015640 0.195312
vt 0.024353 0.200684
vt 0.024353 0.261719
vt 0.025848 0.265625
vt 0.024353 0.269043
vt 0.020737 0.260254
vt 0.015640 0.274414
vt 0.015640 0.274414
vt 0.012360 0.283203
vt 0.012360 0.260254
vt 0.012360 0.260254
vt 0.020737 0.260254
vt 0.012360 0.260254
vt 0.012360 0.208984
vt 0.020737 0.208984
vt 0.052155 0.041016
vt 0.052155 0.091797
vt 0.042664 0.091797
vt 0.042664 0.041016
vt 0.024643 0.041016
vt 0.028549 0.041016
vt 0.028549 0.091797
vt 0.024643 0.091797
vt 0.032471 0.041016
vt 0.032471 0.091797
vt 0.025848 0.035645
vt 0.024353 0.039551
vt 0.020737 0.041016
vt 0.012360 0.041016
vt 0.012360 0.018066
vt 0.015640 0.026855
vt 0.012360 0.041016
vt 0.015640 0.026855
vt 0.024353 0.032227
vt 0.024353 0.093262
vt 0.025848 0.097168
vt 0.024353 0.100586
vt 0.020737 0.091797
vt 0.015640 0.105957
vt 0.015640 0.105957
vt 0.012360 0.114746
vt 0.012360 0.091797
vt 0.012360 0.091797
vt 0.020737 0.091797
vt 0.012360 0.091797
vt 0.012360 0.041016
vt 0.020737 0.041016
vt 0.384766 0.934814
vt 0.375488 0.934814
vt 0.375488 0.699219
vt 0.384766 0.699219
vt 0.065125 0.699219
vt 0.074402 0.699219
vt 0.074402 0.934814
vt 0.065125 0.934814
vt 0.074402 0.934814
vt 0.375488 0.934814
vt 0.375488 0.699219
vt 0.074402 0.699219
vt 0.384766 0.934814
vt 0.384766 0.699219
vt 0.375488 0.699219
vt 0.375488 0.934814
vt 0.065125 0.699219
vt 0.065125 0.934814
vt 0.074402 0.934814
vt 0.074402 0.699219
vt 0.356934 0.540527
vt 0.074280 0.540527
vt 0.074280 0.024902
vt 0.074280 0.024902
vt 0.356934 0.024902
vt 0.356934 0.540527
vt 0.978516 0.000000
vt 0.978516 0.235840
vt 0.406006 0.235840
vt 0.406006 0.235840
vt 0.406006 0.000000
vt 0.978516 0.000000
vt 0.384766 0.934814
vt 0.384766 0.699219
vt 0.406006 0.699219
vt 0.406006 0.699219
vt 0.406006 0.934814
vt 0.384766 0.934814
vt 0.406006 0.934814
vt 0.406006 0.699219
vt 0.978516 0.699219
vt 0.978516 0.699219
vt 0.978516 0.934814
vt 0.406006 0.934814
vt 0.356934 0.559570
vt 0.351074 0.565430
vt 0.080200 0.565430
vt 0.074280 0.559570
vt 0.074280 0.540527
vt 0.356934 0.540527
vt 1.000000 0.000000
vt 1.000000 0.235840
vt 0.978516 0.235840
vt 0.978516 0.235840
vt 0.978516 0.000000
vt 1.000000 0.000000
vt 0.271973 -0.675781
vt 0.288574 -0.680664
vt 0.268311 -0.650391
vt 0.288574 -0.680664
vt 0.293701 -0.675781
vt 0.268311 -0.650391
vt 0.293701 -0.675781
vt 0.293701 -0.440430
vt 0.268311 -0.465820
vt 0.268311 -0.465820
vt 0.268311 -0.650391
vt 0.293701 -0.675781
vt 0.293701 -0.440430
vt 0.288574 -0.435547
vt 0.268311 -0.465820
vt 0.288574 -0.435547
vt 0.271973 -0.440430
vt 0.268311 -0.465820
vt 0.095825 -0.492188
vt 0.095825 -0.938477
vt 0.121338 -0.934570
vt 0.121338 -0.934570
vt 0.121338 -0.496094
vt 0.095825 -0.492188
vt 0.159180 -0.751953
vt 0.142578 -0.747070
vt 0.162964 -0.777344
vt 0.137451 -0.751953
vt 0.137451 -0.986328
vt 0.162964 -0.960938
vt 0.142578 -0.992188
vt 0.159180 -0.986328
vt 0.330566 -0.938477
vt 0.330566 -0.492188
vt 0.305176 -0.496094
vt 0.305176 -0.496094
vt 0.305176 -0.934570
vt 0.330566 -0.938477
vt 0.124512 -0.934570
vt 0.308350 -0.934570
vt 0.308350 -0.496094
vt 0.124512 -0.496094
vt 0.268311 -0.650391
vt 0.268311 -0.465820
vt 0.109985 -0.465820
vt 0.109985 -0.650391
vt 0.121338 -0.496094
vt 0.121338 -0.934570
vt 0.279541 -0.934570
vt 0.279541 -0.934570
vt 0.279541 -0.496094
vt 0.121338 -0.496094
vt 0.162964 -0.777344
vt 0.162964 -0.960938
vt 0.321289 -0.960938
vt 0.321289 -0.777344
vt 0.305176 -0.934570
vt 0.305176 -0.496094
vt 0.146851 -0.496094
vt 0.146851 -0.934570
vn -0.0039 -0.0039 -1.0000
vn -0.6866 -0.6866 -0.2393
vn -0.0039 -0.9713 -0.2379
vn 0.6824 -0.6902 -0.2406
vn 0.6824 -0.6903 -0.2406
vn 0.9708 -0.0040 -0.2397
vn -0.0040 0.9708 -0.2397
vn -0.9713 -0.0039 -0.2379
vn -0.0039 -0.0039 1.0000
vn 0.1381 0.9904 0.0039
vn 0.2711 0.9625 0.0039
vn -0.2762 -0.0117 0.9610
vn -0.1447 -0.0117 0.9894
vn -0.1523 -0.0117 0.9883
vn -0.2927 -0.0039 0.9562
vn 0.2711 -0.0118 -0.9625
vn 0.1381 -0.0118 -0.9903
vn 0.1458 -0.0118 -0.9892
vn 0.2877 -0.0039 -0.9577
vn -1.0000 -0.0039 0.0039
vn -0.5799 0.5722 0.5799
vn -0.5825 0.5747 -0.5747
vn 0.2700 0.6770 0.6847
vn 0.2700 0.6769 0.6847
vn -0.2787 0.6791 -0.6791
vn -0.7110 0.7032 0.0039
vn -0.7071 -0.0039 0.7071
vn -0.7110 -0.0039 -0.7032
vn 1.0000 -0.0039 0.0039
vn 0.5747 0.5747 0.5825
vn 0.5774 0.5773 -0.5774
vn 0.7071 0.7071 0.0039
vn 0.7032 -0.0039 0.7110
vn 0.7071 -0.0039 -0.7071
vn -0.1458 0.9893 0.0039
vn 0.2690 -0.0117 0.9631
vn 0.2856 -0.0039 0.9583
vn 0.1447 -0.0117 0.9894
vn 0.1370 -0.0117 0.9905
vn -0.1458 -0.0118 -0.9892
vn -0.1535 -0.0118 -0.9881
vn -0.0039 0.7032 0.7110
vn 0.2714 0.6806 -0.6806
vn -0.0039 0.7071 -0.7071
vn -0.2784 0.9605 0.0039
vn -0.2783 0.9605 0.0039
vn -0.2783 -0.0118 -0.9604
vn -0.2949 -0.0039 -0.9555
vn -0.2772 0.6755 0.6833
vn -0.0039 -1.0000 0.0039
vn -0.0039 0.9708 -0.2398
vn 0.9708 -0.0039 -0.2398
vn 0.2855 0.0039 0.9584
vn 0.2066 -0.0039 0.9784
vn -0.2949 0.0039 -0.9555
vn -0.2157 -0.0039 -0.9765
vn -0.0039 -0.5338 0.8456
vn -0.0039 -0.7149 0.6992
vn -0.0039 0.7031 0.7110
vn -0.0039 -0.6505 0.7595
vn -0.0039 0.9796 0.2007
vn -0.0039 1.0000 0.0039
vn -0.0039 0.9797 0.2006
vn -0.0039 -0.3464 0.9381
vn -0.0039 -0.6375 0.7705
vn -0.0039 -0.6375 0.7704
vn -0.0039 0.0039 1.0000
vn 0.2082 0.0039 -0.9781
vn -0.0040 0.0040 -1.0000
vn -0.2140 0.0039 0.9768
usemtl Material.150
s 1
f 1/1/1 2/2/1 3/3/1
f 4/4/1 5/5/1 6/6/1
f 7/7/1 8/8/1 9/9/1
f 10/10/1 11/11/1 12/12/1
f 13/13/2 14/14/2 15/15/2
f 16/16/2 17/17/2 18/18/2
f 19/19/3 20/20/3 21/21/3
f 22/22/3 23/23/3 24/24/3
f 25/25/4 26/26/4 27/27/4
f 28/28/5 29/29/5 30/30/5
f 31/31/6 32/32/6 33/33/6
f 34/34/6 35/35/6 36/36/6
f 37/37/7 38/38/7 39/39/7
f 40/40/7 41/41/7 42/42/7
f 43/43/8 44/44/8 45/45/8
f 46/46/8 47/47/8 48/48/8
f 49/49/9 50/50/9 51/51/9
f 52/52/9 53/53/9 54/54/9
f 55/55/9 56/56/9 57/57/9
f 58/58/9 59/59/9 60/60/9
usemtl Material.00003d
f 61/61/10 62/62/10 63/63/11
f 63/63/11 64/64/11 61/61/10
f 65/65/12 66/66/13 67/67/14
f 67/67/14 68/68/15 65/65/12
f 69/69/16 70/70/17 71/71/18
f 71/71/18 72/72/19 69/69/16
f 73/73/20 74/74/20 75/75/20
f 75/75/20 76/76/20 73/73/20
f 77/77/21 78/78/21 79/79/21
f 80/80/22 81/81/22 82/82/22
f 83/83/23 84/84/23 85/85/23
f 86/86/24 87/87/24 88/88/24
f 89/89/25 90/90/25 91/91/25
f 92/92/25 93/93/25 94/94/25
f 95/95/26 96/96/26 97/97/26
f 97/97/26 98/98/26 95/95/26
f 99/99/27 100/100/27 101/101/27
f 101/101/27 102/102/27 99/99/27
f 103/103/28 104/104/28 105/105/28
f 105/105/28 106/106/28 103/103/28
f 107/107/29 108/108/29 109/109/29
f 109/109/29 110/110/29 107/107/29
f 111/111/30 112/112/30 113/113/30
f 114/114/31 115/115/31 116/116/31
f 117/117/32 118/118/32 119/119/32
f 119/119/32 120/120/32 117/117/32
f 121/121/33 122/122/33 123/123/33
f 123/123/33 124/124/33 121/121/33
f 125/125/34 126/126/34 127/127/34
f 127/127/34 128/128/34 125/125/34
f 129/129/35 130/130/35 62/62/10
f 62/62/10 61/61/10 129/129/35
f 131/131/36 132/132/37 133/133/38
f 133/133/38 134/134/39 131/131/36
f 135/135/40 136/136/41 71/71/18
f 71/71/18 70/70/17 135/135/40
f 137/137/42 138/138/42 139/139/42
f 139/139/42 140/140/42 137/137/42
f 141/141/43 142/142/43 143/143/43
f 144/144/43 145/145/43 146/146/43
f 134/134/39 133/133/38 67/67/14
f 67/67/14 66/66/13 134/134/39
f 147/147/44 148/148/44 149/149/44
f 149/149/44 150/150/44 147/147/44
f 151/151/45 152/152/46 130/130/35
f 130/130/35 129/129/35 151/151/45
f 153/153/47 154/154/48 136/136/41
f 136/136/41 135/135/40 153/153/47
f 155/155/49 156/156/49 157/157/49
f 158/158/49 159/159/49 160/160/49
f 161/161/6 162/162/6 163/163/6
f 164/164/6 165/165/6 166/166/6
f 167/167/8 168/168/8 169/169/8
f 170/170/8 171/171/8 172/172/8
f 173/173/1 174/174/1 175/175/1
f 175/175/1 176/176/1 173/173/1
f 177/177/1 178/178/1 179/179/1
f 179/179/1 180/180/1 177/177/1
f 181/181/50 182/182/50 183/183/50
f 183/183/50 184/184/50 181/181/50
f 185/185/50 186/186/50 187/187/50
f 187/187/50 188/188/50 185/185/50
f 189/189/51 190/190/51 191/191/51
f 191/191/51 192/192/51 189/189/51
f 193/193/51 194/194/51 195/195/51
f 196/196/51 197/197/51 198/198/51
f 199/199/8 200/200/8 201/201/8
f 202/202/8 203/203/8 204/204/8
f 205/205/52 206/206/52 207/207/52
f 208/208/6 209/209/6 210/210/6
f 211/211/50 212/212/50 213/213/50
f 213/213/50 214/214/50 211/211/50
f 215/215/50 216/216/50 217/217/50
f 218/218/50 219/219/50 220/220/50
f 221/221/50 222/222/50 223/223/50
f 223/223/50 224/224/50 221/221/50
f 225/225/50 226/226/50 227/227/50
f 228/228/50 229/229/50 230/230/50
f 231/231/50 232/232/50 233/233/50
f 234/234/50 235/235/50 236/236/50
f 237/237/50 238/238/50 239/239/50
f 238/238/50 240/240/50 239/239/50
f 240/240/50 241/241/50 242/242/50
f 242/242/50 239/239/50 240/240/50
f 241/241/50 243/243/50 242/242/50
f 243/243/50 244/244/50 242/242/50
f 245/245/50 246/246/50 247/247/50
f 248/248/50 249/249/50 250/250/50
f 251/251/29 252/252/29 253/253/29
f 254/254/29 255/255/29 256/256/29
f 257/257/9 258/258/9 259/259/9
f 259/259/9 260/260/9 257/257/9
f 261/261/20 262/262/20 263/263/20
f 263/263/20 264/264/20 261/261/20
f 265/265/1 266/266/1 267/267/1
f 268/268/1 269/269/1 270/270/1
usemtl Material.00010f
f 271/271/50 272/272/50 273/273/50
f 274/274/50 275/275/50 276/276/50
f 277/277/50 278/278/50 279/279/50
f 280/280/50 281/281/50 282/282/50
f 283/283/53 284/284/53 285/285/53
f 286/286/54 287/287/54 288/288/54
f 289/289/55 290/290/55 291/291/55
f 292/292/56 293/293/56 294/294/56
f 295/295/20 296/296/20 297/297/20
f 297/297/20 298/298/20 295/295/20
f 299/299/57 300/300/57 301/301/58
f 301/301/58 302/302/58 299/299/57
f 303/303/59 304/304/9 305/305/9
f 305/305/9 306/306/42 303/303/59
f 304/304/9 307/307/60 308/308/60
f 308/308/60 305/305/9 304/304/9
f 307/307/60 302/302/58 301/301/58
f 301/301/58 308/308/60 307/307/60
f 309/309/20 310/310/20 311/311/20
f 312/312/20 313/313/20 314/314/20
f 311/311/20 312/312/20 314/314/20
f 309/309/20 311/311/20 314/314/20
f 315/315/20 309/309/20 314/314/20
f 316/316/29 317/317/29 318/318/29
f 319/319/29 316/316/29 318/318/29
f 319/319/29 318/318/29 320/320/29
f 320/320/29 321/321/29 322/322/29
f 319/319/29 320/320/29 322/322/29
f 323/323/61 324/324/62 325/325/62
f 325/325/62 326/326/63 323/323/61
f 306/306/42 323/323/61 326/326/63
f 326/326/63 303/303/59 306/306/42
f 327/327/64 328/328/64 329/329/65
f 329/329/65 330/330/65 327/327/64
f 331/331/42 332/332/9 333/333/9
f 333/333/9 334/334/42 331/331/42
f 332/332/9 335/335/60 336/336/60
f 336/336/60 333/333/9 332/332/9
f 335/335/60 330/330/65 329/329/65
f 329/329/65 336/336/60 335/335/60
f 337/337/20 338/338/20 339/339/20
f 340/340/20 341/341/20 342/342/20
f 339/339/20 343/343/20 344/344/20
f 337/337/20 339/339/20 344/344/20
f 345/345/20 337/337/20 344/344/20
f 346/346/29 347/347/29 348/348/29
f 349/349/29 346/346/29 348/348/29
f 349/349/29 348/348/29 350/350/29
f 351/351/29 352/352/29 353/353/29
f 349/349/29 350/350/29 354/354/29
f 355/355/63 356/356/62 357/357/62
f 357/357/62 358/358/63 355/355/63
f 334/334/42 355/355/63 358/358/63
f 358/358/63 331/331/42 334/334/42
f 359/359/64 360/360/64 361/361/65
f 361/361/65 362/362/66 359/359/64
f 363/363/42 364/364/9 365/365/9
f 365/365/9 366/366/42 363/363/42
f 364/364/9 367/367/60 368/368/60
f 368/368/60 365/365/9 364/364/9
f 367/367/60 362/362/66 361/361/65
f 361/361/65 368/368/60 367/367/60
f 369/369/20 370/370/20 371/371/20
f 372/372/20 373/373/20 374/374/20
f 371/371/20 375/375/20 376/376/20
f 369/369/20 371/371/20 376/376/20
f 377/377/20 369/369/20 376/376/20
f 378/378/29 379/379/29 380/380/29
f 381/381/29 378/378/29 380/380/29
f 381/381/29 380/380/29 382/382/29
f 383/383/29 384/384/29 385/385/29
f 381/381/29 382/382/29 386/386/29
f 387/387/63 388/388/62 389/389/62
f 389/389/62 390/390/63 387/387/63
f 366/366/42 387/387/63 390/390/63
f 390/390/63 363/363/42 366/366/42
f 391/391/28 392/392/28 393/393/28
f 393/393/28 394/394/28 391/391/28
f 395/395/27 396/396/27 397/397/27
f 397/397/27 398/398/27 395/395/27
f 399/399/29 400/400/29 401/401/29
f 401/401/29 402/402/29 399/399/29
f 403/403/34 404/404/34 405/405/34
f 405/405/34 406/406/34 403/403/34
f 407/407/33 408/408/33 409/409/33
f 409/409/33 410/410/33 407/407/33
f 411/411/50 412/412/50 413/413/50
f 414/414/50 415/415/50 416/416/50
f 417/417/67 418/418/67 419/419/67
f 420/420/67 421/421/67 422/422/67
f 423/423/19 424/424/19 425/425/19
f 426/426/68 427/427/68 428/428/68
f 429/429/69 430/430/69 431/431/69
f 432/432/69 433/433/69 434/434/69
f 435/435/50 436/436/50 437/437/50
f 437/437/50 438/438/50 439/439/50
f 435/435/50 437/437/50 439/439/50
f 440/440/50 435/435/50 439/439/50
f 441/441/15 442/442/15 443/443/15
f 444/444/70 445/445/70 446/446/70
f 447/447/62 448/448/62 449/449/62
f 450/450/62 451/451/62 452/452/62
f 453/453/62 454/454/62 455/455/62
f 456/456/62 457/457/62 458/458/62
f 459/459/62 460/460/62 461/461/62
f 462/462/62 463/463/62 464/464/62
f 465/465/62 466/466/62 467/467/62
f 468/468/62 469/469/62 470/470/62
f 471/471/62 472/472/62 473/473/62
f 472/472/62 474/474/62 473/473/62
f 474/474/62 475/475/62 476/476/62
f 476/476/62 473/473/62 474/474/62
f 475/475/62 477/477/62 476/476/62
f 477/477/62 478/478/62 476/476/62
f 479/479/62 480/480/62 481/481/62
f 482/482/62 483/483/62 484/484/62
f 485/485/62 486/486/62 487/487/62
f 487/487/62 488/488/62 485/485/62
f 489/489/29 490/490/29 491/491/29
f 491/491/29 492/492/29 489/489/29
f 493/493/1 494/494/1 495/495/1
f 496/496/1 497/497/1 498/498/1
f 499/499/20 500/500/20 501/501/20
f 501/501/20 502/502/20 499/499/20
f 503/503/9 504/504/9 505/505/9
f 505/505/9 506/506/9 503/503/9
