# Blender v2.81 (sub 16) OBJ File: ''
# www.blender.org
mtllib rag.mtl
o rag
v 0.067401 -0.013807 0.126156
v 0.002527 -0.013857 0.129214
v 0.002201 -0.013472 0.106411
v 0.067191 -0.013467 0.106892
v -0.043146 -0.013856 0.126282
v -0.038209 -0.013479 0.104955
v 0.001835 -0.012455 0.068703
v 0.001826 -0.010363 -0.001374
v 0.066057 -0.010363 -0.002173
v 0.066784 -0.012455 0.069033
v -0.035540 -0.012455 0.067849
v -0.028568 -0.010363 -0.001059
v 0.065686 -0.009777 -0.041754
v 0.002240 -0.009786 -0.038471
v 0.002867 -0.009942 -0.070291
v 0.065416 -0.009942 -0.073231
v -0.024051 -0.009790 -0.036994
v -0.019576 -0.009942 -0.069035
v 0.008014 -0.012562 -0.127395
v 0.065000 -0.012340 -0.129962
v -0.041470 -0.009942 -0.067982
v -0.041269 -0.010825 -0.095515
v -0.016708 -0.011805 -0.114421
v -0.035259 -0.011321 -0.105204
v -0.058730 -0.013812 0.121271
v -0.061722 -0.013410 0.100125
v -0.053151 -0.012478 0.067877
v -0.040107 -0.010386 -0.000082
v -0.036663 -0.009794 -0.036069
v -0.000372 -0.006889 0.149098
v -0.000372 -0.016524 0.149098
v 0.067514 -0.017229 0.148696
v 0.067613 -0.009304 0.148694
v -0.060135 -0.006887 0.140831
v -0.060135 -0.016522 0.140831
v -0.074855 -0.006824 0.127283
v -0.074855 -0.016460 0.127283
v -0.074855 -0.006824 0.127283
v -0.079571 -0.006472 0.104731
v -0.079571 -0.016107 0.104731
v -0.074646 -0.005435 0.068100
v -0.074646 -0.015070 0.068100
v -0.060816 -0.003266 -0.001372
v -0.060816 -0.012901 -0.001372
v -0.053776 -0.002694 -0.037340
v -0.053776 -0.012329 -0.037340
v -0.053712 -0.002906 -0.070259
v -0.053712 -0.012541 -0.070259
v -0.057397 -0.004484 -0.107777
v -0.057397 -0.014119 -0.107777
v -0.049719 -0.005316 -0.119398
v -0.049719 -0.014952 -0.119398
v -0.049719 -0.005316 -0.119398
v -0.029150 -0.006052 -0.129517
v -0.029150 -0.015687 -0.129517
v 0.002856 -0.006503 -0.138300
v 0.002856 -0.016138 -0.138300
v 0.079366 -0.005486 -0.149136
v 0.084076 -0.010700 -0.150447
v 0.064756 -0.016446 -0.148787
v 0.064756 -0.006704 -0.148787
v 0.002781 -0.016917 0.144223
v 0.067448 -0.017282 0.143698
v -0.055835 -0.016907 0.136914
v -0.070230 -0.016816 0.123986
v -0.074431 -0.016432 0.102015
v -0.069093 -0.015402 0.066318
v -0.055340 -0.013310 -0.001004
v -0.048537 -0.012740 -0.035819
v -0.048529 -0.012889 -0.067706
v -0.052204 -0.014270 -0.104108
v -0.044874 -0.015010 -0.115444
v -0.025099 -0.015665 -0.125314
v 0.005823 -0.016067 -0.133682
v 0.064777 -0.016337 -0.143188
v 0.084586 -0.010588 -0.144831
v 0.080348 -0.010385 -0.129763
v 0.084575 -0.004119 -0.073554
v 0.084572 -0.003952 -0.042314
v 0.084569 -0.004540 -0.002266
v 0.084567 -0.006632 0.069028
v 0.084567 -0.008441 0.106846
v 0.084567 -0.009087 0.125338
v 0.084567 -0.014894 0.138635
v 0.084051 -0.015739 0.141787
v 0.078664 -0.012082 0.144041
v 0.067401 -0.013711 0.126156
v 0.067191 -0.011562 0.106892
v 0.002201 -0.010455 0.106411
v 0.002527 -0.010840 0.129214
v -0.038209 -0.010462 0.104955
v -0.043146 -0.010839 0.126282
v 0.001835 -0.009438 0.068703
v 0.066784 -0.009438 0.069033
v 0.066057 -0.007346 -0.002173
v 0.001826 -0.007346 -0.001374
v -0.030723 -0.007854 0.017930
v -0.035540 -0.009438 0.067849
v 0.065686 -0.006760 -0.041754
v 0.065416 -0.006925 -0.073231
v 0.002867 -0.006925 -0.070291
v 0.002240 -0.006769 -0.038471
v -0.019576 -0.006925 -0.069035
v -0.024051 -0.006773 -0.036994
v 0.065000 -0.009323 -0.129962
v 0.008014 -0.009545 -0.127395
v -0.041269 -0.007808 -0.095515
v -0.041470 -0.006925 -0.067982
v -0.016708 -0.008788 -0.114421
v -0.028568 -0.007346 -0.001059
v -0.035259 -0.008304 -0.105204
v -0.061722 -0.010393 0.100125
v -0.058730 -0.010795 0.121271
v -0.053151 -0.009461 0.067877
v -0.040107 -0.007369 -0.000082
v -0.036663 -0.006777 -0.036069
v 0.067613 -0.009304 0.148694
v 0.067448 -0.009735 0.143698
v 0.002781 -0.007068 0.144223
v -0.000372 -0.006889 0.149098
v -0.055835 -0.007059 0.136914
v -0.060135 -0.006887 0.140831
v -0.070230 -0.006968 0.123986
v -0.074855 -0.006824 0.127283
v -0.074431 -0.006584 0.102015
v -0.079571 -0.006472 0.104731
v -0.069093 -0.005554 0.066318
v -0.074646 -0.005435 0.068100
v -0.055340 -0.003462 -0.001004
v -0.060816 -0.003266 -0.001372
v -0.048537 -0.002892 -0.035819
v -0.053776 -0.002694 -0.037340
v -0.048529 -0.003041 -0.067706
v -0.053712 -0.002906 -0.070259
v -0.052204 -0.004422 -0.104108
v -0.057397 -0.004484 -0.107777
v -0.044874 -0.005161 -0.115444
v -0.049719 -0.005316 -0.119398
v -0.025099 -0.005817 -0.125314
v -0.029150 -0.006052 -0.129517
v 0.005823 -0.006219 -0.133682
v 0.002856 -0.006503 -0.138300
v 0.064756 -0.006704 -0.148787
v 0.064777 -0.006489 -0.143188
v 0.079366 -0.005486 -0.149136
v 0.079897 -0.005178 -0.143635
v 0.080520 -0.004569 -0.128597
v 0.080592 -0.002914 -0.072887
v 0.081431 -0.002064 -0.042203
v 0.081646 -0.001717 -0.002932
v 0.081984 -0.005601 0.067006
v 0.079550 -0.009716 0.103827
v 0.073104 -0.010235 0.121217
v 0.074789 -0.010935 0.138984
v 0.078664 -0.012082 0.144041
v 0.038601 -0.007434 0.113707
v 0.055257 -0.003387 0.120068
v 0.043747 0.000420 0.091656
v 0.029082 -0.004226 0.096734
v 0.089576 -0.000465 0.107109
v 0.089625 -0.001435 0.126011
v 0.089306 0.004782 -0.002309
v 0.089470 0.002745 0.068972
v 0.008724 0.001691 -0.039659
v 0.034652 0.002610 -0.040865
v 0.034260 0.002532 -0.066039
v 0.008750 0.001672 -0.061488
v 0.089143 0.005152 -0.073524
v 0.089217 0.005341 -0.042476
v 0.032309 0.000831 -0.115522
v 0.004704 -0.000167 -0.113732
v 0.087041 0.003573 -0.126697
v 0.009002 0.001175 -0.004198
v 0.034435 0.002101 -0.005207
v -0.026854 -0.000388 -0.093943
v -0.018386 0.000736 -0.058295
v -0.010477 0.001004 -0.059836
v -0.017808 -0.000395 -0.101654
v -0.005910 0.001170 -0.038957
v -0.006535 0.000582 -0.002876
v -0.007548 0.002668 0.040591
v 0.009527 0.003526 0.062267
v 0.013742 -0.000076 0.052294
v -0.007995 -0.000189 0.027027
v 0.046305 0.006232 0.069897
v 0.043449 0.006740 0.083658
v 0.031910 0.005574 0.076684
v 0.039337 0.008186 0.063374
v -0.017888 0.000661 -0.028260
v -0.019677 -0.000009 -0.001351
v -0.019582 -0.000743 0.011786
v 0.047121 0.006939 0.062204
v 0.043819 0.006717 0.056331
v 0.019223 0.008619 0.051499
v 0.032556 0.007939 0.050370
v 0.038110 0.009595 0.043999
v 0.048858 0.010278 0.050009
v 0.048771 0.007103 0.049994
v 0.038026 0.006436 0.043991
v 0.053988 0.011121 0.060000
v 0.053898 0.007897 0.059977
v 0.053988 0.011121 0.060000
v 0.051206 0.009493 0.071558
v 0.052090 0.006277 0.071780
v 0.050199 0.007772 0.087606
v 0.050484 0.003498 0.087662
v 0.049741 0.000920 0.115752
v 0.050715 -0.001399 0.116587
v 0.077830 -0.010917 0.141542
v 0.087143 -0.005612 0.144581
v 0.087049 -0.002527 0.144392
v 0.064600 0.007962 -0.138827
v 0.065240 0.014004 -0.139019
v 0.081879 0.009169 -0.146733
v 0.079478 0.003333 -0.146207
v 0.029409 -0.007465 -0.131599
v 0.029165 0.002171 -0.131511
v 0.000927 -0.008187 -0.125013
v 0.000687 0.001449 -0.124926
v -0.029072 -0.008359 -0.112371
v -0.029311 0.001086 -0.112295
v -0.041958 -0.007303 -0.101938
v -0.042197 0.001398 -0.101871
v -0.041958 -0.007303 -0.101938
v -0.034096 -0.006893 -0.055582
v -0.034334 0.002738 -0.055536
v -0.031157 -0.006905 -0.027737
v -0.031387 0.002729 -0.027966
v -0.033313 -0.005998 0.005736
v -0.032318 0.000685 0.007506
v -0.031592 -0.001927 0.019024
v -0.029965 0.002925 0.028121
v -0.026808 0.002606 0.026854
v -0.030900 0.001072 0.014100
v 0.046152 0.006496 0.052357
v 0.035845 0.006151 0.046606
v 0.050933 0.007127 0.061922
v 0.050258 0.005693 0.073208
v 0.048141 0.002920 0.088791
v 0.049237 -0.001287 0.114670
v 0.087657 -0.003584 0.139887
v 0.086032 -0.000040 -0.148511
v 0.086481 0.000418 -0.143051
v 0.031553 0.002978 -0.127418
v 0.066174 0.014503 -0.134068
v 0.004076 0.002248 -0.121485
v -0.024906 0.001840 -0.109524
v -0.037348 0.001915 -0.099417
v -0.029815 0.003303 -0.054163
v -0.027049 0.003267 -0.026798
v -0.028739 0.001640 0.010746
v 0.048401 -0.003555 0.119761
v 0.046175 -0.007943 0.120711
v 0.041172 0.000321 0.105983
v 0.067072 0.012761 -0.114336
v 0.067950 0.013978 -0.071134
v 0.068199 0.014031 -0.042507
v 0.068102 0.013469 -0.004259
v 0.031882 -0.000805 0.054455
v 0.066743 0.011704 0.061827
v 0.065350 0.006075 0.097962
v 0.068801 -0.004067 0.131571
v 0.048809 -0.007658 0.122127
v 0.067162 -0.007269 0.133373
v 0.047385 -0.009497 0.124634
v 0.067532 -0.011036 0.135050
v 0.082267 0.009815 -0.141330
v 0.082048 0.011680 -0.123198
v 0.082666 0.013124 -0.072874
v 0.082893 0.012993 -0.042587
v 0.083038 0.012068 -0.002994
v 0.082913 0.009420 0.066739
v 0.082671 0.004416 0.104292
v 0.067304 0.001674 0.117858
v 0.082508 0.003275 0.123203
v 0.085025 0.002284 0.138300
v 0.027473 0.005691 0.090021
v 0.034151 0.001562 0.109888
v 0.036874 0.005128 0.104141
v 0.028326 0.008117 0.086693
v 0.074756 -0.005145 0.119439
v 0.076511 -0.002369 0.101614
v 0.009074 -0.001841 -0.004203
v 0.034509 -0.000915 -0.005208
v 0.031956 -0.005281 0.054466
v 0.015292 -0.010363 0.056512
v 0.008009 -0.010788 0.050480
v 0.079061 0.004036 0.065490
v 0.082895 0.007387 -0.003009
v 0.008798 -0.001325 -0.039669
v 0.008824 -0.001344 -0.061502
v 0.034335 -0.000484 -0.066051
v 0.034726 -0.000406 -0.040873
v 0.085465 0.008436 -0.042636
v 0.083512 0.006328 -0.072963
v 0.004779 -0.003183 -0.113757
v 0.032385 -0.002185 -0.115546
v 0.079998 0.004701 -0.122740
v -0.026779 -0.003404 -0.093963
v -0.017733 -0.003411 -0.101676
v -0.010402 -0.002012 -0.059851
v -0.018311 -0.002280 -0.058310
v -0.005836 -0.001846 -0.038968
v -0.006463 -0.002443 -0.002883
v 0.010578 0.007943 0.063961
v -0.002601 0.008951 0.047769
v -0.010065 0.007631 0.047869
v 0.005237 0.005224 0.065236
v 0.044553 0.006509 0.070329
v 0.037981 0.009753 0.064871
v 0.030737 0.007521 0.077822
v 0.040733 0.009031 0.083272
v -0.017815 -0.002355 -0.028271
v -0.019607 -0.003342 -0.001360
v -0.009970 0.009647 0.040796
v -0.019357 0.006105 0.040415
v 0.047149 0.007346 0.062210
v 0.043846 0.008278 0.056336
v 0.008967 0.005761 0.070147
v 0.019970 0.007503 0.075274
v 0.032582 0.009599 0.050373
v 0.020876 0.008986 0.056336
v 0.038110 0.009595 0.043999
v 0.035931 0.009444 0.046615
v 0.046240 0.009792 0.052373
v 0.048858 0.010278 0.050009
v 0.051024 0.010478 0.061945
v 0.053988 0.011121 0.060000
v 0.049225 0.009012 0.073036
v 0.051206 0.009493 0.071558
v 0.046538 0.007432 0.088115
v 0.050199 0.007772 0.087606
v 0.044086 -0.000183 0.118499
v 0.047923 -0.001831 0.120906
v 0.049741 0.000920 0.115752
v 0.046049 0.003266 0.113372
v 0.077830 -0.010917 0.141542
v 0.077018 -0.008848 0.136261
v 0.079478 0.003333 -0.146207
v 0.078926 0.001370 -0.140581
v 0.064600 0.007962 -0.138827
v 0.065514 0.008249 -0.133878
v 0.031804 -0.006870 -0.127504
v 0.029409 -0.007465 -0.131599
v 0.004322 -0.007600 -0.121572
v 0.000927 -0.008187 -0.125013
v -0.024662 -0.008007 -0.109601
v -0.029072 -0.008359 -0.112371
v -0.037104 -0.007044 -0.099485
v -0.041958 -0.007303 -0.101938
v -0.029572 -0.006541 -0.054209
v -0.034096 -0.006893 -0.055582
v -0.026810 -0.006576 -0.026837
v -0.031157 -0.006905 -0.027737
v -0.029338 -0.008597 0.000021
v -0.033313 -0.005998 0.005736
v -0.028041 0.003880 0.033028
v -0.022283 0.006626 0.032407
v -0.024960 0.005791 0.027682
v -0.029965 0.002925 0.028121
v 0.066761 0.009722 -0.114261
v 0.067646 0.010934 -0.071095
v 0.067898 0.010987 -0.042492
v 0.067799 0.010424 -0.004280
v 0.066423 0.008705 0.061739
v 0.065013 0.003258 0.097831
v 0.050840 -0.002776 0.093515
v 0.039263 -0.005221 0.077117
v 0.040549 -0.005881 0.122710
v 0.032985 -0.005322 0.115071
v 0.047318 -0.004990 0.123975
v 0.066951 -0.004146 0.117699
v 0.067848 -0.009446 0.131316
v 0.067532 -0.011036 0.135050
v -0.024319 0.002439 0.029995
v -0.023966 0.001595 0.018748
v -0.015935 0.005979 0.039653
v -0.018759 0.001505 0.029465
v -0.009172 0.006735 0.047687
v 0.007272 0.005789 0.063667
v 0.028663 0.004378 0.089288
v 0.049409 -0.003444 0.121021
v 0.048910 -0.005918 0.121379
v 0.047923 -0.001831 0.120906
v 0.047318 -0.004990 0.123975
v -0.031592 -0.001927 0.019024
v -0.031968 -0.006907 0.016265
v -0.030407 -0.000720 0.032012
v -0.019706 -0.003971 0.006465
v -0.007873 -0.004263 0.015561
v 0.061544 -0.003549 0.116080
v 0.047385 -0.009497 0.124634
v 0.041671 -0.010387 0.124343
v -0.024960 0.005791 0.027682
v -0.023338 0.004808 0.026638
v -0.022280 0.004491 0.029889
v -0.008531 0.007963 0.038933
v 0.020681 0.008109 0.045176
v 0.012087 0.008632 0.048482
v -0.000123 0.008554 0.047306
v 0.009837 0.007479 0.060160
v 0.017645 0.007032 0.068563
v 0.029563 0.006369 0.084886
v 0.041329 0.002880 0.103451
v -0.029239 0.002529 0.033965
v -0.019950 0.000852 0.043412
v -0.011856 0.001514 0.049879
v 0.003805 0.000678 0.066056
v 0.006605 0.000631 0.068866
v 0.017905 0.004168 0.078934
v 0.013932 -0.001135 0.077280
v 0.024860 -0.000047 0.093757
v 0.036436 -0.011108 0.118154
v 0.025736 -0.007630 0.096571
v 0.022188 -0.009732 0.062589
v 0.012277 -0.005889 0.073943
v 0.003332 -0.007713 0.062677
v -0.014041 -0.005012 0.046719
v -0.019837 -0.003006 0.041139
v -0.023317 -0.006667 0.022177
v 0.017699 0.008933 0.050138
v 0.011459 0.008634 0.043065
v 0.011902 0.007151 0.041732
v 0.011902 0.007151 0.041732
v 0.011750 0.005084 0.040237
v 0.010781 0.004694 0.041497
v -0.022187 -0.007062 0.013780
v -0.014041 -0.005012 0.046719
vt 0.485107 0.849854
vt 0.305908 0.867554
vt 0.303711 0.805054
vt 0.482666 0.797729
vt 0.171021 0.872314
vt 0.187134 0.810303
vt 0.299805 0.701904
vt 0.292480 0.508789
vt 0.468506 0.502197
vt 0.477783 0.695068
vt 0.194702 0.705811
vt 0.208618 0.511963
vt 0.463379 0.395020
vt 0.288818 0.405273
vt 0.285400 0.315918
vt 0.459229 0.309082
vt 0.215942 0.410156
vt 0.222656 0.318359
vt 0.289062 0.152344
vt 0.451416 0.154297
vt 0.161621 0.320312
vt 0.155396 0.238770
vt 0.220337 0.185059
vt 0.169312 0.209961
vt 0.122498 0.864502
vt 0.116333 0.804443
vt 0.144043 0.709717
vt 0.176758 0.515869
vt 0.181152 0.413086
vt 0.300781 0.974289
vt 0.306641 0.938232
vt 0.492920 0.929688
vt 0.493164 0.965027
vt 0.115662 0.974289
vt 0.117615 0.945618
vt 0.042053 0.921021
vt 0.055603 0.900085
vt 0.022766 0.896362
vt 0.015808 0.828857
vt 0.048431 0.823853
vt 0.031830 0.710449
vt 0.060791 0.706055
vt 0.068970 0.516113
vt 0.105103 0.512939
vt 0.059601 0.415527
vt 0.099060 0.415039
vt 0.059601 0.318848
vt 0.097595 0.318359
vt 0.057434 0.196289
vt 0.093506 0.199219
vt 0.088379 0.139160
vt 0.123718 0.164062
vt 0.110168 0.134277
vt 0.177490 0.108398
vt 0.186768 0.145996
vt 0.259277 0.070312
vt 0.265137 0.114258
vt 0.489502 0.054688
vt 0.495605 0.098145
vt 0.449951 0.101074
vt 0.443848 0.057617
vt 0.307617 0.908630
vt 0.487061 0.897339
vt 0.128906 0.908875
vt 0.083984 0.878662
vt 0.076050 0.815308
vt 0.097351 0.709473
vt 0.134399 0.514648
vt 0.148315 0.414062
vt 0.142090 0.321289
vt 0.122070 0.211426
vt 0.139282 0.177734
vt 0.197754 0.157715
vt 0.273193 0.125977
vt 0.449463 0.112793
vt 0.496582 0.109375
vt 0.493652 0.154785
vt 0.501953 0.307617
vt 0.504883 0.392090
vt 0.509277 0.500732
vt 0.516113 0.693848
vt 0.520020 0.796143
vt 0.521973 0.846191
vt 0.523926 0.895020
vt 0.527344 0.928101
vt 0.528320 0.963348
vt 0.485107 0.849854
vt 0.482666 0.797729
vt 0.303711 0.805054
vt 0.305908 0.867554
vt 0.187134 0.810303
vt 0.171021 0.872314
vt 0.299805 0.701904
vt 0.477783 0.695068
vt 0.468506 0.502197
vt 0.292480 0.508789
vt 0.204712 0.565430
vt 0.194702 0.705811
vt 0.463379 0.395020
vt 0.459229 0.309082
vt 0.285400 0.315918
vt 0.288818 0.405273
vt 0.222656 0.318359
vt 0.215942 0.410156
vt 0.451416 0.154297
vt 0.289062 0.152344
vt 0.155396 0.238770
vt 0.161621 0.320312
vt 0.220337 0.185059
vt 0.208618 0.511963
vt 0.169312 0.209961
vt 0.116333 0.804443
vt 0.122498 0.864502
vt 0.144043 0.709717
vt 0.176758 0.515869
vt 0.181152 0.413086
vt 0.492920 0.929688
vt 0.487061 0.897339
vt 0.307617 0.908630
vt 0.306641 0.938232
vt 0.128906 0.908875
vt 0.117615 0.945618
vt 0.083984 0.878662
vt 0.055603 0.900085
vt 0.076050 0.815308
vt 0.048431 0.823853
vt 0.097351 0.709473
vt 0.060791 0.706055
vt 0.134399 0.514648
vt 0.105103 0.512939
vt 0.148315 0.414062
vt 0.099060 0.415039
vt 0.142090 0.321289
vt 0.097595 0.318359
vt 0.122070 0.211426
vt 0.093506 0.199219
vt 0.139282 0.177734
vt 0.123718 0.164062
vt 0.197754 0.157715
vt 0.186768 0.145996
vt 0.273193 0.125977
vt 0.265137 0.114258
vt 0.449951 0.101074
vt 0.449463 0.112793
vt 0.495605 0.098145
vt 0.496582 0.109375
vt 0.493652 0.154785
vt 0.501953 0.307617
vt 0.504883 0.392090
vt 0.509277 0.500732
vt 0.516113 0.693848
vt 0.520020 0.796143
vt 0.521973 0.846191
vt 0.523926 0.895020
vt 0.527344 0.928101
vt 0.702637 0.868164
vt 0.644531 0.854980
vt 0.691406 0.797363
vt 0.746582 0.823364
vt 0.537598 0.796265
vt 0.538574 0.847412
vt 0.526855 0.500000
vt 0.533691 0.693115
vt 0.805664 0.369629
vt 0.721680 0.378906
vt 0.718262 0.299805
vt 0.800781 0.296387
vt 0.520020 0.307129
vt 0.522949 0.391113
vt 0.712891 0.144043
vt 0.797363 0.117676
vt 0.518555 0.161621
vt 0.809570 0.489258
vt 0.725586 0.492676
vt 0.903320 0.150391
vt 0.888184 0.286133
vt 0.862305 0.287109
vt 0.873047 0.133301
vt 0.853027 0.362793
vt 0.861816 0.487305
vt 0.879395 0.659180
vt 0.829102 0.739258
vt 0.813965 0.672363
vt 0.872559 0.586914
vt 0.864746 0.900085
vt 0.812988 0.889465
vt 0.824219 0.850708
vt 0.879395 0.875061
vt 0.891602 0.357910
vt 0.906250 0.485840
vt 0.909668 0.530518
vt 0.895996 0.908630
vt 0.914551 0.895874
vt 0.904297 0.806885
vt 0.931152 0.852295
vt 0.970703 0.875061
vt 0.956055 0.916260
vt 0.940918 0.913330
vt 0.957520 0.874756
vt 0.929199 0.948120
vt 0.916504 0.943268
vt 0.916016 0.964752
vt 0.859863 0.957123
vt 0.860352 0.935547
vt 0.806641 0.950623
vt 0.806641 0.924255
vt 0.750977 0.948120
vt 0.749023 0.919922
vt 0.564453 0.960175
vt 0.544434 0.926025
vt 0.563477 0.923706
vt 0.598633 0.052246
vt 0.599121 0.103027
vt 0.542969 0.100098
vt 0.539551 0.053711
vt 0.712402 0.034668
vt 0.717773 0.082520
vt 0.807617 0.020996
vt 0.807617 0.072266
vt 0.904297 0.020996
vt 0.903320 0.077148
vt 0.951172 0.039062
vt 0.947754 0.101074
vt 0.984375 0.106445
vt 0.984375 0.285645
vt 0.948242 0.282227
vt 0.984375 0.352539
vt 0.944336 0.351562
vt 0.989258 0.468262
vt 0.958008 0.466309
vt 0.989746 0.482910
vt 0.974609 0.574463
vt 0.950195 0.571045
vt 0.959473 0.479492
vt 0.930664 0.904297
vt 0.946777 0.864624
vt 0.907227 0.932861
vt 0.859863 0.921143
vt 0.803711 0.911865
vt 0.749023 0.903503
vt 0.541504 0.894043
vt 0.519043 0.099121
vt 0.519043 0.110352
vt 0.711426 0.094238
vt 0.596191 0.113281
vt 0.796875 0.083984
vt 0.890625 0.088379
vt 0.933594 0.118652
vt 0.925293 0.291992
vt 0.921387 0.356445
vt 0.939941 0.484375
vt 0.698242 0.894226
vt 0.628418 0.889160
vt 0.712891 0.869629
vt 0.593262 0.181152
vt 0.597168 0.304199
vt 0.600098 0.386719
vt 0.604004 0.497070
vt 0.732910 0.685547
vt 0.610352 0.690186
vt 0.614258 0.796875
vt 0.604004 0.890503
vt 0.620117 0.916748
vt 0.603516 0.918762
vt 0.616699 0.955566
vt 0.604004 0.956696
vt 0.542480 0.111328
vt 0.541016 0.167480
vt 0.544922 0.306152
vt 0.547363 0.389648
vt 0.550293 0.499023
vt 0.555176 0.692383
vt 0.558105 0.796387
vt 0.608398 0.852295
vt 0.559570 0.848877
vt 0.560059 0.892944
vt 0.778320 0.841064
vt 0.702637 0.868164
vt 0.758301 0.881897
vt 0.790039 0.843506
vt 0.559570 0.848877
vt 0.558105 0.796387
vt 0.809570 0.489258
vt 0.725586 0.492676
vt 0.732910 0.685547
vt 0.788086 0.696289
vt 0.813965 0.675781
vt 0.555176 0.692383
vt 0.550293 0.499023
vt 0.805664 0.369629
vt 0.800781 0.296387
vt 0.718262 0.299805
vt 0.721680 0.378906
vt 0.547363 0.389648
vt 0.544922 0.306152
vt 0.797363 0.117676
vt 0.712891 0.144043
vt 0.541016 0.167480
vt 0.903320 0.150391
vt 0.873047 0.133301
vt 0.862305 0.287109
vt 0.888184 0.286133
vt 0.853027 0.362793
vt 0.861816 0.487305
vt 0.866211 0.780762
vt 0.894043 0.717285
vt 0.892090 0.699707
vt 0.857910 0.775146
vt 0.864746 0.900085
vt 0.879395 0.875061
vt 0.824219 0.850708
vt 0.812988 0.889465
vt 0.891602 0.357910
vt 0.906250 0.485840
vt 0.919922 0.687012
vt 0.918457 0.664062
vt 0.895996 0.908630
vt 0.914551 0.895874
vt 0.842773 0.792236
vt 0.833984 0.819702
vt 0.931152 0.852295
vt 0.904297 0.806885
vt 0.957520 0.874756
vt 0.946777 0.864624
vt 0.930664 0.904297
vt 0.940918 0.913330
vt 0.907227 0.932861
vt 0.916504 0.943268
vt 0.859863 0.921143
vt 0.860352 0.935547
vt 0.803711 0.911865
vt 0.806641 0.924255
vt 0.698242 0.894226
vt 0.700195 0.914551
vt 0.750977 0.920105
vt 0.750488 0.903748
vt 0.563477 0.923706
vt 0.560059 0.892944
vt 0.542969 0.100098
vt 0.542480 0.111328
vt 0.599121 0.103027
vt 0.596191 0.113281
vt 0.711426 0.094238
vt 0.717773 0.082520
vt 0.796875 0.083984
vt 0.807617 0.072266
vt 0.890625 0.088379
vt 0.903320 0.077148
vt 0.933594 0.118652
vt 0.947754 0.101074
vt 0.925293 0.291992
vt 0.948242 0.282227
vt 0.921387 0.356445
vt 0.944336 0.351562
vt 0.939941 0.484375
vt 0.958008 0.465332
vt 0.939941 0.639404
vt 0.940430 0.659912
vt 0.953613 0.644775
vt 0.950195 0.572021
vt 0.593262 0.181152
vt 0.597168 0.304199
vt 0.600098 0.386719
vt 0.604004 0.497070
vt 0.610352 0.690186
vt 0.614258 0.796875
vt 0.665039 0.797241
vt 0.707031 0.754883
vt 0.640625 0.888428
vt 0.655273 0.855713
vt 0.639648 0.914368
vt 0.608398 0.852295
vt 0.604004 0.890503
vt 0.603516 0.918762
vt 0.935059 0.592529
vt 0.934570 0.576416
vt 0.918945 0.671875
vt 0.909180 0.611084
vt 0.893555 0.711182
vt 0.854980 0.773193
vt 0.787109 0.843506
vt 0.700195 0.914551
vt 0.636230 0.914734
vt 0.700195 0.947754
vt 0.639648 0.953522
vt 0.959473 0.479492
vt 0.940430 0.492676
vt 0.940430 0.500977
vt 0.908203 0.513184
vt 0.868652 0.551025
vt 0.628418 0.853760
vt 0.616211 0.917175
vt 0.625977 0.889282
vt 0.973633 0.646729
vt 0.953613 0.638916
vt 0.939941 0.651611
vt 0.920410 0.698486
vt 0.927734 0.801392
vt 0.901855 0.783936
vt 0.896973 0.743164
vt 0.866211 0.780762
vt 0.841797 0.806885
vt 0.798828 0.845825
vt 0.755859 0.881592
vt 0.934570 0.579590
vt 0.908691 0.606201
vt 0.877930 0.648926
vt 0.834961 0.743164
vt 0.824219 0.754639
vt 0.814453 0.812500
vt 0.789551 0.780518
vt 0.737305 0.821411
vt 0.649902 0.855347
vt 0.691406 0.797363
vt 0.764160 0.715576
vt 0.768066 0.740967
vt 0.814941 0.701660
vt 0.872070 0.580566
vt 0.909668 0.534668
vt 0.909180 0.523926
vt 0.926270 0.782471
vt 0.943359 0.756226
vt 0.955566 0.756836
vt 0.972168 0.757935
vt 0.955078 0.752441
vt 0.943359 0.756592
vt 0.908691 0.518555
vt 0.872070 0.580566
vn 0.0975 -0.9869 -0.1287
vn -0.0039 -0.9944 -0.1053
vn -0.0039 -0.9998 -0.0196
vn 0.1370 -0.9902 -0.0274
vn 0.0196 -0.9914 -0.1293
vn -0.0039 -0.9996 -0.0274
vn 0.1447 -0.9893 -0.0195
vn 0.1523 -0.9880 -0.0273
vn 0.1447 -0.9895 -0.0039
vn -0.0039 -1.0000 -0.0039
vn -0.0039 -0.9996 0.0274
vn 0.1369 -0.9900 0.0352
vn 0.0428 -0.9622 0.2688
vn 0.0665 -0.9821 0.1761
vn 0.1916 -0.9813 0.0195
vn 0.1445 -0.9878 0.0586
vn 0.0430 -0.9874 0.1522
vn 0.0740 -0.9856 0.1519
vn 0.1209 -0.9871 -0.1053
vn 0.1294 -0.9915 -0.0118
vn 0.0898 -0.9959 -0.0117
vn 0.0898 -0.9959 -0.0039
vn 0.1053 -0.9944 -0.0039
vn -0.0432 0.7025 0.7103
vn -0.0584 -0.6659 0.7438
vn 0.1598 -0.6742 0.7210
vn 0.2158 0.7021 0.6786
vn -0.3262 0.6485 0.6878
vn -0.3380 -0.6255 0.7032
vn -0.6619 0.6462 0.3799
vn -0.6794 -0.6250 0.3844
vn -0.7334 0.6785 0.0431
vn -0.7594 -0.6504 0.0195
vn -0.7003 0.7081 -0.0900
vn -0.7272 -0.6728 -0.1361
vn -0.6866 0.7180 -0.1138
vn -0.7219 -0.6751 -0.1522
vn -0.6697 0.7403 -0.0588
vn -0.7133 -0.6977 -0.0663
vn -0.6790 0.7340 0.0118
vn -0.7289 -0.6821 0.0585
vn -0.7407 0.6389 -0.2077
vn -0.7681 -0.6200 -0.1599
vn -0.4987 0.6322 -0.5930
vn -0.5194 -0.6600 -0.5428
vn -0.4987 0.6322 -0.5929
vn -0.2553 0.6638 -0.7030
vn -0.2714 -0.6961 -0.6647
vn -0.1615 0.6738 -0.7210
vn -0.1607 -0.7096 -0.6861
vn -0.3347 0.4449 -0.8307
vn 0.5223 -0.4829 -0.7029
vn 0.0275 -0.7338 -0.6789
vn -0.0987 0.6672 -0.7383
vn -0.0039 -0.9983 -0.0587
vn 0.0351 -0.9953 -0.0898
vn 0.0196 -0.9989 -0.0431
vn 0.0431 -0.9984 -0.0352
vn 0.0509 -0.9985 -0.0196
vn 0.0587 -0.9982 -0.0118
vn 0.0976 -0.9952 -0.0039
vn 0.1600 -0.9869 0.0195
vn 0.0430 -0.9963 0.0742
vn 0.0351 -0.9930 0.1129
vn 0.0352 -0.9889 0.1446
vn 0.0429 -0.9704 0.2377
vn 0.1216 -0.9841 0.1294
vn 0.7580 -0.6480 0.0746
vn 0.5846 -0.8044 0.1059
vn 0.6542 -0.7561 0.0196
vn 0.6459 -0.7634 -0.0039
vn 0.6459 -0.7633 -0.0118
vn 0.6412 -0.7671 -0.0197
vn 0.5977 -0.8009 -0.0352
vn 0.6325 -0.7661 -0.1139
vn 0.6536 -0.7397 -0.1604
vn 0.5426 -0.7612 0.3552
vn 0.0977 0.4183 0.9030
vn -0.1855 0.9826 -0.0118
vn -0.0981 0.9929 0.0667
vn 0.0118 0.9995 0.0277
vn 0.0196 0.9933 -0.1139
vn -0.0039 0.9996 0.0276
vn 0.0197 0.9902 -0.1381
vn -0.0040 0.9994 0.0356
vn -0.1302 0.9902 0.0513
vn -0.1689 0.9854 0.0197
vn -0.1459 0.9893 0.0039
vn -0.1381 0.9902 -0.0197
vn -0.0039 0.9998 -0.0198
vn -0.0040 0.9999 0.0119
vn -0.1529 0.9841 0.0902
vn 0.0509 0.9752 0.2154
vn 0.1855 0.9826 -0.0118
vn 0.2493 0.9682 -0.0197
vn 0.0591 0.9960 0.0669
vn 0.0981 0.9929 0.0667
vn 0.1611 0.9860 0.0432
vn 0.1539 0.9823 -0.1065
vn 0.1146 0.9916 0.0592
vn 0.1147 0.9925 0.0435
vn 0.1381 0.9903 0.0118
vn 0.0906 0.9874 -0.1299
vn 0.0198 0.9913 -0.1303
vn 0.0513 0.9912 -0.1224
vn 0.1301 0.9902 -0.0512
vn 0.1458 0.9889 0.0276
vn 0.1301 0.9897 0.0592
vn -0.7003 0.7081 -0.0899
vn 0.1379 0.9891 0.0512
vn 0.1854 0.9825 0.0197
vn 0.2638 0.9645 -0.0118
vn -0.6790 0.7340 0.0117
vn 0.1139 0.9934 -0.0118
vn -0.7408 0.6389 -0.2077
vn 0.0749 0.9968 0.0276
vn 0.0512 0.9964 0.0670
vn 0.0433 0.9803 0.1929
vn -0.1615 0.6738 -0.7211
vn -0.0747 0.9955 0.0590
vn -0.3346 0.4449 -0.8307
vn -0.7774 0.6290 -0.0039
vn -0.8231 0.5656 0.0507
vn -0.6991 0.7147 0.0195
vn -0.6952 0.7188 -0.0039
vn -0.7811 0.6241 0.0197
vn -0.8756 0.4829 -0.0118
vn -0.8709 0.4647 -0.1601
vn -0.7406 0.6700 0.0509
vn -0.1839 0.9744 0.1291
vn 0.0978 0.4183 0.9030
vn 0.6176 0.5940 -0.5154
vn -0.3424 0.8619 0.3739
vn -0.2481 0.9493 0.1930
vn 0.7044 0.6651 -0.2479
vn 0.9823 0.1854 0.0276
vn 0.9684 0.2253 0.1067
vn 0.9926 0.1216 0.0039
vn 0.9879 0.1535 0.0197
vn -0.0355 0.9993 0.0118
vn -0.1855 0.9826 0.0118
vn -0.0434 0.9990 -0.0118
vn 0.9943 0.1061 -0.0118
vn 0.9935 0.1139 0.0039
vn -0.1772 0.9807 0.0827
vn 0.0355 0.9887 0.1457
vn 0.9974 0.0670 -0.0276
vn -0.0355 0.9990 0.0276
vn -0.1854 0.9823 0.0277
vn 0.1226 0.9924 0.0119
vn 0.0749 0.9970 -0.0197
vn -0.0355 0.9993 -0.0119
vn 0.0432 0.9950 0.0905
vn -0.0435 0.9990 0.0119
vn -0.0434 0.9987 0.0276
vn 0.2965 0.9052 -0.3044
vn 0.3913 0.8657 -0.3123
vn 0.1384 0.9846 -0.1068
vn 0.0513 0.9959 -0.0748
vn -0.0585 -0.9943 -0.0897
vn -0.1918 -0.9748 -0.1136
vn -0.0196 -0.9998 -0.0039
vn -0.0742 -0.9955 -0.0586
vn 0.1139 0.9934 0.0117
vn 0.1060 0.9931 0.0511
vn 0.1138 0.9931 -0.0275
vn -0.0431 -0.9991 -0.0039
vn -0.0895 -0.9920 0.0895
vn -0.0117 -0.9997 -0.0196
vn -0.1293 -0.9758 0.1763
vn 0.1855 0.6748 -0.7143
vn 0.5009 0.6823 -0.5325
vn 0.5949 -0.6027 -0.5318
vn 0.2476 -0.6405 -0.7270
vn 0.6922 0.7159 -0.0910
vn 0.8140 -0.5623 -0.1455
vn 0.6922 0.7159 -0.0909
vn 0.4983 0.8436 0.2001
vn 0.8511 -0.5217 0.0588
vn 0.6330 0.7588 0.1534
vn 0.7795 -0.6228 -0.0666
vn 0.6043 0.7150 0.3516
vn 0.9539 -0.2944 0.0589
vn -0.5115 0.5505 0.6598
vn 0.5929 -0.1139 0.7972
vn 0.4035 0.4662 0.7873
vn -0.2622 -0.6379 -0.7241
vn -0.2160 0.7504 -0.6247
vn 0.3040 0.6118 -0.7303
vn -0.6077 -0.0980 -0.7881
vn -0.0117 -0.7562 -0.6543
vn -0.2570 0.6128 -0.7473
vn -0.2004 -0.7346 -0.6482
vn -0.2560 0.6262 -0.7364
vn -0.3802 -0.7172 -0.5840
vn -0.4121 0.6162 -0.6711
vn -0.7386 -0.6213 -0.2618
vn -0.7700 0.5668 -0.2931
vn -0.7385 -0.6213 -0.2618
vn -0.6557 -0.7488 0.0970
vn -0.7492 0.6551 0.0980
vn -0.6588 -0.7523 -0.0039
vn -0.7411 0.6705 0.0353
vn -0.8115 -0.5552 0.1825
vn -0.7799 0.6231 0.0588
vn -0.9612 0.2607 0.0895
vn -0.7351 0.6565 -0.1690
vn -0.0750 0.7935 -0.6040
vn -0.5753 0.8101 0.1135
vn 0.0898 -0.9958 -0.0195
vn -0.0506 -0.9932 0.1052
vn 0.1291 -0.9899 -0.0587
vn 0.0195 -0.9950 -0.0975
vn -0.1683 -0.9669 -0.1918
vn 0.1678 -0.9483 -0.2693
vn 0.9972 0.0749 0.0039
vn 0.6717 0.2082 -0.7110
vn 0.9971 0.0749 -0.0118
vn -0.1927 0.9790 0.0669
vn -0.0513 0.9986 -0.0118
vn -0.0039 0.9987 0.0513
vn 0.0040 0.9999 0.0119
vn 0.0040 0.9998 -0.0198
vn 0.0434 0.9990 -0.0118
vn -0.0355 0.9992 0.0197
vn 0.5450 -0.7018 -0.4588
vn 0.3907 0.7616 -0.5170
vn 0.5052 -0.6697 -0.5444
vn -0.1303 0.9911 0.0276
vn -0.1381 0.9903 -0.0118
vn -0.1303 0.9914 0.0119
vn -0.1216 0.9922 0.0274
vn -0.1458 0.9891 0.0197
vn -0.1144 0.9906 0.0750
vn -0.1530 0.9693 0.1923
vn -0.4105 0.7545 0.5121
vn 0.2479 0.6651 0.7044
vn -0.4890 0.4499 0.7473
vn -0.0510 0.6863 0.7255
vn -0.3703 -0.7601 0.5340
vn 0.6192 0.7769 -0.1144
vn 0.5259 0.8501 -0.0277
vn 0.4519 0.8920 -0.0118
vn 0.4551 0.8904 0.0119
vn 0.4549 0.8901 0.0277
vn 0.4221 0.9034 0.0750
vn 0.2802 0.9511 0.1302
vn -0.2320 0.9318 0.2792
vn 0.1531 0.9775 0.1452
vn 0.2871 0.9006 0.3264
vn -0.6081 0.6787 0.4119
vn -0.5515 0.6923 0.4654
vn -0.2000 0.9371 0.2862
vn -0.3017 0.9287 0.2155
vn -0.7924 -0.5738 -0.2069
vn -0.6694 -0.7086 -0.2231
vn 0.0352 -0.9977 -0.0587
vn 0.1840 -0.9825 -0.0274
vn 0.3168 -0.9426 -0.1056
vn 0.0743 -0.9969 0.0273
vn -0.0587 -0.9983 -0.0039
vn -0.6908 -0.7142 -0.1132
vn -0.8113 -0.5840 -0.0274
vn 0.0274 -0.9996 -0.0039
vn 0.0353 -0.9992 0.0196
vn 0.1840 -0.9827 0.0196
vn 0.1765 -0.9843 -0.0039
vn -0.8602 -0.5099 0.0117
vn -0.8788 -0.4726 0.0664
vn 0.1213 -0.9506 0.2856
vn 0.2156 -0.9604 0.1764
vn -0.7849 -0.6131 0.0898
vn 0.1998 -0.9757 0.0901
vn 0.1285 -0.9700 0.2065
vn 0.0274 -0.9994 0.0196
vn 0.0353 -0.9994 -0.0040
vn 0.0430 -0.9978 -0.0509
vn -0.1849 0.9637 0.1927
vn -0.1137 0.9763 0.1843
vn -0.4561 0.7446 0.4873
vn -0.5906 0.6297 0.5046
vn -0.1381 0.9903 0.0118
vn 0.1140 0.9869 0.1140
vn -0.0277 0.9995 -0.0118
vn 0.0040 0.9996 0.0276
vn 0.2157 -0.9764 -0.0118
vn 0.2688 -0.9622 -0.0428
vn -0.1144 0.9906 -0.0750
vn -0.5279 0.7156 0.4575
vn -0.2795 0.9566 0.0826
vn -0.0119 0.9914 0.1303
vn -0.5808 0.6276 0.5184
vn -0.2314 0.9450 0.2313
vn -0.0434 0.9977 0.0513
vn -0.1927 0.9715 0.1377
vn -0.3504 0.9330 0.0827
vn -0.2564 0.9666 -0.0039
vn 0.0355 0.9834 0.1777
vn 0.6330 0.7588 0.1533
vn -0.1840 0.7792 0.5991
vn 0.2714 0.6806 0.6806
vn 0.6044 0.7150 0.3515
vn 0.1062 0.9246 0.3659
vn -0.9159 -0.3235 -0.2378
vn -0.8383 -0.5420 -0.0585
vn -0.0117 -0.9944 0.1053
vn 0.2617 -0.9490 0.1757
vn -0.0118 -0.7562 -0.6543
vn 0.1058 -0.9523 0.2861
vn -0.2003 -0.7346 -0.6482
vn 0.0978 -0.9734 0.2072
vn 0.0979 -0.9911 0.0901
vn 0.2690 -0.9628 -0.0273
vn -0.0743 -0.9972 -0.0039
vn -0.5451 0.7961 0.2628
vn -0.2249 0.9744 -0.0039
vn -0.2794 0.8382 -0.4683
vn -0.7351 0.6565 -0.1691
vn -0.0039 -0.9983 0.0587
vn 0.0196 -0.9996 0.0196
vn 0.0743 -0.9972 0.0117
vn 0.0587 -0.9979 -0.0274
vn 0.0195 -0.9958 -0.0898
vn 0.0196 -0.9763 -0.2157
vn 0.3242 -0.9336 -0.1524
vn 0.2541 -0.9658 -0.0508
vn -0.4825 0.3648 0.7963
vn -0.8201 0.1360 0.5558
vn 0.3393 0.3939 0.8542
vn -0.0664 -0.9489 -0.3085
vn 0.1450 -0.9288 -0.3410
vn 0.7608 0.3351 -0.5558
vn 0.7611 -0.2169 -0.6113
vn 0.1615 0.9572 -0.2403
vn 0.7384 -0.2014 -0.6436
vn 0.7143 -0.1855 -0.6748
vn 0.5450 -0.7018 -0.4587
vn 0.8193 -0.1529 0.5527
vn 0.9481 -0.0669 -0.3108
vn 0.3393 0.3940 0.8542
vn -0.7361 -0.6660 0.1207
vn -0.8591 -0.3771 0.3461
vn 0.2865 -0.9458 -0.1531
vn 0.0351 -0.9938 -0.1052
vn 0.1444 -0.9403 -0.3082
vn -0.2063 -0.6268 0.7514
vn 0.3420 0.0118 -0.9396
vn 0.4185 -0.8878 -0.1917
vn 0.0117 -0.9631 0.2690
vn -0.1132 -0.8471 0.5192
vn 0.0039 -0.9996 0.0274
vn 0.0818 -0.9939 -0.0740
vn 0.1291 -0.9744 -0.1839
vn 0.0352 -0.9966 -0.0742
vn 0.1604 -0.9739 -0.1604
vn 0.1606 -0.8972 -0.4113
vn -0.7767 0.3786 0.5035
vn -0.6904 0.0508 0.7216
vn -0.6685 0.1368 0.7310
vn -0.7299 0.0274 0.6830
vn -0.7376 -0.0117 0.6752
vn -0.6254 0.5860 0.5152
vn -0.7910 0.0974 0.6040
vn -0.8150 0.3470 0.4640
vn -0.4413 -0.8240 0.3554
vn -0.6044 -0.7603 0.2379
vn 0.1215 -0.9909 0.0587
vn -0.5279 -0.7000 0.4810
vn -0.4944 -0.7202 0.4866
vn -0.5893 -0.6440 0.4878
vn -0.6140 -0.6375 0.4655
vn -0.3623 -0.9311 0.0428
vn 0.0906 0.9023 -0.4216
vn 0.1458 0.6422 -0.7525
vn 0.2640 -0.3979 -0.8786
vn -0.0662 -0.8994 0.4322
vn 0.1293 -0.9915 -0.0118
vn 0.1523 -0.9880 0.0273
usemtl Material.020
s 1
f 1/1/1 2/2/2 3/3/3
f 3/3/3 4/4/4 1/1/1
f 2/2/2 5/5/5 6/6/3
f 6/6/3 3/3/3 2/2/2
f 7/7/6 8/8/3 9/9/7
f 9/9/7 10/10/8 7/7/6
f 7/7/6 11/11/6 12/12/3
f 12/12/3 8/8/3 7/7/6
f 13/13/9 14/14/10 15/15/11
f 15/15/11 16/16/12 13/13/9
f 14/14/10 17/17/10 18/18/11
f 18/18/11 15/15/11 14/14/10
f 15/15/11 19/19/13 20/20/14
f 20/20/14 16/16/12 15/15/11
f 21/21/15 22/22/16 18/18/11
f 23/23/17 19/19/13 15/15/11
f 15/15/11 18/18/11 23/23/17
f 11/11/6 7/7/6 3/3/3
f 3/3/3 6/6/3 11/11/6
f 7/7/6 10/10/8 4/4/4
f 4/4/4 3/3/3 7/7/6
f 9/9/7 8/8/3 14/14/10
f 14/14/10 13/13/9 9/9/7
f 8/8/3 12/12/3 17/17/10
f 17/17/10 14/14/10 8/8/3
f 22/22/16 24/24/18 23/23/17
f 23/23/17 18/18/11 22/22/16
f 5/5/5 25/25/19 26/26/20
f 26/26/20 6/6/3 5/5/5
f 6/6/3 26/26/20 27/27/21
f 27/27/21 11/11/6 6/6/3
f 11/11/6 27/27/21 28/28/22
f 28/28/22 12/12/3 11/11/6
f 12/12/3 28/28/22 29/29/23
f 29/29/23 17/17/10 12/12/3
f 17/17/10 29/29/23 21/21/15
f 21/21/15 18/18/11 17/17/10
f 30/30/24 31/31/25 32/32/26
f 32/32/26 33/33/27 30/30/24
f 30/30/24 34/34/28 35/35/29
f 35/35/29 31/31/25 30/30/24
f 34/34/28 36/36/30 37/37/31
f 37/37/31 35/35/29 34/34/28
f 38/38/30 39/39/32 40/40/33
f 40/40/33 37/37/31 38/38/30
f 39/39/32 41/41/34 42/42/35
f 42/42/35 40/40/33 39/39/32
f 41/41/34 43/43/36 44/44/37
f 44/44/37 42/42/35 41/41/34
f 43/43/36 45/45/38 46/46/39
f 46/46/39 44/44/37 43/43/36
f 45/45/38 47/47/40 48/48/41
f 48/48/41 46/46/39 45/45/38
f 47/47/40 49/49/42 50/50/43
f 50/50/43 48/48/41 47/47/40
f 49/49/42 51/51/44 52/52/45
f 52/52/45 50/50/43 49/49/42
f 53/53/46 54/54/47 55/55/48
f 55/55/48 52/52/45 53/53/46
f 54/54/47 56/56/49 57/57/50
f 57/57/50 55/55/48 54/54/47
f 58/58/51 59/59/52 60/60/53
f 60/60/53 61/61/54 58/58/51
f 32/32/26 31/31/25 62/62/55
f 62/62/55 63/63/56 32/32/26
f 31/31/25 35/35/29 64/64/57
f 64/64/57 62/62/55 31/31/25
f 35/35/29 37/37/31 65/65/58
f 65/65/58 64/64/57 35/35/29
f 37/37/31 40/40/33 66/66/59
f 66/66/59 65/65/58 37/37/31
f 40/40/33 42/42/35 67/67/59
f 67/67/59 66/66/59 40/40/33
f 42/42/35 44/44/37 68/68/60
f 68/68/60 67/67/59 42/42/35
f 44/44/37 46/46/39 69/69/61
f 69/69/61 68/68/60 44/44/37
f 46/46/39 48/48/41 70/70/62
f 70/70/62 69/69/61 46/46/39
f 48/48/41 50/50/43 71/71/63
f 71/71/63 70/70/62 48/48/41
f 50/50/43 52/52/45 72/72/64
f 72/72/64 71/71/63 50/50/43
f 52/52/45 55/55/48 73/73/65
f 73/73/65 72/72/64 52/52/45
f 55/55/48 57/57/50 74/74/66
f 74/74/66 73/73/65 55/55/48
f 60/60/53 75/75/67 74/74/66
f 74/74/66 57/57/50 60/60/53
f 63/63/56 62/62/55 2/2/2
f 2/2/2 1/1/1 63/63/56
f 62/62/55 64/64/57 5/5/5
f 5/5/5 2/2/2 62/62/55
f 64/64/57 65/65/58 25/25/19
f 25/25/19 5/5/5 64/64/57
f 65/65/58 66/66/59 26/26/20
f 26/26/20 25/25/19 65/65/58
f 66/66/59 67/67/59 27/27/21
f 27/27/21 26/26/20 66/66/59
f 67/67/59 68/68/60 28/28/22
f 28/28/22 27/27/21 67/67/59
f 68/68/60 69/69/61 29/29/23
f 29/29/23 28/28/22 68/68/60
f 69/69/61 70/70/62 21/21/15
f 21/21/15 29/29/23 69/69/61
f 70/70/62 71/71/63 22/22/16
f 22/22/16 21/21/15 70/70/62
f 71/71/63 72/72/64 24/24/18
f 24/24/18 22/22/16 71/71/63
f 72/72/64 73/73/65 23/23/17
f 23/23/17 24/24/18 72/72/64
f 73/73/65 74/74/66 19/19/13
f 19/19/13 23/23/17 73/73/65
f 75/75/67 20/20/14 19/19/13
f 19/19/13 74/74/66 75/75/67
f 59/59/52 76/76/68 75/75/67
f 75/75/67 60/60/53 59/59/52
f 75/75/67 76/76/68 77/77/69
f 77/77/69 20/20/14 75/75/67
f 77/77/69 78/78/70 16/16/12
f 16/16/12 20/20/14 77/77/69
f 78/78/70 79/79/71 13/13/9
f 13/13/9 16/16/12 78/78/70
f 79/79/71 80/80/72 9/9/7
f 9/9/7 13/13/9 79/79/71
f 80/80/72 81/81/73 10/10/8
f 10/10/8 9/9/7 80/80/72
f 81/81/73 82/82/74 4/4/4
f 4/4/4 10/10/8 81/81/73
f 4/4/4 82/82/74 83/83/75
f 83/83/75 1/1/1 4/4/4
f 1/1/1 83/83/75 84/84/76
f 84/84/76 63/63/56 1/1/1
f 63/63/56 84/84/76 85/85/77
f 85/85/77 32/32/26 63/63/56
f 85/85/77 86/86/78 33/33/27
f 33/33/27 32/32/26 85/85/77
f 87/87/79 88/88/80 89/89/81
f 89/89/81 90/90/82 87/87/79
f 90/90/82 89/89/81 91/91/83
f 91/91/83 92/92/84 90/90/82
f 93/93/85 94/94/86 95/95/87
f 95/95/87 96/96/83 93/93/85
f 97/97/85 98/98/85 93/93/85
f 99/99/88 100/100/89 101/101/90
f 101/101/90 102/102/91 99/99/88
f 102/102/91 101/101/90 103/103/90
f 103/103/90 104/104/91 102/102/91
f 101/101/90 100/100/89 105/105/92
f 105/105/92 106/106/93 101/101/90
f 103/103/90 107/107/94 108/108/95
f 109/109/96 103/103/90 101/101/90
f 101/101/90 106/106/93 109/109/96
f 98/98/85 91/91/83 89/89/81
f 89/89/81 93/93/85 98/98/85
f 88/88/80 94/94/86 93/93/85
f 95/95/87 99/99/88 102/102/91
f 102/102/91 96/96/83 95/95/87
f 96/96/83 102/102/91 104/104/91
f 104/104/91 110/110/83 96/96/83
f 107/107/94 103/103/90 109/109/96
f 109/109/96 111/111/97 107/107/94
f 92/92/84 91/91/83 112/112/98
f 112/112/98 113/113/99 92/92/84
f 91/91/83 98/98/85 114/114/100
f 114/114/100 112/112/98 91/91/83
f 97/97/85 110/110/83 115/115/101
f 98/98/85 97/97/85 115/115/101
f 98/98/85 115/115/101 114/114/100
f 110/110/83 104/104/91 116/116/102
f 116/116/102 115/115/101 110/110/83
f 104/104/91 103/103/90 108/108/95
f 108/108/95 116/116/102 104/104/91
f 117/117/27 118/118/103 119/119/104
f 119/119/104 120/120/24 117/117/27
f 120/120/24 119/119/104 121/121/105
f 121/121/105 122/122/28 120/120/24
f 122/122/28 121/121/105 123/123/106
f 123/123/106 124/124/30 122/122/28
f 124/124/30 123/123/106 125/125/107
f 125/125/107 126/126/32 124/124/30
f 126/126/32 125/125/107 127/127/108
f 127/127/108 128/128/109 126/126/32
f 128/128/109 127/127/108 129/129/110
f 129/129/110 130/130/36 128/128/109
f 130/130/36 129/129/110 131/131/111
f 131/131/111 132/132/38 130/130/36
f 132/132/38 131/131/111 133/133/112
f 133/133/112 134/134/113 132/132/38
f 134/134/113 133/133/112 135/135/114
f 135/135/114 136/136/115 134/134/113
f 136/136/115 135/135/114 137/137/116
f 137/137/116 138/138/44 136/136/115
f 138/138/44 137/137/116 139/139/117
f 139/139/117 140/140/47 138/138/44
f 140/140/47 139/139/117 141/141/118
f 141/141/118 142/142/119 140/140/47
f 143/143/54 142/142/119 141/141/118
f 141/141/118 144/144/120 143/143/54
f 118/118/103 87/87/79 90/90/82
f 90/90/82 119/119/104 118/118/103
f 119/119/104 90/90/82 92/92/84
f 92/92/84 121/121/105 119/119/104
f 121/121/105 92/92/84 113/113/99
f 113/113/99 123/123/106 121/121/105
f 123/123/106 113/113/99 112/112/98
f 112/112/98 125/125/107 123/123/106
f 125/125/107 112/112/98 114/114/100
f 114/114/100 127/127/108 125/125/107
f 127/127/108 114/114/100 115/115/101
f 115/115/101 129/129/110 127/127/108
f 129/129/110 115/115/101 116/116/102
f 116/116/102 131/131/111 129/129/110
f 131/131/111 116/116/102 108/108/95
f 108/108/95 133/133/112 131/131/111
f 133/133/112 108/108/95 107/107/94
f 107/107/94 135/135/114 133/133/112
f 135/135/114 107/107/94 111/111/97
f 111/111/97 137/137/116 135/135/114
f 137/137/116 111/111/97 109/109/96
f 109/109/96 139/139/117 137/137/116
f 139/139/117 109/109/96 106/106/93
f 106/106/93 141/141/118 139/139/117
f 144/144/120 141/141/118 106/106/93
f 106/106/93 105/105/92 144/144/120
f 145/145/121 143/143/54 144/144/120
f 144/144/120 146/146/122 145/145/121
f 144/144/120 105/105/92 147/147/123
f 147/147/123 146/146/122 144/144/120
f 147/147/123 105/105/92 100/100/89
f 100/100/89 148/148/124 147/147/123
f 148/148/124 100/100/89 99/99/88
f 99/99/88 149/149/125 148/148/124
f 149/149/125 99/99/88 95/95/87
f 95/95/87 150/150/126 149/149/125
f 150/150/126 95/95/87 94/94/86
f 94/94/86 151/151/127 150/150/126
f 151/151/127 94/94/86 88/88/80
f 88/88/80 152/152/128 151/151/127
f 88/88/80 87/87/79 153/153/129
f 153/153/129 152/152/128 88/88/80
f 87/87/79 118/118/103 154/154/130
f 154/154/130 153/153/129 87/87/79
f 118/118/103 117/117/27 155/155/131
f 155/155/131 154/154/130 118/118/103
f 57/57/50 56/56/49 61/61/54
f 61/61/54 60/60/53 57/57/50
f 156/156/132 157/157/133 158/158/134
f 158/158/134 159/159/135 156/156/132
f 83/83/75 82/82/74 160/160/136
f 160/160/136 161/161/137 83/83/75
f 81/81/73 80/80/72 162/162/138
f 162/162/138 163/163/139 81/81/73
f 164/164/140 165/165/141 166/166/79
f 166/166/79 167/167/142 164/164/140
f 79/79/71 78/78/70 168/168/143
f 168/168/143 169/169/144 79/79/71
f 167/167/142 166/166/79 170/170/145
f 170/170/145 171/171/146 167/167/142
f 78/78/70 77/77/69 172/172/147
f 172/172/147 168/168/143 78/78/70
f 173/173/148 174/174/149 165/165/141
f 165/165/141 164/164/140 173/173/148
f 175/175/150 176/176/151 177/177/152
f 177/177/152 178/178/153 175/175/150
f 171/171/146 178/178/153 177/177/152
f 177/177/152 167/167/142 171/171/146
f 167/167/142 177/177/152 179/179/154
f 179/179/154 164/164/140 167/167/142
f 164/164/140 179/179/154 180/180/155
f 180/180/155 173/173/148 164/164/140
f 181/181/156 182/182/157 183/183/158
f 183/183/158 184/184/159 181/181/156
f 185/185/160 186/186/161 187/187/162
f 187/187/162 188/188/163 185/185/160
f 177/177/152 176/176/151 189/189/164
f 189/189/164 179/179/154 177/177/152
f 189/189/164 190/190/165 180/180/155
f 180/180/155 179/179/154 189/189/164
f 180/180/155 190/190/165 191/191/166
f 191/191/166 184/184/159 180/180/155
f 192/192/167 185/185/160 188/188/163
f 188/188/163 193/193/168 192/192/167
f 82/82/74 81/81/73 163/163/139
f 163/163/139 160/160/136 82/82/74
f 158/158/134 183/183/158 182/182/157
f 182/182/157 159/159/135 158/158/134
f 188/188/163 194/194/169 195/195/170
f 195/195/170 193/193/168 188/188/163
f 80/80/72 79/79/71 169/169/144
f 169/169/144 162/162/138 80/80/72
f 196/196/171 197/197/172 198/198/173
f 198/198/173 199/199/174 196/196/171
f 197/197/172 200/200/175 201/201/176
f 201/201/176 198/198/173 197/197/172
f 202/202/177 203/203/178 204/204/179
f 204/204/179 201/201/176 202/202/177
f 203/203/178 205/205/180 206/206/181
f 206/206/181 204/204/179 203/203/178
f 207/207/182 208/208/183 206/206/181
f 206/206/181 205/205/180 207/207/182
f 209/209/184 210/210/185 211/211/186
f 212/212/187 213/213/188 214/214/189
f 214/214/189 215/215/190 212/212/187
f 212/212/187 216/216/191 217/217/192
f 217/217/192 213/213/188 212/212/187
f 216/216/191 218/218/193 219/219/194
f 219/219/194 217/217/192 216/216/191
f 218/218/193 220/220/195 221/221/196
f 221/221/196 219/219/194 218/218/193
f 220/220/195 222/222/197 223/223/198
f 223/223/198 221/221/196 220/220/195
f 224/224/199 225/225/200 226/226/201
f 226/226/201 223/223/198 224/224/199
f 225/225/200 227/227/202 228/228/203
f 228/228/203 226/226/201 225/225/200
f 229/229/204 230/230/205 228/228/203
f 228/228/203 227/227/202 229/229/204
f 231/231/206 232/232/207 233/233/208
f 233/233/208 234/234/209 231/231/206
f 199/199/174 198/198/173 235/235/210
f 235/235/210 236/236/211 199/199/174
f 198/198/173 201/201/176 237/237/212
f 237/237/212 235/235/210 198/198/173
f 201/201/176 204/204/179 238/238/213
f 238/238/213 237/237/212 201/201/176
f 204/204/179 206/206/181 239/239/214
f 239/239/214 238/238/213 204/204/179
f 208/208/183 240/240/215 239/239/214
f 239/239/214 206/206/181 208/208/183
f 85/85/77 84/84/76 241/241/216
f 241/241/216 210/210/185 85/85/77
f 242/242/217 243/243/218 76/76/68
f 76/76/68 59/59/52 242/242/217
f 213/213/188 217/217/192 244/244/219
f 244/244/219 245/245/220 213/213/188
f 217/217/192 219/219/194 246/246/221
f 246/246/221 244/244/219 217/217/192
f 219/219/194 221/221/196 247/247/222
f 247/247/222 246/246/221 219/219/194
f 221/221/196 223/223/198 248/248/223
f 248/248/223 247/247/222 221/221/196
f 223/223/198 226/226/201 249/249/224
f 249/249/224 248/248/223 223/223/198
f 226/226/201 228/228/203 250/250/116
f 250/250/116 249/249/224 226/226/201
f 228/228/203 230/230/205 251/251/225
f 251/251/225 250/250/116 228/228/203
f 236/236/211 235/235/210 193/193/168
f 193/193/168 195/195/170 236/236/211
f 235/235/210 237/237/212 192/192/167
f 192/192/167 193/193/168 235/235/210
f 237/237/212 238/238/213 185/185/160
f 185/185/160 192/192/167 237/237/212
f 238/238/213 239/239/214 186/186/161
f 186/186/161 185/185/160 238/238/213
f 252/252/226 253/253/227 156/156/132
f 156/156/132 254/254/228 252/252/226
f 241/241/216 84/84/76 83/83/75
f 83/83/75 161/161/137 241/241/216
f 243/243/218 172/172/147 77/77/69
f 77/77/69 76/76/68 243/243/218
f 245/245/220 244/244/219 170/170/145
f 170/170/145 255/255/229 245/245/220
f 244/244/219 246/246/221 171/171/146
f 171/171/146 170/170/145 244/244/219
f 246/246/221 247/247/222 178/178/153
f 178/178/153 171/171/146 246/246/221
f 247/247/222 248/248/223 175/175/150
f 175/175/150 178/178/153 247/247/222
f 248/248/223 249/249/224 176/176/151
f 176/176/151 175/175/150 248/248/223
f 249/249/224 250/250/116 189/189/164
f 189/189/164 176/176/151 249/249/224
f 250/250/116 251/251/225 190/190/165
f 190/190/165 189/189/164 250/250/116
f 251/251/225 191/191/166 190/190/165
f 255/255/229 170/170/145 166/166/79
f 166/166/79 256/256/230 255/255/229
f 256/256/230 166/166/79 165/165/141
f 165/165/141 257/257/231 256/256/230
f 257/257/231 165/165/141 174/174/149
f 174/174/149 258/258/232 257/257/231
f 174/174/149 259/259/233 260/260/234
f 260/260/234 258/258/232 174/174/149
f 260/260/234 259/259/233 158/158/134
f 158/158/134 261/261/235 260/260/234
f 157/157/133 156/156/132 253/253/227
f 253/253/227 262/262/236 157/157/133
f 262/262/236 253/253/227 263/263/237
f 263/263/237 264/264/238 262/262/236
f 263/263/237 265/265/239 266/266/240
f 266/266/240 264/264/238 263/263/237
f 213/213/188 245/245/220 267/267/241
f 267/267/241 214/214/189 213/213/188
f 245/245/220 255/255/229 268/268/242
f 268/268/242 267/267/241 245/245/220
f 255/255/229 256/256/230 269/269/243
f 269/269/243 268/268/242 255/255/229
f 269/269/243 256/256/230 257/257/231
f 257/257/231 270/270/244 269/269/243
f 270/270/244 257/257/231 258/258/232
f 258/258/232 271/271/245 270/270/244
f 258/258/232 260/260/234 272/272/246
f 272/272/246 271/271/245 258/258/232
f 260/260/234 261/261/235 273/273/247
f 273/273/247 272/272/246 260/260/234
f 273/273/247 261/261/235 274/274/248
f 274/274/248 275/275/249 273/273/247
f 275/275/249 274/274/248 262/262/236
f 262/262/236 276/276/250 275/275/249
f 276/276/250 262/262/236 264/264/238
f 264/264/238 211/211/186 276/276/250
f 264/264/238 266/266/240 209/209/184
f 209/209/184 211/211/186 264/264/238
f 277/277/251 278/278/252 279/279/253
f 279/279/253 280/280/254 277/277/251
f 153/153/129 281/281/255 282/282/256
f 282/282/256 152/152/128 153/153/129
f 283/283/257 284/284/258 285/285/259
f 283/283/257 285/285/259 286/286/260
f 287/287/261 283/283/257 286/286/260
f 151/151/127 288/288/262 289/289/263
f 289/289/263 150/150/126 151/151/127
f 290/290/264 291/291/265 292/292/266
f 292/292/266 293/293/267 290/290/264
f 294/294/268 295/295/269 148/148/124
f 148/148/124 149/149/125 294/294/268
f 291/291/265 296/296/270 297/297/271
f 297/297/271 292/292/266 291/291/265
f 148/148/124 295/295/269 298/298/272
f 298/298/272 147/147/123 148/148/124
f 283/283/257 290/290/264 293/293/267
f 293/293/267 284/284/258 283/283/257
f 299/299/273 300/300/274 301/301/275
f 301/301/275 302/302/267 299/299/273
f 296/296/270 291/291/265 301/301/275
f 301/301/275 300/300/274 296/296/270
f 291/291/265 290/290/264 303/303/276
f 303/303/276 301/301/275 291/291/265
f 290/290/264 283/283/257 304/304/277
f 304/304/277 303/303/276 290/290/264
f 305/305/278 306/306/279 307/307/280
f 307/307/280 308/308/281 305/305/278
f 309/309/282 310/310/283 311/311/284
f 311/311/284 312/312/285 309/309/282
f 301/301/275 303/303/276 313/313/286
f 313/313/286 302/302/267 301/301/275
f 313/313/286 303/303/276 304/304/277
f 304/304/277 314/314/287 313/313/286
f 307/307/280 306/306/279 315/315/288
f 315/315/288 316/316/289 307/307/280
f 317/317/290 318/318/291 310/310/283
f 310/310/283 309/309/282 317/317/290
f 152/152/128 282/282/256 288/288/262
f 288/288/262 151/151/127 152/152/128
f 305/305/278 308/308/281 319/319/292
f 319/319/292 320/320/293 305/305/278
f 310/310/283 318/318/291 321/321/223
f 321/321/223 322/322/294 310/310/283
f 289/289/263 294/294/268 149/149/125
f 149/149/125 150/150/126 289/289/263
f 323/323/171 324/324/140 325/325/295
f 325/325/295 326/326/172 323/323/171
f 326/326/172 325/325/295 327/327/296
f 327/327/296 328/328/175 326/326/172
f 328/328/175 327/327/296 329/329/297
f 329/329/297 330/330/178 328/328/175
f 330/330/178 329/329/297 331/331/298
f 331/331/298 332/332/299 330/330/178
f 333/333/300 334/334/301 335/335/302
f 335/335/302 336/336/303 333/333/300
f 337/337/184 338/338/304 154/154/130
f 154/154/130 155/155/131 337/337/184
f 339/339/190 145/145/121 146/146/122
f 146/146/122 340/340/305 339/339/190
f 341/341/187 342/342/306 343/343/307
f 343/343/307 344/344/308 341/341/187
f 344/344/308 343/343/307 345/345/309
f 345/345/309 346/346/310 344/344/308
f 346/346/310 345/345/309 347/347/311
f 347/347/311 348/348/195 346/346/310
f 348/348/195 347/347/311 349/349/312
f 349/349/312 350/350/199 348/348/195
f 350/350/199 349/349/312 351/351/286
f 351/351/286 352/352/200 350/350/199
f 352/352/200 351/351/286 353/353/313
f 353/353/313 354/354/202 352/352/200
f 354/354/202 353/353/313 355/355/314
f 355/355/314 356/356/204 354/354/202
f 357/357/315 358/358/316 359/359/317
f 359/359/317 360/360/318 357/357/315
f 324/324/140 321/321/223 318/318/291
f 318/318/291 325/325/295 324/324/140
f 325/325/295 318/318/291 317/317/290
f 317/317/290 327/327/296 325/325/295
f 327/327/296 317/317/290 309/309/282
f 309/309/282 329/329/297 327/327/296
f 329/329/297 309/309/282 312/312/285
f 312/312/285 331/331/298 329/329/297
f 278/278/252 333/333/300 336/336/303
f 336/336/303 279/279/253 278/278/252
f 154/154/130 338/338/304 281/281/255
f 281/281/255 153/153/129 154/154/130
f 340/340/305 146/146/122 147/147/123
f 147/147/123 298/298/272 340/340/305
f 342/342/306 361/361/319 297/297/271
f 297/297/271 343/343/307 342/342/306
f 343/343/307 297/297/271 296/296/270
f 296/296/270 345/345/309 343/343/307
f 345/345/309 296/296/270 300/300/274
f 300/300/274 347/347/311 345/345/309
f 347/347/311 300/300/274 299/299/273
f 299/299/273 349/349/312 347/347/311
f 349/349/312 299/299/273 302/302/267
f 302/302/267 351/351/286 349/349/312
f 351/351/286 302/302/267 313/313/286
f 313/313/286 353/353/313 351/351/286
f 353/353/313 313/313/286 314/314/287
f 314/314/287 355/355/314 353/353/313
f 316/316/289 315/315/288 358/358/316
f 358/358/316 357/357/315 316/316/289
f 361/361/319 362/362/320 292/292/266
f 292/292/266 297/297/271 361/361/319
f 362/362/320 363/363/321 293/293/267
f 293/293/267 292/292/266 362/362/320
f 363/363/321 364/364/322 284/284/258
f 284/284/258 293/293/267 363/363/321
f 284/284/258 364/364/322 365/365/323
f 365/365/323 285/285/259 284/284/258
f 366/366/324 367/367/325 368/368/326
f 366/366/324 368/368/326 285/285/259
f 365/365/323 366/366/324 285/285/259
f 369/369/327 333/333/300 278/278/252
f 278/278/252 370/370/328 369/369/327
f 371/371/329 334/334/301 333/333/300
f 333/333/300 369/369/327 371/371/329
f 341/341/187 339/339/190 340/340/305
f 340/340/305 342/342/306 341/341/187
f 342/342/306 340/340/305 298/298/272
f 298/298/272 361/361/319 342/342/306
f 361/361/319 298/298/272 295/295/269
f 295/295/269 362/362/320 361/361/319
f 295/295/269 294/294/268 363/363/321
f 363/363/321 362/362/320 295/295/269
f 294/294/268 289/289/263 364/364/322
f 364/364/322 363/363/321 294/294/268
f 364/364/322 289/289/263 288/288/262
f 288/288/262 365/365/323 364/364/322
f 365/365/323 288/288/262 282/282/256
f 282/282/256 366/366/324 365/365/323
f 282/282/256 281/281/255 372/372/330
f 372/372/330 366/366/324 282/282/256
f 281/281/255 338/338/304 373/373/331
f 373/373/331 372/372/330 281/281/255
f 338/338/304 337/337/184 374/374/240
f 374/374/240 373/373/331 338/338/304
f 242/242/217 59/59/52 58/58/51
f 215/215/190 214/214/189 242/242/217
f 242/242/217 58/58/51 215/215/190
f 214/214/189 267/267/241 243/243/218
f 243/243/218 242/242/217 214/214/189
f 267/267/241 268/268/242 172/172/147
f 172/172/147 243/243/218 267/267/241
f 268/268/242 269/269/243 168/168/143
f 168/168/143 172/172/147 268/268/242
f 168/168/143 269/269/243 270/270/244
f 270/270/244 169/169/144 168/168/143
f 169/169/144 270/270/244 271/271/245
f 271/271/245 162/162/138 169/169/144
f 271/271/245 272/272/246 163/163/139
f 163/163/139 162/162/138 271/271/245
f 272/272/246 273/273/247 160/160/136
f 160/160/136 163/163/139 272/272/246
f 273/273/247 275/275/249 161/161/137
f 161/161/137 160/160/136 273/273/247
f 275/275/249 276/276/250 241/241/216
f 241/241/216 161/161/137 275/275/249
f 241/241/216 276/276/250 211/211/186
f 211/211/186 210/210/185 241/241/216
f 86/86/78 85/85/77 210/210/185
f 210/210/185 209/209/184 86/86/78
f 233/233/208 375/375/332 376/376/99
f 376/376/99 234/234/209 233/233/208
f 375/375/332 377/377/333 378/378/334
f 377/377/333 379/379/335 181/181/156
f 181/181/156 378/378/334 377/377/333
f 182/182/157 181/181/156 379/379/335
f 379/379/335 380/380/336 182/182/157
f 182/182/157 380/380/336 381/381/337
f 381/381/337 159/159/135 182/182/157
f 381/381/337 254/254/228 156/156/132
f 156/156/132 159/159/135 381/381/337
f 253/253/227 252/252/226 382/382/338
f 382/382/338 383/383/339 253/253/227
f 383/383/339 382/382/338 384/384/301
f 384/384/301 385/385/340 383/383/339
f 386/386/206 387/387/341 388/388/342
f 355/355/314 314/314/287 389/389/343
f 389/389/343 314/314/287 304/304/277
f 304/304/277 390/390/344 389/389/343
f 390/390/344 304/304/277 283/283/257
f 283/283/257 287/287/261 390/390/344
f 366/366/324 372/372/330 391/391/345
f 391/391/345 367/367/325 366/366/324
f 391/391/345 372/372/330 373/373/331
f 373/373/331 374/374/240 392/392/239
f 392/392/239 393/393/346 373/373/331
f 394/394/317 395/395/347 233/233/208
f 233/233/208 232/232/207 394/394/317
f 395/395/347 396/396/348 375/375/332
f 375/375/332 233/233/208 395/395/347
f 396/396/348 397/397/349 377/377/333
f 377/377/333 375/375/332 396/396/348
f 398/398/350 399/399/351 400/400/352
f 400/400/352 397/397/349 398/398/350
f 401/401/353 400/400/352 399/399/351
f 399/399/351 194/194/169 401/401/353
f 381/381/337 380/380/336 402/402/354
f 402/402/354 403/403/355 381/381/337
f 380/380/336 401/401/353 402/402/354
f 381/381/337 403/403/355 404/404/356
f 404/404/356 254/254/228 381/381/337
f 404/404/356 186/186/161 239/239/214
f 239/239/214 240/240/215 404/404/356
f 360/360/318 405/405/357 357/357/315
f 357/357/315 405/405/357 406/406/358
f 406/406/358 316/316/289 357/357/315
f 316/316/289 406/406/358 407/407/359
f 407/407/359 307/307/280 316/316/289
f 307/307/280 407/407/359 408/408/360
f 408/408/360 308/308/281 307/307/280
f 319/319/292 308/308/281 408/408/360
f 408/408/360 409/409/361 319/319/292
f 280/280/254 320/320/293 410/410/362
f 410/410/362 277/277/251 280/280/254
f 319/319/292 409/409/361 411/411/363
f 411/411/363 410/410/362 319/319/292
f 410/410/362 411/411/363 412/412/364
f 412/412/364 277/277/251 410/410/362
f 277/277/251 412/412/364 278/278/252
f 393/393/346 413/413/365 391/391/345
f 391/391/345 373/373/331 393/393/346
f 413/413/365 414/414/366 367/367/325
f 367/367/325 391/391/345 413/413/365
f 367/367/325 414/414/366 368/368/326
f 285/285/259 368/368/326 415/415/367
f 415/415/367 286/286/260 285/285/259
f 368/368/326 414/414/366 416/416/368
f 416/416/368 415/415/367 368/368/326
f 417/417/369 286/286/260 415/415/367
f 415/415/367 416/416/368 417/417/369
f 286/286/260 417/417/369 287/287/261
f 287/287/261 417/417/369 418/418/370
f 418/418/370 390/390/344 287/287/261
f 418/418/370 419/419/371 420/420/372
f 420/420/372 419/419/371 388/388/342
f 355/355/314 386/386/206 356/356/204
f 231/231/206 234/234/209 230/230/205
f 230/230/205 229/229/204 231/231/206
f 234/234/209 376/376/99 251/251/225
f 251/251/225 230/230/205 234/234/209
f 376/376/99 378/378/334 191/191/166
f 191/191/166 251/251/225 376/376/99
f 378/378/334 181/181/156 184/184/159
f 184/184/159 191/191/166 378/378/334
f 262/262/236 274/274/248 157/157/133
f 157/157/133 274/274/248 261/261/235
f 261/261/235 158/158/134 157/157/133
f 158/158/134 259/259/233 183/183/158
f 173/173/148 180/180/155 184/184/159
f 184/184/159 183/183/158 173/173/148
f 259/259/233 174/174/149 173/173/148
f 173/173/148 183/183/158 259/259/233
f 406/406/358 419/419/371 418/418/370
f 418/418/370 407/407/359 406/406/358
f 407/407/359 418/418/370 417/417/369
f 417/417/369 408/408/360 407/407/359
f 408/408/360 417/417/369 409/409/361
f 409/409/361 417/417/369 416/416/368
f 416/416/368 411/411/363 409/409/361
f 411/411/363 416/416/368 414/414/366
f 414/414/366 412/412/364 411/411/363
f 413/413/365 393/393/346 369/369/327
f 369/369/327 370/370/328 413/413/365
f 369/369/327 393/393/346 392/392/239
f 392/392/239 371/371/329 369/369/327
f 385/385/340 265/265/239 263/263/237
f 263/263/237 383/383/339 385/385/340
f 383/383/339 263/263/237 253/253/227
f 360/360/318 386/386/206 388/388/342
f 388/388/342 405/405/357 360/360/318
f 388/388/342 419/419/371 406/406/358
f 406/406/358 405/405/357 388/388/342
f 335/335/302 332/332/299 331/331/298
f 331/331/298 336/336/303 335/335/302
f 331/331/298 312/312/285 279/279/253
f 279/279/253 336/336/303 331/331/298
f 312/312/285 311/311/284 280/280/254
f 280/280/254 279/279/253 312/312/285
f 280/280/254 311/311/284 320/320/293
f 320/320/293 319/319/292 410/410/362
f 311/311/284 322/322/294 305/305/278
f 305/305/278 320/320/293 311/311/284
f 305/305/278 322/322/294 306/306/279
f 322/322/294 321/321/223 421/421/90
f 421/421/90 321/321/223 324/324/140
f 324/324/140 422/422/373 421/421/90
f 324/324/140 323/323/171 423/423/374
f 423/423/374 422/422/373 324/324/140
f 424/424/374 196/196/171 199/199/174
f 199/199/174 425/425/375 424/424/374
f 425/425/375 426/426/376 396/396/348
f 396/396/348 395/395/347 425/425/375
f 426/426/376 398/398/350 397/397/349
f 397/397/349 396/396/348 426/426/376
f 379/379/335 377/377/333 397/397/349
f 397/397/349 400/400/352 379/379/335
f 380/380/336 379/379/335 400/400/352
f 400/400/352 401/401/353 380/380/336
f 207/207/182 384/384/301 382/382/338
f 382/382/338 208/208/183 207/207/182
f 208/208/183 382/382/338 252/252/226
f 252/252/226 240/240/215 208/208/183
f 194/194/169 188/188/163 187/187/162
f 401/401/353 194/194/169 187/187/162
f 401/401/353 187/187/162 402/402/354
f 240/240/215 252/252/226 254/254/228
f 254/254/228 404/404/356 240/240/215
f 402/402/354 187/187/162 403/403/355
f 403/403/355 187/187/162 186/186/161
f 186/186/161 404/404/356 403/403/355
f 311/311/284 310/310/283 322/322/294
f 386/386/206 355/355/314 387/387/341
f 355/355/314 389/389/343 427/427/377
f 427/427/377 387/387/341 355/355/314
f 427/427/377 389/389/343 390/390/344
f 427/427/377 390/390/344 428/428/378
f 427/427/377 420/420/372 388/388/342
f 388/388/342 387/387/341 427/427/377
f 420/420/372 427/427/377 428/428/378
f 395/395/347 394/394/317 424/424/374
f 424/424/374 425/425/375 395/395/347
f 423/423/374 359/359/317 358/358/316
f 358/358/316 422/422/373 423/423/374
f 425/425/375 199/199/174 236/236/211
f 236/236/211 426/426/376 425/425/375
f 236/236/211 195/195/170 398/398/350
f 398/398/350 426/426/376 236/236/211
f 398/398/350 195/195/170 194/194/169
f 194/194/169 399/399/351 398/398/350
f 422/422/373 358/358/316 315/315/288
f 422/422/373 315/315/288 421/421/90
f 322/322/294 421/421/90 315/315/288
f 315/315/288 306/306/279 322/322/294
f 414/414/366 413/413/365 370/370/328
f 370/370/328 412/412/364 414/414/366
f 370/370/328 278/278/252 412/412/364
f 93/93/85 96/96/83 110/110/83
f 110/110/83 97/97/85 93/93/85
f 93/93/85 89/89/81 88/88/80
f 378/378/334 376/376/99 375/375/332
