# Blender v2.77 (sub 0) OBJ File: ''
# www.blender.org
mtllib layer_crater.mtl
o Cube.013_Cube.014
v -5.100934 0.229043 -2.923551
v 2.685015 0.229043 -4.660560
v 4.678909 0.229043 2.923551
v -3.290529 0.229043 4.908270
v 3.042819 0.002311 -3.345575
v -1.760690 1.091420 -1.878684
v -1.564204 1.091420 1.713034
v -1.824656 0.820136 -0.097606
v 1.571085 1.091420 1.547384
v -0.061418 0.820136 1.866961
v 1.951060 0.820136 0.027523
v 0.000000 0.277566 0.000000
v 1.755338 1.091420 -1.922772
v -0.114935 0.820136 -2.128433
v 3.244657 0.002311 3.097866
v 3.336401 0.002311 -0.137617
v -3.611634 0.002311 3.483192
v -0.027523 0.002311 3.418971
v -3.767600 0.002311 0.036698
v 0.000000 0.002311 0.000000
v -3.492367 0.002311 -3.382273
v -0.018349 0.002311 -3.483192
v 2.923551 0.229043 4.477071
v -0.082570 0.229043 5.055061
v 1.818795 1.135973 2.743101
v 2.547399 0.682508 3.834860
v 0.002803 1.135973 3.062677
v 0.009174 0.682508 4.165140
v -1.919969 1.135973 2.850391
v -2.822632 0.682508 3.935779
v 4.559641 0.229043 -2.914377
v 4.963317 0.229043 0.027523
v 3.039741 1.135973 -1.914362
v 3.972476 0.682508 -2.382259
v 3.119253 1.135973 0.064221
v 4.128442 0.682508 0.201838
v 2.832807 1.135973 1.810385
v 3.908256 0.682508 2.611620
v -3.253831 0.229043 -4.715607
v -0.137617 0.229043 -5.073410
v -1.967115 1.135973 -2.762469
v -2.772173 0.682508 -3.651371
v -0.114935 1.135973 -3.195707
v -0.119268 0.682508 -3.990826
v 1.966351 1.135973 -3.100140
v 2.519876 0.682508 -3.862383
v -5.449563 0.229043 2.932725
v -5.559656 0.229043 -0.036698
v -2.773682 1.135973 1.882761
v -4.348629 0.682508 2.382259
v -2.897792 1.135973 -0.071102
v -4.198524 0.682508 -0.046892
v -2.867211 1.135973 -1.921753
v -4.019623 0.682508 -2.374104
v -2.578093 1.135973 2.469465
v -2.279796 1.238201 -1.812742
v -4.565763 0.229043 -4.065755
v -5.779842 0.002311 3.363925
v 1.701056 1.238201 -2.631101
v 3.857037 0.229043 -4.040525
v -3.272180 0.002311 -5.247725
v 2.153966 1.238201 1.481634
v 4.129976 0.229043 3.978598
v 4.789002 0.002311 -3.272180
v -1.558597 1.238201 2.275655
v 3.180436 0.002311 4.825700
v -4.698792 0.229043 4.162086
v -3.957955 0.682508 3.340974
v -2.069166 1.238201 1.650214
v -2.338602 1.170380 -0.139783
v -2.547002 1.135973 -2.425122
v -3.702536 0.682508 -3.212786
v -5.651401 0.002311 -3.217133
v -6.201867 0.002311 0.073396
v -1.744635 1.238201 -2.363131
v -0.172403 1.170380 -2.792801
v 2.704114 1.135973 -2.666461
v 3.494646 0.682508 -3.377672
v 2.721713 0.002311 -5.045887
v -0.036698 0.002311 -5.633051
v 2.431175 1.238201 -1.769673
v 2.551971 1.170380 0.050459
v 2.463604 1.135973 2.383009
v 3.494646 0.682508 3.455654
v 5.100934 0.002311 2.960249
v 5.339469 0.002311 -0.275233
v 1.452199 1.238201 2.045084
v -0.076071 1.170380 2.432703
v -3.400622 0.002311 5.376167
v -0.055047 0.002311 5.504609
v -1.723865 0.887957 0.982092
v 1.846892 0.887957 0.968649
v -0.015354 0.413208 1.133407
v -1.844343 0.887957 -1.169913
v 1.911304 0.887957 -1.021211
v -0.028734 0.413208 -1.198775
v 0.895508 0.887957 1.758779
v -0.985915 0.887957 1.856767
v 1.154432 0.413208 0.006881
v -1.122831 0.413208 -0.024401
v 0.933034 0.887957 -2.125183
v -1.106775 0.887957 -2.017829
v 3.308878 0.002311 1.370031
v -3.822647 0.002311 1.590218
v 0.000000 0.002311 1.333333
v 3.363925 0.002311 -1.645264
v -3.712554 0.002311 -1.516822
v 0.000000 0.002311 -1.333333
v -1.443427 0.002311 3.602460
v 1.388380 0.002311 3.235482
v -1.333333 0.002311 0.000000
v 1.333333 0.002311 0.000000
v -1.333333 0.002311 -3.547413
v 1.296635 0.002311 -3.418971
v 1.404435 0.229043 4.731662
v 0.973491 1.135973 2.949908
v 1.305810 0.682508 3.990826
v -1.620035 0.229043 5.197265
v -0.994580 1.135973 3.042481
v -1.360857 0.682508 4.199544
v 2.305614 0.909240 3.415129
v 2.701071 0.455776 4.142204
v 0.067216 0.909240 3.669338
v -0.073396 0.455776 4.607807
v -2.418065 0.909240 3.412134
v -3.118508 0.455776 4.431199
v 4.894508 0.229043 -1.489299
v 3.126899 1.135973 -0.964062
v 4.126149 0.682508 -1.110853
v 4.860105 0.229043 1.532878
v 3.020118 1.135973 1.034399
v 4.036698 0.682508 1.470950
v 3.560391 0.909240 -2.178127
v 4.298170 0.455776 -2.602446
v 3.646784 0.909240 0.103213
v 4.566522 0.455776 0.222480
v 3.465079 0.909240 2.273695
v 4.275233 0.455776 2.827219
v -1.624622 0.229043 -5.006896
v -1.149207 1.135973 -2.997947
v -1.490446 0.682508 -3.855503
v 1.275993 0.229043 -4.947261
v 0.976613 1.135973 -3.261266
v 1.248470 0.682508 -4.009174
v -2.339254 0.909240 -3.163087
v -3.124242 0.455776 -4.183489
v -0.058551 0.909240 -3.530574
v -0.183489 0.455776 -4.522943
v 2.317273 0.909240 -3.465397
v 2.625382 0.455776 -4.268353
v -5.688098 0.229043 1.454895
v -2.786870 1.135973 1.049499
v -4.320277 0.682508 1.204636
v -5.289010 0.229043 -1.507648
v -2.970041 1.135973 -1.165900
v -4.069573 0.682508 -1.272935
v -3.569566 0.909240 2.197751
v -5.009189 0.455776 2.579509
v -3.513882 0.909240 -0.002994
v -4.898267 0.455776 -0.094293
v -3.466098 0.909240 -2.133083
v -4.555372 0.455776 -2.639398
v -4.918979 0.002311 4.625396
v -2.062841 1.231792 2.126128
v -4.836409 0.002311 -4.483192
v -2.187858 1.231792 -2.204564
v 4.529065 0.002311 4.203372
v 2.006266 1.231792 1.948671
v 3.969423 0.002311 -4.373099
v 2.287106 1.231792 -2.370186
v -4.403489 0.455776 3.725154
v -3.352665 0.909240 2.944195
v -2.206671 1.187335 0.916215
v -2.388472 1.187335 -1.166521
v -3.117362 0.909240 -2.798105
v -4.214633 0.455776 -3.643794
v -6.091774 0.002311 -1.700311
v -6.311961 0.002311 1.847102
v -1.100436 1.187335 -2.602813
v 0.830937 1.187335 -2.834946
v 3.172011 0.909240 -3.034729
v 3.710245 0.455776 -3.708525
v 1.259938 0.002311 -5.504609
v -1.333333 0.002311 -5.761494
v 2.540121 1.187335 -0.906100
v 2.434121 1.187335 0.909780
v 3.118764 0.909240 3.038408
v 3.771599 0.455776 3.735475
v 5.284422 0.002311 1.406729
v 5.394516 0.002311 -1.957196
v 0.787836 1.187335 2.292220
v -0.928543 1.187335 2.437020
v -1.553520 0.002311 5.871587
v 1.443427 0.002311 5.137631
v 1.087407 0.531896 1.085145
v -1.079682 0.531896 1.102650
v 1.101376 0.531896 -1.166425
v -1.127737 0.531896 -1.179518
v -1.333333 0.002311 1.333333
v 1.333333 0.002311 1.333333
v -1.333333 0.002311 -1.333333
v 1.333333 0.002311 -1.333333
v 1.222730 0.909240 3.570044
v 1.330466 0.455776 4.336588
v -1.150020 0.909240 3.640779
v -1.544919 0.455776 4.718474
v 3.659590 0.909240 -1.073008
v 4.534985 0.455776 -1.206611
v 3.566953 0.909240 1.251719
v 4.458149 0.455776 1.596525
v -1.272680 0.909240 -3.362440
v -1.656446 0.455776 -4.422025
v 1.179359 0.909240 -3.590543
v 1.256497 0.455776 -4.475351
v -3.484670 0.909240 1.204716
v -5.114488 0.455776 1.228337
v -3.545069 0.909240 -1.193041
v -4.624053 0.455776 -1.384748
vt -0.8151 1.2341
vt -0.8484 0.8507
vt -0.6586 0.8268
vt -0.6543 1.1620
vt -0.5751 1.4333
vt -0.6853 1.5475
vt -0.7756 1.6645
vt -0.9783 1.3099
vt -1.0769 0.8914
vt 1.2375 1.8363
vt 0.8579 1.8979
vt 0.8576 1.7584
vt 1.2210 1.7160
vt 1.5113 1.5805
vt 1.5564 1.6844
vt 1.5932 1.7905
vt 1.2482 1.9565
vt 0.8472 2.0597
vt 1.9130 -0.1469
vt 1.9443 0.2269
vt 1.8223 0.2047
vt 1.7893 -0.1228
vt 1.6700 -0.3700
vt 1.7817 -0.4376
vt 1.9052 -0.4999
vt 2.0424 -0.1548
vt 2.0719 0.2669
vt -0.1805 -0.8371
vt 0.2735 -0.8908
vt 0.2862 -0.7473
vt -0.1381 -0.6945
vt -0.4909 -0.5265
vt -0.5701 -0.6586
vt -0.6298 -0.7983
vt -0.2068 -0.9783
vt 0.3016 -1.0822
vt 1.6378 -0.1076
vt 1.9543 -0.4039
vt 1.9543 -0.0184
vt 1.8178 0.3199
vt 0.1214 0.9898
vt 0.1233 0.8025
vt 0.3171 0.8056
vt 0.2943 1.0249
vt 0.2749 1.1912
vt 0.1137 1.1185
vt 0.0034 1.0694
vt -0.0155 0.9678
vt -0.0347 0.7992
vt 0.2319 0.0786
vt 0.2427 -0.0708
vt 0.4100 -0.1017
vt 0.3920 0.0662
vt 0.3701 0.2697
vt 0.1892 0.2705
vt 0.0441 0.2673
vt 0.0960 0.0816
vt 0.1094 -0.0410
vt 0.1471 0.5368
vt 0.3426 0.5337
vt -0.0094 0.5356
vt 1.0347 0.1727
vt 1.0174 0.0401
vt 1.1555 0.0771
vt 1.1849 0.1984
vt 1.2451 0.3507
vt 1.0777 0.3353
vt 0.8754 0.3100
vt 0.8581 0.1223
vt 0.8522 -0.0345
vt 0.6227 0.0818
vt 0.6317 -0.0859
vt 0.6197 0.2816
vt 1.0860 0.5697
vt 1.2604 0.5742
vt 1.2392 0.8182
vt 1.0619 0.8284
vt 0.8446 0.8373
vt 0.8734 0.5622
vt 0.6047 0.5457
vt 0.5773 0.8247
vt 1.0162 1.0584
vt 1.1932 1.0347
vt 1.1445 1.1831
vt 0.9924 1.2396
vt 0.7679 1.2794
vt 0.7994 1.0853
vt 0.5390 1.0676
vt 0.5109 1.2547
vt 2.0424 0.3721
vt 2.0424 0.8784
vt 1.7605 0.6982
vt 1.6378 0.3199
vt 2.0801 -0.4895
vt 1.6378 -0.4039
vt 1.7947 -0.8275
vt 2.0801 -1.0801
vt 1.4751 -0.6055
vt 1.4008 -0.5076
vt 1.0454 -0.5966
vt 1.0782 -0.7153
vt 1.1024 -0.8387
vt 1.5599 -0.7062
vt 0.6855 -0.8288
vt 0.6774 -0.6945
vt 0.7036 -0.9638
vt 1.1251 -0.1309
vt 1.2821 -0.0259
vt 0.9122 -0.2009
vt 0.9921 -0.3658
vt 1.2677 -0.2993
vt 1.4671 -0.1847
vt 1.3457 -0.4142
vt 1.5803 -0.2918
vt 1.0266 -0.4885
vt 0.6632 -0.2481
vt 0.4036 -0.2610
vt 0.3731 -0.4311
vt 0.6927 -0.4161
vt 0.6887 -0.5607
vt 0.3269 -0.5937
vt 0.1593 -0.2281
vt -0.0186 -0.1419
vt -0.2155 -0.2858
vt 0.0367 -0.3924
vt -0.0640 -0.5470
vt -0.3728 -0.4082
vt 1.7687 1.4021
vt 1.6911 1.3058
vt 1.7880 0.9456
vt 1.8928 1.0320
vt 2.0268 1.1718
vt 1.8365 1.5123
vt 1.9441 0.6298
vt 1.8266 0.5695
vt 2.0554 0.7195
vt 1.3454 1.0844
vt 1.2459 1.2670
vt 1.3880 0.8450
vt 1.5342 0.8861
vt 1.4821 1.1668
vt 1.3647 1.3759
vt 1.5962 1.2340
vt 1.4503 1.4788
vt 1.6680 0.9084
vt 1.4063 0.5813
vt 1.3990 0.3300
vt 1.5555 0.2825
vt 1.5557 0.5817
vt 1.6963 0.5659
vt 1.6946 0.2322
vt 1.3654 0.1272
vt 1.5434 0.0167
vt 1.6751 -0.0672
vt -0.3487 1.7500
vt -0.2975 1.5996
vt 0.0863 1.6961
vt 0.0806 1.8640
vt 0.1420 2.0822
vt -0.3705 1.9045
vt 0.4775 1.9099
vt 0.4752 1.7504
vt 0.4949 2.0739
vt 0.0487 1.2193
vt -0.0948 1.1225
vt 0.2558 1.2931
vt 0.2132 1.4017
vt -0.0607 1.3277
vt -0.2567 1.2164
vt -0.1887 1.4567
vt -0.4246 1.3216
vt 0.1440 1.5387
vt 0.5198 1.3595
vt 0.7991 1.3913
vt 0.8469 1.4968
vt 0.5265 1.4655
vt 0.5019 1.5987
vt 0.8603 1.6216
vt 1.0530 1.3645
vt 1.1413 1.4754
vt 1.1934 1.5940
vt -0.7978 -0.3446
vt -0.6764 -0.2355
vt -0.7363 0.1213
vt -0.8964 0.0465
vt -1.0664 -0.0752
vt -0.8899 -0.4749
vt -0.8948 0.4503
vt -0.7083 0.4783
vt -1.0769 0.4080
vt -0.0819 0.0056
vt -0.1034 0.2211
vt -0.2909 0.1652
vt -0.2891 -0.0960
vt -0.4970 -0.1647
vt -0.5180 0.1461
vt -0.1522 0.5091
vt -0.1860 0.7913
vt -0.3472 0.7905
vt -0.3218 0.4800
vt -0.5123 0.4789
vt -0.4983 0.8045
vt -0.1700 0.9878
vt -0.3381 1.0372
vt -0.4975 1.0959
vt 0.0000 0.0000
vt 1.0000 0.0000
vt 1.0000 1.0000
vt 0.0000 1.0000
vt 1.0000 0.0000
vt 1.0000 1.0000
vt 0.0000 1.0000
vt 1.0000 0.0000
vt 1.0000 1.0000
vt 0.0000 1.0000
vt 0.0000 0.0000
vt 1.0000 0.0000
vt 1.0000 1.0000
vt 0.0000 1.0000
vt 1.0000 0.0000
vt 1.0000 1.0000
vt 0.0000 1.0000
vt 1.0000 0.0000
vt 1.0000 1.0000
vt 0.0000 1.0000
vt 0.0000 0.0000
vt 0.0000 1.0000
vt 1.0000 0.0000
vt 0.0000 1.0000
vt 1.0000 0.0000
vt 0.0000 0.0000
vt 1.0000 0.0000
vt 1.0000 1.0000
vt 0.0000 1.0000
vt 1.0000 0.0000
vt 1.0000 1.0000
vt 0.0000 1.0000
vt 1.0000 0.0000
vt 1.0000 1.0000
vt 0.0000 1.0000
vt 0.0000 0.0000
vt 1.0000 0.0000
vt 0.0000 1.0000
vt 1.0000 0.0000
vt 0.0000 1.0000
vt 0.0000 0.0000
vt 0.0000 1.0000
vt 1.0000 0.0000
vt 1.0000 1.0000
vt 0.0000 1.0000
vt 1.0000 0.0000
vt 1.0000 1.0000
vt 0.0000 1.0000
vt 1.0000 0.0000
vt 0.0000 0.0000
vt 0.0000 1.0000
vt 1.0000 0.0000
vt 0.0000 0.0000
vt 0.0000 1.0000
vt 1.0000 0.0000
vt 1.0000 1.0000
vt 0.0000 1.0000
vt 1.0000 0.0000
vt 1.0000 1.0000
vt 0.0000 1.0000
vt 1.0000 0.0000
vt 0.0000 0.0000
vt 0.0000 1.0000
vt 1.0000 0.0000
vn -0.3409 0.9395 -0.0328
vn -0.3537 0.9242 -0.1443
vn -0.3420 0.9199 -0.1917
vn -0.2965 0.9529 -0.0635
vn 0.0813 0.8856 -0.4573
vn 0.2427 0.8518 -0.4642
vn 0.2553 0.8405 -0.4779
vn 0.1113 0.8965 -0.4288
vn 0.4873 0.8706 0.0677
vn 0.4218 0.8781 0.2261
vn 0.4220 0.8829 0.2058
vn 0.4763 0.8773 0.0590
vn -0.0732 0.9083 0.4120
vn -0.1918 0.9147 0.3557
vn -0.1913 0.9075 0.3740
vn -0.0814 0.9274 0.3651
vn 0.0000 -1.0000 -0.0000
vn 0.3870 0.8584 0.3366
vn 0.2823 0.8832 0.3744
vn 0.1825 0.9671 0.1774
vn 0.3895 0.8936 0.2230
vn 0.2787 0.8893 -0.3625
vn 0.4516 0.8068 -0.3810
vn 0.4254 0.8732 -0.2379
vn 0.1641 0.9773 -0.1340
vn 0.5018 0.8585 -0.1053
vn 0.4702 0.8799 0.0685
vn 0.5227 0.8524 0.0171
vn 0.5507 0.8295 -0.0929
vn -0.1460 0.9724 -0.1818
vn -0.3653 0.8560 -0.3657
vn -0.4115 0.7650 -0.4954
vn -0.3091 0.8462 -0.4341
vn -0.1099 0.8503 -0.5147
vn -0.1154 0.8649 -0.4885
vn 0.0924 0.8848 -0.4567
vn 0.0431 0.8685 -0.4939
vn -0.4796 0.8717 -0.1002
vn -0.4709 0.8808 0.0494
vn -0.4350 0.8956 0.0933
vn -0.4430 0.8885 -0.1196
vn -0.1133 0.9866 -0.1177
vn -0.1118 0.9876 0.1097
vn 0.1129 0.9880 0.1051
vn 0.1176 0.9867 -0.1125
vn -0.3518 0.9176 0.1850
vn -0.1510 0.9802 0.1280
vn -0.2145 0.9247 0.3146
vn -0.3680 0.8708 0.3261
vn -0.0850 0.9198 0.3831
vn -0.0291 0.9024 0.4300
vn 0.1103 0.8837 0.4550
vn 0.1058 0.9144 0.3907
vn 0.1908 0.8563 0.4800
vn 0.0781 0.8608 0.5030
vn 0.0850 0.8684 0.4885
vn 0.2002 0.8669 0.4565
vn 0.0959 0.8795 0.4661
vn 0.0372 0.8961 0.4422
vn 0.0619 0.9274 0.3690
vn 0.1062 0.8820 0.4592
vn 0.0557 0.9896 0.1325
vn 0.0003 0.9937 0.1124
vn 0.0566 0.9517 0.3017
vn 0.1163 0.9662 0.2300
vn 0.1612 0.9127 0.3755
vn 0.0609 0.8881 0.4556
vn 0.0744 0.8285 0.5550
vn 0.1967 0.8405 0.5049
vn -0.0000 0.9978 0.0665
vn 0.0085 0.9976 0.0692
vn -0.0077 0.9361 0.3517
vn 0.0338 0.9402 0.3389
vn 0.0493 0.8958 0.4418
vn 0.0009 0.9186 0.3952
vn 0.0220 0.9019 0.4314
vn 0.0827 0.8612 0.5014
vn 0.0029 0.9915 0.1301
vn -0.0715 0.9869 0.1447
vn -0.1350 0.9579 0.2533
vn -0.0637 0.9411 0.3320
vn -0.0639 0.9329 0.3545
vn -0.1525 0.9426 0.2971
vn -0.1769 0.9276 0.3291
vn -0.0689 0.9225 0.3798
vn 0.4824 0.8304 -0.2789
vn 0.5188 0.8484 -0.1051
vn 0.4047 0.9038 -0.1389
vn 0.4619 0.8288 -0.3157
vn 0.5061 0.8623 -0.0172
vn 0.5024 0.8639 0.0369
vn 0.5028 0.8640 0.0250
vn 0.4583 0.8888 -0.0020
vn 0.1632 0.9846 -0.0626
vn 0.1297 0.9915 0.0138
vn 0.3847 0.9224 -0.0349
vn 0.3318 0.9315 -0.1493
vn 0.4086 0.8925 -0.1911
vn 0.4477 0.8929 -0.0476
vn 0.5009 0.8624 -0.0733
vn 0.4697 0.8501 -0.2382
vn 0.0744 0.9972 0.0084
vn 0.0742 0.9972 -0.0004
vn 0.3821 0.9236 0.0323
vn 0.3934 0.9193 0.0037
vn 0.4313 0.9022 0.0018
vn 0.4219 0.9062 0.0299
vn 0.4617 0.8864 0.0350
vn 0.4716 0.8818 -0.0058
vn 0.1192 0.9929 0.0039
vn 0.1262 0.9896 0.0689
vn 0.2320 0.9648 0.1241
vn 0.3315 0.9420 0.0533
vn 0.4223 0.9054 0.0450
vn 0.3547 0.9198 0.1676
vn 0.4368 0.8700 0.2286
vn 0.4771 0.8766 0.0626
vn -0.1734 0.9205 -0.3501
vn -0.0634 0.9266 -0.3706
vn -0.0781 0.9350 -0.3461
vn -0.1854 0.9075 -0.3770
vn -0.0210 0.9280 -0.3721
vn 0.0246 0.9144 -0.4040
vn 0.0351 0.9269 -0.3736
vn 0.0072 0.9459 -0.3242
vn -0.1076 0.9719 -0.2095
vn -0.0248 0.9831 -0.1816
vn -0.1052 0.8839 -0.4557
vn -0.1724 0.9269 -0.3333
vn -0.1451 0.9401 -0.3085
vn -0.0657 0.9217 -0.3823
vn -0.0576 0.9321 -0.3576
vn -0.1493 0.9395 -0.3084
vn -0.0126 0.9942 -0.1070
vn -0.0135 0.9943 -0.1061
vn -0.0308 0.8198 -0.5718
vn -0.0872 0.8397 -0.5361
vn -0.0490 0.9074 -0.4173
vn -0.0138 0.8885 -0.4586
vn 0.0043 0.9104 -0.4138
vn -0.0312 0.9262 -0.3757
vn 0.0057 0.9860 -0.1665
vn 0.0940 0.9809 -0.1701
vn 0.1914 0.9160 -0.3526
vn 0.0682 0.8594 -0.5067
vn 0.0532 0.8802 -0.4716
vn 0.2019 0.8924 -0.4036
vn 0.2225 0.8706 -0.4388
vn 0.0609 0.8888 -0.4542
vn -0.3497 0.9153 0.1997
vn -0.3854 0.9216 0.0468
vn -0.3609 0.9280 0.0929
vn -0.3623 0.9021 0.2344
vn -0.3531 0.9346 -0.0432
vn -0.3201 0.9453 -0.0632
vn -0.2974 0.9541 -0.0349
vn -0.3460 0.9379 -0.0253
vn -0.1448 0.9889 0.0335
vn -0.1244 0.9920 -0.0202
vn -0.2938 0.9558 -0.0115
vn -0.2417 0.9675 0.0748
vn -0.2727 0.9572 0.0972
vn -0.2719 0.9622 -0.0142
vn -0.2963 0.9550 0.0090
vn -0.3085 0.9399 0.1461
vn -0.0750 0.9972 0.0006
vn -0.0742 0.9972 0.0122
vn -0.3553 0.9346 0.0161
vn -0.3232 0.9461 0.0195
vn -0.2855 0.9583 -0.0107
vn -0.3498 0.9367 -0.0142
vn -0.3335 0.9412 -0.0534
vn -0.2897 0.9564 -0.0380
vn -0.1317 0.9912 0.0161
vn -0.1747 0.9807 -0.0875
vn -0.2848 0.9446 -0.1631
vn -0.3534 0.9347 -0.0379
vn -0.3815 0.9240 -0.0241
vn -0.2998 0.9447 -0.1327
vn -0.3279 0.9374 -0.1170
vn -0.3783 0.9255 -0.0191
usemtl None
s off
f 1/1/1 154/2/1 218/3/1 162/4/1
f 1/1/2 162/4/2 176/5/2 57/6/2
f 1/1/3 57/6/3 165/7/3 73/8/3
f 1/1/4 73/8/4 177/9/4 154/2/4
f 2/10/5 142/11/5 214/12/5 150/13/5
f 2/10/6 150/13/6 182/14/6 60/15/6
f 2/10/7 60/15/7 169/16/7 79/17/7
f 2/10/8 79/17/8 183/18/8 142/11/8
f 3/19/9 130/20/9 210/21/9 138/22/9
f 3/19/10 138/22/10 188/23/10 63/24/10
f 3/19/11 63/24/11 167/25/11 85/26/11
f 3/19/12 85/26/12 189/27/12 130/20/12
f 4/28/13 118/29/13 206/30/13 126/31/13
f 4/28/14 126/31/14 171/32/14 67/33/14
f 4/28/15 67/33/15 163/34/15 89/35/15
f 4/28/16 89/35/16 193/36/16 118/29/16
f 5/37/17 79/38/17 169/39/17 64/40/17
f 6/41/18 94/42/18 198/43/18 102/44/18
f 6/41/19 102/44/19 179/45/19 75/46/19
f 6/41/20 75/46/20 166/47/20 56/48/20
f 6/41/21 56/48/21 174/49/21 94/42/21
f 7/50/22 65/51/22 192/52/22 98/53/22
f 7/50/23 98/53/23 196/54/23 91/55/23
f 7/50/24 91/55/24 173/56/24 69/57/24
f 7/50/25 69/57/25 164/58/25 65/51/25
f 8/59/26 91/55/26 196/54/26 100/60/26
f 8/59/27 100/60/27 198/43/27 94/42/27
f 8/59/28 94/42/28 174/49/28 70/61/28
f 8/59/29 70/61/29 173/56/29 91/55/29
f 9/62/30 87/63/30 168/64/30 62/65/30
f 9/62/31 62/65/31 186/66/31 92/67/31
f 9/62/32 92/67/32 195/68/32 97/69/32
f 9/62/33 97/69/33 191/70/33 87/63/33
f 10/71/34 88/72/34 191/70/34 97/69/34
f 10/71/35 97/69/35 195/68/35 93/73/35
f 10/71/36 93/73/36 196/54/36 98/53/36
f 10/71/37 98/53/37 192/52/37 88/72/37
f 11/74/38 92/67/38 186/66/38 82/75/38
f 11/74/39 82/75/39 185/76/39 95/77/39
f 11/74/40 95/77/40 197/78/40 99/79/40
f 11/74/41 99/79/41 195/68/41 92/67/41
f 12/80/42 93/73/42 195/68/42 99/79/42
f 12/80/43 99/79/43 197/78/43 96/81/43
f 12/80/44 96/81/44 198/43/44 100/60/44
f 12/80/45 100/60/45 196/54/45 93/73/45
f 13/82/46 95/77/46 185/76/46 81/83/46
f 13/82/47 81/83/47 170/84/47 59/85/47
f 13/82/48 59/85/48 180/86/48 101/87/48
f 13/82/49 101/87/49 197/78/49 95/77/49
f 14/88/50 96/81/50 197/78/50 101/87/50
f 14/88/51 101/87/51 180/86/51 76/89/51
f 14/88/52 76/89/52 179/45/52 102/44/52
f 14/88/53 102/44/53 198/43/53 96/81/53
f 15/90/17 85/91/17 167/92/17 66/93/17
f 17/94/17 89/95/17 163/96/17 58/97/17
f 23/98/54 63/24/54 188/23/54 122/99/54
f 23/98/55 122/99/55 204/100/55 115/101/55
f 23/98/56 115/101/56 194/102/56 66/103/56
f 23/98/57 66/103/57 167/25/57 63/24/57
f 24/104/58 115/101/58 204/100/58 124/105/58
f 24/104/59 124/105/59 206/30/59 118/29/59
f 24/104/60 118/29/60 193/36/60 90/106/60
f 24/104/61 90/106/61 194/102/61 115/101/61
f 25/107/62 83/108/62 168/64/62 87/63/62
f 25/107/63 87/63/63 191/70/63 116/109/63
f 25/107/64 116/109/64 203/110/64 121/111/64
f 25/107/65 121/111/65 187/112/65 83/108/65
f 26/113/66 84/114/66 187/112/66 121/111/66
f 26/113/67 121/111/67 203/110/67 117/115/67
f 26/113/68 117/115/68 204/100/68 122/99/68
f 26/113/69 122/99/69 188/23/69 84/114/69
f 27/116/70 116/109/70 191/70/70 88/72/70
f 27/116/71 88/72/71 192/52/71 119/117/71
f 27/116/72 119/117/72 205/118/72 123/119/72
f 27/116/73 123/119/73 203/110/73 116/109/73
f 28/120/74 117/115/74 203/110/74 123/119/74
f 28/120/75 123/119/75 205/118/75 120/121/75
f 28/120/76 120/121/76 206/30/76 124/105/76
f 28/120/77 124/105/77 204/100/77 117/115/77
f 29/122/78 119/117/78 192/52/78 65/51/78
f 29/122/79 65/51/79 164/58/79 55/123/79
f 29/122/80 55/123/80 172/124/80 125/125/80
f 29/122/81 125/125/81 205/118/81 119/117/81
f 30/126/82 120/121/82 205/118/82 125/125/82
f 30/126/83 125/125/83 172/124/83 68/127/83
f 30/126/84 68/127/84 171/32/84 126/31/84
f 30/126/85 126/31/85 206/30/85 120/121/85
f 31/128/86 60/15/86 182/14/86 134/129/86
f 31/128/87 134/129/87 208/130/87 127/131/87
f 31/128/88 127/131/88 190/132/88 64/133/88
f 31/128/89 64/133/89 169/16/89 60/15/89
f 32/134/90 127/131/90 208/130/90 136/135/90
f 32/134/91 136/135/91 210/21/91 130/20/91
f 32/134/92 130/20/92 189/27/92 86/136/92
f 32/134/93 86/136/93 190/132/93 127/131/93
f 33/137/94 77/138/94 170/84/94 81/83/94
f 33/137/95 81/83/95 185/76/95 128/139/95
f 33/137/96 128/139/96 207/140/96 133/141/96
f 33/137/97 133/141/97 181/142/97 77/138/97
f 34/143/98 78/144/98 181/142/98 133/141/98
f 34/143/99 133/141/99 207/140/99 129/145/99
f 34/143/100 129/145/100 208/130/100 134/129/100
f 34/143/101 134/129/101 182/14/101 78/144/101
f 35/146/102 128/139/102 185/76/102 82/75/102
f 35/146/103 82/75/103 186/66/103 131/147/103
f 35/146/104 131/147/104 209/148/104 135/149/104
f 35/146/105 135/149/105 207/140/105 128/139/105
f 36/150/106 129/145/106 207/140/106 135/149/106
f 36/150/107 135/149/107 209/148/107 132/151/107
f 36/150/108 132/151/108 210/21/108 136/135/108
f 36/150/109 136/135/109 208/130/109 129/145/109
f 37/152/110 131/147/110 186/66/110 62/65/110
f 37/152/111 62/65/111 168/64/111 83/108/111
f 37/152/112 83/108/112 187/112/112 137/153/112
f 37/152/113 137/153/113 209/148/113 131/147/113
f 38/154/114 132/151/114 209/148/114 137/153/114
f 38/154/115 137/153/115 187/112/115 84/114/115
f 38/154/116 84/114/116 188/23/116 138/22/116
f 38/154/117 138/22/117 210/21/117 132/151/117
f 39/155/118 57/6/118 176/5/118 146/156/118
f 39/155/119 146/156/119 212/157/119 139/158/119
f 39/155/120 139/158/120 184/159/120 61/160/120
f 39/155/121 61/160/121 165/7/121 57/6/121
f 40/161/122 139/158/122 212/157/122 148/162/122
f 40/161/123 148/162/123 214/12/123 142/11/123
f 40/161/124 142/11/124 183/18/124 80/163/124
f 40/161/125 80/163/125 184/159/125 139/158/125
f 41/164/126 71/165/126 166/47/126 75/46/126
f 41/164/127 75/46/127 179/45/127 140/166/127
f 41/164/128 140/166/128 211/167/128 145/168/128
f 41/164/129 145/168/129 175/169/129 71/165/129
f 42/170/130 72/171/130 175/169/130 145/168/130
f 42/170/131 145/168/131 211/167/131 141/172/131
f 42/170/132 141/172/132 212/157/132 146/156/132
f 42/170/133 146/156/133 176/5/133 72/171/133
f 43/173/134 140/166/134 179/45/134 76/89/134
f 43/173/135 76/89/135 180/86/135 143/174/135
f 43/173/136 143/174/136 213/175/136 147/176/136
f 43/173/137 147/176/137 211/167/137 140/166/137
f 44/177/138 141/172/138 211/167/138 147/176/138
f 44/177/139 147/176/139 213/175/139 144/178/139
f 44/177/140 144/178/140 214/12/140 148/162/140
f 44/177/141 148/162/141 212/157/141 141/172/141
f 45/179/142 143/174/142 180/86/142 59/85/142
f 45/179/143 59/85/143 170/84/143 77/138/143
f 45/179/144 77/138/144 181/142/144 149/180/144
f 45/179/145 149/180/145 213/175/145 143/174/145
f 46/181/146 144/178/146 213/175/146 149/180/146
f 46/181/147 149/180/147 181/142/147 78/144/147
f 46/181/148 78/144/148 182/14/148 150/13/148
f 46/181/149 150/13/149 214/12/149 144/178/149
f 47/182/150 67/33/150 171/32/150 158/183/150
f 47/182/151 158/183/151 216/184/151 151/185/151
f 47/182/152 151/185/152 178/186/152 58/187/152
f 47/182/153 58/187/153 163/34/153 67/33/153
f 48/188/154 151/185/154 216/184/154 160/189/154
f 48/188/155 160/189/155 218/3/155 154/2/155
f 48/188/156 154/2/156 177/9/156 74/190/156
f 48/188/157 74/190/157 178/186/157 151/185/157
f 49/191/158 55/123/158 164/58/158 69/57/158
f 49/191/159 69/57/159 173/56/159 152/192/159
f 49/191/160 152/192/160 215/193/160 157/194/160
f 49/191/161 157/194/161 172/124/161 55/123/161
f 50/195/162 68/127/162 172/124/162 157/194/162
f 50/195/163 157/194/163 215/193/163 153/196/163
f 50/195/164 153/196/164 216/184/164 158/183/164
f 50/195/165 158/183/165 171/32/165 68/127/165
f 51/197/166 152/192/166 173/56/166 70/61/166
f 51/197/167 70/61/167 174/49/167 155/198/167
f 51/197/168 155/198/168 217/199/168 159/200/168
f 51/197/169 159/200/169 215/193/169 152/192/169
f 52/201/170 153/196/170 215/193/170 159/200/170
f 52/201/171 159/200/171 217/199/171 156/202/171
f 52/201/172 156/202/172 218/3/172 160/189/172
f 52/201/173 160/189/173 216/184/173 153/196/173
f 53/203/174 155/198/174 174/49/174 56/48/174
f 53/203/175 56/48/175 166/47/175 71/165/175
f 53/203/176 71/165/176 175/169/176 161/204/176
f 53/203/177 161/204/177 217/199/177 155/198/177
f 54/205/178 156/202/178 217/199/178 161/204/178
f 54/205/179 161/204/179 175/169/179 72/171/179
f 54/205/180 72/171/180 176/5/180 162/4/180
f 54/205/181 162/4/181 218/3/181 156/202/181
usemtl None_NONE
f 5/206/17 106/207/17 202/208/17 114/209/17
f 5/206/17 114/210/17 183/211/17 79/212/17
f 5/206/17 64/213/17 190/214/17 106/215/17
f 15/216/17 66/217/17 194/218/17 110/219/17
f 15/216/17 110/220/17 200/221/17 103/222/17
f 15/216/17 103/223/17 189/224/17 85/225/17
f 16/226/17 103/223/17 200/221/17 112/227/17
f 16/226/17 112/228/17 202/208/17 106/215/17
f 16/226/17 106/207/17 190/214/17 86/229/17
f 16/226/17 86/230/17 189/224/17 103/222/17
f 17/231/17 58/232/17 178/233/17 104/234/17
f 17/231/17 104/235/17 199/236/17 109/237/17
f 17/231/17 109/238/17 193/239/17 89/240/17
f 18/241/17 90/242/17 193/239/17 109/237/17
f 18/241/17 109/238/17 199/236/17 105/243/17
f 18/241/17 105/244/17 200/221/17 110/219/17
f 18/241/17 110/220/17 194/218/17 90/245/17
f 19/246/17 104/235/17 178/233/17 74/247/17
f 19/246/17 74/248/17 177/249/17 107/250/17
f 19/246/17 107/251/17 201/252/17 111/253/17
f 19/246/17 111/254/17 199/236/17 104/234/17
f 20/255/17 105/244/17 199/236/17 111/253/17
f 20/255/17 111/254/17 201/252/17 108/256/17
f 20/255/17 108/257/17 202/208/17 112/227/17
f 20/255/17 112/228/17 200/221/17 105/243/17
f 21/258/17 107/251/17 177/249/17 73/259/17
f 21/258/17 73/260/17 165/261/17 61/262/17
f 21/258/17 61/263/17 184/264/17 113/265/17
f 21/258/17 113/266/17 201/252/17 107/250/17
f 22/267/17 108/257/17 201/252/17 113/265/17
f 22/267/17 113/266/17 184/264/17 80/268/17
f 22/267/17 80/269/17 183/211/17 114/209/17
f 22/267/17 114/210/17 202/208/17 108/256/17
