# 3ds Max Wavefront OBJ Exporter v0.97b - (c)2007 guruware
# File Created: 20.04.2017 06:48:06

mtllib con6.mtl

#
# object Object049
#

v  2.7889 0.0000 6.9543
v  -2.7889 0.0000 6.9543
v  -2.7889 0.0000 2.6513
v  2.7889 0.0000 2.6513
v  -1.3154 5.8217 6.9515
v  -1.4048 5.8217 6.9515
v  -1.3397 5.8217 7.0342
v  -1.3804 5.8217 7.0342
v  2.7889 0.2894 -2.9909
v  2.7889 0.0000 -2.9909
v  2.7889 0.0000 -7.2938
v  2.7889 0.2894 -7.2938
v  2.7889 5.9906 -7.2938
v  2.7889 0.2894 -2.0980
v  2.7889 0.2894 1.7585
v  2.7889 5.9906 6.9543
v  2.7889 0.2895 2.6513
v  2.7889 0.2895 6.9543
v  2.7889 0.0000 -2.0980
v  2.7889 0.0000 1.7585
v  -2.7889 5.9906 6.9543
v  -2.7889 5.9906 -7.2938
v  -2.7889 0.0000 1.7585
v  -2.7889 0.0000 -2.0980
v  1.5328 5.8217 6.9515
v  1.4435 5.8217 6.9515
v  1.4678 5.8217 7.0342
v  1.5085 5.8217 7.0342
v  1.4435 0.1377 6.9515
v  1.5328 0.1377 6.9515
v  1.5085 0.1377 7.0342
v  1.4678 0.1377 7.0342
v  0.4891 5.8217 6.9515
v  0.3997 5.8217 6.9515
v  0.4241 5.8217 7.0342
v  0.4648 5.8217 7.0342
v  0.3997 0.1377 6.9515
v  0.4891 0.1377 6.9515
v  0.4648 0.1377 7.0342
v  0.4241 0.1377 7.0342
v  -0.2640 5.8217 6.9515
v  -0.3534 5.8217 6.9515
v  -0.3291 5.8217 7.0342
v  -0.2884 5.8217 7.0342
v  -0.3534 0.1377 6.9515
v  -0.2640 0.1377 6.9515
v  -0.2884 0.1377 7.0342
v  -0.3291 0.1377 7.0342
v  -1.4048 0.1377 6.9515
v  -1.3154 0.1377 6.9515
v  -1.3397 0.1377 7.0342
v  -1.3804 0.1377 7.0342
v  -2.7889 0.2895 2.6513
v  -2.7889 0.2894 1.7585
v  -2.7889 0.2894 -2.9909
v  -2.7889 0.2894 -2.0980
v  -2.7889 0.0000 -2.9909
v  -2.7889 0.0000 -7.2938
v  -2.7889 0.2895 6.9543
v  -2.7889 0.2894 -7.2938
v  2.7889 5.9910 7.2140
v  -2.7889 5.9910 7.2140
v  -2.7889 5.9910 2.9110
v  2.7889 5.9910 2.9110
v  -1.3154 11.8127 7.2112
v  -1.4048 11.8127 7.2112
v  -1.3397 11.8127 7.2939
v  -1.3804 11.8127 7.2939
v  2.7889 6.2804 -2.7312
v  2.7889 5.9910 -2.7312
v  2.7889 5.9910 -7.0341
v  2.7889 6.2804 -7.0341
v  2.7889 11.9816 -7.0341
v  2.7889 6.2804 -1.8383
v  2.7889 6.2804 2.0182
v  2.7889 11.9816 7.2140
v  2.7889 6.2804 2.9110
v  2.7889 6.2804 7.2140
v  2.7889 5.9910 -1.8383
v  2.7889 5.9910 2.0182
v  -2.7889 11.9816 7.2140
v  -2.7889 11.9816 -7.0341
v  -2.7889 5.9910 2.0182
v  -2.7889 5.9910 -1.8383
v  1.5328 11.8127 7.2112
v  1.4435 11.8127 7.2112
v  1.4678 11.8127 7.2939
v  1.5085 11.8127 7.2939
v  1.4435 6.1287 7.2112
v  1.5328 6.1287 7.2112
v  1.5085 6.1287 7.2939
v  1.4678 6.1287 7.2939
v  0.4891 11.8127 7.2112
v  0.3997 11.8127 7.2112
v  0.4241 11.8127 7.2939
v  0.4648 11.8127 7.2939
v  0.3997 6.1287 7.2112
v  0.4891 6.1287 7.2112
v  0.4648 6.1287 7.2939
v  0.4241 6.1287 7.2939
v  -0.2640 11.8127 7.2112
v  -0.3534 11.8127 7.2112
v  -0.3291 11.8127 7.2939
v  -0.2884 11.8127 7.2939
v  -0.3534 6.1287 7.2112
v  -0.2640 6.1287 7.2112
v  -0.2884 6.1287 7.2939
v  -0.3291 6.1287 7.2939
v  -1.4048 6.1287 7.2112
v  -1.3154 6.1287 7.2112
v  -1.3397 6.1287 7.2939
v  -1.3804 6.1287 7.2939
v  -2.7889 6.2804 2.9110
v  -2.7889 6.2804 2.0182
v  -2.7889 6.2804 -2.7312
v  -2.7889 6.2804 -1.8383
v  -2.7889 5.9910 -2.7312
v  -2.7889 5.9910 -7.0341
v  -2.7889 6.2804 7.2140
v  -2.7889 6.2804 -7.0341
v  -4.4334 0.3691 -1.3290
v  -4.6294 0.3968 -1.3290
v  -4.6179 0.2512 -1.3464
v  -4.4849 0.2324 -1.3464
v  -4.6595 0.4008 -1.4610
v  -4.6595 0.4011 -1.3290
v  -3.0394 11.8462 -1.3444
v  -3.0395 11.8459 -1.4764
v  -3.0395 11.8459 -1.5112
v  -4.6595 0.4008 -1.4958
v  -2.8249 11.9595 -1.4590
v  -2.9579 11.9784 -1.4590
v  -2.9579 11.9785 -1.3621
v  -2.8249 11.9597 -1.3621
v  -4.4334 0.3688 -1.4610
v  -4.6295 0.3966 -1.4610
v  -3.0094 11.8417 -1.4764
v  -2.8134 11.8139 -1.4764
v  -4.6179 0.2511 -1.4433
v  -4.4849 0.2323 -1.4433
v  -4.6288 0.4007 0.5794
v  -3.0088 11.8458 0.5641
v  -3.0088 11.8459 0.5988
v  -4.6288 0.4008 0.6142
v  -2.8127 11.8181 0.5641
v  -4.4328 0.3729 0.5794
v  -4.4328 0.3730 0.6142
v  -2.8127 11.8182 0.5988
v  -3.0388 11.8502 0.5988
v  -4.6589 0.4050 0.6142
v  -4.6590 0.4049 0.5794
v  -4.6289 0.4004 0.4474
v  -4.6590 0.4046 0.4474
v  -2.7827 11.8138 0.5641
v  -2.7827 11.8136 0.4321
v  -2.8128 11.8178 0.4321
v  -2.7826 11.8139 0.5988
v  -3.0088 11.8456 0.4321
v  -3.0389 11.8499 0.4321
v  -3.0389 11.8501 0.5641
v  -4.4329 0.3726 0.4474
v  -4.4028 0.3684 0.4474
v  -4.4027 0.3687 0.5794
v  -4.4027 0.3688 0.6142
v  -2.9573 11.9824 0.5463
v  -2.9573 11.9822 0.4494
v  -2.8243 11.9634 0.4494
v  -2.8243 11.9635 0.5463
v  -4.6173 0.2549 0.4652
v  -4.6173 0.2551 0.5620
v  -4.4843 0.2363 0.5620
v  -4.4843 0.2361 0.4652
v  -2.8134 11.8139 -1.5112
v  -4.4334 0.3688 -1.4958
v  -4.6295 0.3965 -1.4958
v  -3.0094 11.8417 -1.5112
v  -2.7832 11.8097 -1.5112
v  -4.4034 0.3645 -1.4958
v  -3.0093 11.8420 -1.3444
v  -2.8133 11.8142 -1.3444
v  -4.4033 0.3645 -1.4610
v  -4.4033 0.3648 -1.3290
v  -3.4007 8.7910 -1.4063
v  -3.3391 8.7336 -1.4063
v  -3.3385 8.7372 0.4346
v  -3.4001 8.7949 0.4345
v  -3.3738 8.8931 -1.4064
v  -3.3733 8.8969 0.4344
v  -3.2956 8.8986 -1.4065
v  -3.2951 8.9024 0.4344
v  -3.2741 8.8001 -1.4063
v  -3.2736 8.8038 0.4345
v  -3.4298 7.6999 0.4360
v  -3.4948 7.6334 0.4361
v  -3.4953 7.6297 -1.4048
v  -3.4304 7.6962 -1.4048
v  -3.4514 7.7985 0.4359
v  -3.4519 7.7948 -1.4050
v  -3.5295 7.7930 0.4359
v  -3.5301 7.7893 -1.4050
v  -3.5564 7.6910 0.4360
v  -3.5569 7.6872 -1.4048
v  -3.2444 9.8949 -1.4078
v  -3.1828 9.8373 -1.4077
v  -3.1823 9.8411 0.4331
v  -3.2439 9.8986 0.4330
v  -3.2176 9.9970 -1.4080
v  -3.2170 10.0007 0.4329
v  -3.1394 10.0025 -1.4080
v  -3.1389 10.0063 0.4329
v  -3.1179 9.9038 -1.4078
v  -3.1173 9.9076 0.4330
v  -2.7832 11.8100 -1.3444
v  -2.7832 11.8097 -1.4764
v  -4.4944 1.0642 -1.3959
v  -4.4328 1.0067 -1.3959
v  -4.4323 1.0104 0.4449
v  -4.4939 1.0680 0.4449
v  -4.4676 1.1663 -1.3961
v  -4.4670 1.1701 0.4447
v  -4.3894 1.1718 -1.3961
v  -4.3888 1.1756 0.4447
v  -4.3679 1.0731 -1.3960
v  -4.3673 1.0769 0.4449
v  -3.0882 10.9987 -1.4093
v  -3.0266 10.9412 -1.4092
v  -3.0260 10.9449 0.4316
v  -3.0876 11.0025 0.4316
v  -3.0613 11.1008 -1.4094
v  -3.0608 11.1046 0.4315
v  -2.9831 11.1064 -1.4094
v  -2.9826 11.1101 0.4314
v  -2.9616 11.0076 -1.4092
v  -2.9611 11.0115 0.4315
v  -4.3381 2.1681 -1.3974
v  -4.2766 2.1104 -1.3973
v  -4.2760 2.1142 0.4434
v  -4.3376 2.1718 0.4434
v  -4.3113 2.2701 -1.3976
v  -4.3108 2.2738 0.4433
v  -4.2331 2.2757 -1.3976
v  -4.2326 2.2794 0.4432
v  -4.2116 2.1769 -1.3975
v  -4.2111 2.1807 0.4434
v  -3.7131 6.5834 -1.4033
v  -3.6516 6.5258 -1.4033
v  -3.6510 6.5296 0.4376
v  -3.7126 6.5872 0.4374
v  -3.6863 6.6855 -1.4035
v  -3.6858 6.6892 0.4373
v  -3.6081 6.6909 -1.4035
v  -3.6076 6.6947 0.4374
v  -3.5866 6.5923 -1.4034
v  -3.5861 6.5961 0.4374
v  -4.1819 3.2718 -1.3989
v  -4.1203 3.2144 -1.3988
v  -4.1198 3.2180 0.4420
v  -4.1814 3.2756 0.4419
v  -4.1551 3.3738 -1.3990
v  -4.1545 3.3777 0.4418
v  -4.0769 3.3794 -1.3990
v  -4.0764 3.3832 0.4418
v  -4.0554 3.2808 -1.3989
v  -4.0548 3.2845 0.4419
v  -3.8694 5.4795 -1.4019
v  -3.8078 5.4220 -1.4018
v  -3.8073 5.4258 0.4390
v  -3.8689 5.4832 0.4390
v  -3.8426 5.5816 -1.4020
v  -3.8420 5.5854 0.4388
v  -3.7644 5.5871 -1.4020
v  -3.7639 5.5908 0.4388
v  -3.7429 5.4885 -1.4019
v  -3.7423 5.4922 0.4389
v  -4.0257 4.3757 -1.4004
v  -3.9641 4.3182 -1.4003
v  -3.9635 4.3219 0.4405
v  -4.0251 4.3795 0.4404
v  -3.9988 4.4778 -1.4006
v  -3.9983 4.4815 0.4403
v  -3.9206 4.4834 -1.4006
v  -3.9201 4.4871 0.4403
v  -3.8991 4.3846 -1.4005
v  -3.8986 4.3884 0.4404
# 284 vertices

vn 0.0000 -1.0000 0.0000
vn 0.0000 1.0000 -0.0000
vn 1.0000 0.0000 -0.0000
vn 0.9595 0.0000 0.2819
vn 0.5992 0.0000 0.8006
vn -0.5991 0.0000 0.8006
vn -0.9594 0.0000 0.2821
vn -0.5990 0.0000 0.8007
vn -0.9593 0.0000 0.2823
vn 0.0000 -0.0000 -1.0000
vn 0.0000 0.0000 1.0000
vn -1.0000 0.0000 -0.0000
vn 0.9593 0.0000 0.2823
vn 0.5990 0.0000 0.8007
vn 0.9593 0.0000 0.2825
vn 0.5990 0.0000 0.8008
vn -0.0170 -0.1200 0.9926
vn -0.9901 0.1402 -0.0001
vn -0.9901 0.1402 0.0000
vn -0.9901 0.1402 0.0001
vn -0.9901 0.1402 -0.0000
vn -0.9901 0.1402 -0.0003
vn 0.1406 0.9901 -0.0009
vn 0.1400 0.9901 -0.0017
vn -0.0002 -0.0013 -1.0000
vn -0.1400 -0.9902 0.0009
vn 0.9901 -0.1402 0.0003
vn 0.9901 -0.1402 -0.0003
vn -0.9901 0.1402 0.0003
vn 0.0002 0.0013 1.0000
vn -0.1385 -0.9904 0.0024
vn -0.1386 -0.9903 0.0025
vn -0.1384 -0.9904 0.0022
vn -0.1384 -0.9904 0.0021
vn -0.1385 -0.9904 0.0019
vn 0.1411 0.9900 -0.0022
vn 0.1411 0.9900 -0.0019
vn 0.1411 0.9900 -0.0024
vn -0.1385 -0.9904 0.0021
vn -0.1386 -0.9904 0.0024
vn -0.9358 0.3526 -0.0004
vn -0.9358 0.3527 -0.0004
vn 0.0169 0.1198 -0.9927
vn 0.9969 0.0791 -0.0004
vn 0.9969 0.0790 -0.0005
vn 0.9969 0.0791 -0.0003
vn 0.0173 0.1227 0.9923
vn -0.9969 -0.0790 0.0004
vn -0.9969 -0.0791 0.0005
vn -0.0170 -0.1198 0.9927
vn 0.9358 -0.3526 0.0004
vn 0.9358 -0.3527 0.0004
vn -0.0174 -0.1229 -0.9923
vn -0.9901 0.1402 0.0002
vn -0.9901 0.1402 0.0004
vn -0.9901 0.1402 0.0008
vn -0.1404 -0.9901 0.0022
vn -0.1400 -0.9901 0.0017
vn -0.1402 -0.9901 0.0021
vn -0.1406 -0.9901 0.0026
vn 0.9901 -0.1402 -0.0000
vn 0.9901 -0.1402 0.0000
vn 0.1385 0.9904 -0.0000
vn 0.1385 0.9904 -0.0013
vn 0.1386 0.9904 -0.0025
vn 0.1386 0.9903 -0.0025
vn 0.9901 -0.1402 0.0001
vn 0.9901 -0.1402 -0.0002
vn 0.9969 0.0791 -0.0005
vn 0.9969 0.0790 -0.0007
vn 0.9969 0.0793 -0.0003
vn 0.0174 0.1227 0.9923
vn -0.9357 0.3528 -0.0006
vn -0.9358 0.3526 -0.0003
vn -0.9358 0.3524 -0.0001
vn 0.0170 0.1200 -0.9926
vn 0.9358 -0.3525 0.0003
vn 0.9358 -0.3525 0.0004
vn 0.9358 -0.3526 0.0002
vn 0.9358 -0.3527 0.0001
vn -0.0173 -0.1224 -0.9923
vn -0.9969 -0.0791 0.0004
vn -0.9969 -0.0790 0.0003
vn -0.1412 -0.9900 0.0024
vn -0.1412 -0.9900 0.0021
vn -0.1411 -0.9900 0.0021
vn -0.1411 -0.9900 0.0019
vn -0.9605 -0.2782 0.0008
vn -0.6818 -0.7315 0.0016
vn -0.6835 -0.7300 0.0017
vn -0.9610 -0.2766 0.0009
vn -0.6382 0.7698 -0.0014
vn -0.6380 0.7701 -0.0014
vn 0.5994 0.8005 -0.0018
vn 0.5992 0.8006 -0.0018
vn 0.9612 -0.2758 0.0003
vn 0.9614 -0.2753 0.0003
vn 0.7155 -0.6986 0.0012
vn 0.7158 -0.6983 0.0012
vn 0.9613 -0.2756 0.0003
vn 0.9611 -0.2760 0.0003
vn 0.5993 0.8005 -0.0018
vn 0.5996 0.8003 -0.0018
vn -0.6379 0.7701 -0.0014
vn -0.9608 -0.2771 0.0008
vn -0.9607 -0.2775 0.0008
vn -0.6829 -0.7305 0.0017
vn -0.9608 -0.2772 0.0009
vn -0.6834 -0.7301 0.0017
vn -0.6817 -0.7316 0.0016
vn -0.9606 -0.2778 0.0008
vn -0.6384 0.7697 -0.0014
vn 0.5989 0.8008 -0.0018
vn 0.9612 -0.2759 0.0003
vn 0.7159 -0.6982 0.0012
vn 0.7151 -0.6991 0.0013
vn 0.1385 0.9904 -0.0025
vn -0.9607 -0.2777 0.0008
vn -0.6823 -0.7310 0.0016
vn -0.6833 -0.7301 0.0017
vn -0.9609 -0.2768 0.0008
vn -0.6383 0.7698 -0.0014
vn -0.6380 0.7700 -0.0014
vn 0.5997 0.8003 -0.0018
vn 0.5995 0.8003 -0.0018
vn 0.9611 -0.2763 0.0003
vn 0.9613 -0.2754 0.0003
vn 0.7151 -0.6990 0.0012
vn -0.9606 -0.2779 0.0008
vn -0.6822 -0.7312 0.0017
vn -0.6828 -0.7306 0.0017
vn -0.9609 -0.2770 0.0009
vn -0.6387 0.7694 -0.0014
vn 0.9610 -0.2764 0.0003
vn 0.9613 -0.2753 0.0003
vn 0.7151 -0.6990 0.0013
vn -0.9608 -0.2771 0.0009
vn -0.9609 -0.2770 0.0008
vn 0.5994 0.8004 -0.0018
vn 0.7156 -0.6985 0.0012
vn -0.6374 0.7705 -0.0014
vn -0.6374 0.7706 -0.0014
vn 0.6003 0.7997 -0.0018
vn 0.5998 0.8001 -0.0018
vn 0.9613 -0.2755 0.0003
vn -0.9606 -0.2781 0.0008
vn -0.6827 -0.7307 0.0017
vn -0.6387 0.7695 -0.0014
vn 0.5991 0.8007 -0.0018
vn 0.9611 -0.2762 0.0003
vn 0.7152 -0.6989 0.0012
vn -0.9608 -0.2774 0.0009
vn -0.6816 -0.7317 0.0016
vn -0.6376 0.7704 -0.0014
vn -0.6823 -0.7310 0.0017
vn 0.5997 0.8002 -0.0018
vn 0.9610 -0.2765 0.0003
# 157 vertex normals

vt 0.5102 0.5337 0.0000
vt 0.9965 0.5337 0.0000
vt 0.9965 0.6340 0.0000
vt 0.5102 0.6340 0.0000
vt 0.4832 0.9630 0.0000
vt 0.4832 0.9652 0.0000
vt 0.4832 0.9637 0.0000
vt 0.4832 0.9645 0.0000
vt 0.0268 0.6341 0.0000
vt 0.0028 0.6341 0.0000
vt 0.0028 0.5337 0.0000
vt 0.0268 0.5337 0.0000
vt 0.4988 0.5337 0.0000
vt 0.0268 0.6549 0.0000
vt 0.0268 0.7449 0.0000
vt 0.4988 0.8661 0.0000
vt 0.0268 0.7657 0.0000
vt 0.0268 0.8661 0.0000
vt 0.0028 0.8661 0.0000
vt 0.0028 0.7657 0.0000
vt 0.0028 0.6549 0.0000
vt 0.0028 0.7449 0.0000
vt 0.9969 0.8661 0.0000
vt 0.9969 0.5337 0.0000
vt 0.5102 0.6548 0.0000
vt 0.9965 0.6548 0.0000
vt 0.9965 0.7446 0.0000
vt 0.5102 0.7446 0.0000
vt 0.4832 0.8959 0.0000
vt 0.4832 0.8976 0.0000
vt 0.4832 0.8971 0.0000
vt 0.4832 0.8964 0.0000
vt 0.0159 0.8976 0.0000
vt 0.0159 0.8959 0.0000
vt 0.0159 0.8964 0.0000
vt 0.0159 0.8971 0.0000
vt 0.4832 0.9205 0.0000
vt 0.4832 0.9224 0.0000
vt 0.4832 0.9217 0.0000
vt 0.4832 0.9212 0.0000
vt 0.0159 0.9224 0.0000
vt 0.0159 0.9205 0.0000
vt 0.0159 0.9212 0.0000
vt 0.0159 0.9217 0.0000
vt 0.4832 0.9380 0.0000
vt 0.4832 0.9401 0.0000
vt 0.4832 0.9393 0.0000
vt 0.4832 0.9388 0.0000
vt 0.0159 0.9401 0.0000
vt 0.0159 0.9380 0.0000
vt 0.0159 0.9388 0.0000
vt 0.0159 0.9393 0.0000
vt 0.0159 0.9652 0.0000
vt 0.0159 0.9630 0.0000
vt 0.0159 0.9637 0.0000
vt 0.0159 0.9645 0.0000
vt 0.9965 0.7654 0.0000
vt 0.5102 0.7654 0.0000
vt 0.9965 0.8657 0.0000
vt 0.5102 0.8657 0.0000
vt 0.4988 0.9979 0.0000
vt 0.0268 0.9979 0.0000
vt 0.0028 0.9979 0.0000
vt 0.0268 0.6340 0.0000
vt 0.0028 0.6340 0.0000
vt 0.0268 0.6548 0.0000
vt 0.0268 0.7446 0.0000
vt 0.4988 0.8657 0.0000
vt 0.0268 0.7654 0.0000
vt 0.0268 0.8657 0.0000
vt 0.0028 0.8657 0.0000
vt 0.0028 0.7654 0.0000
vt 0.0028 0.6548 0.0000
vt 0.0028 0.7446 0.0000
vt 0.9976 0.8667 0.0000
vt 0.9976 0.9983 0.0000
vt 0.5239 0.9983 0.0000
vt 0.5239 0.8667 0.0000
vt 0.4999 0.8667 0.0000
vt 0.4999 0.9983 0.0000
vt 0.4160 0.0793 0.0000
vt 0.4160 0.0921 0.0000
vt 0.4017 0.0888 0.0000
vt 0.4017 0.0826 0.0000
vt 0.0499 0.0450 0.0000
vt 0.0499 0.0529 0.0000
vt 2.1222 0.0529 0.0000
vt 2.1222 0.0450 0.0000
vt 2.1222 0.0429 0.0000
vt 0.0499 0.0429 0.0000
vt 0.4314 0.0823 0.0000
vt 0.4314 0.0891 0.0000
vt 0.4654 0.0891 0.0000
vt 0.4654 0.0823 0.0000
vt 0.0499 0.0390 0.0000
vt 0.0499 0.0270 0.0000
vt 2.1222 0.0270 0.0000
vt 2.1222 0.0390 0.0000
vt 0.3706 0.0888 0.0000
vt 0.3706 0.0826 0.0000
vt 2.1222 0.0410 0.0000
vt 0.0499 0.0410 0.0000
vt 0.0499 0.0250 0.0000
vt 2.1222 0.0250 0.0000
vt 0.0467 0.0429 0.0000
vt 0.0467 0.0450 0.0000
vt 0.0467 0.0529 0.0000
vt 2.1094 0.0529 0.0000
vt 2.1094 0.0450 0.0000
vt 2.1094 0.0429 0.0000
vt 2.1253 0.0450 0.0000
vt 2.1253 0.0529 0.0000
vt 2.1253 0.0429 0.0000
vt 0.0627 0.0450 0.0000
vt 0.0627 0.0529 0.0000
vt 0.0627 0.0429 0.0000
vt 0.0499 0.0231 0.0000
vt 2.1222 0.0231 0.0000
vt 0.4782 0.0793 0.0000
vt 0.4185 0.0793 0.0000
vt 0.4782 0.0921 0.0000
vt 0.4185 0.0921 0.0000
vt 0.3563 0.0793 0.0000
vt 0.3563 0.0921 0.0000
vt 0.4951 0.0612 0.0000
vt 0.4951 0.0571 0.0000
vt 0.9952 0.0571 0.0000
vt 0.9952 0.0612 0.0000
vt 0.4951 0.0657 0.0000
vt 0.9952 0.0657 0.0000
vt 0.4951 0.0702 0.0000
vt 0.9952 0.0702 0.0000
vt 0.4951 0.0743 0.0000
vt 0.9952 0.0743 0.0000
vt 0.4951 0.0782 0.0000
vt 0.9952 0.0782 0.0000
vt 0.0519 0.0005 0.0000
vt 2.1241 0.0005 0.0000
vt 2.1241 0.0022 0.0000
vt 0.0519 0.0022 0.0000
vt 0.0519 0.0131 0.0000
vt 2.1241 0.0131 0.0000
vt 2.1241 0.0148 0.0000
vt 0.0519 0.0148 0.0000
# 144 texture coords

g Object049
usemtl Material__4552
s 1
f 1/1/1 2/2/1 3/3/1 
s 2
f 3/3/1 4/4/1 1/1/1 
s 3
f 5/5/2 6/6/2 7/7/2 
s 4
f 6/6/2 8/8/2 7/7/2 
s 5
f 9/9/3 10/10/3 11/11/3 
s 6
f 11/11/3 12/12/3 9/9/3 
s 7
f 12/12/3 13/13/3 9/9/3 
s 8
f 14/14/3 9/9/3 13/13/3 
s 9
f 15/15/3 14/14/3 13/13/3 
s 10
f 13/13/3 16/16/3 15/15/3 
s 11
f 16/16/3 17/17/3 15/15/3 
s 12
f 16/16/3 18/18/3 17/17/3 
s 13
f 17/17/3 18/18/3 1/19/3 
s 14
f 1/19/3 4/20/3 17/17/3 
s 15
f 19/21/3 14/14/3 15/15/3 
s 16
f 15/15/3 20/22/3 19/21/3 
s 17
f 21/23/2 16/16/2 13/13/2 
s 18
f 13/13/2 22/24/2 21/23/2 
s 19
f 20/25/1 23/26/1 24/27/1 
s 20
f 24/27/1 19/28/1 20/25/1 
s 21
f 25/29/2 26/30/2 27/31/2 
s 22
f 27/31/2 28/32/2 25/29/2 
s 23
f 29/33/1 30/34/1 31/35/1 
s 24
f 31/35/1 32/36/1 29/33/1 
s 25
f 30/34/4 25/29/4 28/32/5 
s 26
f 28/32/5 31/35/5 30/34/4 
s 27
f 32/36/6 31/35/5 28/32/5 
s 28
f 28/32/5 27/31/6 32/36/6 
s 29
f 32/36/6 27/31/6 26/30/7 
s 30
f 26/30/7 29/33/7 32/36/6 
s 31
f 33/37/2 34/38/2 35/39/2 
s 32
f 35/39/2 36/40/2 33/37/2 
s 33
f 37/41/1 38/42/1 39/43/1 
s 34
f 39/43/1 40/44/1 37/41/1 
s 35
f 38/42/4 33/37/4 36/40/5 
s 36
f 36/40/5 39/43/5 38/42/4 
s 37
f 40/44/8 39/43/5 36/40/5 
s 38
f 36/40/5 35/39/8 40/44/8 
s 39
f 40/44/8 35/39/8 34/38/9 
s 40
f 34/38/9 37/41/9 40/44/8 
s 41
f 41/45/2 42/46/2 43/47/2 
s 42
f 43/47/2 44/48/2 41/45/2 
s 43
f 45/49/1 46/50/1 47/51/1 
s 44
f 47/51/1 48/52/1 45/49/1 
s 45
f 49/53/1 50/54/1 51/55/1 
s 46
f 51/55/1 52/56/1 49/53/1 
s 47
f 4/4/10 3/3/10 53/3/10 
s 48
f 53/3/10 17/4/10 4/4/10 
s 49
f 17/4/1 53/3/1 54/26/1 
s 50
f 54/26/1 15/25/1 17/4/1 
s 51
f 55/57/1 9/58/1 14/28/1 
s 52
f 14/28/1 56/27/1 55/57/1 
s 53
f 57/57/11 10/58/11 9/58/11 
s 54
f 9/58/11 55/57/11 57/57/11 
s 55
f 24/27/10 56/27/10 14/28/10 
s 56
f 14/28/10 19/28/10 24/27/10 
s 57
f 20/25/11 15/25/11 54/26/11 
s 58
f 54/26/11 23/26/11 20/25/11 
s 59
f 58/59/1 11/60/1 10/58/1 
s 60
f 10/58/1 57/57/1 58/59/1 
s 61
f 16/16/11 21/61/11 59/62/11 
s 62
f 59/62/11 18/18/11 16/16/11 
s 63
f 1/19/11 18/18/11 59/62/11 
s 64
f 59/62/11 2/63/11 1/19/11 
s 65
f 53/64/12 3/65/12 2/11/12 
s 66
f 2/11/12 59/12/12 53/64/12 
s 67
f 59/12/12 21/13/12 53/64/12 
s 68
f 54/66/12 53/64/12 21/13/12 
s 69
f 56/67/12 54/66/12 21/13/12 
s 70
f 21/13/12 22/68/12 56/67/12 
s 71
f 22/68/12 55/69/12 56/67/12 
s 72
f 22/68/12 60/70/12 55/69/12 
s 73
f 55/69/12 60/70/12 58/71/12 
s 74
f 58/71/12 57/72/12 55/69/12 
s 75
f 23/73/12 54/66/12 56/67/12 
s 76
f 56/67/12 24/74/12 23/73/12 
s 77
f 22/75/10 13/76/10 12/77/10 
s 78
f 12/77/10 60/78/10 22/75/10 
s 79
f 58/79/10 60/78/10 12/77/10 
s 80
f 12/77/10 11/80/10 58/79/10 
s 81
f 50/54/13 5/5/13 7/7/14 
s 82
f 7/7/14 51/55/14 50/54/13 
s 83
f 52/56/8 51/55/14 7/7/14 
s 84
f 7/7/14 8/8/8 52/56/8 
s 85
f 52/56/8 8/8/8 6/6/9 
s 86
f 6/6/9 49/53/9 52/56/8 
s 87
f 46/50/15 41/45/15 44/48/16 
s 88
f 44/48/16 47/51/16 46/50/15 
s 89
f 48/52/6 47/51/16 44/48/16 
s 90
f 44/48/16 43/47/6 48/52/6 
s 91
f 48/52/6 43/47/6 42/46/7 
s 92
f 42/46/7 45/49/7 48/52/6 
s 1
f 61/1/1 62/2/1 63/3/1 
s 2
f 63/3/1 64/4/1 61/1/1 
s 3
f 65/5/2 66/6/2 67/7/2 
s 4
f 66/6/2 68/8/2 67/7/2 
s 5
f 69/9/3 70/10/3 71/11/3 
s 6
f 71/11/3 72/12/3 69/9/3 
s 7
f 72/12/3 73/13/3 69/9/3 
s 8
f 74/14/3 69/9/3 73/13/3 
s 9
f 75/15/3 74/14/3 73/13/3 
s 10
f 73/13/3 76/16/3 75/15/3 
s 11
f 76/16/3 77/17/3 75/15/3 
s 12
f 76/16/3 78/18/3 77/17/3 
s 13
f 77/17/3 78/18/3 61/19/3 
s 14
f 61/19/3 64/20/3 77/17/3 
s 15
f 79/21/3 74/14/3 75/15/3 
s 16
f 75/15/3 80/22/3 79/21/3 
s 17
f 81/23/2 76/16/2 73/13/2 
s 18
f 73/13/2 82/24/2 81/23/2 
s 19
f 80/25/1 83/26/1 84/27/1 
s 20
f 84/27/1 79/28/1 80/25/1 
s 21
f 85/29/2 86/30/2 87/31/2 
s 22
f 87/31/2 88/32/2 85/29/2 
s 23
f 89/33/1 90/34/1 91/35/1 
s 24
f 91/35/1 92/36/1 89/33/1 
s 25
f 90/34/4 85/29/4 88/32/5 
s 26
f 88/32/5 91/35/5 90/34/4 
s 27
f 92/36/6 91/35/5 88/32/5 
s 28
f 88/32/5 87/31/6 92/36/6 
s 29
f 92/36/6 87/31/6 86/30/7 
s 30
f 86/30/7 89/33/7 92/36/6 
s 31
f 93/37/2 94/38/2 95/39/2 
s 32
f 95/39/2 96/40/2 93/37/2 
s 33
f 97/41/1 98/42/1 99/43/1 
s 34
f 99/43/1 100/44/1 97/41/1 
s 35
f 98/42/4 93/37/4 96/40/5 
s 36
f 96/40/5 99/43/5 98/42/4 
s 37
f 100/44/8 99/43/5 96/40/5 
s 38
f 96/40/5 95/39/8 100/44/8 
s 39
f 100/44/8 95/39/8 94/38/9 
s 40
f 94/38/9 97/41/9 100/44/8 
s 41
f 101/45/2 102/46/2 103/47/2 
s 42
f 103/47/2 104/48/2 101/45/2 
s 43
f 105/49/1 106/50/1 107/51/1 
s 44
f 107/51/1 108/52/1 105/49/1 
s 45
f 109/53/1 110/54/1 111/55/1 
s 46
f 111/55/1 112/56/1 109/53/1 
s 47
f 64/4/10 63/3/10 113/3/10 
s 48
f 113/3/10 77/4/10 64/4/10 
s 49
f 77/4/1 113/3/1 114/26/1 
s 50
f 114/26/1 75/25/1 77/4/1 
s 51
f 115/57/1 69/58/1 74/28/1 
s 52
f 74/28/1 116/27/1 115/57/1 
s 53
f 117/57/11 70/58/11 69/58/11 
s 54
f 69/58/11 115/57/11 117/57/11 
s 55
f 84/27/10 116/27/10 74/28/10 
s 56
f 74/28/10 79/28/10 84/27/10 
s 57
f 80/25/11 75/25/11 114/26/11 
s 58
f 114/26/11 83/26/11 80/25/11 
s 59
f 118/59/1 71/60/1 70/58/1 
s 60
f 70/58/1 117/57/1 118/59/1 
s 61
f 76/16/11 81/61/11 119/62/11 
s 62
f 119/62/11 78/18/11 76/16/11 
s 63
f 61/19/11 78/18/11 119/62/11 
s 64
f 119/62/11 62/63/11 61/19/11 
s 65
f 113/64/12 63/65/12 62/11/12 
s 66
f 62/11/12 119/12/12 113/64/12 
s 67
f 119/12/12 81/13/12 113/64/12 
s 68
f 114/66/12 113/64/12 81/13/12 
s 69
f 116/67/12 114/66/12 81/13/12 
s 70
f 81/13/12 82/68/12 116/67/12 
s 71
f 82/68/12 115/69/12 116/67/12 
s 72
f 82/68/12 120/70/12 115/69/12 
s 73
f 115/69/12 120/70/12 118/71/12 
s 74
f 118/71/12 117/72/12 115/69/12 
s 75
f 83/73/12 114/66/12 116/67/12 
s 76
f 116/67/12 84/74/12 83/73/12 
s 77
f 82/75/10 73/76/10 72/77/10 
s 78
f 72/77/10 120/78/10 82/75/10 
s 79
f 118/79/10 120/78/10 72/77/10 
s 80
f 72/77/10 71/80/10 118/79/10 
s 81
f 110/54/13 65/5/13 67/7/14 
s 82
f 67/7/14 111/55/14 110/54/13 
s 83
f 112/56/8 111/55/14 67/7/14 
s 84
f 67/7/14 68/8/8 112/56/8 
s 85
f 112/56/8 68/8/8 66/6/9 
s 86
f 66/6/9 109/53/9 112/56/8 
s 87
f 106/50/15 101/45/15 104/48/16 
s 88
f 104/48/16 107/51/16 106/50/15 
s 89
f 108/52/6 107/51/16 104/48/16 
s 90
f 104/48/16 103/47/6 108/52/6 
s 91
f 108/52/6 103/47/6 102/46/7 
s 92
f 102/46/7 105/49/7 108/52/6 
s 1
f 121/81/17 122/82/17 123/83/17 
s 2
f 123/83/17 124/84/17 121/81/17 
s 3
f 125/85/18 126/86/19 127/87/19 
s 4
f 127/87/20 128/88/20 125/85/18 
s 5
f 125/85/18 128/88/20 129/89/21 
s 6
f 129/89/21 130/90/22 125/85/18 
s 7
f 131/91/23 132/92/23 133/93/23 
s 8
f 133/93/24 134/94/24 131/91/24 
s 9
f 135/95/25 136/96/25 137/97/25 
s 10
f 137/97/25 138/98/25 135/95/25 
s 11
f 124/84/26 123/83/26 139/99/26 
s 12
f 139/99/26 140/100/26 124/84/26 
s 13
f 141/95/27 142/98/28 143/101/28 
s 14
f 143/101/28 144/102/27 141/95/27 
s 15
f 145/97/29 146/96/29 147/103/29 
s 16
f 147/103/29 148/104/29 145/97/29 
s 17
f 144/102/30 143/101/30 149/89/30 
s 18
f 149/89/30 150/90/30 144/102/30 
s 19
f 144/105/31 150/90/32 151/85/33 
s 20
f 151/85/33 141/106/34 144/105/31 
s 21
f 152/107/35 141/106/34 151/85/33 
s 22
f 151/85/33 153/86/35 152/107/35 
s 23
f 154/88/36 155/87/37 156/108/37 
s 24
f 156/108/37 145/109/36 154/88/36 
s 25
f 154/88/36 145/109/36 148/110/38 
s 26
f 148/110/38 157/89/38 154/88/36 
s 27
f 142/111/36 158/112/37 159/87/37 
s 28
f 159/87/37 160/88/36 142/111/36 
s 29
f 142/111/36 160/88/36 149/89/38 
s 30
f 149/89/38 143/113/38 142/111/36 
s 31
f 146/114/39 161/115/35 162/86/35 
s 32
f 162/86/35 163/85/39 146/114/39 
s 33
f 146/114/39 163/85/39 164/90/31 
s 34
f 164/90/31 147/116/40 146/114/39 
s 35
f 148/104/30 147/103/30 164/117/30 
s 36
f 164/117/30 157/118/30 148/104/30 
s 37
f 158/119/41 142/120/41 165/91/41 
s 38
f 165/91/41 166/94/42 158/119/41 
s 39
f 156/121/43 158/119/43 166/94/43 
s 40
f 166/94/43 167/93/43 156/121/43 
s 41
f 145/122/44 156/121/45 167/93/44 
s 42
f 167/93/44 168/92/46 145/122/44 
s 43
f 142/120/47 145/122/47 168/92/47 
s 44
f 168/92/47 165/91/47 142/120/47 
s 45
f 141/123/48 152/81/49 169/84/48 
s 46
f 169/84/48 170/100/48 141/123/48 
s 47
f 146/124/50 141/123/50 170/100/50 
s 48
f 170/100/50 171/99/50 146/124/50 
s 49
f 161/82/51 146/124/52 171/99/51 
s 50
f 171/99/51 172/83/51 161/82/51 
s 51
f 152/81/53 161/82/53 172/83/53 
s 52
f 172/83/53 169/84/53 152/81/53 
s 53
f 160/88/54 159/87/19 153/86/18 
s 54
f 153/86/18 151/85/55 160/88/54 
s 55
f 160/88/54 151/85/55 150/90/56 
s 56
f 150/90/56 149/89/29 160/88/54 
s 57
f 165/91/24 168/92/24 167/93/24 
s 58
f 167/93/24 166/94/24 165/91/24 
s 59
f 141/95/30 146/96/30 145/97/30 
s 60
f 145/97/30 142/98/30 141/95/30 
s 61
f 169/84/57 172/83/58 171/99/59 
s 62
f 171/99/59 170/100/60 169/84/57 
s 63
f 135/95/21 138/98/21 173/101/21 
s 64
f 173/101/22 174/102/22 135/95/22 
s 65
f 137/97/61 136/96/28 175/103/28 
s 66
f 175/103/28 176/104/62 137/97/61 
s 67
f 174/102/25 173/101/25 177/89/25 
s 68
f 177/89/25 178/90/25 174/102/25 
s 69
f 176/104/25 175/103/25 130/117/25 
s 70
f 130/117/25 129/118/25 176/104/25 
s 71
f 176/110/63 129/89/63 128/88/64 
s 72
f 128/88/64 137/109/64 176/110/63 
s 73
f 179/108/65 137/109/64 128/88/64 
s 74
f 128/88/64 127/87/66 179/108/65 
s 75
f 163/85/67 162/86/61 155/87/61 
s 76
f 155/87/61 154/88/68 163/85/67 
s 77
f 163/85/67 154/88/68 157/89/28 
s 78
f 157/89/28 164/90/27 163/85/67 
s 79
f 180/119/69 138/120/70 131/91/69 
s 80
f 131/91/69 134/94/71 180/119/69 
s 81
f 179/121/72 180/119/72 134/94/72 
s 82
f 134/94/72 133/93/72 179/121/72 
s 83
f 137/122/42 179/121/73 133/93/74 
s 84
f 133/93/74 132/92/75 137/122/42 
s 85
f 138/120/76 137/122/76 132/92/76 
s 86
f 132/92/76 131/91/76 138/120/76 
s 87
f 135/123/77 121/81/78 124/84/79 
s 88
f 124/84/79 140/100/80 135/123/77 
s 89
f 136/124/81 135/123/81 140/100/81 
s 90
f 140/100/81 139/99/81 136/124/81 
s 91
f 122/82/82 136/124/49 139/99/48 
s 92
f 139/99/48 123/83/83 122/82/82 
s 93
f 174/105/84 178/90/84 181/85/85 
s 94
f 181/85/85 135/106/86 174/105/84 
s 95
f 121/107/87 135/106/86 181/85/85 
s 96
f 181/85/85 182/86/87 121/107/87 
s 97
f 183/125/88 184/126/89 185/127/90 
s 98
f 185/127/90 186/128/91 183/125/88 
s 99
f 187/129/92 183/125/88 186/128/91 
s 100
f 186/128/91 188/130/93 187/129/92 
s 101
f 189/131/94 187/129/92 188/130/93 
s 102
f 188/130/93 190/132/95 189/131/94 
s 103
f 191/133/96 189/131/94 190/132/95 
s 104
f 190/132/95 192/134/97 191/133/96 
s 105
f 184/135/98 191/133/96 192/134/97 
s 106
f 192/134/97 185/136/99 184/135/98 
s 107
f 193/134/100 194/136/98 195/135/98 
s 108
f 195/135/98 196/133/101 193/134/100 
s 109
f 197/132/102 193/134/100 196/133/101 
s 110
f 196/133/101 198/131/103 197/132/102 
s 111
f 199/130/104 197/132/102 198/131/103 
s 112
f 198/131/103 200/129/92 199/130/104 
s 113
f 201/128/105 199/130/104 200/129/92 
s 114
f 200/129/92 202/125/106 201/128/105 
s 115
f 194/127/107 201/128/105 202/125/106 
s 116
f 202/125/106 195/126/107 194/127/107 
s 117
f 203/125/108 204/126/109 205/127/110 
s 118
f 205/127/110 206/128/111 203/125/108 
s 119
f 207/129/92 203/125/108 206/128/111 
s 120
f 206/128/111 208/130/112 207/129/92 
s 121
f 209/131/103 207/129/92 208/130/112 
s 122
f 208/130/112 210/132/113 209/131/103 
s 123
f 211/133/96 209/131/103 210/132/113 
s 124
f 210/132/113 212/134/114 211/133/96 
s 125
f 204/135/115 211/133/96 212/134/114 
s 126
f 212/134/114 205/136/116 204/135/115 
s 127
f 138/111/64 180/112/66 213/87/66 
s 128
f 213/87/117 214/88/64 138/111/64 
s 129
f 138/111/64 214/88/64 177/89/63 
s 130
f 177/89/63 173/113/63 138/111/64 
s 131
f 182/137/30 213/138/30 180/139/30 
s 132
f 180/139/30 121/140/30 182/137/30 
s 133
f 122/141/30 121/140/30 180/139/30 
s 134
f 180/139/30 179/142/30 122/141/30 
s 135
f 122/141/30 179/142/30 127/143/30 
s 136
f 127/143/30 126/144/30 122/141/30 
s 137
f 136/114/85 122/115/87 126/86/87 
s 138
f 126/86/87 125/85/86 136/114/85 
s 139
f 136/114/85 125/85/86 130/90/84 
s 140
f 130/90/84 175/116/84 136/114/85 
s 141
f 214/88/62 213/87/62 182/86/61 
s 142
f 182/86/61 181/85/68 214/88/62 
s 143
f 214/88/62 181/85/68 178/90/28 
s 144
f 178/90/28 177/89/62 214/88/62 
s 145
f 155/143/25 162/144/25 161/141/25 
s 146
f 161/141/25 156/142/25 155/143/25 
s 147
f 158/139/25 156/142/25 161/141/25 
s 148
f 161/141/25 152/140/25 158/139/25 
s 149
f 158/139/25 152/140/25 153/137/25 
s 150
f 153/137/25 159/138/25 158/139/25 
s 151
f 215/125/118 216/126/119 217/127/120 
s 152
f 217/127/120 218/128/121 215/125/118 
s 153
f 219/129/122 215/125/118 218/128/121 
s 154
f 218/128/121 220/130/123 219/129/122 
s 155
f 221/131/124 219/129/122 220/130/123 
s 156
f 220/130/123 222/132/125 221/131/124 
s 157
f 223/133/126 221/131/124 222/132/125 
s 158
f 222/132/125 224/134/127 223/133/126 
s 159
f 216/135/128 223/133/126 224/134/127 
s 160
f 224/134/127 217/136/115 216/135/128 
s 161
f 225/125/129 226/126/130 227/127/131 
s 162
f 227/127/131 228/128/132 225/125/129 
s 163
f 229/129/133 225/125/129 228/128/132 
s 164
f 228/128/132 230/130/93 229/129/133 
s 165
f 231/131/95 229/129/133 230/130/93 
s 166
f 230/130/93 232/132/102 231/131/95 
s 167
f 233/133/134 231/131/95 232/132/102 
s 168
f 232/132/102 234/134/135 233/133/134 
s 169
f 226/135/136 233/133/134 234/134/135 
s 170
f 234/134/135 227/136/115 226/135/136 
s 171
f 235/125/137 236/126/109 237/127/131 
s 172
f 237/127/131 238/128/138 235/125/137 
s 173
f 239/129/122 235/125/137 238/128/138 
s 174
f 238/128/138 240/130/93 239/129/122 
s 175
f 241/131/103 239/129/122 240/130/93 
s 176
f 240/130/93 242/132/139 241/131/103 
s 177
f 243/133/101 241/131/103 242/132/139 
s 178
f 242/132/139 244/134/100 243/133/101 
s 179
f 236/135/98 243/133/101 244/134/100 
s 180
f 244/134/100 237/136/140 236/135/98 
s 181
f 245/125/106 246/126/107 247/127/107 
s 182
f 247/127/107 248/128/138 245/125/106 
s 183
f 249/129/141 245/125/106 248/128/138 
s 184
f 248/128/138 250/130/142 249/129/141 
s 185
f 251/131/143 249/129/141 250/130/142 
s 186
f 250/130/142 252/132/144 251/131/143 
s 187
f 253/133/114 251/131/143 252/132/144 
s 188
f 252/132/144 254/134/145 253/133/114 
s 189
f 246/135/140 253/133/114 254/134/145 
s 190
f 254/134/145 247/136/98 246/135/140 
s 191
f 255/125/146 256/126/110 257/127/147 
s 192
f 257/127/147 258/128/137 255/125/146 
s 193
f 259/129/148 255/125/146 258/128/137 
s 194
f 258/128/137 260/130/93 259/129/148 
s 195
f 261/131/149 259/129/148 260/130/93 
s 196
f 260/130/93 262/132/102 261/131/149 
s 197
f 263/133/150 261/131/149 262/132/102 
s 198
f 262/132/102 264/134/145 263/133/150 
s 199
f 256/135/151 263/133/150 264/134/145 
s 200
f 264/134/145 257/136/140 256/135/151 
s 201
f 265/125/152 266/126/107 267/127/153 
s 202
f 267/127/153 268/128/111 265/125/152 
s 203
f 269/129/122 265/125/152 268/128/111 
s 204
f 268/128/111 270/130/154 269/129/122 
s 205
f 271/131/102 269/129/122 270/130/154 
s 206
f 270/130/154 272/132/103 271/131/102 
s 207
f 273/133/100 271/131/102 272/132/103 
s 208
f 272/132/103 274/134/145 273/133/100 
s 209
f 266/135/115 273/133/100 274/134/145 
s 210
f 274/134/145 267/136/140 266/135/115 
s 211
f 275/125/118 276/126/155 277/127/147 
s 212
f 277/127/147 278/128/108 275/125/118 
s 213
f 279/129/122 275/125/118 278/128/108 
s 214
f 278/128/108 280/130/93 279/129/122 
s 215
f 281/131/156 279/129/122 280/130/93 
s 216
f 280/130/93 282/132/94 281/131/156 
s 217
f 283/133/157 281/131/156 282/132/94 
s 218
f 282/132/94 284/134/145 283/133/157 
s 219
f 276/135/128 283/133/157 284/134/145 
s 220
f 284/134/145 277/136/140 276/135/128 
# 0 polygons - 404 triangles