# Blender v2.72 (sub 0) OBJ File: '1x1 ground with tubing.blend'
# www.blender.org
mtllib 1x1techtubes.mtl
o Grates_Cube.001
v 0.201660 0.127733 0.447177
v 0.048336 0.127733 0.298569
v 0.096652 0.127733 0.298569
v 0.249964 0.127733 0.447177
v -0.160219 0.127733 0.428624
v -0.030749 0.127733 0.298569
v -0.079065 0.127733 0.298569
v -0.208523 0.127733 0.428624
v 0.302376 0.127733 0.445796
v 0.048336 0.127733 0.191172
v 0.096652 0.127733 0.191172
v 0.350680 0.127733 0.445796
v -0.276838 0.127733 0.435195
v -0.030749 0.127733 0.191172
v -0.079065 0.127733 0.191172
v -0.325142 0.127733 0.435195
v 0.405742 0.127733 0.441766
v 0.048336 0.127733 0.083775
v 0.096652 0.127733 0.083775
v 0.454046 0.127733 0.441766
v -0.388155 0.127733 0.441766
v -0.030749 0.127733 0.083775
v -0.079065 0.127733 0.083775
v -0.436460 0.127733 0.441766
v 0.405742 0.127733 0.334368
v 0.048336 0.127733 -0.023622
v 0.096652 0.127733 -0.023622
v 0.454046 0.127733 0.334368
v -0.388155 0.127733 0.334368
v -0.030749 0.127733 -0.023622
v -0.079065 0.127733 -0.023622
v -0.436460 0.127733 0.334368
v 0.405742 0.127733 0.226971
v 0.048336 0.127733 -0.131020
v 0.096652 0.127733 -0.131020
v 0.454046 0.127733 0.226971
v -0.388155 0.127733 0.226971
v -0.030749 0.127733 -0.131020
v -0.079065 0.127733 -0.131020
v -0.436460 0.127733 0.226971
v 0.405742 0.127733 0.119574
v 0.048336 0.127733 -0.238417
v 0.096652 0.127733 -0.238417
v 0.454046 0.127733 0.119574
v -0.388155 0.127733 0.119574
v -0.030749 0.127733 -0.238417
v -0.079065 0.127733 -0.238417
v -0.436460 0.127733 0.119574
v 0.405742 0.127733 0.012177
v 0.048336 0.127733 -0.345814
v 0.096652 0.127733 -0.345814
v 0.454046 0.127733 0.012177
v -0.388155 0.127733 0.012177
v -0.030749 0.127733 -0.345814
v -0.079065 0.127733 -0.345814
v -0.436460 0.127733 0.012177
v 0.405742 0.127733 -0.095221
v 0.048336 0.127733 -0.453211
v 0.096652 0.127733 -0.453211
v 0.454046 0.127733 -0.095221
v -0.388155 0.127733 -0.095221
v -0.030749 0.127733 -0.453211
v -0.079065 0.127733 -0.453211
v -0.436460 0.127733 -0.095221
v 0.405742 0.127733 -0.202618
v 0.165220 0.127733 -0.444255
v 0.213536 0.127733 -0.444255
v 0.454046 0.127733 -0.202618
v -0.388155 0.127733 -0.202618
v -0.131465 0.127733 -0.451941
v -0.179781 0.127733 -0.451941
v -0.436460 0.127733 -0.202618
v 0.405742 0.127733 -0.310015
v 0.265671 0.127733 -0.448021
v 0.313987 0.127733 -0.448021
v 0.454046 0.127733 -0.310015
v -0.388155 0.127733 -0.310015
v -0.245433 0.127733 -0.450671
v -0.293749 0.127733 -0.450671
v -0.436460 0.127733 -0.310015
vt 0.861229 0.299381
vt 0.861183 0.430347
vt 0.852328 0.439182
vt 0.852375 0.308213
vt 0.852375 0.439182
usemtl Material
s off
f 4/1 3/2 2/3 1/4
f 8/1 5/4 6/5 7/2
f 12/1 11/2 10/3 9/4
f 16/1 13/4 14/5 15/2
f 20/1 19/2 18/3 17/4
f 24/1 21/4 22/5 23/2
f 28/1 27/2 26/3 25/4
f 32/1 29/4 30/5 31/2
f 36/1 35/2 34/3 33/4
f 40/1 37/4 38/5 39/2
f 44/1 43/2 42/3 41/4
f 48/1 45/4 46/5 47/2
f 52/1 51/2 50/3 49/4
f 56/1 53/4 54/5 55/2
f 60/1 59/2 58/3 57/4
f 64/1 61/4 62/5 63/2
f 68/1 67/2 66/3 65/4
f 72/1 69/4 70/5 71/2
f 76/1 75/2 74/3 73/4
f 80/1 77/4 78/5 79/2
o Ground_Cube
v -0.485747 -0.100000 0.485746
v -0.485747 0.100000 0.485746
v 0.500000 -0.100000 0.485746
v 0.499999 0.100000 0.485747
v -0.485746 -0.100000 -0.500000
v -0.485747 0.100000 -0.500000
v 0.500000 -0.100000 -0.500000
v 0.500000 0.100000 -0.500000
v -0.436460 0.150000 0.436459
v 0.450712 0.150000 0.436459
v -0.436459 0.150000 -0.450713
v 0.450713 0.150000 -0.450713
v -0.391490 0.150000 0.391489
v 0.405742 0.150000 0.391489
v -0.391490 0.150000 -0.405743
v 0.405743 0.150000 -0.405743
v -0.391490 -0.050000 0.391489
v 0.405742 -0.050000 0.391489
v -0.391490 -0.050000 -0.405743
v 0.405743 -0.050000 -0.405743
v -0.209120 0.093075 -0.422667
v -0.209120 0.093075 0.401142
v -0.139419 0.064204 -0.422667
v -0.139419 0.064204 0.401142
v -0.110548 -0.005497 -0.422667
v -0.110548 -0.005497 0.401142
v -0.307692 -0.005497 -0.422667
v -0.307692 -0.005497 0.401142
v -0.278821 0.064204 -0.422667
v -0.278821 0.064204 0.401142
v 0.357812 0.093075 -0.272138
v 0.230644 0.093075 0.401142
v 0.374381 0.064204 -0.204435
v 0.300346 0.064204 0.401142
v 0.381244 -0.005497 -0.176391
v 0.329217 -0.005497 0.401142
v 0.334380 -0.005497 -0.367885
v 0.132072 -0.005497 0.401142
v 0.341243 0.064204 -0.339841
v 0.160943 0.064204 0.401142
v 0.262892 0.093075 -0.194148
v 0.230644 0.093075 -0.082349
v 0.300346 0.064204 -0.082349
v 0.320360 0.064204 -0.154707
v 0.329217 -0.005497 -0.082349
v 0.344165 -0.005497 -0.138370
v 0.132072 -0.005497 -0.082349
v 0.181619 -0.005497 -0.249927
v 0.160943 0.064204 -0.082349
v 0.205423 0.064204 -0.233590
v 0.429273 0.093075 -0.277635
v 0.429391 0.064204 -0.207934
v 0.429440 -0.005497 -0.179063
v 0.429107 -0.005497 -0.376207
v 0.429155 0.064204 -0.347336
v -0.079045 0.103385 0.391489
v -0.079045 0.103385 -0.405743
v 0.094419 0.103385 -0.405743
v 0.094419 0.103385 0.391489
v -0.079046 0.150000 0.391489
v -0.079065 0.150000 -0.405743
v 0.094443 0.150000 -0.405743
v 0.094420 0.150000 0.391489
vt 0.999227 0.749349
vt 0.753761 0.749349
vt 0.753761 0.503884
vt 0.999226 0.503884
vt 0.501317 0.637816
vt 0.236799 0.638983
vt 0.255055 0.619868
vt 0.482341 0.619644
vt 0.668447 0.213648
vt 0.668447 0.246930
vt 0.502041 0.246930
vt 0.502041 0.213648
vt 0.255835 0.392662
vt 0.270364 0.404299
vt 0.270070 0.607999
vt 0.236799 0.374401
vt 0.501398 0.374312
vt 0.483181 0.393335
vt 0.347396 0.607702
vt 0.392301 0.607806
vt 0.467904 0.608172
vt 0.468252 0.405039
vt 0.999810 0.749483
vt 0.899710 0.750055
vt 0.853837 0.749330
vt 0.752981 0.748580
vt 0.792818 0.706115
vt 0.959351 0.706234
vt 0.792506 0.548615
vt 0.958062 0.547722
vt 0.999874 0.504250
vt 0.753054 0.503444
vt 0.392236 0.405026
vt 0.511021 0.102611
vt 0.136272 0.102611
vt 0.136272 0.091815
vt 0.511021 0.091815
vt 0.136272 0.081129
vt 0.511021 0.081129
vt 0.511021 0.113407
vt 0.136272 0.113407
vt 0.511021 0.124094
vt 0.136272 0.124094
vt 0.203780 0.140714
vt 0.052619 0.140714
vt 0.053154 0.132731
vt 0.209529 0.132731
vt 0.053709 0.124521
vt 0.210676 0.124521
vt 0.198197 0.148477
vt 0.052271 0.148477
vt 0.194996 0.156911
vt 0.052415 0.156829
vt 0.293588 0.156934
vt 0.245656 0.156904
vt 0.243156 0.148477
vt 0.291766 0.148477
vt 0.241189 0.140714
vt 0.282689 0.140714
vt 0.268300 0.132731
vt 0.238539 0.132731
vt 0.233484 0.124521
vt 0.254298 0.124521
vt 0.270786 0.124521
vt 0.287753 0.132731
vt 0.323999 0.148477
vt 0.333983 0.156851
vt 0.306787 0.140714
vt 0.391202 0.605732
vt 0.391265 0.406683
vt 0.402738 0.406687
vt 0.402674 0.605735
vt 0.347945 0.406670
vt 0.347892 0.605719
vt 0.336419 0.605716
vt 0.336472 0.406667
vt 0.347299 0.404992
vt 0.850792 0.503782
vt 0.908415 0.504478
usemtl Material
s off
f 87/6 83/7 81/8 85/9
f 88/10 86/11 91/12 92/13
f 83/14 84/15 82/16 81/17
f 81/16 82/17 86/14 85/15
f 88/15 84/16 83/17 87/14
f 87/15 85/16 86/17 88/14
f 91/12 89/18 93/19 95/20
f 86/11 82/21 89/18 91/12
f 84/22 88/10 92/13 90/23
f 82/21 84/22 90/23 89/18
f 92/13 91/12 141/24 142/25
f 90/23 92/13 96/26 94/27
f 93/28 140/29 143/30 94/31 98/32 97/33
f 100/34 99/35 97/33 98/32
f 95/36 93/28 97/33 99/35
f 94/31 96/37 100/34 98/32
f 90/23 94/27 143/38
f 101/39 102/40 104/41 103/42
f 103/42 104/41 106/43 105/44
f 109/45 110/46 102/40 101/39
f 107/47 108/48 110/46 109/45
f 122/49 112/50 114/51 123/52
f 123/52 114/51 116/53 125/54
f 129/55 120/56 112/50 122/49
f 127/57 118/58 120/56 129/55
f 117/59 128/60 130/61 119/62
f 128/60 127/57 129/55 130/61
f 119/62 130/61 121/63 111/64
f 130/61 129/55 122/49 121/63
f 113/65 124/66 126/67 115/68
f 124/66 123/52 125/54 126/67
f 111/64 121/63 124/66 113/65
f 121/63 122/49 123/52 124/66
f 113/65 115/68 133/69 132/70
f 117/59 119/62 135/71 134/72
f 119/62 111/64 131/73 135/71
f 111/64 113/65 132/70 131/73
f 140/74 141/75 137/76 136/77
f 142/78 143/79 139/80 138/81
f 143/79 142/78 141/75 140/74
f 89/18 90/23 143/38 140/82
f 96/37 142/83 141/84 95/36 99/35 100/34
f 96/26 92/13 142/25
f 93/19 89/18 140/82
f 91/12 95/20 141/24
