# Blender v2.78 (sub 0) OBJ File: 'props.blend'
# www.blender.org
o Line53
v 0.322451 0.010000 -0.072828
v 0.486307 0.010000 0.112756
v 0.510467 0.010000 0.067646
v 0.448273 0.010000 0.131706
v 0.522141 0.010000 0.006622
v 0.521823 0.010000 -0.008259
v 0.519175 0.010000 -0.021975
v 0.401002 0.010000 0.132468
v 0.464457 0.010000 -0.161342
v 0.448339 0.010000 -0.189699
v 0.426404 0.010000 -0.213390
v 0.388237 0.010000 -0.234964
v 0.380587 0.010000 -0.242477
v 0.367030 0.010000 -0.260761
v 0.373619 0.010000 -0.251440
v 0.212334 0.010000 0.113063
v 0.250161 0.010000 0.105338
v 0.360518 0.010000 -0.269349
v 0.353779 0.010000 -0.276110
v 0.346510 0.010000 -0.279953
v 0.337635 0.010000 -0.280654
v 0.328541 0.010000 -0.278710
v 0.319313 0.010000 -0.274988
v 0.310040 0.010000 -0.270350
v 0.300809 0.010000 -0.265664
v 0.291708 0.010000 -0.261793
v 0.217833 0.010000 -0.242527
v 0.082538 0.010000 -0.182380
v 0.120040 0.010000 -0.014160
v 0.047037 0.010000 -0.173965
v 0.031176 0.010000 -0.172261
v 0.003541 0.010000 -0.177140
v -0.079945 0.010000 0.047920
v 0.016656 0.010000 -0.173101
v 0.175524 0.010000 0.165320
v 0.188233 0.010000 0.135117
v 0.151055 0.010000 0.282393
v 0.129215 0.010000 0.322759
v -0.008107 0.010000 -0.185034
v 0.043064 0.017228 0.371180
v -0.018227 0.010000 -0.197440
v -0.151351 0.010000 0.331797
v 0.003445 0.010000 0.582659
v 0.005088 0.010000 0.606287
v 0.018544 0.010000 0.593208
v -0.021586 0.020904 0.591703
v -0.014194 0.010000 0.611694
v 0.025689 0.010000 0.574623
v 0.009191 0.024903 0.566494
v 0.026034 0.010000 0.552698
v -0.017803 0.024903 0.489639
v -0.067929 0.017228 0.563298
v -0.068290 0.010000 0.590836
v 0.003042 0.010000 0.486843
v -0.113044 0.010000 0.502411
v 0.002064 0.010000 0.466096
v 0.008430 0.010000 0.444211
v -0.010485 0.024903 0.437446
v -0.119346 0.010000 0.398512
v 0.016696 0.020904 0.393472
v -0.129099 0.010000 0.366260
v 0.024121 0.010000 0.420022
v -0.218815 0.010000 -0.167954
v -0.383971 0.010000 0.076976
v -0.358741 0.010000 0.114468
v -0.396580 0.010000 0.044827
v -0.023842 0.010000 -0.212078
v -0.412542 0.010000 -0.062529
v -0.023514 0.010000 -0.226221
v -0.426646 0.010000 -0.090947
v -0.014030 0.010000 -0.252956
v -0.567508 0.010000 -0.171876
v -0.557454 0.010000 -0.157740
v -0.572443 0.010000 -0.188812
v -0.573907 0.010000 -0.221555
v -0.581228 0.010000 -0.250822
v -0.007764 0.010000 -0.277508
v -0.009370 0.010000 -0.265513
v -0.011458 0.010000 -0.288922
v -0.026662 0.010000 -0.321502
v -0.218575 0.000000 -0.292087
v -0.101407 0.017285 -0.459052
v -0.058782 0.010000 -0.441880
v -0.073926 0.010000 -0.478026
v -0.585963 0.010000 -0.301984
v -0.587092 0.010000 -0.283654
v -0.580250 0.010000 -0.321898
v -0.568489 0.010000 -0.340490
v -0.551633 0.010000 -0.355174
v -0.531909 0.010000 -0.366658
v -0.510540 0.010000 -0.373222
v -0.489223 0.010000 -0.380154
v -0.453701 0.010000 -0.398907
v -0.234835 0.020170 -0.356823
v -0.424215 0.010000 -0.428546
v -0.366345 0.017285 -0.460590
v -0.280673 0.024804 -0.488568
v -0.332730 0.010000 -0.503212
v -0.211620 0.024804 -0.499441
v -0.243139 0.010000 -0.532793
v -0.095756 0.010000 -0.506419
v -0.150020 0.022813 -0.492813
v -0.162138 0.010000 -0.531447
v -0.107026 0.010000 0.535268
v -0.093265 0.010000 0.565159
v -0.038815 0.010000 0.607267
v 0.051123 0.010000 0.392358
v -0.126952 0.010000 -0.523600
v -0.201146 0.010000 -0.535101
v -0.287279 0.010000 -0.522753
v -0.378655 0.010000 -0.472399
vt 0.8197 0.5968
vt 0.9672 0.4351
vt 0.9890 0.4744
vt 0.9330 0.4186
vt 0.9995 0.5276
vt 0.9992 0.5406
vt 0.9968 0.5525
vt 0.8904 0.4180
vt 0.9475 0.6739
vt 0.9330 0.6986
vt 0.9133 0.7193
vt 0.8789 0.7380
vt 0.8720 0.7446
vt 0.8598 0.7605
vt 0.8657 0.7524
vt 0.7545 0.4416
vt 0.7205 0.4349
vt 0.8539 0.7680
vt 0.8479 0.7739
vt 0.8413 0.7772
vt 0.8333 0.7778
vt 0.8251 0.7762
vt 0.8168 0.7729
vt 0.8085 0.7689
vt 0.8002 0.7648
vt 0.7920 0.7614
vt 0.7254 0.7446
vt 0.6036 0.6922
vt 0.6374 0.5457
vt 0.5716 0.6849
vt 0.5573 0.6834
vt 0.5324 0.6877
vt 0.4572 0.4916
vt 0.5442 0.6842
vt 0.6873 0.3893
vt 0.6988 0.4157
vt 0.6653 0.2874
vt 0.6456 0.2522
vt 0.5219 0.6945
vt 0.5680 0.2100
vt 0.5128 0.7054
vt 0.3929 0.2443
vt 0.5324 0.0258
vt 0.5338 0.0052
vt 0.5459 0.0166
vt 0.5098 0.0179
vt 0.5165 0.0005
vt 0.5524 0.0328
vt 0.5375 0.0399
vt 0.5527 0.0519
vt 0.5132 0.1068
vt 0.4681 0.0427
vt 0.4677 0.0187
vt 0.5320 0.1093
vt 0.4274 0.0957
vt 0.5311 0.1273
vt 0.5368 0.1464
vt 0.5198 0.1523
vt 0.4218 0.1862
vt 0.5443 0.1906
vt 0.4130 0.2143
vt 0.5510 0.1675
vt 0.3322 0.6797
vt 0.1834 0.4663
vt 0.2062 0.4336
vt 0.1721 0.4943
vt 0.5078 0.7181
vt 0.1577 0.5878
vt 0.5081 0.7304
vt 0.1450 0.6126
vt 0.5166 0.7537
vt 0.0181 0.6831
vt 0.0272 0.6708
vt 0.0137 0.6978
vt 0.0124 0.7264
vt 0.0058 0.7519
vt 0.5223 0.7751
vt 0.5208 0.7647
vt 0.5189 0.7850
vt 0.5052 0.8134
vt 0.3324 0.7878
vt 0.4379 0.9333
vt 0.4763 0.9183
vt 0.4627 0.9498
vt 0.0015 0.7964
vt 0.0005 0.7805
vt 0.0067 0.8138
vt 0.0173 0.8300
vt 0.0324 0.8428
vt 0.0502 0.8528
vt 0.0694 0.8585
vt 0.0886 0.8645
vt 0.1206 0.8809
vt 0.3178 0.8442
vt 0.1472 0.9067
vt 0.1993 0.9346
vt 0.2765 0.9590
vt 0.2296 0.9717
vt 0.3387 0.9684
vt 0.3103 0.9975
vt 0.4430 0.9745
vt 0.3941 0.9627
vt 0.3832 0.9963
vt 0.4329 0.0671
vt 0.4453 0.0410
vt 0.4943 0.0044
vt 0.5753 0.1916
vt 0.4149 0.9895
vt 0.3481 0.9995
vt 0.2705 0.9887
vt 0.1882 0.9449
vn 0.0000 1.0000 -0.0000
vn 0.0586 0.9973 -0.0446
vn -0.0354 0.9993 -0.0089
vn 0.1233 0.8897 0.4397
vn 0.6674 0.7446 0.0105
vn 0.5554 0.8083 -0.1951
vn -0.2247 0.9432 0.2446
vn -0.1004 0.9943 0.0353
vn 0.5533 0.8102 -0.1932
vn -0.1549 0.9879 -0.0025
vn 0.5789 0.8149 -0.0273
vn 0.5728 0.8026 0.1666
vn -0.1292 0.9914 -0.0181
vn -0.0030 0.9861 -0.1661
vn -0.0514 0.9912 -0.1219
vn 0.5086 0.7953 0.3299
vn -0.0641 0.9947 -0.0803
vn 0.1878 0.9809 -0.0501
vn 0.2007 0.9760 -0.0841
vn 0.0272 0.9996 0.0017
vn 0.0270 0.9996 0.0077
vn 0.0263 0.9995 0.0166
vn 0.0246 0.9993 0.0283
vn 0.0226 0.9990 0.0389
vn 0.0179 0.9981 0.0584
vn 0.0184 0.9982 0.0567
vn 0.0228 0.9988 0.0432
vn -0.0389 0.9985 -0.0387
vn -0.1052 0.9416 0.3198
vn -0.0825 0.9936 0.0769
vn -0.1810 0.9358 -0.3027
vn -0.0682 0.9959 0.0588
vn -0.0567 0.9313 -0.3598
vn -0.0040 0.9544 0.2984
vn 0.1692 0.9770 -0.1301
vn 0.0662 0.9407 -0.3327
vn 0.0696 0.9956 0.0628
vn 0.0270 0.9996 -0.0048
vn 0.0183 0.9966 -0.0802
vn -0.0846 0.9949 0.0546
vn -0.2640 0.9568 0.1216
vn -0.2496 0.9374 0.2428
vn -0.2164 0.8959 0.3881
vn -0.0903 0.8599 0.5024
vn -0.1004 0.9943 0.0352
vn 0.2539 0.6645 0.7029
vn 0.4852 0.5501 0.6797
vn 0.3910 0.9200 -0.0272
vn 0.6659 0.7402 0.0934
vn -0.2080 0.9774 0.0381
vn 0.4762 0.8522 0.2168
vn -0.1534 0.9881 0.0093
vn -0.1516 0.9874 0.0458
vn 0.2975 0.9095 0.2903
vn 0.3016 0.9315 0.2032
vn 0.2150 0.9464 0.2412
vn 0.1980 0.9721 -0.1259
vn 0.0439 0.9986 0.0291
vn 0.1538 0.9478 -0.2792
vn 0.0747 0.9393 -0.3349
vn 0.0351 0.9266 -0.3744
vn -0.0214 0.9211 -0.3887
vn -0.0868 0.9202 -0.3817
vn -0.1576 0.9169 -0.3666
vn -0.2232 0.9163 -0.3326
vn -0.2726 0.9195 -0.2832
vn 0.0283 0.9989 0.0371
vn 0.0052 0.9994 0.0333
s off
f 1/1/1 2/2/1 3/3/1
f 1/1/1 4/4/1 2/2/1
f 1/1/1 3/3/1 5/5/1
f 1/1/1 5/5/1 6/6/1
f 1/1/1 6/6/1 7/7/1
f 1/1/1 8/8/1 4/4/1
f 1/1/1 7/7/1 9/9/1
f 1/1/1 9/9/1 10/10/1
f 1/1/1 10/10/1 11/11/1
f 1/1/1 11/11/1 12/12/1
f 1/1/1 12/12/1 13/13/1
f 14/14/1 1/1/1 15/15/1
f 17/16/1 1/1/1 16/17/1
f 18/18/1 1/1/1 14/14/1
f 19/19/1 1/1/1 18/18/1
f 20/20/1 1/1/1 19/19/1
f 21/21/1 1/1/1 20/20/1
f 22/22/1 1/1/1 21/21/1
f 23/23/1 1/1/1 22/22/1
f 24/24/1 1/1/1 23/23/1
f 25/25/1 1/1/1 24/24/1
f 26/26/1 1/1/1 25/25/1
f 27/27/1 1/1/1 26/26/1
f 28/28/1 1/1/1 27/27/1
f 29/29/1 1/1/1 28/28/1
f 29/29/1 28/28/1 30/30/1
f 16/17/1 1/1/1 29/29/1
f 29/29/1 30/30/1 31/31/1
f 32/32/1 33/33/1 34/34/1
f 35/35/1 36/36/1 29/29/1
f 33/33/1 29/29/1 34/34/1
f 37/37/1 35/35/1 29/29/1
f 33/33/1 37/37/1 29/29/1
f 33/33/1 38/38/1 37/37/1
f 33/33/1 32/32/1 39/39/1
f 33/33/2 40/40/2 38/38/2
f 33/33/1 39/39/1 41/41/1
f 33/33/3 42/42/3 40/40/3
f 43/43/1 44/44/1 45/45/1
f 46/46/4 47/47/4 44/44/4
f 43/43/1 45/45/1 48/48/1
f 49/49/5 48/48/5 50/50/5
f 51/51/6 49/49/6 50/50/6
f 52/52/7 53/53/7 46/46/7
f 51/51/8 52/52/8 49/49/8
f 51/51/9 50/50/9 54/54/9
f 51/51/10 55/55/10 52/52/10
f 51/51/11 54/54/11 56/56/11
f 57/57/12 58/58/12 56/56/12
f 58/58/13 59/59/13 51/51/13
f 40/40/14 42/42/14 60/60/14
f 58/58/15 60/60/15 61/61/15
f 57/57/16 62/62/16 58/58/16
f 63/63/1 33/33/1 41/41/1
f 64/64/1 65/65/1 33/33/1
f 63/63/1 64/64/1 33/33/1
f 63/63/1 66/66/1 64/64/1
f 63/63/1 41/41/1 67/67/1
f 63/63/1 68/68/1 66/66/1
f 63/63/1 67/67/1 69/69/1
f 63/63/1 70/70/1 68/68/1
f 63/63/1 69/69/1 71/71/1
f 72/72/1 73/73/1 63/63/1
f 74/74/1 72/72/1 63/63/1
f 75/75/1 74/74/1 63/63/1
f 76/76/1 75/75/1 63/63/1
f 77/77/1 63/63/1 78/78/1
f 79/79/1 63/63/1 77/77/1
f 80/80/1 63/63/1 79/79/1
f 81/81/17 63/63/17 80/80/17
f 82/82/18 80/80/18 83/83/18
f 84/84/19 82/82/19 83/83/19
f 85/85/20 86/86/20 81/81/20
f 87/87/21 85/85/21 81/81/21
f 88/88/22 87/87/22 81/81/22
f 89/89/23 88/88/23 81/81/23
f 90/90/24 89/89/24 81/81/24
f 91/91/25 90/90/25 81/81/25
f 92/92/26 91/91/26 81/81/26
f 93/93/27 92/92/27 81/81/27
f 94/94/28 95/95/28 93/93/28
f 81/81/29 94/94/29 93/93/29
f 94/94/30 96/96/30 95/95/30
f 97/97/31 98/98/31 96/96/31
f 94/94/32 97/97/32 96/96/32
f 99/99/33 100/100/33 97/97/33
f 80/80/34 94/94/34 81/81/34
f 101/101/35 82/82/35 84/84/35
f 102/102/36 103/103/36 99/99/36
f 102/102/37 94/94/37 82/82/37
f 86/86/38 76/76/38 81/81/38
f 76/76/39 63/63/39 81/81/39
f 78/78/1 63/63/1 71/71/1
f 73/73/1 70/70/1 63/63/1
f 65/65/1 42/42/1 33/33/1
f 42/42/40 61/61/40 60/60/40
f 34/34/1 29/29/1 31/31/1
f 36/36/1 16/17/1 29/29/1
f 15/15/1 1/1/1 13/13/1
f 8/8/1 1/1/1 17/16/1
f 104/104/41 105/105/41 52/52/41
f 105/105/42 53/53/42 52/52/42
f 53/53/43 106/106/43 46/46/43
f 106/106/44 47/47/44 46/46/44
f 52/52/45 46/46/45 49/49/45
f 43/43/46 48/48/46 49/49/46
f 46/46/47 43/43/47 49/49/47
f 46/46/48 44/44/48 43/43/48
f 58/58/49 51/51/49 56/56/49
f 55/55/50 104/104/50 52/52/50
f 58/58/51 62/62/51 60/60/51
f 59/59/52 55/55/52 51/51/52
f 58/58/53 61/61/53 59/59/53
f 60/60/54 62/62/54 107/107/54
f 40/40/55 60/60/55 107/107/55
f 40/40/56 107/107/56 38/38/56
f 101/101/57 102/102/57 82/82/57
f 82/82/58 94/94/58 80/80/58
f 108/108/59 102/102/59 101/101/59
f 108/108/60 103/103/60 102/102/60
f 103/103/61 109/109/61 99/99/61
f 109/109/62 100/100/62 99/99/62
f 100/100/63 110/110/63 97/97/63
f 110/110/64 98/98/64 97/97/64
f 98/98/65 111/111/65 96/96/65
f 111/111/66 95/95/66 96/96/66
f 102/102/67 99/99/67 94/94/67
f 99/99/68 97/97/68 94/94/68
