# Blender v2.79 (sub 0) OBJ File: 'Orlock Ganger.blend'
# www.blender.org
mtllib Collider.mtl
o 25mm_Cylinder.001
v 0.174649 0.162764 -0.421639
v 0.089035 0.162764 -0.447610
v 0.000000 0.162764 0.000000
v 0.253551 0.162764 -0.379465
v 0.322709 0.162764 -0.322709
v 0.379465 0.162764 -0.253551
v 0.421639 0.162764 -0.174649
v 0.447610 0.162764 -0.089035
v 0.456379 0.162764 0.000000
v 0.447610 0.162764 0.089035
v 0.421639 0.162764 0.174649
v 0.379465 0.162764 0.253551
v 0.322709 0.162764 0.322709
v 0.253551 0.162764 0.379465
v 0.174649 0.162764 0.421639
v 0.089035 0.162764 0.447610
v 0.000000 0.162764 0.456379
v -0.089035 0.162764 0.447610
v -0.174649 0.162764 0.421639
v -0.253551 0.162764 0.379465
v -0.322709 0.162764 0.322708
v -0.379465 0.162764 0.253550
v -0.421639 0.162764 0.174648
v -0.447610 0.162764 0.089035
v -0.456379 0.162764 0.000000
v -0.447610 0.162764 -0.089036
v -0.421639 0.162764 -0.174649
v -0.379465 0.162764 -0.253551
v -0.322708 0.162764 -0.322709
v -0.253550 0.162764 -0.379466
v -0.174648 0.162764 -0.421639
v 0.000000 0.162764 -0.456379
v -0.089034 0.162764 -0.447610
v 0.273410 -0.000000 0.409188
v 0.188328 -0.000000 0.454665
v 0.000000 0.000000 0.000000
v 0.188328 0.000000 -0.454665
v 0.273411 0.000000 -0.409188
v -0.492126 0.000000 0.000000
v -0.482670 0.000000 -0.096010
v 0.454665 -0.000000 0.188328
v 0.409188 -0.000000 0.273410
v -0.409188 -0.000000 0.273410
v -0.454665 -0.000000 0.188328
v 0.482670 0.000000 -0.096009
v 0.492126 0.000000 0.000000
v 0.000000 0.000000 -0.492126
v 0.096009 0.000000 -0.482670
v -0.188329 -0.000000 0.454665
v -0.273411 -0.000000 0.409188
v -0.273410 0.000000 -0.409188
v -0.188328 0.000000 -0.454665
v 0.096009 -0.000000 0.482670
v 0.000000 -0.000000 0.492126
v 0.347986 0.000000 -0.347986
v 0.409188 0.000000 -0.273410
v -0.454665 0.000000 -0.188329
v -0.409187 0.000000 -0.273411
v 0.347986 -0.000000 0.347986
v -0.482670 -0.000000 0.096009
v 0.482670 -0.000000 0.096009
v -0.347986 -0.000000 0.347985
v -0.096008 0.000000 -0.482670
v 0.454665 0.000000 -0.188328
v -0.096009 -0.000000 0.482670
v -0.347985 0.000000 -0.347986
v -0.090286 0.152354 -0.453902
v 0.000000 0.152354 -0.462795
v 0.384800 0.152354 -0.257115
v 0.427566 0.152354 -0.177104
v 0.000000 0.152354 0.462794
v -0.090287 0.152354 0.453902
v -0.177103 0.152354 -0.427567
v -0.257115 0.152354 0.384799
v -0.327245 0.152354 0.327245
v 0.090287 0.152354 -0.453902
v 0.177104 0.152354 -0.427566
v 0.462794 0.152354 0.000000
v 0.453902 0.152354 0.090287
v -0.427566 0.152354 0.177103
v -0.453902 0.152354 0.090286
v 0.384800 0.152354 0.257115
v 0.327245 0.152354 0.327245
v -0.453902 0.152354 -0.090287
v -0.427566 0.152354 -0.177104
v 0.257115 0.152354 -0.384800
v 0.327245 0.152354 -0.327245
v 0.177104 0.152354 0.427566
v 0.090287 0.152354 0.453902
v -0.327245 0.152354 -0.327246
v -0.257114 0.152354 -0.384800
v -0.177104 0.152354 0.427566
v 0.453902 0.152354 -0.090287
v -0.384800 0.152354 0.257115
v 0.427566 0.152354 0.177104
v -0.462794 0.152354 0.000000
v 0.257115 0.152354 0.384800
v -0.384799 0.152354 -0.257115
vt 0.398465 0.683811
vt 0.399925 0.683461
vt 0.400669 0.692566
vt 0.397090 0.684498
vt 0.395854 0.685494
vt 0.394801 0.686762
vt 0.393975 0.688254
vt 0.393405 0.689910
vt 0.393115 0.691669
vt 0.393115 0.693463
vt 0.393405 0.695222
vt 0.393974 0.696879
vt 0.394801 0.698370
vt 0.395854 0.699638
vt 0.397090 0.700634
vt 0.398465 0.701321
vt 0.399925 0.701671
vt 0.401413 0.701671
vt 0.402873 0.701321
vt 0.404248 0.700634
vt 0.405484 0.699638
vt 0.406537 0.698370
vt 0.407363 0.696879
vt 0.407933 0.695222
vt 0.408223 0.693463
vt 0.408223 0.691669
vt 0.407933 0.689910
vt 0.407363 0.688253
vt 0.406537 0.686762
vt 0.405484 0.685494
vt 0.404248 0.684498
vt 0.401413 0.683461
vt 0.402873 0.683811
vt 0.394042 0.678281
vt 0.393428 0.676494
vt 0.401262 0.673632
vt 0.408481 0.678282
vt 0.407589 0.679889
vt 0.402064 0.663815
vt 0.403638 0.664193
vt 0.397402 0.682331
vt 0.396068 0.681257
vt 0.397402 0.664933
vt 0.398885 0.664193
vt 0.402064 0.683448
vt 0.400459 0.683448
vt 0.409409 0.674599
vt 0.409096 0.676495
vt 0.394042 0.668981
vt 0.394933 0.667374
vt 0.408481 0.668982
vt 0.409096 0.670768
vt 0.393115 0.674598
vt 0.393115 0.672665
vt 0.406455 0.681257
vt 0.405120 0.682331
vt 0.405120 0.664933
vt 0.406455 0.666007
vt 0.394933 0.679889
vt 0.400459 0.663815
vt 0.398885 0.683071
vt 0.396068 0.666007
vt 0.409409 0.672665
vt 0.403638 0.683071
vt 0.393428 0.670768
vt 0.407589 0.667374
vt 0.377777 0.684725
vt 0.379420 0.684883
vt 0.379353 0.686674
vt 0.377711 0.686674
vt 0.379373 0.696179
vt 0.380893 0.695376
vt 0.381555 0.696987
vt 0.380093 0.697941
vt 0.392653 0.663815
vt 0.393072 0.665755
vt 0.391623 0.666244
vt 0.391107 0.664358
vt 0.377977 0.682786
vt 0.379607 0.683109
vt 0.388123 0.665882
vt 0.388889 0.667650
vt 0.387603 0.668553
vt 0.386717 0.666866
vt 0.377777 0.688623
vt 0.379420 0.688464
vt 0.379607 0.690239
vt 0.377977 0.690562
vt 0.381891 0.701231
vt 0.383207 0.699981
vt 0.384174 0.701348
vt 0.382961 0.702725
vt 0.384127 0.669244
vt 0.385238 0.670735
vt 0.384174 0.671999
vt 0.382961 0.670623
vt 0.385382 0.705359
vt 0.386383 0.703764
vt 0.387603 0.704794
vt 0.386717 0.706482
vt 0.380935 0.673719
vt 0.382328 0.674819
vt 0.381555 0.676360
vt 0.380093 0.675406
vt 0.378311 0.692476
vt 0.379916 0.691990
vt 0.380346 0.693706
vt 0.378778 0.694353
vt 0.389591 0.708302
vt 0.390231 0.706468
vt 0.391623 0.707104
vt 0.391107 0.708990
vt 0.378778 0.678995
vt 0.380346 0.679641
vt 0.379916 0.681358
vt 0.378311 0.680872
vt 0.390231 0.666879
vt 0.389591 0.665044
vt 0.382328 0.698528
vt 0.380935 0.699629
vt 0.386383 0.669584
vt 0.385382 0.667989
vt 0.385238 0.702613
vt 0.384127 0.704104
vt 0.383207 0.673367
vt 0.381891 0.672117
vt 0.388889 0.705697
vt 0.388123 0.707465
vt 0.380893 0.677971
vt 0.379373 0.677169
vt 0.393072 0.707593
vt 0.392653 0.709533
vt 0.379505 0.686674
vt 0.379570 0.688448
vt 0.379756 0.690208
vt 0.380062 0.691945
vt 0.380488 0.693647
vt 0.381031 0.695303
vt 0.381688 0.696900
vt 0.382455 0.698427
vt 0.383324 0.699869
vt 0.384285 0.701224
vt 0.385339 0.702477
vt 0.386475 0.703619
vt 0.387685 0.704641
vt 0.388959 0.705537
vt 0.390289 0.706301
vt 0.391669 0.706930
vt 0.393104 0.707411
vt 0.393104 0.665936
vt 0.391669 0.666418
vt 0.390289 0.667046
vt 0.388959 0.667811
vt 0.387685 0.668707
vt 0.386475 0.669728
vt 0.385339 0.670870
vt 0.384285 0.672123
vt 0.383324 0.673479
vt 0.382455 0.674921
vt 0.381688 0.676448
vt 0.381031 0.678045
vt 0.380488 0.679701
vt 0.380062 0.681403
vt 0.379756 0.683139
vt 0.379570 0.684898
vn -0.0000 1.0000 0.0000
vn 0.0000 -1.0000 -0.0000
vn -0.1540 -0.6141 -0.7740
vn -0.1821 0.3590 -0.9154
vn -0.0000 0.3590 -0.9333
vn 0.0000 -0.6141 -0.7892
vn 0.6562 -0.6141 -0.4385
vn 0.7760 0.3590 -0.5185
vn 0.8623 0.3590 -0.3572
vn 0.7291 -0.6141 -0.3020
vn 0.0000 -0.6141 0.7892
vn -0.0000 0.3590 0.9333
vn -0.1821 0.3590 0.9154
vn -0.1540 -0.6141 0.7740
vn -0.3020 -0.6141 -0.7291
vn -0.3572 0.3590 -0.8623
vn -0.4385 -0.6141 0.6562
vn -0.5185 0.3590 0.7760
vn -0.6600 0.3590 0.6600
vn -0.5580 -0.6141 0.5581
vn 0.1540 -0.6141 -0.7740
vn 0.1821 0.3590 -0.9154
vn 0.3572 0.3590 -0.8623
vn 0.3020 -0.6141 -0.7291
vn 0.7892 -0.6141 -0.0000
vn 0.9333 0.3590 -0.0000
vn 0.9154 0.3590 0.1821
vn 0.7740 -0.6141 0.1540
vn -0.7291 -0.6141 0.3020
vn -0.8623 0.3590 0.3572
vn -0.9154 0.3590 0.1821
vn -0.7740 -0.6141 0.1540
vn 0.6562 -0.6141 0.4385
vn 0.7760 0.3590 0.5185
vn 0.6600 0.3590 0.6600
vn 0.5581 -0.6141 0.5581
vn -0.7740 -0.6141 -0.1540
vn -0.9154 0.3590 -0.1821
vn -0.8623 0.3590 -0.3572
vn -0.7291 -0.6141 -0.3020
vn 0.4385 -0.6141 -0.6562
vn 0.5185 0.3590 -0.7760
vn 0.6600 0.3590 -0.6600
vn 0.5581 -0.6141 -0.5581
vn 0.3020 -0.6141 0.7291
vn 0.3572 0.3590 0.8623
vn 0.1821 0.3590 0.9154
vn 0.1540 -0.6141 0.7740
vn -0.5581 -0.6141 -0.5581
vn -0.6600 0.3590 -0.6600
vn -0.5185 0.3590 -0.7760
vn -0.4385 -0.6141 -0.6562
vn -0.3572 0.3590 0.8623
vn -0.3020 -0.6141 0.7291
vn 0.9154 0.3590 -0.1821
vn 0.7740 -0.6141 -0.1540
vn -0.7760 0.3590 0.5185
vn -0.6562 -0.6141 0.4385
vn 0.8623 0.3590 0.3572
vn 0.7291 -0.6141 0.3020
vn -0.9333 0.3590 0.0000
vn -0.7892 -0.6141 -0.0000
vn 0.5185 0.3590 0.7760
vn 0.4385 -0.6141 0.6562
vn -0.7760 0.3590 -0.5185
vn -0.6562 -0.6141 -0.4385
vn 0.0000 0.8601 -0.5101
vn 0.0995 0.8602 -0.5002
vn 0.1952 0.8601 -0.4712
vn 0.2834 0.8601 -0.4241
vn 0.3606 0.8602 -0.3606
vn 0.4241 0.8601 -0.2834
vn 0.4712 0.8601 -0.1952
vn 0.5002 0.8602 -0.0995
vn 0.5101 0.8601 -0.0000
vn 0.5002 0.8602 0.0995
vn 0.4712 0.8601 0.1952
vn 0.4241 0.8601 0.2834
vn 0.3606 0.8602 0.3606
vn 0.2834 0.8601 0.4241
vn 0.1952 0.8601 0.4712
vn 0.0995 0.8602 0.5002
vn -0.0000 0.8601 0.5101
vn -0.0995 0.8602 0.5002
vn -0.1952 0.8602 0.4712
vn -0.2834 0.8601 0.4241
vn -0.3606 0.8602 0.3606
vn -0.4241 0.8601 0.2834
vn -0.4712 0.8601 0.1952
vn -0.5002 0.8602 0.0995
vn -0.5101 0.8601 -0.0000
vn -0.5002 0.8601 -0.0995
vn -0.4712 0.8601 -0.1952
vn -0.4241 0.8601 -0.2834
vn -0.3606 0.8602 -0.3607
vn -0.2834 0.8601 -0.4241
vn -0.1952 0.8601 -0.4712
vn -0.0995 0.8601 -0.5002
usemtl BaseMaterial.001
s off
f 1/1/1 2/2/1 3/3/1
f 4/4/1 1/1/1 3/3/1
f 5/5/1 4/4/1 3/3/1
f 6/6/1 5/5/1 3/3/1
f 7/7/1 6/6/1 3/3/1
f 8/8/1 7/7/1 3/3/1
f 9/9/1 8/8/1 3/3/1
f 10/10/1 9/9/1 3/3/1
f 11/11/1 10/10/1 3/3/1
f 12/12/1 11/11/1 3/3/1
f 13/13/1 12/12/1 3/3/1
f 14/14/1 13/13/1 3/3/1
f 15/15/1 14/14/1 3/3/1
f 16/16/1 15/15/1 3/3/1
f 17/17/1 16/16/1 3/3/1
f 18/18/1 17/17/1 3/3/1
f 19/19/1 18/18/1 3/3/1
f 20/20/1 19/19/1 3/3/1
f 21/21/1 20/20/1 3/3/1
f 22/22/1 21/21/1 3/3/1
f 23/23/1 22/22/1 3/3/1
f 24/24/1 23/23/1 3/3/1
f 25/25/1 24/24/1 3/3/1
f 26/26/1 25/25/1 3/3/1
f 27/27/1 26/26/1 3/3/1
f 28/28/1 27/27/1 3/3/1
f 29/29/1 28/28/1 3/3/1
f 30/30/1 29/29/1 3/3/1
f 31/31/1 30/30/1 3/3/1
f 32/32/1 33/33/1 3/3/1
f 33/33/1 31/31/1 3/3/1
f 2/2/1 32/32/1 3/3/1
f 34/34/2 35/35/2 36/36/2
f 37/37/2 38/38/2 36/36/2
f 39/39/2 40/40/2 36/36/2
f 41/41/2 42/42/2 36/36/2
f 43/43/2 44/44/2 36/36/2
f 45/45/2 46/46/2 36/36/2
f 47/47/2 48/48/2 36/36/2
f 49/49/2 50/50/2 36/36/2
f 51/51/2 52/52/2 36/36/2
f 53/53/2 54/54/2 36/36/2
f 55/55/2 56/56/2 36/36/2
f 57/57/2 58/58/2 36/36/2
f 59/59/2 34/34/2 36/36/2
f 48/48/2 37/37/2 36/36/2
f 60/60/2 39/39/2 36/36/2
f 61/61/2 41/41/2 36/36/2
f 62/62/2 43/43/2 36/36/2
f 63/63/2 47/47/2 36/36/2
f 64/64/2 45/45/2 36/36/2
f 65/65/2 49/49/2 36/36/2
f 66/66/2 51/51/2 36/36/2
f 35/35/2 53/53/2 36/36/2
f 38/38/2 55/55/2 36/36/2
f 40/40/2 57/57/2 36/36/2
f 42/42/2 59/59/2 36/36/2
f 44/44/2 60/60/2 36/36/2
f 46/46/2 61/61/2 36/36/2
f 50/50/2 62/62/2 36/36/2
f 52/52/2 63/63/2 36/36/2
f 56/56/2 64/64/2 36/36/2
f 54/54/2 65/65/2 36/36/2
f 58/58/2 66/66/2 36/36/2
s 1
f 63/67/3 67/68/4 68/69/5 47/70/6
f 56/71/7 69/72/8 70/73/9 64/74/10
f 54/75/11 71/76/12 72/77/13 65/78/14
f 52/79/15 73/80/16 67/68/4 63/67/3
f 50/81/17 74/82/18 75/83/19 62/84/20
f 48/85/21 76/86/22 77/87/23 37/88/24
f 46/89/25 78/90/26 79/91/27 61/92/28
f 44/93/29 80/94/30 81/95/31 60/96/32
f 42/97/33 82/98/34 83/99/35 59/100/36
f 40/101/37 84/102/38 85/103/39 57/104/40
f 38/105/41 86/106/42 87/107/43 55/108/44
f 35/109/45 88/110/46 89/111/47 53/112/48
f 66/113/49 90/114/50 91/115/51 51/116/52
f 65/78/14 72/77/13 92/117/53 49/118/54
f 64/74/10 70/73/9 93/119/55 45/120/56
f 62/84/20 75/83/19 94/121/57 43/122/58
f 61/92/28 79/91/27 95/123/59 41/124/60
f 60/96/32 81/95/31 96/125/61 39/126/62
f 59/100/36 83/99/35 97/127/63 34/128/64
f 57/104/40 85/103/39 98/129/65 58/130/66
f 55/108/44 87/107/43 69/72/8 56/71/7
f 53/112/48 89/111/47 71/131/12 54/132/11
f 51/116/52 91/115/51 73/80/16 52/79/15
f 49/118/54 92/117/53 74/82/18 50/81/17
f 45/120/56 93/119/55 78/90/26 46/89/25
f 43/122/58 94/121/57 80/94/30 44/93/29
f 41/124/60 95/123/59 82/98/34 42/97/33
f 58/130/66 98/129/65 90/114/50 66/113/49
f 34/128/64 97/127/63 88/110/46 35/109/45
f 37/88/24 77/87/23 86/106/42 38/105/41
f 39/126/62 96/125/61 84/102/38 40/101/37
f 76/86/22 68/69/5 32/133/67 2/134/68
f 77/87/23 76/86/22 2/134/68 1/135/69
f 86/106/42 77/87/23 1/135/69 4/136/70
f 87/107/43 86/106/42 4/136/70 5/137/71
f 69/72/8 87/107/43 5/137/71 6/138/72
f 70/73/9 69/72/8 6/138/72 7/139/73
f 93/119/55 70/73/9 7/139/73 8/140/74
f 78/90/26 93/119/55 8/140/74 9/141/75
f 79/91/27 78/90/26 9/141/75 10/142/76
f 95/123/59 79/91/27 10/142/76 11/143/77
f 82/98/34 95/123/59 11/143/77 12/144/78
f 83/99/35 82/98/34 12/144/78 13/145/79
f 97/127/63 83/99/35 13/145/79 14/146/80
f 88/110/46 97/127/63 14/146/80 15/147/81
f 89/111/47 88/110/46 15/147/81 16/148/82
f 71/131/12 89/111/47 16/148/82 17/149/83
f 72/77/13 71/76/12 17/150/83 18/151/84
f 92/117/53 72/77/13 18/151/84 19/152/85
f 74/82/18 92/117/53 19/152/85 20/153/86
f 75/83/19 74/82/18 20/153/86 21/154/87
f 94/121/57 75/83/19 21/154/87 22/155/88
f 80/94/30 94/121/57 22/155/88 23/156/89
f 81/95/31 80/94/30 23/156/89 24/157/90
f 96/125/61 81/95/31 24/157/90 25/158/91
f 84/102/38 96/125/61 25/158/91 26/159/92
f 85/103/39 84/102/38 26/159/92 27/160/93
f 98/129/65 85/103/39 27/160/93 28/161/94
f 90/114/50 98/129/65 28/161/94 29/162/95
f 91/115/51 90/114/50 29/162/95 30/163/96
f 73/80/16 91/115/51 30/163/96 31/164/97
f 67/68/4 73/80/16 31/164/97 33/165/98
f 68/69/5 67/68/4 33/165/98 32/133/67
f 47/70/6 68/69/5 76/86/22 48/85/21
