# 3ds Max Wavefront OBJ Exporter v0.97b - (c)2007 guruware
# File Created: 26.03.2017 15:45:03

mtllib sandbags_coll.mtl

#
# object Box001
#

v  2.0291 0.0000 -1.8152
v  0.4958 0.0000 -4.6535
v  1.0718 0.0000 -4.9647
v  2.6051 0.0000 -2.1264
v  2.0291 0.8297 -1.8152
v  2.6051 0.8297 -2.1264
v  1.0718 0.8297 -4.9647
v  0.4958 0.8297 -4.6535
# 8 vertices

vn 0.0000 -1.0000 -0.0000
vn 0.0000 1.0000 -0.0000
vn 0.4753 0.0000 0.8798
vn 0.8798 0.0000 -0.4753
vn -0.4753 0.0000 -0.8798
vn -0.8798 0.0000 0.4753
# 6 vertex normals

vt 1.0000 0.0000 0.0000
vt 1.0000 1.0000 0.0000
vt 0.0000 1.0000 0.0000
vt 0.0000 0.0000 0.0000
# 4 texture coords

g Box001
usemtl wire_027177088
s 2
f 1/1/1 2/2/1 3/3/1 4/4/1 
s 4
f 5/4/2 6/1/2 7/2/2 8/3/2 
s 8
f 1/4/3 4/1/3 6/2/3 5/3/3 
s 16
f 4/4/4 3/1/4 7/2/4 6/3/4 
s 32
f 3/4/5 2/1/5 8/2/5 7/3/5 
s 64
f 2/4/6 1/1/6 5/2/6 8/3/6 
# 6 polygons

#
# object Box002
#

v  -2.5989 0.0000 4.7062
v  0.2468 0.0000 3.1868
v  0.5552 0.0000 3.7643
v  -2.2906 0.0000 5.2838
v  -2.5989 0.8297 4.7062
v  -2.2906 0.8297 5.2838
v  0.5552 0.8297 3.7643
v  0.2468 0.8297 3.1868
# 8 vertices

vn 0.0000 -1.0000 -0.0000
vn 0.0000 1.0000 -0.0000
vn -0.8821 0.0000 0.4710
vn 0.4710 0.0000 0.8821
vn 0.8821 0.0000 -0.4710
vn -0.4710 0.0000 -0.8821
# 6 vertex normals

vt 1.0000 0.0000 0.0000
vt 1.0000 1.0000 0.0000
vt 0.0000 1.0000 0.0000
vt 0.0000 0.0000 0.0000
# 4 texture coords

g Box002
usemtl wire_027177088
s 2
f 9/5/7 10/6/7 11/7/7 12/8/7 
s 4
f 13/8/8 14/5/8 15/6/8 16/7/8 
s 8
f 9/8/9 12/5/9 14/6/9 13/7/9 
s 16
f 12/8/10 11/5/10 15/6/10 14/7/10 
s 32
f 11/8/11 10/5/11 16/6/11 15/7/11 
s 64
f 10/8/12 9/5/12 13/6/12 16/7/12 
# 6 polygons

#
# object Box003
#

v  0.5509 0.0000 3.0179
v  2.2092 0.0000 -1.8955
v  2.9667 0.0000 -1.6584
v  1.3085 0.0000 3.2550
v  0.5509 2.0875 3.0179
v  1.3085 2.0875 3.2550
v  2.9667 2.0875 -1.6584
v  2.2092 2.0875 -1.8955
# 8 vertices

vn 0.0000 -1.0000 -0.0000
vn 0.0000 1.0000 -0.0000
vn -0.3198 0.0000 0.9475
vn 0.9543 0.0000 0.2987
vn 0.3198 0.0000 -0.9475
vn -0.9543 0.0000 -0.2987
# 6 vertex normals

vt 1.0000 0.0000 0.0000
vt 1.0000 1.0000 0.0000
vt 0.0000 1.0000 0.0000
vt 0.0000 0.0000 0.0000
# 4 texture coords

g Box003
usemtl wire_135110008
s 2
f 17/9/13 18/10/13 19/11/13 20/12/13 
s 4
f 21/12/14 22/9/14 23/10/14 24/11/14 
s 8
f 17/12/15 20/9/15 22/10/15 21/11/15 
s 16
f 20/12/16 19/9/16 23/10/16 22/11/16 
s 32
f 19/12/17 18/9/17 24/10/17 23/11/17 
s 64
f 18/12/18 17/9/18 21/10/18 24/11/18 
# 6 polygons