# Blender v2.78 (sub 0) OBJ File: ''
# www.blender.org
mtllib Bedding_Bed.mtl
o Furniture_01_Bedding_Bed01_CZER_ND_Smesh
v -2.214151 1.964289 -1.098175
v -2.214151 1.907999 -0.976065
v -2.214151 2.042904 -1.029432
v -2.214151 1.925515 -0.938290
v -2.214151 1.907999 -0.976065
v -2.214151 2.070446 -0.938290
v -2.214151 1.925514 0.938290
v -2.214151 2.070446 0.938290
v -2.214151 2.070446 0.938290
v -2.214151 2.042903 1.029432
v -2.214151 1.907999 0.976066
v -2.214151 0.000000 -0.994626
v -2.214151 1.866917 -0.994626
v -2.214151 0.000000 -1.127515
v -2.214151 1.866917 -1.127515
v -2.214151 1.964289 -1.098175
v -2.214151 0.000000 -0.994626
v -2.091604 0.000000 -0.994626
v -2.091604 1.866917 -0.994626
v -2.214151 1.866917 -0.994626
v -2.091604 1.907999 -0.976065
v -2.214151 1.907999 -0.976065
v -2.091604 1.925515 -0.938290
v -2.214151 1.925515 -0.938290
v 2.224937 1.388592 0.938290
v 2.224937 1.243661 0.938290
v 2.224937 1.243661 -0.938290
v 2.224937 1.388592 -0.938290
v 2.224937 1.361050 -1.029432
v 2.224937 1.226146 -0.976065
v 2.224937 1.361050 1.029432
v 2.224937 1.243661 0.938290
v 2.224937 1.226146 0.976065
v 2.102389 1.282435 -1.098175
v 2.102389 1.226146 -0.976065
v 2.102389 1.361050 -1.029432
v 2.224937 -0.000000 1.127515
v 2.224937 -0.000000 0.994626
v 2.224937 1.185063 0.994627
v 2.224937 1.185063 1.127516
v 2.224937 1.282435 1.098176
v 2.224937 1.226146 0.976065
v 2.224937 1.361050 1.029432
v -2.214151 1.964288 1.098176
v -2.214151 2.042903 1.029432
v -2.214151 1.907999 0.976066
v -2.214151 1.866917 0.994627
v -2.214151 1.866917 1.127516
v -2.214151 -0.000000 0.994626
v -2.214151 -0.000000 1.127515
v 2.102389 0.000000 -0.994626
v 2.224937 0.000000 -0.994626
v 2.224937 1.185064 -0.994626
v 2.102389 1.185064 -0.994626
v 2.224937 1.226146 -0.976065
v 2.102389 1.226146 -0.976065
v 2.224937 1.243661 -0.938290
v 2.102389 1.243661 -0.938290
v 2.224937 1.185063 0.994627
v 2.224937 -0.000000 0.994626
v 2.102389 -0.000000 0.994626
v 2.102389 1.185063 0.994627
v 2.102389 1.226146 0.976065
v 2.224937 1.226146 0.976065
v 2.102389 1.243661 0.938290
v 2.224937 1.243661 0.938290
v -2.214151 2.042903 1.029432
v -2.091604 2.042903 1.029432
v -2.091604 2.070446 0.938290
v -2.214151 2.070446 0.938290
v -2.091604 2.070446 -0.938290
v -2.214151 2.070446 -0.938290
v -2.091604 2.042904 -1.029432
v -2.214151 2.042904 -1.029432
v 2.102389 1.282435 1.098176
v 2.102389 1.361050 1.029432
v 2.102389 1.226146 0.976065
v 2.102389 1.185063 0.994627
v 2.102389 1.185063 1.127516
v 2.102389 -0.000000 0.994626
v 2.102389 -0.000000 1.127515
v 2.102389 1.388592 0.938290
v 2.102389 1.243661 0.938290
v 2.102389 1.226146 0.976065
v -2.091604 1.925514 0.938290
v -2.214151 1.925514 0.938290
v -2.091604 1.925515 -0.938290
v -2.214151 1.925515 -0.938290
v -2.214151 0.000000 -1.127515
v -2.091604 0.000000 -1.127515
v -2.214151 0.000000 -0.994626
v -2.091604 0.000000 -0.994626
v -2.214151 -0.000000 0.994626
v -2.091604 -0.000000 0.994626
v -2.214151 -0.000000 1.127515
v -2.091604 -0.000000 1.127515
v -2.214151 1.964289 -1.098175
v -2.214151 2.042904 -1.029432
v -2.091604 2.042904 -1.029432
v -2.091604 1.964289 -1.098175
v -2.214151 1.866917 -1.127515
v -2.091604 1.866917 -1.127515
v -2.214151 0.000000 -1.127515
v -2.091604 0.000000 -1.127515
v -0.034985 0.711088 -1.029857
v -0.034985 0.777605 -1.029857
v -0.034985 0.711087 1.029857
v -0.034985 0.777604 1.029857
v -0.101502 0.777605 -1.029857
v -0.101502 0.711088 -1.029857
v -0.101502 0.777604 1.029857
v -0.101502 0.711087 1.029857
v -0.034985 0.711088 -1.029857
v -0.101502 0.711088 -1.029857
v -0.034985 0.777605 -1.029857
v -0.101502 0.777605 -1.029857
v -0.034985 0.711087 1.029857
v -0.101502 0.711087 1.029857
v -0.034985 0.711088 -1.029857
v -0.101502 0.711088 -1.029857
v -0.034985 0.777604 1.029857
v -0.101502 0.777604 1.029857
v -0.034985 0.711087 1.029857
v -0.101502 0.711087 1.029857
v -0.034985 0.777605 -1.029857
v -0.101502 0.777605 -1.029857
v -0.034985 0.777604 1.029857
v -0.101502 0.777604 1.029857
v 1.682146 0.711088 -1.029857
v 1.682146 0.777605 -1.029857
v 1.682146 0.711087 1.029857
v 1.682146 0.777604 1.029857
v 1.615629 0.777605 -1.029857
v 1.615629 0.711088 -1.029857
v 1.615629 0.777604 1.029857
v 1.615629 0.711087 1.029857
v 1.682146 0.711088 -1.029857
v 1.615629 0.711088 -1.029857
v 1.682146 0.777605 -1.029857
v 1.615629 0.777605 -1.029857
v 1.682146 0.711087 1.029857
v 1.615629 0.711087 1.029857
v 1.682146 0.711088 -1.029857
v 1.615629 0.711088 -1.029857
v 1.682146 0.777604 1.029857
v 1.615629 0.777604 1.029857
v 1.682146 0.711087 1.029857
v 1.615629 0.711087 1.029857
v 1.682146 0.777605 -1.029857
v 1.615629 0.777605 -1.029857
v 1.682146 0.777604 1.029857
v 1.615629 0.777604 1.029857
v -1.586625 0.711088 -1.029857
v -1.586625 0.777605 -1.029857
v -1.586625 0.711087 1.029857
v -1.586625 0.777604 1.029857
v -1.653142 0.777605 -1.029857
v -1.653142 0.711088 -1.029857
v -1.653142 0.777604 1.029857
v -1.653142 0.711087 1.029857
v -1.586625 0.711088 -1.029857
v -1.653142 0.711088 -1.029857
v -1.586625 0.777605 -1.029857
v -1.653142 0.777605 -1.029857
v -1.586625 0.711087 1.029857
v -1.653142 0.711087 1.029857
v -1.586625 0.711088 -1.029857
v -1.653142 0.711088 -1.029857
v -1.586625 0.777604 1.029857
v -1.653142 0.777604 1.029857
v -1.586625 0.711087 1.029857
v -1.653142 0.711087 1.029857
v -1.586625 0.777605 -1.029857
v -1.653142 0.777605 -1.029857
v -1.586625 0.777604 1.029857
v -1.653142 0.777604 1.029857
v -2.103979 0.687663 -0.994626
v -2.103979 0.787372 -0.994626
v -2.103979 0.687662 0.994626
v -2.103979 0.787372 0.994626
v -2.203688 0.787372 -0.994626
v -2.203688 0.687663 -0.994626
v -2.203688 0.787372 0.994626
v -2.203688 0.687662 0.994626
v -2.103979 0.687663 -0.994626
v -2.203688 0.687663 -0.994626
v -2.103979 0.787372 -0.994626
v -2.203688 0.787372 -0.994626
v -2.103979 0.687662 0.994626
v -2.203688 0.687662 0.994626
v -2.103979 0.687663 -0.994626
v -2.203688 0.687663 -0.994626
v -2.103979 0.787372 0.994626
v -2.203688 0.787372 0.994626
v -2.103979 0.687662 0.994626
v -2.203688 0.687662 0.994626
v -2.103979 0.787372 -0.994626
v -2.203688 0.787372 -0.994626
v -2.103979 0.787372 0.994626
v -2.203688 0.787372 0.994626
v 2.102389 0.704258 1.029857
v -2.091604 0.704258 1.029857
v 2.102389 0.864611 1.029857
v -2.091604 0.864611 1.029857
v 2.102389 0.864611 1.096374
v -2.091604 0.864611 1.096374
v 2.102389 0.704258 1.096374
v -2.091604 0.704258 1.096374
v 2.102389 0.704258 1.029857
v 2.102389 0.864611 1.029857
v 2.102389 0.704258 1.096374
v 2.102389 0.864611 1.096374
v -2.091604 0.704258 1.029857
v 2.102389 0.704258 1.029857
v -2.091604 0.704258 1.096374
v 2.102389 0.704258 1.096374
v -2.091604 0.864611 1.029857
v -2.091604 0.704258 1.029857
v -2.091604 0.864611 1.096374
v -2.091604 0.704258 1.096374
v 2.102389 0.864611 1.029857
v -2.091604 0.864611 1.029857
v 2.102389 0.864611 1.096374
v -2.091604 0.864611 1.096374
v 2.135532 0.787372 0.827899
v 2.193236 0.787372 0.827899
v 2.135532 1.243661 0.827899
v 2.193236 1.243661 0.827899
v 2.193236 0.787372 0.770195
v 2.135532 0.787372 0.770195
v 2.193236 1.243661 0.770195
v 2.135532 1.243661 0.770195
v 2.135532 0.787372 0.827899
v 2.135532 0.787372 0.770195
v 2.193236 0.787372 0.827899
v 2.193236 0.787372 0.770195
v 2.135532 1.243661 0.827899
v 2.135532 1.243661 0.770195
v 2.135532 0.787372 0.827899
v 2.135532 0.787372 0.770195
v 2.193236 1.243661 0.827899
v 2.193236 1.243661 0.770195
v 2.135532 1.243661 0.827899
v 2.135532 1.243661 0.770195
v 2.193236 0.787372 0.827899
v 2.193236 0.787372 0.770195
v 2.193236 1.243661 0.827899
v 2.193236 1.243661 0.770195
v 2.135532 0.787372 0.435658
v 2.193236 0.787372 0.435658
v 2.135532 1.243661 0.435658
v 2.193236 1.243661 0.435658
v 2.193236 0.787372 0.377954
v 2.135532 0.787372 0.377954
v 2.193236 1.243661 0.377954
v 2.135532 1.243661 0.377954
v 2.135532 0.787372 0.435658
v 2.135532 0.787372 0.377954
v 2.193236 0.787372 0.435658
v 2.193236 0.787372 0.377954
v 2.135532 1.243661 0.435658
v 2.135532 1.243661 0.377954
v 2.135532 0.787372 0.435658
v 2.135532 0.787372 0.377954
v 2.193236 1.243661 0.435658
v 2.193236 1.243661 0.377954
v 2.135532 1.243661 0.435658
v 2.135532 1.243661 0.377954
v 2.193236 0.787372 0.435658
v 2.193236 0.787372 0.377954
v 2.193236 1.243661 0.435658
v 2.193236 1.243661 0.377954
v 2.135532 0.787372 0.029094
v 2.193236 0.787372 0.029094
v 2.135532 1.243661 0.029094
v 2.193236 1.243661 0.029094
v 2.193236 0.787372 -0.028610
v 2.135532 0.787372 -0.028610
v 2.193236 1.243661 -0.028610
v 2.135532 1.243661 -0.028610
v 2.135532 0.787372 0.029094
v 2.135532 0.787372 -0.028610
v 2.193236 0.787372 0.029094
v 2.193236 0.787372 -0.028610
v 2.135532 1.243661 0.029094
v 2.135532 1.243661 -0.028610
v 2.135532 0.787372 0.029094
v 2.135532 0.787372 -0.028610
v 2.193236 1.243661 0.029094
v 2.193236 1.243661 -0.028610
v 2.135532 1.243661 0.029094
v 2.135532 1.243661 -0.028610
v 2.193236 0.787372 0.029094
v 2.193236 0.787372 -0.028610
v 2.193236 1.243661 0.029094
v 2.193236 1.243661 -0.028610
v 2.135532 0.787372 -0.369241
v 2.193236 0.787372 -0.369241
v 2.135532 1.243661 -0.369241
v 2.193236 1.243661 -0.369241
v 2.193236 0.787372 -0.426945
v 2.135532 0.787372 -0.426945
v 2.193236 1.243661 -0.426945
v 2.135532 1.243661 -0.426945
v 2.135532 0.787372 -0.369241
v 2.135532 0.787372 -0.426945
v 2.193236 0.787372 -0.369241
v 2.193236 0.787372 -0.426945
v 2.135532 1.243661 -0.369241
v 2.135532 1.243661 -0.426945
v 2.135532 0.787372 -0.369241
v 2.135532 0.787372 -0.426945
v 2.193236 1.243661 -0.369241
v 2.193236 1.243661 -0.426945
v 2.135532 1.243661 -0.369241
v 2.135532 1.243661 -0.426945
v 2.193236 0.787372 -0.369241
v 2.193236 0.787372 -0.426945
v 2.193236 1.243661 -0.369241
v 2.193236 1.243661 -0.426945
v 2.135532 0.787372 -0.765779
v 2.193236 0.787372 -0.765779
v 2.135532 1.243661 -0.765779
v 2.193236 1.243661 -0.765779
v 2.193236 0.787372 -0.823483
v 2.135532 0.787372 -0.823483
v 2.193236 1.243661 -0.823483
v 2.135532 1.243661 -0.823483
v 2.135532 0.787372 -0.765779
v 2.135532 0.787372 -0.823483
v 2.193236 0.787372 -0.765779
v 2.193236 0.787372 -0.823483
v 2.135532 1.243661 -0.765779
v 2.135532 1.243661 -0.823483
v 2.135532 0.787372 -0.765779
v 2.135532 0.787372 -0.823483
v 2.193236 1.243661 -0.765779
v 2.193236 1.243661 -0.823483
v 2.135532 1.243661 -0.765779
v 2.135532 1.243661 -0.823483
v 2.193236 0.787372 -0.765779
v 2.193236 0.787372 -0.823483
v 2.193236 1.243661 -0.765779
v 2.193236 1.243661 -0.823483
v -2.182760 0.787372 0.829369
v -2.122709 0.787372 0.829369
v -2.182760 1.925514 0.829369
v -2.122709 1.925514 0.829369
v -2.122709 0.787372 0.769318
v -2.182760 0.787372 0.769318
v -2.122709 1.925514 0.769318
v -2.182760 1.925514 0.769318
v -2.182760 0.787372 0.829369
v -2.182760 0.787372 0.769318
v -2.122709 0.787372 0.829369
v -2.122709 0.787372 0.769318
v -2.182760 1.925514 0.829369
v -2.182760 1.925514 0.769318
v -2.182760 0.787372 0.829369
v -2.182760 0.787372 0.769318
v -2.122709 1.925514 0.829369
v -2.122709 1.925514 0.769318
v -2.182760 1.925514 0.829369
v -2.182760 1.925514 0.769318
v -2.122709 0.787372 0.829369
v -2.122709 0.787372 0.769318
v -2.122709 1.925514 0.829369
v -2.122709 1.925514 0.769318
v -2.182760 0.787372 0.436387
v -2.122709 0.787372 0.436387
v -2.182760 1.925514 0.436388
v -2.122709 1.925514 0.436388
v -2.122709 0.787372 0.376336
v -2.182760 0.787372 0.376336
v -2.122709 1.925514 0.376336
v -2.182760 1.925514 0.376336
v -2.182760 0.787372 0.436387
v -2.182760 0.787372 0.376336
v -2.122709 0.787372 0.436387
v -2.122709 0.787372 0.376336
v -2.182760 1.925514 0.436388
v -2.182760 1.925514 0.376336
v -2.182760 0.787372 0.436387
v -2.182760 0.787372 0.376336
v -2.122709 1.925514 0.436388
v -2.122709 1.925514 0.376336
v -2.182760 1.925514 0.436388
v -2.182760 1.925514 0.376336
v -2.122709 0.787372 0.436387
v -2.122709 0.787372 0.376336
v -2.122709 1.925514 0.436388
v -2.122709 1.925514 0.376336
v -2.182760 0.787372 0.030203
v -2.122709 0.787372 0.030203
v -2.182760 1.925515 0.030204
v -2.122709 1.925515 0.030204
v -2.122709 0.787372 -0.029848
v -2.182760 0.787372 -0.029848
v -2.122709 1.925515 -0.029848
v -2.182760 1.925515 -0.029848
v -2.182760 0.787372 0.030203
v -2.182760 0.787372 -0.029848
v -2.122709 0.787372 0.030203
v -2.122709 0.787372 -0.029848
v -2.182760 1.925515 0.030204
v -2.182760 1.925515 -0.029848
v -2.182760 0.787372 0.030203
v -2.182760 0.787372 -0.029848
v -2.122709 1.925515 0.030204
v -2.122709 1.925515 -0.029848
v -2.182760 1.925515 0.030204
v -2.182760 1.925515 -0.029848
v -2.122709 0.787372 0.030203
v -2.122709 0.787372 -0.029848
v -2.122709 1.925515 0.030204
v -2.122709 1.925515 -0.029848
v -2.182760 0.787372 -0.369371
v -2.122709 0.787372 -0.369371
v -2.182760 1.925515 -0.369371
v -2.122709 1.925515 -0.369371
v -2.122709 0.787372 -0.429423
v -2.182760 0.787372 -0.429423
v -2.122709 1.925515 -0.429422
v -2.182760 1.925515 -0.429422
v -2.182760 0.787372 -0.369371
v -2.182760 0.787372 -0.429423
v -2.122709 0.787372 -0.369371
v -2.122709 0.787372 -0.429423
v -2.182760 1.925515 -0.369371
v -2.182760 1.925515 -0.429422
v -2.182760 0.787372 -0.369371
v -2.182760 0.787372 -0.429423
v -2.122709 1.925515 -0.369371
v -2.122709 1.925515 -0.429422
v -2.182760 1.925515 -0.369371
v -2.182760 1.925515 -0.429422
v -2.122709 0.787372 -0.369371
v -2.122709 0.787372 -0.429423
v -2.122709 1.925515 -0.369371
v -2.122709 1.925515 -0.429422
v -2.182760 0.787372 -0.763839
v -2.122709 0.787372 -0.763839
v -2.182760 1.925515 -0.763839
v -2.122709 1.925515 -0.763839
v -2.122709 0.787372 -0.823891
v -2.182760 0.787372 -0.823891
v -2.122709 1.925515 -0.823891
v -2.182760 1.925515 -0.823891
v -2.182760 0.787372 -0.763839
v -2.182760 0.787372 -0.823891
v -2.122709 0.787372 -0.763839
v -2.122709 0.787372 -0.823891
v -2.182760 1.925515 -0.763839
v -2.182760 1.925515 -0.823891
v -2.182760 0.787372 -0.763839
v -2.182760 0.787372 -0.823891
v -2.122709 1.925515 -0.763839
v -2.122709 1.925515 -0.823891
v -2.182760 1.925515 -0.763839
v -2.182760 1.925515 -0.823891
v -2.122709 0.787372 -0.763839
v -2.122709 0.787372 -0.823891
v -2.122709 1.925515 -0.763839
v -2.122709 1.925515 -0.823891
v 2.102389 0.704259 -1.029857
v 2.102389 0.864611 -1.029857
v -2.091604 0.704259 -1.029857
v -2.091604 0.864611 -1.029857
v 2.102389 0.864611 -1.096374
v 2.102389 0.704259 -1.096374
v -2.091604 0.864611 -1.096374
v -2.091604 0.704259 -1.096374
v 2.102389 0.704259 -1.029857
v 2.102389 0.704259 -1.096374
v 2.102389 0.864611 -1.029857
v 2.102389 0.864611 -1.096374
v -2.091604 0.704259 -1.029857
v -2.091604 0.704259 -1.096374
v 2.102389 0.704259 -1.029857
v 2.102389 0.704259 -1.096374
v -2.091604 0.864611 -1.029857
v -2.091604 0.864611 -1.096374
v -2.091604 0.704259 -1.029857
v -2.091604 0.704259 -1.096374
v 2.102389 0.864611 -1.029857
v 2.102389 0.864611 -1.096374
v -2.091604 0.864611 -1.029857
v -2.091604 0.864611 -1.096374
v 2.113744 0.704259 0.439318
v 2.113744 0.770775 0.439318
v -2.102663 0.704259 0.439318
v -2.102663 0.770775 0.439318
v 2.113744 0.770775 0.372801
v 2.113744 0.704259 0.372801
v -2.102663 0.770775 0.372801
v -2.102663 0.704259 0.372801
v 2.113744 0.704259 0.439318
v 2.113744 0.704259 0.372801
v 2.113744 0.770775 0.439318
v 2.113744 0.770775 0.372801
v -2.102663 0.704259 0.439318
v -2.102663 0.704259 0.372801
v 2.113744 0.704259 0.439318
v 2.113744 0.704259 0.372801
v -2.102663 0.770775 0.439318
v -2.102663 0.770775 0.372801
v -2.102663 0.704259 0.439318
v -2.102663 0.704259 0.372801
v 2.113744 0.770775 0.439318
v 2.113744 0.770775 0.372801
v -2.102663 0.770775 0.439318
v -2.102663 0.770775 0.372801
v 2.113744 0.704259 -0.367333
v 2.113744 0.770776 -0.367333
v -2.102663 0.704259 -0.367333
v -2.102663 0.770776 -0.367333
v 2.113744 0.770776 -0.433850
v 2.113744 0.704259 -0.433850
v -2.102663 0.770776 -0.433850
v -2.102663 0.704259 -0.433850
v 2.113744 0.704259 -0.367333
v 2.113744 0.704259 -0.433850
v 2.113744 0.770776 -0.367333
v 2.113744 0.770776 -0.433850
v -2.102663 0.704259 -0.367333
v -2.102663 0.704259 -0.433850
v 2.113744 0.704259 -0.367333
v 2.113744 0.704259 -0.433850
v -2.102663 0.770776 -0.367333
v -2.102663 0.770776 -0.433850
v -2.102663 0.704259 -0.367333
v -2.102663 0.704259 -0.433850
v 2.113744 0.770776 -0.367333
v 2.113744 0.770776 -0.433850
v -2.102663 0.770776 -0.367333
v -2.102663 0.770776 -0.433850
v 2.113744 0.704259 -0.761738
v 2.113744 0.770776 -0.761738
v -2.102663 0.704259 -0.761738
v -2.102663 0.770776 -0.761738
v 2.113744 0.770776 -0.828255
v 2.113744 0.704259 -0.828255
v -2.102663 0.770776 -0.828255
v -2.102663 0.704259 -0.828255
v 2.113744 0.704259 -0.761738
v 2.113744 0.704259 -0.828255
v 2.113744 0.770776 -0.761738
v 2.113744 0.770776 -0.828255
v -2.102663 0.704259 -0.761738
v -2.102663 0.704259 -0.828255
v 2.113744 0.704259 -0.761738
v 2.113744 0.704259 -0.828255
v -2.102663 0.770776 -0.761738
v -2.102663 0.770776 -0.828255
v -2.102663 0.704259 -0.761738
v -2.102663 0.704259 -0.828255
v 2.113744 0.770776 -0.761738
v 2.113744 0.770776 -0.828255
v -2.102663 0.770776 -0.761738
v -2.102663 0.770776 -0.828255
v 2.113744 0.704259 0.831907
v 2.113744 0.770775 0.831907
v -2.102663 0.704259 0.831907
v -2.102663 0.770775 0.831907
v 2.113744 0.770775 0.765391
v 2.113744 0.704259 0.765391
v -2.102663 0.770775 0.765391
v -2.102663 0.704259 0.765391
v 2.113744 0.704259 0.831907
v 2.113744 0.704259 0.765391
v 2.113744 0.770775 0.831907
v 2.113744 0.770775 0.765391
v -2.102663 0.704259 0.831907
v -2.102663 0.704259 0.765391
v 2.113744 0.704259 0.831907
v 2.113744 0.704259 0.765391
v -2.102663 0.770775 0.831907
v -2.102663 0.770775 0.765391
v -2.102663 0.704259 0.831907
v -2.102663 0.704259 0.765391
v 2.113744 0.770775 0.831907
v 2.113744 0.770775 0.765391
v -2.102663 0.770775 0.831907
v -2.102663 0.770775 0.765391
v 2.113744 0.704259 0.033259
v 2.113744 0.770776 0.033259
v -2.102663 0.704259 0.033259
v -2.102663 0.770776 0.033259
v 2.113744 0.770776 -0.033258
v 2.113744 0.704259 -0.033258
v -2.102663 0.770776 -0.033258
v -2.102663 0.704259 -0.033258
v 2.113744 0.704259 0.033259
v 2.113744 0.704259 -0.033258
v 2.113744 0.770776 0.033259
v 2.113744 0.770776 -0.033258
v -2.102663 0.704259 0.033259
v -2.102663 0.704259 -0.033258
v 2.113744 0.704259 0.033259
v 2.113744 0.704259 -0.033258
v -2.102663 0.770776 0.033259
v -2.102663 0.770776 -0.033258
v -2.102663 0.704259 0.033259
v -2.102663 0.704259 -0.033258
v 2.113744 0.770776 0.033259
v 2.113744 0.770776 -0.033258
v -2.102663 0.770776 0.033259
v -2.102663 0.770776 -0.033258
v 2.113744 0.687662 0.994627
v 2.113744 0.787372 0.994627
v 2.113744 0.687663 -0.994626
v 2.113744 0.787372 -0.994626
v 2.213454 0.787372 0.994627
v 2.213454 0.687662 0.994627
v 2.213454 0.787372 -0.994626
v 2.213454 0.687663 -0.994626
v 2.113744 0.687662 0.994627
v 2.213454 0.687662 0.994627
v 2.113744 0.787372 0.994627
v 2.213454 0.787372 0.994627
v 2.113744 0.687663 -0.994626
v 2.213454 0.687663 -0.994626
v 2.113744 0.687662 0.994627
v 2.213454 0.687662 0.994627
v 2.113744 0.787372 -0.994626
v 2.213454 0.787372 -0.994626
v 2.113744 0.687663 -0.994626
v 2.213454 0.687663 -0.994626
v 2.113744 0.787372 0.994627
v 2.213454 0.787372 0.994627
v 2.113744 0.787372 -0.994626
v 2.213454 0.787372 -0.994626
v 2.224937 1.243661 0.938290
v 2.102389 1.243661 0.938290
v 2.224937 1.243661 -0.938290
v 2.102389 1.243661 -0.938290
v 2.102389 1.243661 -0.938290
v 2.102389 1.243661 0.938290
v 2.102389 1.388592 -0.938290
v 2.102389 1.388592 0.938290
v 2.102389 1.361050 -1.029432
v 2.102389 1.243661 -0.938290
v 2.102389 1.226146 -0.976065
v 2.102389 0.000000 -0.994626
v 2.102389 1.185064 -0.994626
v 2.102389 0.000000 -1.127515
v 2.102389 1.185064 -1.127515
v 2.102389 1.282435 -1.098175
v 2.224937 1.361050 -1.029432
v 2.224937 1.226146 -0.976065
v 2.224937 1.282435 -1.098175
v 2.224937 1.185064 -0.994626
v 2.224937 1.185064 -1.127515
v 2.224937 0.000000 -1.127515
v 2.224937 0.000000 -0.994626
v 2.102389 0.000000 -1.127515
v 2.224937 0.000000 -1.127515
v 2.102389 0.000000 -0.994626
v 2.224937 0.000000 -0.994626
v 2.102389 -0.000000 0.994626
v 2.224937 -0.000000 0.994626
v 2.102389 -0.000000 1.127515
v 2.224937 -0.000000 1.127515
v 2.102389 1.282435 -1.098175
v 2.102389 1.361050 -1.029432
v 2.224937 1.361050 -1.029432
v 2.224937 1.282435 -1.098175
v 2.102389 1.185064 -1.127515
v 2.224937 1.185064 -1.127515
v 2.102389 0.000000 -1.127515
v 2.224937 0.000000 -1.127515
v 2.224937 1.361050 1.029432
v 2.102389 1.361050 1.029432
v 2.224937 1.282435 1.098176
v 2.102389 1.282435 1.098176
v 2.224937 1.185063 1.127516
v 2.102389 1.185063 1.127516
v 2.224937 -0.000000 1.127515
v 2.102389 -0.000000 1.127515
v -2.091604 1.866917 0.994627
v -2.091604 -0.000000 0.994626
v -2.214151 -0.000000 0.994626
v -2.214151 1.866917 0.994627
v -2.214151 1.907999 0.976066
v -2.091604 1.907999 0.976066
v -2.214151 1.925514 0.938290
v -2.091604 1.925514 0.938290
v -2.091604 1.866917 -0.994626
v -2.091604 0.000000 -0.994626
v -2.091604 0.000000 -1.127515
v -2.091604 1.866917 -1.127515
v -2.091604 1.964289 -1.098175
v -2.091604 1.907999 -0.976065
v -2.091604 2.042904 -1.029432
v -2.091604 1.925515 -0.938290
v -2.091604 2.070446 -0.938290
v -2.091604 2.070446 0.938290
v -2.091604 1.925514 0.938290
v -2.091604 2.042903 1.029432
v -2.091604 1.907999 0.976066
v -2.091604 1.964288 1.098176
v -2.091604 1.866917 0.994627
v -2.091604 1.866917 1.127516
v -2.091604 -0.000000 1.127515
v -2.091604 -0.000000 0.994626
v 2.102389 1.361050 -1.029432
v 2.102389 1.388592 -0.938290
v 2.224937 1.361050 -1.029432
v 2.224937 1.388592 -0.938290
v 2.102389 1.388592 0.938290
v 2.224937 1.388592 0.938290
v 2.102389 1.361050 1.029432
v 2.224937 1.361050 1.029432
v -2.214151 -0.000000 1.127515
v -2.091604 -0.000000 1.127515
v -2.214151 1.866917 1.127516
v -2.091604 1.866917 1.127516
v -2.214151 1.964288 1.098176
v -2.091604 1.964288 1.098176
v -2.214151 2.042903 1.029432
v -2.091604 2.042903 1.029432
v -2.009204 0.848241 0.924048
v -2.072325 0.829123 0.787216
v -1.856817 0.856159 0.980726
v -0.193409 0.791640 0.000000
v -2.072325 0.791640 0.000000
v -2.072325 0.828789 -0.789127
v -0.361143 0.829339 0.788759
v -0.416140 0.856159 0.980726
v -2.009204 0.845485 -0.926276
v -1.856817 0.852401 -0.983085
v -0.079413 0.829009 -0.790929
v 2.086684 0.791640 0.000000
v 2.084442 0.830544 0.797386
v 0.806884 0.861746 1.020714
v 0.296356 0.861136 1.016343
v -0.214172 0.860525 1.011973
v -0.315156 0.862841 1.028552
v -0.416140 0.860384 1.010966
v -0.050767 0.852401 -0.983085
v 2.004495 0.852945 0.957722
v 1.827941 0.862967 1.029454
v 1.317413 0.862357 1.025084
v -0.050767 0.857239 -1.022833
v 0.050217 0.857614 -1.025910
v 0.385417 0.856986 -1.020753
v 0.746048 0.857326 -1.023546
v 1.106679 0.857666 -1.026339
v 2.084442 0.830030 -0.799320
v 1.467310 0.858006 -1.029132
v 1.827941 0.858346 -1.031925
v 2.004495 0.849594 -0.960028
v -1.971454 1.255604 -0.286083
v -1.928519 1.238633 0.064728
v -2.018146 1.362851 -0.277857
v -1.979080 1.491660 -0.284739
v -1.936144 1.445358 0.066072
v -1.975210 1.331215 0.072954
v -1.937222 1.362851 0.424637
v -1.890531 1.255604 0.416411
v -1.898157 1.491660 0.417755
v -1.615923 1.399053 0.009658
v -1.624579 1.475440 -0.347192
v -2.003216 1.406997 -0.593702
v -2.052302 1.337953 -0.630215
v -2.018146 1.362851 -0.277857
v -1.971454 1.255604 -0.286083
v -1.992232 1.268908 -0.578627
v -1.857661 1.340643 0.768996
v -1.824008 1.409687 0.717905
v -1.502109 1.475440 0.347982
v -1.258298 1.405888 -0.053346
v -1.188864 1.446616 0.292797
v -1.149799 1.317807 0.285915
v -1.219233 1.292872 -0.060228
v -1.818837 1.271598 0.699985
v -1.890531 1.255604 0.416411
v -1.937222 1.362851 0.424637
v -1.196492 1.255604 0.294141
v -1.265925 1.238633 -0.052002
v -1.277703 1.255604 -0.408302
v -1.231011 1.346079 -0.416528
v -1.270076 1.464379 -0.409646
v -1.277752 1.415782 -0.685161
v -1.244099 1.346738 -0.736252
v -1.231011 1.346079 -0.416528
v -1.277703 1.255604 -0.408302
v -1.282923 1.277693 -0.667242
v -1.630646 1.396970 -0.662759
v -1.638363 1.344146 -0.706561
v -2.052302 1.337953 -0.630215
v -1.992232 1.268908 -0.578627
v -1.627740 1.275102 -0.646262
v -1.282923 1.277693 -0.667242
v -1.244099 1.346738 -0.736252
v 1.990545 1.317130 0.182483
v 1.393984 1.323805 0.182483
v 1.381095 1.334529 0.279726
v 0.771646 1.340553 0.317510
v 0.811135 1.318613 0.529026
v 0.797424 1.318606 0.122138
v 1.410009 1.317868 0.048034
v 1.990545 1.317130 0.000000
v 1.452772 1.387113 -0.182482
v 0.162196 1.344600 0.341141
v 0.221430 1.319344 0.528924
v 0.200863 1.319344 0.182483
v 0.248938 1.332589 0.000000
v -0.395697 1.320082 0.182483
v -0.447253 1.318604 0.344773
v -0.368275 1.320075 0.528822
v -0.294666 1.345337 0.663103
v 0.242254 1.408376 0.635146
v -0.407692 1.437402 0.650121
v -0.247940 1.367734 0.859911
v 0.255406 1.368341 0.860136
v 0.848152 1.424104 0.706753
v 1.400840 1.317882 0.529128
v 1.990545 1.291901 0.348503
v 0.758752 1.368947 0.860360
v 1.419562 1.427404 0.736084
v 1.990545 1.317151 0.529230
v 2.081806 1.216524 0.385149
v 2.089983 1.237407 0.195414
v 2.086684 0.791640 0.000000
v 2.081806 1.237407 0.000000
v 2.081806 1.237407 -0.195414
v 2.000103 1.340141 -0.182482
v 2.084442 0.830544 0.797386
v 0.804073 1.303764 0.961666
v 0.292247 1.303026 0.960959
v -0.214172 0.860525 1.011973
v 0.296356 0.861136 1.016343
v 0.806884 0.861746 1.020714
v 1.317413 0.862357 1.025084
v -0.422059 1.275684 0.922112
v -0.416140 0.856159 0.980726
v -0.416140 0.860384 1.010966
v -0.422059 1.301996 0.959973
v -0.315156 0.862841 1.028552
v -0.320819 1.346326 0.996228
v -0.219578 1.302288 0.960252
v -0.447066 1.367494 0.859822
v -0.447066 1.318552 0.850839
v -0.422059 1.275684 0.922112
v -0.347503 1.432916 0.850743
v -0.520718 1.345614 0.662826
v -0.520718 1.293304 0.670135
v -0.447066 1.318552 0.850839
v -0.520718 1.293304 0.670135
v -0.601565 1.268054 0.536090
v -0.601565 1.320364 0.528782
v -0.601565 1.268054 0.536090
v -0.688354 1.242804 0.355363
v -0.688354 1.295113 0.348055
v -0.662168 1.234290 0.182483
v -0.688354 1.242804 0.355363
v -0.662168 1.310306 0.182483
v -0.542796 1.376097 0.182483
v -0.567804 1.384051 0.335629
v -0.484920 1.385522 0.519678
v -0.594984 1.234290 0.000000
v -0.662168 1.234290 0.182483
v -0.594984 1.310306 0.000000
v -0.478635 1.382156 0.000000
v -0.190782 1.325347 -0.513509
v -0.071163 1.423830 -0.501521
v -0.075520 1.347398 -0.673887
v -0.196829 1.379273 -0.323115
v -0.315045 1.303295 -0.332364
v -0.315627 1.386165 -0.182482
v -0.431843 1.320374 -0.182482
v -0.431843 1.234290 -0.182482
v -0.594984 1.234290 0.000000
v -0.431843 1.234290 -0.182482
v -0.315045 1.250865 -0.338747
v -0.315045 1.250865 -0.338747
v -0.190782 1.272916 -0.519892
v -0.190782 1.272916 -0.519892
v -0.075520 1.294968 -0.680269
v -0.039963 1.365792 -0.871238
v 0.059921 1.432453 -0.872258
v -0.039963 1.317016 -0.861392
v -0.024225 1.272896 -0.931896
v -0.039963 1.317016 -0.861392
v -0.024225 1.298534 -0.970215
v -0.039963 1.365792 -0.871238
v 0.075554 1.316600 -1.015284
v 0.420624 1.298821 -0.970500
v 0.385417 0.856986 -1.020753
v 0.050217 0.857614 -1.025910
v -0.050767 0.857239 -1.022833
v -0.050767 0.852401 -0.983085
v -0.024225 1.272896 -0.931896
v 2.004495 0.849594 -0.960028
v 1.827724 1.301723 -0.973381
v 2.003376 1.293381 -0.904959
v 1.827941 0.858346 -1.031925
v 1.475949 1.300997 -0.972660
v 1.467310 0.858006 -1.029132
v 1.124174 1.300272 -0.971940
v 1.106679 0.857666 -1.026339
v 0.772399 1.299546 -0.971220
v 0.746048 0.857326 -1.023546
v 1.080668 1.367236 -0.871802
v 1.101723 1.323592 -0.513723
v 1.155952 1.384835 -0.628892
v 0.738442 1.379882 -0.581661
v 0.738281 1.366633 -0.871567
v 0.395894 1.366031 -0.871332
v 0.040484 1.412711 -0.666054
v 0.320933 1.351200 -0.603142
v 0.657313 1.326577 -0.472283
v 1.038189 1.318827 -0.330473
v 1.514367 1.300808 -0.332667
v 0.915000 1.387851 -0.182482
v 0.829474 1.334686 0.000000
v 0.212902 1.325057 -0.513545
v 0.085833 1.303005 -0.332399
v 0.562011 1.302273 -0.332489
v 0.377228 1.388589 -0.182482
v -0.160545 1.348333 -0.182482
v -0.331598 1.320082 0.000000
v -0.075520 1.294968 -0.680269
v -0.039963 1.317016 -0.861392
v -1.801673 1.298404 -0.861392
v -1.949534 1.291946 -0.808342
v -2.009204 1.247368 -0.875087
v -1.856817 1.254283 -0.931896
v -0.024225 1.272896 -0.931896
v -0.050767 0.852401 -0.983085
v -1.856817 0.852401 -0.983085
v -2.009204 0.845485 -0.926276
v -2.009204 1.247368 -0.875087
v -0.688354 1.242804 0.355363
v -2.010780 1.234290 0.000000
v -2.010780 1.274692 0.670135
v -0.662168 1.234290 0.182483
v -0.594984 1.234290 0.000000
v -0.431843 1.234290 -0.182482
v -2.010780 1.276355 -0.680269
v -0.315045 1.250865 -0.338747
v -0.190782 1.272916 -0.519892
v -2.072325 1.230035 0.728602
v -2.072325 1.181973 0.000000
v -2.072325 1.230672 -0.737938
v -1.949534 1.292544 0.797912
v -2.010780 1.274692 0.670135
v -2.009204 1.249153 0.865434
v -2.009204 0.848241 0.924048
v -2.072325 0.829123 0.787216
v -2.072325 0.791640 0.000000
v -2.072325 0.828789 -0.789127
v -2.009204 0.845485 -0.926276
v -2.009204 1.247368 -0.875087
v -1.949534 1.291946 -0.808342
v -2.010780 1.276355 -0.680269
v 2.003376 1.293381 -0.904959
v 1.922978 1.361562 -0.814315
v 2.080184 1.273413 -0.745306
v 2.004495 0.849594 -0.960028
v 2.084442 0.830030 -0.799320
v 2.086174 1.247676 -0.562045
v 2.096599 1.224062 -0.368063
v 1.990545 1.300075 -0.332756
v 1.990545 1.322127 -0.513901
v 1.990970 1.344263 -0.676901
v 1.765443 1.368441 -0.872273
v 1.546134 1.330321 -0.512904
v 1.573461 1.386343 -0.647829
v 1.423056 1.367839 -0.872038
v -1.856817 1.257071 0.922112
v -1.801673 1.299939 0.850839
v -2.009204 1.249153 0.865434
v -1.949534 1.292544 0.797912
v -2.009204 0.848241 0.924048
v -2.009204 1.249153 0.865434
v -1.856817 0.856159 0.980726
v -0.416140 0.856159 0.980726
v -0.422059 1.275684 0.922112
v -0.447066 1.318552 0.850839
v -0.520718 1.293304 0.670135
v -0.601565 1.268054 0.536090
v 1.922978 1.362258 0.802982
v 1.990970 1.372525 0.661705
v 1.765443 1.370161 0.860810
v 2.080184 1.272903 0.735543
v 2.003376 1.295690 0.894818
v 2.004495 0.852945 0.957722
v 2.103018 1.243564 0.578683
v 2.003376 1.295690 0.894818
v 1.827724 1.305240 0.963081
v 1.262097 1.369554 0.860585
v 1.315898 1.304502 0.962374
v 2.004495 0.852945 0.957722
v 1.827941 0.862967 1.029454
v -1.055263 1.342798 0.661509
v -1.104349 1.411842 0.624995
v -1.464736 1.336113 0.676061
v -1.472452 1.388937 0.632259
v -1.475359 1.267068 0.615762
v -1.115333 1.273754 0.609922
v -1.818837 1.271598 0.699985
v -1.857661 1.340643 0.768996
v -1.055263 1.342798 0.661509
v -1.149799 1.317807 0.285915
v -1.196492 1.255604 0.294141
v -1.115333 1.273754 0.609922
v -1.502109 1.255604 0.347982
v -1.265925 1.238633 -0.052002
v -1.196492 1.255604 0.294141
v -1.615923 1.238633 0.009658
v -1.624579 1.255604 -0.347192
v -1.277703 1.255604 -0.408302
v -1.282923 1.277693 -0.667242
v -1.627740 1.275102 -0.646262
v -1.992232 1.268908 -0.578627
v -1.971454 1.255604 -0.286083
v -1.928519 1.238633 0.064728
v -1.890531 1.255604 0.416411
v -1.818837 1.271598 0.699985
v -1.475359 1.267068 0.615762
v -1.115333 1.273754 0.609922
vt 0.8159 0.9836
vt 0.7935 0.9941
vt 0.8257 0.9584
vt 0.6641 0.6834
vt 0.6641 0.9941
vt 0.5347 0.9941
vt 0.7935 0.7112
vt 0.8257 0.7202
vt 0.5117 0.9836
vt 0.5024 0.9584
vt 0.5342 0.6646
vt 0.6641 0.3062
vt 0.7949 0.3066
vt 0.8320 0.5181
vt 0.8315 0.6023
vt 0.8306 0.6868
vt 0.8335 0.7036
vt 0.8306 0.7202
vt 0.5024 0.6599
vt 0.8218 0.3198
vt 0.8335 0.3491
vt 0.8330 0.4336
vt 0.4958 0.6599
vt 0.4954 0.6431
vt 0.4961 0.5876
vt 0.4956 0.5281
vt 0.4954 0.4683
vt 0.5327 0.3066
vt 0.4949 0.4087
vt 0.4944 0.3491
vt 0.5063 0.3198
vt 0.8696 0.2944
vt 0.7856 0.2930
vt 0.8691 0.2666
vt 0.8701 0.2344
vt 0.7832 0.2383
vt 0.7842 0.2681
vt 0.6997 0.2729
vt 0.7026 0.3008
vt 0.6973 0.2412
vt 0.7842 0.1572
vt 0.8711 0.1465
vt 0.9492 0.2280
vt 0.9648 0.2441
vt 0.8799 0.2661
vt 0.8901 0.2930
vt 0.9580 0.2695
vt 0.6060 0.2510
vt 0.6211 0.2354
vt 0.6978 0.1450
vt 0.7852 0.0674
vt 0.6987 0.0684
vt 0.6992 0.0371
vt 0.7832 0.0376
vt 0.6128 0.2749
vt 0.6782 0.2979
vt 0.6875 0.2720
vt 0.6997 0.0190
vt 0.7812 0.0205
vt 0.8633 0.0068
vt 0.8687 0.0298
vt 0.8730 0.0591
vt 0.9414 0.0493
vt 0.9551 0.0312
vt 0.8765 0.0283
vt 0.8765 0.0034
vt 0.9399 0.0103
vt 0.9497 0.1348
vt 0.9658 0.1343
vt 0.9702 0.2378
vt 0.9932 0.2241
vt 0.9873 0.1328
vt 0.9863 0.0493
vt 0.9624 0.0396
vt 0.2114 0.2310
vt 0.2114 0.3306
vt 0.1915 0.3325
vt 0.1852 0.4331
vt 0.1510 0.4268
vt 0.2214 0.4292
vt 0.2336 0.3276
vt 0.2416 0.2310
vt 0.2717 0.3208
vt 0.1813 0.5339
vt 0.1510 0.5242
vt 0.2114 0.5276
vt 0.2416 0.5195
vt 0.2114 0.6262
vt 0.1813 0.6348
vt 0.1510 0.6218
vt 0.1208 0.6096
vt 0.1316 0.5208
vt 0.1209 0.6282
vt 0.0881 0.6018
vt 0.0881 0.5186
vt 0.1119 0.4204
vt 0.1510 0.3291
vt 0.1813 0.2310
vt 0.0880 0.4355
vt 0.1071 0.3262
vt 0.1510 0.2310
vt 0.1770 0.2173
vt 0.2094 0.2173
vt 0.2419 0.1436
vt 0.2417 0.2173
vt 0.2739 0.2178
vt 0.2717 0.2324
vt 0.1110 0.1436
vt 0.0750 0.4277
vt 0.0750 0.5125
vt 0.0016 0.5964
vt 0.0014 0.5120
vt 0.0013 0.4277
vt 0.0011 0.3433
vt 0.0714 0.6375
vt 0.0014 0.6348
vt 0.0016 0.6299
vt 0.0742 0.6304
vt 0.0016 0.6130
vt 0.0739 0.6138
vt 0.0741 0.5972
vt 0.0891 0.6350
vt 0.0858 0.6418
vt 0.0728 0.6375
vt 0.0936 0.6184
vt 0.1210 0.6470
vt 0.1166 0.6548
vt 0.0886 0.6433
vt 0.1187 0.6555
vt 0.1462 0.6677
vt 0.1511 0.6604
vt 0.1488 0.6689
vt 0.1760 0.6819
vt 0.1808 0.6743
vt 0.2125 0.6790
vt 0.1826 0.6834
vt 0.2117 0.6702
vt 0.2114 0.6506
vt 0.1813 0.6548
vt 0.1510 0.6411
vt 0.2437 0.6677
vt 0.2153 0.6782
vt 0.2426 0.6582
vt 0.2416 0.6399
vt 0.3320 0.5925
vt 0.3320 0.5725
vt 0.3616 0.5737
vt 0.3020 0.5933
vt 0.3020 0.6128
vt 0.2717 0.6130
vt 0.2712 0.6328
vt 0.2737 0.6421
vt 0.2512 0.6624
vt 0.2788 0.6382
vt 0.3042 0.6218
vt 0.3093 0.6184
vt 0.3345 0.6013
vt 0.3391 0.5984
vt 0.3645 0.5823
vt 0.3950 0.5674
vt 0.3926 0.5510
vt 0.3938 0.5757
vt 0.4148 0.5713
vt 0.4016 0.5747
vt 0.4141 0.5642
vt 0.3984 0.5676
vt 0.4106 0.5481
vt 0.4114 0.4912
vt 0.4851 0.4951
vt 0.4861 0.5505
vt 0.4866 0.5671
vt 0.4863 0.5740
vt 0.4163 0.5713
vt 0.4790 0.2275
vt 0.4058 0.2583
vt 0.4053 0.2295
vt 0.4797 0.2568
vt 0.4072 0.3164
vt 0.4810 0.3164
vt 0.4084 0.3745
vt 0.4824 0.3760
vt 0.4099 0.4331
vt 0.4836 0.4355
vt 0.3955 0.3823
vt 0.3320 0.3789
vt 0.3557 0.3696
vt 0.3479 0.4390
vt 0.3960 0.4390
vt 0.3967 0.4956
vt 0.3623 0.5542
vt 0.3508 0.5078
vt 0.3254 0.4521
vt 0.3020 0.3892
vt 0.3020 0.3105
vt 0.2717 0.4097
vt 0.2416 0.4238
vt 0.3320 0.5256
vt 0.3020 0.5466
vt 0.3020 0.4678
vt 0.2717 0.4985
vt 0.2717 0.5874
vt 0.2416 0.6157
vt 0.3618 0.5950
vt 0.3918 0.5891
vt 0.3918 0.8803
vt 0.3831 0.9048
vt 0.3958 0.9156
vt 0.4058 0.8895
vt 0.4058 0.5864
vt 0.4758 0.5908
vt 0.4758 0.8895
vt 0.4758 0.9164
vt 0.4058 0.9164
vt 0.1808 0.6963
vt 0.2411 0.9149
vt 0.1204 0.9149
vt 0.2109 0.6919
vt 0.2411 0.6809
vt 0.2712 0.6538
vt 0.3618 0.9149
vt 0.3015 0.6345
vt 0.3315 0.6140
vt 0.1119 0.9283
vt 0.2411 0.9283
vt 0.3704 0.9283
vt 0.0918 0.9125
vt 0.1154 0.9128
vt 0.0867 0.9283
vt 0.0867 0.9983
vt 0.1119 0.9983
vt 0.2411 0.9983
vt 0.3704 0.9983
vt 0.3955 0.9983
vt 0.3955 0.9283
vt 0.3904 0.9125
vt 0.3667 0.9128
vt 0.3992 0.2183
vt 0.3875 0.2373
vt 0.3726 0.2183
vt 0.3997 0.1445
vt 0.3728 0.1440
vt 0.3386 0.2178
vt 0.3062 0.2178
vt 0.3020 0.2314
vt 0.3320 0.2314
vt 0.3628 0.2314
vt 0.3943 0.2690
vt 0.3320 0.3052
vt 0.3589 0.3008
vt 0.3948 0.3257
vt 0.0765 0.8895
vt 0.0902 0.8803
vt 0.0865 0.9156
vt 0.0991 0.9048
vt 0.0064 0.9164
vt 0.0765 0.9164
vt 0.0064 0.8895
vt 0.0064 0.6514
vt 0.0765 0.6523
vt 0.0902 0.6565
vt 0.1204 0.6685
vt 0.1505 0.6819
vt 0.0952 0.2363
vt 0.1205 0.2334
vt 0.0879 0.2690
vt 0.1107 0.2173
vt 0.0841 0.2173
vt 0.0842 0.1431
vt 0.1447 0.2173
vt 0.0748 0.2295
vt 0.0749 0.2588
vt 0.0880 0.3521
vt 0.0750 0.3433
vt 0.0009 0.2295
vt 0.0010 0.2588
vt 0.5981 0.0503
vt 0.6177 0.0601
vt 0.6074 0.1479
vt 0.6250 0.1479
vt 0.5859 0.1489
vt 0.5791 0.0664
vt 0.5815 0.2305
vt 0.6021 0.2446
vt 0.6064 0.0410
vt 0.6978 0.0366
vt 0.6982 0.0181
vt 0.6211 0.0215
vt 0.9106 0.3667
vt 0.8481 0.4492
vt 0.8418 0.3711
vt 0.9268 0.4443
vt 0.9199 0.5225
vt 0.8423 0.5278
vt 0.8379 0.5850
vt 0.9126 0.5867
vt 0.9937 0.5842
vt 0.9976 0.5188
vt 0.9976 0.4404
vt 0.9980 0.3618
vt 0.9893 0.2974
vt 0.9116 0.3071
vt 0.8315 0.2993
vt 0.5552 0.9495
vt 0.5791 0.9386
vt 0.5684 0.9648
vt 0.5864 0.9420
vt 0.5791 0.9386
vt 0.5864 0.9702
vt 0.9512 0.9421
vt 0.9512 0.9703
vt 0.9512 0.9703
vt 0.9688 0.9650
vt 0.9585 0.9387
vt 0.5752 0.5681
vt 0.5752 0.9307
vt 0.5493 0.5681
vt 0.5493 0.9306
vt 0.5552 0.9495
vt 0.0353 0.5701
vt 0.0591 0.5701
vt 0.0591 0.9327
vt 0.0353 0.9327
vt 0.0591 0.9415
vt 0.0353 0.9415
vt 0.0591 0.9496
vt 0.0353 0.9496
vt 0.8740 0.0264
vt 0.8740 0.0547
vt 0.5093 0.0547
vt 0.5093 0.0264
vt 0.4917 0.0317
vt 0.5020 0.0581
vt 0.8916 0.0317
vt 0.8740 0.0547
vt 0.8813 0.0581
vt 0.4431 0.0474
vt 0.4194 0.0581
vt 0.4297 0.0317
vt 0.9106 0.2964
vt 0.8848 0.2964
vt 0.8848 0.0659
vt 0.9106 0.0659
vt 0.9048 0.0469
vt 0.8813 0.0581
vt 0.8916 0.0317
vt 0.9819 0.9497
vt 0.9688 0.9650
vt 0.9585 0.9387
vt 0.9619 0.9308
vt 0.9878 0.9308
vt 0.9619 0.5681
vt 0.9878 0.5681
vt 0.9629 0.2944
vt 0.9390 0.2944
vt 0.9390 0.0640
vt 0.9629 0.0640
vt 0.9390 0.0552
vt 0.9629 0.0552
vt 0.9390 0.0474
vt 0.9629 0.0474
vt 0.9917 0.0640
vt 0.9917 0.2944
vt 0.9678 0.2944
vt 0.9678 0.0640
vt 0.9678 0.0552
vt 0.9917 0.0552
vt 0.9678 0.0474
vt 0.9917 0.0474
vt 0.1060 0.9926
vt 0.1060 0.9696
vt 0.1245 0.9703
vt 0.1245 0.9926
vt 0.4890 0.9701
vt 0.4890 0.9927
vt 0.5073 0.9696
vt 0.5073 0.9927
vt 0.0162 0.0469
vt 0.0296 0.0317
vt 0.0400 0.0581
vt 0.0363 0.0659
vt 0.0105 0.0659
vt 0.0363 0.2964
vt 0.0105 0.2964
vt 0.0473 0.0264
vt 0.0473 0.0547
vt 0.0400 0.0581
vt 0.1245 0.9421
vt 0.1245 0.9183
vt 0.4890 0.9420
vt 0.4890 0.9182
vt 0.5259 0.5442
vt 0.5259 0.5681
vt 0.5000 0.5442
vt 0.5000 0.5681
vt 0.1135 0.5442
vt 0.1135 0.5681
vt 0.0877 0.5442
vt 0.0877 0.5681
vt 0.5493 0.9504
vt 0.5493 0.9706
vt 0.5259 0.9706
vt 0.5259 0.9503
vt 0.5493 0.9306
vt 0.5259 0.9306
vt 0.5493 0.5681
vt 0.5259 0.5681
vt 0.9365 0.6309
vt 0.9458 0.6309
vt 0.9365 0.9270
vt 0.9458 0.9270
vt 0.9175 0.6309
vt 0.9268 0.6309
vt 0.9175 0.9270
vt 0.9268 0.9270
vt 0.9365 0.6309
vt 0.9365 0.6213
vt 0.9458 0.6309
vt 0.9458 0.6213
vt 0.9365 0.9270
vt 0.9268 0.9270
vt 0.9365 0.6309
vt 0.9268 0.6309
vt 0.9458 0.9270
vt 0.9458 0.9365
vt 0.9365 0.9270
vt 0.9365 0.9365
vt 0.9458 0.6309
vt 0.9556 0.6309
vt 0.9458 0.9270
vt 0.9556 0.9270
vt 0.8916 0.6309
vt 0.9009 0.6309
vt 0.8916 0.9270
vt 0.9009 0.9270
vt 0.8721 0.6309
vt 0.8818 0.6309
vt 0.8721 0.9270
vt 0.8818 0.9270
vt 0.8916 0.6309
vt 0.8916 0.6213
vt 0.9009 0.6309
vt 0.9009 0.6213
vt 0.8916 0.9270
vt 0.8818 0.9270
vt 0.8916 0.6309
vt 0.8818 0.6309
vt 0.9009 0.9270
vt 0.9009 0.9365
vt 0.8916 0.9270
vt 0.8916 0.9365
vt 0.9009 0.6309
vt 0.9106 0.6309
vt 0.9009 0.9270
vt 0.9106 0.9270
vt 0.9365 0.3096
vt 0.9458 0.3096
vt 0.9365 0.6055
vt 0.9458 0.6055
vt 0.9175 0.3096
vt 0.9268 0.3096
vt 0.9175 0.6055
vt 0.9268 0.6055
vt 0.9365 0.3096
vt 0.9365 0.2998
vt 0.9458 0.3096
vt 0.9458 0.2998
vt 0.9365 0.6055
vt 0.9268 0.6055
vt 0.9365 0.3096
vt 0.9268 0.3096
vt 0.9458 0.6055
vt 0.9458 0.6150
vt 0.9365 0.6055
vt 0.9365 0.6150
vt 0.9458 0.3096
vt 0.9556 0.3096
vt 0.9458 0.6055
vt 0.9556 0.6055
vt 0.5630 0.1050
vt 0.5825 0.1050
vt 0.5630 0.4917
vt 0.5825 0.4917
vt 0.5244 0.1050
vt 0.5439 0.1050
vt 0.5244 0.4917
vt 0.5439 0.4917
vt 0.5630 0.1050
vt 0.5439 0.1050
vt 0.5630 0.0859
vt 0.5439 0.0859
vt 0.5630 0.4917
vt 0.5439 0.4917
vt 0.5630 0.1050
vt 0.5439 0.1050
vt 0.5630 0.5107
vt 0.5439 0.5107
vt 0.5630 0.4917
vt 0.5439 0.4917
vt 0.5049 0.1050
vt 0.5244 0.1050
vt 0.5049 0.4917
vt 0.5244 0.4917
vt 0.2383 0.0723
vt 0.2383 0.9017
vt 0.2700 0.0723
vt 0.2700 0.9017
vt 0.2832 0.0723
vt 0.2832 0.9017
vt 0.3149 0.0723
vt 0.3149 0.9017
vt 0.3149 0.0591
vt 0.2832 0.0591
vt 0.3149 0.0723
vt 0.2832 0.0723
vt 0.3279 0.9017
vt 0.3279 0.0723
vt 0.3149 0.9017
vt 0.3149 0.0723
vt 0.2832 0.9149
vt 0.3149 0.9149
vt 0.2832 0.9017
vt 0.3149 0.9017
vt 0.2700 0.0723
vt 0.2700 0.9017
vt 0.2832 0.0723
vt 0.2832 0.9017
vt 0.0833 0.3257
vt 0.0957 0.3257
vt 0.0833 0.4111
vt 0.0957 0.4111
vt 0.1082 0.3257
vt 0.1206 0.3257
vt 0.1082 0.4111
vt 0.1206 0.4111
vt 0.0833 0.3257
vt 0.0833 0.3135
vt 0.0957 0.3257
vt 0.0957 0.3135
vt 0.0833 0.4111
vt 0.0708 0.4111
vt 0.0833 0.3257
vt 0.0708 0.3257
vt 0.0957 0.4111
vt 0.0957 0.4233
vt 0.0833 0.4111
vt 0.0833 0.4233
vt 0.0957 0.3257
vt 0.1082 0.3257
vt 0.0957 0.4111
vt 0.1082 0.4111
vt 0.0290 0.3257
vt 0.0415 0.3257
vt 0.0290 0.4111
vt 0.0415 0.4111
vt 0.0539 0.3257
vt 0.0663 0.3257
vt 0.0539 0.4111
vt 0.0663 0.4111
vt 0.0290 0.3257
vt 0.0290 0.3135
vt 0.0415 0.3257
vt 0.0415 0.3135
vt 0.0290 0.4111
vt 0.0166 0.4111
vt 0.0290 0.3257
vt 0.0166 0.3257
vt 0.0415 0.4111
vt 0.0415 0.4233
vt 0.0290 0.4111
vt 0.0290 0.4233
vt 0.0415 0.3257
vt 0.0539 0.3257
vt 0.0415 0.4111
vt 0.0539 0.4111
vt 0.0832 0.4395
vt 0.0956 0.4395
vt 0.0832 0.5249
vt 0.0956 0.5249
vt 0.1081 0.4395
vt 0.1205 0.4395
vt 0.1081 0.5249
vt 0.1205 0.5249
vt 0.0832 0.4395
vt 0.0832 0.4272
vt 0.0956 0.4395
vt 0.0956 0.4272
vt 0.0832 0.5249
vt 0.0707 0.5249
vt 0.0832 0.4395
vt 0.0707 0.4395
vt 0.0956 0.5249
vt 0.0956 0.5374
vt 0.0832 0.5249
vt 0.0832 0.5374
vt 0.0956 0.4395
vt 0.1081 0.4395
vt 0.0956 0.5249
vt 0.1081 0.5249
vt 0.0294 0.4395
vt 0.0419 0.4395
vt 0.0294 0.5249
vt 0.0419 0.5249
vt 0.0543 0.4395
vt 0.0668 0.4395
vt 0.0543 0.5249
vt 0.0668 0.5249
vt 0.0294 0.4395
vt 0.0294 0.4272
vt 0.0419 0.4395
vt 0.0419 0.4272
vt 0.0294 0.5249
vt 0.0170 0.5249
vt 0.0294 0.4395
vt 0.0170 0.4395
vt 0.0419 0.5249
vt 0.0419 0.5374
vt 0.0294 0.5249
vt 0.0294 0.5374
vt 0.0419 0.4395
vt 0.0543 0.4395
vt 0.0419 0.5249
vt 0.0543 0.5249
vt 0.0834 0.2119
vt 0.0958 0.2119
vt 0.0834 0.2974
vt 0.0958 0.2974
vt 0.1083 0.2119
vt 0.1207 0.2119
vt 0.1083 0.2974
vt 0.1207 0.2974
vt 0.0834 0.2119
vt 0.0834 0.1997
vt 0.0958 0.2119
vt 0.0958 0.1997
vt 0.0834 0.2974
vt 0.0709 0.2974
vt 0.0834 0.2119
vt 0.0709 0.2119
vt 0.0958 0.2974
vt 0.0958 0.3101
vt 0.0834 0.2974
vt 0.0834 0.3101
vt 0.0958 0.2119
vt 0.1083 0.2119
vt 0.0958 0.2974
vt 0.1083 0.2974
vt 0.3796 0.4912
vt 0.3911 0.4912
vt 0.3796 0.6885
vt 0.3911 0.6885
vt 0.4026 0.4912
vt 0.4141 0.4912
vt 0.4026 0.6885
vt 0.4141 0.6885
vt 0.3796 0.4912
vt 0.3796 0.4800
vt 0.3911 0.4912
vt 0.3911 0.4800
vt 0.3796 0.6885
vt 0.3682 0.6885
vt 0.3796 0.4912
vt 0.3682 0.4912
vt 0.3911 0.6885
vt 0.3911 0.7002
vt 0.3796 0.6885
vt 0.3796 0.7002
vt 0.3911 0.4912
vt 0.4026 0.4912
vt 0.3911 0.6885
vt 0.4026 0.6885
vt 0.4556 0.7053
vt 0.4670 0.7053
vt 0.4556 0.9025
vt 0.4670 0.9025
vt 0.4785 0.7053
vt 0.4902 0.7053
vt 0.4785 0.9025
vt 0.4902 0.9025
vt 0.4556 0.7053
vt 0.4556 0.6936
vt 0.4670 0.7053
vt 0.4670 0.6936
vt 0.4556 0.9025
vt 0.4441 0.9025
vt 0.4556 0.7053
vt 0.4441 0.7053
vt 0.4670 0.9025
vt 0.4670 0.9141
vt 0.4556 0.9025
vt 0.4556 0.9141
vt 0.4670 0.7053
vt 0.4785 0.7053
vt 0.4670 0.9025
vt 0.4785 0.9025
vt 0.4031 0.7053
vt 0.4146 0.7053
vt 0.4031 0.9025
vt 0.4146 0.9025
vt 0.4260 0.7053
vt 0.4375 0.7053
vt 0.4260 0.9025
vt 0.4375 0.9025
vt 0.4031 0.7053
vt 0.4031 0.6936
vt 0.4146 0.7053
vt 0.4146 0.6936
vt 0.4031 0.9025
vt 0.3914 0.9025
vt 0.4031 0.7053
vt 0.3914 0.7053
vt 0.4146 0.9025
vt 0.4146 0.9141
vt 0.4031 0.9025
vt 0.4031 0.9141
vt 0.4146 0.7053
vt 0.4260 0.7053
vt 0.4146 0.9025
vt 0.4260 0.9025
vt 0.3528 0.7053
vt 0.3643 0.7053
vt 0.3528 0.9025
vt 0.3643 0.9025
vt 0.3760 0.7053
vt 0.3875 0.7053
vt 0.3760 0.9025
vt 0.3875 0.9025
vt 0.3528 0.7053
vt 0.3528 0.6936
vt 0.3643 0.7053
vt 0.3643 0.6936
vt 0.3528 0.9025
vt 0.3413 0.9025
vt 0.3528 0.7053
vt 0.3413 0.7053
vt 0.3643 0.9025
vt 0.3643 0.9141
vt 0.3528 0.9025
vt 0.3528 0.9141
vt 0.3643 0.7053
vt 0.3760 0.7053
vt 0.3643 0.9025
vt 0.3760 0.9025
vt 0.4316 0.4912
vt 0.4431 0.4912
vt 0.4316 0.6885
vt 0.4431 0.6885
vt 0.4546 0.4912
vt 0.4663 0.4912
vt 0.4546 0.6885
vt 0.4663 0.6885
vt 0.4316 0.4912
vt 0.4316 0.4800
vt 0.4431 0.4912
vt 0.4431 0.4800
vt 0.4316 0.6885
vt 0.4202 0.6885
vt 0.4316 0.4912
vt 0.4202 0.4912
vt 0.4431 0.6885
vt 0.4431 0.7002
vt 0.4316 0.6885
vt 0.4316 0.7002
vt 0.4431 0.4912
vt 0.4546 0.4912
vt 0.4431 0.6885
vt 0.4546 0.6885
vt 0.1399 0.0723
vt 0.1716 0.0723
vt 0.1399 0.9017
vt 0.1716 0.9017
vt 0.1848 0.0723
vt 0.2166 0.0723
vt 0.1848 0.9017
vt 0.2166 0.9017
vt 0.2166 0.0591
vt 0.2166 0.0723
vt 0.1848 0.0591
vt 0.1848 0.0723
vt 0.2296 0.9017
vt 0.2166 0.9017
vt 0.2296 0.0723
vt 0.2166 0.0723
vt 0.1848 0.9149
vt 0.1848 0.9017
vt 0.2166 0.9149
vt 0.2166 0.9017
vt 0.1716 0.0723
vt 0.1848 0.0723
vt 0.1716 0.9017
vt 0.1848 0.9017
vt 0.7271 0.1831
vt 0.7388 0.1831
vt 0.7271 0.9246
vt 0.7388 0.9246
vt 0.7036 0.1831
vt 0.7153 0.1831
vt 0.7036 0.9246
vt 0.7153 0.9246
vt 0.7271 0.1831
vt 0.7271 0.1714
vt 0.7388 0.1831
vt 0.7388 0.1714
vt 0.7271 0.9246
vt 0.7153 0.9246
vt 0.7271 0.1831
vt 0.7153 0.1831
vt 0.7388 0.9246
vt 0.7388 0.9363
vt 0.7271 0.9246
vt 0.7271 0.9363
vt 0.7388 0.1831
vt 0.7505 0.1831
vt 0.7388 0.9246
vt 0.7505 0.9246
vt 0.6138 0.1831
vt 0.6255 0.1831
vt 0.6138 0.9246
vt 0.6255 0.9246
vt 0.5908 0.1831
vt 0.6021 0.1831
vt 0.5908 0.9246
vt 0.6021 0.9246
vt 0.6138 0.1831
vt 0.6138 0.1714
vt 0.6255 0.1831
vt 0.6255 0.1714
vt 0.6138 0.9246
vt 0.6021 0.9246
vt 0.6138 0.1831
vt 0.6021 0.1831
vt 0.6255 0.9246
vt 0.6255 0.9363
vt 0.6138 0.9246
vt 0.6138 0.9363
vt 0.6255 0.1831
vt 0.6372 0.1831
vt 0.6255 0.9246
vt 0.6372 0.9246
vt 0.8394 0.1831
vt 0.8511 0.1831
vt 0.8394 0.9246
vt 0.8511 0.9246
vt 0.8159 0.1831
vt 0.8276 0.1831
vt 0.8159 0.9246
vt 0.8276 0.9246
vt 0.8394 0.1831
vt 0.8394 0.1714
vt 0.8511 0.1831
vt 0.8511 0.1714
vt 0.8394 0.9246
vt 0.8276 0.9246
vt 0.8394 0.1831
vt 0.8276 0.1831
vt 0.8511 0.9246
vt 0.8511 0.9363
vt 0.8394 0.9246
vt 0.8394 0.9363
vt 0.8511 0.1831
vt 0.8628 0.1831
vt 0.8511 0.9246
vt 0.8628 0.9246
vt 0.7837 0.1831
vt 0.7954 0.1831
vt 0.7837 0.9246
vt 0.7954 0.9246
vt 0.7603 0.1831
vt 0.7720 0.1831
vt 0.7603 0.9246
vt 0.7720 0.9246
vt 0.7837 0.1831
vt 0.7837 0.1714
vt 0.7954 0.1831
vt 0.7954 0.1714
vt 0.7837 0.9246
vt 0.7720 0.9246
vt 0.7837 0.1831
vt 0.7720 0.1831
vt 0.7954 0.9246
vt 0.7954 0.9363
vt 0.7837 0.9246
vt 0.7837 0.9363
vt 0.7954 0.1831
vt 0.8071 0.1831
vt 0.7954 0.9246
vt 0.8071 0.9246
vt 0.6709 0.1831
vt 0.6826 0.1831
vt 0.6709 0.9246
vt 0.6826 0.9246
vt 0.6479 0.1831
vt 0.6592 0.1831
vt 0.6479 0.9246
vt 0.6592 0.9246
vt 0.6709 0.1831
vt 0.6709 0.1714
vt 0.6826 0.1831
vt 0.6826 0.1714
vt 0.6709 0.9246
vt 0.6592 0.9246
vt 0.6709 0.1831
vt 0.6592 0.1831
vt 0.6826 0.9246
vt 0.6826 0.9363
vt 0.6709 0.9246
vt 0.6709 0.9363
vt 0.6826 0.1831
vt 0.6943 0.1831
vt 0.6826 0.9246
vt 0.6943 0.9246
vt 0.3967 0.0869
vt 0.4160 0.0869
vt 0.3967 0.4731
vt 0.4160 0.4731
vt 0.3579 0.0869
vt 0.3774 0.0869
vt 0.3579 0.4731
vt 0.3774 0.4731
vt 0.3967 0.0869
vt 0.3774 0.0869
vt 0.3967 0.0674
vt 0.3774 0.0674
vt 0.3967 0.4731
vt 0.3774 0.4731
vt 0.3967 0.0869
vt 0.3774 0.0869
vt 0.3386 0.4731
vt 0.3579 0.4731
vt 0.3386 0.4927
vt 0.3579 0.4927
vt 0.3386 0.0869
vt 0.3579 0.0869
vt 0.3386 0.4731
vt 0.3579 0.4731
vt 0.8740 0.0547
vt 0.8740 0.0786
vt 0.5093 0.0547
vt 0.5093 0.0786
vt 0.4119 0.0547
vt 0.0473 0.0547
vt 0.4121 0.0264
vt 0.0473 0.0264
vt 0.4297 0.0317
vt 0.4119 0.0547
vt 0.4194 0.0581
vt 0.4229 0.2964
vt 0.4229 0.0659
vt 0.4487 0.2964
vt 0.4487 0.0659
vt 0.4431 0.0474
vt 0.4917 0.0317
vt 0.5020 0.0581
vt 0.4783 0.0474
vt 0.4983 0.0659
vt 0.4727 0.0659
vt 0.4724 0.2964
vt 0.4983 0.2964
vt 0.4724 0.3203
vt 0.4724 0.2964
vt 0.4983 0.3203
vt 0.4983 0.2964
vt 0.8848 0.3203
vt 0.8848 0.2964
vt 0.9106 0.3203
vt 0.9106 0.2964
vt 0.4487 0.0464
vt 0.4480 0.0259
vt 0.4712 0.0259
vt 0.4727 0.0464
vt 0.4487 0.0659
vt 0.4727 0.0659
vt 0.4487 0.2964
vt 0.4724 0.2964
vt 0.9106 0.0259
vt 0.9346 0.0259
vt 0.9106 0.0464
vt 0.9346 0.0464
vt 0.9106 0.0659
vt 0.9346 0.0659
vt 0.9106 0.2964
vt 0.9346 0.2964
vt 0.0065 0.9327
vt 0.0065 0.5701
vt 0.0303 0.5701
vt 0.0303 0.9327
vt 0.0303 0.9415
vt 0.0065 0.9415
vt 0.0303 0.9496
vt 0.0065 0.9496
vt 0.5000 0.9306
vt 0.5000 0.5681
vt 0.5259 0.5681
vt 0.5259 0.9306
vt 0.5200 0.9495
vt 0.4963 0.9386
vt 0.5068 0.9648
vt 0.4890 0.9420
vt 0.4890 0.9701
vt 0.1245 0.9703
vt 0.1245 0.9421
vt 0.1067 0.9650
vt 0.1171 0.9387
vt 0.0934 0.9497
vt 0.1135 0.9308
vt 0.0877 0.9308
vt 0.0877 0.5681
vt 0.1135 0.5681
vt 0.4907 0.0029
vt 0.5093 0.0029
vt 0.4907 0.0269
vt 0.5093 0.0264
vt 0.8740 0.0024
vt 0.8740 0.0264
vt 0.8921 0.0024
vt 0.8921 0.0264
vt 0.0639 0.5681
vt 0.0877 0.5681
vt 0.0639 0.9308
vt 0.0877 0.9308
vt 0.0639 0.9505
vt 0.0877 0.9505
vt 0.0639 0.9708
vt 0.0873 0.9708
vn 0.0000 -0.9904 0.1383
vn 0.0000 -0.9963 0.0858
vn 0.0001 -1.0000 0.0003
vn 0.0000 -1.0000 0.0003
vn 0.0000 -0.9969 -0.0781
vn 0.0001 -0.9956 0.0931
vn 0.0000 -0.9926 -0.1208
vn 0.0000 -0.9964 -0.0841
vn 0.0001 -1.0000 0.0005
vn 0.0000 -0.9963 0.0859
vn 0.0000 -0.9904 0.1384
vn 0.0002 -0.9969 -0.0783
vn -0.9104 -0.4034 0.0919
vn -0.8899 -0.4446 0.1020
vn -0.9907 -0.0405 0.1301
vn -0.5413 0.8406 0.0205
vn -0.5518 0.8305 0.0756
vn -0.9892 -0.0916 0.1141
vn -0.9943 -0.0396 0.0985
vn -0.9072 -0.4039 0.1175
vn -0.5318 0.8390 0.1145
vn 0.0600 0.9982 0.0005
vn 0.0343 0.9991 -0.0244
vn -0.4036 0.7980 -0.4475
vn -0.9993 -0.0360 0.0032
vn -0.9941 -0.0424 0.0993
vn -0.8903 -0.4435 0.1030
vn -0.7633 -0.6455 0.0248
vn -0.9499 -0.0319 0.3110
vn -0.2095 0.7935 0.5713
vn 0.0338 0.9992 0.0178
vn 0.5857 0.8083 -0.0589
vn 0.5827 0.7993 -0.1468
vn 0.9684 -0.1545 -0.1959
vn 0.9705 -0.2182 -0.1025
vn -0.7378 -0.6373 0.2225
vn -0.8770 -0.4419 0.1883
vn -0.9740 -0.0443 0.2222
vn 0.7850 -0.6062 -0.1277
vn 0.7524 -0.6536 -0.0817
vn 0.8678 -0.4881 -0.0935
vn 0.9985 -0.0399 -0.0367
vn 0.5592 0.8289 -0.0146
vn 0.3808 0.8043 -0.4562
vn 0.9967 -0.0045 -0.0806
vn 0.9958 -0.0821 -0.0409
vn 0.8802 -0.4728 -0.0412
vn 0.8419 -0.5360 -0.0627
vn -0.0782 0.8402 -0.5365
vn -0.1243 -0.0194 -0.9920
vn -0.1799 -0.0714 -0.9811
vn -0.1263 -0.6621 -0.7386
vn -0.0825 -0.6627 -0.7443
vn -0.0485 -0.6880 -0.7241
vn -0.0745 -0.0685 -0.9948
vn 0.3356 0.9401 0.0596
vn 0.0051 0.9970 -0.0773
vn 0.0202 0.9997 -0.0142
vn 0.0029 1.0000 -0.0050
vn 0.0141 0.9742 -0.2251
vn 0.0013 0.9999 0.0088
vn 0.0083 0.9923 0.1234
vn 0.3648 0.9278 0.0783
vn 0.0237 0.9945 -0.1017
vn -0.0115 0.9999 -0.0005
vn -0.0352 0.9649 -0.2603
vn 0.0019 0.9991 -0.0433
vn -0.0203 0.9872 0.1584
vn 0.1838 0.9814 0.0549
vn 0.2897 0.9568 -0.0231
vn 0.2740 0.9280 -0.2525
vn 0.2777 0.9229 -0.2666
vn -0.0473 0.9596 -0.2774
vn 0.0081 0.9851 -0.1718
vn 0.2744 0.9390 0.2072
vn -0.0115 0.9272 0.3742
vn -0.0008 0.9951 -0.0984
vn 0.0188 0.9748 -0.2222
vn 0.3612 0.9321 0.0249
vn -0.0044 0.8962 0.4436
vn 0.0146 0.9996 -0.0237
vn 0.3645 0.9037 -0.2246
vn 0.9172 0.3974 -0.0261
vn 0.8996 0.4351 0.0381
vn 1.0000 0.0001 0.0060
vn 0.9147 0.4042 0.0023
vn 0.9345 0.3544 0.0316
vn 0.4238 0.9046 -0.0462
vn 0.9710 0.0320 0.2369
vn -0.0028 0.5368 0.8437
vn -0.0038 0.5313 0.8471
vn 0.0941 0.0978 0.9907
vn -0.0086 0.1243 0.9922
vn -0.0067 0.1305 0.9914
vn -0.0067 0.1386 0.9903
vn -0.9999 -0.0125 0.0084
vn -0.9999 -0.0138 0.0019
vn -0.7681 0.0629 0.6372
vn -0.7587 0.2204 0.6130
vn -0.0185 0.0866 0.9961
vn 0.0277 0.5607 0.8275
vn 0.2381 0.5146 0.8237
vn -0.7846 0.5073 0.3563
vn -0.9740 -0.0836 0.2105
vn -0.9497 -0.2570 0.1786
vn 0.0371 0.9743 0.2221
vn -0.8122 0.5018 0.2974
vn -0.9358 0.0315 0.3510
vn -0.9202 -0.0706 0.3849
vn -0.8600 0.0706 0.5054
vn -0.7829 0.5073 0.3600
vn -0.9030 0.0594 0.4254
vn -0.9041 0.4163 0.0957
vn -0.9887 0.0000 -0.1498
vn -0.9876 -0.0159 -0.1558
vn -0.8458 0.5006 -0.1845
vn -0.1088 0.9937 -0.0248
vn -0.1659 0.9861 -0.0081
vn -0.0414 0.9919 -0.1201
vn -0.9384 0.0000 -0.3455
vn -0.7805 0.4382 -0.4457
vn -0.1205 0.9886 -0.0894
vn -0.7637 0.4565 -0.4565
vn -0.1660 0.9859 0.0194
vn -0.7877 0.5257 -0.3210
vn -0.1452 0.9885 -0.0427
vn -0.7104 0.4608 -0.5319
vn -0.1085 0.9917 -0.0687
vn -0.6761 0.4633 -0.5728
vn -0.7455 0.0000 -0.6665
vn -0.8010 0.0000 -0.5987
vn -0.7880 0.0547 -0.6133
vn -0.8265 0.0680 -0.5587
vn -0.8146 0.0701 -0.5758
vn -0.9210 0.0424 -0.3873
vn -0.8365 0.5375 -0.1071
vn -0.1694 0.9456 -0.2779
vn -0.9796 -0.0398 -0.1971
vn -0.9792 -0.1688 -0.1129
vn -0.9894 -0.0564 -0.1335
vn -0.7653 0.3203 -0.5584
vn -0.7536 0.4641 -0.4655
vn -0.1386 0.4625 -0.8757
vn 0.0709 0.5170 -0.8531
vn 0.0299 0.0829 -0.9961
vn -0.0084 0.0236 -0.9997
vn -0.7511 0.0685 -0.6566
vn -0.9982 0.0591 0.0091
vn -0.9975 0.0582 0.0389
vn 0.3759 0.1198 -0.9189
vn 0.1789 0.5328 -0.8271
vn 0.3319 0.4989 -0.8006
vn 0.1905 0.1273 -0.9734
vn -0.0035 0.5275 -0.8495
vn -0.0066 0.1253 -0.9921
vn -0.0032 0.5246 -0.8513
vn -0.0066 0.1209 -0.9926
vn -0.0032 0.5215 -0.8532
vn -0.0066 0.1166 -0.9931
vn -0.0062 0.9467 -0.3218
vn 0.0224 0.9608 0.2763
vn -0.0016 0.9799 0.1991
vn -0.0054 0.9745 0.2242
vn -0.0021 0.9493 -0.3142
vn 0.0792 0.9612 -0.2640
vn -0.0997 0.9950 -0.0040
vn 0.0617 0.9786 0.1963
vn -0.0279 0.9648 0.2615
vn 0.0058 0.9792 -0.2029
vn 0.0063 0.9829 -0.1838
vn -0.0077 0.9962 -0.0869
vn 0.0039 0.9779 0.2087
vn 0.1584 0.9228 0.3511
vn 0.1085 0.9939 -0.0172
vn -0.0068 0.9852 -0.1714
vn -0.0170 0.9940 -0.1080
vn 0.1171 0.9844 0.1313
vn 0.1886 0.9670 0.1712
vn -0.0101 0.9924 0.1222
vn -0.0100 0.9655 -0.2600
vn -0.0483 0.9725 -0.2279
vn -0.0894 0.9876 -0.1291
vn -0.1910 0.8887 -0.4167
vn -0.1750 0.5477 -0.8181
vn -0.0053 0.5206 -0.8537
vn -0.0010 0.1216 -0.9926
vn -0.1785 0.1243 -0.9760
vn -0.3515 0.1183 -0.9286
vn -0.0000 0.9958 -0.0910
vn -0.3447 0.9387 0.0009
vn -0.2914 0.9533 -0.0792
vn 0.0030 0.9997 -0.0224
vn 0.0000 1.0000 0.0000
vn -0.0024 0.9974 0.0718
vn -0.2953 0.9524 0.0753
vn -0.0072 0.9939 0.1102
vn -0.0091 0.9921 0.1247
vn -0.8760 0.4566 0.1552
vn -0.9143 0.4050 0.0000
vn -0.8760 0.4546 -0.1608
vn -0.5013 0.8576 0.1146
vn -0.5042 0.8549 0.1222
vn -0.8245 0.4704 0.3146
vn -0.9095 0.0601 0.4112
vn -0.9755 0.0318 0.2175
vn -1.0000 0.0000 0.0000
vn -0.9758 0.0276 -0.2167
vn -0.9095 0.0525 -0.4122
vn -0.8245 0.4647 -0.3229
vn -0.5013 0.8555 -0.1297
vn -0.5042 0.8526 -0.1373
vn 0.8239 0.4536 -0.3396
vn 0.2382 0.9594 -0.1511
vn 0.8774 0.4496 -0.1674
vn 0.8980 0.0604 -0.4357
vn 0.9703 0.0299 -0.2401
vn 0.8999 0.4354 0.0226
vn 0.9129 0.4081 -0.0026
vn 0.3182 0.9415 -0.1105
vn 0.3517 0.9288 0.1169
vn 0.3889 0.9196 0.0540
vn 0.0742 0.9525 -0.2954
vn 0.0217 0.9637 0.2661
vn 0.0503 0.9834 0.1741
vn -0.0023 0.9446 -0.3281
vn -0.1755 0.5623 0.8081
vn -0.0505 0.9761 0.2112
vn -0.1910 0.8960 0.4009
vn -0.0894 0.9897 0.1116
vn -0.3515 0.1354 0.9263
vn -0.1785 0.1423 0.9736
vn -0.0015 0.1394 0.9902
vn -0.0066 0.5096 0.8603
vn -0.0128 0.9601 0.2793
vn -0.0131 0.9889 -0.1481
vn -0.0107 0.9868 -0.1616
vn 0.2827 0.9241 0.2569
vn 0.4570 0.8841 -0.0972
vn 0.0890 0.9297 0.3575
vn 0.8762 0.4379 0.2010
vn 0.8239 0.4596 0.3316
vn 0.8980 0.0681 0.4346
vn 0.9080 0.4140 -0.0636
vn 0.3353 0.5110 0.7914
vn 0.1776 0.5454 0.8191
vn -0.0016 0.8768 0.4808
vn -0.0030 0.5413 0.8408
vn 0.3759 0.1361 0.9166
vn 0.1909 0.1439 0.9710
vn 0.0302 -0.0625 0.9976
vn 0.4464 0.8049 0.3911
vn 0.1309 -0.0317 0.9909
vn 0.0696 0.8409 0.5366
vn 0.1045 -0.6601 0.7438
vn 0.0242 -0.6118 0.7906
vn 0.1684 -0.6497 0.7412
vn 0.2290 -0.0635 0.9713
vn 0.9775 -0.0029 -0.2107
vn 0.9537 -0.1973 -0.2269
vn 0.7832 -0.6012 -0.1584
vn 0.8036 -0.5693 -0.1738
vn 0.0087 -0.9988 0.0475
vn -0.0003 -1.0000 -0.0017
vn 0.0090 -0.9986 0.0512
vn 0.0000 -1.0000 0.0000
vn -0.0052 -0.9984 -0.0556
vn -0.0119 -0.9976 -0.0678
vn -0.0065 -0.9971 -0.0758
vn 0.0042 -0.9979 -0.0651
vn -0.0022 -0.9985 -0.0538
vn -0.0081 -0.9989 -0.0461
vn 0.0003 -1.0000 0.0018
vn 0.0089 -0.9987 0.0506
vn 0.0049 -0.9987 0.0498
vn 0.0081 -0.9991 0.0420
vn 0.0140 -0.9987 0.0485
vn 0.0000 0.0000 1.0000
vn 0.0000 -0.2106 0.9776
vn 0.0000 -0.7036 0.7106
vn 0.0000 -0.9072 0.4206
vn 1.0000 0.0000 0.0000
vn 0.0000 -0.2106 -0.9776
vn 0.0000 0.0000 -1.0000
vn 0.0000 -0.7036 -0.7106
vn 0.0000 -0.9072 -0.4206
vn 0.0000 0.9572 0.2893
vn 0.0000 0.9892 0.1462
vn 0.0000 0.9892 -0.1462
vn 0.0000 0.9572 -0.2893
vn 0.0000 0.4843 -0.8749
vn 0.0000 0.6583 -0.7528
vn 0.0000 0.1458 -0.9893
vn 0.0000 0.6583 0.7528
vn 0.0000 0.4843 0.8749
vn 0.0000 0.1458 0.9893
usemtl Furniture_01_Bedding_Bed01_Mattress_CZER_ND_Mat
s 1
f 722/1/1 723/2/2 724/3/1
f 725/4/3 726/5/4 727/6/5
f 725/4/3 728/7/6 726/5/4
f 728/7/6 723/2/2 726/5/4
f 723/2/2 728/7/6 724/3/1
f 728/7/6 729/8/1 724/3/1
f 727/6/5 730/9/7 731/10/7
f 727/6/5 731/10/7 732/11/8
f 732/11/8 725/4/3 727/6/5
f 725/4/3 732/11/8 733/12/9
f 733/12/9 734/13/10 725/4/3
f 728/7/6 725/4/3 734/13/10
f 728/7/6 734/13/10 735/14/1
f 728/7/6 735/14/1 736/15/11
f 737/16/1 728/7/6 736/15/11
f 729/8/1 728/7/6 737/16/1
f 737/16/1 738/17/1 729/8/1
f 738/17/1 739/18/11 729/8/1
f 740/19/7 732/11/8 731/10/7
f 741/20/1 742/21/1 734/13/10
f 734/13/10 742/21/1 743/22/1
f 734/13/10 743/22/1 735/14/1
f 744/23/7 745/24/7 740/19/7
f 740/19/7 745/24/7 746/25/7
f 740/19/7 746/25/7 732/11/8
f 746/25/7 747/26/7 732/11/8
f 747/26/7 748/27/7 732/11/8
f 732/11/8 748/27/7 749/28/12
f 748/27/7 750/29/7 749/28/12
f 750/29/7 751/30/7 749/28/12
f 749/28/12 751/30/7 752/31/7
f 749/28/12 733/12/9 732/11/8
f 753/32/13 754/33/14 755/34/15
f 756/35/16 755/34/15 757/36/17
f 755/34/15 758/37/18 757/36/17
f 754/33/14 758/37/18 755/34/15
f 759/38/19 758/37/18 754/33/14
f 760/39/20 759/38/19 754/33/14
f 761/40/21 762/41/22 757/36/17
f 761/40/21 757/36/17 759/38/19
f 758/37/18 759/38/19 757/36/17
f 756/35/16 763/42/23 764/43/24
f 765/44/25 756/35/16 764/43/24
f 766/45/26 756/35/16 765/44/25
f 766/45/26 765/44/25 767/46/27
f 767/46/27 765/44/25 768/47/28
f 769/48/29 770/49/30 761/40/21
f 761/40/21 770/49/30 771/50/31
f 771/50/31 762/41/22 761/40/21
f 762/41/22 771/50/31 772/51/32
f 771/50/31 773/52/33 772/51/32
f 773/52/33 774/53/34 772/51/32
f 774/53/34 775/54/35 772/51/32
f 776/55/36 769/48/29 777/56/37
f 778/57/38 777/56/37 769/48/29
f 778/57/38 769/48/29 761/40/21
f 779/58/39 780/59/40 774/53/34
f 774/53/34 780/59/40 775/54/35
f 775/54/35 780/59/40 781/60/41
f 782/61/42 775/54/35 781/60/41
f 772/51/32 775/54/35 782/61/42
f 783/62/43 772/51/32 782/61/42
f 762/41/22 772/51/32 783/62/43
f 763/42/23 762/41/22 783/62/43
f 757/36/17 762/41/22 763/42/23
f 756/35/16 757/36/17 763/42/23
f 763/42/23 783/62/43 784/63/44
f 783/62/43 785/64/45 784/63/44
f 786/65/46 785/64/45 783/62/43
f 786/65/46 787/66/47 785/64/45
f 787/66/47 788/67/48 785/64/45
f 789/68/49 764/43/24 763/42/23
f 764/43/24 789/68/49 790/69/50
f 791/70/51 764/43/24 790/69/50
f 791/70/51 790/69/50 792/71/52
f 790/69/50 793/72/53 792/71/52
f 790/69/50 794/73/54 793/72/53
f 795/74/55 794/73/54 790/69/50
f 795/74/55 790/69/50 784/63/44
f 789/68/49 784/63/44 790/69/50
f 789/68/49 763/42/23 784/63/44
f 796/75/56 797/76/57 798/77/58
f 799/78/59 800/79/60 798/77/58
f 799/78/59 798/77/58 801/80/61
f 798/77/58 797/76/57 801/80/61
f 797/76/57 802/81/62 801/80/61
f 797/76/57 796/75/56 802/81/62
f 796/75/56 803/82/63 802/81/62
f 802/81/62 803/82/63 804/83/64
f 805/84/65 806/85/66 799/78/59
f 805/84/65 799/78/59 807/86/67
f 799/78/59 801/80/61 807/86/67
f 807/86/67 801/80/61 808/87/68
f 807/86/67 808/87/68 809/88/69
f 805/84/65 807/86/67 809/88/69
f 810/89/70 805/84/65 809/88/69
f 805/84/65 810/89/70 806/85/66
f 806/85/66 810/89/70 811/90/71
f 811/90/71 812/91/72 806/85/66
f 813/92/73 806/85/66 812/91/72
f 800/79/60 806/85/66 813/92/73
f 800/79/60 799/78/59 806/85/66
f 812/91/72 811/90/71 814/93/74
f 812/91/72 814/93/74 815/94/75
f 812/91/72 815/94/75 813/92/73
f 816/95/76 813/92/73 815/94/75
f 813/92/73 816/95/76 817/96/77
f 817/96/77 800/79/60 813/92/73
f 800/79/60 817/96/77 818/97/78
f 818/97/78 798/77/58 800/79/60
f 798/77/58 818/97/78 819/98/79
f 819/98/79 796/75/56 798/77/58
f 817/96/77 820/99/80 821/100/81
f 821/100/81 818/97/78 817/96/77
f 818/97/78 821/100/81 822/101/82
f 822/101/82 819/98/79 818/97/78
f 822/101/82 823/102/83 819/98/79
f 823/102/83 824/103/84 819/98/79
f 824/103/84 823/102/83 825/104/85
f 825/104/85 826/105/86 824/103/84
f 825/104/85 827/106/87 826/105/86
f 827/106/87 828/107/88 826/105/86
f 829/108/89 825/104/85 823/102/83
f 830/109/90 820/99/80 831/110/91
f 832/111/92 833/112/93 831/110/91
f 833/112/93 834/113/94 831/110/91
f 831/110/91 834/113/94 830/109/90
f 834/113/94 835/114/95 830/109/90
f 836/115/96 837/116/97 838/117/98
f 839/118/99 836/115/96 838/117/98
f 839/118/99 838/117/98 840/119/100
f 841/120/101 839/118/99 840/119/100
f 840/119/100 832/111/92 841/120/101
f 841/120/101 832/111/92 842/121/102
f 842/121/102 832/111/92 831/110/91
f 831/110/91 816/95/76 842/121/102
f 820/99/80 816/95/76 831/110/91
f 820/99/80 817/96/77 816/95/76
f 841/120/101 843/122/103 839/118/99
f 843/122/103 844/123/104 839/118/99
f 844/123/104 845/124/105 839/118/99
f 841/120/101 842/121/102 846/125/106
f 846/125/106 843/122/103 841/120/101
f 846/125/106 847/126/107 843/122/103
f 847/126/107 848/127/108 843/122/103
f 848/127/108 849/128/109 843/122/103
f 850/129/110 847/126/107 851/130/110
f 851/130/110 847/126/107 852/131/111
f 853/132/112 852/131/111 854/133/112
f 854/133/112 852/131/111 855/134/113
f 856/135/114 857/136/115 858/137/116
f 857/136/115 855/134/113 858/137/116
f 859/138/117 858/137/116 855/134/113
f 860/139/118 859/138/117 855/134/113
f 855/134/113 852/131/111 860/139/118
f 861/140/119 860/139/118 852/131/111
f 861/140/119 852/131/111 847/126/107
f 814/93/74 861/140/119 847/126/107
f 814/93/74 847/126/107 846/125/106
f 815/94/75 814/93/74 846/125/106
f 842/121/102 815/94/75 846/125/106
f 816/95/76 815/94/75 842/121/102
f 862/141/120 863/142/120 864/143/121
f 863/142/120 858/137/116 864/143/121
f 865/144/122 864/143/121 858/137/116
f 859/138/117 865/144/122 858/137/116
f 809/88/69 865/144/122 859/138/117
f 859/138/117 860/139/118 809/88/69
f 810/89/70 809/88/69 860/139/118
f 860/139/118 861/140/119 810/89/70
f 811/90/71 810/89/70 861/140/119
f 811/90/71 861/140/119 814/93/74
f 866/145/123 867/146/124 868/147/125
f 867/146/124 866/145/123 869/148/126
f 869/148/126 866/145/123 870/149/127
f 869/148/126 870/149/127 871/150/128
f 871/150/128 870/149/127 872/151/129
f 872/151/129 865/144/122 871/150/128
f 864/143/121 865/144/122 872/151/129
f 872/151/129 873/152/130 864/143/121
f 873/152/130 874/153/130 864/143/121
f 875/154/131 872/151/129 876/155/132
f 876/155/132 872/151/129 870/149/127
f 877/156/133 870/149/127 878/157/133
f 878/157/133 870/149/127 866/145/123
f 879/158/134 866/145/123 880/159/135
f 880/159/135 866/145/123 868/147/125
f 868/147/125 881/160/136 880/159/135
f 882/161/137 881/160/136 868/147/125
f 883/162/138 880/159/135 881/160/136
f 884/163/139 885/164/140 886/165/141
f 887/166/142 886/165/141 885/164/140
f 888/167/143 886/165/141 887/166/142
f 882/161/137 888/167/143 887/166/142
f 888/167/143 882/161/137 889/168/144
f 889/168/144 890/169/145 888/167/143
f 890/169/145 891/170/146 888/167/143
f 891/170/146 892/171/147 888/167/143
f 892/171/147 886/165/141 888/167/143
f 892/171/147 893/172/148 886/165/141
f 893/172/148 894/173/149 886/165/141
f 895/174/150 896/175/151 897/176/152
f 898/177/153 896/175/151 895/174/150
f 896/175/151 898/177/153 899/178/154
f 898/177/153 900/179/155 899/178/154
f 899/178/154 900/179/155 901/180/156
f 902/181/157 901/180/156 900/179/155
f 901/180/156 902/181/157 903/182/158
f 902/181/157 904/183/159 903/182/158
f 904/183/159 889/168/144 903/182/158
f 890/169/145 889/168/144 904/183/159
f 901/180/156 903/182/158 905/184/160
f 906/185/161 907/186/162 908/187/163
f 907/186/162 905/184/160 908/187/163
f 905/184/160 909/188/164 908/187/163
f 905/184/160 903/182/158 909/188/164
f 903/182/158 889/168/144 909/188/164
f 909/188/164 889/168/144 910/189/165
f 910/189/165 889/168/144 882/161/137
f 910/189/165 882/161/137 911/190/166
f 911/190/166 882/161/137 868/147/125
f 867/146/124 911/190/166 868/147/125
f 911/190/166 867/146/124 912/191/167
f 912/191/167 910/189/165 911/190/166
f 912/191/167 908/187/163 910/189/165
f 908/187/163 909/188/164 910/189/165
f 913/192/168 908/187/163 912/191/167
f 913/192/168 906/185/161 908/187/163
f 914/193/169 906/185/161 913/192/168
f 914/193/169 915/194/170 906/185/161
f 804/83/64 915/194/170 914/193/169
f 916/195/171 804/83/64 914/193/169
f 916/195/171 802/81/62 804/83/64
f 917/196/172 802/81/62 916/195/171
f 802/81/62 917/196/172 801/80/61
f 801/80/61 917/196/172 808/87/68
f 917/196/172 916/195/171 808/87/68
f 918/197/173 919/198/174 913/192/168
f 920/199/175 913/192/168 919/198/174
f 920/199/175 914/193/169 913/192/168
f 916/195/171 914/193/169 920/199/175
f 921/200/176 916/195/171 920/199/175
f 921/200/176 808/87/68 916/195/171
f 922/201/177 808/87/68 921/200/176
f 923/202/178 808/87/68 922/201/177
f 922/201/177 921/200/176 919/198/174
f 921/200/176 920/199/175 919/198/174
f 808/87/68 923/202/178 809/88/69
f 923/202/178 865/144/122 809/88/69
f 871/150/128 865/144/122 923/202/178
f 922/201/177 871/150/128 923/202/178
f 922/201/177 869/148/126 871/150/128
f 919/198/174 869/148/126 922/201/177
f 919/198/174 867/146/124 869/148/126
f 918/197/173 867/146/124 919/198/174
f 918/197/173 912/191/167 867/146/124
f 918/197/173 913/192/168 912/191/167
f 924/203/179 925/204/180 926/205/181
f 927/206/182 926/205/181 928/207/183
f 929/208/184 928/207/183 926/205/181
f 925/204/180 929/208/184 926/205/181
f 930/209/185 929/208/184 925/204/180
f 930/209/185 931/210/186 929/208/184
f 931/210/186 932/211/187 929/208/184
f 932/211/187 933/212/188 929/208/184
f 933/212/188 934/213/188 929/208/184
f 935/214/189 936/215/190 937/216/191
f 938/217/192 936/215/190 935/214/189
f 938/217/192 939/218/193 936/215/190
f 936/215/190 939/218/193 940/219/194
f 940/219/194 941/220/195 936/215/190
f 942/221/196 941/220/195 940/219/194
f 942/221/196 943/222/197 941/220/195
f 943/222/197 924/203/179 941/220/195
f 941/220/195 924/203/179 926/205/181
f 927/206/182 941/220/195 926/205/181
f 944/223/198 937/216/191 936/215/190
f 945/224/199 944/223/198 936/215/190
f 945/224/199 936/215/190 946/225/200
f 936/215/190 941/220/195 946/225/200
f 947/226/201 948/227/202 944/223/198
f 949/228/203 947/226/201 944/223/198
f 950/229/204 949/228/203 944/223/198
f 951/230/205 950/229/204 944/223/198
f 951/230/205 944/223/198 945/224/199
f 952/231/206 951/230/205 945/224/199
f 952/231/206 945/224/199 953/232/207
f 953/232/207 945/224/199 946/225/200
f 953/232/207 946/225/200 954/233/208
f 954/233/208 946/225/200 955/234/209
f 955/234/209 946/225/200 956/235/210
f 957/236/211 956/235/210 946/225/200
f 958/237/212 959/238/213 960/239/214
f 961/240/215 958/237/212 960/239/214
f 962/241/216 961/240/215 960/239/214
f 962/241/216 960/239/214 963/242/217
f 962/241/216 963/242/217 964/243/218
f 825/104/85 962/241/216 964/243/218
f 827/106/87 825/104/85 964/243/218
f 827/106/87 964/243/218 828/107/88
f 828/107/88 964/243/218 965/244/219
f 964/243/218 963/242/217 965/244/219
f 965/244/219 963/242/217 966/245/220
f 963/242/217 960/239/214 966/245/220
f 966/245/220 960/239/214 967/246/221
f 959/238/213 967/246/221 960/239/214
f 959/238/213 968/247/222 967/246/221
f 968/247/222 959/238/213 897/176/152
f 896/175/151 968/247/222 897/176/152
f 969/248/223 970/249/224 907/186/162
f 907/186/162 970/249/224 905/184/160
f 970/249/224 971/250/225 905/184/160
f 971/250/225 901/180/156 905/184/160
f 899/178/154 901/180/156 971/250/225
f 899/178/154 971/250/225 896/175/151
f 968/247/222 896/175/151 971/250/225
f 968/247/222 971/250/225 970/249/224
f 967/246/221 968/247/222 970/249/224
f 967/246/221 970/249/224 969/248/223
f 966/245/220 967/246/221 969/248/223
f 965/244/219 966/245/220 969/248/223
f 819/98/79 824/103/84 796/75/56
f 796/75/56 824/103/84 803/82/63
f 826/105/86 803/82/63 824/103/84
f 803/82/63 826/105/86 828/107/88
f 804/83/64 803/82/63 828/107/88
f 828/107/88 965/244/219 804/83/64
f 965/244/219 915/194/170 804/83/64
f 915/194/170 965/244/219 969/248/223
f 915/194/170 969/248/223 906/185/161
f 906/185/161 969/248/223 907/186/162
f 972/251/226 973/252/227 974/253/228
f 973/252/227 975/254/229 974/253/228
f 975/254/229 973/252/227 937/216/191
f 976/255/230 972/251/226 977/256/230
f 978/257/231 972/251/226 976/255/230
f 978/257/231 979/258/232 972/251/226
f 979/258/232 980/259/233 972/251/226
f 980/259/233 981/260/234 972/251/226
f 981/260/234 973/252/227 972/251/226
f 981/260/234 982/261/235 973/252/227
f 937/216/191 973/252/227 982/261/235
f 982/261/235 983/262/236 937/216/191
f 983/262/236 935/214/189 937/216/191
f 984/263/237 985/264/238 986/265/239
f 985/264/238 984/263/237 987/266/240
f 988/267/241 987/266/240 984/263/237
f 989/268/242 987/266/240 988/267/241
f 829/108/89 987/266/240 989/268/242
f 829/108/89 990/269/243 987/266/240
f 829/108/89 823/102/83 990/269/243
f 990/269/243 823/102/83 822/101/82
f 990/269/243 822/101/82 987/266/240
f 985/264/238 987/266/240 822/101/82
f 985/264/238 822/101/82 821/100/81
f 991/270/244 984/263/237 992/271/245
f 984/263/237 986/265/239 992/271/245
f 992/271/245 986/265/239 993/272/246
f 994/273/247 992/271/245 993/272/246
f 995/274/248 991/270/244 992/271/245
f 996/275/249 995/274/248 992/271/245
f 992/271/245 994/273/247 996/275/249
f 835/114/95 996/275/249 994/273/247
f 830/109/90 835/114/95 994/273/247
f 994/273/247 993/272/246 830/109/90
f 993/272/246 820/99/80 830/109/90
f 993/272/246 821/100/81 820/99/80
f 986/265/239 821/100/81 993/272/246
f 985/264/238 821/100/81 986/265/239
f 997/276/250 998/277/251 999/278/252
f 1000/279/253 999/278/252 998/277/251
f 997/276/250 1001/280/254 1002/281/255
f 999/278/252 1001/280/254 997/276/250
f 1003/282/256 1001/280/254 999/278/252
f 1004/283/257 1003/282/256 999/278/252
f 1004/283/257 999/278/252 770/49/30
f 999/278/252 1000/279/253 770/49/30
f 770/49/30 1000/279/253 771/50/31
f 1000/279/253 998/277/251 771/50/31
f 771/50/31 998/277/251 773/52/33
f 998/277/251 1005/284/258 773/52/33
f 1006/285/259 773/52/33 1005/284/258
f 1006/285/259 1005/284/258 1007/286/260
f 1005/284/258 1008/287/261 1007/286/260
f 1009/288/262 1010/289/263 1011/290/264
f 1012/291/265 1010/289/263 1009/288/262
f 1012/291/265 1013/292/266 1010/289/263
f 1013/292/266 1014/293/267 1010/289/263
f 1013/292/266 1015/294/268 1014/293/267
f 1016/295/269 1015/294/268 1013/292/266
f 1016/295/269 1013/292/266 1017/296/270
f 1017/296/270 1013/292/266 1018/297/271
f 1013/292/266 1012/291/265 1018/297/271
f 1018/297/271 1012/291/265 1019/298/272
f 1019/298/272 1012/291/265 1020/299/273
f 1009/288/262 1020/299/273 1012/291/265
f 1020/299/273 1009/288/262 1021/300/274
f 1009/288/262 1022/301/275 1021/300/274
f 1022/301/275 1009/288/262 1023/302/276
f 1009/288/262 1011/290/264 1023/302/276
usemtl Furniture_01_Bedding_Bed01_Frame_CZER_ND_Mat
f 1/303/206 2/304/206 3/305/206
f 4/306/206 3/305/206 5/307/206
f 6/308/206 3/305/206 4/306/206
f 4/306/206 7/309/206 6/308/206
f 7/309/206 8/310/206 6/308/206
f 9/311/206 7/309/206 10/312/206
f 11/313/206 10/312/206 7/309/206
f 12/314/206 13/315/206 14/316/206
f 13/315/206 15/317/206 14/316/206
f 15/317/206 13/315/206 16/318/206
f 13/315/206 5/307/206 16/318/206
f 17/319/277 18/320/277 19/321/278
f 20/322/278 17/319/277 19/321/278
f 20/322/278 19/321/278 21/323/279
f 22/324/279 20/322/278 21/323/279
f 21/323/279 23/325/280 22/324/279
f 23/325/280 24/326/280 22/324/279
f 25/327/281 26/328/281 27/329/281
f 28/330/281 25/327/281 27/329/281
f 28/330/281 27/329/281 29/331/281
f 29/331/281 27/329/281 30/332/281
f 25/327/281 31/333/281 32/334/281
f 32/334/281 31/333/281 33/335/281
f 34/336/206 35/337/206 36/338/206
f 37/339/281 38/340/281 39/341/281
f 40/342/281 37/339/281 39/341/281
f 40/342/281 39/341/281 41/343/281
f 41/343/281 39/341/281 42/344/281
f 43/345/281 41/343/281 42/344/281
f 44/346/206 45/347/206 46/348/206
f 47/349/206 44/346/206 46/348/206
f 48/350/206 44/346/206 47/349/206
f 48/350/206 47/349/206 49/351/206
f 50/352/206 48/350/206 49/351/206
f 51/353/277 52/354/277 53/355/278
f 54/356/278 51/353/277 53/355/278
f 54/356/278 53/355/278 55/357/279
f 56/358/279 54/356/278 55/357/279
f 55/357/279 57/359/280 56/358/279
f 57/359/280 58/360/280 56/358/279
f 59/361/282 60/362/283 61/363/283
f 62/364/282 59/361/282 61/363/283
f 59/361/282 62/364/282 63/365/284
f 64/366/284 59/361/282 63/365/284
f 64/366/284 63/365/284 65/367/285
f 66/368/285 64/366/284 65/367/285
f 67/369/286 68/370/286 69/371/287
f 70/372/287 67/369/286 69/371/287
f 70/372/287 69/371/287 71/373/288
f 72/374/288 70/372/287 71/373/288
f 72/374/288 71/373/288 73/375/289
f 74/376/289 72/374/288 73/375/289
f 75/377/206 76/378/206 77/379/206
f 78/380/206 75/377/206 77/379/206
f 79/381/206 75/377/206 78/380/206
f 79/381/206 78/380/206 80/382/206
f 81/383/206 79/381/206 80/382/206
f 82/384/206 83/385/206 76/378/206
f 84/386/206 76/378/206 83/385/206
f 85/387/265 86/388/265 87/389/265
f 86/388/265 88/390/265 87/389/265
f 89/391/265 90/392/265 91/393/265
f 90/392/265 92/394/265 91/393/265
f 93/395/265 94/396/265 95/397/265
f 94/396/265 96/398/265 95/397/265
f 97/399/290 98/400/291 99/401/291
f 100/402/290 97/399/290 99/401/291
f 97/399/290 100/402/290 101/403/292
f 100/402/290 102/404/292 101/403/292
f 101/403/292 102/404/292 103/405/283
f 102/404/292 104/406/283 103/405/283
f 105/407/281 106/408/281 107/409/281
f 106/408/281 108/410/281 107/409/281
f 109/411/206 110/412/206 111/413/206
f 110/412/206 112/414/206 111/413/206
f 113/415/283 114/416/283 115/417/283
f 114/416/283 116/418/283 115/417/283
f 117/419/265 118/420/265 119/421/265
f 118/420/265 120/422/265 119/421/265
f 121/423/277 122/424/277 123/425/277
f 122/424/277 124/426/277 123/425/277
f 125/427/193 126/428/193 127/429/193
f 126/428/193 128/430/193 127/429/193
f 129/431/281 130/432/281 131/433/281
f 130/432/281 132/434/281 131/433/281
f 133/435/206 134/436/206 135/437/206
f 134/436/206 136/438/206 135/437/206
f 137/439/283 138/440/283 139/441/283
f 138/440/283 140/442/283 139/441/283
f 141/443/265 142/444/265 143/445/265
f 142/444/265 144/446/265 143/445/265
f 145/447/277 146/448/277 147/449/277
f 146/448/277 148/450/277 147/449/277
f 149/451/193 150/452/193 151/453/193
f 150/452/193 152/454/193 151/453/193
f 153/455/281 154/456/281 155/457/281
f 154/456/281 156/458/281 155/457/281
f 157/459/206 158/460/206 159/461/206
f 158/460/206 160/462/206 159/461/206
f 161/463/283 162/464/283 163/465/283
f 162/464/283 164/466/283 163/465/283
f 165/467/265 166/468/265 167/469/265
f 166/468/265 168/470/265 167/469/265
f 169/471/277 170/472/277 171/473/277
f 170/472/277 172/474/277 171/473/277
f 173/475/193 174/476/193 175/477/193
f 174/476/193 176/478/193 175/477/193
f 177/479/281 178/480/281 179/481/281
f 178/480/281 180/482/281 179/481/281
f 181/483/206 182/484/206 183/485/206
f 182/484/206 184/486/206 183/485/206
f 185/487/283 186/488/283 187/489/283
f 186/488/283 188/490/283 187/489/283
f 189/491/265 190/492/265 191/493/265
f 190/492/265 192/494/265 191/493/265
f 193/495/277 194/496/277 195/497/277
f 194/496/277 196/498/277 195/497/277
f 197/499/193 198/500/193 199/501/193
f 198/500/193 200/502/193 199/501/193
f 201/503/283 202/504/283 203/505/283
f 202/504/283 204/506/283 203/505/283
f 205/507/277 206/508/277 207/509/277
f 206/508/277 208/510/277 207/509/277
f 209/511/281 210/512/281 211/513/281
f 210/512/281 212/514/281 211/513/281
f 213/515/265 214/516/265 215/517/265
f 214/516/265 216/518/265 215/517/265
f 217/519/206 218/520/206 219/521/206
f 218/520/206 220/522/206 219/521/206
f 221/523/193 222/524/193 223/525/193
f 222/524/193 224/526/193 223/525/193
f 225/527/277 226/528/277 227/529/277
f 226/528/277 228/530/277 227/529/277
f 229/531/283 230/532/283 231/533/283
f 230/532/283 232/534/283 231/533/283
f 233/535/265 234/536/265 235/537/265
f 234/536/265 236/538/265 235/537/265
f 237/539/206 238/540/206 239/541/206
f 238/540/206 240/542/206 239/541/206
f 241/543/193 242/544/193 243/545/193
f 242/544/193 244/546/193 243/545/193
f 245/547/281 246/548/281 247/549/281
f 246/548/281 248/550/281 247/549/281
f 249/551/277 250/552/277 251/553/277
f 250/552/277 252/554/277 251/553/277
f 253/555/283 254/556/283 255/557/283
f 254/556/283 256/558/283 255/557/283
f 257/559/265 258/560/265 259/561/265
f 258/560/265 260/562/265 259/561/265
f 261/563/206 262/564/206 263/565/206
f 262/564/206 264/566/206 263/565/206
f 265/567/193 266/568/193 267/569/193
f 266/568/193 268/570/193 267/569/193
f 269/571/281 270/572/281 271/573/281
f 270/572/281 272/574/281 271/573/281
f 273/575/277 274/576/277 275/577/277
f 274/576/277 276/578/277 275/577/277
f 277/579/283 278/580/283 279/581/283
f 278/580/283 280/582/283 279/581/283
f 281/583/265 282/584/265 283/585/265
f 282/584/265 284/586/265 283/585/265
f 285/587/206 286/588/206 287/589/206
f 286/588/206 288/590/206 287/589/206
f 289/591/193 290/592/193 291/593/193
f 290/592/193 292/594/193 291/593/193
f 293/595/281 294/596/281 295/597/281
f 294/596/281 296/598/281 295/597/281
f 297/599/277 298/600/277 299/601/277
f 298/600/277 300/602/277 299/601/277
f 301/603/283 302/604/283 303/605/283
f 302/604/283 304/606/283 303/605/283
f 305/607/265 306/608/265 307/609/265
f 306/608/265 308/610/265 307/609/265
f 309/611/206 310/612/206 311/613/206
f 310/612/206 312/614/206 311/613/206
f 313/615/193 314/616/193 315/617/193
f 314/616/193 316/618/193 315/617/193
f 317/619/281 318/620/281 319/621/281
f 318/620/281 320/622/281 319/621/281
f 321/623/277 322/624/277 323/625/277
f 322/624/277 324/626/277 323/625/277
f 325/627/283 326/628/283 327/629/283
f 326/628/283 328/630/283 327/629/283
f 329/631/265 330/632/265 331/633/265
f 330/632/265 332/634/265 331/633/265
f 333/635/206 334/636/206 335/637/206
f 334/636/206 336/638/206 335/637/206
f 337/639/193 338/640/193 339/641/193
f 338/640/193 340/642/193 339/641/193
f 341/643/281 342/644/281 343/645/281
f 342/644/281 344/646/281 343/645/281
f 345/647/277 346/648/277 347/649/277
f 346/648/277 348/650/277 347/649/277
f 349/651/283 350/652/283 351/653/283
f 350/652/283 352/654/283 351/653/283
f 353/655/265 354/656/265 355/657/265
f 354/656/265 356/658/265 355/657/265
f 357/659/206 358/660/206 359/661/206
f 358/660/206 360/662/206 359/661/206
f 361/663/193 362/664/193 363/665/193
f 362/664/193 364/666/193 363/665/193
f 365/667/281 366/668/281 367/669/281
f 366/668/281 368/670/281 367/669/281
f 369/671/277 370/672/277 371/673/277
f 370/672/277 372/674/277 371/673/277
f 373/675/283 374/676/283 375/677/283
f 374/676/283 376/678/283 375/677/283
f 377/679/265 378/680/265 379/681/265
f 378/680/265 380/682/265 379/681/265
f 381/683/206 382/684/206 383/685/206
f 382/684/206 384/686/206 383/685/206
f 385/687/193 386/688/193 387/689/193
f 386/688/193 388/690/193 387/689/193
f 389/691/281 390/692/281 391/693/281
f 390/692/281 392/694/281 391/693/281
f 393/695/277 394/696/277 395/697/277
f 394/696/277 396/698/277 395/697/277
f 397/699/283 398/700/283 399/701/283
f 398/700/283 400/702/283 399/701/283
f 401/703/265 402/704/265 403/705/265
f 402/704/265 404/706/265 403/705/265
f 405/707/206 406/708/206 407/709/206
f 406/708/206 408/710/206 407/709/206
f 409/711/193 410/712/193 411/713/193
f 410/712/193 412/714/193 411/713/193
f 413/715/281 414/716/281 415/717/281
f 414/716/281 416/718/281 415/717/281
f 417/719/277 418/720/277 419/721/277
f 418/720/277 420/722/277 419/721/277
f 421/723/283 422/724/283 423/725/283
f 422/724/283 424/726/283 423/725/283
f 425/727/265 426/728/265 427/729/265
f 426/728/265 428/730/265 427/729/265
f 429/731/206 430/732/206 431/733/206
f 430/732/206 432/734/206 431/733/206
f 433/735/193 434/736/193 435/737/193
f 434/736/193 436/738/193 435/737/193
f 437/739/281 438/740/281 439/741/281
f 438/740/281 440/742/281 439/741/281
f 441/743/277 442/744/277 443/745/277
f 442/744/277 444/746/277 443/745/277
f 445/747/283 446/748/283 447/749/283
f 446/748/283 448/750/283 447/749/283
f 449/751/265 450/752/265 451/753/265
f 450/752/265 452/754/265 451/753/265
f 453/755/206 454/756/206 455/757/206
f 454/756/206 456/758/206 455/757/206
f 457/759/193 458/760/193 459/761/193
f 458/760/193 460/762/193 459/761/193
f 461/763/281 462/764/281 463/765/281
f 462/764/281 464/766/281 463/765/281
f 465/767/277 466/768/277 467/769/277
f 466/768/277 468/770/277 467/769/277
f 469/771/283 470/772/283 471/773/283
f 470/772/283 472/774/283 471/773/283
f 473/775/281 474/776/281 475/777/281
f 474/776/281 476/778/281 475/777/281
f 477/779/265 478/780/265 479/781/265
f 478/780/265 480/782/265 479/781/265
f 481/783/206 482/784/206 483/785/206
f 482/784/206 484/786/206 483/785/206
f 485/787/193 486/788/193 487/789/193
f 486/788/193 488/790/193 487/789/193
f 489/791/277 490/792/277 491/793/277
f 490/792/277 492/794/277 491/793/277
f 493/795/283 494/796/283 495/797/283
f 494/796/283 496/798/283 495/797/283
f 497/799/281 498/800/281 499/801/281
f 498/800/281 500/802/281 499/801/281
f 501/803/265 502/804/265 503/805/265
f 502/804/265 504/806/265 503/805/265
f 505/807/206 506/808/206 507/809/206
f 506/808/206 508/810/206 507/809/206
f 509/811/193 510/812/193 511/813/193
f 510/812/193 512/814/193 511/813/193
f 513/815/277 514/816/277 515/817/277
f 514/816/277 516/818/277 515/817/277
f 517/819/283 518/820/283 519/821/283
f 518/820/283 520/822/283 519/821/283
f 521/823/281 522/824/281 523/825/281
f 522/824/281 524/826/281 523/825/281
f 525/827/265 526/828/265 527/829/265
f 526/828/265 528/830/265 527/829/265
f 529/831/206 530/832/206 531/833/206
f 530/832/206 532/834/206 531/833/206
f 533/835/193 534/836/193 535/837/193
f 534/836/193 536/838/193 535/837/193
f 537/839/277 538/840/277 539/841/277
f 538/840/277 540/842/277 539/841/277
f 541/843/283 542/844/283 543/845/283
f 542/844/283 544/846/283 543/845/283
f 545/847/281 546/848/281 547/849/281
f 546/848/281 548/850/281 547/849/281
f 549/851/265 550/852/265 551/853/265
f 550/852/265 552/854/265 551/853/265
f 553/855/206 554/856/206 555/857/206
f 554/856/206 556/858/206 555/857/206
f 557/859/193 558/860/193 559/861/193
f 558/860/193 560/862/193 559/861/193
f 561/863/277 562/864/277 563/865/277
f 562/864/277 564/866/277 563/865/277
f 565/867/283 566/868/283 567/869/283
f 566/868/283 568/870/283 567/869/283
f 569/871/281 570/872/281 571/873/281
f 570/872/281 572/874/281 571/873/281
f 573/875/265 574/876/265 575/877/265
f 574/876/265 576/878/265 575/877/265
f 577/879/206 578/880/206 579/881/206
f 578/880/206 580/882/206 579/881/206
f 581/883/193 582/884/193 583/885/193
f 582/884/193 584/886/193 583/885/193
f 585/887/277 586/888/277 587/889/277
f 586/888/277 588/890/277 587/889/277
f 589/891/283 590/892/283 591/893/283
f 590/892/283 592/894/283 591/893/283
f 593/895/281 594/896/281 595/897/281
f 594/896/281 596/898/281 595/897/281
f 597/899/265 598/900/265 599/901/265
f 598/900/265 600/902/265 599/901/265
f 601/903/206 602/904/206 603/905/206
f 602/904/206 604/906/206 603/905/206
f 605/907/193 606/908/193 607/909/193
f 606/908/193 608/910/193 607/909/193
f 609/911/206 610/912/206 611/913/206
f 610/912/206 612/914/206 611/913/206
f 613/915/281 614/916/281 615/917/281
f 614/916/281 616/918/281 615/917/281
f 617/919/277 618/920/277 619/921/277
f 618/920/277 620/922/277 619/921/277
f 621/923/265 622/924/265 623/925/265
f 622/924/265 624/926/265 623/925/265
f 625/927/283 626/928/283 627/929/283
f 626/928/283 628/930/283 627/929/283
f 629/931/193 630/932/193 631/933/193
f 630/932/193 632/934/193 631/933/193
f 633/935/265 634/936/265 635/937/265
f 634/936/265 636/938/265 635/937/265
f 637/939/206 638/940/206 639/941/206
f 638/940/206 640/942/206 639/941/206
f 639/941/206 641/943/206 642/944/206
f 642/944/206 641/943/206 643/945/206
f 644/946/206 645/947/206 646/948/206
f 645/947/206 647/949/206 646/948/206
f 647/949/206 645/947/206 648/950/206
f 645/947/206 643/945/206 648/950/206
f 649/951/281 650/952/281 651/953/281
f 650/952/281 652/954/281 651/953/281
f 653/955/281 651/953/281 652/954/281
f 653/955/281 652/954/281 654/956/281
f 652/954/281 655/957/281 654/956/281
f 656/958/265 657/959/265 658/960/265
f 657/959/265 659/961/265 658/960/265
f 660/962/265 661/963/265 662/964/265
f 661/963/265 663/965/265 662/964/265
f 664/966/290 665/967/291 666/968/291
f 667/969/290 664/966/290 666/968/291
f 664/966/290 667/969/290 668/970/292
f 667/969/290 669/971/292 668/970/292
f 668/970/292 669/971/292 670/972/283
f 669/971/292 671/973/283 670/972/283
f 672/974/293 673/975/293 674/976/294
f 673/975/293 675/977/294 674/976/294
f 676/978/295 674/976/294 675/977/294
f 677/979/295 676/978/295 675/977/294
f 678/980/277 676/978/295 677/979/295
f 679/981/277 678/980/277 677/979/295
f 680/982/282 681/983/283 682/984/283
f 683/985/282 680/982/282 682/984/283
f 680/982/282 683/985/282 684/986/284
f 685/987/284 680/982/282 684/986/284
f 685/987/284 684/986/284 686/988/285
f 687/989/285 685/987/284 686/988/285
f 688/990/281 689/991/281 690/992/281
f 691/993/281 688/990/281 690/992/281
f 691/993/281 692/994/281 688/990/281
f 693/995/281 688/990/281 692/994/281
f 694/996/281 693/995/281 692/994/281
f 694/996/281 695/997/281 693/995/281
f 696/998/281 695/997/281 694/996/281
f 696/998/281 697/999/281 695/997/281
f 697/999/281 698/1000/281 695/997/281
f 697/999/281 699/1001/281 698/1000/281
f 698/1000/281 699/1001/281 700/1002/281
f 699/1001/281 701/1003/281 700/1002/281
f 701/1003/281 702/1004/281 700/1002/281
f 703/1005/281 702/1004/281 701/1003/281
f 703/1005/281 704/1006/281 702/1004/281
f 704/1006/281 705/1007/281 702/1004/281
f 706/1008/289 707/1009/288 708/1010/289
f 707/1009/288 709/1011/288 708/1010/289
f 707/1009/288 710/1012/287 709/1011/288
f 710/1012/287 711/1013/287 709/1011/288
f 710/1012/287 712/1014/286 711/1013/287
f 712/1014/286 713/1015/286 711/1013/287
f 714/1016/277 715/1017/277 716/1018/295
f 715/1017/277 717/1019/295 716/1018/295
f 716/1018/295 717/1019/295 718/1020/294
f 717/1019/295 719/1021/294 718/1020/294
f 720/1022/293 718/1020/294 719/1021/294
f 721/1023/293 720/1022/293 719/1021/294