# File created by Luuv tsx 1.1.4
# Created on: Tue Apr 13 18:55:04 2010 -1
# Vertices: 200
# Texture vertices: 340
# Normals: 200
# Faces: 214

mtllib bigsilo.mtl
v 2.642794 -3.087498 0.187500
v 2.455293 -3.087498 0.000000
v 2.775376 -3.087498 0.132583
v 2.510211 -3.087498 0.132583
v 2.510211 -3.087498 -0.132582
v 2.642794 -3.087498 -0.187500
v 2.830294 -3.087498 0.000000
v 2.775376 -3.087498 -0.132582
v 2.237092 -2.837500 -0.976217
v 2.237092 -2.837498 0.976218
v 2.431273 -2.837498 0.000000
v 1.684108 -2.837498 1.803815
v 1.684109 -2.837500 -1.803815
v 0.856512 -2.837500 -2.356796
v 0.856511 -2.837498 2.356797
v -2.476504 -2.837500 0.976217
v -2.476504 -2.837500 -0.976218
v -2.670686 -2.837500 0.000000
v -1.923521 -2.837500 1.803815
v -1.923521 -2.837500 -1.803814
v -1.095924 -2.837500 -2.356797
v -1.095924 -2.837500 2.356798
v -0.119706 -2.837500 2.550978
v -0.118523 -2.837500 -2.550743
v 0.856512 -2.212500 -2.356797
v -0.119706 -2.212500 -2.550977
v 0.442794 4.162670 0.000000
v 0.442794 4.217587 0.132582
v 2.080293 4.217587 0.132583
v 0.442794 4.217587 -0.132583
v 2.080294 4.162670 0.000000
v 0.442794 4.350170 0.187500
v 2.080293 4.350170 0.187500
v 2.080294 4.217587 -0.132582
v 0.442794 4.350170 -0.187500
v 2.080294 4.350170 -0.187500
v 0.442794 4.482751 -0.132583
v 2.080294 4.482751 -0.132583
v 0.442794 4.537669 0.000000
v 2.080294 4.537669 0.000000
v 0.442794 4.482751 0.132582
v 2.080293 4.482751 0.132583
v -0.254886 3.662669 -0.135180
v -0.192865 3.662669 -0.176621
v -0.252289 3.787669 -0.132583
v -0.296327 3.662669 -0.073159
v -0.307206 3.787669 0.000000
v -0.296327 3.662669 0.073159
v -0.310879 3.662669 0.000000
v -0.119706 3.662669 -0.191173
v -0.119706 3.787669 -0.187500
v -0.252289 3.787669 0.132582
v -0.254886 3.662669 0.135180
v -0.192865 3.662669 0.176621
v -0.046547 3.662669 -0.176621
v -0.119706 3.787669 0.187500
v -0.119706 3.662669 0.191173
v -0.046547 3.662669 0.176621
v 0.012876 3.787669 0.132582
v 0.015474 3.662669 0.135180
v 0.056915 3.662669 0.073159
v 0.067794 3.787669 0.000000
v 0.071467 3.662669 0.000000
v 0.056915 3.662669 -0.073159
v 0.012876 3.787669 -0.132583
v 0.015474 3.662669 -0.135180
v -0.119706 3.162670 2.550977
v -1.095924 3.162670 2.356796
v 0.856511 3.162670 2.356797
v 1.684108 3.162670 1.803814
v -1.923521 3.162669 1.803814
v 2.237092 3.162670 0.976217
v -2.476504 3.162669 0.976217
v 2.431273 3.162670 0.000000
v -2.670686 3.162669 0.000000
v 2.237092 3.162670 -0.976217
v -2.476504 3.162669 -0.976218
v 1.684109 3.162669 -1.803815
v -1.923521 3.162669 -1.803814
v 0.856512 3.162669 -2.356797
v -1.095924 3.162669 -2.356797
v -0.119706 3.162669 -2.550978
v -1.095924 3.078331 2.356796
v -0.119706 3.078331 2.550977
v 0.856511 3.078331 2.356797
v -1.923521 3.078331 1.803814
v 1.684108 3.078331 1.803814
v -2.476504 3.078331 0.976217
v 2.237092 3.078331 0.976217
v -2.670686 3.078331 0.000000
v 2.431273 3.078331 0.000000
v -2.476504 3.078331 -0.976218
v 2.237092 3.078331 -0.976217
v -1.923521 3.078331 -1.803814
v 1.684109 3.078331 -1.803815
v -1.095924 3.078330 -2.356797
v 0.856512 3.078330 -2.356797
v -0.119706 3.078330 -2.550978
v -0.119706 3.078331 2.499999
v -1.076415 3.078331 2.309696
v -1.887473 3.078331 1.767765
v 0.837002 3.078331 2.309698
v -2.429405 3.078331 0.956708
v 1.648061 3.078331 1.767766
v -2.619706 3.078331 0.000000
v 2.189992 3.078331 0.956708
v -2.429405 3.078331 -0.956709
v 2.380294 3.078331 0.000000
v -1.887473 3.078331 -1.767766
v 2.189993 3.078331 -0.956708
v -1.076414 3.078330 -2.309698
v 1.648061 3.078331 -1.767767
v -0.119706 3.078330 -2.499999
v 0.837003 3.078330 -2.309698
v -0.119706 -2.212500 2.500000
v -1.076415 -2.212500 2.309699
v -1.887473 -2.212500 1.767767
v -2.429405 -2.212500 0.956708
v -2.619706 -2.212500 0.000000
v -2.429405 -2.212500 -0.956709
v -1.887473 -2.212500 -1.767766
v -1.076414 -2.212500 -2.309698
v -0.119706 -2.212500 -2.499999
v 0.837003 -2.212500 -2.309698
v 1.648061 -2.212500 -1.767766
v 2.189993 -2.212500 -0.956708
v 2.380294 -2.212500 0.000000
v 2.189992 -2.212500 0.956709
v 1.648061 -2.212500 1.767767
v 0.837002 -2.212500 2.309699
v 0.856511 -2.212500 2.356797
v -0.119706 -2.212500 2.550978
v 1.684108 -2.212500 1.803815
v -1.095924 -2.212500 2.356798
v 2.237092 -2.212500 0.976218
v -1.923521 -2.212500 1.803815
v 2.431273 -2.212500 0.000000
v -2.476504 -2.212500 0.976217
v 2.237092 -2.212500 -0.976217
v -2.670686 -2.212500 0.000000
v 1.684109 -2.212500 -1.803815
v -2.476504 -2.212500 -0.976218
v -1.923521 -2.212500 -1.803814
v -1.095924 -2.212500 -2.356797
v -0.076888 4.002929 -0.187500
v -0.199379 4.053666 -0.132583
v -0.250116 4.074682 0.000000
v -0.199379 4.053666 0.132582
v -0.076888 4.002929 0.187500
v 0.045602 3.952192 0.132582
v 0.096339 3.931175 0.000000
v 0.045602 3.952192 -0.132583
v 0.045046 4.185417 -0.187500
v -0.048704 4.279167 -0.132583
v -0.087536 4.317999 0.000000
v -0.048704 4.279167 0.132582
v 0.045046 4.185417 0.187500
v 0.138796 4.091668 0.132582
v 0.177629 4.052835 0.000000
v 0.138796 4.091668 -0.132583
v 0.227534 4.307352 -0.187500
v 0.176797 4.429842 -0.132583
v 0.155781 4.480579 0.000000
v 0.176797 4.429842 0.132582
v 0.227534 4.307352 0.187500
v 0.278272 4.184862 0.132582
v 0.299288 4.134125 0.000000
v 0.278272 4.184862 -0.132583
v 2.510211 3.787670 0.132583
v 2.455293 3.787670 0.000000
v 2.642794 3.787670 0.187500
v 2.510211 3.787670 -0.132582
v 2.642794 3.787670 -0.187500
v 2.775376 3.787670 -0.132582
v 2.830294 3.787670 0.000000
v 2.775376 3.787670 0.132583
v 2.295553 4.307353 -0.187500
v 2.346290 4.429842 -0.132582
v 2.367306 4.480579 0.000000
v 2.346290 4.429842 0.132583
v 2.295553 4.307353 0.187500
v 2.244816 4.184862 0.132583
v 2.223800 4.134125 0.000000
v 2.244816 4.184862 -0.132582
v 2.478041 4.185417 -0.187500
v 2.571791 4.279167 -0.132582
v 2.610624 4.317999 0.000000
v 2.571791 4.279167 0.132583
v 2.478041 4.185417 0.187500
v 2.384291 4.091668 0.132583
v 2.345459 4.052835 0.000000
v 2.384291 4.091668 -0.132582
v 2.599976 4.002929 -0.187500
v 2.722466 4.053666 -0.132582
v 2.773203 4.074682 0.000000
v 2.722466 4.053666 0.132583
v 2.599976 4.002929 0.187500
v 2.477486 3.952192 0.132583
v 2.426749 3.931176 0.000000
v 2.477486 3.952192 -0.132582

vt 0.415252 0.565575
vt 0.397956 0.565575
vt 0.400489 0.559458
vt 0.467138 0.565575
vt 0.421366 0.559458
vt 0.423900 0.565575
vt 0.406605 0.565575
vt 0.400489 0.550807
vt 0.458491 0.565575
vt 0.406603 0.544690
vt 0.449842 0.565575
vt 0.421366 0.550807
vt 0.432547 0.565575
vt 0.415252 0.544690
vt 0.441195 0.565575
vt 0.725177 0.602724
vt 0.057455 0.079937
vt 0.609786 0.625685
vt 0.057735 0.919932
vt 0.669765 0.625685
vt 0.057423 0.020000
vt 0.057724 0.980000
vt 0.554375 0.602724
vt 0.057744 0.859865
vt 0.767588 0.560299
vt 0.057487 0.139874
vt 0.790540 0.504866
vt 0.057519 0.199813
vt 0.511963 0.560297
vt 0.057750 0.799802
vt 0.554375 0.347009
vt 0.057724 0.559633
vt 0.669765 0.324048
vt 0.057667 0.439635
vt 0.609787 0.324048
vt 0.057699 0.499624
vt 0.511964 0.389434
vt 0.057741 0.619659
vt 0.725177 0.347009
vt 0.057631 0.379661
vt 0.767588 0.389435
vt 0.057591 0.319701
vt 0.489012 0.444867
vt 0.057749 0.679697
vt 0.489012 0.504866
vt 0.057752 0.739746
vt 0.790540 0.444939
vt 0.057551 0.259682
vt 0.019895 0.199832
vt 0.019923 0.259773
vt 0.402242 0.423405
vt 0.471422 0.423405
vt 0.421016 0.263885
vt 0.507637 0.264816
vt 0.462774 0.423405
vt 0.500154 0.269086
vt 0.462774 0.522113
vt 0.594032 0.230029
vt 0.410889 0.423405
vt 0.428317 0.268389
vt 0.402242 0.522113
vt 0.471421 0.522113
vt 0.601826 0.233614
vt 0.518327 0.233414
vt 0.454127 0.423405
vt 0.493476 0.274581
vt 0.454127 0.522113
vt 0.586932 0.225138
vt 0.410889 0.522113
vt 0.526326 0.230017
vt 0.419537 0.423405
vt 0.434780 0.274098
vt 0.419537 0.522113
vt 0.533540 0.225326
vt 0.428184 0.423405
vt 0.441362 0.279836
vt 0.428184 0.522113
vt 0.540729 0.220645
vt 0.436832 0.423405
vt 0.448688 0.284656
vt 0.479177 0.284639
vt 0.436832 0.522113
vt 0.571885 0.216418
vt 0.548461 0.216938
vt 0.445480 0.423405
vt 0.486680 0.280087
vt 0.445479 0.522113
vt 0.579708 0.220240
vt 0.628297 0.817736
vt 0.446522 0.213200
vt 0.628262 0.821636
vt 0.442322 0.214931
vt 0.449230 0.220148
vt 0.629811 0.814173
vt 0.450785 0.211625
vt 0.457338 0.217403
vt 0.472617 0.217298
vt 0.636068 0.809968
vt 0.479277 0.211727
vt 0.632553 0.811494
vt 0.455052 0.210236
vt 0.475075 0.210236
vt 0.629722 0.825279
vt 0.438285 0.216745
vt 0.441367 0.223691
vt 0.480607 0.220236
vt 0.639930 0.809914
vt 0.483470 0.213401
vt 0.643544 0.811354
vt 0.487594 0.215224
vt 0.632555 0.828001
vt 0.434210 0.218506
vt 0.488340 0.223947
vt 0.646348 0.814078
vt 0.491543 0.217122
vt 0.647782 0.817719
vt 0.495529 0.218946
vt 0.496330 0.227836
vt 0.647867 0.821614
vt 0.499392 0.220756
vt 0.646312 0.825185
vt 0.503422 0.222283
vt 0.424988 0.230499
vt 0.504651 0.231020
vt 0.643653 0.827959
vt 0.422133 0.223557
vt 0.507637 0.223952
vt 0.640078 0.829368
vt 0.426282 0.221877
vt 0.433276 0.227450
vt 0.636196 0.829435
vt 0.430293 0.220334
vt 0.767139 0.733348
vt 0.724264 0.690577
vt 0.790234 0.789346
vt 0.790417 0.849938
vt 0.668315 0.667436
vt 0.767226 0.905948
vt 0.607764 0.667445
vt 0.724519 0.949037
vt 0.551790 0.690638
vt 0.668382 0.972015
vt 0.508969 0.733511
vt 0.607784 0.972013
vt 0.485808 0.789484
vt 0.551799 0.948854
vt 0.485788 0.850062
vt 0.508901 0.906065
vt 0.727093 0.686331
vt 0.771378 0.730514
vt 0.795241 0.788344
vt 0.669308 0.662433
vt 0.795422 0.850926
vt 0.606772 0.662436
vt 0.771489 0.908777
vt 0.548871 0.686270
vt 0.727436 0.953406
vt 0.504721 0.730680
vt 0.669365 0.977035
vt 0.480806 0.788490
vt 0.606789 0.977021
vt 0.480782 0.851053
vt 0.548969 0.953102
vt 0.504661 0.908900
vt 0.068445 0.744799
vt 0.773881 0.728840
vt 0.068444 0.685998
vt 0.728765 0.683825
vt 0.068444 0.627197
vt 0.669893 0.659477
vt 0.068445 0.803597
vt 0.798195 0.787753
vt 0.068444 0.568397
vt 0.606186 0.659477
vt 0.068446 0.862399
vt 0.798377 0.851511
vt 0.068442 0.509596
vt 0.547197 0.683766
vt 0.068446 0.921200
vt 0.774005 0.910449
vt 0.068442 0.450796
vt 0.502211 0.729009
vt 0.068447 0.980000
vt 0.068442 0.039195
vt 0.729108 0.955909
vt 0.068442 0.391995
vt 0.477851 0.787902
vt 0.068442 0.097995
vt 0.669944 0.980000
vt 0.068442 0.333194
vt 0.477828 0.851641
vt 0.068442 0.156795
vt 0.606202 0.979977
vt 0.068442 0.274395
vt 0.502157 0.910575
vt 0.068442 0.215596
vt 0.547297 0.955611
vt 0.387263 0.744795
vt 0.017043 0.740345
vt 0.017043 0.739145
vt 0.387263 0.685996
vt 0.017046 0.680299
vt 0.017046 0.679099
vt 0.387262 0.627195
vt 0.017045 0.620264
vt 0.017046 0.619065
vt 0.387262 0.568395
vt 0.017039 0.560244
vt 0.017040 0.559044
vt 0.387261 0.509595
vt 0.017027 0.500239
vt 0.017027 0.499041
vt 0.387261 0.450794
vt 0.017005 0.440254
vt 0.017005 0.439056
vt 0.387260 0.391993
vt 0.016979 0.380284
vt 0.016979 0.379086
vt 0.387260 0.333194
vt 0.016947 0.320326
vt 0.016947 0.319126
vt 0.387259 0.274394
vt 0.016912 0.260375
vt 0.016912 0.259176
vt 0.387259 0.215594
vt 0.016885 0.200432
vt 0.016885 0.199233
vt 0.387258 0.156795
vt 0.016855 0.140494
vt 0.016855 0.139296
vt 0.387258 0.097995
vt 0.016824 0.080558
vt 0.016823 0.079360
vt 0.387266 0.979997
vt 0.387258 0.039195
vt 0.016792 0.020621
vt 0.017003 0.979391
vt 0.387265 0.921196
vt 0.017015 0.920524
vt 0.017015 0.919324
vt 0.387264 0.862396
vt 0.017026 0.860459
vt 0.017027 0.859260
vt 0.387264 0.803595
vt 0.017035 0.800399
vt 0.017036 0.799199
vt 0.020052 0.799799
vt 0.020058 0.739745
vt 0.020042 0.859860
vt 0.020061 0.679699
vt 0.020032 0.919924
vt 0.020059 0.619664
vt 0.019801 0.020021
vt 0.020019 0.979993
vt 0.020053 0.559643
vt 0.019833 0.079957
vt 0.020039 0.499639
vt 0.019865 0.139895
vt 0.020018 0.439653
vt 0.019990 0.379683
vt 0.019958 0.319723
vt 0.444888 0.236587
vt 0.453208 0.235449
vt 0.467998 0.234111
vt 0.476263 0.235361
vt 0.484534 0.236719
vt 0.493369 0.238215
vt 0.427154 0.238960
vt 0.502275 0.239537
vt 0.436024 0.237858
vt 0.444896 0.249847
vt 0.453208 0.250911
vt 0.467482 0.251563
vt 0.475819 0.250783
vt 0.484153 0.249972
vt 0.493073 0.249159
vt 0.427142 0.247669
vt 0.502029 0.248319
vt 0.436020 0.248769
vt 0.441544 0.262676
vt 0.449330 0.265912
vt 0.457188 0.269022
vt 0.471252 0.268726
vt 0.479206 0.265888
vt 0.487097 0.262913
vt 0.495436 0.259780
vt 0.425037 0.256116
vt 0.503866 0.256880
vt 0.433332 0.259277
vt 0.406605 0.980000
vt 0.593979 0.270908
vt 0.397957 0.980000
vt 0.467138 0.980000
vt 0.601826 0.267326
vt 0.518327 0.267730
vt 0.415252 0.980000
vt 0.586796 0.275782
vt 0.458491 0.980000
vt 0.526274 0.271273
vt 0.449842 0.980000
vt 0.533552 0.276099
vt 0.441195 0.980000
vt 0.540853 0.280880
vt 0.432548 0.980000
vt 0.571750 0.284513
vt 0.548761 0.284656
vt 0.423900 0.980000
vt 0.579584 0.280634
vt 0.538633 0.237454
vt 0.546715 0.235278
vt 0.565315 0.232878
vt 0.554811 0.233200
vt 0.573483 0.235017
vt 0.581592 0.237279
vt 0.590150 0.239685
vt 0.598787 0.241769
vt 0.521276 0.241838
vt 0.530036 0.239816
vt 0.540318 0.250608
vt 0.548707 0.250580
vt 0.563022 0.250396
vt 0.557093 0.250541
vt 0.571455 0.250404
vt 0.579862 0.250420
vt 0.588797 0.250429
vt 0.597726 0.250408
vt 0.522341 0.250612
vt 0.531357 0.250625
vt 0.538707 0.263810
vt 0.546860 0.265995
vt 0.565202 0.267948
vt 0.555072 0.268017
vt 0.573407 0.265840
vt 0.581536 0.263591
vt 0.590127 0.261180
vt 0.598783 0.259072
vt 0.521323 0.259377
vt 0.530064 0.261448
vt 0.462458 0.234111
vt 0.461941 0.251563

vn 0.000001 -0.630263 0.776382
vn -0.776382 -0.630263 -0.000001
vn 0.548984 -0.630262 0.548986
vn -0.548983 -0.630262 0.548987
vn -0.548984 -0.630263 -0.548985
vn 0.000001 -0.630263 -0.776382
vn 0.776383 -0.630262 -0.000001
vn 0.548985 -0.630263 -0.548984
vn 0.689362 -0.665759 -0.285560
vn 0.689402 -0.665718 0.285560
vn 0.746204 -0.665718 0.000000
vn 0.527645 -0.665719 0.527645
vn 0.527645 -0.665719 -0.527645
vn 0.285559 -0.665719 -0.689401
vn 0.285560 -0.665719 0.689402
vn -0.689401 -0.665719 0.285559
vn -0.689401 -0.665719 -0.285560
vn -0.746203 -0.665719 0.000000
vn -0.527645 -0.665719 0.527645
vn -0.527645 -0.665719 -0.527645
vn -0.285415 -0.665673 -0.689505
vn -0.285559 -0.665719 0.689402
vn -0.000015 -0.665760 0.746166
vn 0.000349 -0.665749 -0.746176
vn 0.285559 0.665718 -0.689402
vn -0.000002 0.665718 -0.746203
vn 0.100429 -0.994944 0.000001
vn 0.068482 -0.692693 0.717974
vn -0.068478 -0.692677 0.717990
vn 0.068478 -0.692677 -0.717990
vn -0.100429 -0.994944 -0.000001
vn -0.004745 0.023856 0.999704
vn 0.004745 0.023855 0.999704
vn -0.068478 -0.692678 -0.717989
vn -0.004745 0.023854 -0.999704
vn 0.004746 0.023852 -0.999704
vn -0.070771 0.716315 -0.694178
vn 0.070772 0.716316 -0.694178
vn -0.095764 0.995404 0.000001
vn 0.095764 0.995404 0.000002
vn -0.070771 0.716317 0.694177
vn 0.070771 0.716316 0.694178
vn -0.517566 0.681359 -0.517567
vn -0.275427 0.694255 -0.664944
vn -0.712210 0.126300 -0.690511
vn -0.664944 0.694255 -0.275427
vn -0.988530 0.151023 0.000001
vn -0.664943 0.694255 0.275427
vn -0.731949 0.681360 0.000000
vn 0.000000 0.681360 -0.731949
vn -0.023473 0.060789 -0.997875
vn -0.712211 0.126302 0.690510
vn -0.517565 0.681359 0.517567
vn -0.275428 0.694256 0.664942
vn 0.275427 0.694255 -0.664943
vn -0.023473 0.060791 0.997874
vn 0.000000 0.681360 0.731949
vn 0.275428 0.694257 0.664942
vn 0.694433 -0.012199 0.719454
vn 0.517563 0.681365 0.517562
vn 0.664942 0.694257 0.275428
vn 0.999024 -0.044164 0.000002
vn 0.731948 0.681360 0.000000
vn 0.664942 0.694256 -0.275428
vn 0.694432 -0.012201 -0.719455
vn 0.517567 0.681359 -0.517566
vn 0.000000 0.593794 0.804617
vn -0.307914 0.593794 0.743370
vn 0.307914 0.593794 0.743370
vn 0.568950 0.593794 0.568951
vn -0.568950 0.593794 0.568951
vn 0.743370 0.593793 0.307914
vn -0.743370 0.593794 0.307914
vn 0.804617 0.593794 0.000000
vn -0.804618 0.593793 0.000000
vn 0.743370 0.593794 -0.307914
vn -0.743370 0.593793 -0.307914
vn 0.568950 0.593794 -0.568951
vn -0.568950 0.593794 -0.568951
vn 0.307913 0.593794 -0.743370
vn -0.307914 0.593793 -0.743370
vn 0.000000 0.593794 -0.804617
vn -0.285559 -0.665719 0.689401
vn 0.000000 -0.665719 0.746203
vn 0.285559 -0.665719 0.689402
vn -0.527645 -0.665719 0.527645
vn 0.527645 -0.665719 0.527645
vn -0.689401 -0.665719 0.285560
vn 0.689402 -0.665719 0.285560
vn -0.746203 -0.665719 0.000000
vn 0.746203 -0.665719 0.000000
vn -0.689401 -0.665719 -0.285560
vn 0.689402 -0.665719 -0.285559
vn -0.527645 -0.665719 -0.527645
vn 0.527645 -0.665719 -0.527645
vn -0.285559 -0.665719 -0.689401
vn 0.285559 -0.665719 -0.689401
vn 0.000000 -0.665719 -0.746202
vn 0.000000 -0.753767 0.657141
vn -0.251475 -0.753803 0.607076
vn -0.464669 -0.753767 0.464669
vn 0.251477 -0.753767 0.607120
vn -0.607119 -0.753767 0.251477
vn 0.464669 -0.753767 0.464669
vn -0.657141 -0.753767 0.000000
vn 0.607120 -0.753767 0.251477
vn -0.607119 -0.753768 -0.251477
vn 0.657141 -0.753767 0.000000
vn -0.464669 -0.753767 -0.464669
vn 0.607120 -0.753767 -0.251477
vn -0.251477 -0.753767 -0.607119
vn 0.464669 -0.753767 -0.464669
vn 0.000000 -0.753767 -0.657141
vn 0.251477 -0.753767 -0.607119
vn 0.000000 0.753767 0.657141
vn -0.251477 0.753768 0.607119
vn -0.464669 0.753767 0.464669
vn -0.607120 0.753767 0.251477
vn -0.657141 0.753767 0.000000
vn -0.607119 0.753767 -0.251477
vn -0.464669 0.753767 -0.464669
vn -0.251477 0.753767 -0.607120
vn 0.000000 0.753767 -0.657141
vn 0.251477 0.753767 -0.607119
vn 0.464669 0.753767 -0.464669
vn 0.607119 0.753767 -0.251477
vn 0.657141 0.753768 0.000000
vn 0.607076 0.753803 0.251475
vn 0.464669 0.753768 0.464669
vn 0.251477 0.753767 0.607119
vn 0.285559 0.665719 0.689401
vn 0.000000 0.665719 0.746202
vn 0.527644 0.665719 0.527645
vn -0.285559 0.665719 0.689402
vn 0.689401 0.665719 0.285559
vn -0.527645 0.665719 0.527645
vn 0.746202 0.665719 0.000000
vn -0.689401 0.665719 0.285559
vn 0.689402 0.665719 -0.285559
vn -0.746203 0.665719 0.000000
vn 0.527645 0.665719 -0.527645
vn -0.689401 0.665719 -0.285560
vn -0.527645 0.665719 -0.527645
vn -0.285394 0.665736 -0.689453
vn -0.044100 0.018267 -0.998860
vn -0.673910 0.279143 -0.684050
vn -0.923879 0.382684 0.000001
vn -0.673911 0.279143 0.684049
vn -0.044101 0.018267 0.998860
vn 0.629720 -0.260838 0.731721
vn 0.923880 -0.382682 0.000001
vn 0.629718 -0.260837 -0.731723
vn -0.033753 0.033754 -0.998860
vn -0.515789 0.515789 -0.684049
vn -0.707107 0.707107 0.000001
vn -0.515790 0.515789 0.684048
vn -0.033754 0.033755 0.998860
vn 0.481966 -0.481965 0.731723
vn 0.707107 -0.707107 0.000000
vn 0.481964 -0.481963 -0.731726
vn -0.018267 0.044103 -0.998860
vn -0.279142 0.673910 -0.684050
vn -0.382683 0.923880 0.000001
vn -0.279143 0.673911 0.684049
vn -0.018268 0.044104 0.998860
vn 0.260836 -0.629719 0.731723
vn 0.382680 -0.923881 0.000001
vn 0.260836 -0.629717 -0.731725
vn -0.692673 -0.068478 0.717993
vn -0.994944 -0.100430 -0.000001
vn 0.023854 0.004745 0.999704
vn -0.692675 -0.068479 -0.717991
vn 0.023854 0.004745 -0.999704
vn 0.716316 0.070773 -0.694178
vn 0.995404 0.095767 -0.000002
vn 0.716315 0.070773 0.694178
vn 0.018269 0.044103 -0.998860
vn 0.279143 0.673911 -0.684049
vn 0.382682 0.923880 0.000001
vn 0.279142 0.673910 0.684051
vn 0.018268 0.044104 0.998860
vn -0.260836 -0.629717 0.731724
vn -0.382681 -0.923881 -0.000002
vn -0.260837 -0.629719 -0.731723
vn 0.033754 0.033754 -0.998860
vn 0.515789 0.515789 -0.684049
vn 0.707108 0.707106 0.000000
vn 0.515788 0.515788 0.684051
vn 0.033753 0.033754 0.998860
vn -0.481965 -0.481965 0.731724
vn -0.707107 -0.707106 -0.000001
vn -0.481966 -0.481966 -0.731722
vn 0.044102 0.018268 -0.998860
vn 0.673911 0.279143 -0.684049
vn 0.923879 0.382684 -0.000001
vn 0.673910 0.279143 0.684050
vn 0.044102 0.018267 0.998860
vn -0.629717 -0.260837 0.731724
vn -0.923880 -0.382682 -0.000001
vn -0.629719 -0.260838 -0.731722

mtllib bigsilo.mtl

g Default
s 1
usemtl silo_big
f 27/52/27 31/62/31 29/57/29 28/55/28
f 30/59/30 34/69/34 31/61/31 27/51/27
f 29/57/29 33/67/33 32/65/32 28/55/28
f 30/59/30 35/71/35 36/73/36 34/69/34
f 35/71/35 37/75/37 38/77/38 36/73/36
f 39/79/39 40/82/40 38/77/38 37/75/37
f 41/85/41 42/87/42 40/82/40 39/79/39
f 33/67/33 42/87/42 41/85/41 32/65/32
f 44/92/44 43/90/43 45/93/45
f 43/90/43 46/95/46 45/93/45
f 47/96/47 45/93/45 46/95/46
f 49/102/49 48/99/48 47/97/47
f 50/104/50 44/92/44 51/105/51
f 52/106/52 47/97/47 48/99/48
f 48/99/48 53/108/53 52/106/52
f 46/95/46 49/101/49 47/96/47
f 53/108/53 54/110/54 52/106/52
f 45/93/45 51/105/51 44/92/44
f 55/112/55 50/104/50 51/105/51
f 56/113/56 52/106/52 54/110/54
f 54/110/54 57/115/57 56/113/56
f 57/115/57 58/117/58 56/113/56
f 59/118/59 56/113/56 58/117/58
f 58/117/58 60/120/60 59/118/59
f 60/120/60 61/122/61 59/118/59
f 62/124/62 59/118/59 61/122/61
f 61/122/61 63/127/63 62/124/62
f 63/126/63 64/129/64 62/123/62
f 65/130/65 62/123/62 64/129/64
f 64/129/64 66/132/66 65/130/65
f 66/132/66 55/112/55 65/130/65
f 51/105/51 65/130/65 55/112/55
f 68/134/68 67/133/67 57/114/57 54/109/54
f 57/114/57 67/133/67 69/135/69 58/116/58
f 58/116/58 69/135/69 70/136/70 60/119/60
f 71/137/71 68/134/68 54/109/54 53/107/53
f 60/119/60 70/136/70 72/138/72 61/121/61
f 73/139/73 71/137/71 53/107/53 48/98/48
f 61/121/61 72/138/72 74/140/74 63/125/63
f 75/141/75 73/139/73 48/98/48 49/100/49
f 64/128/64 63/125/63 74/140/74 76/142/76
f 75/141/75 49/100/49 46/94/46 77/143/77
f 66/131/66 64/128/64 76/142/76 78/144/78
f 77/143/77 46/94/46 43/89/43 79/145/79
f 55/111/55 66/131/66 78/144/78 80/146/80
f 79/145/79 43/89/43 44/91/44 81/147/81
f 50/103/50 55/111/55 80/146/80 82/148/82
f 81/147/81 44/91/44 50/103/50 82/148/82
f 84/150/84 67/133/67 68/134/68 83/149/83
f 83/149/83 68/134/68 71/137/71 86/152/86
f 85/151/85 69/135/69 67/133/67 84/150/84
f 87/153/87 70/136/70 69/135/69 85/151/85
f 88/154/88 86/152/86 71/137/71 73/139/73
f 72/138/72 70/136/70 87/153/87 89/155/89
f 75/141/75 90/156/90 88/154/88 73/139/73
f 74/140/74 72/138/72 89/155/89 91/157/91
f 92/158/92 90/156/90 75/141/75 77/143/77
f 76/142/76 74/140/74 91/157/91 93/159/93
f 94/160/94 92/158/92 77/143/77 79/145/79
f 78/144/78 76/142/76 93/159/93 95/161/95
f 96/162/96 94/160/94 79/145/79 81/147/81
f 97/163/97 80/146/80 78/144/78 95/161/95
f 96/162/96 81/147/81 82/148/82 98/164/98
f 98/164/98 82/148/82 80/146/80 97/163/97
f 83/149/83 100/168/100 99/166/99 84/150/84
f 86/152/86 101/170/101 100/168/100 83/149/83
f 99/166/99 102/172/102 85/151/85 84/150/84
f 88/154/88 103/174/103 101/170/101 86/152/86
f 102/172/102 104/176/104 87/153/87 85/151/85
f 90/156/90 105/178/105 103/174/103 88/154/88
f 104/176/104 106/180/106 89/155/89 87/153/87
f 90/156/90 92/158/92 107/182/107 105/178/105
f 106/180/106 108/185/108 91/157/91 89/155/89
f 92/158/92 94/160/94 109/187/109 107/182/107
f 110/189/110 93/159/93 91/157/91 108/185/108
f 94/160/94 96/162/96 111/191/111 109/187/109
f 112/193/112 95/161/95 93/159/93 110/189/110
f 96/162/96 98/164/98 113/195/113 111/191/111
f 114/197/114 97/163/97 95/161/95 112/193/112
f 98/164/98 97/163/97 114/197/114 113/195/113
f 115/198/115 99/165/99 100/167/100 116/201/116
f 116/201/116 100/167/100 101/169/101 117/204/117
f 118/207/118 117/204/117 101/169/101 103/173/103
f 105/177/105 119/210/119 118/207/118 103/173/103
f 120/213/120 119/210/119 105/177/105 107/181/107
f 121/216/121 120/213/120 107/181/107 109/186/109
f 121/216/121 109/186/109 111/190/111 122/219/122
f 122/219/122 111/190/111 113/194/113 123/222/123
f 123/222/123 113/194/113 114/196/114 124/225/124
f 124/225/124 114/196/114 112/192/112 125/228/125
f 112/192/112 110/188/110 126/231/126 125/228/125
f 110/188/110 108/184/108 127/235/127 126/231/126
f 108/183/108 106/179/106 128/238/128 127/234/127
f 106/179/106 104/175/104 129/241/129 128/238/128
f 129/241/129 104/175/104 102/171/102 130/244/130
f 130/244/130 102/171/102 99/165/99 115/198/115
f 45/93/45 146/263/146 145/262/145 51/105/51
f 45/93/45 47/96/47 147/339/147 146/263/146
f 147/264/147 47/97/47 52/106/52 148/265/148
f 56/113/56 149/266/149 148/265/148 52/106/52
f 59/118/59 150/267/150 149/266/149 56/113/56
f 151/269/151 150/267/150 59/118/59 62/124/62
f 152/270/152 151/268/151 62/123/62 65/130/65
f 51/105/51 145/262/145 152/270/152 65/130/65
f 145/262/145 146/263/146 154/272/154 153/271/153
f 146/263/146 147/339/147 155/340/155 154/272/154
f 155/273/155 147/264/147 148/265/148 156/274/156
f 149/266/149 157/275/157 156/274/156 148/265/148
f 150/267/150 158/276/158 157/275/157 149/266/149
f 159/278/159 158/276/158 150/267/150 151/269/151
f 160/279/160 159/277/159 151/268/151 152/270/152
f 152/270/152 145/262/145 153/271/153 160/279/160
f 153/271/153 154/272/154 162/281/162 161/280/161
f 155/340/155 163/282/163 162/281/162 154/272/154
f 155/273/155 156/274/156 164/284/164 163/283/163
f 157/275/157 165/285/165 164/284/164 156/274/156
f 158/276/158 166/286/166 165/285/165 157/275/157
f 158/276/158 159/278/159 167/288/167 166/286/166
f 160/279/160 168/289/168 167/287/167 159/277/159
f 160/279/160 153/271/153 161/280/161 168/289/168
f 161/280/161 162/281/162 37/76/37 35/72/35
f 163/282/163 39/80/39 37/76/37 162/281/162
f 163/283/163 164/284/164 41/86/41 39/81/39
f 165/285/165 32/66/32 41/86/41 164/284/164
f 166/286/166 28/56/28 32/66/32 165/285/165
f 166/286/166 167/288/167 27/54/27 28/56/28
f 168/289/168 30/60/30 27/53/27 167/287/167
f 168/289/168 161/280/161 35/72/35 30/60/30
f 170/292/170 2/2/2 4/7/4 169/290/169
f 1/1/1 171/296/171 169/290/169 4/7/4
f 5/9/5 2/4/2 170/293/170 172/298/172
f 5/9/5 172/298/172 173/300/173 6/11/6
f 6/11/6 173/300/173 174/302/174 8/15/8
f 174/302/174 175/304/175 7/13/7 8/15/8
f 175/304/175 176/307/176 3/6/3 7/13/7
f 3/6/3 176/307/176 171/296/171 1/1/1
f 177/309/177 36/74/36 38/78/38 178/310/178
f 40/84/40 179/312/179 178/310/178 38/78/38
f 42/88/42 180/313/180 179/311/179 40/83/40
f 181/314/181 180/313/180 42/88/42 33/68/33
f 182/315/182 181/314/181 33/68/33 29/58/29
f 29/58/29 31/63/31 183/316/183 182/315/182
f 34/70/34 184/318/184 183/317/183 31/64/31
f 184/318/184 34/70/34 36/74/36 177/309/177
f 185/319/185 177/309/177 178/310/178 186/320/186
f 178/310/178 179/312/179 187/322/187 186/320/186
f 180/313/180 188/323/188 187/321/187 179/311/179
f 189/324/189 188/323/188 180/313/180 181/314/181
f 190/325/190 189/324/189 181/314/181 182/315/182
f 183/316/183 191/326/191 190/325/190 182/315/182
f 183/317/183 184/318/184 192/328/192 191/327/191
f 192/328/192 184/318/184 177/309/177 185/319/185
f 193/329/193 185/319/185 186/320/186 194/330/194
f 186/320/186 187/322/187 195/332/195 194/330/194
f 187/321/187 188/323/188 196/333/196 195/331/195
f 197/334/197 196/333/196 188/323/188 189/324/189
f 198/335/198 197/334/197 189/324/189 190/325/190
f 191/326/191 199/336/199 198/335/198 190/325/190
f 200/338/200 199/337/199 191/327/191 192/328/192
f 200/338/200 192/328/192 185/319/185 193/329/193
f 173/301/173 193/329/193 194/330/194 174/303/174
f 194/330/194 195/332/195 175/306/175 174/303/174
f 195/331/195 196/333/196 176/308/176 175/305/175
f 176/308/176 196/333/196 197/334/197 171/297/171
f 171/297/171 197/334/197 198/335/198 169/291/169
f 199/336/199 170/294/170 169/291/169 198/335/198
f 172/299/172 170/295/170 199/337/199 200/338/200
f 172/299/172 200/338/200 193/329/193 173/301/173
f 3/5/3 1/1/1 2/3/2
f 4/7/4 2/3/2 1/1/1
f 2/3/2 5/8/5 3/5/3
f 5/8/5 6/10/6 3/5/3
f 6/10/6 8/14/8 7/12/7
f 7/12/7 3/5/3 6/10/6
f 11/20/11 10/18/10 9/16/9
f 12/23/12 13/25/13 9/16/9 10/18/10
f 15/29/15 14/27/14 13/25/13 12/23/12
f 18/35/18 17/33/17 16/31/16
f 17/33/17 20/39/20 19/37/19 16/31/16
f 20/39/20 21/41/21 22/43/22 19/37/19
f 21/41/21 24/47/24 23/45/23 22/43/22
f 23/45/23 24/47/24 14/27/14 15/29/15
f 24/48/24 26/50/26 25/49/25 14/28/14
f 23/46/23 15/30/15 131/247/131 132/248/132
f 23/46/23 132/248/132 134/250/134 22/44/22
f 12/24/12 133/249/133 131/247/131 15/30/15
f 22/44/22 134/250/134 136/252/136 19/38/19
f 135/251/135 133/249/133 12/24/12 10/19/10
f 16/32/16 19/38/19 136/252/136 138/255/138
f 137/254/137 135/251/135 10/19/10 11/22/11
f 140/257/140 18/36/18 16/32/16 138/255/138
f 139/256/139 137/253/137 11/21/11 9/17/9
f 17/34/17 18/36/18 140/257/140 142/259/142
f 141/258/141 139/256/139 9/17/9 13/26/13
f 20/40/20 17/34/17 142/259/142 143/260/143
f 14/28/14 25/49/25 141/258/141 13/26/13
f 20/40/20 143/260/143 144/261/144 21/42/21
f 21/42/21 144/261/144 26/50/26 24/48/24
f 130/245/130 131/247/131 133/249/133 129/243/129
f 132/248/132 131/247/131 130/246/130 115/199/115
f 129/242/129 133/249/133 135/251/135 128/240/128
f 134/250/134 132/248/132 115/200/115 116/202/116
f 128/239/128 135/251/135 137/254/137 127/237/127
f 136/252/136 134/250/134 116/203/116 117/205/117
f 126/233/126 127/236/127 137/253/137 139/256/139
f 138/255/138 136/252/136 117/206/117 118/208/118
f 125/230/125 126/232/126 139/256/139 141/258/141
f 140/257/140 138/255/138 118/209/118 119/211/119
f 124/227/124 125/229/125 141/258/141 25/49/25
f 140/257/140 119/212/119 120/214/120 142/259/142
f 123/224/123 124/226/124 25/49/25 26/50/26
f 142/259/142 120/215/120 121/217/121 143/260/143
f 144/261/144 122/221/122 123/223/123 26/50/26
f 143/260/143 121/218/121 122/220/122 144/261/144

# The end.