# Blender v2.72 (sub 0) OBJ File: 'Stairs wood shallow mid.blend'
# www.blender.org
mtllib stairlongwood.mtl
o Cube_Cube.001
v -0.500000 1.000000 -1.500000
v 0.500000 1.000000 -1.500000
v -0.500000 1.000000 -1.300000
v 0.500000 1.000000 -1.300000
v 0.500000 0.970000 -1.300000
v -0.500000 0.970000 -1.300000
v 0.500000 0.970000 -1.500000
v -0.500000 0.970000 -1.500000
v -0.500000 0.200000 0.300000
v -0.500000 0.100000 0.300000
v 0.420330 0.981887 -1.499036
v -0.500000 0.400000 -0.100000
v -0.500000 0.300000 -0.100000
v 0.420332 0.915881 -1.499668
v -0.500000 0.600000 -0.500000
v 0.390332 0.981901 -1.349976
v -0.500000 0.700000 -0.700000
v -0.500000 0.600000 -0.700000
v -0.500000 0.800000 -0.900000
v 0.390332 0.915881 -1.499668
v -0.500000 0.800000 -1.100000
v -0.500000 0.900000 -1.300000
v 0.390332 0.831324 -1.331104
v 0.500000 0.100000 0.300000
v -0.500000 0.100000 0.500000
v 0.500000 0.100000 0.500000
v 0.500000 0.070000 0.500000
v -0.500000 0.070000 0.500000
v 0.500000 0.070000 0.300000
v -0.500000 0.070000 0.300000
v -0.500000 0.200000 0.100000
v 0.500000 0.200000 0.100000
v 0.420332 0.831264 -1.331104
v 0.500000 0.200000 0.300000
v 0.500000 0.170000 0.300000
v -0.500000 0.170000 0.300000
v 0.500000 0.170000 0.100000
v -0.500000 0.170000 0.100000
v 0.390332 0.881270 -1.431104
v 0.500000 0.300000 -0.100000
v -0.500000 0.300000 0.100000
v 0.500000 0.300000 0.100000
v 0.500000 0.270000 0.100000
v -0.500000 0.270000 0.100000
v 0.500000 0.270000 -0.100000
v -0.500000 0.270000 -0.100000
v -0.500000 0.400000 -0.300000
v 0.500000 0.400000 -0.300000
v 0.390332 -0.001509 -1.331104
v 0.500000 0.400000 -0.100000
v 0.500000 0.370000 -0.100000
v -0.500000 0.370000 -0.100000
v 0.500000 0.370000 -0.300000
v -0.500000 0.370000 -0.300000
v -0.500000 0.500000 -0.500000
v 0.500000 0.500000 -0.500000
v -0.500000 0.500000 -0.300000
v 0.500000 0.500000 -0.300000
v 0.500000 0.470000 -0.300000
v -0.500000 0.470000 -0.300000
v 0.500000 0.470000 -0.500000
v -0.500000 0.470000 -0.500000
v 0.420332 0.881513 -1.431104
v 0.500000 0.600000 -0.700000
v 0.500000 0.600000 -0.500000
v 0.500000 0.570000 -0.500000
v -0.500000 0.570000 -0.500000
v 0.500000 0.570000 -0.700000
v -0.500000 0.570000 -0.700000
v -0.500000 0.700000 -0.900000
v 0.500000 0.700000 -0.900000
v 0.390332 -0.001107 -1.431104
v 0.500000 0.700000 -0.700000
v 0.500000 0.670000 -0.700000
v -0.500000 0.670000 -0.700000
v 0.500000 0.670000 -0.900000
v -0.500000 0.670000 -0.900000
v 0.420332 -0.001509 -1.331104
v 0.500000 0.800000 -1.100000
v 0.420332 -0.001509 -1.431104
v 0.500000 0.800000 -0.900000
v 0.500000 0.770000 -0.900000
v -0.500000 0.770000 -0.900000
v 0.500000 0.770000 -1.100000
v -0.500000 0.770000 -1.100000
v 0.390332 0.981887 -1.499036
v 0.500000 0.900000 -1.300000
v -0.500000 0.900000 -1.100000
v 0.500000 0.900000 -1.100000
v 0.500000 0.870000 -1.100000
v -0.500000 0.870000 -1.100000
v 0.500000 0.870000 -1.300000
v -0.500000 0.870000 -1.300000
v 0.420332 -0.000914 0.504114
v 0.390332 -0.000704 0.333186
v 0.390332 -0.000742 0.503770
v 0.420332 0.055568 0.503486
v 0.420332 -0.000633 0.333045
v 0.390332 0.055740 0.503141
v 0.420332 0.982299 -1.349976
v 0.420332 0.981887 -1.499036
v 0.390332 0.981887 -1.499036
v -0.420330 0.981887 -1.499036
v -0.420332 0.915881 -1.499668
v -0.390332 0.981901 -1.349976
v -0.390332 0.915881 -1.499668
v -0.390332 0.831324 -1.331104
v -0.420332 0.831264 -1.331104
v -0.390332 0.881270 -1.431104
v -0.390332 -0.001509 -1.331104
v -0.420332 0.881513 -1.431104
v -0.390332 -0.001107 -1.431104
v -0.420332 -0.001509 -1.331104
v -0.420332 -0.001509 -1.431104
v -0.390332 0.981887 -1.499036
v -0.420332 -0.000914 0.504114
v -0.390332 -0.000704 0.333186
v -0.390332 -0.000742 0.503770
v -0.420332 0.055568 0.503486
v -0.420332 -0.000633 0.333045
v -0.390332 0.055740 0.503141
v -0.420332 0.982299 -1.349976
v -0.420332 0.981887 -1.499036
v -0.390332 0.981887 -1.499036
v -0.442693 0.216027 -1.397071
v -0.442693 0.116027 -1.397071
v 0.442693 0.116027 -1.397071
v 0.442693 0.216027 -1.397071
v 0.442693 0.216027 -1.367071
v -0.442693 0.216027 -1.367071
v 0.442693 0.116027 -1.367071
v -0.442693 0.116027 -1.367071
v 0.442693 0.116027 -1.367071
v -0.442693 0.116027 -1.367071
v 0.390332 0.568877 -0.808809
v 0.420332 0.568817 -0.808809
v 0.390332 0.618823 -0.908809
v 0.390332 -0.000704 -0.808809
v 0.420332 0.619066 -0.908809
v 0.390332 -0.000301 -0.908809
v 0.420332 -0.000704 -0.808809
v 0.420332 -0.000704 -0.908809
v -0.390332 0.568877 -0.808809
v -0.420332 0.568817 -0.808809
v -0.390332 0.618823 -0.908809
v -0.390332 -0.000704 -0.808809
v -0.420332 0.619066 -0.908809
v -0.390332 -0.000301 -0.908809
v -0.420332 -0.000704 -0.808809
v -0.420332 -0.000704 -0.908809
v -0.442693 0.216833 -0.874775
v -0.442693 0.116832 -0.874775
v 0.442693 0.116832 -0.874775
v 0.442693 0.216833 -0.874775
v 0.442693 0.216833 -0.844775
v -0.442693 0.216833 -0.844775
v 0.442693 0.116832 -0.844775
v -0.442693 0.116832 -0.844775
v 0.442693 0.116832 -0.844775
v -0.442693 0.116832 -0.844775
v 0.390332 0.293437 -0.265725
v 0.420332 0.293378 -0.265725
v 0.390332 0.343384 -0.365725
v 0.390332 -0.000633 -0.265726
v 0.420332 0.343627 -0.365725
v 0.390332 -0.000231 -0.365726
v 0.420332 -0.000633 -0.265726
v 0.420332 -0.000633 -0.365726
v -0.390332 0.293437 -0.265725
v -0.420332 0.293378 -0.265725
v -0.390332 0.343384 -0.365725
v -0.390332 -0.000633 -0.265726
v -0.420332 0.343627 -0.365725
v -0.390332 -0.000231 -0.365726
v -0.420332 -0.000633 -0.265726
v -0.420332 -0.000633 -0.365726
v -0.442693 0.216903 -0.331692
v -0.442693 0.116903 -0.331692
v 0.442693 0.116903 -0.331692
v 0.442693 0.216903 -0.331692
v 0.442693 0.216903 -0.301692
v -0.442693 0.216903 -0.301692
v 0.442693 0.116903 -0.301692
v -0.442693 0.116903 -0.301692
v 0.442693 0.116903 -0.301692
v -0.442693 0.116903 -0.301692
vt 0.487961 0.573094
vt 0.487961 0.584695
vt 0.371953 0.584695
vt 0.371953 0.573094
vt 0.487961 0.588175
vt 0.371953 0.588175
vt 0.491441 0.573094
vt 0.491441 0.584695
vt 0.371953 0.569613
vt 0.487961 0.569613
vt 0.368473 0.584695
vt 0.368473 0.573094
vt 0.469080 0.582124
vt 0.472560 0.582124
vt 0.472560 0.593725
vt 0.469079 0.593725
vt 0.353071 0.582124
vt 0.353071 0.578644
vt 0.469080 0.578644
vt 0.377134 0.582232
vt 0.377134 0.585712
vt 0.261126 0.585712
vt 0.261126 0.582232
vt 0.377134 0.570631
vt 0.380614 0.570631
vt 0.380614 0.582232
vt 0.490424 0.597722
vt 0.493904 0.597722
vt 0.493904 0.609323
vt 0.490424 0.609323
vt 0.374416 0.597722
vt 0.374416 0.594242
vt 0.490424 0.594242
vt 0.379597 0.594546
vt 0.379597 0.598026
vt 0.263588 0.598026
vt 0.263588 0.594546
vt 0.379597 0.582945
vt 0.383077 0.582945
vt 0.383077 0.594546
vt 0.493708 0.608394
vt 0.493708 0.619995
vt 0.377700 0.619995
vt 0.377700 0.608394
vt 0.493708 0.623476
vt 0.377700 0.623476
vt 0.497188 0.608394
vt 0.497188 0.619995
vt 0.377700 0.604914
vt 0.493708 0.604914
vt 0.374219 0.619995
vt 0.374219 0.608394
vt 0.373029 0.607573
vt 0.376509 0.607573
vt 0.376509 0.619174
vt 0.373029 0.619174
vt 0.484467 0.565344
vt 0.310196 0.565344
vt 0.303071 0.573298
vt 0.309313 0.580267
vt 0.481782 0.580267
vt 0.489810 0.571271
vt 0.335831 0.601113
vt 0.335831 0.604594
vt 0.451840 0.604594
vt 0.451840 0.601113
vt 0.335831 0.589513
vt 0.332351 0.589513
vt 0.332351 0.601113
vt 0.347428 0.607573
vt 0.451377 0.607573
vt 0.439643 0.619174
vt 0.347428 0.619174
vt 0.484499 0.584221
vt 0.489856 0.589389
vt 0.481769 0.597401
vt 0.309343 0.597401
vt 0.304918 0.589404
vt 0.310121 0.584221
vt 0.374671 0.577199
vt 0.378151 0.577199
vt 0.378151 0.588799
vt 0.374671 0.588799
vt 0.451348 0.590958
vt 0.347475 0.590958
vt 0.347428 0.604093
vt 0.439650 0.604093
vt 0.439650 0.622655
vt 0.347428 0.622655
vt 0.379597 0.615070
vt 0.383077 0.615070
vt 0.383077 0.603469
vt 0.379597 0.603469
vt 0.263588 0.615070
vt 0.263588 0.618550
vt 0.379597 0.618550
vt 0.310196 0.580267
vt 0.484467 0.580267
vt 0.497269 0.584221
vt 0.497236 0.580267
vt 0.481782 0.601355
vt 0.309313 0.601355
vt 0.347475 0.604093
vt 0.451348 0.604093
vt 0.353071 0.593725
vt 0.469079 0.597205
vt 0.353071 0.597205
vt 0.349591 0.593725
vt 0.349591 0.582124
vt 0.261126 0.570631
vt 0.261126 0.567151
vt 0.377134 0.567151
vt 0.257645 0.582232
vt 0.257645 0.570631
vt 0.374416 0.609323
vt 0.490424 0.612803
vt 0.374416 0.612803
vt 0.370936 0.609323
vt 0.370936 0.597722
vt 0.263588 0.582945
vt 0.263588 0.579465
vt 0.379597 0.579465
vt 0.260108 0.594546
vt 0.260108 0.582945
vt 0.257021 0.619174
vt 0.257021 0.607573
vt 0.373029 0.622655
vt 0.257021 0.622655
vt 0.257021 0.604093
vt 0.373029 0.604093
vt 0.253541 0.619174
vt 0.253541 0.607573
vt 0.451840 0.589513
vt 0.451840 0.586032
vt 0.335831 0.586032
vt 0.455320 0.601113
vt 0.455320 0.589513
vt 0.258663 0.588799
vt 0.258663 0.577198
vt 0.374671 0.592280
vt 0.258663 0.592280
vt 0.258663 0.573718
vt 0.374671 0.573718
vt 0.255182 0.588799
vt 0.255182 0.577198
vt 0.263588 0.603469
vt 0.379597 0.599988
vt 0.263588 0.599988
vt 0.260108 0.603469
vt 0.260108 0.615070
vt 0.299504 0.601355
vt 0.299534 0.597401
vt 0.440243 0.585253
vt 0.445672 0.591275
vt 0.437515 0.600416
vt 0.262267 0.600416
vt 0.255925 0.593335
vt 0.263164 0.585253
vt 0.440276 0.604434
vt 0.263088 0.604434
vt 0.257801 0.609700
vt 0.262297 0.617826
vt 0.437501 0.617826
vt 0.445719 0.609686
vt 0.440243 0.600416
vt 0.263164 0.600416
vt 0.453251 0.604434
vt 0.453218 0.600416
vt 0.262267 0.621844
vt 0.437515 0.621844
vt 0.252330 0.617826
vt 0.252300 0.621844
vt 0.451840 0.571293
vt 0.335831 0.571293
vt 0.894345 0.006003
vt 0.895518 0.004843
vt 0.895515 0.004495
vt 0.894346 0.004495
vt 0.889081 0.006027
vt 0.899068 0.006027
vt 0.899077 0.008707
vt 0.889078 0.008707
vt 0.382288 0.587374
vt 0.486562 0.587374
vt 0.474829 0.598975
vt 0.382288 0.598975
vt 0.486534 0.570759
vt 0.382335 0.570759
vt 0.382288 0.583894
vt 0.474836 0.583894
vt 0.474836 0.602456
vt 0.382288 0.602456
vt 0.486534 0.583894
vt 0.268261 0.605944
vt 0.268261 0.617545
vt 0.360802 0.617545
vt 0.372535 0.605945
vt 0.372507 0.589329
vt 0.360809 0.602464
vt 0.268261 0.602464
vt 0.268308 0.589329
vt 0.268261 0.621026
vt 0.360808 0.621026
vt 0.372507 0.602464
vt 0.388561 0.598734
vt 0.458135 0.598734
vt 0.442079 0.614608
vt 0.388561 0.614608
vt 0.458096 0.575998
vt 0.388626 0.575998
vt 0.388561 0.593972
vt 0.442089 0.593972
vt 0.442089 0.619370
vt 0.388561 0.619370
vt 0.458096 0.593972
usemtl None
s off
f 4/1 2/2 1/3 3/4
f 2/2 7/5 8/6 1/3
f 4/1 5/7 7/8 2/2
f 3/4 6/9 5/10 4/1
f 1/3 8/11 6/12 3/4
f 26/13 27/14 29/15 24/16
f 25/17 28/18 27/19 26/13
f 32/20 37/21 38/22 31/23
f 34/24 35/25 37/26 32/20
f 42/27 43/28 45/29 40/30
f 41/31 44/32 43/33 42/27
f 48/34 53/35 54/36 47/37
f 50/38 51/39 53/40 48/34
f 58/41 56/42 55/43 57/44
f 56/42 61/45 62/46 55/43
f 58/41 59/47 61/48 56/42
f 57/44 60/49 59/50 58/41
f 55/43 62/51 60/52 57/44
f 65/53 66/54 68/55 64/56
f 99/57 16/58 86/59 20/60 95/61 96/62
f 71/63 76/64 77/65 70/66
f 73/67 74/68 76/69 71/63
f 80/70 63/71 33/72 78/73
f 97/74 94/75 98/76 14/77 11/78 100/79
f 81/80 82/81 84/82 79/83
f 39/84 72/85 49/86 23/87
f 33/72 23/88 49/89 78/73
f 89/90 90/91 92/92 87/93
f 88/94 91/95 90/96 89/90
f 100/79 16/97 99/98 97/74
f 97/99 99/100 96/98 94/74
f 98/76 95/101 20/102 14/77
f 80/70 72/103 39/104 63/71
f 26/13 24/16 10/105 25/17
f 24/16 29/106 30/107 10/105
f 10/105 30/108 28/109 25/17
f 34/24 32/20 31/23 9/110
f 9/110 36/111 35/112 34/24
f 31/23 38/113 36/114 9/110
f 42/27 40/30 13/115 41/31
f 40/30 45/116 46/117 13/115
f 13/115 46/118 44/119 41/31
f 50/38 48/34 47/37 12/120
f 12/120 52/121 51/122 50/38
f 47/37 54/123 52/124 12/120
f 65/53 64/56 18/125 15/126
f 64/56 68/127 69/128 18/125
f 15/126 67/129 66/130 65/53
f 18/125 69/131 67/132 15/126
f 73/67 71/63 70/66 17/133
f 17/133 75/134 74/135 73/67
f 70/66 77/136 75/137 17/133
f 81/80 79/83 21/138 19/139
f 79/83 84/140 85/141 21/138
f 19/139 83/142 82/143 81/80
f 21/138 85/144 83/145 19/139
f 89/90 87/93 22/146 88/94
f 87/93 92/147 93/148 22/146
f 22/146 93/149 91/150 88/94
f 14/77 20/102 102/151 101/152
f 121/153 118/154 117/155 106/156 115/157 105/158
f 114/70 113/73 108/72 111/71
f 119/159 122/160 103/161 104/162 120/163 116/164
f 109/84 107/87 110/86 112/85
f 108/72 113/73 110/89 107/88
f 122/160 119/159 121/165 105/166
f 119/167 116/159 118/165 121/168
f 120/163 104/162 106/169 117/170
f 114/70 111/71 109/104 112/103
f 104/162 123/171 124/172 106/169
f 127/63 131/64 132/65 126/66
f 128/67 129/68 131/69 127/63
f 128/67 127/63 126/66 125/133
f 125/133 130/134 129/135 128/67
f 126/66 132/136 130/137 125/133
f 129/135 130/134 134/173 133/174
f 23/175 33/176 63/177 39/178
f 107/179 109/180 111/181 108/182
f 142/183 139/184 136/185 141/186
f 137/187 140/188 138/189 135/190
f 136/185 135/191 138/192 141/186
f 142/183 140/189 137/193 139/184
f 150/194 149/195 144/196 147/197
f 145/198 143/199 146/200 148/201
f 144/196 149/195 146/202 143/203
f 150/194 147/197 145/204 148/200
f 153/63 157/64 158/65 152/66
f 154/67 155/68 157/69 153/63
f 154/67 153/63 152/66 151/133
f 151/133 156/134 155/135 154/67
f 152/66 158/136 156/137 151/133
f 155/135 156/134 160/173 159/174
f 135/175 136/176 139/177 137/178
f 143/179 145/180 147/181 144/182
f 168/205 165/206 162/207 167/208
f 163/209 166/210 164/211 161/212
f 162/207 161/213 164/214 167/208
f 168/205 166/211 163/215 165/206
f 176/205 175/208 170/207 173/206
f 171/209 169/212 172/211 174/210
f 170/207 175/208 172/214 169/213
f 176/205 173/206 171/215 174/211
f 179/63 183/64 184/65 178/66
f 180/67 181/68 183/69 179/63
f 180/67 179/63 178/66 177/133
f 177/133 182/134 181/135 180/67
f 178/66 184/136 182/137 177/133
f 181/135 182/134 186/173 185/174
f 161/175 162/176 165/177 163/178
f 169/179 171/180 173/181 170/182
