# 3ds Max Wavefront OBJ Exporter v0.97b - (c)2007 guruware
# File Created: 17.05.2017 01:11:48

mtllib tank_small.mtl

#
# object Mesh_806
#

v  -0.0662 7.2053 0.0251
v  -0.0678 7.0252 0.0251
v  -0.0662 7.2053 0.0660
v  -0.0678 7.0252 0.0660
v  -1.7835 5.6100 -0.5070
v  -1.8798 5.5192 -0.6033
v  -1.9420 5.6100 -0.2697
v  -2.0679 5.5192 -0.3219
v  -1.9977 5.6100 0.0101
v  -2.1339 5.5192 0.0101
v  -1.9420 5.6100 0.2900
v  -2.0679 5.5192 0.3421
v  -1.7835 5.6100 0.5273
v  -1.8798 5.5192 0.6236
v  -1.5462 5.6100 0.6858
v  -1.5984 5.5192 0.8117
v  -1.2664 5.5192 -0.8574
v  -1.2664 5.2635 -1.0459
v  -1.5984 5.5192 -0.7914
v  -1.6705 5.2635 -0.9655
v  -2.0130 5.2635 -0.7366
v  -2.2420 5.2635 -0.3940
v  -2.3224 5.2635 0.0101
v  -2.2420 5.2635 0.4143
v  -1.6705 0.7920 -0.9655
v  -2.0130 0.7920 -0.7366
v  -2.2420 0.7920 -0.3940
v  -2.3224 0.7920 0.0101
v  -2.2420 0.7920 0.4143
v  -2.0130 5.2635 0.7568
v  -2.0130 0.7920 0.7568
v  -2.1301 0.5197 0.3679
v  -1.9274 0.5197 0.6712
v  -2.2012 0.5197 0.0101
v  -2.1301 0.5197 -0.3476
v  -1.9274 0.5197 -0.6509
v  -1.6241 0.5197 -0.8536
v  -1.2664 0.5197 -0.9247
v  -1.2664 0.7920 -1.0459
v  -0.2104 5.2635 0.0101
v  -0.2104 0.7920 0.0101
v  -0.2907 5.2635 -0.3940
v  -0.2907 0.7920 -0.3940
v  -0.5197 5.2635 -0.7366
v  -0.5197 0.7920 -0.7366
v  -0.8622 5.2635 -0.9655
v  -0.8622 0.7920 -0.9655
v  -0.9086 0.5197 -0.8536
v  -0.6053 0.5197 -0.6509
v  -0.4026 0.5197 -0.3476
v  -0.3315 0.5197 0.0101
v  -0.4026 0.5197 0.3679
v  -0.2907 0.7920 0.4143
v  -1.6705 5.2635 0.9858
v  -1.6705 0.7920 0.9858
v  -1.2664 5.2635 1.0661
v  -1.2664 0.7920 1.0661
v  -0.8622 5.2635 0.9858
v  -0.8622 0.7920 0.9858
v  -0.5197 5.2635 0.7568
v  -0.5197 0.7920 0.7568
v  -0.2907 5.2635 0.4143
v  -0.6053 0.5197 0.6712
v  -0.9086 0.5197 0.8738
v  -1.2664 0.5197 0.9450
v  -1.6241 0.5197 0.8738
v  -1.2664 5.6100 0.7414
v  -1.2664 5.5192 0.8777
v  -0.9865 5.6100 0.6858
v  -0.9343 5.5192 0.8117
v  -0.7492 5.6100 0.5273
v  -0.6529 5.5192 0.6236
v  -0.5907 5.6100 0.2900
v  -0.4648 5.5192 0.3421
v  -0.5350 5.6100 0.0101
v  -0.3988 5.5192 0.0101
v  -0.5907 5.6100 -0.2697
v  -0.4648 5.5192 -0.3219
v  -0.6529 5.5192 -0.6033
v  -0.9343 5.5192 -0.7914
v  -0.7492 5.6100 -0.5070
v  -0.9865 5.6100 -0.6655
v  -1.2664 5.6100 -0.7212
v  -1.5462 5.6100 -0.6655
v  -0.4166 6.3858 0.5337
v  -0.4166 6.4564 0.3566
v  -0.4166 6.2141 0.6075
v  -0.4166 6.3858 0.1796
v  -0.4166 6.2141 0.1058
v  -0.4166 6.0424 0.1796
v  -0.4166 5.9718 0.3566
v  -0.4166 6.0424 0.5337
v  0.3094 6.0424 0.5337
v  0.3094 5.9718 0.3566
v  0.3094 6.2141 0.6075
v  0.3094 6.0424 0.1796
v  0.3094 6.2141 0.1058
v  0.3094 6.3858 0.1796
v  0.3094 6.4564 0.3566
v  0.3094 6.3858 0.5337
v  -0.3186 6.2141 0.6075
v  -0.3176 6.0424 0.5337
v  0.2114 6.2141 0.6075
v  0.2105 6.0424 0.5337
v  -0.2251 6.4820 0.5336
v  -0.2392 6.4346 0.5336
v  -0.0536 6.4800 0.6075
v  -0.0991 6.3548 0.6068
v  -0.2741 6.3997 0.5336
v  -0.1943 6.2596 0.6068
v  -0.3215 6.3856 0.5336
v  0.0872 6.2596 0.6068
v  0.1670 6.3997 0.5336
v  0.2144 6.3856 0.5336
v  -0.2993 6.4689 0.3566
v  -0.3084 6.4598 0.3566
v  -0.3230 6.4560 0.3566
v  -0.3176 5.9718 0.3566
v  0.2105 5.9718 0.3566
v  0.2105 6.0424 0.1796
v  0.2114 6.2141 0.1058
v  -0.3186 6.2141 0.1058
v  -0.1943 6.2596 0.1065
v  -0.3176 6.0424 0.1796
v  -0.2741 6.3997 0.1797
v  -0.3215 6.3856 0.1797
v  -0.2392 6.4346 0.1797
v  -0.2955 6.4835 0.3566
v  -0.2251 6.4820 0.1797
v  -0.2253 6.6596 0.1796
v  -0.0536 6.6596 0.1058
v  -0.0536 6.4800 0.1058
v  0.1181 6.6596 0.1796
v  0.1179 6.4820 0.1797
v  -0.2959 6.6596 0.3566
v  0.1320 6.4346 0.1797
v  0.1887 6.6596 0.3566
v  0.1883 6.4835 0.3566
v  0.1922 6.4689 0.3566
v  0.2013 6.4598 0.3566
v  0.1670 6.3997 0.1797
v  0.2159 6.4560 0.3566
v  0.2144 6.3856 0.1797
v  -0.0991 6.3548 0.1065
v  -0.0080 6.3548 0.1065
v  0.0872 6.2596 0.1065
v  1.4390 5.6100 0.6858
v  1.4911 5.5192 0.8117
v  1.6763 5.6100 0.5273
v  1.1591 5.6100 0.7414
v  1.1591 5.5192 0.8777
v  1.1591 5.2635 1.0661
v  1.7726 5.5192 0.6236
v  1.8348 5.6100 0.2900
v  1.5633 5.2635 0.9858
v  1.1591 0.7920 1.0661
v  1.9607 5.5192 0.3421
v  1.8904 5.6100 0.0101
v  1.9058 5.2635 0.7568
v  1.5633 0.7920 0.9858
v  1.1591 0.5197 0.9450
v  1.5169 0.5197 0.8738
v  1.9058 0.7920 0.7568
v  2.1348 5.2635 0.4143
v  2.0267 5.5192 0.0101
v  1.8348 5.6100 -0.2697
v  1.9607 5.5192 -0.3219
v  1.6763 5.6100 -0.5070
v  2.2151 5.2635 0.0101
v  2.1348 5.2635 -0.3940
v  1.7726 5.5192 -0.6033
v  1.9058 5.2635 -0.7366
v  1.4911 5.5192 -0.7914
v  1.5633 5.2635 -0.9655
v  1.1591 5.5192 -0.8574
v  1.1591 5.2635 -1.0459
v  0.8271 5.5192 -0.7914
v  1.4390 5.6100 -0.6655
v  1.1591 5.6100 -0.7212
v  0.8793 5.6100 -0.6655
v  0.6420 5.6100 -0.5070
v  0.5457 5.5192 -0.6033
v  0.4835 5.6100 -0.2697
v  0.7550 5.2635 -0.9655
v  0.4124 5.2635 -0.7366
v  0.3576 5.5192 -0.3219
v  0.1835 5.2635 -0.3940
v  0.2916 5.5192 0.0101
v  0.1031 5.2635 0.0101
v  0.3576 5.5192 0.3421
v  0.1835 5.2635 0.4143
v  0.5457 5.5192 0.6236
v  0.4124 5.2635 0.7568
v  0.8271 5.5192 0.8117
v  0.7550 5.2635 0.9858
v  0.4278 5.6100 0.0101
v  0.4835 5.6100 0.2900
v  0.6420 5.6100 0.5273
v  0.8793 5.6100 0.6858
v  0.7550 0.7920 0.9858
v  0.8014 0.5197 0.8738
v  0.1031 0.7920 0.0101
v  0.1835 0.7920 -0.3940
v  0.1835 0.7920 0.4143
v  0.4124 0.7920 0.7568
v  0.4981 0.5197 0.6712
v  0.2954 0.5197 0.3679
v  0.2243 0.5197 0.0101
v  0.2954 0.5197 -0.3476
v  0.4981 0.5197 -0.6509
v  0.4124 0.7920 -0.7366
v  0.8014 0.5197 -0.8536
v  0.7550 0.7920 -0.9655
v  1.5633 0.7920 -0.9655
v  1.9058 0.7920 -0.7366
v  1.1591 0.7920 -1.0459
v  1.1591 0.5197 -0.9247
v  1.5169 0.5197 -0.8536
v  1.8202 0.5197 -0.6509
v  2.0229 0.5197 -0.3476
v  2.1348 0.7920 -0.3940
v  2.0940 0.5197 0.0101
v  2.2151 0.7920 0.0101
v  2.0229 0.5197 0.3679
v  2.1348 0.7920 0.4143
v  1.8202 0.5197 0.6712
v  1.0536 5.6760 0.4704
v  1.1591 5.6760 0.5141
v  1.0536 6.0237 0.4704
v  1.0099 5.6760 0.3649
v  1.0099 6.0237 0.3649
v  1.0408 6.0642 0.4704
v  1.0036 6.0432 0.3649
v  1.0089 6.0954 0.4704
v  0.9879 6.0582 0.3649
v  0.9674 6.1079 0.4704
v  0.9674 6.0642 0.3649
v  0.3446 6.0642 0.3649
v  0.3446 6.1079 0.4704
v  1.1591 6.0237 0.5141
v  1.1307 6.1150 0.5141
v  1.0597 6.1853 0.5141
v  0.9674 6.2134 0.5141
v  0.3446 6.2134 0.5141
v  -0.4518 6.1079 0.4704
v  1.1105 6.2752 0.4704
v  0.9674 6.3189 0.4704
v  0.3446 6.3189 0.4704
v  -0.4518 6.2134 0.5141
v  -0.4518 6.3189 0.4704
v  -1.0746 6.2134 0.5141
v  -1.0746 6.3189 0.4704
v  -1.1669 6.1853 0.5141
v  -1.2178 6.2752 0.4704
v  -1.2380 6.1150 0.5141
v  -1.0746 6.1079 0.4704
v  -1.1161 6.0954 0.4704
v  -1.1481 6.0642 0.4704
v  -1.1608 6.0237 0.4704
v  -1.2664 6.0237 0.5141
v  -1.3278 6.1659 0.4704
v  -0.4518 6.0642 0.3649
v  -1.0746 6.0642 0.3649
v  -1.0951 6.0582 0.3649
v  -1.1108 6.0432 0.3649
v  -1.1171 6.0237 0.3649
v  -1.1171 5.6760 0.3649
v  -1.1608 5.6760 0.4704
v  -1.2664 5.6760 0.5141
v  -1.3719 6.0237 0.4704
v  -1.3651 6.1869 0.3649
v  -1.2388 6.3124 0.3649
v  -1.3278 6.1659 0.2594
v  -1.2178 6.2752 0.2594
v  -1.2380 6.1150 0.2157
v  -1.3719 5.6760 0.4704
v  -1.4156 5.6760 0.3649
v  -1.4156 6.0237 0.3649
v  -1.3719 6.0237 0.2594
v  -1.2664 6.0237 0.2157
v  -1.1608 6.0237 0.2594
v  -1.1481 6.0642 0.2594
v  -1.1608 5.6760 0.2594
v  -1.2664 5.6760 0.2157
v  -1.3719 5.6760 0.2594
v  -1.1669 6.1853 0.2157
v  -1.1161 6.0954 0.2594
v  -1.0746 6.1079 0.2594
v  -0.4518 6.1079 0.2594
v  -1.0746 6.3627 0.3649
v  -1.0746 6.3189 0.2594
v  -1.0746 6.2134 0.2157
v  0.3446 6.3189 0.2594
v  0.3446 6.3627 0.3649
v  0.9674 6.3189 0.2594
v  -0.4518 6.3627 0.3649
v  -0.4518 6.3189 0.2594
v  0.9674 6.2134 0.2157
v  1.0597 6.1853 0.2157
v  0.3446 6.2134 0.2157
v  -0.4518 6.2134 0.2157
v  0.3446 6.1079 0.2594
v  0.9674 6.1079 0.2594
v  1.0089 6.0954 0.2594
v  1.0408 6.0642 0.2594
v  1.1307 6.1150 0.2157
v  1.0536 6.0237 0.2594
v  1.0536 5.6760 0.2594
v  1.1591 5.6760 0.2157
v  1.1591 6.0237 0.2157
v  1.2647 5.6760 0.2594
v  1.2647 6.0237 0.2594
v  1.3084 5.6760 0.3649
v  1.3084 6.0237 0.3649
v  1.2647 5.6760 0.4704
v  1.2647 6.0237 0.4704
v  1.2206 6.1659 0.2594
v  1.2579 6.1869 0.3649
v  1.2206 6.1659 0.4704
v  0.9674 6.3627 0.3649
v  1.1316 6.3124 0.3649
v  1.1105 6.2752 0.2594
v  0.1320 6.4346 0.5336
v  -0.0080 6.3548 0.6068
v  0.1179 6.4820 0.5336
v  0.1181 6.6596 0.5337
v  -0.0536 6.6596 0.6075
v  -0.2253 6.6596 0.5337
v  -0.2434 7.1266 0.0660
v  -0.0881 7.2180 0.0660
v  -0.2575 7.1511 0.0660
v  -0.2902 7.1159 0.0660
v  -0.3319 7.2525 0.0660
v  -0.1698 7.0512 0.0660
v  -0.1928 7.0114 0.0660
v  -0.0536 6.9793 0.0660
v  -0.0395 7.0252 0.0660
v  0.0626 7.0512 0.0660
v  0.0855 7.0114 0.0660
v  0.1362 7.1266 0.0660
v  -0.0410 7.2053 0.0660
v  -0.0191 7.2870 0.0660
v  -0.0410 7.2996 0.0660
v  -0.0662 7.2996 0.0660
v  -0.0881 7.2870 0.0660
v  -0.0395 7.4798 0.0660
v  -0.0678 7.4798 0.0660
v  0.1503 7.1511 0.0660
v  -0.0065 7.2399 0.0660
v  -0.0191 7.2180 0.0660
v  -0.0065 7.2651 0.0660
v  0.1503 7.3539 0.0660
v  0.1362 7.3784 0.0660
v  0.1830 7.1159 0.0660
v  0.1788 7.2525 0.0660
v  0.2247 7.2525 0.0660
v  0.1830 7.3891 0.0660
v  0.0626 7.4538 0.0660
v  0.0855 7.4935 0.0660
v  -0.0536 7.5257 0.0660
v  -0.1698 7.4538 0.0660
v  -0.1928 7.4935 0.0660
v  -0.2434 7.3784 0.0660
v  -0.2902 7.3891 0.0660
v  -0.1007 7.2399 0.0660
v  -0.1007 7.2651 0.0660
v  -0.2575 7.3539 0.0660
v  -0.2860 7.2525 0.0660
v  -0.0410 7.2996 0.0251
v  -0.0191 7.2870 0.0251
v  -0.0410 7.2053 0.0251
v  -0.0065 7.2651 0.0251
v  -0.0065 7.2399 0.0251
v  -0.0191 7.2180 0.0251
v  0.1503 7.1511 0.0251
v  0.1362 7.1266 0.0251
v  0.1503 7.3539 0.0251
v  0.1362 7.3784 0.0251
v  -0.1007 7.2399 0.0251
v  -0.1007 7.2651 0.0251
v  -0.0881 7.2870 0.0251
v  -0.0662 7.2996 0.0251
v  -0.0678 7.4798 0.0251
v  -0.0395 7.4798 0.0251
v  -0.2434 7.3784 0.0251
v  -0.2575 7.3539 0.0251
v  0.0855 7.4935 0.0251
v  0.0626 7.4538 0.0251
v  -0.0536 7.5257 0.0251
v  -0.1928 7.4935 0.0251
v  -0.1698 7.4538 0.0251
v  -0.2902 7.3891 0.0251
v  -0.3319 7.2525 0.0251
v  -0.2860 7.2525 0.0251
v  -0.2902 7.1159 0.0251
v  -0.2575 7.1511 0.0251
v  -0.2434 7.1266 0.0251
v  -0.0881 7.2180 0.0251
v  -0.0395 7.0252 0.0251
v  -0.0536 6.9793 0.0251
v  -0.1698 7.0512 0.0251
v  -0.1928 7.0114 0.0251
v  0.0626 7.0512 0.0251
v  0.0855 7.0114 0.0251
v  0.1830 7.1159 0.0251
v  0.2247 7.2525 0.0251
v  0.1788 7.2525 0.0251
v  0.1830 7.3891 0.0251
v  -0.0162 7.1877 0.1307
v  -0.0162 7.1877 0.2158
v  -0.0910 7.1877 0.1307
v  -0.0910 7.1877 0.2158
v  -0.1284 7.2525 0.1307
v  -0.1284 7.2525 0.2158
v  -0.0910 7.3172 0.1307
v  -0.0910 7.3172 0.2158
v  -0.0162 7.3172 0.1307
v  -0.0162 7.3172 0.2158
v  0.0211 7.2525 0.1307
v  0.0211 7.2525 0.2158
v  0.0433 7.4878 0.5327
v  0.0433 7.4063 0.5327
v  0.1402 7.4878 0.3648
v  0.1402 7.4063 0.3648
v  0.0433 7.4878 0.1970
v  0.0433 7.4063 0.1970
v  -0.1505 7.4878 0.1970
v  -0.1505 7.4063 0.1970
v  -0.2475 7.4878 0.3648
v  -0.2475 7.4063 0.3648
v  -0.1505 7.4878 0.5327
v  -0.1505 7.4063 0.5327
v  0.0138 7.4063 0.2480
v  0.0335 7.3424 0.2140
v  -0.1210 7.4063 0.2480
v  -0.1407 7.3424 0.2140
v  -0.1885 7.4063 0.3648
v  -0.2278 7.3424 0.3648
v  -0.1210 7.4063 0.4816
v  -0.1407 7.3424 0.5157
v  0.0138 7.4063 0.4816
v  0.0335 7.3424 0.5157
v  0.0812 7.4063 0.3648
v  0.1206 7.3424 0.3648
v  0.1206 7.1722 0.3648
v  0.0335 7.1722 0.2140
v  -0.1407 7.1722 0.2140
v  -0.2278 7.1722 0.3648
v  -0.1407 7.1722 0.5157
v  0.0335 7.1722 0.5157
v  -0.1235 7.1083 0.2438
v  -0.1934 7.1083 0.3648
v  -0.1235 7.1083 0.4859
v  0.0163 7.1083 0.4859
v  0.0862 7.1083 0.3648
v  0.0163 7.1083 0.2438
v  -0.0408 7.2303 0.0030
v  -0.0408 7.2303 0.1307
v  -0.0664 7.2303 0.0030
v  -0.0664 7.2303 0.1307
v  -0.0792 7.2525 0.0030
v  -0.0792 7.2525 0.1307
v  -0.0664 7.2747 0.0030
v  -0.0664 7.2747 0.1307
v  -0.0408 7.2747 0.0030
v  -0.0408 7.2747 0.1307
v  -0.0280 7.2525 0.0030
v  -0.0280 7.2525 0.1307
v  0.0359 7.1083 0.5199
v  0.0359 7.0019 0.5199
v  0.1255 7.1083 0.3648
v  0.1255 7.0019 0.3648
v  0.0359 7.1083 0.2097
v  0.0359 7.0019 0.2097
v  -0.1432 7.1083 0.2097
v  -0.1432 7.0019 0.2097
v  -0.2327 7.1083 0.3648
v  -0.2327 7.0019 0.3648
v  -0.1432 7.1083 0.5199
v  -0.1432 7.0019 0.5199
v  0.0090 7.0200 0.4736
v  0.0090 6.8632 0.4736
v  0.0716 7.0200 0.3651
v  0.0716 6.8632 0.3651
v  0.0090 7.0200 0.2566
v  0.0090 6.8632 0.2566
v  -0.1162 7.0200 0.2566
v  -0.1162 6.8632 0.2566
v  -0.1789 7.0200 0.3651
v  -0.1789 6.8632 0.3651
v  -0.1162 7.0200 0.4736
v  -0.1162 6.8632 0.4736
v  -0.8559 3.5276 -1.0826
v  -1.6768 3.5276 -1.0826
v  -0.8559 4.6894 -1.0826
v  -1.6768 4.6894 -1.0826
v  -1.6768 3.5276 -0.9596
v  -0.8559 3.5276 -0.9596
v  -1.6768 4.6894 -0.9596
v  -0.8559 4.6894 -0.9596
v  0.7486 3.5276 -0.9596
v  0.7486 3.5276 -1.0826
v  1.5696 3.5276 -0.9596
v  1.5696 3.5276 -1.0826
v  1.5696 4.6894 -0.9596
v  1.5696 4.6894 -1.0826
v  0.7486 4.6894 -0.9596
v  0.7486 4.6894 -1.0826
v  2.4296 0.5280 1.0826
v  2.4296 0.5280 -1.0129
v  -2.4296 0.5280 1.0826
v  -2.4296 0.5280 -1.0129
v  2.4296 -0.0000 -1.0129
v  -2.4296 -0.0000 -1.0129
v  -2.4296 -0.0000 1.0826
v  2.4296 -0.0000 1.0826
v  -0.3770 6.6596 0.3651
v  -0.2153 6.6596 0.0850
v  -0.2153 6.6596 0.6452
v  0.1081 6.6596 0.0850
v  0.2698 6.6596 0.3651
v  0.1081 6.6596 0.6452
v  0.2698 6.8632 0.3651
v  0.1081 6.8632 0.0850
v  0.1081 6.8632 0.6452
v  -0.2153 6.8632 0.0850
v  -0.3770 6.8632 0.3651
v  -0.2153 6.8632 0.6452
v  1.0030 5.6760 0.5211
v  1.1591 5.6760 0.5857
v  0.9383 5.6760 0.3649
v  1.3153 5.6760 0.5211
v  1.3800 5.6760 0.3649
v  1.3153 5.6760 0.2087
v  1.1591 5.6760 0.1440
v  1.0030 5.6760 0.2087
v  -1.4225 5.6760 0.5211
v  -1.2664 5.6760 0.5857
v  -1.4872 5.6760 0.3649
v  -1.1102 5.6760 0.5211
v  -1.0455 5.6760 0.3649
v  -1.1102 5.6760 0.2087
v  -1.2664 5.6760 0.1440
v  -1.4225 5.6760 0.2087
v  1.1591 5.6100 0.1440
v  1.3153 5.6100 0.2087
v  1.3800 5.6100 0.3649
v  1.3153 5.6100 0.5211
v  1.1591 5.6100 0.5857
v  1.0030 5.6100 0.5211
v  0.9383 5.6100 0.3649
v  1.0030 5.6100 0.2087
v  -1.1102 5.6100 0.2087
v  -1.0455 5.6100 0.3649
v  -1.1102 5.6100 0.5211
v  -1.2664 5.6100 0.5857
v  -1.4225 5.6100 0.5211
v  -1.4872 5.6100 0.3649
v  -1.4225 5.6100 0.2087
v  -1.2664 5.6100 0.1440
# 560 vertices

vn -1.0000 0.0084 -0.0000
vn -0.3919 0.8323 -0.3920
vn -0.4958 0.7130 -0.4958
vn -0.5121 0.8323 -0.2121
vn -0.6478 0.7130 -0.2683
vn -0.5543 0.8323 0.0000
vn -0.7124 0.7017 -0.0094
vn -0.5121 0.8323 0.2121
vn -0.6478 0.7130 0.2683
vn -0.5510 0.8273 0.1096
vn -0.3919 0.8323 0.3920
vn -0.4958 0.7130 0.4958
vn -0.3121 0.8273 0.4671
vn -0.3934 0.7062 0.5887
vn 0.0000 0.7130 -0.7011
vn 0.0000 0.3012 -0.9535
vn -0.2683 0.7130 -0.6478
vn -0.3649 0.3012 -0.8810
vn -0.6743 0.3012 -0.6743
vn -0.8810 0.3012 -0.3649
vn -0.9535 0.3012 -0.0000
vn -0.8810 0.3012 0.3649
vn -0.3748 -0.2027 -0.9047
vn -0.6924 -0.2027 -0.6924
vn -0.9047 -0.2027 -0.3748
vn -0.9792 -0.2027 0.0000
vn -0.9047 -0.2027 0.3747
vn -0.6743 0.3012 0.6743
vn -0.6924 -0.2027 0.6924
vn -0.8441 -0.4065 0.3496
vn -0.6461 -0.4065 0.6460
vn -0.9136 -0.4065 0.0000
vn -0.8441 -0.4065 -0.3496
vn -0.6461 -0.4065 -0.6461
vn -0.3496 -0.4065 -0.8441
vn 0.0000 -0.4065 -0.9137
vn 0.0000 -0.2027 -0.9792
vn 0.9535 0.3012 0.0000
vn 0.9792 -0.2027 0.0000
vn 0.8810 0.3012 -0.3649
vn 0.9047 -0.2027 -0.3747
vn 0.6743 0.3012 -0.6743
vn 0.6924 -0.2027 -0.6924
vn 0.3649 0.3012 -0.8810
vn 0.3747 -0.2027 -0.9047
vn 0.3496 -0.4065 -0.8441
vn 0.6460 -0.4065 -0.6461
vn 0.8441 -0.4065 -0.3496
vn 0.9137 -0.4065 0.0000
vn 0.8441 -0.4065 0.3497
vn 0.9047 -0.2027 0.3747
vn -0.1864 0.2960 0.9368
vn -0.1912 -0.1990 0.9612
vn 0.0000 0.3012 0.9535
vn 0.0000 -0.2027 0.9792
vn 0.3649 0.3012 0.8810
vn 0.3747 -0.2027 0.9047
vn 0.6743 0.3012 0.6743
vn 0.6924 -0.2027 0.6924
vn 0.8810 0.3012 0.3649
vn 0.6460 -0.4065 0.6460
vn 0.3496 -0.4065 0.8441
vn -0.0000 -0.4065 0.9137
vn -0.1788 -0.3999 0.8989
vn -0.0000 0.8323 0.5543
vn -0.0000 0.7130 0.7011
vn 0.2121 0.8323 0.5121
vn 0.2683 0.7130 0.6478
vn 0.3920 0.8323 0.3920
vn 0.4958 0.7130 0.4958
vn 0.5121 0.8323 0.2121
vn 0.6477 0.7130 0.2683
vn 0.5543 0.8323 0.0000
vn 0.7011 0.7130 0.0000
vn 0.5121 0.8323 -0.2121
vn 0.6478 0.7130 -0.2683
vn -0.1096 0.8273 0.5510
vn -0.1381 0.7062 0.6944
vn 0.4958 0.7130 -0.4958
vn 0.2683 0.7130 -0.6478
vn 0.3920 0.8323 -0.3920
vn 0.2121 0.8323 -0.5121
vn 0.0000 0.8323 -0.5543
vn -0.2121 0.8323 -0.5121
vn -1.0000 0.0000 -0.0000
vn 1.0000 0.0000 -0.0000
vn -0.0298 -0.0219 0.9993
vn 0.0000 -0.7165 0.6976
vn 0.0291 -0.0211 0.9994
vn -0.6941 0.1008 0.7128
vn -0.5940 0.3577 0.7206
vn -0.0008 0.0574 0.9984
vn -0.1557 0.0955 0.9832
vn -0.3555 0.5970 0.7192
vn -0.0955 0.1626 0.9821
vn -0.1040 0.6954 0.7111
vn 0.0967 0.1631 0.9819
vn 0.3577 0.5939 0.7207
vn 0.1002 0.6941 0.7128
vn -0.8055 0.4648 0.3676
vn -0.4626 0.8083 0.3643
vn -0.1222 0.9231 0.3647
vn 0.0024 0.7169 0.6972
vn 0.0003 0.0002 1.0000
vn 0.0039 0.9289 0.3704
vn 0.0000 -1.0000 0.0000
vn 0.0000 -0.7165 -0.6976
vn 0.0298 -0.0219 -0.9993
vn -0.0291 -0.0211 -0.9994
vn -0.0967 0.1631 -0.9819
vn 0.0000 -0.0000 -1.0000
vn -0.4644 0.8057 -0.3677
vn -0.8080 0.4630 -0.3643
vn -0.3577 0.5939 -0.7206
vn -0.1002 0.6941 -0.7128
vn -0.1191 0.9222 -0.3680
vn 0.0035 0.9291 -0.3699
vn 0.0019 0.7169 -0.6972
vn -0.5970 0.3555 -0.7192
vn -0.9230 0.1231 -0.3646
vn -0.6954 0.1045 -0.7110
vn -0.7167 -0.0013 -0.6973
vn -0.0002 -0.0003 -1.0000
vn 0.0009 0.0574 -0.9984
vn 0.7167 -0.0008 -0.6974
vn 0.6941 0.1014 -0.7127
vn -0.9288 -0.0022 -0.3705
vn 0.5940 0.3580 -0.7205
vn 0.9290 -0.0015 -0.3701
vn 0.9219 0.1214 -0.3679
vn 0.8052 0.4653 -0.3675
vn 0.4630 0.8080 -0.3644
vn 0.3555 0.5969 -0.7192
vn 0.1222 0.9231 -0.3647
vn 0.1039 0.6954 -0.7111
vn -0.0024 0.7169 -0.6972
vn -0.0003 0.0002 -1.0000
vn -0.0039 0.9289 -0.3704
vn -0.1551 0.0944 -0.9834
vn 0.1557 0.0955 -0.9832
vn 0.0955 0.1626 -0.9821
vn 0.1096 0.8273 0.5510
vn 0.1381 0.7062 0.6944
vn 0.1864 0.2960 0.9368
vn 0.1912 -0.1990 0.9612
vn 0.1788 -0.3999 0.8989
vn -0.3920 0.8323 -0.3920
vn -0.6477 0.7130 -0.2683
vn -0.7011 0.7130 -0.0000
vn -0.2683 0.7130 0.6477
vn -0.3649 0.3012 0.8810
vn -0.5543 0.8323 -0.0000
vn -0.3920 0.8323 0.3920
vn -0.2121 0.8323 0.5121
vn -0.3747 -0.2027 0.9047
vn -0.3497 -0.4065 0.8441
vn -0.9792 -0.2027 -0.0000
vn -0.9047 -0.2027 -0.3747
vn -0.6460 -0.4065 0.6461
vn -0.9137 -0.4065 -0.0000
vn -0.8441 -0.4065 -0.3497
vn -0.6461 -0.4065 -0.6460
vn -0.3747 -0.2027 -0.9047
vn 0.3497 -0.4065 -0.8441
vn 0.6461 -0.4065 0.6460
vn -0.7071 0.0000 0.7071
vn 0.0000 0.0000 1.0000
vn -0.6826 -0.1057 0.7231
vn -0.9239 0.0000 0.3827
vn -0.9132 -0.1489 0.3794
vn -0.5797 -0.3568 0.7326
vn -0.7837 -0.4938 0.3769
vn -0.3464 -0.5869 0.7318
vn -0.4643 -0.8017 0.3764
vn -0.1013 -0.6842 0.7222
vn -0.1364 -0.9153 0.3790
vn 0.0000 -0.9239 0.3826
vn 0.0000 -0.7071 0.7071
vn 0.0364 0.0112 0.9993
vn 0.0506 0.0329 0.9982
vn 0.0321 0.0504 0.9982
vn 0.0110 0.0358 0.9993
vn 0.0000 0.0001 1.0000
vn 0.3799 0.6342 0.6734
vn 0.1080 0.7187 0.6869
vn 0.0000 0.7071 0.7071
vn -0.0110 0.0358 0.9993
vn -0.1080 0.7187 0.6869
vn -0.0321 0.0504 0.9982
vn -0.3799 0.6342 0.6734
vn -0.0506 0.0329 0.9982
vn 0.1013 -0.6842 0.7222
vn 0.3465 -0.5868 0.7318
vn 0.5798 -0.3567 0.7326
vn 0.6826 -0.1057 0.7231
vn -0.0364 0.0112 0.9993
vn -0.6323 0.3834 0.6732
vn 0.1364 -0.9153 0.3790
vn 0.4643 -0.8017 0.3764
vn 0.7837 -0.4937 0.3769
vn 0.9133 -0.1488 0.3792
vn 0.9240 0.0000 0.3825
vn 0.7071 0.0000 0.7071
vn -0.0000 0.0000 1.0000
vn -0.7188 0.1095 0.6866
vn -0.8563 0.5165 -0.0000
vn -0.5126 0.8586 -0.0000
vn -0.6323 0.3834 -0.6732
vn -0.3799 0.6342 -0.6734
vn -0.0506 0.0329 -0.9982
vn -0.9895 0.1444 -0.0000
vn -0.7188 0.1095 -0.6866
vn -0.0364 0.0112 -0.9993
vn 0.6826 -0.1057 -0.7231
vn 0.5798 -0.3567 -0.7326
vn 0.9133 -0.1488 -0.3792
vn 0.7837 -0.4937 -0.3769
vn 0.9240 -0.0000 -0.3825
vn 0.7071 -0.0000 -0.7071
vn -0.0000 -0.0000 -1.0000
vn -0.7071 -0.0000 -0.7071
vn -0.0321 0.0504 -0.9982
vn 0.3465 -0.5868 -0.7318
vn 0.4643 -0.8017 -0.3764
vn 0.1013 -0.6842 -0.7222
vn 0.1364 -0.9153 -0.3790
vn 0.0000 -0.9239 -0.3826
vn 0.0000 -0.7071 -0.7071
vn -0.1428 0.9898 -0.0000
vn -0.1080 0.7187 -0.6869
vn -0.0110 0.0358 -0.9993
vn 0.0000 0.7071 -0.7071
vn 0.0000 1.0000 -0.0000
vn 0.1080 0.7187 -0.6869
vn 0.0110 0.0358 -0.9993
vn 0.0321 0.0504 -0.9982
vn 0.0000 0.0001 -1.0000
vn -0.1013 -0.6842 -0.7222
vn -0.3464 -0.5869 -0.7318
vn -0.5797 -0.3568 -0.7326
vn 0.0506 0.0329 -0.9982
vn -0.6826 -0.1057 -0.7231
vn -0.1364 -0.9153 -0.3790
vn -0.4643 -0.8017 -0.3764
vn -0.7837 -0.4938 -0.3769
vn -0.9132 -0.1489 -0.3794
vn -0.9239 -0.0000 -0.3827
vn 0.0364 0.0112 -0.9993
vn 0.7187 0.1095 -0.6866
vn 1.0000 -0.0000 -0.0000
vn 0.9895 0.1444 -0.0000
vn 0.7187 0.1095 0.6866
vn 0.6323 0.3833 -0.6732
vn 0.8563 0.5165 -0.0000
vn 0.6323 0.3833 0.6732
vn 0.1428 0.9898 -0.0000
vn 0.5126 0.8586 -0.0000
vn 0.3799 0.6342 -0.6734
vn 0.5969 0.3559 0.7191
vn 0.1552 0.0944 0.9834
vn 0.6953 0.1049 0.7110
vn 0.8077 0.4636 0.3642
vn 0.9228 0.1244 0.3648
vn 0.7167 -0.0012 0.6974
vn 0.0001 -0.0004 1.0000
vn -0.7167 -0.0010 0.6974
vn -0.9290 -0.0018 0.3701
vn -0.9221 0.1200 0.3679
vn 0.9288 -0.0019 0.3705
vn 0.0000 -0.0000 1.0000
vn -0.0019 0.7169 0.6972
vn -0.0035 0.9291 0.3699
vn 0.1191 0.9222 0.3680
vn 0.4649 0.8054 0.3677
vn -0.5000 -0.8660 0.0000
vn -0.5000 0.8660 -0.0000
vn 0.5000 0.8660 -0.0000
vn 0.8661 -0.4999 0.0000
vn 0.8660 0.0000 0.5000
vn 1.0000 0.0000 0.0000
vn 0.5000 -0.0000 -0.8660
vn -0.5000 -0.0000 -0.8660
vn -1.0000 0.0000 0.0000
vn -0.5000 0.0000 0.8660
vn 0.4257 0.5244 -0.7374
vn 0.4838 0.2522 -0.8380
vn -0.4257 0.5244 -0.7374
vn -0.4838 0.2522 -0.8380
vn -0.8514 0.5245 0.0000
vn -0.9677 0.2522 0.0000
vn -0.4257 0.5244 0.7374
vn -0.4838 0.2521 0.8381
vn 0.0000 0.4705 0.8824
vn 0.0000 0.2201 0.9755
vn 0.8514 0.5244 0.0000
vn 0.9677 0.2522 0.0000
vn 0.9737 -0.2279 0.0000
vn 0.4868 -0.2279 -0.8432
vn -0.4868 -0.2279 -0.8432
vn -0.9737 -0.2279 0.0000
vn -0.4868 -0.2279 0.8432
vn 0.0000 -0.1986 0.9801
vn -0.4402 -0.4743 -0.7624
vn -0.8803 -0.4744 0.0000
vn -0.4402 -0.4743 0.7624
vn 0.0000 -0.4228 0.9062
vn 0.7641 0.4706 0.4412
vn 0.8448 0.2201 0.4878
vn 0.8487 -0.1987 0.4901
vn 0.7848 -0.4229 0.4531
vn 0.8803 -0.4744 -0.0000
vn 0.4402 -0.4743 -0.7624
vn -0.4999 -0.8661 0.0000
vn -1.0000 -0.0000 0.0000
vn -0.4999 0.8661 -0.0000
vn 0.4999 0.8661 -0.0000
vn 1.0000 -0.0000 0.0000
vn 0.8659 -0.5001 0.0000
vn -0.8660 0.5000 -0.0000
vn -0.0000 1.0000 -0.0000
vn 0.8660 0.5000 -0.0000
vn 0.8660 -0.5000 0.0000
vn 0.5000 -0.8660 0.0000
vn -0.0000 -1.0000 0.0000
vn -0.8660 -0.5000 0.0000
vn 0.0000 1.0000 0.0000
vn -0.4927 -0.8702 0.0000
vn 1.0000 -0.0084 0.0000
vn -1.0000 -0.0084 0.0000
vn 0.4927 -0.8702 0.0000
vn 1.0000 0.0084 -0.0000
vn -0.7157 -0.6984 0.0000
vn -0.2469 -0.9690 0.0000
vn 0.2469 -0.9690 0.0000
vn 0.4999 -0.8661 0.0000
vn 0.7157 -0.6984 0.0000
vn 0.9627 -0.2706 0.0000
vn 0.9627 0.2707 -0.0000
vn 0.7157 0.6984 -0.0000
vn 0.2469 0.9690 -0.0000
vn -0.2469 0.9690 -0.0000
vn -0.7157 0.6984 -0.0000
vn -0.9627 0.2707 -0.0000
vn -0.9627 -0.2706 0.0000
vn -0.5005 0.8657 -0.0000
vn 0.0039 1.0000 -0.0000
vn 0.5073 0.8618 -0.0000
vn -0.5073 0.8618 -0.0000
vn -0.0039 1.0000 -0.0000
vn 0.5005 0.8657 -0.0000
vn 0.4927 0.8702 -0.0000
vn 0.8639 0.5036 -0.0000
vn 0.5005 -0.8657 0.0000
vn -0.0039 -1.0000 0.0000
vn -0.5073 -0.8618 0.0000
vn 0.5073 -0.8618 0.0000
vn 0.0039 -1.0000 0.0000
vn -0.5005 -0.8657 0.0000
vn -0.4927 0.8702 -0.0000
vn -0.8639 0.5036 -0.0000
vn 0.0000 -1.0000 -0.0000
vn -0.0000 -1.0000 -0.0000
vn 0.9239 0.0000 0.3826
vn 0.3826 0.0000 0.9239
vn -1.0000 -0.0000 -0.0000
vn 0.7070 -0.0000 -0.7072
vn 0.7070 0.0000 0.7072
vn 0.3827 0.0000 0.9239
vn -0.3827 0.0000 0.9239
vn -0.7070 0.0000 0.7072
vn -0.7070 -0.0000 -0.7072
vn -0.5307 0.2960 0.7942
vn -0.5445 -0.1990 0.8148
vn -0.5092 -0.4000 0.7621
# 374 vertex normals

vt 0.8209 0.8715 0.0000
vt 0.7894 0.8715 0.0000
vt 0.8209 0.8643 0.0000
vt 0.7894 0.8643 0.0000
vt 0.4196 0.9900 0.0000
vt 0.4195 0.9748 0.0000
vt 0.4567 0.9902 0.0000
vt 0.4567 0.9751 0.0000
vt 0.4934 0.9904 0.0000
vt 0.4935 0.9753 0.0000
vt 0.5290 0.9904 0.0000
vt 0.5297 0.9757 0.0000
vt 0.5622 0.9916 0.0000
vt 0.5646 0.9766 0.0000
vt 0.5907 0.9957 0.0000
vt 0.5965 0.9807 0.0000
vt 0.3449 0.9745 0.0000
vt 0.3447 0.9451 0.0000
vt 0.3822 0.9747 0.0000
vt 0.3821 0.9452 0.0000
vt 0.4195 0.9454 0.0000
vt 0.4569 0.9457 0.0000
vt 0.4944 0.9461 0.0000
vt 0.5319 0.9467 0.0000
vt 0.3840 0.5295 0.0000
vt 0.4221 0.5297 0.0000
vt 0.4603 0.5300 0.0000
vt 0.4984 0.5303 0.0000
vt 0.5366 0.5307 0.0000
vt 0.5696 0.9477 0.0000
vt 0.5748 0.5310 0.0000
vt 0.5364 0.5030 0.0000
vt 0.5736 0.5034 0.0000
vt 0.4985 0.5026 0.0000
vt 0.4603 0.5023 0.0000
vt 0.4222 0.5020 0.0000
vt 0.3840 0.5018 0.0000
vt 0.3457 0.5016 0.0000
vt 0.3458 0.5293 0.0000
vt 0.1950 0.9452 0.0000
vt 0.1932 0.5295 0.0000
vt 0.2324 0.9451 0.0000
vt 0.2313 0.5294 0.0000
vt 0.2699 0.9450 0.0000
vt 0.2695 0.5293 0.0000
vt 0.3073 0.9450 0.0000
vt 0.3077 0.5293 0.0000
vt 0.3075 0.5016 0.0000
vt 0.2693 0.5016 0.0000
vt 0.2311 0.5017 0.0000
vt 0.1929 0.5018 0.0000
vt 0.1547 0.5021 0.0000
vt 0.1550 0.5298 0.0000
vt 0.0068 0.9486 0.0000
vt 0.0023 0.5308 0.0000
vt 0.0449 0.9472 0.0000
vt 0.0405 0.5307 0.0000
vt 0.0826 0.9462 0.0000
vt 0.0787 0.5304 0.0000
vt 0.1202 0.9457 0.0000
vt 0.1169 0.5301 0.0000
vt 0.1576 0.9453 0.0000
vt 0.1166 0.5024 0.0000
vt 0.0787 0.5029 0.0000
vt 0.0414 0.5034 0.0000
vt 0.0064 0.5027 0.0000
vt 0.0528 0.9916 0.0000
vt 0.0505 0.9763 0.0000
vt 0.0862 0.9905 0.0000
vt 0.0853 0.9753 0.0000
vt 0.1220 0.9901 0.0000
vt 0.1215 0.9750 0.0000
vt 0.1587 0.9899 0.0000
vt 0.1584 0.9747 0.0000
vt 0.1958 0.9897 0.0000
vt 0.1956 0.9746 0.0000
vt 0.2329 0.9893 0.0000
vt 0.2329 0.9746 0.0000
vt 0.0240 0.9957 0.0000
vt 0.0178 0.9811 0.0000
vt 0.2702 0.9745 0.0000
vt 0.3076 0.9745 0.0000
vt 0.2701 0.9896 0.0000
vt 0.3073 0.9896 0.0000
vt 0.3449 0.9901 0.0000
vt 0.3824 0.9898 0.0000
vt 0.8405 0.7568 0.0000
vt 0.8412 0.7312 0.0000
vt 0.8578 0.7751 0.0000
vt 0.8593 0.7131 0.0000
vt 0.8844 0.7131 0.0000
vt 0.9017 0.7313 0.0000
vt 0.9011 0.7569 0.0000
vt 0.8829 0.7751 0.0000
vt 0.8829 0.7835 0.0000
vt 0.9010 0.8016 0.0000
vt 0.8577 0.7835 0.0000
vt 0.9017 0.8273 0.0000
vt 0.8844 0.8455 0.0000
vt 0.8593 0.8455 0.0000
vt 0.8411 0.8274 0.0000
vt 0.8404 0.8018 0.0000
vt 0.9252 0.8188 0.0000
vt 0.9255 0.8013 0.0000
vt 0.9743 0.8188 0.0000
vt 0.9741 0.8013 0.0000
vt 0.9316 0.8461 0.0000
vt 0.9298 0.8416 0.0000
vt 0.9498 0.8444 0.0000
vt 0.9453 0.8327 0.0000
vt 0.9265 0.8379 0.0000
vt 0.9366 0.8234 0.0000
vt 0.9223 0.8356 0.0000
vt 0.9629 0.8234 0.0000
vt 0.9730 0.8379 0.0000
vt 0.9772 0.8355 0.0000
vt 0.9143 0.8515 0.0000
vt 0.9136 0.8507 0.0000
vt 0.9125 0.8500 0.0000
vt 0.9136 0.8325 0.0000
vt 0.9163 0.8177 0.0000
vt 0.9164 0.8011 0.0000
vt 0.9049 0.8461 0.0000
vt 0.9254 0.7835 0.0000
vt 0.9741 0.7835 0.0000
vt 0.9832 0.8011 0.0000
vt 0.9832 0.7835 0.0000
vt 0.9832 0.7660 0.0000
vt 0.9741 0.7658 0.0000
vt 0.9743 0.7482 0.0000
vt 0.9252 0.7482 0.0000
vt 0.9366 0.7437 0.0000
vt 0.9255 0.7657 0.0000
vt 0.9164 0.7660 0.0000
vt 0.9163 0.7835 0.0000
vt 0.9163 0.7494 0.0000
vt 0.9136 0.7163 0.0000
vt 0.9142 0.7155 0.0000
vt 0.9265 0.7291 0.0000
vt 0.9223 0.7315 0.0000
vt 0.9125 0.7170 0.0000
vt 0.9049 0.7209 0.0000
vt 0.9136 0.7345 0.0000
vt 0.9297 0.7255 0.0000
vt 0.9148 0.7144 0.0000
vt 0.9316 0.7209 0.0000
vt 0.9345 0.7042 0.0000
vt 0.9498 0.7064 0.0000
vt 0.9498 0.7226 0.0000
vt 0.9650 0.7042 0.0000
vt 0.9679 0.7209 0.0000
vt 0.9183 0.6990 0.0000
vt 0.9698 0.7255 0.0000
vt 0.9812 0.6990 0.0000
vt 0.9847 0.7144 0.0000
vt 0.9853 0.7155 0.0000
vt 0.9860 0.7163 0.0000
vt 0.9730 0.7291 0.0000
vt 0.9870 0.7170 0.0000
vt 0.9772 0.7315 0.0000
vt 0.9859 0.7345 0.0000
vt 0.9833 0.7494 0.0000
vt 0.9946 0.7209 0.0000
vt 0.9453 0.7343 0.0000
vt 0.9542 0.7343 0.0000
vt 0.9629 0.7436 0.0000
vt 0.0528 0.4919 0.0000
vt 0.0504 0.4768 0.0000
vt 0.0862 0.4909 0.0000
vt 0.0240 0.4964 0.0000
vt 0.0177 0.4815 0.0000
vt 0.0068 0.4491 0.0000
vt 0.0853 0.4758 0.0000
vt 0.1220 0.4905 0.0000
vt 0.0449 0.4476 0.0000
vt 0.0023 0.0312 0.0000
vt 0.1215 0.4754 0.0000
vt 0.1587 0.4903 0.0000
vt 0.0826 0.4467 0.0000
vt 0.0405 0.0312 0.0000
vt 0.0064 0.0031 0.0000
vt 0.0414 0.0038 0.0000
vt 0.0787 0.0309 0.0000
vt 0.1201 0.4461 0.0000
vt 0.1584 0.4752 0.0000
vt 0.1956 0.4898 0.0000
vt 0.1955 0.4751 0.0000
vt 0.2327 0.4901 0.0000
vt 0.1576 0.4458 0.0000
vt 0.1950 0.4456 0.0000
vt 0.2328 0.4749 0.0000
vt 0.2324 0.4455 0.0000
vt 0.2702 0.4749 0.0000
vt 0.2698 0.4455 0.0000
vt 0.3075 0.4749 0.0000
vt 0.3072 0.4455 0.0000
vt 0.3448 0.4751 0.0000
vt 0.2700 0.4901 0.0000
vt 0.3075 0.4905 0.0000
vt 0.3450 0.4902 0.0000
vt 0.3823 0.4903 0.0000
vt 0.3821 0.4752 0.0000
vt 0.4195 0.4905 0.0000
vt 0.3446 0.4456 0.0000
vt 0.3820 0.4457 0.0000
vt 0.4194 0.4754 0.0000
vt 0.4194 0.4460 0.0000
vt 0.4566 0.4756 0.0000
vt 0.4568 0.4463 0.0000
vt 0.4934 0.4760 0.0000
vt 0.4943 0.4467 0.0000
vt 0.5296 0.4762 0.0000
vt 0.5318 0.4473 0.0000
vt 0.5645 0.4772 0.0000
vt 0.5695 0.4484 0.0000
vt 0.4566 0.4907 0.0000
vt 0.4931 0.4906 0.0000
vt 0.5288 0.4913 0.0000
vt 0.5621 0.4923 0.0000
vt 0.5906 0.4964 0.0000
vt 0.5964 0.4813 0.0000
vt 0.6076 0.4500 0.0000
vt 0.5749 0.0317 0.0000
vt 0.6132 0.0318 0.0000
vt 0.5737 0.0040 0.0000
vt 0.6092 0.0031 0.0000
vt 0.4603 0.0305 0.0000
vt 0.4222 0.0302 0.0000
vt 0.4985 0.0309 0.0000
vt 0.5367 0.0313 0.0000
vt 0.5365 0.0036 0.0000
vt 0.4986 0.0032 0.0000
vt 0.4604 0.0028 0.0000
vt 0.4222 0.0025 0.0000
vt 0.3840 0.0023 0.0000
vt 0.3840 0.0300 0.0000
vt 0.3458 0.0021 0.0000
vt 0.3459 0.0298 0.0000
vt 0.2695 0.0297 0.0000
vt 0.2314 0.0298 0.0000
vt 0.3077 0.0297 0.0000
vt 0.3076 0.0020 0.0000
vt 0.2694 0.0020 0.0000
vt 0.2311 0.0021 0.0000
vt 0.1929 0.0023 0.0000
vt 0.1932 0.0300 0.0000
vt 0.1547 0.0025 0.0000
vt 0.1550 0.0302 0.0000
vt 0.1166 0.0029 0.0000
vt 0.1169 0.0305 0.0000
vt 0.0787 0.0033 0.0000
vt 0.6284 0.7056 0.0000
vt 0.6391 0.7056 0.0000
vt 0.6284 0.7331 0.0000
vt 0.6186 0.7056 0.0000
vt 0.6186 0.7331 0.0000
vt 0.6284 0.7446 0.0000
vt 0.6186 0.7446 0.0000
vt 0.6284 0.7549 0.0000
vt 0.6186 0.7549 0.0000
vt 0.6284 0.7675 0.0000
vt 0.6186 0.7675 0.0000
vt 0.6186 0.8168 0.0000
vt 0.6284 0.8168 0.0000
vt 0.6391 0.7331 0.0000
vt 0.6391 0.7446 0.0000
vt 0.6391 0.7549 0.0000
vt 0.6391 0.7675 0.0000
vt 0.6391 0.8168 0.0000
vt 0.6284 0.8862 0.0000
vt 0.6503 0.7549 0.0000
vt 0.6503 0.7675 0.0000
vt 0.6503 0.8168 0.0000
vt 0.6391 0.8862 0.0000
vt 0.6503 0.8862 0.0000
vt 0.6391 0.9368 0.0000
vt 0.6503 0.9368 0.0000
vt 0.6391 0.9495 0.0000
vt 0.6503 0.9495 0.0000
vt 0.6391 0.9596 0.0000
vt 0.6284 0.9368 0.0000
vt 0.6284 0.9495 0.0000
vt 0.6284 0.9596 0.0000
vt 0.6284 0.9712 0.0000
vt 0.6391 0.9712 0.0000
vt 0.6503 0.9596 0.0000
vt 0.6186 0.8862 0.0000
vt 0.6186 0.9368 0.0000
vt 0.6186 0.9495 0.0000
vt 0.6186 0.9596 0.0000
vt 0.6186 0.9712 0.0000
vt 0.6186 0.9989 0.0000
vt 0.6284 0.9989 0.0000
vt 0.6391 0.9989 0.0000
vt 0.6503 0.9712 0.0000
vt 0.6624 0.9596 0.0000
vt 0.6624 0.9495 0.0000
vt 0.6757 0.9596 0.0000
vt 0.6757 0.9495 0.0000
vt 0.6875 0.9596 0.0000
vt 0.6503 0.9989 0.0000
vt 0.6624 0.9989 0.0000
vt 0.6624 0.9712 0.0000
vt 0.6757 0.9712 0.0000
vt 0.6875 0.9712 0.0000
vt 0.6981 0.9712 0.0000
vt 0.6981 0.9596 0.0000
vt 0.7079 0.9712 0.0000
vt 0.7079 0.9596 0.0000
vt 0.7079 0.9989 0.0000
vt 0.6981 0.9989 0.0000
vt 0.6875 0.9989 0.0000
vt 0.6757 0.9989 0.0000
vt 0.6875 0.9495 0.0000
vt 0.6981 0.9495 0.0000
vt 0.7079 0.9495 0.0000
vt 0.6981 0.9368 0.0000
vt 0.7079 0.9368 0.0000
vt 0.7079 0.8862 0.0000
vt 0.6981 0.8862 0.0000
vt 0.7079 0.8168 0.0000
vt 0.6624 0.9368 0.0000
vt 0.6757 0.9368 0.0000
vt 0.6875 0.9368 0.0000
vt 0.6757 0.8168 0.0000
vt 0.6624 0.8168 0.0000
vt 0.6757 0.7675 0.0000
vt 0.6624 0.8862 0.0000
vt 0.6757 0.8862 0.0000
vt 0.6875 0.7675 0.0000
vt 0.6875 0.7549 0.0000
vt 0.6875 0.8168 0.0000
vt 0.6875 0.8862 0.0000
vt 0.6981 0.8168 0.0000
vt 0.6981 0.7675 0.0000
vt 0.6981 0.7549 0.0000
vt 0.6981 0.7446 0.0000
vt 0.6875 0.7446 0.0000
vt 0.6981 0.7331 0.0000
vt 0.7079 0.7675 0.0000
vt 0.7079 0.7549 0.0000
vt 0.7079 0.7446 0.0000
vt 0.7079 0.7331 0.0000
vt 0.6981 0.7056 0.0000
vt 0.7079 0.7056 0.0000
vt 0.6875 0.7056 0.0000
vt 0.6875 0.7331 0.0000
vt 0.6757 0.7056 0.0000
vt 0.6757 0.7331 0.0000
vt 0.6624 0.7056 0.0000
vt 0.6624 0.7331 0.0000
vt 0.6503 0.7056 0.0000
vt 0.6503 0.7331 0.0000
vt 0.6757 0.7446 0.0000
vt 0.6624 0.7446 0.0000
vt 0.6503 0.7446 0.0000
vt 0.6624 0.7675 0.0000
vt 0.6624 0.7549 0.0000
vt 0.6757 0.7549 0.0000
vt 0.9698 0.8416 0.0000
vt 0.9542 0.8327 0.0000
vt 0.9680 0.8461 0.0000
vt 0.9853 0.8515 0.0000
vt 0.9847 0.8526 0.0000
vt 0.9650 0.8629 0.0000
vt 0.9498 0.8606 0.0000
vt 0.9345 0.8629 0.0000
vt 0.9183 0.8680 0.0000
vt 0.9148 0.8526 0.0000
vt 0.9812 0.8680 0.0000
vt 0.9833 0.8176 0.0000
vt 0.9859 0.8325 0.0000
vt 0.9946 0.8461 0.0000
vt 0.9870 0.8500 0.0000
vt 0.9860 0.8507 0.0000
vt 0.7524 0.9853 0.0000
vt 0.7632 0.9512 0.0000
vt 0.7578 0.9869 0.0000
vt 0.7525 0.9948 0.0000
vt 0.7807 0.9968 0.0000
vt 0.7346 0.9744 0.0000
vt 0.7279 0.9806 0.0000
vt 0.7250 0.9558 0.0000
vt 0.7155 0.9551 0.0000
vt 0.7237 0.9504 0.0000
vt 0.7242 0.9295 0.0000
vt 0.7155 0.9268 0.0000
vt 0.7355 0.9119 0.0000
vt 0.7598 0.9475 0.0000
vt 0.7586 0.9426 0.0000
vt 0.7734 0.9347 0.0000
vt 0.7769 0.9384 0.0000
vt 0.7780 0.9433 0.0000
vt 0.7765 0.9481 0.0000
vt 0.8116 0.9300 0.0000
vt 0.8129 0.9355 0.0000
vt 0.7396 0.9080 0.0000
vt 0.7638 0.9344 0.0000
vt 0.7601 0.9378 0.0000
vt 0.7686 0.9333 0.0000
vt 0.7788 0.8990 0.0000
vt 0.7842 0.9006 0.0000
vt 0.7313 0.9033 0.0000
vt 0.7579 0.8980 0.0000
vt 0.7559 0.8891 0.0000
vt 0.7841 0.8911 0.0000
vt 0.8020 0.9115 0.0000
vt 0.8087 0.9053 0.0000
vt 0.8211 0.9307 0.0000
vt 0.8124 0.9564 0.0000
vt 0.8211 0.9591 0.0000
vt 0.8011 0.9740 0.0000
vt 0.8053 0.9826 0.0000
vt 0.7680 0.9526 0.0000
vt 0.7728 0.9515 0.0000
vt 0.7970 0.9778 0.0000
vt 0.7787 0.9879 0.0000
vt 0.8768 0.9382 0.0000
vt 0.8777 0.9333 0.0000
vt 0.8943 0.9321 0.0000
vt 0.8810 0.9295 0.0000
vt 0.8857 0.9279 0.0000
vt 0.8906 0.9288 0.0000
vt 0.8920 0.8933 0.0000
vt 0.8974 0.8944 0.0000
vt 0.8546 0.9063 0.0000
vt 0.8509 0.9105 0.0000
vt 0.8918 0.9455 0.0000
vt 0.8871 0.9471 0.0000
vt 0.8822 0.9461 0.0000
vt 0.8784 0.9429 0.0000
vt 0.8453 0.9547 0.0000
vt 0.8435 0.9495 0.0000
vt 0.8753 0.9806 0.0000
vt 0.8807 0.9817 0.0000
vt 0.8332 0.9273 0.0000
vt 0.8421 0.9290 0.0000
vt 0.8357 0.9551 0.0000
vt 0.8510 0.9784 0.0000
vt 0.8569 0.9716 0.0000
vt 0.8763 0.9901 0.0000
vt 0.9041 0.9886 0.0000
vt 0.9012 0.9801 0.0000
vt 0.9269 0.9725 0.0000
vt 0.9182 0.9687 0.0000
vt 0.9218 0.9645 0.0000
vt 0.8950 0.9417 0.0000
vt 0.8960 0.9368 0.0000
vt 0.9274 0.9203 0.0000
vt 0.9293 0.9255 0.0000
vt 0.9370 0.9199 0.0000
vt 0.9306 0.9460 0.0000
vt 0.9395 0.9477 0.0000
vt 0.9158 0.9034 0.0000
vt 0.9217 0.8966 0.0000
vt 0.8964 0.8849 0.0000
vt 0.8686 0.8864 0.0000
vt 0.8716 0.8949 0.0000
vt 0.8458 0.9025 0.0000
vt 0.9479 0.4448 0.0000
vt 0.9337 0.4449 0.0000
vt 0.9479 0.4323 0.0000
vt 0.9337 0.4324 0.0000
vt 0.9479 0.4197 0.0000
vt 0.9337 0.4198 0.0000
vt 0.9479 0.4072 0.0000
vt 0.9337 0.4073 0.0000
vt 0.9479 0.3946 0.0000
vt 0.9337 0.3947 0.0000
vt 0.9479 0.3821 0.0000
vt 0.9337 0.3822 0.0000
vt 0.9479 0.3695 0.0000
vt 0.9337 0.3696 0.0000
vt 0.9636 0.0169 0.0000
vt 0.9709 0.0169 0.0000
vt 0.9636 0.0357 0.0000
vt 0.9709 0.0357 0.0000
vt 0.9636 0.0545 0.0000
vt 0.9709 0.0545 0.0000
vt 0.9636 0.0734 0.0000
vt 0.9709 0.0734 0.0000
vt 0.9636 0.0922 0.0000
vt 0.9709 0.0922 0.0000
vt 0.9636 0.1110 0.0000
vt 0.9709 0.1110 0.0000
vt 0.9636 0.1299 0.0000
vt 0.9709 0.1299 0.0000
vt 0.9558 0.0727 0.0000
vt 0.9486 0.0727 0.0000
vt 0.9559 0.0574 0.0000
vt 0.9491 0.0574 0.0000
vt 0.9562 0.0422 0.0000
vt 0.9493 0.0422 0.0000
vt 0.9566 0.0274 0.0000
vt 0.9499 0.0268 0.0000
vt 0.9580 0.0142 0.0000
vt 0.9514 0.0112 0.0000
vt 0.9553 0.0876 0.0000
vt 0.9486 0.0879 0.0000
vt 0.9330 0.0881 0.0000
vt 0.9329 0.0725 0.0000
vt 0.9333 0.0571 0.0000
vt 0.9336 0.0416 0.0000
vt 0.9344 0.0262 0.0000
vt 0.9348 0.0102 0.0000
vt 0.9264 0.0570 0.0000
vt 0.9272 0.0414 0.0000
vt 0.9277 0.0263 0.0000
vt 0.9278 0.0121 0.0000
vt 0.9560 0.1011 0.0000
vt 0.9494 0.1038 0.0000
vt 0.9327 0.1038 0.0000
vt 0.9259 0.1017 0.0000
vt 0.9266 0.0877 0.0000
vt 0.9263 0.0726 0.0000
vt 0.9739 0.3625 0.0000
vt 0.9525 0.3625 0.0000
vt 0.9739 0.3582 0.0000
vt 0.9525 0.3582 0.0000
vt 0.9739 0.3539 0.0000
vt 0.9525 0.3539 0.0000
vt 0.9739 0.3497 0.0000
vt 0.9525 0.3496 0.0000
vt 0.9739 0.3454 0.0000
vt 0.9525 0.3453 0.0000
vt 0.9739 0.3411 0.0000
vt 0.9525 0.3411 0.0000
vt 0.9739 0.3368 0.0000
vt 0.9525 0.3368 0.0000
vt 0.9791 0.2943 0.0000
vt 0.9889 0.2942 0.0000
vt 0.9791 0.3112 0.0000
vt 0.9889 0.3111 0.0000
vt 0.9791 0.3280 0.0000
vt 0.9889 0.3279 0.0000
vt 0.9791 0.3449 0.0000
vt 0.9889 0.3448 0.0000
vt 0.9791 0.3617 0.0000
vt 0.9889 0.3616 0.0000
vt 0.9791 0.3786 0.0000
vt 0.9889 0.3785 0.0000
vt 0.9791 0.3954 0.0000
vt 0.9889 0.3953 0.0000
vt 0.9322 0.2962 0.0000
vt 0.9467 0.2963 0.0000
vt 0.9322 0.3079 0.0000
vt 0.9467 0.3081 0.0000
vt 0.9322 0.3196 0.0000
vt 0.9467 0.3198 0.0000
vt 0.9322 0.3313 0.0000
vt 0.9467 0.3315 0.0000
vt 0.9322 0.3431 0.0000
vt 0.9467 0.3432 0.0000
vt 0.9322 0.3548 0.0000
vt 0.9467 0.3549 0.0000
vt 0.9322 0.3665 0.0000
vt 0.9467 0.3667 0.0000
vt 0.8437 0.5902 0.0000
vt 0.8625 0.5715 0.0000
vt 0.8336 0.6148 0.0000
vt 0.8871 0.5613 0.0000
vt 0.9136 0.5613 0.0000
vt 0.9382 0.5715 0.0000
vt 0.9570 0.5902 0.0000
vt 0.9671 0.6148 0.0000
vt 0.9671 0.6414 0.0000
vt 0.9570 0.6659 0.0000
vt 0.9382 0.6847 0.0000
vt 0.9136 0.6949 0.0000
vt 0.8871 0.6949 0.0000
vt 0.8625 0.6847 0.0000
vt 0.8437 0.6659 0.0000
vt 0.8336 0.6414 0.0000
vt 0.8459 0.9848 0.0000
vt 0.8750 0.9983 0.0000
vt 0.8281 0.9580 0.0000
vt 0.8251 0.9261 0.0000
vt 0.8394 0.8973 0.0000
vt 0.8656 0.8788 0.0000
vt 0.8977 0.8767 0.0000
vt 0.9269 0.8902 0.0000
vt 0.9447 0.9170 0.0000
vt 0.9476 0.9489 0.0000
vt 0.9333 0.9777 0.0000
vt 0.9071 0.9962 0.0000
vt 0.8194 0.7186 0.0000
vt 0.7313 0.7186 0.0000
vt 0.8195 0.8439 0.0000
vt 0.7313 0.8439 0.0000
vt 0.8194 0.7054 0.0000
vt 0.7312 0.7054 0.0000
vt 0.8327 0.8439 0.0000
vt 0.8327 0.7186 0.0000
vt 0.7314 0.8571 0.0000
vt 0.8195 0.8571 0.0000
vt 0.7180 0.7186 0.0000
vt 0.7181 0.8439 0.0000
vt 0.8711 0.5075 0.0000
vt 0.6760 0.5075 0.0000
vt 0.8711 0.0550 0.0000
vt 0.6760 0.0550 0.0000
vt 0.6269 0.5075 0.0000
vt 0.6269 0.0550 0.0000
vt 0.8711 0.0059 0.0000
vt 0.6760 0.0059 0.0000
vt 0.8711 0.5567 0.0000
vt 0.6760 0.5567 0.0000
vt 0.9203 0.0550 0.0000
vt 0.9203 0.5075 0.0000
vt 0.9940 0.9497 0.0000
vt 0.9940 0.9812 0.0000
vt 0.9869 0.9497 0.0000
vt 0.9869 0.9812 0.0000
vt 0.9604 0.8753 0.0000
vt 0.9604 0.9068 0.0000
vt 0.9532 0.8753 0.0000
vt 0.9532 0.9068 0.0000
vt 0.7165 0.8771 0.0000
vt 0.7481 0.8771 0.0000
vt 0.7165 0.8843 0.0000
vt 0.7481 0.8843 0.0000
vt 0.9638 0.9079 0.0000
vt 0.9639 0.8763 0.0000
vt 0.9710 0.9079 0.0000
vt 0.9710 0.8763 0.0000
vt 0.9750 0.9812 0.0000
vt 0.9751 0.9497 0.0000
vt 0.9822 0.9812 0.0000
vt 0.9823 0.9497 0.0000
vt 0.9532 0.9437 0.0000
vt 0.9532 0.9253 0.0000
vt 0.9604 0.9437 0.0000
vt 0.9604 0.9253 0.0000
vt 0.7665 0.8771 0.0000
vt 0.7665 0.8843 0.0000
vt 0.7850 0.8771 0.0000
vt 0.7850 0.8843 0.0000
vt 0.9869 0.9313 0.0000
vt 0.9940 0.9313 0.0000
vt 0.9869 0.9128 0.0000
vt 0.9941 0.9128 0.0000
vt 0.7525 0.8643 0.0000
vt 0.7709 0.8643 0.0000
vt 0.7525 0.8715 0.0000
vt 0.7709 0.8715 0.0000
vt 0.9752 0.9312 0.0000
vt 0.9823 0.9313 0.0000
vt 0.9752 0.9128 0.0000
vt 0.9824 0.9128 0.0000
vt 0.9638 0.9447 0.0000
vt 0.9638 0.9263 0.0000
vt 0.9710 0.9447 0.0000
vt 0.9710 0.9263 0.0000
vt 0.8209 0.8843 0.0000
vt 0.8165 0.8843 0.0000
vt 0.8209 0.8771 0.0000
vt 0.8165 0.8771 0.0000
vt 0.9604 0.9752 0.0000
vt 0.9532 0.9752 0.0000
vt 0.9604 0.9797 0.0000
vt 0.9532 0.9797 0.0000
vt 0.9710 0.9763 0.0000
vt 0.9638 0.9763 0.0000
vt 0.9710 0.9807 0.0000
vt 0.9638 0.9807 0.0000
vt 0.9824 0.8769 0.0000
vt 0.9824 0.8813 0.0000
vt 0.9752 0.8769 0.0000
vt 0.9752 0.8813 0.0000
vt 0.7210 0.8715 0.0000
vt 0.7210 0.8643 0.0000
vt 0.7165 0.8715 0.0000
vt 0.7165 0.8643 0.0000
vt 0.9869 0.8813 0.0000
vt 0.9940 0.8813 0.0000
vt 0.9869 0.8769 0.0000
vt 0.9940 0.8769 0.0000
vt 0.9532 0.3914 0.0000
vt 0.9532 0.3789 0.0000
vt 0.9641 0.3977 0.0000
vt 0.9640 0.3727 0.0000
vt 0.9749 0.3790 0.0000
vt 0.9750 0.3915 0.0000
vt 0.0153 0.4944 0.0000
vt 0.0132 0.4957 0.0000
vt 0.0153 0.4921 0.0000
vt 0.0111 0.4945 0.0000
vt 0.0111 0.4921 0.0000
vt 0.0132 0.4909 0.0000
vt 0.9730 0.2323 0.0000
vt 0.9991 0.2474 0.0000
vt 0.9469 0.2474 0.0000
vt 0.9991 0.2775 0.0000
vt 0.9730 0.2926 0.0000
vt 0.9469 0.2775 0.0000
vt 0.9753 0.2258 0.0000
vt 0.9493 0.2408 0.0000
vt 0.9753 0.1957 0.0000
vt 0.9232 0.2258 0.0000
vt 0.9232 0.1957 0.0000
vt 0.9493 0.1806 0.0000
vt 0.9957 0.5146 0.0000
vt 0.9812 0.5230 0.0000
vt 0.9957 0.4979 0.0000
vt 0.9668 0.5146 0.0000
vt 0.9668 0.4979 0.0000
vt 0.9812 0.4896 0.0000
vt 0.9816 0.5269 0.0000
vt 0.9960 0.5353 0.0000
vt 0.9671 0.5353 0.0000
vt 0.9960 0.5520 0.0000
vt 0.9816 0.5603 0.0000
vt 0.9671 0.5520 0.0000
vt 0.9511 0.1064 0.0000
vt 0.9601 0.1220 0.0000
vt 0.9330 0.1064 0.0000
vt 0.9511 0.1377 0.0000
vt 0.9330 0.1377 0.0000
vt 0.9240 0.1220 0.0000
vt 0.9437 0.1409 0.0000
vt 0.9593 0.1499 0.0000
vt 0.9281 0.1499 0.0000
vt 0.9593 0.1680 0.0000
vt 0.9437 0.1770 0.0000
vt 0.9281 0.1680 0.0000
vt 0.9657 0.4856 0.0000
vt 0.9546 0.4745 0.0000
vt 0.9814 0.4856 0.0000
vt 0.9546 0.4588 0.0000
vt 0.9657 0.4476 0.0000
vt 0.9814 0.4476 0.0000
vt 0.9926 0.4588 0.0000
vt 0.9926 0.4745 0.0000
vt 0.9828 0.4443 0.0000
vt 0.9671 0.4443 0.0000
vt 0.9940 0.4332 0.0000
vt 0.9560 0.4332 0.0000
vt 0.9560 0.4174 0.0000
vt 0.9671 0.4063 0.0000
vt 0.9828 0.4063 0.0000
vt 0.9940 0.4174 0.0000
vt 0.9858 0.6152 0.0000
vt 0.9858 0.5980 0.0000
vt 0.9914 0.6152 0.0000
vt 0.9914 0.5980 0.0000
vt 0.9858 0.5809 0.0000
vt 0.9914 0.5809 0.0000
vt 0.9858 0.5638 0.0000
vt 0.9914 0.5638 0.0000
vt 0.9858 0.7008 0.0000
vt 0.9858 0.6837 0.0000
vt 0.9914 0.7008 0.0000
vt 0.9914 0.6837 0.0000
vt 0.9858 0.6666 0.0000
vt 0.9914 0.6666 0.0000
vt 0.9858 0.6494 0.0000
vt 0.9914 0.6494 0.0000
vt 0.9858 0.6323 0.0000
vt 0.9914 0.6323 0.0000
vt 0.9751 0.6122 0.0000
vt 0.9751 0.5961 0.0000
vt 0.9811 0.6123 0.0000
vt 0.9811 0.5961 0.0000
vt 0.9751 0.5799 0.0000
vt 0.9811 0.5800 0.0000
vt 0.9751 0.5638 0.0000
vt 0.9811 0.5638 0.0000
vt 0.9751 0.6929 0.0000
vt 0.9751 0.6768 0.0000
vt 0.9811 0.6930 0.0000
vt 0.9811 0.6768 0.0000
vt 0.9751 0.6606 0.0000
vt 0.9811 0.6607 0.0000
vt 0.9751 0.6445 0.0000
vt 0.9811 0.6446 0.0000
vt 0.9751 0.6283 0.0000
vt 0.9811 0.6284 0.0000
vt 0.9950 0.0104 0.0000
vt 0.9950 0.0408 0.0000
vt 0.9762 0.0106 0.0000
vt 0.9762 0.0410 0.0000
vt 0.9950 0.0712 0.0000
vt 0.9762 0.0714 0.0000
vt 0.9950 0.1017 0.0000
vt 0.9762 0.1018 0.0000
vt 0.9950 0.1321 0.0000
vt 0.9762 0.1322 0.0000
vt 0.9950 0.1625 0.0000
vt 0.9762 0.1627 0.0000
vt 0.9950 0.1929 0.0000
vt 0.9762 0.1931 0.0000
vt 0.7730 0.6971 0.0000
vt 0.7465 0.6971 0.0000
vt 0.6930 0.6170 0.0000
vt 0.7219 0.6869 0.0000
vt 0.7031 0.6682 0.0000
vt 0.6930 0.6436 0.0000
vt 0.7031 0.5925 0.0000
vt 0.7219 0.5737 0.0000
vt 0.7465 0.5635 0.0000
vt 0.7730 0.5635 0.0000
vt 0.7976 0.5737 0.0000
vt 0.8164 0.5925 0.0000
vt 0.8265 0.6170 0.0000
vt 0.8265 0.6436 0.0000
vt 0.8164 0.6682 0.0000
vt 0.7976 0.6869 0.0000
vt 0.6077 0.9494 0.0000
vt 0.6131 0.5312 0.0000
vt 0.6091 0.5025 0.0000
# 810 texture coords

g Mesh_806
usemtl Tex_0053_0_dds
s 1
f 1/1/1 2/2/1 3/3/1 
s 2
f 4/4/1 3/3/1 2/2/1 
s 3
f 5/5/2 6/6/3 7/7/4 
s 4
f 8/8/5 7/7/4 6/6/3 
s 5
f 7/7/4 8/8/5 9/9/6 
s 6
f 10/10/7 9/9/6 8/8/5 
s 7
f 9/9/6 10/10/7 11/11/8 
s 8
f 12/12/9 11/11/8 10/10/10 
s 9
f 11/11/8 12/12/9 13/13/11 
s 10
f 14/14/12 13/13/11 12/12/9 
s 11
f 13/13/11 14/14/12 15/15/13 
s 12
f 16/16/14 15/15/13 14/14/12 
s 13
f 17/17/15 18/18/16 19/19/17 
s 14
f 20/20/18 19/19/17 18/18/16 
s 15
f 19/19/17 20/20/18 6/6/3 
s 16
f 21/21/19 6/6/3 20/20/18 
s 17
f 6/6/3 21/21/19 8/8/5 
s 18
f 22/22/20 8/8/5 21/21/19 
s 19
f 8/8/5 22/22/20 10/10/7 
s 20
f 23/23/21 10/10/7 22/22/20 
s 21
f 10/10/7 23/23/21 12/12/9 
s 22
f 24/24/22 12/12/9 23/23/21 
s 23
f 20/20/18 25/25/23 21/21/19 
s 24
f 26/26/24 21/21/19 25/25/23 
s 25
f 21/21/19 26/26/24 22/22/20 
s 26
f 27/27/25 22/22/20 26/26/24 
s 27
f 22/22/20 27/27/25 23/23/21 
s 28
f 28/28/26 23/23/21 27/27/25 
s 29
f 23/23/21 28/28/26 24/24/22 
s 30
f 29/29/27 24/24/22 28/28/26 
s 31
f 24/24/22 29/29/27 30/30/28 
s 32
f 31/31/29 30/30/28 29/29/27 
s 33
f 29/29/27 32/32/30 31/31/29 
s 34
f 33/33/31 31/31/29 32/32/30 
s 35
f 32/32/30 29/29/27 34/34/32 
s 36
f 28/28/26 34/34/32 29/29/27 
s 37
f 34/34/32 28/28/26 35/35/33 
s 38
f 27/27/25 35/35/33 28/28/26 
s 39
f 35/35/33 27/27/25 36/36/34 
s 40
f 26/26/24 36/36/34 27/27/25 
s 41
f 36/36/34 26/26/24 37/37/35 
s 42
f 25/25/23 37/37/35 26/26/24 
s 43
f 37/37/35 25/25/23 38/38/36 
s 44
f 39/39/37 38/38/36 25/25/23 
s 45
f 40/40/38 41/41/39 42/42/40 
s 46
f 43/43/41 42/42/40 41/41/39 
s 47
f 42/42/40 43/43/41 44/44/42 
s 48
f 45/45/43 44/44/42 43/43/41 
s 49
f 44/44/42 45/45/43 46/46/44 
s 50
f 47/47/45 46/46/44 45/45/43 
s 51
f 46/46/44 47/47/45 18/18/16 
s 52
f 39/39/37 18/18/16 47/47/45 
s 53
f 18/18/16 39/39/37 20/20/18 
s 54
f 25/25/23 20/20/18 39/39/37 
s 55
f 38/38/36 39/39/37 48/48/46 
s 56
f 47/47/45 48/48/46 39/39/37 
s 57
f 48/48/46 47/47/45 49/49/47 
s 58
f 45/45/43 49/49/47 47/47/45 
s 59
f 49/49/47 45/45/43 50/50/48 
s 60
f 43/43/41 50/50/48 45/45/43 
s 61
f 50/50/48 43/43/41 51/51/49 
s 62
f 41/41/39 51/51/49 43/43/41 
s 63
f 51/51/49 41/41/39 52/52/50 
s 64
f 53/53/51 52/52/50 41/41/39 
s 65
f 54/54/52 55/55/53 56/56/54 
s 66
f 57/57/55 56/56/54 55/55/53 
s 67
f 56/56/54 57/57/55 58/58/56 
s 68
f 59/59/57 58/58/56 57/57/55 
s 69
f 58/58/56 59/59/57 60/60/58 
s 70
f 61/61/59 60/60/58 59/59/57 
s 71
f 60/60/58 61/61/59 62/62/60 
s 72
f 53/53/51 62/62/60 61/61/59 
s 73
f 62/62/60 53/53/51 40/40/38 
s 74
f 41/41/39 40/40/38 53/53/51 
s 75
f 52/52/50 53/53/51 63/63/61 
s 76
f 61/61/59 63/63/61 53/53/51 
s 77
f 63/63/61 61/61/59 64/64/62 
s 78
f 59/59/57 64/64/62 61/61/59 
s 79
f 64/64/62 59/59/57 65/65/63 
s 80
f 57/57/55 65/65/63 59/59/57 
s 81
f 65/65/63 57/57/55 66/66/64 
s 82
f 55/55/53 66/66/64 57/57/55 
s 83
f 67/67/65 68/68/66 69/69/67 
s 84
f 70/70/68 69/69/67 68/68/66 
s 85
f 69/69/67 70/70/68 71/71/69 
s 86
f 72/72/70 71/71/69 70/70/68 
s 87
f 71/71/69 72/72/70 73/73/71 
s 88
f 74/74/72 73/73/71 72/72/70 
s 89
f 73/73/71 74/74/72 75/75/73 
s 90
f 76/76/74 75/75/73 74/74/72 
s 91
f 75/75/73 76/76/74 77/77/75 
s 92
f 78/78/76 77/77/75 76/76/74 
s 93
f 15/79/77 16/80/78 67/67/65 
s 94
f 68/68/66 67/67/65 16/80/78 
s 95
f 16/80/78 54/54/52 68/68/66 
s 96
f 56/56/54 68/68/66 54/54/52 
s 97
f 68/68/66 56/56/54 70/70/68 
s 98
f 58/58/56 70/70/68 56/56/54 
s 99
f 70/70/68 58/58/56 72/72/70 
s 100
f 60/60/58 72/72/70 58/58/56 
s 101
f 72/72/70 60/60/58 74/74/72 
s 102
f 62/62/60 74/74/72 60/60/58 
s 103
f 74/74/72 62/62/60 76/76/74 
s 104
f 40/40/38 76/76/74 62/62/60 
s 105
f 76/76/74 40/40/38 78/78/76 
s 106
f 42/42/40 78/78/76 40/40/38 
s 107
f 78/78/76 42/42/40 79/81/79 
s 108
f 44/44/42 79/81/79 42/42/40 
s 109
f 79/81/79 44/44/42 80/82/80 
s 110
f 46/46/44 80/82/80 44/44/42 
s 111
f 80/82/80 46/46/44 17/17/15 
s 112
f 18/18/16 17/17/15 46/46/44 
s 113
f 77/77/75 78/78/76 81/83/81 
s 114
f 79/81/79 81/83/81 78/78/76 
s 115
f 81/83/81 79/81/79 82/84/82 
s 116
f 80/82/80 82/84/82 79/81/79 
s 117
f 82/84/82 80/82/80 83/85/83 
s 118
f 17/17/15 83/85/83 80/82/80 
s 119
f 83/85/83 17/17/15 84/86/84 
s 120
f 19/19/17 84/86/84 17/17/15 
s 121
f 84/86/84 19/19/17 5/5/2 
s 122
f 6/6/3 5/5/2 19/19/17 
s 123
f 85/87/85 86/88/85 87/89/85 
s 124
f 86/88/85 88/90/85 87/89/85 
s 125
f 88/90/85 89/91/85 87/89/85 
s 126
f 89/91/85 90/92/85 87/89/85 
s 127
f 90/92/85 91/93/85 87/89/85 
s 128
f 91/93/85 92/94/85 87/89/85 
s 129
f 93/95/86 94/96/86 95/97/86 
s 130
f 94/96/86 96/98/86 95/97/86 
s 131
f 96/98/86 97/99/86 95/97/86 
s 132
f 97/99/86 98/100/86 95/97/86 
s 133
f 98/100/86 99/101/86 95/97/86 
s 134
f 99/101/86 100/102/86 95/97/86 
s 135
f 101/103/87 102/104/88 103/105/89 
s 136
f 104/106/88 103/105/89 102/104/88 
s 137
f 105/107/90 106/108/91 107/109/92 
s 138
f 108/110/93 107/109/92 106/108/91 
s 139
f 106/108/91 109/111/94 108/110/93 
s 140
f 110/112/95 108/110/93 109/111/94 
s 141
f 109/111/94 111/113/96 110/112/95 
s 142
f 101/103/87 110/112/95 111/113/96 
s 143
f 110/112/95 101/103/87 112/114/97 
s 144
f 103/105/89 112/114/97 101/103/87 
s 145
f 112/114/97 103/105/89 113/115/98 
s 146
f 114/116/99 113/115/98 103/105/89 
s 147
f 106/108/91 105/107/90 115/117/100 
s 148
f 115/117/100 116/118/101 106/108/91 
s 149
f 109/111/94 106/108/91 116/118/101 
s 150
f 116/118/101 117/119/102 109/111/94 
s 151
f 111/113/96 109/111/94 117/119/102 
s 152
f 111/113/96 117/119/102 85/120/103 
s 153
f 85/120/103 87/121/104 111/113/96 
s 154
f 101/103/87 111/113/96 87/121/104 
s 155
f 87/121/104 92/122/88 101/103/87 
s 156
f 102/104/88 101/103/87 92/122/88 
s 157
f 86/123/105 85/120/103 117/119/102 
s 158
f 102/104/88 92/122/88 118/124/106 
s 159
f 102/104/88 118/124/106 104/106/88 
s 160
f 119/125/106 104/106/88 118/124/106 
s 161
f 104/106/88 119/125/106 93/126/88 
s 162
f 94/127/106 93/126/88 119/125/106 
s 163
f 94/127/106 119/125/106 96/128/107 
s 164
f 120/129/107 96/128/107 119/125/106 
s 165
f 120/129/107 121/130/108 96/128/107 
s 166
f 121/130/108 120/129/107 122/131/109 
s 167
f 122/131/109 123/132/110 121/130/108 
s 168
f 118/124/106 124/133/107 119/125/106 
s 169
f 124/133/107 118/124/106 90/134/107 
s 170
f 91/135/106 90/134/107 118/124/106 
s 171
f 91/135/106 118/124/106 92/122/88 
s 172
f 90/134/107 89/136/111 124/133/107 
s 173
f 116/137/112 115/138/113 125/139/114 
s 174
f 125/139/114 126/140/115 116/137/112 
s 175
f 117/141/116 116/137/112 126/140/115 
s 176
f 117/141/116 126/140/115 86/142/117 
s 177
f 88/143/118 86/142/117 126/140/115 
s 178
f 126/140/115 122/131/109 88/143/118 
s 179
f 89/136/111 88/143/118 122/131/109 
s 180
f 122/131/109 124/133/107 89/136/111 
s 181
f 124/133/107 122/131/109 120/129/107 
s 182
f 120/129/107 119/125/106 124/133/107 
s 183
f 126/140/115 125/139/114 122/131/109 
s 184
f 123/132/110 122/131/109 125/139/114 
s 185
f 125/139/114 127/144/119 123/132/110 
s 186
f 127/144/119 125/139/114 115/138/113 
s 187
f 115/138/113 128/145/120 127/144/119 
s 188
f 129/146/121 127/144/119 128/145/120 
s 189
f 129/146/121 128/145/120 130/147/122 
s 190
f 130/147/122 131/148/123 129/146/121 
s 191
f 132/149/124 129/146/121 131/148/123 
s 192
f 131/148/123 133/150/125 132/149/124 
s 193
f 134/151/126 132/149/124 133/150/125 
s 194
f 135/152/127 130/147/122 128/145/120 
s 195
f 134/151/126 136/153/128 132/149/124 
s 196
f 133/150/125 137/154/129 134/151/126 
s 197
f 138/155/130 134/151/126 137/154/129 
s 198
f 138/155/130 139/156/131 134/151/126 
s 199
f 136/153/128 134/151/126 139/156/131 
s 200
f 139/156/131 140/157/132 136/153/128 
s 201
f 141/158/133 136/153/128 140/157/132 
s 202
f 140/157/132 142/159/134 141/158/133 
s 203
f 143/160/135 141/158/133 142/159/134 
s 204
f 143/160/135 142/159/134 98/161/136 
s 205
f 98/161/136 97/162/137 143/160/135 
s 206
f 121/130/108 143/160/135 97/162/137 
s 207
f 97/162/137 96/128/107 121/130/108 
s 208
f 99/163/138 98/161/136 142/159/134 
s 209
f 144/164/139 123/132/110 127/144/119 
s 210
f 127/144/119 129/146/121 144/164/139 
s 211
f 132/149/124 144/164/139 129/146/121 
s 212
f 145/165/140 144/164/139 132/149/124 
s 213
f 145/165/140 132/149/124 136/153/128 
s 214
f 136/153/128 141/158/133 145/165/140 
s 215
f 146/166/141 145/165/140 141/158/133 
s 216
f 141/158/133 143/160/135 146/166/141 
s 217
f 121/130/108 146/166/141 143/160/135 
s 218
f 146/166/141 121/130/108 123/132/110 
s 219
f 146/166/141 123/132/110 145/165/140 
s 220
f 144/164/139 145/165/140 123/132/110 
s 221
f 147/167/67 148/168/68 149/169/69 
s 222
f 150/170/142 151/171/143 147/167/67 
s 223
f 148/168/68 147/167/67 151/171/143 
s 224
f 151/171/143 152/172/144 148/168/68 
s 225
f 149/169/69 153/173/70 154/174/71 
s 226
f 153/173/70 149/169/69 148/168/68 
s 227
f 148/168/68 155/175/56 153/173/70 
s 228
f 155/175/56 148/168/68 152/172/144 
s 229
f 152/172/144 156/176/145 155/175/56 
s 230
f 154/174/71 157/177/72 158/178/73 
s 231
f 157/177/72 154/174/71 153/173/70 
s 232
f 153/173/70 159/179/58 157/177/72 
s 233
f 159/179/58 153/173/70 155/175/56 
s 234
f 155/175/56 160/180/57 159/179/58 
s 235
f 160/180/57 155/175/56 156/176/145 
s 236
f 156/176/145 161/181/146 160/180/57 
s 237
f 162/182/62 160/180/57 161/181/146 
s 238
f 160/180/57 162/182/62 163/183/59 
s 239
f 163/183/59 159/179/58 160/180/57 
s 240
f 159/179/58 163/183/59 164/184/60 
s 241
f 164/184/60 157/177/72 159/179/58 
s 242
f 157/177/72 164/184/60 165/185/74 
s 243
f 165/185/74 158/178/73 157/177/72 
s 244
f 158/178/73 165/185/74 166/186/75 
s 245
f 167/187/76 166/186/75 165/185/74 
s 246
f 166/186/75 167/187/76 168/188/81 
s 247
f 169/189/38 165/185/74 164/184/60 
s 248
f 165/185/74 169/189/38 167/187/76 
s 249
f 170/190/40 167/187/76 169/189/38 
s 250
f 167/187/76 170/190/40 171/191/79 
s 251
f 172/192/42 171/191/79 170/190/40 
s 252
f 171/191/79 172/192/42 173/193/80 
s 253
f 174/194/44 173/193/80 172/192/42 
s 254
f 173/193/80 174/194/44 175/195/15 
s 255
f 176/196/16 175/195/15 174/194/44 
s 256
f 175/195/15 176/196/16 177/197/17 
s 257
f 171/191/79 168/188/81 167/187/76 
s 258
f 168/188/81 171/191/79 178/198/82 
s 259
f 173/193/80 178/198/82 171/191/79 
s 260
f 178/198/82 173/193/80 179/199/83 
s 261
f 175/195/15 179/199/83 173/193/80 
s 262
f 179/199/83 175/195/15 180/200/84 
s 263
f 177/197/17 180/200/84 175/195/15 
s 264
f 180/200/84 177/197/17 181/201/147 
s 265
f 182/202/3 181/201/147 177/197/17 
s 266
f 181/201/147 182/202/3 183/203/4 
s 267
f 184/204/18 177/197/17 176/196/16 
s 268
f 177/197/17 184/204/18 182/202/3 
s 269
f 185/205/19 182/202/3 184/204/18 
s 270
f 182/202/3 185/205/19 186/206/148 
s 271
f 187/207/20 186/206/148 185/205/19 
s 272
f 186/206/148 187/207/20 188/208/149 
s 273
f 189/209/21 188/208/149 187/207/20 
s 274
f 188/208/149 189/209/21 190/210/9 
s 275
f 191/211/22 190/210/9 189/209/21 
s 276
f 190/210/9 191/211/22 192/212/12 
s 277
f 193/213/28 192/212/12 191/211/22 
s 278
f 192/212/12 193/213/28 194/214/150 
s 279
f 195/215/151 194/214/150 193/213/28 
s 280
f 186/206/148 183/203/4 182/202/3 
s 281
f 183/203/4 186/206/148 196/216/152 
s 282
f 188/208/149 196/216/152 186/206/148 
s 283
f 196/216/152 188/208/149 197/217/8 
s 284
f 190/210/9 197/217/8 188/208/149 
s 285
f 197/217/8 190/210/9 198/218/153 
s 286
f 192/212/12 198/218/153 190/210/9 
s 287
f 198/218/153 192/212/12 199/219/154 
s 288
f 194/214/150 199/219/154 192/212/12 
s 289
f 199/219/154 194/214/150 150/220/77 
s 290
f 151/221/78 150/220/77 194/214/150 
s 291
f 194/214/150 195/215/151 151/221/78 
s 292
f 152/222/52 151/221/78 195/215/151 
s 293
f 195/215/151 200/223/155 152/222/52 
s 294
f 156/224/53 152/222/52 200/223/155 
s 295
f 200/223/155 201/225/156 156/224/53 
s 296
f 161/226/64 156/224/53 201/225/156 
s 297
f 202/227/157 189/209/21 203/228/158 
s 298
f 189/209/21 202/227/157 191/211/22 
s 299
f 204/229/27 191/211/22 202/227/157 
s 300
f 191/211/22 204/229/27 193/213/28 
s 301
f 205/230/29 193/213/28 204/229/27 
s 302
f 193/213/28 205/230/29 195/215/151 
s 303
f 200/223/155 195/215/151 205/230/29 
s 304
f 205/230/29 206/231/159 200/223/155 
s 305
f 201/225/156 200/223/155 206/231/159 
s 306
f 206/231/159 205/230/29 207/232/30 
s 307
f 204/229/27 207/232/30 205/230/29 
s 308
f 207/232/30 204/229/27 208/233/160 
s 309
f 202/227/157 208/233/160 204/229/27 
s 310
f 208/233/160 202/227/157 209/234/161 
s 311
f 203/228/158 209/234/161 202/227/157 
s 312
f 209/234/161 203/228/158 210/235/162 
s 313
f 211/236/24 210/235/162 203/228/158 
s 314
f 210/235/162 211/236/24 212/237/35 
s 315
f 213/238/163 212/237/35 211/236/24 
s 316
f 214/239/45 174/194/44 215/240/43 
s 317
f 174/194/44 214/239/45 176/196/16 
s 318
f 216/241/37 176/196/16 214/239/45 
s 319
f 176/196/16 216/241/37 184/204/18 
s 320
f 213/238/163 184/204/18 216/241/37 
s 321
f 184/204/18 213/238/163 185/205/19 
s 322
f 211/236/24 185/205/19 213/238/163 
s 323
f 185/205/19 211/236/24 187/207/20 
s 324
f 203/228/158 187/207/20 211/236/24 
s 325
f 187/207/20 203/228/158 189/209/21 
s 326
f 212/237/35 213/238/163 217/242/36 
s 327
f 216/241/37 217/242/36 213/238/163 
s 328
f 217/242/36 216/241/37 218/243/164 
s 329
f 214/239/45 218/243/164 216/241/37 
s 330
f 218/243/164 214/239/45 219/244/47 
s 331
f 215/240/43 219/244/47 214/239/45 
s 332
f 219/244/47 215/240/43 220/245/48 
s 333
f 221/246/41 220/245/48 215/240/43 
s 334
f 220/245/48 221/246/41 222/247/49 
s 335
f 223/248/39 222/247/49 221/246/41 
s 336
f 222/247/49 223/248/39 224/249/50 
s 337
f 225/250/51 224/249/50 223/248/39 
s 338
f 224/249/50 225/250/51 226/251/165 
s 339
f 226/251/165 163/183/59 162/182/62 
s 340
f 163/183/59 226/251/165 225/250/51 
s 341
f 225/250/51 164/184/60 163/183/59 
s 342
f 164/184/60 225/250/51 169/189/38 
s 343
f 223/248/39 169/189/38 225/250/51 
s 344
f 169/189/38 223/248/39 170/190/40 
s 345
f 221/246/41 170/190/40 223/248/39 
s 346
f 170/190/40 221/246/41 172/192/42 
s 347
f 215/240/43 172/192/42 221/246/41 
s 348
f 172/192/42 215/240/43 174/194/44 
s 349
f 227/252/166 228/253/167 229/254/168 
s 350
f 227/252/166 229/254/168 230/255/169 
s 351
f 231/256/170 230/255/169 229/254/168 
s 352
f 229/254/168 232/257/171 231/256/170 
s 353
f 233/258/172 231/256/170 232/257/171 
s 354
f 232/257/171 234/259/173 233/258/172 
s 355
f 235/260/174 233/258/172 234/259/173 
s 356
f 234/259/173 236/261/175 235/260/174 
s 357
f 237/262/176 235/260/174 236/261/175 
s 358
f 237/262/176 236/261/175 238/263/177 
s 359
f 239/264/178 238/263/177 236/261/175 
s 360
f 240/265/179 229/254/168 228/253/167 
s 361
f 240/265/179 241/266/180 229/254/168 
s 362
f 232/257/171 229/254/168 241/266/180 
s 363
f 241/266/180 242/267/181 232/257/171 
s 364
f 234/259/173 232/257/171 242/267/181 
s 365
f 242/267/181 243/268/182 234/259/173 
s 366
f 236/261/175 234/259/173 243/268/182 
s 367
f 236/261/175 243/268/182 239/264/178 
s 368
f 244/269/183 239/264/178 243/268/182 
s 369
f 239/264/178 244/269/183 245/270/178 
s 370
f 242/267/181 241/266/180 246/271/184 
s 371
f 246/271/184 247/272/185 242/267/181 
s 372
f 243/268/182 242/267/181 247/272/185 
s 373
f 243/268/182 247/272/185 244/269/183 
s 374
f 248/273/186 244/269/183 247/272/185 
s 375
f 244/269/183 248/273/186 249/274/183 
s 376
f 250/275/186 249/274/183 248/273/186 
s 377
f 249/274/183 250/275/186 251/276/187 
s 378
f 252/277/188 251/276/187 250/275/186 
s 379
f 251/276/187 252/277/188 253/278/189 
s 380
f 254/279/190 253/278/189 252/277/188 
s 381
f 253/278/189 254/279/190 255/280/191 
s 382
f 249/274/183 245/270/178 244/269/183 
s 383
f 245/270/178 249/274/183 256/281/192 
s 384
f 251/276/187 256/281/192 249/274/183 
s 385
f 256/281/192 251/276/187 257/282/193 
s 386
f 253/278/189 257/282/193 251/276/187 
s 387
f 257/282/193 253/278/189 258/283/194 
s 388
f 255/280/191 258/283/194 253/278/189 
s 389
f 258/283/194 255/280/191 259/284/195 
s 390
f 260/285/196 259/284/195 255/280/191 
s 391
f 255/280/191 261/286/197 260/285/196 
s 392
f 238/263/177 239/264/178 262/287/177 
s 393
f 245/270/178 262/287/177 239/264/178 
s 394
f 262/287/177 245/270/178 263/288/198 
s 395
f 256/281/192 263/288/198 245/270/178 
s 396
f 263/288/198 256/281/192 264/289/199 
s 397
f 257/282/193 264/289/199 256/281/192 
s 398
f 264/289/199 257/282/193 265/290/200 
s 399
f 258/283/194 265/290/200 257/282/193 
s 400
f 265/290/200 258/283/194 266/291/201 
s 401
f 259/284/195 266/291/201 258/283/194 
s 402
f 267/292/202 266/291/201 268/293/203 
s 403
f 259/284/195 268/293/203 266/291/201 
s 404
f 268/293/203 259/284/195 269/294/204 
s 405
f 260/285/196 269/294/204 259/284/195 
s 406
f 260/285/196 270/295/205 269/294/204 
s 407
f 270/295/205 260/285/196 261/286/197 
s 408
f 261/286/197 271/296/206 270/295/205 
s 409
f 271/296/206 261/286/197 272/297/207 
s 410
f 271/296/206 272/297/207 273/298/208 
s 411
f 274/299/209 273/298/208 272/297/207 
s 412
f 273/298/208 274/299/209 275/300/210 
s 413
f 276/301/166 269/294/204 270/295/205 
s 414
f 276/301/166 270/295/205 277/302/85 
s 415
f 278/303/211 277/302/85 270/295/205 
s 416
f 278/303/211 270/295/205 271/296/206 
s 417
f 278/303/211 271/296/206 279/304/212 
s 418
f 273/298/208 279/304/212 271/296/206 
s 419
f 279/304/212 273/298/208 280/305/213 
s 420
f 275/300/210 280/305/213 273/298/208 
s 421
f 280/305/213 275/300/210 281/306/214 
s 422
f 282/307/215 281/306/214 275/300/210 
s 423
f 281/306/214 282/307/215 266/308/216 
s 424
f 265/309/217 266/308/216 282/307/215 
s 425
f 266/308/216 267/310/218 281/306/214 
s 426
f 283/311/219 281/306/214 267/310/218 
s 427
f 281/306/214 283/311/219 280/305/213 
s 428
f 284/312/220 280/305/213 283/311/219 
s 429
f 280/305/213 284/312/220 279/304/212 
s 430
f 285/313/221 279/304/212 284/312/220 
s 431
f 279/304/212 285/313/221 278/303/211 
s 432
f 277/302/85 278/303/211 285/313/221 
s 433
f 286/314/222 275/300/210 274/299/209 
s 434
f 275/300/210 286/314/222 282/307/215 
s 435
f 287/315/223 282/307/215 286/314/222 
s 436
f 282/307/215 287/315/223 265/309/217 
s 437
f 264/316/224 265/309/217 287/315/223 
s 438
f 287/315/223 288/317/225 264/316/224 
s 439
f 263/318/226 264/316/224 288/317/225 
s 440
f 263/318/226 288/317/225 262/319/227 
s 441
f 289/320/228 262/319/227 288/317/225 
s 442
f 262/319/227 289/320/228 238/321/227 
s 443
f 261/286/197 255/280/191 254/279/190 
s 444
f 254/279/190 272/297/207 261/286/197 
s 445
f 272/297/207 254/279/190 290/322/229 
s 446
f 272/297/207 290/322/229 274/299/209 
s 447
f 291/323/230 274/299/209 290/322/229 
s 448
f 274/299/209 291/323/230 286/314/222 
s 449
f 292/324/231 286/314/222 291/323/230 
s 450
f 286/314/222 292/324/231 287/315/223 
s 451
f 288/317/225 287/315/223 292/324/231 
s 452
f 288/317/225 292/324/231 289/320/228 
s 453
f 293/325/232 294/326/233 295/327/234 
s 454
f 294/326/233 293/325/232 296/328/233 
s 455
f 297/329/232 296/328/233 293/325/232 
s 456
f 296/328/233 297/329/232 290/322/229 
s 457
f 291/323/230 290/322/229 297/329/232 
s 458
f 298/330/235 295/327/234 299/331/236 
s 459
f 295/327/234 298/330/235 293/325/232 
s 460
f 300/332/237 293/325/232 298/330/235 
s 461
f 293/325/232 300/332/237 297/329/232 
s 462
f 301/333/237 297/329/232 300/332/237 
s 463
f 297/329/232 301/333/237 291/323/230 
s 464
f 292/324/231 291/323/230 301/333/237 
s 465
f 301/333/237 289/320/228 292/324/231 
s 466
f 289/320/228 301/333/237 302/334/228 
s 467
f 300/332/237 302/334/228 301/333/237 
s 468
f 302/334/228 300/332/237 303/335/238 
s 469
f 298/330/235 303/335/238 300/332/237 
s 470
f 303/335/238 298/330/235 304/336/239 
s 471
f 299/331/236 304/336/239 298/330/235 
s 472
f 304/336/239 299/331/236 305/337/240 
s 473
f 306/338/241 305/337/240 299/331/236 
s 474
f 305/337/240 306/338/241 307/339/242 
s 475
f 302/334/228 238/321/227 289/320/228 
s 476
f 238/321/227 302/334/228 237/340/243 
s 477
f 303/335/238 237/340/243 302/334/228 
s 478
f 237/340/243 303/335/238 235/341/244 
s 479
f 304/336/239 235/341/244 303/335/238 
s 480
f 235/341/244 304/336/239 233/342/245 
s 481
f 305/337/240 233/342/245 304/336/239 
s 482
f 233/342/245 305/337/240 231/343/246 
s 483
f 307/339/242 231/343/246 305/337/240 
s 484
f 307/339/242 308/344/221 231/343/246 
s 485
f 230/345/247 231/343/246 308/344/221 
s 486
f 308/344/221 307/339/242 309/346/220 
s 487
f 310/347/248 309/346/220 307/339/242 
s 488
f 309/346/220 310/347/248 311/348/219 
s 489
f 312/349/249 311/348/219 310/347/248 
s 490
f 311/348/219 312/349/249 313/350/250 
s 491
f 314/351/251 313/350/250 312/349/249 
s 492
f 313/350/250 314/351/251 315/352/203 
s 493
f 316/353/252 315/352/203 314/351/251 
s 494
f 315/352/203 316/353/252 228/253/167 
s 495
f 240/265/179 228/253/167 316/353/252 
s 496
f 310/347/248 307/339/242 306/338/241 
s 497
f 306/338/241 317/354/253 310/347/248 
s 498
f 312/349/249 310/347/248 317/354/253 
s 499
f 317/354/253 318/355/254 312/349/249 
s 500
f 314/351/251 312/349/249 318/355/254 
s 501
f 314/351/251 318/355/254 316/353/252 
s 502
f 319/356/255 316/353/252 318/355/254 
s 503
f 316/353/252 319/356/255 240/265/179 
s 504
f 241/266/180 240/265/179 319/356/255 
s 505
f 319/356/255 246/271/184 241/266/180 
s 506
f 247/272/185 320/357/256 248/273/186 
s 507
f 247/272/185 246/271/184 320/357/256 
s 508
f 321/358/257 320/357/256 246/271/184 
s 509
f 246/271/184 319/356/255 321/358/257 
s 510
f 318/355/254 321/358/257 319/356/255 
s 511
f 318/355/254 317/354/253 321/358/257 
s 512
f 322/359/258 321/358/257 317/354/253 
s 513
f 317/354/253 306/338/241 322/359/258 
s 514
f 299/331/236 322/359/258 306/338/241 
s 515
f 322/359/258 299/331/236 295/327/234 
s 516
f 321/358/257 322/359/258 320/357/256 
s 517
f 295/327/234 320/357/256 322/359/258 
s 518
f 320/357/256 295/327/234 294/326/233 
s 519
f 294/326/233 248/273/186 320/357/256 
s 520
f 248/273/186 294/326/233 250/275/186 
s 521
f 296/328/233 250/275/186 294/326/233 
s 522
f 250/275/186 296/328/233 252/277/188 
s 523
f 290/322/229 252/277/188 296/328/233 
s 524
f 252/277/188 290/322/229 254/279/190 
s 525
f 113/115/98 323/360/259 112/114/97 
s 526
f 324/361/260 112/114/97 323/360/259 
s 527
f 323/360/259 325/362/261 324/361/260 
s 528
f 107/109/92 324/361/260 325/362/261 
s 529
f 108/110/93 324/361/260 107/109/92 
s 530
f 324/361/260 108/110/93 112/114/97 
s 531
f 110/112/95 112/114/97 108/110/93 
s 532
f 139/363/262 138/364/263 323/360/259 
s 533
f 325/362/261 323/360/259 138/364/263 
s 534
f 325/362/261 138/364/263 326/365/264 
s 535
f 326/365/264 327/366/265 325/362/261 
s 536
f 107/109/92 325/362/261 327/366/265 
s 537
f 327/366/265 328/367/266 107/109/92 
s 538
f 105/107/90 107/109/92 328/367/266 
s 539
f 328/367/266 135/368/267 105/107/90 
s 540
f 128/369/268 105/107/90 135/368/267 
s 541
f 128/369/268 115/117/100 105/107/90 
s 542
f 137/370/269 326/365/264 138/364/263 
s 543
f 93/126/88 95/371/270 104/106/88 
s 544
f 103/105/89 104/106/88 95/371/270 
s 545
f 95/371/270 100/372/271 103/105/89 
s 546
f 114/116/99 103/105/89 100/372/271 
s 547
f 100/372/271 99/373/272 114/116/99 
s 548
f 142/374/273 114/116/99 99/373/272 
s 549
f 142/374/273 140/375/274 114/116/99 
s 550
f 113/115/98 114/116/99 140/375/274 
s 551
f 140/375/274 139/363/262 113/115/98 
s 552
f 323/360/259 113/115/98 139/363/262 
s 553
f 329/376/167 330/377/167 331/378/167 
s 554
f 332/379/167 331/378/167 333/380/167 
s 555
f 332/379/167 329/376/167 331/378/167 
s 556
f 329/376/167 332/379/167 334/381/167 
s 557
f 335/382/167 334/381/167 332/379/167 
s 558
f 334/381/167 335/382/167 4/383/167 
s 559
f 336/384/167 4/383/167 335/382/167 
s 560
f 4/383/167 336/384/167 337/385/167 
s 561
f 337/385/167 336/384/167 338/386/167 
s 562
f 339/387/167 338/386/167 336/384/167 
s 563
f 338/386/167 339/387/167 340/388/167 
s 564
f 330/377/167 3/389/167 341/390/167 
s 565
f 3/389/167 4/383/167 341/390/167 
s 566
f 337/385/167 341/390/167 4/383/167 
s 567
f 342/391/167 343/392/167 341/390/167 
s 568
f 343/392/167 344/393/167 341/390/167 
s 569
f 344/393/167 345/394/167 341/390/167 
s 570
f 343/392/167 346/395/167 344/393/167 
s 571
f 347/396/167 344/393/167 346/395/167 
s 572
f 348/397/167 349/398/167 340/388/167 
s 573
f 350/399/167 340/388/167 349/398/167 
s 574
f 350/399/167 349/398/167 341/390/167 
s 575
f 349/398/167 351/400/167 341/390/167 
s 576
f 351/400/167 342/391/167 341/390/167 
s 577
f 351/400/167 352/401/167 342/391/167 
s 578
f 353/402/167 342/391/167 352/401/167 
s 579
f 354/403/167 340/388/167 339/387/167 
s 580
f 354/403/167 348/397/167 340/388/167 
s 581
f 348/397/167 354/403/167 355/404/167 
s 582
f 356/405/167 355/404/167 354/403/167 
s 583
f 355/404/167 356/405/167 352/401/167 
s 584
f 357/406/167 352/401/167 356/405/167 
s 585
f 357/406/167 353/402/167 352/401/167 
s 586
f 353/402/167 357/406/167 358/407/167 
s 587
f 359/408/167 358/407/167 357/406/167 
s 588
f 358/407/167 359/408/167 346/395/167 
s 589
f 360/409/167 346/395/167 359/408/167 
s 590
f 360/409/167 347/396/167 346/395/167 
s 591
f 347/396/167 360/409/167 361/410/167 
s 592
f 362/411/167 361/410/167 360/409/167 
s 593
f 361/410/167 362/411/167 363/412/167 
s 594
f 364/413/167 363/412/167 362/411/167 
s 595
f 365/414/167 331/378/167 330/377/167 
s 596
f 365/414/167 330/377/167 341/390/167 
s 597
f 366/415/167 365/414/167 341/390/167 
s 598
f 345/394/167 366/415/167 341/390/167 
s 599
f 345/394/167 363/412/167 366/415/167 
s 600
f 367/416/167 366/415/167 363/412/167 
s 601
f 364/413/167 367/416/167 363/412/167 
s 602
f 367/416/167 364/413/167 368/417/167 
s 603
f 333/380/167 368/417/167 364/413/167 
s 604
f 368/417/167 333/380/167 331/378/167 
s 605
f 369/418/111 370/419/111 371/420/111 
s 606
f 370/419/111 372/421/111 371/420/111 
s 607
f 372/421/111 373/422/111 371/420/111 
s 608
f 373/422/111 374/423/111 371/420/111 
s 609
f 373/422/111 375/424/111 374/423/111 
s 610
f 376/425/111 374/423/111 375/424/111 
s 611
f 377/426/111 372/421/111 378/427/111 
s 612
f 370/419/111 378/427/111 372/421/111 
s 613
f 379/428/111 380/429/111 371/420/111 
s 614
f 380/429/111 381/430/111 371/420/111 
s 615
f 381/430/111 382/431/111 371/420/111 
s 616
f 382/431/111 369/418/111 371/420/111 
s 617
f 382/431/111 383/432/111 369/418/111 
s 618
f 384/433/111 369/418/111 383/432/111 
s 619
f 385/434/111 381/430/111 386/435/111 
s 620
f 380/429/111 386/435/111 381/430/111 
s 621
f 387/436/111 388/437/111 389/438/111 
s 622
f 384/433/111 389/438/111 388/437/111 
s 623
f 389/438/111 384/433/111 383/432/111 
s 624
f 389/438/111 383/432/111 390/439/111 
s 625
f 391/440/111 390/439/111 383/432/111 
s 626
f 390/439/111 391/440/111 392/441/111 
s 627
f 385/434/111 392/441/111 391/440/111 
s 628
f 386/435/111 392/441/111 385/434/111 
s 629
f 392/441/111 386/435/111 393/442/111 
s 630
f 394/443/111 393/442/111 386/435/111 
s 631
f 393/442/111 394/443/111 395/444/111 
s 632
f 396/445/111 395/444/111 394/443/111 
s 633
f 395/444/111 396/445/111 397/446/111 
s 634
f 396/445/111 379/428/111 397/446/111 
s 635
f 398/447/111 397/446/111 379/428/111 
s 636
f 398/447/111 379/428/111 371/420/111 
s 637
f 1/448/111 398/447/111 371/420/111 
s 638
f 371/420/111 399/449/111 1/448/111 
s 639
f 2/450/111 1/448/111 399/449/111 
s 640
f 400/451/111 2/450/111 399/449/111 
s 641
f 2/450/111 400/451/111 401/452/111 
s 642
f 402/453/111 401/452/111 400/451/111 
s 643
f 401/452/111 402/453/111 397/446/111 
s 644
f 395/444/111 397/446/111 402/453/111 
s 645
f 403/454/111 404/455/111 399/449/111 
s 646
f 400/451/111 399/449/111 404/455/111 
s 647
f 404/455/111 403/454/111 405/456/111 
s 648
f 376/425/111 405/456/111 403/454/111 
s 649
f 375/424/111 405/456/111 376/425/111 
s 650
f 405/456/111 375/424/111 406/457/111 
s 651
f 407/458/111 406/457/111 375/424/111 
s 652
f 406/457/111 407/458/111 408/459/111 
s 653
f 377/426/111 408/459/111 407/458/111 
s 654
f 408/459/111 377/426/111 378/427/111 
s 655
f 408/459/111 378/427/111 387/436/111 
s 656
f 388/437/111 387/436/111 378/427/111 
s 657
f 409/460/106 410/461/106 411/462/275 
s 658
f 412/463/275 411/462/275 410/461/106 
s 659
f 411/462/275 412/463/275 413/464/85 
s 660
f 414/465/85 413/464/85 412/463/275 
s 661
f 413/464/85 414/465/85 415/466/276 
s 662
f 416/467/276 415/466/276 414/465/85 
s 663
f 415/466/276 416/467/276 417/468/277 
s 664
f 418/469/277 417/468/277 416/467/276 
s 665
f 417/468/277 418/469/277 419/470/86 
s 666
f 420/471/86 419/470/86 418/469/277 
s 667
f 419/470/86 420/471/86 409/472/278 
s 668
f 410/473/278 409/472/278 420/471/86 
s 669
f 421/474/279 422/475/279 423/476/280 
s 670
f 424/477/280 423/476/280 422/475/279 
s 671
f 423/476/280 424/477/280 425/478/281 
s 672
f 426/479/281 425/478/281 424/477/280 
s 673
f 425/478/281 426/479/281 427/480/282 
s 674
f 428/481/282 427/480/282 426/479/281 
s 675
f 427/480/282 428/481/282 429/482/283 
s 676
f 430/483/283 429/482/283 428/481/282 
s 677
f 429/482/283 430/483/283 431/484/284 
s 678
f 432/485/284 431/484/284 430/483/283 
s 679
f 431/484/284 432/485/284 421/486/167 
s 680
f 422/487/167 421/486/167 432/485/284 
s 681
f 433/488/285 434/489/286 435/490/287 
s 682
f 436/491/288 435/490/287 434/489/286 
s 683
f 435/490/287 436/491/288 437/492/289 
s 684
f 438/493/290 437/492/289 436/491/288 
s 685
f 437/492/289 438/493/290 439/494/291 
s 686
f 440/495/292 439/494/291 438/493/290 
s 687
f 439/494/291 440/495/292 441/496/293 
s 688
f 442/497/294 441/496/293 440/495/292 
s 689
f 443/498/295 444/499/296 433/488/285 
s 690
f 434/489/286 433/488/285 444/499/296 
s 691
f 444/499/296 445/500/297 434/489/286 
s 692
f 446/501/298 434/489/286 445/500/297 
s 693
f 434/489/286 446/501/298 436/491/288 
s 694
f 447/502/299 436/491/288 446/501/298 
s 695
f 436/491/288 447/502/299 438/493/290 
s 696
f 448/503/300 438/493/290 447/502/299 
s 697
f 438/493/290 448/503/300 440/495/292 
s 698
f 449/504/301 440/495/292 448/503/300 
s 699
f 440/495/292 449/504/301 442/497/294 
s 700
f 450/505/302 442/497/294 449/504/301 
s 701
f 447/502/299 451/506/303 448/503/300 
s 702
f 452/507/304 448/503/300 451/506/303 
s 703
f 448/503/300 452/507/304 449/504/301 
s 704
f 453/508/305 449/504/301 452/507/304 
s 705
f 449/504/301 453/508/305 450/505/302 
s 706
f 454/509/306 450/505/302 453/508/305 
s 707
f 441/510/307 442/511/308 443/498/295 
s 708
f 444/499/296 443/498/295 442/511/308 
s 709
f 442/511/308 450/512/309 444/499/296 
s 710
f 445/500/297 444/499/296 450/512/309 
s 711
f 450/512/309 454/513/310 445/500/297 
s 712
f 455/514/311 445/500/297 454/513/310 
s 713
f 445/500/297 455/514/311 446/501/298 
s 714
f 456/515/312 446/501/298 455/514/311 
s 715
f 446/501/298 456/515/312 447/502/299 
s 716
f 451/506/303 447/502/299 456/515/312 
s 717
f 457/516/106 458/517/106 459/518/313 
s 718
f 460/519/313 459/518/313 458/517/106 
s 719
f 459/518/313 460/519/313 461/520/314 
s 720
f 462/521/85 461/520/314 460/519/313 
s 721
f 461/520/314 462/521/85 463/522/315 
s 722
f 464/523/315 463/522/315 462/521/85 
s 723
f 463/522/315 464/523/315 465/524/316 
s 724
f 466/525/316 465/524/316 464/523/315 
s 725
f 465/524/316 466/525/316 467/526/86 
s 726
f 468/527/317 467/526/86 466/525/316 
s 727
f 467/526/86 468/527/317 457/528/318 
s 728
f 458/529/318 457/528/318 468/527/317 
s 729
f 469/530/279 470/531/279 471/532/280 
s 730
f 472/533/280 471/532/280 470/531/279 
s 731
f 471/532/280 472/533/280 473/534/281 
s 732
f 474/535/281 473/534/281 472/533/280 
s 733
f 473/534/281 474/535/281 475/536/282 
s 734
f 476/537/282 475/536/282 474/535/281 
s 735
f 475/536/282 476/537/282 477/538/283 
s 736
f 478/539/283 477/538/283 476/537/282 
s 737
f 477/538/283 478/539/283 479/540/284 
s 738
f 480/541/284 479/540/284 478/539/283 
s 739
f 479/540/284 480/541/284 469/542/167 
s 740
f 470/543/167 469/542/167 480/541/284 
s 741
f 481/544/279 482/545/279 483/546/280 
s 742
f 484/547/280 483/546/280 482/545/279 
s 743
f 483/546/280 484/547/280 485/548/281 
s 744
f 486/549/281 485/548/281 484/547/280 
s 745
f 485/548/281 486/549/281 487/550/282 
s 746
f 488/551/282 487/550/282 486/549/281 
s 747
f 487/550/282 488/551/282 489/552/283 
s 748
f 490/553/283 489/552/283 488/551/282 
s 749
f 489/552/283 490/553/283 491/554/284 
s 750
f 492/555/284 491/554/284 490/553/283 
s 751
f 491/554/284 492/555/284 481/556/167 
s 752
f 482/557/167 481/556/167 492/555/284 
s 753
f 178/558/233 179/559/233 168/560/233 
s 754
f 179/559/233 180/561/233 168/560/233 
s 755
f 180/561/233 181/562/233 168/560/233 
s 756
f 181/562/233 183/563/233 168/560/233 
s 757
f 183/563/233 196/564/233 168/560/233 
s 758
f 196/564/233 197/565/233 168/560/233 
s 759
f 197/565/233 198/566/233 168/560/233 
s 760
f 198/566/233 199/567/233 168/560/233 
s 761
f 199/567/233 150/568/233 168/560/233 
s 762
f 150/568/233 147/569/233 168/560/233 
s 763
f 147/569/233 149/570/233 168/560/233 
s 764
f 149/570/233 154/571/233 168/560/233 
s 765
f 154/571/233 158/572/233 168/560/233 
s 766
f 158/572/233 166/573/233 168/560/233 
s 767
f 362/574/276 390/439/276 364/575/319 
s 768
f 390/439/276 362/574/276 389/438/233 
s 769
f 360/576/320 389/438/233 362/574/276 
s 770
f 389/438/233 360/576/320 387/436/277 
s 771
f 359/577/277 387/436/277 360/576/320 
s 772
f 387/436/277 359/577/277 408/459/321 
s 773
f 357/578/321 408/459/321 359/577/277 
s 774
f 408/459/321 357/578/321 406/457/317 
s 775
f 356/579/317 406/457/317 357/578/321 
s 776
f 406/457/317 356/579/317 405/456/322 
s 777
f 354/580/322 405/456/322 356/579/317 
s 778
f 405/456/322 354/580/322 404/455/323 
s 779
f 339/581/323 404/455/323 354/580/322 
s 780
f 404/455/323 339/581/323 400/451/324 
s 781
f 336/582/106 400/451/324 339/581/323 
s 782
f 400/451/324 336/582/106 402/453/275 
s 783
f 335/583/275 402/453/275 336/582/106 
s 784
f 402/453/275 335/583/275 395/444/325 
s 785
f 332/584/325 395/444/325 335/583/275 
s 786
f 395/444/325 332/584/325 393/442/314 
s 787
f 333/585/314 393/442/314 332/584/325 
s 788
f 393/442/314 333/585/314 392/441/319 
s 789
f 364/575/319 392/441/319 333/585/314 
s 790
f 392/441/319 364/575/319 390/439/276 
s 791
f 493/586/111 494/587/111 495/588/111 
s 792
f 496/589/111 495/588/111 494/587/111 
s 793
f 497/590/106 494/586/106 498/591/106 
s 794
f 493/587/106 498/591/106 494/586/106 
s 795
f 499/592/85 496/588/85 497/593/85 
s 796
f 494/586/85 497/593/85 496/588/85 
s 797
f 500/594/326 495/589/326 499/595/326 
s 798
f 496/588/326 499/595/326 495/589/326 
s 799
f 498/596/86 493/587/86 500/597/86 
s 800
f 495/589/86 500/597/86 493/587/86 
s 801
f 501/590/106 502/586/106 503/591/106 
s 802
f 504/587/106 503/591/106 502/586/106 
s 803
f 505/594/326 506/589/326 507/595/326 
s 804
f 508/588/326 507/595/326 506/589/326 
s 805
f 503/596/86 504/587/219 505/597/86 
s 806
f 506/589/219 505/597/86 504/587/219 
s 807
f 506/589/219 504/587/219 508/588/221 
s 808
f 502/586/221 508/588/221 504/587/219 
s 809
f 502/586/221 501/593/85 508/588/221 
s 810
f 507/592/85 508/588/221 501/593/85 
s 811
f 509/598/326 510/599/326 511/600/326 
s 812
f 512/601/326 511/600/326 510/599/326 
s 813
f 510/599/111 513/602/111 512/601/111 
s 814
f 514/603/111 512/601/111 513/602/111 
s 815
f 511/600/85 512/601/85 515/604/85 
s 816
f 514/605/85 515/604/85 512/601/85 
s 817
f 516/606/86 513/607/86 509/598/86 
s 818
f 510/599/86 509/598/86 513/607/86 
s 819
f 515/608/167 516/609/167 511/600/167 
s 820
f 509/598/167 511/600/167 516/609/167 
s 821
f 386/610/327 380/611/327 367/612/327 
s 822
f 366/613/327 367/612/327 380/611/327 
s 823
f 369/614/328 384/615/328 343/616/328 
s 824
f 346/617/328 343/616/328 384/615/328 
s 825
f 344/618/329 347/619/329 382/620/329 
s 826
f 383/621/329 382/620/329 347/619/329 
s 827
f 352/622/330 351/623/330 377/624/330 
s 828
f 372/625/330 377/624/330 351/623/330 
s 829
f 341/626/331 337/627/331 371/628/331 
s 830
f 399/629/331 371/628/331 337/627/331 
s 831
f 353/630/332 358/631/313 378/632/332 
s 832
f 388/633/313 378/632/332 358/631/313 
s 833
f 358/631/313 346/617/333 388/633/313 
s 834
f 384/615/333 388/633/313 346/617/333 
s 835
f 347/619/334 361/634/335 383/621/334 
s 836
f 391/635/335 383/621/334 361/634/335 
s 837
f 361/634/335 363/636/336 391/635/335 
s 838
f 385/637/336 391/635/335 363/636/336 
s 839
f 367/612/337 368/638/86 386/610/337 
s 840
f 394/639/86 386/610/337 368/638/86 
s 841
f 368/638/86 331/640/338 394/639/86 
s 842
f 396/641/338 394/639/86 331/640/338 
s 843
f 329/642/339 334/643/316 397/644/339 
s 844
f 401/645/316 397/644/339 334/643/316 
s 845
f 334/643/316 4/4/340 401/645/316 
s 846
f 2/2/340 401/645/316 4/4/340 
s 847
f 337/627/341 338/646/315 399/629/341 
s 848
f 403/647/315 399/629/341 338/646/315 
s 849
f 338/646/315 340/648/342 403/647/315 
s 850
f 376/649/342 403/647/315 340/648/342 
s 851
f 348/650/343 355/651/85 375/652/343 
s 852
f 407/653/85 375/652/343 355/651/85 
s 853
f 355/651/85 352/622/344 407/653/85 
s 854
f 377/624/344 407/653/85 352/622/344 
s 855
f 382/654/345 381/655/346 344/656/345 
s 856
f 345/657/346 344/656/345 381/655/346 
s 857
f 381/655/346 385/637/347 345/657/346 
s 858
f 363/636/347 345/657/346 385/637/347 
s 859
f 378/632/348 370/658/349 353/630/348 
s 860
f 342/659/349 353/630/348 370/658/349 
s 861
f 370/658/349 369/660/350 342/659/349 
s 862
f 343/661/350 342/659/349 369/660/350 
s 863
f 375/652/351 373/662/352 348/650/351 
s 864
f 349/663/352 348/650/351 373/662/352 
s 865
f 373/662/352 372/664/86 349/663/352 
s 866
f 351/665/86 349/663/352 372/664/86 
s 867
f 371/666/353 374/667/354 341/668/353 
s 868
f 350/669/354 341/668/353 374/667/354 
s 869
f 374/667/354 376/649/355 350/669/354 
s 870
f 340/648/355 350/669/354 376/649/355 
s 871
f 397/644/356 398/670/357 329/642/356 
s 872
f 330/671/357 329/642/356 398/670/357 
s 873
f 398/670/357 1/672/358 330/671/357 
s 874
f 3/673/358 330/671/357 1/672/358 
s 891
f 331/640/359 365/674/360 396/641/359 
s 892
f 379/675/360 396/641/359 365/674/360 
s 893
f 365/674/360 366/676/85 379/675/360 
s 894
f 380/677/85 379/675/360 366/676/85 
s 895
f 417/678/111 419/679/111 415/680/111 
s 896
f 419/679/111 409/681/111 415/680/111 
s 897
f 409/681/111 411/682/111 415/680/111 
s 898
f 411/682/111 413/683/111 415/680/111 
s 899
f 463/684/111 465/685/111 461/686/111 
s 900
f 465/685/111 467/687/111 461/686/111 
s 901
f 467/687/111 457/688/111 461/686/111 
s 902
f 457/688/111 459/689/111 461/686/111 
s 903
f 517/690/106 518/691/106 519/692/106 
s 904
f 518/691/106 520/693/106 519/692/106 
s 905
f 520/693/106 521/694/106 519/692/106 
s 906
f 521/694/106 522/695/106 519/692/106 
s 907
f 523/696/233 524/697/233 525/698/233 
s 908
f 524/697/233 526/699/233 525/698/233 
s 909
f 526/699/233 527/700/233 525/698/233 
s 910
f 527/700/233 528/701/233 525/698/233 
s 911
f 480/702/361 478/703/362 470/704/361 
s 912
f 478/703/362 476/705/362 470/704/361 
s 913
f 476/705/362 474/706/361 470/704/361 
s 914
f 474/706/361 472/707/361 470/704/361 
s 915
f 471/708/233 473/709/233 469/710/233 
s 916
f 473/709/233 475/711/233 469/710/233 
s 917
f 475/711/233 477/712/233 469/710/233 
s 918
f 477/712/233 479/713/233 469/710/233 
s 919
f 432/714/106 430/715/106 422/716/106 
s 920
f 430/715/106 428/717/106 422/716/106 
s 921
f 428/717/106 426/718/106 422/716/106 
s 922
f 426/718/106 424/719/106 422/716/106 
s 923
f 423/720/233 425/721/233 421/722/233 
s 924
f 425/721/233 427/723/233 421/722/233 
s 925
f 427/723/233 429/724/233 421/722/233 
s 926
f 429/724/233 431/725/233 421/722/233 
s 927
f 529/726/233 530/727/233 531/728/233 
s 928
f 530/727/233 532/729/233 531/728/233 
s 929
f 532/729/233 533/730/233 531/728/233 
s 930
f 533/730/233 534/731/233 531/728/233 
s 931
f 534/731/233 535/732/233 531/728/233 
s 932
f 535/732/233 536/733/233 531/728/233 
s 933
f 537/734/233 538/735/233 539/736/233 
s 934
f 538/735/233 540/737/233 539/736/233 
s 935
f 540/737/233 541/738/233 539/736/233 
s 936
f 541/738/233 542/739/233 539/736/233 
s 937
f 542/739/233 543/740/233 539/736/233 
s 938
f 543/740/233 544/741/233 539/736/233 
s 939
f 535/742/220 534/743/219 545/744/111 
s 940
f 546/745/219 545/744/111 534/743/219 
s 941
f 534/743/219 533/746/250 546/745/219 
s 942
f 547/747/280 546/745/219 533/746/250 
s 943
f 533/746/250 532/748/363 547/747/280 
s 944
f 548/749/363 547/747/280 532/748/363 
s 945
f 532/750/364 530/751/167 548/752/364 
s 946
f 549/753/204 548/752/364 530/751/167 
s 947
f 530/751/167 529/754/166 549/753/204 
s 948
f 550/755/166 549/753/204 529/754/166 
s 949
f 529/754/166 531/756/283 550/755/166 
s 950
f 551/757/365 550/755/166 531/756/283 
s 951
f 531/756/283 536/758/221 551/757/365 
s 952
f 552/759/221 551/757/365 536/758/221 
s 953
f 536/758/221 535/742/220 552/759/221 
s 954
f 545/744/111 552/759/221 535/742/220 
s 955
f 542/760/366 541/761/86 553/762/366 
s 956
f 554/763/280 553/762/366 541/761/86 
s 957
f 541/761/86 540/764/367 554/763/280 
s 958
f 555/765/367 554/763/280 540/764/367 
s 959
f 540/764/367 538/766/368 555/765/367 
s 960
f 556/767/368 555/765/367 538/766/368 
s 961
f 538/768/369 537/769/370 556/770/369 
s 962
f 557/771/370 556/770/369 537/769/370 
s 963
f 537/769/370 539/772/85 557/771/370 
s 964
f 558/773/365 557/771/370 539/772/85 
s 965
f 539/772/85 544/774/371 558/773/365 
s 966
f 559/775/371 558/773/365 544/774/371 
s 967
f 544/774/371 543/776/111 559/775/371 
s 968
f 560/777/220 559/775/371 543/776/111 
s 969
f 543/776/111 542/760/366 560/777/220 
s 970
f 553/762/366 560/777/220 542/760/366 
s 971
f 525/778/167 528/779/284 522/780/167 
s 972
f 519/781/284 522/780/167 528/779/284 
s 973
f 528/779/284 527/782/283 519/781/284 
s 974
f 517/783/283 519/781/284 527/782/283 
s 975
f 527/782/283 526/784/282 517/783/283 
s 976
f 518/785/282 517/783/283 526/784/282 
s 977
f 526/784/282 524/786/281 518/785/282 
s 978
f 520/787/281 518/785/282 524/786/281 
s 979
f 524/786/281 523/788/280 520/787/281 
s 980
f 521/789/280 520/787/281 523/788/280 
s 981
f 523/788/280 525/790/279 521/789/280 
s 982
f 522/791/279 521/789/280 525/790/279 
s 983
f 77/792/233 81/793/233 5/794/233 
s 984
f 81/793/233 82/795/233 5/794/233 
s 985
f 82/795/233 83/796/233 5/794/233 
s 986
f 83/796/233 84/797/233 5/794/233 
s 987
f 7/798/233 9/799/233 5/794/233 
s 988
f 9/799/233 11/800/233 5/794/233 
s 989
f 11/800/233 13/801/233 5/794/233 
s 990
f 13/801/233 15/802/233 5/794/233 
s 991
f 15/802/233 67/803/233 5/794/233 
s 992
f 67/803/233 69/804/233 5/794/233 
s 993
f 69/804/233 71/805/233 5/794/233 
s 994
f 71/805/233 73/806/233 5/794/233 
s 995
f 73/806/233 75/807/233 5/794/233 
s 996
f 75/807/233 77/792/233 5/794/233 
s 997
f 12/12/9 24/24/22 14/14/12 
s 998
f 30/30/28 14/14/12 24/24/22 
s 999
f 14/14/12 30/30/28 16/16/14 
s 1000
f 54/808/372 16/16/14 30/30/28 
s 1001
f 30/30/28 31/31/29 54/808/372 
s 1002
f 55/809/373 54/808/372 31/31/29 
s 1003
f 31/31/29 33/33/31 55/809/373 
s 1004
f 66/810/374 55/809/373 33/33/31 
# 0 polygons - 988 triangles