# 3ds Max Wavefront OBJ Exporter v0.97b - (c)2007 guruware
# File Created: 26.04.2017 01:28:38

mtllib warehouse3_o.mtl

#
# object Box078
#

v  -12.5000 0.0000 7.5000
v  12.5000 0.0000 7.5000
v  12.5000 10.7500 7.5000
v  -12.5000 10.7500 7.5000
v  12.5000 0.0000 -7.5000
v  12.5000 10.7500 -7.5000
v  -12.5000 0.0000 -7.5000
v  -12.5000 10.7500 -7.5000
# 8 vertices

vn 0.0000 0.0000 1.0000
vn 1.0000 0.0000 -0.0000
vn 0.0000 0.0000 -1.0000
vn -1.0000 0.0000 -0.0000
# 4 vertex normals

vt 0.0000 0.7712 0.0000
vt 1.9527 0.7712 0.0000
vt 1.9527 0.9687 0.0000
vt 0.0000 0.9687 0.0000
vt 0.0000 0.7716 0.0000
vt 1.1653 0.7716 0.0000
vt 1.1653 0.9681 0.0000
vt 0.0000 0.9681 0.0000
# 8 texture coords

g Box078
usemtl Material__5073
s 8
f 1/1/1 2/2/1 3/3/1 4/4/1 
s 16
f 2/5/2 5/6/2 6/7/2 3/8/2 
s 32
f 5/1/3 7/2/3 8/3/3 6/4/3 
s 64
f 7/5/4 1/6/4 4/7/4 8/8/4 
# 4 polygons

#
# object Object076
#

v  -12.5000 0.1000 7.5000
v  12.5000 0.1000 7.5000
v  12.5000 0.1000 -7.5000
v  -12.5000 0.1000 -7.5000
# 4 vertices

vn 0.0000 1.0000 -0.0000
# 1 vertex normals

vt 1.2109 0.2980 0.0000
vt 0.0157 0.2980 0.0000
vt 0.0157 0.4667 0.0000
vt 1.2109 0.4667 0.0000
# 4 texture coords

g Object076
usemtl Material__5073
s 2
f 9/9/5 10/10/5 11/11/5 12/12/5 
# 1 polygons

#
# object Box079
#

v  -8.4480 0.0000 7.4250
v  0.0000 0.0000 7.4250
v  0.0000 0.0000 7.5750
v  -8.4480 0.0000 7.5750
v  -8.4480 8.4480 7.4250
v  -8.4480 8.4480 7.5750
v  0.0000 8.4480 7.5750
v  0.0000 8.4480 7.4250
# 8 vertices

vn 0.0000 -1.0000 -0.0000
vn 0.0000 1.0000 -0.0000
vn 1.0000 0.0000 -0.0000
vn 0.0000 0.0000 -1.0000
vn -1.0000 0.0000 -0.0000
vn 0.0000 0.0000 1.0000
# 6 vertex normals

vt 0.9850 0.1881 0.0000
vt 0.5166 0.1881 0.0000
vt 0.5166 0.1847 0.0000
vt 0.9850 0.1847 0.0000
vt 1.0000 0.2941 0.0000
vt 0.5000 0.2941 0.0000
vt 0.5000 0.1765 0.0000
vt 1.0000 0.1765 0.0000
# 8 texture coords

g Box079
usemtl Material__5073
s 2
f 13/13/6 14/14/6 15/15/6 16/16/6 
s 4
f 17/16/7 18/13/7 19/14/7 20/15/7 
s 8
f 14/15/8 20/16/8 19/13/8 15/14/8 
s 16
f 17/17/9 20/18/9 14/19/9 13/20/9 
s 32
f 18/16/10 17/13/10 13/14/10 16/15/10 
s 64
f 15/20/11 19/17/11 18/18/11 16/19/11 
# 6 polygons

#
# object Mesh_1611
#

v  2.0000 0.0000 7.4340
v  4.6400 0.0000 7.5660
v  2.0000 0.0000 7.5660
v  4.6400 0.0000 7.4340
v  2.0000 4.7520 7.4340
v  4.6400 4.7520 7.5660
v  4.6400 4.7520 7.4340
v  2.0000 4.7520 7.5660
# 8 vertices

vn 0.0000 -1.0000 -0.0000
vn 0.0000 1.0000 -0.0000
vn 0.0000 0.0000 -1.0000
vn 1.0000 0.0000 -0.0000
vn 0.0000 0.0000 1.0000
vn -1.0000 0.0000 -0.0000
# 6 vertex normals

vt 0.5162 0.0583 0.0000
vt 0.5412 0.1171 0.0000
vt 0.5412 0.0583 0.0000
vt 0.5162 0.1171 0.0000
vt 0.5001 0.1171 0.0000
vt 0.9996 0.0583 0.0000
vt 0.5001 0.0583 0.0000
vt 0.9996 0.1171 0.0000
vt 0.5001 0.1152 0.0000
vt 0.9996 0.1122 0.0000
vt 0.5001 0.1122 0.0000
vt 0.9996 0.1152 0.0000
vt 0.5001 0.0631 0.0000
vt 0.9996 0.0602 0.0000
vt 0.5001 0.0602 0.0000
vt 0.9996 0.0631 0.0000
# 16 texture coords

g Mesh_1611
usemtl Material__5073
s off
f 21/21/12 22/22/12 23/23/12 
f 22/22/12 21/21/12 24/24/12 
f 25/24/13 26/23/13 27/21/13 
f 26/23/13 25/24/13 28/22/13 
f 21/25/14 27/26/14 24/27/14 
f 27/26/14 21/25/14 25/28/14 
f 24/29/15 26/30/15 22/31/15 
f 26/30/15 24/29/15 27/32/15 
f 22/27/16 28/28/16 23/25/16 
f 28/28/16 22/27/16 26/26/16 
f 23/33/17 25/34/17 21/35/17 
f 25/34/17 23/33/17 28/36/17 
# 0 polygons - 12 triangles

#
# object Mesh_1614
#

v  3.6471 5.9945 7.5842
v  2.9929 5.9946 7.5847
v  3.6470 5.5054 7.5842
v  2.9929 5.5055 7.5847
v  2.9074 5.4201 7.5397
v  2.9075 6.0800 7.5397
v  2.9490 5.4534 7.5005
v  2.9491 6.0467 7.5005
v  3.7325 6.0799 7.5392
v  3.7324 5.4200 7.5392
v  3.6908 6.0466 7.5000
v  3.6907 5.4533 7.5000
v  2.9075 6.0801 7.5986
v  2.9074 5.4201 7.5986
v  3.7325 6.0800 7.5980
v  3.6797 6.0272 7.5981
v  3.6796 5.4727 7.5981
v  2.9602 5.4728 7.5986
v  2.9603 6.0272 7.5986
v  3.7325 5.4199 7.5980
# 20 vertices

vn 0.0007 0.0000 1.0000
vn -0.6853 0.0001 -0.7283
vn 0.6846 -0.0001 -0.7289
vn 0.6843 -0.0001 -0.7292
vn 0.6846 -0.0001 -0.7290
vn -1.0000 0.0001 0.0009
vn -1.0000 0.0001 0.0007
vn 0.0001 1.0000 -0.0001
vn 0.0000 0.9686 -0.2486
vn -0.0001 0.9686 -0.2486
vn -0.0003 0.7615 -0.6482
vn -0.0510 -0.0517 0.9974
vn -0.2029 -0.2034 0.9578
vn -0.0511 0.0517 0.9974
vn -0.2025 0.2034 0.9579
vn 0.0524 0.0517 0.9973
vn 0.2042 0.2035 0.9576
vn 0.0524 -0.0517 0.9973
vn 0.2043 -0.2037 0.9575
vn 0.0008 0.0001 1.0000
vn 0.0006 0.0001 1.0000
vn 0.0006 0.0000 1.0000
vn -0.0005 -0.7612 -0.6485
vn -0.0005 -0.7615 -0.6481
vn -0.0003 -0.9686 -0.2486
vn -0.0003 -0.9686 -0.2484
vn -0.0001 -1.0000 -0.0000
vn 1.0000 -0.0001 -0.0009
vn 1.0000 -0.0001 -0.0007
# 29 vertex normals

vt 0.1372 0.1226 0.0000
vt 0.1372 0.1598 0.0000
vt 0.0205 0.1226 0.0000
vt 0.0205 0.1598 0.0000
vt 0.4714 0.1185 0.0000
vt 0.4714 0.1526 0.0000
vt 0.4624 0.1203 0.0000
vt 0.4624 0.1509 0.0000
vt 0.4715 0.1527 0.0000
vt 0.4715 0.1186 0.0000
vt 0.4624 0.1510 0.0000
vt 0.4842 0.1526 0.0000
vt 0.4842 0.1185 0.0000
vt 0.3875 0.1604 0.0000
vt 0.3747 0.1604 0.0000
vt 0.3875 0.1178 0.0000
vt 0.3747 0.1178 0.0000
vt 0.3662 0.1199 0.0000
vt 0.3662 0.1582 0.0000
vt 0.1450 0.1207 0.0000
vt 0.0127 0.1207 0.0000
vt 0.0127 0.1617 0.0000
vt 0.1450 0.1617 0.0000
vt 0.1576 0.1177 0.0000
vt 0.0001 0.1177 0.0000
vt 0.0001 0.1647 0.0000
vt 0.1576 0.1647 0.0000
vt 0.3747 0.1177 0.0000
vt 0.3874 0.1604 0.0000
vt 0.3874 0.1177 0.0000
vt 0.4842 0.1186 0.0000
vt 0.4842 0.1527 0.0000
# 32 texture coords

g Mesh_1614
usemtl Material__5073
s 81
f 29/37/18 30/38/18 31/39/18 
s 82
f 32/40/18 31/39/18 30/38/18 
s 123
f 33/41/19 34/42/19 35/43/19 
s 124
f 36/44/19 35/43/19 34/42/19 
s 125
f 37/45/20 38/46/21 39/47/22 
s 126
f 40/43/21 39/47/22 38/46/21 
s 127
f 41/48/23 34/42/23 42/49/23 
s 128
f 33/41/24 42/49/24 34/42/24 
s 129
f 43/50/25 37/51/26 41/52/25 
s 130
f 34/53/27 41/52/25 37/51/26 
s 131
f 34/53/27 37/51/26 36/54/28 
s 132
f 39/55/28 36/54/28 37/51/26 
s 141
f 44/56/29 29/37/30 45/57/31 
s 142
f 31/39/32 45/57/31 29/37/30 
s 143
f 45/57/31 31/39/32 46/58/33 
s 144
f 32/40/34 46/58/33 31/39/32 
s 145
f 46/58/33 32/40/34 47/59/35 
s 146
f 30/38/36 47/59/35 32/40/34 
s 147
f 43/60/37 44/56/29 48/61/38 
s 148
f 45/57/31 48/61/38 44/56/29 
s 149
f 48/61/38 45/57/31 42/62/39 
s 150
f 46/58/33 42/62/39 45/57/31 
s 151
f 42/62/39 46/58/33 41/63/38 
s 152
f 47/59/35 41/63/38 46/58/33 
s 153
f 41/63/38 47/59/35 43/60/37 
s 154
f 44/56/29 43/60/37 47/59/35 
s 155
f 47/59/35 30/38/36 44/56/29 
s 156
f 29/37/30 44/56/29 30/38/36 
s 175
f 35/54/40 40/55/41 33/64/42 
s 176
f 38/51/43 33/64/42 40/55/41 
s 177
f 38/51/43 48/65/44 33/64/42 
s 178
f 42/66/44 33/64/42 48/65/44 
s 181
f 48/67/45 38/46/45 43/68/46 
s 182
f 37/45/46 43/68/46 38/46/45 
# 0 polygons - 34 triangles

#
# object Mesh_1615
#

v  -11.0853 0.0000 -8.1840
v  -11.0853 2.1280 -8.1840
v  -7.4373 0.0000 -8.1840
v  -7.4373 2.1280 -8.1840
v  -11.0853 0.0000 -7.5000
v  -11.0853 2.1280 -7.5000
v  -7.4373 0.0000 -7.5000
v  -7.4373 2.1280 -7.5000
v  -7.3613 2.1280 -7.5000
v  -11.1613 2.1280 -7.5000
v  -7.3613 2.1280 -8.2600
v  -11.1613 2.1280 -8.2600
v  -11.1613 2.2040 -8.2600
v  -11.1613 2.2040 -7.5000
v  -7.3613 2.2040 -8.2600
v  -7.3613 2.2040 -7.5000
# 16 vertices

vn 0.0000 0.0000 -1.0000
vn -1.0000 0.0000 -0.0000
vn 1.0000 0.0000 0.0000
vn 0.0000 -1.0000 -0.0000
vn 0.0000 1.0000 -0.0000
# 5 vertex normals

vt 0.2368 0.0124 0.0000
vt 0.2368 0.0588 0.0000
vt -0.0009 0.0124 0.0000
vt -0.0009 0.0588 0.0000
vt 0.0127 0.0125 0.0000
vt 0.0127 0.0520 0.0000
vt 0.0595 0.0125 0.0000
vt 0.0595 0.0520 0.0000
vt 0.2368 0.0000 0.0000
vt 0.0000 0.0000 0.0000
vt 0.2368 0.0122 0.0000
vt 0.0000 0.0122 0.0000
vt 0.2333 0.0006 0.0000
vt 0.2486 0.0004 0.0000
vt 0.2333 0.0590 0.0000
vt 0.2486 0.0587 0.0000
vt 0.2358 0.0266 0.0000
vt 0.2465 0.0266 0.0000
vt 0.2358 0.0589 0.0000
vt 0.2465 0.0589 0.0000
# 20 texture coords

g Mesh_1615
usemtl Material__5073
s 1
f 49/69/47 50/70/47 51/71/47 
f 52/72/47 51/71/47 50/70/47 
s 2
f 53/73/48 54/74/48 49/75/48 
f 50/76/48 49/75/48 54/74/48 
f 51/75/49 52/76/49 55/73/49 
f 56/74/49 55/73/49 52/76/49 
s 1
f 57/77/50 58/78/50 59/79/50 
f 60/80/50 59/79/50 58/78/50 
f 61/80/51 62/78/51 63/79/51 
f 64/77/51 63/79/51 62/78/51 
s 2
f 60/81/47 61/82/47 59/83/47 
f 63/84/47 59/83/47 61/82/47 
s 4
f 58/85/48 62/86/48 60/87/48 
f 61/88/48 60/87/48 62/86/48 
f 59/87/49 63/88/49 57/85/49 
f 64/86/49 57/85/49 63/88/49 
# 0 polygons - 16 triangles

#
# object Object077
#

v  -8.7940 3.5440 7.8039
v  -8.7940 4.4560 7.8039
v  -9.7060 3.5440 7.8039
v  -9.7060 4.4560 7.8039
v  -8.7940 3.5440 7.5000
v  -9.7060 3.5440 7.5000
v  -8.7940 4.4560 7.5000
v  -9.7060 4.4560 7.5000
# 8 vertices

vn 0.0000 0.0000 1.0000
vn 0.0000 -1.0000 -0.0000
vn 1.0000 0.0000 -0.0000
vn 0.0000 1.0000 -0.0000
vn -1.0000 0.0000 0.0000
# 5 vertex normals

vt 0.8445 0.1543 0.0000
vt 0.8445 0.1766 0.0000
vt 0.7563 0.1543 0.0000
vt 0.7563 0.1766 0.0000
vt 0.9485 0.1766 0.0000
vt 0.9996 0.1766 0.0000
vt 0.9485 0.1547 0.0000
vt 0.9996 0.1547 0.0000
vt 0.9996 0.1548 0.0000
vt 0.9481 0.1548 0.0000
vt 0.9481 0.1766 0.0000
# 11 texture coords

g Object077
usemtl Material__5073
s 1
f 65/89/52 66/90/52 67/91/52 
f 68/92/52 67/91/52 66/90/52 
s 2
f 69/93/53 65/94/53 70/95/53 
f 67/96/53 70/95/53 65/94/53 
s 4
f 71/97/54 66/98/54 69/94/54 
f 65/99/54 69/94/54 66/98/54 
s 2
f 72/95/55 68/96/55 71/93/55 
f 66/94/55 71/93/55 68/96/55 
s 4
f 70/94/56 67/99/56 72/97/56 
f 68/98/56 72/97/56 67/99/56 
# 0 polygons - 10 triangles

#
# object Object078
#

v  -9.7060 3.5440 7.1961
v  -9.7060 4.4560 7.1961
v  -8.7940 3.5440 7.1961
v  -8.7940 4.4560 7.1961
v  -9.7060 3.5440 7.5000
v  -8.7940 3.5440 7.5000
v  -9.7060 4.4560 7.5000
v  -8.7940 4.4560 7.5000
# 8 vertices

vn 0.0000 0.0000 -1.0000
vn 0.0000 -1.0000 -0.0000
vn -1.0000 0.0000 -0.0000
vn 0.0000 1.0000 -0.0000
vn 1.0000 0.0000 0.0000
# 5 vertex normals

vt 0.8445 0.1543 0.0000
vt 0.8445 0.1766 0.0000
vt 0.7563 0.1543 0.0000
vt 0.7563 0.1766 0.0000
vt 0.9485 0.1766 0.0000
vt 0.9996 0.1766 0.0000
vt 0.9485 0.1547 0.0000
vt 0.9996 0.1547 0.0000
vt 0.9996 0.1548 0.0000
vt 0.9481 0.1548 0.0000
vt 0.9481 0.1766 0.0000
# 11 texture coords

g Object078
usemtl Material__5073
s 1
f 73/100/57 74/101/57 75/102/57 
f 76/103/57 75/102/57 74/101/57 
s 2
f 77/104/58 73/105/58 78/106/58 
f 75/107/58 78/106/58 73/105/58 
s 4
f 79/108/59 74/109/59 77/105/59 
f 73/110/59 77/105/59 74/109/59 
s 2
f 80/106/60 76/107/60 79/104/60 
f 74/105/60 79/104/60 76/107/60 
s 4
f 78/105/61 75/110/61 80/108/61 
f 76/109/61 80/108/61 75/110/61 
# 0 polygons - 10 triangles

#
# object Mesh_1616
#

v  12.4340 0.0000 -1.8957
v  12.5660 0.0000 -4.5357
v  12.5660 0.0000 -1.8957
v  12.4340 0.0000 -4.5357
v  12.4340 4.7520 -1.8957
v  12.5660 4.7520 -4.5357
v  12.4340 4.7520 -4.5357
v  12.5660 4.7520 -1.8957
# 8 vertices

vn 0.0000 -1.0000 -0.0000
vn 0.0000 1.0000 -0.0000
vn -1.0000 0.0000 0.0000
vn -0.0000 0.0000 -1.0000
vn 1.0000 0.0000 -0.0000
vn 0.0000 0.0000 1.0000
# 6 vertex normals

vt 0.5162 0.0583 0.0000
vt 0.5412 0.1171 0.0000
vt 0.5412 0.0583 0.0000
vt 0.5162 0.1171 0.0000
vt 0.5001 0.1171 0.0000
vt 0.9996 0.0583 0.0000
vt 0.5001 0.0583 0.0000
vt 0.9996 0.1171 0.0000
vt 0.5001 0.1152 0.0000
vt 0.9996 0.1122 0.0000
vt 0.5001 0.1122 0.0000
vt 0.9996 0.1152 0.0000
vt 0.5001 0.0631 0.0000
vt 0.9996 0.0602 0.0000
vt 0.5001 0.0602 0.0000
vt 0.9996 0.0631 0.0000
# 16 texture coords

g Mesh_1616
usemtl Material__5073
s off
f 81/111/62 82/112/62 83/113/62 
f 82/112/62 81/111/62 84/114/62 
f 85/114/63 86/113/63 87/111/63 
f 86/113/63 85/114/63 88/112/63 
f 81/115/64 87/116/64 84/117/64 
f 87/116/64 81/115/64 85/118/64 
f 84/119/65 86/120/65 82/121/65 
f 86/120/65 84/119/65 87/122/65 
f 82/117/66 88/118/66 83/115/66 
f 88/118/66 82/117/66 86/116/66 
f 83/123/67 85/124/67 81/125/67 
f 85/124/67 83/123/67 88/126/67 
# 0 polygons - 12 triangles

#
# object Mesh_1617
#

v  12.5842 5.9945 -3.5431
v  12.5847 5.9946 -2.8889
v  12.5842 5.5054 -3.5430
v  12.5847 5.5055 -2.8889
v  12.5397 5.4201 -2.8034
v  12.5397 6.0800 -2.8035
v  12.5005 5.4534 -2.8450
v  12.5005 6.0467 -2.8451
v  12.5392 6.0799 -3.6285
v  12.5392 5.4200 -3.6284
v  12.5000 6.0466 -3.5868
v  12.5000 5.4533 -3.5867
v  12.5986 6.0801 -2.8035
v  12.5986 5.4201 -2.8034
v  12.5980 6.0800 -3.6285
v  12.5981 6.0272 -3.5757
v  12.5981 5.4727 -3.5756
v  12.5986 5.4728 -2.8562
v  12.5986 6.0272 -2.8563
v  12.5980 5.4199 -3.6285
# 20 vertices

vn 0.9767 -0.1518 0.1518
vn 0.9766 -0.1519 -0.1525
vn 0.9767 0.1519 0.1517
vn 0.9767 0.1514 -0.1522
vn -0.4925 -0.8293 0.2641
vn -0.3915 0.6581 0.6432
vn -0.7999 -0.4595 0.3859
vn -0.7369 0.0236 0.6756
vn -0.3853 0.6469 -0.6581
vn -0.3858 -0.6471 -0.6576
vn -0.8002 0.4599 -0.3849
vn -0.8002 -0.4601 -0.3847
vn 0.5770 0.5780 0.5771
vn 0.7066 -0.7065 0.0400
vn 0.0000 0.0002 1.0000
vn 0.5764 0.5780 -0.5776
vn -0.6476 0.7620 0.0003
vn 0.9974 -0.0515 0.0507
vn 0.9974 0.0515 0.0507
vn 0.9973 0.0514 -0.0521
vn 0.9973 -0.0515 -0.0523
vn 0.5760 -0.5780 -0.5781
# 22 vertex normals

vt 0.1372 0.1226 0.0000
vt 0.1372 0.1598 0.0000
vt 0.0205 0.1226 0.0000
vt 0.0205 0.1598 0.0000
vt 0.4714 0.1185 0.0000
vt 0.4714 0.1526 0.0000
vt 0.4624 0.1203 0.0000
vt 0.4624 0.1509 0.0000
vt 0.4715 0.1527 0.0000
vt 0.4715 0.1186 0.0000
vt 0.4624 0.1510 0.0000
vt 0.4842 0.1526 0.0000
vt 0.4842 0.1185 0.0000
vt 0.3875 0.1604 0.0000
vt 0.3747 0.1604 0.0000
vt 0.3875 0.1178 0.0000
vt 0.3747 0.1178 0.0000
vt 0.3662 0.1199 0.0000
vt 0.3662 0.1582 0.0000
vt 0.1450 0.1207 0.0000
vt 0.0127 0.1207 0.0000
vt 0.0127 0.1617 0.0000
vt 0.1450 0.1617 0.0000
vt 0.1576 0.1177 0.0000
vt 0.0001 0.1177 0.0000
vt 0.0001 0.1647 0.0000
vt 0.1576 0.1647 0.0000
vt 0.3747 0.1177 0.0000
vt 0.3874 0.1604 0.0000
vt 0.3874 0.1177 0.0000
vt 0.4842 0.1186 0.0000
vt 0.4842 0.1527 0.0000
# 32 texture coords

g Mesh_1617
usemtl Material__5073
s 81
f 89/127/68 90/128/69 91/129/70 
s 82
f 92/130/71 91/129/70 90/128/69 
s 123
f 93/131/72 94/132/73 95/133/74 
s 124
f 96/134/75 95/133/74 94/132/73 
s 125
f 97/135/76 98/136/77 99/137/78 
s 126
f 100/133/79 99/137/78 98/136/77 
s 127
f 101/138/80 94/132/73 102/139/81 
s 128
f 93/131/82 102/139/82 94/132/82 
s 129
f 103/140/83 97/141/76 101/142/80 
s 130
f 94/143/73 101/142/80 97/141/76 
s 131
f 94/143/73 97/141/76 96/144/84 
s 132
f 99/145/78 96/144/75 97/141/76 
s 141
f 104/146/85 89/127/68 105/147/86 
s 142
f 91/129/70 105/147/86 89/127/68 
s 143
f 105/147/86 91/129/70 106/148/87 
s 144
f 92/130/71 106/148/87 91/129/70 
s 145
f 106/148/87 92/130/71 107/149/88 
s 146
f 90/128/69 107/149/88 92/130/71 
s 147
f 103/150/83 104/146/85 108/151/89 
s 148
f 105/147/86 108/151/89 104/146/85 
s 149
f 108/151/89 105/147/86 102/152/81 
s 150
f 106/148/87 102/152/81 105/147/86 
s 151
f 102/152/81 106/148/87 101/153/80 
s 152
f 107/149/88 101/153/80 106/148/87 
s 153
f 101/153/80 107/149/88 103/150/83 
s 154
f 104/146/85 103/150/83 107/149/88 
s 155
f 107/149/88 90/128/69 104/146/85 
s 156
f 89/127/68 104/146/85 90/128/69 
s 175
f 95/144/74 100/145/79 93/154/72 
s 176
f 98/141/77 93/154/72 100/145/79 
s 177
f 98/141/77 108/155/89 93/154/72 
s 178
f 102/156/81 93/154/72 108/155/89 
s 181
f 108/157/89 98/136/77 103/158/83 
s 182
f 97/135/76 103/158/83 98/136/77 
# 0 polygons - 34 triangles

#
# object Box082
#

v  -12.5000 0.0000 7.5000
v  -12.5000 10.7500 7.5000
v  12.5000 10.7500 7.5000
v  12.5000 0.0000 7.5000
v  12.5000 10.7500 -7.5000
v  12.5000 0.0000 -7.5000
v  -12.5000 10.7500 -7.5000
v  -12.5000 0.0000 -7.5000
# 8 vertices

vn 0.0000 0.0000 -1.0000
vn -1.0000 0.0000 -0.0000
vn 0.0000 0.0000 1.0000
vn 1.0000 0.0000 -0.0000
# 4 vertex normals

vt 0.0000 0.7712 0.0000
vt 0.0000 0.9687 0.0000
vt 1.9527 0.9687 0.0000
vt 1.9527 0.7712 0.0000
vt 0.0000 0.7716 0.0000
vt 0.0000 0.9681 0.0000
vt 1.1653 0.9681 0.0000
vt 1.1653 0.7716 0.0000
# 8 texture coords

g Box082
usemtl Material__5073
s 8
f 109/159/90 110/160/90 111/161/90 112/162/90 
s 16
f 112/163/91 111/164/91 113/165/91 114/166/91 
s 32
f 114/159/92 113/160/92 115/161/92 116/162/92 
s 64
f 116/163/93 115/164/93 110/165/93 109/166/93 
# 4 polygons