# Blender v2.77 (sub 0) OBJ File: ''
# www.blender.org
mtllib farmhouse.mtl
o Default
v 1.263999 0.087870 2.698057
v 1.263999 0.487870 2.698057
v 1.248377 0.487870 2.678057
v 1.247999 0.087870 2.678057
v 3.019999 -0.312130 2.698054
v 3.019999 0.487868 2.698054
v 0.254999 0.087870 2.678057
v 0.239999 0.087870 2.698058
v -3.020000 -0.312129 2.698061
v 2.999999 0.487868 2.678054
v 1.247999 0.087870 2.578057
v 0.254999 0.087870 2.578058
v 1.248377 1.987867 2.578057
v 0.255000 1.987867 2.578058
v 0.254999 0.487870 2.678057
v 0.255002 1.987867 2.678057
v 3.099995 1.449407 -2.614253
v 3.099995 1.541714 -2.652715
v 3.099998 2.080176 -1.360407
v 3.099998 1.987868 -1.321944
v -0.100004 1.541714 -2.652712
v -0.100004 1.449407 -2.614250
v -0.000004 1.487869 -2.521942
v 2.999995 1.487868 -2.521945
v 2.999997 1.987868 -1.321944
v -0.100002 2.080177 -1.360405
v -0.000002 1.987869 -1.321943
v -0.000005 -0.312131 -2.517942
v -0.000005 0.487868 -2.518264
v 0.019995 0.487868 -2.541942
v 0.019995 -0.312131 -2.541942
v -0.000002 -0.312131 -1.341941
v 3.019994 -0.312132 -2.541945
v 3.019995 0.487868 -2.541945
v 2.999995 0.487868 -2.521945
v -0.000005 0.167868 -2.406148
v -0.000002 0.167868 -1.437735
v -0.000002 1.814176 -1.437735
v -0.000002 0.487868 -1.341941
v -0.000002 0.487868 -1.321941
v -0.996724 1.987869 -1.321941
v -0.996724 1.487869 -1.321941
v -1.495002 1.487869 -1.321941
v -3.000002 0.487869 -1.321940
v -3.020002 0.487869 -1.341940
v 3.299999 4.487868 0.678055
v 3.299999 4.629286 0.536635
v 3.299999 4.912130 0.536635
v 3.299999 4.912132 0.819477
v 3.299999 4.629286 0.819477
v 3.299997 2.259418 -1.974659
v 3.299999 4.346446 0.678055
v 3.299999 4.699998 0.465923
v 3.299999 4.700000 0.890187
v 3.300001 2.259418 3.330770
v -3.300000 4.346447 0.678062
v -3.300001 2.259419 -1.974654
v -3.300001 1.976577 -1.691812
v -3.300000 4.487869 0.678062
v -3.300000 4.629292 0.536640
v -3.300000 4.700001 0.465930
v -3.300000 4.629292 0.819484
v -3.299997 2.259421 3.330774
v -3.300000 4.700001 0.890194
v -3.299997 1.976578 3.047929
v -3.299999 4.912133 0.819484
v -3.300000 4.912133 0.536640
v -3.200001 1.976577 -1.691812
v -3.200000 4.346447 0.678062
v -3.199997 1.976578 3.047929
v 3.200001 1.976575 3.047926
v 3.199999 4.346446 0.678055
v 3.300001 1.976575 3.047926
v 3.199997 1.976576 -1.691815
v 3.299997 1.976576 -1.691815
v -0.040002 0.167868 -1.437735
v -0.040002 1.814177 -1.437735
v -0.040004 1.410673 -2.406148
v -0.040005 0.167868 -2.406148
v -0.000004 1.410673 -2.406148
v 0.239999 0.487870 2.698058
v -3.020000 0.487871 2.698061
v 2.939998 2.687868 0.078056
v 2.939998 3.487868 0.078055
v 2.939999 3.487868 1.278055
v 2.939999 2.687868 1.278054
v 2.899998 3.487868 0.078055
v 2.899998 2.687868 0.078056
v 2.899999 2.687868 1.278054
v 2.899999 3.487868 1.278055
v -0.133335 3.887869 -0.171942
v -0.133335 3.887869 -0.471942
v -0.266667 3.887869 -0.471942
v -0.266667 3.887869 -0.171942
v -0.266667 4.487869 -0.471942
v -0.266667 4.487869 -0.171942
v -0.133335 4.487869 -0.171942
v -0.133335 4.487869 -0.471942
v 3.199997 2.259418 -1.974659
v -3.200000 4.487869 0.678062
v -3.199997 2.487870 2.678060
v -3.200001 2.487870 -1.321940
v -3.199997 2.558578 2.748770
v -3.199997 2.188710 3.118641
v -3.200001 2.188709 -1.762522
v -3.200001 2.558579 -1.392650
v -3.199997 2.259421 3.189352
v -3.199997 2.259421 3.330774
v -3.200001 2.259419 -1.974654
v -3.200001 2.259419 -1.833232
v -3.200000 4.629292 0.819484
v -3.200000 4.700001 0.890192
v -3.200000 4.700001 0.465930
v -3.200000 4.629292 0.536639
v 3.200001 2.259418 3.330770
v 3.199999 4.487868 0.678055
v 3.199998 2.487868 -1.321944
v 3.200001 2.487868 2.678055
v 3.199998 2.558578 -1.392654
v 3.199997 2.188708 -1.762527
v 3.200001 2.188708 3.118636
v 3.200001 2.558578 2.748766
v 3.199997 2.259418 -1.833237
v 3.200001 2.259418 3.189348
v 3.199999 4.629286 0.536635
v 3.199999 4.700000 0.465923
v 3.199999 4.700000 0.890187
v 3.199999 4.629286 0.819477
v -0.000001 4.070711 -0.021942
v -0.000001 3.470711 -0.621942
v -0.400001 4.070711 -0.021942
v -0.400001 3.470711 -0.621942
v 1.248379 1.987867 2.678057
v -2.900001 1.487869 0.678060
v -2.900000 1.487871 1.178061
v -2.900000 1.987869 1.178061
v -2.900000 1.987869 0.678060
v -3.000000 1.487869 0.678060
v -3.000000 1.487871 1.178061
v -3.000000 1.987869 1.178061
v 2.899999 4.487868 0.678055
v 2.900001 2.487868 2.678056
v 2.899998 2.487868 -1.321944
v 3.000001 2.487868 2.678055
v 2.999998 2.487868 -1.321944
v -3.200000 4.912133 0.819482
v -3.200000 4.912133 0.536639
v -3.200000 4.770711 0.678062
v 3.199999 4.912130 0.536635
v 3.199999 4.912132 0.819477
v 3.199999 4.770710 0.678055
v -3.020002 -0.312129 -1.341940
v 2.899999 1.487868 1.678054
v 2.899999 1.987868 1.678054
v 2.899999 1.987868 2.178055
v 2.899999 1.487868 2.178055
v 2.999999 1.987868 1.678054
v 2.999999 1.987868 2.178054
v 2.999999 1.487868 1.678054
v 2.999999 1.487868 2.178054
v 2.899998 1.487868 0.178056
v 2.899998 1.987868 0.178056
v 2.899998 1.987868 0.678056
v 2.899998 1.487868 0.678056
v 2.999998 1.487868 0.178056
v 2.999998 1.987868 0.178056
v 2.999998 1.487868 0.678056
v 2.999998 1.987868 0.678056
v -0.100002 1.987869 -1.321943
v -3.000000 1.987869 0.678060
v -2.900001 1.487869 -0.321940
v -2.900001 1.987869 -0.321940
v -2.900001 1.987869 -0.821940
v -2.900001 1.487869 -0.821940
v -3.000001 1.487869 -0.821940
v -3.000001 1.987869 -0.821940
v -3.000001 1.987869 -0.321940
v -3.000001 1.487869 -0.321940
v -1.495001 1.987869 -1.221941
v -0.996723 1.987869 -1.221941
v -0.996724 1.487869 -1.221941
v -1.495001 1.487869 -1.221941
v -1.495001 1.987869 -1.321941
v -1.495860 1.487871 2.578058
v -0.995860 1.487871 2.578058
v -0.995860 1.987869 2.578058
v -1.495860 1.987869 2.578058
v -0.995860 1.487871 2.678058
v -0.995858 1.987869 2.678058
v -1.495860 1.487871 2.678058
v -1.495858 1.987869 2.678058
v -2.999997 2.487870 2.678060
v -3.000000 0.487871 2.678061
v -3.000001 2.487869 -1.321940
v -2.900000 4.487869 0.678059
v -2.900001 2.487869 -1.321940
v -2.899999 2.487870 2.678060
v -0.000001 4.487869 -0.621942
v -0.400001 4.487869 -0.621942
v -0.400001 4.487869 -0.021942
v -0.000001 4.487869 -0.021942
vt 0.7131 0.8866
vt 0.7131 0.9096
vt 0.7116 0.9096
vt 0.7116 0.8866
vt 0.8139 0.8636
vt 0.8139 0.9096
vt 0.7122 0.8878
vt 0.6552 0.8878
vt 0.6543 0.8866
vt 0.4671 0.8637
vt 0.8128 0.9107
vt 0.7122 0.9108
vt 0.8674 0.2366
vt 0.8617 0.2366
vt 0.8617 0.1796
vt 0.8674 0.1796
vt 0.8674 0.2596
vt 0.8617 0.3457
vt 0.2915 0.0200
vt 0.3485 0.0200
vt 0.3485 0.1291
vt 0.2915 0.1291
vt 0.8395 0.2025
vt 0.8453 0.1795
vt 0.8453 0.2887
vt 0.8395 0.2887
vt 0.0620 0.0468
vt 0.0677 0.0468
vt 0.0677 0.1272
vt 0.0620 0.1272
vt 0.2515 0.0468
vt 0.0677 0.0410
vt 0.2515 0.0410
vt 0.2457 0.0353
vt 0.0734 0.0353
vt 0.0562 0.1272
vt 0.0562 0.0525
vt 0.2515 0.1272
vt 0.0734 0.1329
vt 0.0677 0.1329
vt 0.2457 0.1329
vt 0.5366 0.9272
vt 0.5366 0.9731
vt 0.5348 0.9731
vt 0.5348 0.9272
vt 0.5932 0.7568
vt 0.5352 0.8002
vt 0.5184 0.8002
vt 0.5180 0.7999
vt 0.5180 0.7568
vt 0.3626 0.9731
vt 0.3626 0.9272
vt 0.5360 0.9745
vt 0.3637 0.9743
vt 0.2342 0.7005
vt 0.2406 0.7281
vt 0.2342 0.7465
vt 0.2963 0.7281
vt 0.3018 0.7005
vt 0.2963 0.8226
vt 0.3018 0.7465
vt 0.3029 0.7465
vt 0.3029 0.8326
vt 0.2912 0.6496
vt 0.2340 0.6496
vt 0.2912 0.6209
vt 0.2340 0.5635
vt 0.3199 0.6209
vt 0.4063 0.5635
vt 0.0617 0.9108
vt 0.0617 0.9096
vt 0.2351 0.9096
vt 0.2339 0.9108
vt 0.8062 0.6492
vt 0.7900 0.6492
vt 0.7900 0.6329
vt 0.9348 0.7760
vt 0.9290 0.9743
vt 0.9176 0.9743
vt 0.9118 0.9685
vt 0.9348 0.9743
vt 0.9117 0.2848
vt 0.9060 0.2848
vt 0.9061 0.0866
vt 0.9290 0.2791
vt 0.9232 0.2848
vt 0.9290 0.5073
vt 0.9061 0.3148
vt 0.9290 0.3148
vt 0.9233 0.5130
vt 0.9118 0.5130
vt 0.9061 0.5130
vt 0.9290 0.7461
vt 0.9348 0.5478
vt 0.9348 0.7461
vt 0.9176 0.7461
vt 0.9118 0.7403
vt 0.9118 0.5478
vt 0.7621 0.6329
vt 0.7621 0.6492
vt 0.7458 0.6492
vt 0.7458 0.6329
vt 0.7540 0.6248
vt 0.9348 0.3148
vt 0.9348 0.5073
vt 0.9061 0.7403
vt 0.9061 0.5478
vt 0.9348 0.0866
vt 0.9347 0.2791
vt 0.9290 0.0866
vt 0.9061 0.7760
vt 0.9118 0.7760
vt 0.9061 0.9685
vt 0.4229 0.0325
vt 0.4229 0.1270
vt 0.3672 0.1038
vt 0.3672 0.0325
vt 0.4252 0.0325
vt 0.4252 0.1270
vt 0.3672 0.0302
vt 0.4229 0.0302
vt 0.3649 0.1038
vt 0.3649 0.0325
vt 0.4220 0.1291
vt 0.3664 0.1060
vt 0.2340 0.8039
vt 0.2406 0.7995
vt 0.6543 0.9096
vt 0.4671 0.9096
vt 0.6557 0.8866
vt 0.6557 0.9096
vt 0.5128 0.0809
vt 0.5128 0.1268
vt 0.4438 0.1268
vt 0.4438 0.0809
vt 0.5151 0.1268
vt 0.5151 0.0809
vt 0.4438 0.0786
vt 0.5128 0.0786
vt 0.4416 0.0809
vt 0.4416 0.1268
vt 0.5128 0.1291
vt 0.4438 0.1291
vt 0.6544 0.0990
vt 0.6372 0.0990
vt 0.6372 0.0914
vt 0.6544 0.0914
vt 0.6296 0.0990
vt 0.6296 0.1335
vt 0.6123 0.1335
vt 0.6123 0.0990
vt 0.6621 0.1335
vt 0.6544 0.1335
vt 0.6621 0.0990
vt 0.6372 0.1335
vt 0.9118 0.7702
vt 0.9348 0.7702
vt 0.9003 0.7461
vt 0.9003 0.5836
vt 0.9405 0.3506
vt 0.9405 0.5130
vt 0.8946 0.5836
vt 0.8946 0.5535
vt 0.9463 0.3205
vt 0.9463 0.3506
vt 0.9118 0.5420
vt 0.9233 0.5363
vt 0.9290 0.5363
vt 0.9348 0.5420
vt 0.9290 0.3090
vt 0.9061 0.3090
vt 0.9118 0.3033
vt 0.9176 0.3033
vt 0.9463 0.5535
vt 0.9463 0.7461
vt 0.9405 0.7461
vt 0.9405 0.5478
vt 0.9003 0.3148
vt 0.9003 0.5130
vt 0.8946 0.5130
vt 0.8946 0.3205
vt 0.9290 0.0808
vt 0.9061 0.0808
vt 0.9003 0.9743
vt 0.9003 0.8118
vt 0.9405 0.1224
vt 0.9405 0.2848
vt 0.8946 0.8118
vt 0.8946 0.7817
vt 0.9463 0.0923
vt 0.9463 0.1224
vt 0.9233 0.7645
vt 0.9290 0.7645
vt 0.9118 0.0751
vt 0.9176 0.0751
vt 0.9463 0.7817
vt 0.9463 0.9743
vt 0.9405 0.9743
vt 0.9405 0.7760
vt 0.9003 0.0866
vt 0.9003 0.2848
vt 0.8945 0.2848
vt 0.8946 0.0923
vt 0.4416 0.3801
vt 0.4416 0.1876
vt 0.8091 0.1876
vt 0.8091 0.3801
vt 0.2375 0.3335
vt 0.0537 0.3789
vt 0.0537 0.1864
vt 0.2375 0.2848
vt 0.4213 0.3789
vt 0.2605 0.3335
vt 0.4213 0.1864
vt 0.2605 0.2848
vt 0.8675 0.3457
vt 0.7572 0.0889
vt 0.7859 0.0889
vt 0.7859 0.1176
vt 0.7572 0.1176
vt 0.7572 0.0832
vt 0.7859 0.0832
vt 0.7917 0.1176
vt 0.7917 0.0889
vt 0.3986 0.7636
vt 0.4330 0.8210
vt 0.3182 0.7061
vt 0.3986 0.7176
vt 0.4675 0.7636
vt 0.4675 0.7176
vt 0.5479 0.7061
vt 0.4063 0.5413
vt 0.6360 0.5413
vt 0.6360 0.5471
vt 0.4063 0.5471
vt 0.7621 0.6549
vt 0.7458 0.6549
vt 0.7540 0.6631
vt 0.8062 0.6549
vt 0.7900 0.6549
vt 0.7981 0.6631
vt 0.8395 0.1795
vt 0.8453 0.3457
vt 0.8395 0.3457
vt 0.5932 0.8436
vt 0.5352 0.8436
vt 0.7293 0.0889
vt 0.7293 0.1176
vt 0.7006 0.1176
vt 0.7006 0.0889
vt 0.7293 0.1234
vt 0.7006 0.1234
vt 0.7351 0.0889
vt 0.7351 0.1176
vt 0.6949 0.1176
vt 0.6949 0.0889
vt 0.7006 0.0832
vt 0.7293 0.0832
vt 0.8446 0.0342
vt 0.8446 0.0630
vt 0.8159 0.0630
vt 0.8159 0.0342
vt 0.8504 0.0342
vt 0.8504 0.0630
vt 0.8159 0.0285
vt 0.8446 0.0285
vt 0.8446 0.0687
vt 0.8159 0.0687
vt 0.8101 0.0630
vt 0.8101 0.0342
vt 0.2572 0.0468
vt 0.2572 0.1272
vt 0.2629 0.0525
vt 0.2629 0.1272
vt 0.2515 0.1329
vt 0.0617 0.9731
vt 0.0617 0.9272
vt 0.0617 0.8033
vt 0.0619 0.7458
vt 0.7515 0.0889
vt 0.7515 0.1176
vt 0.7859 0.1234
vt 0.7572 0.1234
vt 0.7880 0.0342
vt 0.7880 0.0630
vt 0.7593 0.0630
vt 0.7593 0.0342
vt 0.7536 0.0342
vt 0.7536 0.0630
vt 0.7880 0.0687
vt 0.7593 0.0687
vt 0.7593 0.0285
vt 0.7880 0.0285
vt 0.7937 0.0630
vt 0.7937 0.0342
vt 0.7293 0.0611
vt 0.7007 0.0611
vt 0.7007 0.0323
vt 0.7293 0.0323
vt 0.7007 0.0266
vt 0.7293 0.0266
vt 0.6949 0.0611
vt 0.6949 0.0323
vt 0.7350 0.0323
vt 0.7350 0.0611
vt 0.7293 0.0668
vt 0.7007 0.0668
vt 0.8138 0.0889
vt 0.8425 0.0889
vt 0.8425 0.1176
vt 0.8138 0.1176
vt 0.8483 0.0889
vt 0.8483 0.1176
vt 0.8425 0.0832
vt 0.8138 0.0832
vt 0.8138 0.1234
vt 0.8425 0.1234
vt 0.8081 0.1176
vt 0.8081 0.0889
vt 0.0617 0.8636
vt 0.2351 0.8637
vt 0.3057 0.5126
vt 0.3057 0.4264
vt 0.4063 0.4264
vt 0.0617 0.5413
vt 0.2486 0.5126
vt 0.1481 0.5126
vt 0.1768 0.5126
vt 0.1768 0.4839
vt 0.2486 0.4264
vt 0.1481 0.4839
vt 0.0617 0.4264
vt 0.5498 0.5126
vt 0.5211 0.5126
vt 0.4350 0.4839
vt 0.4350 0.5126
vt 0.4637 0.5126
vt 0.5211 0.4839
vt 0.4637 0.4839
vt 0.6360 0.5126
vt 0.5498 0.4839
vt 0.7049 0.4264
vt 0.7049 0.4839
vt 0.9405 0.7518
vt 0.9348 0.7518
vt 0.9003 0.5188
vt 0.9061 0.5188
vt 0.7659 0.4225
vt 0.7774 0.4225
vt 0.7831 0.5849
vt 0.7659 0.5849
vt 0.7831 0.4225
vt 0.7842 0.6329
vt 0.7842 0.6492
vt 0.8091 0.3964
vt 0.4416 0.3964
vt 0.7678 0.6329
vt 0.7678 0.6492
vt 0.8167 0.5849
vt 0.7995 0.5849
vt 0.8053 0.4225
vt 0.8167 0.4225
vt 0.7995 0.4225
vt 0.9060 0.2906
vt 0.9003 0.2906
vt 0.9405 0.9800
vt 0.9348 0.9800
vt 0.7437 0.4225
vt 0.7495 0.5849
vt 0.7323 0.5849
vt 0.7323 0.4225
vt 0.7495 0.4225
vt 0.8332 0.4225
vt 0.8389 0.4225
vt 0.8332 0.5849
vt 0.8504 0.4225
vt 0.8504 0.5849
vt 0.8091 0.4079
vt 0.4416 0.4079
vt 0.4213 0.4066
vt 0.0537 0.4066
vt 0.0537 0.3951
vt 0.4213 0.3951
vt 0.6791 0.8210
vt 0.5643 0.7061
vt 0.7940 0.7061
vt 0.6360 0.6841
vt 0.4063 0.6841
vt 0.4063 0.6784
vt 0.6360 0.6784
vt 0.5211 0.6496
vt 0.5498 0.6496
vt 0.4350 0.6496
vt 0.4637 0.6496
vt 0.4637 0.6209
vt 0.5211 0.6209
vt 0.5498 0.6209
vt 0.6360 0.5635
vt 0.4350 0.6209
vt 0.4659 0.9108
vt 0.2362 0.9108
vt 0.6552 0.9108
vt 0.4682 0.9108
vt 0.3614 0.9743
vt 0.0628 0.9743
vt 0.4416 0.1819
vt 0.8091 0.1819
vt 0.4416 0.1518
vt 0.8091 0.1518
vt 0.8630 0.6166
vt 0.8630 0.6052
vt 0.8687 0.6052
vt 0.8687 0.9728
vt 0.8630 0.9613
vt 0.8630 0.9728
vt 0.0617 0.6784
vt 0.0617 0.6496
vt 0.3199 0.6496
vt 0.8120 0.6492
vt 0.8062 0.6329
vt 0.8120 0.6329
vt 0.7401 0.6492
vt 0.7401 0.6329
vt 0.4213 0.1806
vt 0.0537 0.1806
vt 0.4213 0.1506
vt 0.0537 0.1506
vt 0.8408 0.9728
vt 0.8408 0.6051
vt 0.8466 0.6166
vt 0.8466 0.9613
vt 0.8466 0.6051
vt 0.8466 0.9728
vt 0.5923 0.0880
vt 0.6009 0.0804
vt 0.6009 0.1034
vt 0.5923 0.0957
vt 0.5664 0.1034
vt 0.5751 0.0957
vt 0.5664 0.0804
vt 0.5751 0.0880
vt 0.5435 0.0564
vt 0.5664 0.0564
vt 0.5435 0.0804
vt 0.6009 0.0220
vt 0.6239 0.0804
vt 0.6239 0.0220
vt 0.6583 0.0564
vt 0.6583 0.0804
vt 0.7981 0.6248
vn -0.2082 0.1521 0.9662
vn -0.3401 0.6194 0.7076
vn -0.8491 0.1766 0.4978
vn -0.5787 0.7899 0.2031
vn 0.5774 -0.5774 0.5773
vn 0.5774 0.5773 0.5773
vn 0.5869 0.7857 0.1956
vn 0.2142 0.1581 0.9639
vn -0.5773 -0.5774 0.5774
vn 0.3015 0.9045 0.3015
vn -0.5771 0.5776 0.5774
vn 0.5774 0.5774 0.5774
vn -0.5773 -0.5773 0.5774
vn 0.8541 0.1801 0.4880
vn 0.3015 -0.3015 0.9045
vn 0.5773 -0.7550 -0.3109
vn 0.5773 0.3109 -0.7550
vn 0.5774 0.7550 0.3109
vn 0.5774 -0.3109 0.7550
vn -0.5774 0.3109 -0.7550
vn -0.5774 -0.7550 -0.3109
vn -0.4105 -0.9104 0.0505
vn 0.4113 -0.9101 0.0506
vn 0.9115 -0.0510 0.4081
vn -0.5773 0.7550 0.3109
vn -0.6904 -0.1419 -0.7094
vn -0.7241 -0.6380 -0.2620
vn -0.8483 0.1680 -0.5021
vn -0.3314 0.6240 -0.7077
vn -0.3318 -0.6230 -0.7084
vn -0.3015 -0.9045 -0.3015
vn 0.5773 -0.5774 -0.5774
vn 0.5773 0.5774 -0.5774
vn 0.3014 0.9046 -0.3015
vn -0.9045 -0.3015 -0.3015
vn -0.9045 -0.3015 0.3015
vn -0.9464 0.2687 0.1791
vn -0.9045 0.3015 -0.3015
vn -0.5774 0.5774 -0.5774
vn -0.3015 -0.3015 -0.9045
vn -0.3015 0.3015 -0.9045
vn 0.3015 0.3015 -0.9045
vn -0.3015 0.9045 -0.3015
vn -0.5774 0.5774 -0.5773
vn 0.5774 0.5773 -0.5774
vn 0.5773 0.5774 0.5773
vn 0.9769 0.1974 0.0817
vn 0.5774 -0.0000 -0.8165
vn 0.9769 0.1974 -0.0818
vn 1.0000 0.0000 -0.0000
vn 0.9045 -0.4264 -0.0000
vn 0.5774 0.8165 0.0000
vn 0.5773 0.8165 -0.0000
vn 0.5773 -0.0000 0.8165
vn -0.9045 -0.4264 0.0000
vn -0.5773 0.0000 -0.8165
vn -0.5774 -0.8165 -0.0000
vn -1.0000 0.0000 0.0000
vn -0.9769 0.1974 -0.0818
vn -0.5774 0.8165 -0.0000
vn -0.9769 0.1974 0.0818
vn -0.5773 -0.0000 0.8165
vn -0.5773 0.5773 0.5774
vn 0.5774 -0.8165 -0.0000
vn 0.5773 -0.8165 0.0000
vn -0.5594 0.6897 0.4598
vn -0.6010 0.4433 -0.6650
vn -0.5774 -0.5773 -0.5773
vn -0.8554 0.2873 -0.4309
vn 0.3513 0.6189 0.7025
vn -0.5773 0.5774 0.5774
vn 0.5774 -0.5774 -0.5773
vn 0.5773 0.5773 -0.5774
vn 0.9045 0.3015 -0.3015
vn 0.9045 -0.3015 -0.3015
vn 0.9045 -0.3015 0.3015
vn 0.9045 0.3015 0.3015
vn -0.5774 0.5774 0.5774
vn 0.5774 0.5774 -0.5774
vn 0.3015 0.9045 -0.3015
vn -0.3015 0.9045 0.3015
vn 0.9045 -0.0000 0.4264
vn 0.5774 -0.0000 0.8165
vn 0.9045 -0.0000 -0.4264
vn 0.3780 0.5345 0.7559
vn 0.3780 0.5345 -0.7559
vn -0.9045 -0.0000 -0.4264
vn -0.9045 -0.0000 0.4264
vn -0.3780 0.5345 -0.7559
vn -0.5773 0.8165 0.0000
vn -0.3780 0.5345 0.7559
vn 0.5301 0.7497 -0.3963
vn 0.1313 0.5572 -0.8199
vn -0.5301 0.7497 -0.3963
vn -0.1313 0.5572 -0.8199
vn -0.3015 -0.3015 0.9045
vn -0.5773 0.5774 0.5773
vn -0.5774 0.5773 -0.5774
vn -0.5774 -0.5773 -0.5774
vn -0.5774 -0.5773 0.5774
vn -0.9045 0.3015 0.3015
vn 0.5469 0.3204 -0.7735
vn 0.5469 0.3204 0.7735
vn 0.4326 -0.7910 0.4326
vn 0.4326 -0.7910 -0.4326
vn 0.2274 0.7763 0.5879
vn 0.2274 0.7763 -0.5879
vn -0.2274 0.7763 -0.5879
vn -0.2274 0.7763 0.5879
vn -0.5774 -0.5774 -0.5774
vn 0.5774 -0.5774 0.5774
vn 0.5773 -0.5773 -0.5774
vn 0.5774 -0.5774 -0.5774
vn -0.5773 -0.3109 0.7550
vn -0.5774 -0.5774 0.5774
vn 0.3015 -0.3015 -0.9045
vn 0.5774 0.5774 0.5773
vn 0.5774 -0.5773 0.5773
vn -0.3015 0.3015 0.9045
vn 0.3015 0.3015 0.9045
vn -0.4326 -0.7910 0.4326
vn -0.4326 -0.7910 -0.4326
vn -0.5469 0.3204 0.7735
vn -0.5469 0.3204 -0.7735
usemtl oldhut
s 1
f 1/1/1 2/2/2 3/3/3 4/4/4
f 1/1/1 5/5/5 6/6/6 2/2/2
f 1/1/1 4/7/4 7/8/7 8/9/8
f 9/10/9 5/5/5 1/1/1 8/9/8
f 2/2/2 6/6/6 10/11/10 3/12/3
f 4/13/4 11/14/11 12/15/12 7/16/7
f 11/14/11 4/13/4 3/17/3
f 11/14/11 3/17/3 13/18/13
f 12/19/12 11/20/11 13/21/13 14/22/5
f 15/23/14 12/24/12 14/25/5
f 14/25/5 16/26/15 15/23/14
f 17/27/16 18/28/17 19/29/18 20/30/19
f 21/31/20 18/28/17 17/32/16 22/33/21
f 23/34/22 22/33/21 17/32/16 24/35/23
f 25/36/24 24/37/23 17/27/16 20/30/19
f 19/29/18 18/28/17 21/31/20 26/38/25
f 25/39/24 20/40/19 19/29/18
f 26/38/25 27/41/26 25/39/24 19/29/18
f 28/42/27 29/43/28 30/44/29 31/45/30
f 5/46/5 32/47/31 28/48/27 31/49/30 33/50/32
f 30/44/29 34/51/33 33/52/32 31/45/30
f 29/53/28 35/54/34 34/51/33 30/44/29
f 28/55/27 36/56/35 29/57/28
f 36/56/35 28/55/27 37/58/36
f 37/58/36 28/55/27 32/59/31
f 38/60/37 37/58/36 39/61/38
f 38/60/37 39/61/38 40/62/39
f 38/60/37 40/62/39 27/63/26
f 41/64/40 27/65/26 42/66/41
f 42/66/41 27/65/26 40/67/39
f 43/68/42 42/66/41 40/67/39
f 43/68/42 40/67/39 44/69/43
f 40/70/39 39/71/38 45/72/44 44/73/43
f 48/74/45 49/75/46 50/76/47
f 51/77/48 47/78/49 46/79/50 52/80/51
f 47/78/49 51/77/48 53/81/52
f 50/82/47 54/83/53 55/84/54
f 55/84/54 52/85/51 46/86/50 50/82/47
f 56/87/55 57/88/56 58/89/57
f 57/88/56 56/87/55 59/90/58 60/91/59
f 60/91/59 61/92/60 57/88/56
f 62/93/61 63/94/62 64/95/60
f 63/94/62 62/93/61 59/96/58 56/97/55
f 56/97/55 65/98/57 63/94/62
f 62/99/61 66/100/63 67/101/44 60/102/59
f 60/102/59 59/103/58 62/99/61
f 56/87/55 58/89/57 68/104/64 69/105/51
f 65/98/57 56/97/55 69/106/51 70/107/64
f 71/108/57 72/109/55 52/85/51 73/110/64
f 74/111/57 75/112/65 52/80/51 72/113/55
f 76/114/9 77/115/66 78/116/67 79/117/68
f 76/114/9 37/118/36 38/119/37 77/115/66
f 76/114/9 79/117/68 36/120/35 37/121/36
f 78/116/67 80/122/69 36/123/35 79/117/68
f 38/124/37 80/125/69 78/116/67 77/115/66
f 23/126/22 80/127/69 38/60/37
f 23/126/22 38/60/37 27/63/26
f 23/126/22 29/57/28 36/56/35
f 23/126/22 36/56/35 80/127/69
f 39/61/38 37/58/36 32/59/31
f 9/10/9 8/9/8 81/128/70 82/129/71
f 7/130/7 15/131/14 81/128/70 8/9/8
f 83/132/72 84/133/73 85/134/12 86/135/5
f 87/136/74 84/133/73 83/132/72 88/137/75
f 89/138/76 88/139/75 83/132/72 86/135/5
f 89/140/76 86/135/5 85/134/12 90/141/77
f 85/134/12 84/133/73 87/142/74 90/143/77
f 91/144/39 92/145/78 93/146/12 94/147/79
f 93/148/12 95/149/10 96/150/80 94/151/79
f 96/152/80 97/153/43 91/144/39 94/154/79
f 91/144/39 97/153/43 98/155/81 92/145/78
f 74/156/57 99/157/56 51/77/48 75/112/65
f 70/107/64 69/106/51 100/158/65 101/159/51
f 68/104/64 102/160/51 100/161/65 69/105/51
f 70/107/64 101/159/51 103/162/64 104/163/51
f 68/104/64 105/164/51 106/165/64 102/160/51
f 70/166/64 104/167/51 107/168/82 108/169/83
f 68/170/64 109/171/48 110/172/84 105/173/51
f 107/174/82 111/175/85 112/176/53 108/177/83
f 109/178/48 113/179/52 114/180/86 110/181/84
f 57/88/56 109/171/48 68/170/64 58/89/57
f 63/94/62 65/98/57 70/166/64 108/169/83
f 71/182/57 73/110/64 55/84/54 115/183/62
f 74/111/57 72/113/55 116/184/57 117/185/55
f 71/108/57 118/186/55 116/187/57 72/109/55
f 74/111/57 117/185/55 119/188/57 120/189/55
f 71/108/57 121/190/55 122/191/57 118/186/55
f 74/156/57 120/192/55 123/193/87 99/157/56
f 71/182/57 115/183/62 124/194/88 121/195/55
f 123/196/87 125/197/89 126/198/90 99/199/56
f 115/200/62 127/201/90 128/202/91 124/203/88
f 111/204/85 107/205/82 124/206/88 128/207/91
f 129/208/92 125/209/89 123/210/87 130/211/93
f 114/212/86 125/209/89 129/208/92 131/213/94
f 110/214/84 132/215/95 130/211/93 123/210/87
f 114/212/86 131/213/94 132/215/95 110/214/84
f 13/18/13 3/17/3 133/216/96
f 134/217/97 135/218/98 136/219/99 137/220/100
f 135/218/98 134/217/97 138/221/101 139/222/38
f 140/223/35 136/219/99 135/218/98 139/224/38
f 90/225/77 141/226/65 142/227/102
f 89/228/76 90/225/77 142/227/102
f 141/226/65 90/225/77 87/229/74
f 88/230/75 143/231/103 87/229/74
f 87/229/74 143/231/103 141/226/65
f 143/231/103 88/230/75 89/228/76 142/227/102
f 144/232/104 145/233/105 143/234/103 142/235/102
f 66/100/63 146/236/106 147/237/107 67/101/44
f 147/237/107 146/236/106 148/238/53
f 49/75/46 48/74/45 149/239/108 150/240/109
f 149/239/108 151/241/60 150/240/109
f 12/24/12 15/23/14 7/242/7
f 16/26/15 14/25/5 13/243/13 133/244/96
f 9/245/9 152/246/110 32/47/31 5/46/5
f 153/247/12 154/248/111 155/249/112 156/250/73
f 155/249/112 154/248/111 157/251/76 158/252/75
f 153/247/12 159/253/77 157/254/76 154/248/111
f 155/249/112 158/255/75 160/256/74 156/250/73
f 160/257/74 159/258/77 153/247/12 156/250/73
f 161/259/12 162/260/111 163/261/113 164/262/79
f 161/259/12 165/263/77 166/264/76 162/260/111
f 167/265/74 165/266/77 161/259/12 164/262/79
f 163/261/113 162/260/111 166/267/76 168/268/75
f 163/261/113 168/269/75 167/270/74 164/262/79
f 22/271/21 169/272/114 26/38/25 21/31/20
f 169/272/114 22/271/21 23/273/22 27/274/26
f 27/41/26 26/38/25 169/275/114
f 33/52/32 34/51/33 6/276/6 5/277/5
f 23/126/22 24/278/23 35/279/34
f 23/126/22 35/279/34 29/57/28
f 138/280/101 134/217/97 137/220/100 170/281/36
f 140/282/35 170/283/36 137/220/100 136/219/99
f 171/284/39 172/285/110 173/286/115 174/287/78
f 175/288/101 174/287/78 173/286/115 176/289/36
f 177/290/35 176/291/36 173/286/115 172/285/110
f 171/284/39 174/287/78 175/292/101 178/293/38
f 177/294/35 172/285/110 171/284/39 178/295/38
f 179/296/112 180/297/68 181/298/44 182/299/33
f 181/298/44 42/300/41 43/301/42 182/299/33
f 181/298/44 180/297/68 41/302/40 42/303/41
f 43/304/42 183/305/116 179/296/112 182/299/33
f 179/296/112 183/306/116 41/307/40 180/297/68
f 184/308/117 185/309/63 186/310/9 187/311/118
f 188/312/119 189/313/96 186/310/9 185/309/63
f 188/314/119 185/309/63 184/308/117 190/315/120
f 191/316/15 187/311/118 186/310/9 189/317/96
f 184/308/117 187/311/118 191/318/15 190/319/120
f 45/72/44 39/71/38 32/320/31 152/321/110
f 144/232/104 133/322/96 3/323/3
f 144/232/104 3/323/3 10/324/10
f 144/232/104 192/325/121 16/326/15
f 144/232/104 16/326/15 133/322/96
f 192/325/121 191/327/15 189/328/96
f 192/325/121 189/328/96 16/326/15
f 16/326/15 189/328/96 188/329/119
f 16/326/15 188/329/119 15/330/14
f 191/327/15 192/325/121 190/331/120
f 190/331/120 192/325/121 193/332/81
f 188/329/119 190/331/120 193/332/81
f 188/329/119 193/332/81 15/330/14
f 166/333/76 145/233/105 168/334/75
f 168/334/75 145/233/105 144/232/104
f 160/335/74 158/336/75 144/232/104
f 160/335/74 144/232/104 10/324/10
f 157/337/76 168/334/75 144/232/104
f 158/336/75 157/337/76 144/232/104
f 167/338/74 159/339/77 10/324/10
f 159/339/77 160/335/74 10/324/10
f 167/338/74 168/334/75 157/337/76
f 167/338/74 157/337/76 159/339/77
f 25/340/24 145/233/105 166/333/76
f 25/340/24 166/333/76 165/341/77
f 35/342/34 165/341/77 167/338/74
f 35/342/34 167/338/74 10/324/10
f 35/342/34 24/343/23 25/340/24
f 35/342/34 25/340/24 165/341/77
f 108/177/83 112/176/53 64/95/60 63/94/62
f 64/95/60 112/176/53 111/344/85 62/345/61
f 113/179/52 109/178/48 57/88/56 61/92/60
f 114/346/86 113/179/52 61/92/60 60/347/59
f 102/348/51 194/349/122 195/350/57 100/351/65
f 194/349/122 196/352/123 195/350/57
f 128/353/91 50/76/47 49/75/46 150/354/109
f 111/204/85 128/207/91 150/355/109 146/356/106
f 62/99/61 111/357/85 146/358/106 66/100/63
f 100/359/65 195/360/57 192/361/121 101/362/51
f 195/360/57 197/363/124 192/361/121
f 127/201/90 115/200/62 55/84/54 54/83/53
f 127/201/90 54/83/53 50/364/47 128/365/91
f 126/198/90 53/81/52 51/77/48 99/199/56
f 125/366/89 47/367/49 53/81/52 126/198/90
f 144/368/104 141/369/65 116/370/57 118/371/55
f 141/369/65 144/368/104 142/372/102
f 143/373/103 145/374/105 141/375/65
f 141/375/65 145/374/105 117/376/55 116/377/57
f 146/356/106 150/355/109 151/378/60 148/379/53
f 148/380/53 151/381/60 149/382/108 147/383/107
f 52/85/51 55/84/54 73/110/64
f 51/77/48 52/80/51 75/112/65
f 195/384/57 196/385/123 197/386/124
f 197/387/124 196/388/123 194/389/122 192/390/121
f 194/389/122 170/391/36 140/392/35
f 194/389/122 140/392/35 192/390/121
f 194/389/122 176/393/36 177/394/35
f 194/389/122 177/394/35 170/391/36
f 177/394/35 178/395/38 138/396/101
f 177/394/35 138/396/101 170/391/36
f 140/392/35 139/397/38 193/398/81
f 140/392/35 193/398/81 192/390/121
f 194/389/122 44/69/43 175/399/101
f 194/389/122 175/399/101 176/393/36
f 138/396/101 44/69/43 139/397/38
f 139/397/38 44/69/43 193/398/81
f 175/399/101 44/69/43 178/395/38
f 178/395/38 44/69/43 138/396/101
f 9/10/9 82/129/71 45/72/44 152/321/110
f 82/129/71 193/400/81 44/401/43 45/72/44
f 82/129/71 81/128/70 15/402/14 193/403/81
f 6/276/6 34/51/33 35/404/34 10/405/10
f 107/205/82 104/406/51 121/407/55 124/206/88
f 104/406/51 103/408/64 122/409/57 121/407/55
f 144/410/104 118/411/55 122/412/57
f 103/413/64 192/414/121 144/410/104 122/412/57
f 101/415/51 192/414/121 103/413/64
f 145/416/105 25/417/24 27/65/26
f 194/389/122 145/416/105 27/65/26
f 194/389/122 27/65/26 41/64/40
f 41/64/40 183/418/116 194/389/122
f 194/389/122 183/418/116 43/68/42
f 194/389/122 43/68/42 44/69/43
f 149/419/108 48/74/45 47/420/49 125/421/89
f 147/383/107 149/382/108 125/209/89 114/212/86
f 67/101/44 147/422/107 114/423/86 60/102/59
f 105/424/51 110/214/84 123/210/87 120/425/55
f 106/426/64 105/424/51 120/425/55 119/427/57
f 106/428/64 119/429/57 145/430/105 194/431/122
f 119/429/57 117/432/55 145/430/105
f 106/428/64 194/431/122 102/433/51
f 93/148/12 92/145/78 98/155/81 95/149/10
f 98/434/81 198/435/79 199/436/39 95/437/10
f 200/438/78 96/439/80 95/437/10 199/436/39
f 201/440/12 198/435/79 98/434/81 97/441/43
f 201/440/12 97/441/43 96/439/80 200/438/78
f 131/442/94 129/443/92 201/440/12 200/444/78
f 130/445/93 198/435/79 201/440/12 129/443/92
f 199/446/39 198/435/79 130/445/93 132/447/95
f 132/447/95 131/448/94 200/449/78 199/446/39
f 50/76/47 46/450/50 47/420/49
f 47/420/49 48/74/45 50/76/47
