# Blender v2.91.2 OBJ File: ''
# www.blender.org
mtllib cooling.mtl
o cooling_Mesh.015
v 0.000000 0.800000 0.400000
v 0.000000 0.000000 0.400000
v 0.885000 0.000000 0.400000
v 0.885000 0.800000 0.400000
v 0.885000 0.800000 0.000000
v 0.885000 0.000000 0.000000
v 0.000000 0.000000 0.000000
v 0.000000 0.800000 0.000000
vt 0.625000 0.500000
vt 0.625000 0.343800
vt 0.797900 0.343800
vt 0.797900 0.500000
vt 0.797900 0.500000
vt 0.797900 0.343800
vt 0.625000 0.343800
vt 0.625000 0.500000
vt 0.797900 0.343800
vt 0.797900 0.500000
vt 0.843800 0.500000
vt 0.843800 0.343800
vt 0.843800 0.500000
vt 0.843800 0.343800
vt 0.798000 0.343800
vt 0.798000 0.500000
vt 0.843800 0.500000
vt 0.843800 0.343800
vt 0.797900 0.343800
vt 0.797900 0.500000
vt 0.625000 0.500000
vt 0.500000 0.500000
vt 0.500000 0.343800
vt 0.625000 0.343800
vn 0.0000 0.0000 1.0000
vn 0.0000 -0.0000 -1.0000
vn 0.0000 1.0000 0.0000
vn -1.0000 0.0000 0.0000
vn 0.0000 -1.0000 0.0000
vn 1.0000 0.0000 0.0000
usemtl None
s 1
f 1/1/1 2/2/1 3/3/1
f 1/1/1 3/3/1 4/4/1
f 5/5/2 6/6/2 7/7/2
f 5/5/2 7/7/2 8/8/2
f 5/9/3 8/10/3 1/11/3
f 5/9/3 1/11/3 4/12/3
f 8/13/4 7/14/4 2/15/4
f 8/13/4 2/15/4 1/16/4
f 3/17/5 2/18/5 7/19/5
f 3/17/5 7/19/5 6/20/5
f 5/21/6 4/22/6 3/23/6
f 5/21/6 3/23/6 6/24/6
