# Wavefront OBJ exported by WoW Model Viewer 0.8.0.rc5

mtllib brokecrate2.mtl

v -0.015624 0.259755 -0.766308
v -0.046686 0.455868 -0.757754
v 0.733937 0.308863 -0.763134
v -0.015553 0.259766 -0.615330
v 0.733937 0.110305 -0.763134
v 0.606647 0.110305 -0.643759
v -0.015553 0.259766 -0.615330
v -0.015624 0.259755 -0.766308
v 0.733937 0.110305 -0.763134
v -0.046614 0.455879 -0.633716
v 0.606647 0.110305 -0.643759
v 0.606647 0.308863 -0.643759
v -0.046614 0.455879 -0.633716
v -0.015553 0.259766 -0.615330
v 0.606647 0.110305 -0.643759
v -0.046686 0.455868 -0.757754
v 0.606647 0.308863 -0.643759
v 0.733937 0.308863 -0.763134
v -0.046686 0.455868 -0.757754
v -0.046614 0.455879 -0.633716
v 0.606647 0.308863 -0.643759
v 1.050840 -0.012479 -0.990554
v 1.089246 0.262582 -0.985367
v 0.278394 0.409710 -0.158053
v 0.278394 0.409710 -0.158053
v 0.242163 0.150218 -0.162946
v 1.050840 -0.012479 -0.990554
v 1.089246 0.262582 -0.985367
v 0.893560 0.293576 -1.180065
v 0.093785 0.438949 -0.341730
v 0.093785 0.438949 -0.341730
v 0.278394 0.409710 -0.158053
v 1.089246 0.262582 -0.985367
v 0.893560 0.293576 -1.180065
v 0.855154 0.018514 -1.185251
v 0.057554 0.179457 -0.346622
v 0.057554 0.179457 -0.346622
v 0.093785 0.438949 -0.341730
v 0.893560 0.293576 -1.180065
v 0.855154 0.018514 -1.185251
v 1.050840 -0.012479 -0.990554
v 0.242163 0.150218 -0.162946
v 0.242163 0.150218 -0.162946
v 0.057554 0.179457 -0.346622
v 0.855154 0.018514 -1.185251
v 0.893560 0.293576 -1.180065
v 1.089246 0.262582 -0.985367
v 1.050840 -0.012479 -0.990554
v 1.050840 -0.012479 -0.990554
v 0.855154 0.018514 -1.185251
v 0.893560 0.293576 -1.180065
v 0.093785 0.438949 -0.341730
v 0.057554 0.179457 -0.346622
v 0.242163 0.150218 -0.162946
v 0.242163 0.150218 -0.162946
v 0.278394 0.409710 -0.158053
v 0.093785 0.438949 -0.341730
v 0.834394 -0.000225 -0.547539
v 1.399501 -0.003806 -0.330641
v 1.383445 0.082018 -0.353607
v 1.383445 0.082018 -0.353607
v 0.842705 0.088885 -0.559424
v 0.834394 -0.000225 -0.547539
v 1.399501 -0.003806 -0.330641
v 1.507661 0.000490 -0.431889
v 1.480415 0.086549 -0.430320
v 1.480415 0.086549 -0.430320
v 1.383445 0.082018 -0.353607
v 1.399501 -0.003806 -0.330641
v 1.507661 0.000490 -0.431889
v 0.924609 -0.002797 -0.767111
v 0.921729 0.086548 -0.754459
v 0.921729 0.086548 -0.754459
v 1.480415 0.086549 -0.430320
v 1.507661 0.000490 -0.431889
v 0.924609 -0.002797 -0.767111
v 0.834394 -0.000225 -0.547539
v 0.842705 0.088885 -0.559424
v 0.842705 0.088885 -0.559424
v 0.921729 0.086548 -0.754459
v 0.924609 -0.002797 -0.767111
v 1.507661 0.000490 -0.431889
v 1.399501 -0.003806 -0.330641
v 0.834394 -0.000225 -0.547539
v 0.834394 -0.000225 -0.547539
v 0.924609 -0.002797 -0.767111
v 1.507661 0.000490 -0.431889
v 1.480415 0.086549 -0.430320
v 0.921729 0.086548 -0.754459
v 0.842705 0.088885 -0.559424
v 0.842705 0.088885 -0.559424
v 1.383445 0.082018 -0.353607
v 1.480415 0.086549 -0.430320
v -0.715987 1.144141 -0.892141
v -0.511188 1.144141 -0.704477
v -0.482491 -0.022526 -0.661716
v -0.482491 -0.022526 -0.661716
v -0.675698 -0.022526 -0.838757
v -0.715987 1.144141 -0.892141
v -0.511188 1.144141 -0.704477
v -0.698852 1.144141 -0.499678
v -0.659533 -0.022526 -0.468509
v -0.659533 -0.022526 -0.468509
v -0.482491 -0.022526 -0.661716
v -0.511188 1.144141 -0.704477
v -0.698852 1.144141 -0.499678
v -0.903651 1.144141 -0.687342
v -0.852739 -0.022526 -0.645550
v -0.852739 -0.022526 -0.645550
v -0.659533 -0.022526 -0.468509
v -0.698852 1.144141 -0.499678
v -0.903651 1.144141 -0.687342
v -0.715987 1.144141 -0.892141
v -0.675698 -0.022526 -0.838757
v -0.675698 -0.022526 -0.838757
v -0.852739 -0.022526 -0.645550
v -0.903651 1.144141 -0.687342
v -0.698852 1.144141 -0.499678
v -0.511188 1.144141 -0.704477
v -0.715987 1.144141 -0.892141
v -0.715987 1.144141 -0.892141
v -0.903651 1.144141 -0.687342
v -0.698852 1.144141 -0.499678
v -0.659533 -0.022526 -0.468509
v -0.852739 -0.022526 -0.645550
v -0.675698 -0.022526 -0.838757
v -0.675698 -0.022526 -0.838757
v -0.482491 -0.022526 -0.661716
v -0.659533 -0.022526 -0.468509
v -0.452911 0.122866 0.668649
v -0.072240 0.171724 -0.078850
v -0.031044 0.243046 -0.041877
v -0.031044 0.243046 -0.041877
v -0.335572 0.130156 0.848987
v -0.452911 0.122866 0.668649
v -0.072240 0.171724 -0.078850
v -0.115872 0.302679 -0.323923
v -0.058036 0.354707 -0.278109
v -0.058036 0.354707 -0.278109
v -0.031044 0.243046 -0.041877
v -0.072240 0.171724 -0.078850
v -0.115872 0.302679 -0.323923
v -0.546483 0.213677 0.833675
v -0.476024 0.265670 0.855658
v -0.476024 0.265670 0.855658
v -0.058036 0.354707 -0.278109
v -0.115872 0.302679 -0.323923
v -0.546483 0.213677 0.833675
v -0.452911 0.122866 0.668649
v -0.335572 0.130156 0.848987
v -0.335572 0.130156 0.848987
v -0.476024 0.265670 0.855658
v -0.546483 0.213677 0.833675
v -0.115872 0.302679 -0.323923
v -0.072240 0.171724 -0.078850
v -0.452911 0.122866 0.668649
v -0.452911 0.122866 0.668649
v -0.546483 0.213677 0.833675
v -0.115872 0.302679 -0.323923
v -0.058036 0.354707 -0.278109
v -0.476024 0.265670 0.855658
v -0.335572 0.130156 0.848987
v -0.335572 0.130156 0.848987
v -0.031044 0.243046 -0.041877
v -0.058036 0.354707 -0.278109
v 0.017348 0.753325 0.734365
v 0.006111 0.119121 0.594836
v 0.017348 0.123906 0.669074
v 0.006111 0.119121 0.594836
v 0.017348 0.753325 0.734365
v 0.006111 0.770929 0.662086
v 0.497648 0.591627 0.734365
v 0.006111 0.770929 0.662086
v 0.017348 0.753325 0.734365
v 0.006111 0.770929 0.662086
v 0.497648 0.591627 0.734365
v 0.508885 0.609231 0.662086
v 0.497648 0.123906 0.669074
v 0.508885 0.609231 0.662086
v 0.497648 0.591627 0.734365
v 0.508885 0.609231 0.662086
v 0.497648 0.123906 0.669074
v 0.508885 0.119121 0.594836
v 0.006111 0.119121 0.594836
v 0.508885 0.609231 0.662086
v 0.508885 0.119121 0.594836
v 0.508885 0.609231 0.662086
v 0.006111 0.119121 0.594836
v 0.006111 0.770929 0.662086
v 0.017348 0.123906 0.669074
v 0.497648 0.591627 0.734365
v 0.017348 0.753325 0.734365
v 0.497648 0.591627 0.734365
v 0.017348 0.123906 0.669074
v 0.497648 0.123906 0.669074
v 1.036254 -0.000225 -0.262602
v 0.924897 -0.003806 -0.148534
v 0.948672 0.082018 -0.163366
v 0.948672 0.082018 -0.163366
v 1.047688 0.088885 -0.253681
v 1.036254 -0.000225 -0.262602
v 0.924897 -0.003806 -0.148534
v 1.012275 0.000490 0.118786
v 1.012134 0.086549 0.091495
v 1.012134 0.086549 0.091495
v 0.948672 0.082018 -0.163366
v 0.924897 -0.003806 -0.148534
v 1.012275 0.000490 0.118786
v 1.254439 -0.002797 -0.230411
v 1.241956 0.086548 -0.233950
v 1.241956 0.086548 -0.233950
v 1.012134 0.086549 0.091495
v 1.012275 0.000490 0.118786
v 1.254439 -0.002797 -0.230411
v 1.036254 -0.000225 -0.262602
v 1.047688 0.088885 -0.253681
v 1.047688 0.088885 -0.253681
v 1.241956 0.086548 -0.233950
v 1.254439 -0.002797 -0.230411
v 1.012275 0.000490 0.118786
v 0.924897 -0.003806 -0.148534
v 1.036254 -0.000225 -0.262602
v 1.036254 -0.000225 -0.262602
v 1.254439 -0.002797 -0.230411
v 1.012275 0.000490 0.118786
v 1.012134 0.086549 0.091495
v 1.241956 0.086548 -0.233950
v 1.047688 0.088885 -0.253681
v 1.047688 0.088885 -0.253681
v 0.948672 0.082018 -0.163366
v 1.012134 0.086549 0.091495
v -0.666391 0.108864 -0.277231
v -0.659403 0.553080 -0.265994
v -0.731682 0.535477 -0.277231
v -0.659403 0.553080 -0.265994
v -0.666391 0.108864 -0.277231
v -0.592153 0.104079 -0.265994
v -0.647640 0.119121 -0.560629
v -0.659403 0.553080 -0.265994
v -0.592153 0.104079 -0.265994
v -0.659403 0.553080 -0.265994
v -0.647640 0.119121 -0.560629
v -0.714890 0.531957 -0.560629
v -0.721878 0.123906 -0.549392
v -0.731682 0.535477 -0.277231
v -0.748467 0.514354 -0.549392
v -0.731682 0.535477 -0.277231
v -0.721878 0.123906 -0.549392
v -0.666391 0.108864 -0.277231
v -0.627275 0.091533 0.455974
v -0.606458 0.602138 0.455387
v -0.678636 0.584534 0.443520
v -0.678636 0.584534 0.443520
v -0.701412 0.096318 0.444090
v -0.627275 0.091533 0.455974
v -0.606458 0.602138 0.455387
v -0.604314 0.766138 0.287937
v -0.676688 0.748534 0.298543
v -0.676688 0.748534 0.298543
v -0.678636 0.584534 0.443520
v -0.606458 0.602138 0.455387
v -0.604314 0.766138 0.287937
v -0.625130 0.091533 0.288524
v -0.699463 0.096318 0.299112
v -0.699463 0.096318 0.299112
v -0.676688 0.748534 0.298543
v -0.604314 0.766138 0.287937
v -0.604314 0.766138 0.287937
v -0.606458 0.602138 0.455387
v -0.627275 0.091533 0.455974
v -0.627275 0.091533 0.455974
v -0.625130 0.091533 0.288524
v -0.604314 0.766138 0.287937
v -0.676688 0.748534 0.298543
v -0.699463 0.096318 0.299112
v -0.701412 0.096318 0.444090
v -0.701412 0.096318 0.444090
v -0.678636 0.584534 0.443520
v -0.676688 0.748534 0.298543
v 0.599043 0.119121 -0.493233
v 0.661684 0.642506 -0.561488
v 0.734571 0.624902 -0.555321
v 0.734571 0.624902 -0.555321
v 0.651616 0.123906 -0.487202
v 0.599043 0.119121 -0.493233
v 0.661684 0.642506 -0.561488
v 0.716630 0.806506 -0.037439
v 0.769648 0.788902 -0.053690
v 0.769648 0.788902 -0.053690
v 0.734571 0.624902 -0.555321
v 0.661684 0.642506 -0.561488
v 0.716630 0.806506 -0.037439
v 0.590372 0.119121 0.030816
v 0.649430 0.123906 0.014428
v 0.649430 0.123906 0.014428
v 0.769648 0.788902 -0.053690
v 0.716630 0.806506 -0.037439
v 0.716630 0.806506 -0.037439
v 0.661684 0.642506 -0.561488
v 0.599043 0.119121 -0.493233
v 0.599043 0.119121 -0.493233
v 0.590372 0.119121 0.030816
v 0.716630 0.806506 -0.037439
v 0.769648 0.788902 -0.053690
v 0.649430 0.123906 0.014428
v 0.651616 0.123906 -0.487202
v 0.651616 0.123906 -0.487202
v 0.734571 0.624902 -0.555321
v 0.769648 0.788902 -0.053690
v -0.609847 0.119121 0.271547
v -0.677097 0.531957 0.227189
v -0.749376 0.514354 0.215952
v -0.749376 0.514354 0.215952
v -0.684084 0.123906 0.260310
v -0.609847 0.119121 0.271547
v -0.677097 0.531957 0.227189
v -0.677096 0.695957 -0.018578
v -0.749375 0.678354 -0.007341
v -0.749375 0.678354 -0.007341
v -0.749376 0.514354 0.215952
v -0.677097 0.531957 0.227189
v -0.677096 0.695957 -0.018578
v -0.609847 0.119121 0.025781
v -0.684084 0.123906 0.037018
v -0.684084 0.123906 0.037018
v -0.749375 0.678354 -0.007341
v -0.677096 0.695957 -0.018578
v -0.677096 0.695957 -0.018578
v -0.677097 0.531957 0.227189
v -0.609847 0.119121 0.271547
v -0.609847 0.119121 0.271547
v -0.609847 0.119121 0.025781
v -0.677096 0.695957 -0.018578
v -0.749375 0.678354 -0.007341
v -0.684084 0.123906 0.037018
v -0.684084 0.123906 0.260310
v -0.684084 0.123906 0.260310
v -0.749376 0.514354 0.215952
v -0.749375 0.678354 -0.007341
v -0.421268 0.119121 -0.623239
v -0.421268 0.531957 -0.690489
v -0.410031 0.514354 -0.762768
v -0.410031 0.514354 -0.762768
v -0.410031 0.123906 -0.697477
v -0.421268 0.119121 -0.623239
v -0.421268 0.531957 -0.690489
v 0.350337 0.695957 -0.690489
v 0.339100 0.678354 -0.762768
v 0.339100 0.678354 -0.762768
v -0.410031 0.514354 -0.762768
v -0.421268 0.531957 -0.690489
v 0.350337 0.695957 -0.690489
v 0.350337 0.119121 -0.623239
v 0.339100 0.123906 -0.697477
v 0.339100 0.123906 -0.697477
v 0.339100 0.678354 -0.762768
v 0.350337 0.695957 -0.690489
v 0.350337 0.695957 -0.690489
v -0.421268 0.531957 -0.690489
v -0.421268 0.119121 -0.623239
v -0.421268 0.119121 -0.623239
v 0.350337 0.119121 -0.623239
v 0.350337 0.695957 -0.690489
v 0.339100 0.678354 -0.762768
v 0.339100 0.123906 -0.697477
v -0.410031 0.123906 -0.697477
v -0.410031 0.123906 -0.697477
v -0.410031 0.514354 -0.762768
v 0.339100 0.678354 -0.762768
v -0.729910 0.132369 0.692256
v -0.729910 0.132369 -0.696633
v -0.709683 0.000000 -0.676406
v -0.709683 0.000000 -0.676406
v -0.709683 0.000000 0.672030
v -0.729910 0.132369 0.692256
v -0.729910 0.132369 -0.696633
v 0.658979 0.132369 -0.696633
v 0.638753 0.000000 -0.676406
v 0.638753 0.000000 -0.676406
v -0.709683 0.000000 -0.676406
v -0.729910 0.132369 -0.696633
v 0.658979 0.132369 -0.696633
v 0.658979 0.132369 0.692256
v 0.638753 0.000000 0.672030
v 0.638753 0.000000 0.672030
v 0.638753 0.000000 -0.676406
v 0.658979 0.132369 -0.696633
v 0.658979 0.132369 0.692256
v -0.729910 0.132369 0.692256
v -0.709683 0.000000 0.672030
v -0.709683 0.000000 0.672030
v 0.638753 0.000000 0.672030
v 0.658979 0.132369 0.692256
v 0.658979 0.132369 -0.696633
v -0.729910 0.132369 -0.696633
v -0.729910 0.132369 0.692256
v -0.729910 0.132369 0.692256
v 0.658979 0.132369 0.692256
v 0.658979 0.132369 -0.696633
v 0.638753 0.000000 -0.676406
v 0.638753 0.000000 0.672030
v -0.709683 0.000000 0.672030
v -0.709683 0.000000 0.672030
v -0.709683 0.000000 -0.676406
v 0.638753 0.000000 -0.676406
v -0.720987 1.021917 -0.338916
v -0.736006 0.528916 -0.360354
v -0.661870 0.533701 -0.372239
v -0.736006 0.528916 -0.360354
v -0.720987 1.021917 -0.338916
v -0.793165 1.039521 -0.327048
v -0.722936 0.985788 -0.483893
v -0.793165 1.039521 -0.327048
v -0.720987 1.021917 -0.338916
v -0.793165 1.039521 -0.327048
v -0.722936 0.985788 -0.483893
v -0.795310 1.003392 -0.494499
v -0.663818 0.533701 -0.517216
v -0.795310 1.003392 -0.494499
v -0.722936 0.985788 -0.483893
v -0.795310 1.003392 -0.494499
v -0.663818 0.533701 -0.517216
v -0.738151 0.528916 -0.527805
v -0.736006 0.528916 -0.360354
v -0.795310 1.003392 -0.494499
v -0.738151 0.528916 -0.527805
v -0.795310 1.003392 -0.494499
v -0.736006 0.528916 -0.360354
v -0.793165 1.039521 -0.327048
v -0.661870 0.533701 -0.372239
v -0.722936 0.985788 -0.483893
v -0.720987 1.021917 -0.338916
v -0.722936 0.985788 -0.483893
v -0.661870 0.533701 -0.372239
v -0.663818 0.533701 -0.517216
v -0.586779 0.611288 -0.118351
v -0.710898 0.412730 -0.118343
v -0.586779 0.412730 -0.118351
v -0.586779 0.611288 -0.118351
v -0.710898 0.611288 -0.118343
v -0.710898 0.412730 -0.118343
v 0.697026 0.480968 0.755198
v 0.569736 0.282410 0.635407
v 0.697026 0.282410 0.755198
v 0.569736 0.480968 0.635407
v 0.569736 0.282410 0.635407
v 0.697026 0.480968 0.755198
v -0.661395 0.344746 -0.643759
v -0.015624 0.259755 -0.766308
v -0.015553 0.259766 -0.615330
v -0.661395 0.344746 -0.643759
v -0.792497 0.344746 -0.763134
v -0.015624 0.259755 -0.766308
v -0.661395 0.543304 -0.643759
v -0.015553 0.259766 -0.615330
v -0.046614 0.455879 -0.633716
v -0.661395 0.543304 -0.643759
v -0.661395 0.344746 -0.643759
v -0.015553 0.259766 -0.615330
v -0.792497 0.543304 -0.763134
v -0.046614 0.455879 -0.633716
v -0.046686 0.455868 -0.757754
v -0.792497 0.543304 -0.763134
v -0.661395 0.543304 -0.643759
v -0.046614 0.455879 -0.633716
v -0.792497 0.344746 -0.763134
v -0.046686 0.455868 -0.757754
v -0.015624 0.259755 -0.766308
v -0.792497 0.344746 -0.763134
v -0.792497 0.543304 -0.763134
v -0.046686 0.455868 -0.757754
v -0.586779 0.412730 -0.118351
v -0.792497 0.344746 -0.763134
v -0.661395 0.344746 -0.643759
v -0.586779 0.412730 -0.118351
v -0.710898 0.412730 -0.118343
v -0.792497 0.344746 -0.763134
v -0.586779 0.611288 -0.118351
v -0.661395 0.344746 -0.643759
v -0.661395 0.543304 -0.643759
v -0.586779 0.611288 -0.118351
v -0.586779 0.412730 -0.118351
v -0.661395 0.344746 -0.643759
v -0.710898 0.611288 -0.118343
v -0.661395 0.543304 -0.643759
v -0.792497 0.543304 -0.763134
v -0.710898 0.611288 -0.118343
v -0.586779 0.611288 -0.118351
v -0.661395 0.543304 -0.643759
v -0.710898 0.412730 -0.118343
v -0.792497 0.543304 -0.763134
v -0.792497 0.344746 -0.763134
v -0.710898 0.412730 -0.118343
v -0.710898 0.611288 -0.118343
v -0.792497 0.543304 -0.763134
v 0.615270 0.365166 -0.003770
v 0.697026 0.282410 0.755198
v 0.569736 0.282410 0.635407
v 0.615270 0.365166 -0.003770
v 0.739244 0.365166 -0.003762
v 0.697026 0.282410 0.755198
v 0.615270 0.563724 -0.003770
v 0.569736 0.282410 0.635407
v 0.569736 0.480968 0.635407
v 0.615270 0.563724 -0.003770
v 0.615270 0.365166 -0.003770
v 0.569736 0.282410 0.635407
v 0.739244 0.563724 -0.003762
v 0.569736 0.480968 0.635407
v 0.697026 0.480968 0.755198
v 0.739244 0.563724 -0.003762
v 0.615270 0.563724 -0.003770
v 0.569736 0.480968 0.635407
v 0.739244 0.365166 -0.003762
v 0.697026 0.480968 0.755198
v 0.697026 0.282410 0.755198
v 0.739244 0.365166 -0.003762
v 0.739244 0.563724 -0.003762
v 0.697026 0.480968 0.755198
v 0.606647 0.110305 -0.643759
v 0.739244 0.365166 -0.003762
v 0.615270 0.365166 -0.003770
v 0.606647 0.110305 -0.643759
v 0.733937 0.110305 -0.763134
v 0.739244 0.365166 -0.003762
v 0.606647 0.308863 -0.643759
v 0.615270 0.365166 -0.003770
v 0.615270 0.563724 -0.003770
v 0.606647 0.308863 -0.643759
v 0.606647 0.110305 -0.643759
v 0.615270 0.365166 -0.003770
v 0.733937 0.308863 -0.763134
v 0.615270 0.563724 -0.003770
v 0.739244 0.563724 -0.003762
v 0.733937 0.308863 -0.763134
v 0.606647 0.308863 -0.643759
v 0.615270 0.563724 -0.003770
v 0.733937 0.110305 -0.763134
v 0.739244 0.563724 -0.003762
v 0.739244 0.365166 -0.003762
v 0.733937 0.110305 -0.763134
v 0.733937 0.308863 -0.763134
v 0.739244 0.563724 -0.003762
v -0.015624 0.259755 -0.766308
v 0.733937 0.308863 -0.763134
v 0.733937 0.110305 -0.763134
# 546 vertices


vt 0.491545 0.332000
vt 0.491545 0.443746
vt 0.006038 0.443746
vt 0.491545 0.443746
vt 0.006038 0.493961
vt 0.006038 0.443746
vt 0.491545 0.443746
vt 0.491545 0.493961
vt 0.006038 0.493961
vt 0.491545 0.332000
vt 0.006038 0.443746
vt 0.006038 0.332000
vt 0.491545 0.332000
vt 0.491545 0.443746
vt 0.006038 0.443746
vt 0.491545 0.443746
vt 0.006038 0.493961
vt 0.006038 0.443746
vt 0.491545 0.443746
vt 0.491545 0.493961
vt 0.006038 0.493961
vt 0.491023 0.003407
vt 0.491023 0.084308
vt 0.002199 0.084309
vt 0.002199 0.084309
vt 0.002199 0.003408
vt 0.491023 0.003407
vt 0.491046 0.084319
vt 0.491046 0.162797
vt 0.001707 0.162797
vt 0.001707 0.162797
vt 0.001707 0.084318
vt 0.491046 0.084319
vt 0.491023 0.003408
vt 0.491023 0.084309
vt 0.002199 0.084308
vt 0.002199 0.084308
vt 0.002199 0.003407
vt 0.491023 0.003408
vt 0.491046 0.084318
vt 0.491046 0.162797
vt 0.001707 0.162797
vt 0.001707 0.162797
vt 0.001707 0.084319
vt 0.491046 0.084318
vt 0.489839 0.494669
vt 0.005331 0.494670
vt 0.005330 0.443746
vt 0.005330 0.443746
vt 0.489838 0.443746
vt 0.489839 0.494669
vt 0.489839 0.494669
vt 0.489838 0.443746
vt 0.005330 0.443746
vt 0.005330 0.443746
vt 0.005331 0.494670
vt 0.489839 0.494669
vt 0.992754 0.997608
vt 0.495146 0.997608
vt 0.495146 0.968599
vt 0.495146 0.968599
vt 0.992754 0.968599
vt 0.992754 0.997608
vt 0.163176 0.997608
vt 0.079173 0.997608
vt 0.079173 0.968599
vt 0.079173 0.968599
vt 0.500000 0.968599
vt 0.163176 0.997608
vt 0.992754 0.997608
vt 0.495146 0.997608
vt 0.495146 0.968599
vt 0.495146 0.968599
vt 0.992754 0.968599
vt 0.992754 0.997608
vt 0.163176 0.997608
vt 0.079173 0.997608
vt 0.079173 0.968599
vt 0.079173 0.968599
vt 0.500000 0.968599
vt 0.163176 0.997608
vt 0.079173 0.997608
vt 0.163176 0.997608
vt 0.163176 0.504831
vt 0.163176 0.504831
vt 0.079173 0.504831
vt 0.079173 0.997608
vt 0.079173 0.997608
vt 0.079173 0.504831
vt 0.163176 0.504831
vt 0.163176 0.504831
vt 0.163176 0.997608
vt 0.079173 0.997608
vt 0.491023 0.003407
vt 0.491023 0.084308
vt 0.002199 0.084309
vt 0.002199 0.084309
vt 0.002199 0.003408
vt 0.491023 0.003407
vt 0.491046 0.084319
vt 0.491046 0.162797
vt 0.001707 0.162797
vt 0.001707 0.162797
vt 0.001707 0.084318
vt 0.491046 0.084319
vt 0.491023 0.003408
vt 0.491023 0.084309
vt 0.002199 0.084308
vt 0.002199 0.084308
vt 0.002199 0.003407
vt 0.491023 0.003408
vt 0.491046 0.084318
vt 0.491046 0.162797
vt 0.001707 0.162797
vt 0.001707 0.162797
vt 0.001707 0.084319
vt 0.491046 0.084318
vt 0.489839 0.494669
vt 0.005331 0.494670
vt 0.005330 0.443746
vt 0.005330 0.443746
vt 0.489838 0.443746
vt 0.489839 0.494669
vt 0.489839 0.494669
vt 0.489838 0.443746
vt 0.005330 0.443746
vt 0.005330 0.443746
vt 0.005331 0.494670
vt 0.489839 0.494669
vt 0.992754 0.997608
vt 0.495146 0.997608
vt 0.495146 0.968599
vt 0.495146 0.968599
vt 0.992754 0.968599
vt 0.992754 0.997608
vt 0.163176 0.997608
vt 0.079173 0.997608
vt 0.079173 0.968599
vt 0.079173 0.968599
vt 0.500000 0.968599
vt 0.163176 0.997608
vt 0.992754 0.997608
vt 0.495146 0.997608
vt 0.495146 0.968599
vt 0.495146 0.968599
vt 0.992754 0.968599
vt 0.992754 0.997608
vt 0.163176 0.997608
vt 0.079173 0.997608
vt 0.079173 0.968599
vt 0.079173 0.968599
vt 0.500000 0.968599
vt 0.163176 0.997608
vt 0.079173 0.997608
vt 0.163176 0.997608
vt 0.163176 0.504831
vt 0.163176 0.504831
vt 0.079173 0.504831
vt 0.079173 0.997608
vt 0.079173 0.997608
vt 0.079173 0.504831
vt 0.163176 0.504831
vt 0.163176 0.504831
vt 0.163176 0.997608
vt 0.079173 0.997608
vt 0.495146 0.968599
vt 0.992754 0.997608
vt 0.992754 0.968599
vt 0.992754 0.997608
vt 0.495146 0.968599
vt 0.495146 0.997608
vt 0.076758 0.968599
vt 0.334673 0.997608
vt 0.500000 0.968599
vt 0.334673 0.997608
vt 0.076758 0.968599
vt 0.076758 0.997608
vt 0.495146 0.968599
vt 0.992754 0.997608
vt 0.992754 0.968599
vt 0.992754 0.997608
vt 0.495146 0.968599
vt 0.495146 0.997608
vt 0.325011 0.507246
vt 0.076758 0.997608
vt 0.086420 0.507246
vt 0.076758 0.997608
vt 0.325011 0.507246
vt 0.334673 0.997608
vt 0.325011 0.507246
vt 0.076758 0.997608
vt 0.334673 0.997608
vt 0.076758 0.997608
vt 0.325011 0.507246
vt 0.086420 0.507246
vt 0.992754 0.997608
vt 0.495146 0.997608
vt 0.495146 0.968599
vt 0.495146 0.968599
vt 0.992754 0.968599
vt 0.992754 0.997608
vt 0.163176 0.997608
vt 0.079173 0.997608
vt 0.079173 0.968599
vt 0.079173 0.968599
vt 0.500000 0.968599
vt 0.163176 0.997608
vt 0.992754 0.997608
vt 0.495146 0.997608
vt 0.495146 0.968599
vt 0.495146 0.968599
vt 0.992754 0.968599
vt 0.992754 0.997608
vt 0.163176 0.997608
vt 0.079173 0.997608
vt 0.079173 0.968599
vt 0.079173 0.968599
vt 0.500000 0.968599
vt 0.163176 0.997608
vt 0.079173 0.997608
vt 0.163176 0.997608
vt 0.163176 0.504831
vt 0.163176 0.504831
vt 0.079173 0.504831
vt 0.079173 0.997608
vt 0.079173 0.997608
vt 0.079173 0.504831
vt 0.163176 0.504831
vt 0.163176 0.504831
vt 0.163176 0.997608
vt 0.079173 0.997608
vt 0.495146 0.968599
vt 0.992754 0.997608
vt 0.992754 0.968599
vt 0.992754 0.997608
vt 0.495146 0.968599
vt 0.495146 0.997608
vt 0.163176 0.504831
vt 0.033280 0.997608
vt 0.033280 0.504831
vt 0.033280 0.997608
vt 0.163176 0.504831
vt 0.163176 0.997608
vt 0.163176 0.504831
vt 0.033280 0.997608
vt 0.163176 0.997608
vt 0.033280 0.997608
vt 0.163176 0.504831
vt 0.033280 0.504831
vt 0.992754 0.997608
vt 0.495146 0.997608
vt 0.495146 0.968599
vt 0.495146 0.968599
vt 0.992754 0.968599
vt 0.992754 0.997608
vt 0.163176 0.997608
vt 0.079173 0.997608
vt 0.079173 0.968599
vt 0.079173 0.968599
vt 0.500000 0.968599
vt 0.163176 0.997608
vt 0.992754 0.997608
vt 0.495146 0.997608
vt 0.495146 0.968599
vt 0.495146 0.968599
vt 0.992754 0.968599
vt 0.992754 0.997608
vt 0.079173 0.997608
vt 0.163176 0.997608
vt 0.163176 0.710145
vt 0.163176 0.710145
vt 0.079173 0.710145
vt 0.079173 0.997608
vt 0.079173 0.997608
vt 0.079173 0.710145
vt 0.163176 0.710145
vt 0.163176 0.710145
vt 0.163176 0.997608
vt 0.079173 0.997608
vt 0.992754 0.997608
vt 0.495146 0.997608
vt 0.495146 0.968599
vt 0.495146 0.968599
vt 0.992754 0.968599
vt 0.992754 0.997608
vt 0.325011 0.997608
vt 0.081589 0.997608
vt 0.081589 0.968599
vt 0.081589 0.968599
vt 0.500000 0.968599
vt 0.325011 0.997608
vt 0.992754 0.997608
vt 0.495146 0.997608
vt 0.495146 0.968599
vt 0.495146 0.968599
vt 0.992754 0.968599
vt 0.992754 0.997608
vt 0.081589 0.997608
vt 0.325011 0.997608
vt 0.325011 0.504831
vt 0.325011 0.504831
vt 0.081589 0.504831
vt 0.081589 0.997608
vt 0.081589 0.997608
vt 0.081589 0.504831
vt 0.325011 0.504831
vt 0.325011 0.504831
vt 0.325011 0.997608
vt 0.081589 0.997608
vt 0.992754 0.997608
vt 0.495146 0.997608
vt 0.495146 0.968599
vt 0.495146 0.968599
vt 0.992754 0.968599
vt 0.992754 0.997608
vt 0.163176 0.997608
vt 0.033280 0.997608
vt 0.033280 0.968599
vt 0.033280 0.968599
vt 0.500000 0.968599
vt 0.163176 0.997608
vt 0.992754 0.997608
vt 0.495146 0.997608
vt 0.495146 0.968599
vt 0.495146 0.968599
vt 0.992754 0.968599
vt 0.992754 0.997608
vt 0.033280 0.997608
vt 0.163176 0.997608
vt 0.163176 0.504831
vt 0.163176 0.504831
vt 0.033280 0.504831
vt 0.033280 0.997608
vt 0.033280 0.997608
vt 0.033280 0.504831
vt 0.163176 0.504831
vt 0.163176 0.504831
vt 0.163176 0.997608
vt 0.033280 0.997608
vt 0.992754 0.997608
vt 0.495146 0.997608
vt 0.495146 0.968599
vt 0.495146 0.968599
vt 0.992754 0.968599
vt 0.992754 0.997608
vt 0.325011 0.997608
vt 0.033280 0.997608
vt 0.033280 0.968599
vt 0.033280 0.968599
vt 0.500000 0.968599
vt 0.325011 0.997608
vt 0.992754 0.997608
vt 0.495146 0.997608
vt 0.495146 0.968599
vt 0.495146 0.968599
vt 0.992754 0.968599
vt 0.992754 0.997608
vt 0.033280 0.997608
vt 0.325011 0.997608
vt 0.325011 0.504831
vt 0.325011 0.504831
vt 0.033280 0.504831
vt 0.033280 0.997608
vt 0.033280 0.997608
vt 0.033280 0.504831
vt 0.325011 0.504831
vt 0.325011 0.504831
vt 0.325011 0.997608
vt 0.033280 0.997608
vt 0.992754 0.997608
vt 0.495146 0.997608
vt 0.495146 0.968599
vt 0.495146 0.968599
vt 0.992754 0.968599
vt 0.992754 0.997608
vt 0.500000 0.997608
vt 0.002392 0.997608
vt 0.002392 0.968599
vt 0.002392 0.968599
vt 0.500000 0.968599
vt 0.500000 0.997608
vt 0.992754 0.997608
vt 0.495146 0.997608
vt 0.495146 0.968599
vt 0.495146 0.968599
vt 0.992754 0.968599
vt 0.992754 0.997608
vt 0.500000 0.997608
vt 0.002392 0.997608
vt 0.002392 0.968599
vt 0.002392 0.968599
vt 0.500000 0.968599
vt 0.500000 0.997608
vt 0.002392 0.997608
vt 0.500000 0.997608
vt 0.500000 0.504831
vt 0.500000 0.504831
vt 0.002392 0.504831
vt 0.002392 0.997608
vt 0.002392 0.997608
vt 0.002392 0.504831
vt 0.500000 0.504831
vt 0.500000 0.504831
vt 0.500000 0.997608
vt 0.002392 0.997608
vt 0.495146 0.968599
vt 0.992754 0.997608
vt 0.992754 0.968599
vt 0.992754 0.997608
vt 0.495146 0.968599
vt 0.495146 0.997608
vt 0.079173 0.968599
vt 0.163176 0.997608
vt 0.500000 0.968599
vt 0.163176 0.997608
vt 0.079173 0.968599
vt 0.079173 0.997608
vt 0.495146 0.968599
vt 0.992754 0.997608
vt 0.992754 0.968599
vt 0.992754 0.997608
vt 0.495146 0.968599
vt 0.495146 0.997608
vt 0.163176 0.710145
vt 0.079173 0.997608
vt 0.079173 0.710145
vt 0.079173 0.997608
vt 0.163176 0.710145
vt 0.163176 0.997608
vt 0.163176 0.710145
vt 0.079173 0.997608
vt 0.163176 0.997608
vt 0.079173 0.997608
vt 0.163176 0.710145
vt 0.079173 0.710145
vt 0.207230 0.332000
vt 0.126103 0.443746
vt 0.207229 0.443746
vt 0.207230 0.332000
vt 0.126103 0.332000
vt 0.126103 0.443746
vt 0.214476 0.332000
vt 0.126104 0.443746
vt 0.214476 0.443746
vt 0.126104 0.332000
vt 0.126104 0.443746
vt 0.214476 0.332000
vt 0.006038 0.493961
vt 0.491545 0.443746
vt 0.491545 0.493961
vt 0.006038 0.493961
vt 0.006038 0.443746
vt 0.491545 0.443746
vt 0.006038 0.443746
vt 0.491545 0.332000
vt 0.491545 0.443746
vt 0.006038 0.443746
vt 0.006038 0.332000
vt 0.491545 0.332000
vt 0.006038 0.493961
vt 0.491545 0.443746
vt 0.491545 0.493961
vt 0.006038 0.493961
vt 0.006038 0.443746
vt 0.491545 0.443746
vt 0.006038 0.443746
vt 0.491545 0.332000
vt 0.491545 0.443746
vt 0.006038 0.443746
vt 0.006038 0.332000
vt 0.491545 0.332000
vt 0.491545 0.443746
vt 0.006038 0.493961
vt 0.006038 0.443746
vt 0.491545 0.443746
vt 0.491545 0.493961
vt 0.006038 0.493961
vt 0.491545 0.332000
vt 0.006038 0.443746
vt 0.006038 0.332000
vt 0.491545 0.332000
vt 0.491545 0.443746
vt 0.006038 0.443746
vt 0.491545 0.443746
vt 0.006038 0.493961
vt 0.006038 0.443746
vt 0.491545 0.443746
vt 0.491545 0.493961
vt 0.006038 0.493961
vt 0.491545 0.332000
vt 0.006038 0.443746
vt 0.006038 0.332000
vt 0.491545 0.332000
vt 0.491545 0.443746
vt 0.006038 0.443746
vt 0.491545 0.443746
vt 0.006038 0.493961
vt 0.006038 0.443746
vt 0.491545 0.443746
vt 0.491545 0.493961
vt 0.006038 0.493961
vt 0.491545 0.332000
vt 0.006038 0.443746
vt 0.006038 0.332000
vt 0.491545 0.332000
vt 0.491545 0.443746
vt 0.006038 0.443746
vt 0.491545 0.443746
vt 0.006038 0.493961
vt 0.006038 0.443746
vt 0.491545 0.443746
vt 0.491545 0.493961
vt 0.006038 0.493961
vt 0.491545 0.332000
vt 0.006038 0.443746
vt 0.006038 0.332000
vt 0.491545 0.332000
vt 0.491545 0.443746
vt 0.006038 0.443746
vt 0.491545 0.443746
vt 0.006038 0.493961
vt 0.006038 0.443746
vt 0.491545 0.443746
vt 0.491545 0.493961
vt 0.006038 0.493961
vt 0.491545 0.332000
vt 0.006038 0.443746
vt 0.006038 0.332000
vt 0.491545 0.332000
vt 0.491545 0.443746
vt 0.006038 0.443746
vt 0.491545 0.443746
vt 0.006038 0.493961
vt 0.006038 0.443746
vt 0.491545 0.443746
vt 0.491545 0.493961
vt 0.006038 0.493961
vt 0.491545 0.332000
vt 0.006038 0.443746
vt 0.006038 0.332000
vt 0.491545 0.332000
vt 0.491545 0.443746
vt 0.006038 0.443746
vt 0.491545 0.332000
vt 0.006038 0.443746
vt 0.006038 0.332000
vn -0.999191 0.040196 -0.001327
vn -0.999200 0.039969 -0.001524
vn -0.681414 0.004245 -0.731886
vn -0.012408 -0.986137 0.165469
vn 0.075172 -0.996122 -0.045716
vn 0.020706 -0.999773 -0.005117
vn -0.012408 -0.986137 0.165469
vn 0.007052 -0.986800 0.161792
vn 0.075172 -0.996122 -0.045716
vn 0.995871 0.088346 -0.020864
vn 0.759318 0.014789 0.650552
vn 0.687213 0.000000 0.726456
vn 0.995871 0.088346 -0.020864
vn 0.995070 0.091699 -0.037778
vn 0.759318 0.014789 0.650552
vn 0.010886 0.986009 -0.166336
vn -0.081326 0.994441 0.066884
vn -0.098468 0.993182 0.062396
vn 0.010886 0.986009 -0.166336
vn -0.008007 0.985483 -0.169587
vn -0.081326 0.994441 0.066884
vn 0.705638 -0.111018 -0.699821
vn 0.705638 -0.111018 -0.699821
vn 0.705638 -0.111017 -0.699821
vn 0.705638 -0.111017 -0.699821
vn 0.705638 -0.111017 -0.699821
vn 0.705638 -0.111018 -0.699821
vn -0.011283 0.985830 -0.167366
vn -0.011283 0.985830 -0.167366
vn -0.011283 0.985830 -0.167366
vn -0.011283 0.985830 -0.167366
vn -0.011283 0.985830 -0.167366
vn -0.011283 0.985830 -0.167366
vn -0.696029 0.112146 0.709202
vn -0.696029 0.112146 0.709202
vn -0.696029 0.112146 0.709202
vn -0.696029 0.112146 0.709202
vn -0.696029 0.112146 0.709202
vn -0.696029 0.112146 0.709202
vn 0.020870 -0.984057 0.176624
vn 0.020870 -0.984057 0.176624
vn 0.020870 -0.984057 0.176624
vn 0.020870 -0.984057 0.176624
vn 0.020870 -0.984057 0.176624
vn 0.020870 -0.984057 0.176624
vn -0.713006 -0.083754 -0.696138
vn -0.713006 -0.083754 -0.696138
vn -0.713006 -0.083754 -0.696138
vn -0.713006 -0.083754 -0.696138
vn -0.713006 -0.083754 -0.696137
vn -0.713006 -0.083754 -0.696138
vn 0.713006 0.083754 0.696138
vn 0.713006 0.083754 0.696138
vn 0.713006 0.083754 0.696138
vn 0.713006 0.083754 0.696138
vn 0.713006 0.083754 0.696138
vn 0.713006 0.083754 0.696138
vn 0.923361 0.158175 0.349836
vn 0.918710 0.180097 0.351477
vn 0.919160 0.178071 0.351333
vn 0.919160 0.178071 0.351333
vn 0.923831 0.155824 0.349650
vn 0.923361 0.158175 0.349836
vn 0.741322 0.266040 -0.616170
vn 0.719549 0.197646 -0.665721
vn 0.732568 0.236612 -0.638247
vn 0.732568 0.236612 -0.638247
vn 0.752604 0.310072 -0.580898
vn 0.741322 0.266040 -0.616170
vn -0.852820 0.168552 -0.494255
vn -0.859025 0.137532 -0.493114
vn -0.858504 0.140317 -0.493237
vn -0.858504 0.140317 -0.493237
vn -0.852065 0.172050 -0.494352
vn -0.852820 0.168552 -0.494255
vn -0.376871 0.026580 0.925884
vn -0.380158 0.035492 0.924241
vn -0.379172 0.032810 0.924744
vn -0.379172 0.032810 0.924744
vn -0.375663 0.023327 0.926463
vn -0.376871 0.026580 0.925884
vn -0.022121 -0.999743 -0.004862
vn -0.034871 -0.999367 -0.007051
vn 0.005481 -0.999985 -0.000121
vn 0.005481 -0.999985 -0.000121
vn 0.011349 -0.999935 0.000887
vn -0.022121 -0.999743 -0.004862
vn 0.034212 0.999409 0.003265
vn -0.009701 0.999937 -0.005627
vn -0.003309 0.999985 -0.004333
vn -0.003309 0.999985 -0.004333
vn 0.050653 0.998695 0.006596
vn 0.034212 0.999409 0.003265
vn -0.737237 -0.010405 -0.675554
vn -0.737238 -0.010405 -0.675554
vn -0.737237 -0.010405 -0.675554
vn -0.737237 -0.010405 -0.675554
vn -0.737237 -0.010405 -0.675554
vn -0.737237 -0.010405 -0.675554
vn 0.674969 0.042858 -0.736600
vn 0.674969 0.042858 -0.736600
vn 0.674969 0.042858 -0.736600
vn 0.674969 0.042858 -0.736600
vn 0.674969 0.042858 -0.736600
vn 0.674969 0.042858 -0.736600
vn 0.737274 -0.003072 0.675587
vn 0.737274 -0.003072 0.675587
vn 0.737274 -0.003072 0.675587
vn 0.737274 -0.003072 0.675587
vn 0.737274 -0.003072 0.675587
vn 0.737274 -0.003072 0.675587
vn -0.674519 -0.056285 0.736109
vn -0.674519 -0.056285 0.736109
vn -0.674520 -0.056285 0.736108
vn -0.674520 -0.056285 0.736108
vn -0.674520 -0.056285 0.736108
vn -0.674519 -0.056285 0.736109
vn -0.000000 1.000000 -0.000000
vn -0.000000 1.000000 -0.000000
vn -0.000000 1.000000 -0.000000
vn -0.000000 1.000000 -0.000000
vn -0.000000 1.000000 -0.000000
vn -0.000000 1.000000 -0.000000
vn -0.000000 -1.000000 -0.000000
vn -0.000000 -1.000000 -0.000000
vn -0.000000 -1.000000 -0.000000
vn -0.000000 -1.000000 -0.000000
vn -0.000000 -1.000000 -0.000000
vn -0.000000 -1.000000 -0.000000
vn -0.048443 -0.979137 -0.197345
vn 0.333443 -0.595175 -0.731151
vn 0.296734 -0.661921 -0.688339
vn 0.296734 -0.661921 -0.688339
vn -0.068033 -0.983829 -0.165688
vn -0.048443 -0.979137 -0.197345
vn -0.302448 -0.396631 -0.866723
vn -0.402985 -0.498414 -0.767585
vn -0.381204 -0.476604 -0.792169
vn -0.381204 -0.476604 -0.792169
vn -0.276012 -0.369441 -0.887317
vn -0.302448 -0.396631 -0.866723
vn -0.154682 0.793794 0.588188
vn -0.144696 0.817204 0.557889
vn -0.145158 0.816162 0.559293
vn -0.145158 0.816162 0.559293
vn -0.155241 0.792428 0.589879
vn -0.154682 0.793794 0.588188
vn 0.714888 -0.630805 0.301696
vn 0.277274 -0.886239 0.371078
vn 0.534633 -0.771718 0.344411
vn 0.534633 -0.771718 0.344411
vn 0.967203 -0.204193 0.151076
vn 0.714888 -0.630805 0.301696
vn -0.335905 -0.723271 0.603363
vn -0.322777 -0.781806 0.533474
vn -0.355868 -0.315692 0.879600
vn -0.355868 -0.315692 0.879600
vn -0.353614 -0.277760 0.893200
vn -0.335905 -0.723271 0.603363
vn 0.296159 0.739745 -0.604208
vn 0.300229 0.679281 -0.669657
vn 0.299964 0.684882 -0.664047
vn 0.299964 0.684882 -0.664047
vn 0.293956 0.761533 -0.577631
vn 0.296159 0.739745 -0.604208
vn 0.149970 -0.015479 0.988569
vn 0.150568 -0.015612 0.988476
vn 0.150626 -0.015625 0.988467
vn 0.150568 -0.015612 0.988476
vn 0.149970 -0.015479 0.988569
vn 0.149923 -0.015468 0.988577
vn 0.261496 0.918504 -0.296597
vn 0.187941 0.931283 -0.312074
vn 0.178312 0.932545 -0.313951
vn 0.187941 0.931283 -0.312074
vn 0.261496 0.918504 -0.296597
vn 0.269141 0.916851 -0.294870
vn 0.150734 -0.020714 -0.988357
vn 0.148889 -0.020747 -0.988636
vn 0.148652 -0.020751 -0.988672
vn 0.148889 -0.020747 -0.988636
vn 0.150734 -0.020714 -0.988357
vn 0.150933 -0.020710 -0.988327
vn -0.992741 0.119112 -0.016675
vn -0.992985 0.116690 -0.019068
vn -0.990717 0.135940 -0.000000
vn -0.992985 0.116690 -0.019068
vn -0.992741 0.119112 -0.016675
vn -0.994178 0.102574 -0.032989
vn 0.992555 -0.120526 0.017556
vn 0.992822 -0.117886 0.020164
vn 0.994063 -0.103117 0.034715
vn 0.992822 -0.117886 0.020164
vn 0.992555 -0.120526 0.017556
vn 0.990397 -0.138254 0.000000
vn -0.714366 0.129685 0.687650
vn -0.695182 0.077828 0.714608
vn -0.705049 0.103647 0.701544
vn -0.705049 0.103647 0.701544
vn -0.723964 0.158621 0.671353
vn -0.714366 0.129685 0.687650
vn 0.243086 0.257236 0.935275
vn 0.307858 0.096075 0.946569
vn 0.293954 0.132968 0.946526
vn 0.293954 0.132968 0.946526
vn 0.225828 0.296126 0.928068
vn 0.243086 0.257236 0.935275
vn 0.566803 0.174073 -0.805253
vn 0.563693 0.136150 -0.814686
vn 0.564217 0.141878 -0.813345
vn 0.564217 0.141878 -0.813345
vn 0.567294 0.181220 -0.803329
vn 0.566803 0.174073 -0.805253
vn -0.993480 0.004722 -0.113911
vn -0.985989 0.079925 -0.146416
vn -0.989219 0.054995 -0.135725
vn -0.989219 0.054995 -0.135725
vn -0.994593 -0.025318 -0.100715
vn -0.993480 0.004722 -0.113911
vn 0.002372 -0.999966 -0.007910
vn 0.004162 -0.999329 -0.036399
vn 0.002107 -0.999991 -0.003686
vn 0.002107 -0.999991 -0.003686
vn 0.001123 -0.999928 0.011954
vn 0.002372 -0.999966 -0.007910
vn 0.004557 0.999760 0.021447
vn 0.007924 0.999906 -0.011224
vn 0.005285 0.999882 0.014397
vn 0.005285 0.999882 0.014397
vn -0.000414 0.997577 0.069567
vn 0.004557 0.999760 0.021447
vn 0.988309 -0.022629 0.150775
vn 0.988651 -0.022673 0.148507
vn 0.988699 -0.022679 0.148186
vn 0.988651 -0.022673 0.148507
vn 0.988309 -0.022629 0.150775
vn 0.988268 -0.022623 0.151047
vn -0.182470 0.150225 -0.971667
vn -0.186620 0.153010 -0.970444
vn -0.175899 0.145815 -0.973549
vn -0.186620 0.153010 -0.970444
vn -0.182470 0.150225 -0.971667
vn -0.193664 0.157734 -0.968305
vn 0.146212 -0.120077 0.981939
vn 0.115589 -0.099978 0.988253
vn 0.066653 -0.067790 0.995471
vn 0.115589 -0.099978 0.988253
vn 0.146212 -0.120077 0.981939
vn 0.189662 -0.148538 0.970549
vn 0.987348 0.008446 0.158343
vn 0.986414 0.007823 0.164091
vn 0.986500 0.007880 0.163569
vn 0.986500 0.007880 0.163569
vn 0.987444 0.008511 0.157741
vn 0.987348 0.008446 0.158343
vn 0.717354 0.656065 0.234483
vn 0.697464 0.713070 0.071232
vn 0.703846 0.702012 0.108535
vn 0.703846 0.702012 0.108535
vn 0.718931 0.638797 0.274000
vn 0.717354 0.656065 0.234483
vn -0.989341 0.004170 0.145556
vn -0.990031 0.003484 0.140805
vn -0.989981 0.003534 0.141154
vn -0.989981 0.003534 0.141154
vn -0.989276 0.004234 0.145999
vn -0.989341 0.004170 0.145556
vn -0.014915 -0.037724 -0.999177
vn -0.027118 -0.040751 -0.998801
vn 0.006623 -0.032369 -0.999454
vn 0.006623 -0.032369 -0.999454
vn 0.012802 -0.030829 -0.999443
vn -0.014915 -0.037724 -0.999177
vn 0.023385 0.043080 0.998798
vn -0.013431 0.034884 0.999301
vn -0.006092 0.036522 0.999314
vn -0.006092 0.036522 0.999314
vn 0.039308 0.046609 0.998140
vn 0.023385 0.043080 0.998798
vn -0.981184 -0.152259 -0.118722
vn -0.989506 -0.135157 -0.051089
vn -0.989107 -0.136309 -0.055570
vn -0.989107 -0.136309 -0.055570
vn -0.979919 -0.154173 -0.126447
vn -0.981184 -0.152259 -0.118722
vn -0.316352 0.916360 -0.245370
vn -0.312047 0.926145 -0.211853
vn -0.312406 0.925403 -0.214551
vn -0.312406 0.925403 -0.214551
vn -0.316665 0.915564 -0.247922
vn -0.316352 0.916360 -0.245370
vn 0.952000 0.042495 -0.303133
vn 0.963491 0.047266 -0.263535
vn 0.962973 0.047037 -0.265462
vn 0.962973 0.047037 -0.265462
vn 0.951229 0.042195 -0.305586
vn 0.952000 0.042495 -0.303133
vn 0.023987 0.153092 0.987921
vn 0.064093 0.126829 0.989852
vn 0.017195 0.157501 0.987369
vn 0.017195 0.157501 0.987369
vn -0.016276 0.179068 0.983702
vn 0.023987 0.153092 0.987921
vn -0.005359 -0.171372 -0.985192
vn 0.004289 -0.177470 -0.984117
vn -0.003640 -0.172460 -0.985010
vn -0.003640 -0.172460 -0.985010
vn -0.014911 -0.165311 -0.986129
vn -0.005359 -0.171372 -0.985192
vn 0.985294 0.086595 0.147299
vn 0.982111 0.077576 0.171579
vn 0.982540 0.078691 0.168592
vn 0.982540 0.078691 0.168592
vn 0.985727 0.087986 0.143533
vn 0.985294 0.086595 0.147299
vn 0.567070 0.784425 0.251215
vn 0.551350 0.826239 0.115513
vn 0.554880 0.820204 0.139191
vn 0.554880 0.820204 0.139191
vn 0.568786 0.774424 0.277038
vn 0.567070 0.784425 0.251215
vn -0.986667 -0.094270 0.132669
vn -0.983478 -0.093688 0.154902
vn -0.983759 -0.093738 0.153076
vn -0.983759 -0.093738 0.153076
vn -0.986956 -0.094325 0.130466
vn -0.986667 -0.094270 0.132669
vn 0.066124 0.148295 -0.986730
vn 0.114576 0.171700 -0.978464
vn 0.028166 0.129719 -0.991151
vn 0.028166 0.129719 -0.991151
vn 0.000000 0.115800 -0.993273
vn 0.066124 0.148295 -0.986730
vn -0.075371 -0.152428 0.985436
vn -0.000000 -0.116951 0.993138
vn -0.030322 -0.131322 0.990876
vn -0.030322 -0.131322 0.990876
vn -0.130693 -0.177943 0.975323
vn -0.075371 -0.152428 0.985436
vn -0.150757 -0.025125 0.988252
vn -0.147846 -0.024084 0.988717
vn -0.148206 -0.024212 0.988660
vn -0.148206 -0.024212 0.988660
vn -0.151205 -0.025285 0.988179
vn -0.150757 -0.025125 0.988252
vn -0.257869 0.943910 0.206247
vn -0.201676 0.958052 0.203628
vn -0.204971 0.957315 0.203799
vn -0.204971 0.957315 0.203799
vn -0.261711 0.942818 0.206402
vn -0.257869 0.943910 0.206247
vn -0.149531 -0.017593 -0.988600
vn -0.150744 -0.017574 -0.988417
vn -0.150644 -0.017576 -0.988432
vn -0.150644 -0.017576 -0.988432
vn -0.149412 -0.017595 -0.988618
vn -0.149531 -0.017593 -0.988600
vn 0.991420 0.130257 0.010970
vn 0.986415 0.160684 0.034153
vn 0.989617 0.142313 0.020140
vn 0.989617 0.142313 0.020140
vn 0.993273 0.115800 0.000000
vn 0.991420 0.130257 0.010970
vn -0.991176 -0.132064 -0.011357
vn -0.993138 -0.116951 -0.000000
vn -0.989145 -0.145380 -0.021389
vn -0.989145 -0.145380 -0.021389
vn -0.985663 -0.164824 -0.036083
vn -0.991176 -0.132064 -0.011357
vn -0.000000 -0.151051 0.988526
vn 0.000000 -0.151051 0.988526
vn -0.000000 -0.151051 0.988526
vn -0.000000 -0.151051 0.988526
vn -0.000000 -0.151051 0.988526
vn -0.000000 -0.151051 0.988526
vn -0.988526 -0.151052 -0.000000
vn -0.988526 -0.151052 -0.000000
vn -0.988526 -0.151052 -0.000000
vn -0.988526 -0.151052 -0.000000
vn -0.988526 -0.151052 -0.000000
vn -0.988526 -0.151052 -0.000000
vn -0.000000 -0.151051 -0.988526
vn -0.000000 -0.151051 -0.988526
vn -0.000000 -0.151051 -0.988526
vn -0.000000 -0.151051 -0.988526
vn -0.000000 -0.151051 -0.988526
vn -0.000000 -0.151051 -0.988526
vn 0.988526 -0.151051 -0.000000
vn 0.988526 -0.151051 -0.000000
vn 0.988526 -0.151051 -0.000000
vn 0.988526 -0.151051 -0.000000
vn 0.988526 -0.151051 0.000000
vn 0.988526 -0.151051 -0.000000
vn -0.000000 1.000000 -0.000000
vn -0.000000 1.000000 -0.000000
vn -0.000000 1.000000 -0.000000
vn -0.000000 1.000000 -0.000000
vn -0.000000 1.000000 -0.000000
vn -0.000000 1.000000 -0.000000
vn -0.000000 -1.000000 -0.000000
vn -0.000000 -1.000000 -0.000000
vn -0.000000 -1.000000 -0.000000
vn -0.000000 -1.000000 -0.000000
vn -0.000000 -1.000000 -0.000000
vn -0.000000 -1.000000 -0.000000
vn 0.987302 -0.047551 -0.151573
vn 0.985929 -0.047754 -0.160196
vn 0.985780 -0.047776 -0.161107
vn 0.985929 -0.047754 -0.160196
vn 0.987302 -0.047551 -0.151573
vn 0.987428 -0.047532 -0.150757
vn -0.215296 0.945868 -0.242862
vn -0.229637 0.949539 -0.213642
vn -0.239718 0.951535 -0.192656
vn -0.229637 0.949539 -0.213642
vn -0.215296 0.945868 -0.242862
vn -0.206847 0.943265 -0.259741
vn -0.986637 0.086393 -0.138141
vn -0.982267 0.093073 -0.162757
vn -0.981498 0.094148 -0.166729
vn -0.982267 0.093073 -0.162757
vn -0.986637 0.086393 -0.138141
vn -0.987129 0.085568 -0.135108
vn 0.017791 -0.119049 0.992729
vn 0.032677 -0.114855 0.992845
vn 0.012714 -0.120473 0.992635
vn 0.032677 -0.114855 0.992845
vn 0.017791 -0.119049 0.992729
vn 0.037221 -0.113569 0.992833
vn -0.019096 0.129203 -0.991434
vn -0.038900 0.124318 -0.991480
vn -0.043991 0.123053 -0.991425
vn -0.038900 0.124318 -0.991480
vn -0.019096 0.129203 -0.991434
vn -0.013325 0.130616 -0.991344
vn 1.000000 0.000000 -0.000064
vn 1.000000 0.000000 -0.000064
vn 1.000000 0.000000 -0.000064
vn 1.000000 0.000000 -0.000064
vn 1.000000 0.000000 -0.000064
vn 1.000000 0.000000 -0.000064
vn 0.728232 0.000000 0.685331
vn 0.728232 0.000000 0.685331
vn 0.728232 0.000000 0.685331
vn 0.728232 0.000000 0.685331
vn 0.728232 0.000000 0.685331
vn 0.728232 0.000000 0.685331
vn 0.126414 -0.984540 0.121243
vn 0.007052 -0.986800 0.161792
vn -0.012408 -0.986137 0.165469
vn 0.126414 -0.984540 0.121243
vn 0.126593 -0.986553 0.103379
vn 0.007052 -0.986800 0.161792
vn 0.589615 0.012581 -0.807586
vn 0.995070 0.091699 -0.037778
vn 0.995871 0.088346 -0.020864
vn 0.589615 0.012581 -0.807586
vn 0.741567 0.000000 -0.670879
vn 0.995070 0.091699 -0.037778
vn -0.119595 0.985299 -0.121998
vn -0.008007 0.985483 -0.169587
vn 0.010886 0.986009 -0.166336
vn -0.119595 0.985299 -0.121998
vn -0.137033 0.983374 -0.119157
vn -0.008007 0.985483 -0.169587
vn -0.719271 0.005402 0.694709
vn -0.999200 0.039969 -0.001524
vn -0.999191 0.040196 -0.001327
vn -0.719271 0.005402 0.694709
vn -0.601640 0.000000 0.798767
vn -0.999200 0.039969 -0.001524
vn 0.109780 -0.993833 0.015651
vn 0.126593 -0.986553 0.103379
vn 0.126414 -0.984540 0.121243
vn 0.109780 -0.993833 0.015651
vn 0.104853 -0.994488 -0.000007
vn 0.126593 -0.986553 0.103379
vn -0.140605 0.000000 -0.990066
vn 0.741567 0.000000 -0.670879
vn 0.589615 0.012581 -0.807586
vn -0.140605 0.000000 -0.990066
vn -0.140605 0.000000 -0.990066
vn 0.741567 0.000000 -0.670879
vn -0.127023 0.991803 -0.013865
vn -0.137033 0.983374 -0.119157
vn -0.119595 0.985299 -0.121998
vn -0.127023 0.991803 -0.013865
vn -0.128321 0.991733 0.000008
vn -0.137033 0.983374 -0.119157
vn 0.125549 -0.000000 0.992087
vn -0.601640 0.000000 0.798767
vn -0.719271 0.005402 0.694709
vn 0.125549 -0.000000 0.992087
vn 0.125549 -0.000000 0.992087
vn -0.601640 0.000000 0.798767
vn 0.129682 -0.991535 -0.006412
vn -0.117718 -0.988782 -0.091935
vn -0.119689 -0.986401 -0.112638
vn 0.129682 -0.991535 -0.006412
vn 0.135241 -0.990646 -0.018202
vn -0.117718 -0.988782 -0.091935
vn -0.032841 0.000000 0.999461
vn -0.071059 0.000000 0.997472
vn -0.071059 0.000000 0.997472
vn -0.032841 0.000000 0.999461
vn -0.025914 0.000000 0.999664
vn -0.071059 0.000000 0.997472
vn -0.102641 0.994697 0.006517
vn 0.104765 0.990546 0.088561
vn 0.102582 0.990029 0.096539
vn -0.102641 0.994697 0.006517
vn -0.095738 0.995254 0.017442
vn 0.104765 0.990546 0.088561
vn 0.022403 0.000000 -0.999749
vn 0.055539 0.000000 -0.998457
vn 0.055539 0.000000 -0.998457
vn 0.022403 0.000000 -0.999749
vn 0.026774 0.000000 -0.999642
vn 0.055539 0.000000 -0.998457
vn 0.020706 -0.999773 -0.005117
vn 0.135241 -0.990646 -0.018202
vn 0.129682 -0.991535 -0.006412
vn 0.020706 -0.999773 -0.005117
vn 0.075172 -0.996122 -0.045716
vn 0.135241 -0.990646 -0.018202
vn 0.687213 0.000000 0.726456
vn -0.025914 0.000000 0.999664
vn -0.032841 0.000000 0.999461
vn 0.687213 0.000000 0.726456
vn 0.759318 0.014789 0.650552
vn -0.025914 0.000000 0.999664
vn -0.098468 0.993182 0.062396
vn -0.095738 0.995254 0.017442
vn -0.102641 0.994697 0.006517
vn -0.098468 0.993182 0.062396
vn -0.081326 0.994441 0.066884
vn -0.095738 0.995254 0.017442
vn -0.741063 0.000000 -0.671435
vn 0.026774 0.000000 -0.999642
vn 0.022403 0.000000 -0.999749
vn -0.741063 0.000000 -0.671435
vn -0.681414 0.004245 -0.731886
vn 0.026774 0.000000 -0.999642
vn -0.999191 0.040196 -0.001327
vn -0.681414 0.004245 -0.731886
vn -0.741063 0.000000 -0.671435

g World_Generic_orc_passive doodads_barrelsandcrates_orccratebroken02.m2_Geoset_000
usemtl World_Generic_orc_passive doodads_barrelsandcrates_orccratebroken02.m2_Geoset_000
s 1
f 1/1/1 2/2/2 3/3/3
f 4/4/4 5/5/5 6/6/6
f 7/7/7 8/8/8 9/9/9
f 10/10/10 11/11/11 12/12/12
f 13/13/13 14/14/14 15/15/15
f 16/16/16 17/17/17 18/18/18
f 19/19/19 20/20/20 21/21/21
f 22/22/22 23/23/23 24/24/24
f 25/25/25 26/26/26 27/27/27
f 28/28/28 29/29/29 30/30/30
f 31/31/31 32/32/32 33/33/33
f 34/34/34 35/35/35 36/36/36
f 37/37/37 38/38/38 39/39/39
f 40/40/40 41/41/41 42/42/42
f 43/43/43 44/44/44 45/45/45
f 46/46/46 47/47/47 48/48/48
f 49/49/49 50/50/50 51/51/51
f 52/52/52 53/53/53 54/54/54
f 55/55/55 56/56/56 57/57/57
f 58/58/58 59/59/59 60/60/60
f 61/61/61 62/62/62 63/63/63
f 64/64/64 65/65/65 66/66/66
f 67/67/67 68/68/68 69/69/69
f 70/70/70 71/71/71 72/72/72
f 73/73/73 74/74/74 75/75/75
f 76/76/76 77/77/77 78/78/78
f 79/79/79 80/80/80 81/81/81
f 82/82/82 83/83/83 84/84/84
f 85/85/85 86/86/86 87/87/87
f 88/88/88 89/89/89 90/90/90
f 91/91/91 92/92/92 93/93/93
f 94/94/94 95/95/95 96/96/96
f 97/97/97 98/98/98 99/99/99
f 100/100/100 101/101/101 102/102/102
f 103/103/103 104/104/104 105/105/105
f 106/106/106 107/107/107 108/108/108
f 109/109/109 110/110/110 111/111/111
f 112/112/112 113/113/113 114/114/114
f 115/115/115 116/116/116 117/117/117
f 118/118/118 119/119/119 120/120/120
f 121/121/121 122/122/122 123/123/123
f 124/124/124 125/125/125 126/126/126
f 127/127/127 128/128/128 129/129/129
f 130/130/130 131/131/131 132/132/132
f 133/133/133 134/134/134 135/135/135
f 136/136/136 137/137/137 138/138/138
f 139/139/139 140/140/140 141/141/141
f 142/142/142 143/143/143 144/144/144
f 145/145/145 146/146/146 147/147/147
f 148/148/148 149/149/149 150/150/150
f 151/151/151 152/152/152 153/153/153
f 154/154/154 155/155/155 156/156/156
f 157/157/157 158/158/158 159/159/159
f 160/160/160 161/161/161 162/162/162
f 163/163/163 164/164/164 165/165/165
f 166/166/166 167/167/167 168/168/168
f 169/169/169 170/170/170 171/171/171
f 172/172/172 173/173/173 174/174/174
f 175/175/175 176/176/176 177/177/177
f 178/178/178 179/179/179 180/180/180
f 181/181/181 182/182/182 183/183/183
f 184/184/184 185/185/185 186/186/186
f 187/187/187 188/188/188 189/189/189
f 190/190/190 191/191/191 192/192/192
f 193/193/193 194/194/194 195/195/195
f 196/196/196 197/197/197 198/198/198
f 199/199/199 200/200/200 201/201/201
f 202/202/202 203/203/203 204/204/204
f 205/205/205 206/206/206 207/207/207
f 208/208/208 209/209/209 210/210/210
f 211/211/211 212/212/212 213/213/213
f 214/214/214 215/215/215 216/216/216
f 217/217/217 218/218/218 219/219/219
f 220/220/220 221/221/221 222/222/222
f 223/223/223 224/224/224 225/225/225
f 226/226/226 227/227/227 228/228/228
f 229/229/229 230/230/230 231/231/231
f 232/232/232 233/233/233 234/234/234
f 235/235/235 236/236/236 237/237/237
f 238/238/238 239/239/239 240/240/240
f 241/241/241 242/242/242 243/243/243
f 244/244/244 245/245/245 246/246/246
f 247/247/247 248/248/248 249/249/249
f 250/250/250 251/251/251 252/252/252
f 253/253/253 254/254/254 255/255/255
f 256/256/256 257/257/257 258/258/258
f 259/259/259 260/260/260 261/261/261
f 262/262/262 263/263/263 264/264/264
f 265/265/265 266/266/266 267/267/267
f 268/268/268 269/269/269 270/270/270
f 271/271/271 272/272/272 273/273/273
f 274/274/274 275/275/275 276/276/276
f 277/277/277 278/278/278 279/279/279
f 280/280/280 281/281/281 282/282/282
f 283/283/283 284/284/284 285/285/285
f 286/286/286 287/287/287 288/288/288
f 289/289/289 290/290/290 291/291/291
f 292/292/292 293/293/293 294/294/294
f 295/295/295 296/296/296 297/297/297
f 298/298/298 299/299/299 300/300/300
f 301/301/301 302/302/302 303/303/303
f 304/304/304 305/305/305 306/306/306
f 307/307/307 308/308/308 309/309/309
f 310/310/310 311/311/311 312/312/312
f 313/313/313 314/314/314 315/315/315
f 316/316/316 317/317/317 318/318/318
f 319/319/319 320/320/320 321/321/321
f 322/322/322 323/323/323 324/324/324
f 325/325/325 326/326/326 327/327/327
f 328/328/328 329/329/329 330/330/330
f 331/331/331 332/332/332 333/333/333
f 334/334/334 335/335/335 336/336/336
f 337/337/337 338/338/338 339/339/339
f 340/340/340 341/341/341 342/342/342
f 343/343/343 344/344/344 345/345/345
f 346/346/346 347/347/347 348/348/348
f 349/349/349 350/350/350 351/351/351
f 352/352/352 353/353/353 354/354/354
f 355/355/355 356/356/356 357/357/357
f 358/358/358 359/359/359 360/360/360
f 361/361/361 362/362/362 363/363/363
f 364/364/364 365/365/365 366/366/366
f 367/367/367 368/368/368 369/369/369
f 370/370/370 371/371/371 372/372/372
f 373/373/373 374/374/374 375/375/375
f 376/376/376 377/377/377 378/378/378
f 379/379/379 380/380/380 381/381/381
f 382/382/382 383/383/383 384/384/384
f 385/385/385 386/386/386 387/387/387
f 388/388/388 389/389/389 390/390/390
f 391/391/391 392/392/392 393/393/393
f 394/394/394 395/395/395 396/396/396
f 397/397/397 398/398/398 399/399/399
f 400/400/400 401/401/401 402/402/402
f 403/403/403 404/404/404 405/405/405
f 406/406/406 407/407/407 408/408/408
f 409/409/409 410/410/410 411/411/411
f 412/412/412 413/413/413 414/414/414
f 415/415/415 416/416/416 417/417/417
f 418/418/418 419/419/419 420/420/420
f 421/421/421 422/422/422 423/423/423
f 424/424/424 425/425/425 426/426/426
f 427/427/427 428/428/428 429/429/429
f 430/430/430 431/431/431 432/432/432
f 433/433/433 434/434/434 435/435/435
f 436/436/436 437/437/437 438/438/438
f 439/439/439 440/440/440 441/441/441
f 442/442/442 443/443/443 444/444/444
f 445/445/445 446/446/446 447/447/447
f 448/448/448 449/449/449 450/450/450
f 451/451/451 452/452/452 453/453/453
f 454/454/454 455/455/455 456/456/456
f 457/457/457 458/458/458 459/459/459
f 460/460/460 461/461/461 462/462/462
f 463/463/463 464/464/464 465/465/465
f 466/466/466 467/467/467 468/468/468
f 469/469/469 470/470/470 471/471/471
f 472/472/472 473/473/473 474/474/474
f 475/475/475 476/476/476 477/477/477
f 478/478/478 479/479/479 480/480/480
f 481/481/481 482/482/482 483/483/483
f 484/484/484 485/485/485 486/486/486
f 487/487/487 488/488/488 489/489/489
f 490/490/490 491/491/491 492/492/492
f 493/493/493 494/494/494 495/495/495
f 496/496/496 497/497/497 498/498/498
f 499/499/499 500/500/500 501/501/501
f 502/502/502 503/503/503 504/504/504
f 505/505/505 506/506/506 507/507/507
f 508/508/508 509/509/509 510/510/510
f 511/511/511 512/512/512 513/513/513
f 514/514/514 515/515/515 516/516/516
f 517/517/517 518/518/518 519/519/519
f 520/520/520 521/521/521 522/522/522
f 523/523/523 524/524/524 525/525/525
f 526/526/526 527/527/527 528/528/528
f 529/529/529 530/530/530 531/531/531
f 532/532/532 533/533/533 534/534/534
f 535/535/535 536/536/536 537/537/537
f 538/538/538 539/539/539 540/540/540
f 541/541/541 542/542/542 543/543/543
f 544/544/544 545/545/545 546/546/546
# 182 triangles in group

# 182 triangles total
