# Blender v2.78 (sub 0) OBJ File: ''
# www.blender.org
mtllib ElectricityBox.mtl
o SM_ENV_BIB_STRUCT_ElectricityBox
v 1.804177 3.363357 1.762769
v 1.763026 3.363357 1.803919
v 1.715235 3.363357 1.715236
v 0.466132 5.614333 -1.837932
v 0.459326 5.614333 -1.831092
v 0.466165 5.614333 -1.824286
v 0.472972 5.614333 -1.831125
v 0.452130 2.514615 -1.835461
v 0.457500 2.514615 -1.818991
v 0.474823 2.514615 -1.819010
v 0.466132 2.514615 -1.845658
v 0.480159 2.514615 -1.835491
v 0.628464 3.278970 1.780400
v 0.628464 3.309971 1.715236
v 0.593771 3.281971 1.715236
v 0.628464 3.213497 1.811708
v 0.593738 3.260081 1.761328
v 0.571780 3.243188 1.715236
v 0.593771 3.145026 1.715236
v 0.628464 3.117026 1.715236
v 0.628464 3.148027 1.780400
v 0.593738 3.166916 1.761328
v 0.592950 3.213497 1.782731
v 0.571780 3.213497 1.744925
v 0.571780 3.183809 1.715236
v 0.459326 2.513769 -1.831093
v 0.466165 2.513769 -1.824286
v 0.466132 2.513769 -1.837932
v 0.472972 2.513769 -1.831126
v 0.452130 0.892624 -1.835461
v 0.457500 0.892624 -1.818991
v 0.466132 0.892624 -1.845658
v 0.480159 0.892624 -1.835491
v 0.474823 0.892624 -1.819011
v 0.475398 0.472852 -1.745444
v 0.456900 0.472852 -1.745444
v 0.484647 0.488872 -1.745444
v 0.447651 0.488872 -1.745444
v 0.456900 0.504890 -1.745444
v 0.475398 0.504890 -1.745444
v 0.456900 0.893584 -1.847129
v 0.447651 0.893584 -1.831110
v 0.456900 0.893584 -1.815090
v 0.475398 0.893584 -1.847129
v 0.484647 0.893584 -1.831110
v 0.475398 0.893584 -1.815090
v 0.475398 0.828875 -1.815090
v 0.456900 0.828875 -1.815090
v 0.484647 0.828875 -1.831110
v 0.447653 0.828875 -1.831110
v 0.456900 0.828875 -1.847129
v 0.475398 0.828875 -1.847129
v -0.158783 3.811927 -0.065842
v -0.158834 3.811927 0.065719
v -0.158834 4.227929 0.065719
v -0.158783 4.227929 -0.065842
v -0.065718 3.811927 -0.158834
v -0.065718 4.227929 -0.158833
v 0.065842 3.811927 -0.158783
v 0.065842 4.227929 -0.158783
v 0.158834 3.811927 -0.065718
v 0.158834 4.227929 -0.065718
v 0.158783 4.227929 0.065843
v 0.158783 3.811927 0.065843
v 0.065718 3.811927 0.158835
v 0.065718 4.227929 0.158835
v -0.065842 3.811927 0.158784
v -0.065842 4.227929 0.158784
v -1.804177 3.443007 -1.762768
v -0.108456 3.838130 -0.069837
v -0.110352 3.846338 -0.087167
v -1.760624 3.453454 -1.786082
v -1.763026 3.443007 -1.803918
v -1.786340 3.453454 -1.760365
v -0.084636 3.846338 -0.112883
v -0.067305 3.838130 -0.110987
v 1.760624 3.453454 -1.786082
v 1.786340 3.453454 -1.760365
v 1.804177 3.443007 -1.762768
v 1.763026 3.443007 -1.803918
v 0.067305 3.838130 -0.110987
v 0.084636 3.846338 -0.112883
v 0.110352 3.846338 -0.087167
v 0.108456 3.838130 -0.069837
v -1.804177 3.363358 -1.762768
v -1.763026 3.363358 -1.803918
v -1.715235 3.363358 -1.715235
v 1.804177 3.363358 -1.762768
v 1.763026 3.363358 -1.803918
v 0.108456 3.838130 0.069838
v 1.804177 3.443007 1.762769
v 1.715235 3.363358 -1.715235
v 0.110352 3.846338 0.087168
v 1.760624 3.453453 1.786083
v 1.763026 3.443007 1.803919
v 1.786340 3.453453 1.760366
v 0.084636 3.846338 0.112885
v 0.067305 3.838130 0.110989
v 0.932535 3.260081 1.761328
v 0.897807 3.278970 1.780400
v 0.897807 3.213497 1.811708
v 0.933323 3.213497 1.782731
v 0.954493 3.213497 1.744925
v 0.932535 3.166916 1.761328
v 0.897807 3.148027 1.780400
v 0.932502 3.281971 1.715236
v 0.897807 3.309971 1.715236
v 0.954493 3.243188 1.715236
v 0.954493 3.183809 1.715236
v 0.932502 3.145026 1.715236
v 0.897807 3.117026 1.715236
v -1.715235 0.174129 1.715235
v 1.715235 0.174129 1.715235
v 1.715235 3.382118 1.715236
v -1.715235 3.382118 1.715236
v 0.229385 1.843668 1.772913
v 0.229385 1.888018 1.772913
v 0.214045 1.888018 1.772913
v 0.214045 1.843668 1.772913
v 0.214045 1.888018 1.715236
v 0.214045 1.843670 1.715236
v 0.229385 1.843670 1.715236
v 0.229385 1.888018 1.715236
v 0.273487 1.846220 1.722978
v 0.229157 1.846221 1.722978
v 0.229157 1.846221 1.715236
v 0.273487 1.846220 1.715236
v 0.273487 1.885947 1.715236
v 0.273487 1.885947 1.722978
v 0.229157 1.885949 1.722978
v 0.229157 1.885949 1.715236
v 0.212585 1.606622 1.750193
v 0.212585 1.606622 1.743219
v 0.223249 1.606622 1.743219
v 0.223249 1.606622 1.750193
v 0.205517 1.784959 1.715235
v 0.230317 1.784959 1.715235
v 0.230317 1.784959 1.745407
v 0.205517 1.784959 1.745407
v -0.229385 1.843668 1.772913
v -0.214045 1.843668 1.772913
v -0.214045 1.888018 1.772913
v -0.229385 1.888018 1.772913
v -0.214045 1.888018 1.715236
v -0.214045 1.843670 1.715236
v -0.229385 1.888018 1.715236
v -0.229385 1.843670 1.715236
v -0.273487 1.846220 1.722978
v -0.273487 1.846220 1.715236
v -0.229157 1.846221 1.715236
v -0.229157 1.846221 1.722978
v -0.273487 1.885947 1.715236
v -0.273487 1.885947 1.722978
v -0.229157 1.885949 1.722978
v -0.229157 1.885949 1.715236
v -0.227995 1.695848 1.772069
v -0.223249 1.606622 1.750193
v -0.212585 1.606622 1.750193
v -0.207839 1.695848 1.772069
v -0.204741 1.798593 1.776200
v -0.231093 1.798593 1.776200
v -0.235798 1.830962 1.777189
v -0.200037 1.830962 1.777189
v -0.230560 1.843541 1.774993
v -0.205274 1.843541 1.774993
v -0.217918 1.848750 1.774083
v -0.223249 1.606622 1.743219
v -0.212585 1.606622 1.743219
v -0.205517 1.784959 1.715235
v -0.205517 1.784959 1.745407
v -0.230317 1.784959 1.745407
v -0.230317 1.784959 1.715235
v 1.481877 0.629003 1.728235
v 1.492123 0.629003 1.735995
v 1.502368 0.629003 1.728235
v 1.480120 0.629003 1.715235
v 1.504127 0.629003 1.715235
v -0.297489 4.224619 0.124934
v 0.000470 4.393054 0.001652
v -0.227631 4.224619 0.229574
v -0.123045 4.224619 0.299515
v 0.000343 4.224619 0.324110
v 0.123753 4.224619 0.299612
v 0.228392 4.224619 0.229753
v 0.298333 4.224619 0.125167
v 0.322926 4.224619 0.001779
v 0.298430 4.224619 -0.121630
v 0.228572 4.224619 -0.226270
v 0.123986 4.224619 -0.296211
v 0.000597 4.224619 -0.320804
v -0.122812 4.224619 -0.296308
v -0.227452 4.224619 -0.226448
v -0.297392 4.224619 -0.121863
v -0.321986 4.224619 0.001526
v 1.481877 2.832453 1.728235
v 1.492123 2.832453 1.735995
v 1.502368 2.832453 1.728235
v 1.480120 2.832453 1.715236
v 1.504127 2.832453 1.715236
v 1.481877 0.490001 1.728235
v 1.480120 0.490001 1.715235
v 1.504127 0.490001 1.715235
v 1.502368 0.490001 1.728235
v 1.492123 0.490001 1.735995
v -1.259588 0.629003 1.715235
v -1.283595 0.629003 1.715235
v -1.281837 0.629003 1.728235
v -1.261347 0.629003 1.728235
v -1.271591 0.629003 1.735995
v -1.261347 0.490001 1.728235
v -1.271591 0.490001 1.735995
v -1.281837 0.490001 1.728235
v -1.283595 0.490001 1.715235
v -1.259588 0.490001 1.715235
v -1.259588 2.832453 1.715236
v -1.283595 2.832453 1.715236
v -1.281837 2.832453 1.728235
v -1.261347 2.832453 1.728235
v -1.271591 2.832453 1.735995
v -1.261347 2.693450 1.728235
v -1.271591 2.693450 1.735995
v -1.281837 2.693450 1.728235
v -1.283595 2.693450 1.715236
v -1.259588 2.693450 1.715236
v 1.339246 0.019164 -1.376128
v 1.675836 0.019164 -1.376128
v 1.675836 0.019164 -1.603812
v 1.339246 0.019164 -1.603812
v 1.675836 0.183137 -1.660527
v 1.339246 0.183137 -1.660527
v 1.339246 0.183138 -1.319412
v 1.675836 0.183138 -1.319412
v 1.339246 0.007102 -1.367332
v 1.675836 0.007102 -1.367332
v 1.675836 0.183137 -1.303349
v 1.339246 0.183137 -1.303349
v 1.675836 0.007102 -1.612608
v 1.339246 0.007102 -1.612608
v 1.339246 0.183137 -1.676589
v 1.675836 0.183137 -1.676589
v -1.339246 0.019164 -1.376128
v -1.339246 0.019164 -1.603812
v -1.675836 0.019164 -1.603812
v -1.675836 0.019164 -1.376128
v -1.339246 0.183137 -1.660527
v -1.675836 0.183137 -1.660527
v -1.339246 0.183138 -1.319412
v -1.675836 0.183138 -1.319412
v -1.339246 0.007102 -1.367332
v -1.339246 0.183137 -1.303349
v -1.675836 0.183137 -1.303349
v -1.675836 0.007102 -1.367332
v -1.675836 0.007102 -1.612608
v -1.675836 0.183137 -1.676589
v -1.339246 0.183137 -1.676589
v -1.339246 0.007102 -1.612608
v 1.339246 0.019163 1.376128
v 1.339246 0.019163 1.603812
v 1.675836 0.019163 1.603812
v 1.675836 0.019163 1.376128
v 1.339246 0.183136 1.660527
v 1.675836 0.183136 1.660527
v 1.339246 0.183138 1.319412
v 1.675836 0.183138 1.319412
v 1.339246 0.007102 1.367332
v 1.339246 0.183136 1.303349
v 1.675836 0.183136 1.303349
v 1.675836 0.007102 1.367332
v 1.675836 0.007102 1.612608
v 1.675836 0.183136 1.676589
v 1.339246 0.183136 1.676589
v 1.339246 0.007102 1.612608
v -1.339246 0.019163 1.376128
v -1.675836 0.019163 1.376128
v -1.675836 0.019163 1.603812
v -1.339246 0.019163 1.603812
v -1.675836 0.183136 1.660527
v -1.339246 0.183136 1.660527
v -1.339246 0.183138 1.319412
v -1.675836 0.183138 1.319412
v -1.339246 0.007102 1.367332
v -1.675836 0.007102 1.367332
v -1.675836 0.183136 1.303349
v -1.339246 0.183136 1.303349
v -1.675836 0.007102 1.612608
v -1.339246 0.007102 1.612608
v -1.339246 0.183136 1.676589
v -1.675836 0.183136 1.676589
v -1.014498 3.030217 -2.056977
v -1.014498 2.586938 -2.056977
v -1.599013 2.586938 -2.056976
v -1.599013 3.030217 -2.056977
v -1.014498 2.586938 -1.715235
v -1.599013 2.586938 -1.715235
v -1.599013 3.030217 -1.715235
v -1.014498 3.030217 -1.715235
v 0.883357 3.382118 -1.715235
v 0.883357 0.174130 -1.715235
v 0.868427 0.174130 -1.747047
v 0.868427 3.382118 -1.747047
v 0.831878 0.174130 -1.715235
v 0.831878 3.382118 -1.715235
v 0.846808 3.382118 -1.747047
v 0.846808 0.174130 -1.747047
v -0.025740 0.174130 -1.715235
v -0.025740 3.382118 -1.715235
v -0.010810 3.382118 -1.747047
v -0.010810 0.174130 -1.747047
v 0.025740 3.382118 -1.715235
v 0.025740 0.174130 -1.715235
v 0.010810 0.174130 -1.747047
v 0.010810 3.382118 -1.747047
v -0.883357 0.174130 -1.715235
v -0.883357 3.382118 -1.715235
v -0.868427 3.382118 -1.747047
v -0.868427 0.174130 -1.747047
v -0.831878 3.382118 -1.715235
v -0.831878 0.174130 -1.715235
v -0.846808 0.174130 -1.747047
v -0.846808 3.382118 -1.747047
v 1.715235 3.382118 -1.715235
v 1.715235 0.174130 -1.715235
v -1.715235 0.174130 -1.715235
v -1.715235 3.382118 -1.715235
v 0.555919 2.399229 -1.727303
v 0.555919 2.399229 -1.715235
v 0.522259 2.353506 -1.715235
v 0.522259 2.353506 -1.727303
v 0.492402 2.399229 -1.856118
v 0.492402 2.410859 -1.856118
v 0.555919 2.410859 -1.727303
v 0.555919 2.410859 -1.715235
v 0.410039 2.353506 -1.727303
v 0.376380 2.399229 -1.727303
v 0.410039 2.353506 -1.715235
v 0.376380 2.399229 -1.715235
v 0.439897 2.399229 -1.856118
v 0.376380 2.410859 -1.727303
v 0.439897 2.410859 -1.856118
v 0.466149 2.399229 -1.863954
v 0.466149 2.410859 -1.863954
v 0.376380 2.410859 -1.715235
v 0.555919 0.956558 -1.727303
v 0.555919 0.956558 -1.715235
v 0.522259 0.910834 -1.715235
v 0.522259 0.910834 -1.727303
v 0.492402 0.956558 -1.856118
v 0.492402 0.968189 -1.856118
v 0.555919 0.968189 -1.727303
v 0.555919 0.968189 -1.715235
v 0.410039 0.910834 -1.727303
v 0.376380 0.956558 -1.727303
v 0.410039 0.910834 -1.715235
v 0.376380 0.956558 -1.715235
v 0.439897 0.956558 -1.856118
v 0.376380 0.968189 -1.727303
v 0.439897 0.968189 -1.856118
v 0.466149 0.956558 -1.863955
v 0.466149 0.968189 -1.863955
v 0.376380 0.968189 -1.715235
v 0.484647 0.488872 -1.722821
v 0.475398 0.504890 -1.722821
v 0.456900 0.504890 -1.722821
v 0.447653 0.488872 -1.722821
v 0.456900 0.472852 -1.722821
v 0.475398 0.472852 -1.722821
v 1.747047 3.382117 0.010811
v 1.715235 3.382118 0.025741
v 1.715235 0.174129 0.025740
v 1.747047 0.174129 0.010811
v 1.747047 3.382117 -0.010808
v 1.747047 0.174129 -0.010810
v 1.715235 3.382118 -0.025738
v 1.715235 0.174129 -0.025740
v -1.763026 3.363357 1.803919
v -1.763026 3.443007 1.803919
v -0.067305 3.838130 0.110989
v -1.804177 3.443007 1.762769
v -1.804177 3.363357 1.762769
v -0.108456 3.838130 0.069838
v -1.715235 3.363357 1.715236
v 1.481877 2.693450 1.728235
v 1.480120 2.693450 1.715236
v 1.504127 2.693450 1.715236
v 1.502368 2.693450 1.728235
v 1.492123 2.693450 1.735995
v -1.747047 3.382117 -0.010810
v -1.715235 3.382118 -0.025740
v -1.715235 0.174129 -0.025740
v -1.747047 0.174129 -0.010810
v -1.747047 3.382117 0.010810
v -1.747047 0.174129 0.010809
v -1.715235 3.382118 0.025739
v -1.715235 0.174129 0.025739
v 1.715235 3.382118 0.831879
v 1.747047 3.382116 0.846808
v 1.719607 0.387344 0.846808
v 1.687795 0.382915 0.831878
v 1.747047 0.174129 0.846808
v 1.715235 0.174129 0.831878
v 1.715235 3.382118 -0.883356
v 1.747047 3.382117 -0.868427
v 1.686818 1.129096 -0.868427
v 1.655006 1.129026 -0.883357
v 1.729206 0.732222 -0.868427
v 1.697394 0.732153 -0.883357
v 1.747047 0.174130 -0.868427
v 1.715235 0.174130 -0.883357
v 1.747047 3.382117 -0.846806
v 1.686818 1.129081 -0.846806
v 1.729206 0.732207 -0.846806
v 1.747047 0.174130 -0.846806
v 1.715235 0.174129 0.883357
v 1.687795 0.379144 0.883357
v 1.715235 3.382118 0.883358
v 1.655006 1.128990 -0.831877
v 1.715235 3.382118 -0.831876
v 1.697396 0.732119 -0.831877
v 1.715235 0.174130 -0.831877
v 1.747047 0.174129 0.868427
v 1.719607 0.385760 0.868427
v 1.747047 3.382116 0.868428
v -1.715235 3.382118 -0.831878
v -1.747046 3.382117 -0.846807
v -1.719607 0.387345 -0.846808
v -1.687795 0.382915 -0.831878
v -1.747047 0.174130 -0.846808
v -1.715235 0.174130 -0.831878
v -1.715235 3.382118 0.883358
v -1.747047 3.382116 0.868428
v -1.686818 1.129096 0.868428
v -1.655006 1.129026 0.883357
v -1.729208 0.732222 0.868428
v -1.697396 0.732153 0.883357
v -1.747047 0.174129 0.868427
v -1.715235 0.174129 0.883357
v -1.747047 3.382116 0.846807
v -1.686818 1.129081 0.846807
v -1.729208 0.732207 0.846807
v -1.747047 0.174129 0.846806
v -1.687795 0.379144 -0.883357
v -1.715235 0.174130 -0.883357
v -1.747047 0.174130 -0.868427
v -1.719607 0.385761 -0.868427
v -1.747046 3.382117 -0.868427
v -1.715235 3.382118 -0.883356
v -1.715234 0.174130 -1.715235
v -1.715234 3.382118 -1.715235
v -1.697396 0.732119 0.831877
v -1.715235 0.174129 0.831877
v -1.655006 1.128990 0.831877
v -1.715235 3.382118 0.831877
v 0.494896 0.460125 -1.715004
v 0.466149 0.488872 -1.732327
v 0.508238 0.488872 -1.715004
v 0.494896 0.517619 -1.715004
v 0.466149 0.530960 -1.715004
v 0.437402 0.517619 -1.715004
v 0.424061 0.488872 -1.715004
v 0.437402 0.460125 -1.715004
v 0.466149 0.446784 -1.715004
v -0.110352 3.846338 0.087168
v -1.786340 3.453453 1.760366
v -0.084636 3.846338 0.112885
v -1.760624 3.453453 1.786083
v 0.205274 1.843541 1.774993
v 0.230560 1.843541 1.774993
v 0.217918 1.848750 1.774083
v 0.200037 1.830962 1.777189
v 0.235798 1.830962 1.777189
v 0.204741 1.798593 1.776200
v 0.231093 1.798593 1.776200
v 0.227995 1.695848 1.772069
v 0.207839 1.695848 1.772069
v -1.715235 3.382118 1.715234
v -1.715235 0.174129 1.715234
v 0.507577 0.650634 -1.876116
v 0.491843 0.646948 -1.872820
v 0.499613 0.578558 -1.886889
v 0.515263 0.574341 -1.890259
v 0.474276 0.515052 -1.853798
v 0.487076 0.504314 -1.854368
v 0.465210 0.501908 -1.801836
v 0.476989 0.490508 -1.800647
v 0.465916 0.500608 -1.738957
v 0.477734 0.489232 -1.739012
v 0.489602 0.723772 -1.827700
v 0.474596 0.717772 -1.824842
v 0.484390 0.730159 -1.841935
v 0.503621 0.654598 -1.891683
v 0.511218 0.570904 -1.905874
v 0.478863 0.494355 -1.864634
v 0.465704 0.478715 -1.802349
v 0.466361 0.477418 -1.739400
v 0.495567 0.575121 -1.902504
v 0.466065 0.505094 -1.864064
v 0.453923 0.490114 -1.803538
v 0.454543 0.488793 -1.739347
v 0.460446 0.829454 -1.822458
v 0.456207 0.828719 -1.838288
v 0.469384 0.724159 -1.839076
v 0.487888 0.650911 -1.888388
v 0.476283 0.829836 -1.826717
v 0.472044 0.829102 -1.842547
v 0.227995 1.695848 1.752621
v 0.235798 1.830962 1.715236
v 0.230560 1.843541 1.715236
v 0.217918 1.848753 1.715236
v -0.207839 1.695848 1.752621
v -0.200037 1.830962 1.715236
v -0.205274 1.843541 1.715236
v -0.217918 1.848753 1.715236
v 0.207839 1.695848 1.752621
v 0.200037 1.830962 1.715236
v 0.205274 1.843541 1.715236
v 0.000343 4.227929 0.325832
v 0.124411 4.227929 0.301205
v 0.000470 4.396787 0.001652
v 0.229611 4.227929 0.230973
v 0.299926 4.227929 0.125829
v 0.324651 4.227929 0.001779
v 0.300023 4.227929 -0.122289
v 0.229790 4.227929 -0.227489
v 0.124647 4.227929 -0.297804
v 0.000597 4.227929 -0.322529
v -0.123470 4.227929 -0.297901
v -0.228670 4.227929 -0.227668
v -0.298985 4.227929 -0.122523
v -0.323710 4.227929 0.001525
v -0.299082 4.227929 0.125594
v -0.228851 4.227929 0.230792
v -0.123706 4.227929 0.301108
v -0.230560 1.843541 1.715236
v -0.235798 1.830962 1.715236
v -0.227995 1.695848 1.752621
vt 0.4414 0.4883
vt 0.4363 0.4829
vt 0.4304 0.4941
vt 0.4233 0.4746
vt 0.4224 0.4736
vt 0.4233 0.4727
vt 0.4243 0.4736
vt 0.2241 0.4424
vt 0.2249 0.4399
vt 0.2272 0.4399
vt 0.2260 0.4438
vt 0.2279 0.4424
vt 0.2494 0.4229
vt 0.2416 0.4297
vt 0.2389 0.4238
vt 0.2527 0.4136
vt 0.2444 0.4194
vt 0.2374 0.4175
vt 0.2389 0.4028
vt 0.2416 0.3975
vt 0.2494 0.4038
vt 0.2444 0.4072
vt 0.2467 0.4136
vt 0.2412 0.4136
vt 0.2374 0.4092
vt 0.0029 0.4727
vt 0.0029 0.4712
vt 0.4204 0.4712
vt 0.4204 0.4727
vt 0.0029 0.4736
vt 0.4204 0.4736
vt 0.0029 0.4751
vt 0.4204 0.4751
vt 0.0029 0.4761
vt 0.4204 0.4761
vt 0.0032 0.4424
vt 0.0032 0.4399
vt 0.2216 0.4399
vt 0.2216 0.4424
vt 0.0032 0.4448
vt 0.2216 0.4448
vt 0.0032 0.4473
vt 0.2216 0.4473
vt 0.0032 0.4492
vt 0.2216 0.4492
vt 0.0032 0.4517
vt 0.2216 0.4517
vt 0.1133 0.3130
vt 0.1089 0.3130
vt 0.1154 0.3091
vt 0.1068 0.3091
vt 0.1089 0.3052
vt 0.1133 0.3052
vt 0.1368 0.3452
vt 0.1381 0.3472
vt 0.1368 0.3496
vt 0.1344 0.3452
vt 0.1331 0.3472
vt 0.1343 0.3496
vt 0.1344 0.3267
vt 0.1368 0.3267
vt 0.1331 0.3291
vt 0.1381 0.3291
vt 0.1368 0.3311
vt 0.1344 0.3311
vt 0.0381 0.3765
vt 0.0558 0.3765
vt 0.0558 0.4326
vt 0.0381 0.4326
vt 0.0204 0.3765
vt 0.0204 0.4326
vt 0.0027 0.3765
vt 0.0027 0.4326
vt 0.1267 0.3765
vt 0.1444 0.3765
vt 0.1444 0.4326
vt 0.1267 0.4326
vt 0.1090 0.4326
vt 0.1090 0.3765
vt 0.0912 0.3765
vt 0.0912 0.4326
vt 0.0735 0.3765
vt 0.0735 0.4326
vt 0.0031 0.4570
vt 0.3513 0.4570
vt 0.3494 0.4590
vt 0.0052 0.4639
vt 0.0031 0.4658
vt 0.0052 0.4590
vt 0.3494 0.4639
vt 0.3513 0.4658
vt 0.0052 0.4590
vt 0.0052 0.4639
vt 0.0031 0.4658
vt 0.0031 0.4570
vt 0.3513 0.4570
vt 0.3494 0.4590
vt 0.3494 0.4639
vt 0.3513 0.4658
vt 0.4414 0.4883
vt 0.4363 0.4829
vt 0.4304 0.4941
vt 0.4624 0.0488
vt 0.4695 0.0488
vt 0.4695 0.0586
vt 0.4624 0.0586
vt 0.2534 0.2720
vt 0.2368 0.2720
vt 0.0334 0.0625
vt 0.4568 0.0625
vt 0.4675 0.0723
vt 0.4773 0.0723
vt 0.4773 0.4956
vt 0.4675 0.4956
vt 0.0334 0.0586
vt 0.0334 0.0488
vt 0.4568 0.0488
vt 0.4568 0.0586
vt 0.0023 0.4829
vt 0.0082 0.4941
vt 0.4304 0.4941
vt 0.4363 0.4829
vt 0.4414 0.4883
vt 0.0031 0.4570
vt 0.3513 0.4570
vt 0.3494 0.4590
vt 0.0052 0.4639
vt 0.0031 0.4658
vt 0.0052 0.4590
vt 0.3494 0.4639
vt 0.3513 0.4658
vt 0.4636 0.4956
vt 0.2546 0.2920
vt 0.2546 0.2759
vt 0.4636 0.0723
vt 0.4695 0.0488
vt 0.4695 0.0586
vt 0.4624 0.0586
vt 0.4624 0.0488
vt 0.0082 0.4941
vt 0.0023 0.4829
vt 0.4695 0.0488
vt 0.4695 0.0586
vt 0.4624 0.0586
vt 0.4624 0.0488
vt 0.3088 0.4194
vt 0.3040 0.4229
vt 0.3005 0.4136
vt 0.3064 0.4136
vt 0.3120 0.4136
vt 0.3088 0.4072
vt 0.3040 0.4038
vt 0.3142 0.4238
vt 0.3115 0.4297
vt 0.3157 0.4175
vt 0.3157 0.4092
vt 0.3142 0.4028
vt 0.3115 0.3975
vt 0.0010 0.5005
vt 0.4773 0.5005
vt 0.4773 0.9458
vt 0.0010 0.9458
vt 0.3372 0.4336
vt 0.3372 0.4395
vt 0.3394 0.4395
vt 0.3394 0.4336
vt 0.3508 0.4395
vt 0.3508 0.4336
vt 0.3430 0.4336
vt 0.3430 0.4395
vt 0.3333 0.4395
vt 0.3333 0.4336
vt 0.3254 0.4336
vt 0.3254 0.4395
vt 0.3374 0.4507
vt 0.3374 0.4429
vt 0.3352 0.4429
vt 0.3352 0.4507
vt 0.3259 0.4438
vt 0.3320 0.4438
vt 0.3320 0.4429
vt 0.3259 0.4429
vt 0.3230 0.4517
vt 0.3240 0.4517
vt 0.3240 0.4463
vt 0.3230 0.4463
vt 0.3320 0.4517
vt 0.3320 0.4463
vt 0.3259 0.4463
vt 0.3259 0.4517
vt 0.3320 0.4536
vt 0.3259 0.4536
vt 0.3259 0.4546
vt 0.3320 0.4546
vt 0.3389 0.3950
vt 0.3389 0.3940
vt 0.3374 0.3940
vt 0.3374 0.3950
vt 0.3418 0.4448
vt 0.3418 0.4482
vt 0.3459 0.4482
vt 0.3459 0.4448
vt 0.3372 0.4336
vt 0.3394 0.4336
vt 0.3394 0.4395
vt 0.3372 0.4395
vt 0.3508 0.4395
vt 0.3430 0.4395
vt 0.3430 0.4336
vt 0.3508 0.4336
vt 0.3333 0.4395
vt 0.3254 0.4395
vt 0.3254 0.4336
vt 0.3333 0.4336
vt 0.3374 0.4507
vt 0.3352 0.4507
vt 0.3352 0.4429
vt 0.3374 0.4429
vt 0.3259 0.4438
vt 0.3259 0.4429
vt 0.3320 0.4429
vt 0.3320 0.4438
vt 0.3230 0.4517
vt 0.3230 0.4463
vt 0.3240 0.4463
vt 0.3240 0.4517
vt 0.3320 0.4517
vt 0.3259 0.4517
vt 0.3259 0.4463
vt 0.3320 0.4463
vt 0.3320 0.4536
vt 0.3320 0.4546
vt 0.3259 0.4546
vt 0.3259 0.4536
vt 0.3369 0.4077
vt 0.3374 0.3950
vt 0.3389 0.3950
vt 0.3396 0.4077
vt 0.3401 0.4214
vt 0.3364 0.4214
vt 0.3359 0.4258
vt 0.3406 0.4258
vt 0.3367 0.4272
vt 0.3398 0.4272
vt 0.3384 0.4282
vt 0.3374 0.3940
vt 0.3389 0.3940
vt 0.3418 0.4448
vt 0.3459 0.4448
vt 0.3459 0.4482
vt 0.3418 0.4482
vt 0.0387 0.2427
vt 0.0374 0.2412
vt 0.0360 0.2427
vt 0.0390 0.2441
vt 0.0357 0.2441
vt 0.0828 0.3584
vt 0.0496 0.3262
vt 0.0679 0.3687
vt 0.0502 0.3726
vt 0.0324 0.3691
vt 0.0172 0.3594
vt 0.0067 0.3447
vt 0.0027 0.3267
vt 0.0063 0.3091
vt 0.0164 0.2939
vt 0.0313 0.2837
vt 0.0490 0.2798
vt 0.0668 0.2832
vt 0.0820 0.2930
vt 0.0925 0.3076
vt 0.0966 0.3257
vt 0.0929 0.3433
vt 0.0387 0.2427
vt 0.0374 0.2412
vt 0.0360 0.2427
vt 0.0390 0.2441
vt 0.0357 0.2441
vt 0.0387 0.2168
vt 0.0390 0.2153
vt 0.0357 0.2153
vt 0.0360 0.2168
vt 0.0374 0.2183
vt 0.0390 0.2441
vt 0.0357 0.2441
vt 0.0360 0.2427
vt 0.0387 0.2427
vt 0.0374 0.2412
vt 0.0387 0.2168
vt 0.0374 0.2183
vt 0.0360 0.2168
vt 0.0357 0.2153
vt 0.0390 0.2153
vt 0.0409 0.2207
vt 0.0409 0.2393
vt 0.0391 0.2393
vt 0.0391 0.2207
vt 0.0374 0.2207
vt 0.0374 0.2393
vt 0.0356 0.2207
vt 0.0356 0.2393
vt 0.0338 0.2393
vt 0.0338 0.2207
vt 0.0390 0.2441
vt 0.0357 0.2441
vt 0.0360 0.2427
vt 0.0387 0.2427
vt 0.0374 0.2412
vt 0.0387 0.2168
vt 0.0374 0.2183
vt 0.0360 0.2168
vt 0.0357 0.2153
vt 0.0390 0.2153
vt 0.0409 0.2207
vt 0.0409 0.2393
vt 0.0391 0.2393
vt 0.0391 0.2207
vt 0.0374 0.2207
vt 0.0374 0.2393
vt 0.0356 0.2207
vt 0.0356 0.2393
vt 0.0338 0.2393
vt 0.0338 0.2207
vt 0.1831 0.2910
vt 0.1378 0.2910
vt 0.1378 0.2603
vt 0.1831 0.2603
vt 0.1831 0.2539
vt 0.1378 0.2539
vt 0.1378 0.2305
vt 0.1831 0.2305
vt 0.1831 0.3203
vt 0.1378 0.3203
vt 0.1378 0.2969
vt 0.1831 0.2969
vt 0.1252 0.2852
vt 0.0799 0.2852
vt 0.0799 0.2603
vt 0.1252 0.2603
vt 0.0800 0.2300
vt 0.1254 0.2300
vt 0.1254 0.2554
vt 0.0800 0.2554
vt 0.1899 0.3208
vt 0.1881 0.3203
vt 0.1881 0.2969
vt 0.1899 0.2954
vt 0.1899 0.2554
vt 0.1881 0.2539
vt 0.1881 0.2305
vt 0.1899 0.2300
vt 0.1898 0.2910
vt 0.1881 0.2900
vt 0.1881 0.2612
vt 0.1898 0.2598
vt 0.1300 0.2300
vt 0.1318 0.2305
vt 0.1318 0.2539
vt 0.1300 0.2554
vt 0.1300 0.2954
vt 0.1318 0.2969
vt 0.1318 0.3203
vt 0.1300 0.3208
vt 0.1300 0.2598
vt 0.1317 0.2612
vt 0.1317 0.2900
vt 0.1300 0.2910
vt 0.1831 0.2910
vt 0.1831 0.2603
vt 0.1378 0.2603
vt 0.1378 0.2910
vt 0.1831 0.2539
vt 0.1831 0.2305
vt 0.1378 0.2305
vt 0.1378 0.2539
vt 0.1831 0.3203
vt 0.1831 0.2969
vt 0.1378 0.2969
vt 0.1378 0.3203
vt 0.1252 0.2852
vt 0.1252 0.2603
vt 0.0799 0.2603
vt 0.0799 0.2852
vt 0.0800 0.2300
vt 0.0800 0.2554
vt 0.1254 0.2554
vt 0.1254 0.2300
vt 0.1899 0.3208
vt 0.1899 0.2954
vt 0.1881 0.2969
vt 0.1881 0.3203
vt 0.1899 0.2554
vt 0.1899 0.2300
vt 0.1881 0.2305
vt 0.1881 0.2539
vt 0.1898 0.2910
vt 0.1898 0.2598
vt 0.1881 0.2612
vt 0.1881 0.2900
vt 0.1300 0.2300
vt 0.1300 0.2554
vt 0.1318 0.2539
vt 0.1318 0.2305
vt 0.1300 0.2954
vt 0.1300 0.3208
vt 0.1318 0.3203
vt 0.1318 0.2969
vt 0.1300 0.2598
vt 0.1300 0.2910
vt 0.1317 0.2900
vt 0.1317 0.2612
vt 0.1831 0.2910
vt 0.1831 0.2603
vt 0.1378 0.2603
vt 0.1378 0.2910
vt 0.1831 0.2539
vt 0.1831 0.2305
vt 0.1378 0.2305
vt 0.1378 0.2539
vt 0.1831 0.3203
vt 0.1831 0.2969
vt 0.1378 0.2969
vt 0.1378 0.3203
vt 0.1252 0.2852
vt 0.1252 0.2603
vt 0.0799 0.2603
vt 0.0799 0.2852
vt 0.0800 0.2300
vt 0.0800 0.2554
vt 0.1254 0.2554
vt 0.1254 0.2300
vt 0.1899 0.3208
vt 0.1899 0.2954
vt 0.1881 0.2969
vt 0.1881 0.3203
vt 0.1899 0.2554
vt 0.1899 0.2300
vt 0.1881 0.2305
vt 0.1881 0.2539
vt 0.1898 0.2910
vt 0.1898 0.2598
vt 0.1881 0.2612
vt 0.1881 0.2900
vt 0.1300 0.2300
vt 0.1300 0.2554
vt 0.1318 0.2539
vt 0.1318 0.2305
vt 0.1300 0.2954
vt 0.1300 0.3208
vt 0.1318 0.3203
vt 0.1318 0.2969
vt 0.1300 0.2598
vt 0.1300 0.2910
vt 0.1317 0.2900
vt 0.1317 0.2612
vt 0.1831 0.2910
vt 0.1378 0.2910
vt 0.1378 0.2603
vt 0.1831 0.2603
vt 0.1831 0.2539
vt 0.1378 0.2539
vt 0.1378 0.2305
vt 0.1831 0.2305
vt 0.1831 0.3203
vt 0.1378 0.3203
vt 0.1378 0.2969
vt 0.1831 0.2969
vt 0.1252 0.2852
vt 0.0799 0.2852
vt 0.0799 0.2603
vt 0.1252 0.2603
vt 0.0800 0.2300
vt 0.1254 0.2300
vt 0.1254 0.2554
vt 0.0800 0.2554
vt 0.1899 0.3208
vt 0.1881 0.3203
vt 0.1881 0.2969
vt 0.1899 0.2954
vt 0.1899 0.2554
vt 0.1881 0.2539
vt 0.1881 0.2305
vt 0.1899 0.2300
vt 0.1898 0.2910
vt 0.1881 0.2900
vt 0.1881 0.2612
vt 0.1898 0.2598
vt 0.1300 0.2300
vt 0.1318 0.2305
vt 0.1318 0.2539
vt 0.1300 0.2554
vt 0.1300 0.2954
vt 0.1318 0.2969
vt 0.1318 0.3203
vt 0.1300 0.3208
vt 0.1300 0.2598
vt 0.1317 0.2612
vt 0.1317 0.2900
vt 0.1300 0.2910
vt 0.1531 0.3853
vt 0.1531 0.3257
vt 0.2319 0.3257
vt 0.2319 0.3853
vt 0.1531 0.3853
vt 0.1531 0.4316
vt 0.2319 0.4316
vt 0.2319 0.3853
vt 0.2778 0.3257
vt 0.2778 0.3853
vt 0.2319 0.3853
vt 0.2778 0.3853
vt 0.2778 0.3257
vt 0.2319 0.3257
vt 0.2319 0.4316
vt 0.1531 0.4316
vt 0.5996 0.4941
vt 0.5996 0.0488
vt 0.6045 0.0488
vt 0.6045 0.4941
vt 0.6157 0.0488
vt 0.6157 0.4941
vt 0.6108 0.4941
vt 0.6108 0.0488
vt 0.7495 0.0488
vt 0.7495 0.4941
vt 0.7446 0.4941
vt 0.7446 0.0488
vt 0.7319 0.4941
vt 0.7319 0.0488
vt 0.7368 0.0488
vt 0.7368 0.4941
vt 0.8818 0.0488
vt 0.8818 0.4941
vt 0.8770 0.4941
vt 0.8770 0.0488
vt 0.8657 0.4941
vt 0.8657 0.0488
vt 0.8706 0.0488
vt 0.8706 0.4941
vt 0.6094 0.4941
vt 0.6064 0.4941
vt 0.6064 0.0488
vt 0.6094 0.0488
vt 0.7397 0.0488
vt 0.7427 0.0488
vt 0.7427 0.4941
vt 0.7393 0.4941
vt 0.8726 0.0488
vt 0.8755 0.0488
vt 0.8755 0.4941
vt 0.8726 0.4941
vt 0.4822 0.4941
vt 0.4822 0.0488
vt 0.5977 0.0488
vt 0.5977 0.4941
vt 0.8638 0.0488
vt 0.8638 0.4941
vt 0.7520 0.4941
vt 0.7520 0.0488
vt 0.9990 0.0488
vt 0.9990 0.4941
vt 0.8833 0.4941
vt 0.8833 0.0488
vt 0.7300 0.0488
vt 0.7300 0.4941
vt 0.6182 0.4941
vt 0.6182 0.0488
vt 0.0930 0.3623
vt 0.0917 0.3613
vt 0.0963 0.3550
vt 0.0977 0.3560
vt 0.1160 0.3696
vt 0.1160 0.3711
vt 0.0963 0.3711
vt 0.0963 0.3696
vt 0.0946 0.3711
vt 0.0946 0.3696
vt 0.0958 0.3638
vt 0.1005 0.3574
vt 0.1158 0.3574
vt 0.1204 0.3638
vt 0.1003 0.3540
vt 0.1003 0.3521
vt 0.1157 0.3521
vt 0.1157 0.3540
vt 0.1233 0.3618
vt 0.1187 0.3555
vt 0.1200 0.3545
vt 0.1246 0.3608
vt 0.1235 0.3696
vt 0.1432 0.3696
vt 0.1432 0.3711
vt 0.1235 0.3711
vt 0.1198 0.3696
vt 0.1198 0.3711
vt 0.1448 0.3696
vt 0.1448 0.3711
vt 0.0930 0.3623
vt 0.0917 0.3613
vt 0.0963 0.3550
vt 0.0977 0.3560
vt 0.1160 0.3696
vt 0.1160 0.3711
vt 0.0963 0.3711
vt 0.0963 0.3696
vt 0.0946 0.3711
vt 0.0946 0.3696
vt 0.0958 0.3638
vt 0.1005 0.3574
vt 0.1158 0.3574
vt 0.1204 0.3638
vt 0.1003 0.3540
vt 0.1003 0.3521
vt 0.1157 0.3521
vt 0.1157 0.3540
vt 0.1233 0.3618
vt 0.1187 0.3555
vt 0.1200 0.3545
vt 0.1246 0.3608
vt 0.1235 0.3696
vt 0.1432 0.3696
vt 0.1432 0.3711
vt 0.1235 0.3711
vt 0.1198 0.3696
vt 0.1198 0.3711
vt 0.1448 0.3696
vt 0.1448 0.3711
vt 0.1220 0.3052
vt 0.1174 0.3081
vt 0.1152 0.3042
vt 0.1198 0.3018
vt 0.1133 0.2979
vt 0.1133 0.3032
vt 0.1089 0.3032
vt 0.1089 0.2979
vt 0.1025 0.3018
vt 0.1072 0.3042
vt 0.1050 0.3081
vt 0.1004 0.3052
vt 0.1004 0.3125
vt 0.1050 0.3101
vt 0.1072 0.3140
vt 0.1025 0.3164
vt 0.1089 0.3198
vt 0.1089 0.3149
vt 0.1133 0.3149
vt 0.1133 0.3198
vt 0.1198 0.3164
vt 0.1152 0.3140
vt 0.1174 0.3101
vt 0.1220 0.3125
vt 0.1273 0.3423
vt 0.1273 0.3340
vt 0.1299 0.3340
vt 0.1299 0.3423
vt 0.1229 0.3423
vt 0.1229 0.3340
vt 0.1254 0.3340
vt 0.1254 0.3423
vt 0.1456 0.3423
vt 0.1456 0.3340
vt 0.1481 0.3340
vt 0.1481 0.3423
vt 0.1410 0.3423
vt 0.1410 0.3340
vt 0.1434 0.3340
vt 0.1434 0.3423
vt 0.1364 0.3423
vt 0.1364 0.3340
vt 0.1388 0.3340
vt 0.1388 0.3423
vt 0.1318 0.3423
vt 0.1318 0.3340
vt 0.1344 0.3340
vt 0.1344 0.3423
vt 0.7373 0.9458
vt 0.7324 0.9458
vt 0.7324 0.5000
vt 0.7373 0.5000
vt 0.7422 0.9458
vt 0.7393 0.9458
vt 0.7393 0.5000
vt 0.7422 0.5000
vt 0.7495 0.9458
vt 0.7446 0.9458
vt 0.7446 0.5000
vt 0.7495 0.5000
vt 0.4771 0.0723
vt 0.4771 0.4956
vt 0.4675 0.4956
vt 0.4675 0.0723
vt 0.2546 0.2920
vt 0.2546 0.2759
vt 0.4634 0.0723
vt 0.4634 0.4956
vt 0.4624 0.0488
vt 0.4695 0.0488
vt 0.4695 0.0586
vt 0.4624 0.0586
vt 0.2534 0.2720
vt 0.2368 0.2720
vt 0.0334 0.0625
vt 0.4568 0.0625
vt 0.0023 0.4829
vt 0.0082 0.4941
vt 0.0334 0.0586
vt 0.0334 0.0488
vt 0.4568 0.0488
vt 0.4568 0.0586
vt 0.0023 0.4829
vt 0.0082 0.4941
vt 0.4304 0.4941
vt 0.4363 0.4829
vt 0.4414 0.4883
vt 0.0356 0.2207
vt 0.0338 0.2207
vt 0.0338 0.2393
vt 0.0356 0.2393
vt 0.0374 0.2393
vt 0.0374 0.2207
vt 0.0391 0.2393
vt 0.0391 0.2207
vt 0.0409 0.2207
vt 0.0409 0.2393
vt 0.0387 0.2168
vt 0.0390 0.2153
vt 0.0357 0.2153
vt 0.0360 0.2168
vt 0.0374 0.2183
vt 0.7373 0.9458
vt 0.7324 0.9458
vt 0.7324 0.5000
vt 0.7373 0.5000
vt 0.7422 0.9458
vt 0.7393 0.9458
vt 0.7393 0.5000
vt 0.7422 0.5000
vt 0.7495 0.9458
vt 0.7446 0.9458
vt 0.7446 0.5000
vt 0.7495 0.5000
vt 0.6162 0.9458
vt 0.6113 0.9458
vt 0.6113 0.5291
vt 0.6162 0.5291
vt 0.6113 0.5000
vt 0.6162 0.5000
vt 0.8818 0.9458
vt 0.8770 0.9458
vt 0.8770 0.6331
vt 0.8818 0.6331
vt 0.8770 0.5776
vt 0.8818 0.5776
vt 0.8770 0.5000
vt 0.8818 0.5000
vt 0.8755 0.9458
vt 0.8726 0.9458
vt 0.8726 0.6331
vt 0.8755 0.6331
vt 0.8755 0.5776
vt 0.8726 0.5776
vt 0.8755 0.5000
vt 0.8726 0.5000
vt 0.1084 0.3276
vt 0.1120 0.3286
vt 0.1048 0.3286
vt 0.1207 0.3462
vt 0.0961 0.3462
vt 0.4822 0.5000
vt 0.5977 0.5000
vt 0.5977 0.5291
vt 0.4822 0.9458
vt 0.5977 0.9458
vt 0.1048 0.3286
vt 0.1084 0.3276
vt 0.1120 0.3286
vt 0.1207 0.3462
vt 0.0961 0.3462
vt 0.0961 0.3481
vt 0.1207 0.3481
vt 0.1084 0.3276
vt 0.1120 0.3286
vt 0.1048 0.3286
vt 0.1207 0.3462
vt 0.0961 0.3462
vt 0.8638 0.6331
vt 0.8638 0.9458
vt 0.7515 0.9458
vt 0.7515 0.5000
vt 0.8638 0.5776
vt 0.8638 0.5000
vt 0.1048 0.3286
vt 0.1084 0.3276
vt 0.1120 0.3286
vt 0.1207 0.3462
vt 0.0961 0.3462
vt 0.0961 0.3481
vt 0.1207 0.3481
vt 0.5996 0.5291
vt 0.5996 0.5000
vt 0.6045 0.5000
vt 0.6045 0.5291
vt 0.6045 0.9458
vt 0.5996 0.9458
vt 0.9990 0.9458
vt 0.8833 0.9458
vt 0.8833 0.6331
vt 0.9990 0.5000
vt 0.8833 0.5776
vt 0.8833 0.5000
vt 0.7300 0.5000
vt 0.7300 0.9458
vt 0.6182 0.9458
vt 0.6182 0.5291
vt 0.6182 0.5000
vt 0.6162 0.9458
vt 0.6113 0.9458
vt 0.6113 0.5291
vt 0.6162 0.5291
vt 0.6113 0.5000
vt 0.6162 0.5000
vt 0.8818 0.9458
vt 0.8770 0.9458
vt 0.8770 0.6331
vt 0.8818 0.6331
vt 0.8770 0.5776
vt 0.8818 0.5776
vt 0.8770 0.5000
vt 0.8818 0.5000
vt 0.8755 0.9458
vt 0.8726 0.9458
vt 0.8726 0.6331
vt 0.8755 0.6331
vt 0.8755 0.5776
vt 0.8726 0.5776
vt 0.8755 0.5000
vt 0.8726 0.5000
vt 0.8657 0.5776
vt 0.8657 0.5000
vt 0.8706 0.5000
vt 0.8706 0.5776
vt 0.8657 0.6331
vt 0.8706 0.6331
vt 0.8657 0.9458
vt 0.8706 0.9458
vt 0.6064 0.5291
vt 0.6064 0.5000
vt 0.6094 0.5000
vt 0.6094 0.5291
vt 0.6064 0.9458
vt 0.6094 0.9458
vt 0.5996 0.5291
vt 0.5996 0.5000
vt 0.6045 0.5000
vt 0.6045 0.5291
vt 0.6045 0.9458
vt 0.5996 0.9458
vt 0.4822 0.5000
vt 0.5977 0.5000
vt 0.5977 0.5291
vt 0.4822 0.9458
vt 0.5977 0.9458
vt 0.8657 0.5776
vt 0.8657 0.5000
vt 0.8706 0.5000
vt 0.8706 0.5776
vt 0.8657 0.6331
vt 0.8706 0.6331
vt 0.8657 0.9458
vt 0.8706 0.9458
vt 0.6064 0.5291
vt 0.6064 0.5000
vt 0.6094 0.5000
vt 0.6094 0.5291
vt 0.6064 0.9458
vt 0.6094 0.9458
vt 0.1315 0.3540
vt 0.1356 0.3579
vt 0.1296 0.3579
vt 0.1315 0.3623
vt 0.1356 0.3643
vt 0.1396 0.3623
vt 0.1416 0.3579
vt 0.1396 0.3540
vt 0.1356 0.3521
vt 0.3494 0.4639
vt 0.3513 0.4658
vt 0.0031 0.4658
vt 0.0052 0.4639
vt 0.3494 0.4590
vt 0.0052 0.4590
vt 0.3513 0.4570
vt 0.0031 0.4570
vt 0.2947 0.4233
vt 0.2947 0.4331
vt 0.2585 0.4331
vt 0.2585 0.4233
vt 0.2947 0.4136
vt 0.2585 0.4136
vt 0.2585 0.4038
vt 0.2947 0.4038
vt 0.2585 0.3940
vt 0.2947 0.3940
vt 0.8638 0.6331
vt 0.8638 0.9458
vt 0.7515 0.9458
vt 0.7515 0.5000
vt 0.8638 0.5776
vt 0.8638 0.5000
vt 0.3398 0.4272
vt 0.3367 0.4272
vt 0.3384 0.4282
vt 0.3406 0.4258
vt 0.3359 0.4258
vt 0.3401 0.4214
vt 0.3364 0.4214
vt 0.3369 0.4077
vt 0.3396 0.4077
vt 0.9990 0.9458
vt 0.8833 0.9458
vt 0.8833 0.6331
vt 0.9990 0.5000
vt 0.8833 0.5776
vt 0.8833 0.5000
vt 0.7300 0.5000
vt 0.7300 0.9458
vt 0.6182 0.9458
vt 0.6182 0.5291
vt 0.6182 0.5000
vt 0.2720 0.4482
vt 0.2720 0.4507
vt 0.2627 0.4507
vt 0.2627 0.4482
vt 0.2534 0.4507
vt 0.2534 0.4482
vt 0.2465 0.4507
vt 0.2465 0.4482
vt 0.2379 0.4507
vt 0.2379 0.4482
vt 0.2849 0.4482
vt 0.2849 0.4507
vt 0.2849 0.4463
vt 0.2720 0.4463
vt 0.2627 0.4463
vt 0.2534 0.4463
vt 0.2465 0.4463
vt 0.2379 0.4463
vt 0.2627 0.4443
vt 0.2534 0.4443
vt 0.2465 0.4443
vt 0.2379 0.4443
vt 0.2465 0.4419
vt 0.2379 0.4419
vt 0.3020 0.4419
vt 0.3020 0.4443
vt 0.2849 0.4443
vt 0.2849 0.4419
vt 0.2720 0.4443
vt 0.2720 0.4419
vt 0.2627 0.4419
vt 0.2534 0.4419
vt 0.3020 0.4482
vt 0.3020 0.4507
vt 0.3020 0.4463
vt 0.3323 0.4072
vt 0.3293 0.3950
vt 0.3284 0.3950
vt 0.3296 0.4072
vt 0.3286 0.4194
vt 0.3330 0.4214
vt 0.3245 0.4194
vt 0.3330 0.4258
vt 0.3245 0.4258
vt 0.3328 0.4277
vt 0.3245 0.4277
vt 0.3325 0.4287
vt 0.3245 0.4287
vt 0.3442 0.4072
vt 0.3472 0.3950
vt 0.3481 0.3950
vt 0.3469 0.4072
vt 0.3435 0.4214
vt 0.3479 0.4194
vt 0.3521 0.4194
vt 0.3435 0.4258
vt 0.3521 0.4258
vt 0.3521 0.4277
vt 0.3438 0.4277
vt 0.3521 0.4287
vt 0.3440 0.4287
vt 0.3481 0.3950
vt 0.3472 0.3950
vt 0.3442 0.4072
vt 0.3469 0.4072
vt 0.3435 0.4214
vt 0.3479 0.4194
vt 0.3521 0.4194
vt 0.3435 0.4258
vt 0.3521 0.4258
vt 0.3521 0.4277
vt 0.3438 0.4277
vt 0.3521 0.4287
vt 0.3440 0.4287
vt 0.0324 0.3691
vt 0.0172 0.3594
vt 0.0496 0.3262
vt 0.0067 0.3447
vt 0.0027 0.3267
vt 0.0063 0.3091
vt 0.0164 0.2939
vt 0.0313 0.2837
vt 0.0490 0.2798
vt 0.0668 0.2832
vt 0.0820 0.2930
vt 0.0925 0.3076
vt 0.0966 0.3257
vt 0.0929 0.3433
vt 0.0828 0.3584
vt 0.0679 0.3687
vt 0.0502 0.3726
vt 0.0391 0.2393
vt 0.0409 0.2393
vt 0.0409 0.2207
vt 0.0391 0.2207
vt 0.0374 0.2207
vt 0.0374 0.2393
vt 0.0356 0.2207
vt 0.0356 0.2393
vt 0.0338 0.2393
vt 0.0338 0.2207
vt 0.3325 0.4287
vt 0.3245 0.4287
vt 0.3245 0.4277
vt 0.3328 0.4277
vt 0.3245 0.4258
vt 0.3330 0.4258
vt 0.3245 0.4194
vt 0.3330 0.4214
vt 0.3286 0.4194
vt 0.3323 0.4072
vt 0.3296 0.4072
vt 0.3284 0.3950
vt 0.3293 0.3950
vn 0.0000 -1.0000 0.0000
vn 0.0000 1.0000 0.0000
vn -0.4230 0.6416 0.6399
vn -0.3097 0.8586 0.4085
vn -0.7020 0.6434 0.3055
vn -0.3347 0.0000 0.9423
vn -0.7122 0.5180 0.4738
vn -0.9476 0.2887 0.1367
vn -0.7020 -0.6434 0.3055
vn -0.3097 -0.8586 0.4085
vn -0.3232 -0.6697 0.6686
vn -0.7364 -0.4797 0.4770
vn -0.7015 -0.0617 0.7100
vn -0.9524 0.0000 0.3049
vn -0.8486 0.2327 0.4752
vn -0.8969 0.3127 0.3127
vn -0.9313 -0.2994 0.2073
vn -1.0000 -0.0000 0.0024
vn 0.0024 0.0000 1.0000
vn 0.0023 0.0000 1.0000
vn -1.0000 -0.0000 0.0023
vn -0.0023 -0.0000 -1.0000
vn 1.0000 -0.0000 -0.0024
vn -0.0024 0.0000 -1.0000
vn 1.0000 -0.0000 -0.0023
vn -0.9507 -0.0000 0.3100
vn -0.5869 0.0000 0.8097
vn -0.5869 -0.0001 0.8097
vn -0.9522 -0.0000 -0.3056
vn -0.0011 -0.0000 -1.0000
vn -0.5887 0.0000 -0.8084
vn 0.9507 -0.0000 -0.3100
vn -0.0011 -0.0001 -1.0000
vn 0.9507 0.0001 -0.3100
vn 0.5887 -0.0000 0.8084
vn 0.5887 0.0000 0.8083
vn 0.5887 -0.0001 0.8083
vn 0.0000 0.0000 -1.0000
vn -0.9237 -0.0000 -0.3830
vn -1.0000 -0.0000 -0.0004
vn -0.9240 0.0000 0.3823
vn -0.3823 -0.0000 -0.9240
vn 0.3830 -0.0000 -0.9237
vn 0.9240 -0.0000 -0.3823
vn 0.9237 0.0000 0.3830
vn 0.7068 -0.0000 0.7074
vn 0.4232 -0.0000 0.9060
vn -0.3830 -0.0000 0.9237
vn -0.0004 -0.0000 1.0000
vn -0.7074 -0.0000 0.7068
vn -0.4896 0.8634 -0.1218
vn -0.5687 0.7176 0.4021
vn -0.4102 0.8892 0.2027
vn -0.0488 0.9130 -0.4051
vn -0.1218 0.8636 -0.4892
vn -0.4896 0.8634 -0.1216
vn -0.4896 0.8634 -0.1217
vn -0.4052 0.9129 -0.0487
vn 0.2029 0.8884 -0.4118
vn 0.4011 0.7170 -0.5701
vn 0.4012 0.7169 -0.5702
vn -0.1218 0.8636 -0.4893
vn 0.0488 0.9130 -0.4051
vn 0.4052 0.9129 -0.0487
vn 0.4896 0.8634 -0.1217
vn 0.4896 0.8634 -0.1216
vn 0.1218 0.8636 -0.4892
vn -0.4012 0.7169 -0.5702
vn -0.4013 0.7168 -0.5702
vn -0.2029 0.8884 -0.4118
vn 0.4102 0.8892 0.2027
vn 0.5687 0.7176 0.4021
vn 0.7071 0.0000 -0.7071
vn 0.2269 0.9739 0.0000
vn 1.0000 0.0000 0.0000
vn 0.4896 0.8634 0.1217
vn 0.5687 0.7176 -0.4021
vn 0.4102 0.8892 -0.2027
vn 0.0488 0.9130 0.4051
vn 0.1218 0.8636 0.4893
vn 0.4052 0.9129 0.0487
vn -0.2029 0.8884 0.4118
vn -0.4011 0.7170 0.5701
vn -0.4012 0.7169 0.5702
vn 0.0000 0.9738 -0.2273
vn -0.7071 0.0000 -0.7071
vn 0.7071 0.0000 0.7071
vn 0.7364 0.4797 0.4770
vn 0.3232 0.6697 0.6686
vn 0.3347 0.0000 0.9423
vn 0.7424 0.0000 0.6699
vn 0.9524 0.0000 0.3049
vn 0.7364 -0.4797 0.4770
vn 0.3232 -0.6697 0.6686
vn 0.7020 0.6434 0.3055
vn 0.3097 0.8586 0.4085
vn 0.9313 0.2994 0.2073
vn 0.9313 -0.2994 0.2073
vn 0.7020 -0.6434 0.3055
vn 0.3097 -0.8586 0.4085
vn 0.0000 -0.0000 1.0000
vn -1.0000 0.0000 0.0000
vn -0.0000 -0.1372 0.9905
vn 0.0000 -0.2381 0.9712
vn -0.0000 -0.0351 0.9994
vn 0.0000 0.0615 0.9981
vn 0.0000 0.1720 0.9851
vn 0.0000 0.1719 0.9851
vn 0.4278 -0.8864 -0.1770
vn 0.3275 -0.8864 -0.3273
vn 0.1773 -0.8864 -0.4277
vn 0.0002 -0.8864 -0.4630
vn -0.1770 -0.8864 -0.4278
vn -0.3273 -0.8864 -0.3275
vn -0.4277 -0.8864 -0.1773
vn -0.4630 -0.8864 -0.0002
vn -0.4278 -0.8864 0.1770
vn -0.3275 -0.8864 0.3273
vn -0.1773 -0.8864 0.4277
vn -0.0002 -0.8864 0.4630
vn 0.1770 -0.8864 0.4278
vn 0.3273 -0.8864 0.3275
vn 0.4277 -0.8864 0.1773
vn 0.4630 -0.8864 0.0002
vn 0.9910 0.0000 0.1341
vn 0.8636 0.0000 0.5042
vn 0.8636 -0.0002 0.5042
vn -0.8636 -0.0000 0.5042
vn -0.9910 0.0000 0.1340
vn 0.0000 0.3269 0.9451
vn 0.0000 0.3269 -0.9451
vn 0.0000 -0.3416 0.9398
vn 0.0000 -0.3416 -0.9398
vn 0.9053 0.0000 -0.4249
vn 0.9053 0.0000 -0.4248
vn -0.9053 0.0000 -0.4249
vn -0.9053 0.0000 -0.4248
vn 0.8053 -0.5928 0.0000
vn 0.8969 0.0000 -0.4422
vn -0.8053 -0.5928 0.0000
vn -0.8969 0.0000 -0.4422
vn -0.2860 0.0000 -0.9582
vn 0.2860 0.0000 -0.9582
vn 0.8660 0.5000 0.0000
vn -0.8660 0.5000 0.0000
vn -0.8660 0.5000 0.0001
vn -0.8660 -0.5000 0.0001
vn -0.8661 -0.4999 0.0000
vn 0.8660 -0.5000 -0.0000
vn 0.8660 0.0000 0.5000
vn -0.8661 -0.0000 0.4999
vn -0.8660 0.0000 0.5000
vn -0.8661 0.0000 -0.4999
vn -0.8660 -0.0000 -0.5000
vn 0.8660 0.0000 -0.5000
vn 0.4248 -0.0000 0.9053
vn 0.4248 0.0000 -0.9053
vn 0.0000 0.9738 0.2273
vn -0.7071 0.0000 0.7071
vn -0.2269 0.9739 0.0000
vn 0.8636 0.0001 0.5042
vn -0.4248 0.0000 -0.9053
vn -0.4248 -0.0000 0.9053
vn 0.4248 -0.0039 -0.9053
vn 0.4220 0.0237 -0.9063
vn 0.4220 0.0264 -0.9062
vn 0.4247 -0.0039 -0.9053
vn 0.4218 0.0237 -0.9064
vn 0.4235 0.0555 -0.9042
vn 0.4236 0.0555 -0.9041
vn 0.4242 0.0558 -0.9039
vn 0.4248 -0.0114 -0.9052
vn 0.4250 0.0176 -0.9050
vn 0.4247 0.0176 -0.9052
vn 0.4248 0.0163 -0.9052
vn 0.4246 0.0288 -0.9049
vn 0.4246 0.0301 -0.9049
vn 0.4248 0.0136 -0.9052
vn 0.9996 -0.0267 0.0000
vn 0.9992 0.0399 -0.0006
vn 0.9992 0.0399 -0.0000
vn 0.9992 0.0398 -0.0000
vn 0.9976 0.0691 0.0000
vn 0.9992 0.0399 0.0001
vn 0.9995 0.0320 0.0000
vn 0.9994 0.0206 -0.0279
vn 0.9912 0.1327 0.0000
vn 0.9983 0.0554 -0.0162
vn 1.0000 -0.0076 -0.0057
vn 1.0000 -0.0091 0.0000
vn 0.9991 0.0208 -0.0383
vn 0.9996 -0.0209 -0.0163
vn 0.9992 0.0303 -0.0246
vn 0.9990 0.0208 -0.0383
vn 0.9959 0.0834 0.0357
vn 0.4205 0.0276 0.9069
vn 0.4242 0.0568 0.9038
vn 0.4231 0.0564 0.9043
vn 0.4209 0.0226 0.9068
vn 0.4248 -0.0039 0.9053
vn 0.9997 -0.0207 0.0163
vn 0.9991 0.0213 0.0363
vn 0.9993 0.0299 0.0246
vn 0.9960 0.0830 -0.0343
vn 0.9996 0.0150 0.0248
vn 1.0000 -0.0014 0.0057
vn 0.9986 0.0494 0.0212
vn 0.9915 0.1303 0.0000
vn -0.4249 -0.0039 0.9053
vn -0.4220 0.0237 0.9063
vn -0.4220 0.0264 0.9062
vn -0.4247 -0.0039 0.9053
vn -0.4218 0.0237 0.9064
vn -0.4235 0.0555 0.9042
vn -0.4236 0.0555 0.9041
vn -0.4242 0.0558 0.9039
vn -0.4248 -0.0114 0.9052
vn -0.4249 0.0448 0.9041
vn -0.4248 0.0163 0.9052
vn -0.4243 0.0448 0.9044
vn -0.4246 0.0288 0.9049
vn -0.4246 0.0301 0.9049
vn -0.4248 0.0136 0.9052
vn -0.9996 -0.0267 0.0000
vn -0.9992 0.0399 0.0006
vn -0.9992 0.0399 0.0000
vn -0.9992 0.0398 0.0000
vn -0.9976 0.0691 -0.0000
vn -0.9992 0.0399 -0.0001
vn -0.9995 0.0319 -0.0000
vn 0.4246 0.0300 0.9049
vn 0.4248 0.0136 0.9052
vn 0.4246 0.0288 0.9049
vn 0.4248 0.0164 0.9052
vn 0.4247 0.0176 0.9052
vn 0.4248 0.0164 0.9051
vn 0.4249 -0.0114 0.9052
vn 0.4250 0.0176 0.9050
vn 0.4248 -0.0114 0.9052
vn 0.9980 0.0626 0.0043
vn 0.9917 0.1286 0.0000
vn 0.9917 0.1285 0.0003
vn 0.9917 0.1285 0.0006
vn 0.9984 0.0562 0.0041
vn 1.0000 -0.0092 -0.0000
vn -0.4205 0.0276 -0.9069
vn -0.4242 0.0568 -0.9038
vn -0.4231 0.0564 -0.9043
vn -0.4209 0.0226 -0.9068
vn -0.4247 -0.0039 -0.9053
vn -0.4249 -0.0039 -0.9053
vn -0.9994 0.0206 0.0279
vn -0.9912 0.1327 -0.0000
vn -0.9983 0.0554 0.0162
vn -1.0000 -0.0076 0.0057
vn -1.0000 -0.0091 -0.0000
vn -0.4246 0.0300 -0.9049
vn -0.4248 0.0136 -0.9052
vn -0.4246 0.0288 -0.9049
vn -0.4248 0.0164 -0.9052
vn -0.4247 0.0176 -0.9052
vn -0.4248 -0.0114 -0.9052
vn -0.4248 0.0164 -0.9051
vn -0.4250 0.0176 -0.9050
vn -0.9980 0.0626 -0.0043
vn -0.9917 0.1286 0.0000
vn -0.9917 0.1285 -0.0003
vn -0.9917 0.1285 -0.0006
vn -0.9984 0.0562 -0.0041
vn -1.0000 -0.0092 0.0000
vn 0.2772 -0.2772 -0.9200
vn 0.3806 -0.0000 -0.9247
vn 0.2772 0.2772 -0.9200
vn -0.0000 0.3806 -0.9247
vn -0.2772 0.2772 -0.9200
vn -0.3806 0.0000 -0.9247
vn -0.2772 -0.2772 -0.9200
vn 0.0000 -0.3806 -0.9247
vn -0.4102 0.8892 -0.2027
vn -0.5687 0.7176 -0.4021
vn -0.4896 0.8634 0.1217
vn -0.4052 0.9129 0.0487
vn 0.2029 0.8884 0.4118
vn -0.0488 0.9130 0.4051
vn 0.4013 0.7168 0.5702
vn -0.1218 0.8636 0.4893
vn 0.4012 0.7169 0.5702
vn -0.9991 0.0208 0.0383
vn -0.9996 -0.0209 0.0163
vn -0.9992 0.0303 0.0246
vn -0.9990 0.0208 0.0383
vn -0.9959 0.0834 -0.0357
vn -0.9995 0.0320 0.0000
vn -0.9997 -0.0207 -0.0163
vn -0.9991 0.0213 -0.0363
vn -0.9993 0.0299 -0.0246
vn -0.9992 0.0299 -0.0246
vn -0.9960 0.0830 0.0343
vn -0.9996 0.0150 -0.0248
vn -1.0000 -0.0014 -0.0057
vn -0.9986 0.0494 -0.0212
vn -0.9915 0.1303 0.0000
vn 0.8977 -0.0221 0.4400
vn -0.4847 -0.4072 0.7741
vn -0.5151 0.1489 0.8441
vn 0.9248 -0.0457 0.3777
vn -0.5151 0.1490 0.8441
vn -0.2318 0.7936 0.5626
vn 0.9614 -0.1257 0.2446
vn 0.9248 -0.0458 0.3777
vn -0.0349 0.9895 0.1404
vn 0.9962 -0.0296 0.0819
vn 0.9614 -0.1257 0.2447
vn -0.0190 0.9996 0.0205
vn 0.9998 0.0190 -0.0109
vn 0.9962 -0.0296 0.0820
vn 0.8023 -0.0134 0.5968
vn -0.4621 -0.3606 0.8102
vn 0.8977 -0.0221 0.4401
vn 0.5184 0.2997 -0.8009
vn 0.8977 -0.0222 0.4400
vn 0.4718 0.3900 -0.7908
vn 0.5184 0.2998 -0.8009
vn 0.4718 0.3900 -0.7907
vn 0.5165 -0.2119 -0.8296
vn 0.4718 0.3901 -0.7907
vn 0.1555 -0.8243 -0.5444
vn -0.0137 -0.9922 -0.1241
vn 0.0300 -0.9993 -0.0212
vn -0.7351 0.0265 -0.6775
vn 0.5165 -0.2119 -0.8297
vn -0.8810 -0.1166 -0.4586
vn -0.9924 -0.0678 -0.1027
vn -0.8809 -0.1166 -0.4586
vn -0.9997 -0.0205 0.0099
vn -0.0349 0.9895 0.1405
vn -0.4915 -0.0780 0.8674
vn -0.8768 -0.1149 -0.4668
vn -0.9241 -0.0289 -0.3810
vn -0.8120 0.0981 -0.5753
vn -0.8120 0.0982 -0.5753
vn -0.9924 -0.0678 -0.1028
vn 0.8406 0.0929 0.5337
vn -0.4914 -0.0780 0.8674
vn 0.8405 0.0929 0.5337
vn 0.4690 0.0561 -0.8814
vn -0.8769 -0.1150 -0.4668
vn 0.4719 0.3900 -0.7907
vn 0.5166 -0.2119 -0.8296
vn 0.9992 -0.0387 -0.0014
vn 0.9986 -0.0531 0.0000
vn 0.9992 -0.0397 -0.0000
vn 0.9990 -0.0455 -0.0044
vn 0.9951 -0.0982 0.0072
vn 0.9932 -0.1167 0.0053
vn 0.9930 0.1181 0.0062
vn 0.9905 0.1375 0.0000
vn 0.7260 0.6877 0.0000
vn 0.7058 0.7084 0.0000
vn 0.9992 -0.0405 -0.0000
vn 0.9991 -0.0414 -0.0012
vn 0.9952 -0.0975 0.0075
vn 0.9990 -0.0446 -0.0054
vn -0.9986 -0.0531 0.0000
vn -0.9992 -0.0405 -0.0000
vn -0.9991 -0.0414 -0.0012
vn -0.9952 -0.0975 0.0075
vn -0.9990 -0.0446 -0.0054
vn -0.9932 -0.1167 0.0053
vn -0.9930 0.1181 0.0062
vn -0.9905 0.1375 0.0000
vn -0.7058 0.7084 -0.0000
vn -0.7260 0.6877 0.0000
vn -0.0002 0.8869 0.4620
vn 0.1766 0.8869 0.4269
vn 0.3265 0.8869 0.3268
vn 0.4267 0.8869 0.1770
vn 0.4620 0.8869 0.0002
vn 0.4269 0.8869 -0.1766
vn 0.3268 0.8869 -0.3265
vn 0.1770 0.8869 -0.4267
vn 0.0002 0.8869 -0.4620
vn -0.1766 0.8869 -0.4269
vn -0.3265 0.8869 -0.3268
vn -0.4267 0.8869 -0.1770
vn -0.4620 0.8869 -0.0002
vn -0.4269 0.8869 0.1766
vn -0.3268 0.8869 0.3265
vn -0.1770 0.8869 0.4267
vn -0.0000 -0.0002 1.0000
vn -0.0000 1.0000 0.0001
vn -0.9951 -0.0982 0.0072
vn -0.9990 -0.0455 -0.0044
vn -0.9992 -0.0387 -0.0014
vn -0.9992 -0.0397 -0.0000
usemtl Material__70
s 1
f 1/1/1 2/2/1 3/3/1
f 4/4/2 5/5/2 6/6/2
f 6/6/2 7/7/2 4/4/2
f 8/8/2 9/9/2 10/10/2
f 11/11/2 8/8/2 10/10/2
f 12/12/2 11/11/2 10/10/2
f 13/13/3 14/14/4 15/15/5
f 16/16/6 13/13/3 17/17/7
f 15/15/5 17/17/7 13/13/3
f 17/17/7 15/15/5 18/18/8
f 19/19/9 20/20/10 21/21/11
f 21/21/11 22/22/12 19/19/9
f 22/22/12 21/21/11 16/16/6
f 16/16/6 23/23/13 22/22/12
f 17/17/7 23/23/13 16/16/6
f 24/24/14 23/23/15 17/17/15
f 18/18/16 24/24/14 17/17/7
f 24/24/14 18/18/8 25/25/17
f 19/19/9 22/22/12 25/25/17
f 25/25/17 22/22/12 24/24/14
f 22/22/12 23/23/13 24/24/14
f 26/26/18 27/27/19 6/28/19
f 6/28/20 5/29/21 26/26/21
f 28/30/22 26/26/21 5/29/21
f 5/29/21 4/31/22 28/30/22
f 29/32/23 28/30/24 4/31/24
f 4/31/22 7/33/25 29/32/25
f 27/34/20 29/32/25 7/33/25
f 7/33/25 6/35/20 27/34/20
f 30/36/26 31/37/27 9/38/28
f 9/38/27 8/39/29 30/36/26
f 32/40/30 30/36/31 8/39/31
f 8/39/29 11/41/30 32/40/30
f 33/42/32 32/40/30 11/41/33
f 11/41/30 12/43/32 33/42/34
f 34/44/35 33/42/32 12/43/32
f 12/43/32 10/45/35 34/44/35
f 31/46/27 34/44/36 10/45/37
f 10/45/35 9/47/27 31/46/27
f 35/48/38 36/49/38 37/50/38
f 36/49/38 38/51/38 39/52/38
f 36/49/38 39/52/38 37/50/38
f 39/52/38 40/53/38 37/50/38
f 41/54/2 42/55/2 43/56/2
f 44/57/2 41/54/2 45/58/2
f 41/54/2 43/56/2 45/58/2
f 43/56/2 46/59/2 45/58/2
f 47/60/1 48/61/1 49/62/1
f 48/61/1 50/63/1 51/64/1
f 48/61/1 51/64/1 49/62/1
f 51/64/1 52/65/1 49/62/1
f 53/66/39 54/67/40 55/68/41
f 55/68/41 56/69/39 53/66/39
f 57/70/42 53/66/39 56/69/39
f 56/69/39 58/71/42 57/70/42
f 59/72/43 57/70/42 58/71/42
f 58/71/42 60/73/43 59/72/43
f 61/74/44 59/75/43 60/76/43
f 60/76/43 62/77/44 61/74/44
f 61/74/44 62/77/44 63/78/45
f 63/78/45 64/79/45 61/74/44
f 65/80/46 64/79/45 63/78/45
f 63/78/45 66/81/47 65/80/46
f 67/82/48 65/80/49 66/81/49
f 66/81/47 68/83/48 67/82/48
f 54/67/50 67/82/48 68/83/48
f 68/83/48 55/68/41 54/67/50
f 69/84/51 70/85/52 71/86/53
f 72/87/54 73/88/55 69/84/56
f 69/84/57 74/89/58 72/87/54
f 71/86/53 74/89/58 69/84/57
f 74/89/58 71/86/53 75/90/59
f 75/90/59 72/87/54 74/89/58
f 72/87/54 75/90/59 76/91/60
f 76/91/61 73/88/62 72/87/54
f 77/92/63 78/93/64 79/94/65
f 79/94/66 80/95/67 77/92/63
f 77/92/63 80/95/67 81/96/68
f 81/96/69 82/97/70 77/92/63
f 78/93/64 77/92/63 82/97/70
f 82/97/70 83/98/71 78/93/64
f 79/94/65 78/93/64 83/98/71
f 83/98/71 84/99/72 79/94/65
f 85/100/1 86/101/1 87/102/1
f 80/103/73 79/104/73 88/105/73
f 88/105/73 89/106/73 80/103/73
f 84/107/74 90/108/74 91/109/74
f 91/109/74 79/110/74 84/107/74
f 80/111/38 89/112/38 86/113/38
f 86/113/38 73/114/38 80/111/38
f 91/115/75 1/116/75 88/117/75
f 88/117/75 79/118/75 91/115/75
f 1/119/1 3/120/1 92/121/1
f 92/121/1 88/122/1 1/119/1
f 92/121/1 89/123/1 88/122/1
f 91/124/76 90/125/77 93/126/78
f 94/127/79 95/128/80 91/124/76
f 91/124/76 96/129/81 94/127/79
f 93/126/78 96/129/81 91/124/76
f 96/129/81 93/126/78 97/130/82
f 97/130/82 94/127/79 96/129/81
f 94/127/79 97/130/82 98/131/83
f 98/131/84 95/128/80 94/127/79
f 73/132/85 76/133/85 81/134/85
f 81/134/85 80/135/85 73/132/85
f 73/136/86 86/137/86 85/138/86
f 85/138/86 69/139/86 73/136/86
f 92/140/1 87/102/1 86/101/1
f 86/101/1 89/141/1 92/140/1
f 95/142/87 2/143/87 1/144/87
f 1/144/87 91/145/87 95/142/87
f 99/146/88 100/147/89 101/148/90
f 101/148/90 102/149/91 99/146/88
f 99/146/88 102/149/91 103/150/92
f 103/150/92 102/149/91 104/151/93
f 104/151/93 102/149/91 101/148/90
f 101/148/90 105/152/94 104/151/93
f 106/153/95 107/154/96 100/147/89
f 100/147/89 99/146/88 106/153/95
f 99/146/88 108/155/97 106/153/95
f 108/155/97 99/146/88 103/150/92
f 103/150/92 109/156/98 108/155/97
f 109/156/98 103/150/92 104/151/93
f 110/157/99 109/156/98 104/151/93
f 110/157/99 104/151/93 105/152/94
f 105/152/94 111/158/100 110/157/99
f 112/159/101 113/160/101 114/161/101
f 114/161/101 115/162/101 112/159/101
f 116/163/101 117/164/101 118/165/101
f 118/165/101 119/166/101 116/163/101
f 120/167/102 121/168/102 119/169/102
f 119/169/102 118/170/102 120/167/102
f 117/171/75 116/172/75 122/173/75
f 122/173/75 123/174/75 117/171/75
f 120/175/2 118/176/2 117/177/2
f 117/177/2 123/178/2 120/175/2
f 124/179/1 125/180/1 126/181/1
f 126/181/1 127/182/1 124/179/1
f 128/183/75 129/184/75 124/185/75
f 124/185/75 127/186/75 128/183/75
f 130/187/101 125/188/101 124/189/101
f 124/189/101 129/190/101 130/187/101
f 130/191/2 129/192/2 128/193/2
f 128/193/2 131/194/2 130/191/2
f 132/195/1 133/196/1 134/197/1
f 134/197/1 135/198/1 132/195/1
f 136/199/1 137/200/1 138/201/1
f 138/201/1 139/202/1 136/199/1
f 140/203/101 141/204/101 142/205/101
f 142/205/101 143/206/101 140/203/101
f 144/207/75 142/208/75 141/209/75
f 141/209/75 145/210/75 144/207/75
f 143/211/102 146/212/102 147/213/102
f 147/213/102 140/214/102 143/211/102
f 144/215/2 146/216/2 143/217/2
f 143/217/2 142/218/2 144/215/2
f 148/219/1 149/220/1 150/221/1
f 150/221/1 151/222/1 148/219/1
f 152/223/102 149/224/102 148/225/102
f 148/225/102 153/226/102 152/223/102
f 154/227/101 153/228/101 148/229/101
f 148/229/101 151/230/101 154/227/101
f 154/231/2 155/232/2 152/233/2
f 152/233/2 153/234/2 154/231/2
f 156/235/103 157/236/104 158/237/104
f 158/237/104 159/238/103 156/235/103
f 156/235/103 159/238/103 160/239/105
f 160/239/105 161/240/105 156/235/103
f 162/241/106 161/240/105 160/239/105
f 160/239/105 163/242/106 162/241/106
f 164/243/107 162/241/106 163/242/106
f 163/242/106 165/244/107 164/243/107
f 165/244/108 166/245/108 164/243/108
f 158/237/1 157/236/1 167/246/1
f 167/246/1 168/247/1 158/237/1
f 169/248/1 170/249/1 171/250/1
f 171/250/1 172/251/1 169/248/1
f 173/252/2 174/253/2 175/254/2
f 176/255/2 173/252/2 175/254/2
f 175/254/2 177/256/2 176/255/2
f 178/257/109 179/258/1 180/259/110
f 180/259/110 179/258/1 181/260/111
f 181/260/111 179/258/1 182/261/112
f 182/261/112 179/258/1 183/262/113
f 183/262/113 179/258/1 184/263/114
f 184/263/114 179/258/1 185/264/115
f 185/264/115 179/258/1 186/265/116
f 186/265/116 179/258/1 187/266/117
f 187/266/117 179/258/1 188/267/118
f 188/267/118 179/258/1 189/268/119
f 189/268/119 179/258/1 190/269/120
f 190/269/120 179/258/1 191/270/121
f 191/270/121 179/258/1 192/271/122
f 192/271/122 179/258/1 193/272/123
f 193/272/123 179/258/1 194/273/124
f 194/273/124 179/258/1 178/257/109
f 195/274/2 196/275/2 197/276/2
f 198/277/2 195/274/2 197/276/2
f 197/276/2 199/278/2 198/277/2
f 200/279/1 201/280/1 202/281/1
f 202/281/1 203/282/1 200/279/1
f 200/279/1 203/282/1 204/283/1
f 205/284/2 206/285/2 207/286/2
f 207/286/2 208/287/2 205/284/2
f 208/287/2 207/286/2 209/288/2
f 210/289/1 211/290/1 212/291/1
f 210/289/1 212/291/1 213/292/1
f 213/292/1 214/293/1 210/289/1
f 214/294/125 205/295/125 208/296/126
f 208/296/126 210/297/126 214/294/125
f 211/298/101 210/297/126 208/296/126
f 208/296/127 209/299/101 211/298/101
f 212/300/128 211/298/101 209/299/101
f 209/299/101 207/301/128 212/300/128
f 212/300/128 207/301/128 206/302/129
f 206/302/129 213/303/129 212/300/128
f 215/304/2 216/305/2 217/306/2
f 217/306/2 218/307/2 215/304/2
f 218/307/2 217/306/2 219/308/2
f 220/309/1 221/310/1 222/311/1
f 220/309/1 222/311/1 223/312/1
f 223/312/1 224/313/1 220/309/1
f 224/314/125 215/315/125 218/316/126
f 218/316/126 220/317/126 224/314/125
f 221/318/101 220/317/126 218/316/126
f 218/316/126 219/319/101 221/318/101
f 222/320/128 221/318/101 219/319/101
f 219/319/101 217/321/128 222/320/128
f 222/320/128 217/321/128 216/322/129
f 216/322/129 223/323/129 222/320/128
f 225/324/2 226/325/2 227/326/2
f 227/326/2 228/327/2 225/324/2
f 228/328/130 227/329/130 229/330/130
f 229/330/130 230/331/130 228/328/130
f 231/332/131 232/333/131 226/334/131
f 226/334/131 225/335/131 231/332/131
f 233/336/132 234/337/132 235/338/132
f 235/338/132 236/339/132 233/336/132
f 237/340/133 238/341/133 239/342/133
f 239/342/133 240/343/133 237/340/133
f 236/344/102 231/345/102 225/346/102
f 225/346/102 233/347/102 236/344/102
f 238/348/102 228/349/102 230/350/102
f 230/350/102 239/351/102 238/348/102
f 233/352/102 225/353/102 228/354/102
f 228/354/102 238/355/102 233/352/102
f 240/356/75 229/357/75 227/358/75
f 227/358/75 237/359/75 240/356/75
f 234/360/75 226/361/75 232/362/75
f 232/362/75 235/363/75 234/360/75
f 237/364/75 227/365/75 226/366/75
f 226/366/75 234/367/75 237/364/75
f 241/368/2 242/369/2 243/370/2
f 243/370/2 244/371/2 241/368/2
f 242/372/130 245/373/130 246/374/130
f 246/374/130 243/375/130 242/372/130
f 247/376/131 241/377/131 244/378/131
f 244/378/131 248/379/131 247/376/131
f 249/380/132 250/381/132 251/382/132
f 251/382/132 252/383/132 249/380/132
f 253/384/133 254/385/133 255/386/133
f 255/386/133 256/387/133 253/384/133
f 250/388/75 249/389/75 241/390/75
f 241/390/75 247/391/75 250/388/75
f 256/392/75 255/393/75 245/394/75
f 245/394/75 242/395/75 256/392/75
f 249/396/75 256/397/75 242/398/75
f 242/398/75 241/399/75 249/396/75
f 254/400/102 253/401/102 243/402/102
f 243/402/102 246/403/102 254/400/102
f 252/404/102 251/405/102 248/406/102
f 248/406/102 244/407/102 252/404/102
f 253/408/102 252/409/102 244/410/102
f 244/410/102 243/411/102 253/408/102
f 257/412/2 258/413/2 259/414/2
f 259/414/2 260/415/2 257/412/2
f 258/416/131 261/417/131 262/418/131
f 262/418/131 259/419/131 258/416/131
f 263/420/130 257/421/130 260/422/130
f 260/422/130 264/423/130 263/420/130
f 265/424/133 266/425/133 267/426/133
f 267/426/133 268/427/133 265/424/133
f 269/428/132 270/429/132 271/430/132
f 271/430/132 272/431/132 269/428/132
f 266/432/102 265/433/102 257/434/102
f 257/434/102 263/435/102 266/432/102
f 272/436/102 271/437/102 261/438/102
f 261/438/102 258/439/102 272/436/102
f 265/440/102 272/441/102 258/442/102
f 258/442/102 257/443/102 265/440/102
f 270/444/75 269/445/75 259/446/75
f 259/446/75 262/447/75 270/444/75
f 268/448/75 267/449/75 264/450/75
f 264/450/75 260/451/75 268/448/75
f 269/452/75 268/453/75 260/454/75
f 260/454/75 259/455/75 269/452/75
f 273/456/2 274/457/2 275/458/2
f 275/458/2 276/459/2 273/456/2
f 276/460/131 275/461/131 277/462/131
f 277/462/131 278/463/131 276/460/131
f 279/464/130 280/465/130 274/466/130
f 274/466/130 273/467/130 279/464/130
f 281/468/133 282/469/133 283/470/133
f 283/470/133 284/471/133 281/468/133
f 285/472/132 286/473/132 287/474/132
f 287/474/132 288/475/132 285/472/132
f 284/476/75 279/477/75 273/478/75
f 273/478/75 281/479/75 284/476/75
f 286/480/75 276/481/75 278/482/75
f 278/482/75 287/483/75 286/480/75
f 281/484/75 273/485/75 276/486/75
f 276/486/75 286/487/75 281/484/75
f 288/488/102 277/489/102 275/490/102
f 275/490/102 285/491/102 288/488/102
f 282/492/102 274/493/102 280/494/102
f 280/494/102 283/495/102 282/492/102
f 285/496/102 275/497/102 274/498/102
f 274/498/102 282/499/102 285/496/102
f 289/500/38 290/501/38 291/502/38
f 291/502/38 292/503/38 289/500/38
f 290/504/1 293/505/1 294/506/1
f 294/506/1 291/507/1 290/504/1
f 291/502/102 294/508/102 295/509/102
f 295/509/102 292/503/102 291/502/102
f 289/510/75 296/511/75 293/512/75
f 293/512/75 290/513/75 289/510/75
f 292/503/2 295/514/2 296/515/2
f 296/515/2 289/500/2 292/503/2
f 297/516/134 298/517/134 299/518/134
f 299/518/135 300/519/135 297/516/135
f 301/520/136 302/521/136 303/522/136
f 303/522/137 304/523/137 301/520/137
f 305/524/136 306/525/136 307/526/136
f 307/526/137 308/527/137 305/524/137
f 309/528/134 310/529/134 311/530/134
f 311/530/135 312/531/135 309/528/135
f 313/532/136 314/533/136 315/534/136
f 315/534/137 316/535/137 313/532/137
f 317/536/134 318/537/134 319/538/134
f 319/538/135 320/539/135 317/536/135
f 303/540/38 300/541/38 299/542/38
f 299/542/38 304/543/38 303/540/38
f 311/544/38 308/545/38 307/546/38
f 307/546/38 312/547/38 311/544/38
f 319/548/38 316/549/38 315/550/38
f 315/550/38 320/551/38 319/548/38
f 321/552/38 322/553/38 298/554/38
f 298/554/38 297/555/38 321/552/38
f 318/556/38 317/557/38 306/558/38
f 306/558/38 305/559/38 318/556/38
f 323/560/38 324/561/38 314/562/38
f 314/562/38 313/563/38 323/560/38
f 310/564/38 309/565/38 302/566/38
f 302/566/38 301/567/38 310/564/38
f 325/568/138 326/569/138 327/570/138
f 327/570/138 328/571/138 325/568/138
f 329/572/139 330/573/139 331/574/139
f 331/574/139 325/575/139 329/572/139
f 325/575/75 331/574/75 332/576/75
f 332/576/75 326/577/75 325/575/75
f 325/578/38 328/579/38 333/580/38
f 333/580/38 334/581/38 325/578/38
f 328/582/1 327/583/1 335/584/1
f 335/584/1 333/585/1 328/582/1
f 334/586/140 333/587/140 335/588/140
f 335/588/140 336/589/140 334/586/140
f 337/590/141 334/591/141 338/592/141
f 338/592/141 339/593/141 337/590/141
f 340/594/38 337/590/142 339/593/142
f 339/593/142 341/595/38 340/594/38
f 340/594/38 341/595/38 330/573/143
f 330/573/143 329/572/143 340/594/38
f 334/591/102 336/596/102 342/597/102
f 342/597/102 338/592/102 334/591/102
f 343/598/138 344/599/138 345/600/138
f 345/600/138 346/601/138 343/598/138
f 347/602/139 348/603/139 349/604/139
f 349/604/139 343/605/139 347/602/139
f 343/605/75 349/604/75 350/606/75
f 350/606/75 344/607/75 343/605/75
f 343/608/38 346/609/38 351/610/38
f 351/610/38 352/611/38 343/608/38
f 346/612/1 345/613/1 353/614/1
f 353/614/1 351/615/1 346/612/1
f 352/616/140 351/617/140 353/618/140
f 353/618/140 354/619/140 352/616/140
f 355/620/141 352/621/141 356/622/141
f 356/622/141 357/623/141 355/620/141
f 358/624/38 355/620/142 357/623/142
f 357/623/142 359/625/38 358/624/38
f 358/624/38 359/625/38 348/603/143
f 348/603/143 347/602/143 358/624/38
f 352/621/102 354/626/102 360/627/102
f 360/627/102 356/622/102 352/621/102
f 361/628/144 37/629/144 40/630/144
f 40/630/144 362/631/144 361/628/144
f 362/632/2 40/633/2 39/634/2
f 39/634/2 363/635/2 362/632/2
f 363/636/145 39/637/145 38/638/145
f 38/638/146 364/639/146 363/636/146
f 364/640/147 38/641/147 36/642/147
f 36/642/148 365/643/148 364/640/148
f 365/644/1 36/645/1 35/646/1
f 35/646/1 366/647/1 365/644/1
f 366/648/149 35/649/149 37/650/149
f 37/650/149 361/651/149 366/648/149
f 46/652/150 47/653/150 49/654/150
f 49/654/150 45/655/150 46/652/150
f 43/656/101 48/657/101 47/658/101
f 47/658/101 46/659/101 43/656/101
f 42/660/151 50/661/151 48/662/151
f 48/662/152 43/663/152 42/660/152
f 41/664/153 51/665/153 50/666/153
f 50/666/154 42/667/154 41/664/154
f 44/668/38 52/669/38 51/670/38
f 51/670/38 41/671/38 44/668/38
f 45/672/155 49/673/155 52/674/155
f 52/674/155 44/675/155 45/672/155
f 367/676/156 368/677/156 369/678/156
f 369/678/156 370/679/156 367/676/156
f 371/680/75 367/681/75 370/682/75
f 370/682/75 372/683/75 371/680/75
f 373/684/157 371/685/157 372/686/157
f 372/686/157 374/687/157 373/684/157
f 375/688/101 2/689/101 95/690/101
f 95/690/101 376/691/101 375/688/101
f 98/692/158 377/693/158 376/694/158
f 376/694/158 95/695/158 98/692/158
f 376/696/159 378/697/159 379/698/159
f 379/698/159 375/699/159 376/696/159
f 380/700/160 70/701/160 69/702/160
f 69/702/160 378/703/160 380/700/160
f 375/704/1 381/705/1 3/3/1
f 3/3/1 2/2/1 375/704/1
f 69/706/102 85/707/102 379/708/102
f 379/708/102 378/709/102 69/706/102
f 85/710/1 87/711/1 381/712/1
f 381/712/1 379/713/1 85/710/1
f 381/712/1 375/714/1 379/713/1
f 203/715/161 202/716/125 177/717/125
f 177/717/125 175/718/126 203/715/126
f 203/715/126 175/718/126 174/719/101
f 174/719/101 204/720/101 203/715/126
f 204/720/101 174/719/101 173/721/128
f 173/721/128 200/722/128 204/720/101
f 201/723/129 200/722/128 173/721/128
f 173/721/128 176/724/129 201/723/129
f 382/725/1 383/726/1 384/727/1
f 384/727/1 385/728/1 382/725/1
f 382/725/1 385/728/1 386/729/1
f 387/730/162 388/731/162 389/732/162
f 389/732/162 390/733/162 387/730/162
f 391/734/102 387/735/102 390/736/102
f 390/736/102 392/737/102 391/734/102
f 393/738/163 391/739/163 392/740/163
f 392/740/163 394/741/163 393/738/163
f 395/742/164 396/743/164 397/744/165
f 397/744/165 398/745/166 395/742/167
f 398/745/166 397/744/168 399/746/169
f 399/746/170 400/747/171 398/745/166
f 401/748/172 402/749/172 403/750/173
f 403/750/174 404/751/175 401/748/172
f 404/751/175 403/750/174 405/752/176
f 405/752/176 406/753/177 404/751/175
f 406/753/177 405/752/176 407/754/178
f 407/754/178 408/755/178 406/753/177
f 402/756/179 409/757/179 410/758/180
f 410/758/181 403/759/182 402/756/179
f 405/760/183 403/759/182 410/758/181
f 410/758/184 411/761/183 405/760/183
f 407/762/185 405/760/183 411/761/183
f 411/761/183 412/763/185 407/762/185
f 340/764/1 329/765/1 337/766/1
f 337/766/1 329/765/1 325/767/1
f 325/767/1 334/768/1 337/766/1
f 113/769/186 413/770/187 414/771/188
f 114/772/189 113/769/186 414/771/188
f 414/771/188 415/773/190 114/772/189
f 330/774/2 341/775/2 339/776/2
f 330/774/2 339/776/2 338/777/2
f 338/777/2 331/778/2 330/774/2
f 332/779/2 331/778/2 338/777/2
f 338/777/2 342/780/2 332/779/2
f 358/781/1 347/782/1 355/783/1
f 355/783/1 347/782/1 343/784/1
f 343/784/1 352/785/1 355/783/1
f 416/786/191 417/787/179 373/788/192
f 373/788/192 374/789/193 416/786/194
f 418/790/195 416/786/194 374/789/193
f 374/789/193 419/791/185 418/790/195
f 348/792/2 359/793/2 357/794/2
f 348/792/2 357/794/2 356/795/2
f 356/795/2 349/796/2 348/792/2
f 350/797/2 349/796/2 356/795/2
f 356/795/2 360/798/2 350/797/2
f 414/799/196 413/800/197 420/801/198
f 420/801/198 421/802/199 414/799/196
f 414/799/196 421/802/199 422/803/200
f 422/803/200 415/804/200 414/799/196
f 321/805/201 401/806/179 404/807/202
f 404/807/202 322/808/203 321/805/201
f 322/808/203 404/807/202 406/809/204
f 406/809/204 408/810/185 322/808/203
f 369/811/205 368/812/75 395/813/206
f 395/813/206 398/814/207 369/811/205
f 398/814/207 400/815/208 369/811/205
f 423/816/209 424/817/209 425/818/210
f 425/818/210 426/819/211 423/816/212
f 426/819/211 425/818/213 427/820/214
f 427/820/215 428/821/216 426/819/211
f 429/822/217 430/823/217 431/824/218
f 431/824/217 432/825/219 429/822/217
f 432/825/219 431/824/220 433/826/221
f 433/826/221 434/827/222 432/825/219
f 434/827/222 433/826/221 435/828/223
f 435/828/223 436/829/223 434/827/222
f 430/830/224 437/831/224 438/832/225
f 438/832/226 431/833/227 430/830/224
f 433/834/228 431/833/227 438/832/226
f 438/832/229 439/835/228 433/834/228
f 435/836/230 433/834/228 439/835/228
f 439/835/228 440/837/230 435/836/230
f 418/838/231 419/839/232 412/840/232
f 412/840/232 411/841/233 418/838/231
f 416/842/234 418/838/231 411/841/233
f 411/841/233 410/843/235 416/842/236
f 417/844/237 416/842/236 410/843/238
f 410/843/235 409/845/239 417/844/239
f 421/846/240 420/847/241 399/848/242
f 399/848/243 397/849/244 421/846/240
f 422/850/245 421/846/240 397/849/244
f 397/849/244 396/851/245 422/850/245
f 441/852/246 442/853/247 443/854/248
f 443/854/248 444/855/249 441/852/246
f 441/852/246 444/855/249 445/856/250
f 445/856/251 446/857/251 441/852/246
f 447/858/252 442/859/253 441/860/254
f 448/861/255 447/858/252 441/860/254
f 441/860/254 446/862/256 448/861/255
f 449/863/257 450/864/258 440/865/258
f 440/865/258 439/866/259 449/863/257
f 451/867/260 449/863/257 439/866/259
f 439/866/259 438/868/261 451/867/260
f 452/869/262 451/867/263 438/868/264
f 438/868/261 437/870/262 452/869/262
f 444/871/265 443/872/266 427/873/267
f 427/873/268 425/874/269 444/871/265
f 445/875/270 444/871/265 425/874/269
f 425/874/269 424/876/270 445/875/270
f 453/877/271 454/878/38 455/879/272
f 455/879/272 454/878/38 456/880/273
f 456/880/273 454/878/38 457/881/274
f 457/881/274 454/878/38 458/882/275
f 458/882/275 454/878/38 459/883/276
f 459/883/276 454/878/38 460/884/277
f 460/884/277 454/878/38 461/885/278
f 461/885/278 454/878/38 453/877/271
f 462/886/279 380/887/280 378/888/281
f 378/888/281 463/889/282 462/886/279
f 464/890/283 462/886/279 463/889/282
f 463/889/282 465/891/284 464/890/283
f 377/892/285 464/890/283 465/891/284
f 465/891/284 376/893/286 377/892/287
f 378/888/281 376/893/286 465/891/284
f 465/891/284 463/889/282 378/888/281
f 100/894/89 107/895/96 14/896/4
f 14/896/4 13/897/3 100/894/89
f 101/898/90 100/894/89 13/897/3
f 13/897/3 16/899/6 101/898/90
f 101/898/90 16/899/6 21/900/11
f 21/900/11 105/901/94 101/898/90
f 105/901/94 21/900/11 20/902/10
f 20/902/10 111/903/100 105/901/94
f 451/904/288 452/905/224 393/906/289
f 393/906/289 394/907/290 451/904/291
f 449/908/292 451/904/291 394/907/290
f 394/907/290 450/909/293 449/908/292
f 466/910/108 467/911/108 468/912/108
f 467/911/107 466/910/107 469/913/106
f 469/913/106 470/914/106 467/911/107
f 470/914/106 469/913/106 471/915/105
f 471/915/105 472/916/105 470/914/106
f 473/917/103 472/916/105 471/915/105
f 471/915/105 474/918/103 473/917/103
f 473/917/103 474/918/103 132/195/104
f 132/195/104 135/198/104 473/917/103
f 475/919/294 429/920/224 432/921/295
f 432/921/295 476/922/296 475/919/294
f 476/922/297 432/921/295 434/923/298
f 434/923/298 436/924/293 476/922/296
f 389/925/299 388/926/102 423/927/300
f 423/927/300 426/928/301 389/925/299
f 426/928/301 428/929/302 389/925/299
f 477/930/303 478/931/304 479/932/305
f 479/932/305 480/933/306 477/930/303
f 480/933/306 479/932/307 481/934/308
f 481/934/308 482/935/309 480/933/310
f 482/935/309 481/934/308 483/936/311
f 483/936/311 484/937/312 482/935/313
f 484/937/312 483/936/311 485/938/314
f 485/938/314 486/939/315 484/937/316
f 487/940/317 488/941/318 478/931/304
f 478/931/304 477/930/319 487/940/317
f 489/942/320 487/940/317 477/930/321
f 477/930/303 490/943/322 489/942/323
f 490/943/324 477/930/303 480/933/306
f 480/933/306 491/944/325 490/943/326
f 491/944/325 480/933/306 482/935/309
f 482/935/309 492/945/327 491/944/325
f 492/945/327 482/935/309 484/937/312
f 484/937/312 493/946/328 492/945/327
f 493/946/328 484/937/312 486/939/315
f 486/939/315 494/947/329 493/946/328
f 495/948/330 491/944/331 492/945/327
f 492/945/327 496/949/332 495/948/330
f 496/949/332 492/945/327 493/946/328
f 493/946/328 497/950/333 496/949/334
f 497/950/333 493/946/328 494/947/329
f 494/947/329 498/951/335 497/950/333
f 483/952/311 497/950/333 498/951/335
f 498/951/335 485/953/314 483/952/336
f 499/954/337 500/955/338 501/956/339
f 501/956/339 488/957/318 499/954/337
f 488/957/318 501/956/339 502/958/340
f 502/958/341 478/959/304 488/957/318
f 478/959/304 502/958/341 495/948/330
f 495/948/330 479/960/305 478/959/304
f 479/960/305 495/948/330 496/949/332
f 496/949/332 481/961/308 479/960/305
f 481/961/308 496/949/332 497/950/342
f 497/950/333 483/952/311 481/961/308
f 503/962/343 499/963/344 488/941/318
f 488/941/318 487/940/317 503/962/345
f 504/964/346 503/962/345 487/940/317
f 487/940/317 489/942/323 504/964/346
f 500/955/338 504/964/346 489/942/323
f 489/942/323 501/956/339 500/955/347
f 501/956/339 489/942/323 490/943/324
f 490/943/322 502/958/341 501/956/339
f 502/958/341 490/943/348 491/944/325
f 491/944/349 495/948/330 502/958/341
f 473/965/350 135/966/351 134/967/351
f 134/967/351 505/968/352 473/965/350
f 473/965/350 505/968/352 138/969/353
f 138/969/353 472/970/354 473/965/350
f 137/971/355 472/970/354 138/969/353
f 470/972/356 472/970/354 137/971/355
f 137/971/355 506/973/357 470/972/356
f 467/974/358 470/972/356 506/973/357
f 506/973/357 507/975/359 467/974/358
f 468/976/2 467/974/358 507/975/359
f 507/975/359 508/977/2 468/976/2
f 159/978/360 158/979/351 168/980/351
f 168/980/351 509/981/361 159/978/360
f 160/982/362 159/978/360 509/981/361
f 509/981/361 170/983/363 160/982/362
f 170/983/363 169/984/355 160/982/362
f 163/985/356 160/982/362 169/984/355
f 169/984/355 510/986/357 163/985/356
f 163/985/356 510/986/357 511/987/359
f 511/987/359 165/988/358 163/985/356
f 165/988/358 511/987/359 512/989/2
f 512/989/2 166/990/2 165/988/358
f 133/991/364 132/992/364 474/993/365
f 474/993/365 513/994/366 133/991/364
f 513/994/366 474/993/365 471/995/367
f 471/995/367 139/996/368 513/994/366
f 139/996/368 471/995/367 136/997/369
f 136/997/369 471/995/367 469/998/370
f 469/998/370 514/999/371 136/997/369
f 515/1000/372 514/999/371 469/998/370
f 469/998/370 466/1001/373 515/1000/372
f 508/1002/2 515/1000/372 466/1001/373
f 466/1001/373 468/1003/2 508/1002/2
f 516/1004/374 517/1005/375 518/1006/2
f 517/1005/375 519/1007/376 518/1006/2
f 519/1007/376 520/1008/377 518/1006/2
f 520/1008/377 521/1009/378 518/1006/2
f 521/1009/378 522/1010/379 518/1006/2
f 522/1010/379 523/1011/380 518/1006/2
f 523/1011/380 524/1012/381 518/1006/2
f 524/1012/381 525/1013/382 518/1006/2
f 525/1013/382 526/1014/383 518/1006/2
f 526/1014/383 527/1015/384 518/1006/2
f 527/1015/384 528/1016/385 518/1006/2
f 528/1016/385 529/1017/386 518/1006/2
f 529/1017/386 530/1018/387 518/1006/2
f 530/1018/387 531/1019/388 518/1006/2
f 531/1019/388 532/1020/389 518/1006/2
f 532/1020/389 516/1004/374 518/1006/2
f 195/1021/128 198/1022/129 383/1023/129
f 383/1023/129 382/1024/128 195/1021/128
f 195/1021/128 382/1024/128 386/1025/101
f 386/1025/101 196/1026/390 195/1021/128
f 196/1026/101 386/1025/101 385/1027/126
f 385/1027/126 197/1028/126 196/1026/101
f 199/1029/125 197/1028/126 385/1027/126
f 385/1027/161 384/1030/125 199/1029/125
f 166/1031/2 512/1032/391 533/1033/372
f 533/1033/372 164/1034/373 166/1031/2
f 164/1034/373 533/1033/372 534/1035/371
f 534/1035/371 162/1036/370 164/1034/373
f 162/1036/370 534/1035/371 172/1037/369
f 172/1037/369 161/1038/392 162/1036/370
f 172/1037/369 171/1039/393 161/1038/392
f 156/1040/394 161/1038/392 171/1039/393
f 171/1039/393 535/1041/395 156/1040/394
f 156/1040/394 535/1041/395 167/1042/364
f 167/1042/364 157/1043/364 156/1040/394