# 3ds Max Wavefront OBJ Exporter v0.97b - (c)2007 guruware
# File Created: 02.11.2018 18:10:42

mtllib VODKA.mtl

#
# object dev_vodkaShape
#

v  0.0365 0.1612 0.0000
v  0.0389 0.1489 0.0000
v  0.0275 0.1489 -0.0275
v  0.0160 0.2685 0.0000
v  0.0113 0.2685 -0.0113
v  0.0000 0.2685 -0.0160
v  -0.0113 0.2685 -0.0113
v  -0.0160 0.2685 0.0000
v  -0.0275 0.0002 -0.0275
v  0.0000 0.0002 -0.0388
v  0.0275 0.0002 -0.0275
v  0.0388 0.0002 -0.0000
v  0.0275 0.0002 0.0275
v  0.0000 0.0002 0.0388
v  -0.0275 0.0002 0.0275
v  -0.0132 0.1817 -0.0132
v  -0.0365 0.1612 0.0000
v  -0.0187 0.1817 0.0000
v  0.0132 0.1817 0.0132
v  0.0187 0.1817 0.0000
v  0.0000 0.2088 -0.0207
v  -0.0146 0.2088 -0.0146
v  -0.0207 0.2088 0.0000
v  -0.0113 0.2685 0.0113
v  -0.0146 0.2088 0.0146
v  0.0000 0.2685 0.0160
v  0.0000 0.2088 0.0207
v  0.0113 0.2685 0.0113
v  0.0146 0.2088 0.0146
v  0.0207 0.2088 0.0000
v  -0.0388 0.0002 0.0000
v  -0.0389 0.1489 0.0000
v  -0.0275 0.1489 -0.0275
v  0.0258 0.1612 -0.0258
v  0.0000 0.1489 -0.0389
v  0.0000 0.1612 -0.0365
v  0.0132 0.1817 -0.0132
v  -0.0258 0.1612 -0.0258
v  0.0000 0.1817 -0.0187
v  -0.0275 0.1489 0.0275
v  0.0258 0.1612 0.0258
v  0.0000 0.1817 0.0187
v  -0.0258 0.1612 0.0258
v  0.0000 0.1489 0.0389
v  -0.0132 0.1817 0.0132
v  0.0000 0.1612 0.0365
v  0.0275 0.1489 0.0275
v  0.0146 0.2088 -0.0146
# 48 vertices

vn 0.9101 0.4144 0.0000
vn 0.9956 0.0940 -0.0000
vn 0.7040 0.0940 -0.7040
vn 0.7519 0.6593 0.0000
vn 0.5317 0.6593 -0.5317
vn -0.0000 0.6593 -0.7519
vn -0.5317 0.6593 -0.5317
vn -0.7519 0.6593 0.0000
vn -0.5489 -0.6304 -0.5489
vn 0.0000 -0.6304 -0.7763
vn 0.5489 -0.6304 -0.5489
vn 0.7763 -0.6304 -0.0000
vn 0.5489 -0.6304 0.5489
vn -0.0000 -0.6304 0.7763
vn -0.5489 -0.6304 0.5489
vn -0.6632 0.3467 -0.6632
vn -0.9101 0.4144 0.0000
vn -0.9380 0.3467 0.0000
vn 0.6632 0.3467 0.6632
vn 0.9380 0.3467 -0.0000
vn -0.0000 0.0030 -1.0000
vn -0.7071 0.0030 -0.7071
vn -1.0000 0.0030 0.0000
vn -0.5317 0.6593 0.5317
vn -0.7071 0.0030 0.7071
vn -0.0000 0.6593 0.7519
vn 0.0000 0.0030 1.0000
vn 0.5317 0.6593 0.5317
vn 0.7071 0.0030 0.7071
vn 1.0000 0.0030 0.0000
vn -0.7763 -0.6304 -0.0000
vn -0.9956 0.0940 -0.0000
vn -0.7040 0.0940 -0.7040
vn 0.6435 0.4144 -0.6435
vn 0.0000 0.0940 -0.9956
vn -0.0000 0.4144 -0.9101
vn 0.6632 0.3467 -0.6632
vn -0.6435 0.4144 -0.6435
vn -0.0000 0.3467 -0.9380
vn -0.7040 0.0940 0.7040
vn 0.6435 0.4144 0.6435
vn 0.0000 0.3467 0.9380
vn -0.6435 0.4144 0.6435
vn -0.0000 0.0940 0.9956
vn -0.6632 0.3467 0.6632
vn 0.0000 0.4144 0.9101
vn 0.7040 0.0940 0.7040
vn 0.7071 0.0030 -0.7071
# 48 vertex normals

vt 0.4022 0.9846 0.0000
vt 0.4477 0.9974 0.0000
vt 0.4477 0.9261 0.0000
vt 0.2303 0.5220 0.0000
vt 0.1989 0.5979 0.0000
vt 0.1231 0.6293 0.0000
vt 0.0473 0.5979 0.0000
vt 0.0159 0.5220 0.0000
vt 0.0412 0.5983 0.0000
vt 0.1207 0.6312 0.0000
vt 0.2003 0.5983 0.0000
vt 0.2332 0.5187 0.0000
vt 0.2003 0.4391 0.0000
vt 0.1207 0.4062 0.0000
vt 0.0412 0.4391 0.0000
vt 0.3264 0.6702 0.0000
vt 0.4022 0.5232 0.0000
vt 0.3264 0.6356 0.0000
vt 0.3264 0.8376 0.0000
vt 0.3264 0.8723 0.0000
vt 0.2266 0.7539 0.0000
vt 0.0062 0.6948 0.0000
vt 0.0062 0.7539 0.0000
vt 0.2266 0.6714 0.0000
vt 0.0062 0.6703 0.0000
vt 0.2266 0.6372 0.0000
vt 0.0062 0.8131 0.0000
vt 0.2266 0.8364 0.0000
vt 0.0062 0.8376 0.0000
vt 0.2266 0.8706 0.0000
vt 0.4477 0.5817 0.0000
vt 0.4477 0.5104 0.0000
vt 0.9958 0.5107 0.0000
vt 0.9958 0.5819 0.0000
vt 0.9958 0.7539 0.0000
vt 0.9958 0.9972 0.0000
vt 0.9958 0.9259 0.0000
vt 0.3264 0.8711 0.0000
vt 0.4022 0.9171 0.0000
vt 0.4477 0.7539 0.0000
vt 0.4022 0.7539 0.0000
vt 0.4022 0.5908 0.0000
vt 0.3264 0.7539 0.0000
vt 0.1231 0.4148 0.0000
vt 0.1989 0.4462 0.0000
vt 0.0473 0.4462 0.0000
vt 0.0082 0.5187 0.0000
# 47 texture coords

o dev_vodkaShape
g dev_vodkaShape
usemtl prop_voda1_S
s 4
f 1/1/1 2/2/2 3/3/3 
s 2
f 4/4/4 5/5/5 6/6/6 
s 1
f 6/6/6 7/7/7 8/8/8 
s 32
f 9/9/9 10/10/10 11/11/11 
s 1
f 11/11/11 12/12/12 13/13/13 
s 32
f 13/13/13 14/14/14 15/15/15 
s 8
f 16/16/16 17/17/17 18/18/18 
s 16
f 19/19/19 1/1/1 20/20/20 
s 1
f 21/21/21 7/22/7 6/23/6 
s 32
f 22/24/22 8/25/8 7/22/7 
f 23/26/23 24/22/24 8/25/8 
s 8
f 25/24/25 26/23/26 24/22/24 
f 27/21/27 28/27/28 26/23/26 
s 32
f 29/28/29 4/29/4 28/27/28 
f 21/21/21 6/23/6 5/27/5 
s 2
f 30/30/30 5/27/5 4/29/4 
s 4
f 3/31/3 2/32/2 12/33/12 
s 1
f 3/31/3 12/33/12 11/34/11 
s 32
f 3/31/3 11/34/11 10/35/10 
s 16
f 31/36/31 32/2/32 33/3/33 
f 32/32/32 31/33/31 15/34/15 
s 32
f 2/2/2 13/37/13 12/36/12 
s 2
f 18/18/18 23/26/23 16/16/16 
s 8
f 20/38/20 30/30/30 19/19/19 
s 16
f 34/39/34 3/3/3 35/40/35 
f 3/3/3 34/39/34 1/1/1 
f 20/20/20 1/1/1 34/39/34 
s 1
f 36/41/36 35/40/35 33/31/33 
f 35/40/35 36/41/36 34/39/34 
f 37/19/37 34/39/34 36/41/36 
f 20/20/20 34/39/34 37/19/37 
s 16
f 38/42/38 33/31/33 32/32/32 
f 33/31/33 38/42/38 36/41/36 
f 39/43/39 36/41/36 38/42/38 
f 37/19/37 36/41/36 39/43/39 
s 1
f 32/32/32 17/17/17 38/42/38 
f 16/16/16 38/42/38 17/17/17 
f 39/43/39 38/42/38 16/16/16 
f 17/17/17 32/32/32 40/31/40 
f 15/34/15 40/31/40 32/32/32 
f 40/31/40 15/34/15 14/35/14 
s 4
f 2/2/2 1/1/1 41/39/41 
f 19/19/19 41/39/41 1/1/1 
f 42/43/42 41/39/41 19/19/19 
s 8
f 26/44/26 28/45/28 4/4/4 
f 26/44/26 4/4/4 6/6/6 
f 26/44/26 6/6/6 8/8/8 
f 26/44/26 8/8/8 24/46/24 
s 2
f 9/9/9 11/11/11 13/13/13 
f 9/9/9 13/13/13 15/15/15 
f 9/9/9 15/15/15 31/47/31 
s 8
f 18/18/18 17/17/17 43/42/43 
f 40/31/40 43/42/43 17/17/17 
f 43/42/43 40/31/40 44/40/44 
f 14/35/14 44/40/44 40/31/40 
f 44/40/44 14/35/14 13/37/13 
s 16
f 18/18/18 43/42/43 45/16/45 
f 45/16/45 43/42/43 46/41/46 
f 44/40/44 46/41/46 43/42/43 
f 46/41/46 44/40/44 47/3/47 
f 13/37/13 47/3/47 44/40/44 
f 2/2/2 47/3/47 13/37/13 
f 41/39/41 47/3/47 2/2/2 
f 47/3/47 41/39/41 46/41/46 
f 42/43/42 46/41/46 41/39/41 
f 45/16/45 46/41/46 42/43/42 
s 2
f 21/21/21 22/24/22 7/22/7 
f 22/24/22 21/21/21 39/43/39 
f 39/43/39 21/21/21 37/19/37 
s 4
f 22/24/22 23/26/23 8/25/8 
f 23/26/23 22/24/22 16/16/16 
f 16/16/16 22/24/22 39/43/39 
s 2
f 23/26/23 25/24/25 24/22/24 
f 25/24/25 23/26/23 18/18/18 
s 1
f 25/24/25 27/21/27 26/23/26 
f 27/21/27 25/24/25 45/16/45 
f 45/16/45 25/24/25 18/18/18 
s 2
f 27/21/27 29/28/29 28/27/28 
f 29/28/29 27/21/27 42/43/42 
f 42/43/42 27/21/27 45/16/45 
s 1
f 29/28/29 30/30/30 4/29/4 
f 30/30/30 29/28/29 19/19/19 
f 19/19/19 29/28/29 42/43/42 
s 16
f 10/35/10 35/40/35 3/31/3 
f 35/40/35 10/35/10 9/37/9 
s 1
f 9/37/9 33/3/33 35/40/35 
f 33/3/33 9/37/9 31/36/31 
s 8
f 48/28/48 30/30/30 20/20/20 
f 30/30/30 48/28/48 5/27/5 
f 5/27/5 48/28/48 21/21/21 
f 21/21/21 48/28/48 37/19/37 
f 37/19/37 48/28/48 20/20/20 
# 0 polygons - 92 triangles

