# Blender v2.82 (sub 7) OBJ File: ''
# www.blender.org
mtllib hun_rest_chairShape1_2_1.mtl
o hun_rest_chairShape1_2.001
v -0.004005 0.109361 -0.083495
v 0.477542 0.104246 -0.426626
v 0.477382 0.112108 -0.114218
v -0.477088 0.110776 -0.429367
v -0.475182 0.105801 -0.112945
v -0.477088 0.110776 -0.429367
v -0.469733 0.844221 -0.429535
v -0.347861 0.842651 -0.432294
v -0.084414 0.830601 -0.432808
v 0.067928 0.829956 -0.432821
v 0.477542 0.104246 -0.426626
v 0.225238 0.834853 -0.432856
v 0.466372 0.829513 -0.432859
v -0.459028 0.846203 -0.415449
v -0.490856 0.821146 -0.384687
v -0.491096 0.847323 -0.391018
v -0.490856 0.821146 -0.384687
v -0.490953 0.845468 -0.306264
v -0.491096 0.847323 -0.391018
v -0.490457 0.815043 -0.288950
v -0.480263 0.841368 -0.288305
v -0.485858 0.652743 -0.236339
v -0.477088 0.110776 -0.429367
v -0.475469 0.832181 -0.414536
v -0.469733 0.844221 -0.429535
v -0.483940 0.470758 -0.177456
v -0.470562 0.486436 -0.154635
v -0.471260 0.692873 -0.222750
v -0.467918 0.359381 -0.124627
v -0.482872 0.347043 -0.146897
v -0.475182 0.105801 -0.112945
v -0.476821 0.813679 -0.268748
v -0.472775 0.838493 -0.275687
v -0.480263 0.841368 -0.288305
v 0.466624 0.821968 -0.288664
v 0.431986 0.837736 -0.279494
v 0.466918 0.827178 -0.279433
v -0.469733 0.844221 -0.429535
v -0.459028 0.846203 -0.415449
v -0.347861 0.842651 -0.432294
v -0.334028 0.857853 -0.411904
v -0.084414 0.830601 -0.432808
v -0.475110 0.857661 -0.390276
v -0.491096 0.847323 -0.391018
v -0.490953 0.845468 -0.306264
v -0.465149 0.857006 -0.308777
v -0.304389 0.864833 -0.317374
v -0.082103 0.845228 -0.408303
v 0.067928 0.829956 -0.432821
v -0.480263 0.841368 -0.288305
v -0.447422 0.848586 -0.278018
v -0.286934 0.851323 -0.284779
v -0.072349 0.849021 -0.335591
v 0.066415 0.842128 -0.405760
v 0.225238 0.834853 -0.432856
v -0.074356 0.835818 -0.280095
v 0.063444 0.843396 -0.343803
v 0.060761 0.833468 -0.277407
v 0.221599 0.847111 -0.341805
v 0.226991 0.848228 -0.404319
v 0.214571 0.832326 -0.273971
v 0.431986 0.837736 -0.279494
v 0.442879 0.847421 -0.342119
v 0.442270 0.845741 -0.402876
v 0.467987 0.832518 -0.413943
v 0.466372 0.829513 -0.432859
v 0.475536 0.839278 -0.401374
v 0.479145 0.830648 -0.305725
v 0.483280 0.837808 -0.347602
v -0.480263 0.841368 -0.288305
v -0.472775 0.838493 -0.275687
v -0.475469 0.832181 -0.414536
v -0.490856 0.821146 -0.384687
v -0.459028 0.846203 -0.415449
v -0.469733 0.844221 -0.429535
v 0.465957 0.799731 -0.261751
v 0.466918 0.827178 -0.279433
v 0.431986 0.837736 -0.279494
v 0.381582 0.808408 -0.262135
v 0.214571 0.832326 -0.273971
v 0.389978 0.664253 -0.194041
v 0.456146 0.637223 -0.198376
v 0.256309 0.781883 -0.229024
v 0.266304 0.719236 -0.201365
v 0.060761 0.833468 -0.277407
v 0.225103 0.623326 -0.172953
v 0.292451 0.506066 -0.130350
v 0.010831 0.720793 -0.196145
v -0.067485 0.785053 -0.229424
v 0.457845 0.461088 -0.143708
v -0.074356 0.835818 -0.280095
v 0.014829 0.624183 -0.157991
v 0.009419 0.506308 -0.108097
v 0.212461 0.382816 -0.092342
v 0.459707 0.365236 -0.124942
v -0.230176 0.722058 -0.205490
v -0.216749 0.625041 -0.174765
v -0.262476 0.805683 -0.241513
v -0.211870 0.506786 -0.121104
v -0.286934 0.851323 -0.284779
v -0.349043 0.620091 -0.178062
v 0.008491 0.382553 -0.085052
v -0.171929 0.382368 -0.086877
v -0.447422 0.848586 -0.278018
v 0.477382 0.112108 -0.114218
v -0.004005 0.109361 -0.083495
v -0.470562 0.486436 -0.154635
v -0.467918 0.359381 -0.124627
v -0.475182 0.105801 -0.112945
v -0.386637 0.705056 -0.206241
v -0.471260 0.692873 -0.222750
v -0.476821 0.813679 -0.268748
v -0.472775 0.838493 -0.275687
v 0.466624 0.821968 -0.288664
v 0.479145 0.830648 -0.305725
v 0.431986 0.837736 -0.279494
v 0.503164 0.576178 -0.412550
v 0.505450 0.124228 -0.408628
v 0.499625 0.106354 -0.410351
v 0.498877 0.595318 -0.412996
v 0.488369 0.096246 -0.412092
v 0.488960 0.612249 -0.413432
v 0.429462 0.605211 -0.412173
v 0.344242 0.573231 -0.410567
v 0.300151 0.093866 -0.412013
v 0.285733 0.104241 -0.410344
v 0.281273 0.121718 -0.408642
v 0.286112 0.522898 -0.410393
v 0.282065 0.410988 -0.410290
v 0.491554 0.091883 -0.059844
v 0.499625 0.106354 -0.410351
v 0.505450 0.124228 -0.408628
v 0.500123 0.105958 -0.058743
v 0.486212 0.088911 0.331901
v 0.499679 0.124228 -0.058002
v 0.500461 0.101841 0.336035
v 0.503164 0.576178 -0.412550
v 0.503769 0.124228 0.337311
v 0.494861 0.286956 0.330843
v 0.503427 0.434893 0.334906
v 0.508290 0.501111 0.340281
v 0.504389 0.576178 0.315963
v 0.503038 0.576178 0.338546
v 0.498339 0.576178 -0.056906
v 0.495958 0.573601 0.067568
v 0.511690 0.576178 0.302107
v 0.509183 0.575768 0.264933
v 0.488780 0.593466 0.068196
v 0.489651 0.595311 -0.057264
v 0.498877 0.595318 -0.412996
v 0.508065 0.597508 0.319717
v 0.502059 0.595321 0.329153
v 0.506472 0.596778 0.274378
v 0.501607 0.595321 0.338286
v 0.488960 0.612249 -0.413432
v 0.470766 0.610868 -0.057632
v 0.490729 0.610818 0.328245
v 0.488549 0.607231 0.339927
v 0.499625 0.106354 -0.410351
v 0.491554 0.091883 -0.059844
v 0.488369 0.096246 -0.412092
v 0.488369 0.096246 -0.412092
v 0.300156 0.093866 -0.059817
v 0.300151 0.093866 -0.412013
v 0.491554 0.091883 -0.059844
v 0.392290 0.092761 0.334767
v 0.300161 0.094891 0.336011
v 0.486212 0.088911 0.331901
v 0.281273 0.121718 -0.408642
v 0.285733 0.104241 -0.410344
v 0.286251 0.103023 -0.059006
v 0.281274 0.121718 -0.057996
v 0.282065 0.410988 -0.410290
v 0.287582 0.104241 0.337278
v 0.279013 0.410988 0.093075
v 0.284120 0.121718 0.337023
v 0.291095 0.282073 0.337117
v 0.281321 0.410988 0.331783
v 0.470766 0.610868 -0.057632
v 0.488960 0.612249 -0.413432
v 0.429462 0.605211 -0.412173
v 0.414857 0.613008 -0.031135
v 0.344242 0.573231 -0.410567
v 0.472343 0.608408 0.068198
v 0.489651 0.595311 -0.057264
v 0.358952 0.598628 -0.004645
v 0.425418 0.616919 0.111404
v 0.488780 0.593466 0.068196
v 0.486106 0.616186 0.284511
v 0.319822 0.575826 -0.003087
v 0.363879 0.601138 0.180052
v 0.440536 0.610793 0.315560
v 0.286112 0.522898 -0.410393
v 0.506472 0.596778 0.274378
v 0.508065 0.597508 0.319717
v 0.490729 0.610818 0.328245
v 0.319370 0.575006 0.198452
v 0.369685 0.599171 0.302585
v 0.443795 0.604046 0.338812
v 0.375084 0.587878 0.337192
v 0.318955 0.574276 0.305558
v 0.488549 0.607231 0.339927
v 0.318508 0.563791 0.336818
v 0.277643 0.541141 0.311320
v 0.283866 0.517731 0.190571
v 0.284455 0.541671 0.337454
v 0.282470 0.508373 0.335930
v 0.284455 0.541671 0.337454
v 0.277643 0.541141 0.311320
v 0.273459 0.499613 0.315480
v 0.281321 0.410988 0.331783
v 0.283866 0.517731 0.190571
v 0.279013 0.410988 0.093075
v 0.285588 0.524226 -0.000451
v 0.282065 0.410988 -0.410290
v 0.286112 0.522898 -0.410393
v 0.319822 0.575826 -0.003087
v 0.319370 0.575006 0.198452
v 0.488549 0.607231 0.339927
v 0.501607 0.595321 0.338286
v 0.502059 0.595321 0.329153
v 0.286251 0.103023 -0.059006
v 0.300161 0.094891 0.336011
v 0.287582 0.104241 0.337278
v 0.300156 0.093866 -0.059817
v 0.285733 0.104241 -0.410344
v 0.300151 0.093866 -0.412013
v -0.501254 0.576178 -0.412584
v -0.497709 0.106353 -0.410340
v -0.503537 0.124228 -0.408612
v -0.496980 0.595318 -0.412986
v -0.486453 0.096246 -0.412052
v -0.487046 0.612249 -0.413391
v -0.427549 0.605211 -0.412110
v -0.342343 0.573231 -0.410554
v -0.298244 0.093866 -0.411994
v -0.283810 0.104241 -0.410346
v -0.279368 0.121718 -0.408594
v -0.284201 0.522898 -0.410438
v -0.280157 0.410988 -0.410334
v -0.486453 0.096246 -0.412052
v -0.489623 0.091883 -0.059824
v -0.497709 0.106353 -0.410340
v -0.497709 0.106353 -0.410340
v -0.489623 0.091883 -0.059824
v -0.503537 0.124228 -0.408612
v -0.498206 0.105958 -0.058751
v -0.484292 0.088911 0.331906
v -0.498526 0.101841 0.336018
v -0.497754 0.124228 -0.058010
v -0.501254 0.576178 -0.412584
v -0.501835 0.124228 0.337349
v -0.492936 0.286956 0.330851
v -0.501503 0.434893 0.334959
v -0.506375 0.501111 0.340295
v -0.502464 0.576178 0.315917
v -0.501121 0.576178 0.338578
v -0.496426 0.576178 -0.056921
v -0.494044 0.573601 0.067551
v -0.509757 0.576178 0.302142
v -0.507256 0.575768 0.264886
v -0.486855 0.593466 0.068186
v -0.487745 0.595311 -0.057267
v -0.496980 0.595318 -0.412986
v -0.506143 0.597508 0.319773
v -0.500126 0.595321 0.329155
v -0.504551 0.596778 0.274401
v -0.499689 0.595321 0.338281
v -0.487046 0.612249 -0.413391
v -0.468858 0.610868 -0.057602
v -0.488806 0.610818 0.328303
v -0.486620 0.607231 0.339879
v -0.486453 0.096246 -0.412052
v -0.298244 0.093866 -0.411994
v -0.298241 0.093866 -0.059790
v -0.489623 0.091883 -0.059824
v -0.390366 0.092761 0.334815
v -0.298239 0.094891 0.336038
v -0.484292 0.088911 0.331906
v -0.284326 0.103023 -0.058976
v -0.283810 0.104241 -0.410346
v -0.279368 0.121718 -0.408594
v -0.279350 0.121718 -0.058013
v -0.285655 0.104241 0.337311
v -0.280157 0.410988 -0.410334
v -0.282190 0.121718 0.337006
v -0.277090 0.410988 0.093071
v -0.289174 0.282073 0.337116
v -0.279396 0.410988 0.331814
v -0.427549 0.605211 -0.412110
v -0.487046 0.612249 -0.413391
v -0.468858 0.610868 -0.057602
v -0.412948 0.613008 -0.031096
v -0.342343 0.573231 -0.410554
v -0.470426 0.608408 0.068185
v -0.487745 0.595311 -0.057267
v -0.357022 0.598628 -0.004652
v -0.423488 0.616918 0.111398
v -0.486855 0.593466 0.068186
v -0.484180 0.616186 0.284562
v -0.361950 0.601138 0.180047
v -0.317907 0.575826 -0.003111
v -0.438600 0.610793 0.315544
v -0.284201 0.522898 -0.410438
v -0.504551 0.596778 0.274401
v -0.506143 0.597508 0.319773
v -0.488806 0.610818 0.328303
v -0.317450 0.575006 0.198507
v -0.367769 0.599171 0.302579
v -0.441874 0.604046 0.338809
v -0.373144 0.587878 0.337190
v -0.317031 0.574276 0.305593
v -0.486620 0.607231 0.339879
v -0.316577 0.563791 0.336858
v -0.275713 0.541141 0.311325
v -0.281948 0.517731 0.190598
v -0.282526 0.541671 0.337420
v -0.280539 0.508373 0.335985
v -0.275713 0.541141 0.311325
v -0.282526 0.541671 0.337420
v -0.271538 0.499613 0.315481
v -0.279396 0.410988 0.331814
v -0.281948 0.517731 0.190598
v -0.277090 0.410988 0.093071
v -0.283666 0.524226 -0.000459
v -0.280157 0.410988 -0.410334
v -0.284201 0.522898 -0.410438
v -0.317907 0.575826 -0.003111
v -0.317450 0.575006 0.198507
v -0.486620 0.607231 0.339879
v -0.500126 0.595321 0.329155
v -0.499689 0.595321 0.338281
v -0.298239 0.094891 0.336038
v -0.284326 0.103023 -0.058976
v -0.285655 0.104241 0.337311
v -0.298241 0.093866 -0.059790
v -0.283810 0.104241 -0.410346
v -0.298244 0.093866 -0.411994
v 0.466372 0.829513 -0.432859
v 0.479826 0.814323 -0.402337
v 0.477542 0.104246 -0.426626
v 0.467987 0.832518 -0.413943
v 0.475536 0.839278 -0.401374
v 0.488336 0.808428 -0.351200
v 0.483280 0.837808 -0.347602
v 0.479145 0.830648 -0.305725
v 0.482626 0.799958 -0.311321
v 0.466624 0.821968 -0.288664
v 0.476083 0.794771 -0.280089
v 0.466918 0.827178 -0.279433
v 0.465957 0.799731 -0.261751
v 0.473824 0.627511 -0.217254
v 0.456146 0.637223 -0.198376
v 0.475032 0.453703 -0.164814
v 0.457845 0.461088 -0.143708
v 0.459707 0.365236 -0.124942
v 0.476344 0.351421 -0.142586
v 0.477382 0.112108 -0.114218
v 0.465134 0.557098 0.353504
v 0.508290 0.501111 0.340281
v 0.503038 0.576178 0.338546
v 0.501607 0.595321 0.338286
v 0.488549 0.607231 0.339927
v 0.445666 0.429268 0.361806
v 0.384863 0.541536 0.356487
v 0.443795 0.604046 0.338812
v 0.503427 0.434893 0.334906
v 0.375084 0.587878 0.337192
v 0.387001 0.432836 0.357626
v 0.389469 0.306411 0.362929
v 0.449731 0.301441 0.356495
v 0.318508 0.563791 0.336818
v 0.318629 0.528698 0.350940
v 0.317177 0.431681 0.352362
v 0.494861 0.286956 0.330843
v 0.392267 0.123538 0.352593
v 0.315176 0.300241 0.354428
v 0.468980 0.135198 0.342708
v 0.284455 0.541671 0.337454
v 0.282470 0.508373 0.335930
v 0.281321 0.410988 0.331783
v 0.503769 0.124228 0.337311
v 0.319176 0.122791 0.347337
v 0.392266 0.103703 0.342940
v 0.291095 0.282073 0.337117
v 0.489527 0.109911 0.336063
v 0.475775 0.101791 0.342269
v 0.500461 0.101841 0.336035
v 0.486212 0.088911 0.331901
v 0.392290 0.092761 0.334767
v 0.309665 0.103521 0.341218
v 0.298271 0.111193 0.339657
v 0.284120 0.121718 0.337023
v 0.300161 0.094891 0.336011
v 0.287582 0.104241 0.337278
v -0.499689 0.595321 0.338281
v -0.463202 0.557098 0.353512
v -0.486620 0.607231 0.339879
v -0.501121 0.576178 0.338578
v -0.441874 0.604046 0.338809
v -0.506375 0.501111 0.340295
v -0.382931 0.541536 0.356445
v -0.443730 0.429268 0.361838
v -0.373144 0.587878 0.337190
v -0.501503 0.434893 0.334959
v -0.316577 0.563791 0.336858
v -0.385063 0.432836 0.357634
v -0.316709 0.528696 0.350920
v -0.447816 0.301441 0.356507
v -0.387544 0.306411 0.362900
v -0.315243 0.431681 0.352396
v -0.492936 0.286956 0.330851
v -0.282526 0.541671 0.337420
v -0.280539 0.508373 0.335985
v -0.467050 0.135198 0.342667
v -0.390338 0.123538 0.352653
v -0.313258 0.300241 0.354413
v -0.279396 0.410988 0.331814
v -0.501835 0.124228 0.337349
v -0.317249 0.122791 0.347341
v -0.390346 0.103703 0.342929
v -0.289174 0.282073 0.337116
v -0.487599 0.109911 0.336127
v -0.473851 0.101791 0.342262
v -0.498526 0.101841 0.336018
v -0.484292 0.088911 0.331906
v -0.390366 0.092761 0.334815
v -0.307736 0.103521 0.341196
v -0.296344 0.111193 0.339657
v -0.282190 0.121718 0.337006
v -0.298239 0.094891 0.336038
v -0.285655 0.104241 0.337311
vt 0.602965 0.275378
vt 0.783270 0.457937
vt 0.783526 0.289795
vt 0.425148 0.457937
vt 0.425248 0.291495
vt 0.669026 0.995991
vt 0.669026 0.642333
vt 0.629911 0.642207
vt 0.541690 0.645857
vt 0.489567 0.645888
vt 0.345806 0.995991
vt 0.429955 0.641828
vt 0.345806 0.642662
vt 0.811129 0.011282
vt 0.840486 0.028379
vt 0.839585 0.004600
vt 0.840486 0.028379
vt 0.879882 0.002685
vt 0.839585 0.004600
vt 0.901173 0.028218
vt 0.900225 0.008974
vt 0.928214 0.131232
vt 0.805648 0.463790
vt 0.813826 0.022744
vt 0.805161 0.009925
vt 0.960679 0.241075
vt 0.983595 0.231410
vt 0.948132 0.102275
vt 0.995857 0.319463
vt 0.973707 0.327646
vt 0.997977 0.466564
vt 0.920135 0.033422
vt 0.908207 0.006448
vt 0.900225 0.008974
vt 0.793939 0.086833
vt 0.777451 0.086167
vt 0.791934 0.092117
vt 0.416294 0.006152
vt 0.420900 0.013340
vt 0.465196 0.002977
vt 0.471066 0.016017
vt 0.567130 0.002843
vt 0.416649 0.031709
vt 0.408244 0.030292
vt 0.408068 0.077829
vt 0.419263 0.074598
vt 0.483667 0.063518
vt 0.567644 0.021540
vt 0.628120 0.003416
vt 0.412993 0.087823
vt 0.427092 0.089721
vt 0.490327 0.081245
vt 0.573123 0.054209
vt 0.627325 0.023597
vt 0.697282 0.002939
vt 0.574328 0.082758
vt 0.628704 0.049676
vt 0.628906 0.082818
vt 0.694112 0.050898
vt 0.697432 0.023786
vt 0.690756 0.086178
vt 0.777451 0.086167
vt 0.783151 0.053967
vt 0.781893 0.026311
vt 0.785936 0.019429
vt 0.793573 0.009413
vt 0.797128 0.023455
vt 0.797800 0.076187
vt 0.799799 0.052976
vt 0.412993 0.087823
vt 0.416446 0.094829
vt 0.813826 0.022744
vt 0.840486 0.028379
vt 0.811129 0.011282
vt 0.805161 0.009925
vt 0.791452 0.108311
vt 0.791934 0.092117
vt 0.777451 0.086167
vt 0.756629 0.103193
vt 0.690756 0.086178
vt 0.762902 0.187573
vt 0.789491 0.203068
vt 0.706539 0.122312
vt 0.711956 0.156749
vt 0.628906 0.082818
vt 0.697327 0.207699
vt 0.722829 0.272027
vt 0.609610 0.156833
vt 0.578566 0.118522
vt 0.789391 0.298618
vt 0.574328 0.082758
vt 0.612272 0.209074
vt 0.610702 0.273246
vt 0.690521 0.336407
vt 0.789597 0.346034
vt 0.515208 0.157771
vt 0.520515 0.208277
vt 0.500470 0.112563
vt 0.522726 0.272341
vt 0.490327 0.081245
vt 0.466991 0.211464
vt 0.609837 0.336176
vt 0.538266 0.336004
vt 0.427092 0.089721
vt 0.797171 0.468365
vt 0.603468 0.472263
vt 0.420483 0.281840
vt 0.420268 0.346039
vt 0.414089 0.467929
vt 0.453470 0.166177
vt 0.419886 0.171436
vt 0.416848 0.100501
vt 0.416446 0.094829
vt 0.793939 0.086833
vt 0.797800 0.076187
vt 0.777451 0.086167
vt 0.291963 0.629012
vt 0.030880 0.627666
vt 0.026660 0.624283
vt 0.307622 0.623826
vt 0.020131 0.619454
vt 0.306688 0.615890
vt 0.299629 0.563131
vt 0.279115 0.531461
vt 0.019235 0.512832
vt 0.029194 0.506095
vt 0.035058 0.502032
vt 0.262302 0.505907
vt 0.220863 0.503438
vt 0.827760 0.892822
vt 0.674272 0.884737
vt 0.674272 0.876651
vt 0.827248 0.883519
vt 0.997705 0.892822
vt 0.826384 0.873266
vt 0.997705 0.884362
vt 0.674272 0.649453
vt 0.997705 0.875902
vt 0.997705 0.789244
vt 0.997705 0.724823
vt 0.997705 0.686727
vt 0.986071 0.650572
vt 0.997705 0.648665
vt 0.811817 0.657099
vt 0.871074 0.659339
vt 0.977610 0.650620
vt 0.958698 0.651991
vt 0.870814 0.647253
vt 0.810570 0.645050
vt 0.674272 0.639018
vt 0.986609 0.638865
vt 0.992829 0.638303
vt 0.962684 0.639555
vt 0.997705 0.637871
vt 0.674272 0.629788
vt 0.809802 0.631022
vt 0.991037 0.627784
vt 0.997705 0.627077
vt 0.674272 0.884737
vt 0.827760 0.892822
vt 0.674272 0.892822
vt 0.674244 0.897657
vt 0.827653 0.997361
vt 0.674244 0.997361
vt 0.827653 0.897657
vt 0.998241 0.947509
vt 0.998241 0.997361
vt 0.998241 0.897657
vt 0.675623 0.621467
vt 0.675623 0.628225
vt 0.827309 0.628496
vt 0.827311 0.621149
vt 0.675623 0.474846
vt 0.998229 0.627550
vt 0.892840 0.474380
vt 0.998233 0.620794
vt 0.998075 0.547475
vt 0.997917 0.474156
vt 0.809802 0.631022
vt 0.674272 0.629788
vt 0.674272 0.598657
vt 0.821005 0.600372
vt 0.674272 0.549876
vt 0.869648 0.634645
vt 0.810570 0.645050
vt 0.833227 0.569351
vt 0.887495 0.606614
vt 0.870814 0.647253
vt 0.967829 0.623837
vt 0.835549 0.544977
vt 0.918449 0.572476
vt 0.985454 0.600493
vt 0.674272 0.511541
vt 0.962684 0.639555
vt 0.986609 0.638865
vt 0.991037 0.627784
vt 0.926546 0.544905
vt 0.978057 0.567950
vt 0.997705 0.604012
vt 0.997705 0.560288
vt 0.978226 0.541360
vt 0.997705 0.627077
vt 0.997705 0.538370
vt 0.982869 0.517539
vt 0.927278 0.507917
vt 0.997705 0.522125
vt 0.997705 0.503499
vt 0.997705 0.522125
vt 0.982869 0.517539
vt 0.986433 0.496762
vt 0.997705 0.472907
vt 0.927278 0.507917
vt 0.893129 0.472907
vt 0.841797 0.510934
vt 0.674272 0.472907
vt 0.674272 0.511541
vt 0.835549 0.544977
vt 0.926546 0.544905
vt 0.997705 0.627077
vt 0.997705 0.637871
vt 0.992829 0.638303
vt 0.827309 0.628496
vt 0.998226 0.634306
vt 0.998229 0.627550
vt 0.827307 0.634662
vt 0.675623 0.628225
vt 0.675623 0.634982
vt 0.291963 0.629012
vt 0.026660 0.624283
vt 0.030880 0.627666
vt 0.307622 0.623826
vt 0.020131 0.619454
vt 0.306688 0.615890
vt 0.299629 0.563131
vt 0.279115 0.531461
vt 0.019235 0.512832
vt 0.029194 0.506095
vt 0.035058 0.502032
vt 0.262302 0.505907
vt 0.220863 0.503438
vt 0.674272 0.892822
vt 0.827760 0.892822
vt 0.674272 0.884737
vt 0.674272 0.884737
vt 0.827760 0.892822
vt 0.674272 0.876651
vt 0.827248 0.883519
vt 0.997705 0.892822
vt 0.997705 0.884362
vt 0.826384 0.873266
vt 0.674272 0.649453
vt 0.997705 0.875902
vt 0.997705 0.789244
vt 0.997705 0.724823
vt 0.997705 0.686727
vt 0.986071 0.650572
vt 0.997705 0.648665
vt 0.811817 0.657099
vt 0.871074 0.659339
vt 0.977610 0.650620
vt 0.958698 0.651991
vt 0.870814 0.647253
vt 0.810570 0.645050
vt 0.674272 0.639018
vt 0.986609 0.638865
vt 0.992829 0.638303
vt 0.962684 0.639555
vt 0.997705 0.637871
vt 0.674272 0.629788
vt 0.809802 0.631022
vt 0.991037 0.627784
vt 0.997705 0.627077
vt 0.674244 0.897657
vt 0.674244 0.997361
vt 0.827653 0.997361
vt 0.827653 0.897657
vt 0.998241 0.947509
vt 0.998241 0.997361
vt 0.998241 0.897657
vt 0.827309 0.628496
vt 0.675623 0.628225
vt 0.675623 0.621467
vt 0.827311 0.621149
vt 0.998229 0.627550
vt 0.675623 0.474846
vt 0.998233 0.620794
vt 0.892840 0.474380
vt 0.998075 0.547475
vt 0.997917 0.474156
vt 0.674272 0.598657
vt 0.674272 0.629788
vt 0.809802 0.631022
vt 0.821005 0.600372
vt 0.674272 0.549876
vt 0.869648 0.634645
vt 0.810570 0.645050
vt 0.833227 0.569351
vt 0.887495 0.606614
vt 0.870814 0.647253
vt 0.967829 0.623837
vt 0.918449 0.572476
vt 0.835549 0.544977
vt 0.985454 0.600493
vt 0.674272 0.511541
vt 0.962684 0.639555
vt 0.986609 0.638865
vt 0.991037 0.627784
vt 0.926546 0.544905
vt 0.978057 0.567950
vt 0.997705 0.604012
vt 0.997705 0.560288
vt 0.978226 0.541360
vt 0.997705 0.627077
vt 0.997705 0.538370
vt 0.982869 0.517539
vt 0.927278 0.507917
vt 0.997705 0.522125
vt 0.997705 0.503499
vt 0.982869 0.517539
vt 0.997705 0.522125
vt 0.986433 0.496762
vt 0.997705 0.472907
vt 0.927278 0.507917
vt 0.893129 0.472907
vt 0.841797 0.510934
vt 0.674272 0.472907
vt 0.674272 0.511541
vt 0.835549 0.544977
vt 0.926546 0.544905
vt 0.997705 0.627077
vt 0.992829 0.638303
vt 0.997705 0.637871
vt 0.998226 0.634306
vt 0.827309 0.628496
vt 0.998229 0.627550
vt 0.827307 0.634662
vt 0.675623 0.628225
vt 0.675623 0.634982
vt 0.805161 0.009925
vt 0.822124 0.024522
vt 0.805648 0.463790
vt 0.813628 0.010015
vt 0.830689 0.004243
vt 0.860741 0.033637
vt 0.860322 0.003400
vt 0.879882 0.002685
vt 0.889637 0.042209
vt 0.892373 0.008974
vt 0.902461 0.047516
vt 0.898397 0.006448
vt 0.920135 0.033422
vt 0.944960 0.140058
vt 0.957782 0.132070
vt 0.974557 0.250464
vt 0.985266 0.244301
vt 0.995857 0.319463
vt 0.987673 0.328086
vt 0.997977 0.466564
vt 0.627087 0.524495
vt 0.597097 0.501167
vt 0.638472 0.501937
vt 0.649185 0.503125
vt 0.655820 0.511006
vt 0.555891 0.533439
vt 0.617193 0.567104
vt 0.654006 0.536084
vt 0.559319 0.499867
vt 0.644574 0.574088
vt 0.557898 0.564187
vt 0.488690 0.561203
vt 0.486628 0.527553
vt 0.630124 0.605104
vt 0.609216 0.602974
vt 0.555645 0.600113
vt 0.479718 0.498400
vt 0.391956 0.557093
vt 0.485397 0.602323
vt 0.399036 0.514920
vt 0.616621 0.623417
vt 0.598036 0.624590
vt 0.564254 0.622299
vt 0.385568 0.496645
vt 0.390061 0.596073
vt 0.379334 0.556864
vt 0.476400 0.619266
vt 0.383633 0.507211
vt 0.378756 0.514463
vt 0.379124 0.500404
vt 0.371784 0.504548
vt 0.371454 0.556290
vt 0.378016 0.601448
vt 0.382833 0.607047
vt 0.387714 0.616715
vt 0.372626 0.607450
vt 0.382676 0.613722
vt 0.649185 0.503125
vt 0.627087 0.524495
vt 0.655820 0.511006
vt 0.638472 0.501937
vt 0.654006 0.536084
vt 0.597097 0.501167
vt 0.617193 0.567104
vt 0.555891 0.533439
vt 0.644574 0.574088
vt 0.559319 0.499867
vt 0.630124 0.605104
vt 0.557898 0.564187
vt 0.609216 0.602974
vt 0.486628 0.527553
vt 0.488690 0.561203
vt 0.555645 0.600113
vt 0.479718 0.498400
vt 0.616621 0.623417
vt 0.598036 0.624590
vt 0.399036 0.514920
vt 0.391956 0.557093
vt 0.485397 0.602323
vt 0.564254 0.622299
vt 0.385568 0.496645
vt 0.390061 0.596073
vt 0.379334 0.556864
vt 0.476400 0.619266
vt 0.383633 0.507211
vt 0.378756 0.514463
vt 0.379124 0.500404
vt 0.371784 0.504548
vt 0.371454 0.556290
vt 0.378016 0.601448
vt 0.382833 0.607047
vt 0.387714 0.616715
vt 0.372626 0.607450
vt 0.382676 0.613722
vn 0.0031 -1.0000 -0.0022
vn -0.0024 -0.9999 0.0116
vn 0.0031 -1.0000 -0.0021
vn 0.0085 -0.9998 -0.0158
vn -0.0020 -0.0049 -1.0000
vn -0.0087 -0.0025 -1.0000
vn -0.0043 -0.0036 -1.0000
vn 0.0012 -0.0059 -1.0000
vn 0.0013 -0.0078 -1.0000
vn 0.0011 -0.0078 -1.0000
vn -0.0002 -0.0086 -1.0000
vn -0.8122 0.3702 -0.4509
vn -0.9568 0.1262 -0.2620
vn -0.8938 -0.1151 -0.4334
vn -0.9567 0.1261 -0.2623
vn -0.9469 0.1479 0.2856
vn -0.8937 -0.1151 -0.4336
vn -0.9287 0.1467 0.3406
vn -0.7911 0.2919 0.5376
vn -0.9646 0.0679 0.2548
vn -0.9864 -0.0077 -0.1644
vn -0.9189 0.2903 -0.2670
vn -0.8893 0.4328 -0.1480
vn -0.9692 0.0541 0.2402
vn -0.8746 0.1233 0.4690
vn -0.8587 0.1480 0.4906
vn -0.8563 0.0764 0.5107
vn -0.9350 0.0443 0.3518
vn -0.9598 0.0130 0.2804
vn -0.8148 0.2200 0.5363
vn -0.7880 0.2860 0.5452
vn -0.7879 0.2861 0.5453
vn 0.4346 0.8949 0.1012
vn 0.2063 0.8780 0.4318
vn 0.2329 0.9310 0.2810
vn 0.0094 0.9892 -0.1464
vn -0.1664 0.8865 -0.4318
vn -0.0046 0.9102 -0.4142
vn 0.0010 0.9524 -0.3047
vn 0.0290 0.8577 -0.5134
vn -0.2619 0.9207 -0.2893
vn -0.4673 0.8359 -0.2879
vn -0.4020 0.8863 0.2300
vn -0.2165 0.9563 0.1965
vn 0.0223 0.9915 0.1285
vn 0.0369 0.9551 -0.2940
vn -0.0073 0.8982 -0.4395
vn -0.3266 0.8518 0.4096
vn -0.1545 0.7927 0.5896
vn 0.0290 0.8496 0.5266
vn 0.0492 0.9949 0.0880
vn -0.0039 0.9718 -0.2359
vn 0.0203 0.9013 -0.4327
vn 0.0378 0.8698 0.4920
vn 0.0052 0.9966 0.0818
vn 0.0035 0.8756 0.4830
vn -0.0119 0.9959 0.0893
vn -0.0108 0.9759 -0.2178
vn -0.0004 0.8623 0.5064
vn 0.2061 0.8781 0.4319
vn 0.1155 0.9893 0.0887
vn 0.0802 0.9507 -0.2997
vn 0.0501 0.8947 -0.4439
vn 0.0218 0.9870 -0.1591
vn 0.1536 0.9125 -0.3791
vn 0.3675 0.8209 0.4371
vn 0.2322 0.9688 0.0864
vn -0.1544 0.7927 0.5897
vn -0.3112 0.8693 0.3841
vn -0.1704 0.5921 0.7877
vn -0.9567 0.1264 -0.2622
vn -0.8131 0.3691 -0.4501
vn -0.8894 0.4323 -0.1485
vn 0.1248 0.4179 0.8999
vn 0.2326 0.9312 0.2806
vn 0.2062 0.8781 0.4318
vn 0.0883 0.4867 0.8691
vn 0.1059 0.3393 0.9347
vn 0.1816 0.3167 0.9310
vn 0.0369 0.5725 0.8191
vn 0.0734 0.3910 0.9175
vn 0.0511 0.3446 0.9374
vn 0.0925 0.2909 0.9523
vn 0.0077 0.3647 0.9311
vn 0.0059 0.5709 0.8210
vn 0.1502 0.2451 0.9578
vn 0.0377 0.8698 0.4920
vn 0.0071 0.3713 0.9285
vn 0.0088 0.3074 0.9515
vn 0.0973 0.1164 0.9884
vn 0.1367 0.1269 0.9825
vn -0.0558 0.3670 0.9285
vn -0.0460 0.3609 0.9315
vn -0.0165 0.5544 0.8321
vn -0.0856 0.3130 0.9459
vn 0.0290 0.8497 0.5265
vn -0.1127 0.3269 0.9383
vn 0.0079 0.1039 0.9946
vn -0.0894 0.1194 0.9888
vn -0.1544 0.7928 0.5896
vn 0.0949 0.0199 0.9953
vn 0.0038 -0.0142 0.9999
vn -0.1466 0.2629 0.9536
vn -0.1363 0.1364 0.9812
vn -0.0891 0.0163 0.9959
vn -0.1121 0.3382 0.9344
vn -0.1876 0.2960 0.9366
vn -0.1500 0.3572 0.9219
vn -0.1705 0.5922 0.7876
vn 0.4343 0.8951 0.1010
vn 0.3674 0.8209 0.4372
vn 0.2060 0.8781 0.4319
vn 0.2127 -0.0062 -0.9771
vn 0.2078 -0.0062 -0.9782
vn 0.1527 -0.0051 -0.9883
vn 0.1546 -0.0051 -0.9880
vn 0.0235 -0.0018 -0.9997
vn 0.0389 -0.0033 -0.9992
vn -0.0135 -0.0007 -0.9999
vn -0.0478 0.0046 -0.9988
vn -0.0569 0.0071 -0.9984
vn -0.0686 0.0063 -0.9976
vn 0.0590 -0.0032 -0.9983
vn 0.0584 -0.0032 -0.9983
vn 0.1431 -0.0062 -0.9897
vn 0.7934 -0.6087 -0.0060
vn 0.8077 -0.5895 -0.0087
vn 0.9914 -0.1304 0.0101
vn 0.9578 -0.2874 0.0021
vn 0.7638 -0.6454 -0.0010
vn 0.9998 -0.0159 0.0101
vn 0.9265 -0.3762 -0.0037
vn 0.9862 0.1648 0.0171
vn 0.9999 -0.0078 -0.0081
vn 0.9999 -0.0023 0.0133
vn 0.9967 -0.0681 0.0443
vn 0.9998 -0.0208 0.0012
vn 0.9877 -0.0556 0.1461
vn 0.9983 0.0575 0.0035
vn 0.9837 0.1791 0.0182
vn 0.9856 0.1672 -0.0271
vn 0.9828 -0.0526 0.1773
vn 0.9955 0.0907 -0.0257
vn 0.8337 0.5513 -0.0303
vn 0.8394 0.5431 0.0202
vn 0.8643 0.5024 0.0249
vn 0.9048 0.3543 0.2364
vn 0.9073 0.3175 0.2756
vn 0.8602 0.5071 -0.0536
vn 0.8977 0.4381 0.0478
vn 0.3892 0.9211 0.0109
vn 0.3914 0.9202 0.0056
vn 0.3416 0.9152 0.2138
vn 0.4876 0.8283 0.2761
vn 0.7933 -0.6088 -0.0060
vn 0.6694 -0.7428 -0.0153
vn 0.0010 -1.0000 -0.0062
vn -0.0067 -1.0000 -0.0028
vn 0.0011 -1.0000 -0.0062
vn -0.0182 -0.9998 -0.0046
vn -0.0279 -0.9996 -0.0037
vn -0.0145 -0.9999 0.0006
vn -0.0412 -0.9991 -0.0081
vn -0.9918 -0.1280 -0.0017
vn -0.8190 -0.5738 -0.0004
vn -0.8236 -0.5672 0.0022
vn -0.9954 -0.0960 0.0077
vn -1.0000 -0.0016 -0.0036
vn -0.8281 -0.5606 0.0047
vn -0.9997 -0.0202 0.0127
vn -0.9957 -0.0926 0.0064
vn -0.9998 0.0023 0.0181
vn -0.9988 -0.0389 0.0289
vn 0.3892 0.9211 0.0108
vn -0.1837 0.9826 -0.0256
vn -0.1322 0.9911 -0.0170
vn -0.4661 0.8838 -0.0410
vn 0.4086 0.9123 -0.0294
vn 0.8394 0.5432 0.0201
vn -0.4249 0.9050 -0.0217
vn -0.0584 0.9983 0.0056
vn 0.8338 0.5512 -0.0303
vn 0.3687 0.9294 -0.0179
vn -0.7106 0.7035 -0.0093
vn -0.3575 0.9338 0.0134
vn -0.1418 0.9742 0.1756
vn -0.8672 0.4977 -0.0170
vn 0.9047 0.3543 0.2366
vn 0.3414 0.9153 0.2138
vn -0.6596 0.7515 -0.0147
vn -0.3212 0.9304 0.1765
vn -0.1460 0.9416 0.3035
vn -0.3036 0.8979 0.3188
vn -0.5604 0.8201 0.1159
vn 0.4874 0.8284 0.2761
vn -0.4809 0.8374 0.2598
vn -0.8912 0.4435 0.0954
vn -0.9652 0.2562 -0.0518
vn -0.8294 0.4854 0.2767
vn -0.9339 0.0414 0.3551
vn -0.8295 0.4852 0.2765
vn -0.8912 0.4435 0.0953
vn -0.9901 0.0180 0.1394
vn -0.9941 -0.0235 0.1057
vn -0.9990 0.0445 -0.0010
vn -0.9520 0.3061 0.0001
vn -0.9990 0.0454 -0.0040
vn -0.7106 0.7035 -0.0094
vn -0.6595 0.7515 -0.0147
vn 0.4876 0.8282 0.2762
vn 0.8978 0.4379 0.0479
vn 0.9073 0.3174 0.2757
vn -0.8235 -0.5673 0.0022
vn -0.5724 -0.8199 0.0033
vn -0.5700 -0.8216 0.0012
vn -0.8190 -0.5738 -0.0003
vn -0.5676 -0.8233 -0.0010
vn -0.2090 -0.0062 -0.9779
vn -0.1538 -0.0051 -0.9881
vn -0.2074 -0.0062 -0.9782
vn -0.1535 -0.0051 -0.9881
vn -0.0239 -0.0018 -0.9997
vn -0.0386 -0.0033 -0.9992
vn 0.0135 -0.0006 -0.9999
vn 0.0477 0.0046 -0.9989
vn 0.0566 0.0071 -0.9984
vn 0.0685 0.0063 -0.9976
vn -0.0571 -0.0032 -0.9984
vn -0.0587 -0.0032 -0.9983
vn -0.1392 -0.0062 -0.9902
vn -0.6693 -0.7428 -0.0152
vn -0.7933 -0.6088 -0.0061
vn -0.8077 -0.5896 -0.0086
vn -0.8077 -0.5895 -0.0087
vn -0.9914 -0.1304 0.0102
vn -0.9578 -0.2874 0.0021
vn -0.7638 -0.6454 -0.0010
vn -0.9265 -0.3762 -0.0036
vn -0.9998 -0.0160 0.0101
vn -0.9862 0.1648 0.0170
vn -0.9999 -0.0078 -0.0081
vn -0.9999 -0.0023 0.0134
vn -0.9967 -0.0681 0.0444
vn -0.9998 -0.0208 0.0012
vn -0.9877 -0.0557 0.1463
vn -0.9983 0.0574 0.0036
vn -0.9837 0.1791 0.0183
vn -0.9856 0.1672 -0.0270
vn -0.9828 -0.0526 0.1772
vn -0.9955 0.0907 -0.0257
vn -0.8338 0.5513 -0.0302
vn -0.8393 0.5432 0.0202
vn -0.8643 0.5024 0.0249
vn -0.9048 0.3542 0.2364
vn -0.9073 0.3175 0.2756
vn -0.8602 0.5071 -0.0536
vn -0.8978 0.4379 0.0479
vn -0.3892 0.9211 0.0108
vn -0.3915 0.9202 0.0056
vn -0.3409 0.9154 0.2140
vn -0.4867 0.8287 0.2765
vn -0.0011 -1.0000 -0.0062
vn -0.0010 -1.0000 -0.0062
vn 0.0067 -1.0000 -0.0028
vn 0.0183 -0.9998 -0.0046
vn 0.0279 -0.9996 -0.0036
vn 0.0145 -0.9999 0.0006
vn 0.0412 -0.9991 -0.0081
vn 0.8236 -0.5672 0.0021
vn 0.8189 -0.5739 -0.0004
vn 0.9918 -0.1280 -0.0016
vn 0.9953 -0.0960 0.0077
vn 0.8281 -0.5606 0.0047
vn 1.0000 -0.0015 -0.0036
vn 0.9957 -0.0926 0.0064
vn 0.9997 -0.0202 0.0127
vn 0.9998 0.0023 0.0180
vn 0.9988 -0.0389 0.0289
vn 0.1838 0.9826 -0.0256
vn -0.3892 0.9211 0.0107
vn -0.3913 0.9202 0.0056
vn 0.1322 0.9911 -0.0171
vn 0.4659 0.8839 -0.0408
vn -0.4086 0.9123 -0.0294
vn -0.8393 0.5432 0.0201
vn 0.4249 0.9050 -0.0217
vn 0.0585 0.9983 0.0057
vn -0.8338 0.5512 -0.0302
vn -0.3687 0.9294 -0.0179
vn 0.3576 0.9338 0.0133
vn 0.7106 0.7035 -0.0093
vn 0.1417 0.9742 0.1755
vn 0.8672 0.4977 -0.0172
vn -0.9047 0.3542 0.2366
vn -0.3415 0.9152 0.2138
vn 0.6596 0.7515 -0.0148
vn 0.3212 0.9304 0.1764
vn 0.1459 0.9416 0.3036
vn 0.3036 0.8979 0.3188
vn 0.5605 0.8200 0.1160
vn -0.4875 0.8283 0.2762
vn 0.4810 0.8373 0.2600
vn 0.8912 0.4434 0.0955
vn 0.9652 0.2562 -0.0519
vn 0.8295 0.4852 0.2765
vn 0.9339 0.0414 0.3551
vn 0.8912 0.4435 0.0953
vn 0.8295 0.4852 0.2766
vn 0.9901 0.0180 0.1394
vn 0.9941 -0.0235 0.1056
vn 0.9990 0.0445 -0.0010
vn 0.9520 0.3061 0.0001
vn 0.9990 0.0455 -0.0039
vn 0.8672 0.4977 -0.0170
vn 0.6595 0.7515 -0.0148
vn -0.4871 0.8285 0.2763
vn -0.9071 0.3180 0.2758
vn -0.8975 0.4384 0.0481
vn 0.5725 -0.8199 0.0033
vn 0.8281 -0.5606 0.0046
vn 0.5701 -0.8216 0.0011
vn 0.8190 -0.5738 -0.0003
vn 0.5676 -0.8233 -0.0010
vn 0.9182 0.0189 -0.3957
vn 0.9520 0.0889 -0.2927
vn 0.9973 0.0016 -0.0730
vn 0.8690 0.0897 -0.4866
vn 0.9150 0.1739 -0.3641
vn 0.9953 0.0961 -0.0102
vn 0.9887 0.1501 0.0013
vn 0.9448 0.1705 0.2797
vn 0.9854 0.0797 0.1504
vn 0.9590 0.2568 0.1203
vn 0.9463 0.1870 0.2638
vn 0.9555 0.2677 0.1241
vn 0.8507 0.2090 0.4823
vn 0.9434 0.0948 0.3177
vn 0.8003 0.1837 0.5708
vn 0.9435 0.0904 0.3189
vn 0.7809 0.1639 0.6028
vn 0.7696 0.1093 0.6291
vn 0.8934 0.0793 0.4421
vn 0.9371 0.0464 0.3461
vn 0.1472 0.1145 0.9825
vn 0.3767 -0.0400 0.9255
vn 0.3094 0.0604 0.9490
vn 0.2963 0.0965 0.9502
vn 0.1361 0.1953 0.9713
vn 0.2474 -0.0156 0.9688
vn -0.0772 0.2153 0.9735
vn -0.0679 0.3252 0.9432
vn 0.4404 -0.0709 0.8950
vn -0.1292 0.3604 0.9238
vn -0.0428 0.0204 0.9989
vn -0.0118 -0.0207 0.9997
vn 0.2769 -0.0292 0.9605
vn -0.1860 0.3605 0.9140
vn -0.2147 0.1902 0.9580
vn -0.3239 0.0054 0.9461
vn 0.3718 -0.0098 0.9283
vn 0.0169 -0.1656 0.9861
vn -0.3313 -0.0154 0.9434
vn 0.2607 -0.0566 0.9638
vn -0.3090 0.1899 0.9319
vn -0.4362 -0.0107 0.8998
vn -0.5112 -0.0121 0.8594
vn 0.0408 -0.0451 0.9981
vn -0.2546 -0.1361 0.9574
vn 0.0060 -0.4379 0.8990
vn -0.4647 -0.0120 0.8854
vn 0.1757 -0.0473 0.9833
vn 0.1773 -0.2956 0.9387
vn -0.0784 -0.1137 0.9904
vn 0.1244 -0.2765 0.9529
vn -0.0063 -0.5877 0.8091
vn -0.1060 -0.3835 0.9174
vn -0.2300 -0.1071 0.9673
vn -0.2121 -0.0590 0.9755
vn -0.1409 -0.3020 0.9428
vn -0.1397 -0.1199 0.9829
vn -0.2964 0.0965 0.9502
vn -0.1472 0.1145 0.9825
vn -0.1363 0.1953 0.9712
vn -0.3093 0.0604 0.9490
vn 0.0678 0.3252 0.9432
vn -0.3766 -0.0399 0.9255
vn 0.0772 0.2153 0.9735
vn -0.2473 -0.0156 0.9688
vn 0.1294 0.3604 0.9238
vn -0.4403 -0.0709 0.8950
vn 0.1861 0.3605 0.9140
vn 0.0427 0.0204 0.9989
vn 0.2147 0.1902 0.9580
vn -0.2770 -0.0292 0.9604
vn 0.0118 -0.0207 0.9997
vn 0.3240 0.0054 0.9461
vn -0.3719 -0.0098 0.9282
vn 0.3093 0.1899 0.9318
vn 0.4363 -0.0108 0.8997
vn -0.2606 -0.0566 0.9638
vn -0.0168 -0.1656 0.9860
vn 0.3312 -0.0154 0.9434
vn 0.5114 -0.0121 0.8593
vn -0.0408 -0.0451 0.9982
vn 0.2546 -0.1361 0.9574
vn -0.0059 -0.4379 0.8990
vn 0.4646 -0.0120 0.8854
vn -0.1754 -0.0472 0.9834
vn -0.1773 -0.2956 0.9387
vn 0.0787 -0.1138 0.9904
vn -0.1245 -0.2765 0.9529
vn 0.0063 -0.5877 0.8090
vn 0.1065 -0.3835 0.9174
vn 0.2300 -0.1072 0.9673
vn 0.2116 -0.0590 0.9756
vn 0.1411 -0.3020 0.9428
vn 0.1389 -0.1199 0.9830
usemtl t1/levels/hunter-city/hotel/restaurant/hun-rest-couch-b:default
s 1
f 1/1/1 2/2/2 3/3/2
f 1/1/1 4/4/3 2/2/2
f 4/4/3 1/1/1 5/5/4
f 6/6/5 7/7/6 8/8/6
f 6/6/5 8/8/6 9/9/7
f 9/9/7 10/10/8 6/6/5
f 11/11/9 6/6/5 10/10/8
f 11/11/9 10/10/8 12/12/10
f 11/11/9 12/12/10 13/13/11
f 14/14/12 15/15/13 16/16/14
f 17/17/15 18/18/16 19/19/17
f 17/17/15 20/20/18 18/18/16
f 20/20/18 21/21/19 18/18/16
f 20/20/18 17/17/15 22/22/20
f 17/17/15 23/23/21 22/22/20
f 24/24/22 23/23/21 17/17/15
f 25/25/23 23/23/21 24/24/22
f 26/26/24 22/22/20 23/23/21
f 27/27/25 22/22/20 26/26/24
f 27/27/25 28/28/26 22/22/20
f 20/20/18 22/22/20 28/28/26
f 29/29/27 27/27/25 26/26/24
f 29/29/27 26/26/24 30/30/28
f 30/30/28 26/26/24 23/23/21
f 30/30/28 23/23/21 31/31/29
f 31/31/29 29/29/27 30/30/28
f 20/20/18 28/28/26 32/32/30
f 20/20/18 32/32/30 33/33/31
f 20/20/18 33/33/31 34/34/32
f 35/35/33 36/36/34 37/37/35
f 38/38/36 39/39/37 40/40/38
f 39/39/37 41/41/39 40/40/38
f 42/42/40 40/40/38 41/41/39
f 39/39/37 43/43/41 41/41/39
f 43/43/41 39/39/37 44/44/42
f 43/43/41 44/44/42 45/45/43
f 43/43/41 45/45/43 46/46/44
f 41/41/39 43/43/41 46/46/44
f 41/41/39 46/46/44 47/47/45
f 42/42/40 41/41/39 48/48/46
f 47/47/45 48/48/46 41/41/39
f 49/49/47 42/42/40 48/48/46
f 46/46/44 45/45/43 50/50/48
f 46/46/44 50/50/48 51/51/49
f 47/47/45 46/46/44 51/51/49
f 47/47/45 51/51/49 52/52/50
f 47/47/45 53/53/51 48/48/46
f 52/52/50 53/53/51 47/47/45
f 49/49/47 48/48/46 54/54/52
f 54/54/52 48/48/46 53/53/51
f 55/55/53 49/49/47 54/54/52
f 52/52/50 56/56/54 53/53/51
f 54/54/52 53/53/51 57/57/55
f 58/58/56 57/57/55 53/53/51
f 58/58/56 53/53/51 56/56/54
f 59/59/57 54/54/52 57/57/55
f 59/59/57 60/60/58 54/54/52
f 55/55/53 54/54/52 60/60/58
f 61/61/59 57/57/55 58/58/56
f 61/61/59 59/59/57 57/57/55
f 59/59/57 61/61/59 62/62/60
f 59/59/57 62/62/60 63/63/61
f 60/60/58 59/59/57 63/63/61
f 64/64/62 55/55/53 60/60/58
f 60/60/58 63/63/61 64/64/62
f 65/65/63 55/55/53 64/64/62
f 66/66/64 55/55/53 65/65/63
f 65/65/63 64/64/62 67/67/65
f 67/67/65 64/64/62 63/63/61
f 68/68/66 63/63/61 62/62/60
f 67/67/65 63/63/61 69/69/67
f 68/68/66 69/69/67 63/63/61
f 51/51/68 70/70/69 71/71/70
f 72/72/22 73/73/71 74/74/72
f 72/72/22 74/74/72 75/75/73
f 76/76/74 77/77/75 78/78/76
f 76/76/74 78/78/76 79/79/77
f 80/80/59 79/79/77 78/78/76
f 81/81/78 76/76/74 79/79/77
f 76/76/74 81/81/78 82/82/79
f 80/80/59 83/83/80 79/79/77
f 84/84/81 79/79/77 83/83/80
f 84/84/81 81/81/78 79/79/77
f 85/85/56 83/83/80 80/80/59
f 84/84/81 86/86/82 81/81/78
f 87/87/83 81/81/78 86/86/82
f 82/82/79 81/81/78 87/87/83
f 84/84/81 88/88/84 86/86/82
f 88/88/84 84/84/81 83/83/80
f 88/88/84 83/83/80 89/89/85
f 89/89/85 83/83/80 85/85/56
f 90/90/86 82/82/79 87/87/83
f 89/89/85 85/85/56 91/91/87
f 86/86/82 88/88/84 92/92/88
f 86/86/82 92/92/88 93/93/89
f 86/86/82 93/93/89 87/87/83
f 94/94/90 87/87/83 93/93/89
f 95/95/91 87/87/83 94/94/90
f 95/95/91 90/90/86 87/87/83
f 89/89/85 96/96/92 88/88/84
f 97/97/93 92/92/88 88/88/84
f 97/97/93 88/88/84 96/96/92
f 91/91/87 98/98/94 89/89/85
f 89/89/85 98/98/94 96/96/92
f 99/99/95 92/92/88 97/97/93
f 99/99/95 93/93/89 92/92/88
f 91/91/87 100/100/96 98/98/94
f 99/99/95 97/97/93 101/101/97
f 101/101/97 97/97/93 96/96/92
f 94/94/90 93/93/89 102/102/98
f 103/103/99 102/102/98 93/93/89
f 103/103/99 93/93/89 99/99/95
f 104/104/100 96/96/92 98/98/94
f 98/98/94 100/100/96 104/104/100
f 95/95/91 94/94/90 105/105/101
f 94/94/90 106/106/102 105/105/101
f 94/94/90 102/102/98 106/106/102
f 103/103/99 106/106/102 102/102/98
f 101/101/97 107/107/103 99/99/95
f 108/108/104 99/99/95 107/107/103
f 108/108/104 103/103/99 99/99/95
f 108/108/104 109/109/105 103/103/99
f 103/103/99 109/109/105 106/106/102
f 101/101/97 96/96/92 110/110/106
f 101/101/97 111/111/107 107/107/103
f 110/110/106 111/111/107 101/101/97
f 110/110/106 112/112/108 111/111/107
f 96/96/92 112/112/108 110/110/106
f 104/104/100 113/113/109 96/96/92
f 96/96/92 113/113/109 112/112/108
f 114/114/110 115/115/111 116/116/112
f 117/117/113 118/118/114 119/119/115
f 117/117/113 119/119/115 120/120/116
f 120/120/116 119/119/115 121/121/117
f 120/120/116 121/121/117 122/122/118
f 121/121/117 123/123/119 122/122/118
f 121/121/117 124/124/120 123/123/119
f 121/121/117 125/125/121 124/124/120
f 124/124/120 125/125/121 126/126/122
f 124/124/120 126/126/122 127/127/123
f 124/124/120 127/127/123 128/128/124
f 127/127/123 129/129/125 128/128/124
f 130/130/126 131/131/127 132/132/128
f 133/133/129 130/130/126 132/132/128
f 133/133/129 134/134/130 130/130/126
f 135/135/131 133/133/129 132/132/128
f 135/135/131 136/136/132 133/133/129
f 133/133/129 136/136/132 134/134/130
f 135/135/131 132/132/128 137/137/133
f 135/135/131 138/138/134 136/136/132
f 138/138/134 135/135/131 139/139/135
f 139/139/135 135/135/131 140/140/136
f 140/140/136 135/135/131 141/141/137
f 142/142/138 141/141/137 135/135/131
f 142/142/138 143/143/139 141/141/137
f 144/144/140 135/135/131 137/137/133
f 135/135/131 144/144/140 145/145/141
f 146/146/142 142/142/138 135/135/131
f 146/146/142 135/135/131 147/147/143
f 135/135/131 145/145/141 147/147/143
f 144/144/140 148/148/144 145/145/141
f 148/148/144 147/147/143 145/145/141
f 137/137/133 149/149/145 144/144/140
f 144/144/140 149/149/145 148/148/144
f 137/137/133 150/150/146 149/149/145
f 151/151/147 142/142/138 146/146/142
f 151/151/147 152/152/148 142/142/138
f 152/152/148 143/143/139 142/142/138
f 153/153/149 146/146/142 147/147/143
f 153/153/149 151/151/147 146/146/142
f 148/148/144 153/153/149 147/147/143
f 152/152/148 154/154/150 143/143/139
f 155/155/151 149/149/145 150/150/146
f 155/155/151 156/156/152 149/149/145
f 157/157/153 152/152/148 151/151/147
f 157/157/153 158/158/154 152/152/148
f 159/159/127 160/160/155 161/161/156
f 162/162/157 163/163/158 164/164/159
f 162/162/157 165/165/160 163/163/158
f 166/166/161 163/163/158 165/165/160
f 166/166/161 167/167/162 163/163/158
f 168/168/163 166/166/161 165/165/160
f 169/169/164 170/170/165 171/171/166
f 169/169/164 171/171/166 172/172/167
f 172/172/167 173/173/168 169/169/164
f 172/172/167 171/171/166 174/174/169
f 172/172/167 175/175/170 173/173/168
f 172/172/167 174/174/169 176/176/171
f 177/177/172 175/175/170 172/172/167
f 176/176/171 177/177/172 172/172/167
f 177/177/172 178/178/173 175/175/170
f 179/179/152 180/180/174 181/181/175
f 179/179/152 181/181/175 182/182/176
f 182/182/176 181/181/175 183/183/177
f 182/182/176 184/184/178 179/179/152
f 185/185/179 179/179/152 184/184/178
f 182/182/176 183/183/177 186/186/180
f 182/182/176 187/187/181 184/184/178
f 186/186/180 187/187/181 182/182/176
f 185/185/179 184/184/178 188/188/182
f 184/184/178 189/189/183 188/188/182
f 187/187/181 189/189/183 184/184/178
f 190/190/184 186/186/180 183/183/177
f 190/190/184 191/191/185 186/186/180
f 186/186/180 191/191/185 187/187/181
f 192/192/186 189/189/183 187/187/181
f 191/191/185 192/192/186 187/187/181
f 190/190/184 183/183/177 193/193/187
f 189/189/183 194/194/149 188/188/182
f 189/189/183 195/195/188 194/194/149
f 192/192/186 196/196/189 189/189/183
f 189/189/183 196/196/189 195/195/188
f 190/190/184 197/197/190 191/191/185
f 197/197/190 198/198/191 191/191/185
f 191/191/185 198/198/191 192/192/186
f 196/196/189 192/192/186 199/199/192
f 192/192/186 200/200/193 199/199/192
f 192/192/186 198/198/191 200/200/193
f 201/201/194 200/200/193 198/198/191
f 197/197/190 201/201/194 198/198/191
f 196/196/189 199/199/192 202/202/195
f 201/201/194 203/203/196 200/200/193
f 204/204/197 203/203/196 201/201/194
f 197/197/190 204/204/197 201/201/194
f 197/197/190 205/205/198 204/204/197
f 204/204/197 206/206/199 203/203/196
f 207/207/200 208/208/201 209/209/202
f 207/207/200 209/209/202 210/210/203
f 211/211/204 207/207/200 210/210/203
f 209/209/202 212/212/198 210/210/203
f 210/210/203 212/212/198 211/211/204
f 212/212/198 213/213/205 211/211/204
f 212/212/198 214/214/206 213/213/205
f 215/215/207 213/213/205 214/214/206
f 215/215/207 214/214/206 216/216/187
f 214/214/206 217/217/208 216/216/187
f 217/217/208 214/214/206 212/212/198
f 217/217/208 212/212/198 218/218/209
f 219/219/210 220/220/211 221/221/212
f 222/222/213 223/223/214 224/224/169
f 222/222/213 225/225/215 223/223/214
f 226/226/216 225/225/215 222/222/213
f 226/226/216 227/227/217 225/225/215
f 228/228/218 229/229/219 230/230/220
f 228/228/218 231/231/221 229/229/219
f 232/232/222 229/229/219 231/231/221
f 232/232/222 231/231/221 233/233/223
f 232/232/222 233/233/223 234/234/224
f 232/232/222 234/234/224 235/235/225
f 232/232/222 235/235/225 236/236/226
f 235/235/225 237/237/227 236/236/226
f 238/238/228 237/237/227 235/235/225
f 238/238/228 235/235/225 239/239/229
f 238/238/228 239/239/229 240/240/230
f 241/241/231 242/242/232 243/243/233
f 244/244/234 245/245/232 246/246/235
f 245/245/232 247/247/236 246/246/235
f 247/247/236 245/245/232 248/248/237
f 247/247/236 248/248/237 249/249/238
f 250/250/239 247/247/236 249/249/238
f 246/246/235 247/247/236 250/250/239
f 251/251/240 246/246/235 250/250/239
f 250/250/239 249/249/238 252/252/241
f 252/252/241 253/253/242 250/250/239
f 253/253/242 254/254/243 250/250/239
f 254/254/243 255/255/244 250/250/239
f 255/255/244 256/256/245 250/250/239
f 255/255/244 257/257/246 256/256/245
f 258/258/247 251/251/240 250/250/239
f 250/250/239 259/259/248 258/258/247
f 250/250/239 256/256/245 260/260/249
f 250/250/239 260/260/249 261/261/250
f 250/250/239 261/261/250 259/259/248
f 262/262/251 258/258/247 259/259/248
f 262/262/251 259/259/248 261/261/250
f 263/263/252 251/251/240 258/258/247
f 262/262/251 263/263/252 258/258/247
f 263/263/252 264/264/253 251/251/240
f 265/265/254 260/260/249 256/256/245
f 265/265/254 256/256/245 266/266/255
f 266/266/255 256/256/245 257/257/246
f 267/267/256 260/260/249 265/265/254
f 267/267/256 261/261/250 260/260/249
f 262/262/251 261/261/250 267/267/256
f 266/266/255 257/257/246 268/268/257
f 269/269/258 264/264/253 263/263/252
f 269/269/258 263/263/252 270/270/259
f 271/271/260 265/265/254 266/266/255
f 271/271/260 266/266/255 272/272/261
f 273/273/262 274/274/263 275/275/264
f 273/273/262 275/275/264 276/276/265
f 275/275/264 277/277/266 276/276/265
f 275/275/264 278/278/267 277/277/266
f 276/276/265 277/277/266 279/279/268
f 280/280/269 281/281/270 282/282/271
f 280/280/269 282/282/271 283/283/272
f 284/284/273 280/280/269 283/283/272
f 283/283/272 282/282/271 285/285/274
f 284/284/273 283/283/272 286/286/275
f 283/283/272 285/285/274 287/287/276
f 288/288/277 283/283/272 287/287/276
f 286/286/275 283/283/272 288/288/277
f 288/288/277 287/287/276 289/289/278
f 290/290/279 291/291/280 292/292/281
f 290/290/279 292/292/281 293/293/282
f 294/294/283 290/290/279 293/293/282
f 293/293/282 292/292/281 295/295/284
f 295/295/284 292/292/281 296/296/285
f 294/294/283 293/293/282 297/297/286
f 297/297/286 293/293/282 298/298/287
f 293/293/282 295/295/284 298/298/287
f 295/295/284 296/296/285 299/299/288
f 295/295/284 299/299/288 300/300/289
f 295/295/284 300/300/289 298/298/287
f 297/297/286 298/298/287 301/301/290
f 302/302/291 297/297/286 301/301/290
f 294/294/283 297/297/286 302/302/291
f 300/300/289 303/303/292 298/298/287
f 301/301/290 298/298/287 303/303/292
f 294/294/283 302/302/291 304/304/293
f 299/299/288 305/305/256 300/300/289
f 300/300/289 305/305/256 306/306/294
f 300/300/289 306/306/294 307/307/295
f 300/300/289 307/307/295 303/303/292
f 302/302/291 301/301/290 308/308/296
f 308/308/296 301/301/290 309/309/297
f 301/301/290 303/303/292 309/309/297
f 310/310/298 303/303/292 307/307/295
f 311/311/299 303/303/292 310/310/298
f 311/311/299 309/309/297 303/303/292
f 308/308/296 309/309/297 312/312/300
f 312/312/300 309/309/297 311/311/299
f 310/310/298 307/307/295 313/313/301
f 312/312/300 311/311/299 314/314/302
f 315/315/303 308/308/296 312/312/300
f 315/315/303 312/312/300 314/314/302
f 315/315/303 316/316/304 308/308/296
f 315/315/303 314/314/302 317/317/305
f 318/318/306 319/319/307 320/320/308
f 318/318/306 321/321/309 319/319/307
f 322/322/310 321/321/309 318/318/306
f 319/319/307 321/321/309 323/323/304
f 322/322/310 323/323/304 321/321/309
f 324/324/311 323/323/304 322/322/310
f 324/324/311 325/325/312 323/323/304
f 326/326/313 325/325/312 324/324/311
f 326/326/313 327/327/314 325/325/312
f 327/327/314 328/328/291 325/325/312
f 323/323/304 325/325/312 328/328/291
f 323/323/304 328/328/291 329/329/315
f 330/330/316 331/331/317 332/332/318
f 333/333/319 334/334/269 335/335/320
f 333/333/319 336/336/321 334/334/269
f 336/336/321 337/337/322 334/334/269
f 336/336/321 338/338/323 337/337/322
f 339/339/324 340/340/325 341/341/326
f 339/339/324 342/342/327 340/340/325
f 340/340/325 342/342/327 343/343/328
f 344/344/329 341/341/326 340/340/325
f 340/340/325 345/345/330 344/344/329
f 340/340/325 343/343/328 345/345/330
f 344/344/329 345/345/330 346/346/331
f 344/344/329 346/346/331 347/347/332
f 344/344/329 347/347/332 341/341/326
f 347/347/332 346/346/331 348/348/333
f 347/347/332 348/348/333 349/349/334
f 349/349/334 341/341/326 347/347/332
f 348/348/333 350/350/335 349/349/334
f 349/349/334 350/350/335 351/351/336
f 349/349/334 352/352/337 341/341/326
f 352/352/337 349/349/334 351/351/336
f 352/352/337 351/351/336 353/353/338
f 341/341/326 352/352/337 354/354/339
f 355/355/340 354/354/339 352/352/337
f 355/355/340 352/352/337 353/353/338
f 356/356/341 354/354/339 355/355/340
f 356/356/341 357/357/342 354/354/339
f 357/357/342 341/341/326 354/354/339
f 358/358/343 357/357/342 356/356/341
f 357/357/342 358/358/343 341/341/326
f 359/359/344 360/360/345 361/361/346
f 359/359/344 361/361/346 362/362/347
f 359/359/344 362/362/347 363/363/348
f 359/359/344 364/364/349 360/360/345
f 364/364/349 359/359/344 365/365/350
f 359/359/344 366/366/351 365/365/350
f 359/359/344 363/363/348 366/366/351
f 360/360/345 364/364/349 367/367/352
f 365/365/350 366/366/351 368/368/353
f 364/364/349 365/365/350 369/369/354
f 364/364/349 369/369/354 370/370/355
f 367/367/352 364/364/349 371/371/356
f 364/364/349 370/370/355 371/371/356
f 368/368/353 372/372/357 365/365/350
f 372/372/357 373/373/358 365/365/350
f 369/369/354 365/365/350 373/373/358
f 369/369/354 373/373/358 374/374/359
f 374/374/359 370/370/355 369/369/354
f 367/367/352 371/371/356 375/375/360
f 376/376/361 371/371/356 370/370/355
f 377/377/362 376/376/361 370/370/355
f 374/374/359 377/377/362 370/370/355
f 371/371/356 378/378/363 375/375/360
f 376/376/361 378/378/363 371/371/356
f 379/379/364 373/373/358 372/372/357
f 380/380/365 373/373/358 379/379/364
f 380/380/365 374/374/359 373/373/358
f 374/374/359 380/380/365 381/381/366
f 377/377/362 374/374/359 381/381/366
f 382/382/367 375/375/360 378/378/363
f 377/377/362 383/383/368 376/376/361
f 378/378/363 376/376/361 384/384/369
f 384/384/369 376/376/361 383/383/368
f 377/377/362 385/385/370 383/383/368
f 377/377/362 381/381/366 385/385/370
f 382/382/367 378/378/363 386/386/371
f 387/387/372 386/386/371 378/378/363
f 378/378/363 384/384/369 387/387/372
f 386/386/371 388/388/373 382/382/367
f 386/386/371 389/389/374 388/388/373
f 387/387/372 389/389/374 386/386/371
f 387/387/372 390/390/375 389/389/374
f 387/387/372 384/384/369 390/390/375
f 384/384/369 383/383/368 391/391/376
f 390/390/375 384/384/369 391/391/376
f 392/392/377 391/391/376 383/383/368
f 383/383/368 393/393/378 392/392/377
f 383/383/368 385/385/370 393/393/378
f 390/390/375 391/391/376 394/394/379
f 392/392/377 394/394/379 391/391/376
f 392/392/377 395/395/380 394/394/379
f 392/392/377 393/393/378 395/395/380
f 396/396/381 397/397/382 398/398/383
f 396/396/381 399/399/384 397/397/382
f 400/400/385 398/398/383 397/397/382
f 401/401/386 397/397/382 399/399/384
f 400/400/385 397/397/382 402/402/387
f 402/402/387 397/397/382 403/403/388
f 401/401/386 403/403/388 397/397/382
f 400/400/385 402/402/387 404/404/389
f 403/403/388 401/401/386 405/405/390
f 406/406/391 404/404/389 402/402/387
f 402/402/387 403/403/388 407/407/392
f 408/408/393 402/402/387 407/407/392
f 408/408/393 406/406/391 402/402/387
f 409/409/394 403/403/388 405/405/390
f 410/410/395 403/403/388 409/409/394
f 410/410/395 407/407/392 403/403/388
f 408/408/393 407/407/392 411/411/396
f 411/411/396 407/407/392 410/410/395
f 409/409/394 405/405/390 412/412/397
f 413/413/398 406/406/391 408/408/393
f 408/408/393 414/414/399 413/413/398
f 408/408/393 411/411/396 414/414/399
f 409/409/394 412/412/397 415/415/400
f 416/416/401 410/410/395 409/409/394
f 416/416/401 409/409/394 415/415/400
f 411/411/396 410/410/395 417/417/402
f 417/417/402 410/410/395 416/416/401
f 414/414/399 411/411/396 418/418/403
f 417/417/402 418/418/403 411/411/396
f 415/415/400 412/412/397 419/419/404
f 417/417/402 416/416/401 420/420/405
f 415/415/400 421/421/406 416/416/401
f 421/421/406 420/420/405 416/416/401
f 420/420/405 422/422/407 417/417/402
f 417/417/402 422/422/407 418/418/403
f 415/415/400 419/419/404 423/423/408
f 423/423/408 424/424/409 415/415/400
f 415/415/400 424/424/409 421/421/406
f 425/425/410 423/423/408 419/419/404
f 425/425/410 426/426/411 423/423/408
f 423/423/408 426/426/411 424/424/409
f 424/424/409 427/427/412 421/421/406
f 424/424/409 426/426/411 427/427/412
f 427/427/412 428/428/413 421/421/406
f 421/421/406 428/428/413 420/420/405
f 428/428/413 429/429/414 420/420/405
f 430/430/415 420/420/405 429/429/414
f 430/430/415 422/422/407 420/420/405
f 427/427/412 431/431/416 428/428/413
f 428/428/413 431/431/416 429/429/414
f 432/432/417 429/429/414 431/431/416
f 432/432/417 430/430/415 429/429/414
