# Blender v2.79 (sub 0) OBJ File: ''
# www.blender.org
mtllib bread4.mtl
o breadHalf.002_Circle.003
v 0.083892 -0.008834 0.067532
v 0.075200 0.126213 0.068803
v 0.041725 0.130667 0.073702
v 0.050964 -0.008040 0.072350
v 0.008249 0.126213 0.078600
v 0.016935 -0.008788 0.077330
v -0.022943 0.113183 0.083165
v -0.015593 -0.009656 0.082089
v -0.049665 0.093376 0.087075
v -0.044017 -0.008698 0.086248
v -0.069991 0.069706 0.090049
v -0.066165 -0.003905 0.089489
v -0.082428 0.045398 0.091868
v -0.080489 0.006678 0.091585
v -0.086031 0.023569 0.092395
v 0.113771 -0.009857 0.063159
v 0.106396 0.113183 0.064238
v 0.138930 -0.008972 0.059477
v 0.133248 0.093376 0.060309
v 0.157869 -0.004013 0.056705
v 0.154030 0.069705 0.057267
v 0.169372 0.006678 0.055022
v 0.167434 0.045398 0.055305
v 0.172644 0.023568 0.054543
v 0.023799 0.009130 -0.145527
v 0.014663 0.009417 -0.144234
v 0.011951 0.059524 -0.144884
v 0.021238 0.057915 -0.146208
v 0.002669 0.057915 -0.143531
v 0.005217 0.009147 -0.142927
v -0.005976 0.053208 -0.142244
v -0.003817 0.008833 -0.141711
v -0.013378 0.046053 -0.141112
v -0.011715 0.009179 -0.140681
v -0.018992 0.037502 -0.140138
v -0.017858 0.010910 -0.139796
v -0.022411 0.028721 -0.139436
v -0.021833 0.014733 -0.139236
v -0.023385 0.020835 -0.139118
v 0.032084 0.008760 -0.146732
v 0.029898 0.053208 -0.147399
v 0.039055 0.009080 -0.147787
v 0.037360 0.046053 -0.148369
v 0.044295 0.010871 -0.148627
v 0.043145 0.037502 -0.149055
v 0.047469 0.014733 -0.149202
v 0.046887 0.028721 -0.149427
v 0.048356 0.020835 -0.149474
v -0.074473 0.060143 -0.094840
v -0.084796 0.038181 -0.093187
v 0.093037 -0.010359 -0.120071
v 0.109129 -0.006338 -0.121901
v -0.036008 0.098851 -0.100971
v -0.057738 0.081342 -0.097520
v 0.050062 -0.010210 -0.111473
v 0.072764 -0.010735 -0.116744
v 0.067287 0.098783 -0.116144
v 0.042260 0.110164 -0.112681
v 0.015640 0.114039 -0.108850
v -0.010982 0.110209 -0.104857
v -0.004173 -0.010248 -0.103412
v 0.023497 -0.009633 -0.107243
v 0.106256 0.060113 -0.121353
v 0.089127 0.081283 -0.119082
v -0.052585 -0.010087 -0.098791
v -0.029800 -0.010600 -0.101219
v 0.121764 0.018395 -0.123403
v 0.117405 0.038178 -0.122828
v -0.083199 0.003101 -0.093435
v -0.070924 -0.006158 -0.095661
v 0.119043 0.003104 -0.123036
v -0.087801 0.018385 -0.092705
v -0.087908 0.071864 0.030769
v -0.101326 0.045640 0.032733
v -0.093733 0.071041 -0.033114
v -0.106777 0.045548 -0.031206
v 0.137492 -0.013019 -0.002215
v 0.157925 -0.007669 -0.005205
v 0.125385 -0.011476 -0.065179
v 0.145249 -0.006276 -0.068085
v -0.037148 0.118770 0.023341
v -0.065978 0.097402 0.027560
v -0.044389 0.116640 -0.040335
v -0.072415 0.095867 -0.036234
v 0.078112 -0.012870 0.006475
v 0.110348 -0.013973 0.001757
v 0.067660 -0.011332 -0.056733
v 0.098998 -0.012404 -0.061318
v 0.102392 0.118770 0.002922
v 0.068736 0.132828 0.007847
v 0.091264 0.116640 -0.060186
v 0.058545 0.130307 -0.055398
v 0.032620 0.137633 0.013132
v -0.003496 0.132828 0.018417
v 0.023435 0.134978 -0.050260
v -0.011674 0.130307 -0.045123
v 0.005875 -0.012819 0.017045
v 0.042588 -0.012013 0.011673
v -0.002565 -0.011283 -0.046456
v 0.033126 -0.010499 -0.051679
v 0.153783 0.071864 -0.004598
v 0.131362 0.097402 -0.001317
v 0.141222 0.071041 -0.067496
v 0.119426 0.095867 -0.064307
v -0.059885 -0.012723 0.026668
v -0.029219 -0.013757 0.022181
v -0.066491 -0.011189 -0.037101
v -0.036680 -0.012194 -0.041464
v 0.173867 0.022088 -0.007538
v 0.168245 0.045640 -0.006715
v 0.160746 0.022652 -0.070353
v 0.155281 0.045548 -0.069553
v -0.099234 0.003865 0.032426
v -0.083780 -0.007552 0.030165
v -0.104743 0.004937 -0.031503
v -0.089720 -0.006162 -0.033702
v 0.170337 0.003865 -0.007021
v 0.157314 0.004937 -0.069851
v -0.105214 0.022088 0.033301
v -0.110556 0.022652 -0.030652
vt 0.499245 0.010323
vt 0.513194 0.219800
vt 0.565689 0.226629
vt 0.550871 0.011475
vt 0.618162 0.219639
vt 0.604222 0.010234
vt 0.667034 0.199350
vt 0.655218 0.008807
vt 0.708882 0.168559
vt 0.699783 0.010225
vt 0.740693 0.131790
vt 0.734518 0.017607
vt 0.760134 0.094052
vt 0.757001 0.033990
vt 0.765730 0.060179
vt 0.452397 0.008809
vt 0.464253 0.199662
vt 0.412955 0.010242
vt 0.422108 0.169001
vt 0.383274 0.017980
vt 0.389469 0.132331
vt 0.365263 0.034593
vt 0.368396 0.094656
vt 0.360174 0.060803
vt 0.279037 0.190406
vt 0.295526 0.189925
vt 0.300329 0.100374
vt 0.283561 0.103217
vt 0.317086 0.103281
vt 0.312565 0.190438
vt 0.332689 0.111723
vt 0.328853 0.191027
vt 0.346045 0.124534
vt 0.343089 0.190433
vt 0.356194 0.139837
vt 0.354185 0.187361
vt 0.362391 0.155544
vt 0.361372 0.180544
vt 0.364168 0.169644
vt 0.264074 0.191037
vt 0.267923 0.111598
vt 0.251477 0.190440
vt 0.254452 0.124359
vt 0.242000 0.187219
vt 0.244016 0.139622
vt 0.236253 0.180303
vt 0.237273 0.155303
vt 0.234636 0.169393
vt 0.434853 0.896615
vt 0.360449 0.974792
vt 0.371059 0.984202
vt 0.463502 0.914726
vt 0.172575 0.273476
vt 0.249688 0.195674
vt 0.239721 0.194688
vt 0.146595 0.272636
vt 0.370330 0.871650
vt 0.333955 0.959355
vt 0.347701 0.966275
vt 0.402983 0.882064
vt 0.243935 0.273343
vt 0.278264 0.193645
vt 0.262535 0.194875
vt 0.205248 0.272337
vt 0.244441 0.872891
vt 0.278422 0.958992
vt 0.292217 0.954226
vt 0.276278 0.866404
vt 0.307316 0.864223
vt 0.306135 0.953120
vt 0.320004 0.954831
vt 0.338378 0.865722
vt 0.339193 0.273045
vt 0.314239 0.193055
vt 0.295949 0.193091
vt 0.290444 0.272677
vt 0.179623 0.898738
vt 0.251905 0.974867
vt 0.264732 0.966138
vt 0.211784 0.883823
vt 0.419981 0.272905
vt 0.346396 0.194484
vt 0.331629 0.193836
vt 0.382752 0.272463
vt 0.126847 0.937293
vt 0.233253 0.993879
vt 0.241037 0.984358
vt 0.150321 0.916887
vt 0.474803 0.266214
vt 0.367169 0.189802
vt 0.358029 0.193835
vt 0.450173 0.272482
vt 0.231908 0.190174
vt 0.125502 0.265509
vt 0.378370 0.993879
vt 0.485171 0.935313
vt 0.225767 0.180928
vt 0.104298 0.247499
vt 0.498245 0.249269
vt 0.374342 0.180928
vt 0.518910 0.642581
vt 0.503815 0.736723
vt 0.545984 0.748056
vt 0.562041 0.652101
vt 0.477080 0.821093
vt 0.514173 0.835685
vt 0.111837 0.590769
vt 0.112617 0.475184
vt 0.074745 0.470691
vt 0.073721 0.586310
vt 0.128059 0.365256
vt 0.092711 0.361425
vt 0.415529 0.625019
vt 0.407284 0.717118
vt 0.456803 0.725800
vt 0.469152 0.632798
vt 0.393317 0.798964
vt 0.436098 0.808479
vt 0.220142 0.599900
vt 0.220512 0.483963
vt 0.161598 0.480001
vt 0.161214 0.595823
vt 0.227369 0.370335
vt 0.173272 0.368375
vt 0.197433 0.626577
vt 0.207208 0.718266
vt 0.257226 0.712337
vt 0.251918 0.621462
vt 0.221813 0.800130
vt 0.264841 0.793955
vt 0.306275 0.620048
vt 0.307207 0.709840
vt 0.357212 0.711734
vt 0.360756 0.620635
vt 0.307585 0.791970
vt 0.350328 0.793357
vt 0.352199 0.601970
vt 0.353941 0.485806
vt 0.286044 0.486206
vt 0.285068 0.601832
vt 0.350390 0.371235
vt 0.287720 0.371092
vt 0.094294 0.645290
vt 0.110233 0.738795
vt 0.157605 0.727425
vt 0.144058 0.634965
vt 0.137215 0.823249
vt 0.178794 0.810173
vt 0.472570 0.595556
vt 0.474708 0.479426
vt 0.418630 0.483336
vt 0.416520 0.599573
vt 0.461737 0.367625
vt 0.409960 0.370155
vt 0.015876 0.663121
vt 0.031979 0.760764
vt 0.067538 0.750566
vt 0.050918 0.655386
vt 0.067319 0.853595
vt 0.099227 0.838105
vt 0.551659 0.589076
vt 0.554451 0.471968
vt 0.519177 0.475314
vt 0.516924 0.591503
vt 0.536282 0.359076
vt 0.503252 0.364064
vt 0.044082 0.467115
vt 0.043155 0.583788
vt 0.064166 0.356019
vt 0.581385 0.757883
vt 0.597046 0.659194
vt 0.546128 0.852086
vt 0.008820 0.463753
vt 0.009884 0.583812
vt 0.033576 0.345367
vt 0.586471 0.589301
vt 0.589984 0.469273
vt 0.569670 0.349690
vn 0.0864 -0.6826 0.7257
vn 0.2812 0.6709 0.6862
vn 0.1044 0.6947 0.7117
vn 0.1057 -0.6785 0.7270
vn -0.0721 0.6703 0.7386
vn 0.1220 -0.6831 0.7201
vn -0.2280 0.6017 0.7655
vn 0.1035 -0.6898 0.7165
vn -0.3516 0.5048 0.7884
vn 0.0235 -0.6938 0.7198
vn -0.4506 0.3850 0.8054
vn -0.1763 -0.6528 0.7367
vn -0.5354 0.2191 0.8157
vn -0.4630 -0.4263 0.7771
vn -0.5825 -0.0526 0.8111
vn 0.1037 -0.6908 0.7155
vn 0.4378 0.6029 0.6670
vn 0.1976 -0.6950 0.6913
vn 0.5602 0.5085 0.6540
vn 0.4292 -0.6322 0.6450
vn 0.6548 0.3967 0.6433
vn 0.7133 -0.3525 0.6057
vn 0.7338 0.2515 0.6311
vn 0.7896 0.0177 0.6134
vn -0.1421 -0.5348 -0.8329
vn -0.1200 -0.5268 -0.8415
vn -0.1348 0.3075 -0.9419
vn -0.0437 0.2909 -0.9557
vn -0.2253 0.2890 -0.9305
vn -0.1006 -0.5327 -0.8403
vn -0.2953 0.2431 -0.9240
vn -0.1013 -0.5385 -0.8365
vn -0.3407 0.1874 -0.9213
vn -0.1528 -0.5173 -0.8420
vn -0.3733 0.1292 -0.9187
vn -0.2797 -0.4089 -0.8686
vn -0.3942 0.0634 -0.9168
vn -0.3855 -0.1992 -0.9010
vn -0.4049 -0.0307 -0.9139
vn -0.1432 -0.5427 -0.8276
vn 0.0269 0.2458 -0.9690
vn -0.0871 -0.5142 -0.8532
vn 0.0699 0.1909 -0.9791
vn 0.0312 -0.3798 -0.9245
vn 0.0943 0.1358 -0.9862
vn 0.1124 -0.1587 -0.9809
vn 0.1093 0.0762 -0.9911
vn 0.1201 -0.0063 -0.9927
vn -0.7144 0.3903 -0.5808
vn -0.7814 0.2096 -0.5877
vn 0.0882 -0.9182 -0.3862
vn 0.3336 -0.7490 -0.5725
vn -0.4887 0.6638 -0.5662
vn -0.6219 0.5361 -0.5709
vn -0.0677 -0.9727 -0.2220
vn -0.0431 -0.9649 -0.2592
vn 0.3109 0.6695 -0.6747
vn 0.1299 0.7633 -0.6328
vn -0.0870 0.7972 -0.5974
vn -0.3046 0.7600 -0.5742
vn -0.0064 -0.9717 -0.2360
vn -0.0352 -0.9714 -0.2349
vn 0.5200 0.4079 -0.7505
vn 0.4372 0.5452 -0.7153
vn -0.1732 -0.9292 -0.3265
vn -0.0339 -0.9669 -0.2529
vn 0.6176 0.0071 -0.7865
vn 0.5786 0.2456 -0.7777
vn -0.7140 -0.4667 -0.5219
vn -0.4343 -0.7890 -0.4347
vn 0.5690 -0.3826 -0.7279
vn -0.8142 -0.0622 -0.5772
vn -0.8131 0.5585 0.1643
vn -0.9316 0.3124 0.1861
vn -0.8346 0.5344 -0.1335
vn -0.9451 0.2990 -0.1317
vn 0.1510 -0.9885 0.0047
vn 0.4872 -0.8727 -0.0320
vn 0.1426 -0.9866 -0.0796
vn 0.4701 -0.8561 -0.2149
vn -0.4806 0.8701 0.1092
vn -0.6654 0.7334 0.1391
vn -0.5138 0.8465 -0.1398
vn -0.6942 0.7072 -0.1341
vn -0.0257 -0.9994 0.0244
vn 0.0049 -0.9998 0.0209
vn -0.0303 -0.9994 -0.0157
vn -0.0017 -0.9997 -0.0257
vn 0.4902 0.8709 -0.0341
vn 0.2613 0.9653 -0.0019
vn 0.4523 0.8483 -0.2754
vn 0.2286 0.9463 -0.2287
vn 0.0050 0.9994 0.0353
vn -0.2512 0.9651 0.0737
vn -0.0276 0.9820 -0.1869
vn -0.2853 0.9455 -0.1566
vn 0.0268 -0.9995 0.0169
vn 0.0018 -0.9998 0.0205
vn 0.0196 -0.9995 -0.0236
vn -0.0038 -0.9998 -0.0193
vn 0.8138 0.5761 -0.0759
vn 0.6721 0.7381 -0.0584
vn 0.7530 0.5524 -0.3575
vn 0.6241 0.7131 -0.3195
vn -0.1208 -0.9917 0.0433
vn -0.0013 -0.9998 0.0218
vn -0.1356 -0.9903 -0.0316
vn -0.0088 -0.9997 -0.0245
vn 0.9954 0.0192 -0.0939
vn 0.9285 0.3607 -0.0885
vn 0.9161 0.0242 -0.4002
vn 0.8548 0.3450 -0.3877
vn -0.7958 -0.5824 0.1660
vn -0.4075 -0.9082 0.0960
vn -0.8264 -0.5538 -0.1017
vn -0.4409 -0.8953 -0.0626
vn 0.8720 -0.4835 -0.0766
vn 0.8168 -0.4558 -0.3538
vn -0.9774 -0.0784 0.1964
vn -0.9902 -0.0672 -0.1226
usemtl bread01
s 1
f 1/1/1 2/2/2 3/3/3 4/4/4
f 5/5/5 6/6/6 4/4/4 3/3/3
f 7/7/7 8/8/8 6/6/6 5/5/5
f 9/9/9 10/10/10 8/8/8 7/7/7
f 11/11/11 12/12/12 10/10/10 9/9/9
f 13/13/13 14/14/14 12/12/12 11/11/11
f 15/15/15 14/14/14 13/13/13
f 16/16/16 17/17/17 2/2/2 1/1/1
f 18/18/18 19/19/19 17/17/17 16/16/16
f 20/20/20 21/21/21 19/19/19 18/18/18
f 22/22/22 23/23/23 21/21/21 20/20/20
f 24/24/24 23/23/23 22/22/22
f 25/25/25 26/26/26 27/27/27 28/28/28
f 29/29/29 27/27/27 26/26/26 30/30/30
f 31/31/31 29/29/29 30/30/30 32/32/32
f 33/33/33 31/31/31 32/32/32 34/34/34
f 35/35/35 33/33/33 34/34/34 36/36/36
f 37/37/37 35/35/35 36/36/36 38/38/38
f 39/39/39 37/37/37 38/38/38
f 40/40/40 25/25/25 28/28/28 41/41/41
f 42/42/42 40/40/40 41/41/41 43/43/43
f 44/44/44 42/42/42 43/43/43 45/45/45
f 46/46/46 44/44/44 45/45/45 47/47/47
f 48/48/48 46/46/46 47/47/47
f 49/49/49 35/50/35 37/51/37 50/52/50
f 51/53/51 42/54/42 44/55/44 52/56/52
f 53/57/53 31/58/31 33/59/33 54/60/54
f 55/61/55 25/62/25 40/63/40 56/64/56
f 57/65/57 41/66/41 28/67/28 58/68/58
f 59/69/59 27/70/27 29/71/29 60/72/60
f 61/73/61 30/74/30 26/75/26 62/76/62
f 63/77/63 45/78/45 43/79/43 64/80/64
f 65/81/65 34/82/34 32/83/32 66/84/66
f 67/85/67 48/86/48 47/87/47 68/88/68
f 69/89/69 38/90/38 36/91/36 70/92/70
f 52/56/52 44/55/44 46/93/46 71/94/71
f 50/52/50 37/51/37 39/95/39 72/96/72
f 54/60/54 33/59/33 35/50/35 49/49/49
f 56/64/56 40/63/40 42/54/42 51/53/51
f 58/68/58 28/67/28 27/70/27 59/69/59
f 60/72/60 29/71/29 31/58/31 53/57/53
f 62/76/62 26/75/26 25/62/25 55/61/55
f 64/80/64 43/79/43 41/66/41 57/65/57
f 66/84/66 32/83/32 30/74/30 61/73/61
f 68/88/68 47/87/47 45/78/45 63/77/63
f 70/92/70 36/91/36 34/82/34 65/81/65
f 71/94/71 46/93/46 48/97/48 67/98/67
f 72/99/72 39/100/39 38/90/38 69/89/69
f 11/101/11 73/102/73 74/103/74 13/104/13
f 73/102/73 75/105/75 76/106/76 74/103/74
f 75/105/75 49/49/49 50/52/50 76/106/76
f 18/107/18 77/108/77 78/109/78 20/110/20
f 77/108/77 79/111/79 80/112/80 78/109/78
f 79/111/79 51/53/51 52/56/52 80/112/80
f 7/113/7 81/114/81 82/115/82 9/116/9
f 81/114/81 83/117/83 84/118/84 82/115/82
f 83/117/83 53/57/53 54/60/54 84/118/84
f 1/119/1 85/120/85 86/121/86 16/122/16
f 85/120/85 87/123/87 88/124/88 86/121/86
f 87/123/87 55/61/55 56/64/56 88/124/88
f 17/125/17 89/126/89 90/127/90 2/128/2
f 89/126/89 91/129/91 92/130/92 90/127/90
f 91/129/91 57/65/57 58/68/58 92/130/92
f 3/131/3 93/132/93 94/133/94 5/134/5
f 93/132/93 95/135/95 96/136/96 94/133/94
f 95/135/95 59/69/59 60/72/60 96/136/96
f 6/137/6 97/138/97 98/139/98 4/140/4
f 97/138/97 99/141/99 100/142/100 98/139/98
f 99/141/99 61/73/61 62/76/62 100/142/100
f 21/143/21 101/144/101 102/145/102 19/146/19
f 101/144/101 103/147/103 104/148/104 102/145/102
f 103/147/103 63/77/63 64/80/64 104/148/104
f 10/149/10 105/150/105 106/151/106 8/152/8
f 105/150/105 107/153/107 108/154/108 106/151/106
f 107/153/107 65/81/65 66/84/66 108/154/108
f 24/155/24 109/156/109 110/157/110 23/158/23
f 109/156/109 111/159/111 112/160/112 110/157/110
f 111/159/111 67/85/67 68/88/68 112/160/112
f 14/161/14 113/162/113 114/163/114 12/164/12
f 113/162/113 115/165/115 116/166/116 114/163/114
f 115/165/115 69/89/69 70/92/70 116/166/116
f 20/110/20 78/109/78 117/167/117 22/168/22
f 78/109/78 80/112/80 118/169/118 117/167/117
f 80/112/80 52/56/52 71/94/71 118/169/118
f 13/104/13 74/103/74 119/170/119 15/171/15
f 74/103/74 76/106/76 120/172/120 119/170/119
f 76/106/76 50/52/50 72/96/72 120/172/120
f 9/116/9 82/115/82 73/102/73 11/101/11
f 82/115/82 84/118/84 75/105/75 73/102/73
f 84/118/84 54/60/54 49/49/49 75/105/75
f 16/122/16 86/121/86 77/108/77 18/107/18
f 86/121/86 88/124/88 79/111/79 77/108/77
f 88/124/88 56/64/56 51/53/51 79/111/79
f 2/128/2 90/127/90 93/132/93 3/131/3
f 90/127/90 92/130/92 95/135/95 93/132/93
f 92/130/92 58/68/58 59/69/59 95/135/95
f 5/134/5 94/133/94 81/114/81 7/113/7
f 94/133/94 96/136/96 83/117/83 81/114/81
f 96/136/96 60/72/60 53/57/53 83/117/83
f 4/140/4 98/139/98 85/120/85 1/119/1
f 98/139/98 100/142/100 87/123/87 85/120/85
f 100/142/100 62/76/62 55/61/55 87/123/87
f 19/146/19 102/145/102 89/126/89 17/125/17
f 102/145/102 104/148/104 91/129/91 89/126/89
f 104/148/104 64/80/64 57/65/57 91/129/91
f 8/152/8 106/151/106 97/138/97 6/137/6
f 106/151/106 108/154/108 99/141/99 97/138/97
f 108/154/108 66/84/66 61/73/61 99/141/99
f 23/158/23 110/157/110 101/144/101 21/143/21
f 110/157/110 112/160/112 103/147/103 101/144/101
f 112/160/112 68/88/68 63/77/63 103/147/103
f 12/164/12 114/163/114 105/150/105 10/149/10
f 114/163/114 116/166/116 107/153/107 105/150/105
f 116/166/116 70/92/70 65/81/65 107/153/107
f 22/168/22 117/167/117 109/173/109 24/174/24
f 117/167/117 118/169/118 111/175/111 109/173/109
f 118/169/118 71/94/71 67/98/67 111/175/111
f 15/176/15 119/177/119 113/162/113 14/161/14
f 119/177/119 120/178/120 115/165/115 113/162/113
f 120/178/120 72/99/72 69/89/69 115/165/115
