# Blender v2.77 (sub 0) OBJ File: ''
# www.blender.org
mtllib layer_hill.mtl
o Cube.002
v -2.750000 0.000870 3.000000
v -2.500000 0.000870 0.000000
v 0.000000 0.000870 0.000000
v 0.000000 0.000870 3.000000
v 0.000000 0.000869 6.000000
v -3.000000 0.000869 5.999999
v -5.125000 0.000869 5.249999
v -5.500000 0.000870 2.999999
v -5.000000 0.000870 0.000000
v -1.250001 1.026491 1.250000
v -0.000001 1.026491 1.375000
v 0.000000 1.026491 0.000000
v -1.375000 1.026491 0.000000
v -2.562500 0.962390 0.000000
v -2.375001 0.962390 1.187499
v -2.111112 0.912533 2.111110
v -1.187501 0.962390 2.375000
v -0.000001 0.962390 2.562500
v 3.249999 0.770086 1.500001
v 4.000000 0.513680 1.937501
v 4.078125 0.513680 0.000001
v 3.375000 0.770086 0.000001
v 2.562500 0.962390 0.000001
v 2.374999 0.962390 1.187501
v 2.111110 0.912533 2.111113
v 2.687499 0.770086 2.687501
v 3.421874 0.513679 3.421875
v -1.500001 0.770085 3.250000
v -2.000001 0.513679 4.062500
v -0.015625 0.513679 4.078125
v -0.000001 0.770085 3.375000
v -2.687501 0.770086 2.687499
v -3.500000 0.513679 3.515624
v -3.250000 0.770086 -1.500000
v -3.999999 0.513680 -1.937500
v -4.000000 0.513680 0.015625
v -3.375000 0.770086 0.000000
v -2.375000 0.962390 -1.187500
v -2.111111 0.912533 -2.111111
v -2.687500 0.770086 -2.687500
v -3.515624 0.513681 -3.421876
v -2.749999 0.257276 -4.750001
v -2.062499 0.513681 -4.000000
v -0.093750 0.513681 -4.062500
v -0.375000 0.257276 -4.875000
v -1.000000 0.000871 -6.000000
v -3.499999 0.000871 -5.500001
v -5.249999 0.000871 -4.500001
v -4.374999 0.257276 -4.000001
v -1.500000 0.770087 -3.250000
v -1.187500 0.962390 -2.375000
v 0.000000 0.962390 -2.562500
v 0.000000 0.770087 -3.375000
v 1.500001 0.770087 -3.249999
v 1.187501 0.962390 -2.374999
v 2.111112 0.912533 -2.111110
v 2.687501 0.770086 -2.687499
v 3.500000 0.513681 -3.421874
v 1.937500 0.513681 -3.999999
v 2.250000 0.257276 -4.750000
v 4.312500 0.257276 -4.000000
v 5.125000 0.000871 -4.500000
v 2.500000 0.000871 -5.500000
v -4.749999 0.257275 -2.250001
v -5.499999 0.000870 -2.500001
v -4.625000 0.257275 0.062500
v -4.750000 0.257275 2.500000
v -4.312500 0.257274 4.375000
v -4.000000 0.513680 1.999999
v -3.250001 0.770086 1.499999
v -2.500000 0.257274 5.000000
v -0.062500 0.257274 4.937500
v 2.250000 0.257274 4.750000
v 2.500000 0.000869 5.500000
v 4.500000 0.000869 4.500000
v 4.000000 0.257274 4.000000
v 1.937499 0.513679 4.000000
v 1.499999 0.770085 3.250001
v 1.187499 0.962390 2.375001
v 4.750000 0.257275 2.250000
v 5.500000 0.000870 2.500000
v 6.000000 0.000870 0.000000
v 4.937500 0.257275 0.000000
v 5.000000 0.257275 -2.250000
v 6.000000 0.000870 -2.500000
v 4.062500 0.513680 -1.937499
v 3.250001 0.770086 -1.499999
v 2.375001 0.962390 -1.187499
v 1.249999 1.026491 1.250001
v 1.375000 1.026491 0.000001
v 1.250000 1.026491 -1.249999
v 0.000000 1.026491 -1.375000
v -1.250000 1.026491 -1.250000
v -2.999999 0.000870 -2.750000
v -0.500000 0.000870 -3.000000
v 2.750000 0.000870 -2.750000
v 3.000000 0.000870 0.000000
v 2.750000 0.000870 2.750000
vt -1.4478 1.3000
vt -1.3922 0.5000
vt -0.8357 0.5000
vt -0.8357 1.3000
vt -0.8357 2.1000
vt -1.5035 2.1000
vt -1.9765 1.9000
vt -2.0600 1.3000
vt -1.9486 0.5000
vt 1.4472 0.1669
vt 1.7254 0.1335
vt 1.7254 0.5002
vt 1.4194 0.5002
vt 1.1549 0.5002
vt 1.1966 0.1835
vt 1.2554 -0.0628
vt 1.4610 -0.1332
vt 1.7254 -0.1832
vt 2.4486 0.1001
vt 2.6154 -0.0166
vt 2.6326 0.5001
vt 2.4765 0.5001
vt 2.2958 0.5002
vt 2.2541 0.1835
vt 2.1952 -0.0628
vt 2.3234 -0.2165
vt 2.4866 -0.4124
vt 1.3912 -0.3665
vt 1.2797 -0.5832
vt 1.7214 -0.5874
vt 1.7251 -0.3999
vt 1.1269 -0.2165
vt 0.9458 -0.4374
vt 1.0018 0.9001
vt 0.8344 1.0168
vt 0.8344 0.4959
vt 0.9739 0.5001
vt 1.1966 0.8168
vt 1.2554 1.0631
vt 1.1269 1.2168
vt 0.9422 1.4126
vt 1.1125 1.7667
vt 1.2658 1.5668
vt 1.7040 1.5834
vt 1.6411 1.8000
vt 1.5018 2.1000
vt 0.9453 1.9667
vt 0.5557 1.7000
vt 0.7507 1.5667
vt 1.3912 1.3668
vt 1.4610 1.1335
vt 1.7254 1.1835
vt 1.7251 1.4001
vt 2.0590 1.3668
vt 1.9898 1.1335
vt 2.1952 1.0631
vt 2.3234 1.2168
vt 2.5040 1.4126
vt 2.1562 1.5668
vt 2.2254 1.7667
vt 2.6846 1.5667
vt 2.8653 1.7000
vt 2.2808 1.9667
vt 0.6672 1.1001
vt 0.5000 1.1667
vt 0.6114 0.5000
vt 0.6950 0.4834
vt 0.6672 -0.1666
vt 0.5000 -0.3000
vt 0.5835 -0.9000
vt 0.7646 -0.6666
vt 0.8344 -0.0332
vt 1.0018 0.1001
vt 1.1682 -0.8333
vt 1.0565 -1.1000
vt 1.7243 -1.1000
vt 1.7107 -0.8166
vt 2.2254 -0.7666
vt 2.2808 -0.9667
vt 2.7261 -0.7000
vt 2.6150 -0.5666
vt 2.1562 -0.5666
vt 2.0590 -0.3665
vt 1.9898 -0.1332
vt 2.7821 -0.1000
vt 2.9486 -0.1667
vt 3.0600 0.5000
vt 2.8237 0.5000
vt 2.8376 1.1000
vt 3.0600 1.1667
vt 2.6293 1.0168
vt 2.4486 0.9001
vt 2.2541 0.8168
vt 2.0037 0.1669
vt 2.0315 0.5002
vt 2.0037 0.8335
vt 1.7254 0.8669
vt 1.4472 0.8335
vt -1.5035 -0.2333
vt -1.6147 -0.9667
vt -1.0582 -1.1000
vt -0.9469 -0.3000
vt -2.0600 -0.1667
vt -2.0043 -0.7000
vt -0.2235 -0.2333
vt -0.2792 -0.9667
vt 0.3053 -0.7000
vt 0.5000 -0.1667
vt 0.5000 0.5000
vt -0.1678 0.5000
vt -0.2235 1.2333
vt 0.3886 1.1667
vt 0.1661 1.7000
vt -0.2790 1.9667
vn 0.0000 -1.0000 -0.0000
vn -0.0000 1.0000 0.0000
vn -0.0555 0.9984 0.0071
vn -0.0659 0.9957 0.0659
vn -0.0071 0.9984 0.0555
vn 0.3275 0.9446 0.0194
vn 0.2177 0.9757 0.0253
vn 0.1711 0.9811 0.0901
vn 0.2488 0.9627 0.1062
vn -0.0128 0.9485 0.3166
vn -0.0253 0.9757 0.2177
vn -0.0901 0.9811 0.1711
vn -0.0940 0.9692 0.2277
vn -0.3460 0.9381 -0.0125
vn -0.2177 0.9757 -0.0253
vn -0.1711 0.9811 -0.0901
vn -0.2430 0.9653 -0.0952
vn -0.0131 0.9524 -0.3044
vn -0.0311 0.9697 -0.2424
vn -0.1225 0.9639 -0.2362
vn -0.1068 0.9630 -0.2475
vn -0.0253 0.9757 -0.2177
vn -0.0178 0.9443 -0.3287
vn -0.1026 0.9659 -0.2376
vn -0.0901 0.9811 -0.1711
vn 0.0901 0.9811 -0.1711
vn 0.1023 0.9637 -0.2467
vn 0.0176 0.9430 -0.3322
vn 0.0253 0.9757 -0.2177
vn 0.1030 0.9541 -0.2811
vn 0.1103 0.9489 -0.2955
vn 0.0274 0.9628 -0.2688
vn 0.0125 0.9501 -0.3116
vn -0.4268 0.9026 0.0554
vn -0.3512 0.9363 0.0103
vn -0.2670 0.9611 -0.0709
vn -0.2809 0.9586 -0.0468
vn -0.2690 0.9617 0.0530
vn -0.2551 0.9643 0.0705
vn -0.3529 0.9356 -0.0100
vn -0.4301 0.9014 -0.0494
vn -0.2378 0.9668 0.0935
vn -0.1711 0.9811 0.0901
vn -0.2177 0.9757 0.0253
vn -0.3453 0.9384 0.0124
vn 0.0028 0.9703 0.2418
vn 0.0029 0.9614 0.2753
vn -0.0780 0.9723 0.2205
vn -0.0747 0.9740 0.2141
vn 0.1410 0.9428 0.3022
vn 0.1182 0.9504 0.2877
vn 0.0187 0.9535 0.3007
vn 0.0380 0.9632 0.2660
vn 0.1062 0.9627 0.2488
vn 0.0901 0.9811 0.1711
vn 0.0253 0.9757 0.2177
vn 0.0193 0.9446 0.3277
vn 0.2671 0.9629 0.0387
vn 0.3002 0.9537 0.0190
vn 0.2877 0.9504 0.1182
vn 0.3022 0.9428 0.1410
vn 0.2335 0.9675 -0.0973
vn 0.2368 0.9672 -0.0915
vn 0.2749 0.9615 0.0031
vn 0.2417 0.9704 0.0032
vn 0.2341 0.9672 -0.0986
vn 0.1711 0.9811 -0.0901
vn 0.2177 0.9757 -0.0253
vn 0.3171 0.9483 -0.0130
vn 0.0555 0.9984 0.0071
vn 0.0071 0.9984 0.0555
vn 0.0659 0.9957 0.0659
vn 0.0659 0.9957 -0.0659
vn 0.0071 0.9984 -0.0555
vn 0.0555 0.9984 -0.0071
vn -0.0071 0.9984 -0.0555
vn -0.0659 0.9957 -0.0659
vn -0.0555 0.9984 -0.0071
usemtl Material.002
s 1
f 1/1/1 2/2/1 3/3/1 4/4/1
f 1/1/1 4/4/1 5/5/1 6/6/1
f 1/1/1 6/6/1 7/7/1 8/8/1
f 1/1/1 8/8/1 9/9/1 2/2/1
f 10/10/2 11/11/2 12/12/2 13/13/2
f 10/10/3 13/13/3 14/14/3 15/15/3
f 10/10/4 15/15/4 16/16/4 17/17/4
f 10/10/5 17/17/5 18/18/5 11/11/5
f 19/19/6 20/20/6 21/21/6 22/22/6
f 19/19/7 22/22/7 23/23/7 24/24/7
f 19/19/8 24/24/8 25/25/8 26/26/8
f 19/19/9 26/26/9 27/27/9 20/20/9
f 28/28/10 29/29/10 30/30/10 31/31/10
f 28/28/11 31/31/11 18/18/11 17/17/11
f 28/28/12 17/17/12 16/16/12 32/32/12
f 28/28/13 32/32/13 33/33/13 29/29/13
f 34/34/14 35/35/14 36/36/14 37/37/14
f 34/34/15 37/37/15 14/14/15 38/38/15
f 34/34/16 38/38/16 39/39/16 40/40/16
f 34/34/17 40/40/17 41/41/17 35/35/17
f 42/42/18 43/43/18 44/44/18 45/45/18
f 42/42/19 45/45/19 46/46/19 47/47/19
f 42/42/20 47/47/20 48/48/20 49/49/20
f 42/42/21 49/49/21 41/41/21 43/43/21
f 50/50/22 51/51/22 52/52/22 53/53/22
f 50/50/23 53/53/23 44/44/23 43/43/23
f 50/50/24 43/43/24 41/41/24 40/40/24
f 50/50/25 40/40/25 39/39/25 51/51/25
f 54/54/26 55/55/26 56/56/26 57/57/26
f 54/54/27 57/57/27 58/58/27 59/59/27
f 54/54/28 59/59/28 44/44/28 53/53/28
f 54/54/29 53/53/29 52/52/29 55/55/29
f 60/60/30 59/59/30 58/58/30 61/61/30
f 60/60/31 61/61/31 62/62/31 63/63/31
f 60/60/32 63/63/32 46/46/32 45/45/32
f 60/60/33 45/45/33 44/44/33 59/59/33
f 64/64/34 65/65/34 9/66/34 66/67/34
f 64/64/35 66/67/35 36/36/35 35/35/35
f 64/64/36 35/35/36 41/41/36 49/49/36
f 64/64/37 49/49/37 48/48/37 65/65/37
f 67/68/38 8/69/38 7/70/38 68/71/38
f 67/68/39 68/71/39 33/33/39 69/72/39
f 67/68/40 69/72/40 36/36/40 66/67/40
f 67/68/41 66/67/41 9/66/41 8/69/41
f 70/73/42 69/72/42 33/33/42 32/32/42
f 70/73/43 32/32/43 16/16/43 15/15/43
f 70/73/44 15/15/44 14/14/44 37/37/44
f 70/73/45 37/37/45 36/36/45 69/72/45
f 71/74/46 6/75/46 5/76/46 72/77/46
f 71/74/47 72/77/47 30/30/47 29/29/47
f 71/74/48 29/29/48 33/33/48 68/71/48
f 71/74/49 68/71/49 7/70/49 6/75/49
f 73/78/50 74/79/50 75/80/50 76/81/50
f 73/78/51 76/81/51 27/27/51 77/82/51
f 73/78/52 77/82/52 30/30/52 72/77/52
f 73/78/53 72/77/53 5/76/53 74/79/53
f 78/83/54 77/82/54 27/27/54 26/26/54
f 78/83/55 26/26/55 25/25/55 79/84/55
f 78/83/56 79/84/56 18/18/56 31/31/56
f 78/83/57 31/31/57 30/30/57 77/82/57
f 80/85/58 81/86/58 82/87/58 83/88/58
f 80/85/59 83/88/59 21/21/59 20/20/59
f 80/85/60 20/20/60 27/27/60 76/81/60
f 80/85/61 76/81/61 75/80/61 81/86/61
f 84/89/62 85/90/62 62/62/62 61/61/62
f 84/89/63 61/61/63 58/58/63 86/91/63
f 84/89/64 86/91/64 21/21/64 83/88/64
f 84/89/65 83/88/65 82/87/65 85/90/65
f 87/92/66 86/91/66 58/58/66 57/57/66
f 87/92/67 57/57/67 56/56/67 88/93/67
f 87/92/68 88/93/68 23/23/68 22/22/68
f 87/92/69 22/22/69 21/21/69 86/91/69
f 89/94/70 24/24/70 23/23/70 90/95/70
f 89/94/2 90/95/2 12/12/2 11/11/2
f 89/94/71 11/11/71 18/18/71 79/84/71
f 89/94/72 79/84/72 25/25/72 24/24/72
f 91/96/73 88/93/73 56/56/73 55/55/73
f 91/96/74 55/55/74 52/52/74 92/97/74
f 91/96/2 92/97/2 12/12/2 90/95/2
f 91/96/75 90/95/75 23/23/75 88/93/75
f 93/98/76 92/97/76 52/52/76 51/51/76
f 93/98/77 51/51/77 39/39/77 38/38/77
f 93/98/78 38/38/78 14/14/78 13/13/78
f 93/98/2 13/13/2 12/12/2 92/97/2
f 94/99/1 47/100/1 46/101/1 95/102/1
f 94/99/1 95/102/1 3/3/1 2/2/1
f 94/99/1 2/2/1 9/9/1 65/103/1
f 94/99/1 65/103/1 48/104/1 47/100/1
f 96/105/1 63/106/1 62/107/1 85/108/1
f 96/105/1 85/108/1 82/109/1 97/110/1
f 96/105/1 97/110/1 3/3/1 95/102/1
f 96/105/1 95/102/1 46/101/1 63/106/1
f 98/111/1 97/110/1 82/109/1 81/112/1
f 98/111/1 81/112/1 75/113/1 74/114/1
f 98/111/1 74/114/1 5/5/1 4/4/1
f 98/111/1 4/4/1 3/3/1 97/110/1
