# Blender v2.78 (sub 0) OBJ File: ''
# www.blender.org
mtllib toolkit_1.mtl
o box_toolkit_1Shape
v 0.139580 0.054222 0.073401
v 0.139582 0.062223 0.076321
v 0.139580 0.062223 0.082132
v 0.139580 0.000000 0.082132
v 0.139580 0.000000 0.000000
v 0.139580 0.054222 0.000000
v -0.127371 0.054416 0.073484
v -0.127371 0.054416 0.000000
v -0.127371 0.054416 -0.072395
v 0.139580 0.054222 -0.072032
v -0.139028 0.000000 0.082132
v -0.139028 0.062223 0.082132
v -0.139028 0.062223 0.000000
v -0.139028 0.000000 0.000000
v 0.139582 0.062223 -0.074947
v 0.139580 0.062223 -0.081043
v -0.132614 0.062223 -0.075318
v -0.139028 0.062223 -0.081043
v -0.132614 0.062223 0.000000
v -0.132614 0.062223 0.076407
v 0.139580 0.000000 -0.081043
v -0.139028 0.000000 -0.081043
vt 0.0244 0.1762
vt 0.0163 0.1984
vt 0.0008 0.1984
vt 0.0008 0.0281
vt 0.2342 0.0281
vt 0.2342 0.1762
vt 0.8049 0.0465
vt 0.8049 1.0000
vt 0.5425 1.0000
vt 0.5430 0.0465
vt 0.2845 0.0464
vt 0.2845 1.0000
vt 0.0008 0.0050
vt 0.0008 0.1631
vt 0.2342 0.1631
vt 0.2342 0.0050
vt 0.2322 1.0000
vt 0.2322 0.2017
vt 0.0019 0.2017
vt 0.0019 1.0000
vt 0.2573 1.0000
vt 0.2366 1.0000
vt 0.2573 0.0218
vt 0.2365 0.0000
vt 0.5423 0.0000
vt 0.5426 0.0217
vt 0.8315 0.0217
vt 0.8518 0.0000
vt 0.8518 1.0000
vt 0.8315 1.0000
vt 0.0008 0.1984
vt 0.0163 0.1984
vt 0.0244 0.1762
vt 0.0008 0.0281
vt 0.8541 0.3620
vt 0.9992 0.3620
vt 0.9992 1.0000
vt 0.8541 1.0000
vt 0.8541 0.3620
vt 0.9992 0.3620
vt 0.9992 1.0000
vt 0.8541 1.0000
vt 0.0008 0.0050
vt 0.0008 0.1630
vt 0.2322 1.0000
vt 0.2322 0.2017
vn 1.0000 -0.0002 0.0002
vn 1.0000 -0.0000 0.0000
vn 0.4668 0.0000 0.8844
vn 0.7581 -0.0000 0.6521
vn 0.0007 1.0000 0.0000
vn -0.5064 0.0000 0.8623
vn -0.7581 0.0000 0.6521
vn -1.0000 0.0000 0.0000
vn -0.7071 -0.7071 0.0000
vn -0.3815 -0.9244 0.0000
vn 0.0000 -1.0000 0.0000
vn 0.4472 -0.8944 0.0000
vn 0.0000 1.0000 -0.0000
vn -0.0013 0.3499 0.9368
vn -0.0010 0.3423 0.9396
vn 0.8302 0.5575 0.0000
vn -0.0003 0.3505 -0.9366
vn -0.0000 0.3428 -0.9394
vn 1.0000 -0.0001 -0.0001
vn 1.0000 -0.0002 -0.0002
vn 0.6670 -0.7451 0.0000
vn 0.0000 0.0000 -1.0000
vn 0.0000 0.0000 1.0000
vn -0.3848 -0.9230 0.0000
usemtl item_nabor_young_technic_S
s 1
f 1/1/1 2/2/1 3/3/1
f 1/1/2 3/3/3 4/4/4
f 4/4/4 5/5/2 1/1/2
f 5/5/2 6/6/2 1/1/2
f 7/7/5 1/8/5 6/9/5
f 8/10/5 7/7/5 6/9/5
f 9/11/5 8/10/5 6/9/5
f 10/12/5 9/11/5 6/9/5
f 11/13/6 12/14/7 13/15/8
f 14/16/9 11/13/10 13/15/8
f 4/17/11 11/18/10 14/19/9
f 5/20/12 4/17/11 14/19/9
f 15/21/13 16/22/13 17/23/13
f 16/22/13 18/24/13 17/23/13
f 17/23/13 18/24/13 13/25/13
f 19/26/13 17/23/13 13/25/13
f 20/27/13 19/26/13 13/25/13
f 12/28/13 20/27/13 13/25/13
f 20/27/13 12/28/13 3/29/13
f 2/30/13 20/27/13 3/29/13
f 15/21/14 17/23/14 9/11/14
f 10/12/15 15/21/15 9/11/15
f 9/11/16 17/23/16 19/26/16
f 8/10/16 9/11/16 19/26/16
f 7/7/16 8/10/16 19/26/16
f 20/27/16 7/7/16 19/26/16
f 7/7/17 20/27/17 2/30/17
f 1/8/18 7/7/18 2/30/18
f 16/31/19 15/32/20 10/33/2
f 21/34/2 16/31/19 10/33/2
f 21/34/21 10/33/2 5/5/12
f 10/33/2 6/6/2 5/5/12
f 16/35/22 21/36/22 22/37/22
f 18/38/22 16/35/22 22/37/22
f 12/39/7 11/40/6 4/41/23
f 3/42/3 12/39/23 4/41/4
f 22/43/24 14/16/9 13/15/8
f 18/44/8 22/43/8 13/15/8
f 21/45/21 5/20/12 14/19/9
f 22/46/24 21/45/21 14/19/9
