# 3ds Max Wavefront OBJ Exporter v0.97b - (c)2007 guruware
# File Created: 19.04.2018 19:19:21

mtllib DiceTray_C.mtl

#
# object DiceTrayCollider
#

v  -8.5946 0.4633 6.1480
v  8.5946 0.4633 6.1480
v  9.2093 3.5367 6.7627
v  -9.2093 3.5367 6.7627
v  8.5946 0.4633 -6.1480
v  9.2093 3.5367 -6.7627
v  -8.5946 0.4633 -6.1480
v  -9.2093 3.5367 -6.7627
v  8.3076 3.5367 5.8610
v  -8.3076 3.5367 5.8610
v  8.3076 3.5367 -5.8610
v  -8.3076 3.5367 -5.8610
v  7.7748 0.9585 5.3282
v  -7.7748 0.9585 5.3282
v  7.7748 0.9585 -5.3282
v  -7.7748 0.9585 -5.3282
# 16 vertices

vn 0.0000 -0.1962 0.9806
vn 0.9806 -0.1962 -0.0000
vn 0.0000 -0.1962 -0.9806
vn -0.9806 -0.1962 -0.0000
vn 0.0000 1.0000 -0.0000
vn 0.0000 0.2024 -0.9793
vn -0.9793 0.2024 -0.0000
vn 0.0000 0.2024 0.9793
vn 0.9793 0.2024 -0.0000
vn 0.0000 -0.8559 0.5171
vn 0.0000 -0.8559 -0.5171
vn 0.5171 -0.8559 -0.0000
vn -0.5171 -0.8559 -0.0000
# 13 vertex normals

vt 0.0488 0.1633 0.0000
vt 0.6186 0.1633 0.0000
vt 0.6389 0.2672 0.0000
vt 0.0284 0.2672 0.0000
vt 0.0557 0.0107 0.0000
vt 0.6107 0.0107 0.0000
vt 0.6385 0.1522 0.0000
vt 0.0280 0.1522 0.0000
vt 0.5180 0.6318 0.0000
vt 0.9851 0.6318 0.0000
vt 0.9670 0.6498 0.0000
vt 0.5360 0.6498 0.0000
vt 0.9851 0.9889 0.0000
vt 0.9670 0.9709 0.0000
vt 0.5180 0.9889 0.0000
vt 0.5360 0.9709 0.0000
vt 0.7162 0.4460 0.0000
vt 0.0962 0.4460 0.0000
vt 0.1161 0.3478 0.0000
vt 0.6963 0.3478 0.0000
vt 0.7113 0.6134 0.0000
vt 0.1017 0.6134 0.0000
vt 0.1294 0.4765 0.0000
vt 0.6835 0.4765 0.0000
vt 0.4514 0.6663 0.0000
vt 0.4514 0.9188 0.0000
vt 0.0984 0.6663 0.0000
vt 0.0984 0.9188 0.0000
# 28 texture coords

g DiceTrayCollider
usemtl 01___Default
s 8
f 1/1/1 2/2/1 3/3/1 4/4/1 
s 16
f 2/5/2 5/6/2 6/7/2 3/8/2 
s 32
f 5/1/3 7/2/3 8/3/3 6/4/3 
s 64
f 7/5/4 1/6/4 4/7/4 8/8/4 
s off
f 4/9/5 3/10/5 9/11/5 10/12/5 
f 3/10/5 6/13/5 11/14/5 9/11/5 
f 6/13/5 8/15/5 12/16/5 11/14/5 
f 8/15/5 4/9/5 10/12/5 12/16/5 
f 10/17/6 9/18/6 13/19/6 14/20/6 
f 9/21/7 11/22/7 15/23/7 13/24/7 
f 11/17/8 12/18/8 16/19/8 15/20/8 
f 12/21/9 10/22/9 14/23/9 16/24/9 
s 1
f 16/8/10 7/25/10 5/26/10 15/7/10 
f 13/6/11 2/27/11 1/28/11 14/5/11 
s 2
f 14/5/12 1/28/12 7/25/12 16/8/12 
f 15/7/13 5/26/13 2/27/13 13/6/13 
# 16 polygons

#
# object jhghjg
#

v  -8.5946 0.4633 6.1480
v  -8.5946 0.4633 -6.1480
v  8.5946 0.4633 -6.1480
v  8.5946 0.4633 6.1480
v  -7.7748 0.9585 -5.3282
v  -7.7748 0.9585 5.3282
v  7.7748 0.9585 5.3282
v  7.7748 0.9585 -5.3282
# 8 vertices

vn 0.0000 -1.0000 -0.0000
vn 0.0000 1.0000 -0.0000
vn -0.5171 0.8559 -0.0000
vn 0.5171 0.8559 -0.0000
vn 0.0000 0.8559 0.5171
vn 0.0000 0.8559 -0.5171
# 6 vertex normals

vt 0.0984 0.9188 0.0000
vt 0.0984 0.6663 0.0000
vt 0.4514 0.6663 0.0000
vt 0.4514 0.9188 0.0000
vt 0.0565 0.9427 0.0000
vt 0.0565 0.6454 0.0000
vt 0.4904 0.6454 0.0000
vt 0.4904 0.9427 0.0000
# 8 texture coords

g jhghjg
usemtl 01___Default
s 2
f 17/29/14 18/30/14 19/31/14 20/32/14 
s 1
f 21/33/15 22/34/15 23/35/15 24/36/15 
s 4
f 21/33/16 18/30/16 17/29/16 22/34/16 
f 23/35/17 20/32/17 19/31/17 24/36/17 
s 8
f 22/34/18 17/29/18 20/32/18 23/35/18 
f 24/36/19 19/31/19 18/30/19 21/33/19 
# 6 polygons

