# This file uses centimeters as units for non-parametric coordinates.

mtllib Barrel.mtl
g default
v 0.631145 0.055280 -0.205071
v 0.536884 0.055280 -0.390069
v 0.390069 0.055280 -0.536884
v 0.205072 0.055280 -0.631145
v 0.000000 0.055280 -0.663625
v -0.205071 0.055280 -0.631145
v -0.390069 0.055280 -0.536884
v -0.536884 0.055280 -0.390069
v -0.631145 0.055280 -0.205071
v -0.663625 0.055280 0.000000
v -0.631145 0.055280 0.205072
v -0.536884 0.055280 0.390069
v -0.390069 0.055280 0.536884
v -0.205071 0.055280 0.631145
v 0.000000 0.055280 0.663625
v 0.205071 0.055280 0.631145
v 0.390069 0.055280 0.536884
v 0.536884 0.055280 0.390069
v 0.631145 0.055280 0.205072
v 0.663625 0.055280 0.000000
v 0.631145 1.948607 -0.205071
v 0.536884 1.948607 -0.390069
v 0.390069 1.948607 -0.536884
v 0.205072 1.948607 -0.631145
v 0.000000 1.948607 -0.663625
v -0.205071 1.948607 -0.631145
v -0.390069 1.948607 -0.536884
v -0.536884 1.948607 -0.390069
v -0.631145 1.948607 -0.205071
v -0.663625 1.948607 0.000000
v -0.631145 1.948607 0.205072
v -0.536884 1.948607 0.390069
v -0.390069 1.948607 0.536884
v -0.205071 1.948607 0.631145
v 0.000000 1.948607 0.663625
v 0.205071 1.948607 0.631145
v 0.390069 1.948607 0.536884
v 0.536884 1.948607 0.390069
v 0.631145 1.948607 0.205072
v 0.663625 1.948607 0.000000
v 0.666888 1.948607 -0.216685
v 0.567289 1.948607 -0.412159
v 0.412160 1.948607 -0.567289
v 0.216685 1.948607 -0.666888
v 0.000000 1.948607 -0.701207
v -0.216685 1.948607 -0.666888
v -0.412159 1.948607 -0.567289
v -0.567289 1.948607 -0.412159
v -0.666888 1.948607 -0.216685
v -0.701207 1.948607 0.000000
v -0.666888 1.948607 0.216685
v -0.567289 1.948607 0.412160
v -0.412159 1.948607 0.567289
v -0.216685 1.948607 0.666888
v 0.000000 1.948607 0.701207
v 0.216685 1.948607 0.666888
v 0.412159 1.948607 0.567289
v 0.567289 1.948607 0.412159
v 0.666888 1.948607 0.216685
v 0.701207 1.948607 0.000000
v 0.666888 2.007664 -0.216685
v 0.567289 2.007664 -0.412159
v 0.412160 2.007664 -0.567289
v 0.216685 2.007664 -0.666888
v 0.000000 2.007664 -0.701207
v -0.216685 2.007664 -0.666888
v -0.412159 2.007664 -0.567289
v -0.567289 2.007664 -0.412159
v -0.666888 2.007664 -0.216685
v -0.701207 2.007664 0.000000
v -0.666888 2.007664 0.216685
v -0.567289 2.007664 0.412160
v -0.412159 2.007664 0.567289
v -0.216685 2.007664 0.666888
v 0.000000 2.007664 0.701207
v 0.216685 2.007664 0.666888
v 0.412159 2.007664 0.567289
v 0.567289 2.007664 0.412159
v 0.666888 2.007664 0.216685
v 0.701207 2.007664 0.000000
v 0.622394 2.007017 -0.202228
v 0.529440 2.007017 -0.384661
v 0.384661 2.007017 -0.529440
v 0.202228 2.007017 -0.622394
v 0.000000 2.007017 -0.654424
v -0.202228 2.007017 -0.622394
v -0.384661 2.007017 -0.529440
v -0.529440 2.007017 -0.384661
v -0.622394 2.007017 -0.202228
v -0.654424 2.007017 0.000000
v -0.622394 2.007017 0.202228
v -0.529440 2.007017 0.384661
v -0.384661 2.007017 0.529440
v -0.202228 2.007017 0.622394
v 0.000000 2.007017 0.654424
v 0.202228 2.007017 0.622394
v 0.384661 2.007017 0.529440
v 0.529440 2.007017 0.384661
v 0.622394 2.007017 0.202228
v 0.654424 2.007017 0.000000
v 0.622394 1.948876 -0.202228
v 0.529440 1.948876 -0.384661
v 0.384661 1.948876 -0.529440
v 0.202228 1.948876 -0.622394
v 0.000000 1.948876 -0.654424
v -0.202228 1.948876 -0.622394
v -0.384661 1.948876 -0.529440
v -0.529440 1.948876 -0.384661
v -0.622394 1.948876 -0.202228
v -0.654424 1.948876 0.000000
v -0.622394 1.948876 0.202228
v -0.529440 1.948876 0.384661
v -0.384661 1.948876 0.529440
v -0.202228 1.948876 0.622394
v 0.000000 1.948876 0.654424
v 0.202228 1.948876 0.622394
v 0.384661 1.948876 0.529440
v 0.529440 1.948876 0.384661
v 0.622394 1.948876 0.202228
v 0.654424 1.948876 0.000000
v 0.653370 0.055607 -0.212293
v 0.555789 0.055607 -0.403804
v 0.403805 0.055607 -0.555789
v 0.212293 0.055607 -0.653369
v 0.000000 0.055607 -0.686993
v -0.212293 0.055607 -0.653369
v -0.403804 0.055607 -0.555789
v -0.555789 0.055607 -0.403804
v -0.653369 0.055607 -0.212292
v -0.686993 0.055607 0.000000
v -0.653369 0.055607 0.212293
v -0.555789 0.055607 0.403805
v -0.403804 0.055607 0.555789
v -0.212292 0.055607 0.653369
v 0.000000 0.055607 0.686993
v 0.212293 0.055607 0.653369
v 0.403804 0.055607 0.555789
v 0.555789 0.055607 0.403805
v 0.653369 0.055607 0.212293
v 0.686993 0.055607 0.000000
v 0.653370 0.024495 -0.212293
v 0.555789 0.024495 -0.403804
v 0.403805 0.024495 -0.555789
v 0.212293 0.024495 -0.653369
v 0.000000 0.024495 -0.686993
v -0.212293 0.024495 -0.653369
v -0.403804 0.024495 -0.555789
v -0.558127 0.024821 -0.410579
v -0.653369 0.024495 -0.212292
v -0.686993 0.024495 0.000000
v -0.653369 0.024495 0.212293
v -0.555789 0.024495 0.403805
v -0.403804 0.024495 0.555789
v -0.212292 0.024495 0.653369
v 0.000000 0.024495 0.686993
v 0.212293 0.024495 0.653369
v 0.403804 0.024495 0.555789
v 0.555789 0.024495 0.403805
v 0.653369 0.024495 0.212293
v 0.686993 0.024495 0.000000
v -0.205071 1.433722 0.631145
v -0.390069 1.433722 0.536884
v -0.536884 1.433722 0.390069
v -0.631145 1.433722 0.205072
v -0.663625 1.433722 0.000000
v -0.631145 1.433722 -0.205071
v -0.536884 1.433722 -0.390069
v -0.390069 1.433722 -0.536884
v -0.205071 1.433722 -0.631145
v 0.000000 1.433722 -0.663625
v 0.205072 1.433722 -0.631145
v 0.390069 1.433722 -0.536884
v 0.536884 1.433722 -0.390069
v 0.631145 1.433722 -0.205071
v 0.663625 1.433722 0.000000
v 0.631145 1.433722 0.205072
v 0.536884 1.433722 0.390069
v 0.390069 1.433722 0.536884
v 0.205071 1.433722 0.631145
v 0.000000 1.433722 0.663625
v -0.205071 1.409975 0.631145
v -0.390069 1.409975 0.536884
v -0.536884 1.409975 0.390069
v -0.631145 1.409975 0.205072
v -0.663625 1.409975 0.000000
v -0.631145 1.409975 -0.205071
v -0.536884 1.409975 -0.390069
v -0.390069 1.409975 -0.536884
v -0.205071 1.409975 -0.631145
v 0.000000 1.409975 -0.663625
v 0.205072 1.409975 -0.631145
v 0.390069 1.409975 -0.536884
v 0.536884 1.409975 -0.390069
v 0.631145 1.409975 -0.205071
v 0.663625 1.409975 0.000000
v 0.631145 1.409975 0.205072
v 0.536884 1.409975 0.390069
v 0.390069 1.409975 0.536884
v 0.205071 1.409975 0.631145
v 0.000000 1.409975 0.663625
v -0.205071 0.697549 0.631145
v -0.390069 0.697549 0.536884
v -0.536884 0.697549 0.390069
v -0.631145 0.697549 0.205072
v -0.663625 0.697549 0.000000
v -0.631145 0.697549 -0.205071
v -0.536884 0.697549 -0.390069
v -0.390069 0.697549 -0.536884
v -0.205071 0.697549 -0.631145
v 0.000000 0.697549 -0.663625
v 0.205072 0.697549 -0.631145
v 0.390069 0.697549 -0.536884
v 0.536884 0.697549 -0.390069
v 0.631145 0.697549 -0.205071
v 0.663625 0.697549 0.000000
v 0.631145 0.697549 0.205072
v 0.536884 0.697549 0.390069
v 0.390069 0.697549 0.536884
v 0.205071 0.697549 0.631145
v 0.000000 0.697549 0.663625
v -0.205071 0.668404 0.631145
v -0.390069 0.668404 0.536884
v -0.536884 0.668404 0.390069
v -0.631145 0.668404 0.205072
v -0.663625 0.668404 0.000000
v -0.631145 0.668404 -0.205071
v -0.536884 0.668404 -0.390069
v -0.390069 0.668404 -0.536884
v -0.205071 0.668404 -0.631145
v 0.000000 0.668404 -0.663625
v 0.205072 0.668404 -0.631145
v 0.390069 0.668404 -0.536884
v 0.536884 0.668404 -0.390069
v 0.631145 0.668404 -0.205071
v 0.663625 0.668404 0.000000
v 0.631145 0.668404 0.205072
v 0.536884 0.668404 0.390069
v 0.390069 0.668404 0.536884
v 0.205071 0.668404 0.631145
v 0.000000 0.668404 0.663625
v -0.209654 1.410206 0.645249
v -0.398786 1.410206 0.548882
v -0.209654 1.433491 0.645249
v -0.398786 1.433491 0.548882
v -0.548881 1.410206 0.398786
v -0.548881 1.433491 0.398786
v -0.645249 1.410206 0.209654
v -0.645249 1.433491 0.209654
v -0.678455 1.410206 0.000000
v -0.678455 1.433491 0.000000
v -0.645249 1.410206 -0.209654
v -0.645249 1.433491 -0.209654
v -0.548882 1.410206 -0.398786
v -0.548882 1.433491 -0.398786
v -0.398786 1.410206 -0.548881
v -0.398786 1.433491 -0.548881
v -0.209654 1.410206 -0.645249
v -0.209654 1.433491 -0.645249
v 0.000000 1.410206 -0.678455
v 0.000000 1.433491 -0.678455
v 0.209654 1.410206 -0.645249
v 0.209654 1.433491 -0.645249
v 0.398786 1.410206 -0.548882
v 0.398786 1.433491 -0.548882
v 0.548882 1.410206 -0.398786
v 0.548882 1.433491 -0.398786
v 0.645249 1.410206 -0.209654
v 0.645249 1.433491 -0.209654
v 0.678455 1.410206 0.000000
v 0.678455 1.433491 0.000000
v 0.645249 1.410206 0.209654
v 0.645249 1.433491 0.209654
v 0.548882 1.410206 0.398786
v 0.548882 1.433491 0.398786
v 0.398786 1.410206 0.548882
v 0.398786 1.433491 0.548882
v 0.209654 1.410206 0.645249
v 0.209654 1.433491 0.645249
v 0.000000 1.410206 0.678455
v 0.000000 1.433491 0.678455
v -0.208907 0.668739 0.642949
v -0.397364 0.668739 0.546925
v -0.208907 0.697214 0.642949
v -0.397364 0.697214 0.546925
v -0.546925 0.668739 0.397365
v -0.546925 0.697214 0.397365
v -0.642949 0.668739 0.208907
v -0.642949 0.697214 0.208907
v -0.676037 0.668739 0.000000
v -0.676037 0.697214 0.000000
v -0.642949 0.668739 -0.208907
v -0.642949 0.697214 -0.208907
v -0.546925 0.668739 -0.397364
v -0.546925 0.697214 -0.397364
v -0.397364 0.668739 -0.546925
v -0.397364 0.697214 -0.546925
v -0.208907 0.668739 -0.642949
v -0.208907 0.697214 -0.642949
v 0.000000 0.668739 -0.676037
v 0.000000 0.697214 -0.676037
v 0.208907 0.668739 -0.642949
v 0.208907 0.697214 -0.642949
v 0.397365 0.668739 -0.546925
v 0.397365 0.697214 -0.546925
v 0.546925 0.668739 -0.397364
v 0.546925 0.697214 -0.397364
v 0.642950 0.668739 -0.208907
v 0.642950 0.697214 -0.208907
v 0.676037 0.668739 0.000000
v 0.676037 0.697214 0.000000
v 0.642949 0.668739 0.208907
v 0.642949 0.697214 0.208907
v 0.546925 0.668739 0.397365
v 0.546925 0.697214 0.397365
v 0.397364 0.668739 0.546925
v 0.397364 0.697214 0.546925
v 0.208907 0.668739 0.642949
v 0.208907 0.697214 0.642949
v 0.000000 0.668739 0.676037
v 0.000000 0.697214 0.676037
vt 0.208959 0.494106
vt 0.257097 0.494106
vt 0.257099 0.653643
vt 0.208962 0.653644
vt 0.295299 0.494105
vt 0.295301 0.653642
vt 0.155599 0.494107
vt 0.155602 0.653644
vt 0.102239 0.494108
vt 0.102241 0.653645
vt 0.054101 0.494109
vt 0.054104 0.653646
vt 0.015900 0.494109
vt 0.015902 0.653647
vt 0.946908 0.561540
vt 0.343437 0.494105
vt 0.343438 0.653642
vt 0.946255 0.561752
vt 0.396797 0.494104
vt 0.396798 0.653642
vt 0.450158 0.494104
vt 0.450158 0.653641
vt 0.498295 0.494104
vt 0.498296 0.653641
vt 0.536497 0.494103
vt 0.536497 0.653641
vt 0.946908 0.584626
vt 0.584634 0.494103
vt 0.584634 0.653641
vt 0.946255 0.584414
vt 0.637995 0.494103
vt 0.637995 0.653641
vt 0.691355 0.494103
vt 0.691355 0.653641
vt 0.739492 0.494103
vt 0.739492 0.653641
vt 0.777695 0.494103
vt 0.777694 0.653641
vt 0.948736 0.573083
vt 0.825832 0.494104
vt 0.825830 0.653641
vt 0.948050 0.573083
vt 0.879193 0.494105
vt 0.879191 0.653642
vt 0.932553 0.494105
vt 0.932551 0.653643
vt 0.980690 0.494106
vt 0.980688 0.653643
vt 0.946231 0.560084
vt 0.941022 0.549863
vt 0.942702 0.548642
vt 0.948205 0.559443
vt 0.932910 0.541751
vt 0.934131 0.540071
vt 0.948025 0.571415
vt 0.950102 0.571415
vt 0.922688 0.536542
vt 0.923330 0.534568
vt 0.946231 0.582746
vt 0.948205 0.583388
vt 0.911358 0.534748
vt 0.911358 0.532671
vt 0.941022 0.592968
vt 0.942702 0.594188
vt 0.900027 0.536542
vt 0.899385 0.534568
vt 0.932910 0.601080
vt 0.934131 0.602760
vt 0.889805 0.541751
vt 0.888584 0.540071
vt 0.922688 0.606288
vt 0.923330 0.608263
vt 0.881693 0.549863
vt 0.880013 0.548642
vt 0.911358 0.608083
vt 0.911358 0.610159
vt 0.876485 0.560084
vt 0.874510 0.559443
vt 0.900027 0.606288
vt 0.899385 0.608263
vt 0.874690 0.571415
vt 0.872614 0.571415
vt 0.889805 0.601080
vt 0.888585 0.602760
vt 0.876485 0.582746
vt 0.874510 0.583388
vt 0.881693 0.592968
vt 0.880013 0.594188
vt 0.906497 0.046675
vt 0.954563 0.046632
vt 0.954576 0.061154
vt 0.906510 0.061197
vt 0.992708 0.046597
vt 0.992722 0.061119
vt 0.853216 0.046723
vt 0.853229 0.061245
vt 0.799934 0.046771
vt 0.799947 0.061293
vt 0.751868 0.046814
vt 0.751881 0.061336
vt 0.713726 0.046849
vt 0.713733 0.061370
vt 0.029351 0.046949
vt 0.077417 0.046929
vt 0.077423 0.061450
vt 0.029357 0.061471
vt 0.130699 0.046906
vt 0.130705 0.061428
vt 0.183980 0.046883
vt 0.183986 0.061405
vt 0.232046 0.046863
vt 0.232052 0.061385
vt 0.270193 0.046847
vt 0.270196 0.061368
vt 0.881163 0.551127
vt 0.318260 0.046847
vt 0.318260 0.061368
vt 0.881718 0.551531
vt 0.371542 0.046847
vt 0.371542 0.061368
vt 0.424823 0.046847
vt 0.424823 0.061368
vt 0.472889 0.046847
vt 0.472889 0.061368
vt 0.511034 0.046847
vt 0.511034 0.061368
vt 0.875858 0.584626
vt 0.559101 0.046847
vt 0.559100 0.061369
vt 0.876510 0.584414
vt 0.612382 0.046848
vt 0.612382 0.061369
vt 0.665663 0.046848
vt 0.665663 0.061370
vt 0.933338 0.542864
vt 0.932935 0.543419
vt 0.948485 0.584130
vt 0.942982 0.594930
vt 0.940891 0.593411
vt 0.946026 0.583331
vt 0.934410 0.603502
vt 0.932891 0.601410
vt 0.950381 0.572157
vt 0.947796 0.572157
vt 0.923610 0.609005
vt 0.922811 0.606546
vt 0.948485 0.560185
vt 0.946026 0.560983
vt 0.911637 0.610901
vt 0.911637 0.608316
vt 0.942982 0.549384
vt 0.940891 0.550903
vt 0.899665 0.609005
vt 0.900463 0.606546
vt 0.934410 0.540813
vt 0.932891 0.542904
vt 0.888864 0.603502
vt 0.890383 0.601410
vt 0.923610 0.535309
vt 0.922811 0.537768
vt 0.880293 0.594930
vt 0.882384 0.593411
vt 0.911637 0.533413
vt 0.911637 0.535998
vt 0.874790 0.584130
vt 0.877248 0.583331
vt 0.899665 0.535309
vt 0.900463 0.537768
vt 0.872893 0.572157
vt 0.875478 0.572157
vt 0.888864 0.540813
vt 0.890383 0.542904
vt 0.874790 0.560185
vt 0.877248 0.560983
vt 0.880293 0.549384
vt 0.882384 0.550903
vt 0.751006 0.060347
vt 0.706148 0.060257
vt 0.706176 0.045961
vt 0.751035 0.046051
vt 0.670552 0.060186
vt 0.670570 0.045890
vt 0.800733 0.060447
vt 0.800762 0.046151
vt 0.850460 0.060547
vt 0.850488 0.046251
vt 0.895318 0.060637
vt 0.895347 0.046341
vt 0.930919 0.060708
vt 0.930948 0.046412
vt 0.911383 0.535730
vt 0.625699 0.060164
vt 0.625706 0.045868
vt 0.911383 0.536416
vt 0.575972 0.060140
vt 0.575979 0.045844
vt 0.526245 0.060117
vt 0.526253 0.045820
vt 0.481387 0.060095
vt 0.481394 0.045798
vt 0.445788 0.060078
vt 0.445791 0.045781
vt 0.881163 0.595039
vt 0.400931 0.060078
vt 0.400931 0.045781
vt 0.881718 0.594636
vt 0.351204 0.060078
vt 0.351204 0.045781
vt 0.301477 0.060078
vt 0.301477 0.045781
vt 0.256618 0.060078
vt 0.256618 0.045781
vt 0.221021 0.060078
vt 0.221015 0.045781
vt 0.941602 0.551127
vt 0.176164 0.060110
vt 0.176154 0.045814
vt 0.941047 0.551531
vt 0.126438 0.060146
vt 0.126427 0.045850
vt 0.076711 0.060182
vt 0.076701 0.045886
vt 0.031852 0.060215
vt 0.031841 0.045918
vt 0.356887 0.345172
vt 0.331502 0.394993
vt 0.186916 0.111226
vt 0.291964 0.434531
vt 0.365634 0.289944
vt 0.242143 0.459916
vt 0.356887 0.234717
vt 0.186916 0.468663
vt 0.331502 0.184896
vt 0.131689 0.459916
vt 0.291964 0.145358
vt 0.081867 0.434531
vt 0.242143 0.119973
vt 0.042329 0.394993
vt 0.016944 0.345172
vt 0.008197 0.289944
vt 0.016944 0.234717
vt 0.042329 0.184896
vt 0.081867 0.145358
vt 0.131689 0.119973
vt 0.941118 0.592909
vt 0.946326 0.582688
vt 0.947554 0.583087
vt 0.942163 0.593668
vt 0.948121 0.571357
vt 0.949412 0.571357
vt 0.933006 0.601021
vt 0.933765 0.602066
vt 0.946326 0.560026
vt 0.947554 0.559627
vt 0.922784 0.606230
vt 0.923183 0.607457
vt 0.941118 0.549804
vt 0.942163 0.549045
vt 0.911454 0.608024
vt 0.911454 0.609315
vt 0.933006 0.541692
vt 0.933765 0.540648
vt 0.900123 0.606230
vt 0.899724 0.607457
vt 0.922784 0.536484
vt 0.923183 0.535256
vt 0.889901 0.601021
vt 0.889142 0.602066
vt 0.911454 0.534689
vt 0.911454 0.533398
vt 0.881789 0.592909
vt 0.880744 0.593668
vt 0.900123 0.536484
vt 0.899724 0.535256
vt 0.876581 0.582688
vt 0.875353 0.583087
vt 0.889901 0.541692
vt 0.889142 0.540648
vt 0.874786 0.571357
vt 0.873495 0.571357
vt 0.881789 0.549804
vt 0.880745 0.549045
vt 0.876581 0.560026
vt 0.875353 0.559627
vt 0.713509 0.056893
vt 0.666417 0.056893
vt 0.666417 0.049243
vt 0.713509 0.049243
vt 0.614216 0.056893
vt 0.614215 0.049242
vt 0.750882 0.056893
vt 0.750879 0.049243
vt 0.562014 0.056893
vt 0.562014 0.049243
vt 0.514923 0.056893
vt 0.514923 0.049242
vt 0.477547 0.056893
vt 0.477555 0.049243
vt 0.797976 0.056847
vt 0.899840 0.537558
vt 0.889427 0.542864
vt 0.797969 0.049197
vt 0.850177 0.056797
vt 0.850170 0.049147
vt 0.902379 0.056746
vt 0.902371 0.049096
vt 0.949470 0.056701
vt 0.949463 0.049050
vt 0.986842 0.056665
vt 0.983967 0.049097
vt 0.090107 0.056874
vt 0.043016 0.056972
vt 0.045083 0.049398
vt 0.090091 0.049223
vt 0.142308 0.056765
vt 0.142292 0.049114
vt 0.194510 0.056655
vt 0.194494 0.049005
vt 0.241601 0.056557
vt 0.241585 0.048906
vt 0.278965 0.056478
vt 0.278965 0.048828
vt 0.326048 0.056577
vt 0.874029 0.573083
vt 0.874715 0.573083
vt 0.326065 0.048926
vt 0.378250 0.056686
vt 0.378266 0.049035
vt 0.430451 0.056795
vt 0.430467 0.049144
vt 0.941694 0.551115
vt 0.941139 0.551518
vt 0.721728 0.182199
vt 0.747610 0.232994
vt 0.429995 0.184446
vt 0.756528 0.289301
vt 0.681417 0.141887
vt 0.747610 0.345608
vt 0.630622 0.116006
vt 0.721728 0.396403
vt 0.574315 0.107088
vt 0.681417 0.436714
vt 0.518008 0.116006
vt 0.630622 0.462596
vt 0.467213 0.141887
vt 0.574315 0.471514
vt 0.518008 0.462596
vt 0.467213 0.436714
vt 0.426902 0.396403
vt 0.401020 0.345608
vt 0.392102 0.289301
vt 0.401020 0.232994
vt 0.534766 0.661766
vt 0.582904 0.661767
vt 0.582904 0.795742
vt 0.534766 0.795742
vt 0.636264 0.661767
vt 0.636264 0.795742
vt 0.496564 0.661767
vt 0.496565 0.795742
vt 0.689624 0.661767
vt 0.689624 0.795742
vt 0.737761 0.661767
vt 0.737761 0.795742
vt 0.775964 0.661767
vt 0.775963 0.795742
vt 0.448427 0.661767
vt 0.889427 0.603302
vt 0.889830 0.602748
vt 0.448428 0.795742
vt 0.395066 0.661767
vt 0.395067 0.795743
vt 0.341706 0.661768
vt 0.341707 0.795743
vt 0.293569 0.661768
vt 0.293570 0.795744
vt 0.255368 0.661769
vt 0.255368 0.795744
vt 0.207231 0.661768
vt 0.911383 0.610436
vt 0.911383 0.609751
vt 0.207230 0.795744
vt 0.153870 0.661768
vt 0.153869 0.795743
vt 0.100510 0.661767
vt 0.100509 0.795743
vt 0.052373 0.661767
vt 0.052372 0.795742
vt 0.014171 0.661767
vt 0.014170 0.795742
vt 0.930822 0.661768
vt 0.978959 0.661768
vt 0.978958 0.795743
vt 0.930821 0.795743
vt 0.877461 0.661767
vt 0.877460 0.795743
vt 0.824101 0.661767
vt 0.824100 0.795742
vt 0.933338 0.603302
vt 0.932935 0.602748
vt 0.312693 0.048574
vt 0.359200 0.048574
vt 0.359200 0.054300
vt 0.312693 0.054300
vt 0.410752 0.048574
vt 0.410752 0.054300
vt 0.275779 0.048574
vt 0.275793 0.054300
vt 0.462305 0.048574
vt 0.462305 0.054300
vt 0.508811 0.048574
vt 0.508811 0.054300
vt 0.545715 0.048574
vt 0.545723 0.054300
vt 0.229266 0.048798
vt 0.923018 0.537545
vt 0.922806 0.538197
vt 0.229294 0.054524
vt 0.177714 0.049047
vt 0.177742 0.054773
vt 0.126162 0.049296
vt 0.126190 0.055022
vt 0.079656 0.049521
vt 0.079684 0.055246
vt 0.042749 0.049699
vt 0.042777 0.055424
vt 0.928319 0.046223
vt 0.974824 0.045778
vt 0.974879 0.051503
vt 0.928374 0.051948
vt 0.876769 0.046717
vt 0.876824 0.052442
vt 0.825219 0.047210
vt 0.825274 0.052936
vt 0.778715 0.047656
vt 0.778769 0.053381
vt 0.741818 0.048009
vt 0.741854 0.053735
vt 0.695322 0.048143
vt 0.889830 0.543419
vt 0.900052 0.538210
vt 0.695338 0.053869
vt 0.643769 0.048292
vt 0.643786 0.054017
vt 0.592217 0.048440
vt 0.592233 0.054166
vt 0.922925 0.537558
vt 0.922713 0.538210
vt 0.058014 0.802463
vt 0.106903 0.802525
vt 0.106900 0.985823
vt 0.058067 0.985883
vt 0.155429 0.802546
vt 0.155428 0.985803
vt 0.008387 0.801766
vt 0.008341 0.986583
vt 0.203989 0.802519
vt 0.203983 0.985829
vt 0.252148 0.802530
vt 0.252151 0.985818
vt 0.299816 0.802530
vt 0.299819 0.985818
vt 0.929804 0.802457
vt 0.981349 0.801688
vt 0.981292 0.986660
vt 0.929862 0.985893
vt 0.879085 0.802552
vt 0.879095 0.985796
vt 0.830176 0.802518
vt 0.830162 0.985829
vt 0.782210 0.802530
vt 0.782213 0.985818
vt 0.734543 0.802530
vt 0.734546 0.985819
vt 0.686383 0.802519
vt 0.899840 0.608608
vt 0.900052 0.607956
vt 0.686377 0.985829
vt 0.637776 0.802544
vt 0.637782 0.985804
vt 0.589182 0.802519
vt 0.589176 0.985830
vt 0.541013 0.802530
vt 0.541016 0.985819
vt 0.493345 0.802530
vt 0.493348 0.985819
vt 0.445186 0.802519
vt 0.941602 0.595039
vt 0.941047 0.594636
vt 0.445180 0.985830
vt 0.396580 0.802544
vt 0.396585 0.985804
vt 0.347985 0.802519
vt 0.347979 0.985829
vt 0.922925 0.608608
vt 0.922714 0.607956
vt 0.310526 0.052324
vt 0.356866 0.052324
vt 0.356866 0.059326
vt 0.310526 0.059326
vt 0.408235 0.052324
vt 0.408235 0.059326
vt 0.273767 0.052324
vt 0.273733 0.059326
vt 0.459604 0.052324
vt 0.459604 0.059326
vt 0.505944 0.052324
vt 0.505944 0.059326
vt 0.542729 0.052324
vt 0.542711 0.059326
vt 0.227445 0.051875
vt 0.911475 0.535717
vt 0.911475 0.536403
vt 0.227377 0.058877
vt 0.176079 0.051378
vt 0.176011 0.058380
vt 0.124712 0.050880
vt 0.124644 0.057882
vt 0.078374 0.050431
vt 0.078306 0.057433
vt 0.041600 0.050075
vt 0.041532 0.057077
vt 0.924005 0.054124
vt 0.970345 0.054323
vt 0.970315 0.061325
vt 0.923975 0.061126
vt 0.872636 0.053903
vt 0.872606 0.060905
vt 0.821268 0.053683
vt 0.821238 0.060684
vt 0.774927 0.053483
vt 0.774897 0.060485
vt 0.738153 0.053326
vt 0.738120 0.060327
vt 0.691815 0.053088
vt 0.933430 0.542851
vt 0.933027 0.543406
vt 0.691779 0.060090
vt 0.640447 0.052825
vt 0.640411 0.059827
vt 0.589078 0.052562
vt 0.589042 0.059563
vt 0.875858 0.561540
vt 0.876510 0.561752
vt 0.889290 0.601833
vt 0.899512 0.607041
vt 0.899258 0.607820
vt 0.888808 0.602496
vt 0.910842 0.608836
vt 0.910842 0.609655
vt 0.881178 0.593721
vt 0.880515 0.594202
vt 0.922173 0.607041
vt 0.922426 0.607820
vt 0.875970 0.583499
vt 0.875190 0.583752
vt 0.932395 0.601833
vt 0.932877 0.602496
vt 0.874175 0.572168
vt 0.873356 0.572168
vt 0.940507 0.593721
vt 0.941170 0.594202
vt 0.875970 0.560837
vt 0.875190 0.560584
vt 0.945715 0.583499
vt 0.946494 0.583752
vt 0.881178 0.550616
vt 0.880515 0.550134
vt 0.947510 0.572168
vt 0.948329 0.572168
vt 0.889290 0.542504
vt 0.888808 0.541841
vt 0.945715 0.560837
vt 0.946495 0.560584
vt 0.899512 0.537295
vt 0.899258 0.536516
vt 0.940507 0.550616
vt 0.941170 0.550134
vt 0.910842 0.535501
vt 0.910842 0.534681
vt 0.932395 0.542504
vt 0.932877 0.541841
vt 0.922173 0.537295
vt 0.922426 0.536516
vt 0.900018 0.537223
vt 0.889796 0.542432
vt 0.889315 0.541769
vt 0.899765 0.536444
vt 0.881684 0.550544
vt 0.881021 0.550062
vt 0.911349 0.535429
vt 0.911349 0.534609
vt 0.876476 0.560765
vt 0.875697 0.560512
vt 0.922680 0.537223
vt 0.922933 0.536444
vt 0.874682 0.572096
vt 0.873862 0.572096
vt 0.932902 0.542432
vt 0.933383 0.541769
vt 0.876476 0.583427
vt 0.875697 0.583680
vt 0.941014 0.550544
vt 0.941676 0.550062
vt 0.881684 0.593649
vt 0.881021 0.594130
vt 0.946222 0.560765
vt 0.947001 0.560512
vt 0.889796 0.601761
vt 0.889315 0.602424
vt 0.948016 0.572096
vt 0.948836 0.572096
vt 0.900018 0.606969
vt 0.899765 0.607748
vt 0.946222 0.583427
vt 0.947001 0.583680
vt 0.911349 0.608764
vt 0.911349 0.609583
vt 0.941014 0.593649
vt 0.941676 0.594130
vt 0.922680 0.606969
vt 0.922933 0.607748
vt 0.932902 0.601761
vt 0.933383 0.602424
vt 0.889922 0.602735
vt 0.900144 0.607943
vt 0.899932 0.608595
vt 0.889519 0.603290
vt 0.911475 0.609738
vt 0.911475 0.610423
vt 0.881810 0.594623
vt 0.881255 0.595026
vt 0.922806 0.607943
vt 0.923018 0.608595
vt 0.876602 0.584401
vt 0.875950 0.584613
vt 0.933027 0.602735
vt 0.933430 0.603290
vt 0.874807 0.573070
vt 0.874121 0.573070
vt 0.941139 0.594623
vt 0.941694 0.595026
vt 0.876602 0.561739
vt 0.875950 0.561527
vt 0.946347 0.584401
vt 0.947000 0.584613
vt 0.881810 0.551518
vt 0.881255 0.551115
vt 0.948142 0.573070
vt 0.948828 0.573070
vt 0.889922 0.543406
vt 0.889519 0.542851
vt 0.946347 0.561739
vt 0.947000 0.561527
vt 0.900144 0.538197
vt 0.899932 0.537545
vn 0.951057 0.000000 -0.309016
vn 0.809017 0.000000 -0.587785
vn 0.809017 0.000000 -0.587785
vn 0.951057 0.000000 -0.309016
vn 0.587785 0.000000 -0.809017
vn 0.587785 0.000000 -0.809017
vn 0.309017 0.000000 -0.951057
vn 0.309017 0.000000 -0.951057
vn 0.000000 0.000000 -1.000000
vn 0.000000 0.000000 -1.000000
vn -0.309017 0.000000 -0.951056
vn -0.309017 0.000000 -0.951056
vn -0.587785 0.000000 -0.809017
vn -0.587785 0.000000 -0.809017
vn -0.809017 0.000000 -0.587785
vn -0.809017 0.000000 -0.587785
vn -0.951057 0.000000 -0.309017
vn -0.951057 0.000000 -0.309017
vn -1.000000 0.000000 0.000000
vn -1.000000 0.000000 0.000000
vn -0.951057 0.000000 0.309017
vn -0.951057 0.000000 0.309017
vn -0.809017 0.000000 0.587785
vn -0.809017 0.000000 0.587785
vn -0.587785 0.000000 0.809017
vn -0.587785 0.000000 0.809017
vn -0.309017 0.000000 0.951056
vn -0.309017 0.000000 0.951056
vn 0.000000 0.000000 1.000000
vn 0.000000 0.000000 1.000000
vn 0.309017 0.000000 0.951056
vn 0.309017 0.000000 0.951056
vn 0.587785 0.000000 0.809017
vn 0.587785 0.000000 0.809017
vn 0.809017 0.000000 0.587785
vn 0.809017 0.000000 0.587785
vn 0.951056 0.000000 0.309017
vn 0.951056 0.000000 0.309017
vn 1.000000 0.000000 0.000001
vn 1.000000 0.000000 0.000001
vn 0.000000 -1.000000 0.000000
vn 0.000000 -1.000000 0.000000
vn 0.000000 -1.000000 0.000000
vn 0.000000 -1.000000 0.000000
vn 0.000000 -1.000000 0.000000
vn 0.000000 -1.000000 0.000000
vn 0.000000 -1.000000 0.000000
vn 0.000000 -1.000000 0.000000
vn 0.000000 -1.000000 -0.000000
vn 0.000000 -1.000000 -0.000000
vn 0.000000 -1.000000 -0.000000
vn 0.000000 -1.000000 -0.000000
vn 0.000000 -1.000000 0.000000
vn 0.000000 -1.000000 0.000000
vn 0.000000 -1.000000 0.000000
vn 0.000000 -1.000000 0.000000
vn 0.000000 -1.000000 0.000003
vn 0.000000 -1.000000 0.000003
vn 0.000000 -1.000000 0.000003
vn 0.000000 -1.000000 0.000003
vn 0.000000 -1.000000 -0.000002
vn 0.000000 -1.000000 -0.000002
vn 0.000000 -1.000000 -0.000002
vn 0.000000 -1.000000 -0.000002
vn 0.000000 -1.000000 0.000000
vn 0.000000 -1.000000 0.000000
vn 0.000000 -1.000000 0.000000
vn 0.000000 -1.000000 0.000000
vn 0.000000 -1.000000 -0.000001
vn 0.000000 -1.000000 -0.000001
vn 0.000000 -1.000000 -0.000001
vn 0.000000 -1.000000 -0.000001
vn 0.000000 -1.000000 0.000000
vn 0.000000 -1.000000 0.000000
vn 0.000000 -1.000000 0.000000
vn 0.000000 -1.000000 0.000000
vn 0.000000 -1.000000 0.000000
vn 0.000000 -1.000000 0.000000
vn 0.000000 -1.000000 0.000000
vn 0.000000 -1.000000 0.000000
vn 0.000000 -1.000000 0.000001
vn 0.000000 -1.000000 0.000001
vn 0.000000 -1.000000 0.000001
vn 0.000000 -1.000000 0.000001
vn 0.000000 -1.000000 0.000000
vn 0.000000 -1.000000 0.000000
vn 0.000000 -1.000000 0.000000
vn 0.000000 -1.000000 0.000000
vn 0.000000 -1.000000 -0.000001
vn 0.000000 -1.000000 -0.000001
vn 0.000000 -1.000000 -0.000001
vn 0.000000 -1.000000 -0.000001
vn 0.000000 -1.000000 0.000000
vn 0.000000 -1.000000 0.000000
vn 0.000000 -1.000000 0.000000
vn 0.000000 -1.000000 0.000000
vn 0.000000 -1.000000 0.000000
vn 0.000000 -1.000000 0.000000
vn 0.000000 -1.000000 0.000000
vn 0.000000 -1.000000 0.000000
vn 0.000000 -1.000000 0.000000
vn 0.000000 -1.000000 0.000000
vn 0.000000 -1.000000 0.000000
vn 0.000000 -1.000000 0.000000
vn 0.000000 -1.000000 0.000000
vn 0.000000 -1.000000 0.000000
vn 0.000000 -1.000000 0.000000
vn 0.000000 -1.000000 0.000000
vn 0.000000 -1.000000 0.000001
vn 0.000000 -1.000000 0.000001
vn 0.000000 -1.000000 0.000001
vn 0.000000 -1.000000 0.000001
vn 0.000000 -1.000000 0.000000
vn 0.000000 -1.000000 0.000000
vn 0.000000 -1.000000 0.000000
vn 0.000000 -1.000000 0.000000
vn 0.000000 -1.000000 0.000000
vn 0.000000 -1.000000 0.000000
vn 0.000000 -1.000000 0.000000
vn 0.000000 -1.000000 0.000000
vn 0.951057 0.000000 -0.309016
vn 0.809017 0.000000 -0.587785
vn 0.809017 0.000000 -0.587785
vn 0.951057 0.000000 -0.309016
vn 0.587785 0.000000 -0.809017
vn 0.587785 0.000000 -0.809017
vn 0.309017 0.000000 -0.951057
vn 0.309017 0.000000 -0.951057
vn 0.000000 0.000000 -1.000000
vn 0.000000 0.000000 -1.000000
vn -0.309017 0.000000 -0.951056
vn -0.309017 0.000000 -0.951056
vn -0.587786 0.000000 -0.809017
vn -0.587786 0.000000 -0.809017
vn -0.809017 0.000000 -0.587785
vn -0.809017 0.000000 -0.587785
vn -0.951057 0.000000 -0.309017
vn -0.951057 0.000000 -0.309017
vn -1.000000 0.000000 0.000000
vn -1.000000 0.000000 0.000000
vn -0.951057 0.000000 0.309017
vn -0.951057 0.000000 0.309017
vn -0.809017 0.000000 0.587785
vn -0.809017 0.000000 0.587785
vn -0.587785 0.000000 0.809017
vn -0.587785 0.000000 0.809017
vn -0.309017 0.000000 0.951057
vn -0.309017 0.000000 0.951057
vn 0.000000 0.000000 1.000000
vn 0.000000 0.000000 1.000000
vn 0.309017 0.000000 0.951057
vn 0.309017 0.000000 0.951057
vn 0.587786 0.000000 0.809017
vn 0.587786 0.000000 0.809017
vn 0.809017 0.000000 0.587785
vn 0.809017 0.000000 0.587785
vn 0.951056 0.000000 0.309017
vn 0.951056 0.000000 0.309017
vn 1.000000 0.000000 0.000001
vn 1.000000 0.000000 0.000001
vn -0.012479 0.999902 0.006358
vn -0.012479 0.999902 0.006358
vn -0.012479 0.999902 0.006358
vn -0.012479 0.999902 0.006358
vn -0.009903 0.999902 0.009903
vn -0.009903 0.999902 0.009903
vn -0.009903 0.999902 0.009903
vn -0.009903 0.999902 0.009903
vn -0.006358 0.999902 0.012477
vn -0.006358 0.999902 0.012477
vn -0.006358 0.999902 0.012477
vn -0.006358 0.999902 0.012477
vn -0.002191 0.999902 0.013835
vn -0.002191 0.999902 0.013835
vn -0.002191 0.999902 0.013835
vn -0.002191 0.999902 0.013835
vn 0.002191 0.999902 0.013833
vn 0.002191 0.999902 0.013833
vn 0.002191 0.999902 0.013833
vn 0.002191 0.999902 0.013833
vn 0.006358 0.999902 0.012479
vn 0.006358 0.999902 0.012479
vn 0.006358 0.999902 0.012479
vn 0.006358 0.999902 0.012479
vn 0.009903 0.999902 0.009904
vn 0.009903 0.999902 0.009904
vn 0.009903 0.999902 0.009904
vn 0.009903 0.999902 0.009904
vn 0.012479 0.999902 0.006358
vn 0.012479 0.999902 0.006358
vn 0.012479 0.999902 0.006358
vn 0.012479 0.999902 0.006358
vn 0.013833 0.999902 0.002191
vn 0.013833 0.999902 0.002191
vn 0.013833 0.999902 0.002191
vn 0.013833 0.999902 0.002191
vn 0.013833 0.999902 -0.002191
vn 0.013833 0.999902 -0.002191
vn 0.013833 0.999902 -0.002191
vn 0.013833 0.999902 -0.002191
vn 0.012479 0.999902 -0.006358
vn 0.012479 0.999902 -0.006358
vn 0.012479 0.999902 -0.006358
vn 0.012479 0.999902 -0.006358
vn 0.009903 0.999902 -0.009903
vn 0.009903 0.999902 -0.009903
vn 0.009903 0.999902 -0.009903
vn 0.009903 0.999902 -0.009903
vn 0.006358 0.999902 -0.012479
vn 0.006358 0.999902 -0.012479
vn 0.006358 0.999902 -0.012479
vn 0.006358 0.999902 -0.012479
vn 0.002191 0.999902 -0.013833
vn 0.002191 0.999902 -0.013833
vn 0.002191 0.999902 -0.013833
vn 0.002191 0.999902 -0.013833
vn -0.002191 0.999902 -0.013833
vn -0.002191 0.999902 -0.013833
vn -0.002191 0.999902 -0.013833
vn -0.002191 0.999902 -0.013833
vn -0.006358 0.999902 -0.012479
vn -0.006358 0.999902 -0.012479
vn -0.006358 0.999902 -0.012479
vn -0.006358 0.999902 -0.012479
vn -0.009903 0.999902 -0.009903
vn -0.009903 0.999902 -0.009903
vn -0.009903 0.999902 -0.009903
vn -0.009903 0.999902 -0.009903
vn -0.012479 0.999902 -0.006357
vn -0.012479 0.999902 -0.006357
vn -0.012479 0.999902 -0.006357
vn -0.012479 0.999902 -0.006357
vn -0.013833 0.999902 -0.002191
vn -0.013833 0.999902 -0.002191
vn -0.013833 0.999902 -0.002191
vn -0.013833 0.999902 -0.002191
vn -0.013833 0.999902 0.002191
vn -0.013833 0.999902 0.002191
vn -0.013833 0.999902 0.002191
vn -0.013833 0.999902 0.002191
vn -0.951057 0.000000 0.309016
vn -0.809017 0.000000 0.587785
vn -0.809017 0.000000 0.587785
vn -0.951057 0.000000 0.309016
vn -0.587785 0.000000 0.809017
vn -0.587785 0.000000 0.809017
vn -0.309017 0.000000 0.951057
vn -0.309017 0.000000 0.951057
vn 0.000000 0.000000 1.000000
vn 0.000000 0.000000 1.000000
vn 0.309017 0.000000 0.951056
vn 0.309017 0.000000 0.951056
vn 0.587786 0.000000 0.809017
vn 0.587786 0.000000 0.809017
vn 0.809017 0.000000 0.587785
vn 0.809017 0.000000 0.587785
vn 0.951057 0.000000 0.309017
vn 0.951057 0.000000 0.309017
vn 1.000000 0.000000 0.000000
vn 1.000000 0.000000 0.000000
vn 0.951057 0.000000 -0.309017
vn 0.951057 0.000000 -0.309017
vn 0.809017 0.000000 -0.587785
vn 0.809017 0.000000 -0.587785
vn 0.587785 0.000000 -0.809017
vn 0.587785 0.000000 -0.809017
vn 0.309017 0.000000 -0.951056
vn 0.309017 0.000000 -0.951056
vn 0.000000 0.000000 -1.000000
vn 0.000000 0.000000 -1.000000
vn -0.309017 0.000000 -0.951056
vn -0.309017 0.000000 -0.951056
vn -0.587786 0.000000 -0.809017
vn -0.587786 0.000000 -0.809017
vn -0.809017 0.000000 -0.587785
vn -0.809017 0.000000 -0.587785
vn -0.951057 0.000000 -0.309017
vn -0.951057 0.000000 -0.309017
vn -1.000000 0.000000 -0.000001
vn -1.000000 0.000000 -0.000001
vn 0.000000 1.000000 0.000000
vn 0.000000 1.000000 0.000000
vn 0.000000 1.000000 0.000000
vn 0.000000 1.000000 0.000000
vn 0.000000 1.000000 0.000000
vn 0.000000 1.000000 0.000000
vn 0.000000 1.000000 0.000000
vn 0.000000 1.000000 0.000000
vn 0.000000 1.000000 0.000000
vn 0.000000 1.000000 -0.000000
vn 0.000000 1.000000 -0.000000
vn 0.000000 1.000000 -0.000000
vn 0.000000 1.000000 -0.000000
vn 0.000000 1.000000 -0.000000
vn 0.000000 1.000000 -0.000000
vn 0.000000 1.000000 0.000000
vn 0.000000 1.000000 0.000000
vn 0.000000 1.000000 0.000000
vn 0.000000 1.000000 -0.000000
vn 0.000000 1.000000 -0.000000
vn 0.000000 1.000000 -0.000000
vn 0.000000 1.000000 0.000000
vn 0.000000 1.000000 0.000000
vn 0.000000 1.000000 0.000000
vn 0.000000 1.000000 0.000000
vn 0.000000 1.000000 0.000000
vn 0.000000 1.000000 0.000000
vn 0.000000 1.000000 0.000000
vn 0.000000 1.000000 0.000000
vn 0.000000 1.000000 0.000000
vn 0.000000 1.000000 -0.000001
vn 0.000000 1.000000 -0.000001
vn 0.000000 1.000000 -0.000001
vn 0.000000 1.000000 0.000000
vn 0.000000 1.000000 0.000000
vn 0.000000 1.000000 0.000000
vn 0.000000 1.000000 0.000003
vn 0.000000 1.000000 0.000003
vn 0.000000 1.000000 0.000003
vn 0.000000 1.000000 0.000003
vn 0.000000 1.000000 0.000003
vn 0.000000 1.000000 0.000003
vn 0.000000 1.000000 -0.000001
vn 0.000000 1.000000 -0.000001
vn 0.000000 1.000000 -0.000001
vn 0.000000 1.000000 0.000000
vn 0.000000 1.000000 0.000000
vn 0.000000 1.000000 0.000000
vn 0.000000 1.000000 0.000000
vn 0.000000 1.000000 0.000000
vn 0.000000 1.000000 0.000000
vn 0.000000 1.000000 0.000000
vn 0.000000 1.000000 0.000000
vn 0.000000 1.000000 0.000000
vn -0.012601 0.999900 0.006419
vn -0.012601 0.999900 0.006419
vn -0.012601 0.999900 0.006419
vn -0.012601 0.999900 0.006419
vn -0.010000 0.999900 0.010001
vn -0.010000 0.999900 0.010001
vn -0.010000 0.999900 0.010001
vn -0.010000 0.999900 0.010001
vn -0.006421 0.999900 0.012598
vn -0.006421 0.999900 0.012598
vn -0.006421 0.999900 0.012598
vn -0.006421 0.999900 0.012598
vn -0.002212 0.999900 0.013967
vn -0.002212 0.999900 0.013967
vn -0.002212 0.999900 0.013967
vn -0.002212 0.999900 0.013967
vn 0.002212 0.999900 0.013973
vn 0.002212 0.999900 0.013973
vn 0.002212 0.999900 0.013973
vn 0.002212 0.999900 0.013973
vn 0.006421 0.999900 0.012602
vn 0.006421 0.999900 0.012602
vn 0.006421 0.999900 0.012602
vn 0.006421 0.999900 0.012602
vn 0.010000 0.999900 0.009999
vn 0.010000 0.999900 0.009999
vn 0.010000 0.999900 0.009999
vn 0.010000 0.999900 0.009999
vn 0.012601 0.999900 0.006421
vn 0.012601 0.999900 0.006421
vn 0.012601 0.999900 0.006421
vn 0.012601 0.999900 0.006421
vn 0.013968 0.999900 0.002212
vn 0.013968 0.999900 0.002212
vn 0.013968 0.999900 0.002212
vn 0.013968 0.999900 0.002212
vn 0.013968 0.999900 -0.002212
vn 0.013968 0.999900 -0.002212
vn 0.013968 0.999900 -0.002212
vn 0.013968 0.999900 -0.002212
vn 0.012601 0.999900 -0.006420
vn 0.012601 0.999900 -0.006420
vn 0.012601 0.999900 -0.006420
vn 0.012601 0.999900 -0.006420
vn 0.010000 0.999900 -0.010001
vn 0.010000 0.999900 -0.010001
vn 0.010000 0.999900 -0.010001
vn 0.010000 0.999900 -0.010001
vn 0.006421 0.999900 -0.012601
vn 0.006421 0.999900 -0.012601
vn 0.006421 0.999900 -0.012601
vn 0.006421 0.999900 -0.012601
vn 0.002212 0.999900 -0.013967
vn 0.002212 0.999900 -0.013967
vn 0.002212 0.999900 -0.013967
vn 0.002212 0.999900 -0.013967
vn -0.002212 0.999900 -0.013969
vn -0.002212 0.999900 -0.013969
vn -0.002212 0.999900 -0.013969
vn -0.002212 0.999900 -0.013969
vn -0.006421 0.999900 -0.012601
vn -0.006421 0.999900 -0.012601
vn -0.006421 0.999900 -0.012601
vn -0.006421 0.999900 -0.012601
vn -0.010000 0.999900 -0.009999
vn -0.010000 0.999900 -0.009999
vn -0.010000 0.999900 -0.009999
vn -0.010000 0.999900 -0.009999
vn -0.012601 0.999900 -0.006420
vn -0.012601 0.999900 -0.006420
vn -0.012601 0.999900 -0.006420
vn -0.012601 0.999900 -0.006420
vn -0.013968 0.999900 -0.002213
vn -0.013968 0.999900 -0.002213
vn -0.013968 0.999900 -0.002213
vn -0.013968 0.999900 -0.002213
vn -0.013968 0.999900 0.002213
vn -0.013968 0.999900 0.002213
vn -0.013968 0.999900 0.002213
vn -0.013968 0.999900 0.002213
vn 0.809017 0.000000 -0.587785
vn 0.951057 0.000000 -0.309016
vn 0.951057 0.000000 -0.309016
vn 0.809017 0.000000 -0.587785
vn 0.587785 0.000000 -0.809017
vn 0.587785 0.000000 -0.809017
vn 0.309017 0.000000 -0.951056
vn 0.309017 0.000000 -0.951056
vn 0.000000 0.000000 -1.000000
vn 0.000000 0.000000 -1.000000
vn -0.309017 0.000000 -0.951056
vn -0.309017 0.000000 -0.951056
vn -0.580058 0.052614 -0.812874
vn -0.579999 0.052588 -0.812918
vn -0.813497 0.093545 -0.573996
vn -0.796880 0.095387 -0.596560
vn -0.951904 0.041757 -0.303539
vn -0.951926 0.041738 -0.303471
vn -1.000000 0.000000 0.000000
vn -1.000000 0.000000 0.000000
vn -0.951057 0.000000 0.309016
vn -0.951057 0.000000 0.309016
vn -0.809017 0.000000 0.587785
vn -0.809017 0.000000 0.587785
vn -0.587785 0.000000 0.809017
vn -0.587785 0.000000 0.809017
vn -0.309017 0.000000 0.951056
vn -0.309017 0.000000 0.951056
vn 0.000000 0.000000 1.000000
vn 0.000000 0.000000 1.000000
vn 0.309017 0.000000 0.951057
vn 0.309017 0.000000 0.951057
vn 0.587785 0.000000 0.809017
vn 0.587785 0.000000 0.809017
vn 0.809017 0.000000 0.587785
vn 0.809017 0.000000 0.587785
vn 0.951057 0.000000 0.309017
vn 0.951057 0.000000 0.309017
vn 1.000000 0.000000 0.000001
vn 1.000000 0.000000 0.000001
vn -0.000294 -1.000000 0.000151
vn -0.000294 -1.000000 0.000151
vn -0.000294 -1.000000 0.000151
vn -0.000295 -1.000000 0.000295
vn -0.000295 -1.000000 0.000295
vn -0.000295 -1.000000 0.000295
vn -0.000262 -1.000000 0.000514
vn -0.000262 -1.000000 0.000514
vn -0.000262 -1.000000 0.000514
vn -0.000142 -1.000000 0.000895
vn -0.000142 -1.000000 0.000895
vn -0.000142 -1.000000 0.000895
vn 0.000275 -0.999998 0.001737
vn 0.000275 -0.999998 0.001737
vn 0.000275 -0.999999 0.001737
vn 0.002498 -0.999985 0.004901
vn 0.002498 -0.999985 0.004901
vn 0.002498 -0.999985 0.004901
vn 0.005114 -0.999987 0.000811
vn 0.005114 -0.999987 0.000811
vn 0.005114 -0.999987 0.000811
vn 0.001684 -0.999999 -0.000267
vn 0.001684 -0.999999 -0.000267
vn 0.001684 -0.999999 -0.000267
vn 0.000791 -1.000000 -0.000403
vn 0.000791 -1.000000 -0.000403
vn 0.000791 -1.000000 -0.000403
vn 0.000402 -1.000000 -0.000402
vn 0.000402 -1.000000 -0.000402
vn 0.000402 -1.000000 -0.000402
vn 0.000187 -1.000000 -0.000368
vn 0.000187 -1.000000 -0.000368
vn 0.000187 -1.000000 -0.000368
vn 0.000051 -1.000000 -0.000323
vn 0.000051 -1.000000 -0.000323
vn 0.000051 -1.000000 -0.000323
vn -0.000044 -1.000000 -0.000275
vn -0.000044 -1.000000 -0.000275
vn -0.000044 -1.000000 -0.000275
vn -0.000114 -1.000000 -0.000224
vn -0.000114 -1.000000 -0.000224
vn -0.000114 -1.000000 -0.000224
vn -0.000169 -1.000000 -0.000169
vn -0.000169 -1.000000 -0.000169
vn -0.000169 -1.000000 -0.000169
vn -0.000214 -1.000000 -0.000108
vn -0.000214 -1.000000 -0.000108
vn -0.000214 -1.000000 -0.000108
vn -0.000249 -1.000000 -0.000040
vn -0.000249 -1.000000 -0.000040
vn -0.000249 -1.000000 -0.000040
vn -0.000277 -1.000000 0.000043
vn -0.000277 -1.000000 0.000043
vn -0.000277 -1.000000 0.000043
vn -0.587785 0.000000 0.809017
vn -0.309017 0.000000 0.951057
vn -0.309017 0.000000 0.951057
vn -0.587785 0.000000 0.809017
vn -0.809017 0.000000 0.587785
vn -0.809017 0.000000 0.587785
vn -0.951057 0.000000 0.309017
vn -0.951057 0.000000 0.309017
vn -1.000000 0.000000 0.000000
vn -1.000000 0.000000 0.000000
vn -0.951057 0.000000 -0.309017
vn -0.951057 0.000000 -0.309017
vn -0.809017 0.000000 -0.587785
vn -0.809017 0.000000 -0.587785
vn -0.587786 0.000000 -0.809017
vn -0.587786 0.000000 -0.809017
vn -0.309017 0.000000 -0.951057
vn -0.309017 0.000000 -0.951057
vn 0.000000 0.000000 -1.000000
vn 0.000000 0.000000 -1.000000
vn 0.309017 0.000000 -0.951057
vn 0.309017 0.000000 -0.951057
vn 0.587785 0.000000 -0.809017
vn 0.587785 0.000000 -0.809017
vn 0.809017 0.000000 -0.587785
vn 0.809017 0.000000 -0.587785
vn 0.951057 0.000000 -0.309016
vn 0.951057 0.000000 -0.309016
vn 1.000000 0.000000 0.000001
vn 1.000000 0.000000 0.000001
vn 0.951056 0.000000 0.309017
vn 0.951056 0.000000 0.309017
vn 0.809017 0.000000 0.587785
vn 0.809017 0.000000 0.587785
vn 0.587785 0.000000 0.809017
vn 0.587785 0.000000 0.809017
vn 0.309017 0.000000 0.951056
vn 0.309017 0.000000 0.951056
vn 0.000000 0.000000 1.000000
vn 0.000000 0.000000 1.000000
vn -0.587786 0.000000 0.809017
vn -0.309017 0.000000 0.951057
vn -0.309017 0.000000 0.951057
vn -0.587786 0.000000 0.809017
vn -0.809017 0.000000 0.587785
vn -0.809017 0.000000 0.587785
vn -0.951056 0.000000 0.309017
vn -0.951056 0.000000 0.309017
vn -1.000000 0.000000 0.000000
vn -1.000000 0.000000 0.000000
vn -0.951057 0.000000 -0.309017
vn -0.951057 0.000000 -0.309017
vn -0.809017 0.000000 -0.587785
vn -0.809017 0.000000 -0.587785
vn -0.587785 0.000000 -0.809017
vn -0.587785 0.000000 -0.809017
vn -0.309017 0.000000 -0.951056
vn -0.309017 0.000000 -0.951056
vn 0.000000 0.000000 -1.000000
vn -0.000000 0.000000 -1.000000
vn 0.309017 -0.000001 -0.951056
vn 0.309017 -0.000001 -0.951056
vn 0.587785 -0.000001 -0.809017
vn 0.587785 -0.000001 -0.809017
vn 0.809017 -0.000001 -0.587785
vn 0.809017 -0.000001 -0.587785
vn 0.951057 0.000000 -0.309016
vn 0.951057 0.000000 -0.309016
vn 1.000000 0.000000 0.000001
vn 1.000000 0.000000 0.000001
vn 0.951056 0.000000 0.309017
vn 0.951056 0.000000 0.309017
vn 0.809017 0.000000 0.587785
vn 0.809017 0.000000 0.587785
vn 0.587785 0.000000 0.809017
vn 0.587785 0.000000 0.809017
vn 0.309017 0.000000 0.951057
vn 0.309017 0.000000 0.951057
vn 0.000001 0.000000 1.000000
vn 0.000001 0.000000 1.000000
vn -0.587785 0.000000 0.809017
vn -0.309017 0.000000 0.951057
vn -0.309017 0.000000 0.951057
vn -0.587785 0.000000 0.809017
vn -0.809017 0.000000 0.587785
vn -0.809017 0.000000 0.587785
vn -0.951057 0.000000 0.309017
vn -0.951057 0.000000 0.309017
vn -1.000000 0.000000 0.000000
vn -1.000000 0.000000 0.000000
vn -0.951057 0.000000 -0.309017
vn -0.951057 0.000000 -0.309017
vn -0.809017 0.000000 -0.587785
vn -0.809017 0.000000 -0.587785
vn -0.587785 0.000000 -0.809017
vn -0.587785 0.000000 -0.809017
vn -0.309017 0.000000 -0.951056
vn -0.309017 0.000000 -0.951056
vn 0.000000 -0.000000 -1.000000
vn 0.000000 -0.000000 -1.000000
vn 0.309017 -0.000000 -0.951057
vn 0.309017 -0.000000 -0.951057
vn 0.587785 0.000000 -0.809017
vn 0.587785 0.000000 -0.809017
vn 0.809017 0.000000 -0.587785
vn 0.809017 0.000000 -0.587785
vn 0.951057 0.000000 -0.309016
vn 0.951057 0.000000 -0.309016
vn 1.000000 0.000000 0.000001
vn 1.000000 0.000000 0.000001
vn 0.951056 0.000000 0.309017
vn 0.951056 0.000000 0.309017
vn 0.809017 -0.000000 0.587785
vn 0.809017 -0.000000 0.587785
vn 0.587785 -0.000000 0.809017
vn 0.587785 -0.000000 0.809017
vn 0.309017 -0.000000 0.951057
vn 0.309017 -0.000000 0.951057
vn 0.000000 0.000000 1.000000
vn 0.000000 0.000000 1.000000
vn -0.587785 0.000000 0.809017
vn -0.309017 0.000000 0.951057
vn -0.309017 0.000000 0.951057
vn -0.587785 0.000000 0.809017
vn -0.809017 0.000000 0.587785
vn -0.809017 0.000000 0.587785
vn -0.951056 0.000000 0.309017
vn -0.951056 0.000000 0.309017
vn -1.000000 0.000000 0.000000
vn -1.000000 0.000000 0.000000
vn -0.951057 0.000000 -0.309017
vn -0.951057 0.000000 -0.309017
vn -0.809017 0.000000 -0.587785
vn -0.809017 0.000000 -0.587785
vn -0.587785 0.000000 -0.809017
vn -0.587785 0.000000 -0.809017
vn -0.309017 0.000000 -0.951056
vn -0.309017 0.000000 -0.951056
vn 0.000000 0.000000 -1.000000
vn 0.000000 0.000000 -1.000000
vn 0.309017 0.000000 -0.951057
vn 0.309017 0.000000 -0.951057
vn 0.587785 0.000000 -0.809017
vn 0.587785 0.000000 -0.809017
vn 0.809017 0.000000 -0.587785
vn 0.809017 0.000000 -0.587785
vn 0.951057 0.000000 -0.309016
vn 0.951057 0.000000 -0.309016
vn 1.000000 0.000000 0.000001
vn 1.000000 0.000000 0.000001
vn 0.951056 0.000000 0.309017
vn 0.951056 0.000000 0.309017
vn 0.809017 0.000000 0.587785
vn 0.809017 0.000000 0.587785
vn 0.587785 0.000000 0.809017
vn 0.587785 0.000000 0.809017
vn 0.309017 0.000000 0.951056
vn 0.309017 0.000000 0.951056
vn 0.000001 0.000000 1.000000
vn 0.000001 0.000000 1.000000
vn -0.009166 -0.999878 0.012617
vn -0.004819 -0.999878 0.014829
vn -0.004819 -0.999878 0.014829
vn -0.009166 -0.999878 0.012617
vn -0.004819 0.999878 0.014831
vn -0.009166 0.999878 0.012616
vn -0.009166 0.999878 0.012616
vn -0.004819 0.999878 0.014831
vn -0.012616 -0.999878 0.009166
vn -0.012616 -0.999878 0.009166
vn -0.012616 0.999878 0.009166
vn -0.012616 0.999878 0.009166
vn -0.014830 -0.999878 0.004819
vn -0.014830 -0.999878 0.004819
vn -0.014830 0.999878 0.004818
vn -0.014830 0.999878 0.004818
vn -0.015594 -0.999878 -0.000000
vn -0.015594 -0.999878 -0.000000
vn -0.015594 0.999878 -0.000000
vn -0.015594 0.999878 -0.000000
vn -0.014830 -0.999878 -0.004818
vn -0.014830 -0.999878 -0.004818
vn -0.014830 0.999878 -0.004818
vn -0.014830 0.999878 -0.004818
vn -0.012616 -0.999878 -0.009165
vn -0.012616 -0.999878 -0.009165
vn -0.012616 0.999878 -0.009165
vn -0.012616 0.999878 -0.009165
vn -0.009166 -0.999878 -0.012615
vn -0.009166 -0.999878 -0.012615
vn -0.009166 0.999878 -0.012616
vn -0.009166 0.999878 -0.012616
vn -0.004819 -0.999878 -0.014829
vn -0.004819 -0.999878 -0.014829
vn -0.004819 0.999878 -0.014832
vn -0.004819 0.999878 -0.014832
vn -0.000000 -0.999878 -0.015592
vn -0.000000 -0.999878 -0.015592
vn 0.000000 0.999878 -0.015596
vn 0.000000 0.999878 -0.015596
vn 0.004818 -0.999878 -0.014829
vn 0.004818 -0.999878 -0.014829
vn 0.004819 0.999878 -0.014833
vn 0.004819 0.999878 -0.014833
vn 0.009165 -0.999878 -0.012614
vn 0.009165 -0.999878 -0.012614
vn 0.009167 0.999878 -0.012617
vn 0.009167 0.999878 -0.012617
vn 0.012615 -0.999878 -0.009165
vn 0.012615 -0.999878 -0.009165
vn 0.012616 0.999878 -0.009166
vn 0.012616 0.999878 -0.009166
vn 0.014830 -0.999878 -0.004818
vn 0.014830 -0.999878 -0.004818
vn 0.014830 0.999878 -0.004819
vn 0.014830 0.999878 -0.004819
vn 0.015594 -0.999878 0.000000
vn 0.015594 -0.999878 0.000000
vn 0.015594 0.999878 0.000000
vn 0.015594 0.999878 0.000000
vn 0.014830 -0.999878 0.004819
vn 0.014830 -0.999878 0.004819
vn 0.014830 0.999878 0.004818
vn 0.014830 0.999878 0.004818
vn 0.012616 -0.999878 0.009166
vn 0.012616 -0.999878 0.009166
vn 0.012616 0.999878 0.009165
vn 0.012616 0.999878 0.009165
vn 0.009166 -0.999878 0.012616
vn 0.009166 -0.999878 0.012616
vn 0.009166 0.999878 0.012615
vn 0.009166 0.999878 0.012615
vn 0.004819 -0.999878 0.014831
vn 0.004819 -0.999878 0.014831
vn 0.004819 0.999878 0.014830
vn 0.004819 0.999878 0.014830
vn 0.000000 -0.999878 0.015592
vn 0.000000 -0.999878 0.015592
vn 0.000000 0.999878 0.015593
vn 0.000000 0.999878 0.015593
vn -0.015848 -0.999637 0.021812
vn -0.008332 -0.999636 0.025643
vn -0.008332 -0.999636 0.025643
vn -0.015848 -0.999636 0.021812
vn -0.008331 0.999637 0.025639
vn -0.015846 0.999637 0.021811
vn -0.015846 0.999637 0.021811
vn -0.008331 0.999637 0.025639
vn -0.021813 -0.999637 0.015847
vn -0.021813 -0.999636 0.015847
vn -0.021810 0.999637 0.015846
vn -0.021810 0.999637 0.015846
vn -0.025642 -0.999636 0.008332
vn -0.025642 -0.999636 0.008332
vn -0.025640 0.999637 0.008331
vn -0.025640 0.999637 0.008331
vn -0.026962 -0.999636 0.000000
vn -0.026962 -0.999636 0.000000
vn -0.026959 0.999637 -0.000000
vn -0.026959 0.999637 -0.000000
vn -0.025642 -0.999636 -0.008332
vn -0.025642 -0.999636 -0.008332
vn -0.025640 0.999637 -0.008330
vn -0.025639 0.999637 -0.008330
vn -0.021813 -0.999636 -0.015848
vn -0.021813 -0.999636 -0.015848
vn -0.021810 0.999636 -0.015846
vn -0.021810 0.999637 -0.015845
vn -0.015848 -0.999636 -0.021813
vn -0.015848 -0.999636 -0.021813
vn -0.015846 0.999637 -0.021810
vn -0.015846 0.999637 -0.021810
vn -0.008332 -0.999636 -0.025642
vn -0.008332 -0.999636 -0.025642
vn -0.008331 0.999637 -0.025639
vn -0.008331 0.999637 -0.025639
vn 0.000000 -0.999637 -0.026962
vn -0.000000 -0.999636 -0.026962
vn 0.000000 0.999637 -0.026959
vn -0.000000 0.999637 -0.026959
vn 0.008332 -0.999636 -0.025643
vn 0.008332 -0.999637 -0.025643
vn 0.008331 0.999637 -0.025639
vn 0.008331 0.999637 -0.025639
vn 0.015848 -0.999636 -0.021814
vn 0.015848 -0.999636 -0.021814
vn 0.015846 0.999636 -0.021811
vn 0.015846 0.999637 -0.021811
vn 0.021813 -0.999636 -0.015848
vn 0.021813 -0.999636 -0.015848
vn 0.021810 0.999637 -0.015846
vn 0.021810 0.999637 -0.015846
vn 0.025642 -0.999636 -0.008332
vn 0.025642 -0.999636 -0.008332
vn 0.025640 0.999637 -0.008331
vn 0.025640 0.999637 -0.008331
vn 0.026962 -0.999636 0.000000
vn 0.026962 -0.999636 0.000000
vn 0.026959 0.999637 0.000000
vn 0.026959 0.999637 0.000000
vn 0.025642 -0.999636 0.008332
vn 0.025642 -0.999636 0.008332
vn 0.025640 0.999637 0.008331
vn 0.025640 0.999637 0.008331
vn 0.021813 -0.999636 0.015848
vn 0.021813 -0.999636 0.015848
vn 0.021810 0.999637 0.015846
vn 0.021810 0.999636 0.015846
vn 0.015848 -0.999636 0.021814
vn 0.015848 -0.999636 0.021814
vn 0.015846 0.999636 0.021811
vn 0.015846 0.999637 0.021811
vn 0.008332 -0.999636 0.025643
vn 0.008332 -0.999637 0.025643
vn 0.008331 0.999637 0.025640
vn 0.008331 0.999637 0.025640
vn 0.000000 -0.999636 0.026962
vn 0.000000 -0.999636 0.026962
vn 0.000000 0.999637 0.026958
vn 0.000000 0.999637 0.026958
s 1
g pCylinder3
usemtl lambert3SG
f 1/1/1 2/2/2 233/3/3 234/4/4
f 2/2/2 3/5/5 232/6/6 233/3/3
f 3/5/5 4/16/7 231/17/8 232/6/6
f 4/16/7 5/19/9 230/20/10 231/17/8
f 5/19/9 6/21/11 229/22/12 230/20/10
f 6/21/11 7/23/13 228/24/14 229/22/12
f 7/23/13 8/25/15 227/26/16 228/24/14
f 8/25/15 9/28/17 226/29/18 227/26/16
f 9/28/17 10/31/19 225/32/20 226/29/18
f 10/31/19 11/33/21 224/34/22 225/32/20
f 11/33/21 12/35/23 223/36/24 224/34/22
f 12/35/23 13/37/25 222/38/26 223/36/24
f 13/37/25 14/40/27 221/41/28 222/38/26
f 14/40/27 15/43/29 240/44/30 221/41/28
f 15/43/29 16/45/31 239/46/32 240/44/30
f 16/45/31 17/47/33 238/48/34 239/46/32
f 17/13/33 18/11/35 237/12/36 238/14/34
f 18/11/35 19/9/37 236/10/38 237/12/36
f 19/9/37 20/7/39 235/8/40 236/10/38
f 20/7/39 1/1/1 234/4/4 235/8/40
s off
f 21/49/41 22/50/42 42/51/43 41/52/44
f 22/50/45 23/53/46 43/54/47 42/51/48
f 23/53/49 24/57/50 44/58/51 43/54/52
f 24/57/53 25/61/54 45/62/55 44/58/56
f 25/61/57 26/65/58 46/66/59 45/62/60
f 26/65/61 27/69/62 47/70/63 46/66/64
f 27/69/65 28/73/66 48/74/67 47/70/68
f 28/73/69 29/77/70 49/78/71 48/74/72
f 29/77/73 30/81/74 50/82/75 49/78/76
f 30/81/77 31/85/78 51/86/79 50/82/80
f 31/85/81 32/87/82 52/88/83 51/86/84
f 32/87/85 33/83/86 53/84/87 52/88/88
f 33/83/89 34/79/90 54/80/91 53/84/92
f 34/79/93 35/75/94 55/76/95 54/80/96
f 35/75/97 36/71/98 56/72/99 55/76/100
f 36/71/101 37/67/102 57/68/103 56/72/104
f 37/67/105 38/63/106 58/64/107 57/68/108
f 38/63/109 39/59/110 59/60/111 58/64/112
f 39/59/113 40/55/114 60/56/115 59/60/116
f 40/55/117 21/49/118 41/52/119 60/56/120
s 2
f 41/89/121 42/90/122 62/91/123 61/92/124
f 42/90/122 43/93/125 63/94/126 62/91/123
f 43/103/125 44/104/127 64/105/128 63/106/126
f 44/104/127 45/107/129 65/108/130 64/105/128
f 45/107/129 46/109/131 66/110/132 65/108/130
f 46/109/131 47/111/133 67/112/134 66/110/132
f 47/111/133 48/113/135 68/114/136 67/112/134
f 48/113/135 49/116/137 69/117/138 68/114/136
f 49/116/137 50/119/139 70/120/140 69/117/138
f 50/119/139 51/121/141 71/122/142 70/120/140
f 51/121/141 52/123/143 72/124/144 71/122/142
f 52/123/143 53/125/145 73/126/146 72/124/144
f 53/125/145 54/128/147 74/129/148 73/126/146
f 54/128/147 55/131/149 75/132/150 74/129/148
f 55/131/149 56/133/151 76/134/152 75/132/150
f 56/133/151 57/101/153 77/102/154 76/134/152
f 57/101/153 58/99/155 78/100/156 77/102/154
f 58/99/155 59/97/157 79/98/158 78/100/156
f 59/97/157 60/95/159 80/96/160 79/98/158
f 60/95/159 41/89/121 61/92/124 80/96/160
s off
f 61/137/161 62/138/162 82/139/163 81/140/164
f 62/138/165 63/141/166 83/142/167 82/139/168
f 63/141/169 64/145/170 84/146/171 83/142/172
f 64/145/173 65/149/174 85/150/175 84/146/176
f 65/149/177 66/153/178 86/154/179 85/150/180
f 66/153/181 67/157/182 87/158/183 86/154/184
f 67/157/185 68/161/186 88/162/187 87/158/188
f 68/161/189 69/165/190 89/166/191 88/162/192
f 69/165/193 70/169/194 90/170/195 89/166/196
f 70/169/197 71/173/198 91/174/199 90/170/200
f 71/173/201 72/175/202 92/176/203 91/174/204
f 72/175/205 73/171/206 93/172/207 92/176/208
f 73/171/209 74/167/210 94/168/211 93/172/212
f 74/167/213 75/163/214 95/164/215 94/168/216
f 75/163/217 76/159/218 96/160/219 95/164/220
f 76/159/221 77/155/222 97/156/223 96/160/224
f 77/155/225 78/151/226 98/152/227 97/156/228
f 78/151/229 79/147/230 99/148/231 98/152/232
f 79/147/233 80/143/234 100/144/235 99/148/236
f 80/143/237 61/137/238 81/140/239 100/144/240
s 3
f 81/177/241 82/178/242 102/179/243 101/180/244
f 82/178/242 83/181/245 103/182/246 102/179/243
f 83/181/245 84/192/247 104/193/248 103/182/246
f 84/192/247 85/195/249 105/196/250 104/193/248
f 85/195/249 86/197/251 106/198/252 105/196/250
f 86/197/251 87/199/253 107/200/254 106/198/252
f 87/199/253 88/201/255 108/202/256 107/200/254
f 88/201/255 89/204/257 109/205/258 108/202/256
f 89/204/257 90/207/259 110/208/260 109/205/258
f 90/207/259 91/209/261 111/210/262 110/208/260
f 91/209/261 92/211/263 112/212/264 111/210/262
f 92/211/263 93/213/265 113/214/266 112/212/264
f 93/213/265 94/216/267 114/217/268 113/214/266
f 94/216/267 95/219/269 115/220/270 114/217/268
f 95/219/269 96/221/271 116/222/272 115/220/270
f 96/221/271 97/223/273 117/224/274 116/222/272
f 97/189/273 98/187/275 118/188/276 117/190/274
f 98/187/275 99/185/277 119/186/278 118/188/276
f 99/185/277 100/183/279 120/184/280 119/186/278
f 100/183/279 81/177/241 101/180/244 120/184/280
s off
f 101/225/281 102/226/282 115/227/283
f 102/226/284 103/228/285 115/227/286
f 103/228/287 104/230/288 115/227/289
f 104/230/290 105/232/291 115/227/292
f 105/232/293 106/234/294 115/227/295
f 106/234/296 107/236/297 115/227/298
f 107/236/299 108/238/300 115/227/301
f 108/238/302 109/239/303 115/227/304
f 109/239/305 110/240/306 115/227/307
f 110/240/308 111/241/309 115/227/310
f 111/241/311 112/242/312 115/227/313
f 112/242/314 113/243/315 115/227/316
f 113/243/317 114/244/318 115/227/319
f 116/237/320 117/235/321 115/227/322
f 117/235/323 118/233/324 115/227/325
f 118/233/326 119/231/327 115/227/328
f 119/231/329 120/229/330 115/227/331
f 120/229/332 101/225/333 115/227/334
f 2/245/335 1/246/336 121/247/337 122/248/338
f 3/251/339 2/245/340 122/248/341 123/252/342
f 4/255/343 3/251/344 123/252/345 124/256/346
f 5/259/347 4/255/348 124/256/349 125/260/350
f 6/263/351 5/259/352 125/260/353 126/264/354
f 7/267/355 6/263/356 126/264/357 127/268/358
f 8/271/359 7/267/360 127/268/361 128/272/362
f 9/275/363 8/271/364 128/272/365 129/276/366
f 10/279/367 9/275/368 129/276/369 130/280/370
f 11/283/371 10/279/372 130/280/373 131/284/374
f 12/281/375 11/283/376 131/284/377 132/282/378
f 13/277/379 12/281/380 132/282/381 133/278/382
f 14/273/383 13/277/384 133/278/385 134/274/386
f 15/269/387 14/273/388 134/274/389 135/270/390
f 16/265/391 15/269/392 135/270/393 136/266/394
f 17/261/395 16/265/396 136/266/397 137/262/398
f 18/257/399 17/261/400 137/262/401 138/258/402
f 19/253/403 18/257/404 138/258/405 139/254/406
f 20/249/407 19/253/408 139/254/409 140/250/410
f 1/246/411 20/249/412 140/250/413 121/247/414
s 4
f 122/285/415 121/286/416 141/287/417 142/288/418
f 123/291/419 122/285/415 142/288/418 143/292/420
f 124/299/421 123/291/419 143/292/420 144/302/422
f 125/303/423 124/299/421 144/302/422 145/304/424
f 126/305/425 125/303/423 145/304/424 146/306/426
f 127/307/427 126/305/425 146/306/426 147/308/428
f 128/309/429 127/307/427 147/308/428 148/310/430
f 129/311/431 128/312/429 148/313/430 149/314/432
f 130/315/433 129/311/431 149/314/432 150/316/434
f 131/317/435 130/315/433 150/316/434 151/318/436
f 132/319/437 131/317/435 151/318/436 152/320/438
f 133/321/439 132/319/437 152/320/438 153/322/440
f 134/323/441 133/321/439 153/322/440 154/326/442
f 135/327/443 134/323/441 154/326/442 155/328/444
f 136/329/445 135/327/443 155/328/444 156/330/446
f 137/297/447 136/329/445 156/330/446 157/298/448
f 138/295/449 137/297/447 157/298/448 158/296/450
f 139/293/451 138/295/449 158/296/450 159/294/452
f 140/289/453 139/293/451 159/294/452 160/290/454
f 121/286/416 140/289/453 160/290/454 141/287/417
s off
f 142/333/455 141/334/456 148/335/457
f 143/337/458 142/333/459 148/335/460
f 144/339/461 143/337/462 148/335/463
f 145/341/464 144/339/465 148/335/466
f 146/343/467 145/341/468 148/335/469
f 147/345/470 146/343/471 148/335/472
f 150/351/473 149/352/474 148/335/475
f 151/350/476 150/351/477 148/335/478
f 152/349/479 151/350/480 148/335/481
f 153/348/482 152/349/483 148/335/484
f 154/347/485 153/348/486 148/335/487
f 155/346/488 154/347/489 148/335/490
f 156/344/491 155/346/492 148/335/493
f 157/342/494 156/344/495 148/335/496
f 158/340/497 157/342/498 148/335/499
f 159/338/500 158/340/501 148/335/502
f 160/336/503 159/338/504 148/335/505
f 141/334/506 160/336/507 148/335/508
s 5
f 162/353/509 161/354/510 34/355/511 33/356/512
f 163/359/513 162/353/509 33/356/512 32/360/514
f 164/367/515 163/359/513 32/360/514 31/370/516
f 165/371/517 164/367/515 31/370/516 30/372/518
f 166/373/519 165/371/517 30/372/518 29/374/520
f 167/375/521 166/373/519 29/374/520 28/376/522
f 168/377/523 167/375/521 28/376/522 27/378/524
f 169/379/525 168/377/523 27/378/524 26/382/526
f 170/383/527 169/379/525 26/382/526 25/384/528
f 171/385/529 170/383/527 25/384/528 24/386/530
f 172/387/531 171/385/529 24/386/530 23/388/532
f 173/389/533 172/387/531 23/388/532 22/390/534
f 174/391/535 173/392/533 22/393/534 21/394/536
f 175/395/537 174/391/535 21/394/536 40/396/538
f 176/397/539 175/395/537 40/396/538 39/398/540
f 177/365/541 176/397/539 39/398/540 38/366/542
f 178/363/543 177/365/541 38/366/542 37/364/544
f 179/361/545 178/363/543 37/364/544 36/362/546
f 180/357/547 179/361/545 36/362/546 35/358/548
f 161/354/510 180/357/547 35/358/548 34/355/511
s 6
f 242/401/549 241/402/550 243/403/551 244/404/552
f 245/407/553 242/401/549 244/404/552 246/408/554
f 247/415/555 245/407/553 246/408/554 248/418/556
f 249/419/557 247/415/555 248/418/556 250/420/558
f 251/421/559 249/419/557 250/420/558 252/422/560
f 253/423/561 251/421/559 252/422/560 254/424/562
f 255/425/563 253/423/561 254/424/562 256/426/564
f 257/427/565 255/428/563 256/429/564 258/430/566
f 259/431/567 257/427/565 258/430/566 260/432/568
f 261/433/569 259/431/567 260/432/568 262/434/570
f 263/435/571 261/433/569 262/434/570 264/436/572
f 265/437/573 263/435/571 264/436/572 266/438/574
f 267/439/575 265/437/573 266/438/574 268/442/576
f 269/443/577 267/439/575 268/442/576 270/444/578
f 271/445/579 269/443/577 270/444/578 272/446/580
f 273/413/581 271/445/579 272/446/580 274/414/582
f 275/411/583 273/413/581 274/414/582 276/412/584
f 277/409/585 275/411/583 276/412/584 278/410/586
f 279/405/587 277/409/585 278/410/586 280/406/588
f 241/402/550 279/405/587 280/406/588 243/403/551
s 7
f 202/449/589 201/450/590 181/451/591 182/452/592
f 203/455/593 202/449/589 182/452/592 183/456/594
f 204/463/595 203/464/593 183/465/594 184/466/596
f 205/467/597 204/463/595 184/466/596 185/468/598
f 206/469/599 205/467/597 185/468/598 186/470/600
f 207/471/601 206/469/599 186/470/600 187/472/602
f 208/473/603 207/471/601 187/472/602 188/474/604
f 209/475/605 208/473/603 188/474/604 189/478/606
f 210/479/607 209/475/605 189/478/606 190/480/608
f 211/481/609 210/479/607 190/480/608 191/482/610
f 212/483/611 211/481/609 191/482/610 192/484/612
f 213/485/613 212/483/611 192/484/612 193/486/614
f 214/487/615 213/485/613 193/486/614 194/490/616
f 215/491/617 214/487/615 194/490/616 195/492/618
f 216/493/619 215/491/617 195/492/618 196/494/620
f 217/461/621 216/493/619 196/494/620 197/462/622
f 218/459/623 217/461/621 197/462/622 198/460/624
f 219/457/625 218/459/623 198/460/624 199/458/626
f 220/453/627 219/457/625 199/458/626 200/454/628
f 201/450/590 220/453/627 200/454/628 181/451/591
s 8
f 282/497/629 281/498/630 283/499/631 284/500/632
f 285/503/633 282/497/629 284/500/632 286/504/634
f 287/511/635 285/503/633 286/504/634 288/514/636
f 289/515/637 287/511/635 288/514/636 290/516/638
f 291/517/639 289/515/637 290/516/638 292/518/640
f 293/519/641 291/517/639 292/518/640 294/520/642
f 295/521/643 293/519/641 294/520/642 296/522/644
f 297/523/645 295/524/643 296/525/644 298/526/646
f 299/527/647 297/523/645 298/526/646 300/528/648
f 301/529/649 299/527/647 300/528/648 302/530/650
f 303/531/651 301/529/649 302/530/650 304/532/652
f 305/533/653 303/531/651 304/532/652 306/534/654
f 307/535/655 305/533/653 306/534/654 308/538/656
f 309/539/657 307/535/655 308/538/656 310/540/658
f 311/541/659 309/539/657 310/540/658 312/542/660
f 313/509/661 311/541/659 312/542/660 314/510/662
f 315/507/663 313/509/661 314/510/662 316/508/664
f 317/505/665 315/507/663 316/508/664 318/506/666
f 319/501/667 317/505/665 318/506/666 320/502/668
f 281/498/630 319/501/667 320/502/668 283/499/631
s 9
f 182/545/669 181/546/670 241/547/671 242/548/672
s 10
f 161/585/673 162/586/674 244/587/675 243/588/676
s 9
f 183/551/677 182/545/669 242/548/672 245/552/678
s 10
f 162/586/674 163/589/679 246/590/680 244/587/675
s 9
f 184/555/681 183/551/677 245/552/678 247/556/682
s 10
f 163/589/679 164/593/683 248/594/684 246/590/680
s 9
f 185/559/685 184/555/681 247/556/682 249/560/686
s 10
f 164/593/683 165/597/687 250/598/688 248/594/684
s 9
f 186/563/689 185/559/685 249/560/686 251/564/690
s 10
f 165/597/687 166/601/691 252/602/692 250/598/688
s 9
f 187/567/693 186/563/689 251/564/690 253/568/694
s 10
f 166/601/691 167/605/695 254/606/696 252/602/692
s 9
f 188/571/697 187/567/693 253/568/694 255/572/698
s 10
f 167/605/695 168/609/699 256/610/700 254/606/696
s 9
f 189/575/701 188/571/697 255/572/698 257/576/702
s 10
f 168/609/699 169/613/703 258/614/704 256/610/700
s 9
f 190/579/705 189/575/701 257/576/702 259/580/706
s 10
f 169/613/703 170/617/707 260/618/708 258/614/704
s 9
f 191/583/709 190/579/705 259/580/706 261/584/710
s 10
f 170/617/707 171/621/711 262/622/712 260/618/708
s 9
f 192/581/713 191/583/709 261/584/710 263/582/714
s 10
f 171/621/711 172/623/715 264/624/716 262/622/712
s 9
f 193/577/717 192/581/713 263/582/714 265/578/718
s 10
f 172/623/715 173/619/719 266/620/720 264/624/716
s 9
f 194/573/721 193/577/717 265/578/718 267/574/722
s 10
f 173/619/719 174/615/723 268/616/724 266/620/720
s 9
f 195/569/725 194/573/721 267/574/722 269/570/726
s 10
f 174/615/723 175/611/727 270/612/728 268/616/724
s 9
f 196/565/729 195/569/725 269/570/726 271/566/730
s 10
f 175/611/727 176/607/731 272/608/732 270/612/728
s 9
f 197/561/733 196/565/729 271/566/730 273/562/734
s 10
f 176/607/731 177/603/735 274/604/736 272/608/732
s 9
f 198/557/737 197/561/733 273/562/734 275/558/738
s 10
f 177/603/735 178/599/739 276/600/740 274/604/736
s 9
f 199/553/741 198/557/737 275/558/738 277/554/742
s 10
f 178/599/739 179/595/743 278/596/744 276/600/740
s 9
f 200/549/745 199/553/741 277/554/742 279/550/746
s 10
f 179/595/743 180/591/747 280/592/748 278/596/744
s 9
f 181/546/670 200/549/745 279/550/746 241/547/671
s 10
f 180/591/747 161/585/673 243/588/676 280/592/748
s 11
f 222/625/749 221/626/750 281/627/751 282/628/752
s 12
f 201/441/753 202/440/754 284/301/755 283/300/756
s 11
f 223/631/757 222/625/749 282/628/752 285/632/758
s 12
f 202/440/754 203/118/759 286/115/760 284/301/755
s 11
f 224/635/761 223/631/757 285/632/758 287/636/762
s 12
f 203/118/759 204/544/763 288/543/764 286/115/760
s 11
f 225/639/765 224/635/761 287/636/762 289/640/766
s 12
f 204/544/763 205/325/767 290/324/768 288/543/764
s 11
f 226/643/769 225/639/765 289/640/766 291/644/770
s 12
f 205/325/767 206/130/771 292/127/772 290/324/768
s 11
f 227/647/773 226/643/769 291/644/770 293/648/774
s 12
f 206/130/771 207/206/775 294/203/776 292/127/772
s 11
f 228/651/777 227/647/773 293/648/774 295/652/778
s 12
f 207/206/775 208/369/779 296/368/780 294/203/776
s 11
f 229/655/781 228/651/777 295/652/778 297/656/782
s 12
f 208/369/779 209/477/783 298/476/784 296/368/780
s 11
f 230/513/785 229/655/781 297/656/782 299/512/786
s 12
f 209/477/783 210/381/787 300/380/788 298/476/784
s 11
f 231/417/789 230/513/785 299/512/786 301/416/790
s 12
f 210/381/787 211/496/791 302/495/792 300/380/788
s 11
f 232/537/793 231/417/789 301/416/790 303/536/794
s 12
f 211/496/791 212/400/795 304/399/796 302/495/792
s 11
f 233/332/797 232/537/793 303/536/794 305/331/798
s 12
f 212/400/795 213/489/799 306/488/800 304/399/796
s 11
f 234/653/801 233/332/797 305/331/798 307/654/802
s 12
f 213/489/799 214/30/803 308/27/804 306/488/800
s 11
f 235/649/805 234/653/801 307/654/802 309/650/806
s 12
f 214/30/803 215/42/807 310/39/808 308/27/804
s 11
f 236/645/809 235/649/805 309/650/806 311/646/810
s 12
f 215/42/807 216/18/811 312/15/812 310/39/808
s 11
f 237/641/813 236/645/809 311/646/810 313/642/814
s 12
f 216/18/811 217/218/815 314/215/816 312/15/812
s 11
f 238/637/817 237/641/813 313/642/814 315/638/818
s 12
f 217/218/815 218/136/819 316/135/820 314/215/816
s 11
f 239/633/821 238/637/817 315/638/818 317/634/822
s 12
f 218/136/819 219/448/823 318/447/824 316/135/820
s 11
f 240/629/825 239/633/821 317/634/822 319/630/826
s 12
f 219/448/823 220/194/827 320/191/828 318/447/824
s 11
f 221/626/750 240/629/825 319/630/826 281/627/751
s 12
f 220/194/827 201/441/753 283/300/756 320/191/828
