# This file uses centimeters as units for non-parametric coordinates.

g default
v 2.200082 0.007101 0.948513
v 4.748125 0.007101 0.948513
v 2.200082 3.964120 0.948513
v 4.748125 3.964120 0.948513
v 2.200082 3.964120 -0.172697
v 4.748125 3.964120 -0.172697
v 2.200082 0.007101 -0.042094
v 4.748125 0.007101 -0.172697
v 5.555561 0.040460 -0.976668
v 5.555561 0.040460 -0.674789
v 5.555561 2.380192 -0.976668
v 5.555561 2.380192 -0.674789
v 1.441116 0.057408 -0.899162
v 1.441116 0.057408 -0.599909
v 1.442896 2.308310 -0.627336
v 1.442896 2.308310 -0.926588
v -1.479508 0.007101 -0.549134
v 1.650612 0.007101 -0.549134
v -1.479508 2.431047 -0.549134
v 1.650612 2.431047 -0.549134
v -1.479508 2.431047 -1.046637
v 1.650612 2.431047 -1.046637
v -1.479508 0.007101 -1.046637
v 1.650612 0.007101 -1.046637
v -4.778915 0.007101 0.948513
v -2.230872 0.007101 0.948513
v -4.778915 3.964120 0.948513
v -2.230872 3.964120 0.948513
v -4.778915 3.964120 -0.172697
v -2.230872 3.964120 -0.172697
v -4.778915 0.007101 -0.042094
v -2.230872 0.007101 -0.172697
v -1.423436 0.040460 -0.976668
v -1.423436 0.040460 -0.674789
v -1.423436 2.380192 -0.976668
v -1.423436 2.380192 -0.674789
v -5.537881 0.057408 -0.899162
v -5.537881 0.057408 -0.599909
v -5.536100 2.308310 -0.627336
v -5.536100 2.308310 -0.926588
vt 0.375000 0.000000
vt 0.625000 0.000000
vt 0.375000 0.250000
vt 0.625000 0.250000
vt 0.375000 0.500000
vt 0.625000 0.500000
vt 0.375000 0.750000
vt 0.625000 0.750000
vt 0.375000 1.000000
vt 0.625000 1.000000
vt 0.875000 0.000000
vt 0.875000 0.250000
vt 0.125000 0.000000
vt 0.125000 0.250000
vt 0.625000 0.000000
vt 0.875000 0.000000
vt 0.875000 0.250000
vt 0.625000 0.250000
vt 0.125000 0.000000
vt 0.375000 0.000000
vt 0.375000 0.250000
vt 0.125000 0.250000
vt 0.375000 0.000000
vt 0.625000 0.000000
vt 0.625000 0.250000
vt 0.375000 0.250000
vt 0.625000 0.500000
vt 0.375000 0.500000
vt 0.625000 0.750000
vt 0.375000 0.750000
vt 0.625000 1.000000
vt 0.375000 1.000000
vt 0.875000 0.000000
vt 0.875000 0.250000
vt 0.125000 0.000000
vt 0.125000 0.250000
vt 0.375000 0.000000
vt 0.625000 0.000000
vt 0.625000 0.250000
vt 0.375000 0.250000
vt 0.625000 0.500000
vt 0.375000 0.500000
vt 0.625000 0.750000
vt 0.375000 0.750000
vt 0.625000 1.000000
vt 0.375000 1.000000
vt 0.625000 0.000000
vt 0.875000 0.000000
vt 0.875000 0.250000
vt 0.625000 0.250000
vt 0.125000 0.000000
vt 0.375000 0.000000
vt 0.375000 0.250000
vt 0.125000 0.250000
vt 0.875000 0.000000
vt 0.875000 0.250000
vt 0.125000 0.000000
vt 0.125000 0.250000
vn 0.000000 0.000000 1.000000
vn 0.000000 0.000000 1.000000
vn 0.000000 0.000000 1.000000
vn 0.000000 0.000000 1.000000
vn 0.000000 1.000000 0.000000
vn 0.000000 1.000000 0.000000
vn 0.000000 1.000000 0.000000
vn 0.000000 1.000000 0.000000
vn -0.025616 -0.016495 -0.999536
vn -0.025616 -0.016495 -0.999536
vn -0.025616 -0.016495 -0.999536
vn -0.025616 -0.016495 -0.999536
vn 0.000000 -1.000000 0.000000
vn 0.000000 -1.000000 0.000000
vn 0.000000 -1.000000 0.000000
vn 0.000000 -1.000000 0.000000
vn 1.000000 0.000000 0.000000
vn 1.000000 0.000000 0.000000
vn 1.000000 0.000000 0.000000
vn 1.000000 0.000000 0.000000
vn -1.000000 0.000791 0.000000
vn -1.000000 0.000791 0.000000
vn -1.000000 0.000791 0.000000
vn -1.000000 0.000791 0.000000
vn 0.041280 -0.999148 0.000000
vn 0.041280 -0.999148 0.000000
vn 0.041280 -0.999148 0.000000
vn 0.041280 -0.999148 0.000000
vn -0.705585 -0.000000 -0.708625
vn -0.705585 -0.000000 -0.708625
vn -0.705585 -0.000000 -0.708625
vn -0.705585 -0.000000 -0.708625
vn 0.890919 0.454162 0.000000
vn 0.890919 0.454162 0.000000
vn 0.890919 0.454162 0.000000
vn 0.890919 0.454162 0.000000
vn 0.895355 0.000000 0.445352
vn 0.895355 0.000000 0.445352
vn 0.895355 0.000000 0.445352
vn 0.895355 0.000000 0.445352
vn -0.066139 -0.997810 0.000000
vn -0.066139 -0.997810 0.000000
vn -0.066139 -0.997810 0.000000
vn -0.066139 -0.997810 0.000000
vn -0.900099 0.002183 0.435679
vn -0.900099 0.002183 0.435679
vn -0.900099 0.002183 0.435680
vn -0.900099 0.002183 0.435680
vn -0.909424 0.415870 0.000000
vn -0.909424 0.415870 0.000000
vn -0.909424 0.415870 0.000000
vn -0.909424 0.415870 0.000000
vn 0.736706 -0.017419 -0.675989
vn 0.736706 -0.017419 -0.675989
vn 0.736706 -0.017419 -0.675989
vn 0.736706 -0.017419 -0.675989
vn 0.000000 0.000000 1.000000
vn 0.000000 0.000000 1.000000
vn 0.000000 0.000000 1.000000
vn 0.000000 0.000000 1.000000
vn 0.000000 1.000000 0.000000
vn 0.000000 1.000000 0.000000
vn 0.000000 1.000000 0.000000
vn 0.000000 1.000000 0.000000
vn 0.000000 0.000000 -1.000000
vn 0.000000 0.000000 -1.000000
vn 0.000000 0.000000 -1.000000
vn 0.000000 0.000000 -1.000000
vn 0.000000 -1.000000 0.000000
vn 0.000000 -1.000000 0.000000
vn 0.000000 -1.000000 0.000000
vn 0.000000 -1.000000 0.000000
vn 1.000000 0.000000 0.000000
vn 1.000000 0.000000 0.000000
vn 1.000000 0.000000 0.000000
vn 1.000000 0.000000 0.000000
vn -1.000000 0.000000 0.000000
vn -1.000000 0.000000 0.000000
vn -1.000000 0.000000 0.000000
vn -1.000000 0.000000 0.000000
vn 0.000000 0.000000 1.000000
vn 0.000000 0.000000 1.000000
vn 0.000000 0.000000 1.000000
vn 0.000000 0.000000 1.000000
vn 0.000000 1.000000 0.000000
vn 0.000000 1.000000 0.000000
vn 0.000000 1.000000 0.000000
vn 0.000000 1.000000 0.000000
vn -0.025616 -0.016495 -0.999536
vn -0.025616 -0.016495 -0.999536
vn -0.025616 -0.016495 -0.999536
vn -0.025616 -0.016495 -0.999536
vn 0.000000 -1.000000 0.000000
vn 0.000000 -1.000000 0.000000
vn 0.000000 -1.000000 0.000000
vn 0.000000 -1.000000 0.000000
vn 1.000000 0.000000 0.000000
vn 1.000000 0.000000 0.000000
vn 1.000000 0.000000 0.000000
vn 1.000000 0.000000 0.000000
vn -1.000000 0.000791 0.000000
vn -1.000000 0.000791 0.000000
vn -1.000000 0.000791 0.000000
vn -1.000000 0.000791 0.000000
vn 0.041280 -0.999148 0.000000
vn 0.041280 -0.999148 0.000000
vn 0.041280 -0.999148 0.000000
vn 0.041280 -0.999148 0.000000
vn -0.705585 -0.000000 -0.708625
vn -0.705585 -0.000000 -0.708626
vn -0.705585 -0.000000 -0.708626
vn -0.705585 -0.000000 -0.708626
vn 0.890919 0.454162 0.000000
vn 0.890919 0.454162 0.000000
vn 0.890919 0.454162 0.000000
vn 0.890919 0.454162 0.000000
vn 0.895355 0.000000 0.445353
vn 0.895355 0.000000 0.445353
vn 0.895355 0.000000 0.445353
vn 0.895355 0.000000 0.445353
vn -0.066139 -0.997810 0.000000
vn -0.066139 -0.997810 0.000000
vn -0.066139 -0.997810 0.000000
vn -0.066139 -0.997810 0.000000
vn -0.900099 0.002183 0.435679
vn -0.900099 0.002183 0.435679
vn -0.900099 0.002183 0.435679
vn -0.900099 0.002183 0.435679
vn -0.909424 0.415870 0.000000
vn -0.909424 0.415870 0.000000
vn -0.909424 0.415870 0.000000
vn -0.909424 0.415870 0.000000
vn 0.736706 -0.017419 -0.675989
vn 0.736706 -0.017419 -0.675989
vn 0.736706 -0.017419 -0.675989
vn 0.736706 -0.017419 -0.675989
s off
g pCube5
f 1/1/1 2/2/2 4/4/3 3/3/4
f 3/3/5 4/4/6 6/6/7 5/5/8
f 5/5/9 6/6/10 8/8/11 7/7/12
f 7/7/13 8/8/14 2/10/15 1/9/16
f 10/15/17 9/16/18 11/17/19 12/18/20
f 13/19/21 14/20/22 15/21/23 16/22/24
f 2/2/25 8/11/26 9/16/27 10/15/28
f 8/11/29 6/12/30 11/17/31 9/16/32
f 6/12/33 4/4/34 12/18/35 11/17/36
f 4/4/37 2/2/38 10/15/39 12/18/40
f 7/13/41 1/1/42 14/20/43 13/19/44
f 1/1/45 3/3/46 15/21/47 14/20/48
f 3/3/49 5/14/50 16/22/51 15/21/52
f 5/14/53 7/13/54 13/19/55 16/22/56
f 17/23/57 18/24/58 20/25/59 19/26/60
f 19/26/61 20/25/62 22/27/63 21/28/64
f 21/28/65 22/27/66 24/29/67 23/30/68
f 23/30/69 24/29/70 18/31/71 17/32/72
f 18/24/73 24/33/74 22/34/75 20/25/76
f 23/35/77 17/23/78 19/26/79 21/36/80
f 25/37/81 26/38/82 28/39/83 27/40/84
f 27/40/85 28/39/86 30/41/87 29/42/88
f 29/42/89 30/41/90 32/43/91 31/44/92
f 31/44/93 32/43/94 26/45/95 25/46/96
f 34/47/97 33/48/98 35/49/99 36/50/100
f 37/51/101 38/52/102 39/53/103 40/54/104
f 26/38/105 32/55/106 33/48/107 34/47/108
f 32/55/109 30/56/110 35/49/111 33/48/112
f 30/56/113 28/39/114 36/50/115 35/49/116
f 28/39/117 26/38/118 34/47/119 36/50/120
f 31/57/121 25/37/122 38/52/123 37/51/124
f 25/37/125 27/40/126 39/53/127 38/52/128
f 27/40/129 29/58/130 40/54/131 39/53/132
f 29/58/133 31/57/134 37/51/135 40/54/136
