# Blender v2.77 (sub 0) OBJ File: 'untitled.blend'
# www.blender.org
mtllib bridgecol3.mtl
o Cube_Cube.001
v -1.158398 -1.800635 10.140600
v -1.158398 -0.008766 10.140600
v -1.158398 -2.000112 -10.419007
v -1.158398 -0.000112 -10.419007
v 0.841602 -1.800635 10.140600
v 0.841602 -0.008766 10.140600
v 0.841602 -2.000112 -10.419007
v 0.841602 -0.000112 -10.419007
vn -1.0000 0.0000 0.0000
vn 0.0000 0.0000 -1.0000
vn 1.0000 0.0000 0.0000
vn 0.0000 0.0000 1.0000
vn 0.0000 -1.0000 0.0097
vn 0.0000 1.0000 0.0004
usemtl None
s off
f 2//1 4//1 3//1 1//1
f 4//2 8//2 7//2 3//2
f 8//3 6//3 5//3 7//3
f 6//4 2//4 1//4 5//4
f 1//5 3//5 7//5 5//5
f 6//6 8//6 4//6 2//6