# Exported from Wings 3D 1.5.3
mtllib Hedge.mtl
o Cube1
#8 vertices, 6 faces
v -2.38800000 -1.00000000 -1.00000000
v -2.38800000 -1.00000000 1.00000000
v -2.38800000 1.00000000 -1.00000000
v -2.38800000 1.00000000 1.00000000
v 2.38800000 -1.00000000 -1.00000000
v 2.38800000 -1.00000000 1.00000000
v 2.38800000 1.00000000 -1.00000000
v 2.38800000 1.00000000 1.00000000
vt 0.0000000e+0 6.9388939e-17
vt 0.0000000e+0 0.25000000
vt 0.0000000e+0 0.25000000
vt 0.0000000e+0 0.50000000
vt 0.0000000e+0 0.75000000
vt 0.0000000e+0 1.00000000
vt 0.59700000 0.0000000e+0
vt 0.59700000 0.25000000
vt 0.59700000 0.25000000
vt 0.59700000 0.50000000
vt 0.59700000 0.50000000
vt 0.59700000 0.75000000
vt 0.59700000 1.00000000
vt 0.84700000 0.0000000e+0
vt 0.84700000 0.25000000
vt 0.84700000 0.50000000
vn -0.57735027 -0.57735027 -0.57735027
vn -0.57735027 -0.57735027 0.57735027
vn -0.57735027 0.57735027 -0.57735027
vn -0.57735027 0.57735027 0.57735027
vn 0.57735027 -0.57735027 -0.57735027
vn 0.57735027 -0.57735027 0.57735027
vn 0.57735027 0.57735027 -0.57735027
vn 0.57735027 0.57735027 0.57735027
g Cube1_Cube1_auv
usemtl Cube1_auv
s 1
f 1/8/1 5/2/5 6/1/6 2/7/2
f 2/15/2 4/16/4 3/10/3 1/8/1
f 2/5/2 6/12/6 8/13/8 4/6/4
f 3/11/3 7/4/7 5/3/5 1/9/1
f 4/4/4 8/11/8 7/12/7 3/5/3
f 5/14/5 7/15/7 8/8/8 6/7/6