# Blender v2.78 (sub 0) OBJ File: 'props.blend'
# www.blender.org
o Object88
v 0.250000 1.750000 0.433013
v 0.000000 1.750000 0.500000
v 0.000000 0.250000 0.500000
v 0.250000 0.250000 0.433013
v -0.250000 1.750000 0.433013
v -0.250000 0.250000 0.433013
vt 0.0661 0.7528
vt 0.0661 0.6280
vt 0.7089 0.6280
vt 0.7089 0.7528
vt 0.0661 0.5033
vt 0.7089 0.5033
vn 0.2588 0.0000 0.9659
vn -0.2588 0.0000 0.9659
s off
f 1/1/1 2/2/1 3/3/1
f 4/4/1 1/1/1 3/3/1
f 2/2/2 5/5/2 6/6/2
f 6/6/2 3/3/2 2/2/2
o Cylinder48
v 0.000000 1.968080 0.000000
v 0.411362 1.968080 -0.237500
v 0.475000 1.968080 0.000000
v 0.237500 1.968080 -0.411362
v 0.000000 1.968080 -0.475000
v -0.237500 1.968080 -0.411362
v -0.411362 1.968080 -0.237500
v -0.475000 1.968080 0.000000
v -0.411362 1.968080 0.237500
v -0.237500 1.968080 0.411362
v 0.000000 1.968080 0.475000
v 0.237500 1.968080 0.411362
v 0.411362 1.968080 0.237500
v 0.475000 0.000000 0.000000
v 0.433013 0.000000 -0.250000
v 0.500000 0.000000 0.000000
v 0.411362 0.000000 -0.237500
v 0.250000 0.000000 -0.433013
v 0.237500 0.000000 -0.411362
v 0.000000 0.000000 -0.500000
v 0.000000 0.000000 -0.475000
v -0.250000 0.000000 -0.433013
v -0.237500 0.000000 -0.411362
v -0.433013 0.000000 -0.250000
v -0.411362 0.000000 -0.237500
v -0.500000 0.000000 0.000000
v -0.475000 0.000000 0.000000
v -0.433013 0.000000 0.250000
v -0.411362 0.000000 0.237500
v -0.250000 0.000000 0.433013
v -0.237500 0.000000 0.411362
v 0.000000 0.000000 0.500000
v 0.000000 0.000000 0.475000
v 0.250000 0.000000 0.433013
v 0.237500 0.000000 0.411362
v 0.433013 0.000000 0.250000
v 0.411362 0.000000 0.237500
v 0.500000 0.000000 0.000000
v 0.433013 0.000000 -0.250000
v 0.500000 0.250000 0.000000
v 0.433013 0.250000 -0.250000
v 0.250000 0.000000 -0.433013
v 0.250000 0.250000 -0.433013
v 0.000000 0.000000 -0.500000
v 0.000000 0.250000 -0.500000
v 0.000000 0.000000 -0.500000
v -0.250000 0.000000 -0.433013
v 0.000000 0.250000 -0.500000
v -0.250000 0.250000 -0.433013
v -0.433013 0.000000 -0.250000
v -0.433013 0.250000 -0.250000
v -0.500000 0.000000 0.000000
v -0.500000 0.250000 0.000000
v -0.433013 0.000000 0.250000
v -0.433013 0.250000 0.250000
v -0.433013 0.000000 0.250000
v -0.250000 0.000000 0.433013
v -0.433013 0.250000 0.250000
v -0.250000 0.250000 0.433013
v 0.000000 0.000000 0.500000
v 0.000000 0.250000 0.500000
v 0.250000 0.000000 0.433013
v 0.250000 0.250000 0.433013
v 0.433013 0.000000 0.250000
v 0.433013 0.250000 0.250000
v 0.433013 0.000000 0.250000
v 0.433013 0.250000 0.250000
v 0.500000 2.000000 0.000000
v 0.411362 2.000000 -0.237500
v 0.475000 2.000000 0.000000
v 0.433013 2.000000 -0.250000
v 0.237500 2.000000 -0.411362
v 0.250000 2.000000 -0.433013
v 0.000000 2.000000 -0.475000
v 0.000000 2.000000 -0.500000
v -0.237500 2.000000 -0.411362
v -0.250000 2.000000 -0.433013
v -0.411362 2.000000 -0.237500
v -0.433013 2.000000 -0.250000
v -0.475000 2.000000 0.000000
v -0.500000 2.000000 0.000000
v -0.411362 2.000000 0.237500
v -0.433013 2.000000 0.250000
v -0.237500 2.000000 0.411362
v -0.250000 2.000000 0.433013
v 0.000000 2.000000 0.475000
v 0.000000 2.000000 0.500000
v 0.237500 2.000000 0.411362
v 0.250000 2.000000 0.433013
v 0.411362 2.000000 0.237500
v 0.433013 2.000000 0.250000
v 0.475000 2.000000 0.000000
v 0.411362 2.000000 -0.237500
v 0.276875 2.150000 -0.159855
v 0.319709 2.150000 0.000000
v 0.237500 2.000000 -0.411362
v 0.159854 2.150000 -0.276876
v 0.000000 2.000000 -0.475000
v 0.000000 2.150000 -0.319708
v -0.237500 2.000000 -0.411362
v -0.159854 2.150000 -0.276876
v -0.411362 2.000000 -0.237500
v -0.276875 2.150000 -0.159855
v -0.475000 2.000000 0.000000
v -0.319709 2.150000 0.000000
v -0.411362 2.000000 0.237500
v -0.276875 2.150000 0.159855
v -0.237500 2.000000 0.411362
v -0.159854 2.073300 0.276876
v -0.276875 2.073300 0.159855
v 0.000000 2.000000 0.475000
v 0.000000 2.073300 0.319708
v 0.237500 2.000000 0.411362
v 0.159854 2.073300 0.276876
v 0.411362 2.000000 0.237500
v 0.276875 2.073300 0.159855
v 0.276875 2.150000 0.159855
v 0.411362 0.000000 -0.237500
v 0.475000 0.000000 0.000000
v 0.411362 0.250000 -0.237500
v 0.475000 0.250000 0.000000
v 0.237500 0.000000 -0.411362
v 0.237500 0.250000 -0.411362
v 0.000000 0.000000 -0.475000
v 0.000000 0.250000 -0.475000
v -0.237500 0.000000 -0.411362
v 0.000000 0.000000 -0.475000
v -0.237500 0.250000 -0.411362
v 0.000000 0.250000 -0.475000
v -0.411362 0.000000 -0.237500
v -0.411362 0.250000 -0.237500
v -0.475000 0.000000 0.000000
v -0.475000 0.250000 0.000000
v -0.411362 0.000000 0.237500
v -0.411362 0.250000 0.237500
v -0.237500 0.000000 0.411362
v -0.237500 0.250000 0.411362
v 0.000000 0.000000 0.475000
v 0.000000 0.250000 0.475000
v 0.237500 0.000000 0.411362
v 0.237500 0.250000 0.411362
v 0.411362 0.000000 0.237500
v 0.411362 0.250000 0.237500
v 0.433013 1.750000 -0.250000
v 0.433013 2.000000 -0.250000
v 0.500000 1.750000 0.000000
v 0.500000 2.000000 0.000000
v 0.250000 1.750000 -0.433013
v 0.250000 2.000000 -0.433013
v 0.000000 1.750000 -0.500000
v 0.000000 2.000000 -0.500000
v -0.250000 1.750000 -0.433013
v -0.250000 2.000000 -0.433013
v 0.000000 1.750000 -0.500000
v 0.000000 2.000000 -0.500000
v -0.433013 1.750000 -0.250000
v -0.433013 2.000000 -0.250000
v -0.500000 1.750000 0.000000
v -0.500000 2.000000 0.000000
v -0.433013 1.750000 0.250000
v -0.433013 2.000000 0.250000
v -0.250000 1.750000 0.433013
v -0.250000 2.000000 0.433013
v -0.433013 1.750000 0.250000
v -0.433013 2.000000 0.250000
v 0.000000 1.750000 0.500000
v 0.000000 2.000000 0.500000
v 0.250000 1.750000 0.433013
v 0.250000 2.000000 0.433013
v 0.433013 1.750000 0.250000
v 0.433013 2.000000 0.250000
v 0.433013 1.750000 0.250000
v 0.433013 2.000000 0.250000
v 0.475000 1.750000 0.000000
v 0.475000 1.968080 0.000000
v 0.411362 1.750000 -0.237500
v 0.411362 1.968080 -0.237500
v 0.237500 1.750000 -0.411362
v 0.237500 1.968080 -0.411362
v 0.000000 1.750000 -0.475000
v 0.000000 1.968080 -0.475000
v 0.000000 1.750000 -0.475000
v 0.000000 1.968080 -0.475000
v -0.237500 1.750000 -0.411362
v -0.237500 1.968080 -0.411362
v -0.411362 1.750000 -0.237500
v -0.411362 1.968080 -0.237500
v -0.475000 1.750000 0.000000
v -0.475000 1.968080 0.000000
v -0.411362 1.750000 0.237500
v -0.411362 1.968080 0.237500
v -0.237500 1.750000 0.411362
v -0.237500 1.968080 0.411362
v 0.000000 1.750000 0.475000
v 0.000000 1.968080 0.475000
v 0.237500 1.750000 0.411362
v 0.237500 1.968080 0.411362
v 0.411362 1.750000 0.237500
v 0.411362 1.968080 0.237500
v 0.473013 0.250000 -0.250000
v 0.473013 1.750000 -0.250000
v 0.540000 0.250000 0.000000
v 0.540000 1.750000 0.000000
v -0.540000 0.250000 0.000000
v -0.540000 1.750000 0.000000
v -0.473013 0.250000 -0.250000
v -0.473013 1.750000 -0.250000
v -0.473013 0.250000 0.250000
v -0.473013 1.750000 0.250000
v 0.473013 0.250000 0.250000
v 0.473013 1.750000 0.250000
v 0.250000 0.250000 0.433013
v 0.237500 0.250000 0.411362
v 0.000000 0.250000 0.475000
v 0.000000 0.250000 0.500000
v -0.237500 0.250000 0.411362
v -0.250000 0.250000 0.433013
v -0.250000 0.250000 0.433013
v -0.237500 0.250000 0.411362
v -0.237500 1.750000 0.411362
v -0.250000 1.750000 0.433013
v 0.237500 0.250000 0.411362
v 0.250000 0.250000 0.433013
v 0.250000 1.750000 0.433013
v 0.237500 1.750000 0.411362
v 0.237500 1.750000 0.411362
v 0.250000 1.750000 0.433013
v 0.000000 1.750000 0.500000
v 0.000000 1.750000 0.475000
v -0.237500 1.750000 0.411362
v -0.250000 1.750000 0.433013
v 0.500000 0.250000 0.000000
v 0.433013 0.250000 -0.250000
v 0.473013 0.250000 -0.250000
v 0.540000 0.250000 0.000000
v -0.433013 0.250000 -0.250000
v -0.500000 0.250000 0.000000
v -0.540000 0.250000 0.000000
v -0.473013 0.250000 -0.250000
v -0.433013 0.250000 0.250000
v -0.473013 0.250000 0.250000
v 0.433013 0.250000 0.250000
v 0.473013 0.250000 0.250000
v 0.433013 1.750000 -0.250000
v 0.500000 1.750000 0.000000
v 0.540000 1.750000 0.000000
v 0.473013 1.750000 -0.250000
v -0.500000 1.750000 0.000000
v -0.433013 1.750000 -0.250000
v -0.473013 1.750000 -0.250000
v -0.540000 1.750000 0.000000
v -0.433013 1.750000 0.250000
v -0.473013 1.750000 0.250000
v 0.433013 1.750000 0.250000
v 0.473013 1.750000 0.250000
v 0.433013 0.250000 -0.250000
v 0.433013 1.750000 -0.250000
v 0.473013 1.750000 -0.250000
v 0.473013 0.250000 -0.250000
v -0.433013 1.750000 -0.250000
v -0.433013 0.250000 -0.250000
v -0.473013 0.250000 -0.250000
v -0.473013 1.750000 -0.250000
v -0.433013 0.250000 0.250000
v -0.433013 1.750000 0.250000
v -0.473013 1.750000 0.250000
v -0.473013 0.250000 0.250000
v 0.433013 1.750000 0.250000
v 0.433013 0.250000 0.250000
v 0.473013 0.250000 0.250000
v 0.473013 1.750000 0.250000
v -0.159854 2.150000 0.276876
v -0.276875 2.150000 0.159855
v -0.276875 2.073300 0.159855
v -0.159854 2.073300 0.276876
v 0.000000 2.150000 0.319708
v 0.000000 2.073300 0.319708
v 0.159854 2.150000 0.276876
v 0.159854 2.073300 0.276876
v 0.276875 2.150000 0.159855
v 0.276875 2.073300 0.159855
v -0.411362 2.000000 0.237500
v -0.276875 2.073300 0.159855
v -0.276875 2.150000 0.159855
v 0.411362 2.000000 0.237500
v 0.276875 2.150000 0.159855
v 0.276875 2.073300 0.159855
v 0.319709 2.150000 0.000000
v 0.276875 2.150000 -0.159855
v 0.232046 2.150000 -0.133972
v 0.267944 2.150000 0.000000
v 0.159854 2.150000 -0.276876
v 0.133972 2.150000 -0.232047
v 0.000000 2.150000 -0.319708
v 0.000000 2.150000 -0.267944
v -0.159854 2.150000 -0.276876
v -0.133972 2.150000 -0.232047
v -0.276875 2.150000 -0.159855
v -0.232046 2.150000 -0.133972
v -0.319709 2.150000 0.000000
v -0.267944 2.150000 0.000000
v -0.276875 2.150000 0.159855
v -0.232046 2.150000 0.133972
v -0.159854 2.150000 0.276876
v -0.133972 2.150000 0.232047
v 0.000000 2.150000 0.319708
v 0.000000 2.150000 0.267944
v 0.159854 2.150000 0.276876
v 0.133972 2.150000 0.232047
v 0.276875 2.150000 0.159855
v 0.232046 2.150000 0.133972
v 0.267944 2.150000 0.000000
v 0.232046 2.150000 -0.133972
v 0.232046 2.170000 -0.133972
v 0.267944 2.170000 0.000000
v 0.133972 2.150000 -0.232047
v 0.133972 2.170000 -0.232047
v 0.000000 2.150000 -0.267944
v 0.000000 2.170000 -0.267944
v 0.000000 2.150000 -0.267944
v -0.133972 2.150000 -0.232047
v -0.133972 2.170000 -0.232047
v 0.000000 2.170000 -0.267944
v -0.232046 2.150000 -0.133972
v -0.232046 2.170000 -0.133972
v -0.267944 2.150000 0.000000
v -0.267944 2.170000 0.000000
v -0.232046 2.150000 0.133972
v -0.232046 2.170000 0.133972
v -0.133972 2.150000 0.232047
v -0.133972 2.170000 0.232047
v 0.000000 2.150000 0.267944
v 0.000000 2.170000 0.267944
v 0.133972 2.150000 0.232047
v 0.133972 2.170000 0.232047
v 0.232046 2.150000 0.133972
v 0.232046 2.170000 0.133972
v 0.475000 0.000000 0.000000
v 0.411362 0.000000 -0.237500
v 0.276875 0.150000 -0.159855
v 0.319709 0.150000 0.000000
v 0.237500 0.000000 -0.411362
v 0.159854 0.150000 -0.276876
v 0.000000 0.000000 -0.475000
v 0.000000 0.150000 -0.319708
v -0.237500 0.000000 -0.411362
v -0.159854 0.150000 -0.276876
v -0.411362 0.000000 -0.237500
v -0.276875 0.150000 -0.159855
v -0.475000 0.000000 0.000000
v -0.319709 0.150000 0.000000
v -0.411362 0.000000 0.237500
v -0.276875 0.150000 0.159855
v -0.237500 0.000000 0.411362
v -0.159854 0.073298 0.276876
v -0.276875 0.073298 0.159855
v 0.000000 0.000000 0.475000
v 0.000000 0.073298 0.319708
v 0.237500 0.000000 0.411362
v 0.159854 0.073298 0.276876
v 0.411362 0.000000 0.237500
v 0.276875 0.073298 0.159855
v 0.276875 0.150000 0.159855
v -0.159854 0.150000 0.276876
v -0.276875 0.150000 0.159855
v -0.276875 0.073298 0.159855
v -0.159854 0.073298 0.276876
v 0.000000 0.150000 0.319708
v 0.000000 0.073298 0.319708
v 0.159854 0.150000 0.276876
v 0.159854 0.073298 0.276876
v 0.276875 0.150000 0.159855
v 0.276875 0.073298 0.159855
v -0.411362 0.000000 0.237500
v -0.276875 0.073298 0.159855
v -0.276875 0.150000 0.159855
v 0.411362 0.000000 0.237500
v 0.276875 0.150000 0.159855
v 0.276875 0.073298 0.159855
v 0.319709 0.150000 0.000000
v 0.276875 0.150000 -0.159855
v 0.232046 0.150000 -0.133972
v 0.267944 0.150000 0.000000
v 0.159854 0.150000 -0.276876
v 0.133972 0.150000 -0.232047
v 0.000000 0.150000 -0.319708
v 0.000000 0.150000 -0.267944
v -0.159854 0.150000 -0.276876
v -0.133972 0.150000 -0.232047
v -0.276875 0.150000 -0.159855
v -0.232046 0.150000 -0.133972
v -0.319709 0.150000 0.000000
v -0.267944 0.150000 0.000000
v -0.276875 0.150000 0.159855
v -0.232046 0.150000 0.133972
v -0.159854 0.150000 0.276876
v -0.133972 0.150000 0.232047
v 0.000000 0.150000 0.319708
v 0.000000 0.150000 0.267944
v 0.159854 0.150000 0.276876
v 0.133972 0.150000 0.232047
v 0.276875 0.150000 0.159855
v 0.232046 0.150000 0.133972
v 0.267944 0.150000 0.000000
v 0.232046 0.150000 -0.133972
v 0.232046 0.170000 -0.133972
v 0.267944 0.170000 0.000000
v 0.133972 0.150000 -0.232047
v 0.133972 0.170000 -0.232047
v 0.000000 0.150000 -0.267944
v 0.000000 0.170000 -0.267944
v 0.000000 0.150000 -0.267944
v -0.133972 0.150000 -0.232047
v -0.133972 0.170000 -0.232047
v 0.000000 0.170000 -0.267944
v -0.232046 0.150000 -0.133972
v -0.232046 0.170000 -0.133972
v -0.267944 0.150000 0.000000
v -0.267944 0.170000 0.000000
v -0.232046 0.150000 0.133972
v -0.232046 0.170000 0.133972
v -0.133972 0.150000 0.232047
v -0.133972 0.170000 0.232047
v 0.000000 0.150000 0.267944
v 0.000000 0.170000 0.267944
v 0.133972 0.150000 0.232047
v 0.133972 0.170000 0.232047
v 0.232046 0.150000 0.133972
v 0.232046 0.170000 0.133972
vt 0.0000 0.0000
vt 0.0000 0.0000
vt 0.0000 0.0000
vt 0.0000 0.0000
vt 0.0000 0.0000
vt 0.0000 0.0000
vt 0.0000 0.0000
vt 0.0000 0.0000
vt 0.0000 0.0000
vt 0.0000 0.0000
vt 0.0000 0.0000
vt 0.0000 0.0000
vt 0.0000 0.0000
vt 0.0000 0.0000
vt 0.0000 0.0000
vt 0.0000 0.0000
vt 0.0000 0.0000
vt 0.0000 0.0000
vt 0.0000 0.0000
vt 0.0000 0.0000
vt 0.0000 0.0000
vt 0.0000 0.0000
vt 0.0000 0.0000
vt 0.0000 0.0000
vt 0.0000 0.0000
vt 0.0000 0.0000
vt 0.0000 0.0000
vt 0.0000 0.0000
vt 0.0000 0.0000
vt 0.0000 0.0000
vt 0.0000 0.0000
vt 0.0000 0.0000
vt 0.0000 0.0000
vt 0.0000 0.0000
vt 0.0000 0.0000
vt 0.0000 0.0000
vt 0.0000 0.0000
vt 0.0006 0.3580
vt 0.0006 0.2742
vt 0.1706 0.3580
vt 0.1706 0.2742
vt 0.0006 0.1775
vt 0.1706 0.1775
vt 0.0006 0.0690
vt 0.1706 0.0690
vt 0.0006 0.0689
vt 0.0006 0.1774
vt 0.1706 0.0689
vt 0.1706 0.1774
vt 0.0006 0.2742
vt 0.1706 0.2742
vt 0.0006 0.3579
vt 0.1706 0.3579
vt 0.0006 0.4325
vt 0.1706 0.4325
vt 0.0005 0.4944
vt 0.0005 0.3845
vt 0.1755 0.4944
vt 0.1755 0.3845
vt 0.0005 0.2488
vt 0.1755 0.2488
vt 0.0005 0.1130
vt 0.1755 0.1130
vt 0.0005 0.0032
vt 0.1755 0.0032
vt 0.0006 0.4326
vt 0.1706 0.4326
vt 0.6641 0.2480
vt 0.6343 0.3279
vt 0.6557 0.2480
vt 0.6416 0.3321
vt 0.5759 0.3863
vt 0.5801 0.3936
vt 0.4961 0.4077
vt 0.4961 0.4161
vt 0.4162 0.3863
vt 0.4120 0.3936
vt 0.3578 0.3279
vt 0.3505 0.3321
vt 0.3364 0.2480
vt 0.3280 0.2480
vt 0.3578 0.1682
vt 0.3505 0.1640
vt 0.4162 0.1098
vt 0.4120 0.1025
vt 0.4961 0.0884
vt 0.4961 0.0800
vt 0.5759 0.1098
vt 0.5801 0.1025
vt 0.6343 0.1682
vt 0.6416 0.1640
vt 0.6557 0.2480
vt 0.6343 0.3279
vt 0.5891 0.3018
vt 0.6035 0.2480
vt 0.5759 0.3863
vt 0.5498 0.3411
vt 0.4961 0.4077
vt 0.4961 0.3555
vt 0.4162 0.3863
vt 0.4423 0.3411
vt 0.3578 0.3279
vt 0.4030 0.3018
vt 0.3364 0.2480
vt 0.3886 0.2480
vt 0.3578 0.1682
vt 0.4030 0.1943
vt 0.4162 0.1098
vt 0.4423 0.1550
vt 0.4030 0.1943
vt 0.4961 0.0884
vt 0.4961 0.1406
vt 0.5759 0.1098
vt 0.5498 0.1550
vt 0.6343 0.1682
vt 0.5891 0.1943
vt 0.5891 0.1943
vt 0.0058 0.0861
vt 0.0058 0.1271
vt 0.1310 0.0861
vt 0.1310 0.1271
vt 0.0058 0.0451
vt 0.1310 0.0451
vt 0.0058 0.0041
vt 0.1310 0.0041
vt 0.0058 0.4551
vt 0.0058 0.4961
vt 0.1310 0.4551
vt 0.1310 0.4961
vt 0.0058 0.4141
vt 0.1310 0.4141
vt 0.0058 0.3731
vt 0.1310 0.3731
vt 0.0058 0.3321
vt 0.1310 0.3321
vt 0.0058 0.2911
vt 0.1310 0.2911
vt 0.0058 0.2501
vt 0.1310 0.2501
vt 0.0058 0.2091
vt 0.1310 0.2091
vt 0.0058 0.1681
vt 0.1310 0.1681
vt 0.8259 0.2742
vt 0.9996 0.2742
vt 0.8259 0.3580
vt 0.9996 0.3580
vt 0.8259 0.1775
vt 0.9996 0.1775
vt 0.8259 0.0690
vt 0.9996 0.0690
vt 0.8259 0.1774
vt 0.9996 0.1774
vt 0.8259 0.0689
vt 0.9996 0.0689
vt 0.8259 0.2742
vt 0.9996 0.2742
vt 0.8259 0.3579
vt 0.9996 0.3579
vt 0.8259 0.4325
vt 0.9996 0.4325
vt 0.8245 0.3845
vt 0.9995 0.3845
vt 0.8245 0.4944
vt 0.9995 0.4944
vt 0.8245 0.2488
vt 0.9995 0.2488
vt 0.8245 0.1130
vt 0.9995 0.1130
vt 0.8245 0.0032
vt 0.9995 0.0032
vt 0.8259 0.4326
vt 0.9996 0.4326
vt 0.8825 0.1271
vt 0.9918 0.1271
vt 0.8825 0.0861
vt 0.9918 0.0861
vt 0.8825 0.0451
vt 0.9918 0.0451
vt 0.8825 0.0041
vt 0.9918 0.0041
vt 0.8825 0.4961
vt 0.9918 0.4961
vt 0.8825 0.4551
vt 0.9918 0.4551
vt 0.8825 0.4141
vt 0.9918 0.4141
vt 0.8825 0.3731
vt 0.9918 0.3731
vt 0.8825 0.3321
vt 0.9918 0.3321
vt 0.8825 0.2911
vt 0.9918 0.2911
vt 0.8825 0.2501
vt 0.9918 0.2501
vt 0.8825 0.2091
vt 0.9918 0.2091
vt 0.8825 0.1681
vt 0.9918 0.1681
vt 0.9906 0.5029
vt 0.9906 0.9995
vt 0.8521 0.5029
vt 0.8521 0.9995
vt 0.8544 0.5029
vt 0.8544 0.9995
vt 0.9929 0.5029
vt 0.9929 0.9995
vt 0.7159 0.5029
vt 0.7159 0.9995
vt 0.7136 0.5029
vt 0.7136 0.9995
vt 0.6184 0.3159
vt 0.6124 0.3738
vt 0.5000 0.2038
vt 0.5000 0.1370
vt 0.3876 0.3738
vt 0.3816 0.3159
vt 0.6255 0.1330
vt 0.3745 0.1330
vt 0.3745 0.3840
vt 0.6255 0.3840
vt 0.3745 0.1330
vt 0.6255 0.1330
vt 0.6255 0.3840
vt 0.3745 0.3840
vt 0.6124 0.3738
vt 0.6184 0.3159
vt 0.5000 0.1370
vt 0.5000 0.2038
vt 0.3876 0.3738
vt 0.3816 0.3159
vt 0.0000 0.0000
vt 0.0000 0.0000
vt 0.0000 0.0000
vt 0.0000 0.0000
vt 0.0000 0.0000
vt 0.0000 0.0000
vt 0.0000 0.0000
vt 0.0000 0.0000
vt 0.0000 0.0000
vt 0.0000 0.0000
vt 0.0000 0.0000
vt 0.0000 0.0000
vt 0.0000 0.0000
vt 0.0000 0.0000
vt 0.0000 0.0000
vt 0.0000 0.0000
vt 0.0000 0.0000
vt 0.0000 0.0000
vt 0.0000 0.0000
vt 0.0000 0.0000
vt 0.0000 0.0000
vt 0.0000 0.0000
vt 0.0000 0.0000
vt 0.0000 0.0000
vt 0.0100 0.0005
vt 0.0100 0.4500
vt 0.0000 0.4500
vt 0.0000 0.0005
vt 0.0000 0.4500
vt 0.0000 0.0005
vt 0.0100 0.0005
vt 0.0100 0.4500
vt 0.0100 0.0005
vt 0.0100 0.4500
vt 0.0000 0.4500
vt 0.0000 0.0005
vt 0.0000 0.4500
vt 0.0000 0.0005
vt 0.0100 0.0005
vt 0.0100 0.4500
vt 0.4733 0.9995
vt 0.5841 0.9995
vt 0.5841 0.8797
vt 0.4733 0.8797
vt 0.3362 0.9995
vt 0.3362 0.8797
vt 0.4741 0.9995
vt 0.4741 0.8797
vt 0.5849 0.9995
vt 0.5849 0.8797
vt 0.5992 0.0752
vt 0.2717 0.2353
vt 0.2717 0.4028
vt 0.5992 0.0752
vt 0.2717 0.4028
vt 0.2717 0.2353
vt 0.9575 0.3958
vt 0.9583 0.2601
vt 0.9288 0.2597
vt 0.9287 0.3962
vt 0.9571 0.3956
vt 0.9280 0.3962
vt 0.9584 0.2598
vt 0.9287 0.2600
vt 0.9571 0.3956
vt 0.9280 0.3962
vt 0.9583 0.2601
vt 0.9288 0.2597
vt 0.9575 0.3958
vt 0.9287 0.3962
vt 0.9583 0.2600
vt 0.9288 0.2597
vt 0.9571 0.3954
vt 0.9280 0.3960
vt 0.9584 0.2598
vt 0.9287 0.2600
vt 0.9571 0.3954
vt 0.9280 0.3960
vt 0.9583 0.2600
vt 0.9288 0.2597
vt 0.0321 0.1256
vt 0.0321 0.0841
vt 0.0620 0.0841
vt 0.0620 0.1256
vt 0.0321 0.0426
vt 0.0620 0.0426
vt 0.0321 0.0011
vt 0.0620 0.0011
vt 0.0321 0.4990
vt 0.0321 0.4575
vt 0.0620 0.4575
vt 0.0620 0.4990
vt 0.0321 0.4160
vt 0.0620 0.4160
vt 0.0321 0.3745
vt 0.0620 0.3745
vt 0.0321 0.3330
vt 0.0620 0.3330
vt 0.0321 0.2915
vt 0.0620 0.2915
vt 0.0321 0.2501
vt 0.0620 0.2501
vt 0.0321 0.2086
vt 0.0620 0.2086
vt 0.0321 0.1671
vt 0.0620 0.1671
vt 0.6557 0.2480
vt 0.6343 0.3279
vt 0.5891 0.3018
vt 0.6035 0.2480
vt 0.5759 0.3863
vt 0.5498 0.3411
vt 0.4961 0.4077
vt 0.4961 0.3555
vt 0.4162 0.3863
vt 0.4423 0.3411
vt 0.3578 0.3279
vt 0.4030 0.3018
vt 0.3364 0.2480
vt 0.3886 0.2480
vt 0.3578 0.1682
vt 0.4030 0.1943
vt 0.4162 0.1098
vt 0.4423 0.1550
vt 0.4030 0.1943
vt 0.4961 0.0884
vt 0.4961 0.1406
vt 0.5759 0.1098
vt 0.5498 0.1550
vt 0.6343 0.1682
vt 0.5891 0.1943
vt 0.5891 0.1943
vt 0.4733 0.9995
vt 0.5841 0.9995
vt 0.5841 0.8797
vt 0.4733 0.8797
vt 0.3362 0.9995
vt 0.3362 0.8797
vt 0.4741 0.9995
vt 0.4741 0.8797
vt 0.5849 0.9995
vt 0.5849 0.8797
vt 0.5992 0.0752
vt 0.2717 0.2353
vt 0.2717 0.4028
vt 0.5992 0.0752
vt 0.2717 0.4028
vt 0.2717 0.2353
vt 0.9575 0.3958
vt 0.9583 0.2601
vt 0.9288 0.2597
vt 0.9287 0.3962
vt 0.9571 0.3956
vt 0.9280 0.3962
vt 0.9584 0.2598
vt 0.9287 0.2600
vt 0.9571 0.3956
vt 0.9280 0.3962
vt 0.9583 0.2601
vt 0.9288 0.2597
vt 0.9575 0.3958
vt 0.9287 0.3962
vt 0.9583 0.2600
vt 0.9288 0.2597
vt 0.9571 0.3954
vt 0.9280 0.3960
vt 0.9584 0.2598
vt 0.9287 0.2600
vt 0.9571 0.3954
vt 0.9280 0.3960
vt 0.9583 0.2600
vt 0.9288 0.2597
vt 0.0321 0.1256
vt 0.0321 0.0841
vt 0.0620 0.0841
vt 0.0620 0.1256
vt 0.0321 0.0426
vt 0.0620 0.0426
vt 0.0321 0.0011
vt 0.0620 0.0011
vt 0.0321 0.4990
vt 0.0321 0.4575
vt 0.0620 0.4575
vt 0.0620 0.4990
vt 0.0321 0.4160
vt 0.0620 0.4160
vt 0.0321 0.3745
vt 0.0620 0.3745
vt 0.0321 0.3330
vt 0.0620 0.3330
vt 0.0321 0.2915
vt 0.0620 0.2915
vt 0.0321 0.2501
vt 0.0620 0.2501
vt 0.0321 0.2086
vt 0.0620 0.2086
vt 0.0321 0.1671
vt 0.0620 0.1671
vn 0.0000 -1.0000 0.0000
vn 0.9659 0.0000 -0.2588
vn 0.7071 0.0000 -0.7071
vn 0.2588 0.0000 -0.9659
vn -0.2588 0.0000 -0.9659
vn -0.7071 0.0000 -0.7071
vn -0.9659 0.0000 -0.2588
vn -0.9659 0.0000 0.2588
vn -0.7071 0.0000 0.7071
vn -0.2588 0.0000 0.9659
vn 0.2588 0.0000 0.9659
vn 0.7071 0.0000 0.7071
vn 0.9659 0.0000 0.2588
vn 0.0000 1.0000 0.0000
vn 0.6830 0.7071 -0.1830
vn 0.5000 0.7071 -0.5000
vn 0.1830 0.7071 -0.6830
vn -0.1830 0.7071 -0.6830
vn -0.5000 0.7071 -0.5000
vn -0.6830 0.7071 -0.1830
vn -0.6830 0.7071 0.1830
vn -0.3105 0.8985 0.3105
vn -0.1136 0.8985 0.4241
vn 0.1136 0.8985 0.4241
vn 0.3105 0.8985 0.3105
vn 0.6830 0.7071 0.1830
vn 0.8660 0.0000 0.5000
vn -0.8660 0.0000 0.5000
vn 0.0000 0.0000 -1.0000
vn 0.0000 0.0000 1.0000
vn 0.5000 0.0000 0.8660
vn -0.5000 0.0000 0.8660
vn -0.3104 0.8985 0.3104
vn 0.3104 0.8985 0.3104
s off
f 7/7/3 8/8/3 9/9/3
f 7/7/3 10/10/3 8/8/3
f 7/7/3 11/11/3 10/10/3
f 7/7/3 12/12/3 11/11/3
f 7/7/3 13/13/3 12/12/3
f 7/7/3 14/14/3 13/13/3
f 7/7/3 15/15/3 14/14/3
f 7/7/3 16/16/3 15/15/3
f 7/7/3 17/17/3 16/16/3
f 7/7/3 18/18/3 17/17/3
f 7/7/3 19/19/3 18/18/3
f 7/7/3 9/9/3 19/19/3
f 20/20/3 21/21/3 22/22/3
f 20/20/3 23/23/3 21/21/3
f 23/23/3 24/24/3 21/21/3
f 23/23/3 25/25/3 24/24/3
f 25/25/3 26/26/3 24/24/3
f 25/25/3 27/27/3 26/26/3
f 27/27/3 28/28/3 26/26/3
f 27/27/3 29/29/3 28/28/3
f 29/29/3 30/30/3 28/28/3
f 29/29/3 31/31/3 30/30/3
f 31/31/3 32/32/3 30/30/3
f 31/31/3 33/33/3 32/32/3
f 33/33/3 34/34/3 32/32/3
f 33/33/3 35/35/3 34/34/3
f 35/35/3 36/36/3 34/34/3
f 35/35/3 37/37/3 36/36/3
f 37/37/3 38/38/3 36/36/3
f 37/37/3 39/39/3 38/38/3
f 39/39/3 40/40/3 38/38/3
f 39/39/3 41/41/3 40/40/3
f 41/41/3 42/42/3 40/40/3
f 41/41/3 43/43/3 42/42/3
f 43/43/3 22/22/3 42/42/3
f 43/43/3 20/20/3 22/22/3
f 44/44/4 45/45/4 46/46/4
f 47/47/4 46/46/4 45/45/4
f 45/45/5 48/48/5 47/47/5
f 49/49/5 47/47/5 48/48/5
f 48/48/6 50/50/6 49/49/6
f 51/51/6 49/49/6 50/50/6
f 52/52/7 53/53/7 54/54/7
f 55/55/7 54/54/7 53/53/7
f 53/53/8 56/56/8 55/55/8
f 57/57/8 55/55/8 56/56/8
f 56/56/9 58/58/9 57/57/9
f 59/59/9 57/57/9 58/58/9
f 58/58/10 60/60/10 59/59/10
f 61/61/10 59/59/10 60/60/10
f 62/62/11 63/63/11 64/64/11
f 65/65/11 64/64/11 63/63/11
f 63/63/12 66/66/12 65/65/12
f 67/67/12 65/65/12 66/66/12
f 66/66/13 68/68/13 67/67/13
f 69/69/13 67/67/13 68/68/13
f 68/68/14 70/70/14 69/69/14
f 71/71/14 69/69/14 70/70/14
f 72/72/15 44/44/15 73/73/15
f 46/46/15 73/73/15 44/44/15
f 74/74/16 75/75/16 76/76/16
f 74/74/16 77/77/16 75/75/16
f 77/77/16 78/78/16 75/75/16
f 77/77/16 79/79/16 78/78/16
f 79/79/16 80/80/16 78/78/16
f 79/79/16 81/81/16 80/80/16
f 81/81/16 82/82/16 80/80/16
f 81/81/16 83/83/16 82/82/16
f 83/83/16 84/84/16 82/82/16
f 83/83/16 85/85/16 84/84/16
f 85/85/16 86/86/16 84/84/16
f 85/85/16 87/87/16 86/86/16
f 87/87/16 88/88/16 86/86/16
f 87/87/16 89/89/16 88/88/16
f 89/89/16 90/90/16 88/88/16
f 89/89/16 91/91/16 90/90/16
f 91/91/16 92/92/16 90/90/16
f 91/91/16 93/93/16 92/92/16
f 93/93/16 94/94/16 92/92/16
f 93/93/16 95/95/16 94/94/16
f 95/95/16 96/96/16 94/94/16
f 95/95/16 97/97/16 96/96/16
f 97/97/16 76/76/16 96/96/16
f 97/97/16 74/74/16 76/76/16
f 98/98/17 99/99/17 100/100/17
f 100/100/17 101/101/17 98/98/17
f 99/99/18 102/102/18 103/103/18
f 103/103/18 100/100/18 99/99/18
f 102/102/19 104/104/19 105/105/19
f 105/105/19 103/103/19 102/102/19
f 104/104/20 106/106/20 107/107/20
f 107/107/20 105/105/20 104/104/20
f 106/106/21 108/108/21 109/109/21
f 109/109/21 107/107/21 106/106/21
f 108/108/22 110/110/22 111/111/22
f 111/111/22 109/109/22 108/108/22
f 110/110/23 112/112/23 113/113/23
f 113/113/23 111/111/23 110/110/23
f 112/112/24 114/114/24 115/115/24
f 115/115/24 116/116/24 112/112/24
f 114/114/25 117/117/25 118/118/25
f 118/118/25 115/115/25 114/114/25
f 117/117/26 119/119/26 120/120/26
f 120/120/26 118/118/26 117/117/26
f 119/119/27 121/121/27 122/122/27
f 122/122/27 120/120/27 119/119/27
f 121/121/28 98/98/28 101/101/28
f 101/101/28 123/123/28 121/121/28
f 124/124/10 125/125/10 126/126/10
f 127/127/10 126/126/10 125/125/10
f 128/128/11 124/124/11 129/129/11
f 126/126/11 129/129/11 124/124/11
f 130/130/12 128/128/12 131/131/12
f 129/129/12 131/131/12 128/128/12
f 132/132/13 133/133/13 134/134/13
f 135/135/13 134/134/13 133/133/13
f 136/136/14 132/132/14 137/137/14
f 134/134/14 137/137/14 132/132/14
f 138/138/15 136/136/15 139/139/15
f 137/137/15 139/139/15 136/136/15
f 140/140/4 138/138/4 141/141/4
f 139/139/4 141/141/4 138/138/4
f 142/142/5 140/140/5 143/143/5
f 141/141/5 143/143/5 140/140/5
f 144/144/6 142/142/6 145/145/6
f 143/143/6 145/145/6 142/142/6
f 146/146/7 144/144/7 147/147/7
f 145/145/7 147/147/7 144/144/7
f 148/148/8 146/146/8 149/149/8
f 147/147/8 149/149/8 146/146/8
f 125/125/9 148/148/9 127/127/9
f 149/149/9 127/127/9 148/148/9
f 150/150/4 151/151/4 152/152/4
f 153/153/4 152/152/4 151/151/4
f 154/154/5 155/155/5 150/150/5
f 151/151/5 150/150/5 155/155/5
f 156/156/6 157/157/6 154/154/6
f 155/155/6 154/154/6 157/157/6
f 158/158/7 159/159/7 160/160/7
f 161/161/7 160/160/7 159/159/7
f 162/162/8 163/163/8 158/158/8
f 159/159/8 158/158/8 163/163/8
f 164/164/9 165/165/9 162/162/9
f 163/163/9 162/162/9 165/165/9
f 166/166/10 167/167/10 164/164/10
f 165/165/10 164/164/10 167/167/10
f 168/168/11 169/169/11 170/170/11
f 171/171/11 170/170/11 169/169/11
f 172/172/12 173/173/12 168/168/12
f 169/169/12 168/168/12 173/173/12
f 174/174/13 175/175/13 172/172/13
f 173/173/13 172/172/13 175/175/13
f 176/176/14 177/177/14 174/174/14
f 175/175/14 174/174/14 177/177/14
f 152/152/15 153/153/15 178/178/15
f 179/179/15 178/178/15 153/153/15
f 180/180/10 181/181/10 182/182/10
f 183/183/10 182/182/10 181/181/10
f 182/182/11 183/183/11 184/184/11
f 185/185/11 184/184/11 183/183/11
f 184/184/12 185/185/12 186/186/12
f 187/187/12 186/186/12 185/185/12
f 188/188/13 189/189/13 190/190/13
f 191/191/13 190/190/13 189/189/13
f 190/190/14 191/191/14 192/192/14
f 193/193/14 192/192/14 191/191/14
f 192/192/15 193/193/15 194/194/15
f 195/195/15 194/194/15 193/193/15
f 194/194/4 195/195/4 196/196/4
f 197/197/4 196/196/4 195/195/4
f 196/196/5 197/197/5 198/198/5
f 199/199/5 198/198/5 197/197/5
f 198/198/6 199/199/6 200/200/6
f 201/201/6 200/200/6 199/199/6
f 200/200/7 201/201/7 202/202/7
f 203/203/7 202/202/7 201/201/7
f 202/202/8 203/203/8 204/204/8
f 205/205/8 204/204/8 203/203/8
f 204/204/9 205/205/9 180/180/9
f 181/181/9 180/180/9 205/205/9
f 206/206/4 207/207/4 208/208/4
f 209/209/4 208/208/4 207/207/4
f 49/49/5 154/154/5 47/47/5
f 150/150/5 47/47/5 154/154/5
f 51/51/6 156/156/6 49/49/6
f 154/154/6 49/49/6 156/156/6
f 55/55/7 158/158/7 54/54/7
f 160/160/7 54/54/7 158/158/7
f 57/57/8 162/162/8 55/55/8
f 158/158/8 55/55/8 162/162/8
f 210/210/9 211/211/9 212/212/9
f 213/213/9 212/212/9 211/211/9
f 214/214/10 215/215/10 210/210/10
f 211/211/10 210/210/10 215/215/10
f 65/65/11 168/168/11 64/64/11
f 170/170/11 64/64/11 168/168/11
f 71/71/14 176/176/14 69/69/14
f 174/174/14 69/69/14 176/176/14
f 208/208/15 209/209/15 216/216/15
f 217/217/15 216/216/15 209/209/15
f 127/127/10 180/180/10 126/126/10
f 182/182/10 126/126/10 180/180/10
f 126/126/11 182/182/11 129/129/11
f 184/184/11 129/129/11 182/182/11
f 129/129/12 184/184/12 131/131/12
f 186/186/12 131/131/12 184/184/12
f 135/135/13 188/188/13 134/134/13
f 190/190/13 134/134/13 188/188/13
f 134/134/14 190/190/14 137/137/14
f 192/192/14 137/137/14 190/190/14
f 137/137/15 192/192/15 139/139/15
f 194/194/15 139/139/15 192/192/15
f 139/139/4 194/194/4 141/141/4
f 196/196/4 141/141/4 194/194/4
f 141/141/5 196/196/5 143/143/5
f 198/198/5 143/143/5 196/196/5
f 147/147/8 202/202/8 149/149/8
f 204/204/8 149/149/8 202/202/8
f 149/149/9 204/204/9 127/127/9
f 180/180/9 127/127/9 204/204/9
f 218/218/16 219/219/16 220/220/16
f 218/218/16 220/220/16 221/221/16
f 221/221/16 220/220/16 222/222/16
f 221/221/16 222/222/16 223/223/16
f 224/224/29 225/225/29 226/226/29
f 224/224/29 226/226/29 227/227/29
f 228/228/30 229/229/30 230/230/30
f 228/228/30 230/230/30 231/231/30
f 232/232/3 233/233/3 234/234/3
f 232/232/3 234/234/3 235/235/3
f 236/236/3 235/235/3 234/234/3
f 236/236/3 234/234/3 237/237/3
f 238/238/3 239/239/3 240/240/3
f 240/240/3 241/241/3 238/238/3
f 242/242/3 243/243/3 244/244/3
f 244/244/3 245/245/3 242/242/3
f 243/243/3 246/246/3 247/247/3
f 247/247/3 244/244/3 243/243/3
f 248/248/3 238/238/3 241/241/3
f 241/241/3 249/249/3 248/248/3
f 250/250/16 251/251/16 252/252/16
f 252/252/16 253/253/16 250/250/16
f 254/254/16 255/255/16 256/256/16
f 256/256/16 257/257/16 254/254/16
f 258/258/16 254/254/16 257/257/16
f 257/257/16 259/259/16 258/258/16
f 251/251/16 260/260/16 261/261/16
f 261/261/16 252/252/16 251/251/16
f 262/262/31 263/263/31 264/264/31
f 264/264/31 265/265/31 262/262/31
f 266/266/31 267/267/31 268/268/31
f 268/268/31 269/269/31 266/266/31
f 270/270/32 271/271/32 272/272/32
f 272/272/32 273/273/32 270/270/32
f 274/274/32 275/275/32 276/276/32
f 276/276/32 277/277/32 274/274/32
f 278/278/11 279/279/11 280/280/11
f 280/280/11 281/281/11 278/278/11
f 282/282/12 278/278/12 281/281/12
f 281/281/12 283/283/12 282/282/12
f 284/284/13 282/282/13 283/283/13
f 283/283/13 285/285/13 284/284/13
f 286/286/14 284/284/14 285/285/14
f 285/285/14 287/287/14 286/286/14
f 288/288/33 289/289/33 290/290/33
f 291/291/34 292/292/34 293/293/34
f 294/294/16 295/295/16 296/296/16
f 296/296/16 297/297/16 294/294/16
f 295/295/16 298/298/16 299/299/16
f 299/299/16 296/296/16 295/295/16
f 298/298/16 300/300/16 301/301/16
f 301/301/16 299/299/16 298/298/16
f 300/300/16 302/302/16 303/303/16
f 303/303/16 301/301/16 300/300/16
f 302/302/16 304/304/16 305/305/16
f 305/305/16 303/303/16 302/302/16
f 304/304/16 306/306/16 307/307/16
f 307/307/16 305/305/16 304/304/16
f 306/306/16 308/308/16 309/309/16
f 309/309/16 307/307/16 306/306/16
f 308/308/16 310/310/16 311/311/16
f 311/311/16 309/309/16 308/308/16
f 310/310/16 312/312/16 313/313/16
f 313/313/16 311/311/16 310/310/16
f 312/312/16 314/314/16 315/315/16
f 315/315/16 313/313/16 312/312/16
f 314/314/16 316/316/16 317/317/16
f 317/317/16 315/315/16 314/314/16
f 316/316/16 294/294/16 297/297/16
f 297/297/16 317/317/16 316/316/16
f 318/318/4 319/319/4 320/320/4
f 320/320/4 321/321/4 318/318/4
f 319/319/5 322/322/5 323/323/5
f 323/323/5 320/320/5 319/319/5
f 322/322/6 324/324/6 325/325/6
f 325/325/6 323/323/6 322/322/6
f 326/326/7 327/327/7 328/328/7
f 328/328/7 329/329/7 326/326/7
f 327/327/8 330/330/8 331/331/8
f 331/331/8 328/328/8 327/327/8
f 330/330/9 332/332/9 333/333/9
f 333/333/9 331/331/9 330/330/9
f 332/332/10 334/334/10 335/335/10
f 335/335/10 333/333/10 332/332/10
f 334/334/11 336/336/11 337/337/11
f 337/337/11 335/335/11 334/334/11
f 336/336/12 338/338/12 339/339/12
f 339/339/12 337/337/12 336/336/12
f 338/338/13 340/340/13 341/341/13
f 341/341/13 339/339/13 338/338/13
f 340/340/14 342/342/14 343/343/14
f 343/343/14 341/341/14 340/340/14
f 342/342/15 318/318/15 321/321/15
f 321/321/15 343/343/15 342/342/15
f 344/344/17 345/345/17 346/346/17
f 346/346/17 347/347/17 344/344/17
f 345/345/18 348/348/18 349/349/18
f 349/349/18 346/346/18 345/345/18
f 348/348/19 350/350/19 351/351/19
f 351/351/19 349/349/19 348/348/19
f 350/350/20 352/352/20 353/353/20
f 353/353/20 351/351/20 350/350/20
f 352/352/21 354/354/21 355/355/21
f 355/355/21 353/353/21 352/352/21
f 354/354/22 356/356/22 357/357/22
f 357/357/22 355/355/22 354/354/22
f 356/356/23 358/358/23 359/359/23
f 359/359/23 357/357/23 356/356/23
f 358/358/35 360/360/35 361/361/35
f 361/361/35 362/362/35 358/358/35
f 360/360/25 363/363/25 364/364/25
f 364/364/25 361/361/25 360/360/25
f 363/363/26 365/365/26 366/366/26
f 366/366/26 364/364/26 363/363/26
f 365/365/36 367/367/36 368/368/36
f 368/368/36 366/366/36 365/365/36
f 367/367/28 344/344/28 347/347/28
f 347/347/28 369/369/28 367/367/28
f 370/370/11 371/371/11 372/372/11
f 372/372/11 373/373/11 370/370/11
f 374/374/12 370/370/12 373/373/12
f 373/373/12 375/375/12 374/374/12
f 376/376/13 374/374/13 375/375/13
f 375/375/13 377/377/13 376/376/13
f 378/378/14 376/376/14 377/377/14
f 377/377/14 379/379/14 378/378/14
f 380/380/33 381/381/33 382/382/33
f 383/383/34 384/384/34 385/385/34
f 386/386/16 387/387/16 388/388/16
f 388/388/16 389/389/16 386/386/16
f 387/387/16 390/390/16 391/391/16
f 391/391/16 388/388/16 387/387/16
f 390/390/16 392/392/16 393/393/16
f 393/393/16 391/391/16 390/390/16
f 392/392/16 394/394/16 395/395/16
f 395/395/16 393/393/16 392/392/16
f 394/394/16 396/396/16 397/397/16
f 397/397/16 395/395/16 394/394/16
f 396/396/16 398/398/16 399/399/16
f 399/399/16 397/397/16 396/396/16
f 398/398/16 400/400/16 401/401/16
f 401/401/16 399/399/16 398/398/16
f 400/400/16 402/402/16 403/403/16
f 403/403/16 401/401/16 400/400/16
f 402/402/16 404/404/16 405/405/16
f 405/405/16 403/403/16 402/402/16
f 404/404/16 406/406/16 407/407/16
f 407/407/16 405/405/16 404/404/16
f 406/406/16 408/408/16 409/409/16
f 409/409/16 407/407/16 406/406/16
f 408/408/16 386/386/16 389/389/16
f 389/389/16 409/409/16 408/408/16
f 410/410/4 411/411/4 412/412/4
f 412/412/4 413/413/4 410/410/4
f 411/411/5 414/414/5 415/415/5
f 415/415/5 412/412/5 411/411/5
f 414/414/6 416/416/6 417/417/6
f 417/417/6 415/415/6 414/414/6
f 418/418/7 419/419/7 420/420/7
f 420/420/7 421/421/7 418/418/7
f 419/419/8 422/422/8 423/423/8
f 423/423/8 420/420/8 419/419/8
f 422/422/9 424/424/9 425/425/9
f 425/425/9 423/423/9 422/422/9
f 424/424/10 426/426/10 427/427/10
f 427/427/10 425/425/10 424/424/10
f 426/426/11 428/428/11 429/429/11
f 429/429/11 427/427/11 426/426/11
f 428/428/12 430/430/12 431/431/12
f 431/431/12 429/429/12 428/428/12
f 430/430/13 432/432/13 433/433/13
f 433/433/13 431/431/13 430/430/13
f 432/432/14 434/434/14 435/435/14
f 435/435/14 433/433/14 432/432/14
f 434/434/15 410/410/15 413/413/15
f 413/413/15 435/435/15 434/434/15
o Object87
v 0.000000 2.220000 0.000000
v 0.216182 2.220000 0.000000
v 0.187219 2.220000 -0.108091
v 0.108091 2.220000 -0.187218
v 0.000000 2.220000 -0.216180
v -0.108091 2.220000 -0.187218
v -0.187219 2.220000 -0.108091
v -0.216182 2.220000 0.000000
v -0.187219 2.220000 0.108091
v -0.108091 2.220000 0.187218
v 0.000000 2.220000 0.216180
v 0.108091 2.220000 0.187218
v 0.187219 2.220000 0.108091
v 0.267944 2.170000 0.000000
v 0.232046 2.170000 -0.133972
v 0.133972 2.170000 -0.232047
v 0.000000 2.170000 -0.267944
v -0.133972 2.170000 -0.232047
v -0.232046 2.170000 -0.133972
v -0.267944 2.170000 0.000000
v -0.232046 2.170000 0.133972
v -0.133972 2.170000 0.232047
v 0.000000 2.170000 0.267944
v 0.133972 2.170000 0.232047
v 0.232046 2.170000 0.133972
v 0.000000 0.220000 0.000000
v 0.216182 0.220000 0.000000
v 0.187219 0.220000 -0.108091
v 0.108091 0.220000 -0.187218
v 0.000000 0.220000 -0.216180
v -0.108091 0.220000 -0.187218
v -0.187219 0.220000 -0.108091
v -0.216182 0.220000 0.000000
v -0.187219 0.220000 0.108091
v -0.108091 0.220000 0.187218
v 0.000000 0.220000 0.216180
v 0.108091 0.220000 0.187218
v 0.187219 0.220000 0.108091
v 0.267944 0.170000 0.000000
v 0.232046 0.170000 -0.133972
v 0.133972 0.170000 -0.232047
v 0.000000 0.170000 -0.267944
v -0.133972 0.170000 -0.232047
v -0.232046 0.170000 -0.133972
v -0.267944 0.170000 0.000000
v -0.232046 0.170000 0.133972
v -0.133972 0.170000 0.232047
v 0.000000 0.170000 0.267944
v 0.133972 0.170000 0.232047
v 0.232046 0.170000 0.133972
vt 0.1257 0.8760
vt 0.2018 0.8760
vt 0.1916 0.9141
vt 0.1638 0.9420
vt 0.1257 0.9522
vt 0.0876 0.9420
vt 0.0597 0.9141
vt 0.0495 0.8760
vt 0.0597 0.8379
vt 0.0876 0.8101
vt 0.1257 0.7998
vt 0.1638 0.8101
vt 0.1916 0.8379
vt 0.2201 0.8760
vt 0.2074 0.9232
vt 0.1729 0.9578
vt 0.1257 0.9704
vt 0.0785 0.9578
vt 0.0439 0.9232
vt 0.0313 0.8760
vt 0.0439 0.8288
vt 0.0785 0.7943
vt 0.1257 0.7816
vt 0.1729 0.7943
vt 0.2074 0.8288
vt 0.1257 0.8760
vt 0.2018 0.8760
vt 0.1916 0.9141
vt 0.1638 0.9420
vt 0.1257 0.9522
vt 0.0876 0.9420
vt 0.0597 0.9141
vt 0.0495 0.8760
vt 0.0597 0.8379
vt 0.0876 0.8101
vt 0.1257 0.7998
vt 0.1638 0.8101
vt 0.1916 0.8379
vt 0.2201 0.8760
vt 0.2074 0.9232
vt 0.1729 0.9578
vt 0.1257 0.9704
vt 0.0785 0.9578
vt 0.0439 0.9232
vt 0.0313 0.8760
vt 0.0439 0.8288
vt 0.0785 0.7943
vt 0.1257 0.7816
vt 0.1729 0.7943
vt 0.2074 0.8288
vn 0.0000 1.0000 0.0000
vn 0.6830 0.7071 -0.1830
vn 0.5000 0.7071 -0.5000
vn 0.1830 0.7071 -0.6830
vn -0.1830 0.7071 -0.6830
vn -0.5000 0.7071 -0.5000
vn -0.6830 0.7071 -0.1830
vn -0.6830 0.7071 0.1830
vn -0.5000 0.7071 0.5000
vn -0.1830 0.7071 0.6830
vn 0.1830 0.7071 0.6830
vn 0.5000 0.7071 0.5000
vn 0.6830 0.7071 0.1830
s off
f 436/436/37 437/437/37 438/438/37
f 436/436/37 438/438/37 439/439/37
f 436/436/37 439/439/37 440/440/37
f 436/436/37 440/440/37 441/441/37
f 436/436/37 441/441/37 442/442/37
f 436/436/37 442/442/37 443/443/37
f 436/436/37 443/443/37 444/444/37
f 436/436/37 444/444/37 445/445/37
f 436/436/37 445/445/37 446/446/37
f 436/436/37 446/446/37 447/447/37
f 436/436/37 447/447/37 448/448/37
f 436/436/37 448/448/37 437/437/37
f 449/449/38 450/450/38 438/438/38
f 438/438/38 437/437/38 449/449/38
f 450/450/39 451/451/39 439/439/39
f 439/439/39 438/438/39 450/450/39
f 451/451/40 452/452/40 440/440/40
f 440/440/40 439/439/40 451/451/40
f 452/452/41 453/453/41 441/441/41
f 441/441/41 440/440/41 452/452/41
f 453/453/42 454/454/42 442/442/42
f 442/442/42 441/441/42 453/453/42
f 454/454/43 455/455/43 443/443/43
f 443/443/43 442/442/43 454/454/43
f 455/455/44 456/456/44 444/444/44
f 444/444/44 443/443/44 455/455/44
f 456/456/45 457/457/45 445/445/45
f 445/445/45 444/444/45 456/456/45
f 457/457/46 458/458/46 446/446/46
f 446/446/46 445/445/46 457/457/46
f 458/458/47 459/459/47 447/447/47
f 447/447/47 446/446/47 458/458/47
f 459/459/48 460/460/48 448/448/48
f 448/448/48 447/447/48 459/459/48
f 460/460/49 449/449/49 437/437/49
f 437/437/49 448/448/49 460/460/49
f 461/461/37 462/462/37 463/463/37
f 461/461/37 463/463/37 464/464/37
f 461/461/37 464/464/37 465/465/37
f 461/461/37 465/465/37 466/466/37
f 461/461/37 466/466/37 467/467/37
f 461/461/37 467/467/37 468/468/37
f 461/461/37 468/468/37 469/469/37
f 461/461/37 469/469/37 470/470/37
f 461/461/37 470/470/37 471/471/37
f 461/461/37 471/471/37 472/472/37
f 461/461/37 472/472/37 473/473/37
f 461/461/37 473/473/37 462/462/37
f 474/474/38 475/475/38 463/463/38
f 463/463/38 462/462/38 474/474/38
f 475/475/39 476/476/39 464/464/39
f 464/464/39 463/463/39 475/475/39
f 476/476/40 477/477/40 465/465/40
f 465/465/40 464/464/40 476/476/40
f 477/477/41 478/478/41 466/466/41
f 466/466/41 465/465/41 477/477/41
f 478/478/42 479/479/42 467/467/42
f 467/467/42 466/466/42 478/478/42
f 479/479/43 480/480/43 468/468/43
f 468/468/43 467/467/43 479/479/43
f 480/480/44 481/481/44 469/469/44
f 469/469/44 468/468/44 480/480/44
f 481/481/45 482/482/45 470/470/45
f 470/470/45 469/469/45 481/481/45
f 482/482/46 483/483/46 471/471/46
f 471/471/46 470/470/46 482/482/46
f 483/483/47 484/484/47 472/472/47
f 472/472/47 471/471/47 483/483/47
f 484/484/48 485/485/48 473/473/48
f 473/473/48 472/472/48 484/484/48
f 485/485/49 474/474/49 462/462/49
f 462/462/49 473/473/49 485/485/49
o Cylinder50
v 0.235001 0.000000 0.407032
v 0.407032 1.750000 0.235000
v 0.235001 1.750000 0.407032
v 0.407032 0.000000 0.235000
v 0.470001 1.750000 -0.000000
v 0.470001 0.000000 -0.000000
v 0.407032 1.750000 -0.235000
v 0.407032 0.000000 -0.235000
v 0.407032 0.000000 -0.235000
v 0.235001 1.750000 -0.407033
v 0.407032 1.750000 -0.235000
v 0.235001 0.000000 -0.407033
v 0.000001 1.750000 -0.470000
v 0.000001 0.000000 -0.470000
v -0.234999 1.750000 -0.407033
v -0.234999 0.000000 -0.407033
v -0.407030 1.750000 -0.235000
v -0.407030 0.000000 -0.235000
v -0.469999 1.750000 -0.000000
v -0.469999 0.000000 -0.000000
v -0.407030 1.750000 0.235000
v -0.407030 0.000000 0.235000
v -0.234999 1.750000 0.407032
v -0.234999 0.000000 0.407032
v 0.000001 1.750000 0.470000
v 0.000001 0.000000 0.470000
v 0.000001 1.750000 -0.000000
v 0.235001 1.750000 0.407032
v 0.407032 1.750000 0.235000
v 0.470001 1.750000 -0.000000
v 0.407032 1.750000 -0.235000
v 0.235001 1.750000 -0.407033
v 0.000001 1.750000 -0.470000
v -0.234999 1.750000 -0.407033
v -0.407030 1.750000 -0.235000
v -0.469999 1.750000 -0.000000
v -0.407030 1.750000 0.235000
v -0.234999 1.750000 0.407032
v 0.000001 1.750000 0.470000
vt 0.2511 0.7669
vt 0.7054 0.8014
vt 0.7054 0.7669
vt 0.2511 0.8014
vt 0.7054 0.8359
vt 0.2511 0.8359
vt 0.7054 0.8703
vt 0.2511 0.8703
vt 0.2511 0.8708
vt 0.7054 0.8364
vt 0.7054 0.8708
vt 0.2511 0.8364
vt 0.7054 0.8019
vt 0.2511 0.8019
vt 0.7054 0.7674
vt 0.2511 0.7674
vt 0.7054 0.8013
vt 0.2511 0.8013
vt 0.7054 0.8358
vt 0.2511 0.8358
vt 0.7054 0.8702
vt 0.2511 0.8702
vt 0.7054 0.8363
vt 0.2511 0.8363
vt 0.7054 0.8018
vt 0.2511 0.8018
vt 0.4743 0.8164
vt 0.5183 0.8164
vt 0.5124 0.8384
vt 0.4963 0.8545
vt 0.4743 0.8604
vt 0.4524 0.8545
vt 0.4363 0.8384
vt 0.4304 0.8164
vt 0.4363 0.7945
vt 0.4524 0.7784
vt 0.4743 0.7725
vt 0.4963 0.7784
vt 0.5124 0.7945
vn 0.7071 0.0000 0.7071
vn 0.9659 0.0000 0.2588
vn 0.9659 0.0000 -0.2588
vn 0.7071 0.0000 -0.7071
vn 0.2588 0.0000 -0.9659
vn -0.2588 0.0000 -0.9659
vn -0.7071 0.0000 -0.7071
vn -0.9659 0.0000 -0.2588
vn -0.9659 0.0000 0.2588
vn -0.7071 0.0000 0.7071
vn -0.2588 0.0000 0.9659
vn 0.2588 0.0000 0.9659
vn 0.0000 1.0000 -0.0000
s off
f 486/486/50 487/487/50 488/488/50
f 486/486/50 489/489/50 487/487/50
f 489/489/51 490/490/51 487/487/51
f 489/489/51 491/491/51 490/490/51
f 491/491/52 492/492/52 490/490/52
f 491/491/52 493/493/52 492/492/52
f 494/494/53 495/495/53 496/496/53
f 494/494/53 497/497/53 495/495/53
f 497/497/54 498/498/54 495/495/54
f 497/497/54 499/499/54 498/498/54
f 499/499/55 500/500/55 498/498/55
f 499/499/55 501/501/55 500/500/55
f 501/501/56 502/502/56 500/500/56
f 501/501/56 503/503/56 502/502/56
f 503/503/57 504/504/57 502/502/57
f 503/503/57 505/505/57 504/504/57
f 505/505/58 506/506/58 504/504/58
f 505/505/58 507/507/58 506/506/58
f 507/507/59 508/508/59 506/506/59
f 507/507/59 509/509/59 508/508/59
f 509/509/60 510/510/60 508/508/60
f 509/509/60 511/511/60 510/510/60
f 511/511/61 488/488/61 510/510/61
f 511/511/61 486/486/61 488/488/61
f 512/512/62 513/513/62 514/514/62
f 512/512/62 514/514/62 515/515/62
f 512/512/62 515/515/62 516/516/62
f 512/512/62 516/516/62 517/517/62
f 512/512/62 517/517/62 518/518/62
f 512/512/62 518/518/62 519/519/62
f 512/512/62 519/519/62 520/520/62
f 512/512/62 520/520/62 521/521/62
f 512/512/62 521/521/62 522/522/62
f 512/512/62 522/522/62 523/523/62
f 512/512/62 523/523/62 524/524/62
f 512/512/62 524/524/62 513/513/62
