# Blender v2.79 (sub 0) OBJ File: ''
# www.blender.org
mtllib untitled.mtl
o console_2_pConsole_2_ref
v 0.628693 3.119597 -0.597947
v 0.653653 2.626191 -0.573348
v 0.628693 2.626191 -0.597947
v 0.653653 3.128277 -0.573348
v 0.653653 2.626191 0.573349
v 0.653653 3.623128 0.573349
v 0.653653 2.601593 -0.573348
v 0.628693 0.024756 -0.597947
v 0.628693 2.601593 -0.597947
v 0.653653 2.601593 0.573349
v 0.653653 0.024756 0.573349
v 0.653653 0.024756 -0.573349
v -0.653653 3.623128 0.573349
v -0.628693 2.626191 0.597948
v -0.628693 3.634706 0.597948
v -0.653653 2.626191 0.573349
v -0.653653 3.128277 -0.573348
v -0.653653 2.626191 -0.573348
v -0.628693 3.119597 -0.597947
v -0.628693 2.626191 -0.597947
v -0.628693 0.024756 -0.597947
v -0.653653 2.601593 -0.573348
v -0.628693 2.601593 -0.597947
v -0.653653 2.601593 0.573349
v -0.653653 0.024756 -0.573349
v -0.653653 0.024756 0.573349
v 0.052723 3.495800 0.231331
v 0.052723 3.547889 0.353595
v 0.052723 3.527632 0.217403
v 0.052723 3.579721 0.339670
v 0.081346 3.516057 0.191178
v 0.226445 3.516057 0.191178
v 0.081346 3.484223 0.205106
v 0.226445 3.484223 0.205106
v 0.081346 3.559464 0.379823
v 0.226445 3.559464 0.379823
v 0.081346 3.591296 0.365896
v 0.226445 3.591296 0.365896
v -0.468807 3.348211 -0.104903
v -0.468807 3.432133 0.085598
v -0.468807 3.380044 -0.118738
v -0.468807 3.463965 0.071715
v -0.440229 3.368469 -0.144964
v 0.340030 3.368469 -0.144964
v -0.440229 3.336637 -0.131036
v 0.340030 3.336637 -0.131036
v -0.440229 3.443711 0.111776
v 0.340030 3.443711 0.111776
v -0.440229 3.475543 0.097940
v 0.340030 3.475543 0.097940
v 0.293366 3.495800 0.231331
v 0.293366 3.547889 0.353595
v 0.293366 3.527632 0.217403
v 0.293366 3.579721 0.339670
v 0.321945 3.516057 0.191178
v 0.466999 3.516057 0.191178
v 0.321945 3.484223 0.205106
v 0.466999 3.484223 0.205106
v 0.321945 3.559464 0.379823
v 0.466999 3.559464 0.379823
v 0.321945 3.591296 0.365896
v 0.466999 3.591296 0.365896
v -0.628693 3.154321 -0.575156
v 0.628693 3.154321 -0.575156
v 0.628693 3.652068 0.575157
v 0.628693 3.634706 0.597948
v -0.628693 3.652068 0.575157
v -0.612416 2.614614 -0.560325
v 0.612416 2.614614 -0.560325
v 0.612416 2.614614 0.560329
v 0.628693 2.626191 0.597948
v -0.612416 2.614614 0.560329
v -0.628693 2.601593 0.597948
v -0.628693 0.024756 0.597948
v 0.628693 2.601593 0.597948
v 0.628693 0.024756 0.597948
v 0.255024 3.495800 0.231331
v 0.255024 3.527632 0.217403
v 0.255024 3.547889 0.353595
v 0.255024 3.579721 0.339670
v -0.628693 0.000000 -0.573349
v 0.628693 0.000000 -0.573349
v 0.628693 0.000000 0.573349
v -0.628693 0.000000 0.573349
v -0.043339 3.501587 0.241821
v -0.100110 3.501587 0.241821
v -0.043339 3.533419 0.251769
v -0.032149 3.510267 0.262802
v -0.043339 3.576827 0.349980
v -0.032149 3.553677 0.361012
v -0.043339 3.565251 0.381992
v -0.100110 3.565251 0.381992
v -0.100110 3.576827 0.349980
v -0.111323 3.553677 0.361012
v -0.111323 3.510267 0.262802
v -0.100110 3.533419 0.251769
v 0.368789 3.348211 -0.104903
v 0.368789 3.380044 -0.118738
v 0.368789 3.432133 0.085598
v 0.368789 3.463965 0.071715
v -0.145416 3.501587 0.241821
v -0.202209 3.501587 0.241821
v -0.145416 3.533419 0.251769
v -0.134203 3.510267 0.262802
v -0.145416 3.576827 0.349980
v -0.134203 3.553677 0.361012
v -0.145416 3.565251 0.381992
v -0.202209 3.565251 0.381992
v -0.202209 3.576827 0.349980
v -0.213422 3.553677 0.361012
v -0.213422 3.510267 0.262802
v -0.202209 3.533419 0.251769
v 0.495575 3.495800 0.231331
v 0.495575 3.527632 0.217403
v 0.495575 3.547889 0.353595
v 0.495575 3.579721 0.339670
v -0.248511 3.501587 0.241821
v -0.305303 3.501587 0.241821
v -0.248511 3.533419 0.251769
v -0.237297 3.510267 0.262802
v -0.248511 3.576827 0.349980
v -0.237297 3.553677 0.361012
v -0.248511 3.565251 0.381992
v -0.305303 3.565251 0.381992
v -0.305303 3.576827 0.349980
v -0.316516 3.553677 0.361012
v -0.316516 3.510267 0.262802
v -0.305303 3.533419 0.251769
v 0.536812 3.351106 -0.112859
v 0.466276 3.351106 -0.112859
v 0.536812 3.380044 -0.094501
v 0.550921 3.359787 -0.086634
v 0.536812 3.432133 0.027766
v 0.550921 3.414771 0.035633
v 0.536812 3.426346 0.061811
v 0.466276 3.426346 0.061811
v 0.466276 3.432133 0.027766
v 0.452168 3.414771 0.035633
v 0.452168 3.359787 -0.086634
v 0.466276 3.380044 -0.094501
v -0.350520 3.501587 0.241821
v -0.407312 3.501587 0.241821
v -0.350520 3.533419 0.251769
v -0.339307 3.510267 0.262802
v -0.350520 3.576827 0.349980
v -0.339307 3.553677 0.361012
v -0.350520 3.565251 0.381992
v -0.407312 3.565251 0.381992
v -0.407312 3.576827 0.349980
v -0.418526 3.553677 0.361012
v -0.418526 3.510267 0.262802
v -0.407312 3.533419 0.251769
vt 0.592800 0.696300
vt 0.506800 0.700400
vt 0.506800 0.696300
vt 0.594200 0.700400
vt 0.506800 0.900600
vt 0.680700 0.900600
vt 0.883300 0.457000
vt 0.887700 0.007300
vt 0.887700 0.457000
vt 0.683100 0.457000
vt 0.683100 0.007300
vt 0.883300 0.007300
vt 0.495100 0.700400
vt 0.321000 0.696300
vt 0.497300 0.696300
vt 0.321000 0.700400
vt 0.408400 0.900600
vt 0.321000 0.900600
vt 0.407000 0.905000
vt 0.321000 0.905000
vt 0.472400 0.007300
vt 0.476600 0.457000
vt 0.472400 0.457000
vt 0.676800 0.457000
vt 0.476600 0.007300
vt 0.676800 0.007300
vt 0.010400 0.457000
vt 0.010400 0.007300
vt 0.230000 0.457000
vt 0.230000 0.007300
vt 0.792500 0.562300
vt 0.816400 0.562300
vt 0.792000 0.583000
vt 0.816400 0.583000
vt 0.915500 0.583000
vt 0.888700 0.583000
vt 0.915500 0.562300
vt 0.888700 0.562300
vt 0.823200 0.562300
vt 0.850600 0.562300
vt 0.823200 0.583000
vt 0.850600 0.583000
vt 0.899900 0.446800
vt 0.899900 0.417000
vt 0.910200 0.446800
vt 0.910200 0.417000
vt 0.910200 0.010700
vt 0.910200 0.200700
vt 0.899900 0.010300
vt 0.899900 0.200700
vt 0.899900 0.408700
vt 0.899900 0.247100
vt 0.910200 0.408700
vt 0.910200 0.247100
vt 0.368200 0.557600
vt 0.394500 0.557600
vt 0.367900 0.580100
vt 0.394300 0.580100
vt 0.502000 0.580100
vt 0.472900 0.580100
vt 0.502000 0.557600
vt 0.472700 0.557600
vt 0.402100 0.557600
vt 0.431200 0.557600
vt 0.401900 0.580100
vt 0.431400 0.580100
vt 0.979500 0.698000
vt 0.701700 0.703600
vt 0.700200 0.698000
vt 0.694300 0.703600
vt 0.701700 0.983700
vt 0.694300 0.983700
vt 0.700200 0.989200
vt 0.979500 0.989200
vt 0.981400 0.983700
vt 0.985400 0.983700
vt 0.981400 0.703600
vt 0.985400 0.703600
vt 0.778300 0.688000
vt 0.778300 0.468300
vt 0.783200 0.687000
vt 0.783200 0.469200
vt 0.782700 0.463900
vt 0.982400 0.469200
vt 0.982900 0.463900
vt 0.987300 0.468300
vt 0.987300 0.688000
vt 0.982400 0.687000
vt 0.982900 0.692400
vt 0.782700 0.692400
vt 0.236700 0.007300
vt 0.241000 0.457000
vt 0.236700 0.457000
vt 0.241000 0.007300
vt 0.460400 0.457000
vt 0.460400 0.007300
vt 0.464800 0.457000
vt 0.464800 0.007300
vt 0.313200 0.691900
vt 0.227200 0.911400
vt 0.227200 0.691900
vt 0.313200 0.911400
vt 0.881300 0.562300
vt 0.881800 0.583000
vt 0.785200 0.583000
vt 0.785200 0.562300
vt 0.857400 0.562300
vt 0.857400 0.583000
vt 0.802200 0.602800
vt 0.815900 0.685100
vt 0.802200 0.670400
vt 0.815900 0.588100
vt 0.885300 0.588100
vt 0.885300 0.685100
vt 0.898900 0.602800
vt 0.898900 0.670400
vt 0.351100 0.688000
vt 0.351100 0.468300
vt 0.356000 0.687000
vt 0.356000 0.469200
vt 0.355500 0.463900
vt 0.555700 0.463900
vt 0.555200 0.469200
vt 0.560100 0.468300
vt 0.560100 0.688000
vt 0.555200 0.687000
vt 0.555700 0.692400
vt 0.355500 0.692400
vt 0.570300 0.692400
vt 0.565900 0.688000
vt 0.570300 0.688000
vt 0.565900 0.468300
vt 0.570300 0.468300
vt 0.570300 0.463900
vt 0.770500 0.463900
vt 0.770500 0.468300
vt 0.774900 0.468300
vt 0.774900 0.688000
vt 0.770500 0.688000
vt 0.770500 0.692400
vt 0.539100 0.542200
vt 0.512200 0.542200
vt 0.539100 0.532500
vt 0.544400 0.532500
vt 0.539100 0.486300
vt 0.544400 0.486300
vt 0.539100 0.476100
vt 0.512200 0.476100
vt 0.512200 0.486300
vt 0.507300 0.486300
vt 0.507300 0.532500
vt 0.512200 0.532500
vt 0.899900 0.209000
vt 0.910200 0.209000
vt 0.910200 0.455100
vt 0.899900 0.455100
vt 0.899900 0.238800
vt 0.910200 0.238800
vt 0.029000 0.846900
vt 0.131500 0.833100
vt 0.116800 0.846900
vt 0.014400 0.833100
vt 0.014400 0.485400
vt 0.131500 0.485400
vt 0.029000 0.471700
vt 0.116800 0.471700
vt 0.491200 0.542200
vt 0.464400 0.542200
vt 0.491200 0.532500
vt 0.496300 0.532500
vt 0.491200 0.486300
vt 0.496300 0.486300
vt 0.491200 0.476100
vt 0.464400 0.476100
vt 0.464400 0.486300
vt 0.459200 0.486300
vt 0.459200 0.532500
vt 0.464400 0.532500
vt 0.465100 0.557600
vt 0.465300 0.580100
vt 0.360400 0.580100
vt 0.360600 0.557600
vt 0.438700 0.557600
vt 0.439000 0.580100
vt 0.364000 0.600800
vt 0.377700 0.683100
vt 0.364000 0.668500
vt 0.377700 0.586200
vt 0.447300 0.586200
vt 0.447300 0.683100
vt 0.460900 0.600800
vt 0.460900 0.668500
vt 0.442600 0.542200
vt 0.416000 0.542200
vt 0.442600 0.532500
vt 0.448000 0.532500
vt 0.442600 0.486300
vt 0.448000 0.486300
vt 0.442600 0.476100
vt 0.416000 0.476100
vt 0.416000 0.486300
vt 0.410600 0.486300
vt 0.410600 0.532500
vt 0.416000 0.532500
vt 0.166100 0.463900
vt 0.340300 0.463900
vt 0.166100 0.468300
vt 0.342500 0.468300
vt 0.166100 0.688000
vt 0.342500 0.688000
vt 0.541000 0.628900
vt 0.508300 0.628900
vt 0.541000 0.616700
vt 0.547900 0.616700
vt 0.541000 0.559800
vt 0.547900 0.559800
vt 0.541000 0.547600
vt 0.508300 0.547600
vt 0.508300 0.559800
vt 0.501500 0.559800
vt 0.501500 0.616700
vt 0.508300 0.616700
vt 0.394800 0.542200
vt 0.367900 0.542200
vt 0.394800 0.532500
vt 0.399900 0.532500
vt 0.394800 0.486300
vt 0.399900 0.486300
vt 0.394800 0.476100
vt 0.367900 0.476100
vt 0.367900 0.486300
vt 0.362800 0.486300
vt 0.362800 0.532500
vt 0.367900 0.532500
vn 0.7019 0.0000 -0.7122
vn 0.9995 -0.0000 -0.0311
vn 0.9510 0.0000 -0.3091
vn 1.0000 0.0000 0.0000
vn 1.0000 0.0000 -0.0061
vn 0.9225 0.0000 -0.3861
vn -0.8797 -0.0000 0.4756
vn -0.7019 -0.0000 0.7122
vn -0.9225 -0.0000 0.3860
vn -0.9510 0.0000 -0.3091
vn -0.9995 -0.0000 -0.0311
vn -0.7019 0.0000 -0.7122
vn -1.0000 0.0000 0.0000
vn -0.9224 0.0004 -0.3863
vn -1.0000 0.0000 -0.0061
vn 0.0000 0.0000 -1.0000
vn 0.0000 -0.4008 -0.9162
vn 0.0000 0.4008 0.9161
vn 0.0000 -0.4008 -0.9161
vn 0.0000 0.3986 0.9171
vn -0.7527 0.6542 -0.0742
vn -0.3351 0.7376 -0.5862
vn -0.6419 0.5804 -0.5011
vn -0.2105 0.5364 -0.8173
vn 0.3351 0.7376 -0.5862
vn 0.2105 0.5364 -0.8173
vn 0.6419 0.5804 -0.5011
vn 0.7527 0.6542 -0.0742
vn 0.3729 0.9214 0.1089
vn 0.3278 0.7515 0.5725
vn -0.3729 0.9214 0.1089
vn -0.3278 0.7515 0.5725
vn -0.1040 -0.9623 -0.2512
vn 0.1040 -0.9623 -0.2512
vn -0.1470 -0.9755 -0.1635
vn 0.1470 -0.9755 -0.1635
vn 0.2408 -0.9658 -0.0963
vn 0.1470 -0.9755 0.1635
vn 0.2408 -0.9658 0.0963
vn 0.1040 -0.9623 0.2512
vn -0.1040 -0.9623 0.2512
vn -0.1470 -0.9755 0.1635
vn -0.2408 -0.9658 0.0963
vn -0.2408 -0.9658 -0.0963
vn -0.3793 -0.0000 0.9253
vn 0.3793 -0.0000 0.9253
vn 0.7019 -0.0000 0.7122
vn 0.7082 -0.2830 -0.6468
vn -0.7076 -0.2832 -0.6473
vn -0.7077 -0.2832 -0.6473
vn 0.7082 0.2830 0.6468
vn -0.7077 0.2832 0.6473
vn -0.7076 0.2832 0.6473
vn -0.0074 0.9185 -0.3952
vn 0.0079 0.9196 -0.3927
vn 0.0129 0.9199 -0.3919
vn -0.0091 0.9184 -0.3955
vn 0.0001 0.9185 -0.3955
vn -0.0001 0.9185 -0.3955
vn 0.0074 0.9185 -0.3952
vn -0.0129 0.9199 -0.3919
vn -0.1158 0.9531 0.2798
vn 0.1158 0.9531 0.2798
vn -0.1643 0.9694 0.1824
vn 0.1643 0.9694 0.1824
vn 0.2684 0.9573 0.1073
vn 0.2684 0.9573 -0.1073
vn 0.1643 0.9694 -0.1824
vn 0.1158 0.9531 -0.2798
vn -0.1158 0.9531 -0.2798
vn -0.1643 0.9694 -0.1824
vn -0.2684 0.9573 -0.1073
vn -0.2684 0.9573 0.1073
vn -0.5730 -0.5777 -0.5814
vn -0.2406 -0.6841 -0.6885
vn -0.3397 -0.8757 -0.3431
vn 0.2406 -0.6841 -0.6885
vn 0.3397 -0.8757 -0.3431
vn 0.6831 -0.6888 -0.2428
vn 0.6831 -0.6888 0.2428
vn 0.3397 -0.8757 0.3431
vn 0.2406 -0.6841 0.6885
vn -0.2406 -0.6841 0.6885
vn -0.3397 -0.8757 0.3431
vn -0.6831 -0.6888 0.2428
vn -0.7042 -0.7100 -0.0000
vn 0.3604 0.2782 -0.8903
vn -0.3601 0.2783 -0.8904
vn 0.4834 0.5947 -0.6424
vn 0.9018 0.2781 -0.3309
vn 0.4875 0.8719 -0.0455
vn 0.9008 0.4342 -0.0027
vn 0.3581 0.8781 0.3175
vn -0.3578 0.8781 0.3175
vn -0.4872 0.8721 -0.0455
vn -0.9005 0.4349 -0.0027
vn -0.9014 0.2786 -0.3314
vn -0.4831 0.5948 -0.6425
vn 0.7055 -0.2832 -0.6497
vn 0.7054 -0.2834 -0.6497
vn 0.7060 -0.2823 -0.6495
vn 0.7049 -0.2843 -0.6498
vn -0.7078 -0.2822 -0.6476
vn -0.7076 -0.2826 -0.6477
vn -0.7082 -0.2814 -0.6475
vn -0.7078 -0.2821 -0.6476
vn -0.7074 -0.2829 -0.6477
vn -0.7071 -0.2834 -0.6478
vn 0.7056 0.2827 0.6497
vn 0.7060 0.2831 0.6492
vn 0.7058 0.2829 0.6495
vn 0.7054 0.2825 0.6500
vn -0.7079 0.2819 0.6476
vn -0.7080 0.2820 0.6475
vn -0.7077 0.2816 0.6480
vn -0.7082 0.2822 0.6471
vn -0.0005 0.9150 -0.4034
vn 0.0006 0.9151 -0.4032
vn -0.0002 0.9150 -0.4034
vn 0.0002 0.9150 -0.4034
vn -0.0001 0.9151 -0.4033
vn 0.0005 0.9150 -0.4034
vn -0.0006 0.9151 -0.4032
vn 0.3601 0.2783 -0.8904
vn 0.4831 0.5948 -0.6425
vn 0.9014 0.2787 -0.3314
vn 0.4872 0.8721 -0.0455
vn 0.9005 0.4349 -0.0027
vn 0.3578 0.8781 0.3175
vn -0.9014 0.2787 -0.3314
vn -0.7082 -0.2830 -0.6468
vn 0.7082 0.2829 0.6468
vn 0.7083 0.2830 0.6468
vn -0.7082 0.2830 0.6468
vn 0.0080 0.9196 -0.3927
vn -0.3602 0.2783 -0.8904
vn 0.9014 0.2786 -0.3314
vn 0.3361 -0.0000 0.9418
vn 0.0000 -0.0000 1.0000
vn 0.2903 0.5126 -0.8081
vn -0.2903 0.5126 -0.8081
vn 0.4354 0.6943 -0.5731
vn 0.8224 0.4357 -0.3658
vn 0.4155 0.9016 -0.1205
vn 0.7916 0.6054 -0.0836
vn 0.2548 0.9533 0.1620
vn -0.2548 0.9533 0.1620
vn -0.4155 0.9016 -0.1205
vn -0.7916 0.6054 -0.0836
vn -0.8224 0.4357 -0.3658
vn -0.4354 0.6943 -0.5731
usemtl console_2
s 1
f 1/1/1 2/2/1 3/3/1
f 2/2/2 1/1/1 4/4/3
f 5/5/4 2/2/2 4/4/3
f 4/4/3 6/6/4 5/5/4
f 7/7/1 8/8/1 9/9/1
f 10/10/4 11/11/4 7/7/5
f 12/12/6 7/7/5 11/11/4
f 8/8/1 7/7/5 12/12/6
f 13/13/7 14/14/8 15/15/8
f 14/14/8 13/13/7 16/16/9
f 17/17/10 16/16/9 13/13/7
f 16/16/9 17/17/10 18/18/11
f 19/19/12 18/18/11 17/17/10
f 18/18/12 19/19/12 20/20/12
f 21/21/12 22/22/12 23/23/12
f 24/24/13 25/25/14 26/26/13
f 25/25/14 24/24/13 22/22/15
f 22/22/15 21/21/12 25/25/14
f 21/27/16 23/28/16 8/29/16
f 8/29/16 23/28/16 9/30/16
f 27/31/13 28/32/13 29/33/13
f 30/34/13 29/33/13 28/32/13
f 31/35/17 32/36/17 33/37/17
f 34/38/17 33/37/17 32/36/17
f 35/39/18 36/40/18 37/41/18
f 38/42/18 37/41/18 36/40/18
f 39/43/13 40/44/13 41/45/13
f 42/46/13 41/45/13 40/44/13
f 43/47/19 44/48/19 45/49/19
f 46/50/19 45/49/19 44/48/19
f 47/51/20 48/52/20 49/53/20
f 50/54/20 49/53/20 48/52/20
f 51/55/13 52/56/13 53/57/13
f 54/58/13 53/57/13 52/56/13
f 55/59/17 56/60/17 57/61/17
f 58/62/17 57/61/17 56/60/17
f 59/63/18 60/64/18 61/65/18
f 62/66/18 61/65/18 60/64/18
f 13/67/21 63/68/22 17/69/23
f 19/70/24 17/69/23 63/68/22
f 63/68/22 64/71/25 19/70/24
f 1/72/26 19/70/24 64/71/25
f 4/73/27 1/72/26 64/71/25
f 64/71/25 6/74/28 4/73/27
f 6/74/28 64/71/25 65/75/29
f 66/76/30 6/74/28 65/75/29
f 67/77/31 66/76/30 65/75/29
f 66/76/30 67/77/31 15/78/32
f 67/77/31 13/67/21 15/78/32
f 67/77/31 63/68/22 13/67/21
f 67/77/31 65/75/29 63/68/22
f 65/75/29 64/71/25 63/68/22
f 20/79/33 3/80/34 68/81/35
f 68/81/35 3/80/34 69/82/36
f 2/83/37 69/82/36 3/80/34
f 2/83/37 70/84/38 69/82/36
f 70/84/38 2/83/37 5/85/39
f 5/85/39 71/86/40 70/84/38
f 71/86/40 14/87/41 70/84/38
f 70/84/38 14/87/41 72/88/42
f 16/89/43 72/88/42 14/87/41
f 16/89/43 18/90/44 72/88/42
f 72/88/42 18/90/44 68/81/35
f 20/79/33 68/81/35 18/90/44
f 26/91/8 73/92/45 24/93/8
f 73/92/45 26/91/8 74/94/45
f 73/92/45 74/94/45 75/95/46
f 75/95/46 74/94/45 76/96/46
f 75/95/46 76/96/46 10/97/47
f 11/98/47 10/97/47 76/96/46
f 3/99/16 19/100/16 1/101/16
f 3/99/16 20/102/16 19/100/16
f 77/103/48 32/36/48 78/104/48
f 32/36/48 77/103/48 34/38/48
f 31/105/49 27/31/49 29/33/49
f 27/31/50 31/105/50 33/106/50
f 38/42/51 79/107/51 80/108/51
f 79/107/51 38/42/51 36/40/51
f 37/41/52 28/32/52 35/39/52
f 37/41/52 30/34/53 28/32/52
f 30/109/54 31/110/55 29/111/56
f 37/112/57 31/110/55 30/109/54
f 38/113/58 31/110/55 37/112/57
f 31/110/55 38/113/58 32/114/59
f 32/114/59 38/113/58 80/115/60
f 32/114/59 80/115/60 78/116/61
f 73/117/62 75/118/63 72/119/64
f 72/119/64 75/118/63 70/120/65
f 10/121/66 70/120/65 75/118/63
f 10/121/66 7/122/67 70/120/65
f 70/120/65 7/122/67 69/123/68
f 7/122/67 9/124/69 69/123/68
f 23/125/70 69/123/68 9/124/69
f 69/123/68 23/125/70 68/126/71
f 22/127/72 68/126/71 23/125/70
f 22/127/72 72/119/64 68/126/71
f 72/119/64 22/127/72 24/128/73
f 73/117/62 72/119/64 24/128/73
f 25/129/74 21/130/75 81/131/76
f 21/130/75 8/132/77 81/131/76
f 82/133/78 81/131/76 8/132/77
f 12/134/79 82/133/78 8/132/77
f 11/135/80 82/133/78 12/134/79
f 83/136/81 82/133/78 11/135/80
f 83/136/81 11/135/80 76/137/82
f 76/137/82 74/138/83 83/136/81
f 84/139/84 83/136/81 74/138/83
f 26/140/85 84/139/84 74/138/83
f 26/140/85 25/129/86 84/139/84
f 84/139/84 25/129/86 81/131/76
f 83/136/81 84/139/84 81/131/76
f 83/136/81 81/131/76 82/133/78
f 85/141/87 86/142/88 87/143/89
f 85/141/87 87/143/89 88/144/90
f 89/145/91 88/144/90 87/143/89
f 88/144/90 89/145/91 90/146/92
f 90/146/92 89/145/91 91/147/93
f 92/148/94 91/147/93 89/145/91
f 92/148/94 89/145/91 93/149/95
f 94/150/96 92/148/94 93/149/95
f 93/149/95 95/151/97 94/150/96
f 95/151/97 93/149/95 96/152/98
f 95/151/97 96/152/98 86/142/88
f 96/152/98 87/143/89 86/142/88
f 93/149/95 87/143/89 96/152/98
f 93/149/95 89/145/91 87/143/89
f 79/107/4 78/104/4 80/108/4
f 78/104/4 79/107/4 77/103/4
f 97/153/99 44/48/100 98/154/101
f 44/48/100 97/153/99 46/50/102
f 43/155/103 39/43/104 41/45/105
f 39/43/106 43/155/107 45/156/108
f 50/54/109 99/157/109 100/158/110
f 99/157/111 50/54/111 48/52/112
f 49/53/113 40/44/114 47/51/115
f 49/53/113 42/46/116 40/44/114
f 42/159/117 43/160/117 41/161/118
f 49/162/119 43/160/117 42/159/117
f 50/163/120 43/160/117 49/162/119
f 43/160/117 50/163/120 44/164/121
f 44/164/121 50/163/120 100/165/122
f 44/164/121 100/165/122 98/166/123
f 101/167/124 102/168/88 103/169/125
f 101/167/124 103/169/125 104/170/126
f 105/171/127 104/170/126 103/169/125
f 104/170/126 105/171/127 106/172/128
f 106/172/128 105/171/127 107/173/129
f 108/174/94 107/173/129 105/171/127
f 108/174/94 105/171/127 109/175/95
f 110/176/96 108/174/94 109/175/95
f 109/175/95 111/177/130 110/176/96
f 111/177/130 109/175/95 112/178/98
f 111/177/130 112/178/98 102/168/88
f 112/178/98 103/169/125 102/168/88
f 109/175/95 103/169/125 112/178/98
f 109/175/95 105/171/127 103/169/125
f 99/157/4 98/154/4 100/158/4
f 98/154/4 99/157/4 97/153/4
f 113/179/48 56/60/48 114/180/48
f 56/60/48 113/179/48 58/62/48
f 55/181/131 51/55/131 53/57/131
f 51/55/131 55/181/131 57/182/131
f 62/66/132 115/183/132 116/184/132
f 115/183/133 62/66/133 60/64/133
f 61/65/134 52/56/134 59/63/134
f 61/65/134 54/58/134 52/56/134
f 54/185/54 55/186/135 53/187/56
f 61/188/57 55/186/135 54/185/54
f 62/189/58 55/186/135 61/188/57
f 55/186/135 62/189/58 56/190/59
f 56/190/59 62/189/58 116/191/60
f 56/190/59 116/191/60 114/192/61
f 117/193/124 118/194/136 119/195/125
f 117/193/124 119/195/125 120/196/137
f 121/197/127 120/196/137 119/195/125
f 120/196/137 121/197/127 122/198/128
f 122/198/128 121/197/127 123/199/129
f 124/200/94 123/199/129 121/197/127
f 124/200/94 121/197/127 125/201/95
f 126/202/96 124/200/94 125/201/95
f 125/201/95 127/203/97 126/202/96
f 127/203/97 125/201/95 128/204/98
f 127/203/97 128/204/98 118/194/136
f 128/204/98 119/195/125 118/194/136
f 125/201/95 119/195/125 128/204/98
f 125/201/95 121/197/127 119/195/125
f 115/183/4 114/180/4 116/184/4
f 114/180/4 115/183/4 113/179/4
f 5/205/47 6/206/47 71/207/46
f 66/208/138 71/207/46 6/206/47
f 66/208/138 14/209/139 71/207/46
f 66/208/138 15/210/139 14/209/139
f 129/211/140 130/212/141 131/213/142
f 129/211/140 131/213/142 132/214/143
f 133/215/144 132/214/143 131/213/142
f 132/214/143 133/215/144 134/216/145
f 134/216/145 133/215/144 135/217/146
f 136/218/147 135/217/146 133/215/144
f 136/218/147 133/215/144 137/219/148
f 138/220/149 136/218/147 137/219/148
f 137/219/148 139/221/150 138/220/149
f 139/221/150 137/219/148 140/222/151
f 139/221/150 140/222/151 130/212/141
f 140/222/151 131/213/142 130/212/141
f 137/219/148 131/213/142 140/222/151
f 137/219/148 133/215/144 131/213/142
f 141/223/124 142/224/88 143/225/125
f 141/223/124 143/225/125 144/226/126
f 145/227/127 144/226/126 143/225/125
f 144/226/126 145/227/127 146/228/128
f 146/228/128 145/227/127 147/229/129
f 148/230/94 147/229/129 145/227/127
f 148/230/94 145/227/127 149/231/95
f 150/232/96 148/230/94 149/231/95
f 149/231/95 151/233/130 150/232/96
f 151/233/130 149/231/95 152/234/98
f 151/233/130 152/234/98 142/224/88
f 152/234/98 143/225/125 142/224/88
f 149/231/95 143/225/125 152/234/98
f 149/231/95 145/227/127 143/225/125
