# This file uses centimeters as units for non-parametric coordinates.

mtllib Hedge_01.mtl
g default
v -0.274232 0.086365 2.722758
v -0.100992 0.086365 2.855994
v 0.072249 0.086365 2.855994
v 0.245490 0.086365 2.722758
v -0.473725 0.594905 2.941235
v -0.157908 0.594905 3.085288
v 0.157908 0.594905 3.085288
v 0.473725 0.594905 2.941235
v -0.473725 1.103445 2.859636
v -0.157908 1.179759 3.003688
v 0.157908 1.179759 3.003688
v 0.473725 1.103445 2.859636
v -0.352675 1.291723 2.680116
v -0.157908 1.467980 2.680116
v 0.157908 1.467980 2.680116
v 0.329203 1.303325 2.680116
v -0.299160 1.512043 2.353433
v -0.157908 1.688299 2.353433
v 0.157908 1.688299 2.353433
v 0.329203 1.523644 2.353433
v -0.299160 1.634442 1.765630
v -0.157908 1.810699 1.765630
v 0.157908 1.810699 1.765630
v 0.329203 1.646043 1.765630
v -0.352675 1.634442 1.177828
v -0.157908 1.810699 1.177828
v 0.157908 1.810699 1.177828
v 0.329203 1.646043 1.177828
v -0.352675 1.512043 0.590025
v -0.157908 1.688299 0.590025
v 0.157908 1.688299 0.590025
v 0.329203 1.523644 0.590025
v -0.352675 1.283563 0.002223
v -0.157908 1.459820 0.002223
v 0.157908 1.459820 0.002223
v 0.180851 1.295165 0.002223
v -0.303119 1.657708 -0.585580
v -0.157908 1.864883 -0.628865
v 0.157908 1.864883 -0.628865
v 0.180851 1.669309 -0.585580
v -0.303119 1.657708 -1.173382
v -0.157908 1.772855 -1.173382
v 0.157908 1.772855 -1.173382
v 0.329203 1.669309 -1.173382
v -0.352675 1.357003 -1.761185
v -0.157908 1.533260 -1.761185
v 0.157908 1.533260 -1.761185
v 0.198519 1.368604 -1.761185
v -0.352675 1.512043 -2.348988
v -0.157908 1.688299 -2.348988
v 0.157908 1.688299 -2.348988
v 0.329203 1.523644 -2.348988
v -0.352675 1.332523 -2.667511
v -0.157908 1.508780 -2.667511
v 0.157908 1.508780 -2.667511
v 0.329203 1.344125 -2.667511
v -0.473725 0.923926 -2.855191
v -0.157908 0.923926 -2.940453
v 0.157908 0.923926 -2.940453
v 0.473725 0.923926 -2.855191
v -0.473725 0.594905 -2.936790
v -0.157908 0.594905 -3.022053
v 0.157908 0.594905 -3.022053
v 0.473725 0.594905 -2.936790
v -0.274232 0.086365 -2.713898
v -0.100992 0.086365 -2.792759
v 0.072249 0.086365 -2.792759
v 0.245490 0.086365 -2.713898
v -0.320205 0.086365 -2.170233
v -0.116744 0.086365 -2.348988
v 0.095955 0.086365 -2.348988
v 0.245490 0.086365 -2.170233
v -0.320205 0.086365 -1.626567
v -0.116744 0.086365 -1.761185
v 0.095955 0.086365 -1.761185
v 0.173803 0.086365 -1.626567
v -0.247048 0.086365 -1.082901
v -0.116744 0.086365 -1.173382
v 0.095955 0.086365 -1.173382
v 0.245490 0.086365 -1.082901
v -0.247048 0.086365 -0.539236
v -0.116744 0.086365 -0.585580
v 0.095955 0.086365 -0.585580
v 0.164111 0.086365 -0.539236
v -0.274232 0.086365 0.004430
v -0.100992 0.086365 0.004430
v 0.095955 0.086365 0.002223
v 0.164111 0.086365 0.004430
v -0.324573 0.086365 0.548095
v -0.116744 0.086365 0.590025
v 0.095955 0.086365 0.590025
v 0.260906 0.086365 0.584141
v -0.324573 0.086365 1.091761
v -0.116744 0.086365 1.177828
v 0.095955 0.086365 1.177828
v 0.260906 0.086365 1.127806
v -0.274232 0.086365 1.635427
v -0.116744 0.086365 1.765630
v 0.095955 0.086365 1.765630
v 0.161177 0.086365 1.635427
v -0.274232 0.086365 2.179092
v -0.116744 0.086365 2.353433
v 0.095955 0.086365 2.353433
v 0.161177 0.086365 2.179092
v 0.473725 0.594905 -2.348988
v 0.343040 0.594905 -1.761185
v 0.473725 0.594905 -1.173382
v 0.325372 0.594905 -0.585580
v 0.325372 0.594905 0.002223
v 0.501829 0.594905 0.628997
v 0.501829 0.594905 1.216799
v 0.320023 0.594905 1.765630
v 0.320023 0.594905 2.353433
v 0.473725 1.103445 -2.348988
v 0.343040 1.103445 -1.761185
v 0.473725 1.103445 -1.173382
v 0.325372 1.103445 -0.585580
v 0.325372 1.103445 0.002223
v 0.473725 1.103445 0.628997
v 0.473725 1.103445 1.216799
v 0.320023 1.103445 1.765630
v 0.320023 1.103445 2.353433
v -0.557532 0.594905 -2.348988
v -0.557532 0.594905 -1.761185
v -0.424168 0.594905 -1.173382
v -0.424168 0.594905 -0.585580
v -0.473725 0.594905 0.002223
v -0.565496 0.594905 0.590025
v -0.565496 0.594905 1.177828
v -0.420210 0.594905 1.765630
v -0.420210 0.594905 2.353433
v -0.557532 1.103445 -2.348988
v -0.557532 1.103445 -1.761185
v -0.424168 1.103445 -1.173382
v -0.424168 1.103445 -0.585580
v -0.473725 1.103445 0.002223
v -0.565496 1.103445 0.590025
v -0.565496 1.103445 1.177828
v -0.420210 1.103445 1.765630
v -0.420210 1.103445 2.353433
v -0.157908 1.945269 -1.062020
v 0.157908 1.945269 -1.064871
v 0.157908 1.707491 -0.517920
v -0.157908 1.696746 -0.496421
v 0.157908 1.672727 1.099224
v -0.157908 1.669643 1.084417
v 0.157908 1.317566 2.749825
v -0.157908 1.322448 2.744344
v 0.157908 0.969005 -2.864463
v -0.157908 0.985061 -2.856970
v 0.334675 0.257464 2.941235
v 0.105721 0.257464 3.085288
v -0.123232 0.257464 3.085288
v -0.352186 0.257464 2.941235
v -0.343750 0.257464 2.353433
v -0.343750 0.257464 1.765630
v -0.418716 0.257464 1.177828
v -0.418716 0.257464 0.590025
v -0.352186 0.257464 0.002223
v -0.316260 0.257464 -0.585580
v -0.316260 0.257464 -1.173382
v -0.412943 0.257464 -1.761185
v -0.412943 0.257464 -2.348988
v -0.352186 0.257464 -2.936790
v -0.123232 0.257464 -3.022053
v 0.105721 0.257464 -3.022053
v 0.334675 0.257464 -2.936790
v 0.334675 0.257464 -2.348988
v 0.239934 0.257464 -1.761185
v 0.334675 0.257464 -1.173382
v 0.227126 0.257464 -0.585580
v 0.227126 0.257464 0.002223
v 0.355049 0.257464 0.628997
v 0.355049 0.257464 1.216799
v 0.223247 0.257464 1.765630
v 0.223247 0.257464 2.353433
v -0.462861 0.000000 -3.078085
v -0.462861 0.000000 3.149384
v -0.260606 0.126481 -2.898993
v -0.260606 0.126481 2.972230
v -0.000000 0.126481 -3.158509
v 0.000000 0.126481 3.202840
v 0.234286 0.126481 -2.898993
v 0.234286 0.126481 2.972230
v 0.436541 0.000000 -3.078085
v 0.436541 0.000000 3.149384
v -0.000000 0.000000 -3.361632
v 0.000000 0.000000 3.401347
vt 0.369196 0.120616
vt 0.365894 0.089978
vt 0.824351 0.030107
vt 0.443888 0.124718
vt 0.920950 0.078517
vt 0.834567 0.071656
vt 0.730540 0.060120
vt 0.508894 0.135254
vt 0.921071 0.112405
vt 0.841873 0.112428
vt 0.755773 0.090368
vt 0.777146 0.124803
vt 0.762966 0.903749
vt 0.331597 0.289613
vt 0.694786 0.099198
vt 0.530767 0.156556
vt 0.682305 0.259898
vt 0.733752 0.116455
vt 0.646843 0.679373
vt 0.747783 0.142311
vt 0.781307 0.914090
vt 0.560139 0.158258
vt 0.585360 0.200997
vt 0.562154 0.200997
vt 0.601475 0.278387
vt 0.578269 0.278387
vt 0.508358 0.200997
vt 0.359082 0.924450
vt 0.605789 0.356892
vt 0.577037 0.358606
vt 0.508358 0.278387
vt 0.441403 0.200997
vt 0.507506 0.922471
vt 0.508358 0.355777
vt 0.441403 0.278387
vt 0.368047 0.200997
vt 0.913564 0.043350
vt 0.441403 0.355777
vt 0.508358 0.433168
vt 0.561193 0.435058
vt 0.368047 0.278387
vt 0.368047 0.355777
vt 0.441403 0.433168
vt 0.508358 0.510558
vt 0.534605 0.511693
vt 0.368047 0.433168
vt 0.441403 0.510558
vt 0.508358 0.587948
vt 0.579185 0.585784
vt 0.368047 0.510558
vt 0.441403 0.587948
vt 0.508358 0.665339
vt 0.579122 0.667926
vt 0.368047 0.587948
vt 0.441403 0.665339
vt 0.609941 0.593925
vt 0.618713 0.652777
vt 0.508358 0.742729
vt 0.543010 0.741191
vt 0.368047 0.665339
vt 0.441403 0.742729
vt 0.508358 0.820119
vt 0.561534 0.820593
vt 0.368047 0.742729
vt 0.441403 0.820119
vt 0.484651 0.890397
vt 0.537726 0.861539
vt 0.368047 0.820119
vt 0.440635 0.895980
vt 0.367386 0.897509
vt 0.678732 0.124504
vt 0.720323 0.134788
vt 0.703478 0.178791
vt 0.662921 0.169607
vt 0.698812 0.423724
vt 0.722877 0.186526
vt 0.553198 0.142857
vt 0.641331 0.254815
vt 0.703816 0.264070
vt 0.678382 0.343035
vt 0.638714 0.350053
vt 0.705282 0.345396
vt 0.279983 0.444394
vt 0.698722 0.570104
vt 0.646676 0.372757
vt 0.267451 0.676564
vt 0.685734 0.359076
vt 0.303593 0.753955
vt 0.628274 0.648058
vt 0.585444 0.443185
vt 0.684400 0.501815
vt 0.916924 0.924520
vt 0.664137 0.552108
vt 0.599548 0.374997
vt 0.303593 0.831345
vt 0.725047 0.501288
vt 0.345972 0.831345
vt 0.834415 0.923454
vt 0.303593 0.444394
vt 0.275589 0.908735
vt 0.592583 0.570400
vt 0.720224 0.421560
vt 0.303593 0.521784
vt 0.331597 0.367003
vt 0.750390 0.499357
vt 0.664902 0.639276
vt 0.775632 0.416835
vt 0.775632 0.499357
vt 0.701130 0.576747
vt 0.642570 0.570630
vt 0.842587 0.416835
vt 0.842587 0.499357
vt 0.775632 0.576747
vt 0.775632 0.339445
vt 0.331597 0.444394
vt 0.678829 0.584524
vt 0.920211 0.416835
vt 0.920211 0.499357
vt 0.842587 0.576747
vt 0.842587 0.339445
vt 0.775632 0.654137
vt 0.703187 0.653720
vt 0.775632 0.267186
vt 0.712547 0.849289
vt 0.303593 0.927701
vt 0.920211 0.576747
vt 0.920211 0.339445
vt 0.842587 0.654137
vt 0.842587 0.267186
vt 0.775632 0.731527
vt 0.740721 0.731527
vt 0.775632 0.189796
vt 0.658806 0.434698
vt 0.920211 0.654137
vt 0.920211 0.267186
vt 0.842587 0.731527
vt 0.842587 0.189795
vt 0.775632 0.808918
vt 0.721607 0.808472
vt 0.684014 0.656934
vt 0.717534 0.733014
vt 0.566543 0.868106
vt 0.704085 0.812273
vt 0.920211 0.731527
vt 0.920211 0.189796
vt 0.842587 0.808918
vt 0.584791 0.823855
vt 0.798919 0.874589
vt 0.742690 0.849324
vt 0.331597 0.753955
vt 0.920211 0.808918
vt 0.664744 0.810393
vt 0.839476 0.884788
vt 0.918761 0.889970
vt 0.435331 0.936771
vt 0.444372 0.083748
vt 0.599562 0.673931
vt 0.331597 0.521784
vt 0.331597 0.831345
vt 0.359601 0.367003
vt 0.331597 0.676564
vt 0.829521 0.964282
vt 0.677761 0.738282
vt 0.303593 0.676564
vt 0.345972 0.753955
vt 0.757467 0.944954
vt 0.362093 0.681695
vt 0.536176 0.102400
vt 0.348013 0.289613
vt 0.673327 0.862795
vt 0.279983 0.367003
vt 0.275589 0.753955
vt 0.275589 0.831345
vt 0.558564 0.504591
vt 0.359601 0.212223
vt 0.362093 0.604305
vt 0.723966 0.925211
vt 0.268157 0.289613
vt 0.359601 0.908735
vt 0.567382 0.743041
vt 0.559445 0.518349
vt 0.331597 0.927701
vt 0.303593 0.289613
vt 0.482618 0.935366
vt 0.346446 0.444394
vt 0.331597 0.599174
vt 0.346446 0.521784
vt 0.267451 0.599174
vt 0.912878 0.955785
vt 0.331597 0.212223
vt 0.303593 0.599174
vt 0.359601 0.134832
vt 0.275589 0.521784
vt 0.303593 0.367003
vt 0.275589 0.134832
vt 0.303593 0.123607
vt 0.303593 0.212223
vt 0.268157 0.212223
vt 0.331597 0.123607
vt 0.891063 0.112409
vt 0.889810 0.077435
vt 0.392194 0.088996
vt 0.881977 0.041263
vt 0.394898 0.121263
vt 0.393539 0.200997
vt 0.393539 0.278387
vt 0.393539 0.355777
vt 0.393539 0.433168
vt 0.393539 0.510558
vt 0.393539 0.587948
vt 0.393539 0.665339
vt 0.393539 0.742729
vt 0.393539 0.820119
vt 0.392861 0.897268
vt 0.385030 0.926392
vt 0.882214 0.957124
vt 0.886394 0.924352
vt 0.888739 0.889153
vt 0.890451 0.808918
vt 0.890451 0.731527
vt 0.890451 0.654137
vt 0.890451 0.576747
vt 0.890451 0.499357
vt 0.890451 0.416835
vt 0.890451 0.339445
vt 0.890451 0.267186
vt 0.890451 0.189796
vt 0.000373 0.967357
vt 0.000373 0.029229
vt 0.018624 0.069127
vt 0.018624 0.927749
vt 0.046796 0.044198
vt 0.046796 0.955802
vt 0.072122 0.069127
vt 0.072122 0.927749
vt 0.090373 0.029229
vt 0.090373 0.967357
vt 0.004325 0.919269
vt 0.004325 0.077669
vt 0.043418 0.053234
vt 0.043418 0.946766
vt 0.085065 0.077669
vt 0.085065 0.919269
vt 0.046796 0.001992
vt 0.046796 0.998008
vn -0.355713 -0.779274 0.515945
vn -0.180907 -0.803924 0.566551
vn -0.232252 -0.477895 0.847157
vn -0.444639 -0.480597 0.755859
vn 0.177582 -0.808127 0.561601
vn 0.229804 -0.486591 0.842864
vn 0.349320 -0.788199 0.506673
vn 0.439573 -0.497307 0.747972
vn -0.448070 0.013135 0.893902
vn -0.229705 0.042423 0.972335
vn -0.222602 0.547000 0.806994
vn -0.428736 0.499719 0.752640
vn 0.229580 0.036326 0.972612
vn 0.223129 0.547083 0.806792
vn 0.448080 0.001176 0.893993
vn 0.427176 0.500422 0.753060
vn -0.185406 0.848515 0.495627
vn -0.366674 0.788616 0.493594
vn 0.186374 0.848393 0.495474
vn 0.363630 0.789721 0.494080
vn -0.670662 0.639281 0.376207
vn -0.359475 0.787039 0.501345
vn -0.399020 0.847364 0.350366
vn -0.728826 0.635452 0.254975
vn 0.330126 0.782595 0.527790
vn 0.355140 0.860169 0.366041
vn 0.623235 0.648365 0.437265
vn 0.661885 0.688573 0.296268
vn -0.412239 0.905488 0.100750
vn -0.750184 0.656225 0.081200
vn 0.372767 0.923020 0.095285
vn 0.691075 0.718940 0.074436
vn -0.345926 0.812502 -0.469229
vn -0.646373 0.653602 -0.393707
vn 0.340269 0.803661 -0.488207
vn 0.623699 0.648848 -0.435885
vn -0.221176 0.524445 -0.822216
vn 0.228746 0.497183 -0.836949
vn -0.573904 0.798445 -0.181989
vn -0.303859 0.934924 -0.183267
vn -0.345632 0.937028 0.050178
vn -0.640966 0.765417 0.057441
vn 0.365855 0.909885 -0.195599
vn 0.582733 0.811719 -0.039187
vn 0.687370 0.699491 -0.195536
vn 0.932424 0.347965 -0.097502
vn -0.295391 0.854946 0.426393
vn -0.563710 0.730635 0.385233
vn 0.626947 0.699511 0.342960
vn 0.976950 0.186153 0.104475
vn -0.528794 0.636381 -0.561601
vn -0.203618 0.528688 -0.824032
vn -0.276927 0.729963 -0.624872
vn 0.153242 0.528889 -0.834742
vn 0.285398 0.701551 -0.652973
vn 0.548965 0.573295 -0.608252
vn -0.356284 0.932047 -0.065949
vn -0.659953 0.748991 -0.058946
vn 0.458664 0.885750 -0.071234
vn 0.812702 0.579352 -0.062187
vn -0.363134 0.923702 -0.122100
vn -0.667551 0.737657 -0.101176
vn 0.431108 0.895208 -0.112910
vn 0.771726 0.631222 -0.077439
vn -0.327641 0.823080 -0.463886
vn -0.619111 0.684130 -0.385574
vn 0.341551 0.818778 -0.461461
vn 0.642023 0.667911 -0.376433
vn -0.184023 0.389033 -0.902657
vn -0.093676 0.366947 -0.925513
vn -0.093676 0.366947 -0.925513
vn -0.184023 0.389033 -0.902657
vn 0.091624 0.367216 -0.925612
vn 0.091624 0.367216 -0.925612
vn 0.184827 0.389367 -0.902348
vn 0.184827 0.389367 -0.902348
vn -0.218241 0.546715 -0.808377
vn -0.106468 0.564683 -0.818412
vn -0.140628 0.103167 -0.984673
vn -0.279020 0.082908 -0.956700
vn 0.109544 0.584343 -0.804079
vn 0.140635 0.099318 -0.985067
vn 0.211004 0.587052 -0.781567
vn 0.279179 0.075225 -0.957288
vn -0.288673 -0.478242 -0.829429
vn -0.147157 -0.468601 -0.871067
vn -0.114066 -0.806189 -0.580558
vn -0.226610 -0.800165 -0.555324
vn 0.146201 -0.474040 -0.868281
vn 0.112711 -0.808775 -0.577216
vn 0.286573 -0.488849 -0.823956
vn 0.223936 -0.805422 -0.548770
vn 0.000000 -1.000000 0.000000
vn 0.000000 -1.000000 -0.000000
vn 0.000000 -1.000000 -0.000000
vn 0.000000 -1.000000 0.000000
vn 0.000000 -1.000000 0.000000
vn 0.000000 -1.000000 -0.000000
vn 0.000000 -1.000000 0.000000
vn 0.000000 -1.000000 -0.000000
vn 0.000000 -1.000000 0.000000
vn 0.000000 -1.000000 0.000000
vn 0.000000 -1.000000 -0.000000
vn 0.000000 -1.000000 -0.000000
vn 0.000000 -1.000000 0.000000
vn 0.000000 -1.000000 0.000000
vn 0.000000 -1.000000 -0.000000
vn 0.000000 -1.000000 -0.000000
vn 0.000000 -1.000000 0.000000
vn 0.000000 -1.000000 0.000000
vn 0.000000 -1.000000 -0.000000
vn 0.000000 -1.000000 -0.000000
vn 0.000000 -1.000000 0.000000
vn 0.000000 -1.000000 0.000000
vn 0.000000 -1.000000 -0.000000
vn 0.000000 -1.000000 0.000000
vn 0.000000 -1.000000 -0.000000
vn 0.000000 -1.000000 0.000000
vn 0.000000 -1.000000 -0.000000
vn 0.000000 -1.000000 0.000000
vn 0.000000 -1.000000 0.000000
vn 0.000000 -1.000000 0.000000
vn 0.000000 -1.000000 0.000000
vn 0.000000 -1.000000 0.000000
vn 0.000000 -1.000000 0.000000
vn 0.000000 -1.000000 0.000000
vn 0.000000 -1.000000 0.000000
vn 0.000000 -1.000000 0.000000
vn 0.000000 -1.000000 -0.000000
vn 0.000000 -1.000000 0.000000
vn 0.000000 -1.000000 -0.000000
vn 0.000000 -1.000000 -0.000000
vn 0.000000 -1.000000 -0.000000
vn 0.000000 -1.000000 0.000000
vn 0.000000 -1.000000 -0.000000
vn 0.000000 -1.000000 -0.000000
vn 0.920688 -0.384005 0.069809
vn 0.886763 -0.462224 0.000000
vn 0.906581 -0.422032 0.000000
vn 0.925165 -0.371142 0.079518
vn 0.918608 -0.395130 0.005565
vn 0.930359 -0.366640 0.002787
vn 0.907838 -0.419107 0.013431
vn 0.925956 -0.377417 0.012724
vn 0.934099 -0.348524 0.077392
vn 0.941022 -0.326353 0.089278
vn 0.924669 -0.371280 -0.084486
vn 0.935268 -0.340016 -0.098297
vn 0.893978 -0.440064 -0.084539
vn 0.909211 -0.404554 -0.098345
vn 0.863861 -0.495093 0.092885
vn 0.894780 -0.432188 0.112175
vn 0.899855 -0.426097 0.093289
vn 0.923742 -0.366159 0.112377
vn 0.953831 -0.288563 -0.083293
vn 0.950932 -0.294769 -0.094016
vn 0.958185 -0.233246 -0.165763
vn 0.942056 -0.278327 -0.187257
vn 0.978055 -0.182308 0.100857
vn 0.980963 -0.194193 0.000000
vn 0.980677 0.179373 -0.078089
vn 0.978866 0.187982 0.080525
vn 0.985080 -0.172095 -0.000000
vn 0.983385 0.181315 -0.008909
vn 0.985252 -0.170592 0.013294
vn 0.989434 0.144916 -0.004397
vn 0.981531 -0.153952 0.113558
vn 0.976829 0.151283 0.151386
vn 0.981357 -0.149472 -0.120813
vn 0.973576 0.200189 -0.109885
vn 0.978349 -0.167284 -0.121858
vn 0.970121 0.194471 -0.145070
vn 0.975698 -0.166522 0.142420
vn 0.987057 0.125215 0.100198
vn 0.978909 -0.147666 0.141179
vn 0.993705 0.033985 0.106753
vn 0.979895 -0.157926 -0.121927
vn 0.994153 0.033674 -0.102600
vn 0.954430 -0.174273 -0.242266
vn 0.976025 0.076775 -0.203668
vn 0.923455 0.351814 -0.153159
vn 0.927062 0.371763 0.048463
vn 0.933237 0.358829 -0.017631
vn 0.957378 0.287914 -0.023084
vn 0.938131 0.298358 0.175763
vn 0.919815 0.382080 -0.089188
vn 0.925444 0.343320 -0.160264
vn 0.976826 0.207633 0.051949
vn 0.996348 0.054418 0.065794
vn 0.994594 0.078082 -0.068450
vn 0.975565 0.174147 -0.133966
vn -0.851127 -0.518784 -0.080286
vn -0.866123 -0.498213 -0.040188
vn -0.896679 -0.439999 -0.048662
vn -0.891070 -0.443305 -0.097340
vn -0.907628 -0.413909 0.069937
vn -0.916236 -0.392518 0.080263
vn -0.929537 -0.362067 0.069777
vn -0.935481 -0.344163 0.080165
vn -0.921310 -0.387991 -0.025523
vn -0.935967 -0.350811 -0.029967
vn -0.904724 -0.419920 -0.071707
vn -0.920171 -0.382361 -0.084173
vn -0.886168 -0.461054 -0.046224
vn -0.904643 -0.422700 -0.054265
vn -0.875470 -0.480845 0.048384
vn -0.905185 -0.419489 0.068325
vn -0.902160 -0.428671 0.048465
vn -0.934616 -0.349003 0.068481
vn -0.923837 -0.382770 -0.003434
vn -0.948039 -0.317830 -0.014384
vn -0.921171 -0.389098 -0.006868
vn -0.941511 -0.335755 -0.028738
vn -0.974524 -0.178102 -0.136318
vn -0.979398 -0.190013 -0.068376
vn -0.964723 0.246889 -0.091414
vn -0.952115 0.217106 -0.215274
vn -0.976581 -0.189020 0.102770
vn -0.968729 0.232147 0.087584
vn -0.980893 -0.165463 0.102330
vn -0.986407 0.149308 0.068618
vn -0.986592 -0.158554 -0.038691
vn -0.990986 0.132973 -0.016278
vn -0.978503 -0.174738 -0.109538
vn -0.973798 0.205380 -0.097656
vn -0.978093 -0.195631 -0.071155
vn -0.968364 0.231768 -0.092494
vn -0.977716 -0.181109 0.106166
vn -0.979158 0.181440 0.091262
vn -0.985280 -0.134605 0.105381
vn -0.984486 0.138392 0.107865
vn -0.990991 -0.128628 -0.037297
vn -0.987593 0.155262 -0.023547
vn -0.986475 -0.145919 -0.074667
vn -0.980911 0.184789 -0.060553
vn -0.874415 0.474675 -0.100409
vn -0.872531 0.409256 -0.266832
vn -0.890583 0.450964 0.059100
vn -0.955291 0.294663 0.024363
vn -0.964592 0.263563 0.009799
vn -0.912151 0.403540 -0.071669
vn -0.886713 0.450800 -0.102560
vn -0.932401 0.356648 0.058577
vn -0.957391 0.273461 0.092856
vn -0.950553 0.310553 0.002290
vn -0.928687 0.370247 -0.021401
vn -0.751309 0.544659 0.372669
vn -0.409381 0.766404 0.495008
vn -0.498419 0.857461 0.127828
vn -0.864081 0.501800 0.039510
vn 0.602399 0.667813 0.437198
vn 0.554196 0.806356 0.206536
vn 0.944596 0.261763 0.198039
vn 0.920171 0.356725 0.161344
vn 0.604954 0.472839 0.640667
vn -0.275594 0.584428 0.763212
vn 0.256867 0.966101 -0.025864
vn 0.500497 0.861662 -0.083909
vn -0.256925 0.966098 -0.025389
vn -0.490760 0.867319 -0.083144
vn 0.188561 0.408779 0.892942
vn 0.374733 0.389843 0.841188
vn 0.188561 0.408779 0.892942
vn -0.176587 0.401758 0.898559
vn -0.176587 0.401758 0.898559
vn -0.343192 0.379236 0.859302
vn 0.075683 0.843970 -0.531024
vn -0.071754 0.817716 -0.571132
vn -0.530215 0.847863 0.000000
vn -0.530215 0.847863 0.000000
vn -0.530215 0.847863 0.000000
vn -0.530215 0.847863 0.000000
vn 0.000000 1.000000 0.000000
vn 0.000000 1.000000 0.000000
vn 0.000000 1.000000 0.000000
vn 0.000000 1.000000 0.000000
vn 0.000000 1.000000 0.000000
vn 0.000000 1.000000 0.000000
vn 0.530215 0.847863 0.000000
vn 0.530215 0.847863 0.000000
vn 0.530215 0.847863 0.000000
vn 0.530215 0.847863 0.000000
vn 0.000000 -1.000000 0.000000
vn 0.000000 -1.000000 0.000000
vn 0.000000 -1.000000 0.000000
vn 0.000000 -1.000000 0.000000
vn 0.000000 -1.000000 0.000000
vn 0.000000 -1.000000 0.000000
vn 0.008232 0.897811 0.440304
vn 0.299686 0.858276 0.416594
vn 0.299686 0.858276 0.416594
vn 0.008232 0.897811 0.440304
vn -0.283938 0.859173 0.425676
vn -0.283938 0.859173 0.425676
vn 0.322189 0.858952 -0.397989
vn 0.008564 0.905507 -0.424244
vn 0.008564 0.905507 -0.424244
vn 0.322189 0.858952 -0.397989
vn -0.305929 0.860409 -0.407558
vn -0.305929 0.860409 -0.407558
s 1
g hedge_Row_6
usemtl lambert13SG
f 1/1/1 2/2/2 153/202/3 154/204/4
f 2/37/2 3/5/5 152/201/6 153/203/3
f 3/5/5 4/9/7 151/200/8 152/201/6
f 5/4/9 6/156/10 10/168/11 9/8/12
f 6/3/10 7/6/13 11/11/14 10/7/11
f 7/6/13 8/10/15 12/12/16 11/11/14
f 9/8/12 10/168/11 148/77/17 13/16/18
f 10/7/11 11/11/14 147/18/19 148/15/17
f 11/11/14 12/12/16 16/20/20 147/18/19
s 2
f 13/16/21 14/22/22 18/23/23 17/24/24
f 14/71/22 15/72/25 19/73/26 18/74/23
f 15/72/25 16/20/27 20/76/28 19/73/26
f 17/24/24 18/23/23 22/25/29 21/26/30
f 18/74/23 19/73/26 23/17/31 22/78/29
f 19/73/26 20/76/28 24/79/32 23/17/31
f 21/26/30 22/25/29 26/29/33 25/30/34
f 22/78/29 23/17/31 27/80/35 26/81/33
f 23/17/31 24/79/32 28/82/36 27/80/35
f 25/30/34 26/29/33 146/94/37
f 26/81/33 27/80/35 145/87/38 146/85/37
f 27/80/35 28/82/36 145/87/38
s 3
f 29/40/39 30/90/40 34/181/41 33/45/42
f 30/133/40 31/75/43 35/96/44 34/91/41
f 31/75/43 32/102/45 36/105/46 35/96/44
f 33/45/42 34/174/41 144/101/47 37/49/48
f 34/91/41 35/96/44 143/84/49 144/93/47
f 35/96/44 36/105/46 40/109/50 143/84/49
s 4
f 41/53/51 141/57/52 42/157/53
f 141/89/52 142/106/54 43/140/55 42/19/53
f 142/106/54 44/122/56 43/140/55
f 41/53/51 42/157/53 46/180/57 45/59/58
f 42/19/53 43/140/55 47/141/59 46/163/57
f 43/140/55 44/122/56 48/131/60 47/141/59
f 45/59/58 46/180/57 50/147/61 49/63/62
f 46/163/57 47/141/59 51/143/63 50/152/61
f 47/141/59 48/131/60 52/139/64 51/143/63
f 49/63/62 50/147/61 54/142/65 53/67/66
f 50/152/61 51/143/63 55/124/67 54/170/65
f 51/143/63 52/139/64 56/149/68 55/124/67
s 5
f 53/67/69 54/142/70 150/33/71 57/66/72
f 54/170/70 55/124/73 149/13/74 150/177/71
f 55/124/73 56/149/75 60/148/76 149/13/74
s 6
f 57/66/77 58/184/78 62/155/79 61/69/80
f 58/166/78 59/21/81 63/98/82 62/162/79
f 59/21/81 60/148/83 64/153/84 63/98/82
f 164/214/85 165/215/86 66/28/87 65/70/88
f 165/216/86 166/217/89 67/92/90 66/189/87
f 166/217/89 167/218/91 68/154/92 67/92/90
s 7
f 65/195/93 66/196/94 70/197/95 69/198/96
f 66/196/94 67/199/97 71/190/98 70/197/95
f 67/199/97 68/192/99 72/175/100 71/190/98
f 69/198/96 70/197/95 74/183/101 73/178/102
f 70/197/95 71/190/98 75/14/103 74/183/101
f 71/190/98 72/175/100 76/169/104 75/14/103
f 73/178/102 74/183/101 78/194/105 77/171/106
f 74/183/101 75/14/103 79/104/107 78/194/105
f 75/14/103 76/169/104 80/160/108 79/104/107
f 77/171/106 78/194/105 82/99/109 81/83/110
f 78/194/105 79/104/107 83/115/111 82/99/109
f 79/104/107 80/160/108 84/185/112 83/115/111
f 81/83/110 82/99/109 86/103/113 85/193/114
f 82/99/109 83/115/111 87/158/115 86/103/113
f 83/115/111 84/185/112 88/187/116 87/158/115
f 85/193/114 86/103/113 90/191/117 89/188/118
f 86/103/113 87/158/115 91/186/119 90/191/117
f 87/158/115 88/187/116 92/176/120 91/186/119
f 89/188/118 90/191/117 94/164/121 93/86/122
f 90/191/117 91/186/119 95/161/123 94/164/121
f 91/186/119 92/176/120 96/167/124 95/161/123
f 93/86/122 94/164/121 98/88/125 97/172/126
f 94/164/121 95/161/123 99/150/127 98/88/125
f 95/161/123 96/167/124 100/165/128 99/150/127
f 97/172/126 98/88/125 102/95/129 101/173/130
f 98/88/125 99/150/127 103/159/131 102/95/129
f 99/150/127 100/165/128 104/97/132 103/159/131
f 101/173/130 102/95/129 2/125/133 1/100/134
f 102/95/129 103/159/131 3/182/135 2/125/133
f 103/159/131 104/97/132 4/179/136 3/182/135
s 8
f 72/151/137 68/154/138 167/218/139 168/219/140
f 76/144/141 72/151/137 168/219/140 169/220/142
f 80/134/143 76/144/141 169/220/142 170/221/144
f 84/126/145 80/134/143 170/221/144 171/222/146
f 88/118/147 84/126/145 171/222/146 172/223/148
f 92/117/149 88/118/147 172/223/148 173/224/150
f 96/127/151 92/117/149 173/224/150 174/225/152
f 100/135/153 96/127/151 174/225/152 175/226/154
f 104/145/155 100/135/153 175/226/154 176/227/156
f 4/9/157 104/145/155 176/227/156 151/200/158
f 105/146/159 64/153/160 60/148/161 114/138/162
f 106/136/163 105/146/159 114/138/162 115/130/164
f 107/128/165 106/136/163 115/130/164 116/121/166
f 108/119/167 107/128/165 116/121/166 117/113/168
f 109/112/169 108/119/167 117/113/168 118/108/170
f 110/111/171 109/112/169 118/108/170 119/107/172
f 111/120/173 110/111/171 119/107/172 120/114/174
f 112/129/175 111/120/173 120/114/174 121/123/176
f 113/137/177 112/129/175 121/123/176 122/132/178
f 8/10/179 113/137/177 122/132/178 12/12/180
f 114/138/162 60/148/161 56/149/181 52/139/182
f 115/130/164 114/138/162 52/139/182 48/131/183
f 116/121/166 115/130/164 48/131/183 44/122/184
f 117/113/168 116/121/166 44/122/184 40/109/185
f 118/108/170 117/113/168 40/109/185 36/105/186
f 119/107/172 118/108/170 36/105/186 32/102/187
f 120/114/174 119/107/172 32/102/187 28/82/188
f 121/123/176 120/114/174 28/82/188 24/79/189
f 122/132/178 121/123/176 24/79/189 20/76/190
f 12/12/180 122/132/178 20/76/190 16/20/191
s 9
f 65/70/192 69/68/193 163/213/194 164/214/195
f 69/68/193 73/64/196 162/212/197 163/213/194
f 73/64/196 77/60/198 161/211/199 162/212/197
f 77/60/198 81/54/200 160/210/201 161/211/199
f 81/54/200 85/50/202 159/209/203 160/210/201
f 85/50/202 89/46/204 158/208/205 159/209/203
f 89/46/204 93/42/206 157/207/207 158/208/205
f 93/42/206 97/41/208 156/206/209 157/207/207
f 97/41/208 101/36/210 155/205/211 156/206/209
f 101/36/210 1/1/212 154/204/213 155/205/211
f 61/69/214 123/65/215 132/62/216 57/66/217
f 123/65/215 124/61/218 133/58/219 132/62/216
f 124/61/218 125/55/220 134/52/221 133/58/219
f 125/55/220 126/51/222 135/48/223 134/52/221
f 126/51/222 127/47/224 136/44/225 135/48/223
f 127/47/224 128/43/226 137/39/227 136/44/225
f 128/43/226 129/38/228 138/34/229 137/39/227
f 129/38/228 130/35/230 139/31/231 138/34/229
f 130/35/230 131/32/232 140/27/233 139/31/231
f 131/32/232 5/4/234 9/8/235 140/27/233
f 57/66/217 132/62/216 49/63/236 53/67/237
f 132/62/216 133/58/219 45/59/238 49/63/236
f 133/58/219 134/52/221 41/53/239 45/59/238
f 134/52/221 135/48/223 37/49/240 41/53/239
f 135/48/223 136/44/225 33/45/241 37/49/240
f 136/44/225 137/39/227 29/40/242 33/45/241
f 137/39/227 138/34/229 25/30/243 29/40/242
f 138/34/229 139/31/231 21/26/244 25/30/243
f 139/31/231 140/27/233 17/24/245 21/26/244
f 140/27/233 9/8/235 13/16/246 17/24/245
s 10
f 37/49/247 38/56/248 141/57/249 41/53/250
f 38/110/248 39/116/251 142/106/252 141/89/249
f 39/116/251 40/109/253 44/122/254 142/106/252
f 143/84/255 40/109/253 39/116/251
f 144/93/256 143/84/255 39/116/251 38/110/248
f 37/49/247 144/101/256 38/56/248
s 3
f 145/87/257 28/82/258 32/102/45 31/75/43
f 146/85/259 145/87/257 31/75/43 30/133/40
f 25/30/260 146/94/259 30/90/40 29/40/39
s 11
f 147/18/261 16/20/262 15/72/263
f 148/15/264 147/18/261 15/72/263 14/71/265
f 13/16/266 148/77/264 14/22/265
s 6
f 149/13/267 60/148/83 59/21/81
f 150/177/268 149/13/267 59/21/81 58/166/78
f 57/66/77 150/33/268 58/184/78
s 1
f 152/201/6 151/200/8 8/10/15 7/6/13
f 153/203/3 152/201/6 7/6/13 6/3/10
f 154/204/4 153/202/3 6/156/10 5/4/9
s 9
f 155/205/211 154/204/213 5/4/234 131/32/232
f 156/206/209 155/205/211 131/32/232 130/35/230
f 157/207/207 156/206/209 130/35/230 129/38/228
f 158/208/205 157/207/207 129/38/228 128/43/226
f 159/209/203 158/208/205 128/43/226 127/47/224
f 160/210/201 159/209/203 127/47/224 126/51/222
f 161/211/199 160/210/201 126/51/222 125/55/220
f 162/212/197 161/211/199 125/55/220 124/61/218
f 163/213/194 162/212/197 124/61/218 123/65/215
f 164/214/195 163/213/194 123/65/215 61/69/214
s 6
f 61/69/80 62/155/79 165/215/86 164/214/85
f 62/162/79 63/98/82 166/217/89 165/216/86
f 63/98/82 64/153/84 167/218/91 166/217/89
s 8
f 168/219/140 167/218/139 64/153/160 105/146/159
f 169/220/142 168/219/140 105/146/159 106/136/163
f 170/221/144 169/220/142 106/136/163 107/128/165
f 171/222/146 170/221/144 107/128/165 108/119/167
f 172/223/148 171/222/146 108/119/167 109/112/169
f 173/224/150 172/223/148 109/112/169 110/111/171
f 174/225/152 173/224/150 110/111/171 111/120/173
f 175/226/154 174/225/152 111/120/173 112/129/175
f 176/227/156 175/226/154 112/129/175 113/137/177
f 151/200/158 176/227/156 113/137/177 8/10/179
s off
f 177/228/269 178/229/270 180/230/271 179/231/272
s 12
f 179/231/273 180/230/274 182/232/275 181/233/276
f 181/233/276 182/232/275 184/234/277 183/235/278
s off
f 183/235/279 184/234/280 186/236/281 185/237/282
s 13
f 185/238/283 186/239/284 188/240/285 187/241/286
f 187/241/286 188/240/285 178/242/287 177/243/288
s 14
f 188/244/289 186/236/290 184/234/291 182/232/292
f 178/229/293 188/244/289 182/232/292 180/230/294
s 15
f 185/237/295 187/245/296 181/233/297 183/235/298
f 187/245/296 177/228/299 179/231/300 181/233/297
