# Blender v3.2.0 OBJ File: 'stalker rips 2.blend'
# www.blender.org
mtllib warehouse_small_1_col.mtl
o wall_col_Mesh.721
v 4.673531 -0.059166 -5.819189
v -0.178117 -0.059166 -5.819189
v -5.030640 -0.059166 2.624796
v -5.030640 -0.059166 -1.878661
v -7.304727 -0.059166 -1.878661
v -7.304727 -0.059166 2.624796
v -5.030640 -0.059166 -5.819189
v -4.313692 -0.059166 5.860737
v 4.673531 -0.059166 3.937119
v -4.313692 -0.059166 3.940428
v -5.030640 -0.059166 3.940428
v 4.157290 -0.059166 5.860737
v 4.157290 -0.059166 3.937119
v 4.362904 3.688908 3.587313
v -4.665090 3.688908 -1.499286
v -4.665090 3.688908 -5.493529
v 4.362904 3.688908 -5.493529
v -4.342677 3.688908 3.590667
v -4.665090 3.688908 3.590667
v -4.665090 3.688908 2.257101
v -5.030640 3.688908 -1.878661
v -5.030640 3.688908 -5.819189
v 4.673531 3.688908 -5.819189
v -4.313692 3.688908 3.940428
v -5.030640 3.688908 3.940428
v -5.030640 3.688908 2.624796
v 4.673531 3.688908 3.937119
v 4.157290 3.688908 3.937119
v 4.362904 0.203610 3.587313
v -0.150649 0.203610 -5.493529
v -4.665090 0.203610 -1.499286
v -4.665090 0.203610 2.257101
v -4.342677 0.203610 3.590667
v -4.665090 0.203610 -5.493529
v 4.362904 0.203610 -5.493529
v -4.665090 0.203610 3.590667
v 4.157290 0.180986 5.860737
v 4.157290 0.180986 3.937119
v -4.313692 0.180986 3.940428
v -4.313692 0.180986 5.860737
v -7.304727 0.180150 -1.878661
v -5.030640 0.180150 -1.878661
v -7.304727 0.180150 2.624796
v -5.030640 0.180150 2.624796
v -5.030640 2.829875 -1.878661
v -5.030640 2.829875 2.388417
v -5.030640 2.829875 -1.674598
v -5.030640 2.829875 2.624796
v -7.121105 2.071993 2.388417
v -5.030640 -0.059166 -1.674598
v -7.304727 2.071993 2.624796
v -5.030640 0.180150 -1.674598
v -7.121105 0.180150 -1.674598
v -5.030640 0.180150 2.388417
v -7.121105 0.180150 2.388417
v -7.121105 2.071993 -1.674598
v -7.304727 2.071993 -1.878661
v -7.304727 2.183102 -1.878661
v -5.030640 2.830708 -1.878661
v -7.304727 2.183102 2.624796
v -5.030640 2.830708 2.624796
v 2.511771 0.244421 3.588027
v 2.511771 1.805690 3.588027
v 3.608251 1.805690 3.587604
v 3.608251 0.244421 3.587604
v 2.511771 0.244421 3.937762
v 2.511771 1.805690 3.937762
v 3.608251 1.805690 3.937334
v 3.608251 0.244421 3.937334
v -7.121105 0.194568 -0.120374
v -7.121105 0.194567 1.375715
v -7.121105 1.626310 1.375715
v -7.121105 1.626310 -0.120372
v -7.304727 0.194567 1.376009
v -7.304727 0.194568 -0.120080
v -7.304727 1.626310 1.376009
v -7.304727 1.626310 -0.120077
v -5.030640 3.644363 -5.819189
v 4.673531 3.644363 -5.819189
v -5.030640 3.644363 3.940428
v -5.030640 3.970425 -5.819189
v 4.673531 3.644363 3.937119
v 4.157290 3.644363 3.937119
v 4.673531 3.970425 -5.819189
v -5.030640 3.970425 3.940428
v 4.673531 3.970425 3.937119
v 4.157290 3.970425 3.937119
v -2.251602 3.894799 -2.785682
v 4.093974 3.894799 -2.785682
v -2.251602 3.894799 3.529540
v -2.251602 4.549739 -2.785682
v 4.093974 3.894799 3.526232
v 4.093974 4.549739 -2.785682
v -2.251602 4.549739 3.529540
v 4.093974 4.549739 3.526232
vt 0.055394 0.174964
vt 0.055394 0.174964
vt 0.034688 0.174929
vt 0.034688 0.174929
vt 0.035048 0.175063
vt 0.035048 0.175063
vt 0.014293 0.175028
vt 0.014293 0.175028
vt 0.061301 0.174858
vt 0.061301 0.174858
vt 0.041172 0.174835
vt 0.041172 0.174835
vt 0.078726 0.174925
vt 0.078726 0.174925
vt 0.058715 0.174919
vt 0.058715 0.174918
vt 0.078726 0.174925
vt 0.058715 0.174918
vt 0.061301 0.174858
vt 0.041172 0.174835
vt 0.056957 0.174918
vt 0.056957 0.174918
vt 0.062792 0.174863
vt 0.062792 0.174863
vt 0.058575 0.174903
vt 0.060514 0.174884
vt 0.058575 0.174903
vt 0.056957 0.174918
vt 0.062792 0.174863
vt 0.057608 0.174918
vt 0.078162 0.174925
vt 0.041736 0.174835
vt 0.062144 0.174862
vt 0.041172 0.174835
vt 0.078726 0.174925
vt 0.057276 0.174918
vt 0.062475 0.174862
vt 0.059432 0.174902
vt 0.059432 0.174902
vt 0.000000 0.000000
vt 0.000000 0.000000
vt 0.000000 0.000000
vt 0.000000 0.000000
vt 0.000000 0.000000
vt 0.000000 0.000000
vt 0.000000 0.000000
vt 0.000000 0.000000
vt 0.000000 0.000000
vt 0.000000 0.000000
vt 0.000000 0.000000
vt 0.000000 0.000000
vt 0.000000 0.000000
vt 0.000000 0.000000
vt 0.000000 0.000000
vt 0.000000 0.000000
vt 0.000000 0.000000
vt 0.000000 0.000000
vt 0.060514 0.174884
vt 0.061184 0.174861
vt 0.058851 0.174915
vt 0.040224 0.175058
vt 0.034496 0.175057
vt 0.009822 0.174742
vt 0.036181 0.174928
vt 0.098843 0.174836
vt 0.099939 0.174832
vt 0.035187 0.174928
vt 0.010211 0.174741
vt 0.033861 0.175058
vt 0.081949 0.175060
vt 0.039972 0.175054
vt 0.009671 0.174739
vt 0.041237 0.174931
vt 0.033322 0.174930
vt 0.092959 0.174931
vt 0.064490 0.174835
vt 0.100402 0.174835
vt 0.036490 0.174929
vt 0.075920 0.175040
vt 0.075920 0.175040
vt 0.037635 0.175047
vt 0.037635 0.175047
vt 0.053212 0.174931
vt 0.053212 0.174931
vt 0.113662 0.174932
vt 0.113662 0.174932
vt 0.086700 0.174841
vt 0.086700 0.174841
vt 0.061998 0.174829
vt 0.061998 0.174829
vt 0.056771 0.174931
vt 0.056771 0.174931
vt 0.083902 0.175069
vt 0.083902 0.175069
vt 0.041925 0.175062
vt 0.041925 0.175063
vt 0.081949 0.175060
vt 0.064490 0.174835
vt 0.062125 0.174829
vt 0.109677 0.174830
vt 0.109677 0.174830
vt 0.066087 0.174838
vt 0.066087 0.174838
vt 0.039912 0.175062
vt 0.039912 0.175062
vt 0.034185 0.175061
vt 0.034185 0.175061
vt 0.031884 0.174930
vt 0.031884 0.174930
vt 0.091521 0.174931
vt 0.091521 0.174931
vt 0.035502 0.174931
vt 0.035502 0.174931
vt 0.027587 0.174930
vt 0.027587 0.174930
vt 0.100402 0.174835
vt 0.035009 0.175054
vt 0.034965 0.175037
vt 0.033322 0.174930
vt 0.041237 0.174931
vt 0.039972 0.175054
vt 0.035416 0.175047
vt 0.034496 0.175057
vt 0.040224 0.175058
vt 0.092959 0.174931
vt 0.034319 0.174918
vt 0.035187 0.174928
vt 0.033861 0.175058
vt 0.032975 0.175050
vt 0.039373 0.174922
vt 0.081318 0.174829
vt 0.061158 0.174904
vt 0.034334 0.174918
vt 0.032990 0.175050
vt 0.008254 0.174743
vt 0.009176 0.174747
vt 0.037855 0.175051
vt 0.007915 0.174744
vt 0.062855 0.174828
vt 0.086004 0.174842
vt 0.040252 0.174923
vt 0.033092 0.175039
vt 0.033092 0.175039
vt 0.033261 0.175022
vt 0.033261 0.175022
vt 0.033861 0.175058
vt 0.035187 0.174928
vt 0.034582 0.175035
vt 0.034528 0.175052
vt 0.077038 0.174917
vt 0.075769 0.174922
vt 0.075769 0.174922
vt 0.077038 0.174917
vt 0.058748 0.174915
vt 0.076755 0.174921
vt 0.075769 0.174922
vt 0.042874 0.174839
vt 0.061184 0.174861
vt 0.058851 0.174915
vt 0.076755 0.174921
vt 0.098843 0.174836
vt 0.099939 0.174832
vt 0.042874 0.174839
vt 0.061294 0.174861
vt 0.061410 0.174858
vt 0.098843 0.174836
vt 0.099939 0.174832
vt 0.082291 0.175060
vt 0.082291 0.175060
vt 0.010013 0.174739
vt 0.940936 0.762921
vt 0.974555 0.762921
vt 0.974555 0.762921
vt 0.940936 0.762921
vt 0.974555 0.729334
vt 0.974555 0.729334
vt 0.940936 0.729334
vt 0.940936 0.729334
vt 0.060291 0.174882
vt 0.060291 0.174882
vt 0.058615 0.174918
vt 0.009092 0.174746
vt 0.062125 0.174829
vt 0.063766 0.174835
vt 0.063766 0.174835
vn -1.0000 0.0000 0.0000
vn 1.0000 0.0000 0.0000
vn 0.0000 0.0000 1.0000
vn 0.0000 0.0000 -1.0000
vn 0.3162 -0.9487 0.0000
vn 0.2365 0.8549 -0.4617
vn -0.5657 0.8138 -0.1330
vn -0.2739 0.9618 0.0000
vn 0.3972 0.7134 0.5773
vn -0.0016 0.0000 -1.0000
vn 0.0000 1.0000 0.0000
vn 0.0004 0.0000 1.0000
vn 0.0000 -1.0000 0.0000
vn 0.0005 0.0000 1.0000
vn -0.1897 -0.5252 -0.8296
vn -0.2207 -0.9516 0.2141
vn 0.6272 -0.6857 -0.3693
vn 0.7099 -0.4844 0.5113
vn 0.5774 -0.5774 0.5774
vn 0.3353 -0.6662 0.6661
vn 0.4457 -0.8952 0.0013
vn -0.3493 -0.6625 0.6626
vn -0.5136 -0.7890 0.3373
vn -0.7406 -0.4230 0.5221
vn -0.3492 -0.6625 0.6626
vn 0.5774 -0.5774 -0.5774
vn -0.5774 -0.5774 0.5774
vn -0.7314 -0.4097 -0.5451
vn -0.4458 0.8951 0.0000
vn -0.9347 -0.2513 -0.2514
vn 0.7405 0.4230 -0.5222
vn 0.3492 0.6625 -0.6627
vn -0.3015 0.9045 0.3015
vn -0.5774 0.5774 0.5774
vn -0.3435 0.7403 -0.5779
vn -0.1164 0.9899 -0.0814
vn 0.3015 0.9045 -0.3015
vn 0.5774 0.5774 -0.5774
vn -0.1910 0.7590 -0.6224
vn -0.6648 -0.2293 -0.7109
vn 0.3184 0.8369 -0.4453
vn -0.1706 0.7838 0.5971
vn -0.3218 0.8904 -0.3218
vn -0.2558 -0.7674 0.5879
vn -0.0001 0.7072 -0.7071
vn -0.0001 0.7071 -0.7072
vn 0.5774 0.5774 0.5774
vn 0.9047 -0.3014 0.3013
vn -0.6842 0.6013 -0.4126
vn 0.9347 0.2513 0.2513
vn 0.2144 0.6941 0.6872
vn -0.9236 -0.0433 -0.3810
vn 0.1061 0.8504 0.5154
vn -0.3012 0.3016 0.9046
vn 0.3018 0.3014 0.9045
vn -0.4476 0.6254 0.6392
vn -0.3018 -0.3014 -0.9045
vn -0.3018 0.3014 -0.9045
vn 0.3012 -0.3016 -0.9046
vn 0.3012 0.3016 -0.9046
vn 0.2420 0.9651 -0.1003
vn -0.2400 0.9657 -0.0993
vn 0.5773 0.5774 -0.5774
vn -0.5774 0.5774 -0.5773
vn -0.0999 -0.2421 0.9651
vn 0.0998 -0.2399 0.9657
vn 0.3018 -0.3014 0.9045
vn -0.3012 -0.3016 0.9046
vn -0.8913 -0.4509 0.0473
vn -0.9376 -0.2458 -0.2458
vn -0.4539 -0.8823 -0.1245
vn -0.6147 -0.5401 0.5749
vn -0.7315 -0.4097 -0.5451
vn 0.7787 0.2599 0.5710
vn 0.8778 0.4739 0.0696
vn 0.2991 0.7170 -0.6296
vn 0.8913 0.4509 -0.0473
vn -0.7787 -0.2599 -0.5710
vn -0.9396 -0.2419 0.2420
vn -0.3158 -0.6894 -0.6519
vn -0.4530 -0.8793 0.1467
vn 0.9486 0.3165 0.0000
vn 0.9486 -0.3165 -0.0000
vn 0.2207 0.9516 -0.2141
vn 0.6148 0.5400 -0.5748
vn 0.3159 0.6894 0.6519
vn 0.1897 0.5251 0.8296
vn 0.9047 -0.3011 0.3014
vn 0.0011 -0.7075 0.7067
vn 0.0008 0.7072 0.7070
vn 0.9047 0.3011 0.3014
vn -0.9047 0.3011 -0.3015
vn -0.0011 0.7075 -0.7067
vn -0.9486 0.3165 0.0000
vn 0.5136 0.7890 -0.3373
vn 0.7315 0.4097 0.5451
usemtl None
s off
f 8/1/1 40/2/1 39/3/1 10/4/1
f 13/5/2 38/6/2 37/7/2 12/8/2
f 12/8/3 37/7/3 40/2/3 8/1/3
f 5/9/4 41/10/4 42/11/4 4/12/4
f 44/13/3 48/14/3 51/15/3 43/16/3
f 3/17/3 44/13/3 43/16/3 6/18/3
f 41/10/4 57/19/4 45/20/4 42/11/4
f 6/21/1 43/22/1 41/23/1 5/24/1
f 43/22/1 74/25/1 75/26/1 41/23/1
f 76/27/1 74/25/1 43/22/1 51/28/1
f 51/28/5 57/29/5 45/20/5 48/14/5
f 60/30/6 61/31/7 59/32/8 58/33/9
f 45/20/2 59/34/2 61/35/2 48/14/2
f 48/14/3 61/35/3 60/36/3 51/28/3
f 51/28/1 60/36/1 58/37/1 57/29/1
f 57/29/4 58/37/4 59/34/4 45/20/4
f 76/27/10 72/38/10 71/39/10 74/25/10
f 84/40/11 87/41/11 86/42/11
f 83/43/12 87/41/12 85/44/12 80/45/12
f 78/46/4 81/47/4 84/40/4 79/48/4
f 82/49/3 86/42/3 87/41/3 83/43/3
f 79/48/2 84/40/2 86/42/2 82/49/2
f 80/45/1 85/44/1 81/47/1 78/46/1
f 92/50/13 90/51/13 88/52/13 89/53/13
f 95/54/11 93/55/11 91/56/11 94/57/11
f 88/52/4 91/56/4 93/55/4 89/53/4
f 89/53/2 93/55/2 95/54/2 92/50/2
f 90/51/1 94/57/1 91/56/1 88/52/1
f 92/50/14 95/54/14 94/57/14 90/51/14
f 78/46/13 79/48/13 83/43/13 80/45/13
f 77/58/1 57/29/1 41/23/1 75/26/1
f 83/43/13 79/48/13 82/49/13
f 51/28/1 57/29/1 77/58/1 76/27/1
f 81/47/11 85/44/11 87/41/11 84/40/11
s 1
f 56/59/15 49/60/16 51/28/17 57/29/18
f 9/61/19 13/62/20 2/63/21
f 10/64/22 50/65/23 4/66/24
f 10/67/25 2/68/21 13/69/20
f 1/70/26 9/71/19 2/72/21
f 10/73/22 11/74/27 3/75/28
f 2/63/29 7/76/30 4/77/31 10/78/32
f 17/79/33 35/80/34 29/81/35 14/82/36
f 19/83/37 36/84/38 32/85/39 20/86/40
f 15/87/41 31/88/42 34/89/43 16/90/44
f 18/91/45 33/92/46 36/84/38 19/83/37
f 1/93/26 23/94/38 27/95/47 9/96/19
f 23/97/38 22/98/48 16/99/44 17/79/33
f 4/100/24 21/101/49 22/102/48 7/103/50
f 9/104/19 27/105/47 28/106/51 13/107/20
f 11/108/27 25/109/34 26/110/52 3/111/28
f 10/112/22 24/113/53 25/114/34 11/115/27
f 16/90/44 22/98/48 21/116/49 15/87/41
f 38/6/12 69/117/54 66/118/55 39/3/12
f 19/83/37 25/119/34 24/120/53 18/91/45
f 14/82/36 27/121/47 23/97/38 17/79/33
f 14/122/36 28/123/51 27/124/47
f 20/86/40 26/125/52 25/119/34 19/83/37
f 18/126/45 24/127/53 28/128/51 14/129/36
f 26/125/52 20/86/40 32/85/39 3/111/28
f 33/130/46 31/131/42 32/132/39
f 33/133/46 29/134/35 30/135/56
f 35/80/34 30/136/56 29/137/35
f 33/92/46 32/85/39 36/84/38
f 30/138/56 34/139/43 31/140/42 33/141/46
f 64/142/57 14/129/36 29/134/35 65/143/58
f 33/133/46 63/144/59 62/145/60
f 38/6/61 39/3/62 40/2/63 37/7/64
f 10/67/25 13/69/20 38/146/65 39/147/66
f 39/3/12 66/118/55 67/148/67
f 69/117/54 38/6/12 28/128/51 68/149/68
f 21/116/49 4/100/24 31/88/42 15/87/41
f 54/150/69 44/151/70 48/152/71 46/153/72
f 49/154/16 46/155/72 48/14/71
f 3/156/73 44/151/70 54/150/69
f 52/157/74 53/158/75 55/159/76 54/160/77
f 4/66/24 50/65/23 52/161/78 42/162/79
f 47/163/80 56/164/15 57/165/18
f 42/162/79 52/161/78 47/166/80 45/167/81
f 71/39/82 72/38/83 49/60/84 55/159/76
f 55/159/76 49/60/84 46/155/85 54/160/77
f 45/20/81 47/163/80 57/165/18
f 52/157/74 47/163/86 56/59/87 53/158/75
f 23/168/38 1/169/26 2/170/21
f 63/171/59 64/172/57 68/173/68 67/174/67
f 69/175/54 65/176/58 62/177/60 66/178/55
f 68/173/68 64/172/57 65/176/58 69/175/54
f 62/177/60 63/171/59 67/174/67 66/178/55
f 73/179/88 77/58/89 75/26/90 70/180/91
f 70/180/91 75/26/90 74/25/11 71/39/82
f 73/179/92 77/58/93 76/27/11 72/38/94
f 51/181/17 49/154/16 48/14/71
f 10/64/22 3/156/28 50/65/23
f 67/148/67 68/149/68 28/128/51
f 30/182/56 35/80/34 17/79/33
f 30/182/56 17/79/33 16/99/44 34/183/43
f 29/134/35 33/133/46 62/145/60 65/143/58
f 50/65/95 52/161/74 54/150/77 3/156/96
f 14/129/36 64/142/57 63/144/59
f 18/126/45 14/129/36 63/144/59 33/133/46
f 55/159/76 53/158/75 70/180/91 71/39/82
f 22/184/48 23/168/38 2/170/21 7/185/50
f 24/127/53 39/3/12 67/148/67 28/128/51
f 56/59/87 73/179/88 70/180/91 53/158/75
f 49/60/84 72/38/83 73/179/88 56/59/87
