# Blender v2.76 (sub 0) OBJ File: ''
# www.blender.org
mtllib destroy_wall11.mtl
o pCube232.210_pCube232.246
v -1.532661 3.071887 -0.566652
v -1.722176 3.083381 -0.566652
v -1.834068 2.852118 -0.422602
v -2.092140 3.896901 -0.566652
v -0.797478 2.466490 -0.566652
v -1.122124 2.466490 -0.566652
v -2.060936 1.927341 0.000002
v -0.944389 2.214525 0.000002
v 0.006691 1.497244 0.000002
v 1.410957 1.192799 0.000002
v 1.452904 1.515507 -0.566652
v -0.000008 1.984044 -0.566652
v 3.999992 2.532099 0.000002
v 4.170830 2.778089 0.000002
v 4.357079 2.878805 -0.229868
v 4.009071 2.132389 -0.566652
v 3.070259 1.593241 0.000002
v 4.927280 3.257429 -0.256567
v 5.225117 3.776705 0.000004
v 5.855961 4.165334 0.000004
v 5.961628 4.165334 -0.116209
v 5.329350 3.099295 -0.566650
v 4.575554 2.915169 -0.376822
v 4.550789 2.914871 -0.365908
v 4.628456 2.598933 0.000002
v 5.176029 3.171788 0.000004
v 4.897068 3.207185 -0.283880
v 7.712635 4.165333 -0.566650
v 7.056965 4.165334 0.000004
v 7.064701 4.153385 0.000004
v 7.936970 3.819134 -0.566650
v 7.999989 3.637619 0.000004
v 7.999989 3.784379 -0.566650
v -7.999992 4.165333 -0.000002
v -7.999992 0.040412 -0.000002
v -3.999992 0.040412 0.000002
v -3.999992 4.165333 0.000002
v -7.999992 4.165334 -0.566656
v -3.999992 4.165333 -0.566652
v -3.999992 0.040412 -0.566652
v -7.999992 0.040412 -0.566656
v 7.999989 0.040412 -0.566652
v 3.999992 0.040412 -0.566652
v 3.999992 2.130197 -0.566652
v 4.526756 2.655153 -0.566652
v 5.996403 4.165333 -0.566650
v 3.999992 0.040412 0.000002
v 7.999989 0.040412 0.000002
v -0.000008 0.040412 -0.566652
v -2.421013 4.165333 -0.566652
v -3.228249 3.648705 0.000002
v -2.954948 4.165333 0.000002
v -0.000008 0.040412 0.000002
v -2.475502 4.165333 -0.542982
v 2.377632 1.738670 -0.566652
v 2.835686 1.536628 0.000002
vt 0.453529 1.733320
vt 0.458495 1.717737
vt 0.473932 1.710550
vt 0.434789 1.979775
vt 0.448248 1.979776
vt 0.458195 1.891037
vt 0.384079 1.716989
vt 0.364389 1.724867
vt 0.244295 1.724868
vt 0.341058 1.686149
vt 0.452266 1.782431
vt 0.469553 1.756517
vt 0.460731 1.715749
vt 0.422354 1.715749
vt 0.470313 1.826855
vt 0.469470 1.762899
vt 0.559380 1.612235
vt 0.478847 1.645868
vt 0.478976 1.644178
vt 0.563129 1.563251
vt 0.467140 1.490780
vt 0.393771 1.490780
vt 0.431210 1.533936
vt 0.469662 1.493688
vt 0.005418 1.147158
vt 0.005418 1.402369
vt 0.252900 1.402369
vt 0.252900 1.147158
vt 0.344944 1.399904
vt 0.038808 1.399904
vt 0.038808 1.356536
vt 0.344944 1.356536
vt 0.823168 1.043827
vt 0.823168 1.278159
vt 0.785796 1.278159
vt 0.785796 1.043827
vt 0.785796 1.065469
vt 0.823168 1.073806
vt 0.667304 1.533726
vt 0.749242 1.481656
vt 0.641934 1.481655
vt 0.389574 1.708299
vt 0.394691 1.601339
vt 0.427436 1.579313
vt 0.389957 1.627183
vt 0.496750 1.703228
vt 0.496750 1.628671
vt 0.725381 1.794452
vt 0.806537 1.916107
vt 0.826724 1.870140
vt 0.932288 1.855116
vt 0.934047 1.909806
vt 0.953853 1.927709
vt 0.982604 1.822793
vt 0.694889 1.810798
vt 0.696651 1.815847
vt 0.674585 1.783072
vt 0.672879 1.755755
vt 0.672879 1.783315
vt 0.514332 1.715749
vt 0.619035 1.715749
vt 0.618355 1.715264
vt 0.351068 1.969115
vt 0.345876 1.972353
vt 0.230799 1.972352
vt 0.353174 1.930521
vt 0.328388 1.825209
vt 0.359643 1.811907
vt 0.747863 1.402369
vt 0.747863 1.248207
vt 0.690340 1.306295
vt 0.675827 1.309798
vt 0.587678 1.331071
vt 0.500796 1.293797
vt 0.500381 1.402369
vt 0.647486 1.297297
vt 0.747863 1.273073
vt 0.500381 1.272545
vt 0.590273 1.311104
vt 0.219522 1.399904
vt 0.217030 1.358348
vt 0.212860 1.356536
vt 0.300648 1.179122
vt 0.354291 1.147158
vt 0.372871 1.285624
vt 0.500381 1.293615
vt 0.441952 1.267856
vt 0.359677 1.147158
vt 0.370940 1.163766
vt 0.393830 1.214099
vt 0.405555 1.214810
vt 0.430955 1.252267
vt 0.451042 1.251309
vt 0.194812 1.391010
vt 0.202899 1.399904
vt 0.110981 1.399904
vt 0.060800 1.356536
vt 0.192150 1.356536
vt 0.936999 1.147158
vt 0.862693 1.147158
vt 0.823662 1.171203
vt 0.937478 1.147897
vt 0.995345 1.179808
vt 0.814029 1.213371
vt 0.995345 1.402369
vt 0.780150 1.239174
vt 0.758432 1.232988
vt 0.814016 1.213115
vt 0.871382 1.147158
vt 0.977566 1.147158
vt 0.991446 1.168578
vt 0.995345 1.170728
vt 0.780454 1.240594
vt 0.748424 1.272938
vt 0.446250 1.695521
vt 0.423216 1.679803
vt 0.459676 1.713373
vt 0.733905 1.878528
vt 0.794963 1.923531
vt 0.982604 1.568247
vt 0.930969 1.756670
vt 0.921481 1.791293
vt 0.320618 1.509287
vt 0.320618 1.581726
vt 0.355349 1.532055
vn 0.031400 0.517500 0.855100
vn 0.536300 0.243900 0.808100
vn -0.175000 0.878100 0.445300
vn -0.600700 0.540300 0.589300
vn -0.707400 0.056200 0.704600
vn 0.602100 0.390100 0.696700
vn 0.470900 0.854000 0.221200
vn -0.000000 0.000000 1.000000
vn 0.000000 0.000000 -1.000000
vn 0.000000 1.000000 0.000000
vn -1.000000 0.000000 0.000000
vn 1.000000 0.000000 0.000000
vn 0.696800 -0.368600 0.615300
vn 0.536200 0.710900 0.455100
vn -0.206700 0.856700 0.472600
vn -0.845900 0.529300 -0.065300
vn -0.548000 0.542700 -0.636500
vn -0.329900 0.596200 -0.731900
vn -0.329700 0.596300 -0.732000
vn -0.206800 0.856700 0.472600
vn -0.020800 0.000000 -0.999800
vn 0.372000 0.358000 0.856400
vn 0.334100 0.409300 0.849100
vn 0.396300 0.220800 0.891200
vn 0.424700 0.288000 0.858300
vn 0.298300 0.202300 0.932800
vn 0.350000 0.317000 0.881500
vn 0.298200 0.761600 0.575300
vn 0.274700 0.755200 0.595200
vn 0.228000 0.810500 0.539600
vn -0.473400 0.768500 -0.430500
vn -0.405100 0.549100 -0.731000
vn -0.350300 0.568700 -0.744200
vn -0.633600 0.627400 -0.452700
vn -0.758500 0.526800 -0.383700
vn 0.124900 0.575900 0.807900
vn 0.340600 0.805900 0.484200
usemtl brokenWalls.011
s off
f 1/1/1 2/2/1 3/3/1
f 3/4/2 2/5/2 4/6/2
f 5/7/3 6/8/3 7/9/3 8/10/3
f 26/11/4 27/12/4 23/13/4 25/14/4
f 27/12/5 26/11/5 19/15/5 18/16/5
f 28/17/6 29/18/6 30/19/6 31/20/6
f 31/21/7 30/22/7 32/23/7 33/24/7
f 34/25/8 35/26/8 36/27/8 37/28/8
f 38/25/9 39/28/9 40/27/9 41/26/9
f 39/29/10 38/30/10 34/31/10 37/32/10
f 38/33/11 41/34/11 35/35/11 34/36/11
f 33/37/12 32/38/12 48/34/12 42/35/12
f 52/39/13 51/40/13 54/41/13
f 5/42/14 8/10/14 9/43/14
f 11/44/15 10/45/15 56/46/15 55/47/15
f 22/48/16 21/49/16 46/50/16
f 15/51/17 24/52/17 45/53/17 16/54/17
f 27/55/18 18/56/18 22/48/18
f 23/57/18 27/55/18 22/48/18
f 23/57/18 22/48/18 45/58/18
f 24/59/19 23/57/19 45/58/19
f 55/47/20 56/46/20 17/60/20
f 55/47/15 17/60/15 16/61/15
f 44/62/21 55/47/21 16/61/21
f 50/63/22 54/64/22 51/65/22
f 4/66/23 50/63/23 51/65/23
f 3/67/24 4/66/24 51/65/24
f 3/67/25 51/65/25 7/9/25
f 6/8/26 1/68/26 3/67/26
f 6/8/27 3/67/27 7/9/27
f 47/69/8 13/70/8 17/71/8
f 47/69/8 17/71/8 56/72/8
f 47/69/8 56/72/8 10/73/8
f 10/73/8 9/74/8 53/75/8
f 47/69/8 10/73/8 53/75/8
f 55/76/9 44/77/9 43/69/9
f 49/75/9 12/78/9 11/79/9
f 11/79/9 55/76/9 43/69/9
f 49/75/9 11/79/9 43/69/9
f 37/29/10 52/80/10 54/81/10
f 39/32/10 37/29/10 54/81/10
f 39/32/10 54/81/10 50/82/10
f 51/83/8 37/28/8 36/27/8
f 52/84/8 37/28/8 51/83/8
f 7/85/8 51/83/8 36/27/8
f 9/86/8 8/87/8 7/85/8
f 9/86/8 7/85/8 36/27/8
f 53/75/8 9/86/8 36/27/8
f 40/27/9 39/28/9 50/88/9
f 40/27/9 50/88/9 4/89/9
f 40/27/9 4/89/9 2/90/9
f 2/90/9 1/91/9 40/27/9
f 40/27/9 1/91/9 6/92/9
f 40/27/9 6/92/9 5/93/9
f 40/27/9 5/93/9 12/78/9
f 40/27/9 12/78/9 49/75/9
f 21/94/10 20/95/10 29/96/10
f 21/94/10 29/96/10 28/97/10
f 46/98/10 21/94/10 28/97/10
f 29/99/8 20/100/8 19/101/8
f 30/102/8 29/99/8 19/101/8
f 32/103/8 30/102/8 19/101/8
f 32/103/8 19/101/8 26/104/8
f 48/105/8 32/103/8 26/104/8
f 48/105/8 26/104/8 25/106/8
f 25/106/8 14/107/8 13/70/8
f 48/105/8 25/106/8 13/70/8
f 48/105/8 13/70/8 47/69/8
f 22/108/9 46/109/9 28/110/9
f 22/108/9 28/110/9 31/111/9
f 22/108/9 31/111/9 33/112/9
f 22/108/9 33/112/9 42/105/9
f 45/113/9 22/108/9 42/105/9
f 16/114/9 45/113/9 42/105/9
f 44/77/9 16/114/9 42/105/9
f 43/69/9 44/77/9 42/105/9
f 15/115/28 14/116/28 25/14/28
f 15/115/29 25/14/29 23/13/29
f 24/117/30 15/115/30 23/13/30
f 19/118/31 20/119/31 21/49/31
f 19/118/32 21/49/32 22/48/32
f 18/56/33 19/118/33 22/48/33
f 16/54/34 17/120/34 13/121/34
f 16/54/35 13/121/35 14/122/35
f 16/54/35 14/122/35 15/51/35
f 5/123/36 9/124/36 10/45/36
f 5/123/37 10/45/37 11/44/37
f 12/125/9 5/123/9 11/44/9
