# 3ds Max Wavefront OBJ Exporter v0.97b - (c)2007 guruware
# File Created: 10.04.2018 20:27:59

mtllib stairs2.mtl

#
# object Mesh_8247
#

v  4.5981 0.3720 1.8862
v  5.5901 0.3720 -1.8338
v  5.5901 0.3720 1.8862
v  4.5981 0.3720 -1.8338
v  5.5901 0.4960 1.8862
v  5.5901 0.4960 -1.8338
v  4.5981 0.4960 1.8862
v  4.1021 0.8680 1.8862
v  5.0941 0.8680 -1.8338
v  5.0941 0.8680 1.8862
v  4.1021 0.8680 -1.8338
v  4.1021 0.9920 1.8862
v  5.0941 0.9920 -1.8338
v  4.1021 0.9920 -1.8338
v  5.0941 0.9920 1.8862
v  3.6061 1.3640 1.8862
v  4.5981 1.3640 -1.8338
v  4.5981 1.3640 1.8862
v  3.6061 1.3640 -1.8338
v  3.6061 1.4880 1.8862
v  4.5981 1.4880 -1.8338
v  3.6061 1.4880 -1.8338
v  4.5981 1.4880 1.8862
v  3.1101 1.8600 1.8862
v  4.1021 1.8600 -1.8338
v  4.1021 1.8600 1.8862
v  3.1101 1.8600 -1.8338
v  3.1101 1.9840 1.8862
v  4.1021 1.9840 -1.8338
v  3.1101 1.9840 -1.8338
v  4.1021 1.9840 1.8862
v  2.6141 2.3560 1.8862
v  3.6061 2.3560 -1.8338
v  3.6061 2.3560 1.8862
v  2.6141 2.3560 -1.8338
v  2.6141 2.4800 1.8862
v  3.6061 2.4800 -1.8338
v  2.6141 2.4800 -1.8338
v  3.6061 2.4800 1.8862
v  2.1181 2.8520 1.8862
v  3.1101 2.8520 -1.8338
v  3.1101 2.8520 1.8862
v  2.1181 2.8520 -1.8338
v  2.1181 2.9760 1.8862
v  3.1101 2.9760 -1.8338
v  2.1181 2.9760 -1.8338
v  3.1101 2.9760 1.8862
v  1.6221 3.3480 1.8862
v  2.6141 3.3480 -1.8338
v  2.6141 3.3480 1.8862
v  1.6221 3.3480 -1.8338
v  1.6221 3.4720 1.8862
v  2.6141 3.4720 -1.8338
v  1.6221 3.4720 -1.8338
v  2.6141 3.4720 1.8862
v  1.1261 3.8440 1.8862
v  2.1181 3.8440 -1.8338
v  2.1181 3.8440 1.8862
v  1.1261 3.8440 -1.8338
v  1.1261 3.9680 1.8862
v  2.1181 3.9680 -1.8338
v  1.1261 3.9680 -1.8338
v  2.1181 3.9680 1.8862
v  0.6301 4.3400 1.8862
v  1.6221 4.3400 -1.8338
v  1.6221 4.3400 1.8862
v  0.6301 4.3400 -1.8338
v  0.6301 4.4640 1.8862
v  1.6221 4.4640 -1.8338
v  0.6301 4.4640 -1.8338
v  1.6221 4.4640 1.8862
v  0.1341 4.8360 1.8862
v  1.1261 4.8360 -1.8338
v  1.1261 4.8360 1.8862
v  0.1341 4.8360 -1.8338
v  0.1341 4.9600 1.8862
v  1.1261 4.9600 -1.8338
v  0.1341 4.9600 -1.8338
v  1.1261 4.9600 1.8862
v  -0.3619 5.3320 1.8862
v  0.6301 5.3320 -1.8338
v  0.6301 5.3320 1.8862
v  -0.3619 5.3320 -1.8338
v  -0.3619 5.4560 1.8862
v  0.6301 5.4560 -1.8338
v  -0.3619 5.4560 -1.8338
v  0.6301 5.4560 1.8862
v  -0.8579 5.8280 1.8862
v  0.1341 5.8280 -1.8338
v  0.1341 5.8280 1.8862
v  -0.8579 5.8280 -1.8338
v  -0.8579 5.9520 1.8862
v  0.1341 5.9520 -1.8338
v  -0.8579 5.9520 -1.8338
v  0.1341 5.9520 1.8862
v  -1.3539 6.3240 1.8862
v  -0.3619 6.3240 -1.8338
v  -0.3619 6.3240 1.8862
v  -1.3539 6.3240 -1.8338
v  -1.3539 6.4480 1.8862
v  -0.3619 6.4480 -1.8338
v  -1.3539 6.4480 -1.8338
v  -0.3619 6.4480 1.8862
v  -1.8499 6.8200 1.8862
v  -0.8579 6.8200 -1.8338
v  -0.8579 6.8200 1.8862
v  -1.8499 6.8200 -1.8338
v  -1.8499 6.9440 1.8862
v  -0.8579 6.9440 -1.8338
v  -1.8499 6.9440 -1.8338
v  -0.8579 6.9440 1.8862
v  -2.3459 7.3160 1.8862
v  -1.3539 7.3160 -1.8338
v  -1.3539 7.3160 1.8862
v  -2.3459 7.3160 -1.8338
v  -2.3459 7.4400 1.8862
v  -1.3539 7.4400 -1.8338
v  -2.3459 7.4400 -1.8338
v  -1.3539 7.4400 1.8862
v  4.5981 0.4960 -1.8338
v  -5.8316 7.9360 -1.9091
v  -5.8316 7.9360 -1.7232
v  -5.9060 7.9360 -1.8161
v  -5.7572 7.9360 -1.8161
v  -5.9060 9.9118 -1.8161
v  -5.8316 9.9118 -1.7232
v  -5.8316 9.9118 -1.9091
v  -5.7572 9.9117 -1.8161
v  -2.2812 9.7991 1.8863
v  -2.3322 9.9110 1.7623
v  -2.2111 9.8692 1.7623
v  -2.2111 9.8692 2.0103
v  -2.3322 9.8118 1.8863
v  -5.8226 9.9110 1.7623
v  -6.1888 10.0102 1.8831
v  -6.1888 9.9110 1.7591
v  -5.8226 10.0102 1.8863
v  -2.3322 10.0102 1.8863
v  -2.1409 9.9394 1.8863
v  -2.3322 9.9110 2.0103
v  -5.8226 9.8118 1.8863
v  -6.1888 9.9110 2.0071
v  -5.8226 9.9110 2.0103
v  -6.1888 9.8118 1.8831
v  -5.8324 9.2276 -1.7813
v  -2.2340 9.2276 -1.8587
v  -5.8324 9.2276 -1.8587
v  -2.2340 9.2276 -1.7813
v  -5.8324 9.1036 -1.8587
v  -2.2340 9.1036 -1.7813
v  -5.8324 9.1036 -1.7813
v  -2.2340 9.1036 -1.8587
v  -5.8226 7.9360 1.7933
v  -5.8226 7.9360 1.9792
v  -5.8970 7.9360 1.8863
v  -5.7482 7.9360 1.8863
v  6.1186 1.5395 1.7623
v  6.1186 1.5395 2.0103
v  6.0485 1.4693 1.8863
v  6.1888 1.6096 1.8863
v  -6.1888 9.9110 -1.6964
v  -6.1888 9.9110 -1.9444
v  -6.1888 9.8118 -1.8204
v  -6.1888 10.0102 -1.8204
v  -2.3367 9.8118 -1.8202
v  -5.8316 9.9110 -1.9439
v  -2.3367 9.9110 -1.9441
v  -5.8316 9.8118 -1.8199
v  -5.8316 9.9110 -1.6959
v  -2.3367 9.9110 -1.6962
v  -2.3367 10.0102 -1.8202
v  -5.8316 10.0102 -1.8199
v  -2.2111 9.8692 -1.6964
v  6.1888 1.6096 -1.8204
v  -2.1409 9.9394 -1.8204
v  6.1186 1.5395 -1.6964
v  -2.2812 9.7991 -1.8204
v  6.0485 1.4694 -1.8204
v  -2.2111 9.8692 -1.9444
v  6.1186 1.5395 -1.9444
v  -2.2257 9.8750 -1.9133
v  -2.3001 7.3122 -1.8204
v  -2.3001 9.9071 -1.8204
v  -2.2257 7.3122 -1.9133
v  -2.1513 9.7855 -1.8204
v  -2.1513 7.3122 -1.8204
v  -2.2257 9.8750 -1.7273
v  -2.2257 7.3122 -1.7273
v  1.6679 6.0065 -1.8204
v  1.7423 3.3442 -1.7273
v  1.7423 5.9121 -1.7273
v  1.6679 3.3442 -1.8204
v  1.7423 5.9121 -1.9133
v  1.7423 3.3442 -1.9133
v  1.8167 5.8175 -1.8204
v  1.8167 3.3442 -1.8204
v  5.7847 1.8495 -1.8204
v  5.7103 0.0000 -1.9133
v  5.7103 1.9458 -1.9133
v  5.7847 0.0000 -1.8204
v  5.7103 1.9458 -1.7273
v  5.7103 0.0000 -1.7273
v  5.6359 2.0377 -1.8204
v  5.6359 0.0000 -1.8204
v  -5.8226 9.9118 1.7933
v  -5.8970 9.9118 1.8863
v  -5.8226 9.9118 1.9792
v  -5.7482 9.9118 1.8863
v  -2.2257 9.8750 1.7933
v  -2.3001 7.3122 1.8863
v  -2.3001 9.9071 1.8863
v  -2.2257 7.3122 1.7933
v  -2.1513 9.7855 1.8863
v  -2.1513 7.3122 1.8863
v  -2.2257 9.8750 1.9792
v  -2.2257 7.3122 1.9792
v  1.6679 6.0065 1.8863
v  1.7423 3.3442 1.9792
v  1.7423 5.9121 1.9792
v  1.6679 3.3442 1.8863
v  1.7423 5.9121 1.7933
v  1.7423 3.3442 1.7933
v  1.8167 5.8175 1.8863
v  1.8167 3.3442 1.8863
v  5.6359 0.0000 1.8863
v  5.7103 1.9458 1.7933
v  5.7103 0.0000 1.7933
v  5.6359 2.0377 1.8863
v  5.7103 0.0000 1.9792
v  5.7103 1.9458 1.9792
v  5.7847 0.0000 1.8863
v  5.7847 1.8495 1.8863
v  3.8007 3.8335 1.8863
v  3.7263 1.3602 1.7933
v  3.7263 3.9278 1.7933
v  3.8007 1.3602 1.8863
v  3.7263 3.9278 1.9792
v  3.7263 1.3602 1.9792
v  3.6519 4.0199 1.8863
v  3.6519 1.3602 1.8863
v  -2.2181 8.8640 -1.7815
v  5.7104 1.0890 -1.7815
v  -2.2162 9.0296 -1.7815
v  5.7104 0.9181 -1.7815
v  5.7104 1.0890 -1.8590
v  -2.2162 9.0296 -1.8590
v  5.7104 0.9181 -1.8590
v  -2.2181 8.8640 -1.8590
v  -5.8228 9.2276 1.9223
v  -5.8234 9.2276 1.8475
v  -5.8228 9.2276 1.8448
v  -5.8234 9.2276 1.9250
v  -5.8228 9.1036 1.9223
v  -5.8228 9.1036 1.8448
v  -5.8234 9.1036 1.9250
v  -5.8234 9.1036 1.8475
v  -2.2250 9.1036 1.8475
v  -2.2250 9.2276 1.8475
v  -2.2250 9.2276 1.9250
v  -2.2250 9.1036 1.9250
v  -2.2181 8.8640 1.9250
v  5.7104 1.0890 1.9250
v  -2.2162 9.0296 1.9250
v  5.7104 0.9181 1.9250
v  5.7104 1.0890 1.8475
v  -2.2162 9.0296 1.8475
v  5.7104 0.9181 1.8475
v  -2.2181 8.8640 1.8475
v  -5.8228 9.1036 -1.7813
v  -5.8228 9.2276 -1.7813
v  -5.8228 9.1036 -1.8588
v  -5.8228 9.2276 -1.8588
v  -0.1673 7.8015 1.8863
v  -0.2417 5.3282 1.7933
v  -0.2417 7.8960 1.7933
v  -0.1673 5.3282 1.8863
v  -0.2417 7.8960 1.9792
v  -0.2417 5.3282 1.9792
v  -0.3161 7.9902 1.8863
v  -0.3161 5.3282 1.8863
v  -0.1673 7.8015 -1.8204
v  -0.2417 5.3282 -1.9133
v  -0.2417 7.8960 -1.9133
v  -0.1673 5.3282 -1.8204
v  -0.2417 7.8960 -1.7273
v  -0.2417 5.3282 -1.7273
v  -0.3161 7.9902 -1.8204
v  -0.3161 5.3282 -1.8204
v  3.8007 3.8335 -1.8204
v  3.7263 1.3602 -1.9133
v  3.7263 3.9278 -1.9133
v  3.8007 1.3602 -1.8204
v  3.7263 3.9278 -1.7273
v  3.7263 1.3602 -1.7273
v  3.6519 4.0199 -1.8204
v  3.6519 1.3602 -1.8204
v  -5.9406 7.9384 -2.0109
v  -5.9406 7.4424 -1.8559
v  -5.9406 7.9384 -1.8559
v  -5.9406 7.4424 -2.0109
v  -5.9406 7.4424 1.8559
v  -5.8166 7.4424 2.0109
v  -5.9406 7.4424 2.0109
v  -2.3477 7.4424 2.0109
v  -5.8166 7.4424 1.8559
v  -2.3477 7.4424 1.8559
v  -5.8166 7.4424 -1.8559
v  -5.8166 7.4424 -2.0109
v  -2.3477 7.4424 -1.8559
v  -2.3477 7.4424 -2.0109
v  5.0849 0.0007 2.0109
v  6.0880 0.4967 2.0109
v  5.0849 0.4967 2.0109
v  6.0880 0.0007 2.0109
v  6.0880 0.0007 -1.8559
v  6.0880 0.4967 -2.0109
v  6.0880 0.4967 -1.8559
v  6.0880 0.0007 -2.0109
v  5.0849 0.0007 1.8559
v  6.0880 0.0007 1.8559
v  5.0849 0.4967 1.8559
v  6.0880 0.4967 1.8559
v  -2.3477 7.9384 2.0109
v  -5.8166 7.9384 2.0109
v  -5.9406 7.9384 2.0109
v  -5.8166 7.9384 1.8559
v  -2.3477 7.9384 1.8559
v  -5.9406 7.9384 1.8559
v  -5.8166 7.9384 -1.8559
v  5.0849 0.0007 -2.0109
v  5.0849 0.0007 -1.8559
v  5.0849 0.4967 -2.0109
v  5.0849 0.4967 -1.8559
v  -2.3477 7.9384 -1.8559
v  -5.8166 7.9384 -2.0109
v  -2.3477 7.9384 -2.0109
v  -5.8179 7.8120 1.8862
v  -1.8499 7.8120 -1.8338
v  -1.8499 7.8120 1.8862
v  -5.8179 7.8120 -1.8338
v  -5.8179 7.9360 1.8862
v  -1.8499 7.9360 -1.8338
v  -5.8179 7.9360 -1.8338
v  -1.8499 7.9360 1.8862
# 344 vertices

vn 0.0000 -1.0000 -0.0000
vn 1.0000 0.0000 -0.0000
vn 0.0000 0.0000 1.0000
vn 0.0000 1.0000 -0.0000
vn -1.0000 0.0000 -0.0000
vn 0.0000 0.0000 -1.0000
vn -0.7809 0.0000 0.6247
vn -0.7809 0.0000 -0.6247
vn 0.7809 0.0000 -0.6247
vn 0.7808 0.0000 0.6247
vn -0.3787 -0.6835 -0.6241
vn -0.1166 -0.7809 -0.6136
vn -0.4295 -0.6603 -0.6161
vn -0.4219 -0.6595 0.6221
vn -0.1192 -0.7860 0.6066
vn -0.3679 -0.7049 0.6065
vn -0.1003 -0.7769 -0.6215
vn 0.0027 -0.7809 -0.6247
vn 0.0053 0.7809 -0.6247
vn 0.0027 0.7809 -0.6247
vn 0.0026 0.7809 -0.6247
vn 0.1393 0.7733 -0.6186
vn 0.1269 0.7769 -0.6167
vn 0.4069 0.6728 -0.6179
vn 0.4352 0.6553 -0.6174
vn 0.1459 0.7757 0.6140
vn 0.4314 0.6553 0.6200
vn 0.1297 0.7743 0.6194
vn 0.4033 0.6794 0.6130
vn -0.1221 -0.7750 0.6200
vn -0.0027 -0.7809 0.6247
vn 0.0026 -0.7809 -0.6247
vn 0.0053 -0.7809 -0.6247
vn -0.0053 0.7809 0.6247
vn -0.0027 0.7809 0.6247
vn -0.0026 0.7809 0.6247
vn -0.0026 -0.7809 0.6247
vn -0.0053 -0.7809 0.6247
vn 0.0007 1.0000 -0.0000
vn 0.0013 1.0000 -0.0000
vn 0.7071 -0.7071 -0.0000
vn 0.7076 -0.7066 -0.0000
vn 0.7066 -0.7076 -0.0000
vn -0.0931 -0.7775 -0.6220
vn 0.0003 -0.7809 -0.6247
vn -0.1123 -0.7821 -0.6130
vn -0.0003 -0.7809 0.6247
vn -0.0007 -0.7809 0.6247
vn 0.0007 -0.7809 -0.6247
vn 0.0007 0.7809 -0.6247
vn 0.0003 0.7809 -0.6247
vn -0.1177 -0.7754 0.6203
vn -0.1122 -0.7879 0.6055
vn 0.1275 0.7745 0.6196
vn -0.0003 0.7809 0.6247
vn 0.1424 0.7765 0.6138
vn 0.1338 0.7738 -0.6191
vn 0.1234 0.7777 -0.6164
vn -0.0007 0.7809 0.6247
vn 0.5521 0.5521 0.6247
vn -0.5521 -0.5521 0.6247
vn -0.5521 -0.5521 -0.6247
vn 0.5521 0.5521 -0.6247
vn 0.3994 0.6823 0.6124
vn 0.4291 0.6567 0.6202
vn -0.3590 -0.7108 0.6048
vn -0.5523 -0.5523 0.6244
vn -0.4172 -0.6620 0.6227
vn -0.4269 -0.6622 -0.6157
vn -0.5523 -0.5523 -0.6244
vn -0.3730 -0.6861 -0.6246
vn 0.4329 0.6571 -0.6171
vn 0.4030 0.6749 -0.6181
vn 0.7809 0.0000 0.6247
vn 0.7077 0.7065 -0.0000
vn -0.7079 -0.7063 -0.0000
vn 0.7069 -0.7074 -0.0000
vn -0.9940 0.0000 -0.1091
vn 0.9762 0.0000 0.2168
vn -0.9762 0.0000 -0.2168
vn -0.0103 0.0000 -0.9999
vn 0.0103 0.0000 0.9999
vn 0.7075 0.7067 -0.0000
vn -0.7075 -0.7067 -0.0000
# 84 vertex normals

vt 0.0000 0.0001 0.0000
vt 0.9997 0.6667 0.0000
vt 0.9997 0.0001 0.0000
vt 0.0000 0.6667 0.0000
vt 0.0283 0.6667 0.0000
vt 0.0700 0.0001 0.0000
vt 0.0283 0.0001 0.0000
vt 0.0700 0.6667 0.0000
vt 0.4998 0.8333 0.0000
vt 0.4998 0.7500 0.0000
vt 0.4998 0.7917 0.0000
vt 0.4998 0.9167 0.0000
vt 0.4998 0.8750 0.0000
vt 0.0003 0.7917 0.0000
vt 0.0002 0.7500 0.0000
vt 0.0002 0.8333 0.0000
vt 0.0003 0.8750 0.0000
vt 0.0002 0.9167 0.0000
vt 0.0362 0.8678 0.0000
vt 0.0492 0.8406 0.0000
vt 0.0184 0.8475 0.0000
vt 0.0184 0.8866 0.0000
vt 0.0492 0.8680 0.0000
vt 0.9375 0.8406 0.0000
vt 0.9816 0.9220 0.0000
vt 0.9375 0.9406 0.0000
vt 0.9634 0.9430 0.0000
vt 0.9375 0.9155 0.0000
vt 0.0492 0.9406 0.0000
vt 0.0492 0.9155 0.0000
vt 0.0184 0.9475 0.0000
vt 0.0005 0.9132 0.0000
vt 0.0492 0.8926 0.0000
vt 0.9375 0.8680 0.0000
vt 0.9638 0.8407 0.0000
vt 0.9995 0.8947 0.0000
vt 0.9375 0.8926 0.0000
vt 0.9816 0.8607 0.0000
vt 0.0338 0.7544 0.0000
vt 0.9995 0.7456 0.0000
vt 0.0338 0.7456 0.0000
vt 0.9995 0.7544 0.0000
vt 0.0005 0.7544 0.0000
vt 0.9662 0.7456 0.0000
vt 0.0005 0.7456 0.0000
vt 0.9662 0.7544 0.0000
vt 0.9069 0.8753 0.0000
vt 0.9069 0.9580 0.0000
vt 0.9262 0.8813 0.0000
vt 0.8876 0.8813 0.0000
vt 0.5000 0.7500 0.0000
vt 0.0000 0.7500 0.0000
vt 0.0000 1.0000 0.0000
vt 0.0000 0.8333 0.0000
vt 0.0000 0.9167 0.0000
vt 0.0005 0.8333 0.0000
vt 0.9069 0.7917 0.0000
vt 0.0005 0.7917 0.0000
vt 0.9069 0.8334 0.0000
vt 0.9069 0.8750 0.0000
vt 0.9995 0.8333 0.0000
vt 0.9995 0.7917 0.0000
vt 0.9995 0.7500 0.0000
vt 0.0005 0.8750 0.0000
vt 0.0005 0.9167 0.0000
vt 0.9069 0.9166 0.0000
vt 0.0005 0.9583 0.0000
vt 0.9069 0.9583 0.0000
vt 0.9995 0.9167 0.0000
vt 0.9995 0.8750 0.0000
vt 2.7590 0.9490 0.0000
vt -1.5507 0.9740 0.0000
vt 2.7590 0.9740 0.0000
vt -1.5507 0.9490 0.0000
vt 2.7590 0.9240 0.0000
vt -1.5507 0.9240 0.0000
vt 2.7590 0.8990 0.0000
vt -1.5507 0.8990 0.0000
vt 2.7590 0.8740 0.0000
vt -1.5507 0.8740 0.0000
vt 0.0167 0.8597 0.0000
vt 0.9995 0.8347 0.0000
vt 0.0005 0.8347 0.0000
vt 0.9995 0.8597 0.0000
vt 0.0621 0.8847 0.0000
vt 0.9995 0.8847 0.0000
vt 0.0167 0.9097 0.0000
vt 0.9995 0.9097 0.0000
vt 0.0005 0.9347 0.0000
vt 0.9995 0.9347 0.0000
vt -0.0456 0.9017 0.0000
vt 0.9534 0.8767 0.0000
vt 0.0007 0.8767 0.0000
vt 0.9534 0.9017 0.0000
vt 0.0007 0.9267 0.0000
vt 0.9534 0.9267 0.0000
vt 0.0470 0.9517 0.0000
vt 0.9534 0.9517 0.0000
vt 0.0007 0.9767 0.0000
vt 0.9534 0.9767 0.0000
vt 0.0911 0.9240 0.0000
vt 0.9978 0.8990 0.0000
vt 0.0439 0.8990 0.0000
vt 0.9978 0.9240 0.0000
vt 0.0439 0.9490 0.0000
vt 0.9978 0.9490 0.0000
vt -0.0012 0.9740 0.0000
vt 0.9978 0.9740 0.0000
vt 0.0439 0.9990 0.0000
vt 0.9978 0.9990 0.0000
vt 0.0005 0.9417 0.0000
vt 0.9995 0.9417 0.0000
vt 0.9995 0.8917 0.0000
vt 0.0005 0.8917 0.0000
vt 0.9995 0.8667 0.0000
vt 0.0005 0.8667 0.0000
vt 0.9995 0.8417 0.0000
vt 0.0005 0.8417 0.0000
vt 0.0920 0.8667 0.0000
vt 0.0457 0.8417 0.0000
vt 0.0457 0.8917 0.0000
vt 0.0457 0.9417 0.0000
vt 1.6451 0.8022 0.0000
vt -2.2676 0.8127 0.0000
vt 1.6859 0.8136 0.0000
vt -2.3101 0.8010 0.0000
vt 1.6859 0.8045 0.0000
vt -2.2676 0.8101 0.0000
vt 1.6859 0.8101 0.0000
vt -2.2676 0.8045 0.0000
vt 1.6859 0.8010 0.0000
vt -2.3101 0.8136 0.0000
vt 1.6451 0.8124 0.0000
vt -2.2676 0.8019 0.0000
vt 1.6451 0.8045 0.0000
vt -2.3101 0.8101 0.0000
vt 1.6451 0.8101 0.0000
vt -2.3101 0.8045 0.0000
vt 1.0519 0.7531 0.0000
vt 1.0401 0.7593 0.0000
vt 1.0401 0.9190 0.0000
vt 1.0186 0.7469 0.0000
vt 1.0069 0.7407 0.0000
vt 0.9662 0.9165 0.0000
vt 1.0069 0.9300 0.0000
vt 0.1167 0.9684 0.0000
vt 0.1102 0.9900 0.0000
vt 0.1459 0.9781 0.0000
vt 0.9627 0.6864 0.0000
vt 0.9919 0.6961 0.0000
vt 1.0378 0.9837 0.0000
vt 0.9627 0.9781 0.0000
vt 1.0086 0.9934 0.0000
vt 0.9919 0.9684 0.0000
vt 0.1167 0.6961 0.0000
vt 0.1459 0.6864 0.0000
vt 0.9375 0.8928 0.0000
vt 0.9375 0.9403 0.0000
vt 0.9612 0.9036 0.0000
vt 0.9139 0.9036 0.0000
vt 0.9995 0.9054 0.0000
vt 0.0811 0.9803 0.0000
vt 1.0000 0.9167 0.0000
vt 1.0000 1.0000 0.0000
vt 1.0000 0.8333 0.0000
vt 1.0000 0.7500 0.0000
vt 1.0000 0.6667 0.0000
vt 0.9998 0.6669 0.0000
vt 0.9374 0.6797 0.0000
vt 0.9998 0.6797 0.0000
vt 0.9374 0.6669 0.0000
vt 0.9998 0.9871 0.0000
vt 0.9895 0.9999 0.0000
vt 0.9998 0.9999 0.0000
vt 0.7014 0.9999 0.0000
vt 0.9895 0.9871 0.0000
vt 0.7014 0.9871 0.0000
vt 0.9895 0.6797 0.0000
vt 0.9895 0.6669 0.0000
vt 0.7014 0.6797 0.0000
vt 0.7014 0.6669 0.0000
vt 0.0841 0.6669 0.0000
vt 0.0008 0.6877 0.0000
vt 0.0841 0.6877 0.0000
vt 0.0008 0.6669 0.0000
vt 0.0841 0.9871 0.0000
vt 0.0008 0.9999 0.0000
vt 0.0841 0.9999 0.0000
vt 0.0008 0.9871 0.0000
vt 0.9165 0.6877 0.0000
vt 0.9165 0.6669 0.0000
vt 0.9998 0.6877 0.0000
vt 0.9165 0.9999 0.0000
vt 0.9165 0.9871 0.0000
vt 0.9895 0.9791 0.0000
vt 0.7014 0.9791 0.0000
vt 0.9998 0.9791 0.0000
vt 0.2992 0.9791 0.0000
vt 0.0111 0.9999 0.0000
vt 0.2992 0.9999 0.0000
vt 0.0111 0.9791 0.0000
vt 0.2992 0.9871 0.0000
vt 0.9374 0.9999 0.0000
vt 0.9374 0.9871 0.0000
vt 0.0008 0.6797 0.0000
vt 0.0632 0.9871 0.0000
vt 0.0632 0.6797 0.0000
vt 0.0841 0.6797 0.0000
vt 0.9165 0.6797 0.0000
vt 0.0008 0.9791 0.0000
vt 0.2992 0.6797 0.0000
vt 0.2992 0.6669 0.0000
vt 0.0111 0.9871 0.0000
vt 0.0111 0.6797 0.0000
vt 0.0111 0.6669 0.0000
vt 0.9995 0.6668 0.0000
vt 0.0005 0.9998 0.0000
vt 0.9995 0.9998 0.0000
vt 0.0005 0.6668 0.0000
vt 0.0005 0.6688 0.0000
vt 0.9995 0.6827 0.0000
vt 0.9995 0.6688 0.0000
vt 0.0005 0.6827 0.0000
# 223 texture coords

g Mesh_8247
usemtl Material__5708
s 1
f 1/1/1 2/2/1 3/3/1 
f 2/2/1 1/1/1 4/4/1 
s 2
f 2/5/2 5/6/2 3/7/2 
f 5/6/2 2/5/2 6/8/2 
s 4
f 3/5/3 7/6/3 1/7/3 
f 7/6/3 3/5/3 5/8/3 
s 1
f 8/1/1 9/2/1 10/3/1 
f 9/2/1 8/1/1 11/4/1 
f 12/4/4 13/3/4 14/1/4 
f 13/3/4 12/4/4 15/2/4 
s 2
f 8/5/5 14/6/5 11/7/5 
f 14/6/5 8/5/5 12/8/5 
s 4
f 11/5/6 13/6/6 9/7/6 
f 13/6/6 11/5/6 14/8/6 
s 2
f 9/5/2 15/6/2 10/7/2 
f 15/6/2 9/5/2 13/8/2 
s 4
f 10/5/3 12/6/3 8/7/3 
f 12/6/3 10/5/3 15/8/3 
s 1
f 16/1/1 17/2/1 18/3/1 
f 17/2/1 16/1/1 19/4/1 
f 20/4/4 21/3/4 22/1/4 
f 21/3/4 20/4/4 23/2/4 
s 2
f 16/5/5 22/6/5 19/7/5 
f 22/6/5 16/5/5 20/8/5 
s 4
f 19/5/6 21/6/6 17/7/6 
f 21/6/6 19/5/6 22/8/6 
s 2
f 17/5/2 23/6/2 18/7/2 
f 23/6/2 17/5/2 21/8/2 
s 4
f 18/5/3 20/6/3 16/7/3 
f 20/6/3 18/5/3 23/8/3 
s 1
f 24/1/1 25/2/1 26/3/1 
f 25/2/1 24/1/1 27/4/1 
f 28/4/4 29/3/4 30/1/4 
f 29/3/4 28/4/4 31/2/4 
s 2
f 24/5/5 30/6/5 27/7/5 
f 30/6/5 24/5/5 28/8/5 
s 4
f 27/5/6 29/6/6 25/7/6 
f 29/6/6 27/5/6 30/8/6 
s 2
f 25/5/2 31/6/2 26/7/2 
f 31/6/2 25/5/2 29/8/2 
s 4
f 26/5/3 28/6/3 24/7/3 
f 28/6/3 26/5/3 31/8/3 
s 1
f 32/1/1 33/2/1 34/3/1 
f 33/2/1 32/1/1 35/4/1 
f 36/4/4 37/3/4 38/1/4 
f 37/3/4 36/4/4 39/2/4 
s 2
f 32/5/5 38/6/5 35/7/5 
f 38/6/5 32/5/5 36/8/5 
s 4
f 35/5/6 37/6/6 33/7/6 
f 37/6/6 35/5/6 38/8/6 
s 2
f 33/5/2 39/6/2 34/7/2 
f 39/6/2 33/5/2 37/8/2 
s 4
f 34/5/3 36/6/3 32/7/3 
f 36/6/3 34/5/3 39/8/3 
s 1
f 40/1/1 41/2/1 42/3/1 
f 41/2/1 40/1/1 43/4/1 
f 44/4/4 45/3/4 46/1/4 
f 45/3/4 44/4/4 47/2/4 
s 2
f 40/5/5 46/6/5 43/7/5 
f 46/6/5 40/5/5 44/8/5 
s 4
f 43/5/6 45/6/6 41/7/6 
f 45/6/6 43/5/6 46/8/6 
s 2
f 41/5/2 47/6/2 42/7/2 
f 47/6/2 41/5/2 45/8/2 
s 4
f 42/5/3 44/6/3 40/7/3 
f 44/6/3 42/5/3 47/8/3 
s 1
f 48/1/1 49/2/1 50/3/1 
f 49/2/1 48/1/1 51/4/1 
f 52/4/4 53/3/4 54/1/4 
f 53/3/4 52/4/4 55/2/4 
s 2
f 48/5/5 54/6/5 51/7/5 
f 54/6/5 48/5/5 52/8/5 
s 4
f 51/5/6 53/6/6 49/7/6 
f 53/6/6 51/5/6 54/8/6 
s 2
f 49/5/2 55/6/2 50/7/2 
f 55/6/2 49/5/2 53/8/2 
s 4
f 50/5/3 52/6/3 48/7/3 
f 52/6/3 50/5/3 55/8/3 
s 1
f 56/1/1 57/2/1 58/3/1 
f 57/2/1 56/1/1 59/4/1 
f 60/4/4 61/3/4 62/1/4 
f 61/3/4 60/4/4 63/2/4 
s 2
f 56/5/5 62/6/5 59/7/5 
f 62/6/5 56/5/5 60/8/5 
s 4
f 59/5/6 61/6/6 57/7/6 
f 61/6/6 59/5/6 62/8/6 
s 2
f 57/5/2 63/6/2 58/7/2 
f 63/6/2 57/5/2 61/8/2 
s 4
f 58/5/3 60/6/3 56/7/3 
f 60/6/3 58/5/3 63/8/3 
s 1
f 64/1/1 65/2/1 66/3/1 
f 65/2/1 64/1/1 67/4/1 
f 68/4/4 69/3/4 70/1/4 
f 69/3/4 68/4/4 71/2/4 
s 2
f 64/5/5 70/6/5 67/7/5 
f 70/6/5 64/5/5 68/8/5 
s 4
f 67/5/6 69/6/6 65/7/6 
f 69/6/6 67/5/6 70/8/6 
s 2
f 65/5/2 71/6/2 66/7/2 
f 71/6/2 65/5/2 69/8/2 
s 4
f 66/5/3 68/6/3 64/7/3 
f 68/6/3 66/5/3 71/8/3 
s 1
f 72/1/1 73/2/1 74/3/1 
f 73/2/1 72/1/1 75/4/1 
f 76/4/4 77/3/4 78/1/4 
f 77/3/4 76/4/4 79/2/4 
s 2
f 72/5/5 78/6/5 75/7/5 
f 78/6/5 72/5/5 76/8/5 
s 4
f 75/5/6 77/6/6 73/7/6 
f 77/6/6 75/5/6 78/8/6 
s 2
f 73/5/2 79/6/2 74/7/2 
f 79/6/2 73/5/2 77/8/2 
s 4
f 74/5/3 76/6/3 72/7/3 
f 76/6/3 74/5/3 79/8/3 
s 1
f 80/1/1 81/2/1 82/3/1 
f 81/2/1 80/1/1 83/4/1 
f 84/4/4 85/3/4 86/1/4 
f 85/3/4 84/4/4 87/2/4 
s 2
f 80/5/5 86/6/5 83/7/5 
f 86/6/5 80/5/5 84/8/5 
s 4
f 83/5/6 85/6/6 81/7/6 
f 85/6/6 83/5/6 86/8/6 
s 2
f 81/5/2 87/6/2 82/7/2 
f 87/6/2 81/5/2 85/8/2 
s 4
f 82/5/3 84/6/3 80/7/3 
f 84/6/3 82/5/3 87/8/3 
s 1
f 88/1/1 89/2/1 90/3/1 
f 89/2/1 88/1/1 91/4/1 
f 92/4/4 93/3/4 94/1/4 
f 93/3/4 92/4/4 95/2/4 
s 2
f 88/5/5 94/6/5 91/7/5 
f 94/6/5 88/5/5 92/8/5 
s 4
f 91/5/6 93/6/6 89/7/6 
f 93/6/6 91/5/6 94/8/6 
s 2
f 89/5/2 95/6/2 90/7/2 
f 95/6/2 89/5/2 93/8/2 
s 4
f 90/5/3 92/6/3 88/7/3 
f 92/6/3 90/5/3 95/8/3 
s 1
f 96/1/1 97/2/1 98/3/1 
f 97/2/1 96/1/1 99/4/1 
f 100/4/4 101/3/4 102/1/4 
f 101/3/4 100/4/4 103/2/4 
s 2
f 96/5/5 102/6/5 99/7/5 
f 102/6/5 96/5/5 100/8/5 
s 4
f 99/5/6 101/6/6 97/7/6 
f 101/6/6 99/5/6 102/8/6 
s 2
f 97/5/2 103/6/2 98/7/2 
f 103/6/2 97/5/2 101/8/2 
s 4
f 98/5/3 100/6/3 96/7/3 
f 100/6/3 98/5/3 103/8/3 
s 1
f 104/1/1 105/2/1 106/3/1 
f 105/2/1 104/1/1 107/4/1 
f 108/4/4 109/3/4 110/1/4 
f 109/3/4 108/4/4 111/2/4 
s 2
f 104/5/5 110/6/5 107/7/5 
f 110/6/5 104/5/5 108/8/5 
s 4
f 107/5/6 109/6/6 105/7/6 
f 109/6/6 107/5/6 110/8/6 
s 2
f 105/5/2 111/6/2 106/7/2 
f 111/6/2 105/5/2 109/8/2 
s 4
f 106/5/3 108/6/3 104/7/3 
f 108/6/3 106/5/3 111/8/3 
s 1
f 112/1/1 113/2/1 114/3/1 
f 113/2/1 112/1/1 115/4/1 
f 116/4/4 117/3/4 118/1/4 
f 117/3/4 116/4/4 119/2/4 
s 2
f 112/5/5 118/6/5 115/7/5 
f 118/6/5 112/5/5 116/8/5 
s 4
f 115/5/6 117/6/6 113/7/6 
f 117/6/6 115/5/6 118/8/6 
s 2
f 113/5/2 119/6/2 114/7/2 
f 119/6/2 113/5/2 117/8/2 
s 4
f 114/5/3 116/6/3 112/7/3 
f 116/6/3 114/5/3 119/8/3 
s 1
f 7/4/4 6/3/4 120/1/4 
f 6/3/4 7/4/4 5/2/4 
s 2
f 1/5/5 120/6/5 4/7/5 
f 120/6/5 1/5/5 7/8/5 
s 4
f 4/5/6 6/6/6 2/7/6 
f 6/6/6 4/5/6 120/8/6 
s 1
f 121/9/1 122/10/1 123/11/1 
f 122/12/1 121/9/1 124/13/1 
s 2
f 125/14/7 122/10/7 126/15/7 
f 122/10/7 125/14/7 123/11/7 
s 4
f 127/16/8 123/11/8 125/14/8 
f 123/11/8 127/16/8 121/9/8 
s 2
f 128/17/9 121/9/9 127/16/9 
f 121/9/9 128/17/9 124/13/9 
s 4
f 126/18/10 124/13/10 128/17/10 
f 124/13/10 126/18/10 122/12/10 
s 1
f 129/19/11 130/20/12 131/21/13 
s 2
f 132/22/14 133/23/15 129/19/16 
s 1
f 130/20/12 129/19/11 133/23/17 
f 133/23/17 134/24/18 130/20/12 
s 2
f 135/25/19 134/26/20 136/27/19 
f 134/26/20 135/25/19 137/28/21 
f 137/28/21 130/29/22 134/26/20 
f 130/29/22 137/28/21 138/30/23 
f 138/30/23 131/31/24 130/29/22 
f 131/31/24 138/30/23 139/32/25 
s 1
f 140/33/26 139/32/27 138/30/28 
f 139/32/27 140/33/26 132/22/29 
s 2
f 133/23/15 132/22/14 140/33/30 
f 140/33/30 141/34/31 133/23/15 
s 1
f 134/24/18 133/23/17 141/34/32 
f 141/34/32 136/35/33 134/24/18 
s 4
f 136/35/5 142/36/5 135/25/5 
s 1
f 142/36/34 137/28/35 135/25/34 
f 137/28/35 142/36/34 143/37/36 
f 143/37/36 138/30/28 137/28/35 
f 138/30/28 143/37/36 140/33/26 
s 2
f 141/34/31 140/33/30 143/37/37 
f 143/37/37 144/38/38 141/34/31 
s 1
f 136/35/33 141/34/32 144/38/33 
s 4
f 136/35/5 144/38/5 142/36/5 
s 2
f 144/38/38 143/37/37 142/36/38 
s 1
f 145/39/4 146/40/4 147/41/4 
f 146/40/4 145/39/4 148/42/4 
f 149/43/1 150/44/1 151/45/1 
f 150/44/1 149/43/1 152/46/1 
f 126/47/39 127/48/39 125/49/4 
f 127/48/39 126/47/39 128/50/40 
f 153/51/1 154/52/1 155/52/1 
f 154/52/1 153/51/1 156/52/1 
s 4
f 157/53/41 158/54/41 159/52/42 
f 158/54/41 157/53/41 160/55/43 
s 1
f 161/55/5 162/55/5 163/55/5 
f 161/55/5 164/55/5 162/55/5 
s 2
f 165/56/44 166/57/45 167/58/46 
f 166/57/45 165/56/44 168/59/45 
s 4
f 169/60/47 163/61/48 168/59/47 
s 2
f 162/62/49 168/59/45 163/61/49 
f 168/59/45 162/62/49 166/57/45 
s 4
f 164/63/50 166/57/51 162/62/50 
f 170/64/52 168/59/47 165/56/53 
f 168/59/47 170/64/52 169/60/47 
s 2
f 171/65/54 169/60/55 170/64/56 
f 169/60/55 171/65/54 172/66/55 
s 4
f 167/67/57 172/66/51 171/65/58 
f 172/66/51 167/67/57 166/68/51 
f 166/68/51 164/69/50 172/66/51 
s 2
f 161/70/59 172/66/55 164/69/59 
f 172/66/55 161/70/59 169/60/55 
s 4
f 163/61/48 169/60/47 161/70/48 
s 1
f 132/71/29 160/72/60 139/73/27 
f 160/72/60 132/71/29 158/74/60 
s 2
f 129/75/16 158/74/61 132/71/14 
f 158/74/61 129/75/16 159/76/61 
s 1
f 131/77/13 159/76/62 129/75/11 
f 159/76/62 131/77/13 157/78/62 
s 2
f 139/79/25 157/78/63 131/77/24 
f 157/78/63 139/79/25 160/80/63 
f 173/71/64 174/72/60 175/73/65 
f 174/72/60 173/71/64 176/74/60 
s 4
f 177/75/66 176/74/67 173/71/68 
f 176/74/67 177/75/66 178/76/67 
s 2
f 179/77/69 178/76/70 177/75/71 
f 178/76/70 179/77/69 180/78/70 
s 4
f 175/79/72 180/78/63 179/77/73 
f 180/78/63 175/79/72 174/80/63 
s 2
f 177/19/71 167/20/46 179/21/69 
f 167/20/46 177/19/71 165/23/44 
s 4
f 173/22/68 165/23/53 177/19/66 
f 165/23/53 173/22/68 170/33/52 
s 2
f 175/32/65 170/33/56 173/22/64 
f 170/33/56 175/32/65 171/30/54 
s 4
f 179/31/73 171/30/58 175/32/72 
f 171/30/58 179/31/73 167/29/57 
s 1
f 181/81/8 182/82/8 183/83/8 
f 182/82/8 181/81/8 184/84/8 
s 2
f 185/85/9 184/84/9 181/81/9 
f 184/84/9 185/85/9 186/86/9 
s 1
f 187/87/74 186/86/74 185/85/74 
f 186/86/74 187/87/74 188/88/74 
s 2
f 183/89/7 188/88/7 187/87/7 
f 188/88/7 183/89/7 182/90/7 
s 1
f 189/91/7 190/92/7 191/93/7 
f 190/92/7 189/91/7 192/94/7 
s 2
f 193/95/8 192/94/8 189/91/8 
f 192/94/8 193/95/8 194/96/8 
s 1
f 195/97/9 194/96/9 193/95/9 
f 194/96/9 195/97/9 196/98/9 
s 2
f 191/99/74 196/98/74 195/97/74 
f 196/98/74 191/99/74 190/100/74 
s 1
f 197/101/9 198/102/9 199/103/9 
f 198/102/9 197/101/9 200/104/9 
s 2
f 201/105/74 200/104/74 197/101/74 
f 200/104/74 201/105/74 202/106/74 
s 1
f 203/107/7 202/106/7 201/105/7 
f 202/106/7 203/107/7 204/108/7 
s 2
f 199/109/8 204/108/8 203/107/8 
f 204/108/8 199/109/8 198/110/8 
f 155/69/8 205/111/8 153/112/8 
f 205/111/8 155/69/8 206/65/8 
s 4
f 154/113/7 206/65/7 155/69/7 
f 206/65/7 154/113/7 207/114/7 
s 2
f 156/115/74 207/114/74 154/113/74 
f 207/114/74 156/115/74 208/116/74 
s 4
f 153/117/9 208/116/9 156/115/9 
f 208/116/9 153/117/9 205/118/9 
s 1
f 209/81/8 210/82/8 211/83/8 
f 210/82/8 209/81/8 212/84/8 
s 2
f 213/85/9 212/84/9 209/81/9 
f 212/84/9 213/85/9 214/86/9 
s 1
f 215/87/74 214/86/74 213/85/74 
f 214/86/74 215/87/74 216/88/74 
s 2
f 211/89/7 216/88/7 215/87/7 
f 216/88/7 211/89/7 210/90/7 
s 1
f 217/91/7 218/92/7 219/93/7 
f 218/92/7 217/91/7 220/94/7 
s 2
f 221/95/8 220/94/8 217/91/8 
f 220/94/8 221/95/8 222/96/8 
s 1
f 223/97/9 222/96/9 221/95/9 
f 222/96/9 223/97/9 224/98/9 
s 2
f 219/99/74 224/98/74 223/97/74 
f 224/98/74 219/99/74 218/100/74 
s 1
f 225/108/8 226/109/8 227/110/8 
f 226/109/8 225/108/8 228/107/8 
s 2
f 229/106/7 228/107/7 225/108/7 
f 228/107/7 229/106/7 230/105/7 
s 1
f 231/104/74 230/105/74 229/106/74 
f 230/105/74 231/104/74 232/101/74 
s 2
f 227/102/9 232/101/9 231/104/9 
f 232/101/9 227/102/9 226/103/9 
s 1
f 233/119/9 234/117/9 235/120/9 
f 234/117/9 233/119/9 236/115/9 
s 2
f 237/121/74 236/115/74 233/119/74 
f 236/115/74 237/121/74 238/113/74 
s 1
f 239/65/7 238/113/7 237/121/7 
f 238/113/7 239/65/7 240/69/7 
s 2
f 235/122/8 240/69/8 239/65/8 
f 240/69/8 235/122/8 234/112/8 
s 1
f 241/123/3 242/124/3 243/125/3 
f 242/124/3 241/123/3 244/126/3 
s 2
f 243/127/75 245/128/75 246/129/75 
f 245/128/75 243/127/75 242/130/75 
s 1
f 246/131/6 247/132/6 248/133/6 
f 247/132/6 246/131/6 245/134/6 
s 2
f 248/135/76 244/136/76 241/137/76 
f 244/136/76 248/135/76 247/138/76 
s 1
f 180/53/77 176/54/77 178/52/41 
f 176/54/77 180/53/77 174/55/43 
f 249/139/1 250/42/1 251/140/1 
f 250/42/1 249/139/1 252/40/1 
s 2
f 251/141/5 253/142/78 249/139/78 
f 251/141/5 254/143/5 253/142/78 
s 1
f 254/143/4 255/46/4 253/142/4 
f 255/46/4 254/143/4 256/44/4 
s 4
f 251/141/79 256/144/79 254/145/79 
f 256/146/79 251/147/79 250/148/79 
s 2
f 250/148/6 257/149/6 256/146/6 
f 257/149/6 250/148/6 258/150/6 
f 253/151/78 252/152/80 249/153/78 
f 252/152/80 253/151/78 255/154/80 
s 4
f 255/154/3 259/155/3 252/152/3 
f 259/155/3 255/154/3 260/156/3 
s 8
f 252/39/4 258/40/4 250/41/4 
f 258/40/4 252/39/4 259/42/4 
f 256/43/1 260/44/1 255/45/1 
f 260/44/1 256/43/1 257/46/1 
s 1
f 261/123/3 262/124/3 263/125/3 
f 262/124/3 261/123/3 264/126/3 
s 2
f 263/127/75 265/128/75 266/129/75 
f 265/128/75 263/127/75 262/130/75 
s 1
f 266/131/6 267/132/6 268/133/6 
f 267/132/6 266/131/6 265/134/6 
s 2
f 268/135/76 264/136/76 261/137/76 
f 264/136/76 268/135/76 267/138/76 
s 1
f 207/157/4 205/158/4 206/159/4 
f 205/158/4 207/157/4 208/160/4 
s 2
f 269/151/81 145/152/81 270/153/81 
f 145/152/81 269/151/81 151/154/81 
s 4
f 151/154/3 148/155/3 145/152/3 
f 148/155/3 151/154/3 150/156/3 
s 8
f 151/46/4 271/143/4 149/44/4 
f 271/143/4 151/46/4 269/142/4 
s 1
f 270/139/5 271/143/5 269/142/5 
f 270/139/5 272/141/5 271/143/5 
s 8
f 270/139/1 147/42/1 272/140/1 
f 147/42/1 270/139/1 145/40/1 
s 2
f 152/149/6 147/148/6 146/150/6 
f 147/148/6 152/149/6 149/146/6 
s 4
f 149/144/82 272/141/82 147/161/82 
f 272/147/82 149/146/82 271/162/82 
s 1
f 273/163/9 274/53/9 275/164/9 
f 274/53/9 273/163/9 276/55/9 
s 2
f 277/165/74 276/55/74 273/163/74 
f 276/55/74 277/165/74 278/54/74 
s 1
f 279/166/7 278/54/7 277/165/7 
f 278/54/7 279/166/7 280/52/7 
s 2
f 275/167/8 280/52/8 279/166/8 
f 280/52/8 275/167/8 274/4/8 
s 1
f 281/163/9 282/53/9 283/164/9 
f 282/53/9 281/163/9 284/55/9 
s 2
f 285/165/74 284/55/74 281/163/74 
f 284/55/74 285/165/74 286/54/74 
s 1
f 287/166/7 286/54/7 285/165/7 
f 286/54/7 287/166/7 288/52/7 
s 2
f 283/167/8 288/52/8 287/166/8 
f 288/52/8 283/167/8 282/4/8 
s 1
f 289/119/9 290/117/9 291/120/9 
f 290/117/9 289/119/9 292/115/9 
s 2
f 293/121/74 292/115/74 289/119/74 
f 292/115/74 293/121/74 294/113/74 
s 1
f 295/65/7 294/113/7 293/121/7 
f 294/113/7 295/65/7 296/69/7 
s 2
f 291/122/8 296/69/8 295/65/8 
f 296/69/8 291/122/8 290/112/8 
s 1
f 297/168/5 298/169/5 299/170/5 
f 298/169/5 297/168/5 300/171/5 
s 2
f 301/172/1 302/173/1 303/174/1 
f 304/175/1 305/176/1 306/177/1 
f 305/176/1 304/175/1 302/173/1 
f 302/173/1 301/172/1 305/176/1 
f 301/172/1 307/178/1 305/176/1 
f 307/178/1 301/172/1 298/170/1 
f 300/168/1 307/178/1 298/170/1 
f 307/178/1 300/168/1 308/179/1 
f 308/179/1 309/180/1 307/178/1 
f 309/180/1 308/179/1 310/181/1 
s 4
f 311/182/3 312/183/3 313/184/3 
f 312/183/3 311/182/3 314/185/3 
s 1
f 315/170/2 316/171/2 317/169/2 
f 316/171/2 315/170/2 318/168/2 
f 319/186/1 314/187/1 311/188/1 
f 314/187/1 319/186/1 320/189/1 
s 4
f 321/190/6 320/168/6 319/191/6 
f 320/168/6 321/190/6 322/192/6 
s 1
f 322/172/4 313/193/4 312/174/4 
f 313/193/4 322/172/4 321/194/4 
s 4
f 323/175/3 302/195/3 304/196/3 
f 302/195/3 323/175/3 324/173/3 
f 324/173/3 303/197/3 302/195/3 
f 303/197/3 324/173/3 325/174/3 
f 306/198/6 326/199/6 327/200/6 
f 326/199/6 306/198/6 305/201/6 
f 313/184/3 304/196/3 311/182/3 
f 304/196/3 313/184/3 323/175/3 
s 2
f 321/194/83 323/200/83 313/193/83 
f 323/200/83 321/194/83 327/202/83 
s 4
f 319/191/6 327/200/6 321/190/6 
f 327/200/6 319/191/6 306/198/6 
s 8
f 311/188/84 306/177/84 319/186/84 
f 306/177/84 311/188/84 304/175/84 
s 1
f 303/203/5 328/172/5 301/204/5 
f 328/172/5 303/203/5 325/174/5 
s 2
f 314/174/2 322/204/2 312/203/2 
f 322/204/2 314/174/2 320/172/2 
s 1
f 298/169/5 328/172/5 299/170/5 
f 328/172/5 298/169/5 301/204/5 
f 329/205/2 305/206/2 307/207/2 
f 305/206/2 329/205/2 326/189/2 
s 2
f 330/182/1 315/205/1 331/208/1 
f 315/205/1 330/182/1 318/185/1 
s 4
f 332/190/6 318/168/6 330/191/6 
f 318/168/6 332/190/6 316/192/6 
s 2
f 333/209/4 316/168/4 332/191/4 
f 316/168/4 333/209/4 317/170/4 
s 4
f 331/182/3 317/183/3 333/184/3 
f 317/183/3 331/182/3 315/185/3 
f 334/175/3 307/195/3 309/196/3 
f 307/195/3 334/175/3 329/173/3 
f 310/198/6 335/199/6 336/200/6 
f 335/199/6 310/198/6 308/201/6 
f 308/201/6 297/187/6 335/199/6 
f 297/187/6 308/201/6 300/210/6 
f 333/184/3 309/196/3 331/182/3 
f 309/196/3 333/184/3 334/175/3 
s 1
f 332/191/83 334/211/83 333/209/83 
f 334/211/83 332/191/83 336/212/83 
s 4
f 330/191/6 336/200/6 332/190/6 
f 336/200/6 330/191/6 310/198/6 
s 1
f 331/208/84 310/181/84 330/182/84 
f 310/181/84 331/208/84 309/180/84 
s 8
f 327/202/4 324/199/4 323/200/4 
f 324/199/4 327/202/4 326/213/4 
f 326/213/4 325/187/4 324/199/4 
f 325/187/4 326/213/4 328/189/4 
f 326/213/4 299/205/4 328/189/4 
f 299/205/4 326/213/4 329/214/4 
f 335/215/4 299/205/4 329/214/4 
f 329/214/4 336/212/4 335/215/4 
f 336/212/4 329/214/4 334/211/4 
f 299/205/4 335/215/4 297/185/4 
s 1
f 337/216/1 338/217/1 339/218/1 
f 338/217/1 337/216/1 340/219/1 
f 341/219/4 342/218/4 343/216/4 
f 342/218/4 341/219/4 344/217/4 
s 2
f 337/220/5 343/221/5 340/222/5 
f 343/221/5 337/220/5 341/223/5 
s 4
f 340/220/6 342/221/6 338/222/6 
f 342/221/6 340/220/6 343/223/6 
s 2
f 338/220/2 344/221/2 339/222/2 
f 344/221/2 338/220/2 342/223/2 
s 4
f 339/220/3 341/221/3 337/222/3 
f 341/221/3 339/220/3 344/223/3 
# 0 polygons - 496 triangles