# Blender v2.81 (sub 16) OBJ File: ''
# www.blender.org
mtllib SM_Лампа_Настол_01.mtl
o SM_Лампа_Настол_01
v -0.331215 -0.020397 0.227655
v -0.460830 -0.020397 0.128195
v -0.007620 -0.020422 -0.305625
v -0.622810 -0.020397 -0.476315
v -0.560285 -0.020397 -0.627255
v -0.331215 -0.020397 -0.856330
v -0.180275 -0.020397 -0.918850
v -0.018295 -0.020397 -0.940175
v 0.294625 -0.020397 -0.856330
v 0.424240 -0.020397 -0.756870
v 0.294625 -0.020397 0.227655
v 0.143685 -0.020397 0.290175
v 0.523695 -0.020397 -0.627255
v 0.586220 -0.020397 -0.476315
v -0.644135 -0.020397 -0.314340
v 0.607545 -0.020397 -0.314340
v 0.523695 -0.020397 -0.001420
v 0.424240 -0.020397 0.128195
v -0.180275 -0.020397 0.290175
v -0.018295 -0.020397 0.311500
v -0.622810 -0.020397 -0.152360
v 0.586220 -0.020397 -0.152360
v -0.560285 -0.020397 -0.001420
v 0.613550 0.020043 -0.314495
v 0.592020 0.020043 -0.150935
v 0.528885 0.020043 0.001475
v 0.528885 0.020043 -0.630460
v 0.592020 0.020043 -0.478050
v 0.297585 0.020043 -0.861765
v 0.428460 0.020043 -0.761340
v 0.428460 0.020043 0.132350
v 0.297585 0.020043 0.232780
v 0.145170 0.020043 0.295910
v -0.018385 0.020043 0.317440
v -0.565655 0.020043 0.001475
v -0.628790 0.020043 -0.150935
v -0.650320 0.020043 -0.314495
v -0.628790 0.020043 -0.478050
v -0.565655 0.020043 -0.630460
v -0.460830 -0.020397 -0.756870
v -0.465230 0.020043 -0.761340
v -0.334355 0.020043 -0.861765
v -0.181940 0.020043 -0.924895
v -0.018385 0.020043 -0.946430
v 0.143685 -0.020397 -0.918850
v 0.145170 0.020043 -0.924895
v -0.334355 0.020043 0.232780
v -0.465230 0.020043 0.132350
v -0.181940 0.020043 0.295910
v 0.363690 0.079093 -0.479475
v 0.350035 0.091153 -0.485470
v 0.209665 0.091153 -0.332260
v 0.215690 0.079093 -0.317885
v 0.192490 0.079093 -0.846390
v 0.187745 0.091153 -0.833430
v 0.340955 0.091153 -0.693060
v 0.354080 0.079093 -0.698390
v -0.122290 0.138078 -0.657340
v -0.160215 0.091153 -0.671135
v -0.151135 0.091153 -0.463545
v -0.114570 0.138078 -0.480600
v 0.002075 0.091153 -0.323175
v 0.015865 0.138078 -0.361080
v 0.192610 0.138078 -0.368805
v 0.312125 0.138078 -0.499235
v 0.304405 0.138078 -0.675980
v 0.173970 0.138078 -0.795495
v -0.019850 0.091153 -0.824345
v -0.002775 0.138078 -0.787775
v -0.026420 0.079093 -0.836785
v -0.174425 0.079093 -0.675195
v -0.003225 0.079093 -0.308280
v -0.164815 0.079093 -0.456280
v -0.454015 0.079093 0.120075
v -0.326810 0.079093 0.218235
v 0.602565 0.020043 -0.480895
v 0.574945 0.079093 -0.473995
v 0.596695 0.079093 -0.314950
v 0.624470 0.020043 -0.314535
v 0.538355 0.020043 -0.635920
v 0.513510 0.079093 -0.622445
v 0.602565 0.020043 -0.148175
v 0.575495 0.079093 -0.155750
v 0.514165 0.079093 -0.007440
v 0.538355 0.020043 0.006845
v 0.436205 0.020043 0.139965
v 0.415525 0.079093 0.118930
v 0.287905 0.079093 0.216450
v 0.303085 0.020043 0.242115
v 0.436205 0.020043 -0.769040
v 0.415670 0.079093 -0.749870
v 0.303085 0.020043 -0.871185
v 0.288815 0.079093 -0.848220
v 0.148065 0.020043 -0.935400
v 0.140345 0.079093 -0.909455
v -0.018295 0.020043 -0.957300
v -0.018935 0.079093 -0.930800
v -0.639155 0.020043 -0.480895
v -0.613375 0.079093 -0.474295
v -0.552220 0.079093 -0.622910
v -0.574945 0.020043 -0.635920
v -0.661060 0.020043 -0.314535
v -0.634690 0.079093 -0.315030
v -0.639155 0.020043 -0.148175
v -0.613290 0.079093 -0.155800
v -0.574945 0.020043 0.006845
v -0.552095 0.079093 -0.007220
v -0.472795 0.020043 0.139965
v -0.339675 0.020043 0.242115
v -0.184655 0.020043 0.306325
v -0.178220 0.079093 0.279410
v -0.018295 0.020043 0.328225
v -0.019115 0.079093 0.300450
v 0.148065 0.020043 0.306325
v 0.139645 0.079093 0.278210
v -0.454105 0.079093 -0.750195
v -0.178225 0.079093 -0.909475
v -0.326840 0.079093 -0.848325
v -0.339675 0.020043 -0.871185
v -0.472795 0.020043 -0.769040
v -0.184655 0.020043 -0.935400
v -0.029980 0.203608 -0.520045
v -0.034585 0.203608 -0.625420
v 0.047785 0.203608 -0.448785
v 0.153160 0.203608 -0.453390
v 0.224420 0.203608 -0.531155
v 0.142050 0.203608 -0.707790
v 0.219815 0.203608 -0.636530
v 0.036670 0.203608 -0.703185
v 0.094915 0.230628 -0.578285
v 0.139725 0.079513 -0.768395
v 0.139725 -0.002242 -0.771945
v 0.105155 -0.001622 -0.786250
v 0.105155 0.080138 -0.782700
v 0.154045 0.078013 -0.733860
v 0.154045 -0.003742 -0.737410
v 0.139725 0.076513 -0.699325
v 0.139725 -0.005242 -0.702880
v 0.105155 0.075893 -0.685020
v 0.105155 -0.005867 -0.688575
v 0.070585 0.076513 -0.699325
v 0.070585 -0.005242 -0.702880
v 0.056270 0.078013 -0.733860
v 0.056270 -0.003742 -0.737410
v 0.070585 0.079513 -0.768395
v 0.070585 -0.002242 -0.771945
v 0.139725 0.255823 -0.763480
v 0.105155 0.255818 -0.777795
v 0.154045 0.255838 -0.728910
v 0.139725 0.255848 -0.694345
v 0.105155 0.255853 -0.680025
v 0.070585 0.255848 -0.694345
v 0.056270 0.255838 -0.728910
v 0.070585 0.255823 -0.763480
v 0.139725 0.459648 -0.773940
v 0.105155 0.458263 -0.788190
v 0.154045 0.462998 -0.739535
v 0.139725 0.466353 -0.705130
v 0.105155 0.467738 -0.690880
v 0.070585 0.466353 -0.705130
v 0.056270 0.462998 -0.739535
v 0.070585 0.459648 -0.773940
v 0.139725 0.649338 -0.799935
v 0.105155 0.646888 -0.814040
v 0.154045 0.655243 -0.765875
v 0.139725 0.661153 -0.731815
v 0.105155 0.663598 -0.717710
v 0.070585 0.661153 -0.731815
v 0.056270 0.655243 -0.765875
v 0.070585 0.649338 -0.799935
v 0.139730 0.893353 -0.840065
v 0.105155 0.891868 -0.854305
v 0.154045 0.896943 -0.805685
v 0.139730 0.900528 -0.771305
v 0.105155 0.902013 -0.757065
v 0.070585 0.900528 -0.771305
v 0.056270 0.896943 -0.805685
v 0.070585 0.893353 -0.840065
v 0.139730 1.072203 -0.851345
v 0.105155 1.071848 -0.865655
v 0.154045 1.073063 -0.816785
v 0.139730 1.073918 -0.782230
v 0.105155 1.074273 -0.767915
v 0.070585 1.073918 -0.782230
v 0.056270 1.073063 -0.816785
v 0.070585 1.072203 -0.851345
v 0.139730 1.253288 -0.849845
v 0.105155 1.253963 -0.864145
v 0.154045 1.251658 -0.815315
v 0.139730 1.250028 -0.780790
v 0.105155 1.249353 -0.766485
v 0.070585 1.250028 -0.780790
v 0.056270 1.251658 -0.815315
v 0.070585 1.253288 -0.849845
v 0.139730 1.428488 -0.834715
v 0.105155 1.430238 -0.848925
v 0.154045 1.424253 -0.800405
v 0.139730 1.420018 -0.766100
v 0.105155 1.418263 -0.751890
v 0.070585 1.420018 -0.766100
v 0.056270 1.424253 -0.800405
v 0.070585 1.428488 -0.834715
v 0.139730 1.636803 -0.797555
v 0.105155 1.640413 -0.811415
v 0.154045 1.628088 -0.764110
v 0.139730 1.619368 -0.730660
v 0.105155 1.615758 -0.716800
v 0.070585 1.619368 -0.730660
v 0.056270 1.628088 -0.764110
v 0.070585 1.636803 -0.797560
v 0.139730 1.782393 -0.743905
v 0.105155 1.788428 -0.756890
v 0.154045 1.767828 -0.712555
v 0.139730 1.753258 -0.681210
v 0.105155 1.747223 -0.668225
v 0.070585 1.753258 -0.681210
v 0.056270 1.767828 -0.712555
v 0.070585 1.782393 -0.743905
v 0.139730 1.894053 -0.679685
v 0.105155 1.902558 -0.691205
v 0.154045 1.873528 -0.651870
v 0.139730 1.853003 -0.624060
v 0.105155 1.844498 -0.612540
v 0.070585 1.853003 -0.624060
v 0.056270 1.873528 -0.651870
v 0.070585 1.894053 -0.679685
v 0.139730 1.982238 -0.598415
v 0.105155 1.993188 -0.607645
v 0.154045 1.955813 -0.576135
v 0.139730 1.929388 -0.553850
v 0.105155 1.918438 -0.544620
v 0.070585 1.929388 -0.553850
v 0.056270 1.955813 -0.576135
v 0.070585 1.982238 -0.598415
v 0.139730 2.041403 -0.507910
v 0.105155 2.054248 -0.514230
v 0.154045 2.010383 -0.492655
v 0.139730 1.979368 -0.477400
v 0.105155 1.966518 -0.471080
v 0.070585 1.979368 -0.477400
v 0.056270 2.010383 -0.492655
v 0.070585 2.041403 -0.507910
v 0.139730 2.077093 -0.402565
v 0.105155 2.091018 -0.405910
v 0.154045 2.043483 -0.394495
v 0.139730 2.009873 -0.386425
v 0.105155 1.995948 -0.383085
v 0.070585 2.009873 -0.386425
v 0.056270 2.043483 -0.394495
v 0.070585 2.077093 -0.402565
v 0.139730 2.091923 -0.284420
v 0.105155 2.106238 -0.283980
v 0.154045 2.057378 -0.285490
v 0.139730 2.022828 -0.286560
v 0.105155 2.008513 -0.287005
v 0.070585 2.022828 -0.286560
v 0.056270 2.057378 -0.285490
v 0.070585 2.091923 -0.284420
v 0.139730 2.054573 -0.144820
v 0.105155 2.067438 -0.138530
v 0.154045 2.023518 -0.160000
v 0.139730 1.992463 -0.175180
v 0.105155 1.979603 -0.181465
v 0.070585 1.992463 -0.175180
v 0.056270 2.023518 -0.160000
v 0.070585 2.054573 -0.144820
v 0.139730 1.977008 -0.026765
v 0.105155 1.988263 -0.017920
v 0.154045 1.949833 -0.048130
v 0.139730 1.922658 -0.069490
v 0.105155 1.911398 -0.078340
v 0.070585 1.922658 -0.069490
v 0.056270 1.949833 -0.048130
v 0.070585 1.977008 -0.026765
v 0.139730 1.956693 -0.001760
v 0.105155 1.967673 0.007435
v 0.154045 1.930198 -0.023955
v 0.139730 1.903698 -0.046155
v 0.105155 1.892723 -0.055345
v 0.070585 1.903698 -0.046155
v 0.056270 1.930198 -0.023955
v 0.070585 1.956693 -0.001760
v 0.105410 1.434658 0.146110
v 0.105255 1.030908 0.239565
v -0.037915 1.046158 0.251265
v -0.004540 1.454143 0.161060
v 0.586410 1.660653 0.787650
v 0.641760 1.553948 0.705770
v 0.641365 1.584638 0.664460
v 0.586290 1.690813 0.745930
v 0.661075 1.439583 0.618015
v 0.660580 1.470843 0.577140
v 0.382580 1.822488 0.911830
v 0.497610 1.752033 0.857770
v 0.497930 1.781738 0.815700
v 0.383180 1.851838 0.869490
v 0.104670 1.881723 0.957285
v 0.248530 1.866398 0.945525
v 0.248955 1.895533 0.903015
v 0.105255 1.910778 0.914715
v 0.216560 1.877578 0.485975
v 0.181320 2.029488 0.148440
v 0.105350 2.042768 0.158630
v 0.105410 1.897073 0.500935
v 0.312400 1.829253 0.448895
v 0.246790 1.996548 0.123165
v 0.641760 1.325218 0.530260
v 0.641365 1.357048 0.489825
v 0.586410 1.218513 0.448385
v 0.586290 1.250878 0.408355
v 0.373310 1.578168 0.256230
v 0.288315 1.825443 -0.008130
v 0.305075 1.885193 0.037720
v 0.397875 1.665858 0.323520
v 0.497610 1.127128 0.378265
v 0.497930 1.159948 0.338585
v 0.382580 1.056678 0.324205
v 0.383180 1.089848 0.284795
v 0.312400 1.502473 0.198145
v 0.246795 1.773873 -0.047700
v 0.105350 1.727653 -0.083165
v 0.181320 1.740933 -0.072975
v 0.216560 1.454143 0.161060
v 0.248955 1.046153 0.251265
v -0.174730 1.056678 0.324205
v -0.290065 1.127128 0.378265
v -0.285820 1.159948 0.338585
v -0.171340 1.089848 0.284795
v -0.378865 1.218508 0.448385
v -0.374185 1.250878 0.408355
v -0.099520 1.502473 0.198145
v -0.033860 1.773873 -0.047700
v 0.030685 1.740938 -0.072975
v -0.434215 1.325213 0.530260
v -0.429260 1.357048 0.489825
v -0.453530 1.439583 0.618015
v -0.448475 1.470843 0.577140
v -0.434215 1.553948 0.705770
v -0.429260 1.584638 0.664460
v -0.378865 1.660653 0.787650
v -0.374185 1.690813 0.745925
v -0.160430 1.753563 0.390815
v -0.075385 1.944963 0.083580
v -0.092140 1.885193 0.037720
v -0.185000 1.665858 0.323515
v -0.290065 1.752033 0.857770
v -0.285820 1.781738 0.815700
v -0.174730 1.822488 0.911830
v -0.171340 1.851838 0.869490
v -0.099520 1.829253 0.448895
v -0.033860 1.996548 0.123165
v -0.039785 1.866398 0.945525
v -0.037915 1.895533 0.903015
v 0.104670 0.997443 0.278750
v -0.039785 1.012763 0.290505
v 0.373310 1.753563 0.390815
v 0.248530 1.012763 0.290505
v -0.160430 1.578168 0.256230
v -0.004540 1.877578 0.485975
v 0.374370 1.811653 0.903515
v 0.244270 1.854323 0.936260
v 0.249905 1.844088 0.675335
v 0.004885 1.852753 0.681980
v 0.104590 1.869208 0.947680
v 0.042455 1.815483 0.499020
v -0.227070 1.712453 0.574325
v -0.100985 1.729143 0.432770
v 0.430065 1.411453 0.343365
v 0.486090 1.136008 0.385075
v 0.572375 1.224798 0.453210
v 0.249905 1.279823 0.242360
v 0.374370 1.067553 0.332550
v 0.489865 1.561953 0.458845
v 0.340270 1.636523 0.361705
v 0.303440 1.543913 0.290640
v 0.193005 1.462863 0.228450
v 0.244270 1.024888 0.299810
v 0.004885 1.271168 0.235720
v 0.104590 1.009998 0.288390
v 0.042455 1.457558 0.224380
v -0.035870 1.024888 0.299810
v -0.167140 1.067553 0.332550
v -0.172955 1.344213 0.291765
v -0.279255 1.136008 0.385075
v -0.265040 1.484033 0.399055
v -0.365540 1.224798 0.453210
v -0.067680 1.502548 0.258900
v -0.124360 1.588583 0.324915
v -0.419320 1.328478 0.532765
v -0.438085 1.439603 0.618035
v -0.419320 1.550728 0.703300
v -0.365540 1.654408 0.782855
v -0.279255 1.743198 0.850990
v -0.167140 1.811653 0.903515
v -0.035870 1.854323 0.936260
v 0.193005 1.810178 0.494950
v 0.430065 1.712453 0.574325
v 0.486090 1.743198 0.850990
v 0.572375 1.654408 0.782855
v 0.303440 1.729153 0.432780
v 0.626155 1.550728 0.703300
v 0.644920 1.439603 0.618035
v 0.626155 1.328478 0.532765
v 0.052015 1.843218 0.001140
v -0.075380 1.825443 -0.008130
v 0.027605 1.886818 0.034595
v 0.049205 1.931348 0.068765
v 0.030685 2.029488 0.148440
v 0.104170 1.950718 0.083625
v 0.160290 1.933573 0.070470
v 0.288315 1.944963 0.083585
v 0.184700 1.889978 0.037015
v 0.163100 1.845448 0.002850
v 0.108135 1.826078 -0.012015
v 0.037815 1.906028 0.009680
v 0.059055 1.868083 -0.019435
v 0.104445 1.961638 0.052350
v 0.056615 1.944778 0.039410
v 0.174525 1.908778 0.011790
v 0.153285 1.946723 0.040905
v 0.107900 1.853173 -0.030880
v 0.155725 1.870033 -0.017940
v -0.017285 1.651808 0.326305
v 0.003825 1.711148 0.371835
v 0.009595 1.593963 0.281920
v 0.074200 1.559703 0.255630
v 0.151850 1.562103 0.257470
v 0.212885 1.600258 0.286750
v 0.233995 1.659598 0.332280
v 0.207115 1.717443 0.376665
v 0.142510 1.751703 0.402960
v 0.064860 1.749303 0.401115
v 0.106335 1.906473 0.010020
v 0.108355 1.655703 0.329295
v 0.103760 1.531593 0.375095
v 0.103760 1.487343 0.395590
v 0.043985 1.502248 0.407030
v 0.059130 1.543093 0.383920
v 0.031550 1.573213 0.407030
v 0.007045 1.541278 0.436975
v 0.059130 1.640558 0.458710
v 0.031550 1.610443 0.435600
v 0.007045 1.589518 0.473995
v 0.043985 1.628548 0.503940
v 0.103755 1.410208 0.406240
v 0.014180 1.433298 0.423960
v -0.041185 1.493753 0.470345
v -0.041185 1.568473 0.527685
v 0.014180 1.628928 0.574070
v 0.103755 1.376948 0.427425
v 0.006345 1.402063 0.446690
v -0.053855 1.467808 0.497125
v -0.053850 1.549073 0.559465
v 0.006350 1.614813 0.609895
v 0.103760 1.359223 0.465070
v 0.103760 1.365113 0.517110
v 0.032670 1.383443 0.531170
v 0.011500 1.383003 0.483330
v -0.045500 1.445253 0.531130
v -0.011270 1.431418 0.567985
v 0.011535 1.584398 0.637975
v -0.045480 1.522178 0.590200
v -0.011270 1.490718 0.613490
v 0.032670 1.538698 0.650305
v 0.103760 1.381518 0.551450
v 0.052365 1.394768 0.561615
v 0.020605 1.429453 0.588230
v 0.020600 1.472323 0.621125
v 0.052365 1.507008 0.647740
v 0.103760 1.643453 0.515380
v 0.103760 1.652063 0.467535
v 0.103755 1.652018 0.591785
v 0.103755 1.639923 0.629160
v 0.103760 1.608158 0.656220
v 0.103760 1.557023 0.664365
v 0.103760 1.520253 0.657905
v 0.148385 1.543093 0.383920
v 0.163530 1.502248 0.407030
v 0.175970 1.573213 0.407030
v 0.200470 1.541278 0.436975
v 0.148385 1.640558 0.458710
v 0.163530 1.628548 0.503940
v 0.200470 1.589518 0.473995
v 0.175970 1.610443 0.435600
v 0.193330 1.433298 0.423960
v 0.248690 1.493753 0.470345
v 0.193330 1.628928 0.574070
v 0.248690 1.568473 0.527685
v 0.201165 1.402058 0.446690
v 0.261370 1.467808 0.497125
v 0.201160 1.614813 0.609895
v 0.261365 1.549068 0.559465
v 0.196015 1.383003 0.483330
v 0.174850 1.383443 0.531170
v 0.253020 1.445253 0.531130
v 0.218785 1.431418 0.567985
v 0.195985 1.584398 0.637975
v 0.174850 1.538698 0.650305
v 0.218785 1.490718 0.613490
v 0.253000 1.522178 0.590200
v 0.155150 1.394768 0.561615
v 0.186915 1.429453 0.588230
v 0.155150 1.507008 0.647740
v 0.186915 1.472323 0.621125
v 0.065915 1.426983 0.600255
v 0.065915 1.461653 0.626860
v 0.103760 1.478988 0.640160
v 0.103760 1.409648 0.586955
v 0.141605 1.426983 0.600255
v 0.141605 1.461653 0.626860
v 0.031550 1.609528 0.359705
v 0.059130 1.579408 0.336595
v 0.059130 1.676873 0.411385
v 0.031550 1.646758 0.388270
v 0.103760 1.688378 0.420210
v 0.103760 1.567908 0.327770
v 0.148385 1.579408 0.336595
v 0.175970 1.609528 0.359705
v 0.175970 1.646753 0.388270
v 0.148385 1.676873 0.411385
v 0.013950 1.604993 0.356225
v 0.048255 1.567533 0.327480
v 0.048255 1.688748 0.420495
v 0.013950 1.651293 0.391755
v 0.103760 1.703058 0.431475
v 0.103760 1.553223 0.316505
v 0.159265 1.567533 0.327480
v 0.193565 1.604993 0.356225
v 0.193565 1.651293 0.391755
v 0.159265 1.688748 0.420495
v 0.013950 1.724443 0.200550
v 0.048255 1.686983 0.171810
v 0.048255 1.808203 0.264820
v 0.013950 1.770743 0.236080
v 0.103760 1.822508 0.275800
v 0.103760 1.672678 0.160830
v 0.159265 1.686983 0.171810
v 0.193565 1.724443 0.200550
v 0.193565 1.770743 0.236080
v 0.159265 1.808203 0.264820
v 0.024720 1.737743 0.188965
v 0.054910 1.704773 0.163670
v 0.054910 1.811458 0.245530
v 0.024720 1.778488 0.220235
v 0.103760 1.824048 0.255195
v 0.103760 1.692183 0.154010
v 0.152610 1.704773 0.163670
v 0.182800 1.737743 0.188970
v 0.182800 1.778488 0.220235
v 0.152610 1.811458 0.245530
v 0.069535 1.754813 0.176445
v 0.069535 1.786163 0.200500
v 0.103760 1.801838 0.212530
v 0.103760 1.739133 0.164415
v 0.137985 1.754813 0.176445
v 0.137985 1.786163 0.200500
v 0.103760 1.773148 0.185005
v 0.103760 1.443453 0.614680
v 0.163275 1.904448 0.015315
v 0.146235 1.870743 -0.008285
v 0.146235 1.907083 -0.060180
v 0.163275 1.940783 -0.036580
v 0.105090 1.856783 -0.018060
v 0.105090 1.893123 -0.069955
v 0.063945 1.870743 -0.008285
v 0.063945 1.907083 -0.060180
v 0.046905 1.904448 0.015315
v 0.046905 1.940783 -0.036580
v 0.063945 1.938153 0.038915
v 0.063945 1.974488 -0.012980
v 0.105090 1.952113 0.048690
v 0.105090 1.988448 -0.003205
v 0.146235 1.938153 0.038915
v 0.146235 1.974488 -0.012980
v 0.140130 1.914403 -0.059995
v 0.154645 1.943108 -0.039895
v 0.105090 1.902513 -0.068320
v 0.070050 1.914403 -0.059995
v 0.055535 1.943108 -0.039895
v 0.070050 1.971813 -0.019795
v 0.105090 1.983703 -0.011470
v 0.140130 1.971813 -0.019795
v 0.137040 1.916933 -0.058225
v 0.150275 1.943108 -0.039895
v 0.105090 1.906093 -0.065815
v 0.073140 1.916933 -0.058225
v 0.059905 1.943108 -0.039895
v 0.073140 1.969278 -0.021570
v 0.105090 1.980123 -0.013980
v 0.137040 1.969278 -0.021570
v 0.046585 0.079093 0.042175
v 0.035855 0.079093 0.016270
v 0.035855 0.115983 0.016270
v 0.046585 0.115983 0.042175
v 0.009950 0.079093 0.005540
v 0.009950 0.115983 0.005540
v -0.015950 0.079093 0.016270
v -0.015950 0.115983 0.016270
v -0.026680 0.079093 0.042175
v -0.026680 0.115983 0.042175
v -0.015950 0.079093 0.068075
v -0.015950 0.115983 0.068075
v 0.009950 0.079093 0.078805
v 0.009950 0.115983 0.078805
v 0.035855 0.079093 0.068075
v 0.035855 0.115983 0.068075
v 0.033610 0.117988 0.018515
v 0.043410 0.117988 0.042175
v 0.009950 0.117988 0.008715
v -0.013705 0.117988 0.018515
v -0.023505 0.117988 0.042175
v -0.013705 0.117988 0.065830
v 0.009950 0.117988 0.075630
v 0.033610 0.117988 0.065830
v 0.009950 0.117988 0.042175
vt 0.503600 0.777300
vt 0.512500 0.811800
vt 0.376500 0.825500
vt 0.459200 0.937300
vt 0.428200 0.954800
vt 0.358200 0.963400
vt 0.323900 0.953900
vt 0.293200 0.935800
vt 0.250700 0.879500
vt 0.241800 0.845000
vt 0.396100 0.693400
vt 0.430400 0.702900
vt 0.242100 0.809400
vt 0.251600 0.775100
vt 0.484600 0.912300
vt 0.269700 0.744400
vt 0.326000 0.702000
vt 0.360500 0.693100
vt 0.486000 0.746300
vt 0.461100 0.720900
vt 0.502600 0.881700
vt 0.295100 0.719500
vt 0.512200 0.847400
vt 0.044300 0.710800
vt 0.055400 0.752200
vt 0.045600 0.755100
vt 0.034400 0.713300
vt 0.035000 0.669000
vt 0.025000 0.671000
vt 0.067900 0.793200
vt 0.082100 0.833700
vt 0.072600 0.837300
vt 0.058200 0.796500
vt 0.098100 0.873500
vt 0.115900 0.912400
vt 0.106700 0.916900
vt 0.088700 0.877500
vt 0.027700 0.626800
vt 0.017600 0.628300
vt 0.022700 0.584300
vt 0.012600 0.585200
vt 0.020100 0.541600
vt 0.009900 0.542000
vt 0.019200 0.498700
vt 0.009000 0.498700
vt 0.043600 0.286500
vt 0.034700 0.328400
vt 0.024700 0.326400
vt 0.033600 0.284100
vt 0.054300 0.245000
vt 0.044500 0.242200
vt 0.067000 0.204100
vt 0.057300 0.200800
vt 0.081600 0.163800
vt 0.072100 0.160000
vt 0.098100 0.124200
vt 0.088800 0.120100
vt 0.116500 0.085500
vt 0.107300 0.080900
vt 0.136600 0.047700
vt 0.127600 0.042700
vt 0.158300 0.010700
vt 0.149600 0.005300
vt 0.135400 0.950600
vt 0.156600 0.987900
vt 0.147900 0.993100
vt 0.126500 0.955500
vt 0.027800 0.370600
vt 0.022800 0.413200
vt 0.012600 0.412200
vt 0.017700 0.369200
vt 0.020100 0.455900
vt 0.009900 0.455400
vt 0.268200 0.910500
vt 0.690600 0.373300
vt 0.695900 0.371600
vt 0.729000 0.421400
vt 0.726000 0.425900
vt 0.785800 0.259900
vt 0.784700 0.265000
vt 0.725700 0.268900
vt 0.723500 0.264400
vt 0.697900 0.310800
vt 0.702300 0.312700
vt 0.841800 0.350400
vt 0.859100 0.349900
vt 0.839600 0.406500
vt 0.826500 0.395500
vt 0.787100 0.435500
vt 0.784900 0.418600
vt 0.738800 0.407300
vt 0.712700 0.367300
vt 0.718500 0.318500
vt 0.780700 0.282000
vt 0.731000 0.285500
vt 0.836300 0.294700
vt 0.823200 0.306100
vt 0.840500 0.291600
vt 0.864400 0.350000
vt 0.787700 0.441000
vt 0.843600 0.410200
vt 0.884400 0.588900
vt 0.844300 0.607100
vt 0.613200 0.361600
vt 0.630500 0.368400
vt 0.618700 0.411200
vt 0.600500 0.408700
vt 0.636000 0.318500
vt 0.651400 0.328600
vt 0.599800 0.457400
vt 0.618200 0.455800
vt 0.627800 0.499100
vt 0.609800 0.504400
vt 0.633300 0.548800
vt 0.648600 0.538200
vt 0.677900 0.571500
vt 0.664600 0.585000
vt 0.610700 0.506600
vt 0.667500 0.282000
vt 0.681400 0.294600
vt 0.717600 0.223600
vt 0.765200 0.224800
vt 0.763600 0.243200
vt 0.718500 0.242200
vt 0.812100 0.233700
vt 0.807600 0.251600
vt 0.857000 0.249500
vt 0.849600 0.266300
vt 0.985700 0.440100
vt 0.967400 0.440200
vt 0.962300 0.396400
vt 0.980000 0.392100
vt 0.980300 0.487800
vt 0.962100 0.484100
vt 0.979700 0.490100
vt 0.961100 0.534400
vt 0.945400 0.525000
vt 0.932200 0.573400
vt 0.919000 0.560700
vt 0.895200 0.604100
vt 0.893200 0.605300
vt 0.849300 0.624800
vt 0.801400 0.633000
vt 0.801100 0.614600
vt 0.752600 0.628900
vt 0.756600 0.611000
vt 0.706400 0.612800
vt 0.714500 0.596100
vt 0.666100 0.586400
vt 0.946800 0.354900
vt 0.888400 0.287800
vt 0.922300 0.317300
vt 0.937100 0.306300
vt 0.963100 0.346700
vt 0.898900 0.272800
vt 0.935100 0.304100
vt 0.989000 0.795400
vt 0.989000 0.839500
vt 0.986200 0.839100
vt 0.986200 0.795800
vt 0.977500 0.752900
vt 0.974900 0.754000
vt 0.977500 0.882000
vt 0.955300 0.920000
vt 0.953100 0.918300
vt 0.974900 0.880900
vt 0.924000 0.951000
vt 0.885700 0.972800
vt 0.884600 0.970200
vt 0.922300 0.948800
vt 0.955300 0.714900
vt 0.953000 0.716600
vt 0.923800 0.684100
vt 0.922100 0.686300
vt 0.885300 0.662600
vt 0.884200 0.665300
vt 0.842600 0.651900
vt 0.842200 0.654700
vt 0.668300 0.750300
vt 0.691100 0.712600
vt 0.693300 0.714400
vt 0.670900 0.751500
vt 0.656200 0.792700
vt 0.658900 0.793100
vt 0.655500 0.836700
vt 0.658300 0.836400
vt 0.666300 0.879400
vt 0.668900 0.878400
vt 0.687900 0.917800
vt 0.690100 0.916100
vt 0.718700 0.949300
vt 0.720400 0.947100
vt 0.756600 0.971700
vt 0.757700 0.969100
vt 0.799100 0.983500
vt 0.799400 0.980700
vt 0.843100 0.983900
vt 0.842700 0.981100
vt 0.722900 0.682200
vt 0.761700 0.661300
vt 0.762700 0.664000
vt 0.724600 0.684500
vt 0.804600 0.651300
vt 0.848600 0.652700
vt 0.848100 0.655600
vt 0.804900 0.654100
vt 0.393700 0.963700
vt 0.697400 0.149800
vt 0.663700 0.113900
vt 0.691300 0.103300
vt 0.710000 0.123100
vt 0.664700 0.064600
vt 0.691800 0.076300
vt 0.699800 0.030000
vt 0.711100 0.057300
vt 0.749000 0.029800
vt 0.738300 0.057300
vt 0.784300 0.063500
vt 0.788800 0.110900
vt 0.758800 0.105100
vt 0.757900 0.076600
vt 0.783600 0.122900
vt 0.746100 0.152200
vt 0.737400 0.124000
vt 0.725000 0.090500
vt 0.153700 0.318700
vt 0.155400 0.297300
vt 0.164800 0.298000
vt 0.163400 0.319500
vt 0.143900 0.317600
vt 0.145900 0.296300
vt 0.134200 0.316500
vt 0.136200 0.295200
vt 0.124400 0.315600
vt 0.126400 0.294200
vt 0.192800 0.320200
vt 0.193500 0.298800
vt 0.203300 0.299100
vt 0.202700 0.320500
vt 0.183000 0.320100
vt 0.183800 0.298700
vt 0.173200 0.320000
vt 0.174200 0.298500
vt 0.150500 0.365100
vt 0.160500 0.365900
vt 0.140600 0.364200
vt 0.130700 0.363300
vt 0.120900 0.362500
vt 0.190400 0.367000
vt 0.200200 0.367500
vt 0.180500 0.366700
vt 0.170500 0.366400
vt 0.147100 0.418900
vt 0.157100 0.419400
vt 0.137100 0.418500
vt 0.127200 0.418200
vt 0.117400 0.417700
vt 0.186900 0.421900
vt 0.196700 0.422700
vt 0.177100 0.421100
vt 0.167100 0.420200
vt 0.144100 0.469300
vt 0.154000 0.469600
vt 0.134200 0.469400
vt 0.124400 0.469500
vt 0.114500 0.469200
vt 0.183300 0.473200
vt 0.193100 0.474200
vt 0.173500 0.471900
vt 0.163800 0.470500
vt 0.140300 0.533900
vt 0.149900 0.534400
vt 0.130600 0.533600
vt 0.120900 0.533200
vt 0.111100 0.532700
vt 0.178800 0.536900
vt 0.188600 0.537600
vt 0.169100 0.536000
vt 0.159500 0.535100
vt 0.137300 0.580500
vt 0.146900 0.581200
vt 0.127600 0.579800
vt 0.117900 0.579100
vt 0.108100 0.578400
vt 0.176000 0.582800
vt 0.185800 0.583300
vt 0.166200 0.582300
vt 0.156600 0.581700
vt 0.134300 0.627600
vt 0.143900 0.628400
vt 0.124600 0.626600
vt 0.114900 0.625600
vt 0.105100 0.624700
vt 0.173200 0.629300
vt 0.183000 0.629600
vt 0.163400 0.629100
vt 0.153600 0.628800
vt 0.130800 0.673500
vt 0.141000 0.674500
vt 0.120700 0.671900
vt 0.110800 0.670300
vt 0.101000 0.669200
vt 0.171500 0.674200
vt 0.181400 0.674200
vt 0.161500 0.674500
vt 0.151300 0.674800
vt 0.155700 0.745300
vt 0.158900 0.690100
vt 0.169400 0.690300
vt 0.165100 0.745800
vt 0.146200 0.745100
vt 0.148500 0.690800
vt 0.136500 0.744900
vt 0.138500 0.691500
vt 0.126700 0.744400
vt 0.128600 0.691600
vt 0.193400 0.749300
vt 0.199800 0.696300
vt 0.209500 0.697900
vt 0.203200 0.750400
vt 0.183800 0.748000
vt 0.190000 0.694000
vt 0.174400 0.746800
vt 0.179800 0.691700
vt 0.152500 0.785500
vt 0.161900 0.786500
vt 0.143100 0.784100
vt 0.133400 0.782700
vt 0.123700 0.781400
vt 0.190600 0.787200
vt 0.200400 0.787400
vt 0.180900 0.787100
vt 0.171300 0.787000
vt 0.148500 0.818900
vt 0.159200 0.820600
vt 0.138400 0.815800
vt 0.128700 0.812700
vt 0.119100 0.810600
vt 0.190600 0.817600
vt 0.200400 0.817000
vt 0.180500 0.819100
vt 0.170000 0.820500
vt 0.880200 0.806700
vt 0.910700 0.814000
vt 0.908700 0.824200
vt 0.877700 0.815600
vt 0.882800 0.797600
vt 0.911600 0.803800
vt 0.885500 0.788300
vt 0.912300 0.793900
vt 0.888200 0.778800
vt 0.913900 0.784200
vt 0.870300 0.843000
vt 0.896200 0.852000
vt 0.892600 0.861100
vt 0.867700 0.852500
vt 0.872800 0.833600
vt 0.900700 0.843100
vt 0.875300 0.824500
vt 0.905200 0.834000
vt 0.853300 0.798000
vt 0.849700 0.807800
vt 0.858100 0.788900
vt 0.862700 0.780100
vt 0.866500 0.771100
vt 0.846600 0.838300
vt 0.845200 0.848000
vt 0.847100 0.828400
vt 0.847800 0.818100
vt 0.263100 0.648400
vt 0.261900 0.677100
vt 0.249800 0.677100
vt 0.253500 0.647900
vt 0.272900 0.647600
vt 0.273300 0.674900
vt 0.282800 0.646600
vt 0.283700 0.672200
vt 0.292700 0.646300
vt 0.293600 0.671000
vt 0.225500 0.639100
vt 0.218200 0.663700
vt 0.208900 0.659900
vt 0.216100 0.636300
vt 0.234900 0.642700
vt 0.227500 0.668900
vt 0.244100 0.645900
vt 0.238000 0.674000
vt 0.266100 0.618400
vt 0.257500 0.617600
vt 0.275100 0.618800
vt 0.284600 0.619100
vt 0.294300 0.619700
vt 0.231000 0.612000
vt 0.221400 0.610200
vt 0.240200 0.614200
vt 0.248900 0.616200
vt 0.271100 0.582200
vt 0.262400 0.580400
vt 0.279900 0.584800
vt 0.289000 0.587600
vt 0.298500 0.589800
vt 0.234700 0.580500
vt 0.224900 0.580200
vt 0.244300 0.580200
vt 0.253500 0.579900
vt 0.277100 0.546300
vt 0.267200 0.544000
vt 0.286700 0.550200
vt 0.296000 0.554300
vt 0.305400 0.557500
vt 0.236700 0.546500
vt 0.226700 0.547100
vt 0.246800 0.545000
vt 0.257000 0.543700
vt 0.279400 0.538400
vt 0.268300 0.535700
vt 0.289500 0.542500
vt 0.298800 0.546700
vt 0.308000 0.550300
vt 0.236000 0.538500
vt 0.226200 0.539300
vt 0.246100 0.536800
vt 0.256900 0.535400
vt 0.231300 0.266500
vt 0.127200 0.266800
vt 0.131000 0.230000
vt 0.239100 0.238700
vt 0.103200 0.194100
vt 0.109300 0.156400
vt 0.122700 0.158500
vt 0.116600 0.196000
vt 0.115500 0.118800
vt 0.128800 0.121000
vt 0.091600 0.269600
vt 0.097300 0.231900
vt 0.110700 0.233500
vt 0.105100 0.271100
vt 0.081500 0.345100
vt 0.086300 0.307300
vt 0.099800 0.308800
vt 0.095000 0.346500
vt 0.444600 0.123200
vt 0.428100 0.217000
vt 0.412100 0.215400
vt 0.412200 0.120000
vt 0.476100 0.131300
vt 0.443700 0.221100
vt 0.121800 0.081100
vt 0.135100 0.083500
vt 0.039600 0.979900
vt 0.038400 0.941800
vt 0.051900 0.941700
vt 0.053100 0.979600
vt 0.554400 0.186100
vt 0.482700 0.249300
vt 0.471400 0.237400
vt 0.531900 0.163400
vt 0.037400 0.903600
vt 0.050900 0.903700
vt 0.036600 0.865500
vt 0.050100 0.865700
vt 0.572700 0.211600
vt 0.492100 0.263500
vt 0.505500 0.298400
vt 0.499100 0.280100
vt 0.585500 0.239300
vt 0.593400 0.267400
vt 0.683200 0.195500
vt 0.693600 0.230900
vt 0.074800 0.710400
vt 0.071600 0.672300
vt 0.085200 0.671800
vt 0.088300 0.709600
vt 0.069300 0.634200
vt 0.082800 0.633900
vt 0.252000 0.211200
vt 0.332400 0.263300
vt 0.325400 0.279700
vt 0.067800 0.596100
vt 0.081400 0.595900
vt 0.067300 0.557900
vt 0.080900 0.557900
vt 0.067800 0.519700
vt 0.081400 0.519900
vt 0.069300 0.481600
vt 0.082800 0.482000
vt 0.319400 0.145000
vt 0.366400 0.227900
vt 0.353200 0.237200
vt 0.292800 0.163100
vt 0.071700 0.443500
vt 0.085200 0.444100
vt 0.074900 0.405400
vt 0.088400 0.406200
vt 0.348700 0.131100
vt 0.380900 0.221000
vt 0.078900 0.367300
vt 0.092400 0.368600
vt 0.077200 0.383100
vt 0.090700 0.384200
vt 0.096600 0.785000
vt 0.083200 0.786500
vt 0.078700 0.748500
vt 0.092200 0.747300
vt 0.141500 0.194800
vt 0.505300 0.145200
vt 0.573900 0.062200
vt 0.601300 0.082800
vt 0.544300 0.044900
vt 0.512800 0.031600
vt 0.480100 0.021500
vt 0.446400 0.015600
vt 0.412300 0.013700
vt 0.626500 0.106500
vt 0.648700 0.133300
vt 0.667700 0.163100
vt 0.036000 0.827400
vt 0.049500 0.827600
vt 0.697500 0.267800
vt 0.157000 0.162400
vt 0.176000 0.132700
vt 0.270300 0.185800
vt 0.198300 0.105900
vt 0.223500 0.082300
vt 0.251000 0.061700
vt 0.280700 0.044500
vt 0.312200 0.031300
vt 0.344800 0.021300
vt 0.380000 0.123100
vt 0.378300 0.015500
vt 0.442900 0.623500
vt 0.411200 0.627300
vt 0.419600 0.572100
vt 0.367400 0.564500
vt 0.380100 0.624900
vt 0.351500 0.470000
vt 0.308600 0.465600
vt 0.332800 0.407600
vt 0.363600 0.433700
vt 0.507400 0.481200
vt 0.562000 0.453600
vt 0.562800 0.486000
vt 0.498800 0.429800
vt 0.554600 0.422000
vt 0.496700 0.521900
vt 0.460700 0.502100
vt 0.466300 0.477900
vt 0.460800 0.447400
vt 0.540900 0.392600
vt 0.465200 0.389800
vt 0.521700 0.366400
vt 0.441300 0.423400
vt 0.497200 0.344800
vt 0.468800 0.328700
vt 0.427000 0.371700
vt 0.437100 0.318800
vt 0.385100 0.374100
vt 0.404100 0.316200
vt 0.419200 0.411900
vt 0.394600 0.413300
vt 0.371800 0.320800
vt 0.341400 0.332100
vt 0.314100 0.349600
vt 0.291000 0.371700
vt 0.273100 0.397900
vt 0.260900 0.426600
vt 0.496400 0.738500
vt 0.493100 0.741000
vt 0.467300 0.714200
vt 0.469900 0.710900
vt 0.383300 0.524500
vt 0.414600 0.531400
vt 0.468000 0.552700
vt 0.473500 0.613300
vt 0.501400 0.597000
vt 0.443700 0.520100
vt 0.525300 0.575000
vt 0.544200 0.548100
vt 0.556800 0.517800
vt 0.588500 0.657100
vt 0.581600 0.626200
vt 0.601900 0.626000
vt 0.563400 0.634700
vt 0.604200 0.659300
vt 0.621000 0.632700
vt 0.613700 0.671900
vt 0.635400 0.646900
vt 0.644100 0.665200
vt 0.644400 0.685400
vt 0.611400 0.687500
vt 0.637700 0.704300
vt 0.598800 0.697000
vt 0.623400 0.718900
vt 0.605000 0.727700
vt 0.584800 0.727900
vt 0.583200 0.694800
vt 0.565700 0.721100
vt 0.573700 0.682200
vt 0.551200 0.706900
vt 0.542600 0.688600
vt 0.542400 0.668300
vt 0.575900 0.666600
vt 0.549300 0.649000
vt 0.319100 0.297700
vt 0.396300 0.216900
vt 0.458200 0.228000
vt 0.341800 0.249200
vt 0.035700 0.789300
vt 0.049300 0.789500
vt 0.890700 0.204700
vt 0.877700 0.213700
vt 0.873700 0.206000
vt 0.885000 0.198200
vt 0.863000 0.219400
vt 0.847300 0.221400
vt 0.847300 0.212700
vt 0.860900 0.210900
vt 0.831600 0.219600
vt 0.816800 0.214100
vt 0.820700 0.206400
vt 0.833600 0.211100
vt 0.803700 0.205300
vt 0.793000 0.193700
vt 0.800000 0.188600
vt 0.809300 0.198700
vt 0.901200 0.192900
vt 0.894200 0.187900
vt 0.393200 0.680500
vt 0.392900 0.684600
vt 0.356000 0.685900
vt 0.355200 0.681800
vt 0.242600 0.885500
vt 0.246500 0.883900
vt 0.265200 0.915800
vt 0.261900 0.918400
vt 0.289100 0.945000
vt 0.291600 0.941700
vt 0.323800 0.960000
vt 0.322200 0.963900
vt 0.359200 0.973500
vt 0.359800 0.969300
vt 0.397000 0.969300
vt 0.397500 0.973300
vt 0.434300 0.963200
vt 0.432800 0.959400
vt 0.465000 0.940900
vt 0.467400 0.944100
vt 0.494300 0.917000
vt 0.491100 0.914500
vt 0.509800 0.882500
vt 0.513500 0.884100
vt 0.523500 0.847200
vt 0.519500 0.846700
vt 0.520000 0.809600
vt 0.524100 0.809100
vt 0.514700 0.772000
vt 0.511000 0.773600
vt 0.253600 0.456300
vt 0.430400 0.688800
vt 0.464300 0.706700
vt 0.461900 0.710100
vt 0.429000 0.692700
vt 0.318700 0.692800
vt 0.320500 0.696600
vt 0.288700 0.715800
vt 0.286100 0.712600
vt 0.259700 0.740200
vt 0.263100 0.742700
vt 0.245000 0.775100
vt 0.241100 0.773500
vt 0.231800 0.810500
vt 0.236000 0.811100
vt 0.236400 0.848200
vt 0.232200 0.848700
vt 0.350300 0.617500
vt 0.396000 0.439600
vt 0.383700 0.450800
vt 0.412300 0.437000
vt 0.427600 0.443600
vt 0.437500 0.458000
vt 0.443300 0.474500
vt 0.439600 0.490800
vt 0.427800 0.502300
vt 0.411600 0.505700
vt 0.396200 0.499600
vt 0.379400 0.466900
vt 0.927500 0.105400
vt 0.941200 0.105600
vt 0.933800 0.122000
vt 0.950800 0.115500
vt 0.950600 0.129300
vt 0.940700 0.138800
vt 0.926900 0.138600
vt 0.917400 0.128700
vt 0.917600 0.115000
vt 0.408500 0.463800
vt 0.415700 0.478000
vt 0.938000 0.810700
vt 0.950000 0.807700
vt 0.951500 0.823600
vt 0.938400 0.823400
vt 0.937200 0.836500
vt 0.950200 0.838700
vt 0.929800 0.862200
vt 0.934300 0.849600
vt 0.947000 0.853000
vt 0.941700 0.867000
vt 0.837900 0.847300
vt 0.847500 0.861300
vt 0.833200 0.876800
vt 0.820100 0.856400
vt 0.832900 0.830300
vt 0.813500 0.833800
vt 0.836700 0.795000
vt 0.832500 0.812500
vt 0.812900 0.810500
vt 0.818100 0.787800
vt 0.823900 0.883200
vt 0.810900 0.860200
vt 0.803500 0.835300
vt 0.802700 0.809500
vt 0.808500 0.784300
vt 0.804900 0.941900
vt 0.794200 0.934000
vt 0.800100 0.915400
vt 0.813500 0.915500
vt 0.804900 0.889100
vt 0.794100 0.896800
vt 0.754700 0.872800
vt 0.782400 0.872800
vt 0.778200 0.885400
vt 0.758700 0.885300
vt 0.786600 0.928500
vt 0.790800 0.915400
vt 0.786500 0.902200
vt 0.775300 0.894100
vt 0.761500 0.894100
vt 0.934700 0.880500
vt 0.923800 0.874100
vt 0.828800 0.767200
vt 0.845300 0.778700
vt 0.820500 0.761400
vt 0.732200 0.889000
vt 0.742900 0.896800
vt 0.750300 0.902100
vt 0.875500 0.917600
vt 0.886800 0.911800
vt 0.893400 0.923100
vt 0.878700 0.929500
vt 0.897700 0.904400
vt 0.905900 0.914700
vt 0.916400 0.885200
vt 0.926400 0.893300
vt 0.916900 0.904800
vt 0.907700 0.895400
vt 0.907100 0.748300
vt 0.909700 0.728500
vt 0.933300 0.733900
vt 0.923600 0.752600
vt 0.889500 0.749400
vt 0.886100 0.730000
vt 0.857600 0.765100
vt 0.844500 0.750100
vt 0.864000 0.737400
vt 0.872600 0.755100
vt 0.910100 0.718500
vt 0.936200 0.722900
vt 0.884200 0.720100
vt 0.837900 0.742300
vt 0.859600 0.728200
vt 0.782400 0.958100
vt 0.778300 0.945500
vt 0.754700 0.958100
vt 0.758800 0.945400
vt 0.723700 0.915400
vt 0.736900 0.915400
vt 0.742900 0.933900
vt 0.732300 0.941800
vt 0.775400 0.936600
vt 0.761500 0.936600
vt 0.746100 0.915300
vt 0.750400 0.928400
vt 0.778400 0.910800
vt 0.769500 0.904400
vt 0.759400 0.908800
vt 0.777400 0.921800
vt 0.767200 0.926200
vt 0.758300 0.919800
vt 0.921700 0.834100
vt 0.922700 0.822500
vt 0.915400 0.856000
vt 0.919300 0.845300
vt 0.910300 0.866300
vt 0.922700 0.810500
vt 0.867900 0.904300
vt 0.878400 0.898500
vt 0.888000 0.892000
vt 0.896500 0.884500
vt 0.903900 0.875800
vt 0.808000 0.732900
vt 0.815200 0.722900
vt 0.819800 0.724400
vt 0.810800 0.736800
vt 0.815200 0.710600
vt 0.808000 0.700600
vt 0.810800 0.696700
vt 0.819800 0.709100
vt 0.796200 0.696800
vt 0.796200 0.692000
vt 0.796200 0.736700
vt 0.796200 0.741600
vt 0.784500 0.732900
vt 0.781700 0.736800
vt 0.777300 0.722900
vt 0.772700 0.724400
vt 0.784500 0.700600
vt 0.777300 0.710600
vt 0.772700 0.709100
vt 0.781700 0.696700
vt 0.759300 0.731100
vt 0.759300 0.746400
vt 0.707800 0.746400
vt 0.707800 0.731100
vt 0.759300 0.761700
vt 0.759300 0.777000
vt 0.707800 0.777000
vt 0.707800 0.761700
vt 0.759300 0.792300
vt 0.707800 0.792300
vt 0.759300 0.715700
vt 0.707800 0.715700
vt 0.759300 0.853600
vt 0.759300 0.868900
vt 0.707800 0.868900
vt 0.707800 0.853600
vt 0.759300 0.838300
vt 0.707800 0.838300
vt 0.759300 0.807700
vt 0.759300 0.823000
vt 0.707800 0.823000
vt 0.707800 0.807700
vt 0.832000 0.660100
vt 0.848700 0.660100
vt 0.847100 0.665000
vt 0.833500 0.665000
vt 0.862300 0.669900
vt 0.867500 0.685800
vt 0.862300 0.685900
vt 0.858100 0.672900
vt 0.862400 0.701800
vt 0.858300 0.698800
vt 0.818400 0.669900
vt 0.822500 0.672900
vt 0.813300 0.685800
vt 0.818400 0.685800
vt 0.818500 0.701700
vt 0.822700 0.698700
vt 0.848800 0.711600
vt 0.832100 0.711600
vt 0.833600 0.706700
vt 0.847200 0.706700
vt 0.841400 0.676000
vt 0.849400 0.681800
vt 0.848400 0.691700
vt 0.832300 0.680000
vt 0.831400 0.689800
vt 0.839400 0.695600
vt 0.840400 0.685800
vt 0.801000 0.863800
vt 0.793000 0.836900
vt 0.792200 0.808400
vt 0.798500 0.780600
vt 0.811800 0.755300
vt 0.813300 0.887500
vt 0.910100 0.708000
vt 0.936500 0.711400
vt 0.882000 0.709800
vt 0.831000 0.734200
vt 0.855000 0.718700
vt 0.768400 0.915300
vt 0.764700 0.780400
vt 0.764800 0.768700
vt 0.781500 0.768900
vt 0.781400 0.780500
vt 0.764900 0.757000
vt 0.781600 0.757200
vt 0.764100 0.850500
vt 0.764200 0.838800
vt 0.780900 0.839000
vt 0.780800 0.850700
vt 0.764300 0.827200
vt 0.781000 0.827300
vt 0.764400 0.815500
vt 0.781100 0.815600
vt 0.764500 0.803800
vt 0.781200 0.803900
vt 0.764600 0.792100
vt 0.781300 0.792200
vt 0.213800 0.946700
vt 0.205700 0.955300
vt 0.204700 0.953000
vt 0.211500 0.945800
vt 0.193900 0.955500
vt 0.194800 0.953200
vt 0.185400 0.947300
vt 0.187600 0.946300
vt 0.185100 0.935500
vt 0.187500 0.936400
vt 0.193300 0.926900
vt 0.194300 0.929200
vt 0.205100 0.926700
vt 0.204200 0.929000
vt 0.213600 0.934900
vt 0.211300 0.935900
vt 0.204200 0.951900
vt 0.210500 0.945400
vt 0.195200 0.952100
vt 0.188700 0.945800
vt 0.188500 0.936800
vt 0.194700 0.930200
vt 0.203800 0.930100
vt 0.210300 0.936400
vt 0.883900 0.086600
vt 0.883900 0.093900
vt 0.874200 0.093900
vt 0.874200 0.086600
vt 0.883900 0.101300
vt 0.874200 0.101300
vt 0.883900 0.108700
vt 0.874200 0.108700
vt 0.883900 0.116000
vt 0.874200 0.116000
vt 0.883900 0.123400
vt 0.874200 0.123400
vt 0.883900 0.064500
vt 0.883900 0.071900
vt 0.874200 0.071900
vt 0.874200 0.064500
vt 0.883900 0.079200
vt 0.874200 0.079200
vt 0.843900 0.082500
vt 0.841000 0.089400
vt 0.840300 0.088700
vt 0.842900 0.082500
vt 0.834100 0.092300
vt 0.834100 0.091300
vt 0.827300 0.089400
vt 0.827900 0.088700
vt 0.824400 0.082500
vt 0.825400 0.082500
vt 0.827300 0.075700
vt 0.827900 0.076300
vt 0.834100 0.072800
vt 0.834100 0.073800
vt 0.841000 0.075700
vt 0.840300 0.076300
vt 0.834100 0.082500
vn -0.3409 -0.7312 0.5909
vn -0.4820 -0.7315 0.4823
vn 0.0000 -1.0000 0.0000
vn -0.6571 -0.7330 -0.1759
vn -0.5890 -0.7332 -0.3399
vn -0.3399 -0.7334 -0.5887
vn -0.1759 -0.7333 -0.6567
vn 0.0001 -0.7332 -0.6800
vn 0.3405 -0.7327 -0.5893
vn 0.4817 -0.7323 -0.4813
vn 0.3415 -0.7304 0.5915
vn 0.1768 -0.7305 0.6597
vn 0.5902 -0.7319 -0.3405
vn 0.6586 -0.7315 -0.1762
vn -0.6806 -0.7326 0.0002
vn 0.6822 -0.7312 0.0002
vn 0.5912 -0.7306 0.3415
vn 0.4829 -0.7305 0.4830
vn -0.1765 -0.7309 0.6593
vn 0.0001 -0.7306 0.6828
vn -0.6577 -0.7323 0.1765
vn 0.6592 -0.7309 0.1768
vn -0.5900 -0.7319 0.3409
vn 0.9892 -0.1469 -0.0003
vn 0.9556 -0.1461 0.2558
vn 0.8569 -0.1454 0.4945
vn 0.8562 -0.1491 -0.4947
vn 0.9552 -0.1480 -0.2563
vn 0.4940 -0.1512 -0.8562
vn 0.6988 -0.1502 -0.6993
vn 0.6997 -0.1449 0.6996
vn 0.4947 -0.1448 0.8569
vn 0.2560 -0.1449 0.9558
vn -0.0002 -0.1453 0.9894
vn -0.8565 -0.1491 0.4941
vn -0.9550 -0.1502 0.2556
vn -0.9885 -0.1512 -0.0003
vn -0.9546 -0.1521 -0.2561
vn -0.8558 -0.1528 -0.4943
vn -0.4808 -0.7334 -0.4807
vn -0.6987 -0.1533 -0.6988
vn -0.4941 -0.1534 -0.8558
vn -0.2558 -0.1532 -0.9545
vn -0.0002 -0.1529 -0.9882
vn 0.1762 -0.7330 -0.6570
vn 0.2556 -0.1521 -0.9548
vn -0.4948 -0.1470 0.8565
vn -0.6996 -0.1479 0.6991
vn -0.2563 -0.1461 0.9555
vn 0.2397 0.9667 0.0899
vn 0.6461 0.7283 0.2283
vn 0.2891 0.7374 0.6104
vn 0.1034 0.9688 0.2251
vn 0.0924 0.9628 -0.2539
vn 0.2395 0.7132 -0.6588
vn 0.6285 0.7181 -0.2987
vn 0.2414 0.9641 -0.1105
vn -0.6462 0.7260 -0.2352
vn -0.6434 0.7264 -0.2415
vn -0.6155 0.7361 0.2815
vn -0.6233 0.7259 0.2907
vn -0.2304 0.7405 0.6313
vn -0.2352 0.7259 0.6463
vn 0.2907 0.7259 0.6234
vn 0.6463 0.7259 0.2353
vn 0.6233 0.7259 -0.2906
vn 0.2352 0.7260 -0.6462
vn -0.2904 0.7168 -0.6340
vn -0.2906 0.7260 -0.6232
vn -0.1145 0.9638 -0.2409
vn -0.2432 0.9662 -0.0856
vn -0.0835 0.9695 0.2304
vn -0.2248 0.9685 0.1070
vn -0.4029 0.8227 0.4011
vn -0.2853 0.8214 0.4939
vn 0.8705 0.4329 -0.2343
vn 0.5420 0.8274 -0.1470
vn 0.5662 0.8242 -0.0005
vn 0.9049 0.4256 0.0005
vn 0.7815 0.4317 -0.4504
vn 0.4877 0.8261 -0.2823
vn 0.8722 0.4293 0.2344
vn 0.5448 0.8257 0.1460
vn 0.4886 0.8255 0.2824
vn 0.7819 0.4296 0.4518
vn 0.6306 0.4453 0.6356
vn 0.3908 0.8315 0.3947
vn 0.2770 0.8323 0.4802
vn 0.4466 0.4507 0.7729
vn 0.6409 0.4282 -0.6371
vn 0.3992 0.8258 -0.3982
vn 0.4550 0.4165 -0.7871
vn 0.2847 0.8211 -0.4948
vn 0.2369 0.4160 -0.8780
vn 0.1476 0.8215 -0.5508
vn -0.0000 0.4100 -0.9121
vn -0.0010 0.8188 -0.5740
vn -0.8812 0.4097 -0.2357
vn -0.5531 0.8198 -0.1484
vn -0.4985 0.8177 -0.2879
vn -0.7917 0.4054 -0.4570
vn -0.9128 0.4085 0.0014
vn -0.5748 0.8183 0.0003
vn -0.8789 0.4148 0.2356
vn -0.5516 0.8211 0.1469
vn -0.7875 0.4141 0.4564
vn -0.4955 0.8202 0.2859
vn -0.6419 0.4195 0.6419
vn -0.4529 0.4178 0.7876
vn -0.2338 0.4241 0.8749
vn -0.1473 0.8238 0.5474
vn 0.0036 0.4278 0.9039
vn 0.0018 0.8236 0.5671
vn 0.2332 0.4454 0.8644
vn 0.1447 0.8303 0.5382
vn -0.4053 0.8195 -0.4051
vn -0.1480 0.8201 -0.5528
vn -0.2879 0.8178 -0.4982
vn -0.4567 0.4058 -0.7917
vn -0.6453 0.4088 -0.6454
vn -0.2346 0.4115 -0.8807
vn -0.3934 0.9009 0.1834
vn -0.4079 0.9009 -0.1484
vn -0.1484 0.9009 0.4079
vn 0.1834 0.9009 0.3934
vn 0.4079 0.9009 0.1484
vn 0.1484 0.9009 -0.4079
vn 0.3934 0.9009 -0.1834
vn -0.1834 0.9009 -0.3934
vn -0.0000 1.0000 0.0000
vn 0.7080 0.0252 -0.7057
vn 0.7071 0.0307 -0.7065
vn -0.0000 0.0434 -0.9991
vn -0.0000 0.0356 -0.9994
vn 1.0000 -0.0000 0.0019
vn 1.0000 -0.0000 0.0000
vn 0.7061 -0.0252 0.7076
vn 0.7071 -0.0307 0.7065
vn 0.0000 -0.0356 0.9994
vn -0.0000 -0.0434 0.9991
vn -0.7062 -0.0252 0.7076
vn -0.7071 -0.0307 0.7064
vn -1.0000 -0.0001 0.0019
vn -1.0000 -0.0000 0.0000
vn -0.7081 0.0252 -0.7057
vn -0.7071 0.0307 -0.7064
vn 0.7119 -0.0082 -0.7022
vn -0.0000 -0.0118 -0.9999
vn 1.0000 0.0002 0.0097
vn 0.7023 0.0083 0.7118
vn -0.0000 0.0116 0.9999
vn -0.7023 0.0083 0.7118
vn -1.0000 0.0002 0.0097
vn -0.7119 -0.0082 -0.7022
vn 0.7123 -0.0657 -0.6988
vn 0.0000 -0.0936 -0.9956
vn 0.9999 0.0009 0.0103
vn 0.7019 0.0666 0.7091
vn -0.0000 0.0936 0.9956
vn -0.7020 0.0666 0.7091
vn -0.9999 0.0009 0.0103
vn -0.7123 -0.0657 -0.6988
vn 0.7086 -0.1052 -0.6977
vn -0.0000 -0.1489 -0.9888
vn 1.0000 0.0004 0.0033
vn 0.7053 0.1058 0.7009
vn 0.0000 0.1494 0.9888
vn -0.7054 0.1058 0.7009
vn -1.0000 0.0004 0.0033
vn -0.7087 -0.1051 -0.6977
vn 0.7011 -0.0804 -0.7086
vn -0.0000 -0.1126 -0.9936
vn 0.9999 -0.0015 -0.0121
vn 0.7133 0.0792 0.6964
vn -0.0000 0.1131 0.9936
vn -0.7133 0.0792 0.6964
vn -0.9999 -0.0015 -0.0121
vn -0.7011 -0.0804 -0.7085
vn 0.7028 -0.0195 -0.7112
vn -0.0000 -0.0273 -0.9996
vn 1.0000 -0.0003 -0.0086
vn 0.7115 0.0192 0.7025
vn -0.0000 0.0274 0.9996
vn -0.7115 0.0192 0.7024
vn -1.0000 -0.0003 -0.0086
vn -0.7028 -0.0195 -0.7111
vn 0.7024 0.0336 -0.7110
vn -0.0000 0.0472 -0.9989
vn 1.0000 0.0004 -0.0095
vn 0.7119 -0.0331 0.7015
vn -0.0000 -0.0472 0.9989
vn -0.7119 -0.0331 0.7015
vn -1.0000 0.0004 -0.0095
vn -0.7024 0.0336 -0.7110
vn 0.7016 0.0933 -0.7064
vn -0.0000 0.1309 -0.9914
vn 0.9999 0.0015 -0.0108
vn 0.7126 -0.0917 0.6956
vn -0.0000 -0.1308 0.9914
vn -0.7126 -0.0917 0.6955
vn -0.9999 0.0016 -0.0108
vn -0.7016 0.0933 -0.7064
vn 0.6965 0.1878 -0.6925
vn 0.0000 0.2615 -0.9652
vn 0.9998 0.0059 -0.0208
vn 0.7181 -0.1822 0.6716
vn -0.0000 -0.2620 0.9651
vn -0.7182 -0.1821 0.6716
vn -0.9998 0.0058 -0.0208
vn -0.6965 0.1877 -0.6925
vn 0.6969 0.3038 -0.6496
vn -0.0000 0.4237 -0.9058
vn 0.9998 0.0087 -0.0184
vn 0.7173 -0.2948 0.6313
vn 0.0000 -0.4232 0.9060
vn -0.7174 -0.2950 0.6312
vn -0.9998 0.0087 -0.0185
vn -0.6970 0.3039 -0.6495
vn 0.6938 0.4262 -0.5805
vn -0.0001 0.5920 -0.8060
vn 0.9996 0.0160 -0.0218
vn 0.7209 -0.4093 0.5592
vn 0.0001 -0.5903 0.8072
vn -0.7210 -0.4093 0.5592
vn -0.9996 0.0161 -0.0219
vn -0.6938 0.4261 -0.5805
vn 0.6924 0.5507 -0.4662
vn -0.0001 0.7633 -0.6461
vn 0.9995 0.0230 -0.0195
vn 0.7226 -0.5273 0.4470
vn 0.0000 -0.7626 0.6469
vn -0.7226 -0.5272 0.4471
vn -0.9995 0.0230 -0.0196
vn -0.6924 0.5506 -0.4662
vn 0.6921 0.6491 -0.3157
vn 0.0000 0.8991 -0.4378
vn 0.9995 0.0279 -0.0135
vn 0.7231 -0.6217 0.3011
vn -0.0001 -0.9001 0.4357
vn -0.7231 -0.6216 0.3014
vn -0.9995 0.0277 -0.0134
vn -0.6921 0.6490 -0.3159
vn 0.6949 0.7008 -0.1612
vn -0.0000 0.9746 -0.2241
vn 0.9997 0.0236 -0.0052
vn 0.7190 -0.6773 0.1562
vn 0.0000 -0.9745 0.2242
vn -0.7190 -0.6774 0.1556
vn -0.9997 0.0236 -0.0051
vn -0.6949 0.7009 -0.1607
vn 0.6844 0.7274 0.0504
vn -0.0000 0.9978 0.0666
vn 0.9989 0.0473 0.0051
vn 0.7319 -0.6797 -0.0475
vn -0.0001 -0.9975 -0.0705
vn -0.7320 -0.6797 -0.0466
vn -0.9989 0.0473 0.0050
vn -0.6844 0.7274 0.0498
vn 0.6880 0.6623 0.2965
vn 0.0001 0.9122 0.4098
vn 0.9992 0.0363 0.0146
vn 0.7267 -0.6260 -0.2829
vn -0.0003 -0.9113 -0.4117
vn -0.7267 -0.6259 -0.2831
vn -0.9993 0.0359 0.0144
vn -0.6880 0.6623 0.2967
vn 0.7008 0.5757 0.4212
vn 0.0001 0.8068 0.5908
vn 0.9999 0.0102 0.0068
vn 0.7130 -0.5654 -0.4147
vn -0.0001 -0.8064 -0.5913
vn -0.7130 -0.5653 -0.4149
vn -0.9999 0.0100 0.0067
vn -0.7008 0.5756 0.4213
vn 0.7052 0.5503 0.4470
vn 0.0000 0.7762 0.6304
vn 1.0000 0.0029 0.0024
vn 0.7089 -0.5474 -0.4448
vn 0.0000 -0.7762 -0.6305
vn -0.7089 -0.5474 -0.4447
vn -1.0000 0.0029 0.0023
vn -0.7053 0.5502 0.4470
vn -0.0010 -0.4091 -0.9125
vn 0.0004 -0.5268 -0.8500
vn -0.2414 -0.4986 -0.8325
vn -0.3395 -0.3597 -0.8691
vn 0.6402 -0.1148 0.7595
vn 0.7124 -0.2589 0.6523
vn 0.9099 0.3965 -0.1219
vn 0.8161 0.5776 0.0192
vn 0.7380 -0.4107 0.5354
vn 0.9418 0.2067 -0.2651
vn 0.3717 0.1087 0.9220
vn 0.5233 0.0087 0.8521
vn 0.6661 0.7336 0.1348
vn 0.4702 0.8548 0.2198
vn -0.0007 0.1969 0.9804
vn 0.1928 0.1728 0.9659
vn 0.2397 0.9333 0.2673
vn 0.0004 0.9597 0.2812
vn 0.3341 0.9337 0.1286
vn 0.2520 0.9419 -0.2219
vn -0.0009 0.9834 -0.1813
vn -0.0010 0.9855 0.1697
vn 0.6219 0.7831 0.0031
vn 0.4731 0.8284 -0.3000
vn 0.7122 -0.5630 0.4193
vn 0.9106 0.0101 -0.4133
vn 0.6399 -0.7040 0.3081
vn 0.8136 -0.1675 -0.5568
vn 0.8155 0.0121 -0.5786
vn 0.6114 0.2551 -0.7491
vn 0.6697 0.4518 -0.5894
vn 0.8828 0.2894 -0.3700
vn 0.5226 -0.8256 0.2129
vn 0.6671 -0.3167 -0.6743
vn 0.3717 -0.9185 0.1349
vn 0.4706 -0.4343 -0.7681
vn 0.6267 -0.2068 -0.7513
vn 0.4728 0.0755 -0.8779
vn -0.0016 -0.0791 -0.9969
vn 0.2524 -0.0294 -0.9672
vn 0.3369 -0.3608 -0.8697
vn 0.2427 -0.5033 -0.8293
vn -0.3809 -0.9171 0.1175
vn -0.5397 -0.8208 0.1872
vn -0.6563 -0.2980 -0.6931
vn -0.4648 -0.4198 -0.7796
vn -0.6629 -0.6946 0.2794
vn -0.8032 -0.1422 -0.5785
vn -0.6229 -0.2041 -0.7552
vn -0.4740 0.0774 -0.8771
vn -0.2551 -0.0284 -0.9665
vn -0.7394 -0.5484 0.3905
vn -0.8947 0.0418 -0.4448
vn -0.7668 -0.3907 0.5093
vn -0.9257 0.2281 -0.3016
vn -0.7396 -0.2349 0.6307
vn -0.8954 0.4189 -0.1511
vn -0.6632 -0.0894 0.7430
vn -0.8004 0.5993 -0.0149
vn -0.8152 0.5561 -0.1617
vn -0.6115 0.6574 -0.4403
vn -0.6697 0.4523 -0.5890
vn -0.8824 0.2830 -0.3759
vn -0.5403 0.0323 0.8408
vn -0.6573 0.7465 0.1031
vn -0.3814 0.1246 0.9160
vn -0.4648 0.8620 0.2023
vn -0.6280 0.7782 0.0050
vn -0.4742 0.8272 -0.3016
vn -0.1960 0.1778 0.9644
vn -0.2379 0.9354 0.2616
vn -0.0007 -0.9979 0.0650
vn -0.1965 -0.9773 0.0791
vn 0.8186 0.5500 -0.1657
vn 0.1926 -0.9776 0.0846
vn -0.8181 0.0185 -0.5747
vn -0.3366 0.9329 0.1278
vn -0.4011 -0.9117 0.0892
vn -0.1728 -0.9835 0.0535
vn -0.2648 -0.9502 0.1643
vn 0.1995 -0.9673 0.1566
vn -0.0213 -0.9973 0.0697
vn 0.1559 -0.9121 0.3791
vn 0.6026 -0.7135 0.3575
vn 0.4511 -0.7281 0.5161
vn -0.5972 -0.1306 0.7914
vn -0.5144 0.0252 0.8572
vn -0.6711 -0.0777 0.7373
vn -0.2763 0.0827 0.9575
vn -0.4073 0.1232 0.9049
vn -0.7173 -0.4357 0.5438
vn -0.5135 -0.5231 0.6802
vn -0.4428 -0.2963 0.8462
vn -0.2006 -0.1343 0.9704
vn -0.1919 0.2198 0.9565
vn 0.1681 0.1195 0.9785
vn -0.0047 0.2168 0.9762
vn 0.1106 -0.1175 0.9869
vn 0.2007 0.2155 0.9557
vn 0.3917 0.1038 0.9142
vn 0.4986 -0.0080 0.8668
vn 0.5308 0.0694 0.8447
vn 0.6928 -0.3246 0.6440
vn 0.6825 -0.0720 0.7274
vn 0.3597 -0.2381 0.9022
vn 0.5102 -0.4521 0.7316
vn 0.7556 -0.2185 0.6176
vn 0.7523 -0.4174 0.5098
vn 0.7321 -0.5395 0.4159
vn 0.6766 -0.6900 0.2572
vn 0.5169 -0.8346 0.1903
vn 0.3917 -0.9103 0.1340
vn 0.0000 -0.6088 0.7933
vn -0.0000 -0.6087 0.7934
vn -0.1970 -0.8976 0.3943
vn -0.6058 -0.7212 0.3360
vn -0.5384 -0.8231 0.1807
vn -0.6713 -0.6919 0.2655
vn -0.4334 -0.7428 0.5103
vn -0.7257 -0.5431 0.4224
vn -0.7725 -0.4061 0.4881
vn -0.7489 -0.2175 0.6259
vn -0.0181 0.5928 -0.8051
vn -0.6116 0.2546 -0.7491
vn -0.0277 0.6089 -0.7927
vn -0.0202 0.6231 -0.7819
vn -0.2556 0.9409 -0.2221
vn 0.0005 0.6307 -0.7760
vn 0.0182 0.6246 -0.7807
vn 0.6117 0.6576 -0.4397
vn 0.0276 0.6083 -0.7932
vn 0.0199 0.5943 -0.8040
vn -0.0004 0.5869 -0.8097
vn -0.6569 -0.3615 -0.6617
vn -0.9509 0.1697 -0.2588
vn -0.9508 0.1677 -0.2604
vn -0.6554 -0.3626 -0.6625
vn -0.6880 0.7098 0.1511
vn -0.0241 0.9439 0.3294
vn -0.0239 0.9439 0.3293
vn -0.6893 0.7088 0.1503
vn 0.6542 0.7364 0.1725
vn 0.9511 0.2075 -0.2290
vn 0.9511 0.2054 -0.2305
vn 0.6556 0.7353 0.1717
vn 0.6909 -0.3347 -0.6408
vn 0.0240 -0.5711 -0.8205
vn 0.0243 -0.5710 -0.8206
vn 0.6897 -0.3357 -0.6416
vn -0.0001 -0.6087 0.7934
vn -0.0000 -0.6090 0.7932
vn 0.0001 -0.6087 0.7934
vn 0.0000 -0.6088 0.7934
vn -0.0002 -0.6087 0.7934
vn 0.0001 -0.6088 0.7933
vn 0.2009 -0.9789 0.0382
vn -0.0001 -0.6088 0.7933
vn -0.0001 -0.6088 0.7934
vn -0.0003 -0.6087 0.7934
vn 0.1884 -0.5956 0.7809
vn 0.1515 -0.6861 0.7116
vn 0.1418 -0.5093 0.8489
vn 0.0447 -0.4437 0.8950
vn -0.0683 -0.4442 0.8933
vn -0.1739 -0.5027 0.8468
vn -0.2022 -0.6024 0.7722
vn -0.1599 -0.7052 0.6908
vn -0.0556 -0.7475 0.6619
vn 0.0690 -0.7411 0.6679
vn -0.0000 0.6088 -0.7934
vn -0.0000 0.6087 -0.7934
vn 0.0000 0.6088 -0.7933
vn 0.0000 -0.6133 -0.7898
vn 0.0000 -0.2650 -0.9643
vn -0.4650 -0.1415 -0.8739
vn -0.5647 -0.4621 -0.6838
vn -0.9129 -0.0712 -0.4019
vn -0.7541 0.1756 -0.6329
vn -0.5614 0.7813 0.2728
vn -0.9132 0.4059 -0.0373
vn -0.7570 0.5656 -0.3271
vn -0.4684 0.8800 -0.0792
vn -0.0000 -0.3663 -0.9305
vn -0.5037 -0.2418 -0.8294
vn -0.8218 0.0937 -0.5621
vn -0.8224 0.5185 -0.2340
vn -0.5065 0.8619 0.0250
vn -0.0000 -0.7528 -0.6582
vn -0.5864 -0.6019 -0.5422
vn -0.9490 -0.2066 -0.2382
vn -0.9493 0.2825 0.1377
vn -0.5869 0.6783 0.4420
vn 0.0000 -0.9825 -0.1863
vn 0.0000 -0.9681 0.2508
vn -0.3622 -0.8748 0.3216
vn -0.5249 -0.8471 -0.0830
vn -0.8500 -0.4922 0.1877
vn -0.5876 -0.6299 0.5078
vn -0.5262 0.3033 0.7944
vn -0.8508 -0.0528 0.5228
vn -0.5896 -0.3254 0.7393
vn -0.3653 -0.0775 0.9276
vn 0.0035 -0.8565 0.5161
vn -0.2163 -0.8030 0.5554
vn -0.3528 -0.6535 0.6696
vn -0.3542 -0.4757 0.8051
vn -0.2113 -0.3283 0.9206
vn 0.0000 0.9999 0.0145
vn 0.0000 0.9193 0.3936
vn -0.0000 0.9925 0.1226
vn -0.0000 0.8296 0.5583
vn 0.0000 0.4395 0.8983
vn 0.0000 0.0175 0.9998
vn -0.0036 -0.2704 0.9627
vn 0.5647 -0.4621 -0.6838
vn 0.4650 -0.1416 -0.8739
vn 0.9129 -0.0712 -0.4019
vn 0.7541 0.1756 -0.6328
vn 0.5614 0.7813 0.2728
vn 0.4684 0.8800 -0.0792
vn 0.7571 0.5656 -0.3271
vn 0.9132 0.4059 -0.0373
vn 0.5037 -0.2418 -0.8294
vn 0.8217 0.0938 -0.5621
vn 0.5065 0.8619 0.0250
vn 0.8224 0.5186 -0.2340
vn 0.5863 -0.6019 -0.5422
vn 0.9490 -0.2065 -0.2383
vn 0.5869 0.6784 0.4420
vn 0.9493 0.2825 0.1376
vn 0.5249 -0.8471 -0.0830
vn 0.3622 -0.8748 0.3216
vn 0.8500 -0.4922 0.1877
vn 0.5876 -0.6299 0.5078
vn 0.5263 0.3033 0.7944
vn 0.3653 -0.0776 0.9276
vn 0.5896 -0.3254 0.7393
vn 0.8508 -0.0528 0.5228
vn 0.2092 -0.8019 0.5597
vn 0.3529 -0.6535 0.6696
vn 0.2185 -0.3238 0.9205
vn 0.3542 -0.4757 0.8051
vn -0.1372 -0.6607 0.7380
vn -0.1347 -0.5362 0.8333
vn -0.0154 -0.4686 0.8833
vn 0.0152 -0.7310 0.6822
vn 0.1344 -0.6656 0.7341
vn 0.1375 -0.5413 0.8295
vn -0.9511 -0.2451 -0.1881
vn -0.5878 -0.6418 -0.4925
vn -0.5878 0.6418 0.4925
vn -0.9511 0.2451 0.1881
vn 0.0000 0.7933 0.6088
vn 0.0000 -0.7933 -0.6088
vn 0.5877 -0.6419 -0.4925
vn 0.9511 -0.2452 -0.1881
vn 0.9511 0.2452 0.1881
vn 0.5878 0.6418 0.4925
vn 0.0002 -0.6088 0.7933
vn -0.9511 -0.2452 -0.1881
vn -0.9153 -0.0706 -0.3965
vn -0.5657 -0.4524 -0.6894
vn -0.9510 0.2452 0.1881
vn -0.5657 0.7831 0.2585
vn -0.9153 0.4013 -0.0344
vn -0.0000 0.7934 0.6088
vn -0.0000 0.9289 0.3704
vn 0.0000 -0.7934 -0.6088
vn 0.0000 -0.5982 -0.8013
vn 0.5878 -0.6418 -0.4925
vn 0.5657 -0.4524 -0.6894
vn 0.9511 -0.2451 -0.1881
vn 0.9153 -0.0706 -0.3965
vn 0.9153 0.4012 -0.0344
vn 0.5657 0.7830 0.2585
vn -0.6489 0.2827 -0.7064
vn -0.3889 0.0142 -0.9212
vn -0.3993 0.8838 -0.2437
vn -0.6489 0.6092 -0.4559
vn 0.0061 0.9852 -0.1712
vn -0.0061 -0.0896 -0.9960
vn 0.3994 0.0066 -0.9168
vn 0.6489 0.2827 -0.7064
vn 0.6490 0.6091 -0.4559
vn 0.3889 0.8861 -0.2522
vn -0.2502 0.4620 -0.8509
vn -0.2545 0.6937 -0.6738
vn 0.0238 0.8211 -0.5703
vn -0.0239 0.3383 -0.9407
vn 0.2546 0.4713 -0.8444
vn 0.2502 0.7023 -0.6665
vn 0.7071 -0.5792 -0.4056
vn 0.6186 -0.2289 -0.7516
vn 0.8749 0.2778 -0.3967
vn 0.0000 -0.8191 -0.5736
vn -0.0000 -0.4388 -0.8986
vn -0.7071 -0.5792 -0.4056
vn -0.6186 -0.2289 -0.7516
vn -0.8749 0.2778 -0.3967
vn -0.7071 0.5792 0.4056
vn -0.6187 0.7845 -0.0419
vn 0.0000 0.8192 0.5736
vn 0.0000 0.9945 0.1051
vn 0.7071 0.5792 0.4056
vn 0.6187 0.7845 -0.0419
vn 0.1895 0.3974 -0.8979
vn 0.2680 0.5526 -0.7892
vn -0.0000 0.3331 -0.9429
vn -0.1895 0.3974 -0.8979
vn -0.2680 0.5526 -0.7892
vn -0.1895 0.7078 -0.6805
vn -0.0000 0.7721 -0.6355
vn 0.1894 0.7078 -0.6805
vn 0.0002 0.5734 -0.8192
vn -0.0000 0.5736 -0.8191
vn -0.0000 0.5733 -0.8193
vn -0.0002 0.5734 -0.8193
vn -0.0000 0.5735 -0.8192
vn 0.0000 0.5737 -0.8191
vn 0.7071 0.0000 -0.7071
vn 0.6354 0.4388 -0.6354
vn 0.8986 0.4388 0.0000
vn -0.0000 0.0000 -1.0000
vn -0.0000 0.4388 -0.8986
vn -0.7071 0.0000 -0.7071
vn -0.6354 0.4388 -0.6354
vn -0.8986 0.4388 0.0000
vn -0.7071 -0.0000 0.7071
vn -0.6354 0.4388 0.6354
vn -0.0000 -0.0000 1.0000
vn -0.0000 0.4388 0.8986
vn 0.7071 -0.0000 0.7071
vn 0.6354 0.4388 0.6354
vn 0.2399 0.9407 -0.2399
vn 0.3393 0.9407 0.0000
vn -0.0000 0.9407 -0.3393
vn -0.2399 0.9407 -0.2399
vn -0.3393 0.9407 0.0000
vn -0.2399 0.9407 0.2399
vn -0.0000 0.9407 0.3393
vn 0.2399 0.9407 0.2399
usemtl Default_OBJ
s 1
f 1/1/1 2/2/2 3/3/3
f 4/4/4 5/5/5 3/3/3
f 3/3/3 6/6/6 7/7/7
f 3/3/3 7/7/7 8/8/8
f 3/3/3 9/9/9 10/10/10
f 11/11/11 12/12/12 3/3/3
f 3/3/3 13/13/13 14/14/14
f 15/15/15 4/4/4 3/3/3
f 3/3/3 14/14/14 16/16/16
f 17/17/17 18/18/18 3/3/3
f 19/19/19 3/3/3 20/20/20
f 21/21/21 15/15/15 3/3/3
f 3/3/3 16/16/16 22/22/22
f 22/22/22 17/17/17 3/3/3
f 3/3/3 23/23/23 21/21/21
f 22/24/22 16/25/16 24/26/24
f 24/26/24 25/27/25 22/24/22
f 17/28/17 22/24/22 25/27/25
f 25/27/25 26/29/26 17/28/17
f 14/30/14 13/31/13 27/32/27
f 27/32/27 28/33/28 14/30/14
f 16/25/16 14/30/14 28/33/28
f 28/33/28 24/26/24 16/25/16
f 10/34/10 9/35/9 29/36/29
f 29/36/29 30/37/30 10/34/10
f 13/31/13 10/34/10 30/37/30
f 30/37/30 27/32/27 13/31/13
f 18/38/18 17/28/17 26/29/26
f 26/29/26 31/39/31 18/38/18
f 11/40/11 18/38/18 31/39/31
f 31/39/31 32/41/32 11/40/11
f 12/42/12 11/40/11 32/41/32
f 32/41/32 33/43/33 12/42/12
f 20/44/20 12/42/12 33/43/33
f 33/43/33 34/45/34 20/44/20
f 21/46/21 23/47/23 35/48/35
f 35/48/35 36/49/36 21/46/21
f 15/50/15 21/46/21 36/49/36
f 36/49/36 37/51/37 15/50/15
f 4/52/4 15/50/15 37/51/37
f 37/51/37 38/53/38 4/52/4
f 5/54/5 4/52/4 38/53/38
f 38/53/38 39/55/39 5/54/5
f 40/56/40 5/54/5 39/55/39
f 39/55/39 41/57/41 40/56/40
f 6/58/6 40/56/40 41/57/41
f 41/57/41 42/59/42 6/58/6
f 7/60/7 6/58/6 42/59/42
f 42/59/42 43/61/43 7/60/7
f 8/62/8 7/60/7 43/61/43
f 43/61/43 44/63/44 8/62/8
f 45/64/45 8/65/8 44/66/44
f 44/66/44 46/67/46 45/64/45
f 9/35/9 45/64/45 46/67/46
f 46/67/46 29/36/29 9/35/9
f 2/68/2 1/69/1 47/70/47
f 47/70/47 48/71/48 2/68/2
f 23/47/23 2/68/2 48/71/48
f 48/71/48 35/48/35 23/47/23
f 19/72/19 20/44/20 34/45/34
f 34/45/34 49/73/49 19/72/19
f 1/69/1 19/72/19 49/73/49
f 49/73/49 47/70/47 1/69/1
f 12/12/12 20/20/20 3/3/3
f 8/8/8 45/74/45 3/3/3
f 50/75/50 51/76/51 52/77/52
f 52/77/52 53/78/53 50/75/50
f 54/79/54 55/80/55 56/81/56
f 56/81/56 57/82/57 54/79/54
f 50/75/50 57/83/57 56/84/56
f 56/84/56 51/76/51 50/75/50
f 58/85/58 59/86/59 60/87/60
f 60/87/60 61/88/61 58/85/58
f 61/88/61 60/87/60 62/89/62
f 62/89/62 63/90/63 61/88/61
f 62/89/62 52/77/52 64/91/64
f 64/91/64 63/90/63 62/89/62
f 52/77/52 51/76/51 65/92/65
f 65/92/65 64/91/64 52/77/52
f 51/76/51 56/84/56 66/93/66
f 66/93/66 65/92/65 51/76/51
f 56/81/56 55/80/55 67/94/67
f 67/94/67 66/95/66 56/81/56
f 55/80/55 68/96/68 69/97/69
f 69/97/69 67/94/67 55/80/55
f 55/80/55 54/79/54 70/98/70
f 70/98/70 68/96/68 55/80/55
f 68/96/68 59/86/59 58/85/58
f 58/85/58 69/97/69 68/96/68
f 59/86/59 68/96/68 70/98/70
f 70/98/70 71/99/71 59/86/59
f 52/77/52 62/89/62 72/100/72
f 72/100/72 53/78/53 52/77/52
f 62/89/62 60/87/60 73/101/73
f 73/101/73 72/100/72 62/89/62
f 60/87/60 59/86/59 71/99/71
f 71/99/71 73/101/73 60/87/60
f 74/102/74 75/103/75 72/100/72
f 72/100/72 73/101/73 74/102/74
f 76/104/76 77/105/77 78/106/78
f 78/106/78 79/107/79 76/104/76
f 76/104/76 80/108/80 81/109/81
f 81/109/81 77/105/77 76/104/76
f 82/110/82 83/111/83 84/112/84
f 84/112/84 85/113/85 82/110/82
f 82/110/82 79/107/79 78/106/78
f 78/106/78 83/111/83 82/110/82
f 86/114/86 87/115/87 88/116/88
f 88/116/88 89/117/89 86/114/86
f 86/114/86 85/118/85 84/112/84
f 84/112/84 87/115/87 86/114/86
f 80/108/80 90/119/90 91/120/91
f 91/120/91 81/109/81 80/108/80
f 90/121/90 92/122/92 93/123/93
f 93/123/93 91/124/91 90/121/90
f 92/122/92 94/125/94 95/126/95
f 95/126/95 93/123/93 92/122/92
f 94/125/94 96/127/96 97/128/97
f 97/128/97 95/126/95 94/125/94
f 98/129/98 99/130/99 100/131/100
f 100/131/100 101/132/101 98/129/98
f 98/129/98 102/133/102 103/134/103
f 103/134/103 99/130/99 98/129/98
f 102/135/102 104/136/104 105/137/105
f 105/137/105 103/134/103 102/135/102
f 104/136/104 106/138/106 107/139/107
f 107/139/107 105/137/105 104/136/104
f 106/138/106 108/140/108 74/102/74
f 74/102/74 107/139/107 106/138/106
f 108/141/108 109/142/109 75/103/75
f 75/103/75 74/102/74 108/141/108
f 109/142/109 110/143/110 111/144/111
f 111/144/111 75/103/75 109/142/109
f 110/143/110 112/145/112 113/146/113
f 113/146/113 111/144/111 110/143/110
f 112/145/112 114/147/114 115/148/115
f 115/148/115 113/146/113 112/145/112
f 114/147/114 89/149/89 88/116/88
f 88/116/88 115/148/115 114/147/114
f 116/150/116 71/99/71 117/151/117
f 117/151/117 118/152/118 116/150/116
f 118/152/118 119/153/119 120/154/120
f 120/154/120 116/150/116 118/152/118
f 100/131/100 71/99/71 116/150/116
f 117/151/117 71/99/71 70/98/70
f 70/98/70 97/128/97 117/151/117
f 96/127/96 121/155/121 117/151/117
f 117/151/117 97/128/97 96/127/96
f 81/109/81 91/120/91 57/83/57
f 57/83/57 77/105/77 81/109/81
f 78/106/78 77/105/77 50/75/50
f 50/75/50 83/111/83 78/106/78
f 84/112/84 53/78/53 87/115/87
f 93/123/93 54/79/54 57/82/57
f 57/82/57 91/124/91 93/123/93
f 97/128/97 70/98/70 54/79/54
f 54/79/54 95/126/95 97/128/97
f 93/123/93 95/126/95 54/79/54
f 103/134/103 73/101/73 99/130/99
f 100/131/100 99/130/99 73/101/73
f 73/101/73 71/99/71 100/131/100
f 107/139/107 74/102/74 73/101/73
f 73/101/73 105/137/105 107/139/107
f 103/134/103 105/137/105 73/101/73
f 100/131/100 116/150/116 120/154/120
f 120/154/120 101/132/101 100/131/100
f 118/152/118 117/151/117 121/155/121
f 121/155/121 119/156/119 118/152/118
f 76/157/3 79/158/3 24/159/3
f 24/159/3 28/160/3 76/157/3
f 80/161/3 76/157/3 28/160/3
f 28/160/3 27/162/3 80/161/3
f 82/163/3 85/164/3 26/165/3
f 26/165/3 25/166/3 82/163/3
f 79/158/3 82/163/3 25/166/3
f 25/166/3 24/159/3 79/158/3
f 86/167/3 89/168/3 32/169/3
f 32/169/3 31/170/3 86/167/3
f 85/164/3 86/167/3 31/170/3
f 31/170/3 26/165/3 85/164/3
f 90/171/3 80/161/3 27/162/3
f 27/162/3 30/172/3 90/171/3
f 92/173/3 90/171/3 30/172/3
f 30/172/3 29/174/3 92/173/3
f 94/175/3 92/173/3 29/174/3
f 29/174/3 46/176/3 94/175/3
f 96/177/3 94/175/3 46/176/3
f 46/176/3 44/178/3 96/177/3
f 98/179/3 101/180/3 39/181/3
f 39/181/3 38/182/3 98/179/3
f 102/183/3 98/179/3 38/182/3
f 38/182/3 37/184/3 102/183/3
f 104/185/3 102/183/3 37/184/3
f 37/184/3 36/186/3 104/185/3
f 106/187/3 104/185/3 36/186/3
f 36/186/3 35/188/3 106/187/3
f 108/189/3 106/187/3 35/188/3
f 35/188/3 48/190/3 108/189/3
f 109/191/3 108/189/3 48/190/3
f 48/190/3 47/192/3 109/191/3
f 110/193/3 109/191/3 47/192/3
f 47/192/3 49/194/3 110/193/3
f 112/195/3 110/193/3 49/194/3
f 49/194/3 34/196/3 112/195/3
f 114/197/3 112/195/3 34/196/3
f 34/196/3 33/198/3 114/197/3
f 89/168/3 114/197/3 33/198/3
f 33/198/3 32/169/3 89/168/3
f 120/199/3 119/200/3 42/201/3
f 42/201/3 41/202/3 120/199/3
f 101/180/3 120/199/3 41/202/3
f 41/202/3 39/181/3 101/180/3
f 121/203/3 96/204/3 44/205/3
f 44/205/3 43/206/3 121/203/3
f 119/200/3 121/203/3 43/206/3
f 43/206/3 42/201/3 119/200/3
f 18/18/18 11/11/11 3/3/3
f 2/2/2 23/23/23 3/3/3
f 5/5/5 40/207/40 3/3/3
f 3/3/3 40/207/40 6/6/6
f 3/3/3 45/74/45 9/9/9
f 3/3/3 10/10/10 13/13/13
f 58/208/58 61/209/61 122/210/122
f 122/210/122 123/211/123 58/208/58
f 61/209/61 63/212/63 124/213/124
f 124/213/124 122/210/122 61/209/61
f 63/212/63 64/214/64 125/215/125
f 125/215/125 124/213/124 63/212/63
f 64/214/64 65/216/65 126/217/126
f 126/217/126 125/215/125 64/214/64
f 66/218/66 67/219/67 127/220/127
f 127/220/127 128/221/128 66/218/66
f 65/216/65 66/218/66 128/221/128
f 128/221/128 126/217/126 65/216/65
f 67/222/67 69/223/69 129/224/129
f 129/224/129 127/220/127 67/222/67
f 69/223/69 58/208/58 123/211/123
f 123/211/123 129/224/129 69/223/69
f 123/211/123 122/210/122 130/225/130
f 122/210/122 124/213/124 130/225/130
f 124/213/124 125/215/125 130/225/130
f 125/215/125 126/217/126 130/225/130
f 128/221/128 127/220/127 130/225/130
f 126/217/126 128/221/128 130/225/130
f 127/220/127 129/224/129 130/225/130
f 129/224/129 123/211/123 130/225/130
f 75/103/75 111/144/111 72/100/72
f 111/144/111 115/148/115 72/100/72
f 57/83/57 50/75/50 77/105/77
f 53/78/53 84/112/84 83/111/83
f 83/111/83 50/75/50 53/78/53
f 87/115/87 53/78/53 72/100/72
f 72/100/72 88/116/88 87/115/87
f 111/144/111 113/146/113 115/148/115
f 115/148/115 88/116/88 72/100/72
f 19/19/19 1/1/1 3/3/3
f 131/226/131 132/227/132 133/228/133
f 133/228/133 134/229/134 131/226/131
f 135/230/135 136/231/136 132/227/132
f 132/227/132 131/226/131 135/230/135
f 137/232/137 138/233/138 136/231/136
f 136/231/136 135/230/135 137/232/137
f 139/234/139 140/235/140 138/233/138
f 138/233/138 137/232/137 139/234/139
f 141/236/141 142/237/142 140/238/140
f 140/238/140 139/239/139 141/236/141
f 143/240/143 144/241/144 142/237/142
f 142/237/142 141/236/141 143/240/143
f 145/242/145 146/243/146 144/241/144
f 144/241/144 143/240/143 145/242/145
f 134/229/134 133/228/133 146/243/146
f 146/243/146 145/242/145 134/229/134
f 147/244/147 131/226/131 134/229/134
f 134/229/134 148/245/148 147/244/147
f 149/246/149 135/230/135 131/226/131
f 131/226/131 147/244/147 149/246/149
f 150/247/150 137/232/137 135/230/135
f 135/230/135 149/246/149 150/247/150
f 151/248/151 139/234/139 137/232/137
f 137/232/137 150/247/150 151/248/151
f 152/249/152 141/236/141 139/239/139
f 139/239/139 151/250/151 152/249/152
f 153/251/153 143/240/143 141/236/141
f 141/236/141 152/249/152 153/251/153
f 154/252/154 145/242/145 143/240/143
f 143/240/143 153/251/153 154/252/154
f 148/245/148 134/229/134 145/242/145
f 145/242/145 154/252/154 148/245/148
f 155/253/155 147/244/147 148/245/148
f 148/245/148 156/254/156 155/253/155
f 157/255/157 149/246/149 147/244/147
f 147/244/147 155/253/155 157/255/157
f 158/256/158 150/247/150 149/246/149
f 149/246/149 157/255/157 158/256/158
f 159/257/159 151/248/151 150/247/150
f 150/247/150 158/256/158 159/257/159
f 160/258/160 152/249/152 151/250/151
f 151/250/151 159/259/159 160/258/160
f 161/260/161 153/251/153 152/249/152
f 152/249/152 160/258/160 161/260/161
f 162/261/162 154/252/154 153/251/153
f 153/251/153 161/260/161 162/261/162
f 156/254/156 148/245/148 154/252/154
f 154/252/154 162/261/162 156/254/156
f 163/262/163 155/253/155 156/254/156
f 156/254/156 164/263/164 163/262/163
f 165/264/165 157/255/157 155/253/155
f 155/253/155 163/262/163 165/264/165
f 166/265/166 158/256/158 157/255/157
f 157/255/157 165/264/165 166/265/166
f 167/266/167 159/257/159 158/256/158
f 158/256/158 166/265/166 167/266/167
f 168/267/168 160/258/160 159/259/159
f 159/259/159 167/268/167 168/267/168
f 169/269/169 161/260/161 160/258/160
f 160/258/160 168/267/168 169/269/169
f 170/270/170 162/261/162 161/260/161
f 161/260/161 169/269/169 170/270/170
f 164/263/164 156/254/156 162/261/162
f 162/261/162 170/270/170 164/263/164
f 171/271/171 163/262/163 164/263/164
f 164/263/164 172/272/172 171/271/171
f 173/273/173 165/264/165 163/262/163
f 163/262/163 171/271/171 173/273/173
f 174/274/174 166/265/166 165/264/165
f 165/264/165 173/273/173 174/274/174
f 175/275/175 167/266/167 166/265/166
f 166/265/166 174/274/174 175/275/175
f 176/276/176 168/267/168 167/268/167
f 167/268/167 175/277/175 176/276/176
f 177/278/177 169/269/169 168/267/168
f 168/267/168 176/276/176 177/278/177
f 178/279/178 170/270/170 169/269/169
f 169/269/169 177/278/177 178/279/178
f 172/272/172 164/263/164 170/270/170
f 170/270/170 178/279/178 172/272/172
f 179/280/179 171/271/171 172/272/172
f 172/272/172 180/281/180 179/280/179
f 181/282/181 173/273/173 171/271/171
f 171/271/171 179/280/179 181/282/181
f 182/283/182 174/274/174 173/273/173
f 173/273/173 181/282/181 182/283/182
f 183/284/183 175/275/175 174/274/174
f 174/274/174 182/283/182 183/284/183
f 184/285/184 176/276/176 175/277/175
f 175/277/175 183/286/183 184/285/184
f 185/287/185 177/278/177 176/276/176
f 176/276/176 184/285/184 185/287/185
f 186/288/186 178/279/178 177/278/177
f 177/278/177 185/287/185 186/288/186
f 180/281/180 172/272/172 178/279/178
f 178/279/178 186/288/186 180/281/180
f 187/289/187 179/280/179 180/281/180
f 180/281/180 188/290/188 187/289/187
f 189/291/189 181/282/181 179/280/179
f 179/280/179 187/289/187 189/291/189
f 190/292/190 182/283/182 181/282/181
f 181/282/181 189/291/189 190/292/190
f 191/293/191 183/284/183 182/283/182
f 182/283/182 190/292/190 191/293/191
f 192/294/192 184/285/184 183/286/183
f 183/286/183 191/295/191 192/294/192
f 193/296/193 185/287/185 184/285/184
f 184/285/184 192/294/192 193/296/193
f 194/297/194 186/288/186 185/287/185
f 185/287/185 193/296/193 194/297/194
f 188/290/188 180/281/180 186/288/186
f 186/288/186 194/297/194 188/290/188
f 195/298/195 187/289/187 188/290/188
f 188/290/188 196/299/196 195/298/195
f 197/300/197 189/291/189 187/289/187
f 187/289/187 195/298/195 197/300/197
f 198/301/198 190/292/190 189/291/189
f 189/291/189 197/300/197 198/301/198
f 199/302/199 191/293/191 190/292/190
f 190/292/190 198/301/198 199/302/199
f 200/303/200 192/294/192 191/295/191
f 191/295/191 199/304/199 200/303/200
f 201/305/201 193/296/193 192/294/192
f 192/294/192 200/303/200 201/305/201
f 202/306/202 194/297/194 193/296/193
f 193/296/193 201/305/201 202/306/202
f 196/299/196 188/290/188 194/297/194
f 194/297/194 202/306/202 196/299/196
f 203/307/203 195/308/195 196/309/196
f 196/309/196 204/310/204 203/307/203
f 205/311/205 197/312/197 195/308/195
f 195/308/195 203/307/203 205/311/205
f 206/313/206 198/314/198 197/312/197
f 197/312/197 205/311/205 206/313/206
f 207/315/207 199/316/199 198/314/198
f 198/314/198 206/313/206 207/315/207
f 208/317/208 200/318/200 199/319/199
f 199/319/199 207/320/207 208/317/208
f 209/321/209 201/322/201 200/318/200
f 200/318/200 208/317/208 209/321/209
f 210/323/210 202/324/202 201/322/201
f 201/322/201 209/321/209 210/323/210
f 204/310/204 196/309/196 202/324/202
f 202/324/202 210/323/210 204/310/204
f 211/325/211 203/307/203 204/310/204
f 204/310/204 212/326/212 211/325/211
f 213/327/213 205/311/205 203/307/203
f 203/307/203 211/325/211 213/327/213
f 214/328/214 206/313/206 205/311/205
f 205/311/205 213/327/213 214/328/214
f 215/329/215 207/315/207 206/313/206
f 206/313/206 214/328/214 215/329/215
f 216/330/216 208/317/208 207/320/207
f 207/320/207 215/331/215 216/330/216
f 217/332/217 209/321/209 208/317/208
f 208/317/208 216/330/216 217/332/217
f 218/333/218 210/323/210 209/321/209
f 209/321/209 217/332/217 218/333/218
f 212/326/212 204/310/204 210/323/210
f 210/323/210 218/333/218 212/326/212
f 219/334/219 211/325/211 212/326/212
f 212/326/212 220/335/220 219/334/219
f 221/336/221 213/327/213 211/325/211
f 211/325/211 219/334/219 221/336/221
f 222/337/222 214/328/214 213/327/213
f 213/327/213 221/336/221 222/337/222
f 223/338/223 215/329/215 214/328/214
f 214/328/214 222/337/222 223/338/223
f 224/339/224 216/330/216 215/331/215
f 215/331/215 223/340/223 224/339/224
f 225/341/225 217/332/217 216/330/216
f 216/330/216 224/339/224 225/341/225
f 226/342/226 218/333/218 217/332/217
f 217/332/217 225/341/225 226/342/226
f 220/335/220 212/326/212 218/333/218
f 218/333/218 226/342/226 220/335/220
f 227/343/227 219/344/219 220/345/220
f 220/345/220 228/346/228 227/343/227
f 229/347/229 221/348/221 219/344/219
f 219/344/219 227/343/227 229/347/229
f 230/349/230 222/350/222 221/348/221
f 221/348/221 229/347/229 230/349/230
f 231/351/231 223/352/223 222/350/222
f 222/350/222 230/349/230 231/351/231
f 232/353/232 224/354/224 223/355/223
f 223/355/223 231/356/231 232/353/232
f 233/357/233 225/358/225 224/354/224
f 224/354/224 232/353/232 233/357/233
f 234/359/234 226/360/226 225/358/225
f 225/358/225 233/357/233 234/359/234
f 228/346/228 220/345/220 226/360/226
f 226/360/226 234/359/234 228/346/228
f 235/361/235 227/343/227 228/346/228
f 228/346/228 236/362/236 235/361/235
f 237/363/237 229/347/229 227/343/227
f 227/343/227 235/361/235 237/363/237
f 238/364/238 230/349/230 229/347/229
f 229/347/229 237/363/237 238/364/238
f 239/365/239 231/351/231 230/349/230
f 230/349/230 238/364/238 239/365/239
f 240/366/240 232/353/232 231/356/231
f 231/356/231 239/367/239 240/366/240
f 241/368/241 233/357/233 232/353/232
f 232/353/232 240/366/240 241/368/241
f 242/369/242 234/359/234 233/357/233
f 233/357/233 241/368/241 242/369/242
f 236/362/236 228/346/228 234/359/234
f 234/359/234 242/369/242 236/362/236
f 243/370/243 235/371/235 236/372/236
f 236/372/236 244/373/244 243/370/243
f 245/374/245 237/375/237 235/371/235
f 235/371/235 243/370/243 245/374/245
f 246/376/246 238/377/238 237/375/237
f 237/375/237 245/374/245 246/376/246
f 247/378/247 239/379/239 238/377/238
f 238/377/238 246/376/246 247/378/247
f 248/380/248 240/381/240 239/382/239
f 239/382/239 247/383/247 248/380/248
f 249/384/249 241/385/241 240/381/240
f 240/381/240 248/380/248 249/384/249
f 250/386/250 242/387/242 241/385/241
f 241/385/241 249/384/249 250/386/250
f 244/373/244 236/372/236 242/387/242
f 242/387/242 250/386/250 244/373/244
f 251/388/251 243/370/243 244/373/244
f 244/373/244 252/389/252 251/388/251
f 253/390/253 245/374/245 243/370/243
f 243/370/243 251/388/251 253/390/253
f 254/391/254 246/376/246 245/374/245
f 245/374/245 253/390/253 254/391/254
f 255/392/255 247/378/247 246/376/246
f 246/376/246 254/391/254 255/392/255
f 256/393/256 248/380/248 247/383/247
f 247/383/247 255/394/255 256/393/256
f 257/395/257 249/384/249 248/380/248
f 248/380/248 256/393/256 257/395/257
f 258/396/258 250/386/250 249/384/249
f 249/384/249 257/395/257 258/396/258
f 252/389/252 244/373/244 250/386/250
f 250/386/250 258/396/258 252/389/252
f 259/397/259 251/388/251 252/389/252
f 252/389/252 260/398/260 259/397/259
f 261/399/261 253/390/253 251/388/251
f 251/388/251 259/397/259 261/399/261
f 262/400/262 254/391/254 253/390/253
f 253/390/253 261/399/261 262/400/262
f 263/401/263 255/392/255 254/391/254
f 254/391/254 262/400/262 263/401/263
f 264/402/264 256/393/256 255/394/255
f 255/394/255 263/403/263 264/402/264
f 265/404/265 257/395/257 256/393/256
f 256/393/256 264/402/264 265/404/265
f 266/405/266 258/396/258 257/395/257
f 257/395/257 265/404/265 266/405/266
f 260/398/260 252/389/252 258/396/258
f 258/396/258 266/405/266 260/398/260
f 267/406/267 259/397/259 260/398/260
f 260/398/260 268/407/268 267/406/267
f 269/408/269 261/399/261 259/397/259
f 259/397/259 267/406/267 269/408/269
f 270/409/270 262/400/262 261/399/261
f 261/399/261 269/408/269 270/409/270
f 271/410/271 263/401/263 262/400/262
f 262/400/262 270/409/270 271/410/271
f 272/411/272 264/402/264 263/403/263
f 263/403/263 271/412/271 272/411/272
f 273/413/273 265/404/265 264/402/264
f 264/402/264 272/411/272 273/413/273
f 274/414/274 266/405/266 265/404/265
f 265/404/265 273/413/273 274/414/274
f 268/407/268 260/398/260 266/405/266
f 266/405/266 274/414/274 268/407/268
f 275/415/275 267/406/267 268/407/268
f 268/407/268 276/416/276 275/415/275
f 277/417/277 269/408/269 267/406/267
f 267/406/267 275/415/275 277/417/277
f 278/418/278 270/409/270 269/408/269
f 269/408/269 277/417/277 278/418/278
f 279/419/279 271/410/271 270/409/270
f 270/409/270 278/418/278 279/419/279
f 280/420/280 272/411/272 271/412/271
f 271/412/271 279/421/279 280/420/280
f 281/422/281 273/413/273 272/411/272
f 272/411/272 280/420/280 281/422/281
f 282/423/282 274/414/274 273/413/273
f 273/413/273 281/422/281 282/423/282
f 276/416/276 268/407/268 274/414/274
f 274/414/274 282/423/282 276/416/276
f 283/424/283 284/425/284 285/426/285
f 285/426/285 286/427/286 283/424/283
f 287/428/287 288/429/288 289/430/289
f 289/430/289 290/431/290 287/428/287
f 288/429/288 291/432/291 292/433/292
f 292/433/292 289/430/289 288/429/288
f 293/434/293 294/435/294 295/436/295
f 295/436/295 296/437/296 293/434/293
f 294/435/294 287/428/287 290/431/290
f 290/431/290 295/436/295 294/435/294
f 297/438/297 298/439/298 299/440/299
f 299/440/299 300/441/300 297/438/297
f 298/439/298 293/434/293 296/437/296
f 296/437/296 299/440/299 298/439/298
f 301/442/301 302/443/302 303/444/303
f 303/444/303 304/445/304 301/442/301
f 305/446/305 306/447/306 302/443/302
f 302/443/302 301/442/301 305/446/305
f 291/432/291 307/448/307 308/449/308
f 308/449/308 292/433/292 291/432/291
f 307/450/307 309/451/309 310/452/310
f 310/452/310 308/453/308 307/450/307
f 311/454/311 312/455/312 313/456/313
f 313/456/313 314/457/314 311/454/311
f 309/451/309 315/458/315 316/459/316
f 316/459/316 310/452/310 309/451/309
f 315/458/315 317/460/317 318/461/318
f 318/461/318 316/459/316 315/458/315
f 319/462/319 320/463/320 312/455/312
f 312/455/312 311/454/311 319/462/319
f 321/464/321 322/465/322 323/466/323
f 323/466/323 283/467/283 321/464/321
f 318/468/318 324/469/324 323/466/323
f 325/470/325 326/471/326 327/472/327
f 327/472/327 328/473/328 325/470/325
f 326/471/326 329/474/329 330/475/330
f 330/475/330 327/472/327 326/471/326
f 286/427/286 331/476/331 332/477/332
f 332/477/332 333/478/333 286/427/286
f 329/474/329 334/479/334 335/480/335
f 335/480/335 330/475/330 329/474/329
f 334/479/334 336/481/336 337/482/337
f 337/482/337 335/480/335 334/479/334
f 336/481/336 338/483/338 339/484/339
f 339/484/339 337/482/337 336/481/336
f 338/483/338 340/485/340 341/486/341
f 341/486/341 339/484/339 338/483/338
f 342/487/342 343/488/343 344/489/344
f 344/489/344 345/490/345 342/487/342
f 340/485/340 346/491/346 347/492/347
f 347/492/347 341/486/341 340/485/340
f 346/491/346 348/493/348 349/494/349
f 349/494/349 347/492/347 346/491/346
f 350/495/350 351/496/351 343/488/343
f 343/488/343 342/487/342 350/495/350
f 348/493/348 352/497/352 353/498/353
f 353/498/353 349/494/349 348/493/348
f 352/499/352 297/438/297 300/441/300
f 300/441/300 353/500/353 352/499/352
f 284/501/284 354/502/354 355/503/355
f 355/503/355 285/504/285 284/501/284
f 328/505/328 286/427/286 285/426/285
f 356/506/356 289/507/289 292/508/292
f 292/508/292 314/457/314 356/506/356
f 290/509/290 289/507/289 356/506/356
f 305/446/305 295/510/295 290/509/290
f 290/509/290 356/506/356 305/446/305
f 296/511/296 295/510/295 305/446/305
f 305/446/305 301/442/301 296/511/296
f 301/442/301 299/512/299 296/511/296
f 300/513/300 299/512/299 301/442/301
f 301/442/301 304/445/304 300/513/300
f 311/454/311 308/514/308 310/515/310
f 308/514/308 311/454/311 314/457/314
f 314/457/314 292/508/292 308/514/308
f 319/462/319 316/516/316 318/468/318
f 318/468/318 323/466/323 319/462/319
f 316/516/316 319/462/319 311/454/311
f 311/454/311 310/515/310 316/516/316
f 318/461/318 317/460/317 357/517/357
f 357/517/357 324/518/324 318/461/318
f 283/467/283 323/466/323 324/469/324
f 324/469/324 284/519/284 283/467/283
f 331/476/331 327/520/327 330/521/330
f 330/521/330 358/522/358 331/476/331
f 328/505/328 327/520/327 331/476/331
f 331/476/331 286/427/286 328/505/328
f 358/522/358 335/523/335 337/524/337
f 337/524/337 345/490/345 358/522/358
f 330/521/330 335/523/335 358/522/358
f 342/487/342 339/525/339 341/526/341
f 339/525/339 342/487/342 345/490/345
f 345/490/345 337/524/337 339/525/339
f 350/495/350 347/527/347 349/528/349
f 349/528/349 359/529/359 350/495/350
f 347/527/347 350/495/350 342/487/342
f 342/487/342 341/526/341 347/527/347
f 359/529/359 353/530/353 300/513/300
f 300/513/300 304/445/304 359/529/359
f 349/528/349 353/530/353 359/529/359
f 360/531/360 361/532/361 362/533/362
f 363/534/363 362/533/362 361/532/361
f 361/532/361 364/535/364 363/534/363
f 365/536/365 363/537/363 366/538/366
f 366/538/366 367/539/367 365/536/365
f 368/540/368 369/541/369 370/542/370
f 368/540/368 371/543/371 372/544/372
f 372/544/372 369/541/369 368/540/368
f 368/540/368 373/545/373 374/546/374
f 374/546/374 375/547/375 368/540/368
f 371/543/371 368/540/368 375/547/375
f 375/547/375 376/548/376 371/543/371
f 371/543/371 377/549/377 372/544/372
f 371/543/371 378/550/378 379/551/379
f 379/551/379 377/549/377 371/543/371
f 378/550/378 371/543/371 376/548/376
f 376/548/376 380/552/380 378/550/378
f 378/550/378 381/553/381 379/551/379
f 378/550/378 382/554/382 381/553/381
f 378/550/378 383/555/383 384/556/384
f 384/556/384 382/554/382 378/550/378
f 383/555/383 385/557/385 386/558/386
f 386/558/386 384/556/384 383/555/383
f 385/557/385 383/555/383 387/559/387
f 387/559/387 388/560/388 385/557/385
f 383/555/383 378/550/378 380/552/380
f 380/552/380 387/559/387 383/555/383
f 385/557/385 389/561/389 386/558/386
f 385/557/385 390/562/390 389/561/389
f 385/557/385 366/538/366 391/563/391
f 391/563/391 390/562/390 385/557/385
f 366/538/366 392/564/392 391/563/391
f 366/538/366 385/557/385 388/560/388
f 388/560/388 367/539/367 366/538/366
f 366/538/366 393/565/393 392/564/392
f 366/538/366 363/537/363 394/566/394
f 394/566/394 393/565/393 366/538/366
f 348/567/348 394/568/395 395/569/396
f 395/569/396 352/570/352 348/567/348
f 365/571/365 396/572/397 362/533/362
f 362/533/362 363/534/363 365/571/365
f 362/533/362 397/573/398 398/574/399
f 398/574/399 360/531/360 362/533/362
f 397/573/398 399/575/400 398/574/399
f 362/533/362 396/572/397 400/576/401
f 400/576/401 397/573/398 362/533/362
f 397/573/398 401/577/402 399/575/400
f 397/573/398 373/545/373 402/578/403
f 402/578/403 401/577/402 397/573/398
f 373/545/373 397/573/398 400/576/401
f 400/576/401 374/546/374 373/545/373
f 373/545/373 368/540/368 403/579/404
f 403/579/404 402/578/403 373/545/373
f 368/540/368 370/542/370 403/579/404
f 404/580/405 332/581/332 405/582/406
f 404/580/405 333/583/333 332/581/332
f 406/584/407 404/580/405 405/582/406
f 405/582/406 344/585/344 406/584/407
f 407/586/408 406/584/407 344/585/344
f 344/585/344 343/587/343 407/586/408
f 407/586/408 351/588/351 408/589/409
f 407/586/408 343/587/343 351/588/351
f 409/590/410 407/586/408 408/589/409
f 408/589/409 303/591/303 409/590/410
f 410/592/411 409/590/410 303/591/303
f 303/591/303 302/593/302 410/592/411
f 410/592/411 306/594/306 411/595/412
f 410/592/411 302/593/302 306/594/306
f 412/596/413 410/592/411 411/595/412
f 411/595/412 313/597/313 412/596/413
f 413/598/414 412/596/413 313/597/313
f 313/597/313 312/599/312 413/598/414
f 413/598/414 320/600/320 322/601/322
f 413/598/414 312/599/312 320/600/320
f 414/602/415 413/598/414 322/601/322
f 322/601/322 321/603/321 414/602/415
f 404/580/405 414/602/415 321/603/321
f 321/603/321 333/583/333 404/580/405
f 283/424/283 286/427/286 333/478/333
f 333/478/333 321/604/321 283/424/283
f 303/444/303 408/605/409 359/529/359
f 359/529/359 304/445/304 303/444/303
f 411/606/412 306/447/306 305/446/305
f 305/446/305 356/506/356 411/606/412
f 313/456/313 411/606/412 356/506/356
f 356/506/356 314/457/314 313/456/313
f 322/465/322 320/463/320 319/462/319
f 319/462/319 323/466/323 322/465/322
f 405/607/406 332/477/332 331/476/331
f 331/476/331 358/522/358 405/607/406
f 344/489/344 405/607/406 358/522/358
f 358/522/358 345/490/345 344/489/344
f 408/605/409 351/496/351 350/495/350
f 350/495/350 359/529/359 408/605/409
f 328/473/328 285/504/285 355/503/355
f 355/503/355 325/470/325 328/473/328
f 354/608/354 284/609/284 324/518/324
f 324/518/324 357/517/357 354/608/354
f 404/610/416 406/611/417 415/612/418
f 415/612/418 416/613/419 404/610/416
f 407/614/420 409/615/421 417/616/422
f 417/616/422 418/617/423 407/614/420
f 410/618/424 412/619/425 419/620/426
f 419/620/426 420/621/427 410/618/424
f 413/622/428 414/623/429 421/624/430
f 421/624/430 422/625/431 413/622/428
f 406/611/417 407/614/420 418/617/423
f 418/617/423 415/612/418 406/611/417
f 409/615/421 410/618/424 420/621/427
f 420/621/427 417/616/422 409/615/421
f 412/619/425 413/622/428 422/625/431
f 422/625/431 419/620/426 412/619/425
f 414/626/429 404/610/416 416/613/419
f 416/613/419 421/627/430 414/626/429
f 298/628/298 361/629/396 360/630/395
f 360/630/395 293/631/293 298/628/298
f 315/632/315 369/633/432 372/634/395
f 372/634/395 317/635/317 315/632/315
f 357/636/357 377/637/395 379/638/433
f 379/638/433 354/639/354 357/636/357
f 355/640/355 381/641/395 382/642/395
f 382/642/395 325/643/325 355/640/355
f 326/644/326 384/645/434 386/646/434
f 386/646/434 329/647/329 326/644/326
f 334/648/334 389/649/435 390/650/436
f 390/650/436 336/651/336 334/648/334
f 338/652/338 391/653/396 392/654/437
f 392/654/437 340/655/340 338/652/338
f 346/656/346 393/657/395 394/568/395
f 394/568/395 348/567/348 346/656/346
f 394/566/394 363/537/363 395/658/438
f 297/659/297 352/660/352 395/661/396
f 395/661/396 364/662/395 297/659/297
f 294/663/294 398/664/395 399/665/439
f 399/665/439 287/666/287 294/663/294
f 288/667/288 401/668/435 402/669/440
f 402/669/440 291/670/291 288/667/288
f 307/671/307 403/672/441 370/673/437
f 370/673/437 309/674/309 307/671/307
f 363/534/363 364/535/364 395/675/438
f 364/662/395 361/629/396 298/628/298
f 298/628/298 297/659/297 364/662/395
f 370/673/437 369/633/432 315/632/315
f 315/632/315 309/674/309 370/673/437
f 317/635/317 372/634/395 377/637/395
f 377/637/395 357/636/357 317/635/317
f 354/639/354 379/638/433 381/641/395
f 381/641/395 355/640/355 354/639/354
f 325/643/325 382/642/395 384/645/434
f 384/645/434 326/644/326 325/643/325
f 329/647/329 386/646/434 389/649/435
f 389/649/435 334/648/334 329/647/329
f 336/651/336 390/650/436 391/653/396
f 391/653/396 338/652/338 336/651/336
f 340/655/340 392/654/437 393/657/395
f 393/657/395 346/656/346 340/655/340
f 293/631/293 360/630/395 398/664/395
f 398/664/395 294/663/294 293/631/293
f 287/666/287 399/665/439 401/668/435
f 401/668/435 288/667/288 287/666/287
f 291/670/291 402/669/440 403/672/441
f 403/672/441 307/671/307 291/670/291
f 367/539/367 388/560/388 423/676/442
f 423/676/442 424/677/443 367/539/367
f 388/560/388 387/559/387 425/678/444
f 425/678/444 423/676/442 388/560/388
f 387/559/387 380/552/380 426/679/445
f 426/679/445 425/678/444 387/559/387
f 380/552/380 376/548/376 427/680/446
f 427/680/446 426/679/445 380/552/380
f 376/548/376 375/547/375 428/681/447
f 428/681/447 427/680/446 376/548/376
f 375/547/375 374/546/374 429/682/448
f 429/682/448 428/681/447 375/547/375
f 374/546/374 400/576/401 430/683/449
f 430/683/449 429/682/448 374/546/374
f 400/576/401 396/572/397 431/684/450
f 431/684/450 430/683/449 400/576/401
f 396/572/397 365/571/365 432/685/451
f 432/685/451 431/684/450 396/572/397
f 365/536/365 367/539/367 424/677/443
f 424/677/443 432/686/451 365/536/365
f 416/687/452 415/688/453 433/689/452
f 415/688/453 418/690/453 433/689/452
f 418/690/453 417/691/454 433/689/452
f 417/691/454 420/692/452 433/689/452
f 420/692/452 419/693/452 433/689/452
f 419/693/452 422/694/454 433/689/452
f 422/694/454 421/695/454 433/689/452
f 421/695/454 416/687/452 433/689/452
f 424/677/443 423/676/442 434/696/435
f 425/678/444 426/679/445 434/696/435
f 423/676/442 425/678/444 434/696/435
f 426/679/445 427/680/446 434/696/435
f 427/680/446 428/681/447 434/697/435
f 428/681/447 429/682/448 434/697/435
f 429/682/448 430/683/449 434/697/435
f 430/683/449 431/684/450 434/697/435
f 431/684/450 432/685/451 434/697/435
f 432/686/451 424/677/443 434/696/435
f 435/698/455 436/699/456 437/700/457
f 437/700/457 438/701/458 435/698/455
f 439/702/459 438/701/458 437/700/457
f 437/700/457 440/703/460 439/702/459
f 441/704/461 442/705/462 443/706/463
f 443/706/463 444/707/464 441/704/461
f 437/708/457 436/709/456 445/710/465
f 445/710/465 446/711/466 437/708/457
f 440/712/460 437/708/457 446/711/466
f 446/711/466 447/713/467 440/712/460
f 444/714/464 443/715/463 448/716/468
f 448/716/468 449/717/469 444/714/464
f 446/711/466 445/710/465 450/718/470
f 450/718/470 451/719/471 446/711/466
f 447/713/467 446/711/466 451/719/471
f 451/719/471 452/720/472 447/713/467
f 449/717/469 448/716/468 453/721/473
f 453/721/473 454/722/474 449/717/469
f 455/723/475 456/724/476 457/725/477
f 457/725/477 458/726/478 455/723/475
f 459/727/479 458/726/478 457/725/477
f 457/725/477 460/728/480 459/727/479
f 461/729/481 462/730/482 463/731/483
f 463/731/483 464/732/484 461/729/481
f 456/724/476 465/733/485 466/734/486
f 466/734/486 457/725/477 456/724/476
f 460/728/480 457/725/477 466/734/486
f 466/734/486 467/735/487 460/728/480
f 464/732/484 463/731/483 468/736/488
f 468/736/488 469/737/489 464/732/484
f 441/704/461 444/707/464 470/738/490
f 470/738/490 471/739/491 441/704/461
f 444/714/464 449/717/469 472/740/492
f 472/740/492 470/741/490 444/714/464
f 449/717/469 454/722/474 473/742/493
f 473/742/493 472/740/492 449/717/469
f 474/743/494 461/729/481 464/732/484
f 464/732/484 475/744/495 474/743/494
f 475/744/495 464/732/484 469/737/489
f 469/737/489 476/745/496 475/744/495
f 435/746/455 477/747/497 478/748/498
f 478/748/498 436/749/456 435/746/455
f 479/750/499 480/751/500 478/748/498
f 478/748/498 477/747/497 479/750/499
f 481/752/501 482/753/502 483/754/503
f 483/754/503 484/755/504 481/752/501
f 478/756/498 485/757/505 445/758/465
f 445/758/465 436/759/456 478/756/498
f 480/760/500 486/761/506 485/757/505
f 485/757/505 478/756/498 480/760/500
f 482/762/502 487/763/507 488/764/508
f 488/764/508 483/765/503 482/762/502
f 485/757/505 489/766/509 450/767/470
f 450/767/470 445/758/465 485/757/505
f 486/761/506 490/768/510 489/766/509
f 489/766/509 485/757/505 486/761/506
f 487/763/507 491/769/511 492/770/512
f 492/770/512 488/764/508 487/763/507
f 455/723/475 493/771/513 494/772/514
f 494/772/514 456/724/476 455/723/475
f 495/773/515 496/774/516 494/772/514
f 494/772/514 493/771/513 495/773/515
f 497/775/517 498/776/518 499/777/519
f 499/777/519 500/778/520 497/775/517
f 456/724/476 494/772/514 501/779/521
f 501/779/521 465/733/485 456/724/476
f 496/774/516 502/780/522 501/779/521
f 501/779/521 494/772/514 496/774/516
f 498/776/518 503/781/523 504/782/524
f 504/782/524 499/777/519 498/776/518
f 481/752/501 471/739/491 470/738/490
f 470/738/490 482/753/502 481/752/501
f 482/762/502 470/741/490 472/740/492
f 472/740/492 487/763/507 482/762/502
f 487/763/507 472/740/492 473/742/493
f 473/742/493 491/769/511 487/763/507
f 474/743/494 475/744/495 498/776/518
f 498/776/518 497/775/517 474/743/494
f 475/744/495 476/745/496 503/781/523
f 503/781/523 498/776/518 475/744/495
f 467/735/487 466/734/486 505/783/525
f 469/737/489 468/736/488 506/784/526
f 476/745/496 469/737/489 506/784/526
f 506/784/526 507/785/527 476/745/496
f 466/734/486 465/733/485 508/786/528
f 508/786/528 505/783/525 466/734/486
f 465/733/485 501/779/521 509/787/529
f 509/787/529 508/786/528 465/733/485
f 501/779/521 502/780/522 509/787/529
f 504/782/524 503/781/523 510/788/530
f 503/781/523 476/745/496 507/785/527
f 507/785/527 510/788/530 503/781/523
f 438/701/458 439/702/459 511/789/531
f 511/789/531 512/790/532 438/701/458
f 442/705/462 441/704/461 513/791/533
f 513/791/533 514/792/534 442/705/462
f 441/704/461 471/739/491 515/793/535
f 515/793/535 513/791/533 441/704/461
f 435/698/455 438/701/458 512/790/532
f 512/790/532 516/794/536 435/698/455
f 477/747/497 435/746/455 516/795/536
f 516/795/536 517/796/537 477/747/497
f 479/750/499 477/747/497 517/796/537
f 517/796/537 518/797/538 479/750/499
f 481/752/501 484/755/504 519/798/539
f 519/798/539 520/799/540 481/752/501
f 471/739/491 481/752/501 520/799/540
f 520/799/540 515/793/535 471/739/491
f 512/800/439 511/801/435 521/802/395
f 521/802/395 522/803/439 512/800/439
f 514/804/541 513/805/432 523/806/440
f 523/806/440 524/807/541 514/804/541
f 513/805/432 515/808/395 525/809/395
f 525/809/395 523/806/440 513/805/432
f 516/810/396 512/800/439 522/803/439
f 522/803/439 526/811/396 516/810/396
f 517/812/437 516/810/396 526/811/396
f 526/811/396 527/813/437 517/812/437
f 518/814/395 517/812/437 527/813/437
f 527/813/437 528/815/395 518/814/395
f 520/816/396 519/817/395 529/818/395
f 529/818/395 530/819/396 520/816/396
f 515/808/395 520/816/396 530/819/396
f 530/819/396 525/809/395 515/808/395
f 522/820/532 521/821/542 531/822/543
f 531/822/543 532/823/544 522/820/532
f 524/824/545 523/825/533 533/826/546
f 533/826/546 534/827/547 524/824/545
f 523/825/533 525/828/548 535/829/549
f 535/829/549 533/826/546 523/825/533
f 526/830/550 522/820/532 532/823/544
f 532/823/544 536/831/551 526/830/550
f 527/832/552 526/833/550 536/834/551
f 536/834/551 537/835/553 527/832/552
f 528/836/554 527/832/552 537/835/553
f 537/835/553 538/837/555 528/836/554
f 530/838/540 529/839/539 539/840/556
f 539/840/556 540/841/557 530/838/540
f 525/828/548 530/838/540 540/841/557
f 540/841/557 535/829/549 525/828/548
f 532/842/544 531/843/543 541/844/558
f 541/844/558 542/845/559 532/842/544
f 534/846/547 533/847/546 543/848/560
f 543/848/560 544/849/561 534/846/547
f 533/847/546 535/850/549 545/851/562
f 545/851/562 543/848/560 533/847/546
f 536/852/551 532/842/544 542/845/559
f 542/845/559 546/853/563 536/852/551
f 537/854/553 536/852/551 546/853/563
f 546/853/563 547/855/564 537/854/553
f 538/856/555 537/854/553 547/855/564
f 547/855/564 548/857/565 538/856/555
f 540/858/557 539/859/556 549/860/566
f 549/860/566 550/861/567 540/858/557
f 535/850/549 540/858/557 550/861/567
f 550/861/567 545/851/562 535/850/549
f 542/845/559 541/844/558 551/862/568
f 544/849/561 543/848/560 552/863/569
f 543/848/560 545/851/562 553/864/570
f 553/864/570 552/863/569 543/848/560
f 546/853/563 542/845/559 551/862/568
f 551/862/568 554/865/571 546/853/563
f 547/855/564 546/853/563 554/865/571
f 554/865/571 555/866/572 547/855/564
f 548/857/565 547/855/564 555/866/572
f 550/861/567 549/860/566 556/867/573
f 545/851/562 550/861/567 556/867/573
f 556/867/573 553/864/570 545/851/562
f 442/705/462 439/702/459 440/703/460
f 440/703/460 443/706/463 442/705/462
f 443/715/463 440/712/460 447/713/467
f 447/713/467 448/716/468 443/715/463
f 448/716/468 447/713/467 452/720/472
f 452/720/472 453/721/473 448/716/468
f 462/730/482 459/727/479 460/728/480
f 460/728/480 463/731/483 462/730/482
f 463/731/483 460/728/480 467/735/487
f 467/735/487 468/736/488 463/731/483
f 483/754/503 480/751/500 479/750/499
f 479/750/499 484/755/504 483/754/503
f 488/764/508 486/761/506 480/760/500
f 480/760/500 483/765/503 488/764/508
f 492/770/512 490/768/510 486/761/506
f 486/761/506 488/764/508 492/770/512
f 499/777/519 496/774/516 495/773/515
f 495/773/515 500/778/520 499/777/519
f 504/782/524 502/780/522 496/774/516
f 496/774/516 499/777/519 504/782/524
f 468/736/488 467/735/487 505/783/525
f 505/783/525 506/784/526 468/736/488
f 502/780/522 504/782/524 510/788/530
f 510/788/530 509/787/529 502/780/522
f 439/702/459 442/705/462 514/792/534
f 514/792/534 511/789/531 439/702/459
f 484/755/504 479/750/499 518/797/538
f 518/797/538 519/798/539 484/755/504
f 511/801/435 514/804/541 524/807/541
f 524/807/541 521/802/395 511/801/435
f 519/817/395 518/814/395 528/815/395
f 528/815/395 529/818/395 519/817/395
f 521/821/542 524/824/545 534/827/547
f 534/827/547 531/822/543 521/821/542
f 529/839/539 528/836/554 538/837/555
f 538/837/555 539/840/556 529/839/539
f 531/843/543 534/846/547 544/849/561
f 544/849/561 541/844/558 531/843/543
f 539/859/556 538/856/555 548/857/565
f 548/857/565 549/860/566 539/859/556
f 541/844/558 544/849/561 552/863/569
f 552/863/569 551/862/568 541/844/558
f 549/860/566 548/857/565 555/866/572
f 555/866/572 556/867/573 549/860/566
f 551/862/568 552/863/569 557/868/452
f 556/867/573 555/866/572 557/868/452
f 552/863/569 553/864/570 557/868/452
f 553/864/570 556/867/573 557/868/452
f 555/866/572 554/865/571 557/868/452
f 554/865/571 551/862/568 557/868/452
f 451/719/471 458/869/478 459/870/479
f 459/870/479 452/720/472 451/719/471
f 453/721/473 462/871/482 461/872/481
f 461/872/481 454/722/474 453/721/473
f 454/722/474 461/872/481 474/873/494
f 474/873/494 473/742/493 454/722/474
f 450/718/470 455/874/475 458/869/478
f 458/869/478 451/719/471 450/718/470
f 489/766/509 493/875/513 455/876/475
f 455/876/475 450/767/470 489/766/509
f 490/768/510 495/877/515 493/875/513
f 493/875/513 489/766/509 490/768/510
f 491/769/511 497/878/517 500/879/520
f 500/879/520 492/770/512 491/769/511
f 473/742/493 474/873/494 497/878/517
f 497/878/517 491/769/511 473/742/493
f 462/871/482 453/721/473 452/720/472
f 452/720/472 459/870/479 462/871/482
f 495/877/515 490/768/510 492/770/512
f 492/770/512 500/879/520 495/877/515
f 507/785/527 506/784/526 558/880/435
f 505/783/525 508/786/528 558/880/435
f 508/786/528 509/787/529 558/880/435
f 510/788/530 507/785/527 558/880/435
f 506/784/526 505/783/525 558/880/435
f 509/787/529 510/788/530 558/880/435
f 559/881/136 560/882/574 561/883/575
f 561/883/575 562/884/576 559/881/136
f 560/882/574 563/885/577 564/886/578
f 564/886/578 561/883/575 560/882/574
f 563/887/577 565/888/579 566/889/580
f 566/889/580 564/890/578 563/887/577
f 565/888/579 567/891/144 568/892/581
f 568/892/581 566/889/580 565/888/579
f 567/891/144 569/893/582 570/894/583
f 570/894/583 568/892/581 567/891/144
f 569/893/582 571/895/584 572/896/585
f 572/896/585 570/894/583 569/893/582
f 571/895/584 573/897/586 574/898/587
f 574/898/587 572/896/585 571/895/584
f 573/897/586 559/881/136 562/884/576
f 562/884/576 574/898/587 573/897/586
f 562/899/576 561/900/575 575/901/588
f 575/901/588 576/902/589 562/899/576
f 561/900/575 564/903/578 577/904/590
f 577/904/590 575/901/588 561/900/575
f 564/903/578 566/905/580 578/906/591
f 578/906/591 577/904/590 564/903/578
f 566/905/580 568/907/581 579/908/592
f 579/908/592 578/906/591 566/905/580
f 568/907/581 570/909/583 580/910/593
f 580/910/593 579/908/592 568/907/581
f 570/909/583 572/911/585 581/912/594
f 581/912/594 580/910/593 570/909/583
f 572/911/585 574/913/587 582/914/595
f 582/914/595 581/912/594 572/911/585
f 574/913/587 562/899/576 576/902/589
f 576/902/589 582/914/595 574/913/587
f 576/902/589 575/901/588 583/915/596
f 583/915/596 584/916/597 576/902/589
f 575/901/588 577/904/590 585/917/598
f 585/917/598 583/915/596 575/901/588
f 577/904/590 578/906/591 586/918/599
f 586/918/599 585/917/598 577/904/590
f 578/906/591 579/908/592 587/919/597
f 587/919/597 586/918/599 578/906/591
f 579/908/592 580/910/593 588/920/600
f 588/920/600 587/919/597 579/908/592
f 580/910/593 581/912/594 589/921/601
f 589/921/601 588/920/600 580/910/593
f 581/912/594 582/914/595 590/922/597
f 590/922/597 589/921/601 581/912/594
f 582/914/595 576/902/589 584/916/597
f 584/916/597 590/922/597 582/914/595
f 591/923/136 592/924/602 593/925/603
f 593/925/603 594/926/604 591/923/136
f 592/924/602 595/927/605 596/928/606
f 596/928/606 593/925/603 592/924/602
f 595/927/605 597/929/607 598/930/608
f 598/930/608 596/928/606 595/927/605
f 597/929/607 599/931/144 600/932/609
f 600/932/609 598/930/608 597/929/607
f 599/931/144 601/933/610 602/934/611
f 602/934/611 600/932/609 599/931/144
f 601/935/610 603/936/612 604/937/613
f 604/937/613 602/938/611 601/935/610
f 603/936/612 605/939/614 606/940/615
f 606/940/615 604/937/613 603/936/612
f 605/939/614 591/923/136 594/926/604
f 594/926/604 606/940/615 605/939/614
f 594/941/604 593/942/603 607/943/616
f 607/943/616 608/944/617 594/941/604
f 593/942/603 596/945/606 609/946/618
f 609/946/618 607/943/616 593/942/603
f 596/945/606 598/947/608 610/948/619
f 610/948/619 609/946/618 596/945/606
f 598/947/608 600/949/609 611/950/620
f 611/950/620 610/948/619 598/947/608
f 600/949/609 602/951/611 612/952/621
f 612/952/621 611/950/620 600/949/609
f 602/951/611 604/953/613 613/954/622
f 613/954/622 612/952/621 602/951/611
f 604/953/613 606/955/615 614/956/623
f 614/956/623 613/954/622 604/953/613
f 606/955/615 594/941/604 608/944/617
f 608/944/617 614/956/623 606/955/615
f 608/944/617 607/943/616 615/957/130
f 607/943/616 609/946/618 615/957/130
f 609/946/618 610/948/619 615/957/130
f 610/948/619 611/950/620 615/957/130
f 611/950/620 612/952/621 615/957/130
f 612/952/621 613/954/622 615/957/130
f 613/954/622 614/956/623 615/957/130
f 614/956/623 608/944/617 615/957/130
