# Wavefront OBJ exported by WoW Model Viewer 0.8.0.beta10

mtllib xcgfgfdg.mtl

v -0.733890 1.450951 0.910129
v -0.651989 2.482610 2.150407
v 0.006066 2.779255 1.760224
v 0.656389 0.020168 0.026032
v -0.081915 2.206123 -1.451028
v -0.728110 2.086746 -1.343038
v -0.728110 2.086746 -1.343038
v 0.010195 -0.099209 0.134021
v 0.656389 0.020168 0.026032
v 0.010195 -0.099209 0.134021
v -0.728110 2.086746 -1.343038
v -1.202328 2.206123 -0.890992
v -1.202328 2.206123 -0.890992
v -0.464024 0.020168 0.586067
v 0.010195 -0.099209 0.134021
v 0.850257 0.020168 0.423776
v 2.149229 2.218321 -0.563334
v 1.924277 2.100377 -1.178996
v 1.924277 2.100377 -1.178996
v 0.625305 -0.097776 -0.191886
v 0.850257 0.020168 0.423776
v 0.625305 -0.097776 -0.191886
v 1.924277 2.100377 -1.178996
v 1.391364 2.218321 -1.560633
v 1.391364 2.218321 -1.560633
v 0.092392 0.020168 -0.573523
v 0.625305 -0.097776 -0.191886
v -1.361533 1.303228 0.800071
v -1.643572 1.150782 0.363195
v -2.363825 1.537607 0.849589
v -1.643572 1.150782 0.363195
v -1.361533 1.303228 0.800071
v -0.510558 -0.097776 0.202503
v -0.510558 -0.097776 0.202503
v -0.712204 0.020168 -0.421182
v -1.643572 1.150782 0.363195
v -2.005617 2.100377 1.026869
v -1.654570 1.846403 1.625466
v -0.863515 1.454379 1.215638
v -1.361533 1.303228 0.800071
v -2.005617 2.100377 1.026869
v -0.863515 1.454379 1.215638
v -1.361533 1.303228 0.800071
v -0.863515 1.454379 1.215638
v 0.007629 0.020168 0.603906
v 0.007629 0.020168 0.603906
v -0.510558 -0.097776 0.202503
v -1.361533 1.303228 0.800071
v 2.061594 2.260120 -0.478259
v 1.283032 1.571265 -0.497843
v 1.000239 1.684274 0.112782
v 1.000239 1.684274 0.112782
v 1.283032 1.571265 -0.497843
v 0.472743 0.013854 -0.522327
v 0.472743 0.013854 -0.522327
v 0.189949 0.126862 0.088298
v 1.000239 1.684274 0.112782
v 1.215702 1.583893 0.752852
v 1.941453 2.314000 0.767371
v 1.821249 2.488241 0.118232
v 0.189949 0.126862 0.088298
v 0.405413 0.026482 0.728368
v 1.215702 1.583893 0.752852
v 1.215702 1.583893 0.752852
v 1.000239 1.684274 0.112782
v 0.189949 0.126862 0.088298
v 1.821249 2.488241 0.118232
v 1.000239 1.684274 0.112782
v 1.215702 1.583893 0.752852
v 1.000239 1.684274 0.112782
v 1.821249 2.488241 0.118232
v 2.061594 2.260120 -0.478259
v 0.788973 0.020168 -0.157039
v 0.798537 0.851288 -0.722930
v 0.172335 1.026891 -0.551628
v 0.172335 1.026891 -0.551628
v 0.162771 0.020168 0.014262
v 0.788973 0.020168 -0.157039
v 0.162771 0.020168 0.014262
v 0.172335 1.026891 -0.551628
v -0.453867 0.851288 -0.744097
v -0.453867 0.851288 -0.744097
v -0.463431 0.020168 -0.178206
v 0.162771 0.020168 0.014262
v 0.812499 1.394936 -1.548987
v 0.652896 1.493044 -2.308161
v 0.203392 1.668647 -2.389170
v 0.203392 1.668647 -2.389170
v 0.186297 1.570539 -1.377686
v 0.812499 1.394936 -1.548987
v 0.186297 1.570539 -1.377686
v 0.203392 1.668647 -2.389170
v -0.205827 1.348348 -2.469239
v -0.205827 1.348348 -2.469239
v -0.343285 1.250240 -1.511293
v 0.186297 1.570539 -1.377686
v 0.798537 0.851288 -0.722930
v 0.812499 1.394936 -1.548987
v 0.186297 1.570539 -1.377686
v 0.186297 1.570539 -1.377686
v 0.172335 1.026891 -0.551628
v 0.798537 0.851288 -0.722930
v 0.172335 1.026891 -0.551628
v 0.186297 1.570539 -1.377686
v -0.343285 1.250240 -1.511293
v -0.343285 1.250240 -1.511293
v -0.453867 0.851288 -0.744097
v 0.172335 1.026891 -0.551628
v 1.090874 1.422346 1.285482
v 1.762211 1.478554 1.928171
v 2.519031 1.093539 1.178595
v 2.519031 1.093539 1.178595
v 1.847694 1.037331 0.535907
v 1.090874 1.422346 1.285482
v 0.408007 0.982500 0.870966
v 1.090874 1.422346 1.285482
v 1.847694 1.037331 0.535907
v 1.847694 1.037331 0.535907
v 1.164827 0.597485 0.121391
v 0.408007 0.982500 0.870966
v -0.192990 0.291349 0.696206
v 0.408007 0.982500 0.870966
v 1.164827 0.597485 0.121391
v 1.164827 0.597485 0.121391
v 0.563830 -0.093667 -0.053369
v -0.192990 0.291349 0.696206
v -0.757204 1.039711 2.609293
v -0.621354 1.039711 2.645393
v -0.163595 1.289544 2.298371
v -0.163595 1.289544 2.298371
v -0.429630 1.394936 1.858497
v -0.757204 1.039711 2.609293
v -0.163595 1.289544 2.298371
v -0.091978 1.394936 1.948222
v -0.429630 1.394936 1.858497
v -0.811909 0.695914 0.902065
v -0.424881 0.851288 1.004911
v -0.666556 0.020168 0.355076
v -0.424881 0.851288 1.004911
v -0.811909 0.695914 0.902065
v -0.923737 1.137817 1.322896
v -0.574149 1.653093 1.789891
v -0.424881 0.851288 1.004911
v -0.923737 1.137817 1.322896
v -0.923737 1.137817 1.322896
v -0.946339 1.492605 1.754813
v -0.574149 1.653093 1.789891
v -0.995375 1.657461 2.762232
v -0.574149 1.653093 1.789891
v -0.946339 1.492605 1.754813
v 0.186484 1.394936 2.022218
v -0.091978 1.394936 1.948222
v -0.138062 1.431553 2.326651
v 0.186484 1.394936 2.022218
v -0.138062 1.431553 2.326651
v -0.325680 1.382624 2.828590
v -0.325680 1.382624 2.828590
v -0.242070 1.321416 2.855612
v 0.186484 1.394936 2.022218
v 0.544015 0.020168 0.676764
v 0.087639 0.020168 0.555490
v 0.017412 0.851288 1.122442
v 0.017412 0.851288 1.122442
v 0.398662 0.851288 1.223753
v 0.544015 0.020168 0.676764
v 0.398662 0.851288 1.223753
v 0.017412 0.851288 1.122442
v -0.091978 1.394936 1.948222
v -0.091978 1.394936 1.948222
v 0.186484 1.394936 2.022218
v 0.398662 0.851288 1.223753
v 0.087639 0.020168 0.555490
v -0.666556 0.020168 0.355076
v -0.424881 0.851288 1.004911
v -0.424881 0.851288 1.004911
v 0.017412 0.851288 1.122442
v 0.087639 0.020168 0.555490
v 0.017412 0.851288 1.122442
v -0.424881 0.851288 1.004911
v -0.429630 1.394936 1.858497
v -0.429630 1.394936 1.858497
v -0.091978 1.394936 1.948222
v 0.017412 0.851288 1.122442
v -1.264866 1.040986 -1.066325
v -1.437645 1.018493 -0.860318
v -0.893635 1.014647 -0.639307
v -1.865626 0.674409 -1.447185
v -1.437645 1.018493 -0.860318
v -1.264866 1.040986 -1.066325
v -1.264866 1.040986 -1.066325
v -1.717894 0.694523 -1.620063
v -1.865626 0.674409 -1.447185
v -2.064787 0.992667 -0.764079
v -2.101765 0.891928 -0.609315
v -1.848952 0.960278 -0.322409
v -2.064787 0.992667 -0.764079
v -2.137046 0.703453 -0.949415
v -2.101765 0.891928 -0.609315
v -2.064787 0.992667 -0.764079
v -2.097978 0.777585 -1.104770
v -2.137046 0.703453 -0.949415
v -2.010683 1.094806 -0.794458
v -1.833430 1.232675 -1.180828
v -2.082463 1.106404 -1.473339
v -2.082463 1.106404 -1.473339
v -2.175418 1.064923 -1.367998
v -2.010683 1.094806 -0.794458
v -2.010683 1.094806 -0.794458
v -1.473109 1.204736 -0.746730
v -1.833430 1.232675 -1.180828
v -2.010683 1.094806 -0.794458
v -1.679796 1.112503 -0.512501
v -1.473109 1.204736 -0.746730
v -1.848952 0.960278 -0.322409
v -1.679796 1.112503 -0.512501
v -2.064787 0.992667 -0.764079
v -1.264866 1.040986 -1.066325
v -0.893635 1.014647 -0.639307
v -0.314285 0.938095 -0.725195
v -0.893635 1.014647 -0.639307
v -0.563074 0.955279 -0.443254
v -0.314285 0.938095 -0.725195
v -0.893635 1.014647 -0.639307
v -1.473109 1.204736 -0.746730
v -0.563074 0.955279 -0.443254
v -1.473109 1.204736 -0.746730
v -0.843243 0.905790 -0.125753
v -0.563074 0.955279 -0.443254
v -1.473109 1.204736 -0.746730
v -1.679796 1.112503 -0.512501
v -0.843243 0.905790 -0.125753
v -1.102306 0.586444 0.167830
v -0.843243 0.905790 -0.125753
v -1.679796 1.112503 -0.512501
v -1.679796 1.112503 -0.512501
v -1.848952 0.960278 -0.322409
v -1.102306 0.586444 0.167830
v 0.298744 0.201840 -0.342230
v -0.314285 0.938095 -0.725195
v -0.563074 0.955279 -0.443254
v -0.563074 0.955279 -0.443254
v 0.166909 0.049335 0.030441
v 0.298744 0.201840 -0.342230
v 0.166909 0.049335 0.030441
v -0.563074 0.955279 -0.443254
v -0.843243 0.905790 -0.125753
v -0.843243 0.905790 -0.125753
v -0.060203 -0.052012 0.287815
v 0.166909 0.049335 0.030441
v -0.060203 -0.052012 0.287815
v -0.843243 0.905790 -0.125753
v -1.102306 0.586444 0.167830
v -1.102306 0.586444 0.167830
v -0.434839 -0.149811 0.403982
v -0.060203 -0.052012 0.287815
v 0.813330 2.644946 1.838515
v 0.751565 1.498453 0.661216
v -0.045828 1.599004 0.488310
v -0.045828 1.599004 0.488310
v 0.751565 1.498453 0.661216
v 0.686378 0.048017 -0.064675
v 0.686378 0.048017 -0.064675
v -0.111015 0.148567 -0.237581
v -0.045828 1.599004 0.488310
v -0.111015 0.148567 -0.237581
v -0.799077 0.000514 0.184238
v -0.733890 1.450951 0.910129
v -0.733890 1.450951 0.910129
v -0.045828 1.599004 0.488310
v -0.111015 0.148567 -0.237581
v 0.006066 2.779255 1.760224
v -0.045828 1.599004 0.488310
v -0.733890 1.450951 0.910129
v -0.045828 1.599004 0.488310
v 0.006066 2.779255 1.760224
v 0.813330 2.644946 1.838515
# 276 vertices


vt 0.981167 0.497880
vt 0.981167 0.995761
vt 0.493503 0.995761
vt 0.005838 0.000000
vt 0.005838 0.996239
vt 0.493503 0.996239
vt 0.493503 0.996239
vt 0.493503 0.000000
vt 0.005838 0.000000
vt 0.493503 0.000000
vt 0.493503 0.996239
vt 0.981167 0.996239
vt 0.981167 0.996239
vt 0.981167 0.000000
vt 0.493503 0.000000
vt 0.005838 0.000000
vt 0.005838 0.996239
vt 0.493503 0.996239
vt 0.493503 0.996239
vt 0.493503 0.000000
vt 0.005838 0.000000
vt 0.493503 0.000000
vt 0.493503 0.996239
vt 0.981167 0.996239
vt 0.981167 0.996239
vt 0.981167 0.000000
vt 0.493503 0.000000
vt 0.493503 0.634958
vt 0.005838 0.632064
vt 0.160029 0.996239
vt 0.005838 0.632064
vt 0.493503 0.634958
vt 0.493503 0.000000
vt 0.493503 0.000000
vt 0.005838 0.000000
vt 0.005838 0.632064
vt 0.369933 0.993592
vt 0.981167 0.996239
vt 0.981167 0.650008
vt 0.493503 0.634958
vt 0.369933 0.993592
vt 0.981167 0.650008
vt 0.493503 0.634958
vt 0.981167 0.650008
vt 0.981167 0.000000
vt 0.981167 0.000000
vt 0.493503 0.000000
vt 0.493503 0.634958
vt 0.005838 0.995761
vt 0.005838 0.647244
vt 0.493503 0.647244
vt 0.493503 0.647244
vt 0.005838 0.647244
vt 0.005838 0.000000
vt 0.005838 0.000000
vt 0.493503 0.000000
vt 0.493503 0.647244
vt 0.981167 0.647244
vt 0.981167 0.995761
vt 0.493503 0.995761
vt 0.493503 0.000000
vt 0.981167 0.000000
vt 0.981167 0.647244
vt 0.981167 0.647244
vt 0.493503 0.647244
vt 0.493503 0.000000
vt 0.493503 0.995761
vt 0.493503 0.647244
vt 0.981167 0.647244
vt 0.493503 0.647244
vt 0.493503 0.995761
vt 0.005838 0.995761
vt 0.005838 0.000000
vt 0.005838 0.331920
vt 0.493503 0.331920
vt 0.493503 0.331920
vt 0.493503 0.000000
vt 0.005838 0.000000
vt 0.493503 0.000000
vt 0.493503 0.331920
vt 0.981167 0.331920
vt 0.981167 0.331920
vt 0.981167 0.000000
vt 0.493503 0.000000
vt 0.005838 0.663840
vt 0.164567 0.926553
vt 0.493503 0.995761
vt 0.493503 0.995761
vt 0.493503 0.663840
vt 0.005838 0.663840
vt 0.493503 0.663840
vt 0.493503 0.995761
vt 0.895946 0.977883
vt 0.895946 0.977883
vt 0.981167 0.663840
vt 0.493503 0.663840
vt 0.005838 0.331920
vt 0.005838 0.663840
vt 0.493503 0.663840
vt 0.493503 0.663840
vt 0.493503 0.331920
vt 0.005838 0.331920
vt 0.493503 0.331920
vt 0.493503 0.663840
vt 0.981167 0.663840
vt 0.981167 0.663840
vt 0.981167 0.331920
vt 0.493503 0.331920
vt 0.005838 0.663840
vt 0.005838 0.995761
vt 0.981167 0.995761
vt 0.981167 0.995761
vt 0.981167 0.663840
vt 0.005838 0.663840
vt 0.005838 0.331920
vt 0.005838 0.663840
vt 0.981167 0.663840
vt 0.981167 0.663840
vt 0.981167 0.331920
vt 0.005838 0.331920
vt 0.005838 0.000000
vt 0.005838 0.331920
vt 0.981167 0.331920
vt 0.981167 0.331920
vt 0.981167 0.000000
vt 0.005838 0.000000
vt 0.357244 0.995761
vt 0.466696 0.995761
vt 0.776043 0.802580
vt 0.776043 0.802580
vt 0.484779 0.663841
vt 0.357244 0.995761
vt 0.776043 0.802580
vt 0.756817 0.663840
vt 0.484779 0.663841
vt 0.005838 0.331920
vt 0.317657 0.331920
vt 0.005838 0.000000
vt 0.317657 0.331920
vt 0.005838 0.331920
vt 0.005838 0.506858
vt 0.419313 0.663841
vt 0.317657 0.331920
vt 0.005838 0.506858
vt 0.005838 0.506858
vt 0.102532 0.663840
vt 0.419313 0.663841
vt 0.185873 0.995761
vt 0.419313 0.663841
vt 0.102532 0.663840
vt 0.981167 0.663840
vt 0.756817 0.663840
vt 0.797813 0.787724
vt 0.981167 0.663840
vt 0.797813 0.787724
vt 0.785756 0.995761
vt 0.785756 0.995761
vt 0.869138 0.995761
vt 0.981167 0.663840
vt 0.981167 0.000000
vt 0.613476 0.000000
vt 0.674003 0.331920
vt 0.674003 0.331920
vt 0.981167 0.331920
vt 0.981167 0.000000
vt 0.981167 0.331920
vt 0.674003 0.331920
vt 0.756817 0.663841
vt 0.756817 0.663841
vt 0.981167 0.663840
vt 0.981167 0.331920
vt 0.613476 0.000000
vt 0.005838 0.000000
vt 0.317657 0.331920
vt 0.317657 0.331920
vt 0.674003 0.331920
vt 0.613476 0.000000
vt 0.674003 0.331920
vt 0.317657 0.331920
vt 0.484779 0.663841
vt 0.484779 0.663841
vt 0.756817 0.663841
vt 0.674003 0.331920
vt 0.209719 0.663840
vt 0.421627 0.663840
vt 0.316955 0.473827
vt 0.230128 0.923270
vt 0.421627 0.663840
vt 0.209719 0.663840
vt 0.209719 0.663840
vt 0.050839 0.922499
vt 0.230128 0.923270
vt 0.800070 0.812324
vt 0.956094 0.840778
vt 0.981167 0.663840
vt 0.800070 0.812324
vt 0.937611 0.971204
vt 0.956094 0.840778
vt 0.800070 0.812324
vt 0.775558 0.995761
vt 0.937611 0.971204
vt 0.800070 0.812324
vt 0.418705 0.845688
vt 0.359360 0.995761
vt 0.359360 0.995761
vt 0.474410 0.995761
vt 0.800070 0.812324
vt 0.800070 0.812324
vt 0.490614 0.663840
vt 0.418705 0.845688
vt 0.800070 0.812324
vt 0.746429 0.663840
vt 0.490614 0.663840
vt 0.981167 0.663840
vt 0.746429 0.663840
vt 0.800070 0.812324
vt 0.209719 0.663840
vt 0.316955 0.473827
vt 0.005838 0.331920
vt 0.316955 0.473827
vt 0.313764 0.331920
vt 0.005838 0.331920
vt 0.316955 0.473827
vt 0.490614 0.663840
vt 0.313764 0.331920
vt 0.490614 0.663840
vt 0.660527 0.331920
vt 0.313764 0.331920
vt 0.490614 0.663840
vt 0.746429 0.663840
vt 0.660527 0.331920
vt 0.981167 0.331920
vt 0.660527 0.331920
vt 0.746429 0.663840
vt 0.746429 0.663840
vt 0.981167 0.663840
vt 0.981167 0.331920
vt 0.120798 0.000361
vt 0.005838 0.331920
vt 0.313764 0.331920
vt 0.313764 0.331920
vt 0.428820 0.000000
vt 0.120798 0.000361
vt 0.428820 0.000000
vt 0.313764 0.331920
vt 0.660527 0.331920
vt 0.660527 0.331920
vt 0.709915 0.000000
vt 0.428820 0.000000
vt 0.709915 0.000000
vt 0.660527 0.331920
vt 0.981167 0.331920
vt 0.981167 0.331920
vt 0.981167 0.000000
vt 0.709915 0.000000
vt 0.005838 0.995761
vt 0.005838 0.497880
vt 0.493503 0.497880
vt 0.493503 0.497880
vt 0.005838 0.497880
vt 0.005838 0.000000
vt 0.005838 0.000000
vt 0.493503 0.000000
vt 0.493503 0.497880
vt 0.493503 0.000000
vt 0.981167 0.000000
vt 0.981167 0.497880
vt 0.981167 0.497880
vt 0.493503 0.497880
vt 0.493503 0.000000
vt 0.493503 0.995761
vt 0.493503 0.497880
vt 0.981167 0.497880
vt 0.493503 0.497880
vt 0.493503 0.995761
vt 0.005838 0.995761
vn -0.135247 0.984078 0.115324
vn -0.109608 0.987933 0.109430
vn -0.129636 0.990853 0.037471
vn 0.171814 0.985106 -0.006839
vn 0.171814 0.985106 -0.006839
vn 0.147118 0.986382 -0.073537
vn 0.147118 0.986382 -0.073537
vn 0.147118 0.986382 -0.073537
vn 0.171814 0.985106 -0.006839
vn 0.147118 0.986382 -0.073537
vn 0.147118 0.986382 -0.073537
vn 0.108592 0.985106 -0.133321
vn 0.108592 0.985106 -0.133321
vn 0.108592 0.985106 -0.133321
vn 0.147118 0.986382 -0.073537
vn 0.039632 0.984529 0.170680
vn 0.039632 0.984529 0.170680
vn 0.101517 0.985823 0.133590
vn 0.101517 0.985823 0.133590
vn 0.101517 0.985823 0.133590
vn 0.039632 0.984529 0.170680
vn 0.101517 0.985823 0.133590
vn 0.101517 0.985823 0.133590
vn 0.153828 0.984529 0.083900
vn 0.153828 0.984529 0.083900
vn 0.153828 0.984529 0.083900
vn 0.101517 0.985823 0.133590
vn -0.277752 0.936850 -0.212522
vn -0.176369 0.959728 -0.218671
vn -0.189761 0.978382 -0.082220
vn -0.176369 0.959728 -0.218671
vn -0.277752 0.936850 -0.212522
vn -0.255033 0.928614 -0.269505
vn -0.255033 0.928614 -0.269505
vn -0.155799 0.934689 -0.319504
vn -0.176369 0.959728 -0.218671
vn -0.112256 0.967065 -0.228438
vn 0.039763 0.976280 -0.212829
vn -0.280301 0.934654 -0.218752
vn -0.277752 0.936850 -0.212522
vn -0.112256 0.967065 -0.228438
vn -0.280301 0.934654 -0.218752
vn -0.277752 0.936850 -0.212522
vn -0.280301 0.934654 -0.218752
vn -0.345544 0.915583 -0.205686
vn -0.345544 0.915583 -0.205686
vn -0.255033 0.928614 -0.269505
vn -0.277752 0.936850 -0.212522
vn -0.124376 0.977884 0.168146
vn -0.130022 0.970758 0.201798
vn -0.016691 0.973410 0.228463
vn -0.016691 0.973410 0.228463
vn -0.130022 0.970758 0.201798
vn -0.226007 0.886931 0.402834
vn -0.226007 0.886931 0.402834
vn -0.026070 0.895615 0.444066
vn -0.016691 0.973410 0.228463
vn 0.096266 0.971434 0.216908
vn 0.087620 0.978840 0.184918
vn -0.021507 0.982026 0.187518
vn -0.026070 0.895615 0.444066
vn 0.176413 0.888858 0.422860
vn 0.096266 0.971434 0.216908
vn 0.096266 0.971434 0.216908
vn -0.016691 0.973410 0.228463
vn -0.026070 0.895615 0.444066
vn -0.021507 0.982026 0.187518
vn -0.016691 0.973410 0.228463
vn 0.096266 0.971434 0.216908
vn -0.016691 0.973410 0.228463
vn -0.021507 0.982026 0.187518
vn -0.124376 0.977884 0.168146
vn 0.403886 0.903221 -0.145147
vn 0.321215 0.933812 -0.157529
vn 0.328804 0.944269 0.015606
vn 0.328804 0.944269 0.015606
vn 0.418240 0.908314 0.006436
vn 0.403886 0.903221 -0.145147
vn 0.418240 0.908314 0.006436
vn 0.328804 0.944269 0.015606
vn 0.301160 0.934944 0.187571
vn 0.301160 0.934944 0.187571
vn 0.399081 0.903313 0.157350
vn 0.418240 0.908314 0.006436
vn 0.132345 0.979290 -0.153218
vn 0.034625 0.989892 -0.137530
vn 0.027255 0.996436 0.079828
vn 0.027255 0.996436 0.079828
vn 0.138942 0.989522 0.039248
vn 0.132345 0.979290 -0.153218
vn 0.138942 0.989522 0.039248
vn 0.027255 0.996436 0.079828
vn 0.016749 0.966463 0.256258
vn 0.016749 0.966463 0.256258
vn 0.109844 0.965770 0.234995
vn 0.138942 0.989522 0.039248
vn 0.321215 0.933812 -0.157529
vn 0.132345 0.979290 -0.153218
vn 0.138942 0.989522 0.039248
vn 0.138942 0.989522 0.039248
vn 0.328804 0.944269 0.015606
vn 0.321215 0.933812 -0.157529
vn 0.328804 0.944269 0.015606
vn 0.138942 0.989522 0.039248
vn 0.109844 0.965770 0.234995
vn 0.109844 0.965770 0.234995
vn 0.301160 0.934944 0.187571
vn 0.328804 0.944269 0.015606
vn -0.197189 0.980348 -0.005773
vn -0.124692 0.988544 -0.085049
vn -0.124692 0.988544 -0.085049
vn -0.124692 0.988544 -0.085049
vn -0.195404 0.980691 -0.007855
vn -0.197189 0.980348 -0.005773
vn -0.309062 0.940235 0.142963
vn -0.197189 0.980348 -0.005773
vn -0.195404 0.980691 -0.007855
vn -0.195404 0.980691 -0.007855
vn -0.306525 0.941648 0.139072
vn -0.309062 0.940235 0.142963
vn -0.348351 0.913965 0.208134
vn -0.309062 0.940235 0.142963
vn -0.306525 0.941648 0.139072
vn -0.306525 0.941648 0.139072
vn -0.348351 0.913965 0.208134
vn -0.348351 0.913965 0.208134
vn 0.160283 0.983428 0.084727
vn 0.160283 0.983428 0.084727
vn 0.148324 0.986521 0.069111
vn 0.148324 0.986521 0.069111
vn -0.054451 0.998514 -0.002169
vn 0.160283 0.983428 0.084727
vn 0.148324 0.986521 0.069111
vn 0.021854 0.999744 0.005807
vn -0.054451 0.998514 -0.002169
vn -0.360208 0.932481 0.027006
vn -0.339304 0.940182 -0.030502
vn -0.385825 0.919719 -0.072506
vn -0.339304 0.940182 -0.030502
vn -0.360208 0.932481 0.027006
vn -0.326643 0.943709 0.052133
vn -0.205215 0.971846 0.115771
vn -0.339304 0.940182 -0.030502
vn -0.326643 0.943709 0.052133
vn -0.326643 0.943709 0.052133
vn -0.216982 0.969901 0.110499
vn -0.205215 0.971846 0.115771
vn -0.073649 0.983396 0.165854
vn -0.205215 0.971846 0.115771
vn -0.216982 0.969901 0.110499
vn -0.128891 0.989775 -0.061095
vn 0.021854 0.999744 0.005807
vn 0.083843 0.986537 -0.140410
vn -0.128891 0.989775 -0.061095
vn 0.083843 0.986537 -0.140410
vn 0.115386 0.978271 -0.172257
vn 0.115386 0.978271 -0.172257
vn 0.115386 0.978271 -0.172257
vn -0.128891 0.989775 -0.061095
vn -0.387699 0.916011 -0.103024
vn -0.387699 0.916011 -0.103024
vn -0.314655 0.945516 -0.083614
vn -0.314655 0.945516 -0.083614
vn -0.314655 0.945516 -0.083614
vn -0.387699 0.916011 -0.103024
vn -0.314655 0.945516 -0.083614
vn -0.314655 0.945516 -0.083614
vn -0.120537 0.992192 -0.032030
vn -0.120537 0.992192 -0.032030
vn -0.128891 0.989775 -0.061095
vn -0.314655 0.945516 -0.083614
vn -0.387699 0.916011 -0.103024
vn -0.385825 0.919719 -0.072506
vn -0.339304 0.940182 -0.030502
vn -0.339304 0.940182 -0.030502
vn -0.314655 0.945516 -0.083614
vn -0.387699 0.916011 -0.103024
vn -0.314655 0.945516 -0.083614
vn -0.339304 0.940182 -0.030502
vn -0.054451 0.998514 -0.002169
vn -0.054451 0.998514 -0.002169
vn -0.120537 0.992192 -0.032030
vn -0.314655 0.945516 -0.083614
vn -0.037183 0.996108 0.079916
vn -0.036583 0.994477 0.098373
vn 0.052664 0.997194 -0.053204
vn -0.103339 0.979231 0.174434
vn -0.036583 0.994477 0.098373
vn -0.037183 0.996108 0.079916
vn -0.037183 0.996108 0.079916
vn -0.103339 0.979231 0.174434
vn -0.103339 0.979231 0.174434
vn 0.048160 0.913071 0.404946
vn 0.088398 0.937143 0.337563
vn 0.226758 0.964719 0.133785
vn 0.048160 0.913071 0.404946
vn -0.045652 0.860833 0.506836
vn 0.088398 0.937143 0.337563
vn 0.048160 0.913071 0.404946
vn -0.051067 0.862076 0.504199
vn -0.045652 0.860833 0.506836
vn 0.076962 0.988745 0.128295
vn 0.058031 0.984519 0.165391
vn 0.028596 0.977855 0.207319
vn 0.028596 0.977855 0.207319
vn 0.028596 0.977855 0.207319
vn 0.076962 0.988745 0.128295
vn 0.076962 0.988745 0.128295
vn 0.107275 0.994166 0.011190
vn 0.058031 0.984519 0.165391
vn 0.076962 0.988745 0.128295
vn 0.168488 0.982983 0.073190
vn 0.107275 0.994166 0.011190
vn 0.226758 0.964719 0.133785
vn 0.168488 0.982983 0.073190
vn 0.048160 0.913071 0.404946
vn -0.037183 0.996108 0.079916
vn 0.052664 0.997194 -0.053204
vn 0.133019 0.974672 -0.179780
vn 0.052664 0.997194 -0.053204
vn 0.157968 0.976011 -0.149828
vn 0.133019 0.974672 -0.179780
vn 0.052664 0.997194 -0.053204
vn 0.107275 0.994166 0.011190
vn 0.157968 0.976011 -0.149828
vn 0.107275 0.994166 0.011190
vn 0.269461 0.959086 -0.086856
vn 0.157968 0.976011 -0.149828
vn 0.107275 0.994166 0.011190
vn 0.168488 0.982983 0.073190
vn 0.269461 0.959086 -0.086856
vn 0.369289 0.928489 -0.039170
vn 0.269461 0.959086 -0.086856
vn 0.168488 0.982983 0.073190
vn 0.168488 0.982983 0.073190
vn 0.226758 0.964719 0.133785
vn 0.369289 0.928489 -0.039170
vn 0.216567 0.941712 -0.257444
vn 0.133019 0.974672 -0.179780
vn 0.157968 0.976011 -0.149828
vn 0.157968 0.976011 -0.149828
vn 0.252630 0.938242 -0.236392
vn 0.216567 0.941712 -0.257444
vn 0.252630 0.938242 -0.236392
vn 0.157968 0.976011 -0.149828
vn 0.269461 0.959086 -0.086856
vn 0.269461 0.959086 -0.086856
vn 0.343519 0.923306 -0.171760
vn 0.252630 0.938242 -0.236392
vn 0.343519 0.923306 -0.171760
vn 0.269461 0.959086 -0.086856
vn 0.369289 0.928489 -0.039170
vn 0.369289 0.928489 -0.039170
vn 0.414777 0.903897 -0.104550
vn 0.343519 0.923306 -0.171760
vn -0.135006 0.989970 -0.041636
vn -0.162689 0.985532 -0.047520
vn -0.163536 0.985950 0.034024
vn -0.163536 0.985950 0.034024
vn -0.162689 0.985532 -0.047520
vn -0.442539 0.888248 -0.123189
vn -0.442539 0.888248 -0.123189
vn -0.443221 0.892753 0.080917
vn -0.163536 0.985950 0.034024
vn -0.443221 0.892753 0.080917
vn -0.380736 0.882191 0.277092
vn -0.135247 0.984078 0.115324
vn -0.135247 0.984078 0.115324
vn -0.163536 0.985950 0.034024
vn -0.443221 0.892753 0.080917
vn -0.129636 0.990853 0.037471
vn -0.163536 0.985950 0.034024
vn -0.135247 0.984078 0.115324
vn -0.163536 0.985950 0.034024
vn -0.129636 0.990853 0.037471
vn -0.135006 0.989970 -0.041636

g World_Expansion05_doodads_tanaanjungle_doodads_6tj_patchswamp_smallbush_a01.m2_Geoset_000
usemtl World_Expansion05_doodads_tanaanjungle_doodads_6tj_patchswamp_smallbush_a01.m2_Geoset_000_Dbl
s 1
f 1/1/1 2/2/2 3/3/3
f 4/4/4 5/5/5 6/6/6
f 7/7/7 8/8/8 9/9/9
f 10/10/10 11/11/11 12/12/12
f 13/13/13 14/14/14 15/15/15
f 16/16/16 17/17/17 18/18/18
f 19/19/19 20/20/20 21/21/21
f 22/22/22 23/23/23 24/24/24
f 25/25/25 26/26/26 27/27/27
f 28/28/28 29/29/29 30/30/30
f 31/31/31 32/32/32 33/33/33
f 34/34/34 35/35/35 36/36/36
f 37/37/37 38/38/38 39/39/39
f 40/40/40 41/41/41 42/42/42
f 43/43/43 44/44/44 45/45/45
f 46/46/46 47/47/47 48/48/48
f 49/49/49 50/50/50 51/51/51
f 52/52/52 53/53/53 54/54/54
f 55/55/55 56/56/56 57/57/57
f 58/58/58 59/59/59 60/60/60
f 61/61/61 62/62/62 63/63/63
f 64/64/64 65/65/65 66/66/66
f 67/67/67 68/68/68 69/69/69
f 70/70/70 71/71/71 72/72/72
f 73/73/73 74/74/74 75/75/75
f 76/76/76 77/77/77 78/78/78
f 79/79/79 80/80/80 81/81/81
f 82/82/82 83/83/83 84/84/84
f 85/85/85 86/86/86 87/87/87
f 88/88/88 89/89/89 90/90/90
f 91/91/91 92/92/92 93/93/93
f 94/94/94 95/95/95 96/96/96
f 97/97/97 98/98/98 99/99/99
f 100/100/100 101/101/101 102/102/102
f 103/103/103 104/104/104 105/105/105
f 106/106/106 107/107/107 108/108/108
f 109/109/109 110/110/110 111/111/111
f 112/112/112 113/113/113 114/114/114
f 115/115/115 116/116/116 117/117/117
f 118/118/118 119/119/119 120/120/120
f 121/121/121 122/122/122 123/123/123
f 124/124/124 125/125/125 126/126/126
f 127/127/127 128/128/128 129/129/129
f 130/130/130 131/131/131 132/132/132
f 133/133/133 134/134/134 135/135/135
f 136/136/136 137/137/137 138/138/138
f 139/139/139 140/140/140 141/141/141
f 142/142/142 143/143/143 144/144/144
f 145/145/145 146/146/146 147/147/147
f 148/148/148 149/149/149 150/150/150
f 151/151/151 152/152/152 153/153/153
f 154/154/154 155/155/155 156/156/156
f 157/157/157 158/158/158 159/159/159
f 160/160/160 161/161/161 162/162/162
f 163/163/163 164/164/164 165/165/165
f 166/166/166 167/167/167 168/168/168
f 169/169/169 170/170/170 171/171/171
f 172/172/172 173/173/173 174/174/174
f 175/175/175 176/176/176 177/177/177
f 178/178/178 179/179/179 180/180/180
f 181/181/181 182/182/182 183/183/183
f 184/184/184 185/185/185 186/186/186
f 187/187/187 188/188/188 189/189/189
f 190/190/190 191/191/191 192/192/192
f 193/193/193 194/194/194 195/195/195
f 196/196/196 197/197/197 198/198/198
f 199/199/199 200/200/200 201/201/201
f 202/202/202 203/203/203 204/204/204
f 205/205/205 206/206/206 207/207/207
f 208/208/208 209/209/209 210/210/210
f 211/211/211 212/212/212 213/213/213
f 214/214/214 215/215/215 216/216/216
f 217/217/217 218/218/218 219/219/219
f 220/220/220 221/221/221 222/222/222
f 223/223/223 224/224/224 225/225/225
f 226/226/226 227/227/227 228/228/228
f 229/229/229 230/230/230 231/231/231
f 232/232/232 233/233/233 234/234/234
f 235/235/235 236/236/236 237/237/237
f 238/238/238 239/239/239 240/240/240
f 241/241/241 242/242/242 243/243/243
f 244/244/244 245/245/245 246/246/246
f 247/247/247 248/248/248 249/249/249
f 250/250/250 251/251/251 252/252/252
f 253/253/253 254/254/254 255/255/255
f 256/256/256 257/257/257 258/258/258
f 259/259/259 260/260/260 261/261/261
f 262/262/262 263/263/263 264/264/264
f 265/265/265 266/266/266 267/267/267
f 268/268/268 269/269/269 270/270/270
f 271/271/271 272/272/272 273/273/273
f 274/274/274 275/275/275 276/276/276
# 92 triangles in group

# 92 triangles total