# Blender v2.78 (sub 0) OBJ File: ''
# www.blender.org
mtllib Dresser.mtl
o Furniture_01_Dresser_Dresser02_Closed_CZER_ND_Smesh
v 0.271921 1.586786 -0.487741
v 0.271921 1.586786 -0.466265
v 0.271921 1.612963 -0.506482
v 0.271921 0.388967 0.506482
v 0.271921 0.281946 0.506482
v 0.305034 0.281946 0.506482
v 0.271921 0.459435 0.506482
v 0.305034 0.596287 0.506482
v 0.271921 0.596287 0.506482
v 0.271921 0.726834 0.506482
v 0.271921 0.619814 0.506482
v 0.305034 0.619814 0.506482
v 0.271921 0.797303 0.506482
v 0.305034 0.934155 0.506482
v 0.271921 0.934155 0.506482
v 0.271921 1.066354 0.506482
v 0.271921 0.959333 0.506482
v 0.305034 0.959333 0.506482
v 0.271921 1.136822 0.506482
v 0.305034 1.273674 0.506482
v 0.271921 1.273674 0.506482
v 0.271921 1.405642 0.506482
v 0.271921 1.298622 0.506482
v 0.305034 1.298622 0.506482
v 0.271921 1.476111 0.506482
v 0.305034 1.612963 0.506482
v 0.271921 1.612963 0.506482
v -0.284273 0.148456 0.508258
v 0.226153 0.247302 0.508258
v 0.226153 0.148456 0.508258
v -0.363368 0.247302 0.508258
v -0.363368 0.000419 0.508258
v -0.284273 0.000419 0.508258
v -0.334209 1.276271 0.508259
v 0.305229 1.276271 0.508259
v -0.334209 0.957905 0.508259
v 0.305229 0.957905 0.508259
v 0.305229 1.276271 -0.508258
v -0.334209 1.276271 -0.508258
v 0.305229 0.957905 -0.508258
v -0.334209 0.957905 -0.508258
v -0.334209 1.614932 0.508259
v 0.305229 1.614932 0.508259
v -0.334209 1.296240 0.508259
v 0.305229 1.296240 0.508259
v 0.305229 1.614932 -0.508258
v -0.334209 1.614932 -0.508258
v 0.305229 1.296240 -0.508258
v -0.334209 1.296240 -0.508258
v 0.329424 1.644012 0.612421
v -0.363368 1.644012 0.612421
v 0.305229 1.644012 0.589260
v -0.363368 1.644012 0.589260
v 0.329424 1.644012 -0.612420
v 0.305229 1.644012 -0.589259
v -0.363368 1.644012 -0.612420
v -0.363368 1.644012 -0.589259
v 0.305034 0.596287 -0.506482
v 0.305034 0.596287 0.506482
v 0.305034 0.281946 -0.506482
v 0.305034 0.281946 0.506482
v -0.318272 0.281946 0.487742
v -0.318272 0.281946 -0.487742
v 0.271921 0.281946 0.487741
v 0.271921 0.281946 -0.487741
v -0.318272 0.570110 -0.487742
v -0.318272 0.570110 0.487742
v -0.292918 0.570110 -0.466266
v -0.292918 0.570110 0.466266
v -0.292918 0.318248 0.466265
v -0.292918 0.318248 -0.466264
v -0.292918 0.570110 0.466266
v -0.292918 0.570110 -0.466266
v 0.271921 0.459435 -0.506482
v -0.318272 0.459436 -0.506482
v 0.271921 0.459435 -0.487741
v -0.318272 0.459435 -0.487740
v -0.318272 0.388967 -0.487741
v -0.318272 0.459435 -0.487740
v -0.318272 0.388967 -0.506482
v -0.318272 0.459436 -0.506482
v 0.271921 0.388967 -0.506482
v 0.271921 0.388967 -0.487741
v -0.318272 0.388967 -0.506482
v -0.318272 0.388967 -0.487741
v -0.318272 0.570110 -0.487742
v 0.271921 0.570111 -0.487741
v -0.318272 0.459435 -0.487740
v 0.271921 0.459435 -0.487741
v -0.318272 0.570110 -0.487742
v -0.292918 0.570110 -0.466266
v 0.271921 0.570111 -0.487741
v 0.271921 0.570111 -0.466265
v 0.271921 0.388967 -0.487741
v 0.271921 0.281946 -0.487741
v -0.318272 0.388967 -0.487741
v -0.318272 0.281946 -0.487742
v 0.271921 0.459435 -0.506482
v 0.271921 0.388967 -0.506482
v -0.318272 0.459436 -0.506482
v -0.318272 0.388967 -0.506482
v -0.292918 0.318248 -0.466264
v 0.271921 0.318248 -0.466265
v -0.292918 0.570110 -0.466266
v 0.271921 0.570111 -0.466265
v 0.271921 0.570111 -0.487741
v 0.271921 0.570111 -0.466265
v 0.271921 0.596287 -0.506482
v -0.284273 0.148456 -0.508259
v -0.363369 0.000419 -0.508259
v -0.284273 0.000419 -0.508259
v -0.363369 0.247302 -0.508259
v 0.226153 0.247302 -0.508259
v 0.226153 0.148456 -0.508259
v 0.271921 0.459435 0.506482
v 0.271921 0.459435 0.487741
v -0.318272 0.459436 0.506482
v -0.318272 0.459435 0.487741
v -0.318272 0.388967 0.487741
v -0.318272 0.388967 0.506482
v -0.318272 0.459435 0.487741
v -0.318272 0.459436 0.506482
v 0.271921 0.388967 0.506482
v -0.318272 0.388967 0.506482
v 0.271921 0.388967 0.487741
v -0.318272 0.388967 0.487741
v -0.318272 0.570110 0.487742
v -0.318272 0.459435 0.487741
v 0.271921 0.570110 0.487741
v 0.271921 0.459435 0.487741
v -0.318272 0.570110 0.487742
v 0.271921 0.570110 0.487741
v -0.292918 0.570110 0.466266
v 0.271921 0.570110 0.466265
v 0.271921 0.388967 0.487741
v -0.318272 0.388967 0.487741
v 0.271921 0.281946 0.487741
v -0.318272 0.281946 0.487742
v 0.271921 0.459435 0.506482
v -0.318272 0.459436 0.506482
v 0.271921 0.388967 0.506482
v -0.318272 0.388967 0.506482
v -0.292918 0.318248 0.466265
v -0.292918 0.570110 0.466266
v 0.271921 0.318248 0.466265
v 0.271921 0.570110 0.466265
v -0.292918 0.318248 0.466265
v 0.271921 0.318248 0.466265
v -0.292918 0.318248 -0.466264
v 0.271921 0.318248 -0.466265
v 0.271921 0.281946 0.487741
v 0.271921 0.281946 0.506482
v 0.271921 0.388967 0.487741
v 0.271921 0.388967 0.506482
v -0.318272 0.281946 0.487742
v -0.318272 0.388967 0.487741
v -0.318272 0.281946 -0.487742
v -0.318272 0.388967 -0.487741
v -0.318272 0.459435 0.487741
v -0.318272 0.459435 -0.487740
v -0.318272 0.570110 -0.487742
v -0.318272 0.570110 0.487742
v 0.271921 0.318248 0.466265
v 0.271921 0.570110 0.466265
v 0.271921 0.318248 -0.466265
v 0.271921 0.570111 -0.466265
v 0.271921 0.596287 -0.506482
v 0.271921 0.596287 0.506482
v 0.271921 0.570110 0.487741
v 0.271921 0.459435 0.506482
v 0.271921 0.459435 0.487741
v 0.271921 0.596287 0.506482
v 0.305034 0.596287 0.506482
v 0.271921 0.596287 -0.506482
v 0.305034 0.596287 -0.506482
v 0.305034 0.934155 -0.506482
v 0.305034 0.934155 0.506482
v 0.305034 0.619814 -0.506482
v 0.305034 0.619814 0.506482
v -0.318272 0.619814 0.487742
v -0.318272 0.619814 -0.487742
v 0.271921 0.619814 0.487741
v 0.271921 0.619814 -0.487741
v -0.318272 0.907978 -0.487742
v -0.318272 0.907978 0.487742
v -0.292918 0.907978 -0.466266
v -0.292918 0.907978 0.466266
v -0.292918 0.656115 0.466265
v -0.292918 0.656116 -0.466264
v -0.292918 0.907978 0.466266
v -0.292918 0.907978 -0.466266
v 0.271921 0.797303 -0.506482
v -0.318272 0.797303 -0.506482
v 0.271921 0.797303 -0.487741
v -0.318272 0.797303 -0.487740
v -0.318272 0.726834 -0.487741
v -0.318272 0.797303 -0.487740
v -0.318272 0.726835 -0.506482
v -0.318272 0.797303 -0.506482
v 0.271921 0.726834 -0.506482
v 0.271921 0.726834 -0.487741
v -0.318272 0.726835 -0.506482
v -0.318272 0.726834 -0.487741
v -0.318272 0.907978 -0.487742
v 0.271921 0.907978 -0.487741
v -0.318272 0.797303 -0.487740
v 0.271921 0.797303 -0.487741
v -0.318272 0.907978 -0.487742
v -0.292918 0.907978 -0.466266
v 0.271921 0.907978 -0.487741
v 0.271921 0.907978 -0.466265
v 0.271921 0.726834 -0.487741
v 0.271921 0.619814 -0.487741
v -0.318272 0.726834 -0.487741
v -0.318272 0.619814 -0.487742
v 0.271921 0.797303 -0.506482
v 0.271921 0.726834 -0.506482
v -0.318272 0.797303 -0.506482
v -0.318272 0.726835 -0.506482
v -0.292918 0.656116 -0.466264
v 0.271921 0.656116 -0.466265
v -0.292918 0.907978 -0.466266
v 0.271921 0.907978 -0.466265
v 0.271921 0.907978 -0.487741
v 0.271921 0.907978 -0.466265
v 0.271921 0.934155 -0.506482
v 0.305229 0.148456 -0.508259
v 0.305229 0.280300 -0.508259
v 0.305229 0.148456 -0.456456
v 0.305229 0.198768 -0.429710
v 0.305229 0.280300 -0.254129
v 0.305229 0.136267 -0.254129
v 0.305229 0.120698 -0.127065
v 0.305229 0.120698 0.127064
v 0.305229 0.280300 0.254129
v 0.305229 0.136267 0.254129
v 0.305229 0.198768 0.429710
v 0.305229 0.280300 0.508258
v 0.305229 0.148456 0.456456
v 0.305229 0.148456 0.508258
v 0.305229 0.596096 0.589260
v 0.305229 0.617817 0.508259
v 0.305229 0.936183 0.589260
v 0.305229 0.598224 0.508259
v 0.305229 0.280300 0.589260
v 0.305229 0.148455 0.589259
v 0.305229 0.000419 0.508258
v 0.305229 0.000419 0.589259
v 0.305229 0.598224 -0.508259
v 0.305229 0.617817 -0.508259
v 0.305229 0.936184 -0.589260
v 0.305229 1.276271 -0.589260
v 0.305229 0.957905 -0.508258
v 0.305229 1.276271 -0.508258
v 0.305229 1.296240 -0.508258
v 0.305229 1.276271 0.508259
v 0.305229 1.296240 0.508259
v 0.305229 1.276271 0.589260
v 0.305229 0.957905 0.508259
v 0.305229 0.936183 0.508259
v 0.305229 0.936184 -0.508258
v 0.305229 1.614932 0.508259
v 0.305229 1.644012 0.589260
v 0.305229 1.614932 -0.508258
v 0.305229 1.644012 -0.589259
v 0.305229 0.000419 -0.508259
v 0.305229 0.000419 -0.589260
v 0.305229 0.148456 -0.589260
v 0.305229 0.280300 -0.589260
v 0.305229 0.280300 -0.508259
v 0.305229 0.596096 -0.589260
v 0.226153 0.198768 0.429710
v 0.226153 0.136267 0.254129
v 0.305229 0.198768 0.429710
v 0.305229 0.136267 0.254129
v 0.305229 0.120698 0.127064
v 0.226153 0.120698 0.127064
v 0.305229 0.120698 -0.127065
v 0.226153 0.120698 -0.127065
v 0.305229 0.136267 -0.254129
v 0.226153 0.136267 -0.254129
v 0.305229 0.198768 -0.429710
v 0.226153 0.198768 -0.429710
v 0.271921 0.797303 0.506482
v 0.271921 0.797303 0.487741
v -0.318272 0.797303 0.506482
v -0.318272 0.797303 0.487741
v -0.318272 0.726834 0.487741
v -0.318272 0.726834 0.506482
v -0.318272 0.797303 0.487741
v -0.318272 0.797303 0.506482
v 0.271921 0.726834 0.506482
v -0.318272 0.726834 0.506482
v 0.271921 0.726834 0.487741
v -0.318272 0.726834 0.487741
v -0.318272 0.907978 0.487742
v -0.318272 0.797303 0.487741
v 0.271921 0.907978 0.487741
v 0.271921 0.797303 0.487741
v -0.318272 0.907978 0.487742
v 0.271921 0.907978 0.487741
v -0.292918 0.907978 0.466266
v 0.271921 0.907978 0.466265
v 0.271921 0.726834 0.487741
v -0.318272 0.726834 0.487741
v 0.271921 0.619814 0.487741
v -0.318272 0.619814 0.487742
v 0.271921 0.797303 0.506482
v -0.318272 0.797303 0.506482
v 0.271921 0.726834 0.506482
v -0.318272 0.726834 0.506482
v -0.292918 0.656115 0.466265
v -0.292918 0.907978 0.466266
v 0.271921 0.656116 0.466265
v 0.271921 0.907978 0.466265
v -0.292918 0.656115 0.466265
v 0.271921 0.656116 0.466265
v -0.292918 0.656116 -0.466264
v 0.271921 0.656116 -0.466265
v 0.271921 0.619814 0.487741
v 0.271921 0.619814 0.506482
v 0.271921 0.726834 0.487741
v 0.271921 0.726834 0.506482
v -0.318272 0.619814 0.487742
v -0.318272 0.726834 0.487741
v -0.318272 0.619814 -0.487742
v -0.318272 0.726834 -0.487741
v -0.318272 0.797303 0.487741
v -0.318272 0.797303 -0.487740
v -0.318272 0.907978 -0.487742
v -0.318272 0.907978 0.487742
v 0.271921 0.656116 0.466265
v 0.271921 0.907978 0.466265
v 0.271921 0.656116 -0.466265
v 0.271921 0.907978 -0.466265
v 0.271921 0.934155 -0.506482
v 0.271921 0.934155 0.506482
v 0.271921 0.907978 0.487741
v 0.271921 0.797303 0.506482
v 0.271921 0.797303 0.487741
v 0.271921 0.934155 0.506482
v 0.305034 0.934155 0.506482
v 0.271921 0.934155 -0.506482
v 0.305034 0.934155 -0.506482
v 0.305034 1.273674 -0.506482
v 0.305034 1.273674 0.506482
v 0.305034 0.959333 -0.506482
v 0.305034 0.959333 0.506482
v -0.318272 0.959333 0.487742
v -0.318272 0.959333 -0.487742
v 0.271921 0.959333 0.487741
v 0.271921 0.959333 -0.487741
v -0.318272 1.247498 -0.487742
v -0.318272 1.247497 0.487742
v -0.292918 1.247498 -0.466266
v -0.292918 1.247497 0.466266
v -0.292918 0.995635 0.466265
v -0.292918 0.995635 -0.466264
v -0.292918 1.247497 0.466266
v -0.292918 1.247498 -0.466266
v 0.271921 1.136822 -0.506482
v -0.318272 1.136823 -0.506482
v 0.271921 1.136822 -0.487741
v -0.318272 1.136822 -0.487740
v -0.318272 1.066354 -0.487741
v -0.318272 1.136822 -0.487740
v -0.318272 1.066354 -0.506482
v -0.318272 1.136823 -0.506482
v 0.271921 1.066354 -0.506482
v 0.271921 1.066354 -0.487741
v -0.318272 1.066354 -0.506482
v -0.318272 1.066354 -0.487741
v -0.318272 1.247498 -0.487742
v 0.271921 1.247498 -0.487741
v -0.318272 1.136822 -0.487740
v 0.271921 1.136822 -0.487741
v -0.318272 1.247498 -0.487742
v -0.292918 1.247498 -0.466266
v 0.271921 1.247498 -0.487741
v 0.271921 1.247498 -0.466265
v 0.271921 1.066354 -0.487741
v 0.271921 0.959333 -0.487741
v -0.318272 1.066354 -0.487741
v -0.318272 0.959333 -0.487742
v 0.271921 1.136822 -0.506482
v 0.271921 1.066354 -0.506482
v -0.318272 1.136823 -0.506482
v -0.318272 1.066354 -0.506482
v -0.292918 0.995635 -0.466264
v 0.271921 0.995635 -0.466265
v -0.292918 1.247498 -0.466266
v 0.271921 1.247498 -0.466265
v 0.271921 1.247498 -0.487741
v 0.271921 1.247498 -0.466265
v 0.271921 1.273674 -0.506482
v 0.305229 0.280300 -0.508259
v -0.334209 0.280300 -0.508259
v 0.305229 0.280300 -0.254129
v 0.305229 0.280300 0.254129
v -0.334209 0.280300 0.508259
v 0.305229 0.280300 0.508258
v 0.305229 0.280300 0.589260
v -0.284273 0.148456 0.589259
v 0.226153 0.148456 0.589259
v 0.305229 0.148455 0.589259
v 0.305229 0.000419 0.589259
v 0.226153 0.000419 0.589259
v -0.363368 0.000419 0.589259
v -0.284273 0.000419 0.589259
v -0.363368 0.247302 0.589259
v -0.363368 0.596096 0.589260
v 0.305229 0.596096 0.589260
v -0.363368 0.936183 0.589260
v 0.305229 0.936183 0.589260
v 0.305229 1.276271 0.589260
v -0.363368 1.276271 0.589260
v 0.305229 1.644012 0.589260
v -0.363368 1.644012 0.589260
v 0.271921 1.136822 0.506482
v 0.271921 1.136822 0.487741
v -0.318272 1.136822 0.506482
v -0.318272 1.136822 0.487741
v -0.318272 1.066354 0.487741
v -0.318272 1.066354 0.506482
v -0.318272 1.136822 0.487741
v -0.318272 1.136822 0.506482
v 0.271921 1.066354 0.506482
v -0.318272 1.066354 0.506482
v 0.271921 1.066354 0.487741
v -0.318272 1.066354 0.487741
v -0.318272 1.247497 0.487742
v -0.318272 1.136822 0.487741
v 0.271921 1.247497 0.487741
v 0.271921 1.136822 0.487741
v -0.318272 1.247497 0.487742
v 0.271921 1.247497 0.487741
v -0.292918 1.247497 0.466266
v 0.271921 1.247497 0.466265
v 0.271921 1.066354 0.487741
v -0.318272 1.066354 0.487741
v 0.271921 0.959333 0.487741
v -0.318272 0.959333 0.487742
v 0.271921 1.136822 0.506482
v -0.318272 1.136822 0.506482
v 0.271921 1.066354 0.506482
v -0.318272 1.066354 0.506482
v -0.292918 0.995635 0.466265
v -0.292918 1.247497 0.466266
v 0.271921 0.995635 0.466265
v 0.271921 1.247497 0.466265
v -0.292918 0.995635 0.466265
v 0.271921 0.995635 0.466265
v -0.292918 0.995635 -0.466264
v 0.271921 0.995635 -0.466265
v 0.271921 0.959333 0.487741
v 0.271921 0.959333 0.506482
v 0.271921 1.066354 0.487741
v 0.271921 1.066354 0.506482
v -0.318272 0.959333 0.487742
v -0.318272 1.066354 0.487741
v -0.318272 0.959333 -0.487742
v -0.318272 1.066354 -0.487741
v -0.318272 1.136822 0.487741
v -0.318272 1.136822 -0.487740
v -0.318272 1.247498 -0.487742
v -0.318272 1.247497 0.487742
v 0.271921 0.995635 0.466265
v 0.271921 1.247497 0.466265
v 0.271921 0.995635 -0.466265
v 0.271921 1.247498 -0.466265
v 0.271921 1.273674 -0.506482
v 0.271921 1.273674 0.506482
v 0.271921 1.247497 0.487741
v 0.271921 1.136822 0.506482
v 0.271921 1.136822 0.487741
v 0.271921 1.273674 0.506482
v 0.305034 1.273674 0.506482
v 0.271921 1.273674 -0.506482
v 0.305034 1.273674 -0.506482
v 0.305034 1.612963 -0.506482
v 0.305034 1.612963 0.506482
v 0.305034 1.298622 -0.506482
v 0.305034 1.298622 0.506482
v -0.318272 1.298622 0.487742
v -0.318272 1.298622 -0.487742
v 0.271921 1.298622 0.487741
v 0.271921 1.298622 -0.487741
v -0.318272 1.586786 -0.487742
v -0.318272 1.586786 0.487742
v -0.292918 1.586786 -0.466266
v -0.292918 1.586786 0.466266
v -0.292918 1.334924 0.466265
v -0.292918 1.334924 -0.466264
v -0.292918 1.586786 0.466266
v -0.292918 1.586786 -0.466266
v 0.271921 1.476111 -0.506482
v -0.318272 1.476111 -0.506482
v 0.271921 1.476111 -0.487741
v -0.318272 1.476111 -0.487740
v -0.318272 1.405643 -0.487741
v -0.318272 1.476111 -0.487740
v -0.318272 1.405643 -0.506482
v -0.318272 1.476111 -0.506482
v 0.271921 1.405643 -0.506482
v 0.271921 1.405643 -0.487741
v -0.318272 1.405643 -0.506482
v -0.318272 1.405643 -0.487741
v -0.318272 1.586786 -0.487742
v 0.271921 1.586786 -0.487741
v -0.318272 1.476111 -0.487740
v 0.271921 1.476111 -0.487741
v -0.318272 1.586786 -0.487742
v -0.292918 1.586786 -0.466266
v 0.271921 1.586786 -0.487741
v 0.271921 1.586786 -0.466265
v 0.271921 1.405643 -0.487741
v 0.271921 1.298622 -0.487741
v -0.318272 1.405643 -0.487741
v -0.318272 1.298622 -0.487742
v 0.271921 1.476111 -0.506482
v 0.271921 1.405643 -0.506482
v -0.318272 1.476111 -0.506482
v -0.318272 1.405643 -0.506482
v -0.292918 1.334924 -0.466264
v 0.271921 1.334924 -0.466265
v -0.292918 1.586786 -0.466266
v 0.271921 1.586786 -0.466265
v 0.271921 1.476111 0.506482
v 0.271921 1.476111 0.487741
v -0.318272 1.476111 0.506482
v -0.318272 1.476111 0.487741
v -0.318272 1.405642 0.487741
v -0.318272 1.405643 0.506482
v -0.318272 1.476111 0.487741
v -0.318272 1.476111 0.506482
v 0.271921 1.405642 0.506482
v -0.318272 1.405643 0.506482
v 0.271921 1.405642 0.487741
v -0.318272 1.405642 0.487741
v -0.318272 1.586786 0.487742
v -0.318272 1.476111 0.487741
v 0.271921 1.586786 0.487741
v 0.271921 1.476111 0.487741
v -0.318272 1.586786 0.487742
v 0.271921 1.586786 0.487741
v -0.292918 1.586786 0.466266
v 0.271921 1.586786 0.466265
v 0.271921 1.405642 0.487741
v -0.318272 1.405642 0.487741
v 0.271921 1.298622 0.487741
v -0.318272 1.298622 0.487742
v 0.271921 1.476111 0.506482
v -0.318272 1.476111 0.506482
v 0.271921 1.405642 0.506482
v -0.318272 1.405643 0.506482
v -0.292918 1.334924 0.466265
v -0.292918 1.586786 0.466266
v 0.271921 1.334924 0.466265
v 0.271921 1.586786 0.466265
v -0.292918 1.334924 0.466265
v 0.271921 1.334924 0.466265
v -0.292918 1.334924 -0.466264
v 0.271921 1.334924 -0.466265
v 0.271921 1.298622 0.487741
v 0.271921 1.298622 0.506482
v 0.271921 1.405642 0.487741
v 0.271921 1.405642 0.506482
v -0.318272 1.298622 0.487742
v -0.318272 1.405642 0.487741
v -0.318272 1.298622 -0.487742
v -0.318272 1.405643 -0.487741
v -0.318272 1.476111 0.487741
v -0.318272 1.476111 -0.487740
v -0.318272 1.586786 -0.487742
v -0.318272 1.586786 0.487742
v 0.271921 1.334924 0.466265
v 0.271921 1.586786 0.466265
v 0.271921 1.334924 -0.466265
v 0.271921 1.586786 -0.466265
v 0.271921 1.612963 -0.506482
v 0.271921 1.612963 0.506482
v 0.271921 1.586786 0.487741
v 0.271921 1.476111 0.506482
v 0.271921 1.476111 0.487741
v 0.271921 1.612963 0.506482
v 0.305034 1.612963 0.506482
v 0.271921 1.612963 -0.506482
v 0.305034 1.612963 -0.506482
v 0.338174 0.426150 0.263675
v 0.332626 0.426150 0.265698
v 0.305008 0.426150 0.241364
v 0.305008 0.426150 0.247904
v 0.338174 0.426150 0.368285
v 0.332626 0.426150 0.366262
v 0.332626 0.426150 0.265698
v 0.305008 0.426150 0.390597
v 0.332626 0.426150 0.366262
v 0.305008 0.426150 0.384057
v 0.332626 0.426150 0.265698
v 0.332626 0.454665 0.265698
v 0.305008 0.426150 0.247904
v 0.305008 0.454665 0.247904
v 0.338174 0.454665 0.263675
v 0.305008 0.454665 0.241364
v 0.332626 0.454665 0.265698
v 0.305008 0.454665 0.247904
v 0.338174 0.454665 0.368285
v 0.332626 0.454665 0.366262
v 0.332626 0.454665 0.265698
v 0.332626 0.454665 0.366262
v 0.305008 0.454665 0.390597
v 0.305008 0.454665 0.384057
v 0.332626 0.426150 0.366262
v 0.332626 0.454665 0.366262
v 0.332626 0.426150 0.265698
v 0.332626 0.454665 0.265698
v 0.305008 0.426150 0.384057
v 0.305008 0.454665 0.384057
v 0.332626 0.426150 0.366262
v 0.332626 0.454665 0.366262
v 0.305008 0.454665 0.390597
v 0.305008 0.426150 0.390597
v 0.338174 0.454665 0.368285
v 0.338174 0.426150 0.368285
v 0.338174 0.426150 0.263675
v 0.338174 0.454665 0.263675
v 0.305008 0.454665 0.241364
v 0.305008 0.426150 0.241364
v 0.305008 0.426150 0.384057
v 0.305008 0.426150 0.390597
v 0.305008 0.454665 0.384057
v 0.305008 0.454665 0.390597
v 0.305008 0.454665 0.247904
v 0.305008 0.454665 0.241364
v 0.305008 0.426150 0.247904
v 0.305008 0.426150 0.241364
v 0.338174 0.426151 -0.368285
v 0.332626 0.426151 -0.366262
v 0.305008 0.426151 -0.390597
v 0.305008 0.426151 -0.384057
v 0.338174 0.426150 -0.263675
v 0.332626 0.426150 -0.265698
v 0.332626 0.426151 -0.366262
v 0.305008 0.426150 -0.241364
v 0.332626 0.426150 -0.265698
v 0.305008 0.426150 -0.247904
v 0.332626 0.426151 -0.366262
v 0.332626 0.454665 -0.366262
v 0.305008 0.426151 -0.384057
v 0.305008 0.454665 -0.384057
v 0.338174 0.454665 -0.368285
v 0.305008 0.454665 -0.390597
v 0.332626 0.454665 -0.366262
v 0.305008 0.454665 -0.384057
v 0.338174 0.454665 -0.263675
v 0.332626 0.454665 -0.265698
v 0.332626 0.454665 -0.366262
v 0.332626 0.454665 -0.265698
v 0.305008 0.454665 -0.241364
v 0.305008 0.454665 -0.247904
v 0.332626 0.426150 -0.265698
v 0.332626 0.454665 -0.265698
v 0.332626 0.426151 -0.366262
v 0.332626 0.454665 -0.366262
v 0.305008 0.426150 -0.247904
v 0.305008 0.454665 -0.247904
v 0.332626 0.426150 -0.265698
v 0.332626 0.454665 -0.265698
v 0.305008 0.454665 -0.241364
v 0.305008 0.426150 -0.241364
v 0.338174 0.454665 -0.263675
v 0.338174 0.426150 -0.263675
v 0.338174 0.426151 -0.368285
v 0.338174 0.454665 -0.368285
v 0.305008 0.454665 -0.390597
v 0.305008 0.426151 -0.390597
v 0.305008 0.426150 -0.247904
v 0.305008 0.426150 -0.241364
v 0.305008 0.454665 -0.247904
v 0.305008 0.454665 -0.241364
v 0.305008 0.454665 -0.384057
v 0.305008 0.454665 -0.390597
v 0.305008 0.426151 -0.384057
v 0.305008 0.426151 -0.390597
v 0.338174 0.764018 0.263675
v 0.332626 0.764018 0.265698
v 0.305008 0.764018 0.241364
v 0.305008 0.764018 0.247904
v 0.338174 0.764018 0.368286
v 0.332626 0.764018 0.366262
v 0.332626 0.764018 0.265698
v 0.305008 0.764018 0.390597
v 0.332626 0.764018 0.366262
v 0.305008 0.764018 0.384057
v 0.332626 0.764018 0.265698
v 0.332626 0.792533 0.265698
v 0.305008 0.764018 0.247904
v 0.305008 0.792533 0.247904
v 0.338174 0.792533 0.263675
v 0.305008 0.792533 0.241364
v 0.332626 0.792533 0.265698
v 0.305008 0.792533 0.247904
v 0.338174 0.792533 0.368286
v 0.332626 0.792533 0.366262
v 0.332626 0.792533 0.265698
v 0.332626 0.792533 0.366262
v 0.305008 0.792533 0.390597
v 0.305008 0.792533 0.384057
v 0.332626 0.764018 0.366262
v 0.332626 0.792533 0.366262
v 0.332626 0.764018 0.265698
v 0.332626 0.792533 0.265698
v 0.305008 0.764018 0.384057
v 0.305008 0.792533 0.384057
v 0.332626 0.764018 0.366262
v 0.332626 0.792533 0.366262
v 0.305008 0.792533 0.390597
v 0.305008 0.764018 0.390597
v 0.338174 0.792533 0.368286
v 0.338174 0.764018 0.368286
v 0.338174 0.764018 0.263675
v 0.338174 0.792533 0.263675
v 0.305008 0.792533 0.241364
v 0.305008 0.764018 0.241364
v 0.305008 0.764018 0.384057
v 0.305008 0.764018 0.390597
v 0.305008 0.792533 0.384057
v 0.305008 0.792533 0.390597
v 0.305008 0.792533 0.247904
v 0.305008 0.792533 0.241364
v 0.305008 0.764018 0.247904
v 0.305008 0.764018 0.241364
v 0.338174 0.764018 -0.368285
v 0.332626 0.764018 -0.366262
v 0.305008 0.764018 -0.390596
v 0.305008 0.764018 -0.384056
v 0.338174 0.764018 -0.263675
v 0.332626 0.764018 -0.265698
v 0.332626 0.764018 -0.366262
v 0.305008 0.764018 -0.241364
v 0.332626 0.764018 -0.265698
v 0.305008 0.764018 -0.247904
v 0.332626 0.764018 -0.366262
v 0.332626 0.792533 -0.366262
v 0.305008 0.764018 -0.384056
v 0.305008 0.792533 -0.384056
v 0.338174 0.792533 -0.368285
v 0.305008 0.792533 -0.390596
v 0.332626 0.792533 -0.366262
v 0.305008 0.792533 -0.384056
v 0.338174 0.792533 -0.263675
v 0.332626 0.792533 -0.265698
v 0.332626 0.792533 -0.366262
v 0.332626 0.792533 -0.265698
v 0.305008 0.792533 -0.241364
v 0.305008 0.792533 -0.247904
v 0.332626 0.764018 -0.265698
v 0.332626 0.792533 -0.265698
v 0.332626 0.764018 -0.366262
v 0.332626 0.792533 -0.366262
v 0.305008 0.764018 -0.247904
v 0.305008 0.792533 -0.247904
v 0.332626 0.764018 -0.265698
v 0.332626 0.792533 -0.265698
v 0.305008 0.792533 -0.241364
v 0.305008 0.764018 -0.241364
v 0.338174 0.792533 -0.263675
v 0.338174 0.764018 -0.263675
v 0.338174 0.764018 -0.368285
v 0.338174 0.792533 -0.368285
v 0.305008 0.792533 -0.390596
v 0.305008 0.764018 -0.390596
v 0.305008 0.764018 -0.247904
v 0.305008 0.764018 -0.241364
v 0.305008 0.792533 -0.247904
v 0.305008 0.792533 -0.241364
v 0.305008 0.792533 -0.384056
v 0.305008 0.792533 -0.390596
v 0.305008 0.764018 -0.384056
v 0.305008 0.764018 -0.390596
v 0.338174 1.103537 0.263675
v 0.332626 1.103537 0.265699
v 0.305008 1.103537 0.241364
v 0.305008 1.103537 0.247904
v 0.338174 1.103537 0.368286
v 0.332626 1.103537 0.366262
v 0.332626 1.103537 0.265699
v 0.305008 1.103537 0.390597
v 0.332626 1.103537 0.366262
v 0.305008 1.103537 0.384057
v 0.332626 1.103537 0.265699
v 0.332626 1.132052 0.265699
v 0.305008 1.103537 0.247904
v 0.305008 1.132052 0.247904
v 0.338174 1.132052 0.263675
v 0.305008 1.132052 0.241364
v 0.332626 1.132052 0.265699
v 0.305008 1.132052 0.247904
v 0.338174 1.132052 0.368286
v 0.332626 1.132052 0.366262
v 0.332626 1.132052 0.265699
v 0.332626 1.132052 0.366262
v 0.305008 1.132052 0.390597
v 0.305008 1.132052 0.384057
v 0.332626 1.103537 0.366262
v 0.332626 1.132052 0.366262
v 0.332626 1.103537 0.265699
v 0.332626 1.132052 0.265699
v 0.305008 1.103537 0.384057
v 0.305008 1.132052 0.384057
v 0.332626 1.103537 0.366262
v 0.332626 1.132052 0.366262
v 0.305008 1.132052 0.390597
v 0.305008 1.103537 0.390597
v 0.338174 1.132052 0.368286
v 0.338174 1.103537 0.368286
v 0.338174 1.103537 0.263675
v 0.338174 1.132052 0.263675
v 0.305008 1.132052 0.241364
v 0.305008 1.103537 0.241364
v 0.305008 1.103537 0.384057
v 0.305008 1.103537 0.390597
v 0.305008 1.132052 0.384057
v 0.305008 1.132052 0.390597
v 0.305008 1.132052 0.247904
v 0.305008 1.132052 0.241364
v 0.305008 1.103537 0.247904
v 0.305008 1.103537 0.241364
v 0.338174 1.103537 -0.368285
v 0.332626 1.103537 -0.366262
v 0.305008 1.103537 -0.390596
v 0.305008 1.103537 -0.384056
v 0.338174 1.103537 -0.263675
v 0.332626 1.103537 -0.265698
v 0.332626 1.103537 -0.366262
v 0.305008 1.103537 -0.241364
v 0.332626 1.103537 -0.265698
v 0.305008 1.103537 -0.247904
v 0.332626 1.103537 -0.366262
v 0.332626 1.132052 -0.366262
v 0.305008 1.103537 -0.384056
v 0.305008 1.132052 -0.384056
v 0.338174 1.132052 -0.368285
v 0.305008 1.132052 -0.390596
v 0.332626 1.132052 -0.366262
v 0.305008 1.132052 -0.384056
v 0.338174 1.132052 -0.263675
v 0.332626 1.132052 -0.265698
v 0.332626 1.132052 -0.366262
v 0.332626 1.132052 -0.265698
v 0.305008 1.132052 -0.241364
v 0.305008 1.132052 -0.247904
v 0.332626 1.103537 -0.265698
v 0.332626 1.132052 -0.265698
v 0.332626 1.103537 -0.366262
v 0.332626 1.132052 -0.366262
v 0.305008 1.103537 -0.247904
v 0.305008 1.132052 -0.247904
v 0.332626 1.103537 -0.265698
v 0.332626 1.132052 -0.265698
v 0.305008 1.132052 -0.241364
v 0.305008 1.103537 -0.241364
v 0.338174 1.132052 -0.263675
v 0.338174 1.103537 -0.263675
v 0.338174 1.103537 -0.368285
v 0.338174 1.132052 -0.368285
v 0.305008 1.132052 -0.390596
v 0.305008 1.103537 -0.390596
v 0.305008 1.103537 -0.247904
v 0.305008 1.103537 -0.241364
v 0.305008 1.132052 -0.247904
v 0.305008 1.132052 -0.241364
v 0.305008 1.132052 -0.384056
v 0.305008 1.132052 -0.390596
v 0.305008 1.103537 -0.384056
v 0.305008 1.103537 -0.390596
v 0.338174 1.442826 0.263675
v 0.332626 1.442826 0.265699
v 0.305008 1.442826 0.241364
v 0.305008 1.442826 0.247904
v 0.338174 1.442826 0.368286
v 0.332626 1.442826 0.366263
v 0.332626 1.442826 0.265699
v 0.305008 1.442826 0.390597
v 0.332626 1.442826 0.366263
v 0.305008 1.442826 0.384057
v 0.332626 1.442826 0.265699
v 0.332626 1.471341 0.265699
v 0.305008 1.442826 0.247904
v 0.305008 1.471341 0.247904
v 0.338174 1.471341 0.263675
v 0.305008 1.471341 0.241364
v 0.332626 1.471341 0.265699
v 0.305008 1.471341 0.247904
v 0.338174 1.471341 0.368286
v 0.332626 1.471341 0.366263
v 0.332626 1.471341 0.265699
v 0.332626 1.471341 0.366263
v 0.305008 1.471341 0.390597
v 0.305008 1.471341 0.384057
v 0.332626 1.442826 0.366263
v 0.332626 1.471341 0.366263
v 0.332626 1.442826 0.265699
v 0.332626 1.471341 0.265699
v 0.305008 1.442826 0.384057
v 0.305008 1.471341 0.384057
v 0.332626 1.442826 0.366263
v 0.332626 1.471341 0.366263
v 0.305008 1.471341 0.390597
v 0.305008 1.442826 0.390597
v 0.338174 1.471341 0.368286
v 0.338174 1.442826 0.368286
v 0.338174 1.442826 0.263675
v 0.338174 1.471341 0.263675
v 0.305008 1.471341 0.241364
v 0.305008 1.442826 0.241364
v 0.305008 1.442826 0.384057
v 0.305008 1.442826 0.390597
v 0.305008 1.471341 0.384057
v 0.305008 1.471341 0.390597
v 0.305008 1.471341 0.247904
v 0.305008 1.471341 0.241364
v 0.305008 1.442826 0.247904
v 0.305008 1.442826 0.241364
v 0.338174 1.442826 -0.368285
v 0.332626 1.442826 -0.366262
v 0.305008 1.442826 -0.390596
v 0.305008 1.442826 -0.384056
v 0.338174 1.442826 -0.263675
v 0.332626 1.442826 -0.265698
v 0.332626 1.442826 -0.366262
v 0.305008 1.442826 -0.241364
v 0.332626 1.442826 -0.265698
v 0.305008 1.442826 -0.247904
v 0.332626 1.442826 -0.366262
v 0.332626 1.471341 -0.366262
v 0.305008 1.442826 -0.384056
v 0.305008 1.471341 -0.384056
v 0.338174 1.471341 -0.368285
v 0.305008 1.471341 -0.390596
v 0.332626 1.471341 -0.366262
v 0.305008 1.471341 -0.384056
v 0.338174 1.471341 -0.263675
v 0.332626 1.471341 -0.265698
v 0.332626 1.471341 -0.366262
v 0.332626 1.471341 -0.265698
v 0.305008 1.471341 -0.241364
v 0.305008 1.471341 -0.247904
v 0.332626 1.442826 -0.265698
v 0.332626 1.471341 -0.265698
v 0.332626 1.442826 -0.366262
v 0.332626 1.471341 -0.366262
v 0.305008 1.442826 -0.247904
v 0.305008 1.471341 -0.247904
v 0.332626 1.442826 -0.265698
v 0.332626 1.471341 -0.265698
v 0.305008 1.471341 -0.241364
v 0.305008 1.442826 -0.241364
v 0.338174 1.471341 -0.263675
v 0.338174 1.442826 -0.263675
v 0.338174 1.442826 -0.368285
v 0.338174 1.471341 -0.368285
v 0.305008 1.471341 -0.390596
v 0.305008 1.442826 -0.390596
v 0.305008 1.442826 -0.247904
v 0.305008 1.442826 -0.241364
v 0.305008 1.471341 -0.247904
v 0.305008 1.471341 -0.241364
v 0.305008 1.471341 -0.384056
v 0.305008 1.471341 -0.390596
v 0.305008 1.442826 -0.384056
v 0.305008 1.442826 -0.390596
v 0.305229 0.148456 -0.508259
v 0.226153 0.148456 -0.508259
v 0.305229 0.000419 -0.508259
v 0.226153 0.000419 -0.508259
v -0.284273 0.148456 -0.589260
v 0.305229 0.280300 -0.589260
v 0.226153 0.148456 -0.589260
v 0.305229 0.148456 -0.589260
v 0.226153 0.000419 -0.589260
v 0.305229 0.000419 -0.589260
v -0.363368 1.644012 -0.589259
v 0.305229 1.644012 -0.589259
v 0.305229 1.276271 -0.589260
v -0.363368 1.276271 -0.589260
v 0.305229 0.936184 -0.589260
v -0.363368 0.936184 -0.589259
v 0.305229 0.596096 -0.589260
v -0.363368 0.596096 -0.589259
v -0.363369 0.247302 -0.589260
v -0.363369 0.000419 -0.589260
v -0.284273 0.000419 -0.589260
v -0.363369 0.247302 -0.508259
v -0.363368 0.247302 0.508258
v -0.363368 0.596096 0.589260
v -0.363368 0.247302 0.589259
v -0.363368 0.000419 0.589259
v -0.363368 0.000419 0.508258
v -0.363368 1.644012 -0.589259
v -0.363368 1.276271 -0.589260
v -0.363368 1.644012 0.589260
v -0.363368 1.276271 0.589260
v -0.363368 0.936184 -0.589259
v -0.363368 0.936183 0.589260
v -0.363368 0.596096 -0.589259
v -0.363369 0.247302 -0.589260
v -0.363369 0.000419 -0.508259
v -0.363369 0.000419 -0.589260
v -0.363368 1.644012 0.612421
v 0.329424 1.644012 0.612421
v 0.329424 1.671924 0.612421
v -0.363368 1.671924 0.612421
v -0.363368 1.691196 0.586152
v 0.302281 1.691196 0.586152
v 0.302281 1.691196 -0.586152
v 0.329424 1.671924 0.612421
v 0.329424 1.671924 -0.612420
v 0.329424 1.644012 0.612421
v 0.329424 1.644012 -0.612420
v -0.363368 1.691196 -0.586152
v 0.329424 1.671924 -0.612420
v -0.363368 1.671924 -0.612420
v 0.329424 1.644012 -0.612420
v -0.363368 1.644012 -0.612420
v 0.226153 0.148456 -0.508259
v 0.226153 0.148456 -0.589260
v 0.226153 0.000419 -0.508259
v 0.226153 0.000419 -0.589260
v 0.226153 0.148456 0.508258
v 0.305229 0.148456 0.508258
v 0.226153 0.000419 0.508258
v 0.305229 0.000419 0.508258
v 0.226153 0.148456 0.589259
v 0.226153 0.148456 0.508258
v 0.226153 0.000419 0.589259
v 0.226153 0.000419 0.508258
v -0.284273 0.148456 -0.589260
v -0.284273 0.148456 -0.508259
v -0.284273 0.000419 -0.589260
v -0.284273 0.000419 -0.508259
v -0.284273 0.148456 0.508258
v -0.284273 0.148456 0.589259
v -0.284273 0.000419 0.508258
v -0.284273 0.000419 0.589259
v -0.284273 0.148456 0.589259
v -0.284273 0.148456 0.508258
v 0.226153 0.148456 0.589259
v 0.226153 0.148456 0.508258
v -0.284273 0.148456 -0.508259
v -0.284273 0.148456 -0.589260
v 0.226153 0.148456 -0.508259
v 0.226153 0.148456 -0.589260
v 0.226153 0.148456 -0.508259
v 0.305229 0.148456 -0.508259
v 0.226153 0.148456 -0.456456
v 0.305229 0.148456 -0.456456
v 0.305229 0.148456 0.508258
v 0.226153 0.148456 0.508258
v 0.305229 0.148456 0.456456
v 0.226153 0.148456 0.456456
v 0.226153 0.198768 -0.429710
v 0.226153 0.148456 -0.456456
v 0.305229 0.198768 -0.429710
v 0.305229 0.148456 -0.456456
v 0.226153 0.000419 -0.508259
v 0.226153 0.000419 -0.589260
v 0.305229 0.000419 -0.508259
v 0.305229 0.000419 -0.589260
v 0.226153 0.000419 0.589259
v 0.226153 0.000419 0.508258
v 0.305229 0.000419 0.589259
v 0.305229 0.000419 0.508258
v 0.226153 0.148456 0.456456
v 0.226153 0.198768 0.429710
v 0.305229 0.148456 0.456456
v 0.305229 0.198768 0.429710
v 0.226153 0.247302 -0.508259
v 0.226153 0.247302 -0.254129
v -0.363369 0.247302 -0.508259
v 0.226153 0.247302 0.254129
v -0.363368 0.247302 0.508258
v 0.226153 0.247302 0.508258
v -0.334209 0.617817 -0.508259
v -0.334209 0.936184 -0.508258
v -0.334209 0.617817 0.508259
v -0.334209 0.936183 0.508259
v 0.305229 0.617817 -0.508259
v -0.334209 0.617817 -0.508259
v 0.305229 0.617817 0.508259
v -0.334209 0.617817 0.508259
v -0.334209 0.598224 -0.508259
v 0.305229 0.598224 -0.508259
v -0.334209 0.598224 0.508259
v 0.305229 0.598224 0.508259
v -0.334209 0.280300 -0.508259
v -0.334209 0.598224 -0.508259
v -0.334209 0.280300 0.508259
v -0.334209 0.598224 0.508259
v -0.334209 0.598224 0.508259
v 0.305229 0.598224 0.508259
v -0.334209 0.280300 0.508259
v 0.305229 0.280300 0.508258
v 0.305229 0.598224 -0.508259
v -0.334209 0.598224 -0.508259
v 0.305229 0.280300 -0.508259
v -0.334209 0.280300 -0.508259
v -0.334209 0.936183 0.508259
v 0.305229 0.936183 0.508259
v -0.334209 0.617817 0.508259
v 0.305229 0.617817 0.508259
v 0.305229 0.936184 -0.508258
v -0.334209 0.936184 -0.508258
v 0.305229 0.617817 -0.508259
v -0.334209 0.617817 -0.508259
v -0.363369 0.000419 -0.508259
v -0.363369 0.000419 -0.589260
v -0.284273 0.000419 -0.508259
v -0.284273 0.000419 -0.589260
v -0.363368 0.000419 0.589259
v -0.363368 0.000419 0.508258
v -0.284273 0.000419 0.589259
v -0.284273 0.000419 0.508258
v -0.363368 1.671924 -0.612420
v -0.363368 1.671924 0.612421
v -0.363368 1.691196 -0.586152
v -0.363368 1.691196 0.586152
v -0.363368 1.644012 -0.612420
v -0.363368 1.644012 -0.589259
v -0.363368 1.644012 0.589260
v -0.363368 1.644012 0.612421
v 0.329424 1.644012 -0.612420
v 0.329424 1.644012 0.612421
v 0.305229 1.644012 -0.589259
v 0.305229 1.644012 0.589260
v -0.334209 1.614932 -0.508258
v 0.305229 1.614932 -0.508258
v -0.334209 1.614932 0.508259
v 0.305229 1.614932 0.508259
v -0.334209 1.296240 -0.508258
v -0.334209 1.614932 -0.508258
v -0.334209 1.296240 0.508259
v -0.334209 1.614932 0.508259
v 0.305229 1.296240 -0.508258
v -0.334209 1.296240 -0.508258
v 0.305229 1.296240 0.508259
v -0.334209 1.296240 0.508259
v -0.334209 1.276271 -0.508258
v 0.305229 1.276271 -0.508258
v -0.334209 1.276271 0.508259
v 0.305229 1.276271 0.508259
v -0.334209 0.957905 -0.508258
v -0.334209 1.276271 -0.508258
v -0.334209 0.957905 0.508259
v -0.334209 1.276271 0.508259
v 0.305229 0.957905 -0.508258
v -0.334209 0.957905 -0.508258
v 0.305229 0.957905 0.508259
v -0.334209 0.957905 0.508259
v -0.334209 0.936184 -0.508258
v 0.305229 0.936184 -0.508258
v -0.334209 0.936183 0.508259
v 0.305229 0.936183 0.508259
v 0.271921 0.281946 -0.487741
v 0.271921 0.388967 -0.487741
v 0.271921 0.281946 -0.506482
v 0.271921 0.388967 -0.506482
v 0.271921 0.281946 -0.506482
v 0.305034 0.281946 -0.506482
v 0.271921 0.281946 -0.487741
v 0.305034 0.281946 0.506482
v 0.271921 0.281946 0.487741
v 0.271921 0.281946 0.506482
v 0.271921 0.596287 -0.506482
v 0.271921 0.459435 -0.506482
v 0.271921 0.570111 -0.487741
v 0.271921 0.459435 -0.487741
v 0.271921 0.619814 -0.487741
v 0.271921 0.726834 -0.487741
v 0.271921 0.619814 -0.506482
v 0.271921 0.726834 -0.506482
v 0.271921 0.619814 -0.506482
v 0.305034 0.619814 -0.506482
v 0.271921 0.619814 -0.487741
v 0.305034 0.619814 0.506482
v 0.271921 0.619814 0.487741
v 0.271921 0.619814 0.506482
v 0.271921 0.934155 -0.506482
v 0.271921 0.797303 -0.506482
v 0.271921 0.907978 -0.487741
v 0.271921 0.797303 -0.487741
v 0.271921 0.959333 -0.487741
v 0.271921 1.066354 -0.487741
v 0.271921 0.959333 -0.506482
v 0.271921 1.066354 -0.506482
v 0.271921 1.066354 -0.506482
v 0.305034 0.959333 -0.506482
v 0.271921 0.959333 -0.506482
v 0.271921 1.136822 -0.506482
v 0.305034 1.273674 -0.506482
v 0.271921 1.273674 -0.506482
v 0.271921 0.959333 -0.506482
v 0.305034 0.959333 -0.506482
v 0.271921 0.959333 -0.487741
v 0.305034 0.959333 0.506482
v 0.271921 0.959333 0.487741
v 0.271921 0.959333 0.506482
v 0.271921 1.273674 -0.506482
v 0.271921 1.136822 -0.506482
v 0.271921 1.247498 -0.487741
v 0.271921 1.136822 -0.487741
v 0.271921 1.298622 -0.487741
v 0.271921 1.405643 -0.487741
v 0.271921 1.298622 -0.506482
v 0.271921 1.405643 -0.506482
v 0.271921 1.405643 -0.506482
v 0.305034 1.298622 -0.506482
v 0.271921 1.298622 -0.506482
v 0.271921 1.476111 -0.506482
v 0.305034 1.612963 -0.506482
v 0.271921 1.612963 -0.506482
v 0.271921 1.298622 -0.506482
v 0.305034 1.298622 -0.506482
v 0.271921 1.298622 -0.487741
v 0.305034 1.298622 0.506482
v 0.271921 1.298622 0.487741
v 0.271921 1.298622 0.506482
v 0.271921 1.612963 -0.506482
v 0.271921 1.476111 -0.506482
v 0.271921 1.586786 -0.487741
v 0.271921 1.476111 -0.487741
v 0.271921 0.596287 -0.506482
v 0.305034 0.596287 -0.506482
v 0.271921 0.459435 -0.506482
v 0.305034 0.281946 -0.506482
v 0.271921 0.388967 -0.506482
v 0.271921 0.281946 -0.506482
v 0.271921 0.934155 -0.506482
v 0.305034 0.934155 -0.506482
v 0.271921 0.797303 -0.506482
v 0.305034 0.619814 -0.506482
v 0.271921 0.726834 -0.506482
v 0.271921 0.619814 -0.506482
v 0.226153 0.148456 0.508258
v 0.226153 0.198768 0.429710
v 0.226153 0.148456 0.456456
v 0.226153 0.247302 0.508258
v 0.226153 0.247302 0.254129
v 0.226153 0.136267 0.254129
v 0.226153 0.120698 0.127064
v 0.226153 0.247302 -0.254129
v 0.226153 0.120698 -0.127065
v 0.226153 0.136267 -0.254129
v 0.226153 0.198768 -0.429710
v 0.226153 0.247302 -0.508259
v 0.226153 0.148456 -0.508259
v 0.226153 0.148456 -0.456456
vt 0.3965 0.6560
vt 0.3931 0.6562
vt 0.3994 0.6479
vt 0.4617 0.9069
vt 0.4617 0.8739
vt 0.4666 0.8739
vt 0.4614 0.9287
vt 0.4666 0.9710
vt 0.4614 0.9709
vt 0.6401 0.9069
vt 0.6401 0.8739
vt 0.6455 0.8739
vt 0.6401 0.9287
vt 0.6455 0.9710
vt 0.6401 0.9709
vt 0.4617 0.6323
vt 0.4617 0.5994
vt 0.4666 0.5994
vt 0.4614 0.6541
vt 0.4666 0.6965
vt 0.4614 0.6965
vt 0.4617 0.7694
vt 0.4617 0.7366
vt 0.4666 0.7366
vt 0.4614 0.7913
vt 0.4666 0.8335
vt 0.4614 0.8335
vt 0.2898 0.6033
vt 0.2069 0.6355
vt 0.2069 0.6033
vt 0.3025 0.6355
vt 0.3025 0.5552
vt 0.2898 0.5552
vt 0.1229 0.2139
vt 0.1229 0.0059
vt 0.1746 0.2139
vt 0.1746 0.0059
vt 0.3914 0.0059
vt 0.3914 0.2139
vt 0.3396 0.0059
vt 0.3396 0.2139
vt 0.1229 0.2139
vt 0.1229 0.0059
vt 0.1746 0.2139
vt 0.1746 0.0059
vt 0.3914 0.0059
vt 0.3914 0.2139
vt 0.3396 0.0059
vt 0.3396 0.2139
vt 0.6880 0.5637
vt 0.6880 0.7889
vt 0.6841 0.5715
vt 0.6841 0.7889
vt 0.8979 0.5637
vt 0.9014 0.5715
vt 0.8979 0.7889
vt 0.9014 0.7889
vt 0.6230 0.9711
vt 0.4666 0.9710
vt 0.6230 0.8740
vt 0.4666 0.8739
vt 0.0187 0.5332
vt 0.1704 0.5332
vt 0.0187 0.7168
vt 0.1704 0.7168
vt 0.3965 0.9965
vt 0.2448 0.9965
vt 0.3931 0.9886
vt 0.2482 0.9886
vt 0.2482 0.9102
vt 0.3931 0.9102
vt 0.2482 0.9886
vt 0.3931 0.9886
vt 0.1841 0.9812
vt 0.0132 0.9812
vt 0.1841 0.9920
vt 0.0132 0.9920
vt 0.0078 0.9404
vt 0.0078 0.9812
vt 0.0132 0.9404
vt 0.0132 0.9812
vt 0.1841 0.9404
vt 0.1841 0.9295
vt 0.0132 0.9404
vt 0.0132 0.9295
vt 0.4358 0.9181
vt 0.4358 0.7346
vt 0.4529 0.9181
vt 0.4529 0.7346
vt 0.4358 0.9181
vt 0.4324 0.9102
vt 0.4358 0.7346
vt 0.4324 0.7346
vt 0.1871 0.7168
vt 0.1704 0.7168
vt 0.1871 0.5332
vt 0.1704 0.5332
vt 0.1841 0.9812
vt 0.1841 0.9404
vt 0.0132 0.9812
vt 0.0132 0.9404
vt 0.3931 0.9102
vt 0.3931 0.7346
vt 0.4324 0.9102
vt 0.4324 0.7346
vt 0.3965 0.6560
vt 0.3931 0.6562
vt 0.3994 0.6479
vt 0.3179 0.6033
vt 0.3049 0.5552
vt 0.3179 0.5552
vt 0.3049 0.6355
vt 0.4006 0.6355
vt 0.4006 0.6033
vt 0.1841 0.9812
vt 0.1841 0.9921
vt 0.0132 0.9812
vt 0.0132 0.9921
vt 0.0078 0.9404
vt 0.0132 0.9404
vt 0.0078 0.9812
vt 0.0132 0.9812
vt 0.1841 0.9404
vt 0.0132 0.9404
vt 0.1841 0.9296
vt 0.0132 0.9296
vt 0.2056 0.9181
vt 0.1884 0.9181
vt 0.2056 0.7346
vt 0.1884 0.7346
vt 0.2056 0.9181
vt 0.2056 0.7346
vt 0.2090 0.9102
vt 0.2090 0.7346
vt 0.0021 0.7168
vt 0.0021 0.5332
vt 0.0187 0.7168
vt 0.0187 0.5332
vt 0.1841 0.9812
vt 0.0132 0.9812
vt 0.1841 0.9404
vt 0.0132 0.9404
vt 0.2482 0.9102
vt 0.2090 0.9102
vt 0.2482 0.7346
vt 0.2090 0.7346
vt 0.2482 0.9102
vt 0.2482 0.7346
vt 0.3931 0.9102
vt 0.3931 0.7346
vt 0.4587 0.8739
vt 0.4617 0.8739
vt 0.4587 0.9069
vt 0.4617 0.9069
vt 0.0187 0.5332
vt 0.0187 0.5000
vt 0.1704 0.5332
vt 0.1704 0.5000
vt 0.0187 0.4780
vt 0.1704 0.4780
vt 0.1704 0.4438
vt 0.0187 0.4438
vt 0.2482 0.7346
vt 0.2482 0.6562
vt 0.3931 0.7346
vt 0.3931 0.6562
vt 0.3994 0.6479
vt 0.2418 0.6479
vt 0.2448 0.6562
vt 0.2418 0.6907
vt 0.2448 0.6907
vt 0.4666 0.9812
vt 0.4666 0.9710
vt 0.6230 0.9813
vt 0.6230 0.9711
vt 0.8018 0.9711
vt 0.6455 0.9710
vt 0.8018 0.8740
vt 0.6455 0.8739
vt 0.0187 0.5332
vt 0.1704 0.5332
vt 0.0187 0.7168
vt 0.1704 0.7168
vt 0.3965 0.9965
vt 0.2448 0.9965
vt 0.3931 0.9886
vt 0.2482 0.9886
vt 0.2482 0.9102
vt 0.3931 0.9102
vt 0.2482 0.9886
vt 0.3931 0.9886
vt 0.1841 0.9812
vt 0.0132 0.9812
vt 0.1841 0.9920
vt 0.0132 0.9920
vt 0.0078 0.9404
vt 0.0078 0.9812
vt 0.0132 0.9404
vt 0.0132 0.9812
vt 0.1841 0.9404
vt 0.1841 0.9295
vt 0.0132 0.9404
vt 0.0132 0.9295
vt 0.4358 0.9181
vt 0.4358 0.7346
vt 0.4529 0.9181
vt 0.4529 0.7346
vt 0.4358 0.9181
vt 0.4324 0.9102
vt 0.4358 0.7346
vt 0.4324 0.7346
vt 0.1871 0.7168
vt 0.1704 0.7168
vt 0.1871 0.5332
vt 0.1704 0.5332
vt 0.1841 0.9812
vt 0.1841 0.9404
vt 0.0132 0.9812
vt 0.0132 0.9404
vt 0.3931 0.9102
vt 0.3931 0.7346
vt 0.4324 0.9102
vt 0.4324 0.7346
vt 0.3965 0.6560
vt 0.3931 0.6562
vt 0.3994 0.6479
vt 0.8755 0.0542
vt 0.8755 0.0972
vt 0.8672 0.0542
vt 0.8628 0.0708
vt 0.8340 0.0972
vt 0.8340 0.0503
vt 0.8135 0.0454
vt 0.7725 0.0454
vt 0.7515 0.0972
vt 0.7515 0.0503
vt 0.7231 0.0708
vt 0.7100 0.0972
vt 0.7188 0.0542
vt 0.7100 0.0542
vt 0.6973 0.2002
vt 0.7100 0.2070
vt 0.6973 0.3105
vt 0.7100 0.2007
vt 0.6973 0.0972
vt 0.6973 0.0542
vt 0.7100 0.0063
vt 0.6973 0.0063
vt 0.8755 0.2007
vt 0.8755 0.2070
vt 0.8887 0.3105
vt 0.8887 0.4214
vt 0.8755 0.3174
vt 0.8755 0.4214
vt 0.8755 0.4277
vt 0.7100 0.4214
vt 0.7100 0.4277
vt 0.6973 0.4214
vt 0.7100 0.3174
vt 0.7100 0.3105
vt 0.8755 0.3105
vt 0.7100 0.5312
vt 0.6973 0.5405
vt 0.8755 0.5312
vt 0.8887 0.5405
vt 0.8755 0.0063
vt 0.8887 0.0063
vt 0.8887 0.0542
vt 0.8887 0.0972
vt 0.8755 0.0972
vt 0.8887 0.2002
vt 0.4954 0.5491
vt 0.5254 0.5491
vt 0.4954 0.5747
vt 0.5254 0.5747
vt 0.5459 0.5747
vt 0.5459 0.5491
vt 0.5869 0.5747
vt 0.5869 0.5493
vt 0.6074 0.5747
vt 0.6074 0.5493
vt 0.6377 0.5747
vt 0.6377 0.5493
vt 0.1841 0.9812
vt 0.1841 0.9921
vt 0.0132 0.9812
vt 0.0132 0.9921
vt 0.0078 0.9404
vt 0.0132 0.9404
vt 0.0078 0.9812
vt 0.0132 0.9812
vt 0.1841 0.9404
vt 0.0132 0.9404
vt 0.1841 0.9296
vt 0.0132 0.9296
vt 0.2056 0.9181
vt 0.1884 0.9181
vt 0.2056 0.7346
vt 0.1884 0.7346
vt 0.2056 0.9181
vt 0.2056 0.7346
vt 0.2090 0.9102
vt 0.2090 0.7346
vt 0.0021 0.7168
vt 0.0021 0.5332
vt 0.0187 0.7168
vt 0.0187 0.5332
vt 0.1841 0.9812
vt 0.0132 0.9812
vt 0.1841 0.9404
vt 0.0132 0.9404
vt 0.2482 0.9102
vt 0.2090 0.9102
vt 0.2482 0.7346
vt 0.2090 0.7346
vt 0.2482 0.9102
vt 0.2482 0.7346
vt 0.3931 0.9102
vt 0.3931 0.7346
vt 0.6372 0.8739
vt 0.6401 0.8739
vt 0.6372 0.9069
vt 0.6401 0.9069
vt 0.0187 0.5332
vt 0.0187 0.5000
vt 0.1704 0.5332
vt 0.1704 0.5000
vt 0.0187 0.4780
vt 0.1704 0.4780
vt 0.1704 0.4438
vt 0.0187 0.4438
vt 0.2482 0.7346
vt 0.2482 0.6562
vt 0.3931 0.7346
vt 0.3931 0.6562
vt 0.3994 0.6479
vt 0.2418 0.6479
vt 0.2448 0.6562
vt 0.2418 0.6907
vt 0.2448 0.6907
vt 0.6455 0.9812
vt 0.6455 0.9710
vt 0.8018 0.9813
vt 0.8018 0.9711
vt 0.6230 0.6965
vt 0.4666 0.6965
vt 0.6230 0.5994
vt 0.4666 0.5994
vt 0.0187 0.5332
vt 0.1704 0.5332
vt 0.0187 0.7168
vt 0.1704 0.7168
vt 0.3965 0.9965
vt 0.2448 0.9965
vt 0.3931 0.9886
vt 0.2482 0.9886
vt 0.2482 0.9102
vt 0.3931 0.9102
vt 0.2482 0.9886
vt 0.3931 0.9886
vt 0.1841 0.9812
vt 0.0132 0.9812
vt 0.1841 0.9920
vt 0.0132 0.9920
vt 0.0078 0.9404
vt 0.0078 0.9812
vt 0.0132 0.9404
vt 0.0132 0.9812
vt 0.1841 0.9404
vt 0.1841 0.9295
vt 0.0132 0.9404
vt 0.0132 0.9295
vt 0.4358 0.9181
vt 0.4358 0.7346
vt 0.4529 0.9181
vt 0.4529 0.7346
vt 0.4358 0.9181
vt 0.4324 0.9102
vt 0.4358 0.7346
vt 0.4324 0.7346
vt 0.1871 0.7168
vt 0.1704 0.7168
vt 0.1871 0.5332
vt 0.1704 0.5332
vt 0.1841 0.9812
vt 0.1841 0.9404
vt 0.0132 0.9812
vt 0.0132 0.9404
vt 0.3931 0.9102
vt 0.3931 0.7346
vt 0.4324 0.9102
vt 0.4324 0.7346
vt 0.3965 0.6560
vt 0.3931 0.6562
vt 0.3994 0.6479
vt 0.3396 0.0059
vt 0.3396 0.2139
vt 0.2983 0.0059
vt 0.2158 0.0059
vt 0.1746 0.2139
vt 0.1746 0.0059
vt 0.6973 0.0972
vt 0.6016 0.0542
vt 0.6846 0.0542
vt 0.6973 0.0542
vt 0.6973 0.0063
vt 0.6846 0.0063
vt 0.5889 0.0063
vt 0.6016 0.0063
vt 0.5889 0.0864
vt 0.5889 0.2002
vt 0.6973 0.2002
vt 0.5889 0.3105
vt 0.6973 0.3105
vt 0.6973 0.4214
vt 0.5889 0.4214
vt 0.6973 0.5405
vt 0.5889 0.5405
vt 0.1841 0.9812
vt 0.1841 0.9921
vt 0.0132 0.9812
vt 0.0132 0.9921
vt 0.0078 0.9404
vt 0.0132 0.9404
vt 0.0078 0.9812
vt 0.0132 0.9812
vt 0.1841 0.9404
vt 0.0132 0.9404
vt 0.1841 0.9296
vt 0.0132 0.9296
vt 0.2056 0.9181
vt 0.1884 0.9181
vt 0.2056 0.7346
vt 0.1884 0.7346
vt 0.2056 0.9181
vt 0.2056 0.7346
vt 0.2090 0.9102
vt 0.2090 0.7346
vt 0.0021 0.7168
vt 0.0021 0.5332
vt 0.0187 0.7168
vt 0.0187 0.5332
vt 0.1841 0.9812
vt 0.0132 0.9812
vt 0.1841 0.9404
vt 0.0132 0.9404
vt 0.2482 0.9102
vt 0.2090 0.9102
vt 0.2482 0.7346
vt 0.2090 0.7346
vt 0.2482 0.9102
vt 0.2482 0.7346
vt 0.3931 0.9102
vt 0.3931 0.7346
vt 0.4587 0.5994
vt 0.4617 0.5994
vt 0.4587 0.6323
vt 0.4617 0.6323
vt 0.0187 0.5332
vt 0.0187 0.5000
vt 0.1704 0.5332
vt 0.1704 0.5000
vt 0.0187 0.4780
vt 0.1704 0.4780
vt 0.1704 0.4438
vt 0.0187 0.4438
vt 0.2482 0.7346
vt 0.2482 0.6562
vt 0.3931 0.7346
vt 0.3931 0.6562
vt 0.3994 0.6479
vt 0.2418 0.6479
vt 0.2448 0.6562
vt 0.2418 0.6907
vt 0.2448 0.6907
vt 0.4666 0.7065
vt 0.4666 0.6965
vt 0.6230 0.7068
vt 0.6230 0.6965
vt 0.6230 0.8336
vt 0.4666 0.8335
vt 0.6230 0.7366
vt 0.4666 0.7366
vt 0.0187 0.5332
vt 0.1704 0.5332
vt 0.0187 0.7168
vt 0.1704 0.7168
vt 0.3965 0.9965
vt 0.2448 0.9965
vt 0.3931 0.9886
vt 0.2482 0.9886
vt 0.2482 0.9102
vt 0.3931 0.9102
vt 0.2482 0.9886
vt 0.3931 0.9886
vt 0.1841 0.9812
vt 0.0132 0.9812
vt 0.1841 0.9920
vt 0.0132 0.9920
vt 0.0078 0.9404
vt 0.0078 0.9812
vt 0.0132 0.9404
vt 0.0132 0.9812
vt 0.1841 0.9404
vt 0.1841 0.9295
vt 0.0132 0.9404
vt 0.0132 0.9295
vt 0.4358 0.9181
vt 0.4358 0.7346
vt 0.4529 0.9181
vt 0.4529 0.7346
vt 0.4358 0.9181
vt 0.4324 0.9102
vt 0.4358 0.7346
vt 0.4324 0.7346
vt 0.1871 0.7168
vt 0.1704 0.7168
vt 0.1871 0.5332
vt 0.1704 0.5332
vt 0.1841 0.9812
vt 0.1841 0.9404
vt 0.0132 0.9812
vt 0.0132 0.9404
vt 0.3931 0.9102
vt 0.3931 0.7346
vt 0.4324 0.9102
vt 0.4324 0.7346
vt 0.1841 0.9812
vt 0.1841 0.9921
vt 0.0132 0.9812
vt 0.0132 0.9921
vt 0.0078 0.9404
vt 0.0132 0.9404
vt 0.0078 0.9812
vt 0.0132 0.9812
vt 0.1841 0.9404
vt 0.0132 0.9404
vt 0.1841 0.9296
vt 0.0132 0.9296
vt 0.2056 0.9181
vt 0.1884 0.9181
vt 0.2056 0.7346
vt 0.1884 0.7346
vt 0.2056 0.9181
vt 0.2056 0.7346
vt 0.2090 0.9102
vt 0.2090 0.7346
vt 0.0021 0.7168
vt 0.0021 0.5332
vt 0.0187 0.7168
vt 0.0187 0.5332
vt 0.1841 0.9812
vt 0.0132 0.9812
vt 0.1841 0.9404
vt 0.0132 0.9404
vt 0.2482 0.9102
vt 0.2090 0.9102
vt 0.2482 0.7346
vt 0.2090 0.7346
vt 0.2482 0.9102
vt 0.2482 0.7346
vt 0.3931 0.9102
vt 0.3931 0.7346
vt 0.4587 0.7366
vt 0.4617 0.7366
vt 0.4587 0.7694
vt 0.4617 0.7694
vt 0.0187 0.5332
vt 0.0187 0.5000
vt 0.1704 0.5332
vt 0.1704 0.5000
vt 0.0187 0.4780
vt 0.1704 0.4780
vt 0.1704 0.4438
vt 0.0187 0.4438
vt 0.2482 0.7346
vt 0.2482 0.6562
vt 0.3931 0.7346
vt 0.3931 0.6562
vt 0.3994 0.6479
vt 0.2418 0.6479
vt 0.2448 0.6562
vt 0.2418 0.6907
vt 0.2448 0.6907
vt 0.4666 0.8438
vt 0.4666 0.8335
vt 0.6230 0.8439
vt 0.6230 0.8336
vt 0.0695 0.7845
vt 0.0711 0.7800
vt 0.0883 0.7844
vt 0.0865 0.7793
vt 0.0203 0.7848
vt 0.0212 0.7797
vt 0.0685 0.7793
vt 0.0015 0.7849
vt 0.0187 0.7804
vt 0.0032 0.7798
vt 0.0711 0.7800
vt 0.0708 0.7532
vt 0.0865 0.7793
vt 0.0862 0.7524
vt 0.0695 0.8114
vt 0.0883 0.8113
vt 0.0712 0.8158
vt 0.0866 0.8164
vt 0.0203 0.8116
vt 0.0213 0.8169
vt 0.0686 0.8165
vt 0.0187 0.8162
vt 0.0015 0.8118
vt 0.0033 0.8169
vt 0.0212 0.7797
vt 0.0212 0.7528
vt 0.0685 0.7793
vt 0.0685 0.7524
vt 0.0032 0.7798
vt 0.0034 0.7531
vt 0.0187 0.7804
vt 0.0189 0.7535
vt 0.0015 0.8118
vt 0.0015 0.7849
vt 0.0203 0.8116
vt 0.0203 0.7848
vt 0.0695 0.7845
vt 0.0695 0.8114
vt 0.0883 0.8113
vt 0.0883 0.7844
vt 0.0881 0.7778
vt 0.0873 0.7778
vt 0.0881 0.7704
vt 0.0873 0.7704
vt 0.0885 0.7704
vt 0.0893 0.7704
vt 0.0885 0.7778
vt 0.0893 0.7778
vt 0.1659 0.7848
vt 0.1675 0.7803
vt 0.1847 0.7847
vt 0.1830 0.7795
vt 0.1167 0.7852
vt 0.1176 0.7799
vt 0.1649 0.7795
vt 0.0978 0.7853
vt 0.1151 0.7806
vt 0.0995 0.7802
vt 0.1675 0.7803
vt 0.1672 0.7534
vt 0.1830 0.7795
vt 0.1826 0.7528
vt 0.1659 0.8116
vt 0.1847 0.8115
vt 0.1676 0.8160
vt 0.1830 0.8166
vt 0.1167 0.8119
vt 0.1177 0.8171
vt 0.1649 0.8169
vt 0.1151 0.8164
vt 0.0979 0.8120
vt 0.0996 0.8171
vt 0.1176 0.7799
vt 0.1176 0.7531
vt 0.1649 0.7795
vt 0.1649 0.7527
vt 0.0995 0.7802
vt 0.0998 0.7533
vt 0.1151 0.7806
vt 0.1152 0.7538
vt 0.0979 0.8120
vt 0.0978 0.7853
vt 0.1167 0.8119
vt 0.1167 0.7852
vt 0.1659 0.7848
vt 0.1659 0.8116
vt 0.1847 0.8115
vt 0.1847 0.7847
vt 0.0881 0.7778
vt 0.0873 0.7778
vt 0.0881 0.7704
vt 0.0873 0.7704
vt 0.0885 0.7704
vt 0.0893 0.7704
vt 0.0885 0.7778
vt 0.0893 0.7778
vt 0.8804 0.9457
vt 0.8823 0.9412
vt 0.8994 0.9456
vt 0.8975 0.9405
vt 0.8311 0.9460
vt 0.8320 0.9408
vt 0.8794 0.9405
vt 0.8125 0.9461
vt 0.8296 0.9415
vt 0.8140 0.9410
vt 0.8823 0.9412
vt 0.8818 0.9144
vt 0.8975 0.9405
vt 0.8975 0.9136
vt 0.8804 0.9725
vt 0.8994 0.9724
vt 0.8823 0.9770
vt 0.8975 0.9775
vt 0.8315 0.9728
vt 0.8320 0.9780
vt 0.8794 0.9777
vt 0.8296 0.9773
vt 0.8125 0.9729
vt 0.8145 0.9780
vt 0.8320 0.9408
vt 0.8320 0.9139
vt 0.8794 0.9405
vt 0.8794 0.9136
vt 0.8140 0.9410
vt 0.8145 0.9142
vt 0.8296 0.9415
vt 0.8301 0.9147
vt 0.8125 0.9729
vt 0.8125 0.9461
vt 0.8315 0.9728
vt 0.8311 0.9460
vt 0.8804 0.9457
vt 0.8804 0.9725
vt 0.8994 0.9724
vt 0.8994 0.9456
vt 0.0881 0.7778
vt 0.0873 0.7778
vt 0.0881 0.7704
vt 0.0873 0.7704
vt 0.0885 0.7704
vt 0.0893 0.7704
vt 0.0885 0.7778
vt 0.0893 0.7778
vt 0.9771 0.9450
vt 0.9785 0.9405
vt 0.9956 0.9449
vt 0.9941 0.9398
vt 0.9277 0.9453
vt 0.9287 0.9401
vt 0.9761 0.9398
vt 0.9087 0.9454
vt 0.9263 0.9408
vt 0.9106 0.9403
vt 0.9785 0.9405
vt 0.9780 0.9137
vt 0.9941 0.9398
vt 0.9937 0.9130
vt 0.9771 0.9718
vt 0.9956 0.9717
vt 0.9785 0.9763
vt 0.9941 0.9768
vt 0.9277 0.9721
vt 0.9287 0.9773
vt 0.9761 0.9771
vt 0.9263 0.9766
vt 0.9087 0.9723
vt 0.9106 0.9774
vt 0.9287 0.9401
vt 0.9287 0.9133
vt 0.9761 0.9398
vt 0.9761 0.9130
vt 0.9106 0.9403
vt 0.9106 0.9135
vt 0.9263 0.9408
vt 0.9263 0.9140
vt 0.9087 0.9723
vt 0.9087 0.9454
vt 0.9277 0.9721
vt 0.9277 0.9453
vt 0.9771 0.9450
vt 0.9771 0.9718
vt 0.9956 0.9717
vt 0.9956 0.9449
vt 0.0881 0.7778
vt 0.0873 0.7778
vt 0.0881 0.7704
vt 0.0873 0.7704
vt 0.0885 0.7704
vt 0.0893 0.7704
vt 0.0885 0.7778
vt 0.0893 0.7778
vt 0.8804 0.8704
vt 0.8823 0.8658
vt 0.8994 0.8702
vt 0.8975 0.8651
vt 0.8311 0.8707
vt 0.8320 0.8655
vt 0.8794 0.8651
vt 0.8125 0.8709
vt 0.8296 0.8662
vt 0.8140 0.8657
vt 0.8823 0.8658
vt 0.8818 0.8390
vt 0.8975 0.8651
vt 0.8975 0.8384
vt 0.8804 0.8972
vt 0.8994 0.8970
vt 0.8823 0.9017
vt 0.8975 0.9022
vt 0.8315 0.8975
vt 0.8320 0.9027
vt 0.8794 0.9024
vt 0.8296 0.9020
vt 0.8125 0.8976
vt 0.8145 0.9027
vt 0.8320 0.8655
vt 0.8320 0.8386
vt 0.8794 0.8651
vt 0.8794 0.8384
vt 0.8140 0.8657
vt 0.8145 0.8389
vt 0.8296 0.8662
vt 0.8301 0.8394
vt 0.8125 0.8976
vt 0.8125 0.8709
vt 0.8315 0.8975
vt 0.8311 0.8707
vt 0.8804 0.8704
vt 0.8804 0.8972
vt 0.8994 0.8970
vt 0.8994 0.8702
vt 0.0881 0.7778
vt 0.0873 0.7778
vt 0.0881 0.7704
vt 0.0873 0.7704
vt 0.0885 0.7704
vt 0.0893 0.7704
vt 0.0885 0.7778
vt 0.0893 0.7778
vt 0.9771 0.8707
vt 0.9785 0.8662
vt 0.9956 0.8706
vt 0.9941 0.8655
vt 0.9277 0.8710
vt 0.9287 0.8657
vt 0.9761 0.8655
vt 0.9087 0.8711
vt 0.9263 0.8665
vt 0.9106 0.8660
vt 0.9785 0.8662
vt 0.9780 0.8394
vt 0.9941 0.8655
vt 0.9937 0.8386
vt 0.9771 0.8975
vt 0.9956 0.8973
vt 0.9785 0.9020
vt 0.9941 0.9025
vt 0.9277 0.8978
vt 0.9287 0.9030
vt 0.9761 0.9027
vt 0.9263 0.9023
vt 0.9087 0.8979
vt 0.9106 0.9030
vt 0.9287 0.8657
vt 0.9287 0.8390
vt 0.9761 0.8655
vt 0.9761 0.8386
vt 0.9106 0.8660
vt 0.9106 0.8391
vt 0.9263 0.8665
vt 0.9263 0.8397
vt 0.9087 0.8979
vt 0.9087 0.8711
vt 0.9277 0.8978
vt 0.9277 0.8710
vt 0.9771 0.8707
vt 0.9771 0.8975
vt 0.9956 0.8973
vt 0.9956 0.8706
vt 0.0881 0.7778
vt 0.0873 0.7778
vt 0.0881 0.7704
vt 0.0873 0.7704
vt 0.0885 0.7704
vt 0.0893 0.7704
vt 0.0885 0.7778
vt 0.0893 0.7778
vt 0.0695 0.8578
vt 0.0711 0.8533
vt 0.0883 0.8577
vt 0.0865 0.8525
vt 0.0203 0.8580
vt 0.0212 0.8528
vt 0.0685 0.8525
vt 0.0015 0.8582
vt 0.0187 0.8535
vt 0.0032 0.8530
vt 0.0711 0.8533
vt 0.0708 0.8264
vt 0.0865 0.8525
vt 0.0862 0.8257
vt 0.0695 0.8845
vt 0.0883 0.8844
vt 0.0712 0.8890
vt 0.0866 0.8895
vt 0.0203 0.8848
vt 0.0213 0.8901
vt 0.0686 0.8898
vt 0.0187 0.8893
vt 0.0015 0.8849
vt 0.0033 0.8901
vt 0.0212 0.8528
vt 0.0212 0.8259
vt 0.0685 0.8525
vt 0.0685 0.8257
vt 0.0032 0.8530
vt 0.0034 0.8262
vt 0.0187 0.8535
vt 0.0189 0.8268
vt 0.0015 0.8849
vt 0.0015 0.8582
vt 0.0203 0.8848
vt 0.0203 0.8580
vt 0.0695 0.8578
vt 0.0695 0.8845
vt 0.0883 0.8844
vt 0.0883 0.8577
vt 0.0881 0.7778
vt 0.0873 0.7778
vt 0.0881 0.7704
vt 0.0873 0.7704
vt 0.0885 0.7704
vt 0.0893 0.7704
vt 0.0885 0.7778
vt 0.0893 0.7778
vt 0.1659 0.8575
vt 0.1675 0.8530
vt 0.1847 0.8574
vt 0.1830 0.8523
vt 0.1167 0.8579
vt 0.1176 0.8527
vt 0.1649 0.8523
vt 0.0978 0.8580
vt 0.1151 0.8534
vt 0.0995 0.8529
vt 0.1675 0.8530
vt 0.1672 0.8263
vt 0.1830 0.8523
vt 0.1826 0.8256
vt 0.1659 0.8843
vt 0.1847 0.8842
vt 0.1676 0.8889
vt 0.1830 0.8893
vt 0.1167 0.8846
vt 0.1177 0.8899
vt 0.1649 0.8896
vt 0.1151 0.8892
vt 0.0979 0.8848
vt 0.0996 0.8899
vt 0.1176 0.8527
vt 0.1176 0.8258
vt 0.1649 0.8523
vt 0.1649 0.8256
vt 0.0995 0.8529
vt 0.0998 0.8260
vt 0.1151 0.8534
vt 0.1152 0.8265
vt 0.0979 0.8848
vt 0.0978 0.8580
vt 0.1167 0.8846
vt 0.1167 0.8579
vt 0.1659 0.8575
vt 0.1659 0.8843
vt 0.1847 0.8842
vt 0.1847 0.8574
vt 0.0881 0.7778
vt 0.0873 0.7778
vt 0.0881 0.7704
vt 0.0873 0.7704
vt 0.0885 0.7704
vt 0.0893 0.7704
vt 0.0885 0.7778
vt 0.0893 0.7778
vt 0.1729 0.3379
vt 0.1600 0.3379
vt 0.1729 0.2896
vt 0.1600 0.2896
vt 0.9844 0.0542
vt 0.8887 0.0972
vt 0.9014 0.0542
vt 0.8887 0.0542
vt 0.9014 0.0063
vt 0.8887 0.0063
vt 0.9971 0.5405
vt 0.8887 0.5405
vt 0.8887 0.4214
vt 0.9971 0.4214
vt 0.8887 0.3105
vt 0.9971 0.3105
vt 0.8887 0.2002
vt 0.9971 0.2002
vt 0.9971 0.0864
vt 0.9971 0.0063
vt 0.9844 0.0063
vt 0.4106 0.0864
vt 0.5757 0.0864
vt 0.5889 0.2002
vt 0.5889 0.0864
vt 0.5889 0.0063
vt 0.5757 0.0063
vt 0.3975 0.5405
vt 0.3975 0.4214
vt 0.5889 0.5405
vt 0.5889 0.4214
vt 0.3975 0.3105
vt 0.5889 0.3105
vt 0.3975 0.2002
vt 0.3975 0.0864
vt 0.4106 0.0063
vt 0.3975 0.0063
vt 0.6880 0.7889
vt 0.6880 0.5637
vt 0.6924 0.5637
vt 0.6924 0.7889
vt 0.6978 0.7889
vt 0.6978 0.5725
vt 0.8882 0.5725
vt 0.6934 0.5627
vt 0.8921 0.5627
vt 0.6934 0.5544
vt 0.8921 0.5544
vt 0.8882 0.7889
vt 0.8931 0.5637
vt 0.8931 0.7889
vt 0.8979 0.5637
vt 0.8979 0.7889
vt 0.1600 0.3379
vt 0.1469 0.3379
vt 0.1600 0.2896
vt 0.1469 0.2896
vt 0.1328 0.3379
vt 0.1199 0.3379
vt 0.1328 0.2896
vt 0.1199 0.2896
vt 0.1459 0.3379
vt 0.1328 0.3379
vt 0.1459 0.2896
vt 0.1328 0.2896
vt 0.3311 0.6033
vt 0.3179 0.6033
vt 0.3311 0.5552
vt 0.3179 0.5552
vt 0.2898 0.6033
vt 0.2766 0.6033
vt 0.2898 0.5552
vt 0.2766 0.5552
vt 0.6016 0.0542
vt 0.6016 0.0278
vt 0.6846 0.0542
vt 0.6846 0.0278
vt 0.9844 0.0278
vt 0.9844 0.0542
vt 0.9014 0.0278
vt 0.9014 0.0542
vt 0.6553 0.5493
vt 0.6553 0.5747
vt 0.6470 0.5493
vt 0.6470 0.5747
vt 0.4778 0.5747
vt 0.4778 0.5491
vt 0.4861 0.5747
vt 0.4861 0.5491
vt 0.6377 0.5493
vt 0.6470 0.5493
vt 0.6377 0.5747
vt 0.6470 0.5747
vt 0.1600 0.2896
vt 0.1600 0.2632
vt 0.1729 0.2896
vt 0.1729 0.2632
vt 0.1328 0.2632
vt 0.1328 0.2896
vt 0.1199 0.2632
vt 0.1199 0.2896
vt 0.4861 0.5491
vt 0.4954 0.5491
vt 0.4861 0.5747
vt 0.4954 0.5747
vt 0.0218 0.3374
vt 0.0218 0.2549
vt 0.1175 0.3374
vt 0.0218 0.0894
vt 0.1175 0.0068
vt 0.0218 0.0068
vt 0.3396 0.2139
vt 0.3396 0.3174
vt 0.1746 0.2139
vt 0.1746 0.3174
vt 0.3396 0.0059
vt 0.3396 0.2139
vt 0.1746 0.0059
vt 0.1746 0.2139
vt 0.3396 0.3174
vt 0.3396 0.5254
vt 0.1746 0.3174
vt 0.1746 0.5254
vt 0.3396 0.2139
vt 0.3396 0.3174
vt 0.1746 0.2139
vt 0.1746 0.3174
vt 0.1229 0.2139
vt 0.1229 0.0059
vt 0.1746 0.2139
vt 0.1746 0.0059
vt 0.3914 0.0059
vt 0.3914 0.2139
vt 0.3396 0.0059
vt 0.3396 0.2139
vt 0.1229 0.2139
vt 0.1229 0.0059
vt 0.1746 0.2139
vt 0.1746 0.0059
vt 0.3914 0.0059
vt 0.3914 0.2139
vt 0.3396 0.0059
vt 0.3396 0.2139
vt 0.3049 0.5552
vt 0.3049 0.5288
vt 0.3179 0.5552
vt 0.3179 0.5288
vt 0.3025 0.5288
vt 0.3025 0.5552
vt 0.2898 0.5288
vt 0.2898 0.5552
vt 0.8921 0.7953
vt 0.6934 0.7953
vt 0.8882 0.7889
vt 0.6978 0.7889
vt 0.8921 0.8043
vt 0.8887 0.8043
vt 0.6973 0.8043
vt 0.6934 0.8043
vt 0.8921 0.5544
vt 0.6934 0.5544
vt 0.8887 0.5447
vt 0.6973 0.5447
vt 0.3396 0.3174
vt 0.3396 0.5254
vt 0.1746 0.3174
vt 0.1746 0.5254
vt 0.3396 0.2139
vt 0.3396 0.3174
vt 0.1746 0.2139
vt 0.1746 0.3174
vt 0.3396 0.0059
vt 0.3396 0.2139
vt 0.1746 0.0059
vt 0.1746 0.2139
vt 0.3396 0.3174
vt 0.3396 0.5254
vt 0.1746 0.3174
vt 0.1746 0.5254
vt 0.3396 0.2139
vt 0.3396 0.3174
vt 0.1746 0.2139
vt 0.1746 0.3174
vt 0.3396 0.0059
vt 0.3396 0.2139
vt 0.1746 0.0059
vt 0.1746 0.2139
vt 0.3396 0.3174
vt 0.3396 0.5254
vt 0.1746 0.3174
vt 0.1746 0.5254
vt 0.6309 0.8740
vt 0.6309 0.9071
vt 0.6279 0.8740
vt 0.6279 0.9071
vt 0.6230 0.8638
vt 0.6230 0.8740
vt 0.6201 0.8638
vt 0.4666 0.8739
vt 0.4695 0.8636
vt 0.4666 0.8636
vt 0.3994 0.6479
vt 0.3994 0.6902
vt 0.3965 0.6560
vt 0.3965 0.6902
vt 0.8096 0.8740
vt 0.8096 0.9071
vt 0.8066 0.8740
vt 0.8066 0.9071
vt 0.8018 0.8638
vt 0.8018 0.8740
vt 0.7988 0.8638
vt 0.6455 0.8739
vt 0.6484 0.8636
vt 0.6455 0.8636
vt 0.3994 0.6479
vt 0.3994 0.6902
vt 0.3965 0.6560
vt 0.3965 0.6902
vt 0.6309 0.5996
vt 0.6309 0.6326
vt 0.6279 0.5996
vt 0.6279 0.6326
vt 0.6279 0.6326
vt 0.6230 0.5994
vt 0.6279 0.5996
vt 0.6279 0.6543
vt 0.6230 0.6965
vt 0.6279 0.6965
vt 0.6230 0.5894
vt 0.6230 0.5994
vt 0.6201 0.5894
vt 0.4666 0.5994
vt 0.4695 0.5891
vt 0.4666 0.5891
vt 0.3994 0.6479
vt 0.3994 0.6902
vt 0.3965 0.6560
vt 0.3965 0.6902
vt 0.6309 0.7366
vt 0.6309 0.7697
vt 0.6279 0.7366
vt 0.6279 0.7697
vt 0.6279 0.7697
vt 0.6230 0.7366
vt 0.6279 0.7366
vt 0.6279 0.7914
vt 0.6230 0.8336
vt 0.6279 0.8336
vt 0.6230 0.7263
vt 0.6230 0.7366
vt 0.6201 0.7263
vt 0.4666 0.7366
vt 0.4695 0.7263
vt 0.4666 0.7263
vt 0.3994 0.6479
vt 0.3994 0.6902
vt 0.3965 0.6560
vt 0.3965 0.6902
vt 0.6279 0.9711
vt 0.6230 0.9711
vt 0.6279 0.9288
vt 0.6230 0.8740
vt 0.6279 0.9071
vt 0.6279 0.8740
vt 0.8066 0.9711
vt 0.8018 0.9711
vt 0.8066 0.9288
vt 0.8018 0.8740
vt 0.8066 0.9071
vt 0.8066 0.8740
vt 0.0058 0.0068
vt 0.0139 0.0322
vt 0.0058 0.0239
vt 0.0218 0.0068
vt 0.0218 0.0894
vt 0.0038 0.0894
vt 0.0013 0.1309
vt 0.0218 0.2549
vt 0.0013 0.2134
vt 0.0038 0.2549
vt 0.0139 0.3120
vt 0.0218 0.3374
vt 0.0058 0.3374
vt 0.0058 0.3208
vn -1.0000 0.0000 0.0000
vn 0.0000 0.0000 1.0000
vn 0.0000 0.0000 -1.0000
vn 0.0000 -1.0000 0.0000
vn 1.0000 0.0000 0.0000
vn 0.0000 1.0000 0.0000
vn 0.0000 -0.9421 0.3353
vn 0.0000 -0.9732 0.2299
vn 0.0000 -0.9981 0.0609
vn 0.0000 -0.9981 -0.0609
vn 0.0000 -0.9732 -0.2299
vn 0.0000 -0.9421 -0.3353
vn -0.5416 0.0000 0.8406
vn -0.5416 0.0000 -0.8406
vn 0.5582 0.0000 0.8297
vn 0.8827 0.0000 0.4700
vn 0.8826 0.0000 -0.4700
vn 0.5582 0.0000 -0.8297
vn 0.8826 0.0000 0.4700
vn 0.8827 0.0000 -0.4700
vn 0.0000 0.3203 0.9473
vn 0.0000 0.4519 0.8921
vn 0.0000 0.9503 0.3112
vn 0.2337 0.9418 0.2416
vn 0.2337 0.9418 -0.2416
vn 0.9434 0.3317 0.0000
vn 0.0000 0.9503 -0.3112
vn 0.0000 0.3203 -0.9473
vn 0.0000 0.4519 -0.8921
vn 0.0000 -0.4694 0.8830
vn 0.0000 -0.4694 -0.8830
usemtl Furniture_01_Dresser_Dresser02_CZER_ND_Mat
s 1
f 1/1/1 2/2/1 3/3/1
f 4/4/2 5/5/2 6/6/2
f 7/7/2 4/4/2 6/6/2
f 6/6/2 8/8/2 7/7/2
f 9/9/2 7/7/2 8/8/2
f 10/10/2 11/11/2 12/12/2
f 13/13/2 10/10/2 12/12/2
f 12/12/2 14/14/2 13/13/2
f 15/15/2 13/13/2 14/14/2
f 16/16/2 17/17/2 18/18/2
f 19/19/2 16/16/2 18/18/2
f 18/18/2 20/20/2 19/19/2
f 21/21/2 19/19/2 20/20/2
f 22/22/2 23/23/2 24/24/2
f 25/25/2 22/22/2 24/24/2
f 24/24/2 26/26/2 25/25/2
f 27/27/2 25/25/2 26/26/2
f 28/28/3 29/29/3 30/30/3
f 31/31/3 29/29/3 28/28/3
f 31/31/3 28/28/3 32/32/3
f 28/28/3 33/33/3 32/32/3
f 34/34/3 35/35/3 36/36/3
f 35/35/3 37/37/3 36/36/3
f 38/38/2 39/39/2 40/40/2
f 39/39/2 41/41/2 40/40/2
f 42/42/3 43/43/3 44/44/3
f 43/43/3 45/45/3 44/44/3
f 46/46/2 47/47/2 48/48/2
f 47/47/2 49/49/2 48/48/2
f 50/50/4 51/51/4 52/52/4
f 51/51/4 53/53/4 52/52/4
f 54/54/4 55/55/4 56/56/4
f 57/57/4 56/56/4 55/55/4
f 58/58/5 59/59/5 60/60/5
f 59/59/5 61/61/5 60/60/5
f 62/62/4 63/63/4 64/64/4
f 63/63/4 65/65/4 64/64/4
f 66/66/6 67/67/6 68/68/6
f 69/69/6 68/68/6 67/67/6
f 70/70/5 71/71/5 72/72/5
f 71/71/5 73/73/5 72/72/5
f 74/74/6 75/75/6 76/76/6
f 75/75/6 77/77/6 76/76/6
f 78/78/1 79/79/1 80/80/1
f 79/79/1 81/81/1 80/80/1
f 82/82/4 83/83/4 84/84/4
f 83/83/4 85/85/4 84/84/4
f 86/86/3 87/87/3 88/88/3
f 87/87/3 89/89/3 88/88/3
f 90/90/6 91/91/6 92/92/6
f 93/93/6 92/92/6 91/91/6
f 94/94/3 95/95/3 96/96/3
f 95/95/3 97/97/3 96/96/3
f 98/98/3 99/99/3 100/100/3
f 99/99/3 101/101/3 100/100/3
f 102/102/2 103/103/2 104/104/2
f 103/103/2 105/105/2 104/104/2
f 106/106/1 107/107/1 108/108/1
f 109/109/2 110/110/2 111/111/2
f 112/112/2 110/110/2 109/109/2
f 112/112/2 109/109/2 113/113/2
f 109/109/2 114/114/2 113/113/2
f 115/115/6 116/116/6 117/117/6
f 116/116/6 118/118/6 117/117/6
f 119/119/1 120/120/1 121/121/1
f 120/120/1 122/122/1 121/121/1
f 123/123/4 124/124/4 125/125/4
f 124/124/4 126/126/4 125/125/4
f 127/127/2 128/128/2 129/129/2
f 128/128/2 130/130/2 129/129/2
f 131/131/6 132/132/6 133/133/6
f 134/134/6 133/133/6 132/132/6
f 135/135/2 136/136/2 137/137/2
f 136/136/2 138/138/2 137/137/2
f 139/139/2 140/140/2 141/141/2
f 140/140/2 142/142/2 141/141/2
f 143/143/3 144/144/3 145/145/3
f 144/144/3 146/146/3 145/145/3
f 147/147/6 148/148/6 149/149/6
f 148/148/6 150/150/6 149/149/6
f 151/151/1 152/152/1 153/153/1
f 152/152/1 154/154/1 153/153/1
f 155/155/1 156/156/1 157/157/1
f 156/156/1 158/158/1 157/157/1
f 158/158/1 156/156/1 159/159/1
f 160/160/1 158/158/1 159/159/1
f 161/161/1 160/160/1 159/159/1
f 162/162/1 161/161/1 159/159/1
f 163/163/1 164/164/1 165/165/1
f 164/164/1 166/166/1 165/165/1
f 164/164/1 167/167/1 166/166/1
f 168/168/1 167/167/1 164/164/1
f 169/169/1 168/168/1 164/164/1
f 168/168/1 169/169/1 170/170/1
f 170/170/1 169/169/1 171/171/1
f 172/172/6 173/173/6 174/174/6
f 173/173/6 175/175/6 174/174/6
f 176/176/5 177/177/5 178/178/5
f 177/177/5 179/179/5 178/178/5
f 180/180/4 181/181/4 182/182/4
f 181/181/4 183/183/4 182/182/4
f 184/184/6 185/185/6 186/186/6
f 187/187/6 186/186/6 185/185/6
f 188/188/5 189/189/5 190/190/5
f 189/189/5 191/191/5 190/190/5
f 192/192/6 193/193/6 194/194/6
f 193/193/6 195/195/6 194/194/6
f 196/196/1 197/197/1 198/198/1
f 197/197/1 199/199/1 198/198/1
f 200/200/4 201/201/4 202/202/4
f 201/201/4 203/203/4 202/202/4
f 204/204/3 205/205/3 206/206/3
f 205/205/3 207/207/3 206/206/3
f 208/208/6 209/209/6 210/210/6
f 211/211/6 210/210/6 209/209/6
f 212/212/3 213/213/3 214/214/3
f 213/213/3 215/215/3 214/214/3
f 216/216/3 217/217/3 218/218/3
f 217/217/3 219/219/3 218/218/3
f 220/220/2 221/221/2 222/222/2
f 221/221/2 223/223/2 222/222/2
f 224/224/1 225/225/1 226/226/1
f 227/227/5 228/228/5 229/229/5
f 228/228/5 230/230/5 229/229/5
f 228/228/5 231/231/5 230/230/5
f 231/231/5 232/232/5 230/230/5
f 233/233/5 232/232/5 231/231/5
f 234/234/5 233/233/5 231/231/5
f 235/235/5 234/234/5 231/231/5
f 235/235/5 236/236/5 234/234/5
f 237/237/5 236/236/5 235/235/5
f 238/238/5 237/237/5 235/235/5
f 238/238/5 239/239/5 237/237/5
f 240/240/5 239/239/5 238/238/5
f 241/241/5 242/242/5 243/243/5
f 242/242/5 241/241/5 244/244/5
f 244/244/5 241/241/5 238/238/5
f 241/241/5 245/245/5 238/238/5
f 238/238/5 245/245/5 240/240/5
f 245/245/5 246/246/5 240/240/5
f 240/240/5 246/246/5 247/247/5
f 246/246/5 248/248/5 247/247/5
f 249/249/5 250/250/5 244/244/5
f 250/250/5 242/242/5 244/244/5
f 251/251/5 252/252/5 253/253/5
f 252/252/5 254/254/5 253/253/5
f 252/252/5 255/255/5 254/254/5
f 254/254/5 255/255/5 256/256/5
f 255/255/5 257/257/5 256/256/5
f 257/257/5 258/258/5 256/256/5
f 256/256/5 258/258/5 259/259/5
f 243/243/5 259/259/5 258/258/5
f 259/259/5 243/243/5 260/260/5
f 260/260/5 243/243/5 242/242/5
f 261/261/5 253/253/5 260/260/5
f 253/253/5 259/259/5 260/260/5
f 262/262/5 258/258/5 257/257/5
f 263/263/5 258/258/5 262/262/5
f 264/264/5 263/263/5 262/262/5
f 265/265/5 263/263/5 264/264/5
f 265/265/5 264/264/5 252/252/5
f 264/264/5 255/255/5 252/252/5
f 227/227/5 266/266/5 267/267/5
f 268/268/5 227/227/5 267/267/5
f 268/268/5 269/269/5 227/227/5
f 269/269/5 270/270/5 227/227/5
f 271/271/5 270/270/5 269/269/5
f 249/249/5 270/270/5 271/271/5
f 271/271/5 250/250/5 249/249/5
f 271/271/5 251/251/5 250/250/5
f 251/251/5 261/261/5 250/250/5
f 251/251/5 253/253/5 261/261/5
f 272/272/7 273/273/8 274/274/7
f 273/273/8 275/275/8 274/274/7
f 275/275/8 273/273/8 276/276/9
f 273/273/8 277/277/9 276/276/9
f 276/276/9 277/277/9 278/278/10
f 277/277/9 279/279/10 278/278/10
f 278/278/10 279/279/10 280/280/11
f 279/279/10 281/281/11 280/280/11
f 280/280/11 281/281/11 282/282/12
f 281/281/11 283/283/12 282/282/12
f 284/284/6 285/285/6 286/286/6
f 285/285/6 287/287/6 286/286/6
f 288/288/1 289/289/1 290/290/1
f 289/289/1 291/291/1 290/290/1
f 292/292/4 293/293/4 294/294/4
f 293/293/4 295/295/4 294/294/4
f 296/296/2 297/297/2 298/298/2
f 297/297/2 299/299/2 298/298/2
f 300/300/6 301/301/6 302/302/6
f 303/303/6 302/302/6 301/301/6
f 304/304/2 305/305/2 306/306/2
f 305/305/2 307/307/2 306/306/2
f 308/308/2 309/309/2 310/310/2
f 309/309/2 311/311/2 310/310/2
f 312/312/3 313/313/3 314/314/3
f 313/313/3 315/315/3 314/314/3
f 316/316/6 317/317/6 318/318/6
f 317/317/6 319/319/6 318/318/6
f 320/320/1 321/321/1 322/322/1
f 321/321/1 323/323/1 322/322/1
f 324/324/1 325/325/1 326/326/1
f 325/325/1 327/327/1 326/326/1
f 327/327/1 325/325/1 328/328/1
f 329/329/1 327/327/1 328/328/1
f 330/330/1 329/329/1 328/328/1
f 331/331/1 330/330/1 328/328/1
f 332/332/1 333/333/1 334/334/1
f 333/333/1 335/335/1 334/334/1
f 333/333/1 336/336/1 335/335/1
f 337/337/1 336/336/1 333/333/1
f 338/338/1 337/337/1 333/333/1
f 337/337/1 338/338/1 339/339/1
f 339/339/1 338/338/1 340/340/1
f 341/341/6 342/342/6 343/343/6
f 342/342/6 344/344/6 343/343/6
f 345/345/5 346/346/5 347/347/5
f 346/346/5 348/348/5 347/347/5
f 349/349/4 350/350/4 351/351/4
f 350/350/4 352/352/4 351/351/4
f 353/353/6 354/354/6 355/355/6
f 356/356/6 355/355/6 354/354/6
f 357/357/5 358/358/5 359/359/5
f 358/358/5 360/360/5 359/359/5
f 361/361/6 362/362/6 363/363/6
f 362/362/6 364/364/6 363/363/6
f 365/365/1 366/366/1 367/367/1
f 366/366/1 368/368/1 367/367/1
f 369/369/4 370/370/4 371/371/4
f 370/370/4 372/372/4 371/371/4
f 373/373/3 374/374/3 375/375/3
f 374/374/3 376/376/3 375/375/3
f 377/377/6 378/378/6 379/379/6
f 380/380/6 379/379/6 378/378/6
f 381/381/3 382/382/3 383/383/3
f 382/382/3 384/384/3 383/383/3
f 385/385/3 386/386/3 387/387/3
f 386/386/3 388/388/3 387/387/3
f 389/389/2 390/390/2 391/391/2
f 390/390/2 392/392/2 391/391/2
f 393/393/1 394/394/1 395/395/1
f 396/396/6 397/397/6 398/398/6
f 399/399/6 398/398/6 397/397/6
f 400/400/6 399/399/6 397/397/6
f 399/399/6 400/400/6 401/401/6
f 402/402/2 403/403/2 404/404/2
f 402/402/2 404/404/2 405/405/2
f 405/405/2 404/404/2 406/406/2
f 404/404/2 407/407/2 406/406/2
f 403/403/2 408/408/2 409/409/2
f 410/410/2 408/408/2 403/403/2
f 410/410/2 403/403/2 402/402/2
f 410/410/2 402/402/2 411/411/2
f 411/411/2 402/402/2 412/412/2
f 413/413/2 411/411/2 412/412/2
f 414/414/2 413/413/2 412/412/2
f 413/413/2 414/414/2 415/415/2
f 416/416/2 413/413/2 415/415/2
f 416/416/2 415/415/2 417/417/2
f 418/418/2 416/416/2 417/417/2
f 419/419/6 420/420/6 421/421/6
f 420/420/6 422/422/6 421/421/6
f 423/423/1 424/424/1 425/425/1
f 424/424/1 426/426/1 425/425/1
f 427/427/4 428/428/4 429/429/4
f 428/428/4 430/430/4 429/429/4
f 431/431/2 432/432/2 433/433/2
f 432/432/2 434/434/2 433/433/2
f 435/435/6 436/436/6 437/437/6
f 438/438/6 437/437/6 436/436/6
f 439/439/2 440/440/2 441/441/2
f 440/440/2 442/442/2 441/441/2
f 443/443/2 444/444/2 445/445/2
f 444/444/2 446/446/2 445/445/2
f 447/447/3 448/448/3 449/449/3
f 448/448/3 450/450/3 449/449/3
f 451/451/6 452/452/6 453/453/6
f 452/452/6 454/454/6 453/453/6
f 455/455/1 456/456/1 457/457/1
f 456/456/1 458/458/1 457/457/1
f 459/459/1 460/460/1 461/461/1
f 460/460/1 462/462/1 461/461/1
f 462/462/1 460/460/1 463/463/1
f 464/464/1 462/462/1 463/463/1
f 465/465/1 464/464/1 463/463/1
f 466/466/1 465/465/1 463/463/1
f 467/467/1 468/468/1 469/469/1
f 468/468/1 470/470/1 469/469/1
f 468/468/1 471/471/1 470/470/1
f 472/472/1 471/471/1 468/468/1
f 473/473/1 472/472/1 468/468/1
f 472/472/1 473/473/1 474/474/1
f 474/474/1 473/473/1 475/475/1
f 476/476/6 477/477/6 478/478/6
f 477/477/6 479/479/6 478/478/6
f 480/480/5 481/481/5 482/482/5
f 481/481/5 483/483/5 482/482/5
f 484/484/4 485/485/4 486/486/4
f 485/485/4 487/487/4 486/486/4
f 488/488/6 489/489/6 490/490/6
f 491/491/6 490/490/6 489/489/6
f 492/492/5 493/493/5 494/494/5
f 493/493/5 495/495/5 494/494/5
f 496/496/6 497/497/6 498/498/6
f 497/497/6 499/499/6 498/498/6
f 500/500/1 501/501/1 502/502/1
f 501/501/1 503/503/1 502/502/1
f 504/504/4 505/505/4 506/506/4
f 505/505/4 507/507/4 506/506/4
f 508/508/3 509/509/3 510/510/3
f 509/509/3 511/511/3 510/510/3
f 512/512/6 513/513/6 514/514/6
f 515/515/6 514/514/6 513/513/6
f 516/516/3 517/517/3 518/518/3
f 517/517/3 519/519/3 518/518/3
f 520/520/3 521/521/3 522/522/3
f 521/521/3 523/523/3 522/522/3
f 524/524/2 525/525/2 526/526/2
f 525/525/2 527/527/2 526/526/2
f 528/528/6 529/529/6 530/530/6
f 529/529/6 531/531/6 530/530/6
f 532/532/1 533/533/1 534/534/1
f 533/533/1 535/535/1 534/534/1
f 536/536/4 537/537/4 538/538/4
f 537/537/4 539/539/4 538/538/4
f 540/540/2 541/541/2 542/542/2
f 541/541/2 543/543/2 542/542/2
f 544/544/6 545/545/6 546/546/6
f 547/547/6 546/546/6 545/545/6
f 548/548/2 549/549/2 550/550/2
f 549/549/2 551/551/2 550/550/2
f 552/552/2 553/553/2 554/554/2
f 553/553/2 555/555/2 554/554/2
f 556/556/3 557/557/3 558/558/3
f 557/557/3 559/559/3 558/558/3
f 560/560/6 561/561/6 562/562/6
f 561/561/6 563/563/6 562/562/6
f 564/564/1 565/565/1 566/566/1
f 565/565/1 567/567/1 566/566/1
f 568/568/1 569/569/1 570/570/1
f 569/569/1 571/571/1 570/570/1
f 571/571/1 569/569/1 572/572/1
f 573/573/1 571/571/1 572/572/1
f 574/574/1 573/573/1 572/572/1
f 575/575/1 574/574/1 572/572/1
f 576/576/1 577/577/1 578/578/1
f 577/577/1 579/579/1 578/578/1
f 577/577/1 580/580/1 579/579/1
f 581/581/1 580/580/1 577/577/1
f 582/582/1 581/581/1 577/577/1
f 581/581/1 582/582/1 583/583/1
f 583/583/1 582/582/1 584/584/1
f 585/585/6 586/586/6 587/587/6
f 586/586/6 588/588/6 587/587/6
f 589/589/4 590/590/4 591/591/4
f 592/592/4 591/591/4 590/590/4
f 593/593/4 594/594/4 589/589/4
f 594/594/4 595/595/4 589/589/4
f 593/593/4 596/596/4 597/597/4
f 597/597/4 596/596/4 598/598/4
f 599/599/13 600/600/13 601/601/13
f 600/600/13 602/602/13 601/601/13
f 603/603/6 604/604/6 605/605/6
f 605/605/6 604/604/6 606/606/6
f 607/607/6 603/603/6 608/608/6
f 609/609/6 608/608/6 603/603/6
f 607/607/6 610/610/6 611/611/6
f 612/612/6 611/611/6 610/610/6
f 613/613/1 614/614/1 615/615/1
f 614/614/1 616/616/1 615/615/1
f 617/617/14 618/618/14 619/619/14
f 618/618/14 620/620/14 619/619/14
f 621/621/15 622/622/15 623/623/16
f 622/622/15 624/624/16 623/623/16
f 623/623/16 624/624/16 625/625/17
f 626/626/17 623/623/16 625/625/17
f 626/626/17 625/625/17 627/627/18
f 625/625/17 628/628/18 627/627/18
f 629/629/1 630/630/1 631/631/1
f 630/630/1 632/632/1 631/631/1
f 633/633/1 634/634/1 635/635/1
f 634/634/1 636/636/1 635/635/1
f 637/637/4 638/638/4 639/639/4
f 640/640/4 639/639/4 638/638/4
f 641/641/4 642/642/4 637/637/4
f 642/642/4 643/643/4 637/637/4
f 641/641/4 644/644/4 645/645/4
f 645/645/4 644/644/4 646/646/4
f 647/647/13 648/648/13 649/649/13
f 648/648/13 650/650/13 649/649/13
f 651/651/6 652/652/6 653/653/6
f 653/653/6 652/652/6 654/654/6
f 655/655/6 651/651/6 656/656/6
f 657/657/6 656/656/6 651/651/6
f 655/655/6 658/658/6 659/659/6
f 660/660/6 659/659/6 658/658/6
f 661/661/1 662/662/1 663/663/1
f 662/662/1 664/664/1 663/663/1
f 665/665/14 666/666/14 667/667/14
f 666/666/14 668/668/14 667/667/14
f 669/669/15 670/670/15 671/671/19
f 670/670/15 672/672/16 671/671/19
f 671/671/19 672/672/16 673/673/17
f 674/674/17 671/671/19 673/673/17
f 674/674/17 673/673/17 675/675/18
f 673/673/17 676/676/18 675/675/18
f 677/677/1 678/678/1 679/679/1
f 678/678/1 680/680/1 679/679/1
f 681/681/1 682/682/1 683/683/1
f 682/682/1 684/684/1 683/683/1
f 685/685/4 686/686/4 687/687/4
f 688/688/4 687/687/4 686/686/4
f 689/689/4 690/690/4 685/685/4
f 690/690/4 691/691/4 685/685/4
f 689/689/4 692/692/4 693/693/4
f 693/693/4 692/692/4 694/694/4
f 695/695/13 696/696/13 697/697/13
f 696/696/13 698/698/13 697/697/13
f 699/699/6 700/700/6 701/701/6
f 701/701/6 700/700/6 702/702/6
f 703/703/6 699/699/6 704/704/6
f 705/705/6 704/704/6 699/699/6
f 703/703/6 706/706/6 707/707/6
f 708/708/6 707/707/6 706/706/6
f 709/709/1 710/710/1 711/711/1
f 710/710/1 712/712/1 711/711/1
f 713/713/14 714/714/14 715/715/14
f 714/714/14 716/716/14 715/715/14
f 717/717/15 718/718/15 719/719/19
f 718/718/15 720/720/19 719/719/19
f 719/719/19 720/720/19 721/721/17
f 722/722/17 719/719/19 721/721/17
f 722/722/17 721/721/17 723/723/18
f 721/721/17 724/724/18 723/723/18
f 725/725/1 726/726/1 727/727/1
f 726/726/1 728/728/1 727/727/1
f 729/729/1 730/730/1 731/731/1
f 730/730/1 732/732/1 731/731/1
f 733/733/4 734/734/4 735/735/4
f 736/736/4 735/735/4 734/734/4
f 737/737/4 738/738/4 733/733/4
f 738/738/4 739/739/4 733/733/4
f 737/737/4 740/740/4 741/741/4
f 741/741/4 740/740/4 742/742/4
f 743/743/13 744/744/13 745/745/13
f 744/744/13 746/746/13 745/745/13
f 747/747/6 748/748/6 749/749/6
f 749/749/6 748/748/6 750/750/6
f 751/751/6 747/747/6 752/752/6
f 753/753/6 752/752/6 747/747/6
f 751/751/6 754/754/6 755/755/6
f 756/756/6 755/755/6 754/754/6
f 757/757/1 758/758/1 759/759/1
f 758/758/1 760/760/1 759/759/1
f 761/761/14 762/762/14 763/763/14
f 762/762/14 764/764/14 763/763/14
f 765/765/15 766/766/15 767/767/19
f 766/766/15 768/768/19 767/767/19
f 767/767/19 768/768/19 769/769/20
f 770/770/20 767/767/19 769/769/20
f 770/770/20 769/769/20 771/771/18
f 769/769/20 772/772/18 771/771/18
f 773/773/1 774/774/1 775/775/1
f 774/774/1 776/776/1 775/775/1
f 777/777/1 778/778/1 779/779/1
f 778/778/1 780/780/1 779/779/1
f 781/781/4 782/782/4 783/783/4
f 784/784/4 783/783/4 782/782/4
f 785/785/4 786/786/4 781/781/4
f 786/786/4 787/787/4 781/781/4
f 785/785/4 788/788/4 789/789/4
f 789/789/4 788/788/4 790/790/4
f 791/791/13 792/792/13 793/793/13
f 792/792/13 794/794/13 793/793/13
f 795/795/6 796/796/6 797/797/6
f 797/797/6 796/796/6 798/798/6
f 799/799/6 795/795/6 800/800/6
f 801/801/6 800/800/6 795/795/6
f 799/799/6 802/802/6 803/803/6
f 804/804/6 803/803/6 802/802/6
f 805/805/1 806/806/1 807/807/1
f 806/806/1 808/808/1 807/807/1
f 809/809/14 810/810/14 811/811/14
f 810/810/14 812/812/14 811/811/14
f 813/813/15 814/814/15 815/815/19
f 814/814/15 816/816/16 815/815/19
f 815/815/19 816/816/16 817/817/17
f 818/818/20 815/815/19 817/817/17
f 818/818/20 817/817/17 819/819/18
f 817/817/17 820/820/18 819/819/18
f 821/821/1 822/822/1 823/823/1
f 822/822/1 824/824/1 823/823/1
f 825/825/1 826/826/1 827/827/1
f 826/826/1 828/828/1 827/827/1
f 829/829/4 830/830/4 831/831/4
f 832/832/4 831/831/4 830/830/4
f 833/833/4 834/834/4 829/829/4
f 834/834/4 835/835/4 829/829/4
f 833/833/4 836/836/4 837/837/4
f 837/837/4 836/836/4 838/838/4
f 839/839/13 840/840/13 841/841/13
f 840/840/13 842/842/13 841/841/13
f 843/843/6 844/844/6 845/845/6
f 845/845/6 844/844/6 846/846/6
f 847/847/6 843/843/6 848/848/6
f 849/849/6 848/848/6 843/843/6
f 847/847/6 850/850/6 851/851/6
f 852/852/6 851/851/6 850/850/6
f 853/853/1 854/854/1 855/855/1
f 854/854/1 856/856/1 855/855/1
f 857/857/14 858/858/14 859/859/14
f 858/858/14 860/860/14 859/859/14
f 861/861/15 862/862/15 863/863/19
f 862/862/15 864/864/19 863/863/19
f 863/863/19 864/864/19 865/865/17
f 866/866/17 863/863/19 865/865/17
f 866/866/17 865/865/17 867/867/18
f 865/865/17 868/868/18 867/867/18
f 869/869/1 870/870/1 871/871/1
f 870/870/1 872/872/1 871/871/1
f 873/873/1 874/874/1 875/875/1
f 874/874/1 876/876/1 875/875/1
f 877/877/4 878/878/4 879/879/4
f 880/880/4 879/879/4 878/878/4
f 881/881/4 882/882/4 877/877/4
f 882/882/4 883/883/4 877/877/4
f 881/881/4 884/884/4 885/885/4
f 885/885/4 884/884/4 886/886/4
f 887/887/13 888/888/13 889/889/13
f 888/888/13 890/890/13 889/889/13
f 891/891/6 892/892/6 893/893/6
f 893/893/6 892/892/6 894/894/6
f 895/895/6 891/891/6 896/896/6
f 897/897/6 896/896/6 891/891/6
f 895/895/6 898/898/6 899/899/6
f 900/900/6 899/899/6 898/898/6
f 901/901/1 902/902/1 903/903/1
f 902/902/1 904/904/1 903/903/1
f 905/905/14 906/906/14 907/907/14
f 906/906/14 908/908/14 907/907/14
f 909/909/15 910/910/15 911/911/19
f 910/910/15 912/912/19 911/911/19
f 911/911/19 912/912/19 913/913/17
f 914/914/17 911/911/19 913/913/17
f 914/914/17 913/913/17 915/915/18
f 913/913/17 916/916/18 915/915/18
f 917/917/1 918/918/1 919/919/1
f 918/918/1 920/920/1 919/919/1
f 921/921/1 922/922/1 923/923/1
f 922/922/1 924/924/1 923/923/1
f 925/925/4 926/926/4 927/927/4
f 928/928/4 927/927/4 926/926/4
f 929/929/4 930/930/4 925/925/4
f 930/930/4 931/931/4 925/925/4
f 929/929/4 932/932/4 933/933/4
f 933/933/4 932/932/4 934/934/4
f 935/935/13 936/936/13 937/937/13
f 936/936/13 938/938/13 937/937/13
f 939/939/6 940/940/6 941/941/6
f 941/941/6 940/940/6 942/942/6
f 943/943/6 939/939/6 944/944/6
f 945/945/6 944/944/6 939/939/6
f 943/943/6 946/946/6 947/947/6
f 948/948/6 947/947/6 946/946/6
f 949/949/1 950/950/1 951/951/1
f 950/950/1 952/952/1 951/951/1
f 953/953/14 954/954/14 955/955/14
f 954/954/14 956/956/14 955/955/14
f 957/957/15 958/958/15 959/959/19
f 958/958/15 960/960/16 959/959/19
f 959/959/19 960/960/16 961/961/17
f 962/962/20 959/959/19 961/961/17
f 962/962/20 961/961/17 963/963/18
f 961/961/17 964/964/18 963/963/18
f 965/965/1 966/966/1 967/967/1
f 966/966/1 968/968/1 967/967/1
f 969/969/1 970/970/1 971/971/1
f 970/970/1 972/972/1 971/971/1
f 973/973/2 974/974/2 975/975/2
f 974/974/2 976/976/2 975/975/2
f 977/977/3 978/978/3 979/979/3
f 979/979/3 978/978/3 980/980/3
f 979/979/3 980/980/3 981/981/3
f 980/980/3 982/982/3 981/981/3
f 983/983/3 984/984/3 985/985/3
f 986/986/3 983/983/3 985/985/3
f 986/986/3 985/985/3 987/987/3
f 988/988/3 986/986/3 987/987/3
f 988/988/3 987/987/3 989/989/3
f 990/990/3 988/988/3 989/989/3
f 978/978/3 990/990/3 989/989/3
f 991/991/3 990/990/3 978/978/3
f 991/991/3 978/978/3 977/977/3
f 991/991/3 977/977/3 992/992/3
f 977/977/3 993/993/3 992/992/3
f 994/994/1 995/995/1 996/996/1
f 996/996/1 995/995/1 997/997/1
f 997/997/1 995/995/1 998/998/1
f 995/995/1 999/999/1 998/998/1
f 1000/1000/1 1001/1001/1 1002/1002/1
f 1001/1001/1 1003/1003/1 1002/1002/1
f 1001/1001/1 1004/1004/1 1003/1003/1
f 1004/1004/1 1005/1005/1 1003/1003/1
f 1005/1005/1 1004/1004/1 996/996/1
f 1004/1004/1 1006/1006/1 996/996/1
f 1006/1006/1 994/994/1 996/996/1
f 1006/1006/1 1007/1007/1 994/994/1
f 994/994/1 1007/1007/1 1008/1008/1
f 1007/1007/1 1009/1009/1 1008/1008/1
f 1010/1010/2 1011/1011/2 1012/1012/21
f 1013/1013/22 1010/1010/2 1012/1012/21
f 1013/1013/22 1012/1012/21 1014/1014/23
f 1014/1014/23 1012/1012/21 1015/1015/24
f 1014/1014/23 1015/1015/24 1016/1016/25
f 1016/1016/25 1015/1015/24 1017/1017/26
f 1018/1018/26 1016/1016/25 1017/1017/26
f 1018/1018/26 1017/1017/26 1019/1019/5
f 1020/1020/5 1018/1018/26 1019/1019/5
f 1021/1021/27 1014/1014/23 1016/1016/25
f 1021/1021/27 1016/1016/25 1022/1022/28
f 1023/1023/29 1021/1021/27 1022/1022/28
f 1023/1023/29 1022/1022/28 1024/1024/3
f 1025/1025/3 1023/1023/29 1024/1024/3
f 1026/1026/1 1027/1027/1 1028/1028/1
f 1027/1027/1 1029/1029/1 1028/1028/1
f 1030/1030/3 1031/1031/3 1032/1032/3
f 1031/1031/3 1033/1033/3 1032/1032/3
f 1034/1034/1 1035/1035/1 1036/1036/1
f 1035/1035/1 1037/1037/1 1036/1036/1
f 1038/1038/5 1039/1039/5 1040/1040/5
f 1039/1039/5 1041/1041/5 1040/1040/5
f 1042/1042/5 1043/1043/5 1044/1044/5
f 1043/1043/5 1045/1045/5 1044/1044/5
f 1046/1046/4 1047/1047/4 1048/1048/4
f 1047/1047/4 1049/1049/4 1048/1048/4
f 1050/1050/4 1051/1051/4 1052/1052/4
f 1051/1051/4 1053/1053/4 1052/1052/4
f 1054/1054/4 1055/1055/4 1056/1056/4
f 1055/1055/4 1057/1057/4 1056/1056/4
f 1058/1058/4 1059/1059/4 1060/1060/4
f 1059/1059/4 1061/1061/4 1060/1060/4
f 1062/1062/30 1063/1063/30 1064/1064/30
f 1063/1063/30 1065/1065/30 1064/1064/30
f 1066/1066/4 1067/1067/4 1068/1068/4
f 1067/1067/4 1069/1069/4 1068/1068/4
f 1070/1070/4 1071/1071/4 1072/1072/4
f 1071/1071/4 1073/1073/4 1072/1072/4
f 1074/1074/31 1075/1075/31 1076/1076/31
f 1075/1075/31 1077/1077/31 1076/1076/31
f 1078/1078/4 1079/1079/4 1080/1080/4
f 1081/1081/4 1080/1080/4 1079/1079/4
f 1082/1082/4 1080/1080/4 1081/1081/4
f 1082/1082/4 1081/1081/4 1083/1083/4
f 1084/1084/5 1085/1085/5 1086/1086/5
f 1085/1085/5 1087/1087/5 1086/1086/5
f 1088/1088/6 1089/1089/6 1090/1090/6
f 1089/1089/6 1091/1091/6 1090/1090/6
f 1092/1092/4 1093/1093/4 1094/1094/4
f 1093/1093/4 1095/1095/4 1094/1094/4
f 1096/1096/5 1097/1097/5 1098/1098/5
f 1097/1097/5 1099/1099/5 1098/1098/5
f 1100/1100/3 1101/1101/3 1102/1102/3
f 1101/1101/3 1103/1103/3 1102/1102/3
f 1104/1104/2 1105/1105/2 1106/1106/2
f 1105/1105/2 1107/1107/2 1106/1106/2
f 1108/1108/3 1109/1109/3 1110/1110/3
f 1109/1109/3 1111/1111/3 1110/1110/3
f 1112/1112/2 1113/1113/2 1114/1114/2
f 1113/1113/2 1115/1115/2 1114/1114/2
f 1116/1116/4 1117/1117/4 1118/1118/4
f 1117/1117/4 1119/1119/4 1118/1118/4
f 1120/1120/4 1121/1121/4 1122/1122/4
f 1121/1121/4 1123/1123/4 1122/1122/4
f 1124/1124/1 1125/1125/1 1126/1126/1
f 1126/1126/1 1125/1125/1 1127/1127/1
f 1124/1124/1 1128/1128/1 1129/1129/1
f 1124/1124/1 1129/1129/1 1125/1125/1
f 1129/1129/1 1130/1130/1 1125/1125/1
f 1125/1125/1 1130/1130/1 1131/1131/1
f 1132/1132/4 1133/1133/4 1134/1134/4
f 1134/1134/4 1133/1133/4 1135/1135/4
f 1136/1136/4 1137/1137/4 1138/1138/4
f 1137/1137/4 1139/1139/4 1138/1138/4
f 1140/1140/5 1141/1141/5 1142/1142/5
f 1141/1141/5 1143/1143/5 1142/1142/5
f 1144/1144/6 1145/1145/6 1146/1146/6
f 1145/1145/6 1147/1147/6 1146/1146/6
f 1148/1148/4 1149/1149/4 1150/1150/4
f 1149/1149/4 1151/1151/4 1150/1150/4
f 1152/1152/5 1153/1153/5 1154/1154/5
f 1153/1153/5 1155/1155/5 1154/1154/5
f 1156/1156/6 1157/1157/6 1158/1158/6
f 1157/1157/6 1159/1159/6 1158/1158/6
f 1160/1160/4 1161/1161/4 1162/1162/4
f 1161/1161/4 1163/1163/4 1162/1162/4
f 1164/1164/1 1165/1165/1 1166/1166/1
f 1165/1165/1 1167/1167/1 1166/1166/1
f 1168/1168/4 1169/1169/4 1170/1170/4
f 1169/1169/4 1171/1171/4 1170/1170/4
f 1172/1172/4 1170/1170/4 1171/1171/4
f 1173/1173/4 1172/1172/4 1171/1171/4
f 1174/1174/1 1175/1175/1 1176/1176/1
f 1175/1175/1 1177/1177/1 1176/1176/1
f 1178/1178/1 1179/1179/1 1180/1180/1
f 1179/1179/1 1181/1181/1 1180/1180/1
f 1182/1182/4 1183/1183/4 1184/1184/4
f 1183/1183/4 1185/1185/4 1184/1184/4
f 1186/1186/4 1184/1184/4 1185/1185/4
f 1187/1187/4 1186/1186/4 1185/1185/4
f 1188/1188/1 1189/1189/1 1190/1190/1
f 1189/1189/1 1191/1191/1 1190/1190/1
f 1192/1192/1 1193/1193/1 1194/1194/1
f 1193/1193/1 1195/1195/1 1194/1194/1
f 1196/1196/3 1197/1197/3 1198/1198/3
f 1199/1199/3 1197/1197/3 1196/1196/3
f 1197/1197/3 1199/1199/3 1200/1200/3
f 1201/1201/3 1200/1200/3 1199/1199/3
f 1202/1202/4 1203/1203/4 1204/1204/4
f 1203/1203/4 1205/1205/4 1204/1204/4
f 1206/1206/4 1204/1204/4 1205/1205/4
f 1207/1207/4 1206/1206/4 1205/1205/4
f 1208/1208/1 1209/1209/1 1210/1210/1
f 1209/1209/1 1211/1211/1 1210/1210/1
f 1212/1212/1 1213/1213/1 1214/1214/1
f 1213/1213/1 1215/1215/1 1214/1214/1
f 1216/1216/3 1217/1217/3 1218/1218/3
f 1219/1219/3 1217/1217/3 1216/1216/3
f 1217/1217/3 1219/1219/3 1220/1220/3
f 1221/1221/3 1220/1220/3 1219/1219/3
f 1222/1222/4 1223/1223/4 1224/1224/4
f 1223/1223/4 1225/1225/4 1224/1224/4
f 1226/1226/4 1224/1224/4 1225/1225/4
f 1227/1227/4 1226/1226/4 1225/1225/4
f 1228/1228/1 1229/1229/1 1230/1230/1
f 1229/1229/1 1231/1231/1 1230/1230/1
f 1232/1232/3 1233/1233/3 1234/1234/3
f 1235/1235/3 1234/1234/3 1233/1233/3
f 1234/1234/3 1235/1235/3 1236/1236/3
f 1236/1236/3 1235/1235/3 1237/1237/3
f 1238/1238/3 1239/1239/3 1240/1240/3
f 1241/1241/3 1240/1240/3 1239/1239/3
f 1240/1240/3 1241/1241/3 1242/1242/3
f 1242/1242/3 1241/1241/3 1243/1243/3
f 1244/1244/1 1245/1245/1 1246/1246/1
f 1247/1247/1 1245/1245/1 1244/1244/1
f 1247/1247/1 1248/1248/1 1245/1245/1
f 1248/1248/1 1249/1249/1 1245/1245/1
f 1248/1248/1 1250/1250/1 1249/1249/1
f 1248/1248/1 1251/1251/1 1250/1250/1
f 1250/1250/1 1251/1251/1 1252/1252/1
f 1251/1251/1 1253/1253/1 1252/1252/1
f 1251/1251/1 1254/1254/1 1253/1253/1
f 1255/1255/1 1254/1254/1 1251/1251/1
f 1255/1255/1 1256/1256/1 1254/1254/1
f 1256/1256/1 1257/1257/1 1254/1254/1