# 3ds Max Wavefront OBJ Exporter v0.97b - (c)2007 guruware
# File Created: 26.03.2017 03:47:01

mtllib tier2_1_coll1.mtl

#
# object Box001
#

v  -8.0646 0.0000 7.9153
v  -8.0646 0.0000 -8.1566
v  0.2450 0.0000 -8.1566
v  0.2450 0.0000 7.9153
v  -8.0646 7.8260 7.9153
v  0.2450 7.8260 7.9153
v  0.2450 7.8260 -8.1566
v  -8.0646 7.8260 -8.1566
# 8 vertices

vn 0.0000 -1.0000 -0.0000
vn 0.0000 1.0000 -0.0000
vn 0.0000 0.0000 1.0000
vn 1.0000 0.0000 -0.0000
vn 0.0000 0.0000 -1.0000
vn -1.0000 0.0000 -0.0000
# 6 vertex normals

vt 1.0000 0.0000 0.0000
vt 1.0000 1.0000 0.0000
vt 0.0000 1.0000 0.0000
vt 0.0000 0.0000 0.0000
# 4 texture coords

g Box001
usemtl wire_135006006
s 2
f 1/1/1 2/2/1 3/3/1 4/4/1 
s 4
f 5/4/2 6/1/2 7/2/2 8/3/2 
s 8
f 1/4/3 4/1/3 6/2/3 5/3/3 
s 16
f 4/4/4 3/1/4 7/2/4 6/3/4 
s 32
f 3/4/5 2/1/5 8/2/5 7/3/5 
s 64
f 2/4/6 1/1/6 5/2/6 8/3/6 
# 6 polygons

#
# object Box005
#

v  0.4060 0.0000 3.6896
v  0.4060 0.0000 1.2046
v  4.8111 0.0000 1.2046
v  4.8111 0.0000 3.6896
v  0.4060 9.0651 3.6896
v  4.8111 9.0651 3.6896
v  4.8111 9.0651 1.2046
v  0.4060 9.0651 1.2046
# 8 vertices

vn 0.0000 -1.0000 -0.0000
vn 0.0000 1.0000 -0.0000
vn 0.0000 0.0000 1.0000
vn 1.0000 0.0000 -0.0000
vn 0.0000 0.0000 -1.0000
vn -1.0000 0.0000 -0.0000
# 6 vertex normals

vt 1.0000 0.0000 0.0000
vt 1.0000 1.0000 0.0000
vt 0.0000 1.0000 0.0000
vt 0.0000 0.0000 0.0000
# 4 texture coords

g Box005
usemtl wire_135006006
s 2
f 9/5/7 10/6/7 11/7/7 12/8/7 
s 4
f 13/8/8 14/5/8 15/6/8 16/7/8 
s 8
f 9/8/9 12/5/9 14/6/9 13/7/9 
s 16
f 12/8/10 11/5/10 15/6/10 14/7/10 
s 32
f 11/8/11 10/5/11 16/6/11 15/7/11 
s 64
f 10/8/12 9/5/12 13/6/12 16/7/12 
# 6 polygons

#
# object Box006
#

v  0.6193 0.0000 7.8068
v  0.6193 0.0000 3.8725
v  8.6533 0.0000 3.8725
v  8.6533 0.0000 7.8068
v  0.6193 7.9666 7.8068
v  8.6533 7.9666 7.8068
v  8.6533 7.9666 3.8725
v  0.6193 7.9666 3.8725
# 8 vertices

vn 0.0000 -1.0000 -0.0000
vn 0.0000 1.0000 -0.0000
vn 0.0000 0.0000 1.0000
vn 1.0000 0.0000 -0.0000
vn 0.0000 0.0000 -1.0000
vn -1.0000 0.0000 -0.0000
# 6 vertex normals

vt 1.0000 0.0000 0.0000
vt 1.0000 1.0000 0.0000
vt 0.0000 1.0000 0.0000
vt 0.0000 0.0000 0.0000
# 4 texture coords

g Box006
usemtl wire_135006006
s 2
f 17/9/13 18/10/13 19/11/13 20/12/13 
s 4
f 21/12/14 22/9/14 23/10/14 24/11/14 
s 8
f 17/12/15 20/9/15 22/10/15 21/11/15 
s 16
f 20/12/16 19/9/16 23/10/16 22/11/16 
s 32
f 19/12/17 18/9/17 24/10/17 23/11/17 
s 64
f 18/12/18 17/9/18 21/10/18 24/11/18 
# 6 polygons

#
# object Box007
#

v  4.6389 0.0000 3.6896
v  4.6389 0.0000 1.2046
v  8.6645 0.0000 1.2046
v  8.6645 0.0000 3.6896
v  4.6389 6.2689 3.6896
v  8.6645 6.2689 3.6896
v  8.6645 6.2689 1.2046
v  4.6389 6.2689 1.2046
# 8 vertices

vn 0.0000 -1.0000 -0.0000
vn 0.0000 1.0000 -0.0000
vn 0.0000 0.0000 1.0000
vn 1.0000 0.0000 -0.0000
vn 0.0000 0.0000 -1.0000
vn -1.0000 0.0000 -0.0000
# 6 vertex normals

vt 1.0000 0.0000 0.0000
vt 1.0000 1.0000 0.0000
vt 0.0000 1.0000 0.0000
vt 0.0000 0.0000 0.0000
# 4 texture coords

g Box007
usemtl wire_135006006
s 2
f 25/13/19 26/14/19 27/15/19 28/16/19 
s 4
f 29/16/20 30/13/20 31/14/20 32/15/20 
s 8
f 25/16/21 28/13/21 30/14/21 29/15/21 
s 16
f 28/16/22 27/13/22 31/14/22 30/15/22 
s 32
f 27/16/23 26/13/23 32/14/23 31/15/23 
s 64
f 26/16/24 25/13/24 29/14/24 32/15/24 
# 6 polygons

#
# object Box008
#

v  4.6389 0.0000 1.1759
v  4.6389 0.0000 -1.3121
v  8.6645 0.0000 -1.3121
v  8.6645 0.0000 1.1759
v  4.6389 3.8078 1.1759
v  8.6645 3.8078 1.1759
v  8.6645 3.8078 -1.3121
v  4.6389 3.8078 -1.3121
# 8 vertices

vn 0.0000 -1.0000 -0.0000
vn 0.0000 1.0000 -0.0000
vn 0.0000 0.0000 1.0000
vn 1.0000 0.0000 -0.0000
vn 0.0000 0.0000 -1.0000
vn -1.0000 0.0000 -0.0000
# 6 vertex normals

vt 1.0000 0.0000 0.0000
vt 1.0000 1.0000 0.0000
vt 0.0000 1.0000 0.0000
vt 0.0000 0.0000 0.0000
# 4 texture coords

g Box008
usemtl wire_135006006
s 2
f 33/17/25 34/18/25 35/19/25 36/20/25 
s 4
f 37/20/26 38/17/26 39/18/26 40/19/26 
s 8
f 33/20/27 36/17/27 38/18/27 37/19/27 
s 16
f 36/20/28 35/17/28 39/18/28 38/19/28 
s 32
f 35/20/29 34/17/29 40/18/29 39/19/29 
s 64
f 34/20/30 33/17/30 37/18/30 40/19/30 
# 6 polygons

#
# object Box009
#

v  4.6389 0.0000 -1.2594
v  4.6389 0.0000 -3.7097
v  8.6645 0.0000 -3.7097
v  8.6645 0.0000 -1.2594
v  4.6389 1.7566 -1.2594
v  8.6645 1.7566 -1.2594
v  8.6645 1.7566 -3.7097
v  4.6389 1.7566 -3.7097
# 8 vertices

vn 0.0000 -1.0000 -0.0000
vn 0.0000 1.0000 -0.0000
vn 0.0000 0.0000 1.0000
vn 1.0000 0.0000 -0.0000
vn 0.0000 0.0000 -1.0000
vn -1.0000 0.0000 -0.0000
# 6 vertex normals

vt 1.0000 0.0000 0.0000
vt 1.0000 1.0000 0.0000
vt 0.0000 1.0000 0.0000
vt 0.0000 0.0000 0.0000
# 4 texture coords

g Box009
usemtl wire_135006006
s 2
f 41/21/31 42/22/31 43/23/31 44/24/31 
s 4
f 45/24/32 46/21/32 47/22/32 48/23/32 
s 8
f 41/24/33 44/21/33 46/22/33 45/23/33 
s 16
f 44/24/34 43/21/34 47/22/34 46/23/34 
s 32
f 43/24/35 42/21/35 48/22/35 47/23/35 
s 64
f 42/24/36 41/21/36 45/22/36 48/23/36 
# 6 polygons

#
# object Object035
#

v  0.4060 0.0000 -3.7396
v  0.4060 0.0000 -8.0473
v  4.8111 0.0000 -8.0473
v  4.8111 0.0000 -3.7396
v  0.4060 15.5428 -3.7396
v  4.8111 15.5428 -3.7396
v  4.8111 15.5428 -8.0473
v  0.4060 15.5428 -8.0473
# 8 vertices

vn 0.0000 -1.0000 -0.0000
vn 0.0000 1.0000 -0.0000
vn 0.0000 0.0000 1.0000
vn 1.0000 0.0000 -0.0000
vn 0.0000 0.0000 -1.0000
vn -1.0000 0.0000 -0.0000
# 6 vertex normals

vt 1.0000 0.0000 0.0000
vt 1.0000 1.0000 0.0000
vt 0.0000 1.0000 0.0000
vt 0.0000 0.0000 0.0000
# 4 texture coords

g Object035
usemtl wire_135006006
s 2
f 49/25/37 50/26/37 51/27/37 52/28/37 
s 4
f 53/28/38 54/25/38 55/26/38 56/27/38 
s 8
f 49/28/39 52/25/39 54/26/39 53/27/39 
s 16
f 52/28/40 51/25/40 55/26/40 54/27/40 
s 32
f 51/28/41 50/25/41 56/26/41 55/27/41 
s 64
f 50/28/42 49/25/42 53/26/42 56/27/42 
# 6 polygons

#
# object Object036
#

v  0.4060 0.0000 -1.2594
v  0.4060 0.0000 -3.7097
v  4.8111 0.0000 -3.7097
v  4.8111 0.0000 -1.2594
v  0.4060 13.6855 -1.2594
v  4.8111 13.6855 -1.2594
v  4.8111 13.6855 -3.7097
v  0.4060 13.6855 -3.7097
# 8 vertices

vn 0.0000 -1.0000 -0.0000
vn 0.0000 1.0000 -0.0000
vn 0.0000 0.0000 1.0000
vn 1.0000 0.0000 -0.0000
vn 0.0000 0.0000 -1.0000
vn -1.0000 0.0000 -0.0000
# 6 vertex normals

vt 1.0000 0.0000 0.0000
vt 1.0000 1.0000 0.0000
vt 0.0000 1.0000 0.0000
vt 0.0000 0.0000 0.0000
# 4 texture coords

g Object036
usemtl wire_135006006
s 2
f 57/29/43 58/30/43 59/31/43 60/32/43 
s 4
f 61/32/44 62/29/44 63/30/44 64/31/44 
s 8
f 57/32/45 60/29/45 62/30/45 61/31/45 
s 16
f 60/32/46 59/29/46 63/30/46 62/31/46 
s 32
f 59/32/47 58/29/47 64/30/47 63/31/47 
s 64
f 58/32/48 57/29/48 61/30/48 64/31/48 
# 6 polygons

#
# object Object037
#

v  0.4060 0.0000 1.1759
v  0.4060 0.0000 -1.3121
v  4.8111 0.0000 -1.3121
v  4.8111 0.0000 1.1759
v  0.4060 11.1455 1.1759
v  4.8111 11.1455 1.1759
v  4.8111 11.1455 -1.3121
v  0.4060 11.1455 -1.3121
# 8 vertices

vn 0.0000 -1.0000 -0.0000
vn 0.0000 1.0000 -0.0000
vn 0.0000 0.0000 1.0000
vn 1.0000 0.0000 -0.0000
vn 0.0000 0.0000 -1.0000
vn -1.0000 0.0000 -0.0000
# 6 vertex normals

vt 1.0000 0.0000 0.0000
vt 1.0000 1.0000 0.0000
vt 0.0000 1.0000 0.0000
vt 0.0000 0.0000 0.0000
# 4 texture coords

g Object037
usemtl wire_135006006
s 2
f 65/33/49 66/34/49 67/35/49 68/36/49 
s 4
f 69/36/50 70/33/50 71/34/50 72/35/50 
s 8
f 65/36/51 68/33/51 70/34/51 69/35/51 
s 16
f 68/36/52 67/33/52 71/34/52 70/35/52 
s 32
f 67/36/53 66/33/53 72/34/53 71/35/53 
s 64
f 66/36/54 65/33/54 69/34/54 72/35/54 
# 6 polygons