# Blender v2.82 (sub 7) OBJ File: ''
# www.blender.org
mtllib towerShape_0_2.mtl
o towerShape_0.002
v 0.500338 0.885915 0.207202
v 0.498146 0.910416 0.105480
v 0.486863 0.910416 0.207149
v 0.516103 0.886315 0.104997
v 0.501795 0.910515 -0.000947
v 0.509451 0.879515 0.169362
v 0.509353 0.725715 0.169351
v 0.501056 0.559715 0.207075
v 0.516103 0.879515 0.104997
v 0.524216 0.886315 0.000065
v 0.524216 0.879515 0.000065
v 0.516141 0.886315 -0.104912
v 0.498194 0.910515 -0.105436
v 0.516141 0.879515 -0.104912
v 0.500432 0.885915 -0.207183
v 0.509327 0.879515 -0.169412
v 0.486860 0.910416 -0.207246
v 0.509327 0.725715 -0.169412
v 0.501226 0.559715 -0.207097
v 0.508119 0.560115 -0.167528
v 0.540218 0.727615 -0.089434
v 0.533208 0.740815 -0.088783
v 0.502570 0.738716 -0.168331
v 0.541829 0.740815 -0.000041
v 0.548753 0.728615 0.000101
v 0.540417 0.560115 -0.089413
v 0.513779 0.399315 -0.143584
v 0.502895 0.395915 -0.185299
v 0.500568 0.392515 -0.187960
v 0.499614 0.389415 -0.207073
v 0.540215 0.727615 0.089400
v 0.549073 0.560115 -0.000062
v 0.533236 0.740815 0.088850
v 0.544434 0.418315 0.000036
v 0.533020 0.396615 -0.081459
v 0.516574 0.322215 -0.132215
v 0.503877 0.306415 -0.167387
v 0.500153 0.306415 -0.172010
v 0.540416 0.560115 0.089421
v 0.552356 0.362815 -0.063987
v 0.498222 0.236315 -0.207224
v 0.507992 0.560115 0.167993
v 0.505939 0.235215 -0.147344
v 0.511179 0.235215 -0.141851
v 0.502516 0.738715 0.168409
v 0.533024 0.396615 0.081483
v 0.509581 0.193615 -0.126136
v 0.494004 0.000015 -0.207278
v 0.514298 0.385515 0.146852
v 0.516594 0.322215 0.132112
v 0.503092 0.375315 0.179838
v 0.552419 0.362815 0.063967
v 0.503937 0.306415 0.167351
v 0.500418 0.373815 0.183170
v 0.499443 0.372215 0.207105
v 0.500196 0.306415 0.172181
v 0.512724 0.154815 -0.095617
v 0.499906 0.000015 -0.090569
v 0.505994 0.235215 0.147358
v 0.511191 0.235215 0.142092
v 0.498228 0.235815 0.207172
v 0.509594 0.193615 0.126128
v 0.562647 0.382715 -0.000011
v 0.514456 0.127615 -0.052985
v 0.501772 0.000015 0.002072
v 0.494108 0.000015 0.207128
v 0.514463 0.116715 0.000019
v 0.512782 0.154815 0.095693
v 0.515863 0.193415 0.120264
v 0.515845 0.237215 0.128812
v 0.499847 0.000015 0.090675
v 0.514473 0.127615 0.053023
v 0.523057 0.169115 0.078794
v 0.539809 0.246015 0.100621
v 0.519466 0.159215 0.093394
v 0.543664 0.310515 0.101235
v 0.523524 0.131915 0.051183
v 0.529548 0.139815 0.000035
v 0.542320 0.193715 0.062469
v 0.560357 0.257915 0.064015
v 0.562745 0.297315 0.064273
v 0.568108 0.329215 0.041621
v 0.572099 0.277015 0.000003
v 0.561964 0.226015 0.040754
v 0.550267 0.173815 0.000067
v 0.569371 0.341415 0.000116
v 0.524515 0.121215 0.000097
v 0.561828 0.213815 0.000104
v 0.568051 0.329215 -0.041669
v 0.561915 0.226015 -0.040725
v 0.542334 0.193715 -0.062450
v 0.562757 0.297315 -0.064369
v 0.560404 0.257915 -0.064017
v 0.543595 0.310515 -0.101138
v 0.539808 0.246015 -0.100546
v 0.523090 0.169115 -0.078910
v 0.515891 0.237215 -0.128668
v 0.522601 0.131915 -0.051104
v 0.515795 0.193415 -0.120333
v 0.519412 0.159215 -0.093288
v 0.483523 0.000015 0.212928
v 0.499847 0.000015 0.090675
v 0.494108 0.000015 0.207128
v -0.514638 0.000015 0.212849
v 0.501772 0.000015 0.002072
v -0.514633 0.000015 -0.212810
v 0.499906 0.000015 -0.090569
v 0.483540 0.000015 -0.212832
v 0.494004 0.000015 -0.207278
v 0.486956 0.879515 0.165320
v 0.486956 0.748015 0.165320
v 0.487931 0.748015 0.087374
v 0.487632 0.879515 0.087342
v 0.487917 0.879515 -0.000036
v 0.487917 0.748015 -0.000036
v 0.487570 0.879515 -0.087171
v 0.487891 0.748015 -0.087340
v 0.486955 0.879515 -0.165294
v 0.486955 0.748015 -0.165294
v 0.486956 0.879515 0.165320
v 0.487632 0.879515 0.087342
v 0.509451 0.879515 0.169362
v 0.516103 0.879515 0.104997
v 0.487917 0.879515 -0.000036
v 0.524216 0.879515 0.000065
v 0.516141 0.879515 -0.104912
v 0.487570 0.879515 -0.087171
v 0.486955 0.879515 -0.165294
v 0.509327 0.879515 -0.169412
v 0.502516 0.738715 0.168409
v 0.509451 0.879515 0.169362
v 0.509353 0.725715 0.169351
v 0.486956 0.748015 0.165320
v 0.486956 0.879515 0.165320
v 0.487931 0.748015 0.087374
v 0.486956 0.748015 0.165320
v 0.502516 0.738715 0.168409
v 0.533236 0.740815 0.088850
v 0.487917 0.748015 -0.000036
v 0.541829 0.740815 -0.000041
v 0.533208 0.740815 -0.088783
v 0.487891 0.748015 -0.087340
v 0.502570 0.738716 -0.168331
v 0.486955 0.748015 -0.165294
v 0.493506 0.886515 0.212699
v 0.486860 0.904115 0.212785
v 0.494700 0.556615 0.212828
v -0.514638 0.904115 0.212850
v -0.514626 0.910416 0.206214
v 0.486863 0.910416 0.207149
v -0.514638 0.000015 0.212849
v 0.492095 0.370915 0.212750
v 0.490183 0.235015 0.212742
v 0.483523 0.000015 0.212928
v 0.512782 0.154815 0.095693
v 0.519466 0.159215 0.093394
v 0.515863 0.193415 0.120264
v 0.509594 0.193615 0.126128
v -0.514626 0.910416 0.206214
v -0.514667 0.910515 -0.205973
v -0.514633 0.904115 -0.212810
v -0.514638 0.904115 0.212850
v -0.514638 0.000015 0.212849
v -0.514633 0.000015 -0.212810
v 0.502570 0.738716 -0.168331
v 0.486955 0.879515 -0.165294
v 0.486955 0.748015 -0.165294
v 0.509327 0.879515 -0.169412
v 0.509327 0.725715 -0.169412
v 0.493490 0.886515 -0.212765
v 0.494706 0.556615 -0.212837
v 0.486765 0.904115 -0.212885
v -0.514633 0.904115 -0.212810
v -0.514633 0.000015 -0.212810
v 0.492296 0.385815 -0.212894
v -0.514667 0.910515 -0.205973
v 0.486860 0.910416 -0.207246
v 0.490286 0.236015 -0.212907
v 0.483540 0.000015 -0.212832
v 0.515795 0.193415 -0.120333
v 0.519412 0.159215 -0.093288
v 0.512724 0.154815 -0.095617
v 0.509581 0.193615 -0.126136
v 0.523524 0.131915 0.051183
v 0.519466 0.159215 0.093394
v 0.512782 0.154815 0.095693
v 0.514473 0.127615 0.053023
v 0.514463 0.116715 0.000019
v 0.524515 0.121215 0.000097
v 0.522601 0.131915 -0.051104
v 0.514456 0.127615 -0.052985
v 0.512724 0.154815 -0.095617
v 0.519412 0.159215 -0.093288
v 0.500432 0.885915 -0.207183
v 0.486765 0.904115 -0.212885
v 0.486860 0.910416 -0.207246
v 0.493490 0.886515 -0.212765
v 0.501226 0.559715 -0.207097
v 0.494706 0.556615 -0.212837
v 0.499614 0.389415 -0.207073
v 0.492296 0.385815 -0.212894
v 0.498222 0.236315 -0.207224
v 0.490286 0.236015 -0.212907
v 0.494004 0.000015 -0.207278
v 0.483540 0.000015 -0.212832
v 0.500338 0.885915 0.207202
v 0.486863 0.910416 0.207149
v 0.486860 0.904115 0.212785
v 0.493506 0.886515 0.212699
v 0.501056 0.559715 0.207075
v 0.494700 0.556615 0.212828
v 0.499443 0.372215 0.207105
v 0.492095 0.370915 0.212750
v 0.498228 0.235815 0.207172
v 0.490183 0.235015 0.212742
v 0.494108 0.000015 0.207128
v 0.483523 0.000015 0.212928
v 0.498146 0.910416 0.105480
v -0.514626 0.910416 0.206214
v 0.486863 0.910416 0.207149
v 0.501795 0.910515 -0.000947
v -0.514667 0.910515 -0.205973
v 0.498194 0.910515 -0.105436
v 0.486860 0.910416 -0.207246
vt 0.761200 0.023500
vt 0.814500 0.008600
vt 0.761200 0.008600
vt 0.815400 0.023500
vt 0.868300 0.008600
vt 0.781500 0.027500
vt 0.781500 0.105600
vt 0.761200 0.191500
vt 0.815300 0.027500
vt 0.867600 0.023500
vt 0.867600 0.027500
vt 0.919900 0.023500
vt 0.920900 0.008600
vt 0.920000 0.027500
vt 0.973500 0.023500
vt 0.953100 0.027500
vt 0.973500 0.008600
vt 0.953100 0.105600
vt 0.973500 0.191500
vt 0.953100 0.191500
vt 0.911900 0.105600
vt 0.911900 0.097800
vt 0.953100 0.097800
vt 0.867300 0.097800
vt 0.867200 0.105600
vt 0.911900 0.191500
vt 0.942488 0.274099
vt 0.962213 0.276077
vt 0.966857 0.277913
vt 0.973500 0.279341
vt 0.822600 0.105600
vt 0.867100 0.191500
vt 0.822600 0.097800
vt 0.867200 0.263900
vt 0.909700 0.275200
vt 0.937400 0.313700
vt 0.955000 0.322300
vt 0.957300 0.322400
vt 0.822600 0.191500
vt 0.899000 0.293000
vt 0.973500 0.358300
vt 0.781500 0.191500
vt 0.944200 0.359400
vt 0.940900 0.359200
vt 0.781500 0.097800
vt 0.824200 0.275000
vt 0.932500 0.381100
vt 0.973500 0.480400
vt 0.790090 0.281007
vt 0.796200 0.313500
vt 0.772916 0.286567
vt 0.834600 0.292500
vt 0.778300 0.322100
vt 0.768037 0.287332
vt 0.761200 0.286595
vt 0.776000 0.322100
vt 0.916500 0.401500
vt 0.916200 0.480400
vt 0.789200 0.359200
vt 0.792600 0.359000
vt 0.761200 0.355800
vt 0.801000 0.381000
vt 0.866900 0.283100
vt 0.894300 0.415900
vt 0.866100 0.480400
vt 0.761200 0.480400
vt 0.866900 0.422200
vt 0.817300 0.401400
vt 0.804900 0.380300
vt 0.799000 0.358000
vt 0.818600 0.480400
vt 0.839500 0.415800
vt 0.825900 0.392900
vt 0.815900 0.352300
vt 0.819100 0.398000
vt 0.815700 0.319300
vt 0.841200 0.411100
vt 0.866800 0.407000
vt 0.835100 0.378900
vt 0.835400 0.345400
vt 0.835300 0.325500
vt 0.846600 0.309600
vt 0.866700 0.335700
vt 0.846800 0.361300
vt 0.866700 0.387700
vt 0.866700 0.303600
vt 0.866800 0.415400
vt 0.866700 0.367400
vt 0.886900 0.309800
vt 0.886600 0.361400
vt 0.898300 0.379000
vt 0.898200 0.325800
vt 0.898100 0.345600
vt 0.917900 0.319500
vt 0.917600 0.352500
vt 0.907700 0.393100
vt 0.934500 0.358200
vt 0.892500 0.411200
vt 0.928600 0.380500
vt 0.914500 0.398100
vt 0.610300 0.306608
vt 0.642700 0.302589
vt 0.610300 0.306189
vt 0.610300 0.613308
vt 0.673000 0.301289
vt 0.733800 0.613308
vt 0.703800 0.302189
vt 0.733800 0.305908
vt 0.733800 0.305489
vt 0.882600 0.980400
vt 0.950600 0.980400
vt 0.950600 0.941300
vt 0.882600 0.941200
vt 0.882600 0.897400
vt 0.950700 0.897500
vt 0.882600 0.853700
vt 0.950700 0.853600
vt 0.882600 0.814500
vt 0.950600 0.814500
vt 0.882600 0.980400
vt 0.882600 0.941200
vt 0.870700 0.982400
vt 0.867400 0.950000
vt 0.882600 0.897400
vt 0.863300 0.897500
vt 0.867400 0.844900
vt 0.882600 0.853700
vt 0.882600 0.814500
vt 0.870700 0.812600
vt 0.955400 0.988800
vt 0.882500 0.992500
vt 0.962100 0.992500
vt 0.950600 0.980400
vt 0.882600 0.980400
vt 0.822600 0.075300
vt 0.781500 0.086000
vt 0.781500 0.097800
vt 0.822600 0.097800
vt 0.867300 0.071100
vt 0.867300 0.097800
vt 0.911900 0.097800
vt 0.911900 0.075900
vt 0.953100 0.097800
vt 0.953100 0.086000
vt 0.746016 0.020800
vt 0.745118 0.015300
vt 0.745118 0.123400
vt 0.441600 0.013200
vt 0.441600 0.011400
vt 0.745118 0.011400
vt 0.441600 0.294500
vt 0.745118 0.179829
vt 0.745118 0.221100
vt 0.745118 0.294500
vt 0.817300 0.401400
vt 0.819100 0.398000
vt 0.804900 0.380300
vt 0.801000 0.381000
vt 0.600600 0.301500
vt 0.454000 0.301100
vt 0.451600 0.303700
vt 0.603000 0.303700
vt 0.603000 0.635600
vt 0.451600 0.635600
vt 0.955400 0.988800
vt 0.882600 0.980400
vt 0.950600 0.980400
vt 0.882500 0.992500
vt 0.962100 0.992500
vt 0.746028 0.020677
vt 0.745118 0.123400
vt 0.745118 0.015300
vt 0.441600 0.013200
vt 0.441600 0.294500
vt 0.745118 0.175889
vt 0.441600 0.011400
vt 0.745118 0.011400
vt 0.745118 0.221900
vt 0.745118 0.294500
vt 0.928600 0.380500
vt 0.914500 0.398100
vt 0.916500 0.401500
vt 0.932500 0.381100
vt 0.841200 0.411100
vt 0.819100 0.398000
vt 0.817300 0.401400
vt 0.839500 0.415800
vt 0.866900 0.422200
vt 0.866800 0.415400
vt 0.892500 0.411200
vt 0.894300 0.415900
vt 0.916500 0.401500
vt 0.914500 0.398100
vt 0.973500 0.023500
vt 0.978200 0.012000
vt 0.973500 0.008600
vt 0.978200 0.023500
vt 0.973500 0.191500
vt 0.978200 0.191500
vt 0.973500 0.279341
vt 0.978200 0.280438
vt 0.973500 0.358300
vt 0.978200 0.358400
vt 0.973500 0.480400
vt 0.978200 0.480400
vt 0.761200 0.023500
vt 0.761200 0.008600
vt 0.756600 0.011800
vt 0.756600 0.023500
vt 0.761200 0.191500
vt 0.756600 0.191500
vt 0.761200 0.286595
vt 0.756600 0.286626
vt 0.761200 0.355800
vt 0.756600 0.356200
vt 0.761200 0.480400
vt 0.756600 0.480400
vt 0.703800 0.301704
vt 0.733800 0.615504
vt 0.733800 0.305004
vt 0.673000 0.300804
vt 0.610300 0.615504
vt 0.642700 0.302104
vt 0.610300 0.305704
vn 0.8852 0.2511 0.3915
vn 0.8031 0.5908 0.0776
vn 0.5891 0.6008 0.5404
vn 0.9202 0.3802 0.0935
vn 0.7676 0.6410 -0.0003
vn 0.9726 0.1460 0.1808
vn 0.9534 0.1124 0.2800
vn 0.9054 -0.0172 0.4243
vn 0.9839 0.1455 0.1041
vn 0.9400 0.3413 -0.0002
vn 1.0000 -0.0000 0.0002
vn 0.9208 0.3786 -0.0934
vn 0.8030 0.5910 -0.0774
vn 0.9844 0.1419 -0.1039
vn 0.8844 0.2500 -0.3942
vn 0.9735 0.1425 -0.1786
vn 0.5871 0.6001 -0.5433
vn 0.9538 0.1125 -0.2787
vn 0.9056 -0.0158 -0.4239
vn 0.9552 -0.0133 -0.2956
vn 0.9459 0.1930 -0.2606
vn 0.5817 0.8021 -0.1356
vn 0.5914 0.7771 -0.2156
vn 0.5681 0.8230 0.0000
vn 0.9683 0.2499 -0.0000
vn 0.9717 -0.0198 -0.2355
vn 0.9582 -0.0215 -0.2854
vn 0.8976 -0.0570 -0.4371
vn 0.9393 -0.0535 -0.3390
vn 0.8901 -0.0092 -0.4558
vn 0.9459 0.1932 0.2606
vn 0.9998 -0.0204 -0.0000
vn 0.5814 0.8023 0.1354
vn 0.9810 0.1939 0.0000
vn 0.9404 0.1127 -0.3207
vn 0.9008 0.0257 -0.4334
vn 0.8756 -0.0825 -0.4758
vn 0.9258 -0.0650 -0.3723
vn 0.9725 -0.0180 0.2323
vn 0.8986 0.2583 -0.3548
vn 0.9017 -0.0014 -0.4325
vn 0.9542 -0.0124 0.2988
vn 0.8977 -0.1127 -0.4259
vn 0.8475 -0.1373 -0.5127
vn 0.5912 0.7772 0.2156
vn 0.9432 0.1106 0.3133
vn 0.8737 -0.2281 -0.4296
vn 0.9184 -0.0326 -0.3943
vn 0.9566 -0.0281 0.2902
vn 0.9006 0.0193 0.4343
vn 0.8909 -0.0597 0.4503
vn 0.8986 0.2584 0.3546
vn 0.8714 -0.0828 0.4835
vn 0.9391 -0.0524 0.3397
vn 0.8905 -0.0089 0.4549
vn 0.9254 -0.0618 0.3738
vn 0.8601 -0.3685 -0.3527
vn 0.9947 -0.0821 -0.0626
vn 0.8975 -0.1131 0.4264
vn 0.8472 -0.1374 0.5132
vn 0.9011 -0.0012 0.4336
vn 0.8738 -0.2282 0.4294
vn 0.9433 0.3320 -0.0000
vn 0.8402 -0.5010 -0.2075
vn 0.9946 -0.1041 0.0003
vn 0.9182 -0.0326 0.3949
vn 0.8231 -0.5679 -0.0007
vn 0.8568 -0.3721 0.3571
vn 0.8355 -0.2315 0.4984
vn 0.9033 -0.1007 0.4171
vn 0.9946 -0.0818 0.0631
vn 0.8344 -0.5089 0.2114
vn 0.9397 -0.2268 0.2560
vn 0.8356 -0.1702 0.5224
vn 0.8332 -0.3640 0.4163
vn 0.8442 0.0694 0.5315
vn 0.8178 -0.5118 0.2631
vn 0.9442 -0.3292 -0.0034
vn 0.8665 -0.3590 0.3468
vn 0.9455 -0.1118 0.3057
vn 0.9517 -0.0057 0.3071
vn 0.9750 0.0936 0.2013
vn 0.9982 -0.0600 0.0000
vn 0.9569 -0.2105 0.2003
vn 0.9020 -0.4318 0.0001
vn 0.9902 0.1396 0.0000
vn 0.8133 -0.5818 -0.0044
vn 0.9668 -0.2556 0.0000
vn 0.9750 0.0936 -0.2013
vn 0.9568 -0.2104 -0.2005
vn 0.8666 -0.3588 -0.3467
vn 0.9516 -0.0061 -0.3072
vn 0.9454 -0.1119 -0.3060
vn 0.8444 0.0694 -0.5313
vn 0.8354 -0.1703 -0.5225
vn 0.9378 -0.2342 -0.2564
vn 0.9031 -0.1009 -0.4174
vn 0.8189 -0.5121 -0.2591
vn 0.8353 -0.2310 -0.4989
vn 0.8363 -0.3648 -0.4094
vn 0.0000 -1.0000 -0.0000
vn 1.0000 0.0011 0.0097
vn 1.0000 0.0008 0.0062
vn 1.0000 0.0012 0.0057
vn 1.0000 0.0011 -0.0000
vn 1.0000 0.0011 0.0001
vn 1.0000 0.0013 -0.0056
vn 1.0000 0.0011 -0.0057
vn 1.0000 0.0012 -0.0097
vn 1.0000 0.0010 -0.0099
vn 0.1288 -0.7073 -0.6951
vn 0.1543 -0.4474 -0.8809
vn 0.1681 -0.0003 -0.9858
vn 0.1579 -0.4474 -0.8803
vn 0.1559 0.0000 -0.9878
vn 0.1837 -0.0005 -0.9830
vn 0.1289 -0.7073 -0.6951
vn 0.1997 0.9792 0.0359
vn 0.2560 0.9645 0.0647
vn 0.5911 0.7772 0.2157
vn 0.5814 0.8022 0.1354
vn 0.1422 0.9898 -0.0000
vn 0.5679 0.8231 -0.0000
vn 0.5815 0.8022 -0.1354
vn 0.1996 0.9792 -0.0359
vn 0.5911 0.7772 -0.2157
vn 0.2561 0.9645 -0.0647
vn 0.4945 0.1253 0.8601
vn 0.2022 0.2951 0.9338
vn 0.2286 -0.0009 0.9735
vn 0.0000 0.2512 0.9679
vn 0.0000 0.7035 0.7106
vn 0.5895 0.6006 0.5402
vn 0.0000 0.0001 1.0000
vn 0.3276 -0.0037 0.9448
vn 0.2922 -0.0049 0.9563
vn 0.2705 -0.0062 0.9627
vn 0.8572 -0.3720 0.3562
vn 0.8337 -0.3639 0.4154
vn 0.8357 -0.2317 0.4979
vn 0.8740 -0.2287 0.4287
vn -1.0000 -0.0038 0.0000
vn -1.0000 0.0005 0.0000
vn -1.0000 0.0002 0.0000
vn -1.0000 -0.0012 0.0000
vn -1.0000 -0.0000 -0.0000
vn 0.1767 -0.0003 0.9843
vn 0.1828 -0.0003 0.9832
vn 0.1899 -0.0000 0.9818
vn 0.1765 -0.0006 0.9843
vn 0.1678 -0.0007 0.9858
vn 0.4945 0.1249 -0.8602
vn 0.2262 -0.0010 -0.9741
vn 0.2010 0.2939 -0.9345
vn -0.0002 0.2506 -0.9681
vn -0.0001 -0.0000 -1.0000
vn 0.3275 -0.0038 -0.9448
vn -0.0004 0.7022 -0.7120
vn 0.5871 0.6000 -0.5434
vn 0.2936 -0.0050 -0.9559
vn 0.2717 -0.0063 -0.9624
vn 0.8342 -0.2322 -0.5002
vn 0.8383 -0.3634 -0.4064
vn 0.8613 -0.3675 -0.3508
vn 0.8727 -0.2290 -0.4312
vn 0.8331 -0.3647 0.4159
vn 0.8568 -0.3724 0.3566
vn 0.8345 -0.5088 0.2114
vn 0.8132 -0.5820 -0.0044
vn 0.8190 -0.5119 -0.2591
vn 0.8402 -0.5009 -0.2076
vn 0.8604 -0.3678 -0.3528
vn 0.8367 -0.3640 -0.4093
vn 0.8855 0.2498 -0.3918
vn 0.2029 0.2937 -0.9341
vn 0.5886 0.5994 -0.5424
vn 0.4954 0.1247 -0.8597
vn 0.9050 -0.0158 -0.4252
vn 0.2254 -0.0009 -0.9743
vn 0.8906 -0.0094 -0.4547
vn 0.3286 -0.0037 -0.9445
vn 0.9014 -0.0014 -0.4330
vn 0.2931 -0.0050 -0.9561
vn 0.9174 -0.0327 -0.3966
vn 0.2693 -0.0063 -0.9630
vn 0.8861 0.2506 0.3899
vn 0.5917 0.5991 0.5394
vn 0.2048 0.2945 0.9334
vn 0.5001 0.1252 0.8569
vn 0.9057 -0.0171 0.4236
vn 0.2292 -0.0009 0.9734
vn 0.8906 -0.0088 0.4547
vn 0.3272 -0.0037 0.9449
vn 0.8999 -0.0012 0.4361
vn 0.2897 -0.0049 0.9571
vn 0.9188 -0.0326 0.3933
vn 0.2722 -0.0062 0.9622
vn 0.0001 1.0000 0.0005
vn -0.0000 1.0000 0.0003
vn -0.0000 1.0000 -0.0000
vn 0.0000 1.0000 0.0001
vn 0.0000 1.0000 -0.0001
vn 0.0001 1.0000 -0.0005
usemtl t1/levels/hunter-city/hotel/service-area/other-props/monitor-wo
s 1
f 1/1/1 2/2/2 3/3/3
f 1/1/1 4/4/4 2/2/2
f 5/5/5 2/2/2 4/4/4
f 4/4/4 1/1/1 6/6/6
f 1/1/1 7/7/7 6/6/6
f 1/1/1 8/8/8 7/7/7
f 4/4/4 6/6/6 9/9/9
f 5/5/5 4/4/4 10/10/10
f 9/9/9 11/11/11 4/4/4
f 11/11/11 10/10/10 4/4/4
f 12/12/12 5/5/5 10/10/10
f 12/12/12 10/10/10 11/11/11
f 12/12/12 13/13/13 5/5/5
f 14/14/14 12/12/12 11/11/11
f 13/13/13 12/12/12 15/15/15
f 12/12/12 16/16/16 15/15/15
f 12/12/12 14/14/14 16/16/16
f 13/13/13 15/15/15 17/17/17
f 15/15/15 16/16/16 18/18/18
f 15/15/15 18/18/18 19/19/19
f 18/18/18 20/20/20 19/19/19
f 21/21/21 20/20/20 18/18/18
f 22/22/22 21/21/21 18/18/18
f 22/22/22 18/18/18 23/23/23
f 21/21/21 22/22/22 24/24/24
f 21/21/21 24/24/24 25/25/25
f 21/21/21 25/25/25 26/26/26
f 26/26/26 20/20/20 21/21/21
f 27/27/27 20/20/20 26/26/26
f 20/20/20 27/27/27 28/28/28
f 19/19/19 20/20/20 28/28/28
f 19/19/19 28/28/28 29/29/29
f 19/19/19 29/29/29 30/30/30
f 24/24/24 31/31/31 25/25/25
f 32/32/32 25/25/25 31/31/31
f 25/25/25 32/32/32 26/26/26
f 24/24/24 33/33/33 31/31/31
f 34/34/34 26/26/26 32/32/32
f 35/35/35 27/27/27 26/26/26
f 34/34/34 35/35/35 26/26/26
f 35/35/35 36/36/36 27/27/27
f 28/28/28 27/27/27 36/36/36
f 28/28/28 36/36/36 37/37/37
f 28/28/28 37/37/37 29/29/29
f 37/37/37 38/38/38 29/29/29
f 30/30/30 29/29/29 38/38/38
f 32/32/32 31/31/31 39/39/39
f 34/34/34 32/32/32 39/39/39
f 40/40/40 35/35/35 34/34/34
f 36/36/36 35/35/35 40/40/40
f 41/41/41 30/30/30 38/38/38
f 31/31/31 42/42/42 39/39/39
f 7/7/7 31/31/31 33/33/33
f 7/7/7 42/42/42 31/31/31
f 37/37/37 43/43/43 38/38/38
f 41/41/41 38/38/38 43/43/43
f 44/44/44 37/37/37 36/36/36
f 37/37/37 44/44/44 43/43/43
f 7/7/7 33/33/33 45/45/45
f 34/34/34 39/39/39 46/46/46
f 46/46/46 39/39/39 42/42/42
f 47/47/47 43/43/43 44/44/44
f 41/41/41 43/43/43 47/47/47
f 41/41/41 47/47/47 48/48/48
f 8/8/8 42/42/42 7/7/7
f 49/49/49 42/42/42 8/8/8
f 46/46/46 42/42/42 49/49/49
f 46/46/46 49/49/49 50/50/50
f 51/51/51 49/49/49 8/8/8
f 50/50/50 49/49/49 51/51/51
f 50/50/50 52/52/52 46/46/46
f 34/34/34 46/46/46 52/52/52
f 50/50/50 51/51/51 53/53/53
f 8/8/8 54/54/54 51/51/51
f 54/54/54 53/53/53 51/51/51
f 55/55/55 54/54/54 8/8/8
f 56/56/56 54/54/54 55/55/55
f 54/54/54 56/56/56 53/53/53
f 57/57/57 48/48/48 47/47/47
f 57/57/57 58/58/58 48/48/48
f 59/59/59 53/53/53 56/56/56
f 53/53/53 60/60/60 50/50/50
f 59/59/59 60/60/60 53/53/53
f 59/59/59 56/56/56 61/61/61
f 61/61/61 56/56/56 55/55/55
f 62/62/62 60/60/60 59/59/59
f 62/62/62 59/59/59 61/61/61
f 34/34/34 52/52/52 63/63/63
f 40/40/40 34/34/34 63/63/63
f 64/64/64 58/58/58 57/57/57
f 64/64/64 65/65/65 58/58/58
f 62/62/62 61/61/61 66/66/66
f 64/64/64 67/67/67 65/65/65
f 66/66/66 68/68/68 62/62/62
f 62/62/62 69/69/69 60/60/60
f 69/69/69 70/70/70 60/60/60
f 60/60/60 70/70/70 50/50/50
f 66/66/66 71/71/71 68/68/68
f 65/65/65 67/67/67 72/72/72
f 71/71/71 65/65/65 72/72/72
f 71/71/71 72/72/72 68/68/68
f 69/69/69 73/73/73 70/70/70
f 73/73/73 74/74/74 70/70/70
f 70/70/70 74/74/74 50/50/50
f 69/69/69 75/75/75 73/73/73
f 74/74/74 76/76/76 50/50/50
f 50/50/50 76/76/76 52/52/52
f 75/75/75 77/77/77 73/73/73
f 77/77/77 78/78/78 73/73/73
f 79/79/79 73/73/73 78/78/78
f 73/73/73 79/79/79 74/74/74
f 79/79/79 80/80/80 74/74/74
f 74/74/74 80/80/80 81/81/81
f 76/76/76 74/74/74 81/81/81
f 76/76/76 81/81/81 82/82/82
f 52/52/52 76/76/76 82/82/82
f 83/83/83 82/82/82 81/81/81
f 83/83/83 81/81/81 80/80/80
f 83/83/83 80/80/80 84/84/84
f 79/79/79 84/84/84 80/80/80
f 85/85/85 84/84/84 79/79/79
f 85/85/85 79/79/79 78/78/78
f 63/63/63 52/52/52 82/82/82
f 83/83/83 86/86/86 82/82/82
f 63/63/63 82/82/82 86/86/86
f 77/77/77 87/87/87 78/78/78
f 83/83/83 84/84/84 88/88/88
f 85/85/85 88/88/88 84/84/84
f 83/83/83 89/89/89 86/86/86
f 63/63/63 86/86/86 89/89/89
f 83/83/83 88/88/88 90/90/90
f 85/85/85 90/90/90 88/88/88
f 91/91/91 85/85/85 78/78/78
f 85/85/85 91/91/91 90/90/90
f 83/83/83 92/92/92 89/89/89
f 83/83/83 90/90/90 93/93/93
f 83/83/83 93/93/93 92/92/92
f 91/91/91 93/93/93 90/90/90
f 63/63/63 89/89/89 40/40/40
f 94/94/94 40/40/40 89/89/89
f 92/92/92 94/94/94 89/89/89
f 93/93/93 94/94/94 92/92/92
f 93/93/93 95/95/95 94/94/94
f 91/91/91 95/95/95 93/93/93
f 36/36/36 40/40/40 94/94/94
f 36/36/36 94/94/94 95/95/95
f 96/96/96 95/95/95 91/91/91
f 96/96/96 97/97/97 95/95/95
f 97/97/97 36/36/36 95/95/95
f 96/96/96 91/91/91 78/78/78
f 98/98/98 78/78/78 87/87/87
f 98/98/98 96/96/96 78/78/78
f 97/97/97 44/44/44 36/36/36
f 44/44/44 97/97/97 99/99/99
f 99/99/99 97/97/97 96/96/96
f 99/99/99 96/96/96 100/100/100
f 100/100/100 96/96/96 98/98/98
f 47/47/47 44/44/44 99/99/99
f 101/101/101 102/102/101 103/103/101
f 101/101/101 104/104/101 102/102/101
f 105/105/101 102/102/101 104/104/101
f 105/105/101 104/104/101 106/106/101
f 105/105/101 106/106/101 107/107/101
f 107/107/101 106/106/101 108/108/101
f 107/107/101 108/108/101 109/109/101
f 110/110/102 111/111/102 112/112/103
f 110/110/102 112/112/103 113/113/104
f 113/113/104 112/112/103 114/114/105
f 112/112/103 115/115/106 114/114/105
f 116/116/107 114/114/105 115/115/106
f 116/116/107 115/115/106 117/117/108
f 118/118/109 116/116/107 117/117/108
f 118/118/109 117/117/108 119/119/110
f 120/120/111 121/121/101 122/122/112
f 121/121/101 123/123/101 122/122/112
f 121/121/101 124/124/101 123/123/101
f 124/124/101 125/125/101 123/123/101
f 126/126/101 125/125/101 124/124/101
f 127/127/101 126/126/101 124/124/101
f 128/128/101 126/126/101 127/127/101
f 128/128/101 129/129/101 126/126/101
f 130/130/113 131/131/114 132/132/115
f 131/131/114 130/130/113 133/133/116
f 134/134/117 131/131/114 133/133/116
f 135/135/118 136/136/119 137/137/120
f 135/135/118 137/137/120 138/138/121
f 138/138/121 139/139/122 135/135/118
f 138/138/121 140/140/123 139/139/122
f 139/139/122 140/140/123 141/141/124
f 139/139/122 141/141/124 142/142/125
f 142/142/125 141/141/124 143/143/126
f 142/142/125 143/143/126 144/144/127
f 145/145/128 146/146/129 147/147/130
f 146/146/129 148/148/131 147/147/130
f 148/148/131 146/146/129 149/149/132
f 146/146/129 150/150/133 149/149/132
f 147/147/130 148/148/131 151/151/134
f 151/151/134 152/152/135 147/147/130
f 153/153/136 152/152/135 151/151/134
f 154/154/137 153/153/136 151/151/134
f 155/155/138 156/156/139 157/157/140
f 155/155/138 157/157/140 158/158/141
f 159/159/142 160/160/143 161/161/144
f 162/162/145 159/159/142 161/161/144
f 162/162/145 161/161/144 163/163/146
f 161/161/144 164/164/146 163/163/146
f 165/165/147 166/166/148 167/167/149
f 165/165/147 168/168/150 166/166/148
f 165/165/147 169/169/151 168/168/150
f 170/170/152 171/171/153 172/172/154
f 171/171/153 173/173/155 172/172/154
f 173/173/155 171/171/153 174/174/156
f 171/171/153 175/175/157 174/174/156
f 173/173/155 176/176/158 172/172/154
f 176/176/158 177/177/159 172/172/154
f 174/174/156 175/175/157 178/178/160
f 178/178/160 179/179/161 174/174/156
f 180/180/162 181/181/163 182/182/164
f 180/180/162 182/182/164 183/183/165
f 184/184/77 185/185/166 186/186/167
f 184/184/77 186/186/167 187/187/168
f 188/188/67 184/184/77 187/187/168
f 188/188/67 189/189/169 184/184/77
f 190/190/170 189/189/169 188/188/67
f 190/190/170 188/188/67 191/191/171
f 190/190/170 191/191/171 192/192/172
f 190/190/170 192/192/172 193/193/173
f 194/194/174 195/195/175 196/196/176
f 194/194/174 197/197/177 195/195/175
f 198/198/178 197/197/177 194/194/174
f 198/198/178 199/199/179 197/197/177
f 200/200/180 199/199/179 198/198/178
f 200/200/180 201/201/181 199/199/179
f 202/202/182 201/201/181 200/200/180
f 202/202/182 203/203/183 201/201/181
f 204/204/184 203/203/183 202/202/182
f 204/204/184 205/205/185 203/203/183
f 206/206/186 207/207/187 208/208/188
f 206/206/186 208/208/188 209/209/189
f 210/210/190 206/206/186 209/209/189
f 210/210/190 209/209/189 211/211/191
f 211/211/191 212/212/192 210/210/190
f 211/211/191 213/213/193 212/212/192
f 213/213/193 214/214/194 212/212/192
f 213/213/193 215/215/195 214/214/194
f 216/216/196 214/214/194 215/215/195
f 216/216/196 215/215/195 217/217/197
f 218/218/198 219/219/199 220/220/200
f 218/218/198 221/221/201 219/219/199
f 219/219/199 221/221/201 222/222/201
f 222/222/201 221/221/201 223/223/202
f 222/222/201 223/223/202 224/224/203
