# Blender v2.78 (sub 0) OBJ File: ''
# www.blender.org
mtllib documents 9.mtl
o item_document_01Shape_item_document_01Shape.mesh
v 0.110057 0.003735 0.015369
v 0.110057 0.003735 -0.015369
v 0.111667 0.001476 0.000000
v 0.110057 0.055601 -0.015370
v 0.110057 0.055601 0.015368
v 0.111667 0.057859 -0.000001
v 0.150738 0.057859 -0.000001
v 0.150738 0.001476 0.000000
v 0.148596 0.003735 -0.015369
v 0.148596 0.055601 -0.015370
v 0.148596 0.003735 0.015369
v 0.148596 0.055601 0.015368
v -0.149379 0.055601 0.211525
v -0.149379 0.055601 -0.211527
v -0.154535 0.029617 -0.211526
v -0.154535 0.029617 0.211526
v -0.149379 0.003735 0.211526
v -0.149379 0.003735 -0.211526
v 0.148597 0.055601 -0.211527
v 0.148597 0.055601 0.211525
v 0.141807 0.029616 0.204736
v 0.141807 0.029617 -0.204737
v 0.148597 0.003735 -0.211526
v 0.148597 0.003735 0.211526
v -0.138657 0.029617 -0.204737
v -0.135931 0.029617 0.204736
vt 0.7497 0.9995
vt 0.7497 0.9276
vt 0.7470 0.9636
vt 0.7497 0.9276
vt 0.7497 0.9995
vt 0.7470 0.9636
vt 0.5899 0.7311
vt 0.5195 0.7311
vt 0.5195 0.6950
vt 0.5899 0.6950
vt 0.5163 0.7295
vt 0.5906 0.7295
vt 0.5906 0.6935
vt 0.5163 0.6935
vt 0.5163 0.7654
vt 0.5906 0.7654
vt 0.5899 0.7669
vt 0.5195 0.7669
vt 0.5163 0.7295
vt 0.5906 0.7295
vt 0.5906 0.7654
vt 0.5163 0.7654
vt 0.5163 0.6935
vt 0.5906 0.6935
vt 0.4991 0.3001
vt 0.9997 0.3001
vt 0.9997 0.3362
vt 0.4994 0.3362
vt 0.4994 0.3718
vt 0.9997 0.3718
vt 0.9997 1.0009
vt 0.5021 1.0009
vt 0.5021 0.9683
vt 0.9997 0.9683
vt 0.9997 0.9357
vt 0.5021 0.9357
vt 0.9997 0.5680
vt 0.9997 0.9351
vt 0.4991 0.9351
vt 0.4991 0.5680
vt 0.4991 0.5680
vt 0.9997 0.5680
vt 0.9997 0.9351
vt 0.4991 0.9351
vt 0.9837 0.9634
vt 0.9934 0.9276
vt 0.9972 0.9634
vt 0.9934 0.9991
vt 0.7498 0.9991
vt 0.7498 0.9634
vt 0.7498 0.9276
vt 0.9837 0.9634
vt 0.9972 0.9634
vt 0.9934 0.9276
vt 0.7498 0.9276
vt 0.7498 0.9634
vt 0.7498 0.9991
vt 0.9934 0.9991
vn -0.8143 -0.5804 -0.0000
vn -0.8142 0.5806 0.0000
vn 0.9904 -0.0000 -0.1380
vn 0.0000 -0.9894 -0.1454
vn 0.0000 -0.9894 0.1454
vn 0.9904 0.0000 0.1380
vn 0.0000 0.9894 0.1454
vn 0.0000 0.9894 -0.1454
vn -0.9809 0.1946 0.0000
vn -1.0000 -0.0004 -0.0000
vn -0.9807 -0.1954 -0.0000
vn 0.9675 -0.2528 -0.0000
vn 1.0000 0.0006 -0.0000
vn 1.0000 0.0005 0.0000
vn 0.9673 0.2538 0.0000
vn 0.0000 1.0000 0.0000
vn 0.0000 -1.0000 -0.0000
vn 0.1491 0.0004 -0.9888
vn 0.1387 0.1971 -0.9705
vn 0.3931 0.0001 -0.9195
vn 0.1383 -0.1966 -0.9707
vn 0.0000 -0.2528 -0.9675
vn 0.0000 0.0005 -1.0000
vn 0.0000 0.2537 -0.9673
vn 0.1206 0.0004 0.9927
vn 0.3429 0.0001 0.9394
vn 0.1360 0.1847 0.9733
vn 0.0000 0.2538 0.9673
vn 0.0000 0.0006 1.0000
vn -0.0000 -0.2528 0.9675
vn 0.1356 -0.1842 0.9735
usemtl item_document_01_S
s off
f 1/1/1 2/2/1 3/3/1
f 4/4/2 5/5/2 6/6/2
s 1
f 7/7/3 8/8/3 9/9/3
f 9/9/3 10/10/3 7/7/3
f 8/11/4 3/12/4 2/13/4
f 2/13/4 9/14/4 8/11/4
f 3/12/5 8/11/5 11/15/5
f 11/15/5 1/16/5 3/12/5
f 8/8/6 7/7/6 12/17/6
f 12/17/6 11/18/6 8/8/6
f 7/19/7 6/20/7 5/21/7
f 5/21/7 12/22/7 7/19/7
f 6/20/8 7/19/8 10/23/8
f 10/23/8 4/24/8 6/20/8
f 13/25/9 14/26/9 15/27/10
f 15/27/10 16/28/10 13/25/9
f 17/29/11 16/28/10 15/27/10
f 15/27/10 18/30/11 17/29/11
f 19/31/12 20/32/12 21/33/13
f 21/33/13 22/34/14 19/31/12
f 23/35/15 22/34/14 21/33/13
f 21/33/13 24/36/15 23/35/15
f 19/37/16 14/38/16 13/39/16
f 13/39/16 20/40/16 19/37/16
f 23/41/17 24/42/17 17/43/17
f 17/43/17 18/44/17 23/41/17
f 25/45/18 18/46/19 15/47/20
f 14/48/21 25/45/18 15/47/20
f 25/45/18 14/48/21 19/49/22
f 19/49/22 22/50/23 25/45/18
f 25/45/18 22/50/23 23/51/24
f 23/51/24 18/46/19 25/45/18
f 26/52/25 16/53/26 17/54/27
f 26/52/25 17/54/27 24/55/28
f 24/55/28 21/56/29 26/52/25
f 26/52/25 21/56/29 20/57/30
f 20/57/30 13/58/31 26/52/25
f 13/58/31 16/53/26 26/52/25