# 3ds Max Wavefront OBJ Exporter v0.97b - (c)2007 guruware
# File Created: 09.09.2015 16:52:41

#
# object rail
#

v  1.0058 -0.0000 7.5752
v  0.4978 -0.0000 7.5752
v  0.4978 0.0000 -7.5378
v  1.0058 0.0000 -7.5378
v  0.0550 -0.0000 7.5752
v  0.0550 0.0000 -7.5378
v  0.4868 0.9014 7.5752
v  0.0550 0.8955 7.5752
v  0.0550 0.7640 7.5752
v  0.4978 0.7655 7.5752
v  0.9232 0.8890 7.5752
v  0.4110 1.2700 7.5752
v  0.0550 1.7053 7.5752
v  0.2339 2.2262 7.5752
v  0.0550 2.2333 7.5752
v  0.0550 0.7671 -7.5378
v  0.4978 0.7587 -7.5378
v  1.0058 0.7620 -7.5378
v  0.0550 0.9219 -7.5378
v  0.0550 1.6510 -7.5378
v  0.4110 1.2700 -7.5378
v  0.4801 0.9188 -7.5378
v  1.0058 0.7620 7.5752
v  0.9318 0.8890 -7.5378
v  0.1758 2.5400 0.0187
v  0.4110 1.2700 0.0187
v  0.4110 1.2700 -6.2528
v  0.1758 2.5400 -6.2528
v  0.4110 1.2700 6.6862
v  0.4110 1.2700 6.3317
v  0.4110 1.2700 -6.6273
v  0.1765 2.5412 6.3320
v  0.2339 2.2262 6.6862
v  0.2308 2.2430 -6.6273
v  0.2296 2.2493 -7.5378
v  0.0550 2.2649 -7.5378
v  -0.9294 -0.0000 7.5752
v  -0.9294 0.0000 -7.5378
v  -0.4214 0.0000 -7.5378
v  -0.4214 -0.0000 7.5752
v  -0.4111 0.8976 7.5752
v  -0.4214 0.7673 7.5752
v  -0.3346 1.2700 7.5752
v  -0.8467 0.8890 7.5752
v  -0.1575 2.2262 7.5752
v  -0.4214 0.7647 -7.5378
v  -0.9294 0.7620 -7.5378
v  -0.4036 0.9193 -7.5378
v  -0.3346 1.2700 -7.5378
v  -0.9294 0.7620 7.5752
v  -0.8554 0.8890 -7.5378
v  -0.0993 2.5400 0.0187
v  -0.0993 2.5400 -6.2528
v  -0.3346 1.2700 -6.2528
v  -0.3346 1.2700 0.0187
v  -0.3346 1.2700 6.6862
v  -0.3346 1.2700 6.3317
v  -0.3346 1.2700 -6.6273
v  -0.1000 2.5412 6.3320
v  -0.1575 2.2262 6.6862
v  -0.1543 2.2430 -6.6273
v  -0.1532 2.2493 -7.5378
# 62 vertices

vn 0.0000 -1.0000 -0.0000
vn -0.0000 -1.0000 -0.0000
vn 0.0000 -0.0000 1.0000
vn 0.0000 0.0000 1.0000
vn -0.0000 -0.0001 1.0000
vn 0.0000 0.0000 -1.0000
vn -0.0000 0.0000 -1.0000
vn -0.0000 -0.0000 -1.0000
vn 0.0000 -0.0000 -1.0000
vn 1.0000 0.0000 -0.0000
vn 0.9654 0.2609 0.0003
vn 0.9587 0.2844 0.0000
vn 0.9833 0.1821 -0.0001
vn 0.8466 0.5322 -0.0000
vn 0.8466 0.5322 0.0000
vn 0.9833 0.1821 0.0000
vn 0.8487 0.5289 0.0002
vn 0.7290 0.6845 0.0002
vn 0.7430 0.6693 0.0003
vn 0.8467 0.5321 0.0001
vn 0.8468 0.5319 0.0000
vn 0.9834 0.1817 0.0006
vn 0.9833 0.1821 0.0016
vn -0.0000 -0.0000 1.0000
vn -0.0000 0.0000 1.0000
vn -1.0000 0.0000 -0.0000
vn -0.9587 0.2844 0.0000
vn -0.9654 0.2609 0.0003
vn -0.9833 0.1821 -0.0001
vn -0.9833 0.1821 0.0000
vn -0.8466 0.5322 0.0000
vn -0.8466 0.5322 -0.0000
vn -0.7430 0.6692 0.0003
vn -0.7290 0.6845 0.0002
vn -0.8487 0.5289 0.0002
vn -0.8467 0.5321 0.0001
vn -0.8468 0.5319 0.0000
vn -0.9834 0.1817 0.0006
vn -0.9833 0.1821 0.0016
vn 0.0000 0.9296 0.3685
vn 0.8587 -0.5124 -0.0000
vn -0.0000 0.9402 -0.3406
vn -0.0000 0.9296 0.3685
vn 0.0000 0.9402 -0.3406
vn -0.0043 1.0000 -0.0002
vn -0.0028 0.9412 0.3379
vn 0.0028 0.9412 0.3378
vn -0.0334 0.9994 0.0000
vn 0.0031 1.0000 -0.0011
vn 0.0059 0.9521 -0.3058
vn -0.0059 0.9520 -0.3060
vn 0.0889 0.9960 0.0068
vn 0.0071 0.9999 0.0091
vn -0.0746 0.9972 0.0068
vn 0.0397 0.9992 0.0000
# 55 vertex normals

vt 0.9975 0.7758 0.0000
vt 0.9975 0.7439 0.0000
vt 0.0027 0.7439 0.0000
vt 0.0027 0.7758 0.0000
vt 0.9975 0.7161 0.0000
vt 0.0027 0.7161 0.0000
vt 0.9209 0.5004 0.0000
vt 0.8928 0.5003 0.0000
vt 0.8930 0.4880 0.0000
vt 0.9219 0.4880 0.0000
vt 0.9548 0.4976 0.0000
vt 0.9171 0.6379 0.0000
vt 0.9227 0.5022 0.0000
vt 0.8909 0.7982 0.0000
vt 0.8909 0.5000 0.0000
vt 0.9041 0.9900 0.0000
vt 0.8909 0.9927 0.0000
vt 0.1049 0.4126 0.0000
vt 0.1047 0.4887 0.0000
vt 0.1334 0.4887 0.0000
vt 0.1336 0.4126 0.0000
vt 0.1662 0.4887 0.0000
vt 0.1665 0.4126 0.0000
vt 0.1027 0.5027 0.0000
vt 0.1027 0.7693 0.0000
vt 0.1274 0.6300 0.0000
vt 0.1322 0.5015 0.0000
vt 0.0000 0.4127 0.0000
vt 0.0000 0.4891 0.0000
vt 0.9986 0.4891 0.0000
vt 0.9979 0.4127 0.0000
vt 0.1635 0.4906 0.0000
vt 0.4998 0.9908 0.0000
vt 0.4996 0.6455 0.0000
vt 0.0867 0.6455 0.0000
vt 0.0867 0.9908 0.0000
vt 0.9972 0.6455 0.0000
vt 0.9982 0.5025 0.0000
vt 0.0000 0.5025 0.0000
vt 0.9386 0.6455 0.0000
vt 0.9153 0.6454 0.0000
vt 0.0621 0.6455 0.0000
vt 0.0021 0.6455 0.0000
vt 0.9550 0.4880 0.0000
vt 0.9493 0.5002 0.0000
vt 0.1320 0.5066 0.0000
vt 0.1612 0.5059 0.0000
vt 0.9156 0.9907 0.0000
vt 0.9389 0.9054 0.0000
vt 0.9974 0.9054 0.0000
vt 0.0621 0.9100 0.0000
vt 0.0021 0.9117 0.0000
vt 0.1148 0.9881 0.0000
vt 0.1027 0.9938 0.0000
vt 0.9975 0.6543 0.0000
vt 0.0027 0.6543 0.0000
vt 0.0027 0.6862 0.0000
vt 0.9975 0.6862 0.0000
vt 0.8625 0.5004 0.0000
vt 0.8619 0.4880 0.0000
vt 0.8567 0.5008 0.0000
vt 0.8623 0.6379 0.0000
vt 0.8246 0.4976 0.0000
vt 0.8753 0.9900 0.0000
vt 0.0740 0.4126 0.0000
vt 0.0739 0.4887 0.0000
vt 0.0411 0.4126 0.0000
vt 0.0411 0.4887 0.0000
vt 0.0709 0.5017 0.0000
vt 0.0757 0.6300 0.0000
vt 0.0396 0.4906 0.0000
vt 0.8342 0.5002 0.0000
vt 0.8288 0.4880 0.0000
vt 0.0459 0.5059 0.0000
vt 0.0750 0.5067 0.0000
vt 0.9117 0.7359 0.0000
vt 0.4962 0.7357 0.0000
vt 0.0835 0.7357 0.0000
vt 0.9117 0.6625 0.0000
vt 0.0835 0.6627 0.0000
vt 0.4962 0.6627 0.0000
vt 0.0883 0.9881 0.0000
vt 0.9371 0.6400 0.0000
vt 0.9371 0.7536 0.0000
vt 0.9135 0.7369 0.0000
vt 0.9135 0.6567 0.0000
vt 0.9963 0.6400 0.0000
vt 0.9963 0.7017 0.0000
vt 0.0825 0.7366 0.0000
vt 0.0592 0.7517 0.0000
vt 0.0592 0.6456 0.0000
vt 0.0825 0.6608 0.0000
vt 0.0026 0.7514 0.0000
vt 0.0026 0.7033 0.0000
vt 0.0026 0.6459 0.0000
vt 0.9963 0.7536 0.0000
vt 0.1046 0.5067 0.0000
vt 0.8296 0.4115 0.0000
vt 0.8625 0.4115 0.0000
vt 0.8934 0.4115 0.0000
vt 0.9221 0.4115 0.0000
vt 0.9550 0.4115 0.0000
# 102 texture coords

g rail
s 1
f 1/1/1 2/2/2 3/3/1 4/4/1 
f 2/2/2 5/5/2 6/6/1 3/3/1 
s 2
f 7/7/3 8/8/4 9/9/4 10/10/4 
f 11/11/5 12/12/4 7/13/3 
f 12/12/4 13/14/4 8/15/4 7/13/3 
f 14/16/4 15/17/4 13/14/4 12/12/4 
f 6/18/6 16/19/6 17/20/7 3/21/7 
f 3/21/7 17/20/7 18/22/7 4/23/6 
f 19/24/8 20/25/6 21/26/8 22/27/8 
f 19/24/8 22/27/8 19/24/9 
s 4
f 4/28/10 18/29/11 23/30/12 1/31/10 
s 2
f 21/26/8 24/32/8 22/27/8 
s 4
f 25/33/13 26/34/14 27/35/15 28/36/16 
f 12/37/17 11/38/18 24/39/19 29/40/20 
f 30/41/21 29/40/20 24/39/19 26/34/14 
f 27/35/15 26/34/14 24/39/19 31/42/15 
f 21/43/15 31/42/15 24/39/19 
s 2
f 23/44/3 11/45/5 7/7/3 10/10/4 
f 17/20/7 22/46/8 24/47/8 18/22/7 
s 4
f 11/38/18 23/30/12 18/29/11 24/39/19 
f 32/48/22 33/49/23 29/40/20 30/41/21 
f 32/48/22 30/41/21 26/34/14 25/33/13 
f 12/37/17 29/40/20 33/49/23 14/50/16 
f 31/42/15 34/51/16 28/36/16 27/35/15 
f 31/42/15 21/43/15 35/52/16 34/51/16 
s 2
f 35/53/6 21/26/8 20/25/6 36/54/6 
s 1
f 37/55/1 38/56/1 39/57/2 40/58/1 
f 40/58/1 39/57/2 6/6/1 5/5/2 
s 2
f 8/8/4 41/59/4 42/60/24 9/9/4 
f 41/61/4 43/62/25 44/63/5 
f 8/15/4 13/14/4 43/62/25 41/61/4 
f 45/64/25 43/62/25 13/14/4 15/17/4 
f 6/18/6 39/65/6 46/66/6 16/19/6 
f 39/65/6 38/67/6 47/68/6 46/66/6 
f 48/69/9 49/70/9 20/25/6 19/24/9 
f 20/25/6 19/24/8 19/24/9 
f 48/69/9 19/24/9 48/69/9 
s 4
f 38/28/26 37/31/26 50/30/27 47/29/28 
s 2
f 48/69/9 48/69/9 51/71/9 49/70/9 
s 4
f 52/33/29 53/36/30 54/35/31 55/34/32 
f 51/39/33 44/38/34 43/37/35 56/40/36 
f 51/39/33 56/40/36 57/41/37 55/34/32 
f 51/39/33 55/34/32 54/35/31 58/42/31 
f 49/43/31 51/39/33 58/42/31 
s 2
f 42/60/24 41/59/4 44/72/5 50/73/24 
f 51/74/9 48/75/9 46/66/6 47/68/6 
s 4
f 44/38/34 51/39/33 47/29/28 50/30/27 
f 59/48/38 52/33/29 55/34/32 57/41/37 
f 43/37/35 45/50/30 60/49/39 56/40/36 
f 59/48/38 57/41/37 56/40/36 60/49/39 
s 1
f 32/76/40 25/77/41 28/78/42 59/79/43 
f 28/78/42 53/80/44 52/81/45 59/79/43 
s 4
f 58/42/31 54/35/31 53/36/30 61/51/30 
f 58/42/31 61/51/30 62/52/30 49/43/31 
s 2
f 62/82/7 36/54/6 20/25/6 49/70/9 
s 1
f 60/83/46 33/84/47 32/85/40 59/86/43 
f 60/83/46 45/87/48 15/88/49 33/84/47 
f 28/89/42 34/90/50 61/91/51 53/92/44 
f 34/90/50 35/93/52 36/94/53 61/91/51 
f 36/94/53 62/95/54 61/91/51 
f 15/88/49 14/96/55 33/84/47 
s 2
f 22/46/8 17/20/7 16/19/6 19/97/9 
f 16/19/6 46/66/6 48/75/9 19/97/9 
f 37/98/25 40/99/4 42/60/24 50/73/24 
f 40/99/4 5/100/4 9/9/4 42/60/24 
f 5/100/4 2/101/4 10/10/4 9/9/4 
f 2/101/4 1/102/4 23/44/3 10/10/4 
# 57 polygons - 10 triangles

