# Blender v2.79 (sub 0) OBJ File: ''
# www.blender.org
mtllib dynamite.mtl
o Dynamite:0
v -0.020710 0.147993 -0.904249
v -0.111840 0.107612 -0.904249
v -0.020296 0.145316 0.833824
v -0.109773 0.105668 0.833824
v 0.077745 0.129611 0.833824
v 0.079142 0.131997 -0.904249
v 0.146900 0.064551 0.833824
v 0.149574 0.065736 -0.904249
v 0.160755 -0.025013 0.833824
v 0.163685 -0.025482 -0.904249
v 0.114018 -0.104870 0.833824
v 0.116085 -0.106814 -0.904249
v 0.024540 -0.144518 0.833824
v 0.024954 -0.147195 -0.904249
v -0.073500 -0.128812 0.833824
v -0.074897 -0.131199 -0.904249
v -0.142656 -0.063753 0.833824
v -0.145330 -0.064938 -0.904249
v -0.159441 0.026280 -0.904249
v -0.156511 0.025811 0.833824
v -0.109773 0.105668 0.833824
v -0.111840 0.107612 -0.904249
v 0.132315 0.058088 0.841446
v 0.102745 -0.094265 0.841446
v 0.144774 -0.022453 0.841446
v -0.073500 -0.128812 0.833824
v -0.065882 -0.115796 0.841446
v -0.142656 -0.063753 0.833824
v -0.128071 -0.057290 0.841446
v -0.156511 0.025811 0.833824
v -0.140530 0.023251 0.841446
v -0.109773 0.105668 0.833824
v -0.098501 0.095063 0.841446
v -0.020296 0.145316 0.833824
v -0.018038 0.130717 0.841446
v 0.077745 0.129611 0.833824
v 0.070126 0.116594 0.841446
v 0.146900 0.064551 0.833824
v 0.160755 -0.025013 0.833824
v 0.114018 -0.104870 0.833824
v 0.024540 -0.144518 0.833824
v 0.022282 -0.129919 0.841446
v -0.628339 -0.366308 -1.146082
v -0.635605 -0.349083 -1.143704
v -0.634065 -0.357816 -1.147365
v -0.632190 -0.342408 -1.136928
v -0.625181 -0.342942 -1.128130
v -0.624795 -0.341958 -1.128294
v -0.617326 -0.348127 -1.122331
v -0.616541 -0.347393 -1.122197
v -0.611721 -0.356899 -1.121227
v -0.610651 -0.356601 -1.121034
v -0.610425 -0.365776 -1.125159
v -0.609283 -0.365919 -1.125160
v -0.613838 -0.371310 -1.132505
v -0.612855 -0.371725 -1.132865
v -0.620647 -0.371466 -1.140445
v -0.619992 -0.371889 -1.141191
v -0.628065 -0.366483 -1.147107
v -0.634085 -0.357586 -1.148469
v -0.635723 -0.348427 -1.144645
v -0.632225 -0.343356 -1.136348
v -0.019154 0.006626 -1.023746
v -0.024730 0.004701 -0.916944
v -0.012268 0.018369 -1.023739
v -0.016819 0.018218 -0.916944
v -0.002194 0.014137 -1.155036
v -0.009247 0.002331 -1.154175
v -0.025506 0.009072 -1.276371
v -0.032402 -0.001791 -1.270864
v -0.082955 -0.008701 -1.365145
v -0.089070 -0.017551 -1.355988
v -0.156733 -0.049572 -1.417376
v -0.162797 -0.058415 -1.407007
v -0.233846 -0.095182 -1.443629
v -0.238144 -0.103793 -1.430798
v -0.317996 -0.156866 -1.444653
v -0.317751 -0.162229 -1.428212
v -0.436084 -0.235233 -1.371203
v -0.428193 -0.239578 -1.359152
v -0.528524 -0.286158 -1.261719
v -0.520323 -0.290852 -1.251514
v -0.624795 -0.341958 -1.128294
v -0.616541 -0.347393 -1.122197
v -0.513957 -0.300251 -1.248302
v -0.420165 -0.248535 -1.354878
v -0.314421 -0.172668 -1.419032
v -0.309731 -0.184334 -1.420739
v -0.414953 -0.258679 -1.359855
v -0.512256 -0.310714 -1.252525
v -0.236228 -0.116001 -1.424438
v -0.229065 -0.127240 -1.427125
v -0.219327 -0.133198 -1.437932
v -0.305380 -0.192686 -1.432718
v -0.413931 -0.266293 -1.372305
v -0.515473 -0.318016 -1.262151
v -0.160737 -0.070072 -1.401085
v -0.151384 -0.080088 -1.401945
v -0.138307 -0.084688 -1.409265
v -0.126454 -0.082132 -1.420184
v -0.210470 -0.131472 -1.452525
v -0.302499 -0.194459 -1.450254
v -0.417242 -0.268467 -1.387862
v -0.521874 -0.319579 -1.274208
v -0.087140 -0.029241 -1.350972
v -0.077876 -0.039291 -1.352090
v -0.064837 -0.043895 -1.358887
v -0.053045 -0.041308 -1.368611
v -0.046990 -0.032469 -1.377480
v -0.120354 -0.073392 -1.430440
v -0.205820 -0.122793 -1.465121
v -0.302036 -0.188935 -1.466583
v -0.424342 -0.264409 -1.400723
v -0.528951 -0.314966 -1.284794
v -0.031029 -0.014418 -1.269287
v -0.021841 -0.023946 -1.272385
v -0.008369 -0.026760 -1.279008
v 0.004149 -0.021839 -1.286469
v 0.010937 -0.011028 -1.291829
v 0.009470 0.001563 -1.293130
v -0.048972 -0.020762 -1.382252
v -0.122376 -0.061766 -1.436196
v -0.207359 -0.110452 -1.471120
v -0.304530 -0.178313 -1.475498
v -0.007245 -0.010692 -1.153643
v 0.003051 -0.019980 -1.153814
v 0.017710 -0.021973 -1.154556
v 0.031130 -0.015877 -1.155373
v 0.038180 -0.004013 -1.155890
v 0.036169 0.009058 -1.156082
v 0.025870 0.018319 -1.156045
v 0.000318 0.011144 -1.289995
v -0.058188 -0.010665 -1.381210
v -0.131726 -0.051669 -1.435350
v -0.017132 -0.006464 -1.023746
v -0.006974 -0.015901 -1.023739
v 0.007442 -0.018077 -1.023728
v 0.020609 -0.012161 -1.023715
v 0.027499 -0.000413 -1.023708
v 0.025477 0.012677 -1.023707
v 0.015315 0.022110 -1.023714
v 0.000898 0.024283 -1.023727
v 0.011218 0.020247 -1.155726
v -0.013030 0.014017 -1.283637
v -0.022385 -0.010460 -0.916944
v -0.010678 -0.021473 -0.916944
v 0.005917 -0.024131 -0.916944
v 0.021063 -0.017420 -0.916944
v 0.028974 -0.003902 -0.916944
v 0.026629 0.011258 -0.916944
v 0.014923 0.022271 -0.916944
v -0.001672 0.024929 -0.916944
v -0.016819 0.018218 -0.916944
v -0.012268 0.018369 -1.023739
v -0.002194 0.014137 -1.155036
v -0.025506 0.009072 -1.276371
v -0.071150 -0.006059 -1.374728
v -0.082955 -0.008701 -1.365145
v -0.144850 -0.046992 -1.428197
v -0.156733 -0.049572 -1.417376
v -0.224815 -0.093416 -1.457916
v -0.233846 -0.095182 -1.443629
v -0.314732 -0.158541 -1.461995
v -0.317996 -0.156866 -1.444653
v -0.440501 -0.237400 -1.386800
v -0.436084 -0.235233 -1.371203
v -0.534724 -0.287929 -1.275064
v -0.528524 -0.286158 -1.261719
v -0.214629 -0.099230 -1.468351
v -0.309456 -0.166696 -1.473789
v -0.439138 -0.245173 -1.399758
v -0.536704 -0.295479 -1.285780
v -0.432765 -0.255514 -1.405170
v -0.534373 -0.305812 -1.289386
v -0.624795 -0.341958 -1.128294
v -0.632190 -0.342408 -1.136928
v -0.635723 -0.348427 -1.144645
v -0.634085 -0.357586 -1.148469
v -0.628065 -0.366483 -1.147107
v -0.619992 -0.371889 -1.141191
v -0.612855 -0.371725 -1.132865
v -0.609283 -0.365919 -1.125160
v -0.610651 -0.356601 -1.121034
v 0.071745 0.119359 -0.916500
v -0.018517 0.133819 -0.916500
v 0.079142 0.131997 -0.904249
v -0.020710 0.147993 -0.904249
v -0.100896 0.097316 -0.916500
v -0.111840 0.107612 -0.904249
v 0.149574 0.065736 -0.904249
v 0.135414 0.059461 -0.916500
v 0.163685 -0.025482 -0.904249
v 0.148170 -0.022997 -0.916500
v 0.116085 -0.106814 -0.904249
v 0.105140 -0.096518 -0.916500
v 0.024954 -0.147195 -0.904249
v 0.022762 -0.133021 -0.916500
v -0.074897 -0.131199 -0.904249
v -0.067501 -0.118561 -0.916500
v -0.145330 -0.064938 -0.904249
v -0.131169 -0.058663 -0.916500
v -0.159441 0.026280 -0.904249
v -0.143925 0.023795 -0.916500
v -0.024730 0.004701 -0.916944
v -0.016819 0.018218 -0.916944
v -0.022385 -0.010460 -0.916944
v -0.010678 -0.021473 -0.916944
v 0.005917 -0.024131 -0.916944
v 0.021063 -0.017420 -0.916944
v 0.028974 -0.003902 -0.916944
v 0.026629 0.011258 -0.916944
v 0.014923 0.022271 -0.916944
v -0.001672 0.024929 -0.916944
vt 0.071992 0.964119
vt 0.018368 0.964119
vt 0.071992 0.036851
vt 0.018368 0.036851
vt 0.125616 0.036851
vt 0.125616 0.964119
vt 0.179241 0.036851
vt 0.179241 0.964119
vt 0.232865 0.036851
vt 0.232865 0.964119
vt 0.286490 0.036851
vt 0.286490 0.964119
vt 0.340113 0.036851
vt 0.340113 0.964119
vt 0.393738 0.036851
vt 0.393738 0.964119
vt 0.447362 0.036851
vt 0.447362 0.964119
vt 0.500987 0.964119
vt 0.500986 0.036851
vt 0.554610 0.036851
vt 0.554610 0.964119
vt 0.820642 0.260612
vt 0.820642 0.104183
vt 0.846055 0.182398
vt 0.667263 0.041668
vt 0.671870 0.055844
vt 0.593277 0.095422
vt 0.605336 0.104183
vt 0.565017 0.182398
vt 0.579923 0.182398
vt 0.593277 0.269374
vt 0.605336 0.260612
vt 0.667263 0.323128
vt 0.671870 0.308951
vt 0.758715 0.323128
vt 0.754109 0.308951
vt 0.832701 0.269374
vt 0.860962 0.182398
vt 0.832701 0.095422
vt 0.758715 0.041668
vt 0.754109 0.055844
vt 0.790543 0.945006
vt 0.813263 0.976278
vt 0.796823 0.964333
vt 0.834088 0.977826
vt 0.850025 0.964333
vt 0.851342 0.965290
vt 0.856305 0.945006
vt 0.857932 0.945006
vt 0.850025 0.925680
vt 0.851342 0.924723
vt 0.833585 0.913735
vt 0.834088 0.912187
vt 0.813263 0.913735
vt 0.812761 0.912187
vt 0.796823 0.925680
vt 0.795507 0.924723
vt 0.788916 0.945006
vt 0.795507 0.965290
vt 0.812761 0.977826
vt 0.833585 0.976278
vt 0.973926 0.101226
vt 0.973926 0.025927
vt 0.984046 0.101226
vt 0.984046 0.025927
vt 0.984046 0.204338
vt 0.973926 0.204338
vt 0.984046 0.305770
vt 0.973926 0.305770
vt 0.984046 0.401431
vt 0.973926 0.401431
vt 0.984046 0.488791
vt 0.973926 0.488791
vt 0.984046 0.572171
vt 0.973926 0.572171
vt 0.984046 0.654353
vt 0.973926 0.654353
vt 0.984046 0.739316
vt 0.973926 0.739316
vt 0.984046 0.830505
vt 0.973926 0.830505
vt 0.984046 0.961550
vt 0.973926 0.961550
vt 0.963805 0.830505
vt 0.963805 0.739316
vt 0.963805 0.654353
vt 0.953685 0.654353
vt 0.953685 0.739316
vt 0.953685 0.830505
vt 0.963805 0.572171
vt 0.953685 0.572171
vt 0.943564 0.572171
vt 0.943564 0.654353
vt 0.943564 0.739316
vt 0.943564 0.830505
vt 0.963805 0.488791
vt 0.953685 0.488791
vt 0.943564 0.488791
vt 0.933444 0.488791
vt 0.933444 0.572171
vt 0.933444 0.654353
vt 0.933444 0.739316
vt 0.933444 0.830505
vt 0.963805 0.401431
vt 0.953685 0.401431
vt 0.943564 0.401431
vt 0.933444 0.401431
vt 0.923323 0.401431
vt 0.923323 0.488791
vt 0.923323 0.572171
vt 0.923323 0.654353
vt 0.923323 0.739316
vt 0.923323 0.830505
vt 0.963805 0.305770
vt 0.953685 0.305770
vt 0.943564 0.305770
vt 0.933444 0.305770
vt 0.923323 0.305770
vt 0.913202 0.305770
vt 0.913202 0.401431
vt 0.913202 0.488791
vt 0.913202 0.572171
vt 0.913202 0.654353
vt 0.963805 0.204338
vt 0.953685 0.204338
vt 0.943564 0.204338
vt 0.933444 0.204338
vt 0.923323 0.204338
vt 0.913202 0.204338
vt 0.903082 0.204338
vt 0.903082 0.305770
vt 0.903082 0.401431
vt 0.903082 0.488791
vt 0.963805 0.101226
vt 0.953685 0.101226
vt 0.943564 0.101226
vt 0.933444 0.101226
vt 0.923323 0.101226
vt 0.913202 0.101226
vt 0.903082 0.101226
vt 0.892961 0.101226
vt 0.892961 0.204338
vt 0.892961 0.305770
vt 0.963805 0.025927
vt 0.953685 0.025927
vt 0.943564 0.025927
vt 0.933444 0.025927
vt 0.923323 0.025927
vt 0.913202 0.025927
vt 0.903082 0.025927
vt 0.892961 0.025927
vt 0.882841 0.025927
vt 0.882841 0.101226
vt 0.882841 0.204338
vt 0.882841 0.305770
vt 0.892961 0.401431
vt 0.882841 0.401431
vt 0.892961 0.488791
vt 0.882841 0.488791
vt 0.892961 0.572171
vt 0.882841 0.572171
vt 0.892961 0.654353
vt 0.882841 0.654353
vt 0.892961 0.739316
vt 0.882841 0.739316
vt 0.892961 0.830505
vt 0.882841 0.830505
vt 0.903082 0.572171
vt 0.903082 0.654353
vt 0.903082 0.739316
vt 0.903082 0.830505
vt 0.913203 0.739316
vt 0.913203 0.830505
vt 0.882841 0.961550
vt 0.892961 0.961550
vt 0.903082 0.961550
vt 0.913202 0.961550
vt 0.923323 0.961550
vt 0.933444 0.961550
vt 0.943564 0.961550
vt 0.953685 0.961550
vt 0.963805 0.961550
vt 0.658628 0.924746
vt 0.741297 0.924746
vt 0.654236 0.938261
vt 0.745688 0.938261
vt 0.808178 0.876154
vt 0.819675 0.884507
vt 0.580250 0.884507
vt 0.591747 0.876154
vt 0.551990 0.797531
vt 0.566200 0.797531
vt 0.580250 0.710555
vt 0.591747 0.718907
vt 0.654236 0.656801
vt 0.658628 0.670315
vt 0.745688 0.656801
vt 0.741297 0.670315
vt 0.819675 0.710555
vt 0.808178 0.718907
vt 0.847935 0.797531
vt 0.833724 0.797531
vt 0.725984 0.797531
vt 0.721014 0.812826
vt 0.721014 0.782236
vt 0.708003 0.772783
vt 0.691922 0.772783
vt 0.678911 0.782236
vt 0.673941 0.797531
vt 0.678911 0.812826
vt 0.691922 0.822278
vt 0.708003 0.822278
vn -0.1288 0.9917 0.0016
vn -0.4051 0.9142 0.0015
vn 0.4411 0.8974 0.0016
vn 0.8848 0.4659 0.0017
vn 0.9824 -0.1869 0.0017
vn 0.6662 -0.7457 0.0016
vn 0.6663 -0.7457 0.0016
vn 0.1288 -0.9917 0.0016
vn -0.4411 -0.8974 0.0016
vn -0.8848 -0.4659 0.0017
vn -0.9824 0.1869 0.0017
vn -0.8630 0.5051 0.0016
vn 0.2324 0.1276 0.9642
vn 0.1756 -0.2049 0.9629
vn 0.2576 -0.0511 0.9649
vn -0.2032 -0.4035 0.8921
vn -0.1166 -0.2473 0.9619
vn -0.3839 -0.1973 0.9020
vn -0.2324 -0.1276 0.9642
vn -0.4190 0.0778 0.9046
vn -0.2576 0.0511 0.9649
vn -0.2990 0.3266 0.8966
vn -0.1756 0.2049 0.9629
vn -0.0605 0.4546 0.8886
vn -0.0341 0.2738 0.9611
vn 0.2032 0.4035 0.8921
vn 0.1166 0.2473 0.9619
vn 0.3840 0.1973 0.9020
vn 0.4190 -0.0778 0.9046
vn 0.2990 -0.3266 0.8966
vn 0.0605 -0.4546 0.8886
vn 0.0341 -0.2738 0.9611
vn -0.7497 -0.6163 0.2409
vn -0.9250 -0.1461 0.3507
vn -0.8845 -0.4070 0.2279
vn -0.8553 0.2926 0.4275
vn -0.6743 0.0469 0.7370
vn -0.5856 0.3516 0.7303
vn -0.5090 -0.0640 0.8583
vn -0.3048 0.1549 0.9397
vn -0.3817 -0.2880 0.8782
vn -0.1142 -0.2161 0.9697
vn -0.3518 -0.5458 0.7605
vn -0.0750 -0.6062 0.7918
vn -0.4379 -0.7104 0.5510
vn -0.1917 -0.8614 0.4704
vn -0.5890 -0.7252 0.3565
vn -0.4230 -0.8957 0.1370
vn -0.7013 -0.7097 -0.0658
vn -0.9280 -0.3679 -0.0586
vn -0.9910 0.0113 0.1331
vn -0.8315 0.0237 0.5550
vn -0.9793 0.1918 -0.0640
vn -0.9823 0.1811 -0.0481
vn -0.8611 0.5049 -0.0593
vn -0.8625 0.5048 -0.0360
vn -0.8572 0.5141 0.0298
vn -0.9782 0.2015 0.0502
vn -0.7593 0.6027 0.2454
vn -0.8889 0.3208 0.3269
vn -0.6252 0.7237 0.2921
vn -0.7125 0.5110 0.4809
vn -0.5892 0.7512 0.2975
vn -0.6034 0.5733 0.5542
vn -0.5614 0.7618 0.3231
vn -0.5137 0.6214 0.5916
vn -0.5078 0.8157 0.2771
vn -0.3704 0.7656 0.5260
vn -0.1957 0.8786 0.4357
vn 0.0429 0.7888 0.6131
vn 0.0028 0.9105 0.4134
vn 0.2640 0.7813 0.5655
vn 0.1758 0.8476 0.5006
vn 0.4188 0.6713 0.6115
vn 0.6932 0.2432 0.6784
vn 0.5090 0.3005 0.8066
vn 0.0863 0.3389 0.9368
vn 0.4983 -0.3139 0.8082
vn 0.7138 -0.3536 0.6045
vn 0.7829 -0.4160 0.4626
vn -0.1912 0.1085 0.9755
vn 0.2037 -0.4572 0.8657
vn 0.4448 -0.7830 0.4347
vn 0.5989 -0.7078 0.3745
vn 0.6053 -0.7696 0.2029
vn 0.5508 -0.8289 0.0976
vn -0.4271 0.0053 0.9042
vn -0.0706 -0.5604 0.8252
vn 0.2703 -0.8566 0.4394
vn 0.5172 -0.8535 -0.0627
vn 0.5387 -0.8365 -0.1005
vn 0.5280 -0.8452 -0.0828
vn 0.3419 -0.9156 -0.2115
vn 0.1792 -0.9520 -0.2481
vn -0.6587 -0.1679 0.7334
vn -0.2799 -0.7424 0.6086
vn 0.1446 -0.9480 0.2835
vn 0.5129 -0.8509 -0.1133
vn 0.7486 -0.4209 -0.5122
vn 0.6230 -0.5321 -0.5734
vn 0.4883 -0.5847 -0.6478
vn 0.3227 -0.7477 -0.5802
vn -0.0382 -0.7900 -0.6118
vn -0.2708 -0.7974 -0.5392
vn -0.8262 -0.4126 0.3835
vn -0.3680 -0.8956 0.2499
vn 0.1460 -0.9878 0.0544
vn 0.6065 -0.7801 -0.1536
vn 0.9028 -0.2600 -0.3426
vn 0.8214 0.4086 -0.3977
vn 0.6656 0.2254 -0.7114
vn 0.4776 0.0513 -0.8771
vn 0.2460 -0.0382 -0.9685
vn -0.0146 -0.2998 -0.9539
vn -0.8720 -0.4846 0.0688
vn -0.3974 -0.9160 0.0540
vn 0.1699 -0.9852 0.0210
vn 0.6810 -0.7321 -0.0175
vn 0.9814 -0.1851 -0.0517
vn 0.8834 0.4635 -0.0688
vn 0.4370 0.8973 -0.0622
vn 0.4093 0.8672 -0.2833
vn 0.3081 0.7305 -0.6095
vn 0.1228 0.5824 -0.8036
vn -0.8855 -0.4610 -0.0570
vn -0.4402 -0.8972 -0.0343
vn 0.1313 -0.9913 -0.0072
vn 0.6670 -0.7448 0.0177
vn 0.9825 -0.1830 0.0327
vn 0.8791 0.4758 0.0271
vn 0.4271 0.9042 0.0039
vn -0.1403 0.9898 -0.0251
vn -0.1248 0.9916 -0.0345
vn -0.0881 0.9920 -0.0905
vn -0.8822 -0.4669 -0.0609
vn -0.4414 -0.8952 -0.0616
vn 0.1252 -0.9907 -0.0538
vn 0.6616 -0.7488 -0.0393
vn 0.9810 -0.1930 -0.0199
vn 0.8864 0.4628 -0.0034
vn 0.4402 0.8979 0.0007
vn -0.1333 0.9910 -0.0086
vn -0.4054 0.9140 -0.0154
vn -0.4097 0.9114 -0.0374
vn -0.4131 0.9106 -0.0132
vn -0.3510 0.9361 0.0234
vn -0.1025 0.9417 -0.3204
vn -0.3103 0.9428 -0.1216
vn -0.2394 0.8536 -0.4627
vn -0.4006 0.8890 -0.2219
vn -0.4114 0.7794 -0.4725
vn -0.5213 0.8235 -0.2236
vn -0.5820 0.6758 -0.4523
vn -0.5903 0.7866 -0.1809
vn -0.6453 0.7285 -0.2297
vn -0.4931 0.8697 0.0210
vn -0.5988 0.7912 -0.1242
vn -0.4090 0.9096 0.0730
vn -0.1192 0.4984 -0.8587
vn -0.3905 0.3038 -0.8690
vn -0.7128 0.2834 -0.6416
vn -0.8054 0.3400 -0.4855
vn -0.4710 -0.3239 -0.8205
vn -0.6819 -0.3048 -0.6648
vn -0.2804 0.9407 0.1911
vn -0.4854 0.8742 0.0125
vn -0.8058 0.4426 -0.3934
vn -0.7599 -0.2145 -0.6136
vn -0.4166 -0.7144 -0.5621
vn 0.0441 -0.9431 -0.3295
vn 0.5178 -0.8544 0.0426
vn 0.8000 -0.4158 0.4324
vn 0.7429 0.1789 0.6451
vn 0.1710 0.3597 -0.9172
vn -0.0500 0.3979 -0.9160
vn 0.2883 0.5741 -0.7663
vn -0.0854 0.6439 -0.7603
vn -0.2579 0.2985 -0.9189
vn -0.4268 0.4675 -0.7741
vn 0.5520 0.2845 -0.7838
vn 0.3419 0.1863 -0.9210
vn 0.6046 -0.1126 -0.7885
vn 0.3794 -0.0747 -0.9222
vn 0.4268 -0.4675 -0.7741
vn 0.2579 -0.2985 -0.9189
vn 0.0854 -0.6439 -0.7603
vn 0.0500 -0.3979 -0.9160
vn -0.2883 -0.5741 -0.7663
vn -0.1710 -0.3597 -0.9172
vn -0.5520 -0.2845 -0.7838
vn -0.3419 -0.1863 -0.9210
vn -0.6046 0.1126 -0.7885
vn -0.3793 0.0747 -0.9222
vn -0.0036 0.0007 -1.0000
vn -0.0025 0.0029 -1.0000
vn -0.0033 -0.0018 -1.0000
vn -0.0017 -0.0036 -1.0000
vn 0.0005 -0.0040 -1.0000
vn 0.0025 -0.0029 -1.0000
vn 0.0036 -0.0007 -1.0000
vn 0.0033 0.0018 -1.0000
vn 0.0017 0.0036 -1.0000
vn -0.0005 0.0040 -1.0000
usemtl noname.06
s 1
f 1/1/1 2/2/2 3/3/1
f 2/2/2 4/4/2 3/3/1
f 3/3/1 5/5/3 1/1/1
f 1/1/1 5/5/3 6/6/3
f 5/5/3 7/7/4 6/6/3
f 6/6/3 7/7/4 8/8/4
f 7/7/4 9/9/5 8/8/4
f 8/8/4 9/9/5 10/10/5
f 9/9/5 11/11/6 10/10/5
f 10/10/5 11/11/6 12/12/7
f 11/11/6 13/13/8 12/12/7
f 12/12/7 13/13/8 14/14/8
f 13/13/8 15/15/9 14/14/8
f 14/14/8 15/15/9 16/16/9
f 15/15/9 17/17/10 16/16/9
f 16/16/9 17/17/10 18/18/10
f 18/18/10 17/17/10 19/19/11
f 17/17/10 20/20/11 19/19/11
f 20/20/11 21/21/12 19/19/11
f 21/21/12 22/22/12 19/19/11
f 23/23/13 24/24/14 25/25/15
f 26/26/16 27/27/17 28/28/18
f 27/27/17 29/29/19 28/28/18
f 28/28/18 29/29/19 30/30/20
f 29/29/19 31/31/21 30/30/20
f 30/30/20 31/31/21 32/32/22
f 31/31/21 33/33/23 32/32/22
f 32/32/22 33/33/23 34/34/24
f 33/33/23 35/35/25 34/34/24
f 34/34/24 35/35/25 36/36/26
f 35/35/25 37/37/27 36/36/26
f 36/36/26 37/37/27 38/38/28
f 37/37/27 23/23/13 38/38/28
f 38/38/28 23/23/13 39/39/29
f 23/23/13 25/25/15 39/39/29
f 39/39/29 25/25/15 40/40/30
f 25/25/15 24/24/14 40/40/30
f 40/40/30 24/24/14 41/41/31
f 24/24/14 42/42/32 41/41/31
f 41/41/31 42/42/32 26/26/16
f 26/26/16 42/42/32 27/27/17
f 42/42/32 24/24/14 27/27/17
f 27/27/17 24/24/14 31/31/21
f 24/24/14 23/23/13 31/31/21
f 31/31/21 23/23/13 35/35/25
f 23/23/13 37/37/27 35/35/25
f 31/31/21 35/35/25 33/33/23
f 31/31/21 29/29/19 27/27/17
f 43/43/33 44/44/34 45/45/35
f 46/46/36 47/47/37 48/48/38
f 47/47/37 49/49/39 48/48/38
f 48/48/38 49/49/39 50/50/40
f 49/49/39 51/51/41 50/50/40
f 50/50/40 51/51/41 52/52/42
f 51/51/41 53/53/43 52/52/42
f 52/52/42 53/53/43 54/54/44
f 53/53/43 55/55/45 54/54/44
f 54/54/44 55/55/45 56/56/46
f 55/55/45 57/57/47 56/56/46
f 56/56/46 57/57/47 58/58/48
f 57/57/47 43/43/33 58/58/48
f 58/58/48 43/43/33 59/59/49
f 43/43/33 45/45/35 59/59/49
f 59/59/49 45/45/35 60/60/50
f 45/45/35 44/44/34 60/60/50
f 60/60/50 44/44/34 61/61/51
f 44/44/34 62/62/52 61/61/51
f 61/61/51 62/62/52 46/46/36
f 46/46/36 62/62/52 47/47/37
f 62/62/52 44/44/34 47/47/37
f 47/47/37 44/44/34 51/51/41
f 44/44/34 43/43/33 51/51/41
f 51/51/41 43/43/33 55/55/45
f 43/43/33 57/57/47 55/55/45
f 51/51/41 55/55/45 53/53/43
f 51/51/41 49/49/39 47/47/37
f 63/63/53 64/64/54 65/65/55
f 64/64/54 66/66/56 65/65/55
f 65/65/55 67/67/57 63/63/53
f 63/63/53 67/67/57 68/68/58
f 67/67/57 69/69/59 68/68/58
f 68/68/58 69/69/59 70/70/60
f 69/69/59 71/71/61 70/70/60
f 70/70/60 71/71/61 72/72/62
f 71/71/61 73/73/63 72/72/62
f 72/72/62 73/73/63 74/74/64
f 73/73/63 75/75/65 74/74/64
f 74/74/64 75/75/65 76/76/66
f 75/75/65 77/77/67 76/76/66
f 76/76/66 77/77/67 78/78/68
f 77/77/67 79/79/69 78/78/68
f 78/78/68 79/79/69 80/80/70
f 79/79/69 81/81/71 80/80/70
f 80/80/70 81/81/71 82/82/72
f 81/81/71 83/83/73 82/82/72
f 83/83/73 84/84/74 82/82/72
f 85/85/75 86/86/76 82/82/72
f 86/86/76 80/80/70 82/82/72
f 78/78/68 80/80/70 87/87/77
f 80/80/70 86/86/76 87/87/77
f 87/87/77 86/86/76 88/88/78
f 88/88/78 86/86/76 89/89/79
f 86/86/76 85/85/75 89/89/79
f 89/89/79 85/85/75 90/90/80
f 76/76/66 78/78/68 91/91/81
f 78/78/68 87/87/77 91/91/81
f 91/91/81 87/87/77 92/92/82
f 87/87/77 88/88/78 92/92/82
f 92/92/82 88/88/78 93/93/83
f 93/93/83 88/88/78 94/94/84
f 88/88/78 89/89/79 94/94/84
f 94/94/84 89/89/79 95/95/85
f 89/89/79 90/90/80 95/95/85
f 95/95/85 90/90/80 96/96/86
f 74/74/64 76/76/66 97/97/87
f 76/76/66 91/91/81 97/97/87
f 97/97/87 91/91/81 98/98/88
f 91/91/81 92/92/82 98/98/88
f 98/98/88 92/92/82 99/99/89
f 92/92/82 93/93/83 99/99/89
f 99/99/89 93/93/83 100/100/90
f 100/100/90 93/93/83 101/101/91
f 93/93/83 94/94/84 101/101/91
f 101/101/91 94/94/84 102/102/92
f 94/94/84 95/95/85 102/102/92
f 102/102/92 95/95/85 103/103/93
f 95/95/85 96/96/86 103/103/93
f 103/103/93 96/96/86 104/104/94
f 72/72/62 74/74/64 105/105/95
f 74/74/64 97/97/87 105/105/95
f 105/105/95 97/97/87 106/106/96
f 97/97/87 98/98/88 106/106/96
f 106/106/96 98/98/88 107/107/97
f 98/98/88 99/99/89 107/107/97
f 107/107/97 99/99/89 108/108/98
f 99/99/89 100/100/90 108/108/98
f 108/108/98 100/100/90 109/109/99
f 109/109/99 100/100/90 110/110/100
f 100/100/90 101/101/91 110/110/100
f 110/110/100 101/101/91 111/111/101
f 101/101/91 102/102/92 111/111/101
f 111/111/101 102/102/92 112/112/102
f 102/102/92 103/103/93 112/112/102
f 112/112/102 103/103/93 113/113/103
f 103/103/93 104/104/94 113/113/103
f 113/113/103 104/104/94 114/114/104
f 70/70/60 72/72/62 115/115/105
f 72/72/62 105/105/95 115/115/105
f 115/115/105 105/105/95 116/116/106
f 105/105/95 106/106/96 116/116/106
f 116/116/106 106/106/96 117/117/107
f 106/106/96 107/107/97 117/117/107
f 117/117/107 107/107/97 118/118/108
f 107/107/97 108/108/98 118/118/108
f 118/118/108 108/108/98 119/119/109
f 108/108/98 109/109/99 119/119/109
f 119/119/109 109/109/99 120/120/110
f 120/120/110 109/109/99 121/121/111
f 109/109/99 110/110/100 121/121/111
f 121/121/111 110/110/100 122/122/112
f 110/110/100 111/111/101 122/122/112
f 122/122/112 111/111/101 123/123/113
f 111/111/101 112/112/102 123/123/113
f 123/123/113 112/112/102 124/124/114
f 68/68/58 70/70/60 125/125/115
f 70/70/60 115/115/105 125/125/115
f 125/125/115 115/115/105 126/126/116
f 115/115/105 116/116/106 126/126/116
f 126/126/116 116/116/106 127/127/117
f 116/116/106 117/117/107 127/127/117
f 127/127/117 117/117/107 128/128/118
f 117/117/107 118/118/108 128/128/118
f 128/128/118 118/118/108 129/129/119
f 118/118/108 119/119/109 129/129/119
f 129/129/119 119/119/109 130/130/120
f 119/119/109 120/120/110 130/130/120
f 130/130/120 120/120/110 131/131/121
f 131/131/121 120/120/110 132/132/122
f 120/120/110 121/121/111 132/132/122
f 132/132/122 121/121/111 133/133/123
f 121/121/111 122/122/112 133/133/123
f 133/133/123 122/122/112 134/134/124
f 63/63/53 68/68/58 135/135/125
f 68/68/58 125/125/115 135/135/125
f 135/135/125 125/125/115 136/136/126
f 125/125/115 126/126/116 136/136/126
f 136/136/126 126/126/116 137/137/127
f 126/126/116 127/127/117 137/137/127
f 137/137/127 127/127/117 138/138/128
f 127/127/117 128/128/118 138/138/128
f 138/138/128 128/128/118 139/139/129
f 128/128/118 129/129/119 139/139/129
f 139/139/129 129/129/119 140/140/130
f 129/129/119 130/130/120 140/140/130
f 140/140/130 130/130/120 141/141/131
f 130/130/120 131/131/121 141/141/131
f 141/141/131 131/131/121 142/142/132
f 142/142/132 131/131/121 143/143/133
f 131/131/121 132/132/122 143/143/133
f 143/143/133 132/132/122 144/144/134
f 64/64/54 63/63/53 145/145/135
f 63/63/53 135/135/125 145/145/135
f 145/145/135 135/135/125 146/146/136
f 135/135/125 136/136/126 146/146/136
f 146/146/136 136/136/126 147/147/137
f 136/136/126 137/137/127 147/147/137
f 147/147/137 137/137/127 148/148/138
f 137/137/127 138/138/128 148/148/138
f 148/148/138 138/138/128 149/149/139
f 138/138/128 139/139/129 149/149/139
f 149/149/139 139/139/129 150/150/140
f 139/139/129 140/140/130 150/150/140
f 150/150/140 140/140/130 151/151/141
f 140/140/130 141/141/131 151/151/141
f 151/151/141 141/141/131 152/152/142
f 141/141/131 142/142/132 152/152/142
f 152/152/142 142/142/132 153/153/143
f 142/142/132 154/154/144 153/153/143
f 142/142/132 143/143/133 154/154/144
f 154/154/144 143/143/133 155/155/145
f 143/143/133 144/144/134 155/155/145
f 155/155/145 144/144/134 156/156/146
f 144/144/134 157/157/147 156/156/146
f 156/156/146 157/157/147 158/158/148
f 157/157/147 159/159/149 158/158/148
f 158/158/148 159/159/149 160/160/150
f 159/159/149 161/161/151 160/160/150
f 160/160/150 161/161/151 162/162/152
f 161/161/151 163/163/153 162/162/152
f 162/162/152 163/163/153 164/164/154
f 163/163/153 165/165/155 164/164/154
f 164/164/154 165/165/155 166/166/156
f 165/165/155 167/167/157 166/166/156
f 166/166/156 167/167/157 168/168/158
f 132/132/122 133/133/123 144/144/134
f 144/144/134 133/133/123 157/157/147
f 133/133/123 134/134/124 157/157/147
f 157/157/147 134/134/124 159/159/149
f 134/134/124 169/169/159 159/159/149
f 159/159/149 169/169/159 161/161/151
f 169/169/159 170/170/160 161/161/151
f 161/161/151 170/170/160 163/163/153
f 170/170/160 171/171/161 163/163/153
f 163/163/153 171/171/161 165/165/155
f 171/171/161 172/172/162 165/165/155
f 165/165/155 172/172/162 167/167/157
f 122/122/112 123/123/113 134/134/124
f 134/134/124 123/123/113 169/169/159
f 123/123/113 124/124/114 169/169/159
f 169/169/159 124/124/114 170/170/160
f 124/124/114 173/173/163 170/170/160
f 170/170/160 173/173/163 171/171/161
f 173/173/163 174/174/164 171/171/161
f 171/171/161 174/174/164 172/172/162
f 175/175/165 168/168/158 176/176/166
f 168/168/158 167/167/157 176/176/166
f 176/176/166 167/167/157 177/177/167
f 167/167/157 172/172/162 177/177/167
f 177/177/167 172/172/162 178/178/168
f 172/172/162 174/174/164 178/178/168
f 178/178/168 174/174/164 179/179/169
f 174/174/164 114/114/104 179/179/169
f 179/179/169 114/114/104 180/180/170
f 114/114/104 104/104/94 180/180/170
f 180/180/170 104/104/94 181/181/171
f 104/104/94 96/96/86 181/181/171
f 181/181/171 96/96/86 182/182/172
f 96/96/86 90/90/80 182/182/172
f 182/182/172 90/90/80 183/183/173
f 90/90/80 85/85/75 183/183/173
f 183/183/173 85/85/75 84/84/74
f 85/85/75 82/82/72 84/84/74
f 174/174/164 173/173/163 114/114/104
f 114/114/104 173/173/163 113/113/103
f 173/173/163 124/124/114 113/113/103
f 124/124/114 112/112/102 113/113/103
f 184/184/174 185/185/175 186/186/176
f 186/186/176 185/185/175 187/187/177
f 185/185/175 188/188/178 187/187/177
f 187/187/177 188/188/178 189/189/179
f 186/186/176 190/190/180 184/184/174
f 184/184/174 190/190/180 191/191/181
f 190/190/180 192/192/182 191/191/181
f 191/191/181 192/192/182 193/193/183
f 192/192/182 194/194/184 193/193/183
f 193/193/183 194/194/184 195/195/185
f 194/194/184 196/196/186 195/195/185
f 195/195/185 196/196/186 197/197/187
f 196/196/186 198/198/188 197/197/187
f 197/197/187 198/198/188 199/199/189
f 198/198/188 200/200/190 199/199/189
f 199/199/189 200/200/190 201/201/191
f 200/200/190 202/202/192 201/201/191
f 201/201/191 202/202/192 203/203/193
f 202/202/192 189/189/179 203/203/193
f 189/189/179 188/188/178 203/203/193
f 203/203/193 188/188/178 204/204/194
f 188/188/178 205/205/195 204/204/194
f 204/204/194 206/206/196 203/203/193
f 203/203/193 206/206/196 201/201/191
f 206/206/196 207/207/197 201/201/191
f 201/201/191 207/207/197 199/199/189
f 207/207/197 208/208/198 199/199/189
f 199/199/189 208/208/198 197/197/187
f 208/208/198 209/209/199 197/197/187
f 197/197/187 209/209/199 195/195/185
f 209/209/199 210/210/200 195/195/185
f 195/195/185 210/210/200 193/193/183
f 210/210/200 211/211/201 193/193/183
f 193/193/183 211/211/201 191/191/181
f 211/211/201 212/212/202 191/191/181
f 191/191/181 212/212/202 184/184/174
f 212/212/202 213/213/203 184/184/174
f 184/184/174 213/213/203 185/185/175
f 213/213/203 205/205/195 185/185/175
f 205/205/195 188/188/178 185/185/175
o ##Lighter:0
v 0.106400 0.019949 0.020307
v 0.091799 0.000021 0.020307
v 0.094574 0.012743 0.020307
v 0.099701 -0.010764 0.020307
v 0.113651 -0.013295 0.020307
v 0.128252 0.006634 0.020307
v 0.120350 0.017419 0.020307
v 0.125477 -0.006088 0.020307
v -0.053334 0.032265 -0.004104
v -0.053334 0.032265 -0.103341
v 0.071027 0.032265 -0.004104
v 0.071027 0.032265 -0.103342
v 0.071027 -0.028948 -0.103342
v 0.071027 -0.028948 -0.004104
v 0.071027 0.032265 -0.103342
v 0.071027 0.032265 -0.004104
v -0.053334 0.032265 -0.103341
v -0.053334 0.032265 -0.004104
v -0.053334 -0.028948 -0.103342
v -0.053334 -0.028948 -0.004104
v 0.094574 0.012743 0.036159
v 0.094574 0.012743 0.020307
v 0.091799 0.000021 0.036159
v 0.091799 0.000021 0.020307
v 0.071027 -0.028948 -0.004104
v 0.071027 -0.028948 -0.103342
v -0.053334 -0.028948 -0.004104
v -0.053334 -0.028948 -0.103342
v -0.168114 -0.037168 0.035709
v 0.157639 -0.037168 0.035709
v -0.168113 -0.037168 0.329575
v 0.157634 -0.037272 0.329575
v -0.006958 -0.001463 -0.068874
v -0.006958 -0.001464 -0.003004
v -0.004745 0.008681 -0.068874
v -0.004745 0.008681 -0.003004
v -0.090172 0.021204 -0.001433
v -0.052546 0.020079 0.075546
v -0.085414 0.021204 0.005097
v -0.095985 0.021204 0.095791
v -0.128853 0.021204 0.025342
v -0.123734 0.021204 -0.001530
v -0.109301 0.021204 -0.008257
v -0.117160 0.021204 -0.006271
v -0.052546 0.020079 0.075546
v -0.052546 0.009836 0.075546
v -0.085414 0.009836 0.005097
v -0.090172 0.009836 -0.001433
v -0.098961 0.021204 -0.006974
v -0.098961 0.009836 -0.006974
v -0.109301 0.009836 -0.008257
v -0.117160 0.009836 -0.006271
v -0.123734 0.009836 -0.001530
v -0.129397 0.021204 0.007211
v -0.129397 0.009836 0.007211
v -0.130800 0.021204 0.017502
v -0.130800 0.009836 0.017502
v -0.128853 0.009836 0.025342
v -0.095985 0.021204 0.095791
v -0.095985 0.009836 0.095791
v -0.053334 -0.028948 -0.004104
v -0.053334 0.032265 -0.004104
v 0.071027 -0.028948 -0.004104
v 0.071027 0.032265 -0.004104
v -0.063228 -0.035389 0.036037
v -0.063228 -0.035388 -0.103338
v 0.080921 -0.035389 0.036037
v 0.080921 -0.035388 -0.103338
v -0.090172 -0.004324 -0.001433
v -0.052546 -0.005449 0.075546
v -0.085414 -0.004324 0.005097
v -0.095985 -0.004324 0.095791
v -0.128853 -0.004324 0.025342
v -0.123734 -0.004324 -0.001530
v -0.109301 -0.004324 -0.008257
v -0.117160 -0.004324 -0.006271
v -0.052546 -0.005449 0.075546
v -0.052546 -0.015692 0.075546
v -0.085414 -0.015692 0.005097
v -0.090172 -0.015692 -0.001433
v -0.098961 -0.004324 -0.006974
v -0.098961 -0.015692 -0.006974
v -0.109301 -0.015692 -0.008257
v -0.117160 -0.015692 -0.006271
v -0.123734 -0.015692 -0.001530
v -0.129397 -0.004324 0.007211
v -0.129397 -0.015692 0.007211
v -0.130800 -0.004324 0.017502
v -0.130800 -0.015692 0.017502
v -0.128853 -0.015692 0.025342
v -0.095985 -0.004324 0.095791
v -0.095985 -0.015692 0.095790
v -0.159134 -0.004223 0.042162
v -0.159134 0.009969 0.042162
v -0.167798 -0.004223 0.009844
v -0.167798 0.009969 0.009844
v -0.159134 -0.004223 0.042162
v -0.120256 -0.004223 0.031751
v -0.120256 0.009969 0.031751
v -0.128965 0.009969 -0.000736
v -0.167798 -0.004223 0.009844
v -0.128965 -0.004223 -0.000736
v -0.122756 0.009969 -0.006324
v -0.122756 -0.004223 -0.006324
v -0.115888 0.009969 -0.009454
v -0.115888 -0.004223 -0.009454
v -0.108375 0.009969 -0.010176
v -0.108375 -0.004223 -0.010176
v -0.100061 0.009969 -0.007912
v -0.100061 -0.004223 -0.007912
v -0.113065 0.009969 0.029825
v -0.105874 0.009969 0.027899
v -0.098683 0.009969 0.025974
v -0.113065 -0.004223 0.029825
v -0.105874 -0.004223 0.027899
v -0.098683 -0.004223 0.025974
v -0.091492 -0.004223 0.024048
v -0.091492 0.009969 0.024048
v -0.091492 -0.004223 0.024048
v -0.100061 -0.004223 -0.007912
v 0.157639 -0.037168 0.035709
v 0.157639 0.043591 0.035709
v 0.157634 -0.037272 0.329575
v 0.157636 0.043599 0.329575
v 0.157634 -0.037272 0.329575
v -0.168113 -0.037168 0.329575
v -0.168113 0.043591 0.329575
v -0.168114 0.043591 0.035709
v 0.157639 -0.037168 0.035709
v -0.168114 -0.037168 0.035709
v -0.168113 -0.037168 0.329575
v -0.168114 -0.037168 0.035709
v 0.080921 -0.035388 -0.103338
v 0.080921 0.038706 -0.103338
v 0.080921 -0.035389 0.036037
v 0.080921 0.038706 0.036037
v 0.080921 -0.035389 0.036037
v -0.063228 -0.035389 0.036037
v -0.063228 0.038706 0.036037
v -0.063228 0.038706 -0.103338
v 0.071027 0.032265 -0.103342
v -0.053334 0.032265 -0.103341
v -0.063228 -0.035388 -0.103338
v -0.053334 -0.028948 -0.103342
v 0.080921 -0.035388 -0.103338
v 0.071027 -0.028948 -0.103342
v -0.063228 -0.035389 0.036037
v -0.063228 -0.035388 -0.103338
v -0.000657 -0.010064 -0.068874
v -0.006958 -0.001463 -0.068874
v 0.010467 -0.012082 -0.068874
v 0.022110 0.003810 -0.068874
v 0.019898 -0.006335 -0.068874
v 0.015809 0.012410 -0.068874
v 0.004685 0.014428 -0.068874
v -0.004745 0.008681 -0.068874
v -0.098961 0.009836 -0.006974
v -0.090172 0.009836 -0.001433
v -0.109301 0.009836 -0.008257
v -0.129397 0.009836 0.007211
v -0.123734 0.009836 -0.001530
v -0.117160 0.009836 -0.006271
v -0.130800 0.009836 0.017502
v -0.128853 0.009836 0.025342
v -0.085414 0.009836 0.005097
v -0.052546 0.009836 0.075546
v -0.095985 0.009836 0.095791
v -0.098961 -0.015692 -0.006974
v -0.090172 -0.015692 -0.001433
v -0.109301 -0.015692 -0.008257
v -0.129397 -0.015692 0.007211
v -0.123734 -0.015692 -0.001530
v -0.117160 -0.015692 -0.006271
v -0.130800 -0.015692 0.017502
v -0.128853 -0.015692 0.025342
v -0.085414 -0.015692 0.005097
v -0.052546 -0.015692 0.075546
v -0.095985 -0.015692 0.095790
v -0.176102 -0.027636 0.029554
v -0.169568 -0.027636 0.025191
v -0.177635 -0.027636 0.037257
v -0.161861 -0.027636 0.026723
v -0.157496 -0.027636 0.033253
v -0.159029 -0.027636 0.040956
v -0.165562 -0.027636 0.045320
v -0.173269 -0.027636 0.043788
v -0.173269 0.032530 0.043788
v -0.165562 0.032530 0.045320
v -0.177635 0.032530 0.037257
v -0.159029 0.032530 0.040956
v -0.157496 0.032530 0.033254
v -0.161861 0.032530 0.026723
v -0.169568 0.032530 0.025191
v -0.176102 0.032530 0.029555
v 0.127505 -0.026412 -0.034512
v 0.131499 -0.026412 -0.024262
v 0.080579 -0.026412 -0.103059
v 0.131024 -0.026412 -0.009551
v 0.121425 -0.026412 0.001606
v 0.109594 -0.026412 0.004909
v 0.091193 -0.026412 0.004783
v 0.080579 -0.026412 0.004452
v 0.080579 0.027992 0.004452
v 0.091193 0.027992 0.004783
v 0.080579 0.027992 -0.103059
v 0.109594 0.027992 0.004909
v 0.121425 0.027992 0.001606
v 0.131024 0.027992 -0.009551
v 0.131499 0.027992 -0.024262
v 0.127505 0.027992 -0.034512
v -0.159134 -0.004223 0.042162
v -0.167798 -0.004223 0.009844
v -0.120256 -0.004223 0.031751
v -0.128965 -0.004223 -0.000736
v -0.113065 -0.004223 0.029825
v -0.122756 -0.004223 -0.006324
v -0.105874 -0.004223 0.027899
v -0.115888 -0.004223 -0.009454
v -0.108375 -0.004223 -0.010176
v -0.098683 -0.004223 0.025974
v -0.100061 -0.004223 -0.007912
v -0.091492 -0.004223 0.024048
v 0.137582 0.025161 -0.046687
v 0.137582 -0.023391 -0.046687
v 0.124847 0.025161 -0.055191
v 0.124847 -0.023391 -0.055192
v 0.109826 0.025161 -0.058178
v 0.109826 -0.023391 -0.058178
v 0.088437 0.025161 -0.050939
v 0.088437 -0.023391 -0.050939
v 0.072067 0.025161 -0.026453
v 0.072067 -0.023391 -0.026453
v 0.073561 0.025161 -0.003933
v 0.073561 -0.023391 -0.003933
v 0.146090 -0.023391 -0.033960
v 0.146090 0.025161 -0.033960
v 0.149078 -0.023391 -0.018946
v 0.149078 0.025161 -0.018946
v 0.146091 -0.023391 -0.003933
v 0.146091 0.025161 -0.003933
v 0.137582 -0.023391 0.008794
v 0.137582 0.025161 0.008794
v 0.124847 -0.023391 0.017299
v 0.124847 0.025161 0.017299
v 0.109826 -0.023391 0.020285
v 0.109826 0.025161 0.020285
v 0.094804 -0.023391 0.017299
v 0.094804 0.025161 0.017299
v 0.082070 -0.023391 0.008794
v 0.082070 0.025161 0.008794
v 0.073561 -0.023391 -0.003933
v 0.073561 0.025161 -0.003933
v 0.088437 -0.023391 -0.050939
v 0.109826 -0.023391 -0.058178
v 0.072067 -0.023391 -0.026453
v 0.124847 -0.023391 -0.055192
v 0.137582 -0.023391 -0.046687
v 0.146090 -0.023391 -0.033960
v 0.149078 -0.023391 -0.018946
v 0.146091 -0.023391 -0.003933
v 0.137582 -0.023391 0.008794
v 0.124847 -0.023391 0.017299
v 0.109826 -0.023391 0.020285
v 0.094804 -0.023391 0.017299
v 0.082070 -0.023391 0.008794
v 0.073561 -0.023391 -0.003933
v 0.073561 0.025161 -0.003933
v 0.082070 0.025161 0.008794
v 0.072067 0.025161 -0.026453
v 0.094804 0.025161 0.017299
v 0.109826 0.025161 0.020285
v 0.124847 0.025161 0.017299
v 0.137582 0.025161 0.008794
v 0.146091 0.025161 -0.003933
v 0.149078 0.025161 -0.018946
v 0.146090 0.025161 -0.033960
v 0.137582 0.025161 -0.046687
v 0.124847 0.025161 -0.055191
v 0.109826 0.025161 -0.058178
v 0.088437 0.025161 -0.050939
v 0.091799 0.000021 0.036159
v 0.091799 0.000021 0.020307
v 0.099701 -0.010764 0.036159
v 0.099701 -0.010764 0.020307
v 0.113651 -0.013295 0.036159
v 0.113651 -0.013295 0.020307
v 0.125477 -0.006088 0.036159
v 0.125477 -0.006088 0.020307
v 0.128252 0.006633 0.036159
v 0.128252 0.006634 0.020307
v 0.120350 0.017419 0.036159
v 0.120350 0.017419 0.020307
v 0.106400 0.019949 0.036159
v 0.106400 0.019949 0.020307
v 0.094574 0.012743 0.036159
v 0.094574 0.012743 0.020307
v 0.080579 -0.026412 -0.103059
v 0.080579 0.027992 -0.103059
v 0.127505 -0.026412 -0.034512
v 0.127505 0.027992 -0.034512
v 0.131499 -0.026412 -0.024262
v 0.131499 0.027992 -0.024262
v 0.131024 -0.026412 -0.009551
v 0.131024 0.027992 -0.009551
v 0.121425 -0.026412 0.001606
v 0.121425 0.027992 0.001606
v 0.109594 -0.026412 0.004909
v 0.109594 0.027992 0.004909
v 0.091193 -0.026412 0.004783
v 0.091193 0.027992 0.004783
v 0.080579 -0.026412 0.004452
v 0.080579 0.027992 0.004452
v -0.004745 0.008681 -0.068874
v -0.004745 0.008681 -0.003004
v 0.004685 0.014428 -0.068874
v 0.004685 0.014428 -0.003004
v 0.015809 0.012410 -0.068874
v 0.015809 0.012410 -0.003004
v 0.022110 0.003810 -0.068874
v 0.022110 0.003809 -0.003004
v 0.019898 -0.006335 -0.068874
v 0.019898 -0.006335 -0.003004
v 0.010467 -0.012082 -0.068874
v 0.010467 -0.012082 -0.003004
v -0.000657 -0.010064 -0.068874
v -0.000657 -0.010064 -0.003004
v -0.006958 -0.001463 -0.068874
v -0.006958 -0.001464 -0.003004
v -0.177635 -0.027636 0.037257
v -0.177635 0.032530 0.037257
v -0.176102 -0.027636 0.029554
v -0.176102 0.032530 0.029555
v -0.169568 -0.027636 0.025191
v -0.169568 0.032530 0.025191
v -0.161861 -0.027636 0.026723
v -0.161861 0.032530 0.026723
v -0.157496 -0.027636 0.033253
v -0.157496 0.032530 0.033254
v -0.159029 -0.027636 0.040956
v -0.159029 0.032530 0.040956
v -0.165562 -0.027636 0.045320
v -0.165562 0.032530 0.045320
v -0.173269 -0.027636 0.043788
v -0.173269 0.032530 0.043788
v -0.177635 -0.027636 0.037257
v -0.177635 0.032530 0.037257
vt 0.814746 0.071752
vt 0.825961 0.054967
vt 0.823830 0.065682
vt 0.819891 0.045883
vt 0.809176 0.043751
vt 0.797961 0.060536
vt 0.804031 0.069620
vt 0.800092 0.049821
vt 0.493169 0.401312
vt 0.493050 0.240463
vt 0.657988 0.401129
vt 0.657868 0.240280
vt 0.821018 0.274665
vt 0.763404 0.274665
vt 0.821018 0.235719
vt 0.763404 0.235719
vt 0.493177 0.258761
vt 0.493177 0.398882
vt 0.398454 0.258761
vt 0.398454 0.398882
vt 0.922347 0.030192
vt 0.922347 0.007716
vt 0.906532 0.030192
vt 0.911804 0.007716
vt 0.493078 0.398384
vt 0.493078 0.238946
vt 0.658828 0.398384
vt 0.658828 0.238946
vt 0.483363 0.865866
vt 0.111286 0.865866
vt 0.483362 0.530643
vt 0.111290 0.530643
vt 0.260046 0.427645
vt 0.268575 0.238172
vt 0.285632 0.427645
vt 0.285633 0.238172
vt 0.619493 0.898239
vt 0.494994 0.895853
vt 0.607773 0.895798
vt 0.494994 0.968495
vt 0.607783 0.968656
vt 0.639939 0.944255
vt 0.640052 0.920248
vt 0.642162 0.931885
vt 0.494994 0.895995
vt 0.494994 0.873732
vt 0.611719 0.873858
vt 0.631108 0.879113
vt 0.632168 0.906965
vt 0.649654 0.893167
vt 0.661109 0.912910
vt 0.664378 0.931302
vt 0.660775 0.951889
vt 0.631832 0.957711
vt 0.648662 0.972148
vt 0.619317 0.966185
vt 0.630601 0.985450
vt 0.611757 0.990805
vt 0.494994 0.968588
vt 0.494994 0.991104
vt 0.744680 0.230684
vt 0.667703 0.230684
vt 0.744680 0.088065
vt 0.667703 0.088065
vt 0.657859 0.401003
vt 0.657859 0.240768
vt 0.492068 0.401003
vt 0.492068 0.240768
vt 0.619493 0.898239
vt 0.494994 0.895853
vt 0.607773 0.895798
vt 0.494994 0.968495
vt 0.607783 0.968656
vt 0.639939 0.944255
vt 0.640052 0.920248
vt 0.642162 0.931885
vt 0.494994 0.895995
vt 0.494994 0.873732
vt 0.611719 0.873858
vt 0.631108 0.879113
vt 0.632168 0.906965
vt 0.649654 0.893167
vt 0.661109 0.912910
vt 0.664378 0.931302
vt 0.660775 0.951889
vt 0.631832 0.957711
vt 0.648662 0.972148
vt 0.619317 0.966185
vt 0.630601 0.985450
vt 0.611757 0.990805
vt 0.494994 0.968588
vt 0.494994 0.991104
vt 0.839050 0.050220
vt 0.854417 0.050429
vt 0.838537 0.083043
vt 0.853696 0.083259
vt 0.854334 0.035263
vt 0.893728 0.035419
vt 0.893803 0.050689
vt 0.893471 0.084536
vt 0.853076 0.098374
vt 0.892211 0.100314
vt 0.901125 0.086866
vt 0.900314 0.101796
vt 0.907830 0.087599
vt 0.908487 0.102479
vt 0.914603 0.086871
vt 0.916765 0.101524
vt 0.922300 0.083856
vt 0.925435 0.099538
vt 0.901067 0.050461
vt 0.908346 0.050288
vt 0.915700 0.050418
vt 0.900981 0.035208
vt 0.908419 0.035052
vt 0.915903 0.035179
vt 0.923275 0.035400
vt 0.923121 0.050738
vt 0.938235 0.051401
vt 0.937524 0.083858
vt 0.010620 0.865733
vt 0.111680 0.865730
vt 0.010482 0.530183
vt 0.111684 0.530181
vt 0.111688 0.428980
vt 0.483439 0.429121
vt 0.483437 0.530181
vt 0.483439 0.865730
vt 0.111680 0.966791
vt 0.483439 0.966791
vt 0.584496 0.530181
vt 0.584498 0.865730
vt 0.751011 0.401003
vt 0.657859 0.401003
vt 0.751017 0.240768
vt 0.657859 0.240768
vt 0.657859 0.147568
vt 0.492068 0.147562
vt 0.492068 0.240768
vt 0.492068 0.401003
vt 0.646391 0.409032
vt 0.503238 0.409032
vt 0.492068 0.494108
vt 0.503238 0.486009
vt 0.657859 0.494108
vt 0.646391 0.486009
vt 0.398685 0.240768
vt 0.398680 0.401003
vt 0.363718 0.328121
vt 0.380635 0.353439
vt 0.333852 0.322180
vt 0.302593 0.368963
vt 0.308534 0.339097
vt 0.319510 0.394281
vt 0.349376 0.400222
vt 0.374694 0.383304
vt 0.632168 0.906965
vt 0.619493 0.898239
vt 0.640052 0.920248
vt 0.631832 0.957711
vt 0.639939 0.944255
vt 0.642162 0.931885
vt 0.619317 0.966185
vt 0.607783 0.968656
vt 0.607773 0.895798
vt 0.494994 0.895853
vt 0.494994 0.968495
vt 0.632168 0.906965
vt 0.619493 0.898239
vt 0.640052 0.920248
vt 0.631832 0.957711
vt 0.639939 0.944255
vt 0.642162 0.931885
vt 0.619317 0.966185
vt 0.607783 0.968656
vt 0.607773 0.895798
vt 0.494994 0.895853
vt 0.494994 0.968495
vt 0.786177 0.051395
vt 0.778683 0.046389
vt 0.787934 0.060234
vt 0.769845 0.048147
vt 0.764838 0.055640
vt 0.766596 0.064479
vt 0.774089 0.069485
vt 0.782928 0.067727
vt 0.782928 0.067727
vt 0.774089 0.069485
vt 0.787934 0.060234
vt 0.766596 0.064479
vt 0.764838 0.055640
vt 0.769845 0.048147
vt 0.778683 0.046389
vt 0.786177 0.051395
vt 0.827367 0.985167
vt 0.851072 0.994400
vt 0.668845 0.876705
vt 0.885092 0.993302
vt 0.910893 0.971115
vt 0.918532 0.943770
vt 0.918239 0.901238
vt 0.917475 0.876705
vt 0.917475 0.876705
vt 0.918239 0.901238
vt 0.668845 0.876705
vt 0.918532 0.943770
vt 0.910893 0.971115
vt 0.885092 0.993302
vt 0.851072 0.994400
vt 0.827367 0.985167
vt 0.854417 0.050429
vt 0.853696 0.083259
vt 0.893803 0.050689
vt 0.893471 0.084536
vt 0.901067 0.050461
vt 0.901125 0.086866
vt 0.908346 0.050288
vt 0.907830 0.087599
vt 0.914603 0.086871
vt 0.915700 0.050418
vt 0.922300 0.083856
vt 0.923121 0.050738
vt 0.627768 0.071423
vt 0.627768 0.010368
vt 0.645944 0.071423
vt 0.645944 0.010368
vt 0.663993 0.071423
vt 0.663993 0.010368
vt 0.690836 0.071423
vt 0.690836 0.010368
vt 0.726253 0.071423
vt 0.726253 0.010368
vt 0.752739 0.071423
vt 0.752739 0.010368
vt 0.609495 0.010368
vt 0.609495 0.071423
vt 0.591166 0.010368
vt 0.591166 0.071423
vt 0.572837 0.010368
vt 0.572837 0.071423
vt 0.554563 0.010368
vt 0.554563 0.071423
vt 0.536388 0.010368
vt 0.536388 0.071423
vt 0.518339 0.010368
vt 0.518339 0.071423
vt 0.500422 0.010368
vt 0.500422 0.071423
vt 0.482624 0.010368
vt 0.482624 0.071423
vt 0.464916 0.010368
vt 0.464916 0.071423
vt 0.462252 0.140207
vt 0.437723 0.131901
vt 0.481025 0.168303
vt 0.420496 0.135327
vt 0.405892 0.145086
vt 0.396134 0.159690
vt 0.392707 0.176917
vt 0.396134 0.194144
vt 0.405892 0.208748
vt 0.420496 0.218506
vt 0.437723 0.221932
vt 0.454950 0.218506
vt 0.469554 0.208748
vt 0.479312 0.194144
vt 0.479312 0.194144
vt 0.469554 0.208748
vt 0.481025 0.168303
vt 0.454950 0.218506
vt 0.437723 0.221932
vt 0.420496 0.218506
vt 0.405892 0.208748
vt 0.396134 0.194144
vt 0.392707 0.176917
vt 0.396134 0.159690
vt 0.405892 0.145086
vt 0.420496 0.135327
vt 0.437723 0.131901
vt 0.462252 0.140207
vt 0.906532 0.030192
vt 0.906532 0.007716
vt 0.885444 0.030192
vt 0.885444 0.007716
vt 0.864357 0.030192
vt 0.864357 0.007716
vt 0.843269 0.030192
vt 0.843269 0.007716
vt 0.822182 0.030192
vt 0.822182 0.007716
vt 0.801094 0.030192
vt 0.801094 0.007716
vt 0.780007 0.030192
vt 0.780007 0.007716
vt 0.758919 0.030192
vt 0.758919 0.007716
vt 0.849839 0.105758
vt 0.987610 0.105759
vt 0.849839 0.297674
vt 0.987610 0.297674
vt 0.849839 0.323089
vt 0.987610 0.323089
vt 0.849839 0.357094
vt 0.987610 0.357094
vt 0.849839 0.391089
vt 0.987610 0.391089
vt 0.849839 0.419454
vt 0.987610 0.419454
vt 0.849839 0.461947
vt 0.987610 0.461947
vt 0.849839 0.486471
vt 0.987610 0.486471
vt 0.021234 0.427645
vt 0.021234 0.238172
vt 0.055350 0.427645
vt 0.055350 0.238172
vt 0.089466 0.427645
vt 0.089466 0.238172
vt 0.123582 0.427645
vt 0.123582 0.238172
vt 0.157698 0.427645
vt 0.157698 0.238172
vt 0.191814 0.427645
vt 0.191814 0.238172
vt 0.225930 0.427645
vt 0.225930 0.238172
vt 0.260046 0.427645
vt 0.260046 0.238172
vt 0.836565 0.084023
vt 0.836565 0.159683
vt 0.827317 0.084023
vt 0.827317 0.159683
vt 0.818070 0.084023
vt 0.818070 0.159683
vt 0.808823 0.084023
vt 0.808823 0.159683
vt 0.799575 0.084023
vt 0.799575 0.159683
vt 0.790327 0.084023
vt 0.790327 0.159683
vt 0.781080 0.084023
vt 0.781080 0.159683
vt 0.771832 0.084023
vt 0.771832 0.159683
vt 0.762584 0.084023
vt 0.762584 0.159683
vn 0.0000 0.0000 -1.0000
vn 0.0000 -1.0000 0.0000
vn -1.0000 0.0000 0.0000
vn 1.0000 0.0000 0.0000
vn -0.9770 0.2131 0.0000
vn 0.0000 1.0000 0.0000
vn -0.0002 -1.0000 -0.0002
vn -0.0001 -1.0000 -0.0002
vn -0.0003 -1.0000 -0.0003
vn 0.5104 0.6691 -0.5402
vn 0.0156 0.9998 -0.0022
vn 0.6064 0.7129 -0.3522
vn 0.0212 0.9997 -0.0099
vn -0.6831 0.6880 0.2450
vn -0.5393 0.6678 -0.5130
vn -0.0461 0.6678 -0.7429
vn -0.3146 0.6672 -0.6751
vn 0.9062 0.0000 -0.4228
vn 0.8612 0.0000 -0.5082
vn 0.6829 0.0000 -0.7304
vn 0.2523 0.6612 -0.7065
vn 0.3363 0.0000 -0.9417
vn -0.0620 0.0000 -0.9980
vn -0.4224 0.0000 -0.9064
vn -0.7245 0.0000 -0.6892
vn -0.7034 0.6612 -0.2609
vn -0.9376 0.0000 -0.3477
vn -0.7439 0.6671 0.0402
vn -0.9985 0.0000 0.0539
vn -0.9427 0.0000 0.3334
vn -0.9062 0.0000 0.4228
vn -0.6831 0.6880 0.2451
vn -0.9659 0.0000 0.2589
vn -0.4082 0.5773 0.7071
vn -0.7078 0.5776 -0.4066
vn 0.2587 0.0000 0.9659
vn 0.1829 0.7071 0.6830
vn -0.3095 0.7631 -0.5674
vn -0.2629 0.0000 -0.9648
vn -0.4789 0.0000 -0.8779
vn -0.4047 0.6744 -0.6175
vn -0.5481 0.0000 -0.8364
vn -0.1916 0.6717 -0.7155
vn -0.2587 0.0000 -0.9659
vn 0.0631 0.6688 -0.7407
vn 0.0849 0.0000 -0.9964
vn 0.5612 0.6103 -0.5591
vn 0.2626 0.0000 -0.9649
vn 0.7071 0.5773 0.4082
vn 0.9659 0.0000 -0.2589
vn 0.5773 0.5773 -0.5773
vn 0.5773 0.5773 0.5773
vn 0.0000 0.0000 1.0000
vn -0.5773 0.5773 0.5773
vn -0.5773 0.5773 -0.5773
vn 0.5774 0.5774 -0.5773
vn -0.5774 0.5774 -0.5773
vn 0.0001 0.0002 -1.0000
vn -0.0001 0.0002 -1.0000
vn -0.0002 -0.0002 -1.0000
vn -0.0001 -0.0002 -1.0000
vn 0.0002 -0.0002 -1.0000
vn 0.0001 -0.0002 -1.0000
vn 0.7069 0.0000 -0.7073
vn 0.3825 0.0000 -0.9239
vn -0.0650 0.0000 -0.9979
vn -0.6083 0.0000 -0.7937
vn -0.9660 0.0000 -0.2586
vn -0.9978 0.0000 0.0662
vn 0.9238 0.0000 -0.3828
vn 0.9238 0.0000 0.3828
vn 0.7069 0.0000 0.7073
vn 0.3825 0.0000 0.9239
vn -0.3825 0.0000 0.9239
vn -0.7069 0.0000 0.7073
vn -0.8313 0.0000 0.5558
vn -0.8066 -0.5910 0.0000
vn -0.5303 -0.8478 0.0000
vn 0.1829 -0.9831 0.0000
vn 0.8144 -0.5803 0.0000
vn 0.9783 0.2073 0.0000
vn 0.5303 0.8478 0.0000
vn -0.1829 0.9831 0.0000
vn -0.5203 0.8539 0.0000
vn 0.8252 0.0000 -0.5649
vn 0.8842 0.0000 -0.4671
vn 0.9856 0.0000 -0.1688
vn 0.9318 0.0000 0.3629
vn 0.5365 0.0000 0.8439
vn 0.1323 0.0000 0.9912
vn -0.0190 0.0000 0.9998
vn -0.0311 0.0000 0.9995
vn -0.9807 0.0000 -0.1952
vn -0.8314 0.0000 -0.5557
vn -0.1950 0.0000 -0.9808
vn 0.5554 0.0000 -0.8315
vn 0.5554 0.0000 -0.8316
vn 0.9807 0.0000 -0.1951
vn 0.8314 0.0000 0.5557
vn 0.1950 0.0000 0.9808
vn -0.5554 0.0000 0.8316
usemtl noname.04
s 1
f 214/214/204 215/215/204 216/216/204
f 217/217/204 215/215/204 218/218/204
f 215/215/204 214/214/204 218/218/204
f 218/218/204 214/214/204 219/219/204
f 214/214/204 220/220/204 219/219/204
f 221/221/204 218/218/204 219/219/204
f 222/222/205 223/223/205 224/224/205
f 223/223/205 225/225/205 224/224/205
f 226/226/206 227/227/206 228/228/206
f 227/227/206 229/229/206 228/228/206
f 230/230/207 231/231/207 232/232/207
f 231/231/207 233/233/207 232/232/207
f 234/234/208 235/235/208 236/236/208
f 235/235/208 237/237/208 236/236/208
f 238/238/209 239/239/209 240/240/209
f 239/239/209 241/241/209 240/240/209
f 242/242/205 243/243/210 244/244/211
f 243/243/210 245/245/212 244/244/211
f 246/246/208 247/247/208 248/248/208
f 247/247/208 249/249/208 248/248/208
f 250/250/213 251/251/214 252/252/215
f 253/253/216 251/251/214 254/254/217
f 251/251/214 250/250/213 254/254/217
f 254/254/217 250/250/213 255/255/218
f 250/250/213 256/256/219 255/255/218
f 255/255/218 256/256/219 257/257/220
f 258/258/221 259/259/221 252/252/215
f 259/259/221 260/260/222 252/252/215
f 252/252/215 260/260/222 250/250/213
f 260/260/222 261/261/223 250/250/213
f 250/250/213 261/261/223 262/262/224
f 261/261/223 263/263/225 262/262/224
f 262/262/224 263/263/225 256/256/219
f 263/263/225 264/264/226 256/256/219
f 256/256/219 264/264/226 257/257/220
f 264/264/226 265/265/227 257/257/220
f 257/257/220 265/265/227 255/255/218
f 265/265/227 266/266/228 255/255/218
f 255/255/218 266/266/228 267/267/229
f 266/266/228 268/268/230 267/267/229
f 267/267/229 268/268/230 269/269/231
f 268/268/230 270/270/232 269/269/231
f 269/269/231 270/270/232 254/254/217
f 270/270/232 271/271/233 254/254/217
f 255/255/218 267/267/229 254/254/217
f 267/267/229 269/269/231 254/254/217
f 254/254/217 271/271/233 272/272/234
f 271/271/233 273/273/234 272/272/234
f 256/256/219 250/250/213 262/262/224
f 274/274/204 275/275/204 276/276/204
f 275/275/204 277/277/204 276/276/204
f 278/278/205 279/279/205 280/280/205
f 279/279/205 281/281/205 280/280/205
f 282/282/213 283/283/214 284/284/215
f 285/285/216 283/283/214 286/286/235
f 283/283/214 282/282/213 286/286/235
f 286/286/235 282/282/213 287/287/218
f 282/282/213 288/288/219 287/287/218
f 287/287/218 288/288/219 289/289/220
f 290/290/221 291/291/221 284/284/215
f 291/291/221 292/292/222 284/284/215
f 284/284/215 292/292/222 282/282/213
f 292/292/222 293/293/223 282/282/213
f 282/282/213 293/293/223 294/294/224
f 293/293/223 295/295/225 294/294/224
f 294/294/224 295/295/225 288/288/219
f 295/295/225 296/296/226 288/288/219
f 288/288/219 296/296/226 289/289/220
f 296/296/226 297/297/227 289/289/220
f 289/289/220 297/297/227 287/287/218
f 297/297/227 298/298/228 287/287/218
f 287/287/218 298/298/228 299/299/229
f 298/298/228 300/300/230 299/299/229
f 299/299/229 300/300/230 301/301/231
f 300/300/230 302/302/232 301/301/231
f 301/301/231 302/302/232 286/286/235
f 302/302/232 303/303/233 286/286/235
f 287/287/218 299/299/229 286/286/235
f 299/299/229 301/301/231 286/286/235
f 286/286/235 303/303/233 304/304/234
f 303/303/233 305/305/234 304/304/234
f 288/288/219 282/282/213 294/294/224
f 306/306/236 307/307/237 308/308/236
f 307/307/237 309/309/238 308/308/236
f 310/310/239 311/311/239 307/307/237
f 311/311/239 312/312/240 307/307/237
f 307/307/237 312/312/240 309/309/238
f 312/312/240 313/313/241 309/309/238
f 309/309/238 313/313/241 314/314/242
f 314/314/242 313/313/241 315/315/243
f 313/313/241 316/316/244 315/315/243
f 315/315/243 316/316/244 317/317/245
f 316/316/244 318/318/246 317/317/245
f 317/317/245 318/318/246 319/319/247
f 318/318/246 320/320/248 319/319/247
f 319/319/247 320/320/248 321/321/249
f 320/320/248 322/322/250 321/321/249
f 321/321/249 322/322/250 323/323/251
f 312/312/240 324/324/240 313/313/241
f 313/313/241 324/324/240 316/316/244
f 324/324/240 325/325/240 316/316/244
f 316/316/244 325/325/240 318/318/246
f 318/318/246 325/325/240 320/320/248
f 325/325/240 326/326/240 320/320/248
f 320/320/248 326/326/240 322/322/250
f 311/311/239 327/327/239 312/312/240
f 312/312/240 327/327/239 324/324/240
f 327/327/239 328/328/239 324/324/240
f 324/324/240 328/328/239 325/325/240
f 328/328/239 329/329/239 325/325/240
f 325/325/240 329/329/239 326/326/240
f 329/329/239 330/330/239 326/326/240
f 330/330/239 331/331/252 326/326/240
f 326/326/240 331/331/252 322/322/250
f 331/331/252 332/332/253 322/322/250
f 332/332/253 333/333/253 322/322/250
f 334/334/207 335/335/254 336/336/207
f 335/335/254 337/337/255 336/336/207
f 338/338/256 337/337/255 339/339/256
f 339/339/256 337/337/255 340/340/257
f 337/337/255 335/335/254 340/340/257
f 340/340/257 335/335/254 341/341/258
f 335/335/254 342/342/204 341/341/258
f 341/341/258 342/342/204 343/343/204
f 344/344/206 340/340/257 345/345/206
f 340/340/257 341/341/258 345/345/206
f 346/346/207 347/347/259 348/348/207
f 347/347/259 349/349/255 348/348/207
f 350/350/256 349/349/255 351/351/256
f 351/351/256 349/349/255 352/352/257
f 349/349/255 347/347/259 352/352/257
f 352/352/257 347/347/259 353/353/260
f 347/347/259 354/354/261 353/353/260
f 354/354/261 355/355/262 353/353/260
f 353/353/260 355/355/262 356/356/263
f 355/355/262 357/357/264 356/356/263
f 356/356/263 357/357/264 358/358/265
f 357/357/264 359/359/266 358/358/265
f 358/358/265 359/359/266 347/347/259
f 359/359/266 354/354/261 347/347/259
f 360/360/206 352/352/257 361/361/206
f 352/352/257 353/353/260 361/361/206
f 362/362/204 363/363/204 364/364/204
f 363/363/204 365/365/204 364/364/204
f 364/364/204 365/365/204 366/366/204
f 367/367/204 365/365/204 368/368/204
f 365/365/204 363/363/204 368/368/204
f 368/368/204 363/363/204 369/369/204
f 370/370/205 371/371/205 372/372/205
f 371/371/205 373/373/205 372/372/205
f 373/373/205 374/374/205 372/372/205
f 372/372/205 374/374/205 375/375/205
f 376/376/205 373/373/205 377/377/205
f 373/373/205 371/371/205 377/377/205
f 371/371/205 378/378/205 377/377/205
f 378/378/205 379/379/205 377/377/205
f 377/377/205 379/379/205 380/380/205
f 381/381/205 382/382/205 383/383/205
f 382/382/205 384/384/205 383/383/205
f 384/384/205 385/385/205 383/383/205
f 383/383/205 385/385/205 386/386/205
f 387/387/205 384/384/205 388/388/205
f 384/384/205 382/382/205 388/388/205
f 382/382/205 389/389/205 388/388/205
f 389/389/205 390/390/205 388/388/205
f 388/388/205 390/390/205 391/391/205
f 392/392/205 393/393/205 394/394/205
f 393/393/205 395/395/205 394/394/205
f 395/395/205 396/396/205 394/394/205
f 396/396/205 397/397/205 394/394/205
f 397/397/205 398/398/205 394/394/205
f 394/394/205 398/398/205 399/399/205
f 400/400/209 401/401/209 402/402/209
f 401/401/209 403/403/209 402/402/209
f 403/403/209 404/404/209 402/402/209
f 404/404/209 405/405/209 402/402/209
f 405/405/209 406/406/209 402/402/209
f 402/402/209 406/406/209 407/407/209
f 408/408/205 409/409/205 410/410/205
f 409/409/205 411/411/205 410/410/205
f 411/411/205 412/412/205 410/410/205
f 412/412/205 413/413/205 410/410/205
f 413/413/205 414/414/205 410/410/205
f 410/410/205 414/414/205 415/415/205
f 416/416/209 417/417/209 418/418/209
f 417/417/209 419/419/209 418/418/209
f 419/419/209 420/420/209 418/418/209
f 420/420/209 421/421/209 418/418/209
f 421/421/209 422/422/209 418/418/209
f 418/418/209 422/422/209 423/423/209
f 424/424/205 425/425/205 426/426/205
f 425/425/205 427/427/205 426/426/205
f 426/426/205 427/427/205 428/428/205
f 427/427/205 429/429/205 428/428/205
f 428/428/205 429/429/205 430/430/205
f 429/429/205 431/431/205 430/430/205
f 431/431/205 432/432/205 430/430/205
f 430/430/205 432/432/205 433/433/205
f 432/432/205 434/434/205 433/433/205
f 433/433/205 434/434/205 435/435/205
f 436/436/267 437/437/267 438/438/268
f 437/437/267 439/439/268 438/438/268
f 438/438/268 439/439/268 440/440/269
f 439/439/268 441/441/269 440/440/269
f 440/440/269 441/441/269 442/442/270
f 441/441/269 443/443/270 442/442/270
f 442/442/270 443/443/270 444/444/271
f 443/443/270 445/445/271 444/444/271
f 444/444/271 445/445/271 446/446/272
f 445/445/271 447/447/272 446/446/272
f 437/437/267 436/436/267 448/448/273
f 436/436/267 449/449/273 448/448/273
f 448/448/273 449/449/273 450/450/207
f 449/449/273 451/451/207 450/450/207
f 450/450/207 451/451/207 452/452/274
f 451/451/207 453/453/274 452/452/274
f 452/452/274 453/453/274 454/454/275
f 453/453/274 455/455/275 454/454/275
f 454/454/275 455/455/275 456/456/276
f 455/455/275 457/457/276 456/456/276
f 456/456/276 457/457/276 458/458/256
f 457/457/276 459/459/256 458/458/256
f 458/458/256 459/459/256 460/460/277
f 459/459/256 461/461/277 460/460/277
f 460/460/277 461/461/277 462/462/278
f 461/461/277 463/463/278 462/462/278
f 462/462/278 463/463/278 464/464/279
f 463/463/278 465/465/279 464/464/279
f 466/466/205 467/467/205 468/468/205
f 467/467/205 469/469/205 468/468/205
f 469/469/205 470/470/205 468/468/205
f 470/470/205 471/471/205 468/468/205
f 471/471/205 472/472/205 468/468/205
f 472/472/205 473/473/205 468/468/205
f 473/473/205 474/474/205 468/468/205
f 474/474/205 475/475/205 468/468/205
f 475/475/205 476/476/205 468/468/205
f 476/476/205 477/477/205 468/468/205
f 477/477/205 478/478/205 468/468/205
f 468/468/205 478/478/205 479/479/205
f 480/480/209 481/481/209 482/482/209
f 481/481/209 483/483/209 482/482/209
f 483/483/209 484/484/209 482/482/209
f 484/484/209 485/485/209 482/482/209
f 485/485/209 486/486/209 482/482/209
f 486/486/209 487/487/209 482/482/209
f 487/487/209 488/488/209 482/482/209
f 488/488/209 489/489/209 482/482/209
f 489/489/209 490/490/209 482/482/209
f 490/490/209 491/491/209 482/482/209
f 491/491/209 492/492/209 482/482/209
f 482/482/209 492/492/209 493/493/209
f 494/494/280 495/495/280 496/496/281
f 495/495/280 497/497/281 496/496/281
f 496/496/281 497/497/281 498/498/282
f 497/497/281 499/499/282 498/498/282
f 498/498/282 499/499/282 500/500/283
f 499/499/282 501/501/283 500/500/283
f 500/500/283 501/501/283 502/502/284
f 501/501/283 503/503/284 502/502/284
f 502/502/284 503/503/284 504/504/285
f 503/503/284 505/505/285 504/504/285
f 504/504/285 505/505/285 506/506/286
f 505/505/285 507/507/286 506/506/286
f 506/506/286 507/507/286 508/508/287
f 507/507/286 509/509/287 508/508/287
f 510/510/288 511/511/288 512/512/289
f 511/511/288 513/513/289 512/512/289
f 512/512/289 513/513/289 514/514/290
f 513/513/289 515/515/290 514/514/290
f 514/514/290 515/515/290 516/516/291
f 515/515/290 517/517/291 516/516/291
f 516/516/291 517/517/291 518/518/292
f 517/517/291 519/519/292 518/518/292
f 518/518/292 519/519/292 520/520/293
f 519/519/292 521/521/293 520/520/293
f 520/520/293 521/521/293 522/522/294
f 521/521/293 523/523/294 522/522/294
f 522/522/294 523/523/294 524/524/295
f 523/523/294 525/525/295 524/524/295
f 526/526/287 527/527/287 528/528/286
f 527/527/287 529/529/286 528/528/286
f 528/528/286 529/529/286 530/530/285
f 529/529/286 531/531/285 530/530/285
f 530/530/285 531/531/285 532/532/284
f 531/531/285 533/533/284 532/532/284
f 532/532/284 533/533/284 534/534/283
f 533/533/284 535/535/283 534/534/283
f 534/534/283 535/535/283 536/536/282
f 535/535/283 537/537/282 536/536/282
f 536/536/282 537/537/282 538/538/281
f 537/537/282 539/539/281 538/538/281
f 538/538/281 539/539/281 540/540/280
f 539/539/281 541/541/280 540/540/280
f 542/542/296 543/543/296 544/544/297
f 543/543/296 545/545/297 544/544/297
f 544/544/297 545/545/297 546/546/298
f 545/545/297 547/547/298 546/546/298
f 546/546/298 547/547/298 548/548/299
f 547/547/298 549/549/300 548/548/299
f 548/548/299 549/549/300 550/550/301
f 549/549/300 551/551/301 550/550/301
f 550/550/301 551/551/301 552/552/302
f 551/551/301 553/553/302 552/552/302
f 552/552/302 553/553/302 554/554/303
f 553/553/302 555/555/303 554/554/303
f 554/554/303 555/555/303 556/556/304
f 555/555/303 557/557/304 556/556/304
f 556/556/304 557/557/304 558/558/279
f 557/557/304 559/559/279 558/558/279
o ##LighterSwitch:0
v 0.003343 -0.027651 -0.003215
v 0.001720 -0.028168 -0.001691
v 0.003341 -0.028171 -0.001689
v 0.001723 -0.027648 -0.003217
v 0.001720 -0.028168 -0.001691
v 0.003343 -0.027651 -0.003215
vt 1.000000 1.000000
vt 0.000000 0.000000
vt 1.000000 0.000000
vt 0.000000 1.000000
vt 0.000000 0.000000
vt 1.000000 1.000000
vn 0.0010 0.9465 0.3228
usemtl noname.06
s 1
f 560/560/305 561/561/305 562/562/305
f 563/563/305 564/564/305 565/565/305
o LighterFlame01:0
v -0.115054 0.078504 -0.326447
v 0.146434 -0.006975 -0.081670
v -0.114586 -0.006893 -0.081099
v 0.145966 0.078422 -0.327017
v 0.146434 -0.006975 -0.081670
v -0.115054 0.078504 -0.326447
vt 1.000000 1.000000
vt 0.000000 0.000000
vt 1.000000 0.000000
vt 0.000000 1.000000
vt 0.000000 0.000000
vt 1.000000 1.000000
vn -0.0010 -0.9444 -0.3287
usemtl noname.05
s 1
f 566/566/306 567/567/306 568/568/306
f 569/569/306 570/570/306 571/571/306
o ##Cap:0
v 0.157680 -0.036890 -0.156483
v 0.157681 -0.036890 0.035707
v 0.068019 -0.036890 -0.164819
v -0.005024 -0.036890 -0.168313
v -0.078066 -0.036890 -0.164823
v -0.168273 -0.036890 0.035711
v -0.168261 -0.036890 -0.156441
v -0.168273 -0.036890 0.035711
v 0.157681 -0.036890 0.035707
v -0.168273 0.043785 0.035707
v 0.157681 0.043785 0.035713
v -0.168261 0.043785 -0.156438
v -0.168261 -0.036890 -0.156441
v -0.168273 -0.036890 0.035711
v 0.157680 -0.036890 -0.156483
v 0.068019 -0.036890 -0.164819
v 0.157680 0.043785 -0.156477
v 0.068019 0.043785 -0.164819
v -0.005024 -0.036890 -0.168313
v -0.005024 0.043785 -0.168316
v -0.078066 -0.036890 -0.164823
v -0.078066 0.043785 -0.164819
v -0.168261 -0.036890 -0.156441
v 0.157681 -0.036890 0.035707
v 0.157680 -0.036890 -0.156483
vt 0.836461 0.501549
vt 0.666298 0.501549
vt 0.842856 0.580787
vt 0.845620 0.644931
vt 0.842947 0.709083
vt 0.666298 0.788405
vt 0.837260 0.788405
vt 0.588074 0.789072
vt 0.587399 0.501003
vt 0.666298 0.788405
vt 0.666298 0.501549
vt 0.837260 0.788405
vt 0.836838 0.866676
vt 0.666936 0.867151
vt 0.915685 0.497388
vt 0.920853 0.577753
vt 0.836461 0.501549
vt 0.842856 0.580787
vt 0.922983 0.644673
vt 0.845620 0.644931
vt 0.921050 0.711601
vt 0.842947 0.709083
vt 0.916092 0.792454
vt 0.666556 0.422557
vt 0.836491 0.423402
vn 0.0000 -1.0000 0.0000
vn 0.0000 0.0000 1.0000
vn -0.5773 0.5773 0.5773
vn 0.5773 0.5773 0.5774
vn -0.6008 0.5824 -0.5476
vn -1.0000 0.0000 -0.0001
vn 0.0926 0.0001 -0.9957
vn 0.0702 0.0000 -0.9975
vn 0.6008 0.5824 -0.5475
vn 0.0500 0.7021 -0.7103
vn 0.0000 -0.0000 -1.0000
vn 0.0000 0.6965 -0.7176
vn -0.0702 0.0000 -0.9975
vn -0.0500 0.7021 -0.7103
vn -0.0925 0.0000 -0.9957
vn 1.0000 0.0000 0.0000
usemtl noname.04_lighter.dds
s 1
f 572/572/307 573/573/307 574/574/307
f 574/574/307 573/573/307 575/575/307
f 575/575/307 573/573/307 576/576/307
f 573/573/307 577/577/307 576/576/307
f 576/576/307 577/577/307 578/578/307
f 579/579/308 580/580/308 581/581/309
f 580/580/308 582/582/310 581/581/309
f 582/582/310 583/583/311 581/581/309
f 583/583/311 584/584/312 581/581/309
f 581/581/309 584/584/312 585/585/312
f 586/586/313 587/587/314 588/588/315
f 588/588/315 587/587/314 589/589/316
f 587/587/314 590/590/317 589/589/316
f 589/589/316 590/590/317 591/591/318
f 590/590/317 592/592/319 591/591/318
f 591/591/318 592/592/319 593/593/320
f 592/592/319 594/594/321 593/593/320
f 594/594/321 583/583/311 593/593/320
f 583/583/311 582/582/310 593/593/320
f 593/593/320 582/582/310 591/591/318
f 591/591/318 582/582/310 589/589/316
f 589/589/316 582/582/310 588/588/315
f 582/582/310 595/595/322 588/588/315
f 588/588/315 595/595/322 596/596/322
