# Blender v2.81 (sub 16) OBJ File: ''
# www.blender.org
mtllib misc_sack_large_flat02.mtl
o misc_sack_large_flat02
v -0.203011 0.019475 0.052483
v -0.225635 0.040777 -0.027983
v -0.283233 -0.015733 -0.035698
v -0.200640 -0.046466 0.151378
v -0.000165 -0.233154 -0.317003
v -0.039550 -0.233156 -0.100151
v -0.176493 -0.233156 -0.100130
v -0.187191 -0.233154 -0.293172
v -0.037136 -0.233158 0.049714
v -0.163122 -0.233184 0.038629
v -0.036330 -0.233217 0.146509
v -0.140423 -0.225879 0.139264
v -0.006334 -0.228403 0.231317
v -0.119049 -0.197936 0.202451
v -0.002964 -0.215145 0.274424
v -0.003083 -0.206384 0.317168
v -0.014539 -0.201932 0.317980
v -0.038121 -0.207541 0.269418
v -0.002456 -0.185536 0.372816
v -0.027474 -0.184247 0.370852
v -0.065535 -0.051938 0.286058
v -0.029772 -0.079653 0.292483
v -0.036899 -0.091823 0.332400
v -0.002721 -0.021326 0.301614
v -0.021397 0.088671 0.145602
v -0.094958 0.066667 0.130397
v -0.058055 -0.016920 0.245353
v -0.002641 0.148392 -0.001469
v -0.092788 0.115905 -0.007889
v 0.000125 0.201436 -0.328884
v -0.135587 0.173679 -0.312915
v -0.180243 -0.147710 -0.484066
v -0.212185 -0.008744 -0.484391
v -0.006820 0.016011 -0.508985
v -0.001910 -0.133880 -0.503762
v -0.254059 -0.216864 -0.202657
v -0.245745 -0.233153 -0.350934
v -0.173056 -0.233153 -0.403549
v -0.256149 -0.178734 -0.013338
v -0.234617 -0.189258 0.082293
v -0.220115 -0.168848 0.131892
v -0.095827 -0.189692 0.237730
v -0.048110 -0.154374 0.252452
v -0.109888 -0.169043 0.239729
v -0.078341 -0.165980 0.325587
v -0.086315 -0.024433 0.189291
v -0.136689 -0.039431 0.194357
v -0.052867 -0.089921 0.283616
v -0.143325 -0.022414 0.163805
v -0.118306 -0.006267 0.162233
v -0.235438 0.097433 -0.237238
v -0.186959 0.175941 -0.413492
v -0.249247 0.115859 -0.325904
v -0.199268 0.157754 -0.447478
v -0.268933 0.067123 -0.411717
v -0.285487 0.030021 -0.359599
v -0.269440 0.073999 -0.344275
v -0.261086 -0.020469 -0.450249
v -0.296061 -0.030228 -0.366091
v -0.247753 -0.144704 -0.438996
v -0.226165 -0.233153 -0.413787
v -0.160263 -0.233153 -0.436944
v -0.142133 -0.233153 -0.471509
v 0.001279 0.225969 -0.442664
v 0.001949 0.218958 -0.487549
v 0.001949 0.218958 -0.487549
v 0.002055 0.147872 -0.496771
v -0.201247 0.122402 -0.468653
v 0.002537 -0.233153 -0.487287
v 0.000582 -0.233153 -0.473126
v 0.000582 -0.233153 -0.473126
v -0.004618 -0.233153 -0.445339
v -0.281434 0.020320 -0.212934
v -0.263720 -0.233154 -0.303961
v -0.294113 -0.159254 -0.194908
v -0.269331 -0.198634 -0.345299
v -0.293220 -0.147138 -0.017706
v -0.297859 -0.033939 -0.210084
v -0.292247 -0.050261 -0.029261
v -0.202624 -0.085720 0.180552
v -0.297948 -0.129338 -0.354995
v -0.215527 -0.138197 0.146369
v -0.058693 -0.115819 0.335430
v -0.039765 -0.094087 0.317354
v -0.078341 -0.165980 0.325587
v -0.071757 -0.151579 0.333864
v -0.072920 -0.123095 0.291433
v -0.095827 -0.189692 0.237730
v -0.109888 -0.169043 0.239729
v -0.027474 -0.184247 0.370852
v -0.014539 -0.201932 0.317980
v -0.038121 -0.207541 0.269418
v -0.006334 -0.228403 0.231317
v -0.051907 -0.136370 0.323722
v -0.072920 -0.123095 0.291433
v -0.071757 -0.151579 0.333864
v -0.041283 -0.174571 0.360630
v -0.040268 -0.162555 0.363149
v -0.072267 -0.113316 0.289470
v -0.068875 -0.131410 0.361511
v -0.040165 -0.112781 0.333656
v -0.058693 -0.115819 0.335430
v -0.058693 -0.115819 0.335430
v -0.039765 -0.094087 0.317354
v -0.043105 -0.104644 0.350380
v -0.002841 -0.112516 0.372474
v -0.043105 -0.104644 0.350380
v -0.002935 -0.094008 0.370389
v -0.038624 -0.179172 0.359576
v 0.275600 -0.006797 -0.035487
v 0.227204 0.042441 -0.027725
v 0.196572 0.026969 0.052336
v 0.197132 -0.038460 0.150659
v -0.000165 -0.233154 -0.317003
v 0.178056 -0.233154 -0.293335
v 0.146521 -0.232833 -0.100014
v -0.039550 -0.233156 -0.100151
v 0.131189 -0.233158 0.039465
v -0.037136 -0.233158 0.049714
v 0.100860 -0.226317 0.138428
v -0.036330 -0.233217 0.146509
v 0.110823 -0.197493 0.202414
v -0.006334 -0.228403 0.231317
v -0.002964 -0.215145 0.274424
v 0.032255 -0.207819 0.269422
v 0.008329 -0.202001 0.317983
v -0.003083 -0.206384 0.317168
v 0.022491 -0.184336 0.370845
v -0.002456 -0.185536 0.372816
v -0.002935 -0.094008 0.370389
v 0.060445 -0.085487 0.318639
v 0.045057 -0.022345 0.250185
v -0.002721 -0.021326 0.301614
v -0.002721 -0.021326 0.301614
v 0.045057 -0.022345 0.250185
v 0.055418 0.067898 0.137457
v -0.021397 0.088671 0.145602
v 0.085136 0.116359 -0.006543
v -0.002641 0.148392 -0.001469
v 0.135738 0.173512 -0.311001
v 0.000125 0.201436 -0.328884
v 0.160886 0.001096 -0.488565
v 0.164376 -0.137392 -0.485368
v -0.001910 -0.133880 -0.503762
v -0.006820 0.016011 -0.508985
v 0.002537 -0.233153 -0.487287
v 0.162250 -0.233153 -0.470148
v 0.156722 -0.233153 -0.437297
v 0.000582 -0.233153 -0.473126
v 0.160376 -0.233153 -0.404795
v 0.262392 -0.233154 -0.303696
v 0.261657 -0.198460 -0.099706
v 0.257076 -0.179094 -0.013751
v 0.233746 -0.188056 0.082277
v 0.219446 -0.166569 0.131201
v 0.090542 -0.189719 0.237717
v 0.105089 -0.168878 0.239398
v 0.039725 -0.186271 0.306724
v 0.080827 -0.179609 0.340802
v 0.198561 -0.081811 0.180557
v 0.245258 0.117524 -0.307163
v 0.188748 0.175436 -0.411932
v 0.253841 0.113930 -0.340392
v 0.201375 0.156134 -0.446066
v 0.281338 0.021197 -0.359388
v 0.257553 0.074191 -0.435970
v 0.291815 -0.038249 -0.365500
v 0.243110 -0.020599 -0.458545
v 0.223215 -0.120383 -0.466659
v 0.246959 -0.233153 -0.415577
v 0.270090 -0.200043 -0.344336
v 0.001279 0.225969 -0.442664
v 0.001949 0.218958 -0.487549
v 0.196530 0.122103 -0.467655
v 0.002055 0.147872 -0.496771
v 0.001949 0.218958 -0.487549
v -0.004618 -0.233153 -0.445339
v 0.000582 -0.233153 -0.473126
v 0.295767 -0.147373 -0.018598
v 0.292717 -0.049710 -0.029460
v 0.215704 -0.134555 0.144738
v 0.045294 -0.104421 0.325262
v 0.022491 -0.184336 0.370845
v 0.070223 -0.158506 0.343501
v 0.046244 -0.126346 0.290207
v -0.006334 -0.228403 0.231317
v 0.064631 -0.113932 0.288903
v 0.065292 -0.150787 0.355927
v 0.034576 -0.132053 0.314579
v 0.046244 -0.126346 0.290207
v 0.070223 -0.158506 0.343501
v 0.064631 -0.113932 0.288903
v 0.069398 -0.122051 0.345667
v 0.063078 -0.132231 0.361524
v 0.065292 -0.150787 0.355927
v 0.063078 -0.132231 0.361524
v 0.030289 -0.110977 0.321833
v 0.069398 -0.122051 0.345667
v 0.069398 -0.122051 0.345667
v 0.045294 -0.104421 0.325262
v 0.036774 -0.106508 0.350402
v 0.036774 -0.106508 0.350402
v 0.049251 -0.137571 0.372047
v 0.038921 -0.156339 0.369483
v -0.071077 -0.150221 0.355916
v -0.052777 -0.156738 0.368391
v -0.038624 -0.179172 0.359576
v -0.041283 -0.174571 0.360630
v 0.049251 -0.137571 0.372047
v 0.022491 -0.184336 0.370845
v 0.026848 -0.165151 0.368504
v 0.038921 -0.156339 0.369483
v 0.019631 -0.099697 0.486711
v 0.072927 -0.131922 0.496482
v 0.059020 -0.141373 0.434479
v 0.016361 -0.110452 0.424402
v 0.006456 -0.114116 0.368757
v -0.043214 -0.087608 0.401114
v -0.035322 -0.113347 0.368533
v -0.071130 -0.126677 0.366364
v -0.091936 -0.105617 0.398428
v -0.043214 -0.087608 0.401114
v -0.049459 -0.233170 0.487144
v -0.130610 -0.227987 0.478724
v -0.113067 -0.208154 0.420632
v -0.061644 -0.227332 0.414492
v 0.037150 -0.233171 0.503435
v -0.054871 -0.233171 0.503308
v 0.029771 -0.233170 0.483546
v 0.094702 -0.229424 0.508985
v 0.037150 -0.233171 0.503435
v 0.029771 -0.233170 0.483546
v 0.075420 -0.220586 0.484145
v 0.022959 -0.228330 0.417953
v 0.022959 -0.228330 0.417953
v 0.071032 -0.195945 0.422519
v -0.086490 -0.233170 0.499261
v -0.148032 -0.233170 0.496928
v -0.080168 -0.153994 0.361650
v -0.119514 -0.163684 0.395495
v -0.100665 -0.107978 0.424125
v -0.049534 -0.088449 0.427842
v -0.029343 -0.085753 0.462662
v -0.024299 -0.184104 0.364316
v 0.009325 -0.188142 0.363338
v 0.009325 -0.188142 0.363338
v 0.016665 -0.149183 0.356999
v -0.104695 -0.171778 0.407420
v -0.087677 -0.165580 0.392040
v -0.095723 -0.176634 0.413772
v -0.167432 -0.192130 0.488691
v -0.128780 -0.185363 0.436280
v -0.125036 -0.199797 0.430820
v -0.098741 -0.190869 0.421762
v -0.065345 -0.188518 0.400035
v -0.049593 -0.159212 0.362990
v -0.042384 -0.164593 0.364147
v -0.113169 -0.164265 0.412336
v -0.080168 -0.153994 0.361650
v -0.119514 -0.163684 0.395495
v -0.113169 -0.164265 0.412336
v -0.116241 -0.173900 0.429735
v -0.128780 -0.185363 0.436280
v -0.125036 -0.199797 0.430820
v -0.113067 -0.208154 0.420632
v -0.032826 -0.173464 0.363631
v 0.057538 -0.162119 0.434131
v 0.050983 -0.173756 0.433018
v 0.047806 -0.173447 0.419331
v 0.023606 -0.141859 0.363212
v 0.012857 -0.145363 0.361119
v 0.040920 -0.139603 0.367720
v 0.046284 -0.134089 0.371060
v 0.069998 -0.149707 0.402923
v 0.059966 -0.169630 0.443354
v 0.104068 -0.193794 0.505048
v 0.019998 -0.148118 0.357658
v 0.070497 -0.185800 0.418381
v 0.085726 -0.186224 0.436789
v 0.090814 -0.190875 0.442736
v 0.080634 -0.176474 0.436313
v 0.086804 -0.179704 0.444515
v 0.089305 -0.169270 0.436219
v 0.084364 -0.161816 0.439594
v 0.067521 -0.157776 0.411239
v 0.067521 -0.157776 0.411239
v 0.034913 -0.143081 0.361619
v 0.019998 -0.148118 0.357658
v 0.070497 -0.185800 0.418381
v 0.085726 -0.186224 0.436789
v 0.080634 -0.176474 0.436313
v 0.080634 -0.176474 0.436313
v 0.089305 -0.169270 0.436219
v 0.034913 -0.143081 0.361619
v 0.006456 -0.114116 0.368757
v 0.043598 -0.127695 0.371686
v -0.116241 -0.173900 0.429735
v -0.121074 -0.142467 0.472691
v -0.049534 -0.088449 0.427842
v 0.012670 -0.110164 0.485835
v 0.057022 -0.138188 0.494134
v 0.072927 -0.131922 0.496482
v 0.019631 -0.099697 0.486711
v 0.028251 -0.226707 0.506026
v -0.045772 -0.223629 0.507702
v -0.054871 -0.233171 0.503308
v 0.037150 -0.233171 0.503435
v 0.094702 -0.229424 0.508985
v 0.073818 -0.222118 0.508504
v -0.079258 -0.226011 0.502049
v -0.128501 -0.228123 0.495335
v -0.148032 -0.233170 0.496928
v -0.086490 -0.233170 0.499261
v -0.100665 -0.107978 0.424125
v -0.098885 -0.109809 0.432994
v -0.053783 -0.091843 0.436547
v -0.049534 -0.088449 0.427842
v -0.029760 -0.096860 0.465931
v -0.029343 -0.085753 0.462662
v -0.146253 -0.189977 0.487250
v -0.167432 -0.192130 0.488691
v 0.104068 -0.193794 0.505048
v 0.086382 -0.190199 0.507740
v -0.121074 -0.142467 0.472691
v -0.110559 -0.147815 0.473892
v 0.012670 -0.110164 0.485835
v -0.008215 -0.139459 0.423738
v 0.018897 -0.153749 0.432311
v 0.057022 -0.138188 0.494134
v 0.028251 -0.226707 0.506026
v -0.003335 -0.215875 0.432853
v -0.046861 -0.216406 0.432566
v -0.045772 -0.223629 0.507702
v 0.073818 -0.222118 0.508504
v 0.032128 -0.195658 0.443750
v 0.028251 -0.226707 0.506026
v -0.065494 -0.210643 0.434072
v -0.081503 -0.196834 0.426728
v -0.128501 -0.228123 0.495335
v -0.079258 -0.226011 0.502049
v -0.098885 -0.109809 0.432994
v -0.074463 -0.134217 0.424317
v -0.043114 -0.122253 0.426887
v -0.053783 -0.091843 0.436547
v -0.029760 -0.096860 0.465931
v -0.029137 -0.128904 0.425707
v -0.079023 -0.173841 0.418318
v -0.146253 -0.189977 0.487250
v 0.086382 -0.190199 0.507740
v 0.024565 -0.173352 0.437929
v -0.046861 -0.216406 0.432566
v -0.045772 -0.223629 0.507702
v -0.110559 -0.147815 0.473892
v -0.077132 -0.155333 0.419618
v -0.079023 -0.173841 0.418318
v -0.146253 -0.189977 0.487250
v -0.009893 -0.117156 0.329394
v -0.000645 -0.122818 0.333810
v -0.009995 -0.151095 0.337495
v -0.023725 -0.150860 0.337403
v 0.000434 -0.138249 0.336964
v -0.028892 -0.143536 0.337145
v -0.033057 -0.137777 0.336741
v -0.027009 -0.116497 0.328177
v -0.019511 -0.114473 0.328420
v -0.016016 -0.114386 0.327320
v -0.035005 -0.129265 0.334115
v 0.003331 -0.129849 0.334370
v -0.023725 -0.150860 0.337403
v -0.035005 -0.129265 0.334115
v -0.030532 -0.120374 0.327937
v -0.009893 -0.117156 0.329394
v -0.016016 -0.114386 0.327320
v -0.019511 -0.114473 0.328420
v -0.019511 -0.114473 0.328420
v -0.027009 -0.116497 0.328177
v -0.030532 -0.120374 0.327937
v -0.030532 -0.120374 0.327937
v -0.035005 -0.129265 0.334115
v -0.033057 -0.137777 0.336741
v -0.019511 -0.114473 0.328420
v -0.030532 -0.120374 0.327937
v -0.033057 -0.137777 0.336741
v -0.033057 -0.137777 0.336741
v -0.028892 -0.143536 0.337145
v -0.023725 -0.150860 0.337403
v -0.023725 -0.150860 0.337403
v -0.009995 -0.151095 0.337495
v 0.000434 -0.138249 0.336964
v -0.033057 -0.137777 0.336741
v -0.023725 -0.150860 0.337403
v 0.000434 -0.138249 0.336964
v -0.033057 -0.137777 0.336741
v 0.000434 -0.138249 0.336964
v 0.003331 -0.129849 0.334370
v -0.019511 -0.114473 0.328420
v -0.033057 -0.137777 0.336741
v 0.003331 -0.129849 0.334370
v -0.009893 -0.117156 0.329394
v -0.019511 -0.114473 0.328420
v 0.003331 -0.129849 0.334370
v -0.000645 -0.122818 0.333810
v -0.009893 -0.117156 0.329394
v 0.003331 -0.129849 0.334370
v 0.023606 -0.141859 0.363212
v 0.012857 -0.145363 0.361119
v 0.019998 -0.148118 0.357658
v 0.019998 -0.148118 0.357658
v 0.034913 -0.143081 0.361619
v 0.023606 -0.141859 0.363212
v -0.002935 -0.094008 0.370389
v -0.002721 -0.021326 0.301614
v -0.058055 -0.016920 0.245353
v -0.076231 -0.023244 0.232938
v -0.105526 -0.002263 0.170845
v -0.032826 -0.173464 0.363631
v -0.072267 -0.113316 0.289470
v -0.071077 -0.150221 0.355916
v -0.068875 -0.131410 0.361511
v 0.019905 -0.120519 0.370932
v 0.039295 -0.120655 0.383361
v -0.011291 -0.100437 0.391110
v -0.009925 -0.110975 0.377150
v -0.012507 -0.098205 0.377168
v 0.043663 -0.115415 0.370130
v 0.034081 -0.114308 0.357869
v -0.010794 -0.100091 0.364248
v 0.043663 -0.115415 0.370130
v -0.012507 -0.098205 0.377168
v 0.028075 -0.165316 0.375934
v 0.035328 -0.169169 0.366270
v 0.020970 -0.199491 0.361402
v 0.006842 -0.195112 0.376125
v 0.022829 -0.164166 0.372403
v 0.034070 -0.171660 0.378372
v 0.077035 -0.149130 0.393937
v 0.051712 -0.144995 0.382483
v 0.038312 -0.169552 0.370306
v 0.031230 -0.163437 0.363961
v 0.068188 -0.139316 0.369495
v 0.082625 -0.144478 0.380800
v 0.038312 -0.169552 0.370306
v 0.082625 -0.144478 0.380800
v 0.019905 -0.120519 0.370932
v 0.051712 -0.144995 0.382483
v -0.009925 -0.110975 0.377150
v 0.022829 -0.164166 0.372403
v 0.006842 -0.195112 0.376125
v 0.023729 -0.213921 0.382738
v 0.039549 -0.173619 0.381466
v 0.028075 -0.165316 0.375934
v 0.024449 -0.212198 0.369896
v 0.047265 -0.176768 0.376362
v 0.024449 -0.212198 0.369896
v 0.047265 -0.176768 0.376362
v -0.032878 -0.188777 0.371745
v -0.040285 -0.161106 0.362639
v -0.060633 -0.174911 0.371894
v -0.047719 -0.202772 0.377580
v 0.020970 -0.199491 0.361402
v 0.024449 -0.212198 0.369896
v -0.051031 -0.199648 0.366727
v -0.043932 -0.188451 0.357779
v 0.023729 -0.213921 0.382738
v -0.051031 -0.199648 0.366727
v 0.024449 -0.212198 0.369896
v -0.009925 -0.110975 0.377150
v -0.040394 -0.112999 0.368557
v -0.040645 -0.102711 0.354945
v -0.010794 -0.100091 0.364248
v -0.061916 -0.122504 0.359153
v -0.077532 -0.123241 0.371218
v -0.097866 -0.159460 0.366425
v -0.072443 -0.148370 0.356883
v -0.078158 -0.117027 0.358231
v -0.068191 -0.115609 0.346247
v -0.086611 -0.146554 0.343606
v -0.100847 -0.155125 0.353823
v -0.078158 -0.117027 0.358231
v -0.100847 -0.155125 0.353823
v -0.040285 -0.161106 0.362639
v -0.054612 -0.160051 0.349426
v -0.072443 -0.148370 0.356883
v -0.066004 -0.170339 0.359297
v -0.066004 -0.170339 0.359297
v -0.032878 -0.188777 0.371745
v -0.061916 -0.122504 0.359153
v -0.009925 -0.110975 0.377150
v -0.011291 -0.100437 0.391110
v -0.045725 -0.106661 0.381125
v -0.040394 -0.112999 0.368557
v -0.045265 -0.101994 0.367258
v -0.045265 -0.101994 0.367258
v 0.006842 -0.195112 0.376125
v 0.006842 -0.195112 0.376125
v -0.012507 -0.098205 0.377168
v -0.012507 -0.098205 0.377168
v 0.082676 -0.140004 0.288724
v 0.086721 -0.136213 0.287744
v 0.116269 -0.139082 0.248222
v 0.114307 -0.143760 0.248680
v 0.035328 -0.169169 0.366270
v 0.041805 -0.160818 0.360499
v 0.053793 -0.167272 0.369604
v 0.047265 -0.176768 0.376362
v 0.048449 -0.161996 0.371347
v 0.037686 -0.155396 0.365322
v 0.028075 -0.165316 0.375934
v 0.039549 -0.173619 0.381466
v 0.048449 -0.161996 0.371347
v 0.039549 -0.173619 0.381466
v 0.041805 -0.160818 0.360499
v 0.114307 -0.143760 0.248680
v 0.119858 -0.148776 0.248965
v 0.086796 -0.148144 0.294273
v 0.082676 -0.140004 0.288724
v 0.122821 -0.145096 0.248624
v 0.091056 -0.142319 0.293291
v 0.122821 -0.145096 0.248624
v 0.091056 -0.142319 0.293291
v 0.116269 -0.139082 0.248222
v 0.122821 -0.145096 0.248624
v 0.164768 -0.130686 0.241054
v 0.119858 -0.148776 0.248965
v 0.164768 -0.130686 0.241054
v 0.122821 -0.145096 0.248624
v 0.114307 -0.143760 0.248680
v 0.114307 -0.143760 0.248680
v 0.035328 -0.169169 0.366270
vt 0.274170 0.612549
vt 0.260986 0.544678
vt 0.362549 0.523682
vt 0.354004 0.682861
vt 0.923828 0.251953
vt 0.842285 0.431641
vt 0.741211 0.426270
vt 0.792969 0.253906
vt 0.847168 0.561035
vt 0.749512 0.545166
vt 0.800781 0.679932
vt 0.708008 0.656982
vt 0.709961 0.803223
vt 0.634766 0.743408
vt 0.622070 0.862671
vt 0.578125 0.886841
vt 0.573242 0.878174
vt 0.617188 0.831177
vt 0.501465 0.905273
vt 0.501953 0.883972
vt 0.312744 0.802856
vt 0.349854 0.830688
vt 0.346924 0.852295
vt 0.107239 0.816895
vt 0.071228 0.722412
vt 0.180298 0.705078
vt 0.164429 0.806641
vt 0.057770 0.584473
vt 0.155273 0.575684
vt 0.051270 0.328125
vt 0.152466 0.282715
vt 0.518066 0.093262
vt 0.347412 0.100098
vt 0.336182 0.006348
vt 0.527344 0.003906
vt 0.668457 0.344727
vt 0.725098 0.208008
vt 0.806641 0.152344
vt 0.632324 0.510498
vt 0.639648 0.594482
vt 0.596680 0.649658
vt 0.946289 0.458496
vt 0.964355 0.380859
vt 0.987793 0.440918
vt 0.993652 0.321777
vt 0.302246 0.742432
vt 0.320068 0.721924
vt 0.369629 0.797852
vt 0.298096 0.699219
vt 0.272461 0.702148
vt 0.232544 0.354980
vt 0.150146 0.180664
vt 0.221069 0.265137
vt 0.155518 0.135742
vt 0.269043 0.178223
vt 0.333984 0.230469
vt 0.280273 0.247070
vt 0.360352 0.136230
vt 0.391113 0.221680
vt 0.515625 0.139648
vt 0.650391 0.150879
vt 0.794434 0.122559
vt 0.692871 0.085938
vt 0.017761 0.137695
vt 0.016449 0.060547
vt 0.045258 0.014648
vt 0.156006 0.011719
vt 0.192627 0.116699
vt 0.711914 0.001465
vt 0.945801 0.042969
vt 0.984375 0.057129
vt 0.958984 0.113281
vt 0.354980 0.371094
vt 0.658691 0.253906
vt 0.583984 0.360352
vt 0.604004 0.221680
vt 0.576172 0.513184
vt 0.412842 0.368164
vt 0.421631 0.520752
vt 0.427979 0.702148
vt 0.512207 0.221680
vt 0.534180 0.662354
vt 0.403076 0.833252
vt 0.372803 0.842041
vt 0.505371 0.840210
vt 0.472412 0.837524
vt 0.464600 0.786987
vt 0.605469 0.779785
vt 0.566895 0.772217
vt 0.923828 0.283691
vt 0.879395 0.359375
vt 0.898438 0.424805
vt 0.661133 0.841187
vt 0.952637 0.648926
vt 0.937012 0.709229
vt 0.918945 0.642822
vt 0.921875 0.589355
vt 0.946289 0.561768
vt 0.437744 0.785278
vt 0.982910 0.536377
vt 0.958496 0.495117
vt 0.998047 0.512451
vt 0.962891 0.456055
vt 0.929199 0.472656
vt 0.370117 0.863525
vt 0.905762 0.552490
vt 0.905273 0.492676
vt 0.857422 0.528076
vt 0.937012 0.290527
vt 0.365479 0.522705
vt 0.266602 0.542969
vt 0.279541 0.608887
vt 0.356934 0.677246
vt 0.889648 0.253418
vt 0.783203 0.260742
vt 0.732910 0.428223
vt 0.856445 0.434082
vt 0.740723 0.543457
vt 0.850098 0.546631
vt 0.700684 0.652100
vt 0.778320 0.706055
vt 0.629883 0.735840
vt 0.711426 0.793579
vt 0.621094 0.869141
vt 0.613770 0.832031
vt 0.570801 0.877625
vt 0.575684 0.886108
vt 0.501465 0.883301
vt 0.501465 0.903992
vt 0.334961 0.903137
vt 0.353027 0.820679
vt 0.279785 0.765869
vt 0.255615 0.843628
vt 0.092957 0.787964
vt 0.172974 0.797363
vt 0.188354 0.698975
vt 0.063721 0.672852
vt 0.164062 0.572998
vt 0.053894 0.554932
vt 0.161377 0.289062
vt 0.050659 0.306641
vt 0.350586 0.111328
vt 0.506836 0.104980
vt 0.564941 0.014160
vt 0.364258 0.008789
vt 0.758301 0.019043
vt 0.686035 0.097656
vt 0.784668 0.133301
vt 0.935059 0.026855
vt 0.796387 0.162109
vt 0.652832 0.260742
vt 0.649414 0.436523
vt 0.627441 0.509766
vt 0.634277 0.591553
vt 0.592773 0.645020
vt 0.601562 0.771362
vt 0.563477 0.763916
vt 0.553711 0.831055
vt 0.503906 0.829956
vt 0.428955 0.695801
vt 0.224976 0.288086
vt 0.159180 0.189453
vt 0.231079 0.254883
vt 0.164307 0.145996
vt 0.337646 0.237793
vt 0.252441 0.169434
vt 0.393066 0.229492
vt 0.363525 0.146973
vt 0.479980 0.134277
vt 0.641602 0.165527
vt 0.599609 0.229492
vt 0.030579 0.162598
vt 0.011047 0.056641
vt 0.200439 0.127930
vt 0.119446 0.012695
vt 0.045746 0.022461
vt 0.965332 0.124023
vt 0.994629 0.046387
vt 0.572754 0.512451
vt 0.422607 0.519775
vt 0.531738 0.657227
vt 0.375244 0.831787
vt 0.472656 0.879333
vt 0.471924 0.827393
vt 0.464355 0.778320
vt 0.662109 0.850464
vt 0.976562 0.713623
vt 0.988281 0.623779
vt 0.952637 0.648926
vt 0.937012 0.709229
vt 0.918945 0.642822
vt 0.437744 0.776123
vt 0.404541 0.823242
vt 0.414795 0.843140
vt 0.449463 0.840210
vt 0.982910 0.536377
vt 0.958496 0.495117
vt 0.998047 0.512451
vt 0.962891 0.456055
vt 0.929199 0.472656
vt 0.372559 0.852661
vt 0.905273 0.492676
vt 0.418701 0.861450
vt 0.450928 0.862671
vt 0.988281 0.623779
vt 0.988770 0.589600
vt 0.479004 0.881714
vt 0.472900 0.877380
vt 0.965820 0.558594
vt 0.922852 0.571289
vt 0.947754 0.578369
vt 0.988770 0.589600
vt 1.148438 0.568115
vt 1.261719 0.620605
vt 1.325195 0.404785
vt 1.237305 0.367676
vt 1.315430 0.254395
vt 1.136719 0.319336
vt 1.212891 0.249512
vt 1.279297 0.246582
vt 1.222656 0.322266
vt 1.155273 0.320801
vt 1.565430 0.635742
vt 1.457031 0.611084
vt 1.432617 0.409668
vt 1.503906 0.395020
vt 1.688477 0.668457
vt 1.612305 0.697998
vt 1.629883 0.598633
vt 1.572266 0.675781
vt 1.733398 0.705811
vt 1.677734 0.614014
vt 1.561523 0.607422
vt 1.563477 0.386719
vt 1.585938 0.410645
vt 1.496094 0.397461
vt 1.540039 0.681885
vt 1.463867 0.667969
vt 1.384766 0.246582
vt 1.350586 0.357422
vt 1.206055 0.421387
vt 1.113281 0.421387
vt 1.089844 0.507080
vt 1.462891 0.264160
vt 1.500000 0.257324
vt 1.559570 0.271973
vt 1.463867 0.241211
vt 1.336914 0.401855
vt 1.350586 0.368164
vt 1.352539 0.429199
vt 1.360352 0.627441
vt 1.366211 0.494141
vt 1.404297 0.478516
vt 1.375977 0.427734
vt 1.397461 0.373535
vt 1.374023 0.300293
vt 1.391602 0.303711
vt 1.333008 0.420898
vt 1.347656 0.302246
vt 1.314453 0.381836
vt 1.322266 0.421875
vt 1.333984 0.456543
vt 1.355469 0.474121
vt 1.394531 0.463379
vt 1.422852 0.414062
vt 1.416016 0.305176
vt 1.335938 0.331055
vt 1.303711 0.334961
vt 1.291016 0.305664
vt 1.308594 0.168945
vt 1.291992 0.165527
vt 1.414062 0.259766
vt 1.390625 0.265137
vt 1.399414 0.334961
vt 1.323242 0.354492
vt 1.500000 0.655518
vt 1.458984 0.242188
vt 1.474609 0.382812
vt 1.458008 0.419922
vt 1.471680 0.443848
vt 1.430664 0.430664
vt 1.433594 0.454102
vt 1.416016 0.409180
vt 1.396484 0.412109
vt 1.413086 0.354492
vt 1.352539 0.289062
vt 1.333984 0.169922
vt 1.277344 0.159180
vt 1.260742 0.311523
vt 1.278320 0.351562
vt 1.308594 0.363281
vt 1.362305 0.374512
vt 1.363281 0.351562
vt 1.427734 0.255371
vt 1.151367 0.249512
vt 1.373047 0.264160
vt 1.345703 0.469238
vt 1.268555 0.550049
vt 1.084961 0.428711
vt 0.727539 0.290039
vt 0.688965 0.223145
vt 0.704102 0.212891
vt 0.747559 0.289062
vt 0.351562 0.212402
vt 0.337158 0.286133
vt 0.320557 0.287598
vt 0.336670 0.204102
vt 0.507812 0.169434
vt 0.516602 0.185059
vt 0.420654 0.334473
vt 0.479736 0.373535
vt 0.466064 0.383789
vt 0.399170 0.339355
vt 0.749512 0.424316
vt 0.734863 0.416504
vt 0.747559 0.369629
vt 0.764160 0.372070
vt 0.745117 0.335449
vt 0.768066 0.340820
vt 0.563477 0.409180
vt 0.561035 0.424316
vt 0.606934 0.165039
vt 0.607422 0.183594
vt 0.651855 0.423340
vt 0.645996 0.408203
vt 1.436523 0.099121
vt 1.424805 0.206055
vt 1.383789 0.217773
vt 1.377930 0.075684
vt 1.130859 0.049805
vt 1.190430 0.240723
vt 1.164062 0.253418
vt 1.076172 0.069824
vt 1.226562 0.059082
vt 1.266602 0.231445
vt 1.090820 0.054688
vt 1.736328 0.279785
vt 1.707031 0.267578
vt 1.756836 0.085938
vt 1.819336 0.100098
vt 1.530273 0.143555
vt 1.527344 0.206543
vt 1.481445 0.194336
vt 1.495117 0.132812
vt 1.469727 0.116211
vt 1.450195 0.197266
vt 1.663086 0.248535
vt 1.666992 0.078125
vt 1.309570 0.073730
vt 1.331055 0.223145
vt 1.772461 0.293945
vt 1.900391 0.115234
vt 1.595703 0.093262
vt 1.562500 0.217285
vt 1.607422 0.233398
vt 1.666992 0.078125
vt 1.422852 0.387207
vt 1.391602 0.390137
vt 1.240234 0.403320
vt 1.225586 0.409180
vt 1.303711 0.397461
vt 1.677734 0.449219
vt 1.599609 0.420898
vt 1.481445 0.396973
vt 1.459961 0.391602
vt 1.448242 0.391113
vt 1.533203 0.410156
vt 1.354492 0.393066
vt 1.762695 0.479980
vt 1.533203 0.410156
vt 1.499023 0.401855
vt 0.578125 0.297363
vt 0.578125 0.297363
vt 0.578125 0.297363
vt 0.578125 0.297363
vt 0.578125 0.297852
vt 0.578125 0.297852
vt 0.578125 0.297852
vt 0.577637 0.297852
vt 0.577637 0.297852
vt 0.578125 0.297363
vt 0.578125 0.297852
vt 0.577637 0.297852
vt 0.577637 0.297852
vt 0.577637 0.297363
vt 0.577148 0.297363
vt 0.577148 0.297363
vt 0.577148 0.297363
vt 0.577637 0.297363
vt 0.577637 0.297852
vt 0.577148 0.297363
vt 0.577637 0.297363
vt 0.577637 0.297852
vt 0.577637 0.297363
vt 0.578125 0.297363
vt 0.578125 0.297363
vt 0.577637 0.297852
vt 0.578125 0.297363
vt 0.578125 0.297363
vt 0.578125 0.297363
vt 0.578125 0.297363
vt 0.578125 0.297363
vt 0.578125 0.297363
vt 0.578125 0.297363
vt 0.453125 0.285156
vt 0.409668 0.286621
vt 0.407959 0.253418
vt 0.407959 0.253418
vt 0.471680 0.255371
vt 0.453125 0.285156
vt 0.340820 0.898926
vt 0.259277 0.837646
vt 0.274658 0.774170
vt 0.286865 0.760132
vt 0.265381 0.710693
vt 1.426758 0.256836
vt 0.976074 0.712402
vt 0.449219 0.850830
vt 0.413574 0.853760
vt 0.757812 0.999453
vt 0.757812 0.953400
vt 0.980469 0.953400
vt 0.980469 0.999453
vt 0.000272 0.906433
vt 0.222656 0.906433
vt 0.222656 0.953400
vt 0.000272 0.953400
vt 0.757812 0.906433
vt 0.980469 0.906433
vt 0.752441 0.999453
vt 0.752441 0.953400
vt 0.980469 0.953400
vt 0.980469 0.999453
vt 0.227905 0.999453
vt 0.227905 0.953400
vt 0.490234 0.953400
vt 0.490234 0.999453
vt 0.752441 0.906433
vt 0.752441 0.953400
vt 0.490234 0.953400
vt 0.490234 0.906433
vt 0.227905 0.906433
vt 0.490234 0.906433
vt 0.222656 0.999453
vt 0.490234 0.999453
vt 0.000272 0.999453
vt 0.752441 0.999453
vt 0.000272 0.999453
vt 0.000272 0.953400
vt 0.227905 0.953400
vt 0.227905 0.999453
vt 0.980469 0.906433
vt 0.752441 0.906433
vt 0.000272 0.906433
vt 0.227905 0.906433
vt 0.884277 0.999453
vt 0.757812 0.999453
vt 0.757812 0.953400
vt 0.873047 0.953400
vt 0.000272 0.953400
vt 0.000272 0.906433
vt 0.114502 0.906433
vt 0.107422 0.953400
vt 0.980469 0.953400
vt 0.866211 0.906433
vt 0.980469 0.906433
vt 0.980469 0.999453
vt 0.866699 0.999453
vt 0.855957 0.953400
vt 0.980469 0.953400
vt 0.227905 0.999453
vt 0.227905 0.953400
vt 0.490234 0.953400
vt 0.490234 0.999453
vt 0.752441 0.906433
vt 0.752441 0.953400
vt 0.490234 0.953400
vt 0.490234 0.906433
vt 0.227905 0.906433
vt 0.490234 0.906433
vt 0.222656 0.999453
vt 0.222656 0.953400
vt 0.490234 0.999453
vt 0.222656 0.906433
vt 0.757812 0.906433
vt 0.096375 0.999453
vt 0.752441 0.999453
vt 0.000272 0.999453
vt 0.000272 0.953400
vt 0.124451 0.953400
vt 0.113892 0.999453
vt 0.851562 0.906433
vt 0.128906 0.906433
vt 0.980469 0.999453
vt 0.000272 0.999453
vt 0.000272 0.906433
vt 0.980469 0.906433
vt 0.752441 0.999453
vt 0.752441 0.953400
vt 0.980469 0.953400
vt 0.980469 0.999453
vt -0.611328 0.999453
vt -0.671387 0.999453
vt -0.671387 0.953400
vt -0.611328 0.953400
vt 0.561523 0.906433
vt 0.563965 0.953400
vt 0.490234 0.953400
vt 0.490234 0.906433
vt -0.682617 0.906433
vt -0.611328 0.906433
vt 0.550293 0.999453
vt -1.101562 0.999453
vt -1.101562 0.953400
vt -0.874023 0.953400
vt -0.874023 0.999453
vt 0.980469 0.906433
vt 0.752441 0.906433
vt -1.101562 0.906433
vt -0.874023 0.906433
vt 0.000272 0.953400
vt 0.000272 0.906433
vt 0.106079 0.953094
vt -0.121460 0.953400
vt -0.227295 0.953094
vt -0.121460 0.906433
vt -0.121460 0.999453
vt 0.000272 0.999453
vt 0.490234 0.999453
vn -0.6302 0.6537 0.4188
vn -0.6147 0.7321 0.2936
vn -0.8549 0.4567 0.2459
vn -0.6428 0.5570 0.5259
vn -0.0039 -1.0000 0.0039
vn -0.2855 -0.9582 0.0196
vn -0.0586 -0.9974 0.0430
vn -0.0039 -0.9998 0.0196
vn -0.2684 -0.9610 0.0661
vn -0.0428 -0.9927 0.1129
vn -0.3008 -0.9024 0.3086
vn 0.0039 -0.9859 0.1675
vn -0.4480 -0.7597 0.4714
vn -0.0039 -0.9651 0.2618
vn -0.0039 -0.9631 0.2691
vn -0.5666 -0.7933 0.2227
vn -0.5883 -0.6272 0.5104
vn -0.0039 -0.9510 0.3092
vn -0.3323 -0.9343 0.1290
vn -0.8011 0.0273 0.5979
vn -0.9869 -0.0195 0.1599
vn -0.8387 0.4642 0.2848
vn 0.0353 0.7106 0.7027
vn -0.0512 0.8778 0.4763
vn -0.4922 0.7285 0.4765
vn -0.5509 0.6056 0.5743
vn 0.0039 0.9533 0.3021
vn -0.4195 0.8665 0.2705
vn -0.0039 0.9843 0.1765
vn -0.3268 0.9252 0.1929
vn -0.3501 -0.1928 -0.9166
vn -0.4038 0.0509 -0.9134
vn -0.0119 0.0355 -0.9993
vn -0.0039 -0.0983 -0.9951
vn -0.4255 -0.8862 0.1834
vn -0.4637 -0.8766 -0.1286
vn -0.5968 -0.7996 0.0663
vn -0.6986 -0.6596 0.2771
vn -0.7651 -0.3845 0.5165
vn -0.4873 -0.4561 0.7446
vn -0.4548 -0.6958 0.5559
vn -0.4014 -0.7756 0.4872
vn -0.7434 -0.5721 0.3464
vn -0.7698 0.1758 0.6135
vn -0.3662 0.6812 0.6339
vn -0.5210 0.6699 0.5289
vn -0.4136 0.6893 0.5948
vn -0.3878 0.4661 0.7952
vn -0.6521 0.7223 0.2304
vn -0.4761 0.8774 -0.0590
vn -0.7511 0.6568 0.0669
vn -0.6482 0.6011 -0.4675
vn -0.8521 0.3966 -0.3416
vn -0.9709 0.2222 -0.0897
vn -0.8962 0.4422 -0.0352
vn -0.7740 0.0275 -0.6326
vn -0.9738 0.0743 -0.2151
vn -0.7306 -0.2461 -0.6369
vn -0.4961 -0.7774 -0.3867
vn -0.1925 -0.7503 -0.6325
vn -0.0040 1.0000 0.0039
vn 0.0040 0.7304 -0.6830
vn 0.0039 0.1139 -0.9935
vn -0.5553 0.3190 -0.7680
vn -0.0039 -0.7450 -0.6670
vn -0.9157 0.3936 0.0818
vn -0.4797 -0.8774 0.0039
vn -0.9475 -0.3158 0.0506
vn -0.8846 -0.4014 -0.2377
vn -0.9165 -0.3471 0.1989
vn -0.9904 0.1370 0.0196
vn -0.9590 0.1526 0.2388
vn -0.7450 0.1443 0.6513
vn -0.9501 -0.1916 -0.2463
vn -0.8287 -0.1439 0.5408
vn -0.5470 0.7280 0.4132
vn -0.6876 0.6797 0.2554
vn -0.6924 0.4029 0.5985
vn -0.7011 0.3329 0.6306
vn -0.5666 -0.7933 0.2228
vn 0.0039 -0.9859 0.1676
vn -0.9654 -0.1993 0.1681
vn -0.6867 -0.3297 0.6479
vn -0.7537 -0.4569 0.4725
vn -0.7129 0.3935 0.5805
vn -0.8116 0.5841 -0.0117
vn -0.3330 0.7405 0.5838
vn -0.8882 -0.3326 0.3169
vn 0.0196 0.3256 0.9453
vn -0.0196 0.4424 0.8966
vn -0.3626 -0.9319 -0.0039
vn 0.8357 0.4904 0.2472
vn 0.6019 0.7356 0.3108
vn 0.5574 0.7235 0.4072
vn 0.6580 0.5556 0.5083
vn 0.0274 -0.9987 0.0431
vn 0.1598 -0.9862 0.0429
vn 0.1987 -0.9778 0.0662
vn 0.1987 -0.9468 0.2533
vn 0.4251 -0.8073 0.4095
vn 0.3489 -0.8899 0.2940
vn 0.3639 -0.8960 0.2543
vn -0.0039 -0.9631 0.2690
vn 0.3242 -0.8007 0.5038
vn 0.6498 0.2639 0.7128
vn 0.5168 0.6509 0.5562
vn 0.5167 0.6509 0.5562
vn 0.3979 0.7839 0.4766
vn 0.3980 0.8630 0.3113
vn 0.3032 0.9332 0.1929
vn 0.2414 0.0435 -0.9695
vn 0.2488 -0.1303 -0.9597
vn -0.0118 0.0356 -0.9993
vn 0.2317 -0.7186 -0.6557
vn 0.5840 -0.8113 0.0274
vn 0.4958 -0.8550 0.1523
vn 0.5187 -0.8464 0.1209
vn 0.6360 -0.7140 0.2926
vn 0.7269 -0.4362 0.5305
vn 0.5842 -0.6469 0.4901
vn 0.4965 -0.8170 0.2932
vn 0.3706 -0.9089 0.1911
vn 0.7462 -0.4258 0.5118
vn 0.7646 0.0823 0.6392
vn 0.7341 0.6557 0.1766
vn 0.4603 0.8852 -0.0669
vn 0.8590 0.5107 0.0356
vn 0.6577 0.5632 -0.5002
vn 0.9720 0.2007 -0.1220
vn 0.8024 0.2965 -0.5179
vn 0.9706 0.0197 -0.2397
vn 0.6748 0.0118 -0.7379
vn 0.6117 -0.1460 -0.7775
vn 0.6311 -0.6623 -0.4038
vn 0.9604 -0.2156 -0.1764
vn -0.0040 1.0000 0.0040
vn 0.0039 0.7304 -0.6830
vn 0.5078 0.2795 -0.8149
vn 0.9238 -0.3105 0.2241
vn 0.9500 0.2169 0.2246
vn 0.8192 -0.1215 0.5605
vn 0.5211 -0.1371 0.8424
vn 0.3241 -0.8007 0.5038
vn 0.6651 0.5549 0.4998
vn 0.8601 -0.0589 0.5066
vn 0.4034 -0.9126 0.0666
vn 0.7227 -0.6758 0.1446
vn 0.9903 -0.1381 -0.0118
vn 0.7440 0.4842 0.4605
vn 0.6469 0.4038 0.6469
vn 0.7227 -0.6758 0.1445
vn 0.4673 0.0275 0.8836
vn 0.6305 -0.4738 0.6148
vn 0.6305 -0.4739 0.6148
vn 0.4813 0.1839 0.8570
vn 0.4566 -0.5971 0.6596
vn -0.7128 -0.5959 -0.3700
vn -0.3930 -0.9144 0.0973
vn -0.3627 -0.9319 -0.0039
vn 0.3241 -0.8007 0.5039
vn 0.5971 -0.1678 0.7844
vn 0.4566 -0.5971 0.6595
vn 0.1686 0.7569 0.6314
vn 0.5130 0.6070 0.6070
vn 0.6115 0.7851 -0.0987
vn 0.4620 0.8805 -0.1066
vn 0.3045 0.9215 -0.2412
vn -0.0118 0.9645 -0.2638
vn -0.1061 0.7669 -0.6330
vn -0.4934 0.5486 -0.6749
vn -0.6105 0.6893 -0.3900
vn -0.0430 -0.9969 -0.0665
vn -0.3404 -0.8256 -0.4500
vn -0.5528 -0.3960 -0.7332
vn -0.2237 -0.8832 -0.4122
vn -0.0040 -0.8582 0.5133
vn -0.0584 -0.8065 0.5883
vn 0.1294 -0.9841 -0.1216
vn 0.6689 -0.6297 0.3950
vn -0.0040 -0.8582 0.5134
vn 0.4830 -0.7501 -0.4516
vn 0.2938 -0.8736 -0.3879
vn 0.2938 -0.8736 -0.3878
vn 0.6158 -0.5688 -0.5452
vn -0.0664 -0.8563 0.5122
vn -0.5982 -0.6686 0.4418
vn -0.5145 -0.4910 -0.7031
vn -0.9017 -0.3318 -0.2771
vn -0.7260 0.6868 -0.0353
vn -0.1138 0.9931 0.0275
vn -0.2550 0.8593 0.4434
vn -0.2950 -0.6097 -0.7356
vn 0.5719 -0.5641 -0.5956
vn 0.5719 -0.5640 -0.5956
vn 0.5378 -0.5300 -0.6556
vn -0.3874 -0.9117 -0.1369
vn -0.2617 -0.8084 -0.5272
vn -0.7233 -0.4261 -0.5434
vn -0.9301 0.0973 0.3541
vn -0.7957 0.1607 -0.5840
vn -0.7870 -0.1762 -0.5913
vn -0.4513 -0.0510 -0.8909
vn -0.7285 0.3111 -0.6104
vn -0.3249 -0.7320 -0.5989
vn -0.4522 -0.5859 -0.6724
vn -0.9596 -0.2781 -0.0431
vn -0.5145 -0.4909 -0.7030
vn -0.8261 0.1135 -0.5520
vn -0.5142 -0.4436 -0.7341
vn 0.3173 -0.7873 -0.5288
vn 0.8476 0.3114 -0.4297
vn 0.8502 0.4864 -0.2017
vn 0.2237 -0.8597 -0.4593
vn 0.8668 0.3681 -0.3364
vn 0.7294 -0.1853 -0.6585
vn 0.8504 0.0910 -0.5182
vn 0.8786 0.2246 -0.4215
vn 0.2087 -0.1614 -0.9646
vn 0.8840 -0.0040 0.4675
vn 0.7993 0.1614 -0.5788
vn 0.7397 0.3520 -0.5735
vn 0.7067 0.2566 -0.6593
vn 0.8621 -0.3661 -0.3504
vn 0.0746 -0.2630 -0.9619
vn 0.9441 0.2331 -0.2331
vn 0.9509 -0.0908 -0.2959
vn 0.8525 0.5224 0.0197
vn 0.1136 -0.8971 -0.4270
vn 0.0818 -0.9314 -0.3546
vn 0.0746 -0.2631 -0.9619
vn 0.9509 -0.0907 -0.2959
vn 0.0819 -0.9314 -0.3546
vn 0.6344 0.7606 -0.1379
vn -0.4836 0.6960 0.5308
vn -0.4342 -0.3012 0.8489
vn -0.4267 -0.1683 0.8886
vn 0.1687 0.7569 0.6314
vn -0.0589 0.4667 0.8824
vn -0.0430 0.5036 0.8628
vn -0.0039 -0.8582 0.5133
vn -0.2392 0.2235 0.9449
vn -0.1295 0.5455 0.8281
vn 0.0902 0.6472 0.7570
vn -0.0665 -0.8563 0.5122
vn -0.2079 0.7335 0.6472
vn -0.5512 0.4886 0.6763
vn -0.6040 -0.2143 0.7676
vn -0.2551 0.8593 0.4434
vn 0.2848 0.2224 0.9324
vn 0.8840 -0.0039 0.4675
vn -0.2074 0.1526 0.9663
vn -0.4836 0.6959 0.5308
vn 0.5291 0.1528 0.8347
vn -0.4719 -0.8698 0.1443
vn -0.7995 -0.5109 0.3159
vn -0.0588 0.4667 0.8825
vn -0.2313 0.8741 0.4272
vn 0.1302 0.9113 0.3906
vn -0.0429 0.5037 0.8628
vn -0.7408 0.3175 0.5919
vn 0.2955 0.8234 0.4845
vn 0.5520 0.4972 0.6694
vn 0.6546 -0.3175 0.6860
vn -0.0195 -0.7522 0.6587
vn -0.5512 0.4887 0.6763
vn -0.6040 -0.2143 0.7677
vn -0.4549 -0.8516 0.2605
vn 0.8276 -0.0196 0.5609
vn -0.2073 0.1526 0.9663
vn -0.9047 -0.2076 0.3721
vn -0.0429 0.5036 0.8628
vn 0.8646 -0.1682 0.4734
vn -0.3794 -0.9035 -0.1995
vn -0.6184 -0.7740 -0.1361
vn -0.3793 0.7312 0.5670
vn 0.3572 0.6948 0.6242
vn -0.8044 0.4355 0.4041
vn 0.6083 0.4905 0.6240
vn 0.6967 0.3897 0.6023
vn 0.4733 -0.8802 0.0352
vn 0.0745 -0.9916 -0.1058
vn -0.2156 -0.9604 -0.1764
vn 0.8864 -0.0434 0.4609
vn -0.9672 -0.2310 0.1057
vn 0.8864 -0.0433 0.4609
vn 0.7859 -0.5904 0.1838
vn 0.1607 0.7957 0.5840
vn -0.0274 -0.0431 0.9987
vn 0.4362 0.3497 0.8291
vn -0.2858 0.4581 0.8417
vn 0.7610 0.5243 -0.3822
vn -0.0117 0.0431 0.9990
vn -0.0039 0.2927 0.9562
vn -0.0195 0.3395 0.9404
vn 0.0039 0.3721 0.9282
vn -0.5326 -0.2372 0.8125
vn 0.0818 -0.6890 0.7202
vn 0.0273 -0.6749 0.7374
vn -0.8449 0.3154 0.4322
vn -0.7062 0.2770 0.6516
vn -0.5142 -0.4436 -0.7340
vn -0.7129 0.3935 0.5804
vn -0.7128 -0.5959 -0.3699
vn -0.8116 0.5842 -0.0117
vn -0.4168 -0.8919 -0.1753
vn -0.0195 0.3626 0.9317
vn 0.0507 0.3158 0.9475
vn -0.1051 -0.9927 0.0584
vn 0.0905 0.9950 0.0433
vn 0.5016 0.8649 0.0197
vn 0.0985 0.2719 -0.9573
vn 0.1536 0.4213 -0.8938
vn 0.0904 0.9950 0.0432
vn -0.6565 0.6801 0.3263
vn -0.2711 -0.1218 -0.9548
vn 0.1457 -0.0433 -0.9884
vn -0.1922 0.7883 0.5844
vn -0.6008 0.7028 0.3809
vn -0.0900 -0.4186 0.9037
vn 0.5603 -0.2312 0.7954
vn -0.8139 0.0273 0.5803
vn 0.4990 -0.7347 -0.4597
vn -0.2087 0.5632 -0.7995
vn 0.3989 0.0908 -0.9125
vn 0.9921 0.0276 -0.1225
vn 0.9921 0.0277 -0.1225
vn -0.4168 -0.8920 -0.1753
vn -0.8140 0.0272 0.5803
vn -0.6008 0.7029 0.3809
vn -0.1921 0.7884 0.5844
vn 0.2536 -0.7219 0.6438
vn 0.1915 0.2150 0.9576
vn 0.4020 -0.7845 -0.4722
vn 0.9290 -0.3254 0.1764
vn 0.3015 0.7480 0.5913
vn 0.7774 0.6118 0.1460
vn -0.4485 -0.0351 0.8931
vn -0.4080 -0.6178 0.6722
vn -0.5822 -0.7151 -0.3869
vn 0.1373 -0.2393 -0.9612
vn 0.2536 -0.7219 0.6439
vn 0.4020 -0.7845 -0.4723
vn 0.2613 -0.9635 -0.0585
vn 0.1775 0.3905 -0.9033
vn 0.6633 -0.7418 -0.0981
vn -0.3323 0.1290 0.9343
vn -0.6484 -0.4231 0.6329
vn 0.7584 0.4912 0.4283
vn -0.7016 0.7094 -0.0666
vn 0.0356 0.4070 -0.9127
vn -0.2248 -0.0118 -0.9743
vn -0.9027 -0.2306 -0.3634
vn -0.7016 0.7094 -0.0667
vn 0.7775 0.6117 0.1460
vn 0.2879 0.2090 -0.9346
vn 0.7584 0.4912 0.4284
vn -0.4350 -0.7171 -0.5446
vn -0.4349 -0.7171 -0.5447
vn 0.3015 0.7479 0.5913
vn 0.6633 -0.7419 -0.0981
vn -0.3235 0.1131 0.9394
vn 0.2614 -0.9635 -0.0585
vn -0.3036 0.9504 0.0670
vn -0.3037 0.9504 0.0671
vn -0.1922 0.7884 0.5844
vn 0.0904 0.9950 0.0433
vn -0.8480 0.0508 -0.5276
vn -0.1138 0.9929 -0.0353
vn 0.0197 0.8409 -0.5409
vn -0.5769 -0.2394 -0.7810
vn -0.5436 -0.4967 -0.6766
vn 0.9102 -0.3665 0.1931
vn 0.4121 0.6162 0.6711
vn -0.5374 0.8433 -0.0039
vn 0.1915 0.2150 0.9577
vn 0.2389 -0.8969 -0.3721
vn 0.1287 -0.9869 -0.0975
vn -0.8480 0.0508 -0.5275
vn 0.3646 0.0588 0.9293
vn 0.7890 0.2316 0.5691
vn 0.3647 0.0588 0.9293
vn 0.9499 0.2720 -0.1538
vn 0.9499 0.2720 -0.1537
vn -0.5769 -0.2394 -0.7809
usemtl Material.019
s 1
f 1/1/1 2/2/2 3/3/3
f 3/3/3 4/4/4 1/1/1
f 5/5/5 6/6/5 7/7/6
f 7/7/6 8/8/7 5/5/5
f 6/6/5 9/9/8 10/10/9
f 10/10/9 7/7/6 6/6/5
f 9/9/8 11/11/10 12/12/11
f 12/12/11 10/10/9 9/9/8
f 11/11/10 13/13/12 14/14/13
f 14/14/13 12/12/11 11/11/10
f 15/15/14 16/16/15 17/17/16
f 17/17/16 18/18/17 15/15/14
f 19/19/18 20/20/19 17/17/16
f 17/17/16 16/16/15 19/19/18
f 21/21/20 22/22/21 23/23/22
f 24/24/23 25/25/24 26/26/25
f 26/26/25 27/27/26 24/24/23
f 25/25/24 28/28/27 29/29/28
f 29/29/28 26/26/25 25/25/24
f 28/28/27 30/30/29 31/31/30
f 31/31/30 29/29/28 28/28/27
f 32/32/31 33/33/32 34/34/33
f 34/34/33 35/35/34 32/32/31
f 8/8/7 36/36/35 37/37/36
f 37/37/36 38/38/5 8/8/7
f 8/8/7 7/7/6 39/39/37
f 39/39/37 36/36/35 8/8/7
f 7/7/6 10/10/9 39/39/37
f 10/10/9 12/12/11 40/40/38
f 40/40/38 39/39/37 10/10/9
f 12/12/11 14/14/13 41/41/39
f 41/41/39 40/40/38 12/12/11
f 42/42/40 43/43/41 44/44/42
f 43/43/41 45/45/43 44/44/42
f 46/46/44 47/47/45 48/48/46
f 48/48/46 22/22/21 46/46/44
f 49/49/47 47/47/45 46/46/44
f 46/46/44 50/50/48 49/49/47
f 26/26/25 29/29/28 2/2/2
f 2/2/2 1/1/1 26/26/25
f 29/29/28 31/31/30 51/51/49
f 51/51/49 2/2/2 29/29/28
f 31/31/30 52/52/50 53/53/51
f 53/53/51 51/51/49 31/31/30
f 54/54/52 53/53/51 52/52/50
f 55/55/53 56/56/54 57/57/55
f 58/58/56 59/59/57 56/56/54
f 56/56/54 55/55/53 58/58/56
f 58/58/56 33/33/32 32/32/31
f 32/32/31 60/60/58 58/58/56
f 38/38/5 37/37/36 61/61/59
f 62/62/5 38/38/5 61/61/59
f 63/63/60 62/62/5 61/61/59
f 30/30/29 64/64/61 52/52/50
f 52/52/50 31/31/30 30/30/29
f 64/64/61 65/65/62 54/54/52
f 54/54/52 52/52/50 64/64/61
f 66/66/62 67/67/63 68/68/64
f 68/68/64 54/54/52 66/66/62
f 68/68/64 67/67/63 34/34/33
f 34/34/33 33/33/32 68/68/64
f 69/69/65 70/70/5 62/62/5
f 62/62/5 63/63/60 69/69/65
f 71/71/5 72/72/5 38/38/5
f 38/38/5 62/62/5 71/71/5
f 72/72/5 5/5/5 8/8/7
f 8/8/7 38/38/5 72/72/5
f 51/51/49 73/73/66 3/3/3
f 3/3/3 2/2/2 51/51/49
f 57/57/55 56/56/54 73/73/66
f 74/74/67 36/36/35 75/75/68
f 75/75/68 76/76/69 74/74/67
f 75/75/68 36/36/35 39/39/37
f 39/39/37 77/77/70 75/75/68
f 77/77/70 39/39/37 40/40/38
f 40/40/38 41/41/39 77/77/70
f 59/59/57 78/78/71 73/73/66
f 73/73/66 56/56/54 59/59/57
f 78/78/71 79/79/72 3/3/3
f 3/3/3 73/73/66 78/78/71
f 3/3/3 79/79/72 80/80/73
f 80/80/73 4/4/4 3/3/3
f 78/78/71 59/59/57 81/81/74
f 77/77/70 79/79/72 78/78/71
f 78/78/71 75/75/68 77/77/70
f 82/82/75 80/80/73 79/79/72
f 41/41/39 82/82/75 79/79/72
f 77/77/70 41/41/39 79/79/72
f 83/83/76 84/84/77 22/22/21
f 22/22/21 48/48/46 83/83/76
f 85/85/43 86/86/78 87/87/79
f 14/14/13 88/88/40 89/89/42
f 89/89/42 41/41/39 14/14/13
f 88/88/40 14/14/13 18/18/17
f 89/89/42 82/82/75 41/41/39
f 90/90/19 43/43/41 91/91/80
f 91/91/80 43/43/41 92/92/17
f 93/93/81 15/15/14 18/18/17
f 18/18/17 14/14/13 93/93/81
f 94/94/82 95/95/79 96/96/78
f 96/96/78 97/97/83 98/98/84
f 98/98/84 94/94/82 96/96/78
f 99/99/85 83/83/76 48/48/46
f 100/100/86 101/101/87 102/102/76
f 103/103/76 101/101/87 104/104/77
f 22/22/21 84/84/77 105/105/88
f 105/105/88 23/23/22 22/22/21
f 104/104/77 101/101/87 106/106/89
f 106/106/89 107/107/88 104/104/77
f 107/107/88 106/106/89 108/108/90
f 43/43/41 90/90/19 109/109/91
f 109/109/91 45/45/43 43/43/41
f 82/82/75 89/89/42 85/85/43
f 43/43/41 42/42/40 92/92/17
f 87/87/79 82/82/75 85/85/43
f 110/110/92 111/111/93 112/112/94
f 112/112/94 113/113/95 110/110/92
f 114/114/5 115/115/96 116/116/97
f 116/116/97 117/117/5 114/114/5
f 117/117/5 116/116/97 118/118/98
f 118/118/98 119/119/8 117/117/5
f 119/119/8 118/118/98 120/120/99
f 120/120/99 121/121/10 119/119/8
f 121/121/10 120/120/99 122/122/100
f 122/122/100 123/123/81 121/121/10
f 124/124/14 125/125/101 126/126/102
f 126/126/102 127/127/103 124/124/14
f 126/126/102 128/128/104 129/129/18
f 129/129/18 127/127/103 126/126/102
f 130/130/90 131/131/105 132/132/106
f 132/132/106 133/133/23 130/130/90
f 134/134/23 135/135/107 136/136/108
f 136/136/108 137/137/24 134/134/23
f 137/137/24 136/136/108 138/138/109
f 138/138/109 139/139/27 137/137/24
f 139/139/27 138/138/109 140/140/110
f 140/140/110 141/141/29 139/139/27
f 142/142/111 143/143/112 144/144/34
f 144/144/34 145/145/113 142/142/111
f 146/146/65 147/147/114 148/148/5
f 148/148/5 149/149/5 146/146/65
f 150/150/5 148/148/5 151/151/115
f 115/115/96 150/150/5 151/151/115
f 116/116/97 152/152/116 153/153/117
f 153/153/117 118/118/98 116/116/97
f 118/118/98 153/153/117 154/154/118
f 154/154/118 120/120/99 118/118/98
f 120/120/99 154/154/118 155/155/119
f 155/155/119 122/122/100 120/120/99
f 156/156/120 157/157/121 158/158/122
f 158/158/122 157/157/121 159/159/123
f 131/131/105 160/160/124 113/113/95
f 113/113/95 132/132/106 131/131/105
f 132/132/106 113/113/95 112/112/94
f 112/112/94 136/136/108 132/132/106
f 136/136/108 112/112/94 111/111/93
f 111/111/93 138/138/109 136/136/108
f 138/138/109 111/111/93 161/161/125
f 161/161/125 162/162/126 140/140/110
f 138/138/109 161/161/125 140/140/110
f 163/163/127 164/164/128 162/162/126
f 162/162/126 161/161/125 163/163/127
f 163/163/127 165/165/129 166/166/130
f 165/165/129 167/167/131 168/168/132
f 168/168/132 166/166/130 165/165/129
f 168/168/132 167/167/131 169/169/133
f 170/170/134 171/171/135 151/151/115
f 162/162/126 172/172/136 141/141/29
f 141/141/29 140/140/110 162/162/126
f 164/164/128 173/173/137 172/172/136
f 172/172/136 162/162/126 164/164/128
f 174/174/138 175/175/63 176/176/62
f 176/176/62 164/164/128 174/174/138
f 142/142/111 145/145/113 175/175/63
f 175/175/63 174/174/138 142/142/111
f 150/150/5 177/177/5 178/178/5
f 178/178/5 148/148/5 150/150/5
f 115/115/96 114/114/5 177/177/5
f 177/177/5 150/150/5 115/115/96
f 165/165/129 163/163/127 161/161/125
f 110/110/92 165/165/129 161/161/125
f 111/111/93 110/110/92 161/161/125
f 179/179/139 153/153/117 152/152/116
f 179/179/139 152/152/116 151/151/115
f 179/179/139 151/151/115 171/171/135
f 179/179/139 155/155/119 154/154/118
f 154/154/118 153/153/117 179/179/139
f 110/110/92 180/180/140 167/167/131
f 167/167/131 165/165/129 110/110/92
f 110/110/92 113/113/95 160/160/124
f 160/160/124 180/180/140 110/110/92
f 179/179/139 171/171/135 167/167/131
f 167/167/131 180/180/140 179/179/139
f 180/180/140 160/160/124 181/181/141
f 180/180/140 181/181/141 155/155/119
f 180/180/140 155/155/119 179/179/139
f 160/160/124 131/131/105 182/182/142
f 183/183/143 159/159/123 184/184/144
f 185/185/145 184/184/144 159/159/123
f 122/122/100 155/155/119 157/157/121
f 157/157/121 156/156/120 122/122/100
f 156/156/120 125/125/101 122/122/100
f 157/157/121 155/155/119 181/181/141
f 128/128/104 126/126/102 158/158/122
f 126/126/102 125/125/101 158/158/122
f 186/186/81 122/122/100 125/125/101
f 125/125/101 124/124/14 186/186/81
f 187/187/146 188/188/147 189/189/148
f 187/187/146 189/189/148 190/190/145
f 189/189/148 191/191/144 190/190/145
f 192/192/146 160/160/124 193/193/149
f 193/193/149 194/194/150 195/195/151
f 192/192/146 193/193/149 195/195/151
f 106/106/89 196/196/150 197/197/152
f 196/196/150 198/198/149 197/197/152
f 199/199/149 200/200/142 197/197/152
f 131/131/105 130/130/90 201/201/153
f 201/201/153 182/182/142 131/131/105
f 200/200/142 202/202/154 106/106/89
f 106/106/89 197/197/152 200/200/142
f 203/203/155 204/204/156 195/195/151
f 195/195/151 194/194/150 203/203/155
f 202/202/154 108/108/90 106/106/89
f 128/128/104 158/158/122 159/159/123
f 181/181/141 159/159/123 157/157/121
f 158/158/122 125/125/101 156/156/120
f 205/205/157 94/94/82 98/98/84
f 98/98/84 206/206/158 205/205/157
f 85/85/43 207/207/159 208/208/83
f 208/208/83 86/86/78 85/85/43
f 209/209/155 196/196/150 106/106/89
f 210/210/160 191/191/144 211/211/161
f 211/211/161 189/189/148 188/188/147
f 188/188/147 212/212/162 211/211/161
f 191/191/144 189/189/148 211/211/161
f 100/100/86 106/106/89 101/101/87
f 213/213/163 214/214/164 215/215/165
f 215/215/165 216/216/166 213/213/163
f 217/217/167 218/218/168 216/216/166
f 219/219/169 220/220/170 221/221/171
f 221/221/171 222/222/168 219/219/169
f 223/223/172 224/224/173 225/225/174
f 225/225/174 226/226/175 223/223/172
f 227/227/176 228/228/177 223/223/172
f 223/223/172 229/229/178 227/227/176
f 230/230/179 231/231/180 232/232/178
f 232/232/178 233/233/181 230/230/179
f 226/226/175 234/234/182 229/229/178
f 229/229/178 223/223/172 226/226/175
f 232/232/178 235/235/183 236/236/184
f 236/236/184 233/233/181 232/232/178
f 237/237/185 238/238/186 224/224/173
f 224/224/173 223/223/172 237/237/185
f 239/239/187 240/240/188 221/221/171
f 221/221/171 220/220/170 239/239/187
f 241/241/189 242/242/190 222/222/168
f 222/222/168 221/221/171 241/241/189
f 213/213/163 216/216/166 243/243/191
f 226/226/175 244/244/192 245/245/193
f 245/245/193 234/234/182 226/226/175
f 235/235/183 246/246/194 247/247/195
f 247/247/195 236/236/184 235/235/183
f 248/248/196 249/249/197 250/250/198
f 224/224/173 238/238/186 251/251/199
f 224/224/173 251/251/199 252/252/200
f 224/224/173 252/252/200 253/253/201
f 254/254/202 250/250/198 249/249/197
f 249/249/197 255/255/203 254/254/202
f 255/255/203 256/256/204 257/257/205
f 221/221/171 240/240/188 258/258/206
f 258/258/206 241/241/189 221/221/171
f 259/259/207 256/256/204 249/249/197
f 249/249/197 260/260/188 259/259/207
f 260/260/188 249/249/197 248/248/196
f 248/248/196 261/261/206 260/260/188
f 261/261/206 248/248/196 250/250/198
f 250/250/198 262/262/208 261/261/206
f 262/262/208 250/250/198 263/263/200
f 264/264/201 263/263/200 250/250/198
f 250/250/198 254/254/202 264/264/201
f 253/253/201 225/225/174 224/224/173
f 254/254/202 255/255/203 265/265/174
f 265/265/174 264/264/201 254/254/202
f 255/255/203 257/257/205 266/266/209
f 266/266/209 265/265/174 255/255/203
f 267/267/210 268/268/211 269/269/212
f 270/270/213 267/267/210 269/269/212
f 271/271/214 270/270/213 269/269/212
f 272/272/215 273/273/216 274/274/217
f 267/267/210 275/275/218 268/268/211
f 276/276/219 230/230/179 233/233/181
f 247/247/195 277/277/220 278/278/221
f 278/278/221 236/236/184 247/247/195
f 236/236/184 278/278/221 279/279/222
f 279/279/222 280/280/223 236/236/184
f 279/279/222 281/281/224 282/282/225
f 282/282/225 280/280/223 279/279/222
f 283/283/226 282/282/225 281/281/224
f 276/276/219 280/280/223 282/282/225
f 214/214/164 276/276/219 282/282/225
f 214/214/164 282/282/225 284/284/227
f 215/215/165 214/214/164 284/284/227
f 284/284/227 282/282/225 283/283/226
f 274/274/217 284/284/227 283/283/226
f 283/283/226 285/285/228 274/274/217
f 286/286/228 267/267/210 270/270/213
f 270/270/213 287/287/229 286/286/228
f 288/288/220 271/271/214 269/269/212
f 269/269/212 289/289/221 288/288/220
f 289/289/221 269/269/212 268/268/211
f 268/268/211 290/290/222 289/289/221
f 290/290/222 268/268/211 275/275/218
f 275/275/218 291/291/230 290/290/222
f 292/292/224 275/275/218 267/267/210
f 267/267/210 293/293/231 292/292/224
f 293/293/231 267/267/210 286/286/228
f 294/294/232 272/272/215 274/274/217
f 274/274/217 285/285/228 294/294/232
f 295/295/167 219/219/169 222/222/168
f 284/284/227 274/274/217 273/273/216
f 284/284/227 273/273/216 296/296/233
f 284/284/227 296/296/233 215/215/165
f 296/296/233 217/217/167 216/216/166
f 216/216/166 215/215/165 296/296/233
f 223/223/172 228/228/177 237/237/185
f 258/258/206 297/297/208 298/298/234
f 298/298/234 241/241/189 258/258/206
f 252/252/200 251/251/199 298/298/234
f 298/298/234 297/297/208 252/252/200
f 216/216/166 218/218/168 299/299/190
f 299/299/190 243/243/191 216/216/166
f 300/300/235 301/301/236 302/302/164
f 302/302/164 303/303/237 300/300/235
f 304/304/238 305/305/239 306/306/177
f 306/306/177 307/307/240 304/304/238
f 308/308/179 309/309/241 304/304/238
f 304/304/238 307/307/240 308/308/179
f 310/310/242 311/311/243 312/312/186
f 312/312/186 313/313/244 310/310/242
f 314/314/189 315/315/245 316/316/246
f 316/316/246 317/317/190 314/314/189
f 318/318/247 300/300/235 303/303/237
f 303/303/237 319/319/248 318/318/247
f 311/311/243 320/320/249 321/321/199
f 321/321/199 312/312/186 311/311/243
f 322/322/250 323/323/251 309/309/241
f 309/309/241 308/308/179 322/322/250
f 301/301/236 323/323/251 322/322/250
f 322/322/250 302/302/164 301/301/236
f 305/305/239 310/310/242 313/313/244
f 313/313/244 306/306/177 305/305/239
f 324/324/252 325/325/253 315/315/245
f 315/315/245 314/314/189 324/324/252
f 321/321/199 320/320/249 325/325/253
f 325/325/253 324/324/252 321/321/199
f 316/316/246 318/318/247 319/319/248
f 319/319/248 317/317/190 316/316/246
f 326/326/235 327/327/254 328/328/255
f 328/328/255 329/329/236 326/326/235
f 330/330/256 331/331/257 332/332/258
f 332/332/258 333/333/259 330/330/256
f 334/334/241 335/335/260 331/331/257
f 331/331/257 336/336/238 334/334/241
f 337/337/261 338/338/262 339/339/243
f 339/339/243 340/340/242 337/337/261
f 341/341/245 342/342/263 343/343/264
f 343/343/264 344/344/265 341/341/245
f 345/345/266 346/346/267 327/327/254
f 327/327/254 326/326/235 345/345/266
f 338/338/262 347/347/268 348/348/249
f 348/348/249 339/339/243 338/338/262
f 349/349/269 350/350/270 335/335/260
f 335/335/260 334/334/241 349/349/269
f 329/329/236 328/328/255 350/350/270
f 350/350/270 349/349/269 329/329/236
f 351/351/258 337/337/261 340/340/242
f 340/340/242 352/352/271 351/351/258
f 353/353/253 354/354/272 342/342/263
f 355/355/268 354/354/272 353/353/253
f 353/353/253 356/356/249 355/355/268
f 344/344/265 343/343/264 346/346/267
f 346/346/267 345/345/266 344/344/265
f 327/327/254 357/357/273 358/358/274
f 358/358/274 328/328/255 327/327/254
f 359/359/275 360/360/276 332/332/258
f 332/332/258 331/331/257 359/359/275
f 335/335/260 361/361/277 359/359/275
f 359/359/275 331/331/257 335/335/260
f 362/362/278 363/363/279 338/338/262
f 338/338/262 337/337/261 362/362/278
f 342/342/263 364/364/280 365/365/281
f 365/365/281 343/343/264 342/342/263
f 366/366/282 357/357/273 327/327/254
f 327/327/254 346/346/267 366/366/282
f 363/363/279 367/367/283 347/347/268
f 347/347/268 338/338/262 363/363/279
f 350/350/270 368/368/284 361/361/277
f 361/361/277 335/335/260 350/350/270
f 358/358/274 368/368/284 350/350/270
f 350/350/270 328/328/255 358/358/274
f 369/369/276 362/362/278 337/337/261
f 337/337/261 351/351/258 369/369/276
f 354/354/272 364/364/280 342/342/263
f 370/370/285 371/371/286 354/354/272
f 354/354/272 355/355/268 370/370/285
f 365/365/281 366/366/282 346/346/267
f 346/346/267 343/343/264 365/365/281
f 276/276/219 233/233/181 236/236/184
f 236/236/184 280/280/223 276/276/219
f 342/342/263 341/341/245 353/353/253
f 354/354/272 371/371/286 364/364/280
f 372/372/287 373/373/287 374/374/287
f 375/375/288 376/376/288 377/377/288
f 378/378/289 379/379/289 380/380/289
f 381/381/290 382/382/290 383/383/290
f 384/384/291 385/385/291 386/386/291
f 387/387/292 388/388/292 389/389/292
f 390/390/292 391/391/292 392/392/292
f 393/393/293 394/394/293 395/395/293
f 396/396/294 397/397/294 398/398/294
f 399/399/295 400/400/295 401/401/295
f 402/402/296 403/403/296 404/404/296
f 182/182/142 193/193/149 160/160/124
f 405/405/297 406/406/297 407/407/297
f 408/408/298 409/409/298 410/410/298
f 185/185/145 159/159/123 181/181/141
f 105/105/88 411/411/90 23/23/22
f 411/411/90 412/412/23 413/413/26
f 23/23/22 411/411/90 413/413/26
f 23/23/22 413/413/26 21/21/20
f 21/21/20 413/413/26 414/414/299
f 4/4/4 47/47/45 49/49/47
f 49/49/47 1/1/1 4/4/4
f 47/47/45 4/4/4 80/80/73
f 80/80/73 48/48/46 47/47/45
f 21/21/20 414/414/299 46/46/44
f 46/46/44 22/22/21 21/21/20
f 46/46/44 414/414/299 415/415/300
f 415/415/300 50/50/48 46/46/44
f 416/416/301 244/244/192 226/226/175
f 226/226/175 225/225/174 416/416/301
f 414/414/299 413/413/26 26/26/25
f 26/26/25 415/415/300 414/414/299
f 50/50/48 415/415/300 26/26/25
f 49/49/47 50/50/48 26/26/25
f 49/49/47 26/26/25 1/1/1
f 417/417/302 95/95/79 94/94/82
f 417/417/302 94/94/82 205/205/157
f 418/418/303 419/419/304 83/83/76
f 83/83/76 99/99/85 418/418/303
f 48/48/46 80/80/73 99/99/85
f 87/87/79 99/99/85 80/80/73
f 80/80/73 82/82/75 87/87/79
f 420/420/305 421/421/306 422/422/307
f 422/422/307 423/423/308 420/420/305
f 424/424/309 425/425/310 426/426/311
f 426/426/311 427/427/312 424/424/309
f 421/421/306 428/428/310 429/429/313
f 429/429/313 422/422/307 421/421/306
f 430/430/314 431/431/315 432/432/316
f 432/432/316 433/433/317 430/430/314
f 434/434/318 435/435/319 436/436/320
f 436/436/320 437/437/321 434/434/318
f 438/438/322 439/439/323 440/440/324
f 440/440/324 441/441/325 438/438/322
f 435/435/319 442/442/322 443/443/326
f 443/443/326 436/436/320 435/435/319
f 444/444/327 426/426/311 440/440/324
f 440/440/324 445/445/328 444/444/327
f 437/437/321 436/436/320 421/421/306
f 421/421/306 420/420/305 437/437/321
f 441/441/325 440/440/324 426/426/311
f 426/426/311 425/425/310 441/441/325
f 436/436/320 443/443/326 428/428/310
f 428/428/310 421/421/306 436/436/320
f 446/446/308 427/427/312 426/426/311
f 426/426/311 444/444/327 446/446/308
f 445/445/328 440/440/324 439/439/323
f 439/439/323 447/447/329 445/445/328
f 448/448/330 449/449/331 450/450/332
f 450/450/332 451/451/314 448/448/330
f 452/452/333 432/432/316 431/431/315
f 431/431/315 453/453/334 452/452/333
f 449/449/331 454/454/333 455/455/334
f 455/455/334 450/450/332 449/449/331
f 456/456/335 457/457/336 458/458/337
f 458/458/337 459/459/338 456/456/335
f 460/460/316 461/461/333 462/462/339
f 462/462/339 463/463/340 460/460/316
f 464/464/341 459/459/338 465/465/339
f 465/465/339 466/466/342 464/464/341
f 467/467/308 468/468/343 469/469/344
f 469/469/344 470/470/312 467/467/308
f 471/471/345 472/472/346 473/473/347
f 473/473/347 474/474/348 471/471/345
f 475/475/349 476/476/350 477/477/351
f 477/477/351 478/478/352 475/475/349
f 472/472/346 479/479/353 480/480/352
f 480/480/352 473/473/347 472/472/346
f 481/481/354 482/482/355 477/477/351
f 477/477/351 483/483/356 481/481/354
f 474/474/348 473/473/347 458/458/337
f 458/458/337 457/457/336 474/474/348
f 478/478/352 477/477/351 482/482/355
f 482/482/355 484/484/357 478/478/352
f 473/473/347 480/480/352 485/485/358
f 485/485/358 458/458/337 473/473/347
f 481/481/354 486/486/359 463/463/340
f 463/463/340 482/482/355 481/481/354
f 483/483/356 477/477/351 476/476/350
f 476/476/350 487/487/360 483/483/356
f 488/488/308 489/489/307 490/490/361
f 490/490/361 491/491/362 488/488/308
f 475/475/349 492/492/363 469/469/344
f 469/469/344 476/476/350 475/475/349
f 490/490/361 493/493/364 479/479/353
f 479/479/353 472/472/346 490/490/361
f 458/458/337 485/485/358 465/465/339
f 465/465/339 459/459/338 458/458/337
f 484/484/357 482/482/355 463/463/340
f 463/463/340 462/462/339 484/484/357
f 459/459/338 464/464/341 494/494/365
f 494/494/365 456/456/335 459/459/338
f 486/486/359 495/495/365 460/460/316
f 460/460/316 463/463/340 486/486/359
f 489/489/307 496/496/366 493/493/364
f 493/493/364 490/490/361 489/489/307
f 492/492/363 497/497/309 470/470/312
f 470/470/312 469/469/344 492/492/363
f 472/472/346 471/471/345 491/491/362
f 491/491/362 490/490/361 472/472/346
f 468/468/343 487/487/360 476/476/350
f 476/476/350 469/469/344 468/468/343
f 498/498/367 499/499/368 500/500/369
f 500/500/369 501/501/370 498/498/367
f 502/502/315 503/503/371 504/504/372
f 504/504/372 505/505/334 502/502/315
f 506/506/373 507/507/374 508/508/314
f 508/508/314 509/509/375 506/506/373
f 505/505/334 504/504/372 510/510/373
f 510/510/373 511/511/332 505/505/334
f 498/498/367 512/512/371 507/507/374
f 507/507/374 499/499/368 498/498/367
f 513/513/370 514/514/376 515/515/377
f 515/515/377 516/516/378 513/513/370
f 517/517/379 500/500/369 499/499/368
f 499/499/368 518/518/380 517/517/379
f 514/514/376 519/519/381 520/520/380
f 520/520/380 515/515/377 514/514/376
f 521/521/369 522/522/381 523/523/382
f 524/524/376 525/525/383 526/526/379
f 524/524/376 527/527/370 525/525/383
f 523/523/382 528/528/384 521/521/369
f 503/503/371 516/516/378 515/515/377
f 515/515/377 504/504/372 503/503/371
f 518/518/380 499/499/368 507/507/374
f 507/507/374 506/506/373 518/518/380
f 515/515/377 520/520/380 510/510/373
f 510/510/373 504/504/372 515/515/377
f 529/529/315 508/508/314 507/507/374
f 507/507/374 512/512/371 529/529/315
f 249/249/197 256/256/204 255/255/203
f 185/185/145 181/181/141 160/160/124
f 160/160/124 192/192/146 185/185/145
f 171/171/135 170/170/134 169/169/133
f 169/169/133 167/167/131 171/171/135
f 143/143/112 147/147/114 146/146/65
f 146/146/65 144/144/34 143/143/112
f 35/35/34 69/69/65 63/63/60
f 63/63/60 32/32/31 35/35/34
f 32/32/31 63/63/60 61/61/59
f 61/61/59 60/60/58 32/32/31
f 81/81/74 76/76/69 75/75/68
f 75/75/68 78/78/71 81/81/74
f 36/36/35 74/74/67 37/37/36
f 37/37/36 74/74/67 76/76/69
f 76/76/69 61/61/59 37/37/36
f 76/76/69 81/81/74 60/60/58
f 60/60/58 61/61/59 76/76/69
f 60/60/58 81/81/74 59/59/57
f 59/59/57 58/58/56 60/60/58
f 53/53/51 57/57/55 73/73/66
f 73/73/66 51/51/49 53/53/51
f 53/53/51 54/54/52 68/68/64
f 57/57/55 53/53/51 68/68/64
f 57/57/55 68/68/64 55/55/53
f 55/55/53 68/68/64 33/33/32
f 33/33/32 58/58/56 55/55/53
f 151/151/115 148/148/5 170/170/134
f 170/170/134 147/147/114 143/143/112
f 143/143/112 169/169/133 170/170/134
f 142/142/111 168/168/132 169/169/133
f 169/169/133 143/143/112 142/142/111
f 142/142/111 174/174/138 166/166/130
f 166/166/130 168/168/132 142/142/111
f 174/174/138 164/164/128 163/163/127
f 163/163/127 166/166/130 174/174/138
f 148/148/5 147/147/114 170/170/134
f 115/115/96 151/151/115 152/152/116
f 152/152/116 116/116/97 115/115/96
